<svg xmlns="http://www.w3.org/2000/svg" version="1.1"><polyline points="405.5,2.0,405.5,6.0,407.5,10.5,410.0,14.5,412.0,18.5,415.0,22.5,417.0,26.5,419.0,30.0,422.0,34.0,424.0,38.5,426.5,42.5,428.5,46.5,430.0,50.5,432.0,55.0,434.0,58.5,436.0,62.5,438.5,66.5,441.5,71.0" stroke="black" stroke-width="2" fill="none" />
<polyline points="456.0,58.0,452.0,51.0,448.0,45.5,443.5,38.0,440.5,33.5,436.5,26.0,432.0,19.5,428.0,12.0,424.5,6.5" stroke="black" stroke-width="2" fill="none" />
<polyline points="425.5,3.0,425.5,7.0,427.0,10.0,429.5,14.0,432.5,18.0,434.5,22.0,436.5,26.0,440.0,30.0,442.0,34.0,444.5,38.0,446.0,42.0,448.0,46.0,451.0,49.5,453.0,53.5,455.0,58.0,456.5,62.0,454.0,66.5,451.0,70.5,446.0,74.0,442.5,78.0,440.0,82.0,437.5,86.0,434.0,90.5,431.5,94.5,429.5,98.5,427.0,102.5,424.0,106.0,421.5,109.5,419.0,113.0,419.0,112.5,423.5,106.5,427.5,100.0,431.5,94.0,436.0,88.5,440.0,83.5,444.0,78.0,448.0,73.5,452.0,69.5,456.0,65.0,460.5,56.5,464.5,52.5,468.5,49.0,472.5,44.5,477.0,40.0,481.0,36.0,484.5,32.0,489.0,27.5,493.0,23.5,498.0,18.5,502.0,14.5,506.0,11.5,510.5,7.5" stroke="black" stroke-width="2" fill="none" />
<polyline points="513.0,7.0,507.0,11.0,503.0,15.0,498.0,19.0,495.0,22.5,490.5,26.5,487.0,30.5,483.5,34.5,479.0,38.5,475.5,43.0,471.5,47.0,467.5,51.0,463.0,55.0,459.0,59.0" stroke="black" stroke-width="2" fill="none" />
<polyline points="511.5,77.5,507.5,82.5,504.0,86.5,500.0,91.0,497.0,95.5,493.0,97.5,489.0,103.0,484.5,107.0,480.5,111.5,476.5,116.5,472.5,122.0,468.5,128.0,465.0,135.0,461.0,141.5" stroke="black" stroke-width="2" fill="none" />
<polyline points="453.5,153.5,449.5,160.5,446.5,166.0,442.0,174.0" stroke="black" stroke-width="2" fill="none" />
<polyline points="440.0,179.5,437.5,183.5" stroke="black" stroke-width="2" fill="none" />
<polyline points="433.0,194.5,429.0,202.5,426.5,210.0,425.5,215.0,421.0,219.0" stroke="black" stroke-width="2" fill="none" />
<polyline points="418.5,232.0,416.5,237.5,413.5,245.5" stroke="black" stroke-width="2" fill="none" />
<polyline points="404.0,275.5,402.0,279.5,400.0,286.5" stroke="black" stroke-width="2" fill="none" />
<polyline points="380.5,291.0,380.5,287.0,380.5,282.5,381.5,278.5,381.5,275.0" stroke="black" stroke-width="2" fill="none" />
<polyline points="378.5,270.5,377.0,266.0,375.5,262.0,376.5,258.0,374.5,254.5,374.0,250.5,372.5,246.5,371.0,242.0,370.0,237.5,369.5,233.5,370.0,230.0,370.5,226.0,371.0,222.0,372.0,218.0,372.5,214.0,370.0,220.5" stroke="black" stroke-width="2" fill="none" />
<polyline points="372.0,232.0,372.5,236.0,373.0,239.5,371.5,244.0" stroke="black" stroke-width="2" fill="none" />
<polyline points="369.5,249.0,369.5,253.0,370.0,257.0,371.5,261.5,372.5,265.5,373.0,269.0,372.0,273.0,374.0,274.5,373.0,277.5,373.5,281.0,374.0,285.0" stroke="black" stroke-width="2" fill="none" />
<polyline points="374.5,278.5,375.0,282.5,376.5,285.0,376.0,289.0,376.5,292.5,377.5,296.5,378.0,300.5,379.0,304.0,379.0,308.0,379.0,312.0,380.0,315.5,381.0,320.0,381.5,324.5,381.5,328.5,381.0,332.5,381.0,336.5,382.0,340.0,382.0,344.0,382.0,348.0,383.0,352.0" stroke="black" stroke-width="2" fill="none" />
<polyline points="368.5,352.5,370.0,356.5,370.5,360.0,370.5,364.0,371.0,367.5,371.5,372.0" stroke="black" stroke-width="2" fill="none" />
<polyline points="373.0,376.0,374.0,380.0,373.5,384.0" stroke="black" stroke-width="2" fill="none" />
<polyline points="380.5,386.0,380.5,389.5,380.0,393.0,379.5,397.0,378.5,401.0" stroke="black" stroke-width="2" fill="none" />
<polyline points="363.0,432.5,359.5,423.5,355.5,417.0,351.5,413.0,347.5,408.5,343.0,405.0,339.0,402.0,335.0,399.5,331.0,398.0,327.5,396.0,323.5,394.5,319.0,393.0,315.0,391.5,310.5,390.0,308.0,390.0,304.5,389.5,300.5,388.5" stroke="black" stroke-width="2" fill="none" />
<polyline points="312.0,382.5,316.0,372.5,320.0,366.0,324.5,360.0,328.5,353.0,333.0,345.0,337.0,336.0,341.5,327.0,345.5,319.0" stroke="black" stroke-width="2" fill="none" />
<polyline points="355.0,328.0,355.0,332.5,354.0,337.0,353.5,341.0,354.0,339.5" stroke="black" stroke-width="2" fill="none" />
<polyline points="353.5,353.5,354.0,357.5,354.0,361.5,353.0,365.5,353.0,369.0,353.0,372.5,352.5,376.5,352.5,380.5,352.5,386.5,352.5,390.5,352.5,395.0,353.0,398.5,353.0,402.5,351.0,404.5,352.0,408.5,351.5,413.0" stroke="black" stroke-width="2" fill="none" />
<polyline points="360.5,385.5,360.0,382.0,360.0,377.5,360.5,372.0,360.0,368.0,360.0,364.5" stroke="black" stroke-width="2" fill="none" />
<polyline points="359.0,360.5,359.5,364.5,359.5,368.5,359.0,373.0,359.5,377.5,359.5,382.0" stroke="black" stroke-width="2" fill="none" />
<polyline points="354.5,356.5,354.5,360.0,354.0,364.0,353.5,367.5,354.0,371.5,354.0,375.5,354.5,379.5,354.0,383.0,354.5,387.5,354.5,391.5,355.0,395.5,355.0,399.5,355.5,403.5,355.5,407.5,356.5,411.5,354.5,413.5" stroke="black" stroke-width="2" fill="none" />
<polyline points="374.5,464.0,372.5,461.5,371.5,457.5,371.5,453.5,372.0,449.5,372.0,445.5,372.5,441.0,373.0,436.5,373.5,432.5,374.0,428.5,374.5,424.5,375.0,420.0,376.0,416.0,376.0,412.0,376.5,408.0,377.0,404.5,377.5,400.5,377.5,396.5,377.5,392.0,378.0,388.5,378.0,384.5,378.5,380.5,378.0,376.0,378.0,372.0,377.5,368.0,378.5,364.0,379.5,359.5,379.5,356.0,378.5,352.0,377.5,348.0,376.5,344.5,376.0,340.5,375.5,337.0,375.0,333.0,374.5,329.5,373.0,325.5,372.5,321.5,372.5,317.5,372.0,313.5,371.5,309.0,371.0,304.5,371.5,300.5,371.0,296.5,370.5,292.5,370.0,288.0,369.5,284.0,369.5,280.5,369.5,276.0,369.5,272.0,368.5,268.0,368.0,264.5,368.0,260.5,367.5,256.5,367.0,252.5,367.0,248.5,366.0,244.0,366.5,240.0,365.5,236.0,364.5,232.5,363.5,228.0,362.0,224.0,361.0,220.0,359.5,216.0,357.5,212.0,355.5,208.5,354.5,206.0,351.0,202.0,349.5,198.0,349.0,196.0" stroke="black" stroke-width="2" fill="none" />
<polyline points="346.0,197.5,350.0,202.5" stroke="black" stroke-width="2" fill="none" />
<polyline points="349.5,200.5,353.5,206.0,357.5,213.5" stroke="black" stroke-width="2" fill="none" />
<polyline points="360.5,202.5,357.0,194.5" stroke="black" stroke-width="2" fill="none" />
<polyline points="359.0,192.5,359.0,196.0,360.5,200.0,362.0,204.0,362.5,207.5" stroke="black" stroke-width="2" fill="none" />
<polyline points="355.0,205.0,351.0,199.5" stroke="black" stroke-width="2" fill="none" />
<polyline points="351.5,199.0,354.5,203.5,356.5,207.5" stroke="black" stroke-width="2" fill="none" />
<polyline points="346.5,205.0,342.5,200.5" stroke="black" stroke-width="2" fill="none" />
<polyline points="340.0,202.0,342.5,206.0,347.5,210.0,351.0,214.0,353.5,218.5,356.0,223.0,358.5,228.0,360.5,232.5,362.5,237.0,364.0,241.0,364.5,245.5,365.0,249.0" stroke="black" stroke-width="2" fill="none" />
<polyline points="364.5,249.0,364.0,245.0" stroke="black" stroke-width="2" fill="none" />
<polyline points="353.0,241.0,349.5,245.5,344.5,249.5,341.0,253.5" stroke="black" stroke-width="2" fill="none" />
<polyline points="344.0,255.0,339.5,255.0,335.5,256.0,331.5,256.5" stroke="black" stroke-width="2" fill="none" />
<polyline points="327.0,258.0,331.0,254.5,335.0,252.5,339.0,251.5,342.5,250.0,347.0,247.5,351.0,244.0" stroke="black" stroke-width="2" fill="none" />
<polyline points="351.5,254.0,347.5,256.5" stroke="black" stroke-width="2" fill="none" />
<polyline points="337.5,263.5,341.5,264.5,343.0,270.5,341.5,274.5,340.0,281.5,342.5,282.5,343.0,282.5" stroke="black" stroke-width="2" fill="none" />
<polyline points="336.0,280.0,340.5,281.5,344.5,279.0,349.0,278.5,349.5,282.5,351.0,287.0,350.5,291.0,350.5,295.5,350.0,300.0,348.5,304.0,348.0,308.5,344.5,312.0,347.0,314.0,345.0,317.5,343.0,321.0,341.0,324.5,339.5,328.5,337.0,332.0,335.5,336.5,333.5,340.5,332.0,344.5,330.0,348.5,327.5,352.5,325.5,356.0,323.5,360.0,321.0,364.0,319.0,368.0,317.5,372.5,316.0,376.5,314.5,380.5,315.0,384.5,312.5,388.5,318.5,392.0,327.5,396.0,336.0,400.0,342.0,404.5,347.0,408.5,350.5,412.5,354.0,416.5,356.5,420.5,358.5,424.5,360.5,428.5,363.0,432.5,364.5,436.5,365.0,440.5,366.0,445.0,368.0,449.0,368.5,453.5,369.0,458.0,370.0,462.0,371.0,466.0,372.5,470.5,374.5,474.0,376.0,477.5,377.5,481.0,379.0,485.0,380.0,489.0,381.0,492.5,382.0,496.5,382.5,500.5,383.5,504.0,384.5,508.5,385.5,512.0" stroke="black" stroke-width="2" fill="none" />
<polyline points="421.5,490.0,425.5,495.0,429.5,494.5,433.5,491.0,437.0,488.0,441.0,483.5,445.0,480.0,449.0,474.5,452.0,470.0,456.5,466.5" stroke="black" stroke-width="2" fill="none" />
<polyline points="457.0,466.0,451.5,470.0,449.0,468.5,452.5,462.5" stroke="black" stroke-width="2" fill="none" />
<polyline points="455.5,451.0,460.0,442.0" stroke="black" stroke-width="2" fill="none" />
<polyline points="465.0,429.5,469.0,423.0,473.0,417.0,476.5,408.5,481.0,405.5,485.5,401.5,489.5,399.0,494.0,395.0,496.0,391.5,500.0,390.0,504.5,388.5,508.0,387.0,511.5,385.5" stroke="black" stroke-width="2" fill="none" />
<polyline points="512.5,382.0,502.0,386.0,493.5,390.5,492.0,395.0,486.0,399.5,482.5,404.0,477.5,408.0,475.5,412.0,474.5,416.0,472.0,420.5,469.5,424.0,468.0,428.0,466.0,431.5,462.5,435.5,460.5,439.5,458.5,443.0,457.0,447.0,455.5,451.0,454.5,455.0,454.5,459.0,453.0,462.5,451.0,466.5,449.0,470.5,449.5,475.0,447.0,479.5,443.0,483.5,439.0,487.5,434.0,491.5" stroke="black" stroke-width="2" fill="none" />
<polyline points="433.0,480.5,432.0,478.0,433.0,475.0,435.0,478.5,436.0,475.0,436.0,471.0,437.5,467.0,439.0,463.0,440.0,459.5,439.5,458.0,435.5,455.5,431.5,452.0" stroke="black" stroke-width="2" fill="none" />
<polyline points="439.0,457.0,435.0,455.0,431.0,451.0,430.5,447.5,431.0,443.0,431.5,439.0,432.5,435.0,434.5,431.0,432.5,434.0" stroke="black" stroke-width="2" fill="none" />
<polyline points="429.0,467.0,426.5,471.0,422.5,475.0,422.0,479.0,422.5,483.0,422.5,487.5,423.5,491.5" stroke="black" stroke-width="2" fill="none" />
<polyline points="418.0,468.5,419.5,472.5,423.0,477.0,427.0,473.0,431.0,468.0" stroke="black" stroke-width="2" fill="none" />
<polyline points="485.0,410.0,481.0,415.0,478.5,417.5,482.0,413.5,485.0,409.5,487.5,405.5" stroke="black" stroke-width="2" fill="none" />
<polyline points="444.0,424.5,446.0,423.0,448.0,419.0,449.0,415.5,449.5,411.5,450.5,407.5,451.0,403.5,451.0,399.5,451.0,395.0,451.5,391.0,453.0,387.0,453.5,382.5,453.5,378.5,453.5,375.0,453.5,371.0,453.0,366.5" stroke="black" stroke-width="2" fill="none" />
<polyline points="384.5,348.5,384.5,344.5,384.0,340.5,384.5,336.5,384.0,333.0,383.5,329.0" stroke="black" stroke-width="2" fill="none" />
<polyline points="367.0,352.5,367.5,356.0,368.5,360.0,368.5,364.5,368.0,368.5,371.0,373.5,371.0,377.5,371.0,381.5,371.0,385.5" stroke="black" stroke-width="2" fill="none" />
<polyline points="321.0,347.5,319.5,343.5,319.0,342.0" stroke="black" stroke-width="2" fill="none" />
<polyline points="320.0,347.5,315.5,350.5,311.0,350.5,307.0,352.0" stroke="black" stroke-width="2" fill="none" />
<polyline points="310.0,354.5,306.0,355.0,301.5,355.0,297.5,355.5,293.5,354.5" stroke="black" stroke-width="2" fill="none" />
<polyline points="293.0,358.5,297.5,360.0,301.5,359.0,305.5,360.0,309.5,359.0,309.5,359.0,308.5,363.0" stroke="black" stroke-width="2" fill="none" />
<polyline points="312.5,346.5,308.5,348.0,304.5,348.5,300.5,348.0,296.5,349.0,292.5,350.0" stroke="black" stroke-width="2" fill="none" />
<polyline points="306.5,334.0,305.0,330.5,315.5,328.0,315.0,328.5,311.0,330.5,307.0,331.5" stroke="black" stroke-width="2" fill="none" />
<polyline points="308.5,329.0,304.0,328.0,300.5,327.0,296.5,326.0" stroke="black" stroke-width="2" fill="none" />
<polyline points="294.5,326.0,299.0,324.5,303.0,324.5,307.0,326.0" stroke="black" stroke-width="2" fill="none" />
<polyline points="320.0,327.0,321.0,324.5,323.5,321.0,322.5,317.5,322.0,313.5,321.5,309.5,321.0,305.5" stroke="black" stroke-width="2" fill="none" />
<polyline points="337.0,281.0,336.5,276.0" stroke="black" stroke-width="2" fill="none" />
<polyline points="333.5,272.0,335.0,274.5,337.5,270.5,337.0,266.0,333.5,266.5" stroke="black" stroke-width="2" fill="none" />
<polyline points="328.5,271.5,326.5,270.5,329.0,270.0,335.0,269.5,330.5,269.5,326.5,268.5" stroke="black" stroke-width="2" fill="none" />
<polyline points="323.5,269.0,326.5,273.0" stroke="black" stroke-width="2" fill="none" />
<polyline points="325.5,275.5,321.5,274.0" stroke="black" stroke-width="2" fill="none" />
<polyline points="318.5,272.5,322.0,266.0,325.5,262.0,329.5,260.5,334.0,259.5,338.0,258.5,341.5,257.5,345.5,257.0,348.0,253.0,352.5,251.5" stroke="black" stroke-width="2" fill="none" />
<polyline points="347.0,238.5,346.0,234.5,344.5,230.0,343.5,226.0,343.0,222.5,342.0,218.5,341.5,214.5,341.0,210.5,337.0,203.5" stroke="black" stroke-width="2" fill="none" />
<polyline points="335.0,204.0,339.0,201.5,343.5,198.5,347.0,196.5,350.5,194.5,354.0,192.0,358.0,189.5,362.0,187.0,366.0,185.0,370.0,183.5,374.5,182.5,378.5,181.0,382.0,179.5,386.0,177.0,390.0,174.5,394.0,172.5,398.0,171.0,402.5,169.5,406.5,169.0,403.0,172.5,401.5,176.5,398.5,180.5,393.5,184.5,387.5,188.5,382.0,190.5,385.5,189.0,389.5,186.5,393.0,183.0,397.0,179.0,401.0,174.5" stroke="black" stroke-width="2" fill="none" />
<polyline points="403.0,164.0,405.5,158.0,404.5,162.0,405.0,166.5,398.5,170.5,391.0,175.0,384.0,179.0" stroke="black" stroke-width="2" fill="none" />
<polyline points="373.5,181.5,363.5,185.5,357.0,189.5,350.0,193.5,342.5,197.5,337.0,202.0,337.5,205.5,343.0,208.5,347.5,212.5,352.5,213.5" stroke="black" stroke-width="2" fill="none" />
<polyline points="344.0,210.0,340.0,207.5" stroke="black" stroke-width="2" fill="none" />
<polyline points="339.5,206.5,343.5,214.5" stroke="black" stroke-width="2" fill="none" />
<polyline points="341.0,205.5,345.0,208.0,349.0,212.0,353.0,217.0,357.0,224.5" stroke="black" stroke-width="2" fill="none" />
<polyline points="353.5,207.5,352.0,210.0,348.0,207.5,344.0,204.5,340.0,202.0" stroke="black" stroke-width="2" fill="none" />
<polyline points="343.5,204.5,348.5,209.0,352.0,213.0" stroke="black" stroke-width="2" fill="none" />
<polyline points="348.5,203.0,346.0,198.5" stroke="black" stroke-width="2" fill="none" />
<polyline points="346.0,199.5,345.0,203.5,348.5,207.5" stroke="black" stroke-width="2" fill="none" />
<polyline points="364.0,195.0,361.0,191.0" stroke="black" stroke-width="2" fill="none" />
<polyline points="360.5,190.5,364.5,195.5,369.0,195.0,373.0,193.5,377.5,192.0" stroke="black" stroke-width="2" fill="none" />
<polyline points="396.5,154.0,393.5,158.0,391.5,162.0,389.0,166.0,387.0,169.5,384.0,173.0,382.0,176.5,383.5,173.0,387.5,166.0,391.0,159.0,395.0,153.0" stroke="black" stroke-width="2" fill="none" />
<polyline points="404.5,158.0,400.0,162.0,396.5,166.5,393.0,170.0,389.5,173.5,388.5,174.5,393.0,170.5,397.0,166.5,401.0,162.5,405.0,158.5" stroke="black" stroke-width="2" fill="none" />
<polyline points="396.5,124.0,392.5,127.5,389.0,131.0,384.5,134.0,383.0,135.0,388.0,131.0,393.0,126.5,398.0,122.5" stroke="black" stroke-width="2" fill="none" />
<polyline points="396.5,121.0,392.5,124.5,388.0,127.5,384.0,130.5,380.5,133.0,385.0,129.0,390.5,124.5,396.0,120.5" stroke="black" stroke-width="2" fill="none" />
<polyline points="398.0,114.0,391.5,118.0,387.0,122.0,381.5,126.0,376.5,130.0,370.5,134.0,364.0,138.0,357.5,141.5,351.0,145.5" stroke="black" stroke-width="2" fill="none" />
<polyline points="338.5,153.0,331.5,156.5,326.0,160.0,318.5,164.0,312.5,168.5,306.5,172.5,301.0,176.0,296.0,180.0" stroke="black" stroke-width="2" fill="none" />
<polyline points="290.5,177.5,286.5,176.0" stroke="black" stroke-width="2" fill="none" />
<polyline points="281.0,174.5,285.0,174.0,289.5,174.0,293.5,178.5" stroke="black" stroke-width="2" fill="none" />
<polyline points="287.5,180.0,283.5,177.5,279.0,175.5" stroke="black" stroke-width="2" fill="none" />
<polyline points="275.5,175.0,276.0,179.0" stroke="black" stroke-width="2" fill="none" />
<polyline points="276.5,181.0,273.0,180.5,269.0,180.0,265.5,179.0,261.5,177.0,257.5,176.0,253.5,176.0,249.0,171.5,244.5,171.0,240.5,169.0" stroke="black" stroke-width="2" fill="none" />
<polyline points="243.0,173.0,246.5,171.5,247.0,172.5,251.5,173.5,250.0,175.0,256.0,180.0,248.0,184.5,247.5,187.0,242.0,191.0,240.5,195.0,239.5,198.0,238.5,202.0,237.5,206.0,240.5,209.0,244.5,210.5,248.5,210.5,252.5,212.0,256.5,204.0,255.0,207.5,253.5,211.5,252.0,214.5,251.5,218.5,248.5,222.5,245.0,226.5,242.0,231.0,238.5,235.0,235.5,239.0,233.5,245.5,230.0,249.5,227.5,253.0,224.5,256.5,222.5,261.0,219.5,265.5,217.0,269.5,214.5,274.0,212.0,278.0,209.5,282.0,207.5,286.0,205.0,290.0,203.0,294.0,200.5,298.0,198.5,302.0,196.5,305.5,194.5,309.0,192.5,313.0,191.5,317.0,186.0,318.5,183.5,322.5,183.0,326.0,180.0,329.5,173.0,333.5,169.0,337.5,165.5,339.5,165.5,345.0" stroke="black" stroke-width="2" fill="none" />
<polyline points="158.5,345.0,157.5,349.0,155.0,353.0,158.0,356.5,157.0,360.5,156.5,364.5,155.5,368.5,155.5,372.0,157.5,376.0,157.0,380.0,154.0,382.0,154.5,388.0,154.0,392.0,153.5,396.5,157.5,400.5,163.0,404.5,167.0,409.0,169.5,410.0" stroke="black" stroke-width="2" fill="none" />
<polyline points="165.5,413.5,161.5,407.5" stroke="black" stroke-width="2" fill="none" />
<polyline points="160.5,407.5,164.0,407.5,166.5,411.5,168.0,415.5,165.5,419.0,169.5,425.0,170.0,428.5" stroke="black" stroke-width="2" fill="none" />
<polyline points="168.0,429.5,172.0,435.5,176.0,436.0" stroke="black" stroke-width="2" fill="none" />
<polyline points="178.5,440.0,174.5,443.5,178.5,443.0,183.0,444.5,187.0,440.5" stroke="black" stroke-width="2" fill="none" />
<polyline points="179.0,445.0,175.0,444.0" stroke="black" stroke-width="2" fill="none" />
<polyline points="176.5,445.5,176.5,450.0,177.5,454.0,176.5,457.5" stroke="black" stroke-width="2" fill="none" />
<polyline points="173.5,461.0,169.5,454.5" stroke="black" stroke-width="2" fill="none" />
<polyline points="169.5,454.5,172.0,458.5,171.5,463.5,170.0,467.5,166.5,469.0" stroke="black" stroke-width="2" fill="none" />
<polyline points="167.0,469.0,162.5,468.5,156.5,472.0,152.5,469.5,148.5,463.5,145.0,455.0,141.0,452.5,137.5,458.0,133.5,466.5" stroke="black" stroke-width="2" fill="none" />
<polyline points="138.5,465.0,140.0,469.0,143.0,473.0,147.5,477.0,152.5,480.5,154.0,486.0,152.0,483.5,155.5,484.5,157.0,489.5,161.0,495.5,163.5,493.5,166.0,500.5" stroke="black" stroke-width="2" fill="none" />
<polyline points="163.5,504.0,165.0,505.0,168.0,509.0" stroke="black" stroke-width="2" fill="none" />
<polyline points="174.0,509.5,170.0,506.0,165.5,503.5,161.0,503.0,156.5,500.5,152.0,498.5,150.5,494.5,146.0,492.0,144.0,488.0,142.0,484.5,139.5,478.0" stroke="black" stroke-width="2" fill="none" />
<polyline points="140.5,483.0,144.0,490.5,148.5,495.0,151.0,499.0,153.5,503.0,152.5,505.0" stroke="black" stroke-width="2" fill="none" />
<polyline points="150.5,504.5,154.5,509.5" stroke="black" stroke-width="2" fill="none" />
<polyline points="155.0,501.5,151.0,495.0" stroke="black" stroke-width="2" fill="none" />
<polyline points="151.0,492.0,155.0,497.5" stroke="black" stroke-width="2" fill="none" />
<polyline points="153.0,493.0,152.5,487.5,148.5,484.0" stroke="black" stroke-width="2" fill="none" />
<polyline points="151.0,483.0,150.5,487.5,153.0,491.5,155.5,491.5,155.5,495.5,155.5,499.0,157.5,503.0,158.0,507.0,159.0,508.0,165.5,511.0" stroke="black" stroke-width="2" fill="none" />
<polyline points="156.0,506.0,151.5,503.5,147.5,496.5,146.0,491.5,142.0,482.5" stroke="black" stroke-width="2" fill="none" />
<polyline points="141.0,485.0,143.5,489.0,145.0,492.5,147.0,496.5,149.5,500.5,151.5,504.5,152.0,508.5,155.5,512.0" stroke="black" stroke-width="2" fill="none" />
<polyline points="152.0,509.5,148.0,500.0,144.0,494.5" stroke="black" stroke-width="2" fill="none" />
<polyline points="142.5,497.0,145.5,501.0,148.0,505.0,149.5,508.5,151.5,512.0" stroke="black" stroke-width="2" fill="none" />
<polyline points="141.0,513.0,143.0,509.0,141.0,505.0,140.5,501.0,140.0,496.5,135.0,491.5,134.5,486.0" stroke="black" stroke-width="2" fill="none" />
<polyline points="135.0,484.0,136.5,488.5,135.0,490.5,137.0,494.5,136.5,497.5,138.5,501.5,138.0,505.0" stroke="black" stroke-width="2" fill="none" />
<polyline points="132.5,507.5,128.5,498.5" stroke="black" stroke-width="2" fill="none" />
<polyline points="124.0,498.5,126.0,502.5,124.5,506.5,125.0,511.0" stroke="black" stroke-width="2" fill="none" />
<polyline points="125.0,509.5,125.5,505.0,125.5,501.5,125.5,497.5,124.5,492.5,123.5,490.5" stroke="black" stroke-width="2" fill="none" />
<polyline points="125.0,495.5,129.0,503.5,133.0,509.0" stroke="black" stroke-width="2" fill="none" />
<polyline points="134.5,512.0,131.5,508.0,129.0,504.0" stroke="black" stroke-width="2" fill="none" />
<polyline points="139.0,495.0,139.5,487.5,135.5,484.0" stroke="black" stroke-width="2" fill="none" />
<polyline points="135.5,482.5,133.5,486.5,134.5,490.5,136.5,495.0,133.5,497.0,136.0,501.0,138.0,505.0,139.5,509.0,140.0,513.5" stroke="black" stroke-width="2" fill="none" />
<polyline points="159.0,501.5,161.5,505.5,162.5,510.0" stroke="black" stroke-width="2" fill="none" />
<polyline points="165.5,497.5,161.0,495.5" stroke="black" stroke-width="2" fill="none" />
<polyline points="169.5,490.0,168.0,485.5,161.0,482.5" stroke="black" stroke-width="2" fill="none" />
<polyline points="166.0,477.5,164.0,481.5,166.0,479.5,169.5,480.5" stroke="black" stroke-width="2" fill="none" />
<polyline points="164.5,470.0,168.5,474.0,170.0,478.5,167.0,482.5,165.5,486.5,168.0,490.5,168.5,493.0" stroke="black" stroke-width="2" fill="none" />
<polyline points="195.0,491.0,199.0,490.5,202.5,489.5,206.0,488.5,209.5,487.5,213.0,485.0,216.5,482.5,220.5,478.0,224.5,472.5,228.5,466.5" stroke="black" stroke-width="2" fill="none" />
<polyline points="232.5,466.0,236.5,458.5" stroke="black" stroke-width="2" fill="none" />
<polyline points="211.0,485.5,216.5,481.5,220.5,477.5,223.5,473.5,226.5,469.5,229.5,466.0,231.5,462.5,233.5,458.5,233.5,454.5,234.0,450.0,234.5,446.0,235.5,442.0,236.5,437.5,236.5,434.0,236.0,430.0,236.0,426.0,235.5,422.0,234.5,418.5,233.5,414.5,232.0,410.5,231.0,406.5,230.5,404.5" stroke="black" stroke-width="2" fill="none" />
<polyline points="223.5,410.5,223.0,415.0,224.5,415.5" stroke="black" stroke-width="2" fill="none" />
<polyline points="228.5,416.5,227.5,420.5" stroke="black" stroke-width="2" fill="none" />
<polyline points="245.0,411.0,244.5,415.0,245.0,418.5,244.0,422.5,243.0,426.0,241.5,430.0,241.5,434.0,240.5,438.0,240.0,442.0,239.5,446.0,238.0,450.0,237.5,454.0,236.5,458.0,235.0,462.0,233.0,466.0,232.5,470.0,229.5,474.0,227.5,478.0,223.5,482.5,219.0,486.5,211.0,490.5" stroke="black" stroke-width="2" fill="none" />
<polyline points="200.0,495.5,196.0,498.5,199.5,495.5,203.0,495.5,207.0,494.0,211.0,492.5,215.0,490.5,219.0,487.5,223.5,483.5,227.5,479.5,231.5,472.5" stroke="black" stroke-width="2" fill="none" />
<polyline points="199.5,450.0,200.0,446.0,202.5,446.0,198.0,448.0" stroke="black" stroke-width="2" fill="none" />
<polyline points="198.0,450.5,194.0,448.5,190.0,448.0,186.5,447.5,182.5,446.5,178.5,450.0,179.5,448.5,181.5,448.5,184.0,442.0,183.5,437.5,181.5,435.5,180.0,433.5,181.0,429.5,181.5,426.0,180.5,422.0,179.0,418.0,177.5,414.0,176.0,410.0,174.0,405.5,171.5,401.5,168.5,397.5,165.5,393.5,160.5,389.5,158.5,385.0,162.5,381.0,163.5,377.0,162.0,381.0" stroke="black" stroke-width="2" fill="none" />
<polyline points="160.5,376.5,164.0,371.0,167.5,366.0,171.5,361.5,175.5,356.5,179.5,350.0,183.5,343.5,187.5,339.0,191.5,333.5,195.5,329.0,199.5,324.0" stroke="black" stroke-width="2" fill="none" />
<polyline points="197.5,319.0,201.5,317.0" stroke="black" stroke-width="2" fill="none" />
<polyline points="192.0,316.5,196.0,307.5,200.0,299.0,204.0,291.0,208.0,285.0,212.0,277.5,215.5,270.5,219.0,264.5,223.0,258.0,227.0,252.0,231.0,246.5,235.0,241.0,239.5,236.0,243.5,231.0,248.0,227.0,252.0,222.5,256.5,218.0" stroke="black" stroke-width="2" fill="none" />
<polyline points="264.0,221.5,267.5,226.0" stroke="black" stroke-width="2" fill="none" />
<polyline points="265.0,234.0,265.0,238.0" stroke="black" stroke-width="2" fill="none" />
<polyline points="262.0,239.0,262.0,234.5,262.0,230.5,262.0,226.0,262.0,224.5,258.0,223.5,252.5,229.0,248.5,233.5,244.5,238.0,240.5,243.0,236.5,248.0,232.5,253.5,228.5,258.5,224.5,265.0,220.5,271.5,216.5,279.0,214.5,283.0,216.0,279.0,218.5,274.5,220.5,271.0,223.0,267.0,225.5,263.5,228.0,259.5,231.5,256.0,234.5,251.5,237.5,247.5,240.5,243.5,243.5,240.0,246.5,236.0,250.5,232.0,255.5,227.0,259.5,223.0,262.0,219.0,264.0,217.5,262.5,216.5,264.0,212.0,264.5,208.5,268.0,204.0,269.5,200.0,270.0,195.5,270.5,191.5,269.5,187.0,265.0,192.0,261.0,197.0,257.0,201.5,252.5,203.0" stroke="black" stroke-width="2" fill="none" />
<polyline points="251.5,202.5,255.5,198.5" stroke="black" stroke-width="2" fill="none" />
<polyline points="263.0,199.0,259.0,207.0,257.0,214.0,253.0,217.5,249.0,222.0,244.5,226.5,240.5,231.0,236.5,236.5,233.0,236.0,232.5,234.5,231.5,230.5,231.0,226.5,230.5,222.0,229.0,218.0,227.5,214.0,225.5,214.0,224.5,210.0,225.5,206.5,226.5,202.5" stroke="black" stroke-width="2" fill="none" />
<polyline points="233.5,202.0,236.5,201.0,234.5,205.0,234.5,209.5" stroke="black" stroke-width="2" fill="none" />
<polyline points="237.5,205.5,237.5,201.0" stroke="black" stroke-width="2" fill="none" />
<polyline points="238.0,195.5,242.0,191.0" stroke="black" stroke-width="2" fill="none" />
<polyline points="243.0,200.0,247.0,194.5,251.0,191.5,255.0,189.5,250.0,189.0,246.5,193.0,243.5,194.0,248.0,190.5,251.5,189.0,255.0,184.5,256.0,188.0,260.5,185.5,264.5,182.5,268.5,181.0" stroke="black" stroke-width="2" fill="none" />
<polyline points="268.0,181.0,264.0,185.0,258.5,189.0,255.0,191.5,254.5,195.5,250.5,199.5,247.5,203.5,247.0,204.0,251.0,204.5,251.0,201.0,255.5,197.0,259.0,193.0,263.5,189.5,267.5,186.5,271.5,188.5" stroke="black" stroke-width="2" fill="none" />
<polyline points="267.0,190.5,263.0,192.0,259.0,195.5,256.5,202.5,260.5,198.0,264.0,194.0,266.5,190.0" stroke="black" stroke-width="2" fill="none" />
<polyline points="265.0,189.5,260.5,193.5,257.5,198.0,253.0,201.5,252.5,206.0,252.0,210.0,253.5,215.0,253.5,217.0" stroke="black" stroke-width="2" fill="none" />
<polyline points="261.0,210.0,265.0,202.0,262.5,202.0,260.5,206.0,258.5,209.5,258.0,213.0,255.5,218.0,252.5,221.0,249.5,224.5,245.5,228.5,242.0,232.5,239.5,236.5,235.5,241.0" stroke="black" stroke-width="2" fill="none" />
<polyline points="233.5,225.0,229.5,223.0" stroke="black" stroke-width="2" fill="none" />
<polyline points="232.5,222.5,228.5,220.0" stroke="black" stroke-width="2" fill="none" />
<polyline points="226.5,215.0,224.0,220.0,228.0,228.5" stroke="black" stroke-width="2" fill="none" />
<polyline points="219.5,232.5,221.0,236.5" stroke="black" stroke-width="2" fill="none" />
<polyline points="217.5,233.0,221.0,232.0,222.5,236.0,223.0,240.0,221.0,244.0,219.0,248.5" stroke="black" stroke-width="2" fill="none" />
<polyline points="221.0,251.0,222.5,246.5,225.0,242.5,225.0,238.5,228.0,234.5,222.0,234.5,224.0,231.5,221.0,230.5,220.5,226.0,220.5,222.0,220.0,217.5,220.0,213.5" stroke="black" stroke-width="2" fill="none" />
<polyline points="218.0,216.5,217.0,220.5,217.5,224.5,216.0,227.0,219.5,231.0,224.5,230.5,230.0,234.0" stroke="black" stroke-width="2" fill="none" />
<polyline points="231.0,245.0,227.0,250.0,223.0,256.5,218.5,262.0,214.5,268.5,210.0,274.5,206.0,280.5,202.0,288.0,198.0,295.0,194.5,303.0,190.5,312.5,186.5,316.5,182.5,324.5,178.0,328.5,174.0,328.5,170.0,329.5,166.0,332.0,162.0,339.0,158.0,341.5,154.0,344.5,150.0,350.5,146.0,348.0" stroke="black" stroke-width="2" fill="none" />
<polyline points="144.5,343.5,147.5,339.0,145.5,338.5,149.5,336.0,148.5,332.0,151.0,327.5,149.0,328.5" stroke="black" stroke-width="2" fill="none" />
<polyline points="151.0,328.0,154.0,332.0,153.0,337.0" stroke="black" stroke-width="2" fill="none" />
<polyline points="149.0,340.0,147.5,344.0,147.5,348.0,146.0,352.5" stroke="black" stroke-width="2" fill="none" />
<polyline points="142.0,347.5,137.5,346.0,137.0,342.0,136.0,338.0,135.0,334.5,134.5,330.5,133.0,326.5,131.5,323.0,131.0,319.0,130.5,315.0,130.0,311.0,127.0,302.5,130.5,300.0" stroke="black" stroke-width="2" fill="none" />
<polyline points="133.5,301.5,133.5,297.5" stroke="black" stroke-width="2" fill="none" />
<polyline points="138.5,292.0,134.0,296.0,130.0,298.5,126.0,301.0" stroke="black" stroke-width="2" fill="none" />
<polyline points="126.0,298.5,129.5,295.5,133.5,293.5,137.5,289.5" stroke="black" stroke-width="2" fill="none" />
<polyline points="130.0,281.0,133.5,280.0,137.5,278.5,141.0,277.0" stroke="black" stroke-width="2" fill="none" />
<polyline points="139.5,275.5,143.0,274.5,149.0,270.5,153.0,266.5" stroke="black" stroke-width="2" fill="none" />
<polyline points="153.5,268.0,155.5,272.0" stroke="black" stroke-width="2" fill="none" />
<polyline points="151.0,272.0,155.0,273.0,158.5,271.0,163.0,278.0" stroke="black" stroke-width="2" fill="none" />
<polyline points="169.0,280.0,167.5,279.0,170.0,275.5,169.0,271.5,169.0,267.5,169.5,263.5,170.0,259.5,171.0,255.0,173.5,251.0,170.0,256.5" stroke="black" stroke-width="2" fill="none" />
<polyline points="166.5,256.5,170.5,253.0,174.5,246.0" stroke="black" stroke-width="2" fill="none" />
<polyline points="173.5,253.0,174.5,257.0,174.5,261.0,175.0,264.5" stroke="black" stroke-width="2" fill="none" />
<polyline points="178.5,262.5,174.0,255.5" stroke="black" stroke-width="2" fill="none" />
<polyline points="178.5,256.0,182.5,263.0" stroke="black" stroke-width="2" fill="none" />
<polyline points="182.0,264.0,179.5,260.0" stroke="black" stroke-width="2" fill="none" />
<polyline points="178.5,258.5,178.0,262.0" stroke="black" stroke-width="2" fill="none" />
<polyline points="184.0,255.0,185.0,258.0,185.0,262.0,185.5,266.0,186.5,269.5" stroke="black" stroke-width="2" fill="none" />
<polyline points="198.0,257.5,201.5,261.0,205.5,264.0" stroke="black" stroke-width="2" fill="none" />
<polyline points="213.0,255.0,209.5,250.0,206.5,248.5,207.0,244.5,207.5,240.5,208.5,236.5,210.0,233.0,207.5,237.5" stroke="black" stroke-width="2" fill="none" />
<polyline points="209.5,237.5,210.5,236.0,209.5,240.0,209.0,243.5,208.5,244.5" stroke="black" stroke-width="2" fill="none" />
<polyline points="205.5,250.0,207.5,251.0" stroke="black" stroke-width="2" fill="none" />
<polyline points="206.5,251.5,210.5,255.5,214.0,257.5" stroke="black" stroke-width="2" fill="none" />
<polyline points="216.0,250.5,215.5,246.5,215.0,242.5,212.0,238.5,212.0,236.5" stroke="black" stroke-width="2" fill="none" />
<polyline points="213.5,236.5,214.0,240.5,213.5,245.0,213.0,249.0,214.0,251.0,214.5,255.5,215.5,256.5" stroke="black" stroke-width="2" fill="none" />
<polyline points="216.5,256.0,214.0,252.5,213.5,248.5" stroke="black" stroke-width="2" fill="none" />
<polyline points="203.5,266.0,200.0,265.0,196.5,260.0,196.0,253.0,192.5,250.0" stroke="black" stroke-width="2" fill="none" />
<polyline points="190.5,251.5,195.5,251.0,197.5,255.0,198.5,259.5,204.5,263.5" stroke="black" stroke-width="2" fill="none" />
<polyline points="187.5,272.5,185.5,270.0,184.0,266.0,183.5,262.0,183.5,258.0,183.0,254.0,184.5,250.0,185.5,244.5,190.0,242.0,194.5,238.0,197.0,234.0,194.0,239.0,189.5,243.0,185.5,244.0" stroke="black" stroke-width="2" fill="none" />
<polyline points="191.5,239.5,189.0,235.5,188.0,231.5,189.0,227.5,190.5,223.5,193.5,219.0,193.0,219.0,189.5,228.0" stroke="black" stroke-width="2" fill="none" />
<polyline points="184.5,225.0,189.0,218.0,188.5,221.0,186.5,225.0,186.5,228.5,187.0,232.5,188.5,236.5" stroke="black" stroke-width="2" fill="none" />
<polyline points="187.0,235.5,191.0,242.0" stroke="black" stroke-width="2" fill="none" />
<polyline points="199.0,235.5,195.0,241.5,191.0,244.5,187.5,246.5,192.5,243.0,196.5,238.5,198.5,234.5" stroke="black" stroke-width="2" fill="none" />
<polyline points="210.0,227.0,206.0,222.0" stroke="black" stroke-width="2" fill="none" />
<polyline points="213.5,220.5,209.5,214.5" stroke="black" stroke-width="2" fill="none" />
<polyline points="212.5,216.5,214.0,220.0,215.5,226.5,218.5,230.0,217.0,234.0" stroke="black" stroke-width="2" fill="none" />
<polyline points="220.0,205.5,224.0,201.0,226.5,198.0,223.0,202.5,220.5,207.0,219.5,211.5,222.5,214.5,223.5,218.0,225.5,222.0,228.5,226.0,230.0,230.0,231.0,233.5,232.0,237.5,234.5,241.5,231.5,245.5,229.0,249.0,226.0,252.5,223.0,256.0,221.0,259.5,218.5,263.5,216.0,267.0,214.0,271.0,211.0,275.5,208.0,279.5,205.5,283.5,203.0,287.5,201.0,292.0,199.0,296.0,196.5,300.0,195.5,304.0,193.5,308.0,192.0,312.0,189.0,316.5,191.5,319.5,195.5,321.5,199.0,320.0,204.5,314.0,208.5,309.5,212.5,303.0,216.5,297.0,220.5,291.5,224.5,286.5,228.5,281.5,233.0,277.0,237.0,272.5,241.5,268.0,245.5,264.0,249.5,259.5,253.5,256.0,257.5,253.0,261.5,249.0,265.5,246.5,269.5,244.0,274.5,245.0,278.5,247.5,282.5,248.5,286.5,250.0,290.5,250.5,295.0,253.5,299.5,256.5" stroke="black" stroke-width="2" fill="none" />
<polyline points="290.0,258.5,287.5,258.5,284.5,260.0,286.0,261.0" stroke="black" stroke-width="2" fill="none" />
<polyline points="288.0,262.5,289.0,268.5,291.0,272.5" stroke="black" stroke-width="2" fill="none" />
<polyline points="291.0,274.0,287.0,268.0" stroke="black" stroke-width="2" fill="none" />
<polyline points="287.0,267.5,288.0,272.0" stroke="black" stroke-width="2" fill="none" />
<polyline points="284.0,277.0,280.5,276.5" stroke="black" stroke-width="2" fill="none" />
<polyline points="288.5,272.5,284.5,270.5,281.0,266.5,277.0,265.0,273.5,266.0" stroke="black" stroke-width="2" fill="none" />
<polyline points="269.5,266.5,269.5,266.0,271.0,270.0" stroke="black" stroke-width="2" fill="none" />
<polyline points="271.5,267.0,266.5,270.0,262.5,267.5" stroke="black" stroke-width="2" fill="none" />
<polyline points="262.0,268.5,266.0,273.0,270.0,273.5,273.5,270.0,274.0,268.0,271.0,272.0,271.0,277.0,273.5,281.0,275.0,281.5" stroke="black" stroke-width="2" fill="none" />
<polyline points="263.0,280.5,264.0,276.5,258.5,274.0,259.0,270.5,257.5,267.0,257.5,267.0" stroke="black" stroke-width="2" fill="none" />
<polyline points="261.0,266.5,262.5,270.5,267.5,274.5,268.0,282.0" stroke="black" stroke-width="2" fill="none" />
<polyline points="260.5,271.0,256.5,274.0,253.0,270.5,249.0,268.5" stroke="black" stroke-width="2" fill="none" />
<polyline points="248.0,268.0,251.0,266.5,250.0,270.5,254.0,274.5,256.5,278.5,263.5,277.5,267.5,278.5,270.5,277.0,274.5,279.5,279.0,280.0,283.5,272.5,280.0,276.0,278.5,282.0" stroke="black" stroke-width="2" fill="none" />
<polyline points="292.5,271.0,290.5,267.0,287.5,262.5,282.0,258.5,282.5,253.5,279.0,252.5" stroke="black" stroke-width="2" fill="none" />
<polyline points="277.5,257.0,275.5,253.0,272.0,251.0,268.0,250.5,264.5,252.5" stroke="black" stroke-width="2" fill="none" />
<polyline points="268.0,258.0,271.5,254.0" stroke="black" stroke-width="2" fill="none" />
<polyline points="281.0,256.5,276.5,258.0,273.0,255.0,270.0,256.5,266.0,258.0,261.5,257.0,259.0,259.0,255.0,260.0" stroke="black" stroke-width="2" fill="none" />
<polyline points="265.0,268.5,263.5,269.5,264.5,271.0,268.5,272.5" stroke="black" stroke-width="2" fill="none" />
<polyline points="277.0,263.0,282.0,267.0,284.5,271.5,286.0,275.5,287.0,278.5,286.0,280.0,289.0,276.5" stroke="black" stroke-width="2" fill="none" />
<polyline points="296.5,255.5,290.0,251.0" stroke="black" stroke-width="2" fill="none" />
<polyline points="273.5,243.5,268.0,244.5,262.5,248.5,257.5,253.0,252.5,257.5,248.0,262.5,244.5,266.5,240.5,270.0,237.0,274.0,233.0,278.0,229.5,282.0,226.0,286.5,222.5,290.5,219.0,294.5,215.5,298.5,213.0,302.0,210.0,305.5,207.0,309.0,203.5,312.5,202.5,316.5,200.0,321.0,196.5,325.0,193.5,328.5,191.5,333.0,188.5,336.5,185.5,340.5,183.0,345.0,179.5,349.0,177.5,353.0,175.0,357.5,172.0,361.5,168.5,365.5,164.5,369.5,161.5,374.0,159.0,378.0,157.5,384.0,161.0,390.5,165.5,393.5,169.5,398.5,173.5,403.5,177.5,411.5" stroke="black" stroke-width="2" fill="none" />
<polyline points="172.0,406.0,168.5,401.5,164.0,401.0,158.0,395.0,153.5,391.0" stroke="black" stroke-width="2" fill="none" />
<polyline points="154.5,386.0,150.5,383.0,152.0,380.5" stroke="black" stroke-width="2" fill="none" />
<polyline points="142.5,384.5,141.0,379.0,137.0,374.0" stroke="black" stroke-width="2" fill="none" />
<polyline points="134.0,373.0,140.5,372.0,142.0,375.5,143.0,380.0,146.0,380.5,146.5,385.0" stroke="black" stroke-width="2" fill="none" />
<polyline points="143.0,391.0,141.5,395.0,138.5,399.0,137.0,403.5,132.5,407.5,129.0,411.5,129.0,415.0,132.5,419.0,135.0,422.0,138.5,425.5,139.5,430.5,140.5,434.5,138.0,439.5,139.0,443.5,138.0,447.0,138.5,451.5,137.0,455.5,134.5,458.5,133.5,463.0,137.5,467.5,138.5,468.0,142.0,469.0,145.5,474.0,149.0,477.5,152.0,480.0,155.5,482.5,160.0,483.5,164.0,486.5,167.0,490.0" stroke="black" stroke-width="2" fill="none" />
<polyline points="171.5,464.0,168.0,462.5" stroke="black" stroke-width="2" fill="none" />
<polyline points="177.5,466.0,178.5,461.5,180.5,457.5,175.0,460.5,173.0,456.5,170.5,452.5,169.0,449.5,167.0,445.5,166.5,442.5,166.5,437.0,166.5,432.5,167.5,432.5" stroke="black" stroke-width="2" fill="none" />
<polyline points="168.0,435.0,161.5,434.5,160.5,434.0,163.5,430.5" stroke="black" stroke-width="2" fill="none" />
<polyline points="161.0,425.0,159.0,427.5,159.0,423.5,160.5,419.5,160.5,426.0,162.5,422.0,162.0,417.5,161.5,413.5,162.0,409.5,160.5,406.0,161.0,402.0,161.5,397.5,160.0,393.5,156.5,388.0,155.5,383.5,154.5,379.5,153.0,376.0,153.5,372.0,153.0,368.5,149.0,362.5" stroke="black" stroke-width="2" fill="none" />
<polyline points="147.5,361.0,150.5,365.0,150.5,366.5,150.5,370.5,151.5,375.0,152.0,379.0,151.5,383.5,151.0,385.0,155.5,389.0,159.0,392.0,162.5,396.5,168.5,399.0,172.5,402.5,176.0,410.0" stroke="black" stroke-width="2" fill="none" />
<polyline points="172.0,418.5,174.0,422.0,176.0,426.0,176.5,429.5,176.0,433.5,174.5,436.5,171.5,439.0,172.5,440.0,172.5,445.5,173.5,449.5,174.0,453.5,177.0,456.5,174.0,462.0,175.0,466.0,171.0,464.5,174.5,468.0" stroke="black" stroke-width="2" fill="none" />
<polyline points="179.0,461.0,174.5,458.0,170.0,451.0,166.0,444.0" stroke="black" stroke-width="2" fill="none" />
<polyline points="163.5,444.5,165.0,449.0,166.5,453.0,168.5,457.5,171.5,461.5,168.5,464.5,167.5,468.5,163.0,471.0,164.0,475.0,163.0,479.5,160.5,480.5,160.5,483.5,159.5,487.5,160.5,492.0,164.5,496.0,166.0,500.0,167.5,506.5,171.5,510.0,172.0,514.0,173.0,514.0" stroke="black" stroke-width="2" fill="none" />
<polyline points="155.5,466.5,149.0,460.0" stroke="black" stroke-width="2" fill="none" />
<polyline points="148.5,458.5,153.0,463.0,156.5,465.5" stroke="black" stroke-width="2" fill="none" />
<polyline points="159.0,461.0,155.5,458.5" stroke="black" stroke-width="2" fill="none" />
<polyline points="159.0,462.0,152.5,457.5,153.0,455.5,152.0,451.5,151.0,447.5,149.0,444.0,145.0,440.0,144.5,435.5,145.0,431.0,142.5,427.0,140.5,423.5,138.0,423.0,134.0,418.5,130.0,414.0" stroke="black" stroke-width="2" fill="none" />
<polyline points="130.0,412.0,133.5,407.5,140.0,402.0,144.0,398.0" stroke="black" stroke-width="2" fill="none" />
<polyline points="142.5,396.0,142.0,399.5" stroke="black" stroke-width="2" fill="none" />
<polyline points="141.0,400.5,142.0,404.5,146.0,408.5,150.5,412.5" stroke="black" stroke-width="2" fill="none" />
<polyline points="155.5,421.0,156.0,421.0,156.0,425.0,157.0,429.0,157.0,432.5,157.0,435.0,156.0,439.0,155.5,441.5" stroke="black" stroke-width="2" fill="none" />
<polyline points="161.0,445.5,165.0,441.5,168.5,445.5,172.5,445.5,176.5,440.5,181.0,439.0,181.5,434.5" stroke="black" stroke-width="2" fill="none" />
<polyline points="178.5,424.5,177.5,421.0,175.0,417.5,175.5,414.5,172.5,414.0,169.5,410.0,166.0,406.0,163.0,402.5,163.5,398.5,165.0,402.0" stroke="black" stroke-width="2" fill="none" />
<polyline points="168.0,403.0,172.0,407.5,173.5,412.5,171.5,417.5,169.5,422.0,168.5,426.0,165.5,426.0,164.5,430.0,164.5,434.5,160.0,437.0,164.0,431.5,167.5,427.0,170.0,425.0,172.5,429.0" stroke="black" stroke-width="2" fill="none" />
<polyline points="168.0,425.0,169.5,429.0,171.0,433.0,170.0,436.5,169.5,438.0,174.5,438.0" stroke="black" stroke-width="2" fill="none" />
<polyline points="163.5,441.5,162.0,442.0,161.0,446.0,159.0,450.5,159.5,454.5,161.0,457.0,163.5,461.5" stroke="black" stroke-width="2" fill="none" />
<polyline points="163.0,456.5,161.5,458.0,162.0,453.5,163.5,449.5,160.5,450.5,160.0,448.5" stroke="black" stroke-width="2" fill="none" />
<polyline points="149.0,455.5,145.0,452.0" stroke="black" stroke-width="2" fill="none" />
<polyline points="145.5,449.0,149.0,453.0,152.0,454.0,152.0,458.5,153.0,455.5,157.0,456.0,162.5,454.5" stroke="black" stroke-width="2" fill="none" />
<polyline points="155.5,451.5,152.0,450.5,148.0,450.0,144.0,448.0" stroke="black" stroke-width="2" fill="none" />
<polyline points="146.0,449.0,147.0,453.0,149.5,457.0,150.5,461.5,151.5,465.5,150.5,468.5,154.5,471.0,156.5,475.0,156.0,478.5,160.0,480.5,164.0,478.0,168.5,478.0" stroke="black" stroke-width="2" fill="none" />
<polyline points="156.0,474.0,152.0,471.5,148.0,465.0" stroke="black" stroke-width="2" fill="none" />
<polyline points="149.5,467.5,152.0,472.0,157.5,476.0" stroke="black" stroke-width="2" fill="none" />
<polyline points="153.5,474.5,150.0,473.5,145.5,467.5,142.0,465.0,138.0,463.5" stroke="black" stroke-width="2" fill="none" />
<polyline points="139.5,453.5,142.0,457.5,143.0,461.5,143.5,465.5,145.5,469.0,147.5,472.5,151.0,477.0,156.0,479.5" stroke="black" stroke-width="2" fill="none" />
<polyline points="167.0,472.0,165.0,476.5,159.5,475.5,161.0,476.5,158.0,473.5,157.0,468.0,154.0,468.0,150.0,462.5" stroke="black" stroke-width="2" fill="none" />
<polyline points="140.5,451.5,143.0,455.5,145.5,459.0,146.5,462.5,147.5,466.5,148.5,470.5,152.5,474.0,155.0,477.5,158.0,478.0,158.5,483.0,157.0,486.5,160.0,490.5,163.0,494.5,163.5,498.5,165.5,502.5,165.0,506.0,166.5,510.0" stroke="black" stroke-width="2" fill="none" />
<polyline points="171.5,460.5,167.5,454.5,163.5,452.5,163.0,448.5,159.0,450.5,156.0,448.0,156.0,449.5,157.0,445.5,154.5,441.5,154.5,437.0,150.0,437.0,148.0,433.0,147.0,429.5,149.5,426.5,144.5,422.5,139.0,420.5" stroke="black" stroke-width="2" fill="none" />
<polyline points="140.5,421.5,144.5,424.0" stroke="black" stroke-width="2" fill="none" />
<polyline points="140.0,423.0,144.0,430.0,150.5,439.5" stroke="black" stroke-width="2" fill="none" />
<polyline points="150.0,423.5,146.0,418.0,141.5,413.0,137.5,409.5" stroke="black" stroke-width="2" fill="none" />
<polyline points="138.0,410.0,141.5,414.0,145.0,417.5,148.0,421.5,150.5,425.0,149.5,428.5" stroke="black" stroke-width="2" fill="none" />
<polyline points="152.5,420.5,152.0,417.0,152.0,413.5,150.0,406.5,149.0,402.5,148.5,397.5,148.5,394.5" stroke="black" stroke-width="2" fill="none" />
<polyline points="149.5,394.5,154.0,396.0" stroke="black" stroke-width="2" fill="none" />
<polyline points="151.0,395.5,153.0,394.5,157.0,398.5" stroke="black" stroke-width="2" fill="none" />
<polyline points="149.0,400.5,144.5,397.0,141.0,395.5,137.0,401.5,130.5,400.0,126.5,399.5,122.5,398.5,118.5,394.0" stroke="black" stroke-width="2" fill="none" />
<polyline points="120.5,389.0,124.5,395.0,125.5,397.0,127.0,400.5" stroke="black" stroke-width="2" fill="none" />
<polyline points="130.5,407.0,134.5,403.0,135.0,396.5,139.0,394.5,142.5,390.0,143.0,386.5,142.5,385.5,144.5,380.5,146.5,375.0,148.0,371.0,149.0,367.0,147.0,363.5,146.5,359.5,146.0,355.5,144.5,354.0,143.0,350.0,139.5,345.5,138.0,341.0,137.5,337.0,137.0,333.0,137.0,328.5,136.5,324.0,136.0,320.0,134.5,316.0,133.5,312.0,131.5,308.5,130.5,304.5,128.5,297.0,132.5,293.0,135.5,291.0,137.0,287.0,130.0,283.5,126.0,278.0" stroke="black" stroke-width="2" fill="none" />
<polyline points="127.5,273.5,127.5,277.5,129.5,281.5,130.0,285.5,127.0,288.0,126.0,292.5,124.0,296.5,122.5,300.5,125.0,304.5,123.0,308.5,122.0,312.0,121.5,316.5,121.5,320.5,123.0,324.5,123.0,328.5,123.0,332.5,123.5,338.0" stroke="black" stroke-width="2" fill="none" />
<polyline points="120.0,338.5,120.5,340.5,120.0,343.5" stroke="black" stroke-width="2" fill="none" />
<polyline points="116.5,343.5,120.5,349.5,120.5,357.0,120.5,361.0,119.0,364.5,117.5,368.0,117.5,372.5,117.5,376.5,117.0,381.0,117.0,385.5,118.0,389.5,117.0,393.5,119.0,397.5,123.0,402.5,127.0,405.0" stroke="black" stroke-width="2" fill="none" />
<polyline points="128.0,403.5,123.0,399.5,120.0,395.0,120.0,391.0,121.5,388.0,121.0,384.0,120.5,381.0,121.5,377.0,119.5,376.5,120.0,372.0,119.0,373.0" stroke="black" stroke-width="2" fill="none" />
<polyline points="119.0,368.0,123.0,373.5,123.0,379.0,127.0,381.0" stroke="black" stroke-width="2" fill="none" />
<polyline points="124.0,383.0,124.5,387.0,126.0,388.0,123.0,392.0,128.0,396.0" stroke="black" stroke-width="2" fill="none" />
<polyline points="124.5,391.0,128.5,394.5,132.0,396.5,136.5,392.5" stroke="black" stroke-width="2" fill="none" />
<polyline points="133.5,390.5,126.5,388.5,122.5,390.0" stroke="black" stroke-width="2" fill="none" />
<polyline points="116.0,400.0,114.5,404.0,115.0,407.5" stroke="black" stroke-width="2" fill="none" />
<polyline points="112.5,413.5,116.5,413.5,120.0,412.5,124.0,408.0,129.0,407.0,127.5,411.0,126.0,415.0,129.0,418.0,129.0,422.0,130.0,426.0" stroke="black" stroke-width="2" fill="none" />
<polyline points="134.0,428.5,132.0,424.5,131.5,420.0,127.5,415.0" stroke="black" stroke-width="2" fill="none" />
<polyline points="127.5,413.0,131.5,408.0,135.5,403.5" stroke="black" stroke-width="2" fill="none" />
<polyline points="140.0,403.5,144.0,407.5,148.0,412.5" stroke="black" stroke-width="2" fill="none" />
<polyline points="144.0,406.0,140.0,402.5" stroke="black" stroke-width="2" fill="none" />
<polyline points="141.5,402.0,145.5,406.0" stroke="black" stroke-width="2" fill="none" />
<polyline points="150.0,406.0,147.0,398.5,144.0,394.5" stroke="black" stroke-width="2" fill="none" />
<polyline points="166.0,395.5,167.0,399.5,170.0,400.5,173.5,405.0,175.0,409.0,177.0,413.5,178.0,417.5,178.5,421.5,179.0,425.0" stroke="black" stroke-width="2" fill="none" />
<polyline points="175.0,421.0,172.0,414.5,163.0,413.5,159.0,408.0,155.0,403.5,151.0,401.5,148.0,396.5,148.0,390.0,143.5,385.0,141.0,391.0,137.0,388.0,136.5,384.5,141.0,381.0,139.0,377.0,136.0,373.0,134.5,371.5,138.0,368.0,142.0,363.5,142.5,360.0,142.5,356.0,142.5,353.0,137.0,350.5,133.5,346.5,131.0,342.0,132.5,338.0,130.5,334.0,132.0,330.0,130.5,326.0,128.5,320.5" stroke="black" stroke-width="2" fill="none" />
<polyline points="119.5,322.5,120.0,327.0,120.0,331.5,120.5,335.5,121.5,339.5,122.0,340.0" stroke="black" stroke-width="2" fill="none" />
<polyline points="118.0,338.0,118.0,342.0,118.0,345.0,119.5,349.0,121.5,353.5,122.0,357.5,123.0,361.0,124.5,365.0,125.5,369.0,128.0,373.5,130.5,377.5,131.0,382.5,132.0,383.5,137.0,385.5,138.0,389.5" stroke="black" stroke-width="2" fill="none" />
<polyline points="144.5,368.0,140.0,366.0" stroke="black" stroke-width="2" fill="none" />
<polyline points="142.0,363.5,145.5,367.5" stroke="black" stroke-width="2" fill="none" />
<polyline points="135.0,362.5,131.0,358.5" stroke="black" stroke-width="2" fill="none" />
<polyline points="134.5,355.5,130.5,352.0" stroke="black" stroke-width="2" fill="none" />
<polyline points="132.0,352.5,132.5,358.5,136.0,362.5,137.5,369.0" stroke="black" stroke-width="2" fill="none" />
<polyline points="147.0,365.5,143.0,361.5,142.5,355.5,139.0,354.5,140.0,348.5,136.0,344.5,135.5,340.0,134.0,336.0,133.5,332.0,127.0,333.5" stroke="black" stroke-width="2" fill="none" />
<polyline points="130.0,341.5,135.5,339.0,140.0,344.5" stroke="black" stroke-width="2" fill="none" />
<polyline points="143.5,338.0,141.0,341.0,140.0,337.0,139.5,330.5" stroke="black" stroke-width="2" fill="none" />
<polyline points="129.0,342.5,133.0,348.0,137.0,352.0" stroke="black" stroke-width="2" fill="none" />
<polyline points="135.0,352.5,131.0,348.0,127.0,342.5" stroke="black" stroke-width="2" fill="none" />
<polyline points="114.0,343.0,115.0,347.0,116.0,350.0,116.5,354.5,116.5,358.0,116.0,362.0,115.5,366.5,113.5,370.5,115.0,374.5,115.0,379.0,114.0,383.0,115.0,387.0,115.0,391.0,115.0,395.5,118.0,399.5,121.0,403.5,120.0,408.0,115.0,412.0,110.5,413.5,113.5,412.0,117.5,410.5,121.5,406.0" stroke="black" stroke-width="2" fill="none" />
<polyline points="124.5,407.5,121.5,411.5" stroke="black" stroke-width="2" fill="none" />
<polyline points="121.0,415.0,125.0,422.5,129.0,425.5" stroke="black" stroke-width="2" fill="none" />
<polyline points="128.5,430.0,124.0,426.5,120.0,421.5" stroke="black" stroke-width="2" fill="none" />
<polyline points="122.5,418.5,124.0,422.0,126.5,426.0" stroke="black" stroke-width="2" fill="none" />
<polyline points="121.5,431.0,121.0,434.5,119.0,439.0,117.5,443.0,118.5,443.5,119.0,437.5" stroke="black" stroke-width="2" fill="none" />
<polyline points="121.0,440.0,119.0,444.0" stroke="black" stroke-width="2" fill="none" />
<polyline points="121.0,452.0,123.5,456.0" stroke="black" stroke-width="2" fill="none" />
<polyline points="124.5,454.0,124.0,450.5,122.0,452.0" stroke="black" stroke-width="2" fill="none" />
<polyline points="109.5,445.5,108.5,441.5,107.5,439.5" stroke="black" stroke-width="2" fill="none" />
<polyline points="104.5,438.0,104.5,442.0,103.5,446.5" stroke="black" stroke-width="2" fill="none" />
<polyline points="96.0,450.0,91.5,454.0,85.0,457.5,87.0,456.0,90.5,454.5,94.0,451.0" stroke="black" stroke-width="2" fill="none" />
<polyline points="94.0,455.5,88.0,459.5,86.5,460.0,90.5,457.5,94.5,455.5" stroke="black" stroke-width="2" fill="none" />
<polyline points="96.0,467.5,92.5,471.5,91.5,472.5,95.5,468.5" stroke="black" stroke-width="2" fill="none" />
<polyline points="97.5,491.5,98.5,495.5,99.0,499.0,100.5,502.5,102.5,506.5,105.0,510.0" stroke="black" stroke-width="2" fill="none" />
<polyline points="108.5,510.0,109.0,506.0,110.5,501.5,111.0,497.0,113.0,492.5,113.5,488.5,114.0,486.5" stroke="black" stroke-width="2" fill="none" />
<polyline points="115.0,489.0,115.0,493.0,114.5,497.0,113.0,501.0,112.5,505.0,111.5,509.0,110.5,512.5" stroke="black" stroke-width="2" fill="none" />
<polyline points="103.5,507.0,99.5,502.5" stroke="black" stroke-width="2" fill="none" />
<polyline points="101.5,493.0,100.5,496.5,101.5,500.5,103.5,504.0,105.5,508.0,107.0,512.0" stroke="black" stroke-width="2" fill="none" />
<polyline points="119.5,511.0,120.0,507.5,119.5,503.5,120.5,499.5,119.0,495.5,119.5,491.5,120.0,487.5,120.0,483.5" stroke="black" stroke-width="2" fill="none" />
<polyline points="123.5,483.0,124.5,487.0,126.5,491.0,128.5,495.0,129.5,499.0,130.5,503.0,132.0,507.0,134.5,511.0" stroke="black" stroke-width="2" fill="none" />
<polyline points="152.5,448.0,148.5,443.0,146.0,437.0,139.5,428.0,135.5,423.5,131.5,420.5" stroke="black" stroke-width="2" fill="none" />
<polyline points="131.5,420.5,134.5,424.0,135.0,428.0,137.0,432.0,138.0,436.0,141.0,441.5,142.0,445.0,140.5,449.0,139.0,453.0,136.5,457.5,135.0,461.5,133.5,465.5,134.5,457.0" stroke="black" stroke-width="2" fill="none" />
<polyline points="139.5,435.0,138.0,431.0,137.0,429.0" stroke="black" stroke-width="2" fill="none" />
<polyline points="128.5,429.0,124.5,425.5,122.0,421.5,121.5,417.5" stroke="black" stroke-width="2" fill="none" />
<polyline points="111.0,418.5,112.0,422.5,113.0,426.5,114.0,430.5,115.5,432.5" stroke="black" stroke-width="2" fill="none" />
<polyline points="115.0,430.0,115.0,426.0" stroke="black" stroke-width="2" fill="none" />
<polyline points="108.5,417.5,109.5,421.5,109.0,425.0,108.5,429.0,108.5,433.0,106.5,437.0,106.0,441.0,107.0,448.0" stroke="black" stroke-width="2" fill="none" />
<polyline points="103.5,435.5,100.0,440.0,96.5,444.5,94.5,443.5,94.0,447.5,94.5,443.5,99.0,439.5,103.0,435.5,104.5,431.0,105.5,427.0,105.0,422.5,105.0,418.5,108.5,416.5,104.0,418.0" stroke="black" stroke-width="2" fill="none" />
<polyline points="93.5,416.5,89.5,420.5,87.5,425.0,88.5,423.0" stroke="black" stroke-width="2" fill="none" />
<polyline points="88.5,424.0,86.5,426.5,89.5,422.5,91.0,418.5" stroke="black" stroke-width="2" fill="none" />
<polyline points="93.0,405.5,96.5,404.0" stroke="black" stroke-width="2" fill="none" />
<polyline points="97.0,400.0,93.0,397.5" stroke="black" stroke-width="2" fill="none" />
<polyline points="89.5,395.5,93.5,402.0" stroke="black" stroke-width="2" fill="none" />
<polyline points="102.5,407.5,98.5,408.5,97.5,408.5,96.0,404.5,95.0,402.0,93.5,399.5,91.0,395.5,90.0,390.5,89.5,386.5,90.5,382.5,85.5,385.5" stroke="black" stroke-width="2" fill="none" />
<polyline points="82.0,385.5,79.5,389.5,79.0,393.5,76.5,397.0,73.5,400.5,72.5,404.5,71.5,409.5,71.0,414.0,69.0,415.0,68.5,418.0,69.0,422.0,67.0,425.5,69.0,425.5,69.0,429.5,70.5,430.0,70.0,434.0,68.5,438.5,69.5,442.5,70.0,447.0,70.5,451.0,71.0,455.0,70.5,459.0,70.5,463.0,69.5,467.0,67.5,471.0,66.5,475.0,65.0,479.0,64.5,483.5,65.0,487.5,65.0,492.0,65.0,496.0,65.5,500.0,62.5,504.5,62.5,508.0,61.5,512.0,63.0,511.5,66.0,507.5" stroke="black" stroke-width="2" fill="none" />
<polyline points="62.5,504.0,66.0,509.5,65.5,513.0" stroke="black" stroke-width="2" fill="none" />
<polyline points="71.0,496.5,72.0,493.0,73.0,489.0,73.0,485.0,73.5,481.0,71.5,477.5" stroke="black" stroke-width="2" fill="none" />
<polyline points="64.5,475.0,67.5,473.5,67.5,477.0,67.5,481.0,67.5,485.0,67.0,488.5,67.5,492.0,68.5,495.5" stroke="black" stroke-width="2" fill="none" />
<polyline points="72.5,465.5,72.5,461.5,72.5,457.0,73.0,455.0" stroke="black" stroke-width="2" fill="none" />
<polyline points="73.0,456.5,73.0,460.5,73.0,464.5,75.5,468.5,75.0,473.0" stroke="black" stroke-width="2" fill="none" />
<polyline points="66.5,454.5,66.5,450.5,66.5,448.0" stroke="black" stroke-width="2" fill="none" />
<polyline points="65.5,452.0,65.0,456.0,66.0,459.5,67.0,463.0,69.5,467.5,70.0,470.5,70.0,474.5,69.5,478.5,69.5,483.0" stroke="black" stroke-width="2" fill="none" />
<polyline points="31.5,492.5,30.0,498.5,30.5,502.5,33.5,506.0,33.5,510.0" stroke="black" stroke-width="2" fill="none" />
<polyline points="16.5,508.5,17.0,504.5,19.0,500.5,17.5,501.5" stroke="black" stroke-width="2" fill="none" />
<polyline points="17.0,506.5,16.5,502.0,16.5,498.0,15.5,494.0" stroke="black" stroke-width="2" fill="none" />
<polyline points="10.5,427.5,10.0,423.5,5.5,421.5" stroke="black" stroke-width="2" fill="none" />
<polyline points="4.0,419.5,6.5,423.5,8.5,427.5,9.5,431.5,10.0,435.0,10.5,439.0,10.5,443.5,13.0,445.5,12.5,449.5,13.0,453.5,13.5,457.5,16.0,460.0,14.0,464.0,15.5,468.0,16.0,472.0,15.0,476.0,14.0,478.5" stroke="black" stroke-width="2" fill="none" />
<polyline points="35.5,462.0,35.5,458.5,35.0,454.5,34.5,451.0,34.0,447.0,33.0,441.5,32.5,437.5,32.0,433.0,32.0,428.5,32.0,424.5" stroke="black" stroke-width="2" fill="none" />
<polyline points="25.0,418.5,22.5,412.0" stroke="black" stroke-width="2" fill="none" />
<polyline points="24.0,411.5,26.5,415.5,27.5,420.0,27.0,424.0,27.5,428.0,27.0,432.0,26.5,436.0,27.0,440.0,27.5,444.5,27.5,449.0,27.5,453.0,28.5,457.0,28.5,460.0,28.0,464.0,29.0,468.5,29.5,472.0,28.5,476.5,30.5,480.5,30.5,484.5,31.0,488.5,29.5,492.5,31.5,496.5,32.0,500.0,31.0,503.5" stroke="black" stroke-width="2" fill="none" />
<polyline points="67.0,434.0,67.5,433.0,67.5,436.5,70.0,435.5" stroke="black" stroke-width="2" fill="none" />
<polyline points="66.5,425.0,65.5,424.0,65.0,420.5,64.5,416.5,65.0,412.5,66.0,408.5,70.0,405.0,73.0,401.0,74.5,397.5,73.0,396.5,72.5,399.0" stroke="black" stroke-width="2" fill="none" />
<polyline points="72.5,406.0,76.5,402.5,80.5,395.5" stroke="black" stroke-width="2" fill="none" />
<polyline points="80.0,387.5,78.0,396.0,74.0,402.0,70.0,405.0,65.5,408.5" stroke="black" stroke-width="2" fill="none" />
<polyline points="66.5,415.0,70.0,405.0,69.5,409.0,68.5,412.5,68.0,416.5,66.5,420.5" stroke="black" stroke-width="2" fill="none" />
<polyline points="70.0,416.0,73.0,419.5,73.0,423.5,71.5,424.5" stroke="black" stroke-width="2" fill="none" />
<polyline points="102.5,435.5,100.5,439.5,98.0,442.0,102.0,439.0" stroke="black" stroke-width="2" fill="none" />
<polyline points="112.0,407.0,110.5,407.5,112.5,403.5,115.0,399.5" stroke="black" stroke-width="2" fill="none" />
<polyline points="106.5,394.5,107.5,398.0,109.5,402.0,109.0,406.0,106.0,410.0,98.5,414.5,100.5,415.0" stroke="black" stroke-width="2" fill="none" />
<polyline points="107.0,404.5,105.5,400.5,105.0,397.0,105.5,392.5" stroke="black" stroke-width="2" fill="none" />
<polyline points="105.5,380.0,106.5,376.0,107.0,372.0,106.5,368.0,108.0,364.0,108.5,360.5,108.5,356.0,109.0,352.0,106.0,345.0,105.0,341.0,106.0,341.0,106.0,342.0" stroke="black" stroke-width="2" fill="none" />
<polyline points="101.0,342.5,105.0,338.5,108.5,333.5,112.5,327.0,116.0,319.0" stroke="black" stroke-width="2" fill="none" />
<polyline points="117.0,324.0,116.0,328.5,117.5,329.0" stroke="black" stroke-width="2" fill="none" />
<polyline points="105.0,321.5,109.5,317.5,113.5,315.5,117.5,308.0,118.0,309.5,115.0,313.5,111.5,317.5,107.0,322.0,105.0,319.0,109.5,315.0,110.5,313.0,109.0,316.0,105.0,320.0,104.5,324.0,108.0,318.5,112.0,314.5,115.5,309.5" stroke="black" stroke-width="2" fill="none" />
<polyline points="120.5,309.0,118.0,312.5,116.5,316.5,114.0,320.5,112.0,325.0,109.0,329.0,105.5,333.0,101.0,337.0,96.5,341.5" stroke="black" stroke-width="2" fill="none" />
<polyline points="97.5,349.0,94.0,354.0" stroke="black" stroke-width="2" fill="none" />
<polyline points="96.0,357.0,95.5,361.0,95.0,365.5,94.0,369.5,93.0,373.0,92.5,377.0,89.0,381.5,88.0,385.0,87.0,387.5,88.0,391.5,88.0,395.0,90.0,399.5,93.0,404.0,91.0,407.5,92.0,409.5,96.5,411.5,101.0,412.0,105.0,411.5,109.0,407.5,115.0,401.0" stroke="black" stroke-width="2" fill="none" />
<polyline points="129.0,375.5,125.5,367.5,121.5,359.5" stroke="black" stroke-width="2" fill="none" />
<polyline points="121.0,360.5,120.0,365.0,121.5,369.5,124.5,374.0,126.5,378.5,131.0,382.5,132.0,387.0,134.0,391.0,133.5,394.5,135.0,397.5" stroke="black" stroke-width="2" fill="none" />
<polyline points="128.0,376.0,124.0,369.5,120.5,363.5" stroke="black" stroke-width="2" fill="none" />
<polyline points="121.0,366.0,122.5,370.0,124.5,373.5,126.5,377.5,129.0,382.0" stroke="black" stroke-width="2" fill="none" />
<polyline points="133.5,362.5,129.5,359.5,125.5,358.5,121.5,356.0" stroke="black" stroke-width="2" fill="none" />
<polyline points="121.0,356.0,124.5,360.0,125.0,363.0,130.5,365.0,130.5,368.5,135.0,368.5,139.5,368.5,147.0,372.5" stroke="black" stroke-width="2" fill="none" />
<polyline points="162.5,364.0,166.5,360.5,171.0,357.0,174.5,352.5,179.0,347.0,182.5,341.5,186.5,335.0" stroke="black" stroke-width="2" fill="none" />
<polyline points="189.0,330.5,185.0,330.0,180.0,331.5,176.0,337.5,172.0,343.5,168.5,348.5,165.0,354.5,161.0,360.0,159.5,369.5,161.5,367.0,165.5,362.0,170.5,358.0,174.0,353.5,177.5,349.0,180.0,345.0,183.0,341.0,186.0,337.5,185.5,333.5,189.0,333.5,191.0,329.5" stroke="black" stroke-width="2" fill="none" />
<polyline points="191.0,344.5,191.5,345.5,191.5,349.5,192.5,354.0" stroke="black" stroke-width="2" fill="none" />
<polyline points="194.0,355.5,193.5,351.5,192.0,348.0" stroke="black" stroke-width="2" fill="none" />
<polyline points="165.5,359.0,162.0,363.0,165.0,360.0" stroke="black" stroke-width="2" fill="none" />
<polyline points="165.0,365.0,167.5,361.5,163.5,367.0,159.5,367.0,160.0,363.0,162.0,359.0,165.5,355.0,168.0,351.0,171.0,347.0,174.5,342.5,177.0,338.5,179.0,335.0,182.0,331.0,178.5,331.5,174.5,333.5,170.5,336.0,164.5,339.5,165.5,336.5,167.0,332.5,164.5,331.5" stroke="black" stroke-width="2" fill="none" />
<polyline points="163.5,331.5,159.5,336.0,159.5,334.5,162.0,330.0,164.5,326.0,166.5,322.0" stroke="black" stroke-width="2" fill="none" />
<polyline points="163.5,319.5,167.5,320.5,171.5,319.5" stroke="black" stroke-width="2" fill="none" />
<polyline points="173.5,316.5,169.0,318.0,168.0,323.0,166.0,321.5,162.5,327.0,159.0,332.5,154.0,337.0,150.5,339.5,146.5,336.5,144.5,343.5,143.0,340.0,142.0,336.0,139.5,332.5,138.5,329.0,138.0,325.0,136.0,321.0,135.0,317.0,134.5,313.0,133.0,308.5,131.5,304.5,130.5,300.5,133.5,299.5,135.0,295.5,139.0,291.5,140.5,287.5,142.5,283.5,140.0,281.5,136.5,281.5,132.5,281.0,138.5,282.0,141.0,278.5,146.0,274.5,142.0,272.0,146.0,268.0,151.5,264.5,156.0,257.5,159.5,253.5,161.5,249.5,163.0,245.0,159.5,244.0,155.5,248.5,151.5,249.5" stroke="black" stroke-width="2" fill="none" />
<polyline points="149.0,251.0,145.0,252.0" stroke="black" stroke-width="2" fill="none" />
<polyline points="144.5,252.5,148.5,249.0,148.0,249.0,145.0,253.0,148.0,254.0,149.0,258.0" stroke="black" stroke-width="2" fill="none" />
<polyline points="150.0,266.0,146.5,269.5,142.5,271.5" stroke="black" stroke-width="2" fill="none" />
<polyline points="150.5,271.0,154.0,267.0,158.0,262.0,162.0,256.0,158.0,258.0,155.5,262.0,152.5,266.0,148.5,270.0,148.0,274.0,147.5,278.0,148.0,282.0,149.0,286.0,153.0,289.5,158.0,291.0,162.0,296.5,162.5,300.0,159.0,303.0,158.0,308.5,160.0,312.5,158.5,315.5,159.0,318.0,158.0,319.5,162.0,318.0,163.5,317.5,165.0,313.0,169.0,310.5,172.5,306.5,174.5,300.5,178.0,295.5" stroke="black" stroke-width="2" fill="none" />
<polyline points="179.5,300.0,183.5,305.0" stroke="black" stroke-width="2" fill="none" />
<polyline points="180.0,308.5,176.0,305.0" stroke="black" stroke-width="2" fill="none" />
<polyline points="176.0,300.5,179.0,301.0,181.5,305.5,184.0,309.5,181.0,311.5,182.5,313.5" stroke="black" stroke-width="2" fill="none" />
<polyline points="173.0,315.5,169.5,315.0,166.0,318.5,169.5,316.5,171.0,312.5" stroke="black" stroke-width="2" fill="none" />
<polyline points="163.5,302.5,163.0,298.5,169.0,293.0,172.5,289.0,171.0,285.0,168.5,289.0,164.5,291.5,162.0,290.5,164.5,286.5,169.0,282.0,173.5,278.0,174.0,280.0,172.5,279.0,168.0,282.5,166.0,282.5,163.0,284.0,160.5,286.5,163.0,284.5,162.5,280.5,163.5,276.5,162.0,275.5,163.5,271.0,164.0,267.0,167.5,263.5,168.5,259.5,168.5,256.0,171.0,252.0,173.5,248.0,174.5,244.0,175.0,240.0,174.5,236.5,178.5,233.0,174.5,235.5" stroke="black" stroke-width="2" fill="none" />
<polyline points="178.5,234.5,177.5,238.5,177.0,242.5,178.5,244.5,178.0,248.5,178.0,252.5,179.0,256.0,180.5,259.5,182.5,263.0" stroke="black" stroke-width="2" fill="none" />
<polyline points="183.5,253.0,187.0,251.0,191.5,252.0,192.0,256.0,193.0,259.5,196.5,263.5,203.0,266.5" stroke="black" stroke-width="2" fill="none" />
<polyline points="224.0,271.5,220.5,275.5,224.0,271.5,228.5,270.5" stroke="black" stroke-width="2" fill="none" />
<polyline points="219.5,306.0,218.0,310.0,217.5,314.0,217.5,318.0,217.5,321.5,217.5,326.0,217.5,330.0,217.0,334.0,217.0,338.0,217.5,342.0,218.0,346.0,218.0,350.0,218.0,354.0,218.0,357.5" stroke="black" stroke-width="2" fill="none" />
<polyline points="251.5,381.0,252.5,383.5,257.0,384.5,261.0,384.5,265.0,385.0" stroke="black" stroke-width="2" fill="none" />
<polyline points="266.5,389.0,262.5,389.5,258.5,389.0,254.5,389.0,251.0,389.0,247.5,389.0,243.0,392.5,245.0,389.0" stroke="black" stroke-width="2" fill="none" />
<polyline points="270.0,354.0,274.0,354.5,278.0,356.0" stroke="black" stroke-width="2" fill="none" />
<polyline points="283.5,352.0,279.5,352.5,275.5,352.0,271.5,351.0,267.5,351.5" stroke="black" stroke-width="2" fill="none" />
<polyline points="222.5,368.5,222.0,364.5,220.5,360.0,220.0,356.0,219.5,352.0,219.0,348.0,223.5,343.0,222.5,339.0,222.0,333.5,222.0,329.5,221.0,326.0,221.0,322.0,220.0,318.0,220.0,314.5,219.5,310.5,219.5,306.5" stroke="black" stroke-width="2" fill="none" />
<polyline points="178.5,306.5,176.0,304.5,176.0,300.0" stroke="black" stroke-width="2" fill="none" />
<polyline points="172.0,295.5,172.5,299.5,174.5,306.0,176.5,310.5,174.0,317.0" stroke="black" stroke-width="2" fill="none" />
<polyline points="160.0,315.0,158.5,311.5,157.5,311.0" stroke="black" stroke-width="2" fill="none" />
<polyline points="157.0,312.5,161.0,314.5" stroke="black" stroke-width="2" fill="none" />
<polyline points="156.5,317.0,156.0,313.0,155.5,312.0" stroke="black" stroke-width="2" fill="none" />
<polyline points="160.0,296.0,156.0,293.0" stroke="black" stroke-width="2" fill="none" />
<polyline points="156.5,294.0,160.5,298.0" stroke="black" stroke-width="2" fill="none" />
<polyline points="162.0,290.5,158.0,287.5,154.5,282.0" stroke="black" stroke-width="2" fill="none" />
<polyline points="152.5,281.5,154.0,285.5,157.5,289.5,164.0,293.5" stroke="black" stroke-width="2" fill="none" />
<polyline points="170.5,293.5,174.5,292.5,177.5,291.0" stroke="black" stroke-width="2" fill="none" />
<polyline points="173.5,292.0,179.5,292.5,177.0,297.0,174.0,301.0,173.0,305.5,170.0,309.5,166.5,309.0" stroke="black" stroke-width="2" fill="none" />
<polyline points="161.5,293.5,158.0,291.5,154.0,289.5" stroke="black" stroke-width="2" fill="none" />
<polyline points="150.5,291.0,155.0,293.5,158.5,295.0,162.5,295.0,166.5,293.0,170.5,290.0,170.0,287.5" stroke="black" stroke-width="2" fill="none" />
<polyline points="172.0,292.0,171.0,296.0,170.0,300.0,170.0,304.0,166.5,308.5,166.5,312.5,165.5,314.5,163.0,318.0,169.0,321.0,167.5,325.0,165.5,328.5,162.0,332.5,158.5,336.5,157.5,342.5,152.5,346.5,150.0,350.5,151.0,352.5,148.5,354.5,146.5,357.5,145.5,352.5,147.5,350.0,152.0,352.0,156.5,352.5,159.0,345.0,162.5,347.0,166.5,344.5,170.5,342.5" stroke="black" stroke-width="2" fill="none" />
<polyline points="157.0,298.0,153.0,294.0" stroke="black" stroke-width="2" fill="none" />
<polyline points="160.0,286.0,161.5,281.0,160.0,277.0,161.0,273.0,161.0,269.0,162.5,265.0,163.5,260.5,162.0,259.0" stroke="black" stroke-width="2" fill="none" />
<polyline points="164.5,266.5,165.5,261.0,164.0,264.0,167.0,268.5,166.0,272.0,167.0,276.0,166.5,276.5" stroke="black" stroke-width="2" fill="none" />
<polyline points="159.5,280.5,158.5,279.0,154.5,278.0" stroke="black" stroke-width="2" fill="none" />
<polyline points="151.0,277.5,153.0,279.0,155.5,280.0,157.5,284.0,163.5,289.5,167.5,284.5,171.5,284.0,173.5,284.5,177.5,285.0,177.5,286.5" stroke="black" stroke-width="2" fill="none" />
<polyline points="173.5,281.5,171.0,285.5,168.0,289.5,166.5,291.0" stroke="black" stroke-width="2" fill="none" />
<polyline points="161.0,284.5,157.0,281.0" stroke="black" stroke-width="2" fill="none" />
<polyline points="157.0,300.0,153.5,296.0,150.0,292.0,150.5,288.0,150.0,282.5,150.0,278.5,150.0,273.0,152.5,269.0,156.0,265.5,160.0,262.0,162.5,258.0,163.0,253.5,164.5,249.5,166.0,246.0,167.0,242.0,169.0,240.5,164.0,246.0,160.0,254.5,155.0,259.5,151.5,260.5,147.0,259.5,143.0,260.0,140.0,265.5,137.0,266.0,136.0,260.5,132.5,263.5,128.0,265.5,127.0,267.5,131.5,262.5,131.0,258.0,130.0,254.0,127.5,249.5,129.0,245.5,136.0,245.0,136.0,241.5,139.5,237.5,137.0,234.0,135.0,230.5,133.0,226.5,132.0,223.0,132.0,219.0,132.0,215.5,130.5,211.5,128.0,207.5,125.5,202.5,124.0,198.0,122.5,193.5,121.0,189.0,120.5,185.0,119.5,180.5,119.5,176.5,119.5,172.5,119.5,168.5,120.0,164.5,120.0,160.5,120.0,156.5,120.5,153.0,120.5,149.0,121.5,145.0,122.5,141.5,123.0,137.5,123.5,133.5,124.5,130.0,125.5,125.5,127.0,121.5,128.5,117.0,130.0,112.5,132.0,108.5,134.0,104.5,136.0,104.0,138.0,100.0,138.0,100.5,134.0,106.0" stroke="black" stroke-width="2" fill="none" />
<polyline points="128.0,122.5,132.0,112.5,136.5,105.0,136.0,109.5,135.0,113.5,134.5,117.5,132.5,121.5,132.0,125.5,132.5,129.5,132.0,133.5,131.0,137.5,128.5,141.5,129.0,145.5,130.5,146.0,128.5,149.5,129.5,152.0,130.0,154.5,127.0,158.0,130.5,156.0,129.0,148.0" stroke="black" stroke-width="2" fill="none" />
<polyline points="129.5,153.5,133.5,155.0,132.0,156.0,132.5,160.0,135.5,162.0,132.0,166.0,128.0,170.0,131.5,166.5,134.0,162.0" stroke="black" stroke-width="2" fill="none" />
<polyline points="141.0,168.5,140.5,172.5,136.5,177.0,131.0,178.0,134.5,174.0" stroke="black" stroke-width="2" fill="none" />
<polyline points="135.0,172.5,130.5,176.5,133.5,175.5,137.5,173.0,139.5,168.0" stroke="black" stroke-width="2" fill="none" />
<polyline points="144.0,168.0,140.5,172.0,137.0,176.0,135.5,176.5" stroke="black" stroke-width="2" fill="none" />
<polyline points="141.0,176.0,137.0,180.0,135.0,181.0,138.5,177.0,141.0,172.5" stroke="black" stroke-width="2" fill="none" />
<polyline points="146.5,170.5,147.5,174.5,144.0,179.0,142.0,183.5,137.5,187.0,136.0,191.0,137.5,194.0,138.0,194.5,140.0,194.0,141.5,194.5,145.0,199.5,149.5,200.0" stroke="black" stroke-width="2" fill="none" />
<polyline points="149.0,194.5,145.0,190.0" stroke="black" stroke-width="2" fill="none" />
<polyline points="145.0,189.0,147.5,192.5,146.5,194.0" stroke="black" stroke-width="2" fill="none" />
<polyline points="142.0,193.5,146.0,198.5" stroke="black" stroke-width="2" fill="none" />
<polyline points="148.5,198.5,146.0,194.5,145.0,191.0,142.5,189.0,141.0,184.5,145.0,180.5,145.0,177.5,145.5,177.5,141.5,181.0" stroke="black" stroke-width="2" fill="none" />
<polyline points="143.0,184.5,147.5,185.5,149.0,190.0,151.5,191.0" stroke="black" stroke-width="2" fill="none" />
<polyline points="150.0,189.5,146.0,184.5" stroke="black" stroke-width="2" fill="none" />
<polyline points="144.5,188.5,149.0,194.0,153.5,194.5,159.0,187.5,163.0,182.0,167.0,177.0,170.5,173.0,174.0,168.5,178.0,164.5,182.0,161.0,186.5,157.5,190.0,154.0,194.0,150.0,197.5,147.5,201.5,144.0" stroke="black" stroke-width="2" fill="none" />
<polyline points="206.0,146.0,210.0,150.0,215.5,154.5,219.0,159.0,221.5,160.5" stroke="black" stroke-width="2" fill="none" />
<polyline points="226.5,163.5,223.5,157.5,227.5,154.5,223.5,158.0,219.5,157.0,215.5,153.5" stroke="black" stroke-width="2" fill="none" />
<polyline points="217.5,152.0,221.5,156.0,228.0,162.0" stroke="black" stroke-width="2" fill="none" />
<polyline points="230.0,175.5,225.5,175.5,221.5,176.5,217.0,180.0,214.0,183.5,210.0,187.5,205.5,192.5" stroke="black" stroke-width="2" fill="none" />
<polyline points="205.5,190.5,209.0,186.5,213.5,181.5,218.0,176.5,222.0,173.5,226.0,172.0,230.0,172.5,233.5,172.5,237.5,173.5,240.5,172.0,238.5,176.0,236.5,177.0" stroke="black" stroke-width="2" fill="none" />
<polyline points="234.5,181.5,230.0,185.5,230.0,187.5,223.0,192.5,217.5,196.5,211.0,203.0,206.0,207.5,202.5,213.5,202.5,217.5,204.0,217.5,204.5,223.0,207.5,227.0" stroke="black" stroke-width="2" fill="none" />
<polyline points="204.0,208.0,207.5,204.0,211.5,201.5,214.0,198.0,218.0,195.0,222.0,192.0,226.5,190.0" stroke="black" stroke-width="2" fill="none" />
<polyline points="227.0,193.0,220.0,197.0,214.5,203.0,210.0,207.0,208.5,210.5,208.0,210.5,211.5,204.5,215.0,202.5,218.0,197.5,222.0,195.5,226.0,193.0,230.0,192.0" stroke="black" stroke-width="2" fill="none" />
<polyline points="225.5,184.5,222.0,184.0,218.5,189.0" stroke="black" stroke-width="2" fill="none" />
<polyline points="216.5,187.5,221.0,183.0" stroke="black" stroke-width="2" fill="none" />
<polyline points="225.5,181.0,220.5,185.0,218.0,189.0,215.5,193.0,211.0,196.5,207.5,200.5" stroke="black" stroke-width="2" fill="none" />
<polyline points="200.0,203.0,196.0,202.5" stroke="black" stroke-width="2" fill="none" />
<polyline points="193.5,198.5,197.0,200.0,201.0,202.0" stroke="black" stroke-width="2" fill="none" />
<polyline points="203.5,202.0,199.5,200.5,195.5,198.5,191.5,197.5,189.0,198.0,185.5,201.0,181.5,205.5,181.5,207.0,183.5,203.0,187.5,198.0,189.5,197.5" stroke="black" stroke-width="2" fill="none" />
<polyline points="184.0,207.0,188.0,206.0,192.5,205.0,200.0,204.0" stroke="black" stroke-width="2" fill="none" />
<polyline points="199.0,205.5,195.5,204.0,191.5,209.0,190.0,211.5,186.5,219.0,184.0,220.5,185.5,218.5,188.5,217.5,189.0,213.5,185.5,212.0,181.5,210.0" stroke="black" stroke-width="2" fill="none" />
<polyline points="181.5,214.0,182.0,218.0" stroke="black" stroke-width="2" fill="none" />
<polyline points="181.5,219.0,181.0,222.5,182.0,219.0,180.5,215.5,180.5,214.0" stroke="black" stroke-width="2" fill="none" />
<polyline points="176.0,212.5,172.0,215.0,170.0,217.5,174.5,213.5" stroke="black" stroke-width="2" fill="none" />
<polyline points="168.5,222.5,168.0,226.5,171.0,226.5,171.5,226.5,175.5,225.5,179.5,225.5" stroke="black" stroke-width="2" fill="none" />
<polyline points="180.0,228.0,176.0,228.0,171.5,231.5,167.0,234.5,163.0,238.5" stroke="black" stroke-width="2" fill="none" />
<polyline points="169.5,238.5,168.5,242.5,167.5,246.5,166.5,250.5,165.5,248.5" stroke="black" stroke-width="2" fill="none" />
<polyline points="164.5,253.5,158.0,260.5,154.0,263.5,151.0,261.5,146.5,265.5,142.0,268.5,138.0,273.5,134.0,277.5,130.0,278.0,126.5,275.0,118.0,269.5,116.0,265.0,118.0,261.0,115.0,266.0" stroke="black" stroke-width="2" fill="none" />
<polyline points="115.5,270.0,119.5,272.0,123.5,273.5" stroke="black" stroke-width="2" fill="none" />
<polyline points="114.0,272.0,115.0,273.0,115.5,277.0,116.5,283.5,113.0,288.0,108.0,292.0,107.0,296.5,103.5,300.5,99.0,304.5,91.5,308.0,92.5,312.0,92.0,316.0,90.5,320.0,88.5,324.0,88.5,328.5,88.5,332.5,88.5,336.5,84.0,340.5,81.0,345.0,78.0,348.5,75.0,353.0,72.0,357.0,68.5,361.0,64.0,362.0,68.0,357.5,72.0,352.5,76.0,347.5,80.0,342.5,84.5,337.0,89.0,331.0,93.0,328.0" stroke="black" stroke-width="2" fill="none" />
<polyline points="87.5,323.0,92.5,323.5,90.5,327.5,93.5,326.0,91.0,330.5,86.0,335.5,82.5,339.5,79.0,343.5,76.0,347.5,72.5,351.0,69.0,355.0,65.0,359.0,62.0,361.0,62.0,364.5,66.0,362.0,70.0,357.5,74.5,353.5,79.0,347.5,83.0,342.5,87.0,338.5,90.5,339.5,90.0,343.5,89.5,347.0,88.5,351.5,85.0,355.5,82.5,359.5,80.0,363.5,77.5,367.5,77.5,372.0,83.0,375.0,83.5,371.0,87.5,362.0,92.0,355.0,96.0,349.0" stroke="black" stroke-width="2" fill="none" />
<polyline points="107.0,355.0,107.0,359.0,105.5,363.0,104.0,366.5,103.0,370.0,102.5,374.0,102.5,377.5,103.0,381.5" stroke="black" stroke-width="2" fill="none" />
<polyline points="112.5,368.5,109.5,364.5,109.5,360.5" stroke="black" stroke-width="2" fill="none" />
<polyline points="111.5,354.5,112.5,358.5,113.5,362.5,111.5,363.0,111.0,362.5,113.0,368.5" stroke="black" stroke-width="2" fill="none" />
<polyline points="115.5,362.5,114.0,358.5,112.5,354.5" stroke="black" stroke-width="2" fill="none" />
<polyline points="126.0,360.5,132.5,364.0,134.0,368.0" stroke="black" stroke-width="2" fill="none" />
<polyline points="84.0,354.0,80.5,361.0,76.5,367.5" stroke="black" stroke-width="2" fill="none" />
<polyline points="75.0,365.5,79.0,358.5,83.0,351.0,85.5,349.0,81.0,353.0,79.0,357.0,78.0,361.0,75.5,365.0,75.5,369.0,75.5,373.0" stroke="black" stroke-width="2" fill="none" />
<polyline points="79.5,383.0,75.0,390.0,71.0,393.5,67.0,397.0,63.0,399.5,58.5,402.5,61.0,399.0,65.0,395.0,70.0,391.0,74.5,387.0,77.0,383.0,77.0,383.0,72.5,388.5,69.0,392.0,65.5,395.5,61.5,399.0,58.5,403.0,65.0,399.0,70.5,394.5,74.5,390.0,77.5,386.0,80.0,382.5,83.0,378.5,83.0,374.5,83.5,369.0,87.0,364.5,88.5,361.0,90.0,357.0,88.5,355.5,92.5,354.5,95.0,350.5,97.0,347.0,99.0,347.5,95.5,342.5,93.0,348.5,94.0,344.5,95.5,340.0,96.5,336.0,96.5,332.0,96.5,328.5,96.5,324.5,97.0,320.5,98.0,316.0,97.5,311.5,102.0,308.0,105.0,304.0,108.0,302.5,105.0,303.5,101.0,309.5,96.5,313.0" stroke="black" stroke-width="2" fill="none" />
<polyline points="89.0,308.5,83.0,312.0,87.0,309.5,91.0,308.0,96.0,306.0,99.5,304.0,103.5,300.0" stroke="black" stroke-width="2" fill="none" />
<polyline points="100.0,302.5,95.5,303.0,91.5,305.0,98.5,302.0,101.0,297.0,106.5,293.0" stroke="black" stroke-width="2" fill="none" />
<polyline points="108.5,295.5,104.0,296.0,99.5,297.0,94.5,294.5,90.5,295.5,86.5,296.0,82.5,298.0,89.0,294.5" stroke="black" stroke-width="2" fill="none" />
<polyline points="86.0,294.5,80.0,298.5,82.5,295.5,86.5,294.0,91.0,292.5,95.0,293.0,99.0,290.5,103.5,290.5,107.5,289.0,112.0,287.0" stroke="black" stroke-width="2" fill="none" />
<polyline points="115.0,284.0,115.0,286.5,108.5,288.5,113.0,284.5,111.5,278.5,115.0,277.0,114.0,273.0,117.5,271.0,113.5,270.5" stroke="black" stroke-width="2" fill="none" />
<polyline points="110.5,264.0,114.0,259.0,112.0,261.0,109.0,265.0,109.0,269.0,109.0,273.0,102.0,275.0,98.0,279.5,94.5,282.0,98.0,279.0,101.5,275.0,106.0,275.0,110.5,277.5,113.0,279.0,117.5,282.5" stroke="black" stroke-width="2" fill="none" />
<polyline points="113.5,278.5,109.5,281.0,105.0,283.0,101.0,285.5,97.0,286.5,93.5,281.5" stroke="black" stroke-width="2" fill="none" />
<polyline points="91.0,277.0,95.5,275.0,99.5,273.0,103.5,270.5,108.0,267.5,102.0,270.5,94.5,274.5,93.0,279.0,94.0,283.5,96.0,285.0,100.5,283.0,104.5,281.5,100.5,281.0,104.5,280.0,109.0,278.0,114.5,280.5,118.5,277.5,122.0,275.0,126.0,271.5" stroke="black" stroke-width="2" fill="none" />
<polyline points="129.5,265.5,128.5,269.5,124.0,272.5,118.0,276.5,110.0,280.5,101.5,284.5,99.5,290.0,95.0,298.0,93.0,302.0,88.5,307.0,81.5,310.5,83.0,316.0,78.5,319.5,71.0,323.0,75.0,321.5,79.0,319.0,83.0,315.5,87.5,316.0" stroke="black" stroke-width="2" fill="none" />
<polyline points="99.0,322.5,103.0,314.5,107.0,309.0,111.0,305.0,115.5,301.5,119.5,297.5" stroke="black" stroke-width="2" fill="none" />
<polyline points="121.0,305.0,117.0,305.5,115.5,309.5,112.0,313.5,108.0,317.5,105.0,321.5,100.5,327.5" stroke="black" stroke-width="2" fill="none" />
<polyline points="79.5,316.0,75.5,318.0,71.5,320.5,68.0,322.5,75.5,318.5,79.0,314.0,75.0,310.5,75.0,306.5,75.0,307.0" stroke="black" stroke-width="2" fill="none" />
<polyline points="75.0,308.5,79.0,313.0" stroke="black" stroke-width="2" fill="none" />
<polyline points="78.0,306.0,77.5,310.0,79.5,311.0,83.0,308.5,87.0,306.5,91.0,304.0" stroke="black" stroke-width="2" fill="none" />
<polyline points="106.0,307.0,102.0,312.5,98.0,321.0,99.0,319.0,101.0,315.0,103.0,311.0,107.0,307.0,109.0,303.0" stroke="black" stroke-width="2" fill="none" />
<polyline points="103.5,294.5,98.5,296.5,103.0,294.5,107.0,293.5,111.0,291.5" stroke="black" stroke-width="2" fill="none" />
<polyline points="106.0,286.0,103.5,289.5" stroke="black" stroke-width="2" fill="none" />
<polyline points="93.0,284.5,91.0,280.0,91.5,276.0" stroke="black" stroke-width="2" fill="none" />
<polyline points="123.5,284.5,123.0,288.5,122.0,292.5,119.5,296.5,114.5,300.5,110.5,304.5,106.0,308.5,103.5,312.5,101.5,317.0,99.5,320.5,100.5,325.0,101.0,329.0,102.0,330.5,98.5,334.5,95.5,341.0,99.5,338.5,103.5,335.5,107.0,330.5,110.5,325.0,114.5,317.5,118.5,309.0,121.5,301.5,123.5,302.5,124.5,309.0,131.0,313.0" stroke="black" stroke-width="2" fill="none" />
<polyline points="127.0,311.0,127.5,315.0,126.0,317.0,127.0,321.0,129.5,325.5,128.0,329.5,127.5,333.5" stroke="black" stroke-width="2" fill="none" />
<polyline points="121.0,311.0,119.5,315.0,118.0,319.0,115.5,323.5,113.5,327.5,111.5,332.0,107.5,335.5,104.5,339.5,100.0,343.0,99.0,347.0,99.5,351.0,95.5,352.0,92.0,356.0,94.0,360.0,93.0,364.5,93.0,368.0,92.0,372.0,93.0,378.5,92.5,382.5,94.0,386.5" stroke="black" stroke-width="2" fill="none" />
<polyline points="81.0,386.5,80.5,390.5,78.5,396.0,77.0,400.0,74.0,404.0,71.5,408.0,72.5,412.5" stroke="black" stroke-width="2" fill="none" />
<polyline points="21.0,368.5,19.5,375.0,20.5,371.0,21.5,366.5" stroke="black" stroke-width="2" fill="none" />
<polyline points="124.0,286.0,125.0,290.0,122.5,293.5,121.0,297.0,117.5,301.0,112.5,305.0,108.0,309.0,105.0,312.5,108.0,309.0,112.0,305.5,116.0,302.0,120.0,298.0,125.0,295.5,129.0,293.0,133.0,287.0,137.0,286.5,141.0,285.0" stroke="black" stroke-width="2" fill="none" />
<polyline points="136.0,268.5,138.0,264.5,134.5,262.5" stroke="black" stroke-width="2" fill="none" />
<polyline points="133.5,255.5,138.0,255.5" stroke="black" stroke-width="2" fill="none" />
<polyline points="131.0,248.5,135.0,246.0,139.0,245.0,141.5,245.0" stroke="black" stroke-width="2" fill="none" />
<polyline points="144.5,244.5,141.0,243.0,137.0,245.0" stroke="black" stroke-width="2" fill="none" />
<polyline points="142.0,240.5,138.0,233.5,134.0,223.5" stroke="black" stroke-width="2" fill="none" />
<polyline points="141.0,225.0,145.0,216.5" stroke="black" stroke-width="2" fill="none" />
<polyline points="148.0,213.5,149.0,211.5,150.5,207.5" stroke="black" stroke-width="2" fill="none" />
<polyline points="146.5,201.5,144.0,197.5,138.5,195.0,138.0,191.0,135.0,186.5,137.0,182.5,142.0,178.0,145.5,174.0,143.0,177.0,139.5,180.5,135.5,185.0" stroke="black" stroke-width="2" fill="none" />
<polyline points="135.5,187.5,139.5,183.5,143.0,178.0" stroke="black" stroke-width="2" fill="none" />
<polyline points="150.0,179.5,146.0,180.5,145.5,185.5,142.0,188.0,137.0,189.5" stroke="black" stroke-width="2" fill="none" />
<polyline points="140.0,192.5,139.0,197.0,136.5,200.5" stroke="black" stroke-width="2" fill="none" />
<polyline points="141.0,195.0,144.0,198.5,146.0,202.5,146.5,207.0,144.5,211.0,143.5,215.0,147.5,208.5,151.0,202.0" stroke="black" stroke-width="2" fill="none" />
<polyline points="130.5,206.0,126.5,198.0" stroke="black" stroke-width="2" fill="none" />
<polyline points="114.0,226.0,110.5,230.0,111.5,228.5,115.5,227.5" stroke="black" stroke-width="2" fill="none" />
<polyline points="116.0,227.5,112.5,231.5,115.0,229.5" stroke="black" stroke-width="2" fill="none" />
<polyline points="124.5,252.5,119.5,257.0,115.5,261.0,112.0,264.5,115.0,259.5,119.0,255.5,123.0,252.5,127.5,247.5,131.5,245.5,136.0,240.5,142.0,238.5,148.5,235.0,152.0,231.0,156.0,228.0,160.0,224.5" stroke="black" stroke-width="2" fill="none" />
<polyline points="160.0,223.0,156.0,227.5,151.5,230.5,148.5,235.5,146.0,239.5,143.5,247.0,143.0,251.0,143.0,255.0,141.5,260.0,141.0,264.0,135.5,266.0,133.0,270.5,133.0,270.0,137.5,269.5" stroke="black" stroke-width="2" fill="none" />
<polyline points="156.0,254.5,151.5,253.5,156.0,255.5,156.5,251.5" stroke="black" stroke-width="2" fill="none" />
<polyline points="166.0,231.0,163.0,235.0,160.5,239.0,161.0,238.5,165.0,233.0,166.0,229.0,170.0,228.5" stroke="black" stroke-width="2" fill="none" />
<polyline points="167.0,225.5,163.0,226.5" stroke="black" stroke-width="2" fill="none" />
<polyline points="175.5,229.0,170.5,232.5,167.0,236.0,164.0,240.0,161.5,243.5,157.5,247.0,152.5,250.0,149.5,253.5,152.0,255.0,150.0,258.0,146.5,262.0,142.5,266.0,138.0,270.0,135.5,274.0,129.0,279.5,132.0,287.0,129.0,291.5,126.0,296.5,125.0,302.5,127.0,307.0,126.0,311.0,124.0,314.0,123.5,318.0,123.5,321.5,124.0,325.0,124.5,329.0,123.5,332.5,123.5,338.0,125.5,339.5,127.0,343.0,130.0,347.0,132.5,351.5,137.0,355.0,137.0,359.0,137.5,364.5,141.0,368.5,143.0,368.0,144.5,372.0,146.0,377.0,147.5,381.0,145.5,385.0,147.5,389.0,147.0,393.0,148.5,397.0,150.0,397.0,150.5,402.0,150.5,405.0,153.5,406.0,157.0,410.0,159.5,414.5,161.0,418.5,159.5,422.5,154.5,424.5" stroke="black" stroke-width="2" fill="none" />
<polyline points="168.5,421.5,165.0,416.0,163.0,412.0" stroke="black" stroke-width="2" fill="none" />
<polyline points="192.0,426.0,192.0,430.0,192.0,433.5" stroke="black" stroke-width="2" fill="none" />
<polyline points="198.0,432.0,197.0,428.0" stroke="black" stroke-width="2" fill="none" />
<polyline points="196.5,425.0,196.5,429.0,194.5,431.0,193.5,435.0" stroke="black" stroke-width="2" fill="none" />
<polyline points="192.5,403.5,193.5,399.5,193.5,395.5,193.5,391.5" stroke="black" stroke-width="2" fill="none" />
<polyline points="191.5,391.0,192.0,395.0,191.5,399.0,191.0,403.5,190.5,407.5,190.5,411.5,190.5,415.5,190.0,419.5,190.0,423.5,189.5,427.0,188.5,431.0,188.0,435.0,188.5,439.0,186.0,440.5,183.0,444.0,186.5,444.5,190.5,445.0,194.5,446.5,199.0,445.0" stroke="black" stroke-width="2" fill="none" />
<polyline points="381.0,360.0,380.5,356.0,380.0,352.0,380.0,348.0,379.5,343.5,379.0,339.5,379.0,336.0,378.0,331.5,378.0,327.0,378.0,323.0,376.0,316.5,376.0,312.5,375.0,308.5,374.5,304.5,374.0,300.5,374.0,296.5,374.5,292.5" stroke="black" stroke-width="2" fill="none" />
<polyline points="380.0,289.0,379.5,285.0,379.0,281.5,381.0,277.5,383.0,273.5,382.0,269.5,383.0,265.5" stroke="black" stroke-width="2" fill="none" />
<polyline points="366.5,263.0,366.0,267.0,365.5,271.0,365.0,275.5,365.0,279.5,365.5,284.0,365.5,288.0,365.0,292.5,364.5,296.5,364.0,300.5,364.0,304.5,363.5,308.5,364.0,312.5" stroke="black" stroke-width="2" fill="none" />
<polyline points="348.0,280.0,341.5,278.5,337.5,280.0,333.5,280.0,329.5,279.0,322.5,277.0,322.0,273.0,322.5,269.0" stroke="black" stroke-width="2" fill="none" />
<polyline points="323.5,266.5,327.5,272.5,331.0,274.0,335.0,272.0,334.5,270.0" stroke="black" stroke-width="2" fill="none" />
<polyline points="322.0,277.0,317.5,274.5,317.5,273.5,318.5,270.0,321.0,266.5,325.5,262.0,328.0,256.5,334.5,252.5" stroke="black" stroke-width="2" fill="none" />
<polyline points="365.5,263.5,365.0,267.0,365.0,271.5,364.0,275.5,362.5,280.0,361.5,282.0" stroke="black" stroke-width="2" fill="none" />
<polyline points="298.0,224.5,294.0,227.0,289.5,230.0,286.0,233.5,288.5,231.0,293.5,227.0,298.5,223.0" stroke="black" stroke-width="2" fill="none" />
<polyline points="269.0,214.0,269.0,212.5,273.0,207.5,277.0,204.0,281.0,200.5,285.0,196.0,289.0,192.5,293.0,189.0,296.5,186.5,300.5,183.0,304.0,181.0,308.5,178.5" stroke="black" stroke-width="2" fill="none" />
<polyline points="309.0,175.0,305.0,177.5,300.5,180.0,296.0,183.5,292.0,186.5,288.0,190.0,284.5,193.0,280.5,196.5,277.0,199.5,273.0,203.0,269.0,205.5,264.5,212.5,263.5,216.0,259.5,220.0,255.5,223.5,251.5,228.0,247.0,232.5,243.0,238.0,239.0,242.5,235.0,247.5,231.0,252.5,227.0,258.5,223.0,264.5,219.5,271.5,215.5,278.5,211.5,286.0,208.0,294.5,204.0,302.5,200.0,312.5,200.5,320.0,198.0,316.5,199.5,312.0,201.0,308.0,202.5,304.0,204.0,300.5,206.5,296.0,207.5,292.5,209.5,288.5,211.5,285.0,213.0,281.0,215.5,277.0,218.5,273.5,220.5,269.5,222.5,265.5,226.0,261.5,228.0,257.5,231.0,253.5,234.5,249.0,237.5,245.0,241.0,240.5,244.5,236.5,248.0,232.5,251.5,228.5,255.5,224.5,259.5,220.5,261.0,215.5,261.0,211.5,262.5,207.5,264.5,203.5,265.5,199.5" stroke="black" stroke-width="2" fill="none" />
<polyline points="266.5,205.5,262.5,210.5" stroke="black" stroke-width="2" fill="none" />
<polyline points="251.0,213.0,247.0,213.0,243.0,212.5" stroke="black" stroke-width="2" fill="none" />
<polyline points="216.5,195.0,212.0,197.0,219.0,192.5,219.0,188.5,222.0,184.0,226.0,184.0" stroke="black" stroke-width="2" fill="none" />
<polyline points="222.5,175.0,217.0,179.0,213.5,182.5,209.5,186.5,206.0,190.5,205.5,194.5,206.0,196.5,209.5,194.5,213.5,192.5,218.5,193.0,222.5,190.0,226.0,189.0,230.0,187.5,231.5,183.5,235.5,182.0" stroke="black" stroke-width="2" fill="none" />
<polyline points="246.0,172.0,242.0,176.0,241.5,180.5,239.0,184.0,234.0,186.5,238.0,183.5,243.0,181.0,247.5,180.5,252.0,177.5" stroke="black" stroke-width="2" fill="none" />
<polyline points="252.0,176.5,248.0,180.5,243.5,183.0,245.5,185.5,242.0,190.5,238.5,195.0,236.5,199.0,234.5,203.5,233.5,207.5,231.0,211.0,232.5,211.0,232.0,210.0,236.0,209.0" stroke="black" stroke-width="2" fill="none" />
<polyline points="266.5,186.5,261.0,191.0,256.5,195.0,253.5,199.0,249.5,202.0,250.5,198.5,254.5,194.0,259.0,190.5,262.5,187.5,266.5,185.0" stroke="black" stroke-width="2" fill="none" />
<polyline points="267.5,185.0,261.0,189.0,257.5,190.5,261.5,187.5,265.5,185.0" stroke="black" stroke-width="2" fill="none" />
<polyline points="268.5,180.0,263.0,184.0,257.0,187.5,252.0,190.5,247.0,194.5,244.0,198.5,242.0,199.5,242.5,193.0,245.0,192.0,249.0,187.0,249.0,184.0,252.5,182.5,256.5,180.5,260.5,180.5" stroke="black" stroke-width="2" fill="none" />
<polyline points="264.5,174.5,268.5,176.5,272.5,176.0,277.0,178.0,281.0,175.0,283.5,175.0,292.0,176.5,294.0,180.5,289.5,184.0,286.0,187.0,281.5,191.0,276.5,195.0,272.0,199.0,273.5,194.0,270.5,197.0,271.0,199.0,275.0,195.0,279.0,192.5,283.0,189.0,287.0,185.0,292.0,181.0,296.0,178.5,300.0,176.0,304.0,173.5,308.5,171.0,313.0,169.0,317.0,166.5,321.5,164.0,326.0,162.0,330.0,160.0,334.5,157.5,338.0,155.0" stroke="black" stroke-width="2" fill="none" />
<polyline points="312.5,172.0,306.5,176.0,301.0,179.5,295.5,183.5,290.0,187.5,285.0,191.5,281.0,195.5,276.0,200.0,271.0,204.0,267.5,208.5,271.0,208.5,268.0,213.0,266.5,218.0,266.0,222.0,265.0,224.0,264.5,228.0,265.5,232.0,265.0,236.0,265.0,240.5" stroke="black" stroke-width="2" fill="none" />
<polyline points="272.0,193.5,273.0,189.5,273.0,185.5,272.0,181.5" stroke="black" stroke-width="2" fill="none" />
<polyline points="260.0,165.0,268.0,161.0,264.5,162.5,260.0,164.5,256.0,164.0,251.5,161.0" stroke="black" stroke-width="2" fill="none" />
<polyline points="252.5,162.0,257.0,166.0" stroke="black" stroke-width="2" fill="none" />
<polyline points="250.5,172.5,254.5,176.5,258.0,178.0" stroke="black" stroke-width="2" fill="none" />
<polyline points="242.0,144.5,246.5,140.5,249.5,138.5,254.5,134.5,260.5,130.5,258.5,131.0,254.0,134.0,249.5,137.0,245.5,140.5,241.5,144.0,237.5,146.0,233.0,142.0" stroke="black" stroke-width="2" fill="none" />
<polyline points="235.0,143.5,238.5,147.5" stroke="black" stroke-width="2" fill="none" />
<polyline points="221.5,148.0,217.0,144.5,213.0,141.0" stroke="black" stroke-width="2" fill="none" />
<polyline points="215.0,141.0,219.0,145.0" stroke="black" stroke-width="2" fill="none" />
<polyline points="206.5,147.0,210.5,150.5,214.0,154.5,218.0,158.5,222.0,160.0" stroke="black" stroke-width="2" fill="none" />
<polyline points="207.0,162.5,203.0,162.5" stroke="black" stroke-width="2" fill="none" />
<polyline points="204.0,162.5,205.0,166.5,197.5,169.5,192.0,173.5,188.0,178.0,183.5,181.5,179.5,185.5,175.5,189.5,172.5,193.5,168.0,197.5,165.0,201.5,164.5,202.0,168.5,197.0,172.5,193.5,176.5,188.5,180.5,185.0,184.5,181.0,188.5,177.5,192.5,174.0,196.5,170.5,200.5,167.5" stroke="black" stroke-width="2" fill="none" />
<polyline points="219.0,175.0,214.0,179.0,211.0,182.5,208.0,186.0,204.5,190.0,203.5,193.5,204.5,197.5" stroke="black" stroke-width="2" fill="none" />
<polyline points="203.0,136.5,199.0,133.0" stroke="black" stroke-width="2" fill="none" />
<polyline points="199.5,131.5,203.5,136.0,204.5,140.0,203.0,141.5,207.0,138.0,211.0,135.0,215.0,132.5,219.0,129.5,222.5,127.0" stroke="black" stroke-width="2" fill="none" />
<polyline points="225.5,126.5,219.0,130.5,213.0,134.5,207.5,138.5,209.0,139.5,213.5,136.0,217.0,133.5,221.0,130.5,225.0,128.0,229.0,125.5,233.0,122.5,237.0,120.5" stroke="black" stroke-width="2" fill="none" />
<polyline points="236.5,118.5,230.0,123.0,224.0,127.0,218.5,131.0,212.5,135.0,207.5,139.0,203.5,142.0,199.0,145.5,194.0,149.5,190.0,153.5,185.0,157.5,181.5,161.5,177.0,165.5,172.5,170.0,168.5,174.0,165.0,178.5,161.0,182.5,158.5,186.5,154.0,192.0,151.0,196.0,152.5,199.5,151.0,203.5,148.5,207.5,146.5,211.5,146.0,215.0,143.5,219.5,142.0,223.0,141.5,227.5,141.5,231.0,142.0,235.0,142.0,239.0,141.5,241.0,134.5,244.0,132.0,249.5,133.5,252.5,135.0,256.0,139.5,255.0,142.0,256.5" stroke="black" stroke-width="2" fill="none" />
<polyline points="134.0,172.5,132.5,179.0,136.0,175.0,140.0,171.0,140.0,168.5,143.5,164.5" stroke="black" stroke-width="2" fill="none" />
<polyline points="127.0,140.5,131.5,135.5,132.5,131.0" stroke="black" stroke-width="2" fill="none" />
<polyline points="154.5,127.5,150.5,130.5,147.5,133.5,152.0,129.5,157.5,125.5" stroke="black" stroke-width="2" fill="none" />
<polyline points="189.0,120.5,184.5,122.5,180.5,125.5,179.0,126.5,184.5,122.5,190.5,119.0" stroke="black" stroke-width="2" fill="none" />
<polyline points="190.0,118.5,184.0,122.0,178.5,126.0,179.5,126.0,183.5,123.0,187.0,120.5" stroke="black" stroke-width="2" fill="none" />
<polyline points="192.5,130.5,188.0,134.5,187.0,135.5,191.0,133.0" stroke="black" stroke-width="2" fill="none" />
<polyline points="202.5,117.0,199.0,119.5,195.5,122.5,198.5,120.0,205.5,116.5" stroke="black" stroke-width="2" fill="none" />
<polyline points="196.0,109.5,193.5,112.0" stroke="black" stroke-width="2" fill="none" />
<polyline points="228.5,127.5,224.5,130.0,220.0,132.5,216.0,135.5,212.0,138.5,208.5,141.5,204.0,145.0,200.0,149.0,196.5,153.0,198.5,151.0,202.5,147.0,207.5,143.5,213.0,139.5,218.0,135.5,224.0,131.5,230.5,127.5" stroke="black" stroke-width="2" fill="none" />
<polyline points="259.0,133.5,255.0,137.0,251.5,140.0,247.5,143.5,243.0,146.5,238.0,148.5,233.5,152.0,229.5,154.5,225.5,157.5,221.5,161.0,220.0,163.0,224.5,159.0,230.5,155.0,235.5,150.5,241.5,146.5,246.0,142.5,251.5,138.5,256.5,134.5,261.0,130.0" stroke="black" stroke-width="2" fill="none" />
<polyline points="282.5,144.0,286.5,143.0" stroke="black" stroke-width="2" fill="none" />
<polyline points="299.5,134.5,295.5,137.5,292.0,141.0,290.0,142.5,295.5,138.5,300.5,134.5" stroke="black" stroke-width="2" fill="none" />
<polyline points="311.5,174.5,308.5,178.5,301.0,182.5,296.0,186.5,290.5,190.5,286.5,194.5,282.0,198.5,278.0,202.5,274.0,206.5,272.5,210.5,272.5,214.5,268.5,216.0" stroke="black" stroke-width="2" fill="none" />
<polyline points="238.0,99.0,234.0,101.5,229.5,104.0,225.5,104.0,221.5,107.5,225.5,104.0,231.0,102.5,237.0,98.5" stroke="black" stroke-width="2" fill="none" />
<polyline points="237.0,97.5,234.0,100.0,239.0,96.0" stroke="black" stroke-width="2" fill="none" />
<polyline points="248.0,92.0,244.0,94.5,250.0,91.5" stroke="black" stroke-width="2" fill="none" />
<polyline points="264.0,87.0,260.0,88.5,256.0,90.5,252.0,92.5,248.0,94.0,243.5,96.5,240.0,99.5,236.0,102.5,232.0,105.5,228.0,108.0,224.0,110.0,220.5,113.5,216.5,116.0,212.5,119.0,208.0,121.5,204.0,125.0,199.5,128.5,195.0,132.5,190.5,136.5,186.5,140.0,182.5,144.0,178.5,148.0,174.5,151.5,170.5,155.0,166.5,159.0,162.0,162.5,158.5,165.5,155.0,170.5,153.5,173.5,156.5,169.5,160.5,165.0,165.0,161.5,169.5,157.0,174.0,153.0,177.5,149.0,182.0,145.0,186.0,141.0,191.0,137.0,195.0,132.5,199.5,128.5,204.0,124.5,208.5,120.5,214.5,116.5,219.5,113.0,224.5,109.0,231.5,105.5,237.0,101.5,243.0,97.5,248.5,94.0,255.5,90.0,264.5,86.5" stroke="black" stroke-width="2" fill="none" />
<polyline points="236.5,79.5,229.5,83.5,225.0,87.5,227.0,85.5,231.0,82.5,235.5,80.0" stroke="black" stroke-width="2" fill="none" />
<polyline points="233.0,49.5,236.5,47.0" stroke="black" stroke-width="2" fill="none" />
<polyline points="230.0,46.5,225.0,51.0,228.5,48.0,233.0,48.5,237.0,48.0,241.0,48.5,245.0,49.0,248.5,50.0,252.0,51.0,256.0,52.5,260.0,53.0,264.0,55.0,268.5,58.0,272.5,61.0,276.5,63.5,281.0,67.0,284.5,70.0,288.0,73.5,291.5,77.0,295.5,78.0,299.5,81.0,304.0,87.0,308.0,92.0,312.5,98.0,316.5,100.5,320.5,103.5,324.0,108.0,327.5,113.5,331.5,122.5,335.5,129.0,339.5,132.5,343.5,138.5,347.5,146.5,351.5,144.0,355.0,142.0,359.0,139.0,363.0,137.5,367.5,135.5,371.5,133.0,375.5,130.5,379.5,128.0,384.0,125.0,387.5,121.5,392.0,117.5,395.5,114.5,399.5,113.0,403.5,112.5,407.5,113.0,412.0,113.0,416.0,114.5,420.0,122.0" stroke="black" stroke-width="2" fill="none" />
<polyline points="412.0,115.0,416.0,119.0,418.0,123.0,419.0,127.0,419.5,131.0,419.5,135.5,419.0,139.0,418.0,143.0,417.5,147.0,416.0,151.0,415.0,155.0,413.5,159.0,412.0,162.5,411.5,166.0,410.0,170.0,408.5,173.5,407.0,177.5,404.5,181.5,401.0,185.5,395.5,190.0,392.0,194.0,388.0,198.0,384.0,201.5,378.5,205.5,373.5,209.5,367.5,213.0,371.0,211.0,375.0,208.5,379.5,205.5,383.5,202.5,387.5,199.0,391.0,195.0,395.0,191.0,399.0,187.0,403.0,184.5,407.5,179.0,411.5,170.0,415.5,158.5" stroke="black" stroke-width="2" fill="none" />
<polyline points="367.5,131.5,368.5,130.5,368.5,126.5" stroke="black" stroke-width="2" fill="none" />
<polyline points="387.5,106.5,383.5,101.0,379.0,97.0" stroke="black" stroke-width="2" fill="none" />
<polyline points="379.0,96.0,382.5,100.0,384.5,104.0,388.5,108.5" stroke="black" stroke-width="2" fill="none" />
<polyline points="440.5,69.5,437.0,63.0,433.0,56.0,429.5,50.0,426.0,43.0,422.5,34.5,418.5,28.5,414.5,21.0,410.5,14.0,406.5,7.0" stroke="black" stroke-width="2" fill="none" />
<polyline points="513.0,74.5,510.0,78.5,506.5,82.5,503.0,86.5,498.5,90.0,494.0,95.5,491.0,99.5,487.5,104.0,484.5,108.5,482.0,112.5,478.5,116.5,475.5,120.5,473.0,124.0,470.0,128.0,468.5,132.5,465.0,136.5,462.5,140.5,461.0,144.5,457.0,149.5,456.0,153.5,453.0,157.5,451.0,161.5,448.5,166.0,445.5,169.5,443.5,174.0,442.0,178.0,439.0,182.5,437.0,187.0,435.5,191.5,433.0,196.0,431.0,200.5,429.5,204.5,429.0,208.0,428.0,211.5,426.5,216.0,422.5,220.0,422.0,224.0,420.0,228.0,418.5,232.0,417.0,237.0,415.5,241.0,413.5,244.5,412.5,248.5,413.5,251.0,411.0,254.5,409.5,258.5,408.5,262.5,406.5,266.5,405.5,271.0,404.0,275.0,401.5,278.5,401.5,282.5,401.0,286.0,400.0,290.0,398.5,293.5,398.0,298.0,396.5,302.0,395.5,306.0,394.0,310.5,393.0,315.5,392.0,319.5,391.5,323.0,390.0,327.0,388.5,331.0,387.0,335.0,385.5,339.0,386.0,342.5" stroke="black" stroke-width="2" fill="none" />
<polyline points="348.0,147.0,345.5,143.5,344.5,139.5,341.5,135.5,337.0,131.5,334.5,127.5,332.5,123.0,330.0,119.0,329.0,115.0,326.0,111.5,324.0,107.5,320.5,103.0,316.0,99.0,310.5,95.5,308.0,92.0,304.5,88.0,301.5,83.5,299.0,79.5,291.0,75.5,286.5,71.0,281.0,67.0,275.5,63.5,269.5,59.5,263.5,55.5,253.0,51.0" stroke="black" stroke-width="2" fill="none" />
<polyline points="210.5,49.5,206.5,51.5" stroke="black" stroke-width="2" fill="none" />
<polyline points="174.5,60.0,170.5,61.5,166.5,61.5,161.0,65.0,160.5,69.0,162.0,65.0" stroke="black" stroke-width="2" fill="none" />
<polyline points="162.0,65.0,160.0,69.0,156.0,74.0,154.0,78.5,154.0,78.0,158.0,73.5,161.0,70.5" stroke="black" stroke-width="2" fill="none" />
<polyline points="156.5,76.5,155.0,80.5,153.0,84.5,156.5,77.5" stroke="black" stroke-width="2" fill="none" />
</svg>