<svg xmlns="http://www.w3.org/2000/svg" width="1024" height="1024" version="1.1" fill="white"><polyline points="421.0,23.0,422.0,28.5,415.0,24.0,430.0,39.0,429.5,40.5,424.0,41.0,437.0,48.0,430.5,51.0,441.5,55.5,432.5,58.5,440.0,63.5,436.5,63.0,439.0,67.0" stroke="black" stroke-width="1" fill="none" />
<polyline points="442.0,43.5,441.0,46.0,448.5,52.5,441.5,38.0,444.5,36.0,430.0,23.5,442.0,19.5,423.0,8.5,420.5,15.0,426.0,4.0,422.0,8.5" stroke="yellow" stroke-width="1" fill="none" />
<polyline points="425.5,9.0,420.5,6.0,424.5,13.5,431.5,20.0,426.0,28.5,431.0,19.0,435.5,25.5,444.5,40.5,434.5,29.5,440.0,49.5,448.0,42.5,441.5,48.0,444.5,50.5,444.0,52.5,445.5,56.0,446.5,64.0,451.5,67.5,440.5,72.5,441.5,77.0,418.0,91.5,425.5,91.0,426.0,80.0,426.5,97.0,429.5,103.5,423.5,105.5,422.0,102.0,407.0,102.0,416.0,110.0,415.0,106.5,415.5,100.5,419.5,93.5,428.5,92.0,424.0,97.5,436.0,91.5,436.0,70.0,441.5,73.0,459.0,69.0,437.5,68.0,452.0,59.5,462.0,50.0,464.5,55.5,471.0,42.0,478.0,41.5,479.0,37.5,486.5,36.5,479.0,26.0,491.0,16.5,502.0,14.0,501.5,6.5,501.5,17.0,504.5,15.0,500.5,14.5,503.0,19.5,497.5,15.5" stroke="black" stroke-width="4" fill="none" />
<polyline points="494.5,23.5,488.5,27.5,496.0,28.0,483.5,16.5,498.0,35.0,482.5,35.5,483.0,45.5,474.0,39.0,472.0,45.5,467.5,44.0" stroke="yellow" stroke-width="1" fill="none" />
<polyline points="503.0,80.5,506.5,93.5,492.0,103.0,481.0,101.0,478.0,99.5,481.5,109.5,465.5,113.5,466.5,126.5,469.5,123.0,457.0,126.5,460.0,128.0" stroke="orange" stroke-width="1" fill="none" />
<polyline points="440.0,176.0" stroke="orange" stroke-width="1" fill="none" />
<polyline points="" stroke="yellow" stroke-width="1" fill="none" />
<polyline points="443.0,214.0,432.5,216.5,423.5,215.0" stroke="orange" stroke-width="4" fill="none" />
<polyline points="" stroke="green" stroke-width="2" fill="none" />
<polyline points="404.0,294.5,395.5,290.5,396.5,294.0" stroke="orange" stroke-width="1" fill="none" />
<polyline points="377.5,272.5,383.5,271.0,387.0,279.0,388.0,277.5,389.0,274.5,384.0,280.0,389.5,278.0" stroke="yellow" stroke-width="1" fill="none" />
<polyline points="365.5,262.0,382.5,267.0,368.0,258.0,378.0,245.5,371.5,251.0,357.5,238.5,364.5,236.0,370.5,229.0,358.0,227.5,368.5,229.5,361.5,224.0,377.5,222.5,372.5,210.5,379.5,213.5" stroke="orange" stroke-width="4" fill="none" />
<polyline points="369.0,240.0,369.0,239.0,369.0,241.5,378.0,235.0,373.5,242.5,376.5,241.5" stroke="yellow" stroke-width="3" fill="none" />
<polyline points="372.0,258.5,381.5,260.5,378.0,268.0,364.0,270.0,379.0,272.5,383.0,274.0,362.5,273.5,367.5,280.5,362.0,278.5,361.5,280.0" stroke="yellow" stroke-width="3" fill="none" />
<polyline points="364.0,305.5,373.0,295.0,387.0,301.0,373.5,309.0,379.0,300.5,379.5,307.5,371.5,316.5,376.0,311.5,374.5,316.0,379.0,336.5,381.0,323.5,371.5,333.5,381.0,338.5,379.5,342.0,382.0,352.5,391.0,346.5,384.0,351.5,388.0,349.5,387.0,356.5" stroke="orange" stroke-width="2" fill="none" />
<polyline points="373.5,348.5,368.5,350.0,364.5,364.0,365.0,368.5,361.5,370.5,369.5,369.5,372.5,371.0,371.0,364.5" stroke="green" stroke-width="1" fill="none" />
<polyline points="366.5,375.5,379.5,378.0,370.0,384.0,369.5,381.0,367.5,387.0,366.0,389.5" stroke="black" stroke-width="3" fill="none" />
<polyline points="380.5,394.5,388.5,399.0,373.0,408.0,379.5,409.0,383.5,404.5,379.5,400.0,384.5,411.0,383.0,409.0,383.5,406.5" stroke="orange" stroke-width="3" fill="none" />
<polyline points="354.0,412.5,355.5,417.5,351.0,418.5,346.5,404.0,340.5,401.5,329.0,399.0,331.5,403.0,335.5,403.0,324.5,401.5,326.5,396.0,319.5,390.5,312.5,394.5,313.5,385.0" stroke="black" stroke-width="4" fill="none" />
<polyline points="309.5,384.5,312.0,369.0,322.5,364.5,327.0,362.0,328.5,347.5,343.5,358.5,344.5,357.0,345.5,356.0" stroke="black" stroke-width="2" fill="none" />
<polyline points="357.5,337.5,356.5,342.0,356.5,337.0" stroke="black" stroke-width="2" fill="none" />
<polyline points="356.5,352.5,357.0,352.5,346.0,354.0,347.5,369.5,352.0,380.5,356.5,368.0,349.5,373.0,356.5,372.0,357.0,390.0,359.5,397.0,350.5,396.0,356.5,397.5,347.0,411.5,346.0,406.5" stroke="yellow" stroke-width="3" fill="none" />
<polyline points="364.0,387.0,352.5,387.5,352.0,383.0,358.5,370.0,348.5,386.0,346.0,384.5,347.0,379.0,342.0,378.5" stroke="orange" stroke-width="2" fill="none" />
<polyline points="354.0,353.5,356.0,351.0,363.5,358.0,357.5,356.5,358.5,361.0,354.5,373.5,359.5,373.0,358.5,369.5" stroke="yellow" stroke-width="1" fill="none" />
<polyline points="368.0,375.0,350.0,378.0,345.0,381.0,360.5,379.5,358.5,380.0,362.5,385.5,363.5,390.5,365.5,390.5,349.5,398.5,362.5,419.0,357.0,413.0,357.0,409.5,356.0,414.0,352.5,413.5" stroke="yellow" stroke-width="4" fill="none" />
<polyline points="375.0,461.0,373.0,449.5,378.0,452.0,373.0,452.0,378.0,443.0,372.0,433.0,368.5,444.0,379.0,430.0,370.0,434.0,372.5,427.0,374.0,418.5,378.0,416.0,386.0,406.0,380.5,411.5,366.5,406.5,382.5,398.5,369.5,402.0,376.5,394.5,374.5,391.0,369.5,385.0,377.0,376.5,384.5,370.5,382.0,370.5,379.5,379.5,385.5,369.5,391.0,354.0,375.0,357.5,368.0,353.0,368.0,347.5,377.0,344.5,374.5,341.5,370.0,333.0,383.0,324.5,377.5,337.5,377.0,330.5,362.5,323.0,372.0,313.0,368.0,318.5,378.0,310.5,374.0,308.5,380.0,307.0,368.0,297.0,370.0,301.0,365.5,278.0,376.5,282.5,366.0,278.5,370.5,280.0,365.5,272.0,362.0,269.5,362.0,265.5,369.0,261.0,365.0,254.5,366.5,251.5,375.0,246.0,363.0,245.0,366.0,239.0,371.0,240.0,368.0,229.5,373.5,218.0,363.5,230.5,358.0,221.5,367.0,218.5,359.5,214.5,360.0,212.0,361.0,204.5,359.5,205.0,364.0,199.5,358.0,198.0" stroke="orange" stroke-width="2" fill="none" />
<polyline points="" stroke="orange" stroke-width="2" fill="none" />
<polyline points="" stroke="black" stroke-width="3" fill="none" />
<polyline points="366.0,191.5,360.0,199.5,360.5,187.0,357.0,189.5" stroke="yellow" stroke-width="3" fill="none" />
<polyline points="355.5,200.0,357.5,206.0,361.5,204.0,354.5,203.5,359.5,197.0,362.0,194.0,368.0,199.0,366.5,199.0,365.5,198.0" stroke="green" stroke-width="3" fill="none" />
<polyline points="" stroke="green" stroke-width="3" fill="none" />
<polyline points="" stroke="black" stroke-width="2" fill="none" />
<polyline points="" stroke="orange" stroke-width="3" fill="none" />
<polyline points="356.0,212.5,352.0,210.5,364.5,222.0,355.0,229.5,359.5,229.5,354.5,235.5,360.0,246.5,362.5,251.0,363.5,252.0" stroke="black" stroke-width="1" fill="none" />
<polyline points="363.5,246.5,364.0,244.5,363.5,244.5" stroke="green" stroke-width="4" fill="none" />
<polyline points="348.0,258.0,337.5,249.5,330.5,253.5,336.5,244.0,332.5,242.5,336.0,246.5,335.5,248.5" stroke="yellow" stroke-width="1" fill="none" />
<polyline points="" stroke="green" stroke-width="2" fill="none" />
<polyline points="337.0,254.5,338.0,245.0,341.0,242.5,345.0,251.0,347.0,250.0,348.5,245.5,355.0,249.0,352.5,248.5,351.5,247.0" stroke="green" stroke-width="3" fill="none" />
<polyline points="" stroke="green" stroke-width="4" fill="none" />
<polyline points="333.0,283.0,334.5,285.5" stroke="yellow" stroke-width="3" fill="none" />
<polyline points="337.5,285.5,351.5,283.5,345.0,284.5,342.0,285.5,355.0,291.0,339.0,290.5,342.0,293.0,352.0,286.5,348.0,303.0,345.0,306.5,358.0,301.5,350.0,316.0,349.0,320.0,343.0,321.5,342.5,313.5,332.0,330.0,338.5,326.5,345.5,336.5,333.5,338.0,325.5,348.0,317.0,353.5,325.5,351.5,336.0,354.5,323.0,350.0,327.5,363.0,324.5,360.5,321.5,376.5,325.0,369.0,317.0,378.5,317.5,371.5,309.0,386.5,309.0,387.0,326.5,401.5,339.5,396.5,338.0,397.5,353.5,403.0,344.0,411.0,349.0,421.5,355.0,408.5,361.5,415.5,366.0,433.5,367.0,439.0,365.0,438.0,366.5,426.0,368.0,451.0,355.0,443.0,373.5,445.5,385.0,456.0,368.5,456.5,371.5,468.0,369.5,469.5,369.0,478.0,365.0,476.5,369.0,465.0,384.0,488.0,383.5,488.0,385.0,486.0,383.5,491.5,386.5,503.0,383.0,503.5,388.5,507.0,382.5,504.5,392.5,511.5" stroke="orange" stroke-width="1" fill="none" />
<polyline points="443.5,474.5,447.5,464.0,448.0,466.5" stroke="yellow" stroke-width="4" fill="none" />
<polyline points="450.0,459.5,462.5,455.0,455.5,462.0" stroke="yellow" stroke-width="3" fill="none" />
<polyline points="458.5,441.5,453.5,439.5,452.5,443.0" stroke="orange" stroke-width="3" fill="none" />
<polyline points="477.5,423.0,469.0,432.0,466.5,425.0,465.5,434.5,466.5,424.5,475.0,422.5,479.0,408.5,477.0,403.0,487.0,400.0,491.5,398.0,496.0,390.5,492.0,390.0,496.5,394.5" stroke="green" stroke-width="1" fill="none" />
<polyline points="478.0,419.5,480.5,410.5,461.0,418.0,466.5,416.0,464.5,430.0,469.0,423.0,465.0,434.5,463.0,438.0,457.0,438.5,464.0,442.0,463.5,439.0,452.5,450.0,458.0,455.5,448.0,456.5,451.0,464.0,452.0,467.0,443.0,470.0,451.5,470.5,449.0,479.0,445.0,484.0,441.0,486.0" stroke="black" stroke-width="2" fill="none" />
<polyline points="423.0,474.5,426.5,475.5,432.0,476.5,426.5,476.5,422.5,468.5,432.0,467.5,433.0,466.5,443.0,456.5,436.0,460.5,425.0,453.0,435.5,448.5,428.0,461.0,433.5,457.5,435.5,452.5,435.5,456.0,433.5,451.0" stroke="green" stroke-width="4" fill="none" />
<polyline points="433.0,442.0,423.5,449.0,439.5,436.0,430.5,423.0,436.5,435.0,443.0,432.5,436.0,433.5,439.5,432.5" stroke="yellow" stroke-width="3" fill="none" />
<polyline points="428.0,464.0,429.5,463.5,428.5,461.5,411.5,474.0,429.0,481.5,418.5,489.5,418.0,498.0,428.0,479.5,429.5,491.0,422.5,481.0,421.0,484.5,426.0,491.5" stroke="yellow" stroke-width="2" fill="none" />
<polyline points="412.0,468.0,422.5,475.0,424.5,477.5" stroke="green" stroke-width="3" fill="none" />
<polyline points="476.0,416.0,472.0,414.0" stroke="orange" stroke-width="4" fill="none" />
<polyline points="455.5,422.0,451.5,421.5,450.5,418.5,453.5,415.0,457.0,425.5,451.0,413.5,457.5,420.5,456.0,406.5,449.0,410.0,453.5,394.5,446.0,401.5,448.5,380.5,464.5,376.0,456.5,383.5,455.0,360.5,458.5,391.0,458.0,371.5" stroke="orange" stroke-width="3" fill="none" />
<polyline points="376.0,346.0,381.5,346.0,377.0,317.5" stroke="black" stroke-width="3" fill="none" />
<polyline points="370.0,364.0,368.0,373.0,362.5,383.0,377.5,381.5,363.5,385.0,370.0,383.5,369.5,383.5" stroke="black" stroke-width="4" fill="none" />
<polyline points="" stroke="black" stroke-width="3" fill="none" />
<polyline points="330.5,344.0,327.0,342.0,319.0,345.0,319.5,355.5,318.0,352.0,312.0,356.0,319.0,356.0" stroke="green" stroke-width="3" fill="none" />
<polyline points="310.0,354.0,308.5,353.0,306.5,351.5,306.0,353.5" stroke="orange" stroke-width="4" fill="none" />
<polyline points="291.5,362.0,293.0,367.5,291.0,373.0,305.5,363.0,300.5,359.0,309.0,361.5,318.0,360.5,312.0,351.5,306.0,354.0,305.5,355.5,304.0,355.5,304.5,357.5" stroke="green" stroke-width="1" fill="none" />
<polyline points="298.0,338.5,306.0,343.5" stroke="orange" stroke-width="3" fill="none" />
<polyline points="305.0,331.0,313.5,334.5,307.0,335.0,311.5,331.5,313.5,333.5,309.5,333.0" stroke="green" stroke-width="3" fill="none" />
<polyline points="296.5,326.0,302.0,319.5,298.0,336.0,301.5,325.0,302.0,323.0,301.5,331.0,300.5,329.0,304.0,321.5,304.5,326.0" stroke="yellow" stroke-width="3" fill="none" />
<polyline points="308.0,325.0,309.0,335.5,300.0,329.0,302.5,323.5" stroke="green" stroke-width="3" fill="none" />
<polyline points="323.5,317.5,318.0,313.0,318.0,322.0,321.5,318.5" stroke="orange" stroke-width="1" fill="none" />
<polyline points="" stroke="green" stroke-width="4" fill="none" />
<polyline points="" stroke="green" stroke-width="2" fill="none" />
<polyline points="332.0,256.0,338.0,260.5,326.0,273.5,331.5,264.5,328.0,269.5,325.5,270.5" stroke="orange" stroke-width="1" fill="none" />
<polyline points="" stroke="orange" stroke-width="2" fill="none" />
<polyline points="324.5,263.5,325.0,263.0,327.5,268.0" stroke="green" stroke-width="2" fill="none" />
<polyline points="340.5,262.5,338.5,260.5,339.0,262.5,341.0,250.5,334.5,251.0,345.5,254.0,343.5,250.5" stroke="green" stroke-width="3" fill="none" />
<polyline points="354.0,239.5,348.0,240.5,349.0,235.5,351.5,235.0,338.0,224.0,344.5,223.0,350.0,225.0,340.0,212.0,341.0,213.5,345.0,221.5,345.0,218.5,343.5,220.0,342.0,219.5" stroke="green" stroke-width="1" fill="none" />
<polyline points="340.5,195.5,340.5,196.5,330.0,200.0,335.0,195.0,344.5,191.0,348.0,182.5,336.5,191.0,362.0,185.5,361.5,184.0,358.0,174.0,360.5,192.5,367.5,179.5,374.5,189.0,377.0,170.0,386.5,182.5,386.0,181.5,389.5,173.0,383.0,171.5,399.5,173.0,396.5,169.0,410.0,166.0,405.5,166.5,403.5,175.0,397.0,179.0,388.5,190.5,386.5,185.0,374.0,178.0,378.0,185.0,389.0,189.0,401.0,189.5,396.5,171.0,393.0,169.5,388.5,184.5" stroke="green" stroke-width="4" fill="none" />
<polyline points="405.0,154.5,395.0,175.5,406.0,176.5,411.0,172.0,402.0,174.5,405.5,169.0,407.0,172.0,411.5,171.0,405.5,177.0,404.0,172.0" stroke="black" stroke-width="2" fill="none" />
<polyline points="361.5,189.0,362.5,201.5,351.5,195.0,349.0,202.5,326.5,196.0,332.5,214.5,345.5,200.0,343.0,215.5,363.5,213.5,356.5,220.5,358.0,222.5" stroke="yellow" stroke-width="1" fill="none" />
<polyline points="340.5,209.0,338.5,208.5,337.5,205.0,341.5,209.5" stroke="green" stroke-width="4" fill="none" />
<polyline points="" stroke="green" stroke-width="2" fill="none" />
<polyline points="354.5,216.5,358.0,223.0,363.0,215.0,358.0,226.5,355.5,236.0,358.0,223.5,365.5,228.5,365.5,226.5,368.0,232.0,374.5,232.0,375.0,233.0" stroke="black" stroke-width="2" fill="none" />
<polyline points="354.5,211.0" stroke="orange" stroke-width="2" fill="none" />
<polyline points="353.0,205.0,355.0,204.5,347.5,209.0,347.5,204.0" stroke="orange" stroke-width="1" fill="none" />
<polyline points="350.0,197.5,350.5,193.0,345.5,191.0" stroke="black" stroke-width="4" fill="none" />
<polyline points="338.5,215.0,339.0,213.5,353.5,205.5,343.0,214.0,339.0,200.5,342.0,200.0" stroke="black" stroke-width="1" fill="none" />
<polyline points="358.5,190.5,356.5,195.0,358.5,193.5" stroke="orange" stroke-width="3" fill="none" />
<polyline points="367.5,187.0,373.5,195.0,370.0,184.5,371.5,192.0" stroke="yellow" stroke-width="1" fill="none" />
<polyline points="402.0,149.5,400.0,151.5,385.0,162.5,399.0,161.0,388.5,160.5,384.5,166.5,381.5,179.5,384.0,170.0,387.5,162.5,380.5,166.5,385.0,169.0,385.5,175.5" stroke="black" stroke-width="2" fill="none" />
<polyline points="388.0,176.5,387.5,177.0,392.0,168.0,387.0,173.0,400.0,161.0,395.0,173.5,416.5,154.5,408.0,160.5,410.0,164.0" stroke="green" stroke-width="3" fill="none" />
<polyline points="391.0,137.5,390.5,135.5,383.5,135.5,380.5,137.5,384.0,128.0,394.0,124.5,386.0,125.0,384.5,128.5" stroke="green" stroke-width="3" fill="none" />
<polyline points="398.0,128.5,386.0,123.5,384.0,126.0,399.0,115.5,386.5,123.0,384.5,133.0,365.5,131.5,380.5,129.5,402.5,125.5" stroke="green" stroke-width="1" fill="none" />
<polyline points="382.0,128.0,378.5,132.5,358.0,127.0,358.0,132.5,358.5,140.5,367.5,135.0,366.0,133.5" stroke="orange" stroke-width="1" fill="none" />
<polyline points="328.5,146.5,320.5,142.5,334.0,151.0,316.0,160.0,310.0,160.0,302.5,179.0,301.5,173.0" stroke="green" stroke-width="2" fill="none" />
<polyline points="" stroke="orange" stroke-width="2" fill="none" />
<polyline points="292.0,171.5,293.0,179.5,287.0,166.5,292.0,176.5" stroke="green" stroke-width="2" fill="none" />
<polyline points="285.0,184.0" stroke="black" stroke-width="2" fill="none" />
<polyline points="278.5,172.0,280.5,171.5" stroke="green" stroke-width="3" fill="none" />
<polyline points="268.0,176.0,262.0,173.0,250.0,175.0,253.5,175.0,249.5,167.0,236.5,169.5,231.5,169.0,234.0,163.5,237.0,166.5,234.5,171.0" stroke="green" stroke-width="1" fill="none" />
<polyline points="251.5,181.0,254.0,177.5,248.5,185.0,248.5,187.0,255.5,183.0,249.0,190.5,245.5,192.5,240.5,198.5,245.0,195.5,245.0,197.0,226.5,211.0,247.0,204.5,238.5,212.5,253.5,210.0,247.0,211.5,248.5,209.5,251.5,211.0,254.5,213.0,254.0,211.5,254.5,220.0,242.5,216.5,244.0,224.5,241.5,223.5,237.5,237.5,240.5,231.5,225.5,246.0,233.0,250.0,229.0,254.0,227.0,251.0,218.5,259.0,218.5,266.0,220.0,267.5,211.5,272.0,211.5,277.0,212.0,295.0,207.0,297.5,205.0,292.5,215.5,293.0,195.0,296.5,201.5,300.0,194.0,307.5,201.5,314.5,189.5,320.5,190.5,315.5,181.5,317.0,182.0,319.5,184.0,311.5" stroke="orange" stroke-width="4" fill="none" />
<polyline points="174.0,347.5,158.5,346.5,164.5,340.0,162.5,350.0,146.5,358.0,163.0,352.0,154.0,359.5,157.5,355.5,157.0,363.0,149.0,379.0,161.5,380.0,156.5,377.0,155.0,377.5,161.0,381.5,159.0,388.5,163.0,402.5,157.5,406.0,168.0,407.0" stroke="black" stroke-width="1" fill="none" />
<polyline points="" stroke="green" stroke-width="4" fill="none" />
<polyline points="158.0,404.0,158.0,401.5,158.5,405.0,161.0,403.5,157.5,412.0,149.0,423.0,157.5,418.0,166.5,420.0,168.0,430.5,160.5,425.5,168.5,421.0,160.0,427.0,157.5,426.5" stroke="green" stroke-width="1" fill="none" />
<polyline points="180.5,431.0,183.0,443.5,171.5,436.0,174.0,430.0,173.0,436.0,172.0,438.5,171.0,436.5" stroke="black" stroke-width="1" fill="none" />
<polyline points="188.5,440.0,181.0,441.5,179.5,441.5,179.5,446.0,180.0,448.5" stroke="orange" stroke-width="1" fill="none" />
<polyline points="" stroke="yellow" stroke-width="3" fill="none" />
<polyline points="171.5,462.5,171.0,465.5,170.0,450.0" stroke="green" stroke-width="3" fill="none" />
<polyline points="" stroke="yellow" stroke-width="4" fill="none" />
<polyline points="181.0,464.0,180.0,462.0,175.5,458.0,164.0,459.5,165.5,465.0,157.0,469.0,163.0,468.0,167.5,464.0,169.0,463.5" stroke="orange" stroke-width="4" fill="none" />
<polyline points="170.0,467.0,167.5,473.0,158.0,470.0,143.0,460.5,161.5,466.5,150.5,455.5,142.0,456.0,145.0,464.5,135.5,471.5,137.5,474.0,138.5,475.0" stroke="yellow" stroke-width="1" fill="none" />
<polyline points="144.5,464.5,147.0,462.0,138.0,478.5,144.0,479.5,148.0,478.5,143.0,496.5,139.0,483.5,143.5,485.5,152.5,486.5,165.0,497.0,161.5,481.5" stroke="yellow" stroke-width="2" fill="none" />
<polyline points="" stroke="yellow" stroke-width="4" fill="none" />
<polyline points="172.0,507.5,163.0,506.0,146.5,494.0,148.0,487.0,149.0,497.5,143.5,491.0,134.5,481.5,134.5,472.0,135.0,480.0,139.5,476.0,144.0,478.0,148.5,475.5" stroke="green" stroke-width="1" fill="none" />
<polyline points="146.0,510.5,159.5,508.0,160.5,511.0,161.5,513.5,158.0,511.5" stroke="yellow" stroke-width="3" fill="none" />
<polyline points="145.5,507.0,145.0,515.5,150.5,509.0,150.5,507.5" stroke="yellow" stroke-width="1" fill="none" />
<polyline points="" stroke="orange" stroke-width="4" fill="none" />
<polyline points="" stroke="green" stroke-width="1" fill="none" />
<polyline points="148.0,480.5,148.0,479.0" stroke="green" stroke-width="4" fill="none" />
<polyline points="153.0,490.5,151.5,486.5,147.0,486.5,144.5,494.0,150.5,496.0,149.5,495.5,152.0,497.5,156.5,502.0,147.0,500.5,148.0,503.0,152.0,504.0,153.0,505.0" stroke="black" stroke-width="4" fill="none" />
<polyline points="145.0,500.0,143.0,489.5,149.0,490.5,144.0,491.0,143.0,487.5,140.5,490.5" stroke="green" stroke-width="1" fill="none" />
<polyline points="144.0,497.5,142.5,495.5,135.5,502.5,143.5,503.0" stroke="green" stroke-width="1" fill="none" />
<polyline points="" stroke="black" stroke-width="4" fill="none" />
<polyline points="137.5,489.0,141.0,501.0,150.5,501.0,150.0,500.0,145.5,504.0,145.5,505.0" stroke="green" stroke-width="4" fill="none" />
<polyline points="134.5,499.0,137.5,495.0,146.5,492.5,135.0,480.0,135.0,486.0,133.5,488.0" stroke="green" stroke-width="1" fill="none" />
<polyline points="143.5,493.0,143.0,497.0,145.0,491.0,134.5,501.5,136.5,504.0,133.0,501.0,149.0,509.0,145.0,510.0,145.0,508.0" stroke="black" stroke-width="4" fill="none" />
<polyline points="132.0,502.5,127.5,501.5,135.0,500.0,133.5,500.5" stroke="black" stroke-width="2" fill="none" />
<polyline points="125.5,512.0,126.5,521.0,120.0,517.0" stroke="black" stroke-width="1" fill="none" />
<polyline points="111.5,514.0,108.5,510.5,116.0,511.5,116.0,510.0,129.0,510.0,136.0,512.5,127.5,498.0,128.5,498.5" stroke="yellow" stroke-width="1" fill="none" />
<polyline points="" stroke="yellow" stroke-width="2" fill="none" />
<polyline points="" stroke="black" stroke-width="1" fill="none" />
<polyline points="" stroke="black" stroke-width="3" fill="none" />
<polyline points="137.5,492.0,146.0,488.5,126.5,498.0,142.5,504.5,141.5,513.5,144.5,500.0,151.5,503.0,152.0,498.5" stroke="orange" stroke-width="3" fill="none" />
<polyline points="" stroke="green" stroke-width="2" fill="none" />
<polyline points="" stroke="orange" stroke-width="4" fill="none" />
<polyline points="173.5,495.0,173.5,492.0" stroke="yellow" stroke-width="3" fill="none" />
<polyline points="166.5,482.0,164.5,480.5,164.0,477.0,169.0,473.5,165.5,483.5,160.0,471.5,161.0,480.0,171.0,483.0,173.0,486.5,170.0,485.5,173.0,489.5" stroke="yellow" stroke-width="4" fill="none" />
<polyline points="163.5,487.5,157.0,488.5,170.5,485.5,165.0,489.0,169.0,489.5,171.0,489.5" stroke="yellow" stroke-width="3" fill="none" />
<polyline points="204.5,490.5,205.5,486.5,212.0,489.0,219.5,482.5,222.5,476.0,224.0,480.5,231.0,467.5,228.0,465.5,226.0,466.5" stroke="green" stroke-width="4" fill="none" />
<polyline points="" stroke="yellow" stroke-width="1" fill="none" />
<polyline points="231.5,482.0,232.5,474.5,223.5,471.5,236.0,468.0,234.0,467.0,232.5,451.5,233.0,446.0,237.5,445.0,233.0,446.5,243.5,439.5,245.5,437.5,234.5,427.0,234.5,422.0,233.5,428.0,229.0,420.0,230.5,420.0" stroke="black" stroke-width="3" fill="none" />
<polyline points="205.5,402.5,211.0,405.0,210.5,404.5,203.5,407.0,202.0,405.0" stroke="orange" stroke-width="2" fill="none" />
<polyline points="" stroke="black" stroke-width="1" fill="none" />
<polyline points="244.5,431.0,234.0,429.5,234.5,433.5,239.5,447.0,235.0,443.5,232.5,450.5,236.0,462.0,225.5,451.5,227.0,466.0,244.0,469.0,228.0,465.0,226.5,468.5,227.5,487.5,221.5,478.5,206.0,482.0,205.0,500.5,208.5,498.0" stroke="yellow" stroke-width="2" fill="none" />
<polyline points="220.5,490.0,213.0,493.5,218.5,490.5,225.5,474.0,223.0,480.5,229.5,477.5,220.5,480.0,228.0,468.0,223.5,467.0" stroke="orange" stroke-width="2" fill="none" />
<polyline points="202.5,449.5,213.5,444.5,206.0,454.0,210.0,456.5" stroke="black" stroke-width="4" fill="none" />
<polyline points="191.5,449.0,179.0,445.5,169.5,449.5,173.5,455.5,165.5,459.5,173.0,436.5,174.0,434.0,179.5,441.5,174.0,436.5,170.0,428.0,190.5,422.5,172.5,424.5,175.5,421.5,180.0,418.0,178.0,405.5,169.0,406.5,176.5,403.0,162.0,402.5,160.5,384.5,160.0,384.5,156.5,388.0,163.5,387.0,166.0,385.5" stroke="orange" stroke-width="4" fill="none" />
<polyline points="165.0,373.5,161.5,352.0,160.5,367.0,163.5,354.5,177.5,347.5,181.0,339.0,186.0,341.0,196.5,330.0,191.5,327.5" stroke="orange" stroke-width="2" fill="none" />
<polyline points="" stroke="orange" stroke-width="1" fill="none" />
<polyline points="192.0,326.0,187.5,314.5,179.0,325.5,188.0,314.0,194.5,299.0,202.0,282.0,206.0,290.0,208.0,272.5,214.5,274.5,216.5,265.0,218.0,261.5,217.0,251.0,225.0,245.0,224.5,239.0,242.5,237.0,241.0,232.0,242.0,231.5,237.0,214.5,238.0,214.0,245.0,219.0" stroke="yellow" stroke-width="4" fill="none" />
<polyline points="" stroke="yellow" stroke-width="4" fill="none" />
<polyline points="" stroke="green" stroke-width="3" fill="none" />
<polyline points="265.5,233.0,253.5,227.0,261.5,236.5,253.0,221.0,259.5,219.5,252.0,234.5,246.0,237.5,231.5,248.5,236.5,240.0,225.5,251.5,233.0,259.5,223.5,266.5,213.0,272.5,216.0,282.5,224.5,291.5,208.0,289.0,205.5,270.5,214.0,274.5,221.5,271.0,236.0,271.0,225.5,258.5,238.0,261.0,230.5,249.5,231.5,251.0,240.0,241.0,227.5,250.5,246.0,237.5,251.0,239.5,251.0,228.5,258.0,221.5,252.0,221.5,269.0,217.0,265.5,215.0,255.5,218.5,253.5,204.5,265.0,215.0,269.0,210.5,272.0,205.0,270.0,191.5,264.0,187.0,261.5,193.0,258.5,200.0,253.0,207.5" stroke="green" stroke-width="2" fill="none" />
<polyline points="243.5,194.5,248.5,199.0,247.0,198.5,248.5,196.5,249.5,194.5" stroke="orange" stroke-width="2" fill="none" />
<polyline points="252.5,221.0,249.5,239.0,243.5,226.5,234.5,230.5,246.5,244.0,225.5,228.5,227.5,243.0,234.0,238.0,223.0,222.0,224.0,230.5,240.0,218.0,227.0,222.0,226.5,210.5,224.5,227.0,232.0,210.5" stroke="black" stroke-width="2" fill="none" />
<polyline points="246.5,203.0,231.0,213.0,242.0,213.0,236.5,207.5,237.0,209.5,238.5,211.5,238.0,214.0" stroke="green" stroke-width="4" fill="none" />
<polyline points="241.5,203.5,236.5,198.0,240.0,200.0,241.5,202.5,239.0,197.0" stroke="black" stroke-width="2" fill="none" />
<polyline points="243.5,191.0,240.0,197.0,239.5,207.5" stroke="black" stroke-width="1" fill="none" />
<polyline points="247.0,193.5,249.5,178.5,264.0,192.5,247.0,188.0,245.0,197.0,250.0,191.0,248.5,183.0,252.5,174.0,248.0,172.0,261.0,181.0,263.0,183.5,275.0,176.0,261.0,178.0,264.0,166.5,264.5,171.5,260.0,169.0,256.0,173.5" stroke="yellow" stroke-width="2" fill="none" />
<polyline points="279.0,183.0,260.0,179.5,271.0,186.5,247.5,193.0,247.0,194.0,249.5,204.5,256.5,204.5,256.0,196.5,263.0,210.5,261.0,198.0,266.0,189.0,265.5,189.5,274.0,187.5,274.5,187.0" stroke="black" stroke-width="2" fill="none" />
<polyline points="256.0,188.0,255.0,205.5,254.0,202.0,256.5,201.0,270.0,205.0,268.5,207.0,262.0,201.5,259.5,201.5,261.5,204.0,264.5,204.0" stroke="green" stroke-width="4" fill="none" />
<polyline points="263.5,196.5,259.0,200.0,256.5,195.0" stroke="orange" stroke-width="4" fill="none" />
<polyline points="256.5,199.0,262.0,207.0,261.5,199.0,260.5,208.5,257.0,222.5,251.0,227.5,247.0,226.5,251.5,228.0,243.0,228.5,240.0,234.0,227.0,244.0,238.0,248.5,234.5,246.0,234.5,243.0,242.0,249.5" stroke="orange" stroke-width="1" fill="none" />
<polyline points="" stroke="orange" stroke-width="2" fill="none" />
<polyline points="230.0,215.5,230.0,213.5" stroke="black" stroke-width="1" fill="none" />
<polyline points="" stroke="green" stroke-width="2" fill="none" />
<polyline points="" stroke="orange" stroke-width="1" fill="none" />
<polyline points="228.0,236.0,227.0,236.5,216.5,249.5,220.0,257.0,216.5,248.0,226.5,253.5" stroke="yellow" stroke-width="3" fill="none" />
<polyline points="224.0,237.0,223.5,234.0,223.5,231.0,221.0,228.5" stroke="black" stroke-width="4" fill="none" />
<polyline points="224.0,208.5,216.5,218.0,216.0,225.0,217.5,224.5,219.5,237.0,222.5,239.5,229.5,221.0,226.5,225.0,227.5,221.0,231.0,222.5" stroke="orange" stroke-width="3" fill="none" />
<polyline points="219.0,256.0,227.5,260.0,223.5,258.0,224.5,257.0,200.0,262.5,213.0,270.0,190.0,284.0,206.5,280.0,213.0,289.0,199.0,317.0,187.5,313.0,187.0,311.0,189.0,322.5,172.0,339.0,182.5,328.5,163.0,320.5,160.0,325.0,162.0,340.5,144.0,335.0,159.0,340.0,142.5,349.5,143.5,351.0" stroke="yellow" stroke-width="1" fill="none" />
<polyline points="142.0,346.0,140.5,349.0,143.5,339.0,138.0,339.5,140.0,341.0" stroke="black" stroke-width="1" fill="none" />
<polyline points="" stroke="black" stroke-width="3" fill="none" />
<polyline points="148.5,349.5,147.5,350.0" stroke="orange" stroke-width="2" fill="none" />
<polyline points="130.0,339.0,138.0,345.0,133.0,341.0,144.0,347.0,134.0,336.0,126.5,336.5,124.5,328.5,129.0,324.0,131.5,317.5,123.0,312.0,121.0,310.0,114.5,296.0,129.0,304.5,125.0,302.0" stroke="orange" stroke-width="1" fill="none" />
<polyline points="136.0,299.5,135.0,300.0" stroke="orange" stroke-width="2" fill="none" />
<polyline points="" stroke="black" stroke-width="3" fill="none" />
<polyline points="133.5,289.0,138.0,291.0,132.5,296.0" stroke="green" stroke-width="3" fill="none" />
<polyline points="" stroke="orange" stroke-width="1" fill="none" />
<polyline points="127.5,283.5,125.5,279.5,140.0,275.5,142.0,274.0,153.5,274.0,152.5,269.5,162.0,266.5,158.0,258.5,160.5,262.5,158.0,257.0,155.5,260.5,159.5,256.0" stroke="black" stroke-width="4" fill="none" />
<polyline points="" stroke="yellow" stroke-width="4" fill="none" />
<polyline points="151.5,265.0,150.5,271.5,160.5,268.5,167.5,265.0,164.5,267.5" stroke="green" stroke-width="4" fill="none" />
<polyline points="174.0,266.5,174.5,266.0,171.5,253.5,168.5,257.5,168.0,249.5,170.0,271.5,177.5,271.5" stroke="orange" stroke-width="4" fill="none" />
<polyline points="157.5,250.5,172.0,256.0,171.0,248.5,175.0,256.0,167.5,257.0,166.0,256.5" stroke="orange" stroke-width="2" fill="none" />
<polyline points="175.0,265.5,180.0,264.5,176.0,258.5,183.0,267.5,178.5,270.0" stroke="orange" stroke-width="3" fill="none" />
<polyline points="" stroke="orange" stroke-width="4" fill="none" />
<polyline points="" stroke="black" stroke-width="4" fill="none" />
<polyline points="" stroke="orange" stroke-width="3" fill="none" />
<polyline points="171.0,248.5,173.0,257.5,176.0,258.0,175.0,254.5,169.0,255.0,170.0,259.0,170.0,262.5" stroke="black" stroke-width="1" fill="none" />
<polyline points="187.5,255.0,183.5,252.0,185.5,256.5,184.0,265.5,182.5,265.0,182.0,260.5" stroke="green" stroke-width="3" fill="none" />
<polyline points="" stroke="orange" stroke-width="2" fill="none" />
<polyline points="207.5,237.5,209.5,243.5,209.5,242.0,202.5,227.5,212.0,232.0,205.0,245.0,211.5,239.5,208.0,232.5,213.5,232.5,209.5,242.0" stroke="orange" stroke-width="3" fill="none" />
<polyline points="205.0,238.5,208.5,230.0,209.0,232.5,209.5,238.5" stroke="green" stroke-width="4" fill="none" />
<polyline points="" stroke="green" stroke-width="1" fill="none" />
<polyline points="210.5,246.5,213.0,243.5,207.0,239.0,213.0,235.0,212.5,236.5" stroke="black" stroke-width="2" fill="none" />
<polyline points="205.5,233.0,206.0,247.0,208.5,239.5,207.5,248.5,205.0,246.5" stroke="orange" stroke-width="3" fill="none" />
<polyline points="220.5,242.5,213.0,243.5,227.0,265.0,207.0,249.0,208.0,254.5,213.5,262.5,213.0,261.5,215.0,263.5" stroke="black" stroke-width="2" fill="none" />
<polyline points="214.5,257.0,208.5,258.0,210.5,254.5" stroke="black" stroke-width="1" fill="none" />
<polyline points="202.5,247.0,206.5,243.5,199.5,249.0" stroke="yellow" stroke-width="2" fill="none" />
<polyline points="197.0,262.5,199.0,254.0,195.0,261.5,197.5,260.0" stroke="black" stroke-width="1" fill="none" />
<polyline points="175.5,267.0,175.0,273.5,177.5,269.0,182.0,266.0,179.0,254.5,172.5,266.5,182.0,238.0,192.0,258.5,192.0,240.5,179.5,247.5,198.5,230.5,171.0,253.0,178.0,244.0,179.0,258.5" stroke="yellow" stroke-width="2" fill="none" />
<polyline points="177.0,238.5,193.5,231.5,193.5,224.0,191.0,218.5,194.0,209.0,192.0,235.5" stroke="black" stroke-width="2" fill="none" />
<polyline points="195.0,215.0,197.0,213.5,188.0,222.5,190.0,222.0,179.0,226.0,178.0,235.5,195.0,230.0,189.5,234.5,192.0,234.0" stroke="orange" stroke-width="1" fill="none" />
<polyline points="" stroke="green" stroke-width="4" fill="none" />
<polyline points="189.0,229.5,190.0,238.0,196.5,238.0,199.5,235.5,202.5,231.0,200.0,235.5,194.0,235.0" stroke="black" stroke-width="4" fill="none" />
<polyline points="" stroke="green" stroke-width="2" fill="none" />
<polyline points="209.5,213.0,201.5,215.0,205.5,219.0,205.5,213.5" stroke="orange" stroke-width="3" fill="none" />
<polyline points="224.0,215.0,218.0,217.5,223.5,217.5" stroke="green" stroke-width="3" fill="none" />
<polyline points="231.0,207.0,232.5,202.0,221.0,196.5,231.0,206.5,222.0,201.0,210.0,206.0,225.5,221.0,222.0,212.5,221.0,213.5,225.5,231.0,234.5,244.0,231.0,237.5,232.5,239.5,234.0,241.0,231.0,252.0,226.5,251.5,228.0,247.5,230.0,267.5,225.0,271.0,219.0,262.0,219.5,253.5,211.0,268.5,212.0,284.0,220.0,280.5,197.5,270.0,203.5,281.0,212.0,297.0,202.5,300.0,196.0,291.0,185.0,300.0,179.5,309.0,204.5,319.0,192.0,320.0,191.5,329.5,193.5,331.5,196.5,323.5,206.5,310.0,213.5,303.0,216.5,315.0,215.5,305.0,212.5,283.0,212.5,284.0,234.0,286.0,226.5,280.0,235.0,276.5,242.5,268.5,243.0,264.0,253.0,264.5,250.5,260.5,257.5,254.0,259.5,264.5,265.0,254.0,268.0,243.0,288.0,248.0,271.0,242.0,269.0,253.5,288.5,245.0,277.5,250.5,300.0,257.5,290.0,246.0,300.5,254.0,295.5,253.0,297.5,245.0,297.0,250.5" stroke="black" stroke-width="1" fill="none" />
<polyline points="293.5,259.5,286.5,260.0,290.0,250.5,285.5,256.0,280.0,253.0" stroke="green" stroke-width="2" fill="none" />
<polyline points="" stroke="black" stroke-width="4" fill="none" />
<polyline points="284.5,263.0,283.5,267.0,289.0,267.5,285.5,270.0,290.0,268.5,295.5,264.5" stroke="orange" stroke-width="3" fill="none" />
<polyline points="" stroke="black" stroke-width="3" fill="none" />
<polyline points="275.0,274.0,272.0,272.0,268.0,270.5" stroke="black" stroke-width="2" fill="none" />
<polyline points="275.0,261.0,272.5,270.5,272.5,269.0,273.0,263.0,271.5,270.0,270.5,269.0" stroke="green" stroke-width="4" fill="none" />
<polyline points="" stroke="green" stroke-width="1" fill="none" />
<polyline points="259.0,262.5,262.5,256.0" stroke="orange" stroke-width="4" fill="none" />
<polyline points="280.0,273.0,274.0,268.5,275.0,269.0,267.5,277.0,281.5,267.0,265.5,285.0,280.0,285.0,270.0,283.5,278.0,282.0,270.0,283.5" stroke="green" stroke-width="1" fill="none" />
<polyline points="257.0,271.0,254.5,276.0,261.0,278.5,256.0,279.5" stroke="green" stroke-width="2" fill="none" />
<polyline points="" stroke="black" stroke-width="1" fill="none" />
<polyline points="252.0,268.0,249.5,263.0,240.5,258.0,240.5,261.0" stroke="black" stroke-width="1" fill="none" />
<polyline points="250.0,266.0,263.5,261.5,251.5,261.0,245.0,275.0,255.0,264.5,252.5,279.5,271.0,272.0,267.5,267.5,276.5,269.5,273.0,277.5,277.0,269.5,282.5,272.0,279.5,269.0,279.0,282.5,279.0,283.0,286.0,287.0,287.0,287.0,291.0,288.5" stroke="black" stroke-width="2" fill="none" />
<polyline points="282.0,245.0" stroke="black" stroke-width="4" fill="none" />
<polyline points="" stroke="green" stroke-width="2" fill="none" />
<polyline points="" stroke="yellow" stroke-width="3" fill="none" />
<polyline points="262.5,254.5,273.0,252.0,280.5,259.0,254.0,247.5,264.0,262.5,243.5,254.5,253.0,257.5,251.5,255.0,248.5,257.5" stroke="orange" stroke-width="4" fill="none" />
<polyline points="254.5,277.0,255.5,274.0,251.5,272.5,265.0,281.0,258.5,274.0,267.0,264.5,263.0,273.5,260.0,288.5,269.5,272.5" stroke="green" stroke-width="4" fill="none" />
<polyline points="277.5,269.5,283.0,270.0,283.0,277.5,283.5,272.0,286.5,288.5,288.0,287.0" stroke="green" stroke-width="2" fill="none" />
<polyline points="295.0,259.5,293.0,257.5,295.0,261.0" stroke="black" stroke-width="2" fill="none" />
<polyline points="267.0,243.5,270.0,244.0,272.0,265.5,273.5,252.5,250.5,249.5,270.0,248.5,241.5,269.0,245.0,266.5,245.0,273.5,238.5,267.5,241.0,285.5,224.5,278.5,227.0,280.5,219.5,299.5,219.5,306.0,212.0,301.0,216.0,301.5,209.0,295.0,215.5,301.5,211.0,317.0,200.0,317.5,195.0,326.5,191.5,327.0,194.5,329.5,183.0,335.5,189.0,351.0,193.5,341.5,186.5,341.5,182.0,353.0,181.5,363.5,179.5,355.0,180.0,359.0,164.0,366.0,165.0,368.5,161.0,370.0,159.5,372.0,160.5,385.0,144.5,395.0,165.5,397.5,156.0,397.0,153.0,397.0" stroke="orange" stroke-width="1" fill="none" />
<polyline points="177.5,409.0,179.0,405.0,186.0,410.0,178.0,406.0,170.5,392.5,155.5,402.0,153.0,393.0,159.5,386.5,160.5,398.5,156.0,387.5,155.5,390.5" stroke="orange" stroke-width="4" fill="none" />
<polyline points="" stroke="black" stroke-width="3" fill="none" />
<polyline points="151.5,385.0" stroke="black" stroke-width="1" fill="none" />
<polyline points="140.5,371.0,140.0,375.0,146.0,372.0,138.5,383.5,138.5,373.5,137.0,373.5,139.0,375.5,139.5,378.0" stroke="black" stroke-width="3" fill="none" />
<polyline points="145.5,398.0,138.0,401.5,132.5,396.5,135.0,406.0,132.0,408.5,129.0,414.0,127.0,422.0,142.0,408.5,132.5,429.0,142.5,428.0,139.5,436.5,130.5,434.5,135.0,454.0,133.0,447.5,133.0,453.0,139.0,451.0,129.0,461.0,137.0,460.5,148.0,464.0,148.0,469.5,144.5,475.0,147.5,472.5,148.5,479.0,156.0,478.5" stroke="yellow" stroke-width="4" fill="none" />
<polyline points="" stroke="black" stroke-width="3" fill="none" />
<polyline points="169.0,456.0,173.5,454.0,176.0,454.0,156.0,441.5,161.5,439.0,167.5,441.5,159.0,434.5,148.5,432.5,155.0,424.5,156.5,419.5,159.0,422.5,160.5,421.0" stroke="yellow" stroke-width="3" fill="none" />
<polyline points="172.0,426.5,158.5,430.5,164.0,434.0,162.0,432.5,160.5,431.5" stroke="green" stroke-width="1" fill="none" />
<polyline points="164.0,430.0,151.0,421.0,163.5,439.0,164.5,416.5,162.5,415.0,157.0,405.5,162.0,416.5,157.5,413.5,160.5,404.5,159.0,405.0,153.0,403.0,155.0,399.0,152.5,385.5,159.0,375.5,153.0,376.5,156.5,386.5,149.0,365.0,137.0,369.0" stroke="yellow" stroke-width="3" fill="none" />
<polyline points="151.0,368.0,140.0,368.0,155.0,376.0,149.5,369.5,153.0,368.0,154.0,382.0,155.5,387.0,158.5,390.0,158.5,383.5,153.0,392.5,154.0,401.5,157.0,398.5,170.5,415.0,169.0,411.5" stroke="yellow" stroke-width="3" fill="none" />
<polyline points="176.5,434.0,175.0,433.5,171.0,437.0,172.0,444.0,171.5,441.5,175.0,462.0,177.5,453.0,175.0,457.0,181.5,462.5,164.0,457.5,173.0,468.0,174.0,468.5,174.0,469.5,165.5,479.5" stroke="green" stroke-width="1" fill="none" />
<polyline points="171.0,443.5,154.0,442.5,166.0,448.5,164.0,443.5,166.0,441.0,165.5,442.5,165.5,445.0" stroke="black" stroke-width="2" fill="none" />
<polyline points="171.0,460.0,169.0,454.0,167.0,466.0,160.5,461.0,171.0,484.0,171.5,481.5,166.0,478.5,159.0,489.0,155.0,487.5,175.0,498.0,161.5,500.0,164.0,503.5,174.0,503.5,173.5,507.0,181.5,508.0,178.0,527.5,177.5,517.5,173.0,521.0" stroke="yellow" stroke-width="1" fill="none" />
<polyline points="" stroke="green" stroke-width="3" fill="none" />
<polyline points="" stroke="green" stroke-width="1" fill="none" />
<polyline points="150.5,453.5,154.0,461.0,147.0,454.5,151.5,457.0" stroke="yellow" stroke-width="1" fill="none" />
<polyline points="149.0,456.5,150.5,449.0,144.0,454.5,146.0,439.5,140.5,442.5,145.5,428.0,147.0,442.5,137.0,432.5,134.5,421.0,133.5,434.5,124.5,425.5,133.0,431.5,138.5,419.5" stroke="green" stroke-width="1" fill="none" />
<polyline points="" stroke="yellow" stroke-width="2" fill="none" />
<polyline points="" stroke="green" stroke-width="4" fill="none" />
<polyline points="140.0,400.0,144.5,405.0,142.0,398.0,144.5,404.0,147.5,407.5,158.0,420.5,157.5,410.0" stroke="black" stroke-width="2" fill="none" />
<polyline points="165.5,416.0,158.5,419.0,151.5,412.0,157.0,412.5,153.0,426.5,161.5,429.0,147.5,434.0,161.0,433.5,147.5,440.0,151.5,437.0,160.0,438.5,155.5,440.5" stroke="orange" stroke-width="4" fill="none" />
<polyline points="175.0,449.5,170.0,448.0,177.0,439.0,184.5,434.5,176.0,430.0,177.0,434.5" stroke="black" stroke-width="2" fill="none" />
<polyline points="181.0,408.5,180.5,418.0,172.5,417.5,172.0,409.5,162.5,396.0,176.0,393.5,171.5,389.0,171.0,386.0" stroke="black" stroke-width="4" fill="none" />
<polyline points="158.0,416.5,173.5,424.0,162.5,422.5,165.5,428.5,167.5,436.0,173.5,427.0,162.5,437.5,163.5,440.5,156.5,427.0,164.5,428.0,162.0,422.0" stroke="orange" stroke-width="3" fill="none" />
<polyline points="172.0,433.0,171.5,431.0" stroke="orange" stroke-width="2" fill="none" />
<polyline points="150.5,458.0" stroke="green" stroke-width="4" fill="none" />
<polyline points="169.5,465.0,173.5,453.5,164.0,453.0,161.5,446.0,173.5,446.0,171.5,451.0,168.0,447.5,166.5,451.0,168.5,447.5" stroke="orange" stroke-width="3" fill="none" />
<polyline points="146.5,435.5,141.5,451.5,134.5,458.5,129.5,459.5,136.0,452.0,134.0,453.5,138.0,454.5" stroke="orange" stroke-width="1" fill="none" />
<polyline points="152.0,468.5,165.5,461.0,161.5,461.5,160.0,449.0,165.0,459.0,166.0,461.0" stroke="orange" stroke-width="1" fill="none" />
<polyline points="140.0,446.5,140.5,439.5,143.5,442.5" stroke="black" stroke-width="2" fill="none" />
<polyline points="160.0,459.0,162.5,458.0,158.0,464.5,158.5,464.5,153.0,475.0,153.0,472.0,147.5,475.5,162.5,491.5,161.0,477.5,174.5,480.5,168.0,476.0,161.5,480.0,154.0,480.5,150.0,476.0" stroke="black" stroke-width="2" fill="none" />
<polyline points="149.5,472.0,147.5,475.0,144.5,470.0" stroke="black" stroke-width="3" fill="none" />
<polyline points="159.5,477.5,159.0,477.0,154.0,483.5" stroke="yellow" stroke-width="2" fill="none" />
<polyline points="150.5,471.0,153.0,475.0,137.5,470.5,132.5,464.5" stroke="orange" stroke-width="2" fill="none" />
<polyline points="152.0,463.0,141.0,466.5,146.5,479.0,152.0,470.0,150.5,480.0,161.0,486.0,165.0,492.5,163.5,496.0" stroke="black" stroke-width="1" fill="none" />
<polyline points="167.5,475.5,172.5,477.0,154.5,472.0,162.0,470.0,158.5,475.5,168.5,467.5,158.5,468.5,169.0,474.5,155.5,475.0" stroke="orange" stroke-width="1" fill="none" />
<polyline points="139.5,466.0,150.5,462.0,161.0,469.5,150.0,478.0,160.5,487.5,156.0,484.0,157.0,484.0,167.0,490.0,158.0,496.5,162.0,495.5,170.5,508.5,176.5,513.5,160.0,518.0,173.0,513.5,171.5,513.5,176.0,515.0" stroke="green" stroke-width="2" fill="none" />
<polyline points="158.5,450.0,152.5,444.0,164.0,455.5,151.0,434.5,156.0,441.5,144.5,431.5,151.5,442.0,129.5,420.5,138.0,426.5,150.5,427.0,148.5,420.5,142.5,419.0,136.0,415.5" stroke="yellow" stroke-width="4" fill="none" />
<polyline points="" stroke="black" stroke-width="1" fill="none" />
<polyline points="130.0,426.0,136.0,430.5,138.5,430.0" stroke="orange" stroke-width="2" fill="none" />
<polyline points="139.0,419.0,131.0,411.5,139.0,414.0" stroke="black" stroke-width="3" fill="none" />
<polyline points="144.5,409.5,147.0,411.0,143.5,414.0,144.0,424.0,155.5,424.5,149.5,421.5,147.5,413.5,148.5,416.5" stroke="black" stroke-width="2" fill="none" />
<polyline points="151.0,420.0,154.0,413.5,140.0,411.5,144.0,399.5,145.0,402.5,149.5,407.0,155.0,395.5,151.5,400.0" stroke="yellow" stroke-width="4" fill="none" />
<polyline points="" stroke="green" stroke-width="2" fill="none" />
<polyline points="151.0,396.0,159.5,381.5,161.0,391.0,162.5,388.5" stroke="yellow" stroke-width="2" fill="none" />
<polyline points="141.0,397.5,131.0,403.5,131.0,397.5,126.5,405.5,120.5,390.0" stroke="black" stroke-width="2" fill="none" />
<polyline points="128.5,401.5,124.5,390.5,117.5,395.5,115.0,392.5,118.0,401.0,111.0,397.5,118.5,396.5" stroke="black" stroke-width="4" fill="none" />
<polyline points="135.0,395.5,130.5,379.0,152.5,382.5,153.0,382.0,141.0,388.5,136.5,369.5,145.0,369.5,143.5,353.5,139.5,359.0,136.0,366.5,145.0,352.5,144.5,351.0,139.0,350.0,132.0,348.0,134.5,352.0,130.5,339.5,136.5,334.5,141.0,329.5,132.0,322.0,127.0,321.0,123.5,315.5,135.5,310.0,128.0,306.5,127.5,304.5,118.5,301.0,128.5,300.0,133.5,291.5" stroke="orange" stroke-width="3" fill="none" />
<polyline points="126.0,285.0,127.5,285.0,130.5,274.0,129.0,283.5,126.5,279.0,116.5,289.5,119.0,294.0,124.0,307.0,127.0,300.0,121.0,305.0,128.0,311.5,123.5,305.5,126.0,321.0,114.0,333.0,123.5,322.5,118.0,339.5,114.0,335.0,114.5,325.0,112.0,328.5,123.0,337.5,115.0,334.0,114.5,335.5" stroke="green" stroke-width="2" fill="none" />
<polyline points="120.0,338.5,116.5,333.0,115.5,343.0,105.5,341.5,109.5,340.0" stroke="black" stroke-width="3" fill="none" />
<polyline points="118.0,352.5,117.5,366.5,126.0,355.5,118.5,358.0,127.0,370.0,123.5,370.5,113.0,379.5,115.0,387.5,118.5,387.0,120.5,396.5,123.5,387.5,123.5,408.0" stroke="yellow" stroke-width="3" fill="none" />
<polyline points="123.0,387.0,118.5,396.5,117.5,388.0,121.0,371.0,122.5,376.5,135.0,374.5,134.5,371.5,125.5,368.0,122.0,369.5,122.0,368.0,121.5,367.5" stroke="orange" stroke-width="4" fill="none" />
<polyline points="119.0,384.5,125.0,378.0,126.0,378.5" stroke="green" stroke-width="2" fill="none" />
<polyline points="" stroke="orange" stroke-width="3" fill="none" />
<polyline points="" stroke="black" stroke-width="3" fill="none" />
<polyline points="134.5,393.0,120.0,389.5,130.0,379.0,126.0,393.5,126.5,385.5,131.0,397.5,132.5,392.5,128.0,388.0,131.0,388.0" stroke="green" stroke-width="1" fill="none" />
<polyline points="110.0,400.0,112.0,392.5,111.0,396.5" stroke="orange" stroke-width="1" fill="none" />
<polyline points="126.0,417.5,123.5,408.5,126.0,412.5,128.0,401.0" stroke="orange" stroke-width="3" fill="none" />
<polyline points="136.5,415.0,141.0,421.5,142.0,420.5,140.0,424.5" stroke="yellow" stroke-width="4" fill="none" />
<polyline points="" stroke="black" stroke-width="2" fill="none" />
<polyline points="" stroke="yellow" stroke-width="3" fill="none" />
<polyline points="" stroke="orange" stroke-width="3" fill="none" />
<polyline points="" stroke="orange" stroke-width="4" fill="none" />
<polyline points="" stroke="yellow" stroke-width="4" fill="none" />
<polyline points="162.0,395.0,171.0,399.5,177.5,397.0,179.0,403.0,189.0,398.5,179.5,409.5,171.5,409.5,185.5,407.5,187.5,417.0,187.0,414.0,186.0,414.5" stroke="black" stroke-width="1" fill="none" />
<polyline points="174.5,413.5,165.0,409.5,167.5,413.5,161.5,399.0,145.5,410.0,160.5,399.0,155.5,383.0,144.5,385.5,142.5,376.0,140.5,388.5,129.0,378.5,128.0,380.5,144.5,378.0,133.0,366.0,141.5,371.0,135.0,356.5,129.0,370.5,140.0,356.5,142.5,358.5,147.5,358.5,136.5,353.0,143.0,345.0,126.0,330.5,133.0,332.0,126.0,330.0,133.0,327.5,131.0,322.5,132.0,323.5,135.5,313.5,131.5,309.0,132.5,316.0" stroke="orange" stroke-width="2" fill="none" />
<polyline points="118.5,321.5,120.0,332.5,105.5,339.5,114.0,345.0,121.5,332.0,124.0,340.0,122.0,339.0,125.5,333.5" stroke="black" stroke-width="1" fill="none" />
<polyline points="126.5,364.5,126.5,364.5,130.5,364.0,121.5,376.0,136.5,379.5,134.5,377.0" stroke="green" stroke-width="2" fill="none" />
<polyline points="" stroke="yellow" stroke-width="4" fill="none" />
<polyline points="" stroke="green" stroke-width="3" fill="none" />
<polyline points="131.0,356.5" stroke="green" stroke-width="2" fill="none" />
<polyline points="" stroke="yellow" stroke-width="2" fill="none" />
<polyline points="127.5,353.0,124.5,359.0,134.0,361.0,135.0,359.5,149.0,363.5,141.5,363.0,143.0,356.5" stroke="green" stroke-width="4" fill="none" />
<polyline points="140.5,360.5,144.0,355.5,140.5,346.5,138.0,346.5,131.0,339.0,128.5,341.0,127.5,331.5,125.0,339.0,123.0,332.0" stroke="black" stroke-width="3" fill="none" />
<polyline points="107.0,337.0,112.5,338.0,129.0,349.5,123.0,340.5,123.5,344.0,131.5,336.0,133.5,338.5,138.5,338.5,140.0,344.5" stroke="orange" stroke-width="1" fill="none" />
<polyline points="135.5,329.0,145.0,339.0,145.0,331.5,142.0,334.5" stroke="yellow" stroke-width="4" fill="none" />
<polyline points="131.0,350.0,144.0,353.0,143.5,351.5" stroke="green" stroke-width="1" fill="none" />
<polyline points="131.5,350.5,130.5,345.5,134.5,346.5,129.5,346.5,128.5,349.5" stroke="orange" stroke-width="4" fill="none" />
<polyline points="120.5,345.5,119.0,344.5,121.5,356.0,117.5,349.0,125.0,353.5,113.5,365.0,112.0,372.5,114.5,374.0,113.5,371.0,117.0,378.5,113.5,386.0,117.0,389.5,121.5,390.5,124.0,400.0,129.5,394.0,123.0,407.5" stroke="orange" stroke-width="3" fill="none" />
<polyline points="125.0,406.5,122.0,411.5,124.5,420.5" stroke="black" stroke-width="3" fill="none" />
<polyline points="" stroke="black" stroke-width="3" fill="none" />
<polyline points="117.5,412.5,117.0,420.5,110.5,424.5" stroke="yellow" stroke-width="4" fill="none" />
<polyline points="" stroke="orange" stroke-width="1" fill="none" />
<polyline points="126.5,457.5,130.5,456.5,126.0,447.0,126.5,454.5" stroke="black" stroke-width="3" fill="none" />
<polyline points="" stroke="green" stroke-width="2" fill="none" />
<polyline points="" stroke="yellow" stroke-width="2" fill="none" />
<polyline points="125.0,460.5,130.0,459.0,132.0,460.0,135.0,462.0" stroke="black" stroke-width="2" fill="none" />
<polyline points="" stroke="yellow" stroke-width="3" fill="none" />
<polyline points="102.0,438.0" stroke="orange" stroke-width="2" fill="none" />
<polyline points="81.0,459.5,86.0,463.5,100.5,461.5" stroke="black" stroke-width="1" fill="none" />
<polyline points="95.0,464.0,80.5,458.0,83.5,457.5,92.0,455.0" stroke="black" stroke-width="4" fill="none" />
<polyline points="" stroke="green" stroke-width="3" fill="none" />
<polyline points="" stroke="yellow" stroke-width="1" fill="none" />
<polyline points="118.5,514.5,117.5,514.0,112.0,502.0,113.5,489.0,106.0,487.5,120.0,497.0,116.0,491.0,111.5,492.0,114.0,494.5,114.5,495.5" stroke="orange" stroke-width="1" fill="none" />
<polyline points="124.0,498.5,113.5,489.0,103.5,503.5,113.5,510.0" stroke="green" stroke-width="4" fill="none" />
<polyline points="" stroke="black" stroke-width="3" fill="none" />
<polyline points="100.5,498.5,95.5,495.5,92.0,498.5" stroke="yellow" stroke-width="4" fill="none" />
<polyline points="120.5,495.0,126.0,505.0,120.5,501.5,124.0,484.5,126.5,479.0" stroke="yellow" stroke-width="3" fill="none" />
<polyline points="128.0,487.0,135.0,486.0,126.0,487.5,122.0,496.5,119.5,489.0,122.5,488.0,124.5,502.5,133.0,502.0,128.0,499.0,124.0,497.5,132.0,514.0,138.0,508.0,133.5,516.0,132.0,513.5,132.5,514.0,135.0,514.0,135.0,514.0,136.5,513.5" stroke="orange" stroke-width="3" fill="none" />
<polyline points="" stroke="black" stroke-width="2" fill="none" />
<polyline points="129.5,436.0,141.0,441.5,138.0,449.5,132.0,446.0,138.5,452.0,138.0,447.0,138.5,456.0,141.0,469.5,128.5,453.5,136.0,462.0,143.0,468.5,138.0,471.5,144.0,473.0,141.5,474.5" stroke="yellow" stroke-width="1" fill="none" />
<polyline points="135.5,418.5,137.5,436.5,139.0,424.5,135.0,429.0,145.0,431.0" stroke="black" stroke-width="4" fill="none" />
<polyline points="137.0,412.0,129.0,402.5,109.5,419.0,129.0,415.0,122.5,415.0" stroke="yellow" stroke-width="2" fill="none" />
<polyline points="108.5,423.0,118.0,420.0,108.0,421.5,112.0,417.5" stroke="black" stroke-width="2" fill="none" />
<polyline points="" stroke="black" stroke-width="1" fill="none" />
<polyline points="105.0,426.0,109.5,432.5,112.5,433.5,107.5,442.0,110.5,437.5,118.0,460.0,102.0,443.0,108.0,451.0,108.5,451.0" stroke="orange" stroke-width="1" fill="none" />
<polyline points="100.5,451.0,96.5,440.5,100.5,442.0,112.0,441.5,103.0,430.0,103.5,433.5,102.5,432.0,110.5,424.0,105.5,428.0,103.5,429.5,104.0,421.5,102.0,425.0,99.0,422.5" stroke="orange" stroke-width="4" fill="none" />
<polyline points="86.0,426.5" stroke="yellow" stroke-width="3" fill="none" />
<polyline points="94.0,421.5,81.0,407.0,80.0,417.0,85.5,422.5,85.5,418.0,82.0,418.0" stroke="black" stroke-width="4" fill="none" />
<polyline points="" stroke="orange" stroke-width="3" fill="none" />
<polyline points="" stroke="green" stroke-width="3" fill="none" />
<polyline points="88.0,400.0,87.0,394.5" stroke="black" stroke-width="4" fill="none" />
<polyline points="103.0,410.5,97.0,407.0,98.0,396.0,97.5,401.0,90.5,401.5,83.5,392.0,92.0,389.0,94.0,388.5,84.5,381.0,90.5,385.0,93.5,385.5" stroke="green" stroke-width="3" fill="none" />
<polyline points="75.0,400.5,78.0,403.0,75.5,409.5,79.0,413.5,68.0,416.5,69.0,419.0,64.0,416.5,71.0,416.5,76.5,430.5,69.5,438.5,55.5,429.0,68.5,439.5,71.0,440.0,65.5,436.0,71.5,445.0,75.0,450.0,80.0,455.5,75.0,458.5,65.5,466.5,70.5,456.0,65.5,471.5,69.0,476.0,65.5,484.5,66.5,484.5,77.5,488.0,62.0,499.5,75.0,498.0,64.0,500.5,66.0,505.0,60.5,509.5,63.5,511.0,74.0,506.0,63.0,498.5,65.5,500.0" stroke="green" stroke-width="3" fill="none" />
<polyline points="" stroke="green" stroke-width="2" fill="none" />
<polyline points="70.5,486.5" stroke="orange" stroke-width="4" fill="none" />
<polyline points="66.5,475.5,67.5,473.5,73.0,482.5,70.5,481.0" stroke="orange" stroke-width="3" fill="none" />
<polyline points="79.0,468.5,77.5,460.5,71.5,451.5,76.0,455.0,71.5,458.0,70.5,459.5,75.5,459.5,74.5,454.5" stroke="green" stroke-width="3" fill="none" />
<polyline points="" stroke="yellow" stroke-width="4" fill="none" />
<polyline points="" stroke="yellow" stroke-width="1" fill="none" />
<polyline points="60.5,457.0,71.0,464.0,70.0,475.5,79.0,476.0,76.5,481.5,70.0,490.0,74.5,479.5" stroke="orange" stroke-width="3" fill="none" />
<polyline points="" stroke="green" stroke-width="1" fill="none" />
<polyline points="12.0,510.0,21.0,504.5,16.0,503.0,17.5,504.0,21.0,495.5,21.0,502.0,19.5,493.0,23.0,492.5" stroke="orange" stroke-width="4" fill="none" />
<polyline points="12.5,511.0,15.0,506.0,24.5,514.5" stroke="black" stroke-width="1" fill="none" />
<polyline points="" stroke="green" stroke-width="3" fill="none" />
<polyline points="7.5,429.0,4.5,437.5,12.5,438.0,5.0,434.0,11.0,442.5,12.0,446.5,8.5,459.0,22.5,459.5,14.0,456.5,15.0,454.5,10.5,462.0,5.5,470.5,9.0,474.5,12.5,474.0,5.0,470.0,7.0,466.0,1.5,467.0,1.0,466.0" stroke="green" stroke-width="3" fill="none" />
<polyline points="47.0,449.5,35.0,456.0,34.5,443.5,32.5,447.0,35.0,438.5,41.5,430.5,42.5,427.5,36.5,429.5,34.0,433.0,38.5,437.5" stroke="black" stroke-width="1" fill="none" />
<polyline points="" stroke="yellow" stroke-width="4" fill="none" />
<polyline points="38.0,412.5,32.0,420.5,18.0,424.0,34.5,429.5,20.5,435.5,35.5,428.0,30.0,442.0,29.5,447.0,30.0,449.0,27.0,453.5,32.0,453.5,29.0,465.0,35.0,455.0,40.0,462.0,26.0,477.0,27.0,472.5,34.0,475.5,36.0,485.5,33.5,490.0,27.0,486.0,39.5,488.5,30.5,499.0,33.0,505.0,37.5,503.5,32.5,491.5,27.5,504.5,29.0,495.5,32.0,493.0" stroke="black" stroke-width="2" fill="none" />
<polyline points="79.0,433.0,86.5,438.5,83.0,434.5,84.0,436.0" stroke="yellow" stroke-width="4" fill="none" />
<polyline points="66.0,423.5,60.0,418.0,67.5,422.0,67.0,416.0,65.5,409.0,68.0,416.0,74.0,404.5,72.5,413.0,74.5,395.5,72.0,396.5" stroke="orange" stroke-width="1" fill="none" />
<polyline points="72.5,393.0,78.5,396.0,77.0,390.5,77.5,393.5,78.5,388.5" stroke="black" stroke-width="2" fill="none" />
<polyline points="84.0,397.0,91.0,400.5,81.0,408.0,85.5,399.0,94.5,405.0" stroke="yellow" stroke-width="2" fill="none" />
<polyline points="72.5,409.5,73.0,412.0,69.0,414.5,75.5,419.0,71.5,413.5" stroke="yellow" stroke-width="1" fill="none" />
<polyline points="" stroke="black" stroke-width="2" fill="none" />
<polyline points="" stroke="orange" stroke-width="3" fill="none" />
<polyline points="114.0,399.0,102.5,432.0,112.0,410.5,100.5,402.5,105.0,395.5" stroke="black" stroke-width="1" fill="none" />
<polyline points="114.0,411.5,114.5,405.0,107.5,415.0,112.5,419.5,96.0,416.5,104.5,420.0,100.0,419.5,102.0,416.0" stroke="green" stroke-width="1" fill="none" />
<polyline points="" stroke="green" stroke-width="1" fill="none" />
<polyline points="111.0,370.5,109.5,370.5,114.0,358.5,108.0,358.0,109.0,356.0,110.5,350.0,109.5,340.0,104.5,341.5,103.0,344.0,114.0,334.0,109.0,339.5,106.0,338.5,104.0,335.0" stroke="black" stroke-width="3" fill="none" />
<polyline points="98.5,337.0,115.5,328.0,107.5,319.5,105.0,331.0,110.0,328.5" stroke="green" stroke-width="4" fill="none" />
<polyline points="" stroke="orange" stroke-width="3" fill="none" />
<polyline points="115.0,304.5,113.5,318.5,117.5,309.0,109.0,319.0,105.5,326.0,102.0,302.0,115.0,317.0,113.5,301.5,103.0,320.5,113.0,323.5,98.0,333.0,114.5,300.5,115.0,311.0,107.5,313.0,107.5,304.5,115.5,314.5,108.5,325.0,110.5,311.5" stroke="black" stroke-width="1" fill="none" />
<polyline points="119.5,300.0,117.5,297.0,121.5,309.0,112.5,310.5,121.0,314.5,113.5,324.0,109.5,320.0,113.5,330.5,105.0,337.5,101.0,340.5,98.5,335.0,97.0,337.5,97.5,336.5,93.0,337.5,96.0,333.0,95.0,332.5,95.0,331.0" stroke="green" stroke-width="4" fill="none" />
<polyline points="97.0,350.0,98.5,353.5" stroke="orange" stroke-width="3" fill="none" />
<polyline points="90.5,361.5,71.5,367.0,82.0,358.5,96.0,366.5,91.5,377.0,80.5,387.0,79.0,367.0,96.0,383.0,90.5,391.0,89.0,387.0,87.5,392.0,88.0,404.5,84.5,410.5,89.0,402.5,101.5,413.5,90.5,394.0,100.0,411.0,97.0,403.5,112.0,396.5,102.0,387.5,118.5,399.5,119.0,398.5" stroke="green" stroke-width="4" fill="none" />
<polyline points="" stroke="black" stroke-width="3" fill="none" />
<polyline points="128.0,370.0,132.0,371.0,112.5,384.0,136.0,371.5,126.0,389.5,131.5,385.5,132.5,394.0,132.0,408.0" stroke="yellow" stroke-width="2" fill="none" />
<polyline points="" stroke="orange" stroke-width="2" fill="none" />
<polyline points="125.5,368.5,127.5,365.0,119.5,359.5,127.0,363.5,128.0,368.0,123.5,376.5,134.0,383.5,129.0,381.5,131.5,388.0,137.0,395.5,131.5,387.0" stroke="orange" stroke-width="2" fill="none" />
<polyline points="130.0,364.5,130.0,363.5,131.0,370.5,138.5,356.0,120.0,354.0,125.5,352.5,118.0,353.0,122.5,353.5,118.0,353.5,118.0,352.5,113.0,353.5,116.5,355.5" stroke="black" stroke-width="3" fill="none" />
<polyline points="124.5,364.5,130.0,365.0,133.0,370.0,134.5,363.0,148.5,378.0,152.0,372.5" stroke="black" stroke-width="3" fill="none" />
<polyline points="160.5,368.5,164.0,364.5,168.0,367.0,180.0,358.0,176.5,350.0,185.5,351.5,182.0,344.0,182.0,338.5,186.0,337.0,185.5,339.0,188.0,338.0,181.0,337.5,181.0,337.0,181.5,335.0" stroke="orange" stroke-width="3" fill="none" />
<polyline points="188.5,332.5,186.5,328.5,189.0,335.5,174.5,328.5,177.0,340.0,172.5,340.0,167.5,347.5,160.5,348.5,155.0,357.0,158.0,367.5,158.5,363.5,165.0,369.0,171.5,353.5,175.5,347.0,176.0,351.5,173.5,349.0,180.5,341.0,192.5,333.0,184.5,327.5,182.0,330.5,193.0,325.5,192.0,329.0,197.5,331.0" stroke="orange" stroke-width="1" fill="none" />
<polyline points="" stroke="orange" stroke-width="2" fill="none" />
<polyline points="194.5,349.5,199.0,354.5,187.0,346.0,187.5,351.5,187.5,341.5,184.5,352.0,192.5,348.5,193.0,347.0,193.5,348.0,192.5,346.0" stroke="green" stroke-width="3" fill="none" />
<polyline points="" stroke="yellow" stroke-width="1" fill="none" />
<polyline points="152.5,360.0,160.5,356.5,161.0,361.5,166.5,350.5,171.0,346.0,170.0,356.5,172.5,345.5,178.0,340.5,184.5,336.5,181.0,324.5,169.5,332.0,169.5,336.0,173.0,347.5,168.0,345.5,169.5,331.5,173.0,325.5" stroke="green" stroke-width="4" fill="none" />
<polyline points="160.5,329.5,162.5,326.0,159.0,327.0,161.5,326.0" stroke="black" stroke-width="3" fill="none" />
<polyline points="" stroke="orange" stroke-width="1" fill="none" />
<polyline points="171.5,330.0,168.0,329.0,157.0,311.0,157.5,317.5,165.0,341.5,151.0,330.5,147.5,337.5,142.5,334.0,136.0,339.0,149.5,340.5,134.0,332.0,139.0,331.5,134.5,327.0,134.5,322.0,136.5,316.0,137.0,314.5,134.0,314.0,128.5,309.5,137.5,307.0,129.0,294.0,133.0,292.0,130.0,296.5,141.0,284.5,140.0,294.0,137.0,287.0,125.0,290.5,138.5,271.0,135.5,272.0,135.0,276.5,142.5,276.0,147.5,278.5,143.5,271.5,133.0,270.0,147.5,266.0,151.0,257.0,155.5,258.5,158.0,254.0,163.0,244.0,158.0,241.5,157.0,242.0" stroke="yellow" stroke-width="2" fill="none" />
<polyline points="" stroke="orange" stroke-width="2" fill="none" />
<polyline points="158.0,253.5,148.5,255.0,146.0,260.5,148.5,255.5,152.0,260.0,149.5,258.0" stroke="orange" stroke-width="1" fill="none" />
<polyline points="" stroke="orange" stroke-width="1" fill="none" />
<polyline points="157.5,265.5,161.5,262.5,155.0,261.0,150.5,265.0,149.0,273.0,143.5,264.5,152.0,272.5,145.5,280.0,149.0,277.5,152.0,282.0,154.0,287.0,165.0,293.0,162.5,286.0,167.5,297.0,154.0,296.0,163.5,299.5,164.0,309.0,160.5,315.0,152.0,324.5,158.5,319.0,165.5,319.0,161.0,319.0,167.5,315.5,177.0,310.5,174.0,305.0,175.0,291.5,175.5,297.0,183.5,284.5,173.0,289.5,177.5,281.0,175.5,279.5" stroke="orange" stroke-width="2" fill="none" />
<polyline points="" stroke="black" stroke-width="2" fill="none" />
<polyline points="" stroke="yellow" stroke-width="3" fill="none" />
<polyline points="195.0,317.0,182.5,318.0,176.0,313.5,181.5,311.0,192.0,316.0,191.0,314.5" stroke="yellow" stroke-width="2" fill="none" />
<polyline points="169.0,319.5,170.5,326.0,161.0,312.0,169.5,324.0" stroke="orange" stroke-width="3" fill="none" />
<polyline points="175.0,293.5,172.5,296.0,169.0,297.0,165.0,292.5,171.0,281.5,176.0,285.0,164.0,286.0,173.0,287.0,168.5,292.5,164.0,294.0,174.5,287.0,175.5,279.5,172.5,276.5,170.0,279.0,170.0,292.0,166.0,283.0,164.5,279.0,161.5,282.5,162.0,288.5,156.0,281.0,172.0,282.5,161.0,272.5,159.5,276.0,160.5,273.0,167.0,259.5,169.0,258.0,173.0,258.5,170.5,253.5,164.5,252.0,176.0,242.0,181.5,235.5,179.5,231.0,189.0,230.0,189.5,232.0,192.0,232.0,196.0,229.5" stroke="black" stroke-width="3" fill="none" />
<polyline points="171.5,244.0,182.5,244.0,175.5,254.0,174.5,256.0,169.0,255.5,178.0,267.5,189.0,265.0" stroke="yellow" stroke-width="4" fill="none" />
<polyline points="179.0,244.5,184.5,242.5,198.5,239.0,190.5,246.5,193.5,246.5,196.0,244.0,198.5,244.0,198.5,259.5,214.5,265.5,204.0,266.5" stroke="yellow" stroke-width="2" fill="none" />
<polyline points="221.5,275.0,226.5,269.5,236.0,267.5,222.0,266.0,211.5,270.0,226.5,264.5,216.0,272.5,217.5,268.5,219.0,272.0,217.0,267.0,219.5,265.0,220.0,265.5" stroke="yellow" stroke-width="3" fill="none" />
<polyline points="213.5,303.5,215.5,313.0,209.5,318.5,208.0,330.5,219.0,341.0,224.5,332.5,217.5,339.5,214.5,339.0,227.0,349.0,216.5,334.5,209.0,348.0,220.0,353.0,212.0,356.0,223.0,355.0,221.5,352.5,216.0,351.0,217.5,348.0" stroke="black" stroke-width="3" fill="none" />
<polyline points="250.5,377.0,250.5,376.0,244.0,379.0,258.5,387.5,250.5,374.0,266.0,389.5,264.5,387.5,265.5,387.0,268.0,385.5,269.0,386.0" stroke="yellow" stroke-width="3" fill="none" />
<polyline points="276.0,392.5,272.5,390.5,267.5,386.0,257.0,378.0,257.0,393.0,246.0,388.5,250.5,400.5,240.0,384.5,245.0,388.5,247.5,387.5,247.5,386.5" stroke="black" stroke-width="3" fill="none" />
<polyline points="" stroke="green" stroke-width="2" fill="none" />
<polyline points="" stroke="green" stroke-width="4" fill="none" />
<polyline points="216.0,357.0,214.5,355.5,223.5,364.5,228.0,344.5,211.5,354.0,225.0,337.0,230.0,330.0,225.0,337.0,216.5,348.5,213.0,325.5,211.0,324.0,220.5,317.0,216.5,301.5,214.0,300.0,223.0,312.5,220.0,296.0,220.5,300.0" stroke="orange" stroke-width="1" fill="none" />
<polyline points="175.0,302.0,182.0,306.0" stroke="black" stroke-width="3" fill="none" />
<polyline points="166.5,318.0,173.0,316.5,172.0,316.0" stroke="orange" stroke-width="2" fill="none" />
<polyline points="145.0,308.5,151.0,305.0,149.5,312.5" stroke="orange" stroke-width="4" fill="none" />
<polyline points="" stroke="black" stroke-width="1" fill="none" />
<polyline points="" stroke="yellow" stroke-width="1" fill="none" />
<polyline points="" stroke="black" stroke-width="3" fill="none" />
<polyline points="" stroke="yellow" stroke-width="3" fill="none" />
<polyline points="" stroke="yellow" stroke-width="2" fill="none" />
<polyline points="157.0,293.5,158.5,300.0,164.5,301.0,158.5,300.5,163.0,296.0,163.5,303.0" stroke="green" stroke-width="4" fill="none" />
<polyline points="172.0,280.0,169.0,294.0,174.0,293.0" stroke="yellow" stroke-width="1" fill="none" />
<polyline points="179.0,312.0,174.0,313.0" stroke="black" stroke-width="2" fill="none" />
<polyline points="156.0,300.0,168.5,301.5,166.0,302.5,171.0,301.0" stroke="orange" stroke-width="2" fill="none" />
<polyline points="166.0,289.0,169.0,290.0,167.5,291.0,165.5,294.0,173.0,291.5,167.0,285.5,168.5,283.0" stroke="yellow" stroke-width="3" fill="none" />
<polyline points="172.0,300.5,169.0,289.0,169.0,301.0,166.5,294.0,172.5,299.0,167.0,314.0,161.5,303.0,160.0,319.5,174.0,332.5,163.0,322.0,160.5,336.0,157.0,329.0,151.0,337.0,164.0,343.0,154.5,348.0,146.0,347.5,149.5,341.5,146.0,354.5,147.5,356.5,146.5,347.0,151.5,360.0,158.0,355.5,158.5,355.0,153.0,351.5,149.0,350.0" stroke="orange" stroke-width="1" fill="none" />
<polyline points="159.0,290.5,155.0,288.0" stroke="green" stroke-width="1" fill="none" />
<polyline points="159.0,273.0,160.0,280.0,156.0,256.5,155.0,260.5,164.0,272.5,158.0,264.0,155.0,273.0,156.5,263.0,154.0,271.5,156.5,276.5" stroke="yellow" stroke-width="2" fill="none" />
<polyline points="168.5,272.0,167.0,271.5,163.0,265.0,162.5,268.0,163.0,253.5,165.0,269.5,160.5,260.5,169.5,276.0,167.5,273.5,170.5,280.5,170.0,269.5,166.0,266.5,161.0,269.5" stroke="black" stroke-width="4" fill="none" />
<polyline points="152.0,279.0,165.0,270.5" stroke="green" stroke-width="3" fill="none" />
<polyline points="161.5,277.5,163.0,273.5,150.5,280.0" stroke="green" stroke-width="1" fill="none" />
<polyline points="172.5,294.0,171.0,310.0,167.0,298.5,159.5,301.0,159.0,294.5,163.0,296.5" stroke="black" stroke-width="1" fill="none" />
<polyline points="" stroke="orange" stroke-width="1" fill="none" />
<polyline points="147.5,294.5,145.0,299.5,148.0,289.0,143.5,281.0,153.5,282.5,148.0,266.5,151.0,263.5,160.5,261.0,168.0,251.0,161.0,251.5,168.0,251.5,171.5,244.0,165.0,249.5,168.5,239.5,159.5,244.5,168.0,250.5,159.0,259.0,153.5,262.0,147.0,254.0,141.0,262.0,136.5,260.5,139.5,265.5,133.5,255.0,136.5,262.5,128.0,267.5,137.5,270.5,129.0,259.5,134.0,269.5,127.5,257.5,126.5,238.0,127.5,238.0,126.5,245.0,134.5,231.0,142.0,237.5,138.0,236.5,134.5,227.0,132.5,226.0,128.0,219.5,134.0,212.5,137.5,223.5,139.0,224.0,133.5,204.5,124.5,218.0,125.5,194.0,127.0,199.5,122.5,185.5,119.0,191.5,114.0,185.5,122.0,186.5,114.5,171.0,117.5,172.5,115.0,165.0,112.0,155.5,121.0,148.5,119.5,145.0,115.5,148.0,116.0,144.0,120.0,141.0,123.5,148.5,120.5,135.0,119.0,129.5,119.0,130.5,124.0,125.0,128.0,111.5,128.5,116.5,133.0,112.5,133.0,103.5,131.0,106.5,136.5,110.0,142.0,106.0,142.5,101.0,134.0,109.0,140.0,104.0,138.5,99.5,136.0,104.5,136.5,107.0" stroke="green" stroke-width="1" fill="none" />
<polyline points="135.0,107.5,129.0,108.0,128.5,101.5,152.0,105.0,143.5,116.5,126.5,124.0,132.0,119.5,139.0,119.5,138.0,125.0,132.5,127.0,126.5,138.5,138.0,126.5,131.0,151.0,135.5,136.0,120.5,154.0,132.5,151.0,136.5,144.0,137.0,152.0,140.0,151.0" stroke="green" stroke-width="1" fill="none" />
<polyline points="127.5,159.0,131.5,157.5,127.0,146.5,122.5,169.0,130.0,153.5,138.0,167.0,133.0,165.5,133.0,162.5" stroke="green" stroke-width="2" fill="none" />
<polyline points="" stroke="orange" stroke-width="2" fill="none" />
<polyline points="134.0,166.0,130.5,173.5,136.0,172.0,138.0,172.5,127.0,168.0,127.0,165.5,123.0,166.0,129.5,165.5" stroke="black" stroke-width="2" fill="none" />
<polyline points="139.5,162.5,129.5,175.0,134.5,171.0" stroke="yellow" stroke-width="3" fill="none" />
<polyline points="134.0,182.5,141.0,179.5,134.0,179.0,141.5,176.5,144.0,177.0" stroke="green" stroke-width="2" fill="none" />
<polyline points="143.0,178.0,149.0,186.0,136.0,184.0,131.5,185.0,137.5,189.0,143.5,188.5,149.0,184.0,141.0,189.0,137.5,199.0" stroke="orange" stroke-width="3" fill="none" />
<polyline points="" stroke="orange" stroke-width="4" fill="none" />
<polyline points="" stroke="green" stroke-width="4" fill="none" />
<polyline points="155.0,202.0,147.5,203.0,153.0,203.5" stroke="yellow" stroke-width="4" fill="none" />
<polyline points="137.5,188.0,141.5,186.0,142.0,180.5,142.5,173.5,145.5,179.5,140.5,185.0" stroke="black" stroke-width="2" fill="none" />
<polyline points="139.0,183.0,144.0,185.5,149.5,186.0,154.0,193.5,156.0,195.5,155.5,193.5" stroke="yellow" stroke-width="1" fill="none" />
<polyline points="" stroke="green" stroke-width="2" fill="none" />
<polyline points="146.5,202.0,163.0,191.0,163.0,180.5,165.5,180.0,169.5,160.0,174.5,177.0,169.5,162.0,177.5,168.0,175.5,159.0,192.0,152.5,183.5,161.0" stroke="yellow" stroke-width="2" fill="none" />
<polyline points="226.0,169.5,225.5,168.5,217.0,146.0,226.5,159.0,219.0,147.5,223.5,148.5,223.0,146.0" stroke="green" stroke-width="4" fill="none" />
<polyline points="219.5,165.0,224.0,150.5,215.5,166.0,223.0,155.0,218.0,158.5,215.5,147.0,213.0,156.5,211.0,154.0" stroke="black" stroke-width="3" fill="none" />
<polyline points="" stroke="black" stroke-width="4" fill="none" />
<polyline points="209.5,187.0,200.0,194.0,217.0,192.5,208.0,187.0,212.5,191.0" stroke="yellow" stroke-width="4" fill="none" />
<polyline points="208.5,180.5,234.5,171.0,225.5,164.0,238.0,158.5,239.0,169.5,247.0,161.5,235.0,179.0,233.5,179.0,244.5,166.5,248.5,165.5" stroke="orange" stroke-width="4" fill="none" />
<polyline points="239.0,178.5,239.0,181.0,234.0,164.0,228.0,183.5,231.0,191.5,228.5,191.0,216.5,198.5,200.0,204.0,201.0,200.5,203.5,218.0,199.0,215.0,201.0,217.5,189.5,215.5,203.5,217.5" stroke="black" stroke-width="4" fill="none" />
<polyline points="196.0,196.0,200.0,197.0,206.5,204.5,199.5,200.0,209.5,198.5,220.0,188.0,220.0,178.5,220.5,179.5,218.0,180.0,221.5,179.0" stroke="green" stroke-width="2" fill="none" />
<polyline points="218.0,203.0,206.5,206.5,216.0,199.5,219.0,207.5,219.0,192.0,217.0,189.5,224.5,193.5,217.5,196.0,232.5,186.5" stroke="green" stroke-width="2" fill="none" />
<polyline points="226.5,187.5,216.0,191.0,214.0,180.0" stroke="black" stroke-width="1" fill="none" />
<polyline points="" stroke="green" stroke-width="4" fill="none" />
<polyline points="207.0,200.5,209.0,199.5,208.5,201.0" stroke="black" stroke-width="4" fill="none" />
<polyline points="201.5,204.0,198.0,202.0" stroke="black" stroke-width="4" fill="none" />
<polyline points="" stroke="black" stroke-width="1" fill="none" />
<polyline points="187.0,201.0,198.0,203.0,194.5,207.5,175.0,207.5,184.5,216.0,173.5,199.5,194.5,193.5,194.5,195.5,200.5,192.0,187.5,200.5,190.5,195.0,191.0,199.5,188.0,197.0" stroke="yellow" stroke-width="1" fill="none" />
<polyline points="190.5,199.5,192.5,200.5,193.0,215.0,195.0,203.5,194.0,205.5,197.5,200.5" stroke="orange" stroke-width="4" fill="none" />
<polyline points="187.5,194.5,187.0,199.0,182.0,200.0,174.0,204.0,174.5,209.0,179.0,207.0,186.5,211.0,185.5,206.5,185.0,206.5,170.5,196.0,169.0,210.0" stroke="green" stroke-width="2" fill="none" />
<polyline points="" stroke="black" stroke-width="4" fill="none" />
<polyline points="173.0,217.0,180.5,209.5,177.5,210.5,188.5,206.5,181.0,197.5,182.0,202.0,181.5,204.5,181.5,208.0" stroke="yellow" stroke-width="2" fill="none" />
<polyline points="167.0,212.0,164.0,220.0,170.5,211.0,167.0,210.5" stroke="yellow" stroke-width="2" fill="none" />
<polyline points="160.0,223.5,165.5,217.0,176.5,219.5,181.5,226.0,178.0,226.5,177.5,220.0" stroke="green" stroke-width="1" fill="none" />
<polyline points="190.0,227.0,175.0,229.0,183.5,229.0,170.0,240.5,163.0,235.5,162.5,237.5" stroke="green" stroke-width="2" fill="none" />
<polyline points="169.0,240.0,172.0,247.5,173.0,245.5,176.5,249.5,169.0,251.0,161.5,245.5,166.5,248.0,165.0,243.0,160.0,248.5,162.0,246.0" stroke="yellow" stroke-width="4" fill="none" />
<polyline points="162.0,244.0,159.0,245.0,168.5,238.0,159.0,256.5,152.0,263.5,151.0,265.0,145.0,261.5,139.0,263.0,127.5,271.5,124.5,275.0,129.0,283.5,119.0,272.0,123.5,269.0,115.5,260.5,127.0,261.5,121.0,257.0,99.0,252.5" stroke="black" stroke-width="4" fill="none" />
<polyline points="" stroke="black" stroke-width="1" fill="none" />
<polyline points="118.0,268.5,121.0,271.0,128.5,288.5,105.5,289.0,109.5,294.5,115.5,299.0,109.5,306.0,97.0,320.0,88.0,310.0,96.0,312.0,86.0,302.5,96.0,318.5,85.5,323.5,93.5,325.5,86.5,333.0,90.0,338.0,88.0,331.0,85.5,340.0,82.5,358.0,83.5,350.0,69.5,359.5,74.0,358.5,64.5,355.0,74.0,364.5,73.5,356.0,83.0,346.0,78.0,350.0,87.5,342.5,87.5,329.5,99.0,316.5" stroke="yellow" stroke-width="3" fill="none" />
<polyline points="94.5,318.5,92.5,333.5,91.0,337.5,83.0,346.5,83.5,343.0,76.5,343.5,66.0,351.5,73.0,348.5,69.5,361.0,56.0,357.0,61.0,357.0,67.0,361.0,68.0,353.5,74.5,350.0,77.0,349.5,85.5,342.0,83.5,341.5,97.0,343.0,87.0,346.0,82.0,349.0,92.0,357.0,87.5,351.0,85.5,346.0,75.5,364.5,82.5,367.0,79.5,372.5,82.0,370.0,79.5,378.0,81.0,354.5,93.5,340.0,104.5,349.5,97.5,345.0,85.0,344.5,94.0,349.0,90.0,340.0" stroke="orange" stroke-width="2" fill="none" />
<polyline points="100.5,376.5,106.0,379.5,109.0,370.0,103.5,376.5,108.0,382.5,103.5,383.5,105.5,382.0" stroke="black" stroke-width="4" fill="none" />
<polyline points="102.5,360.5,107.0,359.0,118.5,366.5,119.5,368.0,116.0,360.0,125.5,361.0" stroke="green" stroke-width="2" fill="none" />
<polyline points="115.0,363.5,115.5,362.5,107.5,362.0,127.5,370.0,118.0,364.5" stroke="yellow" stroke-width="2" fill="none" />
<polyline points="123.0,347.5" stroke="yellow" stroke-width="2" fill="none" />
<polyline points="111.0,359.5,115.0,359.0,128.0,347.5,137.5,364.5,131.5,367.0,131.0,362.5,132.0,372.0" stroke="yellow" stroke-width="1" fill="none" />
<polyline points="" stroke="yellow" stroke-width="3" fill="none" />
<polyline points="74.0,358.0,74.0,353.0,78.0,349.5,82.0,348.0,100.0,351.0,88.0,350.0,88.5,351.5,87.5,360.0,79.0,369.5,83.0,368.5,75.0,364.0,74.0,371.0,76.0,373.0,69.0,360.5,73.5,358.0" stroke="black" stroke-width="1" fill="none" />
<polyline points="72.0,397.5,59.0,406.0,48.0,410.5,59.0,408.0,71.5,401.5,71.5,393.5,77.5,381.5,79.0,388.5,73.5,381.0,62.5,384.5,71.5,395.5,70.5,399.0,59.0,402.5,51.0,398.0,67.0,397.5,70.0,396.5,87.0,397.5,91.0,398.5,75.0,381.5,89.0,383.0,87.0,375.0,83.0,375.0,87.0,359.0,83.0,360.5,88.0,358.0,96.5,352.0,99.0,355.5,94.0,351.5,94.0,348.0,100.5,354.5,97.5,343.0,93.5,348.0,98.5,355.0,92.0,346.5,104.0,347.5,112.5,328.5,105.5,323.0,79.5,334.5,88.5,321.0,101.0,313.5,97.5,320.0,113.0,304.5,115.0,302.0,115.5,302.5,116.0,305.0,100.5,307.0" stroke="green" stroke-width="2" fill="none" />
<polyline points="91.5,313.0,106.0,316.5,96.5,316.5,106.5,308.0,101.5,312.0,102.5,307.0" stroke="yellow" stroke-width="4" fill="none" />
<polyline points="96.0,297.5,109.0,300.5,109.0,287.0,104.0,291.0,104.0,289.5" stroke="orange" stroke-width="4" fill="none" />
<polyline points="94.0,292.0,89.5,292.5" stroke="yellow" stroke-width="3" fill="none" />
<polyline points="75.0,292.0,82.0,284.0,94.0,284.0,91.5,293.5,89.5,298.0,99.0,278.0,103.5,283.0,116.5,280.0,107.5,283.5,117.0,289.5,116.5,290.0,116.0,293.0,106.5,298.0" stroke="orange" stroke-width="4" fill="none" />
<polyline points="104.0,289.5,111.5,285.5,112.0,284.0,105.5,276.0,106.5,272.5,110.5,273.5,103.5,273.0,111.0,271.5,107.5,274.5" stroke="black" stroke-width="3" fill="none" />
<polyline points="118.5,255.0,115.0,255.0,107.5,262.5,115.0,272.5,108.5,275.0,110.0,269.5,101.5,280.0,89.0,282.5,94.0,278.0,106.5,282.0,101.5,274.0,110.5,278.0,125.5,278.5,113.0,281.5,116.0,294.0,118.0,281.5,117.5,283.5" stroke="black" stroke-width="3" fill="none" />
<polyline points="96.0,274.0,96.5,274.5,110.0,277.5,109.0,275.5,117.5,275.0,104.5,275.5,92.0,286.0,98.0,287.0,102.5,281.0,94.5,278.5,95.5,288.0,89.5,294.0,96.0,287.0" stroke="black" stroke-width="3" fill="none" />
<polyline points="84.5,276.0,98.5,274.0,99.0,267.5,101.5,261.0,93.5,268.5,83.5,274.5,97.5,271.5,98.5,279.0,97.0,282.0,99.0,273.5,99.5,286.5,97.0,288.0,91.5,286.5,112.5,277.5,127.0,281.0,126.0,278.5,121.0,267.0,122.0,272.0,119.0,275.5,117.0,268.0,118.5,269.0,127.5,273.5,122.5,274.0,126.0,274.5" stroke="yellow" stroke-width="2" fill="none" />
<polyline points="124.0,271.0,115.0,276.5,110.0,280.5,89.0,285.5,103.0,288.5,92.5,293.5,95.5,300.5,82.0,301.0,93.5,312.5,84.5,312.0,72.5,318.5,76.5,310.0,86.5,311.5,94.0,307.0,83.0,322.0,96.5,324.5,94.5,308.5,79.0,317.5,78.0,314.5" stroke="green" stroke-width="4" fill="none" />
<polyline points="114.5,316.0,113.5,315.5,121.0,303.5,128.5,292.5,123.5,299.0,126.5,296.5" stroke="green" stroke-width="1" fill="none" />
<polyline points="120.5,302.0,130.0,306.5,125.5,302.0,113.0,311.0,107.5,317.5,108.5,318.0,108.0,313.5,107.0,328.0,109.5,336.0,101.0,325.0" stroke="yellow" stroke-width="1" fill="none" />
<polyline points="82.0,313.5,74.0,316.0,79.5,318.0,88.5,312.5,79.0,316.0,79.5,317.5,76.5,319.5" stroke="orange" stroke-width="2" fill="none" />
<polyline points="" stroke="black" stroke-width="1" fill="none" />
<polyline points="81.5,312.0,84.5,312.0,77.5,308.5,92.0,308.5,102.5,302.0,87.5,303.0,92.5,305.0" stroke="green" stroke-width="3" fill="none" />
<polyline points="95.5,319.0,100.0,320.0,100.0,317.5,102.0,312.0,99.5,314.0" stroke="black" stroke-width="3" fill="none" />
<polyline points="103.0,290.5,105.5,291.5" stroke="yellow" stroke-width="2" fill="none" />
<polyline points="104.0,282.5,106.5,286.0,108.5,283.0" stroke="black" stroke-width="3" fill="none" />
<polyline points="94.0,275.5,88.0,270.0,85.0,265.5,86.0,266.0" stroke="black" stroke-width="3" fill="none" />
<polyline points="119.0,288.5,115.5,296.5,98.5,309.0,116.5,306.5,108.0,312.0,106.0,322.5,102.5,319.0,107.5,323.0,107.5,328.0,103.0,330.5,113.5,324.5,91.0,343.0,104.0,333.5,106.0,345.5,112.5,317.5,117.0,329.5,117.0,315.0,124.5,299.5,125.5,296.0,131.5,307.5,131.0,312.0,142.5,308.0,146.0,313.0,145.0,311.5,146.5,311.0,145.5,306.5" stroke="green" stroke-width="3" fill="none" />
<polyline points="125.5,323.0,122.5,325.5,144.5,332.0,125.0,325.5,125.5,332.0,125.5,332.5" stroke="yellow" stroke-width="1" fill="none" />
<polyline points="119.5,314.5,117.5,316.0,123.0,320.0,130.0,332.0,117.5,314.5,106.0,326.0,113.5,334.0,107.0,339.5,106.0,331.0,113.0,349.5,107.0,347.5,93.0,342.0,92.0,359.0,94.5,345.5,96.0,364.0,96.0,360.0,90.5,358.5,92.0,373.5,97.0,379.0" stroke="green" stroke-width="1" fill="none" />
<polyline points="89.0,411.0,71.5,410.0,74.0,407.5" stroke="black" stroke-width="2" fill="none" />
<polyline points="15.0,370.5,16.0,370.5,18.5,375.0,14.0,373.5,12.0,368.5,19.5,369.0" stroke="orange" stroke-width="1" fill="none" />
<polyline points="113.0,296.0,116.0,294.0,113.0,303.5,111.5,304.0,102.5,320.0,114.0,306.5,111.0,301.0,108.5,300.5,116.0,294.0,127.0,296.0,128.0,299.5,135.5,296.0,137.5,279.0,139.5,282.5,136.0,284.0,138.0,287.5,136.0,280.5,132.5,280.0" stroke="orange" stroke-width="3" fill="none" />
<polyline points="" stroke="black" stroke-width="2" fill="none" />
<polyline points="135.0,260.5,142.5,264.5,145.5,262.0,148.5,258.0,144.5,258.5,145.5,260.0,146.5,264.0" stroke="green" stroke-width="2" fill="none" />
<polyline points="133.0,245.0,135.0,246.0,133.5,246.5,140.0,255.5,134.0,253.5,138.0,247.5" stroke="black" stroke-width="2" fill="none" />
<polyline points="144.5,248.0,137.5,236.5" stroke="black" stroke-width="2" fill="none" />
<polyline points="" stroke="green" stroke-width="1" fill="none" />
<polyline points="" stroke="black" stroke-width="3" fill="none" />
<polyline points="140.0,208.5,142.5,211.0,137.0,210.5,140.5,202.0,145.5,203.0" stroke="orange" stroke-width="2" fill="none" />
<polyline points="136.5,187.0,150.5,180.5,148.0,174.0,147.0,165.5,137.0,170.5,146.5,171.5,150.0,170.5" stroke="orange" stroke-width="3" fill="none" />
<polyline points="137.5,182.0,143.0,173.0,143.0,181.5,139.0,181.0" stroke="green" stroke-width="2" fill="none" />
<polyline points="143.0,181.5,146.5,184.0,132.0,174.5,144.0,181.0,137.0,185.0,143.0,189.5,143.5,189.0" stroke="yellow" stroke-width="3" fill="none" />
<polyline points="" stroke="orange" stroke-width="2" fill="none" />
<polyline points="136.5,208.0,142.5,197.0,139.0,200.5,157.5,224.0,145.0,204.5,131.0,219.0,148.0,209.0,143.0,213.0,142.5,209.5" stroke="green" stroke-width="1" fill="none" />
<polyline points="" stroke="green" stroke-width="1" fill="none" />
<polyline points="118.0,224.5,118.0,224.0,108.0,215.5,111.0,227.0,118.5,228.0" stroke="green" stroke-width="4" fill="none" />
<polyline points="114.0,238.0" stroke="orange" stroke-width="1" fill="none" />
<polyline points="127.0,259.0,117.5,257.5,113.5,264.5,109.5,257.5,117.0,254.5,118.5,251.0,128.0,246.0,131.5,253.5,145.5,234.0,139.5,240.0,145.5,245.0,145.0,244.5,154.5,234.5,147.5,241.0,159.0,226.5,158.5,222.5" stroke="orange" stroke-width="2" fill="none" />
<polyline points="155.5,225.5,154.5,226.5,158.0,231.5,151.0,228.0,142.5,232.5,145.5,246.5,146.5,248.5,142.0,254.0,132.5,249.5,141.5,271.0,139.0,270.0,132.5,274.0,138.5,269.0,143.5,273.0,140.0,274.0" stroke="black" stroke-width="4" fill="none" />
<polyline points="160.5,252.5,163.0,250.0,160.0,251.5,161.0,252.0,163.5,251.5" stroke="black" stroke-width="1" fill="none" />
<polyline points="155.5,236.0,162.0,245.0,158.0,222.5,166.0,231.5,170.0,227.5,169.0,234.5,170.0,228.5,169.5,226.0,167.5,226.0" stroke="yellow" stroke-width="4" fill="none" />
<polyline points="" stroke="orange" stroke-width="1" fill="none" />
<polyline points="170.5,230.5,170.0,234.0,171.0,230.0,158.0,237.0,152.5,235.0,157.5,253.5,140.0,264.0,148.0,258.5,151.5,265.5,153.0,261.0,144.5,262.5,139.5,269.0,142.0,285.5,123.5,286.0,124.0,289.0,135.5,283.0,130.5,287.0,122.5,302.0,132.5,298.0,129.5,317.0,129.0,300.0,115.0,317.5,128.0,323.5,122.0,321.5,127.5,333.0,119.0,342.0,127.5,338.5,126.5,344.5,126.0,344.0,129.5,350.5,129.5,345.5,133.5,357.5,148.0,353.5,137.5,358.5,142.0,366.5,145.0,365.0,144.0,369.5,141.5,369.0,142.0,375.5,151.5,393.0,147.0,391.5,141.0,388.5,149.0,396.0,149.5,385.0,149.0,397.0,146.5,408.5,165.5,401.0,167.0,401.5,164.0,410.0,168.5,405.5" stroke="black" stroke-width="3" fill="none" />
<polyline points="" stroke="green" stroke-width="4" fill="none" />
<polyline points="188.0,432.5,188.5,427.5" stroke="black" stroke-width="3" fill="none" />
<polyline points="" stroke="yellow" stroke-width="4" fill="none" />
<polyline points="" stroke="orange" stroke-width="1" fill="none" />
<polyline points="" stroke="green" stroke-width="4" fill="none" />
<polyline points="193.5,388.0,198.0,383.5,185.5,398.5,178.5,410.0,188.0,408.0,196.5,411.5,181.0,415.0,190.5,429.0,189.5,426.5,185.5,442.0,196.0,425.5,192.5,438.0,184.0,438.0,182.0,450.0,193.5,445.0" stroke="black" stroke-width="1" fill="none" />
<polyline points="386.0,356.5,381.5,358.0,379.0,356.0,370.5,353.5,380.0,344.5,380.0,336.0,377.5,340.0,376.5,338.0,378.5,335.5,383.0,332.0,379.5,329.0,373.5,311.5,372.5,311.5,370.0,305.0,371.0,303.0,380.5,306.0,378.5,295.5,379.5,300.0,375.5,285.0,380.0,292.0" stroke="green" stroke-width="1" fill="none" />
<polyline points="369.5,267.5,383.5,262.5,371.0,268.0,384.5,263.5" stroke="yellow" stroke-width="2" fill="none" />
<polyline points="366.0,273.5,371.0,274.0,359.5,288.0,362.0,279.5,365.5,283.0,366.0,291.0,367.0,296.0,365.0,290.5,352.5,314.0,357.0,304.0,361.0,314.5,365.5,326.5,371.5,311.5,374.5,313.5,379.5,316.0" stroke="green" stroke-width="4" fill="none" />
<polyline points="344.5,290.0,341.0,286.5,323.0,285.0,333.5,288.0,320.0,280.0,317.0,275.0,326.0,271.5" stroke="orange" stroke-width="3" fill="none" />
<polyline points="335.0,266.0,330.5,262.0,322.5,267.0" stroke="green" stroke-width="3" fill="none" />
<polyline points="319.0,284.5,316.5,273.5,313.0,272.5,321.5,263.5,327.0,269.5,326.5,263.0,334.5,266.0" stroke="black" stroke-width="3" fill="none" />
<polyline points="359.5,255.5,365.0,268.5,366.0,280.5,356.5,274.5,365.5,286.5,376.5,276.5,375.5,282.0,371.0,278.5" stroke="yellow" stroke-width="1" fill="none" />
<polyline points="280.0,230.5,280.0,232.5,281.5,232.0,293.0,236.5,288.5,233.5,297.0,219.5,299.5,220.0,300.5,221.0" stroke="black" stroke-width="4" fill="none" />
<polyline points="274.0,198.5,283.5,200.5,293.5,187.0,293.0,192.5,290.0,187.5,287.0,183.5,293.5,178.5,307.0,178.0,314.5,178.0,308.0,170.5,304.5,163.0" stroke="green" stroke-width="3" fill="none" />
<polyline points="311.5,182.0,306.0,175.0,309.0,175.5,300.5,178.0,282.5,189.0,287.5,186.5,280.0,188.5,279.0,191.5,269.5,197.0,272.0,201.0,276.0,201.5,259.0,209.5,267.5,214.0,257.5,218.5,251.0,230.5,257.0,218.5,240.5,234.0,241.0,234.5,236.5,237.5,240.5,247.5,229.5,256.0,235.5,252.5,219.5,251.5,222.0,271.5,217.5,273.0,217.5,278.5,212.0,295.5,206.0,306.0,207.5,313.5,199.5,319.0,195.5,312.5,197.5,307.5,200.5,309.5,198.0,311.0,200.0,296.0,204.5,291.5,207.5,291.5,215.5,291.5,216.5,280.0,204.5,288.5,200.5,280.0,223.5,281.0,218.5,268.5,216.0,261.5,237.5,262.5,220.5,251.0,226.0,257.0,241.0,252.5,235.5,244.5,249.5,233.0,243.0,236.5,247.0,227.5,251.0,236.0,252.0,226.5,258.0,217.5,261.5,220.5,259.0,207.5,259.5,205.5,263.0,198.5,265.5,197.0,260.5,195.0,258.0,195.5" stroke="black" stroke-width="3" fill="none" />
<polyline points="272.5,211.5,269.0,208.5" stroke="orange" stroke-width="2" fill="none" />
<polyline points="251.5,213.0,250.5,214.5,250.5,215.0" stroke="green" stroke-width="4" fill="none" />
<polyline points="212.5,194.5,219.5,194.5,212.5,179.5,223.0,183.5,228.5,182.5,215.5,175.5,228.0,174.0,221.5,180.0,217.0,174.5" stroke="green" stroke-width="2" fill="none" />
<polyline points="215.5,183.0,207.0,187.5,197.5,189.0,202.0,197.5,207.0,190.0,201.0,194.0,208.0,193.0,223.0,187.5,224.5,193.0,210.5,182.0,230.5,191.0,223.0,190.0,225.5,187.0" stroke="yellow" stroke-width="3" fill="none" />
<polyline points="243.0,182.0,258.5,172.5,256.5,174.0" stroke="black" stroke-width="2" fill="none" />
<polyline points="254.5,186.0,245.0,174.0,241.0,182.0,244.5,184.5,228.5,184.5,240.0,189.0,244.0,201.5,236.0,200.0,227.0,200.5,223.5,212.0,233.5,204.5,232.0,203.0,232.0,209.5,237.0,202.5,237.0,201.0,235.5,197.5" stroke="yellow" stroke-width="3" fill="none" />
<polyline points="257.0,204.0,260.0,193.5,251.5,205.5,249.0,187.5,256.5,184.5,264.0,189.5,260.0,183.5,262.0,191.5" stroke="yellow" stroke-width="2" fill="none" />
<polyline points="261.0,194.5,256.5,193.5" stroke="green" stroke-width="2" fill="none" />
<polyline points="269.5,195.0,259.5,189.5,248.0,195.0,247.0,193.5,244.0,193.0,242.5,204.5,249.0,196.0,246.5,191.0,243.5,191.0,257.5,185.0,257.0,185.0" stroke="black" stroke-width="4" fill="none" />
<polyline points="284.5,176.0,275.5,181.0,289.0,174.5,299.0,187.5,284.0,185.0,281.5,182.5,281.5,192.5,273.5,194.0,278.0,200.5,273.5,191.0,275.5,192.0,272.5,206.5,284.0,196.0,279.5,203.0,286.5,184.5,296.5,194.0,278.5,192.5,290.5,174.5,309.0,171.5,294.5,178.0,306.0,170.0,310.5,183.0,323.5,167.5,319.5,174.0,327.0,166.5,329.5,175.5,337.5,167.5,335.0,154.5,327.0,155.5,327.5,158.5,331.0,157.5,328.0,163.0" stroke="black" stroke-width="4" fill="none" />
<polyline points="288.5,185.5,283.0,188.0,272.0,197.5,282.0,191.0,276.5,197.5,262.0,201.0,264.5,210.5,276.0,213.0,272.0,203.0,265.5,224.0,265.0,215.5,270.5,219.5,268.5,226.0,266.5,235.0,272.0,233.5,270.0,243.5,278.5,242.0,269.0,235.5,260.5,242.0,260.5,243.0" stroke="black" stroke-width="4" fill="none" />
<polyline points="262.5,189.0,267.5,183.0,272.0,186.0,274.0,180.5" stroke="yellow" stroke-width="1" fill="none" />
<polyline points="" stroke="orange" stroke-width="1" fill="none" />
<polyline points="" stroke="black" stroke-width="4" fill="none" />
<polyline points="241.5,170.5,242.5,168.0" stroke="orange" stroke-width="4" fill="none" />
<polyline points="241.0,146.0,248.5,144.0,256.0,134.0,255.5,141.5,255.0,134.0,256.5,133.5,252.5,129.5,251.0,138.5,242.5,145.5,242.5,137.5,233.5,153.5,232.0,141.5,236.5,149.5,235.0,149.5,237.0,155.0" stroke="green" stroke-width="1" fill="none" />
<polyline points="" stroke="black" stroke-width="3" fill="none" />
<polyline points="224.5,145.5,223.5,137.0,217.5,135.0,215.5,132.0" stroke="orange" stroke-width="3" fill="none" />
<polyline points="" stroke="orange" stroke-width="4" fill="none" />
<polyline points="208.5,157.5,223.0,163.5,219.5,164.0,220.0,171.5" stroke="yellow" stroke-width="1" fill="none" />
<polyline points="202.5,159.0,204.5,159.5,208.0,162.0,211.5,164.0,208.5,170.0" stroke="green" stroke-width="1" fill="none" />
<polyline points="191.0,172.0,177.0,181.0,190.0,178.0,178.5,184.5,176.5,181.5,164.0,198.0,165.0,196.5,166.0,198.0,165.5,197.0,169.5,189.5,174.5,186.5,186.0,186.5,184.5,173.0,186.0,179.0,196.0,167.5,206.0,176.0,200.0,150.5,202.5,152.5,210.5,154.0,208.0,156.0" stroke="orange" stroke-width="4" fill="none" />
<polyline points="222.5,180.5,224.5,183.0,206.5,171.5,205.0,181.5,207.0,185.5,214.5,191.0,192.5,188.0,210.0,198.0,199.5,194.5,206.0,185.5,208.0,189.5" stroke="green" stroke-width="3" fill="none" />
<polyline points="" stroke="green" stroke-width="1" fill="none" />
<polyline points="212.5,139.0,208.0,141.0,216.5,139.5,198.0,136.5,222.0,140.0,207.0,134.0,217.0,131.0,211.0,129.5,216.0,130.5,225.5,144.0,213.0,144.5,216.5,138.5,215.5,135.5,214.5,133.5" stroke="black" stroke-width="3" fill="none" />
<polyline points="214.0,138.5,212.0,141.0,218.0,140.0,206.0,141.0,215.0,147.5,218.5,141.0,216.0,138.5,215.5,127.0,214.5,137.5,234.5,130.0,234.0,113.5,236.5,129.5,239.0,130.5,240.0,132.5" stroke="orange" stroke-width="3" fill="none" />
<polyline points="232.5,112.0,225.0,125.0,219.5,134.0,226.5,143.0,216.5,141.5,209.0,143.0,195.5,147.0,196.5,154.5,188.5,151.0,188.5,167.0,165.0,162.0,178.5,169.0,175.5,171.0,167.0,181.5,163.5,181.0,150.0,180.0,158.0,185.0,154.5,189.5,147.5,192.0,160.0,201.0,146.5,204.5,147.0,206.5,143.0,216.0,137.0,215.0,146.5,223.0,147.5,220.5,135.0,224.5,147.5,233.0,146.0,225.5,139.0,237.0,138.0,247.0,141.5,251.5,128.5,244.5,135.5,255.0,147.5,251.5,132.5,258.0,143.0,248.5,138.0,251.0" stroke="black" stroke-width="1" fill="none" />
<polyline points="137.0,176.0,138.0,172.5,135.5,177.0,132.0,165.5,133.0,159.5,134.0,159.0" stroke="orange" stroke-width="3" fill="none" />
<polyline points="" stroke="black" stroke-width="2" fill="none" />
<polyline points="144.5,139.0,152.0,122.0,153.0,126.0,151.0,125.0,157.0,118.0,165.0,127.0,160.5,125.0" stroke="black" stroke-width="2" fill="none" />
<polyline points="183.0,119.0,180.0,118.0,189.5,121.0,188.5,121.5,191.0,121.0" stroke="black" stroke-width="3" fill="none" />
<polyline points="192.0,114.5,188.0,131.0,177.0,128.0,179.5,124.5" stroke="green" stroke-width="4" fill="none" />
<polyline points="188.0,134.5,186.5,140.5,191.0,133.5,190.0,131.5,183.0,136.0,186.0,129.5,174.0,130.0" stroke="black" stroke-width="2" fill="none" />
<polyline points="209.5,114.5,195.5,124.5,204.5,119.0,201.5,119.0,203.0,119.0" stroke="orange" stroke-width="4" fill="none" />
<polyline points="" stroke="green" stroke-width="4" fill="none" />
<polyline points="215.0,131.5,222.5,128.0,224.5,128.5,229.0,128.5,218.0,135.0,208.5,135.5,208.5,143.0,219.0,140.5,212.0,148.0,193.5,148.5,200.5,145.5,200.5,153.0,207.5,147.5,210.5,140.0,205.5,143.0,216.5,139.5,230.5,121.0,239.0,134.0,235.0,126.5,224.0,133.5,233.0,127.5" stroke="orange" stroke-width="3" fill="none" />
<polyline points="261.5,131.5,256.5,133.5,257.5,151.0,240.5,156.0,242.5,150.0,232.0,149.5,231.5,144.5,232.5,142.0,222.0,163.0,215.0,168.5,223.5,162.0,233.5,152.0,228.5,142.0,240.5,142.0,250.5,139.0,258.0,129.0,258.5,140.0,252.0,136.5,257.0,136.5" stroke="orange" stroke-width="1" fill="none" />
<polyline points="278.5,143.0,284.0,149.0,276.5,152.0,281.5,148.0" stroke="black" stroke-width="3" fill="none" />
<polyline points="" stroke="yellow" stroke-width="1" fill="none" />
<polyline points="314.0,180.5,304.5,182.0,295.0,181.5,286.0,197.0,299.5,205.0,284.0,194.5,283.0,204.0,267.0,208.5,281.0,218.0,276.0,217.5,268.0,215.0,267.0,219.5,269.5,221.0,262.5,219.5,269.0,218.0,270.5,219.5" stroke="yellow" stroke-width="3" fill="none" />
<polyline points="238.5,101.0,231.0,94.5,241.5,104.5,217.0,105.0,228.0,106.5,225.5,117.5,215.5,97.0,235.0,96.0,238.5,103.0,229.0,99.0,231.5,95.5,236.5,89.5" stroke="yellow" stroke-width="4" fill="none" />
<polyline points="240.0,100.0,242.5,100.0,250.0,94.0" stroke="yellow" stroke-width="2" fill="none" />
<polyline points="252.0,101.0,253.0,102.0,236.0,97.0" stroke="yellow" stroke-width="3" fill="none" />
<polyline points="262.5,90.5,249.5,85.0,246.5,88.0,249.0,101.5,234.0,106.0,239.0,97.5,226.0,91.5,222.5,102.0,222.5,122.5,224.0,117.5,213.5,106.5,207.5,116.0,201.5,132.0,200.5,130.0,202.5,124.5,200.5,140.5,189.5,134.0,188.5,143.0,175.0,148.0,182.5,151.5,170.0,151.5,169.5,155.5,172.5,153.5,155.5,160.0,160.0,172.5,156.0,173.5,156.0,180.0,167.5,167.5,159.5,159.5,161.5,157.5,170.0,158.5,168.5,153.0,177.0,150.5,182.5,143.5,187.5,139.0,191.0,135.0,188.5,131.5,205.0,130.0,195.0,120.5,209.5,120.0,208.5,111.0,224.5,106.0,223.5,108.5,226.0,100.5,236.0,103.5,244.5,89.5,249.5,89.5,251.0,86.0,271.0,80.5,264.5,83.0,265.5,87.5,265.5,88.5" stroke="black" stroke-width="3" fill="none" />
<polyline points="237.5,90.5,242.0,83.5,229.5,78.5,230.5,80.5,226.5,76.0" stroke="green" stroke-width="4" fill="none" />
<polyline points="" stroke="yellow" stroke-width="2" fill="none" />
<polyline points="229.5,47.5,233.5,48.5,236.5,49.0,244.0,43.0,255.5,37.5,238.5,54.5,250.5,48.5,252.0,53.0,266.5,51.0,265.0,54.5,277.0,58.5,267.5,50.5,288.0,65.0,283.0,65.0,279.5,64.5,287.0,75.5,297.5,82.0,302.0,71.5,301.5,71.5,301.5,79.5,307.0,89.5,325.0,96.5,313.0,101.0,325.0,98.5,320.0,102.0,334.0,113.0,335.0,123.5,332.5,125.5,338.0,129.5,349.5,130.5,358.5,133.5,347.5,156.0,356.5,138.5,365.0,134.5,367.5,141.0,375.0,134.0,377.0,127.5,383.5,123.5,377.5,124.5,384.0,128.5,391.0,111.0,395.5,113.5,399.0,115.0,389.5,108.0,399.0,113.0,420.5,106.5,415.5,110.5,426.0,102.5,426.5,104.5,426.0,103.5" stroke="orange" stroke-width="4" fill="none" />
<polyline points="419.5,124.0,415.0,134.5,427.5,142.5,424.5,131.5,422.0,139.5,417.5,141.5,406.0,146.0,423.0,149.5,411.5,168.5,407.0,166.0,401.5,161.0,409.5,173.0,408.5,176.0,407.0,177.5,401.5,181.5,398.0,188.5,392.0,201.0,403.5,199.5,386.0,192.0,387.5,211.0,379.0,207.5,374.0,209.5,368.5,216.5,372.5,214.5,372.5,208.5,372.0,203.5,382.5,208.0,387.5,197.5,388.5,190.5,385.0,195.5,402.0,187.5,407.0,177.0,410.0,176.5,406.0,171.5,415.0,175.5,413.0,172.5" stroke="green" stroke-width="1" fill="none" />
<polyline points="365.0,129.0,363.5,129.0,364.5,129.0,367.5,128.5,363.0,127.5" stroke="orange" stroke-width="2" fill="none" />
<polyline points="379.5,100.0" stroke="orange" stroke-width="4" fill="none" />
<polyline points="394.5,106.5,390.5,104.0,382.0,100.0" stroke="orange" stroke-width="1" fill="none" />
<polyline points="429.0,59.5,436.5,44.0,421.0,47.5,421.0,29.5,415.0,30.0,407.0,22.5,400.0,14.0,402.5,8.5,401.0,15.0,416.0,10.0,407.0,-6.5" stroke="yellow" stroke-width="2" fill="none" />
<polyline points="493.0,84.5,494.0,84.5,496.0,88.5,491.0,92.0,487.0,100.0,481.5,116.0,479.0,103.5,481.0,118.5,477.0,116.5,472.0,129.0,480.0,115.5,463.0,129.0,457.5,129.0,459.5,151.5,452.5,146.5,465.0,158.0,445.5,151.5,453.0,153.5,448.5,161.0,454.0,179.0,439.5,176.5,437.5,176.0,440.0,175.5,434.5,186.0,440.0,192.5,435.0,184.0,428.5,185.0,428.0,199.5,423.5,200.0,425.0,207.0,431.0,217.5,423.5,212.5,418.0,215.0,419.0,225.0,413.0,233.0,418.5,232.0,418.0,233.5,421.0,241.0,412.0,247.5,419.5,247.0,404.0,253.5,404.0,247.0,407.5,260.5,413.5,265.5,402.5,275.5,400.0,261.0,390.5,272.5,401.0,280.5,400.5,288.5,389.0,282.5,400.0,294.0,392.5,290.5,385.0,294.5,393.5,304.5,403.0,306.0,393.0,311.0,387.0,318.5,392.5,317.5,390.5,330.0,386.5,317.5,383.0,327.0,380.0,328.5,390.0,344.0,384.0,342.5" stroke="orange" stroke-width="3" fill="none" />
<polyline points="336.5,135.0,337.0,126.5,325.0,127.5,322.5,127.0,331.0,119.5,323.5,115.0,325.5,109.0,309.0,101.0,317.5,95.0,307.0,91.5,304.0,94.5,303.5,93.0,296.5,77.5,297.5,85.5,302.0,77.0,294.5,66.0,285.5,66.5,279.0,67.0,268.0,60.0,273.5,62.5,260.5,50.5,249.0,48.0,243.5,47.0,239.5,38.5,245.5,38.5,245.0,40.5" stroke="orange" stroke-width="3" fill="none" />
<polyline points="" stroke="yellow" stroke-width="3" fill="none" />
<polyline points="170.0,70.0,175.0,51.5,158.0,62.5,159.0,59.0,157.0,62.5,157.5,64.0,163.0,67.0,161.0,63.5,159.0,64.5" stroke="orange" stroke-width="4" fill="none" />
<polyline points="160.5,78.5,159.0,79.5,161.0,86.0,156.5,75.0,165.5,71.0,165.5,76.5,169.0,73.0" stroke="green" stroke-width="1" fill="none" />
<polyline points="162.0,79.0,163.0,77.5,159.0,85.5,151.5,63.0,153.5,76.0,154.0,75.5,162.0,79.5" stroke="green" stroke-width="4" fill="none" />
</svg>