<svg xmlns="http://www.w3.org/2000/svg" width="1024" height="1024" version="1.1" fill="white"><polyline points="409.0,1.5,405.5,2.0,405.5,6.0,411.5,9.0,410.0,14.5,414.0,18.5,415.0,22.5,420.0,25.5,419.0,30.0,422.0,34.0,427.0,34.5,430.5,42.0,430.0,43.5,436.0,50.0,432.0,55.0,434.0,58.5,437.0,61.0,438.5,66.5,441.5,71.0" stroke="black" stroke-width="1" fill="none" />
<polyline points="453.0,48.5,446.5,46.5,443.5,38.0,440.5,33.0,437.5,28.0,431.0,17.5,428.0,12.0,424.0,4.5" stroke="orange" stroke-width="1" fill="none" />
<polyline points="425.5,3.0,427.0,9.5,427.0,10.0,429.5,14.0,432.5,18.0,433.5,22.0,438.0,24.5,439.5,32.0,442.0,34.0,445.0,36.5,446.0,42.0,448.0,46.0,448.5,50.0,453.0,53.5,457.0,56.5,455.5,61.0,453.5,64.0,451.0,71.0,444.5,76.0,442.5,78.0,440.0,84.5,437.5,85.0,432.5,91.5,433.0,96.0,429.5,98.5,428.0,104.0,421.5,107.0,419.0,110.5,419.0,113.0,421.0,111.5,421.0,106.5,430.0,97.5,432.5,91.5,435.0,88.5,440.0,83.5,442.5,76.0,448.0,73.5,452.0,69.5,456.0,65.0,460.5,56.5,467.0,54.5,466.0,48.0,475.0,45.0,474.5,39.5,481.0,36.0,487.0,33.0,489.0,27.5,490.5,23.5,495.5,17.0,502.0,14.5,506.0,11.5,512.5,5.0,511.0,7.5" stroke="black" stroke-width="1" fill="none" />
<polyline points="514.0,7.0,504.5,11.5,503.0,15.0,498.0,19.0,495.0,22.5,490.5,26.5,487.0,30.5,485.0,34.5,479.0,38.5,475.5,43.0,471.5,47.0,467.5,51.0,463.0,55.0" stroke="black" stroke-width="1" fill="none" />
<polyline points="514.0,79.0,507.5,82.5,504.0,86.5,498.5,90.0,496.5,93.5,493.0,97.5,491.5,101.5,484.5,107.0,481.5,111.0,478.0,117.0,473.5,121.0,468.5,128.0,465.0,136.5,463.0,142.0,456.0,145.0" stroke="black" stroke-width="1" fill="none" />
<polyline points="451.5,154.5,449.5,160.5,446.5,166.0,442.5,175.5,442.0,177.0" stroke="black" stroke-width="1" fill="none" />
<polyline points="440.0,179.5,437.5,183.5" stroke="black" stroke-width="1" fill="none" />
<polyline points="429.0,202.5,425.0,211.5,426.0,213.5,421.0,219.0" stroke="yellow" stroke-width="1" fill="none" />
<polyline points="418.0,232.5,414.5,236.0,411.5,248.0" stroke="orange" stroke-width="1" fill="none" />
<polyline points="402.5,278.0,402.0,279.5,399.5,292.0" stroke="black" stroke-width="1" fill="none" />
<polyline points="380.5,291.0,379.0,288.5,380.5,282.5,381.0,276.0" stroke="orange" stroke-width="1" fill="none" />
<polyline points="378.5,270.5,376.0,266.5,376.5,261.0,376.5,258.0,372.5,255.5,372.0,251.5,373.0,249.0,371.0,242.0,370.0,237.5,369.5,233.5,370.0,230.0,370.5,226.0,371.0,222.0,372.0,218.0,374.0,214.5,370.0,220.5" stroke="green" stroke-width="1" fill="none" />
<polyline points="368.0,232.0,371.0,234.5,371.0,239.5,371.5,244.0,370.0,244.5" stroke="orange" stroke-width="1" fill="none" />
<polyline points="369.5,249.0,369.0,252.5,372.5,259.5,372.0,260.0,372.5,264.5,373.0,269.5,374.0,275.0,374.0,274.5,375.0,276.0,375.5,279.0,375.0,285.5,372.0,285.5" stroke="black" stroke-width="1" fill="none" />
<polyline points="369.5,277.0,374.5,278.0,374.0,284.5,370.5,287.5,372.5,289.0,375.0,293.5,378.0,300.5,379.0,304.0,374.0,306.5,379.0,312.0,380.0,315.5,380.0,317.5,377.0,321.0,379.5,327.0,376.0,328.0,381.0,336.5,381.0,339.0,378.0,343.5,380.0,346.0,383.0,352.0" stroke="black" stroke-width="1" fill="none" />
<polyline points="368.5,352.5,369.0,355.5,370.5,360.0,372.0,366.5,371.0,367.5,371.5,372.0" stroke="black" stroke-width="1" fill="none" />
<polyline points="372.0,376.0,372.0,378.5,373.5,384.0" stroke="black" stroke-width="1" fill="none" />
<polyline points="380.5,389.5,380.0,392.0,379.5,397.0,378.5,401.0" stroke="black" stroke-width="1" fill="none" />
<polyline points="363.5,430.0,359.5,423.5,355.5,417.0,352.5,415.5,349.0,407.0,343.0,405.0,339.0,402.0,335.0,399.5,330.0,398.5,327.5,396.0,324.5,396.5,320.5,392.5,316.0,389.5,310.5,390.0,308.0,390.0,304.5,389.5" stroke="black" stroke-width="1" fill="none" />
<polyline points="312.0,382.5,317.0,370.0,320.0,366.0,323.5,360.0,328.5,353.0,335.5,342.5,338.0,336.0,344.0,329.5,345.5,319.0,347.0,319.5" stroke="black" stroke-width="1" fill="none" />
<polyline points="351.5,332.5,353.5,327.5,355.0,332.5,352.0,337.5,351.5,338.5,354.0,339.5" stroke="black" stroke-width="1" fill="none" />
<polyline points="353.5,353.5,354.0,358.0,354.0,361.5,353.0,365.5,353.0,369.0,352.0,371.5,350.0,379.0,354.0,380.0,352.0,385.5,352.5,390.5,353.5,393.0,351.5,396.0,353.0,402.5,352.5,404.0,354.5,406.5,351.5,413.0" stroke="black" stroke-width="1" fill="none" />
<polyline points="360.5,385.5,360.0,382.5,360.0,377.5,363.0,373.5,360.0,368.0,357.5,367.0" stroke="black" stroke-width="1" fill="none" />
<polyline points="361.0,362.5,359.5,368.5,359.0,373.0,360.5,377.5,358.0,380.5" stroke="black" stroke-width="1" fill="none" />
<polyline points="352.5,356.0,355.5,358.0,354.0,364.0,353.5,367.5,352.5,369.0,354.0,375.5,356.5,379.0,354.0,383.0,353.0,386.5,354.5,391.5,354.0,394.0,355.0,399.5,355.5,403.5,355.5,407.5,356.5,411.5,353.5,411.0" stroke="orange" stroke-width="1" fill="none" />
<polyline points="374.5,464.0,372.5,461.5,371.0,458.5,371.5,453.5,372.5,449.5,372.0,445.5,372.5,441.0,373.0,436.5,373.5,432.5,374.5,430.5,374.5,424.5,376.0,419.5,376.0,416.0,375.0,409.5,376.5,408.0,377.0,404.5,377.5,400.5,379.0,397.5,375.0,394.0,380.5,387.5,378.0,384.5,377.5,381.5,380.0,378.5,377.0,371.0,377.5,368.0,378.5,364.0,379.0,360.0,379.5,358.5,378.5,352.0,379.5,348.0,375.5,346.0,376.0,340.5,375.5,337.0,375.0,333.0,373.5,330.0,373.5,324.0,370.0,320.5,372.5,317.5,370.5,314.0,370.5,311.0,371.0,304.5,370.0,300.0,371.0,296.5,370.5,292.5,370.0,288.0,369.5,284.0,369.0,278.0,369.5,276.0,372.0,273.5,366.5,265.5,370.0,262.5,365.5,260.5,367.5,256.5,367.0,252.5,367.5,249.0,366.0,244.0,364.5,240.0,364.0,235.5,364.5,232.5,363.5,228.0,362.5,221.5,362.0,220.5,360.5,217.5,357.5,209.5,357.0,208.5,354.5,206.0,351.0,201.0,347.5,200.0,349.0,196.0" stroke="black" stroke-width="1" fill="none" />
<polyline points="348.5,195.0,343.5,200.0,351.5,200.5" stroke="black" stroke-width="1" fill="none" />
<polyline points="348.5,203.0,348.5,200.0,353.5,206.0,357.5,213.5" stroke="black" stroke-width="1" fill="none" />
<polyline points="361.0,203.0" stroke="black" stroke-width="1" fill="none" />
<polyline points="361.5,193.0,356.5,196.0,360.5,200.0,362.0,204.0,361.0,208.0,362.0,207.0" stroke="black" stroke-width="1" fill="none" />
<polyline points="355.0,205.0,350.0,200.0,351.5,202.0" stroke="black" stroke-width="1" fill="none" />
<polyline points="351.5,199.0,352.0,205.0,357.0,209.0,359.5,205.0" stroke="black" stroke-width="1" fill="none" />
<polyline points="346.5,205.0,343.5,201.0" stroke="orange" stroke-width="1" fill="none" />
<polyline points="341.5,205.5,347.5,210.0,351.0,214.0,353.5,218.5,356.0,223.0,357.0,229.0,360.5,232.5,362.5,237.0,364.0,241.0,364.5,245.5,365.0,249.0" stroke="black" stroke-width="1" fill="none" />
<polyline points="364.5,249.0,366.5,247.0,365.0,244.5" stroke="black" stroke-width="1" fill="none" />
<polyline points="354.0,239.0,349.5,245.5,344.5,249.5,341.0,253.5" stroke="black" stroke-width="1" fill="none" />
<polyline points="342.0,256.0,338.0,256.0,335.5,256.0,334.0,256.5,331.0,256.5" stroke="black" stroke-width="1" fill="none" />
<polyline points="327.0,258.0,331.0,254.5,335.0,252.5,339.0,252.0,342.5,250.0,347.0,247.5,352.5,243.0,347.0,240.5" stroke="black" stroke-width="1" fill="none" />
<polyline points="351.5,254.0,347.5,256.5,345.5,258.0" stroke="black" stroke-width="1" fill="none" />
<polyline points="337.5,263.5,342.0,263.0,341.0,270.5,343.0,273.0,340.0,281.5,343.0,282.5,343.0,282.5" stroke="black" stroke-width="1" fill="none" />
<polyline points="336.0,280.0,340.5,281.5,345.0,277.5,349.0,278.5,349.5,282.5,349.0,288.0,351.0,291.0,350.5,295.5,350.0,299.0,348.5,304.0,348.0,308.5,344.5,312.0,347.0,314.0,345.0,317.5,343.0,321.0,339.0,322.5,339.0,326.5,337.0,332.0,335.0,335.5,336.0,341.0,332.0,346.0,330.0,348.5,327.5,352.5,328.0,355.5,325.5,362.5,321.0,364.0,319.0,368.0,317.5,372.5,316.0,376.5,315.0,382.5,314.5,386.0,312.5,388.5,318.5,392.0,327.5,396.0,334.5,400.5,342.0,404.5,347.0,408.5,350.5,412.5,355.0,416.0,355.5,422.5,360.0,424.5,360.5,428.5,360.5,430.5,364.5,436.5,365.0,440.5,367.0,443.5,365.5,449.0,366.0,451.0,369.0,460.0,370.0,462.0,372.5,464.0,372.5,470.5,373.0,473.0,376.0,477.5,377.5,481.0,378.0,483.0,380.0,489.0,382.0,495.0,381.0,499.0,382.0,500.0,386.0,503.5,384.5,508.5,388.0,511.5,388.0,511.5" stroke="orange" stroke-width="1" fill="none" />
<polyline points="424.0,492.0,426.5,494.0,432.0,494.0,433.5,491.0,437.0,488.0,441.0,483.5,445.0,480.0,449.0,475.5,452.0,470.0,456.5,466.5" stroke="black" stroke-width="1" fill="none" />
<polyline points="457.0,466.0,453.5,467.5,448.5,470.5,452.5,462.5" stroke="black" stroke-width="1" fill="none" />
<polyline points="455.5,451.0,460.0,442.0" stroke="black" stroke-width="1" fill="none" />
<polyline points="465.5,428.5,471.0,421.0,471.0,417.0,477.5,408.0,483.0,404.5,487.0,403.5,489.5,399.0,494.0,395.0,496.0,392.0,497.5,387.5,502.0,390.5,508.0,387.0,509.5,384.5" stroke="black" stroke-width="1" fill="none" />
<polyline points="510.5,384.0,512.5,382.0,504.5,387.0,493.5,390.5,492.0,395.0,486.0,399.5,480.0,406.0,476.0,406.0,473.5,410.0,474.5,416.0,471.5,418.0,469.0,422.5,468.0,428.0,466.0,431.5,462.5,437.0,462.0,441.0,459.0,444.0,457.0,447.0,455.5,451.0,454.5,455.0,454.5,459.0,453.0,462.5,451.0,466.5,449.0,470.5,449.5,475.0,446.0,477.0,443.0,483.5,439.0,487.5,432.5,492.5" stroke="black" stroke-width="1" fill="none" />
<polyline points="433.0,480.5,432.0,478.0,435.5,473.0,433.0,476.5,434.5,477.5,436.0,471.0,436.5,465.0,439.0,463.0,441.0,457.5,439.5,458.0,435.5,455.5,431.5,452.0" stroke="black" stroke-width="1" fill="none" />
<polyline points="432.5,455.5,429.5,449.5,430.5,450.0,431.0,443.0,433.5,439.5,434.0,437.0,436.5,429.0,434.0,434.5" stroke="black" stroke-width="1" fill="none" />
<polyline points="429.0,467.0,426.5,471.0,420.0,473.5,422.0,479.0,420.0,484.5,422.5,487.5,423.0,491.5" stroke="black" stroke-width="1" fill="none" />
<polyline points="418.0,468.5,419.5,472.5,423.0,477.0,427.0,473.0,433.5,468.0" stroke="orange" stroke-width="1" fill="none" />
<polyline points="483.0,416.5,478.5,417.5,482.0,413.5,487.5,408.5,487.5,404.0" stroke="black" stroke-width="1" fill="none" />
<polyline points="444.0,421.5,448.0,419.0,449.0,415.5,450.0,412.0,450.5,407.5,451.0,403.5,451.0,399.5,451.0,395.0,451.5,391.0,453.0,387.0,452.0,381.0,456.0,381.0,452.5,377.0,452.0,373.0,451.5,367.5" stroke="black" stroke-width="1" fill="none" />
<polyline points="383.0,344.5,384.0,340.5,382.5,338.0,385.0,334.0,383.5,329.0" stroke="yellow" stroke-width="1" fill="none" />
<polyline points="367.0,352.5,368.0,354.5,371.0,362.0,366.0,364.5,368.0,368.5,373.5,375.5,373.0,379.5,373.0,379.5,371.0,385.5" stroke="black" stroke-width="1" fill="none" />
<polyline points="317.5,345.5,318.5,340.5" stroke="yellow" stroke-width="1" fill="none" />
<polyline points="318.5,350.0,315.5,350.5,311.0,350.5,309.5,352.0" stroke="black" stroke-width="1" fill="none" />
<polyline points="310.5,357.0,307.0,352.5,301.5,355.0,297.5,355.5,293.5,354.5,295.0,354.5" stroke="yellow" stroke-width="1" fill="none" />
<polyline points="293.0,358.5,297.5,360.0,301.5,359.0,304.5,362.5,309.5,359.0,309.5,359.0,308.5,363.0" stroke="black" stroke-width="1" fill="none" />
<polyline points="314.0,348.5,306.5,348.0,304.5,348.5,302.0,346.0,296.5,349.0" stroke="yellow" stroke-width="1" fill="none" />
<polyline points="305.0,330.5,316.0,326.0,316.0,331.0,311.0,330.5,307.0,331.5" stroke="black" stroke-width="1" fill="none" />
<polyline points="308.5,329.0,304.0,328.0,299.5,324.0,296.5,326.0,295.0,324.0" stroke="green" stroke-width="1" fill="none" />
<polyline points="301.5,326.0,300.5,325.5,309.0,327.0" stroke="black" stroke-width="1" fill="none" />
<polyline points="317.5,328.5,317.5,328.5,321.0,324.5,323.5,321.0,322.5,317.5,322.0,313.5,324.0,309.5,320.5,304.5" stroke="black" stroke-width="1" fill="none" />
<polyline points="337.0,281.0,336.5,276.0" stroke="black" stroke-width="1" fill="none" />
<polyline points="336.0,274.5,335.0,274.5,338.5,270.5,337.0,266.0,333.5,266.5" stroke="black" stroke-width="1" fill="none" />
<polyline points="328.0,272.5,331.5,272.0,335.0,269.5,331.0,268.5,326.5,268.5" stroke="black" stroke-width="1" fill="none" />
<polyline points="325.5,268.5" stroke="black" stroke-width="1" fill="none" />
<polyline points="325.5,275.5,321.5,274.0" stroke="black" stroke-width="1" fill="none" />
<polyline points="318.5,272.5,322.0,266.0,325.5,262.0,331.0,261.5,334.0,259.5,338.0,258.5,340.0,259.5,344.0,259.0,348.0,253.0,351.0,250.0" stroke="black" stroke-width="1" fill="none" />
<polyline points="345.5,240.5,346.0,234.5,344.5,230.0,344.0,228.0,340.5,220.0,342.0,218.5,341.5,214.5,341.0,210.5,338.0,206.0" stroke="black" stroke-width="1" fill="none" />
<polyline points="336.5,203.5,343.5,198.5,347.5,198.0,348.5,196.0,353.0,191.0,359.5,188.0,363.0,188.5,366.0,185.0,370.0,183.5,374.5,182.5,376.0,181.5,382.0,179.5,386.0,177.0,390.0,174.5,393.5,173.5,398.0,171.0,405.0,169.0,407.5,170.5,403.0,172.5,403.5,176.5,398.0,179.5,393.5,184.5,387.5,188.5,384.5,190.0,386.5,187.5,389.5,186.5,391.0,184.5,397.0,179.0,401.5,174.5" stroke="black" stroke-width="1" fill="none" />
<polyline points="405.0,163.0,406.0,160.5,405.0,159.5,405.0,166.5,398.5,170.5,391.0,175.0,384.0,179.0" stroke="black" stroke-width="1" fill="none" />
<polyline points="373.5,181.5,361.0,184.0,357.0,189.5,350.0,193.5,342.5,197.5,337.0,202.5,338.5,203.5,343.0,208.5,347.0,214.0,351.5,211.0" stroke="black" stroke-width="1" fill="none" />
<polyline points="341.5,205.0" stroke="yellow" stroke-width="1" fill="none" />
<polyline points="339.0,207.0,343.5,214.5,341.5,213.0" stroke="black" stroke-width="1" fill="none" />
<polyline points="341.0,205.5,346.5,210.0,351.5,211.5,353.0,217.0,356.5,223.0" stroke="yellow" stroke-width="1" fill="none" />
<polyline points="352.0,209.0,350.5,210.5,346.0,206.5,344.0,204.5,340.0,202.0" stroke="black" stroke-width="1" fill="none" />
<polyline points="343.5,204.5,348.5,210.5,353.5,212.0" stroke="black" stroke-width="1" fill="none" />
<polyline points="348.5,203.0,344.5,200.0,346.5,199.5" stroke="black" stroke-width="1" fill="none" />
<polyline points="346.0,201.5,345.0,203.5,348.5,207.5,348.5,210.5" stroke="black" stroke-width="1" fill="none" />
<polyline points="364.0,195.0,360.5,191.5" stroke="black" stroke-width="1" fill="none" />
<polyline points="360.5,190.5,364.5,195.5,367.0,193.5,370.5,194.0,377.5,192.0" stroke="black" stroke-width="1" fill="none" />
<polyline points="396.5,154.5,396.0,159.0,391.5,162.0,391.5,163.5,387.0,169.5,384.0,173.0,380.5,177.0,383.5,173.0,387.5,166.0,391.0,159.0,392.5,154.0,394.0,153.5" stroke="black" stroke-width="1" fill="none" />
<polyline points="403.5,158.0,404.5,158.0,402.0,164.5,396.0,167.0,395.0,172.5,389.5,173.5,388.5,174.5,391.0,169.5,397.0,166.5,403.0,164.0,404.5,157.0" stroke="black" stroke-width="1" fill="none" />
<polyline points="395.0,124.0,392.5,127.5,389.0,131.0,385.5,132.5,383.0,135.0,388.0,131.0,393.0,126.5,400.5,120.0" stroke="black" stroke-width="1" fill="none" />
<polyline points="399.0,122.5,392.5,124.5,387.5,128.5,383.5,128.5,382.5,134.5,385.0,129.0,390.5,124.5,395.0,123.0" stroke="black" stroke-width="1" fill="none" />
<polyline points="398.0,114.0,392.5,116.5,387.0,122.0,379.0,127.0,376.5,130.0,372.5,134.0,364.0,138.0,357.5,141.5,353.0,144.5,347.0,148.0" stroke="black" stroke-width="1" fill="none" />
<polyline points="340.5,152.5,331.5,156.5,325.0,161.5,318.5,164.0,312.5,168.5,304.0,170.5,299.0,176.5,295.5,180.5" stroke="black" stroke-width="1" fill="none" />
<polyline points="293.0,178.5,290.5,177.5,286.5,176.0" stroke="black" stroke-width="1" fill="none" />
<polyline points="281.0,174.5,285.5,172.0,289.5,174.0,293.5,178.5" stroke="black" stroke-width="1" fill="none" />
<polyline points="287.5,180.0,284.0,177.5,278.5,177.5" stroke="black" stroke-width="1" fill="none" />
<polyline points="276.0,174.0,277.5,180.5" stroke="black" stroke-width="1" fill="none" />
<polyline points="279.0,178.5,276.5,181.0,273.0,180.5,269.0,180.0,265.5,179.0,261.5,177.0,259.5,174.0,251.0,175.5,251.0,170.5,244.5,171.0,240.5,169.0" stroke="black" stroke-width="1" fill="none" />
<polyline points="246.5,171.5,245.0,172.0,252.0,172.5,250.0,175.0,256.0,180.0,248.0,184.5,249.0,187.5,241.0,191.0,239.5,193.5,239.5,196.0,238.5,202.0,237.5,206.0,240.5,209.0,244.5,210.5,248.5,210.5,252.5,212.0,256.5,204.0,255.0,207.5,256.0,212.0,250.5,215.5,251.5,218.5,248.5,223.0,245.0,226.5,242.0,231.0,238.5,235.0,235.5,239.0,231.5,247.5,230.0,249.5,228.5,253.5,223.5,257.5,222.5,261.0,219.5,265.5,218.5,268.5,216.0,276.0,212.0,278.0,208.5,283.5,208.0,287.5,205.0,291.5,204.0,296.0,200.5,298.0,198.5,302.0,196.5,305.5,194.5,309.0,190.0,313.5,191.5,317.0,186.0,318.5,181.0,322.0,184.0,328.5,180.5,331.0,170.5,334.0,169.0,337.5,165.5,339.5,167.0,344.0" stroke="black" stroke-width="1" fill="none" />
<polyline points="158.5,347.0,158.0,347.5,158.0,348.5,155.0,353.0,158.0,356.5,157.5,362.5,156.0,365.5,156.5,367.0,155.5,372.0,156.5,374.0,156.5,381.5,155.0,379.5,152.5,390.5,156.5,393.0,151.0,398.0,157.5,400.5,163.0,404.5,167.0,409.0,168.0,411.5" stroke="green" stroke-width="1" fill="none" />
<polyline points="165.5,413.5,161.5,407.5" stroke="black" stroke-width="1" fill="none" />
<polyline points="160.5,407.5,163.0,409.5,166.5,411.5,168.0,415.5,165.5,419.0,169.5,425.0,170.0,430.0,167.5,431.0" stroke="black" stroke-width="1" fill="none" />
<polyline points="168.5,427.0,170.5,435.0" stroke="black" stroke-width="1" fill="none" />
<polyline points="178.5,440.0,174.5,443.5,177.5,445.5,183.0,444.5,184.5,442.5" stroke="black" stroke-width="1" fill="none" />
<polyline points="179.0,445.0,175.0,444.0" stroke="black" stroke-width="1" fill="none" />
<polyline points="176.0,443.0,176.5,450.0,177.5,454.0,176.5,457.5" stroke="black" stroke-width="1" fill="none" />
<polyline points="173.5,461.0,169.5,454.5" stroke="black" stroke-width="1" fill="none" />
<polyline points="169.5,454.5,172.0,458.5,171.5,466.0,172.0,469.5" stroke="black" stroke-width="1" fill="none" />
<polyline points="167.0,469.0,162.5,468.5,156.5,472.0,152.5,469.5,148.5,463.5,145.0,455.0,141.0,452.5,137.5,458.0,136.0,468.0" stroke="black" stroke-width="1" fill="none" />
<polyline points="141.5,461.5,140.0,469.0,147.0,466.5,149.0,475.0,152.5,480.5,156.5,482.5,152.0,483.5,160.5,482.5,157.0,489.5,161.0,495.5,163.5,493.5" stroke="black" stroke-width="1" fill="none" />
<polyline points="165.0,505.5,163.5,504.0,170.0,509.0" stroke="black" stroke-width="1" fill="none" />
<polyline points="166.5,509.5,165.5,503.5,158.5,510.0,154.0,505.0,152.0,498.5,150.5,494.5,146.0,492.0,144.0,488.0,140.0,487.0,139.5,478.0" stroke="yellow" stroke-width="1" fill="none" />
<polyline points="140.5,483.0,145.0,489.5,148.5,496.0,151.0,499.0,153.5,503.0,152.5,503.0" stroke="black" stroke-width="1" fill="none" />
<polyline points="150.5,504.5" stroke="black" stroke-width="1" fill="none" />
<polyline points="155.0,501.5,151.5,496.5" stroke="orange" stroke-width="1" fill="none" />
<polyline points="157.5,497.0" stroke="black" stroke-width="1" fill="none" />
<polyline points="151.0,493.0,153.0,486.5,148.5,484.0" stroke="yellow" stroke-width="1" fill="none" />
<polyline points="151.0,483.0,149.5,488.0,153.0,491.5,155.5,491.5,155.5,495.5,153.5,500.5,157.5,503.0,160.5,504.5,156.5,509.0" stroke="black" stroke-width="1" fill="none" />
<polyline points="156.0,506.0,151.5,503.5,147.5,496.5,148.0,491.5,142.0,482.5" stroke="black" stroke-width="1" fill="none" />
<polyline points="141.0,485.0,143.5,489.0,145.0,492.5,145.0,499.0,151.0,501.5,151.5,504.5,151.5,506.0,156.0,514.5" stroke="black" stroke-width="1" fill="none" />
<polyline points="152.5,510.5,147.5,501.5,144.0,494.5,142.0,493.0" stroke="green" stroke-width="1" fill="none" />
<polyline points="141.5,496.0,144.0,501.5,148.0,505.0,149.5,508.5" stroke="black" stroke-width="1" fill="none" />
<polyline points="141.0,513.0,143.0,509.0,141.0,505.0,139.0,502.0,140.0,496.5,135.5,490.5,134.5,486.0" stroke="black" stroke-width="1" fill="none" />
<polyline points="136.5,489.0,135.0,490.5,138.5,495.5,136.0,499.0,138.0,500.0,140.0,505.5" stroke="green" stroke-width="1" fill="none" />
<polyline points="132.5,507.5,135.5,501.5,130.5,497.0" stroke="black" stroke-width="1" fill="none" />
<polyline points="124.0,498.5,126.0,502.5,124.5,506.5,125.0,511.0,126.0,512.0" stroke="black" stroke-width="1" fill="none" />
<polyline points="126.5,510.0,125.5,505.0,125.5,501.5,127.0,500.0,124.5,492.5" stroke="orange" stroke-width="1" fill="none" />
<polyline points="127.5,497.0,130.0,505.5,133.0,509.0" stroke="black" stroke-width="1" fill="none" />
<polyline points="134.5,512.0,131.5,508.0,129.0,504.0" stroke="black" stroke-width="1" fill="none" />
<polyline points="139.0,495.0,139.5,487.5,134.5,486.5" stroke="black" stroke-width="1" fill="none" />
<polyline points="136.0,483.5,135.5,489.0,134.5,490.5,136.5,495.0,133.0,495.5,136.0,501.0,135.5,503.5,139.5,509.0" stroke="black" stroke-width="1" fill="none" />
<polyline points="157.0,502.5,159.5,503.5,162.5,510.0" stroke="black" stroke-width="1" fill="none" />
<polyline points="165.5,497.5,161.0,495.5" stroke="black" stroke-width="1" fill="none" />
<polyline points="169.5,490.0,168.0,485.5" stroke="black" stroke-width="1" fill="none" />
<polyline points="164.0,475.0,164.0,481.5,166.0,479.5,169.5,480.5,171.0,478.5" stroke="black" stroke-width="1" fill="none" />
<polyline points="163.0,471.0,168.0,476.0,170.0,478.5,167.0,482.5,167.0,487.5,168.0,490.5,168.5,493.0" stroke="black" stroke-width="1" fill="none" />
<polyline points="193.5,493.5,199.0,490.5,202.5,489.5,206.0,488.5,209.5,487.5,212.0,483.0,216.5,482.5,220.5,478.0,224.5,472.5" stroke="black" stroke-width="1" fill="none" />
<polyline points="232.5,465.0,236.5,458.5,232.0,460.5" stroke="black" stroke-width="1" fill="none" />
<polyline points="211.5,488.0,218.0,481.5,220.5,477.5,223.5,473.5,224.0,470.0,229.5,466.0,231.5,462.5,235.5,460.0,231.5,454.0,232.5,452.5,234.5,446.0,236.5,440.5,234.5,439.5,235.0,435.5,236.0,430.0,236.5,423.5,235.5,422.0,234.5,418.5,233.0,412.5,232.0,410.5,233.5,404.5,230.5,404.5" stroke="black" stroke-width="1" fill="none" />
<polyline points="221.0,412.0,221.0,417.0,223.0,415.0" stroke="black" stroke-width="1" fill="none" />
<polyline points="228.5,416.5,227.5,421.0" stroke="orange" stroke-width="1" fill="none" />
<polyline points="245.0,411.0,246.5,414.5,244.0,416.0,244.0,422.5,243.0,426.0,242.5,432.5,241.5,434.0,240.5,438.0,240.0,442.0,237.0,448.5,236.5,448.0,237.5,454.0,236.5,458.0,235.0,462.0,233.0,466.0,232.5,470.0,231.5,472.0,227.5,476.0,223.5,482.5,219.5,488.0,213.5,489.0" stroke="black" stroke-width="1" fill="none" />
<polyline points="200.0,495.5,196.0,498.5,199.5,495.5,203.0,495.5,207.0,494.0,209.5,497.0,215.0,490.5,219.0,487.5,223.5,483.5,227.5,479.5,228.5,479.0,232.0,472.0" stroke="black" stroke-width="1" fill="none" />
<polyline points="198.0,446.0,200.5,440.5,203.0,441.5,195.0,446.0,197.0,450.5" stroke="black" stroke-width="1" fill="none" />
<polyline points="197.0,449.0,194.0,448.5,190.0,448.0,186.5,447.5,182.5,446.5,178.5,450.0,179.5,448.5,179.0,450.5,185.5,441.5,181.0,437.5,181.5,435.5,177.5,435.0,181.0,429.5,181.5,426.0,180.5,422.0,179.0,418.0,176.5,412.0,176.0,410.0,173.0,407.0,171.5,401.5,168.5,397.5,165.5,393.5,160.5,389.5,156.0,386.5,160.0,379.5,161.5,379.5,164.5,382.5" stroke="green" stroke-width="1" fill="none" />
<polyline points="164.0,371.0,167.5,366.0,171.5,361.5,175.5,356.5,179.5,350.0,185.0,341.0,190.0,340.0,190.0,333.0,195.5,329.0,199.5,324.0" stroke="black" stroke-width="1" fill="none" />
<polyline points="196.5,316.5,201.5,317.0" stroke="black" stroke-width="1" fill="none" />
<polyline points="192.0,316.5,196.0,307.5,200.5,301.0,204.5,288.5,208.0,285.0,212.0,277.5,215.0,269.0,218.5,265.5,223.0,258.0,227.0,252.0,231.0,246.5,235.0,241.0,239.5,236.0,242.0,233.0,248.5,229.0,254.0,220.0,257.0,215.5,256.5,219.5" stroke="black" stroke-width="1" fill="none" />
<polyline points="266.0,228.0" stroke="black" stroke-width="1" fill="none" />
<polyline points="266.0,234.5,265.0,238.0" stroke="black" stroke-width="1" fill="none" />
<polyline points="261.0,236.5,264.0,234.5,259.5,229.5,262.0,226.0,262.0,224.5,258.0,223.5,253.0,229.0,249.0,232.0,242.5,236.0,240.5,243.0,236.5,248.0,232.5,253.5,230.5,260.0,224.5,265.0,218.0,269.0,216.5,279.0,212.0,281.5,216.0,279.0,219.0,274.0,218.5,271.0,223.5,264.5,225.5,263.5,228.5,257.5,231.5,256.0,234.5,251.5,237.5,247.5,240.5,243.5,243.5,240.0,248.5,236.0,253.0,233.5,255.5,227.0,259.5,223.0,259.5,216.5,264.0,217.5,262.5,216.5,261.5,209.5,264.5,210.0,268.0,202.5,268.0,199.5,270.0,195.5,269.0,194.0,269.5,187.0,265.0,192.0,263.5,198.5,257.0,201.5,252.5,203.0,252.0,205.0" stroke="black" stroke-width="1" fill="none" />
<polyline points="251.5,202.5,257.0,199.0,257.5,202.0" stroke="black" stroke-width="1" fill="none" />
<polyline points="263.0,199.0,257.0,207.0,257.0,214.0,251.5,217.5,251.0,221.0,246.0,227.0,240.5,231.0,234.0,235.0,233.0,236.0,232.5,234.5,231.5,230.5,231.0,226.5,230.5,222.0,229.0,218.5,226.5,212.5,225.5,214.0,224.5,210.0,226.5,204.0,226.5,202.5" stroke="black" stroke-width="1" fill="none" />
<polyline points="239.0,199.5,236.0,203.0,235.5,208.5" stroke="black" stroke-width="1" fill="none" />
<polyline points="235.5,205.5,239.0,199.0,239.0,199.5" stroke="black" stroke-width="1" fill="none" />
<polyline points="238.0,195.5,244.0,193.5,244.0,191.5" stroke="green" stroke-width="1" fill="none" />
<polyline points="244.0,202.5,244.5,193.0,251.5,192.0,256.0,190.5,252.5,191.5,244.5,191.0,243.5,194.0,248.0,190.5,251.5,189.0,255.0,184.5,256.0,188.0,260.5,185.5,263.5,184.5,270.5,178.5,269.5,178.5" stroke="black" stroke-width="1" fill="none" />
<polyline points="264.0,185.0,258.5,189.0,255.0,191.5,256.0,194.0,250.5,199.5,249.0,204.5,247.0,204.0,251.0,204.5,251.5,201.5,255.5,197.0,261.0,191.5,263.5,189.5,268.5,186.5,271.5,188.5" stroke="black" stroke-width="1" fill="none" />
<polyline points="265.5,193.0,263.0,192.0,257.5,195.5,256.5,203.5,261.0,195.5,264.0,194.0,266.5,190.0" stroke="black" stroke-width="1" fill="none" />
<polyline points="265.0,192.0,258.0,192.5,257.5,198.0,252.0,202.5,252.5,206.0,252.0,210.0,253.5,215.0,253.5,217.0" stroke="green" stroke-width="1" fill="none" />
<polyline points="266.0,206.0,265.0,202.0,262.5,202.0,260.5,206.0,258.5,209.5,258.0,213.0,255.5,218.0,252.5,221.0,249.5,224.5,248.0,223.5,242.0,232.5,239.5,236.5,237.5,238.5" stroke="black" stroke-width="1" fill="none" />
<polyline points="233.5,225.0" stroke="black" stroke-width="1" fill="none" />
<polyline points="231.0,220.5" stroke="black" stroke-width="1" fill="none" />
<polyline points="221.5,221.0,228.0,228.5" stroke="black" stroke-width="1" fill="none" />
<polyline points="219.5,232.5,221.0,238.5" stroke="green" stroke-width="1" fill="none" />
<polyline points="216.5,231.5,221.0,232.0,221.0,233.5,223.5,237.5,218.5,242.0,219.0,248.5,220.0,248.5" stroke="black" stroke-width="1" fill="none" />
<polyline points="221.0,249.5,220.5,246.5,227.5,244.0,225.0,238.5,228.0,234.5,222.5,237.0,224.5,229.0,221.0,230.5,220.5,226.0,223.0,223.5,220.0,217.5,220.0,214.0,217.0,214.0" stroke="black" stroke-width="1" fill="none" />
<polyline points="216.5,218.0,217.5,224.5,214.0,229.0,222.0,230.5,227.0,228.0,227.5,235.0" stroke="black" stroke-width="1" fill="none" />
<polyline points="231.0,245.0,225.0,250.5,223.0,256.5,218.5,262.0,212.0,266.0,209.5,272.5,206.0,280.5,203.0,285.5,197.5,294.5,196.0,305.0,190.0,311.0,186.5,316.5,182.5,324.5,178.0,328.5,174.0,328.5,167.5,332.0,166.5,331.5,162.0,339.0,158.0,341.5,154.5,343.5,148.5,348.0,146.0,350.5" stroke="black" stroke-width="1" fill="none" />
<polyline points="147.5,339.0,145.5,338.5,151.0,336.5,148.5,332.0,153.5,327.5,149.0,328.5" stroke="black" stroke-width="1" fill="none" />
<polyline points="153.5,328.5,151.5,333.0,155.0,334.5,150.5,337.0" stroke="black" stroke-width="1" fill="none" />
<polyline points="149.0,338.0,147.0,337.5,147.5,348.0" stroke="black" stroke-width="1" fill="none" />
<polyline points="142.5,349.5,139.0,348.5,139.0,339.5,136.0,338.0,135.0,334.5,134.5,330.5,132.5,327.5,129.5,320.5,131.0,319.0,133.0,313.5,131.5,313.0,128.5,303.0,130.5,300.0" stroke="black" stroke-width="1" fill="none" />
<polyline points="134.5,303.5,133.5,297.5" stroke="black" stroke-width="1" fill="none" />
<polyline points="138.5,292.0,134.0,296.0,130.0,298.5,126.0,301.0" stroke="black" stroke-width="1" fill="none" />
<polyline points="131.5,298.0,131.0,293.5,137.5,289.5" stroke="green" stroke-width="1" fill="none" />
<polyline points="130.5,279.5,135.5,282.5,137.5,278.5,141.5,275.0" stroke="black" stroke-width="1" fill="none" />
<polyline points="139.5,275.5,143.0,276.0,149.0,270.5,153.0,266.5" stroke="black" stroke-width="1" fill="none" />
<polyline points="153.5,268.0,155.0,269.5,154.0,273.5" stroke="black" stroke-width="1" fill="none" />
<polyline points="153.5,273.5,155.0,273.0,158.5,271.0,163.0,280.5" stroke="black" stroke-width="1" fill="none" />
<polyline points="169.0,280.0,167.5,279.0,170.0,275.5,169.0,271.5,165.5,265.5,167.5,260.0,168.5,255.5,168.0,252.0,173.5,251.0,170.0,256.5,168.0,251.0" stroke="black" stroke-width="1" fill="none" />
<polyline points="166.5,256.5,169.0,252.5,174.5,246.0" stroke="green" stroke-width="1" fill="none" />
<polyline points="171.0,252.5,174.5,257.0,176.0,261.5,176.0,264.5" stroke="orange" stroke-width="1" fill="none" />
<polyline points="176.5,261.0,174.0,257.5" stroke="yellow" stroke-width="1" fill="none" />
<polyline points="178.5,256.0,182.5,263.0" stroke="black" stroke-width="1" fill="none" />
<polyline points="185.0,258.0" stroke="black" stroke-width="1" fill="none" />
<polyline points="181.0,257.0,178.0,262.0" stroke="black" stroke-width="1" fill="none" />
<polyline points="186.5,256.0,183.0,258.5,185.0,262.0,183.5,266.0" stroke="black" stroke-width="1" fill="none" />
<polyline points="199.5,258.0,199.5,261.5,205.5,264.0" stroke="orange" stroke-width="1" fill="none" />
<polyline points="214.5,254.0,212.0,249.0,206.5,248.5,207.0,244.5,207.5,240.5,208.5,236.5,210.0,233.0,207.5,237.5,209.5,235.0" stroke="black" stroke-width="1" fill="none" />
<polyline points="209.5,237.5,210.5,236.0,209.5,240.0,209.0,243.5" stroke="black" stroke-width="1" fill="none" />
<polyline points="203.5,248.0,207.5,251.0" stroke="black" stroke-width="1" fill="none" />
<polyline points="206.5,250.0,209.5,256.5,214.0,257.5" stroke="black" stroke-width="1" fill="none" />
<polyline points="216.0,250.5,215.5,247.5,215.0,242.5,212.0,238.5,212.0,236.5" stroke="yellow" stroke-width="1" fill="none" />
<polyline points="213.5,236.5,214.0,240.0,215.0,245.0,214.0,251.5,211.5,251.5,214.5,255.5,215.5,256.5" stroke="black" stroke-width="1" fill="none" />
<polyline points="215.5,255.0,213.0,252.0,214.5,249.5,212.0,249.5" stroke="black" stroke-width="1" fill="none" />
<polyline points="204.5,264.0,203.0,268.0,200.0,265.0,197.5,261.5,196.0,253.0,192.5,250.0" stroke="black" stroke-width="1" fill="none" />
<polyline points="194.0,253.5,196.5,253.5,199.0,257.5,204.5,263.5" stroke="black" stroke-width="1" fill="none" />
<polyline points="187.5,272.5,184.0,269.0,181.5,268.5,184.5,263.5,183.5,258.0,184.5,256.0,184.5,250.0,185.5,244.5,192.5,241.5,192.0,237.5,199.0,236.5,195.5,239.0,189.5,243.0,183.0,244.5,185.5,244.5" stroke="black" stroke-width="1" fill="none" />
<polyline points="191.5,239.5,189.5,235.0,188.0,231.5,189.0,227.5,189.5,221.0,196.0,217.0,192.5,217.5" stroke="green" stroke-width="1" fill="none" />
<polyline points="186.5,223.0,187.0,215.5,187.0,223.0,188.5,227.0,184.5,230.0,185.5,235.0" stroke="yellow" stroke-width="1" fill="none" />
<polyline points="187.0,235.5,191.0,242.0" stroke="black" stroke-width="1" fill="none" />
<polyline points="197.5,233.5,192.5,239.0,190.0,245.0,187.5,246.5,193.0,243.0,196.5,238.5,198.5,234.5" stroke="black" stroke-width="1" fill="none" />
<polyline points="209.0,229.0,206.0,222.0" stroke="green" stroke-width="1" fill="none" />
<polyline points="211.5,215.0" stroke="black" stroke-width="1" fill="none" />
<polyline points="212.5,216.5,214.0,221.0,215.5,226.5,216.5,228.0,215.5,235.0" stroke="black" stroke-width="1" fill="none" />
<polyline points="220.0,207.5,224.0,201.0,226.5,198.0,223.0,202.5,220.5,208.0,219.5,211.5,222.5,214.5,221.0,220.5,223.5,223.0,228.5,226.0,230.5,230.0,231.0,233.5,233.0,238.5,232.5,239.0,233.5,246.5,231.0,246.5,227.0,253.5,225.0,253.5,221.0,259.5,218.5,263.5,216.0,267.0,214.0,271.0,211.0,275.5,209.5,279.5,206.5,281.0,203.0,287.5,200.0,290.0,199.0,296.0,195.0,300.5,195.5,304.0,193.5,308.0,192.0,312.0,189.5,315.5,190.0,318.5,194.5,321.0,199.0,320.0,205.5,313.0,208.5,309.5,210.5,305.0,216.5,297.0,220.5,292.0,222.0,284.5,226.0,280.5,233.0,275.5,239.5,270.5,241.5,268.0,248.0,266.5,252.0,259.0,253.5,256.0,259.5,255.5,260.0,249.0,263.0,247.5,269.5,244.0,275.5,242.5,278.5,247.5,284.5,249.0,288.0,252.5,290.5,250.5,297.0,251.0" stroke="yellow" stroke-width="1" fill="none" />
<polyline points="287.5,258.5,286.0,262.0,288.0,258.5" stroke="black" stroke-width="1" fill="none" />
<polyline points="288.0,260.0,289.0,268.5" stroke="black" stroke-width="1" fill="none" />
<polyline points="293.0,267.5,291.0,261.5" stroke="black" stroke-width="1" fill="none" />
<polyline points="285.5,270.0" stroke="black" stroke-width="1" fill="none" />
<polyline points="283.0,277.0" stroke="black" stroke-width="1" fill="none" />
<polyline points="287.5,270.0,284.5,270.5,279.5,268.0,277.0,265.0" stroke="black" stroke-width="1" fill="none" />
<polyline points="271.5,264.5,269.5,263.5" stroke="yellow" stroke-width="1" fill="none" />
<polyline points="271.5,266.5,266.5,270.0,264.0,266.5" stroke="black" stroke-width="1" fill="none" />
<polyline points="262.0,268.5,264.5,273.0,267.5,272.5,273.5,270.0,274.0,268.0,271.0,272.5,270.5,279.0,271.0,278.5,277.0,283.0" stroke="green" stroke-width="1" fill="none" />
<polyline points="263.0,280.5,264.5,276.5,258.5,274.0,258.0,270.0,258.0,269.0,257.5,267.0" stroke="black" stroke-width="1" fill="none" />
<polyline points="261.0,266.5,262.5,270.5,267.5,274.5,268.0,282.0" stroke="orange" stroke-width="1" fill="none" />
<polyline points="256.5,274.0,254.5,270.0,249.0,268.5" stroke="black" stroke-width="1" fill="none" />
<polyline points="248.0,268.0,251.0,266.5,250.0,270.5,254.0,274.5,258.5,276.5,262.0,277.0,265.0,280.5,270.5,277.0,277.0,280.5,280.5,280.5,283.5,272.5,280.0,276.0,280.0,282.0" stroke="black" stroke-width="1" fill="none" />
<polyline points="290.5,267.0,287.5,262.5,281.5,261.0,282.5,255.5,279.0,252.5" stroke="black" stroke-width="1" fill="none" />
<polyline points="275.5,253.0,274.0,249.0,270.0,248.5,263.0,253.0" stroke="black" stroke-width="1" fill="none" />
<polyline points="274.0,251.5" stroke="black" stroke-width="1" fill="none" />
<polyline points="278.5,258.0,276.5,258.0,273.0,255.0,270.0,256.5,268.0,257.0,261.5,257.0,259.0,259.0,255.0,260.0" stroke="black" stroke-width="1" fill="none" />
<polyline points="266.0,270.0,262.0,267.0,264.5,271.0" stroke="black" stroke-width="1" fill="none" />
<polyline points="277.0,263.0,279.5,267.5,284.5,271.5,286.0,275.5,287.0,278.5,285.5,278.0,289.0,276.5" stroke="black" stroke-width="1" fill="none" />
<polyline points="296.5,255.5,290.0,251.0" stroke="black" stroke-width="1" fill="none" />
<polyline points="274.5,242.5,265.5,243.0,264.0,246.0,257.5,253.0,251.0,255.0,250.0,261.0,243.5,265.5,240.5,270.0,235.5,271.5,232.5,278.5,229.5,282.0,226.5,289.0,224.5,289.0,220.0,296.5,214.5,296.5,213.0,302.0,210.0,305.5,206.5,308.5,206.0,311.0,202.5,316.5,200.0,321.0,195.0,326.0,191.0,328.5,191.5,333.0,188.5,336.5,185.5,340.5,185.5,347.0,179.5,349.0,177.5,353.0,177.5,355.5,171.5,364.0,168.5,365.5,164.5,369.5,161.5,374.0,157.5,380.5,159.0,381.5,161.5,388.0,165.5,393.5,169.0,399.0,173.5,403.5,177.5,411.5" stroke="black" stroke-width="1" fill="none" />
<polyline points="174.0,404.5,166.5,401.5,164.0,401.0,158.0,395.0,152.5,389.5" stroke="black" stroke-width="1" fill="none" />
<polyline points="153.5,385.0,153.0,380.5,152.0,380.5,150.0,381.5" stroke="black" stroke-width="1" fill="none" />
<polyline points="143.0,381.0,138.0,375.5" stroke="green" stroke-width="1" fill="none" />
<polyline points="132.0,378.0,134.0,373.0,142.5,373.0,141.0,373.0,144.0,381.0,146.0,380.5,146.5,385.0" stroke="black" stroke-width="1" fill="none" />
<polyline points="142.5,395.0,147.0,390.5,145.0,398.0,140.5,400.0,139.5,403.5,132.5,411.0,130.0,411.5,129.0,415.0,136.0,420.5,135.0,422.0,140.5,428.5,139.5,430.5,140.5,434.5,139.5,442.5,143.0,447.5,138.0,447.0,138.5,451.5,137.0,455.5,134.5,458.5,137.0,465.0,137.5,467.5,138.5,468.0,146.0,470.5,145.5,474.0,149.0,477.5,152.0,480.0,159.0,486.5,160.0,483.5,164.0,486.5,168.5,493.5" stroke="yellow" stroke-width="1" fill="none" />
<polyline points="171.5,458.5,168.0,462.5" stroke="black" stroke-width="1" fill="none" />
<polyline points="177.5,466.0,180.0,464.0,180.5,457.5,175.5,462.0,173.0,456.5,169.0,453.5,171.5,451.0,167.0,445.5,168.0,444.5,164.0,437.5,166.5,432.5,167.5,432.5" stroke="black" stroke-width="1" fill="none" />
<polyline points="168.0,435.0,161.5,434.5,160.5,434.0,163.0,429.5" stroke="black" stroke-width="1" fill="none" />
<polyline points="163.5,425.5,159.0,427.5,160.5,423.5,160.5,419.5,160.5,426.0,162.5,422.0,160.5,420.0,161.5,413.5,164.5,407.5,160.0,406.5,161.0,402.0,161.5,397.5,159.0,394.0,156.5,388.0,156.5,382.0,154.5,379.5,153.0,376.0,154.5,370.0,152.5,370.5,149.0,362.5" stroke="black" stroke-width="1" fill="none" />
<polyline points="145.0,363.0,150.5,365.0,150.5,366.5,150.5,370.5,151.5,375.0,147.5,379.0,151.5,383.5,146.5,389.0,155.5,389.0,159.0,392.0,162.5,396.5,168.5,399.0,172.5,402.5" stroke="black" stroke-width="1" fill="none" />
<polyline points="172.5,420.5,173.5,424.5,176.5,425.5,176.0,429.5,176.5,433.5,174.0,435.0,169.0,439.5,172.0,442.0,175.0,448.0,172.0,450.5,174.0,453.5,174.5,456.0,176.5,464.0,173.0,465.0,172.0,466.0,174.5,468.0,174.5,472.5" stroke="black" stroke-width="1" fill="none" />
<polyline points="178.0,459.5,174.0,458.0,170.0,451.0,167.0,443.0,166.0,445.0" stroke="green" stroke-width="1" fill="none" />
<polyline points="162.5,445.5,165.0,449.0,168.5,452.0,168.5,457.5,171.5,462.5,168.5,467.0,167.5,468.5,162.5,469.0,164.0,475.0,163.0,479.5,158.0,479.0,163.0,481.0,159.5,487.5,160.5,492.0,164.5,496.0,164.0,500.0,165.0,506.0,173.0,508.0,172.0,514.0,174.0,515.0" stroke="black" stroke-width="1" fill="none" />
<polyline points="155.5,466.5" stroke="black" stroke-width="1" fill="none" />
<polyline points="149.5,458.5,154.0,461.5,156.0,463.5,157.0,466.0" stroke="black" stroke-width="1" fill="none" />
<polyline points="159.0,461.0" stroke="black" stroke-width="1" fill="none" />
<polyline points="159.0,460.5,159.0,461.0,150.0,459.5,152.0,455.0,149.5,449.0,151.0,447.5,149.0,444.0,145.0,440.0,144.5,435.5,145.0,431.0,143.0,424.5,141.0,421.5,136.0,423.0,131.5,421.0,129.0,415.5" stroke="black" stroke-width="1" fill="none" />
<polyline points="130.0,412.0,133.5,410.0,141.5,400.0" stroke="black" stroke-width="1" fill="none" />
<polyline points="144.5,397.5,144.5,394.5,142.0,397.0" stroke="black" stroke-width="1" fill="none" />
<polyline points="145.0,397.5,142.0,404.5,149.0,406.5,150.5,412.5" stroke="black" stroke-width="1" fill="none" />
<polyline points="156.5,421.0,158.0,418.5,158.5,426.0,157.0,429.0,155.0,433.5,157.0,435.0,155.0,438.0" stroke="black" stroke-width="1" fill="none" />
<polyline points="161.0,445.5,166.0,441.5,171.0,447.5,172.5,445.5,176.5,440.5,180.0,441.5,181.5,432.0" stroke="black" stroke-width="1" fill="none" />
<polyline points="178.5,424.5,177.5,421.0,175.0,417.5,175.5,414.5,175.0,411.5,169.5,410.0,167.5,408.0,163.5,401.0,163.5,398.5" stroke="black" stroke-width="1" fill="none" />
<polyline points="168.0,401.0,172.0,407.5,173.5,412.5,171.5,417.5,169.5,422.0,171.0,427.5,165.5,426.0,166.0,430.0,164.5,434.5,162.5,435.5,164.0,429.5,167.5,427.0,168.0,425.0" stroke="black" stroke-width="1" fill="none" />
<polyline points="168.0,425.0,169.5,429.0,171.0,433.0,170.0,434.0,171.5,439.5,175.5,436.0" stroke="black" stroke-width="1" fill="none" />
<polyline points="166.0,440.5,162.0,442.0,161.0,446.0,159.0,450.5,157.0,454.5,161.0,457.0,166.0,460.5" stroke="black" stroke-width="1" fill="none" />
<polyline points="163.0,456.5,159.0,460.0,161.0,455.0,163.5,449.5,161.5,448.5" stroke="black" stroke-width="1" fill="none" />
<polyline points="151.5,455.0,145.0,452.0" stroke="black" stroke-width="1" fill="none" />
<polyline points="145.5,449.0,149.0,453.0,152.0,456.5,151.0,457.0,153.0,455.5,154.5,456.5,162.5,455.5,161.0,455.0" stroke="black" stroke-width="1" fill="none" />
<polyline points="151.5,448.5,152.0,450.5,146.0,447.0,144.0,448.0,136.5,448.0" stroke="black" stroke-width="1" fill="none" />
<polyline points="146.0,449.0,146.0,452.5,151.5,458.5,150.5,461.5,152.0,467.0,153.0,468.0,155.0,469.5,156.5,475.0,156.0,478.5,160.0,480.5,164.0,478.0,168.5,478.0,165.5,478.5" stroke="black" stroke-width="1" fill="none" />
<polyline points="152.0,471.5,147.0,467.0" stroke="black" stroke-width="1" fill="none" />
<polyline points="149.5,467.5,153.5,471.0,157.5,476.0" stroke="black" stroke-width="1" fill="none" />
<polyline points="153.5,474.5,150.0,473.5,145.5,467.5,142.0,465.0,141.0,461.5" stroke="orange" stroke-width="1" fill="none" />
<polyline points="139.5,453.5,141.5,458.0,143.0,461.5,143.5,465.5,144.5,467.0,147.5,472.5,149.0,477.0,158.5,482.0,158.5,479.5" stroke="black" stroke-width="1" fill="none" />
<polyline points="165.0,479.0,159.5,475.5,161.0,476.5,158.0,473.5,157.0,468.0,154.5,467.5,150.0,462.5" stroke="black" stroke-width="1" fill="none" />
<polyline points="140.5,451.5,145.5,454.5,145.5,459.0,146.5,465.0,147.5,466.5,148.5,470.5,151.5,474.0,155.0,477.5,160.5,478.5,161.0,481.0,156.0,484.5,159.0,490.5,160.5,495.5,163.5,498.5,165.5,502.5,165.0,506.0" stroke="black" stroke-width="1" fill="none" />
<polyline points="171.5,460.5,167.5,454.5,165.0,453.0,163.0,448.5,160.5,449.0,153.5,446.0,155.0,451.5,157.5,446.5,154.5,444.0,156.0,439.0,148.0,435.0,148.0,433.0,147.0,431.0,149.5,426.5,144.5,422.5,139.0,420.5" stroke="black" stroke-width="1" fill="none" />
<polyline points="142.5,423.5,144.5,424.0" stroke="black" stroke-width="1" fill="none" />
<polyline points="139.5,425.0,144.0,430.0,150.5,439.5" stroke="black" stroke-width="1" fill="none" />
<polyline points="150.0,423.5,145.5,415.5,141.5,413.0,136.0,410.0" stroke="green" stroke-width="1" fill="none" />
<polyline points="137.0,408.0,142.5,414.0,147.5,415.0,146.5,421.5,150.5,425.5,149.5,429.0" stroke="black" stroke-width="1" fill="none" />
<polyline points="151.5,420.5,152.0,417.0,154.5,413.5,152.5,404.0,149.0,402.5,148.5,397.5,148.0,395.0" stroke="black" stroke-width="1" fill="none" />
<polyline points="150.0,393.5" stroke="orange" stroke-width="1" fill="none" />
<polyline points="152.5,395.0,153.0,394.5,157.0,398.5" stroke="black" stroke-width="1" fill="none" />
<polyline points="146.5,399.0,143.0,396.5,136.0,399.5,129.5,398.0,126.5,399.5,123.5,398.0,118.5,394.0" stroke="black" stroke-width="1" fill="none" />
<polyline points="124.5,395.0,125.5,399.0,127.5,400.0" stroke="black" stroke-width="1" fill="none" />
<polyline points="130.5,407.0,132.0,401.5,135.0,396.5,140.5,392.5,142.5,390.0,144.5,385.0,142.5,385.5,144.0,380.5,148.0,375.0,148.0,371.0,149.0,367.0,149.0,364.5,145.5,358.0,146.0,355.5,144.5,354.0,142.5,349.0,139.5,345.0,138.0,341.0,137.5,337.0,134.5,333.0,135.5,331.0,135.5,322.0,136.0,320.0,134.5,316.0,133.5,312.0,129.0,309.5,130.5,304.5,128.5,298.0,133.5,295.5,136.5,292.5,135.5,285.0,130.0,283.5,126.5,278.0" stroke="black" stroke-width="1" fill="none" />
<polyline points="127.5,273.5,127.5,277.5,127.0,281.5,130.0,285.5,127.0,288.0,125.0,292.5,124.0,296.5,122.5,298.5,125.5,307.0,123.0,308.5,122.0,312.0,121.5,315.5,119.5,322.5,123.0,324.5,123.0,328.5,123.0,332.5,123.5,338.0,121.5,334.0" stroke="black" stroke-width="1" fill="none" />
<polyline points="118.0,338.0,120.0,343.5" stroke="green" stroke-width="1" fill="none" />
<polyline points="119.0,345.5,116.5,343.5,120.5,349.5,120.5,357.0,122.0,361.5,117.5,362.5,117.5,368.0,118.5,372.5,117.5,376.5,119.5,382.0,117.0,385.5,118.0,389.5,118.5,394.0,119.0,397.5,123.0,402.5,128.5,406.0" stroke="green" stroke-width="1" fill="none" />
<polyline points="128.0,403.5,123.0,399.5,120.0,395.0,120.5,393.5,119.0,389.5,123.5,382.0,120.5,381.0,121.5,377.0,118.0,378.5,120.0,372.0,117.0,371.5" stroke="black" stroke-width="1" fill="none" />
<polyline points="119.0,368.0,123.0,373.5,124.5,380.0,126.5,379.5" stroke="black" stroke-width="1" fill="none" />
<polyline points="124.0,385.5,128.5,386.5,124.5,393.5,125.5,396.5" stroke="yellow" stroke-width="1" fill="none" />
<polyline points="127.0,390.0,128.5,394.5,132.0,396.5,134.0,391.0,136.0,393.5" stroke="black" stroke-width="1" fill="none" />
<polyline points="135.5,388.0,126.5,388.5,122.5,390.0" stroke="orange" stroke-width="1" fill="none" />
<polyline points="116.0,400.0,114.5,404.0" stroke="black" stroke-width="1" fill="none" />
<polyline points="112.5,413.5,115.0,411.0,122.0,410.5,122.0,409.5,129.0,407.0,127.5,411.0,125.5,416.0,131.5,415.5,129.0,422.0" stroke="orange" stroke-width="1" fill="none" />
<polyline points="131.5,429.0,132.0,424.0,131.0,422.5,127.0,412.5,128.5,413.0" stroke="black" stroke-width="1" fill="none" />
<polyline points="127.5,413.0,131.5,408.0,135.5,404.0,135.0,401.5" stroke="black" stroke-width="1" fill="none" />
<polyline points="142.0,401.0,144.0,407.5,146.5,413.0" stroke="black" stroke-width="1" fill="none" />
<polyline points="146.0,405.5,140.0,402.5" stroke="black" stroke-width="1" fill="none" />
<polyline points="140.5,403.5,145.5,406.0" stroke="yellow" stroke-width="1" fill="none" />
<polyline points="151.0,408.5,147.0,398.5,146.5,394.0" stroke="black" stroke-width="1" fill="none" />
<polyline points="164.0,397.5,167.0,399.5,168.5,401.0,172.0,405.0,177.0,410.5,177.0,413.5,178.0,417.5,177.5,420.0,180.0,426.5" stroke="black" stroke-width="1" fill="none" />
<polyline points="177.0,416.5,175.0,410.5,163.0,413.5,160.5,404.5,157.0,398.0,151.0,401.5,148.0,396.5,148.0,390.0,143.5,385.0,141.0,391.0,137.0,388.0,136.0,382.0,142.0,375.0,139.0,377.0,136.0,373.0,138.5,367.5,138.0,368.0,142.0,363.5,142.5,360.0,142.5,356.0,142.5,353.0,136.0,346.5,133.5,346.5,135.0,338.0,132.5,335.0,130.0,329.5,132.0,330.0,130.5,326.0,128.0,317.0" stroke="orange" stroke-width="1" fill="none" />
<polyline points="122.0,325.0,118.0,325.0,120.0,331.5,120.5,335.5,121.5,339.5,122.0,340.0" stroke="black" stroke-width="1" fill="none" />
<polyline points="118.0,338.0,118.0,342.0,118.0,345.0,119.5,349.0,120.0,354.0,122.0,357.5,122.0,360.5,123.0,367.0,125.5,369.0,128.0,373.5,131.0,376.0,131.0,382.5,132.0,383.5,135.5,386.5,138.0,389.5" stroke="black" stroke-width="1" fill="none" />
<polyline points="144.5,368.0,140.0,366.0" stroke="green" stroke-width="1" fill="none" />
<polyline points="142.0,363.5,146.0,368.0,143.5,368.5" stroke="black" stroke-width="1" fill="none" />
<polyline points="135.0,362.5,130.0,359.0,134.5,353.5" stroke="yellow" stroke-width="1" fill="none" />
<polyline points="135.0,356.0,128.0,353.5" stroke="black" stroke-width="1" fill="none" />
<polyline points="132.0,352.5,132.5,358.5,135.0,361.0,137.5,369.0" stroke="black" stroke-width="1" fill="none" />
<polyline points="149.5,367.5,143.0,361.5,140.0,354.5,139.0,354.5,140.0,348.5,136.0,344.5,135.5,340.0,134.0,336.0,133.5,332.0,128.5,335.0" stroke="yellow" stroke-width="1" fill="none" />
<polyline points="128.5,339.5,130.0,341.5,136.0,338.5,140.0,344.5" stroke="green" stroke-width="1" fill="none" />
<polyline points="143.5,338.0,141.0,341.0,139.5,335.0,139.5,328.5" stroke="black" stroke-width="1" fill="none" />
<polyline points="133.0,348.0,137.0,352.0" stroke="black" stroke-width="1" fill="none" />
<polyline points="131.0,348.0,127.0,342.5" stroke="black" stroke-width="1" fill="none" />
<polyline points="114.0,343.0,115.0,347.0,116.0,350.0,115.0,355.0,112.5,358.0,116.0,362.0,115.5,366.5,108.0,371.0,110.0,378.0,115.0,379.0,111.0,387.5,115.0,387.0,115.0,391.0,115.0,395.5,118.0,399.5,121.0,403.5,120.0,408.0,115.0,412.0,105.0,413.5,113.5,412.0,117.5,410.5" stroke="black" stroke-width="1" fill="none" />
<polyline points="123.0,405.5,121.5,411.5" stroke="black" stroke-width="1" fill="none" />
<polyline points="118.5,416.5,125.0,422.5,129.0,425.5" stroke="black" stroke-width="1" fill="none" />
<polyline points="131.0,430.5,125.0,426.5,120.0,421.5" stroke="yellow" stroke-width="1" fill="none" />
<polyline points="122.5,418.5,124.5,420.0,127.5,428.5" stroke="yellow" stroke-width="1" fill="none" />
<polyline points="121.5,431.0,118.5,434.5,119.0,439.0,117.5,443.0,120.5,443.0,117.5,438.5" stroke="black" stroke-width="1" fill="none" />
<polyline points="119.0,444.0" stroke="black" stroke-width="1" fill="none" />
<polyline points="122.0,454.5,121.5,453.5,126.0,456.0" stroke="black" stroke-width="1" fill="none" />
<polyline points="123.5,451.5,124.5,454.0,125.5,448.0,122.0,452.0" stroke="black" stroke-width="1" fill="none" />
<polyline points="111.0,444.0,106.5,442.5" stroke="black" stroke-width="1" fill="none" />
<polyline points="103.0,437.5,103.5,442.5,103.5,446.5" stroke="black" stroke-width="1" fill="none" />
<polyline points="96.0,450.0,93.0,456.5,87.5,459.5,84.5,454.5,92.0,457.0,94.5,450.5,91.5,453.0" stroke="black" stroke-width="1" fill="none" />
<polyline points="87.0,460.5,85.5,459.5,90.5,457.5,94.5,455.5" stroke="green" stroke-width="1" fill="none" />
<polyline points="91.0,470.0,96.0,467.5,88.0,474.0,91.5,472.5,89.5,467.0" stroke="black" stroke-width="1" fill="none" />
<polyline points="97.5,491.5,97.5,497.5,97.0,496.5,100.5,502.5,102.5,506.5,105.0,510.0" stroke="black" stroke-width="1" fill="none" />
<polyline points="106.5,512.0,106.5,504.5,110.5,501.5,111.0,497.0,113.0,492.5,113.5,488.5,115.0,488.5" stroke="orange" stroke-width="1" fill="none" />
<polyline points="115.0,493.0,114.5,497.0,114.0,501.5,112.0,505.5,111.5,509.0,110.5,512.5" stroke="orange" stroke-width="1" fill="none" />
<polyline points="103.5,507.0,99.5,502.5" stroke="black" stroke-width="1" fill="none" />
<polyline points="101.5,493.0,100.5,496.5,101.5,500.5,103.5,504.0,105.5,508.0,107.0,512.0,107.5,511.0" stroke="black" stroke-width="1" fill="none" />
<polyline points="121.5,508.5,120.0,507.5,119.5,503.5,120.5,499.5,116.5,497.5,120.5,493.5,118.0,489.5" stroke="black" stroke-width="1" fill="none" />
<polyline points="122.0,482.5,123.5,487.5,126.5,491.0,130.5,494.5,129.5,499.0,132.0,503.5,132.0,507.0,134.5,511.0" stroke="black" stroke-width="1" fill="none" />
<polyline points="152.5,448.0,148.5,443.0,146.0,437.0,137.0,428.0,135.5,423.5" stroke="black" stroke-width="1" fill="none" />
<polyline points="131.0,420.0,134.5,424.0,136.5,430.5,137.0,432.0,138.0,436.0,141.0,441.5,141.5,446.0,143.0,450.0,136.5,452.0,136.5,457.5,135.0,461.5,133.5,465.5,137.0,458.5" stroke="black" stroke-width="1" fill="none" />
<polyline points="142.0,436.0,138.0,433.5,137.0,429.0,139.0,429.0" stroke="black" stroke-width="1" fill="none" />
<polyline points="129.0,430.5,126.5,424.5,122.0,421.5,125.0,419.0" stroke="black" stroke-width="1" fill="none" />
<polyline points="112.0,420.5,109.5,418.0,114.5,424.5,111.5,427.0,114.0,430.5,115.5,432.5" stroke="black" stroke-width="1" fill="none" />
<polyline points="115.0,430.0,115.0,426.0" stroke="black" stroke-width="1" fill="none" />
<polyline points="108.5,417.5,112.0,422.0,109.0,426.5,109.0,430.5,108.5,433.0,109.0,436.0,105.0,440.0,107.0,448.0,107.0,449.5" stroke="black" stroke-width="1" fill="none" />
<polyline points="100.0,440.0,96.5,444.5,94.0,443.5,95.5,448.0,94.5,443.5,99.0,439.5,103.0,435.5,104.5,431.0,105.5,425.5,105.5,420.5,106.0,418.0,109.5,416.5,104.0,418.0" stroke="black" stroke-width="1" fill="none" />
<polyline points="93.5,415.0,87.0,423.0,87.5,425.0,88.5,423.0" stroke="black" stroke-width="1" fill="none" />
<polyline points="86.5,426.5,87.5,425.0,91.0,418.5" stroke="black" stroke-width="1" fill="none" />
<polyline points="94.5,405.0" stroke="black" stroke-width="1" fill="none" />
<polyline points="98.0,401.5,93.0,397.5" stroke="black" stroke-width="1" fill="none" />
<polyline points="89.5,395.5,94.0,397.5" stroke="black" stroke-width="1" fill="none" />
<polyline points="102.0,410.0,98.0,410.5,97.5,408.5,96.0,404.5,93.5,403.0,94.0,400.5,89.5,398.0,91.0,389.5,89.5,386.5,90.5,382.5,86.0,384.5,84.5,387.5" stroke="black" stroke-width="1" fill="none" />
<polyline points="83.0,386.0,79.5,389.5,77.0,391.0,79.0,395.0,73.5,400.5,73.0,406.5,71.5,409.5,72.5,411.5,69.0,415.0,67.0,417.5,68.0,420.0,66.0,426.5,69.0,425.5,69.0,429.5,68.0,432.5,72.0,433.0,68.5,438.5,69.5,442.5,70.0,447.0,68.5,449.5,73.0,456.0,72.5,461.5,70.0,462.5,67.5,464.5,67.5,471.0,66.5,475.0,65.0,479.0,64.5,483.5,65.0,487.5,65.0,492.0,67.5,498.5,64.0,498.5,62.5,504.5,64.5,505.5,60.0,509.5,63.0,511.5,64.5,508.5" stroke="black" stroke-width="1" fill="none" />
<polyline points="68.5,509.5,65.5,513.0" stroke="black" stroke-width="1" fill="none" />
<polyline points="71.0,494.5,72.0,493.0,73.0,489.0,73.0,485.0,73.5,481.0,71.5,477.5" stroke="black" stroke-width="1" fill="none" />
<polyline points="64.5,475.0,67.5,473.5,67.5,477.0,65.0,480.0,67.5,485.0,67.0,488.5,69.0,494.5,70.0,494.0" stroke="black" stroke-width="1" fill="none" />
<polyline points="72.5,465.5,72.5,461.5,74.0,456.0,72.5,452.5,77.0,452.0" stroke="yellow" stroke-width="1" fill="none" />
<polyline points="71.5,457.0,74.5,458.0,73.0,460.5,73.0,464.0,75.5,468.5,75.0,473.0" stroke="black" stroke-width="1" fill="none" />
<polyline points="66.5,450.5,65.5,450.0" stroke="black" stroke-width="1" fill="none" />
<polyline points="66.0,454.5,65.5,452.0,65.0,456.0,64.5,460.5,67.0,463.0,71.0,465.0,70.0,470.5,70.0,474.5,69.5,478.5,69.5,483.0" stroke="black" stroke-width="1" fill="none" />
<polyline points="32.0,494.0,27.5,499.5,29.0,502.0,33.5,506.0,35.0,510.5,32.5,508.5" stroke="black" stroke-width="1" fill="none" />
<polyline points="16.0,506.5,17.0,504.5,18.0,503.0,17.0,500.0,17.0,502.0" stroke="black" stroke-width="1" fill="none" />
<polyline points="17.0,506.5,16.5,502.0,16.5,498.0" stroke="black" stroke-width="1" fill="none" />
<polyline points="10.5,427.5,5.0,418.0,2.0,419.0" stroke="black" stroke-width="1" fill="none" />
<polyline points="2.5,420.5,3.0,428.0,9.5,431.5,10.0,435.0,4.0,436.5,10.5,443.5,13.0,445.5,12.5,449.5,13.0,453.5,13.5,457.5,9.5,458.5,14.0,464.0,15.5,468.0,16.0,472.0,10.5,475.0,14.0,478.5" stroke="black" stroke-width="1" fill="none" />
<polyline points="35.5,458.5,35.5,456.5,33.0,449.0,34.0,447.0,35.0,441.0,32.5,439.5,32.0,434.0,31.5,426.5,32.0,424.5" stroke="black" stroke-width="1" fill="none" />
<polyline points="25.0,418.5,22.5,412.0,21.5,414.0" stroke="orange" stroke-width="1" fill="none" />
<polyline points="24.0,411.5,26.5,415.5,28.0,419.5,28.0,422.5,26.0,429.0,27.5,432.0,26.5,436.0,27.0,440.0,25.0,442.5,27.5,449.0,27.5,453.0,31.0,456.5,28.5,461.0,26.0,466.0,27.5,469.5,27.5,469.5,30.5,475.0,31.5,478.0,32.5,482.0,29.5,487.5,30.5,492.5,30.0,495.0,32.0,500.0,31.0,503.5" stroke="black" stroke-width="1" fill="none" />
<polyline points="67.5,436.5,67.5,433.0,67.5,436.5" stroke="black" stroke-width="1" fill="none" />
<polyline points="70.5,429.0,69.0,423.5,65.0,420.5,64.5,416.5,64.0,413.5,70.0,409.5,70.0,405.0,73.0,401.0,74.5,397.5,75.0,397.5,76.5,399.0" stroke="green" stroke-width="1" fill="none" />
<polyline points="72.5,404.0,76.5,402.5" stroke="black" stroke-width="1" fill="none" />
<polyline points="80.0,387.5,78.0,396.0,74.0,402.0,70.0,406.0,65.5,408.5" stroke="black" stroke-width="1" fill="none" />
<polyline points="66.5,415.0,70.0,405.0,67.0,409.5,66.0,413.0,67.0,418.0,68.5,422.5" stroke="black" stroke-width="1" fill="none" />
<polyline points="67.5,413.5,72.5,417.0,73.0,423.5,71.5,424.0" stroke="green" stroke-width="1" fill="none" />
<polyline points="102.5,435.5,100.5,439.5,98.0,442.0,102.0,439.0,103.0,439.0" stroke="black" stroke-width="1" fill="none" />
<polyline points="112.0,407.0,111.0,408.5,112.5,403.5,115.0,399.5" stroke="black" stroke-width="1" fill="none" />
<polyline points="108.0,392.5,105.0,395.5,109.5,402.0,109.0,406.0,106.0,410.0,96.0,414.0,101.5,416.0,100.0,419.0" stroke="black" stroke-width="1" fill="none" />
<polyline points="109.5,403.0,106.5,399.5,104.5,395.0,105.5,392.5" stroke="green" stroke-width="1" fill="none" />
<polyline points="105.5,380.0,108.0,375.0,107.0,372.0,104.5,368.0,108.0,364.0,107.0,360.0,108.5,356.0,109.0,352.0,106.0,345.0,105.0,341.0,105.5,339.0" stroke="black" stroke-width="1" fill="none" />
<polyline points="101.0,342.5,106.5,341.0,113.0,339.0,112.5,327.0,119.0,323.0,116.0,321.5" stroke="black" stroke-width="1" fill="none" />
<polyline points="117.0,324.0,116.0,328.5,117.5,329.0" stroke="black" stroke-width="1" fill="none" />
<polyline points="102.5,322.5,109.5,318.0,113.0,315.5,116.5,307.5,116.0,311.5,115.0,313.5,113.0,320.0,107.5,320.0,105.0,319.0,109.5,315.0,110.5,313.0,108.0,314.5,105.0,320.0,106.0,323.0,106.0,316.0,112.0,314.5" stroke="black" stroke-width="1" fill="none" />
<polyline points="119.5,309.0,116.5,314.5,115.5,319.0,114.0,320.5,112.0,325.0,109.0,329.0,103.5,333.0,98.5,337.5" stroke="yellow" stroke-width="1" fill="none" />
<polyline points="99.5,350.0,97.0,351.0,92.0,356.0" stroke="black" stroke-width="1" fill="none" />
<polyline points="96.0,357.0,95.5,361.0,95.5,366.5,93.5,368.0,95.5,371.0,94.5,379.0,90.0,384.0,89.0,387.5,87.0,387.5,88.0,391.5,90.5,394.0,90.0,399.5,95.0,404.5,91.0,407.5,92.0,408.5,99.0,410.5,98.5,413.5,107.5,411.5,108.5,405.0,115.0,401.0" stroke="yellow" stroke-width="1" fill="none" />
<polyline points="125.5,367.5,120.0,359.5" stroke="black" stroke-width="1" fill="none" />
<polyline points="120.0,365.0,121.5,369.5,124.5,374.0,128.0,380.5,130.5,380.5,131.5,386.5,136.0,389.5,134.0,396.0,135.0,397.5" stroke="orange" stroke-width="1" fill="none" />
<polyline points="128.0,376.0,122.0,369.0" stroke="black" stroke-width="1" fill="none" />
<polyline points="123.0,365.0,122.5,370.0,124.5,373.5,126.5,377.5,129.0,382.0" stroke="black" stroke-width="1" fill="none" />
<polyline points="133.5,362.5,127.5,362.0,125.5,358.5" stroke="black" stroke-width="1" fill="none" />
<polyline points="121.5,357.0,124.0,360.0,127.0,363.0,128.0,366.0,130.5,368.5,133.5,367.5,137.0,370.5,147.0,372.5" stroke="orange" stroke-width="1" fill="none" />
<polyline points="162.5,364.0,168.0,360.0,169.0,359.5,173.0,351.5,178.0,344.5,182.5,341.5,186.5,335.0" stroke="yellow" stroke-width="1" fill="none" />
<polyline points="191.5,330.5,184.5,332.0,180.0,331.5,178.5,339.5,170.0,344.0,168.5,348.5,162.5,353.5,161.0,360.0,157.5,368.5,161.5,367.0,165.5,362.0,172.0,360.0,174.0,353.5,177.5,349.0,177.5,342.5,183.0,341.0,186.0,337.5,184.0,334.5,188.5,333.5,191.0,329.5,193.0,328.5" stroke="black" stroke-width="1" fill="none" />
<polyline points="191.0,344.5,191.5,345.5,191.5,349.5,190.0,353.5" stroke="black" stroke-width="1" fill="none" />
<polyline points="194.5,350.5,194.5,345.5" stroke="black" stroke-width="1" fill="none" />
<polyline points="165.5,359.0,164.5,361.0,165.0,360.0" stroke="black" stroke-width="1" fill="none" />
<polyline points="165.0,365.0,167.5,361.5,163.5,367.0,159.0,367.5,160.0,363.0,163.5,358.5,165.5,355.0,168.0,351.0,168.5,349.0,174.5,342.5,177.0,338.5,179.0,335.0,182.0,331.0,179.0,329.5,175.0,336.0,170.5,336.0,167.0,338.5,165.5,336.5,167.0,332.5,167.0,334.0" stroke="green" stroke-width="1" fill="none" />
<polyline points="162.5,333.5,163.5,331.5,159.5,336.0,158.0,337.0,162.0,330.0,164.5,326.0,166.5,322.0" stroke="black" stroke-width="1" fill="none" />
<polyline points="163.5,319.5,167.5,320.5,171.5,319.5" stroke="black" stroke-width="1" fill="none" />
<polyline points="172.5,318.0,169.0,320.5,168.0,323.0,166.0,321.5,162.5,327.0,156.5,331.5,154.5,338.5,150.5,341.5,148.5,336.5,144.5,343.0,143.0,341.0,142.0,336.0,139.5,332.5,141.0,331.0,138.0,325.0,136.0,321.0,135.0,317.0,134.5,313.0,132.0,310.5,131.5,304.5,130.5,300.5,134.0,301.5,135.0,295.5,140.0,291.5,140.5,287.5,140.5,281.5,140.0,281.5,136.5,281.0,132.5,278.5,138.5,282.0,139.0,276.5,143.5,273.0,142.0,272.0,146.0,268.0,151.5,264.5,156.0,257.5,159.5,253.5,162.0,249.0,163.0,245.0,159.5,244.0,156.0,247.5,152.5,252.0" stroke="black" stroke-width="1" fill="none" />
<polyline points="149.0,251.0,145.0,252.0" stroke="orange" stroke-width="1" fill="none" />
<polyline points="144.5,252.5,148.5,249.0,148.0,249.0,145.5,253.5,149.5,255.0,149.0,258.0" stroke="black" stroke-width="1" fill="none" />
<polyline points="148.0,268.0,148.0,269.5,142.5,271.5" stroke="black" stroke-width="1" fill="none" />
<polyline points="154.0,267.0,158.0,262.0,162.0,256.0,156.0,255.5,158.0,260.5,152.5,266.0,146.0,271.5,148.0,274.0,147.5,278.0,148.0,282.0,149.0,286.0,151.0,289.0,158.0,291.0,162.0,296.5,164.0,297.5,159.0,303.0,159.0,311.0,160.0,312.5,158.0,317.0,156.5,317.0,158.0,319.5,162.0,315.5,163.5,317.5,166.5,313.0,169.0,310.5,172.5,306.5,174.5,300.5,180.0,293.0" stroke="black" stroke-width="1" fill="none" />
<polyline points="179.5,300.0,183.5,305.0,181.5,305.0" stroke="black" stroke-width="1" fill="none" />
<polyline points="180.0,308.5,176.0,305.0" stroke="yellow" stroke-width="1" fill="none" />
<polyline points="178.0,303.0,181.5,305.5,182.5,312.0,181.0,311.5,182.5,313.5" stroke="black" stroke-width="1" fill="none" />
<polyline points="173.0,315.5,169.5,315.0,166.0,318.5,169.5,316.5" stroke="black" stroke-width="1" fill="none" />
<polyline points="163.5,302.5,163.0,298.5,169.0,293.0,172.5,289.0,173.5,287.0,168.5,289.0,164.5,291.5,162.0,290.5,162.0,287.0,169.0,282.0,172.0,278.5,174.0,280.0,172.5,279.0,168.5,283.5,166.0,282.5,163.0,284.0,160.5,286.5,161.0,287.0,162.5,280.5,163.5,276.5,160.5,275.5,161.0,272.5,164.0,267.0,167.5,262.5,168.5,259.5,168.5,253.5,171.0,252.0,173.0,247.5,174.5,244.0,175.0,240.0,174.5,236.5,178.5,233.0" stroke="black" stroke-width="1" fill="none" />
<polyline points="175.0,236.0,180.0,233.5,177.5,238.5,174.5,244.5,181.0,247.0,178.0,248.5,178.0,252.5,179.0,256.0,180.5,259.5,184.5,261.0" stroke="orange" stroke-width="1" fill="none" />
<polyline points="183.5,253.0,187.0,251.5,191.5,252.0,192.0,256.0,193.0,259.5,196.5,263.5,202.0,265.0,205.5,269.5" stroke="green" stroke-width="1" fill="none" />
<polyline points="223.5,270.0,220.5,275.5,224.0,271.5" stroke="black" stroke-width="1" fill="none" />
<polyline points="227.0,310.0,220.5,313.5,217.5,314.0,220.0,320.5,217.5,321.5,224.5,329.0,217.5,330.0,217.0,334.0,217.0,338.0,217.5,342.0,224.5,347.5,220.5,351.0,218.0,354.0,224.0,360.5" stroke="orange" stroke-width="1" fill="none" />
<polyline points="251.0,383.5,254.0,385.0,256.0,384.5,261.0,384.5" stroke="black" stroke-width="1" fill="none" />
<polyline points="264.0,388.5,260.5,391.0,257.0,388.5,254.5,389.0,251.0,389.0,243.5,391.0,236.5,394.5,245.0,389.0,246.5,387.0" stroke="orange" stroke-width="1" fill="none" />
<polyline points="270.0,354.0,274.0,354.5,278.0,356.0" stroke="green" stroke-width="1" fill="none" />
<polyline points="277.5,353.5,273.0,354.0,274.0,352.5,267.5,351.5" stroke="green" stroke-width="1" fill="none" />
<polyline points="220.5,368.0,222.0,364.5,223.0,358.0,220.0,356.0,219.5,352.0,219.0,348.0,223.5,343.0,223.0,341.5,222.0,333.5,222.0,329.5,221.0,326.0,218.5,321.5,220.0,318.0,220.0,314.5,219.0,311.0,219.5,306.5" stroke="yellow" stroke-width="1" fill="none" />
<polyline points="178.5,306.5,177.0,306.5,176.0,300.5" stroke="black" stroke-width="1" fill="none" />
<polyline points="171.0,296.0,172.5,299.5,176.0,306.0,176.5,310.5,174.0,317.0" stroke="green" stroke-width="1" fill="none" />
<polyline points="160.0,315.0,159.5,312.0,157.5,311.0" stroke="black" stroke-width="1" fill="none" />
<polyline points="154.5,314.5,161.0,314.5" stroke="black" stroke-width="1" fill="none" />
<polyline points="159.0,318.0,156.0,313.0,153.5,313.0" stroke="orange" stroke-width="1" fill="none" />
<polyline points="160.0,294.0,161.0,295.5,154.5,293.0" stroke="black" stroke-width="1" fill="none" />
<polyline points="156.5,294.0,158.0,298.5,162.0,295.0" stroke="black" stroke-width="1" fill="none" />
<polyline points="158.0,287.5,155.5,283.5" stroke="black" stroke-width="1" fill="none" />
<polyline points="152.5,281.5,154.0,285.5,158.5,287.0,162.0,293.0" stroke="black" stroke-width="1" fill="none" />
<polyline points="170.5,293.5,174.5,292.5,177.5,291.0,178.0,288.5" stroke="black" stroke-width="1" fill="none" />
<polyline points="176.0,291.0,178.0,293.5,177.0,297.0,174.0,301.0,175.5,305.0,171.5,310.0,166.0,309.5" stroke="black" stroke-width="1" fill="none" />
<polyline points="161.0,293.5,158.0,291.5,152.5,289.5" stroke="black" stroke-width="1" fill="none" />
<polyline points="152.5,290.5,150.5,291.0,155.0,293.5,158.5,295.0,162.5,295.0,166.5,293.0,168.5,292.0,170.0,287.5" stroke="black" stroke-width="1" fill="none" />
<polyline points="172.0,292.0,173.0,297.5,170.0,300.5,170.0,304.0,169.0,307.0,168.5,313.0,167.5,316.5,161.0,319.0,169.0,321.0,167.5,325.0,164.0,327.5,162.0,332.5,158.5,338.5,157.5,342.5,151.0,349.0,150.0,350.5,152.0,355.0,148.5,354.5,146.5,357.5,145.5,352.5,147.5,350.0,151.0,352.5,156.5,352.5,159.0,345.0,162.5,347.0,166.5,344.5,173.0,342.5,170.5,343.0" stroke="green" stroke-width="1" fill="none" />
<polyline points="157.0,298.0,155.5,292.0" stroke="black" stroke-width="1" fill="none" />
<polyline points="160.5,284.5,161.5,281.0,160.0,277.0,161.0,273.0,163.0,269.0,162.5,265.0,163.5,260.5,162.0,259.0" stroke="black" stroke-width="1" fill="none" />
<polyline points="165.0,268.0,166.5,260.0,164.0,264.0,167.0,268.5,166.0,272.0,167.0,276.0,166.5,276.5" stroke="black" stroke-width="1" fill="none" />
<polyline points="159.5,280.5,158.5,279.0,154.5,278.0" stroke="black" stroke-width="1" fill="none" />
<polyline points="149.0,280.5,152.5,278.5,157.5,284.0,163.5,289.5,165.5,287.0,171.5,284.0,174.0,286.0,175.5,286.0,175.5,285.5" stroke="black" stroke-width="1" fill="none" />
<polyline points="173.5,281.5,171.0,285.5,169.5,287.5,166.5,291.0" stroke="black" stroke-width="1" fill="none" />
<polyline points="161.0,284.5,157.5,281.5,159.0,283.0" stroke="black" stroke-width="1" fill="none" />
<polyline points="157.0,300.0,154.0,296.0,150.0,292.0,148.0,289.5,149.5,280.5,150.5,279.5,151.0,271.5,152.5,269.0,155.5,265.0,160.5,261.0,162.0,255.5,164.5,254.5,164.5,251.0,166.0,244.0,165.5,240.0,167.0,240.5,166.0,248.5,160.0,255.0,155.0,259.5,151.5,262.5,147.0,259.5,144.0,260.0,139.0,265.5,134.5,264.0,137.5,262.0,132.5,263.5,128.0,265.5,127.0,267.5,133.5,262.5,131.0,258.0,129.5,255.0,127.5,249.5,130.5,245.5,134.5,246.5,136.5,241.5,138.0,237.5,137.0,234.0,135.0,230.5,132.5,228.5,132.0,223.0,130.5,220.0,132.0,215.5,130.5,211.5,128.0,207.5,125.5,202.5,124.0,198.0,122.5,193.5,121.5,186.5,120.5,185.0,119.5,180.5,119.5,176.5,118.0,172.5,119.5,168.5,119.5,166.0,120.0,159.0,120.0,156.5,120.0,151.0,120.5,149.0,123.5,144.5,122.5,141.5,121.5,135.0,122.5,132.0,124.5,130.0,125.5,125.5,127.0,121.5,128.5,117.0,130.0,112.5,133.0,111.0,134.0,104.5,137.5,106.5,138.0,100.0,138.5,102.5,133.5,103.5,133.0,104.0" stroke="black" stroke-width="1" fill="none" />
<polyline points="132.0,112.5,136.0,102.5,136.0,109.5,135.0,113.5,133.0,119.5,132.0,119.0,132.0,125.5,132.5,129.5,132.0,133.5,133.5,139.0,126.5,141.0,129.0,143.5,130.5,146.0,128.5,149.5,129.5,152.0,128.0,156.5,124.5,157.5,130.5,156.0,131.5,148.0" stroke="yellow" stroke-width="1" fill="none" />
<polyline points="131.0,152.5,130.5,155.0,132.5,160.0,137.5,162.0,132.0,166.0,128.0,170.0,131.5,166.5,134.0,162.0" stroke="black" stroke-width="1" fill="none" />
<polyline points="139.5,168.5,142.0,171.0,134.0,177.0,131.0,178.0,132.5,172.0,134.5,172.0" stroke="black" stroke-width="1" fill="none" />
<polyline points="135.5,171.0,133.0,178.0,133.5,175.5,137.5,173.0,139.5,168.0" stroke="yellow" stroke-width="1" fill="none" />
<polyline points="144.0,168.0,140.5,172.0,137.0,176.0,133.5,178.0" stroke="black" stroke-width="1" fill="none" />
<polyline points="143.0,176.5,137.5,180.0,135.0,181.0,138.5,177.0,141.0,172.5" stroke="black" stroke-width="1" fill="none" />
<polyline points="147.5,174.5,144.0,179.0,141.0,181.5,138.0,186.5,136.0,191.0,137.5,194.0,137.5,196.0,140.0,194.0,141.0,192.5,145.0,199.5,150.5,199.0" stroke="black" stroke-width="1" fill="none" />
<polyline points="149.0,194.5,145.0,190.0" stroke="black" stroke-width="1" fill="none" />
<polyline points="147.5,188.5,147.5,192.5" stroke="orange" stroke-width="1" fill="none" />
<polyline points="144.5,190.0,146.0,198.5" stroke="green" stroke-width="1" fill="none" />
<polyline points="150.0,196.0,146.0,194.5,146.0,189.0,143.5,190.0,141.0,184.5,147.0,180.5,145.0,176.0,145.5,177.5,141.5,181.0" stroke="orange" stroke-width="1" fill="none" />
<polyline points="143.0,184.5,148.5,187.0,149.0,190.0,153.5,193.0" stroke="black" stroke-width="1" fill="none" />
<polyline points="150.0,189.5" stroke="black" stroke-width="1" fill="none" />
<polyline points="144.5,188.5,149.0,194.0,151.5,196.0,159.0,187.5,161.5,184.5,167.0,177.0,170.5,172.5,174.0,168.5,178.0,164.5,182.0,161.0,186.5,157.5,190.0,154.0,194.0,150.0,197.5,147.5,201.5,144.0" stroke="black" stroke-width="1" fill="none" />
<polyline points="205.5,145.0,210.0,150.0,215.0,156.5,219.0,159.0" stroke="orange" stroke-width="1" fill="none" />
<polyline points="227.5,164.5,225.5,155.0,229.5,152.0,221.0,155.5,217.0,159.5,213.5,152.0" stroke="black" stroke-width="1" fill="none" />
<polyline points="221.5,156.0,228.0,162.0" stroke="black" stroke-width="1" fill="none" />
<polyline points="228.0,173.5,225.5,175.5,221.5,176.5,217.0,180.0,214.0,183.5,210.0,187.5,204.5,190.5" stroke="black" stroke-width="1" fill="none" />
<polyline points="206.5,188.0,209.0,186.5,213.5,181.5,220.5,174.0,222.0,173.5,226.0,172.0,230.0,172.5,233.5,172.5,237.5,173.5,238.0,171.5,238.5,176.0,236.5,179.0" stroke="black" stroke-width="1" fill="none" />
<polyline points="234.5,181.5,230.0,185.5,230.0,186.0,225.0,192.5,219.0,195.0,211.0,203.0,203.5,209.0,200.0,215.5,202.5,217.5,204.0,217.5,204.0,224.5,207.5,227.0" stroke="yellow" stroke-width="1" fill="none" />
<polyline points="199.5,209.5,204.0,208.0,209.5,206.0,211.5,201.5,214.0,198.0,218.0,195.0,222.0,192.0,228.0,189.0" stroke="black" stroke-width="1" fill="none" />
<polyline points="226.0,193.0,220.0,197.0,217.0,202.0,207.5,208.5,208.5,210.5,210.5,211.5,211.5,204.5,214.5,203.5,218.0,197.5,220.0,196.0,226.0,193.0,230.0,192.0,230.5,189.5" stroke="black" stroke-width="1" fill="none" />
<polyline points="227.5,182.0,223.0,186.0" stroke="black" stroke-width="1" fill="none" />
<polyline points="216.5,187.5,223.0,181.5" stroke="black" stroke-width="1" fill="none" />
<polyline points="224.5,179.5,218.5,185.0,220.5,188.5,213.5,195.0,213.5,196.0,207.5,200.5" stroke="black" stroke-width="1" fill="none" />
<polyline points="200.0,203.0,197.0,201.5" stroke="black" stroke-width="1" fill="none" />
<polyline points="191.0,198.5,197.0,200.0,201.0,202.0" stroke="black" stroke-width="1" fill="none" />
<polyline points="201.5,204.0,199.5,200.5,195.5,198.5,193.5,197.0,189.0,198.0,185.5,201.0,182.0,208.0,181.5,207.0,182.0,204.5,187.5,198.0,189.0,200.0" stroke="green" stroke-width="1" fill="none" />
<polyline points="184.0,207.0,190.0,208.0,194.5,204.5,201.0,205.5" stroke="black" stroke-width="1" fill="none" />
<polyline points="199.0,205.5,194.5,202.0,189.5,206.5,190.5,211.5,185.0,221.0,185.5,220.0,185.5,218.5,188.5,217.5,189.0,214.5,183.0,209.5,184.0,208.5" stroke="black" stroke-width="1" fill="none" />
<polyline points="181.5,214.0,182.0,218.0" stroke="black" stroke-width="1" fill="none" />
<polyline points="181.5,219.0,179.5,222.0,182.0,219.5,178.5,215.0" stroke="black" stroke-width="1" fill="none" />
<polyline points="172.0,215.0,169.5,219.5,174.5,213.5" stroke="black" stroke-width="1" fill="none" />
<polyline points="168.0,220.0,168.0,226.5,171.0,226.5,171.5,226.5,175.5,226.0,179.5,225.5" stroke="black" stroke-width="1" fill="none" />
<polyline points="180.0,231.5,176.0,228.0,171.5,231.5,167.0,234.5" stroke="black" stroke-width="1" fill="none" />
<polyline points="166.0,240.0,167.0,248.0,166.5,250.5,165.5,248.5" stroke="black" stroke-width="1" fill="none" />
<polyline points="162.5,251.5,158.0,260.5,154.0,263.5,150.5,262.0,146.5,265.5,142.0,268.5,136.0,273.0,134.0,277.5,132.5,279.5,127.5,275.5,118.0,269.5,116.0,265.0,118.0,261.0,115.0,266.0" stroke="black" stroke-width="1" fill="none" />
<polyline points="115.5,270.0,119.5,272.0,123.5,273.5" stroke="black" stroke-width="1" fill="none" />
<polyline points="115.0,273.0,115.5,277.0,118.5,284.5,113.0,288.0,108.0,292.0,106.5,295.0,103.0,303.0,99.5,302.0,91.5,308.0,92.5,312.0,92.0,316.0,90.5,320.0,88.0,321.5,86.0,331.0,87.5,331.5,91.0,338.0,83.0,341.0,81.0,345.0,77.5,347.5,75.5,351.0,70.5,359.0,68.5,361.0,64.0,362.0,66.0,356.0,71.0,351.0,78.0,348.0,82.5,340.0,84.5,337.0,91.5,328.5,90.5,326.5" stroke="black" stroke-width="1" fill="none" />
<polyline points="87.5,323.0,90.5,325.0,92.0,325.0,91.5,323.5,91.0,330.5,83.5,333.0,80.5,340.5,81.0,341.5,76.0,349.0,72.5,351.0,68.5,356.5,67.0,361.5,62.0,361.0,62.0,364.5,66.0,362.0,69.0,356.5,74.0,356.0,79.0,347.5,83.0,342.5,84.5,339.5,91.5,338.5,92.5,344.0,89.5,347.0,88.5,354.0,85.0,355.5,84.0,360.0,78.0,364.0,76.0,368.5,77.5,372.0,83.0,375.0,83.5,371.0,90.0,363.0,92.0,355.0" stroke="black" stroke-width="1" fill="none" />
<polyline points="107.0,353.5,107.0,359.0,107.0,364.5,104.0,366.5,104.5,369.0,102.5,374.0,100.0,380.0" stroke="black" stroke-width="1" fill="none" />
<polyline points="111.5,370.0,110.5,363.5" stroke="black" stroke-width="1" fill="none" />
<polyline points="111.5,354.5,111.5,357.0,113.5,362.5,109.0,362.5,109.0,361.0,113.0,368.5" stroke="yellow" stroke-width="1" fill="none" />
<polyline points="115.5,360.5,114.0,358.5,112.5,354.5,113.5,353.5" stroke="black" stroke-width="1" fill="none" />
<polyline points="133.5,363.5,137.0,369.5" stroke="black" stroke-width="1" fill="none" />
<polyline points="82.0,353.0,79.5,363.0,76.5,367.5" stroke="black" stroke-width="1" fill="none" />
<polyline points="73.5,358.5,74.5,353.0,83.0,345.5,85.5,349.0,80.0,349.5,75.0,352.5,78.0,361.0,74.0,362.5,75.5,369.0" stroke="black" stroke-width="1" fill="none" />
<polyline points="79.5,383.0,75.0,390.0,71.0,393.5,67.0,397.0,63.0,399.5,58.0,401.5,61.0,399.0,62.5,396.5,70.0,391.0,77.0,387.5,77.0,382.0,77.0,383.0,72.5,388.5,71.0,393.5,65.5,395.5,62.0,398.0,58.5,403.0,65.0,399.0,68.5,395.5,74.5,390.0,77.5,386.0,78.5,380.0,82.5,377.0,83.0,374.5,83.5,369.0,86.5,365.0,91.0,362.5,92.5,354.5,89.5,355.5,92.5,354.5,93.5,348.0,98.5,349.5,100.0,349.5,93.5,342.0,91.0,347.5,96.5,347.0,95.5,340.0,96.5,336.0,94.0,334.5,98.0,329.5,94.5,322.0,97.0,320.5,98.0,316.0,99.0,310.5,102.0,308.0,103.0,306.5,108.0,302.5,106.0,301.0,102.0,310.5,97.5,314.5,94.5,314.5" stroke="orange" stroke-width="1" fill="none" />
<polyline points="89.0,308.5,83.0,309.5,85.0,307.5,91.0,308.0,96.0,307.0,99.5,304.0,101.5,300.0,106.0,302.0" stroke="black" stroke-width="1" fill="none" />
<polyline points="100.0,302.5,93.5,303.5,91.5,305.0,99.0,303.5,101.0,297.0" stroke="black" stroke-width="1" fill="none" />
<polyline points="108.0,294.5,102.0,298.0,99.5,297.0,94.5,294.5,90.5,295.5,86.5,296.0,81.0,295.5,90.5,297.0" stroke="black" stroke-width="1" fill="none" />
<polyline points="86.0,294.5,80.0,298.5,82.5,295.5,84.5,291.5,91.0,290.5,95.0,293.0,99.0,290.5,102.0,291.0,107.5,291.0,112.0,287.5" stroke="black" stroke-width="1" fill="none" />
<polyline points="112.5,283.5,115.0,284.0,107.5,286.5,113.0,284.5,113.5,276.0,115.0,277.0,111.5,271.0,117.5,271.0,113.5,270.5" stroke="black" stroke-width="1" fill="none" />
<polyline points="110.5,264.0,114.0,259.0,113.5,259.0,110.5,267.0,109.0,269.0,111.0,273.5,103.5,273.0,96.0,281.0,92.0,280.5,98.0,279.5,100.5,275.0,106.0,275.0,108.5,275.5,113.0,279.0,117.5,282.5,115.0,281.0" stroke="black" stroke-width="1" fill="none" />
<polyline points="116.0,281.0,109.5,281.0,105.0,283.0,101.0,285.5,98.0,284.0,94.5,279.0,96.0,280.5" stroke="black" stroke-width="1" fill="none" />
<polyline points="93.5,279.5,94.5,272.5,99.5,273.0,102.0,271.5,108.0,267.5,103.0,272.5,94.5,274.5,93.0,277.0,94.0,283.5,97.5,283.5,100.0,281.0,104.5,281.5,100.5,281.0,104.5,280.0,109.0,278.0,114.5,280.5,121.0,277.5,123.5,275.5,126.0,271.5" stroke="black" stroke-width="1" fill="none" />
<polyline points="124.0,267.5,124.0,272.5,116.0,273.0,110.0,280.5,100.5,280.5,100.0,285.0,90.5,294.5,91.5,299.5,85.0,303.5,81.5,310.5,83.0,310.0,78.5,319.5,71.0,323.0,73.0,319.5,78.0,315.5,82.0,313.0,86.0,309.0" stroke="black" stroke-width="1" fill="none" />
<polyline points="99.0,322.5,103.0,314.5,106.0,309.5,110.0,305.0,113.0,299.0,119.5,297.5" stroke="yellow" stroke-width="1" fill="none" />
<polyline points="117.0,305.5,115.5,309.5,112.0,313.5,108.0,317.5,104.0,321.5,100.5,327.5" stroke="black" stroke-width="1" fill="none" />
<polyline points="79.5,316.0,77.5,316.0,72.0,322.0,68.0,322.5,74.0,321.0,79.0,314.0,75.0,310.5,74.5,309.0,75.0,307.0,74.0,308.0" stroke="black" stroke-width="1" fill="none" />
<polyline points="73.5,307.0,79.0,313.0" stroke="orange" stroke-width="1" fill="none" />
<polyline points="77.5,308.0,77.5,310.0,77.5,309.0,83.0,308.5,86.0,305.5,89.0,302.0" stroke="black" stroke-width="1" fill="none" />
<polyline points="104.0,314.0,100.0,319.0,99.0,319.0,101.0,315.0,103.5,313.0,105.0,309.5,109.0,303.0" stroke="black" stroke-width="1" fill="none" />
<polyline points="105.5,294.5,99.0,297.5,103.0,294.5,107.0,293.5,111.0,291.5" stroke="black" stroke-width="1" fill="none" />
<polyline points="106.0,286.0,105.5,288.5" stroke="yellow" stroke-width="1" fill="none" />
<polyline points="93.0,284.5,89.5,278.0,91.5,276.0" stroke="black" stroke-width="1" fill="none" />
<polyline points="123.0,288.5,124.5,293.5,119.5,296.5,113.0,299.5,109.0,303.0,107.5,310.5,102.5,314.0,101.5,317.0,99.5,320.5,100.5,325.0,101.0,327.5,102.0,330.5,98.5,334.5,95.5,341.0,102.0,337.5,102.0,334.5,106.0,331.0,110.5,325.0,114.5,317.5,118.5,309.0,123.0,300.0,123.5,302.5,123.0,309.5,131.0,313.0" stroke="orange" stroke-width="1" fill="none" />
<polyline points="127.0,311.0,128.5,316.5,127.0,316.0,127.0,321.0,131.5,325.0,127.5,330.5,128.0,335.0,127.5,331.5" stroke="black" stroke-width="1" fill="none" />
<polyline points="118.0,310.0,120.0,311.0,119.5,315.0,118.0,319.0,115.5,323.5,111.0,327.5,113.5,332.0,110.0,334.0,104.5,339.5,100.0,343.0,99.0,347.0,99.5,351.0,94.5,349.5,92.0,356.0,94.0,360.0,94.0,363.5,93.0,368.0,93.5,372.5,94.0,378.5,91.0,383.0,93.0,386.5" stroke="orange" stroke-width="1" fill="none" />
<polyline points="81.0,386.5,80.5,390.5,78.5,396.0,78.5,402.0,75.0,405.5,71.0,407.0,74.0,414.0" stroke="black" stroke-width="1" fill="none" />
<polyline points="21.0,368.5,19.5,375.0,19.5,373.5,24.0,366.5" stroke="black" stroke-width="1" fill="none" />
<polyline points="124.5,283.5,125.0,290.0,120.0,292.0,119.5,298.5,117.5,301.0,112.5,305.0,108.0,309.0,103.0,310.0,106.5,309.0,112.0,305.5,117.5,300.5,120.0,298.0,126.0,296.0,128.5,291.0,133.5,288.0,137.0,286.5,139.0,285.0" stroke="black" stroke-width="1" fill="none" />
<polyline points="136.0,268.5,132.0,262.5,128.5,261.0" stroke="black" stroke-width="1" fill="none" />
<polyline points="135.5,255.0" stroke="yellow" stroke-width="1" fill="none" />
<polyline points="131.0,248.5,135.0,246.0,139.0,245.0,137.0,245.0" stroke="black" stroke-width="1" fill="none" />
<polyline points="140.5,243.0,135.0,244.5" stroke="black" stroke-width="1" fill="none" />
<polyline points="144.5,239.5,138.0,233.5,134.0,223.5" stroke="black" stroke-width="1" fill="none" />
<polyline points="137.0,225.0,145.0,216.5" stroke="black" stroke-width="1" fill="none" />
<polyline points="150.5,212.5,146.5,212.5,150.5,207.5" stroke="black" stroke-width="1" fill="none" />
<polyline points="146.5,201.5,146.0,196.5,139.0,192.5,138.0,191.0,135.0,189.0,136.5,183.5,142.0,178.0,143.5,172.5,142.0,179.5,137.0,180.5,135.5,185.0" stroke="black" stroke-width="1" fill="none" />
<polyline points="133.5,186.0,139.5,183.5,143.0,179.0,143.5,180.5" stroke="black" stroke-width="1" fill="none" />
<polyline points="147.5,182.0,146.0,180.5,145.5,185.5,142.0,188.0" stroke="black" stroke-width="1" fill="none" />
<polyline points="140.0,192.5,137.0,197.5" stroke="orange" stroke-width="1" fill="none" />
<polyline points="141.0,195.0,144.0,198.5,148.0,204.5,146.5,207.0,145.5,209.5,143.5,215.0,145.0,207.5,151.0,202.0" stroke="yellow" stroke-width="1" fill="none" />
<polyline points="133.0,205.5,130.5,207.0,128.5,199.0" stroke="black" stroke-width="1" fill="none" />
<polyline points="110.0,228.5,111.5,228.5,115.5,227.5" stroke="yellow" stroke-width="1" fill="none" />
<polyline points="114.0,229.0,117.5,227.0,112.5,231.5,115.0,229.5" stroke="black" stroke-width="1" fill="none" />
<polyline points="125.5,251.0,119.5,257.0,117.0,263.0,112.5,267.0,113.0,258.0,119.0,255.5,123.0,252.5,127.5,247.5,131.5,243.0,133.5,243.0,142.0,238.5,148.5,235.0,150.5,231.0,156.0,228.0,160.0,224.5,159.0,223.5" stroke="black" stroke-width="1" fill="none" />
<polyline points="161.5,222.5,156.0,227.5,151.0,229.0,150.5,233.0,146.0,239.5,144.0,247.5,143.0,251.0,143.0,255.0,141.5,260.0,143.5,266.0,135.5,266.0,131.5,271.5,134.0,270.0,139.0,270.0" stroke="black" stroke-width="1" fill="none" />
<polyline points="157.0,254.5,151.5,253.5,156.0,255.5,158.0,252.0,158.0,250.0" stroke="black" stroke-width="1" fill="none" />
<polyline points="167.0,232.5,163.0,235.0,158.5,238.5,161.0,238.5,165.0,233.0,166.0,229.0" stroke="orange" stroke-width="1" fill="none" />
<polyline points="169.0,226.0,163.0,226.5" stroke="black" stroke-width="1" fill="none" />
<polyline points="174.5,228.5,170.5,232.5,164.5,236.5,166.5,242.5,161.5,243.5,157.5,247.0,152.5,250.0,149.0,256.0,154.5,257.5,151.0,258.0,146.5,262.0,142.5,266.0,138.0,270.0,133.0,274.0,129.0,279.5,132.0,287.0,127.0,290.0,126.0,296.5,126.0,301.5,127.0,307.0,126.0,311.0,124.0,314.0,124.5,316.0,123.5,321.5,124.0,325.0,124.5,329.0,123.5,332.5,123.5,338.0,125.5,339.5,127.0,343.0,130.0,347.0,132.5,353.0,137.5,355.0,137.0,359.0,137.5,366.0,143.5,370.0,144.0,367.0,144.5,372.0,146.0,377.0,145.5,381.5,145.0,387.5,147.5,389.0,145.0,394.5,148.5,397.0,151.5,396.0,148.0,400.5,148.5,406.0,153.5,406.0,157.0,410.0,160.5,415.0,163.5,419.0,159.5,422.5,154.5,424.5" stroke="black" stroke-width="1" fill="none" />
<polyline points="165.0,416.0,163.0,412.0" stroke="black" stroke-width="1" fill="none" />
<polyline points="192.0,426.0,192.0,430.0,189.5,433.5" stroke="black" stroke-width="1" fill="none" />
<polyline points="197.5,433.5,198.0,432.0,197.5,430.5" stroke="black" stroke-width="1" fill="none" />
<polyline points="198.5,424.0,194.0,431.0,197.0,432.5,193.0,433.0" stroke="yellow" stroke-width="1" fill="none" />
<polyline points="193.5,403.5,193.5,399.5,193.5,395.5,197.5,389.0,193.5,389.0" stroke="black" stroke-width="1" fill="none" />
<polyline points="191.0,386.0,191.5,390.5,191.5,397.0,191.0,403.5,190.5,407.5,190.5,411.5,193.0,413.0,190.0,419.5,190.0,423.5,190.0,425.0,188.0,425.5,190.0,428.0,187.5,435.0,184.5,438.5,183.0,444.0,186.0,438.5,191.0,438.5,194.5,446.5,199.0,440.0,197.5,447.5" stroke="black" stroke-width="1" fill="none" />
<polyline points="379.0,361.0,382.5,354.5,380.0,352.0,378.0,345.5,380.0,341.5,381.5,339.5,379.0,336.0,378.0,331.5,380.0,329.5,377.0,324.5,376.0,316.5,378.0,311.0,375.0,308.5,375.0,303.5,374.0,300.5,374.0,296.5,374.5,294.0" stroke="black" stroke-width="1" fill="none" />
<polyline points="380.0,289.0,379.5,285.0,379.0,281.5,382.5,277.5,383.0,271.5,382.0,269.5,382.0,264.0" stroke="black" stroke-width="1" fill="none" />
<polyline points="366.5,263.0,366.0,267.0,365.5,271.0,365.0,275.5,365.0,279.5,365.5,284.0,363.0,286.0,366.0,293.5,364.5,296.5,362.5,298.5,364.0,304.5,362.5,310.5,365.0,312.0" stroke="black" stroke-width="1" fill="none" />
<polyline points="352.0,279.0,343.5,276.5,337.5,280.0,333.5,280.0,329.5,279.0,322.5,277.0,322.0,273.0,322.5,269.0" stroke="black" stroke-width="1" fill="none" />
<polyline points="322.0,264.5,327.5,272.5,331.0,274.0,335.0,272.0,334.5,270.0" stroke="black" stroke-width="1" fill="none" />
<polyline points="320.0,276.0,317.5,274.5,317.5,273.5,319.5,270.5,321.0,266.5,325.5,262.0,328.0,256.5,334.5,252.5,332.0,251.5" stroke="orange" stroke-width="1" fill="none" />
<polyline points="365.5,263.5,365.0,267.0,365.0,271.5,364.0,275.5,357.5,283.5" stroke="black" stroke-width="1" fill="none" />
<polyline points="298.0,224.5,294.0,227.0,291.5,230.5,286.0,233.5,288.5,231.0,293.0,226.0,300.0,222.5" stroke="black" stroke-width="1" fill="none" />
<polyline points="269.0,214.0,269.5,211.5,273.0,207.5,278.5,203.5,281.0,200.5,285.0,196.0,288.0,191.0,295.0,191.5,296.5,186.5,300.5,183.0,302.5,180.0,308.5,178.5" stroke="orange" stroke-width="1" fill="none" />
<polyline points="303.5,180.0,299.5,181.0,295.5,182.5,292.0,187.5,288.0,190.0,284.5,193.0,280.5,196.5,277.0,199.0,273.0,203.0,269.0,205.5,264.5,212.5,265.0,217.5,259.5,220.0,257.5,222.0,251.0,230.0,247.0,232.5,243.0,238.0,239.0,245.0,237.0,245.5,229.5,250.0,227.0,258.5,221.5,263.0,219.5,271.5,213.5,278.5,209.0,283.5,207.5,293.5,204.0,302.5,199.0,312.0,200.5,320.0,198.5,318.0,199.5,312.0,201.0,308.0,202.5,304.0,204.0,300.5,206.5,296.0,209.0,294.5,209.5,288.5,211.5,285.0,213.0,281.0,215.5,277.0,218.5,273.5,220.5,269.0,221.5,266.5,226.0,261.5,228.0,257.5,233.5,251.5,234.5,249.0,238.5,247.0,243.5,241.0,244.5,236.5,248.0,232.5,251.5,231.0,254.0,225.5,259.5,220.5,262.0,215.0,261.0,211.5,260.0,210.0,266.5,201.0,265.5,199.5" stroke="black" stroke-width="1" fill="none" />
<polyline points="266.5,212.5" stroke="black" stroke-width="1" fill="none" />
<polyline points="249.0,211.0,248.0,212.0,243.5,212.5" stroke="black" stroke-width="1" fill="none" />
<polyline points="212.0,197.0,219.0,192.5,219.0,188.5,223.0,182.0,227.5,183.5" stroke="orange" stroke-width="1" fill="none" />
<polyline points="222.5,174.0,217.0,179.0,214.0,184.5,209.5,186.5,207.0,188.0,205.5,194.5,206.0,197.5,207.5,195.0,213.5,192.5,218.5,195.0,222.5,190.0,224.5,190.0,230.0,187.5,231.5,183.5,235.5,182.0" stroke="black" stroke-width="1" fill="none" />
<polyline points="240.0,176.5,240.0,181.0,239.0,184.0,231.5,188.5,239.5,182.5,243.0,181.0,246.0,181.5,251.0,178.0" stroke="black" stroke-width="1" fill="none" />
<polyline points="251.0,175.5,245.5,181.5,242.5,183.0,245.5,185.5,243.0,191.5,240.0,196.0,237.5,197.5,236.0,203.5,233.5,207.5,231.0,211.0,232.5,211.0,232.0,210.0,236.0,209.0" stroke="black" stroke-width="1" fill="none" />
<polyline points="266.5,186.5,259.5,192.0,256.5,195.0,253.5,199.0,251.0,203.0,250.5,198.5,254.5,194.0,259.0,190.5,261.5,185.5,266.5,185.0" stroke="orange" stroke-width="1" fill="none" />
<polyline points="267.5,185.0,261.0,191.5,257.5,190.5,261.5,187.5,267.0,187.5" stroke="black" stroke-width="1" fill="none" />
<polyline points="268.5,180.0,261.5,182.0,258.5,189.5,254.0,189.5,247.0,194.5,244.0,198.5,242.5,200.5,243.0,192.5,246.0,189.5,250.0,185.5,249.0,184.0,252.5,182.5,256.5,180.5,263.0,182.0" stroke="black" stroke-width="1" fill="none" />
<polyline points="262.0,175.0,268.5,176.5,274.5,177.0,278.5,176.0,281.0,175.0,283.5,175.0,292.0,176.5,293.5,179.5,291.0,182.0,286.0,187.0,279.5,188.5,276.5,195.0,272.0,199.0,271.0,192.5,270.5,197.0,269.5,201.0,276.5,196.0,279.0,192.5,284.5,191.0,289.5,187.5,292.0,179.5,296.0,178.5,302.0,177.5,304.0,174.0,308.0,171.0,311.0,168.0,317.0,166.5,324.0,162.5,327.0,163.0,330.0,160.0,334.5,157.5,338.0,157.5" stroke="black" stroke-width="1" fill="none" />
<polyline points="306.5,176.0,301.0,179.5,295.5,183.5,288.0,190.0,285.5,193.5,283.5,193.0,278.5,199.5,269.5,202.0,269.0,207.0,271.0,208.5,268.0,213.0,264.0,215.5,266.0,222.0,265.0,224.0,262.0,230.0,264.0,231.5,265.0,236.0,265.0,240.5" stroke="black" stroke-width="1" fill="none" />
<polyline points="271.5,192.0,273.0,189.5,273.0,185.5,272.0,181.5,270.5,183.0" stroke="black" stroke-width="1" fill="none" />
<polyline points="260.0,165.0,268.0,161.0,264.5,162.5,260.0,164.5,254.5,162.0,251.5,161.0,250.0,159.5" stroke="black" stroke-width="1" fill="none" />
<polyline points="250.5,163.5,257.0,166.0" stroke="black" stroke-width="1" fill="none" />
<polyline points="250.5,172.5,253.0,177.5,258.0,177.5" stroke="black" stroke-width="1" fill="none" />
<polyline points="242.0,144.5,245.0,143.0,249.5,138.5,254.5,134.5,260.5,130.5,258.5,131.0,254.0,134.0,248.0,135.5,245.5,140.5,242.5,143.0,237.5,146.0" stroke="black" stroke-width="1" fill="none" />
<polyline points="235.0,143.5,238.5,147.5,239.5,145.0" stroke="black" stroke-width="1" fill="none" />
<polyline points="221.5,148.0,217.0,144.5,212.5,143.5" stroke="black" stroke-width="1" fill="none" />
<polyline points="215.0,141.0,217.0,147.5" stroke="black" stroke-width="1" fill="none" />
<polyline points="207.0,146.5,213.0,150.5,213.0,157.0,218.0,158.5,223.0,158.5" stroke="black" stroke-width="1" fill="none" />
<polyline points="204.5,163.0" stroke="yellow" stroke-width="1" fill="none" />
<polyline points="205.0,163.0,205.0,166.5,200.0,168.5,190.0,173.5,189.0,178.5,181.5,179.0,179.5,185.5,175.0,191.0,172.5,193.5,168.0,197.5,164.5,202.5,164.5,202.0,169.5,197.5,172.5,193.5,176.5,188.5,180.5,185.0,185.0,180.5,189.0,179.5,192.5,174.0,196.5,170.5,202.5,168.5" stroke="black" stroke-width="1" fill="none" />
<polyline points="214.0,179.0,211.0,182.5,208.0,186.0,211.5,190.5,211.0,191.0,211.0,198.5" stroke="black" stroke-width="1" fill="none" />
<polyline points="205.5,138.5,200.0,131.0" stroke="black" stroke-width="1" fill="none" />
<polyline points="204.0,138.0,203.5,137.5,203.0,141.5,204.5,138.5,211.0,135.0,215.0,132.5,219.0,129.5,221.5,128.5" stroke="black" stroke-width="1" fill="none" />
<polyline points="225.5,126.5,218.0,130.0,213.0,133.5,207.5,138.5,206.5,138.0,212.5,135.5,215.0,133.5,223.5,129.5,222.5,130.5,229.0,125.5,233.0,122.5,237.0,120.0" stroke="black" stroke-width="1" fill="none" />
<polyline points="236.5,118.5,230.0,123.0,224.0,127.0,219.5,130.5,212.5,135.0,207.5,139.0,203.5,140.0,199.0,145.5,195.0,151.0,190.0,153.5,185.0,157.5,181.5,161.5,179.5,165.5,172.0,170.0,166.0,171.5,165.0,178.5,161.0,182.5,158.5,186.5,154.0,192.0,151.0,196.0,152.5,199.5,151.0,203.5,150.5,209.0,147.0,211.0,148.5,217.5,143.5,219.5,142.0,223.0,141.5,227.5,141.5,231.0,144.5,234.0,144.0,239.5,141.5,241.0,134.5,244.0,132.0,249.5,133.5,252.5,133.5,257.0,139.5,255.0,142.0,256.5" stroke="black" stroke-width="1" fill="none" />
<polyline points="134.0,172.5,130.5,177.5,137.0,176.0,140.0,171.0,140.0,170.0,142.0,164.0" stroke="black" stroke-width="1" fill="none" />
<polyline points="127.0,140.5,131.5,135.5,132.5,131.0" stroke="yellow" stroke-width="1" fill="none" />
<polyline points="154.5,127.5,150.5,130.5,147.5,133.0,154.0,129.5,159.5,123.5,160.0,125.0" stroke="black" stroke-width="1" fill="none" />
<polyline points="189.0,120.5,183.0,120.5,180.5,125.5,179.5,126.5,184.5,122.5,190.5,119.0,194.5,117.0" stroke="green" stroke-width="1" fill="none" />
<polyline points="184.0,120.5,177.5,126.0,179.5,126.0,183.5,123.0,189.5,120.5" stroke="black" stroke-width="1" fill="none" />
<polyline points="194.0,129.0,189.5,136.0,187.0,135.5,192.0,132.5" stroke="green" stroke-width="1" fill="none" />
<polyline points="205.0,118.5,199.0,119.5,197.0,120.0,198.5,120.0,204.5,117.5" stroke="orange" stroke-width="1" fill="none" />
<polyline points="196.0,109.5,195.5,109.5" stroke="yellow" stroke-width="1" fill="none" />
<polyline points="228.5,127.5,224.5,130.0,218.0,133.0,216.0,135.5,211.0,136.5,210.5,143.0,204.5,145.5,200.0,149.0,196.5,153.0,198.5,151.0,203.5,148.5,207.5,143.5,213.0,139.5,219.5,137.5,226.5,132.0,230.5,127.5,233.0,129.5" stroke="black" stroke-width="1" fill="none" />
<polyline points="259.0,133.5,253.5,139.5,249.0,139.5,247.5,143.5,245.5,145.0,239.5,150.5,231.0,151.5,229.5,154.5,224.5,158.0,221.5,161.0,218.5,163.5,224.5,159.0,230.5,155.0,237.0,152.5,243.0,144.5,246.0,142.5,252.0,136.5,258.0,137.0,261.0,130.0" stroke="black" stroke-width="1" fill="none" />
<polyline points="284.0,145.5,286.5,143.0,290.5,141.0" stroke="black" stroke-width="1" fill="none" />
<polyline points="296.5,130.5,291.5,136.0,289.0,135.0,290.0,142.5,295.5,138.5,300.5,134.5" stroke="black" stroke-width="1" fill="none" />
<polyline points="311.0,173.0,308.5,176.5,301.0,182.5,296.0,186.5,290.5,190.5,286.5,194.5,284.5,196.0,278.0,202.0,274.0,206.5,272.5,210.5,272.5,214.5,268.0,215.5,268.5,217.5" stroke="orange" stroke-width="1" fill="none" />
<polyline points="238.0,99.0,234.0,101.5,230.0,103.5,225.5,104.0,221.5,107.5,224.0,105.5,231.0,102.5,237.0,98.5,237.0,99.0" stroke="green" stroke-width="1" fill="none" />
<polyline points="235.0,98.0,232.5,97.5" stroke="green" stroke-width="1" fill="none" />
<polyline points="250.5,99.0,245.5,101.0" stroke="black" stroke-width="1" fill="none" />
<polyline points="263.0,85.0,258.5,87.5,256.0,90.5,252.0,92.5,249.5,95.5,243.5,96.5,240.0,99.5,236.0,102.5,232.0,105.5,228.0,108.0,226.0,111.5,218.5,113.0,216.5,116.0,213.5,117.5,208.0,121.5,204.0,125.0,197.5,128.5,192.5,131.0,190.5,136.5,186.5,140.0,183.0,144.0,178.5,148.0,174.5,150.5,170.5,155.0,166.5,159.0,161.5,165.0,158.5,165.5,157.5,168.5,156.0,171.0,157.5,169.0,160.5,165.0,164.0,161.0,170.5,154.5,174.5,150.5,178.0,151.5,182.0,145.0,183.5,143.0,191.0,137.0,195.0,132.5,198.0,127.0,204.0,124.5,208.5,120.5,214.5,116.5,220.0,111.0,224.5,109.0,231.5,105.5,237.0,101.5,242.5,100.0,248.0,94.0,255.0,91.0,264.5,86.5,266.0,84.0" stroke="black" stroke-width="1" fill="none" />
<polyline points="236.5,79.5,229.5,83.5,225.0,87.5,228.0,85.5,230.5,83.0,235.5,80.0,234.0,79.0" stroke="black" stroke-width="1" fill="none" />
<polyline points="233.0,49.5,236.0,45.5" stroke="black" stroke-width="1" fill="none" />
<polyline points="230.0,46.5,227.5,51.5,229.0,49.5,233.0,48.5,234.5,47.0,241.0,48.5,247.0,48.5,250.0,48.0,252.0,51.0,256.0,52.5,260.0,53.0,265.0,52.5,267.5,58.5,272.5,61.0,276.5,63.5,281.0,67.0,284.5,70.0,288.0,73.5,293.0,74.5,295.5,77.0,301.0,81.0,303.5,85.5,308.0,92.0,310.5,99.5,317.0,98.0,320.5,103.5,324.0,108.0,327.0,112.0,331.5,122.5,335.5,129.0,339.5,132.5,343.5,138.5,347.5,146.5,351.5,144.0,353.0,140.0,359.0,139.0,364.5,138.0,368.0,137.0,371.5,133.0,373.0,132.0,378.0,126.5,386.5,124.5,387.5,121.5,392.0,117.5,396.5,113.0,399.5,113.0,403.5,112.5,408.5,111.5,412.0,113.0,417.5,116.5,418.0,124.0" stroke="black" stroke-width="1" fill="none" />
<polyline points="412.0,115.0,418.0,116.5,418.5,122.0,419.0,127.0,419.5,131.0,417.5,137.5,421.5,138.5,418.0,143.0,417.5,147.0,416.0,153.0,414.5,157.5,413.5,159.0,413.0,163.0,413.5,164.5,410.0,170.0,410.5,174.5,405.5,178.0,404.5,181.5,401.0,185.5,395.5,190.0,392.0,194.0,388.0,198.0,384.0,200.5,380.5,204.0,373.5,209.5,365.5,212.0,371.0,211.0,375.0,206.0,379.5,205.5,385.0,201.0,387.5,199.0,391.0,195.0,396.0,188.5,399.0,187.0,403.0,184.5,407.5,179.0,413.5,170.0,413.5,161.0" stroke="black" stroke-width="1" fill="none" />
<polyline points="368.0,133.0,368.5,128.0,368.0,124.5,369.5,124.5" stroke="black" stroke-width="1" fill="none" />
<polyline points="390.0,108.5,383.5,101.0,377.5,99.0,380.5,92.5" stroke="black" stroke-width="1" fill="none" />
<polyline points="379.0,98.5,380.5,101.0,384.5,104.0,388.5,108.5" stroke="black" stroke-width="1" fill="none" />
<polyline points="442.0,67.0,439.0,62.0,434.0,58.5,429.5,50.0,424.5,41.0,422.5,34.5,418.5,28.5,415.5,20.0,410.0,15.0,406.5,7.0,405.0,5.5" stroke="orange" stroke-width="1" fill="none" />
<polyline points="513.0,74.5,510.0,76.0,506.5,82.5,500.5,84.5,499.0,88.0,494.0,95.5,491.0,99.0,487.5,104.0,484.5,108.5,482.0,112.0,478.5,116.5,474.0,123.0,474.5,123.0,468.5,129.5,470.0,132.5,464.0,134.5,462.5,140.5,461.0,144.5,457.0,149.5,456.5,154.5,453.0,157.5,451.0,161.5,448.5,166.0,445.0,172.0,444.0,175.0,440.0,180.0,439.0,182.5,439.0,186.0,436.0,192.0,433.0,196.0,432.0,198.5,429.5,204.5,429.0,208.0,428.5,209.0,424.5,214.0,422.5,220.0,422.0,224.0,422.0,228.5,418.5,232.0,415.5,235.0,416.0,241.5,414.0,245.0,412.5,248.5,411.5,252.0,408.5,255.5,410.0,257.0,408.5,262.5,404.0,267.0,406.5,273.0,404.0,275.0,403.5,277.0,403.0,281.0,401.0,286.0,400.0,290.0,398.5,293.5,400.5,297.5,395.5,300.5,393.5,307.0,394.0,310.5,393.0,315.5,392.5,318.5,391.0,321.5,390.0,327.0,388.5,331.0,387.0,335.0,385.5,339.0,388.0,342.0" stroke="black" stroke-width="1" fill="none" />
<polyline points="348.0,147.0,345.5,143.5,346.0,142.0,341.5,135.5,337.0,131.5,334.5,127.5,332.5,123.5,329.0,119.0,331.5,117.0,324.0,112.5,324.0,107.5,321.5,101.5,316.0,99.0,309.5,94.5,307.5,92.5,304.5,88.0,299.5,82.5,300.5,80.5,288.5,73.0,287.0,68.5,281.0,67.0,275.5,63.5,269.5,59.5,263.5,55.5,253.0,51.0,252.0,55.0" stroke="black" stroke-width="1" fill="none" />
<polyline points="210.5,49.5,206.5,54.0,207.0,51.5" stroke="black" stroke-width="1" fill="none" />
<polyline points="174.5,60.0,170.5,61.5,166.5,61.5,161.5,64.0,160.5,69.0,160.0,66.0" stroke="black" stroke-width="1" fill="none" />
<polyline points="159.5,64.0,160.0,69.0,156.0,74.0,154.0,78.5,156.0,77.0,158.5,72.5,159.0,72.5" stroke="black" stroke-width="1" fill="none" />
<polyline points="156.5,76.5,155.0,80.5,151.0,85.0,156.0,75.5" stroke="black" stroke-width="1" fill="none" />
</svg>