<svg xmlns="http://www.w3.org/2000/svg" width="1024" height="1024" version="1.1"><polyline points="410.5,11.0,405.0,6.5,412.0,23.0,406.5,19.5,418.0,11.5,415.0,29.0,407.5,40.5,424.5,38.0,426.0,47.5,424.0,46.5,426.0,46.0,425.5,54.0,416.0,53.0,427.0,63.0,431.0,64.0,429.0,62.0,425.0,64.0,430.0,58.5" stroke="yellow" stroke-width="1" fill="none" />
<polyline points="447.0,41.5,437.0,27.0,443.5,27.0,430.0,22.5,432.5,2.5,435.5,7.0" stroke="orange" stroke-width="1" fill="none" />
<polyline points="433.0,12.0,420.5,10.5,434.0,14.0,432.5,27.0,442.0,35.5,443.0,39.0,436.5,47.0,436.0,43.0,451.5,42.5,457.5,56.0,446.5,61.0,456.0,67.5,447.5,62.0,451.5,74.0,446.0,72.5,437.5,75.0,438.5,86.0,433.5,91.0,430.0,87.0,429.5,96.0,428.0,91.5,423.0,95.0,416.0,102.5,409.5,105.0,418.5,111.5,425.0,117.0,421.0,99.0,424.5,101.5,431.0,97.0,433.0,88.5,425.0,81.0,443.5,72.0,454.5,77.0,440.5,69.5,455.5,62.5,461.0,52.0,465.0,52.5,459.5,47.0,465.5,39.0,473.0,34.5,485.0,41.0,493.0,33.5,491.5,36.5,487.0,21.5,508.5,21.5,488.5,11.0,499.5,5.5,504.5,8.0,499.0,10.0,496.5,11.5,496.5,13.5,499.5,11.0" stroke="orange" stroke-width="1" fill="none" />
<polyline points="499.0,23.0,492.5,22.0,493.5,29.0,500.0,37.0,481.5,27.0,485.5,39.0,483.0,53.0,485.5,40.5,470.5,52.0,467.5,57.0,464.0,57.5,470.5,65.5,458.0,64.0" stroke="black" stroke-width="1" fill="none" />
<polyline points="493.0,101.0,481.5,91.0,482.5,115.0,488.0,109.0,480.0,109.0,486.0,110.5,467.5,128.0,468.5,125.0,468.0,124.0" stroke="black" stroke-width="1" fill="none" />
<polyline points="" stroke="yellow" stroke-width="1" fill="none" />
<polyline points="" stroke="orange" stroke-width="1" fill="none" />
<polyline points="434.5,201.5,436.0,213.0,432.5,221.5,423.5,227.5" stroke="orange" stroke-width="1" fill="none" />
<polyline points="418.5,260.0,410.5,254.0,413.5,249.5,414.5,243.5" stroke="orange" stroke-width="1" fill="none" />
<polyline points="393.0,294.0,394.5,300.5" stroke="black" stroke-width="1" fill="none" />
<polyline points="374.0,292.5,380.5,289.5,379.0,284.5,384.0,280.5,384.5,277.5,381.0,275.5" stroke="green" stroke-width="1" fill="none" />
<polyline points="368.0,267.5,368.0,253.5,374.5,245.0,367.0,246.0,366.0,247.5,369.5,245.0,374.5,236.0,364.0,232.0,362.0,232.0,370.0,218.5,378.5,217.5,374.0,205.0,370.5,214.5,363.5,220.5,363.0,221.0,367.0,209.5,366.0,207.5" stroke="green" stroke-width="1" fill="none" />
<polyline points="" stroke="green" stroke-width="1" fill="none" />
<polyline points="363.5,247.5,366.0,261.5,372.5,258.5,376.5,274.0,377.5,274.5,371.0,282.0,384.5,281.0,379.0,280.0,368.5,287.0,381.5,288.5" stroke="orange" stroke-width="1" fill="none" />
<polyline points="376.5,280.5,391.0,291.5,376.0,287.0,381.5,300.5,380.5,297.5,372.0,301.5,375.5,307.5,372.5,313.5,371.0,312.5,376.0,329.0,383.5,320.0,384.0,336.5,374.0,336.5,371.5,336.5,377.5,335.0,376.0,340.0,383.0,348.5,382.5,350.5,385.0,343.0,382.0,345.0" stroke="green" stroke-width="1" fill="none" />
<polyline points="370.5,368.5,366.5,369.0,378.5,376.5" stroke="yellow" stroke-width="1" fill="none" />
<polyline points="" stroke="yellow" stroke-width="1" fill="none" />
<polyline points="382.0,372.0,387.5,378.5,381.5,385.5,371.0,383.0,371.5,378.5,374.0,379.0" stroke="green" stroke-width="1" fill="none" />
<polyline points="347.0,413.0,351.0,404.5,338.0,406.0,344.0,398.5,337.0,394.5,325.5,403.5,321.0,392.5,326.5,404.5,313.0,397.5,308.5,392.5,323.0,392.5,306.0,396.0,294.0,391.5,316.0,389.5,316.5,389.5" stroke="orange" stroke-width="1" fill="none" />
<polyline points="324.0,353.0,328.0,349.5,337.5,343.0,329.5,331.0,330.5,317.0,343.0,327.5,341.5,326.0,345.5,320.5" stroke="black" stroke-width="1" fill="none" />
<polyline points="361.0,327.0,360.0,331.5,366.5,333.0,363.0,333.0,360.0,345.5,347.0,342.5,352.5,342.5,353.0,345.5" stroke="orange" stroke-width="1" fill="none" />
<polyline points="353.5,376.0,354.5,366.5,353.5,365.0,343.0,360.5,351.0,372.5,357.0,367.5,343.5,389.5,348.5,381.5,349.5,386.0,351.0,397.0,338.5,398.0,355.5,393.0,361.0,411.5,349.5,414.5,351.0,417.5,346.0,414.5,341.5,427.5,351.0,420.5,337.0,424.0,344.0,428.0,356.5,432.5,357.0,436.0" stroke="black" stroke-width="1" fill="none" />
<polyline points="362.0,373.0,362.5,372.0,359.0,363.5,356.0,361.0,359.5,373.5,364.0,363.5" stroke="yellow" stroke-width="1" fill="none" />
<polyline points="358.5,360.0,366.0,370.5,353.5,378.5,364.0,376.5" stroke="black" stroke-width="1" fill="none" />
<polyline points="364.5,369.0,354.5,368.5,359.5,381.0,357.5,381.0,357.5,385.5,365.5,378.5,354.0,392.0,363.0,395.5,348.5,395.0,364.0,399.5,346.0,419.5,358.5,415.0,361.5,414.0" stroke="yellow" stroke-width="1" fill="none" />
<polyline points="377.0,464.0,381.5,454.5,372.5,459.5,370.5,460.5,371.5,451.5,372.0,456.0,367.0,450.5,367.5,443.0,378.0,438.5,373.0,413.0,374.0,415.5,374.0,419.0,376.0,412.0,382.0,417.5,378.5,423.5,374.0,417.0,377.0,402.0,377.0,404.0,378.5,388.0,376.0,392.0,377.0,388.0,375.5,372.5,368.0,375.5,381.0,382.5,369.0,377.5,387.0,364.5,388.0,371.5,386.5,353.5,384.0,364.5,380.5,349.5,379.0,342.5,374.5,343.5,372.5,342.5,370.0,339.5,370.5,334.0,371.5,326.5,376.5,318.0,372.0,315.0,364.0,312.0,374.0,311.0,374.0,302.0,372.5,307.5,371.5,297.5,374.0,293.5,370.5,282.5,371.0,274.0,374.5,274.5,374.5,278.0,368.5,275.5,374.0,271.0,365.5,270.5,371.5,267.5,375.0,261.5,361.5,265.0,367.0,243.0,371.0,256.0,357.0,234.5,368.5,242.0,364.5,244.5,364.0,235.0,370.5,215.5,374.0,218.0,371.0,217.5,356.5,214.5,362.0,214.0,357.0,198.5,352.0,206.5,352.5,208.0,351.5,201.5,348.5,200.5,345.0,203.5,360.5,201.0,353.0,193.5,347.0,205.0,345.0,186.0" stroke="yellow" stroke-width="1" fill="none" />
<polyline points="" stroke="yellow" stroke-width="1" fill="none" />
<polyline points="359.0,212.0,357.5,215.5,357.5,211.5" stroke="green" stroke-width="1" fill="none" />
<polyline points="" stroke="yellow" stroke-width="1" fill="none" />
<polyline points="363.0,184.0,363.0,199.0,369.5,197.0,362.0,199.5,369.5,206.5,365.5,208.0" stroke="yellow" stroke-width="1" fill="none" />
<polyline points="" stroke="black" stroke-width="1" fill="none" />
<polyline points="" stroke="black" stroke-width="1" fill="none" />
<polyline points="339.5,201.0,344.5,204.5,341.0,207.5,340.0,203.0,343.0,206.5,342.0,209.0" stroke="orange" stroke-width="1" fill="none" />
<polyline points="338.5,218.0,363.5,221.0,351.0,226.0,364.0,226.5,355.0,239.0,358.5,235.5,365.0,240.0,354.0,251.5,352.0,239.0" stroke="black" stroke-width="1" fill="none" />
<polyline points="360.0,242.5,362.0,243.0,356.5,245.0" stroke="orange" stroke-width="1" fill="none" />
<polyline points="346.5,246.5,346.5,255.5,347.5,264.0,347.0,265.5" stroke="black" stroke-width="1" fill="none" />
<polyline points="325.5,253.5,334.0,251.5,338.5,258.0,341.0,263.0" stroke="black" stroke-width="1" fill="none" />
<polyline points="342.5,245.5,342.5,245.0,342.0,249.5,340.5,247.5" stroke="orange" stroke-width="1" fill="none" />
<polyline points="" stroke="yellow" stroke-width="1" fill="none" />
<polyline points="" stroke="orange" stroke-width="1" fill="none" />
<polyline points="337.5,281.0,342.5,279.0,356.5,280.0,351.0,279.0,352.0,287.5,350.0,296.5,344.5,295.0,350.5,286.0,349.0,300.5,354.0,315.0,342.0,306.0,350.0,308.0,344.0,313.0,337.5,326.0,345.0,326.5,338.0,334.5,342.0,337.0,333.5,334.5,331.5,337.0,330.5,339.0,327.5,341.0,330.0,354.5,328.5,362.5,326.0,366.0,330.5,347.0,322.5,372.0,317.5,369.0,312.0,383.0,321.0,382.5,319.0,382.5,307.0,391.5,314.5,399.0,327.5,397.5,329.0,403.0,347.5,411.0,343.0,418.5,350.0,404.0,347.0,420.0,349.5,415.5,368.0,418.0,350.5,423.0,362.5,432.0,365.5,430.5,362.5,438.0,360.5,452.0,374.0,443.5,378.0,462.0,370.5,456.5,367.0,461.5,370.5,462.0,373.0,469.5,370.5,474.5,384.5,471.5,372.5,484.0,378.0,481.0,378.5,490.0,388.5,496.0,384.0,497.0,388.0,499.5,381.5,498.5,380.5,510.5,385.0,505.5,383.0,517.5,383.0,507.5,384.5,509.5,379.0,507.0,381.0,510.0" stroke="green" stroke-width="1" fill="none" />
<polyline points="418.5,501.5,435.5,488.5,442.0,495.0,436.5,478.5,441.5,489.0,442.0,484.5,448.5,476.0" stroke="yellow" stroke-width="1" fill="none" />
<polyline points="447.5,480.5,455.0,456.0,445.0,462.5,450.5,460.5,446.0,463.0,447.5,460.0,446.0,455.0,444.0,459.0" stroke="black" stroke-width="1" fill="none" />
<polyline points="452.0,460.5,447.0,463.0,443.5,455.5,445.5,452.0,447.5,457.0,449.0,460.0" stroke="yellow" stroke-width="1" fill="none" />
<polyline points="488.0,401.0,488.5,407.5,489.0,400.5,484.5,391.0,500.0,390.5,507.0,379.0,507.0,388.5,514.5,385.0,508.5,390.0,505.0,378.5,503.0,376.0" stroke="orange" stroke-width="1" fill="none" />
<polyline points="491.5,391.0,494.5,397.0,480.0,399.0,490.0,403.0,481.5,403.5,482.5,415.5,475.5,416.0,467.0,419.0,468.0,428.5,466.0,425.0,468.5,422.0,461.0,443.0,456.0,443.5,460.0,450.0,466.0,447.5,458.5,453.5,459.0,452.0,458.0,466.5,449.0,469.0,446.5,466.0,452.5,472.5,457.5,472.5,445.5,479.0,441.5,468.5,447.0,473.0,447.5,473.0,446.5,472.5" stroke="green" stroke-width="1" fill="none" />
<polyline points="429.5,486.0,434.0,470.0,440.5,473.0,451.0,474.0,442.0,464.5,444.0,462.0,447.5,455.0,437.0,464.5" stroke="green" stroke-width="1" fill="none" />
<polyline points="435.0,455.0,433.5,452.0,430.5,460.5,439.5,451.0,427.0,437.0,430.5,438.0,427.0,439.5,433.5,427.0,437.5,431.5" stroke="green" stroke-width="1" fill="none" />
<polyline points="421.0,470.5,413.0,472.5,431.0,474.0,420.0,469.5,415.5,484.0,417.5,490.0,422.5,507.5,421.0,489.0,415.5,498.5,414.5,498.0,411.5,498.0,411.5,499.5" stroke="black" stroke-width="1" fill="none" />
<polyline points="419.0,475.0,420.0,472.0" stroke="black" stroke-width="1" fill="none" />
<polyline points="481.5,418.0,487.5,411.0,486.0,403.5,487.5,400.5,493.0,402.5" stroke="orange" stroke-width="1" fill="none" />
<polyline points="454.5,412.5,445.5,409.0,452.0,404.0,463.0,394.0,454.5,393.0,459.0,391.5,458.5,383.5,451.5,386.0,467.0,368.5,450.0,367.5,463.5,374.5,461.5,375.5" stroke="yellow" stroke-width="1" fill="none" />
<polyline points="391.0,344.5,391.0,346.0,381.5,338.0,395.5,345.5,384.0,331.0" stroke="orange" stroke-width="1" fill="none" />
<polyline points="363.0,363.5,365.5,376.0,373.0,371.5" stroke="green" stroke-width="1" fill="none" />
<polyline points="" stroke="black" stroke-width="1" fill="none" />
<polyline points="" stroke="green" stroke-width="1" fill="none" />
<polyline points="297.0,353.5,299.5,356.5,299.0,351.5,306.5,353.5,306.5,358.5,300.0,355.0,298.5,353.5" stroke="orange" stroke-width="1" fill="none" />
<polyline points="297.5,363.5,294.5,360.5,299.0,361.0,298.5,372.0,313.5,372.0,305.0,364.5,307.0,361.5,303.5,363.0,304.5,353.0" stroke="yellow" stroke-width="1" fill="none" />
<polyline points="304.0,350.0,295.0,350.5,298.5,350.5,289.5,354.0,296.5,349.0,294.5,349.5,285.5,357.0,298.0,355.0" stroke="yellow" stroke-width="1" fill="none" />
<polyline points="309.0,335.0,303.5,325.5,323.5,329.5,317.0,331.5,310.0,331.0" stroke="green" stroke-width="1" fill="none" />
<polyline points="303.0,332.5,301.0,334.0,302.5,331.0,294.5,330.0,294.0,325.0" stroke="orange" stroke-width="1" fill="none" />
<polyline points="302.0,326.5,301.5,322.5,307.0,324.0,302.5,319.0,301.5,323.5,300.5,322.0" stroke="orange" stroke-width="1" fill="none" />
<polyline points="326.5,332.0,326.5,309.0,326.0,307.0" stroke="black" stroke-width="1" fill="none" />
<polyline points="340.0,267.0,341.0,269.5,344.5,279.0,345.5,278.0,345.0,272.5" stroke="yellow" stroke-width="1" fill="none" />
<polyline points="348.0,279.0,346.0,280.0,346.0,278.5,339.0,273.0,335.0,260.0,334.5,268.0,333.0,254.5,336.5,260.5,338.5,262.5,334.0,253.5" stroke="black" stroke-width="1" fill="none" />
<polyline points="326.0,279.0,324.5,276.5,325.5,266.0,333.0,267.5,332.5,271.5,326.5,267.5,322.0,276.5,318.5,265.5,321.0,272.5,327.0,262.5,332.0,266.0" stroke="orange" stroke-width="1" fill="none" />
<polyline points="318.5,270.0,327.0,270.5,331.5,277.0" stroke="yellow" stroke-width="1" fill="none" />
<polyline points="315.0,271.0,322.0,273.5,321.0,267.0,319.5,262.0,324.0,259.5,318.0,261.5" stroke="yellow" stroke-width="1" fill="none" />
<polyline points="336.5,258.0,335.0,249.5,345.0,253.0,343.0,256.5" stroke="orange" stroke-width="1" fill="none" />
<polyline points="332.5,228.5,333.0,225.0,344.0,207.0,335.0,190.0,337.0,191.5" stroke="orange" stroke-width="1" fill="none" />
<polyline points="339.0,212.0,348.5,205.0,344.5,204.0,352.5,197.5,362.0,194.0,367.0,182.5,364.0,186.0,366.5,184.5,364.5,188.0,380.0,180.0,385.5,180.0,387.5,178.0,386.0,185.0,389.5,172.5,397.0,176.5,405.5,170.0,405.5,172.5,407.0,177.0,398.5,177.0,396.5,169.5,395.5,199.0,397.0,190.0,393.0,193.0,384.5,201.0,385.0,198.5,387.5,191.0,397.5,185.5" stroke="black" stroke-width="1" fill="none" />
<polyline points="414.5,175.0,417.5,168.5,415.0,159.5,407.5,171.0,408.0,163.0,396.5,176.0,389.0,172.5,390.5,182.0,400.0,188.5,401.0,189.0,397.0,187.0" stroke="green" stroke-width="1" fill="none" />
<polyline points="375.0,180.0,363.5,178.0,366.5,184.5,350.0,181.5,331.0,187.0,337.0,200.5,347.5,193.5,344.5,204.5,350.5,206.0,361.0,211.0,356.5,212.0,359.0,217.5,361.5,217.0" stroke="yellow" stroke-width="1" fill="none" />
<polyline points="" stroke="black" stroke-width="1" fill="none" />
<polyline points="" stroke="black" stroke-width="1" fill="none" />
<polyline points="350.0,214.0,353.5,214.5" stroke="green" stroke-width="1" fill="none" />
<polyline points="339.5,202.0,338.0,202.0" stroke="yellow" stroke-width="1" fill="none" />
<polyline points="" stroke="yellow" stroke-width="1" fill="none" />
<polyline points="350.0,199.5,353.0,187.0,346.0,195.0,357.0,193.0,355.5,199.5" stroke="black" stroke-width="1" fill="none" />
<polyline points="" stroke="orange" stroke-width="1" fill="none" />
<polyline points="" stroke="black" stroke-width="1" fill="none" />
<polyline points="351.0,187.5,352.0,185.5,357.0,194.5,360.0,192.5,369.5,188.5,375.0,190.0,378.5,193.0,373.0,195.0,375.0,186.0,379.0,193.5" stroke="orange" stroke-width="1" fill="none" />
<polyline points="386.5,155.5,392.0,160.5,405.0,152.5,391.5,165.5,385.0,162.0,397.0,172.0,400.5,174.0,384.5,178.0,397.0,163.5,389.5,167.5,393.5,154.5,408.5,156.0,391.0,159.0" stroke="green" stroke-width="1" fill="none" />
<polyline points="405.0,168.0,400.5,163.0,389.0,174.0,381.0,177.5,387.0,176.5,387.0,178.0,395.5,165.0,399.0,163.5,398.5,162.0,401.0,156.5,398.0,158.5,397.0,158.0,408.5,164.5,406.5,159.0" stroke="yellow" stroke-width="1" fill="none" />
<polyline points="407.5,130.0,394.0,127.5,380.5,131.0,370.5,146.0,392.5,131.0,394.5,111.5,387.0,116.5,391.5,115.5,389.5,109.0" stroke="yellow" stroke-width="1" fill="none" />
<polyline points="389.5,125.5,383.0,121.5,391.5,123.0,390.0,131.5,383.0,134.5,370.0,127.0,385.5,134.0,391.5,131.0,387.0,123.0,388.0,119.0,389.0,123.0,388.5,117.0,385.0,119.5,385.0,116.5,387.5,118.5" stroke="black" stroke-width="1" fill="none" />
<polyline points="384.5,131.5,389.0,128.0,381.5,117.5,360.5,140.5,362.5,142.5" stroke="orange" stroke-width="1" fill="none" />
<polyline points="346.5,154.0,331.5,155.5,335.0,168.5,323.5,170.0,319.0,167.0,308.0,175.5,300.5,177.0,307.5,191.5,301.0,187.0,304.5,181.5,300.5,183.5,304.0,182.0" stroke="green" stroke-width="1" fill="none" />
<polyline points="" stroke="yellow" stroke-width="1" fill="none" />
<polyline points="" stroke="orange" stroke-width="1" fill="none" />
<polyline points="" stroke="green" stroke-width="1" fill="none" />
<polyline points="" stroke="green" stroke-width="1" fill="none" />
<polyline points="277.5,178.5,275.0,180.0,261.0,181.0,260.5,169.0,257.5,163.5,241.5,165.0,242.5,167.0,244.0,163.0,242.0,166.5" stroke="black" stroke-width="1" fill="none" />
<polyline points="236.0,172.5,236.0,168.5,260.0,165.5,252.0,167.0,249.0,169.5,242.5,178.5,248.0,177.0,253.5,182.5,247.0,187.0,245.5,194.5,238.5,197.5,234.0,199.0,249.5,209.0,237.5,204.5,241.5,202.0,243.5,210.5,247.5,203.0,256.5,206.0,257.0,199.0,258.5,206.0,261.0,206.5,260.5,201.5,253.5,210.0,237.0,226.5,243.5,224.5,251.5,234.5,243.5,235.0,239.5,243.0,243.5,238.0,237.5,250.5,223.5,243.5,230.0,250.0,224.0,258.5,217.5,263.5,220.5,261.0,218.0,271.5,212.5,274.5,207.0,275.5,210.5,288.5,208.0,281.5,207.5,287.0,196.0,302.5,204.0,305.5,194.5,303.0,195.5,310.5,189.0,314.0,198.5,311.0,191.0,318.0,185.0,325.5,184.0,330.0,187.0,333.5,170.0,334.0,172.5,321.0,167.5,322.5,177.5,342.0,166.5,337.5,170.0,346.0,169.5,350.0,169.5,345.0,172.5,346.5,170.0,351.0" stroke="yellow" stroke-width="1" fill="none" />
<polyline points="157.5,350.5,154.0,346.0,156.0,347.5,162.5,370.0,149.5,362.5,152.0,356.5,155.0,372.5,164.0,376.0,146.0,375.0,153.0,381.5,151.0,395.0,155.0,388.0,149.0,397.0,156.5,391.0,156.5,416.0,170.5,414.5,178.5,411.0,180.5,412.5,177.0,418.5" stroke="yellow" stroke-width="1" fill="none" />
<polyline points="" stroke="orange" stroke-width="1" fill="none" />
<polyline points="164.0,413.0,176.0,416.5,169.0,415.5,169.0,426.5,170.5,422.5,175.5,429.5" stroke="black" stroke-width="1" fill="none" />
<polyline points="" stroke="black" stroke-width="1" fill="none" />
<polyline points="171.0,436.0,164.0,433.5,160.0,433.5,183.5,433.5" stroke="black" stroke-width="1" fill="none" />
<polyline points="" stroke="green" stroke-width="1" fill="none" />
<polyline points="" stroke="orange" stroke-width="1" fill="none" />
<polyline points="174.0,471.5,164.0,444.5,170.5,448.5,172.5,454.5" stroke="orange" stroke-width="1" fill="none" />
<polyline points="172.0,455.0,175.5,463.5,171.0,463.5,176.5,464.0,172.5,459.0,177.5,465.5,175.5,461.0,178.5,473.5,181.0,457.5,187.0,459.5" stroke="yellow" stroke-width="1" fill="none" />
<polyline points="161.5,463.5,154.5,470.0,153.0,470.5,155.0,464.0,144.0,458.0,141.0,448.5,136.5,461.0,133.0,459.5,136.5,465.0" stroke="yellow" stroke-width="1" fill="none" />
<polyline points="152.5,477.5,157.0,474.5,164.5,483.5,153.5,476.5" stroke="yellow" stroke-width="1" fill="none" />
<polyline points="170.5,503.0,170.0,506.0,156.0,500.5,159.0,500.0,156.5,511.5,151.0,503.5,153.0,507.5" stroke="black" stroke-width="1" fill="none" />
<polyline points="167.0,497.5,157.0,497.5,144.5,497.5,154.0,497.0,155.5,492.0,145.5,484.5,138.5,491.0" stroke="black" stroke-width="1" fill="none" />
<polyline points="149.0,495.5,147.5,496.5,156.5,501.5,154.0,491.0" stroke="green" stroke-width="1" fill="none" />
<polyline points="" stroke="orange" stroke-width="1" fill="none" />
<polyline points="" stroke="green" stroke-width="1" fill="none" />
<polyline points="" stroke="yellow" stroke-width="1" fill="none" />
<polyline points="158.0,500.5,155.0,486.5,160.5,486.0,154.5,482.0" stroke="green" stroke-width="1" fill="none" />
<polyline points="148.0,492.0,152.5,500.0,157.5,506.0" stroke="orange" stroke-width="1" fill="none" />
<polyline points="147.0,482.0,146.5,483.5" stroke="green" stroke-width="1" fill="none" />
<polyline points="143.0,490.0,145.0,491.0,138.5,495.0,145.0,483.5,142.0,483.0,142.5,495.5,155.0,491.0,141.5,495.5,144.0,495.0,154.0,521.0,155.0,515.0" stroke="green" stroke-width="1" fill="none" />
<polyline points="" stroke="green" stroke-width="1" fill="none" />
<polyline points="151.0,515.5,147.5,514.0,149.5,510.0" stroke="orange" stroke-width="1" fill="none" />
<polyline points="137.0,501.0,133.0,510.5,139.5,487.0,142.0,483.5,146.5,485.5" stroke="green" stroke-width="1" fill="none" />
<polyline points="137.5,484.5,134.0,500.0,127.5,503.0,129.0,496.5,134.5,509.5,134.0,511.0,130.0,508.0,134.0,504.0,133.5,506.0" stroke="yellow" stroke-width="1" fill="none" />
<polyline points="118.5,503.0,124.0,505.0,127.5,498.0,121.0,497.5,121.0,494.0" stroke="black" stroke-width="1" fill="none" />
<polyline points="116.5,517.5,114.5,522.5,119.0,522.5" stroke="black" stroke-width="1" fill="none" />
<polyline points="129.0,494.0,129.5,490.5,120.0,482.0,119.5,492.0,125.0,493.5" stroke="black" stroke-width="1" fill="none" />
<polyline points="" stroke="yellow" stroke-width="1" fill="none" />
<polyline points="117.5,518.5,121.5,521.5,130.5,524.0,125.0,521.5,124.5,520.0,127.0,519.0" stroke="black" stroke-width="1" fill="none" />
<polyline points="" stroke="green" stroke-width="1" fill="none" />
<polyline points="132.5,488.5,138.5,490.5,142.0,485.5,136.0,495.5,135.0,498.0,130.5,504.0,125.0,506.5,143.5,505.0" stroke="black" stroke-width="1" fill="none" />
<polyline points="" stroke="green" stroke-width="1" fill="none" />
<polyline points="" stroke="orange" stroke-width="1" fill="none" />
<polyline points="169.5,488.5,159.0,481.0" stroke="yellow" stroke-width="1" fill="none" />
<polyline points="176.5,478.5,168.5,477.5,171.5,479.5,173.5,477.5" stroke="black" stroke-width="1" fill="none" />
<polyline points="164.0,485.5,165.0,477.0,179.0,492.5,176.5,492.5,177.0,494.5,174.0,494.0,176.0,496.5" stroke="orange" stroke-width="1" fill="none" />
<polyline points="214.5,479.0,216.5,472.0,223.5,477.0,225.5,473.5,231.5,465.0,240.5,466.5" stroke="orange" stroke-width="1" fill="none" />
<polyline points="235.5,462.5,238.5,461.0,241.5,447.0,245.5,467.0,241.5,463.5,242.5,462.5" stroke="yellow" stroke-width="1" fill="none" />
<polyline points="219.0,480.0,214.5,476.0,228.0,475.0,225.5,476.0,228.0,472.0,230.0,461.0,220.0,457.5,230.5,468.0,229.0,451.5,231.5,448.5,233.0,436.5,227.5,429.5,234.5,435.0,231.0,433.5,239.0,432.0,236.5,418.0,229.0,420.0,223.5,412.5,231.0,409.5,232.5,409.0,229.0,403.5,237.0,409.0,239.5,404.5,234.0,406.5" stroke="green" stroke-width="1" fill="none" />
<polyline points="" stroke="black" stroke-width="1" fill="none" />
<polyline points="" stroke="yellow" stroke-width="1" fill="none" />
<polyline points="242.5,411.0,236.0,412.5,245.0,415.0,242.0,424.5,237.0,431.0,240.5,430.5,242.5,438.0,244.0,430.5,245.5,449.5,249.0,437.0,236.0,457.0,246.0,459.5,224.0,453.5,231.0,468.5,240.0,469.0,239.0,463.0,230.0,475.0,227.0,475.5,221.5,487.0,223.0,488.5,226.0,487.0,226.0,488.0" stroke="green" stroke-width="1" fill="none" />
<polyline points="201.5,494.5,199.0,493.0,197.0,498.0,200.5,497.0,200.0,492.0,205.5,487.5,208.0,498.0,214.5,486.5,218.5,484.0,222.5,492.0,223.5,487.0,228.0,481.5" stroke="yellow" stroke-width="1" fill="none" />
<polyline points="199.0,451.5,203.0,451.0,202.0,455.5" stroke="green" stroke-width="1" fill="none" />
<polyline points="188.0,443.0,186.5,446.5,191.0,440.5,180.5,442.5,176.5,436.0,181.5,451.5,188.0,449.5,183.0,442.5,180.0,418.5,181.5,436.0,178.0,435.0,194.0,429.0,182.5,431.5,191.0,419.0,193.0,416.5,174.0,411.0,180.5,404.0,172.5,400.5,172.5,400.0,166.0,389.5,170.5,386.5,160.5,390.0,151.0,380.0,168.0,375.0,175.0,381.5,165.0,386.0,156.0,381.0,162.0,388.5,163.0,386.0,156.0,385.5,156.0,388.0,156.5,386.5" stroke="yellow" stroke-width="1" fill="none" />
<polyline points="157.0,368.5,164.5,363.0,172.5,361.5,176.0,364.5,190.5,342.5,179.5,343.0,187.5,343.5,191.0,337.0,195.0,321.5,192.5,330.0,195.0,322.0,193.0,325.0,187.0,329.5,199.5,327.0,204.5,331.5,201.5,334.5" stroke="yellow" stroke-width="1" fill="none" />
<polyline points="" stroke="green" stroke-width="1" fill="none" />
<polyline points="199.5,313.0,202.0,308.5,204.5,293.5,205.0,277.0,211.0,283.5,218.5,268.0,216.5,270.5,228.5,257.5,222.5,259.5,226.0,251.0,236.0,245.0,242.5,234.5,244.0,236.0,248.5,224.0,254.5,225.0,249.5,223.0" stroke="orange" stroke-width="1" fill="none" />
<polyline points="" stroke="black" stroke-width="1" fill="none" />
<polyline points="260.0,230.5,256.5,235.5,257.0,230.5" stroke="black" stroke-width="1" fill="none" />
<polyline points="253.0,238.5,267.0,222.5,259.0,224.5,262.5,224.5,253.5,228.5,243.0,237.5,246.0,238.5,231.5,242.0,233.0,237.5,233.0,252.0,238.5,263.0,221.5,257.0,221.0,275.0,208.5,286.5,217.5,282.0,219.0,278.0,211.5,276.5,220.5,275.0,233.5,268.5,222.5,267.5,233.0,258.0,221.5,254.0,236.0,262.0,236.0,251.0,244.5,238.5,248.0,246.0,242.5,235.5,248.5,230.0,255.0,226.0,259.0,231.0,264.0,214.0,258.5,223.5,258.0,216.0,263.5,220.0,263.5,214.5,264.5,204.0,266.5,196.0,269.0,195.0,273.5,193.5,272.5,192.5,258.5,200.0,256.5,213.0,254.0,204.5,246.0,205.5,249.0,203.5,252.5,206.0,255.0,209.0" stroke="yellow" stroke-width="1" fill="none" />
<polyline points="" stroke="yellow" stroke-width="1" fill="none" />
<polyline points="255.0,217.5,251.5,220.5,244.0,224.0,237.5,242.5,234.5,241.5,222.5,238.5,229.5,228.5,233.0,225.0,233.0,219.5,231.0,207.5,222.5,204.5,227.5,213.0,227.0,201.5,229.0,207.0,225.5,206.0" stroke="black" stroke-width="1" fill="none" />
<polyline points="238.5,214.0" stroke="yellow" stroke-width="1" fill="none" />
<polyline points="" stroke="orange" stroke-width="1" fill="none" />
<polyline points="" stroke="yellow" stroke-width="1" fill="none" />
<polyline points="244.5,191.0,254.0,190.0,262.0,190.0,249.0,171.0,247.0,196.5,257.0,199.5,241.5,188.0,251.5,179.0,251.0,172.0,256.0,182.5,267.0,180.0,271.5,181.5" stroke="green" stroke-width="1" fill="none" />
<polyline points="257.5,191.5,251.5,178.0,253.0,185.0,249.5,194.0,253.5,187.0,256.0,187.0,247.5,209.5,243.5,201.0,243.0,200.5,259.5,196.0,253.0,203.0,259.0,195.5,268.0,195.0,270.5,194.0,262.5,181.0,263.5,186.0,264.5,188.5,265.5,183.5" stroke="orange" stroke-width="1" fill="none" />
<polyline points="265.5,202.0,258.5,198.5,261.5,205.5,258.5,193.0,273.0,187.0,263.0,192.5,259.5,178.0,268.0,188.0" stroke="orange" stroke-width="1" fill="none" />
<polyline points="246.0,210.5,242.5,218.5,243.0,214.0" stroke="black" stroke-width="1" fill="none" />
<polyline points="256.5,206.5,264.0,201.5,251.5,215.5,254.0,213.0,260.5,228.0,247.0,227.0,245.5,228.0,239.5,229.0" stroke="orange" stroke-width="1" fill="none" />
<polyline points="" stroke="green" stroke-width="1" fill="none" />
<polyline points="216.0,222.0,233.0,213.5,229.5,223.0,223.5,216.0" stroke="orange" stroke-width="1" fill="none" />
<polyline points="" stroke="green" stroke-width="1" fill="none" />
<polyline points="218.5,245.5,210.0,237.0,221.0,231.5,211.5,242.0,218.0,239.0,220.5,240.0,218.5,237.5,217.0,244.5" stroke="orange" stroke-width="1" fill="none" />
<polyline points="230.5,229.5,229.5,239.5,230.5,247.5,221.0,248.5" stroke="black" stroke-width="1" fill="none" />
<polyline points="219.0,250.5,224.5,244.0,219.5,238.5,223.5,240.5,225.0,239.5,231.0,238.5,224.0,232.5,228.0,233.5,227.0,231.0,215.5,224.0,230.5,215.0,218.5,225.5,223.0,207.0,221.5,216.0,215.0,216.5,225.0,216.5,223.0,217.5" stroke="green" stroke-width="1" fill="none" />
<polyline points="216.0,216.0,220.0,232.0,205.0,221.5,207.0,236.0,219.5,227.0,221.5,239.5,229.0,241.5,216.5,232.0" stroke="green" stroke-width="1" fill="none" />
<polyline points="222.0,246.5,231.5,251.0,241.5,253.0,223.5,257.0,217.5,265.5,217.0,268.0,203.0,271.5,203.5,285.5,204.0,295.0,197.0,291.0,186.5,296.0,191.5,307.0,183.5,314.5,179.5,325.0,181.0,328.5,176.5,327.0,165.0,330.5,176.0,336.5,162.0,342.0,156.0,339.0,162.5,343.5,151.5,346.0,152.0,340.5,146.0,338.0" stroke="green" stroke-width="1" fill="none" />
<polyline points="157.0,343.5,154.0,333.5,160.0,341.5,160.5,328.5,167.0,329.0,151.0,333.5,158.0,330.0,145.0,334.0,148.0,339.5,146.0,328.5,152.5,336.0,153.5,333.5" stroke="black" stroke-width="1" fill="none" />
<polyline points="150.0,326.0,147.5,337.0,156.5,338.0,159.5,345.5,155.5,350.5" stroke="black" stroke-width="1" fill="none" />
<polyline points="153.0,342.5,150.0,344.5,152.5,352.5,155.0,350.5,152.5,350.0,152.0,349.5,149.5,347.5" stroke="yellow" stroke-width="1" fill="none" />
<polyline points="126.5,338.0,143.0,332.0,139.0,328.0,134.0,329.5,137.0,330.5,143.0,327.5,136.5,319.5,129.5,314.5,127.5,303.5,128.5,307.0,132.0,302.5,135.5,304.0" stroke="black" stroke-width="1" fill="none" />
<polyline points="" stroke="green" stroke-width="1" fill="none" />
<polyline points="124.5,302.5,127.0,301.5,127.5,300.0" stroke="black" stroke-width="1" fill="none" />
<polyline points="" stroke="green" stroke-width="1" fill="none" />
<polyline points="142.0,278.5,141.5,277.5,140.5,279.0,144.5,281.0,138.5,275.5,144.5,277.0" stroke="yellow" stroke-width="1" fill="none" />
<polyline points="146.5,279.0,148.0,263.0,148.0,260.5" stroke="green" stroke-width="1" fill="none" />
<polyline points="" stroke="orange" stroke-width="1" fill="none" />
<polyline points="148.0,272.0,149.0,270.5,154.0,262.5,163.0,269.0,164.0,272.5,171.5,266.5,173.0,280.0,164.0,280.0" stroke="black" stroke-width="1" fill="none" />
<polyline points="159.5,285.5,161.5,264.0,150.5,271.0,160.0,255.5,164.5,255.5,168.0,246.0,172.5,244.5,170.0,244.0,161.5,253.0,161.5,246.0,164.0,247.0" stroke="yellow" stroke-width="1" fill="none" />
<polyline points="" stroke="green" stroke-width="1" fill="none" />
<polyline points="177.5,260.5,174.0,265.0,174.0,263.5" stroke="black" stroke-width="1" fill="none" />
<polyline points="" stroke="orange" stroke-width="1" fill="none" />
<polyline points="" stroke="orange" stroke-width="1" fill="none" />
<polyline points="" stroke="black" stroke-width="1" fill="none" />
<polyline points="" stroke="yellow" stroke-width="1" fill="none" />
<polyline points="187.0,249.0,186.0,266.0,185.5,251.5,184.5,260.0,185.0,259.5" stroke="orange" stroke-width="1" fill="none" />
<polyline points="205.5,262.0,204.0,264.0,218.0,270.5,205.0,271.0,210.5,275.0" stroke="green" stroke-width="1" fill="none" />
<polyline points="200.5,242.5,212.5,225.5,209.5,235.0,213.0,234.5,205.5,237.0,208.0,236.5,207.0,235.5" stroke="yellow" stroke-width="1" fill="none" />
<polyline points="210.5,239.5,209.5,243.0,202.0,242.0,202.5,242.0,207.5,244.0,207.0,245.0" stroke="yellow" stroke-width="1" fill="none" />
<polyline points="203.5,255.0,198.5,247.5,209.5,254.5,203.0,252.0" stroke="green" stroke-width="1" fill="none" />
<polyline points="215.0,249.5,212.0,253.0,210.0,264.0,214.0,247.5,214.0,250.5,206.0,253.5,206.0,264.0" stroke="black" stroke-width="1" fill="none" />
<polyline points="229.0,248.5,219.5,241.0,210.0,247.5,213.5,237.0,213.0,238.5,213.0,242.5,212.5,241.5" stroke="green" stroke-width="1" fill="none" />
<polyline points="209.0,231.5,203.5,237.5,207.5,235.5,218.5,241.5,201.0,248.0,205.0,251.0,210.5,257.5,217.0,260.0" stroke="orange" stroke-width="1" fill="none" />
<polyline points="219.5,260.0,218.5,256.0,213.0,260.0" stroke="black" stroke-width="1" fill="none" />
<polyline points="202.5,255.5,204.5,253.0,200.0,261.0,203.5,252.0,204.0,255.5" stroke="black" stroke-width="1" fill="none" />
<polyline points="" stroke="black" stroke-width="1" fill="none" />
<polyline points="186.0,265.5,186.5,261.5,184.0,244.0,185.0,253.5,178.0,254.5,184.0,258.0,192.5,236.5,195.5,243.0,186.5,228.5,198.5,236.0,187.0,245.5,185.0,243.5,186.0,245.0" stroke="black" stroke-width="1" fill="none" />
<polyline points="186.0,236.5,185.0,228.0,190.5,222.5,191.5,216.5" stroke="black" stroke-width="1" fill="none" />
<polyline points="176.0,230.5,182.0,223.5,189.5,219.0,196.0,217.0,181.0,226.0,184.5,216.0,189.0,225.0,182.5,249.5,193.0,248.0,197.5,250.0" stroke="yellow" stroke-width="1" fill="none" />
<polyline points="" stroke="orange" stroke-width="1" fill="none" />
<polyline points="203.5,254.0,195.0,248.0,189.5,245.5,191.5,247.5,195.5,245.0,192.0,249.0" stroke="orange" stroke-width="1" fill="none" />
<polyline points="210.0,214.5,213.5,216.0,219.5,215.5,214.0,208.5,210.0,203.5" stroke="black" stroke-width="1" fill="none" />
<polyline points="205.5,214.0,207.5,211.5" stroke="green" stroke-width="1" fill="none" />
<polyline points="221.0,236.0,229.5,240.5,234.5,241.5,214.5,231.0,215.0,231.0,224.5,231.0,226.0,231.0" stroke="yellow" stroke-width="1" fill="none" />
<polyline points="227.5,202.0,230.0,210.0,235.0,193.5,223.0,197.5,226.5,207.5,233.0,204.0,216.0,216.5,229.5,225.0,232.5,231.5,231.0,233.0,236.0,233.0,234.0,243.5,238.0,229.0,234.5,235.5,242.0,245.5,239.5,247.5,231.5,254.0,221.0,245.5,226.5,255.0,224.0,257.5,216.5,248.5,219.5,261.0,210.0,267.0,218.5,291.5,209.0,285.5,195.0,293.5,214.5,284.0,199.0,292.5,209.0,301.0,201.0,295.0,191.5,306.5,185.5,312.0,191.0,315.0,195.5,327.5,196.0,323.0,194.0,308.5,213.0,316.0,208.5,311.5,224.0,298.5,228.0,301.5,222.0,287.5,224.5,283.0,241.0,268.5,238.0,276.0,241.5,269.5,244.5,271.0,254.0,270.5,259.0,265.0,256.5,247.5,269.0,256.0,270.0,256.5,259.5,250.5,278.5,236.0,286.5,237.5,288.0,250.0,285.0,246.0,284.0,251.5,298.0,252.0,292.5,255.0,295.0,258.0,294.5,253.0,306.0,253.5,294.0,249.0" stroke="green" stroke-width="1" fill="none" />
<polyline points="286.0,274.0,279.0,261.5,285.0,261.0,291.0,260.0,293.0,264.0,287.0,270.5,289.0,275.0" stroke="black" stroke-width="1" fill="none" />
<polyline points="282.0,264.5,291.5,270.5,292.5,275.5" stroke="black" stroke-width="1" fill="none" />
<polyline points="282.5,271.5" stroke="black" stroke-width="1" fill="none" />
<polyline points="288.0,267.5,293.0,271.0,298.0,273.0,289.5,282.5" stroke="green" stroke-width="1" fill="none" />
<polyline points="" stroke="green" stroke-width="1" fill="none" />
<polyline points="282.5,265.5,280.0,261.5,275.5,268.0,270.0,264.5,272.5,268.5" stroke="black" stroke-width="1" fill="none" />
<polyline points="278.0,272.0,275.5,274.0,282.5,275.0,277.0,273.0,274.0,278.5,273.5,278.0" stroke="green" stroke-width="1" fill="none" />
<polyline points="261.5,270.5,262.5,272.5,260.5,270.0" stroke="orange" stroke-width="1" fill="none" />
<polyline points="260.0,265.5,257.0,273.5,270.0,269.5,272.5,272.0,272.5,273.5,276.5,271.0,268.5,282.5,271.0,275.5,275.5,275.0,272.0,292.0,278.5,287.0,281.0,286.0,273.0,280.5,264.0,282.5,273.5,287.0,269.0,285.5,271.5,284.0" stroke="green" stroke-width="1" fill="none" />
<polyline points="259.5,272.0,264.0,273.0,258.5,270.0,255.5,271.5,257.5,271.0" stroke="orange" stroke-width="1" fill="none" />
<polyline points="267.5,281.0,264.5,275.5" stroke="green" stroke-width="1" fill="none" />
<polyline points="252.0,271.5,259.5,275.5,259.5,259.5,252.5,266.0,254.5,267.0,252.5,266.0" stroke="orange" stroke-width="1" fill="none" />
<polyline points="255.0,275.0,260.5,273.0,255.5,272.0,262.0,271.0,260.5,271.0,266.0,280.5,284.5,280.5,282.0,279.0,281.5,279.5" stroke="green" stroke-width="1" fill="none" />
<polyline points="288.5,264.5,289.0,261.5,298.5,257.0,283.5,265.0,281.0,252.5,276.5,250.5" stroke="yellow" stroke-width="1" fill="none" />
<polyline points="274.5,251.5,276.5,252.5,268.0,247.0,266.0,258.5,261.5,251.5" stroke="black" stroke-width="1" fill="none" />
<polyline points="262.5,261.5,261.0,265.5,264.0,254.0,275.0,250.5,262.0,249.0" stroke="green" stroke-width="1" fill="none" />
<polyline points="284.5,247.5,275.5,254.5,276.5,253.0,262.5,254.5,277.5,262.0,258.0,259.5,247.0,254.5,251.0,258.5,258.5,264.5,263.5,261.5,259.0,259.5" stroke="yellow" stroke-width="1" fill="none" />
<polyline points="" stroke="black" stroke-width="1" fill="none" />
<polyline points="276.0,262.5,276.5,262.5,278.0,265.0,289.5,265.5,277.0,266.5,295.5,266.0,284.5,283.0,292.5,277.0,280.5,275.0,284.5,272.5,284.5,273.0,283.5,274.0" stroke="orange" stroke-width="1" fill="none" />
<polyline points="293.5,252.0,284.0,256.0,285.5,255.5,284.0,264.5,286.0,265.0,285.5,256.5" stroke="green" stroke-width="1" fill="none" />
<polyline points="258.5,241.5,257.0,251.5,255.0,255.0,263.0,264.5,242.0,250.5,256.0,266.0,243.0,273.5,237.0,278.5,221.5,271.0,225.0,277.5,228.5,285.0,225.0,300.0,221.0,299.5,223.0,295.0,216.5,307.5,197.0,303.0,203.0,306.0,209.0,309.5,199.0,321.0,197.0,326.5,195.0,325.0,196.5,334.5,195.5,330.5,186.5,342.0,191.0,346.0,169.5,349.5,182.0,347.0,181.5,360.0,174.0,357.5,168.5,363.5,169.0,369.5,157.5,372.0,163.0,379.0,166.5,381.0,153.5,391.5,159.5,387.0,159.5,390.0,165.0,392.5,175.0,408.0,168.5,416.5,179.5,416.0,171.5,416.0,173.5,421.0,173.5,417.5,175.5,413.0,172.5,415.0,171.0,413.5" stroke="black" stroke-width="1" fill="none" />
<polyline points="154.0,388.0,149.0,392.5,148.5,390.0" stroke="black" stroke-width="1" fill="none" />
<polyline points="" stroke="yellow" stroke-width="1" fill="none" />
<polyline points="" stroke="orange" stroke-width="1" fill="none" />
<polyline points="138.0,375.5,135.0,381.5,142.0,382.0,153.0,394.5" stroke="green" stroke-width="1" fill="none" />
<polyline points="125.0,422.0,131.5,420.0,138.5,418.5,124.5,427.0,139.0,426.5,130.5,431.5,143.0,439.0,128.5,447.0,137.5,441.5,134.5,450.5,131.5,455.0,140.0,458.0,132.5,467.5,135.0,468.5,136.5,466.0,133.0,469.0,139.0,477.0,143.5,478.0,154.5,471.0,143.5,478.0,149.0,483.5,165.0,478.5,166.5,480.0,168.5,486.0,165.0,494.0,164.0,494.0" stroke="green" stroke-width="1" fill="none" />
<polyline points="" stroke="black" stroke-width="1" fill="none" />
<polyline points="173.5,450.0,181.0,436.0,166.5,435.5,162.5,440.5,162.5,443.0,176.5,425.5,159.0,431.5,163.5,427.0,167.5,422.5" stroke="orange" stroke-width="1" fill="none" />
<polyline points="" stroke="black" stroke-width="1" fill="none" />
<polyline points="160.0,421.0,155.5,415.0,166.5,425.5,164.5,423.0,164.0,425.0,163.5,418.0,154.0,425.0,166.0,415.5,165.5,414.0,162.0,399.5,163.0,396.5,152.5,385.5,148.5,384.0,158.0,384.5,164.0,376.5,159.5,374.5,149.5,374.5,154.0,370.5" stroke="green" stroke-width="1" fill="none" />
<polyline points="157.5,382.5,154.5,384.5,157.0,387.0,163.0,393.5,163.0,391.5,171.5,402.0,183.0,401.5,174.5,410.0,175.0,400.0,182.0,414.5,182.0,415.5,184.0,413.0,177.0,408.0" stroke="green" stroke-width="1" fill="none" />
<polyline points="176.0,434.5,181.5,429.0,168.0,442.0,176.0,436.0,178.0,441.0,176.5,453.5,176.0,458.5,175.0,455.5,174.5,463.5,172.0,460.0,173.0,468.5,173.5,464.5" stroke="orange" stroke-width="1" fill="none" />
<polyline points="175.5,456.0,168.5,448.0,171.0,439.5,172.0,437.5" stroke="black" stroke-width="1" fill="none" />
<polyline points="162.5,447.0,170.5,459.0,172.5,456.0,159.5,463.5,163.5,453.5,164.0,463.0,163.0,473.5,164.5,476.5,155.0,479.5,168.0,473.5,163.5,491.5,165.0,492.5,169.0,498.5,166.5,498.0,169.0,499.5" stroke="black" stroke-width="1" fill="none" />
<polyline points="" stroke="yellow" stroke-width="1" fill="none" />
<polyline points="" stroke="green" stroke-width="1" fill="none" />
<polyline points="165.0,449.0,164.5,453.0,170.0,475.0,171.5,458.5,162.5,453.5,161.0,455.5" stroke="yellow" stroke-width="1" fill="none" />
<polyline points="155.0,462.5,156.0,464.5,154.0,443.0,147.0,450.0,139.0,450.0,138.0,444.5,139.0,440.5,144.0,424.5,140.0,433.0,148.5,424.5,135.0,422.0,128.5,428.5,129.5,423.0" stroke="yellow" stroke-width="1" fill="none" />
<polyline points="143.0,398.5,137.5,398.5,145.0,396.0,138.5,393.0,142.0,397.0,146.5,395.0" stroke="black" stroke-width="1" fill="none" />
<polyline points="" stroke="green" stroke-width="1" fill="none" />
<polyline points="134.5,390.0,136.0,388.5,131.5,393.0,135.0,404.5,152.5,406.5,151.0,411.5,153.5,414.0,152.5,411.0,158.5,418.0,154.5,415.0,162.0,411.5,158.5,420.5" stroke="black" stroke-width="1" fill="none" />
<polyline points="164.5,431.5,167.5,435.5,156.5,419.5,164.5,443.0,142.5,447.5,151.0,444.5,150.5,448.5,151.5,447.5,152.0,447.5" stroke="black" stroke-width="1" fill="none" />
<polyline points="161.5,445.0,168.5,453.0,171.0,443.0,170.0,444.5,170.0,446.5,168.5,450.5,182.5,441.0,184.5,444.0,185.0,444.5,187.0,445.5" stroke="orange" stroke-width="1" fill="none" />
<polyline points="175.0,415.0,172.0,421.0,171.0,406.0,148.0,410.5,163.0,403.5,158.5,400.5,158.5,400.5" stroke="black" stroke-width="1" fill="none" />
<polyline points="177.5,394.0,169.5,411.0,171.0,411.5,175.0,415.5,168.5,419.0,165.5,423.5,160.0,430.0,170.5,430.5,156.5,431.0,162.0,430.0,174.5,422.5,165.0,425.5,177.0,430.5,167.0,425.0,169.0,425.5,166.5,422.5" stroke="yellow" stroke-width="1" fill="none" />
<polyline points="173.0,435.0,165.5,427.5" stroke="yellow" stroke-width="1" fill="none" />
<polyline points="163.0,434.5,164.5,428.0,165.0,452.5,153.0,447.0,151.5,450.5,155.0,455.5,164.0,461.0" stroke="orange" stroke-width="1" fill="none" />
<polyline points="158.5,455.0" stroke="green" stroke-width="1" fill="none" />
<polyline points="" stroke="yellow" stroke-width="1" fill="none" />
<polyline points="158.5,448.5,152.0,444.0,151.0,447.0,155.0,454.0,158.0,450.5,166.0,450.5,176.5,441.5,179.5,446.5,178.5,443.5" stroke="green" stroke-width="1" fill="none" />
<polyline points="" stroke="yellow" stroke-width="1" fill="none" />
<polyline points="141.0,474.0,148.0,469.5,163.0,475.5,155.5,480.0,161.5,480.0,171.5,480.5,170.0,472.5,173.5,474.5,171.0,474.0" stroke="black" stroke-width="1" fill="none" />
<polyline points="" stroke="yellow" stroke-width="1" fill="none" />
<polyline points="158.5,461.0,153.0,469.0,154.0,471.0,157.5,468.5" stroke="yellow" stroke-width="1" fill="none" />
<polyline points="162.0,465.5,146.5,469.0,140.5,468.5,134.5,454.5,133.0,456.0,134.0,458.0" stroke="orange" stroke-width="1" fill="none" />
<polyline points="148.0,466.5,138.5,460.0,144.5,467.5,140.5,465.5,137.5,475.5,150.0,475.5,151.0,469.5,150.5,471.0" stroke="green" stroke-width="1" fill="none" />
<polyline points="" stroke="orange" stroke-width="1" fill="none" />
<polyline points="150.5,458.5,148.5,465.0,148.5,468.0,161.5,472.5,153.5,465.0,158.0,480.0,160.0,489.0,165.5,476.0,170.0,482.5,161.5,487.0,163.0,497.0,164.5,494.0,168.0,508.5,161.5,502.0,172.5,511.0,171.0,519.0,176.5,522.5,176.0,521.0" stroke="green" stroke-width="1" fill="none" />
<polyline points="152.0,434.5,152.5,444.0,154.0,454.5,157.0,442.5,143.5,441.5,160.0,432.0,155.5,441.0,155.0,436.0,151.5,423.0,150.0,423.0,142.5,411.5,142.5,427.0,147.0,420.5,140.5,420.5,146.0,413.0,136.0,412.5,142.0,423.0,142.5,417.0" stroke="orange" stroke-width="1" fill="none" />
<polyline points="" stroke="yellow" stroke-width="1" fill="none" />
<polyline points="" stroke="green" stroke-width="1" fill="none" />
<polyline points="" stroke="green" stroke-width="1" fill="none" />
<polyline points="141.5,426.5,144.5,422.5,141.5,426.0,140.0,419.0" stroke="yellow" stroke-width="1" fill="none" />
<polyline points="153.0,405.5,159.5,398.5,146.0,392.0,142.0,399.5,142.0,392.0,148.0,391.5,140.5,393.0,140.5,395.5" stroke="black" stroke-width="1" fill="none" />
<polyline points="" stroke="black" stroke-width="1" fill="none" />
<polyline points="155.0,403.0,156.0,405.0,158.5,406.5,160.5,403.0" stroke="yellow" stroke-width="1" fill="none" />
<polyline points="145.5,394.0,147.0,395.0,132.0,398.0,136.0,400.0,133.5,393.5" stroke="yellow" stroke-width="1" fill="none" />
<polyline points="" stroke="yellow" stroke-width="1" fill="none" />
<polyline points="130.0,413.0,125.0,412.0,132.0,405.0,142.5,389.0,130.5,393.5,146.5,397.5,134.0,387.0,136.5,395.5,134.0,378.0,147.0,375.5,142.0,376.5,146.0,363.0,135.0,366.0,147.5,361.0,150.5,369.0,142.0,354.5,131.5,353.5,138.0,350.0,135.0,347.5,138.5,341.5,132.5,329.0,136.0,331.0,139.5,324.0,136.0,326.0,127.0,314.0,123.5,306.0,129.0,313.5,136.5,302.5,118.0,295.0,124.5,290.0,143.5,302.0,131.5,281.0,125.5,274.0" stroke="yellow" stroke-width="1" fill="none" />
<polyline points="123.5,282.5,124.5,282.0,122.5,293.0,121.0,294.5,128.0,287.0,127.0,297.5,123.5,304.0,124.0,312.0,127.5,308.5,127.0,313.5,115.5,312.0,114.5,316.0,115.5,321.0,120.0,323.5,128.5,325.0,119.0,325.5" stroke="orange" stroke-width="1" fill="none" />
<polyline points="126.0,347.5,119.5,353.5,122.5,354.0,112.0,361.0,119.5,357.0" stroke="yellow" stroke-width="1" fill="none" />
<polyline points="118.0,349.5,127.0,360.0,120.0,365.0,131.0,360.0,119.5,363.5,105.5,369.0,108.5,377.0,117.5,378.5,119.5,387.0,120.5,393.0,123.0,394.0,121.0,391.5,122.0,401.0,114.0,398.0" stroke="black" stroke-width="1" fill="none" />
<polyline points="127.5,395.5,128.0,399.0,120.5,392.5,121.0,390.5,129.0,373.5,119.0,376.0,115.5,367.5,117.5,373.5,124.0,362.5,116.0,369.5,108.5,379.0,114.5,368.5,116.0,371.0,116.0,371.0" stroke="orange" stroke-width="1" fill="none" />
<polyline points="126.5,388.5,127.0,386.5,122.5,389.0" stroke="green" stroke-width="1" fill="none" />
<polyline points="128.0,389.0,127.0,391.5,125.5,392.5,122.0,407.5" stroke="green" stroke-width="1" fill="none" />
<polyline points="" stroke="orange" stroke-width="1" fill="none" />
<polyline points="127.5,385.5,127.5,388.0" stroke="green" stroke-width="1" fill="none" />
<polyline points="107.0,408.5" stroke="black" stroke-width="1" fill="none" />
<polyline points="122.5,407.5,120.0,400.0,132.5,412.5,140.5,417.5,129.0,409.0,124.0,425.0,128.0,426.5" stroke="black" stroke-width="1" fill="none" />
<polyline points="131.0,416.5,130.0,417.0,130.0,403.0,130.0,404.0,121.5,399.5" stroke="black" stroke-width="1" fill="none" />
<polyline points="112.0,403.5,113.5,407.5,122.5,404.5,134.5,410.0,130.5,404.0,139.0,405.5" stroke="orange" stroke-width="1" fill="none" />
<polyline points="149.5,407.0,143.0,408.0" stroke="yellow" stroke-width="1" fill="none" />
<polyline points="125.0,399.5,138.0,401.5,135.5,410.5" stroke="green" stroke-width="1" fill="none" />
<polyline points="" stroke="green" stroke-width="1" fill="none" />
<polyline points="" stroke="black" stroke-width="1" fill="none" />
<polyline points="159.5,396.0,172.0,399.5,166.0,406.5,182.0,418.5,180.0,424.5,177.0,427.5,179.5,419.5,188.0,434.5,184.5,437.0" stroke="black" stroke-width="1" fill="none" />
<polyline points="176.5,411.0,159.5,418.0,165.5,412.0,154.0,415.5,153.5,400.0,148.5,391.5,157.5,384.5,141.0,394.0,139.0,399.5,144.5,384.5,144.5,386.0,145.5,386.0,149.5,385.0,138.5,370.5,144.5,373.5,139.5,368.0,139.0,373.0,142.5,374.0,135.5,356.0,139.0,356.0,139.5,360.0,134.0,356.0,123.5,340.0,145.5,349.0,139.5,332.5,134.5,336.0,132.0,319.0,121.5,322.0,128.0,319.5,127.5,316.5,125.0,321.5" stroke="black" stroke-width="1" fill="none" />
<polyline points="126.5,330.0,114.0,327.5,124.0,340.5,126.5,342.0" stroke="yellow" stroke-width="1" fill="none" />
<polyline points="119.0,360.5,116.0,363.0,124.0,368.0,131.0,372.0,128.5,376.0,133.5,371.5,131.0,386.5,134.0,388.5,136.5,387.5,143.0,385.5" stroke="green" stroke-width="1" fill="none" />
<polyline points="131.0,361.5,129.0,367.5,132.0,361.5,132.5,360.5,132.5,366.0,127.0,371.0" stroke="black" stroke-width="1" fill="none" />
<polyline points="" stroke="yellow" stroke-width="1" fill="none" />
<polyline points="" stroke="orange" stroke-width="1" fill="none" />
<polyline points="" stroke="orange" stroke-width="1" fill="none" />
<polyline points="149.0,360.0,147.5,360.0,143.5,369.5,147.0,368.0,144.0,369.5" stroke="black" stroke-width="1" fill="none" />
<polyline points="148.0,362.0,145.5,364.5,148.5,367.0,141.0,367.0,140.5,355.0,142.0,349.0,142.5,345.0,126.5,340.5,135.0,332.0,125.5,332.5,129.5,333.5,129.0,334.0,128.5,330.5" stroke="orange" stroke-width="1" fill="none" />
<polyline points="133.0,343.5,132.5,342.5,126.5,346.5,133.5,349.0,132.0,350.5" stroke="yellow" stroke-width="1" fill="none" />
<polyline points="155.0,336.5,137.0,325.5,139.0,331.0,137.5,327.5,139.0,330.0" stroke="orange" stroke-width="1" fill="none" />
<polyline points="" stroke="yellow" stroke-width="1" fill="none" />
<polyline points="130.0,348.0,133.5,346.5,128.5,336.0,127.0,338.0,124.5,335.5" stroke="orange" stroke-width="1" fill="none" />
<polyline points="117.5,352.0,118.5,363.0,113.0,368.5,113.0,364.0,115.5,372.0,110.0,377.0,107.0,373.5,120.5,386.0,117.0,387.0,126.0,392.5,107.0,391.0,114.0,401.5,123.0,394.5,114.5,404.5,122.0,408.5,114.0,416.0,100.0,414.0,121.5,418.0,122.0,431.0,120.0,408.5,122.0,406.0" stroke="yellow" stroke-width="1" fill="none" />
<polyline points="127.0,409.5,127.0,408.5,124.5,408.0,123.5,411.5" stroke="black" stroke-width="1" fill="none" />
<polyline points="121.5,430.0,118.0,433.5,118.0,427.0,123.0,425.0,134.5,415.5,122.0,426.0,121.0,427.5,119.0,427.0" stroke="yellow" stroke-width="1" fill="none" />
<polyline points="" stroke="orange" stroke-width="1" fill="none" />
<polyline points="130.5,420.5,134.0,422.5,131.0,419.5,134.5,418.5" stroke="black" stroke-width="1" fill="none" />
<polyline points="118.0,448.0" stroke="green" stroke-width="1" fill="none" />
<polyline points="" stroke="yellow" stroke-width="1" fill="none" />
<polyline points="127.5,455.5,129.5,455.0,131.0,457.0" stroke="orange" stroke-width="1" fill="none" />
<polyline points="" stroke="orange" stroke-width="1" fill="none" />
<polyline points="108.0,437.5,97.5,441.5,107.5,432.5,108.5,438.0,101.5,441.0,103.0,428.0,96.0,430.0,97.0,429.5" stroke="green" stroke-width="1" fill="none" />
<polyline points="" stroke="green" stroke-width="1" fill="none" />
<polyline points="91.5,457.0,86.5,470.0,73.5,455.5,89.5,454.0,84.5,450.0,97.0,450.5" stroke="green" stroke-width="1" fill="none" />
<polyline points="86.5,457.5,87.0,462.0,100.5,457.5,88.5,460.0,101.5,452.5,95.5,455.5,105.5,462.5,103.0,457.0,92.0,458.0,99.5,457.5" stroke="black" stroke-width="1" fill="none" />
<polyline points="88.0,466.5,92.0,470.5,91.5,469.5" stroke="green" stroke-width="1" fill="none" />
<polyline points="100.5,515.5,107.5,512.5,103.5,511.0,109.0,512.5,104.5,515.5" stroke="black" stroke-width="1" fill="none" />
<polyline points="103.5,523.0,108.5,516.5,104.5,510.0,101.5,510.5,116.5,497.5,109.5,493.0,117.0,489.0,117.0,491.5" stroke="yellow" stroke-width="1" fill="none" />
<polyline points="" stroke="black" stroke-width="1" fill="none" />
<polyline points="103.5,499.5,104.0,497.5,106.0,501.0" stroke="orange" stroke-width="1" fill="none" />
<polyline points="113.0,487.5,99.0,502.5,98.0,498.5" stroke="black" stroke-width="1" fill="none" />
<polyline points="117.5,502.5,111.5,498.0,114.0,493.5,122.0,489.0,115.0,482.5,111.0,484.0,118.5,488.5,121.5,492.0" stroke="orange" stroke-width="1" fill="none" />
<polyline points="113.0,489.5,120.0,489.0,127.0,479.5,128.0,508.0,129.0,492.0,122.5,502.0,127.5,500.0,136.5,505.0,138.0,505.0" stroke="black" stroke-width="1" fill="none" />
<polyline points="" stroke="orange" stroke-width="1" fill="none" />
<polyline points="131.5,419.0,132.5,415.0,135.0,431.5,133.5,435.0,138.0,430.5,131.0,435.0,147.5,440.5,145.5,452.0,137.0,448.5,131.0,448.5,135.0,458.5,131.5,458.0,133.0,465.0,139.0,468.0,128.0,468.5,137.5,464.0,136.0,464.5,129.5,466.0,140.0,468.5,137.5,471.5" stroke="yellow" stroke-width="1" fill="none" />
<polyline points="149.0,429.0,151.0,427.0,140.5,431.0,142.5,423.5,139.5,425.0" stroke="yellow" stroke-width="1" fill="none" />
<polyline points="" stroke="green" stroke-width="1" fill="none" />
<polyline points="102.0,427.0,101.0,419.0" stroke="green" stroke-width="1" fill="none" />
<polyline points="" stroke="yellow" stroke-width="1" fill="none" />
<polyline points="107.5,424.0,103.0,428.0,96.0,432.5,106.0,441.0,104.0,446.0,114.0,447.5,112.5,446.0,104.0,453.5,117.5,452.0,116.5,447.0" stroke="yellow" stroke-width="1" fill="none" />
<polyline points="101.5,449.5,99.5,428.0,100.0,429.5,108.0,437.0,105.5,428.5,110.0,421.0,114.0,434.5,109.5,409.5" stroke="green" stroke-width="1" fill="none" />
<polyline points="" stroke="black" stroke-width="1" fill="none" />
<polyline points="93.5,425.5,87.0,430.5,83.0,411.5,93.0,423.0,92.0,422.5,89.5,424.0" stroke="green" stroke-width="1" fill="none" />
<polyline points="96.5,399.5,91.0,404.0,86.0,400.0,84.0,400.0" stroke="yellow" stroke-width="1" fill="none" />
<polyline points="97.5,411.0,99.5,404.0,101.5,398.5,96.0,403.0" stroke="black" stroke-width="1" fill="none" />
<polyline points="91.0,400.5,90.5,399.0" stroke="yellow" stroke-width="1" fill="none" />
<polyline points="78.0,406.0,87.0,394.5,89.5,395.5,99.5,404.5,89.0,399.0,84.5,386.5,98.0,378.5,89.5,382.5,87.0,380.0,90.0,380.0,80.5,384.5,79.5,380.5,88.0,389.0" stroke="black" stroke-width="1" fill="none" />
<polyline points="79.0,397.0,74.5,403.5,71.5,419.5,72.0,421.0,74.5,417.0,70.0,418.5,65.0,416.5,73.5,422.5,70.0,418.0,71.5,427.0,54.5,444.0,78.5,416.5,63.5,434.0,70.5,443.5,67.0,444.0,59.0,456.0,68.5,454.0,68.5,460.0,71.5,457.5,62.0,471.0,63.5,478.0,74.0,468.0,69.5,479.5,63.5,487.5,63.5,478.5,69.0,484.0,70.5,493.5,69.0,497.5,73.5,501.0,68.0,509.0,63.0,508.0,71.5,517.0,69.5,507.5" stroke="green" stroke-width="1" fill="none" />
<polyline points="" stroke="black" stroke-width="1" fill="none" />
<polyline points="74.5,496.0,76.0,504.5,72.5,494.5,70.5,486.0,77.5,491.0" stroke="green" stroke-width="1" fill="none" />
<polyline points="58.5,475.0,78.0,479.0,70.0,480.0,71.5,502.0,55.5,485.0,68.0,501.0,72.5,500.0,66.5,501.0,71.5,502.5,69.5,503.5" stroke="green" stroke-width="1" fill="none" />
<polyline points="66.5,455.0" stroke="black" stroke-width="1" fill="none" />
<polyline points="" stroke="orange" stroke-width="1" fill="none" />
<polyline points="" stroke="yellow" stroke-width="1" fill="none" />
<polyline points="52.0,457.0,74.5,470.0,63.5,479.5,73.0,469.5,72.0,480.0,63.0,490.0,69.5,481.5,63.5,487.5,63.5,492.0" stroke="black" stroke-width="1" fill="none" />
<polyline points="41.5,500.5,43.0,493.5,47.0,494.0,32.0,496.0,38.0,505.5,36.0,506.5" stroke="yellow" stroke-width="1" fill="none" />
<polyline points="" stroke="yellow" stroke-width="1" fill="none" />
<polyline points="26.0,502.5,23.5,500.5,22.0,500.5,12.5,498.5" stroke="black" stroke-width="1" fill="none" />
<polyline points="-1.0,420.0,3.0,420.5,-2.0,424.0,-1.5,420.5" stroke="black" stroke-width="1" fill="none" />
<polyline points="9.0,436.0,6.0,433.0,9.0,437.5,8.5,450.5,20.5,446.0,11.0,457.0,5.5,452.5,20.5,453.5,19.5,463.0,9.5,459.0,11.5,469.0,18.0,490.0" stroke="black" stroke-width="1" fill="none" />
<polyline points="41.0,459.5,39.0,460.0,45.5,444.0,30.0,450.0,29.0,444.5,34.0,444.5,33.0,442.5,34.0,440.5" stroke="yellow" stroke-width="1" fill="none" />
<polyline points="21.0,432.0,24.0,418.0,16.5,415.0" stroke="green" stroke-width="1" fill="none" />
<polyline points="32.5,423.5,32.0,411.5,30.5,430.0,22.5,425.5,31.5,432.5,20.5,444.0,31.5,447.0,30.0,452.5,27.0,450.0,32.0,458.5,29.0,444.5,23.0,455.0,33.5,455.0,30.0,477.0,26.5,481.0,32.0,474.0,29.5,479.5,30.5,489.0,34.0,490.5" stroke="black" stroke-width="1" fill="none" />
<polyline points="72.0,436.5,71.0,432.5,74.5,436.5,66.5,439.0,69.0,440.5,67.0,434.0,66.0,439.5" stroke="green" stroke-width="1" fill="none" />
<polyline points="63.5,405.5,68.5,411.0,72.0,403.0,64.5,398.0,69.5,397.0,77.5,398.5,74.0,398.0" stroke="yellow" stroke-width="1" fill="none" />
<polyline points="76.5,394.5,71.5,399.5" stroke="orange" stroke-width="1" fill="none" />
<polyline points="" stroke="black" stroke-width="1" fill="none" />
<polyline points="78.0,415.5,69.5,408.0,69.5,413.0" stroke="orange" stroke-width="1" fill="none" />
<polyline points="74.5,419.5,87.0,433.0" stroke="orange" stroke-width="1" fill="none" />
<polyline points="96.0,439.0" stroke="black" stroke-width="1" fill="none" />
<polyline points="" stroke="black" stroke-width="1" fill="none" />
<polyline points="110.0,392.5,105.5,398.5,111.0,388.0,100.5,394.0,117.5,402.0,114.0,393.5,106.5,405.0" stroke="yellow" stroke-width="1" fill="none" />
<polyline points="112.0,384.0,98.0,384.0,97.5,385.0,99.0,384.5" stroke="yellow" stroke-width="1" fill="none" />
<polyline points="99.5,383.5,97.0,382.0,106.5,366.5,110.0,366.0,104.0,359.5,112.0,355.5,109.5,346.5,99.5,344.0,100.5,331.5,111.5,330.5,110.0,346.0" stroke="yellow" stroke-width="1" fill="none" />
<polyline points="93.5,345.5,90.5,351.5,92.5,345.5,107.0,338.5,103.0,341.5,100.5,339.5,127.0,318.0,128.5,320.0,109.0,320.5,111.0,320.5,123.5,326.0" stroke="green" stroke-width="1" fill="none" />
<polyline points="111.5,334.0,122.0,333.5,104.0,331.0,126.5,335.5,119.0,338.5" stroke="orange" stroke-width="1" fill="none" />
<polyline points="123.5,300.5,121.0,315.0,114.5,314.5,109.5,321.0,111.5,324.5,104.5,318.5,116.0,314.5,119.0,314.0,106.0,315.5,101.0,322.5" stroke="green" stroke-width="1" fill="none" />
<polyline points="111.5,309.0,110.5,314.5,113.5,328.5,112.5,306.5,113.0,336.0,110.5,330.0,110.5,333.5,125.5,334.5" stroke="black" stroke-width="1" fill="none" />
<polyline points="" stroke="black" stroke-width="1" fill="none" />
<polyline points="95.5,372.0,94.5,371.0,89.5,381.0,99.0,380.0,87.0,389.5,86.0,382.0,96.0,393.0,91.0,387.0,91.0,403.0,95.5,409.0,76.5,409.5,86.0,416.0,99.5,408.5,109.5,405.0,109.5,401.5,114.0,403.0,118.0,403.0" stroke="green" stroke-width="1" fill="none" />
<polyline points="" stroke="green" stroke-width="1" fill="none" />
<polyline points="115.5,366.0,119.0,376.0,133.0,373.0,124.5,379.5,129.5,370.5,129.0,386.0,136.0,390.5,134.5,390.0,134.5,388.0,133.0,389.5,138.5,392.0" stroke="green" stroke-width="1" fill="none" />
<polyline points="120.0,370.0,122.0,368.0,126.5,367.0" stroke="orange" stroke-width="1" fill="none" />
<polyline points="127.0,380.0,123.0,377.5,130.5,375.5,132.0,374.0,130.0,377.5" stroke="black" stroke-width="1" fill="none" />
<polyline points="126.5,362.0,128.5,366.0,132.5,358.5,126.0,357.0" stroke="green" stroke-width="1" fill="none" />
<polyline points="140.0,368.5,138.5,369.5,138.5,366.0,149.0,378.0,146.5,371.0,146.5,372.0,146.5,368.0" stroke="black" stroke-width="1" fill="none" />
<polyline points="153.5,361.5,153.0,363.0,164.0,358.5,164.5,357.5" stroke="green" stroke-width="1" fill="none" />
<polyline points="198.5,333.0,187.5,330.0,186.5,333.5,170.0,340.5,175.5,355.0,168.0,355.0,176.0,362.0,159.0,366.5,161.0,377.0,155.0,367.0,160.5,374.0,166.0,355.5,179.5,352.0,180.0,366.0,183.5,354.0,186.5,343.5" stroke="yellow" stroke-width="1" fill="none" />
<polyline points="" stroke="black" stroke-width="1" fill="none" />
<polyline points="185.5,352.0,190.5,352.0,193.5,348.5,204.0,351.0,196.0,352.5,205.0,346.0" stroke="yellow" stroke-width="1" fill="none" />
<polyline points="" stroke="orange" stroke-width="1" fill="none" />
<polyline points="152.0,358.5,147.5,362.0,164.0,361.0,157.0,353.5,162.5,355.5,154.5,341.0,175.0,349.0,176.5,356.5,173.5,331.0,177.5,331.0,187.0,333.0,182.0,325.5,169.5,334.0,170.0,338.0,172.5,331.5,161.5,336.5,158.5,333.5,160.5,336.0" stroke="black" stroke-width="1" fill="none" />
<polyline points="168.0,322.5,174.5,343.0,166.0,340.0,169.0,337.0,162.0,337.5" stroke="yellow" stroke-width="1" fill="none" />
<polyline points="157.5,321.0,169.0,310.0,177.5,314.0,176.0,335.0,171.5,328.0,160.0,319.5,169.5,326.0,168.5,327.5,169.5,320.5" stroke="yellow" stroke-width="1" fill="none" />
<polyline points="168.5,304.5,173.5,314.0,166.5,327.5,166.5,323.5,166.0,326.0,164.5,326.0,160.0,339.0,150.0,324.5,143.5,339.5,154.5,339.0,154.5,342.0,142.5,345.5,144.5,343.5,145.5,333.5,138.5,334.5,138.0,335.5,132.0,321.5,144.5,317.5,133.0,315.0,132.5,296.0,131.5,301.5,133.0,297.0,139.5,301.5,134.5,296.0,139.5,299.0,144.0,285.5,140.5,278.5,140.5,276.0,131.0,282.0,123.5,289.5,145.5,283.0,141.5,283.0,144.0,271.5,143.0,275.0,152.5,271.0,145.0,266.0,158.5,262.0,162.0,256.5,156.5,255.0" stroke="green" stroke-width="1" fill="none" />
<polyline points="146.5,260.0,147.5,261.5,149.0,249.0,150.5,257.5,152.5,258.0" stroke="yellow" stroke-width="1" fill="none" />
<polyline points="145.5,256.0,150.0,247.0,147.5,255.5,150.5,263.5,151.5,265.0" stroke="black" stroke-width="1" fill="none" />
<polyline points="144.5,273.5,147.0,267.5,144.0,270.5,142.5,268.5" stroke="black" stroke-width="1" fill="none" />
<polyline points="156.5,252.5,152.5,256.0,162.0,250.0,151.5,273.5,142.5,276.5,149.5,276.0,149.5,281.0,151.0,282.0,139.0,294.0,164.5,294.5,154.5,287.0,158.0,303.5,165.5,299.0,154.5,305.5,162.0,312.5,166.5,326.0,163.0,308.5,164.0,311.0,164.0,308.5,156.0,320.0,173.0,317.0,167.0,301.0,167.0,308.0,165.5,295.5,173.5,297.0" stroke="orange" stroke-width="1" fill="none" />
<polyline points="" stroke="green" stroke-width="1" fill="none" />
<polyline points="" stroke="orange" stroke-width="1" fill="none" />
<polyline points="186.0,308.0,186.0,305.5,186.5,308.0,187.0,312.0" stroke="green" stroke-width="1" fill="none" />
<polyline points="" stroke="yellow" stroke-width="1" fill="none" />
<polyline points="177.5,291.0,173.5,285.0,169.0,282.0,181.5,282.5,170.0,286.5,171.5,290.0,164.5,294.5,179.0,291.0,180.5,281.0,173.0,273.5,186.0,284.0,176.0,264.0,166.0,283.0,161.5,277.0,162.5,283.0,167.0,285.0,166.5,285.0,166.0,268.5,164.0,272.5,158.5,277.5,168.5,276.0,164.5,256.5,172.0,253.5,166.0,253.0,170.5,258.5,179.0,251.0,174.5,252.0,177.0,239.0,177.5,236.0,177.5,232.5,174.0,229.5,179.5,227.0,179.0,229.5" stroke="orange" stroke-width="1" fill="none" />
<polyline points="181.5,244.0,195.0,246.0,184.5,246.5,190.0,256.5,186.5,252.0,183.5,242.0,173.5,247.0,174.0,252.5,175.0,250.0" stroke="yellow" stroke-width="1" fill="none" />
<polyline points="193.5,260.5,200.5,258.0,195.5,258.5,213.5,261.5,216.0,267.5,212.5,266.5,214.5,266.0" stroke="green" stroke-width="1" fill="none" />
<polyline points="" stroke="yellow" stroke-width="1" fill="none" />
<polyline points="205.5,323.0,218.5,335.5,218.0,327.0,216.5,338.0,219.0,341.0,215.0,341.0,223.5,342.5,217.0,353.5,214.5,359.5,218.0,364.0,216.5,357.0,225.0,355.5,220.0,353.5,228.5,354.0" stroke="black" stroke-width="1" fill="none" />
<polyline points="249.0,388.0,247.0,385.0,252.0,383.5,267.0,386.0,257.5,380.5,262.5,381.5,272.5,382.5,264.0,391.0" stroke="yellow" stroke-width="1" fill="none" />
<polyline points="254.5,384.0,249.0,379.0,256.5,389.0,255.5,393.0,246.0,395.0,241.0,389.5,253.0,394.0,248.5,399.0" stroke="yellow" stroke-width="1" fill="none" />
<polyline points="" stroke="orange" stroke-width="1" fill="none" />
<polyline points="270.0,348.0,260.5,339.0,270.5,352.5,261.0,354.5,259.0,349.0,258.5,351.0,262.0,356.5,256.5,353.0,260.5,347.0" stroke="green" stroke-width="1" fill="none" />
<polyline points="214.0,354.0,210.0,360.5,214.0,337.5,223.5,332.5,214.5,343.5,227.0,325.5,219.0,321.5,227.5,323.5,219.0,318.0,212.0,305.5,219.0,312.0,221.0,308.0,227.5,313.0,217.5,319.5" stroke="orange" stroke-width="1" fill="none" />
<polyline points="" stroke="yellow" stroke-width="1" fill="none" />
<polyline points="169.0,297.5,173.0,299.5,175.5,303.5,174.0,300.5,169.5,304.5,173.0,307.5,166.5,311.5,166.5,309.5,169.0,307.5" stroke="yellow" stroke-width="1" fill="none" />
<polyline points="158.5,308.5,163.0,306.5,155.5,313.5,152.5,314.5,153.5,314.5" stroke="yellow" stroke-width="1" fill="none" />
<polyline points="" stroke="black" stroke-width="1" fill="none" />
<polyline points="151.5,310.0,142.5,312.0,152.0,307.5,153.5,316.0,154.5,317.0,153.5,302.0" stroke="yellow" stroke-width="1" fill="none" />
<polyline points="" stroke="orange" stroke-width="1" fill="none" />
<polyline points="167.0,312.0,159.5,310.5,164.5,310.0" stroke="yellow" stroke-width="1" fill="none" />
<polyline points="147.5,280.5,158.0,283.5" stroke="orange" stroke-width="1" fill="none" />
<polyline points="165.0,279.5,154.5,284.5,155.0,300.0,164.5,288.5,170.5,291.5,159.5,289.5,163.5,293.0,161.5,295.0" stroke="black" stroke-width="1" fill="none" />
<polyline points="159.5,287.5,168.5,288.0" stroke="black" stroke-width="1" fill="none" />
<polyline points="179.5,307.0,173.0,315.0,172.0,316.0,166.5,314.5,169.5,316.0,172.0,318.0,168.0,313.0" stroke="green" stroke-width="1" fill="none" />
<polyline points="" stroke="black" stroke-width="1" fill="none" />
<polyline points="155.0,294.0,169.5,294.0,171.0,294.5,175.0,287.0,169.0,285.5,167.0,292.0" stroke="black" stroke-width="1" fill="none" />
<polyline points="175.5,290.0,168.5,284.0,169.0,303.0,166.0,298.0,179.0,302.5,166.0,297.5,168.0,311.5,170.5,310.0,166.5,323.0,164.0,317.0,169.0,323.5,165.0,326.0,166.5,341.5,153.5,331.5,161.5,345.5,146.5,344.5,145.0,352.5,144.0,354.5,154.0,358.5,143.0,366.5,146.5,357.0,145.0,362.0,149.5,354.5,159.0,360.5,160.0,353.5,159.5,350.5,166.0,355.5,167.5,356.5,171.5,356.0" stroke="black" stroke-width="1" fill="none" />
<polyline points="" stroke="green" stroke-width="1" fill="none" />
<polyline points="165.5,277.0,165.5,273.5,168.5,263.5,173.0,267.5,177.5,264.0" stroke="orange" stroke-width="1" fill="none" />
<polyline points="" stroke="black" stroke-width="1" fill="none" />
<polyline points="" stroke="black" stroke-width="1" fill="none" />
<polyline points="161.5,273.0,160.0,274.0,159.5,275.5,159.5,283.5,166.5,285.5,173.5,284.5,175.0,281.0,180.0,296.5,181.0,291.5" stroke="black" stroke-width="1" fill="none" />
<polyline points="171.0,277.0,165.0,286.5" stroke="green" stroke-width="1" fill="none" />
<polyline points="" stroke="green" stroke-width="1" fill="none" />
<polyline points="149.0,294.5,165.5,299.5,158.5,282.0,153.0,278.5,153.5,278.5,151.0,280.5,150.5,267.5,151.0,257.0,167.0,267.5,164.0,264.5,165.0,250.0,162.5,256.0,169.0,243.5,170.0,247.0,176.5,232.0,164.0,236.0,161.0,258.0,165.0,258.5,148.5,261.5,150.5,257.5,134.5,271.0,141.0,258.0,131.5,264.5,131.0,260.0,128.5,254.5,132.0,262.5,119.5,270.5,134.5,262.0,132.5,262.0,132.0,257.5,130.5,248.0,131.5,247.0,142.5,244.5,128.0,238.0,146.0,242.0,134.5,230.0,141.5,233.0,138.5,222.0,130.0,222.0,141.5,225.0,133.5,215.0,129.0,212.0,129.0,200.0,132.0,199.0,119.0,200.5,125.5,192.0,115.5,189.0,124.5,184.0,122.0,181.0,121.0,172.5,120.5,178.0,121.0,175.5,129.0,160.0,120.5,163.0,108.5,161.5,125.5,146.5,113.5,141.0,128.5,151.5,127.5,141.5,126.0,137.5,129.0,134.5,124.5,124.0,122.0,116.5,133.0,125.0,140.5,120.5,137.5,115.0,123.5,108.0,139.0,105.5,135.5,110.5,140.0,113.5" stroke="orange" stroke-width="1" fill="none" />
<polyline points="138.0,115.0,132.5,113.5,128.5,117.5,139.0,114.0,135.0,106.0,124.5,118.0,140.0,110.5,127.5,118.0,131.5,122.5,145.5,135.0,123.5,137.5,131.5,142.5,137.5,140.5,127.0,149.5,132.0,148.5,123.5,146.5,127.0,159.0,129.5,157.5,125.0,155.0,133.0,154.0,123.0,145.0,119.0,145.5,125.5,144.0,127.0,145.0" stroke="orange" stroke-width="1" fill="none" />
<polyline points="137.0,152.0,137.0,161.5,130.0,163.0,141.0,161.0,132.0,168.0,132.0,163.5" stroke="black" stroke-width="1" fill="none" />
<polyline points="" stroke="green" stroke-width="1" fill="none" />
<polyline points="129.5,176.0,122.5,176.5,135.0,179.0,132.0,174.5,132.5,176.5" stroke="green" stroke-width="1" fill="none" />
<polyline points="149.0,165.0,148.0,167.0,152.0,169.5,144.5,166.5" stroke="yellow" stroke-width="1" fill="none" />
<polyline points="144.0,177.0,144.0,175.0,130.5,168.0,131.0,187.5,129.5,172.0,135.0,183.5,143.0,177.5,141.5,180.5" stroke="orange" stroke-width="1" fill="none" />
<polyline points="149.0,167.0,137.5,177.5,135.0,184.5,136.0,189.0,129.0,190.5,138.0,192.0,130.5,193.5,145.0,194.5,137.5,190.0,138.5,190.5,141.5,191.5" stroke="black" stroke-width="1" fill="none" />
<polyline points="" stroke="black" stroke-width="1" fill="none" />
<polyline points="" stroke="black" stroke-width="1" fill="none" />
<polyline points="144.5,192.0,143.0,193.0" stroke="yellow" stroke-width="1" fill="none" />
<polyline points="145.5,188.5,142.0,185.0,142.5,173.0,150.5,178.0,150.5,173.0,152.5,172.0,148.0,176.0" stroke="yellow" stroke-width="1" fill="none" />
<polyline points="139.5,193.0,145.0,187.0,148.0,189.0,144.0,189.5,153.0,184.0,151.5,187.5" stroke="green" stroke-width="1" fill="none" />
<polyline points="139.5,187.0,143.0,185.5,142.0,185.0,143.0,190.0,140.0,187.5,138.5,188.5,141.5,190.0" stroke="green" stroke-width="1" fill="none" />
<polyline points="142.5,194.0,144.5,193.0,151.0,201.5,160.5,192.0,159.0,188.5,166.5,184.0,169.5,171.5,177.0,179.5,164.5,161.5,174.0,165.5,187.5,158.5,183.0,157.5,189.5,162.0,202.0,148.0,191.0,146.0,195.5,143.5" stroke="black" stroke-width="1" fill="none" />
<polyline points="205.5,140.0,211.5,142.5,212.0,156.0,219.0,163.5,222.5,160.5,224.5,150.0,224.0,157.5" stroke="yellow" stroke-width="1" fill="none" />
<polyline points="224.0,167.5,220.5,172.5,221.5,164.0,231.5,160.5,216.5,164.5,218.5,162.0,232.0,154.5,226.5,154.5,218.5,168.0,220.5,153.0,217.0,159.0,215.0,152.0,217.0,150.5" stroke="green" stroke-width="1" fill="none" />
<polyline points="" stroke="yellow" stroke-width="1" fill="none" />
<polyline points="219.5,172.0,211.0,177.0,222.0,178.0,215.0,185.5,207.0,177.5,209.0,178.0" stroke="orange" stroke-width="1" fill="none" />
<polyline points="221.5,189.5,211.5,174.0,212.5,182.0,221.5,175.0,221.0,168.0,218.5,167.0,238.5,173.0,240.0,171.0,242.5,173.5,235.5,178.5,222.5,182.5,234.0,175.0,239.5,172.5,244.0,176.0" stroke="orange" stroke-width="1" fill="none" />
<polyline points="244.5,171.0,226.0,187.5,230.0,179.0,227.5,194.5,214.0,193.0,210.5,201.5,204.0,199.0,195.5,208.5,206.0,224.5,197.0,215.5,206.5,214.0,207.5,223.0,203.0,228.0,207.0,226.5" stroke="orange" stroke-width="1" fill="none" />
<polyline points="210.0,205.0,214.5,213.5,222.5,199.0,224.0,195.5,226.5,198.0,231.5,188.0,232.5,191.5,225.5,201.0,223.0,199.0,227.5,204.5,225.0,200.5" stroke="green" stroke-width="1" fill="none" />
<polyline points="215.0,209.0,212.5,210.0,215.0,206.0,202.0,212.0,212.5,212.5,207.5,198.5,213.0,204.0,225.0,193.5,232.0,200.5,228.5,186.0,225.0,192.0" stroke="orange" stroke-width="1" fill="none" />
<polyline points="213.0,194.5,204.5,196.0,206.0,186.5,207.5,189.0,203.0,193.5" stroke="yellow" stroke-width="1" fill="none" />
<polyline points="" stroke="yellow" stroke-width="1" fill="none" />
<polyline points="224.0,187.0,222.5,185.0,224.5,197.0,227.5,196.0,208.0,199.0,210.0,196.0,205.0,192.5,208.0,195.5,212.0,189.5" stroke="green" stroke-width="1" fill="none" />
<polyline points="" stroke="orange" stroke-width="1" fill="none" />
<polyline points="192.0,201.5,187.5,197.0,199.0,195.0,197.5,194.5,199.0,192.0,202.0,193.5" stroke="orange" stroke-width="1" fill="none" />
<polyline points="195.0,199.0,197.0,200.0,202.0,194.5,190.0,202.0,192.0,201.5,191.5,208.0,179.5,205.5,188.5,206.0,190.5,218.5,185.5,207.0,191.0,206.5,187.5,207.0,191.5,202.0" stroke="green" stroke-width="1" fill="none" />
<polyline points="" stroke="green" stroke-width="1" fill="none" />
<polyline points="192.5,207.0,201.0,212.0,195.0,210.0,198.0,201.5,183.0,221.0,188.5,225.0,181.0,216.5,198.5,217.5,190.0,221.5" stroke="yellow" stroke-width="1" fill="none" />
<polyline points="176.5,217.0,176.5,216.0,174.5,217.5,178.0,221.0" stroke="orange" stroke-width="1" fill="none" />
<polyline points="180.0,218.5" stroke="green" stroke-width="1" fill="none" />
<polyline points="181.5,223.0,171.0,216.0,172.0,212.5,171.0,235.5,174.0,228.5" stroke="green" stroke-width="1" fill="none" />
<polyline points="165.5,217.5,169.0,222.0,173.0,229.5,160.0,221.0,165.0,230.5,181.5,231.0,177.5,223.0" stroke="orange" stroke-width="1" fill="none" />
<polyline points="176.5,224.0,158.0,228.5" stroke="black" stroke-width="1" fill="none" />
<polyline points="" stroke="black" stroke-width="1" fill="none" />
<polyline points="155.0,263.5,146.0,257.5,154.5,261.0,135.0,262.5,140.0,268.0,133.5,282.0,126.5,281.5,125.0,275.0,119.5,277.5,114.5,262.5,108.0,255.5,110.0,267.5,110.0,271.5,109.0,273.5,106.5,262.5,110.0,257.5" stroke="green" stroke-width="1" fill="none" />
<polyline points="115.5,268.5,112.5,268.0,129.0,281.0,116.0,273.0,130.5,270.5,136.5,270.5" stroke="yellow" stroke-width="1" fill="none" />
<polyline points="124.5,280.0,113.5,293.0,104.5,292.5,104.0,296.5,110.5,310.5,100.5,301.5,91.0,304.0,92.0,312.5,90.0,317.5,91.0,330.5,91.0,332.5,74.0,342.5,92.0,332.5,83.0,337.5,84.5,335.0,81.5,340.0,69.0,345.0,86.0,361.0,72.5,360.0,71.0,367.0,58.0,366.5,67.5,362.0,73.5,353.5,70.5,341.5,84.5,347.0,77.5,334.0,85.5,326.0,104.5,329.0,88.5,318.0,86.5,322.5,72.0,331.0" stroke="green" stroke-width="1" fill="none" />
<polyline points="84.5,326.5,86.0,317.5,94.5,330.0,91.0,323.5,101.0,321.5,93.0,319.0,83.0,330.0,65.5,336.0,78.5,336.0,73.0,351.0,70.5,343.0,69.0,350.0,73.0,353.0,72.5,365.0,66.5,367.0,68.5,364.0,69.0,354.0,77.0,344.0,81.5,352.5,85.5,348.0,88.0,330.5,102.0,335.5,87.0,338.0,85.5,348.5,84.5,349.0,90.5,348.5,73.5,351.0,78.5,360.0,86.5,372.0,79.0,366.5,87.0,362.0,81.5,373.5,79.0,346.5,90.0,353.0,94.5,345.0" stroke="yellow" stroke-width="1" fill="none" />
<polyline points="107.0,363.5,110.0,361.5,108.0,358.0,105.5,360.0,101.5,372.5,100.0,377.0,103.5,374.0,106.5,381.0" stroke="black" stroke-width="1" fill="none" />
<polyline points="104.5,377.5,110.5,373.0" stroke="black" stroke-width="1" fill="none" />
<polyline points="123.0,354.5,116.0,364.0,118.5,356.5,114.0,368.0,115.5,365.5,116.5,371.0,120.0,376.0" stroke="orange" stroke-width="1" fill="none" />
<polyline points="126.5,358.0,108.0,364.5,110.5,369.0,116.5,365.5,104.0,362.5,108.5,359.5" stroke="yellow" stroke-width="1" fill="none" />
<polyline points="127.5,361.5,121.5,366.5,133.0,375.0,140.0,361.0,136.0,373.5" stroke="green" stroke-width="1" fill="none" />
<polyline points="82.0,345.5,83.0,366.5,77.5,374.0,77.5,373.0,77.0,371.5,80.0,370.5,74.5,373.0" stroke="black" stroke-width="1" fill="none" />
<polyline points="84.5,350.5,78.0,356.0,83.0,358.0,80.0,365.0,71.0,360.0,82.5,367.0,79.0,378.5,83.0,374.5,76.0,371.0,76.5,372.0,71.0,370.0" stroke="green" stroke-width="1" fill="none" />
<polyline points="65.0,397.0,63.5,388.5,75.0,388.0,76.0,388.5,71.0,383.5,76.0,396.5,71.5,384.5,69.5,387.0,56.5,400.5,62.5,396.5,65.5,395.5,70.0,395.5,72.5,388.0,74.5,392.5,80.0,384.0,81.0,374.5,90.5,370.0,83.5,367.0,82.5,364.5,94.0,357.5,94.0,350.5,83.5,361.0,103.0,353.5,87.0,354.5,100.5,340.5,97.0,349.5,85.5,341.5,92.5,352.5,92.5,341.5,94.0,334.0,104.0,341.5,99.0,331.0,108.5,330.5,88.5,332.5,101.0,323.5,96.5,319.5,99.5,314.0,95.5,313.0,106.0,302.5,108.5,294.0,114.5,301.5,90.0,319.0,99.5,313.0,101.0,314.0" stroke="green" stroke-width="1" fill="none" />
<polyline points="106.0,304.0,101.5,306.0,92.5,305.5,103.5,303.5,106.0,305.0" stroke="yellow" stroke-width="1" fill="none" />
<polyline points="" stroke="orange" stroke-width="1" fill="none" />
<polyline points="81.0,287.0,87.5,287.0,77.0,292.0,76.5,296.0,72.5,291.0,74.5,296.0" stroke="yellow" stroke-width="1" fill="none" />
<polyline points="78.5,293.5,69.5,296.0,83.5,299.5,87.5,286.0,90.0,291.0,93.0,294.0,111.5,286.0,107.0,284.0,112.5,288.0,113.0,289.5" stroke="green" stroke-width="1" fill="none" />
<polyline points="123.0,287.0,112.5,289.0,107.5,279.0,100.5,268.0,115.5,276.5,112.0,267.5,116.5,266.0,133.5,275.5,126.0,265.0,125.0,266.5,118.5,265.5,118.5,269.0" stroke="green" stroke-width="1" fill="none" />
<polyline points="117.5,265.0,117.5,262.0,107.5,270.5,104.0,261.5,106.5,285.0,108.0,275.5,106.0,283.0,95.5,285.0,91.0,287.5,95.0,280.5,103.5,279.5,118.0,286.5,111.0,284.5,118.0,286.0,118.0,285.5,122.5,287.5,111.5,289.5,122.0,282.5,119.5,285.0,118.0,282.0" stroke="black" stroke-width="1" fill="none" />
<polyline points="108.0,276.5" stroke="black" stroke-width="1" fill="none" />
<polyline points="105.0,276.5,107.0,266.0,112.5,271.5,104.5,274.5,96.0,274.5,97.0,280.0,92.0,285.5,91.0,285.5,98.5,275.5,102.5,290.0,109.0,280.5,106.0,276.0,101.0,275.5,119.0,291.0,120.5,278.5,119.0,279.5,129.5,267.5,128.5,281.5,130.5,287.5,134.0,289.5,129.0,288.0,133.5,290.5" stroke="yellow" stroke-width="1" fill="none" />
<polyline points="138.0,280.0,132.0,287.5,121.0,284.0,121.5,289.5,103.5,286.5,115.5,288.0,95.0,291.5,91.0,302.0,88.0,302.5,99.0,314.0,88.5,314.5,81.0,325.0,81.0,317.0,79.0,326.0,84.0,324.0,103.5,312.5,89.5,315.5,97.0,315.5,94.5,311.5,96.0,313.5" stroke="green" stroke-width="1" fill="none" />
<polyline points="106.5,307.0,118.0,303.0,122.0,298.5,126.0,290.5,110.5,303.0,119.0,298.0" stroke="orange" stroke-width="1" fill="none" />
<polyline points="120.0,296.5,110.5,307.0,124.0,305.5,124.0,306.0" stroke="green" stroke-width="1" fill="none" />
<polyline points="66.0,322.0,79.0,318.5,80.5,308.0,88.0,306.5,81.5,308.0,80.5,308.0,83.5,296.5" stroke="green" stroke-width="1" fill="none" />
<polyline points="81.5,309.0,85.0,302.5,80.0,306.0" stroke="orange" stroke-width="1" fill="none" />
<polyline points="75.0,307.5,73.0,301.5,80.0,316.0,87.0,305.0,95.0,302.0,90.5,308.5,81.0,303.5,86.0,312.5" stroke="orange" stroke-width="1" fill="none" />
<polyline points="94.5,311.0,107.0,315.0" stroke="black" stroke-width="1" fill="none" />
<polyline points="102.5,294.0,101.0,286.5,112.5,290.5,126.0,290.5,115.0,288.0,117.0,283.5" stroke="orange" stroke-width="1" fill="none" />
<polyline points="" stroke="orange" stroke-width="1" fill="none" />
<polyline points="92.0,290.0,90.5,268.5,86.5,275.5,89.5,274.0,94.0,275.5" stroke="orange" stroke-width="1" fill="none" />
<polyline points="105.5,300.0,107.0,312.0,101.0,317.5,101.5,322.0,99.0,321.0,101.0,330.0,104.0,335.5,104.0,337.5,104.0,346.5,101.5,334.5,111.0,330.5,108.5,322.5,120.5,323.0,120.5,309.5,123.0,311.5,121.0,296.5,129.0,305.0,125.5,312.0,128.0,315.5,123.5,319.5,134.5,319.0" stroke="black" stroke-width="1" fill="none" />
<polyline points="121.5,314.5,112.5,324.5,118.0,332.5" stroke="orange" stroke-width="1" fill="none" />
<polyline points="115.0,317.5,116.0,319.5,112.0,319.0,110.0,327.5,108.5,334.0,100.5,343.5,102.5,346.5,101.0,344.0,99.0,354.5,95.0,358.5,96.5,358.0,92.0,354.5,91.0,367.5,90.0,364.0,90.5,380.5,93.5,379.5,96.0,386.5,97.0,385.0" stroke="orange" stroke-width="1" fill="none" />
<polyline points="72.5,404.0,80.0,401.0,79.0,403.0,78.0,395.0,73.5,394.0,77.0,398.0,80.5,399.0" stroke="orange" stroke-width="1" fill="none" />
<polyline points="16.5,385.0,16.5,363.5,14.5,358.5" stroke="yellow" stroke-width="1" fill="none" />
<polyline points="111.5,307.0,114.0,303.0,108.5,308.5,106.0,314.5,113.0,307.5,119.5,312.0,115.5,300.0,122.0,296.0,129.5,296.5,124.5,299.5,132.5,288.0,140.5,292.0,147.5,281.0,142.0,284.0,147.0,287.0,142.0,286.0,145.5,285.0" stroke="black" stroke-width="1" fill="none" />
<polyline points="" stroke="yellow" stroke-width="1" fill="none" />
<polyline points="" stroke="yellow" stroke-width="1" fill="none" />
<polyline points="137.0,250.5,135.5,247.0,138.0,252.0" stroke="black" stroke-width="1" fill="none" />
<polyline points="137.0,249.5,134.0,248.5,137.5,245.5,134.5,246.5,139.0,241.0" stroke="black" stroke-width="1" fill="none" />
<polyline points="151.0,236.0,145.5,233.5,134.0,228.0,131.0,225.0" stroke="green" stroke-width="1" fill="none" />
<polyline points="" stroke="black" stroke-width="1" fill="none" />
<polyline points="146.0,212.5,151.0,210.0" stroke="black" stroke-width="1" fill="none" />
<polyline points="141.5,197.5,140.5,182.5,148.5,188.0,147.5,187.0,144.5,176.0,150.0,180.0,147.0,173.5" stroke="black" stroke-width="1" fill="none" />
<polyline points="" stroke="green" stroke-width="1" fill="none" />
<polyline points="138.5,187.0,138.0,185.0,144.0,195.5,141.0,197.0" stroke="yellow" stroke-width="1" fill="none" />
<polyline points="" stroke="orange" stroke-width="1" fill="none" />
<polyline points="154.0,208.5,158.5,219.0,144.5,216.0,139.5,215.5,142.5,211.5,151.0,201.0,145.5,198.5,160.0,195.5,162.0,193.0,158.0,190.0" stroke="orange" stroke-width="1" fill="none" />
<polyline points="125.5,200.5,126.5,196.0,130.5,193.5,124.5,197.0,123.5,198.5" stroke="green" stroke-width="1" fill="none" />
<polyline points="118.0,240.5,117.0,241.0" stroke="yellow" stroke-width="1" fill="none" />
<polyline points="" stroke="orange" stroke-width="1" fill="none" />
<polyline points="113.5,259.0,112.0,258.0,122.5,262.0,121.0,263.0,103.5,269.5,101.5,263.5,120.5,257.5,127.0,256.0,138.5,254.0,121.5,255.5,137.5,243.5,134.5,241.0,148.5,228.5,147.0,231.5,167.0,235.0,159.0,235.5,166.5,239.0" stroke="orange" stroke-width="1" fill="none" />
<polyline points="150.5,232.0,154.0,235.0,151.0,234.5,151.5,235.0,140.0,250.0,144.5,252.5,140.0,250.5,134.5,263.5,147.5,262.5,134.5,267.5,131.0,262.5,130.0,270.5,127.0,268.5" stroke="green" stroke-width="1" fill="none" />
<polyline points="152.0,262.5,152.0,258.0,147.5,258.5,162.0,254.0" stroke="orange" stroke-width="1" fill="none" />
<polyline points="165.5,237.5,162.5,235.5,178.0,231.0,169.5,222.0,172.5,225.0" stroke="orange" stroke-width="1" fill="none" />
<polyline points="" stroke="orange" stroke-width="1" fill="none" />
<polyline points="183.5,235.5,170.0,224.0,174.5,231.0,165.0,226.5,166.0,233.5,158.5,255.0,163.0,245.5,152.0,259.0,156.0,255.5,153.0,253.0,137.5,268.0,140.0,259.5,134.0,263.5,130.0,265.5,130.0,281.5,129.0,285.0,128.0,299.0,124.0,297.5,125.0,312.5,125.5,312.5,126.5,305.5,131.0,305.0,123.5,326.5,125.0,326.0,129.5,317.5,123.0,327.5,116.5,324.0,132.5,336.5,130.0,345.0,133.0,343.5,132.0,354.0,142.5,355.0,135.0,354.5,145.0,357.5,151.0,347.5,151.5,367.5,159.0,364.0,146.0,377.0,153.0,373.5,150.5,379.5,155.0,376.0,162.0,387.0,159.5,386.0,154.5,398.5,154.0,397.5,166.5,406.5,168.0,400.5,158.0,414.5,159.0,415.0,161.5,404.0,168.5,407.0,172.0,406.5,172.0,407.0,167.0,405.0" stroke="yellow" stroke-width="1" fill="none" />
<polyline points="157.0,406.0,155.5,407.0,154.0,424.0,152.5,411.0" stroke="black" stroke-width="1" fill="none" />
<polyline points="" stroke="orange" stroke-width="1" fill="none" />
<polyline points="192.0,433.0,195.5,438.0,195.5,439.0,199.5,434.5,201.0,442.0,199.0,439.0" stroke="black" stroke-width="1" fill="none" />
<polyline points="196.0,431.5,192.0,434.5,194.5,430.0" stroke="black" stroke-width="1" fill="none" />
<polyline points="" stroke="green" stroke-width="1" fill="none" />
<polyline points="194.5,399.0,193.5,397.0,182.5,382.0,197.0,401.5,193.0,401.5,184.5,416.0,201.0,416.0,191.5,417.0,191.5,421.0,191.0,433.5,191.5,430.5,184.5,426.5,186.0,433.5,188.5,443.0,183.0,454.0,191.0,444.0,184.0,449.5,185.5,446.5,202.5,434.5" stroke="black" stroke-width="1" fill="none" />
<polyline points="373.0,361.0,377.5,365.0,376.5,353.0,373.0,348.0,376.5,342.5,372.5,350.0,380.0,333.5,366.0,335.0,362.0,336.0,377.0,327.0,380.0,323.0,360.0,312.0,374.0,308.5,366.0,313.5,370.5,295.5,375.0,298.0,376.0,301.5,374.5,300.5,376.5,301.5" stroke="orange" stroke-width="1" fill="none" />
<polyline points="389.5,285.0,389.0,281.5,382.0,275.0,382.0,276.5,386.0,271.5,393.0,267.5,383.5,264.0,376.0,263.5,375.0,265.0" stroke="orange" stroke-width="1" fill="none" />
<polyline points="371.0,289.0,372.0,282.0,370.0,288.5,363.5,298.5,371.0,307.0,366.0,306.0,367.5,307.0,356.0,304.5,364.5,304.5,361.5,315.0,364.0,314.5" stroke="black" stroke-width="1" fill="none" />
<polyline points="338.0,279.0,331.0,280.0,316.5,275.5,322.0,273.0,328.0,276.5,323.5,277.0,322.5,277.0,320.5,276.5" stroke="orange" stroke-width="1" fill="none" />
<polyline points="330.0,279.5,345.0,274.5,340.5,277.0,338.5,269.5" stroke="green" stroke-width="1" fill="none" />
<polyline points="322.5,278.0,325.0,273.5,318.5,276.0,314.0,269.0,313.0,264.5,322.0,265.5,332.5,260.0,330.0,261.5,346.0,252.5,346.0,248.5,348.0,244.0,350.5,243.5" stroke="black" stroke-width="1" fill="none" />
<polyline points="364.5,262.0,355.5,268.5,359.5,268.5,362.5,287.5,363.0,283.0,364.0,280.5,360.5,282.5" stroke="black" stroke-width="1" fill="none" />
<polyline points="306.0,238.0,288.5,224.0,290.0,242.0,295.5,238.0,289.5,230.5,288.5,230.0" stroke="black" stroke-width="1" fill="none" />
<polyline points="290.5,197.0,294.5,191.0,289.5,187.0,296.5,180.5,305.5,185.0,314.5,166.5,312.5,171.5,314.5,171.5" stroke="orange" stroke-width="1" fill="none" />
<polyline points="298.0,188.0,293.5,193.0,291.5,191.5,289.5,190.0,284.0,200.0,287.0,195.0,280.5,201.0,284.0,210.0,271.5,195.0,268.5,208.0,269.5,217.5,259.0,221.5,265.5,226.0,259.5,230.0,252.5,232.0,242.0,239.0,241.0,244.5,230.5,254.0,240.5,262.0,239.5,261.5,229.5,261.5,226.0,283.5,216.5,286.0,221.0,296.0,218.5,303.5,212.5,311.0,204.5,323.0,213.0,325.5,201.0,322.5,201.5,309.0,200.5,311.0,204.5,299.0,205.5,309.5,207.5,303.0,207.5,295.5,212.0,289.5,218.0,288.5,222.0,294.5,220.5,285.5,217.5,274.5,222.0,276.0,226.0,267.5,234.0,266.5,235.0,253.0,231.5,264.0,232.5,250.0,249.0,242.5,242.0,236.0,245.0,244.0,240.5,238.5,252.0,232.5,254.5,223.0,254.0,225.0,268.5,226.0,261.0,217.0,260.0,213.0,259.0,213.5" stroke="orange" stroke-width="1" fill="none" />
<polyline points="256.5,203.5,255.5,198.0,262.0,206.0,265.0,204.0" stroke="green" stroke-width="1" fill="none" />
<polyline points="247.5,216.0,241.0,204.0,236.5,220.0,244.0,212.0,248.0,215.0" stroke="black" stroke-width="1" fill="none" />
<polyline points="222.5,182.5,214.0,185.0,229.0,184.5,222.0,176.5,229.0,183.0,221.5,188.5" stroke="yellow" stroke-width="1" fill="none" />
<polyline points="223.5,175.0,214.5,178.0,223.0,179.0,209.5,186.5,209.5,194.0,205.5,193.0,215.5,191.5,217.5,195.5,215.0,200.0,215.5,181.0,218.5,182.5,228.5,190.5,230.5,190.0,230.0,188.5,238.0,175.0,233.5,174.0,235.0,174.0,242.0,176.5,241.0,176.0" stroke="orange" stroke-width="1" fill="none" />
<polyline points="233.0,187.5,229.0,192.0" stroke="orange" stroke-width="1" fill="none" />
<polyline points="245.5,172.0,254.5,181.0,248.5,192.5,243.5,193.5,246.0,194.5,232.5,191.0,235.5,194.0,234.0,210.5,232.5,212.5,239.0,212.0,233.5,217.5,231.5,210.5,241.5,209.5,237.5,209.5,236.0,214.0,237.0,214.5,238.0,213.0" stroke="black" stroke-width="1" fill="none" />
<polyline points="264.5,185.0,260.0,190.5,257.0,199.0,248.0,211.5,249.0,191.5,251.0,184.5" stroke="green" stroke-width="1" fill="none" />
<polyline points="263.5,184.5,258.0,187.5,266.5,175.0,267.0,195.0,268.5,193.0,270.0,187.0,268.5,183.5,273.0,186.5,273.5,183.0" stroke="yellow" stroke-width="1" fill="none" />
<polyline points="267.5,189.5,255.0,186.5,253.0,206.5,244.0,198.0,239.5,181.5,260.0,198.0,251.5,193.5,256.0,177.0,252.0,183.5,254.5,183.0,249.0,179.0" stroke="green" stroke-width="1" fill="none" />
<polyline points="276.0,184.0,280.5,182.0,292.5,170.0,288.0,165.5,289.5,176.0,295.0,183.5,278.5,194.0,270.5,189.5,274.0,192.0,271.5,185.0,273.0,199.0,277.5,202.0,281.0,195.0,277.5,194.5,276.0,200.5,294.5,180.0,290.0,173.0,304.0,175.5,296.5,167.0,299.5,166.0,306.0,176.5,311.0,157.5,323.5,167.5,321.5,162.5,333.5,156.5,330.5,159.5,333.5,156.0,337.0,158.0" stroke="yellow" stroke-width="1" fill="none" />
<polyline points="306.0,179.5,310.0,183.0,316.5,183.0,295.5,185.5,291.0,194.0,286.5,193.0,282.5,196.5,282.0,199.0,274.0,207.0,268.5,215.5,274.0,212.5,276.0,216.5,265.0,224.0,276.0,237.5,250.0,236.0,275.0,234.0,263.5,231.0,264.5,237.0,266.0,235.5,265.5,244.0,276.0,241.0,269.5,242.5,273.0,245.0" stroke="orange" stroke-width="1" fill="none" />
<polyline points="270.5,197.5,273.5,197.5,281.5,188.0,282.5,189.5,282.0,191.5" stroke="orange" stroke-width="1" fill="none" />
<polyline points="252.0,168.5,252.5,170.0,249.0,164.5,249.0,165.0" stroke="yellow" stroke-width="1" fill="none" />
<polyline points="256.0,165.5,249.5,166.0,256.0,162.0,259.0,164.5,256.5,160.0" stroke="green" stroke-width="1" fill="none" />
<polyline points="250.0,183.0,250.0,171.5,249.5,174.0,249.5,172.5,248.5,179.0,257.0,173.0,259.5,179.0" stroke="orange" stroke-width="1" fill="none" />
<polyline points="243.0,137.0,253.0,149.0,255.0,142.5,264.0,132.0,266.5,135.0,266.0,126.0,262.5,128.5,255.5,131.5,255.0,140.0,252.0,135.5,241.0,145.0,233.5,146.5,240.5,143.5,238.0,145.0" stroke="orange" stroke-width="1" fill="none" />
<polyline points="" stroke="green" stroke-width="1" fill="none" />
<polyline points="221.5,150.0,221.5,146.5,220.0,147.0,217.5,145.5" stroke="green" stroke-width="1" fill="none" />
<polyline points="226.0,147.0,230.5,148.5" stroke="orange" stroke-width="1" fill="none" />
<polyline points="" stroke="orange" stroke-width="1" fill="none" />
<polyline points="199.5,165.0" stroke="yellow" stroke-width="1" fill="none" />
<polyline points="195.0,169.5,198.5,165.0,187.5,178.5,184.5,170.5,192.5,193.5,177.5,180.0,177.5,190.5,176.0,188.0,161.0,197.0,161.5,196.0,165.5,208.5,173.0,200.0,166.5,197.0,173.0,187.0,192.5,184.0,191.0,176.0,191.0,172.0,198.5,169.0,190.0,169.0,197.0,172.0,198.5,171.0,196.5,167.5" stroke="yellow" stroke-width="1" fill="none" />
<polyline points="212.5,173.5,216.5,173.5,226.5,176.5,206.5,184.0,217.5,180.5,202.5,196.0" stroke="orange" stroke-width="1" fill="none" />
<polyline points="195.5,139.0,197.0,137.0,202.5,141.5,199.0,137.5,206.5,140.0" stroke="green" stroke-width="1" fill="none" />
<polyline points="198.5,140.0,199.5,145.0,199.5,140.5,208.0,138.0,201.5,140.5,204.5,143.5,197.0,142.0,205.0,143.5,211.0,146.5,217.0,129.5,217.0,137.5,222.5,125.0,218.5,131.5,220.0,127.5,215.0,138.5,218.5,131.5,217.0,133.0,216.0,132.5" stroke="black" stroke-width="1" fill="none" />
<polyline points="226.0,132.0,215.5,136.5,207.0,133.0,211.5,129.5,212.0,132.5,221.5,133.0,226.5,126.0,230.5,122.5,223.5,130.5,234.0,109.5,232.5,109.5" stroke="green" stroke-width="1" fill="none" />
<polyline points="239.5,134.5,235.0,124.5,237.5,118.5,230.0,121.0,215.0,137.5,209.0,128.5,199.5,135.0,190.5,141.0,195.5,148.5,190.5,157.5,192.5,148.0,180.5,155.0,186.5,164.0,188.0,165.0,170.5,168.0,161.5,193.5,163.5,175.5,158.0,187.0,166.5,194.0,146.0,199.5,156.0,202.0,139.5,201.0,154.5,212.5,149.5,209.5,147.0,215.0,152.0,218.0,141.0,225.5,131.0,228.0,140.5,231.5,135.0,237.5,139.5,245.5,155.0,236.0,131.5,250.5,131.0,248.5,128.0,234.0,128.0,262.0,141.0,263.0,142.5,251.0,140.0,252.0,139.5,258.0,141.5,255.5" stroke="yellow" stroke-width="1" fill="none" />
<polyline points="141.5,171.5,133.0,178.0,143.0,169.5,142.0,170.5,138.5,167.5,134.5,172.5" stroke="black" stroke-width="1" fill="none" />
<polyline points="142.5,133.5,134.0,129.5,135.0,129.0" stroke="black" stroke-width="1" fill="none" />
<polyline points="161.5,124.5,150.0,127.0,147.0,129.0,147.5,138.0,154.5,133.5,151.0,131.5,156.5,133.5,151.0,136.5,153.5,134.5" stroke="green" stroke-width="1" fill="none" />
<polyline points="187.0,117.5,184.5,120.0,190.0,117.5,181.0,130.0,177.0,121.0,177.0,112.5,197.5,118.0,194.5,113.5" stroke="yellow" stroke-width="1" fill="none" />
<polyline points="172.5,139.0,185.0,124.5,178.0,122.0,183.0,128.5,179.5,130.0,176.0,120.0,179.0,125.0" stroke="orange" stroke-width="1" fill="none" />
<polyline points="195.5,141.0,193.5,128.0,199.5,135.0,196.5,141.0,196.0,144.5" stroke="green" stroke-width="1" fill="none" />
<polyline points="196.5,122.5,193.5,123.0,201.0,117.0,204.5,118.5,208.0,118.5" stroke="orange" stroke-width="1" fill="none" />
<polyline points="190.0,112.5,199.5,117.0,203.0,113.5,193.5,106.0,191.0,106.5,198.0,109.5" stroke="green" stroke-width="1" fill="none" />
<polyline points="227.5,113.5,232.5,121.0,215.0,124.5,211.5,131.0,209.5,139.5,218.5,149.5,210.5,152.0,208.0,146.5,197.5,164.0,192.0,157.5,202.5,157.5,201.0,156.0,205.5,137.5,215.0,144.5,219.0,133.0,217.5,132.0" stroke="green" stroke-width="1" fill="none" />
<polyline points="252.0,138.0,250.0,137.0,248.0,144.0,245.5,143.0,234.0,151.0,231.0,158.0,233.5,160.5,229.5,158.5,217.0,162.0,214.5,172.0,218.5,159.0,228.5,145.5,228.0,151.5,245.0,134.5,245.5,154.0,251.5,133.5,272.0,128.5,269.0,129.0,271.0,126.5" stroke="yellow" stroke-width="1" fill="none" />
<polyline points="291.0,151.5,290.0,143.5,290.0,143.5,290.0,146.5" stroke="black" stroke-width="1" fill="none" />
<polyline points="290.0,145.0,280.0,142.5,285.0,140.0,293.0,138.5,302.5,134.5,308.0,134.5,306.0,138.5,300.5,136.0,303.0,138.0,304.0,140.0" stroke="green" stroke-width="1" fill="none" />
<polyline points="282.0,190.5,282.0,196.5,288.5,197.5,287.0,208.0,277.0,200.5,278.0,211.5,279.0,213.0,270.0,218.0,273.0,220.0,274.0,219.5" stroke="green" stroke-width="1" fill="none" />
<polyline points="238.0,104.5,238.5,100.0,224.5,102.0,231.5,106.0,207.5,107.0,224.5,102.5,230.5,91.0,233.5,101.5,231.0,103.0,228.0,110.0,224.0,116.0,220.0,110.0,218.0,110.0,215.5,110.5" stroke="black" stroke-width="1" fill="none" />
<polyline points="" stroke="yellow" stroke-width="1" fill="none" />
<polyline points="" stroke="yellow" stroke-width="1" fill="none" />
<polyline points="256.0,92.0,248.0,95.5,234.5,89.0,242.5,96.5,238.5,106.5,231.0,102.0,220.0,114.5,228.5,120.0,220.5,112.5,218.5,113.0,221.5,115.5,207.5,124.5,206.0,132.0,201.0,129.5,195.0,120.5,195.0,134.5,178.5,141.0,178.0,144.0,178.5,155.0,173.5,151.0,166.0,154.0,172.5,157.0,163.5,163.5,158.0,162.0,158.0,170.5,161.0,172.0,152.5,171.5,160.0,163.5,157.5,171.0,171.5,162.0,170.5,146.0,178.5,138.0,182.0,144.0,189.5,139.0,187.0,140.5,194.0,123.0,207.0,124.0,209.0,125.5,199.5,118.0,213.5,112.0,217.5,115.5,226.5,109.0,234.0,101.5,236.5,110.0,240.5,95.5,245.0,99.0,251.0,105.5,246.0,98.5,243.5,100.0" stroke="green" stroke-width="1" fill="none" />
<polyline points="232.5,84.0,234.0,85.5,240.0,78.0,232.0,77.0" stroke="black" stroke-width="1" fill="none" />
<polyline points="233.0,49.5,238.0,55.5,237.5,49.5" stroke="black" stroke-width="1" fill="none" />
<polyline points="219.5,36.0,226.0,50.5,239.5,45.0,236.5,57.0,235.5,46.0,242.0,49.0,252.0,57.5,253.0,49.5,246.0,48.5,261.0,49.5,260.5,47.0,271.5,50.0,274.0,65.5,268.0,59.0,284.0,66.0,288.5,72.0,283.0,66.0,297.0,75.5,292.5,74.0,303.5,67.0,303.0,95.5,302.0,92.0,311.0,95.0,319.0,92.5,313.5,92.0,322.0,108.0,320.5,113.0,337.0,117.0,331.5,124.0,339.5,130.5,349.0,132.5,342.0,137.0,345.5,143.0,355.5,138.0,358.0,139.5,365.0,136.0,368.0,122.0,373.5,136.0,364.5,133.5,378.0,128.0,377.5,122.5,379.5,125.5,392.5,113.5,398.5,113.0,408.5,105.5,406.5,111.0,401.0,111.5,409.0,108.5,415.5,116.5,407.0,117.0,412.0,110.5,416.5,110.0" stroke="yellow" stroke-width="1" fill="none" />
<polyline points="426.0,120.5,425.0,135.5,417.0,118.5,414.0,130.5,438.5,136.0,417.5,132.0,422.0,135.5,415.0,144.0,419.0,149.0,411.0,152.0,409.0,154.5,410.0,160.5,399.0,157.5,407.5,181.5,404.5,170.0,399.0,170.0,404.0,186.5,414.0,177.5,407.5,189.0,389.5,193.5,389.5,193.5,383.5,203.0,375.5,203.0,367.0,207.0,378.5,211.0,369.0,212.0,380.5,203.0,385.5,203.5,383.5,209.0,393.5,200.0,394.0,194.5,391.5,201.0,393.5,195.5,404.5,195.5,420.0,178.5,415.0,180.0,416.5,179.0" stroke="black" stroke-width="1" fill="none" />
<polyline points="374.0,121.0,366.0,125.0,370.0,124.0,367.0,121.5" stroke="yellow" stroke-width="1" fill="none" />
<polyline points="387.0,97.5,382.5,101.0,384.5,101.0,391.0,102.0,382.0,93.0,382.0,95.5,376.5,102.0,375.0,101.5" stroke="orange" stroke-width="1" fill="none" />
<polyline points="387.5,108.5,377.0,105.5,380.0,112.0,392.5,109.0" stroke="green" stroke-width="1" fill="none" />
<polyline points="428.0,28.0,419.5,29.0,412.5,19.5,411.0,8.5,402.5,1.0,413.5,4.0,408.0,11.5,417.5,11.0" stroke="black" stroke-width="1" fill="none" />
<polyline points="506.0,78.5,514.0,78.0,516.5,84.0,511.5,82.0,503.0,88.5,499.5,88.5,497.5,100.0,492.5,97.5,495.0,106.5,484.0,107.0,485.0,109.0,478.5,113.5,474.5,125.5,473.0,126.5,475.0,135.5,466.5,131.0,467.0,133.0,458.5,141.5,466.0,154.0,459.5,150.0,458.5,158.0,460.5,159.0,444.0,162.0,444.0,174.5,444.0,168.0,439.0,178.5,443.5,175.5,441.5,183.5,437.0,177.5,442.5,196.0,436.0,195.0,425.0,195.0,435.0,204.5,427.0,217.0,433.5,211.0,426.5,212.5,421.5,226.0,418.0,226.0,415.5,227.0,414.0,236.0,422.0,229.5,414.0,236.5,408.5,244.0,411.5,253.5,409.5,247.0,415.0,247.0,414.0,253.0,406.0,262.5,401.0,263.0,411.0,268.0,402.0,277.0,407.5,281.5,390.0,284.5,404.5,286.5,400.0,297.5,394.5,291.5,398.5,291.5,403.0,298.5,398.5,304.0,396.5,324.0,388.0,311.0,387.5,317.5,391.5,330.5,383.0,336.0,391.0,332.5,390.5,335.0,382.0,339.0,376.0,329.0,388.5,335.5,383.0,330.5" stroke="black" stroke-width="1" fill="none" />
<polyline points="342.0,138.5,339.0,131.5,337.0,135.5,328.5,122.5,334.0,124.0,326.5,114.5,322.5,117.0,320.0,116.0,321.5,104.5,320.0,95.0,314.5,97.0,310.0,91.0,304.0,90.5,298.5,78.0,300.5,86.5,297.5,69.0,290.5,73.5,284.5,71.0,261.5,69.5,271.0,61.0,273.5,43.5,252.0,48.5,253.0,49.0,247.0,48.0" stroke="orange" stroke-width="1" fill="none" />
<polyline points="" stroke="yellow" stroke-width="1" fill="none" />
<polyline points="164.5,66.5,155.5,67.0,161.0,66.0,165.5,67.0" stroke="orange" stroke-width="1" fill="none" />
<polyline points="162.0,68.5,164.0,65.0,143.0,94.0" stroke="orange" stroke-width="1" fill="none" />
<polyline points="155.0,77.0,155.5,92.5,157.5,79.5,154.5,77.0,154.0,76.0,157.0,81.0,151.0,79.0" stroke="black" stroke-width="1" fill="none" />
</svg>