<svg xmlns="http://www.w3.org/2000/svg" width="1024" height="1024" version="1.1" fill="white"><polyline points="405.5,2.0,405.0,6.5,405.5,10.5,410.0,14.5,414.0,16.5,415.0,22.5,418.5,26.0,419.0,30.0,421.5,34.5,424.0,38.5,425.0,43.5,429.5,47.0,429.0,50.5,433.5,55.0,433.5,56.0,436.5,64.0,438.5,66.5" stroke="green" stroke-width="1" fill="none" />
<polyline points="457.5,60.0,452.0,51.0,448.0,45.5,443.5,40.0,440.5,33.5,436.5,26.0,432.0,19.5,428.0,12.0,424.5,6.5" stroke="green" stroke-width="1" fill="none" />
<polyline points="425.5,3.0,423.0,8.0,427.0,10.0,431.0,15.0,432.5,18.0,432.5,22.0,436.5,26.0,440.0,29.5,442.0,34.0,444.5,38.0,446.0,42.0,448.0,44.5,451.5,51.5,453.0,53.5,455.0,58.0,456.5,62.0,454.0,66.5,451.0,70.5,446.0,74.0,442.5,78.0,440.0,82.0,437.5,86.0,432.0,88.5,430.5,95.5,429.5,98.5,427.0,102.5,424.0,108.0,421.0,107.5,419.0,113.0,419.0,112.5,423.5,106.5,426.5,102.0,432.0,96.5,436.0,88.5,440.0,83.5,444.5,75.5,448.0,73.5,452.0,69.5,458.0,64.0,460.5,56.5,464.5,52.5,466.5,51.0,472.5,44.5,476.5,39.5,481.0,36.0,484.5,32.0,490.5,25.5,495.5,25.5,499.5,18.0,502.0,14.5,507.5,12.5,509.5,7.5" stroke="black" stroke-width="1" fill="none" />
<polyline points="513.0,7.0,507.0,11.0,502.0,17.5,497.5,17.0,495.0,22.5,493.0,28.0,487.0,30.5,485.5,36.0,479.0,38.5,475.5,43.0,473.0,44.5,469.5,49.0,463.0,55.0,457.5,57.5" stroke="black" stroke-width="1" fill="none" />
<polyline points="511.5,77.5,505.5,80.5,505.5,85.5,500.0,91.5,495.5,98.0,493.0,97.5,488.0,103.5,484.5,105.5,480.5,111.5,476.5,116.5,472.5,122.0,468.5,128.0,466.0,133.0,461.5,143.0,464.0,138.0" stroke="black" stroke-width="1" fill="none" />
<polyline points="455.5,155.0,449.5,160.5,447.0,165.5,442.0,174.0,440.5,173.0" stroke="green" stroke-width="1" fill="none" />
<polyline points="439.5,180.5,437.5,183.5" stroke="black" stroke-width="1" fill="none" />
<polyline points="429.0,202.5,424.0,211.5,425.5,215.0,421.0,219.0" stroke="black" stroke-width="1" fill="none" />
<polyline points="417.0,230.5,415.0,238.5,413.5,245.5,414.0,245.0" stroke="black" stroke-width="1" fill="none" />
<polyline points="404.0,275.5,405.0,284.5,400.0,286.5" stroke="black" stroke-width="1" fill="none" />
<polyline points="381.0,289.5,380.5,287.0,380.5,282.5,380.5,280.0,381.5,275.0" stroke="green" stroke-width="1" fill="none" />
<polyline points="379.0,268.5,375.5,262.0,377.0,259.5,374.5,254.5,372.0,250.5,370.5,249.0,372.5,242.0,372.5,239.0,369.5,233.5,369.5,229.5,370.5,225.5,371.0,222.0,372.0,218.0,372.5,214.0,370.0,220.5" stroke="black" stroke-width="1" fill="none" />
<polyline points="372.5,233.0,373.5,235.0,371.0,238.5,368.5,242.5,368.0,239.0" stroke="yellow" stroke-width="1" fill="none" />
<polyline points="371.5,251.5,371.0,255.0,368.5,255.0,373.0,260.5,373.5,265.5,370.5,270.5,374.0,270.5,374.0,274.5,373.0,277.5,375.5,279.5" stroke="black" stroke-width="1" fill="none" />
<polyline points="376.5,279.0,376.5,280.0,375.0,282.5,374.5,285.0,375.5,290.0,378.0,294.5,377.5,296.5,378.0,300.5,378.0,303.5,379.0,308.0,379.0,312.0,380.0,315.5,381.0,320.0,381.5,324.5,382.5,328.5,380.0,331.0,381.0,336.5,382.0,340.0,382.0,341.5,382.0,348.0,381.5,352.0" stroke="black" stroke-width="1" fill="none" />
<polyline points="370.0,356.5,370.5,358.5,370.5,364.0,370.0,368.5,371.5,372.0" stroke="black" stroke-width="1" fill="none" />
<polyline points="373.0,374.0,374.0,380.0,373.5,384.0" stroke="black" stroke-width="1" fill="none" />
<polyline points="380.5,386.0,383.0,390.5,377.5,392.0,379.5,397.0,376.0,403.5,377.0,403.5" stroke="black" stroke-width="1" fill="none" />
<polyline points="363.5,434.0,362.5,432.5,359.5,423.5,355.5,417.0,351.5,413.0,347.5,408.5,343.0,403.0,338.5,400.5,337.0,397.0,331.5,399.0,328.0,393.5,322.5,395.5,317.0,394.0,315.0,391.5,313.0,387.5,308.0,390.0,306.0,387.0,302.5,386.0" stroke="black" stroke-width="1" fill="none" />
<polyline points="312.0,382.5,316.0,372.5,320.0,366.0,325.0,363.0,328.5,353.0,334.5,346.0,337.0,336.0,341.5,327.0,345.5,319.0" stroke="black" stroke-width="1" fill="none" />
<polyline points="348.0,325.5,352.0,329.5,354.0,337.0,353.5,341.0,354.0,339.5" stroke="yellow" stroke-width="1" fill="none" />
<polyline points="355.0,352.5,354.0,357.5,352.0,359.0,353.0,365.5,354.0,371.5,353.0,372.5,352.5,376.5,353.5,379.0,354.0,384.5,352.5,390.5,352.5,395.0,353.0,398.5,350.5,404.5,351.0,404.5,352.0,408.5" stroke="black" stroke-width="1" fill="none" />
<polyline points="362.0,384.0,360.5,385.5,361.0,383.0,358.0,376.0,358.5,373.5,360.0,368.0,360.0,363.0" stroke="black" stroke-width="1" fill="none" />
<polyline points="359.0,360.5,362.0,362.5,359.5,368.5,356.5,372.0,360.5,378.0" stroke="black" stroke-width="1" fill="none" />
<polyline points="354.5,356.5,354.5,360.0,354.0,364.0,352.0,366.5,354.0,371.5,355.5,376.5,354.5,379.5,354.0,383.0,356.5,389.5,354.5,391.5,354.0,398.0,355.0,399.5,355.0,402.5,355.5,407.5,356.5,413.5,354.5,413.5,355.5,416.0" stroke="orange" stroke-width="1" fill="none" />
<polyline points="373.0,464.5,374.0,459.5,371.5,457.5,373.5,451.0,372.0,449.5,370.0,443.0,372.5,441.0,373.0,436.5,376.0,431.5,374.0,428.5,374.5,424.5,374.0,420.5,376.0,416.0,376.0,412.0,376.5,408.0,377.0,404.5,378.0,402.5,377.5,396.5,377.5,392.5,377.5,389.5,378.0,384.5,379.0,381.0,378.0,376.0,375.5,374.0,376.5,368.5,381.0,365.0,379.5,359.5,381.5,353.5,378.5,352.0,377.5,348.0,378.5,345.0,376.0,340.5,375.5,337.0,377.5,334.5,377.0,331.0,371.0,327.0,372.5,321.5,372.5,317.5,372.0,313.5,371.0,307.0,372.5,304.0,372.0,301.0,368.5,299.0,370.5,292.5,369.0,290.0,369.5,284.0,369.5,280.5,369.5,276.0,369.5,272.0,368.5,268.0,368.0,264.5,368.0,260.5,367.5,256.5,365.0,250.0,366.0,250.0,364.5,242.0,366.5,240.0,365.5,236.0,364.5,232.5,361.0,228.0,362.0,224.0,361.0,219.0,357.5,218.0,357.5,212.0,355.5,208.5,355.0,205.0,351.0,202.0,349.5,198.0,351.5,196.0,348.5,194.0" stroke="black" stroke-width="1" fill="none" />
<polyline points="346.0,197.5,350.0,202.5" stroke="green" stroke-width="1" fill="none" />
<polyline points="349.5,200.5,353.5,206.0,357.5,213.5" stroke="black" stroke-width="1" fill="none" />
<polyline points="359.5,207.5,357.0,194.5,356.5,195.5" stroke="black" stroke-width="1" fill="none" />
<polyline points="359.0,192.5,357.5,196.5,362.5,198.0,360.5,204.5,360.5,207.5" stroke="black" stroke-width="1" fill="none" />
<polyline points="356.5,206.0,353.0,201.0" stroke="black" stroke-width="1" fill="none" />
<polyline points="351.0,196.5,354.5,203.5" stroke="black" stroke-width="1" fill="none" />
<polyline points="346.0,203.5" stroke="black" stroke-width="1" fill="none" />
<polyline points="338.5,203.0,340.5,207.0,347.0,211.0,351.0,214.0,353.5,218.5,358.5,221.0,358.0,230.0,360.5,232.5,363.5,236.5,364.0,241.0,364.5,245.5,365.0,249.0" stroke="black" stroke-width="1" fill="none" />
<polyline points="364.5,249.0,364.0,245.0" stroke="black" stroke-width="1" fill="none" />
<polyline points="353.0,241.0,349.5,245.5,344.5,249.5,341.0,253.5" stroke="black" stroke-width="1" fill="none" />
<polyline points="344.0,255.0,339.5,255.0,335.5,256.0,331.5,256.5,327.5,257.0" stroke="black" stroke-width="1" fill="none" />
<polyline points="327.0,258.0,329.5,253.0,335.0,252.5,339.0,251.5,340.0,250.5,347.0,247.5,351.0,244.0" stroke="orange" stroke-width="1" fill="none" />
<polyline points="349.0,254.0,347.5,256.5,345.5,257.5" stroke="yellow" stroke-width="1" fill="none" />
<polyline points="335.5,265.0,341.5,264.5,341.5,272.5,341.5,274.5,342.0,284.0,340.0,282.0,343.0,282.5,344.0,285.0" stroke="black" stroke-width="1" fill="none" />
<polyline points="335.0,277.5,341.5,283.5,344.5,279.0,349.0,278.5,349.5,282.5,351.0,287.0,350.5,291.0,352.5,296.5,350.0,300.0,348.5,304.0,349.0,306.5,342.5,314.0,347.0,314.0,347.5,316.5,343.5,319.5,341.0,324.5,339.5,328.5,337.0,333.5,335.5,336.5,336.0,339.5,331.0,343.5,331.5,349.5,327.5,352.5,327.0,356.5,321.5,360.5,321.0,364.0,317.0,369.0,319.0,371.0,316.0,376.5,314.5,380.5,315.0,384.5,312.5,388.5,318.5,392.0,326.0,393.5,336.0,400.0,342.0,404.5,347.0,408.5,352.0,411.5,352.5,419.0,356.5,420.5,358.5,424.5,363.0,427.5,363.0,432.5,362.0,436.5,365.0,440.5,368.0,445.5,368.0,449.0,368.5,455.5,367.0,458.0,370.0,462.0,371.0,466.0,372.5,470.5,374.5,474.0,376.0,479.5,379.0,482.5,379.0,485.0,381.5,488.5,381.0,492.5,382.0,496.5,385.0,501.5,383.5,504.0,384.5,508.5,385.5,512.0" stroke="black" stroke-width="1" fill="none" />
<polyline points="423.0,489.0,425.5,495.0,429.5,494.5,433.5,491.0,437.0,488.0,441.0,481.0,445.0,478.0,447.0,473.0,451.5,467.5" stroke="black" stroke-width="1" fill="none" />
<polyline points="456.5,465.0,451.5,470.0,449.0,468.5,452.5,462.5" stroke="black" stroke-width="1" fill="none" />
<polyline points="460.0,442.0" stroke="black" stroke-width="1" fill="none" />
<polyline points="465.0,429.5,471.0,423.0,473.0,417.0,476.5,408.5,483.0,403.5,485.5,401.5,488.5,401.0,494.0,395.0,498.5,392.0,500.5,389.5,504.5,388.5,508.0,387.0,511.5,385.5,514.5,388.0" stroke="black" stroke-width="1" fill="none" />
<polyline points="502.0,386.0,493.5,390.5,492.5,396.0,485.5,399.0,484.0,404.0,477.5,408.0,475.5,412.0,474.5,416.0,471.0,418.0,469.5,424.0,468.0,428.0,466.0,431.5,461.0,436.0,458.0,440.5,458.0,445.5,457.0,447.0,456.0,449.5,454.5,454.5,454.5,459.0,453.5,465.0,451.0,466.5,449.0,470.5,449.5,475.0,449.5,480.0,440.5,484.5,439.0,487.5,435.5,492.5" stroke="green" stroke-width="1" fill="none" />
<polyline points="432.0,478.0,435.0,477.5,435.0,478.5,436.0,475.0,437.5,473.0,435.0,468.5,440.0,463.5,440.0,459.5,439.5,458.0,435.5,455.5,431.5,452.0" stroke="black" stroke-width="1" fill="none" />
<polyline points="441.0,457.5,435.0,455.0,432.5,448.5,430.5,447.5,428.5,444.0,431.5,439.0,432.5,436.0,434.5,431.0" stroke="green" stroke-width="1" fill="none" />
<polyline points="430.0,468.0,428.5,472.0,422.5,475.0,422.0,476.5,424.5,483.5,423.0,489.0,423.5,489.5,422.0,494.5" stroke="orange" stroke-width="1" fill="none" />
<polyline points="418.0,468.5,419.5,472.5,423.0,477.0,427.5,469.0,431.0,468.0" stroke="orange" stroke-width="1" fill="none" />
<polyline points="476.5,413.0,478.5,417.5,482.0,413.5,483.0,410.5,484.0,405.0" stroke="green" stroke-width="1" fill="none" />
<polyline points="444.0,422.0,445.0,420.5,448.0,419.0,449.0,415.5,449.5,411.5,448.0,407.0,451.0,403.5,448.5,397.0,451.0,395.0,451.5,391.0,455.5,385.0,453.5,382.5,453.5,378.5,455.5,373.0,453.5,371.0,453.0,366.5,450.5,368.5" stroke="black" stroke-width="1" fill="none" />
<polyline points="387.0,347.5,384.0,347.0,383.5,340.0,384.5,336.5,386.5,335.0,383.5,329.0" stroke="black" stroke-width="1" fill="none" />
<polyline points="367.0,352.5,367.5,356.0,368.5,360.0,370.0,364.0,368.0,368.5,371.5,372.0,371.0,377.5,371.0,381.5" stroke="orange" stroke-width="1" fill="none" />
<polyline points="319.5,343.5,317.0,341.5" stroke="black" stroke-width="1" fill="none" />
<polyline points="320.0,347.5,315.5,350.5,311.0,350.5,307.0,352.0" stroke="black" stroke-width="1" fill="none" />
<polyline points="312.0,353.5,306.0,355.0,302.0,354.5,297.5,355.5,294.0,352.0" stroke="black" stroke-width="1" fill="none" />
<polyline points="293.0,358.5,297.5,360.0,303.0,359.5,305.5,360.0,308.5,361.5,311.5,359.5,306.0,361.5" stroke="black" stroke-width="1" fill="none" />
<polyline points="312.5,346.5,308.5,348.0,305.0,347.0,302.5,346.5,296.5,349.0,293.5,350.5" stroke="black" stroke-width="1" fill="none" />
<polyline points="305.0,330.5,315.5,328.0,315.0,328.5,311.5,330.0,309.0,329.5" stroke="green" stroke-width="1" fill="none" />
<polyline points="308.5,327.5,305.5,328.5,300.5,327.0,294.0,323.5,299.0,322.0" stroke="yellow" stroke-width="1" fill="none" />
<polyline points="298.5,326.5,303.5,329.5,303.0,324.5,307.0,326.0" stroke="black" stroke-width="1" fill="none" />
<polyline points="323.5,323.5,322.0,318.5,321.5,316.0,322.0,313.5,323.5,307.5,321.0,305.5" stroke="black" stroke-width="1" fill="none" />
<polyline points="337.5,279.5,336.5,276.0,337.0,275.5" stroke="yellow" stroke-width="1" fill="none" />
<polyline points="335.0,271.5,335.0,274.5,337.0,271.0,335.5,265.5,331.0,265.5" stroke="black" stroke-width="1" fill="none" />
<polyline points="328.5,271.5,326.5,270.5,329.0,270.0,337.5,268.5,331.0,269.0" stroke="black" stroke-width="1" fill="none" />
<polyline points="324.5,270.5" stroke="black" stroke-width="1" fill="none" />
<polyline points="328.0,273.5,321.5,274.0" stroke="black" stroke-width="1" fill="none" />
<polyline points="318.5,272.5,322.0,266.0,325.5,262.0,329.5,259.5,335.5,260.0,338.0,258.5,341.0,255.5,346.5,258.0,348.0,253.0" stroke="black" stroke-width="1" fill="none" />
<polyline points="345.5,237.0,346.0,234.5,348.0,228.5,343.5,226.0,343.0,222.5,343.0,218.5,341.5,214.5,341.0,210.5" stroke="green" stroke-width="1" fill="none" />
<polyline points="334.0,202.0,334.0,206.5,339.0,201.5,343.5,198.5,349.5,196.0,350.5,194.5,356.0,189.5,358.0,189.5,361.5,189.5,366.0,185.0,370.0,183.5,373.0,184.5,378.5,181.0,380.0,177.0,386.0,177.0,389.5,176.0,392.5,173.5,398.0,173.0,402.5,169.5,405.0,170.0,403.0,172.5,400.5,174.0,400.5,180.0,394.0,185.5,387.5,188.5,382.0,190.5,383.0,186.5,389.5,186.5,393.0,183.0,397.0,179.0,400.0,172.0" stroke="black" stroke-width="1" fill="none" />
<polyline points="404.5,164.5,408.0,159.5,404.5,162.0,405.0,166.5,396.5,172.0,391.0,175.0,384.0,179.0" stroke="black" stroke-width="1" fill="none" />
<polyline points="373.5,181.5,363.0,183.0,359.0,187.0,349.0,194.5,343.0,195.0,336.5,200.5,337.5,205.5,341.0,208.0,347.5,212.5,352.5,213.5,355.0,213.0" stroke="black" stroke-width="1" fill="none" />
<polyline points="342.5,207.5,340.5,209.0" stroke="green" stroke-width="1" fill="none" />
<polyline points="339.5,206.5,343.5,214.5" stroke="black" stroke-width="1" fill="none" />
<polyline points="342.0,207.5,345.5,208.5,349.0,212.0,354.5,219.0" stroke="black" stroke-width="1" fill="none" />
<polyline points="353.5,207.5,353.5,208.5,348.0,207.5,341.5,205.5,340.0,202.0" stroke="black" stroke-width="1" fill="none" />
<polyline points="348.5,209.0,354.5,210.5" stroke="black" stroke-width="1" fill="none" />
<polyline points="348.5,203.0,346.0,198.5,346.5,198.5" stroke="black" stroke-width="1" fill="none" />
<polyline points="347.5,202.0,345.0,203.5,350.5,206.5" stroke="black" stroke-width="1" fill="none" />
<polyline points="366.5,197.0" stroke="orange" stroke-width="1" fill="none" />
<polyline points="360.5,190.5,366.5,194.0,370.5,192.5,373.0,193.5,377.5,192.0" stroke="black" stroke-width="1" fill="none" />
<polyline points="396.5,154.0,393.5,158.0,391.5,162.0,390.0,168.5,387.5,168.5,384.0,173.0,381.5,178.0,385.0,172.5,387.5,166.0,391.0,159.0,396.0,155.0" stroke="black" stroke-width="1" fill="none" />
<polyline points="404.5,158.0,400.0,162.0,394.5,169.0,391.0,171.0,389.5,173.5,388.5,174.5,393.0,170.5,395.5,167.0,401.0,162.5" stroke="black" stroke-width="1" fill="none" />
<polyline points="396.5,124.0,392.5,127.5,391.5,131.5,384.5,134.0,383.0,135.0,389.0,132.5,391.0,125.5,398.0,122.5" stroke="black" stroke-width="1" fill="none" />
<polyline points="395.5,118.5,392.5,124.5,388.5,129.5,386.0,128.5,380.5,133.0,387.0,130.5,390.5,124.5,396.0,120.5" stroke="black" stroke-width="1" fill="none" />
<polyline points="400.0,115.5,391.5,118.0,387.0,122.0,381.5,126.0,375.5,132.5,370.5,134.0,365.5,138.5,359.5,141.0" stroke="black" stroke-width="1" fill="none" />
<polyline points="338.0,153.0,331.5,156.5,323.5,161.5,320.5,163.5,312.5,168.5,305.0,174.0,299.5,177.5,296.0,180.0" stroke="black" stroke-width="1" fill="none" />
<polyline points="286.0,175.0,292.0,177.0,285.5,175.5" stroke="green" stroke-width="1" fill="none" />
<polyline points="281.0,174.5,285.0,174.0,289.5,174.0" stroke="orange" stroke-width="1" fill="none" />
<polyline points="288.5,172.5,285.0,170.5" stroke="black" stroke-width="1" fill="none" />
<polyline points="278.0,175.0,276.0,179.0" stroke="black" stroke-width="1" fill="none" />
<polyline points="273.0,180.5,269.0,180.0,265.5,179.0,259.0,175.0,257.0,177.5,253.5,176.0,251.5,169.0,244.5,168.5,241.5,167.5" stroke="black" stroke-width="1" fill="none" />
<polyline points="246.5,171.5,247.0,172.5,251.5,173.5,250.0,175.0,256.0,180.0,248.0,184.5,247.5,187.0,243.0,190.5,238.5,197.5,239.5,198.0,238.5,202.0,235.5,205.0,241.5,211.5,244.5,210.5,247.0,212.5,252.5,212.0,256.5,204.0,255.0,210.0,251.5,213.0,254.0,212.0,249.5,221.0,248.5,222.5,245.0,226.5,240.0,232.0,237.0,236.0,238.0,238.5,233.5,247.5,230.0,249.5,225.5,252.5,226.0,255.0,222.5,261.0,219.5,265.5,217.0,269.5,214.5,274.0,212.0,278.0,209.5,282.0,208.5,287.0,205.0,290.0,203.0,294.0,200.5,298.0,199.0,300.0,197.0,307.5,194.5,309.0,193.0,311.0,191.0,315.5,186.0,318.5,186.0,321.5,180.5,326.0,180.0,329.5,173.0,333.5,170.5,339.5,163.5,341.0,165.5,347.0" stroke="orange" stroke-width="1" fill="none" />
<polyline points="155.5,347.5,155.0,354.0,158.0,356.5,158.5,363.0,156.5,364.5,155.5,368.5,155.5,372.0,157.5,376.0,157.0,380.0,154.0,382.0,154.5,388.0,154.5,392.0,153.5,396.5,158.5,399.0,163.0,404.5,167.0,408.5,169.0,409.5" stroke="green" stroke-width="1" fill="none" />
<polyline points="171.5,407.5,163.0,405.0" stroke="black" stroke-width="1" fill="none" />
<polyline points="160.5,407.5,164.0,408.0,168.5,412.0,167.0,413.5,165.5,419.0,172.0,422.5,172.5,430.0" stroke="black" stroke-width="1" fill="none" />
<polyline points="168.0,429.5,172.0,435.5,178.5,433.5" stroke="black" stroke-width="1" fill="none" />
<polyline points="178.5,440.0,176.5,445.5,178.5,443.0,183.5,446.0,189.0,439.5,185.0,442.0" stroke="black" stroke-width="1" fill="none" />
<polyline points="177.0,444.5" stroke="black" stroke-width="1" fill="none" />
<polyline points="176.5,450.0,176.0,456.0,177.5,459.5" stroke="black" stroke-width="1" fill="none" />
<polyline points="176.0,463.5" stroke="black" stroke-width="1" fill="none" />
<polyline points="169.5,454.5,172.5,460.5,170.5,463.5,170.0,467.5,166.5,469.0,167.5,470.5" stroke="black" stroke-width="1" fill="none" />
<polyline points="167.0,469.0,161.0,468.0,155.5,474.0,154.0,470.5,148.5,463.5,145.0,455.5,140.0,455.0,137.5,458.0,133.5,466.5,135.0,465.0" stroke="black" stroke-width="1" fill="none" />
<polyline points="137.0,463.0,140.5,466.5,143.0,473.0,147.5,477.0,151.5,480.5,155.0,487.0,152.0,483.5,155.5,484.5,155.5,492.0,162.5,494.0,163.5,493.5,164.0,500.5" stroke="black" stroke-width="1" fill="none" />
<polyline points="166.0,506.5,165.0,505.0,166.5,509.0" stroke="black" stroke-width="1" fill="none" />
<polyline points="170.5,508.5,165.5,503.5,161.0,503.0,158.0,502.5,152.0,497.0,150.5,494.5,148.0,494.0,146.5,489.5,142.0,484.5,139.5,478.0" stroke="black" stroke-width="1" fill="none" />
<polyline points="141.0,483.0,144.0,490.5,148.5,495.0,148.5,497.0,151.5,504.5,152.5,505.0" stroke="black" stroke-width="1" fill="none" />
<polyline points="151.5,507.0" stroke="yellow" stroke-width="1" fill="none" />
<polyline points="156.5,501.5,151.0,495.0,149.0,496.5" stroke="black" stroke-width="1" fill="none" />
<polyline points="151.0,492.0,155.0,497.5" stroke="black" stroke-width="1" fill="none" />
<polyline points="155.0,493.5,152.5,487.0,148.5,484.0" stroke="black" stroke-width="1" fill="none" />
<polyline points="149.5,485.0,150.5,487.5,151.5,492.0,155.5,491.5,155.5,495.5,155.5,499.0,157.0,503.5,158.5,507.5,159.0,508.0,166.5,510.5,168.0,509.0" stroke="black" stroke-width="1" fill="none" />
<polyline points="154.0,506.5,151.5,503.5,149.5,499.0,147.5,490.0" stroke="black" stroke-width="1" fill="none" />
<polyline points="141.5,487.5,143.5,489.0,145.5,495.0,147.0,496.5,150.0,501.0,151.5,504.5,151.0,506.0,155.5,512.0" stroke="black" stroke-width="1" fill="none" />
<polyline points="152.0,509.5,148.0,500.0,144.0,494.5" stroke="black" stroke-width="1" fill="none" />
<polyline points="142.5,497.0,145.5,501.0,148.0,505.0,152.0,510.5,151.5,512.0" stroke="black" stroke-width="1" fill="none" />
<polyline points="143.0,515.0,142.5,508.5,141.0,505.0,139.5,499.0,140.0,496.5,134.0,489.5,134.5,484.5" stroke="black" stroke-width="1" fill="none" />
<polyline points="135.0,484.5,137.0,488.0,139.0,491.5,137.0,494.5,136.5,497.5,138.5,501.5" stroke="black" stroke-width="1" fill="none" />
<polyline points="134.0,506.0,129.5,501.0" stroke="black" stroke-width="1" fill="none" />
<polyline points="123.0,494.5,125.5,501.0,121.5,504.5,122.0,507.0,125.0,512.5" stroke="black" stroke-width="1" fill="none" />
<polyline points="125.5,505.0,125.5,501.5,127.5,500.0,125.5,491.5,123.5,490.5" stroke="black" stroke-width="1" fill="none" />
<polyline points="129.0,503.5,135.0,509.0" stroke="black" stroke-width="1" fill="none" />
<polyline points="134.5,512.0,129.5,509.5,129.0,504.0,133.0,504.5" stroke="black" stroke-width="1" fill="none" />
<polyline points="139.5,497.0,139.5,487.5,134.0,483.5" stroke="black" stroke-width="1" fill="none" />
<polyline points="135.5,482.5,131.5,486.0,136.5,491.0,136.5,495.0,133.5,497.0,138.5,500.0,137.0,506.5,139.5,509.0,138.5,515.5" stroke="black" stroke-width="1" fill="none" />
<polyline points="158.0,499.0,161.5,505.5" stroke="yellow" stroke-width="1" fill="none" />
<polyline points="165.0,495.0,163.0,497.5" stroke="black" stroke-width="1" fill="none" />
<polyline points="169.5,490.0,167.5,484.5,162.0,485.0" stroke="yellow" stroke-width="1" fill="none" />
<polyline points="168.0,478.5,164.0,481.5,166.0,479.5,167.5,481.5,165.5,480.0" stroke="black" stroke-width="1" fill="none" />
<polyline points="164.5,470.0,168.5,474.0,170.0,481.0,167.5,481.5,165.5,486.5,168.0,490.5,171.0,492.0" stroke="black" stroke-width="1" fill="none" />
<polyline points="197.5,490.5,199.5,489.5,201.5,489.5,206.0,488.5,209.5,487.5,213.0,485.0,216.5,482.5,220.5,478.0,224.5,472.5" stroke="black" stroke-width="1" fill="none" />
<polyline points="232.5,466.0,236.5,458.5,235.0,461.0" stroke="black" stroke-width="1" fill="none" />
<polyline points="210.5,484.0,216.5,481.5,221.5,477.5,226.0,471.0,226.5,469.5,229.5,466.0,231.5,462.5,235.0,460.0,233.0,455.0,234.0,450.0,233.5,447.0,237.5,441.5,236.5,437.5,236.5,434.0,236.0,430.0,238.0,426.0,235.0,422.0,234.5,418.5,233.5,414.5,232.0,410.5,231.0,406.5,229.0,404.5,226.5,403.0" stroke="black" stroke-width="1" fill="none" />
<polyline points="223.0,415.0,224.5,415.5" stroke="green" stroke-width="1" fill="none" />
<polyline points="228.5,416.5,225.5,419.0" stroke="black" stroke-width="1" fill="none" />
<polyline points="241.0,413.0,239.0,416.5,245.0,418.5,239.0,424.0,243.0,426.0,238.5,432.0,241.5,434.0,240.5,438.0,235.5,443.5,235.5,448.5,236.0,452.0,237.5,454.0,236.5,458.0,230.5,464.5,230.0,466.0,229.0,473.0,229.5,474.0,227.5,478.0,223.5,482.5,214.0,488.5,208.0,490.0,213.5,492.5" stroke="black" stroke-width="1" fill="none" />
<polyline points="200.0,495.5,196.0,498.5,199.5,495.5,203.0,495.5,207.0,494.0,211.0,492.5,216.5,488.5,217.0,488.0,224.0,484.0,225.5,479.5,234.0,474.5,226.5,473.5" stroke="black" stroke-width="1" fill="none" />
<polyline points="199.5,450.0,199.5,444.0,202.5,446.0,196.5,449.0" stroke="black" stroke-width="1" fill="none" />
<polyline points="198.0,450.5,193.5,446.5,191.5,447.5,184.5,448.0,182.5,446.5,178.5,450.0,181.5,448.5,181.5,448.5,184.0,442.0,182.5,435.5,181.5,435.5,181.5,431.5,180.0,427.0,181.5,426.0,180.5,423.0,176.5,418.5,175.0,414.0,176.0,410.0,174.0,405.5,171.5,401.5,168.5,397.5,165.5,393.5,160.5,389.0,161.0,387.0,160.0,381.0,165.0,379.5,162.0,381.0,160.0,379.5" stroke="black" stroke-width="1" fill="none" />
<polyline points="160.5,376.5,162.0,368.5,170.0,366.0,169.0,359.5,175.5,356.5,179.5,350.0,184.5,342.5,187.0,341.5,192.0,334.5,194.5,329.5,198.0,322.5" stroke="black" stroke-width="1" fill="none" />
<polyline points="201.5,317.0" stroke="black" stroke-width="1" fill="none" />
<polyline points="190.5,319.0,197.0,306.5,200.0,299.0,202.0,293.0,208.0,285.0,213.0,277.0,218.0,269.0,219.0,264.5,223.5,259.0,226.5,254.5,231.0,246.5,235.0,241.0,240.0,235.0,242.5,228.5,247.5,226.0,252.0,222.5,256.0,217.5" stroke="black" stroke-width="1" fill="none" />
<polyline points="265.5,221.5,267.5,226.0" stroke="green" stroke-width="1" fill="none" />
<polyline points="265.0,234.0,265.0,238.0,266.5,240.0" stroke="yellow" stroke-width="1" fill="none" />
<polyline points="263.0,239.5,263.0,234.0,262.5,229.0,261.5,226.5,262.0,224.5,258.0,223.5,252.5,229.0,248.5,233.5,245.5,237.0,240.5,243.0,238.0,247.0,231.5,255.0,227.5,256.0,224.5,265.0,220.5,271.5,216.5,279.0,214.5,283.0,216.0,279.0,217.0,272.0,221.0,270.5,223.0,267.0,226.0,263.0,228.0,259.5,232.0,254.5,236.5,252.5,236.0,248.5,240.5,243.5,242.0,238.0,244.0,233.5,250.5,232.0,255.5,227.0,259.5,223.0,262.0,219.0,264.0,217.5,262.5,216.5,266.5,210.5,264.0,209.5,269.5,203.0,267.0,200.0,270.0,195.5,270.5,191.5,269.5,187.0,265.0,192.0,263.0,195.0,254.5,200.0,250.5,204.0" stroke="black" stroke-width="1" fill="none" />
<polyline points="251.5,202.5,255.5,198.5" stroke="black" stroke-width="1" fill="none" />
<polyline points="259.0,204.0,257.5,212.5,257.0,214.0,250.5,222.0,246.0,223.5,241.0,230.5,236.5,233.5,234.0,238.0,233.0,236.0,232.5,234.5,229.5,233.0,231.0,226.5,230.5,222.0,229.0,218.0,227.5,214.0,224.0,217.5,218.5,216.0,225.5,206.5,224.0,205.5" stroke="black" stroke-width="1" fill="none" />
<polyline points="231.5,202.0,239.0,203.0,232.5,207.5,234.5,209.5" stroke="black" stroke-width="1" fill="none" />
<polyline points="237.0,206.5" stroke="black" stroke-width="1" fill="none" />
<polyline points="238.0,195.5,243.5,192.0,243.0,192.5" stroke="black" stroke-width="1" fill="none" />
<polyline points="243.0,200.0,247.0,194.5,250.5,192.0,255.0,189.5,249.5,190.0,246.5,193.0,244.0,195.5,247.5,188.0,251.5,189.0,255.0,184.5,254.0,188.0,260.5,185.5,266.5,180.0,270.5,182.0" stroke="green" stroke-width="1" fill="none" />
<polyline points="268.0,181.0,264.0,185.0,258.5,189.0,255.0,191.5,255.5,194.5,250.5,199.5,247.5,203.5,247.0,204.0,253.0,206.0,252.5,199.0,256.0,197.5,257.0,195.5,263.5,189.5,267.5,186.5" stroke="black" stroke-width="1" fill="none" />
<polyline points="263.0,192.0,256.5,196.5,256.5,202.5,259.5,197.5,263.5,196.0,266.5,190.0" stroke="black" stroke-width="1" fill="none" />
<polyline points="267.5,190.0,261.0,194.5,257.5,198.0,253.0,201.5,253.5,203.5,254.5,210.0,251.5,216.0,253.5,217.0" stroke="black" stroke-width="1" fill="none" />
<polyline points="261.0,210.0,265.0,202.0,262.5,202.0,260.5,206.0,258.5,209.5,259.0,211.0,255.5,218.0,251.5,220.0,252.0,226.0,245.5,228.5,242.0,232.5,241.0,238.5,237.0,240.0,235.0,239.5" stroke="black" stroke-width="1" fill="none" />
<polyline points="229.5,223.0" stroke="black" stroke-width="1" fill="none" />
<polyline points="232.5,222.5" stroke="black" stroke-width="1" fill="none" />
<polyline points="229.0,213.5,224.0,220.0,228.0,228.5" stroke="black" stroke-width="1" fill="none" />
<polyline points="219.5,235.0,221.0,236.5" stroke="yellow" stroke-width="1" fill="none" />
<polyline points="223.5,230.5,222.5,236.0,225.0,239.0,221.0,244.0,221.0,250.5" stroke="orange" stroke-width="1" fill="none" />
<polyline points="221.0,251.0,228.0,246.5,228.5,245.5,225.0,238.5,228.0,234.5,226.0,237.5,224.0,231.5,224.5,229.5,220.5,226.0,223.0,226.0,224.0,220.0,220.0,213.5" stroke="black" stroke-width="1" fill="none" />
<polyline points="218.5,218.0,217.0,220.5,216.0,222.5,216.0,227.0,219.5,231.0,225.0,229.0,230.0,234.0,230.0,234.5" stroke="black" stroke-width="1" fill="none" />
<polyline points="227.0,250.0,223.0,256.5,218.5,262.0,214.5,268.5,208.0,273.0,205.5,282.5,202.0,288.0,198.0,295.0,196.0,302.5,190.5,312.5,184.5,314.0,182.5,324.5,176.5,330.5,172.5,327.5,170.0,329.5,166.0,332.0,162.0,339.0,156.0,340.0,152.5,343.0,150.0,350.5,146.0,348.0" stroke="black" stroke-width="1" fill="none" />
<polyline points="144.5,343.5,146.0,340.0,145.5,338.5,149.5,336.0,151.0,332.0,149.0,327.0,149.0,326.0" stroke="orange" stroke-width="1" fill="none" />
<polyline points="151.0,328.0,154.0,332.0" stroke="black" stroke-width="1" fill="none" />
<polyline points="149.0,340.0,145.5,342.0,147.5,348.0,146.0,352.5" stroke="orange" stroke-width="1" fill="none" />
<polyline points="142.0,346.0,139.5,349.0,137.5,346.0,135.5,344.5,135.5,338.5,135.0,334.5,134.5,330.5,133.0,326.5,131.5,323.0,131.0,319.0,130.5,315.0,129.5,313.0,126.0,303.5,132.5,299.0" stroke="black" stroke-width="1" fill="none" />
<polyline points="133.5,301.5,133.5,297.5" stroke="black" stroke-width="1" fill="none" />
<polyline points="136.0,294.5,134.0,296.0,130.0,298.5" stroke="black" stroke-width="1" fill="none" />
<polyline points="126.0,298.5,129.5,295.5,133.5,293.5" stroke="black" stroke-width="1" fill="none" />
<polyline points="130.0,281.0,133.5,280.0,137.5,278.5,139.0,275.5" stroke="orange" stroke-width="1" fill="none" />
<polyline points="143.5,277.0,147.0,269.5,153.0,267.0" stroke="yellow" stroke-width="1" fill="none" />
<polyline points="152.0,266.5,155.5,272.0,154.5,274.5" stroke="black" stroke-width="1" fill="none" />
<polyline points="151.0,272.0,152.0,273.5,158.5,271.0,163.0,278.0" stroke="black" stroke-width="1" fill="none" />
<polyline points="167.5,277.0,170.0,275.5,171.0,272.5,169.0,267.5,168.5,266.0,170.0,259.5,171.0,255.0,173.5,253.0,172.0,256.0" stroke="black" stroke-width="1" fill="none" />
<polyline points="169.5,257.5,168.5,256.0,170.5,253.0,176.0,245.5" stroke="black" stroke-width="1" fill="none" />
<polyline points="171.0,255.0,174.5,257.0,174.5,261.0,175.0,264.5" stroke="black" stroke-width="1" fill="none" />
<polyline points="179.5,261.5,174.0,255.5" stroke="black" stroke-width="1" fill="none" />
<polyline points="182.5,263.0" stroke="black" stroke-width="1" fill="none" />
<polyline points="179.0,259.0,176.5,258.5" stroke="black" stroke-width="1" fill="none" />
<polyline points="178.5,260.5,178.0,262.0" stroke="black" stroke-width="1" fill="none" />
<polyline points="184.5,256.0,185.0,258.0,185.0,262.0,187.0,266.5,187.5,271.0,187.0,271.0" stroke="yellow" stroke-width="1" fill="none" />
<polyline points="198.0,257.5,204.0,261.5" stroke="black" stroke-width="1" fill="none" />
<polyline points="212.0,254.5,213.0,255.0,215.0,248.5,211.0,246.0,207.0,244.5,207.5,240.5,211.0,236.0,210.0,233.0,210.5,235.0" stroke="yellow" stroke-width="1" fill="none" />
<polyline points="210.5,236.0,209.5,240.0,209.0,243.5,207.5,247.0" stroke="black" stroke-width="1" fill="none" />
<polyline points="205.5,250.0,207.5,251.0" stroke="black" stroke-width="1" fill="none" />
<polyline points="206.5,251.5,210.0,256.5,214.5,260.0" stroke="black" stroke-width="1" fill="none" />
<polyline points="216.0,250.5,215.5,246.5,215.0,242.5,212.0,238.5,211.0,236.0" stroke="black" stroke-width="1" fill="none" />
<polyline points="217.5,233.0,221.5,235.0,216.5,239.5,219.0,242.5,214.0,251.0,214.5,255.5" stroke="black" stroke-width="1" fill="none" />
<polyline points="218.5,256.5,214.0,252.5,214.0,246.0,213.5,249.0" stroke="black" stroke-width="1" fill="none" />
<polyline points="203.5,266.0,200.0,265.0,196.5,260.0,198.5,255.0" stroke="black" stroke-width="1" fill="none" />
<polyline points="190.5,251.5,195.5,252.5,199.5,254.5,198.5,259.5,204.0,263.0" stroke="black" stroke-width="1" fill="none" />
<polyline points="187.5,272.5,186.5,270.0,184.0,266.0,181.0,263.0,184.0,258.0,182.5,254.5,183.5,249.5,185.5,244.5,189.0,244.0,195.0,235.5,196.5,236.5,194.0,239.0,189.5,243.0,184.5,241.5,183.0,241.5" stroke="black" stroke-width="1" fill="none" />
<polyline points="189.0,235.5,188.0,231.0,190.5,226.5,190.5,223.5,193.5,219.0,195.0,220.5,191.5,230.5" stroke="green" stroke-width="1" fill="none" />
<polyline points="186.5,226.0,184.5,225.0,189.0,218.0,188.5,221.0,186.5,225.0,187.5,231.0,187.0,232.5,190.5,236.5" stroke="black" stroke-width="1" fill="none" />
<polyline points="185.0,234.0,185.5,235.5,192.5,244.5" stroke="black" stroke-width="1" fill="none" />
<polyline points="199.0,235.5,195.0,241.5,191.0,244.5,187.0,246.5,192.5,243.0,196.5,238.5,199.5,233.0" stroke="black" stroke-width="1" fill="none" />
<polyline points="210.0,227.0,206.0,222.0" stroke="black" stroke-width="1" fill="none" />
<polyline points="212.5,219.5,209.5,214.5" stroke="black" stroke-width="1" fill="none" />
<polyline points="212.5,216.5,214.0,220.0,215.5,226.5,217.5,229.0,217.0,234.0" stroke="black" stroke-width="1" fill="none" />
<polyline points="219.5,203.5,220.0,205.0,224.0,201.0,226.5,198.0,223.5,200.0,221.5,205.5,219.5,211.5,224.0,216.0,221.5,218.5,225.5,222.0,228.5,226.0,231.0,230.5,228.5,232.5,232.0,237.5,235.5,244.0,232.0,246.0,229.0,249.0,226.0,252.5,224.0,257.0,221.0,259.5,217.0,264.5,214.5,267.0,212.5,272.0,210.5,276.0,208.0,279.5,205.5,283.5,203.0,287.5,203.5,293.5,199.0,296.0,196.0,298.5,196.5,304.0,195.0,309.0,192.0,312.0,187.5,314.5,191.5,319.5,196.0,320.5,199.0,320.0,204.5,314.0,208.5,309.5,214.0,304.0,215.0,298.0,220.5,291.5,226.0,287.0,228.5,279.0,232.5,278.0,237.0,272.5,241.5,268.0,245.5,264.0,249.5,259.5,253.5,256.0,257.5,254.5,263.0,248.0,264.5,247.0,267.5,243.5,276.5,246.5,276.5,246.5,281.5,246.0,285.0,249.0,289.0,251.5,294.5,256.0,300.0,258.0" stroke="black" stroke-width="1" fill="none" />
<polyline points="290.0,258.5,290.0,259.0,282.0,259.0" stroke="black" stroke-width="1" fill="none" />
<polyline points="289.0,262.0,291.0,271.0" stroke="black" stroke-width="1" fill="none" />
<polyline points="291.0,274.0,287.0,268.0" stroke="black" stroke-width="1" fill="none" />
<polyline points="287.0,267.5,289.5,270.5" stroke="black" stroke-width="1" fill="none" />
<polyline points="284.0,277.0,280.5,276.5" stroke="black" stroke-width="1" fill="none" />
<polyline points="287.0,269.5,281.0,266.5,278.5,267.0,271.5,265.0" stroke="green" stroke-width="1" fill="none" />
<polyline points="268.0,271.0,268.0,274.0" stroke="black" stroke-width="1" fill="none" />
<polyline points="269.0,264.5,269.0,271.0,262.5,267.5" stroke="black" stroke-width="1" fill="none" />
<polyline points="260.0,268.0,265.5,274.5,268.0,275.0,273.5,270.0,276.5,270.5,271.0,272.0,271.0,277.0,273.5,281.0,276.5,280.5,274.5,281.5" stroke="black" stroke-width="1" fill="none" />
<polyline points="263.0,280.5,263.5,274.0,258.5,274.0,261.0,268.5,258.0,264.5,259.0,267.5" stroke="black" stroke-width="1" fill="none" />
<polyline points="264.0,268.0,267.5,274.5,268.0,282.0" stroke="orange" stroke-width="1" fill="none" />
<polyline points="259.5,273.0,256.5,274.0,255.0,269.5,249.0,268.5" stroke="orange" stroke-width="1" fill="none" />
<polyline points="248.0,268.0,252.0,264.5,250.0,270.5,255.5,275.0,255.0,276.0,263.0,275.0,267.5,278.5,268.5,279.0,273.5,280.5,278.5,281.5,281.5,273.0,280.0,276.0,278.5,282.0" stroke="black" stroke-width="1" fill="none" />
<polyline points="291.5,271.0,292.5,266.0,287.5,262.5,282.0,258.5,282.5,253.5,281.5,250.0" stroke="black" stroke-width="1" fill="none" />
<polyline points="277.5,257.0,277.0,253.0,271.5,250.5,269.5,252.5,262.5,253.5" stroke="orange" stroke-width="1" fill="none" />
<polyline points="268.0,258.0,271.5,254.0" stroke="black" stroke-width="1" fill="none" />
<polyline points="280.0,255.5,276.5,258.0,273.0,255.0,269.0,255.0,266.0,258.0,261.5,257.0,259.0,259.0,255.0,260.0" stroke="black" stroke-width="1" fill="none" />
<polyline points="265.0,268.5,263.5,269.5,264.5,271.0,268.5,272.5" stroke="black" stroke-width="1" fill="none" />
<polyline points="280.5,265.5,284.0,269.0,286.5,275.5,289.5,278.0,286.0,278.5,290.5,276.5" stroke="black" stroke-width="1" fill="none" />
<polyline points="296.5,255.5,288.0,250.0,289.5,254.0" stroke="orange" stroke-width="1" fill="none" />
<polyline points="273.5,243.5,262.5,245.0,259.5,247.0,257.5,253.0,246.5,255.5,244.5,263.0,241.0,264.0,238.5,269.5,237.0,274.0,233.0,278.0,229.5,282.0,224.5,282.0,217.0,288.5,216.0,294.5,215.5,298.5,211.0,302.5,210.0,305.5,202.5,308.5,203.5,312.5,201.0,315.0,200.0,321.0,193.5,322.0,188.5,328.5,191.5,333.0,182.5,337.0,182.0,338.0,183.0,345.0,173.5,347.5,177.5,353.0,175.0,357.5,170.5,361.5,166.0,362.0,164.5,369.5,157.0,374.0,159.0,378.0,152.5,382.0,161.0,390.5,165.5,393.5,165.5,398.0,168.0,400.5" stroke="orange" stroke-width="1" fill="none" />
<polyline points="174.0,403.5,168.5,401.5,164.0,401.0,158.0,395.0,153.5,391.0,155.5,391.0" stroke="black" stroke-width="1" fill="none" />
<polyline points="156.0,386.5,157.0,388.0,150.5,383.0,152.0,380.5" stroke="black" stroke-width="1" fill="none" />
<polyline points="144.5,387.0,141.0,379.0,136.5,375.5,138.0,374.5" stroke="black" stroke-width="1" fill="none" />
<polyline points="142.0,370.0,140.5,377.5,143.0,380.0,147.0,382.5,149.0,386.0" stroke="black" stroke-width="1" fill="none" />
<polyline points="143.0,391.0,141.5,395.0,138.5,399.0,137.0,403.5,132.5,407.5,129.0,411.5,129.0,415.0,132.5,419.0,137.0,420.5,138.0,423.0,137.5,432.5,141.0,433.0,138.0,439.5,139.0,443.5,137.0,448.0,138.5,452.5,137.0,455.5,134.5,458.5,133.5,463.0,138.5,467.5,138.5,468.0,142.5,469.0,145.5,474.0,149.0,477.5,152.0,480.0,155.5,482.5,160.0,483.5,164.0,486.5,167.0,490.0" stroke="yellow" stroke-width="1" fill="none" />
<polyline points="171.5,466.5" stroke="black" stroke-width="1" fill="none" />
<polyline points="177.0,468.5,178.5,461.5,181.5,455.5,175.0,461.0,173.5,456.5,168.0,452.5,168.5,448.0,167.0,445.5,166.0,442.0,166.5,437.0,166.5,432.5,167.5,432.5" stroke="black" stroke-width="1" fill="none" />
<polyline points="161.0,432.5,160.5,434.0,162.0,432.0" stroke="yellow" stroke-width="1" fill="none" />
<polyline points="161.0,423.0,159.0,428.0,159.5,422.0,160.5,417.5,160.5,426.0,164.5,421.5,160.0,417.0,160.0,413.5,162.5,407.5,160.5,406.0,161.0,402.0,161.5,397.5,158.0,394.0,156.5,388.0,155.5,384.5,154.5,379.5,153.0,376.0,152.0,371.5,153.0,368.5,149.0,362.5" stroke="yellow" stroke-width="1" fill="none" />
<polyline points="147.5,361.0,150.5,365.0,144.5,369.5,150.5,370.5,147.0,377.5,152.0,379.0,151.5,383.5,146.0,388.5,151.5,393.0,151.5,394.5,162.5,396.5,163.5,402.5,172.5,402.5,168.5,414.0,173.5,412.5" stroke="black" stroke-width="1" fill="none" />
<polyline points="173.5,421.0,174.0,422.0,175.0,423.5,175.0,431.5,176.0,433.5,174.5,436.5,169.5,441.5,173.0,438.5,172.0,446.5,173.5,449.5,174.0,453.5,179.5,457.5,176.5,461.5,175.0,465.5,171.5,462.0,174.5,468.0" stroke="black" stroke-width="1" fill="none" />
<polyline points="179.0,461.0,174.5,460.5,170.0,451.0,166.0,444.0" stroke="black" stroke-width="1" fill="none" />
<polyline points="162.5,442.0,162.5,448.0,166.5,453.0,168.0,459.0,171.5,459.5,170.0,465.5,167.5,468.5,164.5,473.0,163.5,474.5,163.0,479.5,160.5,480.5,160.5,483.5,159.5,487.5,160.5,492.0,165.0,496.5,164.5,501.0,167.0,506.0,173.0,510.5,172.0,512.0,171.0,512.0,172.5,512.5" stroke="black" stroke-width="1" fill="none" />
<polyline points="154.5,464.0,149.0,460.0" stroke="orange" stroke-width="1" fill="none" />
<polyline points="148.5,458.5,153.0,463.0,156.5,465.5,159.0,463.0" stroke="green" stroke-width="1" fill="none" />
<polyline points="159.0,461.0,155.5,458.5" stroke="black" stroke-width="1" fill="none" />
<polyline points="159.0,462.0,152.5,457.5,153.0,455.5,152.5,453.5,151.0,447.5,149.0,444.0,146.5,440.0,144.5,435.5,147.5,428.5,142.5,427.0,141.5,423.0,139.5,423.5,134.0,418.5" stroke="black" stroke-width="1" fill="none" />
<polyline points="133.5,407.5,140.0,402.0,144.0,398.0" stroke="orange" stroke-width="1" fill="none" />
<polyline points="145.0,398.0,142.0,399.5,142.0,401.5" stroke="black" stroke-width="1" fill="none" />
<polyline points="141.0,400.5,142.0,404.5,144.5,408.0,148.5,410.5,150.0,417.0" stroke="black" stroke-width="1" fill="none" />
<polyline points="154.0,420.5,156.0,421.0,154.5,425.0,159.0,431.5,157.0,432.5,159.0,435.0,156.0,439.0,157.0,441.5" stroke="green" stroke-width="1" fill="none" />
<polyline points="158.5,445.0,161.0,445.5,165.0,441.5,168.5,445.5,170.5,444.5,176.5,440.5,182.0,439.5,183.5,433.0" stroke="black" stroke-width="1" fill="none" />
<polyline points="178.5,426.0,177.5,419.5,175.0,417.5,175.5,414.5,172.5,414.0,169.5,410.0,166.0,406.0,163.0,402.5,163.0,400.0,165.0,402.0" stroke="green" stroke-width="1" fill="none" />
<polyline points="168.0,403.0,169.0,407.0,173.5,412.5,169.5,415.5,166.5,421.5,166.5,427.5,162.5,428.0,162.5,431.0,164.0,433.5,160.0,437.0,163.0,429.5,165.5,426.0,170.0,425.0" stroke="black" stroke-width="1" fill="none" />
<polyline points="169.5,426.0,168.0,430.0,171.0,433.0,168.0,437.0,170.5,436.0,176.0,439.0,176.0,438.5" stroke="green" stroke-width="1" fill="none" />
<polyline points="163.5,441.5,162.0,442.0,162.5,444.0,157.5,451.5,160.0,452.0,161.0,457.0,163.5,461.5,162.5,460.5" stroke="black" stroke-width="1" fill="none" />
<polyline points="161.0,457.5,159.5,459.0,162.0,453.5,163.5,449.5,160.0,452.0,160.0,448.5" stroke="orange" stroke-width="1" fill="none" />
<polyline points="149.0,455.0,151.0,456.0,147.0,451.0" stroke="black" stroke-width="1" fill="none" />
<polyline points="145.5,449.0,149.0,453.0,154.5,451.5,152.0,456.0,153.0,455.5,159.0,457.0,162.5,454.5,161.0,454.5" stroke="black" stroke-width="1" fill="none" />
<polyline points="153.5,450.5,150.0,452.0,150.0,449.0,142.0,448.0,141.5,447.5" stroke="black" stroke-width="1" fill="none" />
<polyline points="143.5,448.0,147.0,453.0,149.5,457.0,150.5,461.5,150.5,464.0,150.5,468.5,154.0,472.0,156.5,473.0,156.0,478.5,162.5,478.0,164.0,478.0,168.5,478.0" stroke="green" stroke-width="1" fill="none" />
<polyline points="149.5,478.0,156.0,474.0,149.0,474.0,143.0,469.0" stroke="black" stroke-width="1" fill="none" />
<polyline points="151.0,467.5,151.5,471.5,156.0,478.0" stroke="black" stroke-width="1" fill="none" />
<polyline points="152.5,471.0,145.5,467.5,142.0,465.0,140.0,463.5" stroke="black" stroke-width="1" fill="none" />
<polyline points="140.5,452.0,141.5,456.0,143.5,461.0,143.5,465.5,146.0,469.5,147.5,472.5,153.5,479.5,158.5,478.0" stroke="black" stroke-width="1" fill="none" />
<polyline points="165.5,469.5,166.0,479.0,159.5,475.5,158.5,477.0,158.0,473.5,157.0,468.0,154.0,467.0,150.0,462.5" stroke="black" stroke-width="1" fill="none" />
<polyline points="140.5,451.5,143.5,457.0,143.0,461.5,144.5,464.5,145.5,464.5,148.5,470.5,154.5,474.5,155.0,477.5,158.0,478.0,158.5,483.0,157.0,484.0,161.5,491.0,163.0,494.5,163.5,498.5,165.5,502.5,164.5,505.5,165.5,508.0" stroke="black" stroke-width="1" fill="none" />
<polyline points="171.5,460.5,165.0,455.5,162.5,454.5,164.5,451.0,159.0,450.5,156.0,448.0,156.0,449.5,157.0,445.5,154.5,441.5,154.5,438.0,150.5,437.0,148.0,433.0,144.5,428.5,150.0,427.5,144.5,422.5" stroke="black" stroke-width="1" fill="none" />
<polyline points="139.5,424.0" stroke="black" stroke-width="1" fill="none" />
<polyline points="140.0,423.0,142.5,428.5,150.0,440.0" stroke="black" stroke-width="1" fill="none" />
<polyline points="150.0,423.5,145.5,415.5,141.5,413.0,137.5,409.5" stroke="black" stroke-width="1" fill="none" />
<polyline points="138.0,410.0,141.5,414.0,145.0,418.0,148.0,420.0,150.5,425.0,150.0,430.0" stroke="black" stroke-width="1" fill="none" />
<polyline points="152.0,420.0,152.0,417.0,152.0,413.5,150.0,406.5,149.0,402.5,146.0,399.0,148.5,394.5" stroke="black" stroke-width="1" fill="none" />
<polyline points="149.5,394.5" stroke="black" stroke-width="1" fill="none" />
<polyline points="151.0,395.5,153.0,394.5,156.0,397.5" stroke="yellow" stroke-width="1" fill="none" />
<polyline points="146.5,401.5,144.5,397.0,141.0,395.5,138.5,403.0,130.0,399.0,126.5,399.5,122.5,398.5,118.5,394.0" stroke="black" stroke-width="1" fill="none" />
<polyline points="120.5,389.0,124.5,392.5,125.5,397.0" stroke="green" stroke-width="1" fill="none" />
<polyline points="130.5,407.0,133.5,404.0,137.5,396.0,139.0,394.5,142.5,390.0,142.0,385.5,142.5,385.5,142.0,381.5,146.5,375.0,148.0,371.0,149.0,367.0,148.0,362.0,146.5,359.5,146.0,355.5,142.5,355.0,143.0,350.0,139.5,345.5,139.5,339.5,138.0,337.5,136.0,330.5,137.0,328.5,136.5,324.0,137.0,322.5,134.5,316.0,133.5,312.0,134.0,308.5,130.5,304.5,126.5,298.0,132.5,293.0,134.5,289.0,137.5,285.0,130.0,283.5,127.5,280.5" stroke="black" stroke-width="1" fill="none" />
<polyline points="130.0,273.0,125.0,276.0,129.5,281.5,128.0,285.5,127.0,288.0,127.0,294.0,124.0,296.5,124.0,303.0,123.0,305.5,123.0,308.5,122.0,312.0,120.0,317.5,123.5,320.0,122.5,325.5,123.0,328.5,123.0,332.5,123.5,338.0" stroke="black" stroke-width="1" fill="none" />
<polyline points="120.0,338.5,121.5,338.0,122.5,345.5,119.0,343.0" stroke="black" stroke-width="1" fill="none" />
<polyline points="118.5,345.5,119.0,349.5,120.5,357.0,119.5,363.5,119.0,364.5,119.0,365.5,117.5,372.5,117.5,376.5,117.0,381.0,117.0,385.5,120.0,388.5,115.0,396.0,117.5,395.5,122.5,403.0,124.5,404.0,124.5,406.5" stroke="yellow" stroke-width="1" fill="none" />
<polyline points="128.0,403.5,120.0,397.0,116.5,392.0,120.0,391.0,121.5,388.0,118.5,381.5,120.5,381.0,118.0,376.5,120.5,372.0,121.0,369.5,116.0,370.5" stroke="black" stroke-width="1" fill="none" />
<polyline points="117.5,370.0,123.0,373.5,123.0,379.0,129.5,381.5" stroke="black" stroke-width="1" fill="none" />
<polyline points="125.0,384.5,128.5,390.0,122.0,390.0,128.0,396.0" stroke="black" stroke-width="1" fill="none" />
<polyline points="127.0,393.0,132.0,396.5,136.5,392.5" stroke="black" stroke-width="1" fill="none" />
<polyline points="126.5,388.5,121.0,389.0" stroke="green" stroke-width="1" fill="none" />
<polyline points="116.0,400.0,112.5,404.0,115.0,407.5" stroke="black" stroke-width="1" fill="none" />
<polyline points="112.5,413.5,116.5,413.5,120.0,412.5,125.5,406.5,129.0,407.0,127.5,411.0,126.0,415.0,129.0,418.0,131.5,423.0,129.0,424.0" stroke="black" stroke-width="1" fill="none" />
<polyline points="134.0,427.0,131.0,422.5,129.0,421.5" stroke="black" stroke-width="1" fill="none" />
<polyline points="125.5,413.0,130.0,406.0,133.0,403.5" stroke="black" stroke-width="1" fill="none" />
<polyline points="140.5,404.5,145.0,410.0,148.0,412.5,143.5,408.5" stroke="orange" stroke-width="1" fill="none" />
<polyline points="146.5,406.0,139.5,403.0" stroke="black" stroke-width="1" fill="none" />
<polyline points="146.0,405.5" stroke="black" stroke-width="1" fill="none" />
<polyline points="151.0,405.5,145.0,397.5" stroke="green" stroke-width="1" fill="none" />
<polyline points="167.0,396.5,167.5,400.0,170.0,400.5,174.0,406.0,175.0,409.0,177.0,413.5,178.0,417.5,181.0,421.5,179.0,425.0" stroke="black" stroke-width="1" fill="none" />
<polyline points="175.0,421.0,172.0,414.5,165.0,414.5,159.0,408.0,152.5,403.5,152.0,404.0,148.0,395.5,150.5,388.5,143.5,385.0,140.0,392.0,137.0,388.0,136.5,384.5,139.0,380.5,136.5,378.5,136.0,373.0,134.5,371.5,135.5,367.0,142.0,363.5,142.0,358.5,142.5,356.0,142.0,353.0,139.0,351.5,133.5,346.5,132.0,340.0,132.5,338.0,130.5,334.0,132.0,330.0,128.0,328.5,128.0,318.0,125.0,320.0" stroke="black" stroke-width="1" fill="none" />
<polyline points="120.5,321.0,120.0,327.0,120.0,331.5,120.5,337.5,122.5,337.5,127.0,342.0" stroke="orange" stroke-width="1" fill="none" />
<polyline points="118.0,338.0,118.0,342.0,118.0,345.0,118.0,348.5,120.5,355.0,120.5,356.5,125.5,361.0,124.5,365.0,125.5,369.0,127.0,373.5,133.0,377.5,131.0,382.5,132.0,383.5,137.0,385.5,138.0,389.5,135.0,389.0" stroke="green" stroke-width="1" fill="none" />
<polyline points="143.0,369.0,140.0,366.0" stroke="black" stroke-width="1" fill="none" />
<polyline points="142.0,365.5,144.5,365.0" stroke="black" stroke-width="1" fill="none" />
<polyline points="135.0,360.5,133.5,357.0" stroke="black" stroke-width="1" fill="none" />
<polyline points="132.0,358.0" stroke="black" stroke-width="1" fill="none" />
<polyline points="132.5,349.5,132.0,352.5,134.5,356.5,136.0,362.5,138.5,368.5" stroke="yellow" stroke-width="1" fill="none" />
<polyline points="148.5,365.5,142.0,359.5,143.0,357.5,140.0,357.0,141.5,350.0,136.0,344.5,135.0,339.0,132.5,333.5,135.0,331.0,124.5,336.0,124.5,332.5" stroke="black" stroke-width="1" fill="none" />
<polyline points="135.5,339.0,138.0,344.5" stroke="black" stroke-width="1" fill="none" />
<polyline points="142.5,335.5,141.0,341.0,140.0,337.0,139.5,330.5" stroke="black" stroke-width="1" fill="none" />
<polyline points="126.5,343.5,133.0,348.0,137.0,352.0,137.0,354.0" stroke="black" stroke-width="1" fill="none" />
<polyline points="135.0,352.5,129.5,347.0,127.0,342.5" stroke="black" stroke-width="1" fill="none" />
<polyline points="114.0,353.0,110.5,355.5,116.5,354.5,115.0,362.5,115.0,369.0,115.5,366.5,108.5,377.5,114.0,381.0,109.0,382.0,109.0,386.0,115.0,387.0,115.0,391.0,110.0,402.0,118.0,399.5,121.0,403.5,120.0,408.0,110.0,415.5,104.5,417.5,111.5,419.5,117.5,410.5,121.5,406.0" stroke="black" stroke-width="1" fill="none" />
<polyline points="121.5,411.0" stroke="yellow" stroke-width="1" fill="none" />
<polyline points="121.0,415.0,125.0,422.5,129.0,425.5" stroke="orange" stroke-width="1" fill="none" />
<polyline points="128.5,430.0,124.0,426.5,122.0,419.5" stroke="black" stroke-width="1" fill="none" />
<polyline points="120.5,417.5,126.0,424.5,126.5,426.0,129.0,428.0" stroke="green" stroke-width="1" fill="none" />
<polyline points="119.0,432.0,119.5,435.5,119.0,439.0,117.5,443.0,117.5,444.5" stroke="black" stroke-width="1" fill="none" />
<polyline points="121.0,440.0" stroke="black" stroke-width="1" fill="none" />
<polyline points="121.0,452.0,125.5,455.5,125.5,453.5" stroke="black" stroke-width="1" fill="none" />
<polyline points="124.5,454.0,124.0,450.5,122.0,452.0,120.0,449.5" stroke="black" stroke-width="1" fill="none" />
<polyline points="110.5,442.0,106.0,442.0" stroke="black" stroke-width="1" fill="none" />
<polyline points="105.5,443.5,105.0,447.5" stroke="black" stroke-width="1" fill="none" />
<polyline points="98.0,450.0,90.5,454.5,87.5,457.5,86.5,457.0,89.0,454.0" stroke="green" stroke-width="1" fill="none" />
<polyline points="92.5,458.0,88.0,459.5,86.0,461.0,90.5,457.5,94.5,455.5" stroke="black" stroke-width="1" fill="none" />
<polyline points="93.5,466.5,94.5,469.0,91.5,472.5,95.5,468.5" stroke="black" stroke-width="1" fill="none" />
<polyline points="97.5,491.5,98.5,495.5,101.0,501.0,100.5,502.5,102.5,506.5,105.0,511.5" stroke="orange" stroke-width="1" fill="none" />
<polyline points="109.0,506.0,116.5,500.5,118.0,497.0,113.0,492.5,113.5,488.5,114.0,486.5" stroke="black" stroke-width="1" fill="none" />
<polyline points="115.0,489.0,115.0,493.0,112.5,498.0,113.0,501.0,112.5,505.0,111.5,509.0" stroke="yellow" stroke-width="1" fill="none" />
<polyline points="101.5,501.5" stroke="black" stroke-width="1" fill="none" />
<polyline points="100.5,496.5,100.0,501.5,105.5,503.0,105.0,508.0,108.0,513.5" stroke="black" stroke-width="1" fill="none" />
<polyline points="120.5,511.5,120.0,507.5,118.0,502.0,120.5,499.5,119.0,495.5,118.5,491.0,119.0,487.5,120.0,483.5" stroke="green" stroke-width="1" fill="none" />
<polyline points="123.5,483.0,124.5,487.0,128.0,489.5,128.5,495.0,129.5,499.0,130.5,503.0,132.0,507.0,134.5,511.0,135.0,513.5" stroke="black" stroke-width="1" fill="none" />
<polyline points="150.5,448.0,148.5,443.0,146.0,437.0,139.5,428.0,135.0,421.5,131.5,420.5,136.0,422.5" stroke="black" stroke-width="1" fill="none" />
<polyline points="131.5,420.5,134.5,424.0,135.0,428.0,137.0,432.0,138.0,436.0,142.0,439.0,142.5,442.5,140.5,449.0,137.0,454.5,136.5,457.5,136.0,460.0,131.5,463.5,133.0,455.0" stroke="black" stroke-width="1" fill="none" />
<polyline points="139.5,435.0,138.0,431.0,136.0,430.5" stroke="black" stroke-width="1" fill="none" />
<polyline points="128.5,429.0,124.5,425.5,122.0,421.5,123.0,418.0,121.0,415.5" stroke="black" stroke-width="1" fill="none" />
<polyline points="111.5,421.0,112.0,422.5,113.0,426.5,114.0,430.5,115.5,432.5" stroke="black" stroke-width="1" fill="none" />
<polyline points="115.0,426.0" stroke="black" stroke-width="1" fill="none" />
<polyline points="108.5,417.5,109.5,421.5,106.5,427.5,110.0,427.0,110.5,434.5,107.0,435.0,106.0,441.0,107.0,448.0,105.5,446.0" stroke="black" stroke-width="1" fill="none" />
<polyline points="101.5,436.0,100.0,440.0,96.5,444.5,94.5,443.5,94.0,447.5,94.5,443.5,99.0,439.5,103.0,435.5,106.5,429.5,103.0,426.5,107.5,425.0,106.5,416.5,107.0,416.5,103.0,416.5,107.0,415.5" stroke="black" stroke-width="1" fill="none" />
<polyline points="94.5,419.0,92.0,420.0,86.5,424.5,87.5,422.5" stroke="black" stroke-width="1" fill="none" />
<polyline points="88.5,424.0,88.0,424.5,87.0,423.0,91.0,420.0" stroke="black" stroke-width="1" fill="none" />
<polyline points="96.5,404.0" stroke="black" stroke-width="1" fill="none" />
<polyline points="97.0,400.0,93.0,397.5" stroke="black" stroke-width="1" fill="none" />
<polyline points="89.5,395.5" stroke="green" stroke-width="1" fill="none" />
<polyline points="101.0,408.0,98.5,408.5,99.0,409.0,96.0,403.5,93.5,404.0,91.0,400.5,91.0,395.5,90.0,389.0,91.0,386.5,90.5,382.5,86.0,383.5" stroke="black" stroke-width="1" fill="none" />
<polyline points="83.5,384.0,79.5,389.5,79.0,393.5,76.5,397.0,73.5,400.5,72.5,404.5,71.5,409.5,73.5,414.5,68.5,417.5,66.5,418.0,70.0,422.5,67.0,425.5,69.0,425.5,68.0,430.5,71.5,432.0,70.0,434.0,68.5,438.5,71.0,440.0,68.5,447.0,70.5,451.0,69.5,456.5,70.5,459.0,70.5,463.0,69.5,467.0,65.0,470.5,69.0,477.5,65.0,479.0,64.5,483.5,66.0,489.5,65.0,492.0,65.0,496.0,65.5,500.0,62.0,503.5,62.5,508.0,61.5,512.0,63.0,511.5,68.0,507.0" stroke="black" stroke-width="1" fill="none" />
<polyline points="60.5,505.0,66.0,509.5,66.5,514.5" stroke="black" stroke-width="1" fill="none" />
<polyline points="69.5,496.5,72.0,493.0,73.0,489.0,73.0,485.0,73.5,481.0,70.5,476.0" stroke="black" stroke-width="1" fill="none" />
<polyline points="65.0,474.5,67.5,477.0,65.0,478.5,66.5,487.5,66.5,488.5,67.0,490.0,70.5,495.5" stroke="black" stroke-width="1" fill="none" />
<polyline points="71.0,466.0,72.5,465.5,72.5,461.5,72.5,457.0,73.0,455.0" stroke="black" stroke-width="1" fill="none" />
<polyline points="73.0,456.5,73.0,460.5,73.0,464.5,73.5,469.5,75.0,473.0" stroke="black" stroke-width="1" fill="none" />
<polyline points="66.5,454.5,66.5,450.5,66.5,448.0" stroke="black" stroke-width="1" fill="none" />
<polyline points="65.5,453.0,63.0,458.0,66.0,459.5,67.0,463.0,69.5,467.5,69.5,468.0,70.0,474.5,68.5,478.0,69.5,483.0" stroke="black" stroke-width="1" fill="none" />
<polyline points="32.5,496.0,30.5,502.5,32.0,507.0,31.5,509.5" stroke="black" stroke-width="1" fill="none" />
<polyline points="16.5,508.5,17.0,504.5,19.0,500.5,17.5,501.5" stroke="black" stroke-width="1" fill="none" />
<polyline points="17.0,506.5,16.0,500.0,16.5,498.0,15.5,494.0" stroke="black" stroke-width="1" fill="none" />
<polyline points="11.0,425.5,10.0,423.5,5.5,421.5" stroke="black" stroke-width="1" fill="none" />
<polyline points="6.5,423.5,8.5,427.5,9.5,431.5,10.0,435.0,10.5,439.0,10.5,443.5,13.0,445.5,13.0,447.0,13.0,453.5,13.5,457.5,15.0,461.0,14.0,464.0,15.5,468.0,16.0,472.0,15.0,476.0,14.5,478.0" stroke="black" stroke-width="1" fill="none" />
<polyline points="33.0,462.0,35.5,458.5,33.5,455.0,34.5,451.0,33.5,446.5,32.5,442.0,30.5,440.0,32.0,433.0,34.0,429.0" stroke="green" stroke-width="1" fill="none" />
<polyline points="25.0,418.5,21.0,414.5" stroke="black" stroke-width="1" fill="none" />
<polyline points="24.0,411.5,26.5,416.5,27.5,420.0,27.0,424.0,27.5,428.0,26.5,434.5,26.5,434.0,27.0,440.0,25.5,444.0,30.0,451.0,29.0,455.0,30.5,458.0,28.5,460.0,28.5,464.0,29.0,468.5,29.0,474.0,28.5,476.5,29.0,480.5,32.0,482.0,31.0,491.0,32.0,490.0,31.5,496.5,32.0,500.0,31.0,503.5" stroke="black" stroke-width="1" fill="none" />
<polyline points="69.5,435.0,69.5,432.0,67.5,437.0,70.0,435.5" stroke="black" stroke-width="1" fill="none" />
<polyline points="64.0,426.5,65.5,424.0,66.0,419.5,64.5,416.5,64.5,413.0,66.0,407.0,70.0,405.0,75.5,398.5,74.5,397.5,75.5,399.0" stroke="yellow" stroke-width="1" fill="none" />
<polyline points="72.5,406.0,77.5,405.0" stroke="black" stroke-width="1" fill="none" />
<polyline points="80.0,387.5,78.0,396.0,74.0,402.0,70.0,405.5,65.5,408.5" stroke="black" stroke-width="1" fill="none" />
<polyline points="66.0,413.0,70.0,405.0,70.5,410.0,68.5,414.5,68.0,416.5,68.5,420.0" stroke="black" stroke-width="1" fill="none" />
<polyline points="68.0,415.0,68.0,417.0,75.5,419.0,73.0,423.5,70.5,422.0" stroke="black" stroke-width="1" fill="none" />
<polyline points="103.0,438.0,100.5,439.5,98.5,442.0" stroke="black" stroke-width="1" fill="none" />
<polyline points="110.5,407.5,110.5,403.5,116.5,401.0" stroke="black" stroke-width="1" fill="none" />
<polyline points="106.5,394.5,107.5,398.0,109.5,402.0,109.0,406.0,106.0,410.0,96.5,413.0,103.0,414.5,101.5,417.5" stroke="black" stroke-width="1" fill="none" />
<polyline points="107.0,404.5,105.5,400.5,103.5,396.5,105.5,392.5" stroke="black" stroke-width="1" fill="none" />
<polyline points="105.5,380.0,106.5,376.0,106.0,371.5,106.5,368.0,108.0,364.0,108.5,361.0,110.5,358.0,111.0,352.5,106.0,345.0,106.5,343.5,106.5,338.5,106.5,339.5" stroke="black" stroke-width="1" fill="none" />
<polyline points="102.5,341.5,105.0,336.5,108.5,333.5,112.5,327.0,116.0,319.0" stroke="black" stroke-width="1" fill="none" />
<polyline points="117.0,324.0,118.0,326.0,119.0,329.0" stroke="green" stroke-width="1" fill="none" />
<polyline points="102.5,323.5,111.5,317.0,113.5,315.5,117.5,308.0,118.0,309.5,114.5,314.5,113.5,315.5,109.0,323.5,105.0,319.0,109.5,315.0,110.5,313.0,110.0,317.0,107.0,318.5,104.5,324.0,108.0,318.5,112.0,314.5,114.0,312.0" stroke="black" stroke-width="1" fill="none" />
<polyline points="122.0,311.5,114.5,317.0,114.0,319.0,114.0,320.5,113.5,329.0,110.0,335.5,105.5,333.0,100.0,339.0" stroke="black" stroke-width="1" fill="none" />
<polyline points="97.5,347.5,94.0,354.0" stroke="black" stroke-width="1" fill="none" />
<polyline points="96.0,355.5,95.5,361.0,95.0,365.5,93.0,371.0,93.0,373.0,91.5,379.0,89.0,381.5,90.5,387.5,87.0,387.5,90.5,389.5,85.5,397.5,88.5,397.0,91.5,406.0,92.0,410.0,92.0,409.5,95.5,412.5,101.0,412.0,104.0,412.0,106.5,409.0,115.0,401.0,114.0,399.5" stroke="yellow" stroke-width="1" fill="none" />
<polyline points="129.0,376.0,124.5,368.5,121.0,359.0,122.5,358.5" stroke="black" stroke-width="1" fill="none" />
<polyline points="122.0,362.5,120.5,366.0,119.0,370.0,124.0,373.0,126.5,378.5,131.0,382.5,132.0,387.0,134.0,391.0,133.5,394.5,135.0,397.5" stroke="black" stroke-width="1" fill="none" />
<polyline points="128.0,376.0,124.0,369.5,118.5,364.0,124.5,365.5" stroke="black" stroke-width="1" fill="none" />
<polyline points="121.0,366.0,121.5,371.5,122.5,371.0,126.5,377.5,129.0,382.0" stroke="black" stroke-width="1" fill="none" />
<polyline points="133.5,362.5,130.5,357.5,127.5,356.5" stroke="black" stroke-width="1" fill="none" />
<polyline points="122.0,357.5,125.5,359.5,125.5,362.5,130.5,365.0,133.0,370.5,135.0,368.5,140.5,367.5,147.0,372.5" stroke="black" stroke-width="1" fill="none" />
<polyline points="164.0,365.0,167.5,361.0,171.5,355.0,174.5,352.5,179.0,347.0,181.0,342.5,186.0,337.0" stroke="black" stroke-width="1" fill="none" />
<polyline points="186.5,335.0,189.0,330.5,185.0,330.0,179.0,333.5,178.5,338.5,172.5,344.0,167.5,350.0,165.0,354.5,158.5,360.0,159.5,369.5,161.5,367.0,165.5,362.0,170.5,358.0,175.0,355.5,177.5,349.0,180.5,343.0,183.0,341.0,187.5,338.0,188.0,335.5,189.5,332.5,191.0,329.5" stroke="black" stroke-width="1" fill="none" />
<polyline points="186.0,343.0,191.5,345.5,191.5,349.5,192.5,354.0,188.0,350.0" stroke="black" stroke-width="1" fill="none" />
<polyline points="193.5,351.5,189.5,347.5" stroke="orange" stroke-width="1" fill="none" />
<polyline points="168.0,360.0,161.5,360.5,162.5,361.5" stroke="black" stroke-width="1" fill="none" />
<polyline points="165.0,365.0,167.5,361.5,163.5,367.0,158.0,366.0,160.5,360.5,160.5,358.5,165.5,355.0,168.0,351.0,171.0,347.0,172.0,343.5,176.5,339.0,179.0,335.0,183.0,333.0,178.5,331.5,173.5,332.5,170.5,336.0,165.5,338.5,165.5,336.5,167.0,332.5,164.0,329.0" stroke="black" stroke-width="1" fill="none" />
<polyline points="164.0,332.5,158.0,335.5,160.5,333.0,162.0,330.0,165.5,325.5,169.0,321.0,167.5,324.0" stroke="black" stroke-width="1" fill="none" />
<polyline points="166.5,321.5,172.0,317.0" stroke="black" stroke-width="1" fill="none" />
<polyline points="173.5,316.5,166.5,318.0,168.0,323.0,166.0,321.5,163.0,324.5,158.0,334.0,156.5,336.5,150.5,337.0,146.5,336.5,142.5,341.5,145.5,340.5,141.5,336.5,139.5,332.5,138.5,329.0,137.5,324.0,136.0,321.0,135.0,317.0,134.5,313.0,135.0,306.5,131.5,304.5,128.0,301.5,133.5,299.5,135.0,295.5,139.0,291.5,142.0,288.0,144.0,286.0,140.5,281.0,136.0,284.0,132.5,281.0,137.0,279.5,141.0,278.5,145.5,273.5,144.5,271.0,148.5,268.0,152.5,262.5,156.0,257.5,159.5,253.5,161.5,249.5,164.0,244.0,158.0,245.0,155.5,248.5" stroke="black" stroke-width="1" fill="none" />
<polyline points="149.0,251.0,145.0,252.0" stroke="black" stroke-width="1" fill="none" />
<polyline points="147.0,250.5,147.0,254.5,148.5,249.0,148.0,249.0,144.0,253.5,148.5,253.5,146.5,260.0" stroke="black" stroke-width="1" fill="none" />
<polyline points="152.0,265.0,148.5,270.0,144.5,274.0,142.0,271.0" stroke="black" stroke-width="1" fill="none" />
<polyline points="151.0,271.5,154.0,267.0,156.5,264.5,162.0,256.0,156.0,257.5,153.0,262.0,150.5,264.0,147.0,272.0,148.0,274.0,147.5,278.0,148.0,282.0,148.0,286.0,153.0,289.5,158.0,291.0,162.0,296.5,163.5,299.5,159.0,303.0,158.0,308.5,160.0,312.5,160.5,313.5,161.5,318.0,159.0,322.0,162.0,318.0,163.5,317.5,165.0,313.0,168.0,309.0,172.5,306.5,176.5,301.5,178.0,295.5" stroke="black" stroke-width="1" fill="none" />
<polyline points="184.5,307.0" stroke="black" stroke-width="1" fill="none" />
<polyline points="177.5,307.0,176.0,305.0,174.0,306.0" stroke="black" stroke-width="1" fill="none" />
<polyline points="176.0,300.5,179.0,301.0,180.5,304.0,183.0,309.5,181.0,311.5,182.5,313.5" stroke="black" stroke-width="1" fill="none" />
<polyline points="172.5,317.5,169.5,315.0,166.0,318.5,169.0,318.0,171.0,312.5" stroke="black" stroke-width="1" fill="none" />
<polyline points="163.5,302.5,165.5,298.5,170.5,293.5,174.0,287.5,171.0,284.0,168.0,290.5,163.0,289.5,162.0,290.5,164.5,286.5,171.0,282.0,173.5,278.0,174.0,280.0,172.5,279.0,170.5,284.0,165.0,283.0,163.0,284.0,160.5,286.5,161.0,284.5,165.0,280.5,163.5,276.5,164.0,278.0,165.0,273.5,164.5,267.5,167.5,263.5,166.5,261.5,168.5,256.0,171.0,252.0,173.5,248.0,174.5,244.0,175.0,240.0,174.5,236.5,176.0,233.0" stroke="black" stroke-width="1" fill="none" />
<polyline points="178.0,238.5,180.5,235.0,176.0,236.5,179.0,241.0,177.0,242.5,178.0,248.5,178.0,252.5,179.0,256.0,180.5,259.5,182.5,263.0" stroke="black" stroke-width="1" fill="none" />
<polyline points="190.5,257.5,183.5,253.0,187.0,251.0,197.0,253.5,192.0,256.0,193.0,259.5,200.5,267.0,203.0,266.5" stroke="black" stroke-width="1" fill="none" />
<polyline points="224.0,271.5,220.5,275.5,224.0,271.5,225.5,264.5" stroke="black" stroke-width="1" fill="none" />
<polyline points="220.5,306.5,218.0,310.0,219.0,315.0,216.0,320.0,217.5,321.5,215.5,328.0,217.5,330.0,217.5,335.0,217.0,338.0,220.0,343.0,218.0,346.0,218.0,350.0,216.5,352.5,215.5,357.0" stroke="black" stroke-width="1" fill="none" />
<polyline points="249.0,383.0,250.5,386.0,257.0,384.5,261.0,385.5,265.0,385.0" stroke="black" stroke-width="1" fill="none" />
<polyline points="266.5,391.0,262.5,389.5,260.0,386.5,254.5,389.0,251.0,389.0,249.5,386.5,243.0,392.5,243.0,387.5,247.0,389.5" stroke="black" stroke-width="1" fill="none" />
<polyline points="269.5,355.0,274.0,354.5,276.0,353.5" stroke="black" stroke-width="1" fill="none" />
<polyline points="284.5,352.0,282.5,351.5,279.5,352.5,275.5,352.0,271.5,351.0,267.5,351.5" stroke="green" stroke-width="1" fill="none" />
<polyline points="222.5,368.5,222.0,364.5,223.0,355.5,220.0,356.0,222.0,351.0,220.0,344.0,223.5,343.0,226.0,337.5,228.0,329.5,228.0,328.0,221.0,326.0,226.0,319.5,224.5,313.0,225.0,312.0,223.5,305.0,222.5,301.0" stroke="black" stroke-width="1" fill="none" />
<polyline points="178.5,306.5,176.5,303.0,176.0,300.0" stroke="black" stroke-width="1" fill="none" />
<polyline points="172.0,295.5,174.0,297.0,174.5,307.5,178.5,312.0,172.5,318.0,171.5,316.5" stroke="yellow" stroke-width="1" fill="none" />
<polyline points="158.0,313.5,157.5,311.0" stroke="black" stroke-width="1" fill="none" />
<polyline points="157.0,312.5,163.5,314.5,164.0,312.5" stroke="black" stroke-width="1" fill="none" />
<polyline points="154.0,319.5,156.0,315.0" stroke="green" stroke-width="1" fill="none" />
<polyline points="160.0,296.0,156.0,295.0" stroke="black" stroke-width="1" fill="none" />
<polyline points="154.5,292.5,156.0,295.0,160.0,299.5" stroke="black" stroke-width="1" fill="none" />
<polyline points="161.0,293.0,158.0,287.5,153.5,280.5" stroke="black" stroke-width="1" fill="none" />
<polyline points="152.0,286.5,157.5,289.5,163.5,293.5" stroke="black" stroke-width="1" fill="none" />
<polyline points="171.0,294.5,175.5,292.5,177.5,291.0,178.0,292.0" stroke="black" stroke-width="1" fill="none" />
<polyline points="173.5,292.0,179.5,292.5,176.0,299.5,171.5,303.5,173.0,305.5,170.0,309.5,164.5,311.0" stroke="yellow" stroke-width="1" fill="none" />
<polyline points="161.5,293.5,158.0,291.5,154.0,289.5" stroke="black" stroke-width="1" fill="none" />
<polyline points="150.5,291.0,156.0,294.0,161.0,293.0,162.5,297.5,166.5,293.0,170.5,290.0,171.0,289.0" stroke="black" stroke-width="1" fill="none" />
<polyline points="171.0,296.0,170.5,300.5,170.0,304.0,164.0,312.0,166.5,312.5,163.5,314.0,162.5,322.0,169.0,321.0,167.5,325.0,165.5,328.5,159.5,336.0,158.5,336.5,155.5,343.0,150.5,351.0,149.5,351.0,151.0,352.5,147.5,356.5,144.0,361.5,145.5,352.5,147.5,354.5,152.0,352.0,155.5,352.0,156.0,349.5,162.5,347.0,162.0,344.0,169.0,345.5" stroke="black" stroke-width="1" fill="none" />
<polyline points="157.0,298.0,148.5,299.0,150.5,296.0" stroke="black" stroke-width="1" fill="none" />
<polyline points="160.0,286.0,161.5,281.0,160.0,277.0,161.0,273.0,161.0,269.0,160.5,267.0,162.0,263.0,160.5,258.0" stroke="black" stroke-width="1" fill="none" />
<polyline points="164.5,266.5,165.5,261.0,164.0,264.0,167.0,268.5,163.5,271.0,166.0,275.0,166.5,276.5,167.5,274.0" stroke="black" stroke-width="1" fill="none" />
<polyline points="158.0,282.5,158.5,279.0,152.5,280.0" stroke="black" stroke-width="1" fill="none" />
<polyline points="153.0,279.0,153.0,277.5,158.0,284.5,165.0,289.0,165.0,285.5,171.5,284.0,174.5,285.5,177.5,285.0,177.5,286.5" stroke="black" stroke-width="1" fill="none" />
<polyline points="173.5,281.5,173.5,286.0,166.0,287.5,166.5,293.0,168.0,289.0" stroke="yellow" stroke-width="1" fill="none" />
<polyline points="161.0,284.5,157.0,281.0,157.5,282.5" stroke="black" stroke-width="1" fill="none" />
<polyline points="157.0,300.0,151.0,299.5,150.0,292.0,146.0,290.5,150.0,282.5,150.0,278.5,149.0,279.5,152.5,269.0,156.0,265.5,160.0,262.0,159.0,260.5,163.0,253.5,164.5,251.5,166.0,246.0,167.0,242.0,169.0,240.5,161.5,250.0,160.0,254.5,155.0,264.0,150.5,265.0,145.0,264.0,139.0,263.0,135.5,271.5,137.0,266.0,133.0,263.0,132.5,263.5,128.0,265.5,127.5,273.0,129.0,267.5,131.0,258.0,127.5,256.0,127.5,249.5,127.5,247.5,136.0,245.0,136.0,241.5,138.0,242.0,137.0,234.0,132.0,233.5,133.0,226.5,130.0,225.0,131.0,225.0,132.0,215.5,130.5,211.5,126.5,213.0,126.0,208.5,120.5,200.0,121.5,196.0,121.0,189.0,120.0,192.0,119.0,182.5,119.5,176.5,119.5,172.5,119.5,168.5,120.0,164.5,116.0,166.0,120.0,156.5,120.5,153.0,120.5,149.0,121.5,145.0,122.5,141.5,123.0,137.5,123.5,133.5,124.5,130.0,125.5,125.5,123.5,123.5,128.5,117.0,128.5,118.5,129.0,114.5,130.0,110.5,136.0,104.0,134.5,102.5,137.0,104.5,129.5,110.5" stroke="orange" stroke-width="1" fill="none" />
<polyline points="132.0,112.5,139.0,105.5,136.0,109.5,137.5,113.5,134.5,117.5,132.5,121.5,129.5,126.0,134.5,128.0,132.0,133.5,132.5,138.0,127.5,144.0,129.0,145.5,128.0,148.0,130.0,147.5,129.5,152.0,130.0,154.5,127.5,159.0,131.5,157.5,129.0,148.0" stroke="black" stroke-width="1" fill="none" />
<polyline points="127.0,154.5,133.5,155.0,131.5,156.5,132.5,160.0,135.5,162.0,132.5,164.5,128.5,170.5,129.0,167.5,134.0,162.0,132.5,160.0" stroke="yellow" stroke-width="1" fill="none" />
<polyline points="141.0,168.5,136.0,175.0,136.5,177.0,131.0,178.0,134.5,174.0,135.5,175.0" stroke="green" stroke-width="1" fill="none" />
<polyline points="132.5,170.5,133.0,179.0,134.5,176.0,138.0,174.5,137.0,170.5,137.5,167.0" stroke="yellow" stroke-width="1" fill="none" />
<polyline points="144.0,168.0,139.5,171.5,135.5,176.5,137.0,179.0,133.5,179.0" stroke="black" stroke-width="1" fill="none" />
<polyline points="145.0,173.5,143.0,174.0,137.0,180.0,132.5,181.5,138.5,177.5,141.0,172.5" stroke="black" stroke-width="1" fill="none" />
<polyline points="147.0,168.0,147.5,174.5,143.0,176.5,141.5,183.5,137.5,187.0,135.5,193.0,137.0,193.0,136.5,192.0,140.0,194.0,141.5,194.5,145.0,199.5,149.5,200.0" stroke="black" stroke-width="1" fill="none" />
<polyline points="149.0,194.5" stroke="black" stroke-width="1" fill="none" />
<polyline points="146.5,189.0,147.5,192.5" stroke="black" stroke-width="1" fill="none" />
<polyline points="142.5,194.5,146.0,198.5" stroke="yellow" stroke-width="1" fill="none" />
<polyline points="148.5,198.5,145.5,194.0,145.0,191.0,142.5,189.0,141.0,184.5,142.5,183.0,145.0,177.5,145.5,177.5,140.0,181.5,143.5,181.0" stroke="black" stroke-width="1" fill="none" />
<polyline points="143.0,184.5,147.5,185.5,149.0,190.0,151.5,190.5" stroke="black" stroke-width="1" fill="none" />
<polyline points="150.0,189.5,146.0,184.5" stroke="yellow" stroke-width="1" fill="none" />
<polyline points="143.5,189.0,149.0,194.0,153.5,194.5,160.5,187.5,163.0,182.0,168.5,179.5,168.5,174.0,173.5,170.5,178.0,164.5,182.0,161.0,185.0,159.5,192.5,153.5,195.5,148.0,196.5,145.0,201.5,144.0,201.0,144.5" stroke="yellow" stroke-width="1" fill="none" />
<polyline points="207.0,144.5,212.5,151.5,215.5,154.5,219.0,159.0,221.5,160.5" stroke="black" stroke-width="1" fill="none" />
<polyline points="226.5,163.5,221.5,160.0,227.5,154.5,222.0,157.0,220.5,159.0,215.5,153.5,218.5,154.0" stroke="yellow" stroke-width="1" fill="none" />
<polyline points="218.5,154.0,222.5,158.0,226.0,163.5,230.0,163.5" stroke="black" stroke-width="1" fill="none" />
<polyline points="228.0,172.0,228.0,177.5,227.0,178.0,223.5,176.0,215.5,178.5,214.0,183.5,212.5,185.5,204.5,194.5" stroke="black" stroke-width="1" fill="none" />
<polyline points="205.5,190.5,209.0,186.5,213.5,181.5,218.0,176.5,222.0,175.0,226.5,174.5,230.0,172.5,233.5,172.5,237.5,173.5,239.0,170.5,239.5,176.5,237.0,179.0,238.5,179.0" stroke="black" stroke-width="1" fill="none" />
<polyline points="234.5,181.5,230.0,185.5,230.0,187.5,223.0,192.5,220.0,195.0,208.5,203.0,204.0,205.5,200.0,216.0,205.0,218.0,204.5,218.5,203.0,225.5,205.0,227.5" stroke="black" stroke-width="1" fill="none" />
<polyline points="204.0,208.0,207.5,204.0,210.5,199.0,214.5,196.5,219.5,193.0,222.0,192.0,224.5,189.0" stroke="black" stroke-width="1" fill="none" />
<polyline points="226.5,194.5,220.0,197.0,214.5,203.0,210.0,207.0,208.5,210.5,208.0,210.5,211.5,202.5,215.0,202.5,218.0,197.5,224.5,198.0,226.5,193.0,230.0,190.5" stroke="black" stroke-width="1" fill="none" />
<polyline points="221.5,182.5,219.5,190.0" stroke="black" stroke-width="1" fill="none" />
<polyline points="216.5,187.5,221.5,185.0" stroke="yellow" stroke-width="1" fill="none" />
<polyline points="229.0,188.0,226.0,191.5,218.0,189.0,215.5,193.0,215.0,198.5,207.5,200.5" stroke="black" stroke-width="1" fill="none" />
<polyline points="198.5,201.0,196.0,202.5" stroke="black" stroke-width="1" fill="none" />
<polyline points="198.5,197.5,201.0,202.0" stroke="black" stroke-width="1" fill="none" />
<polyline points="206.0,204.5,203.5,202.0,199.5,200.5,196.5,199.0,191.5,197.5,189.0,198.0,185.5,201.0,179.5,206.5,181.5,207.0,181.0,203.0,189.5,198.5,191.0,195.5" stroke="orange" stroke-width="1" fill="none" />
<polyline points="181.5,207.5,188.0,206.0,192.5,205.0,200.0,204.0" stroke="yellow" stroke-width="1" fill="none" />
<polyline points="201.5,205.5,199.0,205.5,196.5,205.0,194.0,208.0,187.5,210.5,186.5,219.0,184.0,220.5,186.5,220.5,188.5,219.0,187.0,212.5,183.0,212.5,180.0,208.0" stroke="black" stroke-width="1" fill="none" />
<polyline points="180.0,214.5,182.0,218.0" stroke="black" stroke-width="1" fill="none" />
<polyline points="183.0,218.0,179.5,221.5,182.0,219.0,180.5,215.5,179.5,213.5" stroke="black" stroke-width="1" fill="none" />
<polyline points="176.5,213.5,172.0,215.0,170.0,217.5" stroke="black" stroke-width="1" fill="none" />
<polyline points="166.5,225.0,168.0,226.5,171.0,226.5,171.5,226.5,175.5,227.0,179.5,225.5" stroke="black" stroke-width="1" fill="none" />
<polyline points="176.0,228.0,172.5,234.0,167.0,234.5,165.0,238.0" stroke="black" stroke-width="1" fill="none" />
<polyline points="169.5,238.5,168.5,242.5,169.5,244.5,166.5,250.5,165.5,248.5" stroke="black" stroke-width="1" fill="none" />
<polyline points="164.5,253.5,158.0,260.5,154.0,263.5,153.5,263.0,144.0,268.0,142.0,268.5,138.0,273.5,136.5,276.5,128.5,277.0,124.0,274.5,118.0,269.5,116.0,265.0,117.0,263.0,114.5,263.5,113.0,264.0" stroke="yellow" stroke-width="1" fill="none" />
<polyline points="115.5,270.0,119.5,272.0,123.5,273.0" stroke="green" stroke-width="1" fill="none" />
<polyline points="114.0,272.0,115.0,273.0,115.5,277.0,118.0,283.0,113.0,288.0,110.0,294.5,109.5,296.5,103.0,298.5,97.0,307.0,93.0,310.0,94.0,312.0,92.0,316.0,90.5,320.0,88.5,324.0,90.5,330.0,86.5,333.0,87.5,335.0,85.5,342.0,81.0,345.0,79.0,347.5,75.0,353.0,72.0,357.0,69.0,361.0,66.5,364.5,68.0,357.5,69.5,353.5,76.0,347.5,79.5,343.5,86.0,336.5,91.0,330.0,91.0,328.0" stroke="black" stroke-width="1" fill="none" />
<polyline points="87.5,323.0,92.5,323.5,90.5,327.5,93.5,326.0,91.0,330.5,86.0,335.5,84.5,337.5,80.0,344.5,76.0,347.5,72.5,351.0,69.0,355.0,65.0,359.5,62.5,363.0,62.0,364.5,66.5,362.5,70.0,357.5,77.0,353.5,78.5,345.5,82.5,344.0,85.5,340.5,93.0,339.0,91.0,344.0,88.5,349.5,89.5,351.5,85.0,356.0,84.5,359.5,80.0,363.5,77.5,367.5,75.5,374.0,83.0,375.0,83.5,371.0,87.5,362.0,90.5,354.5" stroke="black" stroke-width="1" fill="none" />
<polyline points="107.0,355.0,109.5,357.5,105.5,363.0,104.0,366.5,103.0,370.0,102.5,374.0,101.5,379.0" stroke="black" stroke-width="1" fill="none" />
<polyline points="110.5,369.0,109.0,363.0,109.5,363.0" stroke="black" stroke-width="1" fill="none" />
<polyline points="111.5,354.5,110.5,357.0,116.0,364.5,110.5,360.5,111.5,362.5,115.0,367.0" stroke="black" stroke-width="1" fill="none" />
<polyline points="114.0,358.5,110.5,354.5" stroke="black" stroke-width="1" fill="none" />
<polyline points="124.5,361.5,134.5,365.5" stroke="yellow" stroke-width="1" fill="none" />
<polyline points="83.5,356.0,79.5,360.0,76.5,367.5" stroke="yellow" stroke-width="1" fill="none" />
<polyline points="77.0,366.0,77.0,357.0,84.0,349.0,84.5,347.5,81.0,354.5,79.0,357.0,76.0,361.0,75.5,365.0,75.5,369.0,75.5,373.0,75.0,376.5" stroke="green" stroke-width="1" fill="none" />
<polyline points="79.5,383.0,77.5,389.5,72.0,396.0,66.0,395.0,64.5,402.0,58.5,402.5,61.0,399.0,65.0,395.0,70.0,391.0,74.5,387.0,77.0,383.0,78.0,383.5,72.5,388.5,69.0,392.0,66.0,395.5,61.5,399.0,58.5,403.0,65.0,399.0,72.5,395.0,74.5,390.0,77.5,386.0,80.0,382.5,83.5,380.5,81.0,373.5,83.5,369.0,85.0,364.0,90.5,359.0,92.0,359.0,88.5,355.5,93.0,355.5,94.5,348.5,97.0,347.0,100.5,345.0,98.0,341.5,93.0,348.5,92.5,342.0,95.5,340.0,96.5,336.0,96.5,332.0,98.0,327.5,96.5,324.5,99.0,318.0,98.0,314.0,96.0,310.0,99.5,310.0,104.0,303.5,105.5,304.0,103.5,304.5,101.0,309.5,96.5,314.5,95.5,314.5" stroke="black" stroke-width="1" fill="none" />
<polyline points="89.0,308.5,83.0,312.0,89.5,311.5,91.0,308.0,93.5,304.5,99.5,304.0,101.5,298.0" stroke="black" stroke-width="1" fill="none" />
<polyline points="100.0,302.5,95.5,303.0,91.5,306.0,98.5,302.0,101.0,297.0,106.0,291.5,105.0,290.5" stroke="yellow" stroke-width="1" fill="none" />
<polyline points="109.0,297.5,104.0,296.0,98.5,299.5,94.5,294.5,90.5,295.5,88.0,298.0,85.0,299.0" stroke="black" stroke-width="1" fill="none" />
<polyline points="85.0,297.0,80.0,298.5,82.5,295.5,86.5,294.0,91.0,292.5,94.5,295.0,101.5,290.0,103.5,290.5,107.5,289.0,112.0,287.0" stroke="black" stroke-width="1" fill="none" />
<polyline points="115.0,284.0,114.0,284.0,108.5,290.0,115.0,287.0,111.5,278.5,114.0,279.0,114.0,273.0,117.5,271.0" stroke="black" stroke-width="1" fill="none" />
<polyline points="111.5,263.5,114.0,259.0,111.0,259.0,111.5,262.5,109.0,269.0,109.0,273.0,100.5,274.0,98.0,279.5,94.5,282.0,99.0,280.5,101.5,275.0,106.0,275.0,112.5,277.5,113.0,279.0,118.5,284.5" stroke="black" stroke-width="1" fill="none" />
<polyline points="113.5,278.5,109.5,281.0,102.5,284.0,101.0,285.5,96.0,284.0" stroke="black" stroke-width="1" fill="none" />
<polyline points="93.5,275.0,95.5,275.0,99.5,273.0,103.5,270.5,108.0,267.5,102.0,272.5,93.0,276.5,95.5,277.0,95.0,281.0,96.0,285.0,99.5,282.5,104.5,282.0,101.0,282.5,105.5,282.5,109.0,278.0,115.0,278.5,120.5,278.5,120.5,277.0,126.0,274.0" stroke="orange" stroke-width="1" fill="none" />
<polyline points="130.0,268.5,123.5,274.0,118.0,276.5,110.0,280.5,101.5,284.5,99.5,290.0,95.0,298.0,93.0,302.0,88.5,307.0,81.5,310.5,83.0,316.0,77.5,318.0,69.5,323.5,74.0,319.5,81.5,320.5,83.0,315.5,87.5,316.0" stroke="black" stroke-width="1" fill="none" />
<polyline points="103.0,314.5,109.5,310.0,111.0,305.0,115.5,301.5,119.5,297.5" stroke="green" stroke-width="1" fill="none" />
<polyline points="120.5,302.5,117.0,305.5,115.5,309.5,114.5,312.0,108.0,317.5,105.0,321.5,98.5,325.0,101.0,324.5" stroke="black" stroke-width="1" fill="none" />
<polyline points="79.5,316.0,76.5,318.5,70.0,318.5,70.5,322.5,74.5,317.5,81.5,315.5,75.0,310.5,73.0,305.0,75.0,307.0,73.5,303.5" stroke="black" stroke-width="1" fill="none" />
<polyline points="75.0,308.5" stroke="yellow" stroke-width="1" fill="none" />
<polyline points="78.0,306.0,77.5,310.0,79.5,311.0,85.0,310.5,85.5,305.0,91.0,304.0" stroke="black" stroke-width="1" fill="none" />
<polyline points="106.5,305.5,102.0,312.5,98.0,321.0,99.0,319.0,101.0,315.0,101.5,311.0,109.0,307.5,109.0,303.0,108.5,299.5" stroke="black" stroke-width="1" fill="none" />
<polyline points="103.5,294.5,99.5,294.0,103.0,294.5,109.5,294.0,111.0,291.5,112.5,290.5" stroke="black" stroke-width="1" fill="none" />
<polyline points="103.5,289.5" stroke="black" stroke-width="1" fill="none" />
<polyline points="93.0,284.5,88.5,282.5,91.5,276.0,92.0,276.0" stroke="black" stroke-width="1" fill="none" />
<polyline points="123.5,283.0,124.5,288.0,122.0,292.5,120.0,294.0,114.5,300.5,110.5,302.5,106.5,307.0,103.5,312.5,101.5,317.0,100.5,322.5,100.0,324.0,98.5,331.0,102.0,330.5,97.0,336.0,95.5,341.0,99.5,338.5,103.5,333.5,107.0,330.5,113.0,325.0,114.5,317.5,118.5,309.0,121.5,303.5,121.0,301.5,124.5,309.0,130.5,315.0" stroke="orange" stroke-width="1" fill="none" />
<polyline points="127.5,315.0,126.0,317.0,127.0,321.0,131.0,325.0,128.0,329.5,127.5,333.5" stroke="orange" stroke-width="1" fill="none" />
<polyline points="121.0,311.0,119.5,315.0,118.0,319.0,115.5,323.5,113.5,327.5,113.5,333.5,108.5,337.0,105.5,338.0,101.0,344.0,97.0,348.5,100.0,350.5,95.5,352.0,92.0,356.0,94.0,360.0,93.0,364.5,93.0,368.0,94.5,370.0,94.0,376.0,92.5,382.5,93.5,384.0" stroke="orange" stroke-width="1" fill="none" />
<polyline points="81.0,386.5,82.5,389.5,78.5,396.0,79.0,400.0,74.0,404.0,73.0,409.5,72.5,412.5,70.5,412.5" stroke="black" stroke-width="1" fill="none" />
<polyline points="22.0,367.5,19.5,373.5,22.0,371.0" stroke="black" stroke-width="1" fill="none" />
<polyline points="124.0,286.0,125.0,290.0,121.0,291.0,120.5,297.5,116.5,303.5,110.5,302.5,108.0,309.0,105.0,312.5,110.5,310.5,112.0,305.5,116.0,302.0,118.0,295.5,125.0,295.5,126.5,291.0,134.0,287.5,137.5,289.0,141.5,287.0" stroke="black" stroke-width="1" fill="none" />
<polyline points="136.0,268.5,139.0,267.0,134.5,262.5" stroke="black" stroke-width="1" fill="none" />
<polyline points="136.5,259.5,138.0,255.5" stroke="black" stroke-width="1" fill="none" />
<polyline points="128.5,249.5,135.0,246.0,137.5,247.5" stroke="black" stroke-width="1" fill="none" />
<polyline points="142.0,244.0,137.0,245.0" stroke="black" stroke-width="1" fill="none" />
<polyline points="143.0,242.5,137.0,235.5,134.0,223.5" stroke="black" stroke-width="1" fill="none" />
<polyline points="141.0,225.0,146.5,218.5,142.5,216.0" stroke="black" stroke-width="1" fill="none" />
<polyline points="150.5,211.0,149.5,211.0,150.5,207.5" stroke="black" stroke-width="1" fill="none" />
<polyline points="146.5,201.5,144.0,197.5,138.5,195.0,136.0,189.5,135.0,186.5,137.0,182.5,142.0,178.0,145.5,174.0,141.5,179.0,140.5,181.5,135.5,185.0" stroke="black" stroke-width="1" fill="none" />
<polyline points="139.5,187.0,143.5,180.5" stroke="black" stroke-width="1" fill="none" />
<polyline points="150.0,180.0,148.0,181.0,148.0,188.0,144.0,189.5" stroke="black" stroke-width="1" fill="none" />
<polyline points="140.0,192.5,140.0,199.5,134.5,202.5" stroke="black" stroke-width="1" fill="none" />
<polyline points="141.0,195.0,144.0,198.5,146.0,202.5,146.5,207.0,144.5,211.0,143.5,217.0,147.5,208.5,151.0,202.0" stroke="black" stroke-width="1" fill="none" />
<polyline points="127.0,207.5,126.5,198.0" stroke="black" stroke-width="1" fill="none" />
<polyline points="110.5,230.0,111.5,228.5,117.5,225.0" stroke="black" stroke-width="1" fill="none" />
<polyline points="116.0,227.5,112.5,231.5,115.5,230.5" stroke="black" stroke-width="1" fill="none" />
<polyline points="124.5,252.5,119.5,257.0,116.0,260.0,109.5,264.5,115.0,259.5,119.0,258.5,124.5,251.5,125.5,246.5,132.5,245.5,134.0,240.5,141.5,236.5,148.5,235.0,152.5,229.5,156.0,228.0,157.0,225.0" stroke="black" stroke-width="1" fill="none" />
<polyline points="160.0,223.0,156.0,227.5,151.5,230.5,146.5,235.5,147.5,237.0,143.5,247.0,145.5,252.5,143.0,255.0,141.5,258.5,141.0,264.0,135.5,266.0,133.0,270.5,133.0,270.0,137.5,269.5,135.5,267.5" stroke="black" stroke-width="1" fill="none" />
<polyline points="157.0,257.0,151.5,253.5,155.0,258.0,156.0,251.5" stroke="orange" stroke-width="1" fill="none" />
<polyline points="168.5,229.0,163.5,235.5,160.5,239.0,161.0,238.5,165.0,232.0,167.0,228.5,170.0,228.5" stroke="green" stroke-width="1" fill="none" />
<polyline points="166.5,223.0,163.0,226.5" stroke="black" stroke-width="1" fill="none" />
<polyline points="176.5,226.5,170.5,232.5,167.0,238.0,164.5,241.0,161.0,244.0,157.5,247.0,152.5,250.0,149.5,253.5,151.5,256.0,150.0,258.0,146.5,262.0,142.5,266.0,138.0,270.0,133.0,275.0,130.0,280.0,132.0,287.0,131.0,290.0,127.5,295.0,124.0,302.5,127.0,307.0,126.0,311.0,122.0,315.5,123.0,320.5,123.5,321.5,123.0,322.5,124.0,329.5,125.5,332.0,125.0,336.0,126.5,341.5,127.0,343.0,127.5,347.0,130.5,352.0,137.0,355.0,137.0,359.0,137.5,364.5,140.0,369.0,143.0,368.0,144.5,372.0,146.0,377.0,149.5,379.0,146.5,383.5,147.5,389.0,147.0,393.0,148.5,397.0,152.0,395.0,150.5,402.0,150.5,405.0,152.0,405.5,156.5,410.0,157.0,417.0,160.0,418.0,158.5,424.0" stroke="black" stroke-width="1" fill="none" />
<polyline points="170.0,421.5,162.5,417.0,163.0,412.0,164.5,413.0" stroke="black" stroke-width="1" fill="none" />
<polyline points="192.0,426.0,192.0,430.0,192.0,433.5" stroke="orange" stroke-width="1" fill="none" />
<polyline points="197.0,428.0" stroke="black" stroke-width="1" fill="none" />
<polyline points="194.0,423.5,196.5,426.5,194.0,428.5" stroke="yellow" stroke-width="1" fill="none" />
<polyline points="192.5,403.5,195.0,397.5,193.5,395.5,193.5,391.5,195.5,390.0" stroke="black" stroke-width="1" fill="none" />
<polyline points="191.5,391.0,192.0,395.0,191.5,399.0,191.0,403.5,191.5,410.0,193.0,413.0,190.5,415.5,190.0,419.5,190.0,423.5,189.0,426.0,187.0,431.0,188.0,435.0,188.5,439.0,187.0,438.0,183.0,444.0,185.0,444.0,190.5,445.0,194.5,446.5,197.0,446.0" stroke="black" stroke-width="1" fill="none" />
<polyline points="381.0,360.0,380.5,356.0,380.0,352.0,380.0,348.0,380.0,341.5,377.5,340.0,378.0,337.0,380.5,333.5,378.0,327.0,378.0,323.0,376.0,316.5,376.0,312.5,374.5,308.5,374.0,305.0,374.0,300.5,374.0,296.5,375.0,290.5" stroke="black" stroke-width="1" fill="none" />
<polyline points="378.5,286.5,379.5,285.0,377.0,283.5,381.0,277.5,382.0,273.5,380.0,268.5,383.5,267.5" stroke="black" stroke-width="1" fill="none" />
<polyline points="366.5,263.0,368.5,271.0,365.5,271.0,366.5,279.0,368.0,280.0,368.5,285.5,365.0,289.0,367.5,295.5,364.5,296.5,365.0,305.0,366.5,308.5,366.0,311.5,364.0,317.5,363.0,314.0" stroke="black" stroke-width="1" fill="none" />
<polyline points="348.0,280.0,343.5,279.0,337.5,280.0,333.5,280.0,329.5,279.0,322.5,277.0,320.0,273.5,324.0,270.0,323.5,269.0" stroke="black" stroke-width="1" fill="none" />
<polyline points="323.5,266.5,327.5,272.5,331.0,274.0,335.0,272.0,334.5,270.0" stroke="black" stroke-width="1" fill="none" />
<polyline points="323.0,278.5,315.5,276.0,317.5,273.5,318.5,270.0,319.0,266.5,323.5,262.5,326.5,255.5,337.0,250.5,336.5,251.5" stroke="black" stroke-width="1" fill="none" />
<polyline points="365.5,263.5,366.5,268.0,367.0,270.0,364.5,275.5,364.5,277.5,361.5,282.0" stroke="black" stroke-width="1" fill="none" />
<polyline points="298.0,224.5,294.0,227.0,289.5,230.0,284.0,236.0,289.5,231.0,293.5,227.0,296.0,222.0" stroke="black" stroke-width="1" fill="none" />
<polyline points="270.0,214.5,268.0,214.0,269.0,212.5,275.0,210.0,277.0,204.0,281.0,200.5,284.0,194.0,289.0,192.5,293.0,188.0,296.0,187.0,300.5,183.0,304.0,181.0,308.5,178.5" stroke="black" stroke-width="1" fill="none" />
<polyline points="309.0,175.0,305.0,177.5,300.0,180.5,296.0,183.5,291.0,185.0,288.0,190.0,284.5,193.0,282.5,195.5,277.0,199.5,273.0,203.0,267.0,205.5,262.0,213.0,263.5,216.0,257.0,222.0,255.5,223.5,251.5,228.0,247.0,232.5,243.0,238.0,239.0,242.5,235.0,247.5,231.0,252.5,227.0,258.5,220.5,266.0,219.5,271.5,215.5,278.5,214.0,286.5,208.0,294.5,204.0,302.5,199.0,314.5,200.5,320.0,198.0,316.5,197.5,313.0,203.5,305.5,203.0,304.5,203.5,301.5,206.0,294.0,207.5,292.5,208.5,288.0,211.5,284.0,213.0,283.0,215.5,276.0,218.5,273.5,220.5,272.0,223.0,264.0,225.0,259.0,228.0,257.5,231.5,255.5,234.5,249.0,240.0,246.5,239.5,242.0,245.0,238.5,248.0,232.5,251.5,228.5,255.5,224.0,260.0,221.5,261.0,215.5,259.0,210.0,262.5,207.5,264.0,206.0,265.5,199.5,262.5,203.0" stroke="black" stroke-width="1" fill="none" />
<polyline points="266.5,205.5,262.5,208.5,264.0,208.5" stroke="green" stroke-width="1" fill="none" />
<polyline points="249.0,213.5,247.0,213.0,242.5,210.5" stroke="yellow" stroke-width="1" fill="none" />
<polyline points="216.5,195.0,212.0,197.0,216.5,194.0,220.0,186.0,220.0,183.0" stroke="black" stroke-width="1" fill="none" />
<polyline points="222.5,175.0,218.5,179.0,215.5,183.5,210.5,188.5,206.0,190.5,205.5,194.5,206.0,196.5,209.5,194.5,214.0,193.0,218.5,195.0,221.5,192.0,226.0,189.0,230.0,187.5,231.0,185.5,235.5,182.0" stroke="black" stroke-width="1" fill="none" />
<polyline points="244.5,174.5,242.0,176.0,243.5,178.5,239.0,185.0,234.5,185.0,238.0,183.5,243.5,179.0,247.5,180.5,252.5,179.5,248.0,175.5" stroke="black" stroke-width="1" fill="none" />
<polyline points="252.0,176.5,250.5,180.0,243.5,183.0,251.0,188.0,244.5,192.5,238.5,195.0,236.5,199.0,240.0,205.0,237.0,205.5,231.0,211.0,236.5,212.5,235.5,208.0,238.5,210.0" stroke="black" stroke-width="1" fill="none" />
<polyline points="266.5,186.5,261.0,191.0,256.5,195.0,253.5,199.0,249.5,202.0,251.0,200.0,255.0,193.5,259.0,190.5,262.0,186.5,265.5,184.5" stroke="black" stroke-width="1" fill="none" />
<polyline points="269.5,187.5,261.0,189.0,257.5,190.5,261.5,187.5,265.5,187.5" stroke="black" stroke-width="1" fill="none" />
<polyline points="266.5,177.5,263.0,184.0,257.0,187.5,252.0,190.5,246.5,192.5,242.0,196.0,243.5,197.5,242.5,190.5,243.5,190.0,249.5,189.0,249.0,184.0,252.5,182.5,259.0,180.0" stroke="black" stroke-width="1" fill="none" />
<polyline points="264.5,174.5,268.5,176.5,272.5,176.0,275.0,179.0,282.0,177.5,283.5,175.0,290.0,177.5,294.0,180.5,289.0,185.0,283.5,189.0,284.0,192.0,275.0,196.0,272.0,199.0,273.5,194.0,272.0,198.0,271.0,199.0,276.0,195.0,279.0,192.5,280.5,186.5,287.5,182.5,292.0,181.0,296.0,178.5,300.0,176.0,304.0,173.5,308.5,171.5,313.0,169.0,317.0,166.5,321.5,164.0,326.5,163.5,329.5,161.0,336.0,160.0,340.5,155.0" stroke="black" stroke-width="1" fill="none" />
<polyline points="312.5,172.0,306.5,177.5,298.5,178.5,295.5,183.5,290.0,187.5,285.0,191.5,280.0,194.5,276.0,200.0,270.0,203.0,266.5,208.5,272.0,210.5,267.5,213.0,266.5,218.0,266.0,222.0,265.0,224.0,264.5,228.0,267.5,233.5,266.0,237.5,263.5,242.0" stroke="yellow" stroke-width="1" fill="none" />
<polyline points="272.0,193.5,273.0,189.5,273.0,185.5,272.0,181.5" stroke="black" stroke-width="1" fill="none" />
<polyline points="260.0,165.0,267.5,162.0,262.0,163.0,260.5,165.0,256.0,164.0,251.5,161.0" stroke="green" stroke-width="1" fill="none" />
<polyline points="252.5,162.0,255.0,168.5" stroke="black" stroke-width="1" fill="none" />
<polyline points="250.5,172.5,255.5,176.0,258.0,178.0,260.0,179.0" stroke="green" stroke-width="1" fill="none" />
<polyline points="248.0,144.0,249.0,141.5,249.5,138.5,255.5,138.5,261.5,133.0,260.0,135.0,257.5,133.0,251.0,139.5,245.5,140.5,241.5,144.0,237.5,146.0" stroke="yellow" stroke-width="1" fill="none" />
<polyline points="237.5,141.5,238.5,147.5" stroke="black" stroke-width="1" fill="none" />
<polyline points="221.5,148.0,217.0,144.5,213.0,141.0,215.5,141.5" stroke="black" stroke-width="1" fill="none" />
<polyline points="215.0,141.0,221.0,147.0" stroke="black" stroke-width="1" fill="none" />
<polyline points="207.5,147.5,210.0,148.0,214.0,154.5,219.5,156.5,222.0,160.0,224.0,161.5" stroke="black" stroke-width="1" fill="none" />
<polyline points="206.5,162.0,203.5,163.5" stroke="black" stroke-width="1" fill="none" />
<polyline points="204.0,162.5,205.0,166.5,195.0,167.5,190.0,174.5,188.0,178.0,181.5,179.5,179.0,185.5,175.5,188.0,172.5,193.5,170.0,199.0,167.0,204.0,164.5,202.0,168.5,197.0,172.5,194.5,178.0,190.5,180.5,185.0,186.5,180.5,189.5,176.5,192.5,174.0,194.5,168.0,200.5,167.5" stroke="orange" stroke-width="1" fill="none" />
<polyline points="219.0,175.0,214.0,180.5,211.0,182.5,206.5,184.0,204.5,190.0,203.5,193.5" stroke="black" stroke-width="1" fill="none" />
<polyline points="197.0,132.0" stroke="black" stroke-width="1" fill="none" />
<polyline points="201.0,133.5,203.5,136.0,202.0,142.0,203.0,141.5,207.5,137.5,211.0,135.0,215.0,132.5,219.0,129.5" stroke="black" stroke-width="1" fill="none" />
<polyline points="225.5,126.5,219.0,130.5,213.0,133.0,209.0,136.5,209.5,137.0,212.5,134.5,215.5,136.0,221.0,130.5,225.0,128.0,229.0,125.5,233.0,122.5,238.0,118.0" stroke="yellow" stroke-width="1" fill="none" />
<polyline points="232.5,122.5,222.0,127.5,221.0,132.0,212.5,135.0,206.5,138.0,203.5,142.0,200.5,146.5,193.0,149.0,189.5,155.0,187.5,159.5,180.5,161.0,177.0,165.5,171.5,170.0,166.0,172.0,167.5,177.5,161.0,182.5,160.5,185.5,153.0,190.0,149.0,196.0,152.5,199.5,153.0,206.0,151.0,205.5,146.5,211.5,144.5,216.5,142.5,220.0,140.0,224.0,141.5,227.5,139.5,228.5,142.0,235.0,142.0,237.0,141.5,241.0,132.5,244.0,132.0,249.5,134.0,250.0,137.0,257.5,139.5,252.5,142.0,256.5" stroke="yellow" stroke-width="1" fill="none" />
<polyline points="136.0,173.5,134.0,181.0,134.0,176.5,140.0,171.0,139.5,167.0,141.0,167.0" stroke="black" stroke-width="1" fill="none" />
<polyline points="128.5,139.5,131.5,135.5,134.5,131.5,131.0,130.5" stroke="black" stroke-width="1" fill="none" />
<polyline points="154.5,127.5,150.5,130.5,147.5,133.5,152.0,129.5,156.0,125.0" stroke="yellow" stroke-width="1" fill="none" />
<polyline points="189.0,120.5,183.5,123.0,180.5,125.5,179.0,126.5,184.5,122.5,188.0,119.0" stroke="black" stroke-width="1" fill="none" />
<polyline points="192.0,120.5,184.0,122.0,179.5,127.5,179.5,126.0,186.0,122.0,189.0,122.5" stroke="black" stroke-width="1" fill="none" />
<polyline points="192.5,130.5,188.0,134.5,188.5,134.5,191.0,133.0" stroke="black" stroke-width="1" fill="none" />
<polyline points="201.0,119.0,201.0,119.5,194.5,124.5,198.5,120.0,205.5,116.5,209.5,112.5" stroke="black" stroke-width="1" fill="none" />
<polyline points="197.5,109.0,191.5,111.0" stroke="black" stroke-width="1" fill="none" />
<polyline points="230.5,128.5,224.0,127.5,220.0,132.5,216.0,135.5,212.0,138.5,208.5,141.5,204.0,145.0,198.0,148.5,198.5,155.5,200.0,149.5,202.0,146.0,207.5,143.5,214.0,142.0,218.0,135.5,224.0,131.5,230.5,127.5,228.0,125.5" stroke="black" stroke-width="1" fill="none" />
<polyline points="259.0,135.5,255.0,137.0,250.0,140.0,249.5,141.0,243.0,146.5,238.0,148.5,235.5,151.0,227.0,156.5,225.5,157.5,223.5,162.0,222.5,164.5,225.5,160.0,230.5,155.0,233.0,152.5,241.5,146.5,246.0,142.5,251.5,138.5,256.5,134.5,258.5,129.5,262.0,131.5" stroke="green" stroke-width="1" fill="none" />
<polyline points="282.5,144.0" stroke="yellow" stroke-width="1" fill="none" />
<polyline points="299.5,134.5,295.5,137.5,293.0,139.5,290.0,142.5,295.5,138.5,300.5,136.5,304.5,134.5" stroke="black" stroke-width="1" fill="none" />
<polyline points="315.0,176.0,309.0,174.0,310.5,180.5,299.5,182.5,296.0,186.5,290.5,190.5,286.5,194.5,283.5,196.0,278.0,202.5,273.0,206.0,271.5,210.5,273.0,212.5,268.5,216.0" stroke="black" stroke-width="1" fill="none" />
<polyline points="237.5,101.5,232.5,103.0,228.0,104.5,225.5,104.0,221.5,107.5,225.0,105.0,232.0,103.5,237.0,98.5" stroke="black" stroke-width="1" fill="none" />
<polyline points="236.0,99.5,236.5,102.0,238.0,94.5" stroke="black" stroke-width="1" fill="none" />
<polyline points="244.0,94.5,250.0,91.5" stroke="black" stroke-width="1" fill="none" />
<polyline points="260.0,88.5,256.0,90.5,249.5,95.0,250.5,95.0,243.5,96.5,239.5,99.5,236.0,102.5,232.0,106.0,228.0,108.0,224.0,110.0,220.5,113.5,216.5,116.0,214.5,118.0,208.5,123.5,204.0,125.0,198.5,126.0,195.0,132.5,190.5,136.5,184.0,141.5,182.5,144.0,178.5,148.0,174.5,151.5,168.5,156.5,167.5,158.0,162.0,162.5,158.5,165.5,155.0,170.5,152.5,173.5,156.5,168.5,160.5,165.0,165.0,161.5,169.5,157.0,174.0,153.0,177.5,149.0,182.0,145.0,187.5,141.5,191.0,137.0,196.0,132.0,198.5,128.5,204.0,124.5,208.5,120.5,214.5,116.5,219.5,113.0,224.5,109.0,231.5,105.5,238.0,103.0,243.0,97.5,248.5,94.0,255.5,90.0,264.5,86.5" stroke="yellow" stroke-width="1" fill="none" />
<polyline points="235.5,78.5,231.0,83.0,225.0,87.5,229.5,87.5,231.0,82.5,237.5,79.0" stroke="black" stroke-width="1" fill="none" />
<polyline points="233.0,49.5,236.5,47.0,236.0,47.0" stroke="orange" stroke-width="1" fill="none" />
<polyline points="229.5,44.5,223.5,49.0,230.5,45.5,231.0,48.0,237.0,48.0,243.0,50.5,245.5,51.0,247.0,48.5,252.0,51.0,256.0,54.5,261.0,51.5,264.0,55.0,268.5,58.0,275.0,63.5,278.0,65.0,282.5,68.5,284.5,70.0,288.0,73.5,291.5,79.5,295.5,78.0,299.5,81.0,304.0,86.5,308.0,92.0,310.5,99.0,316.5,100.5,320.0,105.0,324.0,108.0,327.5,113.5,332.0,123.5,333.0,131.0,339.5,132.5,343.5,138.5,349.0,149.0,350.0,143.5,352.5,141.0,359.0,139.0,363.0,137.5,366.0,136.5,371.5,133.0,376.5,130.5,380.5,129.0,384.0,125.0,387.5,121.5,393.5,117.0,395.5,114.5,399.5,113.0,403.5,112.5,407.5,113.0,412.0,113.0,415.5,115.0,422.5,121.5" stroke="black" stroke-width="1" fill="none" />
<polyline points="412.0,115.0,416.0,119.0,418.0,123.0,419.0,127.0,419.5,131.0,418.0,135.0,419.0,139.0,420.5,140.5,419.5,146.5,418.5,151.0,412.5,155.0,413.5,159.0,409.5,160.5,411.5,166.0,411.0,171.5,406.0,175.0,408.5,179.0,404.5,180.0,401.0,185.5,393.0,189.5,393.0,192.5,390.0,195.5,384.5,203.0,376.0,207.0,373.5,209.5,367.5,213.0,371.5,212.5,374.0,210.0,379.5,205.5,385.0,202.5,387.5,199.0,391.0,197.5,393.5,190.5,399.0,187.0,403.0,184.5,409.0,177.5,411.5,170.0,416.0,157.0" stroke="black" stroke-width="1" fill="none" />
<polyline points="367.5,134.0,368.5,130.5,368.5,126.5,369.5,128.0" stroke="orange" stroke-width="1" fill="none" />
<polyline points="387.0,106.5,383.5,101.0" stroke="black" stroke-width="1" fill="none" />
<polyline points="379.0,96.0,382.5,100.0,384.5,104.0,388.5,108.5" stroke="green" stroke-width="1" fill="none" />
<polyline points="442.5,67.5,435.5,63.0,433.0,56.0,427.5,48.5,426.0,43.0,421.0,37.0,420.0,27.5,412.5,22.0,413.0,13.0" stroke="black" stroke-width="1" fill="none" />
<polyline points="511.5,76.5,510.0,78.5,506.5,82.5,503.0,86.5,501.0,87.5,495.5,95.0,491.0,99.5,485.0,101.5,487.0,108.5,482.0,112.5,478.5,116.5,475.0,123.0,473.0,124.0,470.0,128.0,467.0,130.0,465.0,136.5,463.0,140.0,461.0,144.5,454.5,148.5,456.0,153.5,455.5,156.0,451.0,161.5,448.5,166.0,445.5,169.5,442.0,173.0,444.5,176.0,439.0,182.5,436.0,187.0,435.5,191.5,433.0,196.0,433.5,201.0,430.0,202.5,429.0,208.0,428.0,211.5,424.0,214.5,422.5,220.0,422.0,224.0,417.5,230.5,418.5,232.0,419.0,235.0,415.5,241.0,413.5,244.5,412.5,248.5,413.5,251.0,413.5,252.0,409.5,258.5,408.5,262.5,405.5,268.5,405.5,269.5,402.5,273.0,401.5,278.5,401.5,282.5,401.5,285.5,398.5,290.0,398.5,293.5,398.0,298.0,396.5,302.0,397.5,308.0,394.0,310.5,391.5,313.5,390.5,320.5,391.5,323.0,390.0,327.0,388.5,331.0,387.0,335.0,385.5,339.0,386.0,342.5,390.5,339.0" stroke="black" stroke-width="1" fill="none" />
<polyline points="348.0,147.0,345.5,143.5,344.0,141.5,341.5,135.5,337.0,131.5,335.5,130.0,332.5,123.0,330.0,119.0,329.5,116.0,326.5,110.0,324.0,107.5,320.5,103.0,317.5,99.0,308.0,94.0,308.0,92.0,306.5,88.5,302.0,85.0,301.5,80.0,291.0,75.5,286.5,71.0,281.0,67.0,277.5,64.5,269.5,59.5,263.5,53.0,253.0,51.0" stroke="black" stroke-width="1" fill="none" />
<polyline points="212.0,47.5,210.5,49.5,209.0,49.5" stroke="black" stroke-width="1" fill="none" />
<polyline points="175.0,62.5,170.5,61.5,168.5,60.5,161.5,64.0,160.5,69.0,160.5,65.5" stroke="green" stroke-width="1" fill="none" />
<polyline points="162.0,65.0,160.0,69.0,156.0,74.0,155.5,76.0,154.0,78.0,158.0,73.5,159.0,70.5" stroke="black" stroke-width="1" fill="none" />
<polyline points="154.5,74.0,155.0,80.5,153.0,84.5,157.0,76.0,156.0,74.0" stroke="black" stroke-width="1" fill="none" />
</svg>