<svg xmlns="http://www.w3.org/2000/svg" width="1024" height="1024" version="1.1"><polyline points="415.5,25.0,412.0,25.0,412.5,30.0,417.0,31.0,417.0,33.0,405.0,47.0,425.5,35.5" stroke="black" stroke-width="1" fill="none" />
<polyline points="449.5,42.0,445.0,28.0,432.0,17.0,426.0,21.0,425.0,20.5" stroke="green" stroke-width="1" fill="none" />
<polyline points="424.5,15.5,424.5,22.5,419.0,28.0,435.0,26.5,432.0,33.5,435.5,30.0,441.5,46.5,451.5,53.0,440.0,58.0,442.0,53.0,447.5,55.5,446.5,73.0,454.5,70.0,443.0,74.5,455.0,67.5,427.0,70.0,436.0,78.5,434.0,83.5,436.5,82.0,427.5,95.0,421.5,100.0,421.0,103.5,419.0,102.0,425.5,103.0,411.0,109.5,404.0,125.5,415.5,116.0,421.5,112.5,422.0,99.0,421.0,95.0,432.5,92.5,441.0,77.0,439.5,80.5,444.0,73.5,446.5,66.0,441.5,62.5,452.0,60.5,456.0,59.5,458.5,47.5,467.5,56.0,472.0,37.0,474.0,41.0,483.0,33.0,486.0,23.5,484.5,27.0,497.0,37.5" stroke="orange" stroke-width="1" fill="none" />
<polyline points="495.0,23.5,494.0,21.0,495.0,28.0,487.0,26.5,483.5,32.0,473.0,36.0" stroke="black" stroke-width="1" fill="none" />
<polyline points="474.5,114.5,480.0,117.5,476.0,112.0,478.0,122.5" stroke="yellow" stroke-width="1" fill="none" />
<polyline points="" stroke="green" stroke-width="1" fill="none" />
<polyline points="" stroke="orange" stroke-width="1" fill="none" />
<polyline points="" stroke="green" stroke-width="1" fill="none" />
<polyline points="" stroke="yellow" stroke-width="1" fill="none" />
<polyline points="" stroke="yellow" stroke-width="1" fill="none" />
<polyline points="" stroke="black" stroke-width="1" fill="none" />
<polyline points="376.5,255.5,376.0,254.0,367.5,244.5,388.0,242.5,372.5,238.5,360.5,232.5,358.5,231.0,372.5,224.0,367.0,217.0,368.0,223.0,370.0,224.5" stroke="orange" stroke-width="1" fill="none" />
<polyline points="" stroke="orange" stroke-width="1" fill="none" />
<polyline points="373.5,270.5,365.5,280.0,359.5,278.5" stroke="orange" stroke-width="1" fill="none" />
<polyline points="378.0,287.5,376.5,304.5,369.0,301.0,381.0,308.5,385.0,301.0,375.5,306.0,372.5,311.5,377.5,314.5,373.5,331.5,375.5,322.5,383.5,326.0,384.5,333.0,382.5,341.5,372.0,341.0,379.0,347.5,375.5,343.5" stroke="yellow" stroke-width="1" fill="none" />
<polyline points="382.0,360.5,382.0,364.5" stroke="orange" stroke-width="1" fill="none" />
<polyline points="" stroke="black" stroke-width="1" fill="none" />
<polyline points="" stroke="orange" stroke-width="1" fill="none" />
<polyline points="349.5,416.5,352.5,416.0,342.0,411.5,339.5,400.0,338.5,402.5,331.5,397.5,328.5,400.5,325.5,397.5,316.0,396.5,311.0,399.0,311.5,389.5,312.5,392.0,307.5,397.5,306.5,394.0" stroke="orange" stroke-width="1" fill="none" />
<polyline points="317.0,374.5,332.5,373.0,328.5,361.5,349.0,361.0,336.5,341.5,335.5,334.5,342.5,329.0,342.0,340.5" stroke="black" stroke-width="1" fill="none" />
<polyline points="347.0,324.5,345.0,329.0" stroke="black" stroke-width="1" fill="none" />
<polyline points="366.5,386.0,360.5,377.5,358.0,381.5,362.0,377.5,352.0,389.0,356.5,399.5,359.0,399.5,356.5,410.5,349.5,398.5,349.0,400.0" stroke="yellow" stroke-width="1" fill="none" />
<polyline points="" stroke="yellow" stroke-width="1" fill="none" />
<polyline points="" stroke="yellow" stroke-width="1" fill="none" />
<polyline points="370.5,352.0,351.0,357.0,358.0,363.5,358.0,368.0,357.0,371.5,351.0,369.0,365.0,382.0,358.0,386.0,358.0,380.0,356.0,383.0,350.5,396.5,362.5,402.0,363.0,401.0,351.5,409.5" stroke="yellow" stroke-width="1" fill="none" />
<polyline points="385.5,457.5,379.5,457.0,365.5,461.0,370.5,454.0,373.5,444.5,375.5,444.0,385.0,434.0,385.5,450.0,377.0,429.0,373.0,434.0,381.5,416.0,374.5,414.0,378.5,419.5,382.5,405.5,382.0,403.0,380.5,397.0,385.5,393.5,373.5,394.0,385.5,388.5,378.0,395.0,389.5,380.5,383.0,373.5,383.0,374.5,375.0,354.5,384.5,356.0,381.5,357.5,381.0,355.5,390.5,359.5,377.5,359.0,385.5,335.5,374.5,344.5,378.0,341.5,379.5,322.0,373.0,331.0,376.5,321.5,386.5,325.0,388.5,326.0,378.5,322.0,380.5,306.5,380.0,305.5,371.0,296.0,376.5,297.5,371.5,296.5,375.5,290.0,371.0,281.0,382.0,292.5,365.5,277.0,372.5,267.5,373.0,270.0,376.0,270.0,379.5,259.5,372.5,266.0,370.0,253.5,368.0,245.5,366.0,245.0,358.0,242.5,369.5,240.0,363.0,237.0,381.5,234.0,356.0,227.5,364.0,221.0,363.0,212.5,357.0,216.5,364.5,218.5,359.0,207.5,351.5,192.5,351.5,193.0,352.0,202.0,350.5,198.5" stroke="green" stroke-width="1" fill="none" />
<polyline points="" stroke="orange" stroke-width="1" fill="none" />
<polyline points="350.5,211.5" stroke="yellow" stroke-width="1" fill="none" />
<polyline points="" stroke="green" stroke-width="1" fill="none" />
<polyline points="363.0,207.5,365.5,205.0,361.0,201.0" stroke="black" stroke-width="1" fill="none" />
<polyline points="" stroke="yellow" stroke-width="1" fill="none" />
<polyline points="" stroke="yellow" stroke-width="1" fill="none" />
<polyline points="" stroke="orange" stroke-width="1" fill="none" />
<polyline points="352.5,239.0,357.5,234.0,369.5,242.5,361.5,244.0" stroke="orange" stroke-width="1" fill="none" />
<polyline points="" stroke="black" stroke-width="1" fill="none" />
<polyline points="" stroke="yellow" stroke-width="1" fill="none" />
<polyline points="" stroke="orange" stroke-width="1" fill="none" />
<polyline points="338.5,247.5,344.5,243.5,346.5,257.5,342.0,249.5,338.5,255.5" stroke="black" stroke-width="1" fill="none" />
<polyline points="" stroke="black" stroke-width="1" fill="none" />
<polyline points="" stroke="green" stroke-width="1" fill="none" />
<polyline points="348.5,276.5,349.5,285.0,354.5,298.5,342.0,303.0,347.0,309.0,356.0,307.0,347.0,309.5,336.5,320.5,350.0,319.0,337.5,320.5,345.5,326.0,341.5,329.0,324.5,332.0,338.0,340.5,335.0,348.0,331.0,341.0,320.5,343.0,326.5,360.5,317.0,359.5,329.0,364.0,317.5,363.5,311.5,372.5,326.5,374.0,318.5,375.0,312.5,383.5,322.5,379.5,308.5,395.0,326.0,386.5,336.5,398.5,333.5,398.0,339.0,397.5,352.0,397.5,346.5,418.0,349.5,414.5,350.0,415.0,353.0,422.5,357.0,433.0,357.5,427.0,360.0,437.5,359.0,439.0,369.0,448.5,361.0,448.0,362.0,450.5,369.0,449.5,369.5,462.5,361.0,463.0,366.5,467.5,361.5,476.5,374.0,475.5,381.0,476.0,372.0,485.0,390.5,493.5,377.0,492.5,379.0,501.5,379.5,500.5,383.0,502.0,382.5,507.0,384.0,508.0" stroke="black" stroke-width="1" fill="none" />
<polyline points="449.0,470.5,441.5,465.5,448.0,472.0,453.5,467.0,450.0,469.0,460.5,473.0" stroke="orange" stroke-width="1" fill="none" />
<polyline points="" stroke="yellow" stroke-width="1" fill="none" />
<polyline points="" stroke="yellow" stroke-width="1" fill="none" />
<polyline points="469.0,426.5,473.0,421.0,480.0,408.5,475.0,411.5,471.5,397.0,488.0,412.0,496.0,390.5,499.0,402.5,493.5,395.0,513.5,390.5" stroke="green" stroke-width="1" fill="none" />
<polyline points="494.5,393.0,491.0,402.5,481.0,406.0,483.0,403.5,483.0,416.5,486.5,413.0,471.5,420.5,475.5,423.0,476.5,421.0,460.5,433.0,467.5,435.0,464.0,436.5,452.5,441.0,455.5,450.0,456.0,451.5,456.0,455.5,457.0,447.0,450.5,462.0,442.5,471.5,449.0,460.5,448.0,468.0,450.5,461.0" stroke="black" stroke-width="1" fill="none" />
<polyline points="436.5,469.5,437.5,474.5,438.0,463.5,437.0,465.0,436.0,453.5,426.5,452.0" stroke="green" stroke-width="1" fill="none" />
<polyline points="427.0,426.5,423.5,437.5,431.5,442.5,433.5,431.5,425.5,430.0,432.0,430.5,435.0,431.5" stroke="yellow" stroke-width="1" fill="none" />
<polyline points="416.5,480.5,411.5,487.5,415.5,484.5,413.5,486.0" stroke="orange" stroke-width="1" fill="none" />
<polyline points="" stroke="yellow" stroke-width="1" fill="none" />
<polyline points="" stroke="yellow" stroke-width="1" fill="none" />
<polyline points="450.5,419.0,457.5,409.5,451.5,407.5,449.5,408.0,455.0,407.0,464.0,402.0,460.0,390.0,452.5,393.5,452.0,398.5,455.5,388.0,454.0,390.0,458.5,361.0,449.5,375.5,452.0,380.0,452.0,376.5" stroke="yellow" stroke-width="1" fill="none" />
<polyline points="" stroke="orange" stroke-width="1" fill="none" />
<polyline points="" stroke="black" stroke-width="1" fill="none" />
<polyline points="" stroke="yellow" stroke-width="1" fill="none" />
<polyline points="" stroke="yellow" stroke-width="1" fill="none" />
<polyline points="" stroke="green" stroke-width="1" fill="none" />
<polyline points="" stroke="green" stroke-width="1" fill="none" />
<polyline points="286.5,348.5" stroke="yellow" stroke-width="1" fill="none" />
<polyline points="" stroke="yellow" stroke-width="1" fill="none" />
<polyline points="" stroke="orange" stroke-width="1" fill="none" />
<polyline points="" stroke="green" stroke-width="1" fill="none" />
<polyline points="324.0,310.0" stroke="green" stroke-width="1" fill="none" />
<polyline points="337.0,277.5" stroke="green" stroke-width="1" fill="none" />
<polyline points="334.5,265.0" stroke="black" stroke-width="1" fill="none" />
<polyline points="" stroke="orange" stroke-width="1" fill="none" />
<polyline points="" stroke="black" stroke-width="1" fill="none" />
<polyline points="" stroke="black" stroke-width="1" fill="none" />
<polyline points="343.0,263.0,342.5,261.0,353.0,259.5,351.5,252.0,359.0,253.5,360.0,256.5,359.5,261.5" stroke="yellow" stroke-width="1" fill="none" />
<polyline points="339.5,224.5,342.0,225.5,344.0,213.0" stroke="orange" stroke-width="1" fill="none" />
<polyline points="363.0,197.0,370.0,179.0,368.5,188.5,371.0,180.0,382.5,172.0,375.5,184.5,379.0,178.0,380.0,169.5,386.5,168.0,395.5,174.5,396.0,168.5,397.0,165.0,406.0,164.5,402.5,164.0,400.0,176.0,406.0,179.0,394.5,176.5,389.5,187.0,379.0,184.5,384.5,183.5,390.5,185.0,384.5,182.5,382.0,180.5" stroke="black" stroke-width="1" fill="none" />
<polyline points="403.0,173.5,395.0,170.0" stroke="black" stroke-width="1" fill="none" />
<polyline points="361.0,193.5,357.5,201.0,344.0,193.5,341.0,205.0,344.0,207.5,347.5,203.0" stroke="black" stroke-width="1" fill="none" />
<polyline points="" stroke="green" stroke-width="1" fill="none" />
<polyline points="" stroke="yellow" stroke-width="1" fill="none" />
<polyline points="347.5,219.0,349.5,216.5" stroke="black" stroke-width="1" fill="none" />
<polyline points="" stroke="green" stroke-width="1" fill="none" />
<polyline points="" stroke="green" stroke-width="1" fill="none" />
<polyline points="" stroke="green" stroke-width="1" fill="none" />
<polyline points="" stroke="black" stroke-width="1" fill="none" />
<polyline points="" stroke="orange" stroke-width="1" fill="none" />
<polyline points="" stroke="green" stroke-width="1" fill="none" />
<polyline points="396.5,175.5,391.5,172.5,393.5,173.5,383.5,177.5,385.0,170.5,384.5,169.0" stroke="yellow" stroke-width="1" fill="none" />
<polyline points="394.5,160.5,390.0,188.0,390.0,167.0,393.0,152.0,393.5,158.5,401.5,162.0,400.0,149.0,411.0,156.5" stroke="black" stroke-width="1" fill="none" />
<polyline points="401.0,128.5,396.0,130.0,390.0,137.5,393.0,143.0,388.5,139.5" stroke="orange" stroke-width="1" fill="none" />
<polyline points="396.0,132.0,399.5,129.0,391.5,129.5" stroke="yellow" stroke-width="1" fill="none" />
<polyline points="379.5,134.5" stroke="black" stroke-width="1" fill="none" />
<polyline points="304.0,166.0,301.5,167.0,302.5,165.0" stroke="black" stroke-width="1" fill="none" />
<polyline points="" stroke="orange" stroke-width="1" fill="none" />
<polyline points="" stroke="yellow" stroke-width="1" fill="none" />
<polyline points="" stroke="orange" stroke-width="1" fill="none" />
<polyline points="" stroke="green" stroke-width="1" fill="none" />
<polyline points="272.0,179.5,250.5,182.5,255.5,176.0,248.0,188.5,240.0,189.0,237.5,175.0,229.0,191.5,220.5,172.0,245.5,173.5,242.0,175.0,235.5,170.0" stroke="green" stroke-width="1" fill="none" />
<polyline points="260.5,184.5,254.0,178.0,250.5,197.0,253.5,182.5,252.0,199.0,235.5,200.5,242.5,199.0,244.5,210.0,224.0,204.5,242.0,211.0,237.0,211.5,252.5,204.0,248.5,212.0,245.5,204.5,252.5,212.0,251.5,205.5,259.0,213.5,254.5,221.0,250.0,214.5,242.0,228.5,228.5,236.0,243.0,239.5,232.5,249.5,236.0,252.5,231.0,255.0,229.0,243.0,228.5,252.0,235.5,259.0,220.0,266.0,223.5,269.0,220.0,273.5,210.5,281.0,210.0,273.0,205.5,295.5,204.5,293.5,200.0,297.0,201.5,294.0,200.0,300.0,185.0,295.5,198.0,313.5,187.5,312.0,198.0,307.0,185.0,312.5,181.0,310.0,177.0,327.0,178.5,335.0,175.5,338.0,164.5,346.0,165.0,341.0,164.0,342.0" stroke="green" stroke-width="1" fill="none" />
<polyline points="160.0,360.0,156.0,357.5,160.0,350.5,160.5,356.0,152.5,354.5,164.0,361.0,150.5,360.5,147.5,361.0,152.5,371.5,152.5,374.5,150.5,378.5,159.0,394.0,151.5,395.0,152.5,390.5,159.0,399.0,173.0,403.0,165.0,406.0,166.5,413.0,171.5,413.0" stroke="green" stroke-width="1" fill="none" />
<polyline points="" stroke="orange" stroke-width="1" fill="none" />
<polyline points="" stroke="green" stroke-width="1" fill="none" />
<polyline points="" stroke="yellow" stroke-width="1" fill="none" />
<polyline points="" stroke="green" stroke-width="1" fill="none" />
<polyline points="" stroke="orange" stroke-width="1" fill="none" />
<polyline points="" stroke="black" stroke-width="1" fill="none" />
<polyline points="" stroke="yellow" stroke-width="1" fill="none" />
<polyline points="" stroke="yellow" stroke-width="1" fill="none" />
<polyline points="148.5,451.5,147.0,454.0" stroke="green" stroke-width="1" fill="none" />
<polyline points="143.5,473.5,154.5,480.0,158.5,480.5,157.5,484.0,161.0,481.0,164.5,484.5" stroke="orange" stroke-width="1" fill="none" />
<polyline points="" stroke="orange" stroke-width="1" fill="none" />
<polyline points="171.0,493.5,163.5,491.5,161.0,497.5,157.5,502.0,151.5,504.0,148.5,489.0,135.0,496.5" stroke="green" stroke-width="1" fill="none" />
<polyline points="" stroke="green" stroke-width="1" fill="none" />
<polyline points="" stroke="orange" stroke-width="1" fill="none" />
<polyline points="" stroke="orange" stroke-width="1" fill="none" />
<polyline points="" stroke="black" stroke-width="1" fill="none" />
<polyline points="" stroke="green" stroke-width="1" fill="none" />
<polyline points="158.0,497.5" stroke="green" stroke-width="1" fill="none" />
<polyline points="" stroke="black" stroke-width="1" fill="none" />
<polyline points="153.0,491.0,155.5,490.5,148.5,501.0,147.0,494.0,160.5,506.0,153.5,501.0,157.0,504.0" stroke="black" stroke-width="1" fill="none" />
<polyline points="" stroke="orange" stroke-width="1" fill="none" />
<polyline points="" stroke="black" stroke-width="1" fill="none" />
<polyline points="" stroke="green" stroke-width="1" fill="none" />
<polyline points="" stroke="green" stroke-width="1" fill="none" />
<polyline points="" stroke="black" stroke-width="1" fill="none" />
<polyline points="" stroke="green" stroke-width="1" fill="none" />
<polyline points="" stroke="black" stroke-width="1" fill="none" />
<polyline points="" stroke="orange" stroke-width="1" fill="none" />
<polyline points="" stroke="black" stroke-width="1" fill="none" />
<polyline points="" stroke="yellow" stroke-width="1" fill="none" />
<polyline points="140.5,491.5,150.5,502.5,136.5,496.0,145.5,518.0,145.0,511.5" stroke="yellow" stroke-width="1" fill="none" />
<polyline points="" stroke="orange" stroke-width="1" fill="none" />
<polyline points="" stroke="green" stroke-width="1" fill="none" />
<polyline points="" stroke="orange" stroke-width="1" fill="none" />
<polyline points="" stroke="orange" stroke-width="1" fill="none" />
<polyline points="157.5,490.5,165.5,487.0,165.0,491.5,159.5,494.5" stroke="black" stroke-width="1" fill="none" />
<polyline points="219.5,483.5,220.0,486.0,219.0,479.0,219.5,475.5,227.0,465.5,228.0,462.0" stroke="yellow" stroke-width="1" fill="none" />
<polyline points="" stroke="green" stroke-width="1" fill="none" />
<polyline points="222.5,463.0,218.5,457.5,224.0,470.5,234.5,456.0,234.0,458.0,226.0,460.0,230.5,455.0,240.5,436.0,235.0,439.5,243.5,440.0,244.0,422.5,233.0,435.5,233.0,430.0,238.0,416.5,241.0,426.5,239.0,415.0,226.5,412.0,231.5,406.0,225.0,416.0,215.0,404.5,220.5,402.5" stroke="green" stroke-width="1" fill="none" />
<polyline points="" stroke="black" stroke-width="1" fill="none" />
<polyline points="" stroke="green" stroke-width="1" fill="none" />
<polyline points="247.5,435.0,241.5,430.5,239.0,440.0,243.0,440.5,234.0,439.0,229.5,441.5,233.0,461.5,227.0,456.0,232.5,475.0,218.0,472.5,234.5,468.0,217.5,468.5,221.0,472.5" stroke="green" stroke-width="1" fill="none" />
<polyline points="193.5,492.0,204.0,496.5,213.0,495.5,219.0,488.5,214.0,482.5" stroke="yellow" stroke-width="1" fill="none" />
<polyline points="" stroke="green" stroke-width="1" fill="none" />
<polyline points="182.0,450.0,179.5,455.5,179.0,455.0,178.0,453.0,178.0,456.5,192.0,444.5,179.5,437.5,182.0,441.5,181.0,450.0,175.0,435.5,181.5,424.5,184.0,425.5,182.0,415.5,168.5,412.0,175.0,415.0,176.5,411.5,171.0,408.5,165.5,400.0,165.5,400.0,164.5,390.0,157.5,392.5" stroke="orange" stroke-width="1" fill="none" />
<polyline points="157.0,362.5,168.0,369.0,158.5,364.0,180.0,360.5,180.0,347.5" stroke="green" stroke-width="1" fill="none" />
<polyline points="" stroke="green" stroke-width="1" fill="none" />
<polyline points="205.5,311.5,202.0,295.0,216.5,283.0,211.0,274.5,220.5,274.5,218.0,259.5" stroke="yellow" stroke-width="1" fill="none" />
<polyline points="" stroke="orange" stroke-width="1" fill="none" />
<polyline points="" stroke="yellow" stroke-width="1" fill="none" />
<polyline points="271.5,240.5,254.5,232.5,266.0,229.0,264.5,235.0,254.5,237.0,252.0,235.5,251.0,237.0,244.0,242.0,247.0,258.5,247.0,259.5,227.0,258.0,225.0,270.5,221.5,266.0,215.0,273.0,220.0,290.0,216.5,279.0,225.5,272.5,218.5,272.5,243.5,269.5,223.0,258.5,229.5,254.0,228.0,252.0,240.0,254.5,251.5,250.5,249.0,243.0,256.0,240.0,248.0,232.0,251.0,232.0,254.5,220.5,276.0,226.0,268.5,213.0,269.0,215.0,264.5,218.0,265.0,212.0,271.0,208.5,279.5,209.0,275.0,197.5,281.5,196.0,267.5,181.5,288.0,185.0,272.5,195.5,272.5,202.0,262.5,208.0,265.0,203.0,262.5,203.0" stroke="orange" stroke-width="1" fill="none" />
<polyline points="" stroke="yellow" stroke-width="1" fill="none" />
<polyline points="258.0,223.0,251.0,221.5,253.0,213.5,244.0,213.5,247.0,231.5,240.5,250.5,241.0,229.0,228.5,240.5,229.5,236.0,230.0,217.0,234.0,222.0,234.5,216.0,229.0,212.5,214.5,218.0,236.5,205.5,225.0,212.5,230.5,208.5,225.0,212.0" stroke="black" stroke-width="1" fill="none" />
<polyline points="" stroke="green" stroke-width="1" fill="none" />
<polyline points="" stroke="black" stroke-width="1" fill="none" />
<polyline points="" stroke="green" stroke-width="1" fill="none" />
<polyline points="244.5,198.0,250.5,176.0,244.0,185.0,235.5,202.5,249.0,190.0,255.5,194.0,248.0,183.5,254.5,193.0,262.5,197.0" stroke="green" stroke-width="1" fill="none" />
<polyline points="256.0,202.5,246.0,206.5,254.0,204.0,261.0,189.5,251.5,203.5,248.5,198.5,264.0,190.0,264.0,185.0,270.0,182.0" stroke="orange" stroke-width="1" fill="none" />
<polyline points="271.5,198.5,261.5,194.5,267.0,194.0" stroke="black" stroke-width="1" fill="none" />
<polyline points="255.0,217.0,256.5,217.5,252.0,209.5,253.0,207.5" stroke="orange" stroke-width="1" fill="none" />
<polyline points="258.5,214.5,245.0,223.0,252.0,213.0,247.0,225.0,239.5,227.5,235.5,223.0" stroke="green" stroke-width="1" fill="none" />
<polyline points="" stroke="black" stroke-width="1" fill="none" />
<polyline points="" stroke="orange" stroke-width="1" fill="none" />
<polyline points="" stroke="black" stroke-width="1" fill="none" />
<polyline points="216.5,228.5,217.0,225.5" stroke="yellow" stroke-width="1" fill="none" />
<polyline points="" stroke="orange" stroke-width="1" fill="none" />
<polyline points="217.5,244.5,220.5,240.5,224.5,242.0,231.5,238.5,213.5,227.0,222.0,229.5,223.5,234.5,220.0,229.5,215.5,221.5,213.5,214.5" stroke="green" stroke-width="1" fill="none" />
<polyline points="224.5,231.5,224.5,235.0" stroke="yellow" stroke-width="1" fill="none" />
<polyline points="209.0,277.5,211.0,275.5,211.5,275.5,211.0,283.0,195.0,293.0,192.5,295.0,195.0,305.5,187.0,309.5,186.5,313.0,182.0,324.5,176.5,323.5,172.0,332.0" stroke="green" stroke-width="1" fill="none" />
<polyline points="150.5,329.0" stroke="yellow" stroke-width="1" fill="none" />
<polyline points="" stroke="yellow" stroke-width="1" fill="none" />
<polyline points="" stroke="yellow" stroke-width="1" fill="none" />
<polyline points="132.5,343.5,137.5,332.0,132.0,337.0,135.5,325.5,133.0,327.0,131.0,323.5" stroke="yellow" stroke-width="1" fill="none" />
<polyline points="" stroke="green" stroke-width="1" fill="none" />
<polyline points="" stroke="yellow" stroke-width="1" fill="none" />
<polyline points="" stroke="black" stroke-width="1" fill="none" />
<polyline points="" stroke="black" stroke-width="1" fill="none" />
<polyline points="" stroke="green" stroke-width="1" fill="none" />
<polyline points="" stroke="green" stroke-width="1" fill="none" />
<polyline points="" stroke="black" stroke-width="1" fill="none" />
<polyline points="165.0,276.0,168.5,269.0,162.0,275.5,172.0,260.0,168.0,255.5,177.5,244.5,169.5,251.0,168.0,252.5" stroke="yellow" stroke-width="1" fill="none" />
<polyline points="" stroke="black" stroke-width="1" fill="none" />
<polyline points="" stroke="black" stroke-width="1" fill="none" />
<polyline points="" stroke="black" stroke-width="1" fill="none" />
<polyline points="" stroke="black" stroke-width="1" fill="none" />
<polyline points="" stroke="yellow" stroke-width="1" fill="none" />
<polyline points="" stroke="black" stroke-width="1" fill="none" />
<polyline points="" stroke="black" stroke-width="1" fill="none" />
<polyline points="" stroke="black" stroke-width="1" fill="none" />
<polyline points="" stroke="orange" stroke-width="1" fill="none" />
<polyline points="" stroke="yellow" stroke-width="1" fill="none" />
<polyline points="" stroke="black" stroke-width="1" fill="none" />
<polyline points="" stroke="green" stroke-width="1" fill="none" />
<polyline points="" stroke="orange" stroke-width="1" fill="none" />
<polyline points="" stroke="black" stroke-width="1" fill="none" />
<polyline points="" stroke="black" stroke-width="1" fill="none" />
<polyline points="" stroke="black" stroke-width="1" fill="none" />
<polyline points="" stroke="black" stroke-width="1" fill="none" />
<polyline points="178.5,256.0,187.0,252.0,181.0,252.0,181.0,251.0,194.5,249.5,193.5,252.5,190.0,241.0,193.5,233.0,191.5,231.5,196.5,246.0,197.5,253.5" stroke="green" stroke-width="1" fill="none" />
<polyline points="181.0,239.0,183.0,240.0" stroke="orange" stroke-width="1" fill="none" />
<polyline points="174.0,224.0,183.0,233.0,186.5,233.5" stroke="orange" stroke-width="1" fill="none" />
<polyline points="" stroke="green" stroke-width="1" fill="none" />
<polyline points="" stroke="green" stroke-width="1" fill="none" />
<polyline points="" stroke="orange" stroke-width="1" fill="none" />
<polyline points="" stroke="orange" stroke-width="1" fill="none" />
<polyline points="" stroke="black" stroke-width="1" fill="none" />
<polyline points="219.0,205.0,223.5,210.5,222.5,214.0,221.0,221.0,216.5,223.5,225.5,226.5,227.0,229.5,234.0,233.5,228.0,231.0,235.5,238.0,237.5,238.0,240.5,247.0,219.0,251.5,222.5,250.0,229.0,253.5,217.0,256.5,217.5,275.0,213.5,270.5,208.5,271.0,212.0,276.5,211.5,283.5,211.0,279.5,199.5,299.0,204.0,299.0,196.5,296.0,199.5,306.0,194.5,304.5,192.0,300.5,188.0,308.5,186.0,325.5,196.0,326.0,205.0,324.0,199.0,323.5,204.0,316.5,212.5,311.5,213.0,304.0,206.5,297.0,212.0,292.0,225.5,289.5,227.5,270.0,224.0,277.5,240.5,270.5,246.0,265.0,241.5,264.5,241.0,262.5,253.5,264.0,261.0,255.0,259.5,241.0,268.0,250.0,275.0,248.0,272.5,250.5,283.5,247.5,275.5,247.0,276.0,247.0,277.0,247.0" stroke="orange" stroke-width="1" fill="none" />
<polyline points="" stroke="black" stroke-width="1" fill="none" />
<polyline points="" stroke="green" stroke-width="1" fill="none" />
<polyline points="" stroke="green" stroke-width="1" fill="none" />
<polyline points="" stroke="yellow" stroke-width="1" fill="none" />
<polyline points="" stroke="green" stroke-width="1" fill="none" />
<polyline points="" stroke="green" stroke-width="1" fill="none" />
<polyline points="" stroke="black" stroke-width="1" fill="none" />
<polyline points="" stroke="green" stroke-width="1" fill="none" />
<polyline points="272.0,270.0,266.5,273.0,282.0,272.5,274.0,287.5,275.0,289.5" stroke="black" stroke-width="1" fill="none" />
<polyline points="251.5,282.0,253.5,277.0,255.5,280.5,258.5,261.5" stroke="yellow" stroke-width="1" fill="none" />
<polyline points="250.5,272.0,269.5,270.5,269.5,274.5,263.0,278.5" stroke="black" stroke-width="1" fill="none" />
<polyline points="" stroke="yellow" stroke-width="1" fill="none" />
<polyline points="264.0,276.0,264.5,267.0" stroke="black" stroke-width="1" fill="none" />
<polyline points="" stroke="green" stroke-width="1" fill="none" />
<polyline points="" stroke="yellow" stroke-width="1" fill="none" />
<polyline points="" stroke="orange" stroke-width="1" fill="none" />
<polyline points="276.0,262.5,271.0,261.5,268.5,260.0,261.0,252.0,265.0,253.0" stroke="orange" stroke-width="1" fill="none" />
<polyline points="" stroke="black" stroke-width="1" fill="none" />
<polyline points="288.5,267.0,290.5,267.0,289.0,273.0" stroke="black" stroke-width="1" fill="none" />
<polyline points="" stroke="yellow" stroke-width="1" fill="none" />
<polyline points="250.0,256.5,257.0,266.0,260.0,259.0,240.5,275.5,226.5,274.5,234.5,277.5,231.0,275.5,224.0,285.5,221.0,290.0,212.5,298.5,223.5,307.5,210.0,308.5,213.5,313.5,203.5,322.5,206.5,307.0,199.5,317.0,204.0,317.0,203.0,326.0,189.5,319.0,199.0,330.0,198.0,335.5,187.5,336.5,181.0,348.5,173.5,352.0,189.5,351.0,185.0,353.5,178.0,366.5,162.0,367.5,160.0,374.0,168.5,368.5,160.0,375.0,160.5,380.0,158.0,387.5,174.0,391.0,169.5,396.5,168.5,393.5" stroke="orange" stroke-width="1" fill="none" />
<polyline points="151.0,394.5" stroke="green" stroke-width="1" fill="none" />
<polyline points="166.5,383.0,151.0,382.0,142.5,380.0,146.5,375.0" stroke="green" stroke-width="1" fill="none" />
<polyline points="" stroke="orange" stroke-width="1" fill="none" />
<polyline points="" stroke="orange" stroke-width="1" fill="none" />
<polyline points="148.0,421.5,134.5,404.5,133.0,411.5,140.5,420.0,139.5,420.0,136.0,417.5,151.0,435.0,138.5,440.5,154.0,430.5,142.0,431.0,139.5,447.0,148.0,450.0,146.5,455.0,149.5,475.5,145.0,467.5,136.0,460.5,130.0,473.5,141.0,482.5,152.0,471.5,157.5,471.0,164.0,479.0,158.5,494.0,169.0,484.0,163.5,477.5" stroke="green" stroke-width="1" fill="none" />
<polyline points="" stroke="black" stroke-width="1" fill="none" />
<polyline points="167.5,455.0,174.0,456.5,163.0,445.5,172.0,449.0,174.0,443.0,159.5,435.5,163.5,436.5,164.0,445.0,165.0,440.5" stroke="black" stroke-width="1" fill="none" />
<polyline points="" stroke="black" stroke-width="1" fill="none" />
<polyline points="157.5,418.0,176.0,422.0,169.0,425.5,158.0,415.0,160.0,412.5,171.5,408.0,167.5,403.0,150.0,395.0,151.5,402.5,173.5,385.0,153.0,390.5,151.5,387.5,155.5,386.5,151.5,383.0,164.5,372.5,153.5,369.5,152.5,373.5,153.0,371.0" stroke="orange" stroke-width="1" fill="none" />
<polyline points="154.5,383.5,158.0,377.5,159.5,387.5,156.0,394.0,162.5,395.0,159.0,391.5,172.0,396.5" stroke="black" stroke-width="1" fill="none" />
<polyline points="182.0,436.0,181.5,434.5,171.5,428.5,174.0,432.0,171.0,437.0,173.0,444.0,168.0,445.5,184.5,460.5,180.0,454.0,186.5,457.5,182.5,460.5,174.0,459.0,167.5,455.5" stroke="orange" stroke-width="1" fill="none" />
<polyline points="" stroke="black" stroke-width="1" fill="none" />
<polyline points="164.5,454.0,169.5,455.5,174.5,457.0,166.5,472.0,166.5,464.5,167.5,468.5,171.5,463.5,166.0,473.0,160.0,477.0,170.0,486.0,169.0,475.0,151.0,484.5,164.0,498.0" stroke="orange" stroke-width="1" fill="none" />
<polyline points="" stroke="green" stroke-width="1" fill="none" />
<polyline points="" stroke="green" stroke-width="1" fill="none" />
<polyline points="" stroke="yellow" stroke-width="1" fill="none" />
<polyline points="150.0,434.5,152.5,439.5,142.0,431.5,152.0,425.0,141.0,418.0,151.0,417.5,134.5,413.5,132.0,412.5,133.5,412.5,140.5,397.0,137.0,411.0,136.0,401.5" stroke="yellow" stroke-width="1" fill="none" />
<polyline points="" stroke="black" stroke-width="1" fill="none" />
<polyline points="" stroke="orange" stroke-width="1" fill="none" />
<polyline points="144.5,398.0" stroke="orange" stroke-width="1" fill="none" />
<polyline points="158.0,435.5,164.0,443.5,158.5,444.0" stroke="yellow" stroke-width="1" fill="none" />
<polyline points="163.0,444.5,175.5,447.5,166.0,445.0,169.5,433.5,176.0,437.0" stroke="black" stroke-width="1" fill="none" />
<polyline points="165.5,422.0" stroke="orange" stroke-width="1" fill="none" />
<polyline points="160.5,421.0,170.5,429.0,167.5,439.0,165.5,433.0,169.5,434.0,159.5,425.0,159.0,430.0,157.5,436.5,167.5,425.5" stroke="yellow" stroke-width="1" fill="none" />
<polyline points="" stroke="orange" stroke-width="1" fill="none" />
<polyline points="160.0,462.5" stroke="yellow" stroke-width="1" fill="none" />
<polyline points="" stroke="green" stroke-width="1" fill="none" />
<polyline points="" stroke="green" stroke-width="1" fill="none" />
<polyline points="" stroke="yellow" stroke-width="1" fill="none" />
<polyline points="" stroke="black" stroke-width="1" fill="none" />
<polyline points="140.5,458.5,155.0,466.5,148.5,474.5,144.0,460.5,143.5,468.5,150.0,468.5,157.5,487.0" stroke="orange" stroke-width="1" fill="none" />
<polyline points="" stroke="black" stroke-width="1" fill="none" />
<polyline points="" stroke="yellow" stroke-width="1" fill="none" />
<polyline points="153.5,478.0" stroke="green" stroke-width="1" fill="none" />
<polyline points="131.0,473.0,147.5,472.0,151.5,478.0" stroke="black" stroke-width="1" fill="none" />
<polyline points="" stroke="yellow" stroke-width="1" fill="none" />
<polyline points="144.0,462.0,143.0,466.5,147.0,460.5,153.5,482.0,150.5,477.0,156.0,480.0,154.0,482.5" stroke="black" stroke-width="1" fill="none" />
<polyline points="162.5,442.0,160.5,452.5,154.5,446.0,158.0,450.0,150.0,444.5,150.5,431.5,156.5,450.5,160.5,438.5,144.5,434.0,146.0,425.0,148.0,420.0" stroke="green" stroke-width="1" fill="none" />
<polyline points="" stroke="orange" stroke-width="1" fill="none" />
<polyline points="" stroke="yellow" stroke-width="1" fill="none" />
<polyline points="" stroke="yellow" stroke-width="1" fill="none" />
<polyline points="" stroke="orange" stroke-width="1" fill="none" />
<polyline points="153.0,407.0,142.5,396.0,147.5,397.0,145.5,397.5" stroke="green" stroke-width="1" fill="none" />
<polyline points="" stroke="black" stroke-width="1" fill="none" />
<polyline points="" stroke="orange" stroke-width="1" fill="none" />
<polyline points="139.5,391.5,131.5,405.0,134.0,397.0,121.5,402.5,129.5,389.0,127.5,387.0" stroke="orange" stroke-width="1" fill="none" />
<polyline points="" stroke="yellow" stroke-width="1" fill="none" />
<polyline points="144.0,384.0,143.5,393.5,140.0,376.0,140.0,378.0,142.0,363.0,152.5,371.5,147.0,365.0,150.0,352.0,147.0,348.0,144.0,352.5,138.5,350.5,139.5,356.5,140.0,351.0,138.0,338.5,129.0,332.0,129.5,331.0,134.0,318.0,129.5,317.0,128.5,324.5,133.5,301.0,128.5,312.5,142.5,305.5,131.0,290.5,127.0,292.5,129.5,290.5" stroke="yellow" stroke-width="1" fill="none" />
<polyline points="140.5,280.5,122.0,294.5,133.0,291.0,139.0,294.0,121.0,301.0,124.0,291.0,124.5,311.5,125.0,315.0,118.0,316.5,118.0,323.0" stroke="yellow" stroke-width="1" fill="none" />
<polyline points="" stroke="orange" stroke-width="1" fill="none" />
<polyline points="133.5,350.5,125.5,353.5,122.5,364.5,127.0,362.5,116.5,369.5,121.5,376.5,115.5,382.0,110.0,383.5,122.5,380.5" stroke="green" stroke-width="1" fill="none" />
<polyline points="126.0,377.0,115.0,378.5,123.5,378.0,123.0,378.5,123.5,376.0,122.5,375.0" stroke="green" stroke-width="1" fill="none" />
<polyline points="" stroke="green" stroke-width="1" fill="none" />
<polyline points="" stroke="green" stroke-width="1" fill="none" />
<polyline points="" stroke="orange" stroke-width="1" fill="none" />
<polyline points="" stroke="black" stroke-width="1" fill="none" />
<polyline points="" stroke="orange" stroke-width="1" fill="none" />
<polyline points="" stroke="black" stroke-width="1" fill="none" />
<polyline points="124.0,437.5,136.0,419.5" stroke="yellow" stroke-width="1" fill="none" />
<polyline points="" stroke="green" stroke-width="1" fill="none" />
<polyline points="" stroke="black" stroke-width="1" fill="none" />
<polyline points="" stroke="orange" stroke-width="1" fill="none" />
<polyline points="" stroke="green" stroke-width="1" fill="none" />
<polyline points="" stroke="orange" stroke-width="1" fill="none" />
<polyline points="175.0,398.0,166.0,402.0,170.0,408.5,171.5,435.0" stroke="yellow" stroke-width="1" fill="none" />
<polyline points="139.0,407.5,155.0,391.0,144.0,388.5,138.0,378.5,139.5,391.5,136.5,381.0,119.0,379.5,138.0,378.5,126.5,374.5,133.0,376.5,122.0,366.0,136.5,357.0,134.5,359.5,130.0,356.0,122.5,359.0,128.0,350.5,142.5,344.0,132.5,345.5,121.5,339.5,126.0,338.0,131.5,329.5,119.0,332.0,130.5,327.0,116.0,308.0" stroke="orange" stroke-width="1" fill="none" />
<polyline points="122.5,332.5,127.0,336.5" stroke="black" stroke-width="1" fill="none" />
<polyline points="126.5,341.5,118.0,350.5,120.5,356.5,117.5,356.0,122.5,366.0,124.0,378.0,121.5,373.0,125.5,372.0,135.0,374.5,129.0,384.0,133.0,396.0,131.5,399.0" stroke="green" stroke-width="1" fill="none" />
<polyline points="" stroke="yellow" stroke-width="1" fill="none" />
<polyline points="" stroke="yellow" stroke-width="1" fill="none" />
<polyline points="" stroke="black" stroke-width="1" fill="none" />
<polyline points="" stroke="green" stroke-width="1" fill="none" />
<polyline points="" stroke="yellow" stroke-width="1" fill="none" />
<polyline points="144.0,355.5,127.5,351.0,136.5,346.5,139.5,348.5,133.0,340.5,134.0,336.5,131.0,338.0,132.5,333.5,133.0,335.0,131.5,332.5" stroke="yellow" stroke-width="1" fill="none" />
<polyline points="" stroke="green" stroke-width="1" fill="none" />
<polyline points="140.0,343.0" stroke="black" stroke-width="1" fill="none" />
<polyline points="" stroke="black" stroke-width="1" fill="none" />
<polyline points="" stroke="orange" stroke-width="1" fill="none" />
<polyline points="112.5,374.5,107.0,381.5,117.5,377.0,108.5,379.0,112.0,385.5,106.5,384.0,122.0,393.0,98.0,395.0,111.0,397.0,117.5,406.5,110.5,411.5,111.0,417.0" stroke="yellow" stroke-width="1" fill="none" />
<polyline points="" stroke="orange" stroke-width="1" fill="none" />
<polyline points="" stroke="black" stroke-width="1" fill="none" />
<polyline points="" stroke="black" stroke-width="1" fill="none" />
<polyline points="" stroke="black" stroke-width="1" fill="none" />
<polyline points="110.5,445.5,115.0,430.5,110.0,450.5" stroke="yellow" stroke-width="1" fill="none" />
<polyline points="" stroke="orange" stroke-width="1" fill="none" />
<polyline points="" stroke="orange" stroke-width="1" fill="none" />
<polyline points="" stroke="green" stroke-width="1" fill="none" />
<polyline points="" stroke="yellow" stroke-width="1" fill="none" />
<polyline points="" stroke="black" stroke-width="1" fill="none" />
<polyline points="" stroke="black" stroke-width="1" fill="none" />
<polyline points="" stroke="black" stroke-width="1" fill="none" />
<polyline points="" stroke="green" stroke-width="1" fill="none" />
<polyline points="91.5,491.5,104.5,493.5,103.0,505.0,108.5,501.5,104.0,507.5,106.0,505.5" stroke="green" stroke-width="1" fill="none" />
<polyline points="" stroke="yellow" stroke-width="1" fill="none" />
<polyline points="" stroke="black" stroke-width="1" fill="none" />
<polyline points="" stroke="black" stroke-width="1" fill="none" />
<polyline points="" stroke="orange" stroke-width="1" fill="none" />
<polyline points="" stroke="yellow" stroke-width="1" fill="none" />
<polyline points="" stroke="orange" stroke-width="1" fill="none" />
<polyline points="135.0,429.5,130.5,410.5,125.0,416.5,125.0,422.5,125.5,429.5" stroke="orange" stroke-width="1" fill="none" />
<polyline points="141.0,433.0,137.5,451.5,137.5,443.5,141.0,454.5,129.0,459.5,135.5,461.5,138.0,465.5" stroke="orange" stroke-width="1" fill="none" />
<polyline points="" stroke="yellow" stroke-width="1" fill="none" />
<polyline points="" stroke="yellow" stroke-width="1" fill="none" />
<polyline points="" stroke="yellow" stroke-width="1" fill="none" />
<polyline points="" stroke="green" stroke-width="1" fill="none" />
<polyline points="102.0,438.5" stroke="black" stroke-width="1" fill="none" />
<polyline points="92.0,443.0,94.5,448.0,95.0,438.0,96.0,435.0,107.0,436.0,106.0,426.5,109.5,430.5,101.5,419.0" stroke="yellow" stroke-width="1" fill="none" />
<polyline points="" stroke="green" stroke-width="1" fill="none" />
<polyline points="" stroke="orange" stroke-width="1" fill="none" />
<polyline points="" stroke="black" stroke-width="1" fill="none" />
<polyline points="" stroke="green" stroke-width="1" fill="none" />
<polyline points="" stroke="black" stroke-width="1" fill="none" />
<polyline points="90.0,418.0,97.5,408.0,87.0,399.0,93.0,397.0" stroke="yellow" stroke-width="1" fill="none" />
<polyline points="80.5,400.0,82.5,396.0,80.0,408.5,68.0,402.5,75.5,410.0,72.0,414.0,79.0,415.5,74.0,418.0,68.0,426.5,75.0,424.0,69.5,425.0,67.0,436.5,73.0,437.0,64.5,431.5,75.5,448.0,87.0,444.5,66.5,452.0,76.0,462.5,68.0,449.0,77.0,457.0,71.5,463.5,73.0,473.0,68.5,469.5,66.5,476.0,66.5,482.5,68.5,488.5,65.0,487.5,76.0,493.5,65.0,490.5,61.5,498.5" stroke="yellow" stroke-width="1" fill="none" />
<polyline points="" stroke="green" stroke-width="1" fill="none" />
<polyline points="73.0,485.5,62.0,491.0,69.0,493.5" stroke="black" stroke-width="1" fill="none" />
<polyline points="75.0,475.0,67.0,475.0,66.5,483.5,74.0,488.0,74.0,487.0" stroke="black" stroke-width="1" fill="none" />
<polyline points="65.0,455.5" stroke="orange" stroke-width="1" fill="none" />
<polyline points="" stroke="black" stroke-width="1" fill="none" />
<polyline points="" stroke="yellow" stroke-width="1" fill="none" />
<polyline points="64.5,459.5,60.0,458.5,78.0,480.5,59.0,478.0,71.5,479.0" stroke="black" stroke-width="1" fill="none" />
<polyline points="" stroke="orange" stroke-width="1" fill="none" />
<polyline points="" stroke="green" stroke-width="1" fill="none" />
<polyline points="" stroke="black" stroke-width="1" fill="none" />
<polyline points="5.0,416.5,5.0,415.5,7.5,435.5,6.5,431.0,5.5,430.0" stroke="orange" stroke-width="1" fill="none" />
<polyline points="8.5,422.0,7.0,438.0,12.0,433.5,6.0,446.0,19.0,441.0,14.5,448.5,18.0,463.0,16.0,452.0,14.5,463.5,18.0,460.0,24.5,459.0" stroke="orange" stroke-width="1" fill="none" />
<polyline points="23.5,448.5,30.5,446.0,21.0,437.5,24.5,445.5,31.0,432.5,29.5,425.0" stroke="yellow" stroke-width="1" fill="none" />
<polyline points="" stroke="yellow" stroke-width="1" fill="none" />
<polyline points="25.0,436.5,40.5,440.5,29.5,442.0,26.5,459.0,36.0,458.0,29.0,457.0,33.5,457.5,38.0,474.0,29.5,474.0,36.0,478.5,37.0,473.0,34.0,486.0,31.5,486.0" stroke="yellow" stroke-width="1" fill="none" />
<polyline points="" stroke="black" stroke-width="1" fill="none" />
<polyline points="68.5,409.0,51.5,417.5,63.5,414.0,60.5,412.0" stroke="green" stroke-width="1" fill="none" />
<polyline points="" stroke="green" stroke-width="1" fill="none" />
<polyline points="67.5,405.5" stroke="black" stroke-width="1" fill="none" />
<polyline points="63.5,415.0,65.5,415.5" stroke="green" stroke-width="1" fill="none" />
<polyline points="" stroke="yellow" stroke-width="1" fill="none" />
<polyline points="" stroke="orange" stroke-width="1" fill="none" />
<polyline points="107.0,399.5" stroke="green" stroke-width="1" fill="none" />
<polyline points="101.5,399.0" stroke="green" stroke-width="1" fill="none" />
<polyline points="" stroke="black" stroke-width="1" fill="none" />
<polyline points="104.5,382.5,103.5,382.5,109.0,372.5,112.0,368.0,118.5,364.5,110.5,360.0,99.5,350.0,102.5,350.0" stroke="black" stroke-width="1" fill="none" />
<polyline points="" stroke="yellow" stroke-width="1" fill="none" />
<polyline points="" stroke="green" stroke-width="1" fill="none" />
<polyline points="119.5,316.0,109.0,309.5,106.5,307.5,95.5,310.5,111.0,308.5,117.5,316.0,110.5,310.0,109.5,327.5" stroke="green" stroke-width="1" fill="none" />
<polyline points="112.5,317.0,110.5,326.0,116.0,323.5,122.0,329.0,119.5,325.5" stroke="orange" stroke-width="1" fill="none" />
<polyline points="" stroke="yellow" stroke-width="1" fill="none" />
<polyline points="90.0,352.5,92.0,365.0,96.5,367.0,95.0,376.5,96.0,374.0,90.0,391.5,93.0,381.5,92.0,376.0,93.5,397.0,98.0,399.5,83.0,398.0,82.5,408.5,96.5,395.0,82.5,398.0,95.0,413.5,104.0,410.0" stroke="black" stroke-width="1" fill="none" />
<polyline points="" stroke="green" stroke-width="1" fill="none" />
<polyline points="141.5,378.0" stroke="green" stroke-width="1" fill="none" />
<polyline points="" stroke="yellow" stroke-width="1" fill="none" />
<polyline points="124.5,370.5,133.5,373.0" stroke="orange" stroke-width="1" fill="none" />
<polyline points="" stroke="yellow" stroke-width="1" fill="none" />
<polyline points="127.0,367.0" stroke="black" stroke-width="1" fill="none" />
<polyline points="186.5,343.0" stroke="black" stroke-width="1" fill="none" />
<polyline points="173.0,323.0,172.5,333.0,168.5,344.0,167.0,354.5,165.0,352.5,163.0,359.0,157.5,373.0,168.0,363.5,161.5,359.5,167.5,361.5,165.0,355.5,178.0,339.5,176.5,344.5,179.0,341.0,190.0,334.5,180.5,332.0,184.5,332.0,183.5,337.0" stroke="black" stroke-width="1" fill="none" />
<polyline points="181.5,346.5,187.5,337.5" stroke="green" stroke-width="1" fill="none" />
<polyline points="" stroke="green" stroke-width="1" fill="none" />
<polyline points="" stroke="green" stroke-width="1" fill="none" />
<polyline points="152.5,357.0,159.0,360.5,165.5,349.5,169.5,344.0,160.0,347.5,181.5,345.5,180.0,338.0,180.0,333.5,180.5,331.0,182.0,337.0,165.0,332.5,170.5,332.0,169.0,350.0" stroke="green" stroke-width="1" fill="none" />
<polyline points="" stroke="yellow" stroke-width="1" fill="none" />
<polyline points="158.0,324.5" stroke="orange" stroke-width="1" fill="none" />
<polyline points="153.5,332.5,145.5,341.5,138.0,349.0,141.0,328.0,150.5,326.0,152.5,319.0,149.0,324.5,132.0,312.0,139.0,312.5,131.5,311.0,135.0,311.0,131.5,302.0,132.0,300.0,137.5,303.5,137.0,299.5,143.5,301.5,151.5,296.0,137.0,295.5,148.5,274.0,135.5,278.0,128.0,277.0,138.5,273.0,143.0,273.0,135.5,283.0,139.5,274.5,149.0,268.0,150.0,260.0,157.5,260.0,171.0,252.5,164.5,249.5,154.0,250.0" stroke="orange" stroke-width="1" fill="none" />
<polyline points="" stroke="black" stroke-width="1" fill="none" />
<polyline points="147.5,252.0,153.5,248.5,139.0,255.5,143.5,256.0,156.0,255.5,143.0,251.0" stroke="yellow" stroke-width="1" fill="none" />
<polyline points="" stroke="black" stroke-width="1" fill="none" />
<polyline points="158.5,274.5,152.5,263.5,167.5,254.5,150.0,261.0,162.5,265.0,141.0,273.0,145.5,269.0,146.5,283.5,145.5,279.5,142.5,278.0,148.0,287.5,156.5,286.5,158.0,292.5,160.0,293.0,168.5,308.5,149.0,306.0,164.0,315.0,156.5,309.0,153.5,323.5,159.0,323.5,155.5,305.0,159.0,312.5,159.0,313.5,163.0,312.5,163.0,312.0" stroke="yellow" stroke-width="1" fill="none" />
<polyline points="" stroke="orange" stroke-width="1" fill="none" />
<polyline points="" stroke="green" stroke-width="1" fill="none" />
<polyline points="181.0,305.5,181.5,307.5" stroke="yellow" stroke-width="1" fill="none" />
<polyline points="161.0,312.0,176.0,322.0,165.0,305.5,178.0,312.0,172.0,308.5" stroke="orange" stroke-width="1" fill="none" />
<polyline points="178.0,291.5,180.5,289.0,169.0,283.0,169.5,291.0,174.0,290.0,158.0,292.0,163.5,286.5,168.0,284.0,172.5,279.5,176.5,285.5,174.0,283.0,164.0,287.0,162.0,282.0,160.5,280.5,164.0,289.0,157.0,281.0,165.0,275.0,160.5,274.5,171.0,287.0,167.5,279.0,161.5,269.0,170.0,262.5,166.0,259.5,169.5,255.5,165.0,243.0,174.0,243.5,171.5,247.0,179.5,241.0,177.5,239.0,179.5,240.0" stroke="orange" stroke-width="1" fill="none" />
<polyline points="187.0,233.0,182.0,237.5,165.5,257.0,181.5,236.5,176.0,246.0,187.5,248.5" stroke="black" stroke-width="1" fill="none" />
<polyline points="" stroke="yellow" stroke-width="1" fill="none" />
<polyline points="220.0,276.5,218.0,274.5" stroke="green" stroke-width="1" fill="none" />
<polyline points="224.0,319.5,211.5,318.0,213.5,321.0,213.0,326.0,216.5,349.0,217.5,351.0" stroke="yellow" stroke-width="1" fill="none" />
<polyline points="" stroke="green" stroke-width="1" fill="none" />
<polyline points="252.0,394.0,256.0,387.5" stroke="green" stroke-width="1" fill="none" />
<polyline points="" stroke="green" stroke-width="1" fill="none" />
<polyline points="278.0,353.5,273.5,352.5" stroke="yellow" stroke-width="1" fill="none" />
<polyline points="218.0,346.0,221.5,343.5,218.0,344.5,212.0,321.5,217.5,322.5,220.0,332.5,221.0,330.0,221.0,329.0" stroke="black" stroke-width="1" fill="none" />
<polyline points="" stroke="yellow" stroke-width="1" fill="none" />
<polyline points="" stroke="orange" stroke-width="1" fill="none" />
<polyline points="" stroke="orange" stroke-width="1" fill="none" />
<polyline points="" stroke="orange" stroke-width="1" fill="none" />
<polyline points="" stroke="green" stroke-width="1" fill="none" />
<polyline points="" stroke="orange" stroke-width="1" fill="none" />
<polyline points="" stroke="yellow" stroke-width="1" fill="none" />
<polyline points="" stroke="yellow" stroke-width="1" fill="none" />
<polyline points="" stroke="yellow" stroke-width="1" fill="none" />
<polyline points="" stroke="orange" stroke-width="1" fill="none" />
<polyline points="" stroke="yellow" stroke-width="1" fill="none" />
<polyline points="159.5,283.5,161.5,300.5" stroke="yellow" stroke-width="1" fill="none" />
<polyline points="155.5,306.0,165.0,287.0,164.5,292.5,171.0,289.0,174.5,289.5,180.5,299.5" stroke="black" stroke-width="1" fill="none" />
<polyline points="164.0,322.0,177.0,329.5,162.5,334.0,157.5,332.0,157.5,336.5,147.5,348.5,152.0,347.0,155.5,355.5,151.0,348.5,151.5,350.0,144.5,354.5,150.0,359.0,135.5,354.5,149.0,354.0,159.0,356.0,162.0,345.0,153.5,348.0,157.0,352.0" stroke="green" stroke-width="1" fill="none" />
<polyline points="" stroke="orange" stroke-width="1" fill="none" />
<polyline points="158.0,272.5,156.5,258.5,159.5,250.0,157.0,255.0" stroke="orange" stroke-width="1" fill="none" />
<polyline points="" stroke="green" stroke-width="1" fill="none" />
<polyline points="" stroke="yellow" stroke-width="1" fill="none" />
<polyline points="155.5,273.5,163.5,286.5,157.0,286.0,173.0,288.5,174.5,286.5,168.0,287.5" stroke="yellow" stroke-width="1" fill="none" />
<polyline points="" stroke="black" stroke-width="1" fill="none" />
<polyline points="" stroke="green" stroke-width="1" fill="none" />
<polyline points="147.5,283.5,143.5,289.0,150.5,280.0,140.0,271.0,155.0,273.0,152.0,261.5,158.5,267.5,166.0,259.5,166.5,252.0,164.0,248.5,160.0,244.0,168.0,250.5,163.0,227.0,166.0,243.0,162.0,249.5,167.0,245.0,151.0,262.0,150.0,268.0,144.5,253.0,141.5,260.5,132.0,259.0,133.5,264.5,136.0,265.5,132.0,264.5,123.5,260.5,124.5,272.0,122.0,268.5,130.5,254.0,127.0,250.0,112.5,243.0,132.0,242.5,128.5,241.0,139.0,246.5,138.5,233.5,136.5,229.5,136.0,232.5,133.5,220.0,132.5,217.0,128.0,221.0,132.0,207.0,133.5,217.5,126.5,211.5,125.5,203.0,123.5,196.5,122.5,189.0,116.5,191.5,127.0,180.5,115.5,185.0,120.0,168.0,120.0,177.0,113.0,158.5,120.5,167.5,115.5,153.0,115.5,162.5,110.5,149.5,120.0,141.5,122.5,141.0,115.0,142.0,123.5,136.0,120.5,129.5,120.5,132.0,117.5,124.5,128.5,123.5,136.0,116.5,119.0,109.5,130.0,111.0" stroke="yellow" stroke-width="1" fill="none" />
<polyline points="134.5,112.0,128.5,116.5,133.0,115.5,131.5,131.0,133.5,117.0,120.5,134.0,122.5,140.5,122.0,136.5,123.5,143.5,133.5,150.0,128.5,149.0,124.0,151.0,130.0,163.5,128.5,155.0" stroke="green" stroke-width="1" fill="none" />
<polyline points="117.0,157.0,138.5,153.5,132.0,151.0,128.5,162.0,131.0,166.0" stroke="green" stroke-width="1" fill="none" />
<polyline points="" stroke="black" stroke-width="1" fill="none" />
<polyline points="120.0,181.0,139.0,185.0" stroke="green" stroke-width="1" fill="none" />
<polyline points="" stroke="yellow" stroke-width="1" fill="none" />
<polyline points="" stroke="yellow" stroke-width="1" fill="none" />
<polyline points="143.5,163.5,140.5,180.0,132.5,178.0,142.5,187.0,135.5,190.5,134.0,198.0,134.0,190.5,127.5,197.0,135.0,185.0,135.5,190.5,131.0,190.0,145.0,205.0,149.0,207.5,151.5,208.5,148.5,207.0" stroke="black" stroke-width="1" fill="none" />
<polyline points="" stroke="yellow" stroke-width="1" fill="none" />
<polyline points="" stroke="black" stroke-width="1" fill="none" />
<polyline points="" stroke="black" stroke-width="1" fill="none" />
<polyline points="138.5,195.0" stroke="yellow" stroke-width="1" fill="none" />
<polyline points="" stroke="yellow" stroke-width="1" fill="none" />
<polyline points="" stroke="black" stroke-width="1" fill="none" />
<polyline points="147.5,187.0,145.0,183.5,158.0,195.0,151.5,183.5,163.0,179.5,169.0,181.5,160.5,168.0,167.0,176.5,170.0,168.5,170.5,165.5,183.0,160.5,196.5,159.0,200.5,159.5,200.0,157.0" stroke="yellow" stroke-width="1" fill="none" />
<polyline points="" stroke="black" stroke-width="1" fill="none" />
<polyline points="" stroke="green" stroke-width="1" fill="none" />
<polyline points="" stroke="green" stroke-width="1" fill="none" />
<polyline points="219.0,186.5,213.5,188.0" stroke="yellow" stroke-width="1" fill="none" />
<polyline points="219.5,172.0,226.0,177.5,226.5,170.5,224.5,163.0" stroke="yellow" stroke-width="1" fill="none" />
<polyline points="228.5,186.0,219.5,184.5,221.5,200.0,211.5,200.0" stroke="green" stroke-width="1" fill="none" />
<polyline points="209.5,202.5" stroke="yellow" stroke-width="1" fill="none" />
<polyline points="203.5,215.0,203.0,221.5,207.0,206.5,212.0,208.0,216.0,213.5,216.0,204.0" stroke="orange" stroke-width="1" fill="none" />
<polyline points="220.0,189.0,214.0,196.0,217.0,187.5,230.5,196.5,219.5,189.0" stroke="black" stroke-width="1" fill="none" />
<polyline points="" stroke="green" stroke-width="1" fill="none" />
<polyline points="" stroke="yellow" stroke-width="1" fill="none" />
<polyline points="" stroke="black" stroke-width="1" fill="none" />
<polyline points="" stroke="black" stroke-width="1" fill="none" />
<polyline points="180.0,205.5,180.5,203.5,176.5,197.0,183.5,210.0,186.5,201.5,179.0,201.5" stroke="orange" stroke-width="1" fill="none" />
<polyline points="" stroke="yellow" stroke-width="1" fill="none" />
<polyline points="186.5,217.5,198.5,216.0,187.5,215.5" stroke="green" stroke-width="1" fill="none" />
<polyline points="" stroke="green" stroke-width="1" fill="none" />
<polyline points="" stroke="orange" stroke-width="1" fill="none" />
<polyline points="" stroke="yellow" stroke-width="1" fill="none" />
<polyline points="" stroke="green" stroke-width="1" fill="none" />
<polyline points="153.5,228.5,159.5,232.0,161.0,232.5,169.0,242.5,173.5,238.5,166.0,236.5,171.0,233.5" stroke="orange" stroke-width="1" fill="none" />
<polyline points="" stroke="orange" stroke-width="1" fill="none" />
<polyline points="155.0,253.5,145.0,260.0,144.5,266.0,140.5,267.0,139.5,281.5,133.5,278.0,118.5,275.5,132.0,272.5,119.0,254.0,118.5,268.0,120.0,268.5" stroke="yellow" stroke-width="1" fill="none" />
<polyline points="" stroke="orange" stroke-width="1" fill="none" />
<polyline points="110.0,279.0,117.0,280.0,117.0,288.5,108.0,297.5,108.0,295.0,111.5,294.0,104.5,306.0,99.0,304.0,86.0,314.0,92.5,319.5,93.5,333.5,87.5,336.0,93.5,326.5,93.0,331.5,86.5,346.5,83.0,342.5,83.0,348.0,82.0,353.5,72.0,358.0,71.5,357.5,74.0,364.0,75.0,361.5,74.0,365.0,67.0,355.0,75.5,353.5,76.0,328.0,91.0,333.0,93.5,328.5" stroke="yellow" stroke-width="1" fill="none" />
<polyline points="106.0,323.5,84.5,329.5,77.0,335.5,85.0,346.5,86.0,351.0,75.5,341.5,72.5,354.5,67.5,353.0,71.5,350.0,64.5,358.5,62.5,361.0,62.5,365.5,77.5,351.5,79.0,340.0,79.0,347.5,86.5,337.5,90.5,334.0,87.5,346.0,88.0,341.5,91.0,343.0,91.0,356.0,85.5,356.0,76.5,362.5,78.5,361.5,81.5,364.0,79.0,377.0" stroke="black" stroke-width="1" fill="none" />
<polyline points="98.5,368.0,97.0,379.5,88.5,382.0,93.5,373.5,92.5,376.5" stroke="orange" stroke-width="1" fill="none" />
<polyline points="108.0,367.0,106.5,369.5,111.5,348.5,92.5,365.5" stroke="green" stroke-width="1" fill="none" />
<polyline points="113.5,349.5,110.5,359.0,116.5,361.0" stroke="black" stroke-width="1" fill="none" />
<polyline points="" stroke="orange" stroke-width="1" fill="none" />
<polyline points="" stroke="black" stroke-width="1" fill="none" />
<polyline points="" stroke="orange" stroke-width="1" fill="none" />
<polyline points="92.5,345.0,82.5,357.0,71.0,357.0,79.0,374.0,79.0,361.0" stroke="black" stroke-width="1" fill="none" />
<polyline points="65.5,398.0,62.0,401.5,53.5,399.0,66.0,397.0,68.0,396.5,79.5,381.5,75.5,384.0,74.5,392.0,68.0,398.5,67.0,392.0,75.0,388.0,58.5,394.5,67.5,406.0,60.5,391.0,72.5,394.0,68.5,390.5,77.5,394.5,79.5,394.0,80.5,370.0,82.5,376.5,85.5,366.0,90.0,354.0,87.5,355.5,92.5,359.5,95.0,354.5,91.0,354.5,90.0,348.5,97.5,343.0,100.5,341.5,87.5,343.0,105.0,355.0,89.0,339.0,92.0,334.5,96.0,325.0,99.5,332.5,93.5,329.0,91.0,327.0,103.5,318.0,92.0,313.5,99.0,316.0,100.0,311.0,107.0,304.0,100.5,295.5" stroke="orange" stroke-width="1" fill="none" />
<polyline points="80.5,309.0,81.5,309.5,85.5,308.0,91.0,304.0" stroke="orange" stroke-width="1" fill="none" />
<polyline points="100.0,296.5" stroke="green" stroke-width="1" fill="none" />
<polyline points="91.5,295.5,96.5,299.5,88.0,301.5,90.5,297.5" stroke="green" stroke-width="1" fill="none" />
<polyline points="77.0,302.5,81.5,298.0,85.5,292.0,86.0,290.0,94.5,301.0" stroke="black" stroke-width="1" fill="none" />
<polyline points="117.5,273.0,109.5,274.5,107.0,276.5" stroke="yellow" stroke-width="1" fill="none" />
<polyline points="112.0,266.5,113.0,273.5,101.5,269.5,107.0,275.0,99.5,271.5,89.5,287.0,90.0,289.5,84.0,296.0,92.5,273.5,99.5,282.5,109.0,280.5,113.5,286.5,115.0,289.5" stroke="black" stroke-width="1" fill="none" />
<polyline points="109.0,280.0,98.0,275.5" stroke="orange" stroke-width="1" fill="none" />
<polyline points="103.0,262.5,104.5,263.5,92.0,263.5,99.5,272.0,87.0,274.0,92.0,278.0,92.5,278.0,108.5,285.5,100.0,278.0,93.5,278.5,106.5,279.5,110.0,278.5,112.0,279.0,110.5,278.0" stroke="black" stroke-width="1" fill="none" />
<polyline points="112.5,283.0,103.5,290.0,97.5,298.5,89.5,290.0,90.5,304.0,82.0,303.0,89.0,320.5,77.0,308.5,69.0,311.5,90.0,329.0,94.0,333.5,89.5,312.5,96.5,320.0" stroke="orange" stroke-width="1" fill="none" />
<polyline points="" stroke="green" stroke-width="1" fill="none" />
<polyline points="107.5,320.0,113.5,309.5,103.5,328.5" stroke="green" stroke-width="1" fill="none" />
<polyline points="63.0,328.5,62.5,326.5" stroke="orange" stroke-width="1" fill="none" />
<polyline points="" stroke="black" stroke-width="1" fill="none" />
<polyline points="79.0,312.0,82.5,319.0" stroke="black" stroke-width="1" fill="none" />
<polyline points="101.0,321.0,113.0,325.0,104.5,318.5,100.5,311.5" stroke="orange" stroke-width="1" fill="none" />
<polyline points="" stroke="green" stroke-width="1" fill="none" />
<polyline points="" stroke="orange" stroke-width="1" fill="none" />
<polyline points="" stroke="orange" stroke-width="1" fill="none" />
<polyline points="119.5,299.0,118.5,300.0,108.5,298.5,109.5,305.0,107.5,311.5,108.5,313.5,95.5,320.0,100.0,321.5,97.0,323.5,92.0,333.5,103.5,328.0,93.0,327.0,104.0,340.5,104.0,340.0,100.0,341.0,109.5,328.5,112.0,331.5,104.0,321.0,124.0,309.5" stroke="black" stroke-width="1" fill="none" />
<polyline points="132.5,311.0" stroke="orange" stroke-width="1" fill="none" />
<polyline points="109.0,325.5,107.5,329.0,101.5,343.5,111.0,347.0,108.0,340.0,101.0,347.0,87.5,354.0,82.5,340.5,95.0,355.5,94.0,357.5" stroke="black" stroke-width="1" fill="none" />
<polyline points="" stroke="yellow" stroke-width="1" fill="none" />
<polyline points="" stroke="green" stroke-width="1" fill="none" />
<polyline points="134.0,290.0,110.0,301.0,109.5,304.0,104.5,302.0,103.0,309.0,115.0,305.0,109.0,313.0,115.5,310.0,125.5,297.0,125.5,305.5,134.0,295.5,133.0,290.0" stroke="orange" stroke-width="1" fill="none" />
<polyline points="" stroke="orange" stroke-width="1" fill="none" />
<polyline points="" stroke="yellow" stroke-width="1" fill="none" />
<polyline points="144.5,244.0,140.0,251.0,135.5,240.0" stroke="yellow" stroke-width="1" fill="none" />
<polyline points="" stroke="black" stroke-width="1" fill="none" />
<polyline points="" stroke="black" stroke-width="1" fill="none" />
<polyline points="" stroke="yellow" stroke-width="1" fill="none" />
<polyline points="" stroke="green" stroke-width="1" fill="none" />
<polyline points="139.5,188.0,143.5,184.0" stroke="green" stroke-width="1" fill="none" />
<polyline points="" stroke="green" stroke-width="1" fill="none" />
<polyline points="" stroke="yellow" stroke-width="1" fill="none" />
<polyline points="" stroke="yellow" stroke-width="1" fill="none" />
<polyline points="" stroke="yellow" stroke-width="1" fill="none" />
<polyline points="" stroke="green" stroke-width="1" fill="none" />
<polyline points="" stroke="green" stroke-width="1" fill="none" />
<polyline points="" stroke="green" stroke-width="1" fill="none" />
<polyline points="117.5,269.5,120.5,254.0,119.0,255.5,117.0,252.5,128.0,249.0,138.5,242.5,134.5,236.0,144.5,239.0,156.0,239.5,153.5,225.5,154.5,226.5,165.0,223.5,164.5,219.0" stroke="green" stroke-width="1" fill="none" />
<polyline points="145.5,234.0,145.0,233.0,141.0,240.0,147.0,250.0,141.5,257.0,151.5,262.0,148.5,264.5" stroke="black" stroke-width="1" fill="none" />
<polyline points="" stroke="black" stroke-width="1" fill="none" />
<polyline points="" stroke="black" stroke-width="1" fill="none" />
<polyline points="" stroke="black" stroke-width="1" fill="none" />
<polyline points="159.5,258.0,147.5,257.5,152.0,256.0,150.5,261.5,153.0,267.5,138.0,273.5,139.5,266.0,133.5,282.0,126.5,276.0,126.5,281.5,125.5,291.5,128.5,303.0,124.5,309.5,137.0,300.5,124.0,303.0,118.0,308.5,127.5,319.0,124.5,323.0,121.0,329.5,132.0,332.0,129.5,333.0,130.0,338.5,112.0,338.5,126.0,349.0,130.5,344.5,136.5,347.5,134.5,356.0,141.5,368.5,136.0,374.0,134.5,368.0,140.5,365.5,137.5,374.0,148.5,372.0,155.5,377.0,141.0,390.0,143.0,390.5,146.5,397.0,145.0,396.0,149.5,389.5,148.5,402.0,149.0,404.0,143.0,406.5,157.5,402.5,151.5,416.0,167.5,422.5,167.0,424.0" stroke="orange" stroke-width="1" fill="none" />
<polyline points="" stroke="yellow" stroke-width="1" fill="none" />
<polyline points="" stroke="orange" stroke-width="1" fill="none" />
<polyline points="" stroke="orange" stroke-width="1" fill="none" />
<polyline points="" stroke="green" stroke-width="1" fill="none" />
<polyline points="191.0,392.5,192.5,392.5,194.5,393.0" stroke="orange" stroke-width="1" fill="none" />
<polyline points="193.5,396.5,193.5,403.5,192.0,401.5,190.5,422.5,198.5,422.0,187.0,426.5,194.0,437.5,187.0,434.5,189.0,443.5,183.0,436.5,194.0,451.5,196.5,444.5" stroke="yellow" stroke-width="1" fill="none" />
<polyline points="384.5,347.0,376.5,331.0,380.5,347.0,376.5,328.0,382.0,331.5,379.5,322.0,375.0,319.5,373.0,314.0,376.5,318.0,381.5,315.0,372.0,300.5,374.0,293.5" stroke="orange" stroke-width="1" fill="none" />
<polyline points="383.5,270.5,382.5,270.5" stroke="yellow" stroke-width="1" fill="none" />
<polyline points="375.0,283.0,359.5,295.0,375.0,293.5,358.5,288.0,364.5,305.0,370.0,303.0,378.5,303.5,372.5,305.5,373.0,301.5" stroke="yellow" stroke-width="1" fill="none" />
<polyline points="" stroke="orange" stroke-width="1" fill="none" />
<polyline points="" stroke="green" stroke-width="1" fill="none" />
<polyline points="314.0,262.5,322.0,238.5,324.5,239.5" stroke="black" stroke-width="1" fill="none" />
<polyline points="359.0,278.5,365.5,275.5,365.5,270.5,364.5,269.5" stroke="yellow" stroke-width="1" fill="none" />
<polyline points="294.5,223.5,295.5,228.5,300.0,230.0" stroke="orange" stroke-width="1" fill="none" />
<polyline points="275.0,208.0,284.0,209.5,288.0,195.5,287.5,193.0,289.5,188.5,303.0,181.5,295.0,184.5,306.5,174.0,305.5,179.5,317.0,175.0,322.5,173.0,322.0,173.5" stroke="orange" stroke-width="1" fill="none" />
<polyline points="298.5,185.0,289.0,186.0,282.5,187.5,284.5,202.5,281.0,202.0,270.5,206.0,279.0,206.0,266.5,208.0,271.0,210.5,260.0,216.5,259.5,225.5,268.5,247.5,250.0,227.5,249.0,251.0,242.0,248.5,236.0,252.5,240.5,254.0,230.5,259.5,225.5,271.5,214.0,273.0,221.5,281.5,220.0,296.0,213.5,293.5,210.5,307.0,202.0,314.0,189.5,324.0,208.0,317.5,201.0,318.5,197.0,307.0,196.0,307.5,201.5,300.5,206.5,300.5,207.5,280.0,216.5,295.5,212.5,289.0,222.0,287.0,214.0,277.0,227.0,280.5,225.0,270.0,230.5,258.0,234.5,262.5,226.5,263.0,226.5,255.0,234.5,248.0,245.5,244.0,234.0,241.0,245.5,244.5,249.0,241.5,262.0,237.5,261.5,222.5,271.0,215.0,263.0,209.5,255.0,216.0,262.5,202.0,269.0,201.0" stroke="black" stroke-width="1" fill="none" />
<polyline points="" stroke="yellow" stroke-width="1" fill="none" />
<polyline points="" stroke="black" stroke-width="1" fill="none" />
<polyline points="218.5,196.0,220.5,209.5,230.5,199.5,226.5,188.5" stroke="yellow" stroke-width="1" fill="none" />
<polyline points="209.5,178.0,207.0,195.5,209.0,196.0,200.5,186.5,211.5,199.5,208.0,190.5,210.5,188.0,214.0,201.5" stroke="black" stroke-width="1" fill="none" />
<polyline points="233.0,183.0,244.5,191.0" stroke="yellow" stroke-width="1" fill="none" />
<polyline points="249.0,193.5,242.0,179.5,239.0,201.5,242.5,203.0,232.0,208.0,239.0,215.5" stroke="black" stroke-width="1" fill="none" />
<polyline points="250.0,211.5,243.5,192.0,251.0,198.0,261.0,189.0" stroke="green" stroke-width="1" fill="none" />
<polyline points="261.0,196.0,258.5,192.0" stroke="yellow" stroke-width="1" fill="none" />
<polyline points="246.0,201.5,241.5,196.5,253.0,205.5,241.5,191.5" stroke="orange" stroke-width="1" fill="none" />
<polyline points="267.0,171.5,261.5,169.5,264.0,168.5,267.0,176.0,276.5,176.0,280.0,170.0,272.0,172.5,289.0,168.5,288.0,176.5,304.0,177.0,283.0,186.5,287.5,192.0,292.5,199.5,267.0,187.0,274.5,198.5,274.0,189.0,267.0,200.5,277.0,196.0,277.0,196.0,282.0,183.0,283.5,185.0,285.5,178.5,290.0,179.0,294.5,177.5,305.0,174.0,311.5,172.0,312.0,180.0,311.0,168.5,315.0,176.0,322.0,164.0,332.5,157.5,334.5,156.0,333.5,160.0" stroke="yellow" stroke-width="1" fill="none" />
<polyline points="283.0,189.0,282.5,182.0,269.0,197.0,283.5,199.5,269.0,199.5,264.5,205.0,279.0,202.0,267.0,209.0,271.5,214.0,277.0,218.5" stroke="orange" stroke-width="1" fill="none" />
<polyline points="" stroke="yellow" stroke-width="1" fill="none" />
<polyline points="257.0,169.5,255.0,168.0" stroke="green" stroke-width="1" fill="none" />
<polyline points="" stroke="orange" stroke-width="1" fill="none" />
<polyline points="" stroke="yellow" stroke-width="1" fill="none" />
<polyline points="259.0,138.0,253.0,129.5,258.5,129.5,256.5,126.5" stroke="green" stroke-width="1" fill="none" />
<polyline points="" stroke="green" stroke-width="1" fill="none" />
<polyline points="" stroke="black" stroke-width="1" fill="none" />
<polyline points="" stroke="yellow" stroke-width="1" fill="none" />
<polyline points="" stroke="yellow" stroke-width="1" fill="none" />
<polyline points="" stroke="orange" stroke-width="1" fill="none" />
<polyline points="194.5,176.0,192.0,184.5,179.5,193.5,189.5,192.5,176.0,196.0,174.5,208.5,163.0,205.5,169.5,196.0,173.0,196.0,180.0,183.5,183.0,195.5,194.0,186.0,200.0,173.5,194.5,171.0,194.5,174.0" stroke="orange" stroke-width="1" fill="none" />
<polyline points="204.5,178.5" stroke="black" stroke-width="1" fill="none" />
<polyline points="" stroke="black" stroke-width="1" fill="none" />
<polyline points="215.0,135.0,212.5,129.0,215.5,129.5,212.5,123.5,214.5,122.0" stroke="black" stroke-width="1" fill="none" />
<polyline points="214.5,140.5,213.0,147.0,211.5,144.5,212.0,130.5,218.0,132.0,217.0,126.0,224.5,129.0,229.0,131.0" stroke="green" stroke-width="1" fill="none" />
<polyline points="202.5,144.5,196.0,142.5,188.5,154.0,193.0,150.0,184.0,158.0,181.0,158.5,180.5,160.0,166.5,169.0,168.0,172.0,163.5,182.0,164.0,183.5,153.5,183.0,147.0,193.5,146.5,196.0,155.0,197.0,149.5,206.0,142.0,211.5,145.5,207.0,144.0,220.5,152.5,207.5,136.0,217.0,143.0,231.5,143.5,225.0,141.0,231.5,144.0,238.5,146.5,235.5,135.5,238.5,131.0,248.0" stroke="green" stroke-width="1" fill="none" />
<polyline points="135.5,181.0,137.5,185.5,138.0,178.5,132.5,177.5,132.5,172.0,126.5,182.5,133.0,179.0" stroke="yellow" stroke-width="1" fill="none" />
<polyline points="" stroke="orange" stroke-width="1" fill="none" />
<polyline points="" stroke="green" stroke-width="1" fill="none" />
<polyline points="" stroke="orange" stroke-width="1" fill="none" />
<polyline points="" stroke="yellow" stroke-width="1" fill="none" />
<polyline points="" stroke="orange" stroke-width="1" fill="none" />
<polyline points="" stroke="green" stroke-width="1" fill="none" />
<polyline points="" stroke="green" stroke-width="1" fill="none" />
<polyline points="210.5,142.5,203.0,142.5,208.0,153.5,206.0,144.5,189.0,140.0" stroke="yellow" stroke-width="1" fill="none" />
<polyline points="254.5,136.0,245.0,135.0,244.5,142.0,238.5,154.0,226.5,159.0,222.0,166.5,218.0,162.0,224.5,157.5,219.0,168.5,237.5,148.5,225.5,154.0" stroke="orange" stroke-width="1" fill="none" />
<polyline points="" stroke="yellow" stroke-width="1" fill="none" />
<polyline points="307.0,140.0,306.0,134.0" stroke="yellow" stroke-width="1" fill="none" />
<polyline points="306.5,175.5,309.5,172.0,299.0,183.5,297.5,192.0,295.5,188.0,285.0,188.5,275.0,201.0,278.0,203.0" stroke="orange" stroke-width="1" fill="none" />
<polyline points="230.5,103.0,229.5,113.0,225.5,109.0" stroke="orange" stroke-width="1" fill="none" />
<polyline points="" stroke="orange" stroke-width="1" fill="none" />
<polyline points="" stroke="yellow" stroke-width="1" fill="none" />
<polyline points="262.0,86.0,261.0,84.0,254.0,81.0,247.0,96.5,243.5,97.5,239.0,107.5,238.0,100.5,240.5,99.0,235.5,101.0,240.5,102.5,219.5,107.0,217.5,113.0,220.0,117.5,223.5,124.0,200.5,122.5,200.5,128.0,197.5,129.5,198.0,137.0,197.0,126.0,191.5,138.0,186.0,142.0,171.0,147.5,172.0,148.0,171.0,155.5,162.5,163.5,163.5,163.5,165.0,169.5,147.0,172.0,153.5,173.5,146.5,169.5,163.5,164.5,164.5,160.0,167.0,158.0,178.0,153.5,168.5,149.0,182.5,144.0,178.5,141.5,193.0,133.0,205.5,140.5,208.5,134.0,201.5,120.5,212.5,117.0,216.0,114.0,224.5,113.0,210.5,115.0,235.0,102.5,240.0,107.0" stroke="orange" stroke-width="1" fill="none" />
<polyline points="" stroke="orange" stroke-width="1" fill="none" />
<polyline points="" stroke="green" stroke-width="1" fill="none" />
<polyline points="242.0,49.5,237.5,53.0,249.0,48.5,254.0,46.5,248.5,45.5,252.0,58.0,258.5,45.0,255.0,48.0,266.0,60.0,274.5,51.5,272.0,64.0,287.5,63.0,288.0,79.0,299.5,69.5,295.0,75.0,289.0,84.5,300.5,83.5,310.0,93.0,309.0,87.5,309.0,92.0,325.0,89.0,322.5,106.0,333.0,113.5,322.0,117.0,347.0,120.0,336.5,136.0,338.5,136.0,339.5,132.0,352.0,148.0,346.0,135.5,357.0,151.0,354.5,138.0,362.5,135.5,368.0,136.0,372.5,131.5,381.5,127.5,378.0,127.5,383.5,129.5,391.0,114.0,393.0,112.5,394.5,117.0,400.0,115.5,408.0,112.0,412.0,110.5" stroke="green" stroke-width="1" fill="none" />
<polyline points="425.0,127.5,417.0,138.0,416.0,145.0,408.5,137.5,417.5,153.0,413.5,153.5,413.5,169.5,416.0,163.5,410.0,155.5,414.5,156.5,407.5,173.0,412.5,171.0,406.0,173.5,412.5,170.5,399.0,180.5,396.5,197.5,393.5,191.5,387.0,206.5,375.0,210.5,383.5,194.5,377.0,205.0,372.0,203.0,379.5,213.0,377.0,204.5,383.5,199.0,387.0,205.5,386.5,203.0,392.5,201.0,395.5,189.0" stroke="orange" stroke-width="1" fill="none" />
<polyline points="" stroke="yellow" stroke-width="1" fill="none" />
<polyline points="377.0,102.5" stroke="green" stroke-width="1" fill="none" />
<polyline points="" stroke="orange" stroke-width="1" fill="none" />
<polyline points="410.0,24.5,412.0,21.5" stroke="yellow" stroke-width="1" fill="none" />
<polyline points="508.5,85.5,493.5,86.5,494.5,89.5,491.0,96.5,482.5,103.0,490.5,96.0,490.5,107.0,476.0,106.0,478.0,115.0,472.0,123.5,466.5,118.5,471.0,122.5,466.0,129.0,465.0,143.0,458.5,153.5,458.0,152.5,453.0,141.5,458.5,154.5,450.5,155.5,458.0,161.5,445.5,174.0,440.5,160.0,436.5,175.0,440.5,175.0,441.5,175.0,437.5,177.0,434.5,197.0,435.0,200.0,427.5,192.5,424.5,205.5,426.0,212.5,425.0,207.0,425.5,222.5,414.5,208.5,418.0,223.0,408.5,226.5,421.0,234.0,407.5,237.5,414.5,231.5,404.0,241.5,406.0,242.0,412.5,252.5,407.0,258.5,411.5,258.0,389.0,261.5,409.5,262.5,394.5,272.5,404.0,265.0,399.0,281.5,400.5,278.5,391.0,288.0,390.5,283.0,392.5,288.5,394.0,301.5,393.0,311.5,397.5,300.5,386.5,309.0,395.5,311.0,398.0,323.5" stroke="orange" stroke-width="1" fill="none" />
<polyline points="337.0,145.5,334.5,131.5,333.5,123.5,320.5,122.0,326.0,123.0,321.5,113.0,317.5,117.0,323.0,102.5,317.0,112.5,314.0,95.0,304.5,96.0,302.0,94.0,301.5,86.5,306.0,81.0,292.0,79.5,290.5,76.5,285.5,72.5,280.0,73.0" stroke="black" stroke-width="1" fill="none" />
<polyline points="" stroke="orange" stroke-width="1" fill="none" />
<polyline points="" stroke="green" stroke-width="1" fill="none" />
<polyline points="161.5,71.0,156.0,71.5,153.5,82.0,153.0,63.5,164.0,64.0" stroke="orange" stroke-width="1" fill="none" />
<polyline points="" stroke="green" stroke-width="1" fill="none" />
</svg>