<svg xmlns="http://www.w3.org/2000/svg" width="1024" height="1024" version="1.1"><polyline points="406.0,11.5,402.5,12.0,410.0,17.5,408.0,21.0,413.5,22.5,423.5,26.0,421.0,34.0,424.5,39.0,420.5,43.0,426.0,42.0,427.0,44.0,428.0,52.5,429.5,50.5,431.5,58.5,433.5,61.5,438.5,66.5,444.5,75.0,444.5,71.5" stroke="yellow" stroke-width="1" fill="none" />
<polyline points="448.0,36.0,444.5,37.5,438.0,33.0,427.0,24.0,426.0,17.0,436.5,11.0,427.0,13.5,423.5,16.5,423.0,16.0" stroke="black" stroke-width="1" fill="none" />
<polyline points="423.5,11.0,425.0,12.5,423.5,14.0,428.0,17.5,433.0,22.5,438.0,24.5,434.0,20.5,442.5,29.5,447.5,43.0,446.0,47.5,449.5,50.5,449.5,53.5,455.5,55.0,449.0,60.5,461.5,65.5,460.0,71.5,451.0,63.5,441.0,73.5,442.5,76.5,441.5,83.5,436.0,85.5,431.5,95.0,429.5,92.5,431.0,99.5,425.0,101.0,425.5,107.0,423.5,108.5,416.0,115.0,418.5,115.0,423.0,102.5,428.5,102.0,431.0,94.5,436.0,91.0,432.0,77.5,441.0,86.0,447.5,79.0,452.0,70.0,453.0,66.5,463.5,56.5,467.5,60.5,471.5,53.5,473.0,44.0,473.5,41.0,479.5,34.5,483.5,30.0,486.5,23.5,496.0,24.5,497.0,15.5,498.5,10.5,505.5,14.5,507.0,11.0,504.5,10.0,503.0,11.0" stroke="orange" stroke-width="1" fill="none" />
<polyline points="501.5,21.0,501.0,20.0,492.5,17.5,495.5,25.0,488.5,28.0,482.5,40.5,476.5,31.5,474.5,43.0,472.5,49.5" stroke="black" stroke-width="1" fill="none" />
<polyline points="513.5,80.5,513.0,79.0,508.0,80.5,512.0,80.0,504.5,78.5,507.0,84.5,500.0,88.5,493.0,90.0,498.5,92.5,487.0,106.0,489.5,113.0,483.5,110.0,474.0,118.5,471.5,120.0,468.0,128.0,466.0,136.0,462.0,141.5" stroke="black" stroke-width="1" fill="none" />
<polyline points="" stroke="black" stroke-width="1" fill="none" />
<polyline points="" stroke="yellow" stroke-width="1" fill="none" />
<polyline points="437.0,193.5,424.0,191.5,428.0,206.5,425.5,204.5,426.5,215.0" stroke="black" stroke-width="1" fill="none" />
<polyline points="417.5,240.0,417.0,240.0,419.5,234.5,418.0,230.0,418.0,231.0" stroke="orange" stroke-width="1" fill="none" />
<polyline points="" stroke="black" stroke-width="1" fill="none" />
<polyline points="377.5,287.0,374.0,284.0,377.0,287.5,382.0,283.5,379.0,281.5,379.5,282.5" stroke="black" stroke-width="1" fill="none" />
<polyline points="380.0,266.5,374.5,262.5,377.0,265.5,378.5,256.5,373.0,247.0,377.5,247.0,367.5,237.0,369.5,243.5,370.5,232.5,366.5,233.0,374.0,230.0,373.0,226.0,376.5,221.0,374.0,214.5,365.5,217.0" stroke="black" stroke-width="1" fill="none" />
<polyline points="" stroke="black" stroke-width="1" fill="none" />
<polyline points="368.5,244.5,365.5,245.5,368.5,246.5,365.0,248.0,371.0,253.5,367.0,254.0,370.5,255.5,370.5,268.5,371.0,274.0,377.0,270.0,373.5,268.5,370.5,280.5,374.5,277.0,371.0,284.5,373.5,278.5" stroke="yellow" stroke-width="1" fill="none" />
<polyline points="374.0,284.5,375.0,284.5,374.0,285.0,378.5,298.0,379.0,298.0,381.5,299.5,375.5,307.5,379.0,303.5,381.5,305.5,385.5,317.5,376.5,326.5,380.0,326.5,379.0,328.5,377.0,327.5,386.5,337.0,392.0,346.5,382.0,347.0,383.5,349.0,387.5,349.0,387.5,349.5,385.0,350.5" stroke="orange" stroke-width="1" fill="none" />
<polyline points="373.5,352.0,373.0,351.5,372.5,352.5,374.5,359.0,364.0,359.5,366.5,366.0,366.0,374.5,373.0,371.0" stroke="orange" stroke-width="1" fill="none" />
<polyline points="375.0,373.5,374.5,376.5,376.0,379.5,379.5,382.0,380.0,383.0" stroke="green" stroke-width="1" fill="none" />
<polyline points="384.0,396.5,385.0,395.0,377.5,402.0,375.0,401.0" stroke="black" stroke-width="1" fill="none" />
<polyline points="354.5,414.0,354.0,411.5,352.0,408.0,343.0,403.5,341.5,399.5,336.0,402.5,329.5,401.5,328.0,392.5" stroke="black" stroke-width="1" fill="none" />
<polyline points="324.0,360.5,321.5,361.0,331.0,355.5,344.0,338.5,336.5,331.5,346.0,329.0,349.5,317.5,344.5,324.5,343.0,319.0,346.5,321.5" stroke="black" stroke-width="1" fill="none" />
<polyline points="353.5,333.5,353.0,334.5,346.5,335.5,354.5,335.5,349.5,332.5" stroke="orange" stroke-width="1" fill="none" />
<polyline points="356.0,357.0,355.0,354.5,353.5,362.0,352.0,370.5,355.0,366.5,353.5,369.0,359.0,377.5,353.5,383.0,353.0,386.5,353.0,386.0,357.0,397.0,352.0,398.0,352.5,403.5,351.5,401.5" stroke="black" stroke-width="1" fill="none" />
<polyline points="361.0,384.5,361.0,385.5,361.5,386.0,359.5,386.0,355.5,382.0,360.0,382.0,365.0,374.5,363.0,372.5,353.5,369.0" stroke="orange" stroke-width="1" fill="none" />
<polyline points="356.5,369.0,353.0,368.5,356.5,373.5,358.0,377.0,363.0,384.5,361.0,387.0,361.5,385.0,362.0,385.5" stroke="orange" stroke-width="1" fill="none" />
<polyline points="343.5,366.0,349.5,374.0,355.5,372.0,353.5,382.5,351.0,383.5,352.5,384.0,352.5,389.0,356.0,399.0,352.0,404.0,352.5,404.0,354.0,412.5,355.0,409.0,359.0,409.5,356.5,410.5" stroke="orange" stroke-width="1" fill="none" />
<polyline points="369.0,463.0,367.5,464.0,371.0,460.0,370.0,462.5,374.5,459.0,374.5,449.5,375.0,453.0,376.5,448.5,373.5,440.0,376.0,435.5,372.5,433.0,372.0,426.0,378.5,427.5,372.0,425.5,375.5,413.5,371.5,414.0,378.5,409.0,377.5,404.0,376.0,398.5,383.5,400.0,377.5,395.0,373.5,386.5,376.0,384.5,379.5,379.0,382.0,378.0,380.5,374.0,381.0,367.0,377.0,366.0,382.0,360.0,378.0,355.0,386.0,361.0,380.0,351.5,377.0,342.5,381.0,336.5,379.0,335.0,376.5,333.5,377.5,327.5,368.0,326.5,372.5,326.5,367.0,320.5,374.0,316.5,369.5,305.5,374.5,301.5,372.0,303.0,372.5,300.0,372.0,293.0,376.0,288.5,369.5,284.5,374.5,273.0,365.0,265.5,368.0,275.0,370.0,267.5,366.5,263.5,367.0,257.0,367.0,265.0,366.0,252.0,364.0,254.5,368.5,242.0,371.5,239.5,367.5,236.5,365.0,224.0,363.0,225.0,358.5,224.0,361.0,218.5,354.5,217.0,358.5,211.0,355.0,213.0,358.0,213.5,356.5,210.5" stroke="yellow" stroke-width="1" fill="none" />
<polyline points="" stroke="green" stroke-width="1" fill="none" />
<polyline points="359.0,208.0,355.0,206.5,357.0,210.0,358.0,206.0,356.5,210.5,354.5,205.5,356.5,204.0,356.5,209.5,356.5,208.5,355.0,208.0" stroke="yellow" stroke-width="1" fill="none" />
<polyline points="361.5,205.0,357.0,205.5,357.5,197.0,354.0,203.5" stroke="yellow" stroke-width="1" fill="none" />
<polyline points="364.0,203.5,361.0,203.5,362.5,199.5,359.5,204.0,356.5,199.0,357.0,200.0" stroke="yellow" stroke-width="1" fill="none" />
<polyline points="352.5,200.0,352.5,201.5,351.5,207.5,352.0,206.0" stroke="orange" stroke-width="1" fill="none" />
<polyline points="" stroke="orange" stroke-width="1" fill="none" />
<polyline points="345.0,202.5,348.5,211.5,350.5,208.0" stroke="yellow" stroke-width="1" fill="none" />
<polyline points="345.0,209.5,344.0,209.0,354.0,215.0,353.0,228.5,354.5,215.0,362.0,219.0,361.5,229.5,365.0,233.5,362.0,241.0,362.0,244.0,364.0,245.5,364.0,242.0,361.0,241.5" stroke="green" stroke-width="1" fill="none" />
<polyline points="363.0,251.0,365.0,252.5,362.5,253.0,364.5,248.5,355.5,247.5,353.5,246.0" stroke="black" stroke-width="1" fill="none" />
<polyline points="353.0,246.0,355.5,247.0,355.5,245.5,352.0,243.5,352.0,247.0,347.0,247.0,344.0,250.5,338.5,252.5,343.0,253.0,339.5,252.5,339.0,249.5,337.5,251.0" stroke="orange" stroke-width="1" fill="none" />
<polyline points="325.0,257.0,330.5,260.5,336.0,262.5,336.0,262.5" stroke="orange" stroke-width="1" fill="none" />
<polyline points="336.0,256.5,334.0,259.5,337.0,250.5,348.0,254.5,342.0,247.5,349.0,239.0,349.0,241.5" stroke="black" stroke-width="1" fill="none" />
<polyline points="" stroke="yellow" stroke-width="1" fill="none" />
<polyline points="340.0,275.5,336.5,281.5,336.5,279.0,339.5,285.0,340.5,286.0,342.5,287.5,343.5,287.5" stroke="yellow" stroke-width="1" fill="none" />
<polyline points="339.0,285.5,339.0,284.5,339.5,282.5,337.5,282.0,347.5,277.0,348.5,279.5,350.0,289.0,351.5,286.5,352.5,292.5,347.0,299.5,348.0,304.0,346.5,306.0,347.0,304.0,342.0,315.0,349.5,316.0,341.0,324.5,345.0,319.0,347.0,331.0,338.0,329.0,338.0,329.0,338.0,342.0,336.0,342.5,332.0,342.0,334.0,353.5,329.5,353.5,325.0,357.5,314.0,356.5,319.0,367.5,319.0,370.5,318.5,375.5,314.5,376.5,312.5,379.5,317.5,382.5,309.5,383.5,317.0,394.5,336.5,393.5,335.0,401.0,345.0,403.5,351.5,407.5,351.5,410.5,359.0,419.5,349.5,421.5,356.0,426.5,362.0,429.0,356.5,433.0,363.0,433.0,365.0,436.0,367.0,438.5,367.0,446.0,374.5,456.5,374.5,460.5,368.5,463.5,377.5,467.0,376.0,476.0,369.0,476.5,374.5,474.0,381.0,484.5,381.0,486.0,382.0,485.0,383.0,494.0,375.0,494.5,379.5,503.0,377.0,502.5,382.0,504.5" stroke="green" stroke-width="1" fill="none" />
<polyline points="429.5,489.5,424.5,496.5,439.0,494.0,442.0,494.5,446.0,480.5,447.0,481.0" stroke="black" stroke-width="1" fill="none" />
<polyline points="460.5,465.0,460.0,471.0,462.0,468.0" stroke="yellow" stroke-width="1" fill="none" />
<polyline points="457.0,441.5,461.5,438.0,458.5,444.5,459.5,445.5,456.0,442.0,461.5,444.5,458.5,442.0,460.5,441.5" stroke="orange" stroke-width="1" fill="none" />
<polyline points="464.5,427.5,469.5,426.5,472.5,418.5,474.5,418.5,476.0,405.0,482.0,412.5,486.0,402.5,488.5,402.0,493.0,394.5,495.0,391.0,504.5,389.5,503.0,393.5,503.0,392.5" stroke="yellow" stroke-width="1" fill="none" />
<polyline points="498.0,395.0,497.5,390.0,490.0,395.0,481.5,401.5,486.0,402.5,482.0,412.0,479.5,408.0,473.5,416.0,474.5,419.5,467.0,426.0,465.0,427.0,468.0,431.5,465.5,434.5,457.5,439.0,461.5,445.5,455.0,447.0,461.5,445.5,446.5,456.5,456.0,457.0,454.0,458.5,457.0,466.5,451.5,469.0,453.5,479.5,443.0,476.0,443.5,483.5,444.0,483.0" stroke="black" stroke-width="1" fill="none" />
<polyline points="427.0,480.5,427.0,474.5,436.5,483.5,435.0,475.5,432.0,470.0,437.0,467.0,429.0,465.5,437.5,463.0,443.0,455.5,439.5,450.5,432.0,450.0,429.0,455.0,431.0,455.0,432.5,457.0" stroke="yellow" stroke-width="1" fill="none" />
<polyline points="439.0,457.5,438.0,458.0,435.0,454.0,440.5,460.5,438.0,458.0,433.0,460.5,434.0,447.5,429.5,445.0,427.5,443.5,428.0,441.0,428.0,433.5,440.0,430.0,425.0,436.0" stroke="black" stroke-width="1" fill="none" />
<polyline points="427.5,472.0,422.5,471.5,419.0,477.5,424.5,481.0,420.5,489.0,427.0,490.0,424.5,496.0,421.5,495.0,426.5,491.0,427.0,488.0,424.5,488.0" stroke="yellow" stroke-width="1" fill="none" />
<polyline points="428.0,476.5,427.0,472.0,427.5,469.5,428.0,470.5" stroke="orange" stroke-width="1" fill="none" />
<polyline points="487.0,407.5,484.0,410.5,477.5,415.0,473.5,419.0,484.5,414.0,484.0,412.0,492.5,406.5,493.5,407.0" stroke="black" stroke-width="1" fill="none" />
<polyline points="450.0,416.0,452.0,415.5,453.5,416.5,448.0,419.0,446.5,408.5,448.5,409.5,454.5,404.0,447.0,398.5,446.5,399.0,454.0,392.5,458.5,391.5,450.0,380.5,449.0,375.5,447.5,372.0,447.0,371.5" stroke="green" stroke-width="1" fill="none" />
<polyline points="380.5,344.5,379.0,345.5,383.5,341.0,384.5,347.0,385.5,341.5,386.5,343.5,389.0,339.0" stroke="yellow" stroke-width="1" fill="none" />
<polyline points="366.5,356.0,370.0,355.0,370.0,351.0,369.0,351.0,363.0,358.0,366.5,354.5,364.5,360.0,370.0,366.5" stroke="orange" stroke-width="1" fill="none" />
<polyline points="322.0,342.0,318.5,342.0,316.0,336.0,319.0,342.0,321.5,340.0,315.5,336.5" stroke="yellow" stroke-width="1" fill="none" />
<polyline points="315.5,351.5,312.0,354.5,316.5,351.0,320.0,351.5,318.0,355.0,313.0,351.5,312.0,351.0" stroke="yellow" stroke-width="1" fill="none" />
<polyline points="305.5,351.5,304.5,354.0,301.5,358.0,297.5,348.0,297.0,362.5,299.0,359.5" stroke="yellow" stroke-width="1" fill="none" />
<polyline points="" stroke="green" stroke-width="1" fill="none" />
<polyline points="304.0,344.0,300.5,354.0,293.0,349.5,297.0,354.5" stroke="yellow" stroke-width="1" fill="none" />
<polyline points="309.5,331.0,307.5,329.5,311.0,329.0,305.0,335.5,298.0,334.0,311.0,324.5,314.0,335.5" stroke="orange" stroke-width="1" fill="none" />
<polyline points="307.5,331.0,305.0,334.0,299.0,331.5,297.5,328.5,292.5,324.0,298.5,327.0" stroke="orange" stroke-width="1" fill="none" />
<polyline points="298.5,322.5,301.5,322.5,308.5,324.0,307.5,324.5,309.0,327.5" stroke="black" stroke-width="1" fill="none" />
<polyline points="319.0,322.5,319.5,326.5,325.5,320.0,323.0,319.0" stroke="black" stroke-width="1" fill="none" />
<polyline points="" stroke="black" stroke-width="1" fill="none" />
<polyline points="335.5,269.5,335.0,267.5,338.0,271.0,334.5,271.0,334.0,274.0,335.5,276.0,333.5,274.5,335.5,277.0" stroke="yellow" stroke-width="1" fill="none" />
<polyline points="334.0,271.5,334.0,270.0,335.0,270.0,335.0,267.0,337.0,267.5" stroke="green" stroke-width="1" fill="none" />
<polyline points="326.0,276.5,323.5,276.5" stroke="orange" stroke-width="1" fill="none" />
<polyline points="" stroke="orange" stroke-width="1" fill="none" />
<polyline points="324.5,265.0,331.0,259.0,340.0,257.5,336.5,254.5,347.0,255.5,348.0,255.5" stroke="green" stroke-width="1" fill="none" />
<polyline points="345.0,243.0,347.0,241.5,348.5,240.5,346.0,232.5,348.0,229.0,346.0,226.5,339.5,226.5,343.0,222.5,343.0,216.5,340.0,209.5,336.0,206.0,338.0,202.5" stroke="orange" stroke-width="1" fill="none" />
<polyline points="335.5,202.0,335.0,201.5,340.0,199.5,340.0,201.5,344.0,201.0,345.5,196.5,351.5,194.5,350.5,189.0,351.0,185.0,364.0,183.5,372.5,185.5,364.5,184.5,375.0,181.0,376.5,188.5,382.5,182.0,382.0,174.5,383.5,171.5,399.5,176.0,406.0,172.0,398.5,167.5,408.0,168.0,398.0,175.0,400.5,176.5,397.5,181.0,394.5,181.5,392.0,183.0,376.5,191.0,384.5,187.0,392.5,179.5,390.5,182.0,391.0,180.5,394.0,182.5" stroke="green" stroke-width="1" fill="none" />
<polyline points="411.0,158.5,414.0,161.0,415.5,160.0,398.0,164.0,402.0,170.0,397.5,171.5,396.5,173.0,390.5,176.5,394.0,179.0" stroke="green" stroke-width="1" fill="none" />
<polyline points="374.5,179.0,372.5,177.5,372.0,178.5,373.0,179.5,370.5,178.0,370.5,177.5,364.0,184.0,356.5,188.0,349.0,191.0,340.0,199.5,338.5,203.5,339.0,210.5,339.0,207.0,346.0,211.0,351.5,215.0,348.0,212.0,355.5,211.5,350.5,211.5,351.5,209.0" stroke="black" stroke-width="1" fill="none" />
<polyline points="" stroke="green" stroke-width="1" fill="none" />
<polyline points="351.5,219.5,344.0,212.0,349.5,212.5,346.0,215.5,344.5,218.5" stroke="green" stroke-width="1" fill="none" />
<polyline points="339.5,202.5,343.5,200.0" stroke="green" stroke-width="1" fill="none" />
<polyline points="362.0,209.0,353.0,209.5,353.0,203.0,352.0,199.5" stroke="black" stroke-width="1" fill="none" />
<polyline points="347.0,213.0,347.0,213.0" stroke="yellow" stroke-width="1" fill="none" />
<polyline points="348.5,202.0,349.0,201.5,348.0,204.0" stroke="yellow" stroke-width="1" fill="none" />
<polyline points="346.5,201.0,349.0,200.5,347.0,199.0" stroke="green" stroke-width="1" fill="none" />
<polyline points="" stroke="yellow" stroke-width="1" fill="none" />
<polyline points="362.5,190.5,361.5,191.0,372.0,194.5,376.0,193.0,377.0,194.5,379.0,189.0,374.0,191.5" stroke="orange" stroke-width="1" fill="none" />
<polyline points="398.0,155.0,398.0,152.5,393.0,157.0,394.0,162.5,392.0,165.0,391.5,173.5,381.5,169.0,375.5,174.0,380.0,178.5,384.0,167.0,388.5,155.0,384.5,160.0,385.0,158.5" stroke="green" stroke-width="1" fill="none" />
<polyline points="404.5,153.5,406.5,159.5,400.0,165.5,396.5,172.0,393.5,167.5,394.0,174.0,389.5,169.0,393.0,168.5,399.5,160.5,400.0,163.5" stroke="black" stroke-width="1" fill="none" />
<polyline points="398.0,123.5,399.0,122.5,398.0,122.0,392.0,127.5,390.0,132.5,384.0,137.0,386.5,131.5,386.5,124.0,387.5,131.0" stroke="green" stroke-width="1" fill="none" />
<polyline points="396.5,123.5,395.0,119.5,391.0,131.0,381.0,128.0,384.5,134.0,392.0,130.5" stroke="yellow" stroke-width="1" fill="none" />
<polyline points="386.0,120.0,381.0,120.5,382.0,123.0" stroke="yellow" stroke-width="1" fill="none" />
<polyline points="329.0,156.0,326.5,157.0,329.5,152.5,331.0,159.5,328.0,162.0,322.0,165.5,316.5,165.0,307.0,176.0,297.5,177.0,302.5,172.0" stroke="yellow" stroke-width="1" fill="none" />
<polyline points="" stroke="green" stroke-width="1" fill="none" />
<polyline points="289.5,167.5,284.0,165.0,292.5,176.0,294.0,178.5" stroke="orange" stroke-width="1" fill="none" />
<polyline points="" stroke="green" stroke-width="1" fill="none" />
<polyline points="273.0,175.0,275.0,177.0,275.5,176.5,269.5,176.0,271.0,176.0,275.5,173.5" stroke="orange" stroke-width="1" fill="none" />
<polyline points="273.0,180.0,278.0,181.5,273.0,183.0,269.0,182.0,271.0,171.5,259.0,180.0,253.5,182.0,254.0,181.5,252.0,180.5" stroke="orange" stroke-width="1" fill="none" />
<polyline points="251.5,172.0,248.0,167.5,252.5,176.0,244.0,175.0,245.0,178.0,251.5,170.5,247.5,171.5,258.5,172.5,243.0,185.5,250.0,187.5,238.0,191.5,244.5,194.0,242.0,195.5,239.0,198.0,232.0,202.5,238.5,208.0,245.5,211.0,250.5,213.5,251.0,211.0,258.0,206.0,253.0,204.0,258.0,212.5,252.5,214.5,260.5,217.5,249.0,222.5,248.5,225.0,241.5,232.5,240.5,236.5,237.5,239.0,237.5,250.0,233.5,247.0,227.5,256.0,220.5,257.5,223.5,261.5,218.5,264.0,211.5,270.5,217.0,270.5,203.5,275.0,208.0,275.0,204.5,284.0,198.5,293.0,204.0,289.0,199.0,301.5,196.5,301.0,199.5,302.0,194.5,311.0,193.0,310.0,191.0,317.5,186.5,321.5,184.0,319.0,182.0,323.5,175.0,330.0,175.5,337.0,166.5,338.5,163.0,339.5,167.5,343.5,168.5,342.5,168.0,340.0,168.0,342.0" stroke="black" stroke-width="1" fill="none" />
<polyline points="157.0,344.5,163.0,342.5,156.0,355.5,158.0,350.5,160.0,359.5,157.5,358.5,155.0,363.5,157.0,367.0,156.5,378.5,161.0,370.0,163.5,378.0,153.0,386.0,155.5,395.5,154.0,383.5,154.5,400.5,161.5,401.0,163.5,407.5" stroke="orange" stroke-width="1" fill="none" />
<polyline points="" stroke="yellow" stroke-width="1" fill="none" />
<polyline points="159.0,409.5,159.0,407.5,161.0,412.5,163.5,414.0,168.0,416.0" stroke="yellow" stroke-width="1" fill="none" />
<polyline points="167.0,434.0,165.5,437.0,169.5,431.5,170.0,431.0" stroke="orange" stroke-width="1" fill="none" />
<polyline points="179.5,440.0,172.5,441.0,170.5,439.0,179.5,439.5,178.5,444.0" stroke="black" stroke-width="1" fill="none" />
<polyline points="" stroke="orange" stroke-width="1" fill="none" />
<polyline points="" stroke="yellow" stroke-width="1" fill="none" />
<polyline points="" stroke="yellow" stroke-width="1" fill="none" />
<polyline points="171.0,463.5,171.0,465.5" stroke="orange" stroke-width="1" fill="none" />
<polyline points="163.5,468.0,164.0,468.0,161.5,470.0,157.0,467.5,153.0,472.0,149.0,471.5,150.5,451.5,142.0,454.5,141.0,450.5" stroke="green" stroke-width="1" fill="none" />
<polyline points="135.5,466.0,137.0,465.0,139.0,465.0,142.0,473.0,145.5,471.0,148.0,476.0,151.5,480.5,156.0,484.5,159.0,480.0,157.5,485.0,155.5,486.5,162.0,496.0,160.5,489.5,170.0,497.0,163.0,500.5,160.0,500.5,159.5,501.0" stroke="black" stroke-width="1" fill="none" />
<polyline points="" stroke="yellow" stroke-width="1" fill="none" />
<polyline points="168.0,497.0,165.0,499.5,163.0,499.5,155.5,498.5,153.5,498.0,149.0,491.0,147.0,490.5,143.0,490.0,141.5,486.5,136.5,476.5,136.0,477.0,135.5,478.0" stroke="green" stroke-width="1" fill="none" />
<polyline points="" stroke="orange" stroke-width="1" fill="none" />
<polyline points="154.0,510.5" stroke="yellow" stroke-width="1" fill="none" />
<polyline points="158.0,499.5,151.0,499.5,151.5,494.0,150.0,494.5,154.0,496.5,155.5,497.0" stroke="green" stroke-width="1" fill="none" />
<polyline points="157.0,501.0,157.5,497.0,157.5,497.0" stroke="yellow" stroke-width="1" fill="none" />
<polyline points="149.5,481.0,149.5,483.0" stroke="green" stroke-width="1" fill="none" />
<polyline points="155.0,493.0,156.5,490.5,155.0,493.5,158.0,501.0,160.5,504.0,155.0,505.5,159.5,507.0,165.0,508.5,162.5,509.5,165.0,514.0,163.0,511.5" stroke="black" stroke-width="1" fill="none" />
<polyline points="152.0,508.0,152.5,504.0,144.0,511.5,145.5,498.5,151.5,485.5,150.5,483.5,150.5,486.0,150.0,488.5" stroke="orange" stroke-width="1" fill="none" />
<polyline points="139.0,495.0,149.0,493.0,153.0,493.0" stroke="orange" stroke-width="1" fill="none" />
<polyline points="143.5,494.5,147.0,490.5,148.0,492.0,148.5,489.5,152.5,490.0" stroke="black" stroke-width="1" fill="none" />
<polyline points="140.5,500.0,141.0,499.5,142.0,497.5,145.5,499.0,145.5,500.0,145.0,501.0,137.0,494.5,145.5,500.0,143.0,503.0" stroke="orange" stroke-width="1" fill="none" />
<polyline points="144.5,503.5,145.5,504.5,136.0,500.0,142.5,497.0,140.5,490.0" stroke="yellow" stroke-width="1" fill="none" />
<polyline points="132.0,498.0,135.5,498.0,139.5,501.5,133.5,501.0,137.5,500.5" stroke="orange" stroke-width="1" fill="none" />
<polyline points="" stroke="black" stroke-width="1" fill="none" />
<polyline points="126.5,500.5,126.0,508.0,124.0,512.5,128.0,508.0,126.5,508.5" stroke="orange" stroke-width="1" fill="none" />
<polyline points="123.5,489.5,124.0,491.5,122.0,486.0,121.0,488.5,122.5,490.5,120.5,490.0" stroke="yellow" stroke-width="1" fill="none" />
<polyline points="129.0,505.5,128.5,507.5,131.0,504.5,129.0,503.0" stroke="orange" stroke-width="1" fill="none" />
<polyline points="132.0,514.0,134.0,517.0,136.5,509.5" stroke="yellow" stroke-width="1" fill="none" />
<polyline points="138.0,492.0,139.5,490.5,142.0,494.5,137.0,484.0,137.0,484.5" stroke="yellow" stroke-width="1" fill="none" />
<polyline points="137.0,482.0,135.5,480.5,139.5,484.0,141.5,485.0,132.0,482.5,131.5,488.5,129.5,492.0,135.5,495.0,138.5,502.0,133.0,500.0,140.5,505.0,138.5,503.0,139.0,512.5,142.5,507.0,145.5,511.0,142.0,510.5,140.0,509.0,140.5,507.5" stroke="green" stroke-width="1" fill="none" />
<polyline points="160.0,511.5,161.0,512.5" stroke="yellow" stroke-width="1" fill="none" />
<polyline points="168.0,500.0,168.5,499.5,169.0,495.0,165.0,501.0,165.0,501.0" stroke="yellow" stroke-width="1" fill="none" />
<polyline points="157.5,482.0" stroke="orange" stroke-width="1" fill="none" />
<polyline points="166.5,478.5,169.0,479.0,168.5,476.5,168.5,479.0,165.5,479.0" stroke="green" stroke-width="1" fill="none" />
<polyline points="164.5,478.0,166.5,475.5,164.5,478.5,168.0,472.0,165.0,486.0,162.5,483.0" stroke="black" stroke-width="1" fill="none" />
<polyline points="206.5,490.5,206.5,491.0,205.5,490.5,213.5,486.0,214.5,485.0,222.5,482.0,219.0,481.5,223.5,474.0,231.5,469.5,228.0,467.5,228.5,463.5,232.0,470.0" stroke="yellow" stroke-width="1" fill="none" />
<polyline points="" stroke="orange" stroke-width="1" fill="none" />
<polyline points="217.5,484.5,223.0,474.0,230.5,464.5,228.5,465.0,229.0,464.0,240.0,456.0,236.5,462.0,234.0,448.5,235.5,447.5,233.5,444.0,238.5,431.0,242.5,434.0,235.5,429.5,233.0,429.0,233.5,419.5,238.5,422.0,237.5,414.5,229.5,407.0,229.5,406.0,227.5,403.0" stroke="green" stroke-width="1" fill="none" />
<polyline points="218.5,414.5" stroke="yellow" stroke-width="1" fill="none" />
<polyline points="" stroke="orange" stroke-width="1" fill="none" />
<polyline points="244.0,418.0,245.0,420.0,251.5,418.5,240.5,429.5,243.0,428.0,241.0,426.0,241.0,433.5,238.5,434.0,236.5,443.0,235.5,444.5,238.0,452.5,233.5,455.5,234.0,459.5,232.5,457.5,233.5,467.0,231.5,470.5,230.0,469.0,225.0,478.5,221.0,480.5,220.0,488.0,219.5,486.0" stroke="yellow" stroke-width="1" fill="none" />
<polyline points="195.5,496.0,198.5,498.0,197.0,494.0,204.5,494.5,211.0,497.5,210.0,492.5,216.5,493.5,215.5,487.0,224.5,482.5,233.5,478.0,231.5,476.5,229.5,478.0" stroke="green" stroke-width="1" fill="none" />
<polyline points="207.5,440.0,208.5,441.0,208.5,443.5,212.0,442.5" stroke="yellow" stroke-width="1" fill="none" />
<polyline points="194.5,444.0,181.5,446.0,181.0,444.0,178.0,450.0,179.5,451.0,180.0,449.5,187.0,440.0,186.5,436.0,184.0,437.5,179.5,429.0,183.0,426.5,181.0,427.5,180.5,423.0,177.5,418.5,178.5,418.0,170.0,410.5,175.0,402.5,175.0,401.0,170.0,395.0,169.5,393.0,157.5,385.0,161.0,385.0,168.0,384.5" stroke="black" stroke-width="1" fill="none" />
<polyline points="151.5,385.0,151.5,381.0,160.0,377.5,162.0,368.0,165.5,374.5,168.0,365.5,172.0,360.0,173.5,356.0,177.0,344.0,181.5,340.0,178.0,335.5,182.5,335.0,178.5,335.0" stroke="orange" stroke-width="1" fill="none" />
<polyline points="" stroke="orange" stroke-width="1" fill="none" />
<polyline points="198.0,307.0,204.0,299.5,207.0,293.0,211.0,285.0,217.0,276.5,212.0,266.5,218.0,265.5,223.0,248.0,224.5,251.5,233.0,249.0,236.0,235.5,236.0,230.0,247.0,230.5,246.0,230.5,250.5,226.0,250.5,223.0,249.0,220.5" stroke="orange" stroke-width="1" fill="none" />
<polyline points="267.0,225.0,267.0,225.5,262.5,224.0,263.0,225.5,262.0,230.5" stroke="black" stroke-width="1" fill="none" />
<polyline points="" stroke="black" stroke-width="1" fill="none" />
<polyline points="263.5,237.5,264.0,243.0,259.0,237.5,264.0,230.0,262.5,221.5,262.5,218.5,258.5,221.5,250.5,229.5,245.0,237.5,249.0,242.0,236.5,245.0,242.0,252.0,232.5,253.0,225.0,256.0,221.5,269.5,214.0,272.5,222.0,276.0,213.0,281.0,214.5,288.5,214.5,272.5,220.0,277.5,222.5,266.0,224.5,270.5,225.0,255.5,232.0,257.0,228.5,255.0,245.5,243.0,239.5,244.5,246.0,235.5,243.0,238.0,249.0,228.5,256.5,221.0,259.5,224.5,270.5,223.5,266.5,218.0,261.5,223.0,263.0,215.0,270.0,212.5,263.5,199.5,268.5,192.5,271.5,201.0,271.0,189.0,272.5,188.0,268.0,197.0,259.0,195.5,254.5,201.0,253.0,209.0,250.5,198.0,253.5,200.0" stroke="black" stroke-width="1" fill="none" />
<polyline points="" stroke="green" stroke-width="1" fill="none" />
<polyline points="263.5,204.0,264.5,214.5,254.0,217.5,246.0,224.0,248.0,225.5,244.0,230.0,229.5,235.5,236.5,235.0,230.0,241.0,237.5,233.0,229.0,228.5,225.5,221.5,226.5,218.0,225.0,212.5,223.5,212.5,226.0,209.5,231.5,209.5,227.0,209.5" stroke="orange" stroke-width="1" fill="none" />
<polyline points="237.5,200.0,236.5,200.0,238.0,202.0,236.0,205.5,234.5,204.0,232.0,201.0,236.5,204.0,235.0,210.0,231.5,206.5,239.0,209.5,236.5,212.0,237.0,210.0" stroke="green" stroke-width="1" fill="none" />
<polyline points="236.0,204.0,236.0,205.0" stroke="orange" stroke-width="1" fill="none" />
<polyline points="" stroke="orange" stroke-width="1" fill="none" />
<polyline points="242.5,200.5,247.0,196.0,251.5,188.0,255.5,194.0,251.0,190.5,253.5,189.5,244.0,196.0,249.5,192.5,245.5,187.0,253.0,185.5,254.5,191.5" stroke="black" stroke-width="1" fill="none" />
<polyline points="269.0,183.5,269.5,184.0,270.0,178.0,259.5,188.5,259.5,186.0,254.5,201.5,255.5,202.0,252.5,199.5,249.0,203.5,249.5,202.5,251.0,196.0,257.5,201.5,257.0,186.0,262.5,192.5" stroke="green" stroke-width="1" fill="none" />
<polyline points="248.0,206.0,260.5,189.5,265.0,193.0,258.5,193.0,256.0,193.0" stroke="black" stroke-width="1" fill="none" />
<polyline points="266.0,186.0,262.0,193.5,257.0,190.0,263.5,198.5,255.0,201.0,256.0,208.5,251.0,209.5,250.0,215.0,253.5,214.0,252.0,216.0,256.0,217.5" stroke="green" stroke-width="1" fill="none" />
<polyline points="254.5,198.0,254.5,196.0,258.0,196.5,260.5,205.5,260.0,208.5,252.5,209.0,260.5,214.5,251.0,213.5,246.5,214.5,249.0,227.0,240.0,240.5,239.5,238.0,231.5,236.5,227.5,238.0,238.0,242.5,233.5,241.5,232.0,243.0" stroke="black" stroke-width="1" fill="none" />
<polyline points="" stroke="green" stroke-width="1" fill="none" />
<polyline points="" stroke="yellow" stroke-width="1" fill="none" />
<polyline points="229.0,213.0,228.0,215.0,223.0,221.0,223.5,221.5" stroke="green" stroke-width="1" fill="none" />
<polyline points="215.5,223.5,217.5,225.5" stroke="black" stroke-width="1" fill="none" />
<polyline points="224.0,232.5,222.5,233.0,219.0,233.5,219.5,238.5,222.5,236.0,223.0,240.0,217.0,252.0,223.5,256.5,218.0,250.5,223.5,248.5" stroke="black" stroke-width="1" fill="none" />
<polyline points="220.5,244.0,225.5,248.0,223.0,228.0,228.0,237.0,225.0,232.5,219.5,230.0,222.5,228.0,217.0,228.5,223.5,213.0,225.5,214.0,224.5,211.5,226.5,211.5" stroke="yellow" stroke-width="1" fill="none" />
<polyline points="219.5,215.5,222.0,217.0,220.0,211.5,213.5,218.5,218.5,222.5,215.0,223.0,216.0,223.0,218.5,221.0,215.0,220.0" stroke="black" stroke-width="1" fill="none" />
<polyline points="219.5,259.0,215.0,256.0,210.0,269.5,209.0,272.5,202.0,277.5,204.0,284.0,195.5,287.0,194.5,305.0,189.5,311.5,187.0,321.5,181.5,323.5,179.5,324.0,170.5,327.0,171.0,336.5,168.0,336.5,156.0,332.0,155.5,333.0,150.0,342.5,143.0,348.5,144.5,349.5,143.5,351.0" stroke="yellow" stroke-width="1" fill="none" />
<polyline points="145.5,343.5,144.0,344.5,146.5,347.5,144.0,340.5,141.5,340.0,147.5,340.0,142.0,335.0,151.0,340.0,149.0,329.5,150.0,329.0,153.5,323.5,146.5,327.5,150.0,324.0,146.5,330.5" stroke="yellow" stroke-width="1" fill="none" />
<polyline points="148.0,327.0,156.5,330.5,154.5,332.5,156.0,333.5,153.0,334.5,153.0,334.5" stroke="yellow" stroke-width="1" fill="none" />
<polyline points="144.0,344.5,149.0,345.5,148.0,343.5,146.0,343.5" stroke="yellow" stroke-width="1" fill="none" />
<polyline points="144.5,349.5,143.5,347.5,139.5,347.5,139.0,344.5,133.0,339.0,137.5,337.0,133.0,331.0,132.0,327.0,130.5,324.0,131.5,324.0,133.5,320.0,136.5,321.0" stroke="black" stroke-width="1" fill="none" />
<polyline points="" stroke="green" stroke-width="1" fill="none" />
<polyline points="125.0,302.5,124.5,301.5" stroke="yellow" stroke-width="1" fill="none" />
<polyline points="128.0,292.0,131.0,290.0,129.0,294.0,130.5,300.5,131.0,287.0,140.5,291.5,133.0,286.5,137.0,294.5,137.5,293.0,141.0,291.5,138.5,293.5" stroke="black" stroke-width="1" fill="none" />
<polyline points="139.0,278.5,129.5,282.5,132.0,281.0" stroke="black" stroke-width="1" fill="none" />
<polyline points="142.0,278.0,144.5,274.5,154.5,267.0,141.5,269.0,145.5,263.5,144.0,264.5,144.0,265.0" stroke="orange" stroke-width="1" fill="none" />
<polyline points="151.5,267.0,154.0,267.0,154.5,270.5,154.0,270.0" stroke="green" stroke-width="1" fill="none" />
<polyline points="" stroke="black" stroke-width="1" fill="none" />
<polyline points="174.0,276.5,170.0,273.5,164.5,281.0,174.0,275.5,163.5,269.5,171.5,266.5,172.0,261.0,167.0,255.0,173.0,260.0,171.5,256.0,174.0,250.5,169.5,247.0,168.0,247.0" stroke="black" stroke-width="1" fill="none" />
<polyline points="" stroke="yellow" stroke-width="1" fill="none" />
<polyline points="175.5,261.5,176.0,261.0" stroke="orange" stroke-width="1" fill="none" />
<polyline points="" stroke="green" stroke-width="1" fill="none" />
<polyline points="" stroke="green" stroke-width="1" fill="none" />
<polyline points="" stroke="yellow" stroke-width="1" fill="none" />
<polyline points="177.0,260.5,179.0,260.0,173.0,268.0" stroke="yellow" stroke-width="1" fill="none" />
<polyline points="189.5,262.0,188.5,258.0" stroke="black" stroke-width="1" fill="none" />
<polyline points="" stroke="black" stroke-width="1" fill="none" />
<polyline points="208.5,243.5,206.0,246.0" stroke="orange" stroke-width="1" fill="none" />
<polyline points="207.0,243.0,210.0,237.5,216.0,236.5,205.0,240.0,204.5,243.5" stroke="black" stroke-width="1" fill="none" />
<polyline points="" stroke="orange" stroke-width="1" fill="none" />
<polyline points="" stroke="green" stroke-width="1" fill="none" />
<polyline points="" stroke="yellow" stroke-width="1" fill="none" />
<polyline points="218.5,253.0,219.0,251.5,215.0,251.5,212.0,253.5,213.0,255.5,209.5,255.5,212.5,257.5" stroke="green" stroke-width="1" fill="none" />
<polyline points="215.5,254.5,212.0,250.5,207.0,244.0,211.0,252.5" stroke="yellow" stroke-width="1" fill="none" />
<polyline points="201.5,266.5,203.0,265.5,197.5,259.0,196.5,250.5,194.0,256.5,194.5,257.5" stroke="orange" stroke-width="1" fill="none" />
<polyline points="200.5,255.0,207.0,265.0,203.0,265.0,202.0,264.0" stroke="green" stroke-width="1" fill="none" />
<polyline points="185.0,276.0,188.0,273.0,180.5,268.5,185.5,266.5,187.5,260.0,178.0,255.5,188.5,251.0,187.0,251.0,189.0,242.5,189.5,245.5,197.0,234.0,197.5,234.0,198.5,237.0,187.5,245.5,186.5,248.0,187.0,242.0,185.5,243.5" stroke="green" stroke-width="1" fill="none" />
<polyline points="193.0,231.0,192.5,226.0,192.0,226.5,188.0,229.0,189.5,219.5,198.0,219.0,197.5,228.5" stroke="yellow" stroke-width="1" fill="none" />
<polyline points="187.5,215.5,183.5,215.0,189.0,214.5,190.0,223.5,185.5,223.5,188.5,230.0,187.0,232.5,188.0,238.5,190.5,239.0" stroke="yellow" stroke-width="1" fill="none" />
<polyline points="196.0,236.0,195.0,235.5,194.5,241.5,191.0,241.0" stroke="black" stroke-width="1" fill="none" />
<polyline points="208.5,237.5,200.5,236.5,200.0,238.0,202.0,234.0,198.0,235.0,198.0,247.5,193.0,242.5,185.5,247.5,196.0,244.5,198.0,240.5,196.5,240.0" stroke="green" stroke-width="1" fill="none" />
<polyline points="217.0,233.0,216.5,231.0,213.0,231.5,213.5,224.0,214.5,220.0" stroke="black" stroke-width="1" fill="none" />
<polyline points="213.5,221.0" stroke="green" stroke-width="1" fill="none" />
<polyline points="217.0,217.5,218.0,218.0,206.5,226.0,207.0,229.0" stroke="yellow" stroke-width="1" fill="none" />
<polyline points="225.0,207.0,223.5,205.0,221.5,206.5,226.5,201.5,228.0,200.5,220.5,200.5,213.5,206.5,218.0,212.5,221.0,207.5,220.0,215.5,229.0,220.5,234.0,225.5,223.0,230.5,231.0,231.5,232.0,241.5,230.5,236.5,237.0,245.0,228.5,242.0,225.0,252.0,228.5,257.0,221.0,255.0,221.5,270.0,214.0,274.0,218.0,274.5,205.5,273.0,208.0,279.0,211.0,291.0,199.0,283.5,207.5,291.5,197.5,295.0,193.5,297.0,192.5,297.5,193.0,307.5,196.0,311.0,192.0,311.0,191.5,323.0,196.0,323.5,201.0,319.0,207.0,310.5,205.5,310.0,213.0,310.0,213.5,295.5,220.0,284.5,219.0,286.5,230.0,279.0,236.0,277.0,236.5,273.0,244.0,271.0,243.5,265.5,248.5,260.0,251.5,258.0,256.0,254.5,265.5,247.0,267.0,245.0,272.5,245.5,282.0,242.5,279.5,244.5,288.5,251.0,289.5,252.0,289.5,252.5" stroke="yellow" stroke-width="1" fill="none" />
<polyline points="290.5,256.5,294.0,251.0,292.5,260.5,287.5,255.5,289.5,259.5,281.0,256.5,286.5,260.0,288.0,254.0" stroke="yellow" stroke-width="1" fill="none" />
<polyline points="291.0,269.5,291.0,269.5,295.0,272.5,294.0,270.5" stroke="yellow" stroke-width="1" fill="none" />
<polyline points="" stroke="black" stroke-width="1" fill="none" />
<polyline points="" stroke="orange" stroke-width="1" fill="none" />
<polyline points="" stroke="green" stroke-width="1" fill="none" />
<polyline points="290.0,273.0,279.5,272.0,282.0,267.5,276.5,264.5" stroke="black" stroke-width="1" fill="none" />
<polyline points="" stroke="green" stroke-width="1" fill="none" />
<polyline points="264.5,269.5,265.0,271.0,268.0,269.5,265.0,271.0" stroke="orange" stroke-width="1" fill="none" />
<polyline points="256.5,268.0,258.0,268.5,255.0,262.5,261.5,265.5,267.5,272.0,270.5,275.5,269.5,267.5,277.0,272.0,277.0,272.5,275.5,272.5,273.0,273.5,275.0,274.0,277.0,274.0" stroke="black" stroke-width="1" fill="none" />
<polyline points="257.5,266.0" stroke="green" stroke-width="1" fill="none" />
<polyline points="267.0,281.5,266.5,280.5" stroke="black" stroke-width="1" fill="none" />
<polyline points="255.5,271.5,259.0,270.0,259.0,270.5" stroke="green" stroke-width="1" fill="none" />
<polyline points="252.0,267.5,249.5,268.5,251.0,263.5,247.5,272.0,246.0,276.5,255.0,273.5,254.0,281.5,263.0,282.5,270.5,275.5,272.5,281.5,280.0,284.5,280.5,276.0,282.0,269.5,284.5,270.5,282.0,269.0" stroke="orange" stroke-width="1" fill="none" />
<polyline points="291.0,266.0,292.5,266.0,293.5,263.0,294.5,265.0,286.5,263.5,284.0,255.5,276.5,256.5,284.5,254.5,275.0,259.5" stroke="orange" stroke-width="1" fill="none" />
<polyline points="275.5,254.5,277.5,256.0,276.5,253.0,269.0,253.5" stroke="yellow" stroke-width="1" fill="none" />
<polyline points="271.5,255.0,272.5,247.5,275.0,250.5,280.0,252.5,278.0,249.5" stroke="black" stroke-width="1" fill="none" />
<polyline points="272.0,251.5,272.0,253.5,277.5,262.0,263.0,258.0,261.0,254.5,263.0,254.5,255.5,259.0,255.5,257.0,252.5,257.0" stroke="black" stroke-width="1" fill="none" />
<polyline points="" stroke="black" stroke-width="1" fill="none" />
<polyline points="275.0,268.0,275.0,267.0,277.0,264.0,278.0,260.0,280.5,271.5,279.5,269.0,281.0,274.0,280.5,279.5,288.5,284.0,288.5,272.0" stroke="green" stroke-width="1" fill="none" />
<polyline points="284.5,251.5,284.5,251.5,284.5,253.5,287.0,248.0,286.5,249.0,286.5,252.0" stroke="yellow" stroke-width="1" fill="none" />
<polyline points="268.0,242.5,259.0,259.5,257.0,253.0,252.0,258.0,248.0,255.0,243.5,266.5,245.5,262.5,241.5,275.0,236.5,275.5,229.0,290.0,228.0,290.0,217.0,285.0,216.0,293.5,210.5,294.0,218.5,305.0,205.0,299.0,205.5,311.5,203.0,315.5,201.0,314.5,201.5,320.5,190.0,329.0,195.5,325.0,195.0,328.5,185.0,331.0,187.0,337.5,178.5,349.5,177.5,351.5,176.5,351.5,173.5,354.5,170.5,362.5,166.0,359.5,164.0,370.5,154.0,381.0,159.5,375.5,158.0,385.5,155.5,390.0,168.5,395.5,174.0,402.0,171.0,408.0,176.5,410.0" stroke="orange" stroke-width="1" fill="none" />
<polyline points="176.0,410.0,175.5,411.5,174.0,411.0,169.0,408.0,171.5,410.0,172.0,413.5,164.5,403.0" stroke="black" stroke-width="1" fill="none" />
<polyline points="159.0,379.0,150.5,385.0,150.0,382.5,148.0,382.0,151.0,384.5,154.0,391.5,153.0,391.0" stroke="orange" stroke-width="1" fill="none" />
<polyline points="" stroke="green" stroke-width="1" fill="none" />
<polyline points="138.5,376.0,137.5,373.5,142.0,375.0,148.0,380.0,142.0,381.0,140.0,380.0" stroke="green" stroke-width="1" fill="none" />
<polyline points="136.5,393.5,136.5,397.0,142.0,403.5,130.5,404.5,128.0,414.0,128.5,419.0,130.0,415.5,137.5,420.5,132.0,426.0,142.5,433.0,145.5,437.5,139.0,439.0,141.5,446.0,138.0,446.0,138.0,451.0,142.0,460.5,136.0,458.0,129.5,458.0,142.0,473.0,139.5,471.0,134.5,467.5,141.0,472.5,146.5,479.5,155.5,476.5,147.5,490.0,152.5,481.5,162.0,491.5,163.5,492.0" stroke="black" stroke-width="1" fill="none" />
<polyline points="168.0,466.0,167.0,463.5,172.0,467.0" stroke="yellow" stroke-width="1" fill="none" />
<polyline points="178.5,461.0,180.5,462.5,176.0,455.5,172.0,463.5,175.5,452.0,170.5,449.0,168.5,453.5,166.0,443.5,163.0,446.5,164.5,432.0,167.5,436.5,174.5,431.0,171.5,433.0" stroke="black" stroke-width="1" fill="none" />
<polyline points="" stroke="orange" stroke-width="1" fill="none" />
<polyline points="160.5,427.5,163.0,426.0,162.0,427.0,162.5,424.5,166.5,423.0,160.5,415.5,162.0,415.0,163.5,408.5,160.5,403.5,166.5,398.0,162.5,397.5,159.0,395.5,161.5,393.0,157.0,388.5,154.0,375.5,151.0,379.5,154.5,370.5,153.0,366.5,153.0,366.5" stroke="yellow" stroke-width="1" fill="none" />
<polyline points="151.5,369.5,154.0,380.0,149.0,382.0,156.5,379.5,147.0,383.5,158.0,390.5,162.0,392.0,157.5,401.5,165.5,402.0,177.5,406.0,175.5,409.0,178.5,414.0" stroke="orange" stroke-width="1" fill="none" />
<polyline points="174.5,421.0,175.5,423.0,176.0,425.5,176.5,436.5,172.0,438.5,169.0,431.0,170.0,444.5,171.0,437.5,172.5,449.5,177.0,454.0,176.5,457.5,170.5,456.5,174.0,464.0,174.5,465.0,177.0,463.0,175.5,468.0" stroke="black" stroke-width="1" fill="none" />
<polyline points="177.5,460.0,173.0,445.0,168.5,449.0,164.0,444.0,165.5,445.5" stroke="yellow" stroke-width="1" fill="none" />
<polyline points="167.0,447.5,165.0,447.5,166.0,443.5,163.5,448.5,166.5,452.0,171.5,461.5,174.5,454.5,167.0,461.5,168.0,470.0,160.5,468.5,164.5,474.0,167.5,482.0,160.0,478.5,155.5,481.5,162.0,494.0,166.0,490.5,165.0,496.0,167.0,498.5,162.5,506.5,168.0,507.0,167.5,504.0" stroke="orange" stroke-width="1" fill="none" />
<polyline points="" stroke="orange" stroke-width="1" fill="none" />
<polyline points="155.0,465.0" stroke="black" stroke-width="1" fill="none" />
<polyline points="163.0,462.5,160.5,461.0,160.0,451.5,155.0,456.0" stroke="yellow" stroke-width="1" fill="none" />
<polyline points="158.5,465.5,158.0,461.0,158.5,460.0,155.5,457.5,152.5,452.5,149.5,457.5,152.5,452.5,151.0,456.0,148.5,446.5,145.5,441.0,143.0,435.5,141.5,429.5,146.5,428.0,140.0,426.0" stroke="black" stroke-width="1" fill="none" />
<polyline points="" stroke="green" stroke-width="1" fill="none" />
<polyline points="138.0,400.0,139.0,400.0,143.0,399.0,144.0,402.0,140.5,398.0" stroke="black" stroke-width="1" fill="none" />
<polyline points="" stroke="yellow" stroke-width="1" fill="none" />
<polyline points="160.0,423.5,160.5,423.5,160.5,423.0,153.0,430.5,159.5,432.5,158.5,430.5,162.5,432.0" stroke="green" stroke-width="1" fill="none" />
<polyline points="168.5,441.5,169.5,442.0,172.5,447.5,170.0,446.5,179.0,437.5,180.5,442.5,178.0,437.0,184.0,433.0,185.5,429.5,185.5,429.5" stroke="orange" stroke-width="1" fill="none" />
<polyline points="181.0,422.5,177.5,421.5,175.5,418.0,171.5,411.5,169.5,410.0,167.5,403.0,162.0,405.0,161.0,404.5" stroke="green" stroke-width="1" fill="none" />
<polyline points="171.5,421.0,170.0,421.5,168.5,421.0,168.0,427.0,161.5,428.5,161.5,436.5,157.5,431.5,164.0,436.0,170.0,429.0,171.0,427.5,170.5,426.0" stroke="black" stroke-width="1" fill="none" />
<polyline points="169.0,427.5,168.5,428.5,168.0,430.0,165.0,428.5,168.0,422.0,168.0,439.5,171.5,440.0,174.0,435.0,169.5,441.5,180.0,439.5,169.0,431.5" stroke="orange" stroke-width="1" fill="none" />
<polyline points="157.5,447.0,161.5,446.5,158.5,447.5,165.5,454.0,156.0,451.0,159.0,451.5,160.0,449.0" stroke="orange" stroke-width="1" fill="none" />
<polyline points="170.5,457.0,172.0,456.5,170.0,453.0,164.0,456.0,159.5,462.5,162.5,454.0,161.5,449.0,159.0,445.5" stroke="green" stroke-width="1" fill="none" />
<polyline points="" stroke="green" stroke-width="1" fill="none" />
<polyline points="143.0,450.5,143.5,454.0,147.0,449.5,150.5,455.5,150.5,452.0,149.5,457.5,152.5,457.5" stroke="green" stroke-width="1" fill="none" />
<polyline points="154.5,455.5,151.5,450.5,140.5,452.5,145.5,454.0,142.0,456.5" stroke="orange" stroke-width="1" fill="none" />
<polyline points="147.0,449.5,144.5,454.5,142.0,453.5,150.0,459.0,148.0,460.5,149.5,467.0,151.0,469.0,158.5,472.5,160.5,473.5,157.0,480.5,157.5,483.5,170.0,473.0,163.0,477.0,172.0,478.0,174.5,476.5" stroke="orange" stroke-width="1" fill="none" />
<polyline points="" stroke="yellow" stroke-width="1" fill="none" />
<polyline points="143.0,466.5,146.5,465.5" stroke="yellow" stroke-width="1" fill="none" />
<polyline points="149.5,472.0,148.0,468.0,145.5,471.0,148.5,473.0,149.0,471.0,149.0,472.5,149.0,467.0,139.0,458.0,136.5,466.0,139.0,462.0,142.5,467.5,141.0,470.5" stroke="green" stroke-width="1" fill="none" />
<polyline points="142.0,459.5,141.0,455.5,144.5,454.5,142.0,463.0,148.5,463.5,139.5,467.5,148.0,470.0" stroke="orange" stroke-width="1" fill="none" />
<polyline points="165.5,475.0,161.5,474.0,163.5,474.5" stroke="yellow" stroke-width="1" fill="none" />
<polyline points="141.5,458.0,140.5,459.5,146.0,455.0,145.5,458.5,143.0,454.5,145.5,458.0,148.5,458.5,147.0,460.5,147.0,467.5,156.0,467.5,152.5,473.5,159.5,478.0,164.5,473.5,161.5,486.0,156.0,491.0,161.0,493.0,161.0,494.0,164.5,499.0,168.0,507.0,167.0,507.0" stroke="green" stroke-width="1" fill="none" />
<polyline points="169.5,455.5,166.5,456.0,165.5,463.0,170.5,457.5,163.0,451.0,163.0,451.5,160.0,439.0,153.5,447.5,157.5,451.0,158.0,441.0,153.0,448.0,156.5,433.5,157.5,435.0" stroke="orange" stroke-width="1" fill="none" />
<polyline points="" stroke="orange" stroke-width="1" fill="none" />
<polyline points="" stroke="green" stroke-width="1" fill="none" />
<polyline points="131.5,412.5,133.0,408.0,132.5,409.0" stroke="green" stroke-width="1" fill="none" />
<polyline points="145.5,410.5,143.0,424.5,146.5,427.0,147.0,430.5,150.5,429.5,148.5,430.0,145.0,432.5,149.0,432.5,147.5,432.0,148.5,435.5,145.5,437.5" stroke="orange" stroke-width="1" fill="none" />
<polyline points="152.5,407.0,153.5,410.5,140.0,398.5,145.0,401.5,150.0,398.0" stroke="yellow" stroke-width="1" fill="none" />
<polyline points="" stroke="yellow" stroke-width="1" fill="none" />
<polyline points="148.5,394.0,152.0,396.5,158.5,397.0,156.5,401.0,160.5,401.5,161.0,399.5" stroke="green" stroke-width="1" fill="none" />
<polyline points="153.5,400.0,148.5,396.5,148.0,394.5,150.5,403.0,139.5,397.5,138.5,394.5,140.0,399.5,134.5,395.0,123.0,403.0,125.5,401.5,115.5,396.5" stroke="orange" stroke-width="1" fill="none" />
<polyline points="125.5,397.0,120.5,394.5,123.5,398.5,124.0,397.0,120.0,400.5,118.5,401.0" stroke="orange" stroke-width="1" fill="none" />
<polyline points="145.5,389.0,148.0,385.0,142.0,385.0,141.0,384.5,145.0,378.0,152.5,373.5,149.0,366.0,148.0,374.5,145.5,357.5,144.0,355.0,148.5,360.5,146.0,354.0,144.5,354.0,139.5,348.5,139.0,343.0,138.5,338.0,142.0,330.5,135.0,328.5,139.0,326.5,132.5,316.0,134.5,316.5,132.0,316.0,133.5,307.5,135.0,307.5,124.5,297.0,133.0,294.5,138.5,292.0,140.5,289.0,128.5,285.0,128.0,278.5,127.0,278.0" stroke="orange" stroke-width="1" fill="none" />
<polyline points="128.0,280.5,127.0,279.5,124.5,280.0,129.5,283.0,126.0,287.0,129.5,295.0,121.0,296.5,128.5,298.5,126.0,311.5,123.5,309.5,122.0,314.5,119.5,317.0,118.0,319.0" stroke="yellow" stroke-width="1" fill="none" />
<polyline points="118.0,334.5,118.5,331.5,124.5,343.0,124.0,346.5,121.0,344.5,120.5,342.5,125.5,348.0,121.0,344.5" stroke="orange" stroke-width="1" fill="none" />
<polyline points="123.0,347.5,117.0,354.5,116.5,362.0,113.5,364.0,114.5,369.5,113.5,372.5,119.0,377.0,117.5,383.0,114.5,380.5,118.5,390.0,124.5,395.5,116.5,397.0,128.0,404.0,129.0,400.0,126.5,405.5,128.5,407.5,137.0,411.0,134.0,410.0" stroke="green" stroke-width="1" fill="none" />
<polyline points="126.0,398.5,121.5,394.0,121.5,391.5,123.5,390.0,118.0,384.0,120.0,381.0" stroke="green" stroke-width="1" fill="none" />
<polyline points="123.5,372.5,120.5,372.5,120.0,370.0,117.0,367.5,119.5,366.0,119.0,365.0,124.0,368.5,124.5,381.5,126.0,376.5" stroke="black" stroke-width="1" fill="none" />
<polyline points="124.0,377.0,123.0,380.5,124.5,381.5,126.5,387.5,121.5,391.0,136.0,400.0,132.5,396.5" stroke="green" stroke-width="1" fill="none" />
<polyline points="121.5,387.5,121.0,389.5,125.0,393.0,125.5,397.0,131.5,398.0,134.5,395.5" stroke="green" stroke-width="1" fill="none" />
<polyline points="121.0,387.5" stroke="orange" stroke-width="1" fill="none" />
<polyline points="120.5,400.0,119.5,400.5,115.0,402.5,112.0,402.5,112.5,403.0,112.5,403.5,113.0,405.5" stroke="orange" stroke-width="1" fill="none" />
<polyline points="116.5,416.5,116.0,415.0,119.0,414.0,120.0,414.0,122.0,406.5,130.0,403.5,128.0,411.0,126.0,409.0" stroke="yellow" stroke-width="1" fill="none" />
<polyline points="" stroke="yellow" stroke-width="1" fill="none" />
<polyline points="128.0,411.5,126.0,409.0,132.0,404.0,138.0,407.0,131.0,406.5,132.0,409.0" stroke="black" stroke-width="1" fill="none" />
<polyline points="145.5,410.0,144.5,411.0,149.5,413.0,143.5,410.0,153.5,417.5,154.5,416.5" stroke="green" stroke-width="1" fill="none" />
<polyline points="143.0,406.0,141.0,409.5,140.0,405.0,141.5,407.5,141.5,401.5,145.0,403.5,143.5,401.5" stroke="green" stroke-width="1" fill="none" />
<polyline points="" stroke="black" stroke-width="1" fill="none" />
<polyline points="" stroke="green" stroke-width="1" fill="none" />
<polyline points="162.5,400.0,175.0,405.5,168.0,406.5,174.5,412.5,184.5,415.0,178.5,418.0,176.0,423.0,178.5,430.5" stroke="black" stroke-width="1" fill="none" />
<polyline points="170.0,421.5,164.5,412.0,153.5,409.5,159.0,405.5,147.0,402.0,149.0,391.5,147.5,391.0,140.0,386.5,143.5,392.0,137.0,384.0,138.0,384.0,146.0,378.5,138.0,378.0,130.5,374.0,138.5,368.0,144.0,374.0,139.5,367.0,145.0,355.0,139.5,357.5,143.0,348.5,141.5,352.0,127.0,350.0,128.5,343.5,136.5,341.5,130.5,333.0,131.5,329.5,132.0,329.0,131.5,327.5,131.0,328.0,132.5,331.5" stroke="orange" stroke-width="1" fill="none" />
<polyline points="121.0,328.0,127.0,325.0,126.5,330.0,114.5,327.0,114.5,330.0" stroke="black" stroke-width="1" fill="none" />
<polyline points="114.5,333.0,115.0,335.0,118.5,339.0,114.5,341.0,121.0,341.0,120.5,345.5,115.0,345.5,126.0,349.5,118.5,355.0,121.5,354.0,122.0,361.5,118.0,362.0,124.5,372.5,126.5,373.0,136.0,378.5,128.5,382.0,131.0,384.5,132.0,391.5,134.5,385.5" stroke="green" stroke-width="1" fill="none" />
<polyline points="146.5,368.0,147.5,368.5,144.5,367.0,141.5,365.5,142.5,364.5,142.5,370.0,133.0,371.5,136.0,370.0" stroke="yellow" stroke-width="1" fill="none" />
<polyline points="" stroke="black" stroke-width="1" fill="none" />
<polyline points="" stroke="green" stroke-width="1" fill="none" />
<polyline points="124.0,348.0,128.0,354.5,128.0,352.0,132.5,352.5,126.5,349.5,130.0,354.5,131.0,353.0,125.5,356.0,128.5,358.5,128.0,355.0,128.5,354.0,129.0,353.0" stroke="green" stroke-width="1" fill="none" />
<polyline points="141.0,364.5,141.0,367.0" stroke="yellow" stroke-width="1" fill="none" />
<polyline points="146.0,367.0,147.5,366.5,144.5,365.0,142.0,360.5,141.5,352.5,138.5,360.5,139.0,351.5,137.0,342.0,141.5,333.0,129.0,340.5,130.5,337.5,133.5,337.5,130.0,333.0,131.0,338.0" stroke="yellow" stroke-width="1" fill="none" />
<polyline points="128.5,332.5,126.0,338.0,137.0,340.5,141.5,339.0,139.0,342.5,138.5,337.5" stroke="black" stroke-width="1" fill="none" />
<polyline points="141.0,345.5,143.0,344.0,141.0,349.5,140.0,337.5,145.5,337.5,141.5,340.5,139.5,339.0" stroke="orange" stroke-width="1" fill="none" />
<polyline points="" stroke="black" stroke-width="1" fill="none" />
<polyline points="131.5,344.5,129.0,346.0,125.0,340.5,127.5,338.5,123.5,343.5,122.0,343.0" stroke="orange" stroke-width="1" fill="none" />
<polyline points="111.5,350.0,119.0,355.0,118.0,362.5,113.5,363.0,114.0,365.5,116.0,377.5,119.5,370.5,111.5,377.5,114.0,381.0,113.0,386.5,121.0,393.0,114.0,393.5,119.5,396.5,117.5,403.0,120.0,410.0,118.5,406.5,111.5,410.5,109.5,408.0,108.5,408.5" stroke="green" stroke-width="1" fill="none" />
<polyline points="" stroke="green" stroke-width="1" fill="none" />
<polyline points="120.5,411.5,122.5,413.0" stroke="yellow" stroke-width="1" fill="none" />
<polyline points="128.5,428.5,128.5,427.0,126.0,425.0,121.5,428.0,123.5,422.0,126.0,421.0" stroke="yellow" stroke-width="1" fill="none" />
<polyline points="117.5,421.5,121.0,417.5,115.5,424.0,127.0,422.0,121.0,422.0,126.0,421.5" stroke="yellow" stroke-width="1" fill="none" />
<polyline points="122.5,427.0,124.0,428.5,122.5,429.0,122.5,443.5,121.0,441.0,118.0,444.0,122.5,451.5,119.5,451.0" stroke="black" stroke-width="1" fill="none" />
<polyline points="" stroke="orange" stroke-width="1" fill="none" />
<polyline points="" stroke="black" stroke-width="1" fill="none" />
<polyline points="" stroke="orange" stroke-width="1" fill="none" />
<polyline points="" stroke="yellow" stroke-width="1" fill="none" />
<polyline points="106.5,430.5,107.0,432.5,107.5,437.0,108.0,433.5" stroke="orange" stroke-width="1" fill="none" />
<polyline points="83.5,453.5,93.0,456.0,92.0,458.0" stroke="yellow" stroke-width="1" fill="none" />
<polyline points="94.5,455.5,97.0,451.0,96.0,456.5,96.5,457.0" stroke="black" stroke-width="1" fill="none" />
<polyline points="94.5,472.0" stroke="green" stroke-width="1" fill="none" />
<polyline points="100.0,495.0,99.5,497.5,105.0,502.5,99.5,509.5,104.5,506.5,107.5,506.5,101.5,505.5,103.0,504.0" stroke="green" stroke-width="1" fill="none" />
<polyline points="103.0,503.5,100.0,504.5,104.5,505.0,113.0,501.0,113.5,500.5,111.0,493.0,117.5,486.0" stroke="green" stroke-width="1" fill="none" />
<polyline points="116.5,496.5,118.0,498.0,119.0,497.0,115.0,503.0,112.5,499.0,109.5,499.5" stroke="orange" stroke-width="1" fill="none" />
<polyline points="" stroke="black" stroke-width="1" fill="none" />
<polyline points="99.0,498.5,101.0,497.0,101.5,493.5,102.0,497.5,99.5,497.0,104.0,498.5,99.0,512.0,101.0,510.0" stroke="green" stroke-width="1" fill="none" />
<polyline points="122.5,505.0,117.5,506.0,123.0,499.5,119.0,493.5,115.5,487.5,121.5,483.0,118.0,476.5,121.5,483.5,117.0,486.0,116.5,484.5,114.5,486.0" stroke="black" stroke-width="1" fill="none" />
<polyline points="128.0,488.5,127.0,486.5,124.0,498.0,133.0,490.5,122.0,505.5,123.0,497.5,135.5,508.5" stroke="orange" stroke-width="1" fill="none" />
<polyline points="130.5,422.0,128.5,422.0,128.5,420.5" stroke="green" stroke-width="1" fill="none" />
<polyline points="130.5,418.0,128.0,422.5,131.5,427.5,141.5,433.5,138.0,439.0,137.0,436.5,140.0,444.0,141.5,457.0,136.5,451.0,138.5,455.5,137.0,462.5,132.5,462.0" stroke="green" stroke-width="1" fill="none" />
<polyline points="136.5,428.5,136.5,429.5,137.5,427.5,133.5,428.0,134.0,430.5,133.0,428.0" stroke="green" stroke-width="1" fill="none" />
<polyline points="126.0,420.5,128.0,420.5,124.0,416.5" stroke="orange" stroke-width="1" fill="none" />
<polyline points="111.5,416.5,116.5,417.0,115.0,426.0,113.5,429.5,112.0,432.0,116.0,429.5,113.5,429.5,112.0,428.5" stroke="green" stroke-width="1" fill="none" />
<polyline points="116.0,429.0,116.5,429.0,116.5,427.5,110.0,433.5,113.5,429.5" stroke="yellow" stroke-width="1" fill="none" />
<polyline points="109.5,424.0,107.0,421.5,108.0,416.5,106.0,417.0,103.0,418.0,106.5,423.0,106.5,434.0,108.0,436.0,104.0,444.0,105.5,438.5" stroke="black" stroke-width="1" fill="none" />
<polyline points="94.0,444.0,102.0,448.5,97.5,446.5,98.5,444.0,99.5,439.0,104.5,433.0,107.5,431.5,104.5,430.0,107.5,421.0,104.5,417.0" stroke="yellow" stroke-width="1" fill="none" />
<polyline points="93.0,422.5,90.0,418.5,92.0,421.0,84.5,423.0,88.5,424.5,87.5,423.0,86.5,422.5" stroke="yellow" stroke-width="1" fill="none" />
<polyline points="89.5,425.5,87.0,428.0,90.5,428.5" stroke="orange" stroke-width="1" fill="none" />
<polyline points="97.5,406.5,94.5,404.0" stroke="green" stroke-width="1" fill="none" />
<polyline points="96.0,394.5,97.5,395.5,96.0,396.0,93.0,389.5" stroke="orange" stroke-width="1" fill="none" />
<polyline points="" stroke="yellow" stroke-width="1" fill="none" />
<polyline points="106.0,404.0,105.5,406.5,102.5,405.0,99.0,412.5,95.5,408.5,101.0,409.0,95.5,397.5,94.0,400.0,89.5,404.5,91.0,391.5,89.0,391.0,92.0,387.0,88.5,386.0,89.0,385.0" stroke="orange" stroke-width="1" fill="none" />
<polyline points="81.0,387.0,80.0,386.5,79.0,390.5,77.5,383.5,81.5,386.0,80.0,387.0,75.5,383.0,81.5,382.0,74.0,391.0,82.5,400.0,76.0,398.0,68.5,401.0,77.0,400.0,77.0,410.5,74.5,418.5,65.5,416.0,68.0,414.0,67.0,417.0,70.0,430.5,64.0,432.0,67.5,430.0,71.5,432.0,69.0,435.5,78.0,442.5,69.0,443.0,70.5,445.0,63.5,459.0,72.0,460.0,67.5,466.0,68.5,464.5,73.0,471.0,68.0,475.0,66.0,478.0,63.5,479.0,66.0,489.0,65.5,488.5,66.0,491.0,66.5,496.0,66.0,504.0,62.0,504.5,55.5,509.5,66.5,518.0,60.5,509.5,61.5,508.0,66.0,510.0,67.0,514.0,65.0,511.0" stroke="green" stroke-width="1" fill="none" />
<polyline points="66.5,509.5" stroke="black" stroke-width="1" fill="none" />
<polyline points="66.0,492.5,70.5,499.5,75.0,489.5,68.0,488.0,71.5,487.5,75.0,482.0,73.5,485.5,77.5,484.5,71.0,488.0" stroke="yellow" stroke-width="1" fill="none" />
<polyline points="65.5,471.0,67.5,471.0,63.0,469.5,65.5,471.5,68.0,482.5,60.5,477.5,61.0,489.0,69.5,489.5,65.5,491.5,72.0,494.5,64.5,495.5,66.0,499.0,63.0,495.0,65.5,498.0" stroke="yellow" stroke-width="1" fill="none" />
<polyline points="" stroke="green" stroke-width="1" fill="none" />
<polyline points="78.0,477.0,76.0,479.5" stroke="yellow" stroke-width="1" fill="none" />
<polyline points="72.5,448.0" stroke="yellow" stroke-width="1" fill="none" />
<polyline points="61.5,451.0,66.5,455.5,63.0,454.5,66.0,461.5,69.0,465.5,74.0,468.0,70.0,475.5,71.5,479.0" stroke="yellow" stroke-width="1" fill="none" />
<polyline points="30.5,493.0,27.5,492.0,28.0,495.5,23.0,494.5,37.5,498.5,30.0,499.0,31.0,508.0,33.0,509.0,37.0,510.0" stroke="yellow" stroke-width="1" fill="none" />
<polyline points="20.5,504.5,17.5,503.5,18.0,503.5" stroke="orange" stroke-width="1" fill="none" />
<polyline points="12.0,497.5,12.0,503.5,13.0,502.5,10.5,498.5,11.0,499.0" stroke="orange" stroke-width="1" fill="none" />
<polyline points="11.5,425.5,11.0,428.0,13.0,429.5,8.0,426.0,2.0,419.5,7.0,419.5,8.0,415.5" stroke="yellow" stroke-width="1" fill="none" />
<polyline points="-1.5,428.5,1.5,425.5,1.5,424.5,1.5,419.0,6.0,421.5,9.5,426.0,7.0,433.5,10.5,433.5,8.5,436.0,9.5,442.5,14.0,450.5,12.5,449.0,7.5,451.5,14.5,464.0,12.5,455.5,15.5,467.5,16.0,465.5,11.5,474.0,14.5,476.5" stroke="orange" stroke-width="1" fill="none" />
<polyline points="38.5,448.0,31.5,451.0,32.0,444.0,30.0,434.5,27.0,431.5,25.0,426.5,30.0,429.0,31.5,430.0,32.5,429.5,33.0,428.5" stroke="orange" stroke-width="1" fill="none" />
<polyline points="20.0,410.5,22.0,407.0,17.5,411.0,17.5,412.5,21.0,415.5,19.0,412.0" stroke="orange" stroke-width="1" fill="none" />
<polyline points="22.0,408.5,21.5,409.0,25.5,416.5,27.0,425.0,30.5,424.5,29.0,432.5,30.5,430.5,23.5,430.5,24.5,439.5,29.5,442.5,33.0,452.5,29.0,455.0,31.5,462.5,32.0,456.0,26.5,463.0,30.0,468.0,34.5,473.5,23.5,478.5,34.5,484.0,37.5,484.0" stroke="black" stroke-width="1" fill="none" />
<polyline points="" stroke="green" stroke-width="1" fill="none" />
<polyline points="62.5,421.5,63.0,422.5,66.5,410.0,70.0,405.0,79.5,401.0,70.5,401.5,74.0,395.5,72.5,396.5" stroke="yellow" stroke-width="1" fill="none" />
<polyline points="86.0,386.0,79.5,391.0,80.0,390.0,83.0,395.5,85.0,393.5" stroke="orange" stroke-width="1" fill="none" />
<polyline points="86.0,387.5,81.5,389.5,82.0,386.0,81.0,398.5" stroke="green" stroke-width="1" fill="none" />
<polyline points="68.0,421.0,66.5,422.0,68.0,424.0,73.5,403.5,70.5,406.0,69.5,417.0,67.0,420.0,64.5,421.5,66.0,420.0" stroke="black" stroke-width="1" fill="none" />
<polyline points="70.5,424.5,73.5,423.5,66.5,424.0,64.0,426.0" stroke="black" stroke-width="1" fill="none" />
<polyline points="99.0,444.0,98.0,436.5,102.0,439.5,98.5,437.0,98.5,433.5,94.0,437.0" stroke="green" stroke-width="1" fill="none" />
<polyline points="106.0,409.5,106.5,409.0,107.0,410.5,102.0,408.5,107.0,407.0,105.0,409.0" stroke="orange" stroke-width="1" fill="none" />
<polyline points="112.5,404.0,110.0,406.0,106.5,408.0,106.5,410.0,103.5,407.0" stroke="orange" stroke-width="1" fill="none" />
<polyline points="" stroke="orange" stroke-width="1" fill="none" />
<polyline points="116.0,373.5,115.5,374.5,105.5,367.5,113.5,364.0,104.0,363.5,112.0,351.5" stroke="green" stroke-width="1" fill="none" />
<polyline points="99.0,340.0,103.5,343.5,101.5,346.0,102.0,342.5,103.0,332.5,107.0,328.0" stroke="black" stroke-width="1" fill="none" />
<polyline points="" stroke="green" stroke-width="1" fill="none" />
<polyline points="107.5,317.0,107.5,318.5,118.0,314.0,115.0,308.0,118.5,307.0,111.0,314.0,111.5,308.5,104.5,317.0,104.5,316.0,111.5,314.5,113.0,317.0,111.0,315.5,106.0,318.5,102.0,330.5" stroke="black" stroke-width="1" fill="none" />
<polyline points="119.5,326.0,108.5,320.5,105.5,333.0,108.5,330.0,111.0,327.5,110.5,331.0,112.0,331.0" stroke="orange" stroke-width="1" fill="none" />
<polyline points="102.5,348.0" stroke="black" stroke-width="1" fill="none" />
<polyline points="93.0,360.0,95.0,358.5,93.0,357.0,95.0,364.5,90.5,368.5,91.5,370.5,95.5,377.5,81.5,383.0,88.5,383.0,89.0,391.0,89.5,386.5,84.0,391.5,90.5,399.0,96.5,403.0,87.5,397.5,87.0,410.0,96.5,413.5,101.5,409.0,107.0,413.5,105.5,410.5" stroke="yellow" stroke-width="1" fill="none" />
<polyline points="125.5,370.5,126.5,372.0,127.0,372.5,126.0,372.5,126.0,374.0,116.0,372.0" stroke="black" stroke-width="1" fill="none" />
<polyline points="119.0,368.5,121.5,372.5,131.5,378.0,128.5,379.0" stroke="black" stroke-width="1" fill="none" />
<polyline points="131.0,373.0,130.5,374.5" stroke="green" stroke-width="1" fill="none" />
<polyline points="122.0,367.5,121.0,371.5" stroke="green" stroke-width="1" fill="none" />
<polyline points="123.0,358.0,122.5,356.0,123.0,356.5" stroke="orange" stroke-width="1" fill="none" />
<polyline points="126.0,364.5,125.0,365.0,126.5,359.0,125.5,363.5,132.0,368.0,132.0,368.0,136.0,367.0,134.5,366.5" stroke="black" stroke-width="1" fill="none" />
<polyline points="171.5,356.0,183.5,347.0,176.5,344.0,183.0,332.5,179.5,329.0,187.0,329.0,184.0,332.0,183.5,340.0,183.5,336.0,187.0,334.0" stroke="green" stroke-width="1" fill="none" />
<polyline points="184.5,327.5,182.0,327.5,183.0,328.0,178.0,325.0,176.0,335.0,167.0,342.5,174.5,352.5,162.5,353.0,167.0,361.0,158.5,365.5,166.0,363.0,166.5,358.0,167.5,364.0,173.5,354.0,176.0,347.0,177.5,340.0,185.5,335.0,178.0,340.0,190.0,336.0,184.5,332.0,193.5,328.5,199.5,335.0,194.0,329.0,196.5,329.0,197.5,327.5" stroke="yellow" stroke-width="1" fill="none" />
<polyline points="194.5,344.0,196.5,346.0,194.5,347.5,189.0,341.5,188.5,348.5" stroke="green" stroke-width="1" fill="none" />
<polyline points="195.0,357.0" stroke="yellow" stroke-width="1" fill="none" />
<polyline points="162.5,364.0,166.0,364.5" stroke="green" stroke-width="1" fill="none" />
<polyline points="165.0,363.0,164.0,364.5,165.5,364.5,169.5,361.5,168.5,363.0,159.5,362.5,157.0,362.0,167.5,358.0,169.0,347.5,165.0,352.5,171.0,352.5,174.0,346.5,176.0,336.5,176.5,335.5,185.0,329.5,175.0,334.0,177.0,332.5,169.5,339.0,163.5,339.5,167.5,338.0,169.5,333.5,167.0,335.5,168.0,336.0" stroke="green" stroke-width="1" fill="none" />
<polyline points="160.0,335.5,164.5,334.0,165.0,326.5,165.5,319.5,166.0,323.5,164.5,318.5,169.0,320.0,170.0,319.5" stroke="green" stroke-width="1" fill="none" />
<polyline points="" stroke="black" stroke-width="1" fill="none" />
<polyline points="164.5,320.5,163.5,324.0,169.0,323.0,162.0,326.0,157.5,328.0,155.5,336.0,150.0,340.5,145.5,337.0,144.0,336.5,140.0,343.0,142.5,336.5,135.5,330.5,137.5,326.5,136.0,321.0,135.0,324.5,139.5,309.5,136.0,312.5,130.0,309.0,137.0,306.5,131.5,298.0,134.5,296.5,138.0,290.5,143.0,287.0,143.0,286.5,141.0,282.5,139.5,286.0,136.5,290.0,132.5,275.5,139.0,283.5,139.0,275.5,147.5,271.5,142.0,271.5,143.0,267.0,152.5,264.5,152.5,258.5,157.5,251.5,163.5,249.5,166.0,246.5,155.0,242.0,154.0,254.5,150.5,251.0,153.0,251.5,157.0,250.5,155.5,250.5" stroke="orange" stroke-width="1" fill="none" />
<polyline points="" stroke="orange" stroke-width="1" fill="none" />
<polyline points="154.5,258.0,154.0,253.5,143.5,249.5,142.0,253.0" stroke="green" stroke-width="1" fill="none" />
<polyline points="153.0,259.0,155.0,258.0,153.0,267.0,152.0,266.5,149.5,270.0,144.5,274.0,145.0,278.0,144.0,271.5" stroke="yellow" stroke-width="1" fill="none" />
<polyline points="155.0,268.0,155.5,268.5,153.5,268.0,151.5,264.0,157.0,262.0,160.0,253.5,153.5,260.5,156.0,259.5,152.5,267.0,149.0,267.5,150.5,276.0,151.0,279.0,149.0,280.5,149.0,285.0,147.5,293.5,158.5,284.0,159.5,295.0,159.5,300.5,154.5,305.5,153.5,303.0,159.0,310.0,161.5,313.0,160.0,315.5,157.5,322.5,160.5,315.5,159.0,317.5,166.5,308.5,162.5,310.5,173.5,310.5,174.0,297.5,178.5,298.0" stroke="green" stroke-width="1" fill="none" />
<polyline points="175.5,300.5,180.5,299.0,185.5,306.0,180.5,310.0,177.0,306.0,175.0,305.0,175.0,309.5" stroke="green" stroke-width="1" fill="none" />
<polyline points="" stroke="orange" stroke-width="1" fill="none" />
<polyline points="185.0,309.0,184.0,309.5,184.5,306.5,181.5,305.0,182.5,317.0,187.0,313.0,178.5,312.5,178.0,314.0,180.0,313.0" stroke="black" stroke-width="1" fill="none" />
<polyline points="162.5,317.0,176.0,315.0,165.5,309.0,174.5,313.5,172.5,314.5" stroke="black" stroke-width="1" fill="none" />
<polyline points="174.0,288.5,167.5,284.5,167.5,285.5,160.0,294.0,163.0,291.0,164.5,285.5,170.0,275.0,173.5,279.5,173.5,284.0,174.0,281.0,164.0,283.0,162.0,280.0,165.0,285.5,159.0,286.5,156.0,286.5,163.5,280.0,165.5,278.0,163.0,279.0,166.0,270.0,160.0,269.5,168.5,263.0,170.5,254.5,170.5,252.0,165.5,253.5,180.0,242.5,172.0,243.0,178.0,244.5,177.5,236.5,178.0,237.5" stroke="yellow" stroke-width="1" fill="none" />
<polyline points="175.0,242.0,180.0,243.5,179.5,252.0,177.0,258.0,177.0,255.5,178.0,261.5,182.0,257.5,182.5,256.0" stroke="orange" stroke-width="1" fill="none" />
<polyline points="184.5,254.0,185.0,252.5,182.5,252.5,185.0,253.5,186.5,254.5,188.0,248.5,194.0,254.5" stroke="yellow" stroke-width="1" fill="none" />
<polyline points="224.0,278.5,224.0,274.0,224.0,277.5,226.0,277.0" stroke="black" stroke-width="1" fill="none" />
<polyline points="220.5,306.0,216.0,305.5,220.0,305.5,212.5,312.5,218.5,309.5,215.0,315.0,215.5,321.5,227.5,324.5,213.5,329.5,220.0,331.0,218.0,334.0,210.0,342.5,217.0,347.0,219.0,354.5,216.5,348.0,214.0,362.0,218.0,358.0,218.0,356.0,219.0,351.5,219.5,351.5" stroke="orange" stroke-width="1" fill="none" />
<polyline points="253.0,388.0" stroke="green" stroke-width="1" fill="none" />
<polyline points="246.5,388.0,248.0,390.5,246.5,389.5,244.0,393.5,246.0,390.0,245.5,388.5" stroke="orange" stroke-width="1" fill="none" />
<polyline points="270.5,348.5,268.0,351.5,264.0,357.0,277.0,357.5,279.5,362.0,277.0,358.5,277.5,358.5,279.5,360.0,278.5,359.0" stroke="green" stroke-width="1" fill="none" />
<polyline points="283.0,350.0,286.0,349.0,285.5,347.5,285.0,358.5,278.0,357.0,275.5,351.0,278.5,354.5,276.0,350.5,273.0,350.0,272.0,348.5" stroke="black" stroke-width="1" fill="none" />
<polyline points="226.0,362.5,225.0,363.5,225.0,365.0,221.5,369.5,218.5,371.5,213.0,360.0,219.5,365.5,217.5,351.0,218.0,345.5,222.5,352.5,217.0,336.5,220.5,330.5,222.5,333.5,226.5,328.5,221.0,322.5,224.0,323.5,221.5,316.0,214.0,312.5,212.5,310.0" stroke="green" stroke-width="1" fill="none" />
<polyline points="172.0,303.5" stroke="black" stroke-width="1" fill="none" />
<polyline points="176.5,308.5,176.0,308.0,172.5,321.0,167.0,321.5" stroke="black" stroke-width="1" fill="none" />
<polyline points="158.0,318.5,157.5,317.5,162.5,313.0,156.0,313.5" stroke="green" stroke-width="1" fill="none" />
<polyline points="166.0,314.0,168.0,311.5,163.0,311.5,170.0,308.0,163.5,312.5,164.0,311.0" stroke="black" stroke-width="1" fill="none" />
<polyline points="" stroke="green" stroke-width="1" fill="none" />
<polyline points="155.5,288.5,155.5,289.5,153.5,289.5,160.5,287.5" stroke="orange" stroke-width="1" fill="none" />
<polyline points="155.0,297.5,161.5,295.0,162.0,299.5,160.0,292.0,161.5,292.5,164.5,292.0" stroke="yellow" stroke-width="1" fill="none" />
<polyline points="" stroke="green" stroke-width="1" fill="none" />
<polyline points="" stroke="green" stroke-width="1" fill="none" />
<polyline points="" stroke="black" stroke-width="1" fill="none" />
<polyline points="177.5,297.5,175.5,293.5,181.5,293.5,181.5,294.0,176.5,303.5,174.0,307.0,167.5,306.5,166.0,307.0,171.0,310.5,167.0,307.0,165.5,313.0" stroke="yellow" stroke-width="1" fill="none" />
<polyline points="" stroke="orange" stroke-width="1" fill="none" />
<polyline points="148.5,292.0,149.5,292.0,151.5,288.0,153.0,291.5,163.0,294.0,162.0,293.0,166.5,288.0,170.0,290.5,168.5,292.0" stroke="black" stroke-width="1" fill="none" />
<polyline points="170.5,294.0,170.0,293.0,172.5,301.0,170.0,303.0,164.0,308.5,165.5,313.5,167.0,318.5,159.5,314.0,169.0,315.5,167.0,325.0,161.5,328.5,155.0,329.5,156.5,338.5,159.5,343.0,155.0,347.5,150.5,353.5,152.5,353.0,151.5,360.0,147.0,352.5,147.5,354.5,152.5,349.5,157.0,348.5" stroke="black" stroke-width="1" fill="none" />
<polyline points="159.0,299.0,158.5,298.0" stroke="green" stroke-width="1" fill="none" />
<polyline points="162.5,276.0,161.0,274.5,160.0,271.5,160.0,268.0,157.5,272.0,162.0,268.5,166.0,263.5" stroke="yellow" stroke-width="1" fill="none" />
<polyline points="171.5,256.0,170.5,257.0,171.0,258.0,173.0,260.5,164.5,262.0,163.0,270.5,165.5,264.5,171.0,267.0,172.0,266.5,173.5,275.5,166.0,270.5,167.5,273.0" stroke="green" stroke-width="1" fill="none" />
<polyline points="156.5,281.0,158.0,280.0,154.0,278.5,155.0,277.0,153.5,277.5,152.5,278.5" stroke="yellow" stroke-width="1" fill="none" />
<polyline points="154.0,277.0,153.5,280.0,155.5,286.0,164.0,290.0,166.0,289.0,174.0,285.0,169.5,292.0" stroke="yellow" stroke-width="1" fill="none" />
<polyline points="171.0,279.0,171.0,282.0,172.0,282.0,172.5,280.5,166.5,288.5,165.5,289.5,163.5,287.5,161.0,289.0,163.5,289.0" stroke="black" stroke-width="1" fill="none" />
<polyline points="" stroke="orange" stroke-width="1" fill="none" />
<polyline points="156.0,295.5,154.0,292.0,153.5,286.5,154.5,281.5,148.5,274.0,150.5,276.0,147.0,268.5,153.5,261.5,157.0,262.0,161.0,255.0,159.0,258.5,162.5,247.0,168.0,247.0,164.5,243.0,159.0,236.5,169.0,242.0,159.5,255.5,158.0,264.0,156.0,260.0,155.0,256.5,145.5,261.5,138.5,270.0,139.0,264.0,135.0,254.5,137.0,262.5,131.5,268.5,130.5,267.0,127.5,260.0,133.0,260.0,132.0,257.0,130.0,253.0,127.5,248.0,138.5,246.5,137.5,243.5,137.5,237.5,138.5,239.5,139.5,230.0,133.5,225.5,136.0,226.0,128.5,217.0,132.5,219.5,131.5,210.5,130.5,204.0,123.0,197.0,123.5,201.0,122.0,191.0,117.0,187.5,127.0,185.0,120.0,183.0,116.0,176.0,117.5,172.5,115.0,167.0,119.0,164.0,124.5,160.5,116.0,160.0,127.5,148.5,127.5,149.5,122.0,143.5,129.0,143.5,121.0,140.5,120.5,134.5,124.5,128.0,128.0,129.0,124.5,121.0,128.0,113.5,126.0,110.5,130.0,114.0,135.0,100.5,131.5,108.0,136.0,102.5" stroke="orange" stroke-width="1" fill="none" />
<polyline points="137.0,99.5,131.5,106.5,139.0,118.0,133.0,107.0,135.5,124.0,134.0,122.0,135.5,128.5,130.5,135.0,127.5,136.5,128.0,143.0,128.5,144.5,130.5,142.5,129.5,147.0,131.5,150.5,130.0,153.5,131.5,152.5,132.5,163.5" stroke="orange" stroke-width="1" fill="none" />
<polyline points="130.5,156.5,131.5,155.5,129.0,153.5,136.5,161.5,130.5,159.0,133.5,159.5,133.5,159.5,126.0,169.5,132.0,174.0" stroke="green" stroke-width="1" fill="none" />
<polyline points="" stroke="green" stroke-width="1" fill="none" />
<polyline points="133.0,180.0,134.0,177.5,135.5,175.0,130.0,176.5,131.5,175.0,134.0,172.0,138.5,171.5,141.5,164.0,141.0,169.5,139.0,174.0,143.0,171.0,142.0,169.0" stroke="green" stroke-width="1" fill="none" />
<polyline points="135.0,174.0,134.0,175.0,135.5,176.5,134.5,180.0" stroke="orange" stroke-width="1" fill="none" />
<polyline points="136.0,174.0,138.0,173.0,143.0,175.5,138.0,175.5,144.0,172.5,137.5,183.5,135.5,182.0,137.5,178.0,137.0,177.5" stroke="orange" stroke-width="1" fill="none" />
<polyline points="145.0,177.5,144.0,178.0,142.5,180.0,146.5,181.5,140.0,183.0,138.5,186.0,139.0,193.0,133.5,195.5,143.5,192.0,138.0,196.0,141.0,194.5,147.0,199.0,146.5,196.5,143.0,194.5" stroke="black" stroke-width="1" fill="none" />
<polyline points="152.5,193.0" stroke="orange" stroke-width="1" fill="none" />
<polyline points="147.0,190.0,140.5,194.5,140.0,196.0,142.5,197.0" stroke="yellow" stroke-width="1" fill="none" />
<polyline points="140.5,193.5,141.0,194.0,146.0,189.5,144.5,190.5,137.0,189.5,137.5,186.5" stroke="black" stroke-width="1" fill="none" />
<polyline points="143.0,201.5,145.0,201.0,143.0,201.5,146.5,197.0,146.0,200.5,139.5,197.0,141.5,195.0,149.5,187.0,147.0,187.5,147.5,177.0" stroke="black" stroke-width="1" fill="none" />
<polyline points="" stroke="yellow" stroke-width="1" fill="none" />
<polyline points="" stroke="orange" stroke-width="1" fill="none" />
<polyline points="155.0,185.5,164.5,183.5,167.0,178.5,169.5,170.5,173.5,169.5,177.5,160.5,185.0,160.0,193.5,153.5,196.0,155.5,193.5,150.5,199.5,148.5,205.5,146.5,207.0,141.0,207.5,136.5,206.5,138.5" stroke="black" stroke-width="1" fill="none" />
<polyline points="" stroke="orange" stroke-width="1" fill="none" />
<polyline points="226.5,165.0,228.0,166.5,229.0,165.0,220.5,164.5,223.5,156.5,219.5,155.0,221.5,154.5,218.5,157.5,215.0,155.5,214.0,154.5,212.0,156.0,211.5,157.5" stroke="green" stroke-width="1" fill="none" />
<polyline points="" stroke="orange" stroke-width="1" fill="none" />
<polyline points="212.5,181.5,218.0,184.0,202.5,185.5,202.5,191.5" stroke="orange" stroke-width="1" fill="none" />
<polyline points="239.0,172.5,238.0,172.5,234.0,172.0,235.5,174.5,237.0,174.0,240.0,168.5,235.5,176.0,236.5,176.0,238.0,178.5" stroke="yellow" stroke-width="1" fill="none" />
<polyline points="225.5,183.0,228.5,180.5,227.0,190.0,225.0,200.0,219.0,193.5,213.0,206.0,203.0,208.5,203.5,218.0,201.0,216.0,208.0,215.5,199.0,222.5,204.5,218.0" stroke="green" stroke-width="1" fill="none" />
<polyline points="201.0,203.5,200.5,201.5,206.5,204.5,210.0,198.0,211.0,197.5,223.0,196.5,216.5,197.0,227.5,190.0,226.5,182.5,227.0,186.5" stroke="yellow" stroke-width="1" fill="none" />
<polyline points="212.5,207.0,213.5,209.0,206.5,209.5,206.0,208.0,212.5,205.0,206.5,200.0,218.0,199.5,226.0,193.0,224.0,194.5" stroke="yellow" stroke-width="1" fill="none" />
<polyline points="224.0,187.0,221.5,187.0" stroke="green" stroke-width="1" fill="none" />
<polyline points="" stroke="green" stroke-width="1" fill="none" />
<polyline points="218.5,180.5,218.0,180.5,215.5,185.0,219.0,193.0,211.0,202.0,205.0,198.5,206.0,200.5" stroke="green" stroke-width="1" fill="none" />
<polyline points="" stroke="yellow" stroke-width="1" fill="none" />
<polyline points="200.5,201.5,200.5,203.5,199.5,203.5,199.0,202.0,198.5,203.0,198.5,202.0,200.5,202.5" stroke="black" stroke-width="1" fill="none" />
<polyline points="202.0,206.0,203.0,204.0,206.0,201.5,204.0,203.5,199.5,203.0,201.0,202.0,194.0,194.5,187.0,203.0,187.5,202.5,185.0,202.5,179.5,206.5,184.0,203.0,186.0,198.5,188.0,195.0" stroke="orange" stroke-width="1" fill="none" />
<polyline points="181.0,204.5,182.5,208.5,178.5,210.0,191.5,207.0,196.0,204.5,190.5,204.0" stroke="yellow" stroke-width="1" fill="none" />
<polyline points="187.5,209.0,190.0,209.0,184.0,217.0,186.5,224.5,187.0,216.0,186.5,223.5,191.5,217.0" stroke="green" stroke-width="1" fill="none" />
<polyline points="" stroke="orange" stroke-width="1" fill="none" />
<polyline points="183.5,222.0,183.0,223.0,180.5,216.5,178.5,218.5,179.5,217.5,181.5,221.5,183.0,221.0,182.5,219.0,184.5,220.5" stroke="yellow" stroke-width="1" fill="none" />
<polyline points="170.0,214.0,171.0,215.0,168.5,209.5" stroke="orange" stroke-width="1" fill="none" />
<polyline points="177.0,228.0,176.5,223.5" stroke="yellow" stroke-width="1" fill="none" />
<polyline points="" stroke="black" stroke-width="1" fill="none" />
<polyline points="171.0,241.0,167.5,239.0,172.0,234.0,166.5,238.5,165.5,238.5,168.0,243.5,165.0,255.5" stroke="yellow" stroke-width="1" fill="none" />
<polyline points="168.0,255.5,166.0,253.0,155.5,259.5,155.0,267.5,147.0,260.5,146.5,258.5,145.0,263.0,134.5,277.0,129.0,277.0,130.5,279.0,126.0,276.0,113.5,262.5,122.0,263.5,121.5,261.5,116.0,267.0,114.0,268.5,118.0,269.5" stroke="yellow" stroke-width="1" fill="none" />
<polyline points="120.5,274.0,118.0,273.0,119.5,268.5,122.0,272.0,123.0,272.0,124.5,275.5,121.0,276.0" stroke="green" stroke-width="1" fill="none" />
<polyline points="117.5,270.5,113.5,276.0,112.5,284.0,115.5,290.0,107.0,289.5,103.0,291.5,101.5,306.5,103.0,303.0,93.5,309.5,96.5,313.0,89.0,313.5,87.0,323.0,86.5,325.0,87.5,332.0,90.0,332.5,86.5,335.5,88.0,341.0,79.5,342.5,77.5,348.5,77.0,354.0,71.5,355.0,66.5,361.0,66.0,361.0,64.0,357.5,73.0,354.5,74.0,346.5,77.5,344.5,86.0,338.5,88.5,333.0,87.5,331.5,86.5,330.5" stroke="black" stroke-width="1" fill="none" />
<polyline points="85.5,329.5,87.0,324.0,89.0,329.5,88.5,333.0,82.5,341.5,78.0,345.0,71.0,349.0,72.0,356.0,74.5,359.0,63.0,358.0,61.5,353.5,62.0,362.0,65.0,363.0,70.0,358.0,74.0,351.5,82.0,348.5,79.5,347.5,87.0,340.5,94.5,344.0,85.0,345.5,86.0,346.5,93.5,350.0,80.0,355.0,78.5,364.0,77.0,362.0,76.5,365.0,75.0,373.0,89.0,375.0,82.5,370.5,92.0,356.5,88.0,360.0,88.0,354.5" stroke="orange" stroke-width="1" fill="none" />
<polyline points="103.5,364.0,98.5,368.0" stroke="black" stroke-width="1" fill="none" />
<polyline points="116.0,374.0,108.0,368.5" stroke="green" stroke-width="1" fill="none" />
<polyline points="110.5,365.0,115.0,365.5,118.0,358.5,110.5,362.5,106.0,368.0,110.0,365.5,114.5,367.0" stroke="black" stroke-width="1" fill="none" />
<polyline points="107.5,359.5,109.5,362.5,110.0,363.0,113.0,353.5,111.0,359.5" stroke="yellow" stroke-width="1" fill="none" />
<polyline points="131.0,368.0,132.0,366.5" stroke="black" stroke-width="1" fill="none" />
<polyline points="81.5,358.5" stroke="black" stroke-width="1" fill="none" />
<polyline points="73.5,361.5,72.0,364.5,78.0,360.5,79.0,346.5,87.5,351.0,83.0,353.0,83.5,354.5,75.0,365.5,76.5,364.0,76.0,368.0,76.0,371.5,74.0,371.5" stroke="yellow" stroke-width="1" fill="none" />
<polyline points="80.5,380.0,81.5,384.5,73.5,387.5,70.5,394.5,70.0,400.0,62.5,403.5,55.5,404.0,61.5,401.5,65.5,397.0,74.5,391.0,77.0,393.0,77.0,380.0,68.5,384.0,75.0,391.0,74.0,391.0,65.0,399.0,67.0,398.5,49.5,403.5,61.5,399.0,75.0,398.5,74.5,389.0,75.5,389.5,78.0,381.0,86.0,377.5,84.5,369.0,88.0,367.0,88.0,363.0,88.0,363.5,89.0,363.5,91.5,353.0,93.5,357.0,93.0,348.0,101.0,345.0,103.5,348.0,95.5,341.5,96.0,347.0,89.5,344.5,95.5,343.0,98.0,332.0,104.0,332.5,104.0,335.0,92.0,324.0,96.0,321.5,97.5,316.0,97.0,315.0,102.5,310.0,102.0,308.0,103.0,306.5,99.5,299.0,98.5,305.0,98.0,305.5,92.0,309.5,93.0,309.5,94.0,309.5,89.5,311.0" stroke="black" stroke-width="1" fill="none" />
<polyline points="88.0,304.0,90.5,305.0,84.0,307.0,84.0,313.0,86.5,311.5,84.0,305.5,88.5,312.0,84.0,316.0,84.5,314.0" stroke="green" stroke-width="1" fill="none" />
<polyline points="103.0,298.5,93.5,302.5,87.5,302.0,89.5,302.5" stroke="green" stroke-width="1" fill="none" />
<polyline points="91.5,290.0,87.5,298.0,86.5,298.5,78.5,298.5,75.5,298.5" stroke="green" stroke-width="1" fill="none" />
<polyline points="76.0,294.0,82.5,293.5,76.5,291.0,92.0,293.0,89.5,294.5,94.0,299.5,98.5,290.5,102.5,296.0" stroke="orange" stroke-width="1" fill="none" />
<polyline points="113.5,285.0,114.0,274.5,116.5,271.0,115.0,278.0,119.0,271.5,118.5,279.0,119.5,277.0,121.0,276.0" stroke="yellow" stroke-width="1" fill="none" />
<polyline points="109.5,261.5,110.0,261.0,110.0,262.5,109.0,267.5,112.5,269.0,107.5,270.0,106.5,273.0,101.0,281.0,99.0,287.0,98.0,282.0,97.0,278.0,105.5,274.5,110.5,279.0,114.0,279.0,116.0,285.0" stroke="black" stroke-width="1" fill="none" />
<polyline points="98.5,291.5,90.0,287.0" stroke="yellow" stroke-width="1" fill="none" />
<polyline points="103.0,276.0,106.5,265.0,100.0,268.5,102.5,277.5,89.5,282.0,94.5,281.0,96.0,286.5,105.0,283.5,111.0,283.5,101.5,280.5,100.5,287.5,108.5,273.0,116.0,275.0,120.5,276.0,116.0,268.0,120.0,274.5" stroke="yellow" stroke-width="1" fill="none" />
<polyline points="123.0,266.0,124.5,266.0,124.5,268.5,124.0,266.5,129.5,262.5,125.5,273.0,129.0,278.0,118.0,282.5,104.0,277.5,99.5,284.0,102.5,287.0,95.5,302.0,95.0,309.0,92.0,305.5,78.0,316.5,89.0,317.0,79.0,325.0,72.0,329.0,71.0,323.0,79.5,322.5,91.0,315.0,84.5,311.0,85.0,309.5" stroke="green" stroke-width="1" fill="none" />
<polyline points="98.0,324.5,105.0,311.5,110.5,310.5,110.0,302.5,118.0,307.5,107.0,310.5" stroke="black" stroke-width="1" fill="none" />
<polyline points="118.0,303.5,120.5,305.0,121.0,307.5,122.0,304.5,121.0,305.0,117.0,306.0,118.5,308.5,109.5,318.5,108.5,315.5,108.5,315.0,107.0,312.0" stroke="orange" stroke-width="1" fill="none" />
<polyline points="66.0,329.5,76.5,317.0" stroke="yellow" stroke-width="1" fill="none" />
<polyline points="77.0,308.0,72.0,309.5,70.5,311.5" stroke="green" stroke-width="1" fill="none" />
<polyline points="79.5,310.0,80.5,315.0,83.5,311.0" stroke="yellow" stroke-width="1" fill="none" />
<polyline points="98.0,319.0,98.5,310.5,105.0,310.0" stroke="orange" stroke-width="1" fill="none" />
<polyline points="101.5,294.5,100.0,295.0,99.0,293.0,104.0,295.0,104.0,298.5,104.0,293.0" stroke="green" stroke-width="1" fill="none" />
<polyline points="" stroke="orange" stroke-width="1" fill="none" />
<polyline points="91.0,278.0,93.5,277.0,89.0,276.5" stroke="orange" stroke-width="1" fill="none" />
<polyline points="121.0,296.5,117.5,305.0,109.5,304.0,110.0,306.5,100.0,308.5,101.5,317.5,96.5,317.5,104.0,329.0,95.0,323.5,97.0,331.5,96.5,333.0,88.0,339.0,96.5,340.5,104.5,335.0,101.0,331.0,116.0,332.0,112.5,317.0,121.0,312.0,122.0,297.5,122.0,300.5,126.0,305.0,133.0,309.0,131.5,312.5" stroke="black" stroke-width="1" fill="none" />
<polyline points="126.0,306.5,127.0,317.5,126.0,322.5,123.5,323.5,128.0,321.0,131.5,329.5,126.0,333.5,126.0,339.5" stroke="green" stroke-width="1" fill="none" />
<polyline points="117.0,313.0,115.5,312.5,117.0,320.5,117.0,323.0,113.0,330.0,111.5,328.5,109.0,341.0,103.5,335.0,102.5,345.0,101.5,348.5,103.0,346.0,96.0,352.0,90.0,356.5,94.5,360.0,89.5,370.0,101.5,373.5,90.0,378.5,91.0,379.5" stroke="yellow" stroke-width="1" fill="none" />
<polyline points="78.5,391.5,75.5,398.5,79.5,406.5" stroke="yellow" stroke-width="1" fill="none" />
<polyline points="" stroke="yellow" stroke-width="1" fill="none" />
<polyline points="123.5,294.5,123.5,293.5,120.5,291.5,121.5,297.5,119.0,298.0,116.0,306.0,113.0,299.5,115.5,311.5,99.5,310.5,107.5,308.0,109.5,307.0,113.0,301.0,122.5,300.0,118.0,295.0,136.0,293.0,132.0,291.0,140.0,287.5,142.5,284.5,143.0,284.0,144.0,284.5,145.0,284.5" stroke="orange" stroke-width="1" fill="none" />
<polyline points="141.5,265.0,141.0,259.0,142.0,260.0" stroke="yellow" stroke-width="1" fill="none" />
<polyline points="133.5,250.5,139.5,251.5,139.5,250.5" stroke="orange" stroke-width="1" fill="none" />
<polyline points="" stroke="yellow" stroke-width="1" fill="none" />
<polyline points="132.5,243.0,138.5,250.5,137.5,245.5" stroke="black" stroke-width="1" fill="none" />
<polyline points="" stroke="yellow" stroke-width="1" fill="none" />
<polyline points="" stroke="green" stroke-width="1" fill="none" />
<polyline points="144.5,221.0,145.0,221.5,144.0,220.0,146.0,218.5,144.5,217.5,143.5,217.5,151.5,213.5,150.0,208.5,150.0,204.0,151.0,210.0,150.5,212.5" stroke="black" stroke-width="1" fill="none" />
<polyline points="148.5,198.5,148.5,198.0,146.0,200.5,142.5,196.5,144.0,188.5,139.5,184.0,139.0,181.0,142.0,175.5,138.5,177.5,146.0,173.0" stroke="green" stroke-width="1" fill="none" />
<polyline points="" stroke="orange" stroke-width="1" fill="none" />
<polyline points="143.5,182.0,143.0,175.5,145.0,179.5,153.5,183.0,148.0,186.0,145.0,186.5" stroke="black" stroke-width="1" fill="none" />
<polyline points="" stroke="orange" stroke-width="1" fill="none" />
<polyline points="143.5,200.5,143.5,199.0,146.5,198.5,149.0,198.5,144.5,208.5,142.0,212.5,142.5,215.0,148.5,207.5" stroke="yellow" stroke-width="1" fill="none" />
<polyline points="128.5,196.0,124.5,200.5,121.5,198.0,125.5,200.5,127.0,201.5" stroke="black" stroke-width="1" fill="none" />
<polyline points="111.5,231.5,112.0,227.0,117.0,228.0,116.0,223.5" stroke="black" stroke-width="1" fill="none" />
<polyline points="113.5,232.5,118.0,230.0,117.5,232.5,120.0,233.0" stroke="yellow" stroke-width="1" fill="none" />
<polyline points="119.0,252.5,119.0,261.5,119.0,258.0,109.5,262.0,111.5,262.0,119.0,257.5,127.0,254.5,126.0,246.5,132.0,244.5,137.5,238.0,139.5,237.5,151.5,239.5,154.0,225.0,159.5,229.5" stroke="orange" stroke-width="1" fill="none" />
<polyline points="165.5,225.5,152.5,227.0,148.0,233.0,147.0,230.5,149.5,246.5,148.0,243.0,143.5,247.5,144.0,253.0,141.0,260.5,139.0,264.0,131.5,267.0,135.5,278.0,132.0,265.5,140.0,274.0,137.5,268.5,139.0,269.5" stroke="orange" stroke-width="1" fill="none" />
<polyline points="158.5,250.5,161.0,249.0,158.0,250.0,156.5,251.5" stroke="yellow" stroke-width="1" fill="none" />
<polyline points="" stroke="yellow" stroke-width="1" fill="none" />
<polyline points="" stroke="orange" stroke-width="1" fill="none" />
<polyline points="168.5,236.0,165.5,237.0,165.0,240.5,166.5,244.5,159.5,249.5,154.0,248.5,148.5,255.5,155.0,259.5,152.0,260.0,148.5,261.5,142.5,261.0,137.5,266.5,132.0,267.5,125.0,278.0,128.0,286.0,131.0,293.5,124.5,297.0,123.5,305.0,126.0,304.0,124.0,312.0,124.5,308.5,118.0,317.0,123.0,323.0,123.5,324.5,123.5,326.5,128.5,335.5,123.0,339.5,123.5,340.0,122.5,342.5,133.5,346.0,130.0,352.5,138.0,358.0,143.5,359.0,140.5,362.5,143.5,369.0,142.0,372.5,147.5,371.0,145.5,373.0,145.5,381.0,143.5,385.5,149.5,389.5,151.5,393.5,148.0,401.5,147.0,395.5,148.0,400.0,146.0,406.0,154.0,409.0,159.0,411.5,163.0,410.0" stroke="black" stroke-width="1" fill="none" />
<polyline points="166.0,422.0,164.5,421.5,172.0,417.5,169.5,418.0" stroke="orange" stroke-width="1" fill="none" />
<polyline points="" stroke="green" stroke-width="1" fill="none" />
<polyline points="" stroke="black" stroke-width="1" fill="none" />
<polyline points="198.0,432.0,200.0,433.0,199.5,433.5" stroke="green" stroke-width="1" fill="none" />
<polyline points="198.5,402.0,197.0,401.5,191.5,402.0,191.5,401.5,192.5,392.5,197.5,393.0" stroke="black" stroke-width="1" fill="none" />
<polyline points="191.0,401.0,190.0,398.5,191.5,411.5,188.5,408.5,192.5,418.5,188.0,422.0,187.0,427.0,192.0,425.5,190.5,431.5,185.5,437.5,188.0,439.5,187.5,443.0,180.0,445.5,187.0,439.5,190.0,443.5,194.0,448.0,199.5,447.5,195.5,446.0,194.5,450.0" stroke="orange" stroke-width="1" fill="none" />
<polyline points="369.0,360.0,376.5,355.0,377.5,355.5,382.0,354.0,383.5,360.5,384.5,356.0,381.0,349.0,381.0,342.5,384.0,341.0,375.0,341.5,376.0,331.5,375.5,333.0,376.0,327.5,378.0,322.0,383.5,317.0,377.5,311.5,373.5,309.0,375.0,307.5,371.5,296.5,373.0,296.5,372.0,298.5" stroke="green" stroke-width="1" fill="none" />
<polyline points="382.5,276.5,384.5,277.0,386.5,275.5,383.5,273.0,384.5,272.0" stroke="green" stroke-width="1" fill="none" />
<polyline points="367.5,276.0,364.5,287.0,371.0,282.5,366.0,284.5,367.5,289.0" stroke="orange" stroke-width="1" fill="none" />
<polyline points="346.5,273.5,347.0,277.5,347.5,280.0,346.0,279.0,342.5,284.5,338.5,285.0,335.0,286.0,331.0,274.5,321.0,274.0,323.0,275.0,325.5,271.5,317.5,267.0,320.5,265.5" stroke="green" stroke-width="1" fill="none" />
<polyline points="333.0,260.0,324.0,272.0,328.5,273.0,332.0,269.5,330.5,273.5,330.5,268.5,335.0,268.0" stroke="yellow" stroke-width="1" fill="none" />
<polyline points="325.0,273.5,324.5,272.0,322.5,276.0,317.0,277.0,314.5,274.5,315.0,264.0,321.0,267.5,325.0,264.0,325.5,259.0,323.5,255.5,320.0,253.0,322.0,253.5,322.5,252.0" stroke="green" stroke-width="1" fill="none" />
<polyline points="364.5,273.0,362.0,277.5,365.0,281.5,364.5,281.5" stroke="green" stroke-width="1" fill="none" />
<polyline points="295.0,222.0,297.0,233.0,293.0,223.5,281.0,231.0,290.0,231.0,296.5,225.0,298.5,222.5,297.5,216.5,298.0,217.5,297.0,217.0" stroke="green" stroke-width="1" fill="none" />
<polyline points="268.5,206.5,270.5,207.0,271.0,208.0,271.5,206.5,274.5,203.5,281.5,200.0,286.0,195.0,296.0,195.0,291.0,191.0,295.5,186.5,299.5,185.5,305.5,190.5" stroke="orange" stroke-width="1" fill="none" />
<polyline points="310.5,174.0,304.0,177.5,298.0,178.5,297.5,181.5,289.5,190.5,292.5,193.5,276.5,188.0,282.0,196.0,273.5,201.5,270.0,208.0,268.5,207.5,268.0,211.5,266.0,216.5,257.5,223.5,257.5,219.5,249.0,224.5,249.0,235.5,244.0,240.0,241.5,238.0,236.0,245.5,232.0,252.0,228.0,258.0,226.0,261.5,215.5,270.0,210.5,273.0,214.5,277.5,210.5,292.5,201.5,305.0,196.0,312.0,208.0,317.5,197.5,313.5,195.0,315.0,202.5,308.0,202.5,305.0,206.0,309.0,207.0,295.0,215.5,294.0,213.0,289.0,208.5,289.0,212.5,274.0,214.0,279.0,226.5,274.5,219.0,266.5,224.0,268.0,221.0,263.5,228.0,251.0,229.0,252.5,235.5,246.5,235.5,241.0,244.0,248.0,242.0,239.5,247.0,234.5,249.5,235.5,256.0,222.0,250.5,223.5,258.0,218.0,263.0,209.0,265.0,210.0,264.0,204.0,263.5,201.5" stroke="green" stroke-width="1" fill="none" />
<polyline points="" stroke="black" stroke-width="1" fill="none" />
<polyline points="" stroke="orange" stroke-width="1" fill="none" />
<polyline points="211.0,193.5,217.0,201.5,210.5,192.5,219.0,191.5,220.5,192.0,218.5,183.0,226.5,185.0,231.0,178.5,231.0,178.5" stroke="green" stroke-width="1" fill="none" />
<polyline points="214.0,180.5,215.5,182.5,217.0,180.5,212.5,178.5,214.5,182.0,216.5,182.0,208.5,188.5,204.5,186.0,203.0,197.0,207.0,196.5,209.0,198.5,208.0,193.5,218.0,194.5,220.0,192.5,226.0,183.5,232.0,187.5,232.0,185.5,240.5,179.0,238.0,175.5,237.5,175.5,238.5,174.5" stroke="black" stroke-width="1" fill="none" />
<polyline points="238.0,173.0,247.5,170.5,246.5,172.5,247.0,170.5,244.5,171.0,238.5,183.5,241.0,186.5" stroke="black" stroke-width="1" fill="none" />
<polyline points="254.0,174.0,256.0,181.0,253.0,174.5,246.5,177.5,242.0,186.5,242.5,180.5,242.0,196.5,236.0,201.5,240.0,196.0,233.0,204.5,234.5,209.0,229.5,208.0" stroke="yellow" stroke-width="1" fill="none" />
<polyline points="252.0,201.0,257.0,195.0,255.5,201.0,248.0,197.0,255.5,189.5,257.0,185.5,264.5,187.0,265.5,187.0,271.0,189.5" stroke="green" stroke-width="1" fill="none" />
<polyline points="265.5,189.5,266.5,185.0,259.0,185.0,253.5,189.0,260.0,185.5" stroke="orange" stroke-width="1" fill="none" />
<polyline points="258.5,187.5,251.5,185.5,254.5,194.5,238.0,194.0,242.0,199.0,240.5,195.0,241.5,192.5,246.0,190.0,250.5,184.5,248.0,184.5,251.5,177.0,251.0,177.0,260.5,181.5" stroke="black" stroke-width="1" fill="none" />
<polyline points="263.0,170.0,273.5,175.0,275.5,183.0,282.0,173.5,280.0,172.5,290.5,176.0,295.0,179.0,291.0,186.5,288.0,181.5,283.0,194.5,271.5,197.5,264.0,205.0,276.0,197.0,271.5,199.0,276.0,201.0,276.5,195.5,273.0,200.5,285.0,193.5,290.5,183.5,294.0,178.5,303.0,174.5,302.0,178.5,308.5,179.5,303.5,170.0,310.0,167.5,318.5,160.5,329.0,160.5,326.5,161.5,336.5,161.5,334.5,153.0" stroke="orange" stroke-width="1" fill="none" />
<polyline points="296.5,178.0,295.5,176.5,301.5,178.0,304.5,179.0,307.5,186.0,306.5,177.5,307.5,177.0,305.5,180.5,300.0,184.5,291.0,190.5,282.0,199.5,280.5,193.0,274.0,194.5,273.5,203.5,267.5,209.5,271.5,216.0,263.5,213.5,265.0,218.5,259.0,219.0,263.5,222.5,259.5,222.5,267.5,228.5,262.5,235.0,265.5,241.0" stroke="black" stroke-width="1" fill="none" />
<polyline points="269.0,196.5,275.0,192.5,279.5,187.5,272.0,185.5,273.0,184.5,269.5,187.5,272.5,189.5" stroke="yellow" stroke-width="1" fill="none" />
<polyline points="264.5,162.5,267.0,164.0,269.0,161.5,266.5,164.5,264.0,163.0,265.5,164.0" stroke="orange" stroke-width="1" fill="none" />
<polyline points="" stroke="yellow" stroke-width="1" fill="none" />
<polyline points="245.5,173.5,245.0,173.0,255.5,177.0" stroke="black" stroke-width="1" fill="none" />
<polyline points="245.5,146.0,243.5,146.0,249.5,146.0,241.0,147.5,249.5,140.0,249.5,142.0,255.5,141.5,264.0,135.5,254.5,128.5,251.0,133.5,250.0,135.0,243.5,141.0,238.0,147.0,239.5,145.5,237.0,142.0,234.0,136.5,232.5,140.0,231.0,138.0" stroke="orange" stroke-width="1" fill="none" />
<polyline points="" stroke="black" stroke-width="1" fill="none" />
<polyline points="" stroke="green" stroke-width="1" fill="none" />
<polyline points="211.5,137.5,215.5,136.5,214.5,139.0,221.0,145.0" stroke="green" stroke-width="1" fill="none" />
<polyline points="205.0,152.5,207.0,153.0,204.5,151.5,200.5,152.0,211.5,146.0,210.0,149.0,212.5,155.0,220.5,161.5,213.5,161.0" stroke="black" stroke-width="1" fill="none" />
<polyline points="" stroke="green" stroke-width="1" fill="none" />
<polyline points="188.0,169.0,189.0,175.0,186.5,185.0,182.5,187.0,175.5,188.0,172.5,194.0,165.0,202.5,165.0,200.5,166.0,196.5,174.5,197.0,175.5,195.0,178.0,186.5,180.5,185.0,182.5,177.5,189.0,179.5,189.0,173.0,195.0,172.5,199.5,165.5,202.5,167.5" stroke="orange" stroke-width="1" fill="none" />
<polyline points="202.0,185.0,204.0,188.0,201.0,188.0,206.5,188.0,205.5,185.5,202.0,189.0,207.0,190.0,205.0,189.5" stroke="green" stroke-width="1" fill="none" />
<polyline points="" stroke="yellow" stroke-width="1" fill="none" />
<polyline points="204.0,132.5,203.0,133.0,200.0,138.0,205.5,133.5,208.0,142.0,196.5,143.5,209.5,140.0,211.5,138.5,217.0,130.0,221.0,133.5,221.5,133.5" stroke="green" stroke-width="1" fill="none" />
<polyline points="209.5,134.0,210.0,136.5,209.0,143.0,209.5,139.0,220.0,131.0,217.5,134.5,220.5,131.5,229.0,128.0,231.0,126.5" stroke="green" stroke-width="1" fill="none" />
<polyline points="221.0,135.5,219.5,133.0,217.5,134.0,210.5,139.0,203.0,139.5,200.0,144.5,195.0,144.0,189.5,148.5,193.0,155.0,185.5,158.0,180.0,164.5,171.0,164.5,175.5,171.5,170.0,176.5,166.0,182.0,164.5,185.5,161.5,180.0,152.5,188.5,146.0,199.0,151.0,200.0,155.5,205.0,144.5,212.0,152.5,212.0,136.5,215.0,144.5,219.0,144.0,224.5,144.0,228.0,139.5,232.0,138.5,241.0,139.0,243.0,146.5,239.5,134.5,237.0,135.5,251.0,127.0,255.0,134.0,254.5,144.0,257.0" stroke="black" stroke-width="1" fill="none" />
<polyline points="134.5,166.5,135.5,169.0,142.5,170.5,131.5,179.5,133.0,176.5,139.0,171.0,140.5,170.5,140.5,172.0,139.0,171.5" stroke="green" stroke-width="1" fill="none" />
<polyline points="" stroke="black" stroke-width="1" fill="none" />
<polyline points="152.5,127.0,148.5,126.0,157.0,128.0,146.5,128.5,148.0,131.0,150.5,127.5,161.5,124.5" stroke="orange" stroke-width="1" fill="none" />
<polyline points="195.5,117.5,197.0,122.0,194.5,119.0,192.0,122.5,190.0,123.5,188.5,119.5,186.5,125.0,177.0,121.5,184.0,124.0,182.5,127.5,183.0,123.0" stroke="green" stroke-width="1" fill="none" />
<polyline points="" stroke="green" stroke-width="1" fill="none" />
<polyline points="" stroke="yellow" stroke-width="1" fill="none" />
<polyline points="" stroke="green" stroke-width="1" fill="none" />
<polyline points="" stroke="orange" stroke-width="1" fill="none" />
<polyline points="221.5,129.0,224.5,132.0,220.5,129.0,217.5,136.5,217.0,135.0,211.5,142.5,206.5,135.0,204.0,142.5,197.5,145.5,196.5,155.5,206.0,149.0,201.5,144.5" stroke="yellow" stroke-width="1" fill="none" />
<polyline points="257.0,133.5,256.0,131.5,253.5,131.0,257.5,129.0,259.0,132.0,260.0,129.5,255.5,136.5,250.0,147.5,245.0,146.5,238.0,146.5,233.0,151.0,229.5,152.5,223.0,160.0,226.0,159.5,216.5,159.5,224.0,156.5,231.5,161.0,239.5,149.0,235.5,148.5,242.0,141.5,251.0,144.5,259.0,139.0" stroke="orange" stroke-width="1" fill="none" />
<polyline points="" stroke="black" stroke-width="1" fill="none" />
<polyline points="295.5,142.5,295.5,143.5,298.0,137.5,295.5,136.5" stroke="yellow" stroke-width="1" fill="none" />
<polyline points="313.5,172.5,302.0,178.0,308.0,183.0,301.5,177.0,297.5,190.0,286.0,189.5,290.0,198.0,281.0,200.5,274.0,200.5,274.5,207.5,280.0,209.0,269.0,209.5" stroke="orange" stroke-width="1" fill="none" />
<polyline points="230.5,96.0,229.0,97.0,229.0,96.0,231.0,98.5,235.5,94.5,232.0,97.0,236.0,99.0,235.0,101.0,235.5,102.0,228.5,104.0,223.5,103.0,220.5,107.5,225.5,106.0,233.0,98.5,236.0,99.5" stroke="black" stroke-width="1" fill="none" />
<polyline points="234.5,103.0,239.0,95.5" stroke="yellow" stroke-width="1" fill="none" />
<polyline points="249.0,94.5,246.0,93.0,247.5,93.0,245.0,88.5,251.0,93.5,246.0,94.0,244.5,100.0,244.0,97.0" stroke="orange" stroke-width="1" fill="none" />
<polyline points="266.0,79.5,266.5,78.5,263.5,87.5,257.5,86.5,265.5,89.5,261.5,90.5,255.0,91.0,249.5,90.5,251.0,89.5,249.5,97.5,238.5,95.0,239.0,103.5,236.5,103.0,227.0,108.0,220.5,111.5,217.5,113.5,213.5,119.5,216.5,121.5,209.5,118.5,206.5,125.0,198.5,128.0,201.5,127.0,189.5,133.0,186.5,135.5,187.5,148.5,179.0,148.5,178.0,154.5,173.0,157.0,162.0,155.0,161.0,166.5,161.0,165.0,151.5,168.5,156.0,174.0,155.0,166.0,164.0,166.5,163.0,158.5,170.0,156.0,173.0,158.5,178.0,151.0,182.0,135.5,191.0,142.5,190.0,141.5,197.0,131.5,202.0,126.0,206.0,124.5,208.0,124.0,208.5,114.0,220.5,105.5,223.5,106.0,229.0,105.0,242.0,102.0,239.5,99.0,252.0,95.5,253.0,93.5,271.0,87.0" stroke="black" stroke-width="1" fill="none" />
<polyline points="225.5,81.5,224.5,82.0" stroke="green" stroke-width="1" fill="none" />
<polyline points="" stroke="orange" stroke-width="1" fill="none" />
<polyline points="244.0,45.0,241.5,45.5,241.5,46.5,247.0,46.5,247.0,45.5,253.0,55.0,256.0,49.0,263.0,56.0,268.0,58.0,265.0,57.5,275.0,62.5,276.0,65.0,278.0,66.5,281.5,65.5,283.0,73.0,294.5,77.5,301.5,79.0,292.5,82.0,305.0,90.0,307.0,89.0,318.5,98.0,320.0,95.5,319.0,105.0,324.0,110.0,326.0,115.5,329.5,116.0,337.5,127.5,335.0,135.0,349.5,138.5,346.5,144.5,354.0,146.0,358.0,146.5,353.0,139.0,361.5,143.5,368.5,137.0,372.5,132.5,372.0,132.5,382.5,131.0,380.0,127.0,392.0,117.5,392.5,113.5,397.5,115.0,400.5,108.0,412.0,114.5,407.5,116.0,410.0,112.0,416.5,117.5" stroke="orange" stroke-width="1" fill="none" />
<polyline points="415.0,130.5,418.0,136.5,422.0,135.0,418.0,144.0,418.5,141.0,420.0,154.5,412.5,149.5,413.5,154.0,414.0,157.0,411.5,162.0,415.5,166.0,410.5,168.5,413.0,169.5,400.0,172.0,406.5,184.0,403.5,187.0,395.0,189.0,393.0,193.5,389.0,198.0,381.0,197.0,381.5,204.0,377.5,207.5,367.0,216.5,374.5,213.5,373.0,208.0,378.5,204.5,377.5,205.5,392.0,202.5,395.0,197.0,400.5,192.0,398.5,183.5,401.0,180.0,408.0,180.0,415.0,166.5,410.5,164.5" stroke="green" stroke-width="1" fill="none" />
<polyline points="364.5,131.0,367.0,135.0" stroke="black" stroke-width="1" fill="none" />
<polyline points="" stroke="green" stroke-width="1" fill="none" />
<polyline points="387.0,99.0,384.5,101.5,385.0,100.5,384.5,105.0" stroke="orange" stroke-width="1" fill="none" />
<polyline points="434.5,64.0,429.5,61.5,436.0,65.0,426.5,54.5,425.0,54.0,424.5,45.0,419.0,33.0,419.0,28.5,423.0,18.0" stroke="black" stroke-width="1" fill="none" />
<polyline points="514.5,72.0,512.5,75.5,515.0,70.0,513.0,74.5,514.5,72.5,505.0,78.5,514.5,79.5,506.0,78.5,505.0,81.5,498.5,89.5,494.0,101.0,493.0,103.5,483.5,101.5,490.0,111.0,485.5,115.0,484.0,116.0,481.0,119.0,469.0,121.0,471.0,127.5,467.0,134.0,466.5,134.0,463.0,137.5,461.5,146.5,457.5,152.0,455.5,155.5,457.5,148.0,446.5,163.5,443.5,167.5,443.0,171.0,439.5,181.5,443.0,178.0,443.0,179.5,435.0,189.0,431.0,194.5,430.0,196.0,428.5,201.0,429.0,206.5,424.5,206.5,425.5,211.0,425.0,218.5,423.5,218.0,420.0,225.0,420.0,229.0,414.5,233.5,421.0,236.0,413.0,238.5,411.0,245.5,413.0,254.5,413.5,251.0,413.5,252.0,407.0,263.0,409.0,269.5,407.0,263.5,404.5,270.0,395.0,280.0,403.0,281.0,401.5,281.5,404.0,284.0,399.0,292.0,397.5,292.5,394.5,299.5,398.0,302.0,398.0,311.0,396.5,308.5,391.5,317.5,392.5,325.5,390.5,323.5,391.5,329.0,384.0,332.0,386.0,328.5,386.0,336.5,384.0,339.0,385.5,345.5" stroke="yellow" stroke-width="1" fill="none" />
<polyline points="352.0,138.5,336.0,131.0,333.0,131.0,341.0,128.0,332.5,122.5,335.0,122.5,329.5,117.5,326.0,111.5,319.5,110.0,321.5,107.5,316.5,90.0,307.5,98.0,308.0,95.0,305.0,88.0,305.5,81.5,297.5,82.5,293.5,73.5,283.0,74.5,282.0,62.5,274.0,67.5,261.0,59.5,263.5,56.0,250.0,56.0,248.5,53.5,251.0,56.0,251.5,53.0" stroke="black" stroke-width="1" fill="none" />
<polyline points="" stroke="orange" stroke-width="1" fill="none" />
<polyline points="" stroke="yellow" stroke-width="1" fill="none" />
<polyline points="155.0,83.5,155.5,76.5,156.0,78.0,154.0,76.5" stroke="green" stroke-width="1" fill="none" />
<polyline points="151.0,86.0,148.5,86.5,154.0,77.5,157.0,79.5,152.5,80.0" stroke="black" stroke-width="1" fill="none" />
</svg>