<svg xmlns="http://www.w3.org/2000/svg" width="1024" height="1024" version="1.1"><polyline points="408.0,16.0,411.5,16.5,420.5,32.0,425.0,10.0,424.0,13.5,421.0,13.5,411.5,34.5,441.0,37.0,438.5,47.5,445.0,40.5,415.5,54.0,422.0,59.5,428.0,65.5,439.5,66.0,420.0,68.5" stroke="orange" stroke-width="1" fill="none" />
<polyline points="446.5,57.5,442.5,64.0,447.0,61.0,444.0,50.0,457.5,36.0,449.5,64.5,438.5,45.0,448.0,35.0,426.5,-4.5,431.5,18.5,443.5,9.0" stroke="orange" stroke-width="1" fill="none" />
<polyline points="436.0,33.5,438.0,22.5,452.0,17.5,450.5,30.0,442.0,27.5,444.0,32.0,451.5,50.0,451.5,47.5,439.5,52.0,466.0,50.5,460.5,55.0,440.5,64.5,442.0,57.5,437.5,84.0,437.5,93.5,431.5,71.0,426.5,85.5,416.5,103.0,432.5,107.5,429.0,106.0,423.0,103.5,412.5,109.5,412.5,99.5,413.5,103.5,427.0,105.0,416.0,122.0,418.0,97.0,419.0,90.0,436.0,101.5,429.0,85.0,462.0,91.5,446.5,68.0,460.0,62.0,456.0,65.5,459.0,64.0,470.5,58.0,459.0,42.5,468.0,26.5,464.5,30.5,482.0,33.0,483.0,47.0,488.0,30.5,497.0,22.0,497.5,11.5,491.0,8.5,506.5,-7.0,495.5,-5.5" stroke="green" stroke-width="1" fill="none" />
<polyline points="484.5,-5.5,494.5,4.0,500.5,-7.0,513.5,0.0,514.0,6.5,501.5,2.0,526.0,10.5,520.0,11.5,525.0,17.0,496.0,17.0,503.5,25.5,507.5,21.5,488.0,31.0,489.5,25.0,470.0,33.5,495.5,32.5,476.0,51.0,465.5,40.0,463.0,51.5,475.0,62.5,467.5,61.5" stroke="black" stroke-width="1" fill="none" />
<polyline points="502.0,82.5,516.5,71.5,508.0,77.5,505.5,75.0,480.0,96.0,495.0,97.0,499.0,95.0,473.5,107.5,471.5,102.0,469.5,120.0,477.0,121.0,460.0,136.0,471.0,130.0,477.5,129.5,478.0,142.0,477.5,136.5,480.0,147.0,482.5,145.0" stroke="black" stroke-width="1" fill="none" />
<polyline points="" stroke="black" stroke-width="1" fill="none" />
<polyline points="" stroke="yellow" stroke-width="1" fill="none" />
<polyline points="416.0,209.0,413.0,204.5,412.0,202.0,433.0,202.0,438.0,212.0,427.5,227.0,412.0,226.0" stroke="orange" stroke-width="1" fill="none" />
<polyline points="419.0,243.5,416.5,233.5,410.5,233.5,418.0,239.5,414.0,239.0,409.5,233.5,424.5,239.5,422.5,235.5,420.5,243.5,417.0,241.0" stroke="black" stroke-width="1" fill="none" />
<polyline points="" stroke="orange" stroke-width="1" fill="none" />
<polyline points="380.0,277.5,381.5,277.5,381.5,272.0,377.5,275.5" stroke="green" stroke-width="1" fill="none" />
<polyline points="373.5,287.0,377.5,260.0,370.0,263.0,382.5,264.5,352.0,268.0,371.0,242.5,375.5,249.5,360.0,251.0,365.5,227.0,358.5,241.0,366.0,227.0,366.5,226.5,370.0,211.0,367.0,241.0,378.5,210.5" stroke="orange" stroke-width="1" fill="none" />
<polyline points="362.5,224.5,359.0,229.0" stroke="black" stroke-width="1" fill="none" />
<polyline points="387.5,271.0,394.5,267.5,385.5,270.0,380.0,267.0,367.5,270.5,369.5,259.0,372.5,280.5,368.0,274.5,375.5,278.5,371.0,283.5,383.0,278.5,374.0,276.5" stroke="orange" stroke-width="1" fill="none" />
<polyline points="363.0,290.0,378.5,286.5,385.5,313.5,386.5,289.0,384.0,306.5,384.0,308.5,392.5,309.0,370.5,317.0,386.5,331.0,388.0,322.0,392.5,329.0,398.0,317.5,377.0,338.5,379.0,333.0,380.5,338.5,386.0,334.5,391.5,345.5" stroke="orange" stroke-width="1" fill="none" />
<polyline points="" stroke="green" stroke-width="1" fill="none" />
<polyline points="" stroke="black" stroke-width="1" fill="none" />
<polyline points="363.0,377.0,370.5,382.5,374.5,408.0" stroke="green" stroke-width="1" fill="none" />
<polyline points="345.0,426.0,345.0,425.0,356.0,413.0,375.5,420.0,367.0,416.0,343.5,413.0,337.0,416.0,340.5,400.0,339.0,396.0,346.0,392.0,334.5,399.0,332.0,373.5,333.0,385.0,315.0,388.5,325.5,388.5,321.5,388.5,305.5,410.5,299.0,401.5,296.5,377.0" stroke="green" stroke-width="1" fill="none" />
<polyline points="306.5,390.0,318.0,367.0,320.0,365.5,328.0,360.0,329.5,353.5,352.0,362.0,348.0,332.5,332.5,316.0,336.0,314.5" stroke="black" stroke-width="1" fill="none" />
<polyline points="" stroke="orange" stroke-width="1" fill="none" />
<polyline points="351.0,345.0,365.0,349.0,363.0,350.5,361.5,367.0,344.0,362.5,347.5,335.5,343.0,347.5,347.0,376.0,363.0,362.0,374.0,371.5,351.0,370.0,345.0,374.0,339.5,373.0,349.5,380.5,361.0,366.0,359.0,391.5,343.5,419.0,340.0,392.5,348.0,403.0,347.5,413.0,334.5,415.0" stroke="green" stroke-width="1" fill="none" />
<polyline points="372.0,394.5,368.5,395.0,370.5,371.0,372.5,374.5,379.0,369.5" stroke="black" stroke-width="1" fill="none" />
<polyline points="354.0,367.0,357.0,371.0,362.0,384.5,355.0,378.0,352.0,380.0,351.0,369.5" stroke="green" stroke-width="1" fill="none" />
<polyline points="356.5,362.5,335.5,364.0,353.5,386.5,354.0,404.5,364.5,380.0,355.5,393.5,344.0,374.5,344.0,413.0,362.0,392.5,358.5,397.0,332.5,402.0,359.0,403.0,339.0,412.5,355.0,429.0,343.5,408.5,347.0,413.0,350.5,413.5" stroke="orange" stroke-width="1" fill="none" />
<polyline points="348.5,451.0,360.0,442.0,373.0,443.0,374.0,451.0,379.0,436.5,371.0,434.0,351.5,441.0,363.0,420.5,372.5,427.5,379.5,406.0,367.5,403.5,376.0,410.5,381.5,407.5,378.0,394.5,392.5,384.5,379.5,373.5,376.5,393.0,373.0,383.5,381.5,382.5,385.5,389.5,373.5,353.0,375.5,380.0,393.5,361.5,382.0,357.0,380.5,343.5,371.0,346.5,365.0,357.0,376.5,339.5,369.0,310.5,375.5,341.5,374.0,331.0,369.5,325.5,374.5,324.0,372.5,322.5,353.5,318.5,377.5,312.5,374.5,301.5,361.0,306.0,375.0,313.0,390.5,282.0,383.5,299.5,377.5,294.0,351.0,288.5,364.0,276.5,366.0,275.0,362.5,263.5,359.5,273.0,380.0,275.5,363.5,267.5,380.5,256.5,355.0,236.5,361.0,234.5,374.5,239.0,384.5,249.0,362.0,238.5,363.0,219.5,361.5,236.0,367.0,237.5,349.5,217.5,356.5,204.5,367.0,221.5,357.0,197.0,358.0,209.5,349.0,208.0,348.5,209.5,348.5,195.5,349.5,207.5" stroke="green" stroke-width="1" fill="none" />
<polyline points="349.5,195.0,348.5,200.0,356.0,203.5,336.0,195.0,349.5,194.0,344.5,203.0,342.0,215.5" stroke="yellow" stroke-width="1" fill="none" />
<polyline points="356.5,185.5,352.5,196.5,382.0,217.5,369.0,204.5,373.0,219.0,378.0,210.0" stroke="yellow" stroke-width="1" fill="none" />
<polyline points="356.0,207.5,359.5,211.0,368.0,211.5,357.0,209.0,362.5,202.0,353.5,206.0" stroke="yellow" stroke-width="1" fill="none" />
<polyline points="363.5,216.5,365.0,222.5,355.0,212.0,355.0,209.0" stroke="orange" stroke-width="1" fill="none" />
<polyline points="350.0,203.5,350.5,203.5,350.0,201.5,356.5,205.5" stroke="yellow" stroke-width="1" fill="none" />
<polyline points="345.0,199.5,344.0,198.0,328.5,204.5,357.5,194.5,355.5,198.5,338.0,211.5" stroke="green" stroke-width="1" fill="none" />
<polyline points="357.0,221.0,355.5,213.0,345.0,221.5,339.5,206.0,346.5,208.5,335.0,187.0,321.0,200.5,322.0,193.5" stroke="yellow" stroke-width="1" fill="none" />
<polyline points="358.5,201.5,360.5,204.5,349.5,201.5,350.5,202.5,335.5,207.0,345.5,200.5,338.0,207.0,349.0,216.5,357.5,212.5,354.0,212.5,366.0,230.5,350.5,247.5,365.5,244.5,351.0,232.5" stroke="orange" stroke-width="1" fill="none" />
<polyline points="367.0,243.0,360.5,245.0,342.0,249.0,363.0,249.0" stroke="yellow" stroke-width="1" fill="none" />
<polyline points="352.0,224.5,346.0,242.0,351.0,234.5,364.5,230.0,354.0,270.0,334.0,245.0,358.0,237.5,358.5,265.0,346.5,261.5" stroke="green" stroke-width="1" fill="none" />
<polyline points="337.0,251.0,346.0,269.5,349.5,262.0,343.5,269.0,338.0,260.0" stroke="green" stroke-width="1" fill="none" />
<polyline points="347.5,275.0,341.0,267.5,333.5,262.0,336.5,269.0,340.0,253.5,324.5,256.0" stroke="green" stroke-width="1" fill="none" />
<polyline points="" stroke="orange" stroke-width="1" fill="none" />
<polyline points="346.5,265.0,338.0,252.5,340.5,256.5,334.0,263.0,363.5,293.0,333.5,290.0,341.5,285.5,349.5,278.5" stroke="green" stroke-width="1" fill="none" />
<polyline points="350.5,286.5,338.5,281.0,352.0,276.0,354.0,272.0,349.5,291.0,338.0,283.5,346.0,304.0,358.5,311.0,349.0,297.0,338.5,315.5,351.5,309.5,356.0,308.5,345.5,314.0,351.0,324.5,349.5,330.5,334.0,331.0,340.5,341.0,327.5,351.5,328.0,351.5,326.0,341.0,328.5,360.0,328.0,372.5,340.0,364.0,332.5,365.0,305.5,378.0,296.5,369.5,308.5,367.5,314.5,378.5,326.5,398.5,309.0,382.5,331.0,398.0,318.5,407.0,351.5,396.0,353.5,396.5,346.5,396.0,350.0,412.5,356.0,407.5,342.5,404.5,352.5,421.5,353.5,431.5,374.0,438.5,386.0,441.0,361.5,457.0,367.5,449.5,369.0,453.0,339.5,446.5,384.0,470.0,382.0,475.0,391.5,460.0,383.5,462.5,363.5,481.0,369.5,477.5,390.5,464.5,388.5,486.0,375.5,463.5,389.5,493.5,388.5,489.5,379.0,498.5,401.5,511.0,385.0,503.0,385.5,516.5,383.0,514.5" stroke="yellow" stroke-width="1" fill="none" />
<polyline points="430.5,491.0,452.5,493.5,437.0,485.5,428.0,496.0,442.5,501.5" stroke="orange" stroke-width="1" fill="none" />
<polyline points="447.5,469.0,447.0,467.5,442.5,481.0,468.0,478.5,449.0,451.5,456.0,448.0,459.5,459.5,468.5,453.0" stroke="orange" stroke-width="1" fill="none" />
<polyline points="459.5,449.0" stroke="yellow" stroke-width="1" fill="none" />
<polyline points="453.0,437.0,476.0,424.0,462.0,425.5,480.5,407.0,497.5,383.5,485.5,394.5,482.0,409.5,482.0,389.0,496.5,380.0,506.5,382.0,494.5,375.5,508.0,382.5,513.5,391.5,510.0,403.5,517.0,395.5" stroke="green" stroke-width="1" fill="none" />
<polyline points="512.0,381.0,507.5,382.0,496.0,383.0,513.0,389.5,495.5,384.5,488.0,391.0,502.5,405.0,491.5,399.0,492.5,411.0,479.0,404.5,477.5,404.0,485.0,425.0,485.5,412.5,468.0,418.0,459.0,417.5,463.5,432.0,458.5,436.0,456.5,446.5,463.5,440.5,459.5,474.0,467.0,446.0,446.0,444.5,447.5,452.0,441.5,477.0,460.5,458.5,460.5,478.0,444.5,473.5,461.5,459.5,442.0,472.5" stroke="green" stroke-width="1" fill="none" />
<polyline points="425.5,511.5,441.5,508.0,439.0,484.0,427.0,483.0,455.5,487.5,447.5,486.5,432.5,458.5,433.0,469.0,427.5,467.0,439.0,461.0,425.5,475.0,420.0,467.0" stroke="orange" stroke-width="1" fill="none" />
<polyline points="425.0,442.0,430.5,446.0,427.0,439.5,431.0,453.0,430.5,427.0,429.0,447.5,443.0,451.5,435.0,408.5,428.5,443.0" stroke="orange" stroke-width="1" fill="none" />
<polyline points="414.5,477.0,417.0,478.5,434.0,471.5,412.0,475.0" stroke="green" stroke-width="1" fill="none" />
<polyline points="423.0,481.0,428.0,480.5,416.0,490.0,443.5,445.5,437.0,482.5,433.5,479.5" stroke="orange" stroke-width="1" fill="none" />
<polyline points="486.0,411.0,477.0,431.0,479.5,421.0,485.5,413.5" stroke="orange" stroke-width="1" fill="none" />
<polyline points="441.0,413.5,455.0,423.5,465.0,396.0,449.0,407.0,454.0,412.0,449.5,378.5,440.0,401.5,447.5,409.0,444.5,400.0,453.0,396.5,450.0,377.5,452.0,375.0,456.5,364.5,460.0,378.0,452.0,370.0" stroke="yellow" stroke-width="1" fill="none" />
<polyline points="389.0,346.0,398.0,333.0,390.0,330.5,363.5,334.0,369.5,337.5,369.5,337.5" stroke="orange" stroke-width="1" fill="none" />
<polyline points="358.0,357.0,364.5,367.0,359.5,367.5,371.5,349.0,365.5,353.5,349.0,383.5,377.0,376.5,369.0,375.0,354.5,387.5" stroke="black" stroke-width="1" fill="none" />
<polyline points="" stroke="yellow" stroke-width="1" fill="none" />
<polyline points="326.0,350.0,328.0,353.0" stroke="black" stroke-width="1" fill="none" />
<polyline points="321.5,345.0,320.5,350.5,313.0,347.5,306.0,347.5,320.0,363.5,302.0,341.0,308.0,334.5,302.5,325.5" stroke="yellow" stroke-width="1" fill="none" />
<polyline points="288.0,356.5,285.5,359.0,286.5,360.5,296.5,356.5,302.0,358.5,320.0,350.0,307.5,344.5,300.0,342.0" stroke="green" stroke-width="1" fill="none" />
<polyline points="309.5,368.0,309.5,359.5,288.5,350.0,292.5,344.5" stroke="green" stroke-width="1" fill="none" />
<polyline points="311.5,333.0,319.5,333.0,305.5,341.0,305.0,318.5" stroke="orange" stroke-width="1" fill="none" />
<polyline points="298.5,330.0,301.0,334.0" stroke="black" stroke-width="1" fill="none" />
<polyline points="295.5,326.0,303.5,313.5,307.5,286.0,306.5,289.5" stroke="black" stroke-width="1" fill="none" />
<polyline points="322.0,324.5,323.5,318.5,328.0,326.0" stroke="orange" stroke-width="1" fill="none" />
<polyline points="324.5,281.5,318.5,295.5,336.0,285.5,325.5,280.0" stroke="orange" stroke-width="1" fill="none" />
<polyline points="331.0,280.5,337.5,281.5,335.5,274.5,342.5,272.5,348.0,275.5,327.0,270.0,333.5,263.0" stroke="orange" stroke-width="1" fill="none" />
<polyline points="329.5,305.5,325.5,281.0,319.5,302.0,329.5,269.5,318.5,267.0,345.0,252.5,338.0,259.5,321.5,253.5" stroke="black" stroke-width="1" fill="none" />
<polyline points="" stroke="black" stroke-width="1" fill="none" />
<polyline points="" stroke="green" stroke-width="1" fill="none" />
<polyline points="335.0,251.0,342.5,243.5,334.5,270.0,347.5,261.0,342.5,256.5" stroke="black" stroke-width="1" fill="none" />
<polyline points="362.5,226.0,347.0,248.5,356.5,244.5,322.0,227.0,353.0,220.0,337.5,212.5,346.5,205.5,337.0,202.0,350.5,197.0" stroke="yellow" stroke-width="1" fill="none" />
<polyline points="329.0,206.0,334.0,201.0,336.0,194.5,336.5,209.0,355.0,190.0,367.0,207.0,350.0,177.0,367.0,191.0,351.5,181.0,386.5,195.5,369.0,174.0,379.0,183.5,397.0,196.0,383.0,186.5,397.0,166.0,400.5,190.5,402.0,160.5,411.0,166.0,414.5,174.5,392.5,179.5,389.5,185.5,383.0,189.5,389.0,165.0,389.0,192.5,386.0,187.0,380.5,189.0,380.0,200.5,407.0,183.5,415.5,179.5" stroke="orange" stroke-width="1" fill="none" />
<polyline points="407.5,177.5,410.0,171.5,407.5,180.0,404.0,178.0,400.5,174.0,407.5,145.5,405.5,180.0,411.0,167.5,401.0,170.5,397.5,179.5,399.5,178.5,394.0,175.5,405.5,173.5" stroke="green" stroke-width="1" fill="none" />
<polyline points="368.0,196.0,362.5,181.0,348.0,201.0,337.0,197.5,336.0,199.0,335.0,204.5,362.0,208.5" stroke="black" stroke-width="1" fill="none" />
<polyline points="" stroke="yellow" stroke-width="1" fill="none" />
<polyline points="" stroke="green" stroke-width="1" fill="none" />
<polyline points="349.5,207.5,384.0,208.5,352.5,225.0,357.0,231.0,365.5,221.5" stroke="green" stroke-width="1" fill="none" />
<polyline points="" stroke="black" stroke-width="1" fill="none" />
<polyline points="" stroke="orange" stroke-width="1" fill="none" />
<polyline points="" stroke="orange" stroke-width="1" fill="none" />
<polyline points="" stroke="black" stroke-width="1" fill="none" />
<polyline points="" stroke="black" stroke-width="1" fill="none" />
<polyline points="360.5,198.0,365.0,195.5,374.0,194.0,367.5,175.0" stroke="green" stroke-width="1" fill="none" />
<polyline points="406.0,155.0,404.0,148.0,406.5,148.5,403.5,145.5,406.5,147.5,395.5,149.5,388.5,168.0,395.0,184.5,388.0,164.5,396.0,155.5,373.0,171.5,375.0,177.0,398.5,173.0,393.0,160.0,406.0,149.0,412.0,138.5,377.0,149.5" stroke="green" stroke-width="1" fill="none" />
<polyline points="404.0,153.5,406.5,144.5,413.5,157.0,406.5,161.5,398.5,161.0,381.0,178.5,396.0,184.5,384.0,168.5,393.0,165.0,386.0,172.0,386.5,158.5,375.5,175.5,371.0,175.0" stroke="orange" stroke-width="1" fill="none" />
<polyline points="380.5,111.0,381.5,125.0,409.0,133.5,384.0,134.5,390.5,126.0,382.5,132.0,376.0,143.5,388.0,141.5,404.0,127.5" stroke="yellow" stroke-width="1" fill="none" />
<polyline points="398.0,130.5,398.5,129.0,402.5,117.0,407.0,112.0,397.0,135.5,380.5,126.0,389.5,133.5,395.0,141.5,392.5,129.0,389.5,118.0" stroke="orange" stroke-width="1" fill="none" />
<polyline points="398.0,120.5,403.0,137.0,399.5,121.5,376.5,135.0,367.5,141.0,352.5,151.5,360.0,139.0,332.0,144.5,336.5,161.5,336.0,152.0,342.5,156.5" stroke="yellow" stroke-width="1" fill="none" />
<polyline points="285.0,182.5,289.5,185.0,292.5,186.0,291.0,192.0,281.0,186.0" stroke="black" stroke-width="1" fill="none" />
<polyline points="286.5,176.0,282.5,175.0,289.0,192.5,299.0,163.5,281.0,173.0,288.0,172.0" stroke="green" stroke-width="1" fill="none" />
<polyline points="270.5,178.0,268.0,172.0,279.5,165.0,286.5,177.5" stroke="green" stroke-width="1" fill="none" />
<polyline points="" stroke="yellow" stroke-width="1" fill="none" />
<polyline points="" stroke="green" stroke-width="1" fill="none" />
<polyline points="279.5,175.5,273.5,178.0,258.0,183.5,242.5,173.5" stroke="black" stroke-width="1" fill="none" />
<polyline points="247.0,176.0,251.0,181.0,251.0,185.0,257.0,179.5,261.5,181.0,259.5,176.5,228.5,171.5,259.0,178.0,256.0,177.5,264.5,187.0,247.5,177.5,235.5,196.5,247.0,183.0,239.0,189.5,255.0,198.0,245.5,186.0,231.5,212.5,223.0,209.0,237.0,211.0,239.0,211.5,245.5,214.5,258.0,212.5,261.0,206.5,264.5,210.5,268.0,209.5,250.0,210.0,253.0,212.5,239.0,239.0,257.0,209.5,254.0,223.0,235.5,224.5,245.5,240.0,243.5,248.5,245.0,243.0,249.0,243.5,228.5,264.0,216.5,271.5,224.5,265.5,210.5,282.0,215.0,277.0,214.0,275.0,208.0,281.0,210.5,286.5,224.0,298.0,213.0,291.5,186.0,303.0,200.5,292.5,188.5,314.0,170.5,304.0,191.5,291.0,201.0,321.0,200.0,318.5,190.5,336.0,184.0,313.5,191.0,332.5,177.0,332.0,172.5,345.0" stroke="orange" stroke-width="1" fill="none" />
<polyline points="152.0,366.0,177.0,367.5,165.0,377.5,151.0,391.0,168.0,371.0,162.5,373.0,153.5,376.5,140.0,401.0,151.5,396.0,179.0,394.5,154.5,418.5" stroke="yellow" stroke-width="1" fill="none" />
<polyline points="" stroke="orange" stroke-width="1" fill="none" />
<polyline points="166.5,413.0,160.0,430.5,172.5,416.5,172.0,424.0,161.5,429.5,153.0,417.0,157.0,405.5" stroke="black" stroke-width="1" fill="none" />
<polyline points="170.0,430.0,166.5,433.0,172.5,448.0" stroke="yellow" stroke-width="1" fill="none" />
<polyline points="187.0,432.5,185.5,450.0,175.5,436.0,175.5,443.5" stroke="orange" stroke-width="1" fill="none" />
<polyline points="" stroke="orange" stroke-width="1" fill="none" />
<polyline points="180.5,455.5,186.5,465.5,190.0,456.0,169.5,468.0,170.0,461.0,172.0,443.0,174.5,454.5,168.5,460.5" stroke="yellow" stroke-width="1" fill="none" />
<polyline points="" stroke="green" stroke-width="1" fill="none" />
<polyline points="156.5,462.0,160.0,458.0,156.5,449.0,154.0,451.5,156.5,468.0,156.0,466.0,173.5,463.5,186.0,470.0,141.5,459.0" stroke="black" stroke-width="1" fill="none" />
<polyline points="139.0,454.0,153.5,482.5,147.0,464.0,162.5,455.0,130.5,453.5,163.0,437.5,143.5,451.5,150.0,447.0,149.0,453.5" stroke="yellow" stroke-width="1" fill="none" />
<polyline points="148.0,480.5,138.0,471.0,129.0,480.0,149.0,478.5,141.0,487.0,152.5,468.5,150.0,488.5,147.0,482.5,142.5,490.0,160.0,482.0" stroke="black" stroke-width="1" fill="none" />
<polyline points="171.5,495.5,173.5,499.5,170.5,500.0" stroke="orange" stroke-width="1" fill="none" />
<polyline points="167.5,524.0,169.0,522.0,146.5,516.0,153.5,506.0,154.0,497.5,142.0,486.0,156.0,501.5,146.5,493.0,140.5,486.5,144.5,487.5" stroke="yellow" stroke-width="1" fill="none" />
<polyline points="142.5,490.5,146.0,486.0,162.5,486.5,157.0,496.5,161.5,497.5,161.0,497.5,160.5,499.0" stroke="orange" stroke-width="1" fill="none" />
<polyline points="147.5,501.0,145.0,504.5" stroke="yellow" stroke-width="1" fill="none" />
<polyline points="" stroke="yellow" stroke-width="1" fill="none" />
<polyline points="153.0,499.5,144.0,492.5,142.5,498.0" stroke="black" stroke-width="1" fill="none" />
<polyline points="150.0,504.5,146.0,495.0,138.5,490.5,164.0,496.5,158.0,489.0,151.0,495.0,149.5,491.5" stroke="black" stroke-width="1" fill="none" />
<polyline points="154.0,492.5,150.0,495.5,142.5,479.0,149.5,498.0,150.0,494.5,149.0,493.5,169.5,484.0,167.0,510.0,163.5,515.0,154.5,520.5,179.5,503.5,169.0,521.5,164.5,524.0,163.0,523.0" stroke="orange" stroke-width="1" fill="none" />
<polyline points="148.5,500.5,151.5,503.0,156.5,504.0,133.0,500.5,147.5,503.0,158.5,520.0,146.5,521.0,155.0,510.5,145.0,501.5,143.0,485.0,145.0,491.0,131.5,468.0" stroke="yellow" stroke-width="1" fill="none" />
<polyline points="134.0,493.5,135.5,499.5,132.0,494.5,157.0,516.0,153.5,505.5,156.0,497.5,154.5,496.0,138.0,504.0,153.0,497.5" stroke="yellow" stroke-width="1" fill="none" />
<polyline points="" stroke="yellow" stroke-width="1" fill="none" />
<polyline points="148.0,499.5,144.5,499.5,153.5,511.0,169.5,512.5,178.0,520.5" stroke="black" stroke-width="1" fill="none" />
<polyline points="144.0,499.5,148.0,505.0,141.0,489.0,137.0,508.5,144.0,510.0,136.0,494.0,147.5,507.0,138.5,488.0,115.5,497.5,160.0,484.0,154.5,484.0" stroke="black" stroke-width="1" fill="none" />
<polyline points="139.0,479.0,137.0,482.0,142.0,491.5,134.0,484.5,112.5,502.5,142.5,507.5,137.5,502.5,137.0,505.0" stroke="orange" stroke-width="1" fill="none" />
<polyline points="129.5,498.0,134.5,505.5,134.0,504.0,146.5,521.5,147.0,504.5,141.0,503.5" stroke="green" stroke-width="1" fill="none" />
<polyline points="" stroke="green" stroke-width="1" fill="none" />
<polyline points="129.5,508.5,126.0,495.5,114.5,494.0,121.5,493.0" stroke="black" stroke-width="1" fill="none" />
<polyline points="" stroke="black" stroke-width="1" fill="none" />
<polyline points="118.0,502.0,125.0,506.0,115.0,506.5,120.5,514.0" stroke="orange" stroke-width="1" fill="none" />
<polyline points="148.0,479.5,146.5,472.5,131.0,499.0,145.5,482.5,126.0,494.5,120.0,477.0" stroke="black" stroke-width="1" fill="none" />
<polyline points="119.0,475.5,125.0,492.0,129.0,502.5,133.0,469.5,137.5,503.5,132.0,495.5,134.0,517.5,137.5,503.0,147.5,513.5,123.0,516.0,127.0,514.0" stroke="yellow" stroke-width="1" fill="none" />
<polyline points="148.0,501.5,134.5,513.0" stroke="orange" stroke-width="1" fill="none" />
<polyline points="165.5,498.0" stroke="black" stroke-width="1" fill="none" />
<polyline points="183.0,494.5,176.0,488.5,181.5,495.0,173.0,478.0,172.0,477.5,170.0,481.0" stroke="yellow" stroke-width="1" fill="none" />
<polyline points="" stroke="yellow" stroke-width="1" fill="none" />
<polyline points="168.5,494.0,173.0,466.0,151.5,473.5,164.0,470.5" stroke="orange" stroke-width="1" fill="none" />
<polyline points="193.5,491.5,201.0,486.5,209.0,488.0,211.0,496.5,210.5,493.0,191.5,481.5,223.0,493.0,197.5,487.5,222.0,472.0,223.5,486.5,223.5,486.5,217.5,463.0,237.0,461.0,232.0,467.5" stroke="green" stroke-width="1" fill="none" />
<polyline points="" stroke="green" stroke-width="1" fill="none" />
<polyline points="208.5,475.0,218.5,472.5,206.0,483.5,232.0,481.5,223.5,479.5,226.0,491.5,222.5,478.5,232.0,469.0,261.0,460.0,238.0,470.5,232.5,465.0,230.0,441.5,254.0,456.5,226.5,448.5,231.5,447.0,237.5,425.0,231.5,432.0,259.0,434.0,218.0,421.0,246.5,426.0,248.0,408.0,250.0,407.0,247.0,402.0,248.5,418.5" stroke="yellow" stroke-width="1" fill="none" />
<polyline points="222.0,426.5" stroke="black" stroke-width="1" fill="none" />
<polyline points="" stroke="yellow" stroke-width="1" fill="none" />
<polyline points="228.5,395.5,238.5,410.0,245.0,409.5,246.0,409.5,250.5,422.0,237.0,438.5,231.5,407.0,249.5,433.0,239.5,450.5,243.0,441.5,227.5,460.5,230.5,450.5,242.0,457.0,237.0,437.5,234.5,457.5,224.0,477.0,214.0,464.0,240.5,487.5,223.0,466.5,226.0,461.0,219.0,477.5,206.5,485.5,205.5,496.5,213.0,482.5,203.5,465.0" stroke="black" stroke-width="1" fill="none" />
<polyline points="212.0,489.0,211.5,483.5,216.5,494.0,212.0,505.0,202.5,495.0,223.5,482.0,224.0,480.0,225.5,475.5" stroke="orange" stroke-width="1" fill="none" />
<polyline points="203.5,447.5,192.5,452.5,199.5,450.0,197.5,441.5,195.0,445.0,200.0,440.0" stroke="black" stroke-width="1" fill="none" />
<polyline points="200.5,424.5,204.0,437.0,196.5,427.5,177.5,454.5,179.5,453.5,172.5,433.5,180.5,450.5,178.5,450.5,185.5,437.0,186.0,443.5,180.5,442.0,174.5,432.0,171.0,431.5,185.5,414.5,173.0,429.5,164.5,406.0,175.0,413.5,183.0,429.0,169.5,407.5,179.5,407.0,166.5,409.0,157.5,415.0,153.0,385.5,157.0,386.0,159.5,371.5,157.0,387.0,161.5,394.0,156.5,397.0" stroke="black" stroke-width="1" fill="none" />
<polyline points="179.5,352.0,182.5,357.0,186.0,374.5,175.0,355.0,166.0,361.0,198.0,338.5,185.5,331.5,202.0,316.0,193.0,328.0,205.5,315.0" stroke="orange" stroke-width="1" fill="none" />
<polyline points="203.0,333.0,195.0,321.0,169.5,312.0,187.5,311.0,189.0,310.0" stroke="black" stroke-width="1" fill="none" />
<polyline points="202.0,312.5,194.0,317.5,187.0,320.0,198.0,317.0,193.0,315.5,202.5,299.5,215.0,297.0,231.5,273.5,224.0,263.0,210.0,245.0,223.5,265.5,239.0,240.0,215.5,245.0,253.0,239.5,234.0,232.0,244.0,234.5,250.0,229.5,243.0,216.5,249.5,226.0,241.5,215.5,237.5,218.0" stroke="black" stroke-width="1" fill="none" />
<polyline points="247.5,205.0,251.0,211.0,247.5,223.0,242.5,220.0" stroke="green" stroke-width="1" fill="none" />
<polyline points="" stroke="yellow" stroke-width="1" fill="none" />
<polyline points="258.0,247.0,280.0,238.5,253.0,236.5,265.5,232.0,233.5,227.0,256.5,216.0,259.5,241.0,246.5,234.0,248.5,238.0,263.5,250.0,243.5,263.0,224.0,264.5,223.0,268.5,211.0,260.5,211.5,284.0,206.0,281.5,219.5,275.5,233.0,282.0,230.0,281.0,212.0,269.5,230.5,253.5,233.0,252.5,238.0,277.0,215.5,263.5,241.0,263.0,225.0,261.5,237.5,239.5,247.5,243.5,246.5,227.0,228.5,234.0,259.0,237.0,276.0,204.0,249.5,217.0,261.5,215.5,259.0,206.0,275.0,215.5,240.5,203.5,270.0,200.0,260.5,191.0,270.5,173.0" stroke="green" stroke-width="1" fill="none" />
<polyline points="" stroke="black" stroke-width="1" fill="none" />
<polyline points="252.5,207.5,258.5,205.0,254.5,208.5,264.0,195.5,254.0,212.0,260.0,223.5,250.0,225.5,248.5,217.5,254.5,237.0,236.0,239.0,240.0,244.0,232.0,225.5,234.5,239.0,237.0,232.5,232.0,214.5,232.0,212.5,228.0,216.0,233.0,217.0,217.5,219.5,213.5,223.0,233.5,192.5,219.0,214.0,215.0,219.5,207.5,216.0" stroke="green" stroke-width="1" fill="none" />
<polyline points="232.0,209.0,248.5,215.0,243.5,208.5,244.0,219.5,246.5,211.0" stroke="yellow" stroke-width="1" fill="none" />
<polyline points="243.5,207.0,245.5,204.0,242.0,206.0,248.0,217.0" stroke="orange" stroke-width="1" fill="none" />
<polyline points="240.5,210.0,249.5,193.0" stroke="orange" stroke-width="1" fill="none" />
<polyline points="252.5,188.5,262.5,188.0,248.5,203.5,264.5,170.5,243.0,174.0,249.0,184.5,262.0,195.0,245.0,183.5,256.0,190.5,259.0,194.5" stroke="yellow" stroke-width="1" fill="none" />
<polyline points="267.5,184.0,265.0,186.0,268.5,185.5,281.5,189.0,254.5,194.5,250.5,190.5,238.0,194.0,240.0,203.5,259.5,193.5,258.0,209.0,257.0,208.5,240.5,205.0,249.5,194.0,266.5,195.0,271.5,195.5,265.0,192.0,266.0,187.0" stroke="yellow" stroke-width="1" fill="none" />
<polyline points="264.5,193.0,261.0,183.5,259.0,195.5,260.0,187.5,248.0,174.0,262.0,183.5,275.0,202.5,252.0,184.5,262.0,191.0" stroke="green" stroke-width="1" fill="none" />
<polyline points="261.5,178.5,263.5,183.5,271.5,169.0,267.5,197.5,249.5,179.5,264.0,213.0,241.5,180.0,244.0,209.5,256.0,206.5,250.0,207.0,261.0,216.5,270.0,194.5,276.5,210.5" stroke="black" stroke-width="1" fill="none" />
<polyline points="259.0,230.5,265.0,221.0,273.5,204.5,256.5,203.0,238.5,215.0,264.0,205.0,258.5,214.0,242.0,213.5,258.0,221.5,254.0,222.0,263.5,229.5,245.0,234.0,244.0,228.5,222.0,220.0,217.5,226.5,225.5,223.5,217.5,221.5" stroke="yellow" stroke-width="1" fill="none" />
<polyline points="" stroke="orange" stroke-width="1" fill="none" />
<polyline points="" stroke="black" stroke-width="1" fill="none" />
<polyline points="220.5,232.0,219.0,239.5,237.5,232.0,243.5,225.0" stroke="orange" stroke-width="1" fill="none" />
<polyline points="221.0,223.0,202.5,241.0,199.0,231.5" stroke="black" stroke-width="1" fill="none" />
<polyline points="219.5,232.0,225.5,230.0,238.0,242.0,239.5,235.0" stroke="yellow" stroke-width="1" fill="none" />
<polyline points="236.0,264.5,225.5,267.5,209.5,244.0,234.0,236.0,218.0,226.5,218.0,237.0,245.5,251.0,208.0,211.0,215.5,234.0,223.5,207.5,232.0,216.0,209.0,224.0,210.5,213.0" stroke="black" stroke-width="1" fill="none" />
<polyline points="223.0,247.0,220.5,237.0,214.5,238.0,227.5,240.0,210.0,225.5" stroke="orange" stroke-width="1" fill="none" />
<polyline points="230.0,236.5,226.5,237.5,223.5,249.0,226.5,260.0,213.5,248.0,227.5,246.0,223.0,259.5,223.5,257.0,210.5,266.5,223.0,276.5,198.0,273.0,190.5,279.0,210.5,306.0,204.5,303.0,205.5,319.5,183.5,336.0,177.0,337.0,186.5,337.0,179.0,337.0,176.5,332.0,158.0,320.5,158.5,351.0,152.0,319.5,150.0,354.0,151.0,346.0" stroke="orange" stroke-width="1" fill="none" />
<polyline points="142.0,339.0,138.5,334.0,162.5,364.0,137.0,342.0,146.0,328.0,150.0,319.0,158.5,340.0,150.5,322.5" stroke="orange" stroke-width="1" fill="none" />
<polyline points="166.0,336.0,166.5,326.5,171.5,318.0,177.0,322.0" stroke="yellow" stroke-width="1" fill="none" />
<polyline points="130.0,336.5,145.0,344.0,159.0,354.5,154.5,337.0,161.5,341.0,157.5,350.0,161.0,355.5" stroke="yellow" stroke-width="1" fill="none" />
<polyline points="134.5,354.5,139.5,346.0,153.5,357.5,123.0,358.0,140.5,362.0,132.0,342.0,130.5,321.0,148.0,328.0,142.0,320.0,128.0,327.5,114.5,307.0,123.5,309.0,120.5,317.0,127.0,307.0,138.0,322.0" stroke="green" stroke-width="1" fill="none" />
<polyline points="" stroke="green" stroke-width="1" fill="none" />
<polyline points="135.5,297.0,134.5,299.5,139.0,308.0,121.0,284.5,133.5,296.5,124.5,307.5,123.0,301.5" stroke="yellow" stroke-width="1" fill="none" />
<polyline points="" stroke="green" stroke-width="1" fill="none" />
<polyline points="120.5,285.0,128.0,279.5,114.5,295.0,115.5,295.0" stroke="orange" stroke-width="1" fill="none" />
<polyline points="155.0,245.0,158.5,246.0,140.0,256.0,163.0,271.0,158.0,269.5,156.0,273.0" stroke="yellow" stroke-width="1" fill="none" />
<polyline points="" stroke="orange" stroke-width="1" fill="none" />
<polyline points="155.5,271.5,161.5,270.5,152.0,290.5,150.0,297.5" stroke="orange" stroke-width="1" fill="none" />
<polyline points="175.5,264.5,163.0,272.5,172.5,267.5,173.5,238.5,179.0,268.0,168.0,256.5,178.5,261.5,184.5,257.0" stroke="orange" stroke-width="1" fill="none" />
<polyline points="183.0,253.0,177.5,253.0" stroke="green" stroke-width="1" fill="none" />
<polyline points="151.0,257.5,158.0,265.5,175.5,258.5,156.5,253.0,165.5,273.0,176.0,243.5,175.0,245.5,173.5,250.0,162.5,239.5,168.5,251.5" stroke="yellow" stroke-width="1" fill="none" />
<polyline points="" stroke="orange" stroke-width="1" fill="none" />
<polyline points="198.0,262.0,195.0,262.0,195.5,259.0,167.5,246.5" stroke="orange" stroke-width="1" fill="none" />
<polyline points="190.0,246.5,191.0,272.0,176.5,257.5,169.5,284.0,179.0,268.0" stroke="green" stroke-width="1" fill="none" />
<polyline points="178.5,251.5,177.5,255.5" stroke="black" stroke-width="1" fill="none" />
<polyline points="181.0,259.0,198.0,261.0,191.0,243.5,184.0,270.0,171.0,264.5" stroke="green" stroke-width="1" fill="none" />
<polyline points="204.0,276.5,208.0,274.0,202.0,264.5,204.0,264.0" stroke="yellow" stroke-width="1" fill="none" />
<polyline points="217.0,259.0,221.0,271.0,218.0,231.5,224.0,252.5,221.5,236.0,225.0,256.0,200.0,232.0,218.0,243.0,215.0,241.5,223.0,240.0" stroke="yellow" stroke-width="1" fill="none" />
<polyline points="225.0,236.5,219.5,241.5,229.0,226.5,209.5,246.0,190.5,236.5" stroke="black" stroke-width="1" fill="none" />
<polyline points="" stroke="black" stroke-width="1" fill="none" />
<polyline points="" stroke="orange" stroke-width="1" fill="none" />
<polyline points="" stroke="green" stroke-width="1" fill="none" />
<polyline points="208.5,235.0,203.5,231.0,200.0,217.0,210.5,239.5,217.5,256.0,208.0,233.0,201.0,229.0,198.0,249.0,204.5,259.5,223.0,249.5,225.5,255.5,223.5,251.0,219.5,253.5" stroke="yellow" stroke-width="1" fill="none" />
<polyline points="" stroke="black" stroke-width="1" fill="none" />
<polyline points="" stroke="orange" stroke-width="1" fill="none" />
<polyline points="197.5,239.5,189.5,243.0,183.5,240.5,181.5,242.5,188.0,261.5,207.5,254.5,204.5,255.0" stroke="green" stroke-width="1" fill="none" />
<polyline points="209.5,288.0,211.0,285.5,202.5,280.5,196.0,291.0,194.5,291.0,176.5,279.0,186.0,258.5,179.5,265.5,179.5,252.0,169.0,261.0,175.5,242.0,195.5,259.5,180.5,246.5,186.5,254.5,213.0,244.5,202.0,242.0,200.5,260.0,184.0,256.5,175.5,242.5,185.5,248.5,189.0,248.5,186.0,244.0" stroke="green" stroke-width="1" fill="none" />
<polyline points="205.0,225.0,200.5,220.5,184.0,223.0,186.0,227.5,176.5,225.5" stroke="black" stroke-width="1" fill="none" />
<polyline points="172.5,217.5,200.0,225.0,188.0,233.0,202.5,240.0,176.5,241.5,176.5,238.0,182.0,247.0" stroke="orange" stroke-width="1" fill="none" />
<polyline points="" stroke="green" stroke-width="1" fill="none" />
<polyline points="204.0,230.5,203.0,225.5,192.5,222.5,191.0,227.5,181.0,256.0,210.0,242.5,206.0,242.5,214.5,241.5" stroke="orange" stroke-width="1" fill="none" />
<polyline points="" stroke="yellow" stroke-width="1" fill="none" />
<polyline points="208.0,222.5,213.0,224.0,210.0,228.0" stroke="orange" stroke-width="1" fill="none" />
<polyline points="210.5,208.5,211.0,207.0,195.0,245.5" stroke="green" stroke-width="1" fill="none" />
<polyline points="226.0,199.5,236.0,214.0,221.0,193.5,222.0,206.5,231.0,205.5,212.0,182.0,225.5,197.0,217.5,216.5,225.0,212.5,209.0,218.5,227.0,225.0,244.5,233.0,235.0,210.5,234.0,233.0,215.0,257.0,225.5,232.5,222.0,263.0,235.0,250.0,233.0,248.5,220.0,246.0,224.5,263.0,213.5,260.5,221.5,265.0,213.0,261.0,201.5,273.5,228.0,274.0,193.5,297.5,197.0,269.5,215.5,283.5,201.0,304.5,207.0,284.0,200.0,305.0,197.5,303.5,190.0,323.0,181.0,328.0,182.0,309.0,200.0,316.0,191.5,311.5,201.0,316.0,213.5,297.5,224.5,292.5,225.0,297.0,222.5,279.0,219.0,268.0,225.5,286.5,220.5,279.0,239.5,266.0,253.5,270.0,245.5,251.5,245.5,248.0,255.5,266.0,254.5,227.0,269.0,256.5,263.0,249.0,269.5,230.5,274.0,251.5,281.0,260.0,264.0,259.5,287.0,243.0,291.0,241.5,292.0,240.0,296.5,247.5,292.5,256.0,285.0,250.5,297.0,246.0,303.5,249.0" stroke="green" stroke-width="1" fill="none" />
<polyline points="273.5,267.0,270.5,268.0,270.5,260.0" stroke="black" stroke-width="1" fill="none" />
<polyline points="286.5,252.5,287.5,249.0,278.0,255.5,268.5,250.0,271.5,251.5,269.5,248.5" stroke="yellow" stroke-width="1" fill="none" />
<polyline points="302.0,269.5,284.5,275.0,285.5,273.5" stroke="orange" stroke-width="1" fill="none" />
<polyline points="" stroke="yellow" stroke-width="1" fill="none" />
<polyline points="299.5,272.0,273.0,279.0,290.0,286.5,276.0,283.0,284.5,281.0,273.0,273.0" stroke="black" stroke-width="1" fill="none" />
<polyline points="" stroke="green" stroke-width="1" fill="none" />
<polyline points="" stroke="black" stroke-width="1" fill="none" />
<polyline points="270.0,273.0,272.5,274.0" stroke="green" stroke-width="1" fill="none" />
<polyline points="269.0,267.5,274.0,262.5,267.5,259.5,267.0,283.0,261.0,264.0,258.0,280.5,283.0,252.5,262.0,293.5,268.5,289.5,271.5,278.0" stroke="orange" stroke-width="1" fill="none" />
<polyline points="274.0,272.5" stroke="green" stroke-width="1" fill="none" />
<polyline points="264.5,243.5,277.0,275.0,275.5,279.0,254.0,265.0,268.0,257.5,256.5,264.0,262.0,273.0,250.5,274.0,259.5,268.5" stroke="orange" stroke-width="1" fill="none" />
<polyline points="" stroke="green" stroke-width="1" fill="none" />
<polyline points="258.5,267.5,247.0,272.0,257.5,274.0,239.5,284.5,253.0,265.5,267.0,271.5,263.0,287.0,273.0,281.0,274.5,281.5,276.0,271.0,286.0,259.0,266.0,261.5,269.0,288.0,267.5,278.5" stroke="yellow" stroke-width="1" fill="none" />
<polyline points="278.0,266.0,284.0,258.0,296.5,267.0,297.5,262.0,299.5,246.5,290.0,251.0,285.5,242.5" stroke="green" stroke-width="1" fill="none" />
<polyline points="265.5,236.5,275.5,224.5,263.5,251.0,265.5,262.0,269.5,261.0,273.0,256.0" stroke="yellow" stroke-width="1" fill="none" />
<polyline points="" stroke="orange" stroke-width="1" fill="none" />
<polyline points="261.5,265.5,275.0,269.0,274.5,254.5,275.0,262.0,280.5,270.0,266.5,270.5,261.0,245.5,250.0,226.5,263.5,261.0,245.0,254.5,260.5,254.5,262.5,257.0,256.0,257.0,253.0,261.0" stroke="yellow" stroke-width="1" fill="none" />
<polyline points="261.0,256.5,277.0,266.0,261.0,274.5,264.0,280.5,294.5,276.0" stroke="yellow" stroke-width="1" fill="none" />
<polyline points="275.5,268.5,282.5,268.5,279.5,274.5,272.0,267.5,289.5,254.5,282.5,282.5,298.0,285.0,264.0,286.5,260.0,283.5,264.5,283.0" stroke="orange" stroke-width="1" fill="none" />
<polyline points="" stroke="black" stroke-width="1" fill="none" />
<polyline points="264.5,231.5,277.0,242.0,267.5,246.0,252.0,242.0,249.5,258.0,247.0,249.0,256.0,255.5,250.0,281.5,241.5,279.5,227.0,266.0,235.0,260.5,222.5,277.5,235.5,288.5,225.5,294.5,225.0,306.0,215.0,312.0,216.0,306.0,216.5,291.5,213.0,304.0,191.5,315.5,191.5,325.5,215.0,306.0,203.5,305.0,188.5,326.5,196.5,346.0,178.5,325.5,190.5,327.0,194.0,339.0,192.5,353.0,181.5,338.0,180.0,363.5,171.5,372.0,176.0,369.5,162.5,373.5,165.5,380.5,143.0,362.5,159.0,384.5,157.5,382.5,149.5,385.5,169.5,383.5,172.5,408.0,170.5,403.5" stroke="orange" stroke-width="1" fill="none" />
<polyline points="166.0,407.5,159.0,395.0,176.5,392.0,156.0,397.5" stroke="orange" stroke-width="1" fill="none" />
<polyline points="141.5,405.0,130.5,399.5,153.5,369.5" stroke="orange" stroke-width="1" fill="none" />
<polyline points="147.5,388.5,136.5,373.0,134.5,370.5" stroke="orange" stroke-width="1" fill="none" />
<polyline points="149.0,384.5,152.0,390.0,115.5,378.5,136.0,383.5,150.5,386.5,163.5,375.5,159.0,365.0" stroke="green" stroke-width="1" fill="none" />
<polyline points="141.5,391.0,143.5,391.0,141.5,414.0,121.0,392.0,123.5,415.5,121.0,430.5,117.5,429.5,137.5,419.0,126.0,442.0,133.5,428.5,146.5,438.0,117.5,429.0,125.0,443.5,131.0,439.5,137.0,457.0,137.5,470.5,128.0,457.5,151.5,462.0,136.0,466.0,131.0,475.0,139.0,460.0,147.5,472.5,151.0,469.5,144.0,493.0,143.0,490.5,158.0,479.5,171.5,468.5,168.0,483.5,168.5,487.0" stroke="yellow" stroke-width="1" fill="none" />
<polyline points="176.5,464.5,177.5,473.5" stroke="yellow" stroke-width="1" fill="none" />
<polyline points="168.5,484.0,174.5,484.5,187.0,458.0,195.5,456.0,168.0,456.5,183.0,453.0,188.0,453.0,179.5,453.0,185.5,458.0,166.0,446.5,172.0,433.5,165.0,432.5" stroke="yellow" stroke-width="1" fill="none" />
<polyline points="170.0,434.5,162.0,437.5,156.5,434.0,167.5,426.5,167.0,425.0" stroke="green" stroke-width="1" fill="none" />
<polyline points="171.5,435.0,166.5,432.0,176.0,433.5,155.0,426.5,165.0,420.0,168.0,433.5,178.0,415.0,160.5,418.0,151.0,420.0,172.0,430.5,154.0,396.5,171.0,421.5,156.0,415.5,156.5,401.5,167.0,394.5,169.0,394.0,155.0,399.5,164.0,393.5,159.0,393.5,160.0,356.0,153.5,386.5,179.5,371.0,170.5,364.0" stroke="black" stroke-width="1" fill="none" />
<polyline points="137.0,372.0,147.5,365.0,132.5,371.5,149.0,359.0,144.5,364.5,165.0,359.5,159.0,365.5,148.0,367.0,158.0,377.0,147.5,394.0,153.0,383.5,168.5,389.5,159.0,393.0,168.5,386.0,176.5,386.5,164.0,396.5,162.5,394.0,158.5,396.5" stroke="green" stroke-width="1" fill="none" />
<polyline points="160.5,420.0,163.5,418.0,186.0,422.5,177.5,417.5,183.5,437.5,190.5,433.0,163.5,451.0,154.0,427.0,165.0,430.5,184.0,451.5,185.0,448.5,167.5,466.5,175.5,461.0,177.0,460.0" stroke="green" stroke-width="1" fill="none" />
<polyline points="178.0,483.0" stroke="orange" stroke-width="1" fill="none" />
<polyline points="152.0,442.5,149.5,439.5,178.5,471.0,157.0,467.0,166.5,454.0,177.5,466.5,157.5,460.0,154.5,466.0,166.0,466.0,150.0,485.5,170.5,467.5,152.5,479.5,159.0,466.0,165.5,494.0,161.0,495.0,163.5,491.0,163.5,508.0,175.5,521.0" stroke="black" stroke-width="1" fill="none" />
<polyline points="154.0,483.5,161.5,479.5,163.5,471.0,164.0,476.0,160.5,474.5,141.0,464.0" stroke="green" stroke-width="1" fill="none" />
<polyline points="" stroke="black" stroke-width="1" fill="none" />
<polyline points="" stroke="orange" stroke-width="1" fill="none" />
<polyline points="153.0,465.5,154.0,464.5,153.5,448.5,132.0,448.0,159.5,457.5,148.5,442.0,156.0,456.0,147.5,438.5,156.0,436.5,156.5,441.5,142.5,434.0,143.0,424.0,150.5,431.0,154.0,420.5,117.5,417.0,109.0,420.5,119.5,401.0" stroke="green" stroke-width="1" fill="none" />
<polyline points="110.0,410.0,128.0,397.5" stroke="yellow" stroke-width="1" fill="none" />
<polyline points="" stroke="green" stroke-width="1" fill="none" />
<polyline points="141.0,400.5,134.0,407.5,130.0,410.5,128.5,399.0" stroke="orange" stroke-width="1" fill="none" />
<polyline points="159.5,422.0,162.5,430.5,144.5,447.0" stroke="green" stroke-width="1" fill="none" />
<polyline points="175.0,439.0,160.0,453.0,171.0,437.5,167.5,453.5,172.0,445.0,186.0,458.0,181.5,453.5" stroke="yellow" stroke-width="1" fill="none" />
<polyline points="178.5,424.5,179.5,419.5,178.0,436.5,180.0,424.0,179.5,423.0,194.0,415.0,186.5,416.0,162.5,388.5,170.0,394.5,154.0,387.0,161.5,387.0,159.5,384.0" stroke="orange" stroke-width="1" fill="none" />
<polyline points="179.5,423.0,175.0,405.0,167.0,422.5,188.0,427.5,163.5,428.0,181.5,432.5,180.0,428.5" stroke="yellow" stroke-width="1" fill="none" />
<polyline points="160.5,422.0,162.5,437.5,165.5,422.5,171.5,419.5,191.0,434.5" stroke="orange" stroke-width="1" fill="none" />
<polyline points="179.0,454.5,182.5,451.5,166.5,449.0,164.0,458.5,168.5,463.5" stroke="green" stroke-width="1" fill="none" />
<polyline points="157.5,446.0,151.5,444.5,138.5,455.0,157.0,425.5,178.5,453.0,152.0,450.5,151.0,452.0,148.5,455.5" stroke="green" stroke-width="1" fill="none" />
<polyline points="153.5,465.5,146.5,462.5,154.0,456.0,149.5,460.5,154.0,459.5" stroke="orange" stroke-width="1" fill="none" />
<polyline points="136.5,462.0,138.5,461.0,157.5,438.0,152.0,454.5,144.5,442.5,149.0,440.5" stroke="yellow" stroke-width="1" fill="none" />
<polyline points="" stroke="yellow" stroke-width="1" fill="none" />
<polyline points="131.5,455.0,156.5,454.5,155.0,439.0,149.5,458.5,137.5,467.0,157.0,468.0,149.0,467.5,141.0,471.0,143.5,476.5,154.0,462.5,153.0,485.0,153.5,467.0,145.0,476.0,151.5,477.0" stroke="black" stroke-width="1" fill="none" />
<polyline points="" stroke="black" stroke-width="1" fill="none" />
<polyline points="" stroke="orange" stroke-width="1" fill="none" />
<polyline points="157.0,470.5,138.5,478.5,141.0,475.5" stroke="orange" stroke-width="1" fill="none" />
<polyline points="151.0,453.5,149.5,446.5,145.0,477.0,136.0,454.5,138.0,463.5,153.5,482.5,163.0,481.0,134.0,474.0,154.0,466.0" stroke="green" stroke-width="1" fill="none" />
<polyline points="163.0,468.5,154.0,490.5,151.0,477.0,157.5,454.0,151.5,455.0,152.0,448.0,147.5,443.5" stroke="black" stroke-width="1" fill="none" />
<polyline points="137.0,442.5,147.5,433.0,141.5,448.5,160.5,452.0,147.5,471.0,156.5,473.5,156.0,461.5,157.0,468.5,154.0,475.5,158.0,473.5,161.0,482.0,157.0,480.0,149.5,476.0,147.0,482.5,159.5,497.0,164.5,497.5" stroke="green" stroke-width="1" fill="none" />
<polyline points="174.5,462.5,177.0,477.5,169.0,463.0,171.5,458.0,158.5,450.0,163.5,440.5,161.5,461.5,141.0,450.0,147.0,446.0,162.0,449.5,150.0,459.5,153.5,427.5,140.5,429.0,142.5,431.5,148.0,423.0,139.5,418.0,146.5,432.5,148.5,409.0" stroke="black" stroke-width="1" fill="none" />
<polyline points="" stroke="yellow" stroke-width="1" fill="none" />
<polyline points="148.5,444.5,145.0,438.5" stroke="yellow" stroke-width="1" fill="none" />
<polyline points="135.0,424.0,136.0,430.0,136.5,434.0,133.5,438.0,157.5,398.0,139.5,422.5,143.5,410.5,149.0,408.0" stroke="yellow" stroke-width="1" fill="none" />
<polyline points="132.0,418.0,132.5,420.0,135.0,419.0,159.5,415.5,146.0,428.0" stroke="yellow" stroke-width="1" fill="none" />
<polyline points="153.0,402.5,152.0,401.0,146.0,413.5,164.0,412.5,149.0,381.5,154.5,404.0,156.5,404.0" stroke="orange" stroke-width="1" fill="none" />
<polyline points="" stroke="green" stroke-width="1" fill="none" />
<polyline points="169.5,384.5,146.5,380.5,147.5,397.5,153.5,396.5" stroke="black" stroke-width="1" fill="none" />
<polyline points="134.0,390.0,142.0,405.0,121.0,408.5" stroke="yellow" stroke-width="1" fill="none" />
<polyline points="120.0,391.5,111.5,393.0,115.0,392.5" stroke="green" stroke-width="1" fill="none" />
<polyline points="137.5,405.0,109.5,408.5,121.0,384.0,149.0,403.0,148.5,401.0,141.0,383.5,136.0,388.0,156.5,377.0,162.5,378.0,150.0,362.0,134.5,346.0,160.5,360.0,137.0,352.5,146.0,346.0,133.5,353.0,117.0,339.5,140.5,326.5,118.5,333.5,139.0,328.5,142.5,334.0,146.5,313.5,136.0,327.0,141.0,321.5,128.0,330.5,131.0,308.5,126.0,315.5,141.5,298.0,121.5,286.0,127.0,286.5,132.0,280.0,115.5,284.0" stroke="green" stroke-width="1" fill="none" />
<polyline points="105.5,272.5,112.5,283.0,145.5,276.0,126.5,301.5,123.0,297.0,128.5,277.0,115.0,308.5,126.5,293.5,148.5,309.0,136.0,320.0,120.0,306.0,127.5,309.5,108.5,330.5,126.5,324.0,110.5,334.0,140.0,355.5,144.0,350.0" stroke="orange" stroke-width="1" fill="none" />
<polyline points="119.5,332.0,116.5,346.0,118.0,341.5,116.0,346.5" stroke="black" stroke-width="1" fill="none" />
<polyline points="118.5,348.0,130.5,357.5,125.5,378.5,142.5,376.0,101.0,370.5,109.0,364.0,117.5,386.0,103.0,387.5,97.0,378.0,136.0,382.0,106.5,370.5,126.5,396.0,133.0,396.0,125.5,402.5,128.5,410.0" stroke="orange" stroke-width="1" fill="none" />
<polyline points="120.5,400.0,115.0,416.0,113.5,406.5,105.5,401.0,108.5,390.0,106.5,399.0,122.5,383.0,126.0,381.0,108.5,367.5,118.5,391.0,126.0,377.0" stroke="yellow" stroke-width="1" fill="none" />
<polyline points="124.0,347.0,120.5,363.0,133.5,353.5,119.0,378.0,138.5,374.5,136.5,374.5" stroke="black" stroke-width="1" fill="none" />
<polyline points="118.0,384.5,118.5,391.5,116.0,370.0,123.0,398.5,141.5,387.5,118.5,383.0,126.5,402.5,125.0,401.5" stroke="orange" stroke-width="1" fill="none" />
<polyline points="145.0,388.5,141.0,383.5,131.0,384.0,135.5,387.0,143.5,385.5,140.5,378.0" stroke="black" stroke-width="1" fill="none" />
<polyline points="149.5,367.0,140.5,385.5,139.5,398.5" stroke="green" stroke-width="1" fill="none" />
<polyline points="" stroke="orange" stroke-width="1" fill="none" />
<polyline points="124.0,408.5,119.5,417.0,101.0,435.0,126.5,417.0,108.0,397.5,130.0,425.5,145.0,402.5,119.0,392.0,125.0,439.5,145.0,413.5,118.5,427.5" stroke="orange" stroke-width="1" fill="none" />
<polyline points="130.0,429.0,130.5,417.5,158.5,417.0,156.5,420.0" stroke="yellow" stroke-width="1" fill="none" />
<polyline points="114.5,400.5,132.5,413.0,127.5,406.5,120.0,401.5,119.5,399.5,117.0,388.5,131.0,389.0,138.5,392.5,130.5,395.5,144.5,388.5" stroke="orange" stroke-width="1" fill="none" />
<polyline points="155.0,424.0,163.0,424.0,164.0,424.5,133.0,410.0,135.0,421.5,131.5,417.5,135.0,417.0" stroke="green" stroke-width="1" fill="none" />
<polyline points="153.5,397.5,153.0,389.0,143.5,411.0,147.5,395.5,141.0,393.5" stroke="yellow" stroke-width="1" fill="none" />
<polyline points="" stroke="orange" stroke-width="1" fill="none" />
<polyline points="133.0,401.5" stroke="green" stroke-width="1" fill="none" />
<polyline points="167.0,374.5,171.0,383.0,173.0,390.5,180.0,401.5,163.5,403.0,170.0,401.5,192.0,428.5,165.5,409.0" stroke="orange" stroke-width="1" fill="none" />
<polyline points="188.0,407.5,183.0,405.5,175.5,408.0,189.0,421.0,159.5,419.0,163.5,411.0,139.0,420.5,149.5,403.0,151.0,396.0,157.0,397.5,132.0,397.5,140.0,391.0,154.0,372.5,136.5,374.5,138.5,385.0,145.0,385.0,135.5,388.5,132.5,368.5,134.0,365.0,157.0,358.0,155.5,361.5,154.5,343.0,152.0,345.5,140.0,353.5,137.0,343.5,122.5,343.5,124.5,322.0,123.5,342.0,141.5,330.5,140.0,321.5,144.0,324.0" stroke="black" stroke-width="1" fill="none" />
<polyline points="125.5,321.5,119.0,320.5,125.0,321.0,114.0,323.5,106.5,326.5,112.5,325.0" stroke="yellow" stroke-width="1" fill="none" />
<polyline points="125.5,365.0,135.5,323.0,128.0,331.0,124.5,356.5,130.5,347.0,127.0,352.5,128.0,343.5,122.0,366.0,139.0,364.5,123.5,345.5,127.0,391.5,131.5,383.5,122.5,362.5,126.0,366.0" stroke="orange" stroke-width="1" fill="none" />
<polyline points="" stroke="black" stroke-width="1" fill="none" />
<polyline points="" stroke="yellow" stroke-width="1" fill="none" />
<polyline points="143.5,355.5,137.5,352.5,152.5,351.5,138.5,350.0,127.0,368.5,137.5,360.0" stroke="orange" stroke-width="1" fill="none" />
<polyline points="" stroke="yellow" stroke-width="1" fill="none" />
<polyline points="" stroke="black" stroke-width="1" fill="none" />
<polyline points="151.5,356.5,152.0,354.5,133.0,362.5,138.0,364.5,149.0,349.5,160.5,356.0,141.0,366.0,134.0,336.0,136.5,315.5,131.0,348.5" stroke="black" stroke-width="1" fill="none" />
<polyline points="151.0,332.5,148.0,332.5,161.5,339.5,154.5,342.5" stroke="black" stroke-width="1" fill="none" />
<polyline points="153.5,337.5,135.5,330.5,157.0,351.0,158.5,332.5,128.5,330.5" stroke="green" stroke-width="1" fill="none" />
<polyline points="122.0,347.0,117.0,350.5,141.5,355.0,126.5,365.0" stroke="green" stroke-width="1" fill="none" />
<polyline points="132.5,350.0,131.0,347.5,125.0,342.0,127.0,343.0,126.0,343.0,125.0,356.0,130.0,349.5,119.0,344.0,125.0,343.5" stroke="orange" stroke-width="1" fill="none" />
<polyline points="137.0,336.5,135.5,338.5,111.0,346.5,112.5,336.0,129.5,353.0,122.5,357.0,108.0,364.0,131.0,372.5,117.0,373.5,115.5,389.0,114.0,380.5,116.0,387.0,109.5,391.5,118.5,390.5,114.5,393.5,126.0,401.0,116.5,414.5,120.0,400.0,89.0,408.5,123.0,404.0,112.5,415.5,115.5,403.5,122.5,400.5" stroke="black" stroke-width="1" fill="none" />
<polyline points="116.0,415.0,114.5,417.0,120.5,411.0" stroke="green" stroke-width="1" fill="none" />
<polyline points="126.0,419.5,120.0,435.0,119.5,422.5,113.5,428.0,115.0,425.5" stroke="black" stroke-width="1" fill="none" />
<polyline points="" stroke="yellow" stroke-width="1" fill="none" />
<polyline points="123.0,418.5" stroke="orange" stroke-width="1" fill="none" />
<polyline points="127.5,428.5,125.0,425.0,128.5,420.0,128.0,457.5,103.0,467.5,107.5,426.5,124.5,445.0,133.0,441.0" stroke="green" stroke-width="1" fill="none" />
<polyline points="129.0,452.0,130.0,453.5,118.0,452.5,123.0,446.0,126.5,445.5,124.0,434.5,123.0,428.0" stroke="yellow" stroke-width="1" fill="none" />
<polyline points="" stroke="yellow" stroke-width="1" fill="none" />
<polyline points="118.0,449.5,131.5,454.0,128.5,437.0,127.5,445.5,133.5,447.5" stroke="black" stroke-width="1" fill="none" />
<polyline points="123.5,433.0,113.5,451.0,119.0,436.5" stroke="black" stroke-width="1" fill="none" />
<polyline points="103.5,430.5,112.0,434.5" stroke="green" stroke-width="1" fill="none" />
<polyline points="94.5,445.5,77.5,448.5,96.5,471.5,86.0,476.5,82.0,478.5,92.5,480.5" stroke="green" stroke-width="1" fill="none" />
<polyline points="94.5,470.0,105.5,465.5,95.0,466.0,99.0,454.0,113.5,471.0,102.5,462.5,107.5,459.0,108.5,462.0,105.5,461.5" stroke="green" stroke-width="1" fill="none" />
<polyline points="109.5,462.0,92.0,482.0" stroke="yellow" stroke-width="1" fill="none" />
<polyline points="103.0,508.0,102.0,511.0,109.5,511.5,110.0,513.0,90.5,510.0,102.5,515.0" stroke="orange" stroke-width="1" fill="none" />
<polyline points="115.0,507.5,108.0,489.0,112.5,492.0,118.5,495.5,114.0,509.5" stroke="black" stroke-width="1" fill="none" />
<polyline points="" stroke="black" stroke-width="1" fill="none" />
<polyline points="" stroke="green" stroke-width="1" fill="none" />
<polyline points="93.0,499.0,97.5,498.0,90.0,501.0,104.5,480.0,104.0,503.0,93.5,494.0,90.0,476.0,106.5,506.0,95.0,515.5,106.5,508.0" stroke="yellow" stroke-width="1" fill="none" />
<polyline points="101.0,506.5,101.5,503.5,110.0,514.5,122.0,503.5,139.0,497.5,120.0,488.0" stroke="green" stroke-width="1" fill="none" />
<polyline points="147.0,482.5,140.5,490.0,115.5,503.5" stroke="orange" stroke-width="1" fill="none" />
<polyline points="143.5,446.0,147.0,453.0,150.0,453.0,151.5,435.0,142.0,443.5,160.5,456.0,138.5,418.0,125.5,431.5,129.0,407.5,134.0,409.5" stroke="black" stroke-width="1" fill="none" />
<polyline points="137.5,430.5,146.5,420.5,145.0,434.5,138.5,459.0,143.5,436.5,139.0,455.0,131.5,444.5,150.0,441.0,118.5,442.0,134.0,482.5,138.5,465.5" stroke="black" stroke-width="1" fill="none" />
<polyline points="138.5,410.0,145.5,415.5,127.0,422.0,124.0,417.5" stroke="black" stroke-width="1" fill="none" />
<polyline points="129.5,427.5,128.0,423.0" stroke="green" stroke-width="1" fill="none" />
<polyline points="99.5,403.5,101.0,404.5,99.5,411.0" stroke="black" stroke-width="1" fill="none" />
<polyline points="97.5,436.5,110.0,416.5,99.0,418.0,105.5,417.0" stroke="yellow" stroke-width="1" fill="none" />
<polyline points="103.5,427.0,99.5,427.0,112.0,426.5,112.5,440.5" stroke="black" stroke-width="1" fill="none" />
<polyline points="90.5,440.0,96.0,436.0,97.5,437.0,82.5,458.0,90.5,448.5,101.0,431.0,91.5,459.0,99.0,421.0,75.0,430.5,88.0,418.5,104.0,435.0,102.0,426.0,101.5,421.0,105.0,416.5,108.0,407.0,104.0,407.5,92.0,402.0,89.0,399.0,93.5,398.0" stroke="orange" stroke-width="1" fill="none" />
<polyline points="80.0,405.0,89.0,419.5,104.5,420.5,103.0,427.0" stroke="yellow" stroke-width="1" fill="none" />
<polyline points="76.0,413.5,74.0,411.0,87.5,431.0" stroke="black" stroke-width="1" fill="none" />
<polyline points="" stroke="green" stroke-width="1" fill="none" />
<polyline points="" stroke="green" stroke-width="1" fill="none" />
<polyline points="" stroke="yellow" stroke-width="1" fill="none" />
<polyline points="92.5,404.0,91.5,417.5,99.0,406.5,90.5,392.5,96.0,382.5" stroke="orange" stroke-width="1" fill="none" />
<polyline points="68.0,384.5,85.0,397.0,63.5,402.0,71.5,398.0,59.5,427.0,68.5,415.0,73.5,421.5,72.0,401.0,68.5,411.5,57.0,428.0,64.0,409.0,57.0,422.0,75.5,432.5,73.0,431.5,70.0,422.0,86.0,439.0,59.5,447.5,70.5,447.5,67.5,444.5,60.0,466.0,79.0,470.5,59.5,468.5,69.5,468.0,69.0,470.0,67.0,475.5,54.5,488.5,60.5,494.0,43.5,507.0,66.0,516.5,66.0,507.0,71.0,508.5,54.5,512.5,58.5,510.0,50.5,504.0,42.0,511.0" stroke="black" stroke-width="1" fill="none" />
<polyline points="60.5,507.5,73.0,491.0,46.5,516.0,73.0,512.0" stroke="black" stroke-width="1" fill="none" />
<polyline points="63.0,492.5,84.5,509.5,86.0,478.0" stroke="orange" stroke-width="1" fill="none" />
<polyline points="63.5,484.5,83.0,464.0,59.5,467.0,63.5,477.0,50.0,480.5,60.0,469.0,54.5,500.0,91.5,505.0,68.0,488.0,67.0,485.5,59.0,484.5,55.0,486.0" stroke="orange" stroke-width="1" fill="none" />
<polyline points="71.0,451.5,68.5,439.5,54.0,448.0,77.0,469.0,77.0,465.0" stroke="green" stroke-width="1" fill="none" />
<polyline points="63.5,466.5,64.5,471.0,67.5,462.5,75.5,477.0,76.0,495.5,75.0,472.0,83.5,460.0" stroke="yellow" stroke-width="1" fill="none" />
<polyline points="" stroke="green" stroke-width="1" fill="none" />
<polyline points="59.5,458.0,65.5,470.0,69.5,485.5,55.5,460.5,50.5,458.5,59.0,468.0,58.5,468.0" stroke="green" stroke-width="1" fill="none" />
<polyline points="12.0,484.0,18.0,481.5,32.5,482.5,21.5,498.5,18.0,502.5,24.0,512.0,31.0,504.0,29.0,502.5,25.5,499.0" stroke="green" stroke-width="1" fill="none" />
<polyline points="8.0,495.5,-4.0,510.0,23.0,509.5,20.5,526.5,6.5,493.5,17.0,513.5,12.5,502.5,0.0,490.5,15.5,500.0" stroke="orange" stroke-width="1" fill="none" />
<polyline points="11.5,502.0,19.0,496.0,12.0,502.5,26.0,491.0,25.5,507.5,21.0,505.0,31.5,489.0" stroke="black" stroke-width="1" fill="none" />
<polyline points="14.0,423.5,13.0,427.5" stroke="black" stroke-width="1" fill="none" />
<polyline points="21.5,411.0,7.5,427.5,16.0,426.5,13.5,463.0,16.0,440.0,11.0,440.0,11.5,455.0,11.0,438.0,38.5,461.5,27.0,446.0,22.5,474.0,2.5,471.0,-6.0,454.5,3.5,479.5,14.0,477.5,2.5,476.0,-4.0,480.0" stroke="green" stroke-width="1" fill="none" />
<polyline points="34.5,458.5,29.0,474.5,26.5,456.5,36.5,443.5,32.0,454.5,50.0,444.0,40.0,423.5" stroke="green" stroke-width="1" fill="none" />
<polyline points="18.5,415.0,27.5,416.0,28.5,436.0,17.0,417.0,28.0,422.0" stroke="yellow" stroke-width="1" fill="none" />
<polyline points="36.0,402.0,12.0,416.0,37.0,424.5,23.5,437.5,26.0,418.0,36.5,425.5,24.0,427.0,26.5,449.5,27.5,439.5,9.5,439.5,12.0,464.5,24.5,444.5,38.0,466.0,24.5,465.5,28.0,462.5,23.5,470.0,36.0,469.0,35.0,461.5,31.5,476.5,35.5,473.5,37.5,491.0,27.5,481.5,31.0,484.5,35.0,494.0,27.5,495.0,30.0,505.5,32.0,492.5,19.0,488.0,15.0,481.0" stroke="yellow" stroke-width="1" fill="none" />
<polyline points="" stroke="black" stroke-width="1" fill="none" />
<polyline points="84.0,422.0,95.0,423.5,91.5,425.0,85.5,424.0,69.5,417.0,66.5,436.0,43.5,425.0,80.0,420.0,67.0,414.5,75.0,416.5,76.5,405.5,69.0,391.5,77.0,407.0,72.0,413.5,74.5,414.0" stroke="yellow" stroke-width="1" fill="none" />
<polyline points="87.0,421.0,86.5,416.5,75.5,410.5" stroke="green" stroke-width="1" fill="none" />
<polyline points="71.0,387.5,69.5,389.5,70.0,397.0,59.5,406.0,66.5,399.0,59.0,390.5,59.5,403.0" stroke="green" stroke-width="1" fill="none" />
<polyline points="48.0,406.5,60.0,411.0,55.5,415.0,64.0,418.5,51.5,426.5" stroke="yellow" stroke-width="1" fill="none" />
<polyline points="92.0,420.5,80.5,431.5" stroke="yellow" stroke-width="1" fill="none" />
<polyline points="117.5,456.5,114.5,435.5,113.0,441.5,108.0,429.5,109.0,445.5,107.5,442.0" stroke="yellow" stroke-width="1" fill="none" />
<polyline points="90.5,393.5,93.0,392.0,110.5,401.5,125.5,410.0,119.5,415.5,107.5,407.0" stroke="black" stroke-width="1" fill="none" />
<polyline points="96.5,404.0,108.0,397.5,110.0,414.5,107.5,418.0" stroke="yellow" stroke-width="1" fill="none" />
<polyline points="101.0,396.5,112.0,399.0" stroke="orange" stroke-width="1" fill="none" />
<polyline points="101.0,355.0,99.5,366.0,90.5,367.0,121.0,377.5,119.0,374.0,93.5,373.5,100.5,375.0,110.5,371.0,110.0,357.0,115.5,354.0,122.5,338.0,108.5,342.5,109.0,340.5,118.0,335.0,106.0,340.5,97.0,344.0" stroke="orange" stroke-width="1" fill="none" />
<polyline points="101.0,342.0,104.0,352.5,97.5,337.0,110.0,356.5" stroke="black" stroke-width="1" fill="none" />
<polyline points="122.0,326.0,113.5,318.5,134.5,329.0,134.5,327.5,123.5,315.5" stroke="yellow" stroke-width="1" fill="none" />
<polyline points="104.0,311.5,109.5,314.5,111.5,319.0,112.0,315.5,107.5,319.5,113.5,305.0,101.0,300.0,132.5,313.5,111.0,301.5,106.0,327.0,107.0,306.5,109.0,323.0,112.5,334.0,112.5,311.0,95.0,326.5,112.5,328.0,109.0,319.5,96.0,310.0,97.0,317.0,92.0,313.5" stroke="orange" stroke-width="1" fill="none" />
<polyline points="110.5,321.0,108.5,329.5,116.0,328.0" stroke="yellow" stroke-width="1" fill="none" />
<polyline points="" stroke="orange" stroke-width="1" fill="none" />
<polyline points="95.0,348.0,97.0,357.0,93.5,362.5,117.0,369.5,92.5,374.0,91.5,364.5,106.0,378.5,100.0,370.5,100.5,371.0,83.5,388.5,82.5,401.0,94.5,397.0,102.5,411.0,97.5,407.5,105.5,401.0,100.0,420.0,87.0,414.0,115.0,403.5,91.0,415.5,108.0,426.0,107.0,405.0" stroke="black" stroke-width="1" fill="none" />
<polyline points="118.5,367.5,124.0,373.5,112.0,362.5" stroke="black" stroke-width="1" fill="none" />
<polyline points="135.5,368.5,134.5,369.0,134.5,373.5,132.0,375.0,106.5,369.0,117.5,375.5,113.5,389.5,134.5,372.0,121.5,369.0,118.5,390.0,135.5,402.0,134.5,394.0" stroke="orange" stroke-width="1" fill="none" />
<polyline points="118.0,370.0,130.5,383.5,117.5,358.0,126.0,374.0,115.0,371.0,103.0,365.5,120.5,374.0,116.5,372.5" stroke="orange" stroke-width="1" fill="none" />
<polyline points="114.5,381.5,119.5,373.0,122.0,375.0,115.5,395.0,130.0,377.0,137.0,379.5,126.5,382.0" stroke="green" stroke-width="1" fill="none" />
<polyline points="124.0,366.0,126.5,351.0,129.5,356.0,135.5,353.0" stroke="yellow" stroke-width="1" fill="none" />
<polyline points="136.0,348.5,128.0,358.5,125.0,355.5,129.5,372.5,138.0,375.0,141.0,334.5,131.5,379.5,112.5,362.0,126.0,370.0,137.5,364.5,147.5,369.5,138.0,380.0,146.0,375.5,155.5,382.5" stroke="green" stroke-width="1" fill="none" />
<polyline points="158.5,344.0,155.5,344.0,171.0,351.5,172.0,366.0,168.5,374.5,174.5,340.0,167.5,332.0,173.0,320.5,177.0,333.5,180.0,336.5,179.5,326.0" stroke="black" stroke-width="1" fill="none" />
<polyline points="174.5,331.0,165.0,323.0,185.5,322.5,174.0,342.0,171.5,312.0,177.5,327.0,183.5,332.0,182.0,334.5,180.5,368.0,156.0,356.5,154.0,372.0,151.5,363.5,156.0,370.5,180.0,358.0,164.5,363.0,185.0,346.5,188.0,348.0,181.0,335.0,192.5,332.0,179.5,329.5,187.0,344.0,187.5,341.0,187.0,340.0" stroke="orange" stroke-width="1" fill="none" />
<polyline points="186.5,356.0,179.0,369.5,195.0,339.0,203.5,360.0,198.5,351.0" stroke="yellow" stroke-width="1" fill="none" />
<polyline points="214.0,365.0,212.0,367.5,212.5,347.5,185.0,359.5,192.5,355.0,188.5,354.5,192.0,350.5" stroke="black" stroke-width="1" fill="none" />
<polyline points="" stroke="yellow" stroke-width="1" fill="none" />
<polyline points="188.5,349.5,192.5,351.0,172.5,355.0,141.5,359.5,161.0,368.0,190.5,338.5,165.5,366.0,172.5,355.0,164.5,337.0,158.5,352.0,184.0,348.5,173.5,348.0,184.0,341.0,194.5,315.5,183.0,353.0,172.5,320.0,144.5,348.5,168.0,321.0,169.0,328.0,163.5,330.5,165.0,321.5,164.5,327.5" stroke="black" stroke-width="1" fill="none" />
<polyline points="160.0,319.5,149.0,323.5,181.0,328.5" stroke="orange" stroke-width="1" fill="none" />
<polyline points="" stroke="green" stroke-width="1" fill="none" />
<polyline points="164.0,332.5,161.0,330.5,166.5,324.5,162.5,325.0,160.5,329.5,152.5,342.0,173.0,345.5,140.5,324.5,152.5,347.5,142.0,340.0,136.0,337.5,141.5,332.0,139.0,323.0,141.5,334.0,138.0,323.0,119.0,327.0,143.5,311.0,135.0,287.5,131.5,316.5,129.0,300.0,121.5,285.0,131.0,283.5,132.5,293.5,137.0,290.0,143.0,285.0,139.5,283.5,127.5,267.5,126.5,283.5,129.0,290.5,146.5,285.5,143.5,281.0,123.5,280.5,146.5,277.5,147.0,265.0,173.5,249.5,159.0,245.0,159.0,239.0,146.0,232.0,162.0,250.0,164.5,251.0,167.5,249.5,148.5,252.5,150.5,252.0,142.0,241.0" stroke="green" stroke-width="1" fill="none" />
<polyline points="150.5,240.0,145.5,246.5,139.0,251.0" stroke="yellow" stroke-width="1" fill="none" />
<polyline points="" stroke="green" stroke-width="1" fill="none" />
<polyline points="132.0,247.0,150.0,249.0,149.5,264.0,126.0,260.5" stroke="yellow" stroke-width="1" fill="none" />
<polyline points="139.0,248.0,141.5,246.5,160.0,273.0,152.5,254.5,176.0,247.5,157.0,251.0,162.0,259.0,159.5,258.5,155.5,269.0,153.5,272.0,140.0,268.0,136.0,273.0,144.5,288.5,137.0,271.0,147.5,280.5,154.5,281.0,154.0,295.0,161.0,308.0,147.5,309.5,165.5,309.5,145.5,307.5,140.0,334.5,133.0,327.5,172.5,312.5,172.0,317.5,181.0,298.0,171.5,320.5,189.5,318.0,173.5,316.0,184.5,288.0,172.5,309.0,180.0,296.5" stroke="green" stroke-width="1" fill="none" />
<polyline points="" stroke="orange" stroke-width="1" fill="none" />
<polyline points="" stroke="green" stroke-width="1" fill="none" />
<polyline points="" stroke="yellow" stroke-width="1" fill="none" />
<polyline points="" stroke="yellow" stroke-width="1" fill="none" />
<polyline points="175.5,311.0,166.5,289.5,193.5,288.5,154.5,282.0,167.5,299.5,158.0,287.0,165.0,297.5,155.5,302.0,190.5,292.5,171.0,281.0,176.5,277.5,170.5,271.5,187.5,268.0,184.5,270.0,164.5,277.0,171.5,299.0,151.0,285.0,147.0,284.5,170.5,273.5,147.5,278.5,168.0,293.0,164.0,271.5,162.5,243.5,163.0,262.5,160.0,260.5,175.0,233.5,180.0,243.5,182.0,236.5,175.5,244.0,173.0,238.0" stroke="green" stroke-width="1" fill="none" />
<polyline points="189.5,233.5,180.5,256.5,172.5,245.5,193.5,236.5,163.5,245.5,167.5,249.0" stroke="yellow" stroke-width="1" fill="none" />
<polyline points="196.0,257.0,195.5,251.0,190.5,259.5,192.0,257.5,188.0,258.5,224.5,271.0" stroke="yellow" stroke-width="1" fill="none" />
<polyline points="211.5,273.0,211.5,278.0,213.0,282.5,228.0,251.5,219.5,261.5,208.5,270.5,224.0,268.5" stroke="green" stroke-width="1" fill="none" />
<polyline points="219.5,320.0,218.0,316.0,219.0,311.0,208.0,315.0,214.0,330.5,228.5,326.5,205.5,332.0,211.0,329.5,191.5,342.0,218.5,355.0,216.5,339.0,229.5,333.5,211.0,363.5,229.5,348.5,224.0,348.5" stroke="black" stroke-width="1" fill="none" />
<polyline points="248.5,390.5,252.5,392.5,245.5,389.0" stroke="black" stroke-width="1" fill="none" />
<polyline points="253.5,401.0,246.0,394.0,258.0,397.0" stroke="green" stroke-width="1" fill="none" />
<polyline points="264.0,365.0,263.5,357.0,255.5,365.5,276.0,363.0,280.5,341.0,289.0,345.0" stroke="black" stroke-width="1" fill="none" />
<polyline points="280.0,348.0,282.5,348.0,283.5,348.5,264.0,347.0,268.5,353.5,255.5,342.5,265.5,348.5" stroke="yellow" stroke-width="1" fill="none" />
<polyline points="227.0,365.5,227.5,347.0,222.5,358.0,210.0,351.0,215.0,328.0,217.0,332.0,222.0,345.5,227.0,344.0,229.0,338.0,218.0,333.0,208.5,313.5,223.5,316.0,221.5,314.5" stroke="yellow" stroke-width="1" fill="none" />
<polyline points="190.0,316.0,178.5,310.5,177.5,290.0,170.5,303.5,186.0,316.0" stroke="green" stroke-width="1" fill="none" />
<polyline points="171.5,306.5,167.0,294.5,163.0,310.5,166.5,314.5,178.0,314.5,158.0,334.5,155.0,334.5" stroke="black" stroke-width="1" fill="none" />
<polyline points="" stroke="green" stroke-width="1" fill="none" />
<polyline points="" stroke="orange" stroke-width="1" fill="none" />
<polyline points="" stroke="green" stroke-width="1" fill="none" />
<polyline points="" stroke="yellow" stroke-width="1" fill="none" />
<polyline points="" stroke="green" stroke-width="1" fill="none" />
<polyline points="162.0,286.5,163.0,291.0,152.5,297.0,154.5,294.0" stroke="black" stroke-width="1" fill="none" />
<polyline points="140.5,294.0,141.0,299.5,158.5,283.5,169.0,308.5,164.5,298.0,162.0,306.0,165.0,304.5" stroke="yellow" stroke-width="1" fill="none" />
<polyline points="" stroke="orange" stroke-width="1" fill="none" />
<polyline points="168.5,303.0,181.5,322.5,175.5,302.5,173.0,292.5,169.0,325.5,165.0,283.0,166.0,306.0,163.5,298.0,174.5,297.5" stroke="orange" stroke-width="1" fill="none" />
<polyline points="181.0,284.5,182.5,285.0,173.5,294.0,175.0,282.5,161.0,304.5,167.5,296.5,169.0,289.0,166.5,283.5" stroke="black" stroke-width="1" fill="none" />
<polyline points="152.0,295.0,151.5,295.0,154.5,294.5,164.0,287.0,160.5,299.0,163.5,297.0,158.5,281.5" stroke="green" stroke-width="1" fill="none" />
<polyline points="153.0,309.5,174.0,302.5,170.0,319.5,154.0,314.0,152.5,329.0,153.0,316.5,170.0,326.5,161.5,326.0,158.0,341.0,169.0,328.0,174.0,335.5,150.0,350.5,141.0,351.5,147.5,355.0,150.0,360.5,138.0,357.5,147.0,349.0,163.5,359.0,173.0,361.5,161.0,351.0,150.0,343.0,173.0,349.5,166.0,351.5,166.0,347.5,178.0,351.5,179.0,353.0,172.5,359.0" stroke="orange" stroke-width="1" fill="none" />
<polyline points="" stroke="orange" stroke-width="1" fill="none" />
<polyline points="160.5,265.5,157.0,268.0,161.0,246.5,164.0,276.0,147.5,277.0" stroke="orange" stroke-width="1" fill="none" />
<polyline points="172.0,256.0,163.0,269.0,171.5,262.0,174.5,246.5,168.5,265.5,179.0,277.0,167.5,273.5,161.5,267.0,166.5,255.5" stroke="yellow" stroke-width="1" fill="none" />
<polyline points="140.5,293.5,141.0,297.0,172.5,278.5,165.5,274.0" stroke="orange" stroke-width="1" fill="none" />
<polyline points="166.0,285.0,160.0,281.0,150.0,279.0,153.0,297.5,177.0,305.5,173.5,292.5,177.0,281.5,167.5,297.0,179.5,297.5" stroke="green" stroke-width="1" fill="none" />
<polyline points="163.5,272.0,164.0,283.0,175.0,290.5" stroke="yellow" stroke-width="1" fill="none" />
<polyline points="" stroke="orange" stroke-width="1" fill="none" />
<polyline points="173.0,289.5,167.5,285.0,158.0,277.5,159.5,284.5,151.5,288.0,146.5,281.5,154.0,282.5,141.5,280.5,164.0,279.5,149.0,256.5,165.5,258.0,156.5,253.5,149.0,248.5,160.0,253.0,169.5,244.0,163.0,247.5,142.0,266.5,157.5,243.5,176.5,244.0,140.5,253.5,152.0,264.0,144.5,250.0,141.5,260.5,128.0,271.5,138.5,261.0,153.5,270.0,138.0,262.5,133.0,251.0,144.0,254.5,152.0,252.5,132.0,275.0,135.5,261.5,125.5,246.5,128.0,238.0,110.5,229.5,128.0,259.5,146.0,239.0,119.0,229.0,127.5,252.5,125.5,242.0,128.5,232.0,138.5,233.5,144.5,215.5,135.0,231.0,128.5,210.5,111.5,202.0,123.5,197.5,115.0,200.5,113.5,201.0,123.5,179.5,105.5,179.0,127.5,178.0,125.0,169.5,105.0,162.5,121.0,164.5,114.0,155.0,120.0,179.0,117.5,151.5,113.5,169.0,115.5,118.5,124.5,147.5,122.5,150.5,107.0,138.5,125.5,121.0,119.5,140.5,121.0,106.5,124.0,110.0,141.0,125.5,117.5,104.5,135.5,116.0,134.0,110.0,143.0,96.0,120.0,101.5,143.0,96.0,139.0,98.5,135.5,97.5" stroke="yellow" stroke-width="1" fill="none" />
<polyline points="122.5,123.5,145.5,121.0,128.0,113.0,148.5,115.0,138.0,120.5,128.0,121.5,117.0,116.0,115.5,128.0,143.5,137.5,115.5,135.0,131.5,140.0,145.0,146.5,128.0,140.0,130.0,163.0,119.0,136.5,141.5,149.0,155.0,160.0,145.0,159.5,131.0,160.5,122.5,162.0,137.0,147.5,136.0,147.0,141.5,152.5,138.5,154.0" stroke="green" stroke-width="1" fill="none" />
<polyline points="125.5,149.0,124.0,147.5,130.0,160.0,148.5,150.5,118.0,166.0,127.5,162.0,133.0,156.0,125.0,159.5,134.0,149.5,133.5,157.0,132.5,150.5,128.5,147.0" stroke="yellow" stroke-width="1" fill="none" />
<polyline points="141.0,150.0,123.5,166.5,149.5,184.0,128.5,161.0,130.0,175.0,142.5,175.5,131.5,180.5,121.0,163.0,126.5,158.0" stroke="yellow" stroke-width="1" fill="none" />
<polyline points="148.5,170.5,148.5,165.5,146.5,176.5,143.5,158.5,149.5,175.0,138.0,157.5,148.0,173.0,132.0,171.0,138.0,180.0,126.0,175.5,140.0,166.5" stroke="black" stroke-width="1" fill="none" />
<polyline points="130.5,169.5,136.0,160.0,134.0,162.0,129.5,150.0,136.5,156.0,140.0,158.5" stroke="black" stroke-width="1" fill="none" />
<polyline points="132.0,188.0,140.5,189.5" stroke="black" stroke-width="1" fill="none" />
<polyline points="144.5,174.5,146.0,176.0,141.0,195.5,125.0,188.0,128.0,194.0,143.0,208.5" stroke="green" stroke-width="1" fill="none" />
<polyline points="160.0,199.0,142.5,189.0" stroke="green" stroke-width="1" fill="none" />
<polyline points="143.5,201.5,143.0,213.5" stroke="black" stroke-width="1" fill="none" />
<polyline points="132.0,196.5,133.5,198.5,153.0,197.5,157.0,195.5" stroke="yellow" stroke-width="1" fill="none" />
<polyline points="158.5,212.5,155.0,209.5,158.0,198.0,138.5,187.0,143.5,205.5,143.0,208.0,121.5,181.0,138.5,191.5,130.0,180.0,165.0,163.0,154.5,174.0" stroke="black" stroke-width="1" fill="none" />
<polyline points="151.0,173.5,151.0,174.0,148.0,169.5,138.5,197.5,134.0,183.5,143.5,192.0,150.5,182.5,151.5,183.0" stroke="yellow" stroke-width="1" fill="none" />
<polyline points="143.0,180.0,140.0,179.5,144.0,188.0,138.0,185.0,145.0,171.0,132.5,186.0" stroke="green" stroke-width="1" fill="none" />
<polyline points="161.5,168.0,170.5,178.5,167.0,173.0,182.0,164.0,164.0,170.0,174.0,153.0,162.5,126.5,186.5,170.0,199.0,166.5" stroke="black" stroke-width="1" fill="none" />
<polyline points="208.0,152.5,215.5,145.0,209.5,158.5,212.5,162.5" stroke="orange" stroke-width="1" fill="none" />
<polyline points="235.5,157.0,223.0,153.5,200.5,147.0,204.5,141.5" stroke="orange" stroke-width="1" fill="none" />
<polyline points="" stroke="green" stroke-width="1" fill="none" />
<polyline points="234.5,166.5,229.0,168.5,231.5,172.5,221.5,190.5,225.0,175.0,237.0,180.5,227.5,195.0,221.5,200.5,215.0,195.5" stroke="black" stroke-width="1" fill="none" />
<polyline points="198.5,192.5,190.5,187.0,220.0,175.5,215.5,168.5,200.0,158.0,210.0,170.5,224.0,172.5,231.0,163.0,249.5,167.5,243.0,170.5,241.0,176.0,237.0,179.0" stroke="black" stroke-width="1" fill="none" />
<polyline points="226.5,180.5,221.5,189.0,211.0,190.5,209.0,203.5,209.0,217.0,204.0,211.0,199.5,194.0,192.5,228.5,204.5,226.5,215.5,222.0" stroke="yellow" stroke-width="1" fill="none" />
<polyline points="215.0,227.0,222.0,219.0,217.5,218.0,217.0,200.0,220.5,190.0,216.0,199.5" stroke="green" stroke-width="1" fill="none" />
<polyline points="215.0,196.0,227.0,193.0,205.5,193.0,214.0,211.0,204.5,222.0,193.5,216.0,219.5,189.5,209.0,213.5,214.5,177.5,227.0,188.5,224.0,182.0" stroke="green" stroke-width="1" fill="none" />
<polyline points="" stroke="orange" stroke-width="1" fill="none" />
<polyline points="227.5,179.0,222.5,185.0,221.5,181.0,230.0,196.5,225.0,186.0,232.5,182.5" stroke="yellow" stroke-width="1" fill="none" />
<polyline points="224.0,203.0,206.0,196.5,199.0,190.0,200.5,195.5,200.0,201.5" stroke="yellow" stroke-width="1" fill="none" />
<polyline points="" stroke="yellow" stroke-width="1" fill="none" />
<polyline points="189.5,193.5,191.5,201.5,202.5,190.0,210.0,194.5,211.0,196.5,213.5,193.5,218.0,190.5" stroke="orange" stroke-width="1" fill="none" />
<polyline points="208.0,210.5,210.0,203.0,181.5,178.5,187.5,190.5,191.5,204.0,181.5,202.5,179.5,210.5,190.5,212.0,181.0,193.5,181.0,201.5,197.5,200.5,200.0,187.5,199.0,201.5,198.0,206.5,197.5,206.0,205.5,218.5" stroke="orange" stroke-width="1" fill="none" />
<polyline points="191.5,200.5" stroke="orange" stroke-width="1" fill="none" />
<polyline points="200.0,217.0,177.5,192.5,173.0,211.0,195.0,218.0,198.0,224.5,176.5,226.5,193.0,207.5,187.0,195.0,196.0,210.0,183.5,216.0,166.0,218.0" stroke="green" stroke-width="1" fill="none" />
<polyline points="" stroke="yellow" stroke-width="1" fill="none" />
<polyline points="" stroke="green" stroke-width="1" fill="none" />
<polyline points="" stroke="green" stroke-width="1" fill="none" />
<polyline points="179.0,210.5,176.0,218.5,174.0,209.0,182.5,211.5,174.5,219.0,166.0,227.0,171.0,212.5,160.5,223.5,169.5,214.5,177.0,215.5,182.0,223.0" stroke="orange" stroke-width="1" fill="none" />
<polyline points="179.0,218.5,180.5,210.5,187.0,211.0" stroke="green" stroke-width="1" fill="none" />
<polyline points="185.0,233.5,183.0,236.5,187.5,236.5,155.5,235.0,165.5,253.0" stroke="orange" stroke-width="1" fill="none" />
<polyline points="146.0,271.5,145.5,248.0,140.0,264.0,147.0,273.5,122.5,276.0,110.0,262.0" stroke="black" stroke-width="1" fill="none" />
<polyline points="" stroke="orange" stroke-width="1" fill="none" />
<polyline points="108.5,294.0,113.0,273.5,126.5,281.0,126.5,294.5,106.0,292.0,95.0,326.5,92.5,307.0,103.0,304.5,87.0,317.5,90.0,340.0,83.5,320.5,75.5,322.5,101.5,315.5,83.0,330.0,109.0,324.0,79.0,349.0,87.0,335.0,62.5,354.5,57.0,352.0,60.5,353.5,61.5,363.5,78.0,367.5,84.5,348.5,78.5,351.0,81.0,354.5,61.0,331.0" stroke="black" stroke-width="1" fill="none" />
<polyline points="96.5,305.5,91.5,301.5,109.5,323.0,93.5,336.5,75.5,329.0,85.5,368.0,86.0,349.0,83.5,370.0,72.5,333.0,50.0,335.5,47.5,357.5,60.5,351.0,57.5,354.5,56.0,358.5,59.0,357.5,92.0,357.5,75.5,329.0,85.0,332.0,80.5,343.0,68.0,337.0,113.5,345.5,90.5,350.5,65.5,342.0,83.0,353.0,90.5,368.0,69.0,362.5,65.0,374.5,66.5,347.5,71.0,353.0,98.0,362.5,104.0,364.0,96.5,351.0,94.0,346.5" stroke="orange" stroke-width="1" fill="none" />
<polyline points="104.5,365.5,109.0,374.5,94.0,368.5,83.5,369.0,99.0,371.5,101.5,373.5" stroke="green" stroke-width="1" fill="none" />
<polyline points="99.5,342.5,105.5,341.5,110.0,362.0,118.0,345.5,125.5,344.5,136.0,345.0" stroke="yellow" stroke-width="1" fill="none" />
<polyline points="110.5,355.0,111.5,354.0,108.5,362.0,127.0,359.0,108.0,358.0,125.5,361.0,105.0,356.5,120.5,369.5,105.0,375.0,102.5,366.5" stroke="orange" stroke-width="1" fill="none" />
<polyline points="116.0,370.5" stroke="orange" stroke-width="1" fill="none" />
<polyline points="127.0,354.5,131.0,360.5,130.5,363.5" stroke="yellow" stroke-width="1" fill="none" />
<polyline points="" stroke="green" stroke-width="1" fill="none" />
<polyline points="95.0,350.0,85.5,349.5,87.0,336.0,86.5,347.5,84.0,341.5,92.0,359.0,70.5,366.0,61.5,365.5,73.0,355.0,80.0,366.0" stroke="green" stroke-width="1" fill="none" />
<polyline points="76.0,392.0,72.5,393.0,61.0,385.5,81.0,385.5,70.5,401.5,71.5,411.5,60.0,399.5,76.0,400.0,55.0,402.0,78.5,398.0,69.5,404.5,76.5,369.0,81.0,379.0,75.0,381.0,79.0,403.0,78.0,393.0,63.0,387.0,50.5,408.0,78.0,394.5,59.0,392.5,70.0,378.0,67.5,369.5,82.0,394.5,89.0,387.0,93.0,398.0,82.5,359.5,89.5,360.5,91.0,380.0,80.5,345.5,114.0,345.5,93.0,355.0,96.0,362.0,101.0,343.5,93.5,341.5,91.5,348.5,91.5,354.5,81.5,349.0,102.5,326.5,105.5,333.0,97.0,334.5,84.5,311.5,105.5,324.0,114.5,316.5,107.5,317.0,100.0,316.0,121.0,298.0,92.0,303.0,104.0,302.0,114.0,321.0,94.0,310.0,104.5,309.5,90.5,316.0,91.5,324.5" stroke="black" stroke-width="1" fill="none" />
<polyline points="" stroke="green" stroke-width="1" fill="none" />
<polyline points="78.5,309.0,90.5,309.5,102.5,297.0,102.0,280.0" stroke="black" stroke-width="1" fill="none" />
<polyline points="94.0,289.5,93.5,291.0,101.0,283.5,92.5,302.0,96.5,300.0,104.5,294.0,102.5,294.0,93.5,299.0,99.0,295.0,86.0,298.0,91.5,300.0,93.5,295.5" stroke="yellow" stroke-width="1" fill="none" />
<polyline points="81.5,293.0,72.5,281.5,84.0,289.0,78.5,301.5,82.0,303.5,87.0,298.5,97.5,286.0,93.0,292.5,99.5,291.0,104.5,292.5,124.0,289.5,113.5,289.0,104.0,288.5" stroke="yellow" stroke-width="1" fill="none" />
<polyline points="104.5,274.0,111.0,286.5,115.0,297.5,116.0,280.0,104.0,267.0,115.5,293.0,124.5,287.0,120.5,271.0,111.0,253.0,109.5,261.0" stroke="orange" stroke-width="1" fill="none" />
<polyline points="122.0,277.0,123.5,273.0,103.0,257.0,104.5,268.5,102.5,260.5,110.0,273.5,92.0,285.0,101.5,269.0,95.5,284.0,93.5,264.0,100.5,272.0" stroke="black" stroke-width="1" fill="none" />
<polyline points="115.5,283.0,118.0,275.5,107.0,274.0,114.0,277.5,92.5,298.0,96.0,297.5,109.5,283.5,103.0,273.5" stroke="black" stroke-width="1" fill="none" />
<polyline points="114.0,279.0,102.0,268.5,110.5,271.0,99.5,269.5,101.5,264.5,105.0,270.5,95.0,266.5,101.0,275.0,93.0,281.0,83.5,309.0,113.5,280.0,97.5,278.5,101.5,285.5,107.5,274.0,99.5,297.5,120.0,284.5,108.0,295.5,114.0,282.0" stroke="yellow" stroke-width="1" fill="none" />
<polyline points="110.0,248.0,118.0,280.5,110.5,279.5,100.0,282.0,96.5,279.0,80.0,298.5,92.0,309.5,85.0,301.5,90.5,306.0,76.5,314.5,65.0,308.0,66.5,335.5,73.0,317.0,94.0,317.5,84.5,324.0,70.5,315.0" stroke="black" stroke-width="1" fill="none" />
<polyline points="" stroke="black" stroke-width="1" fill="none" />
<polyline points="126.5,307.5,114.5,322.0,110.0,314.0,112.5,318.0,115.0,328.5" stroke="green" stroke-width="1" fill="none" />
<polyline points="72.0,321.0,74.0,315.5,80.0,310.5,72.0,311.5,65.0,311.0,61.5,321.5,83.0,324.5,61.0,305.0,81.5,321.0,69.0,319.5" stroke="black" stroke-width="1" fill="none" />
<polyline points="52.5,322.0,55.0,322.5,68.5,325.0" stroke="green" stroke-width="1" fill="none" />
<polyline points="67.5,306.5,72.0,310.0,83.0,312.5,75.0,307.5,95.5,303.0,94.0,300.5,97.0,304.5,92.0,314.5" stroke="yellow" stroke-width="1" fill="none" />
<polyline points="108.0,308.5,112.0,315.0,90.5,320.0,86.0,322.0,95.5,289.0,106.5,307.5,109.0,301.5,111.5,305.5,115.5,308.0,115.0,280.5" stroke="yellow" stroke-width="1" fill="none" />
<polyline points="115.5,302.5,106.5,302.5,102.0,287.0,111.0,286.5,105.0,290.5" stroke="yellow" stroke-width="1" fill="none" />
<polyline points="" stroke="black" stroke-width="1" fill="none" />
<polyline points="101.5,291.5,88.0,279.0,87.0,288.5,83.5,276.0,89.5,275.0,72.5,270.0" stroke="black" stroke-width="1" fill="none" />
<polyline points="100.5,302.5,102.0,309.0,120.0,310.0,90.5,298.0,113.0,299.0,107.5,297.5,102.0,315.0,96.5,330.5,110.0,325.5,111.5,327.5,85.5,344.0,94.0,341.5,105.0,332.5,87.0,342.0,117.0,349.0,95.0,322.0,114.0,325.5,126.0,304.0,122.5,322.5,124.5,303.5,128.5,282.0,108.5,274.0,109.5,271.5" stroke="yellow" stroke-width="1" fill="none" />
<polyline points="114.5,324.0,127.5,328.5,116.0,313.0,129.0,337.0,118.5,341.0" stroke="orange" stroke-width="1" fill="none" />
<polyline points="112.0,320.5,109.5,309.0,113.5,330.5,123.5,331.0,81.0,340.0,106.0,333.0,105.0,351.5,96.0,328.0,96.5,356.0,101.5,360.0,86.0,365.5,88.0,342.5,80.5,352.0,99.5,374.0,89.5,372.0,100.0,360.5,99.5,363.5" stroke="yellow" stroke-width="1" fill="none" />
<polyline points="74.0,384.0,82.5,401.0,94.5,399.0,63.0,381.5,66.0,406.5,87.5,404.0,83.0,412.0,87.5,403.5" stroke="yellow" stroke-width="1" fill="none" />
<polyline points="" stroke="black" stroke-width="1" fill="none" />
<polyline points="133.5,294.0,131.0,295.0,134.0,296.5,132.5,283.5,119.0,296.5,126.0,291.5,119.0,292.5,102.5,299.5,116.5,310.5,107.5,308.0,125.5,322.5,117.5,309.0,109.0,290.5,104.5,318.0,120.5,300.0,109.5,299.0,113.0,283.0,111.5,293.5,144.0,283.5,141.0,283.0,143.5,279.5" stroke="orange" stroke-width="1" fill="none" />
<polyline points="123.0,266.0,142.0,271.0,134.5,279.5" stroke="black" stroke-width="1" fill="none" />
<polyline points="125.0,270.5,121.0,266.0,129.5,254.0,127.5,252.5,128.5,259.5,139.5,242.0" stroke="orange" stroke-width="1" fill="none" />
<polyline points="118.5,246.5,128.0,254.0" stroke="yellow" stroke-width="1" fill="none" />
<polyline points="156.5,264.5,144.5,259.0" stroke="green" stroke-width="1" fill="none" />
<polyline points="135.5,230.5,131.5,240.0,138.5,233.0" stroke="black" stroke-width="1" fill="none" />
<polyline points="" stroke="black" stroke-width="1" fill="none" />
<polyline points="157.5,219.0,166.5,219.0,165.5,218.5,141.5,210.5,145.0,199.0,140.0,191.0,140.0,190.0" stroke="green" stroke-width="1" fill="none" />
<polyline points="164.0,196.5,128.0,192.0,144.0,202.5,138.0,200.5,115.5,189.5,143.5,178.5,147.5,163.5,141.0,195.5,139.5,172.0,138.0,171.5,146.5,172.0" stroke="orange" stroke-width="1" fill="none" />
<polyline points="142.5,184.0,135.5,173.0,146.0,167.5,123.5,170.5" stroke="orange" stroke-width="1" fill="none" />
<polyline points="" stroke="green" stroke-width="1" fill="none" />
<polyline points="147.5,179.5" stroke="green" stroke-width="1" fill="none" />
<polyline points="136.0,208.0,133.0,210.5,158.0,206.0,147.5,211.5,161.0,228.0,161.0,222.5,179.5,212.5" stroke="black" stroke-width="1" fill="none" />
<polyline points="" stroke="green" stroke-width="1" fill="none" />
<polyline points="109.0,245.5,102.0,221.0,125.0,236.0,107.5,217.0,99.0,232.5,100.0,224.0" stroke="yellow" stroke-width="1" fill="none" />
<polyline points="100.0,237.5,113.0,242.0,96.0,230.0" stroke="black" stroke-width="1" fill="none" />
<polyline points="129.5,260.0,117.0,287.0,116.5,254.0,125.5,255.5,131.5,253.5,100.0,259.5,125.5,233.5,124.0,247.5,128.0,239.5,159.0,249.5,154.0,231.0,166.0,215.0" stroke="yellow" stroke-width="1" fill="none" />
<polyline points="134.5,245.5,139.5,237.5,125.5,213.5,146.5,239.0,151.5,247.5,142.0,229.5,145.5,254.5,133.5,258.0,148.5,261.0,150.0,244.0,152.5,260.5,120.5,262.5,144.5,276.5" stroke="orange" stroke-width="1" fill="none" />
<polyline points="150.0,237.5,143.5,242.0,158.0,247.5,147.5,241.0,169.5,244.0" stroke="green" stroke-width="1" fill="none" />
<polyline points="143.0,220.5,138.0,218.5,152.5,229.0,152.0,231.0,155.5,238.0,161.5,214.0,157.5,232.0,151.5,237.0,147.0,230.0" stroke="black" stroke-width="1" fill="none" />
<polyline points="163.5,208.0" stroke="yellow" stroke-width="1" fill="none" />
<polyline points="192.0,230.0,182.5,239.0,180.0,239.5,190.0,230.5,160.5,236.0,159.0,248.5,171.0,240.0,151.5,241.0,144.0,253.5,164.5,246.0,140.0,238.5,147.0,266.5,152.0,260.0,136.0,279.5,136.5,279.0,138.0,276.5,141.5,293.0,132.0,286.5,137.5,297.0,124.5,289.0,129.0,308.0,116.0,328.0,124.5,316.5,141.0,307.0,125.5,294.0,132.5,316.5,129.5,306.0,122.5,316.5,135.0,342.5,140.0,342.5,138.0,367.5,116.0,332.5,140.5,345.0,137.0,354.5,144.5,341.5,133.0,365.5,143.0,374.5,134.0,376.5,149.0,370.5,145.0,367.0,146.5,363.0,143.5,381.5,149.5,388.5,138.5,384.5,143.0,385.5,148.0,408.5,161.5,406.0,151.5,419.0,150.0,411.0,149.0,386.5,161.5,400.5,165.5,410.5,154.0,419.0,165.5,419.0" stroke="yellow" stroke-width="1" fill="none" />
<polyline points="" stroke="black" stroke-width="1" fill="none" />
<polyline points="" stroke="green" stroke-width="1" fill="none" />
<polyline points="" stroke="black" stroke-width="1" fill="none" />
<polyline points="206.5,433.5,207.0,442.5" stroke="green" stroke-width="1" fill="none" />
<polyline points="194.0,402.5,198.5,402.5,185.0,406.5,203.0,374.0,187.5,391.0,182.5,401.0" stroke="black" stroke-width="1" fill="none" />
<polyline points="195.5,386.0,178.5,386.0,182.5,422.0,189.0,420.0,200.5,429.5,177.5,421.5,192.5,424.5,204.0,440.0,182.5,436.5,198.0,429.0,182.5,448.5,191.0,445.0,198.0,435.5,180.0,445.5,188.0,435.5,192.5,449.0,191.0,449.0" stroke="black" stroke-width="1" fill="none" />
<polyline points="399.0,359.5,387.0,368.5,389.5,365.0,384.0,351.5,370.0,368.0,384.0,353.0,387.0,358.5,407.5,331.5,387.5,339.5,372.5,345.5,374.5,327.0,392.5,326.0,362.0,327.0,379.0,320.0,378.0,324.0,387.5,305.0,374.0,279.0,377.5,295.0,372.0,290.5,379.5,309.0,382.5,299.0,359.0,300.0,358.0,300.0" stroke="black" stroke-width="1" fill="none" />
<polyline points="392.5,278.0,395.0,271.5,385.0,289.0,374.5,264.0,378.5,250.5,378.5,282.0,395.5,279.5" stroke="green" stroke-width="1" fill="none" />
<polyline points="360.0,244.0,362.5,246.5,377.5,249.5,359.0,270.0,361.0,268.5,352.0,273.5,363.5,275.0,375.0,285.0,372.0,283.5,361.0,278.0,363.0,288.5,362.0,298.0,387.5,305.0,371.0,324.5,365.0,317.0,371.5,316.0,377.5,294.5,370.5,298.5,363.0,305.0,365.5,297.0" stroke="black" stroke-width="1" fill="none" />
<polyline points="328.0,271.5,328.5,293.0,343.5,266.5,348.0,290.0,326.0,280.0,329.0,285.0,310.0,270.5,304.5,271.0" stroke="yellow" stroke-width="1" fill="none" />
<polyline points="327.0,256.5,330.0,262.0,336.0,281.0" stroke="orange" stroke-width="1" fill="none" />
<polyline points="314.0,274.0,316.5,267.0,323.5,283.5,331.5,245.0,329.0,243.0,326.0,241.5" stroke="black" stroke-width="1" fill="none" />
<polyline points="349.0,258.5,369.0,275.0,371.5,271.5,342.0,278.0,372.5,264.5,386.5,269.5,376.0,271.5" stroke="yellow" stroke-width="1" fill="none" />
<polyline points="290.5,221.0,287.5,219.5,295.5,221.0,307.5,215.0,309.5,226.5,300.5,219.5" stroke="yellow" stroke-width="1" fill="none" />
<polyline points="256.5,208.0,250.0,215.5,275.5,210.0,261.0,195.5,290.5,200.5,278.0,198.5,301.0,206.5,276.0,202.5,304.5,194.0,294.0,193.5,307.0,168.0,308.5,184.0,312.5,190.5" stroke="yellow" stroke-width="1" fill="none" />
<polyline points="323.0,201.0,326.0,195.5,303.5,187.5,324.0,162.5,308.0,175.5,304.0,172.5,308.0,192.5,304.5,181.5,300.0,182.0,278.5,187.0,276.5,212.0,277.5,203.0,275.5,212.0,260.5,198.5,270.5,212.0,250.5,235.5,245.5,234.0,263.0,206.0,273.5,240.5,270.0,218.0,241.5,240.0,235.5,240.5,235.5,246.5,216.5,246.0,216.5,268.5,228.5,257.5,206.0,286.0,216.5,271.5,200.5,277.5,200.0,291.5,208.5,311.5,196.0,321.5,196.5,316.0,184.5,321.0,206.5,309.5,199.5,317.5,208.0,310.5,203.5,293.0,203.5,293.5,199.0,301.0,222.5,291.5,197.0,264.0,225.0,280.5,202.0,286.0,220.5,255.0,225.5,251.0,221.0,265.5,220.5,286.0,227.5,258.0,225.0,253.0,233.5,234.0,236.5,241.5,234.0,243.0,245.0,239.5,243.5,230.0,256.5,221.5,240.0,244.5,270.0,222.5,275.5,211.5,269.0,207.5,259.5,187.5,256.5,205.5,263.5,209.5,259.5,216.0,259.5,222.0" stroke="orange" stroke-width="1" fill="none" />
<polyline points="274.0,206.5,265.0,221.0,262.5,204.5,238.0,210.5,261.0,216.5,263.0,207.5" stroke="yellow" stroke-width="1" fill="none" />
<polyline points="254.0,212.0,258.5,211.0,259.5,213.5,254.0,204.0,252.5,206.0,256.0,215.0" stroke="black" stroke-width="1" fill="none" />
<polyline points="198.0,205.5,228.5,190.5,219.5,159.5,223.5,154.5" stroke="orange" stroke-width="1" fill="none" />
<polyline points="198.0,168.0,221.0,191.0,224.0,181.0,222.0,202.0,208.0,196.0,208.0,205.5,193.5,208.5,221.5,197.0,224.0,182.0,200.0,200.5,211.5,160.5,244.0,203.5,228.0,185.5,227.5,193.5,231.5,198.0,230.0,191.5,231.5,188.0" stroke="orange" stroke-width="1" fill="none" />
<polyline points="267.5,177.5,249.5,186.0,245.0,180.5,233.5,167.0,262.5,192.5,253.0,179.5,280.5,174.0,254.5,169.0" stroke="orange" stroke-width="1" fill="none" />
<polyline points="245.0,161.0,243.5,157.5,247.5,170.0,237.0,188.0,246.5,177.0,262.5,178.5,250.5,201.5,238.5,197.5,239.0,189.5,223.0,197.0" stroke="green" stroke-width="1" fill="none" />
<polyline points="257.0,185.5,255.5,197.0,241.0,199.5,254.5,199.0,244.0,184.0,270.5,198.5" stroke="green" stroke-width="1" fill="none" />
<polyline points="273.0,179.0,280.0,182.0,283.0,170.0,268.0,187.5" stroke="yellow" stroke-width="1" fill="none" />
<polyline points="253.5,192.0,262.0,201.0,268.5,180.5,252.5,176.5,253.5,195.5,248.5,198.0,249.0,188.0,237.0,195.0,248.0,205.5,248.0,194.0,278.0,196.5,263.5,180.5,251.0,172.5,253.0,191.0" stroke="black" stroke-width="1" fill="none" />
<polyline points="277.5,181.0,276.0,183.5,288.5,165.0,281.5,173.0,298.5,199.0,280.5,176.0,288.0,181.0,269.0,188.5,268.5,199.5,276.5,198.0,272.0,194.5,260.0,178.0,262.0,195.0,273.5,212.0,282.5,197.0,284.5,189.5,278.0,201.5,276.0,187.0,297.0,169.0,296.0,166.5,308.5,162.0,308.5,156.0,310.5,169.5,329.0,157.5,330.0,167.0,335.5,170.5,339.5,168.0,335.0,159.5,338.5,173.5" stroke="black" stroke-width="1" fill="none" />
<polyline points="301.5,175.5,307.5,175.0,297.0,168.5,294.5,171.5,272.0,188.0,300.5,196.5,285.0,211.5,268.5,185.0,269.0,219.5,271.0,204.5,267.0,217.5,277.0,209.5,259.0,217.0,274.0,222.0,271.5,239.0,269.5,228.0,249.5,244.5,253.5,217.5,256.0,212.5" stroke="green" stroke-width="1" fill="none" />
<polyline points="285.0,210.5,283.5,209.0,281.0,210.5,290.0,190.5,292.5,180.0" stroke="black" stroke-width="1" fill="none" />
<polyline points="249.0,162.0,244.5,165.0,248.5,177.0" stroke="green" stroke-width="1" fill="none" />
<polyline points="250.5,177.0,241.5,170.5" stroke="black" stroke-width="1" fill="none" />
<polyline points="" stroke="yellow" stroke-width="1" fill="none" />
<polyline points="249.5,129.5,238.5,136.0,252.0,136.5,237.5,160.5,241.0,144.5,257.0,131.0,265.0,132.0,240.5,121.5,246.0,135.5,250.0,141.0,240.5,143.5,224.0,138.5,248.5,152.5,237.5,132.0,243.0,144.0,221.0,137.0,224.0,134.5" stroke="yellow" stroke-width="1" fill="none" />
<polyline points="" stroke="black" stroke-width="1" fill="none" />
<polyline points="219.0,139.0,225.0,153.5,233.0,159.0" stroke="orange" stroke-width="1" fill="none" />
<polyline points="" stroke="green" stroke-width="1" fill="none" />
<polyline points="206.0,130.0,199.5,131.0,216.5,137.5,198.5,144.5,203.0,135.0,226.5,135.0,197.5,141.5,204.0,128.5,201.5,130.5" stroke="green" stroke-width="1" fill="none" />
<polyline points="217.0,171.0,214.5,177.5,217.5,162.0,221.0,159.0" stroke="yellow" stroke-width="1" fill="none" />
<polyline points="193.0,159.0,206.5,147.0,187.0,155.5,205.5,155.0,203.5,170.5,208.0,190.0,194.0,179.5,174.0,169.0,186.5,169.0,188.0,187.0,176.0,199.5,169.5,192.0,170.5,191.5,180.5,207.5,149.5,181.5,169.0,190.0,177.5,193.5,160.0,181.0,179.5,194.5,189.0,161.0,197.5,174.0,203.0,154.5" stroke="orange" stroke-width="1" fill="none" />
<polyline points="223.0,190.0,233.5,173.5,225.0,179.5,226.0,186.0,210.5,179.5,207.5,204.5,200.0,194.0,201.0,189.5,225.0,195.5,194.5,189.5,201.5,201.0" stroke="yellow" stroke-width="1" fill="none" />
<polyline points="" stroke="green" stroke-width="1" fill="none" />
<polyline points="199.0,133.5,215.5,125.5,219.0,131.0,212.5,110.5,209.0,107.5,215.5,113.0,216.0,111.5" stroke="yellow" stroke-width="1" fill="none" />
<polyline points="212.5,117.5,213.0,114.0,212.0,122.0,220.0,131.5,205.5,137.0,210.0,147.5,201.5,129.0,225.0,130.0,225.5,122.5" stroke="orange" stroke-width="1" fill="none" />
<polyline points="198.0,140.5,207.5,140.0,208.5,135.0,201.5,121.5,200.0,142.5,206.0,133.5,186.5,151.0,195.0,156.5,173.0,147.5,192.5,157.0,184.0,144.5,171.0,169.0,180.0,161.5,150.0,188.5,164.0,189.0,163.0,185.5,163.5,193.5,164.0,188.5,160.5,193.0,131.0,205.5,137.5,211.0,147.5,222.0,135.5,223.0,157.0,209.5,142.0,219.0,136.5,218.5,132.0,221.5,163.0,237.0,161.5,235.5,157.0,224.0,145.0,237.5,125.5,250.0,125.5,264.0,132.5,255.5,138.5,249.0" stroke="green" stroke-width="1" fill="none" />
<polyline points="144.5,191.0,139.5,183.5,156.5,169.5,137.0,165.5,163.5,169.0" stroke="green" stroke-width="1" fill="none" />
<polyline points="" stroke="green" stroke-width="1" fill="none" />
<polyline points="168.5,128.0,167.5,135.5,160.5,136.0,157.0,126.0,151.5,137.5,163.0,108.5,147.0,115.0,146.0,123.0" stroke="orange" stroke-width="1" fill="none" />
<polyline points="194.0,107.5,174.5,107.0,180.0,111.5,179.5,113.5,179.5,127.5,181.5,117.5" stroke="green" stroke-width="1" fill="none" />
<polyline points="177.5,127.5,179.5,133.5,191.0,108.0" stroke="yellow" stroke-width="1" fill="none" />
<polyline points="183.0,130.5,200.0,134.0,191.5,150.5,192.0,135.5,192.5,131.0" stroke="yellow" stroke-width="1" fill="none" />
<polyline points="199.5,137.0,196.0,134.5,193.0,121.0,215.5,101.5,220.5,127.5,190.0,118.0" stroke="green" stroke-width="1" fill="none" />
<polyline points="" stroke="green" stroke-width="1" fill="none" />
<polyline points="213.5,148.5,198.5,164.0,204.5,154.0,209.0,154.0,203.0,163.0,187.0,146.5,215.0,140.5,211.0,142.5,211.5,123.5,214.0,120.0,222.5,122.5,225.0,119.0" stroke="orange" stroke-width="1" fill="none" />
<polyline points="232.5,144.5,238.0,156.0,243.5,142.5,224.5,139.5,226.5,149.5,220.0,155.0,230.0,163.5,203.5,155.5,222.0,163.0,208.5,164.0,224.0,154.5,235.5,148.5,248.0,160.5,248.0,132.0,243.0,131.0,245.5,121.5" stroke="orange" stroke-width="1" fill="none" />
<polyline points="280.0,155.0,283.5,156.0,278.5,145.5,289.0,140.0,276.5,122.0,272.5,122.5" stroke="yellow" stroke-width="1" fill="none" />
<polyline points="300.0,127.5,306.0,125.0,298.0,131.0,296.5,130.5,284.0,133.0,285.0,133.5" stroke="black" stroke-width="1" fill="none" />
<polyline points="302.0,175.5,299.5,178.0,304.5,199.0,283.0,198.5,310.5,207.0,302.5,197.5,281.0,196.5,267.0,203.0,252.0,201.0,267.5,214.5,265.5,226.0,268.0,209.0,263.0,227.5,263.5,220.5" stroke="orange" stroke-width="1" fill="none" />
<polyline points="232.0,103.0,235.0,84.0,191.0,113.0,221.5,109.5,228.5,121.0,222.0,87.5,238.0,92.5,232.0,85.0" stroke="green" stroke-width="1" fill="none" />
<polyline points="228.0,93.5,233.5,77.0,232.0,109.0" stroke="black" stroke-width="1" fill="none" />
<polyline points="" stroke="orange" stroke-width="1" fill="none" />
<polyline points="259.0,81.0,257.0,85.5,265.5,101.0,260.5,70.5,252.0,88.5,234.0,97.0,236.0,106.0,229.0,76.0,222.0,104.0,236.5,121.5,208.0,98.0,212.0,105.5,215.5,131.0,201.5,119.5,209.5,121.5,212.5,115.5,199.5,126.0,202.0,142.0,200.0,140.5,183.5,142.5,195.5,144.5,187.5,152.0,179.5,152.5,166.0,149.5,164.5,165.5,160.0,165.0,173.5,169.5,160.0,169.0,150.0,182.0,152.0,157.5,165.0,152.5,168.5,143.5,166.5,166.0,168.0,162.5,185.0,147.5,175.0,134.5,197.0,148.5,179.0,137.0,197.5,119.0,196.0,125.5,202.0,126.5,207.5,118.0,226.0,111.0,210.5,95.5,230.5,107.0,228.5,104.0,236.5,93.5,230.0,91.5,265.5,99.5,239.0,83.5,223.0,85.0" stroke="yellow" stroke-width="1" fill="none" />
<polyline points="212.5,70.0,217.5,72.5,226.0,77.0,227.0,74.5,240.0,64.5,216.0,98.0,224.5,77.0,230.0,79.5,224.5,88.5,224.0,79.5" stroke="green" stroke-width="1" fill="none" />
<polyline points="" stroke="yellow" stroke-width="1" fill="none" />
<polyline points="213.0,56.5,220.0,38.0,222.5,49.5,217.0,38.5,238.0,46.0,234.5,54.5,255.5,55.5,248.5,41.0,246.0,46.0,247.0,49.5,235.0,52.0,279.0,53.5,259.0,70.0,248.0,38.5,272.5,61.5,279.0,58.0,265.0,66.0,281.0,60.5,276.0,75.0,279.5,73.5,284.0,63.0,287.0,67.5,305.0,107.5,307.5,97.0,300.0,94.5,315.0,82.5,311.0,94.5,314.5,105.5,326.0,94.5,326.5,111.5,334.5,128.5,338.0,136.0,350.5,122.0,343.5,125.5,350.5,132.0,340.5,141.0,372.5,137.0,367.5,146.5,354.0,145.5,364.5,138.5,370.5,135.0,373.5,125.0,381.0,132.0,398.5,118.0,378.5,121.5,404.0,105.5,396.0,112.0,374.0,120.0,412.5,131.0,414.5,111.0,422.0,115.0,415.0,112.0,411.5,112.0" stroke="orange" stroke-width="1" fill="none" />
<polyline points="420.5,143.0,423.5,144.5,432.0,154.5,418.0,127.5,405.0,156.5,425.5,150.0,418.5,141.5,416.0,163.0,408.0,156.5,408.0,177.0,402.0,177.5,400.0,187.0,393.5,178.5,396.5,190.0,400.0,192.0,391.0,183.0,387.5,198.5,382.0,213.5,375.5,219.5,383.0,204.0,345.5,205.5,358.5,214.0,375.5,210.5,368.5,190.0,386.0,206.5,394.0,214.0,402.5,183.5,403.5,190.5,419.5,190.0,409.5,196.0,424.5,186.5" stroke="orange" stroke-width="1" fill="none" />
<polyline points="386.0,131.0,381.5,127.0,373.5,111.5,358.0,122.5,358.5,123.0" stroke="orange" stroke-width="1" fill="none" />
<polyline points="398.0,110.0,392.0,101.5,398.0,93.0" stroke="orange" stroke-width="1" fill="none" />
<polyline points="363.5,82.5,373.5,73.5,377.5,83.0,379.0,97.5,381.0,97.5,401.0,113.0,401.5,118.5" stroke="yellow" stroke-width="1" fill="none" />
<polyline points="431.0,68.5,421.0,66.5,433.0,48.5,429.0,46.5,433.0,68.0,434.5,70.5,434.5,33.5,430.0,45.5,436.5,57.5,414.0,33.0,417.5,33.5,402.0,25.0,409.0,5.0,407.5,4.5,418.5,14.5" stroke="green" stroke-width="1" fill="none" />
<polyline points="535.0,66.0,523.0,89.0,509.0,88.5,516.0,93.0,502.5,90.0,497.5,96.5,495.0,81.5,488.5,117.0,472.0,119.0,474.5,105.0,477.0,87.0,471.0,93.5,468.0,112.5,464.5,120.5,454.5,134.0,476.0,139.0,471.0,137.5,453.5,131.0,468.5,146.5,445.5,155.0,458.0,146.5,457.0,145.5,440.0,170.0,450.0,166.5,447.0,163.5,452.0,188.5,440.5,164.5,442.0,178.5,441.0,198.0,433.5,180.5,431.5,208.0,415.0,198.0,411.0,215.0,436.5,207.0,430.5,196.0,432.5,214.5,417.5,219.5,430.0,219.0,407.5,227.0,415.5,238.5,401.5,246.0,404.5,229.5,421.0,247.0,419.0,259.5,406.0,243.0,426.5,269.5,399.0,247.0,404.5,255.0,416.5,268.5,403.0,275.0,393.5,273.5,423.0,280.0,398.5,273.5,389.0,281.0,413.5,294.0,401.5,299.0,396.0,288.5,406.5,303.0,407.0,323.5,395.5,314.5,403.0,309.0,393.5,323.5,378.5,337.0,368.0,324.5,392.0,333.0,390.0,336.0,390.5,329.0,391.5,341.5,397.0,343.5,385.0,363.5" stroke="orange" stroke-width="1" fill="none" />
<polyline points="337.5,166.0,361.0,147.0,359.0,136.0,334.0,130.5,343.0,130.5,339.5,115.0,330.0,138.0,320.0,127.0,332.5,98.0,322.5,104.0,317.5,114.5,323.0,107.0,308.0,111.0,315.5,97.5,304.0,88.0,306.0,87.0,302.5,90.0,294.5,73.0,294.0,85.0,281.0,72.0,290.5,79.0,295.5,58.5,284.5,57.0,269.5,57.0,282.5,48.0" stroke="orange" stroke-width="1" fill="none" />
<polyline points="" stroke="orange" stroke-width="1" fill="none" />
<polyline points="175.0,59.5,177.5,71.5,173.0,51.5,166.0,70.5,161.5,57.0,155.5,59.0,165.5,84.0,172.5,77.0" stroke="green" stroke-width="1" fill="none" />
<polyline points="160.0,79.5,160.0,72.5,169.5,69.5,156.0,65.5,146.5,93.0,177.0,78.5,169.5,70.5" stroke="black" stroke-width="1" fill="none" />
<polyline points="176.0,84.5,162.0,90.5,160.0,95.5,166.5,90.5,154.0,101.0,136.0,89.5" stroke="black" stroke-width="1" fill="none" />
</svg>