<svg xmlns="http://www.w3.org/2000/svg" width="1024" height="1024" version="1.1"><polyline points="412.5,1.0,418.0,16.5,406.0,23.5,429.0,18.5,418.0,27.5,416.0,30.5,419.0,26.5,423.5,45.0,416.5,42.5,426.0,44.5,433.5,55.0,436.0,52.0,435.0,52.5" stroke="yellow" stroke-width="1" fill="none" />
<polyline points="458.0,55.5,447.5,45.5,451.0,45.5,439.0,39.0,437.5,30.5,423.0,20.0,431.5,15.5" stroke="yellow" stroke-width="1" fill="none" />
<polyline points="431.5,6.5,423.0,8.0,425.5,14.0,429.0,16.0,431.0,22.5,435.5,28.0,436.0,23.0,442.5,30.5,445.0,27.5,443.0,40.0,437.0,41.0,453.0,46.0,438.5,52.0,452.5,55.0,454.5,57.5,446.0,60.0,453.5,74.5,448.5,71.5,441.0,83.0,440.5,82.5,440.5,79.5,434.5,89.0,429.5,94.5,430.0,98.0,426.0,101.0,417.0,91.5,431.0,106.5,419.0,115.0,415.5,112.0,418.0,106.5,424.5,106.5,421.5,104.0,422.5,101.5,433.5,85.0,449.0,97.0,433.0,77.5,438.0,70.0,458.0,65.0,448.5,66.0,462.5,62.5,463.5,49.0,475.5,55.5,487.0,44.0,470.5,50.0,479.0,34.0,474.5,33.0,487.0,30.0,484.0,24.0,503.0,18.0,504.0,26.5,504.5,28.0,507.0,29.5" stroke="black" stroke-width="1" fill="none" />
<polyline points="499.5,9.5,501.5,6.0,500.5,11.0,498.0,19.0,500.5,15.0,491.0,18.5,496.0,33.0,486.0,24.5,477.5,50.0,472.0,46.5,473.0,54.5,472.5,51.5,462.0,52.0,462.5,64.0,456.0,46.0" stroke="orange" stroke-width="1" fill="none" />
<polyline points="499.0,80.5,507.0,87.0,500.5,93.0,489.5,93.5,499.0,101.5,481.5,106.0,475.5,113.0,485.0,99.0,478.0,117.5,462.0,120.5,462.5,133.5,464.0,138.5,458.5,138.0,466.5,138.0,473.0,135.5" stroke="orange" stroke-width="1" fill="none" />
<polyline points="447.0,172.5" stroke="green" stroke-width="1" fill="none" />
<polyline points="" stroke="yellow" stroke-width="1" fill="none" />
<polyline points="417.0,195.0,416.0,197.0,422.5,205.5" stroke="black" stroke-width="1" fill="none" />
<polyline points="" stroke="green" stroke-width="1" fill="none" />
<polyline points="" stroke="orange" stroke-width="1" fill="none" />
<polyline points="384.0,282.0,379.0,281.5,386.0,275.0,384.0,278.5,377.5,270.0,379.0,278.5,380.5,277.0,381.0,277.5,375.0,279.0" stroke="yellow" stroke-width="1" fill="none" />
<polyline points="383.5,256.5,365.0,255.0,368.5,246.0,370.5,250.0,366.0,247.5,365.0,239.0,366.0,224.5,375.0,228.5,365.0,238.0,362.0,231.5,363.0,226.0" stroke="orange" stroke-width="1" fill="none" />
<polyline points="368.0,231.0,368.5,238.0,382.0,241.0,364.0,250.5,370.5,244.5,362.0,244.5,358.5,242.5" stroke="green" stroke-width="1" fill="none" />
<polyline points="376.5,250.0,368.5,253.0,383.0,269.0,374.5,277.0,378.5,271.0,373.5,284.5" stroke="orange" stroke-width="1" fill="none" />
<polyline points="365.5,280.0,367.5,284.0,377.0,282.0,375.0,284.0,379.0,294.0,383.5,297.0,373.0,302.5,381.0,304.5,377.5,308.0,381.5,316.5,381.5,312.0,383.0,316.0,382.0,326.5,365.5,327.0,375.0,328.5,377.5,337.5,379.5,344.5,389.0,344.5,374.5,340.5,376.0,340.5" stroke="black" stroke-width="1" fill="none" />
<polyline points="356.0,371.0,367.5,370.0,375.5,372.0,364.0,361.5,368.0,375.0,373.5,390.5,369.5,384.5,376.5,376.0,379.5,386.5" stroke="orange" stroke-width="1" fill="none" />
<polyline points="381.0,380.5,372.5,386.5,374.0,391.0,372.5,391.0,392.5,392.5,387.5,392.5,388.0,386.0,400.5,399.0,383.5,392.0,386.0,391.5" stroke="orange" stroke-width="1" fill="none" />
<polyline points="390.0,380.0,386.0,383.0,385.5,391.0,379.5,396.5,389.5,404.0,386.0,400.5" stroke="green" stroke-width="1" fill="none" />
<polyline points="365.0,437.0,356.5,438.5,358.0,435.5,354.5,430.5,353.5,415.0,361.0,411.0,340.5,405.5,344.0,413.0,342.0,395.5,331.0,400.5,335.0,395.5,319.5,390.0,325.5,398.5,314.5,393.0,309.0,400.0,308.0,393.0,303.0,392.0,296.0,388.0,299.5,381.0,304.0,383.0,306.5,385.0" stroke="black" stroke-width="1" fill="none" />
<polyline points="307.0,371.0,314.5,361.0,324.0,350.0,330.5,339.5,330.0,331.0,331.0,328.5,325.0,330.0" stroke="green" stroke-width="1" fill="none" />
<polyline points="355.0,346.0,360.5,333.5,362.5,335.5,348.5,330.0,361.0,334.5,360.5,331.0" stroke="yellow" stroke-width="1" fill="none" />
<polyline points="350.0,372.0,350.0,375.5,347.0,369.0,355.5,381.5,362.0,379.5,350.0,379.5,356.0,396.5,343.5,395.5,343.0,405.5,349.5,404.0" stroke="black" stroke-width="1" fill="none" />
<polyline points="372.5,366.5,356.0,367.5,359.0,363.0,361.5,367.5,358.0,355.5,352.0,369.5,357.0,370.5,359.0,363.5,360.0,369.5,364.5,373.0,364.0,370.0" stroke="yellow" stroke-width="1" fill="none" />
<polyline points="363.0,370.0,361.0,374.5,358.0,374.0" stroke="yellow" stroke-width="1" fill="none" />
<polyline points="365.5,374.0,363.0,368.5,364.0,368.5,357.5,363.0,348.5,368.0,354.0,363.5,362.0,383.0,360.0,383.0,355.0,385.0,355.0,378.0,364.0,399.0,353.0,404.5,354.5,411.0,365.0,405.0,363.5,413.0,362.0,411.0" stroke="black" stroke-width="1" fill="none" />
<polyline points="377.0,457.0,380.0,449.5,375.0,442.5,371.5,445.0,375.0,441.5,378.5,430.5,375.0,430.5,378.5,433.0,374.5,427.5,380.0,416.5,377.5,410.0,378.0,408.5,370.5,407.5,376.0,402.5,379.0,403.0,377.5,401.5,377.5,392.0,378.5,388.5,372.0,379.5,375.5,382.0,375.5,370.0,385.5,375.5,380.0,368.0,380.5,369.0,376.5,355.5,378.0,360.5,378.5,349.5,379.5,348.0,382.0,342.0,382.0,340.5,383.5,340.0,368.0,335.5,379.5,335.0,364.5,330.5,373.5,326.5,379.0,322.0,364.5,314.5,375.0,305.5,360.0,305.0,377.0,302.0,375.5,294.0,369.5,287.5,377.5,304.5,370.0,289.5,375.5,280.0,369.0,279.5,365.5,265.5,367.0,271.0,379.0,271.0,364.0,257.0,373.0,254.0,365.5,253.5,361.0,244.5,372.0,248.5,368.0,245.0,365.5,229.5,351.0,235.5,361.5,242.5,367.0,225.5,361.0,218.0,364.0,208.5,359.5,210.0,351.5,203.5,347.5,203.0,353.5,208.5" stroke="green" stroke-width="1" fill="none" />
<polyline points="342.0,213.0,350.0,213.5,351.5,212.5,349.5,217.5,358.0,219.5,354.0,220.5,355.5,219.0" stroke="black" stroke-width="1" fill="none" />
<polyline points="342.0,207.5,348.0,208.5,347.5,211.5,342.0,213.0,356.0,218.5,347.0,214.0" stroke="yellow" stroke-width="1" fill="none" />
<polyline points="" stroke="green" stroke-width="1" fill="none" />
<polyline points="367.0,202.0,365.0,205.0,358.0,205.0,361.5,203.5,366.5,209.0" stroke="green" stroke-width="1" fill="none" />
<polyline points="" stroke="yellow" stroke-width="1" fill="none" />
<polyline points="359.0,205.0,359.0,200.0,358.5,204.5" stroke="black" stroke-width="1" fill="none" />
<polyline points="347.0,209.0,352.5,201.5,345.5,202.5,348.0,206.5,348.5,203.5,350.0,203.0" stroke="yellow" stroke-width="1" fill="none" />
<polyline points="349.5,212.0,345.0,204.0,355.5,218.5,358.5,231.0,345.0,238.0,352.5,233.5,364.5,225.5,358.5,236.0,369.0,244.0,374.5,250.5,365.0,249.0,372.0,263.0,373.5,252.0,364.0,255.0" stroke="green" stroke-width="1" fill="none" />
<polyline points="" stroke="green" stroke-width="1" fill="none" />
<polyline points="" stroke="orange" stroke-width="1" fill="none" />
<polyline points="326.5,257.0,327.0,248.5,326.0,249.5" stroke="orange" stroke-width="1" fill="none" />
<polyline points="338.5,259.0,348.5,239.5,345.5,239.5" stroke="green" stroke-width="1" fill="none" />
<polyline points="" stroke="yellow" stroke-width="1" fill="none" />
<polyline points="346.5,268.0,344.0,259.5,331.0,259.0,337.5,263.5,344.0,264.0,332.0,275.5,341.5,278.0,340.5,277.5" stroke="black" stroke-width="1" fill="none" />
<polyline points="343.0,274.5,334.0,272.5,347.0,272.0,355.5,274.0,352.0,281.5,351.5,284.0,358.0,301.0,352.5,293.5,363.0,303.5,352.5,304.0,353.0,314.0,351.5,323.5,348.5,314.0,347.5,320.0,336.0,315.0,340.5,336.5,341.5,335.0,341.0,332.0,338.5,343.0,340.5,336.5,335.5,344.5,331.5,348.5,329.5,352.5,331.0,359.5,330.5,366.0,312.0,366.0,316.5,375.0,308.5,379.0,317.0,385.5,313.0,391.5,317.0,390.5,318.5,393.0,329.5,392.0,333.5,397.0,343.5,415.5,352.0,410.0,351.5,408.5,351.5,413.5,355.0,422.5,364.5,421.0,361.5,432.0,371.0,435.0,364.0,438.5,371.0,436.0,374.0,451.5,376.0,452.5,362.5,446.5,365.0,461.0,372.5,468.0,368.5,460.0,371.5,466.0,378.0,474.5,381.5,478.0,380.5,485.0,383.0,481.5,378.5,492.5,387.0,489.5,392.0,491.0,382.0,502.0,391.0,502.0,378.0,512.5,392.0,509.0,388.5,509.0,387.0,511.5,385.0,504.5,384.5,502.5" stroke="green" stroke-width="1" fill="none" />
<polyline points="424.5,500.5,430.0,503.5,440.5,488.5,441.5,492.0,438.5,481.5,449.0,484.0,443.0,479.0,449.5,479.5,450.0,481.0" stroke="black" stroke-width="1" fill="none" />
<polyline points="452.5,475.0,452.0,478.0,456.0,470.5,451.0,474.5" stroke="yellow" stroke-width="1" fill="none" />
<polyline points="" stroke="black" stroke-width="1" fill="none" />
<polyline points="462.5,414.5,458.5,420.5,472.5,423.0,475.5,414.5,468.0,415.0,483.0,412.0,484.0,392.5,489.0,407.0,497.0,395.0,495.0,394.5,495.5,394.5,510.5,380.0,512.5,393.0,502.5,395.0,502.0,390.5,515.0,386.0" stroke="orange" stroke-width="1" fill="none" />
<polyline points="493.5,386.0,492.5,389.5,491.5,392.5,486.5,382.5,475.0,390.5,480.0,403.5,460.0,407.5,476.0,413.5,471.0,418.5,468.0,415.0,457.5,419.0,449.5,433.5,463.5,428.5,464.0,432.5,451.5,444.0,458.5,441.0,453.5,441.5,450.0,450.0,444.5,452.0,442.5,458.5,443.0,466.5,435.0,463.0,450.0,476.0,447.0,483.0,432.5,478.5,437.5,482.0,438.0,489.5,424.0,488.5,442.0,487.5,437.0,482.5" stroke="orange" stroke-width="1" fill="none" />
<polyline points="444.0,487.0,435.0,477.5,450.5,476.0,436.0,471.0,435.0,467.5,455.5,477.5,449.0,464.0,439.0,455.0,432.0,456.5,441.0,458.0,446.5,458.0" stroke="orange" stroke-width="1" fill="none" />
<polyline points="434.5,473.5,434.0,472.0,446.0,460.5,441.0,468.0,421.0,458.5,428.5,453.5,424.0,452.0,427.0,443.0,419.5,435.0,422.0,437.5,421.0,435.0,432.0,442.5,426.0,433.5,424.5,435.0" stroke="orange" stroke-width="1" fill="none" />
<polyline points="427.0,470.5,423.5,473.0,427.5,485.5,423.0,475.0,423.0,491.0,426.5,484.0,433.5,489.0" stroke="green" stroke-width="1" fill="none" />
<polyline points="419.5,478.0,430.5,473.5,430.5,468.5,436.0,467.0,433.5,469.0,432.0,472.0" stroke="black" stroke-width="1" fill="none" />
<polyline points="486.5,421.5,477.0,412.0,476.0,421.5,476.5,411.5,482.0,413.5,486.0,416.0,482.5,413.0,485.0,411.0" stroke="green" stroke-width="1" fill="none" />
<polyline points="446.5,420.0,447.5,410.5,450.0,409.0,450.0,402.5,438.0,414.5,455.0,395.0,453.5,391.5,445.5,394.5,445.5,379.5,454.0,382.5,458.5,379.0,442.5,381.5" stroke="orange" stroke-width="1" fill="none" />
<polyline points="386.0,342.5,375.5,337.0,377.0,331.0,382.0,328.5,383.0,332.5" stroke="orange" stroke-width="1" fill="none" />
<polyline points="372.5,361.5,376.5,362.5,367.5,370.0,374.0,367.5" stroke="yellow" stroke-width="1" fill="none" />
<polyline points="306.5,354.0,301.5,347.0,308.0,343.5" stroke="orange" stroke-width="1" fill="none" />
<polyline points="313.0,353.0,308.5,351.0,302.0,354.0,313.5,354.0,308.0,355.0,310.0,359.5" stroke="yellow" stroke-width="1" fill="none" />
<polyline points="311.5,362.0,319.0,354.0,309.0,356.0,296.0,358.0,302.5,359.0" stroke="yellow" stroke-width="1" fill="none" />
<polyline points="293.5,357.5,292.5,355.0,301.5,361.5,308.0,367.5,308.0,360.0,315.0,353.5,313.5,358.5,325.5,357.0,307.5,363.0,310.5,365.5,307.5,365.0" stroke="orange" stroke-width="1" fill="none" />
<polyline points="303.0,348.0,306.5,351.0,303.5,362.5,295.0,351.5,281.5,347.0,290.0,349.5,289.0,348.0,296.5,352.5,301.0,356.0,296.5,344.0,303.5,350.0" stroke="orange" stroke-width="1" fill="none" />
<polyline points="" stroke="black" stroke-width="1" fill="none" />
<polyline points="284.5,332.0,289.0,340.5,288.0,332.0,267.5,349.5,287.0,336.5" stroke="yellow" stroke-width="1" fill="none" />
<polyline points="292.0,324.0,295.5,328.5,296.0,320.5,298.0,327.0,309.5,334.5,312.5,328.0" stroke="black" stroke-width="1" fill="none" />
<polyline points="332.0,317.0,334.0,311.5,327.0,302.5,322.5,308.5,324.5,312.0" stroke="green" stroke-width="1" fill="none" />
<polyline points="342.0,273.5,339.0,271.5,337.0,268.5,324.0,268.0,334.0,271.5" stroke="green" stroke-width="1" fill="none" />
<polyline points="334.0,277.5,344.5,267.5,336.0,256.5,337.5,269.5,340.5,261.0,337.0,265.0,335.0,272.0,341.5,266.5" stroke="yellow" stroke-width="1" fill="none" />
<polyline points="341.0,274.0,336.5,274.5,337.0,271.0" stroke="green" stroke-width="1" fill="none" />
<polyline points="327.0,264.0,324.0,266.0,318.5,269.5,318.0,263.0" stroke="green" stroke-width="1" fill="none" />
<polyline points="320.0,270.0,323.0,273.0,317.0,270.0,321.0,273.5" stroke="yellow" stroke-width="1" fill="none" />
<polyline points="327.5,257.5,345.0,252.5,345.5,249.5,349.0,247.5" stroke="black" stroke-width="1" fill="none" />
<polyline points="338.0,235.5,345.0,230.0,344.5,230.0,341.0,223.0,343.0,223.0,342.5,222.0,333.0,213.5,335.5,212.0,342.0,207.0,339.0,216.0,339.0,213.5,342.5,211.0" stroke="orange" stroke-width="1" fill="none" />
<polyline points="337.5,202.0,351.0,192.5,341.0,192.5,330.0,192.0,358.5,195.5,348.5,178.0,365.5,178.5,373.0,186.5,366.5,177.0,375.5,176.0,370.5,182.5,382.5,174.0,379.0,177.5,381.5,175.5,394.0,173.0,399.5,165.5,401.5,167.5,399.0,167.5,389.5,174.0,396.5,168.5,389.5,178.0,390.5,172.5,395.0,184.0,378.0,183.0,390.0,181.5,388.5,184.0,388.0,166.0,388.0,172.5,409.0,173.5,391.5,167.0,394.5,168.0" stroke="yellow" stroke-width="1" fill="none" />
<polyline points="386.0,176.5,383.5,183.5,389.0,170.5,389.0,173.5" stroke="yellow" stroke-width="1" fill="none" />
<polyline points="359.0,187.5,350.0,198.5,352.5,193.5,345.0,197.5,349.5,204.5,346.0,203.5,355.5,219.0,365.0,215.5,363.0,214.0,363.5,203.5" stroke="orange" stroke-width="1" fill="none" />
<polyline points="340.0,215.5,335.0,219.0,344.0,209.5,342.0,208.5,348.0,208.5" stroke="black" stroke-width="1" fill="none" />
<polyline points="" stroke="black" stroke-width="1" fill="none" />
<polyline points="344.5,214.5,350.0,216.0,354.0,211.0,359.0,219.5,364.0,220.5" stroke="black" stroke-width="1" fill="none" />
<polyline points="348.5,212.5,349.0,214.5,346.5,211.5,351.0,211.0,347.5,207.0,332.5,205.0,330.5,198.5,330.0,208.5,333.0,205.0,328.0,205.0,325.5,200.0,324.5,201.0,324.5,201.0" stroke="green" stroke-width="1" fill="none" />
<polyline points="352.5,213.5,353.0,215.5,360.5,214.0,359.0,209.5,358.0,209.0,358.5,209.0" stroke="yellow" stroke-width="1" fill="none" />
<polyline points="" stroke="green" stroke-width="1" fill="none" />
<polyline points="345.5,211.5" stroke="yellow" stroke-width="1" fill="none" />
<polyline points="" stroke="orange" stroke-width="1" fill="none" />
<polyline points="363.5,208.0,374.0,196.5,372.0,195.0,385.5,199.0,379.0,210.0,378.5,204.0,386.5,200.0,380.5,204.0" stroke="black" stroke-width="1" fill="none" />
<polyline points="381.5,155.5,389.0,159.5,378.0,169.5,371.0,160.0,362.5,158.0,378.0,167.0,377.5,155.0,382.5,153.5" stroke="black" stroke-width="1" fill="none" />
<polyline points="411.0,154.5,406.5,152.5,409.0,154.0,403.5,153.5,405.5,165.0,398.0,170.5,390.5,178.0,402.5,175.5,394.0,176.0,389.0,170.5,401.5,174.5,416.5,161.5,409.5,155.5,412.5,166.5,413.5,163.0,411.0,163.5,413.5,162.0" stroke="black" stroke-width="1" fill="none" />
<polyline points="393.5,121.5,391.5,124.5,398.0,119.5,385.5,135.0,393.0,128.0,386.0,141.0,386.0,124.5,390.5,125.0,390.0,123.5,388.5,126.5,395.0,121.0,397.5,121.5" stroke="yellow" stroke-width="1" fill="none" />
<polyline points="400.5,122.5,388.0,120.5,385.5,128.5,383.5,138.0,394.5,117.0,394.5,118.5,398.5,122.0,392.5,120.5,398.5,122.0,397.0,113.5,396.0,119.0,390.5,111.0,398.0,114.5" stroke="yellow" stroke-width="1" fill="none" />
<polyline points="395.0,124.5,364.5,126.5,380.5,128.5,367.5,133.5,366.5,144.0,361.0,137.5,349.5,142.0,361.0,134.5,353.0,146.5,355.0,143.0,350.5,148.0,350.5,146.5,347.5,147.0" stroke="green" stroke-width="1" fill="none" />
<polyline points="305.0,170.0,307.5,170.0,302.5,169.0,311.0,171.0" stroke="black" stroke-width="1" fill="none" />
<polyline points="" stroke="black" stroke-width="1" fill="none" />
<polyline points="297.0,174.0,287.5,179.5,292.0,175.0,290.0,171.0,286.0,181.5,286.5,175.5" stroke="orange" stroke-width="1" fill="none" />
<polyline points="281.0,177.5,280.0,177.5,271.5,170.0,271.5,172.5,276.0,177.5,274.0,173.5,276.0,175.5,278.0,171.5,273.0,173.0" stroke="yellow" stroke-width="1" fill="none" />
<polyline points="" stroke="orange" stroke-width="1" fill="none" />
<polyline points="274.5,172.5,264.0,181.0,268.5,175.5,263.5,175.0,252.0,172.0,250.5,173.0,254.0,175.0,259.0,176.0" stroke="yellow" stroke-width="1" fill="none" />
<polyline points="246.0,168.0,239.5,168.5,242.0,171.0,253.5,177.0,249.5,169.0,258.5,179.5,255.0,177.5,239.0,187.0,238.0,180.0,240.0,190.5,239.5,197.0,252.0,204.0,240.0,206.5,246.0,201.5,245.0,205.5,244.5,202.0,252.0,199.5,259.0,195.0,249.5,215.0,251.5,215.5,252.5,215.0,243.5,218.5,247.5,211.5,237.5,226.0,241.5,236.5,235.5,236.5,236.5,246.5,221.5,231.5,236.0,246.5,227.0,248.5,222.0,264.0,213.5,253.5,226.0,264.5,223.0,279.5,208.0,257.0,210.0,272.0,210.5,281.0,200.0,291.5,203.0,284.5,202.5,288.0,196.0,293.5,200.0,299.5,197.0,307.5,190.5,304.5,197.0,315.0,198.0,314.5,188.5,315.5,181.5,321.0,190.0,323.5,173.5,329.0,170.0,332.0,173.5,337.5,161.0,336.0,164.5,346.5,170.5,347.0,168.5,347.0,171.5,347.0,166.5,355.5,173.5,360.5,168.0,360.5,166.5,365.0" stroke="green" stroke-width="1" fill="none" />
<polyline points="155.5,352.0,151.0,352.0,148.5,367.0,148.5,363.0,160.5,363.5,156.0,380.0,148.5,381.0,152.5,378.5,159.5,376.0,161.0,377.5,151.0,398.5,160.5,390.0,168.5,406.0,166.0,402.0,167.5,404.5,164.5,404.0,166.5,404.5" stroke="green" stroke-width="1" fill="none" />
<polyline points="158.5,406.0,159.0,406.5,158.0,408.0" stroke="black" stroke-width="1" fill="none" />
<polyline points="166.5,406.5,168.5,414.0,177.5,416.5,181.5,411.5,183.0,415.0" stroke="yellow" stroke-width="1" fill="none" />
<polyline points="178.0,431.5,185.0,437.0" stroke="orange" stroke-width="1" fill="none" />
<polyline points="193.5,436.0,190.5,442.0,187.0,446.0,181.0,434.5,178.5,443.0,184.5,444.5,178.5,449.0,184.5,447.5" stroke="green" stroke-width="1" fill="none" />
<polyline points="171.5,447.0,173.0,439.0,169.5,439.5,170.5,438.0" stroke="green" stroke-width="1" fill="none" />
<polyline points="179.5,459.0,173.5,456.5,182.0,463.5" stroke="yellow" stroke-width="1" fill="none" />
<polyline points="" stroke="yellow" stroke-width="1" fill="none" />
<polyline points="175.0,451.0,167.5,465.0,164.5,463.0,166.5,471.0,159.0,469.0,174.5,469.5,166.0,467.5,174.0,469.5,170.0,471.0,173.0,471.0" stroke="yellow" stroke-width="1" fill="none" />
<polyline points="165.0,462.0,158.5,470.5,150.5,475.5,146.5,465.5,141.0,461.5,138.5,457.5,143.5,455.0" stroke="black" stroke-width="1" fill="none" />
<polyline points="159.0,487.0,154.5,490.0,162.0,486.0,161.5,487.5,163.0,491.0,177.0,503.0,175.5,493.5,171.5,499.0" stroke="orange" stroke-width="1" fill="none" />
<polyline points="" stroke="green" stroke-width="1" fill="none" />
<polyline points="148.5,510.0,155.5,501.5,158.0,488.5,138.0,495.0,144.5,493.0,139.0,487.0" stroke="orange" stroke-width="1" fill="none" />
<polyline points="136.5,494.5,141.0,498.5,143.5,490.5,149.5,488.0,156.5,505.5,155.0,501.0,153.0,508.5,162.5,519.5,163.0,520.0" stroke="green" stroke-width="1" fill="none" />
<polyline points="" stroke="yellow" stroke-width="1" fill="none" />
<polyline points="" stroke="black" stroke-width="1" fill="none" />
<polyline points="" stroke="green" stroke-width="1" fill="none" />
<polyline points="" stroke="yellow" stroke-width="1" fill="none" />
<polyline points="147.5,470.0,147.0,474.0,150.5,480.5,153.0,490.0,151.5,489.0,147.0,489.5,160.0,502.0,148.0,503.0,158.5,513.5,160.5,499.5,153.5,505.0,148.5,510.5,151.5,506.0" stroke="orange" stroke-width="1" fill="none" />
<polyline points="136.5,479.5,136.0,477.0,132.5,478.5,129.0,484.0,126.0,481.0" stroke="yellow" stroke-width="1" fill="none" />
<polyline points="148.0,478.5,146.0,486.5,151.5,487.0,159.0,496.0,148.0,504.0,149.5,503.0,162.0,509.0,159.5,517.0" stroke="black" stroke-width="1" fill="none" />
<polyline points="142.5,503.0,144.0,503.0,139.0,493.5,139.5,491.5,140.0,498.0,138.5,488.5" stroke="orange" stroke-width="1" fill="none" />
<polyline points="" stroke="orange" stroke-width="1" fill="none" />
<polyline points="141.0,504.0,143.5,504.5,135.5,491.5" stroke="yellow" stroke-width="1" fill="none" />
<polyline points="133.0,482.5,124.5,481.0,138.5,498.0,141.0,492.5,136.5,497.5,129.5,500.5,133.5,500.5,130.5,512.5,129.5,511.0" stroke="black" stroke-width="1" fill="none" />
<polyline points="121.5,491.0,122.5,495.5,118.0,501.5,120.0,498.5" stroke="orange" stroke-width="1" fill="none" />
<polyline points="119.0,497.5,118.0,508.0,125.0,503.0,116.5,508.5,125.0,498.0,121.0,510.5,118.0,513.5" stroke="yellow" stroke-width="1" fill="none" />
<polyline points="121.5,517.5,135.0,509.0,123.5,505.5,131.5,502.5,130.5,496.5,122.0,495.0" stroke="yellow" stroke-width="1" fill="none" />
<polyline points="128.5,496.5" stroke="black" stroke-width="1" fill="none" />
<polyline points="128.0,508.5,131.5,514.5,138.5,519.5,132.5,515.0,135.0,514.0" stroke="green" stroke-width="1" fill="none" />
<polyline points="142.0,490.5,133.5,487.0,138.5,487.0,129.0,484.5,138.0,479.0,136.5,480.0" stroke="green" stroke-width="1" fill="none" />
<polyline points="135.0,494.5" stroke="yellow" stroke-width="1" fill="none" />
<polyline points="" stroke="orange" stroke-width="1" fill="none" />
<polyline points="" stroke="black" stroke-width="1" fill="none" />
<polyline points="" stroke="yellow" stroke-width="1" fill="none" />
<polyline points="166.5,475.5,169.0,476.0,168.5,483.0,165.5,484.0,157.5,485.0,171.5,497.5,167.0,487.0,168.0,486.5,168.5,484.5" stroke="green" stroke-width="1" fill="none" />
<polyline points="166.5,485.0,165.5,487.5,160.0,494.5,173.5,499.5,173.0,492.0,166.5,496.5" stroke="green" stroke-width="1" fill="none" />
<polyline points="207.5,500.0,207.0,500.0,198.0,494.0,207.5,491.5,215.5,482.5,217.5,480.5,213.5,481.5" stroke="black" stroke-width="1" fill="none" />
<polyline points="" stroke="yellow" stroke-width="1" fill="none" />
<polyline points="218.0,481.0,221.0,466.0,219.0,463.0,224.5,478.0,225.0,462.5,233.5,457.5,239.0,463.5,234.0,452.0,234.5,446.5,226.0,445.0,241.5,440.0,234.5,423.5,238.5,428.0,235.5,428.0,236.0,414.5,223.0,408.5,240.5,414.5,224.0,411.5,231.5,399.0,227.5,382.0,220.5,400.5" stroke="orange" stroke-width="1" fill="none" />
<polyline points="" stroke="green" stroke-width="1" fill="none" />
<polyline points="" stroke="black" stroke-width="1" fill="none" />
<polyline points="244.5,419.0,251.0,419.5,241.5,436.0,239.0,430.5,241.0,430.0,240.5,432.5,254.0,447.5,235.0,440.5,236.5,452.0,234.0,447.5,245.5,466.5,232.0,470.5,231.5,475.5,235.5,480.5,228.0,477.0,223.0,490.5,216.5,488.5,205.0,479.0,205.5,490.0,203.0,479.5,205.5,483.5,206.0,488.5,207.0,491.5,212.5,488.5" stroke="green" stroke-width="1" fill="none" />
<polyline points="197.5,482.0,207.0,492.0,214.0,492.5,216.0,497.0,226.5,486.0,214.5,489.0,227.5,484.0,230.5,485.0" stroke="black" stroke-width="1" fill="none" />
<polyline points="" stroke="yellow" stroke-width="1" fill="none" />
<polyline points="187.5,450.5,181.0,451.0,187.5,439.0,187.5,457.0,189.0,449.0,172.0,456.0,186.0,443.0,182.0,432.0,187.5,440.0,174.5,432.0,179.0,432.0,186.0,421.0,186.5,430.5,183.0,423.0,173.5,415.5,178.0,403.5,170.0,411.5,174.0,394.0,168.0,405.0,165.0,394.0,169.5,387.0,156.0,386.5,160.5,384.0,165.5,378.0,162.0,380.0,164.0,389.0,165.0,382.0,164.0,385.0,159.5,386.0,157.0,383.5" stroke="black" stroke-width="1" fill="none" />
<polyline points="156.0,370.5,151.5,358.5,161.5,360.0,168.0,355.5,168.5,344.5,172.5,337.5,178.5,339.0,188.0,335.0,194.5,332.5,190.5,325.5,202.5,320.5,194.0,331.0,195.5,330.5,193.5,328.5" stroke="yellow" stroke-width="1" fill="none" />
<polyline points="195.5,308.0,200.5,317.0,199.0,321.5,199.5,321.0,202.0,322.0,200.5,321.5,204.5,320.5,197.5,326.5,199.0,328.5,204.0,328.5" stroke="orange" stroke-width="1" fill="none" />
<polyline points="208.0,304.5,204.5,305.0,194.5,302.5,199.0,301.5,209.5,295.0,215.0,285.5,223.0,269.0,220.5,270.0,218.5,270.0,225.5,251.5,236.0,248.0,241.0,239.0,235.5,241.5,244.0,224.0,247.0,239.0,250.0,220.5,258.5,221.0" stroke="green" stroke-width="1" fill="none" />
<polyline points="290.0,219.5,276.0,232.0,275.0,229.0,276.0,229.5,277.5,230.5" stroke="yellow" stroke-width="1" fill="none" />
<polyline points="266.5,240.5,273.0,247.5,270.5,241.0" stroke="yellow" stroke-width="1" fill="none" />
<polyline points="260.5,227.5,261.5,225.0,254.0,229.0,262.0,230.0,262.0,224.5,256.5,217.5,242.0,234.0,247.5,233.0,237.5,245.5,242.5,245.0,230.0,253.5,223.5,252.5,218.5,253.5,218.5,277.0,215.5,282.5,216.0,289.0,215.5,270.5,228.0,271.5,219.5,272.0,227.5,281.0,226.5,260.0,232.5,258.5,228.5,254.5,228.0,248.0,232.5,249.5,241.0,240.0,242.5,235.5,242.0,227.0,247.0,234.5,254.5,221.5,262.5,236.5,265.5,224.0,262.5,214.0,269.0,219.0,257.0,209.5,266.5,209.0,266.0,208.0,271.0,195.5,270.5,194.5,273.0,190.5,276.5,187.5,261.0,195.5" stroke="orange" stroke-width="1" fill="none" />
<polyline points="" stroke="black" stroke-width="1" fill="none" />
<polyline points="254.5,203.0,255.0,203.5,260.0,222.0,250.0,215.5,242.5,233.0,250.5,228.5,249.5,221.0,240.0,239.0,242.5,243.5,236.5,232.0,236.5,229.5,230.0,221.5,232.0,223.5,231.0,217.0,223.0,211.5,220.5,209.0,232.0,205.5" stroke="yellow" stroke-width="1" fill="none" />
<polyline points="240.0,211.5,237.0,206.5,235.5,206.5" stroke="orange" stroke-width="1" fill="none" />
<polyline points="" stroke="yellow" stroke-width="1" fill="none" />
<polyline points="" stroke="black" stroke-width="1" fill="none" />
<polyline points="239.5,205.5,246.0,200.5,244.5,197.0,238.5,205.0,244.5,193.0,245.0,182.5,245.5,192.0,244.5,186.0,251.0,185.5,249.0,188.0,260.5,178.0,275.5,179.0" stroke="yellow" stroke-width="1" fill="none" />
<polyline points="275.0,168.5,270.0,166.0,266.5,185.0,259.0,201.5,257.0,184.5,255.5,195.0,241.5,200.0,241.0,201.0,244.0,200.0,248.5,205.0,246.5,196.5,256.0,188.0,254.0,188.5,273.0,191.5,258.5,178.0,266.5,188.0,273.5,191.0,270.5,180.5,268.5,182.0" stroke="green" stroke-width="1" fill="none" />
<polyline points="256.5,201.0,272.5,201.0,265.0,188.0,263.0,191.0" stroke="black" stroke-width="1" fill="none" />
<polyline points="285.5,203.0,264.5,196.5,252.5,191.5,259.5,202.0,261.5,214.5,269.0,215.5" stroke="orange" stroke-width="1" fill="none" />
<polyline points="245.5,206.0,253.0,209.0,248.0,218.0,247.5,227.0,252.5,237.0,245.0,231.5,236.0,238.0,230.0,237.0,235.5,239.0" stroke="orange" stroke-width="1" fill="none" />
<polyline points="217.5,233.5,226.0,220.0,232.0,217.5,231.0,213.0" stroke="green" stroke-width="1" fill="none" />
<polyline points="232.5,225.0,236.5,220.0" stroke="black" stroke-width="1" fill="none" />
<polyline points="223.0,227.0,226.0,216.0,226.5,213.5,223.5,229.5,228.0,236.5,225.0,233.5,228.0,236.0,229.0,233.0,229.5,233.0,230.5,232.0" stroke="black" stroke-width="1" fill="none" />
<polyline points="" stroke="black" stroke-width="1" fill="none" />
<polyline points="219.0,240.0,218.5,246.0,224.5,256.0,216.5,252.0,223.5,247.0,228.0,243.0" stroke="orange" stroke-width="1" fill="none" />
<polyline points="214.5,263.0,216.0,260.0,217.0,243.5,218.0,262.0,227.0,249.0,227.0,240.5,212.0,233.5,207.0,223.5,220.5,217.0,218.0,222.5,219.0,220.0,225.5,226.0,219.0,217.0,224.0,228.0,218.5,217.5,216.0,218.5,219.5,213.0" stroke="orange" stroke-width="1" fill="none" />
<polyline points="220.0,239.5,230.0,239.5,236.0,241.5,231.0,239.5" stroke="orange" stroke-width="1" fill="none" />
<polyline points="221.0,254.0,210.0,255.0,217.0,277.0,204.0,276.0,198.0,290.0,192.0,290.5,204.0,293.0,189.0,308.5,184.0,316.0,178.0,328.5,176.0,332.5,175.5,333.5,170.5,325.5,160.5,330.0,163.5,334.5,155.0,343.5,163.0,339.5,148.5,359.5,152.0,346.5,141.0,344.5,146.5,347.5,140.5,344.0,140.0,345.0,137.5,343.0" stroke="yellow" stroke-width="1" fill="none" />
<polyline points="146.5,342.5,145.5,335.5,147.5,332.0,153.5,327.5,151.5,326.5,144.0,323.0,139.0,331.0,147.5,330.0,138.5,336.0,136.5,338.5" stroke="black" stroke-width="1" fill="none" />
<polyline points="" stroke="yellow" stroke-width="1" fill="none" />
<polyline points="" stroke="orange" stroke-width="1" fill="none" />
<polyline points="146.0,339.5,148.5,342.0,137.0,335.5,138.0,329.0,126.0,326.5,132.5,322.0,125.0,323.5,135.5,312.5,132.5,302.5,125.5,298.5,126.0,301.0,124.5,310.5" stroke="yellow" stroke-width="1" fill="none" />
<polyline points="" stroke="black" stroke-width="1" fill="none" />
<polyline points="136.5,295.0,137.0,293.5,127.5,292.5,127.5,285.0,136.0,305.5,128.5,311.0,127.5,300.0,128.0,299.5,123.5,300.5,126.0,301.0" stroke="yellow" stroke-width="1" fill="none" />
<polyline points="141.5,294.0,129.0,284.0,137.0,287.0,139.5,292.5,140.0,282.5,133.5,284.5" stroke="orange" stroke-width="1" fill="none" />
<polyline points="141.0,285.0,143.0,278.5,138.0,265.5,137.5,276.0,131.0,285.5,130.0,285.5,136.0,274.0" stroke="yellow" stroke-width="1" fill="none" />
<polyline points="" stroke="black" stroke-width="1" fill="none" />
<polyline points="" stroke="green" stroke-width="1" fill="none" />
<polyline points="147.0,276.5,147.5,283.0,143.5,280.0,162.0,271.0,160.5,268.5" stroke="green" stroke-width="1" fill="none" />
<polyline points="175.5,264.0,166.5,269.0,177.5,263.0,175.0,259.5,165.5,261.0,172.5,251.5,174.5,241.5" stroke="black" stroke-width="1" fill="none" />
<polyline points="175.0,238.5,163.0,242.0,167.0,245.5,170.5,243.5,164.5,244.0,163.5,243.5" stroke="orange" stroke-width="1" fill="none" />
<polyline points="" stroke="black" stroke-width="1" fill="none" />
<polyline points="" stroke="orange" stroke-width="1" fill="none" />
<polyline points="" stroke="black" stroke-width="1" fill="none" />
<polyline points="" stroke="orange" stroke-width="1" fill="none" />
<polyline points="182.5,257.0,186.0,260.5,183.0,259.0,187.0,265.5,182.0,263.5,185.5,264.5" stroke="black" stroke-width="1" fill="none" />
<polyline points="182.0,263.0,180.0,255.0,180.5,261.5,188.5,264.5,186.5,272.5,189.0,268.5,187.0,269.0,189.5,268.0,199.5,263.5" stroke="black" stroke-width="1" fill="none" />
<polyline points="204.5,266.0,203.5,272.5" stroke="green" stroke-width="1" fill="none" />
<polyline points="203.5,249.5,204.5,249.0,207.0,241.0,210.0,241.5,209.0,243.0,212.5,225.5,212.5,237.0,212.0,224.5,214.0,223.0,201.5,230.5,209.0,229.0,209.0,225.0,206.5,224.0" stroke="green" stroke-width="1" fill="none" />
<polyline points="213.0,228.0,206.5,225.0,214.0,237.0,202.0,252.0,209.0,241.5" stroke="orange" stroke-width="1" fill="none" />
<polyline points="" stroke="yellow" stroke-width="1" fill="none" />
<polyline points="209.0,252.0,208.0,263.5,216.5,257.5,212.0,253.5" stroke="yellow" stroke-width="1" fill="none" />
<polyline points="206.0,254.0,208.0,251.5,210.5,244.5,209.0,235.5" stroke="black" stroke-width="1" fill="none" />
<polyline points="210.0,259.5,216.0,258.0,217.0,255.5" stroke="green" stroke-width="1" fill="none" />
<polyline points="" stroke="orange" stroke-width="1" fill="none" />
<polyline points="204.5,262.0,202.0,254.0,192.0,259.5,196.0,250.0,195.5,256.5" stroke="black" stroke-width="1" fill="none" />
<polyline points="201.5,250.5,196.0,265.5,195.5,262.0,206.0,266.0,201.5,257.0,200.0,265.0" stroke="orange" stroke-width="1" fill="none" />
<polyline points="175.0,259.0,184.0,262.0,183.0,255.0,187.5,249.5,187.0,252.5,201.0,240.5" stroke="orange" stroke-width="1" fill="none" />
<polyline points="186.0,240.0,184.5,232.5,194.0,227.5,178.0,234.0,189.5,226.5,179.0,214.5,197.0,227.5,191.5,212.5,192.5,221.5,182.0,219.5,179.5,216.0,179.5,216.5" stroke="orange" stroke-width="1" fill="none" />
<polyline points="188.0,211.5,192.0,211.5,173.5,215.5,178.5,224.5,177.5,231.5,174.0,226.5,189.0,238.0,186.5,231.0" stroke="orange" stroke-width="1" fill="none" />
<polyline points="" stroke="orange" stroke-width="1" fill="none" />
<polyline points="203.0,253.5,206.0,252.5,192.5,250.5,187.5,244.0,192.5,239.5,202.0,249.5,190.5,238.5,210.5,223.5,207.0,226.5" stroke="orange" stroke-width="1" fill="none" />
<polyline points="" stroke="yellow" stroke-width="1" fill="none" />
<polyline points="" stroke="yellow" stroke-width="1" fill="none" />
<polyline points="216.5,228.0,218.0,226.0,210.0,234.5,208.5,240.0,208.0,238.0" stroke="yellow" stroke-width="1" fill="none" />
<polyline points="214.0,192.0,215.5,205.5,226.5,200.5,231.5,188.0,212.5,210.5,209.0,201.5,211.5,215.0,221.5,209.0,224.0,207.0,224.5,227.5,221.5,220.0,220.5,218.0,227.5,231.5,230.5,230.0,241.5,237.0,235.5,233.5,219.5,247.5,239.5,246.0,223.0,247.5,215.0,261.0,216.0,263.0,216.0,254.5,208.0,272.0,210.5,267.0,215.5,272.0,206.0,284.5,211.5,282.0,199.5,291.0,195.5,300.0,192.5,303.0,192.5,286.0,197.0,308.0,187.5,303.5,191.0,319.5,184.5,319.0,192.0,320.5,211.5,323.5,195.5,308.5,203.5,316.5,216.0,300.0,220.0,291.5,226.0,277.0,224.5,280.5,215.5,275.0,242.5,273.5,242.5,268.5,249.5,258.5,241.5,245.5,248.0,263.5,251.0,243.5,257.0,250.0,254.0,246.5,268.5,240.0,272.5,236.0,287.0,251.0,284.5,250.5" stroke="yellow" stroke-width="1" fill="none" />
<polyline points="" stroke="black" stroke-width="1" fill="none" />
<polyline points="281.0,259.0,284.5,264.0,299.0,261.5,288.5,272.5,297.5,274.5,293.5,275.5,299.5,271.0,299.0,271.0,299.0,271.0,297.0,270.0" stroke="orange" stroke-width="1" fill="none" />
<polyline points="274.0,263.5,286.5,265.0,290.0,273.0,286.5,268.5,288.0,271.0,290.0,272.5" stroke="black" stroke-width="1" fill="none" />
<polyline points="" stroke="yellow" stroke-width="1" fill="none" />
<polyline points="" stroke="black" stroke-width="1" fill="none" />
<polyline points="274.0,271.5,270.5,270.0,277.0,275.5,274.0,264.5" stroke="yellow" stroke-width="1" fill="none" />
<polyline points="276.5,253.0,271.0,257.0" stroke="black" stroke-width="1" fill="none" />
<polyline points="265.5,280.5,261.5,277.0,265.5,275.0,265.0,275.0,257.5,270.5,263.5,278.0,264.0,280.5" stroke="green" stroke-width="1" fill="none" />
<polyline points="272.0,270.0,266.0,271.5,268.0,264.0,260.0,288.0,266.0,275.0,272.0,283.5,272.5,289.0,270.0,276.5,266.5,278.5" stroke="orange" stroke-width="1" fill="none" />
<polyline points="260.0,273.0,244.5,281.5,247.0,280.5,252.5,273.0,251.5,275.5" stroke="green" stroke-width="1" fill="none" />
<polyline points="266.5,285.5,276.5,275.5,277.5,283.5,272.5,277.5,271.5,279.0,276.5,276.5" stroke="black" stroke-width="1" fill="none" />
<polyline points="257.5,276.0,263.0,282.5,270.0,269.5,269.0,268.5" stroke="yellow" stroke-width="1" fill="none" />
<polyline points="259.5,277.5,273.0,276.0,272.0,282.5,276.0,277.5,277.0,285.0,279.0,288.5" stroke="yellow" stroke-width="1" fill="none" />
<polyline points="283.0,251.0,273.5,259.0,279.0,251.0,278.5,258.5,281.0,250.0,278.0,252.5" stroke="green" stroke-width="1" fill="none" />
<polyline points="276.0,246.0,276.5,248.5,278.0,245.0" stroke="green" stroke-width="1" fill="none" />
<polyline points="" stroke="green" stroke-width="1" fill="none" />
<polyline points="281.0,257.5,281.5,254.5,274.5,258.5,269.5,253.0,272.5,262.0,256.0,255.5,266.0,259.0,256.5,259.0,252.5,257.0" stroke="orange" stroke-width="1" fill="none" />
<polyline points="" stroke="green" stroke-width="1" fill="none" />
<polyline points="290.0,263.0,278.0,264.0,289.0,278.5,288.0,269.5" stroke="black" stroke-width="1" fill="none" />
<polyline points="" stroke="yellow" stroke-width="1" fill="none" />
<polyline points="272.0,247.0,274.5,246.5,259.5,243.5,271.0,249.5,253.5,254.0,246.0,260.0,248.0,267.5,244.5,268.5,242.0,268.5,242.0,279.5,236.5,274.5,230.5,281.5,231.0,291.0,212.0,281.0,218.5,305.0,219.0,306.0,217.0,296.0,207.5,304.0,209.0,311.0,202.0,315.5,200.5,319.5,200.0,318.5,197.5,326.0,199.0,328.0,190.0,335.5,180.5,340.5,188.0,337.0,180.0,344.5,173.0,359.5,188.0,350.0,173.5,364.0,170.5,368.5,164.5,371.0,160.0,369.5,163.5,373.5,165.5,385.5,157.0,389.0,161.5,388.5,165.5,391.5,169.0,392.5,167.5,388.5,165.5,385.0" stroke="orange" stroke-width="1" fill="none" />
<polyline points="171.5,396.5,167.0,394.0,165.0,395.5" stroke="yellow" stroke-width="1" fill="none" />
<polyline points="142.0,386.5,138.5,379.0,149.0,389.0" stroke="orange" stroke-width="1" fill="none" />
<polyline points="" stroke="green" stroke-width="1" fill="none" />
<polyline points="144.0,377.5,140.5,370.0,137.5,376.5,137.0,375.0,144.0,383.5,142.5,381.0,143.0,382.0" stroke="green" stroke-width="1" fill="none" />
<polyline points="137.0,404.0,138.0,404.0,140.5,393.5,135.5,392.0,140.5,406.5,136.0,401.0,143.5,408.0,127.0,412.0,124.5,409.0,130.5,420.0,140.0,426.5,139.0,427.0,140.5,420.5,136.0,437.5,129.5,438.0,132.5,440.0,144.0,453.0,139.0,442.5,138.5,466.5,138.0,454.0,135.5,455.0,127.0,471.0,145.5,476.0,140.5,470.5,148.5,473.0,150.5,482.5,159.0,474.0,158.0,486.0,153.5,478.5,157.5,488.0,165.0,497.5,161.0,486.5" stroke="green" stroke-width="1" fill="none" />
<polyline points="" stroke="black" stroke-width="1" fill="none" />
<polyline points="165.5,448.0,167.5,455.0,170.5,434.0,158.5,439.0,166.5,431.5,161.5,431.0,167.0,423.5" stroke="yellow" stroke-width="1" fill="none" />
<polyline points="163.5,438.5,172.0,435.0,165.0,441.5,167.0,425.5,157.0,440.0" stroke="green" stroke-width="1" fill="none" />
<polyline points="168.5,425.0,171.5,422.5,156.0,425.5,155.0,423.0,158.5,415.5,158.5,415.5,169.0,414.5,163.0,404.5,165.5,401.5,168.0,388.5,159.0,390.5,165.5,385.0,142.5,369.5,146.5,370.5" stroke="orange" stroke-width="1" fill="none" />
<polyline points="144.5,366.0,158.0,375.5,143.0,365.0,145.0,371.5,150.5,374.5,159.5,387.5,148.0,377.5,154.0,398.0,155.0,396.5" stroke="green" stroke-width="1" fill="none" />
<polyline points="180.5,432.0,179.5,426.0,167.5,442.0,177.5,445.0,169.5,445.5,165.0,451.0,180.0,464.0,167.5,450.5,174.0,451.5,175.5,465.5,192.0,472.5,172.5,465.0" stroke="green" stroke-width="1" fill="none" />
<polyline points="176.0,449.5,161.5,450.5,158.5,447.0" stroke="orange" stroke-width="1" fill="none" />
<polyline points="164.5,452.0,172.5,456.5,183.0,463.5,170.5,463.0,171.0,461.0,173.5,458.5,162.5,475.5,163.0,470.0,159.0,491.0,166.5,483.5,168.5,489.5,171.0,493.5,152.0,496.5,160.0,500.5,163.5,498.0,168.0,519.5,165.5,510.5,171.5,510.0,173.0,514.5,167.0,520.5,168.0,522.0" stroke="orange" stroke-width="1" fill="none" />
<polyline points="" stroke="green" stroke-width="1" fill="none" />
<polyline points="151.0,463.0,154.0,460.0" stroke="black" stroke-width="1" fill="none" />
<polyline points="153.5,467.0,155.0,464.0,163.0,467.0,154.0,467.0,148.0,467.5" stroke="yellow" stroke-width="1" fill="none" />
<polyline points="153.5,443.5,151.0,447.5,141.5,441.5,143.5,429.0,138.0,425.5,146.0,422.5,147.0,420.5,124.5,409.5,124.5,403.0,127.0,401.0,126.0,411.0,129.0,408.5,127.0,409.0" stroke="orange" stroke-width="1" fill="none" />
<polyline points="141.5,403.0,142.5,411.5" stroke="black" stroke-width="1" fill="none" />
<polyline points="" stroke="black" stroke-width="1" fill="none" />
<polyline points="157.0,414.0,155.5,411.5,161.0,410.0" stroke="black" stroke-width="1" fill="none" />
<polyline points="149.0,432.5,153.0,425.5,153.0,431.0,152.5,431.0,162.5,430.5,153.5,440.0,158.5,448.5,162.0,442.0" stroke="black" stroke-width="1" fill="none" />
<polyline points="169.0,437.0,168.5,436.0,175.0,445.0,174.0,433.5,181.5,440.0,181.5,436.0,189.0,439.5,174.5,434.5,186.5,430.5,185.5,440.0,181.0,430.0,177.5,433.0,178.5,432.5" stroke="black" stroke-width="1" fill="none" />
<polyline points="179.5,414.0,178.0,425.0,184.5,419.0,176.5,416.0,175.5,409.5,172.5,407.5,162.5,404.0,171.0,406.0,171.5,403.0,171.5,404.0" stroke="orange" stroke-width="1" fill="none" />
<polyline points="168.5,433.0,162.5,424.5,165.0,425.5,156.5,441.5,166.0,448.0,170.0,437.5,160.0,425.5,174.5,427.0,173.5,426.0,173.5,425.0" stroke="black" stroke-width="1" fill="none" />
<polyline points="178.0,433.0,166.0,437.5,173.0,434.5,167.5,434.5" stroke="orange" stroke-width="1" fill="none" />
<polyline points="158.5,469.0,162.5,463.0" stroke="yellow" stroke-width="1" fill="none" />
<polyline points="156.5,459.5,171.0,449.5,162.5,451.0,166.5,449.5,166.5,447.0" stroke="orange" stroke-width="1" fill="none" />
<polyline points="147.0,456.5" stroke="black" stroke-width="1" fill="none" />
<polyline points="158.5,454.5,150.5,449.0,151.5,454.0,152.0,453.0,146.5,462.0,154.0,451.0" stroke="yellow" stroke-width="1" fill="none" />
<polyline points="154.0,448.0,157.5,451.0,140.5,438.0,150.5,440.0,145.5,442.0,137.5,443.5,143.5,445.0,141.0,434.0" stroke="black" stroke-width="1" fill="none" />
<polyline points="163.0,453.0,153.0,451.0,155.0,463.5,140.5,465.5,141.5,475.0,155.5,471.0,156.0,475.0,156.5,470.0,168.5,484.5,163.0,479.5,175.0,475.0,169.0,476.0,163.0,476.5" stroke="yellow" stroke-width="1" fill="none" />
<polyline points="153.5,467.5,144.5,462.5,147.0,467.5,146.5,456.0" stroke="green" stroke-width="1" fill="none" />
<polyline points="154.5,463.5,165.0,484.0,163.0,474.5,162.5,471.0,164.5,470.0" stroke="orange" stroke-width="1" fill="none" />
<polyline points="148.5,472.0,152.5,469.5,146.0,468.0,140.5,456.5,131.5,460.0,126.5,461.0,125.5,460.0" stroke="black" stroke-width="1" fill="none" />
<polyline points="150.5,466.5,151.5,454.5,147.0,466.5,152.5,482.0,149.0,480.5,152.5,476.0,156.5,478.5" stroke="orange" stroke-width="1" fill="none" />
<polyline points="159.5,479.5,151.5,477.0,162.0,471.0,154.5,464.0,156.5,464.5,151.0,454.0" stroke="black" stroke-width="1" fill="none" />
<polyline points="142.0,465.5,162.0,465.5,158.5,465.0,159.5,480.0,147.5,476.5,163.5,481.5,159.0,478.0,159.0,486.5,162.5,493.5,164.0,480.5,154.0,500.5,161.5,497.0,164.0,507.5,155.5,505.5,164.0,500.0,158.0,495.0,165.5,501.0,163.5,511.5" stroke="black" stroke-width="1" fill="none" />
<polyline points="163.5,459.0,159.5,455.0,169.5,447.5,170.5,444.0,158.5,457.5,168.0,455.0,149.5,450.0,151.5,448.0,149.0,438.0,155.0,431.0,147.5,439.0,143.0,427.5,149.5,424.5,153.0,426.5,149.5,428.0,130.0,417.5,131.0,418.5" stroke="orange" stroke-width="1" fill="none" />
<polyline points="154.0,419.0,155.0,422.5,145.5,416.5" stroke="black" stroke-width="1" fill="none" />
<polyline points="" stroke="black" stroke-width="1" fill="none" />
<polyline points="157.0,415.0,143.0,414.0,134.0,407.5,136.0,407.5,150.5,411.5,150.0,416.5,151.0,413.0,146.0,420.5,145.5,423.0" stroke="yellow" stroke-width="1" fill="none" />
<polyline points="157.0,424.5,154.0,425.0,150.0,433.0,151.5,433.5,152.5,429.0" stroke="green" stroke-width="1" fill="none" />
<polyline points="152.0,415.5,159.5,419.5,144.0,407.0,157.5,406.5,144.0,404.5,150.0,399.5,137.0,391.0,141.5,395.5" stroke="yellow" stroke-width="1" fill="none" />
<polyline points="" stroke="black" stroke-width="1" fill="none" />
<polyline points="" stroke="yellow" stroke-width="1" fill="none" />
<polyline points="137.0,394.5,143.5,401.0,131.5,405.5,129.0,402.5,125.0,399.0,129.5,398.0" stroke="green" stroke-width="1" fill="none" />
<polyline points="" stroke="yellow" stroke-width="1" fill="none" />
<polyline points="133.5,401.0,123.0,394.0,135.5,400.5,138.0,394.5,141.5,395.0,143.5,389.0,134.0,391.0,148.5,381.0,141.5,382.0,143.0,366.0,144.5,350.5,147.0,364.5,151.0,371.5,141.5,351.0,142.5,345.5,148.0,350.0,140.5,336.0,137.0,347.5,138.5,326.5,137.5,334.0,141.5,328.0,135.0,316.5,142.5,316.5,136.0,319.5,126.0,299.5,125.5,309.5,131.5,311.0,122.5,303.5,125.5,287.0,123.0,293.0,131.5,288.5,123.5,285.0,130.5,272.5,128.5,272.0,127.5,270.5" stroke="green" stroke-width="1" fill="none" />
<polyline points="129.5,275.0,124.0,268.5,116.5,276.0,137.5,279.5,132.5,281.5,116.5,282.0,116.5,291.0,125.0,296.0,120.5,303.5,121.5,315.0,110.5,313.5,117.5,312.0,124.5,320.5,120.0,317.0,113.5,323.0,111.0,327.5,117.5,330.0,120.0,340.5,136.0,342.0,138.0,345.0,131.0,349.5" stroke="yellow" stroke-width="1" fill="none" />
<polyline points="" stroke="orange" stroke-width="1" fill="none" />
<polyline points="124.5,357.5,108.5,358.5,108.5,355.5,107.5,366.0,111.5,376.5,107.5,378.0,114.5,379.5,112.5,376.0,114.0,399.0,112.0,398.0,113.5,400.5" stroke="black" stroke-width="1" fill="none" />
<polyline points="124.0,371.0,127.5,384.5,121.0,377.0,125.5,380.5,131.0,379.0,120.5,377.0,123.0,381.5,123.0,383.0,126.0,385.5" stroke="black" stroke-width="1" fill="none" />
<polyline points="126.0,373.5,121.0,380.0,121.0,373.5,120.0,376.0,118.0,379.5,114.0,376.5,115.5,379.5" stroke="black" stroke-width="1" fill="none" />
<polyline points="118.5,393.5,127.5,391.0,118.0,384.5,125.0,396.0,119.5,385.5,121.0,388.5,117.5,389.0,120.0,388.0" stroke="green" stroke-width="1" fill="none" />
<polyline points="127.5,402.0,123.5,400.0,128.5,398.0,128.0,393.0,135.0,388.5,131.0,385.0,142.5,388.5,136.5,389.0" stroke="orange" stroke-width="1" fill="none" />
<polyline points="" stroke="orange" stroke-width="1" fill="none" />
<polyline points="118.5,404.5,114.0,414.0,115.5,409.0,113.5,411.0,113.0,407.0" stroke="green" stroke-width="1" fill="none" />
<polyline points="110.0,412.0,127.5,417.0,124.5,403.0,128.5,407.0,122.5,420.5,124.0,418.5,128.5,424.0,127.5,422.5,124.5,422.0,123.5,423.0" stroke="orange" stroke-width="1" fill="none" />
<polyline points="139.5,409.0,123.0,412.5,119.5,421.5,121.0,411.5,120.5,429.5,119.5,421.0,121.0,419.0" stroke="green" stroke-width="1" fill="none" />
<polyline points="" stroke="black" stroke-width="1" fill="none" />
<polyline points="150.5,401.5,149.0,407.0,156.5,413.0,145.5,412.0" stroke="green" stroke-width="1" fill="none" />
<polyline points="" stroke="yellow" stroke-width="1" fill="none" />
<polyline points="" stroke="green" stroke-width="1" fill="none" />
<polyline points="" stroke="yellow" stroke-width="1" fill="none" />
<polyline points="162.0,404.0,165.0,400.5,165.0,395.5,170.0,405.5,176.0,399.0,179.0,411.5,181.0,416.0,173.0,414.5,178.5,427.5,174.0,425.5,176.5,427.5,178.5,427.5,178.5,436.0" stroke="black" stroke-width="1" fill="none" />
<polyline points="179.0,430.5,175.5,417.0,159.0,409.0,156.0,410.5,153.5,399.0,139.5,407.5,149.5,386.5,151.0,393.5,144.0,382.5,141.5,399.5,140.5,395.0,148.0,375.0,137.0,390.5,130.5,389.0,141.0,365.5,136.0,367.5,139.0,371.5,139.0,360.0,136.5,355.0,141.5,367.0,134.5,355.5,143.5,345.5,128.5,353.0,123.5,344.0,136.5,335.0,130.0,325.5" stroke="yellow" stroke-width="1" fill="none" />
<polyline points="131.0,350.0,125.0,340.0,120.0,339.0,119.5,339.0" stroke="green" stroke-width="1" fill="none" />
<polyline points="117.5,342.0,120.5,354.5,125.0,353.0,125.0,357.0,125.0,351.5,119.0,369.5,124.5,371.5,123.5,363.0,129.0,382.5,133.5,381.5,133.0,374.5,136.5,379.5,134.5,389.0,132.0,390.0,141.0,388.0,134.5,385.0,137.5,390.0" stroke="yellow" stroke-width="1" fill="none" />
<polyline points="" stroke="yellow" stroke-width="1" fill="none" />
<polyline points="" stroke="orange" stroke-width="1" fill="none" />
<polyline points="" stroke="yellow" stroke-width="1" fill="none" />
<polyline points="" stroke="green" stroke-width="1" fill="none" />
<polyline points="" stroke="yellow" stroke-width="1" fill="none" />
<polyline points="143.0,363.0,147.5,362.5,145.0,349.0,134.5,350.0,136.0,348.5,128.0,340.0" stroke="green" stroke-width="1" fill="none" />
<polyline points="" stroke="orange" stroke-width="1" fill="none" />
<polyline points="139.5,333.0,137.0,348.0,140.0,337.5,139.5,325.5,145.0,322.0,144.0,322.0" stroke="orange" stroke-width="1" fill="none" />
<polyline points="" stroke="black" stroke-width="1" fill="none" />
<polyline points="125.0,347.0,127.0,348.0,130.5,349.0,127.5,347.5" stroke="orange" stroke-width="1" fill="none" />
<polyline points="128.0,362.0,110.0,363.0,121.5,361.5,107.5,377.5,124.5,375.0,114.5,378.5,116.5,397.5,121.0,390.0,123.0,397.0,119.5,396.5,119.5,400.0,122.0,398.5,124.0,403.0,119.0,411.5" stroke="green" stroke-width="1" fill="none" />
<polyline points="" stroke="orange" stroke-width="1" fill="none" />
<polyline points="" stroke="green" stroke-width="1" fill="none" />
<polyline points="" stroke="orange" stroke-width="1" fill="none" />
<polyline points="133.0,419.5,144.0,421.0,138.5,423.0" stroke="green" stroke-width="1" fill="none" />
<polyline points="123.5,431.0,115.0,436.0,120.0,432.5,119.5,441.0,116.0,442.5,116.0,449.5,115.5,440.5,119.0,451.0,117.5,453.0,118.5,449.0" stroke="orange" stroke-width="1" fill="none" />
<polyline points="" stroke="orange" stroke-width="1" fill="none" />
<polyline points="117.0,458.5" stroke="green" stroke-width="1" fill="none" />
<polyline points="114.0,459.5,123.0,452.5,126.5,449.5,127.5,453.0,123.5,457.5" stroke="orange" stroke-width="1" fill="none" />
<polyline points="121.5,452.5,112.0,432.5,114.5,434.5,109.5,435.5,116.0,430.5" stroke="black" stroke-width="1" fill="none" />
<polyline points="102.5,442.0,106.0,452.0,109.5,451.5,112.5,447.0,98.0,447.0,105.0,442.5" stroke="green" stroke-width="1" fill="none" />
<polyline points="76.0,472.0,84.0,463.5,90.0,467.5,95.5,445.5,86.5,449.0,92.0,448.5,89.0,449.0" stroke="black" stroke-width="1" fill="none" />
<polyline points="76.5,468.0,85.0,456.0,87.5,453.0,84.0,447.0,86.5,447.5" stroke="yellow" stroke-width="1" fill="none" />
<polyline points="94.0,469.0,103.0,467.0" stroke="yellow" stroke-width="1" fill="none" />
<polyline points="87.0,503.5,86.0,500.0" stroke="green" stroke-width="1" fill="none" />
<polyline points="" stroke="yellow" stroke-width="1" fill="none" />
<polyline points="118.0,519.5,107.5,510.5,107.5,510.0,109.0,517.5" stroke="yellow" stroke-width="1" fill="none" />
<polyline points="" stroke="green" stroke-width="1" fill="none" />
<polyline points="103.0,502.0,113.5,514.5,105.0,516.0,113.5,509.5,116.5,510.0" stroke="black" stroke-width="1" fill="none" />
<polyline points="" stroke="black" stroke-width="1" fill="none" />
<polyline points="110.5,487.5,124.5,489.0,129.5,477.0,123.5,499.0,136.5,501.0,135.0,500.5,131.5,503.0,131.0,505.5" stroke="yellow" stroke-width="1" fill="none" />
<polyline points="148.5,434.0,148.0,422.5,135.0,425.0,141.5,426.0,130.5,421.0,127.0,424.5,130.0,426.5" stroke="yellow" stroke-width="1" fill="none" />
<polyline points="132.5,417.5,133.0,420.5,125.5,416.0,151.0,432.5,146.5,433.5,139.0,453.0,131.5,446.5,139.0,449.0,147.5,453.5,143.0,465.0,137.5,465.0" stroke="orange" stroke-width="1" fill="none" />
<polyline points="143.5,425.0,135.5,416.5,129.5,422.5" stroke="yellow" stroke-width="1" fill="none" />
<polyline points="118.0,420.0,131.0,432.5,112.5,431.5,118.0,423.5,121.5,429.0,122.5,434.5,118.0,432.5" stroke="black" stroke-width="1" fill="none" />
<polyline points="112.0,419.0,108.5,429.0,108.5,427.0,111.0,426.5" stroke="green" stroke-width="1" fill="none" />
<polyline points="" stroke="green" stroke-width="1" fill="none" />
<polyline points="106.0,439.0,110.0,439.5,111.5,440.0" stroke="green" stroke-width="1" fill="none" />
<polyline points="91.5,441.5,97.5,446.0,91.0,441.5,100.0,441.0,96.0,442.5,101.5,432.5,98.0,429.5,104.0,427.0,107.0,419.5,112.5,422.0,107.0,416.5,115.5,419.5,114.0,420.0" stroke="yellow" stroke-width="1" fill="none" />
<polyline points="" stroke="yellow" stroke-width="1" fill="none" />
<polyline points="86.5,429.0,94.5,431.5,94.0,422.0,87.0,414.5,85.0,416.5" stroke="black" stroke-width="1" fill="none" />
<polyline points="" stroke="green" stroke-width="1" fill="none" />
<polyline points="" stroke="green" stroke-width="1" fill="none" />
<polyline points="" stroke="green" stroke-width="1" fill="none" />
<polyline points="87.5,401.0,95.5,420.0,92.5,404.5,92.5,401.5,97.0,405.5,84.0,402.0,87.5,387.5,104.0,382.0,88.5,380.5,94.5,383.5,88.5,390.5,73.5,388.0,74.0,386.5,70.0,384.0,76.0,386.0,76.5,386.0" stroke="black" stroke-width="1" fill="none" />
<polyline points="83.5,394.5,76.5,394.0,68.0,401.0,76.0,406.5,55.5,418.0,72.5,422.5,80.5,423.5,73.0,426.0,70.0,429.0,60.5,427.0,69.5,426.5,69.0,431.5,76.0,432.5,70.0,429.0,62.5,438.0,72.5,442.0,67.0,449.5,73.0,459.5,74.5,461.5,61.0,467.5,69.5,454.5,68.0,483.0,77.5,469.0,67.0,481.0,63.5,481.0,63.0,487.5,60.0,488.5,59.0,493.5,70.0,511.5,60.0,493.5,60.0,509.0,62.5,513.0,65.0,504.5,65.5,519.5,51.0,518.0,58.5,522.0,63.5,529.5" stroke="green" stroke-width="1" fill="none" />
<polyline points="" stroke="yellow" stroke-width="1" fill="none" />
<polyline points="82.5,492.5,74.0,485.5,83.5,482.5,80.5,482.5,75.0,473.0,70.0,476.5,69.0,482.0,67.0,484.5" stroke="yellow" stroke-width="1" fill="none" />
<polyline points="64.5,480.5,63.5,485.0" stroke="black" stroke-width="1" fill="none" />
<polyline points="71.0,459.0,67.5,449.0,72.0,454.0,78.0,451.5,75.5,450.5,73.0,450.0" stroke="orange" stroke-width="1" fill="none" />
<polyline points="71.5,466.5,69.5,468.0" stroke="yellow" stroke-width="1" fill="none" />
<polyline points="" stroke="orange" stroke-width="1" fill="none" />
<polyline points="64.0,448.0,62.5,460.0,70.0,460.5,80.0,465.5,74.0,475.0,69.0,474.5,71.0,474.0" stroke="yellow" stroke-width="1" fill="none" />
<polyline points="" stroke="orange" stroke-width="1" fill="none" />
<polyline points="19.0,504.5,10.0,504.0,8.0,505.0,13.5,500.0,14.5,507.0" stroke="black" stroke-width="1" fill="none" />
<polyline points="" stroke="orange" stroke-width="1" fill="none" />
<polyline points="17.5,424.0,16.5,420.0,7.0,422.0,14.5,423.0,7.0,430.0,8.0,428.0,3.5,423.0,0.5,423.5,-0.5,424.0" stroke="yellow" stroke-width="1" fill="none" />
<polyline points="7.5,438.5,8.0,440.5,28.0,435.5,6.0,441.0,17.0,447.0,15.0,450.0,12.5,453.0,10.5,456.5,19.5,465.5,9.5,461.5,14.0,473.0,15.5,469.5" stroke="orange" stroke-width="1" fill="none" />
<polyline points="36.5,458.5,30.5,457.5,42.0,439.5,28.0,441.0,46.5,435.5,38.5,424.0,29.0,440.5,28.0,443.0" stroke="green" stroke-width="1" fill="none" />
<polyline points="20.0,410.5,29.5,413.5,30.5,411.5" stroke="yellow" stroke-width="1" fill="none" />
<polyline points="23.5,412.0,20.5,414.0,16.0,410.5,20.0,429.0,18.5,418.5,31.5,432.5,27.5,433.0,19.0,437.5,24.0,445.0,29.0,451.0,21.0,442.0,37.5,459.0,34.5,458.0,25.0,459.0,33.0,475.5,26.5,475.0,29.0,477.5,31.5,470.5,26.5,485.5,30.5,483.0,25.5,490.0,26.5,497.5,34.0,504.0,25.5,508.5,34.0,498.5,25.5,498.5,29.5,496.0" stroke="black" stroke-width="1" fill="none" />
<polyline points="" stroke="green" stroke-width="1" fill="none" />
<polyline points="60.5,425.5,73.5,436.0,60.5,430.0,66.0,424.0,69.5,423.0,74.5,429.0,69.0,417.0,74.0,422.5,70.0,412.0,71.0,405.5,86.0,402.5,72.0,403.5,71.5,406.0,63.0,406.0,71.5,405.0,65.5,403.5" stroke="yellow" stroke-width="1" fill="none" />
<polyline points="" stroke="black" stroke-width="1" fill="none" />
<polyline points="73.5,407.0" stroke="green" stroke-width="1" fill="none" />
<polyline points="64.5,409.5,70.0,418.5,56.0,418.0,70.5,424.0,56.0,414.5,70.0,413.0,66.5,426.5,80.0,408.5,80.0,409.0" stroke="green" stroke-width="1" fill="none" />
<polyline points="" stroke="black" stroke-width="1" fill="none" />
<polyline points="" stroke="black" stroke-width="1" fill="none" />
<polyline points="111.0,410.5,113.5,408.0,106.0,408.0,124.0,401.5,119.5,408.5,122.5,408.5,114.0,406.5,115.0,407.0" stroke="black" stroke-width="1" fill="none" />
<polyline points="87.5,402.5,102.5,398.5,103.5,399.5,109.5,411.5,88.0,419.5,107.5,417.5,95.5,412.5" stroke="green" stroke-width="1" fill="none" />
<polyline points="107.0,403.0,108.0,402.0,113.0,402.5,108.0,401.0,112.5,394.5,111.5,383.0,111.0,378.5,107.5,386.5,100.0,384.5,99.0,385.5" stroke="orange" stroke-width="1" fill="none" />
<polyline points="96.5,376.5,108.0,379.0,98.5,381.0,107.0,375.5,107.5,364.0,115.5,367.0,112.0,362.5,107.5,356.0,107.5,355.5,99.5,343.0,107.0,353.5,106.5,349.5" stroke="black" stroke-width="1" fill="none" />
<polyline points="102.5,335.5,100.0,334.5,102.0,336.5,111.0,342.0,104.5,327.0,109.5,323.0,113.0,326.5,107.0,325.5,113.5,330.5,117.5,332.0,117.5,334.5,107.5,337.0,105.0,337.0" stroke="green" stroke-width="1" fill="none" />
<polyline points="113.0,322.5,119.0,329.5,110.0,326.5" stroke="black" stroke-width="1" fill="none" />
<polyline points="112.0,317.0,120.5,318.0,123.0,311.5,121.0,313.0,112.0,316.0,108.0,325.0,115.5,322.0,107.0,318.0,107.5,313.0,109.0,307.0,113.5,325.5,112.5,318.5,112.5,327.0,118.0,322.0,112.0,311.0,119.5,313.0" stroke="yellow" stroke-width="1" fill="none" />
<polyline points="109.0,320.5,102.0,334.0,100.0,334.0,94.5,332.0,95.0,340.0,92.5,334.0,92.5,338.0" stroke="orange" stroke-width="1" fill="none" />
<polyline points="" stroke="orange" stroke-width="1" fill="none" />
<polyline points="90.0,372.5,80.5,368.5,86.5,377.5,87.0,384.5,77.5,380.0,77.0,374.0,83.0,384.5,81.0,393.5,80.5,406.0,80.0,398.0,97.5,408.5,86.5,412.5,97.5,407.0,101.0,413.0,99.5,403.5,103.5,412.0" stroke="yellow" stroke-width="1" fill="none" />
<polyline points="" stroke="black" stroke-width="1" fill="none" />
<polyline points="122.0,374.0,121.0,374.0,148.0,380.0,143.0,392.0,139.0,391.0,133.0,384.5,145.5,391.5,135.5,395.5,135.0,390.0,143.5,394.5" stroke="green" stroke-width="1" fill="none" />
<polyline points="" stroke="green" stroke-width="1" fill="none" />
<polyline points="120.5,371.0,140.0,384.5,131.0,389.5,131.5,390.0" stroke="orange" stroke-width="1" fill="none" />
<polyline points="147.5,355.5,142.0,361.0,137.5,357.5,125.0,356.5,134.5,359.0,129.0,353.5,123.0,360.5,125.5,354.5,122.5,357.5" stroke="black" stroke-width="1" fill="none" />
<polyline points="134.5,367.5,138.5,362.0,146.0,361.5,142.5,365.0,151.0,363.5" stroke="green" stroke-width="1" fill="none" />
<polyline points="173.0,358.5,175.0,361.5,180.5,349.5,182.5,354.5,187.5,354.5,183.0,352.0" stroke="yellow" stroke-width="1" fill="none" />
<polyline points="188.5,326.5,165.5,337.0,166.0,340.5,173.0,345.0,158.5,361.5,159.5,363.0,149.5,375.5,155.0,363.0,166.5,363.5,166.5,353.5,167.5,355.5,171.5,347.0,182.0,347.5,180.0,337.5,180.0,335.5,183.5,334.5,184.0,334.5,188.0,320.0,189.0,319.5,189.0,320.5" stroke="orange" stroke-width="1" fill="none" />
<polyline points="186.0,343.5,183.5,351.0,193.5,355.0,193.5,352.0,195.0,349.0,193.5,347.5" stroke="green" stroke-width="1" fill="none" />
<polyline points="" stroke="green" stroke-width="1" fill="none" />
<polyline points="157.0,366.5,161.5,361.0" stroke="orange" stroke-width="1" fill="none" />
<polyline points="158.5,370.5,163.5,371.0,167.0,359.5,167.5,349.5,169.0,357.5,172.0,353.5,166.0,348.0,179.0,341.0,177.5,332.0,174.5,333.0,173.5,331.5,172.0,331.0,176.0,340.5,164.0,345.5,168.5,340.5" stroke="black" stroke-width="1" fill="none" />
<polyline points="161.0,325.5,157.0,331.5,162.5,328.5,158.5,327.5,160.5,318.5" stroke="yellow" stroke-width="1" fill="none" />
<polyline points="" stroke="yellow" stroke-width="1" fill="none" />
<polyline points="167.5,316.5,172.0,314.0,173.5,323.5,166.5,320.5,160.0,337.5,158.5,320.5,156.0,327.0,147.5,327.5,140.5,340.5,140.5,345.5,124.0,332.5,138.0,332.5,136.0,331.0,122.5,328.0,130.0,324.5,131.5,320.5,135.0,313.5,146.5,317.5,135.5,310.5,129.0,301.5,121.0,298.5,141.5,299.0,144.0,285.5,132.0,285.5,126.0,275.5,138.5,264.0,139.0,274.0,137.0,279.5,142.5,283.5,141.0,284.5,148.0,277.0,141.0,276.0,140.5,276.0,153.0,262.0,151.5,264.5,160.0,260.5,172.0,255.5,168.5,247.0,173.0,238.0,151.0,241.5,158.0,241.0,157.5,238.0" stroke="green" stroke-width="1" fill="none" />
<polyline points="" stroke="yellow" stroke-width="1" fill="none" />
<polyline points="148.0,247.0,138.0,248.0,146.0,256.5,153.0,258.0,153.0,257.5,142.5,261.0,152.5,265.0,155.5,266.5,151.0,257.0" stroke="green" stroke-width="1" fill="none" />
<polyline points="" stroke="yellow" stroke-width="1" fill="none" />
<polyline points="158.0,275.5,155.5,270.0,160.5,274.0,159.0,265.5,164.0,247.0,156.0,262.5,160.0,262.0,149.0,277.0,156.0,265.5,142.5,272.5,159.5,273.0,145.0,283.0,151.0,290.5,153.0,292.0,161.0,291.5,163.5,299.0,165.5,300.5,159.0,314.0,150.5,313.0,168.0,313.0,158.0,305.5,155.5,314.5,151.0,318.5,161.0,322.0,168.0,318.5,151.0,326.5,167.0,306.0,175.0,309.5,169.5,294.0,188.5,293.5" stroke="yellow" stroke-width="1" fill="none" />
<polyline points="" stroke="yellow" stroke-width="1" fill="none" />
<polyline points="176.0,308.5,169.5,305.0,172.5,304.5,172.0,303.0,169.0,305.0" stroke="green" stroke-width="1" fill="none" />
<polyline points="191.0,304.5,190.0,306.5,187.5,314.5,173.5,314.5,181.0,315.5,188.0,322.0,175.5,322.5" stroke="black" stroke-width="1" fill="none" />
<polyline points="175.5,319.0,171.5,313.5,166.5,312.5,170.5,310.0" stroke="orange" stroke-width="1" fill="none" />
<polyline points="159.5,306.5,165.0,302.0,170.0,289.0,171.5,294.5,166.0,283.5,170.5,288.5,165.5,292.0,163.5,295.0,165.0,281.0,162.0,283.5,158.5,273.5,176.0,289.5,169.5,275.0,159.0,276.0,168.0,282.5,168.5,287.0,162.5,286.5,164.0,297.0,165.0,277.5,154.0,280.5,156.5,275.0,159.5,266.5,157.5,267.0,170.0,266.0,177.5,261.5,171.0,268.0,173.0,253.5,173.0,253.5,180.0,251.0,178.5,249.0,172.5,233.5,172.5,243.0" stroke="yellow" stroke-width="1" fill="none" />
<polyline points="178.0,240.5,182.0,245.0,173.5,249.5,175.0,247.5" stroke="yellow" stroke-width="1" fill="none" />
<polyline points="187.5,271.0,184.0,260.0,178.5,261.0,184.5,263.0,185.5,265.5" stroke="yellow" stroke-width="1" fill="none" />
<polyline points="231.0,275.5,226.0,272.5,228.0,261.0,228.0,270.5,231.0,272.5,228.5,278.0,224.5,279.0,223.5,280.0" stroke="black" stroke-width="1" fill="none" />
<polyline points="222.5,319.0,227.0,325.5,237.0,329.0,221.0,337.0,226.0,342.5,218.5,342.0,218.0,341.5" stroke="black" stroke-width="1" fill="none" />
<polyline points="" stroke="orange" stroke-width="1" fill="none" />
<polyline points="261.5,389.5,266.5,391.5,255.0,389.0,255.0,387.5,255.0,385.5,243.5,392.5,244.5,388.0,245.5,390.0,242.5,387.0,240.0,388.0" stroke="orange" stroke-width="1" fill="none" />
<polyline points="264.5,354.5,267.5,353.0,277.0,347.5,275.0,354.0" stroke="orange" stroke-width="1" fill="none" />
<polyline points="270.5,357.0,273.0,356.5,265.0,355.0,271.0,350.5,271.5,347.5,275.5,345.5" stroke="orange" stroke-width="1" fill="none" />
<polyline points="221.5,368.5,217.5,369.5,225.0,364.5,224.0,358.0,213.5,356.5,217.0,347.0,216.5,343.5,224.5,344.5,227.0,348.0,217.5,332.0,224.5,322.0,202.0,319.5,218.0,323.0,222.5,316.0,209.5,317.5,226.0,304.0,219.5,309.0,219.0,299.0,216.5,308.0,214.5,305.0,213.5,303.5" stroke="green" stroke-width="1" fill="none" />
<polyline points="171.0,297.5,171.5,294.5,180.5,298.5,179.0,296.5" stroke="green" stroke-width="1" fill="none" />
<polyline points="164.0,288.0,172.5,301.0,179.5,300.0,179.5,312.0,183.5,311.5,178.0,315.5" stroke="yellow" stroke-width="1" fill="none" />
<polyline points="153.5,322.5,154.5,317.5,153.0,317.0" stroke="green" stroke-width="1" fill="none" />
<polyline points="" stroke="orange" stroke-width="1" fill="none" />
<polyline points="" stroke="black" stroke-width="1" fill="none" />
<polyline points="" stroke="black" stroke-width="1" fill="none" />
<polyline points="158.0,307.0,168.5,303.5,162.0,302.0,162.0,303.0,160.0,299.5" stroke="black" stroke-width="1" fill="none" />
<polyline points="165.0,290.0" stroke="yellow" stroke-width="1" fill="none" />
<polyline points="" stroke="orange" stroke-width="1" fill="none" />
<polyline points="175.5,297.0,172.5,291.0,182.0,298.0,184.0,304.5,182.5,299.0,162.0,285.5,177.0,278.0" stroke="green" stroke-width="1" fill="none" />
<polyline points="188.5,296.5,184.5,289.0,176.5,308.0,178.5,303.5,173.0,318.5,173.5,315.5,173.0,312.5,173.0,315.0,176.0,317.0" stroke="orange" stroke-width="1" fill="none" />
<polyline points="153.5,298.0,156.5,297.5,154.0,300.0,151.5,299.5" stroke="yellow" stroke-width="1" fill="none" />
<polyline points="" stroke="green" stroke-width="1" fill="none" />
<polyline points="175.0,313.0,166.0,300.0,160.0,306.5,162.0,308.0,178.5,317.0,165.5,325.5,160.5,321.5,160.0,333.0,169.0,329.0,155.5,323.0,153.0,330.0,168.0,339.5,145.5,345.5,150.5,361.0,157.5,347.0,157.5,357.0,143.5,359.5,149.0,355.0,143.0,356.5,142.0,360.0,166.0,357.0,146.0,349.0,157.5,347.0,163.5,356.0,157.5,348.5,157.0,344.0,158.5,339.0,153.0,346.0,153.5,346.5,155.5,351.5,150.5,353.5,149.5,354.5,159.5,353.0" stroke="green" stroke-width="1" fill="none" />
<polyline points="159.5,294.5,161.5,292.0,158.5,290.0,164.0,284.5,160.5,282.0" stroke="black" stroke-width="1" fill="none" />
<polyline points="160.5,262.5,163.5,260.0,164.0,257.5,163.0,272.0,164.5,266.5" stroke="orange" stroke-width="1" fill="none" />
<polyline points="155.5,279.0,171.0,284.0,170.0,279.0,170.0,278.0" stroke="black" stroke-width="1" fill="none" />
<polyline points="" stroke="orange" stroke-width="1" fill="none" />
<polyline points="170.0,284.5,168.0,289.0,191.5,286.0,182.0,288.0,179.5,288.5,180.0,280.5" stroke="green" stroke-width="1" fill="none" />
<polyline points="" stroke="orange" stroke-width="1" fill="none" />
<polyline points="" stroke="yellow" stroke-width="1" fill="none" />
<polyline points="156.0,269.5,142.0,269.5,152.0,257.0,171.5,264.0,171.5,253.0,166.5,256.0,173.5,257.0,160.5,243.0,158.5,247.5,162.5,247.0,159.0,252.0,156.5,251.0,161.5,258.5,153.5,260.0,155.0,262.0,138.5,259.0,130.0,262.5,135.5,271.0,145.0,264.5,138.0,262.5,127.5,255.0,124.5,271.5,130.0,263.0,143.0,263.0,129.0,255.0,120.5,253.0,137.0,253.0,133.0,240.5,144.0,242.5,135.5,243.0,135.5,231.5,140.0,230.0,132.0,230.5,122.0,221.5,135.0,217.0,135.0,211.0,134.0,213.5,123.0,199.0,129.5,200.5,123.0,201.5,127.0,194.5,121.0,184.0,121.0,184.0,122.5,171.5,114.0,181.5,115.0,174.5,123.5,161.0,112.0,160.5,118.5,156.0,130.0,151.5,126.0,151.0,109.5,147.5,111.0,136.0,123.0,149.0,127.5,136.0,126.5,129.0,115.5,135.5,126.5,123.5,126.0,120.5,130.5,113.0,129.5,109.5,124.0,108.0,129.5,111.5,132.0,107.5,146.5,98.5,136.5,104.0,135.0,107.5,147.0,104.0,143.0,102.5" stroke="green" stroke-width="1" fill="none" />
<polyline points="126.5,121.0,137.0,118.0,132.0,118.0,135.5,124.5,127.0,132.5,133.0,128.0,126.5,141.0,127.0,137.0,128.5,151.5,124.5,146.0,124.5,152.0,135.5,160.0,134.5,171.0" stroke="green" stroke-width="1" fill="none" />
<polyline points="135.5,156.0,136.5,148.5,136.0,161.5,141.0,164.5,141.5,163.0,129.5,182.5,128.0,167.0,136.0,158.0" stroke="green" stroke-width="1" fill="none" />
<polyline points="145.5,166.5,140.5,178.5,143.0,179.5,141.0,173.5,132.5,169.0,134.5,174.5,137.5,180.5,132.5,179.5" stroke="green" stroke-width="1" fill="none" />
<polyline points="" stroke="yellow" stroke-width="1" fill="none" />
<polyline points="138.0,173.0,138.0,175.5" stroke="yellow" stroke-width="1" fill="none" />
<polyline points="149.5,182.5,151.0,180.0,145.5,176.0,148.5,178.5,141.5,171.0,137.0,176.0,137.5,171.5" stroke="yellow" stroke-width="1" fill="none" />
<polyline points="157.0,165.5,147.0,190.5,142.0,179.0,141.5,193.0,147.0,196.0,143.0,201.5" stroke="green" stroke-width="1" fill="none" />
<polyline points="153.5,201.0,153.0,200.0,151.5,198.5" stroke="black" stroke-width="1" fill="none" />
<polyline points="" stroke="green" stroke-width="1" fill="none" />
<polyline points="" stroke="orange" stroke-width="1" fill="none" />
<polyline points="148.5,184.0,149.0,179.5,146.0,183.5" stroke="yellow" stroke-width="1" fill="none" />
<polyline points="146.5,184.5,143.5,180.5,147.0,180.5,147.0,178.0" stroke="black" stroke-width="1" fill="none" />
<polyline points="" stroke="orange" stroke-width="1" fill="none" />
<polyline points="150.0,202.0,160.5,190.5,164.0,170.0,164.0,187.5,168.5,178.0,173.5,169.0,179.5,163.5,181.0,162.0,189.0,154.5,196.0,155.0,192.5,148.0,196.0,154.0,202.0,146.5,199.5,147.0,191.5,151.5,202.5,150.5" stroke="yellow" stroke-width="1" fill="none" />
<polyline points="" stroke="orange" stroke-width="1" fill="none" />
<polyline points="223.0,155.0,219.0,155.5,219.0,156.5" stroke="yellow" stroke-width="1" fill="none" />
<polyline points="" stroke="black" stroke-width="1" fill="none" />
<polyline points="232.5,176.0,231.0,171.5,225.5,176.5,216.0,178.5,220.5,174.0,213.0,191.5,213.5,189.0,210.0,185.5" stroke="black" stroke-width="1" fill="none" />
<polyline points="203.0,185.5,204.5,191.5,214.0,186.0,204.0,174.5,219.0,172.5,226.5,176.5,226.5,179.0,231.0,171.5,236.5,180.5,234.5,170.0,237.0,177.0,237.0,176.5" stroke="green" stroke-width="1" fill="none" />
<polyline points="242.0,188.0,233.5,188.5,224.5,172.5,237.0,186.0,215.0,197.5,214.5,193.0,213.5,203.0,204.5,209.0,206.0,214.5,196.5,220.0,202.5,214.5,205.5,223.0,207.5,219.5,208.5,220.5" stroke="black" stroke-width="1" fill="none" />
<polyline points="216.0,211.5,220.5,203.0,221.0,189.5,223.0,192.0,223.0,195.5,230.5,180.5,229.0,189.0,224.5,187.0,230.0,184.0" stroke="yellow" stroke-width="1" fill="none" />
<polyline points="232.5,186.5,214.5,192.0,205.5,201.5,212.0,204.0,206.5,209.5,205.0,215.0,201.0,199.5,204.0,208.0,220.5,199.5,214.5,203.0,227.5,183.0,225.5,186.0,226.0,177.5,219.0,183.5,221.0,186.0,217.0,186.0,220.0,183.0" stroke="orange" stroke-width="1" fill="none" />
<polyline points="216.5,191.5,219.5,193.5,223.5,182.0,212.0,182.5,215.5,190.0,223.5,183.5" stroke="yellow" stroke-width="1" fill="none" />
<polyline points="" stroke="orange" stroke-width="1" fill="none" />
<polyline points="220.0,190.0,224.0,193.0,221.5,183.5,210.5,203.5,213.0,201.5,207.5,198.5" stroke="green" stroke-width="1" fill="none" />
<polyline points="189.5,200.5,184.5,195.5,184.0,197.0,173.5,200.5" stroke="orange" stroke-width="1" fill="none" />
<polyline points="" stroke="green" stroke-width="1" fill="none" />
<polyline points="189.0,200.5,177.5,216.0,174.0,209.5" stroke="green" stroke-width="1" fill="none" />
<polyline points="" stroke="orange" stroke-width="1" fill="none" />
<polyline points="199.5,198.5,187.0,210.0,196.0,208.5,174.5,214.0,192.5,215.0,184.5,220.5,189.5,216.0,192.5,215.0,191.5,220.5,191.5,220.0" stroke="green" stroke-width="1" fill="none" />
<polyline points="" stroke="orange" stroke-width="1" fill="none" />
<polyline points="179.0,211.5,177.5,218.0,176.5,208.5,185.0,213.5,185.0,209.0" stroke="yellow" stroke-width="1" fill="none" />
<polyline points="176.5,207.5,183.5,208.5,172.5,205.0,170.5,213.5,172.0,224.5,174.5,206.5,175.5,204.5,175.0,202.5" stroke="yellow" stroke-width="1" fill="none" />
<polyline points="166.0,220.5,164.5,228.5,180.0,228.5,167.0,222.0,177.5,220.5,179.5,223.0,177.5,221.0" stroke="green" stroke-width="1" fill="none" />
<polyline points="" stroke="green" stroke-width="1" fill="none" />
<polyline points="174.0,247.0,166.5,250.0,165.5,246.5,171.5,251.5,168.0,252.5" stroke="orange" stroke-width="1" fill="none" />
<polyline points="146.0,271.5,134.5,272.5,133.0,271.0,138.5,278.5,129.0,283.5,118.5,276.5,121.0,278.0,130.5,257.0,126.5,255.5,129.0,253.0" stroke="black" stroke-width="1" fill="none" />
<polyline points="" stroke="black" stroke-width="1" fill="none" />
<polyline points="113.5,290.5,112.5,289.0,113.5,288.5,109.5,300.5,113.0,303.0,91.0,307.0,97.5,302.5,94.5,307.5,89.5,316.5,94.0,324.5,91.0,325.5,88.5,325.5,89.5,325.5,82.0,330.5,71.5,349.5,79.0,337.5,70.0,342.0,79.0,348.5,76.5,354.0,65.5,350.5,67.0,364.0,70.5,360.0,69.0,362.5,76.0,354.0,72.0,342.5,89.5,326.0,95.5,335.5,93.5,334.5,98.0,335.0,98.5,335.5,103.0,335.5" stroke="black" stroke-width="1" fill="none" />
<polyline points="86.0,320.5,84.0,326.5,88.5,324.5,84.0,330.0,90.0,337.5,78.5,339.0,73.0,345.5,64.5,346.5,85.0,354.5,56.0,348.5,76.5,362.5,70.0,359.0,66.5,368.5,70.5,354.5,85.0,356.5,80.5,348.5,78.0,334.0,97.0,335.5,101.0,337.5,94.5,346.0,87.5,352.0,84.0,339.0,88.0,353.0,83.5,353.0,82.5,363.0,82.5,356.0,78.0,359.0,76.5,381.0,75.0,366.0,91.0,346.5,99.5,351.0,101.0,345.0,96.0,351.0" stroke="yellow" stroke-width="1" fill="none" />
<polyline points="110.5,371.5,103.5,376.0,104.0,373.0,112.5,368.0,107.0,371.0,108.5,374.0,104.5,375.0" stroke="black" stroke-width="1" fill="none" />
<polyline points="112.5,358.0,118.0,358.5,116.5,364.0,108.5,361.0,105.5,360.5" stroke="green" stroke-width="1" fill="none" />
<polyline points="" stroke="black" stroke-width="1" fill="none" />
<polyline points="" stroke="orange" stroke-width="1" fill="none" />
<polyline points="140.5,364.5" stroke="orange" stroke-width="1" fill="none" />
<polyline points="" stroke="yellow" stroke-width="1" fill="none" />
<polyline points="85.0,365.5,76.5,367.0,75.0,360.5,77.0,366.5,64.0,375.0" stroke="yellow" stroke-width="1" fill="none" />
<polyline points="80.0,382.5,75.0,386.0,75.5,402.0,65.0,399.5,65.0,397.5,59.5,403.0,59.0,400.5,61.0,392.5,60.0,380.5,69.5,376.0,76.0,382.5,79.0,392.0,70.0,382.0,61.5,388.5,71.5,393.5,68.0,399.0,56.5,400.5,61.0,396.0,69.5,393.0,72.0,388.5,60.0,376.0,75.0,381.0,86.0,371.0,91.5,360.0,74.0,370.5,97.5,359.0,91.0,361.5,85.0,356.5,88.5,362.0,93.5,342.5,96.0,354.0,90.0,335.5,98.5,348.5,97.5,333.0,81.0,345.5,87.5,352.0,85.5,338.5,81.5,328.5,87.0,328.5,91.0,327.0,90.5,322.5,96.0,311.5,94.0,317.0,104.5,313.0,96.0,303.0,104.0,303.5,116.0,301.0,109.0,310.0,103.0,304.0,96.5,316.0,90.5,309.5,89.5,318.5,89.5,310.0,91.0,314.5,87.5,313.5,89.0,313.5" stroke="black" stroke-width="1" fill="none" />
<polyline points="86.0,316.5,86.5,306.0,84.5,303.0,79.0,306.0,102.0,312.0,100.0,297.0,98.0,305.5,101.5,297.0,104.0,302.5,104.0,293.5" stroke="orange" stroke-width="1" fill="none" />
<polyline points="92.5,303.0,94.5,303.5,89.0,301.0,96.0,295.0,89.0,295.5,105.0,297.5,97.5,298.5,104.5,288.0,111.5,289.5,108.5,291.5" stroke="green" stroke-width="1" fill="none" />
<polyline points="82.5,299.5,87.5,298.5,89.5,300.5" stroke="green" stroke-width="1" fill="none" />
<polyline points="76.5,305.0,87.5,289.5,87.0,297.5,96.5,282.5,97.0,286.0" stroke="green" stroke-width="1" fill="none" />
<polyline points="118.5,275.0,114.0,277.0,117.0,273.5,120.0,277.5" stroke="orange" stroke-width="1" fill="none" />
<polyline points="119.0,261.0,116.5,279.5,103.0,284.5,106.0,279.5,108.0,278.0,104.0,288.0,100.0,272.0,105.0,278.0,110.0,290.5,107.5,273.5,117.0,268.5,113.0,288.5" stroke="orange" stroke-width="1" fill="none" />
<polyline points="92.0,286.5,97.0,284.5,95.0,278.5" stroke="black" stroke-width="1" fill="none" />
<polyline points="91.0,277.5,100.5,270.0,101.0,271.5,109.5,271.5,98.0,269.0,98.5,280.0,88.5,279.0,92.5,279.5,96.0,276.5,103.0,284.5,115.5,286.5,101.5,287.0,111.5,278.5,98.0,282.5,112.5,284.5,115.5,282.5,117.5,283.5,124.5,276.0,126.0,272.5,127.0,268.0" stroke="black" stroke-width="1" fill="none" />
<polyline points="121.5,281.0,123.0,281.5,101.0,282.0,106.0,283.5,100.5,295.0,95.5,307.0,89.5,300.5,81.5,308.5,84.0,326.0,88.5,317.5,74.5,317.5,71.0,324.5,78.0,315.0,78.0,318.0,101.5,323.0,92.0,316.0,88.5,319.0,89.5,317.5,89.0,314.0" stroke="black" stroke-width="1" fill="none" />
<polyline points="119.5,299.5,112.5,304.0,123.0,302.5,124.5,299.5" stroke="orange" stroke-width="1" fill="none" />
<polyline points="110.0,328.5" stroke="orange" stroke-width="1" fill="none" />
<polyline points="72.0,314.0,75.5,308.5,69.5,296.0,73.5,292.5" stroke="green" stroke-width="1" fill="none" />
<polyline points="" stroke="orange" stroke-width="1" fill="none" />
<polyline points="88.5,309.5,84.5,312.5,87.0,310.0,89.0,304.5,94.5,309.0,94.5,300.0,93.0,302.0,89.5,300.0" stroke="yellow" stroke-width="1" fill="none" />
<polyline points="91.5,306.5,95.5,303.5" stroke="orange" stroke-width="1" fill="none" />
<polyline points="114.0,288.0,109.0,294.5" stroke="green" stroke-width="1" fill="none" />
<polyline points="105.0,287.5,112.5,287.0,114.5,280.0,114.5,279.0,109.5,283.0,109.0,275.0" stroke="green" stroke-width="1" fill="none" />
<polyline points="" stroke="black" stroke-width="1" fill="none" />
<polyline points="115.0,300.5,115.5,300.0,107.5,300.5,110.0,294.0,100.5,302.5,97.0,314.5,105.5,322.0,101.0,318.5,100.0,327.0,112.5,337.0,108.5,338.5,101.5,333.0,104.5,335.5,100.0,329.5,109.5,327.5,121.0,321.5,100.0,318.5,119.5,309.5,124.0,295.5,122.0,301.5,129.5,309.0,119.5,308.5,126.5,309.0,127.0,309.0,139.5,307.5" stroke="black" stroke-width="1" fill="none" />
<polyline points="115.5,310.5,136.0,309.0,135.0,316.0,126.0,314.0,135.5,321.5,129.5,321.0,133.5,329.5,139.5,325.0,126.5,334.0,134.5,339.5,128.5,326.0,127.5,329.5,126.0,329.5" stroke="green" stroke-width="1" fill="none" />
<polyline points="111.5,319.5,112.0,327.0,106.0,329.5,106.0,345.5,103.0,345.0,100.0,342.0,93.5,351.5,102.0,354.5,98.0,346.0,97.0,354.0,106.5,352.0,92.5,366.0,91.5,375.0,95.5,387.5,86.5,375.0,86.5,383.5,93.0,391.0,95.5,397.5,85.0,385.5,91.5,387.0,87.0,387.5" stroke="orange" stroke-width="1" fill="none" />
<polyline points="81.0,409.0,82.5,400.5,69.5,405.0,80.0,416.5,77.0,419.0,86.5,414.0,88.0,412.5" stroke="orange" stroke-width="1" fill="none" />
<polyline points="24.5,378.0" stroke="orange" stroke-width="1" fill="none" />
<polyline points="122.5,281.0,125.5,291.0,123.0,298.0,112.5,297.5,109.0,305.0,105.5,317.0,117.0,314.5,111.5,312.0,106.0,315.0,117.5,295.0,123.0,298.5,130.5,287.5,128.5,293.5,133.0,289.5,136.5,286.0,138.0,286.0,138.5,288.5" stroke="yellow" stroke-width="1" fill="none" />
<polyline points="" stroke="black" stroke-width="1" fill="none" />
<polyline points="131.5,262.5,129.5,262.5" stroke="green" stroke-width="1" fill="none" />
<polyline points="" stroke="orange" stroke-width="1" fill="none" />
<polyline points="139.5,235.0,138.0,237.5,136.5,237.0,133.5,249.0,136.0,242.0,136.0,251.5,135.5,253.5" stroke="green" stroke-width="1" fill="none" />
<polyline points="" stroke="black" stroke-width="1" fill="none" />
<polyline points="" stroke="black" stroke-width="1" fill="none" />
<polyline points="146.5,214.0,152.5,213.5,146.5,212.0,144.0,208.5,150.0,216.5,150.5,207.0,153.5,213.0,155.0,216.5,150.0,213.5" stroke="black" stroke-width="1" fill="none" />
<polyline points="143.5,182.5,139.0,185.0,145.5,187.5,136.0,182.0,124.0,180.5,136.5,183.0,132.0,164.0,146.0,170.0,135.5,176.0,139.0,178.0,145.0,173.5,149.5,176.0" stroke="orange" stroke-width="1" fill="none" />
<polyline points="141.5,198.5,141.0,199.0,144.5,188.5,144.0,177.0,152.0,182.0,149.0,188.0" stroke="black" stroke-width="1" fill="none" />
<polyline points="164.0,190.5,149.0,187.0,153.0,193.0,151.5,197.0,142.0,185.5,130.0,191.5,145.5,192.5,131.5,198.0,125.0,195.5,128.5,196.5" stroke="orange" stroke-width="1" fill="none" />
<polyline points="" stroke="green" stroke-width="1" fill="none" />
<polyline points="139.0,198.0,144.5,197.0,157.5,202.0,142.5,204.5,148.0,199.0,157.5,212.5,141.5,216.0,147.5,208.5,145.0,196.0,154.0,208.5,154.0,196.5,151.0,198.0,149.0,198.5" stroke="orange" stroke-width="1" fill="none" />
<polyline points="123.0,201.0,115.0,191.0" stroke="black" stroke-width="1" fill="none" />
<polyline points="" stroke="yellow" stroke-width="1" fill="none" />
<polyline points="" stroke="black" stroke-width="1" fill="none" />
<polyline points="118.5,253.5,109.5,269.0,116.0,257.0,131.0,253.5,120.0,249.0,130.5,249.5,127.0,247.5,144.5,241.5,137.5,238.0,148.0,238.0,148.5,228.5,156.0,233.0,157.0,211.5,157.5,227.0" stroke="yellow" stroke-width="1" fill="none" />
<polyline points="162.5,231.5,143.0,236.0,142.5,230.0,138.0,239.0,145.0,232.0,133.5,252.0,142.5,243.5,135.5,244.5,131.5,254.0,137.0,276.5,122.0,266.5,130.0,270.0,139.0,265.5" stroke="orange" stroke-width="1" fill="none" />
<polyline points="153.5,250.0,163.0,253.5,162.5,254.5,162.5,256.5,157.5,258.0,153.0,259.5" stroke="yellow" stroke-width="1" fill="none" />
<polyline points="163.5,226.5,161.0,236.0,164.0,225.0,171.5,222.5,163.5,219.5,162.5,220.5" stroke="yellow" stroke-width="1" fill="none" />
<polyline points="" stroke="green" stroke-width="1" fill="none" />
<polyline points="172.0,239.5,164.5,243.0,163.0,239.0,159.5,244.5,156.5,251.0,158.5,246.0,161.0,261.5,150.0,255.0,147.0,259.0,147.0,258.5,144.0,270.5,140.0,274.5,140.5,279.5,130.0,282.5,124.0,283.0,120.5,287.0,133.5,292.0,126.0,298.5,124.5,308.0,128.0,317.0,128.5,316.0,125.0,313.5,122.5,322.0,123.0,335.5,122.5,330.0,140.0,329.0,135.0,333.0,131.0,342.0,130.0,361.5,134.0,348.5,136.5,357.0,148.0,351.0,144.5,360.0,142.5,355.0,144.5,364.0,136.5,377.0,147.0,384.0,140.5,375.0,143.5,384.0,148.5,385.0,152.0,390.0,151.0,398.5,140.5,390.0,154.5,394.0,153.5,405.5,153.0,408.0,155.0,407.5,160.0,407.5,173.0,417.0,162.0,411.0,163.0,421.0" stroke="orange" stroke-width="1" fill="none" />
<polyline points="" stroke="orange" stroke-width="1" fill="none" />
<polyline points="" stroke="green" stroke-width="1" fill="none" />
<polyline points="205.5,436.5,185.5,439.0" stroke="green" stroke-width="1" fill="none" />
<polyline points="193.0,438.5,190.0,436.5" stroke="yellow" stroke-width="1" fill="none" />
<polyline points="" stroke="black" stroke-width="1" fill="none" />
<polyline points="187.0,398.5,187.0,402.0,192.5,395.5,187.0,404.5,198.0,396.5,178.5,400.5,184.5,406.0,187.5,410.0,189.5,422.0,178.5,425.5,195.5,430.0,190.0,423.0,175.5,434.0,196.5,438.5,184.5,441.5,179.5,441.5,179.5,442.5,196.0,449.0,188.5,447.5,193.0,448.5" stroke="yellow" stroke-width="1" fill="none" />
<polyline points="372.5,364.0,374.0,364.5,380.0,353.5,382.0,356.5,379.0,343.0,382.5,335.0,385.5,342.5,382.0,329.5,378.5,331.0,385.5,326.0,382.0,319.5,376.5,308.5,370.0,310.5,376.0,305.0,377.5,303.5,373.5,294.5,375.0,290.0" stroke="orange" stroke-width="1" fill="none" />
<polyline points="385.0,294.5,380.0,283.0,387.5,283.0,387.5,282.5" stroke="black" stroke-width="1" fill="none" />
<polyline points="368.5,273.5,369.0,278.5,370.5,275.5,375.5,283.0,375.0,281.5,351.5,283.5,371.0,295.5,363.0,308.5,371.5,311.5,366.5,306.5,369.5,313.0,363.5,314.0,369.0,309.0,367.0,312.0,373.0,313.5" stroke="green" stroke-width="1" fill="none" />
<polyline points="340.5,282.0,352.0,287.0,350.0,272.5,337.0,275.0,330.5,279.0,335.5,282.0,324.0,280.5,318.5,277.5,319.0,273.0,316.0,274.0" stroke="green" stroke-width="1" fill="none" />
<polyline points="327.5,268.5,332.5,271.5" stroke="orange" stroke-width="1" fill="none" />
<polyline points="317.0,269.0,322.0,262.0,324.0,258.5,327.5,253.0,328.5,256.5,324.0,256.0,325.0,259.5,328.0,264.5" stroke="orange" stroke-width="1" fill="none" />
<polyline points="373.0,266.5,360.5,271.0,361.5,278.5,359.5,280.0,361.5,282.0" stroke="orange" stroke-width="1" fill="none" />
<polyline points="293.5,221.5,290.0,230.0,281.5,237.5,289.0,224.5,296.5,214.5,297.0,211.5,288.0,217.5,301.0,227.0" stroke="yellow" stroke-width="1" fill="none" />
<polyline points="274.5,219.5,271.5,210.0,272.0,215.5,276.5,220.0,272.5,212.5,281.5,205.0,280.5,199.5,294.5,196.0,288.0,197.5,299.5,189.0,298.0,190.5,307.0,187.5,314.5,179.5,305.0,187.0,326.5,169.0,319.0,176.5,314.5,183.5,315.0,182.0,316.0,178.5" stroke="green" stroke-width="1" fill="none" />
<polyline points="305.5,178.5,305.0,177.5,302.5,182.0,303.5,173.0,300.5,179.0,298.0,186.5,296.5,186.5,281.0,189.5,279.5,199.5,278.5,194.5,282.5,200.5,273.0,203.5,268.5,203.0,262.5,213.5,255.0,215.0,264.5,225.0,254.0,231.0,253.5,235.0,253.5,227.0,249.5,234.5,239.0,241.0,239.5,255.5,233.0,244.5,230.5,257.5,227.5,258.0,213.0,262.5,211.0,275.5,215.0,284.5,210.5,301.0,206.0,311.0,200.0,315.0,200.5,314.5,195.5,320.0,198.5,315.0,203.5,306.5,195.5,307.0,195.0,304.5,204.5,306.5,213.0,305.5,207.5,291.5,205.5,294.0,213.5,281.0,211.5,280.5,216.0,268.5,218.5,269.5,230.0,273.5,231.5,260.5,223.0,260.0,230.0,256.5,229.0,255.0,231.0,241.5,230.0,247.0,239.0,241.5,242.0,239.5,237.0,235.0,259.0,228.5,261.0,224.0,261.5,211.0,265.5,215.0,266.5,210.5,257.5,216.0" stroke="green" stroke-width="1" fill="none" />
<polyline points="259.0,203.5,259.0,209.5,274.5,215.5" stroke="orange" stroke-width="1" fill="none" />
<polyline points="248.5,202.0,239.5,211.0,238.0,217.5,242.5,219.0" stroke="green" stroke-width="1" fill="none" />
<polyline points="208.0,191.0,207.0,200.0,213.5,198.5,222.0,184.0,211.5,192.5,218.0,192.5,227.0,187.5,230.5,184.5,231.0,190.5,231.5,181.0" stroke="black" stroke-width="1" fill="none" />
<polyline points="230.5,184.5,228.0,177.0,226.5,180.0,225.5,176.5,213.0,186.0,219.5,175.5,204.5,194.0,207.0,200.5,200.5,196.5,203.5,190.5,217.5,190.5,220.5,182.5,217.5,187.5,239.5,195.0,224.5,195.0,227.5,188.0,234.0,190.0" stroke="yellow" stroke-width="1" fill="none" />
<polyline points="239.5,174.0,238.5,177.5,238.5,187.0,239.5,181.0,240.0,184.5,238.0,191.0,241.0,183.5,239.5,187.0,242.0,186.0" stroke="green" stroke-width="1" fill="none" />
<polyline points="240.0,180.0,251.0,178.5,239.5,193.0,240.0,204.0,247.5,192.0,236.5,209.5,239.0,199.5,243.5,212.0,230.5,213.0,231.5,211.0,233.0,215.0,243.0,205.5,245.5,202.5,248.0,205.0" stroke="orange" stroke-width="1" fill="none" />
<polyline points="251.0,204.0,244.5,193.0,253.0,195.5,252.5,197.5,244.0,186.0,250.5,185.0,265.5,177.5,269.5,184.5,270.5,187.5,269.5,193.0" stroke="yellow" stroke-width="1" fill="none" />
<polyline points="265.0,187.5,265.5,186.5,260.5,185.0,248.0,197.0" stroke="green" stroke-width="1" fill="none" />
<polyline points="253.0,203.0,249.0,203.0,253.0,195.0,239.5,202.0,244.5,199.0,240.5,198.5,239.5,197.0,249.0,191.5,235.5,186.0,249.5,180.5,254.0,185.0,256.0,187.5" stroke="green" stroke-width="1" fill="none" />
<polyline points="275.5,173.0,273.0,171.5,277.0,182.0,281.5,176.0,278.5,173.0,296.5,175.0,301.0,176.5,287.5,176.5,286.0,182.0,290.0,190.0,280.5,192.5,262.5,199.0,266.0,189.5,258.0,199.5,267.5,196.0,274.0,196.0,281.5,187.0,289.5,189.0,285.0,185.0,300.5,181.0,295.5,181.0,298.5,184.0,311.0,176.0,300.5,175.5,318.0,169.0,317.5,162.0,324.5,164.0,324.0,165.0,330.0,157.5,340.0,164.5,347.5,155.0,351.5,158.0,354.0,152.0,354.0,155.5" stroke="green" stroke-width="1" fill="none" />
<polyline points="302.5,180.0,310.0,172.5,305.0,178.5,300.5,186.5,284.0,179.0,284.0,198.5,277.0,190.5,263.5,195.0,267.0,201.0,254.0,213.5,270.5,195.0,269.0,211.5,257.5,214.5,264.0,215.5,268.0,220.5,261.0,221.0,263.0,231.0,273.5,237.0,260.5,233.0,267.5,244.5,268.0,245.0,264.0,243.0,266.0,241.5" stroke="green" stroke-width="1" fill="none" />
<polyline points="275.5,190.0,276.0,203.0,272.0,193.0,272.5,195.0" stroke="black" stroke-width="1" fill="none" />
<polyline points="265.5,168.5,266.0,157.5,262.5,167.0,262.0,170.0,266.0,160.0,265.0,169.0,268.5,171.0" stroke="yellow" stroke-width="1" fill="none" />
<polyline points="" stroke="black" stroke-width="1" fill="none" />
<polyline points="266.5,174.0,255.0,174.5,266.5,166.0,250.5,182.5,253.0,185.5" stroke="black" stroke-width="1" fill="none" />
<polyline points="246.5,142.0,244.0,135.5,243.0,146.5,244.0,139.0,258.5,139.5,252.5,126.5,246.0,129.5,252.5,139.0,252.0,136.5,248.5,142.5,239.0,137.0,239.5,138.5" stroke="yellow" stroke-width="1" fill="none" />
<polyline points="" stroke="orange" stroke-width="1" fill="none" />
<polyline points="226.5,133.5,225.5,150.5,222.5,139.0,219.5,142.5,206.0,147.5" stroke="yellow" stroke-width="1" fill="none" />
<polyline points="218.0,131.5,208.5,139.0" stroke="black" stroke-width="1" fill="none" />
<polyline points="201.0,131.0,212.0,139.5,206.5,153.0,221.0,157.5,218.5,167.5,223.5,158.5" stroke="yellow" stroke-width="1" fill="none" />
<polyline points="" stroke="black" stroke-width="1" fill="none" />
<polyline points="191.5,183.5,195.0,178.0,178.5,190.5,181.5,194.5,182.5,199.0,172.0,196.0,166.0,204.0,167.5,208.0,159.5,199.0,176.5,192.5,185.0,187.0,174.5,181.5,190.5,171.5,193.5,174.0" stroke="green" stroke-width="1" fill="none" />
<polyline points="202.0,183.0,204.0,188.0,207.0,195.5,204.5,195.0,202.5,195.0,200.5,196.5,202.0,198.5,193.0,199.5,194.0,192.0,198.5,198.0,198.0,202.5" stroke="green" stroke-width="1" fill="none" />
<polyline points="" stroke="orange" stroke-width="1" fill="none" />
<polyline points="198.0,137.0,196.0,136.0,211.0,136.0,211.5,134.5,201.5,140.0,216.0,125.0,229.0,131.0,222.0,133.0" stroke="orange" stroke-width="1" fill="none" />
<polyline points="226.5,130.5,222.5,133.0,209.5,135.0,216.0,135.5,215.0,149.0,215.0,135.0,229.0,124.0,220.5,117.5,224.5,110.5,231.5,115.0,239.0,117.0,231.0,107.5,236.0,102.0" stroke="green" stroke-width="1" fill="none" />
<polyline points="217.5,125.0,213.0,136.5,213.0,134.5,206.5,146.5,197.5,145.5,193.0,154.5,192.0,152.5,187.0,162.5,177.0,164.0,176.5,167.5,171.5,181.5,170.5,173.0,167.5,189.0,166.0,185.0,161.0,186.0,156.0,194.5,154.0,202.5,153.5,195.5,152.5,204.0,154.0,206.5,152.0,220.5,144.0,218.0,151.0,218.0,142.0,218.5,148.0,229.0,139.5,236.0,140.0,242.5,140.5,240.5,148.5,232.5,147.0,251.0,131.5,253.0,136.5,247.5,130.5,256.5,134.0,261.0,142.0,260.5,142.0,261.5" stroke="black" stroke-width="1" fill="none" />
<polyline points="135.0,176.0,127.0,174.5,149.5,167.5,137.0,158.5,152.0,165.0,139.5,165.0,142.5,153.5,135.5,149.5,135.0,150.5" stroke="black" stroke-width="1" fill="none" />
<polyline points="128.0,134.5,124.5,138.5" stroke="orange" stroke-width="1" fill="none" />
<polyline points="146.0,130.0,157.5,125.0,159.0,117.0,162.5,130.5,164.0,130.0,160.5,124.0" stroke="orange" stroke-width="1" fill="none" />
<polyline points="195.0,116.5,185.0,120.5,192.0,114.0,177.5,124.5,175.0,128.5,182.0,138.5,200.0,125.5,190.5,117.0,188.0,123.0,187.0,119.0" stroke="black" stroke-width="1" fill="none" />
<polyline points="182.5,124.5,191.0,108.5,177.0,122.5,193.5,113.0,187.0,114.5,191.5,116.0" stroke="black" stroke-width="1" fill="none" />
<polyline points="" stroke="black" stroke-width="1" fill="none" />
<polyline points="199.0,124.0,198.0,125.0,198.5,115.5,196.0,125.5,206.5,121.5,207.0,118.5,205.5,116.0,208.0,105.0,204.0,113.0,205.0,104.5" stroke="green" stroke-width="1" fill="none" />
<polyline points="" stroke="green" stroke-width="1" fill="none" />
<polyline points="221.0,125.5,230.0,128.5,213.5,137.5,217.5,139.5,212.5,141.5,210.0,139.5,202.5,141.5,206.5,143.0,189.5,156.0,207.0,157.5,200.0,143.5,207.5,152.5,208.0,137.5,224.5,132.0,218.5,132.5,233.5,130.5,239.0,126.0,236.0,128.0,232.0,135.0,235.5,134.5" stroke="yellow" stroke-width="1" fill="none" />
<polyline points="254.5,140.0,248.5,142.5,235.5,154.0,232.0,154.0,222.0,162.5,223.0,151.0,220.5,165.0,223.5,160.0,231.0,160.5,225.5,149.0,233.5,150.5,241.5,151.0,249.0,153.5,259.0,143.0,244.5,149.5,265.0,136.0,265.0,138.5" stroke="black" stroke-width="1" fill="none" />
<polyline points="" stroke="yellow" stroke-width="1" fill="none" />
<polyline points="295.5,138.0,295.0,137.5,289.0,143.5,291.5,143.0,301.0,141.5,291.5,136.5,301.5,130.0,298.5,136.0,303.0,136.0,302.0,138.5,301.0,138.0" stroke="green" stroke-width="1" fill="none" />
<polyline points="302.0,181.5,308.0,166.5,302.5,184.0,290.5,180.5,287.5,185.5,278.5,191.0,281.0,191.5,279.5,197.5,263.0,206.0,277.5,216.5" stroke="yellow" stroke-width="1" fill="none" />
<polyline points="240.0,93.0,234.5,100.0,228.5,102.0,225.5,103.5,216.0,102.5,224.0,103.5,224.5,114.5,234.0,97.0,239.5,104.5,232.5,96.0,228.0,91.0,227.5,97.0" stroke="green" stroke-width="1" fill="none" />
<polyline points="" stroke="black" stroke-width="1" fill="none" />
<polyline points="258.0,95.5" stroke="black" stroke-width="1" fill="none" />
<polyline points="235.0,101.0,238.0,99.0,244.0,91.0,250.0,99.0,237.5,105.0,222.0,112.5,226.0,103.5,221.0,116.0,215.5,116.5,215.0,116.0,207.0,105.5,198.0,124.0,201.0,122.0,195.5,134.5,187.5,135.5,182.5,139.0,180.5,130.5,175.5,131.5,173.0,158.0,177.0,142.5,162.5,158.0,162.5,160.0,166.0,157.0,148.5,166.0,143.5,176.0,151.5,168.5,159.0,161.0,165.0,167.0,160.0,152.5,178.0,147.5,177.0,153.0,183.5,139.5,187.0,128.5,184.5,136.5,193.0,130.5,207.5,122.5,198.5,121.0,207.5,123.0,225.5,119.5,213.0,107.0,214.0,97.5,239.0,106.0,236.0,96.5,236.0,95.0,244.0,86.5,249.0,87.0,265.5,90.0,257.5,85.5" stroke="black" stroke-width="1" fill="none" />
<polyline points="224.0,80.5,219.0,88.0,223.0,82.5,233.5,74.0,236.5,86.5" stroke="green" stroke-width="1" fill="none" />
<polyline points="" stroke="yellow" stroke-width="1" fill="none" />
<polyline points="229.0,48.0,231.5,44.0,239.0,40.0,230.0,32.5,235.5,55.0,235.0,41.5,247.5,45.5,241.5,42.0,250.0,42.5,257.5,52.0,262.0,54.5,269.5,60.0,266.5,48.0,272.5,61.0,287.0,58.0,277.5,67.0,280.0,66.0,277.5,59.5,282.0,73.5,287.0,72.0,301.5,68.0,297.0,72.5,304.5,80.5,312.0,97.0,314.0,90.5,318.5,95.5,327.5,96.0,332.0,103.5,333.0,113.5,334.0,117.0,341.5,135.5,347.5,132.5,361.0,130.0,347.5,143.5,352.5,145.5,371.0,138.5,371.0,139.5,364.5,142.5,373.0,133.0,384.0,140.5,376.5,141.5,387.0,127.0,395.0,121.0,400.5,125.0,392.5,117.5,397.0,107.5,401.0,111.0,403.5,115.5,413.5,121.5,416.0,115.0,416.5,117.0,417.0,119.0" stroke="orange" stroke-width="1" fill="none" />
<polyline points="418.5,127.5,421.5,111.0,417.5,125.5,414.0,136.0,411.5,134.5,415.5,147.0,417.5,145.5,423.0,155.0,408.5,150.0,417.5,149.0,415.0,167.5,414.0,174.0,398.0,168.5,409.5,168.5,404.0,179.0,398.0,189.0,395.0,188.0,395.0,187.0,391.5,197.5,384.5,200.5,375.5,200.5,376.0,207.5,371.5,209.0,368.0,217.0,369.0,222.5,370.5,211.0,375.5,204.0,380.5,205.5,387.5,203.0,385.5,188.0,397.0,192.5,398.0,193.5,406.0,186.0,408.5,178.5,405.0,164.0,411.5,159.0,426.0,160.0,420.5,155.0,419.0,161.0" stroke="black" stroke-width="1" fill="none" />
<polyline points="362.5,132.0,367.5,130.5,364.5,135.5" stroke="green" stroke-width="1" fill="none" />
<polyline points="" stroke="black" stroke-width="1" fill="none" />
<polyline points="385.0,94.0,386.0,96.5,385.5,98.0,375.5,100.5,377.0,111.0,382.5,115.0,379.5,111.0" stroke="black" stroke-width="1" fill="none" />
<polyline points="440.0,65.5,430.5,58.5,427.0,63.0,426.5,49.0,435.5,42.0,419.0,33.0,421.5,22.0,412.5,14.5,401.0,10.5" stroke="yellow" stroke-width="1" fill="none" />
<polyline points="502.5,94.0,500.0,93.0,497.0,99.0,484.5,105.0,487.0,102.5,488.0,114.0,476.0,110.0,471.0,120.5,478.0,117.5,465.5,130.5,472.5,129.0,471.0,140.5,462.5,135.5,456.5,140.5,455.5,140.0,455.0,146.5,460.5,147.0,444.5,169.5,449.0,162.0,453.5,170.0,456.5,166.5,446.0,174.0,433.0,176.5,436.5,171.0,444.0,195.5,436.0,191.5,434.5,202.0,432.5,197.0,429.0,206.0,428.0,211.0,423.5,220.5,427.0,204.0,418.0,218.0,414.5,228.5,415.5,219.5,420.5,236.5,419.0,241.0,421.0,234.5,417.5,248.0,408.5,244.0,409.5,253.0,413.5,250.0,411.5,261.5,413.0,268.0,413.5,276.5,398.5,273.5,396.0,276.5,407.0,275.0,400.0,282.0,398.0,295.0,402.0,284.0,400.0,285.5,396.5,303.0,393.5,306.5,404.0,297.0,390.5,308.5,395.5,326.0,401.0,321.5,395.0,321.5,393.5,326.0,386.0,325.0,387.0,331.0,394.0,342.0,387.0,336.0,381.0,340.5,389.5,342.0,391.5,342.5" stroke="orange" stroke-width="1" fill="none" />
<polyline points="346.5,142.5,342.5,136.0,339.5,130.5,332.0,125.5,333.5,135.0,333.0,108.5,332.5,117.0,326.5,108.5,329.0,105.5,312.5,96.0,307.0,96.0,308.5,88.5,294.0,84.0,290.5,80.0,296.5,81.5,281.5,67.0" stroke="orange" stroke-width="1" fill="none" />
<polyline points="" stroke="orange" stroke-width="1" fill="none" />
<polyline points="179.5,65.5,176.5,61.0,181.0,64.5,171.5,62.0,159.5,63.0,159.0,68.5,161.5,66.5,165.5,74.0,154.0,68.5,160.5,71.5,163.5,77.5,157.5,78.0,158.5,77.0" stroke="green" stroke-width="1" fill="none" />
<polyline points="161.0,82.5,152.0,76.0,158.5,77.5,165.5,81.5,170.5,83.0,164.5,75.0,169.0,76.0,168.5,74.0,168.0,68.5" stroke="black" stroke-width="1" fill="none" />
<polyline points="156.0,91.0,150.5,91.5,160.0,75.0" stroke="black" stroke-width="1" fill="none" />
</svg>