<svg xmlns="http://www.w3.org/2000/svg" width="1024" height="1024" version="1.1" fill="white"><polyline points="405.5,2.0,403.5,6.0,407.5,10.5,409.5,16.0,412.0,18.5,415.0,22.5,417.0,26.5,416.5,32.5,422.0,34.0,422.0,37.0,426.5,42.5,428.5,46.5,430.0,50.5,432.0,55.0,433.0,57.0,434.0,60.5,439.5,65.0,441.5,71.0" stroke="green" stroke-width="1" fill="none" />
<polyline points="455.0,58.5,452.0,51.0,450.0,47.0,444.0,35.5,438.0,35.5,436.0,27.0,430.5,18.0,429.0,14.5,427.0,5.5" stroke="black" stroke-width="1" fill="none" />
<polyline points="427.5,3.5,425.5,7.0,427.0,12.0,429.5,13.0,432.5,18.0,434.5,22.0,437.0,27.5,440.0,30.0,442.0,34.0,444.5,38.0,447.5,42.5,449.0,44.0,451.0,49.5,453.0,53.5,455.0,58.0,457.0,61.0,454.5,64.0,451.0,70.5,446.0,74.0,440.5,76.5,440.0,82.0,437.5,86.0,434.0,90.5,431.0,96.0,430.5,101.0,427.0,102.5,424.0,106.0,421.5,109.5,419.0,113.0,419.0,112.5,423.5,105.0,427.5,100.0,431.5,94.0,436.0,88.5,440.0,83.5,444.0,78.0,447.5,72.5,450.5,72.0,456.0,65.0,460.5,56.5,464.5,51.0,468.5,49.0,472.5,44.5,477.0,40.0,481.0,36.0,483.5,33.5,487.5,26.0,493.0,23.5,498.0,18.5,501.5,13.5,504.5,9.5,512.0,5.5,509.0,7.0" stroke="black" stroke-width="1" fill="none" />
<polyline points="509.0,11.5,503.0,15.0,498.0,19.0,496.0,22.0,490.0,29.0,487.0,30.5,485.0,35.0,477.0,40.5,475.5,43.5,472.5,48.5,467.0,50.5,463.0,57.0,459.0,59.0" stroke="black" stroke-width="1" fill="none" />
<polyline points="507.5,82.5,505.0,88.5,500.0,91.0,497.0,95.5,492.0,96.0,489.0,103.0,484.5,107.0,478.0,111.0,478.5,117.5,472.5,122.0,468.5,128.0,466.5,137.5,461.0,141.5" stroke="black" stroke-width="1" fill="none" />
<polyline points="452.5,151.0,449.5,160.5,446.5,166.0,442.0,173.5" stroke="yellow" stroke-width="1" fill="none" />
<polyline points="440.0,179.5,437.5,183.5,434.5,181.5" stroke="black" stroke-width="1" fill="none" />
<polyline points="428.5,191.0,425.0,200.5,423.0,204.5,425.5,215.0,416.5,215.5" stroke="black" stroke-width="1" fill="none" />
<polyline points="418.5,232.0,416.5,237.5,413.5,246.5" stroke="yellow" stroke-width="1" fill="none" />
<polyline points="404.5,278.5,400.0,282.5,397.0,290.0,401.5,286.0" stroke="black" stroke-width="1" fill="none" />
<polyline points="380.5,291.0,379.5,285.5,378.5,280.0,383.5,277.0,381.5,275.0,380.5,278.0" stroke="black" stroke-width="1" fill="none" />
<polyline points="379.5,268.0,377.0,266.0,378.0,260.0,376.5,258.0,374.5,254.5,374.0,250.5,373.0,244.0,373.5,240.5,370.0,237.5,367.0,232.5,368.5,229.5,370.5,226.0,370.0,221.5,372.0,218.0,370.5,212.5,370.5,220.0" stroke="yellow" stroke-width="1" fill="none" />
<polyline points="374.5,241.0,373.0,239.5,371.5,244.0" stroke="black" stroke-width="1" fill="none" />
<polyline points="369.5,250.0,369.5,253.0,370.0,257.0,371.5,261.5,375.0,264.5,373.0,269.0,372.0,273.0,374.0,274.5,373.5,277.0,373.5,281.0,376.5,284.0,373.5,287.5" stroke="green" stroke-width="1" fill="none" />
<polyline points="372.5,278.0,375.5,283.0,377.5,283.0,376.0,289.0,375.0,293.5,380.0,295.5,378.0,300.5,381.0,306.5,379.0,308.0,379.0,312.0,381.5,316.0,381.0,320.0,382.0,326.5,381.5,328.5,381.0,333.0,381.0,336.5,382.0,340.0,382.0,344.0,382.0,348.0" stroke="black" stroke-width="1" fill="none" />
<polyline points="368.5,352.5,370.0,356.5,370.5,360.0,370.5,364.0,370.5,367.5,370.0,374.5" stroke="black" stroke-width="1" fill="none" />
<polyline points="371.0,374.5,374.0,380.0,374.5,386.0" stroke="black" stroke-width="1" fill="none" />
<polyline points="382.5,385.5,378.5,389.5,380.0,394.0,379.5,397.0,378.5,401.0" stroke="black" stroke-width="1" fill="none" />
<polyline points="364.5,434.0,359.5,423.5,358.0,415.0,351.5,413.0,346.5,410.5,343.0,405.0,339.0,404.0,333.0,397.0,331.0,398.0,327.5,396.0,323.5,394.5,319.0,393.0,317.5,391.5,310.5,390.0,308.0,390.0,304.5,389.5,300.5,388.5" stroke="black" stroke-width="1" fill="none" />
<polyline points="314.0,380.5,314.5,374.0,320.0,366.0,325.0,360.0,331.0,352.5,330.5,345.0,335.0,338.0,341.5,327.0,346.5,321.5" stroke="green" stroke-width="1" fill="none" />
<polyline points="355.0,328.0,355.0,332.5,354.0,337.0,353.0,341.0,352.0,338.5" stroke="black" stroke-width="1" fill="none" />
<polyline points="353.5,353.5,356.0,358.5,355.0,362.0,354.0,363.5,353.0,370.0,350.5,370.0,351.0,375.0,352.5,380.5,354.5,384.5,352.0,390.5,351.0,395.0,353.0,398.5,350.5,400.5,351.0,404.5,352.0,408.5,351.5,413.0" stroke="black" stroke-width="1" fill="none" />
<polyline points="361.0,383.5,362.0,382.0,358.0,378.5,362.5,372.5,359.5,370.0,360.0,364.5" stroke="black" stroke-width="1" fill="none" />
<polyline points="357.0,359.0,360.5,364.5,359.5,368.5,359.0,375.0,359.5,377.5,359.5,383.0" stroke="black" stroke-width="1" fill="none" />
<polyline points="354.5,358.0,354.5,360.0,354.0,364.0,351.5,367.5,354.0,371.5,353.0,373.5,354.5,380.5,352.0,383.0,357.0,388.0,354.5,391.5,355.0,395.5,357.0,398.5,358.0,403.5,356.5,408.5,357.5,410.0,356.0,412.5" stroke="black" stroke-width="1" fill="none" />
<polyline points="372.5,461.5,371.5,457.5,373.0,452.5,372.0,449.5,372.0,445.5,372.5,441.0,373.0,435.5,375.0,431.0,372.0,427.5,374.5,424.5,374.0,421.5,376.0,416.0,376.0,412.0,374.0,410.0,378.5,403.0,377.5,400.5,377.5,396.5,377.5,392.0,376.0,386.5,379.5,384.5,378.5,380.5,380.0,376.5,377.0,369.5,377.5,368.0,378.5,364.0,380.5,359.0,380.0,356.5,379.0,352.5,377.0,347.5,376.5,344.5,376.0,340.5,377.0,337.5,375.0,333.0,372.0,331.0,373.0,325.5,372.5,321.5,373.5,318.0,373.5,311.0,371.5,309.0,371.0,304.5,371.5,300.5,371.0,296.5,370.5,292.5,369.5,285.5,368.0,285.0,369.5,280.5,370.0,277.5,369.5,272.0,368.5,268.0,370.0,264.5,370.0,261.5,370.0,257.0,367.0,252.5,367.0,248.5,363.5,242.5,366.5,240.0,365.0,233.5,364.0,234.0,365.5,227.0,363.5,223.5,358.5,217.5,358.5,216.5,356.0,213.5,355.5,208.5,353.5,207.5,351.0,202.0,350.5,200.5,350.0,196.5" stroke="black" stroke-width="1" fill="none" />
<polyline points="346.0,197.5,350.5,204.5" stroke="black" stroke-width="1" fill="none" />
<polyline points="349.5,200.5,353.5,206.0,355.5,214.5" stroke="black" stroke-width="1" fill="none" />
<polyline points="360.5,203.5,357.5,194.0" stroke="black" stroke-width="1" fill="none" />
<polyline points="365.0,196.0,362.5,197.5,365.5,204.0,364.0,206.0,362.5,207.5" stroke="green" stroke-width="1" fill="none" />
<polyline points="355.0,203.5,351.0,199.5,348.5,200.0" stroke="black" stroke-width="1" fill="none" />
<polyline points="351.5,199.0,355.5,206.0" stroke="black" stroke-width="1" fill="none" />
<polyline points="346.5,205.0,342.5,200.5" stroke="black" stroke-width="1" fill="none" />
<polyline points="340.5,203.5,347.5,210.0,351.0,214.0,351.0,221.0,356.0,223.0,357.0,225.5,360.5,232.5,362.0,239.0,364.0,241.5,364.5,245.5,365.0,249.0" stroke="black" stroke-width="1" fill="none" />
<polyline points="361.5,246.5,364.5,249.0,364.0,245.0" stroke="black" stroke-width="1" fill="none" />
<polyline points="349.5,245.5,344.5,249.5,341.0,253.5" stroke="black" stroke-width="1" fill="none" />
<polyline points="342.5,257.5,339.5,255.0,335.5,256.0,331.5,256.5" stroke="black" stroke-width="1" fill="none" />
<polyline points="325.0,259.5,331.0,254.5,335.0,252.5,339.0,251.5,342.5,250.0,347.5,250.0,353.0,243.0" stroke="black" stroke-width="1" fill="none" />
<polyline points="351.5,254.0" stroke="black" stroke-width="1" fill="none" />
<polyline points="337.5,263.5,343.5,265.5,343.0,270.5,341.5,274.5,337.5,280.5,342.5,282.5,345.0,283.5" stroke="black" stroke-width="1" fill="none" />
<polyline points="336.0,280.0,340.5,281.5,343.0,280.0,349.0,278.5,351.0,282.0,351.0,287.0,350.5,291.0,348.0,296.5,350.5,300.5,347.0,305.5,349.0,306.0,344.5,312.0,347.0,314.0,345.0,317.5,343.0,321.0,341.0,324.5,342.0,326.0,334.5,333.0,335.5,336.5,333.5,340.5,332.0,344.5,329.0,349.5,327.5,352.5,325.5,356.0,325.5,361.0,322.0,365.0,319.0,368.0,318.5,371.0,318.0,378.0,314.0,381.5,315.0,384.5,314.5,386.0,318.5,392.0,327.5,396.0,333.5,399.5,342.0,404.5,347.0,408.5,350.5,412.5,354.0,416.5,356.5,420.5,356.0,423.0,359.0,427.5,363.0,432.5,364.5,436.5,365.0,440.5,367.0,442.5,369.0,447.5,366.0,454.0,370.0,458.5,370.0,462.0,372.5,463.5,372.0,470.5,374.5,471.5,376.0,477.5,377.0,479.5,380.0,487.5,380.0,489.0,381.0,492.5,382.0,496.5,382.5,501.0,383.5,504.0,385.0,511.0,385.5,512.0" stroke="black" stroke-width="1" fill="none" />
<polyline points="421.5,491.5,425.5,495.0,428.5,492.5,433.5,491.0,437.0,488.0,442.0,483.5,444.0,482.0,448.0,474.5,452.0,470.0,456.5,466.5" stroke="black" stroke-width="1" fill="none" />
<polyline points="463.0,466.5,455.5,471.0,455.0,467.0" stroke="yellow" stroke-width="1" fill="none" />
<polyline points="455.0,453.0,461.0,444.0" stroke="black" stroke-width="1" fill="none" />
<polyline points="470.5,422.0,473.0,417.0,475.0,408.0,481.0,405.5,485.5,401.5,487.0,399.5,494.0,395.0,496.5,391.0,497.5,387.5,503.5,389.0,509.0,386.0,509.0,388.0" stroke="black" stroke-width="1" fill="none" />
<polyline points="512.5,382.0,502.0,386.0,493.5,390.5,490.5,395.0,486.0,399.5,480.0,405.0,475.5,405.5,478.0,412.0,475.0,414.5,473.0,420.5,469.5,424.0,470.0,427.0,466.0,431.5,462.5,435.5,460.0,438.5,458.5,443.0,457.0,447.0,457.0,451.0,454.5,455.0,454.5,459.0,453.0,462.5,451.0,466.5,449.0,470.5,449.5,475.0,446.5,481.5,443.0,483.5,437.5,487.5,432.5,489.0" stroke="green" stroke-width="1" fill="none" />
<polyline points="432.5,478.5,431.0,479.5,433.0,475.0,433.0,478.0,436.0,475.0,437.5,471.5,437.5,467.0,439.0,463.0,440.0,459.5,439.5,458.0,435.5,453.0,431.5,452.0" stroke="black" stroke-width="1" fill="none" />
<polyline points="441.0,459.0,435.0,455.0,429.0,451.0,430.5,447.5,433.5,441.5,431.5,439.0,432.5,435.0,434.5,431.0,432.5,434.0" stroke="black" stroke-width="1" fill="none" />
<polyline points="427.5,468.5,426.5,471.0,420.0,473.5,422.0,479.0,420.5,485.5,422.5,487.0,423.5,491.5" stroke="black" stroke-width="1" fill="none" />
<polyline points="418.0,468.5,419.0,471.5,423.0,477.0,424.5,470.5,428.5,468.0" stroke="black" stroke-width="1" fill="none" />
<polyline points="487.0,409.0,481.0,415.0,480.0,417.5,482.0,413.5,487.5,410.0" stroke="yellow" stroke-width="1" fill="none" />
<polyline points="446.5,423.0,446.0,422.5,445.5,419.5,449.0,415.5,449.5,411.5,450.5,407.5,451.0,403.5,448.5,401.0,451.0,395.0,451.5,391.0,450.5,384.5,453.5,382.5,453.5,378.5,453.5,375.0,453.5,371.0,453.5,368.5" stroke="black" stroke-width="1" fill="none" />
<polyline points="385.0,346.5,386.0,348.0,384.5,344.5,384.0,340.5,384.5,336.5,384.0,333.0,383.5,329.0" stroke="black" stroke-width="1" fill="none" />
<polyline points="367.0,352.5,367.5,356.0,368.0,360.5,368.5,364.5,367.5,368.5,373.0,374.0,370.0,378.0,371.5,379.0,372.5,387.0" stroke="black" stroke-width="1" fill="none" />
<polyline points="320.5,345.5,319.5,343.5,320.0,341.0" stroke="black" stroke-width="1" fill="none" />
<polyline points="320.0,347.5,313.0,348.0,312.5,351.5,307.5,351.5" stroke="black" stroke-width="1" fill="none" />
<polyline points="310.0,354.5,306.0,355.0,301.5,353.0,299.0,356.5,293.5,354.5" stroke="green" stroke-width="1" fill="none" />
<polyline points="293.5,360.0,297.5,360.0,299.5,361.0,305.5,360.0,309.5,359.0,308.5,359.5,307.5,361.5,309.0,366.0" stroke="black" stroke-width="1" fill="none" />
<polyline points="309.5,349.0,302.0,349.5,300.5,348.0,296.5,349.0,292.5,350.0" stroke="black" stroke-width="1" fill="none" />
<polyline points="305.0,330.5,318.0,327.5,315.0,328.5,311.0,330.5,306.0,331.5" stroke="yellow" stroke-width="1" fill="none" />
<polyline points="308.5,329.5,304.0,328.0,300.0,327.5" stroke="black" stroke-width="1" fill="none" />
<polyline points="290.0,321.0,293.0,318.0,303.0,324.5,307.0,326.0" stroke="black" stroke-width="1" fill="none" />
<polyline points="320.0,327.0,321.0,324.5,322.5,318.5,322.5,317.5,322.0,313.0,321.5,309.5,321.5,304.5" stroke="black" stroke-width="1" fill="none" />
<polyline points="337.0,283.5,338.5,276.0" stroke="black" stroke-width="1" fill="none" />
<polyline points="333.5,272.0,335.0,274.5,337.5,270.5,337.0,266.0" stroke="green" stroke-width="1" fill="none" />
<polyline points="328.5,271.5,326.5,270.5,329.0,270.0,334.0,269.0,330.5,271.0" stroke="yellow" stroke-width="1" fill="none" />
<polyline points="326.5,273.0" stroke="yellow" stroke-width="1" fill="none" />
<polyline points="325.5,275.5,323.5,276.0" stroke="yellow" stroke-width="1" fill="none" />
<polyline points="320.5,264.0,325.5,262.0,332.0,261.5,334.0,259.5,338.0,258.5,341.5,257.5,345.5,257.0,350.0,251.5,352.5,251.5" stroke="black" stroke-width="1" fill="none" />
<polyline points="347.0,238.5,348.0,235.0,344.5,230.0,346.0,224.0,341.0,223.5,342.0,218.5,341.5,215.5,341.0,210.5,339.5,206.0" stroke="black" stroke-width="1" fill="none" />
<polyline points="335.0,204.0,340.0,199.0,341.5,196.0,346.0,194.0,349.0,194.5,354.0,192.0,358.0,189.5,364.0,189.5,366.0,185.0,369.0,184.5,374.5,182.5,378.5,181.0,381.5,178.5,386.0,177.0,390.0,176.0,394.0,172.5,398.0,171.0,402.5,169.5,408.0,167.0,403.0,172.5,403.0,178.5,398.5,180.5,393.5,184.5,387.5,188.5,382.0,190.5,385.5,189.0,389.5,186.5,394.5,183.5,397.0,179.0,402.5,173.5" stroke="green" stroke-width="1" fill="none" />
<polyline points="408.0,156.5,406.5,162.0,405.0,166.5,398.5,170.5,390.5,174.5,384.0,179.0" stroke="black" stroke-width="1" fill="none" />
<polyline points="373.5,181.5,361.5,183.0,355.0,189.0,351.0,193.5,342.5,197.5,337.0,202.0,337.5,205.5,345.5,211.0,349.5,213.0" stroke="black" stroke-width="1" fill="none" />
<polyline points="344.0,210.0,339.5,206.5,342.5,210.0" stroke="yellow" stroke-width="1" fill="none" />
<polyline points="340.0,208.5" stroke="black" stroke-width="1" fill="none" />
<polyline points="341.0,205.5,342.5,207.5,349.0,212.0,352.5,217.0,357.0,224.5" stroke="black" stroke-width="1" fill="none" />
<polyline points="353.5,207.5,352.0,210.0,348.0,207.5,344.5,202.0,340.0,202.0" stroke="black" stroke-width="1" fill="none" />
<polyline points="345.5,204.0,348.5,209.0,352.0,213.0" stroke="black" stroke-width="1" fill="none" />
<polyline points="349.0,201.0,348.0,200.0,346.0,193.5" stroke="black" stroke-width="1" fill="none" />
<polyline points="346.0,199.5,346.0,204.0,349.5,209.0" stroke="black" stroke-width="1" fill="none" />
<polyline points="366.0,193.0" stroke="black" stroke-width="1" fill="none" />
<polyline points="366.5,192.5,369.0,195.0,376.5,190.5,377.5,192.0" stroke="black" stroke-width="1" fill="none" />
<polyline points="397.5,152.5,393.5,158.0,392.0,163.5,389.0,166.0,387.0,168.5,384.0,173.0,382.0,176.5,383.5,173.0,389.5,164.5,391.0,159.0,393.0,152.0" stroke="black" stroke-width="1" fill="none" />
<polyline points="404.5,158.0,401.5,159.5,397.5,164.0,394.5,171.5,389.5,173.5,388.5,174.5,393.0,170.5,397.0,166.5,401.0,162.5,403.0,158.0" stroke="black" stroke-width="1" fill="none" />
<polyline points="396.5,124.0,395.0,130.0,389.0,131.5,384.0,134.0,383.0,135.0,388.0,131.0,393.5,126.5,397.0,121.5" stroke="black" stroke-width="1" fill="none" />
<polyline points="396.5,121.0,392.5,124.5,386.0,129.0,384.0,130.5,379.0,135.5,385.0,129.0,391.0,125.0" stroke="green" stroke-width="1" fill="none" />
<polyline points="399.5,109.0,391.5,118.0,387.0,122.0,381.5,126.0,376.0,127.0,369.5,131.5,364.0,138.0,355.0,139.5" stroke="black" stroke-width="1" fill="none" />
<polyline points="331.5,157.0,326.0,161.0,318.5,164.0,312.5,168.5,305.0,175.0,300.0,174.5,296.0,180.0" stroke="black" stroke-width="1" fill="none" />
<polyline points="289.0,175.5,284.5,173.5" stroke="black" stroke-width="1" fill="none" />
<polyline points="281.0,174.5,285.0,174.0,291.5,174.0,295.5,180.0" stroke="yellow" stroke-width="1" fill="none" />
<polyline points="288.5,178.0,281.0,180.0,279.0,175.5" stroke="black" stroke-width="1" fill="none" />
<polyline points="276.0,179.0" stroke="black" stroke-width="1" fill="none" />
<polyline points="276.5,181.0,273.0,180.5,270.5,181.5,264.5,179.5,259.5,175.5,258.5,174.5,253.5,176.0,249.0,171.5,244.5,171.0,239.0,169.0,237.0,169.0" stroke="black" stroke-width="1" fill="none" />
<polyline points="246.5,171.5,247.0,172.5,251.5,173.5,251.0,174.0,257.0,178.0,248.0,184.5,249.5,187.0,240.0,192.0,242.0,195.0,239.0,195.5,241.0,204.5,239.0,208.0,240.5,209.0,243.0,210.0,248.5,210.5,252.5,212.0,258.0,201.5,253.0,205.5,253.5,211.5,251.5,212.5,251.5,218.5,250.5,223.5,245.0,226.5,242.0,231.0,239.0,235.5,238.0,240.0,233.0,247.0,231.0,247.5,228.5,255.0,224.5,256.5,222.5,260.0,218.5,263.0,217.0,269.5,212.5,275.5,212.0,278.0,209.5,282.0,209.5,285.0,202.5,291.0,203.0,294.0,203.0,296.5,198.5,302.0,196.5,305.5,194.5,309.0,192.5,313.0,191.5,317.0,185.5,319.5,183.5,322.5,185.0,328.5,180.0,329.5,174.0,332.0,167.5,340.0,165.0,342.0,165.5,345.0" stroke="orange" stroke-width="1" fill="none" />
<polyline points="158.0,350.5,155.0,351.5,160.5,355.0,157.0,360.5,158.0,364.0,156.5,370.0,156.0,371.0,156.5,374.5,157.0,380.0,154.0,382.0,154.5,386.0,154.0,392.0,153.5,396.5,157.5,400.5,163.0,404.5,167.0,409.0,171.5,410.5" stroke="black" stroke-width="1" fill="none" />
<polyline points="164.0,414.0,161.5,405.5" stroke="black" stroke-width="1" fill="none" />
<polyline points="158.0,408.0,166.5,408.5,166.5,411.5,167.5,415.0,165.5,419.0,169.5,425.0" stroke="black" stroke-width="1" fill="none" />
<polyline points="169.0,431.0,173.0,434.5,177.5,434.0" stroke="black" stroke-width="1" fill="none" />
<polyline points="178.5,440.0,174.5,443.5,178.5,443.0,181.5,444.5,188.0,441.5,185.5,442.5" stroke="black" stroke-width="1" fill="none" />
<polyline points="179.0,445.0,175.0,444.0" stroke="green" stroke-width="1" fill="none" />
<polyline points="175.5,443.0,176.5,450.0,177.5,454.0" stroke="black" stroke-width="1" fill="none" />
<polyline points="172.0,458.5" stroke="black" stroke-width="1" fill="none" />
<polyline points="170.0,458.5,171.5,463.5,170.0,467.5,166.5,469.0" stroke="yellow" stroke-width="1" fill="none" />
<polyline points="167.0,469.0,162.5,468.5,156.5,472.0,152.5,469.5,143.5,466.0,143.0,459.5,141.0,452.5,134.5,460.5,133.5,466.5,133.5,473.5" stroke="black" stroke-width="1" fill="none" />
<polyline points="135.5,470.5,140.5,474.0,143.0,473.0,147.0,477.5,152.0,486.0,153.0,487.0,150.0,488.5,155.5,484.5,157.0,489.5,161.0,495.5,164.0,496.5,166.0,500.5" stroke="black" stroke-width="1" fill="none" />
<polyline points="162.0,503.0,165.5,504.5,165.0,505.0,166.0,508.0" stroke="black" stroke-width="1" fill="none" />
<polyline points="176.5,510.0,170.0,506.0,165.5,503.5,161.0,503.0,156.5,500.5,152.0,498.0,151.0,494.0,146.0,492.0,144.5,489.5,142.0,484.5,139.5,478.0" stroke="black" stroke-width="1" fill="none" />
<polyline points="142.5,483.0,144.0,490.5,149.0,495.0,151.0,499.0,153.5,503.0,152.5,505.0" stroke="black" stroke-width="1" fill="none" />
<polyline points="149.0,502.5,154.5,509.5" stroke="black" stroke-width="1" fill="none" />
<polyline points="155.0,501.5,151.0,495.0,151.0,496.5" stroke="black" stroke-width="1" fill="none" />
<polyline points="151.5,493.5,155.0,497.5,153.5,496.5" stroke="black" stroke-width="1" fill="none" />
<polyline points="153.0,492.0,154.0,488.5,147.5,482.5" stroke="black" stroke-width="1" fill="none" />
<polyline points="150.5,487.5,154.0,492.0,155.5,491.5,155.5,495.5,155.5,499.0,157.5,503.0,158.0,507.0,159.0,508.0,168.0,513.5" stroke="black" stroke-width="1" fill="none" />
<polyline points="157.0,507.5,153.5,504.5,147.5,496.5,146.0,491.5,144.5,484.0" stroke="green" stroke-width="1" fill="none" />
<polyline points="143.5,489.0,145.0,492.5,148.5,494.5,149.5,500.5,152.0,506.5,152.0,508.5,155.5,512.0" stroke="black" stroke-width="1" fill="none" />
<polyline points="152.0,509.5,148.0,500.0,144.0,494.5" stroke="black" stroke-width="1" fill="none" />
<polyline points="140.5,494.5,145.5,501.0,147.0,507.5,147.5,506.0,152.5,514.0" stroke="orange" stroke-width="1" fill="none" />
<polyline points="139.0,514.5,143.0,509.0,141.0,505.0,140.5,501.5,140.0,496.5,135.0,491.5,134.5,486.0" stroke="black" stroke-width="1" fill="none" />
<polyline points="136.5,488.5,135.0,490.5,139.0,492.5,136.5,497.5,136.0,503.5,139.0,505.5" stroke="black" stroke-width="1" fill="none" />
<polyline points="134.5,510.0,128.5,498.5" stroke="black" stroke-width="1" fill="none" />
<polyline points="125.5,499.5,126.0,502.5,123.0,504.0,125.0,511.0,126.5,509.0" stroke="black" stroke-width="1" fill="none" />
<polyline points="124.0,507.5,125.5,505.0,125.5,501.5,125.5,497.5,124.5,492.5,123.5,490.5" stroke="black" stroke-width="1" fill="none" />
<polyline points="125.0,495.5,129.0,503.5" stroke="black" stroke-width="1" fill="none" />
<polyline points="134.5,512.0,131.5,508.0,126.5,503.5" stroke="black" stroke-width="1" fill="none" />
<polyline points="140.5,494.0,138.0,487.5,135.5,484.0" stroke="green" stroke-width="1" fill="none" />
<polyline points="136.5,485.5,133.5,491.0,134.5,490.5,136.5,495.0,133.5,502.0,136.0,501.0,140.5,510.0,142.0,514.0,141.0,517.0" stroke="green" stroke-width="1" fill="none" />
<polyline points="161.5,505.5,163.0,508.0" stroke="black" stroke-width="1" fill="none" />
<polyline points="165.5,497.5,161.0,495.5" stroke="green" stroke-width="1" fill="none" />
<polyline points="168.0,492.0,168.0,485.5,161.0,482.5,159.0,482.5" stroke="black" stroke-width="1" fill="none" />
<polyline points="167.5,478.5,164.0,481.5,168.5,479.5,171.0,481.0" stroke="yellow" stroke-width="1" fill="none" />
<polyline points="164.5,470.0,168.5,474.0,170.0,478.5,164.5,482.0,165.5,486.5,168.0,490.5,171.0,493.0" stroke="black" stroke-width="1" fill="none" />
<polyline points="195.0,491.0,198.0,491.0,202.5,489.5,207.0,486.5,209.0,486.0,213.0,485.0,217.0,483.5,220.5,478.0,224.5,472.5" stroke="black" stroke-width="1" fill="none" />
<polyline points="232.5,466.0,234.0,460.5" stroke="black" stroke-width="1" fill="none" />
<polyline points="211.0,485.5,218.0,479.0,220.5,477.5,221.5,472.5,225.5,471.5,229.5,466.0,232.0,464.5,231.5,458.5,233.5,454.5,234.0,450.0,233.0,448.0,235.5,442.0,237.0,437.0,234.0,436.5,236.0,430.0,236.0,424.5,235.5,422.0,234.0,418.5,233.5,414.5,232.0,410.5,231.0,406.5,230.5,404.5" stroke="black" stroke-width="1" fill="none" />
<polyline points="223.5,411.5,223.0,415.0,223.0,416.5,221.0,413.5" stroke="black" stroke-width="1" fill="none" />
<polyline points="228.5,416.5,227.5,420.5,227.5,422.0" stroke="black" stroke-width="1" fill="none" />
<polyline points="242.5,411.0,245.0,417.5,245.0,418.5,244.0,422.5,243.0,426.0,241.0,428.0,243.5,434.0,240.5,438.0,239.5,441.5,239.5,446.0,238.0,450.0,235.0,451.5,236.5,458.0,237.0,460.5,234.5,468.5,231.0,470.0,229.5,474.0,227.0,479.5,223.5,482.5,218.0,484.5,213.0,488.5" stroke="green" stroke-width="1" fill="none" />
<polyline points="200.0,495.5,197.0,498.0,199.5,495.5,203.0,495.5,207.0,494.0,211.0,492.5,215.0,490.5,219.0,487.5,223.5,483.5,227.5,479.5,232.5,471.0" stroke="yellow" stroke-width="1" fill="none" />
<polyline points="199.5,450.0,200.0,446.0,204.0,446.0,197.0,447.0" stroke="black" stroke-width="1" fill="none" />
<polyline points="198.0,451.5,194.0,448.5,190.0,448.0,187.0,447.0,182.5,446.5,178.5,451.5,179.5,448.5,181.5,448.5,184.0,442.0,185.5,439.5,181.5,435.5,180.0,433.5,181.0,429.5,179.0,425.5,182.0,424.5,179.0,418.0,175.5,413.5,176.0,410.0,174.0,405.5,171.0,403.5,168.5,397.5,165.5,393.5,160.5,387.5,160.5,386.0,161.0,378.5,166.0,379.0,161.5,379.0" stroke="black" stroke-width="1" fill="none" />
<polyline points="160.5,376.5,164.0,373.5,167.5,366.0,171.5,361.5,173.0,355.0,180.0,350.5,185.0,342.0,189.0,340.5,191.5,333.5,195.5,329.0,199.5,324.0" stroke="black" stroke-width="1" fill="none" />
<polyline points="201.5,318.5" stroke="black" stroke-width="1" fill="none" />
<polyline points="191.5,317.0,192.0,316.5,196.0,307.5,201.0,297.0,202.5,289.0,210.0,283.0,212.0,277.5,217.0,271.5,216.5,265.0,224.5,257.0,227.0,252.0,231.0,246.5,235.0,241.0,239.5,236.0,245.5,232.0,248.0,227.0,253.0,223.5,257.0,219.0" stroke="black" stroke-width="1" fill="none" />
<polyline points="264.0,221.5" stroke="black" stroke-width="1" fill="none" />
<polyline points="264.0,232.0,265.0,238.0" stroke="green" stroke-width="1" fill="none" />
<polyline points="262.5,238.5,262.0,234.5,262.0,230.5,263.0,226.0,262.0,224.5,256.5,221.5,252.5,229.0,246.0,231.5,244.5,238.0,240.5,242.0,238.5,245.5,232.5,253.5,228.5,258.5,224.5,267.5,220.5,271.5,217.5,281.0,215.5,283.0,216.0,279.0,216.5,277.0,220.5,272.0,222.5,264.5,225.5,263.5,228.0,259.5,230.0,254.0,236.5,251.0,237.5,247.5,240.5,243.5,243.5,240.0,249.0,236.0,253.0,234.0,255.5,227.0,259.5,223.0,263.0,221.0,264.0,217.5,262.5,216.5,264.0,212.0,264.5,208.5,268.0,204.0,269.5,200.0,271.5,194.5,270.5,191.5,269.5,188.0,262.5,194.0,259.0,195.0,257.0,201.5" stroke="black" stroke-width="1" fill="none" />
<polyline points="251.5,200.0,255.0,196.5" stroke="black" stroke-width="1" fill="none" />
<polyline points="263.0,199.0,259.0,207.0,259.0,213.0,253.0,217.5,249.0,222.0,244.5,226.5,239.0,230.0,236.5,236.5,235.0,234.0,231.0,233.0,231.5,232.0,232.0,225.0,230.5,222.0,227.0,216.0,228.0,216.0,225.5,214.0,224.5,210.0,223.0,208.0,226.5,202.5,224.0,205.0" stroke="black" stroke-width="1" fill="none" />
<polyline points="233.5,202.0,236.5,201.0,234.5,205.0,235.0,210.0,236.5,211.5" stroke="yellow" stroke-width="1" fill="none" />
<polyline points="235.5,204.5" stroke="black" stroke-width="1" fill="none" />
<polyline points="235.5,197.5,242.5,191.0" stroke="black" stroke-width="1" fill="none" />
<polyline points="243.0,200.0,247.0,194.5,251.0,191.5,255.0,189.5,250.0,189.0,246.0,191.0,245.5,196.0,246.0,193.0,250.5,188.5,255.5,182.5,255.5,188.5,258.0,186.5,264.5,182.5,268.5,181.0,268.0,182.0" stroke="black" stroke-width="1" fill="none" />
<polyline points="268.0,181.0,264.0,185.0,258.5,189.0,253.5,189.5,254.5,195.5,248.5,200.5,247.5,203.5,248.0,202.0,251.0,204.5,251.0,201.0,254.5,197.0,259.0,193.0,263.5,189.5,267.5,186.5,271.5,188.5" stroke="black" stroke-width="1" fill="none" />
<polyline points="267.0,190.5,263.0,192.0,261.0,194.0,257.0,203.0,260.5,198.0,264.0,194.0" stroke="black" stroke-width="1" fill="none" />
<polyline points="265.0,189.5,260.5,193.5,257.5,198.0,252.5,202.5,252.0,206.5,252.0,210.0,251.5,216.5,252.5,215.0" stroke="black" stroke-width="1" fill="none" />
<polyline points="261.0,210.0,265.0,202.0,262.5,202.0,261.5,205.0,256.5,207.5,260.5,213.0,254.5,217.0,254.5,223.0,251.5,223.0,243.5,227.0,242.0,232.5,239.5,236.5,233.0,239.0" stroke="yellow" stroke-width="1" fill="none" />
<polyline points="229.5,223.0" stroke="black" stroke-width="1" fill="none" />
<polyline points="234.0,224.0,226.5,221.0" stroke="black" stroke-width="1" fill="none" />
<polyline points="226.5,215.0,222.5,221.0,225.5,227.5,230.5,231.0" stroke="black" stroke-width="1" fill="none" />
<polyline points="219.5,232.5,221.0,236.5" stroke="black" stroke-width="1" fill="none" />
<polyline points="221.0,232.0,224.5,235.5,220.5,238.0,219.0,243.5,219.0,248.5" stroke="black" stroke-width="1" fill="none" />
<polyline points="224.0,252.0,218.5,248.5,224.0,246.5,226.5,241.5,225.0,238.5,229.5,236.5,222.0,234.5,224.0,231.5,221.0,230.5,220.5,226.0,219.0,224.5,218.5,219.5,221.0,212.0" stroke="black" stroke-width="1" fill="none" />
<polyline points="218.0,216.5,217.0,220.5,217.5,222.0,216.0,227.5,221.0,233.5,225.5,229.0,232.5,232.0" stroke="orange" stroke-width="1" fill="none" />
<polyline points="230.5,245.0,225.0,251.0,223.0,256.5,220.0,260.5,214.5,268.5,210.0,274.5,206.0,280.5,202.0,288.5,198.0,295.0,194.5,303.0,192.0,314.5,186.5,316.5,183.5,323.0,178.0,328.5,174.0,328.5,167.5,328.5,166.0,332.0,162.5,337.0,158.0,341.5,154.0,344.5,150.0,350.5,145.0,349.5,147.0,347.5" stroke="black" stroke-width="1" fill="none" />
<polyline points="144.5,343.5,147.5,339.0,147.5,339.5,151.0,336.5,148.5,332.0,151.0,327.5" stroke="orange" stroke-width="1" fill="none" />
<polyline points="149.5,326.5,151.5,332.0,153.0,337.0" stroke="black" stroke-width="1" fill="none" />
<polyline points="151.5,339.5,146.0,342.5,147.5,348.0" stroke="black" stroke-width="1" fill="none" />
<polyline points="144.5,350.0,139.0,348.0,138.0,344.0,136.0,338.0,137.5,332.0,135.5,329.5,133.0,326.5,131.5,323.0,131.0,319.5,130.5,315.0,130.0,312.5,127.0,302.5,130.5,300.0" stroke="black" stroke-width="1" fill="none" />
<polyline points="133.5,301.5,133.5,297.5" stroke="green" stroke-width="1" fill="none" />
<polyline points="138.5,292.0,136.0,298.5,130.0,298.5,126.0,301.0,124.0,306.0" stroke="black" stroke-width="1" fill="none" />
<polyline points="126.0,298.0,129.5,295.5,132.5,295.5,137.5,289.5,140.0,289.5" stroke="black" stroke-width="1" fill="none" />
<polyline points="130.0,281.0,136.0,282.5,137.5,278.5,141.5,279.0" stroke="black" stroke-width="1" fill="none" />
<polyline points="141.5,274.5,143.0,272.5,150.5,269.5,153.0,266.5" stroke="orange" stroke-width="1" fill="none" />
<polyline points="153.5,268.0,155.5,272.0" stroke="black" stroke-width="1" fill="none" />
<polyline points="150.0,270.5,155.0,273.0,158.5,271.0,163.0,278.0" stroke="black" stroke-width="1" fill="none" />
<polyline points="171.0,279.0,166.5,279.5,171.5,277.0,167.5,270.5,169.0,267.5,169.5,263.5,170.0,259.5,173.5,256.0,173.5,251.0,168.0,256.0,170.5,261.0" stroke="green" stroke-width="1" fill="none" />
<polyline points="166.5,256.5,170.5,253.0,174.5,246.0,172.0,243.5" stroke="orange" stroke-width="1" fill="none" />
<polyline points="171.0,255.5,174.0,257.5,174.5,261.0,175.0,264.5" stroke="black" stroke-width="1" fill="none" />
<polyline points="179.0,260.0,176.0,256.5,171.5,255.0" stroke="black" stroke-width="1" fill="none" />
<polyline points="181.5,263.0" stroke="black" stroke-width="1" fill="none" />
<polyline points="179.0,264.0,182.0,264.0,179.5,260.0" stroke="black" stroke-width="1" fill="none" />
<polyline points="178.5,256.0,178.0,262.0" stroke="black" stroke-width="1" fill="none" />
<polyline points="183.5,255.5,183.0,254.0,186.5,258.0,185.5,266.0,184.5,268.0" stroke="black" stroke-width="1" fill="none" />
<polyline points="198.5,256.5,203.5,260.0,205.5,264.0" stroke="yellow" stroke-width="1" fill="none" />
<polyline points="212.5,252.5,209.5,250.0,206.5,248.5,207.0,244.5,207.5,240.5,208.5,236.5,211.0,233.5,206.5,238.5" stroke="black" stroke-width="1" fill="none" />
<polyline points="210.0,236.0,210.5,236.0,207.0,242.0,209.0,243.5,207.5,246.0" stroke="black" stroke-width="1" fill="none" />
<polyline points="205.5,250.0,207.5,251.0,206.0,248.5" stroke="yellow" stroke-width="1" fill="none" />
<polyline points="209.0,249.0,210.5,255.0,214.0,257.5" stroke="black" stroke-width="1" fill="none" />
<polyline points="217.5,251.0,215.5,246.5,215.0,242.5,210.5,238.0" stroke="black" stroke-width="1" fill="none" />
<polyline points="215.5,237.5,213.5,238.0,213.5,245.0,213.0,251.5,216.5,252.5,214.5,255.5,214.5,257.5" stroke="green" stroke-width="1" fill="none" />
<polyline points="216.5,256.0,215.0,255.0,213.5,248.5" stroke="black" stroke-width="1" fill="none" />
<polyline points="201.5,263.5,198.0,264.0,198.0,258.5,196.0,253.0" stroke="green" stroke-width="1" fill="none" />
<polyline points="188.5,250.0,194.0,247.5,197.5,255.0,198.5,259.5,204.5,263.5,205.5,263.0" stroke="black" stroke-width="1" fill="none" />
<polyline points="187.5,272.5,188.0,268.0,182.5,266.5,184.0,261.0,185.0,259.5,183.0,254.5,184.5,250.0,188.0,246.0,188.5,244.0,192.5,236.0,197.0,234.0,191.5,241.0,192.0,245.0,186.0,243.0,187.5,246.0" stroke="black" stroke-width="1" fill="none" />
<polyline points="191.5,239.5,191.0,235.5,189.5,232.0,188.0,229.5,188.5,222.0,193.5,219.0,193.0,219.0,189.5,228.0" stroke="black" stroke-width="1" fill="none" />
<polyline points="184.5,225.0,186.5,216.0,188.5,221.0,185.5,224.5,184.0,228.0,187.0,232.5,188.5,236.5" stroke="black" stroke-width="1" fill="none" />
<polyline points="187.0,235.5,191.0,242.0" stroke="green" stroke-width="1" fill="none" />
<polyline points="199.0,235.5,195.0,241.5,193.5,243.0,186.0,245.5,193.0,245.0,195.5,239.5" stroke="black" stroke-width="1" fill="none" />
<polyline points="210.0,227.0" stroke="yellow" stroke-width="1" fill="none" />
<polyline points="209.0,216.5" stroke="black" stroke-width="1" fill="none" />
<polyline points="211.0,219.0,211.0,216.0,214.0,220.0,216.5,224.5,217.5,228.5,216.0,233.0" stroke="black" stroke-width="1" fill="none" />
<polyline points="223.0,203.0,228.5,199.0,223.0,202.5,220.5,207.0,217.0,213.0,224.0,214.0,221.0,216.0,226.0,221.5,231.0,226.5,231.5,231.0,231.0,233.5,234.0,239.5,234.5,241.5,232.5,246.0,231.5,249.5,226.0,252.5,223.0,258.5,218.5,261.5,218.5,263.0,217.5,267.0,212.0,269.5,213.0,277.0,206.5,282.0,205.5,283.5,203.0,287.5,201.0,292.0,199.0,296.0,196.5,300.0,195.5,304.0,195.0,308.0,190.0,314.5,189.0,316.5,191.5,319.5,195.5,321.5,199.0,320.0,203.5,312.5,211.0,307.0,212.5,303.0,219.0,298.0,221.0,290.5,226.0,289.0,228.5,281.5,232.0,276.5,236.5,271.0,243.0,266.5,245.5,264.0,248.5,258.5,252.5,253.5,255.0,253.0,261.5,249.0,265.5,246.5,267.0,244.5,274.5,244.5,278.5,247.5,282.5,248.5,289.0,249.0,290.5,250.5,295.0,253.5,298.0,258.0" stroke="black" stroke-width="1" fill="none" />
<polyline points="290.0,258.5,287.5,258.5,284.5,260.0,284.0,264.5" stroke="black" stroke-width="1" fill="none" />
<polyline points="288.0,262.5,289.0,268.5,291.0,272.5" stroke="black" stroke-width="1" fill="none" />
<polyline points="291.0,274.0,290.5,268.5" stroke="black" stroke-width="1" fill="none" />
<polyline points="289.5,265.5" stroke="black" stroke-width="1" fill="none" />
<polyline points="284.0,277.0" stroke="black" stroke-width="1" fill="none" />
<polyline points="288.5,272.5,284.0,271.0,280.5,265.0,276.5,263.0,271.0,263.5" stroke="black" stroke-width="1" fill="none" />
<polyline points="269.5,266.5,269.5,266.0,269.5,271.0,268.5,272.5" stroke="black" stroke-width="1" fill="none" />
<polyline points="271.5,267.0,266.5,270.0,265.0,266.5" stroke="green" stroke-width="1" fill="none" />
<polyline points="262.0,270.5,266.0,273.0,270.0,273.5,273.5,270.0,274.5,267.5,271.0,272.0,271.5,276.0,273.5,281.0,274.5,280.0,275.5,281.5" stroke="black" stroke-width="1" fill="none" />
<polyline points="264.0,276.5,262.0,270.5,261.5,264.0,261.5,262.5,257.5,267.0" stroke="black" stroke-width="1" fill="none" />
<polyline points="262.0,268.5,263.5,270.0,267.5,274.5,268.0,282.0" stroke="black" stroke-width="1" fill="none" />
<polyline points="260.5,271.0,254.5,276.0,253.0,270.5,250.0,270.0" stroke="black" stroke-width="1" fill="none" />
<polyline points="250.0,270.0,251.0,266.5,250.0,270.5,253.0,273.5,256.5,278.5,265.5,277.5,267.5,278.5,270.5,277.0,272.5,282.0,278.0,278.0,283.5,272.5,280.0,276.0,278.5,282.0" stroke="yellow" stroke-width="1" fill="none" />
<polyline points="294.0,273.5,290.0,264.5,287.5,262.5,283.0,258.5,282.0,253.5,279.0,252.5" stroke="black" stroke-width="1" fill="none" />
<polyline points="279.0,257.5,275.5,252.5,272.0,251.5,267.5,253.0" stroke="black" stroke-width="1" fill="none" />
<polyline points="266.0,256.0,271.5,254.0" stroke="black" stroke-width="1" fill="none" />
<polyline points="283.0,255.0,275.0,260.0,273.0,255.0,268.0,255.0,264.5,260.5,261.5,257.0,260.0,256.5" stroke="yellow" stroke-width="1" fill="none" />
<polyline points="269.0,266.5,263.5,269.5,264.5,271.0,268.5,272.5" stroke="orange" stroke-width="1" fill="none" />
<polyline points="277.0,263.0,282.0,267.0,286.0,271.5,286.0,275.5,287.0,278.5,285.0,277.5" stroke="yellow" stroke-width="1" fill="none" />
<polyline points="296.5,255.5,292.0,252.0" stroke="black" stroke-width="1" fill="none" />
<polyline points="277.5,245.5,269.5,248.5,264.0,249.5,257.5,253.0,255.5,258.5,253.0,267.0,244.5,266.5,241.0,274.0,237.0,274.0,237.0,279.0,229.5,282.0,229.0,291.5,226.5,292.5,220.5,297.5,217.0,303.0,216.0,303.0,210.0,305.5,207.0,309.0,207.0,312.5,202.5,316.5,200.0,321.0,196.5,325.0,193.5,328.5,193.0,336.0,188.5,336.5,190.0,344.5,185.0,348.0,179.5,349.0,179.0,356.5,175.0,357.5,172.0,361.5,173.0,367.0,164.5,369.5,161.5,374.0,162.0,382.5,157.5,384.0,161.0,390.5,165.5,393.5,171.0,398.5,175.5,404.0,179.0,412.5" stroke="black" stroke-width="1" fill="none" />
<polyline points="172.0,406.0,168.5,397.0,164.0,401.0,158.0,395.0,153.5,391.0" stroke="black" stroke-width="1" fill="none" />
<polyline points="157.0,384.5,148.0,382.0,153.5,379.0" stroke="black" stroke-width="1" fill="none" />
<polyline points="142.5,384.5,141.0,379.0,137.0,374.0,140.5,369.5" stroke="black" stroke-width="1" fill="none" />
<polyline points="134.0,373.0,140.5,372.0,142.0,375.5,145.5,381.5,146.0,380.5,146.5,385.0" stroke="black" stroke-width="1" fill="none" />
<polyline points="145.5,390.5,143.5,392.5,138.5,399.0,136.5,401.5,130.5,407.0,128.0,414.0,129.0,415.0,132.5,419.0,135.0,422.0,138.5,425.5,139.5,430.5,141.0,435.5,138.0,439.5,139.5,445.0,139.5,446.5,138.5,451.5,137.0,455.5,134.5,458.5,133.5,463.0,137.5,467.5,138.5,468.0,143.5,468.5,145.5,474.0,149.0,477.5,153.5,482.5,153.5,484.5,158.5,481.0,165.0,485.0,169.0,492.0" stroke="black" stroke-width="1" fill="none" />
<polyline points="171.5,464.0,168.0,462.5" stroke="black" stroke-width="1" fill="none" />
<polyline points="180.0,466.5,178.5,461.5,178.0,456.5,175.0,462.0,173.0,456.5,172.0,451.5,169.0,451.5,167.0,445.5,164.5,442.0,166.5,435.5,166.0,433.0,169.5,435.0,166.5,429.5" stroke="yellow" stroke-width="1" fill="none" />
<polyline points="168.0,435.0,158.5,429.0,160.5,434.0,157.5,424.0" stroke="black" stroke-width="1" fill="none" />
<polyline points="161.0,425.0,161.5,426.5,159.0,423.5,160.5,419.5,160.5,426.0,162.5,422.0,161.0,418.0,161.5,413.5,162.0,409.5,161.5,405.5,161.0,402.0,161.5,397.5,158.5,392.0,157.5,386.0,155.5,383.5,153.5,377.0,153.0,376.0,151.5,373.5,152.5,368.0,149.0,362.5" stroke="black" stroke-width="1" fill="none" />
<polyline points="148.5,361.0,148.0,363.0,150.5,365.0,150.5,370.5,152.5,376.5,152.0,379.0,151.5,383.5,151.0,385.0,155.5,389.0,159.0,392.0,163.5,395.0,168.5,399.0,172.5,402.5,176.0,412.5" stroke="black" stroke-width="1" fill="none" />
<polyline points="172.0,418.5,174.0,422.0,176.0,426.0,176.5,429.5,173.5,433.0,174.5,436.5,171.5,439.0,172.5,440.0,172.5,445.5,173.5,449.5,174.0,453.5,177.0,456.5,174.0,462.0,175.0,466.0,171.0,464.5,174.5,468.0" stroke="black" stroke-width="1" fill="none" />
<polyline points="179.0,461.0,177.0,460.0,169.0,452.5,168.0,446.5" stroke="yellow" stroke-width="1" fill="none" />
<polyline points="163.5,444.5,166.5,449.5,166.5,454.0,168.5,457.5,171.5,461.5,168.5,464.5,167.5,468.5,161.0,473.0,162.5,476.0,163.0,479.5,160.5,480.5,160.5,483.5,159.5,487.5,160.5,492.0,163.0,496.5,165.0,498.5,168.0,506.0,170.0,510.5,172.0,514.0,173.0,514.0,174.5,515.5" stroke="black" stroke-width="1" fill="none" />
<polyline points="155.5,466.5" stroke="black" stroke-width="1" fill="none" />
<polyline points="148.5,458.5,152.0,463.0" stroke="black" stroke-width="1" fill="none" />
<polyline points="156.0,460.5" stroke="black" stroke-width="1" fill="none" />
<polyline points="161.5,461.5,152.5,457.5,153.0,455.5,152.0,451.5,151.0,447.5,149.0,444.0,145.0,440.0,144.5,435.5,144.5,430.5,142.5,429.0,140.5,423.5,138.0,423.0,136.5,421.0" stroke="black" stroke-width="1" fill="none" />
<polyline points="130.0,412.0,133.5,407.5,142.0,402.5,144.0,398.0" stroke="orange" stroke-width="1" fill="none" />
<polyline points="142.5,396.0,142.0,399.5,140.5,402.0" stroke="black" stroke-width="1" fill="none" />
<polyline points="142.0,404.5,146.0,408.5,150.5,412.5" stroke="green" stroke-width="1" fill="none" />
<polyline points="156.5,419.5,158.5,419.0,156.0,425.0,158.0,429.0,157.0,432.5,155.0,437.5,156.0,439.0,155.5,441.5" stroke="orange" stroke-width="1" fill="none" />
<polyline points="161.0,445.5,167.5,439.5,167.0,447.0,172.5,445.5,176.5,442.0,183.5,438.5,181.5,434.5" stroke="black" stroke-width="1" fill="none" />
<polyline points="178.0,421.5,175.0,417.5,173.5,415.5,173.0,413.0,169.5,410.0,163.5,407.0,163.0,402.5,163.5,398.5,163.0,403.0" stroke="black" stroke-width="1" fill="none" />
<polyline points="172.0,407.5,174.0,411.5,171.5,417.5,169.5,422.0,167.0,428.5,163.0,424.0,165.5,429.5,167.0,432.0,160.0,437.0,164.0,431.5,167.5,427.0,170.0,425.0,171.5,428.5" stroke="black" stroke-width="1" fill="none" />
<polyline points="168.0,425.0,169.5,429.0,173.5,435.5,170.0,436.5,167.0,440.0,174.5,438.0" stroke="black" stroke-width="1" fill="none" />
<polyline points="163.5,441.5,162.0,442.0,163.5,448.5,163.5,452.0,163.5,457.5,161.0,457.0,163.5,461.5" stroke="black" stroke-width="1" fill="none" />
<polyline points="163.0,456.5,161.5,458.0,164.0,454.5,163.5,449.5,160.5,450.5,162.5,446.5,162.5,446.5" stroke="black" stroke-width="1" fill="none" />
<polyline points="148.0,456.0" stroke="black" stroke-width="1" fill="none" />
<polyline points="145.5,449.0,149.0,453.0,152.0,454.0,153.5,458.5,153.0,455.5,159.5,458.5,162.5,454.5,162.0,454.5" stroke="black" stroke-width="1" fill="none" />
<polyline points="155.5,451.5,152.0,450.5,148.0,452.0,144.0,448.0" stroke="black" stroke-width="1" fill="none" />
<polyline points="146.0,446.5,149.5,453.5,149.5,457.0,150.5,461.5,151.5,465.5,152.0,468.0,152.5,468.5,156.0,475.0,157.5,480.5,160.0,480.5,164.0,476.0,167.0,480.0,168.0,477.5" stroke="black" stroke-width="1" fill="none" />
<polyline points="156.0,473.5,152.0,471.5,148.0,465.0,147.5,466.5" stroke="black" stroke-width="1" fill="none" />
<polyline points="150.0,473.0,157.5,476.0" stroke="black" stroke-width="1" fill="none" />
<polyline points="153.5,474.5,150.0,476.0,145.5,467.5,140.0,467.0,139.5,461.0" stroke="black" stroke-width="1" fill="none" />
<polyline points="140.5,453.5,140.0,455.5,143.5,461.5,145.0,466.0,145.5,469.0,147.5,472.5,153.5,474.5" stroke="black" stroke-width="1" fill="none" />
<polyline points="164.5,478.5,159.5,475.5,161.0,476.5,158.0,473.5,155.5,465.5,154.0,468.0,150.0,462.5" stroke="black" stroke-width="1" fill="none" />
<polyline points="140.5,451.5,142.0,457.0,144.0,459.0,146.5,462.5,145.0,467.0,148.5,470.5,152.0,472.5,154.5,475.5,158.0,478.0,158.5,483.0,158.5,484.5,160.0,490.5,165.5,492.5,166.0,499.5,165.5,502.5,165.0,506.0,169.0,508.5" stroke="black" stroke-width="1" fill="none" />
<polyline points="172.0,463.0,167.5,457.0,163.5,452.5,163.0,448.5,159.0,450.5,156.0,448.0,156.0,449.5,156.5,444.5,153.0,439.0,154.5,437.0,150.0,437.0,148.0,433.0,148.5,430.0,149.5,426.5,144.5,422.5,139.0,418.0,136.5,422.5" stroke="orange" stroke-width="1" fill="none" />
<polyline points="138.0,423.5" stroke="black" stroke-width="1" fill="none" />
<polyline points="140.0,423.0,141.5,429.0,150.5,439.5" stroke="black" stroke-width="1" fill="none" />
<polyline points="150.0,423.5,148.0,418.5,141.5,413.0,137.5,409.5" stroke="black" stroke-width="1" fill="none" />
<polyline points="138.0,410.0,141.5,415.0,145.0,417.5,148.0,421.5,153.0,427.5" stroke="green" stroke-width="1" fill="none" />
<polyline points="155.0,421.0,153.5,419.0,154.5,414.5,150.0,406.5,151.5,403.5,146.0,398.0,149.0,392.0" stroke="green" stroke-width="1" fill="none" />
<polyline points="152.0,395.0,154.0,396.0" stroke="black" stroke-width="1" fill="none" />
<polyline points="152.0,393.5,153.0,394.5,154.5,397.5" stroke="black" stroke-width="1" fill="none" />
<polyline points="147.0,396.0,141.0,395.5,137.0,401.5,131.0,401.5,125.5,400.5,122.5,398.5,118.5,394.0" stroke="black" stroke-width="1" fill="none" />
<polyline points="121.5,391.5,124.5,395.0,125.5,397.0,129.0,398.5" stroke="orange" stroke-width="1" fill="none" />
<polyline points="130.5,407.0,135.5,404.5,135.0,396.5,139.0,394.5,145.0,389.0,142.5,386.0,142.5,385.5,146.0,378.5,146.5,375.0,149.5,368.5,151.5,366.0,147.0,363.5,148.0,358.0,146.0,355.5,146.5,352.0,145.0,347.5,138.0,345.0,136.0,340.0,138.0,337.0,135.0,332.5,137.5,327.5,136.5,324.0,138.0,320.0,136.0,315.0,136.0,309.5,131.5,308.5,130.5,304.5,128.5,297.0,132.5,293.0,134.5,292.5,137.0,287.0,130.0,283.5,126.0,278.0" stroke="orange" stroke-width="1" fill="none" />
<polyline points="125.5,272.0,128.5,276.5,128.5,283.5,129.0,285.0,129.0,289.0,126.5,290.5,124.0,294.5,125.0,302.5,125.0,304.5,123.0,308.5,122.5,314.0,121.5,314.5,122.0,318.5,123.0,324.5,124.5,329.5,125.5,331.0" stroke="green" stroke-width="1" fill="none" />
<polyline points="118.0,340.5,120.5,340.5,120.0,343.5" stroke="yellow" stroke-width="1" fill="none" />
<polyline points="115.0,344.5,122.5,352.0,120.5,358.0,118.5,362.5,117.0,363.0,117.5,368.0,116.5,375.0,117.5,376.5,119.0,381.0,117.0,385.5,116.5,390.0,117.0,393.5,118.5,399.0,123.0,402.5,126.0,407.5,128.0,404.0" stroke="black" stroke-width="1" fill="none" />
<polyline points="127.5,405.0,123.0,397.5,120.0,395.0,119.5,388.5,120.5,388.5,121.0,384.0,122.5,379.5,121.5,377.0,119.5,376.5,119.5,369.5,119.0,373.0" stroke="black" stroke-width="1" fill="none" />
<polyline points="121.0,375.0,123.0,379.0,127.0,381.0" stroke="black" stroke-width="1" fill="none" />
<polyline points="122.0,382.5,124.0,383.0,125.0,385.5,126.0,388.0,123.0,394.5,127.5,395.5" stroke="black" stroke-width="1" fill="none" />
<polyline points="124.5,391.0,129.5,396.0,132.0,396.5,136.5,392.5,136.5,393.5" stroke="orange" stroke-width="1" fill="none" />
<polyline points="135.0,390.5,126.5,388.5,122.0,388.0" stroke="black" stroke-width="1" fill="none" />
<polyline points="112.0,400.5,114.5,404.0,110.5,409.5,115.5,409.5" stroke="green" stroke-width="1" fill="none" />
<polyline points="111.5,415.0,115.0,416.0,120.0,412.5,121.5,410.5,129.0,407.0,128.5,409.5,125.5,416.5,129.0,418.0,129.5,423.5" stroke="black" stroke-width="1" fill="none" />
<polyline points="134.0,428.5,132.0,424.5,131.5,420.0,125.5,416.5,128.0,414.5" stroke="black" stroke-width="1" fill="none" />
<polyline points="127.5,413.0,131.0,405.5,135.5,403.5,140.0,402.0" stroke="black" stroke-width="1" fill="none" />
<polyline points="144.5,404.0,144.0,407.5,150.5,415.0,154.5,415.0" stroke="black" stroke-width="1" fill="none" />
<polyline points="141.5,405.5,140.0,402.5" stroke="black" stroke-width="1" fill="none" />
<polyline points="145.5,406.0" stroke="black" stroke-width="1" fill="none" />
<polyline points="147.0,398.5,144.0,395.5" stroke="black" stroke-width="1" fill="none" />
<polyline points="167.5,393.5,165.0,398.0,170.5,398.0,173.5,405.0,177.0,411.5,178.5,413.5,177.0,415.5,176.0,423.0,177.0,426.5,180.0,426.5" stroke="green" stroke-width="1" fill="none" />
<polyline points="173.5,418.5,172.0,416.5,161.0,412.5,159.0,408.0,155.0,403.5,151.0,401.5,148.0,396.5,148.0,387.5,142.5,384.0,143.5,391.5,137.0,388.0,135.5,386.0,141.0,381.0,139.0,377.0,136.0,373.0,135.0,370.0,138.0,368.0,142.0,363.5,142.5,360.0,145.0,358.0,141.0,354.5,137.5,350.5,133.5,346.5,133.0,340.0,130.0,336.0,130.0,334.5,132.0,330.0,130.5,326.0,128.5,320.5,128.0,322.5" stroke="yellow" stroke-width="1" fill="none" />
<polyline points="119.5,322.5,121.0,326.5,125.5,332.5,120.5,335.5,125.0,338.0,124.5,338.0" stroke="green" stroke-width="1" fill="none" />
<polyline points="118.0,337.0,118.0,342.0,116.0,347.0,118.0,347.5,120.0,351.5,124.5,355.0,123.0,361.0,124.5,363.5,128.0,371.0,130.0,375.0,130.5,377.5,131.0,382.5,132.0,383.5,135.0,385.5,138.0,389.5,135.5,388.5" stroke="black" stroke-width="1" fill="none" />
<polyline points="143.5,367.5" stroke="black" stroke-width="1" fill="none" />
<polyline points="143.0,363.0,145.0,365.0" stroke="black" stroke-width="1" fill="none" />
<polyline points="135.0,362.5" stroke="black" stroke-width="1" fill="none" />
<polyline points="130.5,352.0" stroke="black" stroke-width="1" fill="none" />
<polyline points="132.0,352.5,133.5,361.0,136.5,365.0,135.0,366.5" stroke="black" stroke-width="1" fill="none" />
<polyline points="147.0,365.5,143.0,361.5,146.5,360.5,140.5,357.0,140.0,348.5,141.5,349.5,135.5,340.0,138.0,340.5,133.5,332.0,127.0,333.5" stroke="black" stroke-width="1" fill="none" />
<polyline points="130.0,341.5,135.5,339.0,141.0,347.0" stroke="black" stroke-width="1" fill="none" />
<polyline points="141.5,337.5,139.0,343.5,142.5,339.5,139.5,330.5,138.0,330.5" stroke="yellow" stroke-width="1" fill="none" />
<polyline points="129.0,342.5,133.0,350.0,139.5,351.5,136.5,349.0" stroke="black" stroke-width="1" fill="none" />
<polyline points="134.0,351.5,130.5,347.5,127.0,342.5" stroke="yellow" stroke-width="1" fill="none" />
<polyline points="115.5,344.5,115.0,347.0,116.0,350.0,115.5,353.0,116.5,358.0,116.0,362.0,115.5,366.5,116.0,370.0,115.5,374.0,115.0,379.0,114.0,383.0,115.0,385.0,115.0,391.0,115.0,395.5,116.5,397.0,121.0,403.5,120.0,408.0,115.0,412.0,112.0,415.5,116.0,413.0,119.0,409.5,123.0,404.5" stroke="black" stroke-width="1" fill="none" />
<polyline points="124.0,406.5,119.5,411.5" stroke="black" stroke-width="1" fill="none" />
<polyline points="123.5,416.0,121.5,415.5,122.5,425.0,129.0,425.5" stroke="black" stroke-width="1" fill="none" />
<polyline points="131.0,431.0,124.0,426.5,120.0,421.5,121.5,424.0" stroke="green" stroke-width="1" fill="none" />
<polyline points="122.5,418.5,124.0,422.0,126.5,426.0" stroke="black" stroke-width="1" fill="none" />
<polyline points="121.5,431.0,121.0,434.5,118.5,441.0,116.0,443.0,118.5,443.5,121.0,435.5" stroke="black" stroke-width="1" fill="none" />
<polyline points="121.0,440.0,121.5,444.0" stroke="black" stroke-width="1" fill="none" />
<polyline points="123.5,456.0" stroke="yellow" stroke-width="1" fill="none" />
<polyline points="124.5,454.0,124.0,450.5,122.0,454.5,119.0,454.5" stroke="yellow" stroke-width="1" fill="none" />
<polyline points="108.5,443.0,109.5,441.0" stroke="black" stroke-width="1" fill="none" />
<polyline points="104.5,437.5,104.0,444.5,105.5,446.0,105.0,445.0" stroke="black" stroke-width="1" fill="none" />
<polyline points="96.0,450.0,89.5,456.0,87.5,460.0,85.5,456.5,90.5,454.5,92.5,451.5,91.5,452.5" stroke="black" stroke-width="1" fill="none" />
<polyline points="94.0,455.5,88.0,459.5,84.0,461.5,90.5,457.5,94.5,455.5" stroke="orange" stroke-width="1" fill="none" />
<polyline points="97.5,465.5,91.0,471.0,90.5,471.5,94.5,468.5" stroke="black" stroke-width="1" fill="none" />
<polyline points="97.5,491.5,97.0,493.0,99.0,499.0,103.0,504.0,105.0,505.0,105.0,510.0" stroke="orange" stroke-width="1" fill="none" />
<polyline points="108.5,510.0,109.5,506.0,110.5,501.5,111.0,497.0,111.5,492.0,113.5,488.5" stroke="green" stroke-width="1" fill="none" />
<polyline points="113.5,488.5,114.0,487.0,115.0,493.0,114.0,495.5,114.5,499.5,112.5,505.0,112.0,509.5,112.0,512.5" stroke="orange" stroke-width="1" fill="none" />
<polyline points="103.5,509.5,103.5,507.0,98.5,502.0" stroke="black" stroke-width="1" fill="none" />
<polyline points="100.5,496.5,101.5,500.5,103.5,504.0,106.0,507.5,108.5,513.5" stroke="orange" stroke-width="1" fill="none" />
<polyline points="119.5,511.0,120.0,507.5,119.5,503.5,118.5,500.5,121.5,495.0,119.5,491.5,121.5,485.5,120.0,483.5" stroke="black" stroke-width="1" fill="none" />
<polyline points="120.5,485.0,124.0,486.5,125.5,492.5,128.5,495.0,125.0,500.5,130.5,503.0,132.0,507.0,131.0,514.0" stroke="black" stroke-width="1" fill="none" />
<polyline points="151.5,450.0,148.5,443.0,146.0,437.0,137.5,426.5,135.5,423.5,131.5,420.5,133.5,422.5" stroke="black" stroke-width="1" fill="none" />
<polyline points="131.5,420.5,134.5,424.0,133.0,429.0,137.0,432.0,138.0,436.0,141.0,441.5,141.0,442.5,140.5,449.0,138.5,454.0,136.5,456.0,135.5,464.0,135.0,467.0,134.5,457.0" stroke="black" stroke-width="1" fill="none" />
<polyline points="137.0,437.5,140.5,431.5,138.0,430.0" stroke="black" stroke-width="1" fill="none" />
<polyline points="128.5,429.0,124.5,426.0,122.0,421.5,120.0,417.5,119.0,420.0" stroke="black" stroke-width="1" fill="none" />
<polyline points="111.0,418.5,114.0,424.0,111.0,425.5,114.0,430.5,117.5,434.5" stroke="orange" stroke-width="1" fill="none" />
<polyline points="115.0,430.0,115.0,426.0" stroke="green" stroke-width="1" fill="none" />
<polyline points="108.5,417.5,115.0,423.0,109.0,425.0,110.0,430.5,113.0,436.5,109.5,441.5,106.0,441.0,108.5,454.0" stroke="black" stroke-width="1" fill="none" />
<polyline points="100.0,440.0,99.0,442.5,92.0,445.5,94.0,447.5,95.5,445.0,99.0,441.0,103.0,435.5,104.5,431.0,105.5,427.0,105.0,422.5,105.0,418.5,106.5,414.0,106.0,420.0" stroke="black" stroke-width="1" fill="none" />
<polyline points="93.0,419.0,91.0,422.5,87.5,425.0,88.5,423.0,91.0,421.0" stroke="black" stroke-width="1" fill="none" />
<polyline points="88.5,424.0,88.0,426.0,89.5,422.5,89.5,419.0" stroke="black" stroke-width="1" fill="none" />
<polyline points="91.0,405.0" stroke="orange" stroke-width="1" fill="none" />
<polyline points="99.0,399.0,93.0,397.5,88.0,398.0" stroke="green" stroke-width="1" fill="none" />
<polyline points="92.0,402.0" stroke="yellow" stroke-width="1" fill="none" />
<polyline points="102.0,409.0,98.5,408.5,98.0,408.0,96.0,404.5,97.5,400.0,93.5,399.5,91.0,395.5,90.0,390.5,89.0,388.5,88.5,383.5,88.0,383.0" stroke="black" stroke-width="1" fill="none" />
<polyline points="82.0,385.5,80.5,389.5,81.5,393.5,74.5,398.0,74.5,402.0,72.5,404.5,71.5,409.5,71.0,414.0,69.0,415.0,68.5,418.0,66.5,423.5,67.0,425.5,69.0,425.5,70.5,432.0,69.5,429.5,70.0,434.0,70.0,440.5,69.5,442.5,68.0,449.5,70.5,451.0,71.0,455.0,70.5,456.5,70.5,463.0,69.5,466.5,67.0,469.5,66.0,476.5,63.5,481.0,63.5,483.5,67.5,490.0,65.0,492.0,65.0,495.0,64.0,502.5,62.5,504.5,61.0,509.5,61.0,511.5,61.0,514.0" stroke="black" stroke-width="1" fill="none" />
<polyline points="64.5,505.0,68.5,507.0,65.5,513.0" stroke="black" stroke-width="1" fill="none" />
<polyline points="71.0,496.5,70.0,495.0,72.0,490.5,74.5,485.0,73.5,481.0,73.5,476.5,75.5,479.0" stroke="black" stroke-width="1" fill="none" />
<polyline points="64.5,475.0,67.5,473.5,67.5,477.0,66.5,481.5,67.5,485.0,67.0,488.5,66.5,493.0" stroke="black" stroke-width="1" fill="none" />
<polyline points="70.5,462.5,72.5,461.5,72.5,457.0,67.5,452.0,72.0,453.0" stroke="black" stroke-width="1" fill="none" />
<polyline points="71.0,457.5,73.0,460.5,73.0,464.5,75.5,468.5" stroke="black" stroke-width="1" fill="none" />
<polyline points="66.5,454.5,64.5,452.0,64.5,446.5" stroke="black" stroke-width="1" fill="none" />
<polyline points="66.5,454.0,65.0,456.0,66.0,459.5,67.0,463.0,69.5,467.5,70.0,470.5,71.0,474.5,69.0,478.5,69.5,483.0" stroke="black" stroke-width="1" fill="none" />
<polyline points="30.0,498.5,31.0,500.5,33.5,506.5,34.0,512.0" stroke="black" stroke-width="1" fill="none" />
<polyline points="16.5,508.5,17.0,504.5,18.5,499.5,14.5,503.0" stroke="orange" stroke-width="1" fill="none" />
<polyline points="16.5,502.0,16.5,498.0,17.5,494.5" stroke="green" stroke-width="1" fill="none" />
<polyline points="9.5,429.5,11.5,425.0" stroke="black" stroke-width="1" fill="none" />
<polyline points="4.0,419.5,6.5,423.5,6.0,427.5,8.5,434.0,10.0,435.0,10.5,439.0,8.5,441.5,13.0,445.5,12.5,449.5,13.0,453.5,16.0,458.5,17.5,457.5,14.0,464.0,15.5,468.0,16.0,472.0,15.0,473.5,14.0,478.5" stroke="black" stroke-width="1" fill="none" />
<polyline points="35.5,462.0,35.5,458.5,35.0,454.5,34.5,452.0,34.0,447.0,33.0,441.5,34.5,439.5,29.5,435.0,32.0,428.5,32.0,424.5,30.0,423.5" stroke="black" stroke-width="1" fill="none" />
<polyline points="25.0,418.5,22.0,413.0" stroke="orange" stroke-width="1" fill="none" />
<polyline points="24.0,411.5,26.5,415.5,27.5,420.0,27.0,424.0,27.5,428.0,27.5,430.0,26.5,436.0,29.5,437.5,27.5,444.5,29.5,447.0,27.5,453.0,28.5,457.0,29.0,461.5,28.0,464.0,29.0,468.5,28.0,470.5,28.5,476.5,30.5,480.5,30.5,484.5,31.0,488.5,29.5,492.5,31.5,496.5,32.0,500.0" stroke="black" stroke-width="1" fill="none" />
<polyline points="68.5,436.0,67.5,433.0,66.5,435.5,70.0,435.5" stroke="black" stroke-width="1" fill="none" />
<polyline points="66.5,425.0,64.0,426.0,65.0,420.5,64.5,416.5,65.0,411.0,66.5,410.0,68.5,407.0,73.0,401.0,74.5,396.0,73.0,396.5,74.5,401.0,73.5,399.5" stroke="black" stroke-width="1" fill="none" />
<polyline points="72.5,406.0,75.5,403.5,80.5,395.5" stroke="black" stroke-width="1" fill="none" />
<polyline points="82.5,387.0,78.0,396.0,74.0,402.0,70.5,406.5,64.0,407.5,65.5,411.0" stroke="black" stroke-width="1" fill="none" />
<polyline points="68.0,416.0,69.0,405.0,71.5,407.5,68.5,412.5,68.0,416.5,66.5,420.5,67.0,420.0" stroke="black" stroke-width="1" fill="none" />
<polyline points="70.0,416.0,74.5,422.0,72.0,421.5,73.0,426.0" stroke="black" stroke-width="1" fill="none" />
<polyline points="100.5,439.5,99.0,444.0,103.0,441.0" stroke="black" stroke-width="1" fill="none" />
<polyline points="112.0,407.0,110.5,407.5,112.5,403.5,115.0,399.5" stroke="black" stroke-width="1" fill="none" />
<polyline points="108.5,393.5,109.5,395.5,109.0,401.5,109.0,405.0,106.0,410.0,98.5,414.5" stroke="black" stroke-width="1" fill="none" />
<polyline points="105.5,404.0,105.0,399.5,102.5,398.0,108.0,392.0,105.0,392.0" stroke="black" stroke-width="1" fill="none" />
<polyline points="105.0,377.5,109.0,376.5,107.0,372.0,107.0,369.5,108.0,364.0,108.5,360.5,108.5,356.5,106.5,350.5,106.0,345.0,105.0,341.0,106.0,341.0,106.0,342.0" stroke="black" stroke-width="1" fill="none" />
<polyline points="101.0,342.5,105.0,338.5,108.5,333.5,110.5,328.5,115.5,319.0,119.5,320.0" stroke="black" stroke-width="1" fill="none" />
<polyline points="116.0,329.0,119.5,331.0" stroke="yellow" stroke-width="1" fill="none" />
<polyline points="102.5,321.0,112.0,316.0,113.5,315.5,116.0,308.0,116.0,308.0,117.0,314.5,110.0,316.5,107.0,322.0,106.0,316.5,111.5,317.0,110.5,313.0,107.0,316.5,105.0,320.0,103.0,324.0,109.0,319.0,111.5,314.0,115.5,309.5" stroke="black" stroke-width="1" fill="none" />
<polyline points="123.0,310.0,118.0,312.5,118.5,319.0,114.0,320.5,112.0,325.0,109.0,329.0,106.0,335.5,101.0,337.0,96.5,341.5" stroke="orange" stroke-width="1" fill="none" />
<polyline points="96.0,350.0,97.5,351.0,94.0,354.0" stroke="black" stroke-width="1" fill="none" />
<polyline points="96.0,357.0,95.5,361.0,94.5,367.0,89.0,372.0,93.0,373.0,92.5,377.0,84.0,383.5,87.5,385.0,83.5,389.0,88.0,391.5,86.0,396.0,90.0,399.5,90.0,407.0,91.0,407.5,87.5,413.5,96.5,411.5,99.5,411.0,104.0,411.0,109.0,407.5,113.5,404.0" stroke="black" stroke-width="1" fill="none" />
<polyline points="127.0,376.0,125.5,367.5,121.5,359.5" stroke="black" stroke-width="1" fill="none" />
<polyline points="121.0,358.5,121.0,360.5,120.0,365.0,121.5,369.5,124.5,374.0,125.0,379.5,129.5,384.0,132.0,387.0,134.0,391.0,133.5,394.5,135.5,396.0" stroke="black" stroke-width="1" fill="none" />
<polyline points="128.0,376.0,126.5,371.0" stroke="black" stroke-width="1" fill="none" />
<polyline points="118.5,361.5,122.5,370.0,124.5,373.5,125.0,372.0" stroke="black" stroke-width="1" fill="none" />
<polyline points="133.5,362.5,131.0,357.0,128.0,360.5,121.5,356.0" stroke="yellow" stroke-width="1" fill="none" />
<polyline points="121.0,356.0,124.5,360.0,127.5,362.0,131.0,366.5,129.0,368.5,135.0,368.5,137.5,370.5,147.0,372.5" stroke="black" stroke-width="1" fill="none" />
<polyline points="161.0,361.5,166.5,360.5,171.0,357.0,176.5,351.5,179.0,347.0,182.5,341.5,186.5,335.0" stroke="black" stroke-width="1" fill="none" />
<polyline points="187.5,327.5,179.0,333.5,176.5,338.0,172.0,343.5,168.5,348.5,165.0,354.5,163.0,358.0,159.5,372.0,161.5,367.0,166.5,360.5,169.5,356.0,174.0,353.5,177.0,347.5,180.0,345.0,183.0,341.0,184.0,336.5,183.0,335.0,189.0,333.5,191.0,329.5" stroke="black" stroke-width="1" fill="none" />
<polyline points="192.0,346.5,193.0,344.5,193.5,350.5,192.5,354.0" stroke="black" stroke-width="1" fill="none" />
<polyline points="193.5,356.5,193.5,351.5" stroke="black" stroke-width="1" fill="none" />
<polyline points="165.5,357.0,164.0,365.5,166.0,358.5" stroke="black" stroke-width="1" fill="none" />
<polyline points="165.5,363.0,161.0,369.5,160.5,366.0,161.0,365.0,161.5,358.0,165.5,355.0,168.0,351.0,172.0,348.5,174.5,342.5,176.5,341.0,177.5,336.5,183.5,330.5,177.5,329.0,176.5,332.5,169.5,333.5,164.5,339.5,166.5,336.0,167.0,331.5,164.5,331.5" stroke="green" stroke-width="1" fill="none" />
<polyline points="163.5,331.5,159.5,336.0,155.5,331.5,162.0,330.0,160.5,326.5" stroke="black" stroke-width="1" fill="none" />
<polyline points="167.5,320.5,171.5,319.5" stroke="black" stroke-width="1" fill="none" />
<polyline points="173.5,316.5,169.0,318.0,170.5,321.0,164.0,319.5,161.0,324.5,159.0,332.5,153.0,335.5,150.5,339.5,144.5,338.0,144.5,341.0,143.0,340.0,142.0,336.0,141.0,331.5,138.0,331.0,138.0,325.0,137.0,323.5,135.0,314.5,132.0,310.5,130.5,308.0,133.5,303.0,130.5,300.5,132.5,300.5,135.0,293.5,139.0,291.5,140.5,287.5,141.5,282.0,140.0,281.5,136.5,281.5,132.5,279.5,138.5,282.0,141.0,278.5,146.0,274.5,140.5,271.0,146.0,268.0,149.5,267.0,154.5,260.0,159.5,253.5,162.5,247.5,164.0,244.0,159.5,244.0,155.5,248.5" stroke="black" stroke-width="1" fill="none" />
<polyline points="145.0,252.0" stroke="black" stroke-width="1" fill="none" />
<polyline points="143.0,254.5,150.5,249.5,148.0,249.0,145.0,253.0,150.5,254.0" stroke="black" stroke-width="1" fill="none" />
<polyline points="150.0,266.0,145.0,267.0,142.5,271.5" stroke="black" stroke-width="1" fill="none" />
<polyline points="150.0,272.0,153.5,266.5,156.0,260.0,162.0,256.0,158.0,258.0,155.5,262.0,152.5,266.0,148.5,270.0,149.5,275.5,147.5,278.0,148.0,282.0,147.0,288.5,153.0,289.5,160.0,292.5,162.0,296.5,162.0,301.0,161.5,304.5,157.0,306.0,159.0,314.0,158.5,315.5,161.0,317.5,158.5,317.5,162.0,318.0,166.0,316.5,165.0,313.0,169.0,310.5,172.5,306.5,174.5,300.5,178.0,295.5,178.5,293.5" stroke="orange" stroke-width="1" fill="none" />
<polyline points="181.0,303.0" stroke="yellow" stroke-width="1" fill="none" />
<polyline points="180.0,308.5,174.0,303.0" stroke="black" stroke-width="1" fill="none" />
<polyline points="176.0,300.5,179.5,298.5,181.5,305.5,185.0,312.0,181.5,309.5,182.5,313.5" stroke="black" stroke-width="1" fill="none" />
<polyline points="173.0,315.5,169.5,315.0,166.0,318.5,169.5,316.5,171.0,312.5" stroke="black" stroke-width="1" fill="none" />
<polyline points="166.0,302.5,162.5,296.5,169.0,293.0,170.0,290.0,170.5,286.5,168.5,289.0,164.5,291.5,164.0,292.5,163.5,288.0,169.0,282.0,173.5,278.0,176.5,281.0,172.5,279.0,168.0,282.5,166.0,282.5,163.0,284.0,162.0,287.0,163.0,284.5,162.5,280.5,163.5,276.5,163.5,274.5,163.5,271.0,162.5,268.0,167.5,263.5,171.0,261.5,166.0,258.0,171.0,252.0,173.5,248.0,174.5,244.0,175.0,240.0,174.5,236.5,179.0,234.0,173.5,237.5" stroke="black" stroke-width="1" fill="none" />
<polyline points="174.5,231.0,177.5,235.0,177.0,242.5,178.5,244.5,177.0,246.5,178.0,252.5,179.0,256.0,177.5,257.5,179.5,261.0" stroke="black" stroke-width="1" fill="none" />
<polyline points="181.5,251.0,187.0,251.0,191.5,252.0,194.0,256.0,191.0,259.5,196.5,263.5,203.0,266.5" stroke="black" stroke-width="1" fill="none" />
<polyline points="224.0,271.5,220.5,275.5,224.0,271.5,229.0,273.0" stroke="black" stroke-width="1" fill="none" />
<polyline points="217.0,304.0,218.0,310.0,218.5,312.0,217.0,317.5,217.5,321.5,217.5,327.5,217.5,330.0,217.0,334.0,215.5,337.5,217.5,342.0,219.5,343.5,218.0,349.0,215.5,352.0,218.0,357.5" stroke="black" stroke-width="1" fill="none" />
<polyline points="251.5,381.0,252.5,383.5,254.5,382.0,259.0,382.0,266.5,383.5" stroke="black" stroke-width="1" fill="none" />
<polyline points="262.5,389.5,258.5,389.0,254.5,389.0,251.0,389.0,246.5,390.0,240.5,393.5,245.0,389.0" stroke="black" stroke-width="1" fill="none" />
<polyline points="270.0,354.0,274.0,354.5,278.0,356.0" stroke="orange" stroke-width="1" fill="none" />
<polyline points="283.5,352.0,279.5,352.5,273.5,350.5,271.5,351.0,266.0,349.0,271.0,351.5" stroke="black" stroke-width="1" fill="none" />
<polyline points="223.5,367.5,222.0,364.5,218.0,361.5,222.0,358.0,222.0,353.5,218.5,348.0,223.5,343.0,222.0,339.0,220.5,332.5,222.0,329.5,221.0,326.0,219.5,322.5,220.0,318.0,221.0,313.0,219.5,310.5,220.0,308.0" stroke="black" stroke-width="1" fill="none" />
<polyline points="181.0,304.5,178.0,303.5,173.5,300.5,179.0,302.0" stroke="black" stroke-width="1" fill="none" />
<polyline points="171.0,297.0,170.5,301.0,173.0,307.5,175.5,312.5,173.0,316.5" stroke="black" stroke-width="1" fill="none" />
<polyline points="155.0,315.0,158.5,311.5,157.5,311.0" stroke="black" stroke-width="1" fill="none" />
<polyline points="155.5,311.0,161.0,314.5" stroke="black" stroke-width="1" fill="none" />
<polyline points="154.0,312.5,156.5,317.0,160.0,311.0,156.0,306.0" stroke="black" stroke-width="1" fill="none" />
<polyline points="161.5,296.5,160.0,296.0,152.0,293.5" stroke="green" stroke-width="1" fill="none" />
<polyline points="156.5,294.0,160.5,298.0" stroke="black" stroke-width="1" fill="none" />
<polyline points="162.0,290.5,158.0,287.5,153.0,283.5" stroke="black" stroke-width="1" fill="none" />
<polyline points="150.0,281.5,154.0,285.5,157.5,289.5,162.0,292.5" stroke="black" stroke-width="1" fill="none" />
<polyline points="170.5,293.5,173.0,293.0,177.5,291.0" stroke="black" stroke-width="1" fill="none" />
<polyline points="173.5,292.0,179.5,292.5,179.5,299.5,171.5,300.0,170.5,306.0,168.5,308.5,166.5,309.0" stroke="black" stroke-width="1" fill="none" />
<polyline points="161.5,293.5,159.0,291.0,155.0,288.0" stroke="black" stroke-width="1" fill="none" />
<polyline points="156.5,291.0,158.5,295.0,164.5,294.0,166.5,293.0,170.5,290.0,170.0,287.5" stroke="yellow" stroke-width="1" fill="none" />
<polyline points="168.0,293.0,166.5,294.5,170.0,300.0,166.5,301.0,161.5,307.5,166.5,312.5,161.5,315.5,161.5,314.5,169.0,321.0,167.5,325.0,165.5,328.5,162.0,332.5,156.0,333.5,157.5,342.5,150.0,348.0,149.5,350.0,147.5,349.5,143.0,352.0,146.5,357.5,144.0,352.5,147.5,350.0,151.5,352.0,156.5,352.5,159.0,345.0,161.0,343.5,166.5,344.5,167.0,341.0" stroke="black" stroke-width="1" fill="none" />
<polyline points="155.0,300.0" stroke="black" stroke-width="1" fill="none" />
<polyline points="160.0,286.0,161.5,281.0,160.0,277.0,159.0,274.0,161.0,269.0,162.5,265.0,165.0,258.0,162.0,259.0,161.0,260.5" stroke="black" stroke-width="1" fill="none" />
<polyline points="164.5,266.5,165.5,261.0,164.0,264.0,167.5,270.0,166.0,272.0,167.5,274.5,166.5,276.5,165.5,275.5" stroke="green" stroke-width="1" fill="none" />
<polyline points="160.0,280.5,158.5,279.0,154.5,278.0" stroke="yellow" stroke-width="1" fill="none" />
<polyline points="151.0,279.5,153.5,277.0,153.0,281.0,154.0,281.5,157.5,284.0,162.0,290.0,167.5,284.5,173.5,286.0,175.0,284.5,176.0,285.5,178.5,289.0" stroke="orange" stroke-width="1" fill="none" />
<polyline points="173.5,281.5,168.5,286.5,168.0,289.5" stroke="black" stroke-width="1" fill="none" />
<polyline points="161.0,284.5,157.0,281.0,157.5,284.0" stroke="black" stroke-width="1" fill="none" />
<polyline points="157.0,300.0,151.0,296.5,150.0,290.5,150.5,288.0,150.0,282.5,150.0,278.5,152.0,271.5,153.0,270.0,156.0,265.5,158.5,264.0,163.5,257.0,162.0,252.5,164.5,249.5,166.0,246.0,167.0,242.0,169.0,240.5,164.0,246.0,160.0,254.5,155.0,259.5,151.5,260.5,147.0,259.5,142.5,258.0,141.0,264.5,134.5,264.0,136.0,260.5,134.5,265.0,128.0,265.5,125.0,266.5,131.5,262.5,131.0,258.0,129.0,255.5,127.5,249.5,126.5,247.5,136.0,245.0,135.5,244.0,137.5,237.5,137.0,234.0,132.5,231.0,135.0,228.5,132.0,223.0,132.0,219.0,132.0,216.5,129.0,211.0,128.0,207.5,125.5,202.5,123.5,196.0,124.0,193.0,120.5,189.5,120.5,185.5,120.0,181.5,117.0,177.0,117.5,173.0,119.0,168.0,121.0,162.5,120.0,160.5,120.0,156.5,120.5,153.0,120.0,150.0,123.5,147.0,122.5,141.5,123.0,137.5,125.0,134.5,124.5,130.0,127.5,127.5,127.0,121.5,130.0,115.5,130.0,114.0,132.0,107.5,131.5,102.0,138.5,101.5,138.5,98.0,140.0,102.0,134.0,106.0" stroke="black" stroke-width="1" fill="none" />
<polyline points="122.5,121.0,130.5,109.0,136.5,105.0,134.0,105.5,134.0,111.5,129.5,113.0,132.5,121.5,128.5,123.5,132.5,129.5,129.5,131.0,130.0,135.5,125.5,140.0,127.5,140.5,130.5,146.0,128.5,149.5,129.5,152.0,130.0,154.5,125.5,157.0,126.5,152.5,126.0,146.5,124.5,145.5" stroke="black" stroke-width="1" fill="none" />
<polyline points="129.5,153.5,133.5,155.0,131.5,158.0,132.5,160.0,136.5,162.0,131.5,165.5,128.0,170.0,131.5,166.5,135.0,160.5" stroke="black" stroke-width="1" fill="none" />
<polyline points="143.0,170.5,140.5,172.5,136.5,177.0,133.0,180.0,134.5,173.5" stroke="black" stroke-width="1" fill="none" />
<polyline points="136.5,171.5,130.5,176.5,133.5,175.5,137.5,173.0,142.0,169.5,139.5,170.0" stroke="black" stroke-width="1" fill="none" />
<polyline points="142.0,170.0,140.5,172.0,137.0,176.0,138.0,178.5" stroke="black" stroke-width="1" fill="none" />
<polyline points="143.0,174.0,142.5,176.5,137.0,180.0,135.0,181.0,136.5,178.0,141.0,172.5" stroke="black" stroke-width="1" fill="none" />
<polyline points="144.0,171.0,147.5,174.5,142.5,179.5,142.0,183.5,136.5,187.5,136.0,191.0,138.0,195.5,138.0,194.5,140.5,194.5,141.5,194.5,145.0,199.5" stroke="black" stroke-width="1" fill="none" />
<polyline points="150.0,194.5,145.5,191.0" stroke="black" stroke-width="1" fill="none" />
<polyline points="143.5,191.0,147.5,192.5,144.5,195.5" stroke="black" stroke-width="1" fill="none" />
<polyline points="144.0,191.0,146.0,198.5,143.0,201.0" stroke="black" stroke-width="1" fill="none" />
<polyline points="148.5,198.5,144.0,192.5,145.0,191.0,142.5,189.0,139.5,185.5,145.0,180.5,144.0,175.5,145.5,177.5,141.5,181.0,141.5,178.5" stroke="black" stroke-width="1" fill="none" />
<polyline points="145.0,186.0,147.0,183.5,149.0,190.5,151.5,191.0" stroke="orange" stroke-width="1" fill="none" />
<polyline points="150.0,189.5,148.5,187.0" stroke="black" stroke-width="1" fill="none" />
<polyline points="146.5,189.5,149.0,194.0,153.5,194.5,159.0,187.5,163.0,182.5,169.0,175.0,170.5,173.0,176.5,171.0,178.0,164.5,182.0,161.0,186.5,157.5,192.5,151.5,193.0,151.0,197.5,147.5,201.5,141.5,202.0,141.5" stroke="black" stroke-width="1" fill="none" />
<polyline points="206.0,146.0,210.0,150.0,214.5,155.5,217.5,158.5,221.5,160.5" stroke="black" stroke-width="1" fill="none" />
<polyline points="226.5,163.5,223.5,157.5,227.5,154.5,222.0,164.5,219.5,157.0,214.5,158.0" stroke="black" stroke-width="1" fill="none" />
<polyline points="218.5,154.0,221.0,155.0,230.5,160.5,224.5,165.0" stroke="black" stroke-width="1" fill="none" />
<polyline points="232.5,173.5,227.0,172.0,223.5,174.5,217.0,180.0,217.0,179.5,210.0,187.5,204.5,192.0" stroke="black" stroke-width="1" fill="none" />
<polyline points="205.5,190.5,209.0,186.5,212.5,179.5,220.5,175.0,222.0,173.5,228.5,173.5,230.0,172.5,233.5,172.5,237.5,173.5,240.5,172.0,239.5,176.0" stroke="orange" stroke-width="1" fill="none" />
<polyline points="234.5,181.5,230.0,185.5,232.0,187.0,223.0,192.5,217.5,196.5,211.0,203.0,206.0,207.5,202.0,214.0,202.5,217.5,204.0,218.5,206.5,225.0,207.5,227.0" stroke="black" stroke-width="1" fill="none" />
<polyline points="204.0,208.0,207.5,204.0,204.5,201.5,214.0,198.0,212.0,196.0,222.0,192.0,226.5,190.0" stroke="black" stroke-width="1" fill="none" />
<polyline points="222.5,199.0,214.5,203.0,207.5,207.0,208.5,210.5,208.0,210.5,211.5,204.5,216.0,202.5,218.0,196.0,224.5,193.5,226.0,193.0,229.5,191.0" stroke="black" stroke-width="1" fill="none" />
<polyline points="225.5,184.5,220.0,185.5,218.5,189.0" stroke="black" stroke-width="1" fill="none" />
<polyline points="216.0,184.5,216.5,187.5,221.0,183.0" stroke="black" stroke-width="1" fill="none" />
<polyline points="227.0,179.0,220.5,185.0,218.5,188.0,215.5,193.0,211.0,196.5,206.0,203.0" stroke="orange" stroke-width="1" fill="none" />
<polyline points="196.0,204.0" stroke="orange" stroke-width="1" fill="none" />
<polyline points="193.5,198.5,196.0,201.5,201.0,202.0" stroke="black" stroke-width="1" fill="none" />
<polyline points="203.5,202.0,197.5,202.0,195.5,198.5,191.0,197.5,191.0,197.5,185.5,201.0,184.0,207.5,181.5,207.0,185.5,200.5,189.0,198.0,188.5,196.5" stroke="black" stroke-width="1" fill="none" />
<polyline points="184.0,207.0,188.0,206.0,192.5,203.5" stroke="black" stroke-width="1" fill="none" />
<polyline points="199.0,205.5,195.5,204.0,193.0,208.0,190.0,211.5,186.5,219.0,182.5,220.0,184.5,218.0,187.5,217.0,189.0,213.5,184.0,214.5,181.5,210.0" stroke="black" stroke-width="1" fill="none" />
<polyline points="181.0,213.5,181.5,216.5,182.0,218.0" stroke="black" stroke-width="1" fill="none" />
<polyline points="181.5,219.0,178.5,223.5,182.0,219.0,180.5,215.5,180.5,215.5,180.5,210.0" stroke="black" stroke-width="1" fill="none" />
<polyline points="176.0,212.5,170.0,215.0,169.5,220.0,174.5,213.5" stroke="black" stroke-width="1" fill="none" />
<polyline points="165.5,224.0,171.0,226.5,171.5,229.0,175.5,225.5,179.5,225.5" stroke="green" stroke-width="1" fill="none" />
<polyline points="180.0,228.0,182.0,224.0,177.0,229.5,169.0,229.5" stroke="black" stroke-width="1" fill="none" />
<polyline points="167.5,240.0,168.5,242.5,166.0,245.5,166.0,253.0" stroke="black" stroke-width="1" fill="none" />
<polyline points="164.5,253.5,158.0,260.5,152.0,263.0,151.0,261.0,146.5,265.5,144.0,271.0,138.0,273.5,134.0,277.5,132.0,277.0,127.5,274.0,120.0,271.0,116.0,265.0,118.0,261.0,114.0,267.0" stroke="black" stroke-width="1" fill="none" />
<polyline points="115.5,270.0,120.0,272.0,123.5,273.5" stroke="black" stroke-width="1" fill="none" />
<polyline points="115.0,273.0,118.0,274.5,114.5,284.5,113.0,288.0,108.0,292.0,107.0,296.5,106.0,301.5,97.0,306.5,91.0,308.0,91.0,313.5,92.0,316.0,90.5,320.0,89.0,326.5,87.0,327.0,89.5,334.0,88.5,336.5,83.5,339.0,82.5,346.0,78.0,348.5,75.0,353.0,70.0,355.5,67.5,359.0,64.0,362.0,68.0,357.5,72.0,352.5,73.5,349.0,80.0,342.5,85.0,338.0,89.5,332.5,90.5,327.5" stroke="black" stroke-width="1" fill="none" />
<polyline points="86.5,324.0,92.5,323.5,90.5,327.5,93.0,327.0,91.0,330.5,86.0,335.5,82.5,339.5,79.0,343.5,75.5,345.5,71.5,349.5,70.0,355.0,65.5,356.5,62.0,361.0,63.0,365.5,66.0,362.0,70.0,357.5,75.5,354.5,79.0,347.5,83.0,342.5,88.0,339.0,90.5,339.5,92.5,345.0,91.0,345.0,88.5,352.0,84.0,354.5,82.5,357.0,82.5,363.5,75.5,369.5,77.5,372.0,85.0,373.0,84.5,368.5,87.5,362.0,92.0,355.0,96.0,349.0" stroke="green" stroke-width="1" fill="none" />
<polyline points="107.0,355.0,108.0,358.5,105.5,363.0,106.5,368.5,103.0,370.0,102.5,374.0,102.5,377.5,103.0,381.5" stroke="yellow" stroke-width="1" fill="none" />
<polyline points="112.5,368.5,109.5,364.5,109.5,360.5,107.5,358.5" stroke="black" stroke-width="1" fill="none" />
<polyline points="112.5,356.0,112.5,358.5,111.5,361.0,112.0,363.5,111.0,362.5,113.0,368.5" stroke="black" stroke-width="1" fill="none" />
<polyline points="115.5,362.5,112.5,364.5,112.5,354.5" stroke="black" stroke-width="1" fill="none" />
<polyline points="128.5,358.5,134.5,361.5,134.0,368.0,129.0,370.5" stroke="black" stroke-width="1" fill="none" />
<polyline points="84.0,354.0,80.5,361.0,76.5,367.5,77.5,368.0" stroke="black" stroke-width="1" fill="none" />
<polyline points="79.0,359.5,84.5,353.0,85.5,349.0,82.0,351.0,79.5,359.5,78.0,361.0,73.5,365.0,76.0,368.0,75.5,373.0" stroke="black" stroke-width="1" fill="none" />
<polyline points="79.5,383.0,75.0,390.0,71.0,393.5,68.5,397.5,63.0,401.5,60.5,402.0,58.5,401.5,65.0,395.0,72.0,390.5,74.5,387.0,77.5,384.5,77.0,383.0,72.5,388.5,69.0,392.0,65.5,395.5,62.0,401.5,58.5,403.0,65.0,399.0,72.0,395.0,74.0,388.5,77.5,386.0,80.0,382.5,83.0,378.5,83.0,374.5,81.0,370.5,87.0,364.5,89.5,360.0,90.0,357.0,91.0,356.5,92.5,354.5,93.0,349.5,95.5,348.0,99.0,347.5,95.5,342.0,93.0,348.5,96.5,345.5,97.5,340.5,97.5,336.5,99.0,332.0,96.5,328.5,94.5,323.0,97.5,319.0,98.0,316.0,97.5,311.5,102.0,308.0,102.5,302.0,108.0,302.5,104.5,306.0,101.0,309.5,96.0,313.0" stroke="green" stroke-width="1" fill="none" />
<polyline points="89.0,308.5,81.0,312.0,87.0,309.5,91.0,308.0,97.0,303.5,99.5,304.0,103.5,300.0,102.5,302.0" stroke="black" stroke-width="1" fill="none" />
<polyline points="95.5,303.0,91.5,307.0,98.5,302.0,99.0,296.5,106.5,293.0" stroke="black" stroke-width="1" fill="none" />
<polyline points="105.5,297.0,102.0,297.0,94.5,294.5,90.5,295.5,84.5,298.0,84.5,300.5,90.0,295.0" stroke="orange" stroke-width="1" fill="none" />
<polyline points="84.0,297.0,86.0,294.5,78.5,301.0,84.0,294.5,84.5,294.0,91.0,292.5,95.0,293.0,101.5,293.0,103.5,290.5,107.5,289.0,112.5,288.5" stroke="black" stroke-width="1" fill="none" />
<polyline points="113.0,286.5,115.0,286.0,108.5,288.5,111.5,283.0,112.0,278.5,115.0,277.0,115.0,271.0,119.5,273.0,114.0,272.0,116.0,272.5" stroke="black" stroke-width="1" fill="none" />
<polyline points="113.0,262.0,111.5,260.0,112.0,261.0,110.5,262.5,109.0,269.0,109.0,273.0,102.0,275.0,96.5,278.0,94.5,282.0,98.0,279.0,101.5,275.0,106.0,275.0,110.5,277.5,113.0,279.0,120.0,280.0" stroke="black" stroke-width="1" fill="none" />
<polyline points="113.5,278.5,109.5,281.0,105.0,283.0,101.0,284.5,95.5,285.5,94.5,281.5" stroke="yellow" stroke-width="1" fill="none" />
<polyline points="91.0,277.0,98.0,276.0,99.5,273.0,102.5,272.0,109.0,269.5,102.0,270.5,94.5,274.5,95.5,280.0,96.5,285.5,96.0,287.5,102.5,282.0,104.5,281.5,99.5,280.0,102.5,278.5,109.0,278.0,116.0,278.5,118.5,277.5,123.0,275.0" stroke="black" stroke-width="1" fill="none" />
<polyline points="129.5,266.0,127.0,263.5,130.5,271.5,124.0,272.5,118.5,274.0,110.0,280.5,101.5,284.5,100.0,287.5,92.5,295.5,93.0,302.0,87.5,306.5,81.5,310.5,83.0,316.0,78.5,319.5,72.0,325.0,75.0,321.5,79.5,321.5,81.0,313.5,87.5,316.0" stroke="black" stroke-width="1" fill="none" />
<polyline points="100.5,324.0,104.5,312.0,108.0,309.0,111.0,305.0,115.5,301.5,119.5,297.5,121.0,299.0" stroke="black" stroke-width="1" fill="none" />
<polyline points="116.5,305.0,115.5,309.5,110.0,312.5,108.0,317.5,107.0,319.0,98.0,328.5" stroke="black" stroke-width="1" fill="none" />
<polyline points="79.5,316.0,75.5,318.0,71.5,320.5,68.0,322.5,75.5,318.5,78.5,314.5,75.5,313.0,76.0,306.0,74.5,307.0,73.0,306.5" stroke="black" stroke-width="1" fill="none" />
<polyline points="75.0,308.5,78.5,311.5" stroke="black" stroke-width="1" fill="none" />
<polyline points="80.0,307.0,79.0,308.0,79.5,311.0,85.0,309.0,87.5,309.0,91.0,304.0" stroke="black" stroke-width="1" fill="none" />
<polyline points="108.5,305.0,104.5,315.0,98.0,321.0,99.0,319.0,100.5,313.0,103.0,311.0,104.5,305.5,109.0,301.0" stroke="green" stroke-width="1" fill="none" />
<polyline points="102.5,293.0,97.5,295.5,105.5,296.5,107.0,293.5,111.0,291.5" stroke="black" stroke-width="1" fill="none" />
<polyline points="106.0,286.0,108.0,291.5" stroke="yellow" stroke-width="1" fill="none" />
<polyline points="93.5,282.0,91.0,280.0,90.0,274.5,93.5,275.0" stroke="black" stroke-width="1" fill="none" />
<polyline points="123.5,284.5,118.0,283.5,116.5,285.5,119.5,296.5,109.0,298.0,106.0,299.0,102.5,301.0,103.5,312.5,101.5,317.0,96.5,317.5,95.5,321.0,100.0,324.0,102.0,330.5,98.5,334.5,90.0,334.0,99.5,338.5,101.5,332.0,107.0,330.5,108.0,319.0,114.5,317.5,118.5,309.0,117.0,295.0,123.5,302.5,120.0,305.5,131.0,313.0" stroke="orange" stroke-width="1" fill="none" />
<polyline points="127.0,311.0,129.0,317.5,126.0,317.0,127.0,321.0,129.5,325.5,128.5,330.5,127.0,335.5" stroke="black" stroke-width="1" fill="none" />
<polyline points="121.0,311.0,119.5,315.0,120.5,320.5,115.0,321.5,111.5,326.5,109.5,334.5,107.5,335.5,104.5,339.5,98.0,343.5,98.5,346.0,99.5,351.0,95.5,352.0,92.0,356.0,94.0,360.0,90.5,365.0,93.0,368.0,90.5,370.5,93.0,380.0,92.5,382.5,93.5,386.5" stroke="black" stroke-width="1" fill="none" />
<polyline points="80.5,390.5,80.5,398.0,77.0,400.0,72.0,403.5,72.5,406.0,74.5,413.5" stroke="black" stroke-width="1" fill="none" />
<polyline points="21.0,368.5,20.0,374.5,20.0,372.5,21.5,366.5" stroke="green" stroke-width="1" fill="none" />
<polyline points="124.5,285.0,125.0,290.0,122.0,291.5,123.0,299.5,119.0,303.5,110.0,305.0,110.5,307.0,105.0,312.5,110.5,310.0,109.5,303.0,114.5,300.5,121.5,300.5,122.5,297.5,129.0,293.0,133.0,287.0,137.0,287.5" stroke="black" stroke-width="1" fill="none" />
<polyline points="133.5,271.0,137.0,264.5,136.5,261.5" stroke="black" stroke-width="1" fill="none" />
<polyline points="137.5,253.0" stroke="green" stroke-width="1" fill="none" />
<polyline points="131.0,251.0,136.5,246.5,139.0,245.0,139.0,247.5" stroke="black" stroke-width="1" fill="none" />
<polyline points="143.0,245.5,137.0,245.0" stroke="black" stroke-width="1" fill="none" />
<polyline points="142.0,240.5,138.0,233.5,134.0,223.5,133.5,225.0" stroke="black" stroke-width="1" fill="none" />
<polyline points="143.0,225.5,145.0,216.5" stroke="orange" stroke-width="1" fill="none" />
<polyline points="146.5,213.0,151.0,209.5,150.5,207.5" stroke="black" stroke-width="1" fill="none" />
<polyline points="146.5,201.5,142.0,195.0,138.5,195.0,140.5,192.5,133.5,189.0,137.0,182.5,142.0,178.0,145.5,174.0,142.5,174.5,141.5,183.0,135.5,185.0" stroke="black" stroke-width="1" fill="none" />
<polyline points="134.0,185.0,140.0,184.5,141.5,175.5" stroke="green" stroke-width="1" fill="none" />
<polyline points="146.0,180.5,145.5,185.5,142.0,188.0,137.0,189.5" stroke="yellow" stroke-width="1" fill="none" />
<polyline points="141.5,192.0,136.5,200.5" stroke="black" stroke-width="1" fill="none" />
<polyline points="143.0,193.5,142.0,197.5,146.5,202.0,146.0,204.5,142.5,213.0,143.5,215.0,147.5,208.5,151.0,202.0,153.5,203.0" stroke="green" stroke-width="1" fill="none" />
<polyline points="132.5,205.5,125.0,196.0" stroke="black" stroke-width="1" fill="none" />
<polyline points="110.0,221.5,109.5,228.0,111.5,228.5,115.5,227.5" stroke="green" stroke-width="1" fill="none" />
<polyline points="116.0,227.5,115.0,234.0,115.0,229.5" stroke="black" stroke-width="1" fill="none" />
<polyline points="125.5,253.0,118.5,259.0,115.5,261.0,112.0,264.5,115.0,259.5,119.5,253.0,123.0,252.5,127.5,247.5,130.5,247.0,136.0,240.5,141.5,239.5,146.5,235.0,149.5,232.0,156.0,228.0,160.0,224.5" stroke="green" stroke-width="1" fill="none" />
<polyline points="162.5,225.5,153.5,229.5,154.0,230.0,147.5,238.0,147.5,241.5,143.5,247.0,143.0,251.0,142.0,255.0,141.5,260.0,142.5,265.0,135.5,266.0,130.5,269.5,131.0,271.5,135.5,270.0" stroke="black" stroke-width="1" fill="none" />
<polyline points="156.0,254.5,151.5,253.5,156.5,257.5,156.5,250.5" stroke="black" stroke-width="1" fill="none" />
<polyline points="166.0,231.0,162.5,237.5,160.5,239.0,161.5,237.0,166.0,232.0,165.0,228.5,169.0,230.0" stroke="black" stroke-width="1" fill="none" />
<polyline points="169.0,225.0,163.5,226.0" stroke="yellow" stroke-width="1" fill="none" />
<polyline points="175.5,229.0,170.5,232.5,167.0,236.0,161.0,238.0,161.5,243.5,157.5,247.0,147.0,244.0,149.5,253.5,152.0,255.0,150.0,258.0,140.5,259.5,142.5,266.0,134.5,265.0,135.5,274.0,122.0,278.0,132.0,287.0,125.0,288.0,126.0,296.5,125.0,302.5,127.0,307.0,124.0,307.0,122.0,310.5,123.5,318.0,120.0,317.0,124.0,325.0,124.5,329.0,118.5,331.5,123.5,338.0,125.5,339.5,121.5,341.0,127.5,345.5,128.0,350.5,137.0,355.0,130.0,356.5,137.5,364.5,141.0,368.5,137.5,364.0,142.0,369.5,146.0,377.0,143.0,378.5,142.0,380.5,141.5,387.5,147.0,393.0,148.5,397.0,150.0,397.0,145.0,396.0,150.5,405.0,153.5,406.0,153.5,408.5,159.5,414.5,161.0,418.5,159.5,422.5,150.0,422.5,155.0,422.5" stroke="black" stroke-width="1" fill="none" />
<polyline points="170.0,423.5,163.5,415.0" stroke="black" stroke-width="1" fill="none" />
<polyline points="191.0,430.5,194.5,434.0" stroke="black" stroke-width="1" fill="none" />
<polyline points="198.0,432.0,198.0,427.0" stroke="black" stroke-width="1" fill="none" />
<polyline points="197.0,425.0,196.5,429.0,193.5,431.5" stroke="black" stroke-width="1" fill="none" />
<polyline points="193.5,399.5,193.5,395.5,193.5,391.5" stroke="orange" stroke-width="1" fill="none" />
<polyline points="190.0,392.5,193.5,396.5,193.0,400.0,188.5,402.5,188.0,409.0,190.5,411.5,190.5,415.5,190.0,419.5,189.5,422.0,189.5,427.0,186.0,433.5,188.0,435.0,188.5,439.0,186.0,440.5,183.0,446.0,186.5,444.5,190.5,445.0,197.0,448.0,200.0,446.5,201.0,445.0" stroke="yellow" stroke-width="1" fill="none" />
<polyline points="384.0,362.0,380.5,356.0,379.5,354.5,380.0,348.0,380.0,343.5,379.0,339.5,379.0,336.0,378.0,331.5,378.0,327.0,378.0,323.0,376.0,316.5,376.0,312.5,375.0,308.5,378.0,304.5,377.0,301.0,374.0,296.5,374.5,292.5" stroke="black" stroke-width="1" fill="none" />
<polyline points="380.0,289.0,379.5,285.0,379.0,281.5,381.0,277.5,383.0,273.5,382.0,269.5,383.0,265.5,382.0,266.0" stroke="black" stroke-width="1" fill="none" />
<polyline points="366.5,263.0,366.0,267.0,367.5,273.5,366.5,276.0,363.0,277.5,365.5,284.0,366.5,285.5,365.0,292.5,364.5,294.5,363.5,300.0,364.5,304.0,361.0,308.5,364.0,312.5,364.5,314.0" stroke="black" stroke-width="1" fill="none" />
<polyline points="348.0,280.0,341.5,278.5,337.5,280.0,333.5,280.0,331.5,278.0,320.0,277.5,320.0,275.0,322.5,269.0" stroke="black" stroke-width="1" fill="none" />
<polyline points="323.5,266.5,328.5,279.5,331.0,274.0,334.0,279.5,336.5,276.5" stroke="black" stroke-width="1" fill="none" />
<polyline points="320.0,275.5,317.5,276.0,319.5,275.0,318.5,270.0,319.0,264.0,328.0,262.5,328.0,256.5,334.5,252.5,330.5,252.0" stroke="black" stroke-width="1" fill="none" />
<polyline points="364.0,265.0,365.0,267.0,365.0,269.0,364.0,275.5,362.5,280.0,361.5,282.0" stroke="black" stroke-width="1" fill="none" />
<polyline points="298.0,224.5,294.0,227.0,287.5,231.5,286.0,233.5,288.5,231.0,293.0,224.5" stroke="black" stroke-width="1" fill="none" />
<polyline points="268.5,213.0,268.0,214.5,273.5,205.0,277.0,204.0,281.0,200.5,284.5,197.0,287.0,192.5,293.0,189.0,296.0,188.0,299.5,180.5,304.0,181.0,308.5,178.5" stroke="black" stroke-width="1" fill="none" />
<polyline points="309.5,175.0,309.0,175.0,305.0,177.5,300.5,180.0,297.5,179.0,293.5,183.0,288.0,190.0,287.5,187.0,280.5,196.5,277.0,199.5,273.0,203.0,269.0,205.5,264.5,212.5,262.0,209.5,259.5,220.0,258.5,216.5,252.5,225.5,247.0,232.5,242.5,232.0,239.0,242.5,235.0,247.5,231.0,247.0,227.0,258.5,223.0,264.5,219.5,271.5,215.5,278.5,213.5,280.5,208.0,294.5,204.0,302.5,200.0,312.5,200.5,320.0,198.0,316.5,199.5,312.0,201.0,308.0,202.5,304.0,205.0,298.5,206.5,296.0,207.5,292.5,210.5,282.0,211.5,285.0,213.0,281.0,216.0,270.5,218.5,273.5,220.5,269.5,223.5,262.0,226.0,261.5,228.0,257.5,233.0,247.0,234.5,249.0,237.5,245.0,240.0,236.0,244.5,232.0,248.0,232.5,250.5,226.0,255.5,224.5,262.5,217.5,261.0,215.5,261.5,204.5,264.5,201.0,264.5,203.5,265.5,199.5" stroke="black" stroke-width="1" fill="none" />
<polyline points="266.0,204.0,262.0,208.0" stroke="black" stroke-width="1" fill="none" />
<polyline points="252.5,215.5,245.0,215.0,243.0,212.5" stroke="yellow" stroke-width="1" fill="none" />
<polyline points="217.0,196.5,211.0,197.5,219.0,192.5,219.5,190.0,220.0,182.0,226.0,184.0" stroke="black" stroke-width="1" fill="none" />
<polyline points="223.0,174.5,217.0,179.0,213.5,182.5,209.5,186.5,206.0,190.5,207.5,192.0,206.0,196.5,209.5,194.5,214.0,194.0,218.5,193.0,222.5,189.5,226.0,189.0,228.5,187.5,231.5,183.5,235.5,182.0,237.5,184.0" stroke="black" stroke-width="1" fill="none" />
<polyline points="244.5,173.0,242.5,176.0,241.5,180.5,239.0,184.0,234.0,186.5,237.0,182.5,243.0,181.0,247.5,179.0,253.5,175.0" stroke="black" stroke-width="1" fill="none" />
<polyline points="249.5,178.5,248.0,178.0,243.5,183.0,244.5,186.5,242.0,190.5,240.0,193.0,234.0,201.5,232.5,201.0,231.0,205.5,230.5,209.5,232.5,211.0,233.5,209.5,236.5,208.5" stroke="black" stroke-width="1" fill="none" />
<polyline points="266.5,186.5,261.5,189.5,256.5,195.0,253.5,199.0,252.0,199.5,249.5,200.5,254.5,194.0,259.5,192.5,264.0,185.0,266.5,185.0,269.0,186.0" stroke="black" stroke-width="1" fill="none" />
<polyline points="265.5,183.5,261.0,189.0,257.5,190.5,261.5,187.5,263.0,186.0,263.5,185.0" stroke="black" stroke-width="1" fill="none" />
<polyline points="271.0,182.5,261.5,184.0,257.0,187.5,253.0,188.0,245.0,197.0,244.5,201.0,242.0,199.5,242.5,193.0,245.0,192.0,249.0,187.0,249.0,184.0,252.5,182.5,256.0,180.5,258.0,183.0" stroke="orange" stroke-width="1" fill="none" />
<polyline points="263.0,175.0,268.5,176.5,272.5,176.0,277.0,178.0,281.5,174.0,283.5,175.0,292.0,176.5,296.0,180.5,290.5,183.5,286.0,186.0,279.5,193.0,274.0,196.5,269.5,196.5,273.5,194.0,272.0,197.0,270.0,198.5,275.5,193.5,279.0,192.5,283.0,189.0,287.0,185.0,292.0,181.0,296.0,178.5,300.0,176.0,301.5,171.0,306.0,171.5,313.0,169.0,317.0,167.5,321.5,164.0,326.0,162.0,331.0,161.5,334.5,157.5,338.0,155.0" stroke="black" stroke-width="1" fill="none" />
<polyline points="310.5,174.5,306.5,176.0,301.0,179.5,295.5,183.5,290.0,187.5,285.0,191.5,281.0,195.5,276.0,200.0,271.0,202.5,267.5,208.5,271.0,208.5,266.5,214.5,264.5,220.5,268.0,224.0,265.0,224.0,264.5,228.0,267.0,230.0,266.0,234.0,265.0,240.5" stroke="black" stroke-width="1" fill="none" />
<polyline points="273.0,189.5,273.0,185.5,272.0,181.5" stroke="black" stroke-width="1" fill="none" />
<polyline points="260.5,162.5,268.0,161.0,264.5,162.5,260.5,165.0,256.0,164.0" stroke="black" stroke-width="1" fill="none" />
<polyline points="247.5,158.0,252.5,162.0,257.0,166.0" stroke="black" stroke-width="1" fill="none" />
<polyline points="248.5,174.5,254.5,176.5,258.0,178.0,258.5,175.5" stroke="black" stroke-width="1" fill="none" />
<polyline points="243.5,145.5,246.5,140.5,249.5,138.5,254.5,134.5,261.5,128.0,256.5,130.0,252.5,132.5,249.5,134.5,243.5,140.5,241.5,144.0,238.0,147.0,233.0,142.0" stroke="green" stroke-width="1" fill="none" />
<polyline points="235.0,143.5,240.5,146.5" stroke="black" stroke-width="1" fill="none" />
<polyline points="221.5,147.5,220.0,145.5,215.5,146.5,213.0,141.0" stroke="black" stroke-width="1" fill="none" />
<polyline points="219.0,145.0" stroke="green" stroke-width="1" fill="none" />
<polyline points="210.5,150.5,212.5,154.5,218.0,158.5,222.0,160.0" stroke="black" stroke-width="1" fill="none" />
<polyline points="207.0,162.5,203.0,161.0" stroke="black" stroke-width="1" fill="none" />
<polyline points="204.0,162.5,204.0,165.5,197.5,169.5,192.0,173.5,190.0,177.0,183.5,181.5,179.5,185.5,177.0,188.5,173.0,191.0,168.0,197.5,167.5,198.5,162.5,201.5,168.5,197.0,172.5,193.5,176.5,188.5,180.5,185.0,186.0,182.5,188.0,177.5,193.5,176.0,196.5,168.5" stroke="black" stroke-width="1" fill="none" />
<polyline points="221.5,175.5,214.0,179.0,211.0,185.0,208.0,186.0,204.5,190.0,204.5,194.5" stroke="black" stroke-width="1" fill="none" />
<polyline points="204.5,138.5,203.0,136.5,198.0,134.0" stroke="black" stroke-width="1" fill="none" />
<polyline points="201.0,131.0,203.5,136.0,202.0,141.0,203.0,141.5,207.0,138.0,211.0,135.0,213.5,130.0,219.0,129.5,222.5,127.0" stroke="black" stroke-width="1" fill="none" />
<polyline points="225.5,126.5,220.0,128.5,213.0,134.5,207.5,138.5,209.0,139.5,213.5,136.0,217.0,133.5,221.0,130.5,222.5,126.5,229.0,125.5,231.0,120.0" stroke="green" stroke-width="1" fill="none" />
<polyline points="238.0,117.5,231.5,124.5,224.0,127.0,219.0,131.5,211.0,136.5,206.0,136.5,205.5,143.5,199.0,145.5,194.5,150.0,188.5,153.5,185.0,157.5,184.0,163.0,179.5,163.5,173.0,168.0,168.5,174.0,163.5,177.5,161.0,182.5,158.5,186.5,154.0,192.0,150.0,194.0,152.5,199.5,151.0,203.5,148.5,207.5,146.5,211.5,146.0,215.0,141.0,221.0,142.0,223.0,141.5,227.5,141.5,231.0,142.0,235.0,142.0,239.0,141.5,241.0,134.5,244.0,132.0,249.5,132.5,255.0,135.0,256.0,142.0,255.5,142.0,256.5" stroke="green" stroke-width="1" fill="none" />
<polyline points="133.0,172.0,134.0,172.5,132.5,179.0,138.0,172.5,140.0,172.5,141.0,166.5,143.5,164.5" stroke="black" stroke-width="1" fill="none" />
<polyline points="127.0,140.5,131.5,135.5,135.0,129.0" stroke="yellow" stroke-width="1" fill="none" />
<polyline points="156.5,130.0,151.0,132.0,147.5,133.5,152.5,132.0,157.5,125.5" stroke="black" stroke-width="1" fill="none" />
<polyline points="191.5,119.5,184.5,122.5,180.5,125.5,179.5,124.0,184.5,122.5,193.0,118.5,188.0,119.5" stroke="black" stroke-width="1" fill="none" />
<polyline points="184.0,122.5,178.5,126.0,179.5,126.0,182.0,123.0,187.0,120.0" stroke="orange" stroke-width="1" fill="none" />
<polyline points="192.5,130.5,189.5,135.5,186.5,135.5,191.0,133.0" stroke="black" stroke-width="1" fill="none" />
<polyline points="202.5,117.0,199.0,119.0,197.0,124.5,198.5,120.0,206.5,116.0,204.5,118.0" stroke="black" stroke-width="1" fill="none" />
<polyline points="196.0,109.5,194.0,110.0" stroke="yellow" stroke-width="1" fill="none" />
<polyline points="226.5,127.5,224.5,130.0,220.0,132.5,215.5,133.5,212.0,138.5,206.5,143.0,204.0,143.0,202.5,150.0,196.5,153.0,196.0,149.5,200.0,145.0,208.5,142.0,213.0,139.5,218.0,135.5,223.5,132.0,230.5,127.5" stroke="black" stroke-width="1" fill="none" />
<polyline points="257.0,136.0,255.0,137.0,251.5,140.0,247.5,143.5,243.0,146.5,238.0,148.5,233.5,152.0,230.0,152.5,225.5,157.5,221.5,161.0,220.0,163.0,224.5,159.0,229.5,156.0,235.5,150.5,241.5,146.5,246.0,142.5,251.5,138.5,256.5,134.5,261.0,130.0" stroke="black" stroke-width="1" fill="none" />
<polyline points="282.5,141.5" stroke="yellow" stroke-width="1" fill="none" />
<polyline points="299.5,134.5,295.5,137.5,292.0,141.0,290.5,141.5,294.5,137.0,300.5,134.5" stroke="black" stroke-width="1" fill="none" />
<polyline points="311.5,174.5,308.5,178.5,301.0,182.5,296.0,186.5,289.0,190.5,286.5,194.5,280.0,200.0,278.0,202.5,274.0,206.5,270.0,211.5,272.5,214.5" stroke="black" stroke-width="1" fill="none" />
<polyline points="238.0,101.5,234.0,101.5,231.5,105.5,225.5,104.0,221.5,107.5,225.5,104.0,230.5,100.5,235.5,101.0" stroke="green" stroke-width="1" fill="none" />
<polyline points="237.0,97.5,234.0,100.0,239.0,96.0" stroke="black" stroke-width="1" fill="none" />
<polyline points="248.0,92.0,243.5,95.0,250.0,91.5,250.0,91.0" stroke="black" stroke-width="1" fill="none" />
<polyline points="264.0,87.0,260.0,86.5,256.5,89.0,254.5,93.5,248.0,94.0,243.5,96.5,240.0,99.5,236.0,102.5,230.0,103.5,228.0,108.0,222.5,112.5,220.5,113.5,218.0,114.5,210.0,118.0,208.0,121.5,204.0,125.0,199.5,128.5,195.0,132.5,190.5,136.5,185.5,142.0,182.5,144.0,181.0,149.0,174.5,151.5,168.0,152.5,167.5,156.5,162.0,162.5,157.0,167.5,155.0,170.5,153.5,173.5,154.5,171.0,160.5,165.0,165.0,161.5,167.0,159.0,174.0,153.0,180.0,149.0,181.5,142.5,187.0,143.5,191.0,135.0,193.0,131.0,198.0,130.0,203.0,124.5,210.0,122.0,216.5,114.5,219.5,113.0,224.5,109.0,231.5,105.5,237.0,101.5,243.0,97.5,248.0,93.5,255.5,90.0,264.5,86.5" stroke="black" stroke-width="1" fill="none" />
<polyline points="236.5,79.5,229.5,83.5,223.0,86.0,227.0,85.5,231.5,80.5,236.5,81.0" stroke="black" stroke-width="1" fill="none" />
<polyline points="231.0,47.5,235.0,48.0" stroke="black" stroke-width="1" fill="none" />
<polyline points="230.0,46.5,226.5,48.5,227.0,47.5,233.0,48.5,237.0,48.0,243.5,47.0,245.0,49.0,248.5,50.0,253.5,48.5,258.5,51.5,258.0,54.0,264.0,55.0,268.5,58.0,272.5,61.0,276.5,63.5,281.0,67.0,284.5,70.0,288.0,73.5,291.5,77.0,297.0,75.5,300.5,79.5,302.5,86.0,308.0,92.0,312.5,98.0,316.5,100.5,322.5,105.5,324.0,108.0,329.5,115.5,331.5,122.5,335.5,129.0,339.5,132.5,341.0,136.5,347.5,146.5,352.0,144.5,355.0,142.0,360.0,137.5,361.5,137.5,367.5,135.5,372.5,132.5,375.5,130.5,379.5,128.0,384.0,125.0,387.5,121.5,390.5,118.0,395.5,114.5,399.5,113.0,402.0,110.0,407.5,114.5,412.0,113.0,416.0,112.0,420.0,122.0" stroke="black" stroke-width="1" fill="none" />
<polyline points="412.0,115.0,416.0,119.0,419.5,124.5,421.0,124.5,419.5,131.0,419.5,135.5,418.5,139.5,419.0,144.5,417.5,147.0,416.0,151.0,416.0,156.5,411.0,159.0,412.0,165.0,411.5,166.0,410.0,170.0,408.5,173.5,407.0,177.5,404.5,181.5,402.5,183.5,395.5,190.0,394.5,196.0,386.0,200.5,384.0,201.5,377.5,203.0,373.5,209.5,367.5,213.0,371.5,213.5,375.0,208.5,379.0,207.5,383.5,202.5,387.5,199.0,390.5,195.5,395.0,191.0,400.5,188.0,400.5,185.0,407.5,179.0,411.5,170.0,415.5,158.5" stroke="black" stroke-width="1" fill="none" />
<polyline points="367.5,131.5,368.5,130.5,367.0,128.0" stroke="black" stroke-width="1" fill="none" />
<polyline points="383.5,101.0,377.5,96.0" stroke="green" stroke-width="1" fill="none" />
<polyline points="385.0,101.0,384.5,104.0,387.0,108.5" stroke="black" stroke-width="1" fill="none" />
<polyline points="437.0,65.0,433.0,56.0,429.5,50.0,425.0,45.0,422.5,34.5,418.5,28.5,416.5,21.0,412.5,13.5,406.5,7.0" stroke="black" stroke-width="1" fill="none" />
<polyline points="514.5,74.0,510.0,78.5,507.5,82.0,505.0,88.5,500.5,88.5,496.5,93.5,491.0,99.5,486.5,104.5,484.5,108.5,484.5,114.5,479.0,118.0,476.5,119.0,475.0,122.0,470.0,128.0,468.5,132.5,465.5,135.0,465.0,140.5,459.5,147.0,457.0,149.5,453.5,152.0,453.0,157.5,449.0,159.0,448.5,166.0,447.5,168.5,443.5,174.0,442.0,178.0,439.0,185.0,437.0,184.5,435.5,191.5,433.0,196.0,430.0,198.0,429.5,204.5,431.0,206.5,427.0,213.5,427.5,216.5,422.0,218.5,424.5,224.5,420.0,228.0,417.0,233.5,418.5,238.5,415.5,240.0,413.5,244.5,412.5,248.5,413.5,251.0,412.0,256.0,409.5,258.5,408.5,262.5,408.0,266.0,405.5,271.0,404.0,275.0,401.5,278.5,404.0,280.0,401.0,286.0,400.0,290.0,396.0,296.0,398.0,298.0,396.5,300.5,396.5,307.5,394.0,310.5,394.5,317.5,390.0,322.0,391.5,323.0,390.0,327.0,388.5,331.5,387.0,335.0,385.5,339.0,388.5,344.0,385.5,343.0" stroke="black" stroke-width="1" fill="none" />
<polyline points="348.0,147.0,345.5,143.5,344.5,139.5,341.0,135.0,334.5,130.5,334.5,127.5,332.0,122.5,330.0,119.0,329.0,115.0,328.0,112.0,323.0,106.0,321.0,105.5,316.0,99.0,310.5,95.5,305.5,92.5,305.5,90.0,301.5,83.5,297.5,80.5,291.0,75.5,288.0,73.0,280.5,69.5,275.5,63.5,271.0,60.0,264.5,53.5,253.0,51.0" stroke="black" stroke-width="1" fill="none" />
<polyline points="206.5,51.5" stroke="black" stroke-width="1" fill="none" />
<polyline points="173.5,60.0,171.5,63.0,166.5,61.5,160.0,63.5,160.5,69.0,162.5,62.5,162.5,67.0" stroke="black" stroke-width="1" fill="none" />
<polyline points="163.5,65.5,158.0,70.0,153.5,75.5,153.5,76.5,155.0,78.5,158.0,73.5,160.5,70.0,160.5,71.5" stroke="black" stroke-width="1" fill="none" />
<polyline points="155.0,80.5,155.5,83.0,156.5,77.5" stroke="black" stroke-width="1" fill="none" />
</svg>