<svg xmlns="http://www.w3.org/2000/svg" width="1024" height="1024" version="1.1" fill="white"><polyline points="408.5,4.5,409.5,8.5,400.5,13.5,415.5,10.5,409.5,23.5,415.5,27.0,424.0,34.0,419.5,48.0,424.0,36.5,427.0,44.5,435.5,54.5,429.0,52.0,436.0,49.0" stroke="orange" stroke-width="4" fill="none" />
<polyline points="439.5,36.5,435.0,23.5,428.0,20.5" stroke="black" stroke-width="4" fill="none" />
<polyline points="427.5,12.0,434.0,9.0,419.5,15.5,438.5,28.5,442.0,28.5,435.0,26.5,438.5,35.0,437.0,36.0,445.0,36.0,459.0,40.5,446.5,52.5,450.0,46.0,449.5,54.5,454.5,55.5,449.0,63.0,450.5,68.5,447.5,60.0,443.0,72.5,433.0,74.5,437.5,81.5,439.0,85.5,431.0,98.0,430.5,95.0,430.0,95.5,424.5,101.5,411.5,98.0,414.0,99.0,412.5,111.5,423.0,116.0,429.5,108.5,431.0,93.5,446.5,83.0,434.5,85.0,437.5,88.5,449.5,78.5,442.5,82.5,462.5,72.0,460.0,64.0,459.5,54.0,458.0,48.5,471.5,55.5,469.5,42.0,472.0,32.5,476.5,41.0,480.0,34.0,489.5,23.5,493.0,29.5,499.0,19.5,494.5,17.0,491.5,24.5" stroke="green" stroke-width="4" fill="none" />
<polyline points="510.5,24.0,498.5,20.5,502.0,18.0,503.0,25.5,490.0,24.5,490.5,28.5,486.5,51.5,484.0,39.0,472.5,45.5,471.0,55.5,467.0,58.0" stroke="green" stroke-width="4" fill="none" />
<polyline points="497.0,98.0,505.5,94.0,498.5,102.0,490.5,106.5,489.0,103.5,488.0,106.5,476.5,115.0,476.5,125.0,460.0,121.5,467.0,129.5" stroke="black" stroke-width="4" fill="none" />
<polyline points="" stroke="green" stroke-width="4" fill="none" />
<polyline points="443.0,190.0,445.5,187.0,450.0,188.0" stroke="orange" stroke-width="4" fill="none" />
<polyline points="420.0,203.0,423.0,205.0,423.5,217.5,431.5,216.5,430.0,217.5" stroke="orange" stroke-width="4" fill="none" />
<polyline points="414.0,240.0,412.0,240.5,410.0,236.5,412.5,239.5,409.0,237.0,416.0,241.0" stroke="yellow" stroke-width="2" fill="none" />
<polyline points="" stroke="orange" stroke-width="4" fill="none" />
<polyline points="377.5,290.0,383.5,286.0,377.0,283.5,383.0,276.5,372.5,275.5,383.5,264.5,378.0,271.5,386.0,270.5" stroke="orange" stroke-width="4" fill="none" />
<polyline points="382.5,271.5,368.0,256.5,379.0,265.0,365.5,252.5,377.0,254.0,367.0,247.5,352.0,245.5,367.5,240.0,370.0,239.0,362.0,234.5,369.0,224.0,363.0,227.0,368.5,222.5,367.5,223.0,366.0,219.5,370.5,228.0,370.5,216.0" stroke="yellow" stroke-width="4" fill="none" />
<polyline points="378.0,227.0,379.0,237.5,385.0,243.5,385.5,234.5,386.0,231.5" stroke="orange" stroke-width="4" fill="none" />
<polyline points="373.0,256.0,371.5,259.0,377.0,264.5,372.0,261.0,382.0,260.5,365.5,281.5,374.0,274.0,366.5,273.5,375.0,292.5" stroke="yellow" stroke-width="4" fill="none" />
<polyline points="375.0,288.0,375.5,284.5,377.5,288.0,368.5,280.5,369.5,277.5,372.0,295.0,376.5,297.0,374.5,299.5,381.5,306.0,380.5,304.5,380.0,306.5,376.0,321.5,379.5,318.0,384.5,320.0,381.0,317.5,377.0,325.5,385.0,337.5,376.0,335.5,381.0,346.0,374.0,343.5,382.0,338.0,386.5,343.5" stroke="green" stroke-width="4" fill="none" />
<polyline points="380.5,366.0,386.5,372.0,380.5,375.5,377.5,388.0,376.0,379.5" stroke="green" stroke-width="4" fill="none" />
<polyline points="" stroke="yellow" stroke-width="4" fill="none" />
<polyline points="369.0,408.5,377.0,397.5" stroke="yellow" stroke-width="4" fill="none" />
<polyline points="353.5,406.0,354.0,406.0,343.5,402.5,342.0,401.0,331.5,395.5,332.0,394.0,323.0,400.5,323.5,387.5,314.0,390.5,307.0,397.5,302.0,387.5,309.5,398.5,307.5,383.5,304.5,390.0,305.5,386.0,307.0,386.5,296.0,389.5,302.0,390.5,291.5,395.0,294.0,394.0,299.0,391.5,299.0,390.0" stroke="orange" stroke-width="4" fill="none" />
<polyline points="316.5,361.5,328.0,356.0,324.5,349.5,333.0,349.5,342.5,335.0,340.5,326.5,340.5,334.0,342.5,332.0" stroke="green" stroke-width="4" fill="none" />
<polyline points="351.5,322.5,354.5,325.5,356.5,325.5,354.5,334.5,355.5,333.0,355.0,333.0,346.0,336.5" stroke="yellow" stroke-width="4" fill="none" />
<polyline points="353.5,344.5,361.5,352.5,350.0,363.5,357.5,375.5,363.0,364.5,357.5,370.5,357.5,374.5,355.0,378.5,366.0,386.5,363.5,382.5,361.5,395.0" stroke="orange" stroke-width="4" fill="none" />
<polyline points="354.0,378.5,358.5,376.5,362.0,381.5,360.5,379.5,350.5,372.0,365.5,375.0,364.5,366.0,364.0,359.0,375.5,369.0,368.0,362.5" stroke="black" stroke-width="4" fill="none" />
<polyline points="365.5,347.5,362.0,350.0,368.0,367.5,354.5,361.5,366.0,356.0,362.5,358.0,363.0,379.0,368.5,362.5,368.5,390.0" stroke="orange" stroke-width="4" fill="none" />
<polyline points="345.5,368.5,349.0,364.0,349.0,362.5,346.5,365.5,352.5,367.0,353.0,375.5,353.5,377.0,349.0,394.5,350.0,392.5,349.5,401.0,355.5,398.5,352.5,401.5,356.0,403.0,356.5,399.0,352.0,411.0,353.5,403.5,357.0,408.5" stroke="yellow" stroke-width="4" fill="none" />
<polyline points="374.0,463.0,379.5,452.0,374.5,453.0,379.5,449.5,363.0,452.0,376.5,445.5,368.0,434.0,372.5,422.5,381.5,425.5,372.0,415.5,382.0,425.0,370.5,416.5,378.0,408.5,366.5,395.0,382.5,398.0,384.0,401.5,387.5,397.5,381.0,395.5,378.0,388.0,386.5,390.0,380.5,371.5,396.0,385.0,377.0,377.5,373.5,365.5,381.5,364.5,384.0,363.0,382.5,344.5,392.5,345.5,377.0,344.5,382.5,341.5,384.5,341.0,376.5,337.5,373.5,333.5,376.0,341.0,364.5,322.5,372.0,313.0,369.5,321.0,367.5,314.5,361.0,311.0,381.5,311.5,369.5,307.0,370.0,289.0,367.5,294.5,363.0,286.5,368.5,285.5,374.5,283.0,370.0,276.0,371.5,275.5,372.5,276.0,366.5,255.5,363.5,264.0,367.0,250.0,362.5,240.5,368.5,253.5,379.0,239.0,369.5,239.0,370.0,243.0,369.0,228.0,370.5,224.5,358.5,224.5,356.5,221.0,359.0,206.5,362.5,205.0,349.5,210.5,363.5,203.5,344.5,205.0,353.5,198.5,350.0,199.0,346.0,200.5" stroke="orange" stroke-width="4" fill="none" />
<polyline points="343.5,188.5,344.0,192.5,331.5,211.0,355.5,194.5,341.0,196.0,339.5,196.0" stroke="black" stroke-width="4" fill="none" />
<polyline points="366.5,208.0,369.0,215.5,370.5,208.0" stroke="black" stroke-width="4" fill="none" />
<polyline points="358.0,194.5,350.5,200.5,352.0,203.0,353.0,207.5" stroke="green" stroke-width="4" fill="none" />
<polyline points="357.5,202.0,362.5,196.5,366.5,206.5,362.0,197.5" stroke="green" stroke-width="4" fill="none" />
<polyline points="345.0,214.0,349.5,208.0,350.5,207.0" stroke="green" stroke-width="4" fill="none" />
<polyline points="359.0,203.0" stroke="green" stroke-width="4" fill="none" />
<polyline points="" stroke="black" stroke-width="4" fill="none" />
<polyline points="360.5,235.5,360.0,230.0,355.5,232.0,363.0,232.5,369.0,249.0,369.0,236.0,377.5,251.0,367.0,247.0,366.5,249.5,374.0,253.0,366.5,256.0,358.5,254.0" stroke="black" stroke-width="4" fill="none" />
<polyline points="" stroke="green" stroke-width="4" fill="none" />
<polyline points="356.5,241.0,351.0,247.5,327.0,259.5,336.0,258.5,334.5,257.5,333.5,259.5" stroke="black" stroke-width="4" fill="none" />
<polyline points="" stroke="black" stroke-width="4" fill="none" />
<polyline points="325.5,250.5,323.5,259.5,338.0,251.5,338.0,254.5,350.0,252.5,348.5,244.5,354.0,243.5,350.5,240.5,347.0,246.5" stroke="green" stroke-width="4" fill="none" />
<polyline points="350.0,251.5,345.0,261.0,347.0,253.0,350.0,251.5,349.0,252.5" stroke="yellow" stroke-width="4" fill="none" />
<polyline points="346.5,296.5,334.5,295.0,344.5,283.5" stroke="orange" stroke-width="4" fill="none" />
<polyline points="338.0,270.5,351.0,269.0,352.5,285.5,335.0,279.5,353.5,282.5,345.0,289.0,346.0,290.5,338.5,296.5,350.5,304.5,341.0,313.5,337.5,311.0,341.5,311.0,337.0,319.0,340.5,328.0,341.0,329.5,323.5,322.0,332.5,338.5,337.5,335.0,339.5,336.5,325.0,345.5,321.5,351.0,320.0,358.5,324.5,348.0,320.0,352.5,312.0,364.5,312.0,377.0,307.5,364.5,308.5,369.5,319.5,376.0,316.5,379.0,309.5,393.5,324.5,389.5,323.0,400.0,339.5,393.5,340.5,402.5,346.5,405.5,356.0,416.5,359.5,419.5,350.5,429.5,352.0,423.0,365.0,424.0,357.5,430.0,357.0,433.0,365.0,439.5,368.0,446.5,371.5,451.5,361.0,451.0,365.5,451.5,366.0,456.0,365.5,471.5,377.5,477.0,381.0,479.0,380.0,484.5,371.5,486.0,368.0,476.0,379.5,492.5,384.5,497.5,376.0,493.5,373.0,501.5,377.0,493.5,374.0,496.5" stroke="black" stroke-width="4" fill="none" />
<polyline points="440.0,480.5,450.5,478.0,452.0,473.5" stroke="orange" stroke-width="4" fill="none" />
<polyline points="453.5,474.5,455.5,475.5" stroke="orange" stroke-width="2" fill="none" />
<polyline points="" stroke="black" stroke-width="4" fill="none" />
<polyline points="470.0,425.5,471.5,410.0,477.0,422.0,477.5,405.0,481.5,414.5,492.0,406.0,490.0,392.5,494.5,393.5,498.5,398.0,513.5,385.0,496.5,393.0,511.0,386.0,507.0,394.0" stroke="green" stroke-width="4" fill="none" />
<polyline points="491.0,398.5,486.5,394.0,485.0,402.5,467.0,412.5,466.5,405.0,464.0,415.5,455.5,427.5,470.0,423.5,468.5,431.5,465.0,431.5,465.0,429.0,463.5,457.0,453.0,438.5,460.5,455.5,461.0,453.0,447.0,460.0,451.0,472.0,449.0,460.5,446.5,468.5,446.5,484.0,452.5,474.0,454.5,483.5,441.5,487.0,451.0,493.0,439.0,499.0,429.0,485.5" stroke="green" stroke-width="4" fill="none" />
<polyline points="438.5,484.5,439.0,485.0,442.0,471.0,426.0,483.0,432.0,470.0,448.5,479.0,430.5,467.5,445.0,472.5,453.0,457.0,443.5,463.5,455.0,457.0,447.5,453.0,440.0,455.5,444.5,448.5,437.0,448.5,437.0,453.0,440.0,451.5" stroke="yellow" stroke-width="4" fill="none" />
<polyline points="434.0,457.5,437.0,451.0,430.5,452.5,439.5,451.5,426.0,439.5,428.5,441.5,437.5,428.0,431.0,435.0,436.0,432.5" stroke="yellow" stroke-width="4" fill="none" />
<polyline points="" stroke="black" stroke-width="2" fill="none" />
<polyline points="430.0,467.5,421.5,475.5,430.0,475.5" stroke="black" stroke-width="4" fill="none" />
<polyline points="" stroke="green" stroke-width="4" fill="none" />
<polyline points="454.0,412.5,456.5,402.0,447.5,411.0,457.0,409.0,451.5,400.0,456.5,388.0,454.5,403.0,460.0,380.5,440.5,391.0,452.5,386.0,452.5,383.5,462.0,376.5,456.5,371.5,459.0,369.5,456.0,356.5,455.5,366.0,453.0,372.0" stroke="green" stroke-width="4" fill="none" />
<polyline points="388.5,347.0,375.5,336.0,391.0,334.5,382.5,322.5" stroke="yellow" stroke-width="4" fill="none" />
<polyline points="372.5,366.5,370.0,376.5,376.0,385.5,364.0,378.0,363.5,374.5" stroke="yellow" stroke-width="3" fill="none" />
<polyline points="" stroke="orange" stroke-width="4" fill="none" />
<polyline points="" stroke="orange" stroke-width="4" fill="none" />
<polyline points="301.0,360.5,289.5,355.5,285.5,351.5,284.5,348.0,290.5,344.5" stroke="orange" stroke-width="4" fill="none" />
<polyline points="290.5,358.5,291.5,357.5,291.0,357.5,309.0,354.5,312.0,369.5,312.5,366.0,311.0,358.5,315.5,354.5,316.5,352.5" stroke="orange" stroke-width="4" fill="none" />
<polyline points="318.0,339.5,315.0,365.0,307.5,344.5,301.0,337.5,309.5,337.5,296.0,347.0,293.5,354.5,291.0,350.5,291.5,354.5" stroke="yellow" stroke-width="4" fill="none" />
<polyline points="294.5,330.5,289.5,339.5,296.5,331.5,302.5,332.5,320.5,332.5,315.0,338.0,321.0,334.0" stroke="orange" stroke-width="4" fill="none" />
<polyline points="302.0,325.5,299.0,329.5,302.0,324.0,302.0,321.5" stroke="green" stroke-width="4" fill="none" />
<polyline points="315.5,317.0,315.5,315.0,313.5,315.5,311.5,321.5,307.5,320.0" stroke="yellow" stroke-width="4" fill="none" />
<polyline points="315.5,322.5,321.0,335.0,319.0,320.0,313.5,312.0,322.0,313.0,323.0,305.5" stroke="black" stroke-width="4" fill="none" />
<polyline points="332.0,262.5" stroke="green" stroke-width="4" fill="none" />
<polyline points="322.0,260.5,326.5,269.5,324.0,268.0" stroke="orange" stroke-width="4" fill="none" />
<polyline points="325.5,279.0,327.0,274.0,316.5,269.5,329.5,269.5,341.0,276.5,332.0,269.5,321.0,268.0,326.5,274.5,329.0,269.0" stroke="orange" stroke-width="4" fill="none" />
<polyline points="" stroke="green" stroke-width="4" fill="none" />
<polyline points="" stroke="yellow" stroke-width="4" fill="none" />
<polyline points="316.0,262.0,321.5,264.0,322.5,259.5,319.5,244.0,328.0,255.0,332.5,249.0,335.5,239.0,339.5,250.5,338.5,249.5,342.5,247.5,350.5,255.0,345.5,245.5" stroke="orange" stroke-width="4" fill="none" />
<polyline points="335.0,238.0,341.0,225.5,344.0,226.5,343.5,220.5,337.0,223.5,345.0,216.5,330.5,207.0,328.0,207.0" stroke="black" stroke-width="4" fill="none" />
<polyline points="332.5,205.5,342.0,197.5,349.0,205.5,357.0,202.5,344.5,195.0,363.5,199.5,362.5,193.0,364.5,193.0,366.0,186.0,364.5,182.5,376.5,189.0,384.5,176.5,370.0,175.5,390.0,184.5,383.0,179.0,395.5,162.0,402.5,170.0,397.5,172.5,407.5,178.0,405.5,182.5,403.0,173.0,406.5,176.0,396.0,181.5,395.5,195.5,375.5,183.0,381.5,185.5,389.0,185.0,404.0,193.5,399.5,187.5,405.0,176.0,405.5,175.5" stroke="orange" stroke-width="4" fill="none" />
<polyline points="409.0,160.0,393.0,159.0,389.5,174.5,393.0,180.0" stroke="black" stroke-width="4" fill="none" />
<polyline points="365.5,182.5,349.5,190.0,346.0,191.5,339.5,206.5,341.5,196.5" stroke="black" stroke-width="4" fill="none" />
<polyline points="342.0,218.5,338.0,215.5,350.0,211.0,338.5,197.0,345.0,194.5" stroke="black" stroke-width="4" fill="none" />
<polyline points="" stroke="yellow" stroke-width="4" fill="none" />
<polyline points="348.0,206.5,352.0,205.0,352.0,211.0,343.5,222.0,348.0,226.5" stroke="black" stroke-width="4" fill="none" />
<polyline points="341.5,204.5,347.5,205.5,349.5,211.0,351.0,218.5,345.5,213.0" stroke="black" stroke-width="4" fill="none" />
<polyline points="338.5,208.5,342.5,209.0,346.5,206.5,353.5,200.5" stroke="black" stroke-width="4" fill="none" />
<polyline points="" stroke="orange" stroke-width="4" fill="none" />
<polyline points="348.5,206.0,349.5,201.0" stroke="black" stroke-width="4" fill="none" />
<polyline points="" stroke="yellow" stroke-width="4" fill="none" />
<polyline points="" stroke="yellow" stroke-width="4" fill="none" />
<polyline points="395.0,164.0,384.5,165.5,391.0,165.0,372.0,177.0,384.5,179.5,386.5,172.5,396.5,160.0,393.5,162.5,393.5,166.0,393.5,165.0" stroke="green" stroke-width="4" fill="none" />
<polyline points="400.5,164.5,398.0,165.5,392.0,170.0,385.0,177.5,400.0,173.5,395.0,170.5,398.0,166.0,399.5,159.0,404.0,166.5" stroke="orange" stroke-width="4" fill="none" />
<polyline points="391.0,129.5,390.0,132.0,391.0,119.0,377.0,130.0,386.0,130.5,375.0,144.5,387.5,121.5,394.5,124.0,393.0,125.5" stroke="yellow" stroke-width="4" fill="none" />
<polyline points="383.5,120.0,376.5,134.0,387.0,124.0,399.0,128.0,402.5,112.5,394.0,114.0,392.5,109.5,391.0,109.0,395.5,106.0" stroke="black" stroke-width="2" fill="none" />
<polyline points="379.0,123.5,385.5,124.0,384.0,130.5,377.0,138.0,369.0,142.0,371.0,143.0" stroke="green" stroke-width="4" fill="none" />
<polyline points="334.5,158.5,330.5,151.0,325.5,170.5,324.5,154.5,323.5,168.0,315.5,178.0,310.5,174.0,294.5,175.5,292.5,179.5,297.5,176.0,298.5,179.0,299.5,176.0,299.0,177.5,301.0,176.5" stroke="yellow" stroke-width="4" fill="none" />
<polyline points="" stroke="yellow" stroke-width="4" fill="none" />
<polyline points="282.0,175.0,282.0,171.5,290.5,173.0,283.0,173.0,287.5,173.5" stroke="orange" stroke-width="4" fill="none" />
<polyline points="" stroke="black" stroke-width="4" fill="none" />
<polyline points="275.0,167.0,276.0,167.5,284.5,178.5,273.0,185.5,275.0,180.0,282.5,176.0" stroke="orange" stroke-width="4" fill="none" />
<polyline points="258.0,171.5,269.0,165.5,265.0,174.0,248.5,190.0" stroke="orange" stroke-width="4" fill="none" />
<polyline points="247.5,175.5,243.5,172.5,266.5,181.0,257.5,176.5,262.0,188.0,249.0,184.5,250.5,192.0,241.5,187.5,252.0,197.0,244.5,200.0,244.5,200.0,237.5,210.0,239.5,211.0,248.0,204.5,254.5,208.0,254.0,217.0,270.0,204.5,256.0,206.0,251.5,211.0,270.5,224.5,256.5,221.5,254.5,217.5,260.0,224.0,238.5,241.5,232.5,219.5,242.0,240.5,243.5,252.0,226.5,247.0,235.0,255.0,223.0,263.0,216.5,262.0,221.5,269.5,218.0,276.0,214.5,273.5,208.0,273.0,219.5,288.0,211.5,290.0,206.5,292.5,203.5,305.5,207.5,289.0,198.5,308.5,192.5,312.5,196.0,300.5,198.5,310.0,200.5,314.5,189.5,318.5,190.5,325.5,180.0,335.5,189.0,333.5,175.5,332.0,170.0,328.5,168.5,334.5" stroke="black" stroke-width="4" fill="none" />
<polyline points="153.0,330.0,149.5,340.0,153.0,349.0,156.0,360.0,156.5,358.5,150.5,373.0,160.0,358.5,153.0,376.0,143.0,384.0,144.0,372.5,150.5,385.5,147.0,393.0,156.0,385.0,135.5,390.0,159.0,394.5,160.0,405.5,160.5,402.0" stroke="orange" stroke-width="4" fill="none" />
<polyline points="" stroke="yellow" stroke-width="4" fill="none" />
<polyline points="160.0,418.5,161.0,418.0,160.5,395.5,165.5,414.0,149.5,413.0" stroke="orange" stroke-width="4" fill="none" />
<polyline points="" stroke="orange" stroke-width="4" fill="none" />
<polyline points="184.5,446.0,172.5,445.0,181.5,438.5,182.0,445.5" stroke="black" stroke-width="4" fill="none" />
<polyline points="" stroke="black" stroke-width="4" fill="none" />
<polyline points="178.5,445.5,178.5,455.5,178.0,455.5,179.0,447.5,177.5,447.0,182.5,450.0,178.5,449.0,180.0,450.0" stroke="black" stroke-width="4" fill="none" />
<polyline points="" stroke="orange" stroke-width="4" fill="none" />
<polyline points="" stroke="yellow" stroke-width="4" fill="none" />
<polyline points="167.0,465.5,165.5,468.0,149.5,461.5,141.5,450.0,145.0,446.0,134.5,451.5,128.5,462.0,124.0,469.5,127.0,463.0,134.0,467.0,125.5,470.5,129.0,471.0,128.0,470.0" stroke="green" stroke-width="4" fill="none" />
<polyline points="147.0,465.5,147.0,478.0,151.5,479.5,157.0,490.0,147.5,487.0,159.0,478.5,157.5,489.0,174.5,501.0,163.0,499.0,164.5,499.5,174.0,500.5,165.5,498.0,163.5,502.0" stroke="green" stroke-width="4" fill="none" />
<polyline points="" stroke="green" stroke-width="2" fill="none" />
<polyline points="161.0,499.0,162.0,513.0,160.0,509.5,151.0,499.0,147.5,501.5,148.0,491.5,143.0,474.0,146.0,476.5,141.0,474.0" stroke="green" stroke-width="4" fill="none" />
<polyline points="143.5,490.0,146.5,503.0,151.0,503.5,140.5,505.0,149.5,504.5,145.0,500.0,146.0,499.5,140.5,497.5,143.5,498.0" stroke="orange" stroke-width="4" fill="none" />
<polyline points="154.5,513.5,150.5,511.5,157.5,510.0,157.5,508.5,161.5,509.0,157.5,506.5,160.0,509.5,160.5,509.0" stroke="black" stroke-width="4" fill="none" />
<polyline points="148.0,496.5,147.5,495.0,147.0,485.0,141.5,484.5" stroke="orange" stroke-width="4" fill="none" />
<polyline points="" stroke="green" stroke-width="4" fill="none" />
<polyline points="149.5,490.0,148.5,490.0,152.5,490.5" stroke="green" stroke-width="4" fill="none" />
<polyline points="162.0,497.5,151.5,491.0,156.0,497.5,150.5,492.0,155.5,503.0,162.0,506.0,162.0,512.0,165.5,512.5,158.0,509.5" stroke="orange" stroke-width="4" fill="none" />
<polyline points="149.5,506.0,150.0,507.5,145.5,514.0,141.0,513.5,147.0,508.5,157.5,503.0,134.0,494.5,134.5,493.5,141.5,493.0,144.5,493.0" stroke="black" stroke-width="4" fill="none" />
<polyline points="140.0,499.5,152.0,510.5,138.0,516.0,154.0,518.5,155.0,513.0,153.0,506.5,144.5,518.0" stroke="yellow" stroke-width="4" fill="none" />
<polyline points="148.5,497.5,141.5,493.5,139.5,496.5" stroke="orange" stroke-width="4" fill="none" />
<polyline points="152.5,506.5,158.0,511.0,159.5,507.5" stroke="black" stroke-width="4" fill="none" />
<polyline points="142.0,493.0,135.0,501.0,133.0,491.5" stroke="green" stroke-width="4" fill="none" />
<polyline points="131.5,489.5,134.0,490.5,139.0,478.5,132.0,498.0,131.5,497.5" stroke="green" stroke-width="4" fill="none" />
<polyline points="" stroke="black" stroke-width="4" fill="none" />
<polyline points="123.0,513.0,122.5,512.5,120.5,515.5" stroke="black" stroke-width="4" fill="none" />
<polyline points="121.0,502.0,121.0,503.5" stroke="black" stroke-width="4" fill="none" />
<polyline points="121.5,519.0,134.5,507.0,120.5,512.0,124.5,516.0,127.5,516.5" stroke="green" stroke-width="4" fill="none" />
<polyline points="134.0,499.0,127.0,494.0" stroke="yellow" stroke-width="4" fill="none" />
<polyline points="139.5,481.5,133.5,475.0,138.0,471.0,128.0,477.5" stroke="green" stroke-width="4" fill="none" />
<polyline points="141.0,485.5,147.5,503.0,148.5,494.5,132.0,500.5,137.0,521.0,137.0,510.0" stroke="yellow" stroke-width="4" fill="none" />
<polyline points="162.5,498.0,165.5,514.0" stroke="yellow" stroke-width="4" fill="none" />
<polyline points="166.0,503.0,172.0,491.5,168.0,494.0,169.5,485.0" stroke="green" stroke-width="4" fill="none" />
<polyline points="" stroke="black" stroke-width="4" fill="none" />
<polyline points="164.0,472.5,164.0,482.5,168.0,481.5,163.5,471.0,154.5,470.5,152.0,470.0" stroke="black" stroke-width="4" fill="none" />
<polyline points="170.5,477.0,172.0,496.0,167.5,493.0" stroke="yellow" stroke-width="4" fill="none" />
<polyline points="211.0,489.5,208.0,489.5,212.0,485.0,219.5,480.5,222.5,472.0,230.0,471.0,234.5,467.0,222.5,467.5,231.5,466.5,235.0,465.5,227.5,464.5,221.5,467.0,223.0,470.0,225.0,466.0" stroke="black" stroke-width="4" fill="none" />
<polyline points="218.5,469.5,221.0,469.5,222.5,473.0" stroke="green" stroke-width="4" fill="none" />
<polyline points="217.0,480.0,210.0,470.5,212.5,471.0,222.0,462.5,227.0,461.0,226.5,461.0,234.5,458.0,243.0,438.0,230.5,452.0,235.0,443.5,244.0,448.5,228.5,428.0,236.5,431.5,228.5,423.0,234.0,423.5,227.5,423.5,233.5,410.5,231.5,413.0,231.0,413.5,235.5,416.5,236.5,410.0,234.0,411.5" stroke="black" stroke-width="4" fill="none" />
<polyline points="" stroke="green" stroke-width="4" fill="none" />
<polyline points="231.0,423.5,236.0,424.0,231.0,422.5,235.5,422.0" stroke="green" stroke-width="1" fill="none" />
<polyline points="247.0,401.5,237.0,405.0,248.0,417.5,250.5,404.0,249.0,420.0,240.5,418.5,235.5,413.5,241.5,432.5,242.0,426.0,243.0,443.5,232.5,444.0,234.0,448.5,236.0,442.5,246.0,464.5,232.5,454.5,240.5,463.0,228.0,468.5,230.5,469.5,224.5,485.0,223.5,481.0,220.5,481.5,213.5,497.0,209.0,491.5,202.5,494.0,208.5,493.0" stroke="green" stroke-width="1" fill="none" />
<polyline points="204.0,501.0,199.0,498.5,204.0,500.0,214.5,501.0,202.0,493.5,202.5,487.0,218.0,483.0,217.5,491.5,222.0,475.0,234.0,464.0,226.5,476.5,241.5,472.0,239.5,467.5,233.5,474.0,233.0,472.5,233.0,473.0" stroke="black" stroke-width="4" fill="none" />
<polyline points="201.0,447.5,199.0,449.0,200.0,447.0,204.0,448.5,199.0,443.0,191.5,443.0" stroke="black" stroke-width="4" fill="none" />
<polyline points="201.0,445.0,186.0,450.0,186.5,448.5,177.0,449.0,184.0,447.5,182.5,449.0,181.5,440.0,180.5,432.0,174.5,425.0,177.0,434.5,184.0,428.0,180.0,425.0,176.5,433.5,175.5,409.5,176.0,416.5,177.5,404.5,175.5,412.5,169.5,405.0,156.0,396.5,167.0,391.0,159.5,386.5,158.0,389.0,164.0,379.5,154.5,381.0,156.0,378.5" stroke="yellow" stroke-width="4" fill="none" />
<polyline points="160.5,380.5,172.0,370.0,168.0,370.5,171.0,360.5,176.5,363.0,188.0,354.5,181.5,341.5,188.0,331.5,194.5,335.0,193.0,322.0,204.0,335.5" stroke="orange" stroke-width="4" fill="none" />
<polyline points="" stroke="orange" stroke-width="4" fill="none" />
<polyline points="205.0,281.5,207.5,290.0,216.0,265.0,221.0,268.0,222.0,259.0,220.0,250.0,234.5,255.5,225.5,245.0,242.5,243.0,244.0,233.0,241.5,225.0,255.5,229.5,258.0,228.0,260.0,209.0,254.0,219.0,272.0,220.5,265.5,209.0" stroke="black" stroke-width="4" fill="none" />
<polyline points="263.0,218.0,265.0,225.0,266.0,222.5,266.0,226.5" stroke="yellow" stroke-width="4" fill="none" />
<polyline points="" stroke="yellow" stroke-width="4" fill="none" />
<polyline points="266.5,221.5,264.5,226.0,262.5,217.5,265.5,227.5,250.5,217.5,252.5,231.0,244.5,229.5,239.0,242.0,232.0,252.0,237.5,249.5,234.5,253.0,224.0,263.0,221.5,270.5,225.0,277.0,224.5,276.0,215.0,284.5,224.5,282.0,228.5,274.5,217.0,261.0,231.0,257.5,218.0,259.0,250.0,254.5,239.5,244.0,240.0,239.0,249.0,239.5,249.0,237.0,246.5,229.5,249.5,231.5,258.0,225.5,261.5,212.5,275.5,227.0,269.5,215.5,265.0,210.0,267.0,207.0,261.5,211.5,260.0,209.0,270.0,197.5,282.5,186.0,278.5,181.5,270.0,188.0,268.0,180.5,268.0,177.0,261.0,198.5,256.0,194.5,264.0,204.5,264.0,194.5,266.0,202.5" stroke="green" stroke-width="4" fill="none" />
<polyline points="" stroke="green" stroke-width="4" fill="none" />
<polyline points="254.0,235.0,248.0,224.5,243.0,244.5,236.5,236.0,230.0,236.5,227.5,234.5,239.5,213.5,230.0,224.0,220.5,220.5,233.5,220.5,231.0,219.5,226.0,209.0,226.0,208.0,228.5,201.5,221.0,200.5,217.5,198.0" stroke="yellow" stroke-width="4" fill="none" />
<polyline points="227.5,204.0,235.0,204.0,230.0,204.0,226.5,206.5,219.0,205.5,219.5,213.5,215.5,210.5" stroke="green" stroke-width="4" fill="none" />
<polyline points="244.5,205.5,249.5,203.5" stroke="yellow" stroke-width="4" fill="none" />
<polyline points="" stroke="black" stroke-width="4" fill="none" />
<polyline points="251.0,190.0,247.5,193.0,251.5,187.5,238.5,191.5,248.5,199.5,242.0,190.5,254.5,186.0,249.0,192.5,250.0,175.5,263.0,192.5,265.0,186.0,261.0,181.0" stroke="orange" stroke-width="4" fill="none" />
<polyline points="260.0,190.5,264.0,196.5,262.0,200.5,247.0,211.0,246.5,208.0,252.5,218.5,253.0,194.5,259.5,204.5,259.5,192.0,272.5,183.0,270.0,192.0,268.5,182.5,268.5,189.5" stroke="yellow" stroke-width="4" fill="none" />
<polyline points="251.0,192.0,253.5,192.0,252.5,205.5,265.5,199.0,261.0,199.0,264.0,195.5" stroke="yellow" stroke-width="4" fill="none" />
<polyline points="249.0,210.5,248.5,209.0,250.5,204.0,251.0,201.0,249.0,201.5,250.5,200.5" stroke="orange" stroke-width="4" fill="none" />
<polyline points="269.0,200.5,265.5,203.0,263.5,198.0,259.5,210.0,255.0,217.5,252.0,214.0,255.5,215.5,249.5,230.0,246.5,241.5,241.5,235.5,240.0,243.5,237.0,240.0,229.5,237.5,219.5,258.5,230.5,251.0,230.5,252.5,228.5,251.0,225.5,251.5" stroke="orange" stroke-width="4" fill="none" />
<polyline points="" stroke="orange" stroke-width="4" fill="none" />
<polyline points="" stroke="green" stroke-width="4" fill="none" />
<polyline points="239.0,217.5,235.0,217.0,239.0,224.0,228.5,224.0,226.5,224.5,237.5,227.0,238.0,226.5" stroke="black" stroke-width="4" fill="none" />
<polyline points="217.5,233.0,219.0,237.5,214.0,236.0,218.5,236.5,219.5,233.0" stroke="orange" stroke-width="4" fill="none" />
<polyline points="217.0,238.0,217.5,237.5,219.5,248.0,222.5,245.5" stroke="green" stroke-width="4" fill="none" />
<polyline points="221.0,237.5,236.0,237.0,219.0,224.5,215.0,237.0,222.5,240.5,219.0,227.0,220.5,226.0,233.5,214.0,227.0,218.5" stroke="orange" stroke-width="4" fill="none" />
<polyline points="218.0,215.5,215.0,216.0,215.5,201.5,212.5,211.5,214.5,231.0,213.0,238.0,226.0,229.5,227.0,236.0,221.5,233.5,222.0,232.0,228.0,221.5,228.5,223.0,226.0,222.0" stroke="orange" stroke-width="3" fill="none" />
<polyline points="225.0,244.0,226.5,246.5,229.0,245.5,231.0,243.0,225.5,248.5,225.0,254.0,218.0,270.5,211.5,266.5,204.5,286.5,204.5,286.0,205.5,281.0,192.5,284.0,191.5,298.0,189.0,314.5,187.0,305.5,175.0,335.0,189.0,322.0,168.0,325.5,167.0,326.5,163.0,341.0,164.0,324.5,154.5,340.5,155.0,342.0,154.5,340.0,152.0,340.0,156.5,338.5,159.0,337.0" stroke="black" stroke-width="4" fill="none" />
<polyline points="141.5,350.5,136.0,343.5,145.0,335.5,144.5,346.5,146.5,338.0,145.0,330.0,136.5,329.0,134.5,332.5" stroke="black" stroke-width="4" fill="none" />
<polyline points="" stroke="orange" stroke-width="4" fill="none" />
<polyline points="150.5,341.5,148.0,345.5,145.5,352.0,138.0,354.0,143.5,354.5,148.0,342.5" stroke="black" stroke-width="4" fill="none" />
<polyline points="138.5,350.0,140.5,338.5,141.0,331.0,143.5,333.5,126.0,322.0,124.0,314.5,136.5,316.0,127.5,320.0,126.5,307.0,132.5,302.0,128.5,301.0,131.0,298.5" stroke="black" stroke-width="4" fill="none" />
<polyline points="" stroke="green" stroke-width="4" fill="none" />
<polyline points="" stroke="yellow" stroke-width="4" fill="none" />
<polyline points="136.5,298.0,139.0,298.5" stroke="yellow" stroke-width="4" fill="none" />
<polyline points="139.0,285.5,141.5,285.0,142.0,287.5,140.0,285.5,145.5,282.5,147.0,285.0" stroke="yellow" stroke-width="4" fill="none" />
<polyline points="140.5,267.5,154.0,263.5,148.0,265.5,156.0,274.0,155.0,274.0" stroke="black" stroke-width="4" fill="none" />
<polyline points="" stroke="yellow" stroke-width="4" fill="none" />
<polyline points="157.5,267.0,159.5,272.5,155.5,265.0,149.5,258.5,155.0,266.5" stroke="black" stroke-width="2" fill="none" />
<polyline points="177.5,271.5,173.5,273.5,168.0,263.5,182.5,270.0,169.5,263.5,173.0,261.0,161.5,254.0,165.0,251.5,168.0,246.0,171.5,245.0,173.5,244.0" stroke="green" stroke-width="4" fill="none" />
<polyline points="172.0,250.0,165.5,246.0,175.5,239.5,186.0,244.0,182.5,245.0,177.0,252.5" stroke="yellow" stroke-width="4" fill="none" />
<polyline points="178.5,259.5,182.0,253.0,170.5,254.0,170.0,256.5,170.5,257.0,169.5,261.5" stroke="orange" stroke-width="4" fill="none" />
<polyline points="" stroke="orange" stroke-width="4" fill="none" />
<polyline points="169.5,266.5,187.5,266.0,182.0,263.5,179.5,269.5" stroke="green" stroke-width="4" fill="none" />
<polyline points="176.5,267.5,182.0,271.5,185.5,266.0,188.0,273.0" stroke="green" stroke-width="4" fill="none" />
<polyline points="" stroke="orange" stroke-width="4" fill="none" />
<polyline points="188.0,251.0,190.0,271.0,193.0,266.0" stroke="orange" stroke-width="4" fill="none" />
<polyline points="" stroke="orange" stroke-width="1" fill="none" />
<polyline points="202.0,251.0,202.5,241.0,215.0,237.0,211.5,235.5" stroke="orange" stroke-width="4" fill="none" />
<polyline points="210.5,241.5,218.5,241.5,202.0,245.0,199.5,240.5,206.5,247.0,207.5,248.0" stroke="yellow" stroke-width="4" fill="none" />
<polyline points="" stroke="black" stroke-width="4" fill="none" />
<polyline points="199.5,257.0" stroke="orange" stroke-width="4" fill="none" />
<polyline points="" stroke="yellow" stroke-width="4" fill="none" />
<polyline points="219.0,254.0" stroke="yellow" stroke-width="4" fill="none" />
<polyline points="212.0,248.5,212.5,248.5,202.5,239.0,208.5,250.5" stroke="black" stroke-width="4" fill="none" />
<polyline points="199.0,252.0,200.0,253.0,191.0,258.5,188.0,251.0,196.5,248.5,204.0,237.5,196.5,241.0,196.5,243.5" stroke="orange" stroke-width="4" fill="none" />
<polyline points="194.5,251.0,193.0,254.0,193.5,256.0" stroke="orange" stroke-width="4" fill="none" />
<polyline points="187.5,264.0,192.0,273.5,198.0,264.0,195.0,254.0,186.5,239.0,187.0,237.0,192.0,251.0,202.0,229.0,200.5,238.5,206.5,233.5,197.5,240.5,188.5,243.5,200.0,235.0,197.0,235.0,192.5,248.5,196.5,243.0,183.5,240.5,178.0,242.0,188.5,238.0,181.0,246.0,175.0,253.5,174.5,245.0,177.0,243.5,175.5,245.0" stroke="yellow" stroke-width="4" fill="none" />
<polyline points="191.0,238.0,198.0,215.0,185.5,221.0,198.0,226.5,191.0,229.0,185.0,230.5,193.0,226.5,192.0,233.0" stroke="green" stroke-width="4" fill="none" />
<polyline points="193.5,225.5,185.0,216.0,193.0,217.5,182.0,234.5,188.5,229.0,186.5,234.5,188.0,235.0,186.0,232.0,195.0,234.0,173.5,228.5,183.5,240.0,182.0,239.5,185.0,230.5,182.5,227.5,185.0,223.0,183.0,225.5" stroke="black" stroke-width="4" fill="none" />
<polyline points="199.5,236.5,193.0,242.5,195.5,238.5,189.5,244.5,187.0,244.0" stroke="black" stroke-width="4" fill="none" />
<polyline points="187.5,250.5,189.0,248.0,198.5,243.5,211.0,238.5,208.5,234.5" stroke="green" stroke-width="4" fill="none" />
<polyline points="207.0,220.0,202.0,221.0,197.5,226.0,201.0,225.0" stroke="green" stroke-width="4" fill="none" />
<polyline points="" stroke="green" stroke-width="4" fill="none" />
<polyline points="222.0,232.5,219.0,230.0,219.5,227.0,224.5,225.5,223.0,227.0" stroke="orange" stroke-width="4" fill="none" />
<polyline points="223.0,202.0,221.5,202.0,224.0,205.0,225.0,220.5,229.5,221.5,228.5,220.5,230.0,227.5,231.5,235.0,231.0,241.5,237.5,239.5,252.5,251.5,244.0,253.0,232.0,241.5,231.5,246.5,232.0,253.0,233.0,264.0,222.0,269.5,230.0,278.0,210.5,273.5,210.5,276.5,208.5,292.0,222.0,285.5,212.5,292.0,210.5,308.5,198.0,299.0,206.0,312.0,200.0,313.0,191.0,322.0,204.5,323.0,190.5,322.0,192.0,314.5,199.5,327.5,200.5,321.0,215.0,318.5,220.0,307.0,209.5,304.5,222.0,305.5,232.0,301.5,216.5,288.5,236.0,289.0,231.5,276.0,241.5,276.0,258.0,265.5,243.0,257.5,253.0,271.5,259.0,256.0,248.0,266.0,261.0,256.0,263.0,246.5,274.0,249.0,277.5,248.5,279.5,240.5,284.5,257.0,292.5,243.5,301.0,256.0,300.0,257.0,292.0,268.5" stroke="black" stroke-width="4" fill="none" />
<polyline points="292.0,264.0,287.0,260.5,281.0,247.0,287.5,252.0" stroke="black" stroke-width="4" fill="none" />
<polyline points="" stroke="yellow" stroke-width="4" fill="none" />
<polyline points="290.5,269.5,283.5,270.0,281.5,270.5,282.0,271.0" stroke="green" stroke-width="4" fill="none" />
<polyline points="291.5,271.5,292.0,278.0" stroke="black" stroke-width="4" fill="none" />
<polyline points="291.0,276.5,291.5,274.0,282.5,281.0,289.5,280.0,295.5,276.5,288.0,264.0,295.5,263.0" stroke="black" stroke-width="4" fill="none" />
<polyline points="288.0,281.5,283.0,265.5,292.5,274.0,276.5,274.0,281.5,267.5,286.5,263.0,288.0,263.5" stroke="green" stroke-width="4" fill="none" />
<polyline points="271.0,270.5,282.0,269.5,270.5,266.5,279.0,266.5,267.0,272.5,274.5,270.5,276.0,269.5,276.5,271.5" stroke="black" stroke-width="4" fill="none" />
<polyline points="257.5,266.5,253.0,264.5,256.0,259.5" stroke="yellow" stroke-width="4" fill="none" />
<polyline points="273.0,276.0,273.5,264.0,279.5,278.0,262.5,266.5,282.5,272.0,283.0,280.0" stroke="yellow" stroke-width="4" fill="none" />
<polyline points="252.0,276.0,251.0,275.5" stroke="black" stroke-width="4" fill="none" />
<polyline points="269.0,267.5,254.0,286.0,266.5,285.5,261.0,291.0" stroke="green" stroke-width="4" fill="none" />
<polyline points="250.5,274.5,249.0,274.5,242.5,279.0" stroke="green" stroke-width="4" fill="none" />
<polyline points="261.5,269.5,251.0,278.0,266.0,271.5,258.5,279.0,271.5,283.5,272.5,282.5,284.0,276.0,286.5,278.5,282.5,280.5" stroke="green" stroke-width="4" fill="none" />
<polyline points="286.0,258.5,292.5,252.5,287.0,253.5,282.5,251.0,288.0,245.5,287.5,243.5,284.5,244.0" stroke="black" stroke-width="4" fill="none" />
<polyline points="276.0,263.0,274.0,258.5,266.5,242.0,272.5,255.5,269.0,243.5,272.5,254.5,268.0,254.5,266.0,261.0,266.5,253.5" stroke="yellow" stroke-width="4" fill="none" />
<polyline points="" stroke="orange" stroke-width="4" fill="none" />
<polyline points="" stroke="black" stroke-width="4" fill="none" />
<polyline points="261.0,275.5,271.0,268.0,272.5,278.0,272.0,267.0,279.5,280.0,277.0,265.0,278.5,266.0,280.0,268.5" stroke="orange" stroke-width="3" fill="none" />
<polyline points="287.0,270.0,287.5,271.5,289.0,278.0,290.0,278.0,293.0,276.5,281.5,280.5,291.0,286.5" stroke="yellow" stroke-width="4" fill="none" />
<polyline points="290.5,238.0,289.0,243.0,290.0,239.5,291.0,235.5" stroke="green" stroke-width="4" fill="none" />
<polyline points="264.0,251.0,268.5,249.0,268.5,250.0,273.5,243.0,270.0,249.5,259.0,252.5,256.0,266.5,246.5,269.0,241.0,259.0,239.0,273.5,241.5,283.5,235.5,288.0,223.5,284.0,218.0,293.0,226.0,298.5,225.5,297.0,212.5,301.0,218.0,318.5,209.5,305.0,209.0,299.5,202.0,309.0,197.5,317.5,205.5,334.0,205.5,327.0,184.0,331.0,189.5,331.5,185.5,346.5,187.0,335.0,180.5,344.5,179.5,351.5,180.0,360.5,181.0,354.0,173.0,365.0,173.0,367.5,158.5,365.0,156.0,377.5,162.5,379.5,156.0,387.0,152.5,396.5,167.0,389.5,169.5,392.0,174.5,400.0" stroke="black" stroke-width="4" fill="none" />
<polyline points="154.0,385.5,156.5,388.5,161.5,389.0" stroke="green" stroke-width="4" fill="none" />
<polyline points="144.0,388.5,145.0,386.5,153.5,381.5,157.5,383.0,158.0,385.0,159.0,386.0" stroke="orange" stroke-width="4" fill="none" />
<polyline points="135.5,373.5,136.5,374.0,133.5,372.5,131.0,373.5" stroke="green" stroke-width="4" fill="none" />
<polyline points="" stroke="yellow" stroke-width="4" fill="none" />
<polyline points="129.0,393.5,125.5,406.5,138.5,424.0,136.0,422.5,142.0,426.5,136.0,427.0,149.5,435.0,140.5,436.5,130.5,446.5,140.0,450.5,136.5,438.0,148.5,445.5,149.5,454.0,144.5,460.0,140.0,469.5,135.0,460.0,150.5,463.5,143.5,477.0,143.0,471.5,142.0,472.0,163.5,491.5,156.5,480.5" stroke="yellow" stroke-width="4" fill="none" />
<polyline points="170.0,471.5,164.5,467.0,175.5,467.5,174.5,469.0,171.5,467.0" stroke="orange" stroke-width="4" fill="none" />
<polyline points="169.0,460.0,182.5,458.0,182.0,454.0,169.0,463.0,165.0,448.0,173.0,460.0,166.5,447.0,166.0,436.5,167.0,448.5,170.0,440.0,168.5,433.0,169.0,436.0" stroke="green" stroke-width="4" fill="none" />
<polyline points="173.5,441.5,175.5,442.0,163.0,433.5" stroke="black" stroke-width="4" fill="none" />
<polyline points="179.0,432.5,173.5,434.5,161.0,432.0,155.5,440.5,154.5,429.5,166.5,426.5,169.0,431.0,161.5,422.0,170.5,421.5,168.0,420.5,156.0,406.5,162.0,403.0,158.5,402.5,156.5,396.0,160.0,398.5,162.5,395.5,166.0,387.0,161.5,388.5,152.5,374.0,160.5,381.0,156.5,372.5,155.5,374.0" stroke="black" stroke-width="4" fill="none" />
<polyline points="154.0,361.0,151.5,365.0,153.0,382.5,152.0,373.5,148.5,383.0,148.5,390.0,163.0,383.0,158.5,389.0,154.5,392.0,165.5,394.0,177.0,406.0,178.0,406.5,186.5,416.0,177.5,420.0,168.0,412.5" stroke="orange" stroke-width="4" fill="none" />
<polyline points="173.5,422.5,176.5,439.5,180.5,435.5,177.5,429.5,172.0,442.0,173.0,439.5,170.0,450.5,173.5,453.0,170.5,463.5,183.5,449.5,169.5,458.0,182.0,464.0,180.0,467.0,172.0,462.0,174.5,465.0" stroke="orange" stroke-width="4" fill="none" />
<polyline points="" stroke="green" stroke-width="4" fill="none" />
<polyline points="173.0,454.5,171.0,450.0,168.0,459.5,170.5,462.5,173.0,473.0,170.5,474.5,157.0,470.5,162.5,474.5,163.5,484.0,168.0,489.0,174.5,493.0,152.0,483.5,163.5,482.5,167.0,503.0,174.5,507.5,165.0,513.5,176.0,510.5,185.0,519.0,175.5,508.5,178.5,518.0,179.0,518.0,177.5,516.5" stroke="orange" stroke-width="4" fill="none" />
<polyline points="" stroke="black" stroke-width="4" fill="none" />
<polyline points="151.5,457.5,144.5,462.5,154.0,463.5,156.5,459.0,155.0,460.0,156.5,467.0" stroke="black" stroke-width="4" fill="none" />
<polyline points="" stroke="black" stroke-width="4" fill="none" />
<polyline points="153.5,458.5,149.0,440.5,148.5,442.5,140.5,443.5,144.5,425.5,147.5,426.0,127.0,424.0,141.5,425.0,135.0,410.5,140.5,410.5,139.0,413.0,139.5,415.5,137.0,416.0" stroke="yellow" stroke-width="4" fill="none" />
<polyline points="131.5,408.5,149.5,401.5,132.5,399.0,134.5,396.5,142.0,397.0" stroke="green" stroke-width="4" fill="none" />
<polyline points="136.5,396.5,138.0,401.5" stroke="yellow" stroke-width="4" fill="none" />
<polyline points="" stroke="green" stroke-width="4" fill="none" />
<polyline points="167.0,425.5,163.0,440.0,151.5,442.5,153.0,442.0,152.0,444.0,158.0,441.5,155.0,454.5,167.5,456.0,162.0,449.0,157.0,450.5" stroke="black" stroke-width="4" fill="none" />
<polyline points="164.0,436.0,190.5,439.0,170.0,431.5,179.5,435.5,179.5,440.5,175.0,433.0,179.5,441.0,185.0,446.5,184.5,444.0" stroke="black" stroke-width="4" fill="none" />
<polyline points="170.0,408.0,165.5,409.0,171.5,415.5,160.5,425.0,173.5,416.5,184.0,429.0,161.5,406.0,161.5,414.0,166.5,404.5,159.5,403.0,161.0,398.0,163.0,397.5" stroke="green" stroke-width="4" fill="none" />
<polyline points="166.0,416.5,174.0,429.5,167.0,421.0,175.0,435.5,161.0,431.5,177.0,432.5,169.0,440.0,172.0,439.5,170.5,426.0,180.5,424.5,176.0,437.5,175.0,439.5,178.5,435.0" stroke="orange" stroke-width="4" fill="none" />
<polyline points="170.5,423.0,172.0,424.0,166.5,426.0,177.0,436.5,176.0,447.5,167.5,441.5,179.0,442.0,174.5,437.0,182.5,443.5,177.0,443.5,184.0,446.0" stroke="yellow" stroke-width="4" fill="none" />
<polyline points="" stroke="green" stroke-width="4" fill="none" />
<polyline points="162.0,452.5,156.5,452.0,154.0,461.0,166.0,446.5,157.0,442.5,157.0,443.5" stroke="green" stroke-width="4" fill="none" />
<polyline points="145.5,447.5,143.0,454.5,137.5,455.0" stroke="black" stroke-width="4" fill="none" />
<polyline points="159.5,460.5,141.0,456.0,156.0,445.0,164.0,452.5,155.5,448.5,162.5,455.5,160.5,451.0,164.0,462.5,162.0,456.5" stroke="yellow" stroke-width="4" fill="none" />
<polyline points="146.0,457.0,138.5,443.5,144.0,459.0,143.0,452.0,146.5,449.5" stroke="orange" stroke-width="4" fill="none" />
<polyline points="148.0,447.0,142.5,466.0,153.5,468.0,149.0,479.0,156.0,477.5,161.5,479.0,163.0,480.0,168.0,493.0,174.5,469.0,166.0,477.0,181.5,485.0,183.0,486.5" stroke="yellow" stroke-width="4" fill="none" />
<polyline points="151.0,470.5,151.0,466.5,151.0,473.5,145.5,464.5,151.5,461.5" stroke="yellow" stroke-width="4" fill="none" />
<polyline points="" stroke="orange" stroke-width="4" fill="none" />
<polyline points="143.5,478.5,151.0,481.5,158.5,474.0" stroke="yellow" stroke-width="4" fill="none" />
<polyline points="142.5,462.5,144.0,465.0,148.5,464.0,141.5,465.5" stroke="black" stroke-width="4" fill="none" />
<polyline points="160.5,480.5,159.5,476.5,157.0,489.5,151.0,480.0,151.0,473.0,136.5,479.0,135.5,459.5,142.0,464.0,145.0,459.0,140.5,465.5,140.0,467.0,143.5,467.0" stroke="green" stroke-width="4" fill="none" />
<polyline points="138.0,449.5,161.5,450.5,145.0,473.0,154.0,458.5,160.5,468.0,159.0,476.5,157.0,476.5,159.5,475.5,159.0,477.5,155.0,483.0,163.0,494.0,162.0,493.0,161.0,497.5,166.5,509.0,173.5,506.5,173.5,505.5,180.5,506.0,177.5,498.0,172.5,508.0,180.5,503.5,180.0,509.5,176.5,508.0,180.5,509.0" stroke="green" stroke-width="4" fill="none" />
<polyline points="165.0,467.5,175.5,465.0,166.5,439.0,176.0,456.5,160.0,443.5,156.5,453.5,167.5,453.5,161.0,442.5,161.0,447.5,163.0,438.0,146.0,445.5,160.0,438.5,147.0,441.0,146.0,426.5,152.5,434.0,135.5,421.0,136.0,424.0,140.0,426.0,142.5,424.5,138.5,424.0" stroke="green" stroke-width="4" fill="none" />
<polyline points="139.5,426.0,136.5,423.5,139.0,422.0" stroke="yellow" stroke-width="4" fill="none" />
<polyline points="141.5,443.0" stroke="yellow" stroke-width="4" fill="none" />
<polyline points="144.5,422.0" stroke="green" stroke-width="4" fill="none" />
<polyline points="145.5,418.5,145.0,421.5,137.5,415.0,149.5,416.0,151.5,430.0,154.5,434.0" stroke="green" stroke-width="4" fill="none" />
<polyline points="147.5,399.0,148.0,407.0,150.0,403.5" stroke="green" stroke-width="4" fill="none" />
<polyline points="" stroke="yellow" stroke-width="4" fill="none" />
<polyline points="135.0,392.0" stroke="orange" stroke-width="4" fill="none" />
<polyline points="149.0,395.5,147.0,396.5,142.0,394.0,130.5,403.5,140.5,403.5,114.0,390.0,130.0,397.5,106.5,397.5,118.0,403.0" stroke="green" stroke-width="4" fill="none" />
<polyline points="" stroke="orange" stroke-width="4" fill="none" />
<polyline points="149.5,388.0,145.5,392.0,144.0,372.0,142.0,384.0,148.5,384.0,144.0,360.5,149.0,377.0,147.0,361.5,146.5,367.0,157.0,364.0,142.0,359.0,148.5,347.0,145.0,347.0,137.5,340.0,136.5,345.0,141.5,330.0,137.5,324.5,136.0,333.0,143.5,323.0,124.0,314.0,126.0,313.5,131.0,319.0,124.0,306.5,123.5,301.5,129.0,297.5,135.0,295.0,144.5,283.0,131.0,286.5,121.5,279.0,118.5,281.5" stroke="black" stroke-width="4" fill="none" />
<polyline points="126.5,272.0,134.5,280.5,127.5,279.5,126.0,286.0,129.0,296.5,125.5,299.0,122.5,303.0,116.0,303.5,122.5,311.0,110.0,311.0,125.0,319.5,115.5,316.5,127.5,333.0,125.5,326.5,126.0,330.5,124.0,341.0,123.5,329.0,125.5,326.5" stroke="green" stroke-width="4" fill="none" />
<polyline points="" stroke="black" stroke-width="4" fill="none" />
<polyline points="119.5,361.5,120.0,359.5,123.5,358.5,128.5,357.0,123.0,372.5,123.5,373.0,123.0,363.5,119.0,378.5,118.0,386.5,118.0,383.5,108.0,396.0,124.5,400.0,128.0,407.0,128.5,408.0" stroke="orange" stroke-width="4" fill="none" />
<polyline points="131.5,394.0,128.5,400.5,128.0,395.5,119.0,397.0,124.5,397.5,122.0,385.0,120.0,393.5,120.5,383.0,126.0,381.5,117.0,373.0,114.0,381.5,113.0,375.0,113.0,368.5,115.0,368.5,114.5,382.0,110.0,379.0,118.0,378.0,116.0,379.0,115.5,380.0" stroke="orange" stroke-width="4" fill="none" />
<polyline points="" stroke="green" stroke-width="4" fill="none" />
<polyline points="116.0,382.5,116.0,384.5,117.0,384.5,129.5,391.5,131.5,392.0,118.5,386.5,123.5,399.5,126.5,388.0,124.0,396.5,116.5,404.0,123.0,397.5,118.0,396.5,117.5,397.5" stroke="yellow" stroke-width="4" fill="none" />
<polyline points="140.0,395.0" stroke="black" stroke-width="4" fill="none" />
<polyline points="123.0,392.0,127.0,389.0,123.5,382.5,125.5,385.0" stroke="yellow" stroke-width="4" fill="none" />
<polyline points="" stroke="orange" stroke-width="4" fill="none" />
<polyline points="117.5,400.0,112.5,402.0,117.5,402.5,131.0,404.5,119.0,412.0,115.0,408.0,115.5,408.0,114.0,408.0" stroke="black" stroke-width="4" fill="none" />
<polyline points="" stroke="green" stroke-width="4" fill="none" />
<polyline points="137.0,411.5,138.5,409.5" stroke="orange" stroke-width="4" fill="none" />
<polyline points="148.5,403.5,150.5,405.5,147.5,400.0,141.5,406.5" stroke="orange" stroke-width="4" fill="none" />
<polyline points="" stroke="orange" stroke-width="4" fill="none" />
<polyline points="129.0,404.5" stroke="orange" stroke-width="4" fill="none" />
<polyline points="" stroke="orange" stroke-width="4" fill="none" />
<polyline points="177.0,408.5,179.0,402.0,179.5,413.0,185.0,414.0,181.5,418.0,174.5,421.5,180.5,414.5,183.5,417.0" stroke="yellow" stroke-width="4" fill="none" />
<polyline points="168.0,418.0,173.5,410.0,172.0,418.0,161.5,406.5,153.0,412.5,153.0,406.5,149.0,398.0,143.5,378.0,150.0,385.0,147.5,399.0,138.5,389.5,144.0,380.5,144.0,369.5,135.0,379.0,149.0,371.5,146.0,370.0,150.0,360.5,136.5,359.5,142.5,362.5,144.5,346.5,139.0,356.5,135.0,345.5,133.0,340.5" stroke="orange" stroke-width="4" fill="none" />
<polyline points="121.0,332.5,119.5,329.0" stroke="orange" stroke-width="4" fill="none" />
<polyline points="125.5,346.5,128.0,353.0,119.0,363.5,124.5,349.5,117.0,371.0,126.5,366.0,124.0,375.5,130.0,381.0,130.0,380.0,134.5,386.0,133.5,393.0,136.0,384.0,131.5,385.5" stroke="green" stroke-width="4" fill="none" />
<polyline points="131.5,368.0,141.5,376.5,140.0,371.0,141.5,370.0,150.0,367.0,149.5,369.5,149.5,365.5" stroke="yellow" stroke-width="4" fill="none" />
<polyline points="" stroke="orange" stroke-width="4" fill="none" />
<polyline points="140.0,360.5,122.5,362.5,117.5,356.5,112.5,367.0,121.0,365.0,120.0,365.0" stroke="green" stroke-width="4" fill="none" />
<polyline points="" stroke="orange" stroke-width="4" fill="none" />
<polyline points="139.0,381.5,135.0,379.5,137.5,379.5,134.0,380.0" stroke="orange" stroke-width="4" fill="none" />
<polyline points="152.0,347.0,141.0,347.0,139.5,336.0,136.0,346.0,140.5,335.0,132.0,327.0" stroke="yellow" stroke-width="1" fill="none" />
<polyline points="" stroke="green" stroke-width="4" fill="none" />
<polyline points="149.5,335.5,150.5,332.0,141.0,323.5,137.5,326.5,138.0,331.5,136.5,326.0,137.0,325.5" stroke="yellow" stroke-width="4" fill="none" />
<polyline points="" stroke="green" stroke-width="4" fill="none" />
<polyline points="122.5,340.0,126.5,337.0,132.5,330.5" stroke="yellow" stroke-width="4" fill="none" />
<polyline points="118.5,354.5,132.0,349.0,130.0,361.0,117.5,352.5,123.0,364.5,116.0,373.0,115.0,377.5,115.5,374.5,116.0,369.0,132.0,405.5,119.5,389.5,115.0,403.0,127.0,416.5,131.0,400.5,133.5,404.0,118.5,406.0,123.5,418.5,110.5,400.5,137.5,423.0,134.5,411.5,133.0,406.5,128.5,418.5,119.0,412.0,117.5,415.5" stroke="green" stroke-width="4" fill="none" />
<polyline points="" stroke="orange" stroke-width="4" fill="none" />
<polyline points="124.0,424.0,132.5,419.0,135.0,424.5" stroke="green" stroke-width="4" fill="none" />
<polyline points="121.5,427.5,119.5,424.5,126.0,421.5,130.0,423.0" stroke="orange" stroke-width="4" fill="none" />
<polyline points="" stroke="yellow" stroke-width="4" fill="none" />
<polyline points="116.0,445.5,109.0,435.5,117.0,445.5" stroke="green" stroke-width="4" fill="none" />
<polyline points="" stroke="orange" stroke-width="4" fill="none" />
<polyline points="" stroke="yellow" stroke-width="4" fill="none" />
<polyline points="" stroke="orange" stroke-width="4" fill="none" />
<polyline points="" stroke="orange" stroke-width="4" fill="none" />
<polyline points="105.0,444.5,106.0,438.0" stroke="yellow" stroke-width="4" fill="none" />
<polyline points="82.5,462.5,75.0,463.5,88.5,458.5,90.5,452.5,106.5,459.5,90.0,469.0,74.0,467.0,87.0,453.0,87.5,458.5,93.0,458.5,81.0,457.5" stroke="yellow" stroke-width="4" fill="none" />
<polyline points="93.5,462.0,88.5,475.0,93.0,465.0,86.0,470.5,84.5,461.5,89.0,463.5,89.5,452.0,87.0,451.5,90.5,453.5,86.5,451.0,88.5,455.0" stroke="black" stroke-width="4" fill="none" />
<polyline points="93.5,462.5,104.0,465.0" stroke="green" stroke-width="4" fill="none" />
<polyline points="105.5,505.0,100.5,509.5,99.0,514.0" stroke="yellow" stroke-width="4" fill="none" />
<polyline points="116.0,500.5,95.5,492.0,113.0,496.5,112.0,490.5" stroke="yellow" stroke-width="4" fill="none" />
<polyline points="120.5,492.5,116.5,494.5,115.0,481.0,117.5,494.0,114.5,496.0,117.5,504.5,111.5,503.5,118.0,510.0,113.0,514.0" stroke="green" stroke-width="4" fill="none" />
<polyline points="" stroke="green" stroke-width="4" fill="none" />
<polyline points="106.5,515.0,100.0,503.0,110.0,508.5,109.0,509.0" stroke="green" stroke-width="4" fill="none" />
<polyline points="104.5,509.5,107.0,511.5,119.5,519.5,117.5,504.5,119.0,503.0,110.5,494.5,120.5,491.5,114.5,485.5,118.0,483.0,114.5,489.0" stroke="orange" stroke-width="4" fill="none" />
<polyline points="142.5,504.5,125.5,504.5,144.5,496.5,139.0,511.5,135.0,509.0,130.0,515.5,131.0,513.0" stroke="black" stroke-width="4" fill="none" />
<polyline points="156.5,434.5,160.5,428.5,142.5,426.5,130.5,415.0,131.0,417.0,131.0,411.0,135.0,406.5" stroke="yellow" stroke-width="4" fill="none" />
<polyline points="135.5,424.5,123.5,429.0,153.0,448.5,143.5,443.0,143.5,447.0,135.5,451.5,139.5,451.5,132.5,458.5,144.0,448.5,134.5,468.0,128.5,446.5,146.5,471.0" stroke="black" stroke-width="4" fill="none" />
<polyline points="" stroke="green" stroke-width="4" fill="none" />
<polyline points="136.0,435.5,126.5,419.0,134.0,412.5,130.5,413.5" stroke="yellow" stroke-width="3" fill="none" />
<polyline points="115.0,421.0,99.5,428.5,109.5,442.5,113.0,436.0,117.5,438.0,117.5,437.0,118.5,437.0" stroke="black" stroke-width="4" fill="none" />
<polyline points="" stroke="green" stroke-width="4" fill="none" />
<polyline points="119.0,426.0,112.5,420.5,108.0,446.0,106.5,433.5" stroke="black" stroke-width="3" fill="none" />
<polyline points="104.0,438.5,97.0,434.5,91.0,444.0,97.5,443.0,93.0,452.5,91.5,441.5,96.5,450.0,97.0,432.0,104.0,429.0,105.0,431.5,98.0,426.0,109.0,421.0,109.0,423.0,113.0,412.0,117.0,416.0,106.5,414.5,111.5,415.5,99.5,418.5,107.0,419.5,109.0,429.5" stroke="orange" stroke-width="4" fill="none" />
<polyline points="85.5,426.5,91.5,425.5,84.5,436.5,92.0,439.5" stroke="green" stroke-width="4" fill="none" />
<polyline points="" stroke="black" stroke-width="4" fill="none" />
<polyline points="" stroke="orange" stroke-width="4" fill="none" />
<polyline points="" stroke="yellow" stroke-width="4" fill="none" />
<polyline points="" stroke="green" stroke-width="4" fill="none" />
<polyline points="103.0,410.0,98.5,404.0,97.0,406.0,101.5,395.0,87.5,398.0,94.5,383.5,89.0,394.5,83.0,388.0,83.5,385.0,82.0,383.5,95.0,391.5,97.0,388.0,94.5,386.5" stroke="black" stroke-width="4" fill="none" />
<polyline points="80.0,392.0,88.5,393.0,78.0,390.0,83.5,395.0,75.5,403.5,77.5,410.0,79.5,407.0,58.0,421.5,80.5,405.5,70.5,420.5,65.5,423.5,54.5,430.0,70.0,429.5,64.0,431.5,61.0,432.5,73.0,450.0,67.0,434.5,68.0,445.0,73.5,448.5,68.0,451.0,93.0,461.0,64.5,458.5,65.0,469.5,67.0,467.5,81.5,469.0,56.5,481.5,67.5,477.0,55.5,484.0,67.5,479.5,70.0,491.5,67.0,500.5,60.0,499.0,62.5,523.5,63.5,510.5,63.5,517.0,70.0,516.0,58.0,518.5,59.0,509.5,67.0,509.5,60.0,510.0" stroke="green" stroke-width="4" fill="none" />
<polyline points="53.0,517.5,55.5,513.5" stroke="black" stroke-width="4" fill="none" />
<polyline points="72.5,496.0,77.0,501.5,81.5,486.5,70.5,485.5,75.5,481.0,80.0,483.5,82.5,482.5" stroke="yellow" stroke-width="4" fill="none" />
<polyline points="65.5,479.5,62.5,476.5,62.0,478.5" stroke="yellow" stroke-width="4" fill="none" />
<polyline points="72.0,451.0,71.5,447.5" stroke="orange" stroke-width="4" fill="none" />
<polyline points="71.0,465.5,75.0,467.5,81.0,464.0,74.0,476.5,64.0,474.5,64.5,476.0,65.0,474.5" stroke="green" stroke-width="4" fill="none" />
<polyline points="" stroke="black" stroke-width="4" fill="none" />
<polyline points="70.5,460.5,71.5,490.0,74.0,472.0,73.5,498.0,71.0,496.0" stroke="yellow" stroke-width="4" fill="none" />
<polyline points="28.5,503.5,30.0,497.5,27.5,509.5,41.5,499.5" stroke="orange" stroke-width="4" fill="none" />
<polyline points="" stroke="green" stroke-width="4" fill="none" />
<polyline points="" stroke="black" stroke-width="4" fill="none" />
<polyline points="" stroke="orange" stroke-width="4" fill="none" />
<polyline points="2.5,421.5,4.0,412.5,8.5,422.0,18.5,431.5,11.5,443.5,2.0,439.0,16.5,448.0,16.5,447.5,10.5,443.5,11.5,461.0,13.5,462.0,17.0,458.0,7.0,460.0,20.0,470.0,17.5,476.0,8.5,480.5,16.0,475.5,12.0,478.5,14.0,481.5" stroke="yellow" stroke-width="4" fill="none" />
<polyline points="36.0,458.0,33.0,460.0,37.0,448.0,28.0,449.0,34.0,444.0,31.0,441.0,35.5,437.0,33.5,431.0,31.5,423.5,38.0,426.0,32.5,426.5,34.5,432.5,35.5,434.0,39.0,434.5,41.5,435.0" stroke="green" stroke-width="4" fill="none" />
<polyline points="" stroke="green" stroke-width="4" fill="none" />
<polyline points="22.5,423.0,26.5,415.5,28.5,417.5,16.0,420.0,30.0,429.0,22.5,443.5,27.5,437.5,32.5,436.0,36.0,448.0,34.0,458.0,12.5,446.5,29.5,460.5,29.5,468.5,19.0,468.5,29.0,459.0,29.5,469.0,47.5,468.5,29.0,494.5,27.5,485.0,36.0,490.0,24.0,500.0,36.0,498.0,28.0,499.5,31.0,512.0,41.0,504.5,31.5,505.5,33.0,508.0,31.0,508.5" stroke="green" stroke-width="4" fill="none" />
<polyline points="" stroke="orange" stroke-width="4" fill="none" />
<polyline points="83.0,415.0,84.0,413.0,64.5,420.5,73.5,416.5,73.5,411.0,69.5,409.0,73.0,402.0,74.0,405.0,77.0,395.5,83.0,392.5,74.5,392.5,73.5,391.5,70.0,402.5" stroke="black" stroke-width="4" fill="none" />
<polyline points="" stroke="orange" stroke-width="4" fill="none" />
<polyline points="84.0,393.0,82.5,399.5" stroke="yellow" stroke-width="4" fill="none" />
<polyline points="71.0,412.5,69.5,412.5" stroke="yellow" stroke-width="4" fill="none" />
<polyline points="77.0,414.0,68.5,428.0,69.5,423.5,77.5,421.0,70.0,428.5,74.5,422.0,73.0,416.0" stroke="orange" stroke-width="4" fill="none" />
<polyline points="" stroke="yellow" stroke-width="4" fill="none" />
<polyline points="110.0,399.0,118.5,392.5,114.5,390.0,122.0,393.0,129.0,396.0,125.5,404.5" stroke="orange" stroke-width="4" fill="none" />
<polyline points="94.0,412.0,94.5,416.5,108.5,416.0,103.5,417.0,100.5,406.0,108.5,409.0,102.5,412.5" stroke="yellow" stroke-width="4" fill="none" />
<polyline points="107.0,399.5,108.0,381.5,100.0,390.0,101.5,391.5" stroke="orange" stroke-width="4" fill="none" />
<polyline points="99.0,364.0,111.5,358.0,108.0,359.0,102.0,352.0,107.0,344.0,93.5,340.0,105.0,340.5,103.0,347.0,101.5,346.5,104.5,346.0" stroke="orange" stroke-width="4" fill="none" />
<polyline points="118.5,323.0,121.0,325.0,118.0,326.5,122.5,325.0" stroke="yellow" stroke-width="4" fill="none" />
<polyline points="113.5,330.5,119.5,335.0,120.5,329.5,116.0,331.5" stroke="green" stroke-width="4" fill="none" />
<polyline points="119.0,323.0,116.0,320.0,119.5,308.0,118.5,322.0,116.5,321.0,121.0,309.0,122.0,313.5,121.5,328.5,117.5,318.5,100.0,310.5,120.5,319.5,105.0,317.0,94.5,330.0,104.5,327.0,108.0,327.0,110.5,318.5,113.0,313.5,110.5,315.0,111.0,311.0,112.5,311.5,115.5,312.0,113.5,310.5" stroke="yellow" stroke-width="4" fill="none" />
<polyline points="117.5,320.5,110.0,327.5,99.5,335.5,98.5,328.5,101.5,346.5" stroke="black" stroke-width="4" fill="none" />
<polyline points="96.0,350.0,99.5,344.0" stroke="orange" stroke-width="4" fill="none" />
<polyline points="98.0,354.0,90.5,365.0,98.0,369.5,104.5,368.5,95.0,363.5,93.0,377.5,83.0,391.0,85.0,381.5,91.0,379.5,86.5,398.5,89.5,385.0,95.5,401.0,91.0,404.5,88.5,396.0,96.5,403.0,103.0,415.0,103.5,410.0,107.0,402.0,106.5,406.0,103.0,398.5,97.5,399.5,100.5,402.0" stroke="black" stroke-width="4" fill="none" />
<polyline points="126.5,377.5,129.0,380.0,137.0,378.0,127.5,362.5,116.5,345.5,122.5,347.0,119.5,346.5,123.5,346.0" stroke="orange" stroke-width="4" fill="none" />
<polyline points="120.5,365.5,132.5,366.5,136.5,371.0,136.5,372.0,135.5,369.5" stroke="yellow" stroke-width="4" fill="none" />
<polyline points="" stroke="yellow" stroke-width="4" fill="none" />
<polyline points="111.5,379.5,112.0,378.0" stroke="black" stroke-width="4" fill="none" />
<polyline points="115.5,372.0,116.0,363.5,121.5,359.0" stroke="green" stroke-width="4" fill="none" />
<polyline points="127.5,350.0,132.5,366.5,122.5,366.0,130.0,359.0,146.5,371.0,142.0,374.5,137.5,378.5,139.0,378.5" stroke="black" stroke-width="4" fill="none" />
<polyline points="170.0,364.0,164.5,361.5,178.0,351.0,173.0,339.0,179.5,342.0,179.0,350.5,182.0,341.0,179.0,350.0,175.0,345.0,177.0,347.5,175.5,349.0,175.0,354.5" stroke="orange" stroke-width="4" fill="none" />
<polyline points="179.0,323.5,178.5,327.0,180.5,326.0,175.5,338.0,169.0,335.0,170.0,346.0,170.0,350.5,161.5,352.0,167.5,373.5,161.5,364.0,166.5,367.5,165.5,359.5,176.5,354.5,178.0,347.5,184.5,347.0,180.5,351.0,183.5,340.5,185.5,329.0,190.5,325.0,192.5,326.5,189.5,324.0,188.5,333.0,192.0,328.5" stroke="green" stroke-width="4" fill="none" />
<polyline points="190.5,349.0,194.5,348.0" stroke="green" stroke-width="4" fill="none" />
<polyline points="195.0,349.0,202.5,354.5,197.5,341.0" stroke="yellow" stroke-width="4" fill="none" />
<polyline points="171.5,357.5" stroke="yellow" stroke-width="4" fill="none" />
<polyline points="161.0,363.0,166.5,364.5,156.0,352.0,152.0,347.0,153.0,358.5,168.5,345.0,163.5,347.5,166.0,345.0,169.0,344.5,176.5,339.5,185.5,334.5,174.5,333.5,182.0,338.5,175.5,326.0,174.5,333.0,158.0,345.5,156.0,341.5,165.5,327.5,169.5,328.5,174.0,325.0,176.5,329.5,176.5,325.5,174.0,327.0" stroke="yellow" stroke-width="4" fill="none" />
<polyline points="171.0,334.5,179.0,315.0,183.0,315.5" stroke="black" stroke-width="4" fill="none" />
<polyline points="174.5,325.0,167.0,323.0,181.5,318.5,172.0,318.0" stroke="black" stroke-width="4" fill="none" />
<polyline points="180.0,318.5,179.5,320.5,169.5,317.5,168.5,327.5,165.5,318.5,166.0,324.5,152.5,327.0,162.0,338.0,152.5,339.0,148.5,338.0,151.0,349.5,145.0,335.0,142.0,329.0,140.0,323.0,137.5,331.0,132.0,317.5,141.0,321.5,129.5,317.5,140.0,310.0,135.5,308.5,141.0,311.0,128.5,296.5,141.0,294.0,135.0,293.0,136.5,296.0,131.0,282.5,143.0,287.0,141.0,280.5,141.5,283.0,128.5,276.0,137.5,284.0,139.0,268.5,147.5,276.0,151.5,274.5,141.5,260.5,150.5,268.0,147.5,254.0,162.0,257.5,169.5,243.5,163.0,243.5,158.5,245.0" stroke="orange" stroke-width="4" fill="none" />
<polyline points="" stroke="orange" stroke-width="4" fill="none" />
<polyline points="149.0,256.5,149.0,242.5,141.5,249.0,148.0,251.0,149.0,251.0,156.0,253.0,150.5,253.5" stroke="black" stroke-width="4" fill="none" />
<polyline points="" stroke="orange" stroke-width="3" fill="none" />
<polyline points="150.0,262.0,154.0,270.0,143.5,265.0,150.5,278.5,143.5,273.5,136.5,290.0,147.0,276.5,147.0,284.0,154.5,296.0,164.0,296.0,153.5,298.0,151.5,302.5,156.5,315.0,152.5,311.0,156.5,313.5,151.0,317.5,149.5,318.5,163.0,318.0,159.0,314.0,161.5,310.5,159.5,318.5,169.0,304.0,171.5,305.0,158.5,305.0,162.5,298.5" stroke="green" stroke-width="4" fill="none" />
<polyline points="" stroke="yellow" stroke-width="4" fill="none" />
<polyline points="" stroke="orange" stroke-width="4" fill="none" />
<polyline points="186.0,304.0,194.0,305.5,177.5,313.5,190.0,305.5" stroke="black" stroke-width="4" fill="none" />
<polyline points="172.5,321.5,177.0,316.5,169.5,313.5,172.5,317.0" stroke="orange" stroke-width="4" fill="none" />
<polyline points="154.0,309.5,163.5,300.5,169.0,293.0,165.0,295.0,158.5,288.0,162.0,290.5,154.0,298.5,164.0,290.0,170.0,279.5,171.5,287.0,166.0,277.0,179.5,283.0,160.0,282.0,158.5,280.5,165.5,278.5,156.0,284.0,157.0,293.0,169.0,279.0,165.5,275.5,150.0,275.0,162.0,264.5,162.5,258.5,165.0,271.0,168.0,260.5,166.5,266.5,171.0,251.5,168.5,248.0,173.5,234.5,165.5,245.5,174.5,250.0,172.5,219.0,171.0,239.5,160.0,230.0,173.5,236.5,170.5,231.0,171.5,231.0" stroke="green" stroke-width="4" fill="none" />
<polyline points="178.5,236.0,159.0,243.0,183.0,245.0,169.5,241.0,183.0,245.5,180.0,252.5,180.5,256.5,178.5,259.0" stroke="yellow" stroke-width="4" fill="none" />
<polyline points="186.0,261.0,195.5,261.5,206.0,264.5,207.0,270.0,196.5,266.0,204.0,262.5,199.0,265.5,203.0,261.0,203.0,257.5" stroke="orange" stroke-width="4" fill="none" />
<polyline points="230.0,270.0,233.0,265.0,229.5,266.0" stroke="green" stroke-width="4" fill="none" />
<polyline points="219.0,317.5,223.0,316.5,219.5,325.0,226.5,332.0,223.0,334.5,220.5,332.5,223.5,345.0,232.0,352.5,221.0,340.5,224.0,366.5,229.5,344.0,216.0,352.0,228.0,358.0,217.5,355.0,222.5,365.0,219.0,364.5" stroke="green" stroke-width="4" fill="none" />
<polyline points="265.5,381.0,272.0,386.5,273.0,387.5,271.5,390.0,268.5,384.5,269.5,383.0" stroke="green" stroke-width="4" fill="none" />
<polyline points="271.5,393.0,256.5,393.5,257.5,383.0,243.0,388.5,248.0,394.5,245.5,391.0,242.0,390.5" stroke="orange" stroke-width="4" fill="none" />
<polyline points="262.0,347.0,280.5,356.0,281.5,358.0,276.0,354.5,269.5,344.5,276.0,342.5,275.5,347.0" stroke="black" stroke-width="4" fill="none" />
<polyline points="270.5,357.5,267.0,356.0,277.0,352.0,272.5,356.5,275.5,354.0" stroke="orange" stroke-width="4" fill="none" />
<polyline points="213.0,349.5,219.0,336.0,214.5,335.5,214.0,324.5,229.5,323.0,209.0,328.0,205.0,318.5,208.5,308.0,213.0,321.0,211.0,318.0,214.5,314.5" stroke="orange" stroke-width="2" fill="none" />
<polyline points="180.0,313.5,174.0,315.0,176.5,298.0,180.0,311.0" stroke="orange" stroke-width="4" fill="none" />
<polyline points="171.5,300.0,166.5,297.0,178.0,296.0,163.5,295.0,176.0,317.0,179.0,312.0" stroke="orange" stroke-width="4" fill="none" />
<polyline points="" stroke="orange" stroke-width="4" fill="none" />
<polyline points="" stroke="orange" stroke-width="4" fill="none" />
<polyline points="160.5,320.0,156.0,320.0,159.0,309.0,160.5,311.0,159.5,308.5,155.0,309.5" stroke="yellow" stroke-width="4" fill="none" />
<polyline points="" stroke="yellow" stroke-width="4" fill="none" />
<polyline points="" stroke="yellow" stroke-width="1" fill="none" />
<polyline points="" stroke="black" stroke-width="4" fill="none" />
<polyline points="164.0,288.0,162.0,298.0" stroke="yellow" stroke-width="4" fill="none" />
<polyline points="180.0,296.0,184.5,296.0,177.5,295.0,183.5,288.5" stroke="yellow" stroke-width="4" fill="none" />
<polyline points="171.0,290.5,187.5,287.5,179.0,304.0,166.5,299.5,173.0,297.0,170.5,298.5,171.5,300.5" stroke="green" stroke-width="4" fill="none" />
<polyline points="163.0,280.0,161.0,278.0,168.5,277.0,168.5,279.0,161.5,297.0,161.0,293.0,160.5,293.5,159.0,293.5" stroke="green" stroke-width="4" fill="none" />
<polyline points="160.0,294.0,162.5,294.5,168.0,298.0,169.5,294.5,177.5,298.0" stroke="yellow" stroke-width="4" fill="none" />
<polyline points="180.5,293.0,179.5,287.5,177.0,300.0,167.5,307.5,177.0,308.0,177.0,316.5,174.5,311.5,162.5,316.0,171.0,323.0,172.0,321.5,152.0,327.5,167.0,327.5,162.5,335.0,158.0,341.5,165.0,349.5,157.5,348.5,143.0,353.5,148.5,348.5,155.0,360.0,148.5,347.5,136.0,341.0,163.0,350.0,163.0,356.0,166.0,350.5,164.0,349.5" stroke="yellow" stroke-width="4" fill="none" />
<polyline points="155.5,290.5,160.0,289.5,162.0,289.5,162.5,293.5" stroke="orange" stroke-width="4" fill="none" />
<polyline points="148.5,281.5,147.5,279.5,156.0,280.0,164.5,268.0,154.0,279.5,166.5,266.5,164.5,256.0,153.5,260.0,160.0,253.0,161.0,260.0,164.0,260.0" stroke="green" stroke-width="4" fill="none" />
<polyline points="" stroke="yellow" stroke-width="4" fill="none" />
<polyline points="" stroke="yellow" stroke-width="4" fill="none" />
<polyline points="151.5,283.5,159.0,276.5,167.0,289.0,165.5,291.0,180.0,287.5,172.5,294.0,175.5,285.5,173.0,279.5,181.0,280.5,179.5,279.5" stroke="black" stroke-width="4" fill="none" />
<polyline points="173.0,286.0,168.0,293.5,170.0,298.5,158.5,287.5,162.0,288.5,165.5,290.5" stroke="black" stroke-width="4" fill="none" />
<polyline points="150.5,273.5,153.5,277.0,149.0,281.0,162.5,277.5,160.0,280.0" stroke="yellow" stroke-width="2" fill="none" />
<polyline points="153.5,293.5,146.0,298.5,158.0,282.0,155.5,275.0,152.5,268.0,148.0,269.5,166.0,261.5,160.0,262.0,152.5,258.5,167.5,251.5,171.0,248.0,176.0,254.0,173.0,246.5,157.5,256.0,164.0,263.5,156.0,262.0,150.0,271.0,150.0,255.0,148.0,268.5,146.0,283.0,135.0,274.5,134.5,266.5,127.5,268.5,128.0,268.0,125.0,275.0,135.0,262.0,136.0,266.0,135.0,258.5,127.0,252.5,138.0,254.5,131.0,247.0,144.5,253.5,141.5,244.5,135.0,232.0,126.0,231.0,127.5,228.5,145.5,232.0,130.5,222.0,137.0,217.5,121.5,212.0,141.5,221.0,124.0,205.5,124.5,193.0,124.5,200.0,115.0,194.5,126.5,186.5,125.5,179.0,129.0,186.5,116.5,166.0,128.5,175.0,127.0,168.5,127.5,162.5,128.5,153.5,120.0,162.5,126.5,134.5,115.5,148.0,134.5,148.0,125.5,132.5,122.0,127.0,129.5,142.5,118.0,124.5,138.0,120.0,128.5,119.0,127.5,115.0,142.5,116.0,138.5,114.0,136.0,104.5,141.5,114.5,140.0,110.5,140.5,102.0,139.0,100.0,140.0,97.5" stroke="black" stroke-width="4" fill="none" />
<polyline points="128.5,117.5,126.0,113.0,126.0,123.5,122.5,119.5,123.0,126.0,130.0,136.5,134.0,131.0,125.0,138.0,135.0,146.5,119.5,146.5,134.0,148.0,121.5,159.5,134.0,140.0,129.0,156.5,136.0,157.5,120.5,154.0,120.0,140.0,125.0,143.0,131.5,150.0,135.5,150.0,129.0,152.0" stroke="orange" stroke-width="4" fill="none" />
<polyline points="136.0,156.5,132.5,161.0,130.5,154.5,130.0,160.0,128.0,163.5,137.5,172.0,122.5,172.5,141.0,165.0,130.0,158.0,141.0,162.0,132.5,158.0,137.5,163.5" stroke="yellow" stroke-width="4" fill="none" />
<polyline points="124.5,181.5,124.5,184.5,126.0,181.5" stroke="yellow" stroke-width="4" fill="none" />
<polyline points="133.5,176.5,132.0,177.5,133.0,177.0,131.5,175.0" stroke="green" stroke-width="4" fill="none" />
<polyline points="" stroke="yellow" stroke-width="4" fill="none" />
<polyline points="135.0,182.0,131.0,181.0,138.0,182.0,123.0,178.5,130.5,172.0,129.5,176.5,133.0,176.5,135.0,173.5" stroke="green" stroke-width="4" fill="none" />
<polyline points="144.5,179.5,140.5,190.0,138.0,191.0,148.0,186.0,130.5,194.0,142.0,193.0,135.0,202.0,146.5,205.0,147.5,201.0,148.5,207.5,151.5,204.5" stroke="black" stroke-width="4" fill="none" />
<polyline points="" stroke="green" stroke-width="4" fill="none" />
<polyline points="138.0,188.5,150.5,191.5,148.0,189.5,146.5,192.0" stroke="orange" stroke-width="4" fill="none" />
<polyline points="143.0,205.5,143.5,195.0,144.0,193.5" stroke="yellow" stroke-width="4" fill="none" />
<polyline points="141.0,189.0,137.0,189.5,135.5,187.0,136.5,190.0,148.5,184.0,144.0,184.5,148.5,176.5,142.5,185.5" stroke="yellow" stroke-width="4" fill="none" />
<polyline points="" stroke="black" stroke-width="4" fill="none" />
<polyline points="" stroke="black" stroke-width="4" fill="none" />
<polyline points="145.0,192.0,147.0,193.0,150.0,197.5,145.5,199.5,159.5,192.5,164.5,180.5,165.5,177.5,167.5,185.0,174.5,170.0,172.0,167.5,183.5,159.0,185.5,162.5,195.0,160.0,183.0,153.0,204.5,144.0,203.0,133.5,196.5,137.0,198.5,143.5" stroke="orange" stroke-width="4" fill="none" />
<polyline points="221.0,158.0,221.5,157.5,225.5,153.5,227.5,154.5" stroke="orange" stroke-width="4" fill="none" />
<polyline points="220.5,148.0,216.0,157.0,208.5,153.0,205.5,154.5,201.5,158.0" stroke="black" stroke-width="4" fill="none" />
<polyline points="228.0,161.0,228.5,162.0" stroke="green" stroke-width="4" fill="none" />
<polyline points="223.0,171.5,209.5,183.0,207.5,171.0,211.5,184.0,196.0,200.5,202.0,194.5,196.0,188.5,203.5,190.0,200.0,189.5,204.5,185.0" stroke="orange" stroke-width="4" fill="none" />
<polyline points="216.0,185.5,217.5,173.0,223.5,165.5,216.0,175.0,225.0,178.5,229.0,173.0,235.5,175.5,237.5,182.0,238.5,188.0,237.0,186.5" stroke="green" stroke-width="4" fill="none" />
<polyline points="233.0,191.0,232.0,181.5,228.5,195.5,215.5,199.5,204.0,198.5,206.5,200.0,218.0,195.5,197.0,216.5,209.0,211.5,195.0,232.0,203.0,226.5" stroke="yellow" stroke-width="4" fill="none" />
<polyline points="207.5,216.0,197.0,209.5,208.5,209.0,205.0,196.5,215.0,199.0,214.0,189.5,211.0,192.0" stroke="green" stroke-width="4" fill="none" />
<polyline points="226.0,195.0,228.0,191.5,221.0,193.0,226.0,201.5,214.0,208.5,200.5,216.5,206.5,208.0,208.5,202.5,206.5,200.5,224.5,187.5,232.5,200.0,231.0,191.0,229.5,193.5,229.0,195.5" stroke="yellow" stroke-width="2" fill="none" />
<polyline points="219.5,192.5,217.0,188.0,218.5,185.0,216.5,190.0,215.5,184.0,220.5,189.0,219.5,189.5" stroke="black" stroke-width="4" fill="none" />
<polyline points="" stroke="green" stroke-width="4" fill="none" />
<polyline points="224.0,188.5,216.5,197.0,214.0,192.0,224.5,176.0,224.5,191.0" stroke="yellow" stroke-width="4" fill="none" />
<polyline points="" stroke="yellow" stroke-width="1" fill="none" />
<polyline points="" stroke="green" stroke-width="4" fill="none" />
<polyline points="197.5,198.5,191.0,196.0,187.0,200.0,179.5,192.0,179.5,211.0,175.5,198.5,178.5,212.0,188.5,193.5,182.0,198.0,188.0,201.0,184.5,199.5" stroke="green" stroke-width="4" fill="none" />
<polyline points="205.5,209.5,196.5,209.5,198.5,205.5,197.0,198.5,204.5,205.0,204.5,204.5" stroke="yellow" stroke-width="4" fill="none" />
<polyline points="191.5,195.0,195.0,197.0,194.5,211.5,194.5,221.0,192.5,212.0,190.5,226.0,187.5,222.5,184.0,220.0,182.5,211.5,186.5,209.0,180.0,214.5,189.0,209.0,191.5,216.0" stroke="yellow" stroke-width="4" fill="none" />
<polyline points="" stroke="orange" stroke-width="4" fill="none" />
<polyline points="186.5,220.0,183.0,217.0,178.0,232.5" stroke="yellow" stroke-width="4" fill="none" />
<polyline points="178.0,214.0,175.0,213.5,173.5,222.0,178.5,207.0,172.5,208.0,177.5,219.5,177.0,215.0,174.5,211.5,173.0,212.5" stroke="green" stroke-width="4" fill="none" />
<polyline points="178.0,226.0,178.5,236.0,182.5,235.5,187.0,225.0,185.5,219.5,188.0,219.5" stroke="orange" stroke-width="4" fill="none" />
<polyline points="" stroke="orange" stroke-width="4" fill="none" />
<polyline points="171.0,244.0,172.5,242.0,168.5,247.0,159.5,246.0,170.0,250.0,167.5,256.5,161.0,251.5" stroke="yellow" stroke-width="4" fill="none" />
<polyline points="154.0,256.5,147.5,270.5,148.5,268.0,148.5,277.5,125.0,266.5,123.5,287.5,125.5,275.0,125.0,273.0,116.0,270.0,120.5,261.0,115.0,261.0,109.5,267.0,113.5,270.0" stroke="black" stroke-width="4" fill="none" />
<polyline points="113.0,268.0,108.5,269.0" stroke="black" stroke-width="4" fill="none" />
<polyline points="122.0,280.5,109.0,282.5,116.5,284.0,120.0,285.5,104.5,300.0,100.0,295.0,106.5,307.0,96.5,302.5,95.5,311.0,88.5,315.5,98.5,318.5,98.5,322.0,95.0,313.5,96.5,329.0,87.5,328.5,85.0,348.0,98.0,342.0,91.5,349.5,84.0,343.0,85.0,345.0,86.5,351.5,67.5,362.0,68.0,365.0,71.5,364.5,69.0,355.0,85.5,343.5,85.0,347.0,87.0,344.0" stroke="yellow" stroke-width="4" fill="none" />
<polyline points="82.5,326.5,88.5,338.0,91.5,335.5,88.0,330.5,79.5,343.5,76.5,342.5,65.0,354.5,68.5,364.5,68.0,354.5,64.0,359.5,73.0,355.5,71.0,371.5,67.0,360.0,76.5,345.5,86.0,356.5,84.0,341.5,95.0,331.5,91.0,331.5,97.0,335.0,92.5,343.0,89.5,359.0,88.0,362.0,80.5,351.0,77.5,362.0,80.5,368.0,80.0,373.5,86.0,370.5,98.5,383.0,96.5,364.0,94.0,352.0,98.5,355.5,85.5,359.5,88.5,359.5,88.0,359.5" stroke="orange" stroke-width="4" fill="none" />
<polyline points="113.5,367.5,111.0,379.0,99.0,378.0,103.0,387.0" stroke="orange" stroke-width="4" fill="none" />
<polyline points="102.0,373.5,115.5,375.0,114.5,372.0" stroke="black" stroke-width="4" fill="none" />
<polyline points="112.0,364.0,114.0,359.0,111.0,354.5,116.5,355.0,117.5,356.0,116.0,355.0" stroke="orange" stroke-width="4" fill="none" />
<polyline points="114.5,357.0,117.5,358.0,118.5,357.5" stroke="green" stroke-width="4" fill="none" />
<polyline points="128.0,361.5,128.0,364.0,134.5,364.5,132.5,363.5" stroke="orange" stroke-width="4" fill="none" />
<polyline points="82.0,361.0,81.5,362.0,89.5,355.0,90.5,356.0,90.5,351.0" stroke="yellow" stroke-width="4" fill="none" />
<polyline points="65.5,364.5,73.0,362.0,71.5,348.0,80.5,345.0,88.0,333.5,71.0,342.0,74.0,349.5,67.5,355.5,71.0,361.5,64.0,366.5,80.0,377.0,67.5,361.0,71.0,372.0,70.5,372.0" stroke="yellow" stroke-width="4" fill="none" />
<polyline points="83.0,393.0,72.5,381.0,64.5,391.0,67.5,394.0,62.0,406.0,71.0,401.5,60.5,386.0,62.5,396.5,77.5,392.5,79.5,387.5,78.0,381.0,78.0,391.0,72.0,389.0,68.5,398.0,61.0,394.5,59.0,396.5,69.5,393.5,71.5,400.5,77.0,388.5,78.0,384.5,84.0,376.5,78.5,378.5,83.0,375.0,91.0,369.5,84.5,357.0,80.0,348.5,96.5,352.0,74.0,354.5,92.0,358.5,93.5,347.0,106.5,351.5,99.0,348.0,95.5,344.5,100.5,359.5,93.5,342.0,97.5,341.5,98.5,346.5,95.0,337.0,92.5,314.0,95.0,322.0,98.5,324.0,105.5,311.5,93.0,311.0,107.5,314.5,121.0,298.0" stroke="orange" stroke-width="4" fill="none" />
<polyline points="92.0,308.5,89.0,306.0,98.0,295.5,102.0,301.0,103.5,293.0,108.0,293.5,108.0,294.5,110.5,293.5" stroke="green" stroke-width="4" fill="none" />
<polyline points="104.5,299.0,110.0,303.5,114.0,297.0" stroke="yellow" stroke-width="4" fill="none" />
<polyline points="113.5,293.5,109.0,288.5,97.5,296.0,102.5,295.5,94.5,297.0,98.0,300.0,83.0,289.0,82.0,292.0,85.5,292.0,77.0,297.5,86.5,292.5,99.0,293.5,98.0,292.5" stroke="orange" stroke-width="4" fill="none" />
<polyline points="82.0,290.0,90.5,284.5,91.0,288.0,104.5,288.5,93.5,293.5,98.0,285.0" stroke="green" stroke-width="4" fill="none" />
<polyline points="110.5,289.0,117.0,275.5,110.0,275.5,111.5,268.5,110.0,269.0,120.0,266.0,114.0,273.5,107.0,266.5,100.0,257.0,89.0,260.0,92.5,258.5" stroke="yellow" stroke-width="4" fill="none" />
<polyline points="134.0,261.5,124.5,264.0,122.0,262.0,115.0,263.0,103.5,266.5,103.0,272.5,96.5,279.0,114.5,261.5,113.5,275.5,120.0,269.0" stroke="orange" stroke-width="4" fill="none" />
<polyline points="95.5,280.0,93.5,285.5,92.5,283.0,90.0,287.0" stroke="green" stroke-width="2" fill="none" />
<polyline points="104.0,272.0,97.0,279.0,111.5,263.5,112.5,268.5,101.0,267.5,93.5,258.5,104.5,268.0,102.0,277.0,98.5,285.5,98.0,281.0,107.5,269.0,109.5,285.0,101.0,280.5,105.5,282.0,115.0,272.5,121.0,267.0,127.0,280.0,136.0,265.5,125.0,258.5,122.5,259.5,129.5,253.0,127.0,259.5,133.5,261.0" stroke="yellow" stroke-width="4" fill="none" />
<polyline points="112.5,267.5,115.0,279.0,106.0,284.5,101.0,278.5,98.5,292.0,98.0,300.5,94.5,296.5,89.0,317.0,86.0,312.0,79.0,312.0,72.0,307.0,66.5,315.5,75.0,323.5,81.0,327.5,86.5,312.0,87.5,320.0,87.0,317.5" stroke="orange" stroke-width="4" fill="none" />
<polyline points="109.5,309.0,112.5,301.5,108.5,301.0" stroke="yellow" stroke-width="4" fill="none" />
<polyline points="115.0,309.0,111.5,318.5,102.0,324.5,99.0,322.5" stroke="orange" stroke-width="4" fill="none" />
<polyline points="79.5,315.5,69.5,309.5,74.5,314.0,74.0,319.0,74.0,311.5" stroke="yellow" stroke-width="4" fill="none" />
<polyline points="64.0,325.5" stroke="green" stroke-width="4" fill="none" />
<polyline points="87.0,311.0,87.5,311.0,101.5,303.0,97.0,304.5,91.0,312.5,93.0,301.0" stroke="black" stroke-width="4" fill="none" />
<polyline points="91.5,318.0,111.0,307.0,113.5,308.0,113.5,301.0,112.5,306.0,112.0,300.5,112.5,305.0" stroke="black" stroke-width="4" fill="none" />
<polyline points="99.5,291.5,100.5,303.5,102.0,299.5,105.5,290.0,104.5,294.0,98.5,293.0" stroke="orange" stroke-width="3" fill="none" />
<polyline points="99.5,294.5,100.0,296.0,100.5,286.5,104.0,284.5,101.0,289.5" stroke="black" stroke-width="4" fill="none" />
<polyline points="" stroke="yellow" stroke-width="4" fill="none" />
<polyline points="119.0,291.0,114.5,303.0,108.5,306.5,105.0,302.0,102.0,309.5,107.0,315.5,104.5,327.5,96.0,322.0,100.0,322.0,100.5,331.5,111.0,337.5,94.0,344.0,104.5,340.0,98.0,323.5,116.5,335.0,107.0,336.5,114.0,325.5,122.5,319.0,121.5,296.0,130.0,296.0,133.0,313.5" stroke="yellow" stroke-width="4" fill="none" />
<polyline points="126.0,303.0,136.0,310.0,141.0,318.5,133.0,324.0,121.5,336.5,119.0,332.5,115.0,339.0,120.0,331.0" stroke="orange" stroke-width="4" fill="none" />
<polyline points="127.0,310.5,110.5,310.0,116.0,330.5,97.5,333.0,115.0,333.5,103.5,341.0,103.0,325.5,111.0,338.0,91.5,339.5,101.0,338.0,89.5,355.5,107.0,356.0,84.5,363.5,88.0,357.5,89.0,355.5" stroke="green" stroke-width="4" fill="none" />
<polyline points="67.5,403.5,72.0,408.5,70.5,420.0,68.0,410.0,67.5,415.5,72.0,418.0" stroke="black" stroke-width="4" fill="none" />
<polyline points="26.0,370.0" stroke="orange" stroke-width="4" fill="none" />
<polyline points="116.0,298.0,120.0,304.0,113.5,313.0,111.5,304.0,100.5,305.5,98.5,320.0,108.0,311.0,116.0,304.5,122.5,303.0,118.0,300.0,129.5,301.5,138.5,298.5,135.0,294.0,140.0,296.5" stroke="yellow" stroke-width="4" fill="none" />
<polyline points="134.5,265.5,140.0,257.5,135.0,260.0,132.0,268.5" stroke="green" stroke-width="4" fill="none" />
<polyline points="" stroke="yellow" stroke-width="4" fill="none" />
<polyline points="129.0,243.0,133.5,244.0,130.0,244.0,137.0,242.0,138.5,250.0,134.0,259.5" stroke="black" stroke-width="4" fill="none" />
<polyline points="141.0,246.0,139.5,243.0,139.5,237.5,135.5,235.0" stroke="green" stroke-width="4" fill="none" />
<polyline points="145.0,228.5,137.5,222.0,135.0,214.5,141.5,213.0" stroke="orange" stroke-width="4" fill="none" />
<polyline points="" stroke="orange" stroke-width="4" fill="none" />
<polyline points="141.5,211.0,146.5,209.5,142.5,208.0" stroke="black" stroke-width="4" fill="none" />
<polyline points="142.5,193.5,129.0,192.0,135.0,196.0,137.5,178.0,141.0,190.5,151.5,183.5,147.0,175.5,140.5,171.0,136.5,183.5,128.0,189.0" stroke="green" stroke-width="4" fill="none" />
<polyline points="137.5,181.5,138.5,177.0" stroke="yellow" stroke-width="4" fill="none" />
<polyline points="145.0,196.5,145.0,179.0,150.5,205.5,150.0,186.0,143.0,184.5" stroke="yellow" stroke-width="4" fill="none" />
<polyline points="" stroke="black" stroke-width="4" fill="none" />
<polyline points="150.0,190.5,151.0,203.0,156.5,204.0,150.0,206.5,148.5,207.0,145.5,210.0,145.0,210.5" stroke="orange" stroke-width="4" fill="none" />
<polyline points="129.5,199.0,122.5,214.5,137.0,201.0,146.5,197.0,124.0,194.5,137.5,199.0,132.5,183.0,139.5,195.0,138.0,187.0,135.5,186.0" stroke="black" stroke-width="4" fill="none" />
<polyline points="111.0,231.5,113.0,230.5,113.0,235.5" stroke="green" stroke-width="2" fill="none" />
<polyline points="" stroke="black" stroke-width="4" fill="none" />
<polyline points="123.0,257.5,108.0,258.5,113.5,261.5,118.0,250.5,125.0,251.0,132.0,247.0,123.5,251.0,128.0,250.0,136.0,243.0" stroke="black" stroke-width="4" fill="none" />
<polyline points="144.5,247.5,149.5,241.5,146.5,242.5,143.0,254.0,141.0,262.5,156.5,261.5,141.5,283.5" stroke="yellow" stroke-width="4" fill="none" />
<polyline points="160.0,248.0,159.5,248.0" stroke="orange" stroke-width="4" fill="none" />
<polyline points="176.0,235.5,157.0,239.5,167.5,239.0,169.5,244.0,163.5,238.0,165.0,229.0,171.0,229.5,170.5,224.5,174.0,225.5,175.0,223.5,171.5,225.0" stroke="black" stroke-width="4" fill="none" />
<polyline points="172.5,218.5" stroke="orange" stroke-width="4" fill="none" />
<polyline points="163.0,225.5,164.5,239.5,162.0,243.5,166.0,242.0,165.0,245.5,154.0,252.0,157.5,250.5,159.0,242.5,152.0,257.0,151.5,261.0,152.0,264.0,146.0,257.0,136.0,267.5,135.5,268.0,143.5,278.0,133.0,281.5,128.5,283.5,129.0,302.5,128.5,302.0,127.5,293.0,126.5,302.0,122.0,307.5,122.5,316.0,126.0,311.5,115.5,323.0,129.0,339.0,128.5,330.0,129.5,334.0,135.0,349.0,141.0,351.0,144.5,336.5,137.5,352.5,133.0,353.5,139.5,353.0,145.0,360.0,149.5,349.5,153.5,363.0,150.0,375.5,150.0,365.0,142.0,400.0,153.0,380.5,156.5,386.0,155.5,391.0,163.5,388.0,147.0,392.0,150.5,402.5,157.0,391.0,171.0,400.0,174.0,404.5,153.5,405.0,153.5,403.0" stroke="orange" stroke-width="4" fill="none" />
<polyline points="170.0,413.0,172.0,418.5,161.0,417.5,154.5,418.0,167.0,416.5" stroke="yellow" stroke-width="4" fill="none" />
<polyline points="" stroke="black" stroke-width="4" fill="none" />
<polyline points="" stroke="yellow" stroke-width="1" fill="none" />
<polyline points="201.0,429.5,201.0,435.5" stroke="black" stroke-width="4" fill="none" />
<polyline points="194.0,401.0,193.5,384.0" stroke="orange" stroke-width="4" fill="none" />
<polyline points="192.5,395.5,180.0,405.5,184.5,416.5,195.5,408.0,195.0,413.5,188.0,423.5,189.0,411.5,189.0,430.0,185.5,434.0,188.5,440.5,192.0,433.0,191.0,435.0,179.0,436.0,182.5,454.5,177.0,440.0,193.5,440.5,192.5,442.5,200.5,444.0" stroke="yellow" stroke-width="4" fill="none" />
<polyline points="383.5,343.0,385.5,329.5,380.0,333.0,382.0,328.5,376.0,323.0,385.5,316.5,374.0,316.0,373.5,306.5,377.0,310.5,374.5,300.5,365.5,297.0,359.0,294.0,374.0,295.0,382.0,293.0" stroke="orange" stroke-width="4" fill="none" />
<polyline points="381.0,283.5,372.0,284.0,378.5,273.5,384.0,261.0,386.5,262.0,379.0,263.5,378.5,262.5" stroke="orange" stroke-width="4" fill="none" />
<polyline points="356.0,273.0,371.0,278.5,360.0,278.0,364.5,281.0,363.5,294.5,365.0,293.0,367.5,295.0,368.5,302.5,372.0,309.0,361.5,304.0,367.5,318.0,364.5,318.0,366.5,319.5" stroke="yellow" stroke-width="3" fill="none" />
<polyline points="335.5,284.0,333.5,288.5,336.5,289.5,340.0,285.0,345.0,278.0,323.5,281.0,315.5,287.5,322.5,285.0,309.5,282.0,316.0,270.5,323.5,263.5,320.0,258.5,321.5,267.5,321.0,264.0" stroke="black" stroke-width="4" fill="none" />
<polyline points="" stroke="orange" stroke-width="4" fill="none" />
<polyline points="318.0,265.5,324.0,264.0,323.5,270.5,331.0,249.0,337.0,246.0,335.0,251.0,340.5,248.5,345.5,250.0,338.0,253.5,340.5,251.5,332.0,248.0" stroke="yellow" stroke-width="4" fill="none" />
<polyline points="372.0,282.0,367.5,267.0,359.0,279.5,356.0,283.5,362.0,282.5,356.5,281.5,357.5,283.5,360.0,282.5,362.0,286.5,362.5,282.5" stroke="yellow" stroke-width="4" fill="none" />
<polyline points="293.5,227.0,294.5,225.0,288.0,231.0,289.0,225.5,285.5,230.5,286.5,232.5,284.5,232.0,294.0,220.5,305.0,221.5,305.5,219.0,297.0,217.5" stroke="orange" stroke-width="4" fill="none" />
<polyline points="275.5,222.5,273.5,203.0,281.0,194.5,277.0,204.5,293.0,195.0,294.0,197.5,297.0,189.0,284.0,187.0,299.5,180.5,316.5,180.0,303.0,169.0,312.0,178.0,310.5,178.5" stroke="green" stroke-width="4" fill="none" />
<polyline points="293.0,179.5,295.5,173.5,299.0,187.0,282.0,186.5,285.5,194.5,283.0,189.5,268.5,187.0,275.5,200.0,266.5,200.0,265.0,203.0,269.0,208.5,257.5,218.0,253.5,221.0,257.0,222.0,248.5,223.0,247.0,231.5,243.5,240.5,235.5,234.0,229.0,245.5,232.0,248.5,213.5,258.0,221.0,269.5,214.5,273.0,209.0,277.5,211.5,283.0,203.5,300.0,212.0,295.5,194.0,315.5,204.5,320.0,194.5,313.0,191.0,317.5,192.5,311.0,199.5,293.5,202.5,298.0,203.5,292.0,193.5,289.5,206.5,292.5,216.5,277.5,213.5,280.0,215.5,268.0,223.0,269.0,228.5,269.0,224.0,263.5,222.5,259.0,227.5,254.5,224.0,249.5,226.0,247.5,232.0,238.0,232.0,243.0,236.5,233.5,234.0,220.5,252.5,226.5,260.0,217.0,269.0,216.5,255.5,212.0,257.0,199.5,266.5,200.5,260.0,201.5,258.5,213.0,263.5,203.0,260.0,202.0" stroke="black" stroke-width="4" fill="none" />
<polyline points="262.5,201.5,263.0,213.0,261.5,214.0" stroke="green" stroke-width="4" fill="none" />
<polyline points="262.5,222.5,248.0,207.5,252.5,228.5,263.5,222.5,253.0,218.0,250.0,223.0,256.0,229.5" stroke="black" stroke-width="4" fill="none" />
<polyline points="" stroke="orange" stroke-width="4" fill="none" />
<polyline points="219.5,180.0,220.0,185.0,217.0,186.0,213.5,187.5,201.5,196.5,202.5,197.5,211.5,199.0,201.5,194.5,209.5,198.5,222.5,200.5,222.0,185.5,222.5,184.5,242.0,182.0,224.0,179.0,229.0,180.0,226.5,178.5,226.0,181.0" stroke="black" stroke-width="4" fill="none" />
<polyline points="247.0,185.5,236.0,184.5,234.5,195.5,245.5,187.5,243.5,188.5,245.0,179.0,249.0,179.5" stroke="yellow" stroke-width="4" fill="none" />
<polyline points="233.5,163.5,240.5,174.5,244.0,177.0,230.0,184.5,236.0,195.5,231.5,194.0,233.0,208.5,228.5,221.5,232.0,210.0,228.5,223.5,228.0,219.5,232.5,219.5" stroke="black" stroke-width="4" fill="none" />
<polyline points="258.5,191.0,262.0,188.0,264.0,185.5,262.5,188.5,257.0,197.0,251.5,192.5,242.5,205.0,251.5,205.5,253.0,187.0,260.5,189.0,269.0,187.5" stroke="green" stroke-width="4" fill="none" />
<polyline points="271.5,178.0,271.0,180.5,258.0,190.0,260.5,194.0,272.0,191.0,270.0,191.5,269.5,194.0" stroke="yellow" stroke-width="4" fill="none" />
<polyline points="257.0,180.5,254.5,195.0,238.5,195.5,249.5,205.0,235.5,192.5,252.5,187.5,251.5,196.0,262.5,191.0,252.0,184.0,257.5,179.5,261.0,181.5,258.0,182.5,255.5,185.0" stroke="green" stroke-width="4" fill="none" />
<polyline points="272.5,171.0,274.5,178.5,290.5,172.5,287.5,174.0,301.0,182.0,288.0,188.0,289.0,180.5,279.0,185.5,267.0,192.0,261.0,193.0,276.0,191.5,277.0,186.5,277.0,192.5,277.5,187.5,275.0,189.5,274.5,186.5,289.0,189.5,286.5,178.0,293.5,179.5,295.5,168.0,304.5,164.5,299.5,159.0,306.5,168.0,324.5,168.0,318.5,163.0,334.0,157.5,329.0,150.5,349.5,154.0,347.5,149.0" stroke="orange" stroke-width="4" fill="none" />
<polyline points="317.0,167.5,311.5,180.0,295.5,181.5,290.5,177.5,282.0,192.0,282.5,204.0,284.0,200.0,262.5,202.5,277.5,213.0,268.5,209.5,270.0,219.5,270.5,218.5,267.5,222.0,274.5,237.0,258.0,242.5,257.0,232.5,275.0,229.0" stroke="green" stroke-width="4" fill="none" />
<polyline points="" stroke="orange" stroke-width="4" fill="none" />
<polyline points="265.5,161.0,267.0,158.0,251.5,160.0,255.0,167.5,251.5,163.0,253.0,160.0,243.5,168.5,241.5,166.5,257.0,172.5,251.5,168.5,253.0,167.0,250.0,165.0" stroke="black" stroke-width="4" fill="none" />
<polyline points="" stroke="orange" stroke-width="4" fill="none" />
<polyline points="" stroke="black" stroke-width="4" fill="none" />
<polyline points="240.0,157.5,259.0,154.0,246.5,145.0,245.5,134.5,264.0,136.5,255.0,129.0,248.0,144.0,249.5,140.5,241.0,139.0,248.5,138.5,243.0,136.5" stroke="yellow" stroke-width="4" fill="none" />
<polyline points="" stroke="black" stroke-width="4" fill="none" />
<polyline points="" stroke="yellow" stroke-width="4" fill="none" />
<polyline points="" stroke="black" stroke-width="4" fill="none" />
<polyline points="212.0,162.5,218.0,158.0,219.5,156.5,222.0,161.0,217.0,158.5,217.0,168.5,215.0,163.5,214.5,157.5,218.0,163.5,219.0,160.5" stroke="green" stroke-width="4" fill="none" />
<polyline points="" stroke="black" stroke-width="4" fill="none" />
<polyline points="215.0,172.5,211.5,178.5,200.5,169.0,195.0,177.5,185.0,173.0,178.5,182.5,182.5,184.5,163.5,191.0,178.5,189.5,172.0,197.5,158.0,193.5,168.0,199.5,175.0,192.0,169.0,198.0,165.5,188.5,193.5,177.0,185.0,178.5,192.5,177.5,194.5,168.0" stroke="black" stroke-width="4" fill="none" />
<polyline points="213.0,177.5,213.0,190.0,209.0,180.5,200.5,184.5,200.5,182.0,198.5,175.5" stroke="green" stroke-width="4" fill="none" />
<polyline points="" stroke="black" stroke-width="4" fill="none" />
<polyline points="206.5,142.5,195.0,144.5,214.0,130.0,200.0,146.0,199.0,142.5,212.5,142.5,211.5,125.5,221.0,131.0,219.0,131.5,228.0,135.5" stroke="yellow" stroke-width="1" fill="none" />
<polyline points="210.5,138.5,219.5,135.0,224.5,125.5,223.5,124.5,226.0,123.5,233.5,117.0,231.0,120.0,232.5,126.5,225.5,128.0,228.5,121.0" stroke="green" stroke-width="4" fill="none" />
<polyline points="201.5,145.5,197.0,150.0,204.5,147.0,199.0,161.0,194.0,147.0,190.0,153.0,186.0,153.5,179.5,163.5,176.0,164.0,163.5,168.5,164.5,176.5,169.5,179.0,165.0,178.0,157.5,181.0,156.5,192.0,148.5,199.0,150.5,202.0,160.0,192.0,149.5,216.5,148.5,206.5,147.0,217.5,148.0,227.5,137.5,223.0,138.0,228.0,138.0,240.0,143.0,234.0,143.0,237.0,132.0,252.5,130.0,248.0,136.5,249.0,136.0,246.5,133.5,261.0,141.0,256.5,148.5,257.5,135.5,254.5" stroke="yellow" stroke-width="4" fill="none" />
<polyline points="142.5,177.0,130.5,179.0,141.0,162.5,148.5,167.5,148.0,176.0,155.5,168.0,141.5,156.5" stroke="green" stroke-width="4" fill="none" />
<polyline points="" stroke="orange" stroke-width="4" fill="none" />
<polyline points="152.5,131.0,149.5,130.0,146.0,136.5,151.0,123.5,154.0,124.0,151.0,127.5,156.0,126.0" stroke="black" stroke-width="4" fill="none" />
<polyline points="192.5,132.5,189.5,115.5,182.0,122.5,183.5,114.5,191.0,123.0,203.0,128.5" stroke="orange" stroke-width="4" fill="none" />
<polyline points="175.0,121.0,175.0,119.0,185.5,119.5,180.5,118.0,177.0,119.5" stroke="black" stroke-width="4" fill="none" />
<polyline points="196.0,125.5,195.5,122.5,198.0,138.0,194.0,136.5" stroke="orange" stroke-width="4" fill="none" />
<polyline points="198.5,121.0,201.5,115.0,215.5,111.0,211.5,110.5" stroke="black" stroke-width="4" fill="none" />
<polyline points="188.0,111.0,182.0,109.5,197.0,119.5,198.0,112.5" stroke="green" stroke-width="4" fill="none" />
<polyline points="220.0,136.5,220.0,138.0,212.5,147.5,213.0,134.5,204.5,147.0,210.0,144.0,195.5,149.0,197.0,156.0,198.0,146.0,208.5,141.5,208.5,148.5,213.5,133.5" stroke="orange" stroke-width="1" fill="none" />
<polyline points="244.5,141.5,238.0,140.0,253.5,136.5,239.5,141.5,240.0,142.0,228.0,152.0,236.0,153.5,229.0,158.0,212.5,146.5,225.5,166.5,222.0,162.0,231.5,142.0,233.0,141.5,240.0,132.0,242.0,139.0,264.0,123.0,259.0,132.0,265.5,114.5,268.0,112.5" stroke="green" stroke-width="4" fill="none" />
<polyline points="" stroke="green" stroke-width="4" fill="none" />
<polyline points="295.5,137.0,293.0,127.5,297.0,131.0,286.0,137.5,294.0,133.0,294.5,145.5,309.0,143.5,297.5,135.5,299.0,135.5" stroke="green" stroke-width="4" fill="none" />
<polyline points="312.5,187.0,296.5,179.5,300.0,196.5,290.5,191.5,289.0,194.0,284.0,203.0,287.5,203.0" stroke="yellow" stroke-width="4" fill="none" />
<polyline points="234.0,106.0,227.5,104.5,219.0,101.0,218.0,115.5,235.0,97.5,233.5,94.5,229.5,93.0,238.0,95.5" stroke="yellow" stroke-width="4" fill="none" />
<polyline points="230.5,99.5,233.0,103.5,242.5,97.5,241.0,95.5" stroke="orange" stroke-width="4" fill="none" />
<polyline points="" stroke="black" stroke-width="4" fill="none" />
<polyline points="256.0,99.0,251.0,100.0,252.5,93.5,248.0,94.0,249.0,94.0,234.5,100.0,246.5,111.0,233.0,102.0,238.0,105.5,228.0,100.5,219.5,111.5,223.5,119.5,217.5,110.0,213.5,115.0,208.5,121.0,202.0,130.5,198.5,130.0,191.5,129.5,186.0,139.0,179.0,132.5,177.0,138.5,179.5,141.0,172.0,154.0,164.0,152.0,168.0,152.5,159.0,161.5,153.0,173.0,151.5,164.5,163.0,174.0,156.5,170.5,156.5,174.0,161.5,164.5,165.0,152.0,175.0,145.5,175.5,147.5,183.5,149.0,183.0,152.0,195.0,134.0,191.0,122.5,193.0,122.5,204.0,122.0,220.0,124.0,208.0,109.5,207.5,112.5,223.5,116.5,226.0,104.0,238.5,95.5,236.0,103.0,249.0,95.5,254.5,87.5,267.0,89.0,263.0,80.5,266.5,74.5" stroke="green" stroke-width="4" fill="none" />
<polyline points="238.0,84.0,231.5,86.5,227.0,95.5,225.0,84.5,237.0,85.0,232.0,72.0,235.5,84.5,234.5,84.5,230.5,74.0,238.5,74.0" stroke="yellow" stroke-width="4" fill="none" />
<polyline points="227.5,48.5,225.5,58.0,222.0,54.5,229.0,46.0,234.0,49.0,234.0,48.0" stroke="yellow" stroke-width="4" fill="none" />
<polyline points="226.5,52.0,236.0,55.0,231.5,49.0,244.0,44.0,243.0,47.5,246.5,53.0,255.0,50.5,252.0,57.5,256.5,54.0,257.0,55.0,264.0,54.5,281.0,58.5,271.0,64.0,274.0,61.0,282.0,73.5,285.5,73.0,292.5,71.0,285.5,80.5,292.5,70.5,306.5,77.0,303.5,79.0,303.0,108.5,320.5,99.5,321.0,101.0,327.5,101.5,324.0,106.0,328.0,108.0,331.5,123.5,343.0,131.5,335.5,128.5,340.5,135.0,349.0,151.0,350.5,140.0,350.0,136.0,361.5,146.5,366.5,131.5,364.5,134.5,370.5,136.0,378.0,134.5,379.0,120.0,387.0,126.5,390.0,118.5,389.0,109.5,391.5,106.5,397.5,114.5,405.0,110.5,412.0,115.0,418.5,123.0,422.5,119.0,422.5,129.0" stroke="black" stroke-width="4" fill="none" />
<polyline points="415.0,120.0,418.5,124.5,416.5,134.5,408.5,133.5,415.5,142.5,423.5,147.0,415.0,146.5,412.0,159.5,417.0,160.5,405.0,170.0,400.0,171.0,407.0,170.5,402.5,172.0,402.5,178.0,398.5,185.0,393.0,181.0,393.0,193.0,385.5,209.0,378.0,199.5,370.0,202.0,372.0,207.0,366.0,214.0,371.0,214.0,375.5,207.5,374.5,207.5,380.5,205.0,379.5,189.0,372.0,192.0,397.5,193.5,392.5,184.0,400.5,178.0,404.5,173.5,414.0,156.0,414.0,155.0,419.5,161.5,416.5,156.0" stroke="green" stroke-width="4" fill="none" />
<polyline points="371.5,126.0,371.5,123.5,379.0,116.5,379.0,118.5" stroke="black" stroke-width="2" fill="none" />
<polyline points="375.5,90.5,381.5,107.5,379.5,91.5,388.0,93.5,382.5,88.5,385.0,91.5,386.0,95.5,388.5,94.0,389.0,96.5,387.5,102.0" stroke="orange" stroke-width="4" fill="none" />
<polyline points="" stroke="black" stroke-width="4" fill="none" />
<polyline points="431.0,64.0,442.0,68.5,431.5,73.5,429.5,59.5,430.0,53.5,434.5,38.0,417.5,37.5" stroke="black" stroke-width="4" fill="none" />
<polyline points="508.5,79.0,503.5,84.5,511.5,87.0,499.5,78.5,492.0,89.5,502.0,99.0,492.5,99.0,488.5,114.0,487.5,113.5,492.5,111.5,483.0,114.0,484.5,125.5,475.0,125.5,481.0,123.0,465.0,144.0,467.5,133.5,465.5,139.0,469.5,150.5,458.5,148.0,463.5,157.0,457.0,161.0,463.5,168.0,437.0,165.5,453.5,170.0,447.5,170.0,446.5,180.0,442.0,180.0,444.0,191.5,443.5,200.5,428.5,203.0,433.0,203.0,431.0,206.0,434.5,209.5,428.5,214.5,422.0,208.0,423.0,218.5,425.0,220.5,421.5,232.0,423.5,237.5,415.0,234.0,422.5,250.0,418.0,245.5,410.5,259.5,418.0,258.0,412.5,255.5,408.0,260.0,421.0,263.0,404.0,264.5,414.5,266.5,405.0,281.5,410.5,286.0,403.5,288.5,403.0,292.0,403.0,288.0,402.5,294.5,403.5,303.5,397.0,304.5,395.5,297.5,392.5,304.5,400.5,317.5,392.5,321.0,392.0,326.5,393.0,330.0,398.5,342.0,395.0,338.0,395.5,338.0" stroke="yellow" stroke-width="1" fill="none" />
<polyline points="346.5,141.0,344.0,145.5,341.0,141.0,329.5,136.0,332.5,130.5,337.0,125.5,327.0,123.0,324.0,111.5,322.0,108.0,324.0,110.0,320.0,96.5,320.5,103.5,315.0,92.5,308.5,89.0,307.0,84.5,306.5,88.0,298.5,89.5,285.0,78.0,282.5,71.5,283.5,76.5,272.0,65.5,268.0,63.0,257.0,63.0,248.5,47.5,249.5,49.5,247.0,43.5" stroke="black" stroke-width="4" fill="none" />
<polyline points="" stroke="orange" stroke-width="4" fill="none" />
<polyline points="163.0,59.5,164.5,63.0,166.5,75.5,163.0,73.0,164.5,72.0,162.5,73.0" stroke="black" stroke-width="4" fill="none" />
<polyline points="160.5,62.0,160.5,54.5,166.5,73.5,148.5,81.0,157.5,72.5,152.0,69.0,163.5,78.5,165.0,71.0,166.5,70.0,152.5,68.5" stroke="green" stroke-width="4" fill="none" />
<polyline points="169.0,89.5,172.5,90.5,164.5,87.0,173.5,85.5,172.0,82.5" stroke="black" stroke-width="4" fill="none" />
</svg>