<svg xmlns="http://www.w3.org/2000/svg" version="1.1"><polyline points="405.0,2.5,405.0,6.0,407.0,10.0,409.5,14.0,412.0,18.0,414.5,22.5,416.5,26.0,418.5,30.0,421.5,34.5,423.5,38.5,426.0,43.0,428.5,47.0,430.0,50.5,432.5,54.5,434.5,58.5,436.5,62.5,439.0,67.0,441.5,71.0" stroke="#3e5fde" stroke-width="2" fill="none" />
<polyline points="456.0,59.0,452.0,51.5,447.5,46.0,443.5,38.5,440.5,33.0,436.5,26.0,432.5,19.0,428.5,12.0,424.5,6.5" stroke="#ad6bf1" stroke-width="2" fill="none" />
<polyline points="424.0,2.0,424.0,6.0,426.0,9.5,428.5,13.5,432.0,17.0,434.5,21.5,436.0,25.5,439.5,30.0,441.0,34.5,443.5,38.5,445.0,42.5,447.0,46.5,450.0,51.0,452.5,55.0,454.5,59.0,456.5,63.0,454.5,66.5,451.5,70.5,447.0,74.0,443.5,78.0,441.0,81.5,438.5,85.5,435.0,90.0,432.0,94.0,429.5,97.5,427.0,101.5,424.0,105.5,422.0,109.5,419.5,113.5,419.0,113.0,423.0,107.0,427.0,100.5,431.5,94.0,436.0,88.5,440.0,83.0,444.0,77.0,448.5,72.5,452.5,68.5,456.5,64.0,461.5,55.5,465.5,52.0,469.0,48.5,473.0,44.0,477.0,39.0,481.0,35.0,485.0,31.0,489.0,27.0,493.0,23.0,498.0,18.0,502.0,14.5,506.0,11.5,510.0,7.5" stroke="#6c686c" stroke-width="2" fill="none" />
<polyline points="512.5,5.5,506.5,10.0,502.0,14.0,497.0,18.5,494.0,21.5,489.5,25.5,486.0,30.0,482.5,35.0,477.5,39.0,474.0,43.5,470.5,47.5,466.0,51.5,462.0,55.0,458.5,59.0" stroke="#bd4c4" stroke-width="2" fill="none" />
<polyline points="511.5,76.0,508.0,80.5,504.0,84.0,500.0,88.5,497.5,93.0,493.5,95.0,489.5,101.0,485.5,106.0,481.5,111.0,477.5,116.0,474.0,121.5,470.0,128.0,466.0,135.0,462.0,141.0" stroke="#1ac99c" stroke-width="2" fill="none" />
<polyline points="453.0,153.5,449.0,161.0,445.5,166.0,442.0,174.0" stroke="#fa1f9d" stroke-width="2" fill="none" />
<polyline points="439.5,179.5,437.5,183.0" stroke="#119954" stroke-width="2" fill="none" />
<polyline points="433.0,194.0,429.0,202.0,427.5,209.5,427.0,214.5,423.0,218.5" stroke="#a4766" stroke-width="2" fill="none" />
<polyline points="417.5,231.0,416.0,237.0,412.5,245.0" stroke="#fa107e" stroke-width="2" fill="none" />
<polyline points="403.5,277.0,401.5,280.5,399.5,287.5" stroke="#3f4db" stroke-width="2" fill="none" />
<polyline points="381.0,292.0,381.5,288.0,381.0,284.0,381.5,280.0,381.0,276.5" stroke="#7d1ce9" stroke-width="2" fill="none" />
<polyline points="378.5,269.5,377.0,265.5,375.5,262.0,376.5,258.5,374.5,254.5,374.0,251.0,372.5,247.0,371.5,242.5,370.5,238.0,370.5,233.5,370.0,230.0,370.5,225.5,371.0,221.5,372.5,217.5,373.5,213.5,371.0,220.0" stroke="#389ffd" stroke-width="2" fill="none" />
<polyline points="371.0,231.5,371.0,235.5,371.0,239.5,370.0,244.0" stroke="#55da8e" stroke-width="2" fill="none" />
<polyline points="368.5,248.5,368.5,252.5,369.5,256.5,371.0,260.5,372.0,264.0,372.5,268.0,371.5,271.5,373.5,273.0,372.5,276.0,373.0,280.5,373.5,284.5" stroke="#84977" stroke-width="2" fill="none" />
<polyline points="373.5,278.0,374.0,282.0,375.5,285.5,375.5,289.0,376.0,293.0,377.0,296.5,378.0,300.5,379.0,304.5,379.5,308.0,380.0,312.0,381.0,315.5,382.0,319.5,383.0,324.0,383.0,328.0,382.0,331.5,382.0,335.5,382.5,339.5,383.5,343.0,383.0,347.0,383.5,351.0" stroke="#37bcbc" stroke-width="2" fill="none" />
<polyline points="367.5,350.5,368.5,355.0,369.0,359.0,369.5,363.5,370.5,367.5,371.0,372.0" stroke="#3ed9c2" stroke-width="2" fill="none" />
<polyline points="372.0,375.0,373.0,379.5,373.0,383.5" stroke="#66e1f" stroke-width="2" fill="none" />
<polyline points="381.5,385.5,380.5,389.5,380.0,394.0,380.0,398.0,379.5,402.0" stroke="#f669a8" stroke-width="2" fill="none" />
<polyline points="362.5,434.0,358.5,425.0,354.5,419.0,351.0,414.5,347.0,410.0,342.5,406.0,338.5,403.0,335.0,401.0,331.0,399.5,327.5,397.5,323.5,395.5,320.0,394.0,316.0,392.0,312.0,390.5,309.5,390.5,305.0,390.5,301.0,390.0" stroke="#524376" stroke-width="2" fill="none" />
<polyline points="311.5,382.0,315.5,371.5,320.0,364.5,324.0,359.0,328.0,352.5,331.5,344.0,336.0,335.5,340.5,326.5,344.5,318.5" stroke="#a038c7" stroke-width="2" fill="none" />
<polyline points="356.0,328.0,356.0,332.0,355.5,336.5,355.0,340.5,355.0,338.5" stroke="#38a836" stroke-width="2" fill="none" />
<polyline points="352.0,351.5,353.0,356.0,353.0,360.0,352.0,364.0,352.0,368.0,352.0,372.0,351.5,376.0,351.5,380.5,352.0,387.0,352.5,391.0,353.0,395.0,353.0,399.0,353.5,403.0,351.5,405.0,352.5,409.5,352.0,413.5" stroke="#81516" stroke-width="2" fill="none" />
<polyline points="360.5,384.0,361.0,380.0,360.5,376.5,361.5,371.5,361.5,367.5,361.0,363.5" stroke="#9c5486" stroke-width="2" fill="none" />
<polyline points="359.5,362.5,360.0,366.5,360.0,370.5,359.0,374.5,358.5,378.5,358.0,382.0" stroke="#13503b" stroke-width="2" fill="none" />
<polyline points="354.5,355.0,355.0,359.0,355.0,362.5,354.0,366.5,354.5,370.5,355.0,374.0,355.0,378.0,355.0,382.5,355.0,386.5,355.0,391.0,355.5,395.0,355.5,399.0,356.0,403.0,356.0,407.0,356.5,411.0,355.0,412.5" stroke="#7e70" stroke-width="2" fill="none" />
<polyline points="374.0,462.5,372.0,460.5,370.5,456.5,370.5,452.5,370.5,448.5,371.0,445.0,371.5,441.0,371.5,437.5,372.0,433.5,372.5,429.0,373.5,425.0,374.0,420.5,375.0,416.0,375.0,412.0,375.5,408.0,376.0,404.0,377.0,400.5,378.0,396.5,378.0,393.0,378.5,389.0,378.0,384.5,378.0,380.5,377.5,376.0,377.5,372.5,377.0,368.0,377.0,364.0,377.5,360.5,377.0,357.0,376.0,353.0,375.5,349.0,375.0,345.0,375.0,341.0,374.5,336.5,374.0,332.5,373.5,328.5,372.0,324.5,371.5,320.5,371.0,316.5,370.5,312.5,370.0,308.5,369.5,305.0,370.0,301.5,370.0,297.0,369.5,293.0,369.5,289.0,369.0,285.0,368.5,281.0,368.5,277.0,368.5,273.5,368.0,269.5,368.0,265.5,368.0,261.5,368.0,257.0,368.0,253.0,367.5,249.0,366.5,245.5,366.5,241.5,365.0,237.5,364.0,234.0,363.0,229.5,361.5,225.5,360.5,221.5,359.0,217.5,357.0,213.0,355.0,209.5,354.0,207.0,350.5,203.0,349.0,199.5,348.5,197.5" stroke="#d5e081" stroke-width="2" fill="none" />
<polyline points="349.0,200.0,353.0,206.0,357.5,213.5" stroke="#a1206b" stroke-width="2" fill="none" />
<polyline points="361.5,202.0,358.5,194.0" stroke="#2338c1" stroke-width="2" fill="none" />
<polyline points="357.0,191.5,357.0,195.5,358.5,199.0,360.5,203.0,360.5,207.0" stroke="#6d5872" stroke-width="2" fill="none" />
<polyline points="355.5,204.5,351.5,199.0" stroke="#d8e556" stroke-width="2" fill="none" />
<polyline points="351.5,199.0,355.0,202.5,357.0,207.0" stroke="#3ac745" stroke-width="2" fill="none" />
<polyline points="349.5,204.0,346.0,199.0" stroke="#654d71" stroke-width="2" fill="none" />
<polyline points="345.5,197.5,344.0,201.5,347.0,206.0" stroke="#5d89" stroke-width="2" fill="none" />
<polyline points="346.5,206.5,342.5,202.0" stroke="#30a7dc" stroke-width="2" fill="none" />
<polyline points="339.0,202.5,343.5,205.0,347.5,208.0,351.5,210.5,353.5,208.0" stroke="#e038ca" stroke-width="2" fill="none" />
<polyline points="344.0,209.5,340.0,207.5" stroke="#3c9421" stroke-width="2" fill="none" />
<polyline points="339.0,208.0,343.0,216.0" stroke="#a0af1a" stroke-width="2" fill="none" />
<polyline points="351.5,214.0,347.5,210.0,343.0,206.0" stroke="#c95873" stroke-width="2" fill="none" />
<polyline points="339.5,204.5,344.0,207.5,348.5,211.0,352.5,216.0,357.0,223.5" stroke="#4bd0b5" stroke-width="2" fill="none" />
<polyline points="348.5,239.5,347.5,235.5,346.0,231.5,345.0,228.0,344.0,223.5,342.5,219.5,342.0,215.5,340.5,211.5,336.5,204.5" stroke="#43e2cb" stroke-width="2" fill="none" />
<polyline points="339.0,203.5,341.5,207.5,346.5,211.5,349.5,215.5,352.5,219.0,354.0,223.0,356.5,228.0,359.0,232.0,360.5,235.5,361.5,239.5,362.0,243.5,362.5,247.5" stroke="#431b4f" stroke-width="2" fill="none" />
<polyline points="364.5,249.0,364.0,245.0" stroke="#166d4f" stroke-width="2" fill="none" />
<polyline points="353.0,242.0,349.5,245.5,344.5,250.0,341.0,254.5" stroke="#15e7dd" stroke-width="2" fill="none" />
<polyline points="344.5,254.0,340.5,254.0,336.5,255.5,332.5,256.5" stroke="#d34324" stroke-width="2" fill="none" />
<polyline points="328.0,257.5,332.5,254.0,336.5,252.0,341.0,251.0,344.0,250.0,348.0,247.0,352.0,244.0" stroke="#529319" stroke-width="2" fill="none" />
<polyline points="352.0,255.0,348.0,257.0" stroke="#3b24" stroke-width="2" fill="none" />
<polyline points="352.0,252.0,348.5,253.0,346.0,256.5,342.0,257.0,337.5,258.0,334.0,259.0,330.0,259.5,325.5,261.0,321.0,265.0,317.0,272.0" stroke="#14209c" stroke-width="2" fill="none" />
<polyline points="321.0,275.0,325.0,276.5" stroke="#34abef" stroke-width="2" fill="none" />
<polyline points="328.0,273.5,326.0,271.5,329.0,271.0,335.5,269.5,331.5,269.0,327.5,267.5" stroke="#8d4626" stroke-width="2" fill="none" />
<polyline points="322.5,268.0,321.5,272.0,322.5,276.0,329.5,278.5,333.5,279.5,337.5,279.0,342.0,277.5,348.5,278.5" stroke="#ec3137" stroke-width="2" fill="none" />
<polyline points="342.5,281.5,342.0,282.0,340.0,281.5,341.0,275.0,342.5,271.5,341.0,266.0,337.5,264.5" stroke="#4575c9" stroke-width="2" fill="none" />
<polyline points="333.0,265.5,336.5,265.5,336.0,269.5,333.5,273.0,333.0,270.5" stroke="#47dc74" stroke-width="2" fill="none" />
<polyline points="336.5,277.5,337.0,282.5" stroke="#64ddc7" stroke-width="2" fill="none" />
<polyline points="335.5,280.5,340.0,282.0,344.0,280.0,348.5,279.5,348.5,283.5,349.5,287.0,349.0,291.0,350.0,294.5,349.5,298.5,348.0,302.5,348.0,306.5,344.5,310.0,346.5,312.0,345.0,316.0,343.5,320.5,341.5,325.0,340.0,329.0,337.0,333.0,335.5,337.5,333.5,341.5,331.5,345.5,329.5,349.5,327.0,353.5,325.0,357.5,322.5,361.5,319.5,365.5,317.5,369.0,315.5,373.0,314.5,377.0,312.5,380.5,313.0,384.0,310.5,388.0,316.5,392.0,325.5,395.5,334.0,399.5,340.0,403.5,345.0,407.5,349.0,411.5,352.5,415.5,355.5,419.5,358.0,423.0,360.0,427.5,362.0,431.5,363.5,435.5,364.5,439.5,365.5,443.5,366.5,447.5,367.5,451.5,368.5,456.0,369.5,460.0,371.0,464.0,372.5,468.0,374.0,472.0,375.5,476.0,376.5,480.0,378.0,484.0,379.0,488.0,380.5,492.5,382.0,496.5,382.5,500.5,383.5,504.5,384.5,508.5,385.5,512.0" stroke="#cdde2e" stroke-width="2" fill="none" />
<polyline points="421.0,490.5,425.0,495.5,429.5,494.5,434.0,491.5,438.0,488.5,442.0,484.5,446.0,481.0,449.5,476.0,452.5,471.0,456.5,467.5" stroke="#abe586" stroke-width="2" fill="none" />
<polyline points="456.0,466.0,451.0,469.5,449.0,468.0,453.0,461.5" stroke="#20c382" stroke-width="2" fill="none" />
<polyline points="456.0,450.0,460.0,441.0" stroke="#639410" stroke-width="2" fill="none" />
<polyline points="466.5,431.5,470.5,424.5,474.5,418.0,478.0,409.5,481.5,406.0,485.5,401.0,489.5,398.5,493.5,394.0,494.5,390.0,498.5,387.5,502.5,386.0,506.5,384.5,511.0,383.0" stroke="#da40ec" stroke-width="2" fill="none" />
<polyline points="512.5,382.5,502.0,386.5,493.5,390.5,491.5,395.0,485.5,398.5,482.0,402.5,477.0,406.0,475.0,410.0,474.0,414.5,471.5,418.5,469.5,422.5,468.0,427.0,466.0,430.5,462.5,434.0,461.0,438.0,459.0,442.0,458.0,446.0,456.5,450.0,455.5,454.0,455.5,457.5,454.5,461.5,452.0,466.0,449.5,470.0,449.5,474.5,446.5,478.5,442.0,482.5,438.0,486.5,433.0,490.5" stroke="#60cce1" stroke-width="2" fill="none" />
<polyline points="432.0,480.0,431.0,477.5,432.5,474.5,434.5,478.5,435.5,474.5,435.5,470.5,437.0,466.5,438.0,462.5,439.0,459.0,438.0,458.0,433.5,455.5,429.5,452.0" stroke="#d71781" stroke-width="2" fill="none" />
<polyline points="439.5,457.5,435.0,456.0,431.0,452.0,430.0,448.5,430.5,444.0,431.0,440.0,431.5,436.0,433.5,432.0,431.5,435.0" stroke="#204efc" stroke-width="2" fill="none" />
<polyline points="430.0,467.0,426.5,471.5,422.5,475.5,419.0,470.5,417.5,466.5" stroke="#253ecc" stroke-width="2" fill="none" />
<polyline points="428.5,468.0,426.5,472.0,422.0,475.5,421.5,479.0,422.5,483.0,422.5,486.5,423.5,490.5" stroke="#b7be11" stroke-width="2" fill="none" />
<polyline points="486.0,408.5,481.5,414.0,479.0,417.0,482.5,413.5,486.0,409.5,489.0,405.0" stroke="#17b368" stroke-width="2" fill="none" />
<polyline points="444.5,424.0,446.0,422.0,447.0,418.5,448.0,414.5,448.5,410.5,449.5,406.5,450.0,402.5,450.0,398.5,450.0,394.5,450.5,391.0,452.0,387.0,452.5,382.5,453.5,378.5,454.0,374.5,453.5,370.5,453.0,366.5" stroke="#776c8e" stroke-width="2" fill="none" />
<polyline points="385.0,347.5,385.0,343.5,385.0,339.5,385.0,335.5,384.5,331.5,384.0,327.5" stroke="#d95f1c" stroke-width="2" fill="none" />
<polyline points="367.5,352.5,368.0,356.5,368.5,360.5,368.0,364.0,368.0,368.0,371.5,372.5,371.5,376.5,371.5,380.0,371.5,384.0" stroke="#92ed67" stroke-width="2" fill="none" />
<polyline points="319.5,348.0,318.0,344.0,318.0,342.5" stroke="#e848bc" stroke-width="2" fill="none" />
<polyline points="320.0,348.5,315.5,351.0,311.5,351.0,307.5,352.0" stroke="#ded9d0" stroke-width="2" fill="none" />
<polyline points="311.0,355.5,307.5,356.0,303.0,356.5,299.0,357.0,294.5,356.5" stroke="#b049fe" stroke-width="2" fill="none" />
<polyline points="294.0,358.5,298.0,360.5,302.0,359.5,306.0,360.5,310.0,359.0,310.0,358.5,308.5,363.0" stroke="#5a3132" stroke-width="2" fill="none" />
<polyline points="314.5,346.0,310.0,347.5,305.0,347.5,301.0,346.5,296.5,346.5,292.5,347.5" stroke="#b04e8" stroke-width="2" fill="none" />
<polyline points="307.0,336.5,305.5,332.5,315.5,330.0,315.0,330.5,311.5,332.0,307.5,333.0" stroke="#807b71" stroke-width="2" fill="none" />
<polyline points="308.0,328.5,304.0,327.0,301.0,326.0,297.0,325.0" stroke="#24f42f" stroke-width="2" fill="none" />
<polyline points="295.5,326.0,299.5,324.0,303.5,325.0,307.5,326.5" stroke="#854d53" stroke-width="2" fill="none" />
<polyline points="320.0,326.0,321.5,323.5,323.5,319.5,323.5,315.5,323.0,311.5,322.0,307.5,321.5,303.5" stroke="#2dcef1" stroke-width="2" fill="none" />
<polyline points="325.5,274.5,323.0,270.5" stroke="#34cb" stroke-width="2" fill="none" />
<polyline points="322.0,269.0,326.0,274.5,330.5,275.5,334.5,273.5,334.0,271.5" stroke="#181d89" stroke-width="2" fill="none" />
<polyline points="320.5,278.0,316.5,275.5,317.5,274.0,318.5,269.5,321.5,265.5,326.5,261.5,329.0,256.5,336.0,253.0" stroke="#6dc660" stroke-width="2" fill="none" />
<polyline points="364.5,262.5,364.5,267.0,364.5,271.0,364.0,275.0,362.5,279.5,362.0,281.0" stroke="#dfe956" stroke-width="2" fill="none" />
<polyline points="374.0,292.0,373.5,296.0,373.5,300.0,374.0,304.5,375.0,309.0,375.5,313.0,375.5,317.5,378.0,323.5,378.0,327.5,378.5,331.5,379.5,336.0,379.5,340.0,379.5,344.0,379.5,347.5,380.0,351.5,381.0,355.0,381.5,359.0" stroke="#d87923" stroke-width="2" fill="none" />
<polyline points="378.5,289.5,378.0,285.5,377.5,282.0,379.5,278.5,381.5,274.5,381.5,270.5,382.5,266.5" stroke="#c7dc10" stroke-width="2" fill="none" />
<polyline points="367.0,263.0,367.0,267.0,366.0,271.5,365.5,275.0,365.5,279.0,365.0,283.0,365.0,287.0,364.0,291.0,364.5,295.0,364.0,299.0,364.0,303.0,364.0,307.0,364.0,311.0" stroke="#ad2363" stroke-width="2" fill="none" />
<polyline points="291.5,272.5,287.5,266.0" stroke="#51a9a6" stroke-width="2" fill="none" />
<polyline points="285.0,267.0,286.0,270.5" stroke="#f0d359" stroke-width="2" fill="none" />
<polyline points="290.0,272.0,287.5,268.0,287.0,262.0" stroke="#247167" stroke-width="2" fill="none" />
<polyline points="284.5,261.0,282.5,259.5,285.0,257.0,287.5,256.5" stroke="#eb19b5" stroke-width="2" fill="none" />
<polyline points="289.0,252.0,295.5,255.5" stroke="#cdbf62" stroke-width="2" fill="none" />
<polyline points="291.0,270.5,289.0,266.0,286.0,262.0,281.0,258.0,281.0,252.5,277.0,251.5" stroke="#442dd3" stroke-width="2" fill="none" />
<polyline points="276.5,254.5,274.5,249.5,271.0,248.0,267.0,247.5,263.0,250.0" stroke="#e0ce0" stroke-width="2" fill="none" />
<polyline points="270.5,254.0,267.5,258.0" stroke="#364a8b" stroke-width="2" fill="none" />
<polyline points="271.5,266.0,275.5,264.0,279.5,265.5,283.5,270.0,287.0,272.5" stroke="#4fad56" stroke-width="2" fill="none" />
<polyline points="285.0,277.0,281.5,276.5" stroke="#9d9fe5" stroke-width="2" fill="none" />
<polyline points="275.5,282.0,273.5,281.5,271.0,277.5,271.0,272.5,274.0,268.5,273.0,270.0,269.0,274.5,265.0,274.0,261.0,269.5" stroke="#97bc48" stroke-width="2" fill="none" />
<polyline points="260.0,266.5,261.5,270.5,266.0,274.5,266.5,281.5" stroke="#34891" stroke-width="2" fill="none" />
<polyline points="270.0,271.0,268.5,267.0,268.0,267.0" stroke="#96c898" stroke-width="2" fill="none" />
<polyline points="272.0,266.0,267.0,269.5,263.0,267.0" stroke="#21393" stroke-width="2" fill="none" />
<polyline points="264.0,268.5,262.5,269.5,263.5,271.0,267.5,272.5" stroke="#37fbe5" stroke-width="2" fill="none" />
<polyline points="263.0,281.5,264.0,277.5,258.5,275.0,259.0,271.0,257.5,267.0,257.5,267.0" stroke="#a4d04a" stroke-width="2" fill="none" />
<polyline points="254.5,259.0,258.5,259.0,261.0,257.0,265.0,257.5,269.0,256.0,271.5,254.5,275.5,257.5,280.0,256.0" stroke="#2f5ce8" stroke-width="2" fill="none" />
<polyline points="278.5,264.5,283.0,268.5,285.5,272.5,286.5,276.0,287.0,278.5,286.0,279.5,288.5,276.0" stroke="#e21e" stroke-width="2" fill="none" />
<polyline points="260.0,272.5,256.0,275.0,252.0,271.5,248.0,269.0" stroke="#f374bf" stroke-width="2" fill="none" />
<polyline points="248.5,268.5,251.0,267.0,249.5,271.0,253.5,275.0,256.0,278.5,263.5,277.0,267.0,278.0,270.5,276.0,275.0,278.5,279.0,279.0,284.0,271.5,280.5,275.0,278.5,281.0" stroke="#6e5d39" stroke-width="2" fill="none" />
<polyline points="297.5,257.0,293.0,253.5,288.5,251.0,284.5,250.5,280.5,249.5,276.5,248.0,273.0,245.0,268.0,244.5,264.0,246.5,260.0,249.5,256.0,253.0,252.0,256.0,248.0,260.0,244.5,264.5,240.5,269.0,236.5,273.5,232.5,277.5,229.0,282.0,224.5,287.0,220.5,292.0,216.5,297.5,212.5,302.5,208.5,308.5,205.0,313.5,199.5,319.0,196.0,320.5,192.0,319.0,190.0,316.0,192.5,311.5,194.5,307.5,196.5,304.0,197.5,300.0,200.0,296.0,201.5,292.0,203.5,288.0,205.0,284.0,207.5,280.0,210.5,276.5,213.5,272.5,215.5,268.5,218.0,264.5,220.0,261.0,222.0,257.0,225.0,253.0,227.5,249.0,230.5,245.5,233.0,242.0,230.5,238.0,229.5,234.5,228.5,230.0,227.5,226.0,224.5,222.0,223.0,218.0,222.5,215.5,220.0,212.5,221.0,208.0,224.0,203.5,228.0,199.5,226.0,202.0,222.0,206.5" stroke="#e08a9b" stroke-width="2" fill="none" />
<polyline points="225.5,203.5,225.0,207.5,224.5,211.5,225.5,215.5,227.5,215.0,228.5,219.0,230.0,223.0,230.5,227.0,230.5,231.0,231.5,235.0,232.0,236.0,236.0,236.5,240.0,231.5,244.0,226.5,248.0,222.0,252.0,218.0,256.0,214.5,259.0,207.5,263.0,199.5" stroke="#d7d7c6" stroke-width="2" fill="none" />
<polyline points="264.0,198.5,263.0,202.5,261.0,206.5,259.5,211.0,259.5,215.0,258.5,220.0,254.0,224.5,250.0,228.5,247.0,233.0,243.5,237.0,240.0,241.5,236.5,245.0,233.5,249.0,230.0,252.5,227.5,256.5,225.0,260.5,222.0,264.0,220.5,268.5,218.5,272.5,215.5,276.5,213.0,280.5,211.5,284.5,210.0,288.0,208.0,291.5,206.5,295.5,204.5,299.5,202.5,303.0,201.0,307.0,199.5,311.0,197.5,315.0,200.0,319.0,199.0,311.5,203.0,301.5,206.5,293.0,210.5,284.0,214.5,276.0,218.5,269.5,223.0,263.0,227.0,257.5,230.5,252.0,234.5,247.0,238.5,242.0,243.0,237.5,247.0,232.5,250.5,228.5,254.5,224.0,258.5,220.0,262.5,215.5,263.5,211.5,268.0,204.0,272.0,201.5,276.0,199.0,280.0,195.5,284.0,192.0,288.0,189.0,292.5,185.5,296.5,182.5,301.0,179.0,305.0,176.5,309.0,174.0" stroke="#2e4e65" stroke-width="2" fill="none" />
<polyline points="312.0,173.5,308.5,178.0,301.5,182.0,297.0,186.0,292.0,190.5,287.5,195.0,283.0,199.0,279.0,203.0,274.5,207.0,273.5,211.0,273.0,215.0,269.5,217.0" stroke="#26bc96" stroke-width="2" fill="none" />
<polyline points="268.5,214.0,268.0,212.5,272.5,208.0,277.0,204.5,281.0,201.0,285.0,197.0,288.5,193.5,292.0,190.0,295.5,187.0,299.5,183.5,303.5,181.5,308.0,179.0" stroke="#ae6d26" stroke-width="2" fill="none" />
<polyline points="313.5,172.0,307.0,176.0,301.0,180.0,296.0,184.0,291.5,188.0,286.0,192.0,281.5,196.0,275.5,200.5,270.5,204.5,267.0,210.0,270.5,210.0,267.0,214.0,266.0,219.0,265.0,223.0,264.5,225.0,264.0,229.0,264.0,232.5,263.0,236.0,262.5,240.0" stroke="#c0738c" stroke-width="2" fill="none" />
<polyline points="262.0,238.0,262.0,234.0,262.5,229.5,262.5,225.0,262.0,224.0,258.0,223.5,252.5,229.0,249.0,233.5,245.0,238.0,241.0,242.5,237.0,247.5,233.0,253.0,229.0,258.5,224.5,265.0,220.5,272.0,216.5,280.0,214.5,284.0,216.5,280.0,219.0,276.0,221.5,272.0,224.0,268.0,226.5,264.0,228.5,260.0,231.5,256.0,234.0,252.0,237.0,248.0,240.0,244.0,244.0,240.0,247.0,235.5,251.0,231.5,255.0,226.5,259.5,222.5,262.5,218.0,264.0,216.5,261.5,215.5,262.5,211.5,263.0,207.5,267.5,203.5,269.0,199.5,269.5,196.0,271.0,191.5,270.0,188.0,265.0,192.5,261.5,196.5,258.0,201.0,254.0,203.0" stroke="#4ede9" stroke-width="2" fill="none" />
<polyline points="252.5,202.5,256.5,198.5" stroke="#2d32f3" stroke-width="2" fill="none" />
<polyline points="265.5,205.0,262.0,209.5" stroke="#c17eea" stroke-width="2" fill="none" />
<polyline points="261.0,210.5,265.0,203.0,262.5,203.0,260.5,206.5,258.5,210.5,257.5,215.0,255.0,220.0,251.5,223.0,248.5,227.0,244.5,231.0,240.5,235.0,238.0,238.5,235.0,242.5" stroke="#3e9866" stroke-width="2" fill="none" />
<polyline points="233.0,224.5,229.0,222.5" stroke="#1d469e" stroke-width="2" fill="none" />
<polyline points="229.0,219.0,233.0,221.5" stroke="#588335" stroke-width="2" fill="none" />
<polyline points="227.5,228.0,223.5,219.0,226.0,214.0" stroke="#18b38" stroke-width="2" fill="none" />
<polyline points="220.5,213.0,220.0,217.5,220.5,222.0,221.0,226.0,221.5,230.0,224.0,231.5,221.5,234.5,227.0,234.5,223.5,238.5,223.5,242.5,220.5,246.5,219.5,250.0" stroke="#241371" stroke-width="2" fill="none" />
<polyline points="218.0,248.0,219.0,243.5,221.0,239.5,220.5,235.0,220.0,231.0,216.5,232.0" stroke="#8f6d5e" stroke-width="2" fill="none" />
<polyline points="219.0,233.0,220.0,237.0" stroke="#37cc80" stroke-width="2" fill="none" />
<polyline points="214.0,237.5,213.5,239.5,216.5,243.0,216.5,247.0,216.5,251.5" stroke="#96649c" stroke-width="2" fill="none" />
<polyline points="214.5,256.5,210.5,254.5,206.5,249.5" stroke="#aa8960" stroke-width="2" fill="none" />
<polyline points="205.5,250.0,203.5,249.5" stroke="#3eff8" stroke-width="2" fill="none" />
<polyline points="208.0,245.0,208.5,244.0,209.5,240.0,210.5,236.0,209.5,238.0" stroke="#51840" stroke-width="2" fill="none" />
<polyline points="208.5,237.5,210.5,233.0,209.0,236.5,208.0,241.0,207.0,245.0,206.0,249.0,209.0,250.5,212.0,255.5" stroke="#b8bb7e" stroke-width="2" fill="none" />
<polyline points="216.5,254.0,214.5,250.0,214.0,246.5" stroke="#ea1d9d" stroke-width="2" fill="none" />
<polyline points="216.0,255.5,214.5,254.5,214.0,250.5,213.0,249.0,213.5,245.0,213.5,241.0,213.0,237.0" stroke="#37f840" stroke-width="2" fill="none" />
<polyline points="209.0,226.5,204.5,221.0" stroke="#226e6e" stroke-width="2" fill="none" />
<polyline points="211.0,217.0,215.0,222.5" stroke="#5e25" stroke-width="2" fill="none" />
<polyline points="213.0,217.0,215.0,221.0,216.5,227.0,219.5,231.0,217.5,235.0" stroke="#654dca" stroke-width="2" fill="none" />
<polyline points="231.5,243.0,227.5,248.0,223.5,254.5,219.5,261.0,215.0,268.0,210.5,274.5,206.5,281.0,202.0,288.0,198.0,295.0,193.5,302.5,189.5,312.5,185.5,316.5,181.0,324.5,177.5,328.5,173.5,328.5,169.5,329.0,166.0,331.5,162.0,338.5,158.0,341.0,154.0,344.0,150.0,350.0,146.0,347.0" stroke="#41f6d7" stroke-width="2" fill="none" />
<polyline points="144.5,342.0,147.0,338.5,145.0,337.5,148.5,335.5,147.5,331.5,149.5,327.5,147.5,329.0" stroke="#db80cd" stroke-width="2" fill="none" />
<polyline points="151.0,328.0,154.0,332.0,153.0,336.0" stroke="#7c366" stroke-width="2" fill="none" />
<polyline points="148.5,340.5,147.0,345.0,147.0,349.0,146.0,353.0" stroke="#47cead" stroke-width="2" fill="none" />
<polyline points="139.0,352.5,135.5,348.0,131.0,342.5" stroke="#46f3a8" stroke-width="2" fill="none" />
<polyline points="130.0,341.5,134.5,339.0,139.0,344.5" stroke="#5c9ef6" stroke-width="2" fill="none" />
<polyline points="142.5,339.0,140.5,341.5,140.0,338.0,139.5,330.5" stroke="#df847" stroke-width="2" fill="none" />
<polyline points="124.5,334.5,130.5,333.0,132.0,337.0,134.0,340.5,135.0,343.5,139.0,347.5,138.5,353.5,143.0,354.5,143.0,361.5,147.0,366.0" stroke="#76e74" stroke-width="2" fill="none" />
<polyline points="147.0,363.0,151.0,368.5,152.0,372.5,152.5,376.5,155.0,380.0,156.0,383.5,157.0,388.0,160.5,393.5,162.0,397.0,161.0,401.0,161.0,405.0,162.0,409.0,161.5,413.0,162.5,417.0,163.5,421.0,161.5,425.5,162.5,419.0,160.5,423.0,160.5,427.0,162.0,424.5" stroke="#759d42" stroke-width="2" fill="none" />
<polyline points="163.0,429.5,160.0,433.0,161.5,433.0,168.0,433.5" stroke="#8ebaa8" stroke-width="2" fill="none" />
<polyline points="166.0,434.0,165.5,433.5,166.5,437.5,166.0,442.0,166.5,445.0,168.5,449.0,170.5,451.5,173.0,455.5,175.0,459.5,180.0,456.5,178.5,460.5,177.0,465.0" stroke="#9b9638" stroke-width="2" fill="none" />
<polyline points="173.5,462.0,169.5,456.0" stroke="#3156d7" stroke-width="2" fill="none" />
<polyline points="169.5,453.5,172.0,457.5,172.0,462.5,170.5,466.5,167.5,467.5" stroke="#4a965" stroke-width="2" fill="none" />
<polyline points="167.5,470.0,163.5,469.5,157.0,473.0,153.0,470.0,148.5,463.5,144.0,454.5,140.0,452.5,135.5,457.5,131.0,466.5" stroke="#8c711c" stroke-width="2" fill="none" />
<polyline points="138.0,464.0,139.5,468.0,142.5,472.0,147.0,475.5,152.5,479.5,154.0,484.5,152.0,482.5,156.5,483.5,158.5,488.5,162.5,494.5,165.0,493.0,167.5,499.5" stroke="#b3fcd1" stroke-width="2" fill="none" />
<polyline points="164.5,503.5,166.0,504.5,169.0,508.5" stroke="#4ff54a" stroke-width="2" fill="none" />
<polyline points="167.0,498.0,162.5,496.0" stroke="#f89f79" stroke-width="2" fill="none" />
<polyline points="160.0,501.0,162.5,505.0,164.0,509.0" stroke="#abc36" stroke-width="2" fill="none" />
<polyline points="155.5,510.0,152.0,505.0" stroke="#961e60" stroke-width="2" fill="none" />
<polyline points="152.0,504.0,148.0,498.0" stroke="#9058c9" stroke-width="2" fill="none" />
<polyline points="144.0,496.5,148.0,501.5,152.5,511.0" stroke="#fbe4c" stroke-width="2" fill="none" />
<polyline points="153.5,496.5,149.5,491.0" stroke="#2fc8a6" stroke-width="2" fill="none" />
<polyline points="153.0,493.0,152.0,487.5,148.5,484.0" stroke="#3adb85" stroke-width="2" fill="none" />
<polyline points="151.0,482.0,150.5,486.0,153.5,490.0,156.5,490.0,156.5,494.0,157.0,498.0,159.0,502.5,159.5,507.0,160.5,508.0,167.0,511.5" stroke="#61dd9d" stroke-width="2" fill="none" />
<polyline points="157.0,506.5,152.5,503.5,148.0,496.5,146.5,491.5,142.5,482.5" stroke="#127a69" stroke-width="2" fill="none" />
<polyline points="141.0,483.5,143.5,487.5,145.0,491.5,147.0,496.0,150.0,500.0,151.5,504.0,152.0,508.0,155.0,512.0" stroke="#58d984" stroke-width="2" fill="none" />
<polyline points="152.0,505.0,153.5,503.5,151.0,499.5,148.5,495.5,144.0,491.5,140.0,484.0" stroke="#53e18b" stroke-width="2" fill="none" />
<polyline points="136.0,483.0,137.5,487.0,136.0,489.0,138.0,493.0,137.5,496.5,138.5,500.5,138.5,503.5" stroke="#26dc" stroke-width="2" fill="none" />
<polyline points="133.5,507.5,129.5,499.5" stroke="#f2fad" stroke-width="2" fill="none" />
<polyline points="125.0,498.5,127.0,502.5,126.0,506.5,126.5,510.5" stroke="#82f5ba" stroke-width="2" fill="none" />
<polyline points="132.0,510.0,128.0,504.5,124.5,496.5" stroke="#d6617c" stroke-width="2" fill="none" />
<polyline points="124.0,490.0,125.0,492.0,125.0,497.0,125.0,500.5,125.0,504.5,124.5,508.5" stroke="#d9bb80" stroke-width="2" fill="none" />
<polyline points="126.5,503.5,129.0,507.5,132.5,512.0" stroke="#60e857" stroke-width="2" fill="none" />
<polyline points="142.5,512.5,144.0,508.5,142.0,504.5,141.0,500.5,140.0,496.5,136.0,491.5,135.5,485.5" stroke="#69f22" stroke-width="2" fill="none" />
<polyline points="134.0,483.5,138.0,487.0,138.0,494.0" stroke="#39aee" stroke-width="2" fill="none" />
<polyline points="143.5,496.0,146.5,500.0,148.5,504.0,150.0,507.5,151.0,511.5" stroke="#4b98dc" stroke-width="2" fill="none" />
<polyline points="172.5,508.5,168.5,505.0,165.0,503.0,161.0,502.0,157.0,500.0,153.0,498.0,151.5,494.0,146.5,491.5,144.5,487.5,142.5,483.5,139.5,477.0" stroke="#e9ecef" stroke-width="2" fill="none" />
<polyline points="135.0,482.5,133.5,486.5,134.5,490.5,136.5,494.5,134.0,496.5,136.5,500.5,138.5,504.5,140.0,508.5,140.5,512.5" stroke="#c35fbb" stroke-width="2" fill="none" />
<polyline points="109.5,510.0,109.5,506.0,110.0,502.5,110.5,498.5,112.0,495.0,111.5,490.5,112.0,488.5" stroke="#4565e1" stroke-width="2" fill="none" />
<polyline points="113.5,487.5,113.5,491.5,113.0,495.5,111.5,499.5,111.0,504.0,110.0,508.0,109.0,512.5" stroke="#88fd13" stroke-width="2" fill="none" />
<polyline points="105.0,505.5,101.5,500.5" stroke="#217899" stroke-width="2" fill="none" />
<polyline points="102.0,491.5,101.0,495.5,101.5,499.5,103.5,503.0,105.0,507.5,106.5,511.5" stroke="#19f87" stroke-width="2" fill="none" />
<polyline points="104.5,510.0,102.5,506.0,100.5,502.0,99.0,498.0,98.0,494.0,97.0,490.0" stroke="#27f635" stroke-width="2" fill="none" />
<polyline points="95.5,468.0,92.0,472.0,93.5,471.0,97.5,466.5" stroke="#8f5951" stroke-width="2" fill="none" />
<polyline points="95.0,454.0,89.5,458.0,88.0,459.0,92.0,456.5,95.5,453.5" stroke="#62c7ac" stroke-width="2" fill="none" />
<polyline points="95.0,452.0,90.5,455.5,85.5,457.5,83.5,459.0,89.5,455.0,94.0,450.5" stroke="#e17059" stroke-width="2" fill="none" />
<polyline points="109.0,446.5,109.0,442.5,108.0,440.5" stroke="#bdfdfe" stroke-width="2" fill="none" />
<polyline points="105.0,438.5,104.5,442.5,103.0,446.5" stroke="#384298" stroke-width="2" fill="none" />
<polyline points="102.5,439.0,98.5,442.5,101.5,440.0,103.5,436.0" stroke="#bfa9cb" stroke-width="2" fill="none" />
<polyline points="103.5,435.5,99.5,440.0,96.0,445.0,94.0,444.0,93.5,448.0,93.5,444.0,98.5,440.5,102.5,436.5,104.5,433.0,105.0,428.5,104.5,424.5,104.0,420.5,108.0,418.0,104.0,419.5" stroke="#ce6476" stroke-width="2" fill="none" />
<polyline points="108.5,416.5,110.0,420.5,109.0,424.0,108.5,428.0,108.5,432.0,106.5,436.0,106.0,440.0,107.0,446.5" stroke="#c06768" stroke-width="2" fill="none" />
<polyline points="120.5,452.5,122.5,451.0,123.0,454.5" stroke="#cbcda2" stroke-width="2" fill="none" />
<polyline points="124.0,455.0,121.5,451.0" stroke="#b1abe0" stroke-width="2" fill="none" />
<polyline points="118.0,443.5,120.0,439.0" stroke="#977a70" stroke-width="2" fill="none" />
<polyline points="119.5,436.5,118.5,442.5,117.0,442.0,118.5,438.0,120.0,434.0,120.5,429.5" stroke="#d960d7" stroke-width="2" fill="none" />
<polyline points="115.5,428.0,115.0,432.0" stroke="#883ba2" stroke-width="2" fill="none" />
<polyline points="121.0,420.5,125.0,425.5,129.0,429.5" stroke="#f59293" stroke-width="2" fill="none" />
<polyline points="137.5,428.5,139.0,430.5,140.5,434.5" stroke="#337ca6" stroke-width="2" fill="none" />
<polyline points="141.0,423.5,145.0,430.0,151.0,439.5" stroke="#5341f6" stroke-width="2" fill="none" />
<polyline points="156.5,441.5,157.5,439.5,158.5,435.5,158.0,433.5,158.0,429.0,156.5,424.5,156.0,420.0,156.0,420.0" stroke="#cc62f" stroke-width="2" fill="none" />
<polyline points="166.0,415.5,162.0,409.0" stroke="#ce6e20" stroke-width="2" fill="none" />
<polyline points="161.5,410.5,163.5,414.5,166.5,420.0" stroke="#28e6bc" stroke-width="2" fill="none" />
<polyline points="171.0,416.5,173.0,420.5,176.0,424.5,176.5,428.5,176.0,432.5,174.5,435.5,172.0,438.5,172.0,440.5,172.0,446.0,173.0,450.5,173.5,454.5,177.0,457.5,173.5,462.5,174.5,466.0,171.0,464.5,174.5,467.0" stroke="#79e3a" stroke-width="2" fill="none" />
<polyline points="171.5,463.5,167.5,462.0" stroke="#12be9" stroke-width="2" fill="none" />
<polyline points="162.5,461.5,160.0,457.0,159.5,454.0,159.0,450.0,161.5,446.0,163.0,442.0,164.5,441.5" stroke="#a9332f" stroke-width="2" fill="none" />
<polyline points="162.5,443.0,164.5,447.5,165.5,451.5,167.0,455.5,170.5,459.5,167.5,462.5,166.0,466.5,161.5,469.0,162.0,473.5,160.5,477.5,158.0,478.5,158.5,481.5,158.0,485.5,159.5,489.5,163.5,494.0,165.0,498.0,166.5,504.5,171.0,509.0,171.5,513.0,173.0,512.5" stroke="#72ed72" stroke-width="2" fill="none" />
<polyline points="194.5,491.5,198.5,491.0,202.0,490.0,205.5,488.0,209.5,486.5,213.0,483.5,216.5,480.5,220.5,476.0,224.5,471.0,228.0,465.0" stroke="#b2b7f1" stroke-width="2" fill="none" />
<polyline points="233.5,465.0,237.5,457.5" stroke="#9e217" stroke-width="2" fill="none" />
<polyline points="210.5,487.0,216.5,483.0,220.0,479.0,223.5,474.5,227.0,470.5,229.5,467.0,231.5,463.0,233.5,459.0,234.5,455.0,234.5,451.0,235.5,447.0,236.5,442.5,237.0,439.0,237.5,434.5,237.0,430.5,236.5,426.0,236.0,422.0,235.0,418.5,234.5,414.5,233.0,410.5,231.5,407.0,231.0,405.0" stroke="#a7f541" stroke-width="2" fill="none" />
<polyline points="222.0,409.5,222.0,413.5,223.5,414.0" stroke="#138ca" stroke-width="2" fill="none" />
<polyline points="228.5,416.5,228.0,420.5" stroke="#ad46b" stroke-width="2" fill="none" />
<polyline points="243.5,409.5,243.0,413.5,243.5,417.5,243.0,422.0,242.0,426.5,241.5,430.0,241.5,434.0,240.5,437.5,240.5,441.0,240.0,445.0,238.5,449.0,238.0,453.0,237.0,457.5,235.5,461.5,233.0,465.5,232.5,469.5,230.0,474.0,227.5,478.0,223.5,482.5,219.0,486.5,211.5,490.5" stroke="#d5971" stroke-width="2" fill="none" />
<polyline points="197.5,493.5,194.0,496.5,198.0,493.5,202.0,493.0,206.0,492.0,210.0,490.5,214.0,488.5,218.5,486.5,223.0,482.5,227.5,478.0,231.5,471.0" stroke="#fbc5da" stroke-width="2" fill="none" />
<polyline points="199.5,448.5,200.0,444.5,202.0,445.0,198.0,447.0" stroke="#3dee77" stroke-width="2" fill="none" />
<polyline points="198.5,451.5,194.5,449.0,190.0,449.0,186.0,448.0,182.0,446.5,178.5,449.5,179.5,448.0,181.0,448.0,184.0,442.5,184.0,438.0,182.0,436.5,180.5,434.5,182.0,430.0,182.5,425.5,181.0,421.5,180.0,417.5,178.5,413.5,177.0,409.5,175.5,405.0,173.0,401.0,170.5,397.0,166.5,393.0,161.5,388.5,159.0,384.5,162.5,380.5,163.5,376.5,162.5,380.0" stroke="#4b4e27" stroke-width="2" fill="none" />
<polyline points="159.0,376.0,163.0,370.5,167.0,365.5,171.0,360.5,175.0,355.0,179.0,348.5,183.5,342.5,187.5,338.0,191.5,332.5,195.5,328.0,200.0,323.0" stroke="#ad7413" stroke-width="2" fill="none" />
<polyline points="197.0,318.5,201.0,316.5" stroke="#e0a528" stroke-width="2" fill="none" />
<polyline points="191.5,317.5,195.5,308.5,199.0,300.0,203.0,292.0,207.0,285.0,211.0,277.5,215.5,270.5,219.5,264.0,224.0,257.0,228.0,251.0,232.0,245.5,236.0,240.0,240.5,235.5,244.5,231.0,248.0,227.0,252.0,223.0,256.0,219.0" stroke="#941890" stroke-width="2" fill="none" />
<polyline points="263.5,220.0,267.5,224.5" stroke="#f1515" stroke-width="2" fill="none" />
<polyline points="264.0,234.5,264.0,238.5" stroke="#e3ae3" stroke-width="2" fill="none" />
<polyline points="271.5,244.5,266.0,245.5,261.0,249.5,255.5,253.5,251.0,257.5,247.0,261.5,243.0,265.5,239.5,270.0,236.0,274.5,232.5,279.0,228.5,283.0,225.0,286.5,221.5,290.0,218.5,294.0,215.5,297.5,213.0,301.0,211.0,305.0,208.5,309.5,205.5,313.0,205.0,317.0,202.5,321.0,198.5,325.0,195.5,329.0,192.5,333.5,189.0,337.5,186.0,341.5,183.0,346.0,180.0,350.5,177.0,354.5,174.5,358.5,171.5,362.5,167.5,366.5,164.0,370.5,161.0,374.5,159.0,378.5,158.0,384.5,161.5,390.5,165.0,393.5,169.0,398.5,173.0,404.0,177.0,411.5" stroke="#fd5477" stroke-width="2" fill="none" />
<polyline points="172.0,407.5,168.0,403.5,164.0,402.5,158.0,396.0,154.0,392.0" stroke="#b9fb24" stroke-width="2" fill="none" />
<polyline points="152.0,393.5,155.5,395.0" stroke="#af6f67" stroke-width="2" fill="none" />
<polyline points="155.5,398.5,151.0,394.5,149.0,395.5" stroke="#e751b7" stroke-width="2" fill="none" />
<polyline points="148.0,394.5,148.0,397.5,149.0,403.0,150.0,407.0,152.5,413.5,152.5,417.5,153.0,421.5" stroke="#d8f311" stroke-width="2" fill="none" />
<polyline points="145.0,423.5,141.0,421.0" stroke="#e3ca44" stroke-width="2" fill="none" />
<polyline points="138.0,420.5,143.5,422.5,148.5,426.5,146.5,430.0,147.5,434.0,149.5,438.0,154.0,438.0,154.5,442.0,157.0,445.5,155.5,449.5,155.5,448.0,159.0,450.5,163.0,448.5,163.5,453.0,167.5,455.0,171.5,461.5" stroke="#9cb532" stroke-width="2" fill="none" />
<polyline points="178.5,461.0,174.5,458.0,170.5,451.0,166.5,444.5" stroke="#5486f" stroke-width="2" fill="none" />
<polyline points="161.5,443.5,165.5,439.5,169.0,443.5,173.0,443.5,176.5,439.5,180.5,439.0,181.5,434.0" stroke="#c3805b" stroke-width="2" fill="none" />
<polyline points="175.0,435.5,171.5,435.5,167.5,429.5" stroke="#a44b" stroke-width="2" fill="none" />
<polyline points="167.0,427.5,168.5,431.5,170.5,435.5,169.5,439.0,170.0,440.0,175.0,439.5" stroke="#f31b1e" stroke-width="2" fill="none" />
<polyline points="177.5,440.0,173.5,444.0,177.5,443.0,181.5,444.0,186.0,440.5" stroke="#b431e6" stroke-width="2" fill="none" />
<polyline points="179.0,446.5,174.5,445.5" stroke="#8540a6" stroke-width="2" fill="none" />
<polyline points="175.0,445.0,174.5,449.5,175.5,453.5,175.5,457.5" stroke="#b421c5" stroke-width="2" fill="none" />
<polyline points="163.5,457.0,161.5,458.0,162.0,453.5,162.5,449.0,159.5,450.5,159.0,448.5" stroke="#aacacd" stroke-width="2" fill="none" />
<polyline points="156.0,458.5,160.0,461.0" stroke="#1e9d1d" stroke-width="2" fill="none" />
<polyline points="155.5,468.0,149.0,461.5" stroke="#53dce" stroke-width="2" fill="none" />
<polyline points="149.0,460.5,153.0,466.0,156.0,466.5,157.0,472.5,160.0,475.5,158.5,475.5,164.5,476.5,166.5,472.0" stroke="#7d97d0" stroke-width="2" fill="none" />
<polyline points="165.5,470.0,169.5,474.0,171.0,478.0,168.5,482.0,166.5,485.5,168.5,490.0,169.5,492.5" stroke="#58f0ec" stroke-width="2" fill="none" />
<polyline points="168.0,489.5,166.5,485.0,159.5,482.0" stroke="#3ca6af" stroke-width="2" fill="none" />
<polyline points="167.0,478.5,165.0,482.0,167.0,480.0,170.0,480.5" stroke="#60a2f8" stroke-width="2" fill="none" />
<polyline points="156.5,466.0,152.5,463.5,148.5,459.0" stroke="#62fcc5" stroke-width="2" fill="none" />
<polyline points="147.5,464.0,151.0,470.5,155.0,473.5" stroke="#22b982" stroke-width="2" fill="none" />
<polyline points="153.0,475.0,149.5,474.0,145.5,467.5,142.0,465.0,138.0,463.0" stroke="#788611" stroke-width="2" fill="none" />
<polyline points="141.5,452.0,144.0,455.5,144.5,459.5,144.0,463.0,145.5,466.0,146.5,470.0,149.5,474.0,154.0,477.0" stroke="#34f340" stroke-width="2" fill="none" />
<polyline points="158.5,475.5,152.5,471.5,150.0,467.5" stroke="#e21e7a" stroke-width="2" fill="none" />
<polyline points="150.5,454.0,146.5,450.5" stroke="#b738" stroke-width="2" fill="none" />
<polyline points="146.0,449.0,147.0,453.0,149.5,457.0,150.5,461.5,151.5,465.0,151.5,467.5,155.5,470.0,158.0,474.5,157.5,478.5,161.5,480.5,165.0,478.0,169.5,478.0" stroke="#c9bc36" stroke-width="2" fill="none" />
<polyline points="155.5,453.5,152.5,452.0,149.0,451.5,145.0,449.0" stroke="#dd73b2" stroke-width="2" fill="none" />
<polyline points="145.0,449.0,148.0,453.0,152.0,454.0,152.5,458.5,154.0,455.5,158.5,456.0,163.5,454.5" stroke="#6cb9e" stroke-width="2" fill="none" />
<polyline points="152.0,447.5,147.5,442.5,145.0,437.0,138.5,427.5,134.5,423.0,131.0,419.0" stroke="#fc775b" stroke-width="2" fill="none" />
<polyline points="133.5,420.5,136.0,424.5,136.5,428.5,137.5,433.0,138.5,437.0,141.5,442.5,142.0,446.0,141.0,450.0,140.0,453.5,138.0,457.5,136.0,461.5,134.5,465.5,135.5,456.5" stroke="#11b4fb" stroke-width="2" fill="none" />
<polyline points="141.0,450.5,143.0,454.5,145.5,458.0,146.5,462.0,147.5,466.0,148.0,470.0,152.0,474.0,153.5,477.0,156.0,477.5,156.5,482.5,154.5,486.0,157.5,490.0,161.0,494.5,162.0,498.5,163.5,503.0,163.5,507.0,165.0,511.0" stroke="#eabe4" stroke-width="2" fill="none" />
<polyline points="159.0,462.0,153.0,457.0,154.0,454.5,153.0,450.5,152.0,446.5,149.5,443.0,145.5,439.5,144.5,435.5,146.0,431.5,143.5,428.0,141.5,424.0,139.5,423.5,135.5,419.0,131.5,414.5" stroke="#eca3d9" stroke-width="2" fill="none" />
<polyline points="131.0,412.5,134.5,407.5,140.5,402.5,144.0,399.0" stroke="#e44d7" stroke-width="2" fill="none" />
<polyline points="142.0,400.0,143.0,396.0" stroke="#70f840" stroke-width="2" fill="none" />
<polyline points="143.5,394.0,146.5,398.0,150.0,405.5" stroke="#2eb398" stroke-width="2" fill="none" />
<polyline points="145.0,405.0,141.0,401.5" stroke="#9b20d5" stroke-width="2" fill="none" />
<polyline points="142.0,401.5,146.0,405.5" stroke="#3b66c8" stroke-width="2" fill="none" />
<polyline points="141.0,403.0,145.0,407.0,149.0,411.5" stroke="#842336" stroke-width="2" fill="none" />
<polyline points="138.5,408.5,142.5,412.5,146.5,417.5,150.0,423.5" stroke="#5392ef" stroke-width="2" fill="none" />
<polyline points="133.0,428.5,131.0,424.5,130.5,421.0,126.5,416.0" stroke="#aa2f3" stroke-width="2" fill="none" />
<polyline points="127.5,413.5,131.5,408.5,135.0,404.0" stroke="#c5fd2c" stroke-width="2" fill="none" />
<polyline points="130.5,406.5,134.5,402.5,135.5,395.5,139.0,393.5,143.0,389.5,143.5,386.5,143.0,385.5,145.0,380.5,147.0,375.5,147.5,371.5,147.5,367.5,145.0,363.5,144.5,360.0,144.5,356.0,143.5,353.5,142.5,349.0,139.5,344.5,138.5,339.5,137.5,335.5,137.0,331.5,137.0,327.5,136.5,323.5,136.0,319.5,134.5,315.5,133.5,311.5,131.5,307.5,130.5,303.5,128.0,296.5,132.0,292.5,135.0,290.5,136.5,286.5,129.0,282.5,124.5,276.5" stroke="#51706a" stroke-width="2" fill="none" />
<polyline points="125.5,275.0,125.5,278.5,128.5,282.5,129.0,286.0,126.0,289.0,125.5,293.0,124.0,296.5,122.5,300.0,125.5,303.5,124.0,308.0,123.0,312.0,122.5,316.0,121.5,319.5,122.5,323.5,122.0,327.5,122.0,331.5,122.5,337.0" stroke="#53b1dd" stroke-width="2" fill="none" />
<polyline points="120.0,339.5,120.5,341.5,120.5,344.5" stroke="#47eb9" stroke-width="2" fill="none" />
<polyline points="116.5,343.0,117.0,347.0,118.0,350.5,117.5,355.0,117.0,359.0,116.5,363.0,115.5,367.5,114.0,372.0,114.5,376.0,114.5,380.0,113.5,384.0,114.0,388.0,114.5,392.0,114.5,396.0,118.0,400.0,121.5,404.0,120.5,408.0,114.5,412.0,110.0,413.5,113.0,412.5,117.0,410.5,120.5,406.5" stroke="#3acd23" stroke-width="2" fill="none" />
<polyline points="125.0,407.0,121.5,411.0" stroke="#5795f5" stroke-width="2" fill="none" />
<polyline points="122.0,416.5,123.5,420.5,126.0,424.5" stroke="#e8c498" stroke-width="2" fill="none" />
<polyline points="130.0,427.5,126.5,425.0,122.0,417.5" stroke="#3f729" stroke-width="2" fill="none" />
<polyline points="120.5,416.5,121.0,420.5,123.5,424.5,127.5,428.5" stroke="#b7f255" stroke-width="2" fill="none" />
<polyline points="131.0,427.0,130.0,423.0,130.0,419.0,127.0,415.5,127.5,411.5,129.0,407.5,124.0,408.5,120.0,413.0,116.5,414.0,112.0,413.5" stroke="#c5ade4" stroke-width="2" fill="none" />
<polyline points="112.0,418.5,112.5,422.5,113.0,426.5,114.0,430.5,115.0,432.5" stroke="#af829c" stroke-width="2" fill="none" />
<polyline points="92.0,417.0,88.0,421.0,86.5,424.5,87.5,422.0" stroke="#ac38d2" stroke-width="2" fill="none" />
<polyline points="88.5,422.5,86.5,425.5,89.5,421.5,91.0,417.0" stroke="#74a8f8" stroke-width="2" fill="none" />
<polyline points="91.0,406.5,95.0,406.0" stroke="#b62cd5" stroke-width="2" fill="none" />
<polyline points="96.0,400.0,92.0,397.5" stroke="#cbc368" stroke-width="2" fill="none" />
<polyline points="91.5,401.0,88.0,394.5" stroke="#794bd5" stroke-width="2" fill="none" />
<polyline points="84.5,386.0,89.5,382.5,88.5,386.5,89.0,390.0,90.0,395.0,92.0,399.0,94.0,401.0,96.0,403.5,97.5,408.0,99.5,408.0,103.5,406.5" stroke="#2b12bf" stroke-width="2" fill="none" />
<polyline points="115.0,407.5,114.5,404.5,115.5,401.0" stroke="#50b34b" stroke-width="2" fill="none" />
<polyline points="114.0,400.0,111.5,404.0,109.5,407.5,110.5,406.5" stroke="#88149" stroke-width="2" fill="none" />
<polyline points="101.0,413.0,99.0,412.5,106.0,408.0,109.0,404.0,109.5,400.0,107.5,396.0,106.5,392.0" stroke="#3751" stroke-width="2" fill="none" />
<polyline points="106.0,391.0,105.0,395.5,105.5,399.5,106.5,403.5" stroke="#f04bc1" stroke-width="2" fill="none" />
<polyline points="120.0,394.5,123.0,398.5,127.0,400.0,131.0,400.5,137.5,402.0,141.5,396.0,145.0,398.0,149.0,401.5" stroke="#55e7e8" stroke-width="2" fill="none" />
<polyline points="140.5,399.5,142.0,403.0,146.0,407.0,150.0,411.5" stroke="#be654" stroke-width="2" fill="none" />
<polyline points="159.5,406.0,163.5,406.5,166.5,410.5,168.5,415.0,166.5,418.5,170.0,424.5,171.0,428.5" stroke="#ec1138" stroke-width="2" fill="none" />
<polyline points="178.0,425.0,176.5,422.0,174.5,418.0,175.5,414.5,172.5,413.5,169.5,409.5,166.5,405.5,163.0,401.5,163.5,397.0,164.5,400.5" stroke="#7c5e42" stroke-width="2" fill="none" />
<polyline points="164.0,397.0,165.5,400.5,168.5,401.5,172.0,405.5,174.0,409.0,175.0,413.5,176.5,417.5,177.5,421.5,178.0,425.5" stroke="#5075fa" stroke-width="2" fill="none" />
<polyline points="174.0,423.0,170.0,416.5,161.0,415.5,157.0,410.5,153.0,406.0,149.5,404.0,146.0,398.5,145.0,392.5,140.5,388.0,138.0,394.0,135.0,390.5,134.5,386.0,139.5,382.5,138.0,378.0,135.0,374.0,133.5,372.5,137.5,368.5,142.0,364.5,142.5,360.0,142.5,357.0,141.5,354.0,136.0,351.5,132.5,347.5,129.5,343.5,131.0,339.0,129.5,335.0,130.5,330.5,129.0,326.5,126.0,320.5" stroke="#7f78f2" stroke-width="2" fill="none" />
<polyline points="118.0,322.5,118.5,326.5,119.0,331.0,119.5,335.0,120.5,339.0,121.5,340.5" stroke="#4bd1aa" stroke-width="2" fill="none" />
<polyline points="116.5,338.0,117.0,342.0,116.5,345.0,118.0,349.0,120.5,353.5,121.0,358.0,122.0,361.5,124.0,365.0,125.5,368.5,128.0,372.5,130.5,376.5,131.0,381.5,133.0,382.5,138.0,385.0,139.0,389.5" stroke="#17c5f6" stroke-width="2" fill="none" />
<polyline points="142.5,392.0,140.5,396.0,138.0,400.0,136.5,404.0,132.5,408.0,129.5,412.0,129.5,415.0,132.0,419.0,134.5,422.0,138.0,426.0,139.0,430.5,139.5,435.0,137.5,440.5,138.0,444.0,137.5,448.0,137.0,451.5,135.5,455.5,133.0,458.5,132.5,462.5,137.0,466.5,138.5,467.0,142.0,467.5,146.0,472.5,150.0,476.0,153.0,478.5,157.0,481.5,161.5,483.0,165.5,486.5,168.5,490.0" stroke="#9d8d70" stroke-width="2" fill="none" />
<polyline points="134.5,511.0,131.5,507.0,130.5,503.0,129.0,499.0,128.5,495.0,126.5,491.0,124.0,487.0,123.0,482.5" stroke="#76fd92" stroke-width="2" fill="none" />
<polyline points="121.0,483.0,121.0,487.5,120.0,491.5,119.5,496.0,121.0,500.0,120.5,504.0,120.0,508.0,120.0,511.5" stroke="#99c013" stroke-width="2" fill="none" />
<polyline points="70.5,496.5,71.0,492.0,71.5,488.0,72.0,484.0,72.0,479.5,70.0,476.0" stroke="#bccfa3" stroke-width="2" fill="none" />
<polyline points="66.0,472.0,69.0,470.5,69.0,474.0,68.0,478.5,67.5,482.5,66.0,486.5,66.5,490.5,67.5,495.0" stroke="#a6ec7" stroke-width="2" fill="none" />
<polyline points="63.5,503.0,66.5,508.5,66.0,512.0" stroke="#63fc2a" stroke-width="2" fill="none" />
<polyline points="32.0,509.0,32.0,505.0,29.0,501.0,28.5,497.0,30.5,490.5" stroke="#693335" stroke-width="2" fill="none" />
<polyline points="15.0,493.5,15.5,497.0,16.0,501.0,16.5,504.5" stroke="#bc3c7d" stroke-width="2" fill="none" />
<polyline points="20.5,503.0,21.5,502.0,19.5,506.5,18.5,510.0" stroke="#ac33b" stroke-width="2" fill="none" />
<polyline points="72.0,464.5,72.0,461.0,71.5,457.0,72.0,455.0" stroke="#72d4a" stroke-width="2" fill="none" />
<polyline points="73.5,455.0,74.0,459.0,74.0,463.5,76.0,467.5,75.5,471.5" stroke="#174792" stroke-width="2" fill="none" />
<polyline points="67.5,454.0,68.0,449.5,68.0,447.5" stroke="#c3543" stroke-width="2" fill="none" />
<polyline points="64.5,451.0,64.5,454.5,65.5,459.0,67.0,463.0,69.5,468.0,70.0,471.5,70.0,475.5,69.0,480.0,69.0,484.0" stroke="#775860" stroke-width="2" fill="none" />
<polyline points="69.5,437.5,66.5,438.0,67.0,433.5,66.5,434.0" stroke="#75492" stroke-width="2" fill="none" />
<polyline points="65.5,423.5,64.5,423.0,64.0,419.0,64.0,415.0,64.5,411.5,66.0,407.5,70.0,403.5,73.0,400.0,75.0,396.0,73.5,396.0,73.5,398.5" stroke="#eb8511" stroke-width="2" fill="none" />
<polyline points="73.5,406.0,77.5,401.5,81.5,394.5" stroke="#a2ab2a" stroke-width="2" fill="none" />
<polyline points="80.0,387.0,78.5,395.5,74.5,401.5,70.5,404.0,66.5,408.0" stroke="#465057" stroke-width="2" fill="none" />
<polyline points="68.0,412.0,71.5,402.0,71.0,406.0,69.5,410.0,69.0,414.5,67.5,418.5" stroke="#5c478f" stroke-width="2" fill="none" />
<polyline points="70.0,413.5,73.0,417.0,73.0,421.0,71.5,423.0" stroke="#9de8b8" stroke-width="2" fill="none" />
<polyline points="33.5,426.0,33.5,430.0,34.0,434.0,34.0,438.0,33.5,441.5,34.0,446.5,34.5,450.0,35.0,454.0,36.0,458.0,35.5,462.0" stroke="#4ed591" stroke-width="2" fill="none" />
<polyline points="25.0,419.0,23.0,412.0" stroke="#8e6618" stroke-width="2" fill="none" />
<polyline points="22.5,411.5,25.0,415.5,26.0,419.5,26.5,423.5,27.0,427.5,26.5,431.5,27.0,435.5,27.5,439.5,29.0,443.5,28.5,447.5,28.5,451.5,30.0,455.5,30.0,459.0,29.5,463.0,30.0,466.5,30.5,470.5,29.0,474.5,31.0,479.0,31.0,483.0,31.5,487.5,30.5,491.5,32.0,495.5,32.5,499.0,31.5,502.0" stroke="#b85393" stroke-width="2" fill="none" />
<polyline points="10.5,428.0,10.5,424.0,6.0,422.0" stroke="#51cb60" stroke-width="2" fill="none" />
<polyline points="4.5,421.0,7.0,425.0,9.0,429.0,10.0,433.0,11.0,436.0,11.5,440.0,11.5,443.5,13.0,445.5,12.5,448.5,13.0,452.0,13.0,455.5,15.5,458.0,13.5,462.5,15.0,466.5,15.0,471.0,14.0,475.5,13.0,478.0" stroke="#7bba40" stroke-width="2" fill="none" />
<polyline points="74.0,412.5,73.5,408.0,75.0,404.0,78.0,399.5,79.5,395.0,80.5,389.5,81.0,385.5" stroke="#f56c62" stroke-width="2" fill="none" />
<polyline points="82.5,385.0,80.0,389.0,79.5,393.0,77.5,397.5,74.5,402.0,73.0,406.0,72.5,411.5,71.5,416.0,69.5,416.5,69.0,419.5,69.5,423.5,67.5,427.0,69.5,427.0,69.5,431.0,71.5,431.0,71.0,435.0,69.5,438.5,69.5,442.5,70.0,446.0,70.5,449.5,70.5,453.0,70.0,457.0,70.0,461.5,69.0,465.5,66.5,470.0,65.5,474.5,64.0,478.5,64.0,483.0,64.5,487.5,65.5,491.5,66.0,495.5,66.0,499.5,63.0,503.0,62.5,507.0,61.5,510.5,63.0,510.5,65.5,506.5" stroke="#b1fbb5" stroke-width="2" fill="none" />
<polyline points="127.5,405.5,123.0,403.5,119.5,398.0,118.0,393.5,119.0,390.0,118.5,386.0,118.5,382.0,118.0,378.0,117.5,374.0,117.5,369.5,118.5,365.5,120.0,361.5,119.5,357.0,120.0,350.0,116.0,343.5" stroke="#17e62d" stroke-width="2" fill="none" />
<polyline points="106.0,342.5,106.0,342.0,105.0,341.5,105.5,346.0,108.0,352.5,107.0,357.0,107.0,361.0,106.0,364.5,104.5,368.5,104.5,372.0,104.0,376.0,104.0,380.5" stroke="#332d70" stroke-width="2" fill="none" />
<polyline points="118.0,371.5,119.0,370.5,118.5,375.0,120.5,375.5,120.0,379.5,120.5,383.0,121.5,387.0,120.0,390.0,120.0,394.5,122.5,398.0,127.5,402.0" stroke="#3ee2fa" stroke-width="2" fill="none" />
<polyline points="124.0,392.5,128.0,396.0,132.5,397.5,136.0,393.0" stroke="#32429" stroke-width="2" fill="none" />
<polyline points="142.5,383.5,141.0,378.5,137.0,373.5" stroke="#3cea" stroke-width="2" fill="none" />
<polyline points="133.5,372.5,140.0,371.5,142.0,375.5,142.5,379.0,145.5,379.5,146.0,384.0" stroke="#535a55" stroke-width="2" fill="none" />
<polyline points="151.0,380.0,149.5,382.0,153.5,385.0" stroke="#fc5045" stroke-width="2" fill="none" />
<polyline points="162.5,366.0,166.5,361.5,170.5,358.5,174.5,354.0,178.5,349.0,182.5,343.5,186.0,336.5" stroke="#627b6" stroke-width="2" fill="none" />
<polyline points="191.0,331.0,187.0,331.5,182.0,333.0,178.0,339.0,174.0,344.5,169.5,349.5,165.5,355.5,161.0,361.0,159.5,369.5,162.5,366.5,166.0,361.0,171.0,357.0,174.5,353.0,178.0,349.0,180.5,345.0,183.5,341.0,186.0,337.0,185.5,333.5,188.5,333.5,191.0,329.5" stroke="#b3727" stroke-width="2" fill="none" />
<polyline points="191.0,346.0,191.0,347.0,191.0,351.0,192.0,354.5" stroke="#4d996c" stroke-width="2" fill="none" />
<polyline points="195.5,355.5,194.5,351.5,193.5,347.5" stroke="#d026c7" stroke-width="2" fill="none" />
<polyline points="164.5,344.5,164.5,339.5,168.5,337.5,173.0,333.5,179.5,329.5,182.0,326.0,183.0,322.5,186.0,318.5,192.0,316.5,193.5,313.0,195.0,309.0,197.5,305.5,199.5,301.5,202.0,297.5,204.0,293.5,206.0,289.5,208.5,285.0,211.0,281.0,213.5,277.0,216.0,273.5,218.0,269.5,220.0,265.5,223.0,261.5,225.0,257.0,228.0,253.5,231.0,249.0,234.0,245.0,236.0,238.5,239.0,234.5,242.5,230.0,245.5,225.5,249.0,221.5,253.0,217.0,253.5,213.0,254.5,210.0,255.0,206.5,256.5,203.5,252.5,212.0,249.0,210.0,245.0,210.5,241.0,209.5,238.0,206.5,239.0,202.5,240.5,198.0,241.5,195.0,243.5,191.0,249.0,187.0,249.0,184.5,256.5,180.5,250.5,175.5,252.0,174.5,247.0,173.5,246.0,172.5,242.0,174.0" stroke="#982126" stroke-width="2" fill="none" />
<polyline points="245.5,170.5,242.0,174.5,241.5,178.5,239.0,183.0,234.0,186.5,238.0,184.5,243.5,182.0,247.5,181.5,251.5,178.5" stroke="#40da70" stroke-width="2" fill="none" />
<polyline points="251.5,176.5,247.0,180.5,242.5,183.0,245.5,186.0,242.5,191.0,239.0,195.5,237.0,199.5,235.0,203.5,233.5,207.5,230.5,211.0,232.5,210.5,232.0,209.5,235.5,208.5" stroke="#61b785" stroke-width="2" fill="none" />
<polyline points="242.0,212.5,246.5,213.5,250.5,213.0" stroke="#b7eaaf" stroke-width="2" fill="none" />
<polyline points="243.5,200.5,247.5,195.5,251.0,192.5,255.5,190.0,250.5,189.5,247.5,193.5,244.5,195.0,249.0,190.5,252.0,189.0,256.0,184.5,257.0,188.0,261.0,185.0,265.0,183.0,269.0,181.5" stroke="#21724" stroke-width="2" fill="none" />
<polyline points="267.5,180.5,263.5,184.5,258.0,188.5,254.5,191.0,253.5,195.0,249.5,199.0,247.0,203.0,246.0,203.5,250.0,204.0,250.0,200.5,254.5,196.5,258.0,192.5,262.5,189.5,266.5,187.0,271.0,189.0" stroke="#1b4363" stroke-width="2" fill="none" />
<polyline points="268.0,189.5,263.5,191.5,259.0,194.5,256.5,201.5,260.0,197.5,263.5,193.5,267.0,189.5" stroke="#60959a" stroke-width="2" fill="none" />
<polyline points="266.0,189.0,261.5,193.0,258.5,197.5,253.5,201.0,252.5,205.0,252.0,209.0,253.5,214.5,254.0,217.0" stroke="#bb7d4" stroke-width="2" fill="none" />
<polyline points="238.5,205.5,239.0,201.5" stroke="#8e70c" stroke-width="2" fill="none" />
<polyline points="233.0,201.0,236.0,199.5,234.5,203.5,234.5,207.5" stroke="#751fd4" stroke-width="2" fill="none" />
<polyline points="237.5,194.5,241.5,190.0" stroke="#eacbf4" stroke-width="2" fill="none" />
<polyline points="234.5,181.0,230.5,185.0,230.5,187.5,223.5,192.5,217.0,196.5,210.0,203.0,205.5,207.0,202.0,212.5,202.5,216.5,204.0,216.5,204.5,222.5,207.5,226.5" stroke="#27cab5" stroke-width="2" fill="none" />
<polyline points="198.0,234.5,194.0,241.0,190.0,244.5,186.5,246.5,191.5,243.0,196.5,239.5,198.5,236.0" stroke="#a2d482" stroke-width="2" fill="none" />
<polyline points="192.0,239.5,190.0,236.0,188.5,232.0,189.0,227.5,190.5,223.5,192.5,219.5,191.5,220.0,187.0,229.0" stroke="#6d470" stroke-width="2" fill="none" />
<polyline points="187.0,233.5,191.0,240.0" stroke="#da5e6b" stroke-width="2" fill="none" />
<polyline points="186.0,245.0,190.0,244.0,194.0,240.0,197.5,235.0,195.5,238.5,191.0,242.5,186.0,245.5,185.5,251.5,183.5,255.5,184.0,259.5,184.0,263.0,184.5,267.0,185.5,271.0,187.0,272.5" stroke="#14a14" stroke-width="2" fill="none" />
<polyline points="186.5,270.5,185.5,266.0,185.5,262.0,185.5,258.0,184.0,255.0" stroke="#812847" stroke-width="2" fill="none" />
<polyline points="183.0,253.5,187.0,251.0,191.5,252.0,192.5,256.0,193.5,259.5,197.0,263.5,204.0,266.5" stroke="#23e842" stroke-width="2" fill="none" />
<polyline points="204.5,264.5,200.5,262.0,197.0,258.0" stroke="#beb16d" stroke-width="2" fill="none" />
<polyline points="189.0,254.0,194.0,253.0,196.0,257.0,197.5,260.5,203.5,264.5" stroke="#35fcb5" stroke-width="2" fill="none" />
<polyline points="204.0,266.5,199.5,266.0,195.5,261.0,195.0,254.0,191.0,250.5" stroke="#15342d" stroke-width="2" fill="none" />
<polyline points="187.5,237.0,186.5,233.5,186.5,229.5,187.5,225.5,190.0,221.0,190.5,218.0,186.5,224.5" stroke="#3695fe" stroke-width="2" fill="none" />
<polyline points="181.5,219.0,180.5,222.5,181.5,218.5,180.5,214.5,181.0,213.0" stroke="#de99cb" stroke-width="2" fill="none" />
<polyline points="181.5,215.0,182.5,218.5" stroke="#4c4e" stroke-width="2" fill="none" />
<polyline points="179.5,226.0,176.0,226.5,171.5,227.5,171.0,227.5,168.0,228.0,168.5,224.0" stroke="#18f09e" stroke-width="2" fill="none" />
<polyline points="166.5,227.5,162.5,228.0" stroke="#48ed7c" stroke-width="2" fill="none" />
<polyline points="165.5,230.5,162.5,234.5,159.5,238.5,160.0,238.0,164.0,232.5,165.0,228.0,169.5,228.0" stroke="#5cd1b7" stroke-width="2" fill="none" />
<polyline points="175.5,228.5,170.5,232.0,166.5,236.0,163.0,240.0,161.0,243.5,157.0,247.0,152.0,250.5,149.5,254.0,152.5,255.5,151.5,258.5,148.0,262.5,144.5,266.5,140.0,270.5,137.5,274.5,131.0,280.0,134.0,287.0,131.0,291.0,128.0,295.0,127.0,300.5,128.5,305.0,127.5,309.0,125.0,312.0,125.0,316.0,125.0,320.0,125.0,324.0,125.5,328.0,125.0,332.0,125.0,337.5,127.0,339.0,128.0,343.0,131.0,346.5,133.5,351.0,138.0,354.5,138.0,358.5,139.0,363.5,142.5,367.0,144.0,367.0,145.5,371.0,147.0,376.0,148.0,380.0,145.5,384.0,148.0,388.0,147.0,392.0,148.5,396.0,150.0,396.0,150.5,401.0,150.5,404.0,153.5,404.5,157.0,408.5,158.5,412.5,160.0,416.5,158.5,420.5,153.5,423.0" stroke="#bea38f" stroke-width="2" fill="none" />
<polyline points="149.0,429.0,150.0,425.5,147.0,421.5,144.0,417.0,141.0,413.0,137.5,409.0" stroke="#27bd5b" stroke-width="2" fill="none" />
<polyline points="134.5,391.0,127.0,389.0,123.0,390.5" stroke="#a65067" stroke-width="2" fill="none" />
<polyline points="119.0,388.5,123.5,394.5,125.0,396.5,126.5,401.0" stroke="#126f4c" stroke-width="2" fill="none" />
<polyline points="128.0,396.0,123.5,391.5,127.0,387.5,125.0,386.0,124.5,382.0" stroke="#15fb8" stroke-width="2" fill="none" />
<polyline points="130.0,376.0,126.0,369.0,122.5,361.0" stroke="#5c5731" stroke-width="2" fill="none" />
<polyline points="122.5,362.5,122.0,366.5,123.0,370.0,125.5,374.0,126.5,378.5,130.5,382.5,131.5,386.0,133.0,390.0,133.0,394.0,134.5,396.5" stroke="#14cf45" stroke-width="2" fill="none" />
<polyline points="146.0,368.5,142.0,366.5" stroke="#e9a674" stroke-width="2" fill="none" />
<polyline points="143.5,362.5,147.0,366.5" stroke="#865ecd" stroke-width="2" fill="none" />
<polyline points="148.5,362.5,151.0,366.5,151.0,367.5,151.0,372.0,151.0,376.0,151.0,380.0,150.5,384.0,149.5,385.0,153.5,388.5,157.5,390.5,161.0,395.0,167.0,397.5,171.0,401.5,175.0,409.5" stroke="#30a82" stroke-width="2" fill="none" />
<polyline points="169.0,403.0,173.0,407.5,174.5,412.0,172.0,417.0,170.0,421.0,168.5,425.0,165.0,425.0,163.5,429.5,164.0,434.5,160.0,437.0,164.0,431.5,167.5,427.0,170.0,425.0,172.5,429.0" stroke="#cb7e47" stroke-width="2" fill="none" />
<polyline points="191.5,426.0,191.0,430.5,191.5,434.5" stroke="#80765b" stroke-width="2" fill="none" />
<polyline points="198.0,432.5,196.5,428.5" stroke="#742d12" stroke-width="2" fill="none" />
<polyline points="198.5,424.5,198.5,428.5,196.5,431.0,195.0,435.0" stroke="#ab29b8" stroke-width="2" fill="none" />
<polyline points="193.0,403.0,194.0,399.0,194.0,395.0,193.5,391.5" stroke="#ebccbc" stroke-width="2" fill="none" />
<polyline points="191.5,392.5,192.0,396.5,191.5,400.0,190.5,404.0,190.5,408.0,190.5,412.0,190.0,416.0,190.0,420.0,189.5,424.5,189.0,429.0,189.0,433.0,188.0,437.0,188.5,440.0,186.5,441.0,183.5,444.5,186.5,445.0,190.5,445.5,195.0,446.0,199.0,444.5" stroke="#db2d79" stroke-width="2" fill="none" />
<polyline points="246.0,390.0,243.5,393.5,247.5,389.5,251.0,389.0,255.0,389.0,259.0,389.0,263.0,389.5,267.0,389.5" stroke="#b9c26f" stroke-width="2" fill="none" />
<polyline points="264.5,385.5,260.5,385.0,256.5,384.5,252.5,383.0,252.0,380.0" stroke="#3b94f" stroke-width="2" fill="none" />
<polyline points="268.5,354.0,272.5,355.5,276.5,356.5" stroke="#17c331" stroke-width="2" fill="none" />
<polyline points="283.5,352.0,280.0,352.5,276.0,352.0,272.0,351.5,268.5,352.0" stroke="#e63da" stroke-width="2" fill="none" />
<polyline points="221.5,369.5,221.5,365.5,221.0,361.5,220.5,357.0,220.0,353.5,220.0,349.5,224.0,344.5,223.0,340.5,222.5,334.5,222.0,330.5,221.0,326.0,221.0,322.0,220.0,318.5,220.0,314.5,219.5,310.5,219.5,306.5" stroke="#271b8f" stroke-width="2" fill="none" />
<polyline points="219.5,305.5,218.0,309.0,217.0,313.5,217.0,317.5,217.5,321.5,217.5,325.5,217.5,330.0,217.5,334.0,217.5,338.0,218.0,342.0,218.5,345.5,218.5,349.5,218.5,354.0,218.5,358.0" stroke="#25b6c8" stroke-width="2" fill="none" />
<polyline points="166.0,358.0,162.5,362.0,165.5,358.5" stroke="#27b946" stroke-width="2" fill="none" />
<polyline points="165.5,365.0,168.0,361.5,164.0,367.0,160.0,367.0,160.5,363.0,162.0,359.0,165.0,355.0,167.5,351.0,170.0,347.0,173.0,343.0,176.0,339.0,178.5,335.0,181.5,331.0,178.0,331.5,174.0,333.0,170.0,335.5,164.5,339.5,165.5,336.0,167.0,332.0,165.0,331.0" stroke="#a58a6a" stroke-width="2" fill="none" />
<polyline points="163.5,330.5,159.5,335.0,159.5,332.5,162.0,329.0,164.0,325.0,166.0,321.5" stroke="#c9d234" stroke-width="2" fill="none" />
<polyline points="163.5,317.5,167.0,319.0,171.5,318.0" stroke="#dceba" stroke-width="2" fill="none" />
<polyline points="174.0,317.0,170.0,318.0,169.0,323.0,167.5,321.5,164.0,327.0,160.0,332.5,154.5,337.5,151.0,340.0,147.0,337.5,144.5,344.5,142.5,341.0,141.0,337.0,139.5,333.0,138.5,329.0,138.0,324.5,136.5,320.5,135.5,316.5,134.5,312.0,133.0,308.0,131.0,304.0,130.0,300.0,133.0,299.0,134.5,295.5,138.5,291.5,140.0,288.0,141.5,284.0,138.5,282.5,135.5,282.5,131.5,282.0,138.5,283.0,141.5,279.0,146.5,275.0,143.0,272.5,146.5,269.0,151.5,264.5,155.5,257.5,158.5,253.0,161.0,249.0,163.0,245.0,159.5,244.0,155.5,248.5,151.5,249.0" stroke="#9e1c2b" stroke-width="2" fill="none" />
<polyline points="150.5,249.0,146.5,250.0" stroke="#f87179" stroke-width="2" fill="none" />
<polyline points="145.0,251.5,149.0,249.0,148.0,248.5,145.0,252.0,147.0,253.5,148.5,257.0" stroke="#ad309a" stroke-width="2" fill="none" />
<polyline points="149.0,266.5,145.0,270.0,140.5,272.5" stroke="#893079" stroke-width="2" fill="none" />
<polyline points="138.5,275.5,142.5,274.5,148.5,270.5,152.5,266.0" stroke="#6ab410" stroke-width="2" fill="none" />
<polyline points="155.0,268.5,157.5,272.5" stroke="#3b874d" stroke-width="2" fill="none" />
<polyline points="154.5,278.5,158.0,280.0,159.0,281.5" stroke="#875127" stroke-width="2" fill="none" />
<polyline points="156.5,281.0,160.5,284.5" stroke="#9f2799" stroke-width="2" fill="none" />
<polyline points="160.5,285.5,162.0,280.0,160.5,276.0,161.5,272.0,161.5,267.5,163.0,263.5,164.5,259.0,163.0,257.5" stroke="#b75147" stroke-width="2" fill="none" />
<polyline points="167.0,257.0,171.0,253.5,174.5,247.0" stroke="#967ea" stroke-width="2" fill="none" />
<polyline points="173.5,252.0,174.5,256.0,174.5,260.5,174.5,264.5" stroke="#f3efac" stroke-width="2" fill="none" />
<polyline points="180.5,263.5,178.0,259.5" stroke="#e45317" stroke-width="2" fill="none" />
<polyline points="176.0,261.5,175.5,257.5" stroke="#e14694" stroke-width="2" fill="none" />
<polyline points="177.5,255.5,181.5,262.5" stroke="#e4e6c" stroke-width="2" fill="none" />
<polyline points="181.5,262.0,177.5,255.0" stroke="#8cc8e" stroke-width="2" fill="none" />
<polyline points="171.5,257.5,175.0,252.0,173.0,256.0,171.0,260.0,170.5,263.5,169.5,266.5,169.0,270.5,169.0,274.5,166.5,278.5,168.0,279.5" stroke="#3778a9" stroke-width="2" fill="none" />
<polyline points="166.5,276.5,166.5,276.0,166.0,272.0,167.0,267.5,164.0,263.0,165.0,259.5,164.0,265.0" stroke="#e0c63" stroke-width="2" fill="none" />
<polyline points="162.0,278.0,157.5,271.0,153.0,273.0,149.0,272.5" stroke="#7788ab" stroke-width="2" fill="none" />
<polyline points="150.0,271.0,154.0,267.0,158.0,262.0,162.0,256.5,158.0,258.5,155.5,263.0,152.5,267.0,148.0,270.5,148.0,274.5,147.0,279.0,148.0,283.0,149.0,287.0,152.5,290.5,157.0,292.0,161.0,298.0,161.5,301.5,157.5,305.0,156.5,310.5,158.5,314.5,157.0,317.0,157.5,320.5,156.5,321.5,160.5,320.0,162.5,318.5,164.0,314.0,168.0,311.0,172.0,306.5,174.5,300.5,178.5,295.0" stroke="#d31b86" stroke-width="2" fill="none" />
<polyline points="178.0,300.0,182.0,305.5" stroke="#42f6b7" stroke-width="2" fill="none" />
<polyline points="180.0,306.5,176.5,303.0" stroke="#65f71b" stroke-width="2" fill="none" />
<polyline points="176.5,300.5,177.0,304.5,179.5,306.0" stroke="#d1f66e" stroke-width="2" fill="none" />
<polyline points="177.0,300.0,179.5,300.5,182.0,305.0,184.5,309.0,181.5,310.5,183.0,312.5" stroke="#a11094" stroke-width="2" fill="none" />
<polyline points="174.0,314.5,171.0,313.5,167.5,316.5,170.5,314.5,172.5,310.5" stroke="#988816" stroke-width="2" fill="none" />
<polyline points="163.5,301.0,162.5,297.5,168.5,292.5,172.0,288.0,171.0,284.0,168.5,288.5,164.5,291.0,162.5,290.0,165.0,286.0,169.5,281.5,174.0,277.5,175.0,280.0,173.5,279.0,169.5,282.5,166.5,282.5,163.0,284.0,160.5,286.0,162.5,283.5,161.5,279.0,162.5,275.5,161.0,274.5,161.5,270.0,162.0,266.5,165.5,263.0,166.5,258.5,167.0,255.0,169.5,251.0,172.5,247.5,173.5,243.5,173.5,240.0,173.0,236.0,177.5,232.5,173.5,235.5" stroke="#ede78" stroke-width="2" fill="none" />
<polyline points="171.0,238.5,169.5,242.5,168.5,246.5,167.0,250.5,166.0,249.0" stroke="#e6573c" stroke-width="2" fill="none" />
<polyline points="163.0,239.5,167.0,235.5,171.0,232.5,175.0,229.0,179.0,229.5" stroke="#5c627" stroke-width="2" fill="none" />
<polyline points="178.0,234.5,177.0,238.5,177.0,242.5,178.0,244.5,177.0,248.5,176.5,252.5,177.5,256.5,179.0,261.0,181.5,265.0" stroke="#6a8c56" stroke-width="2" fill="none" />
<polyline points="173.0,278.5,170.5,282.5,168.0,287.0,167.0,289.0" stroke="#2e539" stroke-width="2" fill="none" />
<polyline points="163.0,291.5,159.0,289.5,155.0,284.0" stroke="#eccad3" stroke-width="2" fill="none" />
<polyline points="153.5,281.0,154.5,285.0,158.0,289.0,164.0,292.5" stroke="#d25a5d" stroke-width="2" fill="none" />
<polyline points="160.5,293.0,157.5,291.0,153.5,289.5" stroke="#7a1699" stroke-width="2" fill="none" />
<polyline points="150.5,291.0,154.5,293.5,158.5,295.5,162.5,295.5,166.5,293.0,170.5,289.5,171.0,287.5" stroke="#6720fb" stroke-width="2" fill="none" />
<polyline points="171.0,292.0,170.0,296.0,169.5,300.5,170.0,304.5,167.5,308.5,167.5,312.5,166.5,314.5,164.0,318.0,170.0,321.5,168.5,324.5,166.0,328.5,162.5,332.5,159.5,337.0,158.0,343.0,153.0,347.0,150.5,351.0,151.5,353.0,149.0,355.0,146.5,358.5,145.0,353.5,147.5,351.5,152.0,353.5,156.5,353.5,158.5,345.5,162.5,347.5,166.5,345.0,170.0,343.0" stroke="#71fc40" stroke-width="2" fill="none" />
<polyline points="159.0,345.0,158.0,349.0,156.0,353.5,158.5,357.0,157.5,361.0,157.0,365.0,156.0,369.0,156.0,372.5,157.5,377.0,156.5,381.0,154.0,383.5,154.5,389.5,154.0,393.0,153.0,397.0,157.5,401.0,163.0,405.0,166.5,409.5,169.5,410.5" stroke="#f27dc0" stroke-width="2" fill="none" />
<polyline points="136.0,362.0,132.0,358.0" stroke="#3c4ab2" stroke-width="2" fill="none" />
<polyline points="135.5,356.0,131.5,352.5" stroke="#eb495" stroke-width="2" fill="none" />
<polyline points="131.5,351.5,131.5,357.5,135.0,361.5,136.0,367.5" stroke="#849c4b" stroke-width="2" fill="none" />
<polyline points="132.5,363.0,128.5,360.0,124.5,358.5,120.0,356.0" stroke="#a742f" stroke-width="2" fill="none" />
<polyline points="122.0,355.0,125.0,359.0,125.5,363.0,131.0,365.0,131.5,369.0,136.0,369.0,140.5,369.0,147.5,372.5" stroke="#44c4b7" stroke-width="2" fill="none" />
<polyline points="142.0,348.5,137.5,346.5,137.0,342.5,135.0,338.5,134.0,334.0,133.5,330.0,132.5,326.0,131.0,321.5,130.5,317.5,130.5,313.5,130.0,309.5,127.0,301.5,130.0,299.0" stroke="#a557b3" stroke-width="2" fill="none" />
<polyline points="133.5,297.0,133.5,301.0" stroke="#dae5e8" stroke-width="2" fill="none" />
<polyline points="125.5,301.0,129.5,298.5,133.5,296.0,137.5,292.0" stroke="#dc7e1a" stroke-width="2" fill="none" />
<polyline points="136.5,287.0,132.5,291.0,129.0,293.0,125.0,296.0" stroke="#6a847e" stroke-width="2" fill="none" />
<polyline points="118.5,296.0,114.5,300.0,110.5,303.0,107.0,307.0,103.5,312.5,100.0,320.0" stroke="#e2dd7b" stroke-width="2" fill="none" />
<polyline points="104.5,323.0,108.5,319.0,112.5,316.0,116.0,309.0,116.5,310.0,114.0,314.5,110.5,318.5,106.5,322.5,105.0,319.5,109.5,315.5,110.5,313.5,109.0,316.5,104.5,320.5,104.0,324.0,107.5,318.0,111.5,313.5,115.5,308.5" stroke="#5e4be6" stroke-width="2" fill="none" />
<polyline points="119.0,309.5,117.0,313.5,115.5,317.5,114.0,321.0,112.0,325.0,109.5,329.5,106.5,333.5,101.5,337.0,97.5,341.0" stroke="#8f5cbe" stroke-width="2" fill="none" />
<polyline points="101.0,341.0,105.5,337.5,109.5,332.5,113.5,327.0,117.0,319.5" stroke="#2e1547" stroke-width="2" fill="none" />
<polyline points="118.0,324.0,117.0,328.0,117.5,328.0" stroke="#1b4e4" stroke-width="2" fill="none" />
<polyline points="128.5,332.5,129.0,328.5,130.5,324.5,128.5,320.0,127.0,316.0,128.5,313.5,128.0,309.5" stroke="#d2bce" stroke-width="2" fill="none" />
<polyline points="120.5,310.5,118.5,314.5,117.0,318.5,115.0,322.0,113.0,325.5,111.5,329.0,107.5,333.5,104.5,337.5,101.0,341.5,100.0,346.0,100.5,350.0,97.0,351.5,93.0,355.5,94.5,359.0,94.0,362.5,93.0,366.5,92.0,371.0,93.0,378.0,92.5,382.5,94.0,387.0" stroke="#d48ef6" stroke-width="2" fill="none" />
<polyline points="79.5,382.5,75.5,389.5,71.5,393.5,67.0,396.5,62.5,399.5,58.5,401.5,61.5,397.0,65.5,393.0,70.5,389.0,75.0,385.0,77.5,381.0,77.0,381.0,73.0,386.5,69.0,390.5,65.0,395.0,61.0,398.0,57.5,402.5,64.0,398.5,69.0,394.5,73.0,390.5,76.0,386.5,79.0,382.5,82.5,378.5,82.5,374.5,84.0,369.0,87.5,365.0,89.0,361.0,90.0,357.0,88.0,356.0,92.0,355.0,95.0,351.0,97.0,347.0,99.5,346.5,95.0,341.5,92.0,347.5,93.0,343.5,94.0,340.5,94.5,337.0,93.5,333.0,94.0,329.5,93.5,325.0,94.5,320.5,96.0,316.0,96.5,311.5,101.0,307.5,104.0,303.5,107.5,301.5,105.0,302.0,100.5,308.0,96.5,311.5" stroke="#ad10b1" stroke-width="2" fill="none" />
<polyline points="87.5,308.5,82.0,312.0,86.0,309.5,90.5,308.5,96.0,306.5,100.0,304.0,104.5,300.5" stroke="#b4ad4" stroke-width="2" fill="none" />
<polyline points="105.5,305.5,101.5,310.5,97.5,319.0,99.0,317.0,101.5,313.0,104.0,309.0,108.0,305.0,110.0,301.0" stroke="#26acb7" stroke-width="2" fill="none" />
<polyline points="107.5,295.0,103.0,296.5,98.5,297.5,93.0,295.0,89.0,296.5,85.0,297.0,81.0,299.5,87.0,296.5" stroke="#b09e25" stroke-width="2" fill="none" />
<polyline points="86.0,294.0,80.0,298.0,83.0,295.0,87.0,293.0,91.0,292.0,95.5,292.0,99.0,289.5,103.5,289.5,107.5,288.0,111.5,285.5" stroke="#1cd158" stroke-width="2" fill="none" />
<polyline points="116.5,284.5,116.0,286.5,109.0,289.0,113.5,285.5,111.5,279.5,114.0,277.0,112.5,273.0,115.5,271.0,111.5,270.5" stroke="#d84f8a" stroke-width="2" fill="none" />
<polyline points="113.5,273.0,114.0,274.0,115.0,278.5,116.5,284.0,112.5,288.0,108.5,292.0,107.5,296.0,104.5,300.0,100.5,304.0,93.0,308.0,93.5,312.0,93.0,316.0,91.5,319.5,90.0,323.5,89.5,328.0,89.0,332.0,89.0,336.0,85.0,340.5,82.0,345.0,79.0,349.0,76.0,353.5,73.0,357.0,69.0,361.0,64.5,362.0,68.5,357.5,72.5,352.5,76.0,347.5,79.5,342.5,83.0,336.5,87.0,330.5,91.0,328.0" stroke="#c314" stroke-width="2" fill="none" />
<polyline points="87.5,322.5,92.5,323.0,90.0,327.0,93.0,326.0,90.0,330.5,85.0,335.5,81.5,340.0,78.5,344.0,76.0,348.5,73.5,352.5,70.0,356.5,65.5,360.5,63.0,361.5,63.0,365.0,66.0,362.0,70.0,358.0,74.0,353.5,78.0,347.5,82.0,342.5,86.5,338.0,90.0,339.0,89.5,343.0,89.5,347.0,88.0,350.5,84.5,354.5,82.0,358.5,79.5,362.5,77.5,367.0,77.5,371.0,83.5,374.5,84.0,370.0,88.0,362.0,92.0,354.5,96.0,348.0" stroke="#9a607e" stroke-width="2" fill="none" />
<polyline points="96.0,349.0,91.5,354.5" stroke="#90fbdb" stroke-width="2" fill="none" />
<polyline points="95.0,356.5,95.0,360.5,94.5,364.5,93.5,368.5,92.5,372.5,92.5,376.5,89.5,380.0,89.0,384.0,88.0,387.0,89.0,391.0,89.0,395.0,91.0,399.5,94.0,403.5,91.5,407.0,92.5,408.5,96.5,410.5,100.5,411.0,104.0,411.0,108.5,407.5,115.0,401.0" stroke="#822c42" stroke-width="2" fill="none" />
<polyline points="128.5,377.0,125.0,370.5,121.0,365.0" stroke="#b0bcad" stroke-width="2" fill="none" />
<polyline points="121.5,363.5,123.5,367.5,125.5,371.5,127.5,376.0,130.0,381.5" stroke="#977bac" stroke-width="2" fill="none" />
<polyline points="128.5,381.0,124.5,378.5,124.0,373.5,120.0,368.0" stroke="#32bb" stroke-width="2" fill="none" />
<polyline points="113.0,368.5,110.0,364.0,110.0,360.0" stroke="#c7c36c" stroke-width="2" fill="none" />
<polyline points="113.5,355.0,114.0,359.0,115.5,363.0" stroke="#fab2b" stroke-width="2" fill="none" />
<polyline points="112.0,368.5,110.5,362.0,111.0,362.5,112.5,361.0,111.5,357.0,111.5,353.0" stroke="#266a55" stroke-width="2" fill="none" />
<polyline points="106.5,353.5,106.5,357.5,105.5,361.5,104.5,365.5,103.5,369.0,103.0,373.0,102.5,377.0,102.5,381.5" stroke="#8985ec" stroke-width="2" fill="none" />
<polyline points="77.0,367.0,80.5,361.0,84.5,354.5" stroke="#938b33" stroke-width="2" fill="none" />
<polyline points="76.0,366.0,80.0,358.5,83.5,351.5,86.0,349.0,81.5,353.0,79.5,357.0,78.0,361.5,75.0,365.5,75.0,370.0,74.5,374.0" stroke="#56bd99" stroke-width="2" fill="none" />
<polyline points="22.5,366.0,21.5,370.5,20.5,374.5,22.0,368.0" stroke="#c75db8" stroke-width="2" fill="none" />
<polyline points="80.0,317.5,76.0,319.5,72.0,321.5,69.0,323.0,76.0,319.0,79.0,314.5,75.0,310.5,75.0,306.0,75.0,306.0" stroke="#4c694" stroke-width="2" fill="none" />
<polyline points="77.5,305.5,78.0,309.5,80.0,311.5,84.5,309.0,88.5,307.0,93.0,304.5" stroke="#36dcd" stroke-width="2" fill="none" />
<polyline points="99.0,301.5,95.5,302.5,91.5,305.0,99.0,302.5,101.0,298.5,106.5,294.5" stroke="#bd3178" stroke-width="2" fill="none" />
<polyline points="104.5,293.0,99.5,295.5,103.0,293.0,107.0,292.0,110.5,290.5" stroke="#1154bb" stroke-width="2" fill="none" />
<polyline points="105.0,287.0,102.5,289.5" stroke="#a2a8c4" stroke-width="2" fill="none" />
<polyline points="91.5,283.5,95.5,287.5,99.5,286.5,103.5,284.5,108.0,283.0,112.0,280.5" stroke="#54afa0" stroke-width="2" fill="none" />
<polyline points="114.0,268.0,117.0,263.0,115.5,267.0,118.0,271.0,126.0,276.0,130.0,279.0,134.0,277.5,138.5,273.0,142.5,268.0,146.5,264.5,150.5,260.5,154.0,262.5,158.0,259.0,164.5,252.0" stroke="#3919d2" stroke-width="2" fill="none" />
<polyline points="155.5,250.5,155.0,254.5,151.0,252.5,155.0,254.0" stroke="#218930" stroke-width="2" fill="none" />
<polyline points="145.0,243.5,141.0,242.0,136.5,244.0" stroke="#80b247" stroke-width="2" fill="none" />
<polyline points="140.5,239.0,136.5,232.0,132.5,222.0" stroke="#da1247" stroke-width="2" fill="none" />
<polyline points="141.0,225.5,145.0,217.0" stroke="#76b0b9" stroke-width="2" fill="none" />
<polyline points="147.0,213.0,148.0,211.5,149.5,207.5" stroke="#57ba" stroke-width="2" fill="none" />
<polyline points="147.5,195.5,143.5,191.5" stroke="#bded1e" stroke-width="2" fill="none" />
<polyline points="142.0,194.0,146.0,199.0" stroke="#e249" stroke-width="2" fill="none" />
<polyline points="148.0,198.5,146.0,194.5,144.5,191.0,142.5,189.0,141.5,184.5,145.5,180.0,146.0,177.0,146.0,177.0,142.0,180.5" stroke="#cf60ac" stroke-width="2" fill="none" />
<polyline points="141.5,185.5,146.5,186.5,148.0,190.0,150.5,191.0" stroke="#dcbd83" stroke-width="2" fill="none" />
<polyline points="152.5,189.0,148.0,184.0" stroke="#614d1a" stroke-width="2" fill="none" />
<polyline points="146.0,186.5,150.0,191.5,153.5,192.5,158.5,185.5,162.5,180.5,166.5,176.0,170.5,172.0,174.5,168.0,178.5,164.0,183.0,160.5,187.0,157.5,191.0,154.0,194.5,150.0,198.5,147.0,202.5,143.5" stroke="#8f73ba" stroke-width="2" fill="none" />
<polyline points="205.5,146.0,209.5,150.0,213.5,153.5,218.0,157.5,222.5,159.0" stroke="#fe7d27" stroke-width="2" fill="none" />
<polyline points="217.5,153.5,221.5,157.0,225.0,158.5,229.0,155.0,224.0,158.5,227.5,164.5" stroke="#6bf0a8" stroke-width="2" fill="none" />
<polyline points="222.5,173.5,217.0,178.0,213.5,182.0,209.5,186.0,206.5,190.5,206.0,195.0,206.5,197.0,210.5,195.0,214.5,192.5,219.0,193.0,223.0,190.0,227.0,189.5,231.5,188.0,232.5,183.5,236.0,182.5" stroke="#7e9636" stroke-width="2" fill="none" />
<polyline points="230.0,175.5,225.5,175.5,222.0,176.0,218.0,179.5,214.5,182.5,210.5,186.5,206.5,191.5" stroke="#f6a9c5" stroke-width="2" fill="none" />
<polyline points="204.5,190.0,208.5,185.5,212.0,180.5,216.0,176.0,220.5,173.5,224.5,172.5,228.5,173.5,232.0,174.5,235.5,175.5,239.0,174.0,237.0,178.5,235.5,179.0" stroke="#cd9398" stroke-width="2" fill="none" />
<polyline points="226.5,185.5,222.5,185.5,219.5,189.0,219.0,193.0,211.0,197.5,215.0,195.5" stroke="#a6e0a4" stroke-width="2" fill="none" />
<polyline points="219.0,190.0,222.5,185.0,225.5,185.5" stroke="#b4aed6" stroke-width="2" fill="none" />
<polyline points="224.5,181.5,220.0,185.5,217.0,188.5,214.5,192.0,210.0,196.0,207.0,200.0" stroke="#5ff7d1" stroke-width="2" fill="none" />
<polyline points="203.5,209.5,207.5,205.5,211.5,203.0,214.5,199.5,218.5,196.5,222.5,194.0,226.5,192.0" stroke="#792ef2" stroke-width="2" fill="none" />
<polyline points="226.5,192.5,219.5,196.5,213.5,203.0,208.5,207.5,206.5,211.5,206.5,211.5,210.0,205.5,214.0,203.0,217.5,198.0,222.0,195.5,226.0,193.0,230.0,192.0" stroke="#5ac372" stroke-width="2" fill="none" />
<polyline points="221.0,182.5,216.5,187.0" stroke="#a6f1" stroke-width="2" fill="none" />
<polyline points="221.5,174.5,216.5,178.5,213.0,182.0,209.5,185.5,206.0,189.5,205.0,194.0,205.0,198.0" stroke="#dc4868" stroke-width="2" fill="none" />
<polyline points="199.5,203.0,195.5,203.0" stroke="#c92de1" stroke-width="2" fill="none" />
<polyline points="200.5,202.0,196.0,200.0,192.0,199.0" stroke="#c6822d" stroke-width="2" fill="none" />
<polyline points="189.0,199.5,186.5,200.0,182.5,204.5,180.5,208.0,180.5,207.0,184.5,201.5,188.5,198.5,191.5,197.5,195.5,198.0,199.0,199.5,203.0,201.0" stroke="#caec22" stroke-width="2" fill="none" />
<polyline points="201.0,203.5,193.0,204.5,189.0,205.5,185.0,206.5" stroke="#c8fb12" stroke-width="2" fill="none" />
<polyline points="182.0,208.0,186.0,210.0,190.0,212.0,189.5,216.0,186.5,217.5,184.5,219.5,187.0,219.0,190.5,212.0,192.5,209.5,196.5,205.0,201.0,206.5" stroke="#9db657" stroke-width="2" fill="none" />
<polyline points="218.5,216.5,218.0,221.0,219.0,225.0,217.0,227.0,220.0,231.5,224.0,231.0,229.5,234.5" stroke="#3f5d5f" stroke-width="2" fill="none" />
<polyline points="226.5,271.0,222.5,272.0,219.0,276.0,222.5,271.5" stroke="#10e5b2" stroke-width="2" fill="none" />
<polyline points="177.5,292.5,175.0,294.5,171.0,295.5" stroke="#e15797" stroke-width="2" fill="none" />
<polyline points="172.0,296.5,173.5,300.5,175.5,307.0,177.5,311.0,175.0,317.5" stroke="#b26ef" stroke-width="2" fill="none" />
<polyline points="161.0,314.5,160.0,311.0,159.0,310.0" stroke="#90cc73" stroke-width="2" fill="none" />
<polyline points="157.5,312.0,161.5,314.0" stroke="#5996f8" stroke-width="2" fill="none" />
<polyline points="155.5,312.5,156.0,313.5,156.0,317.5" stroke="#85359c" stroke-width="2" fill="none" />
<polyline points="158.5,297.5,154.5,294.5" stroke="#5b7fbb" stroke-width="2" fill="none" />
<polyline points="153.5,295.5,158.0,299.5" stroke="#afb286" stroke-width="2" fill="none" />
<polyline points="156.5,298.0,152.5,294.0" stroke="#8144ae" stroke-width="2" fill="none" />
<polyline points="151.0,275.5,153.0,277.5,155.5,279.0,157.0,283.5,163.5,289.0,167.0,283.5,171.0,283.0,173.5,284.0,177.5,284.0,177.0,285.0" stroke="#d96c3" stroke-width="2" fill="none" />
<polyline points="173.5,292.0,179.0,292.5,176.5,296.5,174.5,301.0,173.0,305.0,171.0,309.5,167.0,309.0" stroke="#cd9a92" stroke-width="2" fill="none" />
<polyline points="157.0,298.5,153.5,295.0,150.5,291.0,151.0,287.0,150.0,281.5,150.0,277.5,149.5,272.0,152.0,268.0,155.5,264.0,158.5,260.5,161.0,257.0,162.5,253.0,164.0,248.5,165.0,245.0,166.0,241.0,167.5,239.0,162.5,244.0,159.0,251.5,154.0,257.0,150.5,257.0,146.0,256.5,142.0,257.0,138.5,263.0,136.0,263.5,135.5,258.5,132.5,262.0,128.5,264.5,127.5,267.5,132.0,263.5,132.0,258.5,131.5,254.5,129.0,250.5,131.0,246.5,137.0,246.0,137.0,242.0,140.0,238.0,137.5,234.0,135.5,229.5,134.0,225.5,133.0,221.5,133.0,217.5,132.5,213.5,131.0,209.5,128.5,205.5,126.5,201.5,124.5,197.5,123.0,193.5,121.5,189.5,120.5,185.0,119.5,180.5,118.5,176.0,118.5,172.5,118.5,168.5,118.5,164.5,119.5,160.5,119.5,156.5,120.0,152.5,120.5,148.5,121.5,144.5,122.5,141.0,123.0,137.0,123.5,133.0,124.5,129.0,126.0,125.0,127.0,121.0,129.0,117.5,130.5,113.5,132.5,109.5,134.5,106.0,137.5,105.5,139.5,101.5,139.5,101.5,135.5,107.0" stroke="#14de4f" stroke-width="2" fill="none" />
<polyline points="127.5,123.0,131.5,113.0,136.0,105.0,136.0,109.5,135.5,113.5,135.0,117.5,133.5,121.5,132.5,125.5,133.0,129.5,132.0,133.5,130.0,137.5,128.0,141.5,128.5,145.5,130.0,145.5,128.0,149.5,129.0,152.0,129.5,154.5,126.5,159.0,130.5,157.0,129.0,149.5" stroke="#611c5" stroke-width="2" fill="none" />
<polyline points="130.5,153.5,134.5,155.0,133.0,155.5,134.0,159.5,136.5,161.5,132.5,165.5,128.5,169.5,132.5,166.5,135.0,162.0" stroke="#9b4e8" stroke-width="2" fill="none" />
<polyline points="139.5,169.0,138.0,173.5,134.0,176.0,131.0,176.0,135.0,172.0" stroke="#38271f" stroke-width="2" fill="none" />
<polyline points="136.0,174.0,132.5,177.5,138.0,176.5,142.0,172.0,142.5,168.5" stroke="#ec6593" stroke-width="2" fill="none" />
<polyline points="143.0,169.0,139.5,173.0,136.0,177.0,134.5,177.0" stroke="#ba6a84" stroke-width="2" fill="none" />
<polyline points="135.0,184.0,139.5,180.0,143.5,176.0,146.0,173.5,143.0,178.0,138.5,182.0,136.5,186.0,139.0,190.0,139.5,193.5,145.5,196.0,148.0,200.0" stroke="#da8d75" stroke-width="2" fill="none" />
<polyline points="151.0,202.0,147.0,208.0,143.0,215.0,143.5,211.0,146.0,207.0,145.5,203.0,143.5,199.0,140.0,195.0" stroke="#edb112" stroke-width="2" fill="none" />
<polyline points="140.0,194.5,139.0,198.5,136.5,201.5" stroke="#99dc5d" stroke-width="2" fill="none" />
<polyline points="136.5,190.0,141.5,188.5,145.5,185.5,146.5,180.5,150.5,180.0" stroke="#4f56d3" stroke-width="2" fill="none" />
<polyline points="144.0,179.5,140.5,184.5,136.5,188.5" stroke="#98e1f1" stroke-width="2" fill="none" />
<polyline points="144.5,188.5,147.0,192.5,146.5,194.5" stroke="#c0afd7" stroke-width="2" fill="none" />
<polyline points="128.5,208.0,124.5,200.0" stroke="#c6d578" stroke-width="2" fill="none" />
<polyline points="114.5,225.5,111.0,229.5,112.0,228.5,115.5,227.5" stroke="#e5a2d" stroke-width="2" fill="none" />
<polyline points="115.0,227.0,111.5,231.0,114.0,229.5" stroke="#1cc6af" stroke-width="2" fill="none" />
<polyline points="123.5,252.5,118.5,256.5,115.0,260.5,111.5,264.0,115.0,259.5,119.0,255.5,123.0,253.0,127.5,248.0,131.5,246.5,136.0,242.0,142.0,240.0,148.5,236.5,152.5,231.5,156.0,228.0,160.0,224.0" stroke="#611b21" stroke-width="2" fill="none" />
<polyline points="160.0,223.5,156.5,227.5,152.0,231.0,149.0,236.0,145.5,240.0,143.0,247.0,141.5,251.0,142.0,255.0,140.5,259.5,139.5,263.0,133.5,265.5,131.0,269.0,131.0,269.0,135.5,268.5" stroke="#17b6d1" stroke-width="2" fill="none" />
<polyline points="137.0,268.0,139.0,264.0,135.5,262.5" stroke="#25a8e5" stroke-width="2" fill="none" />
<polyline points="137.0,255.5,133.0,255.0" stroke="#e7e17a" stroke-width="2" fill="none" />
<polyline points="132.0,249.0,135.5,247.5,139.5,246.5,141.5,246.0" stroke="#28887b" stroke-width="2" fill="none" />
<polyline points="128.5,265.5,127.5,269.5,123.0,274.0,117.0,278.0,109.5,282.5,101.0,286.0,99.0,291.0,94.0,298.0,92.5,302.0,88.0,306.0,81.0,310.0,83.5,315.5,79.0,320.0,72.5,323.5,76.5,322.0,81.0,319.5,85.0,316.5,89.0,318.0" stroke="#66a8b5" stroke-width="2" fill="none" />
<polyline points="78.5,313.5,74.5,309.0" stroke="#bffd52" stroke-width="2" fill="none" />
<polyline points="101.0,325.5,105.5,319.5,108.5,315.5,112.0,312.0,115.5,308.0,117.5,304.0,121.0,303.5" stroke="#5fb84e" stroke-width="2" fill="none" />
<polyline points="132.0,313.0,125.5,308.5,124.5,301.5,121.5,300.5,118.5,308.0,114.5,316.5,110.5,324.5,106.5,330.5,102.5,336.0,98.5,339.0,94.5,341.0,97.0,334.5,100.5,330.5,100.0,329.0,99.0,325.0,98.5,320.5,100.5,316.5,102.5,313.0,105.5,309.0,110.0,305.0,114.5,301.0,119.0,297.5,121.5,293.5,122.5,289.5,123.5,286.0" stroke="#c95bcc" stroke-width="2" fill="none" />
<polyline points="124.0,286.0,124.5,290.0,122.5,294.0,120.5,298.0,117.5,301.5,112.5,305.5,108.0,309.0,105.0,313.0,107.5,309.5,111.5,306.0,115.5,302.5,119.5,299.0,124.5,296.5,129.0,293.5,133.0,287.0,137.0,287.0,140.5,285.0" stroke="#68f66f" stroke-width="2" fill="none" />
<polyline points="141.5,275.5,137.5,277.0,133.5,278.5,129.5,279.0" stroke="#7c4892" stroke-width="2" fill="none" />
<polyline points="124.5,272.5,120.5,270.5,116.5,268.5" stroke="#a2341" stroke-width="2" fill="none" />
<polyline points="108.5,263.5,112.5,258.5,111.0,261.0,109.0,265.0,110.0,269.0,110.0,273.0,103.0,275.5,99.0,280.0,95.0,282.5,98.5,279.5,102.0,275.5,106.0,275.5,110.5,277.5,113.0,279.0,118.5,282.5" stroke="#1dd5e8" stroke-width="2" fill="none" />
<polyline points="126.5,270.5,123.0,274.5,119.0,277.5,114.5,281.0,109.5,279.0,105.5,280.5,101.5,281.5,105.0,282.0,101.0,283.5,96.5,285.5,95.0,284.0,93.5,280.0,94.5,275.5,102.0,271.5,107.0,268.0,102.5,271.0,98.5,273.0,94.0,275.0,90.0,277.0" stroke="#eeec37" stroke-width="2" fill="none" />
<polyline points="90.5,278.0,89.5,282.0,91.5,285.5" stroke="#8df561" stroke-width="2" fill="none" />
<polyline points="128.0,343.0,132.0,348.5,136.0,353.0" stroke="#d0e82b" stroke-width="2" fill="none" />
<polyline points="126.5,359.0,133.0,362.5,134.5,366.5" stroke="#e3919c" stroke-width="2" fill="none" />
<polyline points="174.5,213.0,170.0,217.0,172.5,215.0,176.0,213.0" stroke="#fdc13b" stroke-width="2" fill="none" />
<polyline points="140.0,175.0,136.0,179.5,134.5,180.5,139.0,176.5,141.5,172.0" stroke="#da1497" stroke-width="2" fill="none" />
<polyline points="145.0,170.0,146.5,174.0,143.0,177.5,141.0,182.0,137.0,186.5,136.5,190.5,138.0,193.5,139.0,194.5,141.0,194.0,142.5,195.0,146.5,200.0,150.5,200.0" stroke="#c5c0a4" stroke-width="2" fill="none" />
<polyline points="133.0,173.5,132.0,180.5,136.0,177.0,139.5,172.5,139.5,170.0,143.0,165.5" stroke="#2eef21" stroke-width="2" fill="none" />
<polyline points="127.5,141.0,131.5,136.0,132.5,131.0" stroke="#c1aaac" stroke-width="2" fill="none" />
<polyline points="154.5,129.0,150.5,131.0,147.0,134.0,151.5,129.5,157.0,125.5" stroke="#e4b05" stroke-width="2" fill="none" />
<polyline points="189.0,121.0,185.0,123.5,181.0,126.5,179.0,127.5,184.5,123.5,190.5,120.0" stroke="#14cb36" stroke-width="2" fill="none" />
<polyline points="190.5,116.5,184.5,120.5,179.5,125.0,180.0,124.5,183.5,121.5,187.0,119.0" stroke="#381cf0" stroke-width="2" fill="none" />
<polyline points="193.5,131.5,188.5,136.0,187.0,137.0,190.5,134.5" stroke="#e0be53" stroke-width="2" fill="none" />
<polyline points="199.5,133.0,203.5,137.0" stroke="#4133e2" stroke-width="2" fill="none" />
<polyline points="199.5,132.5,203.5,136.5,204.5,140.5,203.0,142.0,207.0,138.5,210.5,136.0,214.5,133.5,218.5,130.5,222.5,128.0" stroke="#689889" stroke-width="2" fill="none" />
<polyline points="223.5,126.0,217.5,130.0,211.5,133.5,207.0,138.0,208.5,139.0,213.0,136.0,217.0,133.0,221.0,130.0,224.5,127.5,228.5,124.5,232.5,122.0,236.5,120.0" stroke="#805495" stroke-width="2" fill="none" />
<polyline points="238.5,119.0,232.0,122.5,226.0,126.5,219.5,130.5,213.0,134.0,208.0,138.0,203.5,141.5,199.0,145.5,194.0,149.5,190.0,153.5,185.0,157.5,181.5,161.5,177.0,165.5,172.5,169.5,169.5,173.5,165.5,177.5,162.0,182.5,159.0,187.0,153.5,193.0,151.0,197.5,152.5,201.0,151.0,205.0,148.5,208.5,146.5,212.5,146.5,216.0,143.5,220.0,142.0,224.0,141.5,228.0,141.0,232.0,141.5,236.0,141.5,240.0,141.0,242.0,133.0,245.0,130.5,250.5,132.0,253.0,133.5,256.5,138.0,255.5,140.5,256.5" stroke="#ce304c" stroke-width="2" fill="none" />
<polyline points="203.5,165.0,207.0,164.5" stroke="#f23aca" stroke-width="2" fill="none" />
<polyline points="203.5,163.5,204.0,167.5,197.0,170.0,191.0,173.5,187.0,177.5,182.5,181.0,178.5,185.0,174.5,188.5,171.5,192.5,166.5,196.5,163.5,200.5,163.0,201.0,167.0,196.0,171.0,193.0,175.0,188.0,179.5,184.5,183.0,181.0,187.0,177.5,191.5,174.5,195.5,171.0,199.5,168.5" stroke="#ca4374" stroke-width="2" fill="none" />
<polyline points="220.0,160.5,218.0,159.0,214.5,154.5,210.0,150.5,206.5,146.5" stroke="#b679f5" stroke-width="2" fill="none" />
<polyline points="214.0,141.5,218.0,145.5" stroke="#e61089" stroke-width="2" fill="none" />
<polyline points="215.0,141.5,219.0,145.0,223.0,148.5" stroke="#1ef622" stroke-width="2" fill="none" />
<polyline points="216.5,151.5,220.5,155.5,227.0,162.0" stroke="#c592a3" stroke-width="2" fill="none" />
<polyline points="240.5,169.0,245.0,170.5,249.5,170.5,253.5,175.0,257.5,175.0,261.0,175.5,265.5,177.0,269.0,178.0,273.0,178.0,276.5,178.5" stroke="#c72ea" stroke-width="2" fill="none" />
<polyline points="276.0,179.0,275.5,175.0" stroke="#c5904b" stroke-width="2" fill="none" />
<polyline points="279.5,176.0,283.0,178.0,287.0,180.0" stroke="#7bda5f" stroke-width="2" fill="none" />
<polyline points="290.0,177.5,286.0,176.0" stroke="#55881c" stroke-width="2" fill="none" />
<polyline points="282.0,175.0,286.0,175.0,290.0,175.0,294.5,179.0" stroke="#4f4d81" stroke-width="2" fill="none" />
<polyline points="273.0,182.0,274.0,186.0,274.0,190.0,272.5,194.0" stroke="#797fad" stroke-width="2" fill="none" />
<polyline points="267.0,187.0,261.0,191.0,256.0,195.5,253.0,199.5,249.0,203.0,250.0,199.5,254.0,195.0,258.0,191.5,262.5,188.0,266.5,185.5" stroke="#4966a" stroke-width="2" fill="none" />
<polyline points="265.5,186.0,259.0,190.0,256.0,191.0,260.0,187.5,264.0,185.0" stroke="#d43f4c" stroke-width="2" fill="none" />
<polyline points="261.0,181.0,257.0,181.0,253.0,182.5,249.0,184.5,248.5,187.0,245.0,192.0,242.5,193.5,242.0,199.5,243.5,198.0,246.5,194.0,252.0,190.0,256.5,187.5,262.0,183.5,267.0,180.0" stroke="#5cef38" stroke-width="2" fill="none" />
<polyline points="265.5,176.0,269.5,177.0,273.5,176.5,277.0,178.0,281.0,175.5,283.0,176.0,291.5,177.5,294.0,181.5,289.5,185.5,285.5,188.0,281.0,192.0,276.0,196.0,272.5,200.0,274.0,195.0,271.5,198.0,272.5,201.0,276.5,196.5,280.5,193.5,284.5,190.0,288.5,186.0,293.5,183.0,297.5,180.0,301.5,177.0,305.5,174.5,309.0,171.5,313.0,168.5,317.0,166.0,321.0,163.0,324.5,160.5,328.5,157.5,332.5,155.0,336.5,152.5" stroke="#43c82b" stroke-width="2" fill="none" />
<polyline points="338.5,151.5,331.5,155.5,325.5,160.0,318.0,164.5,312.5,168.5,306.0,172.0,300.0,176.5,295.0,180.5" stroke="#48ba46" stroke-width="2" fill="none" />
<polyline points="286.0,143.5,282.0,144.5" stroke="#ea669c" stroke-width="2" fill="none" />
<polyline points="300.0,135.0,295.5,139.0,290.0,142.5,292.5,140.5,296.0,137.5,300.0,134.5" stroke="#3cd7b1" stroke-width="2" fill="none" />
<polyline points="260.5,131.0,256.0,135.0,251.0,139.0,245.5,143.0,241.0,147.0,235.5,151.0,230.5,155.0,224.5,159.0,220.0,163.0,222.0,162.0,226.0,159.0,230.0,156.0,234.0,152.5,238.0,149.0,242.0,147.0,246.0,144.0,250.0,140.5,254.5,137.5,258.5,134.5" stroke="#74b46a" stroke-width="2" fill="none" />
<polyline points="241.5,144.5,246.0,140.5,248.5,138.5,253.5,134.5,259.5,130.5,257.5,131.5,253.5,134.5,249.5,137.5,245.5,140.0,241.5,143.5,237.5,146.0,233.5,142.0" stroke="#aff137" stroke-width="2" fill="none" />
<polyline points="234.0,144.0,237.0,148.0" stroke="#a64afd" stroke-width="2" fill="none" />
<polyline points="250.5,160.5,255.5,164.5" stroke="#575b" stroke-width="2" fill="none" />
<polyline points="252.0,162.5,256.0,165.5,260.0,166.0,264.0,163.5,268.0,162.0,259.5,166.0" stroke="#7cf173" stroke-width="2" fill="none" />
<polyline points="249.0,175.0,253.5,178.5,257.0,180.0" stroke="#90872c" stroke-width="2" fill="none" />
<polyline points="298.5,222.5,293.5,226.5,288.0,230.5,285.5,233.5,289.5,230.0,293.5,226.5,297.5,223.5" stroke="#cfa6f6" stroke-width="2" fill="none" />
<polyline points="333.5,204.0,337.5,202.0,341.5,198.5,346.0,196.5,350.5,194.0,355.0,191.5,359.0,189.5,363.0,187.0,367.0,185.0,371.5,183.5,375.5,182.0,379.5,181.0,383.5,179.5,387.5,176.5,391.0,174.0,395.0,172.0,399.0,170.0,403.0,167.5,407.0,166.5,403.5,170.0,401.5,174.0,398.5,178.0,394.0,182.5,387.5,187.0,382.0,190.0,386.0,188.5,390.0,186.5,393.5,183.5,397.5,180.5,402.0,176.0" stroke="#bdee5e" stroke-width="2" fill="none" />
<polyline points="402.5,166.0,405.0,159.5,404.0,163.5,404.0,168.0,397.5,172.0,390.5,176.0,383.0,180.0" stroke="#62c36" stroke-width="2" fill="none" />
<polyline points="375.5,183.0,365.5,186.5,359.0,190.5,351.5,194.5,343.5,198.0,337.5,202.0,337.0,205.5,341.5,208.5,345.5,212.5,351.0,213.0" stroke="#9594e9" stroke-width="2" fill="none" />
<polyline points="348.0,202.5,344.5,198.5" stroke="#6e72c5" stroke-width="2" fill="none" />
<polyline points="360.5,190.5,363.0,194.5" stroke="#ca9459" stroke-width="2" fill="none" />
<polyline points="362.0,189.0,366.0,194.0,369.5,194.0,373.5,192.5,378.0,191.0" stroke="#2cb266" stroke-width="2" fill="none" />
<polyline points="403.5,157.5,400.0,162.0,396.0,166.0,392.0,170.0,388.0,173.5,387.5,173.5,392.0,169.5,397.0,166.0,401.0,162.0,405.0,158.0" stroke="#d9671" stroke-width="2" fill="none" />
<polyline points="397.0,153.0,394.0,156.5,391.5,160.5,389.0,165.0,387.0,169.0,384.0,173.5,381.0,177.5,383.0,174.5,387.0,168.0,391.0,161.0,395.0,155.0" stroke="#d92c9b" stroke-width="2" fill="none" />
<polyline points="395.5,123.5,391.5,127.0,387.5,130.0,383.5,133.0,381.0,134.5,386.5,130.5,391.5,126.0,396.0,122.0" stroke="#618c6a" stroke-width="2" fill="none" />
<polyline points="396.5,121.5,392.5,124.5,388.5,127.5,384.5,130.5,381.0,134.0,385.0,129.5,390.5,125.5,395.0,121.5" stroke="#235c14" stroke-width="2" fill="none" />
<polyline points="400.0,112.5,393.0,117.0,389.0,121.0,383.0,125.5,377.5,129.5,371.5,133.5,365.0,137.5,358.5,141.5,352.0,145.5" stroke="#46ca53" stroke-width="2" fill="none" />
<polyline points="367.5,132.0,368.0,131.0,367.5,127.0" stroke="#a39c13" stroke-width="2" fill="none" />
<polyline points="388.0,106.5,383.5,101.0,379.5,97.0" stroke="#85d951" stroke-width="2" fill="none" />
<polyline points="378.0,97.0,381.5,101.0,384.0,105.0,388.5,108.5" stroke="#81fcbe" stroke-width="2" fill="none" />
<polyline points="414.0,113.5,418.0,117.5,419.5,121.5,420.5,125.5,421.5,130.0,421.5,134.0,421.0,138.0,419.5,142.0,419.0,146.0,418.5,150.5,417.5,154.5,416.0,158.5,414.0,162.0,413.0,165.5,411.5,169.5,410.0,174.0,407.5,178.0,404.5,182.5,401.0,186.5,396.0,191.0,392.0,195.0,388.5,198.5,384.5,202.5,379.5,206.0,374.5,210.0,368.5,213.5,372.0,211.5,376.0,208.5,380.0,205.5,384.0,202.5,388.0,199.0,392.0,195.0,395.5,191.5,399.5,186.5,403.5,184.0,407.0,178.0,411.0,169.0,414.5,157.0" stroke="#1f9dc" stroke-width="2" fill="none" />
<polyline points="441.0,69.0,437.0,62.5,433.0,56.0,429.5,50.0,425.5,43.0,421.0,34.5,417.5,29.0,413.5,21.5,410.0,14.5,406.0,8.0" stroke="#f22643" stroke-width="2" fill="none" />
<polyline points="513.0,74.5,510.0,78.5,506.5,82.5,503.0,86.5,498.0,90.0,493.0,95.0,490.0,99.0,486.0,103.0,482.5,107.5,480.0,111.5,476.5,115.0,474.0,119.0,472.0,123.5,469.0,127.5,467.5,132.0,464.0,136.0,462.0,140.0,460.0,143.0,456.0,148.0,455.0,151.5,452.5,155.5,450.0,159.5,447.0,164.5,444.5,168.5,442.5,173.0,441.0,177.5,438.0,182.0,436.0,186.5,434.0,191.0,432.0,195.5,430.0,199.5,428.5,203.5,428.5,207.0,427.0,211.0,426.0,215.5,423.0,219.5,422.5,223.5,420.5,227.5,419.0,231.0,418.0,235.5,416.5,239.5,414.5,243.5,412.5,247.0,413.5,249.5,410.5,253.5,409.0,257.5,408.0,262.0,406.0,265.5,404.5,269.5,403.0,273.0,400.5,276.5,400.0,281.0,399.5,285.0,399.0,289.5,398.0,293.5,397.5,298.0,396.0,302.0,395.0,305.5,393.5,309.5,393.0,313.0,392.0,317.0,391.5,321.0,390.0,325.0,388.5,329.0,387.0,333.0,386.0,337.0,386.5,340.5" stroke="#d1957b" stroke-width="2" fill="none" />
<polyline points="227.5,127.5,224.0,130.0,220.5,132.5,216.5,135.5,212.5,138.0,208.5,141.0,204.5,144.5,200.5,148.5,196.5,151.5,198.5,149.5,202.0,145.5,207.0,141.5,212.0,138.0,216.5,134.5,222.5,130.0,228.5,126.5" stroke="#ad38f" stroke-width="2" fill="none" />
<polyline points="207.0,114.5,199.5,118.5,197.0,121.0,201.0,118.5,205.0,115.5" stroke="#a685a" stroke-width="2" fill="none" />
<polyline points="198.0,109.0,194.5,111.0" stroke="#251887" stroke-width="2" fill="none" />
<polyline points="237.5,99.5,232.0,103.0,226.0,104.5,222.0,108.0,226.0,104.0,230.0,104.0,234.5,101.0,238.5,98.0" stroke="#deb7e0" stroke-width="2" fill="none" />
<polyline points="237.0,96.5,232.0,100.5,235.0,98.0" stroke="#853293" stroke-width="2" fill="none" />
<polyline points="247.0,91.0,243.0,93.5,249.0,90.0" stroke="#47a873" stroke-width="2" fill="none" />
<polyline points="264.0,85.5,260.0,87.5,255.5,89.0,251.0,92.0,247.0,94.5,242.5,97.0,238.5,100.0,234.5,103.5,230.5,106.5,226.5,109.5,222.0,112.0,218.0,115.0,214.0,117.5,210.5,120.5,206.5,123.0,203.0,126.0,199.0,129.5,194.5,132.5,190.5,136.0,186.5,139.0,182.5,143.0,178.5,147.0,175.0,151.0,171.0,155.0,167.0,159.0,163.5,162.5,159.5,165.5,156.0,170.0,154.0,173.0,157.0,168.5,160.5,165.0,165.0,161.0,169.5,157.5,174.0,153.5,177.5,149.5,181.5,145.5,185.5,141.5,190.0,137.5,194.0,133.5,198.5,129.5,203.0,125.5,207.5,121.5,214.0,117.5,219.0,114.0,224.5,110.0,230.5,106.0,236.5,102.0,242.5,98.0,248.5,93.5,255.5,90.0,264.5,86.0" stroke="#3b9333" stroke-width="2" fill="none" />
<polyline points="236.5,79.0,229.5,82.5,225.0,86.5,227.0,85.0,231.0,82.0,234.5,80.5" stroke="#33d36f" stroke-width="2" fill="none" />
<polyline points="251.0,52.5,261.5,56.5,268.0,60.0,274.5,63.5,281.0,67.5,286.5,71.5,291.5,75.0,299.5,79.0,302.0,83.0,304.5,86.5,308.0,90.5,310.5,94.5,315.5,99.0,320.0,103.5,324.0,107.5,325.5,111.0,328.0,115.5,329.0,119.5,331.5,123.5,334.0,127.0,336.5,131.0,341.0,135.0,343.5,139.5,344.0,144.0,346.0,148.0" stroke="#e36683" stroke-width="2" fill="none" />
<polyline points="235.0,48.0,231.5,50.5" stroke="#ca856d" stroke-width="2" fill="none" />
<polyline points="228.0,47.0,223.0,51.0,226.5,48.0,231.0,48.0,235.0,48.0,239.5,48.0,243.5,49.0,247.5,50.0,252.0,51.5,256.0,52.5,260.5,53.5,264.0,55.5,267.5,58.0,271.5,61.0,275.0,63.5,279.0,66.5,283.0,70.0,286.5,73.0,290.5,76.5,294.5,77.5,299.0,80.5,303.0,86.5,307.0,91.0,311.5,97.0,316.0,99.0,320.0,103.0,324.0,108.0,328.0,113.5,331.5,122.5,335.5,129.5,339.5,133.5,343.5,138.5,347.5,147.0,351.5,145.0,356.0,143.0,360.0,140.0,364.0,138.5,368.0,136.5,372.0,133.5,375.5,131.0,379.5,128.0,383.5,125.0,387.5,122.0,391.5,118.5,395.5,115.0,399.5,113.5,403.5,112.5,407.5,113.5,411.5,113.5,415.5,115.0,419.5,122.5" stroke="#aebb79" stroke-width="2" fill="none" />
<polyline points="210.5,47.5,206.0,49.5" stroke="#f63f87" stroke-width="2" fill="none" />
<polyline points="174.0,60.0,170.0,61.5,166.0,61.5,160.5,65.0,160.5,69.0,162.0,65.0" stroke="#e85867" stroke-width="2" fill="none" />
<polyline points="160.5,64.5,158.5,68.5,154.5,73.5,152.5,77.5,153.0,77.0,157.5,72.0,160.5,69.5" stroke="#81bd38" stroke-width="2" fill="none" />
<polyline points="156.0,75.5,154.5,79.5,152.5,83.5,156.0,77.0" stroke="#97d6e4" stroke-width="2" fill="none" />
</svg>