<svg xmlns="http://www.w3.org/2000/svg" version="1.1"><polyline points="406.0,3.5,405.5,7.5,407.0,11.0,409.5,14.5,411.0,18.5,413.5,22.5,415.5,26.5,417.5,30.0,420.5,34.0,422.0,37.5,424.5,41.5,427.0,45.5,429.0,49.5,431.5,54.0,434.5,58.0,436.5,62.5,439.5,66.5,443.0,70.5" stroke="black" stroke-width="2" fill="none" />
<polyline points="455.5,59.5,452.0,52.0,448.0,46.0,444.5,38.5,441.5,33.5,437.0,26.0,433.0,19.5,428.5,12.0,424.5,7.0" stroke="black" stroke-width="2" fill="none" />
<polyline points="424.0,1.5,423.5,5.5,425.0,9.0,427.5,13.0,431.0,17.5,433.0,21.5,435.0,25.5,438.5,29.0,441.0,33.0,443.5,37.0,445.5,41.0,447.5,45.0,450.0,49.0,452.5,53.0,454.5,57.0,456.5,61.5,455.0,65.5,452.0,70.0,447.5,74.0,444.0,78.5,441.0,83.0,438.5,86.5,435.5,90.5,432.5,94.5,430.0,98.5,427.5,102.5,424.5,106.0,422.0,110.0,419.5,113.5,419.0,113.5,423.0,107.5,427.0,101.0,431.0,94.5,435.0,89.0,439.5,83.5,443.0,78.0,447.0,73.5,451.0,70.0,455.0,65.0,460.0,56.5,464.5,52.5,468.0,49.0,472.0,44.5,476.0,40.0,480.0,35.5,484.0,31.0,488.5,27.5,492.5,23.5,497.5,19.0,501.5,15.0,505.5,12.0,509.5,8.0" stroke="black" stroke-width="2" fill="none" />
<polyline points="512.5,5.5,506.0,9.5,502.0,13.5,497.5,17.0,495.0,20.0,490.5,24.0,487.0,28.5,483.5,33.0,478.5,37.5,475.5,41.5,471.5,45.5,467.5,49.5,463.5,53.5,459.5,57.5" stroke="black" stroke-width="2" fill="none" />
<polyline points="512.0,76.5,508.0,81.5,504.0,85.0,500.5,89.5,498.0,94.0,494.0,96.5,490.0,102.5,485.5,107.0,481.5,112.0,477.0,117.0,473.0,122.5,469.0,128.0,465.0,135.0,461.0,141.0" stroke="black" stroke-width="2" fill="none" />
<polyline points="454.0,154.0,450.0,161.0,447.0,165.5,442.5,173.5" stroke="black" stroke-width="2" fill="none" />
<polyline points="439.5,179.0,437.5,183.0" stroke="black" stroke-width="2" fill="none" />
<polyline points="433.0,194.5,429.0,202.5,427.5,210.0,426.5,215.0,422.5,219.0" stroke="black" stroke-width="2" fill="none" />
<polyline points="419.5,231.0,417.5,237.0,414.0,245.0" stroke="black" stroke-width="2" fill="none" />
<polyline points="404.0,276.0,402.5,280.0,401.0,286.5" stroke="black" stroke-width="2" fill="none" />
<polyline points="380.5,291.0,381.0,287.0,381.0,283.0,381.0,279.0,381.0,275.5" stroke="black" stroke-width="2" fill="none" />
<polyline points="374.0,277.5,374.5,281.5,376.0,284.5,376.0,289.0,376.5,293.0,378.0,297.5,378.0,301.0,378.5,305.0,379.0,309.0,380.0,313.5,381.0,317.5,381.5,321.5,382.0,325.5,381.0,329.0,380.5,333.0,380.5,337.0,381.0,341.0,381.5,345.0,381.5,349.0,382.0,352.5" stroke="black" stroke-width="2" fill="none" />
<polyline points="368.5,352.0,369.5,356.0,370.0,359.5,369.5,363.5,370.0,367.5,370.5,371.5" stroke="black" stroke-width="2" fill="none" />
<polyline points="371.5,376.5,373.0,380.0,372.5,384.0" stroke="black" stroke-width="2" fill="none" />
<polyline points="380.0,385.5,379.5,390.0,379.5,393.5,379.5,397.5,379.0,401.5" stroke="black" stroke-width="2" fill="none" />
<polyline points="363.0,434.5,359.5,425.5,355.5,419.0,351.5,414.0,347.5,409.0,343.5,405.5,340.0,402.0,335.5,400.0,331.0,398.5,327.0,396.5,322.5,394.5,318.5,393.5,314.0,391.5,310.0,390.5,307.5,391.0,303.5,391.0,299.5,389.5" stroke="black" stroke-width="2" fill="none" />
<polyline points="313.5,382.0,317.5,371.5,321.5,365.0,325.0,359.0,329.0,352.0,332.5,344.0,337.0,335.0,341.0,326.5,345.5,318.5" stroke="black" stroke-width="2" fill="none" />
<polyline points="356.0,330.0,355.5,334.0,354.5,338.0,353.0,341.5,353.5,340.0" stroke="black" stroke-width="2" fill="none" />
<polyline points="353.5,353.0,354.0,356.5,354.0,360.5,353.5,364.0,354.0,367.5,354.0,371.5,353.5,375.5,353.0,379.5,353.5,385.0,353.0,389.0,353.5,393.0,354.0,397.5,354.0,401.5,352.0,404.0,353.0,408.5,353.0,413.5" stroke="black" stroke-width="2" fill="none" />
<polyline points="360.0,384.0,360.0,380.0,360.5,376.0,361.5,371.0,361.0,366.5,361.0,362.5" stroke="black" stroke-width="2" fill="none" />
<polyline points="358.0,362.0,359.0,366.0,359.0,370.0,358.5,374.0,358.5,377.5,358.5,381.5" stroke="black" stroke-width="2" fill="none" />
<polyline points="355.5,356.0,355.5,359.5,355.0,363.5,354.0,367.5,354.5,371.0,354.5,375.0,354.0,378.5,354.0,382.5,353.5,386.0,353.5,390.5,354.0,394.5,354.0,398.5,355.0,403.0,355.0,407.0,356.0,411.5,355.0,413.5" stroke="black" stroke-width="2" fill="none" />
<polyline points="374.5,463.5,372.5,460.5,370.5,456.0,370.5,452.0,370.5,448.0,371.0,444.0,371.0,440.0,371.0,436.5,371.5,432.5,372.0,428.0,372.5,424.0,373.0,419.5,374.0,415.0,374.0,411.0,375.0,407.5,376.0,403.5,377.0,400.0,377.5,396.0,378.0,392.0,378.5,388.0,378.0,384.5,377.5,380.5,377.0,376.5,376.5,372.5,376.5,368.5,376.5,365.0,377.5,361.0,377.5,357.0,376.5,353.0,376.0,349.0,374.5,345.0,374.5,341.0,374.5,337.0,373.5,333.0,373.0,328.5,372.0,324.0,371.5,319.5,371.5,315.5,371.5,311.5,370.5,308.0,369.5,304.0,369.5,300.0,369.0,296.5,368.5,292.5,368.5,288.5,367.5,284.5,367.5,280.5,368.0,276.5,368.0,273.0,367.5,268.5,367.0,264.5,367.0,260.5,367.0,257.0,366.5,252.5,366.5,248.5,366.0,244.0,366.0,240.0,365.0,236.0,364.0,232.5,363.0,228.5,361.5,224.5,360.5,220.5,359.0,216.0,356.5,212.0,354.5,208.5,353.5,206.0,350.0,202.0,348.0,198.0,347.5,196.0" stroke="black" stroke-width="2" fill="none" />
<polyline points="345.0,198.5,348.0,202.5" stroke="black" stroke-width="2" fill="none" />
<polyline points="348.5,199.5,352.5,205.5,357.0,213.0" stroke="black" stroke-width="2" fill="none" />
<polyline points="361.5,202.0,358.0,194.0" stroke="black" stroke-width="2" fill="none" />
<polyline points="356.0,193.0,356.5,197.0,358.5,201.0,360.5,205.0,361.0,208.5" stroke="black" stroke-width="2" fill="none" />
<polyline points="355.0,204.5,351.0,198.5" stroke="black" stroke-width="2" fill="none" />
<polyline points="351.5,199.5,355.0,204.0,357.5,208.0" stroke="black" stroke-width="2" fill="none" />
<polyline points="349.0,203.5,345.0,198.5" stroke="black" stroke-width="2" fill="none" />
<polyline points="345.5,200.5,344.0,204.0,347.0,207.5" stroke="black" stroke-width="2" fill="none" />
<polyline points="348.0,206.5,343.5,201.5" stroke="black" stroke-width="2" fill="none" />
<polyline points="340.5,202.0,344.0,204.0,348.0,207.0,352.0,209.5,353.5,207.5" stroke="black" stroke-width="2" fill="none" />
<polyline points="346.5,210.5,342.0,208.0" stroke="black" stroke-width="2" fill="none" />
<polyline points="341.5,205.5,345.5,208.5,350.0,212.5,354.0,217.5,358.0,225.0" stroke="black" stroke-width="2" fill="none" />
<polyline points="371.0,221.0,373.0,214.5,371.5,218.5,370.0,222.5,369.5,226.5,369.0,230.5,368.5,233.5,369.0,237.5,370.5,241.5,371.5,245.0,373.0,249.0,373.5,253.0,375.5,257.0,374.5,261.0,376.0,265.0,377.0,268.5" stroke="black" stroke-width="2" fill="none" />
<polyline points="384.0,265.5,383.0,269.5,383.0,273.5,380.5,277.5,378.5,281.0,379.0,285.5,379.0,289.5" stroke="black" stroke-width="2" fill="none" />
<polyline points="374.0,291.5,373.5,295.5,374.0,299.5,374.5,304.0,375.0,308.0,375.0,312.0,376.0,316.5,378.0,323.0,378.0,327.5,378.0,332.0,379.0,336.0,379.0,340.0,379.5,343.5,379.5,347.5,380.0,351.5,380.0,355.5,380.5,359.5" stroke="black" stroke-width="2" fill="none" />
<polyline points="367.0,352.5,367.5,356.5,368.5,360.0,368.0,364.0,368.0,368.0,370.5,373.0,370.5,377.0,370.5,381.0,370.5,385.5" stroke="black" stroke-width="2" fill="none" />
<polyline points="384.5,349.5,384.0,346.0,383.5,342.0,383.5,338.0,383.0,333.5,382.5,329.5" stroke="black" stroke-width="2" fill="none" />
<polyline points="344.0,281.5,344.0,281.0,341.0,280.5,341.5,273.5,342.5,269.5,341.0,264.5,337.0,263.0" stroke="black" stroke-width="2" fill="none" />
<polyline points="334.0,264.0,337.5,263.5,337.0,268.0,334.5,272.0,333.5,270.0" stroke="black" stroke-width="2" fill="none" />
<polyline points="328.0,268.5,331.5,269.5,335.5,270.0,329.5,271.0,326.5,271.5,328.5,273.0" stroke="black" stroke-width="2" fill="none" />
<polyline points="324.0,269.0,328.0,275.0,332.0,276.0,335.5,274.0,334.5,272.0" stroke="black" stroke-width="2" fill="none" />
<polyline points="337.0,275.5,337.5,280.0" stroke="black" stroke-width="2" fill="none" />
<polyline points="338.5,278.5,342.0,280.5,346.0,278.5,350.0,278.5,350.5,283.0,351.5,287.0,351.0,290.5,351.5,295.0,350.5,299.0,348.5,303.0,347.5,306.5,344.5,311.0,347.0,313.0,345.5,317.0,343.5,321.0,341.0,325.5,339.5,329.5,337.0,333.5,336.0,338.0,334.0,342.0,333.0,346.0,331.0,350.0,328.5,354.0,327.0,358.0,324.0,362.0,321.5,365.5,319.0,369.5,317.0,373.0,315.5,377.0,314.0,381.0,314.5,384.5,312.0,388.5,318.0,392.0,326.5,396.0,334.5,400.0,340.0,404.0,345.0,408.0,349.0,411.5,352.5,415.5,355.0,419.5,357.0,423.5,359.0,427.5,360.5,431.5,362.0,436.0,363.5,440.0,364.0,444.5,365.5,448.5,366.5,452.5,368.0,456.5,369.0,461.0,371.0,465.0,372.0,469.0,373.5,472.5,374.5,476.5,375.5,480.5,377.0,484.5,378.0,489.0,379.5,493.5,380.5,497.5,381.5,502.0,382.5,506.0,383.5,510.0,384.5,513.5" stroke="black" stroke-width="2" fill="none" />
<polyline points="422.5,490.5,426.5,495.5,430.5,494.0,434.0,491.0,437.5,487.5,441.5,483.5,445.0,480.5,449.0,475.5,452.0,470.5,456.0,467.0" stroke="black" stroke-width="2" fill="none" />
<polyline points="458.5,468.0,453.0,471.5,450.5,470.0,454.0,463.5" stroke="black" stroke-width="2" fill="none" />
<polyline points="457.5,450.0,461.5,441.0" stroke="black" stroke-width="2" fill="none" />
<polyline points="464.0,432.0,468.0,425.0,472.5,418.5,476.0,409.5,480.5,405.5,485.0,401.0,489.5,398.5,493.5,394.5,495.5,391.0,499.0,389.0,502.5,387.5,507.0,385.5,511.0,384.0" stroke="black" stroke-width="2" fill="none" />
<polyline points="511.5,382.5,501.0,386.5,492.5,390.5,491.0,395.0,485.5,399.0,482.0,403.5,477.0,407.5,475.5,411.5,474.5,416.0,472.0,420.5,469.5,424.5,468.0,428.5,466.0,432.0,462.0,436.0,460.0,440.0,458.0,443.5,456.5,447.5,455.0,451.5,454.5,455.5,454.0,459.0,452.5,463.0,450.5,467.0,448.5,471.0,448.5,475.5,445.5,480.0,441.0,484.0,437.0,488.0,432.0,492.0" stroke="black" stroke-width="2" fill="none" />
<polyline points="433.0,481.5,432.0,479.0,433.5,476.0,435.0,479.5,436.5,475.5,437.0,471.5,438.5,467.5,439.5,463.5,440.5,459.5,439.5,458.0,436.0,456.0,432.5,452.5" stroke="black" stroke-width="2" fill="none" />
<polyline points="439.0,457.5,435.0,455.5,431.0,452.0,430.0,448.0,431.0,444.0,431.5,440.0,432.5,436.0,434.5,432.0,432.0,435.0" stroke="black" stroke-width="2" fill="none" />
<polyline points="430.5,466.5,426.0,472.0,421.5,476.5,418.0,472.0,416.0,468.0" stroke="black" stroke-width="2" fill="none" />
<polyline points="429.0,468.0,426.5,472.5,422.5,476.0,421.5,480.0,421.5,484.5,421.5,488.0,423.0,492.0" stroke="black" stroke-width="2" fill="none" />
<polyline points="484.0,410.0,480.0,415.0,478.0,417.5,481.5,413.0,484.5,409.0,487.5,404.5" stroke="black" stroke-width="2" fill="none" />
<polyline points="443.5,424.5,444.5,422.5,446.0,418.5,447.0,414.5,447.5,410.5,448.0,406.0,448.5,402.5,449.0,399.0,449.0,395.0,450.0,391.0,451.5,387.0,452.5,382.5,453.0,378.5,453.5,374.5,453.5,370.5,453.0,366.5" stroke="black" stroke-width="2" fill="none" />
<polyline points="364.0,311.5,364.0,307.5,364.0,304.0,364.0,299.5,364.0,295.5,364.0,291.5,364.0,287.5,363.5,283.5,364.0,279.5,364.0,276.0,364.5,272.5,365.0,269.0,365.0,265.0" stroke="black" stroke-width="2" fill="none" />
<polyline points="363.5,264.0,363.0,268.0,363.0,272.5,362.5,276.5,361.5,280.0,361.5,281.5" stroke="black" stroke-width="2" fill="none" />
<polyline points="349.5,255.0,345.5,257.0" stroke="black" stroke-width="2" fill="none" />
<polyline points="345.0,253.5,341.0,253.5,336.5,254.5,332.5,255.0" stroke="black" stroke-width="2" fill="none" />
<polyline points="335.5,254.0,329.0,258.0,326.5,263.0,322.0,266.5,319.0,270.5,318.0,274.0,318.0,275.0,322.5,277.0" stroke="black" stroke-width="2" fill="none" />
<polyline points="324.5,274.5,320.5,273.0" stroke="black" stroke-width="2" fill="none" />
<polyline points="317.5,272.0,321.5,265.0,325.5,261.5,330.0,260.0,335.0,259.0,339.0,258.0,343.0,257.0,347.5,256.5,350.0,252.5,354.0,251.5" stroke="black" stroke-width="2" fill="none" />
<polyline points="351.5,244.5,348.0,247.5,343.5,250.0,340.5,251.0,336.5,252.0,332.0,254.0,328.0,257.5" stroke="black" stroke-width="2" fill="none" />
<polyline points="323.0,267.5,322.5,271.5,323.5,275.0,330.5,277.0,334.5,278.5,338.0,278.0,342.0,276.5,348.5,278.0" stroke="black" stroke-width="2" fill="none" />
<polyline points="326.0,273.5,323.5,269.5" stroke="black" stroke-width="2" fill="none" />
<polyline points="292.0,272.5,288.5,265.5" stroke="black" stroke-width="2" fill="none" />
<polyline points="286.5,267.5,287.5,271.0" stroke="black" stroke-width="2" fill="none" />
<polyline points="289.5,271.0,288.0,266.5,287.0,260.5" stroke="black" stroke-width="2" fill="none" />
<polyline points="285.0,261.0,282.5,259.5,285.0,257.5,287.5,256.5" stroke="black" stroke-width="2" fill="none" />
<polyline points="290.0,250.5,297.0,254.5" stroke="black" stroke-width="2" fill="none" />
<polyline points="293.5,270.0,291.5,266.0,288.0,261.5,282.5,257.5,283.0,252.0,279.0,251.0" stroke="black" stroke-width="2" fill="none" />
<polyline points="277.5,255.0,274.5,250.5,270.5,249.0,266.0,248.5,262.0,251.0" stroke="black" stroke-width="2" fill="none" />
<polyline points="267.5,258.0,271.0,254.5" stroke="black" stroke-width="2" fill="none" />
<polyline points="272.5,246.0,267.0,246.5,261.0,250.5,255.5,254.5,251.0,258.5,246.5,263.0,243.0,266.5,239.0,270.5,235.5,274.0,232.0,278.0,228.5,281.5,224.5,285.5,221.0,290.0,218.0,294.0,215.0,298.0,212.5,302.0,210.0,306.5,207.0,310.5,204.0,314.5,203.0,318.5,200.5,322.5,196.5,326.5,193.5,331.0,191.5,335.0,188.5,338.5,186.0,342.5,183.5,346.5,180.5,350.5,178.5,354.5,176.0,358.0,173.0,362.5,169.0,366.0,165.5,370.0,162.0,374.5,160.0,378.5,158.5,385.0,162.0,390.5,166.0,393.0,170.0,398.0,173.5,403.0,178.0,410.5" stroke="black" stroke-width="2" fill="none" />
<polyline points="171.0,407.0,167.0,403.5,163.5,403.5,157.0,397.0,153.0,393.0" stroke="black" stroke-width="2" fill="none" />
<polyline points="154.0,395.5,150.0,394.0" stroke="black" stroke-width="2" fill="none" />
<polyline points="148.5,392.0,148.5,395.0,149.0,400.5,150.5,405.0,153.0,412.0,153.0,416.0,153.5,419.5" stroke="black" stroke-width="2" fill="none" />
<polyline points="156.5,421.5,156.5,421.5,156.5,425.5,157.5,429.5,158.0,434.0,158.0,436.5,157.0,440.0,156.0,441.5" stroke="black" stroke-width="2" fill="none" />
<polyline points="161.5,444.0,165.5,440.0,170.0,444.0,174.5,444.0,178.5,439.5,183.0,438.5,183.0,433.5" stroke="black" stroke-width="2" fill="none" />
<polyline points="180.0,438.5,176.0,442.5,180.0,442.0,183.5,443.5,187.5,439.5" stroke="black" stroke-width="2" fill="none" />
<polyline points="198.0,447.0,202.0,445.0,199.0,445.0,198.5,449.0" stroke="black" stroke-width="2" fill="none" />
<polyline points="178.5,445.0,174.0,444.5" stroke="black" stroke-width="2" fill="none" />
<polyline points="175.5,445.0,175.5,449.0,176.5,453.0,176.0,457.0" stroke="black" stroke-width="2" fill="none" />
<polyline points="173.5,460.5,169.5,453.5" stroke="black" stroke-width="2" fill="none" />
<polyline points="169.5,452.5,172.0,457.0,172.0,462.5,170.5,467.0,167.0,468.5" stroke="black" stroke-width="2" fill="none" />
<polyline points="166.5,470.0,162.0,470.0,156.0,473.0,152.0,470.0,147.5,464.0,144.0,455.5,140.0,453.0,137.0,458.0,133.0,466.5" stroke="black" stroke-width="2" fill="none" />
<polyline points="139.5,464.5,141.0,469.0,144.0,473.0,148.0,476.5,153.0,480.0,154.5,484.5,152.5,483.0,156.5,484.0,157.5,489.0,161.5,495.0,163.5,493.5,166.0,500.0" stroke="black" stroke-width="2" fill="none" />
<polyline points="166.5,498.0,162.5,496.0" stroke="black" stroke-width="2" fill="none" />
<polyline points="158.5,501.5,161.0,505.5,163.0,509.5" stroke="black" stroke-width="2" fill="none" />
<polyline points="164.0,505.0,165.5,506.0,168.0,510.0" stroke="black" stroke-width="2" fill="none" />
<polyline points="154.5,510.5,150.5,505.5" stroke="black" stroke-width="2" fill="none" />
<polyline points="155.0,497.0,151.0,491.5" stroke="black" stroke-width="2" fill="none" />
<polyline points="151.0,495.0,155.0,501.0" stroke="black" stroke-width="2" fill="none" />
<polyline points="154.5,491.5,154.0,486.0,150.0,482.5" stroke="black" stroke-width="2" fill="none" />
<polyline points="150.0,481.0,149.5,485.5,153.0,490.0,156.0,490.5,157.0,494.5,157.5,498.5,159.5,502.5,159.5,507.0,160.5,508.5,167.0,511.5" stroke="black" stroke-width="2" fill="none" />
<polyline points="151.5,510.0,147.5,500.0,143.5,495.0" stroke="black" stroke-width="2" fill="none" />
<polyline points="143.0,495.0,146.0,499.0,147.5,503.0,149.5,506.5,151.0,510.5" stroke="black" stroke-width="2" fill="none" />
<polyline points="155.5,506.5,152.0,503.5,148.5,496.5,147.0,491.0,143.0,482.0" stroke="black" stroke-width="2" fill="none" />
<polyline points="140.5,484.0,144.5,491.0,149.5,495.0,152.0,499.5,155.0,503.5,154.0,505.5" stroke="black" stroke-width="2" fill="none" />
<polyline points="174.0,509.0,170.0,505.5,165.5,503.0,161.5,502.5,158.0,500.0,153.5,498.5,151.5,494.0,147.0,492.0,145.0,488.0,143.5,483.5,140.5,477.0" stroke="black" stroke-width="2" fill="none" />
<polyline points="139.5,483.5,142.0,487.5,143.5,491.5,146.0,495.5,149.0,499.5,151.5,503.5,152.0,507.5,155.5,511.5" stroke="black" stroke-width="2" fill="none" />
<polyline points="143.0,513.5,144.0,509.5,142.0,505.0,141.0,501.0,139.5,496.5,135.0,491.5,134.5,486.0" stroke="black" stroke-width="2" fill="none" />
<polyline points="134.5,483.5,136.0,487.0,134.5,489.0,136.5,492.5,135.5,496.0,137.0,500.5,137.5,504.0" stroke="black" stroke-width="2" fill="none" />
<polyline points="137.0,494.0,137.0,486.5,133.5,483.0" stroke="black" stroke-width="2" fill="none" />
<polyline points="134.5,481.5,133.0,485.5,133.5,489.5,135.5,493.5,133.5,495.5,136.5,500.5,138.5,504.5,140.0,508.5,140.5,512.5" stroke="black" stroke-width="2" fill="none" />
<polyline points="131.5,508.0,127.5,499.5" stroke="black" stroke-width="2" fill="none" />
<polyline points="124.5,496.5,126.0,500.5,125.0,505.0,125.5,509.5" stroke="black" stroke-width="2" fill="none" />
<polyline points="124.0,510.0,124.5,506.0,124.5,501.5,124.5,497.5,124.0,492.0,124.0,489.5" stroke="black" stroke-width="2" fill="none" />
<polyline points="122.5,483.5,123.5,487.5,125.5,491.5,128.0,495.0,129.5,499.0,131.0,502.5,132.5,507.0,135.5,511.5" stroke="black" stroke-width="2" fill="none" />
<polyline points="131.0,511.0,127.0,505.5,122.5,497.5" stroke="black" stroke-width="2" fill="none" />
<polyline points="127.0,505.0,129.5,508.5,132.5,513.0" stroke="black" stroke-width="2" fill="none" />
<polyline points="109.5,509.0,110.0,504.5,111.0,500.5,111.0,496.5,112.5,492.5,112.0,488.5,112.0,486.5" stroke="black" stroke-width="2" fill="none" />
<polyline points="114.0,488.0,114.0,492.0,113.5,496.0,112.5,500.0,112.0,504.0,111.5,508.5,110.5,512.5" stroke="black" stroke-width="2" fill="none" />
<polyline points="104.5,505.5,100.5,501.0" stroke="black" stroke-width="2" fill="none" />
<polyline points="100.5,492.0,99.5,495.5,100.5,499.5,103.0,503.5,105.0,507.5,106.5,512.0" stroke="black" stroke-width="2" fill="none" />
<polyline points="105.0,510.5,103.0,506.5,101.0,502.5,99.0,498.5,98.5,494.0,97.0,489.5" stroke="black" stroke-width="2" fill="none" />
<polyline points="94.5,469.0,91.0,473.0,92.0,472.0,95.5,468.0" stroke="black" stroke-width="2" fill="none" />
<polyline points="94.5,454.0,89.0,458.0,87.5,459.0,91.0,456.0,95.0,453.5" stroke="black" stroke-width="2" fill="none" />
<polyline points="95.0,451.5,90.5,455.5,84.0,459.0,85.5,458.0,89.5,455.5,93.0,452.0" stroke="black" stroke-width="2" fill="none" />
<polyline points="103.0,446.5,104.0,442.5,105.0,438.0" stroke="black" stroke-width="2" fill="none" />
<polyline points="104.0,436.0,102.0,440.0,99.0,443.0,103.0,439.0" stroke="black" stroke-width="2" fill="none" />
<polyline points="109.0,440.5,110.0,442.0,110.5,446.0" stroke="black" stroke-width="2" fill="none" />
<polyline points="120.0,452.5,122.0,451.0,123.0,455.0" stroke="black" stroke-width="2" fill="none" />
<polyline points="124.5,456.5,122.0,452.5" stroke="black" stroke-width="2" fill="none" />
<polyline points="120.0,443.0,121.5,439.5" stroke="black" stroke-width="2" fill="none" />
<polyline points="119.0,436.0,118.5,442.0,117.5,441.5,119.0,437.5,120.5,433.5,121.0,429.5" stroke="black" stroke-width="2" fill="none" />
<polyline points="116.5,429.5,116.5,425.5" stroke="black" stroke-width="2" fill="none" />
<polyline points="121.0,421.5,125.0,426.5,129.0,430.0" stroke="black" stroke-width="2" fill="none" />
<polyline points="137.5,428.5,138.5,430.5,140.0,434.0" stroke="black" stroke-width="2" fill="none" />
<polyline points="141.0,422.5,144.5,430.0,150.5,439.5" stroke="black" stroke-width="2" fill="none" />
<polyline points="152.0,447.5,147.5,442.5,145.0,437.5,138.0,428.0,134.0,423.5,130.0,420.5" stroke="black" stroke-width="2" fill="none" />
<polyline points="132.0,419.5,134.5,423.5,135.0,427.5,137.0,431.5,138.0,435.5,141.0,441.0,141.5,445.0,140.0,449.0,138.5,453.0,136.5,457.0,134.5,461.0,133.0,465.0,134.0,456.0" stroke="black" stroke-width="2" fill="none" />
<polyline points="140.5,452.0,143.0,456.0,143.5,459.5,143.5,463.5,145.0,467.0,146.5,471.0,149.5,475.0,154.0,478.0" stroke="black" stroke-width="2" fill="none" />
<polyline points="157.0,474.0,153.0,471.5,148.5,465.0" stroke="black" stroke-width="2" fill="none" />
<polyline points="149.0,467.5,152.0,471.5,157.0,476.0" stroke="black" stroke-width="2" fill="none" />
<polyline points="154.5,474.5,151.0,473.5,147.0,467.5,143.5,465.0,139.5,463.5" stroke="black" stroke-width="2" fill="none" />
<polyline points="149.5,460.0,156.0,466.5" stroke="black" stroke-width="2" fill="none" />
<polyline points="160.0,460.5,156.0,458.0" stroke="black" stroke-width="2" fill="none" />
<polyline points="160.0,461.5,154.0,457.0,154.5,455.0,153.5,451.0,152.5,447.0,150.0,443.5,145.5,439.0,144.5,434.5,145.0,430.5,142.5,427.0,140.5,423.5,138.5,423.5,135.0,418.5,131.0,414.0" stroke="black" stroke-width="2" fill="none" />
<polyline points="130.5,411.0,134.5,406.5,140.0,401.5,144.0,398.0" stroke="black" stroke-width="2" fill="none" />
<polyline points="143.0,398.5,143.5,394.0" stroke="black" stroke-width="2" fill="none" />
<polyline points="144.0,393.5,147.0,397.5,150.0,405.5" stroke="black" stroke-width="2" fill="none" />
<polyline points="156.5,400.0,153.0,396.0,151.0,397.0" stroke="black" stroke-width="2" fill="none" />
<polyline points="148.5,401.5,144.0,397.5,141.0,395.5,136.5,401.5,130.0,399.5,126.0,399.0,122.5,397.5,119.0,393.0" stroke="black" stroke-width="2" fill="none" />
<polyline points="119.0,390.0,123.0,396.0,124.5,398.0,127.0,402.0" stroke="black" stroke-width="2" fill="none" />
<polyline points="126.5,403.5,122.0,399.5,119.0,395.0,119.0,390.5,120.5,387.0,120.5,382.5,119.5,379.0,120.5,375.0,119.0,374.5,119.5,370.5,119.0,371.5" stroke="black" stroke-width="2" fill="none" />
<polyline points="120.0,366.5,124.0,372.0,124.0,377.0,127.5,380.0" stroke="black" stroke-width="2" fill="none" />
<polyline points="128.0,377.0,124.0,370.5,120.0,364.5" stroke="black" stroke-width="2" fill="none" />
<polyline points="121.0,363.0,120.0,367.0,122.0,371.0,124.5,375.0,126.0,379.0,130.5,383.0,131.5,386.5,133.0,390.5,133.0,395.0,134.5,398.0" stroke="black" stroke-width="2" fill="none" />
<polyline points="135.5,394.0,131.5,398.5,127.5,397.0,123.5,393.5" stroke="black" stroke-width="2" fill="none" />
<polyline points="123.5,390.5,127.5,389.0,134.5,391.0" stroke="black" stroke-width="2" fill="none" />
<polyline points="144.0,392.0,142.0,395.5,139.5,399.5,137.5,404.0,133.5,408.0,130.0,412.5,130.0,415.0,133.0,418.5,135.5,421.5,138.5,425.0,140.0,429.5,141.0,434.0,138.5,439.5,139.5,443.0,138.5,447.0,138.5,451.0,137.0,454.5,133.5,457.5,132.5,461.5,136.5,465.5,137.5,466.0,141.0,467.0,145.5,472.5,149.5,476.5,153.5,479.0,157.5,482.0,162.0,483.0,165.5,486.5,168.5,490.5" stroke="black" stroke-width="2" fill="none" />
<polyline points="168.0,491.0,166.5,487.0,159.5,484.0" stroke="black" stroke-width="2" fill="none" />
<polyline points="165.5,477.5,163.5,481.5,166.0,479.5,169.0,480.0" stroke="black" stroke-width="2" fill="none" />
<polyline points="164.0,469.5,168.0,473.5,169.5,477.5,167.0,481.0,165.5,485.5,167.5,489.5,169.0,492.0" stroke="black" stroke-width="2" fill="none" />
<polyline points="194.0,492.0,198.5,491.5,202.5,491.0,206.5,489.5,210.5,488.0,215.0,485.0,218.5,481.5,222.0,477.0,226.5,471.5,230.5,465.5" stroke="black" stroke-width="2" fill="none" />
<polyline points="232.5,466.5,237.0,459.0" stroke="black" stroke-width="2" fill="none" />
<polyline points="210.0,486.5,215.5,482.5,219.5,479.0,223.0,474.5,226.0,470.0,229.0,465.5,231.0,461.5,233.0,457.5,234.0,454.0,234.5,450.5,235.5,447.0,236.5,443.5,237.0,439.5,237.5,435.0,237.0,431.0,237.0,427.0,236.5,422.5,235.5,419.0,235.0,415.0,233.5,411.0,232.0,407.5,231.5,405.0" stroke="black" stroke-width="2" fill="none" />
<polyline points="228.0,415.0,227.0,419.0" stroke="black" stroke-width="2" fill="none" />
<polyline points="223.5,416.0,222.5,415.0,222.5,411.0" stroke="black" stroke-width="2" fill="none" />
<polyline points="244.0,410.0,243.5,414.0,243.5,417.5,243.0,421.5,242.5,425.5,242.0,429.5,241.5,433.5,240.5,438.0,240.5,442.5,240.5,446.5,239.0,450.5,238.5,454.5,237.0,458.0,235.0,462.5,232.5,466.5,231.5,470.5,229.0,474.5,226.0,478.0,222.0,482.5,218.0,486.5,210.5,490.0" stroke="black" stroke-width="2" fill="none" />
<polyline points="197.5,493.5,193.5,496.5,197.5,493.5,201.5,493.5,206.0,492.5,210.0,491.5,214.5,489.5,218.5,487.0,223.0,482.5,227.0,478.0,231.5,470.5" stroke="black" stroke-width="2" fill="none" />
<polyline points="178.5,460.5,174.5,458.0,170.5,450.5,167.0,444.0" stroke="black" stroke-width="2" fill="none" />
<polyline points="164.5,443.0,163.0,443.5,161.0,447.0,159.0,450.5,159.5,454.5,160.5,457.5,163.0,461.5" stroke="black" stroke-width="2" fill="none" />
<polyline points="168.0,461.5,172.0,463.0" stroke="black" stroke-width="2" fill="none" />
<polyline points="177.0,465.0,178.5,460.5,180.0,456.5,174.0,459.5,172.0,456.0,170.0,452.0,168.5,449.5,166.0,446.0,166.0,443.0,166.5,438.0,166.5,434.0,167.5,434.5" stroke="black" stroke-width="2" fill="none" />
<polyline points="167.5,427.5,172.0,434.0,176.5,434.5" stroke="black" stroke-width="2" fill="none" />
<polyline points="178.5,426.0,177.5,422.5,175.5,418.5,176.5,415.0,173.5,414.0,170.5,410.0,167.5,406.0,164.0,402.0,164.5,398.0,166.0,401.5" stroke="black" stroke-width="2" fill="none" />
<polyline points="167.5,403.0,171.5,407.0,173.0,411.5,170.5,416.0,168.5,420.0,167.0,424.0,164.0,424.0,163.5,428.5,164.0,433.0,160.0,436.0,164.5,430.5,167.5,426.0,170.0,424.0,172.0,428.0" stroke="black" stroke-width="2" fill="none" />
<polyline points="170.5,428.0,170.0,424.5,166.5,418.5,169.0,414.5,168.0,410.0,165.5,406.0,161.5,406.0" stroke="black" stroke-width="2" fill="none" />
<polyline points="163.5,407.5,167.5,414.0" stroke="black" stroke-width="2" fill="none" />
<polyline points="171.0,417.0,173.0,421.0,176.0,425.5,176.5,429.5,176.5,433.5,175.0,437.5,172.5,440.0,173.0,441.5,173.0,447.0,173.5,450.5,174.0,454.5,177.0,458.0,174.0,463.0,174.5,467.0,170.0,466.0,173.5,468.5" stroke="black" stroke-width="2" fill="none" />
<polyline points="164.0,457.0,163.0,458.5,163.5,454.5,164.0,451.0,161.0,451.5,160.5,449.5" stroke="black" stroke-width="2" fill="none" />
<polyline points="155.5,452.5,152.0,451.5,148.0,451.0,144.0,448.5" stroke="black" stroke-width="2" fill="none" />
<polyline points="145.0,449.5,148.0,453.5,151.5,454.5,152.0,459.0,153.0,455.5,157.0,456.0,162.5,455.0" stroke="black" stroke-width="2" fill="none" />
<polyline points="172.0,460.0,168.0,454.0,164.0,452.0,163.5,447.5,159.5,450.0,156.5,447.5,156.5,449.0,157.5,445.5,155.0,441.0,155.0,437.0,151.0,437.0,149.0,433.0,148.0,429.5,150.5,427.0,145.5,422.5,140.0,420.5" stroke="black" stroke-width="2" fill="none" />
<polyline points="141.5,420.0,145.5,422.5" stroke="black" stroke-width="2" fill="none" />
<polyline points="148.5,412.5,145.0,407.5,141.0,403.5" stroke="black" stroke-width="2" fill="none" />
<polyline points="141.5,402.0,145.5,405.5" stroke="black" stroke-width="2" fill="none" />
<polyline points="144.5,405.0,140.5,401.0" stroke="black" stroke-width="2" fill="none" />
<polyline points="139.0,399.5,140.5,403.0,144.5,407.0,149.0,411.5" stroke="black" stroke-width="2" fill="none" />
<polyline points="139.5,409.0,143.0,413.0,147.0,418.0,151.0,423.5" stroke="black" stroke-width="2" fill="none" />
<polyline points="162.5,424.0,160.5,426.5,160.5,422.0,162.5,418.0,162.0,424.5,164.0,420.5,163.5,417.0,162.5,413.0,162.5,409.0,161.0,405.0,161.0,401.5,162.0,397.5,160.5,393.0,157.0,387.5,156.5,382.5,155.0,378.5,153.0,375.0,152.5,371.0,152.0,367.0,148.0,361.0" stroke="black" stroke-width="2" fill="none" />
<polyline points="148.5,362.0,151.0,366.0,151.5,368.0,151.0,372.0,151.0,376.0,151.0,380.0,150.5,384.0,149.5,384.5,154.0,388.0,158.0,390.5,161.5,395.5,167.5,398.0,171.0,401.5,175.0,409.0" stroke="black" stroke-width="2" fill="none" />
<polyline points="174.5,421.5,171.0,414.5,162.5,413.5,158.5,408.5,154.5,403.5,151.0,401.5,148.0,396.0,148.0,389.5,143.5,385.0,141.0,391.0,137.5,388.0,137.0,384.0,141.0,381.0,138.5,377.0,135.5,373.5,133.5,372.5,137.0,369.0,141.0,364.5,141.0,360.5,141.0,357.0,141.0,354.0,135.5,351.5,132.5,346.5,129.5,342.0,131.0,338.0,129.0,334.0,130.5,330.0,129.0,326.0,126.0,320.5" stroke="black" stroke-width="2" fill="none" />
<polyline points="118.5,322.0,119.0,326.0,119.5,330.5,120.0,335.0,121.0,339.0,121.5,340.5" stroke="black" stroke-width="2" fill="none" />
<polyline points="120.5,341.0,121.0,343.5,121.0,346.0" stroke="black" stroke-width="2" fill="none" />
<polyline points="117.0,344.0,121.0,350.0,120.0,357.5,120.5,361.5,119.0,365.0,118.0,369.0,118.0,373.0,117.5,377.0,117.5,381.0,117.5,384.5,118.5,388.5,118.0,392.5,119.0,397.0,123.0,402.5,127.0,404.5" stroke="black" stroke-width="2" fill="none" />
<polyline points="124.0,406.5,121.0,410.5" stroke="black" stroke-width="2" fill="none" />
<polyline points="123.0,415.5,127.0,423.0,130.5,426.0" stroke="black" stroke-width="2" fill="none" />
<polyline points="132.0,427.5,130.5,423.5,129.5,420.0,125.5,415.0" stroke="black" stroke-width="2" fill="none" />
<polyline points="126.5,412.5,130.5,407.5,135.0,403.0" stroke="black" stroke-width="2" fill="none" />
<polyline points="131.5,406.5,135.0,402.5,135.5,395.5,139.0,394.0,143.0,390.0,143.5,386.0,143.0,385.0,145.5,379.5,147.0,374.0,148.0,370.0,148.0,366.0,146.0,362.0,145.5,358.0,145.5,354.0,144.0,352.5,142.5,349.0,139.0,345.0,137.5,340.0,136.0,336.0,135.0,331.5,135.0,327.5,134.0,322.5,133.5,318.5,132.0,315.0,131.5,311.5,130.5,307.5,130.0,303.5,128.5,296.5,132.5,293.0,136.0,291.0,138.0,287.5,131.5,284.0,127.5,278.0" stroke="black" stroke-width="2" fill="none" />
<polyline points="130.0,280.5,133.5,280.0,137.5,278.0,142.0,276.5" stroke="black" stroke-width="2" fill="none" />
<polyline points="139.0,275.0,143.0,274.0,149.5,270.5,153.5,266.0" stroke="black" stroke-width="2" fill="none" />
<polyline points="155.0,268.5,157.0,272.5" stroke="black" stroke-width="2" fill="none" />
<polyline points="151.5,273.0,155.5,273.5,159.5,271.5,163.5,278.5" stroke="black" stroke-width="2" fill="none" />
<polyline points="167.0,279.5,165.5,278.5,168.0,274.0,167.5,270.0,168.0,266.0,169.0,262.0,169.5,258.0,171.0,254.0,173.5,250.0,169.5,255.5" stroke="black" stroke-width="2" fill="none" />
<polyline points="166.0,257.0,170.0,253.5,174.5,246.5" stroke="black" stroke-width="2" fill="none" />
<polyline points="175.0,253.0,176.0,257.0,176.0,260.5,176.0,264.0" stroke="black" stroke-width="2" fill="none" />
<polyline points="178.0,263.0,174.0,256.0" stroke="black" stroke-width="2" fill="none" />
<polyline points="177.5,256.5,182.0,263.5" stroke="black" stroke-width="2" fill="none" />
<polyline points="180.0,265.0,177.5,261.0" stroke="black" stroke-width="2" fill="none" />
<polyline points="177.0,262.0,177.0,258.0" stroke="black" stroke-width="2" fill="none" />
<polyline points="185.0,253.0,186.5,256.5,186.0,260.5,186.5,264.5,187.5,268.5" stroke="black" stroke-width="2" fill="none" />
<polyline points="198.0,257.0,202.5,260.5,206.5,263.0" stroke="black" stroke-width="2" fill="none" />
<polyline points="211.5,254.5,208.5,250.0,205.5,248.5,206.5,245.0,208.0,241.5,209.0,237.5,210.5,233.5,209.0,238.0" stroke="black" stroke-width="2" fill="none" />
<polyline points="210.5,239.0,211.0,237.0,210.0,241.0,209.0,244.5,209.0,245.5" stroke="black" stroke-width="2" fill="none" />
<polyline points="206.0,249.0,208.0,250.0" stroke="black" stroke-width="2" fill="none" />
<polyline points="205.5,248.5,209.5,253.0,213.5,255.5" stroke="black" stroke-width="2" fill="none" />
<polyline points="220.0,249.5,221.0,245.5,223.5,241.5,223.5,237.5,226.5,233.5,221.0,233.5,223.5,230.5,221.0,229.5,220.5,225.5,220.5,221.5,220.0,217.5,220.5,213.5" stroke="black" stroke-width="2" fill="none" />
<polyline points="219.0,215.5,218.5,219.5,219.0,223.5,217.0,226.0,221.0,231.0,226.0,230.5,231.5,234.5" stroke="black" stroke-width="2" fill="none" />
<polyline points="236.5,243.0,240.0,239.0,242.5,235.0,245.5,231.0,249.5,227.0,253.0,223.0,257.0,219.0,259.0,214.0,259.5,209.5,261.0,205.0,262.5,201.0,264.5,201.0,260.5,208.5" stroke="black" stroke-width="2" fill="none" />
<polyline points="261.5,208.5,265.5,204.5" stroke="black" stroke-width="2" fill="none" />
<polyline points="263.0,200.5,259.0,208.0,256.5,214.5,252.0,218.5,248.0,222.5,244.0,227.0,240.0,231.5,236.0,236.5,232.5,236.5,232.0,235.5,231.0,231.5,230.5,227.5,230.0,223.0,228.5,219.0,227.0,214.5,225.0,214.5,224.0,210.5,224.5,206.5,225.0,202.5" stroke="black" stroke-width="2" fill="none" />
<polyline points="221.5,205.5,225.5,200.5,228.5,198.0,224.5,202.0,221.5,206.0,220.5,210.0,222.5,212.5,222.5,215.5,223.5,219.5,226.0,223.5,227.0,227.5,228.0,231.5,229.5,235.5,232.5,239.5,229.5,243.5,226.5,247.5,223.5,251.5,220.5,255.5,218.5,259.5,216.0,263.5,214.0,268.0,211.5,272.0,209.0,276.5,206.5,280.5,204.5,285.0,202.5,289.0,200.5,293.0,199.0,296.5,197.0,300.0,196.0,304.5,194.0,308.5,192.5,312.5,189.5,316.0,191.5,319.0,196.0,320.5,200.0,319.0,206.0,313.0,210.0,308.0,214.5,301.5,218.5,296.0,222.5,290.5,226.5,285.5,230.0,281.0,233.5,277.5,237.0,273.5,241.0,269.0,245.0,265.5,248.5,260.5,252.5,257.0,256.5,253.5,261.0,250.0,264.5,248.0,268.5,245.5,273.5,246.0,277.5,249.0,281.5,250.0,285.5,250.5,290.0,250.5,294.0,253.0,298.5,256.0" stroke="black" stroke-width="2" fill="none" />
<polyline points="288.0,271.5,284.0,269.0,280.5,265.0,276.0,263.5,272.0,265.0" stroke="black" stroke-width="2" fill="none" />
<polyline points="269.0,266.0,268.5,266.0,270.0,270.0" stroke="black" stroke-width="2" fill="none" />
<polyline points="272.0,266.0,267.0,269.5,263.0,267.0" stroke="black" stroke-width="2" fill="none" />
<polyline points="261.0,267.5,265.0,272.5,269.5,273.0,273.5,269.5,274.5,268.5,271.5,272.5,271.5,277.5,274.0,281.5,275.5,282.0" stroke="black" stroke-width="2" fill="none" />
<polyline points="282.5,277.5,286.5,277.5" stroke="black" stroke-width="2" fill="none" />
<polyline points="277.5,281.0,279.0,275.5,282.5,272.0,278.0,279.5,274.5,279.0,270.5,276.5,267.5,278.0,263.5,276.5,256.5,278.0,254.0,273.5,250.5,269.5,252.5,265.0,249.5,266.5" stroke="black" stroke-width="2" fill="none" />
<polyline points="247.5,268.0,251.5,270.5,255.5,274.0,259.5,272.0" stroke="black" stroke-width="2" fill="none" />
<polyline points="257.5,266.0,258.0,266.0,259.0,270.5,258.5,274.5,263.5,277.0,262.5,281.5" stroke="black" stroke-width="2" fill="none" />
<polyline points="268.5,271.5,264.5,270.0,263.5,269.0,265.0,268.0" stroke="black" stroke-width="2" fill="none" />
<polyline points="260.0,265.5,261.5,270.0,266.5,274.0,267.0,281.5" stroke="black" stroke-width="2" fill="none" />
<polyline points="277.5,264.0,282.5,268.0,285.0,272.0,286.5,275.5,287.5,278.0,287.0,279.0,289.5,275.5" stroke="black" stroke-width="2" fill="none" />
<polyline points="280.0,255.5,276.0,257.0,272.0,254.0,269.5,255.5,265.5,257.0,261.5,256.0,259.0,258.5,254.5,259.0" stroke="black" stroke-width="2" fill="none" />
<polyline points="262.0,237.5,262.0,233.5,262.5,230.0,262.0,226.5,262.0,225.5,258.0,225.0,252.5,230.0,248.5,234.0,244.5,238.5,240.5,243.5,236.5,248.0,232.5,253.5,228.5,258.5,224.5,265.0,220.5,271.5,216.5,279.5,214.0,283.5,216.0,279.5,218.5,275.5,220.5,271.5,223.5,267.0,226.0,263.0,228.5,259.5,232.5,255.5,235.5,252.0,238.5,248.0,242.0,243.5,245.5,239.5,248.5,235.5,252.0,231.5,256.5,226.5,260.5,222.5,262.5,218.5,264.0,217.0,262.0,215.5,263.0,211.5,263.5,207.5,267.5,203.0,269.5,199.0,270.5,195.0,271.0,191.0,270.5,187.0,265.5,192.0,261.5,196.5,257.5,201.0,254.0,202.0" stroke="black" stroke-width="2" fill="none" />
<polyline points="253.0,201.5,256.5,197.5" stroke="black" stroke-width="2" fill="none" />
<polyline points="264.5,199.0,263.0,203.5,261.5,207.5,260.0,211.5,260.5,215.5,259.5,220.0,255.5,224.5,251.0,228.5,248.0,232.5,244.5,236.0,241.0,240.0,238.0,244.0,235.5,248.0,232.0,252.0,229.0,256.0,226.5,260.0,223.5,263.5,222.0,267.0,220.0,270.5,216.5,274.5,214.5,278.5,212.5,282.5,211.0,286.5,209.0,291.0,207.5,296.0,205.0,300.5,203.5,304.0,201.0,308.0,199.5,312.0,197.5,316.0,200.5,319.5,200.0,312.0,203.5,302.0,207.5,293.5,211.5,285.0,215.5,277.0,219.5,270.5,223.0,263.5,227.0,257.5,231.0,251.5,235.0,246.5,239.0,241.5,243.0,237.5,246.5,233.0,251.0,228.5,255.0,224.0,259.0,220.5,262.5,216.0,264.0,212.0,268.5,204.5,272.5,201.5,276.5,198.5,280.5,195.0,284.5,191.5,288.0,188.5,292.0,185.0,296.0,182.0,300.0,178.5,303.5,176.5,307.5,174.0" stroke="black" stroke-width="2" fill="none" />
<polyline points="311.5,175.0,308.0,178.5,301.5,182.5,297.0,186.5,292.0,190.5,288.0,194.5,283.0,198.0,278.5,202.0,274.0,205.5,273.0,209.5,273.0,213.5,269.5,215.5" stroke="black" stroke-width="2" fill="none" />
<polyline points="269.0,214.0,269.0,212.5,273.5,208.0,277.5,204.0,281.5,200.0,285.5,195.5,290.0,192.0,294.0,188.0,298.0,185.0,302.0,181.5,306.5,179.5,310.0,177.5" stroke="black" stroke-width="2" fill="none" />
<polyline points="312.5,172.5,306.0,176.5,300.0,180.5,295.0,184.5,290.0,188.0,285.0,192.0,280.5,196.0,275.5,199.5,270.0,203.5,267.0,208.5,270.0,208.5,267.0,212.5,266.0,217.5,265.5,222.0,264.5,224.0,264.0,228.5,264.5,232.5,263.5,236.0,263.5,240.0" stroke="black" stroke-width="2" fill="none" />
<polyline points="265.5,239.5,265.5,235.0" stroke="black" stroke-width="2" fill="none" />
<polyline points="266.5,224.5,262.5,220.0" stroke="black" stroke-width="2" fill="none" />
<polyline points="251.0,213.0,247.5,213.5,243.0,213.0" stroke="black" stroke-width="2" fill="none" />
<polyline points="236.5,207.5,236.5,204.0,238.5,200.0,236.0,201.5" stroke="black" stroke-width="2" fill="none" />
<polyline points="239.0,203.0,238.0,207.0" stroke="black" stroke-width="2" fill="none" />
<polyline points="245.0,200.0,248.5,194.5,252.0,191.0,255.5,189.5,250.0,189.0,246.5,193.0,243.5,194.5,248.0,190.5,251.5,189.0,255.5,184.0,256.5,187.5,260.5,184.0,264.5,181.5,268.5,180.0" stroke="black" stroke-width="2" fill="none" />
<polyline points="268.5,179.5,264.0,183.5,258.0,188.0,254.5,190.5,253.5,194.5,249.5,198.5,247.0,203.0,246.5,203.5,250.5,204.0,250.5,200.5,255.0,196.5,258.5,192.5,262.5,189.0,266.5,186.5,271.0,188.0" stroke="black" stroke-width="2" fill="none" />
<polyline points="268.5,190.5,264.0,192.0,260.0,195.5,257.0,202.5,260.5,198.5,264.0,194.0,266.5,190.0" stroke="black" stroke-width="2" fill="none" />
<polyline points="266.0,190.5,261.5,194.0,259.0,198.0,254.0,201.5,253.0,206.0,252.5,210.0,254.0,215.0,254.0,217.5" stroke="black" stroke-width="2" fill="none" />
<polyline points="234.5,225.0,230.5,223.0" stroke="black" stroke-width="2" fill="none" />
<polyline points="232.5,222.0,228.5,220.0" stroke="black" stroke-width="2" fill="none" />
<polyline points="225.5,216.0,223.0,221.0,227.5,229.0" stroke="black" stroke-width="2" fill="none" />
<polyline points="218.0,233.0,219.0,237.0" stroke="black" stroke-width="2" fill="none" />
<polyline points="218.0,233.0,221.5,232.0,222.5,236.0,223.0,240.0,221.0,244.5,219.5,248.5" stroke="black" stroke-width="2" fill="none" />
<polyline points="215.5,250.0,215.0,246.0,214.5,242.0,211.0,238.5,211.0,236.0" stroke="black" stroke-width="2" fill="none" />
<polyline points="213.0,237.5,213.5,241.5,213.0,245.5,212.0,249.5,213.5,251.0,213.5,255.5,214.5,256.5" stroke="black" stroke-width="2" fill="none" />
<polyline points="218.0,253.5,215.5,250.0,215.0,246.0" stroke="black" stroke-width="2" fill="none" />
<polyline points="209.0,226.5,205.0,221.0" stroke="black" stroke-width="2" fill="none" />
<polyline points="209.5,216.0,213.5,222.0" stroke="black" stroke-width="2" fill="none" />
<polyline points="213.0,215.5,215.0,219.5,216.5,226.5,219.5,230.5,218.0,235.0" stroke="black" stroke-width="2" fill="none" />
<polyline points="231.0,243.0,227.0,248.0,222.5,255.0,218.5,261.5,214.5,268.5,211.0,274.5,207.0,281.0,203.5,288.5,199.5,296.0,195.0,304.5,191.0,313.5,187.0,317.5,183.0,325.5,179.0,329.5,175.0,329.5,171.0,330.5,167.0,333.0,163.0,340.5,159.5,342.5,155.5,345.5,151.5,351.5,147.5,348.5" stroke="black" stroke-width="2" fill="none" />
<polyline points="145.5,342.5,148.0,338.5,146.0,338.0,149.0,336.0,148.5,331.5,150.5,328.0,149.0,329.0" stroke="black" stroke-width="2" fill="none" />
<polyline points="149.5,328.0,152.5,332.0,152.0,337.0" stroke="black" stroke-width="2" fill="none" />
<polyline points="149.0,341.0,147.5,345.0,147.0,349.0,145.5,353.0" stroke="black" stroke-width="2" fill="none" />
<polyline points="138.5,351.5,135.0,347.5,131.0,342.5" stroke="black" stroke-width="2" fill="none" />
<polyline points="131.0,341.5,136.0,339.0,140.0,343.5" stroke="black" stroke-width="2" fill="none" />
<polyline points="142.5,339.0,140.0,342.0,139.0,338.0,138.0,331.0" stroke="black" stroke-width="2" fill="none" />
<polyline points="127.0,334.0,133.5,332.5,134.5,336.5,135.5,340.5,136.0,344.5,139.5,348.5,138.0,354.5,141.5,355.5,141.5,361.5,145.0,365.5" stroke="black" stroke-width="2" fill="none" />
<polyline points="142.5,365.5,146.5,368.0" stroke="black" stroke-width="2" fill="none" />
<polyline points="146.5,367.0,143.0,362.5" stroke="black" stroke-width="2" fill="none" />
<polyline points="135.5,362.5,131.5,358.5" stroke="black" stroke-width="2" fill="none" />
<polyline points="134.5,356.5,130.0,353.0" stroke="black" stroke-width="2" fill="none" />
<polyline points="132.0,352.0,132.5,358.0,135.5,362.0,137.0,368.0" stroke="black" stroke-width="2" fill="none" />
<polyline points="134.5,372.5,138.5,377.5,140.5,383.5" stroke="black" stroke-width="2" fill="none" />
<polyline points="146.0,384.0,145.0,379.5,142.0,379.0,141.0,375.0,139.5,371.5,133.0,373.0" stroke="black" stroke-width="2" fill="none" />
<polyline points="130.5,374.5,127.0,367.0,123.0,359.5" stroke="black" stroke-width="2" fill="none" />
<polyline points="123.0,357.5,126.0,361.5,126.5,365.0,131.5,366.5,131.0,370.0,135.5,369.5,139.0,369.5,145.5,372.5" stroke="black" stroke-width="2" fill="none" />
<polyline points="153.0,380.0,151.5,382.5,155.5,385.5" stroke="black" stroke-width="2" fill="none" />
<polyline points="162.5,380.0,164.0,376.5,163.5,380.5,160.0,384.5,162.0,388.0,167.0,392.0,170.5,396.0,173.0,400.0,175.5,404.5,177.5,409.0,178.5,413.0,180.5,417.0,181.5,421.0,182.5,425.0,182.5,429.0,181.0,433.0,182.0,435.0,183.5,437.5,183.5,442.5,181.0,448.5,179.5,448.5,178.5,450.0,182.5,447.5,187.0,448.5,191.0,449.0,195.5,449.5,199.0,451.5" stroke="black" stroke-width="2" fill="none" />
<polyline points="198.0,432.0,197.0,428.0" stroke="black" stroke-width="2" fill="none" />
<polyline points="197.5,423.5,197.0,427.5,195.0,429.0,194.0,432.5" stroke="black" stroke-width="2" fill="none" />
<polyline points="192.5,433.5,192.5,429.5,192.5,425.0" stroke="black" stroke-width="2" fill="none" />
<polyline points="174.5,438.5,170.0,438.5,170.5,437.0,171.5,433.5,169.5,429.5,168.5,426.0" stroke="black" stroke-width="2" fill="none" />
<polyline points="163.5,428.5,160.5,432.5,162.0,433.0,168.5,433.5" stroke="black" stroke-width="2" fill="none" />
<polyline points="163.5,444.0,165.0,448.5,166.0,452.5,167.5,457.0,170.5,460.5,167.0,463.5,166.0,467.0,161.0,469.5,162.0,473.5,160.5,477.5,158.0,478.5,158.0,481.5,157.5,485.5,159.0,490.0,163.5,494.5,165.0,499.0,167.0,505.5,171.0,509.5,171.5,513.0,172.5,512.5" stroke="black" stroke-width="2" fill="none" />
<polyline points="157.0,465.5,153.5,463.0,149.5,458.5" stroke="black" stroke-width="2" fill="none" />
<polyline points="151.0,460.0,154.5,465.5,156.5,466.0,157.5,472.5,159.5,475.5,158.0,475.0,163.5,476.0,165.0,471.5" stroke="black" stroke-width="2" fill="none" />
<polyline points="149.0,454.5,144.5,451.0" stroke="black" stroke-width="2" fill="none" />
<polyline points="146.5,448.0,147.0,452.0,149.5,456.0,150.0,460.5,151.0,465.0,150.0,468.0,154.0,470.0,157.0,474.0,156.5,477.5,160.5,478.5,164.5,476.0,168.5,476.0" stroke="black" stroke-width="2" fill="none" />
<polyline points="165.5,512.0,164.0,507.5,163.5,503.5,162.0,499.5,161.0,495.5,158.0,491.0,155.0,487.5,157.0,484.0,156.5,479.0,153.5,479.0,151.5,475.5,147.5,472.0,147.0,467.5,146.5,463.0,145.5,459.0,143.0,455.0,140.0,451.0" stroke="black" stroke-width="2" fill="none" />
<polyline points="129.0,427.0,128.5,423.0,128.5,419.0,125.5,415.5,127.0,411.0,128.5,407.0,123.5,407.5,120.0,411.5,116.0,412.5,112.0,412.5" stroke="black" stroke-width="2" fill="none" />
<polyline points="107.5,417.0,108.5,421.0,108.5,424.0,108.5,428.0,109.0,432.0,107.5,435.5,107.0,439.5,108.0,446.5" stroke="black" stroke-width="2" fill="none" />
<polyline points="102.5,435.0,98.0,439.5,95.0,444.5,93.0,443.5,92.5,447.5,93.0,443.5,98.0,440.0,102.5,436.0,104.5,432.0,105.5,428.0,106.0,423.5,106.0,419.5,110.0,417.5,106.0,419.0" stroke="black" stroke-width="2" fill="none" />
<polyline points="112.5,419.5,113.0,423.0,113.5,427.0,114.5,430.5,115.0,432.5" stroke="black" stroke-width="2" fill="none" />
<polyline points="125.5,424.5,122.5,420.5,121.0,416.5" stroke="black" stroke-width="2" fill="none" />
<polyline points="119.0,416.0,120.0,420.5,122.5,424.5,126.5,428.5" stroke="black" stroke-width="2" fill="none" />
<polyline points="149.0,428.5,150.0,424.5,147.5,420.5,144.5,416.5,141.5,413.0,138.0,409.0" stroke="black" stroke-width="2" fill="none" />
<polyline points="162.0,411.5,164.0,415.0,167.0,420.5" stroke="black" stroke-width="2" fill="none" />
<polyline points="179.0,425.0,178.5,421.0,178.0,416.5,176.0,412.5,175.0,408.5,173.0,404.5,169.5,400.5,166.5,399.5,165.0,395.5" stroke="black" stroke-width="2" fill="none" />
<polyline points="161.5,377.0,165.5,371.5,169.5,366.0,173.5,361.5,177.0,356.0,180.5,349.5,184.5,343.5,188.5,338.5,192.5,333.0,196.5,329.0,200.0,324.0" stroke="black" stroke-width="2" fill="none" />
<polyline points="197.5,318.0,201.5,316.5" stroke="black" stroke-width="2" fill="none" />
<polyline points="191.0,319.0,195.0,310.0,199.5,301.0,203.5,293.0,207.5,287.0,211.0,279.5,215.5,272.0,219.5,265.5,223.0,258.5,227.0,252.5,231.0,247.0,235.5,241.5,239.5,236.5,243.5,232.0,247.5,228.0,251.5,223.0,255.5,219.0" stroke="black" stroke-width="2" fill="none" />
<polyline points="239.0,194.5,243.0,189.5" stroke="black" stroke-width="2" fill="none" />
<polyline points="234.0,180.5,230.0,184.5,229.5,187.0,222.5,192.0,216.5,196.5,210.0,203.5,205.5,208.0,202.0,213.5,202.5,218.0,204.0,218.0,204.0,223.0,207.0,227.5" stroke="black" stroke-width="2" fill="none" />
<polyline points="198.5,235.0,194.5,241.0,190.0,244.5,186.5,246.5,191.5,243.0,195.5,239.5,197.5,235.5" stroke="black" stroke-width="2" fill="none" />
<polyline points="191.5,240.0,189.0,236.0,187.5,232.0,188.0,228.0,190.0,224.0,192.5,220.0,192.0,220.5,188.0,230.0" stroke="black" stroke-width="2" fill="none" />
<polyline points="185.5,234.0,189.5,240.0" stroke="black" stroke-width="2" fill="none" />
<polyline points="186.0,243.5,190.0,242.5,194.0,239.5,197.5,234.5,195.0,238.5,190.5,242.5,186.0,245.5,186.0,251.0,184.5,255.0,185.0,259.0,185.5,263.0,185.5,267.0,186.0,271.0,187.5,272.5" stroke="black" stroke-width="2" fill="none" />
<polyline points="176.5,285.5,177.0,284.0,173.0,283.5,171.0,283.0,167.5,283.5,164.0,289.0,157.5,284.0,155.5,280.0,152.5,278.5,150.5,276.0" stroke="black" stroke-width="2" fill="none" />
<polyline points="154.5,278.5,159.0,279.5,159.5,281.5" stroke="black" stroke-width="2" fill="none" />
<polyline points="157.0,282.5,160.5,286.0" stroke="black" stroke-width="2" fill="none" />
<polyline points="159.5,284.5,161.5,279.5,160.0,275.0,161.0,271.0,161.5,267.0,163.0,263.0,164.5,259.0,163.0,258.0" stroke="black" stroke-width="2" fill="none" />
<polyline points="164.0,266.0,165.5,260.5,164.5,264.0,167.5,269.0,167.0,273.0,167.5,277.5,167.0,277.5" stroke="black" stroke-width="2" fill="none" />
<polyline points="173.0,281.5,170.5,285.0,167.0,289.0,165.5,291.0" stroke="black" stroke-width="2" fill="none" />
<polyline points="170.5,293.5,174.5,293.0,177.0,291.5" stroke="black" stroke-width="2" fill="none" />
<polyline points="174.0,293.5,180.0,293.5,177.5,297.5,175.0,301.0,173.5,305.0,171.0,309.0,166.5,308.0" stroke="black" stroke-width="2" fill="none" />
<polyline points="172.5,309.5,171.0,313.5,167.5,315.5,171.0,313.0,174.0,314.0" stroke="black" stroke-width="2" fill="none" />
<polyline points="179.5,307.0,176.0,303.5" stroke="black" stroke-width="2" fill="none" />
<polyline points="177.0,301.0,176.5,305.0,179.0,306.5" stroke="black" stroke-width="2" fill="none" />
<polyline points="183.5,306.0,179.5,301.0" stroke="black" stroke-width="2" fill="none" />
<polyline points="175.5,300.5,178.0,300.5,181.0,305.0,183.5,309.0,181.0,311.0,182.5,312.5" stroke="black" stroke-width="2" fill="none" />
<polyline points="171.5,318.5,167.0,319.5,163.0,317.5" stroke="black" stroke-width="2" fill="none" />
<polyline points="162.0,315.5,160.5,311.5,159.0,311.0" stroke="black" stroke-width="2" fill="none" />
<polyline points="158.0,312.5,162.0,314.5" stroke="black" stroke-width="2" fill="none" />
<polyline points="155.5,313.5,155.5,314.5,156.0,318.5" stroke="black" stroke-width="2" fill="none" />
<polyline points="167.0,321.0,165.0,325.0,162.5,329.0,160.0,332.5,159.5,334.5,163.0,330.5" stroke="black" stroke-width="2" fill="none" />
<polyline points="165.0,332.5,167.5,333.5,166.0,337.5,164.5,341.5,170.0,338.0,174.5,335.5,178.5,333.5,182.0,332.5,179.5,336.5,178.0,340.5,175.0,344.5,172.0,348.5,169.0,352.5,166.0,356.0,163.0,360.0,161.5,363.5,161.0,367.5,164.5,367.5,168.0,362.0,165.5,365.5" stroke="black" stroke-width="2" fill="none" />
<polyline points="162.5,363.5,166.5,359.5,170.5,357.0,174.5,352.5,179.0,347.5,183.5,342.5,187.0,336.5" stroke="black" stroke-width="2" fill="none" />
<polyline points="190.0,330.0,186.0,330.0,181.5,331.5,177.5,338.0,173.0,344.0,169.0,349.0,165.0,355.0,160.5,360.5,158.5,370.0,161.0,366.5,165.0,362.0,170.5,358.0,174.0,354.0,178.0,350.5,180.5,346.5,183.5,342.5,186.0,338.5,185.0,334.5,188.0,334.0,190.5,330.0" stroke="black" stroke-width="2" fill="none" />
<polyline points="190.5,344.0,190.5,345.0,191.0,348.5,192.0,352.5" stroke="black" stroke-width="2" fill="none" />
<polyline points="194.5,356.0,193.5,352.0,192.5,348.0" stroke="black" stroke-width="2" fill="none" />
<polyline points="165.0,346.0,165.0,340.5,168.5,338.5,173.0,334.5,179.5,330.5,182.5,326.5,184.0,322.5,186.5,318.5,192.5,316.5,194.0,312.5,196.0,309.0,197.5,305.0,199.5,301.5,201.5,297.0,203.5,293.5,205.5,289.0,208.0,284.5,210.0,280.0,212.5,276.0,215.5,272.0,218.0,268.0,220.0,264.5,223.0,260.5,225.0,256.5,228.0,252.5,230.5,248.5,233.5,244.5,235.5,237.5,239.0,233.5,242.5,230.0,246.0,226.0,249.5,222.0,253.0,218.0,253.5,214.0,255.0,211.0,256.0,207.0,257.5,203.0,253.5,211.0,250.0,209.5,246.0,209.5,242.0,208.5,239.0,206.0,239.5,202.0,241.0,197.5,242.0,195.0,244.0,191.0,249.5,186.5,249.5,184.5,257.5,180.5,251.0,175.0,253.0,173.5,248.0,172.5,246.5,172.0,242.5,173.5" stroke="black" stroke-width="2" fill="none" />
<polyline points="246.5,172.0,243.0,176.5,242.5,180.0,240.0,184.0,234.5,187.0,238.5,184.0,243.5,181.5,247.5,181.0,251.5,178.0" stroke="black" stroke-width="2" fill="none" />
<polyline points="252.5,177.5,248.5,182.0,243.5,185.0,245.5,187.5,241.5,192.0,237.5,196.0,235.5,200.0,233.5,204.5,232.0,208.5,229.5,212.0,231.0,211.5,230.5,210.5,234.5,209.5" stroke="black" stroke-width="2" fill="none" />
<polyline points="225.5,194.0,218.5,198.0,212.5,204.0,208.5,207.5,207.0,211.0,207.5,211.0,211.0,204.5,214.5,202.5,218.0,197.5,222.0,195.0,226.0,193.0,230.0,192.0" stroke="black" stroke-width="2" fill="none" />
<polyline points="226.5,191.5,222.5,193.5,218.5,196.0,214.5,199.0,211.5,202.5,207.5,205.5,203.5,209.5" stroke="black" stroke-width="2" fill="none" />
<polyline points="200.0,204.0,196.0,203.5" stroke="black" stroke-width="2" fill="none" />
<polyline points="194.0,200.5,198.0,201.5,202.0,203.5" stroke="black" stroke-width="2" fill="none" />
<polyline points="202.5,203.0,198.5,201.5,194.5,200.0,191.0,199.0,189.0,199.5,185.5,202.5,181.5,207.5,181.0,209.0,183.5,205.5,187.5,201.0,190.5,200.5" stroke="black" stroke-width="2" fill="none" />
<polyline points="185.0,206.0,189.5,205.0,193.5,204.0,201.0,203.0" stroke="black" stroke-width="2" fill="none" />
<polyline points="205.0,191.0,209.5,186.0,213.5,182.0,217.0,178.5,221.5,175.0,226.0,174.5,230.0,174.5" stroke="black" stroke-width="2" fill="none" />
<polyline points="225.0,175.5,219.5,179.5,215.5,183.5,211.0,187.5,207.0,191.5,206.0,195.0,206.5,197.0,211.0,194.5,215.0,192.0,219.5,192.0,223.5,189.0,227.5,188.0,231.5,186.5,232.5,182.5,237.0,182.0" stroke="black" stroke-width="2" fill="none" />
<polyline points="235.0,177.5,237.0,176.5,239.0,172.5,236.0,174.5,232.0,173.5,227.5,172.5,223.0,172.0,219.5,173.0,215.5,176.0,211.5,181.0,207.5,186.0,203.5,190.5" stroke="black" stroke-width="2" fill="none" />
<polyline points="216.5,187.5,221.0,183.0" stroke="black" stroke-width="2" fill="none" />
<polyline points="226.0,185.5,221.5,185.5,218.5,189.5,218.0,193.5,210.5,197.5,214.5,195.5" stroke="black" stroke-width="2" fill="none" />
<polyline points="220.5,190.0,223.5,185.0,226.0,185.5" stroke="black" stroke-width="2" fill="none" />
<polyline points="225.5,179.0,221.0,183.0,218.0,187.0,215.5,191.0,210.5,195.5,207.5,199.5" stroke="black" stroke-width="2" fill="none" />
<polyline points="198.0,205.0,194.0,203.5,190.5,208.5,189.5,211.0,186.0,218.0,183.0,219.5,185.5,217.5,188.5,216.0,189.0,212.0,185.5,210.0,181.5,208.0" stroke="black" stroke-width="2" fill="none" />
<polyline points="181.0,214.0,181.0,215.5,182.0,219.5,180.5,223.5,181.0,220.0" stroke="black" stroke-width="2" fill="none" />
<polyline points="179.5,225.0,175.0,225.5,171.0,226.5,170.5,226.5,168.0,226.5,168.5,222.5" stroke="black" stroke-width="2" fill="none" />
<polyline points="167.0,226.5,163.0,227.5" stroke="black" stroke-width="2" fill="none" />
<polyline points="160.5,224.0,157.0,228.0,152.0,231.0,148.5,235.5,145.5,239.5,143.0,246.5,142.0,250.5,142.5,255.0,141.5,259.5,140.5,264.0,135.0,266.0,132.5,269.5,132.0,269.0,136.5,268.5" stroke="black" stroke-width="2" fill="none" />
<polyline points="137.0,270.5,139.0,266.5,135.5,265.0" stroke="black" stroke-width="2" fill="none" />
<polyline points="130.0,265.5,129.5,269.5,124.5,273.5,118.5,277.5,110.5,281.0,102.0,285.0,99.5,290.0,94.5,298.0,92.5,302.0,88.0,307.0,81.0,311.0,83.0,316.5,78.5,320.5,71.5,324.0,75.5,322.5,79.0,320.0,83.0,317.0,87.0,318.0" stroke="black" stroke-width="2" fill="none" />
<polyline points="89.5,322.5,94.0,323.0,91.0,327.0,94.0,325.5,91.5,329.5,86.5,335.0,83.0,339.0,79.5,343.0,76.5,347.0,73.5,351.0,70.5,355.0,66.5,358.5,63.5,360.0,63.5,363.5,67.0,361.5,70.5,357.5,75.0,353.0,79.0,347.0,82.5,342.5,86.5,338.0,89.5,339.5,89.0,343.0,88.5,346.5,87.5,350.5,84.0,354.5,82.0,358.5,79.0,362.5,77.0,366.5,77.0,371.0,82.5,374.0,83.0,369.5,87.0,361.0,91.0,353.5,95.0,347.5" stroke="black" stroke-width="2" fill="none" />
<polyline points="97.0,350.0,93.0,355.5" stroke="black" stroke-width="2" fill="none" />
<polyline points="96.5,355.5,96.0,359.5,95.5,363.0,94.0,367.0,92.0,371.5,91.5,375.0,88.5,379.0,87.0,383.0,86.0,386.5,87.5,390.5,87.5,395.0,89.5,399.0,92.5,403.0,90.0,406.0,91.0,407.5,95.0,409.5,99.5,410.0,104.0,410.0,108.5,406.0,115.0,400.0" stroke="black" stroke-width="2" fill="none" />
<polyline points="115.0,399.5,114.0,403.5,115.0,406.5" stroke="black" stroke-width="2" fill="none" />
<polyline points="111.5,405.5,110.0,406.5,112.0,402.5,114.0,398.0" stroke="black" stroke-width="2" fill="none" />
<polyline points="105.5,392.5,104.5,397.0,105.0,401.0,106.0,405.0" stroke="black" stroke-width="2" fill="none" />
<polyline points="97.0,399.5,93.0,397.5" stroke="black" stroke-width="2" fill="none" />
<polyline points="92.5,401.5,88.5,395.0" stroke="black" stroke-width="2" fill="none" />
<polyline points="87.0,386.0,92.0,382.5,91.0,386.5,91.5,390.5,92.0,395.5,93.5,399.5,95.5,401.5,97.0,404.0,98.5,408.0,99.5,408.5,103.5,407.5" stroke="black" stroke-width="2" fill="none" />
<polyline points="96.0,405.0,92.0,406.5" stroke="black" stroke-width="2" fill="none" />
<polyline points="92.0,417.0,88.0,420.5,86.0,424.5,87.0,422.0" stroke="black" stroke-width="2" fill="none" />
<polyline points="88.0,424.5,86.5,427.0,89.5,423.0,91.0,419.0" stroke="black" stroke-width="2" fill="none" />
<polyline points="74.5,404.5,78.0,400.5,82.0,393.5" stroke="black" stroke-width="2" fill="none" />
<polyline points="80.5,386.5,78.0,390.5,77.5,394.5,76.0,398.0,73.0,402.5,72.5,406.5,71.5,410.5,71.0,414.0,69.0,414.0,68.5,417.0,69.0,421.0,67.0,424.0,69.5,424.0,70.0,428.0,71.5,429.0,71.0,433.0,69.5,437.0,69.0,441.5,69.5,445.5,69.0,450.5,69.0,454.5,69.0,458.5,69.0,462.5,68.5,466.0,67.0,469.5,66.0,473.0,64.5,477.0,64.5,481.5,65.0,486.0,65.5,490.0,66.0,494.0,66.0,498.0,63.0,502.0,63.0,506.0,62.0,509.5,63.5,509.5,66.0,505.5" stroke="black" stroke-width="2" fill="none" />
<polyline points="62.0,502.0,65.5,507.5,65.5,512.0" stroke="black" stroke-width="2" fill="none" />
<polyline points="69.5,497.0,70.0,493.5,71.0,489.5,71.0,486.0,71.5,482.0,69.5,479.0" stroke="black" stroke-width="2" fill="none" />
<polyline points="64.0,473.5,67.5,472.0,67.5,475.5,67.5,479.5,67.0,483.0,66.0,486.5,66.5,490.5,68.0,494.5" stroke="black" stroke-width="2" fill="none" />
<polyline points="72.0,465.0,72.0,461.0,72.0,457.0,72.5,455.0" stroke="black" stroke-width="2" fill="none" />
<polyline points="73.5,454.5,73.5,458.5,73.0,463.0,74.5,467.5,74.0,471.5" stroke="black" stroke-width="2" fill="none" />
<polyline points="66.5,453.5,66.5,450.0,66.5,448.0" stroke="black" stroke-width="2" fill="none" />
<polyline points="64.0,452.0,64.0,456.0,65.0,459.5,66.5,463.5,69.0,469.0,69.5,472.0,69.0,476.0,68.5,479.5,68.0,483.5" stroke="black" stroke-width="2" fill="none" />
<polyline points="29.0,490.5,27.5,497.0,28.5,501.5,31.5,505.5,32.0,510.0" stroke="black" stroke-width="2" fill="none" />
<polyline points="18.0,510.5,18.5,506.5,20.5,502.5,19.0,503.0" stroke="black" stroke-width="2" fill="none" />
<polyline points="15.5,505.0,15.0,501.0,14.5,497.5,13.0,493.0" stroke="black" stroke-width="2" fill="none" />
<polyline points="9.5,428.5,9.5,424.5,5.0,423.0" stroke="black" stroke-width="2" fill="none" />
<polyline points="4.0,418.5,6.5,422.0,9.0,426.0,10.5,430.0,11.0,434.0,11.5,438.0,11.5,442.0,12.5,444.5,12.0,448.0,11.5,453.0,11.5,457.0,14.5,459.5,12.5,463.5,14.5,467.0,15.5,470.5,14.5,474.0,13.5,476.5" stroke="black" stroke-width="2" fill="none" />
<polyline points="35.0,461.0,35.0,456.5,34.5,452.5,33.5,449.0,33.0,445.0,32.5,440.0,33.0,436.0,33.5,431.5,33.5,427.5,33.5,423.5" stroke="black" stroke-width="2" fill="none" />
<polyline points="24.5,419.0,22.0,411.5" stroke="black" stroke-width="2" fill="none" />
<polyline points="22.5,412.0,25.0,416.0,26.0,420.0,26.0,424.0,26.0,428.0,25.5,432.0,26.0,436.0,26.5,440.0,28.0,444.0,28.0,448.0,28.0,451.5,29.5,455.5,29.5,459.0,28.5,462.5,29.5,466.5,29.5,471.0,28.5,475.0,30.0,479.0,30.5,483.0,30.5,486.5,29.0,490.5,31.0,494.5,32.0,499.0,31.0,502.5" stroke="black" stroke-width="2" fill="none" />
<polyline points="69.0,436.5,66.0,437.0,66.0,433.0,65.5,434.0" stroke="black" stroke-width="2" fill="none" />
<polyline points="66.5,423.5,65.0,422.5,64.5,418.5,64.0,414.5,65.0,410.5,66.5,406.5,70.5,402.5,73.5,399.0,75.0,395.0,73.5,394.5,73.5,397.0" stroke="black" stroke-width="2" fill="none" />
<polyline points="79.5,386.5,78.0,395.0,73.5,401.0,69.5,404.0,65.0,408.0" stroke="black" stroke-width="2" fill="none" />
<polyline points="67.5,413.5,71.0,403.5,70.5,407.0,69.0,411.0,68.0,415.0,67.0,419.0" stroke="black" stroke-width="2" fill="none" />
<polyline points="69.0,415.0,72.0,418.5,72.0,422.0,70.5,423.5" stroke="black" stroke-width="2" fill="none" />
<polyline points="100.5,413.5,98.5,412.5,105.0,409.0,107.5,405.5,107.5,401.5,105.5,398.0,104.5,393.5" stroke="black" stroke-width="2" fill="none" />
<polyline points="104.0,380.0,104.0,376.0,104.5,372.0,104.5,367.5,106.0,364.0,107.5,360.5,107.5,356.5,109.0,353.0,107.0,346.0,107.0,342.0,109.0,342.0,109.0,343.0" stroke="black" stroke-width="2" fill="none" />
<polyline points="114.5,344.5,115.0,348.5,116.0,352.5,116.5,356.5,116.5,360.0,116.5,364.0,116.0,368.0,114.5,372.0,116.0,376.0,116.0,379.5,115.0,384.0,115.5,387.5,116.0,391.5,115.5,396.0,119.0,400.0,122.0,404.5,121.0,408.0,115.5,411.5,111.0,413.0,113.5,411.5,118.0,409.5,122.0,405.5" stroke="black" stroke-width="2" fill="none" />
<polyline points="127.5,396.5,123.0,392.0,126.0,389.0,124.0,387.5,123.5,383.5" stroke="black" stroke-width="2" fill="none" />
<polyline points="130.0,381.0,127.5,375.5,126.0,371.5,124.5,368.0,122.5,364.0" stroke="black" stroke-width="2" fill="none" />
<polyline points="125.5,359.5,132.5,363.5,134.0,367.5" stroke="black" stroke-width="2" fill="none" />
<polyline points="136.0,352.5,132.0,348.5,127.5,343.0" stroke="black" stroke-width="2" fill="none" />
<polyline points="118.0,338.0,118.5,342.0,118.5,345.0,120.0,349.0,122.0,353.0,122.0,357.5,123.0,361.0,124.5,364.5,126.0,368.5,128.0,372.0,130.5,376.0,131.0,381.0,132.5,382.0,137.5,384.0,139.0,388.5" stroke="black" stroke-width="2" fill="none" />
<polyline points="132.5,363.0,129.0,360.0,125.0,358.5,121.0,356.0" stroke="black" stroke-width="2" fill="none" />
<polyline points="112.0,354.5,112.5,358.0,114.0,362.0" stroke="black" stroke-width="2" fill="none" />
<polyline points="108.5,360.0,108.5,364.0,111.5,368.5" stroke="black" stroke-width="2" fill="none" />
<polyline points="107.5,355.0,107.0,358.5,105.5,362.0,104.0,366.0,103.0,370.0,102.0,374.0,102.0,377.5,101.5,381.5" stroke="black" stroke-width="2" fill="none" />
<polyline points="81.0,385.0,80.5,389.0,79.0,394.5,77.5,398.5,75.0,403.0,73.5,407.0,74.0,411.0" stroke="black" stroke-width="2" fill="none" />
<polyline points="80.5,381.5,76.5,388.5,72.5,392.5,68.5,396.0,65.0,399.0,60.5,401.5,63.0,397.5,66.5,393.5,70.5,389.5,75.0,385.5,77.5,381.5,78.0,381.5,74.0,387.0,70.0,391.0,66.0,395.0,62.0,398.5,58.0,403.0,65.0,398.5,70.0,395.0,74.5,390.5,77.5,387.0,79.5,383.0,82.0,379.0,82.0,374.5,82.5,368.5,85.5,365.0,87.0,360.5,88.5,356.5,86.5,355.5,90.0,354.5,93.0,350.5,95.5,347.0,98.0,347.5,94.5,342.5,92.5,348.5,94.0,344.5,95.5,340.5,97.0,336.5,96.5,332.5,96.5,329.0,96.5,324.5,97.0,320.5,98.5,316.5,98.5,312.5,102.5,308.0,105.0,304.0,107.5,302.5,104.5,302.5,100.5,308.0,96.5,311.0" stroke="black" stroke-width="2" fill="none" />
<polyline points="88.0,308.0,82.0,312.0,86.5,309.5,91.0,308.5,96.0,307.0,100.0,305.5,104.0,302.0" stroke="black" stroke-width="2" fill="none" />
<polyline points="105.5,305.5,101.5,310.5,97.5,319.0,98.5,317.5,100.5,314.0,102.5,310.5,106.0,306.5,108.0,302.5" stroke="black" stroke-width="2" fill="none" />
<polyline points="108.5,295.0,104.0,295.5,100.5,296.5,95.0,293.5,91.0,294.5,87.0,295.0,83.0,297.5,89.0,294.5" stroke="black" stroke-width="2" fill="none" />
<polyline points="87.5,292.0,81.0,296.0,84.0,293.5,88.0,292.5,92.0,292.5,96.0,293.0,100.0,290.5,103.5,290.5,107.5,289.0,111.5,286.5" stroke="black" stroke-width="2" fill="none" />
<polyline points="115.5,284.0,115.5,285.5,108.5,288.0,113.0,284.5,111.0,278.5,114.0,276.5,112.5,272.5,116.0,270.5,112.0,269.5" stroke="black" stroke-width="2" fill="none" />
<polyline points="112.5,271.5,114.0,272.5,115.0,277.0,116.5,283.5,113.0,288.0,108.5,292.0,107.5,296.5,104.0,301.0,99.5,305.0,91.5,308.5,92.0,312.5,92.0,316.5,90.5,320.5,89.0,324.5,88.5,328.5,88.5,332.5,89.0,336.5,84.5,340.5,81.5,344.5,78.5,348.5,76.0,352.5,72.5,357.0,68.5,361.0,64.0,362.0,68.0,357.5,71.5,353.0,75.5,348.0,80.0,343.0,84.0,337.5,89.0,332.0,93.0,329.5" stroke="black" stroke-width="2" fill="none" />
<polyline points="99.0,321.5,103.0,313.5,107.0,308.0,111.0,304.5,114.5,301.5,119.0,297.5" stroke="black" stroke-width="2" fill="none" />
<polyline points="121.0,304.5,117.5,304.5,115.5,308.5,111.5,312.5,108.0,316.5,105.0,320.5,100.5,326.5" stroke="black" stroke-width="2" fill="none" />
<polyline points="104.0,322.5,108.0,318.5,112.0,315.5,116.5,308.0,117.0,309.0,115.0,313.0,111.0,317.0,106.5,321.0,104.5,318.0,108.5,314.5,109.5,312.5,108.0,315.5,104.5,319.5,104.0,323.5,108.0,317.5,112.0,313.5,116.0,308.5" stroke="black" stroke-width="2" fill="none" />
<polyline points="118.5,308.5,117.0,312.5,115.5,317.0,114.0,321.0,112.0,325.5,109.0,329.5,106.0,333.5,101.5,337.0,97.5,341.0" stroke="black" stroke-width="2" fill="none" />
<polyline points="100.5,341.5,104.5,337.5,108.5,332.5,112.5,326.5,117.0,319.0" stroke="black" stroke-width="2" fill="none" />
<polyline points="116.5,324.0,115.5,328.0,116.5,328.5" stroke="black" stroke-width="2" fill="none" />
<polyline points="128.5,332.5,128.5,328.0,129.5,324.0,127.5,320.0,126.5,316.0,128.0,314.0,127.5,310.5" stroke="black" stroke-width="2" fill="none" />
<polyline points="119.5,310.5,118.0,314.0,116.5,318.0,115.0,321.5,113.0,326.0,111.5,330.0,108.0,334.0,105.0,337.5,101.0,341.0,100.0,345.0,100.5,349.0,96.5,350.5,93.0,355.0,94.5,358.5,93.0,362.5,92.5,366.5,91.0,371.0,92.0,378.0,92.0,381.5,93.0,385.5" stroke="black" stroke-width="2" fill="none" />
<polyline points="78.0,368.0,82.0,361.5,85.5,355.0" stroke="black" stroke-width="2" fill="none" />
<polyline points="76.0,366.0,80.0,359.0,84.0,352.0,86.0,349.5,82.0,353.0,80.0,357.0,78.0,361.0,74.5,365.5,74.5,370.0,74.0,374.5" stroke="black" stroke-width="2" fill="none" />
<polyline points="113.0,368.0,111.0,362.0,111.0,362.5,112.5,361.5,111.0,357.5,110.5,353.5" stroke="black" stroke-width="2" fill="none" />
<polyline points="142.5,347.5,138.5,345.5,138.0,341.5,136.5,337.5,135.5,333.0,134.5,329.0,133.5,325.5,132.0,321.5,131.5,317.5,130.5,313.5,130.0,309.5,127.0,302.0,130.0,299.5" stroke="black" stroke-width="2" fill="none" />
<polyline points="133.0,298.5,133.0,302.5" stroke="black" stroke-width="2" fill="none" />
<polyline points="126.5,301.0,130.5,298.0,134.5,295.5,139.0,291.5" stroke="black" stroke-width="2" fill="none" />
<polyline points="151.0,292.5,154.5,295.0,158.5,296.5,162.0,296.5,166.0,294.5,170.0,291.0,170.0,288.5" stroke="black" stroke-width="2" fill="none" />
<polyline points="172.0,292.0,170.5,296.0,170.0,300.0,169.5,304.5,166.5,308.5,167.0,312.5,165.5,315.0,163.0,318.5,169.0,322.5,167.0,326.0,164.5,330.0,161.5,334.0,159.0,338.0,158.0,344.0,153.5,347.5,151.0,351.0,152.5,353.0,150.0,356.0,147.5,359.0,146.0,354.0,148.0,352.0,152.0,353.5,156.5,353.5,159.0,345.5,163.0,347.0,167.5,344.5,171.0,342.5" stroke="black" stroke-width="2" fill="none" />
<polyline points="157.5,346.5,157.0,350.5,155.5,354.5,158.5,358.0,158.0,361.5,157.5,365.0,157.0,369.0,157.0,373.5,158.5,377.5,157.5,381.5,154.5,384.0,154.5,389.5,154.0,393.0,153.5,397.0,158.0,400.5,164.0,404.5,167.5,409.0,170.5,409.5" stroke="black" stroke-width="2" fill="none" />
<polyline points="193.0,404.0,193.5,400.0,194.0,396.0,193.5,392.0" stroke="black" stroke-width="2" fill="none" />
<polyline points="192.0,393.0,192.0,396.5,191.5,400.0,191.0,404.0,191.0,407.5,191.5,411.5,191.0,415.5,191.0,419.0,191.0,422.5,190.5,426.5,190.0,430.5,189.5,434.5,189.5,439.0,187.0,440.0,184.5,444.5,187.5,445.0,191.5,445.5,195.0,446.5,198.5,445.0" stroke="black" stroke-width="2" fill="none" />
<polyline points="245.5,390.5,243.5,394.0,247.5,390.0,252.0,389.0,256.0,389.0,260.0,389.0,264.0,389.0,268.0,388.0" stroke="black" stroke-width="2" fill="none" />
<polyline points="264.5,385.5,260.0,385.5,256.0,385.5,252.0,384.0,251.0,382.0" stroke="black" stroke-width="2" fill="none" />
<polyline points="267.0,351.5,271.0,352.5,275.5,354.0" stroke="black" stroke-width="2" fill="none" />
<polyline points="268.0,352.0,272.0,351.5,276.0,352.5,280.5,352.5,284.5,351.0" stroke="black" stroke-width="2" fill="none" />
<polyline points="294.5,347.5,298.5,346.5,302.5,346.0,306.5,346.5,310.5,346.5,314.5,345.5" stroke="black" stroke-width="2" fill="none" />
<polyline points="317.0,342.0,318.0,343.5,319.5,347.5" stroke="black" stroke-width="2" fill="none" />
<polyline points="320.0,347.0,316.0,350.0,312.0,350.0,308.0,351.0" stroke="black" stroke-width="2" fill="none" />
<polyline points="311.0,354.5,306.5,355.5,302.5,356.0,298.5,356.5,294.5,356.0" stroke="black" stroke-width="2" fill="none" />
<polyline points="294.5,358.0,298.5,360.0,303.0,359.0,307.0,359.5,311.0,358.0,311.0,358.0,309.5,362.0" stroke="black" stroke-width="2" fill="none" />
<polyline points="306.0,336.0,304.0,331.5,314.0,328.5,313.5,329.0,309.5,330.5,305.5,331.0" stroke="black" stroke-width="2" fill="none" />
<polyline points="307.5,328.0,303.0,327.0,299.5,326.5,295.5,325.5" stroke="black" stroke-width="2" fill="none" />
<polyline points="295.0,325.5,299.0,323.0,303.0,323.5,307.0,325.0" stroke="black" stroke-width="2" fill="none" />
<polyline points="319.0,326.0,320.5,323.5,322.5,319.5,322.5,316.0,322.0,312.0,321.5,308.0,320.5,304.0" stroke="black" stroke-width="2" fill="none" />
<polyline points="346.0,240.0,345.0,236.0,344.0,231.5,343.5,227.5,343.0,223.0,341.5,218.5,341.0,214.5,340.5,210.5,336.5,203.0" stroke="black" stroke-width="2" fill="none" />
<polyline points="335.0,202.0,339.5,200.0,343.0,197.0,347.0,195.0,351.0,193.5,354.5,191.0,358.5,189.0,362.5,187.0,366.5,185.0,370.5,183.5,374.5,182.0,378.5,181.0,382.5,179.5,386.5,177.5,390.5,175.0,395.0,173.0,399.0,171.0,403.5,169.0,407.5,168.0,404.0,171.0,402.0,175.0,398.5,179.0,394.0,183.5,388.0,187.5,382.5,190.5,386.5,188.5,390.0,186.0,394.0,183.0,398.5,179.0,402.5,174.5" stroke="black" stroke-width="2" fill="none" />
<polyline points="403.0,167.0,405.5,160.0,405.0,163.5,405.0,168.0,398.5,171.5,391.0,175.5,384.0,180.0" stroke="black" stroke-width="2" fill="none" />
<polyline points="374.0,182.5,364.0,186.5,357.5,190.5,350.5,195.0,342.5,199.5,337.5,203.5,337.5,207.0,342.5,209.5,347.5,213.5,352.5,214.0" stroke="black" stroke-width="2" fill="none" />
<polyline points="341.0,215.5,337.5,207.5" stroke="black" stroke-width="2" fill="none" />
<polyline points="342.5,204.5,347.5,208.5,351.5,212.5" stroke="black" stroke-width="2" fill="none" />
<polyline points="338.5,201.0,341.0,205.0,346.5,209.5,350.0,213.5,352.5,218.0,354.5,222.5,357.0,228.0,359.0,232.0,360.5,236.5,361.5,240.0,362.0,243.5,362.5,248.0" stroke="black" stroke-width="2" fill="none" />
<polyline points="364.5,249.0,364.0,245.0" stroke="black" stroke-width="2" fill="none" />
<polyline points="370.5,248.5,370.5,252.5,371.0,257.0,372.5,261.0,373.5,265.0,373.5,269.0,372.5,272.5,374.5,273.5,373.0,276.0,373.0,280.0,373.5,284.0" stroke="black" stroke-width="2" fill="none" />
<polyline points="341.0,254.5,344.5,250.5,349.5,247.0,353.0,243.0" stroke="black" stroke-width="2" fill="none" />
<polyline points="371.5,245.0,372.5,240.5,372.5,236.5,372.0,232.0" stroke="black" stroke-width="2" fill="none" />
<polyline points="378.0,191.0,374.0,193.0,370.0,194.5,366.0,195.0,362.0,190.0" stroke="black" stroke-width="2" fill="none" />
<polyline points="361.0,191.5,363.5,195.5" stroke="black" stroke-width="2" fill="none" />
<polyline points="337.0,153.5,332.5,156.5,329.0,159.0,325.5,161.5,321.0,163.5,317.0,166.0,312.5,168.5,308.0,171.0,303.5,174.5,299.5,177.5,295.0,180.5,291.0,183.5,286.0,187.0,282.0,190.5,278.0,194.0,274.5,196.5,271.0,200.5,270.5,197.5,273.0,194.0,271.5,199.0,276.0,195.0,281.0,190.5,286.0,187.0,289.5,184.5,294.0,180.5,292.0,177.0,284.0,175.5,281.5,175.5,278.0,178.0,274.0,176.0,270.0,176.5,266.0,175.0" stroke="black" stroke-width="2" fill="none" />
<polyline points="267.5,179.0,262.5,183.0,256.5,187.0,252.0,190.0,247.5,194.0,244.0,197.5,242.5,199.0,242.5,193.0,245.0,192.0,249.5,187.5,249.5,185.0,253.5,183.0,257.0,181.0,260.5,180.5" stroke="black" stroke-width="2" fill="none" />
<polyline points="256.5,178.0,253.0,177.0,249.0,173.0" stroke="black" stroke-width="2" fill="none" />
<polyline points="242.5,167.5,246.5,169.5,250.5,170.0,254.5,174.5,258.0,174.5,262.0,175.5,266.0,177.0,270.0,178.0,274.5,178.0,278.5,178.5" stroke="black" stroke-width="2" fill="none" />
<polyline points="276.5,177.0,277.0,181.5" stroke="black" stroke-width="2" fill="none" />
<polyline points="272.0,181.5,273.0,185.5,273.5,190.0,272.5,194.5" stroke="black" stroke-width="2" fill="none" />
<polyline points="266.5,186.5,261.0,190.5,257.0,194.5,253.5,198.5,249.5,202.0,250.0,198.5,254.0,194.0,258.5,190.5,262.0,187.5,266.0,185.5" stroke="black" stroke-width="2" fill="none" />
<polyline points="266.0,186.0,259.5,189.5,255.5,190.0,259.5,186.5,263.5,184.0" stroke="black" stroke-width="2" fill="none" />
<polyline points="280.5,175.5,284.5,178.0,288.5,179.5" stroke="black" stroke-width="2" fill="none" />
<polyline points="290.0,177.5,286.5,176.5" stroke="black" stroke-width="2" fill="none" />
<polyline points="282.0,176.0,286.0,175.0,290.0,174.5,294.0,178.0" stroke="black" stroke-width="2" fill="none" />
<polyline points="283.0,144.5,287.0,143.0" stroke="black" stroke-width="2" fill="none" />
<polyline points="298.5,133.5,294.0,137.5,289.0,141.5,291.5,140.0,296.0,137.0,300.0,134.5" stroke="black" stroke-width="2" fill="none" />
<polyline points="260.0,131.5,255.5,135.5,251.0,140.0,245.5,144.0,241.0,148.0,235.5,152.0,230.5,156.0,224.5,160.0,220.0,164.0,221.5,162.5,225.5,159.0,229.0,156.0,233.0,153.0,237.0,149.5,241.5,147.0,245.5,144.0,249.5,140.0,253.5,137.0,258.0,134.0" stroke="black" stroke-width="2" fill="none" />
<polyline points="241.5,144.5,246.5,141.0,249.5,138.5,254.5,134.5,260.5,130.5,258.5,131.0,254.0,134.0,250.0,137.0,246.0,140.0,241.5,144.0,237.0,146.5,233.0,142.5" stroke="black" stroke-width="2" fill="none" />
<polyline points="235.0,142.0,238.5,146.0" stroke="black" stroke-width="2" fill="none" />
<polyline points="250.5,161.5,254.5,164.5,259.0,165.5,263.0,163.5,267.5,162.0,259.5,165.5" stroke="black" stroke-width="2" fill="none" />
<polyline points="256.0,166.5,251.0,162.5" stroke="black" stroke-width="2" fill="none" />
<polyline points="227.5,164.5,223.5,158.5,228.0,154.5,223.5,158.0,219.0,157.0,215.0,153.0" stroke="black" stroke-width="2" fill="none" />
<polyline points="218.5,153.5,222.0,157.5,228.5,163.5" stroke="black" stroke-width="2" fill="none" />
<polyline points="222.0,158.5,218.5,157.0,215.0,153.0,211.0,150.0,207.0,146.5" stroke="black" stroke-width="2" fill="none" />
<polyline points="207.0,147.0,210.5,151.0,215.0,155.0,218.5,159.0,220.5,161.0" stroke="black" stroke-width="2" fill="none" />
<polyline points="220.0,173.0,215.0,176.5,211.5,180.5,208.0,184.5,204.5,189.0,203.0,193.0,204.0,197.0" stroke="black" stroke-width="2" fill="none" />
<polyline points="182.0,214.5,183.0,218.5" stroke="black" stroke-width="2" fill="none" />
<polyline points="186.0,224.5,190.0,217.5,189.0,220.5,186.0,224.5,185.5,229.0,186.0,233.0,187.5,237.0" stroke="black" stroke-width="2" fill="none" />
<polyline points="176.5,233.5,175.5,237.5,174.5,241.5,176.0,243.5,175.5,247.5,176.0,251.0,177.0,255.0,179.0,259.5,182.0,263.5" stroke="black" stroke-width="2" fill="none" />
<polyline points="184.5,252.0,188.0,249.5,192.0,250.5,193.0,254.5,193.5,258.5,197.0,262.5,203.5,266.0" stroke="black" stroke-width="2" fill="none" />
<polyline points="203.5,265.5,200.0,265.0,196.0,260.0,196.0,253.5,192.0,250.0" stroke="black" stroke-width="2" fill="none" />
<polyline points="189.5,252.0,194.5,252.0,196.5,256.0,198.5,260.5,204.5,265.0" stroke="black" stroke-width="2" fill="none" />
<polyline points="223.5,272.5,220.5,276.5,224.5,272.0,228.5,270.5" stroke="black" stroke-width="2" fill="none" />
<polyline points="219.5,305.0,217.5,309.0,217.0,313.5,217.0,318.0,217.0,322.0,217.0,326.0,217.0,330.0,216.5,334.0,216.0,338.0,216.5,341.5,217.0,345.5,217.0,349.5,217.0,354.0,217.5,358.5" stroke="black" stroke-width="2" fill="none" />
<polyline points="166.0,358.5,162.5,362.5,165.5,359.0" stroke="black" stroke-width="2" fill="none" />
<polyline points="165.0,301.5,164.5,297.5,170.5,292.5,173.5,288.5,172.5,284.5,169.5,289.0,165.5,291.5,163.0,290.5,165.5,286.0,169.5,281.5,174.5,277.5,175.0,279.0,174.0,278.0,170.0,281.5,167.0,282.5,164.0,284.0,161.0,286.5,163.5,284.5,163.0,280.5,164.0,276.0,162.5,274.5,164.0,270.0,164.5,266.0,168.0,262.5,168.5,259.0,168.5,255.5,171.0,251.5,173.5,247.5,174.5,243.5,174.0,239.5,173.0,236.0,176.5,232.5,172.0,235.5" stroke="black" stroke-width="2" fill="none" />
<polyline points="170.5,238.5,169.0,243.0,168.0,247.0,166.5,251.0,165.0,249.0" stroke="black" stroke-width="2" fill="none" />
<polyline points="164.5,252.0,158.0,259.0,154.0,263.0,150.5,261.0,146.5,265.0,142.5,269.0,138.5,273.5,134.5,277.5,130.5,278.5,126.5,275.5,118.0,270.0,115.5,265.5,117.5,261.0,114.5,266.0" stroke="black" stroke-width="2" fill="none" />
<polyline points="116.0,268.0,120.0,270.5,124.0,272.0" stroke="black" stroke-width="2" fill="none" />
<polyline points="125.5,272.5,121.5,276.0,118.0,278.0,113.5,280.5,109.0,279.0,105.5,280.5,101.5,281.5,105.5,282.0,101.5,283.5,97.0,285.5,95.5,284.0,93.5,279.5,94.5,275.0,101.5,271.0,107.0,267.5,103.0,270.5,99.0,272.5,95.0,274.5,91.0,276.5" stroke="black" stroke-width="2" fill="none" />
<polyline points="91.5,276.5,91.0,280.5,92.5,285.0" stroke="black" stroke-width="2" fill="none" />
<polyline points="92.0,282.0,96.0,286.5,100.0,286.0,104.5,284.0,108.5,282.5,112.5,280.0" stroke="black" stroke-width="2" fill="none" />
<polyline points="118.5,281.5,113.5,278.5,111.0,276.0,106.0,274.0,102.0,274.0,98.5,278.0,94.5,281.5,98.0,279.5,102.5,275.5,109.5,273.5,109.5,270.0,109.5,265.5,112.0,261.5,113.5,260.0,109.5,265.0" stroke="black" stroke-width="2" fill="none" />
<polyline points="126.0,274.5,126.0,278.5,129.0,282.5,129.5,287.0,126.5,289.5,125.5,293.5,124.0,297.0,122.5,301.0,124.5,304.0,123.0,308.0,121.5,312.0,121.0,316.0,120.5,320.0,121.5,324.0,122.0,328.0,122.5,332.0,122.5,337.5" stroke="black" stroke-width="2" fill="none" />
<polyline points="127.5,296.5,131.5,293.5,134.5,292.0,138.0,287.5" stroke="black" stroke-width="2" fill="none" />
<polyline points="141.0,285.0,137.0,287.0,133.0,287.0,128.5,293.5,124.5,296.5,120.0,299.0,116.0,303.0,112.0,306.5,107.5,310.0,105.0,313.5,108.0,309.0,112.5,304.5,117.5,301.0,120.5,297.0,122.5,293.0,125.0,289.0,124.5,285.0" stroke="black" stroke-width="2" fill="none" />
<polyline points="122.0,285.0,121.5,289.0,120.5,293.0,119.0,297.0,114.5,301.0,110.5,305.0,106.5,309.0,103.5,312.5,101.5,316.5,100.0,320.5,100.5,325.0,101.5,329.0,102.5,330.5,99.0,334.5,96.0,340.5,99.5,338.5,103.5,335.5,107.0,330.0,111.0,324.5,114.5,316.0,118.5,307.5,121.5,300.0,124.0,301.0,125.0,307.5,132.0,312.0" stroke="black" stroke-width="2" fill="none" />
<polyline points="154.0,295.5,158.0,298.5" stroke="black" stroke-width="2" fill="none" />
<polyline points="157.5,297.5,154.0,293.5" stroke="black" stroke-width="2" fill="none" />
<polyline points="156.5,293.5,160.5,297.5" stroke="black" stroke-width="2" fill="none" />
<polyline points="161.5,291.5,158.0,289.0,154.0,283.5" stroke="black" stroke-width="2" fill="none" />
<polyline points="152.5,281.5,153.5,285.5,157.0,289.5,163.0,293.5" stroke="black" stroke-width="2" fill="none" />
<polyline points="162.0,292.5,158.5,291.0,154.5,289.0" stroke="black" stroke-width="2" fill="none" />
<polyline points="151.0,270.5,154.5,266.5,158.5,261.0,162.5,255.5,158.5,257.5,156.0,261.5,153.0,265.5,148.5,269.5,148.5,273.5,148.0,277.5,148.5,281.5,149.5,285.5,153.0,289.5,157.5,291.0,161.5,296.5,162.5,300.5,158.5,303.5,157.5,309.0,159.5,313.0,157.5,315.5,158.0,318.5,157.0,320.5,161.0,319.0,163.5,318.5,165.0,314.5,169.0,312.0,173.0,307.5,175.5,300.5,178.5,295.5" stroke="black" stroke-width="2" fill="none" />
<polyline points="172.5,297.0,173.5,300.5,175.5,307.0,177.5,311.0,174.5,317.5" stroke="black" stroke-width="2" fill="none" />
<polyline points="174.5,316.5,170.5,317.5,169.5,323.0,168.0,321.5,164.5,326.5,160.5,332.5,155.5,337.5,151.5,339.5,148.0,336.5,145.5,343.5,143.0,340.5,141.5,336.5,139.5,332.5,139.0,328.5,138.5,325.0,137.5,320.5,136.5,316.5,135.5,312.5,133.5,308.0,132.0,304.0,130.5,300.0,133.5,298.5,135.0,295.0,139.0,290.5,141.0,286.5,142.5,282.5,140.0,281.5,136.5,281.5,132.0,281.5,138.5,282.5,140.5,279.0,145.5,275.0,142.0,272.5,146.0,268.0,151.5,263.5,156.0,256.5,159.5,252.5,161.5,248.5,163.5,244.0,160.5,243.5,156.5,248.0,152.5,248.5" stroke="black" stroke-width="2" fill="none" />
<polyline points="151.5,250.0,148.0,251.5" stroke="black" stroke-width="2" fill="none" />
<polyline points="144.0,251.0,148.0,248.0,147.0,247.5,144.0,251.5,147.0,253.0,148.5,257.5" stroke="black" stroke-width="2" fill="none" />
<polyline points="149.0,265.5,145.0,269.0,141.0,271.5" stroke="black" stroke-width="2" fill="none" />
<polyline points="136.5,255.0,132.5,254.5" stroke="black" stroke-width="2" fill="none" />
<polyline points="131.0,250.5,135.0,248.0,139.0,247.0,141.5,246.5" stroke="black" stroke-width="2" fill="none" />
<polyline points="144.0,242.0,139.5,240.5,135.0,242.5" stroke="black" stroke-width="2" fill="none" />
<polyline points="140.5,240.0,136.0,233.0,132.0,223.0" stroke="black" stroke-width="2" fill="none" />
<polyline points="142.0,224.5,146.0,216.0" stroke="black" stroke-width="2" fill="none" />
<polyline points="147.5,213.5,148.5,211.5,150.0,207.0" stroke="black" stroke-width="2" fill="none" />
<polyline points="147.5,194.0,143.5,189.5" stroke="black" stroke-width="2" fill="none" />
<polyline points="145.0,187.5,149.0,192.5,153.0,193.5,159.0,186.0,163.0,181.0,167.0,176.5,171.5,172.0,175.0,168.0,179.0,164.0,183.0,160.5,187.0,157.0,191.0,153.5,195.0,149.5,199.0,146.5,203.0,143.5" stroke="black" stroke-width="2" fill="none" />
<polyline points="214.0,141.0,217.5,144.5,221.5,148.5" stroke="black" stroke-width="2" fill="none" />
<polyline points="218.5,144.0,214.5,140.0" stroke="black" stroke-width="2" fill="none" />
<polyline points="203.5,136.5,199.5,132.5" stroke="black" stroke-width="2" fill="none" />
<polyline points="198.0,132.0,201.5,136.0,202.5,140.0,201.0,141.5,205.5,138.0,209.5,135.0,214.0,132.5,218.0,130.0,222.0,127.0" stroke="black" stroke-width="2" fill="none" />
<polyline points="223.5,126.5,217.5,130.0,211.5,134.0,207.0,137.5,209.0,138.0,213.0,135.0,217.0,132.0,221.0,129.0,225.0,126.5,229.5,123.5,233.5,121.0,237.0,119.0" stroke="black" stroke-width="2" fill="none" />
<polyline points="238.0,120.0,232.0,124.0,226.0,128.0,219.5,131.5,213.5,135.5,208.5,139.5,204.0,143.0,199.5,147.0,194.5,151.5,191.0,156.0,186.0,159.5,182.5,164.0,177.5,168.0,173.0,172.0,169.0,175.5,165.0,179.5,161.0,183.5,158.0,187.0,153.0,192.5,151.0,196.0,152.5,199.5,151.0,203.5,148.0,207.5,146.0,211.5,145.5,215.0,143.5,219.0,142.0,223.0,142.0,227.0,142.5,231.0,143.0,235.0,143.0,239.0,142.5,241.0,134.5,244.0,131.5,249.5,133.0,252.0,134.5,256.5,138.5,255.5,141.0,256.5" stroke="black" stroke-width="2" fill="none" />
<polyline points="125.0,252.5,120.0,256.5,116.0,260.5,113.0,264.0,116.5,259.0,120.5,254.5,125.0,252.0,129.0,246.5,133.0,245.0,137.5,240.0,143.5,238.0,150.0,235.0,154.0,230.0,158.0,227.0,161.5,222.5" stroke="black" stroke-width="2" fill="none" />
<polyline points="170.5,229.0,166.5,230.0,165.0,234.0,161.0,240.0,160.5,240.5,163.5,236.5,166.5,232.5" stroke="black" stroke-width="2" fill="none" />
<polyline points="163.5,238.0,167.5,234.0,171.5,231.5,175.5,228.0,179.5,228.0" stroke="black" stroke-width="2" fill="none" />
<polyline points="175.0,229.0,170.0,233.0,166.0,237.0,162.5,241.0,160.5,244.5,157.0,248.5,152.0,251.0,149.5,254.5,152.5,256.0,151.0,258.5,148.0,262.5,144.0,266.5,139.5,270.0,136.5,274.0,130.5,279.5,133.5,286.5,131.0,290.5,128.0,295.0,127.0,300.5,129.0,304.0,127.5,308.0,125.5,311.0,125.0,315.0,125.0,319.5,125.0,323.5,125.5,327.5,125.0,331.0,125.0,336.0,127.5,338.0,129.0,342.0,132.0,346.0,135.0,350.0,138.5,353.5,137.5,357.5,138.0,362.5,140.5,366.5,142.5,366.5,143.5,370.5,145.0,376.0,146.0,380.0,144.5,384.5,146.5,388.5,146.5,392.0,148.5,396.0,150.5,396.0,151.5,400.5,151.5,403.5,154.5,404.5,158.5,408.5,160.5,412.0,162.0,416.0,160.0,420.0,154.0,422.5" stroke="black" stroke-width="2" fill="none" />
<polyline points="119.5,483.5,120.0,487.0,119.5,491.0,119.0,495.0,120.5,499.0,120.0,502.5,120.0,506.5,120.5,511.0" stroke="black" stroke-width="2" fill="none" />
<polyline points="21.5,367.0,21.0,373.5,23.0,369.5,23.5,365.5" stroke="black" stroke-width="2" fill="none" />
<polyline points="80.0,316.5,76.5,318.0,72.5,320.5,69.5,322.5,76.5,318.0,80.0,313.5,76.0,309.5,76.0,305.5,76.0,306.0" stroke="black" stroke-width="2" fill="none" />
<polyline points="77.5,306.5,77.5,310.5,79.5,312.0,83.5,309.5,87.5,307.5,91.0,305.0" stroke="black" stroke-width="2" fill="none" />
<polyline points="80.0,313.0,76.0,308.0" stroke="black" stroke-width="2" fill="none" />
<polyline points="101.0,301.0,97.0,301.0,93.5,304.0,100.5,301.0,102.5,297.0,108.0,292.5" stroke="black" stroke-width="2" fill="none" />
<polyline points="110.5,291.0,106.5,292.0,102.5,292.5,98.0,294.0,102.5,291.5" stroke="black" stroke-width="2" fill="none" />
<polyline points="102.0,288.5,105.0,285.5" stroke="black" stroke-width="2" fill="none" />
<polyline points="158.0,299.0,155.0,295.0,152.0,291.0,152.5,287.0,150.5,281.5,150.0,277.0,150.0,271.5,152.5,267.5,156.0,263.5,159.5,259.5,162.0,255.5,163.5,251.0,165.0,247.0,166.5,243.0,167.5,239.5,169.5,238.0,164.5,243.5,160.0,252.0,155.0,257.5,150.5,258.0,145.5,257.5,141.0,258.0,137.5,264.0,135.0,264.5,135.0,259.0,132.0,262.0,128.0,264.0,126.5,266.5,131.0,262.0,130.5,257.5,129.5,253.5,126.5,249.5,128.0,245.0,134.5,244.5,135.0,241.0,139.0,237.0,136.5,233.0,134.0,229.5,133.0,225.5,132.0,221.5,132.0,217.5,132.0,213.5,130.5,209.5,127.5,206.0,125.5,202.0,124.0,198.0,123.5,193.5,122.0,189.5,122.0,185.5,121.0,181.5,120.0,178.0,120.0,173.5,120.0,169.5,120.5,165.5,121.0,161.5,121.0,157.5,121.5,154.0,121.5,150.0,122.5,146.5,124.0,142.5,124.5,138.5,125.0,134.5,126.0,130.5,127.0,126.0,128.0,122.0,129.0,118.0,130.5,113.5,132.0,109.0,133.5,105.0,136.0,104.5,137.5,100.0,137.5,100.5,133.5,106.0" stroke="black" stroke-width="2" fill="none" />
<polyline points="126.5,122.5,130.5,112.5,134.5,104.5,135.0,109.0,134.5,112.5,134.5,116.5,133.0,121.0,133.0,125.0,133.0,129.0,132.0,133.0,130.5,137.0,128.5,141.0,129.5,145.5,131.0,145.5,129.5,149.5,130.5,151.5,131.0,154.0,128.0,158.0,131.0,156.0,129.5,148.0" stroke="black" stroke-width="2" fill="none" />
<polyline points="129.0,154.0,133.5,155.5,132.0,156.5,133.0,160.5,135.5,162.0,132.0,166.0,128.5,170.0,132.0,166.5,134.5,161.5" stroke="black" stroke-width="2" fill="none" />
<polyline points="140.5,168.0,138.5,172.5,135.0,175.0,132.0,176.0,136.0,172.0" stroke="black" stroke-width="2" fill="none" />
<polyline points="134.5,173.5,131.0,177.5,136.5,176.5,140.5,172.5,141.0,169.5" stroke="black" stroke-width="2" fill="none" />
<polyline points="144.0,169.0,140.5,173.0,137.0,177.5,134.5,177.5" stroke="black" stroke-width="2" fill="none" />
<polyline points="140.5,177.0,136.5,181.0,134.5,182.5,138.0,178.5,140.5,175.0" stroke="black" stroke-width="2" fill="none" />
<polyline points="142.5,179.5,146.5,176.0,146.0,176.5,146.5,179.0,142.5,183.0,144.0,188.0,146.5,190.0,147.5,194.0,149.5,198.0" stroke="black" stroke-width="2" fill="none" />
<polyline points="152.0,190.5,148.0,185.5" stroke="black" stroke-width="2" fill="none" />
<polyline points="147.0,188.5,149.0,192.0,148.5,194.5" stroke="black" stroke-width="2" fill="none" />
<polyline points="152.0,191.0,149.5,189.5,148.0,185.5,143.0,184.5" stroke="black" stroke-width="2" fill="none" />
<polyline points="148.5,180.0,144.5,180.0,144.0,185.0,140.0,188.0,134.5,189.5" stroke="black" stroke-width="2" fill="none" />
<polyline points="134.0,187.5,138.0,183.5,141.5,178.5" stroke="black" stroke-width="2" fill="none" />
<polyline points="146.0,171.0,147.0,175.0,143.5,178.5,141.5,183.0,137.5,187.0,136.5,191.0,138.0,194.0,138.5,194.5,140.5,194.5,142.5,196.5,146.5,201.5,150.0,201.5" stroke="black" stroke-width="2" fill="none" />
<polyline points="146.0,198.5,142.0,194.0" stroke="black" stroke-width="2" fill="none" />
<polyline points="140.5,195.0,144.0,199.0,146.0,203.5,146.5,207.5,145.5,212.0,145.0,216.0,149.0,208.5,153.0,202.0" stroke="black" stroke-width="2" fill="none" />
<polyline points="146.0,200.5,144.0,197.0,138.5,194.5,138.0,191.0,135.0,187.0,137.5,183.0,141.5,179.0,145.0,175.0,142.5,177.5,138.5,181.5,134.5,186.0" stroke="black" stroke-width="2" fill="none" />
<polyline points="138.5,194.0,137.5,198.0,135.5,201.5" stroke="black" stroke-width="2" fill="none" />
<polyline points="129.5,207.5,125.5,199.5" stroke="black" stroke-width="2" fill="none" />
<polyline points="114.0,225.0,110.5,229.0,111.5,227.5,115.5,226.5" stroke="black" stroke-width="2" fill="none" />
<polyline points="115.5,227.0,112.0,231.0,114.0,229.0" stroke="black" stroke-width="2" fill="none" />
<polyline points="157.5,251.5,156.5,255.5,152.0,253.5,156.0,254.5" stroke="black" stroke-width="2" fill="none" />
<polyline points="173.5,213.5,169.5,217.5,171.5,215.0,175.5,212.5" stroke="black" stroke-width="2" fill="none" />
<polyline points="203.0,164.5,207.0,164.5" stroke="black" stroke-width="2" fill="none" />
<polyline points="203.5,164.0,204.0,167.5,197.0,170.0,191.5,174.0,188.0,178.0,183.5,181.5,179.0,185.5,174.5,190.0,171.0,194.0,166.5,197.5,164.0,201.0,163.0,202.0,167.5,197.0,171.5,193.5,176.0,188.5,180.5,184.5,184.5,181.0,188.0,177.5,192.5,174.0,196.5,170.0,200.5,167.0" stroke="black" stroke-width="2" fill="none" />
<polyline points="190.0,133.5,186.0,136.5,186.5,135.5,191.0,131.5" stroke="black" stroke-width="2" fill="none" />
<polyline points="190.5,121.5,186.0,124.0,181.5,127.0,180.0,128.5,186.0,125.0,192.0,121.0" stroke="black" stroke-width="2" fill="none" />
<polyline points="191.0,118.5,185.0,122.5,179.5,126.5,180.5,126.5,185.0,124.0,189.0,121.5" stroke="black" stroke-width="2" fill="none" />
<polyline points="193.5,112.0,196.5,109.5" stroke="black" stroke-width="2" fill="none" />
<polyline points="204.5,116.5,200.5,119.0,196.5,122.0,199.5,119.0,206.0,115.0" stroke="black" stroke-width="2" fill="none" />
<polyline points="227.5,128.0,223.5,130.0,219.5,132.0,215.5,135.0,212.0,137.5,208.0,140.5,204.0,144.0,200.0,147.5,196.0,151.0,197.5,149.0,201.5,145.0,206.5,141.5,212.0,137.5,217.0,134.0,223.0,130.5,229.5,126.5" stroke="black" stroke-width="2" fill="none" />
<polyline points="237.0,99.0,231.0,103.0,225.5,104.5,221.5,108.5,225.5,105.0,230.0,105.0,233.5,102.5,237.5,99.0" stroke="black" stroke-width="2" fill="none" />
<polyline points="235.5,98.0,232.5,100.5,237.5,96.5" stroke="black" stroke-width="2" fill="none" />
<polyline points="247.5,90.5,244.0,92.5,250.5,89.0" stroke="black" stroke-width="2" fill="none" />
<polyline points="263.0,86.0,259.5,87.5,255.5,89.5,252.0,92.0,248.0,93.5,244.5,96.0,240.5,98.5,236.5,101.5,232.5,104.5,228.5,107.5,224.0,110.0,220.5,112.5,216.5,115.0,212.5,118.0,208.0,120.5,204.5,124.5,200.0,128.5,196.0,132.0,192.0,136.0,188.0,140.0,184.0,144.0,179.5,148.0,175.5,152.0,172.0,156.0,168.0,160.0,164.0,163.5,160.5,166.5,156.5,171.0,154.5,174.0,157.0,170.0,160.5,165.5,165.5,162.0,170.0,158.0,174.5,153.5,177.5,149.0,181.0,145.0,185.5,141.5,190.0,138.0,195.0,134.0,199.5,129.5,204.0,125.5,209.0,121.5,214.5,118.0,220.0,114.5,225.5,110.5,231.5,106.5,237.5,102.0,243.0,97.5,249.0,93.0,256.0,89.0,265.5,85.0" stroke="black" stroke-width="2" fill="none" />
<polyline points="236.5,78.5,229.5,82.5,225.5,86.5,227.5,84.5,231.5,81.5,235.5,80.0" stroke="black" stroke-width="2" fill="none" />
<polyline points="232.5,50.5,236.0,48.5" stroke="black" stroke-width="2" fill="none" />
<polyline points="229.0,45.5,224.0,49.5,227.5,47.0,231.5,47.0,235.5,47.5,239.5,48.0,244.0,49.0,248.0,50.0,252.5,51.5,257.0,53.0,261.0,54.0,264.5,56.0,268.0,58.5,272.0,61.0,275.5,64.0,279.0,67.5,283.0,70.5,287.0,73.5,291.0,77.0,295.5,78.0,299.5,81.5,303.5,87.5,307.0,92.0,311.5,97.5,316.0,100.0,320.0,103.0,324.0,108.5,328.0,114.5,331.5,124.0,335.5,131.0,339.5,134.5,343.5,140.0,347.5,147.5,351.5,145.0,355.0,142.5,359.0,139.5,363.0,137.5,367.0,135.5,371.5,132.5,375.5,130.0,380.0,127.0,384.0,124.0,387.5,121.0,391.5,117.5,395.5,114.5,399.5,112.5,403.5,112.5,407.5,114.0,411.5,114.0,416.0,115.5,420.0,123.0" stroke="black" stroke-width="2" fill="none" />
<polyline points="415.0,112.0,418.5,116.0,420.0,120.5,420.5,125.0,421.0,129.0,421.0,133.0,420.5,136.5,419.0,140.5,418.0,144.5,417.0,148.5,416.0,153.0,414.5,156.5,412.5,160.5,411.5,164.5,410.0,169.0,408.0,173.0,406.5,177.0,404.0,181.5,401.0,186.0,396.0,190.5,392.5,194.5,389.0,198.5,384.5,202.0,379.0,205.5,373.5,210.0,367.5,214.0,370.5,212.5,374.5,210.0,378.5,207.5,382.5,204.5,386.0,201.0,390.0,197.0,394.0,192.5,398.0,187.5,402.0,184.5,405.5,178.5,410.0,169.5,414.5,157.5" stroke="black" stroke-width="2" fill="none" />
<polyline points="404.0,158.5,399.5,162.5,395.5,166.5,391.5,170.0,387.5,173.5,387.0,174.0,391.5,170.0,395.5,165.5,399.0,161.5,403.0,157.5" stroke="black" stroke-width="2" fill="none" />
<polyline points="396.0,152.0,392.5,156.5,390.0,160.5,387.5,165.0,386.0,169.0,383.5,173.0,381.0,177.0,382.5,174.5,386.0,168.0,389.5,160.5,393.5,154.5" stroke="black" stroke-width="2" fill="none" />
<polyline points="398.5,123.0,393.5,127.0,388.5,130.5,383.0,134.0,384.5,132.5,388.0,129.5,392.5,126.0,396.0,122.5" stroke="black" stroke-width="2" fill="none" />
<polyline points="396.5,121.5,391.0,125.5,385.5,129.5,381.0,133.5,384.0,130.0,388.0,127.0,392.0,124.0,396.5,120.5" stroke="black" stroke-width="2" fill="none" />
<polyline points="398.5,113.5,392.0,117.0,387.5,121.0,382.0,125.0,377.0,129.0,371.0,133.0,364.5,137.0,357.5,141.5,350.5,145.5" stroke="black" stroke-width="2" fill="none" />
<polyline points="338.0,152.0,331.0,156.0,325.0,160.0,317.5,164.5,311.5,169.5,305.5,173.5,300.0,177.5,294.5,182.0" stroke="black" stroke-width="2" fill="none" />
<polyline points="296.5,223.5,292.5,226.5,288.5,230.5,284.5,234.0,287.0,231.5,292.0,227.5,297.0,223.5" stroke="black" stroke-width="2" fill="none" />
<polyline points="219.0,307.0,219.0,311.0,219.5,315.5,219.5,319.5,220.5,323.5,220.0,327.5,221.5,331.5,222.5,335.5,223.0,341.0,224.0,344.5,220.0,349.0,220.0,353.0,221.0,357.5,221.0,361.5,221.5,365.5,221.5,369.5" stroke="black" stroke-width="2" fill="none" />
<polyline points="133.5,173.5,132.0,180.0,136.0,176.5,139.5,172.5,139.5,169.5,143.0,165.5" stroke="black" stroke-width="2" fill="none" />
<polyline points="127.5,139.5,131.5,134.5,133.0,129.5" stroke="black" stroke-width="2" fill="none" />
<polyline points="154.5,129.5,151.0,132.5,148.0,135.5,152.0,131.5,157.0,127.5" stroke="black" stroke-width="2" fill="none" />
<polyline points="155.5,77.5,152.0,84.0,154.0,79.5,155.5,75.5" stroke="black" stroke-width="2" fill="none" />
<polyline points="159.5,70.0,157.0,72.5,153.5,77.5,153.5,78.0,155.5,74.0,159.0,69.0,160.5,64.5" stroke="black" stroke-width="2" fill="none" />
<polyline points="163.0,65.0,161.5,69.5,161.5,65.0,166.5,61.5,170.5,61.0,174.0,59.5" stroke="black" stroke-width="2" fill="none" />
<polyline points="206.5,51.0,210.5,49.0" stroke="black" stroke-width="2" fill="none" />
<polyline points="252.0,52.5,262.5,56.0,269.0,60.0,275.0,64.0,281.0,68.0,286.5,71.5,291.0,76.0,299.0,79.5,301.0,83.0,304.0,87.0,307.5,91.0,310.0,95.0,315.0,99.0,319.5,103.5,323.0,108.5,325.0,112.5,328.0,116.5,328.5,121.0,330.5,125.0,333.0,129.0,335.5,132.5,340.0,136.5,342.5,140.5,344.0,144.0,346.5,147.5" stroke="black" stroke-width="2" fill="none" />
<polyline points="368.5,133.0,369.5,131.5,369.0,128.0" stroke="black" stroke-width="2" fill="none" />
<polyline points="387.0,106.0,383.0,101.0,379.0,97.0" stroke="black" stroke-width="2" fill="none" />
<polyline points="379.0,97.5,382.5,101.5,384.5,105.5,388.5,109.5" stroke="black" stroke-width="2" fill="none" />
<polyline points="442.5,69.0,438.5,62.5,434.0,56.0,430.0,50.5,425.5,43.5,422.0,34.5,418.0,28.5,414.5,21.0,411.0,14.0,407.0,7.5" stroke="black" stroke-width="2" fill="none" />
<polyline points="514.0,74.0,511.5,78.0,508.0,82.5,504.0,87.0,499.5,91.0,495.0,96.5,491.5,101.0,487.5,104.5,483.5,108.5,481.0,112.5,477.0,117.0,474.5,121.0,472.0,125.0,469.0,128.5,467.5,132.5,464.5,136.5,462.5,141.0,460.5,145.0,456.5,150.0,455.0,154.0,452.5,158.5,450.0,162.0,447.0,166.0,444.5,170.0,443.0,174.5,441.5,179.0,438.5,183.5,436.5,187.5,435.5,191.5,433.5,196.5,432.0,200.5,430.0,204.5,429.5,208.0,428.0,211.5,426.5,216.0,423.0,219.5,422.5,223.0,420.5,226.5,419.0,230.0,417.0,234.0,414.5,238.0,413.0,242.0,412.0,246.5,413.0,249.5,410.5,254.0,409.0,258.0,408.5,262.0,406.5,266.0,405.5,270.0,404.0,274.5,401.5,278.0,401.0,282.0,400.5,285.5,399.0,289.5,397.5,293.5,397.0,297.5,395.0,302.0,393.5,306.0,392.0,310.5,391.0,315.0,390.0,318.5,389.5,323.0,388.0,326.5,387.0,330.5,386.0,334.0,385.5,337.0,386.0,341.0" stroke="black" stroke-width="2" fill="none" />
</svg>