<svg xmlns="http://www.w3.org/2000/svg" version="1.1"><polyline points="404.0,1.5,404.0,5.5,406.0,9.5,408.5,13.5,410.0,18.0,413.0,22.0,414.5,25.5,417.0,29.5,420.0,33.0,421.5,37.0,424.0,41.5,426.5,45.0,428.5,49.0,431.0,53.0,433.5,57.0,435.0,61.5,437.5,65.5,441.0,69.5" stroke="black" stroke-width="2" fill="none" />
<polyline points="455.0,59.5,451.0,52.5,447.5,46.5,443.0,38.5,440.0,33.5,436.0,26.0,432.0,19.5,428.0,12.5,424.0,7.0" stroke="black" stroke-width="2" fill="none" />
<polyline points="424.5,2.0,424.5,6.0,425.5,9.0,428.0,13.0,431.0,17.0,433.0,21.0,435.0,25.0,438.0,29.0,440.0,33.5,442.5,37.5,444.5,41.5,446.5,45.5,449.0,49.0,451.5,53.5,454.0,57.5,456.0,61.5,454.0,66.0,451.0,70.0,446.5,74.0,443.0,78.0,440.5,81.5,438.0,85.5,434.5,89.0,432.0,93.5,429.5,97.5,427.5,101.5,424.5,105.5,422.5,109.5,420.5,113.5,420.5,113.5,424.5,107.5,428.5,100.5,432.0,94.0,436.0,88.5,440.0,83.0,444.0,77.0,448.0,73.0,452.0,69.0,456.0,64.0,461.0,55.5,465.0,51.5,469.0,48.0,472.5,43.5,476.5,38.5,481.0,34.5,484.5,30.0,489.0,26.5,492.5,22.5,497.5,18.0,501.0,14.5,505.0,11.5,509.5,7.5" stroke="black" stroke-width="2" fill="none" />
<polyline points="512.5,8.0,506.5,12.0,502.5,15.5,497.5,19.0,494.5,21.5,490.0,25.5,486.0,29.5,482.5,34.0,477.5,38.0,474.0,42.0,470.0,46.5,466.0,50.0,462.0,54.0,458.5,58.0" stroke="black" stroke-width="2" fill="none" />
<polyline points="511.0,76.0,507.0,81.5,502.5,85.5,498.5,90.0,496.0,95.0,492.0,96.5,488.0,102.5,484.0,106.5,480.5,111.0,476.5,116.0,472.5,121.5,468.5,127.5,464.5,134.5,461.0,140.5" stroke="black" stroke-width="2" fill="none" />
<polyline points="453.0,154.5,449.5,161.5,446.5,166.0,443.0,174.0" stroke="black" stroke-width="2" fill="none" />
<polyline points="439.5,180.0,437.5,184.0" stroke="black" stroke-width="2" fill="none" />
<polyline points="432.5,195.0,428.0,203.0,426.0,210.5,425.0,215.5,420.5,219.5" stroke="black" stroke-width="2" fill="none" />
<polyline points="418.5,231.5,416.5,237.0,413.0,245.0" stroke="black" stroke-width="2" fill="none" />
<polyline points="402.5,276.5,401.5,280.0,399.5,286.5" stroke="black" stroke-width="2" fill="none" />
<polyline points="380.5,291.5,380.0,287.5,379.5,283.5,380.0,279.0,379.5,275.5" stroke="black" stroke-width="2" fill="none" />
<polyline points="374.5,279.5,375.0,283.0,377.0,286.0,376.5,290.0,377.0,294.0,377.5,297.5,378.0,301.0,379.0,305.0,379.5,309.0,380.5,313.0,381.5,317.5,382.5,321.5,383.0,325.5,382.0,329.5,381.5,333.0,382.0,337.0,382.5,340.5,382.5,344.5,382.5,348.0,383.0,352.0" stroke="black" stroke-width="2" fill="none" />
<polyline points="368.5,351.5,369.5,355.5,370.0,359.5,370.0,364.0,370.5,368.0,371.0,372.0" stroke="black" stroke-width="2" fill="none" />
<polyline points="373.5,377.0,374.0,381.0,374.0,384.5" stroke="black" stroke-width="2" fill="none" />
<polyline points="382.5,386.5,381.5,390.5,381.5,394.5,381.0,398.0,380.0,402.0" stroke="black" stroke-width="2" fill="none" />
<polyline points="362.5,434.0,358.5,425.5,354.5,418.5,350.5,414.0,346.0,409.5,342.5,405.5,338.5,402.0,335.0,400.0,331.0,398.5,327.0,396.5,323.0,395.0,318.5,393.5,314.5,392.0,310.5,390.5,307.5,390.5,304.0,390.5,300.0,390.0" stroke="black" stroke-width="2" fill="none" />
<polyline points="313.0,380.5,317.0,370.5,321.0,364.0,325.0,358.5,329.0,351.5,333.0,343.0,337.0,335.0,341.0,326.5,344.5,318.5" stroke="black" stroke-width="2" fill="none" />
<polyline points="356.5,330.0,356.5,334.0,355.5,338.0,354.0,342.0,354.5,340.0" stroke="black" stroke-width="2" fill="none" />
<polyline points="353.5,350.5,353.5,355.0,353.5,359.0,352.5,363.0,352.0,367.5,352.0,371.5,351.5,376.0,352.0,380.5,352.5,387.0,353.0,391.0,353.5,395.0,354.0,399.0,354.5,403.0,352.5,404.5,353.5,408.0,353.5,412.0" stroke="black" stroke-width="2" fill="none" />
<polyline points="360.5,384.0,360.5,380.0,360.5,376.0,361.5,371.0,361.0,367.0,361.0,363.0" stroke="black" stroke-width="2" fill="none" />
<polyline points="359.0,362.5,359.5,366.5,360.0,370.0,359.5,374.0,359.0,377.5,359.0,381.5" stroke="black" stroke-width="2" fill="none" />
<polyline points="355.0,356.0,355.0,359.5,354.5,363.5,353.5,367.5,354.0,371.5,354.5,376.0,354.5,380.0,354.5,384.0,355.0,388.5,355.0,392.0,355.5,396.0,355.5,400.0,355.5,404.5,355.5,408.5,355.5,412.0,354.0,413.5" stroke="black" stroke-width="2" fill="none" />
<polyline points="375.5,464.0,373.5,461.5,372.0,457.0,372.0,452.5,372.5,449.0,373.0,445.0,373.5,440.5,373.5,436.5,374.0,432.5,374.5,428.5,375.0,424.0,375.0,420.5,376.0,416.5,375.5,413.0,375.5,409.0,376.0,405.0,376.5,401.0,376.5,397.0,376.5,392.5,377.0,388.5,376.5,384.5,376.5,381.0,376.5,376.5,376.5,372.5,376.5,368.5,376.5,364.5,377.5,360.5,377.0,356.5,376.5,352.5,376.0,348.5,375.0,344.5,375.0,340.5,374.5,336.5,374.0,332.0,373.5,328.0,372.0,324.0,371.5,319.5,371.0,316.0,370.5,311.5,370.0,308.0,369.5,303.5,369.5,299.5,369.5,296.0,369.0,292.0,369.0,288.5,368.5,284.5,368.5,280.5,368.5,276.5,368.5,272.0,368.0,268.5,368.0,264.5,368.0,260.5,367.5,256.5,367.0,252.5,367.0,248.5,366.0,244.5,366.0,240.5,364.5,236.5,363.5,232.5,362.5,228.5,361.0,224.5,360.0,221.0,359.0,217.0,356.5,213.5,355.0,210.0,354.0,207.0,351.0,202.5,349.5,198.5,349.0,196.5" stroke="black" stroke-width="2" fill="none" />
<polyline points="350.5,199.0,354.5,205.0,358.0,212.5" stroke="black" stroke-width="2" fill="none" />
<polyline points="362.0,202.5,358.5,194.5" stroke="black" stroke-width="2" fill="none" />
<polyline points="357.0,192.0,357.5,196.0,359.5,200.0,361.5,204.0,361.5,208.0" stroke="black" stroke-width="2" fill="none" />
<polyline points="356.0,204.5,352.0,199.0" stroke="black" stroke-width="2" fill="none" />
<polyline points="352.5,200.0,355.0,203.5,356.5,207.5" stroke="black" stroke-width="2" fill="none" />
<polyline points="350.0,204.0,346.0,199.0" stroke="black" stroke-width="2" fill="none" />
<polyline points="346.5,198.5,349.5,202.5" stroke="black" stroke-width="2" fill="none" />
<polyline points="347.5,205.5,343.5,201.0" stroke="black" stroke-width="2" fill="none" />
<polyline points="343.5,204.0,348.5,208.0,351.5,212.5" stroke="black" stroke-width="2" fill="none" />
<polyline points="345.5,211.0,342.0,208.0" stroke="black" stroke-width="2" fill="none" />
<polyline points="341.5,205.5,345.5,208.0,349.5,212.0,353.5,216.5,358.0,223.5" stroke="black" stroke-width="2" fill="none" />
<polyline points="369.0,221.0,371.5,215.0,370.5,219.0,369.5,222.5,369.0,226.0,369.0,230.0,369.5,232.5,370.0,236.5,371.5,240.0,372.5,244.0,374.0,248.0,374.5,251.5,376.0,255.5,375.0,259.5,377.0,264.0,378.5,268.0" stroke="black" stroke-width="2" fill="none" />
<polyline points="382.5,266.0,381.0,270.5,381.5,274.5,380.0,278.0,378.0,282.0,378.5,286.0,379.0,290.0" stroke="black" stroke-width="2" fill="none" />
<polyline points="374.5,292.5,374.0,296.5,373.5,300.5,374.0,304.0,374.5,308.0,375.0,312.0,375.5,316.0,377.5,323.0,377.5,327.0,377.5,331.5,378.0,335.5,378.5,339.0,379.0,343.5,380.0,347.5,380.5,351.5,381.0,355.5,381.5,359.5" stroke="black" stroke-width="2" fill="none" />
<polyline points="366.0,352.0,367.0,355.5,368.0,360.0,368.5,364.0,368.5,368.0,371.5,373.0,371.5,377.0,372.0,381.0,372.0,385.0" stroke="black" stroke-width="2" fill="none" />
<polyline points="384.0,348.5,384.0,344.5,384.0,340.5,384.5,337.0,384.5,333.0,383.5,329.0" stroke="black" stroke-width="2" fill="none" />
<polyline points="342.5,281.5,342.5,281.5,340.0,281.0,341.0,274.5,343.0,270.5,341.0,265.0,337.0,264.0" stroke="black" stroke-width="2" fill="none" />
<polyline points="335.0,267.0,338.5,266.5,338.5,270.0,335.5,273.5,334.0,271.0" stroke="black" stroke-width="2" fill="none" />
<polyline points="328.0,272.5,326.0,271.5,328.5,271.0,335.0,270.5,331.0,270.5,327.0,268.5" stroke="black" stroke-width="2" fill="none" />
<polyline points="324.0,270.0,326.0,274.5" stroke="black" stroke-width="2" fill="none" />
<polyline points="323.5,277.0,319.5,275.0" stroke="black" stroke-width="2" fill="none" />
<polyline points="318.0,272.0,322.0,265.0,326.0,261.5,330.0,260.0,334.5,259.0,338.5,258.5,342.5,257.5,346.0,257.0,348.0,253.0,352.0,252.5" stroke="black" stroke-width="2" fill="none" />
<polyline points="351.5,257.0,347.5,259.0" stroke="black" stroke-width="2" fill="none" />
<polyline points="345.0,255.0,341.5,255.0,337.5,256.0,334.0,256.5" stroke="black" stroke-width="2" fill="none" />
<polyline points="333.5,252.0,327.0,255.5,325.0,261.0,321.0,265.0,319.0,269.0,318.0,273.5,317.5,275.0,322.0,277.5" stroke="black" stroke-width="2" fill="none" />
<polyline points="322.0,268.0,326.0,274.0,330.0,275.0,334.0,273.0,333.0,271.5" stroke="black" stroke-width="2" fill="none" />
<polyline points="337.0,278.5,337.5,283.0" stroke="black" stroke-width="2" fill="none" />
<polyline points="336.5,280.5,340.5,282.0,344.5,280.0,348.5,279.5,349.0,283.5,349.5,287.5,349.0,291.5,349.5,295.5,349.0,299.5,348.0,304.0,347.5,307.5,344.0,311.5,346.0,313.5,344.5,317.0,342.5,321.5,340.0,325.0,338.5,329.5,336.0,333.5,335.0,338.0,333.0,342.0,331.5,345.5,329.5,349.5,327.0,353.5,325.5,357.0,323.0,360.5,320.0,364.5,318.0,368.5,316.5,373.0,315.5,377.0,314.0,381.0,314.5,385.0,312.0,389.0,318.0,392.5,326.5,396.5,335.0,400.0,340.5,403.5,345.5,407.5,349.0,411.0,352.5,415.0,355.0,419.0,357.5,423.0,359.5,427.0,362.0,431.0,363.5,435.0,365.0,439.5,366.0,443.5,367.5,447.5,369.0,451.5,370.0,455.5,371.0,459.0,372.5,462.5,373.5,467.0,375.0,471.0,375.5,475.5,376.5,479.5,377.5,484.0,378.5,488.5,380.0,492.5,381.0,497.0,382.5,501.0,383.5,505.0,384.5,509.0,385.5,513.0" stroke="black" stroke-width="2" fill="none" />
<polyline points="420.5,491.0,425.0,496.0,429.0,495.0,433.5,491.5,437.5,488.0,441.5,484.0,445.5,480.5,449.5,475.5,453.0,471.0,457.0,468.0" stroke="black" stroke-width="2" fill="none" />
<polyline points="458.5,466.5,452.5,471.0,450.0,470.0,453.5,463.5" stroke="black" stroke-width="2" fill="none" />
<polyline points="456.0,450.5,460.0,441.5" stroke="black" stroke-width="2" fill="none" />
<polyline points="464.5,430.0,469.0,423.0,473.0,416.5,476.5,407.5,480.5,404.5,484.5,400.0,489.0,397.5,492.5,394.0,494.5,390.5,498.5,389.0,502.5,387.5,506.5,386.0,511.0,384.5" stroke="black" stroke-width="2" fill="none" />
<polyline points="513.5,382.5,502.5,386.5,494.0,390.5,492.5,395.0,487.5,399.0,484.0,403.0,479.0,407.0,477.0,410.5,476.0,414.5,474.0,418.5,471.5,423.0,470.0,427.0,468.0,431.0,464.5,435.0,462.5,438.5,460.0,442.5,458.5,446.5,457.0,450.5,456.0,454.0,455.5,457.5,454.0,461.5,452.0,465.5,449.5,470.0,450.0,474.5,447.0,479.0,442.0,483.0,438.5,487.5,433.5,491.5" stroke="black" stroke-width="2" fill="none" />
<polyline points="431.0,482.0,430.0,479.5,431.5,476.5,434.0,480.0,435.5,476.0,436.0,472.0,438.0,467.5,439.0,463.5,440.0,460.0,438.5,458.5,434.5,456.0,430.0,452.5" stroke="black" stroke-width="2" fill="none" />
<polyline points="438.5,458.5,434.0,456.5,430.0,452.5,429.5,448.5,430.0,444.5,430.5,440.5,431.5,436.5,433.5,432.5,431.5,436.0" stroke="black" stroke-width="2" fill="none" />
<polyline points="429.5,467.5,426.5,471.5,422.5,475.5,421.5,479.5,422.0,483.5,422.0,487.5,423.0,491.5" stroke="black" stroke-width="2" fill="none" />
<polyline points="416.0,469.0,417.5,473.0,421.0,477.5,425.0,473.5,429.0,468.5" stroke="black" stroke-width="2" fill="none" />
<polyline points="486.0,410.5,482.0,416.0,480.0,418.0,483.5,414.0,486.0,409.5,489.0,405.0" stroke="black" stroke-width="2" fill="none" />
<polyline points="443.5,425.5,445.0,423.0,446.5,418.5,447.5,414.5,448.0,410.5,449.0,406.0,449.5,402.5,450.0,398.5,450.0,394.5,450.5,391.0,452.5,387.5,453.5,383.5,454.0,379.0,455.0,375.0,455.0,371.0,454.5,366.5" stroke="black" stroke-width="2" fill="none" />
<polyline points="365.0,311.0,364.5,307.0,364.5,303.0,364.5,299.5,364.5,295.5,364.5,292.0,364.0,287.5,364.0,284.0,363.5,280.5,363.5,277.0,364.5,273.0,365.0,269.5,365.0,265.5" stroke="black" stroke-width="2" fill="none" />
<polyline points="364.0,264.0,363.5,268.0,363.5,272.0,363.5,276.0,362.5,280.0,362.0,281.5" stroke="black" stroke-width="2" fill="none" />
<polyline points="349.0,278.0,342.5,277.0,338.0,278.5,334.5,279.0,330.5,278.0,324.0,276.0,323.0,272.0,323.5,268.0" stroke="black" stroke-width="2" fill="none" />
<polyline points="329.0,258.5,333.0,255.0,337.0,253.0,341.0,252.0,344.5,251.0,348.5,248.0,352.5,245.0" stroke="black" stroke-width="2" fill="none" />
<polyline points="353.0,241.0,350.0,245.5,345.0,249.5,341.0,253.5" stroke="black" stroke-width="2" fill="none" />
<polyline points="346.5,239.0,345.5,235.5,344.0,231.5,343.0,227.5,342.5,224.0,341.5,220.5,341.0,216.5,340.0,212.5,336.5,205.5" stroke="black" stroke-width="2" fill="none" />
<polyline points="335.0,204.0,339.0,201.5,343.0,198.5,347.0,196.5,350.5,194.0,354.5,191.0,358.0,189.0,362.0,186.5,366.0,184.5,370.0,183.0,374.5,181.5,378.0,180.5,382.0,179.0,386.0,176.5,390.0,174.0,394.0,172.0,397.5,170.5,401.5,169.0,405.5,168.0,402.0,172.0,400.0,175.5,397.0,179.5,393.0,183.5,387.0,187.0,382.0,189.5,386.0,188.0,390.0,185.5,394.5,182.5,398.5,179.5,402.5,175.0" stroke="black" stroke-width="2" fill="none" />
<polyline points="402.5,166.0,405.5,159.0,404.0,163.5,404.0,168.0,397.5,172.5,390.0,176.5,382.5,180.5" stroke="black" stroke-width="2" fill="none" />
<polyline points="374.5,183.0,364.0,187.0,357.5,191.5,350.5,195.5,342.5,199.5,337.0,203.5,337.0,207.0,341.5,210.0,346.0,213.5,351.5,214.5" stroke="black" stroke-width="2" fill="none" />
<polyline points="353.0,207.5,352.0,210.0,348.0,208.0,344.0,205.0,340.0,202.5" stroke="black" stroke-width="2" fill="none" />
<polyline points="339.5,201.5,342.0,206.0,347.0,210.0,350.5,214.0,353.5,218.0,355.0,222.0,357.5,227.5,359.0,231.0,361.0,235.5,362.0,239.5,363.0,243.5,363.5,247.5" stroke="black" stroke-width="2" fill="none" />
<polyline points="364.0,245.5,364.5,249.5" stroke="black" stroke-width="2" fill="none" />
<polyline points="370.0,248.0,370.0,251.5,370.5,256.0,372.0,260.0,372.5,264.0,373.0,268.0,372.0,272.0,374.0,274.0,373.0,277.0,373.0,281.0,374.0,285.0" stroke="black" stroke-width="2" fill="none" />
<polyline points="370.5,245.0,371.5,240.5,371.5,236.5,371.0,233.0" stroke="black" stroke-width="2" fill="none" />
<polyline points="341.5,215.5,337.5,207.5" stroke="black" stroke-width="2" fill="none" />
<polyline points="347.5,206.5,344.0,202.5,345.5,198.0" stroke="black" stroke-width="2" fill="none" />
<polyline points="361.0,190.0,365.0,195.0,369.0,194.5,373.5,193.0,377.5,191.0" stroke="black" stroke-width="2" fill="none" />
<polyline points="364.5,194.0,361.5,190.0" stroke="black" stroke-width="2" fill="none" />
<polyline points="336.5,154.0,332.5,156.5,328.5,159.0,324.5,161.0,320.0,163.0,316.5,165.0,312.0,167.5,308.0,170.0,304.0,172.5,300.0,175.5,296.0,178.5,291.5,181.5,286.5,185.0,282.5,189.5,278.5,193.5,274.5,196.5,270.5,200.5,270.0,198.5,273.0,196.0,271.5,201.0,275.5,197.0,281.0,193.0,285.5,189.0,289.0,186.0,293.5,181.5,291.5,177.0,283.0,175.0,280.5,174.5,276.5,177.0,272.5,175.0,268.5,176.0,264.5,174.5" stroke="black" stroke-width="2" fill="none" />
<polyline points="267.5,180.0,262.0,184.0,256.5,188.0,252.5,191.0,247.0,195.0,244.0,199.0,242.5,200.0,243.0,193.5,245.5,192.5,249.5,187.5,249.5,185.0,253.5,183.0,257.5,181.0,261.5,180.5" stroke="black" stroke-width="2" fill="none" />
<polyline points="258.5,178.0,255.5,176.0,251.5,172.0" stroke="black" stroke-width="2" fill="none" />
<polyline points="250.5,177.5,246.5,181.5,242.5,183.5,245.0,186.0,242.5,190.0,238.5,194.0,237.0,198.5,235.5,202.5,234.0,206.5,231.0,210.5,232.5,210.5,232.0,209.5,236.0,208.5" stroke="black" stroke-width="2" fill="none" />
<polyline points="235.5,207.0,235.5,203.5,238.0,199.5,235.0,201.5" stroke="black" stroke-width="2" fill="none" />
<polyline points="236.5,201.5,236.0,205.5" stroke="black" stroke-width="2" fill="none" />
<polyline points="243.5,200.5,247.5,195.0,251.0,192.0,255.0,190.0,249.0,189.5,246.0,193.0,243.0,194.5,247.0,190.5,250.5,189.0,255.0,184.5,256.0,188.0,260.0,184.5,264.0,182.0,268.0,180.5" stroke="black" stroke-width="2" fill="none" />
<polyline points="268.5,181.0,264.5,185.0,258.5,189.0,254.5,191.0,254.0,195.0,249.5,198.5,247.0,203.0,246.0,203.0,250.5,203.5,250.5,200.0,255.0,196.0,258.5,192.0,263.0,189.0,267.0,186.5,271.5,188.5" stroke="black" stroke-width="2" fill="none" />
<polyline points="268.0,189.0,263.5,191.0,259.5,194.5,257.5,201.5,261.0,197.5,265.0,194.0,268.0,189.5" stroke="black" stroke-width="2" fill="none" />
<polyline points="265.5,189.0,261.0,193.0,258.0,196.5,253.5,200.5,252.5,205.0,252.5,209.0,254.0,214.5,254.5,217.0" stroke="black" stroke-width="2" fill="none" />
<polyline points="263.0,221.0,267.0,225.0" stroke="black" stroke-width="2" fill="none" />
<polyline points="265.5,234.0,266.0,238.0" stroke="black" stroke-width="2" fill="none" />
<polyline points="262.0,238.5,261.5,234.5,262.0,230.5,261.5,226.5,262.0,225.0,258.0,224.0,252.5,229.5,248.5,234.0,245.0,238.5,241.0,243.5,237.0,248.5,232.5,254.0,229.0,259.5,225.0,266.5,221.0,273.5,217.0,281.0,215.0,284.5,217.0,280.0,219.0,275.5,221.0,271.5,223.5,267.5,226.0,263.5,228.0,260.0,231.0,256.5,234.0,252.5,236.5,248.5,240.0,244.5,243.5,240.0,247.0,236.0,251.5,232.0,256.0,227.0,260.0,222.5,262.5,218.5,264.5,217.0,262.5,215.5,263.5,211.5,264.0,207.5,268.0,203.5,269.5,200.0,270.0,196.0,271.0,191.5,270.0,187.5,265.0,192.5,261.0,197.0,256.5,201.0,252.5,202.5" stroke="black" stroke-width="2" fill="none" />
<polyline points="252.0,201.5,256.5,197.5" stroke="black" stroke-width="2" fill="none" />
<polyline points="263.0,200.5,259.0,208.5,256.5,214.5,252.5,218.0,248.5,222.0,244.0,226.0,240.0,230.5,235.0,235.0,231.0,234.5,230.5,233.5,230.0,229.5,230.0,225.5,229.5,221.5,228.0,218.0,226.5,214.0,224.5,214.0,223.0,210.0,223.0,206.0,223.5,202.5" stroke="black" stroke-width="2" fill="none" />
<polyline points="221.0,204.5,225.0,200.5,227.5,197.5,224.0,202.0,221.5,206.0,220.0,210.0,222.5,213.0,223.0,216.0,224.0,220.0,226.5,223.5,227.5,227.5,228.5,231.5,229.5,235.5,232.0,239.5,229.5,243.5,226.5,247.5,224.0,252.0,220.5,256.0,218.5,260.0,216.5,264.0,214.0,268.0,212.0,272.0,209.5,276.0,207.0,280.0,204.5,283.5,202.5,287.5,200.5,291.5,198.5,295.5,196.0,299.5,194.5,304.0,193.0,308.0,191.5,312.0,189.5,316.0,192.0,319.5,196.5,321.0,200.5,319.5,206.5,314.0,210.5,309.5,214.5,303.5,218.5,298.5,223.0,293.0,227.0,287.5,230.5,283.0,234.5,278.5,238.0,274.0,241.5,269.5,245.0,265.0,249.0,260.0,252.5,256.0,256.5,252.5,260.0,249.0,264.0,246.5,268.0,244.0,273.0,244.5,277.0,247.0,280.5,248.0,285.0,249.0,289.0,249.5,293.5,252.5,298.0,255.5" stroke="black" stroke-width="2" fill="none" />
<polyline points="288.5,256.5,286.0,257.0,283.0,259.5,285.0,261.0" stroke="black" stroke-width="2" fill="none" />
<polyline points="285.5,260.5,286.5,266.5,289.0,270.5" stroke="black" stroke-width="2" fill="none" />
<polyline points="290.0,272.5,286.0,266.0" stroke="black" stroke-width="2" fill="none" />
<polyline points="285.5,266.0,287.0,270.5" stroke="black" stroke-width="2" fill="none" />
<polyline points="285.5,276.5,281.5,275.5" stroke="black" stroke-width="2" fill="none" />
<polyline points="288.0,272.0,284.0,269.5,280.0,265.0,276.0,263.5,272.0,265.0" stroke="black" stroke-width="2" fill="none" />
<polyline points="268.5,265.5,268.5,265.5,270.5,270.0" stroke="black" stroke-width="2" fill="none" />
<polyline points="271.0,265.5,266.0,269.5,262.5,266.5" stroke="black" stroke-width="2" fill="none" />
<polyline points="264.5,266.0,263.0,267.0,264.0,268.5,268.0,270.0" stroke="black" stroke-width="2" fill="none" />
<polyline points="260.5,268.5,265.0,273.0,269.0,274.0,273.5,270.0,275.0,268.5,272.0,273.0,272.0,278.0,274.0,282.0,275.5,282.5" stroke="black" stroke-width="2" fill="none" />
<polyline points="262.5,282.0,264.0,278.0,259.0,275.0,259.5,271.5,258.0,267.5,258.0,267.0" stroke="black" stroke-width="2" fill="none" />
<polyline points="259.5,265.5,261.0,269.5,266.0,274.0,267.0,281.5" stroke="black" stroke-width="2" fill="none" />
<polyline points="259.5,271.5,255.5,274.0,252.0,270.5,248.0,267.5" stroke="black" stroke-width="2" fill="none" />
<polyline points="247.5,267.5,250.5,266.0,249.0,270.0,253.0,273.5,256.0,277.5,263.0,276.0,266.5,277.0,270.0,275.5,273.5,278.0,277.5,278.5,282.5,271.5,278.5,275.0,277.0,281.0" stroke="black" stroke-width="2" fill="none" />
<polyline points="289.0,276.0,286.5,279.5,287.5,279.0,286.5,276.5,285.0,273.0,282.5,269.0,277.5,265.0" stroke="black" stroke-width="2" fill="none" />
<polyline points="279.5,251.0,283.5,252.0,283.0,257.5,288.0,262.0,291.0,266.5,293.0,270.5" stroke="black" stroke-width="2" fill="none" />
<polyline points="279.5,257.0,275.0,258.5,271.5,255.0,269.5,256.5,265.5,257.5,262.0,256.5,260.0,258.5,256.0,258.5" stroke="black" stroke-width="2" fill="none" />
<polyline points="263.5,251.0,267.5,248.5,271.5,249.0,275.5,250.5,278.0,255.5" stroke="black" stroke-width="2" fill="none" />
<polyline points="269.5,252.5,266.5,256.5" stroke="black" stroke-width="2" fill="none" />
<polyline points="272.0,245.0,266.5,245.5,261.0,249.5,256.5,253.5,252.0,257.0,248.0,261.0,244.5,265.0,240.5,269.5,237.0,273.5,233.0,278.0,229.0,282.0,225.5,286.0,222.5,289.5,219.5,293.5,217.0,297.0,214.5,301.0,212.0,304.5,208.5,308.5,205.5,312.5,205.0,316.5,202.5,320.5,198.5,324.5,195.5,329.0,193.0,333.5,190.0,338.0,187.0,342.0,184.0,346.0,181.0,350.0,178.5,354.0,175.5,357.5,172.5,361.0,169.0,365.0,165.5,369.0,162.0,373.5,160.0,377.5,158.5,383.5,162.0,389.5,166.0,392.5,170.0,397.5,173.5,403.0,178.0,411.5" stroke="black" stroke-width="2" fill="none" />
<polyline points="172.0,417.0,174.0,421.5,176.0,426.0,177.0,430.0,177.0,434.0,175.5,437.5,172.0,439.5,172.5,441.0,172.5,446.0,173.5,450.0,174.5,454.0,177.0,457.0,174.0,462.5,174.5,466.5,170.5,465.0,174.0,468.0" stroke="black" stroke-width="2" fill="none" />
<polyline points="173.5,460.5,170.0,454.0" stroke="black" stroke-width="2" fill="none" />
<polyline points="169.0,455.5,171.5,459.0,171.0,464.0,169.5,467.5,166.0,469.0" stroke="black" stroke-width="2" fill="none" />
<polyline points="167.5,468.5,163.5,468.0,157.0,471.0,153.0,468.5,148.5,462.0,144.5,454.0,140.5,451.5,136.5,456.5,133.0,466.0" stroke="black" stroke-width="2" fill="none" />
<polyline points="138.5,465.5,140.0,469.5,142.5,473.5,147.0,477.0,152.0,481.0,153.5,486.0,151.5,484.0,156.0,484.5,157.5,489.5,161.0,495.0,163.5,493.5,166.0,500.0" stroke="black" stroke-width="2" fill="none" />
<polyline points="167.0,498.0,163.0,496.0" stroke="black" stroke-width="2" fill="none" />
<polyline points="160.0,502.0,162.5,506.0,164.0,510.0" stroke="black" stroke-width="2" fill="none" />
<polyline points="168.0,509.5,165.0,505.5,163.5,504.5" stroke="black" stroke-width="2" fill="none" />
<polyline points="156.0,511.0,152.0,506.0" stroke="black" stroke-width="2" fill="none" />
<polyline points="155.0,497.5,151.0,492.0" stroke="black" stroke-width="2" fill="none" />
<polyline points="149.5,495.0,153.0,501.5" stroke="black" stroke-width="2" fill="none" />
<polyline points="152.5,492.0,152.0,486.5,148.0,483.0" stroke="black" stroke-width="2" fill="none" />
<polyline points="148.0,481.5,148.0,485.5,151.5,490.0,154.5,490.0,154.5,494.5,155.0,499.0,157.0,503.0,158.0,507.0,159.0,508.5,165.5,512.0" stroke="black" stroke-width="2" fill="none" />
<polyline points="153.0,510.5,148.5,501.5,144.5,496.5" stroke="black" stroke-width="2" fill="none" />
<polyline points="143.0,495.0,146.0,499.0,148.5,503.0,150.0,507.0,152.0,511.0" stroke="black" stroke-width="2" fill="none" />
<polyline points="156.5,507.0,152.0,504.0,148.0,496.5,146.5,491.0,142.5,482.5" stroke="black" stroke-width="2" fill="none" />
<polyline points="139.5,482.5,143.5,490.5,148.5,494.5,151.5,498.5,154.5,502.5,154.5,504.5" stroke="black" stroke-width="2" fill="none" />
<polyline points="174.0,509.5,170.0,506.0,165.5,504.0,161.5,503.0,157.5,501.0,153.0,498.5,151.5,495.0,147.5,493.5,145.5,489.5,143.5,485.5,140.5,479.0" stroke="black" stroke-width="2" fill="none" />
<polyline points="140.0,484.5,142.5,488.5,144.0,492.5,146.5,496.5,150.0,500.5,152.0,504.5,152.5,508.5,155.5,512.5" stroke="black" stroke-width="2" fill="none" />
<polyline points="142.0,512.5,144.0,508.5,142.0,504.5,141.5,500.5,140.5,496.5,136.5,492.0,136.0,486.0" stroke="black" stroke-width="2" fill="none" />
<polyline points="134.0,483.0,132.5,487.0,134.0,491.0,136.0,495.0,133.5,497.0,136.5,501.5,138.0,505.5,139.0,509.5,139.5,513.5" stroke="black" stroke-width="2" fill="none" />
<polyline points="132.0,506.5,127.5,497.5" stroke="black" stroke-width="2" fill="none" />
<polyline points="125.0,497.5,127.0,501.5,126.0,505.0,126.5,509.0" stroke="black" stroke-width="2" fill="none" />
<polyline points="124.5,509.0,125.0,505.0,125.0,500.5,125.0,496.5,124.0,491.5,123.5,490.0" stroke="black" stroke-width="2" fill="none" />
<polyline points="122.5,495.5,126.5,503.5,131.0,509.0" stroke="black" stroke-width="2" fill="none" />
<polyline points="132.0,513.0,129.0,509.0,126.0,505.0" stroke="black" stroke-width="2" fill="none" />
<polyline points="136.5,494.5,136.0,487.5,132.0,483.5" stroke="black" stroke-width="2" fill="none" />
<polyline points="134.0,483.0,135.5,487.0,134.5,489.0,137.0,493.5,137.0,497.0,138.5,501.0,139.0,504.5" stroke="black" stroke-width="2" fill="none" />
<polyline points="121.5,511.0,121.5,507.5,121.0,504.0,121.5,500.0,119.5,496.0,119.0,492.0,119.5,488.0,119.5,484.0" stroke="black" stroke-width="2" fill="none" />
<polyline points="122.0,483.0,123.0,487.0,125.5,491.0,127.5,495.0,129.0,499.0,130.5,503.0,132.0,507.0,135.5,511.0" stroke="black" stroke-width="2" fill="none" />
<polyline points="109.0,509.0,109.5,505.5,110.5,501.0,111.0,497.0,112.5,493.0,112.5,489.0,113.0,487.0" stroke="black" stroke-width="2" fill="none" />
<polyline points="115.0,488.5,115.0,492.0,114.5,496.0,113.0,500.0,113.0,504.5,111.5,508.5,110.5,512.5" stroke="black" stroke-width="2" fill="none" />
<polyline points="104.0,505.0,100.0,501.0" stroke="black" stroke-width="2" fill="none" />
<polyline points="100.0,493.0,99.0,497.0,100.5,500.5,102.5,504.5,105.0,507.5,107.0,511.5" stroke="black" stroke-width="2" fill="none" />
<polyline points="104.5,510.0,102.5,506.5,100.5,502.5,98.5,499.0,97.5,495.0,96.5,491.5" stroke="black" stroke-width="2" fill="none" />
<polyline points="96.0,468.0,92.0,472.0,93.5,470.5,97.0,466.5" stroke="black" stroke-width="2" fill="none" />
<polyline points="94.0,455.5,90.0,458.0,86.0,460.5,87.5,459.5,93.5,455.5" stroke="black" stroke-width="2" fill="none" />
<polyline points="93.0,452.5,88.5,455.5,85.0,457.0,82.5,458.5,88.0,455.0,92.5,451.0" stroke="black" stroke-width="2" fill="none" />
<polyline points="110.0,446.5,109.5,443.0,109.0,441.0" stroke="black" stroke-width="2" fill="none" />
<polyline points="105.5,438.0,105.0,442.0,103.5,446.0" stroke="black" stroke-width="2" fill="none" />
<polyline points="102.5,436.0,99.0,440.5,95.5,445.5,93.5,444.5,93.0,448.5,94.0,444.5,99.0,440.5,102.5,436.5,104.5,432.5,105.5,428.5,105.5,424.5,105.5,420.5,109.5,419.0,105.5,420.5" stroke="black" stroke-width="2" fill="none" />
<polyline points="107.5,414.5,108.5,419.0,108.5,423.5,108.0,428.0,108.0,433.0,106.5,437.0,106.0,441.5,107.0,448.0" stroke="black" stroke-width="2" fill="none" />
<polyline points="103.0,437.5,99.0,441.5,102.0,439.5,104.0,435.5" stroke="black" stroke-width="2" fill="none" />
<polyline points="115.5,432.0,115.5,428.0" stroke="black" stroke-width="2" fill="none" />
<polyline points="121.5,430.0,121.0,434.5,119.0,438.5,117.5,442.5,118.5,443.0,119.0,437.0" stroke="black" stroke-width="2" fill="none" />
<polyline points="122.0,440.0,120.0,444.0" stroke="black" stroke-width="2" fill="none" />
<polyline points="119.5,452.5,122.0,456.0" stroke="black" stroke-width="2" fill="none" />
<polyline points="124.0,455.5,122.5,451.5,120.5,453.0" stroke="black" stroke-width="2" fill="none" />
<polyline points="140.5,452.0,142.5,455.5,143.5,459.5,143.5,463.5,145.0,467.0,146.5,471.0,150.0,475.5,154.5,479.0" stroke="black" stroke-width="2" fill="none" />
<polyline points="156.0,474.5,152.0,472.0,148.0,465.5" stroke="black" stroke-width="2" fill="none" />
<polyline points="148.5,468.0,152.0,472.0,157.5,476.0" stroke="black" stroke-width="2" fill="none" />
<polyline points="154.5,475.5,150.5,474.5,146.5,469.0,142.5,466.0,138.5,464.5" stroke="black" stroke-width="2" fill="none" />
<polyline points="149.5,462.0,154.0,467.5,156.5,467.5,157.0,473.0,159.0,476.0,157.5,475.5,163.0,476.5,165.5,471.5" stroke="black" stroke-width="2" fill="none" />
<polyline points="163.5,471.0,167.5,475.0,169.0,479.0,167.0,483.5,166.0,487.5,168.0,491.5,169.0,494.0" stroke="black" stroke-width="2" fill="none" />
<polyline points="168.0,490.5,166.5,486.5,159.5,483.5" stroke="black" stroke-width="2" fill="none" />
<polyline points="166.0,479.5,164.0,483.5,165.5,481.5,168.5,482.0" stroke="black" stroke-width="2" fill="none" />
<polyline points="170.5,463.0,166.5,461.0" stroke="black" stroke-width="2" fill="none" />
<polyline points="176.5,464.0,178.0,459.5,179.5,456.0,174.0,459.0,172.0,454.5,169.5,450.5,167.5,448.0,165.5,444.0,165.5,440.5,166.0,435.5,166.0,431.5,167.0,432.0" stroke="black" stroke-width="2" fill="none" />
<polyline points="164.0,430.5,161.0,434.5,162.0,435.0,168.5,435.5" stroke="black" stroke-width="2" fill="none" />
<polyline points="175.5,434.5,171.5,434.0,167.5,428.0" stroke="black" stroke-width="2" fill="none" />
<polyline points="166.5,427.5,168.5,431.5,170.5,435.5,169.5,439.0,169.5,440.0,174.5,439.5" stroke="black" stroke-width="2" fill="none" />
<polyline points="175.5,444.0,175.5,448.5,176.5,452.5,176.0,457.0" stroke="black" stroke-width="2" fill="none" />
<polyline points="178.0,446.5,174.0,445.5" stroke="black" stroke-width="2" fill="none" />
<polyline points="179.5,438.5,175.5,442.5,179.5,442.0,183.5,444.0,187.5,440.0" stroke="black" stroke-width="2" fill="none" />
<polyline points="197.5,446.0,201.5,444.0,199.0,444.0,199.0,448.0" stroke="black" stroke-width="2" fill="none" />
<polyline points="199.0,450.5,195.0,449.0,191.0,448.5,187.0,447.5,182.5,447.0,179.0,450.0,180.0,449.0,181.5,449.0,184.0,443.0,183.5,438.0,181.0,436.0,179.5,433.5,181.0,430.0,181.5,426.5,180.5,422.5,179.5,418.0,178.0,414.0,176.5,410.0,174.5,406.0,172.0,402.0,169.0,398.0,165.5,394.0,160.5,390.0,158.5,386.0,162.0,382.0,163.0,378.0,162.0,381.5" stroke="black" stroke-width="2" fill="none" />
<polyline points="159.0,377.0,163.5,371.5,167.5,366.5,172.0,361.5,176.5,356.0,180.5,349.5,185.0,343.5,188.5,338.5,192.5,333.0,196.5,328.5,200.5,323.5" stroke="black" stroke-width="2" fill="none" />
<polyline points="197.5,318.0,202.0,316.0" stroke="black" stroke-width="2" fill="none" />
<polyline points="190.5,317.5,194.5,308.0,199.0,299.5,203.0,291.5,207.0,285.0,211.0,277.5,215.0,271.0,219.5,265.0,223.5,259.0,227.5,253.5,231.5,248.0,235.5,242.5,240.0,237.0,244.0,231.5,248.0,227.0,251.5,222.5,255.5,218.5" stroke="black" stroke-width="2" fill="none" />
<polyline points="261.0,209.5,265.0,205.0" stroke="black" stroke-width="2" fill="none" />
<polyline points="262.0,208.0,266.0,200.5,263.0,201.0,261.0,205.0,259.0,209.5,258.0,214.0,255.0,219.0,252.0,222.0,248.5,226.0,244.0,230.0,240.5,234.0,238.0,238.0,234.5,242.0" stroke="black" stroke-width="2" fill="none" />
<polyline points="235.0,224.5,231.0,222.5" stroke="black" stroke-width="2" fill="none" />
<polyline points="233.0,221.5,229.0,219.0" stroke="black" stroke-width="2" fill="none" />
<polyline points="225.5,214.5,223.5,220.0,227.5,228.5" stroke="black" stroke-width="2" fill="none" />
<polyline points="219.0,233.5,220.0,237.0" stroke="black" stroke-width="2" fill="none" />
<polyline points="217.5,234.0,221.0,233.0,222.0,236.5,222.5,240.5,221.0,244.0,219.5,248.0" stroke="black" stroke-width="2" fill="none" />
<polyline points="220.0,249.5,221.0,245.5,223.5,241.0,223.5,237.0,226.5,233.0,221.0,232.5,223.5,229.5,220.5,228.5,220.0,224.0,220.0,220.0,219.5,216.5,220.0,212.5" stroke="black" stroke-width="2" fill="none" />
<polyline points="217.5,217.0,217.5,221.5,218.0,225.5,216.0,228.0,219.5,232.0,224.0,232.0,229.5,235.5" stroke="black" stroke-width="2" fill="none" />
<polyline points="232.0,242.5,227.5,247.5,223.5,254.0,219.5,260.5,215.0,267.5,211.0,273.5,207.0,280.0,202.5,287.5,198.5,294.5,194.5,302.5,190.5,312.0,186.5,315.5,182.5,324.0,178.5,328.5,175.0,329.0,171.0,329.5,167.0,332.0,163.0,339.0,159.5,341.0,156.0,344.0,151.5,350.0,147.5,347.0" stroke="black" stroke-width="2" fill="none" />
<polyline points="144.5,343.5,147.0,339.0,145.0,339.0,149.0,337.0,148.0,333.0,150.0,329.0,148.0,330.5" stroke="black" stroke-width="2" fill="none" />
<polyline points="150.0,329.0,153.0,333.0,153.0,337.0" stroke="black" stroke-width="2" fill="none" />
<polyline points="149.5,339.5,148.0,343.5,147.5,347.5,146.5,351.5" stroke="black" stroke-width="2" fill="none" />
<polyline points="137.5,351.5,133.5,348.0,129.5,343.0" stroke="black" stroke-width="2" fill="none" />
<polyline points="130.5,341.5,135.5,339.5,140.0,345.0" stroke="black" stroke-width="2" fill="none" />
<polyline points="142.0,336.5,140.0,339.0,138.5,335.0,138.0,328.0" stroke="black" stroke-width="2" fill="none" />
<polyline points="128.0,321.5,130.0,327.0,131.0,330.5,129.5,334.5,131.0,338.5,129.5,342.0,131.5,345.5,135.0,349.5,140.0,351.5,141.0,354.0,141.0,357.5,140.5,361.5,137.0,366.0,133.0,370.0,134.5,371.5,138.0,375.0,139.5,380.0,135.5,384.0,135.5,388.5,139.0,391.0,142.0,385.0,146.0,390.0,146.5,397.0,150.0,402.5,154.5,404.5,158.5,410.0,162.5,415.0,172.0,416.0,175.5,422.5" stroke="black" stroke-width="2" fill="none" />
<polyline points="178.5,426.0,177.0,423.0,175.0,419.0,175.5,415.5,172.0,414.5,169.0,410.5,166.0,406.5,163.0,402.5,163.5,398.0,165.0,401.5" stroke="black" stroke-width="2" fill="none" />
<polyline points="168.5,404.5,173.0,408.5,174.5,413.0,172.0,417.0,169.5,421.0,168.0,424.5,164.5,424.5,163.5,429.0,164.0,433.5,159.5,437.0,163.5,431.5,167.0,427.0,170.0,425.0,172.5,429.0" stroke="black" stroke-width="2" fill="none" />
<polyline points="163.0,442.5,162.0,443.0,160.5,446.5,158.5,450.5,159.0,454.5,160.5,457.0,162.5,461.0" stroke="black" stroke-width="2" fill="none" />
<polyline points="164.0,456.0,162.0,457.5,162.5,453.0,163.5,449.0,160.5,450.0,160.0,447.5" stroke="black" stroke-width="2" fill="none" />
<polyline points="161.0,445.0,165.0,441.0,169.0,445.0,173.0,445.0,176.5,440.5,180.5,439.5,181.0,434.5" stroke="black" stroke-width="2" fill="none" />
<polyline points="171.0,427.5,170.0,424.0,166.0,418.5,168.0,415.0,166.5,411.0,164.5,406.5,160.5,406.5" stroke="black" stroke-width="2" fill="none" />
<polyline points="163.0,410.0,165.0,414.5,168.0,420.0" stroke="black" stroke-width="2" fill="none" />
<polyline points="166.5,416.5,162.5,410.5" stroke="black" stroke-width="2" fill="none" />
<polyline points="157.0,421.5,156.5,421.5,157.0,425.5,158.0,429.5,158.0,433.5,158.0,435.5,157.0,439.5,156.5,441.0" stroke="black" stroke-width="2" fill="none" />
<polyline points="151.0,439.0,144.0,429.5,140.0,422.5" stroke="black" stroke-width="2" fill="none" />
<polyline points="140.0,421.5,144.0,424.0" stroke="black" stroke-width="2" fill="none" />
<polyline points="138.0,420.0,144.0,422.0,149.5,426.5,147.0,429.5,148.0,434.0,150.0,438.0,154.5,438.0,155.0,442.0,157.5,445.5,156.0,449.5,156.5,448.0,159.5,450.5,163.0,448.5,163.5,453.0,167.5,455.5,171.5,461.5" stroke="black" stroke-width="2" fill="none" />
<polyline points="176.5,462.0,172.5,458.5,168.5,451.5,165.0,444.0" stroke="black" stroke-width="2" fill="none" />
<polyline points="164.5,444.5,166.0,448.5,167.5,452.5,168.5,456.5,171.5,460.5,168.5,463.5,167.0,467.5,162.0,470.0,162.5,474.5,161.0,478.5,158.0,479.5,158.0,483.0,158.5,487.0,160.0,491.0,164.0,494.5,165.5,498.5,167.5,505.0,172.0,509.0,173.0,513.0,174.0,512.5" stroke="black" stroke-width="2" fill="none" />
<polyline points="194.0,492.0,198.0,491.0,201.5,489.5,205.5,488.0,210.0,486.5,214.0,484.0,218.0,480.5,222.0,476.5,226.0,471.0,230.0,465.5" stroke="black" stroke-width="2" fill="none" />
<polyline points="233.0,467.5,237.0,460.0" stroke="black" stroke-width="2" fill="none" />
<polyline points="211.0,487.0,216.5,483.0,220.5,479.0,224.0,475.5,226.5,471.5,229.0,467.5,231.0,463.0,233.0,459.0,233.5,455.0,234.0,451.0,235.0,447.0,235.5,443.0,236.0,439.0,237.0,435.0,236.5,431.0,236.0,427.5,236.0,423.5,235.5,419.5,234.5,415.5,233.0,411.5,232.0,407.0,231.5,405.0" stroke="black" stroke-width="2" fill="none" />
<polyline points="231.0,415.0,229.5,419.0" stroke="black" stroke-width="2" fill="none" />
<polyline points="222.0,416.5,221.0,416.0,221.0,412.0" stroke="black" stroke-width="2" fill="none" />
<polyline points="244.5,411.5,244.0,415.0,244.5,419.0,243.5,423.0,242.0,427.5,241.0,431.5,241.0,435.0,239.5,439.0,239.0,443.0,238.0,446.5,236.5,450.5,236.0,454.0,235.5,458.0,234.5,462.0,232.0,466.5,232.0,470.5,229.5,474.5,227.5,478.5,223.5,483.0,219.5,487.0,212.5,491.0" stroke="black" stroke-width="2" fill="none" />
<polyline points="197.5,494.5,193.5,498.0,198.5,495.0,202.5,494.5,206.5,492.5,210.5,491.0,215.0,489.0,219.5,486.5,224.5,482.5,228.5,478.0,232.5,471.0" stroke="black" stroke-width="2" fill="none" />
<polyline points="198.0,433.0,197.0,429.0" stroke="black" stroke-width="2" fill="none" />
<polyline points="199.0,424.5,199.0,428.5,196.5,430.5,195.5,435.0" stroke="black" stroke-width="2" fill="none" />
<polyline points="192.0,433.5,192.0,429.5,192.5,426.0" stroke="black" stroke-width="2" fill="none" />
<polyline points="170.5,407.5,166.5,403.5,162.5,403.0,157.0,397.0,153.0,392.5" stroke="black" stroke-width="2" fill="none" />
<polyline points="151.0,395.5,155.5,396.5" stroke="black" stroke-width="2" fill="none" />
<polyline points="157.5,400.0,153.0,396.0,151.0,396.5" stroke="black" stroke-width="2" fill="none" />
<polyline points="148.5,392.5,149.0,395.5,149.0,400.5,150.0,404.5,151.5,412.0,152.0,415.5,152.5,420.5" stroke="black" stroke-width="2" fill="none" />
<polyline points="161.5,425.0,159.5,428.0,159.5,424.0,161.0,420.0,160.5,426.5,162.5,422.5,162.0,418.5,161.0,414.5,161.5,410.5,160.5,406.5,160.5,402.5,161.5,398.5,160.5,394.0,157.0,388.5,156.0,384.0,155.0,379.5,153.0,376.0,152.5,372.0,151.5,368.0,147.5,362.0" stroke="black" stroke-width="2" fill="none" />
<polyline points="148.0,361.5,150.0,366.0,150.0,367.5,150.0,371.5,150.0,375.5,150.5,380.0,150.0,384.5,149.0,385.5,154.0,390.0,158.5,392.0,162.0,397.0,168.0,399.0,172.0,403.0,175.5,410.5" stroke="black" stroke-width="2" fill="none" />
<polyline points="179.5,424.5,179.5,420.5,179.0,416.5,177.0,412.5,176.0,408.5,174.0,405.0,170.5,401.0,167.5,400.5,166.0,396.5" stroke="black" stroke-width="2" fill="none" />
<polyline points="154.0,386.5,150.0,383.5,151.5,381.0" stroke="black" stroke-width="2" fill="none" />
<polyline points="140.5,385.0,138.5,380.5,134.5,375.5" stroke="black" stroke-width="2" fill="none" />
<polyline points="133.5,373.5,140.0,372.0,141.5,376.5,142.5,380.5,146.0,381.0,146.5,385.5" stroke="black" stroke-width="2" fill="none" />
<polyline points="143.5,390.5,142.0,394.5,139.5,398.5,137.5,403.0,133.5,407.0,130.0,411.0,130.0,414.0,133.0,418.0,135.5,421.0,138.5,425.0,140.0,430.5,140.5,434.0,138.0,439.5,138.5,443.5,137.0,447.5,136.0,451.0,135.0,455.0,132.0,457.5,131.5,461.0,135.0,466.0,135.5,466.5,139.5,467.0,144.0,472.5,148.0,476.0,151.0,479.0,155.0,482.5,159.5,483.5,164.0,486.5,167.0,490.5" stroke="black" stroke-width="2" fill="none" />
<polyline points="160.5,461.5,156.0,459.0" stroke="black" stroke-width="2" fill="none" />
<polyline points="150.0,458.0,153.5,462.5,157.0,465.0" stroke="black" stroke-width="2" fill="none" />
<polyline points="156.0,467.5,149.5,461.0" stroke="black" stroke-width="2" fill="none" />
<polyline points="148.5,454.0,144.5,450.5" stroke="black" stroke-width="2" fill="none" />
<polyline points="145.0,449.0,149.0,453.0,152.0,454.0,152.5,458.5,153.5,455.5,157.5,456.0,163.0,455.0" stroke="black" stroke-width="2" fill="none" />
<polyline points="156.0,452.0,152.5,450.5,149.0,449.5,145.0,446.5" stroke="black" stroke-width="2" fill="none" />
<polyline points="145.5,449.0,146.5,453.0,149.5,457.0,150.5,461.5,151.5,465.0,151.0,467.5,155.0,470.5,157.5,474.5,157.0,478.0,161.0,479.5,165.0,477.0,169.5,477.0" stroke="black" stroke-width="2" fill="none" />
<polyline points="152.5,447.0,148.5,441.5,145.5,436.0,139.5,426.0,135.5,421.5,131.5,418.0" stroke="black" stroke-width="2" fill="none" />
<polyline points="133.5,421.5,136.0,425.0,136.0,429.0,137.5,432.5,138.0,436.5,141.0,441.5,141.5,446.0,140.0,450.0,138.5,454.0,136.0,458.0,134.0,462.5,132.5,466.5,133.5,457.5" stroke="black" stroke-width="2" fill="none" />
<polyline points="142.5,451.5,145.0,456.0,147.0,460.0,148.0,464.0,148.0,467.5,148.0,471.5,151.5,475.5,153.0,479.0,155.5,479.0,156.0,484.0,154.0,487.5,157.5,491.5,160.5,495.5,162.0,500.0,164.0,503.5,164.5,507.5,166.0,512.0" stroke="black" stroke-width="2" fill="none" />
<polyline points="138.5,434.5,137.0,430.5,136.0,428.5" stroke="black" stroke-width="2" fill="none" />
<polyline points="149.5,423.0,146.0,417.0,142.0,412.0,138.0,407.5" stroke="black" stroke-width="2" fill="none" />
<polyline points="138.5,409.0,142.0,413.0,144.5,417.0,147.5,421.0,150.5,425.0,149.0,429.5" stroke="black" stroke-width="2" fill="none" />
<polyline points="148.0,413.0,144.5,408.5,140.5,404.5" stroke="black" stroke-width="2" fill="none" />
<polyline points="142.0,402.5,146.0,406.5" stroke="black" stroke-width="2" fill="none" />
<polyline points="144.5,405.0,140.5,401.5" stroke="black" stroke-width="2" fill="none" />
<polyline points="140.0,400.5,141.5,404.5,145.0,408.0,149.5,412.0" stroke="black" stroke-width="2" fill="none" />
<polyline points="143.5,398.5,139.5,402.0,133.0,407.0,129.5,411.5" stroke="black" stroke-width="2" fill="none" />
<polyline points="129.5,414.0,133.5,418.0,138.0,422.5,140.5,423.5,142.5,427.5,144.5,432.0,144.0,436.0,145.0,439.5,149.0,443.5,151.5,446.5,152.5,450.5,153.5,454.5,153.0,456.5,159.0,461.5" stroke="black" stroke-width="2" fill="none" />
<polyline points="133.5,428.0,132.0,424.5,131.5,420.5,127.5,415.5" stroke="black" stroke-width="2" fill="none" />
<polyline points="126.5,412.5,130.5,407.5,134.0,403.0" stroke="black" stroke-width="2" fill="none" />
<polyline points="130.0,408.0,134.0,404.0,135.0,397.0,138.5,395.0,142.5,391.0,143.5,387.0,143.0,386.0,145.0,381.0,147.0,375.0,148.0,371.0,148.0,367.0,145.5,363.0,145.0,359.0,145.0,355.0,144.0,353.0,142.5,349.0,139.0,345.0,137.5,340.5,136.5,336.5,135.0,332.5,135.0,329.0,134.0,325.5,133.5,321.5,132.0,317.0,131.0,313.0,129.5,309.0,128.5,304.5,126.5,297.5,130.5,293.5,134.0,291.0,136.0,287.0,129.0,283.5,125.0,277.5" stroke="black" stroke-width="2" fill="none" />
<polyline points="127.5,274.5,127.5,279.0,129.5,283.0,130.0,287.0,127.0,289.5,125.5,293.5,124.0,297.5,122.5,302.0,125.0,305.5,123.0,309.5,122.0,313.5,121.5,317.5,121.5,321.0,122.5,324.5,122.0,328.0,122.5,332.5,123.0,337.5" stroke="black" stroke-width="2" fill="none" />
<polyline points="120.5,341.5,120.5,343.0,120.5,346.5" stroke="black" stroke-width="2" fill="none" />
<polyline points="116.5,342.5,117.0,346.5,118.0,350.5,118.0,355.0,118.0,359.5,117.5,363.5,116.5,367.5,115.0,371.5,116.0,375.5,115.5,379.0,114.5,382.5,115.5,386.5,116.0,390.5,115.5,395.0,119.0,399.0,122.0,403.0,121.0,407.0,115.5,411.0,111.0,412.5,113.5,411.5,118.0,410.5,121.5,405.5" stroke="black" stroke-width="2" fill="none" />
<polyline points="122.5,410.5,126.5,407.0" stroke="black" stroke-width="2" fill="none" />
<polyline points="122.0,416.0,126.0,423.5,129.5,426.5" stroke="black" stroke-width="2" fill="none" />
<polyline points="129.5,430.5,125.5,427.5,121.0,422.5" stroke="black" stroke-width="2" fill="none" />
<polyline points="121.5,418.0,123.0,422.0,125.5,426.0" stroke="black" stroke-width="2" fill="none" />
<polyline points="129.5,425.0,128.5,421.5,129.0,418.0,126.5,415.0,127.5,411.0,129.0,407.5,124.0,408.0,120.0,412.5,116.5,413.0,113.0,413.0" stroke="black" stroke-width="2" fill="none" />
<polyline points="112.5,419.0,113.0,422.5,113.5,426.5,114.5,430.0,115.5,432.0" stroke="black" stroke-width="2" fill="none" />
<polyline points="127.0,428.5,123.0,424.5,120.5,420.5,120.0,416.0" stroke="black" stroke-width="2" fill="none" />
<polyline points="126.0,401.5,124.0,397.5,122.5,395.5,118.5,389.5" stroke="black" stroke-width="2" fill="none" />
<polyline points="119.0,393.5,122.5,398.5,127.0,400.0,131.0,400.5,137.5,401.5,142.0,395.0,145.5,397.0,150.0,400.0" stroke="black" stroke-width="2" fill="none" />
<polyline points="143.0,400.0,143.5,396.0" stroke="black" stroke-width="2" fill="none" />
<polyline points="144.0,394.0,147.0,397.5,150.0,405.0" stroke="black" stroke-width="2" fill="none" />
<polyline points="135.0,392.5,131.0,397.0,126.5,394.5,123.0,391.5" stroke="black" stroke-width="2" fill="none" />
<polyline points="122.5,390.0,126.0,388.0,133.0,390.0" stroke="black" stroke-width="2" fill="none" />
<polyline points="129.5,396.5,124.5,392.5,127.5,389.0,125.0,387.5,124.5,383.5" stroke="black" stroke-width="2" fill="none" />
<polyline points="129.5,375.5,126.0,368.0,121.5,360.0" stroke="black" stroke-width="2" fill="none" />
<polyline points="121.5,357.0,125.5,359.5,129.5,361.0,133.5,364.0" stroke="black" stroke-width="2" fill="none" />
<polyline points="140.5,366.0,145.0,367.5" stroke="black" stroke-width="2" fill="none" />
<polyline points="145.5,367.0,141.5,362.5,142.0,356.0,138.0,355.5,139.0,349.0,135.0,344.5,135.0,340.0,133.5,336.0,133.0,332.0,126.5,332.5" stroke="black" stroke-width="2" fill="none" />
<polyline points="127.5,342.0,131.5,348.0,136.0,352.0" stroke="black" stroke-width="2" fill="none" />
<polyline points="134.0,355.0,129.5,351.5" stroke="black" stroke-width="2" fill="none" />
<polyline points="131.5,351.5,132.0,358.0,135.5,362.0,137.0,367.5" stroke="black" stroke-width="2" fill="none" />
<polyline points="135.0,361.5,131.0,357.0" stroke="black" stroke-width="2" fill="none" />
<polyline points="126.0,359.0,132.0,363.0,133.5,367.0" stroke="black" stroke-width="2" fill="none" />
<polyline points="143.0,362.5,146.5,366.5" stroke="black" stroke-width="2" fill="none" />
<polyline points="162.5,365.5,166.5,361.0,171.0,358.0,175.0,353.5,179.0,348.5,182.5,343.0,186.0,336.5" stroke="black" stroke-width="2" fill="none" />
<polyline points="191.0,331.5,187.5,331.5,182.5,332.5,178.0,338.5,174.0,344.5,170.0,349.5,166.5,355.5,162.5,361.5,160.5,370.5,163.5,367.5,166.5,362.5,171.0,358.5,174.0,354.5,177.5,350.5,180.0,346.5,183.0,342.5,185.0,338.0,184.5,333.5,188.0,333.5,190.0,329.5" stroke="black" stroke-width="2" fill="none" />
<polyline points="191.0,345.0,191.5,346.0,192.0,349.5,193.0,353.5" stroke="black" stroke-width="2" fill="none" />
<polyline points="193.0,355.0,192.0,350.5,191.5,346.0" stroke="black" stroke-width="2" fill="none" />
<polyline points="165.5,346.0,166.0,341.0,170.0,339.0,174.5,335.0,181.0,331.0,184.0,327.0,185.0,323.0,187.0,318.5,192.5,316.5,194.0,312.5,196.0,308.5,198.0,304.0,200.0,300.0,201.5,296.0,203.5,292.0,205.5,288.0,208.0,284.5,210.0,281.0,212.5,276.5,215.5,273.0,218.0,268.5,220.0,264.5,223.0,260.5,225.5,256.0,228.5,252.0,231.0,248.0,234.0,244.0,236.0,238.0,239.0,234.0,242.0,230.0,245.5,226.0,248.5,222.0,252.0,218.0,252.5,214.0,254.0,211.0,255.5,207.0,256.5,203.5,252.5,211.0,249.0,209.5,244.5,209.5,240.5,208.5,237.5,205.5,238.5,201.5,240.0,197.5,241.0,194.5,242.5,190.5,248.0,187.0,248.5,184.5,257.0,180.5,250.5,175.0,252.0,173.5,247.0,173.0,246.5,172.0,242.0,173.5" stroke="black" stroke-width="2" fill="none" />
<polyline points="244.5,172.0,241.0,176.0,241.0,180.0,239.0,184.0,234.0,186.5,238.0,184.0,243.5,181.0,247.0,180.5,250.5,177.5" stroke="black" stroke-width="2" fill="none" />
<polyline points="242.5,169.0,246.5,171.0,250.5,171.0,254.0,175.5,258.0,175.5,262.0,176.5,266.0,178.0,269.5,178.5,273.5,178.5,277.0,178.5" stroke="black" stroke-width="2" fill="none" />
<polyline points="276.5,177.0,277.0,180.5" stroke="black" stroke-width="2" fill="none" />
<polyline points="272.0,182.5,273.5,186.5,273.5,190.5,272.5,195.0" stroke="black" stroke-width="2" fill="none" />
<polyline points="265.0,198.5,264.0,202.5,261.5,206.5,260.5,210.5,260.5,214.5,259.5,219.5,255.0,223.5,251.0,227.5,248.0,232.0,244.5,236.0,241.0,239.5,237.5,243.5,235.0,248.0,231.5,252.0,228.5,255.5,226.0,259.5,223.0,263.0,221.0,267.0,218.5,271.0,215.0,275.0,213.0,279.5,211.0,283.5,209.5,287.5,208.0,291.5,206.5,295.5,204.0,299.5,203.0,303.5,201.0,307.5,199.5,312.0,197.5,316.0,200.0,319.0,199.5,312.0,203.5,302.0,207.5,293.0,211.0,284.5,215.0,276.5,219.0,269.5,223.5,263.5,227.0,257.5,231.0,252.0,235.0,247.0,239.0,241.5,243.0,237.0,247.5,232.0,251.5,228.0,256.0,223.0,259.5,219.5,263.5,216.0,264.5,212.0,269.0,204.5,273.0,202.0,277.0,199.5,280.5,196.0,284.5,192.5,288.0,189.5,292.0,186.0,296.0,183.0,300.0,179.5,304.0,177.5,308.0,175.0" stroke="black" stroke-width="2" fill="none" />
<polyline points="312.0,174.5,309.0,178.5,301.5,182.5,297.0,186.5,291.5,190.0,287.0,194.0,282.5,198.5,278.0,202.5,273.5,206.5,272.0,210.5,271.5,215.0,268.0,216.5" stroke="black" stroke-width="2" fill="none" />
<polyline points="270.0,212.5,269.5,211.0,274.0,207.0,277.5,203.5,281.5,200.0,285.5,196.0,289.5,193.0,293.0,190.0,296.5,187.0,300.5,183.5,304.5,181.5,308.5,179.0" stroke="black" stroke-width="2" fill="none" />
<polyline points="312.5,172.5,306.0,176.5,300.5,180.5,295.5,184.0,291.0,187.5,286.0,191.5,281.5,195.5,276.0,199.5,271.0,203.5,268.0,208.0,271.0,208.0,268.0,212.0,266.0,217.5,265.5,222.0,265.0,224.0,264.0,228.0,264.5,232.5,263.5,236.0,263.5,240.0" stroke="black" stroke-width="2" fill="none" />
<polyline points="290.0,250.0,296.5,254.0" stroke="black" stroke-width="2" fill="none" />
<polyline points="297.0,222.5,293.0,225.5,289.0,229.5,285.5,233.0,288.5,230.5,293.5,226.5,298.5,222.5" stroke="black" stroke-width="2" fill="none" />
<polyline points="289.5,178.0,285.5,176.5" stroke="black" stroke-width="2" fill="none" />
<polyline points="281.0,175.5,285.5,175.0,289.5,175.0,293.5,179.0" stroke="black" stroke-width="2" fill="none" />
<polyline points="288.0,179.5,284.0,177.5,280.0,175.5" stroke="black" stroke-width="2" fill="none" />
<polyline points="266.0,184.0,260.0,188.0,256.0,189.0,260.5,186.0,265.0,183.5" stroke="black" stroke-width="2" fill="none" />
<polyline points="267.0,185.5,263.0,188.0,259.0,190.5,255.0,193.5,251.0,198.0,249.5,201.5,253.5,198.0,256.5,194.0,261.0,189.5,267.0,186.0" stroke="black" stroke-width="2" fill="none" />
<polyline points="260.0,165.0,268.0,161.0,264.0,162.5,259.5,164.0,255.5,163.0,251.5,159.5" stroke="black" stroke-width="2" fill="none" />
<polyline points="250.5,160.5,255.5,164.5" stroke="black" stroke-width="2" fill="none" />
<polyline points="241.0,145.0,245.5,141.0,248.5,139.0,253.0,135.0,259.0,131.0,257.0,131.5,252.5,134.5,249.0,137.5,245.5,140.5,242.0,143.5,238.5,146.5,234.5,142.5" stroke="black" stroke-width="2" fill="none" />
<polyline points="233.5,143.0,237.0,146.5" stroke="black" stroke-width="2" fill="none" />
<polyline points="226.5,162.5,223.0,156.5,227.5,153.5,223.5,157.0,219.5,156.0,215.5,152.5" stroke="black" stroke-width="2" fill="none" />
<polyline points="217.5,153.0,221.5,157.0,228.0,163.0" stroke="black" stroke-width="2" fill="none" />
<polyline points="230.5,175.0,226.0,175.0,222.0,175.5,218.0,179.0,214.5,182.5,210.5,186.0,206.5,191.0" stroke="black" stroke-width="2" fill="none" />
<polyline points="205.5,189.0,209.5,185.0,213.5,180.5,217.5,176.0,221.5,172.5,225.0,171.5,229.5,172.0,233.5,172.5,238.0,174.0,241.5,172.0,239.5,175.5,237.5,176.5" stroke="black" stroke-width="2" fill="none" />
<polyline points="234.0,182.5,230.0,186.5,230.0,188.0,223.0,192.5,216.5,196.0,210.0,202.5,205.5,206.0,202.0,211.5,202.5,216.0,204.0,216.0,205.0,222.0,207.5,226.0" stroke="black" stroke-width="2" fill="none" />
<polyline points="209.5,226.5,205.5,221.0" stroke="black" stroke-width="2" fill="none" />
<polyline points="210.0,215.5,214.0,221.5" stroke="black" stroke-width="2" fill="none" />
<polyline points="211.5,217.0,213.5,220.5,216.0,227.0,219.0,231.0,217.5,234.5" stroke="black" stroke-width="2" fill="none" />
<polyline points="214.5,237.5,215.0,241.0,214.0,245.0,213.0,249.0,214.0,250.5,214.5,254.5,215.5,256.0" stroke="black" stroke-width="2" fill="none" />
<polyline points="216.5,251.0,216.0,247.0,215.0,243.0,212.0,240.0,212.0,237.5" stroke="black" stroke-width="2" fill="none" />
<polyline points="210.5,236.5,211.5,234.5,210.5,239.0,209.5,243.5,209.0,244.5" stroke="black" stroke-width="2" fill="none" />
<polyline points="213.0,246.5,213.5,250.5,216.5,254.5" stroke="black" stroke-width="2" fill="none" />
<polyline points="212.5,254.5,209.5,249.5,207.0,248.0,208.0,244.0,209.0,239.5,210.0,235.5,211.5,231.5,210.0,236.0" stroke="black" stroke-width="2" fill="none" />
<polyline points="199.0,235.5,197.0,239.5,192.5,243.5,187.5,246.5,191.0,244.5,194.5,241.0,199.0,235.5" stroke="black" stroke-width="2" fill="none" />
<polyline points="191.0,239.0,189.0,235.0,188.0,231.0,188.0,227.0,189.5,223.5,192.0,220.0,191.5,220.5,187.5,229.5" stroke="black" stroke-width="2" fill="none" />
<polyline points="186.5,225.5,190.5,218.5,189.5,221.0,187.0,225.0,186.5,229.0,187.0,232.5,188.5,237.0" stroke="black" stroke-width="2" fill="none" />
<polyline points="186.0,234.5,190.0,240.5" stroke="black" stroke-width="2" fill="none" />
<polyline points="185.5,244.5,189.5,243.0,193.5,239.0,197.0,234.0,195.0,238.0,191.0,242.0,186.5,245.0,186.0,250.5,184.0,255.0,184.5,259.0,184.5,263.0,185.0,267.0,186.0,271.0,187.5,272.5" stroke="black" stroke-width="2" fill="none" />
<polyline points="186.0,270.0,185.0,266.0,184.5,262.0,184.5,258.0,183.0,254.5" stroke="black" stroke-width="2" fill="none" />
<polyline points="184.0,252.5,188.0,250.5,192.5,251.5,193.5,255.0,194.0,259.0,197.5,263.0,204.0,266.0" stroke="black" stroke-width="2" fill="none" />
<polyline points="206.0,264.5,202.0,262.0,197.5,258.0" stroke="black" stroke-width="2" fill="none" />
<polyline points="204.0,264.5,198.0,260.5,196.5,256.0,194.5,252.0,189.5,252.5" stroke="black" stroke-width="2" fill="none" />
<polyline points="191.0,249.5,195.0,253.0,195.5,259.5,200.0,264.5,204.0,265.5" stroke="black" stroke-width="2" fill="none" />
<polyline points="214.0,257.0,210.0,254.5,206.0,250.0" stroke="black" stroke-width="2" fill="none" />
<polyline points="205.0,251.0,207.0,252.0" stroke="black" stroke-width="2" fill="none" />
<polyline points="224.5,271.5,220.5,275.5,224.0,271.5,228.0,270.5" stroke="black" stroke-width="2" fill="none" />
<polyline points="219.0,305.0,217.5,309.0,217.0,313.0,217.5,317.0,217.5,321.0,218.0,325.0,217.5,329.0,217.5,333.0,217.5,337.0,217.5,341.0,218.0,345.0,218.0,349.0,218.0,353.5,218.5,358.0" stroke="black" stroke-width="2" fill="none" />
<polyline points="251.5,382.0,253.0,384.5,257.0,385.5,261.0,386.0,265.0,386.0" stroke="black" stroke-width="2" fill="none" />
<polyline points="267.0,388.5,263.5,389.0,259.5,389.0,255.5,389.5,252.0,389.5,248.0,390.5,244.0,395.0,246.0,391.5" stroke="black" stroke-width="2" fill="none" />
<polyline points="267.5,351.5,271.5,352.5,275.5,354.0" stroke="black" stroke-width="2" fill="none" />
<polyline points="283.5,352.0,279.0,352.5,275.0,352.0,271.0,350.5,267.5,351.0" stroke="black" stroke-width="2" fill="none" />
<polyline points="293.0,347.5,297.0,347.0,301.5,346.5,305.5,347.0,310.0,348.0,314.5,347.0" stroke="black" stroke-width="2" fill="none" />
<polyline points="317.0,344.5,317.5,345.5,319.5,349.0" stroke="black" stroke-width="2" fill="none" />
<polyline points="320.0,348.0,316.0,350.5,312.0,350.5,308.0,352.0" stroke="black" stroke-width="2" fill="none" />
<polyline points="310.0,355.0,306.0,355.5,302.5,355.5,298.5,356.0,294.0,355.0" stroke="black" stroke-width="2" fill="none" />
<polyline points="293.5,358.0,297.5,359.5,301.5,358.5,305.5,359.5,309.5,358.0,310.0,358.0,308.5,362.0" stroke="black" stroke-width="2" fill="none" />
<polyline points="306.0,336.5,304.0,332.5,314.5,330.0,314.0,330.5,310.0,332.0,306.5,333.0" stroke="black" stroke-width="2" fill="none" />
<polyline points="306.5,328.5,302.5,327.0,299.0,326.0,295.5,325.0" stroke="black" stroke-width="2" fill="none" />
<polyline points="294.5,326.0,298.5,323.5,302.5,324.0,306.5,325.5" stroke="black" stroke-width="2" fill="none" />
<polyline points="319.0,325.5,320.5,323.0,323.0,319.0,323.0,315.0,322.5,311.0,322.5,307.0,322.0,303.0" stroke="black" stroke-width="2" fill="none" />
<polyline points="219.5,307.5,219.5,311.5,220.0,315.5,219.5,319.5,220.5,323.0,220.5,327.0,221.0,330.5,221.5,334.5,222.5,340.0,223.5,343.5,219.5,348.5,219.0,353.0,219.5,357.0,220.0,361.0,220.5,365.0,221.0,369.5" stroke="black" stroke-width="2" fill="none" />
<polyline points="192.5,392.5,193.0,396.5,193.0,400.5,192.5,404.5" stroke="black" stroke-width="2" fill="none" />
<polyline points="191.0,392.0,191.5,396.5,191.0,400.5,191.0,404.5,191.5,408.5,191.5,412.5,191.0,416.5,191.0,420.5,190.5,424.5,189.5,429.0,189.0,433.0,188.5,437.0,188.5,441.0,185.5,442.0,182.5,445.5,185.5,446.0,189.5,446.0,194.0,447.0,198.0,445.5" stroke="black" stroke-width="2" fill="none" />
<polyline points="166.5,365.5,169.0,361.5,165.0,367.0,161.0,367.0,161.5,363.0,163.0,359.0,165.5,355.0,167.5,351.0,170.5,347.0,173.5,343.0,176.5,339.5,178.5,335.5,181.5,332.0,177.5,332.5,173.0,334.5,169.5,337.0,164.0,340.0,165.5,336.5,167.0,332.5,164.5,331.5" stroke="black" stroke-width="2" fill="none" />
<polyline points="163.5,331.0,159.5,335.5,160.0,333.5,162.5,329.0,164.5,325.5,166.5,321.0" stroke="black" stroke-width="2" fill="none" />
<polyline points="163.5,318.5,167.5,320.5,171.0,319.5" stroke="black" stroke-width="2" fill="none" />
<polyline points="162.0,316.5,160.5,313.0,160.0,312.5" stroke="black" stroke-width="2" fill="none" />
<polyline points="159.0,313.5,163.0,315.0" stroke="black" stroke-width="2" fill="none" />
<polyline points="155.5,313.5,155.5,314.5,156.0,318.5" stroke="black" stroke-width="2" fill="none" />
<polyline points="173.5,316.0,169.5,317.5,168.5,322.5,166.5,321.0,163.0,327.0,159.5,332.5,155.0,337.5,151.0,339.5,147.0,336.5,144.5,344.0,143.0,340.5,141.0,336.5,139.5,332.5,139.0,328.0,138.5,324.0,137.0,320.0,136.5,316.0,135.5,311.5,133.5,307.5,132.0,303.5,131.0,299.5,133.5,298.5,135.0,295.0,139.0,291.0,140.5,287.5,142.0,283.5,139.0,282.0,135.5,282.0,131.5,281.5,138.0,282.0,140.5,278.0,145.5,274.0,141.5,271.5,145.5,267.5,151.0,263.5,156.0,257.0,159.5,253.0,161.5,249.0,163.5,245.0,160.0,245.0,155.5,249.5,151.5,250.5" stroke="black" stroke-width="2" fill="none" />
<polyline points="149.5,249.0,146.0,249.5" stroke="black" stroke-width="2" fill="none" />
<polyline points="144.5,252.0,148.5,249.0,147.5,249.0,145.0,252.5,148.0,254.0,149.5,257.5" stroke="black" stroke-width="2" fill="none" />
<polyline points="150.0,266.0,146.0,269.5,142.0,272.0" stroke="black" stroke-width="2" fill="none" />
<polyline points="139.0,274.5,143.0,273.5,149.0,269.5,153.0,265.5" stroke="black" stroke-width="2" fill="none" />
<polyline points="155.5,270.5,157.5,274.0" stroke="black" stroke-width="2" fill="none" />
<polyline points="152.5,278.5,156.5,279.5,158.0,281.0" stroke="black" stroke-width="2" fill="none" />
<polyline points="156.5,281.0,160.5,284.5" stroke="black" stroke-width="2" fill="none" />
<polyline points="159.5,285.0,161.0,280.0,160.0,276.0,161.0,272.0,161.5,268.5,163.0,264.5,164.5,260.5,163.0,259.5" stroke="black" stroke-width="2" fill="none" />
<polyline points="166.0,256.0,170.0,252.5,174.0,246.0" stroke="black" stroke-width="2" fill="none" />
<polyline points="174.0,251.0,175.0,255.5,175.0,259.0,175.0,263.5" stroke="black" stroke-width="2" fill="none" />
<polyline points="178.5,262.0,174.5,255.0" stroke="black" stroke-width="2" fill="none" />
<polyline points="176.0,257.5,176.5,261.5" stroke="black" stroke-width="2" fill="none" />
<polyline points="178.0,259.5,180.5,263.5" stroke="black" stroke-width="2" fill="none" />
<polyline points="182.0,264.0,177.5,257.5" stroke="black" stroke-width="2" fill="none" />
<polyline points="171.0,256.5,174.5,251.0,172.5,255.0,171.0,258.5,170.5,262.5,169.5,266.5,169.0,270.5,170.0,274.0,167.5,278.0,169.0,279.0" stroke="black" stroke-width="2" fill="none" />
<polyline points="166.5,276.5,166.5,276.0,166.0,272.0,167.0,268.0,164.0,263.5,165.5,260.0,164.5,266.0" stroke="black" stroke-width="2" fill="none" />
<polyline points="163.0,278.5,158.5,271.5,154.5,274.0,150.5,273.5" stroke="black" stroke-width="2" fill="none" />
<polyline points="151.0,271.0,154.5,267.0,158.0,262.0,162.0,256.5,158.0,259.0,155.5,263.0,152.5,267.5,148.5,271.5,148.0,275.5,147.5,279.5,147.5,283.5,149.0,287.5,152.5,291.0,157.5,292.5,161.5,298.0,161.5,302.0,157.5,305.0,156.5,310.0,158.5,313.5,157.0,316.0,158.0,319.0,157.0,320.5,161.0,319.0,163.0,318.5,164.5,314.0,168.5,311.0,173.0,306.5,175.0,300.0,178.5,295.0" stroke="black" stroke-width="2" fill="none" />
<polyline points="177.5,292.5,175.0,294.0,171.0,295.0" stroke="black" stroke-width="2" fill="none" />
<polyline points="172.0,296.5,172.5,301.0,175.0,307.5,177.0,311.5,174.5,318.0" stroke="black" stroke-width="2" fill="none" />
<polyline points="174.5,313.5,171.0,312.5,167.0,315.0,170.5,313.0,172.5,309.0" stroke="black" stroke-width="2" fill="none" />
<polyline points="177.5,305.0,181.5,308.0" stroke="black" stroke-width="2" fill="none" />
<polyline points="182.5,306.0,178.5,300.5" stroke="black" stroke-width="2" fill="none" />
<polyline points="177.0,300.0,179.5,300.5,181.5,304.5,184.0,308.5,181.0,310.5,182.5,312.5" stroke="black" stroke-width="2" fill="none" />
<polyline points="178.5,306.5,176.0,304.5,176.0,300.5" stroke="black" stroke-width="2" fill="none" />
<polyline points="175.5,292.5,181.0,293.0,178.0,297.0,175.0,301.5,173.5,305.5,171.0,309.5,166.5,309.0" stroke="black" stroke-width="2" fill="none" />
<polyline points="164.5,300.5,164.0,296.5,170.0,291.0,173.5,287.0,172.5,283.0,170.0,287.0,166.0,289.5,163.5,288.5,166.0,285.0,170.0,280.5,174.5,276.5,175.0,279.0,173.0,278.0,169.5,282.0,166.5,282.5,163.5,284.0,160.5,286.0,163.0,284.5,162.5,281.0,163.5,277.0,162.0,276.0,163.0,272.0,163.5,268.0,167.0,264.0,168.0,260.0,168.0,256.5,171.0,252.5,174.0,248.5,175.0,245.0,175.0,241.0,174.0,237.5,177.5,234.0,173.5,237.0" stroke="black" stroke-width="2" fill="none" />
<polyline points="170.0,238.5,168.5,242.5,167.5,246.5,166.0,250.0,164.5,248.0" stroke="black" stroke-width="2" fill="none" />
<polyline points="164.5,252.0,158.0,259.0,154.0,263.0,150.5,261.0,146.5,265.0,142.0,268.5,138.0,273.0,133.5,277.0,130.0,278.0,125.5,275.0,117.0,269.5,114.5,265.0,116.5,261.0,113.5,266.0" stroke="black" stroke-width="2" fill="none" />
<polyline points="115.5,267.0,119.5,269.0,123.5,271.0" stroke="black" stroke-width="2" fill="none" />
<polyline points="125.5,272.5,121.5,276.0,117.5,278.0,113.5,280.5,108.5,278.5,104.0,279.5,100.0,280.5,104.0,281.0,100.5,283.0,96.0,284.5,94.5,283.5,93.5,279.5,95.0,275.5,102.5,271.5,108.0,268.5,103.5,272.0,99.0,274.0,95.0,276.5,91.0,278.5" stroke="black" stroke-width="2" fill="none" />
<polyline points="92.5,278.5,92.5,282.5,94.0,286.0" stroke="black" stroke-width="2" fill="none" />
<polyline points="93.0,282.5,97.0,287.0,100.5,286.5,104.0,284.0,108.0,282.5,112.0,279.5" stroke="black" stroke-width="2" fill="none" />
<polyline points="114.0,272.5,115.0,273.5,115.5,277.5,116.5,283.5,112.5,287.5,108.0,291.5,107.0,295.5,103.5,299.0,99.0,303.0,91.5,307.0,92.0,310.5,92.0,314.5,90.5,319.0,89.0,323.0,89.0,327.5,89.0,331.5,88.5,335.5,84.0,340.0,81.0,344.0,78.0,348.5,75.0,352.5,72.0,356.5,69.0,360.5,64.5,361.5,68.5,356.5,72.5,352.5,76.5,347.5,80.5,342.5,84.5,337.5,89.0,332.0,93.0,329.0" stroke="black" stroke-width="2" fill="none" />
<polyline points="89.0,322.5,93.0,323.5,91.0,327.5,94.0,326.5,91.5,330.5,86.5,336.0,83.0,340.0,79.0,344.0,76.0,348.0,72.5,352.0,69.0,355.5,65.5,359.5,62.5,361.0,62.5,364.5,66.0,362.5,69.5,358.0,74.0,354.0,78.0,348.5,82.0,343.5,86.5,339.0,90.0,340.0,89.5,343.5,89.0,348.0,88.0,352.0,85.0,356.0,82.5,360.0,80.0,364.0,78.0,368.0,78.0,372.0,83.0,375.0,83.5,370.5,87.5,362.0,91.5,355.0,96.0,348.5" stroke="black" stroke-width="2" fill="none" />
<polyline points="97.0,349.0,93.0,354.5" stroke="black" stroke-width="2" fill="none" />
<polyline points="94.0,356.0,94.0,360.0,94.0,364.5,93.5,368.5,93.0,373.0,92.5,377.0,90.0,381.0,89.0,385.5,88.0,388.5,89.0,392.5,88.5,396.5,91.0,400.5,94.0,404.5,91.5,407.0,92.0,408.5,96.0,410.0,100.0,410.5,104.0,410.5,108.5,406.5,114.5,401.0" stroke="black" stroke-width="2" fill="none" />
<polyline points="115.5,400.5,114.5,404.5,115.5,407.5" stroke="black" stroke-width="2" fill="none" />
<polyline points="112.5,405.5,111.0,406.5,113.0,402.0,115.5,398.0" stroke="black" stroke-width="2" fill="none" />
<polyline points="106.0,393.0,105.0,396.5,105.5,400.0,106.5,404.0" stroke="black" stroke-width="2" fill="none" />
<polyline points="97.5,399.5,94.0,397.5" stroke="black" stroke-width="2" fill="none" />
<polyline points="90.0,397.0,93.5,403.0" stroke="black" stroke-width="2" fill="none" />
<polyline points="94.5,405.0,90.5,406.0" stroke="black" stroke-width="2" fill="none" />
<polyline points="93.0,415.5,89.0,419.5,86.5,424.0,87.5,422.0" stroke="black" stroke-width="2" fill="none" />
<polyline points="90.5,423.5,88.5,426.0,91.5,421.5,93.0,417.5" stroke="black" stroke-width="2" fill="none" />
<polyline points="103.5,408.5,99.5,409.0,98.5,408.5,97.0,404.0,95.5,401.0,93.5,399.0,92.0,394.5,91.0,389.5,91.0,385.5,92.0,381.0,87.0,384.5" stroke="black" stroke-width="2" fill="none" />
<polyline points="83.0,386.0,80.5,390.0,80.0,394.0,77.5,398.0,74.5,402.5,73.0,406.5,72.5,411.0,72.5,415.0,70.0,415.5,69.5,418.5,69.5,422.0,68.0,426.0,70.0,426.0,70.0,430.0,71.5,431.5,70.0,436.0,68.5,440.0,69.0,444.0,69.5,448.0,69.0,451.5,69.0,455.5,68.5,459.5,68.5,463.5,67.5,467.5,65.5,471.5,64.5,475.0,63.5,479.0,64.0,483.0,64.5,487.0,65.0,491.0,65.5,495.0,65.5,499.0,62.5,503.0,62.5,507.0,62.0,511.0,63.0,511.0,66.0,507.0" stroke="black" stroke-width="2" fill="none" />
<polyline points="64.5,504.0,67.5,509.5,66.5,513.0" stroke="black" stroke-width="2" fill="none" />
<polyline points="70.5,496.5,71.0,492.5,72.5,488.0,73.0,484.0,73.0,480.0,71.0,476.5" stroke="black" stroke-width="2" fill="none" />
<polyline points="66.0,473.5,69.0,472.5,69.0,476.5,68.5,480.5,68.0,485.0,67.0,488.5,67.5,492.0,68.5,496.0" stroke="black" stroke-width="2" fill="none" />
<polyline points="72.0,465.0,72.5,461.0,72.5,457.0,73.0,455.5" stroke="black" stroke-width="2" fill="none" />
<polyline points="72.0,457.0,72.5,461.0,72.0,465.5,74.5,469.5,74.0,473.5" stroke="black" stroke-width="2" fill="none" />
<polyline points="67.0,454.0,66.5,450.0,66.5,448.0" stroke="black" stroke-width="2" fill="none" />
<polyline points="65.0,452.5,64.5,456.5,65.5,460.5,67.0,464.5,69.0,469.5,69.5,472.5,70.0,476.5,69.5,480.5,69.5,484.5" stroke="black" stroke-width="2" fill="none" />
<polyline points="31.5,493.0,29.5,499.0,30.0,502.5,33.0,506.0,33.0,510.0" stroke="black" stroke-width="2" fill="none" />
<polyline points="19.0,510.5,19.5,506.5,21.5,502.5,20.0,503.5" stroke="black" stroke-width="2" fill="none" />
<polyline points="15.5,506.0,14.5,502.0,14.0,498.0,13.0,494.0" stroke="black" stroke-width="2" fill="none" />
<polyline points="10.5,428.5,11.0,424.5,7.0,422.5" stroke="black" stroke-width="2" fill="none" />
<polyline points="4.5,419.5,7.5,424.0,9.5,428.0,10.5,432.0,11.0,436.5,10.5,441.0,10.5,445.0,12.5,447.0,12.0,450.5,11.5,454.0,11.5,458.0,14.0,460.5,12.0,464.5,13.5,468.5,14.0,472.5,13.0,476.0,12.5,478.5" stroke="black" stroke-width="2" fill="none" />
<polyline points="34.5,462.5,35.0,458.5,34.5,454.5,34.0,450.5,33.5,446.5,33.0,442.0,33.0,438.0,33.0,434.0,33.0,429.5,33.0,425.5" stroke="black" stroke-width="2" fill="none" />
<polyline points="26.0,419.5,24.0,412.5" stroke="black" stroke-width="2" fill="none" />
<polyline points="23.5,412.0,26.0,416.0,26.5,420.0,26.5,424.0,26.5,428.0,26.0,432.0,26.0,436.0,26.5,440.0,27.5,444.5,27.0,449.0,27.0,453.0,28.0,457.0,28.0,460.5,27.5,464.5,28.5,468.5,29.5,472.0,28.5,476.5,30.5,480.5,31.0,484.5,32.0,488.5,31.5,492.5,33.0,496.5,33.0,500.0,32.0,503.5" stroke="black" stroke-width="2" fill="none" />
<polyline points="68.0,435.5,65.5,436.0,65.5,432.5,65.5,433.0" stroke="black" stroke-width="2" fill="none" />
<polyline points="66.5,425.0,65.0,424.0,65.0,419.5,64.5,415.5,65.0,412.0,66.0,408.0,70.5,404.0,73.0,400.0,74.5,396.0,73.0,395.5,73.0,398.0" stroke="black" stroke-width="2" fill="none" />
<polyline points="81.0,395.5,77.0,403.0,73.0,407.0" stroke="black" stroke-width="2" fill="none" />
<polyline points="65.5,408.5,69.5,404.5,73.5,402.0,77.5,396.0,79.5,387.5" stroke="black" stroke-width="2" fill="none" />
<polyline points="81.0,387.5,81.0,391.5,79.5,397.0,78.5,400.5,76.5,404.5,74.5,408.5,75.0,412.5" stroke="black" stroke-width="2" fill="none" />
<polyline points="69.0,414.0,72.0,404.0,71.0,408.0,69.5,412.0,68.5,416.0,67.0,419.5" stroke="black" stroke-width="2" fill="none" />
<polyline points="69.5,415.5,72.5,419.0,72.5,422.5,71.5,424.0" stroke="black" stroke-width="2" fill="none" />
<polyline points="78.5,382.5,74.5,389.5,70.5,393.0,66.5,397.0,62.5,400.0,58.5,402.5,61.5,398.5,65.5,394.5,70.0,390.5,74.5,386.5,77.0,383.0,77.0,383.0,73.0,388.5,69.0,392.0,65.0,395.5,61.0,399.5,58.0,404.0,64.5,400.0,69.5,396.0,73.5,392.0,77.0,388.0,79.0,384.0,82.0,380.5,82.0,376.5,82.5,371.5,85.5,367.0,87.0,362.5,88.5,358.0,86.5,357.0,90.5,356.0,93.5,352.0,95.5,348.0,98.5,348.0,94.5,343.5,92.0,349.0,93.0,344.5,95.0,340.0,96.0,336.0,96.0,332.0,96.0,327.5,96.0,324.0,96.5,320.5,97.5,316.0,97.5,312.0,102.5,308.0,105.5,304.0,108.0,302.5,105.5,302.5,101.5,308.0,97.5,311.5" stroke="black" stroke-width="2" fill="none" />
<polyline points="88.5,309.5,82.0,313.0,86.0,310.5,90.0,308.5,95.0,305.5,98.5,303.5,102.5,300.0" stroke="black" stroke-width="2" fill="none" />
<polyline points="105.5,305.5,101.5,311.0,98.0,319.5,99.0,318.0,101.5,314.0,103.5,310.5,107.0,306.5,109.0,302.5" stroke="black" stroke-width="2" fill="none" />
<polyline points="115.0,308.5,111.0,314.0,107.0,318.5,103.0,323.5,103.5,319.5,108.0,315.5,109.5,312.5,108.5,314.5,104.5,319.0,106.5,322.5,110.5,318.0,114.5,314.0,117.0,310.0,117.5,309.0,113.5,316.5,109.5,319.0,105.5,323.0" stroke="black" stroke-width="2" fill="none" />
<polyline points="98.5,321.5,102.0,313.0,106.0,308.0,110.0,303.5,114.0,300.0,117.5,296.5" stroke="black" stroke-width="2" fill="none" />
<polyline points="124.5,297.5,128.5,294.5,132.0,292.5,136.0,288.5" stroke="black" stroke-width="2" fill="none" />
<polyline points="138.5,291.5,134.5,296.0,130.0,299.0,126.0,301.5" stroke="black" stroke-width="2" fill="none" />
<polyline points="130.0,299.5,127.0,302.0,130.0,309.5,130.5,313.5,131.5,318.0,132.0,322.0,133.5,325.5,134.5,329.5,135.5,333.0,136.0,337.5,137.5,341.5,138.0,345.5,142.0,347.5" stroke="black" stroke-width="2" fill="none" />
<polyline points="158.5,345.0,157.5,349.0,155.5,353.0,158.5,356.5,158.0,360.5,157.5,364.5,156.5,369.0,156.0,373.0,157.5,377.0,156.5,381.0,153.5,383.0,154.0,389.5,153.5,393.5,153.5,397.5,158.5,401.5,164.0,405.5,167.5,410.0,170.5,411.0" stroke="black" stroke-width="2" fill="none" />
<polyline points="128.0,401.0,123.5,397.5,120.0,393.5,120.0,389.5,121.0,386.5,120.5,382.5,120.0,380.0,121.0,376.0,119.5,375.5,119.5,371.5,119.0,373.0" stroke="black" stroke-width="2" fill="none" />
<polyline points="119.5,366.5,123.5,372.0,123.5,377.5,127.5,379.5" stroke="black" stroke-width="2" fill="none" />
<polyline points="129.0,377.0,124.5,370.5,120.5,364.5" stroke="black" stroke-width="2" fill="none" />
<polyline points="121.5,364.0,124.0,367.5,126.0,371.5,127.5,375.5,130.0,381.0" stroke="black" stroke-width="2" fill="none" />
<polyline points="133.0,399.0,132.0,396.0,132.0,392.0,130.0,387.5,129.0,383.5,124.5,379.0,123.5,374.5,121.0,371.0,119.5,367.0,120.0,363.0" stroke="black" stroke-width="2" fill="none" />
<polyline points="123.5,355.0,126.5,359.0,127.0,363.5,132.0,365.5,131.5,369.5,136.0,369.5,139.5,369.5,146.0,373.0" stroke="black" stroke-width="2" fill="none" />
<polyline points="164.5,359.5,161.5,363.0,165.0,359.0" stroke="black" stroke-width="2" fill="none" />
<polyline points="115.5,343.5,120.0,349.5,119.5,357.0,120.0,361.0,118.5,365.0,117.5,368.5,117.0,372.5,117.0,377.0,117.0,381.0,117.0,385.0,117.5,389.0,116.5,393.0,118.5,397.5,122.5,403.0,127.0,405.5" stroke="black" stroke-width="2" fill="none" />
<polyline points="105.5,392.5,106.5,396.5,108.5,400.5,108.5,404.5,106.5,408.5,100.0,413.0,102.0,414.0" stroke="black" stroke-width="2" fill="none" />
<polyline points="105.0,381.0,106.0,377.0,106.5,373.0,106.0,369.0,107.0,365.0,107.5,360.5,107.5,356.5,108.5,353.0,106.0,346.5,105.5,342.5,107.5,342.5,108.0,343.5" stroke="black" stroke-width="2" fill="none" />
<polyline points="100.5,342.0,105.0,338.0,109.0,333.0,112.5,327.0,116.5,319.5" stroke="black" stroke-width="2" fill="none" />
<polyline points="118.5,324.0,119.0,328.0,120.0,332.5,120.0,336.5,120.5,340.5,121.0,341.5" stroke="black" stroke-width="2" fill="none" />
<polyline points="117.0,337.5,117.5,341.5,117.5,345.0,118.5,349.5,120.5,354.0,121.5,358.5,122.5,362.5,124.5,366.5,125.5,370.5,128.0,374.5,130.5,378.5,131.5,383.5,133.0,384.5,138.5,386.0,140.5,390.0" stroke="black" stroke-width="2" fill="none" />
<polyline points="112.5,368.0,109.5,363.5,109.5,359.5" stroke="black" stroke-width="2" fill="none" />
<polyline points="114.5,361.5,113.0,357.5,112.0,353.5" stroke="black" stroke-width="2" fill="none" />
<polyline points="111.0,352.0,111.5,356.5,112.5,360.0,111.0,361.0,111.5,361.0,113.5,367.0" stroke="black" stroke-width="2" fill="none" />
<polyline points="107.0,353.0,107.0,357.0,105.0,361.5,104.0,365.5,102.5,370.0,102.0,374.0,102.0,378.0,102.0,382.0" stroke="black" stroke-width="2" fill="none" />
<polyline points="77.5,367.5,81.5,361.0,85.5,354.5" stroke="black" stroke-width="2" fill="none" />
<polyline points="74.5,367.0,78.5,360.0,82.5,352.5,85.0,350.5,81.5,354.5,79.5,358.5,78.0,362.0,74.5,366.5,74.5,370.5,74.5,374.5" stroke="black" stroke-width="2" fill="none" />
<polyline points="22.5,366.5,21.5,370.5,20.0,374.5,21.5,368.0" stroke="black" stroke-width="2" fill="none" />
<polyline points="80.0,317.0,76.0,319.0,72.0,322.0,68.5,323.5,75.5,319.5,78.5,315.0,74.5,311.0,74.5,307.0,74.5,306.5" stroke="black" stroke-width="2" fill="none" />
<polyline points="74.5,310.0,78.5,314.5" stroke="black" stroke-width="2" fill="none" />
<polyline points="78.5,305.5,78.5,309.5,80.0,311.5,83.5,309.0,87.5,307.0,92.0,304.5" stroke="black" stroke-width="2" fill="none" />
<polyline points="89.0,294.5,82.5,297.5,86.0,295.5,90.0,295.0,94.0,293.5,99.5,296.0,103.5,295.0,108.5,294.0" stroke="black" stroke-width="2" fill="none" />
<polyline points="107.0,293.0,101.5,296.5,99.5,300.5,92.5,303.0,96.5,300.5,100.0,300.0" stroke="black" stroke-width="2" fill="none" />
<polyline points="102.0,292.0,97.0,294.5,100.5,292.5,105.0,292.0,109.0,291.0" stroke="black" stroke-width="2" fill="none" />
<polyline points="111.5,286.5,107.5,289.0,103.5,290.0,99.5,290.0,95.0,292.0,91.0,292.0,87.0,293.0,82.5,294.5,79.5,297.0,86.0,293.0" stroke="black" stroke-width="2" fill="none" />
<polyline points="103.0,289.0,105.5,286.0" stroke="black" stroke-width="2" fill="none" />
<polyline points="116.0,283.5,115.5,285.5,109.0,288.5,112.5,284.5,111.0,279.0,114.0,277.5,113.0,273.5,116.5,272.0,112.5,271.5" stroke="black" stroke-width="2" fill="none" />
<polyline points="108.5,264.5,113.0,259.5,111.5,261.5,109.5,265.5,109.5,270.0,110.0,274.0,103.5,275.5,99.0,279.0,95.5,281.5,99.0,278.5,102.5,274.0,106.5,274.0,111.0,276.5,113.5,278.5,118.5,281.0" stroke="black" stroke-width="2" fill="none" />
<polyline points="121.5,284.0,120.5,288.0,120.0,292.0,118.0,296.0,113.5,300.0,109.5,304.5,105.5,308.5,103.0,312.5,101.0,316.5,99.0,320.0,99.5,324.5,100.5,328.5,101.5,330.5,97.5,335.0,94.5,341.5,99.0,339.5,103.0,337.0,107.0,332.0,110.5,326.5,114.5,318.5,118.5,310.0,122.0,302.5,124.5,303.5,126.0,309.5,133.5,313.5" stroke="black" stroke-width="2" fill="none" />
<polyline points="127.5,309.5,128.5,313.5,127.0,316.0,128.0,320.0,130.0,324.5,129.0,328.5,128.5,332.5" stroke="black" stroke-width="2" fill="none" />
<polyline points="117.5,329.5,116.0,329.5,117.0,325.5" stroke="black" stroke-width="2" fill="none" />
<polyline points="120.0,310.0,118.5,314.0,117.0,317.5,115.5,321.5,113.5,325.0,112.0,329.0,108.0,333.0,105.0,337.5,101.0,341.5,100.0,345.5,100.5,349.5,96.5,351.0,93.0,355.0,94.5,358.5,93.5,362.5,93.0,366.5,92.0,370.5,93.0,377.0,93.5,381.0,95.5,385.0" stroke="black" stroke-width="2" fill="none" />
<polyline points="97.0,340.5,101.0,336.5,105.5,332.5,108.5,328.5,112.0,324.5,114.0,320.5,116.0,316.5,117.5,312.5,119.5,308.5" stroke="black" stroke-width="2" fill="none" />
<polyline points="121.5,303.5,118.0,304.0,116.5,308.0,112.5,312.0,108.5,316.0,105.5,319.5,101.5,326.0" stroke="black" stroke-width="2" fill="none" />
<polyline points="133.5,301.5,133.5,297.5" stroke="black" stroke-width="2" fill="none" />
<polyline points="141.5,284.5,137.0,286.5,133.5,286.5,129.5,292.0,125.0,295.0,120.5,297.5,116.5,301.5,112.0,305.0,107.5,308.5,105.0,312.0,107.5,308.0,112.0,304.5,117.0,300.0,120.5,296.5,122.5,292.5,124.5,288.5,124.0,284.5" stroke="black" stroke-width="2" fill="none" />
<polyline points="130.0,278.5,134.0,278.5,137.5,277.0,141.5,275.5" stroke="black" stroke-width="2" fill="none" />
<polyline points="150.0,277.0,152.0,279.0,154.5,280.0,156.5,284.0,163.0,290.0,167.0,285.0,171.0,284.5,172.5,285.0,177.0,285.0,177.0,286.5" stroke="black" stroke-width="2" fill="none" />
<polyline points="171.5,288.0,172.0,291.0,168.0,294.0,164.5,296.0,160.5,295.5,156.0,294.0,152.0,291.5" stroke="black" stroke-width="2" fill="none" />
<polyline points="152.5,294.5,156.5,298.5" stroke="black" stroke-width="2" fill="none" />
<polyline points="155.5,296.0,159.5,298.5" stroke="black" stroke-width="2" fill="none" />
<polyline points="159.5,293.0,156.5,290.5,152.5,288.5" stroke="black" stroke-width="2" fill="none" />
<polyline points="153.0,283.5,156.5,289.0,160.5,291.5" stroke="black" stroke-width="2" fill="none" />
<polyline points="155.5,294.0,160.5,298.5" stroke="black" stroke-width="2" fill="none" />
<polyline points="156.5,299.0,153.5,295.5,150.5,291.5,151.0,287.5,150.0,282.0,150.0,277.5,150.0,272.0,153.0,268.5,156.5,264.5,160.5,261.0,163.5,257.5,164.5,254.0,166.0,250.0,167.5,246.0,168.5,241.5,170.0,239.5,165.0,244.5,160.5,252.5,155.5,258.0,151.5,258.0,146.5,257.5,142.5,258.0,139.0,264.0,136.5,264.5,135.5,259.5,132.5,262.5,128.5,265.0,127.5,268.0,132.0,263.0,131.5,258.5,130.0,254.5,127.5,251.0,129.0,246.5,135.5,246.0,136.0,242.0,139.5,238.0,137.0,233.5,135.5,229.5,134.5,225.5,133.5,221.0,133.5,217.0,133.0,213.0,131.0,209.0,128.5,205.0,126.5,201.0,124.5,197.0,123.5,192.5,122.0,188.5,121.0,184.5,120.0,180.0,119.5,176.0,119.5,172.0,119.5,167.5,120.0,164.0,120.5,160.5,121.0,157.0,121.5,153.0,121.5,149.0,122.5,145.0,124.0,141.0,125.0,137.0,125.0,133.0,126.0,129.0,127.5,125.0,128.5,120.5,130.0,117.0,131.0,113.0,133.0,109.0,135.0,105.0,138.0,104.5,139.5,100.5,139.5,100.5,135.5,106.0" stroke="black" stroke-width="2" fill="none" />
<polyline points="127.0,123.5,131.0,113.5,135.5,105.5,135.0,110.0,134.0,113.5,133.5,117.0,132.0,121.0,132.0,125.0,132.5,129.0,132.0,132.5,130.5,136.5,128.5,140.5,129.0,144.5,130.5,145.0,129.0,148.5,129.5,150.5,130.0,153.0,127.0,157.5,131.0,156.0,129.5,148.5" stroke="black" stroke-width="2" fill="none" />
<polyline points="129.0,152.0,133.5,153.5,132.0,155.0,133.0,159.0,136.0,161.0,132.5,165.0,128.0,169.0,131.5,166.0,134.0,161.0" stroke="black" stroke-width="2" fill="none" />
<polyline points="141.0,168.5,140.5,172.0,136.5,177.0,131.5,177.5,135.0,173.5" stroke="black" stroke-width="2" fill="none" />
<polyline points="134.5,172.0,130.5,175.5,133.0,175.0,137.0,172.5,139.0,167.5" stroke="black" stroke-width="2" fill="none" />
<polyline points="143.5,170.5,140.0,174.0,136.5,178.0,134.5,177.5" stroke="black" stroke-width="2" fill="none" />
<polyline points="142.5,179.0,139.5,185.0,135.5,189.0" stroke="black" stroke-width="2" fill="none" />
<polyline points="135.0,191.0,140.0,189.5,144.0,186.5,144.5,182.0,148.5,182.0" stroke="black" stroke-width="2" fill="none" />
<polyline points="146.0,184.5,150.0,189.5" stroke="black" stroke-width="2" fill="none" />
<polyline points="149.0,194.5,144.5,190.5" stroke="black" stroke-width="2" fill="none" />
<polyline points="144.5,187.5,148.5,193.0,153.0,194.0,158.5,187.0,163.0,182.0,167.0,177.5,171.0,173.0,175.0,169.0,179.5,165.0,183.0,161.5,187.0,158.0,191.5,154.5,195.5,151.0,200.0,148.0,203.5,144.5" stroke="black" stroke-width="2" fill="none" />
<polyline points="205.0,147.0,209.5,151.0,214.5,155.0,218.5,159.0,221.0,161.0" stroke="black" stroke-width="2" fill="none" />
<polyline points="221.5,159.5,218.0,158.5,214.0,154.5,210.5,151.0,206.0,147.5" stroke="black" stroke-width="2" fill="none" />
<polyline points="213.5,140.5,217.5,144.5" stroke="black" stroke-width="2" fill="none" />
<polyline points="214.0,140.5,218.0,144.0,222.0,147.5" stroke="black" stroke-width="2" fill="none" />
<polyline points="208.5,163.5,204.5,163.0" stroke="black" stroke-width="2" fill="none" />
<polyline points="203.0,163.0,204.5,167.0,197.5,169.5,192.5,173.0,188.5,177.5,184.0,181.0,180.0,185.0,175.5,189.0,172.5,192.5,167.5,196.5,164.5,200.5,164.0,201.0,167.5,196.0,172.0,192.5,176.0,187.5,180.5,184.0,184.0,180.0,188.0,176.5,192.5,173.5,196.5,170.0,200.5,166.5" stroke="black" stroke-width="2" fill="none" />
<polyline points="219.5,173.0,214.5,177.0,211.0,181.0,207.5,185.0,204.0,189.0,203.5,193.0,203.5,197.0" stroke="black" stroke-width="2" fill="none" />
<polyline points="199.5,203.5,195.5,204.0" stroke="black" stroke-width="2" fill="none" />
<polyline points="200.5,202.0,196.5,200.0,192.5,199.0" stroke="black" stroke-width="2" fill="none" />
<polyline points="189.5,199.0,186.5,200.0,182.0,204.0,180.0,207.5,180.5,206.0,184.5,201.5,188.5,198.5,191.0,198.0,195.0,199.0,199.0,200.5,202.5,201.5" stroke="black" stroke-width="2" fill="none" />
<polyline points="205.0,208.5,209.0,204.5,213.0,202.0,215.0,199.0,219.0,196.0,222.5,193.5,226.5,191.5" stroke="black" stroke-width="2" fill="none" />
<polyline points="226.0,192.0,219.0,196.5,212.5,202.5,208.0,207.0,206.5,211.0,206.0,211.0,209.5,205.0,213.5,203.0,217.5,198.5,222.0,196.0,226.0,193.5,230.0,192.5" stroke="black" stroke-width="2" fill="none" />
<polyline points="226.0,185.5,223.0,185.0,219.5,190.0" stroke="black" stroke-width="2" fill="none" />
<polyline points="217.0,188.0,221.5,183.0" stroke="black" stroke-width="2" fill="none" />
<polyline points="225.0,181.0,220.5,185.0,217.5,189.0,215.0,192.5,211.0,196.5,208.0,200.5" stroke="black" stroke-width="2" fill="none" />
<polyline points="200.0,204.5,192.5,205.5,188.5,206.0,184.5,207.0" stroke="black" stroke-width="2" fill="none" />
<polyline points="182.0,207.5,186.5,209.5,190.5,211.5,190.0,215.5,187.0,217.5,184.5,219.5,186.5,218.5,190.0,212.0,191.5,209.5,195.0,205.0,199.0,206.5" stroke="black" stroke-width="2" fill="none" />
<polyline points="181.5,213.5,181.5,215.0,182.5,219.0,181.5,223.0,182.0,219.0" stroke="black" stroke-width="2" fill="none" />
<polyline points="181.0,217.5,180.5,213.5" stroke="black" stroke-width="2" fill="none" />
<polyline points="176.5,213.0,172.0,214.5,169.5,216.5,174.0,212.5" stroke="black" stroke-width="2" fill="none" />
<polyline points="168.0,223.0,167.5,227.0,170.5,227.0,171.5,227.5,176.0,226.5,180.0,226.0" stroke="black" stroke-width="2" fill="none" />
<polyline points="179.5,229.5,175.5,229.5,171.0,233.0,167.0,236.0,162.5,240.0" stroke="black" stroke-width="2" fill="none" />
<polyline points="166.0,230.5,163.0,234.5,160.0,238.5,161.0,238.0,165.5,232.5,167.0,228.5,171.0,228.0" stroke="black" stroke-width="2" fill="none" />
<polyline points="168.0,227.0,164.0,228.0" stroke="black" stroke-width="2" fill="none" />
<polyline points="160.5,224.0,157.0,228.0,152.5,231.0,149.5,235.5,146.5,239.5,144.0,246.0,142.5,250.0,142.0,254.0,140.5,258.5,140.0,263.0,134.0,264.5,132.0,269.0,131.5,269.0,136.0,268.5" stroke="black" stroke-width="2" fill="none" />
<polyline points="136.0,269.0,138.5,265.0,135.0,263.5" stroke="black" stroke-width="2" fill="none" />
<polyline points="129.5,266.0,129.0,270.0,124.0,274.0,118.0,278.0,110.0,282.0,101.0,286.0,99.5,291.0,94.5,298.0,93.0,302.0,89.0,306.5,82.0,310.0,84.0,315.5,79.0,320.0,71.5,323.5,75.5,322.0,80.0,319.5,84.0,316.0,87.5,317.5" stroke="black" stroke-width="2" fill="none" />
<polyline points="123.5,252.5,118.5,256.5,115.0,260.5,111.5,264.5,115.0,259.0,119.0,255.0,123.0,252.0,127.5,246.5,132.0,244.5,136.5,240.0,142.5,238.5,149.0,234.5,153.0,229.5,157.0,226.0,161.0,222.0" stroke="black" stroke-width="2" fill="none" />
<polyline points="176.0,228.0,170.5,231.5,166.5,235.5,163.0,239.5,161.0,244.0,157.0,248.0,152.5,251.5,150.0,255.5,153.0,257.5,151.5,260.5,148.5,264.5,144.5,268.0,140.5,271.5,137.5,275.5,131.0,280.5,134.0,287.5,131.0,291.0,128.0,295.0,127.0,300.0,128.5,303.5,127.5,307.5,125.0,310.5,124.5,314.5,125.0,319.0,125.5,323.0,126.0,327.5,125.5,331.5,125.5,336.5,127.5,339.0,128.0,343.0,131.0,347.0,133.5,351.0,137.5,354.5,137.5,358.5,138.5,363.0,141.0,367.0,143.0,366.5,144.5,370.0,145.5,375.0,146.5,378.5,144.5,382.0,146.5,386.5,146.5,391.5,148.0,396.0,149.5,397.0,150.5,402.0,150.5,405.5,153.5,406.0,157.0,410.0,159.0,414.0,160.5,418.0,159.5,422.0,154.0,424.0" stroke="black" stroke-width="2" fill="none" />
<polyline points="171.0,343.5,167.5,345.5,163.5,348.0,159.0,346.0,156.0,354.0,151.5,353.5,147.0,351.0,145.0,353.5,146.5,358.5,149.0,355.5,152.0,353.0,151.0,350.5,153.5,346.5,158.0,342.5,159.0,336.5,162.0,332.5,165.5,328.5,168.0,324.5,169.5,321.5,163.5,318.0,166.5,314.5,167.5,312.5,167.5,308.0,170.5,304.0,170.5,299.5,171.5,296.0,172.5,292.0" stroke="black" stroke-width="2" fill="none" />
<polyline points="163.5,292.0,157.5,288.5,154.5,284.5,153.0,280.5" stroke="black" stroke-width="2" fill="none" />
<polyline points="167.0,290.5,168.5,288.5,171.5,284.0,174.0,280.0" stroke="black" stroke-width="2" fill="none" />
<polyline points="156.0,252.5,152.0,251.5,157.0,253.5,158.0,249.5" stroke="black" stroke-width="2" fill="none" />
<polyline points="143.0,244.0,139.0,242.0,135.0,244.0" stroke="black" stroke-width="2" fill="none" />
<polyline points="132.0,247.5,135.5,245.5,139.5,244.5,141.5,245.0" stroke="black" stroke-width="2" fill="none" />
<polyline points="137.0,255.5,133.0,254.5" stroke="black" stroke-width="2" fill="none" />
<polyline points="141.5,224.5,145.5,216.0" stroke="black" stroke-width="2" fill="none" />
<polyline points="148.0,212.5,149.0,211.0,151.0,207.0" stroke="black" stroke-width="2" fill="none" />
<polyline points="150.5,192.0,148.0,191.0,146.0,187.0,141.0,186.0" stroke="black" stroke-width="2" fill="none" />
<polyline points="144.5,187.0,147.0,191.0,147.0,193.0" stroke="black" stroke-width="2" fill="none" />
<polyline points="145.5,197.5,142.0,192.5" stroke="black" stroke-width="2" fill="none" />
<polyline points="139.5,192.0,138.5,196.5,136.0,200.0" stroke="black" stroke-width="2" fill="none" />
<polyline points="140.0,194.5,143.5,198.5,145.5,202.5,146.0,206.5,144.0,210.5,143.0,214.5,148.0,208.0,152.0,201.0" stroke="black" stroke-width="2" fill="none" />
<polyline points="146.5,199.0,144.5,195.0,143.5,191.5,141.5,189.5,140.5,185.0,144.5,181.0,145.0,178.0,145.5,177.5,142.0,181.5" stroke="black" stroke-width="2" fill="none" />
<polyline points="141.5,175.5,137.0,179.5,135.0,181.0,139.0,177.0,141.5,173.0" stroke="black" stroke-width="2" fill="none" />
<polyline points="146.5,172.0,147.5,176.0,143.0,180.0,140.5,184.0,135.5,187.5,134.5,191.5,135.5,194.0,136.0,194.5,138.0,194.0,139.5,195.0,144.0,200.0,148.0,200.0" stroke="black" stroke-width="2" fill="none" />
<polyline points="146.0,200.0,143.5,196.0,138.5,193.5,138.0,190.5,134.5,186.5,136.5,182.5,141.0,178.5,144.5,174.0,142.5,177.0,138.5,181.0,134.5,186.0" stroke="black" stroke-width="2" fill="none" />
<polyline points="125.0,198.0,128.5,205.5" stroke="black" stroke-width="2" fill="none" />
<polyline points="133.5,223.0,138.0,233.0,141.5,240.0" stroke="black" stroke-width="2" fill="none" />
<polyline points="114.5,229.0,112.0,230.5,115.5,226.5" stroke="black" stroke-width="2" fill="none" />
<polyline points="114.5,228.0,111.5,232.0,112.5,230.5,116.5,228.5" stroke="black" stroke-width="2" fill="none" />
<polyline points="179.0,234.5,177.5,238.5,177.0,242.0,178.0,244.0,178.0,248.5,178.5,252.5,179.0,256.5,181.0,260.5,183.5,265.0" stroke="black" stroke-width="2" fill="none" />
<polyline points="243.0,212.0,247.0,212.5,251.0,212.5" stroke="black" stroke-width="2" fill="none" />
<polyline points="239.0,194.0,243.0,190.0" stroke="black" stroke-width="2" fill="none" />
<polyline points="227.5,184.5,223.0,184.5,220.0,188.5,219.0,193.0,211.0,197.0,214.5,195.5" stroke="black" stroke-width="2" fill="none" />
<polyline points="224.0,175.5,218.5,179.5,214.5,183.0,210.0,187.0,206.5,191.5,205.5,195.5,206.0,197.5,210.0,196.0,214.0,193.5,218.5,194.0,222.0,190.5,226.5,190.0,230.5,188.5,231.5,184.5,235.5,183.0" stroke="black" stroke-width="2" fill="none" />
<polyline points="203.0,136.5,198.5,132.0" stroke="black" stroke-width="2" fill="none" />
<polyline points="197.0,131.5,201.5,135.5,202.5,139.5,201.5,141.0,206.0,138.0,210.0,135.0,214.0,132.5,218.0,129.5,222.0,126.5" stroke="black" stroke-width="2" fill="none" />
<polyline points="223.5,125.5,217.5,129.5,212.0,133.5,207.0,137.5,208.5,138.5,212.5,135.5,216.5,133.5,221.0,130.0,225.5,127.5,229.5,125.5,233.5,122.5,237.5,120.5" stroke="black" stroke-width="2" fill="none" />
<polyline points="238.5,119.5,232.0,123.5,226.0,127.5,220.0,131.5,213.5,135.5,208.0,139.5,204.0,143.0,200.0,147.0,195.0,151.0,191.0,155.0,186.0,159.5,182.5,163.0,177.5,166.5,172.5,170.5,169.0,174.5,165.5,178.5,161.0,182.5,158.0,187.0,153.0,192.5,150.5,196.5,152.0,200.0,150.5,204.0,148.0,208.0,146.5,212.5,146.5,216.0,144.0,220.0,142.5,224.0,141.0,228.0,140.5,232.0,141.5,235.5,141.5,239.5,140.5,242.0,133.0,245.0,131.0,250.0,132.5,253.0,134.0,257.0,138.5,256.0,141.5,256.5" stroke="black" stroke-width="2" fill="none" />
<polyline points="135.0,174.0,133.5,181.0,137.5,177.0,141.0,173.0,141.0,170.5,144.5,166.5" stroke="black" stroke-width="2" fill="none" />
<polyline points="128.0,139.5,132.0,134.5,133.0,130.0" stroke="black" stroke-width="2" fill="none" />
<polyline points="156.5,129.0,152.5,131.5,148.5,134.5,153.0,130.0,158.0,126.0" stroke="black" stroke-width="2" fill="none" />
<polyline points="189.5,121.5,185.5,124.0,182.0,126.5,180.5,127.5,186.5,124.0,192.5,120.0" stroke="black" stroke-width="2" fill="none" />
<polyline points="189.5,119.0,183.5,123.0,178.0,127.0,179.5,126.5,183.5,123.5,188.0,121.0" stroke="black" stroke-width="2" fill="none" />
<polyline points="192.0,131.0,187.0,135.5,186.5,136.5,190.5,133.0" stroke="black" stroke-width="2" fill="none" />
<polyline points="203.5,116.5,200.0,119.0,196.0,121.5,199.0,119.0,205.5,115.0" stroke="black" stroke-width="2" fill="none" />
<polyline points="196.5,110.5,193.0,112.5" stroke="black" stroke-width="2" fill="none" />
<polyline points="227.5,127.0,223.5,129.5,220.0,132.5,216.0,136.0,212.0,139.5,208.0,142.5,204.0,146.0,200.5,149.5,196.5,153.0,199.0,150.5,203.0,146.5,208.0,142.0,213.5,138.0,218.5,133.5,224.5,129.0,231.0,125.0" stroke="black" stroke-width="2" fill="none" />
<polyline points="237.5,98.5,231.5,102.0,225.5,103.5,221.5,107.0,225.0,104.0,229.0,104.0,233.0,101.5,237.5,98.5" stroke="black" stroke-width="2" fill="none" />
<polyline points="236.0,97.0,232.5,99.5,237.0,96.0" stroke="black" stroke-width="2" fill="none" />
<polyline points="247.5,91.5,243.0,94.0,249.5,90.5" stroke="black" stroke-width="2" fill="none" />
<polyline points="263.5,84.5,259.5,86.5,255.5,88.5,252.0,91.0,247.5,93.0,243.5,95.5,239.5,98.5,235.5,102.0,231.5,105.0,228.0,107.5,224.0,110.0,220.0,113.0,215.5,115.5,211.0,118.5,207.0,121.0,203.0,124.5,199.0,128.0,195.0,131.5,191.0,134.5,187.0,138.5,183.0,142.0,179.0,146.5,175.0,150.0,170.5,154.0,167.0,158.0,163.0,162.5,159.0,165.5,155.0,170.0,153.5,173.5,157.0,169.5,161.5,166.0,166.0,162.0,169.5,157.5,174.0,153.5,177.5,149.5,181.0,146.0,185.0,142.0,190.0,138.0,194.5,134.5,199.0,130.5,203.5,127.0,208.0,123.0,213.5,118.5,219.0,114.5,225.0,110.0,231.5,105.5,237.0,101.5,243.0,97.5,248.5,93.5,255.5,89.5,264.5,85.5" stroke="black" stroke-width="2" fill="none" />
<polyline points="236.0,78.0,229.0,82.0,224.5,86.0,226.5,84.5,231.0,81.5,235.5,80.0" stroke="black" stroke-width="2" fill="none" />
<polyline points="233.5,50.5,237.0,47.5" stroke="black" stroke-width="2" fill="none" />
<polyline points="230.0,46.5,224.5,50.5,228.0,47.5,231.5,48.0,235.5,48.0,239.5,48.5,243.5,49.5,247.5,50.5,251.5,52.0,255.5,53.5,259.0,54.0,263.5,56.0,267.5,58.5,272.0,61.0,276.0,64.0,280.0,67.0,284.0,70.5,288.0,73.0,292.0,76.5,296.0,77.5,300.0,80.0,304.5,86.0,308.5,91.5,312.5,97.5,316.0,100.0,320.0,103.5,324.0,108.0,328.5,114.0,332.0,122.5,336.0,129.0,339.5,132.5,344.0,138.5,348.0,146.5,351.5,144.0,355.5,142.0,360.0,139.0,363.5,137.0,367.5,135.0,371.5,132.0,375.5,129.5,379.5,126.5,383.5,123.5,387.5,120.5,391.5,117.0,395.0,113.5,399.0,112.5,403.0,111.5,407.5,112.5,411.5,112.5,416.0,114.0,420.5,121.5" stroke="black" stroke-width="2" fill="none" />
<polyline points="414.5,112.5,418.5,116.5,419.5,120.5,420.5,124.5,420.5,129.0,420.5,133.0,420.0,137.0,418.5,140.5,418.0,144.5,416.5,149.0,415.5,153.0,414.0,157.0,412.0,161.0,411.0,165.0,409.5,169.0,408.5,173.0,406.0,177.0,403.5,181.0,399.5,185.0,394.5,189.0,391.0,193.5,387.0,197.5,383.5,202.0,378.5,206.0,372.5,210.5,366.5,214.5,369.5,213.0,373.5,210.5,377.5,207.5,382.0,204.5,386.0,201.5,390.0,197.5,394.0,193.0,397.5,188.5,401.5,185.5,406.0,179.0,410.0,169.5,415.0,158.0" stroke="black" stroke-width="2" fill="none" />
<polyline points="403.5,157.5,400.0,161.5,396.0,165.5,391.5,169.0,387.5,172.5,386.5,173.0,391.0,169.0,395.5,164.5,399.0,160.5,403.0,156.5" stroke="black" stroke-width="2" fill="none" />
<polyline points="395.0,152.0,391.5,156.0,389.0,160.5,386.5,164.5,385.0,168.5,382.5,172.5,380.0,176.5,382.5,173.0,386.5,166.0,390.5,158.5,394.5,152.5" stroke="black" stroke-width="2" fill="none" />
<polyline points="395.5,123.5,391.5,127.0,387.5,130.0,383.0,132.5,381.0,134.0,386.5,129.5,391.5,125.0,396.5,121.0" stroke="black" stroke-width="2" fill="none" />
<polyline points="396.0,121.0,392.0,124.0,387.5,127.0,383.5,130.0,380.0,133.0,385.0,129.0,390.5,125.0,395.5,120.5" stroke="black" stroke-width="2" fill="none" />
<polyline points="399.0,113.0,392.0,117.0,387.5,121.5,382.5,125.5,377.0,129.5,371.0,133.5,364.5,137.0,357.5,141.0,351.0,145.0" stroke="black" stroke-width="2" fill="none" />
<polyline points="337.5,152.5,331.0,156.5,325.5,160.5,318.0,164.5,312.0,169.0,306.0,173.0,300.5,177.0,295.0,180.5" stroke="black" stroke-width="2" fill="none" />
<polyline points="285.0,144.5,281.0,145.5" stroke="black" stroke-width="2" fill="none" />
<polyline points="298.0,133.5,293.5,137.0,288.5,141.0,291.0,139.0,295.0,136.0,298.5,133.5" stroke="black" stroke-width="2" fill="none" />
<polyline points="261.0,130.5,256.5,134.5,251.0,138.5,245.0,142.5,240.5,146.5,235.0,151.0,230.0,155.0,225.0,159.0,221.0,163.5,223.0,161.5,227.0,158.0,230.5,155.0,234.5,152.0,238.0,149.0,242.0,146.5,245.5,144.0,249.5,140.5,254.0,137.5,258.5,134.5" stroke="black" stroke-width="2" fill="none" />
<polyline points="251.5,51.0,262.0,55.0,269.0,59.5,275.0,63.5,281.5,67.5,287.0,71.5,291.5,75.5,299.5,79.5,301.5,83.5,304.0,87.5,307.0,91.5,310.0,95.5,315.5,99.5,320.0,103.5,323.5,108.0,325.5,112.0,328.5,116.0,329.0,119.5,331.5,123.0,333.5,127.0,336.0,130.5,340.5,135.0,342.5,139.0,343.5,143.5,346.0,147.5" stroke="black" stroke-width="2" fill="none" />
<polyline points="368.0,131.5,369.5,129.5,369.5,125.5" stroke="black" stroke-width="2" fill="none" />
<polyline points="386.5,106.5,382.0,101.0,378.5,97.0" stroke="black" stroke-width="2" fill="none" />
<polyline points="379.0,96.0,382.5,100.0,385.0,104.0,389.0,108.0" stroke="black" stroke-width="2" fill="none" />
<polyline points="440.5,70.0,437.0,63.5,433.5,56.5,429.5,50.0,426.0,43.0,422.0,34.5,418.0,28.5,414.0,21.0,409.5,14.0,405.5,7.5" stroke="black" stroke-width="2" fill="none" />
<polyline points="514.5,75.5,511.5,79.5,507.5,83.0,503.5,87.0,498.5,90.5,494.0,95.5,490.5,99.0,486.5,103.5,482.5,107.5,480.0,111.0,476.5,115.0,474.0,119.0,471.0,123.0,468.0,127.0,467.0,131.0,463.5,135.0,461.5,139.5,460.0,143.5,456.0,148.5,455.0,152.5,452.5,156.0,450.0,160.5,447.5,165.0,445.0,169.5,442.5,174.0,441.5,178.5,439.0,182.5,437.5,186.5,436.0,190.5,434.5,194.5,432.5,198.5,430.5,202.5,429.5,206.0,428.0,209.5,426.0,214.0,422.5,217.5,422.0,222.0,419.5,225.5,417.5,229.5,416.0,234.0,414.0,238.5,412.0,242.5,410.0,246.5,411.5,249.5,409.0,254.0,408.0,258.5,407.5,262.5,406.0,266.5,405.5,270.0,404.0,274.0,401.5,277.5,401.0,281.5,400.5,285.5,399.5,290.0,398.0,294.0,397.5,298.0,396.0,302.0,395.0,305.5,393.0,309.5,392.0,313.5,391.0,317.5,390.5,321.5,389.0,325.5,388.0,329.5,387.5,333.5,387.0,337.5,387.5,341.5" stroke="black" stroke-width="2" fill="none" />
<polyline points="211.0,47.0,207.0,48.5" stroke="black" stroke-width="2" fill="none" />
<polyline points="173.5,59.5,170.0,61.5,166.0,62.0,161.0,65.5,160.5,69.5,162.0,65.5" stroke="black" stroke-width="2" fill="none" />
<polyline points="161.0,66.0,159.0,70.0,155.5,74.5,153.5,78.0,153.5,77.5,157.0,72.0,160.0,69.0" stroke="black" stroke-width="2" fill="none" />
<polyline points="155.0,75.0,153.5,79.5,152.0,83.5,155.5,77.5" stroke="black" stroke-width="2" fill="none" />
</svg>