<svg xmlns="http://www.w3.org/2000/svg" version="1.1"><polyline points="405.0,2.5,405.0,6.5,407.0,10.5,409.0,14.5,411.0,18.5,413.5,22.5,415.5,26.5,417.5,30.0,420.5,34.0,422.0,38.0,424.5,42.5,427.0,46.0,429.5,50.0,432.0,54.0,435.0,58.5,437.0,62.5,439.5,67.0,442.5,70.5" stroke="black" stroke-width="2" fill="none" />
<polyline points="456.5,58.0,452.0,51.0,447.5,45.5,443.5,38.0,440.5,33.0,437.0,25.5,433.0,19.0,429.0,12.0,424.5,6.5" stroke="black" stroke-width="2" fill="none" />
<polyline points="424.5,2.5,424.5,6.5,425.5,10.0,428.0,13.5,431.0,17.5,433.0,21.5,435.0,25.0,438.0,28.5,439.5,32.5,442.0,36.5,444.0,40.5,446.0,44.5,449.0,48.5,451.5,52.5,454.0,56.5,456.5,61.0,454.5,65.0,451.5,69.5,447.0,73.5,443.0,78.0,440.5,82.0,438.0,86.0,435.0,90.0,432.5,93.5,430.5,98.0,428.0,102.0,425.0,106.0,423.0,110.0,420.5,114.0,421.0,114.0,425.0,108.0,429.0,101.5,433.0,95.0,436.5,90.0,440.5,84.5,444.5,78.0,448.5,73.0,452.0,69.0,456.0,63.5,461.5,55.0,465.5,51.0,469.5,47.5,473.0,43.0,477.0,38.5,480.5,34.5,484.5,30.5,488.5,26.5,492.5,23.0,498.0,18.5,502.0,14.5,506.0,12.0,510.0,8.0" stroke="black" stroke-width="2" fill="none" />
<polyline points="514.0,6.0,508.0,9.5,503.5,13.5,498.0,17.5,495.0,20.5,490.0,24.0,486.0,28.0,482.0,32.5,477.0,37.0,473.5,41.5,469.0,45.0,465.0,49.0,461.5,53.0,457.5,57.5" stroke="black" stroke-width="2" fill="none" />
<polyline points="511.5,76.0,507.5,81.0,503.5,85.0,499.5,89.5,497.0,94.0,493.0,96.5,489.0,102.5,485.5,107.0,481.5,112.0,477.5,117.0,473.5,122.5,469.5,128.0,465.0,135.5,461.0,141.5" stroke="black" stroke-width="2" fill="none" />
<polyline points="454.5,154.0,450.5,161.5,447.5,166.5,443.5,174.5" stroke="black" stroke-width="2" fill="none" />
<polyline points="440.5,179.5,438.5,183.5" stroke="black" stroke-width="2" fill="none" />
<polyline points="433.0,194.0,429.0,202.0,427.5,210.0,426.5,215.0,422.5,219.0" stroke="black" stroke-width="2" fill="none" />
<polyline points="417.5,230.5,415.5,237.0,411.5,244.5" stroke="black" stroke-width="2" fill="none" />
<polyline points="403.5,277.0,402.0,281.0,400.0,288.0" stroke="black" stroke-width="2" fill="none" />
<polyline points="382.0,292.0,382.0,288.5,381.0,284.5,381.0,280.5,380.0,277.5" stroke="black" stroke-width="2" fill="none" />
<polyline points="374.5,278.0,375.0,282.0,376.5,285.0,376.0,289.0,376.5,293.0,377.5,297.0,378.0,301.0,379.5,305.0,379.5,309.5,380.0,314.0,381.0,318.5,381.5,322.5,382.5,326.0,381.5,330.0,381.0,333.5,381.0,337.5,381.5,341.0,382.0,345.5,382.5,349.5,383.0,353.0" stroke="black" stroke-width="2" fill="none" />
<polyline points="368.5,351.0,369.5,355.0,370.5,359.0,370.5,363.5,371.0,368.0,371.0,372.0" stroke="black" stroke-width="2" fill="none" />
<polyline points="373.0,375.0,374.0,379.5,373.5,383.5" stroke="black" stroke-width="2" fill="none" />
<polyline points="381.0,386.0,380.5,390.5,380.0,394.0,379.5,398.0,379.0,402.5" stroke="black" stroke-width="2" fill="none" />
<polyline points="363.0,433.5,359.0,424.5,355.0,418.5,350.5,414.5,347.0,410.0,343.0,406.5,339.0,403.5,335.0,401.0,330.5,399.5,326.5,397.5,322.0,395.5,318.0,394.0,313.5,392.0,309.5,390.0,307.0,390.0,303.0,389.5,299.0,388.5" stroke="black" stroke-width="2" fill="none" />
<polyline points="312.0,382.0,316.0,371.5,320.0,365.0,324.0,359.0,328.0,352.0,332.5,343.5,336.0,335.5,340.0,326.5,344.0,318.5" stroke="black" stroke-width="2" fill="none" />
<polyline points="356.0,331.0,355.5,335.0,355.0,338.5,353.5,342.5,354.0,340.5" stroke="black" stroke-width="2" fill="none" />
<polyline points="352.0,353.5,352.5,358.0,353.0,362.0,352.5,366.0,352.5,370.0,353.0,373.5,352.5,378.0,353.0,382.0,354.0,388.0,353.5,391.5,354.5,395.5,354.5,399.5,355.0,403.0,353.0,405.0,354.0,409.0,354.5,413.0" stroke="black" stroke-width="2" fill="none" />
<polyline points="359.0,384.5,359.0,380.5,359.5,377.0,360.5,372.5,360.0,368.5,360.0,365.0" stroke="black" stroke-width="2" fill="none" />
<polyline points="357.0,360.0,357.5,364.0,358.0,367.5,358.0,371.5,358.0,376.0,358.5,380.0" stroke="black" stroke-width="2" fill="none" />
<polyline points="355.0,355.0,355.0,359.0,355.5,363.5,354.5,367.5,355.0,371.5,354.5,375.0,354.5,379.5,354.0,383.5,353.5,387.5,353.5,391.5,353.5,395.5,353.5,399.5,354.0,403.5,354.0,407.5,355.0,411.0,353.5,412.5" stroke="black" stroke-width="2" fill="none" />
<polyline points="375.0,463.5,373.0,461.0,371.5,456.5,372.0,452.5,372.0,448.0,372.5,444.0,373.0,439.5,374.0,435.5,374.5,431.0,375.0,427.5,375.5,424.0,375.5,420.0,376.0,416.0,375.5,412.0,376.0,408.0,376.5,404.0,377.5,400.0,378.0,396.0,378.0,392.0,378.5,388.5,378.5,384.5,378.0,381.0,377.5,377.0,377.5,373.0,377.0,369.0,377.0,365.0,378.0,361.0,378.0,357.0,377.5,353.0,376.5,349.0,375.5,344.5,375.5,340.5,374.5,336.5,374.0,332.5,373.5,328.5,372.5,324.5,372.0,320.5,371.0,316.5,371.0,313.0,370.0,309.0,369.5,304.5,370.0,300.0,369.5,296.0,369.0,291.5,369.0,287.5,368.5,283.5,368.5,279.5,368.5,275.5,368.5,271.5,368.0,267.5,367.5,263.5,367.5,259.5,368.0,255.0,367.5,251.0,367.5,247.5,366.5,243.5,366.5,239.5,365.0,235.5,364.0,231.5,363.0,227.5,361.5,223.5,360.5,219.5,359.0,215.5,357.0,212.0,355.0,208.5,354.0,206.0,350.5,202.5,349.0,198.5,349.0,196.5" stroke="black" stroke-width="2" fill="none" />
<polyline points="346.5,199.5,349.0,203.5" stroke="black" stroke-width="2" fill="none" />
<polyline points="349.5,204.0,346.0,199.0" stroke="black" stroke-width="2" fill="none" />
<polyline points="345.0,200.0,343.5,204.0,347.0,207.5" stroke="black" stroke-width="2" fill="none" />
<polyline points="348.5,206.5,344.0,202.0" stroke="black" stroke-width="2" fill="none" />
<polyline points="344.0,205.0,349.0,209.0,352.5,212.5" stroke="black" stroke-width="2" fill="none" />
<polyline points="356.0,205.0,352.0,200.0" stroke="black" stroke-width="2" fill="none" />
<polyline points="351.0,200.0,355.0,205.5,358.5,213.0" stroke="black" stroke-width="2" fill="none" />
<polyline points="369.0,221.5,371.5,215.0,370.5,218.5,369.0,222.5,368.5,226.0,368.0,230.0,368.0,232.5,368.5,236.5,369.5,240.5,370.0,244.5,372.0,248.5,372.5,253.0,375.0,257.0,374.0,261.0,376.0,265.0,377.5,269.0" stroke="black" stroke-width="2" fill="none" />
<polyline points="382.5,265.0,381.5,269.0,382.0,273.5,380.0,277.5,378.0,281.5,378.5,285.5,379.0,289.5" stroke="black" stroke-width="2" fill="none" />
<polyline points="375.0,292.5,374.5,296.5,374.5,300.5,375.5,305.0,376.0,309.0,376.5,312.5,377.0,317.0,378.5,323.5,378.0,327.5,378.0,331.5,379.0,335.5,379.0,339.0,379.5,343.0,380.0,347.0,380.0,351.5,380.5,355.5,381.0,359.5" stroke="black" stroke-width="2" fill="none" />
<polyline points="367.0,352.0,367.5,355.5,368.5,359.5,368.5,363.5,368.0,368.0,371.0,373.0,371.0,377.0,371.0,380.5,370.5,384.5" stroke="black" stroke-width="2" fill="none" />
<polyline points="384.5,350.0,384.5,346.0,384.0,342.0,384.5,338.0,384.0,334.5,383.5,330.5" stroke="black" stroke-width="2" fill="none" />
<polyline points="343.0,281.5,342.5,281.5,340.0,281.5,341.0,274.5,342.5,271.0,341.0,265.5,337.0,264.0" stroke="black" stroke-width="2" fill="none" />
<polyline points="333.0,265.5,337.0,265.0,337.0,268.5,335.0,272.5,334.0,270.5" stroke="black" stroke-width="2" fill="none" />
<polyline points="329.0,273.0,327.0,271.5,330.0,271.0,336.0,270.0,331.5,269.5,327.5,268.0" stroke="black" stroke-width="2" fill="none" />
<polyline points="323.0,268.0,322.5,272.0,323.5,276.0,330.5,278.0,334.0,279.0,338.0,278.5,342.0,277.0,348.5,278.5" stroke="black" stroke-width="2" fill="none" />
<polyline points="337.5,280.0,341.5,281.5,345.0,279.0,348.5,278.5,348.5,282.5,349.0,287.0,348.5,291.0,349.5,295.0,349.0,299.0,348.0,303.0,347.5,307.0,343.5,311.0,346.0,313.0,344.5,317.5,343.0,321.5,341.0,326.0,340.0,329.5,337.5,333.0,336.0,337.0,334.5,341.0,333.0,345.0,331.0,349.0,328.0,352.5,326.0,356.5,324.0,360.5,321.0,364.5,319.0,368.5,316.5,372.5,315.0,376.5,314.0,380.5,314.5,384.5,312.0,388.5,318.0,392.0,327.0,396.0,335.5,400.5,341.0,404.5,345.5,409.0,349.0,413.0,352.5,417.5,354.5,421.5,357.0,426.0,359.0,430.0,361.5,434.0,362.5,438.0,363.5,442.0,364.5,446.0,366.0,450.0,367.5,453.5,368.5,457.5,369.5,461.5,371.0,465.5,372.0,469.0,373.5,473.0,374.5,477.5,375.0,481.5,376.5,485.5,377.5,489.5,379.0,493.0,380.5,496.5,381.5,500.5,382.5,504.5,383.5,509.0,384.5,513.0" stroke="black" stroke-width="2" fill="none" />
<polyline points="421.5,490.5,425.0,495.5,429.5,494.5,433.5,491.0,438.0,487.5,442.0,483.5,446.0,480.0,449.5,475.0,452.5,470.0,456.0,466.5" stroke="black" stroke-width="2" fill="none" />
<polyline points="458.5,465.0,453.0,469.0,450.5,467.5,454.5,461.0" stroke="black" stroke-width="2" fill="none" />
<polyline points="457.5,449.5,461.5,440.5" stroke="black" stroke-width="2" fill="none" />
<polyline points="465.0,431.5,468.5,424.5,472.5,418.0,476.0,409.0,480.0,405.5,484.0,401.5,488.5,399.0,492.5,395.0,494.0,391.5,498.0,389.5,502.0,388.0,506.0,386.5,510.5,384.5" stroke="black" stroke-width="2" fill="none" />
<polyline points="511.5,382.5,501.5,387.0,493.0,391.0,491.5,395.5,486.5,399.0,482.5,403.0,477.5,407.0,475.0,411.0,474.0,414.5,471.5,418.5,469.5,422.5,468.0,426.5,465.5,430.0,462.0,434.5,460.5,438.5,458.5,442.5,457.5,447.0,456.0,451.0,455.5,455.0,455.5,459.0,453.5,463.0,452.0,467.0,449.5,470.5,450.0,475.0,447.0,479.5,442.5,483.5,438.0,487.5,433.0,491.0" stroke="black" stroke-width="2" fill="none" />
<polyline points="432.0,480.0,431.0,477.5,432.5,474.5,434.5,478.5,436.0,474.5,436.0,470.5,437.5,466.0,438.5,462.5,440.0,458.5,439.5,457.0,436.0,455.0,432.0,451.5" stroke="black" stroke-width="2" fill="none" />
<polyline points="439.0,457.0,435.0,455.0,430.5,451.0,430.0,447.0,431.0,442.5,431.5,438.5,433.0,434.5,435.0,431.0,433.0,434.0" stroke="black" stroke-width="2" fill="none" />
<polyline points="429.5,467.0,427.0,471.0,423.0,475.0,422.0,479.0,422.5,483.0,422.5,487.0,423.5,490.5" stroke="black" stroke-width="2" fill="none" />
<polyline points="415.5,468.5,417.0,472.5,420.5,477.0,424.5,473.0,428.5,467.5" stroke="black" stroke-width="2" fill="none" />
<polyline points="485.0,409.0,480.5,414.0,478.0,416.5,481.5,412.5,484.5,408.5,487.5,404.5" stroke="black" stroke-width="2" fill="none" />
<polyline points="444.0,424.0,446.0,422.5,447.5,418.5,449.0,414.5,449.5,410.0,450.5,406.0,451.0,402.0,451.0,398.0,451.5,394.5,452.0,390.5,453.0,387.0,454.0,383.0,454.5,379.0,454.5,374.5,454.5,370.5,454.0,366.0" stroke="black" stroke-width="2" fill="none" />
<polyline points="363.5,312.0,363.5,308.0,363.5,304.0,363.5,300.0,364.5,296.0,364.5,291.5,365.0,287.0,364.5,283.0,365.0,279.0,365.5,275.0,366.0,271.5,367.0,268.0,367.0,264.0" stroke="black" stroke-width="2" fill="none" />
<polyline points="365.0,264.5,364.5,268.0,364.5,272.0,364.0,276.0,363.0,280.0,362.5,281.0" stroke="black" stroke-width="2" fill="none" />
<polyline points="337.0,281.5,336.5,277.0" stroke="black" stroke-width="2" fill="none" />
<polyline points="334.5,271.5,335.5,274.0,331.5,275.5,327.0,274.5,323.0,268.5" stroke="black" stroke-width="2" fill="none" />
<polyline points="323.0,270.5,325.5,274.5" stroke="black" stroke-width="2" fill="none" />
<polyline points="325.0,275.0,321.0,273.5" stroke="black" stroke-width="2" fill="none" />
<polyline points="318.0,272.5,322.0,265.0,326.0,261.0,330.0,259.5,334.0,258.5,338.5,257.5,342.0,256.5,346.0,256.5,348.5,252.5,352.5,252.0" stroke="black" stroke-width="2" fill="none" />
<polyline points="349.5,255.5,345.5,258.0" stroke="black" stroke-width="2" fill="none" />
<polyline points="345.5,255.0,341.5,255.0,337.5,255.5,333.5,256.0" stroke="black" stroke-width="2" fill="none" />
<polyline points="334.0,254.0,327.5,258.0,325.5,263.0,321.5,267.0,319.5,270.5,318.5,274.5,318.5,276.0,322.5,278.5" stroke="black" stroke-width="2" fill="none" />
<polyline points="327.5,259.0,332.0,255.5,336.5,253.0,340.5,252.0,344.0,251.0,349.0,248.0,353.0,244.5" stroke="black" stroke-width="2" fill="none" />
<polyline points="354.5,240.5,350.5,244.5,345.5,249.0,341.5,253.0" stroke="black" stroke-width="2" fill="none" />
<polyline points="347.0,240.0,346.0,236.5,344.5,232.5,343.0,228.5,342.5,224.5,341.0,220.5,340.5,216.0,339.5,212.0,335.5,205.0" stroke="black" stroke-width="2" fill="none" />
<polyline points="333.5,203.0,337.5,200.5,342.0,198.0,346.0,196.0,350.0,194.0,354.0,191.5,358.0,189.5,362.0,187.0,366.0,185.0,370.0,184.0,374.5,182.5,378.5,181.5,383.0,179.5,387.0,177.5,391.0,175.0,395.0,173.0,399.0,171.0,402.5,169.0,406.5,168.0,403.0,171.0,401.0,175.0,398.0,179.0,393.5,183.0,387.5,187.0,382.5,189.5,386.5,188.0,390.5,185.0,394.5,182.5,399.0,179.0,403.0,175.0" stroke="black" stroke-width="2" fill="none" />
<polyline points="401.5,165.0,404.0,159.0,403.5,163.0,403.5,168.0,397.5,172.0,390.0,176.5,383.0,180.5" stroke="black" stroke-width="2" fill="none" />
<polyline points="373.0,182.5,363.0,186.5,356.5,190.5,350.0,194.5,342.5,198.5,337.0,203.0,337.0,206.5,342.0,209.5,346.5,213.5,352.5,213.5" stroke="black" stroke-width="2" fill="none" />
<polyline points="345.5,210.5,341.5,208.0" stroke="black" stroke-width="2" fill="none" />
<polyline points="341.0,205.0,344.5,208.5,348.5,212.0,352.5,216.5,356.0,224.0" stroke="black" stroke-width="2" fill="none" />
<polyline points="352.5,207.5,351.0,211.0,347.0,208.5,343.5,205.5,340.0,203.0" stroke="black" stroke-width="2" fill="none" />
<polyline points="340.0,202.0,342.5,205.5,347.5,209.5,351.0,213.5,353.5,217.5,355.5,221.5,358.0,227.0,360.0,231.0,361.5,235.0,362.0,239.0,362.5,243.0,363.0,247.0" stroke="black" stroke-width="2" fill="none" />
<polyline points="366.0,248.5,366.0,244.5" stroke="black" stroke-width="2" fill="none" />
<polyline points="371.0,249.5,371.0,253.5,371.5,257.5,373.0,261.0,373.5,265.0,374.5,269.0,373.5,272.5,375.0,274.0,374.0,277.0,374.0,281.0,374.5,285.0" stroke="black" stroke-width="2" fill="none" />
<polyline points="370.5,245.0,372.0,240.0,372.5,236.0,372.0,232.0" stroke="black" stroke-width="2" fill="none" />
<polyline points="361.5,202.0,358.0,193.5" stroke="black" stroke-width="2" fill="none" />
<polyline points="356.5,190.5,357.5,195.0,359.0,199.0,361.0,203.0,361.5,207.0" stroke="black" stroke-width="2" fill="none" />
<polyline points="356.0,208.5,354.0,204.5,351.0,200.5" stroke="black" stroke-width="2" fill="none" />
<polyline points="360.0,190.0,364.5,195.0,368.0,194.5,372.5,193.0,376.0,191.5" stroke="black" stroke-width="2" fill="none" />
<polyline points="364.5,193.0,362.0,189.0" stroke="black" stroke-width="2" fill="none" />
<polyline points="338.0,208.5,342.0,216.5" stroke="black" stroke-width="2" fill="none" />
<polyline points="298.0,221.0,293.0,225.0,287.5,229.0,285.0,232.0,289.0,229.0,293.5,225.5,297.5,222.5" stroke="black" stroke-width="2" fill="none" />
<polyline points="290.0,251.0,296.5,255.0" stroke="black" stroke-width="2" fill="none" />
<polyline points="298.5,257.0,294.0,254.0,290.0,251.0,286.0,250.5,282.5,249.0,278.0,248.0,274.0,245.0,269.0,244.0,265.0,246.0,261.0,248.5,257.0,252.0,253.0,256.0,248.5,260.0,244.5,264.5,240.5,268.5,236.5,273.5,232.5,277.0,229.0,281.0,225.5,285.0,221.5,290.0,217.5,296.0,213.5,302.0,209.5,308.5,205.0,313.5,199.5,319.5,195.0,321.0,191.0,319.5,188.5,316.0,191.0,312.5,192.5,308.5,194.5,304.5,196.0,300.0,198.5,296.0,200.0,292.0,202.0,288.0,204.5,284.0,207.0,280.5,209.5,277.0,212.5,273.0,214.5,269.0,217.0,265.0,219.5,261.0,221.5,257.0,224.5,253.0,227.5,249.0,231.0,245.0,233.5,241.0,231.0,237.5,230.0,233.5,229.0,230.0,228.0,226.0,225.5,221.5,224.0,218.0,223.5,215.0,221.0,211.5,222.0,208.0,224.5,204.0,228.0,200.0,226.0,203.0,221.5,207.5" stroke="black" stroke-width="2" fill="none" />
<polyline points="224.5,202.5,224.0,206.5,224.0,211.0,225.0,215.0,227.5,215.0,228.5,219.0,230.0,223.0,230.5,226.5,231.0,230.5,231.5,234.5,232.0,235.5,236.0,236.0,240.5,231.0,244.5,226.5,249.0,222.5,253.0,218.5,257.0,215.0,260.0,208.5,264.0,201.0" stroke="black" stroke-width="2" fill="none" />
<polyline points="265.0,200.0,264.0,204.0,262.0,208.0,260.5,211.5,261.0,215.5,259.5,220.0,255.5,224.0,252.0,228.5,248.5,232.5,245.0,236.5,241.0,240.5,237.5,244.5,235.5,248.0,232.0,252.0,229.0,256.0,226.5,260.5,223.5,264.5,221.0,268.5,219.0,272.5,215.5,276.5,213.5,280.5,211.5,284.5,210.0,288.5,208.0,292.0,206.5,296.0,204.0,300.5,202.5,304.0,200.5,308.0,199.0,312.0,197.0,316.0,199.5,319.5,199.0,312.0,203.0,302.0,207.0,293.5,211.0,285.5,215.0,277.5,219.0,270.5,223.0,263.5,227.0,258.0,231.0,252.5,235.0,247.5,239.0,242.5,243.0,238.0,247.5,233.5,252.0,229.0,256.0,224.0,260.0,220.5,264.0,216.0,264.5,211.5,268.5,204.0,272.5,201.5,276.5,198.5,281.0,195.5,285.5,192.5,289.5,190.0,293.5,186.5,297.5,183.5,301.5,180.0,305.5,177.5,309.5,175.0" stroke="black" stroke-width="2" fill="none" />
<polyline points="310.5,172.0,304.0,176.0,299.0,180.0,294.5,184.5,290.5,188.5,285.5,192.5,281.5,196.0,276.5,200.0,271.5,204.0,268.5,209.0,271.5,209.0,268.5,213.0,267.0,217.5,266.0,221.5,265.5,223.5,265.0,227.5,265.5,232.0,264.5,236.0,264.0,240.0" stroke="black" stroke-width="2" fill="none" />
<polyline points="263.0,237.0,263.0,233.0,263.0,229.0,263.5,225.0,263.5,224.0,259.5,223.0,254.0,228.5,250.0,233.0,246.0,238.0,241.5,243.0,237.0,247.5,233.0,253.0,229.0,258.0,224.5,264.5,220.0,271.5,216.0,279.0,214.0,283.0,216.5,279.0,219.0,275.0,221.5,271.0,224.0,267.0,226.5,263.0,228.0,259.5,231.5,256.0,234.0,252.0,237.5,248.0,240.5,244.0,244.0,239.5,247.0,235.5,251.0,231.0,256.0,226.0,259.5,222.0,262.5,218.0,264.5,216.5,262.5,215.5,263.5,212.0,264.0,208.0,268.0,203.5,269.5,199.5,270.0,195.5,271.0,192.0,270.0,188.0,265.0,193.0,261.5,197.5,257.5,202.5,253.5,204.0" stroke="black" stroke-width="2" fill="none" />
<polyline points="252.5,203.5,256.5,199.5" stroke="black" stroke-width="2" fill="none" />
<polyline points="261.0,208.0,265.0,200.5,262.5,200.5,260.5,205.0,258.5,209.5,258.0,213.5,255.5,219.0,252.5,222.0,249.0,226.0,245.0,230.5,241.5,234.5,239.0,238.5,236.0,242.5" stroke="black" stroke-width="2" fill="none" />
<polyline points="233.5,224.0,229.5,222.0" stroke="black" stroke-width="2" fill="none" />
<polyline points="230.0,219.0,234.0,221.5" stroke="black" stroke-width="2" fill="none" />
<polyline points="229.5,228.5,225.5,220.0,228.0,215.0" stroke="black" stroke-width="2" fill="none" />
<polyline points="221.0,213.5,220.5,218.0,221.0,222.0,221.0,226.0,221.5,230.5,224.5,231.5,222.0,234.0,227.0,235.0,223.5,239.0,223.5,242.5,221.0,246.0,220.0,250.0" stroke="black" stroke-width="2" fill="none" />
<polyline points="217.0,248.0,218.5,244.5,221.0,240.0,220.5,236.0,219.0,232.0,215.5,233.0" stroke="black" stroke-width="2" fill="none" />
<polyline points="218.5,232.5,219.5,237.0" stroke="black" stroke-width="2" fill="none" />
<polyline points="215.0,238.0,215.5,242.0,215.0,246.0,213.5,250.5,214.5,252.0,215.0,255.5,216.0,256.0" stroke="black" stroke-width="2" fill="none" />
<polyline points="217.0,250.0,216.0,246.5,215.0,242.5,212.0,239.0,212.0,237.0" stroke="black" stroke-width="2" fill="none" />
<polyline points="211.5,236.5,212.5,234.5,211.0,239.0,210.0,243.5,209.5,244.5" stroke="black" stroke-width="2" fill="none" />
<polyline points="207.0,250.0,211.0,254.0,215.0,256.0" stroke="black" stroke-width="2" fill="none" />
<polyline points="212.5,255.5,209.5,250.0,206.5,248.5,208.0,244.5,209.5,240.5,210.5,236.0,212.0,232.0,210.0,237.0" stroke="black" stroke-width="2" fill="none" />
<polyline points="210.0,226.5,206.0,221.0" stroke="black" stroke-width="2" fill="none" />
<polyline points="211.5,216.5,213.5,220.0,216.0,226.5,219.0,230.0,217.5,233.5" stroke="black" stroke-width="2" fill="none" />
<polyline points="215.0,220.5,211.0,215.0" stroke="black" stroke-width="2" fill="none" />
<polyline points="217.5,216.0,217.0,220.0,218.0,224.0,216.0,226.0,219.5,230.5,224.0,229.5,229.5,234.0" stroke="black" stroke-width="2" fill="none" />
<polyline points="231.5,242.5,227.5,247.5,223.5,254.0,220.0,261.0,216.0,268.0,211.5,274.0,207.5,280.5,203.5,287.5,199.5,295.0,195.5,302.5,191.5,312.0,187.5,316.0,183.5,324.0,179.5,328.5,175.5,329.0,171.5,330.0,167.0,332.5,163.0,340.5,159.0,342.5,155.0,345.5,150.0,351.5,146.5,348.5" stroke="black" stroke-width="2" fill="none" />
<polyline points="145.0,341.0,147.0,337.0,145.0,336.5,148.5,334.5,147.0,331.0,149.0,327.0,147.0,328.5" stroke="black" stroke-width="2" fill="none" />
<polyline points="150.0,329.5,153.0,333.5,153.0,338.0" stroke="black" stroke-width="2" fill="none" />
<polyline points="149.5,340.5,148.0,344.0,148.0,348.0,146.5,352.0" stroke="black" stroke-width="2" fill="none" />
<polyline points="142.5,347.5,138.0,345.5,137.5,341.0,136.0,337.5,135.0,333.5,134.0,330.0,132.5,326.5,131.0,322.5,130.5,319.0,130.0,314.5,130.0,310.5,127.0,302.0,130.0,299.5" stroke="black" stroke-width="2" fill="none" />
<polyline points="126.5,301.0,130.5,298.5,134.5,295.5,138.5,291.5" stroke="black" stroke-width="2" fill="none" />
<polyline points="138.5,287.5,134.5,291.5,131.0,293.5,127.0,296.5" stroke="black" stroke-width="2" fill="none" />
<polyline points="133.5,297.5,134.0,301.5" stroke="black" stroke-width="2" fill="none" />
<polyline points="127.0,310.0,127.0,313.5,126.0,316.5,127.0,320.5,128.5,324.5,127.5,328.5,127.0,332.5" stroke="black" stroke-width="2" fill="none" />
<polyline points="126.0,333.5,132.5,332.5,133.5,336.5,135.0,340.0,135.0,344.0,139.0,348.5,138.0,354.5,142.5,355.5,142.5,362.0,146.5,366.5" stroke="black" stroke-width="2" fill="none" />
<polyline points="145.0,368.5,141.0,367.0" stroke="black" stroke-width="2" fill="none" />
<polyline points="143.0,363.5,146.5,367.0" stroke="black" stroke-width="2" fill="none" />
<polyline points="147.0,361.5,151.0,367.5,151.5,371.5,152.0,375.5,154.5,379.0,156.0,383.0,157.0,388.0,160.5,393.5,162.0,397.5,161.0,401.5,161.0,405.0,162.5,409.5,161.5,413.5,162.5,417.5,163.0,421.5,160.5,426.0,161.0,419.5,160.0,423.5,160.0,428.0,162.0,425.0" stroke="black" stroke-width="2" fill="none" />
<polyline points="163.5,429.0,160.5,433.0,161.5,433.5,168.5,434.5" stroke="black" stroke-width="2" fill="none" />
<polyline points="166.5,433.0,166.0,432.5,166.0,436.5,165.5,442.0,166.0,445.0,168.5,448.5,170.0,451.5,173.0,455.0,175.0,459.0,180.5,456.5,179.5,460.5,177.5,465.0" stroke="black" stroke-width="2" fill="none" />
<polyline points="173.0,461.0,169.0,454.0" stroke="black" stroke-width="2" fill="none" />
<polyline points="168.5,456.0,171.0,459.5,170.5,464.5,169.0,468.5,166.0,469.5" stroke="black" stroke-width="2" fill="none" />
<polyline points="167.5,469.0,163.5,468.5,157.5,472.5,153.5,469.5,149.5,463.5,145.5,455.0,141.5,453.0,137.0,458.0,133.0,467.0" stroke="black" stroke-width="2" fill="none" />
<polyline points="138.0,463.5,142.0,465.5,145.5,468.0,149.5,474.0,153.5,475.0" stroke="black" stroke-width="2" fill="none" />
<polyline points="155.0,468.0,148.5,461.5" stroke="black" stroke-width="2" fill="none" />
<polyline points="149.5,462.0,153.5,467.5,156.0,467.0,157.5,473.0,160.0,476.0,158.5,475.5,164.0,476.5,166.0,472.0" stroke="black" stroke-width="2" fill="none" />
<polyline points="164.0,470.5,168.0,474.5,169.5,478.5,167.0,482.5,165.5,486.0,167.5,489.5,168.5,492.0" stroke="black" stroke-width="2" fill="none" />
<polyline points="166.0,499.0,162.0,496.5" stroke="black" stroke-width="2" fill="none" />
<polyline points="160.5,501.5,163.0,505.5,164.5,510.0" stroke="black" stroke-width="2" fill="none" />
<polyline points="169.0,509.5,166.0,505.5,165.0,505.0" stroke="black" stroke-width="2" fill="none" />
<polyline points="155.0,512.0,150.5,507.0" stroke="black" stroke-width="2" fill="none" />
<polyline points="154.0,498.0,149.5,493.0" stroke="black" stroke-width="2" fill="none" />
<polyline points="148.5,497.5,152.5,504.0" stroke="black" stroke-width="2" fill="none" />
<polyline points="152.0,510.0,148.0,500.0,144.0,494.5" stroke="black" stroke-width="2" fill="none" />
<polyline points="143.5,496.5,147.0,500.5,149.0,504.5,151.0,508.5,152.5,512.5" stroke="black" stroke-width="2" fill="none" />
<polyline points="152.5,492.0,152.0,486.5,148.5,483.0" stroke="black" stroke-width="2" fill="none" />
<polyline points="150.0,481.5,149.5,485.5,153.0,490.0,156.0,490.5,156.5,494.5,157.5,499.0,159.5,503.0,160.0,506.5,161.0,507.5,167.5,511.0" stroke="black" stroke-width="2" fill="none" />
<polyline points="157.0,506.5,153.0,503.0,148.5,496.0,147.0,491.0,143.0,482.5" stroke="black" stroke-width="2" fill="none" />
<polyline points="142.0,485.0,145.5,493.0,150.0,497.0,152.0,501.0,154.5,505.0,153.0,507.0" stroke="black" stroke-width="2" fill="none" />
<polyline points="172.5,510.5,168.5,506.5,164.5,504.0,160.5,502.5,156.5,500.0,152.0,498.0,151.0,493.5,146.5,492.0,145.0,488.0,143.0,483.5,140.0,477.0" stroke="black" stroke-width="2" fill="none" />
<polyline points="135.5,482.0,134.0,486.0,135.0,490.5,136.5,494.5,133.5,496.5,136.0,500.5,138.0,504.5,139.5,508.5,140.0,513.0" stroke="black" stroke-width="2" fill="none" />
<polyline points="142.0,512.5,143.5,508.5,141.0,504.5,140.0,500.5,138.5,497.0,133.5,492.5,133.0,486.5" stroke="black" stroke-width="2" fill="none" />
<polyline points="136.5,484.5,137.5,488.5,136.5,490.0,138.0,494.0,137.0,497.5,138.5,501.0,138.0,504.5" stroke="black" stroke-width="2" fill="none" />
<polyline points="133.5,507.5,129.5,499.5" stroke="black" stroke-width="2" fill="none" />
<polyline points="125.5,498.5,127.5,502.5,127.0,506.5,127.5,510.0" stroke="black" stroke-width="2" fill="none" />
<polyline points="130.5,510.5,126.0,505.0,122.0,497.5" stroke="black" stroke-width="2" fill="none" />
<polyline points="122.5,490.0,123.5,491.5,124.0,497.0,124.0,501.0,124.0,505.0,123.0,509.0" stroke="black" stroke-width="2" fill="none" />
<polyline points="128.0,505.5,130.5,509.5,133.5,513.5" stroke="black" stroke-width="2" fill="none" />
<polyline points="139.5,493.5,139.5,486.5,135.5,483.0" stroke="black" stroke-width="2" fill="none" />
<polyline points="141.5,485.0,144.0,489.0,145.5,493.0,147.5,497.0,150.5,501.0,152.5,504.5,153.0,508.5,155.5,512.5" stroke="black" stroke-width="2" fill="none" />
<polyline points="167.5,489.5,165.5,485.0,158.0,481.5" stroke="black" stroke-width="2" fill="none" />
<polyline points="155.5,474.5,151.5,472.0,147.0,465.0" stroke="black" stroke-width="2" fill="none" />
<polyline points="148.5,468.5,151.5,472.5,157.0,476.0" stroke="black" stroke-width="2" fill="none" />
<polyline points="156.5,465.5,152.5,463.0,148.5,458.5" stroke="black" stroke-width="2" fill="none" />
<polyline points="154.5,457.0,158.5,460.0" stroke="black" stroke-width="2" fill="none" />
<polyline points="166.0,461.5,170.5,463.0" stroke="black" stroke-width="2" fill="none" />
<polyline points="178.0,461.0,174.0,458.0,170.0,451.0,166.0,444.0" stroke="black" stroke-width="2" fill="none" />
<polyline points="164.0,442.0,163.0,442.5,161.5,446.5,159.5,450.5,160.0,454.5,161.0,457.5,163.0,461.5" stroke="black" stroke-width="2" fill="none" />
<polyline points="164.5,456.5,163.0,457.5,163.5,453.5,164.5,449.0,161.5,450.0,161.0,448.0" stroke="black" stroke-width="2" fill="none" />
<polyline points="162.5,445.0,164.0,449.0,165.5,453.0,167.5,457.5,170.5,461.0,167.5,464.0,166.5,468.0,162.0,470.0,163.0,474.0,161.5,478.5,159.0,479.5,159.0,482.5,158.5,486.5,160.0,490.5,164.0,495.0,165.5,499.5,167.5,506.0,172.0,510.5,172.5,514.5,174.0,514.5" stroke="black" stroke-width="2" fill="none" />
<polyline points="192.5,490.5,197.0,490.0,201.0,489.0,205.5,487.5,210.0,485.5,214.0,483.0,218.0,480.5,221.5,476.0,225.5,470.5,229.5,464.5" stroke="black" stroke-width="2" fill="none" />
<polyline points="234.5,465.5,238.0,458.0" stroke="black" stroke-width="2" fill="none" />
<polyline points="210.5,487.0,216.5,483.0,220.0,479.0,223.5,475.0,226.5,471.0,229.0,466.5,231.0,462.5,233.0,458.5,233.5,455.0,234.0,451.0,235.0,447.0,236.0,443.0,236.5,439.0,236.5,435.5,236.0,431.5,236.0,427.0,236.5,423.0,235.5,419.0,234.0,414.5,232.5,410.5,231.0,406.0,231.0,404.5" stroke="black" stroke-width="2" fill="none" />
<polyline points="222.5,410.5,222.5,414.5,223.5,415.5" stroke="black" stroke-width="2" fill="none" />
<polyline points="227.5,419.0,229.0,415.5" stroke="black" stroke-width="2" fill="none" />
<polyline points="245.0,409.0,244.5,413.0,245.0,417.5,244.0,421.5,242.5,426.0,241.5,430.0,241.5,434.0,240.0,438.5,239.5,442.5,239.0,446.5,237.0,450.0,237.0,454.0,236.5,458.5,235.0,462.5,233.5,467.0,233.5,471.0,231.0,475.0,228.5,478.5,224.5,483.0,220.5,487.0,213.0,491.0" stroke="black" stroke-width="2" fill="none" />
<polyline points="198.5,494.5,194.5,497.5,198.5,494.5,202.5,494.0,206.5,493.0,210.5,492.0,215.0,490.0,219.5,488.0,224.0,484.0,228.5,480.0,232.5,473.0" stroke="black" stroke-width="2" fill="none" />
<polyline points="200.0,449.0,200.5,445.0,202.5,445.0,199.0,447.0" stroke="black" stroke-width="2" fill="none" />
<polyline points="199.0,450.5,195.0,448.5,190.5,448.0,186.5,447.5,182.0,447.0,178.0,450.0,179.0,448.0,181.0,448.5,183.5,442.5,183.0,437.5,181.0,435.5,180.0,433.5,181.5,429.5,182.0,425.5,181.0,421.5,180.0,417.5,178.0,413.5,177.0,410.0,175.0,406.0,172.5,401.5,169.0,397.5,165.5,393.5,161.0,389.0,159.0,385.0,162.5,381.0,164.0,377.0,162.5,380.0" stroke="black" stroke-width="2" fill="none" />
<polyline points="160.0,376.0,164.5,370.5,168.5,365.5,172.5,361.0,177.0,355.5,181.0,349.0,185.0,343.0,189.5,338.0,193.5,332.5,197.5,328.0,201.5,323.0" stroke="black" stroke-width="2" fill="none" />
<polyline points="198.0,318.5,202.0,316.5" stroke="black" stroke-width="2" fill="none" />
<polyline points="191.5,317.0,195.5,308.5,199.5,299.5,203.5,291.5,207.5,285.5,211.5,278.0,215.5,270.5,220.0,264.0,224.0,257.5,228.5,251.5,233.0,246.0,236.5,240.5,240.5,235.5,244.5,230.0,248.0,226.0,252.0,221.5,256.0,218.0" stroke="black" stroke-width="2" fill="none" />
<polyline points="263.0,222.0,267.0,226.5" stroke="black" stroke-width="2" fill="none" />
<polyline points="267.0,236.5,267.0,240.5" stroke="black" stroke-width="2" fill="none" />
<polyline points="273.5,243.0,268.0,244.5,262.5,248.5,257.0,253.0,252.0,257.0,247.5,261.5,244.0,265.5,240.0,270.0,236.5,274.5,233.0,278.5,229.0,282.5,225.0,286.5,221.5,291.0,218.5,295.0,216.0,298.5,213.5,303.0,211.5,306.5,208.5,310.5,206.0,314.5,205.0,318.0,202.5,322.0,199.0,326.0,196.0,330.0,193.0,333.5,189.5,337.5,186.5,341.5,183.0,345.5,180.0,349.0,178.0,353.0,175.0,357.5,172.0,361.0,168.5,365.5,165.0,369.0,162.0,373.5,159.5,377.5,157.5,383.0,161.5,389.5,165.5,392.5,169.5,398.0,173.5,403.0,178.0,411.0" stroke="black" stroke-width="2" fill="none" />
<polyline points="171.5,406.5,167.5,402.5,163.0,402.0,157.5,396.0,153.5,392.0" stroke="black" stroke-width="2" fill="none" />
<polyline points="153.0,394.5,157.0,396.5" stroke="black" stroke-width="2" fill="none" />
<polyline points="156.0,400.0,151.5,396.0,149.5,397.0" stroke="black" stroke-width="2" fill="none" />
<polyline points="149.0,401.0,145.0,398.0,142.0,396.0,138.0,402.5,131.5,400.5,127.5,400.5,124.0,399.0,120.5,394.5" stroke="black" stroke-width="2" fill="none" />
<polyline points="123.0,392.5,126.5,395.5,130.5,397.5,134.5,393.5" stroke="black" stroke-width="2" fill="none" />
<polyline points="133.5,391.0,126.0,389.0,121.5,390.5" stroke="black" stroke-width="2" fill="none" />
<polyline points="119.5,388.5,123.5,394.5,125.0,397.0,127.5,401.0" stroke="black" stroke-width="2" fill="none" />
<polyline points="127.5,403.0,123.0,399.0,119.5,395.0,119.5,390.5,121.0,387.5,121.0,383.5,120.5,380.5,122.0,376.0,121.0,375.5,122.0,372.0,121.5,373.0" stroke="black" stroke-width="2" fill="none" />
<polyline points="120.0,368.0,124.0,373.0,124.0,378.0,128.0,380.0" stroke="black" stroke-width="2" fill="none" />
<polyline points="130.0,376.0,126.0,369.0,122.0,361.0" stroke="black" stroke-width="2" fill="none" />
<polyline points="121.5,363.0,121.0,367.0,122.5,370.5,125.5,374.5,127.5,379.0,131.5,383.0,132.5,387.0,134.0,390.5,133.5,394.5,135.0,397.5" stroke="black" stroke-width="2" fill="none" />
<polyline points="139.0,400.0,140.5,404.0,143.5,408.0,148.5,412.0" stroke="black" stroke-width="2" fill="none" />
<polyline points="151.5,421.0,151.0,416.5,151.0,412.5,149.0,405.5,147.5,401.5,147.0,396.0,147.0,392.5" stroke="black" stroke-width="2" fill="none" />
<polyline points="144.0,394.5,147.0,398.5,150.0,406.0" stroke="black" stroke-width="2" fill="none" />
<polyline points="146.5,406.0,142.5,402.5" stroke="black" stroke-width="2" fill="none" />
<polyline points="140.0,402.0,144.0,406.0" stroke="black" stroke-width="2" fill="none" />
<polyline points="139.0,407.0,142.5,411.0,145.5,415.5,148.0,419.5,150.5,424.0,149.5,428.5" stroke="black" stroke-width="2" fill="none" />
<polyline points="154.5,421.0,154.5,421.0,155.0,424.5,156.5,428.5,157.0,432.5,157.0,434.5,156.5,438.5,156.0,440.5" stroke="black" stroke-width="2" fill="none" />
<polyline points="162.5,443.0,166.5,439.0,170.0,443.5,174.0,444.0,178.0,439.5,182.0,439.0,182.0,434.0" stroke="black" stroke-width="2" fill="none" />
<polyline points="179.0,440.0,175.0,444.5,179.0,444.0,183.0,445.0,187.0,441.0" stroke="black" stroke-width="2" fill="none" />
<polyline points="178.5,445.0,175.0,444.0" stroke="black" stroke-width="2" fill="none" />
<polyline points="174.5,444.5,174.5,448.5,175.5,453.0,175.5,457.0" stroke="black" stroke-width="2" fill="none" />
<polyline points="175.0,435.5,171.0,435.5,166.5,429.0" stroke="black" stroke-width="2" fill="none" />
<polyline points="167.0,426.0,168.5,430.0,170.5,433.5,169.5,437.0,169.5,438.0,174.0,437.5" stroke="black" stroke-width="2" fill="none" />
<polyline points="178.0,424.5,177.0,421.0,175.0,417.5,176.0,414.0,173.0,413.5,170.0,409.5,167.0,405.5,163.5,401.5,164.0,398.0,165.5,401.5" stroke="black" stroke-width="2" fill="none" />
<polyline points="167.5,403.0,171.5,407.0,173.5,411.5,171.0,416.0,168.5,419.5,167.0,423.5,164.0,423.5,162.5,428.0,162.5,433.0,158.0,436.0,162.0,430.5,165.5,426.0,168.5,424.0,171.5,428.0" stroke="black" stroke-width="2" fill="none" />
<polyline points="171.0,427.5,169.5,423.5,166.5,417.5,169.0,413.5,167.5,409.5,165.5,405.5,161.5,405.5" stroke="black" stroke-width="2" fill="none" />
<polyline points="162.5,409.0,165.0,413.0,168.0,419.0" stroke="black" stroke-width="2" fill="none" />
<polyline points="166.0,417.0,162.0,411.0" stroke="black" stroke-width="2" fill="none" />
<polyline points="172.0,416.5,173.5,420.5,176.0,424.5,176.5,428.0,176.5,432.0,175.0,435.5,172.0,438.0,172.5,439.5,173.0,445.0,174.0,449.5,174.5,453.5,177.5,456.5,174.5,462.0,175.0,466.0,171.0,464.5,174.5,467.5" stroke="black" stroke-width="2" fill="none" />
<polyline points="171.0,461.0,167.0,455.5,163.0,453.5,162.5,449.5,158.5,451.5,155.5,449.5,155.5,451.0,156.0,447.0,153.5,442.5,154.0,438.0,149.5,437.5,147.5,434.0,146.5,430.5,149.0,427.5,144.0,423.5,138.5,421.5" stroke="black" stroke-width="2" fill="none" />
<polyline points="140.0,422.5,144.0,430.0,150.5,439.5" stroke="black" stroke-width="2" fill="none" />
<polyline points="153.5,447.0,148.5,442.5,145.5,437.5,138.5,428.0,134.5,423.5,131.0,420.0" stroke="black" stroke-width="2" fill="none" />
<polyline points="132.5,420.5,135.0,424.5,135.5,428.5,137.0,432.5,138.0,436.5,141.0,442.5,141.5,446.5,140.5,450.5,139.0,454.5,136.5,458.0,134.5,462.0,133.0,466.0,134.0,457.0" stroke="black" stroke-width="2" fill="none" />
<polyline points="140.0,452.0,142.0,456.0,142.5,460.0,142.5,464.0,145.0,467.5,146.5,471.5,150.5,475.5,155.0,479.0" stroke="black" stroke-width="2" fill="none" />
<polyline points="167.5,479.5,165.0,483.0,167.0,481.0,169.5,482.0" stroke="black" stroke-width="2" fill="none" />
<polyline points="150.0,454.0,146.5,450.0" stroke="black" stroke-width="2" fill="none" />
<polyline points="145.0,449.0,148.5,453.0,152.5,454.0,153.0,458.5,154.0,455.0,158.0,455.5,164.0,454.5" stroke="black" stroke-width="2" fill="none" />
<polyline points="156.0,452.5,152.5,451.0,148.5,450.5,144.5,448.5" stroke="black" stroke-width="2" fill="none" />
<polyline points="144.0,448.0,145.0,452.0,148.0,456.0,149.5,460.5,151.0,464.5,151.0,467.5,155.5,470.0,158.0,474.5,157.5,478.5,161.5,480.5,165.5,478.0,170.0,478.0" stroke="black" stroke-width="2" fill="none" />
<polyline points="160.0,462.0,154.5,457.5,155.5,455.5,154.5,451.5,153.5,447.5,150.5,444.0,146.0,440.0,145.5,436.0,145.5,432.0,143.0,428.0,141.0,423.5,138.5,423.0,134.0,418.5,130.0,414.0" stroke="black" stroke-width="2" fill="none" />
<polyline points="127.5,414.0,131.5,419.0,132.5,423.5,133.5,427.5" stroke="black" stroke-width="2" fill="none" />
<polyline points="136.0,428.5,137.0,430.5,138.5,434.5" stroke="black" stroke-width="2" fill="none" />
<polyline points="146.0,423.5,142.5,421.0" stroke="black" stroke-width="2" fill="none" />
<polyline points="148.0,411.0,144.5,406.0,140.0,402.0" stroke="black" stroke-width="2" fill="none" />
<polyline points="138.5,408.0,142.5,412.0,146.5,417.0,150.0,423.0" stroke="black" stroke-width="2" fill="none" />
<polyline points="130.5,410.5,134.5,406.0,140.0,401.5,143.5,398.5" stroke="black" stroke-width="2" fill="none" />
<polyline points="143.5,400.5,144.5,396.5" stroke="black" stroke-width="2" fill="none" />
<polyline points="143.0,390.5,141.5,395.0,139.0,398.5,137.5,403.0,133.0,407.0,129.0,410.5,129.5,414.0,132.5,418.0,135.0,421.5,138.5,425.0,140.0,430.0,140.5,434.0,138.5,439.5,139.0,443.5,138.0,447.5,138.0,451.5,136.5,455.5,133.5,458.5,133.0,462.0,136.5,466.0,137.5,466.5,141.0,467.0,145.5,472.5,149.5,476.5,153.0,479.0,157.5,482.5,162.0,483.5,166.0,486.0,169.0,489.5" stroke="black" stroke-width="2" fill="none" />
<polyline points="167.5,500.0,165.0,493.5,162.5,494.5,158.5,488.5,157.0,483.5,153.0,482.5,155.5,484.5,153.5,479.0,148.5,475.5,143.5,471.5,140.5,468.0,139.0,464.0" stroke="black" stroke-width="2" fill="none" />
<polyline points="142.0,451.5,144.5,455.5,147.5,459.5,149.0,463.5,149.0,467.5,150.0,471.5,153.5,475.0,155.5,478.5,157.5,479.0,158.0,484.5,156.0,488.0,159.0,492.0,162.0,496.0,163.0,500.0,165.0,504.0,165.0,508.0,167.0,512.0" stroke="black" stroke-width="2" fill="none" />
<polyline points="120.0,512.0,120.0,508.5,120.0,504.0,121.0,500.0,119.5,496.0,119.5,492.0,120.0,488.0,120.0,483.5" stroke="black" stroke-width="2" fill="none" />
<polyline points="123.5,482.5,124.5,486.5,126.5,490.5,128.5,494.5,129.5,498.0,131.0,502.5,132.5,506.5,135.0,510.5" stroke="black" stroke-width="2" fill="none" />
<polyline points="109.5,510.0,110.0,506.0,111.0,502.5,111.5,498.5,113.5,494.5,113.5,490.0,114.5,488.0" stroke="black" stroke-width="2" fill="none" />
<polyline points="115.0,488.5,115.0,492.5,114.5,496.5,113.0,501.0,112.5,505.0,111.5,509.5,110.5,513.5" stroke="black" stroke-width="2" fill="none" />
<polyline points="105.0,506.5,101.0,501.5" stroke="black" stroke-width="2" fill="none" />
<polyline points="101.0,492.0,100.5,496.0,101.5,500.5,103.5,504.5,105.5,508.5,107.0,512.0" stroke="black" stroke-width="2" fill="none" />
<polyline points="105.5,512.0,103.5,507.5,101.5,503.0,99.5,498.5,99.0,494.5,98.0,490.5" stroke="black" stroke-width="2" fill="none" />
<polyline points="96.0,468.5,92.0,472.5,93.5,472.0,96.5,468.0" stroke="black" stroke-width="2" fill="none" />
<polyline points="94.0,455.5,90.0,458.5,85.5,461.0,87.0,460.0,93.0,455.5" stroke="black" stroke-width="2" fill="none" />
<polyline points="94.0,452.5,90.0,456.0,86.0,458.5,84.0,460.0,90.0,456.5,95.0,452.5" stroke="black" stroke-width="2" fill="none" />
<polyline points="110.0,446.5,109.5,442.5,108.5,440.0" stroke="black" stroke-width="2" fill="none" />
<polyline points="105.5,438.5,105.0,442.5,104.5,446.5" stroke="black" stroke-width="2" fill="none" />
<polyline points="104.0,438.5,100.0,442.0,103.0,439.5,105.0,436.0" stroke="black" stroke-width="2" fill="none" />
<polyline points="102.5,435.0,98.5,439.5,95.5,444.0,93.0,443.0,93.0,447.0,93.5,443.0,99.0,439.5,103.0,436.0,105.0,432.0,105.5,427.5,105.5,423.5,105.5,419.5,109.5,417.0,105.5,418.5" stroke="black" stroke-width="2" fill="none" />
<polyline points="109.5,417.0,110.5,420.5,109.5,424.5,109.0,429.0,108.5,433.0,107.0,437.5,106.0,441.5,107.0,448.0" stroke="black" stroke-width="2" fill="none" />
<polyline points="120.0,452.0,123.0,456.0" stroke="black" stroke-width="2" fill="none" />
<polyline points="125.0,454.0,124.0,449.5,122.0,451.0" stroke="black" stroke-width="2" fill="none" />
<polyline points="118.5,444.0,120.5,440.0" stroke="black" stroke-width="2" fill="none" />
<polyline points="120.5,437.5,120.0,443.5,118.5,442.5,119.5,438.0,120.5,433.5,121.0,429.5" stroke="black" stroke-width="2" fill="none" />
<polyline points="115.5,430.0,115.0,426.0" stroke="black" stroke-width="2" fill="none" />
<polyline points="121.5,421.5,126.0,426.5,129.5,430.0" stroke="black" stroke-width="2" fill="none" />
<polyline points="130.0,427.5,126.0,424.5,122.0,416.5" stroke="black" stroke-width="2" fill="none" />
<polyline points="121.5,416.0,122.0,420.0,124.5,424.5,128.0,428.5" stroke="black" stroke-width="2" fill="none" />
<polyline points="130.5,426.5,129.5,422.5,129.0,418.5,125.5,414.5,126.5,409.5,127.5,405.5,122.5,406.0,118.5,410.5,114.0,411.5,110.5,411.5" stroke="black" stroke-width="2" fill="none" />
<polyline points="112.0,418.5,112.5,422.5,113.0,426.5,114.0,431.0,115.0,432.5" stroke="black" stroke-width="2" fill="none" />
<polyline points="127.0,423.5,124.5,419.5,123.0,416.0" stroke="black" stroke-width="2" fill="none" />
<polyline points="126.5,411.5,130.0,407.0,134.0,402.5" stroke="black" stroke-width="2" fill="none" />
<polyline points="130.5,407.0,135.0,403.0,135.5,395.5,139.0,394.0,143.0,390.0,143.5,386.5,143.0,385.5,145.0,380.0,146.5,374.5,147.0,370.5,147.0,366.5,145.0,362.5,144.5,358.5,144.5,354.5,143.0,352.5,142.0,349.0,139.5,345.0,138.0,340.5,137.0,336.5,136.0,332.5,136.5,329.0,135.5,325.0,135.0,321.0,133.5,317.0,133.0,312.5,131.5,308.5,130.5,304.5,128.5,297.5,132.5,293.0,136.0,291.0,138.5,287.0,131.0,283.0,127.0,276.5" stroke="black" stroke-width="2" fill="none" />
<polyline points="126.5,275.5,126.5,279.5,129.0,283.5,129.5,287.5,126.5,290.0,125.5,293.5,124.0,297.5,122.5,301.5,125.0,305.5,123.5,309.5,122.5,313.0,122.5,317.0,122.0,321.0,123.0,324.5,122.5,328.5,122.5,332.5,123.5,337.5" stroke="black" stroke-width="2" fill="none" />
<polyline points="120.0,340.0,120.5,342.0,120.5,344.5" stroke="black" stroke-width="2" fill="none" />
<polyline points="116.5,344.0,117.5,348.0,118.5,351.5,118.0,355.0,117.5,359.0,117.0,363.0,115.5,367.0,114.0,370.5,115.5,374.5,115.0,379.0,114.0,382.5,115.0,387.0,115.5,390.5,115.5,395.0,118.5,399.0,121.0,402.5,120.5,407.0,115.0,411.0,110.5,413.0,113.5,411.5,118.0,410.0,121.5,405.5" stroke="black" stroke-width="2" fill="none" />
<polyline points="122.0,409.5,126.0,405.5" stroke="black" stroke-width="2" fill="none" />
<polyline points="126.5,405.0,122.5,403.0,119.0,397.0,118.0,392.0,118.5,388.0,118.0,384.0,117.5,380.5,117.5,377.0,117.5,373.5,117.5,369.0,118.5,365.0,120.0,361.0,119.5,357.0,120.0,349.5,116.0,343.5" stroke="black" stroke-width="2" fill="none" />
<polyline points="117.0,338.0,117.5,342.0,118.0,344.5,119.5,349.0,122.0,353.5,122.5,357.5,123.5,361.5,125.0,365.5,126.5,369.5,128.5,374.0,131.5,378.0,132.0,383.0,133.5,384.0,138.5,386.0,140.0,390.0" stroke="black" stroke-width="2" fill="none" />
<polyline points="153.5,385.0,149.0,382.0,150.5,379.5" stroke="black" stroke-width="2" fill="none" />
<polyline points="142.0,385.0,140.0,380.0,136.0,375.0" stroke="black" stroke-width="2" fill="none" />
<polyline points="134.0,372.0,140.5,371.0,142.0,375.5,143.0,379.5,146.0,380.0,146.5,384.5" stroke="black" stroke-width="2" fill="none" />
<polyline points="129.0,376.5,125.0,370.0,121.0,364.0" stroke="black" stroke-width="2" fill="none" />
<polyline points="121.0,365.0,123.0,368.5,125.0,372.0,127.0,376.0,129.5,381.5" stroke="black" stroke-width="2" fill="none" />
<polyline points="124.5,383.5,125.0,388.0,126.5,389.5,123.5,393.0,128.0,397.0" stroke="black" stroke-width="2" fill="none" />
<polyline points="116.0,398.5,113.5,402.5,111.5,406.5,113.0,405.5" stroke="black" stroke-width="2" fill="none" />
<polyline points="115.5,407.5,115.0,404.5,116.0,400.5" stroke="black" stroke-width="2" fill="none" />
<polyline points="105.0,393.0,106.0,396.5,108.0,400.5,108.0,404.5,106.0,408.5,99.5,413.0,101.0,413.5" stroke="black" stroke-width="2" fill="none" />
<polyline points="96.0,406.5,92.0,407.5" stroke="black" stroke-width="2" fill="none" />
<polyline points="93.5,399.5,97.5,401.5" stroke="black" stroke-width="2" fill="none" />
<polyline points="92.0,402.0,88.0,395.5" stroke="black" stroke-width="2" fill="none" />
<polyline points="84.0,386.5,89.5,383.0,88.5,387.5,89.5,391.5,90.5,396.5,92.5,401.0,94.5,402.5,96.5,405.0,98.0,409.0,100.0,408.5,104.0,407.5" stroke="black" stroke-width="2" fill="none" />
<polyline points="93.0,417.0,89.0,421.0,87.0,425.0,87.5,422.5" stroke="black" stroke-width="2" fill="none" />
<polyline points="88.0,423.0,86.0,425.0,89.5,421.0,91.0,417.0" stroke="black" stroke-width="2" fill="none" />
<polyline points="71.5,423.5,73.0,421.5,73.0,417.5,70.0,414.0" stroke="black" stroke-width="2" fill="none" />
<polyline points="69.5,412.0,73.0,402.5,72.0,406.5,70.0,411.0,68.5,415.5,67.0,419.5" stroke="black" stroke-width="2" fill="none" />
<polyline points="69.0,425.0,67.0,424.5,66.0,420.5,65.5,416.5,65.5,412.0,66.5,408.0,70.5,404.0,73.0,399.5,74.5,395.0,73.0,394.0,73.5,396.5" stroke="black" stroke-width="2" fill="none" />
<polyline points="81.0,394.5,76.5,401.5,72.0,405.5" stroke="black" stroke-width="2" fill="none" />
<polyline points="65.5,408.0,69.5,404.0,73.5,401.5,77.0,395.0,79.5,386.5" stroke="black" stroke-width="2" fill="none" />
<polyline points="81.5,386.5,79.0,390.5,78.5,394.5,77.0,399.0,74.0,403.0,73.0,407.0,73.0,411.5,73.0,415.5,71.0,416.0,70.0,418.5,70.5,422.5,68.5,426.5,70.0,426.5,69.5,431.0,71.0,432.0,69.5,436.0,68.0,439.5,68.0,443.5,68.5,447.0,68.5,451.0,68.5,455.0,68.0,459.0,68.0,463.0,67.0,467.0,65.0,470.5,64.0,474.5,63.0,478.5,63.5,482.0,64.5,485.5,65.0,489.5,66.0,493.5,65.5,497.5,62.5,502.0,62.5,506.5,62.0,511.0,63.5,511.0,66.5,507.0" stroke="black" stroke-width="2" fill="none" />
<polyline points="63.5,504.0,66.5,510.0,66.0,513.5" stroke="black" stroke-width="2" fill="none" />
<polyline points="70.0,497.5,71.0,493.0,71.5,489.0,71.5,485.0,71.5,480.5,69.5,477.5" stroke="black" stroke-width="2" fill="none" />
<polyline points="64.0,473.5,67.0,472.0,67.0,476.0,66.5,479.5,66.0,483.0,65.0,486.5,65.5,490.0,66.5,493.5" stroke="black" stroke-width="2" fill="none" />
<polyline points="71.5,465.0,71.5,461.0,72.0,457.0,72.5,455.5" stroke="black" stroke-width="2" fill="none" />
<polyline points="73.5,457.5,73.5,461.5,73.0,465.0,75.0,469.0,74.5,473.0" stroke="black" stroke-width="2" fill="none" />
<polyline points="68.0,453.5,68.0,450.0,68.0,448.0" stroke="black" stroke-width="2" fill="none" />
<polyline points="65.5,453.0,65.0,456.5,66.0,460.5,67.5,464.0,70.5,469.0,71.0,471.5,70.5,475.5,70.0,480.0,70.0,484.0" stroke="black" stroke-width="2" fill="none" />
<polyline points="31.5,492.5,29.5,498.5,30.0,503.0,33.0,506.5,33.0,510.5" stroke="black" stroke-width="2" fill="none" />
<polyline points="19.0,510.0,19.5,506.0,22.0,503.0,20.0,504.0" stroke="black" stroke-width="2" fill="none" />
<polyline points="16.5,505.5,15.5,502.0,14.5,498.0,13.5,494.0" stroke="black" stroke-width="2" fill="none" />
<polyline points="10.5,429.0,10.5,424.5,6.5,422.5" stroke="black" stroke-width="2" fill="none" />
<polyline points="5.5,420.0,8.0,424.5,9.5,428.5,10.0,433.0,10.5,437.0,10.0,441.0,10.0,444.5,11.5,446.5,11.0,449.5,11.0,453.5,11.0,457.5,13.5,460.0,11.5,464.0,13.0,468.0,13.5,471.5,12.5,475.5,12.0,478.0" stroke="black" stroke-width="2" fill="none" />
<polyline points="36.0,462.0,35.5,458.0,34.5,454.5,34.0,450.5,33.5,446.5,32.5,441.5,32.0,437.0,32.0,433.0,32.0,428.5,32.0,424.5" stroke="black" stroke-width="2" fill="none" />
<polyline points="26.5,419.5,24.5,412.5" stroke="black" stroke-width="2" fill="none" />
<polyline points="22.0,412.5,25.0,416.0,26.0,419.5,26.5,423.5,26.5,427.5,26.0,431.5,25.5,436.0,26.0,440.0,27.0,444.5,27.0,449.0,26.5,453.0,27.5,457.5,27.5,461.0,27.5,465.0,28.5,468.5,29.0,472.5,28.5,476.5,30.5,480.5,31.0,485.0,31.5,489.0,30.5,492.5,32.0,497.0,32.5,500.5,32.0,504.0" stroke="black" stroke-width="2" fill="none" />
<polyline points="69.0,436.5,66.5,437.0,66.5,433.0,66.0,433.5" stroke="black" stroke-width="2" fill="none" />
<polyline points="105.5,404.5,104.5,400.5,104.0,396.0,105.0,392.0" stroke="black" stroke-width="2" fill="none" />
<polyline points="106.0,380.0,106.5,375.5,106.5,372.0,106.5,368.0,107.5,364.0,108.5,360.0,108.5,356.0,109.0,352.0,106.5,346.0,105.5,341.5,107.0,341.5,106.5,342.5" stroke="black" stroke-width="2" fill="none" />
<polyline points="102.5,341.0,106.5,337.0,109.5,332.5,113.5,327.0,117.5,319.0" stroke="black" stroke-width="2" fill="none" />
<polyline points="117.5,323.0,118.0,327.0,119.0,331.5,119.5,335.5,121.5,339.5,122.0,340.5" stroke="black" stroke-width="2" fill="none" />
<polyline points="128.0,343.0,132.0,348.5,136.5,352.5" stroke="black" stroke-width="2" fill="none" />
<polyline points="134.0,354.5,130.0,351.0" stroke="black" stroke-width="2" fill="none" />
<polyline points="131.0,352.0,131.5,358.0,135.0,362.0,136.5,368.0" stroke="black" stroke-width="2" fill="none" />
<polyline points="135.5,362.5,131.5,358.5" stroke="black" stroke-width="2" fill="none" />
<polyline points="127.0,359.5,133.5,363.5,134.5,367.5" stroke="black" stroke-width="2" fill="none" />
<polyline points="134.0,362.5,130.0,359.5,126.0,358.0,122.5,355.5" stroke="black" stroke-width="2" fill="none" />
<polyline points="123.5,355.5,126.0,359.5,126.0,364.0,130.5,366.0,130.0,370.0,134.0,369.5,138.0,369.5,145.0,373.0" stroke="black" stroke-width="2" fill="none" />
<polyline points="147.5,361.0,150.5,365.5,150.5,366.5,150.5,370.5,151.0,374.5,151.5,379.0,151.0,382.5,150.0,383.5,154.5,387.5,159.0,390.0,162.5,394.5,168.5,397.0,172.5,401.5,176.0,409.0" stroke="black" stroke-width="2" fill="none" />
<polyline points="175.0,423.0,171.5,416.5,162.0,415.5,158.0,410.5,153.5,405.5,149.5,403.5,146.0,398.5,145.5,392.5,141.0,387.5,138.5,393.0,135.0,390.0,135.0,386.0,139.0,382.5,137.0,378.5,134.5,374.0,133.0,372.5,137.0,368.5,141.0,364.0,141.5,360.0,142.0,356.5,141.5,353.5,135.5,351.0,132.5,347.0,129.5,343.0,131.5,338.5,130.5,334.5,132.0,330.0,131.0,326.0,128.5,320.0" stroke="black" stroke-width="2" fill="none" />
<polyline points="117.5,325.0,117.0,329.0,118.0,329.5" stroke="black" stroke-width="2" fill="none" />
<polyline points="106.0,322.0,110.0,318.0,114.0,315.0,118.0,308.0,117.5,309.0,115.0,313.5,110.5,317.0,106.0,321.0,104.0,317.5,108.0,313.5,109.5,311.5,107.5,315.0,103.5,319.0,103.0,322.5,106.5,317.0,110.5,313.0,114.5,308.0" stroke="black" stroke-width="2" fill="none" />
<polyline points="119.5,309.0,117.5,313.0,115.5,317.5,113.5,321.5,111.5,325.5,108.5,329.0,105.5,333.0,101.0,337.0,97.0,341.0" stroke="black" stroke-width="2" fill="none" />
<polyline points="91.5,329.5,87.5,332.0,83.5,337.5,79.5,342.5,76.0,347.5,72.5,352.5,68.5,357.0,64.5,361.5,68.5,361.0,72.0,357.0,75.0,352.5,78.0,349.0,80.5,345.0,83.5,341.0,88.5,336.5,88.0,332.5,88.0,328.5,88.5,324.0,90.0,320.0,92.0,315.5,93.0,311.5,92.0,307.5,99.5,304.0,103.5,300.5,107.0,296.0,107.5,291.5,112.5,288.0,116.0,284.0,115.0,277.5,113.5,273.5,112.5,272.5" stroke="black" stroke-width="2" fill="none" />
<polyline points="112.0,269.0,115.5,269.5,112.0,271.5,113.5,275.5,110.5,278.0,112.5,284.5,108.5,288.5,115.5,285.5,116.0,283.5" stroke="black" stroke-width="2" fill="none" />
<polyline points="119.0,281.5,113.5,278.5,111.0,276.5,107.0,274.0,103.0,274.0,99.5,278.0,95.5,281.0,99.5,278.5,103.5,274.5,110.5,272.5,110.0,268.5,109.5,265.0,111.5,261.0,113.0,259.5,109.0,264.5" stroke="black" stroke-width="2" fill="none" />
<polyline points="114.5,267.0,117.5,262.0,116.0,266.0,118.5,270.0,127.0,276.0,130.5,279.0,134.5,277.5,138.0,273.5,142.0,269.0,146.5,265.0,150.5,261.0,154.0,263.0,158.0,260.0,164.0,253.0" stroke="black" stroke-width="2" fill="none" />
<polyline points="165.0,256.0,169.5,252.0,174.0,245.5" stroke="black" stroke-width="2" fill="none" />
<polyline points="174.0,252.0,175.5,256.0,175.5,260.0,175.5,264.5" stroke="black" stroke-width="2" fill="none" />
<polyline points="179.0,261.0,181.5,265.0" stroke="black" stroke-width="2" fill="none" />
<polyline points="187.5,269.5,186.0,265.5,185.5,261.5,185.5,258.0,184.0,255.0" stroke="black" stroke-width="2" fill="none" />
<polyline points="184.0,253.0,188.0,250.5,192.5,251.5,193.5,255.5,194.0,259.5,197.5,263.5,204.0,266.5" stroke="black" stroke-width="2" fill="none" />
<polyline points="206.0,263.5,202.0,260.5,198.0,256.5" stroke="black" stroke-width="2" fill="none" />
<polyline points="192.0,249.0,196.0,252.5,196.0,260.0,200.0,265.0,204.0,266.0" stroke="black" stroke-width="2" fill="none" />
<polyline points="207.5,250.5,205.5,249.5" stroke="black" stroke-width="2" fill="none" />
<polyline points="215.0,248.5,215.5,252.5,218.5,256.0" stroke="black" stroke-width="2" fill="none" />
<polyline points="204.0,263.5,197.5,259.5,196.0,255.0,194.0,251.0,189.0,251.5" stroke="black" stroke-width="2" fill="none" />
<polyline points="185.0,243.0,189.5,242.5,193.5,239.0,197.0,234.0,194.5,238.5,190.0,242.5,186.0,245.5,185.5,251.0,183.5,255.5,184.5,259.5,184.5,263.5,185.0,267.5,185.5,271.5,187.5,274.0" stroke="black" stroke-width="2" fill="none" />
<polyline points="182.5,263.0,178.5,256.0" stroke="black" stroke-width="2" fill="none" />
<polyline points="176.5,258.0,177.0,262.0" stroke="black" stroke-width="2" fill="none" />
<polyline points="179.5,261.5,175.5,254.5" stroke="black" stroke-width="2" fill="none" />
<polyline points="170.5,256.0,174.0,250.5,171.5,254.5,170.5,258.5,170.0,262.5,169.0,266.5,168.5,270.5,168.5,274.5,166.5,278.5,168.5,279.5" stroke="black" stroke-width="2" fill="none" />
<polyline points="165.5,275.5,166.0,275.5,165.5,271.5,166.5,268.0,164.5,263.5,165.5,260.5,164.5,266.0" stroke="black" stroke-width="2" fill="none" />
<polyline points="163.0,259.5,164.0,261.0,163.0,264.5,161.0,268.5,160.5,272.5,160.0,276.0,161.0,280.0,159.5,284.5" stroke="black" stroke-width="2" fill="none" />
<polyline points="159.0,286.0,154.5,282.5" stroke="black" stroke-width="2" fill="none" />
<polyline points="153.5,282.0,157.5,287.5,161.5,290.0" stroke="black" stroke-width="2" fill="none" />
<polyline points="156.0,296.0,160.0,299.0" stroke="black" stroke-width="2" fill="none" />
<polyline points="156.0,298.5,152.0,294.5" stroke="black" stroke-width="2" fill="none" />
<polyline points="150.0,292.5,154.0,295.0,158.5,296.5,162.5,297.0,166.5,294.5,170.5,291.0,170.5,288.5" stroke="black" stroke-width="2" fill="none" />
<polyline points="171.5,293.5,175.5,292.5,178.0,291.0" stroke="black" stroke-width="2" fill="none" />
<polyline points="175.0,293.5,181.0,294.0,178.5,298.0,175.5,302.0,174.5,306.0,172.0,309.5,167.5,308.5" stroke="black" stroke-width="2" fill="none" />
<polyline points="172.0,309.5,170.0,313.5,167.0,315.5,170.0,313.0,173.5,314.0" stroke="black" stroke-width="2" fill="none" />
<polyline points="171.0,319.0,167.0,320.0,162.5,319.0" stroke="black" stroke-width="2" fill="none" />
<polyline points="162.0,315.5,160.5,311.5,160.0,311.0" stroke="black" stroke-width="2" fill="none" />
<polyline points="158.0,311.5,162.0,313.5" stroke="black" stroke-width="2" fill="none" />
<polyline points="155.0,313.5,155.0,314.5,155.5,318.5" stroke="black" stroke-width="2" fill="none" />
<polyline points="166.5,321.0,164.5,325.0,161.5,328.5,159.0,332.5,159.5,334.0,163.5,330.0" stroke="black" stroke-width="2" fill="none" />
<polyline points="165.5,332.0,167.5,333.0,166.0,336.5,165.0,339.5,170.5,336.0,174.5,333.5,178.0,331.5,181.5,331.0,178.5,335.0,176.5,339.5,173.5,343.5,170.5,347.5,167.5,351.5,165.5,355.0,162.5,359.0,161.0,362.5,161.0,366.5,165.0,366.5,168.5,361.0,166.0,364.5" stroke="black" stroke-width="2" fill="none" />
<polyline points="163.0,365.5,167.0,361.5,171.5,358.5,175.5,354.0,179.5,348.0,184.0,342.0,187.5,335.5" stroke="black" stroke-width="2" fill="none" />
<polyline points="190.0,331.5,186.0,331.0,181.0,332.5,177.0,339.0,173.0,345.0,169.0,350.0,165.0,355.5,161.0,361.0,159.5,370.5,162.0,367.0,165.0,362.5,170.0,359.0,173.5,355.0,177.0,350.5,179.5,346.5,183.0,342.5,185.5,338.0,185.0,334.0,188.5,334.0,191.0,330.0" stroke="black" stroke-width="2" fill="none" />
<polyline points="191.0,343.5,191.0,344.5,191.5,349.0,192.5,353.5" stroke="black" stroke-width="2" fill="none" />
<polyline points="194.0,355.5,193.0,351.0,192.0,347.0" stroke="black" stroke-width="2" fill="none" />
<polyline points="165.5,345.5,166.0,341.0,169.5,339.5,174.0,335.5,181.0,331.5,184.0,327.5,184.5,323.5,187.0,319.0,192.5,317.0,194.5,312.5,196.5,308.5,198.5,304.0,200.5,300.0,202.5,296.0,204.0,292.5,206.0,288.5,208.0,284.5,210.0,280.5,212.5,276.5,215.0,272.5,217.5,268.5,219.5,265.0,223.0,261.0,224.5,257.0,227.5,253.0,230.0,248.5,233.0,244.5,234.5,238.5,237.5,234.5,240.5,230.5,244.5,226.0,247.5,222.0,251.5,218.0,251.5,214.0,253.0,211.0,254.5,207.0,256.0,203.0,252.0,211.0,248.5,209.0,244.5,209.5,241.0,209.0,238.0,206.0,239.5,202.0,240.5,198.0,241.5,195.0,243.5,191.5,249.0,187.5,249.0,185.5,257.0,181.5,251.0,176.0,253.0,174.5,248.0,174.0,247.0,172.5,243.5,174.0" stroke="black" stroke-width="2" fill="none" />
<polyline points="244.5,170.5,241.0,174.5,241.0,179.0,239.0,183.0,233.5,186.0,237.5,183.5,243.0,181.0,247.0,180.5,251.0,177.5" stroke="black" stroke-width="2" fill="none" />
<polyline points="251.5,178.0,247.5,182.5,243.0,185.0,245.5,187.5,242.5,192.0,239.0,195.5,237.5,199.0,235.5,202.5,233.5,206.0,230.5,209.0,232.0,209.0,231.5,208.0,235.0,207.0" stroke="black" stroke-width="2" fill="none" />
<polyline points="235.5,207.0,235.5,203.0,237.5,199.0,234.5,200.5" stroke="black" stroke-width="2" fill="none" />
<polyline points="237.0,203.0,236.5,207.0" stroke="black" stroke-width="2" fill="none" />
<polyline points="241.5,212.0,246.0,212.5,250.0,212.5" stroke="black" stroke-width="2" fill="none" />
<polyline points="262.0,211.5,265.5,207.0" stroke="black" stroke-width="2" fill="none" />
<polyline points="267.0,214.5,267.0,213.0,271.5,208.5,276.0,205.0,280.0,201.0,284.5,196.5,288.5,193.0,293.0,189.5,297.0,186.5,301.0,183.0,305.5,181.0,309.5,178.5" stroke="black" stroke-width="2" fill="none" />
<polyline points="313.0,174.5,309.5,178.0,302.5,181.5,298.0,185.5,292.0,189.5,287.5,193.0,283.0,197.0,278.0,201.5,273.5,206.0,272.0,210.0,271.5,214.5,268.0,216.0" stroke="black" stroke-width="2" fill="none" />
<polyline points="268.5,189.5,264.5,191.0,260.5,194.5,258.0,201.0,261.5,197.0,265.0,192.5,267.5,188.5" stroke="black" stroke-width="2" fill="none" />
<polyline points="268.0,187.5,262.5,191.0,257.5,195.0,254.5,199.0,250.5,203.0,251.5,199.5,255.5,194.5,259.0,190.5,263.0,187.5,266.5,185.0" stroke="black" stroke-width="2" fill="none" />
<polyline points="268.0,184.0,261.0,188.0,257.5,189.0,261.0,185.5,265.0,183.0" stroke="black" stroke-width="2" fill="none" />
<polyline points="267.5,181.0,263.5,184.5,258.0,188.5,254.5,191.0,254.0,195.0,250.0,199.0,247.5,203.0,247.0,203.5,251.0,204.0,251.0,200.5,255.5,196.5,259.0,192.5,263.0,189.5,267.0,187.0,271.0,189.0" stroke="black" stroke-width="2" fill="none" />
<polyline points="265.5,189.5,261.0,193.5,258.5,197.5,254.0,200.5,253.5,205.5,253.0,209.5,254.5,215.0,255.0,217.5" stroke="black" stroke-width="2" fill="none" />
<polyline points="244.0,200.0,248.0,194.5,252.5,191.0,256.0,189.0,249.5,188.5,246.0,192.5,243.0,193.5,248.0,189.0,251.5,187.5,255.5,183.0,256.5,186.5,260.0,183.5,264.0,181.0,268.0,180.0" stroke="black" stroke-width="2" fill="none" />
<polyline points="267.0,180.0,261.5,183.5,256.5,187.5,252.0,190.5,247.0,194.0,244.0,197.5,242.5,198.5,243.0,192.5,245.5,191.0,249.5,185.5,249.5,182.5,254.0,181.0,257.5,179.5,261.5,180.0" stroke="black" stroke-width="2" fill="none" />
<polyline points="266.0,174.5,270.0,176.0,274.5,176.0,278.5,178.0,282.0,175.5,284.5,176.0,292.0,177.5,293.5,182.0,289.0,186.0,284.5,188.5,280.0,192.5,275.0,196.5,271.0,200.5,272.5,196.0,270.0,199.0,270.5,201.5,275.0,197.5,279.0,194.5,283.0,190.5,287.0,186.5,292.0,183.0,295.5,180.0,299.5,177.0,303.5,174.0,307.5,171.0,311.5,169.0,316.0,166.5,320.0,164.0,324.0,162.0,328.0,159.5,332.0,157.0,336.0,154.5" stroke="black" stroke-width="2" fill="none" />
<polyline points="339.0,152.5,332.0,156.5,325.5,160.5,318.0,164.5,312.0,168.5,306.0,173.0,300.0,176.5,295.0,180.5" stroke="black" stroke-width="2" fill="none" />
<polyline points="289.5,177.0,286.0,176.0" stroke="black" stroke-width="2" fill="none" />
<polyline points="281.5,175.5,285.5,175.0,289.5,175.0,293.5,179.0" stroke="black" stroke-width="2" fill="none" />
<polyline points="287.0,180.5,283.0,178.5,279.0,176.5" stroke="black" stroke-width="2" fill="none" />
<polyline points="275.5,176.5,275.5,180.5" stroke="black" stroke-width="2" fill="none" />
<polyline points="278.5,180.0,275.0,179.5,271.5,179.5,267.5,178.0,263.5,176.5,259.5,175.5,255.5,175.0,251.5,170.5,248.0,170.0,244.0,168.0" stroke="black" stroke-width="2" fill="none" />
<polyline points="249.5,173.5,253.0,177.5,256.5,179.0" stroke="black" stroke-width="2" fill="none" />
<polyline points="259.0,165.5,267.0,162.5,263.0,164.5,259.5,166.5,255.5,165.5,251.5,162.5" stroke="black" stroke-width="2" fill="none" />
<polyline points="251.5,161.5,256.5,165.5" stroke="black" stroke-width="2" fill="none" />
<polyline points="271.0,182.5,272.0,186.5,272.5,190.5,271.5,194.5" stroke="black" stroke-width="2" fill="none" />
<polyline points="243.0,190.0,239.0,194.5" stroke="black" stroke-width="2" fill="none" />
<polyline points="231.5,191.5,228.0,192.5,224.0,195.0,220.0,198.0,216.5,203.0,212.5,205.5,208.5,211.5,208.0,211.5,209.5,207.0,214.0,203.0,220.0,196.5,226.5,193.0" stroke="black" stroke-width="2" fill="none" />
<polyline points="225.5,186.0,223.0,185.5,219.5,190.5" stroke="black" stroke-width="2" fill="none" />
<polyline points="216.0,187.0,220.5,183.0" stroke="black" stroke-width="2" fill="none" />
<polyline points="226.5,183.5,222.5,184.0,219.5,187.5,218.5,192.0,210.5,195.5,214.5,194.0" stroke="black" stroke-width="2" fill="none" />
<polyline points="207.0,191.5,211.0,186.5,215.0,182.5,218.0,178.5,222.0,175.5,225.5,175.0,230.0,175.0" stroke="black" stroke-width="2" fill="none" />
<polyline points="235.0,178.0,237.5,177.0,239.0,173.0,236.0,175.0,232.0,174.0,228.0,173.5,224.0,173.0,220.5,174.0,216.5,176.5,213.0,181.0,209.0,185.5,205.0,190.0" stroke="black" stroke-width="2" fill="none" />
<polyline points="199.5,202.5,195.5,202.5" stroke="black" stroke-width="2" fill="none" />
<polyline points="192.5,199.5,196.5,200.5,200.5,202.5" stroke="black" stroke-width="2" fill="none" />
<polyline points="203.0,207.5,207.0,203.5,211.5,201.5,214.0,198.0,218.0,195.0,222.5,193.0,226.5,191.5" stroke="black" stroke-width="2" fill="none" />
<polyline points="233.0,183.0,229.0,187.0,229.0,188.5,222.5,193.5,216.5,197.0,210.0,204.0,205.0,208.0,201.5,213.0,201.5,217.0,203.0,217.5,203.5,223.0,206.5,227.0" stroke="black" stroke-width="2" fill="none" />
<polyline points="198.5,235.0,196.5,239.0,192.0,243.0,187.0,247.0,190.0,245.0,194.0,241.5,198.5,235.5" stroke="black" stroke-width="2" fill="none" />
<polyline points="193.0,240.0,190.5,235.5,189.0,231.5,189.5,227.5,190.5,223.0,193.0,218.5,192.0,219.0,187.5,227.5" stroke="black" stroke-width="2" fill="none" />
<polyline points="185.5,226.0,189.5,219.0,188.5,221.5,186.0,225.5,185.5,230.0,185.0,233.5,186.5,238.0" stroke="black" stroke-width="2" fill="none" />
<polyline points="190.5,240.0,186.5,233.0" stroke="black" stroke-width="2" fill="none" />
<polyline points="179.5,228.5,175.5,229.0,171.5,233.0,167.5,235.5,163.5,239.5" stroke="black" stroke-width="2" fill="none" />
<polyline points="170.5,239.0,169.0,243.0,168.0,247.0,166.5,250.5,165.5,248.5" stroke="black" stroke-width="2" fill="none" />
<polyline points="157.0,250.5,156.0,254.5,151.5,253.0,155.5,254.0" stroke="black" stroke-width="2" fill="none" />
<polyline points="152.5,250.5,156.5,249.5,160.5,245.0,164.0,245.0,162.0,249.0,159.5,253.0,156.0,256.5,151.5,263.0,145.5,267.0,141.5,271.0,144.5,274.0,140.0,277.5,138.0,281.5,131.5,281.0,135.5,281.5,139.0,282.0,142.0,283.5,141.0,287.0,139.5,291.0,135.5,295.0,134.0,299.0,131.0,300.0,132.5,304.0,134.0,308.0,135.0,312.0,136.0,316.5,137.0,320.5,138.5,325.0,139.0,329.0,140.0,333.0,142.5,337.0,143.5,341.0,145.5,345.0,148.0,337.5,151.5,340.5,155.0,338.5,160.0,333.5,164.0,327.5,167.5,322.0,169.0,323.0,170.0,318.0,174.5,316.5" stroke="black" stroke-width="2" fill="none" />
<polyline points="181.0,307.5,177.0,304.5" stroke="black" stroke-width="2" fill="none" />
<polyline points="177.0,300.0,179.5,300.5,182.0,304.0,184.5,308.0,182.0,309.5,184.0,311.5" stroke="black" stroke-width="2" fill="none" />
<polyline points="183.0,305.0,179.0,299.5" stroke="black" stroke-width="2" fill="none" />
<polyline points="176.5,300.0,176.5,304.0,179.0,306.0" stroke="black" stroke-width="2" fill="none" />
<polyline points="173.0,297.0,174.0,301.0,176.0,308.0,178.0,312.0,175.5,318.5" stroke="black" stroke-width="2" fill="none" />
<polyline points="163.5,301.5,163.0,297.5,169.0,292.5,172.5,288.5,171.5,284.5,169.0,289.0,165.0,292.0,163.0,291.0,165.5,287.0,170.0,282.5,174.5,278.5,175.0,281.0,173.5,280.0,170.0,283.5,167.5,284.0,164.5,285.0,162.0,287.5,164.5,285.5,163.5,281.0,164.0,276.5,162.5,275.0,163.5,270.5,164.0,266.5,167.5,263.0,168.5,259.0,168.5,255.5,171.0,252.0,173.5,248.0,174.5,244.0,174.0,239.5,173.0,235.5,177.0,232.5,173.5,235.5" stroke="black" stroke-width="2" fill="none" />
<polyline points="176.0,232.5,175.0,236.5,175.0,241.0,176.0,243.0,175.5,247.5,175.5,251.5,176.5,256.0,179.0,260.5,181.5,265.0" stroke="black" stroke-width="2" fill="none" />
<polyline points="174.5,280.0,172.0,283.5,169.0,287.5,167.0,289.5" stroke="black" stroke-width="2" fill="none" />
<polyline points="172.0,293.5,171.5,297.5,170.5,301.5,170.5,305.0,168.0,309.5,168.0,313.5,166.5,315.5,164.0,318.5,169.5,322.0,168.0,325.0,165.5,329.0,162.0,333.0,159.0,337.0,158.0,343.0,153.0,347.0,150.5,351.0,151.5,353.0,149.5,355.5,147.0,358.0,145.5,353.0,147.5,350.5,152.0,352.5,156.0,353.0,158.5,345.0,163.0,347.0,167.0,344.5,170.5,342.0" stroke="black" stroke-width="2" fill="none" />
<polyline points="158.5,345.5,157.5,349.5,155.5,353.5,158.5,357.0,157.5,361.0,157.0,365.0,156.0,369.0,156.5,373.0,158.0,376.5,157.0,380.5,154.0,382.5,154.5,388.5,153.5,392.5,153.0,396.5,158.0,400.5,163.5,404.5,167.0,408.5,170.0,409.5" stroke="black" stroke-width="2" fill="none" />
<polyline points="166.5,396.0,168.0,400.0,171.0,401.0,174.0,404.5,176.0,408.5,177.5,413.0,179.0,417.0,179.5,421.5,180.0,425.5" stroke="black" stroke-width="2" fill="none" />
<polyline points="192.5,425.5,192.0,429.5,192.5,433.5" stroke="black" stroke-width="2" fill="none" />
<polyline points="197.5,431.0,196.5,427.0" stroke="black" stroke-width="2" fill="none" />
<polyline points="196.5,424.5,196.5,428.0,195.0,430.5,194.0,434.5" stroke="black" stroke-width="2" fill="none" />
<polyline points="193.0,403.5,193.5,400.0,194.0,396.0,193.5,392.0" stroke="black" stroke-width="2" fill="none" />
<polyline points="191.5,391.5,192.0,395.5,191.0,399.5,190.5,403.5,191.0,407.5,191.0,411.5,190.5,415.0,190.5,419.0,190.5,423.0,189.5,427.0,188.5,431.0,188.5,435.0,188.5,439.0,186.0,440.0,182.5,444.0,185.5,444.0,190.0,444.5,194.0,445.5,198.5,444.5" stroke="black" stroke-width="2" fill="none" />
<polyline points="245.5,390.0,243.5,393.5,247.5,389.5,251.5,388.5,256.0,388.5,260.0,388.5,263.5,388.5,267.0,388.0" stroke="black" stroke-width="2" fill="none" />
<polyline points="266.0,385.5,262.5,385.0,258.5,385.0,254.0,383.5,253.0,381.0" stroke="black" stroke-width="2" fill="none" />
<polyline points="269.0,354.0,273.0,354.5,277.0,356.0" stroke="black" stroke-width="2" fill="none" />
<polyline points="283.5,351.5,279.0,352.0,275.0,351.5,271.0,350.5,267.0,351.5" stroke="black" stroke-width="2" fill="none" />
<polyline points="294.5,349.0,299.0,348.0,302.5,347.5,306.5,347.5,310.5,347.5,314.5,346.0" stroke="black" stroke-width="2" fill="none" />
<polyline points="317.5,342.0,318.5,343.5,320.0,347.0" stroke="black" stroke-width="2" fill="none" />
<polyline points="319.5,347.5,315.0,350.5,311.0,350.5,307.0,352.0" stroke="black" stroke-width="2" fill="none" />
<polyline points="310.0,355.5,306.0,356.0,302.0,356.0,298.5,356.5,295.0,355.5" stroke="black" stroke-width="2" fill="none" />
<polyline points="294.0,358.5,298.5,360.0,302.0,359.0,306.0,360.0,309.5,358.0,309.5,357.5,308.0,362.0" stroke="black" stroke-width="2" fill="none" />
<polyline points="305.0,336.0,303.5,332.0,314.0,329.5,313.0,330.0,309.0,331.5,305.0,332.0" stroke="black" stroke-width="2" fill="none" />
<polyline points="307.5,328.5,303.5,327.0,300.0,326.0,296.5,324.5" stroke="black" stroke-width="2" fill="none" />
<polyline points="295.0,324.5,298.5,322.5,302.5,323.0,306.5,325.0" stroke="black" stroke-width="2" fill="none" />
<polyline points="319.5,326.0,321.5,323.5,323.0,319.5,322.5,316.0,321.5,312.0,321.0,308.0,320.5,304.0" stroke="black" stroke-width="2" fill="none" />
<polyline points="291.0,272.5,286.5,266.0" stroke="black" stroke-width="2" fill="none" />
<polyline points="287.0,266.0,288.0,269.5" stroke="black" stroke-width="2" fill="none" />
<polyline points="288.5,270.5,286.5,266.0,285.5,260.0" stroke="black" stroke-width="2" fill="none" />
<polyline points="285.0,261.0,283.0,259.0,285.5,256.5,288.0,256.0" stroke="black" stroke-width="2" fill="none" />
<polyline points="277.5,252.5,281.5,253.5,281.5,258.5,286.5,262.5,289.5,267.0,291.5,271.0" stroke="black" stroke-width="2" fill="none" />
<polyline points="285.5,278.5,281.5,278.0" stroke="black" stroke-width="2" fill="none" />
<polyline points="288.0,273.0,283.5,270.5,279.5,266.0,276.0,264.0,272.0,265.5" stroke="black" stroke-width="2" fill="none" />
<polyline points="268.5,266.5,268.5,266.5,269.5,271.0" stroke="black" stroke-width="2" fill="none" />
<polyline points="272.0,266.5,267.0,270.0,263.5,267.5" stroke="black" stroke-width="2" fill="none" />
<polyline points="264.5,266.5,263.0,268.0,264.0,269.5,268.0,271.0" stroke="black" stroke-width="2" fill="none" />
<polyline points="261.0,270.0,265.0,274.0,269.5,274.5,274.0,270.5,275.0,269.0,272.0,273.0,272.0,278.0,274.5,282.0,276.0,282.0" stroke="black" stroke-width="2" fill="none" />
<polyline points="263.5,281.0,264.5,277.0,258.5,274.5,258.5,271.5,258.0,267.5,258.0,267.0" stroke="black" stroke-width="2" fill="none" />
<polyline points="261.0,265.5,262.5,269.0,267.5,273.0,267.5,280.0" stroke="black" stroke-width="2" fill="none" />
<polyline points="260.0,272.5,256.5,275.5,252.5,272.5,248.5,270.0" stroke="black" stroke-width="2" fill="none" />
<polyline points="248.5,268.0,251.5,266.5,250.0,270.5,254.0,274.5,256.5,278.5,263.5,276.5,267.5,277.5,270.5,276.0,274.5,278.0,278.5,278.5,283.5,271.0,279.5,275.0,278.0,281.0" stroke="black" stroke-width="2" fill="none" />
<polyline points="288.5,275.5,285.5,279.0,286.5,278.0,285.5,275.5,284.5,271.5,282.5,267.5,277.5,263.0" stroke="black" stroke-width="2" fill="none" />
<polyline points="278.0,255.5,275.5,251.0,272.0,249.0,268.5,248.0,264.5,250.5" stroke="black" stroke-width="2" fill="none" />
<polyline points="270.5,253.5,267.5,257.5" stroke="black" stroke-width="2" fill="none" />
<polyline points="255.0,260.0,259.0,259.5,261.5,257.5,265.5,258.5,270.0,257.0,273.0,255.0,276.5,258.0,281.0,256.0" stroke="black" stroke-width="2" fill="none" />
<polyline points="228.0,271.0,224.0,272.0,220.5,276.5,224.0,272.5" stroke="black" stroke-width="2" fill="none" />
<polyline points="219.5,306.0,218.0,310.0,217.5,313.5,217.5,317.5,217.5,321.5,217.0,325.0,217.0,329.0,216.5,332.5,216.5,336.5,217.0,340.5,217.5,344.5,217.5,348.5,217.5,352.5,217.5,356.5" stroke="black" stroke-width="2" fill="none" />
<polyline points="222.0,368.5,221.5,364.0,220.5,360.0,220.0,356.0,219.5,352.5,219.0,348.0,223.0,343.0,222.0,339.0,221.5,333.5,221.0,329.5,220.0,325.5,220.0,321.5,219.0,318.0,219.5,314.0,219.5,310.5,219.5,306.5" stroke="black" stroke-width="2" fill="none" />
<polyline points="159.0,293.5,155.5,291.5,151.5,289.5" stroke="black" stroke-width="2" fill="none" />
<polyline points="156.5,296.5,160.5,300.5" stroke="black" stroke-width="2" fill="none" />
<polyline points="157.5,280.5,156.0,279.0,152.0,278.0" stroke="black" stroke-width="2" fill="none" />
<polyline points="150.5,277.0,152.5,279.0,155.0,280.5,156.5,284.5,163.0,290.0,167.0,285.0,171.0,284.5,172.5,284.5,176.5,284.5,176.5,286.5" stroke="black" stroke-width="2" fill="none" />
<polyline points="162.0,278.5,157.5,271.0,153.0,273.0,149.0,273.0" stroke="black" stroke-width="2" fill="none" />
<polyline points="150.0,272.5,153.5,268.0,157.5,263.0,161.5,257.0,157.5,259.0,155.0,262.5,152.0,267.0,148.0,271.0,148.5,275.0,148.0,279.0,148.5,283.0,149.5,287.0,153.0,291.0,157.5,292.0,161.5,297.0,162.5,301.0,158.0,304.0,157.0,309.5,159.0,313.0,157.0,315.5,157.5,318.0,156.5,319.5,160.5,318.0,162.5,317.5,164.5,313.0,168.5,310.5,172.5,306.5,175.0,300.0,179.0,295.0" stroke="black" stroke-width="2" fill="none" />
<polyline points="158.0,299.0,155.0,294.5,152.0,290.5,152.5,286.5,151.0,281.0,151.0,277.0,151.0,271.5,153.5,267.5,156.5,264.0,160.0,260.0,162.0,256.0,163.0,252.5,164.0,248.5,165.5,244.5,166.5,240.5,168.5,239.0,164.0,244.5,160.0,252.5,155.5,258.0,151.5,258.5,147.0,257.5,143.5,257.5,140.0,263.5,137.5,264.0,136.5,258.5,133.5,262.0,129.5,264.0,128.0,266.5,132.5,262.0,131.5,258.0,130.0,254.0,127.5,250.0,129.0,246.0,135.5,246.0,135.5,242.0,139.0,238.0,136.5,233.5,135.0,229.5,134.0,225.5,133.0,221.5,133.0,217.0,132.5,213.0,131.0,209.0,128.5,205.0,127.0,201.5,125.5,197.5,124.0,193.0,122.5,189.0,122.0,184.5,121.0,180.5,120.5,176.0,120.5,172.0,120.5,168.0,121.0,164.0,121.5,160.5,121.5,157.0,122.0,153.5,121.5,149.5,122.5,146.5,123.5,142.5,124.0,138.5,123.5,134.5,125.0,130.5,125.5,127.0,126.5,123.0,127.5,118.5,129.0,113.5,131.0,109.0,133.0,105.5,135.5,105.0,137.5,101.0,137.5,100.5,133.5,106.0" stroke="black" stroke-width="2" fill="none" />
<polyline points="126.5,122.0,131.0,112.0,135.0,104.5,135.0,109.0,134.5,113.5,134.0,117.5,132.5,122.0,131.5,125.5,132.0,129.5,131.0,133.0,130.0,137.0,127.5,141.0,128.0,145.0,129.5,145.5,128.0,150.0,129.0,152.5,129.5,155.0,126.5,159.0,130.0,156.5,128.5,149.5" stroke="black" stroke-width="2" fill="none" />
<polyline points="130.0,153.0,133.5,154.5,131.5,156.0,132.5,160.0,135.0,162.0,131.5,166.0,128.0,170.0,131.0,167.0,133.5,162.0" stroke="black" stroke-width="2" fill="none" />
<polyline points="139.5,167.5,137.5,172.0,133.5,174.5,130.0,175.0,134.0,171.0" stroke="black" stroke-width="2" fill="none" />
<polyline points="135.0,173.5,131.5,177.5,136.5,176.5,140.5,172.0,140.5,168.5" stroke="black" stroke-width="2" fill="none" />
<polyline points="142.0,170.0,139.0,174.0,135.5,178.0,133.5,178.0" stroke="black" stroke-width="2" fill="none" />
<polyline points="134.0,185.0,138.0,181.0,142.0,177.0,144.5,174.0,141.0,178.0,136.5,182.0,135.0,186.0,138.5,190.0,139.0,193.5,145.0,195.5,148.0,199.5" stroke="black" stroke-width="2" fill="none" />
<polyline points="148.0,193.5,144.0,189.0" stroke="black" stroke-width="2" fill="none" />
<polyline points="145.5,187.5,148.0,192.0,147.5,194.5" stroke="black" stroke-width="2" fill="none" />
<polyline points="151.0,190.0,147.0,184.5" stroke="black" stroke-width="2" fill="none" />
<polyline points="145.5,187.5,149.5,192.5,153.0,193.5,158.5,186.5,162.0,181.5,165.5,177.0,169.5,172.0,173.0,167.5,177.0,163.5,181.5,159.5,185.5,156.0,189.5,153.0,193.5,149.5,197.5,146.5,201.5,143.0" stroke="black" stroke-width="2" fill="none" />
<polyline points="206.0,146.0,209.5,150.0,214.5,154.0,218.0,158.5,221.0,160.5" stroke="black" stroke-width="2" fill="none" />
<polyline points="227.5,163.0,224.0,157.0,229.0,153.5,225.0,157.0,221.5,156.0,218.0,152.5" stroke="black" stroke-width="2" fill="none" />
<polyline points="217.5,152.0,221.5,156.0,227.5,162.0" stroke="black" stroke-width="2" fill="none" />
<polyline points="223.0,159.5,218.5,157.5,214.0,153.5,210.0,150.0,206.0,146.5" stroke="black" stroke-width="2" fill="none" />
<polyline points="214.0,141.0,218.0,144.5,222.0,148.5" stroke="black" stroke-width="2" fill="none" />
<polyline points="232.5,141.5,236.0,145.5" stroke="black" stroke-width="2" fill="none" />
<polyline points="233.5,141.5,238.0,145.5,241.5,143.0,245.5,140.0,249.5,137.0,253.5,134.5,257.5,131.0,259.5,130.0,254.0,134.0,248.5,138.0,246.0,140.5,241.0,144.0" stroke="black" stroke-width="2" fill="none" />
<polyline points="257.5,133.5,253.5,136.5,249.5,139.0,245.5,142.5,241.5,145.0,237.5,148.0,234.0,151.0,230.0,154.5,226.0,157.0,222.5,160.5,221.0,162.5,225.5,158.5,231.0,154.5,236.0,150.5,241.5,146.5,246.5,143.0,252.5,139.0,257.5,135.5,262.0,131.0" stroke="black" stroke-width="2" fill="none" />
<polyline points="281.5,145.0,285.5,143.5" stroke="black" stroke-width="2" fill="none" />
<polyline points="298.5,134.5,294.0,138.0,289.5,142.0,292.0,140.0,296.5,137.5,300.5,134.5" stroke="black" stroke-width="2" fill="none" />
<polyline points="351.0,144.5,357.5,140.5,364.5,136.5,370.5,133.0,377.0,128.5,382.5,124.5,388.0,120.5,392.5,117.0,399.0,113.0" stroke="black" stroke-width="2" fill="none" />
<polyline points="397.5,121.5,392.5,125.5,387.0,129.5,381.5,133.5,383.5,131.5,387.5,128.5,391.5,125.5,396.0,122.0" stroke="black" stroke-width="2" fill="none" />
<polyline points="396.0,121.0,392.0,124.0,388.0,127.0,384.0,130.0,380.5,133.0,385.0,129.0,390.5,125.0,395.5,121.0" stroke="black" stroke-width="2" fill="none" />
<polyline points="387.5,107.5,383.5,102.0,380.0,97.5" stroke="black" stroke-width="2" fill="none" />
<polyline points="379.5,97.5,383.0,101.5,384.5,106.0,388.5,110.0" stroke="black" stroke-width="2" fill="none" />
<polyline points="369.5,126.0,369.5,130.5,368.5,132.5" stroke="black" stroke-width="2" fill="none" />
<polyline points="395.0,154.5,391.0,160.5,387.0,167.5,383.0,174.0,381.5,177.0,384.5,173.0,387.0,169.0,389.0,165.0,391.5,161.0,394.5,157.0,397.5,152.5" stroke="black" stroke-width="2" fill="none" />
<polyline points="403.0,158.5,399.5,162.5,395.5,166.5,391.5,170.0,387.5,173.5,387.5,174.0,392.0,170.0,396.5,166.0,400.5,162.0,404.5,158.0" stroke="black" stroke-width="2" fill="none" />
<polyline points="415.0,157.5,411.0,169.0,406.5,178.0,403.0,184.0,399.5,186.5,395.5,191.5,392.0,196.0,388.0,200.0,384.0,203.5,379.5,206.5,375.0,209.5,371.0,211.5,367.5,213.5,373.0,209.0,378.5,205.0,383.5,201.0,387.5,197.0,392.0,193.0,395.5,189.0,400.5,185.0,404.5,181.0,407.0,176.5,409.5,172.5,411.0,169.0,412.5,165.0,413.0,161.0,415.0,157.5,416.5,153.5,417.5,149.5,418.5,145.5,419.0,141.5,420.0,137.5,420.5,134.0,420.5,130.5,420.0,126.0,419.0,122.0,417.5,118.0,413.5,114.0" stroke="black" stroke-width="2" fill="none" />
<polyline points="440.5,69.5,436.5,63.0,433.0,56.0,429.5,49.5,425.5,42.5,421.5,34.0,417.0,28.0,413.0,21.0,408.5,14.0,404.5,7.0" stroke="black" stroke-width="2" fill="none" />
<polyline points="513.5,74.5,510.5,78.5,507.5,82.5,504.0,86.5,499.5,90.0,495.0,95.5,491.5,99.5,487.0,104.0,483.0,108.0,481.0,112.0,477.5,116.0,475.0,120.0,472.5,124.5,469.5,128.5,468.0,132.5,464.5,136.0,462.0,140.0,460.0,144.0,456.0,149.0,454.5,153.5,452.0,158.0,449.5,162.0,447.0,166.0,444.5,169.5,442.5,173.5,441.0,178.0,438.5,182.5,436.5,187.0,435.5,191.0,433.5,195.5,431.5,199.5,429.5,203.5,429.0,207.5,427.5,211.0,426.5,215.0,423.0,218.5,422.5,222.5,420.5,226.0,419.0,230.0,418.0,233.5,416.0,237.5,414.0,242.0,412.5,246.0,413.5,249.0,411.0,253.0,409.5,257.0,409.0,261.0,407.0,265.5,406.0,269.5,404.0,273.5,401.5,277.0,401.0,281.0,401.0,285.0,400.0,289.5,398.5,294.0,397.5,298.0,396.0,302.5,395.0,306.5,393.0,310.5,391.5,314.0,390.5,318.0,390.0,321.5,388.5,325.5,387.5,329.5,387.0,333.5,386.5,337.5,386.5,341.0" stroke="black" stroke-width="2" fill="none" />
<polyline points="165.5,358.5,162.0,362.0,165.0,359.0" stroke="black" stroke-width="2" fill="none" />
<polyline points="142.0,339.0,140.0,341.5,139.0,337.5,138.5,330.5" stroke="black" stroke-width="2" fill="none" />
<polyline points="140.0,344.0,135.5,339.5,130.5,342.0" stroke="black" stroke-width="2" fill="none" />
<polyline points="129.0,341.5,133.0,347.0,137.5,351.0" stroke="black" stroke-width="2" fill="none" />
<polyline points="113.5,361.5,112.0,357.5,111.0,353.5" stroke="black" stroke-width="2" fill="none" />
<polyline points="109.5,353.0,110.5,357.0,111.5,361.5,110.5,362.5,110.5,362.0,113.0,368.0" stroke="black" stroke-width="2" fill="none" />
<polyline points="112.0,367.0,109.0,363.0,109.0,359.0" stroke="black" stroke-width="2" fill="none" />
<polyline points="106.5,354.0,106.5,358.0,105.0,361.5,104.0,365.5,103.5,369.5,103.0,373.0,103.0,377.0,103.5,381.5" stroke="black" stroke-width="2" fill="none" />
<polyline points="82.0,387.0,81.5,391.0,80.0,396.5,78.5,400.5,76.0,404.5,74.0,408.0,74.0,412.5" stroke="black" stroke-width="2" fill="none" />
<polyline points="79.0,383.0,75.0,390.0,71.5,393.5,67.5,396.5,64.0,399.5,60.0,401.5,62.5,397.5,66.5,393.0,71.5,388.5,76.0,384.5,78.5,380.5,78.0,380.5,73.5,386.0,69.5,389.5,65.0,393.5,61.0,397.0,57.5,401.5,63.5,398.0,68.5,394.0,72.5,390.0,75.5,385.5,78.5,382.0,81.5,378.0,81.0,374.0,82.0,369.0,85.5,365.0,87.5,361.0,89.0,357.5,87.0,356.5,91.5,355.5,94.5,351.5,96.5,347.5,99.0,347.5,94.5,342.5,92.0,348.5,93.0,344.0,95.0,340.0,96.0,336.5,95.5,332.5,95.5,328.5,95.5,324.5,96.0,320.0,97.0,315.5,97.5,312.0,102.0,308.0,105.0,304.5,108.0,303.0,105.5,304.0,101.5,309.5,97.5,313.5" stroke="black" stroke-width="2" fill="none" />
<polyline points="99.5,321.5,103.5,313.5,107.5,308.0,111.5,303.5,115.0,300.0,119.0,295.5" stroke="black" stroke-width="2" fill="none" />
<polyline points="120.5,304.5,117.0,305.0,115.0,309.0,111.5,313.0,107.5,317.0,104.5,321.5,100.5,327.0" stroke="black" stroke-width="2" fill="none" />
<polyline points="87.5,324.0,92.0,324.5,90.0,328.0,93.0,327.0,91.0,331.0,86.0,336.0,82.5,340.0,79.0,344.0,76.0,348.0,73.0,352.5,69.5,356.5,65.5,360.5,63.0,361.5,63.0,365.0,66.5,362.5,70.5,358.5,74.5,354.0,78.5,347.5,82.5,342.5,87.0,338.0,90.5,338.5,90.0,342.5,89.5,347.0,88.5,351.0,85.0,355.0,82.5,359.0,80.0,363.0,78.0,367.0,78.0,371.0,83.0,374.0,83.5,369.5,87.5,361.0,91.5,354.0,95.5,348.0" stroke="black" stroke-width="2" fill="none" />
<polyline points="96.5,351.0,92.5,357.0" stroke="black" stroke-width="2" fill="none" />
<polyline points="96.5,355.5,96.5,359.5,95.5,364.0,94.0,367.5,92.5,371.5,92.0,375.5,88.5,379.5,87.5,384.0,86.5,387.0,87.5,391.0,87.5,395.0,89.5,399.0,93.0,403.0,90.5,406.0,91.0,407.0,95.0,409.0,99.5,409.5,103.0,409.5,107.0,406.0,113.0,400.0" stroke="black" stroke-width="2" fill="none" />
<polyline points="77.0,367.0,81.0,361.0,85.0,354.5" stroke="black" stroke-width="2" fill="none" />
<polyline points="76.0,365.5,80.0,358.5,84.0,351.5,86.0,349.0,82.0,352.5,80.0,356.5,78.5,360.5,76.0,364.5,76.0,369.0,76.0,372.5" stroke="black" stroke-width="2" fill="none" />
<polyline points="22.5,368.5,21.0,375.0,22.0,371.0,22.5,367.0" stroke="black" stroke-width="2" fill="none" />
<polyline points="80.0,316.5,76.0,318.0,72.0,320.5,69.0,322.0,75.5,317.5,78.5,313.5,75.0,310.0,75.0,306.0,75.0,306.0" stroke="black" stroke-width="2" fill="none" />
<polyline points="77.0,306.5,77.0,310.0,79.0,311.5,83.0,308.5,87.0,306.5,91.0,303.5" stroke="black" stroke-width="2" fill="none" />
<polyline points="89.0,307.5,83.0,311.0,86.5,308.5,90.5,307.5,96.0,305.5,100.0,303.5,104.0,300.0" stroke="black" stroke-width="2" fill="none" />
<polyline points="107.5,302.5,105.5,306.5,102.5,310.5,101.0,314.5,99.0,318.5,98.0,320.0,102.0,311.0,106.0,305.5" stroke="black" stroke-width="2" fill="none" />
<polyline points="107.0,295.5,102.5,297.0,99.0,298.0,93.5,295.5,90.0,297.0,86.0,297.0,82.5,299.0,88.5,296.0" stroke="black" stroke-width="2" fill="none" />
<polyline points="86.5,294.0,80.0,298.0,83.0,295.5,87.0,293.5,91.0,292.5,95.0,293.0,99.0,290.5,103.0,290.5,107.0,289.0,111.0,286.5" stroke="black" stroke-width="2" fill="none" />
<polyline points="111.0,290.0,107.0,291.5,103.0,292.0,99.0,294.0,104.0,291.0" stroke="black" stroke-width="2" fill="none" />
<polyline points="106.0,294.5,100.0,299.0,98.0,303.0,91.0,305.5,95.0,303.0,98.5,302.5" stroke="black" stroke-width="2" fill="none" />
<polyline points="102.5,289.5,105.5,286.5" stroke="black" stroke-width="2" fill="none" />
<polyline points="111.5,280.5,108.0,283.0,104.5,284.5,100.5,287.0,96.0,288.0,92.0,283.5" stroke="black" stroke-width="2" fill="none" />
<polyline points="91.5,286.0,90.0,282.0,90.5,278.0" stroke="black" stroke-width="2" fill="none" />
<polyline points="91.0,277.5,95.0,275.5,99.0,273.5,103.0,271.5,107.0,268.5,101.0,272.5,93.5,276.0,93.0,280.0,94.0,284.5,95.5,286.0,99.5,283.5,104.0,282.0,100.5,281.5,104.5,280.5,109.0,278.5,114.0,280.5,118.0,277.5,121.5,275.0,125.0,272.0" stroke="black" stroke-width="2" fill="none" />
<polyline points="123.0,271.5,119.0,269.5,115.0,267.5" stroke="black" stroke-width="2" fill="none" />
<polyline points="128.5,264.5,128.0,268.5,123.5,272.5,117.5,276.5,110.0,281.0,101.0,285.0,99.0,290.0,94.0,298.0,92.5,302.0,88.0,306.5,80.5,311.0,82.5,316.0,78.0,320.0,71.0,323.0,75.0,321.5,79.0,318.5,83.0,315.0,87.0,315.5" stroke="black" stroke-width="2" fill="none" />
<polyline points="77.5,313.0,73.5,308.5" stroke="black" stroke-width="2" fill="none" />
<polyline points="119.5,310.5,118.0,314.5,116.5,319.0,114.5,323.0,112.0,326.5,110.5,331.0,106.5,335.0,103.5,338.5,100.0,343.0,99.0,347.5,99.5,351.5,95.5,352.5,92.0,356.5,93.5,359.5,92.0,363.0,91.5,367.0,90.5,370.5,91.5,377.5,91.5,381.5,93.5,385.5" stroke="black" stroke-width="2" fill="none" />
<polyline points="123.0,285.0,124.0,289.0,122.0,293.0,120.0,297.0,117.5,301.0,113.0,305.5,108.5,309.5,106.0,313.0,109.0,309.5,113.0,306.0,116.5,302.5,120.5,298.0,125.5,295.5,129.5,292.5,133.5,286.5,137.5,286.5,141.5,284.5" stroke="black" stroke-width="2" fill="none" />
<polyline points="138.5,275.0,142.0,274.0,148.0,270.0,152.0,266.0" stroke="black" stroke-width="2" fill="none" />
<polyline points="148.0,264.5,143.5,267.5,139.5,269.5" stroke="black" stroke-width="2" fill="none" />
<polyline points="135.0,269.0,137.0,264.5,133.5,262.5" stroke="black" stroke-width="2" fill="none" />
<polyline points="132.5,255.0,136.5,255.5" stroke="black" stroke-width="2" fill="none" />
<polyline points="144.5,251.0,148.5,248.0,147.5,248.0,144.5,252.0,146.5,254.0,147.5,258.0" stroke="black" stroke-width="2" fill="none" />
<polyline points="147.0,250.5,151.0,250.0" stroke="black" stroke-width="2" fill="none" />
<polyline points="144.0,244.0,140.0,242.5,136.5,244.0" stroke="black" stroke-width="2" fill="none" />
<polyline points="141.0,240.5,137.0,233.5,133.0,223.5" stroke="black" stroke-width="2" fill="none" />
<polyline points="141.5,224.0,145.5,216.0" stroke="black" stroke-width="2" fill="none" />
<polyline points="148.5,212.5,149.5,210.5,151.5,207.0" stroke="black" stroke-width="2" fill="none" />
<polyline points="147.0,198.0,145.5,194.0,145.0,190.0,143.5,188.0,142.5,183.5,146.5,179.5,146.5,176.5,146.5,176.0,142.5,179.5" stroke="black" stroke-width="2" fill="none" />
<polyline points="142.5,184.0,147.5,185.0,149.0,189.0,151.5,190.0" stroke="black" stroke-width="2" fill="none" />
<polyline points="145.0,198.0,141.0,193.5" stroke="black" stroke-width="2" fill="none" />
<polyline points="140.0,194.0,139.0,198.0,136.5,201.5" stroke="black" stroke-width="2" fill="none" />
<polyline points="139.5,195.0,143.0,199.5,145.0,203.5,146.0,207.5,144.0,211.0,143.5,215.0,148.5,208.0,152.5,202.0" stroke="black" stroke-width="2" fill="none" />
<polyline points="136.0,190.5,140.5,189.0,144.5,186.0,145.0,180.5,148.5,180.0" stroke="black" stroke-width="2" fill="none" />
<polyline points="142.0,179.5,138.5,185.0,134.5,189.0" stroke="black" stroke-width="2" fill="none" />
<polyline points="124.5,200.0,128.5,207.5" stroke="black" stroke-width="2" fill="none" />
<polyline points="115.0,225.0,111.5,229.0,112.5,228.0,116.5,226.5" stroke="black" stroke-width="2" fill="none" />
<polyline points="116.0,227.0,112.5,231.0,114.5,229.5" stroke="black" stroke-width="2" fill="none" />
<polyline points="130.0,249.0,134.5,247.0,138.5,245.5,141.0,245.5" stroke="black" stroke-width="2" fill="none" />
<polyline points="125.0,252.5,120.0,256.0,116.5,260.0,113.0,264.0,116.5,259.0,120.5,254.5,124.0,252.5,127.5,248.0,131.5,246.5,135.5,242.0,141.5,240.0,147.5,237.0,151.5,232.0,155.5,228.5,159.5,224.5" stroke="black" stroke-width="2" fill="none" />
<polyline points="160.5,221.5,157.5,226.0,152.5,229.5,149.5,235.0,146.5,239.0,144.0,246.0,143.0,250.0,143.0,254.0,141.5,258.5,140.5,262.0,135.5,264.5,133.0,268.0,132.5,268.5,137.0,268.0" stroke="black" stroke-width="2" fill="none" />
<polyline points="141.5,276.0,137.5,277.5,133.5,279.0,129.5,279.5" stroke="black" stroke-width="2" fill="none" />
<polyline points="122.0,283.5,121.0,287.5,120.5,291.5,118.5,296.0,113.5,300.5,109.5,304.5,105.5,308.0,103.0,312.0,101.0,316.5,99.0,320.5,99.5,325.0,100.5,329.0,102.0,330.0,98.5,334.5,96.0,341.0,100.0,338.5,104.0,336.0,107.5,331.0,111.5,325.5,115.0,318.0,119.5,309.5,122.5,302.0,125.0,303.0,126.0,309.5,133.0,313.5" stroke="black" stroke-width="2" fill="none" />
<polyline points="164.0,292.0,158.0,288.0,155.0,284.0,153.5,280.0" stroke="black" stroke-width="2" fill="none" />
<polyline points="157.5,272.5,155.5,268.5" stroke="black" stroke-width="2" fill="none" />
<polyline points="166.5,232.0,163.0,236.0,160.0,240.0,160.5,239.5,164.5,233.5,166.0,229.5,170.0,229.0" stroke="black" stroke-width="2" fill="none" />
<polyline points="167.5,227.5,163.0,228.5" stroke="black" stroke-width="2" fill="none" />
<polyline points="169.0,223.0,168.5,226.5,171.5,226.5,172.0,226.0,176.0,225.0,180.0,224.0" stroke="black" stroke-width="2" fill="none" />
<polyline points="182.0,219.0,181.5,222.5,183.0,218.5,182.5,214.5,182.5,213.0" stroke="black" stroke-width="2" fill="none" />
<polyline points="181.5,213.0,181.5,217.0" stroke="black" stroke-width="2" fill="none" />
<polyline points="176.0,211.5,171.5,213.5,169.5,216.0,174.0,211.5" stroke="black" stroke-width="2" fill="none" />
<polyline points="182.0,207.5,186.0,209.5,190.0,211.5,189.5,216.0,186.5,217.5,184.0,219.5,186.0,218.5,189.5,212.0,191.0,209.5,195.0,205.0,199.0,206.0" stroke="black" stroke-width="2" fill="none" />
<polyline points="205.0,202.0,201.0,200.5,197.0,198.5,192.5,197.0,190.0,197.5,186.0,200.5,181.5,205.5,181.5,207.0,183.5,203.5,187.5,199.5,189.5,199.0" stroke="black" stroke-width="2" fill="none" />
<polyline points="184.5,206.5,189.0,205.5,193.0,204.5,200.5,203.5" stroke="black" stroke-width="2" fill="none" />
<polyline points="208.0,199.5,211.0,195.0,215.5,191.0,218.0,187.0,221.0,183.0,225.5,179.0" stroke="black" stroke-width="2" fill="none" />
<polyline points="223.0,175.0,217.5,178.5,214.0,182.0,209.5,186.0,205.5,189.5,204.5,193.5,205.0,196.0,209.0,194.5,213.5,192.0,218.0,192.5,222.0,189.5,226.0,188.5,230.5,187.0,231.5,182.5,235.5,181.5" stroke="black" stroke-width="2" fill="none" />
<polyline points="220.5,173.5,215.5,177.5,212.0,181.0,209.0,185.0,205.5,189.0,204.5,192.5,204.5,196.5" stroke="black" stroke-width="2" fill="none" />
<polyline points="200.5,167.5,197.0,170.5,193.0,174.0,189.0,177.5,184.5,180.5,180.5,184.5,176.5,188.5,172.0,193.5,168.0,197.5,164.0,202.5,164.5,202.0,167.5,198.0,171.5,194.0,175.0,190.0,179.0,186.0,183.5,182.0,188.0,178.5,192.0,174.5,197.5,170.5,204.5,167.5,203.5,163.5" stroke="black" stroke-width="2" fill="none" />
<polyline points="202.0,162.0,206.0,162.5" stroke="black" stroke-width="2" fill="none" />
<polyline points="217.0,143.5,213.0,139.5" stroke="black" stroke-width="2" fill="none" />
<polyline points="202.5,135.5,198.5,131.5" stroke="black" stroke-width="2" fill="none" />
<polyline points="198.0,132.0,202.0,135.5,203.0,139.5,201.5,141.0,205.5,138.0,210.0,135.0,214.0,132.5,218.5,129.5,223.0,127.5" stroke="black" stroke-width="2" fill="none" />
<polyline points="223.5,126.0,217.5,129.5,211.5,133.5,206.5,137.5,208.0,138.0,212.0,135.0,216.0,132.5,220.5,130.0,224.5,127.5,228.5,125.5,232.5,122.5,236.5,120.0" stroke="black" stroke-width="2" fill="none" />
<polyline points="237.5,118.5,231.5,122.5,225.5,126.5,219.5,130.5,213.5,135.0,208.0,139.0,203.5,142.5,199.0,146.5,193.5,151.0,190.0,155.0,185.0,159.0,181.0,163.0,176.5,167.0,172.5,170.5,169.0,174.5,165.5,178.0,162.0,182.0,159.0,186.0,154.0,191.5,151.5,196.0,153.0,200.0,151.5,203.5,149.0,207.5,147.0,211.0,146.5,214.5,144.0,218.0,142.5,222.0,141.5,226.5,141.0,230.5,141.5,234.5,141.5,238.5,141.0,240.5,133.5,244.0,131.0,249.5,132.5,252.5,134.0,256.5,138.5,255.5,141.5,256.5" stroke="black" stroke-width="2" fill="none" />
<polyline points="174.5,229.0,169.5,232.5,165.5,237.0,162.0,241.0,160.0,245.0,156.0,249.0,151.5,251.5,149.0,255.0,152.5,256.0,151.0,259.0,148.5,262.5,144.5,266.5,139.5,270.5,136.5,274.0,130.5,279.5,133.5,286.5,130.5,290.5,127.0,294.5,126.0,300.0,128.0,304.0,127.0,308.0,124.5,311.0,124.5,315.0,124.0,319.5,124.5,323.5,125.0,327.5,124.5,332.0,125.0,337.5,127.0,339.5,128.0,343.5,131.0,347.5,134.0,351.5,138.5,355.0,138.5,359.0,139.5,364.0,142.5,368.0,144.5,367.5,146.0,371.5,147.5,376.5,148.5,380.5,146.5,384.5,148.5,388.0,147.5,392.5,149.0,397.0,150.0,397.0,151.0,402.5,150.5,405.5,153.5,406.0,157.0,410.0,159.0,414.0,160.5,418.0,159.0,422.0,153.5,423.5" stroke="black" stroke-width="2" fill="none" />
<polyline points="139.5,175.0,135.5,179.5,134.0,181.5,138.0,178.0,140.5,174.0" stroke="black" stroke-width="2" fill="none" />
<polyline points="144.0,170.0,145.5,174.5,141.5,178.5,139.5,183.5,135.5,187.5,134.5,192.0,136.0,195.0,136.0,195.5,138.5,195.0,140.5,196.5,144.5,201.5,148.5,201.5" stroke="black" stroke-width="2" fill="none" />
<polyline points="134.0,174.5,132.5,180.5,136.0,176.5,140.0,172.5,140.0,169.5,143.5,165.0" stroke="black" stroke-width="2" fill="none" />
<polyline points="128.5,139.5,132.5,134.5,133.0,130.0" stroke="black" stroke-width="2" fill="none" />
<polyline points="154.5,129.5,151.0,132.5,148.0,135.5,152.0,132.0,157.5,127.5" stroke="black" stroke-width="2" fill="none" />
<polyline points="189.5,121.5,185.5,123.5,181.5,126.5,180.0,128.0,185.5,124.0,191.0,120.0" stroke="black" stroke-width="2" fill="none" />
<polyline points="188.0,119.5,183.5,122.0,179.5,125.0,178.5,125.5,184.0,121.0,190.0,117.0" stroke="black" stroke-width="2" fill="none" />
<polyline points="195.0,110.0,198.0,107.5" stroke="black" stroke-width="2" fill="none" />
<polyline points="204.0,116.5,200.0,118.5,196.0,121.0,199.0,119.0,206.0,115.0" stroke="black" stroke-width="2" fill="none" />
<polyline points="193.0,132.0,188.5,135.5,187.5,136.0,191.5,133.0" stroke="black" stroke-width="2" fill="none" />
<polyline points="227.5,128.5,223.5,130.5,219.5,133.5,215.0,136.5,211.0,140.0,207.0,143.0,203.0,146.5,199.0,149.5,195.0,153.0,197.5,150.0,201.5,145.5,206.0,141.5,211.5,137.0,216.5,133.0,222.5,129.0,229.0,125.0" stroke="black" stroke-width="2" fill="none" />
<polyline points="236.5,98.5,232.5,101.5,228.5,104.0,225.0,104.0,221.5,107.0,225.5,103.5,232.0,102.0,238.5,98.0" stroke="black" stroke-width="2" fill="none" />
<polyline points="236.0,97.0,231.0,100.5,234.5,98.0" stroke="black" stroke-width="2" fill="none" />
<polyline points="245.0,92.0,241.0,95.0,247.5,91.5" stroke="black" stroke-width="2" fill="none" />
<polyline points="262.0,85.5,258.0,87.0,254.0,89.5,250.5,92.5,246.5,95.0,243.0,97.5,239.0,100.5,235.5,104.0,231.5,106.5,228.0,109.0,223.5,111.5,220.0,114.5,215.5,117.0,211.5,120.0,207.5,122.5,203.5,126.0,199.5,129.5,195.5,132.5,191.5,135.5,187.5,139.0,183.0,143.0,179.0,147.0,175.5,151.0,171.5,155.0,167.5,159.0,163.5,163.5,159.5,166.5,155.5,171.5,153.0,174.5,156.0,170.5,160.0,166.5,164.5,162.5,169.0,158.5,173.0,154.5,176.5,150.0,180.5,146.0,184.5,142.0,189.0,138.5,193.5,134.5,198.0,130.5,202.0,126.5,207.0,122.0,213.5,118.0,219.0,114.0,224.5,109.5,231.0,105.0,236.0,101.0,241.5,97.5,247.0,93.5,254.0,89.5,263.0,85.5" stroke="black" stroke-width="2" fill="none" />
<polyline points="234.5,79.5,230.0,81.5,225.5,84.5,223.5,86.5,227.5,82.5,234.5,79.0" stroke="black" stroke-width="2" fill="none" />
<polyline points="232.0,50.5,235.5,48.0" stroke="black" stroke-width="2" fill="none" />
<polyline points="229.5,46.5,224.5,50.5,228.5,47.5,232.5,47.0,236.0,47.0,239.5,47.5,243.5,48.0,247.5,48.5,251.5,50.0,255.5,52.0,260.0,53.0,263.5,55.0,267.5,57.5,271.5,60.5,276.0,63.5,280.5,66.5,284.0,69.5,288.0,72.0,292.0,75.0,296.5,76.0,300.5,79.0,304.5,85.0,308.0,90.5,312.5,96.5,316.5,99.5,320.5,103.0,325.0,108.0,329.0,113.5,333.0,122.0,336.5,129.0,341.0,132.0,344.5,137.5,348.5,146.0,352.0,143.5,355.5,141.5,359.5,138.5,363.0,137.0,366.5,135.5,370.5,132.5,374.5,130.0,378.5,127.0,383.0,124.0,387.0,121.0,391.0,117.5,395.5,114.5,400.0,113.5,404.0,113.0,408.5,113.5,413.0,113.5,417.0,115.0,420.5,122.5" stroke="black" stroke-width="2" fill="none" />
<polyline points="347.5,148.0,345.0,143.5,344.0,139.5,341.5,135.0,336.5,131.5,334.0,127.5,331.5,123.5,329.0,119.5,328.0,115.5,325.5,112.0,323.5,107.5,320.0,103.5,315.5,99.5,311.0,95.5,308.5,91.5,305.0,87.5,302.5,83.5,299.5,79.5,291.5,75.5,286.5,71.5,280.5,67.5,274.5,63.5,268.0,60.0,261.5,56.0,251.0,52.0" stroke="black" stroke-width="2" fill="none" />
<polyline points="212.0,48.0,208.0,50.5" stroke="black" stroke-width="2" fill="none" />
<polyline points="174.0,60.5,170.0,62.0,166.5,61.5,162.0,64.5,161.5,69.5,162.5,65.5" stroke="black" stroke-width="2" fill="none" />
<polyline points="161.0,65.0,158.5,69.0,155.0,74.0,153.0,78.0,153.0,78.0,157.0,73.5,160.5,70.5" stroke="black" stroke-width="2" fill="none" />
<polyline points="156.0,75.5,154.5,79.5,152.5,84.0,156.0,78.0" stroke="black" stroke-width="2" fill="none" />
</svg>