<svg xmlns="http://www.w3.org/2000/svg" version="1.1"><polyline points="404.0,3.0,404.0,6.5,406.5,10.5,409.5,14.5,411.5,18.5,414.5,23.0,416.5,27.0,418.5,31.0,422.0,35.0,423.5,39.0,425.5,43.0,428.0,47.0,430.0,50.5,432.0,54.5,435.0,58.5,437.0,62.5,439.0,66.5,441.5,70.0" stroke="black" stroke-width="2" fill="none" />
<polyline points="455.5,59.5,451.0,52.0,447.5,46.0,443.5,38.5,440.0,33.5,436.0,26.0,432.0,19.5,428.5,12.5,424.5,7.0" stroke="black" stroke-width="2" fill="none" />
<polyline points="424.5,2.5,424.5,6.5,426.5,10.0,429.0,14.0,432.0,18.0,434.0,22.0,436.0,26.5,438.5,31.0,440.5,35.0,443.0,38.5,445.0,42.5,447.0,46.5,449.5,50.5,451.5,54.5,454.0,58.5,456.5,62.0,454.5,66.0,451.0,69.5,446.5,73.5,443.5,77.0,441.0,81.0,438.5,85.5,435.0,89.5,432.5,93.5,430.0,97.5,427.5,101.5,425.0,105.5,422.5,109.5,420.0,114.0,420.0,114.0,423.5,107.5,428.0,101.5,432.0,95.0,436.5,89.0,440.5,83.5,445.0,77.0,448.5,72.5,452.5,68.0,456.5,63.0,461.5,54.5,465.5,50.5,469.0,47.0,473.0,43.0,476.5,39.0,480.0,35.5,484.0,31.5,487.5,27.5,491.5,23.5,496.5,19.0,500.5,15.0,504.5,12.0,509.0,8.0" stroke="black" stroke-width="2" fill="none" />
<polyline points="514.0,6.5,507.5,10.5,503.5,14.5,498.5,19.0,495.0,22.0,490.5,26.5,486.0,30.5,482.0,35.0,477.0,39.0,473.5,42.5,469.5,46.5,465.5,50.5,461.5,54.5,458.5,58.5" stroke="black" stroke-width="2" fill="none" />
<polyline points="511.5,76.0,507.5,81.0,504.0,85.0,500.5,89.5,498.0,94.0,493.5,96.5,489.5,102.5,485.0,107.0,481.5,112.0,477.5,117.0,473.5,122.5,469.5,128.5,465.5,135.0,461.5,141.5" stroke="black" stroke-width="2" fill="none" />
<polyline points="454.0,153.5,449.5,160.5,447.0,166.0,443.0,174.0" stroke="black" stroke-width="2" fill="none" />
<polyline points="440.0,178.0,438.0,182.5" stroke="black" stroke-width="2" fill="none" />
<polyline points="432.5,194.5,428.5,202.5,426.0,210.0,425.0,215.0,421.0,219.0" stroke="black" stroke-width="2" fill="none" />
<polyline points="418.5,230.0,416.5,236.0,413.5,244.0" stroke="black" stroke-width="2" fill="none" />
<polyline points="403.0,275.0,401.5,278.5,399.0,285.5" stroke="black" stroke-width="2" fill="none" />
<polyline points="379.5,291.5,379.5,287.0,379.5,282.5,380.0,278.0,379.5,274.5" stroke="black" stroke-width="2" fill="none" />
<polyline points="374.5,276.5,375.0,280.5,376.5,283.5,376.0,287.5,376.5,292.0,378.0,296.5,378.0,300.5,379.5,304.5,380.0,308.5,380.5,312.5,381.5,316.0,382.5,320.0,383.0,324.5,382.5,328.5,381.5,332.0,382.0,336.0,382.0,339.5,382.5,343.5,382.5,347.5,383.0,351.5" stroke="black" stroke-width="2" fill="none" />
<polyline points="367.5,352.5,368.5,356.0,369.0,360.0,369.0,364.0,370.0,368.0,371.0,372.0" stroke="black" stroke-width="2" fill="none" />
<polyline points="373.5,375.5,374.5,379.5,374.5,383.5" stroke="black" stroke-width="2" fill="none" />
<polyline points="380.0,386.5,379.5,390.5,379.5,394.5,379.5,398.5,379.0,402.5" stroke="black" stroke-width="2" fill="none" />
<polyline points="362.5,433.0,358.5,424.0,354.5,417.5,350.5,412.5,346.5,408.0,342.5,404.0,338.0,401.0,334.0,398.5,330.5,397.0,326.5,395.0,323.0,393.5,319.0,392.0,315.5,390.5,311.5,389.5,309.0,390.0,305.0,390.0,301.0,389.0" stroke="black" stroke-width="2" fill="none" />
<polyline points="313.0,380.0,316.5,369.5,321.0,363.5,325.0,357.5,329.0,350.5,333.0,342.0,337.0,333.5,341.5,325.0,345.5,317.0" stroke="black" stroke-width="2" fill="none" />
<polyline points="356.5,328.5,356.5,332.5,355.5,337.0,354.5,341.0,354.5,339.0" stroke="black" stroke-width="2" fill="none" />
<polyline points="353.5,354.0,354.0,358.0,353.5,362.0,352.5,366.0,352.5,370.0,352.5,374.0,352.0,378.0,351.5,382.0,352.0,388.0,351.5,392.5,352.0,396.5,352.5,400.5,353.0,404.0,351.5,405.5,352.5,409.5,353.0,413.0" stroke="black" stroke-width="2" fill="none" />
<polyline points="359.5,385.0,359.5,381.0,359.5,377.5,361.0,372.0,360.5,368.0,360.5,364.0" stroke="black" stroke-width="2" fill="none" />
<polyline points="359.0,361.5,359.5,365.5,359.0,369.0,358.0,372.5,358.0,376.5,358.0,380.0" stroke="black" stroke-width="2" fill="none" />
<polyline points="355.0,356.0,354.5,359.5,354.5,363.5,353.5,367.5,354.0,371.5,354.0,375.5,354.5,379.0,354.5,383.0,354.5,387.0,354.5,391.0,355.0,394.5,355.0,398.5,355.5,402.5,355.5,407.0,355.5,411.0,354.5,412.5" stroke="black" stroke-width="2" fill="none" />
<polyline points="372.5,463.0,371.0,460.0,370.0,456.0,370.5,452.5,370.5,448.5,371.5,444.5,372.0,440.5,372.5,436.0,373.0,432.0,373.5,428.0,374.5,424.5,375.0,420.5,376.0,417.0,376.0,413.0,376.5,409.0,376.5,405.5,377.0,401.0,377.0,397.0,377.0,393.0,377.5,389.0,377.5,384.5,377.5,380.5,377.0,376.5,377.0,372.0,376.5,368.0,376.5,364.0,377.5,360.0,377.5,356.0,376.5,352.5,375.5,348.0,375.0,344.5,375.0,340.5,374.5,336.5,374.0,332.0,373.5,328.5,372.5,324.5,372.0,320.0,371.5,316.5,371.0,312.5,370.5,308.5,370.0,304.0,370.5,300.0,370.0,296.5,369.5,292.5,369.5,288.0,369.0,284.5,369.0,280.5,369.0,277.0,368.5,273.0,368.0,269.0,368.0,265.0,368.0,261.0,368.5,257.0,368.0,253.0,368.0,249.5,366.5,245.0,366.5,241.0,365.5,237.0,364.5,233.0,363.0,229.0,361.5,224.5,361.0,220.5,359.5,216.5,358.0,212.5,355.5,209.0,354.5,206.5,350.5,202.5,349.0,199.0,348.5,197.0" stroke="black" stroke-width="2" fill="none" />
<polyline points="347.0,199.0,345.0,203.0,348.5,207.0" stroke="black" stroke-width="2" fill="none" />
<polyline points="349.5,204.0,345.5,199.0" stroke="black" stroke-width="2" fill="none" />
<polyline points="344.0,199.0,347.0,203.0" stroke="black" stroke-width="2" fill="none" />
<polyline points="349.0,200.0,353.0,205.5,357.5,213.0" stroke="black" stroke-width="2" fill="none" />
<polyline points="369.5,219.5,372.0,213.0,371.5,217.0,370.0,221.0,369.5,225.5,369.0,230.0,369.0,233.0,369.5,237.5,370.5,241.5,371.5,245.5,372.5,249.5,373.5,253.5,375.5,258.0,374.5,262.0,376.0,265.5,377.5,269.5" stroke="black" stroke-width="2" fill="none" />
<polyline points="382.0,266.0,381.5,270.0,382.0,274.0,380.0,278.0,378.0,281.5,378.0,285.0,379.0,289.0" stroke="black" stroke-width="2" fill="none" />
<polyline points="373.5,293.0,373.0,297.0,373.0,301.5,373.0,305.5,373.5,309.5,374.0,313.5,374.5,317.0,376.5,323.0,377.0,326.5,377.0,330.5,378.5,334.5,378.0,338.0,379.0,342.0,379.5,346.5,380.0,350.5,380.5,354.5,381.0,358.5" stroke="black" stroke-width="2" fill="none" />
<polyline points="366.5,351.0,366.5,354.5,368.0,358.5,368.0,363.0,368.0,367.0,371.0,372.0,371.0,376.0,371.0,380.5,371.5,384.5" stroke="black" stroke-width="2" fill="none" />
<polyline points="384.0,349.5,384.0,345.5,384.0,342.0,385.0,337.5,384.5,333.5,384.0,329.5" stroke="black" stroke-width="2" fill="none" />
<polyline points="344.0,281.5,343.0,281.0,340.5,281.0,341.5,274.0,343.0,270.5,342.0,265.0,338.0,263.5" stroke="black" stroke-width="2" fill="none" />
<polyline points="334.5,266.0,338.0,265.5,338.0,269.5,335.0,273.5,334.0,271.5" stroke="black" stroke-width="2" fill="none" />
<polyline points="335.5,277.0,336.0,281.5" stroke="black" stroke-width="2" fill="none" />
<polyline points="336.5,280.0,340.5,281.5,344.5,280.0,348.5,279.5,349.0,283.0,349.5,286.5,349.5,290.5,349.5,295.0,349.0,299.0,347.5,303.5,347.0,307.5,343.5,311.5,346.5,313.0,345.5,317.0,343.5,321.5,342.0,325.5,340.5,329.5,338.0,333.0,336.5,337.0,334.5,340.5,333.0,344.5,331.0,348.5,328.5,352.5,326.0,357.0,323.0,361.0,320.0,365.0,318.0,369.0,316.0,373.0,314.5,377.0,313.0,381.0,313.5,385.0,311.0,389.0,317.0,392.5,326.0,396.0,334.5,400.0,340.5,404.0,345.5,408.5,350.0,413.0,354.0,417.5,356.5,422.0,359.0,426.5,361.0,430.5,363.0,434.0,364.0,437.5,364.5,441.0,365.5,445.0,366.5,448.5,367.5,452.5,368.5,456.5,369.5,460.5,371.0,464.5,372.0,468.5,373.5,472.5,374.5,476.5,375.0,481.0,376.5,485.0,377.5,489.0,379.0,492.5,380.0,496.5,381.0,500.5,382.0,504.5,383.0,508.5,383.5,512.5" stroke="black" stroke-width="2" fill="none" />
<polyline points="421.5,490.5,425.5,495.0,429.0,494.0,433.0,490.5,437.0,487.0,441.0,483.5,445.0,480.0,449.5,475.5,452.5,470.5,456.5,467.0" stroke="black" stroke-width="2" fill="none" />
<polyline points="456.5,465.5,451.0,469.5,448.5,468.5,452.5,462.0" stroke="black" stroke-width="2" fill="none" />
<polyline points="457.5,452.0,461.0,443.0" stroke="black" stroke-width="2" fill="none" />
<polyline points="466.5,430.0,470.0,423.0,474.0,416.5,477.0,407.5,481.0,404.0,484.5,399.0,489.0,397.0,493.0,393.5,494.0,390.5,498.5,388.0,502.5,387.0,506.0,385.0,510.0,383.5" stroke="black" stroke-width="2" fill="none" />
<polyline points="514.0,382.0,503.5,386.0,494.5,390.0,492.5,394.5,487.0,399.0,483.5,403.0,478.0,407.0,475.5,411.5,474.0,415.5,471.5,419.5,469.0,423.5,467.5,427.5,466.0,431.0,463.0,435.5,461.0,439.5,459.5,443.5,458.0,448.0,456.5,451.5,455.5,455.5,454.5,459.0,453.0,462.5,451.0,467.0,449.5,471.0,450.0,475.5,447.0,479.5,442.5,483.0,438.5,487.5,433.5,491.5" stroke="black" stroke-width="2" fill="none" />
<polyline points="432.5,480.5,431.5,478.0,433.0,475.5,435.0,479.0,437.0,475.0,437.5,471.0,438.5,467.0,439.5,463.0,440.5,459.0,439.0,457.5,435.0,454.5,431.0,451.0" stroke="black" stroke-width="2" fill="none" />
<polyline points="439.5,457.5,435.5,455.5,431.0,451.5,430.5,447.5,430.5,443.5,431.0,439.0,432.0,435.0,434.5,431.0,433.0,434.0" stroke="black" stroke-width="2" fill="none" />
<polyline points="428.5,467.0,424.5,472.5,421.0,476.5,417.5,472.0,416.0,468.0" stroke="black" stroke-width="2" fill="none" />
<polyline points="428.5,468.5,426.0,472.0,422.0,476.0,421.5,480.0,422.5,483.5,422.5,487.5,424.0,491.5" stroke="black" stroke-width="2" fill="none" />
<polyline points="484.5,409.0,480.5,414.5,478.5,417.0,482.5,413.5,485.5,409.5,488.5,405.5" stroke="black" stroke-width="2" fill="none" />
<polyline points="442.5,424.5,444.0,422.5,446.0,418.5,447.0,414.0,447.5,410.0,448.5,406.5,449.0,402.5,449.0,398.5,449.0,394.0,450.0,390.0,451.5,386.0,453.0,382.0,454.0,377.5,455.0,373.0,455.5,369.0,454.5,365.0" stroke="black" stroke-width="2" fill="none" />
<polyline points="364.0,311.5,363.5,307.5,363.5,303.0,363.5,299.5,364.5,295.5,364.5,291.5,365.0,287.0,365.0,283.0,365.0,279.5,365.0,275.5,365.5,271.5,366.0,267.5,366.0,263.5" stroke="black" stroke-width="2" fill="none" />
<polyline points="364.5,264.5,364.0,268.5,364.0,272.0,363.5,275.5,362.5,279.5,362.0,281.0" stroke="black" stroke-width="2" fill="none" />
<polyline points="350.0,255.5,346.0,257.5" stroke="black" stroke-width="2" fill="none" />
<polyline points="345.0,255.0,341.0,254.5,337.5,255.5,333.5,256.0" stroke="black" stroke-width="2" fill="none" />
<polyline points="336.5,253.0,329.5,257.5,327.0,262.5,322.5,266.5,319.5,270.0,318.0,273.5,317.5,274.5,321.5,277.0" stroke="black" stroke-width="2" fill="none" />
<polyline points="323.5,274.5,319.5,273.0" stroke="black" stroke-width="2" fill="none" />
<polyline points="318.5,271.5,322.5,264.5,326.0,260.5,330.0,259.0,334.0,257.5,338.0,256.5,342.0,255.5,346.0,255.5,348.5,252.0,352.5,251.5" stroke="black" stroke-width="2" fill="none" />
<polyline points="351.5,243.5,347.5,246.5,343.5,249.5,340.5,250.5,337.0,252.0,333.0,254.0,329.0,257.5" stroke="black" stroke-width="2" fill="none" />
<polyline points="327.0,267.5,331.5,269.0,335.0,269.0,329.0,270.0,326.0,270.5,328.0,272.0" stroke="black" stroke-width="2" fill="none" />
<polyline points="326.0,273.5,324.0,270.0" stroke="black" stroke-width="2" fill="none" />
<polyline points="323.0,268.0,322.0,272.5,323.0,276.5,329.5,278.5,333.0,279.5,337.0,279.0,341.0,277.5,347.5,279.0" stroke="black" stroke-width="2" fill="none" />
<polyline points="332.5,270.5,333.5,272.5,330.0,274.5,326.0,273.5,321.5,267.5" stroke="black" stroke-width="2" fill="none" />
<polyline points="291.0,273.5,287.0,267.0" stroke="black" stroke-width="2" fill="none" />
<polyline points="286.5,266.5,287.5,270.5" stroke="black" stroke-width="2" fill="none" />
<polyline points="289.5,272.0,288.0,267.5,287.0,261.5" stroke="black" stroke-width="2" fill="none" />
<polyline points="285.5,260.0,284.0,258.5,286.5,256.5,289.0,256.5" stroke="black" stroke-width="2" fill="none" />
<polyline points="290.0,252.0,296.5,255.5" stroke="black" stroke-width="2" fill="none" />
<polyline points="292.0,269.0,290.5,265.0,287.5,260.5,282.5,256.5,283.5,251.0,279.5,250.0" stroke="black" stroke-width="2" fill="none" />
<polyline points="277.5,256.5,275.0,252.0,271.0,251.0,266.5,250.5,262.0,253.0" stroke="black" stroke-width="2" fill="none" />
<polyline points="268.0,258.0,271.5,254.5" stroke="black" stroke-width="2" fill="none" />
<polyline points="279.5,256.0,275.0,257.5,271.0,255.0,268.5,256.5,264.5,258.5,260.5,257.5,258.0,259.5,254.5,259.5" stroke="black" stroke-width="2" fill="none" />
<polyline points="257.5,266.5,257.5,266.5,259.0,270.5,258.5,274.5,264.0,277.0,262.5,281.0" stroke="black" stroke-width="2" fill="none" />
<polyline points="263.0,269.0,267.0,271.5,272.0,268.0" stroke="black" stroke-width="2" fill="none" />
<polyline points="273.5,265.0,277.0,263.5,280.5,265.5,284.5,270.0,288.5,272.5" stroke="black" stroke-width="2" fill="none" />
<polyline points="285.0,277.0,280.5,276.5" stroke="black" stroke-width="2" fill="none" />
<polyline points="270.5,271.0,269.0,266.5,268.5,266.5" stroke="black" stroke-width="2" fill="none" />
<polyline points="264.0,269.0,262.5,269.5,264.0,271.0,267.5,272.5" stroke="black" stroke-width="2" fill="none" />
<polyline points="262.0,267.0,265.5,272.0,269.5,272.5,273.5,269.0,274.5,268.0,272.0,272.5,271.5,277.0,273.5,281.0,275.0,281.5" stroke="black" stroke-width="2" fill="none" />
<polyline points="278.5,279.5,280.5,274.0,284.0,270.5,279.5,277.5,275.5,277.0,271.5,275.0,268.0,276.5,264.0,276.0,256.5,277.5,254.0,273.5,250.0,269.5,251.5,266.0,249.0,267.5" stroke="black" stroke-width="2" fill="none" />
<polyline points="248.5,269.0,252.5,271.5,256.5,274.5,260.5,272.0" stroke="black" stroke-width="2" fill="none" />
<polyline points="259.0,266.0,261.0,270.0,266.0,274.0,266.5,281.0" stroke="black" stroke-width="2" fill="none" />
<polyline points="277.5,265.0,282.5,269.0,285.0,273.0,286.0,276.5,287.0,278.5,286.0,279.0,288.5,275.5" stroke="black" stroke-width="2" fill="none" />
<polyline points="299.0,256.0,295.5,253.0,291.0,250.5,286.5,250.0,282.0,249.0,278.0,248.0,274.0,245.0,268.5,244.5,264.5,246.5,260.0,249.0,256.5,252.5,252.5,256.0,248.5,259.5,244.5,263.5,240.5,267.5,237.0,272.5,233.0,277.0,229.0,281.0,225.0,286.0,221.0,291.0,217.5,296.5,213.5,301.5,209.5,308.0,205.5,313.5,200.5,319.5,196.0,320.5,192.5,319.0,190.0,316.0,192.5,312.0,194.0,307.5,196.0,304.0,198.0,300.0,200.5,296.0,202.5,292.0,205.0,288.5,206.5,284.5,208.5,281.0,211.0,277.5,213.5,274.0,215.5,270.5,218.0,266.5,220.0,262.0,222.0,258.0,225.0,254.0,227.5,250.0,230.5,246.0,233.5,241.5,231.5,237.0,230.5,233.0,229.5,229.0,228.5,225.0,225.5,221.5,223.5,218.0,222.5,215.0,220.0,212.0,220.5,207.5,223.5,203.5,227.0,199.0,224.5,202.0,220.5,206.5" stroke="black" stroke-width="2" fill="none" />
<polyline points="225.0,203.0,224.5,207.0,224.0,211.0,225.0,215.0,227.0,215.0,228.5,219.0,230.0,222.5,231.0,227.0,231.5,231.0,232.5,235.5,233.0,236.5,236.5,236.5,240.5,231.0,244.5,226.5,249.0,221.5,252.5,217.5,256.5,213.5,258.0,207.0,262.0,199.0" stroke="black" stroke-width="2" fill="none" />
<polyline points="264.5,200.0,264.0,203.5,262.0,207.0,261.0,211.0,261.0,215.0,259.5,220.5,255.5,224.5,251.5,229.0,248.0,233.0,244.5,237.5,241.0,241.5,237.5,245.0,235.0,249.0,231.0,252.5,228.0,256.5,225.5,260.0,222.0,264.5,219.5,268.5,217.0,272.5,214.0,276.0,212.0,280.5,210.0,284.5,208.5,288.0,206.5,292.0,205.0,296.5,203.0,300.5,201.5,304.5,199.5,308.5,198.0,312.5,196.0,317.0,198.5,320.5,198.0,313.0,202.0,303.0,206.5,294.5,210.5,286.0,215.0,278.0,219.0,271.0,223.0,264.5,227.0,258.0,231.5,252.5,235.5,247.5,240.0,242.5,244.0,238.0,247.5,233.0,251.5,228.5,255.5,223.5,259.5,220.0,264.0,216.0,265.0,212.5,269.5,205.5,273.5,203.0,278.0,200.0,282.0,196.5,286.0,193.0,289.5,189.5,293.0,186.0,297.0,183.0,301.5,179.5,305.0,177.0,309.0,174.5" stroke="black" stroke-width="2" fill="none" />
<polyline points="311.5,174.0,308.5,178.0,301.5,182.0,297.0,186.5,292.0,190.5,287.5,195.0,283.0,199.0,278.5,203.0,274.0,207.5,272.0,211.5,271.5,215.0,268.0,217.0" stroke="black" stroke-width="2" fill="none" />
<polyline points="267.5,214.0,267.5,212.5,272.0,208.0,276.0,204.0,280.0,200.5,284.5,196.5,288.5,193.0,292.0,189.5,296.0,186.5,300.5,183.0,304.5,181.0,308.5,178.5" stroke="black" stroke-width="2" fill="none" />
<polyline points="312.5,171.0,306.0,175.0,300.5,179.5,295.0,184.0,290.0,188.0,285.0,192.0,280.5,196.0,275.0,200.0,270.0,204.5,267.0,209.5,270.0,209.5,267.0,213.5,265.5,219.0,265.0,223.0,264.0,224.5,264.0,228.5,264.5,232.5,263.5,236.0,264.0,240.0" stroke="black" stroke-width="2" fill="none" />
<polyline points="261.0,237.5,261.5,234.0,261.5,230.0,262.0,226.0,262.0,225.5,258.0,224.0,252.5,230.0,248.5,234.5,244.5,239.0,240.5,244.5,236.0,249.0,232.5,254.5,228.5,259.5,224.5,265.5,221.0,272.0,217.0,279.5,214.5,283.5,216.5,279.5,219.0,275.5,220.5,271.0,223.0,267.0,225.5,262.5,227.5,259.0,231.0,255.5,234.5,251.5,237.5,248.0,240.5,243.5,244.0,239.0,247.0,234.5,251.0,230.0,255.5,225.0,259.5,221.0,262.5,217.5,264.5,216.0,263.0,215.0,264.0,211.0,264.5,207.0,268.0,203.0,269.5,199.0,270.0,195.5,271.0,192.0,270.0,188.0,265.0,193.5,260.5,198.5,256.5,203.0,252.0,204.5" stroke="black" stroke-width="2" fill="none" />
<polyline points="252.0,203.5,256.0,199.5" stroke="black" stroke-width="2" fill="none" />
<polyline points="261.0,207.5,265.0,200.0,262.0,200.5,259.5,205.0,257.5,209.5,257.0,213.5,254.5,218.5,251.0,222.0,248.0,226.0,244.0,229.5,240.0,233.5,238.0,237.5,234.5,241.5" stroke="black" stroke-width="2" fill="none" />
<polyline points="233.0,224.0,229.0,222.0" stroke="black" stroke-width="2" fill="none" />
<polyline points="230.0,218.0,234.0,220.5" stroke="black" stroke-width="2" fill="none" />
<polyline points="229.5,227.5,225.5,218.5,228.5,214.0" stroke="black" stroke-width="2" fill="none" />
<polyline points="221.0,213.0,220.0,217.5,220.5,221.5,221.0,225.5,222.0,229.5,225.0,230.5,222.5,233.5,228.0,234.0,225.0,238.0,225.0,241.5,222.5,245.5,221.0,249.5" stroke="black" stroke-width="2" fill="none" />
<polyline points="218.5,248.5,220.0,244.5,222.0,240.5,221.5,237.0,220.5,233.0,216.5,234.0" stroke="black" stroke-width="2" fill="none" />
<polyline points="217.5,232.5,218.5,236.5" stroke="black" stroke-width="2" fill="none" />
<polyline points="213.5,237.5,214.5,242.0,214.0,246.0,213.5,249.5,214.5,251.0,215.5,254.5,216.0,255.5" stroke="black" stroke-width="2" fill="none" />
<polyline points="216.5,250.0,216.0,246.0,215.5,242.0,212.5,238.5,212.5,236.5" stroke="black" stroke-width="2" fill="none" />
<polyline points="209.0,236.0,210.0,234.5,209.0,238.5,208.5,242.5,208.0,243.5" stroke="black" stroke-width="2" fill="none" />
<polyline points="208.5,238.0,210.5,233.0,209.0,237.0,208.0,241.0,207.5,245.0,206.5,248.5,209.5,250.0,212.5,254.5" stroke="black" stroke-width="2" fill="none" />
<polyline points="212.5,257.5,208.5,255.5,204.5,251.0" stroke="black" stroke-width="2" fill="none" />
<polyline points="204.0,251.0,206.0,252.0" stroke="black" stroke-width="2" fill="none" />
<polyline points="215.0,247.0,215.0,251.0,217.5,255.0" stroke="black" stroke-width="2" fill="none" />
<polyline points="205.0,265.0,201.0,262.5,197.0,258.5" stroke="black" stroke-width="2" fill="none" />
<polyline points="204.5,264.5,200.5,264.0,196.0,259.5,195.5,252.5,191.5,249.0" stroke="black" stroke-width="2" fill="none" />
<polyline points="189.5,251.5,195.0,251.0,196.5,255.5,198.5,260.0,204.5,264.0" stroke="black" stroke-width="2" fill="none" />
<polyline points="187.0,273.5,185.5,271.5,184.0,268.0,183.0,264.0,183.0,260.0,183.0,255.5,185.0,251.5,185.0,245.5,190.0,242.5,194.0,238.0,197.0,234.0,193.0,239.0,189.0,243.0,185.5,244.0" stroke="black" stroke-width="2" fill="none" />
<polyline points="192.0,239.0,189.5,235.0,188.5,231.0,189.0,227.0,190.0,223.0,192.5,219.0,192.0,220.0,188.0,229.0" stroke="black" stroke-width="2" fill="none" />
<polyline points="186.5,233.5,190.5,240.5" stroke="black" stroke-width="2" fill="none" />
<polyline points="186.5,236.5,184.5,232.0,185.0,228.0,186.0,224.5,189.0,220.5,190.0,218.0,186.0,224.5" stroke="black" stroke-width="2" fill="none" />
<polyline points="181.5,219.5,181.5,223.5,182.5,219.5,181.0,216.0,181.0,214.5" stroke="black" stroke-width="2" fill="none" />
<polyline points="183.0,214.5,183.5,218.5" stroke="black" stroke-width="2" fill="none" />
<polyline points="180.0,209.5,184.5,211.5,188.5,213.0,188.5,217.0,186.0,218.5,184.0,220.0,186.5,218.5,190.0,211.5,191.5,208.5,195.5,204.0,199.5,205.5" stroke="black" stroke-width="2" fill="none" />
<polyline points="203.5,208.5,207.5,204.5,211.5,202.5,214.0,199.5,218.0,196.5,222.0,194.0,226.0,192.0" stroke="black" stroke-width="2" fill="none" />
<polyline points="226.5,193.0,219.5,197.0,213.5,202.5,209.5,206.5,208.0,210.5,208.5,210.5,212.0,204.5,216.0,203.0,219.0,198.0,223.0,195.5,227.5,193.5,231.0,192.5" stroke="black" stroke-width="2" fill="none" />
<polyline points="238.0,194.0,242.0,189.5" stroke="black" stroke-width="2" fill="none" />
<polyline points="243.0,199.5,247.0,194.5,251.0,191.5,255.5,189.5,250.0,189.0,247.5,193.0,244.5,194.5,248.5,190.5,252.0,189.0,255.5,184.5,256.5,188.0,260.5,185.0,264.0,182.0,268.0,180.5" stroke="black" stroke-width="2" fill="none" />
<polyline points="267.5,180.5,263.5,184.5,258.0,188.5,254.5,191.5,254.0,195.5,249.5,200.0,247.5,203.5,247.0,204.0,251.5,204.0,252.0,200.5,256.0,197.0,260.0,193.0,263.5,189.5,267.5,187.0,272.0,189.5" stroke="black" stroke-width="2" fill="none" />
<polyline points="268.5,189.5,265.5,193.5,261.5,197.0,258.0,201.0,260.5,194.0,264.0,190.5,268.5,189.0" stroke="black" stroke-width="2" fill="none" />
<polyline points="266.0,188.5,261.5,193.0,258.5,197.0,254.0,200.5,253.0,205.0,252.5,209.0,254.5,214.5,254.5,217.0" stroke="black" stroke-width="2" fill="none" />
<polyline points="263.5,221.5,267.5,226.0" stroke="black" stroke-width="2" fill="none" />
<polyline points="266.0,235.0,266.0,239.5" stroke="black" stroke-width="2" fill="none" />
<polyline points="273.0,245.5,267.0,246.5,262.0,250.0,257.0,254.0,252.5,258.5,248.5,262.5,245.0,266.5,241.0,270.5,238.0,274.5,234.0,278.5,230.5,282.5,226.5,286.5,223.0,290.0,219.5,294.0,216.0,297.5,213.5,301.5,210.5,305.5,207.5,309.5,204.0,313.0,203.0,317.0,200.5,320.5,196.5,325.0,193.5,329.5,191.0,333.5,188.0,337.5,185.5,341.5,182.5,345.0,179.0,348.5,176.5,352.0,174.0,356.0,171.0,359.5,167.5,364.0,164.0,368.5,161.0,373.0,158.5,377.5,157.0,383.5,161.0,390.0,165.0,393.5,169.5,398.5,173.5,404.0,177.5,411.5" stroke="black" stroke-width="2" fill="none" />
<polyline points="171.5,406.5,167.5,402.5,163.5,402.0,157.0,395.5,153.0,391.5" stroke="black" stroke-width="2" fill="none" />
<polyline points="153.0,395.5,157.0,397.0" stroke="black" stroke-width="2" fill="none" />
<polyline points="157.0,400.0,153.0,395.5,151.0,396.5" stroke="black" stroke-width="2" fill="none" />
<polyline points="147.0,393.0,147.0,396.0,147.5,401.5,148.5,406.0,150.5,412.5,150.5,417.0,151.5,421.0" stroke="black" stroke-width="2" fill="none" />
<polyline points="155.0,420.0,155.0,419.5,155.5,423.5,156.5,428.0,157.0,432.5,157.0,435.0,156.0,439.0,156.0,440.5" stroke="black" stroke-width="2" fill="none" />
<polyline points="162.0,445.0,166.0,440.5,170.0,444.0,173.5,444.0,177.5,440.0,181.0,439.0,181.5,434.0" stroke="black" stroke-width="2" fill="none" />
<polyline points="178.5,438.5,174.0,442.5,178.0,442.0,182.0,443.5,186.0,439.0" stroke="black" stroke-width="2" fill="none" />
<polyline points="179.5,446.0,175.5,445.5" stroke="black" stroke-width="2" fill="none" />
<polyline points="174.0,445.0,174.5,449.0,175.5,453.0,175.0,457.5" stroke="black" stroke-width="2" fill="none" />
<polyline points="173.0,460.5,169.0,454.0" stroke="black" stroke-width="2" fill="none" />
<polyline points="169.0,454.0,171.5,458.5,170.5,463.5,169.5,467.5,166.0,468.5" stroke="black" stroke-width="2" fill="none" />
<polyline points="164.0,469.5,168.0,473.5,169.5,478.0,167.0,482.0,165.5,486.0,167.5,490.0,168.5,492.0" stroke="black" stroke-width="2" fill="none" />
<polyline points="165.5,498.0,161.5,496.0" stroke="black" stroke-width="2" fill="none" />
<polyline points="161.0,501.0,163.5,505.0,164.5,509.0" stroke="black" stroke-width="2" fill="none" />
<polyline points="163.5,506.5,165.0,507.0,168.5,511.0" stroke="black" stroke-width="2" fill="none" />
<polyline points="155.5,512.0,151.0,506.5" stroke="black" stroke-width="2" fill="none" />
<polyline points="155.5,497.0,151.5,491.5" stroke="black" stroke-width="2" fill="none" />
<polyline points="149.5,495.5,153.5,502.5" stroke="black" stroke-width="2" fill="none" />
<polyline points="153.0,493.5,152.0,487.5,148.0,484.0" stroke="black" stroke-width="2" fill="none" />
<polyline points="149.5,483.5,149.5,487.0,152.5,491.0,155.5,491.0,156.0,494.5,156.0,498.5,157.5,502.5,158.0,506.0,159.0,507.0,165.0,510.0" stroke="black" stroke-width="2" fill="none" />
<polyline points="151.5,511.0,147.5,501.5,143.5,496.5" stroke="black" stroke-width="2" fill="none" />
<polyline points="144.0,496.0,147.5,500.0,149.0,504.0,150.0,507.5,151.5,511.0" stroke="black" stroke-width="2" fill="none" />
<polyline points="156.0,506.0,152.0,503.0,148.5,496.5,147.5,492.0,143.5,483.5" stroke="black" stroke-width="2" fill="none" />
<polyline points="141.5,484.5,146.0,492.0,150.0,496.0,152.5,500.0,154.5,504.0,153.5,506.0" stroke="black" stroke-width="2" fill="none" />
<polyline points="174.5,509.0,170.5,506.0,166.0,503.5,161.5,502.5,157.5,500.0,153.0,498.5,151.0,494.5,146.0,492.5,144.0,488.5,142.0,485.0,139.0,478.5" stroke="black" stroke-width="2" fill="none" />
<polyline points="140.5,484.5,143.5,488.0,145.0,492.0,147.5,496.0,151.0,500.0,153.0,504.0,153.0,508.5,155.5,512.5" stroke="black" stroke-width="2" fill="none" />
<polyline points="142.5,514.0,144.0,510.0,142.0,505.5,141.0,501.5,140.0,497.0,135.5,491.5,135.0,485.5" stroke="black" stroke-width="2" fill="none" />
<polyline points="134.0,485.0,135.5,489.0,134.5,490.5,137.0,494.5,136.5,497.5,138.5,502.0,139.0,505.0" stroke="black" stroke-width="2" fill="none" />
<polyline points="138.5,494.5,138.5,487.5,134.5,484.5" stroke="black" stroke-width="2" fill="none" />
<polyline points="135.0,483.5,133.5,487.0,134.5,491.0,136.0,494.5,133.0,496.5,135.5,500.5,137.0,504.0,138.5,507.5,139.0,511.5" stroke="black" stroke-width="2" fill="none" />
<polyline points="134.5,506.5,130.5,497.5" stroke="black" stroke-width="2" fill="none" />
<polyline points="125.0,497.5,127.0,501.0,125.5,505.5,126.0,509.5" stroke="black" stroke-width="2" fill="none" />
<polyline points="130.5,510.5,126.5,505.5,122.5,497.5" stroke="black" stroke-width="2" fill="none" />
<polyline points="123.0,490.5,123.5,492.5,124.0,497.0,124.5,501.0,124.5,504.5,124.0,508.5" stroke="black" stroke-width="2" fill="none" />
<polyline points="127.5,503.5,130.0,507.5,133.0,511.5" stroke="black" stroke-width="2" fill="none" />
<polyline points="109.5,509.0,110.0,505.0,110.5,501.0,111.5,497.0,113.0,492.5,112.5,488.5,113.0,486.5" stroke="black" stroke-width="2" fill="none" />
<polyline points="114.5,487.5,114.5,491.5,114.0,496.0,112.5,500.5,112.0,504.5,111.0,509.0,109.5,513.5" stroke="black" stroke-width="2" fill="none" />
<polyline points="103.5,505.0,100.0,500.5" stroke="black" stroke-width="2" fill="none" />
<polyline points="100.5,492.0,99.5,496.0,100.5,499.5,102.5,503.5,104.5,507.0,106.0,510.5" stroke="black" stroke-width="2" fill="none" />
<polyline points="104.0,510.5,102.0,506.5,100.5,502.5,98.5,498.5,98.0,494.5,97.5,490.5" stroke="black" stroke-width="2" fill="none" />
<polyline points="96.0,469.0,92.0,473.0,92.5,472.0,96.0,467.5" stroke="black" stroke-width="2" fill="none" />
<polyline points="95.5,454.5,91.0,457.0,86.5,459.0,88.0,458.0,94.0,454.0" stroke="black" stroke-width="2" fill="none" />
<polyline points="93.0,452.0,89.0,455.0,86.0,457.0,84.5,458.5,91.0,454.5,95.5,451.0" stroke="black" stroke-width="2" fill="none" />
<polyline points="109.5,445.5,109.0,441.5,107.5,439.5" stroke="black" stroke-width="2" fill="none" />
<polyline points="104.5,437.5,104.0,441.5,103.5,445.0" stroke="black" stroke-width="2" fill="none" />
<polyline points="102.5,435.5,98.5,440.0,95.5,444.5,93.5,443.5,93.0,447.5,93.5,443.5,99.0,439.5,103.0,435.0,105.0,431.0,106.0,427.0,106.0,423.0,106.0,419.0,110.0,417.0,106.0,419.0" stroke="black" stroke-width="2" fill="none" />
<polyline points="107.5,416.0,108.5,420.0,108.0,423.5,107.5,427.5,107.5,431.5,106.0,435.5,105.5,440.0,106.5,447.0" stroke="black" stroke-width="2" fill="none" />
<polyline points="118.0,443.5,120.5,439.5" stroke="black" stroke-width="2" fill="none" />
<polyline points="120.0,437.0,120.0,443.0,119.0,443.0,120.5,439.0,122.0,435.0,122.0,431.0" stroke="black" stroke-width="2" fill="none" />
<polyline points="115.5,431.0,115.5,427.0" stroke="black" stroke-width="2" fill="none" />
<polyline points="114.5,432.5,113.5,430.5,113.0,426.5,112.5,422.5,112.0,418.5" stroke="black" stroke-width="2" fill="none" />
<polyline points="110.5,413.5,114.5,413.5,119.0,412.5,123.0,408.0,128.5,407.0,127.5,410.5,126.5,414.5,129.5,417.5,130.0,421.5,131.5,425.5" stroke="black" stroke-width="2" fill="none" />
<polyline points="132.5,428.0,131.0,424.0,130.5,420.0,126.5,415.5" stroke="black" stroke-width="2" fill="none" />
<polyline points="129.5,414.0,133.5,418.0,138.0,423.0,140.5,423.5,143.0,427.5,145.5,432.0,145.0,436.0,146.0,440.0,150.5,444.0,152.5,447.0,153.5,451.0,155.0,455.0,154.5,457.0,161.0,461.5" stroke="black" stroke-width="2" fill="none" />
<polyline points="167.0,461.0,171.0,462.5" stroke="black" stroke-width="2" fill="none" />
<polyline points="176.5,464.5,178.0,460.0,179.5,456.0,174.0,459.0,172.0,455.5,169.5,451.5,167.5,449.0,165.5,445.0,165.5,442.5,166.0,437.5,166.0,433.5,166.5,433.5" stroke="black" stroke-width="2" fill="none" />
<polyline points="164.0,431.5,161.0,435.0,162.0,435.5,168.5,436.0" stroke="black" stroke-width="2" fill="none" />
<polyline points="167.0,429.5,171.5,435.5,175.5,435.0" stroke="black" stroke-width="2" fill="none" />
<polyline points="177.0,425.5,176.5,422.5,174.0,418.5,174.5,415.0,171.5,414.0,168.5,409.5,165.5,405.5,163.0,401.5,163.5,397.5,164.5,401.0" stroke="black" stroke-width="2" fill="none" />
<polyline points="164.5,396.5,166.0,400.5,169.0,401.5,173.0,405.5,175.0,409.0,176.5,413.0,178.5,417.0,179.0,420.5,179.5,424.5" stroke="black" stroke-width="2" fill="none" />
<polyline points="171.0,429.0,170.0,425.5,166.5,419.0,169.0,415.5,167.5,411.5,165.0,407.0,160.5,407.0" stroke="black" stroke-width="2" fill="none" />
<polyline points="161.0,409.0,163.0,413.0,166.5,418.5" stroke="black" stroke-width="2" fill="none" />
<polyline points="165.0,415.0,161.0,409.0" stroke="black" stroke-width="2" fill="none" />
<polyline points="169.0,403.0,173.0,407.0,174.5,411.5,171.5,416.0,169.5,419.5,168.0,423.5,164.0,423.5,163.0,428.0,162.5,432.5,158.0,435.5,161.5,430.0,165.5,425.5,169.0,423.0,172.0,427.5" stroke="black" stroke-width="2" fill="none" />
<polyline points="167.0,426.5,168.0,430.0,170.0,434.0,168.5,438.0,168.5,439.0,173.0,438.5" stroke="black" stroke-width="2" fill="none" />
<polyline points="165.5,443.0,169.5,450.0,173.5,457.0,177.5,460.0" stroke="black" stroke-width="2" fill="none" />
<polyline points="163.5,461.0,161.0,457.5,160.0,454.5,159.5,450.5,161.0,446.5,162.5,443.0,164.0,442.5" stroke="black" stroke-width="2" fill="none" />
<polyline points="163.0,446.0,164.5,450.0,166.0,454.0,167.0,458.0,170.0,461.5,167.0,464.5,166.0,468.5,162.0,471.0,163.0,475.0,161.5,479.0,159.0,480.0,159.0,483.0,158.5,487.0,160.0,491.0,164.5,495.0,166.0,499.0,168.0,505.0,172.0,508.5,172.5,512.0,173.5,512.0" stroke="black" stroke-width="2" fill="none" />
<polyline points="192.0,491.5,196.0,490.5,200.0,489.5,204.5,487.5,208.5,486.0,213.0,483.0,217.0,480.5,221.0,476.0,225.5,470.0,229.5,464.0" stroke="black" stroke-width="2" fill="none" />
<polyline points="232.0,465.5,236.5,458.0" stroke="black" stroke-width="2" fill="none" />
<polyline points="210.5,487.0,216.0,483.0,220.0,479.0,223.0,474.5,226.0,470.0,229.0,466.0,230.5,462.0,232.5,458.0,233.5,454.5,234.0,450.5,235.0,447.0,236.0,443.0,236.5,439.0,237.0,434.5,236.5,430.0,236.0,426.0,236.0,422.0,235.0,418.0,234.0,414.0,232.5,410.0,231.0,406.0,230.5,404.0" stroke="black" stroke-width="2" fill="none" />
<polyline points="222.0,412.0,222.0,416.0,223.5,416.0" stroke="black" stroke-width="2" fill="none" />
<polyline points="229.0,416.5,228.0,420.5" stroke="black" stroke-width="2" fill="none" />
<polyline points="243.0,409.5,242.5,413.5,243.0,417.5,243.0,422.0,242.5,426.0,242.0,430.0,242.0,433.5,241.0,437.0,240.5,441.0,240.0,445.0,238.0,449.0,238.0,453.0,237.0,457.5,235.0,461.5,233.0,465.5,232.5,469.5,229.5,473.5,227.0,477.5,223.0,482.0,219.0,486.0,211.5,490.0" stroke="black" stroke-width="2" fill="none" />
<polyline points="198.5,495.0,194.5,498.0,198.5,495.0,202.5,494.5,207.0,493.0,211.0,491.5,215.5,489.0,219.5,486.0,224.0,481.5,228.0,477.5,232.5,470.0" stroke="black" stroke-width="2" fill="none" />
<polyline points="198.5,449.0,199.0,445.0,201.5,444.5,197.5,446.5" stroke="black" stroke-width="2" fill="none" />
<polyline points="198.0,451.5,194.0,449.0,190.0,448.5,186.0,448.0,182.0,447.0,178.5,449.5,179.5,448.0,181.0,448.0,183.5,442.0,183.5,437.0,181.5,434.5,180.0,432.5,181.5,428.5,182.0,424.5,181.5,420.5,180.5,416.5,179.0,412.0,177.0,408.5,175.0,404.5,172.0,400.5,169.0,396.5,165.5,392.0,160.5,388.5,158.5,385.0,162.5,381.5,163.5,377.5,162.0,380.5" stroke="black" stroke-width="2" fill="none" />
<polyline points="159.5,376.0,163.0,370.5,167.5,366.0,171.5,362.0,175.5,356.5,179.5,350.0,183.5,344.0,187.5,339.5,191.5,334.0,196.0,329.5,200.0,324.5" stroke="black" stroke-width="2" fill="none" />
<polyline points="196.0,319.5,200.5,317.5" stroke="black" stroke-width="2" fill="none" />
<polyline points="192.5,317.5,196.0,308.0,200.0,299.5,204.0,291.5,208.0,285.0,212.0,277.5,215.5,271.0,219.0,264.5,222.5,257.5,226.5,251.5,230.5,246.0,235.0,240.5,239.0,235.0,243.5,230.0,247.0,225.5,251.0,221.0,255.0,217.5" stroke="black" stroke-width="2" fill="none" />
<polyline points="262.5,209.5,267.0,204.5" stroke="black" stroke-width="2" fill="none" />
<polyline points="251.0,211.5,247.0,211.5,242.5,210.5" stroke="black" stroke-width="2" fill="none" />
<polyline points="235.5,207.0,235.5,203.0,237.5,198.5,234.5,200.5" stroke="black" stroke-width="2" fill="none" />
<polyline points="238.0,203.0,237.5,206.5" stroke="black" stroke-width="2" fill="none" />
<polyline points="218.0,216.0,217.0,220.0,218.0,224.5,216.0,227.0,220.0,232.0,224.5,231.5,230.5,235.5" stroke="black" stroke-width="2" fill="none" />
<polyline points="214.0,220.5,210.0,214.5" stroke="black" stroke-width="2" fill="none" />
<polyline points="211.5,217.0,213.5,221.0,215.5,227.5,219.0,231.5,217.5,235.0" stroke="black" stroke-width="2" fill="none" />
<polyline points="209.0,228.0,205.0,222.5" stroke="black" stroke-width="2" fill="none" />
<polyline points="198.5,234.5,194.5,240.5,190.5,244.0,187.0,246.0,192.0,242.5,196.0,239.0,198.0,235.0" stroke="black" stroke-width="2" fill="none" />
<polyline points="180.0,228.5,176.0,228.5,172.0,232.0,168.0,235.0,164.0,239.5" stroke="black" stroke-width="2" fill="none" />
<polyline points="169.5,238.0,168.5,242.0,168.0,245.5,166.5,249.5,166.0,247.5" stroke="black" stroke-width="2" fill="none" />
<polyline points="174.0,246.5,170.0,253.0,166.0,256.5" stroke="black" stroke-width="2" fill="none" />
<polyline points="163.5,258.0,165.0,259.5,163.5,263.5,162.0,267.5,161.5,271.5,160.0,276.0,161.5,280.0,159.5,285.0" stroke="black" stroke-width="2" fill="none" />
<polyline points="159.5,284.5,155.5,281.0" stroke="black" stroke-width="2" fill="none" />
<polyline points="154.5,279.0,158.0,280.0,158.5,281.0" stroke="black" stroke-width="2" fill="none" />
<polyline points="163.0,279.0,158.5,272.0,155.0,274.0,151.0,273.5" stroke="black" stroke-width="2" fill="none" />
<polyline points="151.5,275.5,153.0,277.5,155.0,278.5,157.0,282.5,163.5,288.5,167.5,284.0,172.0,283.5,174.0,284.0,178.5,284.5,179.0,286.0" stroke="black" stroke-width="2" fill="none" />
<polyline points="178.0,291.5,175.5,293.0,172.0,294.0" stroke="black" stroke-width="2" fill="none" />
<polyline points="173.0,293.0,178.5,293.5,176.0,297.5,173.0,301.5,172.5,305.0,170.0,309.0,166.0,307.5" stroke="black" stroke-width="2" fill="none" />
<polyline points="171.5,310.0,169.5,314.0,166.0,316.0,170.0,313.0,174.0,314.5" stroke="black" stroke-width="2" fill="none" />
<polyline points="182.0,313.0,180.5,310.5,184.0,308.5,181.5,304.5,179.0,301.0,176.5,300.5" stroke="black" stroke-width="2" fill="none" />
<polyline points="176.0,299.5,176.0,303.5,178.5,305.5" stroke="black" stroke-width="2" fill="none" />
<polyline points="177.0,304.0,180.5,307.5" stroke="black" stroke-width="2" fill="none" />
<polyline points="184.0,306.5,179.5,301.0" stroke="black" stroke-width="2" fill="none" />
<polyline points="179.0,294.5,175.5,300.0,173.0,307.0,169.0,311.0,165.0,313.5,163.5,318.0,161.0,318.5,157.5,319.5,158.0,318.0,158.0,315.0,160.0,312.5,158.0,308.5,158.5,303.5,162.5,301.0,162.0,297.0,158.0,291.5,153.5,290.0,150.0,286.5,149.0,283.0,148.5,278.5,148.5,274.0,148.5,270.0,153.0,266.0,156.0,262.0,158.5,258.0,163.0,256.0,159.0,261.5,154.5,266.5,150.5,270.5" stroke="black" stroke-width="2" fill="none" />
<polyline points="154.5,269.0,156.5,273.0" stroke="black" stroke-width="2" fill="none" />
<polyline points="153.5,267.0,149.0,271.0,143.0,275.0,139.0,276.0" stroke="black" stroke-width="2" fill="none" />
<polyline points="139.5,273.0,143.5,270.5,148.0,267.0" stroke="black" stroke-width="2" fill="none" />
<polyline points="148.5,257.0,147.5,253.5,144.5,252.0,147.5,248.0,148.5,248.0,144.5,251.0" stroke="black" stroke-width="2" fill="none" />
<polyline points="146.5,250.5,150.5,249.5" stroke="black" stroke-width="2" fill="none" />
<polyline points="153.5,250.0,157.0,249.5,161.0,244.5,164.0,245.5,161.5,249.5,159.5,253.0,156.0,257.0,151.5,264.0,146.0,268.0,142.0,272.0,145.5,274.5,140.5,278.5,138.0,282.5,131.5,281.0,135.5,281.0,139.0,281.0,142.0,283.0,139.5,287.0,138.0,291.5,134.0,296.0,132.0,300.0,129.5,301.0,130.5,304.5,132.5,308.5,134.0,312.0,135.0,316.0,136.5,319.5,138.0,323.5,138.5,327.5,139.5,331.5,141.5,335.5,143.0,339.5,144.5,343.5,146.5,337.0,151.0,340.0,154.5,338.5,159.5,333.5,163.5,328.0,167.0,322.5,168.5,324.0,169.0,318.5,173.0,317.5" stroke="black" stroke-width="2" fill="none" />
<polyline points="172.5,319.0,169.0,320.0,165.5,318.5" stroke="black" stroke-width="2" fill="none" />
<polyline points="165.0,321.5,163.0,325.5,161.0,329.0,158.5,333.0,158.5,335.0,162.5,330.5" stroke="black" stroke-width="2" fill="none" />
<polyline points="164.5,333.0,167.0,334.0,165.5,337.5,164.5,341.0,169.5,337.0,173.5,334.5,177.5,332.0,181.5,331.5,178.0,335.0,175.5,339.0,173.0,342.5,169.5,347.0,167.0,351.5,164.5,355.5,161.5,359.5,160.5,363.5,159.5,367.5,163.5,367.5,167.5,362.0,165.5,365.5" stroke="black" stroke-width="2" fill="none" />
<polyline points="163.0,364.0,167.0,360.0,171.0,357.0,175.5,352.5,179.5,347.0,183.5,341.5,187.0,335.5" stroke="black" stroke-width="2" fill="none" />
<polyline points="190.0,331.5,186.0,331.5,181.0,333.0,177.5,339.5,173.0,345.0,169.0,350.0,165.0,356.0,160.5,361.5,158.5,370.5,161.0,367.5,164.5,362.5,170.0,358.5,174.0,354.0,177.5,350.0,180.0,345.5,183.0,342.0,185.5,338.0,184.5,334.0,187.5,334.0,189.5,330.0" stroke="black" stroke-width="2" fill="none" />
<polyline points="191.5,342.5,191.0,343.5,191.5,347.5,192.5,352.0" stroke="black" stroke-width="2" fill="none" />
<polyline points="194.0,353.0,193.0,349.0,192.5,344.5" stroke="black" stroke-width="2" fill="none" />
<polyline points="165.0,345.5,165.0,340.5,168.5,338.5,173.0,334.0,179.5,330.0,182.5,326.0,183.5,322.0,186.0,318.0,191.0,315.5,192.5,311.5,194.5,307.5,196.5,303.5,198.5,300.0,200.5,295.5,202.5,292.0,204.5,288.0,207.5,284.0,210.0,280.5,212.5,276.5,215.5,272.5,218.0,269.0,219.5,265.0,222.5,261.0,224.5,257.5,227.5,253.0,230.0,249.0,233.5,245.0,235.0,238.0,238.0,234.0,242.0,230.0,245.5,226.0,249.0,221.5,252.5,216.5,253.0,212.5,254.5,209.5,255.5,205.5,257.0,202.5,253.0,210.5,249.0,209.5,245.0,209.5,241.0,209.0,237.5,206.5,238.0,203.0,239.5,198.5,241.0,196.0,243.0,192.0,248.5,188.0,248.5,185.5,256.5,181.5,250.5,175.5,251.5,174.0,247.0,172.5,246.5,171.0,242.5,172.5" stroke="black" stroke-width="2" fill="none" />
<polyline points="246.5,172.0,243.0,175.5,242.0,179.5,240.0,183.5,234.5,186.5,238.5,184.0,244.0,182.0,247.5,181.5,251.5,178.5" stroke="black" stroke-width="2" fill="none" />
<polyline points="251.0,177.0,247.0,181.5,242.5,183.5,244.5,186.0,242.0,191.0,238.5,195.0,236.5,199.5,234.5,204.0,233.0,208.0,230.5,212.0,232.0,212.0,231.5,211.0,235.5,209.5" stroke="black" stroke-width="2" fill="none" />
<polyline points="218.0,191.0,222.0,186.0,225.5,186.0" stroke="black" stroke-width="2" fill="none" />
<polyline points="227.5,185.0,223.0,185.0,220.0,189.0,219.5,193.0,211.0,197.0,215.0,194.5" stroke="black" stroke-width="2" fill="none" />
<polyline points="216.5,187.0,221.0,182.5" stroke="black" stroke-width="2" fill="none" />
<polyline points="224.0,179.5,219.5,183.5,216.0,187.5,213.5,191.5,209.5,196.0,206.5,200.0" stroke="black" stroke-width="2" fill="none" />
<polyline points="206.5,191.5,210.5,186.5,214.0,182.5,217.5,179.0,222.0,175.5,225.5,175.0,230.0,174.5" stroke="black" stroke-width="2" fill="none" />
<polyline points="223.5,174.0,218.0,178.0,214.5,182.0,210.5,186.0,207.0,190.0,206.0,194.0,206.5,196.0,210.0,194.5,214.0,192.0,218.5,192.5,222.5,189.5,226.0,188.5,230.5,187.5,231.5,183.5,236.0,183.0" stroke="black" stroke-width="2" fill="none" />
<polyline points="236.5,181.0,232.0,185.0,231.5,187.5,224.5,193.0,218.0,197.0,211.0,203.5,206.0,208.0,202.5,213.5,203.0,217.5,204.5,217.5,205.0,223.0,208.0,227.0" stroke="black" stroke-width="2" fill="none" />
<polyline points="198.5,203.5,194.0,203.5" stroke="black" stroke-width="2" fill="none" />
<polyline points="192.0,198.5,195.5,200.0,200.0,202.5" stroke="black" stroke-width="2" fill="none" />
<polyline points="205.5,201.0,201.0,199.0,197.0,197.5,192.5,196.5,190.0,197.0,186.0,200.0,182.0,205.0,182.0,207.0,184.5,203.5,188.5,199.0,191.0,198.5" stroke="black" stroke-width="2" fill="none" />
<polyline points="185.5,205.0,189.5,204.5,193.5,203.5,200.5,202.5" stroke="black" stroke-width="2" fill="none" />
<polyline points="204.0,191.5,208.0,187.0,212.5,182.0,217.0,177.0,221.0,174.0,225.0,173.0,228.5,173.0,232.5,174.0,236.5,175.0,239.5,173.5,238.0,177.5,236.0,178.5" stroke="black" stroke-width="2" fill="none" />
<polyline points="241.0,167.0,245.5,169.0,249.5,169.5,253.0,174.5,257.0,175.5,261.0,176.5,265.0,178.5,269.5,179.5,273.5,179.0,277.5,179.5" stroke="black" stroke-width="2" fill="none" />
<polyline points="276.0,179.5,275.5,175.5" stroke="black" stroke-width="2" fill="none" />
<polyline points="280.5,175.5,284.5,177.5,288.5,179.0" stroke="black" stroke-width="2" fill="none" />
<polyline points="289.5,178.0,286.0,177.0" stroke="black" stroke-width="2" fill="none" />
<polyline points="281.5,175.5,285.5,175.0,289.5,174.5,293.5,178.5" stroke="black" stroke-width="2" fill="none" />
<polyline points="273.0,182.0,274.0,186.0,274.0,190.5,272.5,194.5" stroke="black" stroke-width="2" fill="none" />
<polyline points="266.5,186.5,261.0,190.5,256.5,194.5,253.5,198.5,249.5,202.0,250.5,198.5,254.5,194.0,258.5,191.0,262.0,188.0,266.0,185.0" stroke="black" stroke-width="2" fill="none" />
<polyline points="265.0,184.0,261.5,186.5,257.5,190.0,261.0,188.5,267.5,184.5" stroke="black" stroke-width="2" fill="none" />
<polyline points="266.0,179.5,260.5,183.5,255.0,187.5,250.5,190.5,246.0,195.0,243.0,199.0,241.5,200.0,242.5,193.5,245.5,192.0,250.0,187.0,250.0,185.0,254.0,182.5,257.5,180.5,261.5,180.5" stroke="black" stroke-width="2" fill="none" />
<polyline points="265.5,176.5,269.5,177.5,273.5,177.0,278.0,178.5,282.0,175.5,284.5,176.0,292.5,177.0,294.5,181.0,290.0,185.0,286.0,187.5,281.5,191.5,276.0,195.5,272.0,199.5,273.0,194.0,270.5,197.0,271.0,199.5,275.5,195.5,279.5,192.5,284.0,189.0,288.0,185.0,293.5,181.5,297.0,178.5,301.0,175.5,304.5,172.5,308.5,169.5,312.0,166.5,316.5,164.5,320.5,162.5,324.0,161.0,328.5,158.0,332.5,156.0,336.0,153.0" stroke="black" stroke-width="2" fill="none" />
<polyline points="337.5,153.0,331.0,157.0,325.0,160.5,317.5,164.5,311.5,168.5,306.0,172.5,300.0,176.5,295.5,180.5" stroke="black" stroke-width="2" fill="none" />
<polyline points="285.0,143.5,280.5,144.5" stroke="black" stroke-width="2" fill="none" />
<polyline points="299.5,135.0,295.0,139.0,290.0,142.5,292.0,140.5,296.5,137.5,300.5,134.5" stroke="black" stroke-width="2" fill="none" />
<polyline points="260.5,130.0,256.5,134.0,251.5,138.5,246.5,143.0,241.5,147.0,236.0,151.0,231.0,155.5,225.5,159.5,221.0,163.5,223.0,162.0,227.0,158.5,230.5,155.5,234.5,152.5,238.5,149.0,242.0,146.5,246.0,143.0,249.5,139.5,253.5,137.0,257.5,133.5" stroke="black" stroke-width="2" fill="none" />
<polyline points="241.0,145.0,246.0,141.5,248.5,139.0,253.5,134.5,259.5,130.0,257.5,130.5,253.5,133.5,249.5,136.5,245.0,139.5,241.5,143.5,237.5,146.0,233.5,142.0" stroke="black" stroke-width="2" fill="none" />
<polyline points="233.0,143.0,236.5,147.0" stroke="black" stroke-width="2" fill="none" />
<polyline points="227.5,163.0,224.0,157.0,228.5,154.0,224.5,157.5,220.5,156.5,216.5,153.0" stroke="black" stroke-width="2" fill="none" />
<polyline points="216.0,153.0,220.0,156.5,227.0,163.0" stroke="black" stroke-width="2" fill="none" />
<polyline points="221.5,160.5,217.0,159.5,213.0,155.5,209.0,152.5,205.0,149.0" stroke="black" stroke-width="2" fill="none" />
<polyline points="204.0,147.5,208.5,151.5,213.5,155.5,217.5,159.5,220.0,161.0" stroke="black" stroke-width="2" fill="none" />
<polyline points="220.5,174.5,215.0,178.5,212.0,182.5,208.5,186.5,205.5,191.0,204.5,195.5,205.5,199.0" stroke="black" stroke-width="2" fill="none" />
<polyline points="176.0,214.0,172.0,215.5,170.5,217.5,174.5,213.5" stroke="black" stroke-width="2" fill="none" />
<polyline points="169.0,222.5,168.5,227.0,171.5,227.0,172.0,227.0,176.0,226.0,180.5,226.0" stroke="black" stroke-width="2" fill="none" />
<polyline points="176.0,229.0,171.0,232.5,166.5,236.5,163.0,240.5,160.5,244.0,156.5,248.0,151.5,251.0,148.5,254.5,151.5,256.0,150.0,259.0,147.5,263.0,143.5,267.0,139.0,270.5,136.0,274.5,129.5,280.0,132.5,287.5,129.5,291.5,126.0,295.0,125.0,300.5,127.5,305.0,126.5,308.5,124.0,311.5,123.5,315.5,124.0,319.5,125.0,324.0,125.5,328.0,125.0,331.5,125.0,336.0,127.0,338.0,128.0,342.0,131.5,346.0,134.5,350.0,138.0,353.5,138.0,357.5,138.5,363.0,141.0,367.0,143.0,367.0,144.5,370.5,145.5,375.5,146.5,379.5,144.5,383.5,146.5,387.5,146.0,391.5,147.5,395.5,149.0,395.5,150.0,400.5,150.0,404.0,153.0,405.0,156.5,409.5,158.5,413.5,160.0,417.5,158.5,421.5,153.5,423.5" stroke="black" stroke-width="2" fill="none" />
<polyline points="162.0,423.5,160.0,426.5,159.5,422.5,161.0,418.5,160.5,424.5,162.5,421.0,162.0,417.5,161.5,414.0,162.0,410.0,160.5,405.5,160.5,401.5,161.5,397.5,159.5,393.5,156.0,388.0,155.5,383.5,154.5,379.5,152.5,375.5,152.5,371.5,152.0,368.0,148.0,362.0" stroke="black" stroke-width="2" fill="none" />
<polyline points="148.0,361.0,150.5,365.0,150.5,367.0,150.5,371.0,150.5,374.5,151.0,378.5,150.0,383.0,149.0,384.0,153.5,388.0,157.0,390.5,160.5,395.0,166.5,397.5,170.5,401.5,175.0,409.5" stroke="black" stroke-width="2" fill="none" />
<polyline points="170.5,417.0,173.0,421.0,175.5,425.0,176.0,429.0,176.0,433.0,174.5,436.0,171.5,439.0,172.0,440.5,172.0,446.5,173.0,450.5,173.5,455.0,176.5,457.5,173.5,463.0,174.5,467.0,171.0,465.0,174.5,468.0" stroke="black" stroke-width="2" fill="none" />
<polyline points="172.0,460.5,168.0,454.5,164.5,452.5,164.0,448.0,159.5,450.0,156.0,447.5,156.0,449.0,157.5,445.5,155.0,441.5,155.0,438.0,150.5,438.0,148.0,434.5,147.0,431.0,149.5,428.0,144.5,424.0,139.0,422.0" stroke="black" stroke-width="2" fill="none" />
<polyline points="140.0,423.0,144.0,430.0,150.5,439.5" stroke="black" stroke-width="2" fill="none" />
<polyline points="153.0,448.0,148.5,442.5,145.0,437.0,138.0,427.5,134.0,422.5,130.0,419.0" stroke="black" stroke-width="2" fill="none" />
<polyline points="132.5,420.5,135.0,424.5,135.5,428.5,137.5,433.0,139.0,437.0,141.5,443.0,142.0,446.5,140.5,450.0,139.0,453.5,136.5,457.0,134.5,461.0,133.0,465.0,134.0,456.5" stroke="black" stroke-width="2" fill="none" />
<polyline points="138.0,463.5,139.5,467.5,142.5,471.5,147.0,475.5,152.5,479.5,154.0,484.5,152.0,482.5,156.0,483.5,157.5,488.5,161.5,494.0,164.0,492.5,166.5,499.0" stroke="black" stroke-width="2" fill="none" />
<polyline points="168.0,489.5,166.5,485.5,159.5,482.5" stroke="black" stroke-width="2" fill="none" />
<polyline points="166.5,479.0,164.5,482.5,166.0,480.0,168.5,481.0" stroke="black" stroke-width="2" fill="none" />
<polyline points="163.5,458.0,162.0,459.5,162.5,455.0,163.5,450.5,160.5,451.5,160.0,449.5" stroke="black" stroke-width="2" fill="none" />
<polyline points="154.5,457.0,158.5,460.0" stroke="black" stroke-width="2" fill="none" />
<polyline points="155.5,467.5,149.0,461.0" stroke="black" stroke-width="2" fill="none" />
<polyline points="149.0,461.5,153.0,467.0,156.0,467.0,157.0,472.5,159.0,474.5,157.5,474.0,163.5,475.0,165.5,470.5" stroke="black" stroke-width="2" fill="none" />
<polyline points="157.0,467.5,153.5,465.0,149.5,460.5" stroke="black" stroke-width="2" fill="none" />
<polyline points="148.0,465.5,152.0,472.5,156.0,474.5" stroke="black" stroke-width="2" fill="none" />
<polyline points="153.5,476.0,149.5,475.0,145.5,469.0,141.5,466.5,138.0,465.0" stroke="black" stroke-width="2" fill="none" />
<polyline points="132.0,465.0,136.5,456.0,140.5,451.0,145.0,453.5,149.0,462.5,153.5,469.5,157.5,472.5,163.0,470.0,167.0,470.5" stroke="black" stroke-width="2" fill="none" />
<polyline points="157.5,476.5,151.5,472.5,148.0,468.5" stroke="black" stroke-width="2" fill="none" />
<polyline points="149.5,453.5,145.5,450.0" stroke="black" stroke-width="2" fill="none" />
<polyline points="145.0,449.5,148.5,453.0,151.5,453.5,152.0,457.5,153.5,454.5,158.0,454.5,164.0,453.5" stroke="black" stroke-width="2" fill="none" />
<polyline points="155.0,453.0,151.5,452.0,148.0,451.5,144.5,449.0" stroke="black" stroke-width="2" fill="none" />
<polyline points="143.5,447.5,145.0,451.5,148.5,455.0,150.0,460.0,151.0,464.5,150.5,467.5,155.0,470.0,157.5,474.0,157.0,477.5,161.0,479.5,165.0,477.0,169.5,476.5" stroke="black" stroke-width="2" fill="none" />
<polyline points="156.5,478.5,152.0,475.5,149.0,471.0,147.0,467.0,144.5,463.5,144.5,459.5,143.0,456.0,141.0,452.0" stroke="black" stroke-width="2" fill="none" />
<polyline points="141.0,451.5,144.0,455.0,146.5,459.0,148.0,463.0,148.5,466.5,149.0,470.5,153.0,474.0,155.0,477.0,157.0,477.0,157.5,482.5,155.5,486.0,158.5,490.0,161.5,494.0,162.0,498.5,164.0,503.0,164.0,507.0,165.5,510.5" stroke="black" stroke-width="2" fill="none" />
<polyline points="120.0,511.0,120.0,507.5,119.5,503.5,120.0,500.0,118.5,496.0,119.0,492.5,119.5,488.5,120.0,484.5" stroke="black" stroke-width="2" fill="none" />
<polyline points="122.0,483.0,123.0,487.0,125.0,490.5,127.0,494.5,128.5,498.5,130.0,502.0,131.5,506.5,134.0,510.5" stroke="black" stroke-width="2" fill="none" />
<polyline points="124.0,454.0,123.0,450.0,120.5,451.5" stroke="black" stroke-width="2" fill="none" />
<polyline points="121.0,451.0,124.0,455.0" stroke="black" stroke-width="2" fill="none" />
<polyline points="140.5,435.0,138.5,431.0,137.5,429.0" stroke="black" stroke-width="2" fill="none" />
<polyline points="142.5,421.5,146.5,423.5" stroke="black" stroke-width="2" fill="none" />
<polyline points="147.0,412.0,143.0,407.0,139.0,402.5" stroke="black" stroke-width="2" fill="none" />
<polyline points="139.5,401.5,140.5,405.5,144.0,409.0,148.0,413.5" stroke="black" stroke-width="2" fill="none" />
<polyline points="146.0,405.5,141.5,402.0" stroke="black" stroke-width="2" fill="none" />
<polyline points="141.5,401.0,145.5,405.0" stroke="black" stroke-width="2" fill="none" />
<polyline points="143.0,399.5,138.5,403.0,132.5,408.0,128.5,412.5" stroke="black" stroke-width="2" fill="none" />
<polyline points="125.5,411.0,130.0,406.0,134.0,402.0" stroke="black" stroke-width="2" fill="none" />
<polyline points="130.5,407.5,134.5,403.5,135.0,396.0,138.5,394.0,142.5,390.0,142.5,386.5,142.0,385.5,144.5,380.5,146.5,375.0,147.5,370.5,148.0,366.5,146.0,363.0,145.5,359.0,145.5,355.0,144.0,353.0,142.5,349.0,139.0,345.0,137.5,340.0,136.5,336.0,136.0,332.5,136.5,329.0,135.5,325.0,135.0,321.0,133.5,317.0,132.5,312.5,131.0,308.5,129.5,304.5,127.5,297.5,131.0,293.5,134.5,291.5,136.5,288.0,129.0,284.5,125.0,278.5" stroke="black" stroke-width="2" fill="none" />
<polyline points="130.0,279.5,134.0,279.0,138.0,278.0,142.0,276.5" stroke="black" stroke-width="2" fill="none" />
<polyline points="136.5,268.5,138.5,264.0,135.0,262.5" stroke="black" stroke-width="2" fill="none" />
<polyline points="130.5,267.5,130.0,271.5,124.5,275.0,118.5,279.0,111.0,282.5,102.0,286.5,99.5,291.0,94.0,298.0,92.5,302.0,88.0,306.0,81.0,310.0,83.0,315.5,78.5,319.0,71.5,322.5,75.5,321.0,79.5,318.0,83.5,315.0,87.5,316.5" stroke="black" stroke-width="2" fill="none" />
<polyline points="88.5,323.0,93.0,324.0,90.5,328.0,93.5,326.5,91.5,331.0,86.5,336.0,83.0,340.0,79.5,344.0,76.5,348.0,73.5,351.5,70.0,355.5,66.5,359.5,64.0,361.0,64.0,365.0,67.5,362.5,71.5,358.5,75.0,354.0,79.0,348.5,83.0,343.5,87.0,339.0,90.5,340.0,90.0,344.0,89.5,348.0,88.5,351.5,85.0,355.5,82.5,359.5,79.5,363.0,77.5,367.0,77.5,371.0,83.0,374.0,83.5,369.5,87.5,361.0,91.5,354.0,95.5,348.0" stroke="black" stroke-width="2" fill="none" />
<polyline points="96.5,349.0,92.5,355.0" stroke="black" stroke-width="2" fill="none" />
<polyline points="95.0,357.5,95.5,361.5,95.0,365.5,94.0,369.0,93.0,372.5,93.0,376.5,90.0,380.0,89.0,384.0,88.0,387.0,89.0,391.0,89.0,395.0,91.0,399.0,94.0,403.0,91.0,406.0,92.0,407.0,96.0,409.0,99.5,409.5,103.5,409.5,107.0,405.5,113.0,399.5" stroke="black" stroke-width="2" fill="none" />
<polyline points="115.5,399.5,113.0,403.5,111.0,407.0,112.5,406.0" stroke="black" stroke-width="2" fill="none" />
<polyline points="115.0,408.0,114.5,405.0,115.5,401.0" stroke="black" stroke-width="2" fill="none" />
<polyline points="120.0,394.0,123.5,398.5,127.5,399.5,131.5,400.0,138.0,402.0,141.5,395.5,145.0,397.5,149.0,400.5" stroke="black" stroke-width="2" fill="none" />
<polyline points="151.0,406.0,148.0,398.5,144.5,394.5" stroke="black" stroke-width="2" fill="none" />
<polyline points="142.0,397.5,141.5,401.5" stroke="black" stroke-width="2" fill="none" />
<polyline points="137.5,409.0,141.0,413.0,144.0,416.5,147.0,420.0,150.0,423.5,149.5,427.5" stroke="black" stroke-width="2" fill="none" />
<polyline points="150.0,424.0,146.0,418.0,142.0,413.5,137.5,409.5" stroke="black" stroke-width="2" fill="none" />
<polyline points="126.5,406.0,122.0,404.0,117.5,398.5,116.0,394.0,116.5,390.0,116.0,385.5,116.0,381.5,116.0,377.5,116.5,373.0,116.5,369.0,117.5,365.0,119.0,361.0,119.0,357.0,119.5,350.0,115.5,344.0" stroke="black" stroke-width="2" fill="none" />
<polyline points="114.5,342.5,115.0,347.0,116.0,351.0,116.0,355.0,116.0,359.0,116.0,363.0,115.0,366.5,113.0,370.0,114.0,373.5,114.0,377.5,113.0,381.0,114.0,385.5,114.5,390.0,114.5,394.5,117.5,399.0,120.5,403.0,120.0,407.5,114.5,412.0,110.5,413.5,113.5,412.5,117.5,410.5,121.5,406.0" stroke="black" stroke-width="2" fill="none" />
<polyline points="125.5,407.0,122.0,411.0" stroke="black" stroke-width="2" fill="none" />
<polyline points="122.0,416.5,123.0,420.5,125.5,424.5" stroke="black" stroke-width="2" fill="none" />
<polyline points="122.5,421.0,126.5,426.0,130.5,430.0" stroke="black" stroke-width="2" fill="none" />
<polyline points="130.5,427.0,127.0,424.0,123.0,416.5" stroke="black" stroke-width="2" fill="none" />
<polyline points="119.5,416.5,120.0,420.0,122.5,424.0,126.5,428.5" stroke="black" stroke-width="2" fill="none" />
<polyline points="105.0,434.0,103.0,438.5,100.0,441.5,103.5,438.0" stroke="black" stroke-width="2" fill="none" />
<polyline points="89.0,424.0,86.5,426.0,89.0,422.0,90.5,418.0" stroke="black" stroke-width="2" fill="none" />
<polyline points="92.0,416.0,88.0,420.0,86.0,424.5,87.0,422.5" stroke="black" stroke-width="2" fill="none" />
<polyline points="90.0,407.5,94.5,406.5" stroke="black" stroke-width="2" fill="none" />
<polyline points="96.5,399.0,92.5,397.0" stroke="black" stroke-width="2" fill="none" />
<polyline points="90.0,396.5,94.0,403.0" stroke="black" stroke-width="2" fill="none" />
<polyline points="105.0,407.0,101.0,408.0,99.5,407.5,98.0,403.5,96.0,401.0,93.5,398.5,91.5,394.5,90.5,389.5,90.0,385.5,91.0,381.5,86.5,385.0" stroke="black" stroke-width="2" fill="none" />
<polyline points="81.5,386.0,81.0,390.0,79.0,396.0,78.0,400.0,75.5,404.0,73.5,408.0,74.5,412.5" stroke="black" stroke-width="2" fill="none" />
<polyline points="70.0,415.0,73.0,418.5,73.0,422.0,71.0,423.5" stroke="black" stroke-width="2" fill="none" />
<polyline points="68.0,425.0,66.5,424.0,65.5,420.0,65.0,416.0,65.5,412.0,66.5,407.5,70.5,403.5,72.5,399.5,74.0,395.5,72.0,395.0,72.0,397.0" stroke="black" stroke-width="2" fill="none" />
<polyline points="71.5,405.5,75.5,401.5,80.0,394.0" stroke="black" stroke-width="2" fill="none" />
<polyline points="81.5,386.5,79.0,390.0,78.5,394.5,76.5,398.5,73.5,402.5,72.5,407.0,72.0,411.5,71.0,415.5,69.0,416.0,68.5,418.5,69.0,422.5,67.0,426.0,69.0,426.5,68.5,430.0,70.0,430.5,69.0,434.5,67.5,438.5,68.5,442.0,69.0,446.0,69.0,450.5,69.0,454.5,68.5,458.5,68.5,462.5,67.0,466.5,65.0,470.0,64.0,474.0,62.5,478.0,63.0,482.0,63.5,486.0,64.0,490.0,64.5,494.0,64.5,498.5,62.0,502.5,62.0,506.5,62.0,510.5,63.5,510.5,66.5,507.0" stroke="black" stroke-width="2" fill="none" />
<polyline points="66.5,512.0,67.0,508.0,64.0,502.5" stroke="black" stroke-width="2" fill="none" />
<polyline points="69.5,497.0,70.5,493.0,72.0,489.0,72.5,484.5,73.0,481.0,71.0,477.5" stroke="black" stroke-width="2" fill="none" />
<polyline points="66.0,472.5,69.0,470.5,69.0,474.5,68.0,479.0,67.5,483.0,66.5,487.0,66.5,491.0,67.5,495.0" stroke="black" stroke-width="2" fill="none" />
<polyline points="72.0,465.0,71.5,461.0,71.5,457.0,72.0,454.5" stroke="black" stroke-width="2" fill="none" />
<polyline points="73.0,456.0,73.0,460.0,73.0,464.0,75.0,468.0,74.5,471.5" stroke="black" stroke-width="2" fill="none" />
<polyline points="67.0,453.5,67.0,449.0,67.0,447.0" stroke="black" stroke-width="2" fill="none" />
<polyline points="65.5,451.5,65.0,455.5,66.0,459.5,67.5,463.5,70.0,468.5,70.0,471.5,70.0,475.0,69.5,479.0,69.0,483.0" stroke="black" stroke-width="2" fill="none" />
<polyline points="32.0,493.0,30.0,499.0,31.0,503.0,34.0,506.5,34.0,510.0" stroke="black" stroke-width="2" fill="none" />
<polyline points="17.0,509.0,17.5,505.0,19.5,501.5,18.0,502.0" stroke="black" stroke-width="2" fill="none" />
<polyline points="16.0,505.5,15.5,502.0,15.0,498.5,14.0,494.5" stroke="black" stroke-width="2" fill="none" />
<polyline points="10.0,427.0,10.0,423.0,5.5,421.5" stroke="black" stroke-width="2" fill="none" />
<polyline points="4.0,420.0,6.5,424.0,8.5,428.5,9.0,432.0,9.5,435.5,9.5,439.5,9.5,443.5,12.0,445.0,11.5,448.5,11.5,453.0,11.5,457.0,14.0,459.5,12.0,463.5,13.0,467.5,13.5,471.0,12.5,475.0,11.5,477.5" stroke="black" stroke-width="2" fill="none" />
<polyline points="35.5,463.0,35.5,459.0,35.5,455.0,34.5,451.0,34.0,447.0,33.5,442.0,33.5,438.0,33.0,434.0,33.0,429.0,33.5,425.0" stroke="black" stroke-width="2" fill="none" />
<polyline points="25.0,419.0,23.0,411.5" stroke="black" stroke-width="2" fill="none" />
<polyline points="22.5,412.0,25.0,416.0,26.0,420.5,26.0,424.5,26.5,428.5,26.0,432.5,26.0,436.5,26.0,440.5,27.5,444.0,27.5,447.5,27.5,451.5,28.5,455.5,28.5,459.0,28.5,463.5,30.0,467.5,31.0,472.0,30.0,476.0,31.5,479.5,32.0,483.5,32.5,487.5,31.0,491.0,32.5,495.0,33.0,499.0,31.5,502.5" stroke="black" stroke-width="2" fill="none" />
<polyline points="69.0,435.5,66.5,436.0,66.5,432.0,66.0,432.0" stroke="black" stroke-width="2" fill="none" />
<polyline points="67.0,419.0,68.5,414.5,69.5,410.5,70.5,406.5,71.5,402.0,68.5,412.0" stroke="black" stroke-width="2" fill="none" />
<polyline points="67.5,406.0,71.0,402.5,74.5,400.0,78.5,394.5,80.0,386.0" stroke="black" stroke-width="2" fill="none" />
<polyline points="79.5,382.0,75.0,389.0,71.0,393.0,67.0,396.5,63.0,399.5,59.5,402.0,62.0,397.5,66.5,393.5,71.0,390.0,75.5,386.5,78.0,382.5,77.5,382.5,73.5,388.0,69.0,391.0,65.0,395.0,61.5,399.0,58.5,404.0,65.5,400.0,70.5,396.0,74.5,392.0,77.5,388.0,79.5,384.0,82.0,379.5,82.0,375.0,82.5,369.5,85.5,365.5,87.0,361.5,88.0,357.5,86.0,357.0,90.0,356.0,93.0,352.0,95.0,348.0,98.0,348.0,94.0,343.5,91.5,349.5,92.5,345.5,93.5,341.0,94.5,337.0,94.0,333.5,94.5,329.5,94.5,325.5,94.5,321.0,95.5,316.5,96.0,312.0,101.0,307.5,104.0,303.5,107.0,301.5,105.0,302.0,101.0,307.5,97.5,310.5" stroke="black" stroke-width="2" fill="none" />
<polyline points="89.5,308.5,83.5,312.0,87.5,309.0,91.5,307.5,97.0,305.0,101.0,303.0,105.0,299.5" stroke="black" stroke-width="2" fill="none" />
<polyline points="108.0,301.5,106.0,305.5,103.0,309.5,101.0,313.5,99.0,317.5,98.0,319.5,102.0,311.0,106.0,306.5" stroke="black" stroke-width="2" fill="none" />
<polyline points="115.5,308.5,111.5,313.5,107.5,317.0,103.0,322.5,103.5,318.5,107.5,314.0,108.5,311.0,107.5,313.0,103.5,317.5,105.5,320.5,110.5,316.0,114.5,312.5,117.0,308.5,116.5,307.0,112.5,314.5,108.5,317.0,104.5,321.0" stroke="black" stroke-width="2" fill="none" />
<polyline points="99.0,321.0,103.0,313.0,107.0,307.5,110.5,304.0,114.0,301.0,117.5,297.5" stroke="black" stroke-width="2" fill="none" />
<polyline points="120.5,303.5,117.0,304.5,115.5,308.5,112.0,313.0,108.0,317.0,104.5,321.0,100.5,327.5" stroke="black" stroke-width="2" fill="none" />
<polyline points="93.0,329.0,88.5,331.5,84.0,337.0,80.0,342.5,76.0,347.5,72.0,353.0,68.0,357.5,64.0,362.0,68.5,361.0,72.0,357.0,75.0,353.0,78.0,349.0,81.0,345.0,84.0,341.0,88.5,336.5,88.5,332.5,89.0,328.5,90.0,324.0,91.5,319.5,93.0,315.5,93.0,311.0,92.5,307.5,100.0,304.0,104.5,300.0,107.5,296.0,108.0,291.0,112.5,287.5,115.5,283.5,114.0,277.5,113.5,273.0,112.5,272.0" stroke="black" stroke-width="2" fill="none" />
<polyline points="111.0,270.5,115.0,271.0,111.0,272.5,112.5,276.5,110.0,278.0,112.0,283.5,108.0,287.5,115.0,285.0,116.0,283.0" stroke="black" stroke-width="2" fill="none" />
<polyline points="118.0,281.5,113.0,278.0,110.5,276.0,105.5,274.0,101.5,273.5,98.0,277.5,94.0,281.0,97.5,278.5,101.5,274.5,108.5,272.5,108.5,268.5,108.0,264.5,110.5,260.5,112.0,258.5,108.0,263.5" stroke="black" stroke-width="2" fill="none" />
<polyline points="113.5,265.5,116.5,260.5,114.0,265.0,116.5,269.5,125.0,275.5,129.0,279.0,133.0,278.0,137.0,274.0,141.0,269.5,145.0,266.0,149.0,262.5,152.5,264.5,157.0,260.5,163.5,253.5" stroke="black" stroke-width="2" fill="none" />
<polyline points="170.5,255.5,174.0,250.0,172.0,254.0,170.5,258.0,170.5,262.5,169.5,266.5,169.0,271.0,169.0,275.5,166.0,280.0,167.5,281.0" stroke="black" stroke-width="2" fill="none" />
<polyline points="165.0,276.5,165.5,276.0,166.0,272.0,167.5,268.5,165.5,264.0,167.5,260.0,166.5,265.5" stroke="black" stroke-width="2" fill="none" />
<polyline points="178.0,261.0,180.5,265.0" stroke="black" stroke-width="2" fill="none" />
<polyline points="182.0,263.5,178.0,256.5" stroke="black" stroke-width="2" fill="none" />
<polyline points="177.0,258.0,177.0,262.0" stroke="black" stroke-width="2" fill="none" />
<polyline points="179.5,262.5,175.5,255.5" stroke="black" stroke-width="2" fill="none" />
<polyline points="175.5,252.5,176.5,256.5,176.5,260.5,176.0,264.5" stroke="black" stroke-width="2" fill="none" />
<polyline points="187.5,269.0,186.5,265.0,186.0,261.0,185.5,257.0,184.0,254.0" stroke="black" stroke-width="2" fill="none" />
<polyline points="183.5,252.5,187.5,250.0,191.5,251.5,192.5,255.5,193.5,259.5,196.5,263.5,203.5,266.5" stroke="black" stroke-width="2" fill="none" />
<polyline points="224.5,271.5,221.0,275.5,224.5,271.5,228.0,271.0" stroke="black" stroke-width="2" fill="none" />
<polyline points="230.0,244.5,225.5,249.5,222.0,256.0,218.5,262.0,214.5,269.0,210.5,275.5,206.5,282.0,202.5,289.5,198.5,296.5,194.5,304.0,190.5,313.5,186.5,317.5,182.5,325.0,179.0,329.0,175.0,329.5,171.5,330.0,168.0,332.5,164.0,339.5,159.5,341.5,155.5,344.5,151.5,350.0,147.5,347.5" stroke="black" stroke-width="2" fill="none" />
<polyline points="144.5,342.5,147.0,338.5,145.5,338.5,149.5,337.0,149.0,333.0,151.0,329.0,149.0,330.5" stroke="black" stroke-width="2" fill="none" />
<polyline points="150.5,328.0,153.5,332.0,153.5,336.5" stroke="black" stroke-width="2" fill="none" />
<polyline points="147.5,340.0,146.0,344.0,146.0,348.5,145.5,352.5" stroke="black" stroke-width="2" fill="none" />
<polyline points="136.0,356.0,132.0,352.5" stroke="black" stroke-width="2" fill="none" />
<polyline points="130.0,353.0,130.5,359.0,134.0,363.0,136.0,369.0" stroke="black" stroke-width="2" fill="none" />
<polyline points="134.0,373.5,140.5,372.5,142.0,376.5,143.0,380.0,146.0,380.5,146.5,385.0" stroke="black" stroke-width="2" fill="none" />
<polyline points="142.0,385.0,140.0,380.0,136.0,375.0" stroke="black" stroke-width="2" fill="none" />
<polyline points="142.0,365.5,146.0,367.5" stroke="black" stroke-width="2" fill="none" />
<polyline points="145.0,367.0,141.0,362.5,141.5,356.0,137.5,355.5,138.5,349.5,134.5,345.5,133.5,341.0,132.0,337.0,131.0,333.5,125.0,334.5" stroke="black" stroke-width="2" fill="none" />
<polyline points="128.5,341.5,133.0,339.5,137.5,344.5" stroke="black" stroke-width="2" fill="none" />
<polyline points="138.0,352.0,134.0,348.0,130.0,343.0" stroke="black" stroke-width="2" fill="none" />
<polyline points="128.0,342.0,132.0,348.0,135.5,352.5" stroke="black" stroke-width="2" fill="none" />
<polyline points="131.5,358.5,135.5,362.5" stroke="black" stroke-width="2" fill="none" />
<polyline points="134.0,363.0,130.0,360.0,126.0,358.5,122.5,356.0" stroke="black" stroke-width="2" fill="none" />
<polyline points="122.0,356.5,125.5,360.5,125.5,364.5,130.5,366.0,130.5,370.0,135.0,370.0,139.0,370.0,145.5,373.5" stroke="black" stroke-width="2" fill="none" />
<polyline points="152.0,380.0,150.5,383.0,154.5,386.5" stroke="black" stroke-width="2" fill="none" />
<polyline points="142.0,389.0,140.5,393.5,138.0,398.0,136.5,402.5,132.0,407.0,128.5,411.0,129.0,414.5,132.0,419.0,135.0,422.0,138.5,426.0,139.5,430.5,140.5,434.5,138.0,440.0,139.0,444.0,138.0,448.5,138.0,452.5,136.5,456.0,133.5,459.5,132.5,463.5,136.0,468.0,137.0,468.5,141.0,468.5,145.0,473.5,149.0,477.0,152.5,479.0,156.0,482.0,160.0,483.0,164.0,485.5,167.0,489.0" stroke="black" stroke-width="2" fill="none" />
<polyline points="197.5,433.0,196.5,429.0" stroke="black" stroke-width="2" fill="none" />
<polyline points="199.0,425.5,199.0,429.0,197.0,431.0,195.5,435.0" stroke="black" stroke-width="2" fill="none" />
<polyline points="192.0,434.0,192.0,430.0,192.0,426.0" stroke="black" stroke-width="2" fill="none" />
<polyline points="173.5,422.0,170.0,415.5,161.5,414.5,157.5,409.5,153.5,405.0,150.0,403.0,147.0,397.5,146.5,391.0,142.0,385.5,139.5,391.5,136.0,389.0,136.0,385.0,140.5,382.0,139.0,377.5,136.0,374.0,134.0,372.5,138.5,368.5,142.5,364.0,143.0,360.0,143.0,356.5,142.0,353.0,136.0,350.5,132.0,347.0,129.5,343.0,131.0,339.0,130.0,335.0,131.5,331.0,130.5,327.5,127.5,322.0" stroke="black" stroke-width="2" fill="none" />
<polyline points="117.5,322.5,118.0,326.5,118.5,331.0,119.0,335.0,120.0,339.0,121.0,340.0" stroke="black" stroke-width="2" fill="none" />
<polyline points="118.0,340.5,118.5,343.0,118.0,346.0" stroke="black" stroke-width="2" fill="none" />
<polyline points="116.0,338.0,116.5,342.0,116.5,345.5,118.0,349.5,119.5,353.0,120.5,357.0,121.5,361.0,123.5,365.0,125.5,369.0,128.0,373.0,131.0,377.0,131.5,382.0,132.5,383.5,138.0,385.5,139.5,389.5" stroke="black" stroke-width="2" fill="none" />
<polyline points="134.5,394.0,130.5,398.0,126.5,396.5,122.5,393.0" stroke="black" stroke-width="2" fill="none" />
<polyline points="122.5,390.5,126.5,389.5,134.0,391.0" stroke="black" stroke-width="2" fill="none" />
<polyline points="128.5,380.0,124.5,377.0,124.5,371.5,121.0,366.0" stroke="black" stroke-width="2" fill="none" />
<polyline points="122.0,364.0,123.5,368.0,125.5,371.5,127.5,375.5,130.5,381.0" stroke="black" stroke-width="2" fill="none" />
<polyline points="131.0,375.5,127.0,368.0,122.5,360.0" stroke="black" stroke-width="2" fill="none" />
<polyline points="122.0,361.5,121.5,366.0,123.0,370.0,125.5,374.5,126.5,379.0,130.0,383.5,130.5,387.5,132.5,392.0,132.5,396.0,133.5,399.0" stroke="black" stroke-width="2" fill="none" />
<polyline points="126.5,402.0,122.0,398.0,119.5,393.5,119.5,389.5,120.5,387.0,120.0,383.0,120.0,380.0,121.5,376.0,120.5,375.5,121.0,372.0,120.5,373.0" stroke="black" stroke-width="2" fill="none" />
<polyline points="129.0,376.0,125.0,369.0,121.5,363.0" stroke="black" stroke-width="2" fill="none" />
<polyline points="125.0,360.0,131.5,364.0,133.5,368.0" stroke="black" stroke-width="2" fill="none" />
<polyline points="143.5,362.5,147.0,366.5" stroke="black" stroke-width="2" fill="none" />
<polyline points="141.5,349.5,137.0,347.5,136.5,344.0,135.5,340.0,134.0,335.5,133.0,331.0,132.0,326.5,130.5,322.5,130.0,318.5,129.5,315.0,129.0,311.0,125.5,303.5,128.5,301.0" stroke="black" stroke-width="2" fill="none" />
<polyline points="125.5,301.0,129.5,298.5,133.5,295.5,137.5,291.5" stroke="black" stroke-width="2" fill="none" />
<polyline points="138.0,288.5,133.5,293.0,129.5,295.0,125.0,298.0" stroke="black" stroke-width="2" fill="none" />
<polyline points="132.0,296.5,132.5,300.5" stroke="black" stroke-width="2" fill="none" />
<polyline points="125.5,310.0,126.0,314.0,125.0,316.5,126.0,320.5,128.0,324.5,127.0,328.5,127.0,332.5" stroke="black" stroke-width="2" fill="none" />
<polyline points="140.0,330.5,140.5,337.5,141.5,341.5,143.0,339.0" stroke="black" stroke-width="2" fill="none" />
<polyline points="157.5,344.5,156.5,348.5,154.5,352.5,157.0,356.0,156.5,359.5,156.0,363.5,155.0,367.5,155.0,372.0,157.0,375.5,156.0,379.5,153.0,381.5,153.5,387.5,153.0,391.5,152.5,395.5,156.5,399.5,162.0,404.0,166.0,408.5,169.0,410.0" stroke="black" stroke-width="2" fill="none" />
<polyline points="192.0,403.0,193.0,399.5,193.0,395.5,192.5,391.5" stroke="black" stroke-width="2" fill="none" />
<polyline points="190.5,390.5,191.0,394.5,190.5,398.5,190.0,402.5,189.5,406.5,189.5,411.0,189.5,415.0,189.5,419.5,190.0,424.0,189.5,428.0,189.0,432.0,188.5,436.0,188.0,439.5,185.5,440.5,182.0,444.5,185.0,445.0,189.5,445.5,193.5,446.5,197.5,445.0" stroke="black" stroke-width="2" fill="none" />
<polyline points="245.5,389.0,243.5,393.0,247.5,389.5,251.0,389.0,255.0,389.5,259.0,390.0,263.0,390.0,267.5,389.5" stroke="black" stroke-width="2" fill="none" />
<polyline points="265.5,385.5,261.5,385.5,258.0,385.0,254.0,384.0,253.0,382.0" stroke="black" stroke-width="2" fill="none" />
<polyline points="268.0,352.5,272.0,352.0,275.5,353.0,279.5,353.0,283.5,352.5" stroke="black" stroke-width="2" fill="none" />
<polyline points="293.5,348.5,297.5,347.5,302.0,346.5,306.0,347.0,310.5,347.0,314.5,346.0" stroke="black" stroke-width="2" fill="none" />
<polyline points="317.5,342.0,318.0,343.5,319.5,347.0" stroke="black" stroke-width="2" fill="none" />
<polyline points="320.5,347.0,316.5,350.5,312.5,350.5,308.5,352.0" stroke="black" stroke-width="2" fill="none" />
<polyline points="311.0,355.5,306.5,356.5,302.5,357.0,298.5,357.5,294.0,357.0" stroke="black" stroke-width="2" fill="none" />
<polyline points="293.0,359.0,297.0,361.0,301.5,359.5,306.0,360.0,310.0,358.0,310.0,358.0,309.0,361.5" stroke="black" stroke-width="2" fill="none" />
<polyline points="305.5,336.5,304.5,332.5,315.0,330.0,314.5,330.5,310.5,332.5,306.5,333.0" stroke="black" stroke-width="2" fill="none" />
<polyline points="308.0,327.0,304.0,325.5,301.0,325.0,297.0,324.0" stroke="black" stroke-width="2" fill="none" />
<polyline points="295.0,326.0,299.0,324.0,302.5,324.0,306.5,325.5" stroke="black" stroke-width="2" fill="none" />
<polyline points="319.0,327.0,320.5,324.0,322.0,320.0,321.5,316.0,321.0,312.0,321.0,308.0,320.5,304.0" stroke="black" stroke-width="2" fill="none" />
<polyline points="277.5,355.5,273.5,354.0,269.5,353.0" stroke="black" stroke-width="2" fill="none" />
<polyline points="221.5,368.0,221.0,364.0,220.5,360.5,220.0,356.5,219.5,352.0,219.5,348.0,223.5,343.0,222.5,339.5,222.0,334.0,222.0,330.0,221.0,326.0,221.0,322.0,220.5,318.0,220.5,313.5,220.0,309.5,220.0,306.0" stroke="black" stroke-width="2" fill="none" />
<polyline points="218.5,305.5,217.0,309.5,216.5,313.0,216.5,317.0,217.0,321.0,217.0,325.0,217.0,329.5,217.0,333.5,217.0,338.0,217.5,342.0,218.0,346.0,218.0,350.0,218.0,354.0,218.0,357.5" stroke="black" stroke-width="2" fill="none" />
<polyline points="165.5,359.0,162.0,363.0,165.0,360.0" stroke="black" stroke-width="2" fill="none" />
<polyline points="161.0,314.5,159.0,310.5,158.0,310.0" stroke="black" stroke-width="2" fill="none" />
<polyline points="156.5,311.5,161.0,313.5" stroke="black" stroke-width="2" fill="none" />
<polyline points="155.0,312.5,155.0,313.5,155.5,317.5" stroke="black" stroke-width="2" fill="none" />
<polyline points="164.5,300.0,163.5,295.5,170.0,290.5,173.5,286.5,172.5,283.0,169.5,287.5,165.5,290.5,163.0,289.5,165.5,286.5,169.5,282.0,174.0,278.5,174.5,281.0,173.0,280.0,169.5,283.5,166.5,284.5,163.5,285.5,161.0,288.0,163.5,286.0,162.5,282.0,163.0,278.0,161.0,276.5,162.0,272.0,162.5,268.0,166.0,264.5,167.5,260.5,168.0,257.0,171.0,253.0,174.0,248.5,175.0,244.5,175.5,240.5,174.5,236.5,179.0,233.0,175.5,236.0" stroke="black" stroke-width="2" fill="none" />
<polyline points="177.0,233.0,176.0,237.5,175.5,241.5,177.0,243.5,176.0,247.5,176.5,251.5,177.5,255.0,179.5,259.0,182.0,262.5" stroke="black" stroke-width="2" fill="none" />
<polyline points="174.0,278.0,171.5,282.5,168.0,286.5,166.5,289.0" stroke="black" stroke-width="2" fill="none" />
<polyline points="171.5,288.5,171.5,291.0,167.5,294.5,163.5,296.0,159.0,296.0,155.0,295.0,151.0,292.5" stroke="black" stroke-width="2" fill="none" />
<polyline points="153.0,294.0,157.0,298.0" stroke="black" stroke-width="2" fill="none" />
<polyline points="158.0,298.0,154.0,295.0" stroke="black" stroke-width="2" fill="none" />
<polyline points="154.0,294.5,158.5,298.5" stroke="black" stroke-width="2" fill="none" />
<polyline points="161.0,291.0,157.0,288.5,153.5,283.0" stroke="black" stroke-width="2" fill="none" />
<polyline points="153.5,279.5,154.5,283.5,158.0,288.0,163.5,292.5" stroke="black" stroke-width="2" fill="none" />
<polyline points="161.0,293.0,157.5,291.5,153.5,289.5" stroke="black" stroke-width="2" fill="none" />
<polyline points="158.0,300.5,154.5,297.0,152.0,293.0,152.0,289.0,151.0,283.5,150.5,279.0,150.5,273.0,153.0,269.0,156.5,265.0,160.0,261.0,163.0,257.0,164.0,253.0,165.5,249.0,166.5,245.0,167.5,240.5,169.5,239.0,164.0,245.0,160.0,253.0,155.0,259.0,151.0,259.5,146.0,259.5,141.5,260.0,137.5,266.0,135.0,266.5,135.0,260.5,132.0,263.0,128.5,264.5,127.0,267.0,132.0,262.0,131.5,257.5,130.5,253.5,128.0,249.5,129.5,245.5,136.0,245.0,136.0,241.0,139.5,237.5,137.0,233.5,135.0,230.0,133.5,226.5,132.0,222.5,131.5,218.5,131.0,215.0,129.0,211.0,127.0,207.0,125.5,202.5,124.0,198.5,123.0,194.5,121.5,190.5,121.0,186.5,120.0,182.0,119.5,177.5,119.5,173.5,119.5,169.5,120.0,165.0,121.0,161.0,121.0,157.5,122.0,153.5,122.5,149.5,123.5,145.5,124.0,141.5,124.5,137.5,125.0,133.0,126.0,129.5,127.0,125.5,128.5,121.5,130.0,118.0,131.0,114.0,133.0,110.5,135.0,106.5,137.5,106.0,139.5,101.5,139.5,101.5,135.5,106.5" stroke="black" stroke-width="2" fill="none" />
<polyline points="127.0,122.5,131.0,112.5,135.0,105.0,135.0,109.5,134.5,114.0,134.0,118.0,132.5,122.0,132.0,126.0,132.5,129.5,131.5,134.0,130.5,138.0,128.5,142.0,129.0,146.0,131.0,146.5,129.5,151.0,130.0,153.5,130.5,155.5,127.0,159.0,130.5,157.0,129.0,149.0" stroke="black" stroke-width="2" fill="none" />
<polyline points="130.0,152.5,134.5,154.5,133.0,155.5,134.0,160.0,136.0,162.0,132.0,166.0,128.0,170.0,131.5,167.0,134.0,162.0" stroke="black" stroke-width="2" fill="none" />
<polyline points="140.0,168.0,138.5,172.5,134.5,175.5,132.0,176.0,136.0,172.5" stroke="black" stroke-width="2" fill="none" />
<polyline points="134.0,174.5,130.5,178.5,136.0,177.0,140.0,172.5,141.0,169.0" stroke="black" stroke-width="2" fill="none" />
<polyline points="142.5,166.5,139.0,170.5,139.0,173.0,136.0,176.5,132.5,180.0,134.0,173.0" stroke="black" stroke-width="2" fill="none" />
<polyline points="139.0,175.5,135.5,179.5,134.0,181.0,138.0,177.0,140.5,173.0" stroke="black" stroke-width="2" fill="none" />
<polyline points="144.0,170.0,140.5,174.0,137.0,177.5,134.5,177.5" stroke="black" stroke-width="2" fill="none" />
<polyline points="135.0,184.5,139.0,180.0,143.0,176.5,145.5,173.5,142.5,177.0,138.0,181.0,136.0,185.5,138.5,189.5,139.0,193.0,144.5,195.5,147.0,199.5" stroke="black" stroke-width="2" fill="none" />
<polyline points="147.0,195.5,142.5,191.0" stroke="black" stroke-width="2" fill="none" />
<polyline points="140.0,192.5,139.0,196.5,136.5,200.0" stroke="black" stroke-width="2" fill="none" />
<polyline points="140.5,195.0,144.0,199.0,146.5,202.5,147.0,206.5,145.5,210.5,144.5,215.0,149.0,208.0,152.5,201.0" stroke="black" stroke-width="2" fill="none" />
<polyline points="148.5,199.0,146.5,195.0,145.5,190.5,143.5,188.5,143.0,183.5,147.5,179.5,147.5,177.0,148.0,176.5,144.0,180.5" stroke="black" stroke-width="2" fill="none" />
<polyline points="144.5,183.0,149.0,184.5,150.5,189.0,153.0,190.0" stroke="black" stroke-width="2" fill="none" />
<polyline points="151.0,190.0,147.0,185.0" stroke="black" stroke-width="2" fill="none" />
<polyline points="145.5,186.5,149.5,192.0,153.5,193.0,159.0,186.0,162.5,181.0,166.0,176.5,170.0,171.5,173.5,167.5,177.5,163.5,181.5,160.0,185.5,156.0,189.5,153.0,194.0,149.0,198.5,146.5,202.5,143.5" stroke="black" stroke-width="2" fill="none" />
<polyline points="202.5,135.0,198.5,131.0" stroke="black" stroke-width="2" fill="none" />
<polyline points="199.0,132.0,203.5,136.0,204.5,139.5,203.0,141.0,206.5,137.5,210.5,134.5,214.5,132.0,218.5,129.0,222.0,127.0" stroke="black" stroke-width="2" fill="none" />
<polyline points="225.0,126.0,219.0,129.5,213.5,133.5,208.5,137.5,209.5,138.5,213.5,135.5,217.0,133.0,221.0,130.0,225.0,127.5,229.0,125.0,232.5,122.0,236.5,120.0" stroke="black" stroke-width="2" fill="none" />
<polyline points="239.0,120.0,232.0,124.0,225.5,128.0,219.5,131.5,213.5,135.5,208.0,139.5,203.5,143.0,199.0,146.5,194.0,150.0,190.0,154.0,185.0,158.0,181.5,162.0,176.5,166.0,172.0,170.5,168.0,174.5,164.5,179.0,160.5,183.0,158.0,186.5,153.5,192.0,151.0,196.0,153.0,199.5,151.5,204.0,149.0,208.0,147.0,212.0,146.5,215.5,144.5,220.0,143.0,224.0,141.5,228.0,141.0,232.0,141.5,235.5,141.0,239.5,141.0,241.5,133.5,244.5,131.0,250.0,132.5,252.5,133.5,256.0,138.5,255.0,141.5,255.5" stroke="black" stroke-width="2" fill="none" />
<polyline points="137.5,256.0,134.0,255.5" stroke="black" stroke-width="2" fill="none" />
<polyline points="131.5,249.0,135.5,246.5,139.0,245.5,142.0,245.5" stroke="black" stroke-width="2" fill="none" />
<polyline points="145.5,243.5,142.0,242.5,138.0,244.5" stroke="black" stroke-width="2" fill="none" />
<polyline points="141.5,240.0,137.5,233.0,133.0,223.0" stroke="black" stroke-width="2" fill="none" />
<polyline points="140.5,227.0,144.5,218.0" stroke="black" stroke-width="2" fill="none" />
<polyline points="147.5,213.0,148.5,210.5,150.0,206.5" stroke="black" stroke-width="2" fill="none" />
<polyline points="145.0,199.0,141.0,194.0" stroke="black" stroke-width="2" fill="none" />
<polyline points="135.5,190.0,139.0,186.0,142.5,180.5" stroke="black" stroke-width="2" fill="none" />
<polyline points="148.5,180.5,144.5,181.0,143.5,186.0,139.5,189.5,134.5,191.0" stroke="black" stroke-width="2" fill="none" />
<polyline points="144.0,187.0,146.5,191.0,146.5,193.0" stroke="black" stroke-width="2" fill="none" />
<polyline points="149.5,201.0,145.5,201.5,141.5,196.0,140.0,195.0,138.5,195.0,138.0,194.5,136.5,191.5,137.5,187.5,141.5,183.5,143.5,179.5,148.0,175.5,147.0,171.5" stroke="black" stroke-width="2" fill="none" />
<polyline points="124.0,199.5,128.0,207.0" stroke="black" stroke-width="2" fill="none" />
<polyline points="116.5,227.5,113.5,231.5,115.0,229.5" stroke="black" stroke-width="2" fill="none" />
<polyline points="116.0,227.5,112.5,229.5,112.0,231.0,115.5,227.0" stroke="black" stroke-width="2" fill="none" />
<polyline points="124.0,252.5,119.0,256.5,115.0,260.0,111.5,264.0,115.0,259.0,119.0,254.5,123.0,252.0,127.0,246.5,131.0,244.5,135.0,240.0,141.0,238.0,147.0,234.5,151.0,229.5,155.5,226.5,159.5,223.0" stroke="black" stroke-width="2" fill="none" />
<polyline points="161.0,224.0,157.5,227.5,152.5,230.5,149.5,235.5,146.5,240.0,144.0,246.5,143.0,251.0,143.0,255.0,141.5,259.5,141.0,263.5,135.0,265.0,132.5,269.0,132.5,269.0,137.0,268.5" stroke="black" stroke-width="2" fill="none" />
<polyline points="126.5,271.5,122.5,275.0,118.5,277.0,114.0,280.0,109.0,278.5,105.0,280.5,101.0,281.5,104.5,282.5,100.5,283.5,96.0,285.5,94.0,284.5,93.0,280.5,94.0,276.5,102.0,272.5,107.0,269.0,103.0,272.0,99.0,274.5,95.0,277.0,91.0,278.5" stroke="black" stroke-width="2" fill="none" />
<polyline points="91.0,276.0,90.5,280.0,92.0,284.0" stroke="black" stroke-width="2" fill="none" />
<polyline points="91.5,284.0,95.5,288.5,100.0,287.5,103.5,284.5,107.5,283.0,111.5,280.0" stroke="black" stroke-width="2" fill="none" />
<polyline points="110.0,287.5,106.0,289.5,102.0,291.0,98.0,291.0,94.0,293.0,89.5,293.0,85.5,293.5,81.5,295.0,78.5,298.0,85.0,294.0" stroke="black" stroke-width="2" fill="none" />
<polyline points="88.0,294.0,81.5,297.0,85.0,295.0,89.0,294.5,93.0,294.0,98.5,296.5,102.5,296.0,107.0,295.5" stroke="black" stroke-width="2" fill="none" />
<polyline points="105.5,292.5,99.5,296.5,97.5,300.5,91.0,303.5,95.0,301.5,99.5,301.0" stroke="black" stroke-width="2" fill="none" />
<polyline points="101.5,294.5,96.5,297.0,101.0,294.5,104.5,293.5,108.5,292.0" stroke="black" stroke-width="2" fill="none" />
<polyline points="104.0,289.5,107.0,286.5" stroke="black" stroke-width="2" fill="none" />
<polyline points="123.5,284.0,122.5,288.5,121.0,292.5,118.5,296.5,113.5,300.5,109.0,304.5,105.0,308.5,102.5,312.5,100.0,316.5,98.0,320.5,98.5,325.0,99.5,329.0,100.5,331.0,97.0,335.0,93.5,340.5,98.0,338.0,102.0,335.5,106.0,330.5,110.5,325.0,114.5,317.0,119.0,308.5,122.0,301.0,124.0,302.5,125.5,309.0,132.5,313.0" stroke="black" stroke-width="2" fill="none" />
<polyline points="118.5,310.0,117.0,314.5,115.5,318.0,114.0,322.5,112.5,326.5,111.0,330.5,107.0,334.5,104.5,338.0,100.5,342.0,99.5,346.5,100.0,350.5,96.0,352.0,92.5,356.0,93.5,360.0,92.5,363.5,92.0,367.5,91.0,371.5,92.5,378.5,92.5,382.5,94.0,386.5" stroke="black" stroke-width="2" fill="none" />
<polyline points="105.5,381.5,105.5,377.5,106.0,373.5,106.0,369.0,107.5,365.0,108.5,360.5,108.0,356.5,109.0,352.5,106.5,346.0,106.0,342.0,107.5,342.5,108.0,343.5" stroke="black" stroke-width="2" fill="none" />
<polyline points="100.5,341.0,104.5,337.5,108.5,332.5,112.5,326.5,116.0,319.0" stroke="black" stroke-width="2" fill="none" />
<polyline points="116.5,324.0,115.5,328.0,117.0,328.5" stroke="black" stroke-width="2" fill="none" />
<polyline points="118.5,309.5,116.5,313.5,115.5,317.0,114.0,320.5,112.0,324.5,109.5,328.5,106.0,332.0,102.0,336.0,98.0,340.0" stroke="black" stroke-width="2" fill="none" />
<polyline points="106.0,355.0,106.5,358.5,105.0,362.5,104.0,366.5,103.0,371.0,102.5,375.0,102.5,378.5,102.0,382.5" stroke="black" stroke-width="2" fill="none" />
<polyline points="106.5,392.5,105.5,396.5,105.5,400.5,106.5,404.0" stroke="black" stroke-width="2" fill="none" />
<polyline points="106.5,393.5,107.5,397.5,109.5,401.5,109.5,405.5,107.0,409.5,100.0,414.0,102.0,415.0" stroke="black" stroke-width="2" fill="none" />
<polyline points="126.0,402.0,124.0,398.0,122.5,396.5,118.5,390.5" stroke="black" stroke-width="2" fill="none" />
<polyline points="124.0,382.5,125.0,386.5,127.0,388.0,124.0,391.5,128.5,396.0" stroke="black" stroke-width="2" fill="none" />
<polyline points="112.5,368.5,109.5,364.5,109.5,360.5" stroke="black" stroke-width="2" fill="none" />
<polyline points="114.0,361.5,112.0,357.5,110.5,353.5" stroke="black" stroke-width="2" fill="none" />
<polyline points="110.0,354.0,110.5,358.0,111.5,361.5,110.5,362.5,111.0,362.0,113.0,368.0" stroke="black" stroke-width="2" fill="none" />
<polyline points="84.0,353.5,80.0,360.0,76.0,367.0" stroke="black" stroke-width="2" fill="none" />
<polyline points="74.0,365.0,78.5,357.5,82.5,351.0,85.0,349.0,81.0,353.0,79.0,357.5,77.5,361.5,74.5,365.5,74.5,369.5,74.5,373.0" stroke="black" stroke-width="2" fill="none" />
<polyline points="23.0,365.5,22.5,369.5,20.5,373.5,22.0,367.0" stroke="black" stroke-width="2" fill="none" />
<polyline points="77.0,312.0,73.0,308.0" stroke="black" stroke-width="2" fill="none" />
<polyline points="74.0,305.0,74.5,305.0,74.5,308.5,78.5,313.0,76.0,317.5,69.5,321.5,72.5,320.0,77.0,317.5,81.0,315.5" stroke="black" stroke-width="2" fill="none" />
<polyline points="77.5,305.5,77.5,309.5,79.5,310.5,83.5,308.0,87.5,306.0,91.5,303.0" stroke="black" stroke-width="2" fill="none" />
<polyline points="124.5,284.5,125.0,288.5,123.0,293.0,121.0,297.5,117.5,301.5,111.5,305.5,107.0,309.5,104.0,313.0,106.5,309.0,110.5,305.5,114.5,302.0,118.5,298.0,123.5,296.0,128.5,293.0,132.5,287.0,136.5,286.5,140.5,284.5" stroke="black" stroke-width="2" fill="none" />
<polyline points="127.0,273.5,127.0,277.5,129.0,281.5,129.0,285.5,126.0,288.0,125.0,292.0,123.5,296.5,122.0,300.5,124.0,304.0,122.5,308.0,121.5,312.0,121.0,316.0,121.0,320.0,122.0,324.0,122.5,328.0,122.5,332.0,123.5,337.5" stroke="black" stroke-width="2" fill="none" />
<polyline points="173.5,317.0,176.0,310.5,174.0,306.0,172.0,299.5,171.0,295.0" stroke="black" stroke-width="2" fill="none" />
<polyline points="171.0,292.0,170.5,296.0,170.0,300.0,170.0,303.5,167.5,308.0,167.0,311.5,166.0,313.5,163.5,317.0,169.0,320.5,167.5,324.0,164.5,328.0,161.0,332.0,158.0,336.0,156.5,342.0,152.0,345.5,149.5,349.5,150.5,351.5,148.0,354.5,146.0,357.0,144.5,352.0,146.5,349.5,151.0,351.5,155.5,352.0,158.0,344.0,161.5,346.0,165.5,344.0,169.5,342.0" stroke="black" stroke-width="2" fill="none" />
<polyline points="122.5,272.0,118.5,269.5,114.5,267.5" stroke="black" stroke-width="2" fill="none" />
<polyline points="154.0,255.0,150.0,253.5,155.0,255.0,156.0,251.0" stroke="black" stroke-width="2" fill="none" />
<polyline points="165.5,231.5,163.0,235.0,160.0,239.0,161.0,238.5,165.5,233.0,167.0,229.0,171.0,228.0" stroke="black" stroke-width="2" fill="none" />
<polyline points="166.0,226.5,162.0,227.0" stroke="black" stroke-width="2" fill="none" />
<polyline points="201.5,161.5,206.0,162.0" stroke="black" stroke-width="2" fill="none" />
<polyline points="204.0,163.0,205.0,167.5,198.0,169.5,192.5,173.5,188.0,177.5,183.5,181.0,179.5,185.0,175.0,189.0,172.0,193.5,167.5,197.5,164.0,202.0,164.0,202.0,168.0,196.5,172.5,193.0,176.5,188.0,180.5,185.0,184.5,181.0,188.5,178.0,192.5,174.5,196.5,171.5,200.5,168.5" stroke="black" stroke-width="2" fill="none" />
<polyline points="218.0,145.5,214.0,141.5" stroke="black" stroke-width="2" fill="none" />
<polyline points="214.0,140.0,218.5,143.5,222.5,147.0" stroke="black" stroke-width="2" fill="none" />
<polyline points="228.5,128.0,225.0,130.5,221.5,133.0,217.5,135.5,214.0,138.0,210.5,141.0,206.0,145.0,202.0,148.5,197.5,152.5,199.0,150.5,203.0,146.5,208.0,142.5,213.0,138.0,218.0,134.0,224.0,130.5,230.0,126.5" stroke="black" stroke-width="2" fill="none" />
<polyline points="206.0,116.5,199.0,120.0,196.0,122.0,199.5,119.5,203.5,117.0" stroke="black" stroke-width="2" fill="none" />
<polyline points="198.5,108.0,195.5,110.5" stroke="black" stroke-width="2" fill="none" />
<polyline points="192.5,119.0,186.5,123.5,181.0,127.5,182.0,126.5,186.0,123.5,190.0,121.5" stroke="black" stroke-width="2" fill="none" />
<polyline points="189.5,119.0,183.5,123.0,178.0,126.5,179.0,126.0,183.5,123.0,187.5,120.0" stroke="black" stroke-width="2" fill="none" />
<polyline points="193.5,131.0,188.5,135.5,187.5,136.5,191.5,133.5" stroke="black" stroke-width="2" fill="none" />
<polyline points="156.5,126.5,151.5,130.5,147.0,135.0,151.0,132.0,155.0,129.5" stroke="black" stroke-width="2" fill="none" />
<polyline points="132.5,129.5,131.0,134.5,127.0,139.0" stroke="black" stroke-width="2" fill="none" />
<polyline points="156.0,77.5,152.5,84.0,155.0,80.0,156.5,76.5" stroke="black" stroke-width="2" fill="none" />
<polyline points="160.5,69.0,157.5,71.5,153.5,76.5,153.5,77.0,155.0,73.0,158.5,68.0,160.0,64.5" stroke="black" stroke-width="2" fill="none" />
<polyline points="162.5,65.0,161.0,69.0,161.5,65.0,166.5,61.5,171.0,61.5,174.5,59.5" stroke="black" stroke-width="2" fill="none" />
<polyline points="208.5,50.5,212.0,48.5" stroke="black" stroke-width="2" fill="none" />
<polyline points="229.5,47.0,224.0,51.0,227.5,48.0,231.5,48.0,235.5,48.5,239.0,49.0,243.0,49.5,246.5,50.5,250.5,52.0,254.0,53.5,258.0,54.5,262.5,56.5,266.5,59.0,271.0,61.5,275.0,64.0,279.5,67.0,283.5,69.5,288.0,72.5,292.0,76.5,296.5,77.5,300.5,80.5,304.5,86.5,308.5,91.5,312.0,97.5,315.5,100.0,319.5,103.5,323.5,108.5,327.5,114.5,331.5,123.0,335.5,130.0,339.5,133.5,343.5,139.0,347.5,147.0,351.5,145.0,355.5,142.5,360.0,139.5,364.0,137.5,368.0,135.5,372.0,132.5,376.0,129.5,380.0,126.5,384.0,123.5,388.0,121.0,392.0,118.0,395.5,115.0,398.5,113.5,402.5,113.0,406.5,113.5,410.5,113.0,414.5,114.5,418.5,122.0" stroke="black" stroke-width="2" fill="none" />
<polyline points="414.5,114.5,418.5,118.5,420.0,122.5,421.0,126.0,421.5,130.0,421.0,134.0,420.5,138.0,419.0,142.0,418.0,146.0,417.0,150.5,416.5,154.5,414.5,158.5,413.0,162.5,412.0,166.5,411.0,171.0,409.5,175.5,408.0,179.0,405.5,183.0,402.0,187.0,397.0,190.5,393.5,194.5,389.5,198.5,385.5,202.5,380.0,206.5,373.5,210.0,367.0,214.5,370.5,212.0,374.5,209.5,379.0,206.5,383.0,203.5,387.0,199.5,391.0,195.5,395.0,191.5,399.0,187.0,403.0,184.5,407.0,178.0,411.0,169.0,415.0,157.5" stroke="black" stroke-width="2" fill="none" />
<polyline points="405.5,156.5,401.5,160.5,397.0,164.5,392.5,168.5,388.0,173.0,388.5,172.5,392.5,169.5,396.5,166.0,400.5,162.0,404.5,158.0" stroke="black" stroke-width="2" fill="none" />
<polyline points="402.5,164.0,405.0,157.5,403.5,162.0,403.5,166.5,397.0,171.0,389.5,175.0,382.5,179.5" stroke="black" stroke-width="2" fill="none" />
<polyline points="375.5,183.0,365.0,187.0,358.5,191.0,351.0,195.0,342.5,199.0,337.0,203.0,336.5,206.5,341.5,209.0,346.0,212.5,351.0,213.0" stroke="black" stroke-width="2" fill="none" />
<polyline points="355.5,205.5,351.5,200.0" stroke="black" stroke-width="2" fill="none" />
<polyline points="351.0,200.0,354.0,204.0,356.0,207.5" stroke="black" stroke-width="2" fill="none" />
<polyline points="362.0,202.5,358.5,194.5" stroke="black" stroke-width="2" fill="none" />
<polyline points="358.5,192.5,359.0,196.0,360.0,200.0,362.0,204.0,362.0,208.0" stroke="black" stroke-width="2" fill="none" />
<polyline points="347.5,205.5,343.0,200.5" stroke="black" stroke-width="2" fill="none" />
<polyline points="339.5,202.0,343.5,204.5,347.5,207.5,352.0,210.0,353.5,207.5" stroke="black" stroke-width="2" fill="none" />
<polyline points="344.5,209.0,340.5,206.5" stroke="black" stroke-width="2" fill="none" />
<polyline points="340.0,204.5,344.0,207.5,348.5,211.5,352.5,216.5,356.5,224.5" stroke="black" stroke-width="2" fill="none" />
<polyline points="343.0,217.5,339.0,210.0" stroke="black" stroke-width="2" fill="none" />
<polyline points="342.5,205.5,347.5,209.5,351.0,214.0" stroke="black" stroke-width="2" fill="none" />
<polyline points="339.0,203.5,341.5,207.0,347.0,211.0,350.5,214.5,353.5,218.5,355.5,222.0,358.0,227.5,360.0,231.5,362.0,235.0,363.0,239.5,363.5,243.5,364.0,247.0" stroke="black" stroke-width="2" fill="none" />
<polyline points="365.5,245.5,365.5,249.5" stroke="black" stroke-width="2" fill="none" />
<polyline points="370.5,248.5,370.5,252.5,371.0,257.0,372.5,261.0,373.0,265.0,373.5,268.5,372.0,273.0,373.5,274.0,372.5,277.0,372.5,281.5,373.0,285.5" stroke="black" stroke-width="2" fill="none" />
<polyline points="341.0,254.5,344.5,250.0,349.5,246.0,353.0,242.0" stroke="black" stroke-width="2" fill="none" />
<polyline points="348.0,238.5,346.5,234.5,345.0,230.5,343.5,226.5,343.0,222.5,341.5,218.5,341.5,215.0,340.5,211.0,337.0,204.0" stroke="black" stroke-width="2" fill="none" />
<polyline points="335.0,202.5,338.5,200.0,342.5,197.0,346.5,195.0,350.5,193.0,354.5,190.5,359.0,189.0,363.0,187.0,367.0,185.5,371.0,184.0,375.0,182.5,379.0,181.0,383.0,180.0,387.0,177.5,391.0,175.0,395.0,173.0,398.5,171.0,403.0,169.0,407.0,168.0,404.0,171.0,402.0,175.0,398.5,179.0,393.5,183.0,387.5,187.0,381.5,189.5,385.5,188.0,389.0,186.0,393.0,182.5,397.0,179.0,400.5,174.5" stroke="black" stroke-width="2" fill="none" />
<polyline points="395.0,153.0,391.0,159.0,387.0,166.0,383.5,173.0,381.5,176.0,384.0,172.0,386.5,168.0,388.5,164.5,391.0,160.5,393.5,156.5,396.5,152.5" stroke="black" stroke-width="2" fill="none" />
<polyline points="395.0,123.0,391.0,126.5,387.0,129.5,383.0,132.5,381.5,134.0,387.5,129.5,392.5,125.0,397.5,120.5" stroke="black" stroke-width="2" fill="none" />
<polyline points="396.5,121.0,391.0,125.0,385.5,129.0,381.0,133.0,384.5,129.5,388.5,126.5,392.0,124.0,395.5,120.5" stroke="black" stroke-width="2" fill="none" />
<polyline points="400.0,113.0,393.5,117.5,388.5,121.5,382.5,125.5,377.0,129.0,371.0,133.0,364.5,137.5,357.0,141.5,350.5,145.5" stroke="black" stroke-width="2" fill="none" />
<polyline points="368.0,132.0,369.0,130.5,369.0,126.5" stroke="black" stroke-width="2" fill="none" />
<polyline points="387.0,105.5,383.0,100.0,379.0,96.0" stroke="black" stroke-width="2" fill="none" />
<polyline points="378.0,97.0,382.0,101.0,384.0,105.0,388.5,109.5" stroke="black" stroke-width="2" fill="none" />
<polyline points="441.5,69.5,437.5,63.0,434.0,56.0,430.0,50.0,426.0,42.5,422.0,34.0,418.0,27.5,414.0,19.5,410.0,12.5,406.0,5.5" stroke="black" stroke-width="2" fill="none" />
<polyline points="513.5,74.5,510.5,78.5,507.0,82.0,504.0,85.5,499.5,89.0,495.0,94.5,492.0,98.5,488.0,102.5,484.5,107.0,482.0,111.0,478.5,114.5,476.0,119.0,474.0,123.0,471.5,126.5,470.0,130.5,466.0,135.0,464.0,139.0,462.0,143.5,457.5,148.5,456.0,153.0,454.0,157.0,451.0,161.0,448.5,165.5,446.0,170.0,444.0,174.5,442.5,179.0,439.0,184.0,436.5,188.0,435.0,191.5,432.5,196.0,430.5,200.0,428.5,204.0,427.5,208.0,426.0,212.0,425.0,217.0,421.0,221.0,420.5,225.0,418.5,228.5,417.0,232.5,415.5,237.0,413.5,241.0,411.5,245.0,410.5,248.5,411.0,251.0,408.5,255.0,407.0,259.0,406.5,263.0,404.5,267.0,404.0,270.5,402.5,275.0,400.5,278.5,400.0,282.0,399.5,286.0,398.5,290.0,397.5,294.0,397.5,298.0,396.0,302.0,395.0,306.5,393.5,310.5,392.5,314.5,392.0,318.5,391.5,322.5,390.0,326.5,389.0,330.5,388.0,334.5,387.0,338.5,387.5,342.5" stroke="black" stroke-width="2" fill="none" />
<polyline points="370.5,244.0,371.5,239.5,371.5,235.5,370.5,231.5" stroke="black" stroke-width="2" fill="none" />
<polyline points="377.5,191.0,373.5,193.0,369.5,194.0,365.5,193.5,361.5,188.5" stroke="black" stroke-width="2" fill="none" />
<polyline points="362.0,190.5,364.5,194.5" stroke="black" stroke-width="2" fill="none" />
<polyline points="298.0,224.0,293.0,228.0,288.0,231.5,285.0,234.0,289.0,231.0,293.0,227.0,297.0,224.0" stroke="black" stroke-width="2" fill="none" />
<polyline points="257.5,179.5,254.0,178.0,250.0,174.0" stroke="black" stroke-width="2" fill="none" />
<polyline points="252.0,162.5,256.0,165.5,260.0,166.0,264.0,164.0,268.5,162.5,260.5,165.5" stroke="black" stroke-width="2" fill="none" />
<polyline points="257.5,164.5,252.5,160.0" stroke="black" stroke-width="2" fill="none" />
<polyline points="237.5,99.0,232.0,103.0,226.0,104.0,222.0,107.5,225.5,104.0,229.5,104.0,233.5,101.0,238.0,98.0" stroke="black" stroke-width="2" fill="none" />
<polyline points="237.0,96.5,232.0,100.5,235.5,98.0" stroke="black" stroke-width="2" fill="none" />
<polyline points="246.5,91.0,242.0,93.0,248.0,89.0" stroke="black" stroke-width="2" fill="none" />
<polyline points="262.5,86.5,258.5,88.0,254.5,90.0,250.5,92.5,246.5,94.0,242.5,96.0,238.5,99.0,234.5,101.5,230.5,104.5,227.0,107.0,223.0,109.5,219.0,112.0,215.0,114.5,210.5,118.0,207.0,121.0,203.5,125.0,199.5,128.5,196.0,132.5,192.5,136.0,188.5,139.5,184.5,143.5,180.5,147.5,176.0,151.0,172.0,155.5,167.5,159.5,163.0,163.5,159.0,166.5,155.0,171.0,153.0,173.5,156.0,170.0,160.0,166.0,164.5,162.0,168.5,158.0,173.5,154.0,177.0,149.5,181.0,145.5,185.5,141.5,190.0,138.0,195.0,134.0,199.5,130.5,204.0,126.5,208.5,122.5,214.0,118.5,219.0,114.5,224.5,110.5,231.0,106.0,236.5,102.0,242.5,98.5,248.0,94.0,255.0,90.0,264.0,86.0" stroke="black" stroke-width="2" fill="none" />
<polyline points="236.5,79.5,229.5,84.0,225.0,88.0,226.5,86.0,230.0,83.0,234.0,81.0" stroke="black" stroke-width="2" fill="none" />
<polyline points="232.5,50.0,236.0,47.5" stroke="black" stroke-width="2" fill="none" />
<polyline points="252.0,50.5,262.5,55.0,269.0,59.0,275.0,63.5,281.0,67.5,286.5,71.5,291.0,75.5,298.5,79.5,301.0,83.5,304.0,88.0,307.0,92.0,310.0,96.0,315.0,99.5,319.5,103.5,323.0,107.5,325.5,111.5,328.0,115.5,329.5,119.5,331.5,123.5,333.5,127.5,336.5,131.5,341.0,135.5,343.5,139.0,345.0,143.0,347.5,147.0" stroke="black" stroke-width="2" fill="none" />
</svg>