<svg xmlns="http://www.w3.org/2000/svg" version="1.1"><polyline points="406.5,2.5,406.5,6.0,408.5,10.5,410.5,14.5,412.0,18.5,414.0,22.5,416.0,26.5,417.5,30.0,420.0,34.0,421.5,38.0,423.5,42.5,426.0,46.5,428.5,50.5,431.0,54.5,434.0,58.5,436.0,62.5,438.5,66.5,441.5,70.0" stroke="#ada71e" stroke-width="2" fill="none" />
<polyline points="455.5,59.5,451.5,51.5,447.5,46.0,443.5,38.5,440.5,33.5,436.5,26.0,432.5,20.0,429.0,13.5,425.0,8.0" stroke="#41ec5" stroke-width="2" fill="none" />
<polyline points="425.0,2.5,425.0,6.5,426.5,10.0,429.0,14.0,432.0,18.0,434.0,22.5,435.5,26.5,438.0,30.5,439.5,34.0,442.0,38.0,444.0,41.5,446.5,45.5,449.0,50.0,451.5,54.0,454.5,57.5,457.0,61.0,455.0,65.0,451.5,69.0,447.0,73.0,444.0,77.0,441.5,81.0,439.0,85.5,435.0,89.5,432.5,93.5,430.0,97.5,427.5,101.0,424.0,105.5,421.5,109.5,419.0,113.5,419.5,113.5,423.0,107.5,427.5,101.0,431.5,94.5,435.5,89.5,439.5,83.5,443.5,77.0,447.5,72.5,451.5,68.5,455.0,63.5,460.0,55.0,464.0,50.5,468.5,47.5,473.0,43.0,477.0,39.0,481.0,35.0,485.0,31.0,489.5,27.0,493.5,22.5,498.5,18.0,502.5,15.0,506.5,12.0,510.5,8.0" stroke="#bbeb5c" stroke-width="2" fill="none" />
<polyline points="512.0,7.0,506.0,10.5,502.0,15.0,497.0,19.0,494.5,22.0,490.0,26.5,486.0,30.5,482.5,35.5,477.5,39.5,474.0,43.0,470.0,47.0,466.5,51.0,462.5,54.5,459.0,58.0" stroke="#4ce4fb" stroke-width="2" fill="none" />
<polyline points="441.5,69.0,437.5,63.0,434.0,55.5,430.0,49.5,426.5,42.5,422.0,34.0,417.5,28.0,413.5,21.0,409.5,14.5,405.5,8.0" stroke="#d1257" stroke-width="2" fill="none" />
<polyline points="379.0,96.5,382.5,101.0,387.0,107.0" stroke="#e57bcf" stroke-width="2" fill="none" />
<polyline points="388.5,109.5,384.5,106.0,382.5,102.0,379.5,98.0" stroke="#b3bbde" stroke-width="2" fill="none" />
<polyline points="399.5,114.0,392.5,118.0,387.5,122.0,382.0,125.5,377.0,129.0,371.0,133.0,364.5,137.0,357.5,141.0,351.0,145.0" stroke="#335a1b" stroke-width="2" fill="none" />
<polyline points="338.0,153.0,331.0,157.5,325.0,161.0,318.0,165.0,312.0,169.0,306.0,173.0,300.5,177.0,296.0,180.5" stroke="#924df4" stroke-width="2" fill="none" />
<polyline points="290.5,177.5,286.5,176.0" stroke="#7b1676" stroke-width="2" fill="none" />
<polyline points="281.5,174.0,285.5,173.5,289.5,174.0,294.0,178.5" stroke="#5f5f21" stroke-width="2" fill="none" />
<polyline points="287.5,179.0,283.0,177.0,279.0,175.0" stroke="#df4ba" stroke-width="2" fill="none" />
<polyline points="276.5,176.5,277.0,180.0" stroke="#109f8b" stroke-width="2" fill="none" />
<polyline points="279.0,178.5,274.5,178.0,270.5,178.5,267.0,177.5,262.5,176.0,258.5,175.5,253.5,175.5,249.0,170.5,245.0,170.0,241.0,168.0" stroke="#22c1c5" stroke-width="2" fill="none" />
<polyline points="246.0,170.0,242.5,174.0,242.0,178.5,240.0,182.5,235.0,185.0,239.0,182.5,244.5,180.5,248.5,180.5,252.0,178.0" stroke="#8b112f" stroke-width="2" fill="none" />
<polyline points="251.0,178.0,247.0,182.0,242.5,185.0,245.0,187.0,242.0,191.5,238.5,195.0,236.5,199.0,234.5,203.0,232.5,207.0,229.0,210.5,230.5,210.5,230.0,209.5,234.5,208.5" stroke="#388b3c" stroke-width="2" fill="none" />
<polyline points="235.0,208.5,235.5,204.5,237.5,201.0,234.5,202.5" stroke="#68e764" stroke-width="2" fill="none" />
<polyline points="237.0,201.5,236.5,205.5" stroke="#ba4ebd" stroke-width="2" fill="none" />
<polyline points="241.5,210.5,246.0,211.0,250.0,211.5" stroke="#8a3063" stroke-width="2" fill="none" />
<polyline points="259.0,210.0,263.5,202.5,261.0,202.5,259.0,206.5,257.5,210.0,256.5,213.5,254.5,218.5,251.0,222.0,248.0,226.0,244.0,229.5,240.5,233.5,238.5,237.5,235.0,241.5" stroke="#e697b" stroke-width="2" fill="none" />
<polyline points="234.5,224.0,230.5,222.0" stroke="#a2cba" stroke-width="2" fill="none" />
<polyline points="230.0,219.5,233.5,222.0" stroke="#5d748e" stroke-width="2" fill="none" />
<polyline points="228.0,228.0,224.0,219.5,226.5,214.5" stroke="#e8b3c8" stroke-width="2" fill="none" />
<polyline points="219.5,212.5,219.0,216.5,220.0,220.5,220.0,224.5,220.5,229.0,223.0,230.5,220.5,233.0,226.5,233.5,223.0,237.0,223.0,241.0,221.0,245.0,220.0,249.0" stroke="#80dc48" stroke-width="2" fill="none" />
<polyline points="219.0,248.0,220.5,244.0,223.0,240.0,222.5,236.5,222.0,232.5,218.5,233.5" stroke="#cf7b8b" stroke-width="2" fill="none" />
<polyline points="219.5,233.0,220.0,237.0" stroke="#1e2e91" stroke-width="2" fill="none" />
<polyline points="213.0,237.5,214.0,241.5,213.5,245.5,212.5,250.0,213.5,251.0,214.0,254.5,215.0,255.5" stroke="#6cb6b5" stroke-width="2" fill="none" />
<polyline points="216.0,249.5,216.0,246.0,215.5,242.0,212.5,238.5,212.5,237.0" stroke="#5dfcfe" stroke-width="2" fill="none" />
<polyline points="210.5,236.5,211.5,234.5,210.5,239.0,210.0,243.0,209.5,244.5" stroke="#e7d8de" stroke-width="2" fill="none" />
<polyline points="214.5,246.5,215.0,250.5,218.0,254.5" stroke="#8d4417" stroke-width="2" fill="none" />
<polyline points="212.5,255.5,209.5,250.5,206.5,249.0,208.0,244.5,209.0,240.5,210.0,236.0,211.0,232.0,209.0,236.5" stroke="#4a5727" stroke-width="2" fill="none" />
<polyline points="209.5,227.0,205.5,221.0" stroke="#578a82" stroke-width="2" fill="none" />
<polyline points="210.5,215.0,214.0,221.0" stroke="#b18f7e" stroke-width="2" fill="none" />
<polyline points="213.0,216.0,215.0,220.0,217.0,226.0,219.5,230.0,218.0,234.0" stroke="#77a32" stroke-width="2" fill="none" />
<polyline points="232.0,244.5,228.0,249.5,224.0,256.0,219.5,262.0,215.5,269.0,211.0,275.0,206.5,281.0,202.5,288.0,198.5,295.5,194.5,303.5,190.5,312.5,186.5,316.5,182.5,324.5,178.5,329.0,174.5,329.0,170.5,329.5,166.5,332.0,162.0,339.0,158.0,341.0,154.5,344.5,150.5,350.5,146.5,347.5" stroke="#d5bb52" stroke-width="2" fill="none" />
<polyline points="145.0,343.0,147.5,339.5,145.5,339.0,149.0,336.5,147.5,332.5,149.0,328.0,147.0,330.0" stroke="#6b6ecf" stroke-width="2" fill="none" />
<polyline points="150.5,329.0,153.5,333.0,152.5,337.5" stroke="#7f853a" stroke-width="2" fill="none" />
<polyline points="149.0,341.5,147.5,346.0,147.5,349.5,146.5,353.0" stroke="#e16" stroke-width="2" fill="none" />
<polyline points="147.0,361.5,151.0,367.5,151.5,372.0,151.5,376.0,153.5,380.0,154.5,384.0,156.0,389.0,159.5,394.5,161.0,398.5,160.0,402.5,160.0,406.5,161.5,410.5,161.0,414.5,162.5,418.5,163.0,423.0,161.0,427.0,161.5,420.5,160.0,424.0,160.0,427.5,162.0,424.5" stroke="#a3fd37" stroke-width="2" fill="none" />
<polyline points="167.5,427.5,169.0,431.5,170.5,435.5,169.5,438.5,169.0,439.0,174.0,438.5" stroke="#877b2b" stroke-width="2" fill="none" />
<polyline points="178.0,439.5,174.5,443.5,178.5,442.5,182.5,444.0,186.5,440.0" stroke="#b0b85f" stroke-width="2" fill="none" />
<polyline points="177.5,445.0,173.5,444.0" stroke="#cb4ed1" stroke-width="2" fill="none" />
<polyline points="176.0,445.0,175.5,449.0,176.5,453.5,176.0,457.5" stroke="#855b3" stroke-width="2" fill="none" />
<polyline points="174.0,462.0,170.0,455.5" stroke="#d2a4a3" stroke-width="2" fill="none" />
<polyline points="170.0,455.0,172.5,459.0,172.0,463.5,170.0,467.5,166.5,468.5" stroke="#502b1" stroke-width="2" fill="none" />
<polyline points="166.5,469.0,162.5,469.0,157.0,472.0,153.0,469.0,149.0,462.5,144.5,454.0,140.5,451.5,136.5,456.5,132.5,465.5" stroke="#51c520" stroke-width="2" fill="none" />
<polyline points="139.0,464.0,140.5,468.0,143.0,472.0,147.5,476.0,152.0,480.5,154.0,485.5,151.5,483.0,155.5,483.5,157.5,488.5,161.5,494.5,164.5,493.0,167.0,499.5" stroke="#3926ad" stroke-width="2" fill="none" />
<polyline points="164.0,505.0,166.0,506.0,168.5,509.5" stroke="#c89066" stroke-width="2" fill="none" />
<polyline points="165.5,498.5,161.5,496.0" stroke="#bcd3f0" stroke-width="2" fill="none" />
<polyline points="159.5,501.5,161.5,505.5,163.5,509.5" stroke="#1e2a1" stroke-width="2" fill="none" />
<polyline points="156.0,510.5,152.0,505.5" stroke="#6ffae8" stroke-width="2" fill="none" />
<polyline points="153.0,497.5,149.5,492.0" stroke="#fb8b3d" stroke-width="2" fill="none" />
<polyline points="149.0,496.5,153.5,503.0" stroke="#f7a585" stroke-width="2" fill="none" />
<polyline points="152.5,492.5,152.0,487.0,148.0,483.5" stroke="#1f4ab" stroke-width="2" fill="none" />
<polyline points="150.0,481.0,149.5,485.0,152.5,489.5,155.0,490.0,155.5,494.0,156.0,498.5,158.0,503.0,158.5,507.0,159.5,508.0,166.0,511.5" stroke="#b0b84" stroke-width="2" fill="none" />
<polyline points="151.5,510.0,147.5,500.5,143.0,495.5" stroke="#3deb77" stroke-width="2" fill="none" />
<polyline points="144.0,495.0,147.0,499.0,149.0,503.0,150.5,507.5,151.5,512.0" stroke="#b07b5a" stroke-width="2" fill="none" />
<polyline points="155.5,506.0,151.0,503.0,147.0,495.5,145.5,491.0,141.5,482.5" stroke="#24337" stroke-width="2" fill="none" />
<polyline points="140.5,484.5,142.5,488.5,144.5,492.0,147.0,496.0,150.0,500.0,152.5,504.0,152.5,508.0,155.0,512.0" stroke="#9291ed" stroke-width="2" fill="none" />
<polyline points="153.5,505.5,154.5,503.5,151.5,499.5,149.0,495.5,144.0,491.5,140.0,484.5" stroke="#3ab5f5" stroke-width="2" fill="none" />
<polyline points="135.5,484.5,137.0,489.0,136.5,491.0,138.5,495.0,138.0,498.5,139.5,502.5,139.5,506.0" stroke="#a9926b" stroke-width="2" fill="none" />
<polyline points="141.5,513.5,143.0,510.0,141.0,506.0,140.5,501.5,139.5,497.5,135.0,492.5,134.0,486.5" stroke="#b3d4c" stroke-width="2" fill="none" />
<polyline points="134.0,483.0,138.0,486.5,137.5,494.0" stroke="#805aaa" stroke-width="2" fill="none" />
<polyline points="128.5,499.5,132.5,508.0" stroke="#7a9992" stroke-width="2" fill="none" />
<polyline points="132.0,511.0,128.0,505.0,123.5,497.0" stroke="#ca9582" stroke-width="2" fill="none" />
<polyline points="125.5,499.5,127.5,503.5,126.5,507.0,127.0,510.5" stroke="#33d5e8" stroke-width="2" fill="none" />
<polyline points="122.5,510.0,123.5,506.0,123.5,502.0,123.5,498.5,123.0,493.5,122.5,491.5" stroke="#d9dcaa" stroke-width="2" fill="none" />
<polyline points="120.0,484.0,120.5,487.5,120.0,491.5,120.0,495.5,121.5,499.5,121.0,504.0,121.0,508.0,121.0,512.5" stroke="#c726c9" stroke-width="2" fill="none" />
<polyline points="127.0,505.0,129.5,509.0,132.0,512.5" stroke="#8bfeb1" stroke-width="2" fill="none" />
<polyline points="109.0,510.0,109.5,506.0,110.0,501.5,110.5,497.0,112.0,493.0,112.5,488.5,113.0,486.5" stroke="#e1cb3" stroke-width="2" fill="none" />
<polyline points="113.0,488.0,113.5,492.0,113.0,496.0,111.0,500.0,110.5,504.0,109.5,508.0,108.5,512.0" stroke="#6ab343" stroke-width="2" fill="none" />
<polyline points="104.0,505.0,100.0,500.0" stroke="#b2478" stroke-width="2" fill="none" />
<polyline points="99.0,491.5,98.5,495.5,100.0,500.0,102.0,504.0,104.5,508.0,106.5,512.0" stroke="#eb892d" stroke-width="2" fill="none" />
<polyline points="104.5,510.5,102.5,506.5,100.0,502.5,97.5,498.5,96.5,495.0,96.0,491.0" stroke="#5f8b0" stroke-width="2" fill="none" />
<polyline points="95.5,469.0,92.0,473.0,93.0,472.0,96.5,468.0" stroke="#b6015" stroke-width="2" fill="none" />
<polyline points="93.5,455.0,87.5,459.0,86.0,459.5,90.0,457.0,94.5,454.5" stroke="#416340" stroke-width="2" fill="none" />
<polyline points="95.0,451.0,90.5,455.0,84.5,458.5,86.5,456.5,91.0,454.5,95.0,451.0" stroke="#d42ab9" stroke-width="2" fill="none" />
<polyline points="110.0,447.0,109.5,442.5,109.0,440.5" stroke="#38ac53" stroke-width="2" fill="none" />
<polyline points="105.0,438.0,105.0,442.0,103.5,446.0" stroke="#297079" stroke-width="2" fill="none" />
<polyline points="102.5,439.5,98.5,442.5,101.5,440.0,103.5,435.5" stroke="#f56171" stroke-width="2" fill="none" />
<polyline points="102.5,435.5,99.0,440.0,96.0,445.0,94.0,443.5,93.5,448.0,93.5,444.0,98.5,439.5,102.5,435.5,104.5,431.0,105.0,427.5,105.0,424.0,105.0,420.5,109.0,418.5,105.5,420.0" stroke="#f0ab2" stroke-width="2" fill="none" />
<polyline points="110.0,416.0,111.0,420.0,110.0,424.0,109.5,428.0,109.0,432.5,107.5,436.5,107.0,441.0,108.0,448.0" stroke="#5d22e3" stroke-width="2" fill="none" />
<polyline points="120.5,451.5,123.0,455.5" stroke="#3a1a40" stroke-width="2" fill="none" />
<polyline points="124.0,455.5,123.0,452.0,121.0,454.0" stroke="#93da" stroke-width="2" fill="none" />
<polyline points="119.0,443.5,121.0,439.5" stroke="#4633de" stroke-width="2" fill="none" />
<polyline points="119.5,438.0,118.5,443.5,117.0,443.0,119.0,439.0,120.5,435.0,121.0,431.0" stroke="#27b81d" stroke-width="2" fill="none" />
<polyline points="116.0,432.0,116.5,428.0" stroke="#dbb7b" stroke-width="2" fill="none" />
<polyline points="122.5,422.0,126.5,427.0,130.5,430.0" stroke="#1f854" stroke-width="2" fill="none" />
<polyline points="136.5,430.5,137.0,432.0,138.5,436.0" stroke="#bf6fba" stroke-width="2" fill="none" />
<polyline points="143.5,447.0,147.0,449.5,151.5,450.0,155.0,451.0" stroke="#abf714" stroke-width="2" fill="none" />
<polyline points="160.0,448.5,160.5,450.5,163.5,450.0,162.5,454.0,162.0,458.0,163.5,457.0" stroke="#4d6ae5" stroke-width="2" fill="none" />
<polyline points="169.0,463.0,173.0,464.0" stroke="#4de33" stroke-width="2" fill="none" />
<polyline points="178.0,465.5,179.5,461.0,181.0,456.5,175.5,459.0,173.5,455.0,171.5,451.0,170.0,448.5,167.5,445.0,167.5,442.0,168.0,437.5,167.5,434.0,168.0,435.0" stroke="#9ea0e0" stroke-width="2" fill="none" />
<polyline points="169.0,435.5,162.5,435.0,161.5,435.0,164.5,431.0" stroke="#79d1b3" stroke-width="2" fill="none" />
<polyline points="169.0,429.0,173.0,435.0,177.0,435.5" stroke="#6c6b9f" stroke-width="2" fill="none" />
<polyline points="178.5,426.0,177.5,422.5,175.5,418.5,176.0,415.0,173.0,414.0,170.0,410.0,167.0,406.0,164.0,402.0,164.0,398.0,165.5,401.5" stroke="#1967a6" stroke-width="2" fill="none" />
<polyline points="167.5,404.0,172.0,408.0,173.5,412.5,171.5,417.0,169.5,421.5,168.0,426.0,165.0,426.0,164.0,429.5,164.0,434.0,159.5,437.0,163.5,431.5,167.0,427.0,170.0,425.5,172.5,429.5" stroke="#55a395" stroke-width="2" fill="none" />
<polyline points="181.5,435.0,181.0,440.5,177.0,441.0,173.5,445.5,169.5,445.0,165.0,441.0,161.0,444.5" stroke="#699a46" stroke-width="2" fill="none" />
<polyline points="164.0,444.5,165.5,448.5,167.0,452.5,168.5,457.0,171.5,461.0,168.0,464.0,167.0,467.5,162.0,470.0,162.5,474.0,161.0,477.5,158.5,479.0,158.5,481.5,158.0,486.0,159.5,490.0,164.0,494.0,165.5,498.0,167.0,504.5,170.5,509.0,171.0,513.0,172.0,512.5" stroke="#f57448" stroke-width="2" fill="none" />
<polyline points="195.5,491.5,199.0,491.0,202.5,490.0,206.0,488.5,210.0,487.0,213.5,484.5,217.5,481.5,221.5,477.5,225.5,472.5,229.5,466.5" stroke="#a6c0a6" stroke-width="2" fill="none" />
<polyline points="234.0,467.0,238.0,459.5" stroke="#d93079" stroke-width="2" fill="none" />
<polyline points="210.5,487.5,215.5,483.5,220.0,479.5,224.0,475.5,227.0,471.5,229.5,467.5,231.5,463.5,233.5,459.0,234.0,454.5,234.0,450.0,235.0,445.5,236.0,441.5,237.0,437.5,237.5,434.0,237.5,430.5,237.5,427.0,237.5,423.0,236.5,419.0,235.5,415.5,233.5,411.5,232.0,408.0,231.5,406.0" stroke="#1f8fe" stroke-width="2" fill="none" />
<polyline points="229.0,415.5,228.0,419.5" stroke="#b04cfc" stroke-width="2" fill="none" />
<polyline points="224.0,416.5,223.0,416.0,223.0,412.0" stroke="#548e84" stroke-width="2" fill="none" />
<polyline points="244.5,410.0,244.0,414.0,245.0,418.0,245.0,422.0,244.0,426.0,243.0,430.0,242.5,434.0,241.0,438.0,240.0,442.0,239.0,445.5,237.5,449.5,237.0,453.5,236.5,457.5,235.0,461.5,233.0,465.5,232.5,469.5,230.0,474.0,228.0,478.0,224.0,483.0,219.0,487.5,211.5,491.5" stroke="#37bb13" stroke-width="2" fill="none" />
<polyline points="198.0,494.0,194.0,496.5,198.0,494.0,202.0,493.5,206.5,492.0,210.5,490.5,214.5,488.5,218.0,486.5,222.5,482.5,226.5,478.0,230.5,471.5" stroke="#e4ea9b" stroke-width="2" fill="none" />
<polyline points="199.5,449.0,200.5,445.0,203.0,445.5,199.0,447.5" stroke="#51aa8e" stroke-width="2" fill="none" />
<polyline points="198.5,450.0,194.5,448.0,190.5,447.5,187.0,447.0,183.0,446.0,180.0,449.0,181.0,447.5,182.5,447.5,184.5,441.5,184.0,437.0,181.5,435.0,179.5,433.0,181.5,429.5,181.5,425.5,180.5,421.5,180.0,417.5,178.5,413.0,177.0,409.5,175.0,405.5,172.5,402.0,169.5,398.5,166.0,394.5,161.0,390.5,159.0,386.0,162.0,382.0,163.0,378.0,161.5,381.5" stroke="#ee1b4b" stroke-width="2" fill="none" />
<polyline points="159.0,376.0,163.0,370.5,167.0,365.5,171.0,361.5,175.5,356.5,179.5,350.0,184.0,344.5,188.5,339.5,192.5,334.5,196.5,330.0,200.5,325.5" stroke="#ccd5f5" stroke-width="2" fill="none" />
<polyline points="197.5,318.0,202.0,316.0" stroke="#13657a" stroke-width="2" fill="none" />
<polyline points="190.5,318.0,194.5,309.0,198.5,300.5,202.5,292.5,207.5,286.5,211.5,279.0,215.5,272.0,220.0,265.5,224.0,259.0,228.5,253.0,232.5,247.5,236.5,242.0,240.0,237.0,244.0,231.5,247.5,227.0,252.0,222.5,256.0,218.0" stroke="#ae4fec" stroke-width="2" fill="none" />
<polyline points="263.5,220.5,267.5,225.0" stroke="#238ba" stroke-width="2" fill="none" />
<polyline points="264.5,235.5,264.5,240.0" stroke="#a71a85" stroke-width="2" fill="none" />
<polyline points="261.5,237.0,262.0,233.0,262.5,229.5,262.5,225.5,262.5,225.0,258.5,224.5,252.5,229.5,248.5,234.0,245.0,238.5,241.0,243.0,237.0,247.5,233.0,253.5,228.5,258.5,224.5,265.0,220.5,272.0,216.0,280.0,214.5,283.5,216.5,279.5,218.5,275.5,220.5,271.5,223.0,267.5,225.5,263.5,227.5,259.5,231.5,255.5,234.5,251.0,238.0,247.0,240.5,243.0,244.0,239.0,247.0,235.5,251.5,232.0,256.0,227.0,260.0,223.0,263.0,218.5,265.0,217.0,263.5,215.5,264.0,212.0,264.5,207.5,268.5,203.5,270.0,199.0,270.0,195.0,271.0,191.0,270.0,187.0,265.0,192.0,261.0,196.5,257.5,201.0,253.5,202.5" stroke="#d5f3b5" stroke-width="2" fill="none" />
<polyline points="252.5,202.0,256.5,198.0" stroke="#9e2cd6" stroke-width="2" fill="none" />
<polyline points="264.0,201.0,260.0,209.0,258.0,215.5,254.0,219.0,250.0,223.0,245.5,228.0,241.0,232.5,237.0,237.0,233.0,236.5,232.5,235.5,231.5,231.0,231.5,227.0,231.0,223.0,229.5,219.0,227.5,214.5,225.5,214.5,224.5,210.5,224.5,206.5,225.0,202.5" stroke="#bcd456" stroke-width="2" fill="none" />
<polyline points="221.0,205.5,225.0,201.0,227.5,198.0,224.5,201.5,222.0,205.5,221.0,209.5,223.5,213.0,224.0,216.0,225.5,220.0,228.5,224.5,229.5,228.5,230.5,232.5,231.5,236.5,234.0,240.5,231.0,245.0,228.0,249.0,225.5,253.5,222.0,257.5,219.5,261.5,217.0,266.0,214.5,270.0,212.5,274.0,210.0,277.5,207.5,281.0,205.0,284.5,203.0,288.0,200.5,292.0,198.5,296.0,196.0,300.0,194.0,303.5,192.0,307.5,190.5,311.5,188.0,316.0,190.5,319.0,195.0,320.5,199.0,319.5,204.5,313.0,208.0,308.0,211.5,301.5,215.5,296.0,219.5,290.5,223.5,285.5,228.0,280.5,232.5,276.5,237.0,272.5,241.5,268.0,245.5,264.0,250.0,259.5,254.0,256.0,258.0,253.0,262.0,249.5,265.5,247.0,269.5,244.5,274.5,244.5,278.5,247.5,282.0,248.5,286.0,249.5,290.0,250.0,293.5,252.5,297.5,255.5" stroke="#16a1a7" stroke-width="2" fill="none" />
<polyline points="290.0,257.5,287.5,257.5,284.5,259.5,286.0,260.5" stroke="#a82ab7" stroke-width="2" fill="none" />
<polyline points="287.0,262.5,288.0,268.5,290.0,272.0" stroke="#99ccea" stroke-width="2" fill="none" />
<polyline points="291.5,273.5,287.5,267.0" stroke="#d85f44" stroke-width="2" fill="none" />
<polyline points="286.0,266.5,287.0,270.5" stroke="#68795" stroke-width="2" fill="none" />
<polyline points="285.5,277.0,281.5,276.5" stroke="#b0979" stroke-width="2" fill="none" />
<polyline points="291.0,270.0,289.5,266.5,286.5,262.0,281.5,258.0,281.5,252.5,277.5,251.5" stroke="#6f2153" stroke-width="2" fill="none" />
<polyline points="278.0,255.5,275.5,250.5,271.5,249.0,268.0,248.5,264.0,251.0" stroke="#74584a" stroke-width="2" fill="none" />
<polyline points="271.5,254.5,268.5,258.5" stroke="#49012" stroke-width="2" fill="none" />
<polyline points="272.0,264.5,276.0,263.0,279.5,265.0,283.5,269.5,287.5,272.5" stroke="#5f3d61" stroke-width="2" fill="none" />
<polyline points="288.5,276.5,286.5,280.0,287.5,279.0,286.5,276.0,285.5,272.0,283.5,268.0,278.5,263.5" stroke="#62fea" stroke-width="2" fill="none" />
<polyline points="269.5,266.0,269.5,266.0,271.0,270.0" stroke="#3f943" stroke-width="2" fill="none" />
<polyline points="272.5,266.0,267.5,269.5,263.5,267.5" stroke="#382537" stroke-width="2" fill="none" />
<polyline points="264.0,267.5,262.5,268.5,263.5,270.0,268.0,271.5" stroke="#1dc0b8" stroke-width="2" fill="none" />
<polyline points="261.0,269.5,265.0,274.0,269.0,274.5,273.0,270.5,274.5,268.5,271.5,272.5,271.5,277.5,274.0,281.0,275.5,281.5" stroke="#2a80f7" stroke-width="2" fill="none" />
<polyline points="262.5,280.5,263.5,277.0,258.0,274.5,259.0,271.5,258.0,268.0,258.0,268.0" stroke="#fc3d6b" stroke-width="2" fill="none" />
<polyline points="260.5,266.0,262.0,270.0,267.0,274.0,267.5,281.5" stroke="#5b8f3f" stroke-width="2" fill="none" />
<polyline points="260.5,272.0,256.5,274.5,252.5,271.0,248.5,268.5" stroke="#62e376" stroke-width="2" fill="none" />
<polyline points="248.5,267.0,251.0,265.0,250.0,269.0,254.0,273.0,256.5,277.5,263.5,276.0,267.5,277.5,270.5,276.0,274.5,279.0,278.5,280.0,283.5,273.0,280.0,276.5,278.5,282.0" stroke="#57c1e9" stroke-width="2" fill="none" />
<polyline points="280.0,255.5,276.0,257.5,272.5,254.5,270.0,256.0,266.0,257.5,261.5,256.5,259.5,258.0,255.5,259.0" stroke="#c6c69b" stroke-width="2" fill="none" />
<polyline points="272.5,244.0,267.0,245.0,261.5,249.0,257.0,253.5,252.5,257.5,247.5,261.5,244.0,266.0,240.0,269.5,236.5,273.5,232.5,277.5,228.5,281.0,225.5,285.0,222.0,289.0,219.0,293.5,216.0,297.5,213.5,302.0,211.0,305.5,207.5,309.5,204.5,313.5,203.0,317.5,200.5,322.0,196.5,326.0,193.5,330.0,191.5,334.0,188.5,338.5,186.0,342.0,183.5,346.0,181.0,349.5,179.0,353.0,176.5,357.0,174.0,361.5,170.5,365.5,166.5,369.5,163.0,373.5,160.0,378.0,158.5,384.0,161.5,390.5,165.5,393.5,169.5,399.0,173.5,404.5,178.0,412.5" stroke="#54cb64" stroke-width="2" fill="none" />
<polyline points="172.0,417.0,174.0,421.0,176.5,425.0,177.0,429.0,176.5,432.5,175.0,436.0,172.0,438.5,172.5,440.0,172.5,445.5,174.0,450.0,174.5,453.5,177.5,457.0,174.0,462.5,174.5,466.0,171.0,464.5,174.5,467.5" stroke="#9923e9" stroke-width="2" fill="none" />
<polyline points="178.0,461.5,174.0,458.5,169.5,451.0,165.5,444.0" stroke="#b6d4e0" stroke-width="2" fill="none" />
<polyline points="165.0,442.0,163.0,442.0,161.5,446.5,159.0,450.0,159.0,454.0,160.0,457.0,162.5,461.0" stroke="#49de7" stroke-width="2" fill="none" />
<polyline points="158.5,460.0,154.0,457.5" stroke="#b7e81b" stroke-width="2" fill="none" />
<polyline points="148.5,460.0,152.5,464.5,156.5,467.0" stroke="#e7405c" stroke-width="2" fill="none" />
<polyline points="155.5,468.5,149.5,462.0" stroke="#c2eb" stroke-width="2" fill="none" />
<polyline points="151.0,463.0,155.0,468.5,157.5,468.0,158.5,473.5,160.5,476.5,158.5,476.0,163.5,477.0,165.0,472.0" stroke="#54a5ce" stroke-width="2" fill="none" />
<polyline points="163.0,469.0,167.0,473.5,168.5,477.5,166.5,481.5,165.0,485.5,167.5,489.5,168.5,492.5" stroke="#13feea" stroke-width="2" fill="none" />
<polyline points="168.5,490.0,166.5,486.0,159.5,483.0" stroke="#9aa7b9" stroke-width="2" fill="none" />
<polyline points="165.5,477.5,163.0,481.5,165.5,480.0,168.5,481.0" stroke="#64b93f" stroke-width="2" fill="none" />
<polyline points="155.0,474.5,151.0,472.0,147.0,464.5" stroke="#ea23fb" stroke-width="2" fill="none" />
<polyline points="148.0,467.5,151.0,471.5,156.5,475.5" stroke="#dbca62" stroke-width="2" fill="none" />
<polyline points="141.0,477.0,144.0,483.5,145.5,487.5,147.5,491.5,151.5,494.0,153.0,498.0,157.5,500.0,161.0,502.5,164.5,503.5,168.5,506.0,172.5,509.5" stroke="#bdedec" stroke-width="2" fill="none" />
<polyline points="153.5,475.0,150.0,474.0,146.5,467.5,143.0,465.5,139.0,464.0" stroke="#878d87" stroke-width="2" fill="none" />
<polyline points="140.0,451.5,142.0,455.5,142.5,460.0,142.5,464.0,145.0,468.0,146.5,472.0,150.0,476.0,154.5,478.5" stroke="#42ad3b" stroke-width="2" fill="none" />
<polyline points="159.5,461.5,153.5,457.0,154.0,455.0,153.0,451.0,152.5,447.5,150.0,444.0,146.0,440.0,145.0,436.0,146.0,432.0,143.5,428.0,141.5,424.0,139.0,423.5,135.0,419.0,131.0,414.5" stroke="#1f4aa6" stroke-width="2" fill="none" />
<polyline points="129.5,411.0,133.5,406.5,140.0,401.5,144.0,397.5" stroke="#94df9" stroke-width="2" fill="none" />
<polyline points="143.0,399.0,143.5,395.5" stroke="#c46a0" stroke-width="2" fill="none" />
<polyline points="145.0,393.5,148.0,397.0,151.0,404.5" stroke="#4e5f94" stroke-width="2" fill="none" />
<polyline points="157.0,399.5,152.5,395.5,150.5,396.5" stroke="#bfc5" stroke-width="2" fill="none" />
<polyline points="152.5,393.5,156.0,395.0" stroke="#2f4df9" stroke-width="2" fill="none" />
<polyline points="153.5,391.5,157.5,395.5,163.5,402.0,167.5,402.5,171.5,406.5" stroke="#64efe" stroke-width="2" fill="none" />
<polyline points="163.0,409.0,165.0,413.0,168.5,419.0" stroke="#94865c" stroke-width="2" fill="none" />
<polyline points="165.5,416.5,162.0,410.5" stroke="#2baf34" stroke-width="2" fill="none" />
<polyline points="161.0,407.5,165.0,407.5,167.5,411.5,168.5,415.5,166.0,419.0,170.0,425.0,170.5,428.5" stroke="#27335" stroke-width="2" fill="none" />
<polyline points="156.0,420.5,156.0,420.5,156.5,424.0,157.5,428.5,158.0,432.5,158.0,434.5,157.0,438.5,156.5,440.5" stroke="#1dc2c" stroke-width="2" fill="none" />
<polyline points="150.5,438.5,144.0,429.0,140.0,422.0" stroke="#188f7c" stroke-width="2" fill="none" />
<polyline points="141.0,421.5,145.0,424.0" stroke="#59f976" stroke-width="2" fill="none" />
<polyline points="151.5,421.5,150.5,417.0,151.0,413.0,149.0,406.0,148.0,402.0,147.5,396.5,147.5,393.5" stroke="#b7d9e" stroke-width="2" fill="none" />
<polyline points="145.0,391.0,143.5,395.0,140.5,399.0,138.5,403.0,133.5,407.5,130.0,411.5,129.5,415.0,132.5,419.0,135.0,422.5,138.5,426.5,140.0,431.5,141.0,435.5,138.5,441.0,139.0,445.0,138.0,448.5,137.5,452.5,136.0,455.5,133.0,458.5,132.5,462.0,136.5,465.5,137.5,466.0,141.0,466.5,145.0,472.0,148.5,476.0,152.0,478.5,156.0,482.0,160.5,483.5,164.5,486.5,167.5,490.0" stroke="#c5341b" stroke-width="2" fill="none" />
<polyline points="171.5,462.0,167.5,456.0,163.5,454.5,162.5,450.0,159.0,452.0,155.5,449.5,155.5,451.0,156.5,446.5,154.0,442.5,154.0,438.5,149.5,438.0,148.0,434.0,147.0,429.5,149.5,426.0,144.5,422.0,138.5,419.5" stroke="#6fdfbe" stroke-width="2" fill="none" />
<polyline points="133.5,421.0,136.0,424.5,136.0,428.5,137.5,432.0,138.0,435.5,140.5,441.0,141.0,444.5,140.0,449.0,138.5,453.0,135.5,456.5,133.5,460.5,132.0,465.0,133.0,456.0" stroke="#2661ce" stroke-width="2" fill="none" />
<polyline points="140.5,451.5,143.0,455.5,145.5,459.5,146.0,463.5,146.5,467.5,147.5,471.0,151.5,475.0,153.5,478.5,156.0,479.0,157.0,484.5,155.0,487.5,158.0,491.5,160.5,495.0,161.5,499.0,163.5,502.5,163.5,506.5,165.0,511.0" stroke="#4d729" stroke-width="2" fill="none" />
<polyline points="134.5,511.5,131.5,507.5,130.0,504.0,128.5,499.5,128.0,495.0,126.0,490.5,124.0,486.5,122.5,482.5" stroke="#297dd7" stroke-width="2" fill="none" />
<polyline points="134.0,481.0,132.5,485.0,133.5,489.5,135.5,493.5,133.0,495.5,135.5,499.5,137.5,504.0,139.5,508.0,140.5,512.5" stroke="#374d9b" stroke-width="2" fill="none" />
<polyline points="148.0,454.5,144.0,451.5" stroke="#669b8c" stroke-width="2" fill="none" />
<polyline points="144.5,449.0,148.0,453.0,152.0,454.5,152.5,459.0,153.0,456.0,157.0,456.0,162.5,455.0" stroke="#67097" stroke-width="2" fill="none" />
<polyline points="152.0,448.0,148.0,443.0,145.5,437.5,139.0,427.5,134.5,422.5,130.5,419.0" stroke="#7dcac" stroke-width="2" fill="none" />
<polyline points="127.0,416.0,131.0,421.0,131.5,425.0,133.0,428.5" stroke="#49133a" stroke-width="2" fill="none" />
<polyline points="130.5,425.5,127.0,422.5,123.5,415.0" stroke="#ecda2" stroke-width="2" fill="none" />
<polyline points="122.0,417.5,123.5,421.5,126.0,425.5" stroke="#271c43" stroke-width="2" fill="none" />
<polyline points="130.0,427.0,129.0,423.0,129.5,419.0,127.0,415.5,128.5,411.5,129.5,407.5,124.5,408.5,121.0,413.0,117.0,414.0,113.0,414.5" stroke="#c9de18" stroke-width="2" fill="none" />
<polyline points="113.5,419.0,113.5,423.0,113.5,426.5,114.5,430.5,115.5,432.0" stroke="#cca4f9" stroke-width="2" fill="none" />
<polyline points="128.0,429.0,124.0,425.0,121.5,421.0,121.0,417.0" stroke="#5f2bb5" stroke-width="2" fill="none" />
<polyline points="127.5,411.5,131.5,406.5,135.0,402.0" stroke="#3a407d" stroke-width="2" fill="none" />
<polyline points="140.5,402.0,144.5,406.0,148.5,411.0" stroke="#d2e81" stroke-width="2" fill="none" />
<polyline points="145.0,405.5,141.0,402.0" stroke="#d8e312" stroke-width="2" fill="none" />
<polyline points="142.0,402.0,145.5,405.5" stroke="#459bac" stroke-width="2" fill="none" />
<polyline points="149.0,401.5,144.5,398.0,141.0,396.0,137.0,402.5,130.5,401.0,126.5,400.5,122.0,399.0,118.5,394.0" stroke="#90211f" stroke-width="2" fill="none" />
<polyline points="122.0,391.0,126.0,389.5,133.0,391.5" stroke="#c3a37a" stroke-width="2" fill="none" />
<polyline points="135.5,394.0,131.5,398.5,127.5,396.5,123.5,393.5" stroke="#182571" stroke-width="2" fill="none" />
<polyline points="119.5,389.0,123.5,395.0,124.5,397.0,126.5,401.0" stroke="#2311cc" stroke-width="2" fill="none" />
<polyline points="127.0,402.0,122.5,398.0,119.5,394.0,119.0,390.0,120.5,387.0,120.0,383.5,119.5,380.5,121.0,376.5,119.5,376.0,120.0,372.5,119.0,373.5" stroke="#ee44bd" stroke-width="2" fill="none" />
<polyline points="120.0,368.0,124.0,373.5,124.0,378.5,127.5,381.0" stroke="#b2ce8" stroke-width="2" fill="none" />
<polyline points="128.0,377.5,124.0,370.5,120.5,364.5" stroke="#5f1217" stroke-width="2" fill="none" />
<polyline points="121.5,364.5,123.5,368.5,125.0,372.5,127.0,376.5,130.0,381.5" stroke="#cdab" stroke-width="2" fill="none" />
<polyline points="124.5,383.5,125.5,387.5,127.5,388.5,124.0,392.0,128.5,396.0" stroke="#f79bb" stroke-width="2" fill="none" />
<polyline points="127.5,404.5,123.0,402.0,119.0,397.0,117.0,392.5,117.5,388.5,117.0,384.5,117.0,380.5,117.0,377.0,117.5,373.5,117.5,369.5,118.5,365.5,120.0,361.0,119.5,357.0,120.0,349.5,116.0,344.0" stroke="#8fa52a" stroke-width="2" fill="none" />
<polyline points="114.5,344.0,115.0,348.0,116.0,351.5,116.5,355.5,116.5,360.0,116.5,363.5,116.0,367.5,115.0,371.0,116.5,374.5,116.5,378.5,116.0,383.0,117.0,387.0,117.0,391.0,116.5,395.0,119.0,399.5,122.0,403.5,120.5,408.0,115.0,412.0,110.5,414.0,113.5,413.0,118.0,411.5,122.0,407.0" stroke="#6c7c24" stroke-width="2" fill="none" />
<polyline points="123.5,407.0,120.5,411.0" stroke="#293359" stroke-width="2" fill="none" />
<polyline points="130.0,408.0,134.0,404.0,134.5,397.0,138.0,395.0,142.0,391.0,142.5,387.5,142.0,386.5,143.5,381.0,145.5,375.5,146.5,371.0,147.0,367.0,145.0,362.5,144.5,358.5,144.5,354.5,143.0,352.5,141.5,348.5,138.5,344.5,137.5,339.5,136.5,336.0,135.5,332.5,136.0,328.5,135.0,325.0,134.5,321.0,133.0,317.0,132.0,313.0,130.5,309.0,129.5,305.0,127.5,298.0,131.5,294.0,135.0,291.5,137.0,287.0,129.5,282.5,125.5,276.5" stroke="#548644" stroke-width="2" fill="none" />
<polyline points="128.0,274.5,128.0,278.5,130.0,283.0,130.5,287.0,127.0,289.5,126.0,293.5,124.5,297.5,123.0,301.0,125.0,304.0,123.5,308.0,122.0,312.5,122.0,316.5,121.5,320.5,123.0,324.5,123.0,328.5,123.0,332.5,123.5,338.0" stroke="#47a782" stroke-width="2" fill="none" />
<polyline points="120.0,339.5,120.5,341.5,120.5,344.5" stroke="#2d1d80" stroke-width="2" fill="none" />
<polyline points="118.5,338.0,119.0,342.0,118.5,345.0,119.5,349.0,121.0,353.0,121.0,357.0,122.0,361.0,124.0,365.5,125.0,369.5,127.5,373.5,129.5,377.0,130.0,382.5,131.5,384.0,136.5,386.0,138.5,390.0" stroke="#4bac36" stroke-width="2" fill="none" />
<polyline points="141.5,384.5,139.5,380.0,135.5,375.0" stroke="#2c64c0" stroke-width="2" fill="none" />
<polyline points="133.5,373.0,140.0,371.5,142.0,376.0,143.0,380.0,146.0,380.5,146.5,385.0" stroke="#b35dc9" stroke-width="2" fill="none" />
<polyline points="152.5,380.5,151.0,382.5,155.5,385.0" stroke="#8c18c6" stroke-width="2" fill="none" />
<polyline points="166.0,396.5,167.5,400.5,170.5,401.0,173.5,405.0,175.0,409.5,176.5,413.5,178.0,418.0,178.0,421.5,178.5,425.5" stroke="#53c5af" stroke-width="2" fill="none" />
<polyline points="175.5,422.5,172.0,416.0,163.0,415.5,159.0,410.5,154.5,405.5,151.0,403.5,147.0,398.0,146.5,391.5,141.5,386.5,139.5,392.5,136.0,390.0,135.5,385.5,139.5,382.0,138.0,377.0,135.0,373.0,133.5,371.5,137.5,367.0,142.0,362.5,142.5,358.5,142.5,355.0,141.5,352.0,135.5,349.5,132.0,345.5,129.5,341.5,130.5,337.5,129.0,334.0,130.5,330.0,129.0,326.0,127.0,320.5" stroke="#428b51" stroke-width="2" fill="none" />
<polyline points="119.5,323.0,120.0,326.5,120.0,331.0,120.5,335.0,121.5,339.0,122.0,340.0" stroke="#96b6f" stroke-width="2" fill="none" />
<polyline points="127.5,345.0,131.5,350.0,135.5,354.0" stroke="#57a6f3" stroke-width="2" fill="none" />
<polyline points="134.5,356.0,130.0,352.0" stroke="#e2cd81" stroke-width="2" fill="none" />
<polyline points="132.0,351.5,132.0,357.5,136.0,361.5,137.5,367.5" stroke="#52d34" stroke-width="2" fill="none" />
<polyline points="142.0,366.5,146.0,368.5" stroke="#63b5b0" stroke-width="2" fill="none" />
<polyline points="145.5,367.0,141.5,362.5,141.5,356.0,138.0,355.0,139.5,348.0,135.5,344.0,135.5,339.5,134.0,335.0,133.0,330.5,126.5,331.0" stroke="#faaf6d" stroke-width="2" fill="none" />
<polyline points="129.5,341.5,134.0,339.0,139.0,344.0" stroke="#44a1e5" stroke-width="2" fill="none" />
<polyline points="142.5,338.0,140.5,340.0,140.0,336.0,139.5,329.0" stroke="#a57cbb" stroke-width="2" fill="none" />
<polyline points="131.0,342.5,135.0,348.0,138.5,352.0" stroke="#9566a7" stroke-width="2" fill="none" />
<polyline points="131.5,358.0,135.5,362.0" stroke="#bd1c84" stroke-width="2" fill="none" />
<polyline points="134.5,364.5,130.5,361.5,126.0,359.5,122.0,357.0" stroke="#ac91a9" stroke-width="2" fill="none" />
<polyline points="122.5,359.5,126.5,368.0,130.5,375.5" stroke="#5ee95c" stroke-width="2" fill="none" />
<polyline points="121.5,362.5,121.0,366.5,122.5,370.5,125.0,374.0,126.5,378.5,130.5,383.0,131.5,387.0,133.5,391.0,133.5,395.5,135.0,399.0" stroke="#692e53" stroke-width="2" fill="none" />
<polyline points="140.5,400.0,142.0,404.0,145.5,408.5,150.5,412.5" stroke="#f1af13" stroke-width="2" fill="none" />
<polyline points="150.0,424.0,145.5,418.5,141.5,414.0,137.5,410.0" stroke="#d87f8" stroke-width="2" fill="none" />
<polyline points="138.0,409.0,141.5,413.0,144.0,417.5,147.0,421.5,149.5,425.5,148.0,429.5" stroke="#1f72" stroke-width="2" fill="none" />
<polyline points="145.5,449.0,146.5,453.0,149.5,457.5,150.5,462.0,151.0,466.0,150.5,468.5,154.5,471.5,157.0,475.5,157.0,479.5,161.0,481.5,165.5,479.0,170.0,479.0" stroke="#98fdb4" stroke-width="2" fill="none" />
<polyline points="197.5,433.0,196.5,429.0" stroke="#e3ab32" stroke-width="2" fill="none" />
<polyline points="192.5,427.0,192.5,431.0,192.5,435.0" stroke="#a9bc3" stroke-width="2" fill="none" />
<polyline points="194.5,434.0,195.5,430.0,197.5,428.5,197.0,424.5" stroke="#ccb6f8" stroke-width="2" fill="none" />
<polyline points="193.0,403.0,194.0,398.5,194.0,394.0,193.5,390.0" stroke="#9a7d3" stroke-width="2" fill="none" />
<polyline points="192.0,390.5,192.5,395.0,192.0,399.0,191.0,403.5,190.5,407.5,190.5,412.0,190.5,416.0,190.5,420.0,191.0,424.5,190.5,428.5,190.0,433.0,189.0,437.0,188.5,441.0,186.0,441.5,182.5,445.0,185.5,445.0,190.0,445.5,194.0,446.0,198.0,444.5" stroke="#3b997d" stroke-width="2" fill="none" />
<polyline points="246.0,390.5,244.0,394.0,247.5,390.5,251.5,390.0,255.5,390.0,259.5,389.5,263.5,390.0,267.0,390.0" stroke="#8219c2" stroke-width="2" fill="none" />
<polyline points="265.5,386.5,261.5,386.0,257.0,386.0,253.0,384.5,252.0,382.0" stroke="#65c3a" stroke-width="2" fill="none" />
<polyline points="269.5,352.5,273.5,353.5,277.5,355.0" stroke="#b9374f" stroke-width="2" fill="none" />
<polyline points="284.0,351.0,280.5,351.5,276.5,351.0,272.5,350.0,268.5,350.5" stroke="#c6a8a1" stroke-width="2" fill="none" />
<polyline points="295.0,347.5,299.0,346.5,303.0,346.0,306.5,346.5,310.5,347.0,314.5,346.0" stroke="#ee7e64" stroke-width="2" fill="none" />
<polyline points="317.5,342.0,318.0,343.5,319.5,347.5" stroke="#95be9b" stroke-width="2" fill="none" />
<polyline points="320.0,348.0,316.0,351.0,312.5,351.0,308.5,352.5" stroke="#cea" stroke-width="2" fill="none" />
<polyline points="311.0,356.5,307.0,357.0,303.0,357.5,298.5,358.0,294.5,357.5" stroke="#e724bf" stroke-width="2" fill="none" />
<polyline points="294.5,358.5,298.0,360.0,302.0,359.0,306.0,360.0,310.0,358.5,309.5,358.0,308.0,362.5" stroke="#29fd5b" stroke-width="2" fill="none" />
<polyline points="313.5,383.0,317.5,372.5,321.5,365.5,325.5,359.0,329.0,351.5,333.0,343.0,337.0,334.0,341.0,325.5,345.0,317.5" stroke="#eed930" stroke-width="2" fill="none" />
<polyline points="356.0,328.5,356.0,332.5,355.0,337.0,354.0,341.5,354.5,339.5" stroke="#2c6048" stroke-width="2" fill="none" />
<polyline points="354.0,353.0,354.5,357.0,354.0,361.0,353.0,365.0,353.0,369.0,353.0,373.0,352.0,377.0,352.0,380.5,353.0,386.0,353.0,390.5,353.5,394.5,354.0,398.0,354.5,402.0,352.5,404.0,353.5,408.0,353.5,412.5" stroke="#b2beda" stroke-width="2" fill="none" />
<polyline points="362.5,434.5,358.0,425.5,354.5,419.0,350.5,414.5,346.5,410.0,342.5,406.0,338.0,403.0,334.0,400.5,330.0,399.0,326.0,397.0,322.0,395.0,318.0,393.5,314.5,392.0,311.0,390.5,308.5,390.5,304.0,391.0,300.0,390.0" stroke="#c6f4d0" stroke-width="2" fill="none" />
<polyline points="305.0,336.5,304.0,332.5,314.5,329.5,314.5,329.5,311.0,331.5,307.0,332.0" stroke="#ba658" stroke-width="2" fill="none" />
<polyline points="308.0,329.5,304.0,328.0,300.5,327.5,296.5,326.5" stroke="#faf5a5" stroke-width="2" fill="none" />
<polyline points="295.5,326.0,299.5,324.0,303.5,324.5,307.5,326.5" stroke="#6a222a" stroke-width="2" fill="none" />
<polyline points="320.0,326.5,321.5,324.0,323.5,320.5,323.5,316.0,323.0,312.5,322.0,308.5,321.5,305.0" stroke="#286a14" stroke-width="2" fill="none" />
<polyline points="336.5,281.5,340.5,283.0,344.0,281.0,348.0,280.5,348.5,285.0,350.0,288.5,349.5,292.5,350.0,296.5,350.0,300.5,349.0,304.0,349.0,308.5,345.5,312.5,347.5,314.5,346.5,318.0,344.5,321.5,342.5,325.5,341.0,329.5,338.5,333.5,337.0,337.5,334.5,341.5,333.0,345.5,331.0,349.5,329.0,353.5,327.0,358.0,324.0,362.0,321.0,366.0,318.5,370.0,316.5,374.5,315.0,378.5,313.5,383.0,314.0,387.0,311.5,391.0,317.0,393.5,326.0,397.5,334.5,401.0,340.0,405.0,345.5,408.5,349.0,412.5,352.5,416.5,355.0,420.5,357.0,425.0,359.0,429.0,361.0,433.0,363.0,437.0,364.0,441.0,365.0,444.5,367.0,449.0,368.5,453.5,369.5,457.5,370.5,462.0,372.0,466.0,373.0,470.0,374.5,473.5,375.5,477.0,377.0,480.5,379.0,484.0,380.0,488.0,380.5,491.5,381.5,495.5,382.5,500.0,383.5,504.0,384.5,508.0,386.0,511.5" stroke="#579d77" stroke-width="2" fill="none" />
<polyline points="422.0,489.5,425.5,494.5,429.5,494.0,433.0,491.0,437.0,488.0,441.0,484.0,445.0,480.5,449.0,475.5,452.5,470.5,456.5,467.0" stroke="#1b34db" stroke-width="2" fill="none" />
<polyline points="457.5,465.5,452.0,469.0,449.0,467.5,453.0,461.0" stroke="#a0b319" stroke-width="2" fill="none" />
<polyline points="456.0,451.0,460.0,442.0" stroke="#ca618e" stroke-width="2" fill="none" />
<polyline points="464.5,430.5,468.5,423.5,472.5,417.5,476.5,408.5,480.5,404.5,485.0,400.0,489.0,397.5,493.0,393.5,495.0,390.0,499.0,388.0,503.5,387.0,507.0,385.5,511.0,384.5" stroke="#8bdd8a" stroke-width="2" fill="none" />
<polyline points="513.0,384.0,502.5,388.0,493.5,392.0,492.0,396.0,486.5,399.5,483.0,403.5,478.0,407.0,476.0,411.0,475.5,415.0,473.5,418.5,471.0,422.0,469.5,426.0,467.5,429.5,463.5,433.5,461.5,438.0,459.0,442.0,458.0,446.5,456.5,450.5,455.5,454.5,455.0,459.0,453.5,463.0,451.5,467.0,449.5,471.0,449.5,475.5,446.0,480.0,441.5,484.0,437.0,488.0,432.0,492.5" stroke="#dc957b" stroke-width="2" fill="none" />
<polyline points="432.0,481.5,431.0,479.0,433.0,476.0,434.5,479.5,436.0,475.5,437.0,472.0,438.0,468.0,439.0,464.0,440.0,459.5,439.0,457.5,434.5,455.0,430.0,451.5" stroke="#eaa64b" stroke-width="2" fill="none" />
<polyline points="440.0,458.0,435.5,456.0,431.5,452.0,431.0,448.0,431.0,444.0,431.5,439.5,432.5,435.5,434.5,431.5,432.5,434.5" stroke="#503cbe" stroke-width="2" fill="none" />
<polyline points="429.5,467.0,427.0,471.5,422.5,475.5,421.5,479.0,422.5,483.0,422.5,487.0,423.0,491.5" stroke="#99f354" stroke-width="2" fill="none" />
<polyline points="429.5,468.0,425.0,472.5,420.5,476.5,416.5,471.5,415.5,467.5" stroke="#a9d618" stroke-width="2" fill="none" />
<polyline points="374.0,464.0,372.0,461.0,371.0,457.0,371.5,453.0,372.0,449.0,372.5,445.0,373.0,441.0,373.5,437.0,374.5,433.5,374.5,429.0,374.5,425.5,375.0,421.5,375.5,417.5,375.5,413.5,375.5,409.5,376.0,405.5,376.5,401.5,377.0,397.5,377.0,393.0,377.5,389.0,377.5,385.0,377.5,381.0,377.5,377.0,377.5,373.0,377.0,369.0,377.5,365.0,378.5,361.0,378.0,357.0,377.0,353.0,376.5,349.0,375.5,345.0,375.5,340.5,374.5,336.5,374.0,333.0,373.5,328.5,373.0,324.5,372.5,320.5,372.0,316.5,371.0,312.5,370.5,308.5,370.0,304.0,370.0,300.0,369.5,296.0,369.0,292.0,369.0,288.0,368.5,284.0,368.5,280.5,368.5,276.5,368.5,272.5,368.0,268.5,367.5,264.5,368.0,260.5,368.5,257.0,368.0,253.0,368.0,249.0,367.0,244.5,367.0,240.5,365.5,236.5,364.5,232.5,363.5,228.5,362.0,224.5,361.0,220.5,360.0,216.5,358.0,212.5,356.0,209.0,355.0,206.0,351.0,202.0,349.5,198.0,349.0,196.0" stroke="#894048" stroke-width="2" fill="none" />
<polyline points="350.0,198.5,354.5,204.5,358.5,212.0" stroke="#1ed2cb" stroke-width="2" fill="none" />
<polyline points="370.0,220.5,372.0,214.0,371.0,218.0,370.0,222.0,369.5,226.0,369.5,230.0,369.5,233.5,370.0,238.0,371.0,242.0,372.5,246.0,374.0,250.0,374.5,254.0,376.5,257.5,375.5,261.5,377.0,265.5,378.5,269.5" stroke="#34ca65" stroke-width="2" fill="none" />
<polyline points="383.5,266.5,382.5,270.0,383.0,274.0,381.0,278.0,378.5,282.0,378.5,286.0,379.0,290.5" stroke="#478375" stroke-width="2" fill="none" />
<polyline points="380.5,292.5,380.0,289.0,379.5,285.0,379.5,281.5,379.5,278.0" stroke="#628076" stroke-width="2" fill="none" />
<polyline points="375.0,277.0,375.5,281.0,377.0,284.0,377.0,288.5,377.5,292.5,378.5,296.5,379.0,300.5,380.0,304.5,380.0,308.5,380.0,312.0,381.0,316.0,382.0,320.0,382.5,324.5,382.0,329.0,381.5,332.5,381.5,336.5,382.0,340.5,383.0,344.5,383.0,348.0,383.5,352.5" stroke="#6e5f45" stroke-width="2" fill="none" />
<polyline points="369.5,350.0,370.5,354.0,371.0,358.5,371.0,362.5,371.5,366.5,372.5,371.0" stroke="#7510df" stroke-width="2" fill="none" />
<polyline points="371.5,376.5,372.5,380.5,372.5,384.5" stroke="#b8a136" stroke-width="2" fill="none" />
<polyline points="380.5,386.0,380.0,389.5,380.0,393.5,379.0,397.5,378.5,401.5" stroke="#bcaf4e" stroke-width="2" fill="none" />
<polyline points="359.5,385.0,359.5,381.0,360.0,377.5,361.0,372.5,361.0,368.5,361.0,365.0" stroke="#b8dab2" stroke-width="2" fill="none" />
<polyline points="359.0,362.0,359.5,366.0,360.0,369.5,359.5,373.0,360.0,377.0,360.0,381.0" stroke="#bd253a" stroke-width="2" fill="none" />
<polyline points="355.0,354.5,355.0,358.5,355.5,362.5,354.5,366.5,355.0,371.0,355.0,375.5,355.0,379.0,355.0,383.0,355.0,387.0,355.0,391.0,355.5,395.5,355.0,399.0,355.5,403.0,356.0,407.5,357.0,412.0,356.0,414.0" stroke="#2a31aa" stroke-width="2" fill="none" />
<polyline points="372.0,384.5,372.0,380.5,372.5,376.5,372.5,372.0,369.0,367.0,369.0,363.0,368.5,359.0,367.0,355.0,366.0,351.5" stroke="#a833cc" stroke-width="2" fill="none" />
<polyline points="384.5,349.0,384.5,345.0,384.5,341.5,385.0,337.5,385.0,333.5,384.5,329.5" stroke="#3ff379" stroke-width="2" fill="none" />
<polyline points="382.5,359.0,382.0,354.5,381.0,350.5,380.5,346.5,379.5,342.5,378.5,338.5,378.0,335.0,377.5,330.5,377.5,326.5,377.5,322.5,376.0,316.0,375.0,312.5,374.5,308.5,373.5,304.5,373.0,300.5,373.0,296.5,373.0,292.5" stroke="#e5655b" stroke-width="2" fill="none" />
<polyline points="399.0,287.5,401.5,280.5,403.0,277.0" stroke="#4d74ad" stroke-width="2" fill="none" />
<polyline points="413.0,244.0,417.0,236.0,419.0,230.0" stroke="#13f875" stroke-width="2" fill="none" />
<polyline points="421.0,219.5,425.5,216.0,426.5,210.5,428.5,202.5,432.5,194.5" stroke="#97999" stroke-width="2" fill="none" />
<polyline points="438.0,183.5,440.0,179.5" stroke="#634c63" stroke-width="2" fill="none" />
<polyline points="442.0,174.0,446.0,166.0,449.5,161.5,454.0,154.5" stroke="#1f29a" stroke-width="2" fill="none" />
<polyline points="461.0,141.5,465.0,135.5,469.0,128.0,473.0,122.0,477.0,116.5,481.5,111.5,485.5,106.5,489.5,102.5,493.5,96.5,498.0,94.0,500.5,89.5,504.5,85.0,509.0,81.0,513.0,76.0" stroke="#89753" stroke-width="2" fill="none" />
<polyline points="513.5,72.5,510.0,77.0,506.5,81.0,503.0,85.0,498.5,89.0,494.0,94.0,491.5,98.5,487.5,102.5,484.0,107.0,482.0,111.0,479.0,115.0,476.0,119.5,473.5,123.5,470.5,127.5,469.0,131.5,465.0,136.0,463.0,140.0,460.5,144.0,456.0,148.5,454.5,152.0,452.0,156.0,449.0,160.5,446.5,165.5,444.0,169.5,442.0,174.0,440.5,178.5,437.5,183.5,436.0,187.0,434.5,191.0,433.0,196.0,431.0,199.5,429.0,203.5,428.5,206.5,427.5,210.5,425.5,215.5,422.0,220.0,421.5,223.5,419.5,227.5,418.0,231.5,416.5,236.0,415.0,240.0,412.5,244.0,411.0,248.0,412.0,250.0,409.0,253.5,408.0,257.5,408.0,261.5,406.5,265.0,406.0,269.0,405.0,272.5,402.5,276.0,402.0,280.0,401.5,284.5,400.5,288.5,399.0,292.5,399.0,297.0,397.5,301.0,396.0,305.0,394.5,309.0,393.5,313.0,392.5,317.0,392.0,321.0,390.5,325.5,389.5,329.5,389.0,334.0,387.5,338.0,388.0,342.5" stroke="#6c9f89" stroke-width="2" fill="none" />
<polyline points="453.0,367.0,453.5,371.0,453.5,375.0,453.5,379.0,453.0,383.0,452.0,387.0,451.0,391.0,450.5,394.5,450.5,399.0,450.5,403.0,450.0,407.0,449.0,411.0,448.5,415.0,447.5,419.0,446.0,422.5,444.5,424.5" stroke="#a1315" stroke-width="2" fill="none" />
<polyline points="485.0,410.0,481.0,415.5,478.0,418.0,481.0,413.5,484.0,409.0,486.5,405.0" stroke="#55ee13" stroke-width="2" fill="none" />
<polyline points="365.5,312.5,365.0,308.5,364.5,305.0,364.5,301.0,365.0,297.0,364.5,293.0,364.5,288.0,364.5,284.0,364.5,279.5,365.0,275.0,366.0,270.5,366.5,266.0,366.5,262.0" stroke="#b2343d" stroke-width="2" fill="none" />
<polyline points="364.5,263.0,364.0,267.5,363.5,271.5,363.0,275.5,362.0,279.5,361.5,281.0" stroke="#9e6758" stroke-width="2" fill="none" />
<polyline points="343.0,282.0,342.5,282.0,340.0,281.5,341.0,275.0,342.5,271.0,340.5,265.5,336.5,264.0" stroke="#9c353e" stroke-width="2" fill="none" />
<polyline points="333.0,266.0,336.5,266.0,336.5,270.0,334.0,274.0,333.0,271.5" stroke="#b4c35f" stroke-width="2" fill="none" />
<polyline points="328.0,271.5,326.0,270.0,328.5,269.5,335.0,268.5,331.5,268.5,327.5,267.0" stroke="#b21e80" stroke-width="2" fill="none" />
<polyline points="323.5,270.0,326.5,274.0" stroke="#1681e1" stroke-width="2" fill="none" />
<polyline points="324.5,275.5,320.0,274.0" stroke="#aa1d8" stroke-width="2" fill="none" />
<polyline points="318.5,272.5,323.0,265.0,326.5,261.5,330.5,260.0,334.5,259.5,338.5,258.5,342.5,257.5,346.0,256.5,348.5,252.0,352.5,251.0" stroke="#2f978e" stroke-width="2" fill="none" />
<polyline points="351.0,257.0,347.0,258.5" stroke="#5d93ac" stroke-width="2" fill="none" />
<polyline points="344.5,254.5,340.5,254.5,336.5,256.0,332.0,256.5" stroke="#f88bea" stroke-width="2" fill="none" />
<polyline points="335.5,253.0,329.0,257.0,326.5,262.0,322.0,266.0,319.5,270.0,319.0,274.0,318.5,275.5,322.5,278.0" stroke="#501117" stroke-width="2" fill="none" />
<polyline points="322.0,268.0,321.5,272.0,322.5,276.0,329.5,278.0,333.5,279.0,337.5,278.5,341.5,277.0,348.0,278.5" stroke="#dc8d2d" stroke-width="2" fill="none" />
<polyline points="336.5,278.0,336.5,282.5" stroke="#757a49" stroke-width="2" fill="none" />
<polyline points="333.5,271.0,334.5,273.0,330.5,274.5,326.5,273.5,322.0,267.5" stroke="#c77d50" stroke-width="2" fill="none" />
<polyline points="327.0,257.0,331.0,253.5,335.0,252.0,339.0,251.0,342.5,250.0,347.0,247.0,351.5,244.0" stroke="#434a23" stroke-width="2" fill="none" />
<polyline points="352.0,242.0,348.5,246.5,344.0,250.5,341.0,254.5" stroke="#ecb184" stroke-width="2" fill="none" />
<polyline points="346.5,239.5,345.5,235.5,343.5,232.0,343.0,228.0,342.0,224.5,340.5,220.5,340.5,216.5,339.5,212.5,336.0,206.0" stroke="#f7e25d" stroke-width="2" fill="none" />
<polyline points="333.0,204.0,337.0,201.5,341.5,198.5,345.5,196.5,349.0,194.5,353.0,192.0,357.5,190.0,362.0,187.5,366.5,185.5,370.5,184.0,374.5,182.5,378.5,181.5,382.5,179.5,386.5,177.0,390.5,174.5,395.0,172.5,399.0,170.5,403.0,169.0,407.0,168.0,404.0,171.0,402.0,175.0,399.0,179.0,395.0,183.0,389.0,187.0,383.0,190.0,387.0,188.5,391.0,186.0,395.0,183.5,399.0,180.0,403.0,175.5" stroke="#49d3f5" stroke-width="2" fill="none" />
<polyline points="402.0,165.0,404.5,159.0,403.5,163.0,404.0,168.0,397.5,171.5,390.0,175.5,383.0,179.5" stroke="#d1d5aa" stroke-width="2" fill="none" />
<polyline points="373.5,181.5,363.5,186.0,357.0,189.5,350.0,193.5,342.5,198.0,337.0,202.0,337.5,205.5,342.5,208.0,347.5,212.0,353.5,212.5" stroke="#ab6c18" stroke-width="2" fill="none" />
<polyline points="361.0,203.5,357.0,195.5" stroke="#c22791" stroke-width="2" fill="none" />
<polyline points="357.5,192.0,358.0,196.5,359.0,200.5,361.0,204.5,361.0,208.5" stroke="#524c55" stroke-width="2" fill="none" />
<polyline points="356.0,205.0,351.5,199.5" stroke="#f625b" stroke-width="2" fill="none" />
<polyline points="351.5,199.0,354.5,203.0,356.0,207.5" stroke="#6d18f1" stroke-width="2" fill="none" />
<polyline points="349.5,204.5,345.0,199.5" stroke="#fd22e" stroke-width="2" fill="none" />
<polyline points="345.0,199.0,348.0,203.0" stroke="#7acb91" stroke-width="2" fill="none" />
<polyline points="344.0,203.5,348.0,208.0" stroke="#24fd4e" stroke-width="2" fill="none" />
<polyline points="345.0,211.0,341.5,208.5" stroke="#7f1dd8" stroke-width="2" fill="none" />
<polyline points="338.0,209.5,342.0,217.5" stroke="#1df777" stroke-width="2" fill="none" />
<polyline points="352.0,212.5,348.5,208.5,343.5,204.5" stroke="#1666df" stroke-width="2" fill="none" />
<polyline points="340.0,203.5,344.0,206.5,348.0,210.5,352.5,216.0,357.0,223.5" stroke="#50f9a0" stroke-width="2" fill="none" />
<polyline points="353.0,208.0,351.0,210.5,347.0,208.0,343.0,205.0,339.0,202.5" stroke="#e28080" stroke-width="2" fill="none" />
<polyline points="340.0,201.5,342.5,205.5,347.5,209.5,351.0,214.0,354.5,218.0,356.0,222.5,359.0,227.5,361.0,231.5,362.5,236.0,363.5,240.0,364.5,244.5,365.0,248.0" stroke="#acaebc" stroke-width="2" fill="none" />
<polyline points="364.5,249.0,364.0,244.5" stroke="#61d98" stroke-width="2" fill="none" />
<polyline points="369.5,248.5,369.5,252.5,370.0,256.5,371.5,261.0,372.0,264.5,372.5,268.5,371.5,272.5,373.5,274.0,372.5,277.0,372.5,281.0,372.5,285.0" stroke="#4a98a8" stroke-width="2" fill="none" />
<polyline points="372.0,243.0,373.5,238.5,373.5,235.0,373.0,231.0" stroke="#15ac7e" stroke-width="2" fill="none" />
<polyline points="377.5,191.5,373.0,193.5,369.0,194.5,364.5,195.0,360.0,190.0" stroke="#c6a454" stroke-width="2" fill="none" />
<polyline points="362.0,190.0,364.5,194.0" stroke="#89b371" stroke-width="2" fill="none" />
<polyline points="345.0,198.0,343.0,202.5,346.5,207.0" stroke="#14a3b" stroke-width="2" fill="none" />
<polyline points="308.5,180.0,304.5,182.5,300.5,184.5,296.5,188.0,292.5,190.5,288.5,193.5,284.5,197.0,280.5,200.5,276.5,203.5,273.0,207.0,268.5,211.5,269.0,213.0" stroke="#733f58" stroke-width="2" fill="none" />
<polyline points="262.5,209.5,266.5,205.5" stroke="#2aa788" stroke-width="2" fill="none" />
<polyline points="265.0,199.5,263.5,203.5,261.5,207.5,260.0,211.5,260.0,215.5,258.5,221.0,254.5,225.0,251.0,229.0,247.5,233.5,244.5,237.5,241.0,241.5,237.5,245.0,235.0,248.5,231.5,252.5,228.0,256.0,225.5,260.5,222.5,264.5,220.5,268.0,218.5,272.0,215.0,276.5,213.0,280.5,211.0,284.5,209.0,288.5,207.5,292.5,206.5,296.5,204.5,300.5,203.0,304.5,201.0,308.5,200.0,312.0,198.0,315.5,200.5,319.0,199.5,311.5,204.0,301.5,208.0,293.0,212.5,284.0,216.5,276.5,220.0,269.0,224.0,262.5,228.0,256.5,232.0,251.0,236.0,246.5,240.0,241.0,244.0,236.5,247.5,231.5,252.0,227.5,255.5,223.5,259.5,220.0,263.5,216.0,264.5,212.0,268.5,205.5,272.5,203.0,276.5,200.0,280.5,196.5,284.0,193.0,288.0,190.0,292.5,187.0,296.0,183.5,300.0,180.0,304.0,177.5,308.0,175.0" stroke="#314438" stroke-width="2" fill="none" />
<polyline points="312.5,173.5,309.5,177.5,302.5,181.5,298.0,185.5,293.0,190.0,288.5,194.0,284.0,198.0,279.5,201.5,275.0,205.5,273.0,210.0,273.0,214.0,269.5,216.0" stroke="#116068" stroke-width="2" fill="none" />
<polyline points="268.5,189.5,264.5,191.0,260.5,194.5,258.0,201.5,261.5,197.0,265.0,193.0,268.0,189.0" stroke="#344951" stroke-width="2" fill="none" />
<polyline points="266.5,188.5,262.0,193.0,258.5,197.0,254.0,200.5,253.0,205.0,252.5,208.5,253.5,214.5,253.5,217.0" stroke="#edb0d4" stroke-width="2" fill="none" />
<polyline points="242.5,198.5,246.5,193.5,251.0,190.5,255.0,188.5,250.0,188.0,247.0,192.5,244.0,194.0,248.5,190.0,252.0,188.5,256.0,184.5,257.0,188.0,261.0,185.0,265.0,182.5,269.0,181.5" stroke="#4ff178" stroke-width="2" fill="none" />
<polyline points="267.5,181.0,263.5,185.0,258.5,189.0,255.0,192.0,255.0,196.0,250.5,200.0,247.5,204.0,247.0,204.0,250.5,204.5,250.5,201.0,254.0,197.0,258.5,193.0,262.5,190.0,266.5,187.5,271.0,189.5" stroke="#457cf" stroke-width="2" fill="none" />
<polyline points="265.5,186.5,260.5,190.0,256.0,194.5,253.5,198.5,249.5,201.5,250.0,198.0,254.5,194.0,258.5,190.5,262.5,187.5,266.5,185.0" stroke="#93a242" stroke-width="2" fill="none" />
<polyline points="265.5,185.0,259.0,188.5,255.5,189.5,259.5,186.5,264.0,184.0" stroke="#66f8d0" stroke-width="2" fill="none" />
<polyline points="261.0,180.5,256.5,180.5,252.5,182.5,248.5,184.5,248.5,187.0,244.5,192.0,242.0,194.0,242.0,200.0,243.5,199.5,246.5,195.5,251.5,191.0,256.0,188.0,262.0,183.5,268.0,179.0" stroke="#84ab25" stroke-width="2" fill="none" />
<polyline points="272.0,182.0,273.0,186.5,273.5,190.5,272.5,194.0" stroke="#27bb92" stroke-width="2" fill="none" />
<polyline points="266.5,174.0,270.5,175.5,274.5,175.5,278.0,178.0,281.5,175.5,284.0,175.5,291.5,177.5,293.5,182.0,289.0,186.0,284.5,189.0,280.5,193.5,275.0,197.0,271.0,201.0,272.0,196.0,269.5,199.0,270.5,201.0,274.0,197.0,278.5,193.5,282.5,190.0,286.5,185.5,291.5,182.0,295.5,179.0,299.5,176.5,304.0,173.5,308.0,170.0,312.5,167.5,316.5,165.0,320.5,162.5,325.0,160.5,329.0,158.0,333.5,156.0,337.0,153.5" stroke="#b77581" stroke-width="2" fill="none" />
<polyline points="312.5,172.0,306.0,175.5,300.5,179.0,295.5,183.0,290.0,187.5,284.5,191.5,280.5,195.5,275.5,200.0,271.0,204.0,268.0,208.5,271.0,208.5,268.0,212.5,266.5,217.5,266.0,222.0,265.5,224.0,265.5,228.0,266.0,232.5,264.5,236.5,264.5,240.5" stroke="#1aa68d" stroke-width="2" fill="none" />
<polyline points="290.0,252.0,296.5,255.5" stroke="#f3cc81" stroke-width="2" fill="none" />
<polyline points="297.5,223.0,293.5,226.0,289.0,229.5,284.5,233.0,287.0,230.5,291.5,226.5,296.5,222.5" stroke="#9180c8" stroke-width="2" fill="none" />
<polyline points="258.0,178.0,254.0,176.5,250.5,172.0" stroke="#2ceebe" stroke-width="2" fill="none" />
<polyline points="242.0,173.5,246.0,172.0,247.5,173.0,252.0,174.0,250.5,175.5,257.0,181.5,249.0,185.0,249.5,187.5,244.0,191.0,242.0,195.0,241.0,198.0,239.0,202.0,238.0,206.0,241.0,209.0,245.0,210.0,248.5,209.5,252.0,211.5,256.0,203.5,254.5,207.0,253.5,211.0,251.5,214.0,251.5,218.0,248.5,222.0,245.0,226.5,242.0,230.5,238.5,234.5,235.5,238.5,233.5,244.5,230.5,248.5,228.0,252.0,225.0,256.5,223.0,260.5,220.0,265.0,218.0,269.0,215.5,272.5,213.0,276.5,210.5,280.5,208.5,284.5,206.0,288.5,203.5,292.5,201.5,297.0,199.5,301.0,198.0,305.0,196.0,309.5,194.0,313.5,192.5,317.0,187.0,319.0,184.0,322.5,182.5,326.5,179.5,330.0,173.5,334.0,169.0,338.0,165.5,340.5,165.5,346.0" stroke="#43d6a7" stroke-width="2" fill="none" />
<polyline points="159.0,346.0,158.0,349.5,156.0,353.5,159.0,357.0,158.0,361.0,157.5,365.0,157.0,368.5,157.0,372.0,158.5,376.0,157.5,380.0,154.5,381.5,155.0,388.0,154.5,392.0,153.5,396.5,157.5,400.5,163.0,405.0,167.0,409.5,170.0,410.5" stroke="#fba65f" stroke-width="2" fill="none" />
<polyline points="166.0,366.0,168.5,362.5,164.5,368.0,160.0,368.0,160.5,363.5,162.5,359.5,165.5,356.0,168.0,352.0,171.0,348.0,174.0,344.0,177.0,340.0,179.0,336.0,182.0,332.0,178.5,332.0,174.5,334.5,170.5,336.5,165.0,340.0,166.5,336.5,168.0,332.5,165.5,331.5" stroke="#5b21b" stroke-width="2" fill="none" />
<polyline points="164.0,331.5,160.0,336.0,160.0,334.0,162.0,329.5,164.5,325.5,166.5,321.5" stroke="#b45788" stroke-width="2" fill="none" />
<polyline points="163.5,317.5,167.5,319.5,171.0,318.5" stroke="#5064ed" stroke-width="2" fill="none" />
<polyline points="174.0,316.5,170.5,318.0,169.5,323.0,168.0,321.5,164.5,327.5,160.0,333.0,155.0,338.5,151.0,340.0,147.0,337.0,145.0,344.0,142.5,340.5,141.0,336.5,139.0,332.5,138.5,328.0,138.5,324.0,137.0,320.0,136.0,316.0,135.0,312.0,133.5,307.5,132.0,303.5,131.0,299.5,133.5,298.5,135.5,294.5,139.5,291.0,141.0,287.0,142.5,283.5,139.5,282.0,136.5,282.5,132.0,282.0,138.5,283.0,141.0,279.0,146.5,275.0,143.0,272.5,147.0,268.5,152.5,264.5,157.5,257.5,160.5,253.5,162.5,249.5,164.5,245.5,160.5,244.5,156.5,248.5,152.0,249.5" stroke="#f4d14" stroke-width="2" fill="none" />
<polyline points="149.5,249.0,145.5,249.5" stroke="#fe9129" stroke-width="2" fill="none" />
<polyline points="144.0,252.0,148.5,249.0,147.0,249.0,144.0,252.5,146.5,254.0,147.5,258.0" stroke="#71fde9" stroke-width="2" fill="none" />
<polyline points="150.0,265.0,146.0,269.0,141.5,271.5" stroke="#b2364e" stroke-width="2" fill="none" />
<polyline points="139.0,275.0,142.5,274.0,148.5,270.0,152.0,266.0" stroke="#cd9fd5" stroke-width="2" fill="none" />
<polyline points="154.0,270.5,156.0,274.5" stroke="#d0415" stroke-width="2" fill="none" />
<polyline points="152.5,277.5,156.5,278.5,158.0,279.5" stroke="#3355ad" stroke-width="2" fill="none" />
<polyline points="157.0,281.5,160.5,285.0" stroke="#2963a1" stroke-width="2" fill="none" />
<polyline points="160.5,284.5,162.0,279.5,160.5,276.0,161.0,272.0,161.5,268.0,162.5,264.0,164.0,259.5,162.5,258.0" stroke="#aebf4" stroke-width="2" fill="none" />
<polyline points="167.0,257.0,170.5,253.5,174.5,247.0" stroke="#7e597e" stroke-width="2" fill="none" />
<polyline points="175.5,253.0,176.5,257.5,176.0,261.0,176.0,265.0" stroke="#d0735e" stroke-width="2" fill="none" />
<polyline points="179.0,261.0,181.0,265.0" stroke="#596f60" stroke-width="2" fill="none" />
<polyline points="186.5,269.5,185.5,265.0,185.0,261.0,185.0,257.0,184.0,254.0" stroke="#a7ec1" stroke-width="2" fill="none" />
<polyline points="183.5,253.5,187.5,251.0,192.0,252.0,193.0,255.5,194.0,259.0,197.0,263.0,204.0,265.5" stroke="#7be19e" stroke-width="2" fill="none" />
<polyline points="205.5,263.5,201.5,261.0,197.5,257.0" stroke="#9c1719" stroke-width="2" fill="none" />
<polyline points="191.0,250.5,195.0,254.5,195.5,261.5,199.5,266.5,203.5,267.0" stroke="#c6e6a1" stroke-width="2" fill="none" />
<polyline points="213.0,256.5,209.0,254.5,205.0,250.0" stroke="#c829" stroke-width="2" fill="none" />
<polyline points="206.5,250.5,208.5,251.5" stroke="#db3a1b" stroke-width="2" fill="none" />
<polyline points="204.5,264.0,198.0,259.5,196.5,255.5,194.5,251.0,189.5,252.0" stroke="#57151" stroke-width="2" fill="none" />
<polyline points="187.0,244.0,191.0,243.0,195.0,239.0,198.5,234.0,196.0,237.5,192.0,241.5,187.0,244.5,186.0,249.5,184.0,253.5,184.5,257.5,184.5,261.5,185.0,266.0,186.0,270.0,187.5,272.5" stroke="#852cf" stroke-width="2" fill="none" />
<polyline points="182.5,264.0,178.5,257.5" stroke="#32ace6" stroke-width="2" fill="none" />
<polyline points="177.0,258.5,177.0,262.0" stroke="#cb3fa1" stroke-width="2" fill="none" />
<polyline points="179.5,260.5,175.5,253.5" stroke="#c834e" stroke-width="2" fill="none" />
<polyline points="170.5,257.0,174.0,251.5,172.0,255.0,170.0,259.0,169.5,263.0,168.5,267.0,168.0,271.0,169.0,274.5,166.5,278.5,168.0,279.0" stroke="#f0339b" stroke-width="2" fill="none" />
<polyline points="167.5,277.0,167.5,276.5,167.5,272.5,168.5,268.5,166.0,264.0,167.0,260.5,166.0,266.0" stroke="#11afc7" stroke-width="2" fill="none" />
<polyline points="162.0,278.5,157.5,271.5,153.5,273.5,149.5,273.0" stroke="#5d9a48" stroke-width="2" fill="none" />
<polyline points="150.0,272.5,154.0,268.5,157.5,263.5,162.0,258.0,158.0,259.5,155.5,263.5,153.0,267.5,149.0,270.5,149.5,274.0,149.0,278.0,149.5,282.5,150.5,286.5,154.0,290.0,158.0,291.5,161.0,297.0,161.5,301.0,157.5,304.0,156.5,309.0,158.5,313.0,157.5,315.5,158.0,318.5,157.0,319.5,161.0,318.5,163.0,317.5,165.0,313.5,169.0,311.0,173.0,307.0,175.5,300.5,179.0,295.5" stroke="#2a4a22" stroke-width="2" fill="none" />
<polyline points="176.5,299.0,179.0,300.0,182.0,304.0,184.5,308.5,181.5,311.0,183.0,313.0" stroke="#cce021" stroke-width="2" fill="none" />
<polyline points="183.5,307.5,179.5,302.0" stroke="#e5b71" stroke-width="2" fill="none" />
<polyline points="179.5,305.5,177.0,303.5,176.5,300.0" stroke="#a1fe15" stroke-width="2" fill="none" />
<polyline points="176.5,304.5,181.0,308.0" stroke="#e3bfbb" stroke-width="2" fill="none" />
<polyline points="173.0,310.0,170.5,314.5,167.0,316.5,170.0,313.5,173.0,314.5" stroke="#58857b" stroke-width="2" fill="none" />
<polyline points="165.0,302.0,164.5,298.5,170.5,293.5,174.0,289.5,173.0,285.0,170.5,289.5,166.5,291.5,164.0,290.0,166.5,286.0,170.5,281.0,175.0,277.0,175.0,279.5,173.5,278.5,169.5,281.5,167.0,282.0,164.0,283.5,161.5,286.0,164.5,284.5,163.5,280.5,164.5,276.5,163.5,276.0,164.5,271.5,165.0,267.5,168.0,264.0,169.0,259.5,168.5,256.0,171.0,252.0,174.0,247.5,175.0,243.5,175.0,239.5,174.0,235.0,177.5,231.5,174.0,234.5" stroke="#b06e4e" stroke-width="2" fill="none" />
<polyline points="177.0,234.5,176.0,238.5,175.5,242.5,177.0,244.5,176.5,248.5,176.5,252.5,177.5,256.0,179.5,259.5,182.0,263.5" stroke="#cac1ab" stroke-width="2" fill="none" />
<polyline points="174.5,279.0,172.0,283.0,169.0,287.5,168.0,289.5" stroke="#9d7515" stroke-width="2" fill="none" />
<polyline points="172.0,287.5,172.0,290.5,168.5,294.0,164.5,295.5,160.5,296.0,156.5,295.0,152.5,292.5" stroke="#89d4f3" stroke-width="2" fill="none" />
<polyline points="152.0,293.5,156.0,297.5" stroke="#fb22d" stroke-width="2" fill="none" />
<polyline points="156.0,295.5,160.5,300.0" stroke="#95da3a" stroke-width="2" fill="none" />
<polyline points="159.5,297.0,155.5,294.5" stroke="#eba3ce" stroke-width="2" fill="none" />
<polyline points="160.0,292.5,156.5,290.5,152.0,288.0" stroke="#28d4e2" stroke-width="2" fill="none" />
<polyline points="153.5,281.0,157.5,286.5,161.5,289.5" stroke="#1e13e8" stroke-width="2" fill="none" />
<polyline points="171.5,292.5,170.5,296.5,169.5,300.5,169.5,304.5,166.5,308.5,167.0,312.0,166.0,314.5,163.5,318.5,169.5,322.0,168.5,325.5,166.0,329.5,162.5,333.0,159.5,337.0,158.5,343.0,153.5,347.0,151.0,351.0,152.5,352.5,150.0,354.5,147.5,357.5,146.0,352.5,148.0,349.5,152.5,352.0,157.0,352.5,159.0,345.0,162.5,347.0,166.5,345.0,170.5,343.0" stroke="#13312a" stroke-width="2" fill="none" />
<polyline points="166.0,358.5,162.5,362.5,165.5,359.0" stroke="#5c7228" stroke-width="2" fill="none" />
<polyline points="162.5,365.5,167.0,361.5,171.0,358.0,175.0,353.5,179.5,347.5,183.5,342.0,187.0,335.5" stroke="#b61ce5" stroke-width="2" fill="none" />
<polyline points="191.0,331.5,186.5,331.0,181.0,332.0,177.0,338.5,172.5,344.0,168.5,349.0,164.5,355.0,161.0,360.5,159.0,369.5,161.5,367.0,165.0,362.0,170.5,358.0,174.0,354.0,177.5,350.0,180.0,346.5,183.5,342.0,186.0,338.0,186.0,334.0,189.0,334.0,191.5,330.0" stroke="#ad429b" stroke-width="2" fill="none" />
<polyline points="190.0,345.0,190.5,346.0,191.0,350.5,192.0,354.0" stroke="#d6e9d2" stroke-width="2" fill="none" />
<polyline points="195.5,354.0,194.0,350.0,193.0,345.5" stroke="#66159f" stroke-width="2" fill="none" />
<polyline points="160.0,314.5,158.5,310.0,158.0,310.0" stroke="#3e7e" stroke-width="2" fill="none" />
<polyline points="157.0,310.5,161.0,312.5" stroke="#4d818c" stroke-width="2" fill="none" />
<polyline points="155.5,313.5,155.5,314.0,156.0,317.5" stroke="#183710" stroke-width="2" fill="none" />
<polyline points="157.0,300.5,153.5,296.0,150.5,292.0,151.0,288.0,149.5,283.0,149.5,279.0,150.0,273.5,152.0,269.5,155.5,265.0,159.0,261.5,161.5,257.5,162.5,253.5,164.0,249.0,165.5,245.5,166.5,241.5,169.0,239.5,164.0,245.0,160.0,252.5,155.5,258.0,151.5,258.0,146.5,257.5,143.0,258.0,139.5,264.0,137.0,264.5,136.0,259.0,132.5,261.5,128.5,263.5,127.0,265.5,131.5,261.5,131.5,257.5,130.5,253.5,128.0,249.5,129.5,246.0,136.0,245.5,136.0,241.0,139.5,237.5,137.0,233.5,135.0,230.0,134.0,226.5,133.0,222.5,133.5,218.5,133.0,215.0,131.5,211.0,129.0,207.0,126.5,202.5,125.0,198.5,123.5,194.0,121.5,189.5,121.0,185.0,120.0,181.0,119.5,177.0,119.5,172.5,119.5,168.5,120.0,164.5,120.5,161.0,120.5,157.0,121.0,153.0,121.0,149.0,121.5,145.0,122.5,141.0,123.5,137.5,124.0,133.5,125.0,129.5,126.0,125.5,127.0,121.5,128.5,117.5,130.0,113.5,132.0,109.5,134.0,105.5,136.5,105.0,138.5,101.5,138.5,101.5,134.0,107.0" stroke="#d28ef8" stroke-width="2" fill="none" />
<polyline points="127.5,122.5,131.5,113.0,135.5,105.0,135.0,109.5,134.5,113.0,134.0,117.0,132.5,121.0,132.0,125.0,132.5,129.0,132.0,133.0,130.5,137.0,128.0,141.0,128.5,145.0,129.5,145.5,128.0,150.0,129.0,152.5,129.5,155.0,126.5,159.0,130.0,157.0,129.0,150.0" stroke="#93b3d8" stroke-width="2" fill="none" />
<polyline points="129.0,155.5,132.5,157.0,131.0,158.0,132.0,161.5,134.5,163.0,131.5,166.5,128.0,170.5,131.5,167.0,134.0,161.5" stroke="#c72ba7" stroke-width="2" fill="none" />
<polyline points="139.5,167.0,137.5,171.5,133.5,174.5,130.5,175.0,135.0,171.5" stroke="#b1725d" stroke-width="2" fill="none" />
<polyline points="135.5,173.0,131.5,177.0,137.0,176.5,140.5,172.0,141.5,168.5" stroke="#cd41b3" stroke-width="2" fill="none" />
<polyline points="143.0,168.5,139.5,173.0,136.0,177.0,134.0,177.0" stroke="#6c72e" stroke-width="2" fill="none" />
<polyline points="139.5,175.0,135.5,179.0,134.0,180.5,138.0,177.0,140.5,173.0" stroke="#73b04" stroke-width="2" fill="none" />
<polyline points="142.5,179.0,139.0,184.5,135.0,188.5" stroke="#6ee497" stroke-width="2" fill="none" />
<polyline points="135.0,191.0,140.0,189.5,143.5,186.5,144.5,181.5,148.5,180.5" stroke="#383217" stroke-width="2" fill="none" />
<polyline points="146.5,183.5,150.5,189.0" stroke="#a5813b" stroke-width="2" fill="none" />
<polyline points="150.5,191.0,148.0,190.0,147.0,185.5,142.0,184.5" stroke="#f7e9e" stroke-width="2" fill="none" />
<polyline points="141.0,181.5,145.0,178.0,145.0,178.0,145.0,180.0,141.0,184.0,142.0,188.0,144.0,190.0,145.0,193.5,147.0,197.5" stroke="#b4adc6" stroke-width="2" fill="none" />
<polyline points="147.5,195.0,143.5,190.5" stroke="#98444" stroke-width="2" fill="none" />
<polyline points="143.5,188.5,147.5,194.0,151.5,195.0,157.0,188.0,161.0,182.5,165.5,177.5,169.5,172.5,173.0,168.0,177.0,163.5,181.0,160.0,185.0,156.5,189.5,153.0,193.5,149.0,198.0,146.0,202.0,143.5" stroke="#3bf8b4" stroke-width="2" fill="none" />
<polyline points="205.0,147.5,209.0,151.5,214.0,155.0,218.0,159.0,220.5,160.5" stroke="#3a32a0" stroke-width="2" fill="none" />
<polyline points="227.5,162.0,224.0,156.5,228.5,152.5,224.5,156.0,220.0,155.5,216.0,152.0" stroke="#c4fb3b" stroke-width="2" fill="none" />
<polyline points="216.0,153.5,220.0,157.5,227.0,163.5" stroke="#fc2ac2" stroke-width="2" fill="none" />
<polyline points="222.5,159.5,218.5,158.5,214.0,155.0,210.0,151.0,206.5,147.5" stroke="#6a843b" stroke-width="2" fill="none" />
<polyline points="213.0,140.5,217.5,144.5" stroke="#bb8e92" stroke-width="2" fill="none" />
<polyline points="214.5,140.0,218.5,143.0,223.0,146.5" stroke="#abda7c" stroke-width="2" fill="none" />
<polyline points="233.5,143.5,237.5,147.5" stroke="#8f19f" stroke-width="2" fill="none" />
<polyline points="242.0,144.5,246.5,140.5,249.5,138.5,254.5,134.5,260.0,131.0,258.0,132.0,254.0,135.0,250.0,138.0,246.0,141.0,242.0,144.5,238.0,147.0,234.0,143.0" stroke="#a7fb76" stroke-width="2" fill="none" />
<polyline points="227.5,128.0,223.5,130.5,220.0,133.0,216.0,136.5,212.0,139.5,208.5,142.0,204.0,145.5,200.0,149.0,196.0,152.5,198.5,150.5,202.5,146.5,208.0,142.5,213.0,138.5,218.0,134.5,224.0,130.5,230.0,126.5" stroke="#7c306e" stroke-width="2" fill="none" />
<polyline points="224.0,126.5,218.0,130.5,212.0,134.5,207.0,138.5,208.5,140.0,212.5,137.0,216.5,134.0,220.5,130.5,224.5,128.0,228.5,125.5,232.5,122.5,236.5,120.5" stroke="#1dc4a" stroke-width="2" fill="none" />
<polyline points="237.0,118.5,230.5,122.5,224.5,127.0,219.0,131.0,213.0,135.0,208.0,139.5,204.0,143.0,199.5,146.5,194.5,150.5,190.5,155.0,186.0,159.0,182.5,162.5,178.0,166.5,173.5,170.5,170.0,174.5,166.5,179.0,162.5,182.5,159.0,186.5,154.0,191.5,151.5,195.5,153.0,199.0,151.5,203.0,149.0,207.0,147.0,211.5,146.5,215.0,144.0,219.0,142.5,223.0,141.5,227.5,142.0,231.5,142.5,235.5,142.5,240.0,142.0,241.5,134.5,244.5,132.0,250.0,133.0,253.0,134.0,257.0,138.5,256.5,141.0,257.5" stroke="#79bc2" stroke-width="2" fill="none" />
<polyline points="137.5,256.0,133.0,256.0" stroke="#5e9051" stroke-width="2" fill="none" />
<polyline points="130.5,250.0,135.0,247.5,139.0,246.5,141.5,246.5" stroke="#6fade4" stroke-width="2" fill="none" />
<polyline points="143.5,244.0,139.0,243.0,135.0,245.0" stroke="#e35410" stroke-width="2" fill="none" />
<polyline points="141.5,240.0,137.5,233.0,133.5,222.5" stroke="#bfc1b7" stroke-width="2" fill="none" />
<polyline points="141.5,226.0,145.5,217.0" stroke="#7ac3d3" stroke-width="2" fill="none" />
<polyline points="147.0,214.0,148.5,212.5,150.0,208.5" stroke="#287184" stroke-width="2" fill="none" />
<polyline points="146.5,199.0,143.0,194.0" stroke="#45f364" stroke-width="2" fill="none" />
<polyline points="141.0,192.5,140.0,197.0,137.5,200.5" stroke="#25397f" stroke-width="2" fill="none" />
<polyline points="140.0,195.5,143.5,199.5,145.5,203.0,146.0,207.0,144.0,211.0,143.0,215.0,147.5,208.0,151.5,201.5" stroke="#93d1ec" stroke-width="2" fill="none" />
<polyline points="145.5,201.0,142.5,196.5,137.0,194.0,136.5,190.5,133.5,186.0,135.5,182.0,140.5,178.0,144.0,174.0,141.5,177.0,137.5,181.0,133.0,185.5" stroke="#3d27e3" stroke-width="2" fill="none" />
<polyline points="144.5,187.0,147.0,190.5,146.5,193.0" stroke="#1a25dc" stroke-width="2" fill="none" />
<polyline points="125.5,199.5,129.5,207.0" stroke="#c9b1d9" stroke-width="2" fill="none" />
<polyline points="116.0,228.0,112.0,229.5,111.0,231.0,114.5,227.0" stroke="#14e094" stroke-width="2" fill="none" />
<polyline points="114.5,227.5,112.0,231.5,114.0,230.0" stroke="#e32ced" stroke-width="2" fill="none" />
<polyline points="124.0,252.5,119.5,256.5,116.0,260.5,112.5,265.0,116.0,260.0,119.5,256.5,123.5,254.0,127.5,248.5,131.5,247.0,136.0,242.5,142.0,241.0,148.5,237.0,153.0,232.0,157.0,228.0,161.5,224.0" stroke="#f91bf" stroke-width="2" fill="none" />
<polyline points="159.5,223.5,156.0,227.5,151.5,230.5,149.0,235.5,145.5,239.5,143.0,246.5,142.5,250.5,142.0,254.5,140.5,259.5,139.5,263.0,134.5,265.0,132.0,269.0,132.0,269.0,136.5,268.5" stroke="#2027b1" stroke-width="2" fill="none" />
<polyline points="135.0,269.5,137.0,265.5,133.5,264.0" stroke="#e466e" stroke-width="2" fill="none" />
<polyline points="131.0,265.5,130.0,270.0,125.0,273.5,119.0,277.5,110.5,281.5,101.5,285.5,99.5,290.0,94.5,297.5,92.5,301.5,88.0,306.0,81.0,310.5,82.5,315.5,78.0,319.5,71.0,323.0,74.5,321.5,78.5,319.0,83.0,316.0,87.5,317.0" stroke="#e745ed" stroke-width="2" fill="none" />
<polyline points="88.0,324.0,92.5,324.5,90.0,328.5,93.0,327.0,91.0,331.5,86.0,336.0,83.0,340.0,79.5,343.5,77.0,347.5,74.0,351.0,70.0,355.0,66.0,359.5,63.5,361.0,63.5,364.5,67.0,362.5,71.0,358.5,74.5,354.0,78.5,348.0,82.5,343.0,86.5,338.5,90.0,339.5,89.5,343.0,89.5,347.5,88.5,351.5,85.0,355.5,82.5,359.5,80.0,364.0,77.5,368.0,77.5,372.0,82.5,375.0,83.0,370.5,87.5,362.0,91.0,355.0,95.0,348.5" stroke="#be6863" stroke-width="2" fill="none" />
<polyline points="96.5,351.5,92.5,357.0" stroke="#959fe4" stroke-width="2" fill="none" />
<polyline points="94.5,355.5,95.0,359.5,94.5,363.5,94.0,368.0,92.5,372.0,92.0,376.0,89.0,380.5,88.0,385.0,87.0,388.0,87.5,392.0,87.5,396.0,90.0,400.0,93.0,404.0,91.0,407.0,92.0,409.0,96.0,411.5,100.5,412.0,104.5,411.0,108.5,407.0,114.5,401.0" stroke="#f94c86" stroke-width="2" fill="none" />
<polyline points="116.5,400.0,113.5,404.0,111.5,408.0,112.5,407.0" stroke="#fa65b3" stroke-width="2" fill="none" />
<polyline points="116.0,408.0,115.5,405.0,117.0,401.5" stroke="#b2526b" stroke-width="2" fill="none" />
<polyline points="105.0,408.0,101.0,409.0,99.5,409.0,98.0,405.0,96.5,402.5,94.0,400.5,92.5,396.5,91.0,391.5,90.5,387.5,91.5,383.5,86.0,387.0" stroke="#36fc3" stroke-width="2" fill="none" />
<polyline points="82.0,385.0,79.5,389.5,79.0,393.5,76.5,397.5,73.5,402.0,72.5,406.0,72.5,410.5,72.0,415.0,70.5,415.5,70.0,419.0,70.5,423.0,68.5,426.5,70.0,426.0,70.0,430.0,71.0,430.5,69.5,434.0,68.0,438.0,68.5,442.5,68.5,446.5,68.5,450.0,68.5,454.0,67.5,458.0,68.0,462.5,67.5,466.5,66.0,471.0,65.5,475.0,64.5,479.5,65.0,483.5,65.5,487.5,66.5,491.5,67.0,495.5,67.0,499.5,63.5,503.0,63.5,507.0,62.5,511.0,63.0,511.0,66.0,507.5" stroke="#1df173" stroke-width="2" fill="none" />
<polyline points="66.5,512.0,67.5,508.0,64.5,502.5" stroke="#d78c57" stroke-width="2" fill="none" />
<polyline points="69.5,497.5,70.0,493.5,71.0,489.5,71.5,485.5,72.0,481.5,70.0,478.0" stroke="#89f9de" stroke-width="2" fill="none" />
<polyline points="66.5,473.0,69.5,471.5,69.5,476.0,69.0,480.0,68.5,484.0,67.5,487.5,68.0,492.0,68.5,496.0" stroke="#3eb243" stroke-width="2" fill="none" />
<polyline points="72.0,466.0,71.5,462.5,71.5,458.5,72.5,457.0" stroke="#9cd782" stroke-width="2" fill="none" />
<polyline points="74.0,457.5,74.0,461.0,73.0,465.0,75.0,469.0,74.5,473.0" stroke="#e5a57d" stroke-width="2" fill="none" />
<polyline points="67.0,454.0,67.5,449.5,67.5,447.5" stroke="#962e4" stroke-width="2" fill="none" />
<polyline points="64.5,451.5,64.5,455.0,65.0,459.0,66.5,463.0,69.0,468.0,69.5,471.0,69.5,475.0,69.0,479.0,69.0,483.0" stroke="#44aafa" stroke-width="2" fill="none" />
<polyline points="31.0,492.0,29.0,497.5,30.0,501.5,33.5,505.5,33.5,509.5" stroke="#4cb42" stroke-width="2" fill="none" />
<polyline points="19.0,510.5,19.5,506.5,21.5,502.5,20.0,503.5" stroke="#6c67fb" stroke-width="2" fill="none" />
<polyline points="15.0,505.5,14.5,501.5,14.5,497.5,14.0,493.5" stroke="#c4b34b" stroke-width="2" fill="none" />
<polyline points="10.5,427.5,10.5,423.0,5.5,421.0" stroke="#c485e9" stroke-width="2" fill="none" />
<polyline points="5.5,420.5,8.0,424.5,9.5,428.0,10.5,432.0,10.5,435.5,10.0,439.0,10.0,443.0,12.0,445.5,11.0,449.0,11.0,452.5,11.0,456.5,13.0,459.0,11.5,463.5,13.5,467.5,14.5,472.0,14.0,476.0,13.5,479.0" stroke="#44ae5" stroke-width="2" fill="none" />
<polyline points="34.5,460.5,34.5,456.5,34.0,453.0,34.0,449.5,33.0,446.0,33.0,441.0,32.5,437.5,32.5,434.0,32.0,430.0,32.0,426.5" stroke="#aa89a7" stroke-width="2" fill="none" />
<polyline points="25.5,419.5,23.0,413.0" stroke="#5d7433" stroke-width="2" fill="none" />
<polyline points="23.0,412.0,25.5,416.0,27.0,420.0,27.0,424.0,26.5,428.0,26.0,432.0,26.0,436.0,26.5,440.0,27.5,444.0,27.0,448.0,27.0,452.5,28.0,456.5,28.0,459.5,27.5,463.5,29.0,467.5,29.5,471.5,28.5,475.5,30.5,479.0,31.5,483.0,32.0,487.0,31.5,491.0,33.0,495.0,33.0,499.0,32.0,502.5" stroke="#1a9325" stroke-width="2" fill="none" />
<polyline points="67.5,436.5,65.0,437.0,64.5,433.0,64.0,433.5" stroke="#62d7f" stroke-width="2" fill="none" />
<polyline points="66.5,425.5,65.0,424.5,64.5,421.0,64.5,416.5,65.0,412.5,66.0,408.0,71.0,404.0,74.0,400.0,75.5,396.0,74.5,396.0,74.5,398.5" stroke="#8c2951" stroke-width="2" fill="none" />
<polyline points="81.5,395.5,77.5,402.5,73.0,406.5" stroke="#5f819d" stroke-width="2" fill="none" />
<polyline points="66.5,407.5,70.5,403.5,74.0,400.5,77.5,394.5,79.5,386.5" stroke="#5d6e27" stroke-width="2" fill="none" />
<polyline points="80.0,386.0,79.5,390.5,78.0,396.5,76.5,400.5,74.5,404.5,73.0,408.5,73.5,412.5" stroke="#312f9b" stroke-width="2" fill="none" />
<polyline points="68.5,412.0,72.0,402.0,71.0,406.5,69.5,410.5,68.5,415.0,67.5,419.5" stroke="#c0ca7" stroke-width="2" fill="none" />
<polyline points="68.5,414.5,71.5,418.0,72.0,422.0,70.5,424.0" stroke="#16942" stroke-width="2" fill="none" />
<polyline points="89.5,422.0,88.0,424.5,91.0,420.5,92.5,416.5" stroke="#563fc9" stroke-width="2" fill="none" />
<polyline points="92.5,416.0,89.0,420.0,87.0,424.0,88.0,422.0" stroke="#dd66b3" stroke-width="2" fill="none" />
<polyline points="90.0,406.5,94.0,405.5" stroke="#527c0" stroke-width="2" fill="none" />
<polyline points="96.0,400.5,92.0,398.5" stroke="#c0c42" stroke-width="2" fill="none" />
<polyline points="89.0,397.5,93.5,404.0" stroke="#5430d9" stroke-width="2" fill="none" />
<polyline points="102.5,415.0,100.5,413.5,108.0,409.0,110.0,404.5,110.0,400.5,108.0,396.0,107.0,392.0" stroke="#7b35e5" stroke-width="2" fill="none" />
<polyline points="107.0,391.5,106.0,395.5,106.5,400.0,107.5,404.0" stroke="#da24b6" stroke-width="2" fill="none" />
<polyline points="104.0,380.0,105.0,376.0,105.0,372.0,105.0,368.0,106.5,364.5,107.5,361.0,107.5,357.5,109.0,353.5,106.5,347.0,106.5,343.0,108.0,344.0,108.0,345.0" stroke="#152374" stroke-width="2" fill="none" />
<polyline points="108.5,353.0,108.5,357.0,106.5,361.0,105.5,365.0,104.5,369.5,103.5,373.0,103.5,377.5,103.5,382.0" stroke="#389429" stroke-width="2" fill="none" />
<polyline points="113.5,368.5,110.5,364.0,110.5,360.0" stroke="#5e828f" stroke-width="2" fill="none" />
<polyline points="116.0,360.5,114.5,356.0,113.5,352.0" stroke="#44c166" stroke-width="2" fill="none" />
<polyline points="113.0,354.0,113.0,357.5,114.0,361.5,112.0,362.5,112.0,362.5,114.0,368.5" stroke="#9b2c94" stroke-width="2" fill="none" />
<polyline points="126.5,358.5,133.0,362.5,134.5,367.0" stroke="#7c60c9" stroke-width="2" fill="none" />
<polyline points="143.5,363.5,147.0,368.0" stroke="#622778" stroke-width="2" fill="none" />
<polyline points="149.0,362.0,151.5,366.0,151.0,367.5,151.0,371.0,151.0,375.0,151.5,379.0,151.0,383.0,150.0,384.5,154.5,388.5,158.5,391.0,162.0,395.5,168.0,398.0,172.5,402.0,177.0,409.5" stroke="#528a17" stroke-width="2" fill="none" />
<polyline points="143.0,348.5,138.0,346.5,137.5,343.0,136.0,338.5,135.5,334.5,134.5,330.5,133.0,326.5,131.5,322.5,131.0,318.5,130.5,314.0,129.5,310.0,126.0,302.5,129.0,300.0" stroke="#369ea" stroke-width="2" fill="none" />
<polyline points="126.0,301.5,130.0,299.0,134.0,296.5,138.0,293.0" stroke="#85d74d" stroke-width="2" fill="none" />
<polyline points="136.5,289.0,132.5,293.5,129.0,295.5,124.5,298.5" stroke="#d0f666" stroke-width="2" fill="none" />
<polyline points="118.5,295.5,114.5,300.0,110.5,303.5,106.5,307.5,102.5,313.0,98.5,321.0" stroke="#c416e8" stroke-width="2" fill="none" />
<polyline points="104.5,322.5,108.5,318.5,113.0,316.0,117.5,308.0,117.5,309.0,115.0,313.0,111.5,317.0,107.0,321.0,105.5,318.0,109.5,313.5,110.5,311.5,109.0,314.5,104.5,318.5,104.0,322.5,107.5,317.5,111.0,313.5,115.0,309.0" stroke="#7cd475" stroke-width="2" fill="none" />
<polyline points="119.0,309.5,118.0,313.5,117.0,317.5,115.0,321.5,113.0,326.0,112.0,330.0,108.0,334.0,104.5,338.5,100.5,343.0,100.0,347.0,100.5,351.5,96.5,352.5,92.5,356.5,94.0,360.0,92.5,363.5,92.0,367.5,91.0,371.5,92.0,378.0,92.0,382.0,94.0,386.0" stroke="#6e8e25" stroke-width="2" fill="none" />
<polyline points="79.0,382.0,75.0,389.5,71.0,393.5,67.0,397.5,63.0,401.0,59.0,403.0,62.0,399.0,66.0,394.5,70.0,390.5,74.5,386.0,77.0,382.5,77.5,382.5,73.5,388.0,69.5,391.5,65.5,396.0,61.5,399.5,58.0,403.5,64.0,399.5,68.5,395.0,72.5,391.5,75.5,387.5,78.0,383.5,81.5,379.0,81.5,374.5,82.5,369.0,85.5,365.5,87.0,362.0,88.0,358.0,86.5,357.0,90.5,356.0,93.5,352.0,95.5,348.0,98.0,348.0,94.5,343.0,92.5,348.0,93.5,344.0,95.5,339.5,96.5,335.0,96.0,330.5,96.0,326.0,96.0,322.5,96.5,319.0,97.0,314.5,97.0,310.5,101.0,306.5,104.0,302.5,106.5,301.5,103.5,302.5,99.5,308.0,95.5,312.0" stroke="#b3a3c7" stroke-width="2" fill="none" />
<polyline points="90.0,309.0,84.0,312.5,88.0,310.0,92.0,308.0,97.0,306.0,100.5,304.0,104.5,300.5" stroke="#4d17b9" stroke-width="2" fill="none" />
<polyline points="108.5,302.0,106.5,306.0,103.0,309.5,101.0,313.5,99.0,317.5,98.0,319.0,101.5,311.0,105.5,305.5" stroke="#529787" stroke-width="2" fill="none" />
<polyline points="101.5,302.0,97.0,302.5,92.5,305.0,99.5,303.0,101.0,299.0,106.5,295.5" stroke="#f3d8ca" stroke-width="2" fill="none" />
<polyline points="109.0,295.5,104.0,296.5,100.0,297.5,94.5,295.5,90.5,296.5,86.5,297.0,82.0,298.5,88.5,295.5" stroke="#ce9b80" stroke-width="2" fill="none" />
<polyline points="86.0,294.0,79.5,298.0,82.0,295.5,86.5,294.0,91.0,293.0,95.5,293.0,99.5,291.0,103.5,291.0,108.0,289.0,112.0,286.0" stroke="#1b4434" stroke-width="2" fill="none" />
<polyline points="115.5,285.0,115.5,286.5,108.5,289.0,113.0,285.0,111.5,279.0,114.5,277.0,113.0,273.0,116.5,271.0,112.5,270.5" stroke="#ac3217" stroke-width="2" fill="none" />
<polyline points="113.0,272.5,114.0,273.5,114.5,277.5,116.0,284.0,112.5,288.5,108.0,292.5,107.0,297.0,103.5,301.5,99.0,305.5,91.5,310.0,92.0,314.0,91.0,318.0,89.5,322.0,88.0,325.5,87.5,329.5,88.0,333.0,88.5,337.0,84.0,341.0,81.0,344.5,78.0,348.0,75.0,352.0,72.0,356.0,68.5,360.0,64.0,361.5,68.0,357.0,72.0,353.0,76.0,348.0,79.5,343.0,83.5,337.5,88.5,332.0,92.5,329.0" stroke="#4b80f9" stroke-width="2" fill="none" />
<polyline points="101.0,341.0,104.5,337.0,108.5,332.5,112.5,326.5,116.0,318.5" stroke="#d420c9" stroke-width="2" fill="none" />
<polyline points="117.0,324.5,116.5,328.5,117.5,329.0" stroke="#1eb0a3" stroke-width="2" fill="none" />
<polyline points="127.0,332.5,127.5,328.5,128.5,324.5,127.0,321.0,126.0,317.0,127.5,314.5,127.0,310.0" stroke="#66dbdb" stroke-width="2" fill="none" />
<polyline points="121.5,305.5,118.5,305.5,117.0,309.5,113.5,313.5,109.5,317.5,106.5,321.0,102.0,327.0" stroke="#2253b9" stroke-width="2" fill="none" />
<polyline points="79.5,317.5,76.0,320.0,72.0,322.5,69.0,324.0,76.0,319.5,79.0,314.5,75.0,310.5,75.0,306.5,75.5,306.5" stroke="#fdcb9a" stroke-width="2" fill="none" />
<polyline points="77.5,306.0,77.0,309.5,79.0,311.0,83.0,308.5,86.5,306.5,90.5,304.0" stroke="#39c781" stroke-width="2" fill="none" />
<polyline points="78.5,314.0,74.5,309.5" stroke="#acd67e" stroke-width="2" fill="none" />
<polyline points="91.0,283.5,95.0,288.5,99.0,287.5,103.0,284.5,107.0,283.0,111.5,280.5" stroke="#517416" stroke-width="2" fill="none" />
<polyline points="118.0,282.5,113.0,280.0,110.5,278.0,106.0,276.5,102.5,276.5,99.0,280.0,95.0,283.0,98.5,280.0,103.0,276.0,110.0,274.0,110.0,270.0,109.5,265.5,112.5,261.0,114.0,259.0,110.0,264.5" stroke="#205ebf" stroke-width="2" fill="none" />
<polyline points="114.0,266.0,117.0,260.5,115.0,264.5,118.0,269.0,126.0,275.0,130.0,278.5,134.0,277.5,138.0,273.0,142.0,269.0,145.5,265.5,149.5,261.5,153.0,263.5,157.5,259.5,164.5,252.5" stroke="#9d9dfa" stroke-width="2" fill="none" />
<polyline points="156.5,250.5,155.5,254.5,151.0,252.0,155.5,253.5" stroke="#1f75b3" stroke-width="2" fill="none" />
<polyline points="164.5,239.0,168.5,235.0,172.5,232.0,176.0,228.5,179.0,228.5" stroke="#95f6d6" stroke-width="2" fill="none" />
<polyline points="175.0,228.0,169.5,232.0,165.5,235.5,162.0,239.5,159.5,244.0,155.5,248.0,151.0,251.0,148.5,255.0,151.5,257.0,150.5,260.5,147.0,264.5,143.0,268.5,138.5,272.5,135.5,276.0,129.5,281.5,133.0,288.5,130.0,292.5,127.5,296.0,126.5,301.0,129.0,305.0,128.0,308.5,125.0,312.0,124.5,316.0,124.0,320.0,124.0,324.0,124.5,328.5,123.5,332.0,123.5,337.0,125.0,339.0,126.0,343.5,129.0,348.0,132.5,351.5,136.5,354.5,137.0,358.5,138.5,363.5,142.0,367.5,144.5,367.0,146.0,371.0,147.5,375.5,149.0,379.5,147.0,383.5,149.0,387.5,148.0,392.0,149.5,396.0,150.5,396.5,151.5,401.5,151.5,405.0,154.5,406.0,158.5,410.5,160.5,414.5,162.0,419.0,160.5,423.0,155.0,424.5" stroke="#4ffac6" stroke-width="2" fill="none" />
<polyline points="146.5,373.0,140.0,369.5,136.0,369.5,131.5,369.5,131.5,365.0,126.5,363.0,126.0,358.5,123.5,354.5" stroke="#ead033" stroke-width="2" fill="none" />
<polyline points="85.0,355.0,81.0,361.0,77.0,367.5" stroke="#bd8f7d" stroke-width="2" fill="none" />
<polyline points="75.0,366.0,79.0,359.0,83.5,352.5,86.0,350.5,81.5,355.0,79.5,359.0,78.0,363.0,75.0,367.0,75.0,371.0,75.0,375.5" stroke="#69591" stroke-width="2" fill="none" />
<polyline points="21.0,368.0,19.0,374.5,20.5,371.0,20.5,367.5" stroke="#5042c8" stroke-width="2" fill="none" />
<polyline points="97.5,341.5,101.0,337.5,105.0,333.5,108.0,329.5,111.0,325.5,113.5,321.0,115.5,317.0,117.5,313.0,119.5,309.5" stroke="#9fb4b5" stroke-width="2" fill="none" />
<polyline points="133.5,301.0,133.0,297.0" stroke="#a0bfaf" stroke-width="2" fill="none" />
<polyline points="141.5,285.5,137.5,287.0,133.5,287.5,129.5,293.5,125.0,297.0,120.0,300.0,116.0,303.5,112.0,307.0,108.0,310.0,105.5,313.5,108.0,309.5,112.5,305.0,117.0,301.0,120.0,297.0,121.5,293.0,123.5,289.0,123.0,285.5" stroke="#4eeb1d" stroke-width="2" fill="none" />
<polyline points="120.5,285.0,120.0,289.0,119.5,293.0,118.0,297.0,113.0,301.0,109.5,304.5,106.0,308.5,104.0,312.5,102.5,316.5,100.5,320.5,101.0,325.0,102.0,329.0,102.5,330.5,98.5,334.5,95.0,340.5,98.5,338.0,102.5,335.5,106.5,331.0,110.0,325.5,114.0,317.5,117.5,308.5,120.5,301.5,123.0,303.0,124.0,309.5,131.5,313.5" stroke="#43147d" stroke-width="2" fill="none" />
<polyline points="129.0,280.5,133.5,280.5,137.0,278.5,141.0,277.0" stroke="#35733f" stroke-width="2" fill="none" />
<polyline points="150.0,276.5,152.0,278.5,154.5,280.5,156.5,284.5,163.0,289.5,167.5,284.5,171.5,283.5,173.0,284.0,177.0,284.0,177.0,285.5" stroke="#9bcd6b" stroke-width="2" fill="none" />
<polyline points="177.5,291.5,175.0,293.0,171.5,294.0" stroke="#b2bfaf" stroke-width="2" fill="none" />
<polyline points="173.5,293.0,179.5,293.5,177.5,297.5,175.0,301.0,174.0,305.0,172.0,308.5,168.0,307.5" stroke="#974ef5" stroke-width="2" fill="none" />
<polyline points="172.5,297.5,173.5,301.0,175.5,307.0,177.5,310.5,175.0,317.0" stroke="#452763" stroke-width="2" fill="none" />
<polyline points="164.0,292.5,158.0,288.0,154.0,284.0,152.0,279.5" stroke="#4b1112" stroke-width="2" fill="none" />
<polyline points="123.5,272.0,120.5,270.0,116.5,268.0" stroke="#79d364" stroke-width="2" fill="none" />
<polyline points="124.0,272.5,120.0,276.0,116.5,279.0,112.5,281.5,108.0,279.5,104.0,281.0,100.0,282.0,104.0,282.5,100.0,284.0,95.5,286.0,94.0,284.0,92.5,280.0,93.5,276.5,101.0,272.5,106.5,268.5,102.5,271.5,98.5,273.5,94.0,276.0,90.0,278.0" stroke="#10243c" stroke-width="2" fill="none" />
<polyline points="90.5,276.0,90.0,280.0,91.5,284.0" stroke="#3c84" stroke-width="2" fill="none" />
<polyline points="103.0,288.0,105.0,285.0" stroke="#a7255" stroke-width="2" fill="none" />
<polyline points="109.0,290.5,105.5,292.5,101.5,294.0,97.5,296.0,103.0,293.5" stroke="#1dbb92" stroke-width="2" fill="none" />
<polyline points="165.0,248.0,166.0,250.5,167.0,247.0,168.0,243.5,169.5,239.5" stroke="#bfc448" stroke-width="2" fill="none" />
<polyline points="166.5,231.5,163.5,235.5,160.0,239.5,161.0,239.0,165.0,233.5,167.0,229.5,171.0,229.0" stroke="#7d11a2" stroke-width="2" fill="none" />
<polyline points="168.0,227.0,164.0,228.5" stroke="#1b59b4" stroke-width="2" fill="none" />
<polyline points="169.0,222.0,168.5,226.0,171.5,226.0,172.0,226.5,176.0,225.5,180.0,225.0" stroke="#d7a632" stroke-width="2" fill="none" />
<polyline points="187.0,225.5,191.0,218.5,190.0,221.0,187.5,225.0,186.5,229.0,186.5,233.0,188.5,237.0" stroke="#b6dec8" stroke-width="2" fill="none" />
<polyline points="191.5,238.5,189.0,234.5,188.5,230.0,188.5,226.0,190.0,222.5,192.5,218.5,191.5,218.5,187.5,228.0" stroke="#6dccd4" stroke-width="2" fill="none" />
<polyline points="187.0,233.0,191.0,239.5" stroke="#59c19f" stroke-width="2" fill="none" />
<polyline points="198.5,235.5,196.5,239.5,191.5,243.5,186.5,246.5,190.0,244.5,194.0,241.0,198.0,234.5" stroke="#fbe73d" stroke-width="2" fill="none" />
<polyline points="182.0,220.5,181.5,224.5,182.5,220.5,181.5,216.5,181.5,215.5" stroke="#b7bfd1" stroke-width="2" fill="none" />
<polyline points="183.5,216.5,183.0,212.5" stroke="#8dee80" stroke-width="2" fill="none" />
<polyline points="182.5,209.5,186.5,211.5,190.5,213.0,189.5,217.0,186.5,218.5,184.0,220.0,186.5,218.5,190.0,211.5,191.5,208.5,195.5,204.5,199.5,206.0" stroke="#25c535" stroke-width="2" fill="none" />
<polyline points="200.0,203.5,196.0,204.0" stroke="#4bd7a6" stroke-width="2" fill="none" />
<polyline points="193.0,200.0,197.0,201.0,201.0,203.0" stroke="#faa88c" stroke-width="2" fill="none" />
<polyline points="204.5,208.0,208.5,204.0,212.0,201.5,214.0,197.5,218.0,194.5,222.5,192.0,226.5,190.5" stroke="#57b" stroke-width="2" fill="none" />
<polyline points="227.5,193.5,220.5,197.0,214.0,203.0,209.5,206.5,208.0,210.5,208.0,210.5,211.0,204.5,215.0,202.5,218.5,198.0,222.0,195.5,226.0,192.5,230.0,192.0" stroke="#6055e1" stroke-width="2" fill="none" />
<polyline points="237.5,195.5,242.0,191.0" stroke="#2619d0" stroke-width="2" fill="none" />
<polyline points="234.5,182.0,230.0,186.5,230.0,188.5,223.0,193.0,216.5,197.0,210.0,203.5,205.0,207.5,201.5,213.0,202.0,217.0,203.5,216.5,204.0,222.0,206.5,226.5" stroke="#15d154" stroke-width="2" fill="none" />
<polyline points="219.0,216.5,218.5,220.5,219.5,224.5,217.5,226.5,221.0,230.5,225.0,230.0,231.0,234.0" stroke="#c6a948" stroke-width="2" fill="none" />
<polyline points="229.0,270.0,225.0,271.0,221.5,274.5,225.5,270.5" stroke="#af617" stroke-width="2" fill="none" />
<polyline points="219.5,306.0,218.0,310.0,217.5,314.0,217.5,318.5,217.5,322.5,218.0,326.5,217.5,330.5,218.0,334.5,218.0,338.0,218.5,341.5,219.0,345.5,219.0,349.5,219.0,354.0,219.0,358.0" stroke="#964391" stroke-width="2" fill="none" />
<polyline points="222.0,368.5,221.5,364.5,221.0,360.5,220.5,357.0,220.5,353.0,220.5,349.0,224.5,344.5,223.5,340.0,223.0,334.5,222.5,331.0,221.5,327.5,221.0,323.5,220.0,319.5,220.0,315.5,219.5,311.0,219.5,307.0" stroke="#da23f" stroke-width="2" fill="none" />
<polyline points="176.0,212.5,172.0,214.5,170.0,216.5,174.5,212.0" stroke="#6263da" stroke-width="2" fill="none" />
<polyline points="185.0,206.0,189.0,205.5,192.5,204.5,200.0,203.5" stroke="#8f4329" stroke-width="2" fill="none" />
<polyline points="203.5,201.5,199.5,200.0,196.0,198.5,192.0,197.0,190.0,197.5,186.0,200.0,181.5,205.0,180.5,206.5,182.5,202.5,187.0,198.5,189.0,197.5" stroke="#954134" stroke-width="2" fill="none" />
<polyline points="204.5,189.5,208.5,185.0,212.5,180.5,216.5,176.5,220.5,173.5,224.5,173.0,228.5,173.0,232.5,173.5,236.5,174.0,240.5,171.5,238.5,175.5,236.0,177.0" stroke="#8cc6b8" stroke-width="2" fill="none" />
<polyline points="230.0,176.0,225.5,176.0,221.5,176.5,217.5,180.0,214.0,183.5,210.0,187.5,206.0,192.0" stroke="#7cd2dc" stroke-width="2" fill="none" />
<polyline points="218.0,186.5,222.5,182.0" stroke="#7d6f67" stroke-width="2" fill="none" />
<polyline points="226.0,180.5,222.0,184.5,218.5,188.5,215.5,192.0,211.0,195.5,208.0,199.5" stroke="#156c62" stroke-width="2" fill="none" />
<polyline points="219.5,188.5,223.0,184.0,226.0,184.5" stroke="#bc35b6" stroke-width="2" fill="none" />
<polyline points="227.0,183.5,222.5,184.0,219.5,188.5,219.0,192.5,211.0,197.0,215.0,195.0" stroke="#a884bc" stroke-width="2" fill="none" />
<polyline points="205.0,197.0,204.5,193.5,205.5,189.5,209.5,185.5,213.0,181.5,216.0,177.5,221.0,173.5" stroke="#3c17a5" stroke-width="2" fill="none" />
<polyline points="224.5,174.0,218.5,178.0,215.5,181.5,211.5,186.0,208.0,190.5,207.5,194.5,208.0,196.5,211.5,195.0,215.5,192.5,219.5,193.0,223.5,190.0,227.5,189.0,232.0,187.5,233.0,183.0,237.0,181.5" stroke="#93eb8f" stroke-width="2" fill="none" />
<polyline points="251.0,161.0,255.0,164.0,259.0,164.5,263.5,162.5,267.5,161.0,260.0,165.0" stroke="#a6bafa" stroke-width="2" fill="none" />
<polyline points="257.5,165.0,253.0,160.5" stroke="#efa5db" stroke-width="2" fill="none" />
<polyline points="258.5,134.0,254.0,137.0,250.0,140.0,246.0,143.5,242.0,146.5,238.0,148.5,234.0,152.0,230.0,154.5,226.5,157.0,222.0,161.0,220.0,162.5,224.0,158.5,229.5,154.5,235.0,150.5,240.5,147.0,245.5,143.0,251.0,139.0,256.5,135.0,261.0,131.5" stroke="#346f60" stroke-width="2" fill="none" />
<polyline points="282.0,143.5,286.0,142.5" stroke="#1e482b" stroke-width="2" fill="none" />
<polyline points="297.5,134.5,293.0,138.5,288.5,142.5,291.0,140.5,295.5,137.5,299.5,134.5" stroke="#6c5014" stroke-width="2" fill="none" />
<polyline points="265.5,86.5,261.0,88.0,257.0,90.0,252.5,92.5,248.0,94.5,244.0,97.0,240.0,100.5,236.0,103.5,232.0,106.5,227.5,108.5,223.5,111.0,220.0,114.0,216.0,116.5,212.0,120.0,208.0,122.5,203.5,126.0,200.0,129.5,196.0,133.0,192.0,136.5,188.5,140.5,184.5,144.0,180.0,148.5,175.5,152.5,171.5,156.5,167.5,160.0,163.5,164.0,159.5,167.0,155.0,171.0,153.0,173.5,156.5,169.0,160.5,165.0,165.0,161.5,169.5,157.5,173.5,153.5,177.0,149.5,181.0,145.0,185.0,141.0,189.5,137.5,194.0,133.5,198.5,129.5,203.0,125.0,207.5,121.0,213.5,117.0,219.5,113.0,225.0,109.5,232.0,105.5,237.5,102.0,243.0,98.0,248.5,94.0,255.5,90.0,265.0,86.0" stroke="#7bded6" stroke-width="2" fill="none" />
<polyline points="249.5,91.0,243.0,94.5,247.5,91.5" stroke="#65ade9" stroke-width="2" fill="none" />
<polyline points="237.5,97.0,232.5,101.0,236.0,98.5" stroke="#477b96" stroke-width="2" fill="none" />
<polyline points="237.0,99.5,231.0,103.5,225.5,105.0,221.5,108.5,225.0,104.5,229.0,104.0,233.0,101.5,237.5,98.0" stroke="#2b285f" stroke-width="2" fill="none" />
<polyline points="234.0,80.0,230.5,82.5,226.5,85.5,224.5,87.5,229.5,83.5,236.5,79.5" stroke="#84fc4f" stroke-width="2" fill="none" />
<polyline points="251.5,52.0,261.5,56.0,268.0,59.5,274.0,63.5,280.0,67.5,285.5,71.5,290.0,75.5,298.0,80.0,300.5,84.0,304.0,88.0,307.5,92.0,310.0,96.5,315.0,100.0,320.0,104.0,323.5,108.0,325.5,112.0,328.5,116.0,330.0,119.5,332.5,123.5,335.0,127.5,337.5,132.0,342.0,135.5,344.0,139.5,345.0,143.0,347.5,147.0" stroke="#a99540" stroke-width="2" fill="none" />
<polyline points="368.0,132.5,369.5,131.0,369.5,127.0" stroke="#a4fc5d" stroke-width="2" fill="none" />
<polyline points="394.5,121.0,389.5,125.0,384.0,129.0,379.5,133.5,383.5,130.5,387.5,127.5,392.0,124.5,396.0,121.5" stroke="#296674" stroke-width="2" fill="none" />
<polyline points="396.0,122.0,391.0,126.0,386.0,130.5,381.0,134.5,383.5,133.0,388.5,130.0,392.5,127.0,397.0,123.5" stroke="#52625a" stroke-width="2" fill="none" />
<polyline points="415.0,114.5,419.0,118.5,420.5,122.5,421.5,126.5,422.0,130.5,422.0,134.5,421.5,138.5,420.0,142.0,419.5,145.5,418.5,149.5,417.0,153.5,415.5,157.5,414.0,161.5,413.0,165.5,411.0,169.5,409.5,173.5,407.5,177.0,405.0,181.0,402.0,185.0,397.0,188.5,393.5,192.5,389.5,196.5,385.5,200.5,380.0,204.5,374.0,209.0,368.0,213.0,371.0,211.0,375.0,208.0,379.5,204.5,383.5,201.5,387.5,198.0,391.5,194.0,395.5,190.5,399.0,186.5,402.5,184.5,406.5,179.0,410.5,170.0,415.0,159.0" stroke="#4614b5" stroke-width="2" fill="none" />
<polyline points="404.5,157.0,400.5,161.5,396.5,165.5,392.5,169.5,388.0,173.0,388.5,172.0,392.5,169.0,396.0,166.0,399.5,162.0,403.5,158.5" stroke="#a2ce3a" stroke-width="2" fill="none" />
<polyline points="396.5,152.5,393.0,156.5,391.0,160.5,388.5,164.5,386.5,168.5,384.0,172.5,382.0,176.5,384.0,173.5,388.0,166.5,392.0,159.5,396.0,153.0" stroke="#1a8bb" stroke-width="2" fill="none" />
<polyline points="207.0,162.5,203.0,162.5" stroke="#2754a0" stroke-width="2" fill="none" />
<polyline points="202.5,163.5,203.5,167.5,196.5,169.5,191.0,173.0,186.5,177.5,182.0,181.0,178.0,185.0,174.5,189.0,171.5,193.5,167.5,198.0,164.5,201.5,163.5,202.0,167.5,197.0,171.5,193.5,175.5,188.5,179.5,185.5,183.5,181.5,188.0,178.0,192.0,175.0,196.5,171.5,200.5,168.5" stroke="#599050" stroke-width="2" fill="none" />
<polyline points="203.0,136.0,198.5,132.0" stroke="#d4f3" stroke-width="2" fill="none" />
<polyline points="198.0,132.5,202.0,136.5,203.0,140.5,202.0,142.0,206.0,138.5,210.0,135.5,214.0,133.0,218.0,129.5,222.0,126.5" stroke="#5d33af" stroke-width="2" fill="none" />
<polyline points="206.0,115.0,199.0,119.0,196.0,121.0,200.5,118.5,204.5,116.0" stroke="#fa8c8f" stroke-width="2" fill="none" />
<polyline points="196.0,109.5,193.5,111.5" stroke="#6529d" stroke-width="2" fill="none" />
<polyline points="189.5,117.0,183.5,121.0,178.5,125.5,179.5,125.0,183.5,122.0,187.5,119.0" stroke="#3fe3f2" stroke-width="2" fill="none" />
<polyline points="190.5,120.0,185.0,124.0,179.5,127.5,181.0,126.5,185.0,123.5,189.0,122.0" stroke="#9b7b5f" stroke-width="2" fill="none" />
<polyline points="192.0,131.5,187.0,135.5,186.0,137.0,190.0,134.0" stroke="#2713d" stroke-width="2" fill="none" />
<polyline points="156.5,128.0,151.5,132.0,147.0,136.0,150.5,132.5,154.5,129.5" stroke="#1aa10" stroke-width="2" fill="none" />
<polyline points="132.5,131.5,131.5,137.0,128.0,142.0" stroke="#17d48" stroke-width="2" fill="none" />
<polyline points="142.0,164.5,138.5,168.5,138.5,171.0,134.5,175.0,131.5,179.0,133.0,172.5" stroke="#a036e0" stroke-width="2" fill="none" />
<polyline points="147.0,170.0,148.0,174.0,144.0,178.0,141.5,182.5,137.0,186.5,136.0,190.5,137.0,194.0,137.5,194.0,139.5,193.5,140.5,195.0,144.5,200.0,148.5,200.0" stroke="#af7784" stroke-width="2" fill="none" />
<polyline points="156.0,77.0,153.0,83.5,155.0,79.5,156.5,75.5" stroke="#e278e2" stroke-width="2" fill="none" />
<polyline points="160.0,70.0,156.5,73.0,152.5,78.0,152.5,78.5,155.0,74.0,158.5,69.5,160.5,65.5" stroke="#d0f470" stroke-width="2" fill="none" />
<polyline points="162.5,65.5,160.5,69.5,161.0,65.0,165.5,61.0,169.5,61.0,173.5,59.5" stroke="#9b42c6" stroke-width="2" fill="none" />
<polyline points="208.0,50.5,211.5,48.5" stroke="#6dd3dc" stroke-width="2" fill="none" />
<polyline points="228.5,46.0,223.5,50.0,227.0,47.0,231.0,47.5,234.5,47.5,238.5,48.5,242.5,49.5,247.0,50.5,251.0,52.0,255.0,53.5,259.0,54.5,263.0,56.5,267.0,58.5,271.5,61.0,275.5,63.5,279.5,66.5,283.5,69.0,287.5,72.0,292.0,75.5,296.5,77.0,300.5,80.0,304.5,86.0,308.0,91.0,312.0,97.0,315.5,100.0,319.5,104.0,323.5,108.5,327.5,114.5,331.5,123.0,335.0,130.0,338.5,133.5,342.5,139.5,347.0,147.5,351.5,145.0,355.5,143.0,359.5,139.5,363.5,138.0,366.5,135.5,370.5,132.5,374.5,130.5,378.5,127.5,382.5,124.0,386.5,121.0,391.0,117.5,395.0,114.5,399.5,113.0,403.5,113.0,408.0,114.0,412.0,114.0,416.0,116.0,420.0,123.5" stroke="#e7cb38" stroke-width="2" fill="none" />
<polyline points="234.0,48.0,231.0,50.5" stroke="#a9c7de" stroke-width="2" fill="none" />
</svg>