<svg xmlns="http://www.w3.org/2000/svg" version="1.1"><polyline points="403.5,1.5,403.5,5.5,406.0,9.5,408.5,13.5,411.0,18.0,413.5,22.0,415.5,26.5,418.0,30.0,421.0,34.0,423.0,38.5,425.5,42.5,428.0,46.0,429.5,50.0,432.0,54.0,434.5,58.5,437.0,62.5,439.5,66.5,442.0,70.5" stroke="#4f85b2" stroke-width="2" fill="none" />
<polyline points="456.0,58.5,451.5,51.0,447.0,45.0,443.0,37.5,440.0,33.0,436.0,26.0,432.5,19.5,428.5,12.5,424.0,7.5" stroke="#3254b8" stroke-width="2" fill="none" />
<polyline points="425.0,1.5,425.0,6.0,426.5,9.5,428.5,13.5,431.5,17.0,433.5,21.0,435.5,25.0,438.5,29.0,440.5,33.0,443.5,37.5,445.5,41.5,447.5,45.5,450.0,49.5,452.5,53.5,455.5,57.5,457.5,61.5,455.0,66.0,452.0,69.5,447.5,73.5,444.0,77.5,441.5,81.5,439.5,85.5,435.5,89.5,433.0,94.0,430.0,98.0,427.0,102.0,424.0,106.0,422.0,110.0,419.5,114.0,419.5,114.0,423.5,107.5,428.0,101.5,431.5,95.0,435.0,89.5,439.0,84.0,443.0,78.0,447.0,73.5,451.0,69.0,455.0,64.0,459.5,55.5,463.5,51.0,468.0,48.0,472.0,43.0,476.5,38.5,480.5,34.5,485.0,30.0,489.0,26.0,493.5,22.0,498.5,17.5,502.5,14.0,506.5,11.0,510.5,7.0" stroke="#d27fb0" stroke-width="2" fill="none" />
<polyline points="513.5,7.5,507.5,12.0,503.5,15.5,498.0,19.5,495.0,22.5,490.5,25.5,486.5,29.5,483.5,33.5,478.5,37.5,475.5,41.5,471.5,45.0,467.5,49.0,463.0,53.0,459.5,57.0" stroke="#6393b" stroke-width="2" fill="none" />
<polyline points="441.0,69.0,437.5,62.0,434.0,55.0,430.0,49.0,426.0,42.0,422.0,33.5,418.5,28.0,414.5,20.0,410.0,13.0,406.0,6.5" stroke="#c960e1" stroke-width="2" fill="none" />
<polyline points="378.5,97.0,382.0,100.5,384.0,105.0,388.0,109.0" stroke="#3f8555" stroke-width="2" fill="none" />
<polyline points="387.0,107.0,383.0,101.5,379.0,97.5" stroke="#5e2668" stroke-width="2" fill="none" />
<polyline points="398.5,113.0,392.0,117.5,387.5,121.5,382.0,125.5,377.5,130.0,371.0,134.0,365.0,138.0,358.0,142.0,351.5,146.5" stroke="#1e59c0" stroke-width="2" fill="none" />
<polyline points="337.5,152.5,330.5,156.5,324.5,160.5,317.0,164.0,311.0,168.0,305.0,172.5,299.5,176.0,294.0,180.0" stroke="#fc2236" stroke-width="2" fill="none" />
<polyline points="290.0,178.0,286.0,176.5" stroke="#bf8812" stroke-width="2" fill="none" />
<polyline points="282.0,174.5,286.0,174.0,289.5,173.5,293.5,177.5" stroke="#14ad3" stroke-width="2" fill="none" />
<polyline points="287.0,179.5,283.5,177.5,279.5,175.5" stroke="#eef086" stroke-width="2" fill="none" />
<polyline points="276.0,175.5,276.5,179.0" stroke="#3760c7" stroke-width="2" fill="none" />
<polyline points="278.0,180.0,274.0,179.5,270.0,179.0,266.0,178.0,262.5,176.5,258.5,175.5,254.5,175.0,251.0,171.0,247.0,170.5,243.0,168.0" stroke="#da638f" stroke-width="2" fill="none" />
<polyline points="244.5,172.5,241.0,176.0,240.5,180.0,238.5,183.5,233.5,186.0,237.5,183.0,243.0,180.5,247.0,180.0,251.5,177.0" stroke="#60c6ba" stroke-width="2" fill="none" />
<polyline points="252.0,177.0,248.0,181.0,243.0,183.5,245.5,186.0,242.0,190.5,238.5,195.0,236.5,199.0,234.0,203.0,232.5,207.0,229.0,210.5,230.0,210.5,230.0,209.0,234.0,208.5" stroke="#a77873" stroke-width="2" fill="none" />
<polyline points="237.0,208.0,237.0,204.0,238.5,199.5,235.0,200.5" stroke="#fd244d" stroke-width="2" fill="none" />
<polyline points="238.0,201.5,237.5,205.5" stroke="#7f9eb" stroke-width="2" fill="none" />
<polyline points="242.0,211.0,246.0,211.5,250.0,211.5" stroke="#6b894f" stroke-width="2" fill="none" />
<polyline points="252.5,204.0,256.5,202.5,260.5,198.0,265.0,193.5,270.0,188.5,270.5,192.5,269.5,196.5,269.0,200.0,267.5,204.0,264.0,208.5,263.5,212.5,262.5,216.5,264.5,218.0,262.0,219.5,259.0,223.0,255.5,227.0,250.5,231.5,246.5,235.5,243.5,239.5,240.0,243.5,237.0,247.5,234.0,251.5,231.5,255.5,228.0,259.5,226.0,263.5,223.5,267.5,221.0,271.5,219.5,275.0,216.5,279.0,215.0,283.0,217.0,279.0,221.0,271.5,225.0,265.0,228.5,258.5,232.5,253.5,236.5,248.0,240.5,242.5,245.0,237.5,249.0,232.5,253.0,228.0,258.5,222.5,262.5,224.0,262.5,225.0,262.5,229.5,262.0,234.0,262.0,238.0" stroke="#df9029" stroke-width="2" fill="none" />
<polyline points="264.5,239.0,264.0,235.0" stroke="#18ed15" stroke-width="2" fill="none" />
<polyline points="267.0,226.5,262.5,222.0" stroke="#c1cf99" stroke-width="2" fill="none" />
<polyline points="268.5,214.0,268.5,212.0,272.5,207.5,276.5,204.0,281.0,200.5,285.0,196.0,289.0,193.0,293.0,189.5,297.0,186.5,301.5,183.0,305.5,180.5,309.5,178.5" stroke="#5bc68e" stroke-width="2" fill="none" />
<polyline points="313.5,175.5,310.0,179.0,302.5,183.0,297.5,187.0,292.0,191.0,287.0,194.5,282.5,198.5,277.5,203.0,273.0,207.0,272.0,211.0,271.5,215.0,268.0,217.0" stroke="#cfe9c8" stroke-width="2" fill="none" />
<polyline points="263.0,210.5,267.0,206.0" stroke="#886c11" stroke-width="2" fill="none" />
<polyline points="263.0,200.0,259.0,208.0,256.5,215.0,252.5,219.0,248.5,223.0,244.5,227.5,240.5,232.0,236.5,236.5,232.5,236.0,232.0,235.5,231.5,231.5,231.0,227.5,230.5,223.0,229.0,219.0,227.5,214.5,225.5,214.0,224.5,209.5,224.5,205.5,225.0,201.5" stroke="#d0aad6" stroke-width="2" fill="none" />
<polyline points="221.0,205.5,224.5,201.0,227.0,197.5,223.5,201.5,221.5,206.0,220.5,210.0,223.5,213.5,224.0,216.0,226.0,220.0,229.0,224.0,229.5,228.0,230.5,232.0,231.5,236.5,234.0,240.5,231.5,245.0,228.5,249.5,225.5,253.0,222.5,257.0,220.5,261.0,218.0,265.0,215.5,269.0,213.5,273.0,211.0,277.0,208.5,281.0,206.0,285.0,203.5,289.0,202.0,292.5,200.0,296.5,197.5,300.5,196.0,304.0,194.0,308.0,192.5,312.0,190.0,316.0,192.5,319.5,196.5,321.0,200.5,319.5,205.5,313.5,208.5,308.5,212.0,302.5,215.5,297.0,219.5,291.5,223.5,286.5,228.0,282.0,233.0,278.0,237.0,274.0,241.5,269.5,246.0,265.5,250.5,261.0,255.0,257.5,259.0,254.5,263.0,251.0,266.5,248.5,270.5,246.0,275.5,246.0,279.5,248.5,283.5,249.5,287.5,250.5,291.5,250.5,295.5,253.0,299.5,256.0" stroke="#5f373" stroke-width="2" fill="none" />
<polyline points="288.5,256.5,286.0,257.0,283.0,259.0,285.0,260.5" stroke="#205599" stroke-width="2" fill="none" />
<polyline points="287.5,262.5,288.5,268.5,290.5,272.5" stroke="#e7addc" stroke-width="2" fill="none" />
<polyline points="291.5,273.0,287.5,267.0" stroke="#3348c8" stroke-width="2" fill="none" />
<polyline points="286.0,266.0,287.0,270.0" stroke="#eaf0ce" stroke-width="2" fill="none" />
<polyline points="285.0,275.5,281.0,275.0" stroke="#f54a4c" stroke-width="2" fill="none" />
<polyline points="289.0,272.5,285.0,270.5,281.0,266.0,277.5,264.0,273.5,265.5" stroke="#1bbadb" stroke-width="2" fill="none" />
<polyline points="272.5,266.5,267.5,270.0,263.5,267.5" stroke="#a0c4b8" stroke-width="2" fill="none" />
<polyline points="264.5,266.5,263.0,267.5,264.0,269.5,268.0,271.0" stroke="#b7d175" stroke-width="2" fill="none" />
<polyline points="270.5,270.5,269.0,266.5,268.5,267.0" stroke="#9427a2" stroke-width="2" fill="none" />
<polyline points="261.5,269.0,265.5,273.5,269.0,274.5,273.0,271.0,274.0,269.5,271.0,273.5,271.0,278.0,274.0,282.0,275.5,282.5" stroke="#493e84" stroke-width="2" fill="none" />
<polyline points="264.0,282.0,265.0,278.0,259.0,275.5,259.0,272.5,257.5,268.5,258.0,268.5" stroke="#b76862" stroke-width="2" fill="none" />
<polyline points="258.5,265.5,260.0,269.5,265.5,274.0,266.0,281.0" stroke="#c1c157" stroke-width="2" fill="none" />
<polyline points="260.0,272.5,256.0,275.0,252.0,271.5,247.5,269.0" stroke="#be26" stroke-width="2" fill="none" />
<polyline points="247.5,267.5,250.5,266.0,249.0,270.0,253.0,274.0,256.0,278.0,263.0,276.5,267.5,277.0,270.5,275.5,274.5,278.0,279.0,278.0,283.5,271.0,279.5,274.5,278.0,280.5" stroke="#d42683" stroke-width="2" fill="none" />
<polyline points="288.5,276.5,285.5,280.0,286.5,279.0,285.0,276.0,283.5,272.0,281.5,268.0,276.5,264.0" stroke="#18607c" stroke-width="2" fill="none" />
<polyline points="277.5,257.0,275.0,252.5,271.0,250.5,266.5,250.0,262.5,252.5" stroke="#fe73fa" stroke-width="2" fill="none" />
<polyline points="268.0,258.0,271.0,254.0" stroke="#d6fb1d" stroke-width="2" fill="none" />
<polyline points="279.5,251.5,283.0,252.5,282.5,258.5,287.5,262.5,290.5,267.0,292.5,271.0" stroke="#defd52" stroke-width="2" fill="none" />
<polyline points="282.0,256.5,277.0,258.0,273.0,255.0,270.0,257.0,266.5,258.5,262.0,258.0,259.5,260.5,255.5,261.0" stroke="#de4123" stroke-width="2" fill="none" />
<polyline points="272.5,245.0,267.0,245.5,261.0,249.5,256.0,253.5,251.5,257.5,246.5,261.5,243.0,266.0,239.0,270.5,235.5,275.0,231.5,279.0,227.5,283.0,224.0,286.5,221.0,290.0,218.0,294.0,215.5,298.0,213.0,302.0,211.0,305.5,208.5,309.5,206.0,314.0,205.0,318.0,203.0,322.0,199.0,326.0,195.5,329.5,193.0,333.5,190.0,337.0,187.0,341.0,183.5,345.0,180.5,349.0,178.0,353.0,175.0,357.0,172.0,360.5,168.5,365.0,165.0,369.0,162.0,373.5,160.5,377.5,159.0,384.0,162.5,390.0,166.0,393.0,170.0,398.0,174.5,403.5,178.5,411.5" stroke="#b53c79" stroke-width="2" fill="none" />
<polyline points="172.0,406.5,167.5,402.5,163.0,402.0,157.0,395.0,152.5,391.0" stroke="#bbbbfb" stroke-width="2" fill="none" />
<polyline points="151.0,394.0,155.5,395.5" stroke="#849890" stroke-width="2" fill="none" />
<polyline points="151.0,397.5,153.0,396.0,157.0,400.5" stroke="#5ba224" stroke-width="2" fill="none" />
<polyline points="164.5,400.5,163.0,397.0,162.5,401.0,165.5,405.5,168.0,409.5,171.0,414.0,174.5,415.0,174.0,418.5,176.5,422.5,178.0,426.0" stroke="#a63f6" stroke-width="2" fill="none" />
<polyline points="175.5,436.0,171.5,436.5,167.0,430.5" stroke="#f460cc" stroke-width="2" fill="none" />
<polyline points="167.5,431.5,167.0,431.5,167.0,435.5,166.5,440.5,166.5,444.0,168.5,448.0,170.0,450.5,172.5,454.5,174.0,458.5,179.5,455.5,178.0,460.0,176.5,464.0" stroke="#fb27c3" stroke-width="2" fill="none" />
<polyline points="173.0,461.5,169.0,455.0" stroke="#754890" stroke-width="2" fill="none" />
<polyline points="169.0,455.0,172.0,459.0,171.5,464.0,170.0,468.0,166.5,469.0" stroke="#a3765c" stroke-width="2" fill="none" />
<polyline points="165.0,470.0,168.5,474.0,170.0,477.5,167.0,481.5,165.5,486.0,167.5,490.0,168.0,492.5" stroke="#6347b5" stroke-width="2" fill="none" />
<polyline points="165.0,498.5,161.0,496.5" stroke="#6822d" stroke-width="2" fill="none" />
<polyline points="159.5,500.5,162.0,504.5,163.5,508.5" stroke="#c7bc36" stroke-width="2" fill="none" />
<polyline points="168.5,508.5,165.5,504.0,164.5,503.0" stroke="#4b181" stroke-width="2" fill="none" />
<polyline points="155.0,510.0,151.0,505.0" stroke="#cb26ef" stroke-width="2" fill="none" />
<polyline points="153.5,497.5,149.5,492.0" stroke="#2a1ece" stroke-width="2" fill="none" />
<polyline points="148.5,495.0,152.5,501.5" stroke="#c532f3" stroke-width="2" fill="none" />
<polyline points="152.0,493.5,151.5,488.0,147.5,484.5" stroke="#8c49b" stroke-width="2" fill="none" />
<polyline points="150.0,482.0,149.5,485.5,152.0,489.5,155.0,489.5,155.5,493.5,156.0,497.5,158.0,501.5,158.5,505.5,159.5,506.5,166.0,510.5" stroke="#4f9a5f" stroke-width="2" fill="none" />
<polyline points="151.0,510.5,147.0,501.0,143.0,495.5" stroke="#3b482a" stroke-width="2" fill="none" />
<polyline points="143.5,496.0,146.5,500.0,148.5,504.0,150.0,507.5,151.5,511.0" stroke="#d3612f" stroke-width="2" fill="none" />
<polyline points="155.5,506.5,151.5,503.5,147.5,496.5,146.0,491.5,142.0,483.0" stroke="#d4df36" stroke-width="2" fill="none" />
<polyline points="140.5,483.0,144.5,490.5,149.0,495.0,152.0,499.5,154.5,503.5,153.5,506.0" stroke="#2b8a3" stroke-width="2" fill="none" />
<polyline points="172.5,509.5,168.5,506.0,164.5,503.5,160.5,503.0,156.0,500.0,152.0,498.5,150.5,494.0,146.5,492.0,144.5,487.5,142.5,483.5,139.0,477.0" stroke="#cc77f" stroke-width="2" fill="none" />
<polyline points="136.0,481.0,134.0,485.5,134.5,490.0,136.5,494.5,134.0,496.5,136.0,501.0,137.5,505.0,139.0,509.0,139.5,512.5" stroke="#131e0" stroke-width="2" fill="none" />
<polyline points="142.0,513.5,143.5,510.0,141.0,506.0,140.5,502.0,139.5,498.0,135.0,493.0,134.5,487.5" stroke="#2444a6" stroke-width="2" fill="none" />
<polyline points="133.5,484.5,138.0,488.0,138.0,495.0" stroke="#e82935" stroke-width="2" fill="none" />
<polyline points="127.0,499.5,131.5,507.5" stroke="#7dafe4" stroke-width="2" fill="none" />
<polyline points="132.0,510.0,128.0,504.5,124.5,496.5" stroke="#c32fae" stroke-width="2" fill="none" />
<polyline points="125.0,497.5,127.0,501.5,126.5,505.5,127.0,509.5" stroke="#5ddbc" stroke-width="2" fill="none" />
<polyline points="124.0,510.0,124.5,506.0,124.5,502.0,124.5,497.5,124.0,492.0,123.5,490.0" stroke="#e7923f" stroke-width="2" fill="none" />
<polyline points="123.0,482.5,124.0,486.5,126.0,490.5,128.0,495.0,129.0,499.0,130.0,503.0,132.0,507.0,134.5,511.0" stroke="#e795f6" stroke-width="2" fill="none" />
<polyline points="133.0,512.0,130.0,508.0,128.0,504.5" stroke="#718c67" stroke-width="2" fill="none" />
<polyline points="108.5,508.5,109.0,504.5,110.5,500.5,111.0,496.0,112.5,492.0,112.5,488.0,113.0,486.0" stroke="#bf8e1d" stroke-width="2" fill="none" />
<polyline points="115.5,488.0,115.5,492.0,115.0,496.0,113.0,499.5,112.5,503.0,111.5,507.0,110.0,511.5" stroke="#c787ba" stroke-width="2" fill="none" />
<polyline points="105.0,505.5,101.0,501.0" stroke="#ace45b" stroke-width="2" fill="none" />
<polyline points="98.5,492.0,98.0,496.0,99.5,500.0,101.5,503.5,103.5,507.5,105.5,511.5" stroke="#c59d9f" stroke-width="2" fill="none" />
<polyline points="103.5,511.5,101.5,507.0,99.5,503.0,97.5,498.5,97.5,494.5,96.0,490.5" stroke="#e447b" stroke-width="2" fill="none" />
<polyline points="95.0,468.0,91.0,472.0,92.0,470.5,95.5,467.0" stroke="#b9813b" stroke-width="2" fill="none" />
<polyline points="95.0,455.0,88.5,458.5,87.0,459.5,90.5,457.0,94.5,455.0" stroke="#fa82ef" stroke-width="2" fill="none" />
<polyline points="95.0,452.0,90.5,456.0,84.5,459.5,86.5,458.0,90.5,456.0,94.0,452.0" stroke="#b9d2b" stroke-width="2" fill="none" />
<polyline points="110.0,446.5,110.0,442.5,109.0,440.5" stroke="#6b423a" stroke-width="2" fill="none" />
<polyline points="105.5,438.0,105.0,442.0,104.0,446.0" stroke="#89164b" stroke-width="2" fill="none" />
<polyline points="102.0,436.0,98.5,440.5,95.5,445.0,93.5,444.0,93.0,447.5,93.5,443.5,98.5,439.5,102.0,435.0,104.0,431.5,105.0,427.5,105.0,423.5,105.5,419.5,109.0,417.5,105.5,419.0" stroke="#eb732f" stroke-width="2" fill="none" />
<polyline points="108.0,416.5,109.0,420.5,108.5,424.5,108.5,428.5,108.5,432.5,107.0,436.0,106.0,440.0,106.5,446.5" stroke="#716dc" stroke-width="2" fill="none" />
<polyline points="103.0,438.0,99.5,441.5,103.5,438.5,105.5,434.5" stroke="#d07a55" stroke-width="2" fill="none" />
<polyline points="115.0,431.0,115.0,427.0" stroke="#eb7" stroke-width="2" fill="none" />
<polyline points="121.5,430.0,120.5,434.5,119.0,438.5,117.5,442.5,119.0,443.0,119.5,437.0" stroke="#91887f" stroke-width="2" fill="none" />
<polyline points="120.5,440.5,118.5,444.5" stroke="#b6a2" stroke-width="2" fill="none" />
<polyline points="120.5,452.0,123.5,456.5" stroke="#713416" stroke-width="2" fill="none" />
<polyline points="124.0,454.5,123.0,450.5,121.0,452.0" stroke="#f0c3ec" stroke-width="2" fill="none" />
<polyline points="132.0,465.0,136.0,456.5,140.0,452.0,144.0,454.5,148.0,463.5,152.0,470.0,156.0,473.0,162.0,470.0,166.0,471.0" stroke="#51e8a" stroke-width="2" fill="none" />
<polyline points="167.0,478.0,165.0,482.0,167.0,480.0,170.0,481.0" stroke="#96bc37" stroke-width="2" fill="none" />
<polyline points="169.5,490.0,167.5,485.5,160.5,483.0" stroke="#cee480" stroke-width="2" fill="none" />
<polyline points="154.5,467.5,148.0,461.0" stroke="#fcc85e" stroke-width="2" fill="none" />
<polyline points="148.5,460.5,152.0,466.5,155.0,466.0,156.5,472.0,159.0,475.0,158.0,474.5,163.5,475.5,166.0,471.0" stroke="#bb5d15" stroke-width="2" fill="none" />
<polyline points="171.0,463.0,167.0,461.5" stroke="#3832da" stroke-width="2" fill="none" />
<polyline points="177.0,460.5,173.0,457.5,169.5,450.5,165.5,443.5" stroke="#dbbd" stroke-width="2" fill="none" />
<polyline points="164.5,442.0,163.0,443.0,161.0,447.0,159.0,451.0,159.5,455.0,160.5,458.0,163.0,462.0" stroke="#9af6e7" stroke-width="2" fill="none" />
<polyline points="165.5,457.0,163.5,459.0,164.0,455.5,165.0,451.5,162.5,453.0,162.0,451.0" stroke="#735a62" stroke-width="2" fill="none" />
<polyline points="163.5,454.0,158.0,455.5,154.0,455.0,153.5,458.0,153.0,454.0,149.5,453.0,146.0,449.0" stroke="#3a5479" stroke-width="2" fill="none" />
<polyline points="146.0,448.0,146.5,452.0,150.0,456.5,151.0,461.0,152.0,465.0,151.5,467.5,155.5,470.0,158.0,473.5,157.0,477.5,161.0,479.5,165.0,477.0,169.5,477.0" stroke="#b71a6f" stroke-width="2" fill="none" />
<polyline points="160.5,462.0,156.5,459.5" stroke="#aaada4" stroke-width="2" fill="none" />
<polyline points="155.5,467.0,151.5,464.5,147.5,460.5" stroke="#cbcd75" stroke-width="2" fill="none" />
<polyline points="148.0,464.0,152.5,471.5,156.5,474.0" stroke="#c626ac" stroke-width="2" fill="none" />
<polyline points="153.5,475.0,150.0,474.0,146.0,467.5,143.0,465.0,139.0,463.0" stroke="#b61ef8" stroke-width="2" fill="none" />
<polyline points="138.0,463.5,139.5,467.5,142.5,471.0,147.0,475.5,151.5,480.0,153.0,485.0,151.0,483.0,155.0,484.5,156.5,489.5,160.5,495.5,163.0,494.0,165.5,500.5" stroke="#2cad17" stroke-width="2" fill="none" />
<polyline points="192.5,492.0,197.0,491.5,201.5,490.5,205.5,489.0,210.0,487.0,214.0,484.5,218.5,481.5,222.5,477.0,226.5,471.0,230.5,465.0" stroke="#662daf" stroke-width="2" fill="none" />
<polyline points="235.0,465.5,239.0,458.0" stroke="#23b08" stroke-width="2" fill="none" />
<polyline points="209.5,486.0,215.0,482.0,219.5,478.0,223.0,474.0,226.0,470.0,228.0,465.5,230.0,461.0,232.0,457.0,233.5,453.5,234.0,449.5,235.5,446.0,236.5,442.0,237.0,438.0,237.5,434.0,236.5,430.0,236.5,426.0,236.5,422.0,235.5,418.0,234.5,414.0,233.0,410.0,231.5,406.0,231.0,403.5" stroke="#734a8e" stroke-width="2" fill="none" />
<polyline points="222.5,410.5,222.5,414.5,223.0,415.5" stroke="#10ca58" stroke-width="2" fill="none" />
<polyline points="229.0,415.5,228.0,419.5" stroke="#f14094" stroke-width="2" fill="none" />
<polyline points="243.5,410.0,243.0,414.0,244.0,418.5,243.5,423.0,242.5,427.0,241.5,431.0,241.5,435.0,240.0,439.0,239.5,442.5,239.0,446.5,237.5,450.0,237.5,454.5,236.5,458.0,235.0,462.0,233.5,466.0,233.0,469.5,230.5,473.5,228.0,477.5,224.0,482.0,219.5,486.0,211.5,490.0" stroke="#e28867" stroke-width="2" fill="none" />
<polyline points="199.5,495.5,195.0,498.5,199.0,495.5,203.0,494.5,207.0,493.0,211.0,491.5,215.0,489.5,218.5,487.0,222.5,483.0,226.5,478.5,230.5,471.5" stroke="#d59b42" stroke-width="2" fill="none" />
<polyline points="198.5,448.0,199.0,444.0,201.5,444.0,197.5,446.5" stroke="#c22d4" stroke-width="2" fill="none" />
<polyline points="179.0,445.5,174.5,444.5" stroke="#d1d2fc" stroke-width="2" fill="none" />
<polyline points="175.0,446.0,175.0,450.0,176.0,454.0,175.5,458.0" stroke="#4bb895" stroke-width="2" fill="none" />
<polyline points="171.5,461.0,167.0,455.0,163.0,453.0,162.5,448.5,158.5,451.0,155.0,448.5,155.0,449.5,155.5,445.5,153.0,441.0,153.5,437.0,149.0,437.0,147.5,433.5,147.0,429.5,150.0,427.0,145.5,423.0,139.5,421.0" stroke="#a4c798" stroke-width="2" fill="none" />
<polyline points="140.0,421.0,144.0,423.5" stroke="#fc67e9" stroke-width="2" fill="none" />
<polyline points="140.0,421.5,144.0,428.5,150.5,438.5" stroke="#1ffeaa" stroke-width="2" fill="none" />
<polyline points="162.0,443.5,166.0,440.0,170.0,444.0,174.0,444.0,178.5,439.0,182.5,438.0,183.0,433.0" stroke="#8d9c1" stroke-width="2" fill="none" />
<polyline points="178.5,439.0,174.5,443.0,178.5,442.5,182.0,444.5,185.5,441.0" stroke="#97adad" stroke-width="2" fill="none" />
<polyline points="198.5,450.5,195.0,448.5,190.5,448.0,186.5,447.5,182.5,446.5,179.0,450.0,180.5,448.5,182.0,448.5,184.5,442.0,184.0,437.0,182.0,435.5,180.5,433.5,182.0,429.0,183.0,424.5,182.0,420.5,181.0,416.5,179.5,412.5,178.0,408.5,176.0,404.5,173.0,400.5,170.0,396.5,166.0,392.5,161.5,388.5,159.5,384.5,163.0,380.5,164.0,377.0,162.5,380.5" stroke="#9358a" stroke-width="2" fill="none" />
<polyline points="160.0,377.0,164.5,371.5,168.5,366.5,172.5,361.5,177.0,355.5,181.0,349.0,185.0,343.0,189.0,338.0,192.5,332.5,196.5,328.0,200.5,323.0" stroke="#8db187" stroke-width="2" fill="none" />
<polyline points="197.5,318.5,201.5,316.5" stroke="#2c874e" stroke-width="2" fill="none" />
<polyline points="191.5,318.0,195.5,309.0,200.0,300.5,204.0,292.5,208.0,286.0,212.0,278.0,216.5,271.0,220.5,264.0,225.0,257.5,229.0,251.5,233.5,246.0,237.5,240.5,241.0,235.5,245.0,230.0,248.5,226.0,252.5,221.5,256.5,217.0" stroke="#604e37" stroke-width="2" fill="none" />
<polyline points="260.0,209.5,264.0,202.0,261.5,202.0,260.0,206.0,258.5,209.5,258.0,213.5,256.0,218.5,253.0,222.0,249.5,226.0,245.5,230.0,242.0,234.5,239.5,238.5,236.5,242.0" stroke="#6ad0a4" stroke-width="2" fill="none" />
<polyline points="233.0,223.5,229.0,221.5" stroke="#b41836" stroke-width="2" fill="none" />
<polyline points="232.5,220.0,228.5,217.5" stroke="#b5a1d" stroke-width="2" fill="none" />
<polyline points="226.5,213.5,224.5,218.5,228.5,226.5" stroke="#646312" stroke-width="2" fill="none" />
<polyline points="218.5,232.5,219.5,236.5" stroke="#c2a416" stroke-width="2" fill="none" />
<polyline points="218.5,233.0,222.0,232.0,223.0,236.0,223.0,240.0,221.0,244.0,219.5,248.0" stroke="#7a4f9d" stroke-width="2" fill="none" />
<polyline points="221.5,250.0,222.5,246.0,225.0,242.0,224.5,237.5,227.5,233.5,222.0,233.0,224.5,229.5,221.5,228.5,220.5,224.5,220.5,220.5,220.0,216.5,220.5,212.5" stroke="#a8dc29" stroke-width="2" fill="none" />
<polyline points="217.5,216.5,217.0,220.5,217.0,224.5,215.0,227.5,218.5,232.0,223.0,231.5,228.5,235.5" stroke="#576a27" stroke-width="2" fill="none" />
<polyline points="232.0,242.0,228.0,247.0,224.0,254.0,220.0,260.5,216.0,267.5,212.5,274.5,208.5,281.0,204.0,289.0,200.0,297.0,196.0,305.0,192.5,315.0,188.5,319.0,184.5,327.0,180.0,330.5,176.0,330.5,172.0,331.0,167.5,333.0,163.5,340.0,159.5,342.0,155.5,345.0,152.0,351.5,148.0,348.5" stroke="#44ebc6" stroke-width="2" fill="none" />
<polyline points="145.0,342.0,147.5,338.0,145.5,337.5,148.5,335.5,147.5,331.5,150.0,327.0,148.0,328.5" stroke="#73ddce" stroke-width="2" fill="none" />
<polyline points="149.5,329.5,152.5,333.5,152.5,337.5" stroke="#963c48" stroke-width="2" fill="none" />
<polyline points="149.0,340.0,147.5,344.0,147.5,348.0,146.5,352.0" stroke="#9a6ed1" stroke-width="2" fill="none" />
<polyline points="138.5,351.0,134.5,346.5,130.5,341.0" stroke="#a169f" stroke-width="2" fill="none" />
<polyline points="130.0,340.5,135.0,338.0,139.5,343.0" stroke="#a7b256" stroke-width="2" fill="none" />
<polyline points="142.5,338.5,140.5,341.0,139.5,337.0,139.0,330.0" stroke="#aba424" stroke-width="2" fill="none" />
<polyline points="127.0,334.0,133.5,333.0,134.0,336.5,135.5,340.5,135.5,344.0,139.5,348.0,138.5,354.5,142.5,356.0,142.5,362.5,146.5,367.0" stroke="#d6e46" stroke-width="2" fill="none" />
<polyline points="146.0,368.5,142.0,367.0" stroke="#79f64f" stroke-width="2" fill="none" />
<polyline points="144.0,362.0,147.5,366.0" stroke="#babb57" stroke-width="2" fill="none" />
<polyline points="147.0,361.5,151.5,367.5,152.0,371.5,152.5,376.0,155.0,379.5,156.5,383.5,157.5,388.0,160.5,393.5,162.0,397.5,161.0,401.5,161.0,405.5,162.5,409.5,162.0,413.0,163.0,417.0,163.5,421.0,161.0,425.0,162.0,418.5,160.5,422.5,161.0,426.5,163.0,423.5" stroke="#d97359" stroke-width="2" fill="none" />
<polyline points="166.0,426.5,167.5,430.5,169.5,434.0,168.5,437.5,169.0,438.0,174.0,437.5" stroke="#ede657" stroke-width="2" fill="none" />
<polyline points="172.0,428.0,171.0,425.0,167.5,419.0,170.0,415.5,168.5,411.5,165.5,407.0,161.5,407.0" stroke="#67cbe0" stroke-width="2" fill="none" />
<polyline points="162.0,409.5,166.0,415.5" stroke="#2542b" stroke-width="2" fill="none" />
<polyline points="164.0,411.5,166.0,415.5,169.0,420.5" stroke="#554057" stroke-width="2" fill="none" />
<polyline points="171.5,417.5,173.5,421.5,176.0,425.5,176.5,429.5,177.0,433.5,175.5,437.0,172.5,439.5,172.5,440.5,172.5,446.0,173.5,450.0,173.5,454.0,177.0,457.0,174.0,462.5,174.5,466.5,171.0,465.0,174.5,468.0" stroke="#d08f93" stroke-width="2" fill="none" />
<polyline points="155.0,453.0,151.5,452.0,147.5,452.0,143.5,449.5" stroke="#7ea255" stroke-width="2" fill="none" />
<polyline points="144.0,451.0,148.5,454.5" stroke="#eb2a5" stroke-width="2" fill="none" />
<polyline points="141.5,451.0,144.0,455.0,146.5,458.5,147.5,462.5,147.5,466.5,148.0,470.5,152.0,474.0,154.5,477.5,157.0,478.0,158.0,483.5,156.0,487.0,158.5,490.5,161.5,494.5,162.0,498.5,164.0,503.0,164.0,507.5,165.0,511.5" stroke="#c58ea5" stroke-width="2" fill="none" />
<polyline points="156.0,512.0,153.0,507.5,152.5,503.5,150.5,499.5,147.5,495.5,145.0,491.0,143.0,487.0,140.5,482.5" stroke="#843d56" stroke-width="2" fill="none" />
<polyline points="134.5,482.0,136.0,486.0,135.0,488.0,137.0,492.0,137.0,495.5,138.5,500.0,139.0,503.0" stroke="#135853" stroke-width="2" fill="none" />
<polyline points="120.5,510.5,120.5,507.0,120.5,503.0,121.0,499.0,119.5,495.0,119.5,491.5,119.5,487.5,119.5,483.5" stroke="#98ba27" stroke-width="2" fill="none" />
<polyline points="148.0,467.5,151.0,471.5,156.5,475.5" stroke="#f52ec" stroke-width="2" fill="none" />
<polyline points="151.0,447.0,146.5,442.0,143.5,437.0,137.0,427.5,133.0,423.0,129.5,419.5" stroke="#6c7052" stroke-width="2" fill="none" />
<polyline points="132.5,419.5,135.0,424.0,136.0,428.0,137.5,432.5,139.0,436.5,142.0,442.0,142.5,445.5,142.0,449.5,140.0,453.5,137.5,457.5,135.5,461.5,133.5,465.5,134.5,456.0" stroke="#715e6d" stroke-width="2" fill="none" />
<polyline points="140.5,451.0,142.5,455.0,143.5,459.0,143.5,463.0,146.0,466.5,147.5,470.5,151.0,474.5,156.0,477.5" stroke="#c1fa71" stroke-width="2" fill="none" />
<polyline points="159.5,461.5,153.5,457.0,154.5,455.0,154.0,451.0,152.5,447.0,150.0,443.5,145.5,439.5,145.0,435.5,145.5,431.5,142.5,427.5,140.5,423.5,137.5,423.5,133.5,419.0,129.5,414.5" stroke="#7124d8" stroke-width="2" fill="none" />
<polyline points="126.5,415.5,130.5,420.5,131.0,424.5,132.5,428.5" stroke="#d75ae" stroke-width="2" fill="none" />
<polyline points="136.0,428.5,137.0,430.5,139.0,435.0" stroke="#89ebe3" stroke-width="2" fill="none" />
<polyline points="155.5,442.0,156.5,440.0,158.0,435.5,157.5,434.0,157.0,430.0,156.0,426.0,155.0,421.5,155.0,421.5" stroke="#d6a411" stroke-width="2" fill="none" />
<polyline points="152.5,421.5,152.0,417.5,151.5,413.5,149.0,406.0,148.0,402.0,147.5,396.5,147.5,394.0" stroke="#981870" stroke-width="2" fill="none" />
<polyline points="145.5,394.5,148.5,398.5,151.5,406.0" stroke="#3e3354" stroke-width="2" fill="none" />
<polyline points="145.5,405.5,142.0,402.0" stroke="#4ff49f" stroke-width="2" fill="none" />
<polyline points="141.5,402.5,145.5,406.5" stroke="#3efa24" stroke-width="2" fill="none" />
<polyline points="147.5,410.5,143.0,406.0,139.0,402.0" stroke="#78ade" stroke-width="2" fill="none" />
<polyline points="140.5,399.5,142.0,403.5,145.5,407.5,150.0,412.0" stroke="#1c8eb9" stroke-width="2" fill="none" />
<polyline points="148.5,401.5,145.0,398.0,141.5,396.0,137.5,402.5,131.5,400.5,127.5,400.0,123.5,398.0,120.0,393.5" stroke="#c24b56" stroke-width="2" fill="none" />
<polyline points="119.0,390.0,123.0,396.0,125.0,397.5,127.0,401.0" stroke="#773de3" stroke-width="2" fill="none" />
<polyline points="126.0,402.5,121.5,398.5,118.0,395.0,118.5,391.0,120.0,387.5,119.5,383.5,119.0,380.5,120.0,376.5,118.0,376.5,118.5,372.0,118.0,373.0" stroke="#82c115" stroke-width="2" fill="none" />
<polyline points="120.0,367.0,124.0,372.5,124.5,378.0,129.0,381.0" stroke="#d57e68" stroke-width="2" fill="none" />
<polyline points="125.0,383.0,125.5,386.5,127.5,388.0,124.5,392.0,129.0,396.5" stroke="#1d232b" stroke-width="2" fill="none" />
<polyline points="125.5,392.0,129.0,395.0,132.5,397.0,136.0,393.0" stroke="#c4dca" stroke-width="2" fill="none" />
<polyline points="134.5,391.5,128.0,389.5,124.0,390.5" stroke="#874cca" stroke-width="2" fill="none" />
<polyline points="115.5,398.5,113.5,402.5,111.0,407.0,112.0,406.5" stroke="#2275e" stroke-width="2" fill="none" />
<polyline points="111.5,414.0,115.5,413.5,119.5,412.5,123.5,408.0,128.5,408.0,127.5,412.0,126.0,415.5,128.5,419.0,128.0,423.0,129.0,427.0" stroke="#5c773e" stroke-width="2" fill="none" />
<polyline points="131.0,428.0,127.5,425.0,123.5,417.5" stroke="#41cac9" stroke-width="2" fill="none" />
<polyline points="121.5,417.0,123.0,420.5,126.0,424.5" stroke="#71a9d" stroke-width="2" fill="none" />
<polyline points="129.0,429.0,124.5,425.5,120.5,420.5" stroke="#da3d42" stroke-width="2" fill="none" />
<polyline points="121.5,416.0,121.5,420.5,124.0,424.5,127.5,429.0" stroke="#22bef6" stroke-width="2" fill="none" />
<polyline points="127.0,412.5,130.5,407.5,134.5,403.0" stroke="#4382eb" stroke-width="2" fill="none" />
<polyline points="137.5,409.0,141.5,413.0,145.5,418.0,149.5,424.0" stroke="#bd445" stroke-width="2" fill="none" />
<polyline points="164.0,428.5,161.0,432.5,161.5,433.0,168.0,433.5" stroke="#5bb6bf" stroke-width="2" fill="none" />
<polyline points="162.5,445.5,164.0,449.0,165.5,453.0,167.5,457.5,170.5,461.0,167.5,464.5,167.0,468.5,162.5,471.0,163.5,475.0,162.5,479.5,160.0,480.5,159.5,483.5,159.0,487.5,160.5,491.0,164.5,495.0,166.0,499.0,167.5,505.5,171.0,509.5,171.0,513.5,172.0,513.0" stroke="#1c44d5" stroke-width="2" fill="none" />
<polyline points="197.0,432.0,196.0,428.0" stroke="#84b47b" stroke-width="2" fill="none" />
<polyline points="193.0,426.0,193.0,430.0,193.0,433.5" stroke="#82645f" stroke-width="2" fill="none" />
<polyline points="195.5,434.0,196.0,430.5,197.5,428.5,197.5,424.5" stroke="#a01ec3" stroke-width="2" fill="none" />
<polyline points="175.5,421.5,172.0,415.0,162.5,414.0,158.0,409.0,154.0,404.0,150.0,402.0,146.5,396.5,145.5,390.0,141.0,385.0,138.5,391.5,135.5,388.5,135.5,385.0,140.0,381.5,138.0,377.0,135.5,373.5,133.5,372.0,137.5,368.0,141.5,363.5,142.0,359.5,142.0,356.0,141.5,353.0,135.5,350.5,132.0,346.0,129.5,342.0,131.0,338.0,129.5,334.0,130.5,330.0,129.0,326.0,126.5,321.0" stroke="#6caaf2" stroke-width="2" fill="none" />
<polyline points="119.0,324.0,119.5,328.0,120.0,332.5,120.5,336.0,121.5,340.0,122.0,341.0" stroke="#c77573" stroke-width="2" fill="none" />
<polyline points="118.5,341.5,119.5,343.5,119.5,346.5" stroke="#dfad76" stroke-width="2" fill="none" />
<polyline points="117.0,344.0,117.5,348.0,118.0,351.0,118.0,355.0,118.0,358.5,117.5,362.5,116.0,366.5,114.5,370.5,115.5,374.5,115.0,378.5,114.0,382.0,115.0,386.5,115.5,390.5,115.5,395.0,119.5,399.0,122.5,403.5,121.5,407.5,115.5,411.5,111.0,413.0,114.5,412.0,118.5,410.5,122.5,406.0" stroke="#a7668a" stroke-width="2" fill="none" />
<polyline points="125.5,405.5,122.0,409.5" stroke="#d63bbe" stroke-width="2" fill="none" />
<polyline points="129.5,410.0,133.5,405.5,140.0,400.5,143.5,397.0" stroke="#2b23c" stroke-width="2" fill="none" />
<polyline points="143.5,396.5,143.0,400.0" stroke="#8d7a98" stroke-width="2" fill="none" />
<polyline points="143.0,390.0,141.5,394.5,139.0,398.5,137.5,403.0,134.0,407.0,130.5,411.5,130.5,414.5,133.0,418.5,135.5,421.5,139.5,425.5,140.5,430.5,141.5,434.5,139.0,439.5,139.5,443.5,138.5,447.0,138.0,450.5,136.5,454.5,134.0,457.5,133.0,461.5,136.5,466.0,137.5,467.0,141.0,467.0,144.5,472.0,148.5,475.5,152.0,478.0,156.0,481.0,160.5,482.0,164.5,485.0,167.5,488.5" stroke="#fa682" stroke-width="2" fill="none" />
<polyline points="115.0,433.5,114.5,431.5,113.5,427.5,113.0,423.5,112.0,419.5" stroke="#f29fa" stroke-width="2" fill="none" />
<polyline points="103.0,406.5,99.0,407.5,97.5,407.5,96.5,403.5,95.5,401.5,93.5,400.0,91.0,396.0,90.0,391.5,89.0,387.5,90.0,384.0,85.0,387.5" stroke="#b24cbb" stroke-width="2" fill="none" />
<polyline points="82.5,385.0,80.0,389.0,79.5,393.5,77.0,398.0,74.5,402.5,73.5,406.5,73.0,411.0,73.0,415.0,71.0,415.5,70.5,418.5,71.0,422.5,69.0,426.0,71.0,426.0,70.5,430.0,72.0,431.0,70.5,434.5,68.5,439.0,69.5,443.0,70.0,447.0,70.0,451.0,70.0,455.0,69.5,458.5,69.5,462.5,68.0,466.5,66.0,470.5,64.5,474.5,63.5,478.5,63.5,482.5,64.0,487.0,65.0,490.5,65.5,494.5,65.5,498.5,62.0,502.5,62.0,506.5,61.5,510.5,63.0,510.5,65.5,507.0" stroke="#316beb" stroke-width="2" fill="none" />
<polyline points="64.5,503.0,67.5,508.5,66.5,512.0" stroke="#c75ca2" stroke-width="2" fill="none" />
<polyline points="69.5,497.0,70.5,493.5,71.0,489.0,71.5,485.0,72.5,480.5,70.5,477.0" stroke="#fb2898" stroke-width="2" fill="none" />
<polyline points="66.0,473.5,69.0,472.0,69.0,476.0,68.5,480.0,68.0,484.0,66.5,487.5,67.0,491.5,67.5,495.5" stroke="#1ccb56" stroke-width="2" fill="none" />
<polyline points="71.5,465.0,71.5,461.0,71.0,456.5,71.5,454.5" stroke="#9023da" stroke-width="2" fill="none" />
<polyline points="72.5,457.0,72.5,460.5,72.0,464.5,74.5,468.0,74.0,471.5" stroke="#eed982" stroke-width="2" fill="none" />
<polyline points="66.5,454.5,66.0,450.5,66.0,448.5" stroke="#1337af" stroke-width="2" fill="none" />
<polyline points="65.5,452.5,65.0,456.5,66.0,460.0,67.5,463.5,70.0,468.0,71.0,470.5,70.5,474.5,70.0,479.0,69.5,483.0" stroke="#54d829" stroke-width="2" fill="none" />
<polyline points="31.0,491.0,29.5,497.5,30.5,501.5,34.0,506.0,34.0,510.5" stroke="#71c236" stroke-width="2" fill="none" />
<polyline points="19.0,508.5,19.0,504.5,21.0,500.5,19.5,501.0" stroke="#4bbb9d" stroke-width="2" fill="none" />
<polyline points="16.0,506.5,15.5,502.5,15.0,498.0,14.0,494.0" stroke="#23d697" stroke-width="2" fill="none" />
<polyline points="10.5,427.5,10.5,423.5,6.0,421.5" stroke="#ca1820" stroke-width="2" fill="none" />
<polyline points="6.0,420.0,8.5,424.0,10.5,428.0,11.0,432.0,11.5,436.0,11.0,439.5,10.5,444.0,13.0,446.0,12.5,449.5,12.5,453.5,12.5,457.5,15.0,459.5,13.0,463.5,14.0,467.5,14.5,471.5,13.0,475.5,12.5,478.0" stroke="#3721b3" stroke-width="2" fill="none" />
<polyline points="36.0,461.0,36.0,457.5,35.5,454.0,35.0,450.0,34.0,446.0,33.5,441.0,33.5,437.0,33.0,433.0,33.0,428.5,33.0,424.5" stroke="#1292c" stroke-width="2" fill="none" />
<polyline points="26.0,418.5,23.0,411.5" stroke="#59535f" stroke-width="2" fill="none" />
<polyline points="22.0,412.5,25.0,416.0,25.5,420.0,25.5,424.5,26.0,428.5,25.5,432.5,25.5,436.5,26.5,440.5,28.0,444.5,28.0,448.0,28.5,452.5,29.0,456.0,29.0,459.5,28.0,463.5,29.0,468.0,29.5,472.0,28.5,476.0,31.0,480.0,31.5,483.5,32.0,487.5,31.5,491.5,33.0,495.5,33.0,499.0,32.0,502.5" stroke="#fc5d88" stroke-width="2" fill="none" />
<polyline points="69.0,435.5,66.5,435.5,66.5,431.5,66.0,431.5" stroke="#8c79fa" stroke-width="2" fill="none" />
<polyline points="65.5,425.0,64.0,424.0,64.0,420.5,64.0,416.0,64.5,412.0,66.0,407.5,70.0,403.5,72.5,399.5,74.0,395.5,73.0,395.0,73.0,397.5" stroke="#b51175" stroke-width="2" fill="none" />
<polyline points="80.0,394.5,76.0,401.5,72.0,406.0" stroke="#cf3f" stroke-width="2" fill="none" />
<polyline points="66.5,408.0,70.5,404.0,74.5,401.5,78.5,395.5,80.5,386.5" stroke="#fb4af9" stroke-width="2" fill="none" />
<polyline points="81.5,387.0,81.0,391.0,79.5,397.0,77.5,401.0,75.0,404.5,73.0,408.0,73.5,412.0" stroke="#97bbd6" stroke-width="2" fill="none" />
<polyline points="69.5,415.5,72.5,419.5,72.5,423.0,71.0,424.0" stroke="#3b86b8" stroke-width="2" fill="none" />
<polyline points="65.5,419.5,67.0,415.5,68.0,411.5,69.0,407.5,70.5,403.5,67.0,413.0" stroke="#b1a774" stroke-width="2" fill="none" />
<polyline points="90.0,405.5,94.5,404.0" stroke="#1dbea6" stroke-width="2" fill="none" />
<polyline points="96.5,400.0,92.5,398.0" stroke="#4b3515" stroke-width="2" fill="none" />
<polyline points="90.5,395.0,94.5,401.5" stroke="#dcaf2b" stroke-width="2" fill="none" />
<polyline points="102.0,412.5,100.0,412.0,107.0,407.5,110.0,404.0,110.0,400.0,107.5,396.5,107.0,392.5" stroke="#7bc52f" stroke-width="2" fill="none" />
<polyline points="106.0,391.5,105.0,395.5,105.5,399.5,106.5,403.5" stroke="#6e91a8" stroke-width="2" fill="none" />
<polyline points="115.0,406.0,115.0,403.0,116.0,399.0" stroke="#de4cbc" stroke-width="2" fill="none" />
<polyline points="131.0,406.5,135.0,403.0,135.5,396.0,139.0,394.0,143.0,390.0,143.5,386.5,143.5,385.5,145.5,380.5,147.0,375.0,147.5,371.0,147.5,366.5,145.5,362.5,144.5,358.5,144.5,354.5,143.5,352.5,142.0,348.5,139.5,345.0,138.5,340.0,137.5,336.5,136.0,332.5,136.5,328.5,136.0,324.5,135.5,320.5,134.0,317.0,132.5,313.0,130.5,309.5,129.5,305.5,127.5,298.5,132.0,294.0,135.5,292.0,137.5,287.5,130.5,283.0,127.0,277.0" stroke="#ddf6b5" stroke-width="2" fill="none" />
<polyline points="126.0,276.0,126.0,279.5,128.5,283.0,129.0,286.5,126.0,289.0,124.5,293.0,123.5,297.0,122.0,301.0,124.5,304.5,122.5,308.5,122.0,313.0,121.0,316.5,121.0,320.5,122.0,324.5,122.5,328.5,122.5,332.5,123.0,338.0" stroke="#6a4947" stroke-width="2" fill="none" />
<polyline points="117.5,337.5,118.0,341.5,118.0,344.5,119.0,349.0,121.0,353.5,121.5,358.0,122.5,362.0,124.5,366.0,126.0,370.0,129.0,374.0,131.0,378.0,131.5,383.0,133.0,384.5,137.5,386.5,139.0,390.0" stroke="#527d86" stroke-width="2" fill="none" />
<polyline points="142.0,384.5,140.5,379.5,136.5,374.5" stroke="#a1c3f" stroke-width="2" fill="none" />
<polyline points="133.5,373.5,140.0,372.5,142.0,376.5,143.0,380.0,146.0,380.5,146.0,385.0" stroke="#f88a16" stroke-width="2" fill="none" />
<polyline points="152.5,380.5,151.0,383.0,155.0,386.0" stroke="#d91e34" stroke-width="2" fill="none" />
<polyline points="165.5,396.0,167.0,400.0,170.0,400.5,173.5,404.5,176.0,408.5,178.0,412.5,179.0,416.5,179.5,421.0,179.5,425.0" stroke="#c9ac9" stroke-width="2" fill="none" />
<polyline points="173.0,428.5,170.5,424.5,167.0,426.0,164.0,430.5,160.0,436.0,164.5,433.0,164.5,428.5,165.5,424.5,169.0,425.0,170.0,421.0,171.5,417.5,173.5,413.0,171.5,409.0,167.5,405.0" stroke="#d61765" stroke-width="2" fill="none" />
<polyline points="193.5,404.0,194.0,400.5,194.0,396.5,194.0,392.5" stroke="#2fd3c" stroke-width="2" fill="none" />
<polyline points="191.5,392.0,192.0,396.0,191.0,400.0,190.5,403.5,190.0,407.5,189.5,411.0,189.5,415.0,190.0,419.5,190.0,423.5,189.5,428.0,188.5,432.0,188.0,436.0,188.0,440.0,185.5,440.5,183.0,444.5,185.5,444.5,190.0,445.5,194.0,446.0,198.5,444.5" stroke="#6fe41" stroke-width="2" fill="none" />
<polyline points="149.5,429.0,150.5,425.0,148.5,421.0,146.0,417.0,142.5,413.5,139.0,409.5" stroke="#2d6c43" stroke-width="2" fill="none" />
<polyline points="135.5,363.0,131.0,359.5" stroke="#d84e3" stroke-width="2" fill="none" />
<polyline points="133.5,362.5,129.5,359.5,125.0,358.0,121.0,355.5" stroke="#2d8b3d" stroke-width="2" fill="none" />
<polyline points="122.0,356.0,125.0,359.5,125.5,363.5,131.0,365.5,131.0,369.0,136.0,369.0,139.5,369.0,147.0,372.0" stroke="#cb521a" stroke-width="2" fill="none" />
<polyline points="149.0,361.0,151.5,365.5,151.0,367.5,151.0,372.0,151.0,376.0,151.5,380.0,151.0,384.0,149.5,385.0,154.0,389.0,157.5,391.0,161.0,395.5,167.0,398.0,171.5,402.5,175.5,410.5" stroke="#d17f4a" stroke-width="2" fill="none" />
<polyline points="167.0,364.5,169.5,361.5,165.5,367.0,161.5,367.0,162.0,363.0,163.0,359.0,165.5,355.5,167.5,352.0,170.5,348.5,173.5,345.0,176.5,340.5,178.0,336.0,181.0,331.5,177.5,332.0,173.0,333.5,169.0,335.5,163.5,339.0,164.5,335.5,165.5,331.5,163.0,330.0" stroke="#24b43" stroke-width="2" fill="none" />
<polyline points="164.0,320.5,168.0,322.0,172.0,320.5" stroke="#4fc1f" stroke-width="2" fill="none" />
<polyline points="167.5,321.0,165.5,325.5,163.0,329.5,160.5,333.5,160.5,335.0,164.5,330.5" stroke="#e120bb" stroke-width="2" fill="none" />
<polyline points="159.0,344.5,158.0,349.0,156.5,353.5,159.5,357.0,158.5,360.5,158.0,364.5,157.0,369.0,156.5,373.0,158.0,377.5,157.0,381.5,154.0,383.0,154.5,389.0,153.5,393.0,153.0,396.5,157.0,400.5,162.0,404.0,166.0,408.5,169.5,410.0" stroke="#465cef" stroke-width="2" fill="none" />
<polyline points="163.5,365.0,168.0,361.0,171.5,357.5,175.5,352.5,179.0,347.0,183.0,341.5,186.5,335.0" stroke="#eff7" stroke-width="2" fill="none" />
<polyline points="190.0,330.5,186.5,330.5,181.5,332.5,177.5,339.5,174.0,345.5,169.5,350.5,165.5,356.0,161.5,361.5,159.5,370.5,162.0,367.5,165.5,362.5,171.0,358.5,175.0,354.0,179.0,350.0,181.5,346.0,184.5,342.0,187.0,337.5,186.5,333.0,189.0,333.0,191.5,329.0" stroke="#6fe191" stroke-width="2" fill="none" />
<polyline points="190.5,345.0,190.5,346.0,191.0,350.0,192.0,354.0" stroke="#dc1622" stroke-width="2" fill="none" />
<polyline points="195.0,355.0,194.0,351.0,193.0,347.0" stroke="#4dfadd" stroke-width="2" fill="none" />
<polyline points="165.5,346.5,165.5,341.5,169.0,339.5,174.0,335.5,180.0,331.5,183.0,327.5,184.0,323.5,186.5,319.5,192.0,317.5,193.5,313.5,195.5,309.0,198.0,304.5,200.5,300.0,203.0,296.0,204.5,292.0,206.5,288.0,209.0,284.0,210.5,280.0,213.0,276.0,215.5,271.5,218.0,268.0,220.0,264.0,222.5,260.0,224.5,256.0,227.5,252.0,230.0,248.5,232.5,245.0,234.5,238.5,237.5,234.5,241.0,230.5,244.5,226.0,248.5,221.5,251.5,217.5,252.0,213.5,254.0,210.5,255.5,206.5,257.0,203.0,253.0,211.5,250.0,210.0,245.5,210.0,241.5,208.5,238.5,205.5,239.5,201.5,240.5,197.5,242.0,194.5,244.0,190.5,249.5,186.5,250.0,184.5,258.0,180.5,251.5,175.0,252.5,174.0,247.5,173.0,246.0,172.0,242.0,173.0" stroke="#118d23" stroke-width="2" fill="none" />
<polyline points="251.0,173.5,255.5,177.0,258.5,178.5" stroke="#c7fb1" stroke-width="2" fill="none" />
<polyline points="261.0,180.0,257.0,180.0,253.0,182.0,249.5,184.0,249.5,187.0,245.5,192.0,243.0,193.5,242.0,200.0,243.5,198.5,246.5,194.5,251.5,190.0,255.5,186.5,261.0,182.5,266.5,178.5" stroke="#58c067" stroke-width="2" fill="none" />
<polyline points="267.0,180.5,263.0,184.5,258.0,188.5,255.0,191.0,255.0,195.0,251.5,199.0,249.0,203.0,248.5,203.5,252.5,204.0,252.5,200.0,256.5,196.0,260.0,192.0,264.0,188.5,267.5,186.0,271.5,188.0" stroke="#dfa32" stroke-width="2" fill="none" />
<polyline points="268.0,189.0,264.5,193.5,261.0,197.5,257.5,201.5,260.0,194.5,264.0,191.0,268.0,190.0" stroke="#3a2b56" stroke-width="2" fill="none" />
<polyline points="266.5,189.0,262.5,193.0,259.0,197.0,254.5,201.0,253.0,205.5,252.0,209.5,253.5,215.0,254.0,217.5" stroke="#e7dce9" stroke-width="2" fill="none" />
<polyline points="252.0,201.5,256.0,197.5" stroke="#df2870" stroke-width="2" fill="none" />
<polyline points="266.0,198.5,265.0,202.5,263.0,206.5,261.5,210.5,261.5,214.0,260.0,219.0,256.0,223.0,251.5,227.0,248.0,231.0,244.5,235.5,240.5,239.5,237.5,243.5,235.0,247.5,231.5,251.5,228.5,255.5,226.0,259.5,222.5,264.0,220.5,268.0,218.0,272.0,215.0,276.0,213.0,280.0,211.0,284.0,209.5,288.0,208.0,292.0,206.5,296.0,204.0,300.0,202.5,304.0,200.5,308.5,199.0,312.5,197.5,316.5,200.0,320.0,199.5,312.5,203.5,302.5,207.5,294.0,212.0,285.5,216.0,277.5,220.0,270.5,224.0,264.5,228.5,258.5,232.5,252.5,236.5,247.5,240.5,242.5,244.5,238.0,248.5,233.0,252.0,228.0,256.0,223.5,260.0,219.5,264.0,215.5,264.5,211.5,269.0,204.5,273.0,202.0,276.5,199.5,280.5,196.0,284.5,192.5,288.5,189.5,292.5,186.0,296.5,182.5,300.5,179.0,304.5,176.0,308.5,173.0" stroke="#6efe35" stroke-width="2" fill="none" />
<polyline points="311.5,173.5,305.0,177.5,299.5,181.0,295.0,184.5,290.0,188.0,285.5,192.0,280.5,196.0,276.0,200.0,270.5,204.0,267.5,209.5,271.0,209.0,267.5,213.0,266.0,218.0,265.0,222.5,264.5,224.5,264.0,228.5,264.5,232.5,263.5,236.5,264.0,240.5" stroke="#817163" stroke-width="2" fill="none" />
<polyline points="289.5,250.0,296.5,254.0" stroke="#63f81b" stroke-width="2" fill="none" />
<polyline points="318.0,273.0,322.0,266.0,326.0,262.5,329.5,261.0,333.5,259.5,338.0,258.5,341.5,257.0,345.5,256.5,348.0,252.5,352.0,251.5" stroke="#19831b" stroke-width="2" fill="none" />
<polyline points="350.0,254.5,346.0,256.5" stroke="#447384" stroke-width="2" fill="none" />
<polyline points="338.0,264.0,342.5,265.0,343.5,270.5,342.0,274.5,340.5,281.5,343.0,281.5,344.0,282.0" stroke="#c6bbe" stroke-width="2" fill="none" />
<polyline points="337.5,279.5,341.5,281.5,345.5,279.5,349.5,279.0,350.5,283.5,351.0,287.5,350.5,291.5,351.0,295.5,350.0,299.5,348.0,303.5,347.5,307.5,344.5,311.5,347.0,313.5,346.0,317.5,344.0,321.5,342.0,325.0,340.5,329.5,338.0,334.0,336.0,338.0,333.5,342.0,332.0,346.0,330.0,349.5,327.5,353.5,325.5,357.5,323.5,362.0,320.5,365.5,319.0,369.5,316.5,374.0,315.0,378.0,314.0,382.0,314.5,386.0,312.0,390.0,317.5,393.0,326.0,397.0,334.5,400.5,340.0,404.0,344.5,408.0,348.5,412.0,352.0,415.5,354.5,419.5,357.0,423.0,359.0,427.0,361.5,431.5,363.0,435.5,364.0,439.5,365.5,443.5,367.0,447.0,369.0,451.0,370.5,455.0,371.5,459.0,373.0,463.5,374.0,467.5,375.0,472.0,376.0,476.0,376.5,480.5,378.0,484.5,378.5,488.5,379.5,492.5,380.5,497.0,381.5,500.5,382.5,504.5,383.5,508.5,385.0,512.5" stroke="#5d35b2" stroke-width="2" fill="none" />
<polyline points="421.0,490.0,425.0,495.0,429.5,494.0,433.5,491.0,437.5,488.0,441.5,484.0,445.5,480.5,450.0,475.0,452.5,470.0,457.0,466.5" stroke="#d387f9" stroke-width="2" fill="none" />
<polyline points="457.5,467.5,452.0,471.5,449.0,470.0,453.0,463.5" stroke="#c3b564" stroke-width="2" fill="none" />
<polyline points="456.0,450.5,460.0,441.5" stroke="#18fcb4" stroke-width="2" fill="none" />
<polyline points="464.0,431.5,468.5,424.5,472.5,418.0,476.0,408.5,480.5,405.0,485.0,400.5,489.0,397.5,493.0,393.5,494.5,390.5,498.5,388.5,502.5,387.0,506.5,386.0,510.5,384.5" stroke="#43da9a" stroke-width="2" fill="none" />
<polyline points="514.0,382.0,503.0,386.0,494.5,390.0,493.0,394.5,487.5,399.0,483.5,403.0,479.0,407.5,477.0,412.0,476.0,416.0,473.5,420.5,471.0,425.0,469.5,429.0,467.0,432.5,463.5,436.0,461.0,440.0,459.0,443.5,457.5,447.0,456.0,450.5,455.0,454.0,454.5,457.5,452.5,462.0,450.5,465.5,448.5,470.0,449.0,474.5,446.5,479.0,442.0,483.0,437.5,487.5,432.5,491.5" stroke="#9fadb1" stroke-width="2" fill="none" />
<polyline points="431.5,481.0,430.5,478.5,432.0,475.5,434.0,478.5,435.5,474.5,436.0,471.0,437.5,467.0,438.0,463.0,439.0,459.0,438.0,457.5,434.0,455.0,430.0,451.5" stroke="#b8c4da" stroke-width="2" fill="none" />
<polyline points="437.5,457.0,433.5,455.0,429.5,451.5,429.0,447.5,429.5,444.0,430.5,440.0,431.5,436.0,433.5,432.5,431.5,435.5" stroke="#6d6f85" stroke-width="2" fill="none" />
<polyline points="429.5,467.5,425.5,472.5,422.0,476.5,418.5,472.0,417.0,468.5" stroke="#f0903b" stroke-width="2" fill="none" />
<polyline points="428.5,467.5,426.5,471.5,422.5,475.5,421.5,479.5,422.5,483.5,422.5,487.5,423.5,491.5" stroke="#44ba37" stroke-width="2" fill="none" />
<polyline points="374.5,463.5,372.0,461.0,370.0,457.5,370.0,453.5,370.5,449.0,371.5,445.0,372.5,440.5,373.0,436.5,374.0,432.5,374.0,428.5,375.0,425.0,375.5,421.0,376.5,417.0,376.0,413.0,376.5,408.5,377.0,404.0,377.5,400.0,378.0,396.0,378.5,392.0,379.0,388.0,379.0,384.0,379.0,380.0,378.5,375.5,378.0,372.0,377.5,368.0,378.0,364.5,379.0,360.5,378.0,356.5,377.0,353.0,376.0,349.0,375.0,345.0,375.5,341.0,375.0,336.5,374.5,332.5,374.0,328.5,373.0,324.5,372.5,320.5,371.5,316.5,371.0,312.0,370.5,308.0,370.0,304.0,370.0,299.5,369.5,295.5,369.0,291.5,369.0,288.0,368.5,284.0,368.5,280.0,368.0,276.0,368.0,272.0,367.5,268.0,367.0,264.0,367.0,260.0,367.0,256.0,366.5,252.0,366.5,248.5,365.5,244.5,365.5,240.5,364.5,237.0,363.5,233.0,362.5,229.0,361.5,225.0,360.5,221.0,359.0,217.0,357.0,213.5,355.0,209.5,354.0,206.5,350.5,202.5,349.0,198.5,348.5,196.5" stroke="#31cd6b" stroke-width="2" fill="none" />
<polyline points="346.0,198.0,344.0,202.0,347.5,206.0" stroke="#5183bc" stroke-width="2" fill="none" />
<polyline points="348.5,203.0,344.5,198.0" stroke="#398663" stroke-width="2" fill="none" />
<polyline points="346.0,198.5,349.0,202.5" stroke="#5356da" stroke-width="2" fill="none" />
<polyline points="349.0,201.0,353.0,207.0,357.0,214.0" stroke="#615040" stroke-width="2" fill="none" />
<polyline points="370.0,219.5,372.5,213.0,371.5,217.5,369.5,221.5,369.0,226.0,368.5,230.0,368.5,233.0,369.0,237.0,370.0,241.0,371.0,244.5,373.0,248.5,373.5,252.5,375.5,256.5,374.5,260.5,376.0,265.0,377.5,269.0" stroke="#9bcaa1" stroke-width="2" fill="none" />
<polyline points="381.0,266.0,380.0,270.0,381.0,274.0,379.0,278.5,377.0,282.5,378.0,286.5,378.5,290.5" stroke="#6a2626" stroke-width="2" fill="none" />
<polyline points="380.5,292.0,380.5,288.5,380.5,284.5,381.5,280.5,381.0,277.5" stroke="#da5655" stroke-width="2" fill="none" />
<polyline points="373.5,278.0,374.0,282.5,376.0,285.0,375.5,289.0,376.0,293.0,377.5,297.0,378.0,301.0,379.5,305.0,380.5,309.0,381.0,313.5,382.0,317.5,383.0,321.5,383.5,325.0,382.5,329.0,381.5,333.0,381.0,336.5,382.0,340.5,383.0,344.5,383.0,348.0,384.0,352.0" stroke="#94d46f" stroke-width="2" fill="none" />
<polyline points="369.0,351.5,370.0,355.5,370.5,359.5,370.5,363.0,371.0,367.0,371.5,371.0" stroke="#6a1c42" stroke-width="2" fill="none" />
<polyline points="372.0,377.0,373.0,381.0,373.0,384.5" stroke="#7ffd1c" stroke-width="2" fill="none" />
<polyline points="381.0,386.5,380.5,390.5,380.5,394.5,380.0,398.5,379.5,403.0" stroke="#956148" stroke-width="2" fill="none" />
<polyline points="363.0,434.5,359.0,425.5,355.0,419.0,351.0,414.5,346.5,409.5,342.5,406.0,338.5,402.5,334.5,400.0,330.5,398.5,326.5,396.5,323.0,394.5,318.5,393.0,314.5,391.0,310.5,389.5,308.0,389.5,304.0,389.5,300.0,388.5" stroke="#f61873" stroke-width="2" fill="none" />
<polyline points="311.5,382.0,316.0,371.5,320.0,365.0,324.5,358.5,328.5,351.5,333.0,343.0,337.0,334.0,341.5,325.5,345.5,317.5" stroke="#3c6fe4" stroke-width="2" fill="none" />
<polyline points="357.0,330.0,357.0,334.0,356.0,337.5,354.5,341.5,354.5,340.0" stroke="#5d1fa2" stroke-width="2" fill="none" />
<polyline points="353.0,353.0,353.5,357.5,353.5,361.0,352.5,365.0,353.0,369.0,353.0,373.0,353.0,377.0,353.0,381.0,353.5,387.0,353.0,391.0,353.5,395.5,354.0,399.0,354.5,403.0,352.5,404.5,353.5,408.0,353.5,412.0" stroke="#68b0f4" stroke-width="2" fill="none" />
<polyline points="361.0,384.5,361.0,380.0,361.0,375.5,362.5,370.0,362.0,366.0,362.0,362.0" stroke="#cd1fc2" stroke-width="2" fill="none" />
<polyline points="359.0,361.5,359.5,365.5,360.0,369.5,359.5,373.5,359.0,377.5,359.0,381.5" stroke="#ed7479" stroke-width="2" fill="none" />
<polyline points="355.0,355.5,355.0,360.0,355.5,363.5,354.5,367.5,355.0,371.5,355.0,375.5,355.0,379.5,354.5,383.5,354.5,387.5,354.5,392.0,355.0,396.0,355.0,400.0,355.0,404.0,355.0,408.0,355.5,411.5,354.0,413.0" stroke="#f0682a" stroke-width="2" fill="none" />
<polyline points="372.0,384.5,372.0,380.5,372.0,377.0,372.0,373.0,369.0,368.0,368.5,364.0,368.5,360.0,368.0,356.0,367.5,352.0" stroke="#bad48d" stroke-width="2" fill="none" />
<polyline points="385.5,349.0,385.5,345.0,385.5,341.0,386.0,337.0,385.5,332.5,385.0,328.5" stroke="#ede37" stroke-width="2" fill="none" />
<polyline points="382.0,359.5,381.5,355.5,381.0,351.5,380.0,347.5,379.5,343.5,379.5,339.5,379.5,335.5,378.5,332.0,378.5,327.5,378.5,323.0,376.0,316.0,375.5,311.5,375.0,307.5,374.0,303.5,373.5,299.5,373.5,296.0,374.0,291.5" stroke="#5242f5" stroke-width="2" fill="none" />
<polyline points="399.5,287.0,401.5,280.5,403.0,276.5" stroke="#afda7" stroke-width="2" fill="none" />
<polyline points="414.0,244.0,417.5,236.0,419.0,230.0" stroke="#d463e1" stroke-width="2" fill="none" />
<polyline points="421.5,219.0,425.5,215.0,426.5,210.0,428.5,202.5,433.0,195.0" stroke="#5f8070" stroke-width="2" fill="none" />
<polyline points="437.5,184.5,439.5,180.0" stroke="#1d59d2" stroke-width="2" fill="none" />
<polyline points="442.5,174.5,446.0,166.5,449.5,161.5,453.5,154.5" stroke="#ee218e" stroke-width="2" fill="none" />
<polyline points="460.0,142.0,464.0,136.0,468.0,129.0,472.5,122.5,477.0,117.0,481.5,111.5,485.5,106.5,490.0,102.0,494.0,96.0,498.0,94.0,500.0,89.5,504.0,85.0,508.5,81.0,512.5,76.0" stroke="#38728d" stroke-width="2" fill="none" />
<polyline points="512.0,73.5,509.0,77.5,506.0,81.5,502.5,86.0,498.5,90.0,494.5,95.5,492.0,100.0,488.5,104.5,485.0,108.5,482.5,112.5,478.5,116.5,476.0,120.5,474.0,125.0,471.0,128.5,469.0,132.5,465.0,136.0,463.0,140.0,461.0,143.5,457.0,148.0,455.0,152.0,453.0,156.0,450.0,160.0,447.5,164.5,444.5,168.5,442.5,173.0,441.5,178.0,438.5,182.5,437.0,186.5,436.0,190.5,434.5,195.0,432.5,199.0,430.5,203.0,429.5,206.5,428.0,210.5,426.0,215.0,422.5,218.5,422.5,223.0,420.0,227.0,418.5,230.5,416.5,235.0,415.0,239.0,413.0,243.0,412.0,247.0,413.0,249.5,410.0,254.0,408.5,258.0,408.5,262.0,406.5,266.0,406.0,270.0,404.5,274.0,402.0,277.5,401.5,281.5,401.0,285.5,400.0,289.0,398.5,293.0,398.0,297.0,397.0,300.5,396.0,304.5,394.5,308.5,393.0,313.0,392.5,317.5,391.5,321.5,390.5,325.0,389.5,329.0,388.0,332.5,387.0,336.5,387.5,340.0" stroke="#e4d2a7" stroke-width="2" fill="none" />
<polyline points="320.5,347.5,319.0,343.5,318.5,342.0" stroke="#1c91f9" stroke-width="2" fill="none" />
<polyline points="319.5,347.0,315.0,350.0,311.0,350.5,307.0,351.5" stroke="#b650d4" stroke-width="2" fill="none" />
<polyline points="310.5,354.0,306.5,354.5,302.5,355.0,298.5,355.5,294.5,355.0" stroke="#9ce0f" stroke-width="2" fill="none" />
<polyline points="294.0,358.0,298.5,359.5,302.5,358.5,306.5,359.5,310.5,358.5,311.0,358.5,309.0,362.5" stroke="#5a8d57" stroke-width="2" fill="none" />
<polyline points="314.5,346.0,310.5,347.0,306.0,347.5,302.0,347.0,298.0,348.0,294.0,349.0" stroke="#4b724e" stroke-width="2" fill="none" />
<polyline points="304.5,335.0,303.0,331.0,313.5,328.0,313.0,328.5,309.0,330.5,305.0,331.5" stroke="#74834d" stroke-width="2" fill="none" />
<polyline points="307.5,328.5,303.5,326.5,300.0,325.5,296.5,324.5" stroke="#6f6f87" stroke-width="2" fill="none" />
<polyline points="295.5,324.0,299.0,322.0,303.0,322.5,307.5,324.0" stroke="#505fea" stroke-width="2" fill="none" />
<polyline points="320.5,326.5,321.5,324.5,324.0,320.5,323.5,316.0,323.0,312.5,322.5,308.5,322.0,304.5" stroke="#c06da4" stroke-width="2" fill="none" />
<polyline points="338.5,281.5,338.0,277.0" stroke="#bf9c7d" stroke-width="2" fill="none" />
<polyline points="333.5,271.5,334.5,273.5,337.0,269.5,337.0,265.0,333.5,265.0" stroke="#a6c463" stroke-width="2" fill="none" />
<polyline points="327.0,268.0,331.0,269.5,335.0,270.0,329.5,271.0,326.5,271.5,328.5,273.0" stroke="#48c278" stroke-width="2" fill="none" />
<polyline points="325.0,275.0,321.0,273.5" stroke="#9757f5" stroke-width="2" fill="none" />
<polyline points="323.5,270.0,326.0,274.0" stroke="#4c279" stroke-width="2" fill="none" />
<polyline points="323.5,268.5,327.5,274.5,332.0,275.0,335.5,273.5,334.5,271.5" stroke="#7d9c67" stroke-width="2" fill="none" />
<polyline points="323.0,267.5,322.5,271.5,323.5,276.0,330.5,278.0,334.5,279.0,338.5,278.5,342.5,277.0,349.0,278.5" stroke="#4b9c6b" stroke-width="2" fill="none" />
<polyline points="361.5,281.5,362.0,280.0,362.5,275.5,363.0,271.5,363.0,268.0,363.5,264.0" stroke="#59276a" stroke-width="2" fill="none" />
<polyline points="365.0,262.0,364.5,266.0,364.0,270.5,363.5,275.5,363.5,279.5,363.5,284.0,364.0,288.5,363.5,293.5,363.5,298.0,363.5,302.0,363.5,306.0,363.5,309.5,364.0,313.5" stroke="#c438f1" stroke-width="2" fill="none" />
<polyline points="345.0,254.5,341.0,254.5,336.5,255.0,332.0,255.5" stroke="#cf383" stroke-width="2" fill="none" />
<polyline points="335.0,254.0,328.5,257.5,326.0,262.5,321.5,266.0,319.5,270.0,319.0,274.0,318.5,275.5,322.5,278.0" stroke="#1a6857" stroke-width="2" fill="none" />
<polyline points="327.5,258.0,331.5,254.5,335.0,253.0,339.0,252.0,342.5,251.0,346.5,248.0,351.0,245.5" stroke="#a3d852" stroke-width="2" fill="none" />
<polyline points="353.5,241.5,350.0,245.5,344.5,250.0,340.5,254.0" stroke="#6d46cf" stroke-width="2" fill="none" />
<polyline points="346.5,239.5,346.0,235.5,345.0,231.5,344.0,227.5,343.5,223.5,342.5,219.5,342.0,216.0,340.5,212.0,336.5,205.5" stroke="#efc2e4" stroke-width="2" fill="none" />
<polyline points="335.5,204.0,339.0,201.5,343.0,198.0,346.5,196.0,350.0,194.0,353.5,191.5,357.5,189.5,361.5,187.0,365.5,185.5,369.0,184.5,373.5,183.0,377.5,182.0,381.5,180.5,386.0,177.5,390.5,175.0,395.0,172.5,399.0,170.5,403.5,168.5,407.5,167.5,404.0,171.0,401.5,175.0,398.5,179.0,394.5,183.0,388.5,187.0,383.0,189.5,387.0,188.0,390.5,185.5,394.0,182.5,398.0,179.0,401.5,175.0" stroke="#56882d" stroke-width="2" fill="none" />
<polyline points="402.0,165.0,405.0,158.5,404.0,162.5,404.0,167.0,397.5,171.0,390.0,175.0,383.5,179.0" stroke="#e28197" stroke-width="2" fill="none" />
<polyline points="372.5,183.0,363.0,187.0,356.5,191.0,350.0,195.5,342.0,199.5,337.0,203.0,337.0,206.5,342.0,209.0,346.0,213.0,351.5,213.5" stroke="#e5bf5" stroke-width="2" fill="none" />
<polyline points="356.5,206.0,352.5,200.5" stroke="#22bad9" stroke-width="2" fill="none" />
<polyline points="352.0,199.5,355.5,203.0,357.0,207.5" stroke="#5de6d" stroke-width="2" fill="none" />
<polyline points="362.0,203.5,358.5,195.5" stroke="#eb5fa6" stroke-width="2" fill="none" />
<polyline points="356.5,193.0,357.0,197.0,358.5,200.5,360.5,204.5,361.0,208.0" stroke="#c29891" stroke-width="2" fill="none" />
<polyline points="347.0,205.5,343.0,201.0" stroke="#9ceb53" stroke-width="2" fill="none" />
<polyline points="341.0,203.5,344.5,206.0,348.5,209.0,352.5,211.0,354.0,208.5" stroke="#b5e4de" stroke-width="2" fill="none" />
<polyline points="344.0,211.0,340.5,208.5" stroke="#fa2913" stroke-width="2" fill="none" />
<polyline points="339.0,208.5,343.0,216.5" stroke="#20e8e" stroke-width="2" fill="none" />
<polyline points="341.0,205.5,345.5,208.5,349.5,212.5,353.5,217.5,357.0,225.0" stroke="#f6b8f1" stroke-width="2" fill="none" />
<polyline points="370.5,232.0,371.0,236.0,371.5,240.0,371.0,244.5" stroke="#50a25a" stroke-width="2" fill="none" />
<polyline points="369.5,249.0,370.0,253.0,370.5,257.0,372.5,261.0,373.0,265.0,373.5,268.5,372.0,272.5,374.0,273.5,373.0,276.5,373.0,280.5,373.5,284.0" stroke="#5b8ae5" stroke-width="2" fill="none" />
<polyline points="364.5,249.5,364.5,245.5" stroke="#8191f1" stroke-width="2" fill="none" />
<polyline points="351.5,213.0,348.0,209.0,343.5,205.0" stroke="#8b2373" stroke-width="2" fill="none" />
<polyline points="339.5,201.0,342.0,205.5,347.0,209.5,350.5,213.5,353.5,218.0,355.5,222.5,358.0,227.5,360.0,231.5,361.5,235.5,362.5,239.5,363.0,243.5,363.5,247.5" stroke="#6e1ff7" stroke-width="2" fill="none" />
<polyline points="363.0,194.5,360.5,190.5" stroke="#1adfaf" stroke-width="2" fill="none" />
<polyline points="360.5,189.5,364.5,194.5,369.0,194.0,372.5,193.0,376.5,191.5" stroke="#ba661e" stroke-width="2" fill="none" />
<polyline points="394.5,153.5,390.5,159.5,386.5,166.5,382.5,173.5,381.0,177.0,383.5,173.5,385.5,169.0,387.5,165.5,389.5,161.5,392.0,157.5,395.0,153.5" stroke="#752d5" stroke-width="2" fill="none" />
<polyline points="403.5,157.5,399.5,161.5,396.0,165.5,391.5,169.0,388.0,173.0,387.5,174.0,392.0,170.5,396.0,166.5,400.0,162.0,404.0,158.0" stroke="#1743e1" stroke-width="2" fill="none" />
<polyline points="397.0,122.5,392.0,127.0,387.0,131.0,381.5,134.5,383.0,132.5,386.5,129.5,390.5,126.0,395.0,122.5" stroke="#f12b5" stroke-width="2" fill="none" />
<polyline points="395.5,121.5,390.5,125.5,385.0,129.0,380.0,133.0,383.0,129.0,387.0,126.0,391.0,123.0,395.5,120.5" stroke="#25e8e6" stroke-width="2" fill="none" />
<polyline points="414.0,114.5,418.0,118.5,420.0,122.5,421.0,126.5,422.0,131.0,422.0,135.0,421.5,138.5,420.0,142.5,419.5,146.5,418.5,150.5,417.5,154.5,415.5,158.5,413.5,162.5,412.5,166.5,411.0,170.5,409.5,174.0,407.0,178.5,404.0,182.5,400.0,186.5,395.0,190.5,391.5,194.5,387.5,198.5,383.0,202.5,377.5,206.5,372.5,210.5,366.0,214.5,369.5,212.0,373.5,208.5,378.0,205.0,382.0,201.5,386.0,198.0,389.5,194.0,393.5,190.5,397.5,187.0,401.5,184.5,405.5,179.0,410.0,170.5,414.0,159.5" stroke="#fa9399" stroke-width="2" fill="none" />
<polyline points="367.5,132.5,368.5,131.0,368.5,127.0" stroke="#3253bf" stroke-width="2" fill="none" />
<polyline points="336.5,154.0,332.5,156.0,328.5,158.5,324.5,161.0,320.5,162.5,316.5,165.0,312.5,168.0,308.0,170.5,303.5,173.5,299.5,177.0,295.5,180.0,291.0,183.0,286.5,186.5,282.5,190.0,279.0,193.5,275.5,196.5,271.5,200.5,271.0,198.0,274.0,195.0,272.5,200.5,276.0,196.5,281.0,193.0,285.5,188.5,289.5,185.5,294.0,181.0,292.0,177.5,284.0,176.0,281.5,175.0,277.5,177.0,273.5,175.0,269.0,175.5,265.5,174.0" stroke="#d39c93" stroke-width="2" fill="none" />
<polyline points="260.0,165.5,268.0,162.0,263.5,163.0,259.5,165.0,256.0,164.0,252.0,161.0" stroke="#324b2" stroke-width="2" fill="none" />
<polyline points="252.5,162.0,257.5,166.0" stroke="#f681a9" stroke-width="2" fill="none" />
<polyline points="269.0,179.0,264.5,180.5,260.5,183.0,257.0,186.0,255.5,183.0,252.0,187.5,248.5,189.0,244.5,193.5,247.0,192.0,250.0,188.5,255.0,189.0,251.0,191.0,246.5,194.0,242.5,199.5" stroke="#ef94bd" stroke-width="2" fill="none" />
<polyline points="239.0,195.0,243.5,190.5" stroke="#608dea" stroke-width="2" fill="none" />
<polyline points="236.0,181.0,232.0,185.0,232.0,187.0,224.5,192.0,218.0,196.5,211.5,203.0,207.0,207.0,203.5,212.5,203.5,216.5,205.0,216.5,205.0,222.0,208.5,226.5" stroke="#9a49b1" stroke-width="2" fill="none" />
<polyline points="208.5,228.0,204.5,222.5" stroke="#fb2ed6" stroke-width="2" fill="none" />
<polyline points="211.5,217.0,213.5,221.0,215.0,227.5,218.5,231.0,217.0,234.5" stroke="#c1cdb3" stroke-width="2" fill="none" />
<polyline points="213.5,237.5,214.5,242.0,213.5,246.0,212.0,250.0,213.0,251.5,213.5,255.5,214.5,256.5" stroke="#8e8d58" stroke-width="2" fill="none" />
<polyline points="216.0,250.0,215.5,246.5,215.0,242.5,212.0,239.0,212.0,236.5" stroke="#868c51" stroke-width="2" fill="none" />
<polyline points="211.0,237.0,212.0,235.0,211.0,239.5,209.5,243.5,209.0,244.0" stroke="#2ed49b" stroke-width="2" fill="none" />
<polyline points="214.0,248.0,214.5,252.0,217.5,255.5" stroke="#2c7389" stroke-width="2" fill="none" />
<polyline points="212.5,255.5,209.5,250.5,207.0,249.0,208.0,245.0,209.0,241.0,210.0,237.0,211.5,232.5,210.0,237.0" stroke="#4de26" stroke-width="2" fill="none" />
<polyline points="198.5,235.5,194.5,241.5,190.5,244.5,186.5,246.5,191.0,243.0,195.5,239.0,197.5,235.0" stroke="#aee756" stroke-width="2" fill="none" />
<polyline points="191.0,238.5,188.0,234.5,187.0,230.5,188.0,227.0,189.5,223.0,192.0,219.5,192.0,220.0,187.5,229.0" stroke="#daace" stroke-width="2" fill="none" />
<polyline points="187.0,232.5,190.5,239.0" stroke="#425943" stroke-width="2" fill="none" />
<polyline points="186.0,242.5,190.0,242.0,194.0,238.5,197.5,233.5,195.0,237.0,191.0,241.0,186.5,244.0,186.0,249.5,184.0,253.5,184.5,257.5,184.5,262.0,185.0,266.0,186.0,270.0,187.0,272.0" stroke="#295645" stroke-width="2" fill="none" />
<polyline points="188.0,269.5,187.0,265.0,186.5,260.5,186.5,256.5,185.0,253.5" stroke="#a5125f" stroke-width="2" fill="none" />
<polyline points="184.5,252.0,188.5,249.5,193.0,250.5,194.0,255.0,194.5,259.0,198.0,263.0,204.5,266.5" stroke="#2dcd35" stroke-width="2" fill="none" />
<polyline points="206.5,264.0,203.0,261.0,199.0,257.0" stroke="#b89222" stroke-width="2" fill="none" />
<polyline points="205.0,250.5,206.5,251.5" stroke="#54ac89" stroke-width="2" fill="none" />
<polyline points="206.5,251.0,210.0,255.5,213.5,258.0" stroke="#dc603c" stroke-width="2" fill="none" />
<polyline points="203.5,266.5,199.5,266.0,195.5,261.0,195.5,253.5,191.5,250.0" stroke="#764726" stroke-width="2" fill="none" />
<polyline points="189.5,253.5,194.0,253.0,196.0,256.5,197.5,260.0,204.0,264.0" stroke="#3bceb" stroke-width="2" fill="none" />
<polyline points="224.0,272.0,220.5,276.0,224.0,272.0,228.0,271.0" stroke="#439e8a" stroke-width="2" fill="none" />
<polyline points="220.0,306.5,218.5,310.0,217.5,314.0,217.5,318.5,217.0,322.5,217.0,326.5,217.0,330.5,217.0,334.5,217.5,338.5,217.5,342.5,218.5,347.0,218.0,351.0,218.0,355.0,218.0,359.0" stroke="#7e6685" stroke-width="2" fill="none" />
<polyline points="252.0,382.0,253.5,384.5,258.0,385.0,262.0,385.0,266.0,385.0" stroke="#771865" stroke-width="2" fill="none" />
<polyline points="268.0,388.5,263.5,389.5,259.5,389.5,255.5,390.0,251.5,390.0,247.5,390.5,243.5,394.5,245.5,391.0" stroke="#cc9bf9" stroke-width="2" fill="none" />
<polyline points="269.5,352.0,273.5,353.0,277.5,355.0" stroke="#606ee5" stroke-width="2" fill="none" />
<polyline points="283.5,351.0,279.5,352.0,276.0,351.5,272.5,350.5,268.5,351.0" stroke="#e39e9e" stroke-width="2" fill="none" />
<polyline points="222.0,369.5,221.5,365.5,221.0,361.5,220.5,357.0,220.5,352.5,220.5,348.0,224.5,343.5,223.5,340.0,222.5,334.5,222.0,330.0,220.5,326.0,220.5,322.5,219.5,319.0,219.5,315.5,219.0,311.5,219.0,307.5" stroke="#917879" stroke-width="2" fill="none" />
<polyline points="184.0,305.5,179.5,300.0" stroke="#1dbef5" stroke-width="2" fill="none" />
<polyline points="176.5,300.5,177.0,304.5,179.5,306.5" stroke="#9258fe" stroke-width="2" fill="none" />
<polyline points="179.5,308.0,175.5,305.0" stroke="#3aaee3" stroke-width="2" fill="none" />
<polyline points="176.0,301.0,178.5,301.5,181.0,305.0,184.0,309.0,181.0,311.0,182.5,312.5" stroke="#32d9" stroke-width="2" fill="none" />
<polyline points="174.5,316.0,170.0,317.5,169.5,322.5,168.0,321.0,164.5,326.5,161.0,332.5,156.0,337.5,152.0,339.5,147.5,337.0,145.0,344.0,142.5,340.5,141.0,336.0,139.5,332.0,138.5,328.0,138.0,324.0,136.5,320.0,135.5,316.0,134.5,312.0,133.0,307.5,131.5,304.0,130.5,300.0,133.5,299.0,135.0,295.0,139.0,291.0,140.5,287.0,141.5,283.0,139.0,281.5,135.5,281.5,132.0,281.0,138.5,282.0,140.5,278.0,145.5,274.5,142.0,271.5,146.0,267.5,151.5,263.5,156.0,256.5,159.5,252.5,161.5,248.5,163.5,244.5,160.5,244.0,156.5,249.0,152.5,250.0" stroke="#a7b47b" stroke-width="2" fill="none" />
<polyline points="149.5,250.0,145.5,250.5" stroke="#313ff6" stroke-width="2" fill="none" />
<polyline points="144.5,252.0,148.5,249.0,148.0,249.0,145.0,252.5,147.5,254.0,148.5,258.0" stroke="#dc3192" stroke-width="2" fill="none" />
<polyline points="149.5,266.0,145.5,269.5,141.5,272.0" stroke="#67de91" stroke-width="2" fill="none" />
<polyline points="139.5,275.0,143.0,273.5,149.0,269.5,152.5,266.0" stroke="#25989e" stroke-width="2" fill="none" />
<polyline points="156.0,269.0,158.5,272.5" stroke="#4df258" stroke-width="2" fill="none" />
<polyline points="165.5,276.5,166.0,275.5,165.5,271.5,166.5,267.5,163.5,263.0,165.0,259.5,164.0,265.0" stroke="#e44d9" stroke-width="2" fill="none" />
<polyline points="163.0,259.0,164.5,260.0,162.5,264.0,160.5,268.0,160.0,271.5,159.0,275.5,160.5,279.0,159.0,284.0" stroke="#f516cf" stroke-width="2" fill="none" />
<polyline points="159.5,285.0,155.5,282.0" stroke="#a87251" stroke-width="2" fill="none" />
<polyline points="152.0,283.5,156.5,289.0,160.5,291.0" stroke="#55479a" stroke-width="2" fill="none" />
<polyline points="160.0,293.0,156.5,291.0,152.5,289.0" stroke="#833874" stroke-width="2" fill="none" />
<polyline points="151.5,292.0,155.5,294.5,159.5,296.0,163.5,295.5,167.5,293.0,171.0,289.0,171.0,286.5" stroke="#9e87d3" stroke-width="2" fill="none" />
<polyline points="173.0,292.0,178.5,292.5,176.0,296.5,174.0,300.5,173.5,304.5,171.5,308.5,167.5,308.0" stroke="#45168d" stroke-width="2" fill="none" />
<polyline points="173.5,310.5,171.5,314.5,168.0,316.5,171.5,314.0,174.5,315.0" stroke="#78327d" stroke-width="2" fill="none" />
<polyline points="161.0,313.5,159.5,309.5,158.5,308.5" stroke="#5aaabc" stroke-width="2" fill="none" />
<polyline points="157.5,312.0,161.5,314.5" stroke="#817bc" stroke-width="2" fill="none" />
<polyline points="156.0,318.0,155.5,314.0,155.0,313.0" stroke="#2f13bb" stroke-width="2" fill="none" />
<polyline points="163.5,301.5,163.0,297.5,168.5,292.5,172.0,289.0,171.0,285.0,168.5,289.0,164.5,291.5,162.5,290.0,165.0,286.0,169.5,281.0,174.0,277.0,174.5,279.0,173.0,278.0,169.0,281.5,166.5,282.0,163.0,284.0,160.5,286.5,163.0,285.0,161.5,281.0,163.0,277.0,161.5,276.0,162.5,271.5,163.5,267.5,167.0,264.0,167.5,260.5,167.5,257.0,170.0,253.0,173.5,249.0,175.0,245.0,175.0,240.5,174.5,236.0,178.5,232.5,175.0,235.5" stroke="#87c24b" stroke-width="2" fill="none" />
<polyline points="177.5,233.5,176.0,237.5,175.5,241.5,176.5,243.5,176.5,247.5,176.5,251.5,177.5,256.0,179.0,260.0,181.5,264.5" stroke="#c11dd" stroke-width="2" fill="none" />
<polyline points="181.5,263.0,177.5,256.0" stroke="#d95ecd" stroke-width="2" fill="none" />
<polyline points="175.5,255.0,179.5,262.0" stroke="#93a979" stroke-width="2" fill="none" />
<polyline points="178.5,260.0,181.0,264.0" stroke="#5e235" stroke-width="2" fill="none" />
<polyline points="177.5,262.5,178.0,259.0" stroke="#19f678" stroke-width="2" fill="none" />
<polyline points="175.5,264.0,176.0,260.0,175.5,256.5,174.5,252.5" stroke="#121a33" stroke-width="2" fill="none" />
<polyline points="169.0,255.0,172.5,249.5,171.0,253.5,170.0,257.5,170.0,262.0,169.5,266.5,169.5,271.0,169.5,275.0,167.0,279.5,168.5,280.5" stroke="#5c13f3" stroke-width="2" fill="none" />
<polyline points="173.0,278.5,170.5,283.0,167.5,286.5,166.0,289.0" stroke="#50916f" stroke-width="2" fill="none" />
<polyline points="171.0,292.5,170.0,296.5,168.5,300.5,169.0,304.5,166.5,308.5,166.5,312.5,166.0,314.5,163.5,318.0,170.0,321.5,168.5,324.5,166.0,328.0,162.5,332.5,160.0,337.0,159.0,343.0,154.0,346.5,151.5,350.5,152.5,353.0,149.5,355.5,147.0,359.0,145.5,354.0,147.5,351.0,152.0,353.0,156.0,353.5,158.5,345.0,162.0,347.0,165.5,344.0,169.5,342.0" stroke="#d7f8cd" stroke-width="2" fill="none" />
<polyline points="167.5,358.5,164.0,362.5,166.5,359.5" stroke="#f4ba90" stroke-width="2" fill="none" />
<polyline points="135.5,357.0,131.0,353.5" stroke="#4c9f" stroke-width="2" fill="none" />
<polyline points="131.5,352.5,132.0,358.5,135.5,362.5,137.0,368.5" stroke="#e5cedd" stroke-width="2" fill="none" />
<polyline points="131.0,375.0,127.0,367.5,123.0,359.5" stroke="#2d4d65" stroke-width="2" fill="none" />
<polyline points="122.0,361.0,121.5,365.0,122.5,369.5,125.0,374.0,126.5,378.5,130.5,383.0,131.0,387.0,133.0,391.0,133.0,395.0,134.5,398.0" stroke="#28d9e" stroke-width="2" fill="none" />
<polyline points="129.0,376.5,124.5,369.5,120.0,364.0" stroke="#4d4d33" stroke-width="2" fill="none" />
<polyline points="122.5,364.5,124.5,368.5,126.5,373.0,128.5,377.0,131.0,382.0" stroke="#dabb3a" stroke-width="2" fill="none" />
<polyline points="135.0,368.0,133.0,364.5,126.5,360.5" stroke="#42d8d" stroke-width="2" fill="none" />
<polyline points="135.0,352.5,131.5,348.5,127.5,343.0" stroke="#8a46c3" stroke-width="2" fill="none" />
<polyline points="114.5,343.5,118.5,349.5,118.0,356.5,119.0,360.5,118.0,364.0,117.0,368.0,117.0,372.0,117.0,375.5,117.0,379.5,117.0,383.5,117.5,387.5,117.0,391.5,119.0,396.0,122.5,401.5,126.5,404.0" stroke="#8fa4ce" stroke-width="2" fill="none" />
<polyline points="104.0,380.0,104.5,376.5,105.0,372.5,105.5,369.0,107.0,365.0,108.5,361.0,108.5,357.5,109.5,353.0,107.5,346.5,107.0,342.5,108.5,343.0,108.5,344.0" stroke="#3fbaa" stroke-width="2" fill="none" />
<polyline points="100.5,341.5,104.5,337.5,108.5,332.5,113.0,326.5,117.0,318.5" stroke="#5e4728" stroke-width="2" fill="none" />
<polyline points="117.0,325.0,115.5,328.5,117.0,329.0" stroke="#ab44a3" stroke-width="2" fill="none" />
<polyline points="104.0,322.5,108.0,318.0,112.0,315.5,116.0,308.0,116.0,308.5,113.5,312.5,110.0,316.5,106.0,320.5,104.5,318.0,108.5,314.5,110.0,312.5,108.0,315.5,104.0,319.5,103.5,323.5,107.0,318.0,110.5,314.0,114.5,309.0" stroke="#1b4f33" stroke-width="2" fill="none" />
<polyline points="119.5,309.0,118.0,313.0,116.5,317.5,114.5,321.5,112.5,325.5,109.5,329.0,106.5,333.0,101.5,336.5,98.0,340.0" stroke="#6afbad" stroke-width="2" fill="none" />
<polyline points="93.0,330.0,89.0,332.5,84.5,337.5,80.0,343.0,75.5,347.5,71.0,352.5,67.5,357.0,63.5,361.0,68.5,360.0,72.0,355.5,75.0,351.5,78.0,347.5,80.5,343.5,83.0,339.5,87.5,336.0,87.5,332.0,87.5,328.0,88.0,324.0,89.5,320.0,91.0,315.5,91.5,311.5,91.0,307.5,98.5,303.5,103.5,299.5,107.5,296.0,108.5,291.5,113.0,287.0,116.5,283.0,115.5,277.0,114.5,272.5,113.5,272.0" stroke="#9f8a9e" stroke-width="2" fill="none" />
<polyline points="112.0,270.5,116.5,270.5,112.5,272.5,114.0,276.5,111.0,278.5,113.0,284.5,108.5,288.5,115.0,285.5,115.5,283.5" stroke="#c34cfd" stroke-width="2" fill="none" />
<polyline points="118.5,282.0,113.0,279.0,110.5,277.5,105.5,276.0,101.5,276.0,98.0,280.0,94.5,283.0,98.0,280.5,102.0,276.0,109.0,274.0,109.0,270.0,109.0,266.0,112.0,262.0,114.0,260.0,110.5,265.0" stroke="#7b4d7c" stroke-width="2" fill="none" />
<polyline points="113.5,265.0,116.5,260.0,114.5,264.5,117.5,268.5,126.5,274.0,130.5,277.5,134.5,276.0,137.5,272.0,141.5,267.5,145.5,264.0,149.5,260.0,153.0,262.0,157.0,258.5,163.5,252.0" stroke="#a615bc" stroke-width="2" fill="none" />
<polyline points="166.0,256.5,170.0,252.5,174.5,246.0" stroke="#1df23b" stroke-width="2" fill="none" />
<polyline points="169.5,239.5,168.5,243.5,167.5,247.0,166.0,250.5,165.0,248.5" stroke="#154b76" stroke-width="2" fill="none" />
<polyline points="158.0,250.0,157.0,254.0,152.0,252.0,156.0,253.5" stroke="#a6e75" stroke-width="2" fill="none" />
<polyline points="164.0,239.5,168.0,235.5,171.5,232.5,175.5,229.0,179.0,229.5" stroke="#34dd18" stroke-width="2" fill="none" />
<polyline points="176.0,228.0,171.5,232.0,167.5,236.0,164.0,240.0,162.0,244.0,158.5,248.0,153.5,251.0,151.0,254.5,154.0,256.0,152.5,258.5,149.0,263.0,145.5,266.5,140.5,270.5,137.5,274.5,130.5,280.5,133.5,287.5,130.5,291.5,128.0,295.5,127.0,301.0,129.5,305.0,128.5,309.0,126.0,312.0,125.5,316.0,125.5,320.5,125.5,324.5,126.0,329.0,125.0,332.5,125.0,337.5,127.0,339.5,128.0,343.5,131.0,347.5,134.0,351.5,138.0,355.0,138.0,359.0,138.5,364.0,141.5,368.0,143.0,368.0,144.5,371.5,146.0,376.0,147.0,380.0,145.0,384.0,147.0,388.0,146.5,392.5,148.5,396.5,150.0,396.5,151.0,401.0,150.5,404.0,153.0,404.5,156.0,408.5,157.5,412.5,159.5,416.5,157.5,421.0,152.5,422.5" stroke="#abb121" stroke-width="2" fill="none" />
<polyline points="92.5,419.5,91.0,423.5,87.5,427.5,89.5,424.5" stroke="#2fdb4" stroke-width="2" fill="none" />
<polyline points="87.0,423.0,86.5,425.0,88.5,421.0,92.5,417.5" stroke="#4b78aa" stroke-width="2" fill="none" />
<polyline points="80.5,381.5,76.5,388.5,72.5,392.0,68.5,395.5,64.5,398.5,60.5,401.0,62.5,397.5,66.5,393.5,71.0,389.5,75.5,385.0,78.0,381.0,78.5,381.5,74.0,387.5,69.5,390.5,65.5,394.5,61.5,398.0,57.5,402.5,64.0,398.5,69.5,394.0,73.5,390.0,76.5,386.0,79.0,382.0,82.0,378.5,82.0,375.0,83.0,369.5,86.5,366.0,88.0,361.5,89.5,357.5,87.5,357.0,91.5,356.0,94.5,352.0,96.5,348.0,99.0,348.0,95.0,342.5,92.5,348.0,93.5,344.0,95.5,340.5,96.5,336.5,96.5,333.0,96.5,329.0,96.0,325.0,96.0,321.0,96.5,316.5,96.0,312.0,100.5,308.0,103.5,304.0,106.5,302.5,104.0,303.0,100.0,308.5,95.5,312.0" stroke="#a0d423" stroke-width="2" fill="none" />
<polyline points="89.5,309.0,83.0,313.0,86.5,310.5,90.5,309.0,95.5,306.5,100.0,304.5,104.0,300.5" stroke="#f6c8c0" stroke-width="2" fill="none" />
<polyline points="107.5,305.0,103.5,310.0,99.0,319.0,100.0,317.5,102.0,313.5,104.0,310.0,107.5,306.5,109.5,302.5" stroke="#91b25" stroke-width="2" fill="none" />
<polyline points="108.5,294.5,104.0,295.5,100.0,296.5,94.5,294.0,90.5,295.5,86.5,296.0,82.0,297.5,88.5,294.5" stroke="#ca7dd" stroke-width="2" fill="none" />
<polyline points="86.0,293.5,79.5,297.5,82.5,295.0,87.0,293.5,91.0,292.5,95.0,292.5,99.0,290.5,103.0,291.0,107.0,289.5,111.5,287.0" stroke="#2b26ea" stroke-width="2" fill="none" />
<polyline points="110.0,291.0,106.5,292.0,102.5,293.0,98.0,295.0,103.0,292.5" stroke="#a48172" stroke-width="2" fill="none" />
<polyline points="105.0,294.5,100.0,298.5,98.0,302.5,91.5,305.0,96.0,302.5,100.0,302.0" stroke="#71154a" stroke-width="2" fill="none" />
<polyline points="92.5,305.5,88.0,308.0,84.0,309.5,80.0,312.0,77.5,310.0,77.5,306.0" stroke="#28751" stroke-width="2" fill="none" />
<polyline points="74.5,306.0,74.5,306.0,75.0,309.5,79.0,313.5,76.0,318.0,68.5,322.0,71.5,320.5,76.0,318.0,80.0,316.0" stroke="#c1c77e" stroke-width="2" fill="none" />
<polyline points="78.0,314.5,74.0,310.5" stroke="#46a90" stroke-width="2" fill="none" />
<polyline points="89.0,323.5,93.0,323.5,90.5,327.5,93.5,326.0,91.0,330.0,86.5,335.5,83.0,339.0,79.5,343.0,76.5,347.0,74.0,351.0,70.5,355.0,66.5,359.0,64.0,360.5,64.0,364.0,67.5,362.0,71.5,358.0,75.5,353.5,79.0,348.0,83.0,343.0,86.5,339.0,90.0,340.0,89.5,344.0,89.5,348.0,88.5,351.5,85.0,355.5,82.0,359.5,80.0,363.5,78.0,368.0,78.0,372.0,83.0,375.0,83.5,370.5,87.5,362.0,92.0,355.0,96.0,348.5" stroke="#5abe1" stroke-width="2" fill="none" />
<polyline points="96.0,351.5,92.0,357.5" stroke="#d01b38" stroke-width="2" fill="none" />
<polyline points="97.0,355.5,97.0,359.5,96.0,364.0,95.0,368.0,93.5,372.0,92.5,376.5,89.0,380.5,88.0,385.5,86.5,389.0,87.5,393.0,87.5,397.0,89.5,401.0,93.0,404.5,91.0,407.5,92.5,408.5,97.0,410.5,101.0,410.5,105.0,410.0,109.0,406.0,115.0,400.0" stroke="#addee6" stroke-width="2" fill="none" />
<polyline points="112.5,369.5,109.5,365.5,110.0,361.5" stroke="#7897c9" stroke-width="2" fill="none" />
<polyline points="106.0,354.0,106.0,357.5,104.5,361.5,103.5,365.5,102.5,370.0,102.0,374.0,102.5,377.5,103.0,381.0" stroke="#b43e29" stroke-width="2" fill="none" />
<polyline points="75.0,373.5,75.0,369.5,75.0,365.5,78.0,361.0,79.0,357.0,81.0,353.0,85.0,349.0,83.0,351.0,78.5,358.0,75.0,365.0" stroke="#822d49" stroke-width="2" fill="none" />
<polyline points="76.5,367.5,80.5,361.0,84.0,354.0" stroke="#913894" stroke-width="2" fill="none" />
<polyline points="111.5,352.5,111.5,356.5,112.5,361.0,111.0,362.0,110.5,361.5,112.5,368.0" stroke="#bf66a3" stroke-width="2" fill="none" />
<polyline points="114.0,360.5,112.5,356.5,112.0,352.5" stroke="#85f799" stroke-width="2" fill="none" />
<polyline points="142.0,348.5,138.0,346.5,137.5,342.5,135.5,338.5,135.0,334.5,134.0,330.5,133.0,326.5,131.5,322.0,130.5,318.0,129.5,313.5,129.0,309.0,126.0,301.0,129.0,298.5" stroke="#32722a" stroke-width="2" fill="none" />
<polyline points="126.5,298.5,130.5,295.5,133.5,293.5,137.5,289.0" stroke="#4b9b39" stroke-width="2" fill="none" />
<polyline points="137.5,292.0,133.5,296.0,130.0,298.5,126.0,301.0" stroke="#89f96b" stroke-width="2" fill="none" />
<polyline points="120.5,306.5,117.0,306.5,115.5,310.5,112.0,314.5,108.0,318.5,105.0,322.5,101.0,328.5" stroke="#5bfab" stroke-width="2" fill="none" />
<polyline points="98.5,321.0,102.5,313.0,106.5,308.0,111.0,304.0,115.0,300.5,119.0,297.0" stroke="#384a13" stroke-width="2" fill="none" />
<polyline points="121.5,285.5,120.5,290.0,119.5,294.0,117.5,298.0,113.0,301.5,109.0,305.5,105.5,309.0,103.0,312.5,101.5,316.5,99.5,320.0,100.0,324.5,101.0,328.5,102.0,330.0,98.0,334.5,95.0,341.0,99.0,339.0,103.0,336.5,107.0,331.5,111.0,326.0,115.5,318.0,119.0,309.5,122.0,302.0,124.5,303.5,125.0,310.0,132.0,313.5" stroke="#30268d" stroke-width="2" fill="none" />
<polyline points="128.0,310.0,128.5,314.0,126.5,317.0,127.5,321.0,130.0,325.0,129.0,329.0,128.5,333.0" stroke="#d675c7" stroke-width="2" fill="none" />
<polyline points="120.5,310.5,119.5,314.5,118.0,318.5,116.0,322.5,114.5,326.0,113.0,330.0,109.0,333.5,106.0,337.5,102.0,341.0,101.0,344.5,101.5,348.5,97.5,350.0,94.0,354.0,95.0,358.0,94.0,362.5,93.5,367.0,92.0,371.5,93.0,378.0,93.0,382.0,94.0,386.0" stroke="#e9b3f0" stroke-width="2" fill="none" />
<polyline points="22.5,367.0,22.0,371.0,20.5,375.0,22.0,368.5" stroke="#d8c0d4" stroke-width="2" fill="none" />
<polyline points="91.5,283.5,95.5,288.0,99.0,286.5,103.0,284.0,107.5,282.5,112.0,279.5" stroke="#57ebf4" stroke-width="2" fill="none" />
<polyline points="104.0,287.0,101.5,289.5" stroke="#61fe85" stroke-width="2" fill="none" />
<polyline points="93.0,285.5,91.5,281.5,92.0,278.0" stroke="#c2f515" stroke-width="2" fill="none" />
<polyline points="91.0,277.0,95.0,275.0,99.5,272.5,103.5,270.5,107.5,267.5,102.5,271.5,95.0,275.5,94.0,279.5,96.0,284.0,97.5,285.5,102.0,283.5,106.0,282.5,101.5,282.0,105.5,280.5,109.0,279.5,114.0,281.5,118.0,279.0,121.5,276.5,125.0,273.5" stroke="#9fe897" stroke-width="2" fill="none" />
<polyline points="129.0,279.0,132.5,278.5,136.5,277.0,140.5,275.0" stroke="#6e15b8" stroke-width="2" fill="none" />
<polyline points="149.0,276.0,151.0,278.0,153.5,279.5,156.0,283.0,163.0,289.0,167.0,284.0,171.5,284.0,173.5,284.5,177.5,285.5,177.5,288.0" stroke="#8724df" stroke-width="2" fill="none" />
<polyline points="177.5,291.0,175.0,292.0,171.0,292.5" stroke="#406c7c" stroke-width="2" fill="none" />
<polyline points="171.5,296.0,173.0,300.0,175.0,306.5,177.0,310.5,174.0,317.0" stroke="#6ac981" stroke-width="2" fill="none" />
<polyline points="159.5,297.5,155.5,294.5" stroke="#4b4413" stroke-width="2" fill="none" />
<polyline points="156.5,295.0,161.0,299.0" stroke="#549e6" stroke-width="2" fill="none" />
<polyline points="157.0,298.0,153.0,294.0" stroke="#3281ce" stroke-width="2" fill="none" />
<polyline points="157.5,281.0,157.0,280.0,153.0,279.0" stroke="#103bcb" stroke-width="2" fill="none" />
<polyline points="151.5,280.0,153.5,284.5,157.0,288.0,163.5,292.0" stroke="#bd6a33" stroke-width="2" fill="none" />
<polyline points="163.0,279.5,158.0,272.5,153.5,274.0,149.5,273.5" stroke="#bf518f" stroke-width="2" fill="none" />
<polyline points="149.5,271.5,153.5,267.5,157.5,262.0,161.5,256.5,157.5,258.5,155.5,262.5,152.5,266.5,149.0,270.5,149.0,274.5,148.5,278.5,149.0,283.0,150.0,287.0,153.0,290.5,157.5,292.0,161.0,298.0,161.5,302.0,157.5,305.0,156.5,310.0,158.5,314.5,157.0,317.0,158.0,320.0,156.5,321.5,160.5,319.5,162.5,318.0,164.5,313.5,168.5,310.5,172.5,306.0,174.5,299.0,178.0,294.0" stroke="#27f59d" stroke-width="2" fill="none" />
<polyline points="157.0,299.5,153.5,295.5,150.5,291.5,151.0,288.0,150.0,282.5,150.0,279.0,149.5,273.5,152.5,269.0,156.0,265.0,159.5,261.0,162.0,257.0,163.0,252.5,164.5,248.0,166.5,244.5,167.5,240.5,169.0,239.5,164.0,245.5,160.0,254.0,155.0,259.5,151.0,260.0,146.0,259.0,141.5,259.5,138.0,265.5,135.5,265.5,135.0,260.0,132.0,263.0,128.0,264.5,127.0,267.0,131.5,262.0,131.0,258.0,130.0,254.0,127.5,250.0,129.0,245.5,135.5,245.0,136.0,241.0,140.0,237.0,137.5,233.0,136.0,229.0,134.5,224.5,134.0,220.5,134.0,216.5,133.0,212.5,131.5,208.5,129.0,205.0,127.0,201.0,125.5,197.0,125.0,193.5,123.5,189.5,122.5,186.0,121.5,182.5,121.0,178.5,121.5,175.0,121.5,171.0,122.0,167.0,122.0,162.5,122.0,158.5,122.5,154.5,122.0,150.0,123.0,146.0,124.0,142.0,124.5,138.0,125.5,134.5,126.5,130.5,127.5,126.0,128.5,122.0,130.0,117.5,131.0,113.5,133.0,110.0,134.5,105.5,137.0,105.5,139.0,101.5,138.5,101.5,134.5,107.0" stroke="#a14db6" stroke-width="2" fill="none" />
<polyline points="127.0,123.0,131.0,113.0,135.0,105.5,134.5,110.0,134.0,114.0,133.5,118.0,132.0,122.0,132.0,125.5,133.0,129.5,132.5,133.0,131.0,137.0,128.5,140.5,129.0,144.5,130.0,145.5,128.0,149.5,129.0,152.5,129.0,155.0,126.0,159.0,129.0,157.0,127.5,149.5" stroke="#ae9c95" stroke-width="2" fill="none" />
<polyline points="128.5,153.0,132.5,154.5,131.0,156.0,132.0,160.0,134.5,161.5,131.0,165.5,127.0,169.5,130.5,165.5,133.5,160.5" stroke="#747b16" stroke-width="2" fill="none" />
<polyline points="139.0,168.5,137.0,173.5,133.5,176.0,130.0,176.0,134.0,172.0" stroke="#394fe8" stroke-width="2" fill="none" />
<polyline points="136.0,174.5,132.0,179.0,137.0,177.5,141.0,173.0,142.0,169.0" stroke="#7b2d54" stroke-width="2" fill="none" />
<polyline points="142.5,168.5,139.0,173.0,135.5,177.5,133.5,177.5" stroke="#2a55e2" stroke-width="2" fill="none" />
<polyline points="139.5,177.0,135.5,180.5,134.0,182.0,138.5,178.0,141.0,174.0" stroke="#9ee9eb" stroke-width="2" fill="none" />
<polyline points="145.5,170.5,146.0,174.5,142.0,178.5,140.0,183.0,136.0,187.0,135.0,191.0,136.5,193.5,137.5,194.5,140.0,194.0,141.5,195.0,145.5,200.0,149.5,200.0" stroke="#ecfbc3" stroke-width="2" fill="none" />
<polyline points="148.5,194.5,144.5,190.0" stroke="#8a6a17" stroke-width="2" fill="none" />
<polyline points="145.5,188.5,147.5,192.5,147.5,194.0" stroke="#54d460" stroke-width="2" fill="none" />
<polyline points="142.5,194.0,146.5,199.0" stroke="#5815" stroke-width="2" fill="none" />
<polyline points="147.0,199.0,145.0,195.0,144.0,190.5,142.5,188.5,141.5,184.0,145.5,180.0,145.5,177.5,146.5,176.5,142.0,180.0" stroke="#13679d" stroke-width="2" fill="none" />
<polyline points="143.5,184.0,148.5,185.5,149.5,189.5,151.5,191.0" stroke="#7ff819" stroke-width="2" fill="none" />
<polyline points="150.5,190.0,146.5,185.0" stroke="#42837" stroke-width="2" fill="none" />
<polyline points="145.5,187.5,149.5,193.0,153.5,194.0,159.0,187.0,162.5,182.0,166.5,177.5,170.5,173.0,175.0,169.5,179.0,165.5,183.5,162.0,187.5,158.5,191.5,155.0,195.0,151.0,199.0,148.0,203.0,144.0" stroke="#efe077" stroke-width="2" fill="none" />
<polyline points="206.0,146.0,210.0,150.0,215.0,154.0,219.0,158.5,221.5,160.5" stroke="#2be957" stroke-width="2" fill="none" />
<polyline points="228.0,163.5,224.5,157.5,229.0,154.5,225.5,158.0,221.0,157.5,217.0,154.5" stroke="#e332c7" stroke-width="2" fill="none" />
<polyline points="217.0,151.5,221.0,156.0,227.5,162.0" stroke="#115fe" stroke-width="2" fill="none" />
<polyline points="221.5,159.5,217.5,158.5,213.5,154.5,210.0,151.0,206.0,147.5" stroke="#355374" stroke-width="2" fill="none" />
<polyline points="214.5,141.0,218.5,144.5,222.0,148.0" stroke="#231c76" stroke-width="2" fill="none" />
<polyline points="218.5,144.5,214.5,140.5" stroke="#49355a" stroke-width="2" fill="none" />
<polyline points="202.0,136.0,198.0,132.0" stroke="#15f23e" stroke-width="2" fill="none" />
<polyline points="198.0,132.5,202.0,136.0,203.0,140.0,201.5,142.0,205.5,138.5,210.0,136.0,214.0,133.5,218.5,130.0,223.0,127.5" stroke="#8f2bd1" stroke-width="2" fill="none" />
<polyline points="224.0,126.0,218.0,130.0,212.0,134.0,207.0,138.0,208.5,138.5,212.5,135.5,216.5,132.5,221.0,129.5,224.5,127.0,228.0,125.0,232.0,122.0,236.0,120.0" stroke="#94611a" stroke-width="2" fill="none" />
<polyline points="238.0,119.0,231.0,123.0,225.0,126.5,219.0,130.5,213.0,135.0,208.5,138.5,204.0,142.0,199.5,146.0,194.5,150.0,190.5,154.0,185.5,158.0,182.0,161.5,177.0,165.5,172.5,169.5,169.0,173.5,165.5,178.0,161.5,182.0,158.0,186.0,153.0,191.5,150.5,195.5,152.0,199.0,150.5,203.0,148.0,207.5,146.0,211.5,145.5,215.0,143.0,219.5,141.0,223.5,140.0,227.5,139.5,231.5,140.0,235.5,140.0,239.5,139.5,241.5,132.5,244.5,130.0,250.5,131.5,253.5,133.5,257.5,138.0,256.5,140.5,257.5" stroke="#3fd43" stroke-width="2" fill="none" />
<polyline points="138.5,255.5,134.5,255.0" stroke="#c2ab71" stroke-width="2" fill="none" />
<polyline points="130.0,249.0,134.5,246.5,138.5,245.5,141.0,245.5" stroke="#8bdc80" stroke-width="2" fill="none" />
<polyline points="143.5,244.0,139.5,242.5,135.5,244.5" stroke="#21f7e" stroke-width="2" fill="none" />
<polyline points="141.5,240.0,137.5,233.0,133.5,223.0" stroke="#803027" stroke-width="2" fill="none" />
<polyline points="141.5,225.5,145.5,217.0" stroke="#ddcbbd" stroke-width="2" fill="none" />
<polyline points="147.5,213.5,148.5,211.5,150.0,207.0" stroke="#75e1a0" stroke-width="2" fill="none" />
<polyline points="145.5,200.5,143.5,196.5,138.0,194.0,138.0,190.5,135.0,186.5,137.5,182.5,141.5,179.0,144.5,175.0,141.5,178.0,137.5,182.0,133.5,187.0" stroke="#614f5b" stroke-width="2" fill="none" />
<polyline points="134.5,188.0,138.5,184.5,142.5,179.5" stroke="#c4f13b" stroke-width="2" fill="none" />
<polyline points="149.5,181.0,145.5,181.0,145.0,186.0,141.0,189.5,136.0,191.0" stroke="#41e5c2" stroke-width="2" fill="none" />
<polyline points="139.5,193.0,138.5,197.0,136.0,200.5" stroke="#ceac4f" stroke-width="2" fill="none" />
<polyline points="140.0,194.5,143.5,199.0,146.0,203.0,146.5,206.5,144.5,210.5,143.5,214.5,148.0,207.5,152.0,201.5" stroke="#fe3588" stroke-width="2" fill="none" />
<polyline points="129.5,206.0,125.5,198.5" stroke="#a75c3" stroke-width="2" fill="none" />
<polyline points="117.0,226.5,113.5,230.5,115.5,228.5" stroke="#c91060" stroke-width="2" fill="none" />
<polyline points="115.0,226.5,112.0,230.5,113.0,229.0,117.0,227.0" stroke="#a413c1" stroke-width="2" fill="none" />
<polyline points="125.0,251.5,120.0,255.5,116.5,259.0,113.0,263.0,116.0,258.0,119.5,254.5,123.5,252.0,127.5,247.0,131.0,245.5,135.0,241.5,140.5,240.0,147.5,236.5,151.5,231.5,156.0,228.0,160.5,224.0" stroke="#e7aa26" stroke-width="2" fill="none" />
<polyline points="160.5,223.0,156.5,227.0,152.0,230.0,149.0,235.0,145.5,239.0,142.5,246.0,142.0,250.0,142.0,254.0,141.0,258.5,140.0,262.5,134.5,264.5,132.0,268.5,131.5,268.5,136.5,268.5" stroke="#923564" stroke-width="2" fill="none" />
<polyline points="135.0,270.0,137.0,266.0,133.5,264.5" stroke="#f0159" stroke-width="2" fill="none" />
<polyline points="127.5,266.5,127.0,270.5,122.5,275.0,116.5,279.0,109.0,282.5,100.0,286.5,98.5,291.5,93.5,298.5,92.5,302.0,88.0,306.5,81.0,310.5,83.0,316.0,79.0,320.5,72.0,324.0,76.0,323.0,80.5,320.5,84.0,317.0,88.0,317.5" stroke="#cf6c63" stroke-width="2" fill="none" />
<polyline points="123.0,285.5,123.5,289.5,122.0,293.0,120.0,297.0,117.5,301.0,113.0,305.0,109.0,308.5,106.0,312.5,108.0,309.0,112.0,305.5,116.0,302.0,120.0,298.0,125.0,295.5,129.5,292.5,133.5,287.0,137.5,287.5,141.0,285.5" stroke="#3906f" stroke-width="2" fill="none" />
<polyline points="133.5,298.0,133.5,301.5" stroke="#292423" stroke-width="2" fill="none" />
<polyline points="122.0,271.0,118.0,268.5,114.5,266.5" stroke="#ae82c3" stroke-width="2" fill="none" />
<polyline points="166.0,232.0,163.0,235.5,160.5,239.5,161.0,239.0,165.0,233.5,166.5,229.5,171.0,229.0" stroke="#ad3197" stroke-width="2" fill="none" />
<polyline points="168.5,226.0,164.0,227.0" stroke="#6a7f" stroke-width="2" fill="none" />
<polyline points="168.0,222.0,167.5,226.0,170.5,226.5,171.0,226.5,175.0,225.5,179.0,225.5" stroke="#ff382" stroke-width="2" fill="none" />
<polyline points="188.0,224.5,192.0,218.0,191.0,220.0,188.5,224.0,188.0,228.0,188.0,232.0,189.5,236.0" stroke="#b79da" stroke-width="2" fill="none" />
<polyline points="182.0,219.5,181.5,223.0,182.5,218.5,181.5,214.5,181.5,213.0" stroke="#c22768" stroke-width="2" fill="none" />
<polyline points="181.0,214.5,181.5,218.5" stroke="#40e7f2" stroke-width="2" fill="none" />
<polyline points="176.0,213.5,171.5,215.5,169.0,217.5,173.5,213.5" stroke="#21926d" stroke-width="2" fill="none" />
<polyline points="182.5,207.0,186.5,209.0,191.0,211.0,190.5,215.0,187.0,216.5,185.0,219.0,187.0,218.0,190.5,211.0,191.5,208.5,195.0,204.0,199.0,205.5" stroke="#8882d6" stroke-width="2" fill="none" />
<polyline points="199.5,204.0,195.0,204.0" stroke="#bceb14" stroke-width="2" fill="none" />
<polyline points="192.5,201.0,196.5,201.5,200.5,203.0" stroke="#3ddc62" stroke-width="2" fill="none" />
<polyline points="204.5,208.5,208.5,204.5,212.5,202.0,215.0,198.5,219.0,195.5,222.5,193.5,226.5,191.0" stroke="#981ce3" stroke-width="2" fill="none" />
<polyline points="226.0,192.5,219.5,196.5,213.5,203.0,209.0,207.0,207.5,211.0,207.5,211.0,211.0,205.0,215.0,203.5,218.5,198.0,222.5,196.0,226.5,193.5,230.0,192.5" stroke="#3f4df8" stroke-width="2" fill="none" />
<polyline points="226.0,184.5,223.0,184.0,219.5,189.0" stroke="#dd58f8" stroke-width="2" fill="none" />
<polyline points="217.5,187.5,221.5,183.0" stroke="#e11d96" stroke-width="2" fill="none" />
<polyline points="223.5,179.5,219.0,183.5,216.5,187.5,214.0,191.5,210.0,195.5,207.5,200.0" stroke="#cfce53" stroke-width="2" fill="none" />
<polyline points="206.0,192.5,210.5,187.5,214.5,183.5,218.0,180.0,222.0,176.5,226.0,175.5,230.0,176.0" stroke="#c91c" stroke-width="2" fill="none" />
<polyline points="224.0,175.0,218.5,179.5,215.0,183.0,210.5,187.0,206.5,190.5,205.5,195.0,206.0,197.0,210.0,194.5,213.5,192.0,218.0,192.5,222.0,190.0,226.0,189.0,229.5,187.5,230.5,184.0,234.5,183.0" stroke="#226b5c" stroke-width="2" fill="none" />
<polyline points="237.5,177.5,239.0,177.0,241.0,173.0,237.5,175.0,233.5,174.0,229.5,174.0,226.0,174.0,221.5,175.0,217.5,177.5,213.0,182.0,209.0,186.5,205.0,191.0" stroke="#b6fec6" stroke-width="2" fill="none" />
<polyline points="203.5,200.5,199.5,199.0,196.0,197.0,192.0,196.0,190.0,197.0,186.0,200.5,182.0,206.0,181.0,208.0,182.5,205.0,186.5,200.5,189.0,200.5" stroke="#b26452" stroke-width="2" fill="none" />
<polyline points="186.0,205.5,190.0,204.5,194.0,203.5,201.5,202.5" stroke="#a4a45" stroke-width="2" fill="none" />
<polyline points="210.5,214.5,214.5,220.5" stroke="#c083ba" stroke-width="2" fill="none" />
<polyline points="215.0,194.0,211.0,196.0,219.0,192.0,219.5,188.5,222.0,184.0,226.5,184.0" stroke="#8bb050" stroke-width="2" fill="none" />
<polyline points="221.5,174.5,216.0,178.5,212.5,182.5,209.0,186.5,205.5,190.5,204.5,194.0,204.5,198.5" stroke="#8d2e88" stroke-width="2" fill="none" />
<polyline points="200.0,166.5,196.5,169.5,192.5,172.5,188.5,176.0,185.0,179.5,181.0,183.5,177.0,187.0,173.0,192.5,169.0,196.0,165.0,201.0,165.5,200.5,168.5,197.0,172.5,193.0,175.0,189.0,178.5,185.0,182.5,181.5,187.5,178.0,192.0,174.0,198.0,169.5,205.0,167.0,204.0,163.0" stroke="#30a684" stroke-width="2" fill="none" />
<polyline points="203.5,162.5,208.0,162.5" stroke="#ee5567" stroke-width="2" fill="none" />
<polyline points="235.0,141.5,238.5,145.5" stroke="#6c80d3" stroke-width="2" fill="none" />
<polyline points="241.5,145.0,246.0,141.0,249.0,139.0,254.5,135.0,260.5,130.5,258.5,131.0,255.0,133.5,251.0,136.5,247.0,140.0,242.5,143.0,239.0,145.5,235.0,141.5" stroke="#835799" stroke-width="2" fill="none" />
<polyline points="229.0,127.5,225.0,130.0,221.5,132.0,218.0,135.0,214.0,138.0,210.0,141.0,206.0,145.0,201.5,148.5,197.5,152.0,199.0,150.5,202.5,146.5,207.0,143.0,212.5,139.0,217.5,135.0,223.0,131.0,229.5,127.0" stroke="#d4d3f" stroke-width="2" fill="none" />
<polyline points="207.0,116.5,200.0,120.5,197.0,122.5,200.5,120.0,204.5,117.5" stroke="#fc9040" stroke-width="2" fill="none" />
<polyline points="197.0,109.0,194.0,111.5" stroke="#b857ee" stroke-width="2" fill="none" />
<polyline points="190.5,119.0,185.0,122.5,179.5,126.5,180.0,126.0,184.0,123.0,188.0,120.5" stroke="#568f3e" stroke-width="2" fill="none" />
<polyline points="189.5,120.5,185.5,122.5,181.0,126.0,179.5,127.5,185.5,123.5,191.5,119.5" stroke="#fbe38" stroke-width="2" fill="none" />
<polyline points="191.5,131.5,186.5,135.5,185.5,136.5,190.0,133.5" stroke="#22cffb" stroke-width="2" fill="none" />
<polyline points="156.5,127.0,151.5,131.0,147.0,135.0,150.5,132.0,154.5,129.5" stroke="#4713fe" stroke-width="2" fill="none" />
<polyline points="132.5,131.0,131.0,136.5,127.0,141.5" stroke="#c61420" stroke-width="2" fill="none" />
<polyline points="142.5,165.0,139.0,169.0,139.5,171.0,136.0,175.0,132.5,179.0,134.0,172.0" stroke="#5adc19" stroke-width="2" fill="none" />
<polyline points="156.0,77.0,152.5,83.5,154.5,80.0,156.0,76.0" stroke="#6ed74" stroke-width="2" fill="none" />
<polyline points="159.0,71.0,156.5,73.5,152.5,78.0,152.5,79.0,154.5,74.5,158.0,69.5,160.0,65.5" stroke="#8d7ffa" stroke-width="2" fill="none" />
<polyline points="161.5,65.5,160.0,69.0,160.5,65.0,165.5,62.0,169.5,62.5,173.5,61.0" stroke="#49abd" stroke-width="2" fill="none" />
<polyline points="207.5,51.5,211.5,49.5" stroke="#928f1a" stroke-width="2" fill="none" />
<polyline points="230.0,47.0,225.0,51.0,228.5,47.5,232.5,47.5,236.5,48.0,240.5,48.5,244.5,49.0,248.5,49.5,252.0,51.0,256.0,52.0,260.0,53.0,264.0,55.0,268.0,57.5,272.5,60.5,276.5,63.5,280.5,67.0,284.0,70.0,287.5,73.0,291.0,77.0,295.0,78.0,299.0,80.5,303.0,86.5,307.0,92.0,311.5,98.0,316.0,100.0,320.0,103.5,324.0,108.5,328.0,114.5,332.0,123.0,336.0,129.5,340.0,133.0,344.0,138.5,347.5,147.0,351.0,144.5,355.0,142.5,359.0,139.5,363.0,137.5,366.5,136.0,370.5,133.0,374.5,130.5,378.5,127.5,382.5,124.5,387.0,121.0,391.0,117.5,395.5,114.5,400.0,113.0,404.5,112.0,408.5,113.0,412.0,113.0,416.0,114.5,420.0,122.0" stroke="#125011" stroke-width="2" fill="none" />
<polyline points="300.5,134.5,296.0,137.5,292.0,140.0,289.5,142.0,295.0,138.0,299.5,134.5" stroke="#3e384a" stroke-width="2" fill="none" />
<polyline points="287.0,142.0,282.5,143.0" stroke="#f4f5f7" stroke-width="2" fill="none" />
<polyline points="259.5,131.0,255.0,135.5,250.0,139.5,245.0,143.5,240.0,147.5,234.5,152.0,230.0,155.5,224.5,159.5,220.0,163.5,222.0,161.5,226.0,157.5,229.5,154.5,234.0,152.0,238.0,148.0,242.0,145.5,246.0,142.5,250.0,139.0,254.0,136.0,258.0,133.5" stroke="#a41965" stroke-width="2" fill="none" />
<polyline points="237.5,99.5,231.0,103.5,225.0,104.5,221.0,107.5,225.5,104.0,229.5,104.5,233.0,101.5,237.0,99.0" stroke="#2e5bce" stroke-width="2" fill="none" />
<polyline points="235.5,98.5,232.0,101.0,237.0,97.0" stroke="#68dec3" stroke-width="2" fill="none" />
<polyline points="246.0,91.0,242.5,93.0,249.0,89.5" stroke="#76301f" stroke-width="2" fill="none" />
<polyline points="237.5,80.0,230.0,84.0,225.5,87.5,227.5,85.5,231.5,82.5,235.0,80.5" stroke="#3bb5ac" stroke-width="2" fill="none" />
<polyline points="264.0,85.0,255.0,89.5,248.0,94.0,242.0,98.0,236.0,102.0,230.5,106.0,224.0,110.0,218.5,114.0,213.0,117.5,207.0,121.5,202.5,125.0,198.0,129.5,193.5,134.0,189.0,138.0,184.5,142.0,180.5,145.5,177.0,149.5,174.0,153.5,169.5,157.0,166.0,161.0,161.0,165.5,157.5,169.0,154.0,173.5,156.0,170.5,159.5,166.5,163.0,163.5,167.0,159.5,171.5,155.5,175.5,151.5,179.5,147.5,183.5,143.5,187.5,139.5,192.0,135.5,195.5,132.0,199.5,128.5,203.0,125.0,207.0,121.5,211.5,119.0,215.5,116.0,219.5,113.0,223.5,110.0,227.5,107.5,232.0,105.5,236.0,102.5,240.0,99.0,244.0,96.0,248.0,93.5,252.0,91.5,256.0,89.0,260.0,86.5,264.0,85.0" stroke="#5b9085" stroke-width="2" fill="none" />
<polyline points="252.0,51.0,262.5,55.0,268.5,59.0,274.5,63.5,280.5,67.5,286.0,71.0,290.5,75.0,298.0,79.0,300.5,83.0,303.5,87.5,307.0,91.5,309.5,95.5,314.5,99.5,319.0,103.0,322.5,107.0,324.5,111.5,327.5,115.0,328.0,119.0,331.0,123.0,333.5,127.0,336.0,131.0,341.0,135.0,343.5,139.5,344.5,143.5,347.0,147.5" stroke="#d3986" stroke-width="2" fill="none" />
<polyline points="272.0,183.0,273.0,187.0,273.5,190.5,272.5,194.5" stroke="#558ec9" stroke-width="2" fill="none" />
<polyline points="268.0,186.5,262.0,190.5,257.5,194.5,254.5,198.5,250.0,202.5,251.0,198.5,254.5,194.0,258.0,190.5,261.5,187.5,265.5,185.0" stroke="#6deef3" stroke-width="2" fill="none" />
<polyline points="265.5,183.5,261.5,186.0,257.5,190.0,261.0,189.0,267.5,185.0" stroke="#6e9dd" stroke-width="2" fill="none" />
<polyline points="296.0,222.5,291.5,226.0,286.5,230.5,284.0,233.0,287.5,229.5,291.5,226.0,296.0,223.0" stroke="#be988d" stroke-width="2" fill="none" />
<polyline points="232.0,50.0,235.5,47.5" stroke="#ad4" stroke-width="2" fill="none" />
<polyline points="453.5,367.5,454.5,371.0,454.5,375.0,454.0,379.0,453.5,383.0,452.5,387.0,450.5,391.0,450.0,394.5,450.0,398.5,450.5,402.5,450.5,406.0,449.0,410.5,448.5,414.5,447.0,419.0,445.5,422.5,444.0,425.0" stroke="#2d31d0" stroke-width="2" fill="none" />
<polyline points="484.5,409.0,480.5,414.5,478.5,417.5,482.0,414.0,485.0,410.0,488.5,406.5" stroke="#81e6fc" stroke-width="2" fill="none" />
</svg>