<svg xmlns="http://www.w3.org/2000/svg" version="1.1"><polyline points="3.5,3.0,3.5,6.5,3.0,10.0,3.0,14.0,3.0,18.0,3.0,21.5,3.0,26.0,2.5,30.5,2.5,34.5,2.0,39.0,2.0,43.0,2.0,47.0,2.5,50.5,2.5,54.5,2.5,58.5,2.5,62.5,2.5,66.5,2.5,70.5,2.5,74.0,2.0,78.0,2.0,82.0,2.0,86.0,2.0,90.0,2.0,94.0,1.5,98.0,1.5,102.5,1.5,107.0,2.0,111.0,2.0,115.0,2.0,119.0,2.0,123.0,2.0,127.0,2.0,130.5,2.0,134.5,2.0,138.5,2.0,142.5,2.0,146.0,2.0,149.5,2.0,153.5,2.0,157.0,2.0,161.0,2.0,165.0,2.5,168.5,2.5,173.0,2.5,177.0,2.5,181.0,2.5,185.0,2.0,189.0,2.0,193.0,2.5,197.5,2.5,201.5,2.0,205.5,2.0,209.5,2.5,214.0,3.0,218.5,3.5,222.5,3.5,226.5,3.5,230.5,4.0,235.0,4.0,239.0,4.0,243.5,3.5,247.5,3.5,251.0,3.5,255.0,3.5,259.0,3.5,263.0,3.5,267.0,3.5,271.0,3.5,274.5,3.5,278.5,3.5,282.5,3.5,286.5,3.5,290.5,3.0,294.5,3.0,298.5,3.0,302.0,3.5,306.0,3.5,310.0,3.5,314.0,3.5,317.5,3.5,322.0,3.5,325.5,3.5,330.0,3.5,334.0,3.5,338.5,3.5,343.0,3.5,347.5" stroke="black" stroke-width="2" fill="none" />
<polyline points="20.5,368.5,20.5,370.0" stroke="black" stroke-width="2" fill="none" />
<polyline points="29.5,393.0,29.5,397.0" stroke="black" stroke-width="2" fill="none" />
<polyline points="25.5,416.0,26.0,415.5,27.5,420.0,26.5,424.0,26.0,428.5,25.5,433.0,25.0,437.0,25.0,441.0,26.5,444.0,26.0,448.0,26.0,451.5,26.5,455.0,26.5,459.5,26.5,463.0,27.5,467.0,28.5,470.0,29.5,472.5,26.5,477.0,28.5,480.5,29.5,483.5,30.0,487.5,30.5,491.5,32.0,495.0" stroke="black" stroke-width="2" fill="none" />
<polyline points="29.5,499.0,30.5,503.0,32.0,507.0,32.5,511.0,36.5,513.5,41.0,513.5,45.0,514.0,49.0,514.5,53.0,515.0,57.0,515.0,61.0,515.0" stroke="black" stroke-width="2" fill="none" />
<polyline points="64.5,512.5,67.0,509.0,66.0,507.0,65.5,503.5" stroke="black" stroke-width="2" fill="none" />
<polyline points="69.5,498.0,70.0,494.0,71.0,490.5,72.0,486.5,73.0,483.0,72.0,480.0" stroke="black" stroke-width="2" fill="none" />
<polyline points="63.5,472.5,67.5,470.5,63.5,472.5,62.5,476.5,61.5,480.5,61.5,484.5,62.0,489.0,62.5,493.0,63.0,497.5,62.0,501.5,61.0,506.0,60.5,510.0,61.0,513.5" stroke="black" stroke-width="2" fill="none" />
<polyline points="33.0,503.0,29.0,500.0" stroke="black" stroke-width="2" fill="none" />
<polyline points="18.5,498.5,17.5,502.5" stroke="black" stroke-width="2" fill="none" />
<polyline points="17.5,498.5,17.5,502.5,16.5,506.0,17.0,510.0" stroke="black" stroke-width="2" fill="none" />
<polyline points="19.0,513.0,23.0,513.5,27.0,513.0,31.0,513.0" stroke="black" stroke-width="2" fill="none" />
<polyline points="4.0,489.5,3.0,484.0,3.0,479.5,4.0,475.0" stroke="black" stroke-width="2" fill="none" />
<polyline points="35.5,472.5,34.0,468.0,34.5,464.0,34.0,460.0,34.0,456.0,33.5,452.5,33.0,448.5,33.5,445.0,33.0,441.0,33.0,437.0,33.0,432.5,33.0,428.5,32.0,424.0,31.5,420.0" stroke="black" stroke-width="2" fill="none" />
<polyline points="64.0,410.5,68.0,405.5,72.0,399.5,73.5,393.5" stroke="black" stroke-width="2" fill="none" />
<polyline points="76.0,398.0,73.5,398.5,70.5,406.0" stroke="black" stroke-width="2" fill="none" />
<polyline points="67.0,406.0,64.5,410.0,63.5,413.5,64.0,417.5,64.0,421.5,65.0,425.5,66.0,427.0,64.5,430.0" stroke="black" stroke-width="2" fill="none" />
<polyline points="66.0,432.5,70.0,428.0,67.0,431.5,66.5,435.5" stroke="black" stroke-width="2" fill="none" />
<polyline points="67.5,434.0,67.0,438.0,68.0,442.0,68.0,446.0,66.5,449.0,65.0,453.0,67.0,455.5" stroke="black" stroke-width="2" fill="none" />
<polyline points="68.0,459.5,68.5,463.5,69.5,469.5,69.5,473.5,69.5,477.5,69.5,481.0,69.5,485.0" stroke="black" stroke-width="2" fill="none" />
<polyline points="65.5,460.5,67.0,456.5,69.0,452.5,66.5,448.0" stroke="black" stroke-width="2" fill="none" />
<polyline points="71.5,455.0,71.0,459.5,71.0,463.0,74.0,468.0,74.0,472.5" stroke="black" stroke-width="2" fill="none" />
<polyline points="73.5,456.0,73.5,460.5,72.0,464.0,67.5,470.5,66.5,475.0,67.0,479.0,66.5,481.0,64.5,487.0,66.0,491.0" stroke="black" stroke-width="2" fill="none" />
<polyline points="98.0,490.5,98.0,494.5,98.5,498.5,100.0,503.0,102.0,507.0,104.5,506.5" stroke="black" stroke-width="2" fill="none" />
<polyline points="108.5,505.0,112.0,502.5,112.5,498.5,113.5,494.5" stroke="black" stroke-width="2" fill="none" />
<polyline points="118.5,493.0,119.0,494.5,120.0,498.5,120.0,503.0,119.5,507.0,120.0,511.0,123.0,514.0" stroke="black" stroke-width="2" fill="none" />
<polyline points="123.0,512.5,123.0,508.5" stroke="black" stroke-width="2" fill="none" />
<polyline points="127.0,504.5,131.0,510.5" stroke="black" stroke-width="2" fill="none" />
<polyline points="132.5,506.0,128.5,497.5" stroke="black" stroke-width="2" fill="none" />
<polyline points="128.5,494.0,124.5,488.5" stroke="black" stroke-width="2" fill="none" />
<polyline points="123.0,483.0,123.0,487.0,125.5,491.0,122.0,494.0,124.5,495.0,128.0,495.5,128.5,499.5,130.5,504.0,131.5,508.0,134.5,512.5" stroke="black" stroke-width="2" fill="none" />
<polyline points="146.5,508.5,142.5,505.5,138.0,502.5,138.0,490.5,137.5,487.0,134.0,482.5" stroke="black" stroke-width="2" fill="none" />
<polyline points="134.0,483.5,131.5,487.5,133.5,492.0,135.0,496.5,133.5,498.5,135.5,502.5,138.0,506.5,139.0,510.5" stroke="black" stroke-width="2" fill="none" />
<polyline points="147.0,507.0,143.5,501.5,139.5,494.5" stroke="black" stroke-width="2" fill="none" />
<polyline points="144.0,496.0,148.0,499.0,147.0,495.5,149.5,499.5,151.0,503.0,152.5,506.5" stroke="black" stroke-width="2" fill="none" />
<polyline points="157.5,497.0,159.5,499.0,162.0,503.5,163.5,507.5,168.5,508.5" stroke="black" stroke-width="2" fill="none" />
<polyline points="166.5,494.5,162.5,491.5" stroke="black" stroke-width="2" fill="none" />
<polyline points="160.0,491.5,163.0,495.5" stroke="black" stroke-width="2" fill="none" />
<polyline points="163.5,496.0,160.0,491.0,156.0,485.0" stroke="black" stroke-width="2" fill="none" />
<polyline points="155.0,491.0,148.5,485.0" stroke="black" stroke-width="2" fill="none" />
<polyline points="147.5,483.5,151.5,485.0,152.5,484.0,155.0,488.0,154.0,492.0,152.5,496.5,151.0,499.0,155.0,506.0,160.5,506.0,162.0,509.5,167.5,511.0,171.0,513.0,178.5,514.5,183.0,514.5,187.5,514.0,191.5,513.0,195.5,513.0,199.5,513.0,203.5,513.0,207.0,512.5,211.0,512.5,215.0,513.0,218.5,513.0,222.5,513.5,226.5,513.5,230.5,514.0,234.5,513.5,238.5,513.0,242.5,513.0,246.5,512.5,250.5,512.5,254.5,512.5,258.5,513.0,262.5,513.0,266.5,513.0,270.5,513.0,274.5,513.0,279.0,513.0,283.5,512.5,287.5,512.5,291.5,512.0,295.5,512.0,299.5,512.0,303.0,512.5,306.5,512.5,310.5,513.0,314.5,513.5,318.5,514.0,323.0,514.5,327.0,514.5,331.0,514.5,334.5,514.5,338.5,515.0,342.5,515.0,346.5,514.5,350.5,514.5,355.0,514.5,359.0,514.0,363.0,514.0,367.0,514.0,371.5,514.0,375.5,514.0,379.0,514.0,383.0,514.0" stroke="black" stroke-width="2" fill="none" />
<polyline points="424.0,495.0,421.0,491.5,420.0,487.5,420.0,484.0,420.0,480.0,419.5,476.5,416.0,472.5,411.5,470.5" stroke="black" stroke-width="2" fill="none" />
<polyline points="416.5,471.0,420.0,475.5,424.0,473.0,425.0,472.5" stroke="black" stroke-width="2" fill="none" />
<polyline points="429.5,479.5,433.5,478.0,436.0,471.0,437.0,467.0,437.5,463.5,438.0,459.5" stroke="black" stroke-width="2" fill="none" />
<polyline points="435.0,456.0,431.0,452.5" stroke="black" stroke-width="2" fill="none" />
<polyline points="430.0,452.0,429.5,448.0,430.5,444.5,431.0,440.5,431.5,436.5,433.5,432.0,432.0,434.5" stroke="black" stroke-width="2" fill="none" />
<polyline points="463.5,435.5,467.5,427.5,471.5,420.5" stroke="black" stroke-width="2" fill="none" />
<polyline points="474.0,410.5,478.0,405.5,482.0,403.0,486.5,398.0,490.5,396.0,494.5,390.0,499.0,387.5,503.0,386.5,507.0,384.5,511.0,384.0" stroke="black" stroke-width="2" fill="none" />
<polyline points="512.5,392.5,513.0,397.0,513.5,401.5,513.5,405.5,513.5,409.5,514.0,413.5,514.0,417.0,514.0,421.0,514.0,424.5,514.0,428.5,514.0,432.5,513.5,436.5,513.5,440.5,513.5,444.5,513.5,448.5,513.0,452.5,513.5,456.5" stroke="black" stroke-width="2" fill="none" />
<polyline points="512.0,505.0,512.0,509.0,512.0,512.5" stroke="black" stroke-width="2" fill="none" />
<polyline points="510.0,514.0,506.0,514.0,502.0,514.0" stroke="black" stroke-width="2" fill="none" />
<polyline points="483.5,410.0,486.5,406.5" stroke="black" stroke-width="2" fill="none" />
<polyline points="496.0,387.0,492.5,391.0,490.0,395.0,485.0,399.0,481.0,403.0,476.0,407.5,475.0,411.5,473.5,415.5,470.5,420.0,469.5,424.0,468.0,428.5,466.0,432.5,464.0,436.5,461.5,440.0,459.0,443.5,457.0,447.5,455.5,451.0,454.5,455.0,454.0,459.5,452.5,463.0,451.0,467.0,448.5,471.0,446.5,476.5,443.5,480.5,438.5,484.0,434.0,487.0,430.5,491.5,425.0,494.5,429.0,492.5,433.5,488.0,437.5,485.5,441.5,482.0,446.0,477.5,450.0,472.5,449.5,468.5,453.5,463.0" stroke="black" stroke-width="2" fill="none" />
<polyline points="376.0,460.5,372.0,465.5,374.0,462.5,371.0,458.5,370.5,452.5,371.0,448.5,372.0,444.5,372.5,440.5,372.5,436.5,373.0,432.0,373.0,428.0,373.5,424.0,374.0,419.5,374.5,415.5,375.0,411.5,375.5,407.5,375.5,403.5,373.5,402.0,376.0,398.0,376.5,396.0,376.5,392.0,375.5,389.0,377.0,385.0,377.5,381.5,378.0,378.0,378.0,374.5,378.0,370.5,378.0,366.5,377.0,362.5,377.0,358.0,376.5,353.5,376.0,349.5,375.5,345.5,374.5,341.0,374.0,337.0,373.5,333.0,372.5,329.0,372.5,325.0,371.5,321.0,370.5,317.0,369.5,313.0,369.0,309.0,369.0,305.0,368.0,301.5,367.5,297.0,367.5,293.0,367.0,289.0,367.0,285.0,367.0,281.0,366.5,277.0,366.5,273.0,366.0,268.5,366.0,266.0,368.5,265.0,370.5,261.5,369.5,257.5,369.5,253.5,369.5,249.5,369.5,245.5,369.5,241.5,369.0,237.5,369.0,233.5,369.0,230.0,368.5,226.0,369.5,222.0,371.0,218.5,371.5,214.5,368.5,221.0" stroke="black" stroke-width="2" fill="none" />
<polyline points="361.5,226.0,362.5,228.0,363.5,232.0,364.0,235.5,365.0,235.5,365.5,239.0,366.0,243.5,363.5,247.5" stroke="black" stroke-width="2" fill="none" />
<polyline points="373.0,249.0,374.0,253.0,376.5,257.0,376.5,261.5,377.0,265.5,377.0,269.5,377.5,273.5,380.0,277.5,378.0,281.0" stroke="black" stroke-width="2" fill="none" />
<polyline points="376.5,284.5,376.0,288.5,375.0,292.0,376.0,296.0,375.0,300.5,374.0,306.0,373.5,310.0,374.5,314.0" stroke="black" stroke-width="2" fill="none" />
<polyline points="376.0,323.5,376.0,327.5,376.0,331.5,377.0,335.5" stroke="black" stroke-width="2" fill="none" />
<polyline points="382.0,342.0,384.5,341.0,385.5,337.0,384.5,333.5,385.0,329.5" stroke="black" stroke-width="2" fill="none" />
<polyline points="379.0,326.5,380.0,330.5,380.0,334.5,381.0,337.5,380.0,341.0,380.5,344.5,382.5,346.0,381.5,349.5,382.0,354.0,382.5,358.5" stroke="black" stroke-width="2" fill="none" />
<polyline points="384.5,353.5,385.5,349.5" stroke="black" stroke-width="2" fill="none" />
<polyline points="367.0,354.0,367.5,358.5,368.0,362.5,368.0,366.5,367.0,370.5" stroke="black" stroke-width="2" fill="none" />
<polyline points="372.0,376.5,372.5,380.5,372.5,384.5" stroke="black" stroke-width="2" fill="none" />
<polyline points="372.0,379.0,371.5,383.0,369.0,387.5,368.5,392.5" stroke="black" stroke-width="2" fill="none" />
<polyline points="354.0,396.5,354.5,400.5,355.0,404.5,355.5,408.5,356.0,412.5" stroke="black" stroke-width="2" fill="none" />
<polyline points="351.0,403.0,349.0,397.0,347.0,391.0,352.0,389.0,352.0,386.5,352.0,384.0,351.0,380.0,351.0,376.0,351.5,372.5,352.0,368.5,351.0,367.5" stroke="black" stroke-width="2" fill="none" />
<polyline points="360.5,363.5,360.5,367.5,360.0,374.0" stroke="black" stroke-width="2" fill="none" />
<polyline points="358.5,381.5,359.0,377.0,359.0,373.5,359.0,369.5,358.5,365.5,360.5,362.0" stroke="black" stroke-width="2" fill="none" />
<polyline points="366.5,352.5,366.0,356.0,367.0,360.0,366.5,364.0,368.5,369.0,368.5,374.5,369.5,377.0,368.0,380.5" stroke="black" stroke-width="2" fill="none" />
<polyline points="382.0,385.5,381.5,390.0,380.5,394.0,380.0,398.0,380.0,402.5" stroke="black" stroke-width="2" fill="none" />
<polyline points="378.0,412.5,377.5,416.5,377.0,420.0,377.5,426.5" stroke="black" stroke-width="2" fill="none" />
<polyline points="362.5,430.0,358.5,421.5,354.5,416.0,350.5,411.0,346.5,408.0,342.5,404.5,338.5,402.0,334.5,399.5,330.5,397.5,326.0,395.5,322.0,394.5,318.0,392.0,314.0,390.5" stroke="black" stroke-width="2" fill="none" />
<polyline points="312.5,382.0,316.0,372.0,319.5,366.0,323.5,360.0,327.5,353.0,331.0,344.5,335.5,336.0,339.5,328.0,343.5,320.5" stroke="black" stroke-width="2" fill="none" />
<polyline points="356.5,329.5,356.0,333.0,355.0,337.5" stroke="black" stroke-width="2" fill="none" />
<polyline points="356.5,337.0,356.5,333.0" stroke="black" stroke-width="2" fill="none" />
<polyline points="353.0,352.0,352.5,356.0,352.0,360.5,354.0,360.5,354.0,364.5,354.0,369.0,354.0,373.0,353.5,377.5,353.5,381.5,353.5,385.5,353.5,389.5,354.0,393.0,352.5,397.0,353.5,401.0,351.5,405.0,352.5,409.0" stroke="black" stroke-width="2" fill="none" />
<polyline points="336.0,388.5,336.0,385.0" stroke="black" stroke-width="2" fill="none" />
<polyline points="320.0,378.5,321.0,374.5" stroke="black" stroke-width="2" fill="none" />
<polyline points="318.5,378.0,319.5,373.5,320.5,369.5,322.0,365.5" stroke="black" stroke-width="2" fill="none" />
<polyline points="318.5,347.5,316.0,350.0,312.0,350.0,308.0,351.5" stroke="black" stroke-width="2" fill="none" />
<polyline points="309.0,359.5,305.0,359.0,301.5,358.0" stroke="black" stroke-width="2" fill="none" />
<polyline points="297.0,351.5,293.0,352.0" stroke="black" stroke-width="2" fill="none" />
<polyline points="292.5,354.0,296.5,353.0,300.5,354.5,304.0,355.0,308.0,355.0,312.0,352.5,307.5,355.5,309.5,360.0" stroke="black" stroke-width="2" fill="none" />
<polyline points="301.5,346.5,305.0,346.0,308.5,347.0,312.5,346.0,317.0,346.0" stroke="black" stroke-width="2" fill="none" />
<polyline points="305.5,336.5,304.0,334.0,311.0,330.0,315.5,325.5,311.0,329.0,307.0,331.0" stroke="black" stroke-width="2" fill="none" />
<polyline points="307.0,325.5,303.5,323.5,299.5,323.0,296.0,324.5" stroke="black" stroke-width="2" fill="none" />
<polyline points="295.5,324.0,295.0,328.0,298.5,326.5,302.5,327.5" stroke="black" stroke-width="2" fill="none" />
<polyline points="320.0,325.0,322.5,321.0,322.5,317.5,322.0,313.5,321.5,310.0,320.5,306.0" stroke="black" stroke-width="2" fill="none" />
<polyline points="311.0,298.0,310.5,294.5" stroke="black" stroke-width="2" fill="none" />
<polyline points="318.5,270.5,322.5,263.5,326.5,259.0,330.0,259.5,333.5,258.5,337.5,257.5,341.0,256.0,345.0,255.5,349.0,256.0" stroke="black" stroke-width="2" fill="none" />
<polyline points="342.5,249.5,347.0,245.5,346.0,241.5,344.0,237.5,344.0,233.5,343.5,229.5,342.0,226.5,341.5,222.5,341.0,218.5,339.0,216.0,337.0,212.0,336.0,207.5,334.0,203.5,339.5,199.5,346.0,195.5,354.0,191.5,361.0,187.0,368.5,182.5,377.5,179.0,382.5,174.5,384.0,171.0,387.0,167.0,389.5,163.0,390.5,160.5,386.5,168.0,382.5,175.0,378.5,180.0,374.0,182.0,370.0,184.0,366.0,185.5,362.0,187.5,358.0,190.0,354.5,192.0,350.5,194.0,347.0,196.5,343.0,198.0,338.5,201.0,334.5,204.0" stroke="black" stroke-width="2" fill="none" />
<polyline points="337.5,204.0,341.5,211.0" stroke="black" stroke-width="2" fill="none" />
<polyline points="343.0,205.0,348.0,209.0,351.5,214.0" stroke="black" stroke-width="2" fill="none" />
<polyline points="349.5,209.5,345.0,207.5,341.0,204.0" stroke="black" stroke-width="2" fill="none" />
<polyline points="340.0,203.0,342.0,207.0,343.0,209.0,348.5,211.5,352.0,214.0" stroke="black" stroke-width="2" fill="none" />
<polyline points="349.0,219.5,349.0,224.0" stroke="black" stroke-width="2" fill="none" />
<polyline points="348.5,237.5,348.5,238.5" stroke="black" stroke-width="2" fill="none" />
<polyline points="351.0,253.0,347.5,254.0,343.5,254.5,337.5,256.5,333.5,258.0" stroke="black" stroke-width="2" fill="none" />
<polyline points="334.0,263.5,334.5,267.5,337.0,269.5,333.0,273.5,336.5,270.5" stroke="black" stroke-width="2" fill="none" />
<polyline points="332.5,266.0,336.5,263.5,340.0,264.0,339.5,268.0,340.0,271.5,338.0,275.5,337.0,276.5" stroke="black" stroke-width="2" fill="none" />
<polyline points="331.5,269.0,327.5,268.0" stroke="black" stroke-width="2" fill="none" />
<polyline points="326.5,268.5,325.0,270.0,321.0,271.5,324.0,273.5,331.0,279.5,333.0,278.5,337.0,278.0,340.0,280.0,346.5,276.0" stroke="black" stroke-width="2" fill="none" />
<polyline points="330.0,274.0,329.5,272.0,325.5,270.0,322.0,270.0" stroke="black" stroke-width="2" fill="none" />
<polyline points="327.5,255.5,331.5,252.0,335.5,251.0,340.0,249.5,344.5,246.0,351.0,244.0" stroke="black" stroke-width="2" fill="none" />
<polyline points="334.0,251.5,328.0,255.5,324.5,261.0,321.0,265.0,319.0,269.0,318.0,273.0,318.0,277.0,323.5,276.5" stroke="black" stroke-width="2" fill="none" />
<polyline points="350.5,293.5,350.0,297.5,349.5,301.0,349.0,305.0,346.5,309.0,347.0,312.5,345.0,316.5,343.5,320.5,341.5,324.5,340.0,329.0,338.0,332.5,336.0,336.5,334.0,340.5,332.5,344.5,330.5,349.0,328.5,352.5,326.0,356.5,323.5,360.5,321.0,364.5,319.0,369.0,317.0,373.0,315.0,376.5,313.5,380.5,313.5,384.5,311.5,388.5,320.0,394.5,328.5,398.5,336.5,402.0,341.5,406.0,346.5,410.0,350.0,414.0,353.5,418.0,356.0,422.0,359.0,425.5,360.5,429.5,363.0,433.5,364.0,437.5,365.5,441.5,366.0,445.5,367.0,449.5,368.0,453.5,370.0,457.5,371.5,461.5,372.5,466.0,373.5,470.0,374.0,474.5,375.0,478.5,376.5,483.0,377.5,487.5,378.5,492.0,380.0,496.0,381.0,500.0,382.0,503.5,383.0,507.5,384.0,511.0,386.5,514.0,390.5,514.0,394.5,514.0,398.0,514.0,401.5,514.0,406.0,513.5,410.0,514.0,414.0,514.0,418.0,514.5,421.5,514.5,425.0,514.0,429.0,514.0,433.0,513.5,437.0,513.0,441.0,513.0,445.0,513.0,449.0,513.0,453.0,513.5,457.5,513.5,462.5,514.0,467.0,513.5,471.5,514.0,475.5,514.0,479.5,514.0,483.0,514.0,487.0,514.0" stroke="black" stroke-width="2" fill="none" />
<polyline points="444.5,423.0,445.5,421.5,446.5,417.5,447.0,413.0,448.0,409.0,448.5,405.5,448.5,401.5,449.5,397.5,449.5,393.0,450.0,389.0,450.5,385.0,451.5,381.0,452.0,377.5,452.5,374.0,453.0,370.5,453.0,366.5,453.5,362.5" stroke="black" stroke-width="2" fill="none" />
<polyline points="383.5,390.0,383.0,394.0" stroke="black" stroke-width="2" fill="none" />
<polyline points="310.0,388.5,306.0,388.5,301.5,388.5" stroke="black" stroke-width="2" fill="none" />
<polyline points="276.5,354.5,272.5,352.5,268.5,352.5" stroke="black" stroke-width="2" fill="none" />
<polyline points="269.0,351.0,268.5,354.5,270.0,350.5,274.0,351.5,278.0,351.5,282.0,351.0" stroke="black" stroke-width="2" fill="none" />
<polyline points="262.0,384.0,258.5,384.5,254.5,384.0" stroke="black" stroke-width="2" fill="none" />
<polyline points="262.5,388.0,258.5,387.5,254.5,388.0,250.5,387.5,246.5,388.5" stroke="black" stroke-width="2" fill="none" />
<polyline points="240.5,406.0,240.5,410.0,241.5,414.5,242.0,418.5,241.5,422.5,243.0,425.5,242.0,429.5,241.0,433.5,239.5,437.0,239.0,441.0,239.0,445.0,237.0,448.5,236.5,453.0,236.0,457.5,234.5,462.0,233.0,466.0,232.0,470.0,229.5,474.0,227.5,478.0,223.5,481.5,219.5,484.5,213.0,489.0" stroke="black" stroke-width="2" fill="none" />
<polyline points="198.5,495.0,202.0,494.5,207.5,492.5,211.0,491.0,215.0,489.0,219.0,486.0,223.0,482.0,227.0,478.0,231.0,471.5" stroke="black" stroke-width="2" fill="none" />
<polyline points="236.5,467.5,237.5,464.0" stroke="black" stroke-width="2" fill="none" />
<polyline points="199.5,449.5,195.5,447.0" stroke="black" stroke-width="2" fill="none" />
<polyline points="198.5,449.0,199.0,445.0" stroke="black" stroke-width="2" fill="none" />
<polyline points="188.0,449.0,184.0,448.0" stroke="black" stroke-width="2" fill="none" />
<polyline points="176.0,455.5,174.5,461.5,170.5,457.0,170.5,455.5,174.5,453.5,172.5,454.0,172.0,449.5,170.0,445.0,171.0,440.0,170.5,436.0,167.0,433.0" stroke="black" stroke-width="2" fill="none" />
<polyline points="165.0,431.0,161.5,435.0,162.5,442.0,160.0,443.5,160.5,447.0,158.0,451.0,160.5,455.0,164.0,456.0,160.0,458.5,162.5,461.5" stroke="black" stroke-width="2" fill="none" />
<polyline points="161.5,462.0,157.5,459.0" stroke="black" stroke-width="2" fill="none" />
<polyline points="156.0,461.0,161.0,464.5,156.5,471.0" stroke="black" stroke-width="2" fill="none" />
<polyline points="154.5,474.0,149.5,469.5,145.5,468.0" stroke="black" stroke-width="2" fill="none" />
<polyline points="148.5,462.5,152.5,467.5,156.0,471.0,160.0,469.0,164.0,468.0,170.0,465.5" stroke="black" stroke-width="2" fill="none" />
<polyline points="169.0,459.5,165.5,455.0,161.5,455.5" stroke="black" stroke-width="2" fill="none" />
<polyline points="161.5,444.0,165.0,440.0,169.5,444.0,175.5,444.0" stroke="black" stroke-width="2" fill="none" />
<polyline points="164.5,444.0,168.5,450.0,173.0,456.0" stroke="black" stroke-width="2" fill="none" />
<polyline points="172.0,467.0,174.5,467.5,176.0,466.0,174.0,464.0,170.0,462.0,172.0,458.0,171.0,454.0,169.0,449.5,166.0,449.5,166.0,448.0,163.5,449.0,159.5,448.0,157.0,451.0,156.0,447.0,156.5,440.5,156.5,436.5,153.5,434.0,157.5,431.5,156.5,427.5,156.0,423.0,156.0,421.0" stroke="black" stroke-width="2" fill="none" />
<polyline points="153.0,424.0,154.0,420.5,152.5,418.0" stroke="black" stroke-width="2" fill="none" />
<polyline points="158.0,412.5,162.0,416.5,162.5,419.0,162.0,423.0,159.0,427.0,165.0,424.5,166.0,417.0" stroke="black" stroke-width="2" fill="none" />
<polyline points="172.5,417.5,167.5,410.0" stroke="black" stroke-width="2" fill="none" />
<polyline points="168.5,405.0,172.0,410.5,175.5,413.0" stroke="black" stroke-width="2" fill="none" />
<polyline points="168.5,404.0,164.5,403.5" stroke="black" stroke-width="2" fill="none" />
<polyline points="163.0,403.5,166.5,407.5,170.5,413.0,171.5,419.5,174.0,423.0,174.0,427.0,174.5,431.0" stroke="black" stroke-width="2" fill="none" />
<polyline points="166.5,415.0,162.0,409.5" stroke="black" stroke-width="2" fill="none" />
<polyline points="164.5,401.0,164.5,405.0,167.0,407.0,167.5,412.0,169.5,416.0,170.0,420.5,168.0,424.5,167.0,428.5,167.5,431.5,166.5,435.5,168.0,439.5,168.0,444.0,167.0,448.0,164.0,451.0,166.5,455.5,168.0,459.0,168.0,463.0,168.0,467.0,167.5,473.0,165.5,477.0,170.0,479.0,167.0,479.5,166.5,483.5,166.0,487.5,169.0,491.5,166.5,493.0,168.5,499.5,167.0,504.0,171.0,504.0,175.0,511.0,175.5,514.5" stroke="black" stroke-width="2" fill="none" />
<polyline points="148.5,501.0,144.5,496.0" stroke="black" stroke-width="2" fill="none" />
<polyline points="141.5,501.5,142.5,505.5" stroke="black" stroke-width="2" fill="none" />
<polyline points="155.0,506.0,151.0,500.0,147.5,493.0,143.5,485.5" stroke="black" stroke-width="2" fill="none" />
<polyline points="149.5,482.0,150.0,486.0,152.5,489.0,152.0,494.0,151.0,497.0,151.5,500.0,154.0,504.0,152.0,506.5,153.5,507.0,156.0,508.0,162.0,511.0,168.5,512.0,170.5,511.0" stroke="black" stroke-width="2" fill="none" />
<polyline points="153.5,512.5,152.0,510.5,149.5,506.5,148.0,502.5,145.5,498.0,145.0,494.0,143.5,490.0,142.0,486.0,138.5,480.5,139.5,479.0,139.0,477.5" stroke="black" stroke-width="2" fill="none" />
<polyline points="136.0,484.5,142.5,485.5,146.5,489.0,150.5,494.5,152.5,497.0,153.5,498.5,160.0,502.0,166.0,506.0" stroke="black" stroke-width="2" fill="none" />
<polyline points="169.5,492.5,169.0,487.0,167.0,481.5,158.5,478.5,154.0,480.5,153.5,477.0,150.5,476.0,145.0,472.5,142.0,469.5,143.5,467.5,141.5,463.5,142.5,459.5,141.0,455.5,135.0,455.5" stroke="black" stroke-width="2" fill="none" />
<polyline points="141.0,452.0,144.0,456.0,145.5,459.5,147.0,463.5,147.0,466.5,148.0,470.0,151.5,474.0,153.0,478.0,158.5,481.0,162.5,484.0,164.0,482.0,165.5,477.0" stroke="black" stroke-width="2" fill="none" />
<polyline points="163.0,476.5,163.0,472.5,161.5,468.0" stroke="black" stroke-width="2" fill="none" />
<polyline points="149.0,453.5,145.0,449.0" stroke="black" stroke-width="2" fill="none" />
<polyline points="144.5,449.0,149.0,451.0,153.0,452.0" stroke="black" stroke-width="2" fill="none" />
<polyline points="149.5,456.0,146.0,452.5" stroke="black" stroke-width="2" fill="none" />
<polyline points="143.5,450.5,147.0,455.5,152.5,464.5" stroke="black" stroke-width="2" fill="none" />
<polyline points="138.5,465.0,139.5,469.0,142.5,473.0,146.5,476.5,152.0,480.0,155.0,483.5,160.5,484.5,158.5,486.0,158.5,490.0,159.5,494.0,157.0,494.5,155.0,496.0,157.0,500.5,159.5,504.0,158.5,507.5,164.5,511.0,165.5,512.5" stroke="black" stroke-width="2" fill="none" />
<polyline points="129.5,509.0,128.0,506.5,124.5,502.5,125.5,500.0,121.5,497.0" stroke="black" stroke-width="2" fill="none" />
<polyline points="124.5,497.0,124.0,501.5,123.0,505.5,122.5,507.5,125.5,509.0,127.5,513.5" stroke="black" stroke-width="2" fill="none" />
<polyline points="101.0,501.5,99.0,496.5,99.5,493.0" stroke="black" stroke-width="2" fill="none" />
<polyline points="113.5,486.5,111.0,490.5,112.5,490.5,112.5,495.0,111.5,499.0,110.0,502.5,109.0,507.0,106.5,508.5,106.5,509.0,107.5,511.5" stroke="black" stroke-width="2" fill="none" />
<polyline points="141.5,511.5,142.0,508.0,140.0,504.0,139.5,503.5,138.5,499.0,139.0,498.5,137.0,495.0,135.5,491.0,134.5,486.5,135.0,484.0" stroke="black" stroke-width="2" fill="none" />
<polyline points="135.0,470.5,136.0,467.0" stroke="black" stroke-width="2" fill="none" />
<polyline points="122.0,455.5,123.0,452.0" stroke="black" stroke-width="2" fill="none" />
<polyline points="108.5,445.5,107.5,441.5" stroke="black" stroke-width="2" fill="none" />
<polyline points="104.5,439.0,100.5,441.0,99.5,441.5,103.0,437.0" stroke="black" stroke-width="2" fill="none" />
<polyline points="101.0,436.0,97.0,441.0,93.0,444.0,92.5,444.5,98.0,442.5,98.5,439.0,101.0,435.0,103.0,431.0,104.0,427.0,104.0,423.0,105.0,419.0,109.5,417.5,105.5,416.0" stroke="black" stroke-width="2" fill="none" />
<polyline points="109.5,417.0,109.5,421.0,108.5,425.0,107.5,429.0,106.5,433.0,106.5,436.5,106.0,440.5,103.5,442.0,103.5,446.0" stroke="black" stroke-width="2" fill="none" />
<polyline points="94.0,454.0,87.5,458.0,87.0,458.5,91.0,456.0" stroke="black" stroke-width="2" fill="none" />
<polyline points="91.5,453.0,87.5,455.5,83.5,457.0,92.0,453.0" stroke="black" stroke-width="2" fill="none" />
<polyline points="88.0,426.5,90.0,422.5" stroke="black" stroke-width="2" fill="none" />
<polyline points="89.5,406.5,93.5,406.5,95.0,409.5,99.5,410.5,103.5,410.0,108.0,406.0" stroke="black" stroke-width="2" fill="none" />
<polyline points="111.5,407.0,111.5,404.0,113.5,400.0,113.5,401.5,112.5,407.0" stroke="black" stroke-width="2" fill="none" />
<polyline points="121.0,399.5,117.0,394.5" stroke="black" stroke-width="2" fill="none" />
<polyline points="119.0,393.0,123.0,398.0" stroke="black" stroke-width="2" fill="none" />
<polyline points="124.5,392.0,128.5,396.0,132.0,396.0" stroke="black" stroke-width="2" fill="none" />
<polyline points="134.5,397.0,137.5,395.5,138.0,392.5,138.5,388.0,139.5,383.5,134.0,380.0,129.0,375.5,127.0,371.5,125.0,367.0,123.5,363.0,131.0,361.0,126.5,357.5,122.5,354.0" stroke="black" stroke-width="2" fill="none" />
<polyline points="126.5,352.0,131.5,354.0" stroke="black" stroke-width="2" fill="none" />
<polyline points="132.0,358.0,134.5,362.0,139.5,359.5,142.5,362.0,147.5,363.5,151.0,363.5,155.0,363.5" stroke="black" stroke-width="2" fill="none" />
<polyline points="152.0,362.0,151.5,366.0,150.5,371.0,149.5,375.0,152.0,379.0,153.5,385.0,157.5,385.5" stroke="black" stroke-width="2" fill="none" />
<polyline points="156.5,388.5,160.0,390.5,163.5,394.5,167.5,397.0,173.0,403.5,176.5,411.5" stroke="black" stroke-width="2" fill="none" />
<polyline points="181.5,416.5,177.5,407.5,174.0,400.5,170.5,394.5,166.5,390.5,162.0,386.5,158.0,380.5" stroke="black" stroke-width="2" fill="none" />
<polyline points="161.0,381.0,162.0,377.0" stroke="black" stroke-width="2" fill="none" />
<polyline points="162.5,368.0,163.0,365.0,167.0,360.0,171.0,356.0,175.5,350.0,180.0,345.5,184.0,339.0,186.0,329.5,190.0,327.5" stroke="black" stroke-width="2" fill="none" />
<polyline points="189.0,330.5,186.5,334.5,184.0,335.5,183.5,339.5,181.0,343.5,179.0,347.5,177.0,349.0,174.5,353.5,170.5,357.5,166.5,361.5,164.0,362.0,162.5,368.0,164.0,369.5,162.0,368.5" stroke="black" stroke-width="2" fill="none" />
<polyline points="159.5,365.0,163.5,358.0,167.5,351.5,171.5,347.0,175.5,341.0,179.5,334.0,178.0,336.0,176.5,339.5,174.0,343.5,170.5,347.5,167.5,351.5,165.0,355.5,162.5,359.5,160.5,363.5,160.0,367.5,159.5,371.5,161.5,374.0,165.5,369.0,169.5,363.0,173.5,359.0,178.0,353.0,181.5,347.5,186.0,340.5,190.0,335.0" stroke="black" stroke-width="2" fill="none" />
<polyline points="190.5,344.5,191.0,344.0,190.5,348.5,192.0,352.5" stroke="black" stroke-width="2" fill="none" />
<polyline points="194.0,348.5,194.0,344.5" stroke="black" stroke-width="2" fill="none" />
<polyline points="179.5,351.0,176.5,355.0,174.0,359.5,170.0,363.5,166.5,367.5,163.0,371.0,160.0,375.0,156.5,378.0,156.0,380.5,159.0,387.0,160.5,391.0,166.5,395.0,169.5,399.0,170.5,402.5,169.0,405.5,172.0,409.0,175.0,410.5,176.0,414.0,177.0,418.5,180.0,421.0,181.0,425.0,181.0,429.0,179.0,433.0,178.5,436.5,176.5,440.5,176.0,440.5,180.0,442.0,184.0,441.0" stroke="black" stroke-width="2" fill="none" />
<polyline points="197.0,433.5,196.5,430.0,196.5,426.0" stroke="black" stroke-width="2" fill="none" />
<polyline points="191.5,433.0,194.5,431.5,191.5,428.5,191.5,423.0,191.5,418.5,192.0,414.5" stroke="black" stroke-width="2" fill="none" />
<polyline points="191.5,410.0,192.0,404.5,192.0,400.5,192.0,396.5" stroke="black" stroke-width="2" fill="none" />
<polyline points="192.0,392.0,191.5,396.0,190.0,400.0,190.0,404.0,189.5,408.0,190.0,411.5,190.0,415.5,190.0,419.5,190.0,424.0,189.5,428.0,189.5,432.0,189.0,436.0,184.5,441.0,183.0,445.5,187.5,443.5,191.0,444.5,195.0,445.0,199.0,444.0,200.5,445.0" stroke="black" stroke-width="2" fill="none" />
<polyline points="225.5,429.5,226.5,425.5,227.5,422.0,229.0,418.0" stroke="black" stroke-width="2" fill="none" />
<polyline points="224.0,416.5,222.5,416.0,222.5,412.5" stroke="black" stroke-width="2" fill="none" />
<polyline points="231.5,409.0,232.5,413.0,234.0,416.5,235.0,420.0,236.0,424.0,237.0,427.5,236.5,432.0,236.0,436.5,235.5,441.0,235.0,445.0,234.0,449.0,233.5,453.5,232.0,457.0,230.0,461.0,228.5,465.5,226.0,469.5,223.5,473.5,220.0,477.0,217.0,480.5,213.0,484.5,204.0,489.0,194.5,491.5,198.5,490.5,202.5,489.0,207.0,487.5,211.0,485.5,215.5,482.5,219.5,479.0,223.5,474.0,227.5,468.5,231.5,460.0" stroke="black" stroke-width="2" fill="none" />
<polyline points="243.0,419.0,242.0,415.0,242.5,411.0" stroke="black" stroke-width="2" fill="none" />
<polyline points="222.0,366.0,221.5,362.5,221.0,358.5" stroke="black" stroke-width="2" fill="none" />
<polyline points="221.5,364.0,221.5,360.5,220.5,356.5,220.5,352.0,220.5,348.0" stroke="black" stroke-width="2" fill="none" />
<polyline points="211.0,349.0,212.0,352.5" stroke="black" stroke-width="2" fill="none" />
<polyline points="221.0,336.0,220.5,332.0" stroke="black" stroke-width="2" fill="none" />
<polyline points="201.5,318.5,197.0,321.0,193.0,319.5" stroke="black" stroke-width="2" fill="none" />
<polyline points="202.0,316.5,197.5,317.5,201.5,315.0,205.5,310.5,209.5,304.5,213.5,298.5,218.0,293.0,222.0,288.5,226.5,284.0,230.5,280.0,234.5,276.0,238.5,271.5,243.0,267.0,247.0,263.0,251.0,258.5,254.5,255.5,259.0,251.5,263.0,248.5,267.0,245.5,271.5,243.5" stroke="black" stroke-width="2" fill="none" />
<polyline points="270.0,245.0,263.5,249.0,258.5,252.5,253.5,256.5,248.5,260.5,245.0,264.5,241.0,268.5,237.0,273.0,233.0,277.0,229.5,281.0,225.5,284.5,222.0,288.5,219.0,293.0,216.0,296.5,213.0,300.5,210.5,304.5,208.0,308.0,205.0,312.0,201.0,316.0,199.0,321.5,196.0,325.5,192.5,329.5,190.5,333.5,187.5,337.5,185.5,334.5,190.5,328.5,194.0,327.5,198.5,321.5" stroke="black" stroke-width="2" fill="none" />
<polyline points="181.0,327.5,183.0,323.5,184.5,320.0,187.5,316.0,191.0,312.0,192.5,308.0,194.5,303.5,196.5,299.0,199.0,295.0,200.5,291.5,203.5,287.5,205.5,284.0,208.0,280.0,210.5,276.0,213.0,272.0,215.0,268.5,216.5,264.5,219.0,260.5,221.0,256.5,223.5,252.5,226.0,248.5,229.0,244.0,231.5,240.0,229.0,236.0,227.5,233.0,227.0,229.0,225.5,225.0,223.5,221.0,222.0,217.0,223.0,211.0,223.0,207.5,224.5,203.5,228.5,199.5,224.5,203.5" stroke="black" stroke-width="2" fill="none" />
<polyline points="220.5,206.5,224.5,202.0,225.0,201.5,222.0,205.5,220.5,209.5,223.0,213.5,225.0,215.0,227.0,217.0,230.0,220.5,230.5,224.5,230.0,225.0" stroke="black" stroke-width="2" fill="none" />
<polyline points="231.5,222.5,235.0,223.5" stroke="black" stroke-width="2" fill="none" />
<polyline points="233.5,220.5,229.5,218.0" stroke="black" stroke-width="2" fill="none" />
<polyline points="230.5,210.0,229.5,213.0,233.0,209.0,233.0,204.5,235.0,201.0,237.5,197.0,240.0,192.5,242.5,188.5,244.5,185.0,240.5,191.0,236.5,196.5" stroke="black" stroke-width="2" fill="none" />
<polyline points="234.0,202.5,238.5,198.0,242.5,197.5,245.5,192.5,250.0,187.5" stroke="black" stroke-width="2" fill="none" />
<polyline points="253.0,188.5,248.5,192.5,250.5,191.0,254.5,188.0" stroke="black" stroke-width="2" fill="none" />
<polyline points="253.0,186.0,249.0,187.0,245.0,192.5,242.5,194.5,245.5,194.5,247.5,190.5,251.0,188.5,253.5,184.0" stroke="black" stroke-width="2" fill="none" />
<polyline points="255.0,180.0,248.0,184.0,247.0,188.0,242.5,192.0,243.0,195.5,241.0,199.5,235.0,202.0,234.5,203.5,234.5,207.5" stroke="black" stroke-width="2" fill="none" />
<polyline points="242.0,211.0,246.0,212.0" stroke="black" stroke-width="2" fill="none" />
<polyline points="248.5,202.5,252.5,199.0,256.0,194.0,260.0,191.0" stroke="black" stroke-width="2" fill="none" />
<polyline points="264.5,190.5,259.5,194.5,256.0,199.5,252.0,203.5,252.5,206.5" stroke="black" stroke-width="2" fill="none" />
<polyline points="254.5,205.0,255.0,200.5,259.0,197.0,263.5,192.5,268.0,189.0,264.0,193.5,260.5,197.5,258.0,202.0,255.0,206.0,252.5,212.0,253.0,216.0,249.0,220.0,245.5,224.0,241.5,228.5,237.5,232.5,233.0,235.0,237.0,233.5,241.0,228.5,245.0,223.5,249.0,220.0,254.5,215.0,257.0,215.5" stroke="black" stroke-width="2" fill="none" />
<polyline points="263.5,214.5,266.0,216.5,266.0,221.0,261.0,222.0,262.0,226.0,262.0,230.5,262.0,234.5,262.0,238.5" stroke="black" stroke-width="2" fill="none" />
<polyline points="264.5,240.0,264.5,236.0,266.0,230.5,265.5,226.5,265.0,223.0,263.5,219.0,264.5,221.0" stroke="black" stroke-width="2" fill="none" />
<polyline points="270.0,212.5,272.5,210.5,274.0,205.5,279.0,201.0,283.0,197.0,287.5,193.5,292.0,189.5,298.5,185.0,305.0,180.5,302.5,177.5,298.0,180.0,294.0,183.5,290.5,186.5,286.5,189.5,282.5,193.0,278.5,197.0,274.5,200.5,270.5,203.5,266.0,210.5,262.5,212.0,266.0,211.0,267.5,207.0,271.5,202.5,277.0,198.5,282.0,195.0,286.5,191.0,291.5,187.0,296.5,183.0,301.5,179.5,299.5,177.0,295.5,180.5,291.0,175.5,287.0,174.0,283.0,176.0,279.0,175.5,275.0,175.0,271.0,174.5" stroke="black" stroke-width="2" fill="none" />
<polyline points="268.0,179.5,264.0,183.0,258.0,187.0,254.0,192.5,250.5,196.5,247.0,200.5,247.0,204.5,244.5,209.0,249.0,208.5" stroke="black" stroke-width="2" fill="none" />
<polyline points="253.0,203.5,257.0,199.5,260.5,194.5,264.5,191.5,265.5,186.5,259.5,190.5,257.0,195.0,253.5,200.0,247.5,202.5,252.0,198.0,257.0,193.5,260.0,187.5,262.0,188.0,266.0,186.0,267.0,187.5,271.0,186.0" stroke="black" stroke-width="2" fill="none" />
<polyline points="286.0,177.0,286.5,176.0,293.5,179.0,291.5,183.5,287.0,187.5,281.5,192.0,277.0,196.0,274.0,195.0,277.5,195.5,282.0,191.0,285.5,188.5,289.5,184.5" stroke="black" stroke-width="2" fill="none" />
<polyline points="302.0,172.0,306.0,170.5,310.0,168.0,313.5,166.0,317.5,163.0,321.5,161.5,325.5,159.5,329.5,158.0,334.0,155.5" stroke="black" stroke-width="2" fill="none" />
<polyline points="337.5,154.0,330.5,158.0,323.0,162.0,316.5,166.0,309.5,170.0,304.0,174.0,300.0,177.0" stroke="black" stroke-width="2" fill="none" />
<polyline points="319.0,162.0,319.0,159.0,319.0,158.5,318.5,157.5" stroke="black" stroke-width="2" fill="none" />
<polyline points="305.0,181.5,301.0,183.0,297.0,186.5,294.0,189.0,290.0,192.0,285.5,195.0,281.0,199.5,276.5,203.0,272.5,206.5,268.0,208.0" stroke="black" stroke-width="2" fill="none" />
<polyline points="263.5,207.0,267.5,203.0" stroke="black" stroke-width="2" fill="none" />
<polyline points="259.5,203.0,263.5,198.5,263.5,199.0,260.0,203.0,259.0,207.0,258.0,211.0,255.0,215.0,254.5,220.5,249.0,225.0,245.0,229.0,242.0,233.5,238.5,237.5,234.5,242.0,231.0,246.0,227.5,249.5,225.5,253.5,223.0,257.5,221.0,261.5,219.0,265.5,216.0,269.5,220.0,263.0,224.0,256.5,228.5,250.5,232.5,245.5,236.0,241.0,240.0,236.0,244.5,231.0,248.5,226.0,253.0,221.0,256.5,217.0" stroke="black" stroke-width="2" fill="none" />
<polyline points="259.0,217.5,255.5,221.0,251.5,225.0,248.0,230.0,243.5,235.0,239.5,239.0,235.5,243.5,232.0,249.0,228.0,255.5,224.5,261.0,220.5,267.5,216.0,274.0,211.5,282.5,207.5,290.5,203.5,300.0,199.5,308.5,195.0,318.0,195.0,317.0,197.0,313.0,198.0,309.5,200.0,305.5,202.0,301.5,204.5,297.5,206.5,293.5,208.0,289.5,210.0,285.5,212.5,281.0,214.0,277.0,216.5,272.5,220.0,268.5,222.0,264.0,225.0,260.0,227.5,256.0,230.5,252.0,232.0,248.0,235.0,244.0,239.0,240.5,243.0,237.0,246.0,233.0,249.5,229.5,253.0,225.5,257.0,221.5,260.5,217.0,261.0,213.0,261.5,208.5,262.5,204.0,267.5,202.0,269.0,198.0,269.5,193.5,270.5,189.5,270.5,185.5,270.0,181.5,264.5,183.0,262.0,182.0,258.5,185.0,258.5,185.0,262.5,181.0,259.0,180.5,254.5,180.5,250.5,183.0,246.5,185.5" stroke="black" stroke-width="2" fill="none" />
<polyline points="252.5,177.0,248.5,173.0,248.5,172.0" stroke="black" stroke-width="2" fill="none" />
<polyline points="245.0,170.0,241.5,174.5,240.5,177.5,237.5,183.0,242.5,182.5,246.5,181.5,250.5,178.5,254.5,176.0,258.5,178.0,265.0,182.0,268.5,177.5,271.5,178.0,273.5,176.5,277.5,180.0" stroke="black" stroke-width="2" fill="none" />
<polyline points="274.0,187.0,274.0,182.5,274.0,177.0,275.0,175.0,266.5,175.0,262.5,175.5,258.0,174.5,254.0,174.0" stroke="black" stroke-width="2" fill="none" />
<polyline points="238.5,178.5,234.5,178.0,232.0,175.5,225.5,174.5,221.0,175.5,216.0,178.5,212.0,183.5,207.5,188.0,203.5,190.5" stroke="black" stroke-width="2" fill="none" />
<polyline points="202.5,192.5,206.5,187.0,211.0,183.0,215.5,178.0,220.0,174.5,224.5,173.0,229.0,173.0,233.0,172.5,237.5,173.5,241.5,173.5,246.5,171.5,247.0,169.5,250.5,170.0,254.5,169.5" stroke="black" stroke-width="2" fill="none" />
<polyline points="239.5,183.5,235.0,184.5,231.0,185.5,229.0,185.0,233.0,181.0" stroke="black" stroke-width="2" fill="none" />
<polyline points="238.0,181.5,234.0,181.0,230.5,187.0,226.5,189.0,222.5,188.5,218.5,191.0,215.0,191.5,211.0,194.5,206.5,195.0,206.5,191.0,210.0,186.5,213.0,183.0,217.0,179.0,221.0,175.0" stroke="black" stroke-width="2" fill="none" />
<polyline points="220.0,173.0,216.0,177.0,212.5,181.5,208.5,186.0,205.0,190.0,204.0,194.5,204.5,198.0,206.5,197.5" stroke="black" stroke-width="2" fill="none" />
<polyline points="204.0,209.0,208.0,204.5,207.0,205.5,202.5,212.0,202.5,216.0,205.0,220.5,208.0,225.0" stroke="black" stroke-width="2" fill="none" />
<polyline points="209.0,226.5,205.0,221.0" stroke="black" stroke-width="2" fill="none" />
<polyline points="207.5,222.5,203.5,217.0" stroke="black" stroke-width="2" fill="none" />
<polyline points="208.0,210.0,207.5,210.5,209.5,206.0,215.5,198.5,221.5,194.5,225.5,190.5,222.0,192.5,218.0,195.0,214.5,198.5,217.0,196.0,222.5,192.5,232.0,191.0,227.5,192.0,223.5,194.5,218.0,193.0,214.0,195.0,210.0,195.5,215.0,191.5,221.0,189.5,220.5,187.5,223.5,183.5,223.0,184.0,219.0,190.5" stroke="black" stroke-width="2" fill="none" />
<polyline points="202.5,201.0,198.5,199.5,194.5,197.5,190.5,198.5,186.5,200.0" stroke="black" stroke-width="2" fill="none" />
<polyline points="191.5,199.0,195.5,200.0,198.0,200.0,198.0,205.0" stroke="black" stroke-width="2" fill="none" />
<polyline points="194.0,208.0,189.5,208.5" stroke="black" stroke-width="2" fill="none" />
<polyline points="186.5,210.0,190.5,210.0,189.0,213.0,185.5,217.0,189.5,218.5,188.0,222.5,186.0,226.0,186.0,230.0,186.5,234.0,189.5,237.5" stroke="black" stroke-width="2" fill="none" />
<polyline points="190.5,236.5,187.5,232.5,187.5,228.5,189.0,224.5,187.5,222.0,187.0,228.0" stroke="black" stroke-width="2" fill="none" />
<polyline points="180.0,224.5,176.0,225.5,172.0,226.0,168.0,224.0" stroke="black" stroke-width="2" fill="none" />
<polyline points="166.5,230.0,171.0,229.0,170.0,234.0,163.5,235.0,160.5,239.0,165.0,237.0,169.0,234.0,173.5,231.0" stroke="black" stroke-width="2" fill="none" />
<polyline points="178.0,233.0,173.5,237.0,174.5,241.0,175.0,245.0,173.5,249.0,170.5,253.0,168.5,256.5,168.5,259.5,166.5,263.0,167.0,266.5,163.5,267.5,166.0,271.5,165.5,275.5,160.5,273.0,161.0,277.0,160.5,282.5,164.0,284.5,165.0,287.0,165.0,291.0,167.0,289.5,173.5,282.5,177.5,285.0" stroke="black" stroke-width="2" fill="none" />
<polyline points="173.5,281.5,170.0,285.5,169.5,289.5,168.5,292.5,170.5,297.0,170.0,301.5,170.0,305.5,167.0,309.5,165.0,313.0,162.5,317.0,165.5,321.0,164.0,324.5,165.5,328.5,166.0,331.0,166.0,334.0,163.5,338.5,158.5,342.5,153.0,345.5,153.5,349.5,157.0,347.5,159.5,345.5,164.0,344.5,166.0,346.0" stroke="black" stroke-width="2" fill="none" />
<polyline points="156.5,349.5,155.5,353.5,158.5,357.0,157.0,361.5,156.5,365.5,155.5,369.5,155.5,371.0,153.0,374.5,153.5,378.5,151.5,381.0,154.0,382.5,152.0,389.5,154.5,393.5,153.0,396.5,154.5,397.5" stroke="black" stroke-width="2" fill="none" />
<polyline points="155.5,393.0,159.5,396.5" stroke="black" stroke-width="2" fill="none" />
<polyline points="157.0,397.0,153.0,395.0,149.0,394.0,144.5,390.5,137.0,390.5,135.0,388.0,133.0,386.5,130.5,384.5,131.5,379.5,127.0,376.5,123.0,369.0" stroke="black" stroke-width="2" fill="none" />
<polyline points="121.5,367.0,124.0,371.5,123.0,374.0,125.0,375.0,123.5,379.5,125.5,384.0,130.0,385.0,129.5,389.5,133.0,393.5,132.5,397.5" stroke="black" stroke-width="2" fill="none" />
<polyline points="140.0,402.5,144.0,406.0" stroke="black" stroke-width="2" fill="none" />
<polyline points="139.5,406.5,140.0,411.5,144.0,416.0,148.0,421.5" stroke="black" stroke-width="2" fill="none" />
<polyline points="145.5,423.5,149.5,425.0" stroke="black" stroke-width="2" fill="none" />
<polyline points="149.0,435.5,149.0,439.5,154.5,438.5" stroke="black" stroke-width="2" fill="none" />
<polyline points="151.5,444.5,147.0,442.5,144.5,436.0,141.5,427.5,137.5,424.0,134.0,419.5,130.0,413.0" stroke="black" stroke-width="2" fill="none" />
<polyline points="127.5,411.5,131.5,407.0,136.0,402.5,142.5,402.0" stroke="black" stroke-width="2" fill="none" />
<polyline points="141.5,401.5,142.0,405.5,142.0,407.5,143.5,410.0,148.5,411.5" stroke="black" stroke-width="2" fill="none" />
<polyline points="153.5,406.0,149.0,403.5,148.0,400.0,146.5,397.0,142.5,393.0,138.0,400.0,133.0,400.5,128.5,399.5,124.5,395.0,121.0,391.0,123.0,385.0,122.0,383.5" stroke="black" stroke-width="2" fill="none" />
<polyline points="119.0,388.5,122.5,394.5,126.5,398.0" stroke="black" stroke-width="2" fill="none" />
<polyline points="124.0,406.0,121.5,410.0,117.5,412.0,121.5,410.0,125.5,406.5" stroke="black" stroke-width="2" fill="none" />
<polyline points="125.0,412.5,128.0,408.0,126.0,411.5,126.0,415.5,128.5,419.5,129.5,423.0,132.0,426.5,137.0,429.5,137.0,431.5,139.5,435.5" stroke="black" stroke-width="2" fill="none" />
<polyline points="140.5,430.5,136.5,425.0,132.5,421.0" stroke="black" stroke-width="2" fill="none" />
<polyline points="132.5,422.0,133.0,426.0" stroke="black" stroke-width="2" fill="none" />
<polyline points="130.0,429.0,125.5,425.5,121.0,419.5" stroke="black" stroke-width="2" fill="none" />
<polyline points="119.0,418.5,123.5,421.0,127.5,426.0" stroke="black" stroke-width="2" fill="none" />
<polyline points="127.0,426.0,124.0,422.0" stroke="black" stroke-width="2" fill="none" />
<polyline points="123.0,416.0,121.0,420.0,122.5,424.0,126.0,428.5" stroke="black" stroke-width="2" fill="none" />
<polyline points="121.0,433.0,120.5,437.0" stroke="black" stroke-width="2" fill="none" />
<polyline points="116.0,431.0,115.0,427.0" stroke="black" stroke-width="2" fill="none" />
<polyline points="114.5,430.5,113.0,427.0,112.5,423.0,111.5,419.0" stroke="black" stroke-width="2" fill="none" />
<polyline points="102.5,407.5,104.5,403.5,103.5,400.0,103.5,395.5,98.5,395.0" stroke="black" stroke-width="2" fill="none" />
<polyline points="97.0,400.0,93.0,397.5" stroke="black" stroke-width="2" fill="none" />
<polyline points="90.5,397.0,94.5,403.5,91.5,408.0,94.5,413.0" stroke="black" stroke-width="2" fill="none" />
<polyline points="98.0,408.0,102.0,408.5" stroke="black" stroke-width="2" fill="none" />
<polyline points="103.5,410.0,107.0,406.0,107.5,400.5,105.0,397.0" stroke="black" stroke-width="2" fill="none" />
<polyline points="103.0,383.5,102.5,379.0,102.0,375.0,102.5,370.5,103.5,366.5,105.0,363.0,106.0,359.0,105.5,353.5,105.0,361.5" stroke="black" stroke-width="2" fill="none" />
<polyline points="111.0,356.5,110.0,354.0" stroke="black" stroke-width="2" fill="none" />
<polyline points="110.0,353.5,110.0,357.5,108.5,361.5,110.0,365.5,113.5,369.5,114.0,373.5,114.0,377.5,111.5,379.0,113.0,383.5,113.5,387.5,113.5,391.5,113.5,395.5,118.0,399.5,120.5,403.5,120.0,408.0,115.0,409.5,112.5,413.5,114.5,412.0,118.5,409.5,122.0,403.0,126.0,405.5" stroke="black" stroke-width="2" fill="none" />
<polyline points="132.0,406.0,134.0,404.0,130.5,408.0,127.5,403.0,124.5,400.0,122.0,396.5,121.5,392.5,122.0,388.5,118.0,386.5,117.5,382.0,118.5,378.0,116.5,374.0,114.0,369.0,115.0,365.5,118.5,362.5,120.0,357.0,120.0,354.0,118.0,349.5,118.5,343.5,120.0,338.0,118.0,333.0,122.0,329.0,120.5,327.0,121.5,322.5,120.0,318.5,121.5,315.0,121.0,312.0,122.0,308.0,124.0,304.5,122.5,301.0,120.5,297.5,116.5,302.0,112.5,305.0,108.5,309.0,104.5,313.5" stroke="black" stroke-width="2" fill="none" />
<polyline points="106.0,309.5,110.0,304.5,113.5,301.0,117.5,298.5" stroke="black" stroke-width="2" fill="none" />
<polyline points="120.0,296.0,119.0,297.0,120.5,293.5,121.0,290.0,123.0,287.0,122.0,294.0" stroke="black" stroke-width="2" fill="none" />
<polyline points="125.0,290.0,129.5,287.0" stroke="black" stroke-width="2" fill="none" />
<polyline points="133.5,281.5,137.5,280.5,141.0,277.0,145.0,274.5,145.0,273.5" stroke="black" stroke-width="2" fill="none" />
<polyline points="145.0,273.5,139.5,278.0,137.0,282.0,137.5,285.5,138.5,289.0,135.5,293.0,131.0,297.0,124.5,300.5,126.0,304.0,128.0,308.0,126.0,312.0,124.5,315.5,125.0,319.5,126.5,323.5,127.0,327.5,130.5,328.5,129.5,333.0,130.5,337.5,129.0,341.5,131.5,345.5,132.0,349.5,136.0,353.5,137.0,357.5,137.0,361.5,137.5,365.5,141.0,368.0,142.5,372.5,144.0,374.0,147.0,377.5,147.5,382.0,142.0,387.5,146.5,392.5,147.0,396.0,149.0,400.0,153.0,404.0,156.0,408.0,157.5,414.0,160.0,414.0,161.0,418.5,160.0,422.5,158.5,427.0,159.5,425.0" stroke="black" stroke-width="2" fill="none" />
<polyline points="138.0,425.5,140.0,430.0,141.0,434.5,140.0,439.5" stroke="black" stroke-width="2" fill="none" />
<polyline points="146.0,449.0,146.5,453.0,150.0,457.0,149.0,461.0,151.5,465.0,151.5,469.0,157.0,473.0,160.0,477.0,161.5,481.0,166.5,484.5,169.5,490.0" stroke="black" stroke-width="2" fill="none" />
<polyline points="169.0,476.0,167.0,471.0,160.0,474.0,155.0,472.0,151.0,473.5,148.0,474.0,145.5,471.0,141.5,466.5,141.0,464.0,136.0,465.5,134.0,461.5,136.0,457.5,138.5,453.5,140.5,449.5,141.0,446.0,141.5,442.0,143.5,436.0,145.0,431.5,143.0,428.0,142.0,426.5,140.0,423.0,136.0,422.0" stroke="black" stroke-width="2" fill="none" />
<polyline points="149.0,424.0,146.0,420.0,143.5,416.0,140.5,412.0,137.5,408.0" stroke="black" stroke-width="2" fill="none" />
<polyline points="142.0,396.5,141.5,400.5,148.0,402.0,149.0,406.0,151.0,406.5,152.0,410.5,150.5,416.5,151.5,420.5,152.0,424.5,146.5,431.5,144.0,435.5,145.0,439.5,146.0,443.5,151.5,447.5,152.5,449.0,153.0,453.0,153.5,454.0,155.5,453.0,158.0,455.5,162.5,455.0,163.5,459.5" stroke="black" stroke-width="2" fill="none" />
<polyline points="157.5,467.5,157.5,465.5,152.5,461.5,146.0,457.5,141.0,451.5,137.0,458.5,132.5,465.5,133.0,461.5,133.5,458.0,137.0,454.0,138.0,450.0,139.0,446.0,139.0,442.0,138.0,435.5,136.5,431.5,136.0,427.5,135.0,423.5,134.5,419.0,129.5,414.5,131.0,409.0,136.0,405.5,137.0,401.0,139.0,396.5,141.0,392.5" stroke="black" stroke-width="2" fill="none" />
<polyline points="141.0,381.0,137.0,377.5" stroke="black" stroke-width="2" fill="none" />
<polyline points="143.5,378.0,139.5,369.0,135.5,371.0,132.0,372.5,133.5,368.5,131.5,364.0,126.0,364.5,122.0,360.0" stroke="black" stroke-width="2" fill="none" />
<polyline points="121.0,360.5,120.5,364.5,119.0,368.5,119.0,371.0,119.0,375.0,120.5,376.5,119.5,381.0,118.0,382.5,120.5,385.5,118.0,392.0,122.5,395.5,126.5,399.5,129.5,402.5,133.0,402.5" stroke="black" stroke-width="2" fill="none" />
<polyline points="142.5,385.5,138.5,385.0,134.5,384.0,130.0,380.0,125.0,375.5,121.0,374.0" stroke="black" stroke-width="2" fill="none" />
<polyline points="129.0,369.5,128.0,365.0,128.0,361.5" stroke="black" stroke-width="2" fill="none" />
<polyline points="128.5,360.5,132.5,362.0,136.5,365.5,143.5,366.0" stroke="black" stroke-width="2" fill="none" />
<polyline points="140.5,369.0,136.5,373.0,139.5,378.5,141.0,383.0,144.5,384.5" stroke="black" stroke-width="2" fill="none" />
<polyline points="155.0,392.0,160.0,396.0,160.0,401.5,161.5,405.5,161.5,410.0,160.5,414.0,164.5,416.0,165.5,420.0,164.5,424.5,161.5,428.5,162.5,431.5,159.5,435.5,159.5,435.0,163.5,430.5,170.5,433.0,175.0,435.5" stroke="black" stroke-width="2" fill="none" />
<polyline points="184.5,402.5,184.5,397.0,185.0,393.0,185.5,389.0,185.5,385.0" stroke="black" stroke-width="2" fill="none" />
<polyline points="146.0,386.0,142.0,379.5,142.0,375.5,140.0,371.5" stroke="black" stroke-width="2" fill="none" />
<polyline points="137.5,363.5,133.5,359.5" stroke="black" stroke-width="2" fill="none" />
<polyline points="136.5,350.5,132.5,346.5,132.5,343.0" stroke="black" stroke-width="2" fill="none" />
<polyline points="130.0,346.0,134.0,351.0,138.0,354.5" stroke="black" stroke-width="2" fill="none" />
<polyline points="136.5,345.5,134.5,337.0" stroke="black" stroke-width="2" fill="none" />
<polyline points="137.0,333.0,142.0,338.0,142.0,342.0,142.5,342.0,147.5,343.5" stroke="black" stroke-width="2" fill="none" />
<polyline points="136.0,347.0,132.0,343.0,133.0,340.5,131.5,337.0,130.5,333.0,128.0,334.0" stroke="black" stroke-width="2" fill="none" />
<polyline points="125.0,335.5,121.5,334.0,122.0,330.0,116.5,333.0,113.5,331.0,116.0,327.5,119.0,324.0,115.0,329.5" stroke="black" stroke-width="2" fill="none" />
<polyline points="109.0,323.0,113.5,318.5,116.5,308.5,114.5,312.5,113.0,318.0,111.5,322.0,109.0,323.0,108.5,327.0,106.0,331.0,103.5,334.5,98.5,338.5,97.5,340.5,93.5,343.0,94.0,344.5,95.0,347.0,94.5,351.0,92.0,355.0,90.0,358.5,88.0,362.5,86.5,366.5,84.5,370.5" stroke="black" stroke-width="2" fill="none" />
<polyline points="86.5,363.5,92.5,354.0" stroke="black" stroke-width="2" fill="none" />
<polyline points="93.5,356.5,97.5,350.5" stroke="black" stroke-width="2" fill="none" />
<polyline points="93.5,348.0,97.5,346.0,102.0,340.5,106.0,337.0,109.5,332.0,112.5,325.5,116.5,316.5,116.5,308.0,122.5,305.5" stroke="black" stroke-width="2" fill="none" />
<polyline points="121.5,306.5,120.0,307.5,115.5,308.5,113.0,312.0,109.0,316.0,106.0,320.0,106.0,317.0,108.5,312.5,110.5,311.5" stroke="black" stroke-width="2" fill="none" />
<polyline points="110.5,317.0,106.5,320.5" stroke="black" stroke-width="2" fill="none" />
<polyline points="102.5,316.0,98.5,320.5" stroke="black" stroke-width="2" fill="none" />
<polyline points="97.0,311.0,100.5,307.5,104.5,303.5,106.5,299.0,101.0,303.5,93.0,307.5,84.0,311.5,85.5,310.5,89.5,308.5,93.5,307.0,98.0,305.0,101.5,302.5,106.0,299.5,103.0,303.5,98.5,307.0,96.0,311.0,96.0,315.0,95.5,315.0,101.0,310.5,105.0,306.5" stroke="black" stroke-width="2" fill="none" />
<polyline points="109.5,299.0,107.0,303.0,104.0,307.0,101.5,311.0,100.5,314.5" stroke="black" stroke-width="2" fill="none" />
<polyline points="90.0,323.0,90.0,327.0" stroke="black" stroke-width="2" fill="none" />
<polyline points="89.0,328.5,89.0,325.0,90.5,320.5,91.5,316.5,92.5,313.0,92.0,309.0,86.5,314.5,81.5,318.5,79.0,317.0,75.5,319.0,71.5,321.0,71.0,322.0,78.0,318.0,77.0,312.5,75.0,308.5,78.5,305.5,74.5,307.5" stroke="black" stroke-width="2" fill="none" />
<polyline points="76.0,307.0,76.0,310.5,76.5,313.0" stroke="black" stroke-width="2" fill="none" />
<polyline points="80.5,316.0,76.0,320.0,71.0,322.0,75.5,320.5" stroke="black" stroke-width="2" fill="none" />
<polyline points="91.5,338.5,89.5,342.5,89.0,346.0,87.5,349.5,85.5,353.0,82.0,356.5,79.5,361.0,77.0,365.0,76.0,368.5" stroke="black" stroke-width="2" fill="none" />
<polyline points="76.5,367.5,80.5,361.5,84.5,355.0" stroke="black" stroke-width="2" fill="none" />
<polyline points="91.0,360.5,94.5,362.5,94.0,368.0,93.5,372.5,92.0,377.0,91.0,382.0,93.0,385.0" stroke="black" stroke-width="2" fill="none" />
<polyline points="80.5,385.0,77.0,389.0" stroke="black" stroke-width="2" fill="none" />
<polyline points="78.0,390.5,77.0,394.5,74.5,398.5,70.5,396.5,71.5,400.5,69.0,404.5,72.5,407.0,74.0,408.5,73.5,411.0" stroke="black" stroke-width="2" fill="none" />
<polyline points="70.0,416.0,71.5,420.0" stroke="black" stroke-width="2" fill="none" />
<polyline points="71.0,421.0,66.0,421.0,66.5,417.0,67.5,413.5,69.0,409.5,67.5,413.0" stroke="black" stroke-width="2" fill="none" />
<polyline points="61.0,401.0,66.5,397.5,71.0,393.5,75.5,389.0,77.0,386.5,79.0,382.0,76.5,386.0,72.0,391.0,68.0,395.0,64.5,398.5,60.5,401.5,63.0,397.0,67.0,393.5,70.5,389.5,75.0,385.0,78.5,381.0,83.0,377.0,81.0,379.5,77.0,383.0,72.5,386.5,68.5,390.0,64.5,394.5,61.0,399.5" stroke="black" stroke-width="2" fill="none" />
<polyline points="66.0,370.0,65.0,364.0,69.0,360.0,72.5,355.5,76.5,351.5,79.0,347.5,82.0,343.5,85.5,339.5,88.5,337.0,84.5,340.5,80.5,345.5,76.0,351.0,72.0,355.5,67.5,360.0,61.5,363.5,65.5,360.0,68.5,356.0,71.0,352.0,74.5,348.0,78.0,344.5,81.5,340.5,86.0,336.5,90.5,332.5,93.0,328.0,95.0,324.0,98.0,320.5,99.0,316.5,102.5,315.5,104.5,311.5,108.0,309.5,112.5,305.5,117.5,302.0,123.0,298.0,127.0,296.0,130.0,292.0,132.5,288.5,131.0,282.5,132.5,277.0,138.0,273.0,141.0,269.0,146.5,265.0,150.5,260.5,150.5,255.5,150.5,254.5,151.0,250.5,149.0,247.5,145.0,247.5" stroke="black" stroke-width="2" fill="none" />
<polyline points="145.5,250.0,149.5,250.0,145.0,250.0,147.0,254.0,142.0,258.0" stroke="black" stroke-width="2" fill="none" />
<polyline points="137.5,253.5,133.5,254.5" stroke="black" stroke-width="2" fill="none" />
<polyline points="126.5,247.5,131.0,244.5,128.0,246.5,127.0,250.5,130.0,254.5,130.0,259.0,131.0,263.0,132.0,267.0,128.5,268.0,129.5,266.5,126.5,269.0,124.0,273.0,119.5,276.5,113.5,280.0,112.5,285.5" stroke="black" stroke-width="2" fill="none" />
<polyline points="115.0,284.5,112.0,286.0,108.0,288.5,105.5,286.0,102.0,290.0,98.5,291.0,94.5,292.5,90.5,292.5,86.5,294.5,82.5,296.5,89.5,293.5" stroke="black" stroke-width="2" fill="none" />
<polyline points="86.5,295.5,81.5,298.5,85.5,296.5,90.0,296.5,94.0,295.0,98.0,295.5,102.5,293.0,107.0,292.0,111.5,290.0,116.0,286.5" stroke="black" stroke-width="2" fill="none" />
<polyline points="114.5,287.5,109.5,291.5,106.0,295.0" stroke="black" stroke-width="2" fill="none" />
<polyline points="107.0,295.0,103.0,297.0,100.5,301.5,96.5,301.5,93.5,304.5,88.5,306.5,85.0,308.0,81.0,310.5,81.5,310.0,90.5,306.0,92.5,302.0,94.5,297.5,95.5,294.0,99.0,286.5,106.5,282.5,103.5,281.5" stroke="black" stroke-width="2" fill="none" />
<polyline points="104.5,286.5,101.5,290.5" stroke="black" stroke-width="2" fill="none" />
<polyline points="95.0,281.0,98.5,280.0,102.0,276.0,98.5,280.0,92.5,280.0,96.5,288.5,96.5,288.0,101.0,286.5,101.0,284.0,105.5,284.5,109.0,282.5,110.0,279.0,112.5,280.0,113.0,280.5,117.0,277.5,120.5,275.0,124.5,271.0" stroke="black" stroke-width="2" fill="none" />
<polyline points="125.5,275.5,129.0,278.0,132.5,277.0,136.5,274.0,140.5,268.5,145.0,265.5,149.0,261.0,152.5,259.0,146.0,266.5,142.0,271.0,140.5,272.5,144.5,268.5,151.0,263.5" stroke="black" stroke-width="2" fill="none" />
<polyline points="152.0,267.0,156.0,262.0,160.5,256.5" stroke="black" stroke-width="2" fill="none" />
<polyline points="162.5,250.5,164.5,249.0,163.0,250.0,163.5,254.0,161.5,258.0,158.5,262.5,156.5,264.5,161.0,267.0,161.0,271.0,159.0,275.0,158.5,273.0,156.0,274.0" stroke="black" stroke-width="2" fill="none" />
<polyline points="154.5,278.0,156.5,282.0,159.5,286.0,162.0,292.0,166.0,292.0,169.5,290.0,171.0,286.5" stroke="black" stroke-width="2" fill="none" />
<polyline points="170.5,293.5,174.0,291.0,179.0,294.0,176.5,298.0,175.5,301.5,177.0,305.5,179.5,309.5,182.0,313.5" stroke="black" stroke-width="2" fill="none" />
<polyline points="185.5,305.0,181.5,300.5" stroke="black" stroke-width="2" fill="none" />
<polyline points="179.5,297.5,179.0,302.5,184.0,308.0" stroke="black" stroke-width="2" fill="none" />
<polyline points="174.5,307.0,175.5,311.0,173.5,313.0" stroke="black" stroke-width="2" fill="none" />
<polyline points="174.5,298.5,178.5,294.5,179.5,294.0" stroke="black" stroke-width="2" fill="none" />
<polyline points="172.5,297.0,173.0,301.0,173.5,303.5,171.0,307.5,167.0,312.0,169.0,314.5,168.0,316.5,171.0,317.5" stroke="black" stroke-width="2" fill="none" />
<polyline points="168.5,307.0,161.0,312.0,157.0,310.5" stroke="black" stroke-width="2" fill="none" />
<polyline points="155.5,316.5,154.5,316.0,155.5,320.0,159.5,326.0,161.5,329.5,160.0,333.5,161.0,330.0,164.5,328.5" stroke="black" stroke-width="2" fill="none" />
<polyline points="175.0,331.0,171.0,335.0,168.5,338.5,171.5,334.5,175.5,332.5" stroke="black" stroke-width="2" fill="none" />
<polyline points="176.5,344.5,172.5,350.0,169.5,354.5,171.0,352.0,176.0,345.5" stroke="black" stroke-width="2" fill="none" />
<polyline points="153.0,328.0,149.0,326.0,145.0,324.5" stroke="black" stroke-width="2" fill="none" />
<polyline points="147.0,327.5,147.5,332.0,146.0,336.0,148.0,337.5,143.5,340.0,145.5,345.0,146.0,349.0,142.5,352.0,143.5,355.5" stroke="black" stroke-width="2" fill="none" />
<polyline points="150.0,361.5,150.0,365.5,153.0,368.5,152.0,372.5,152.5,379.0,149.5,381.5,149.5,385.5,151.5,387.5,151.5,394.0,149.5,397.0,150.0,402.5,153.5,404.5" stroke="black" stroke-width="2" fill="none" />
<polyline points="134.0,391.0,131.0,385.5,127.5,386.0,126.0,379.0,123.0,372.0,122.5,365.0,116.5,368.0,117.0,363.5" stroke="black" stroke-width="2" fill="none" />
<polyline points="110.5,362.0,110.5,362.5,113.5,358.0,112.0,354.0" stroke="black" stroke-width="2" fill="none" />
<polyline points="107.5,352.0,107.0,356.0,107.0,360.0,106.0,364.0,105.0,368.0,104.5,372.0,104.5,376.0" stroke="black" stroke-width="2" fill="none" />
<polyline points="93.5,359.5,97.5,357.0" stroke="black" stroke-width="2" fill="none" />
<polyline points="86.0,349.0,82.0,353.5,78.0,362.0,74.0,369.0" stroke="black" stroke-width="2" fill="none" />
<polyline points="66.5,357.0,70.5,352.0,74.5,347.5,78.0,342.5,82.0,338.0,85.5,334.5,90.0,331.0,93.5,327.0,93.5,331.0,93.5,335.5,93.5,339.5,95.5,342.5,99.5,338.0,103.0,334.0,107.0,329.0" stroke="black" stroke-width="2" fill="none" />
<polyline points="116.5,339.5,117.5,343.5,117.0,347.5,117.0,351.5,117.0,355.5,116.5,359.5,114.5,363.0,113.5,367.5" stroke="black" stroke-width="2" fill="none" />
<polyline points="87.0,342.5,86.5,346.5,83.0,352.0,81.0,356.0,79.5,360.5,76.5,364.0,74.5,368.0,75.0,372.0" stroke="black" stroke-width="2" fill="none" />
<polyline points="93.0,300.0,97.0,298.5" stroke="black" stroke-width="2" fill="none" />
<polyline points="90.0,277.5,94.5,274.5" stroke="black" stroke-width="2" fill="none" />
<polyline points="92.0,275.5,90.5,279.5,92.0,283.5,93.5,284.0" stroke="black" stroke-width="2" fill="none" />
<polyline points="107.0,267.0,108.5,271.5,106.0,268.0,112.5,267.5,116.5,270.0,119.5,269.5" stroke="black" stroke-width="2" fill="none" />
<polyline points="118.5,271.5,113.5,267.0,115.5,263.0,113.0,267.0" stroke="black" stroke-width="2" fill="none" />
<polyline points="106.5,265.5,110.5,261.0,114.5,259.5" stroke="black" stroke-width="2" fill="none" />
<polyline points="121.5,252.5,116.0,257.0,110.0,260.0,107.0,264.0,106.0,268.0,98.5,272.5,100.5,271.5,102.5,274.0,106.5,274.0" stroke="black" stroke-width="2" fill="none" />
<polyline points="127.5,278.0,131.5,283.5,135.0,286.5" stroke="black" stroke-width="2" fill="none" />
<polyline points="135.5,278.0,139.5,275.5" stroke="black" stroke-width="2" fill="none" />
<polyline points="147.0,270.5,151.0,266.0,155.0,261.5" stroke="black" stroke-width="2" fill="none" />
<polyline points="166.5,260.5,164.0,261.0,165.0,264.0,166.5,258.5,170.5,250.5" stroke="black" stroke-width="2" fill="none" />
<polyline points="170.0,255.5,174.5,253.0,175.5,256.5,176.0,260.5,175.5,265.0" stroke="black" stroke-width="2" fill="none" />
<polyline points="181.0,264.5,179.5,261.0,178.0,254.5" stroke="black" stroke-width="2" fill="none" />
<polyline points="175.5,255.5,179.5,263.0" stroke="black" stroke-width="2" fill="none" />
<polyline points="182.5,263.5,179.5,259.5" stroke="black" stroke-width="2" fill="none" />
<polyline points="185.0,255.5,185.5,259.0,185.5,263.5" stroke="black" stroke-width="2" fill="none" />
<polyline points="186.0,272.5,185.0,268.5,184.0,264.0,184.0,260.0,184.0,256.0,183.0,253.0" stroke="black" stroke-width="2" fill="none" />
<polyline points="190.0,253.0,193.0,253.0,193.5,257.0,195.5,261.0,198.5,265.0" stroke="black" stroke-width="2" fill="none" />
<polyline points="205.0,264.0,201.5,261.0,197.5,256.5" stroke="black" stroke-width="2" fill="none" />
<polyline points="195.0,249.5,195.5,257.5,199.5,262.0,203.5,263.5" stroke="black" stroke-width="2" fill="none" />
<polyline points="208.5,256.0,206.0,252.0,204.5,251.0" stroke="black" stroke-width="2" fill="none" />
<polyline points="208.0,248.0,212.0,250.5" stroke="black" stroke-width="2" fill="none" />
<polyline points="214.0,240.5,215.5,240.0,216.5,244.0,214.5,248.0,221.5,242.0" stroke="black" stroke-width="2" fill="none" />
<polyline points="224.0,243.0,224.0,248.0" stroke="black" stroke-width="2" fill="none" />
<polyline points="227.0,247.0,223.0,252.5,219.0,259.0,215.0,265.5,211.5,273.0,207.5,279.5,203.5,286.0,199.5,293.5,195.5,302.0,191.5,310.5,187.0,317.0,183.0,322.0,179.0,329.5,175.0,330.5,171.0,330.5,167.5,333.5,163.5,335.5,160.5,340.5,156.5,342.0,153.0,345.0,149.0,347.0,145.5,351.0,143.5,345.5,143.0,341.5,139.0,338.0,139.5,334.0,138.0,330.0,134.5,325.5,134.0,321.5,134.0,317.5,133.0,313.5,131.0,305.0" stroke="black" stroke-width="2" fill="none" />
<polyline points="128.5,299.5,128.5,303.5,131.0,306.5,128.5,310.0,129.5,314.0,129.0,318.0,130.0,319.0,131.0,323.0,132.0,326.5,133.5,331.5,134.5,333.5,136.5,334.5,137.5,339.0,139.0,344.5,142.5,350.5,139.5,354.0,143.5,359.0,145.5,363.0,145.5,366.5,142.5,367.5" stroke="black" stroke-width="2" fill="none" />
<polyline points="118.5,311.0,116.5,314.5,114.5,319.0,112.5,323.0,110.5,328.0,107.5,332.0,104.0,337.0,100.0,341.5,98.0,345.5,99.0,349.5,95.0,352.5,94.0,357.5,91.0,361.5,90.5,365.5,90.0,369.5,89.5,373.5,87.0,376.0,86.5,380.0,89.5,382.0,89.0,386.5,90.5,387.5,88.5,390.5,88.5,394.0,89.0,398.0,92.0,401.5,96.5,403.5,95.5,407.5,98.5,414.0,101.0,415.0" stroke="black" stroke-width="2" fill="none" />
<polyline points="6.5,398.5,2.5,397.0" stroke="black" stroke-width="2" fill="none" />
<polyline points="3.0,398.5,3.0,402.5,3.5,406.5,3.5,410.5,3.5,414.0,3.5,417.5,5.0,420.0,7.0,424.0,9.0,428.0,9.5,432.0,9.5,436.0,10.5,440.0,10.5,444.0,10.5,448.0,11.0,451.0,11.0,454.5,11.5,459.0,11.5,463.0,12.5,467.0,12.5,471.0,12.0,475.0" stroke="black" stroke-width="2" fill="none" />
<polyline points="29.5,324.5,31.0,321.0,30.0,317.0,29.5,313.0,29.0,309.0,30.0,304.5,29.5,300.5,30.5,292.5,29.5,288.5,29.0,287.5" stroke="black" stroke-width="2" fill="none" />
<polyline points="118.0,308.5,116.0,312.5,109.0,316.5,105.5,319.0,109.5,314.0,113.5,310.0,117.5,304.0,121.5,299.5,127.0,295.0,131.5,292.0,136.0,288.5" stroke="black" stroke-width="2" fill="none" />
<polyline points="144.0,283.0,141.0,285.0,137.0,287.0,131.0,291.5,126.5,295.5,131.5,293.0,136.0,289.5,137.5,292.0,133.5,296.0,129.0,298.5,125.0,301.0" stroke="black" stroke-width="2" fill="none" />
<polyline points="125.5,307.5,124.0,311.5,123.0,316.0,123.0,320.5,123.5,324.5,124.0,328.5,126.5,329.5,126.0,333.5,125.0,339.5,126.5,343.5,132.0,348.0,136.0,352.0,142.0,358.5,145.5,355.0,151.5,353.0" stroke="black" stroke-width="2" fill="none" />
<polyline points="159.0,299.0,155.0,295.5" stroke="black" stroke-width="2" fill="none" />
<polyline points="154.0,294.0,157.5,298.0" stroke="black" stroke-width="2" fill="none" />
<polyline points="162.5,303.5,161.5,299.5,161.0,294.0,157.0,291.0,153.0,287.0" stroke="black" stroke-width="2" fill="none" />
<polyline points="153.5,284.0,157.5,287.5,161.0,290.0,165.0,286.5" stroke="black" stroke-width="2" fill="none" />
<polyline points="165.5,280.0,161.5,275.0,163.5,268.5,163.5,271.5" stroke="black" stroke-width="2" fill="none" />
<polyline points="153.5,281.0,156.5,281.0,158.0,285.0,160.0,285.5,164.0,285.5" stroke="black" stroke-width="2" fill="none" />
<polyline points="160.5,294.5,156.5,293.5,152.5,291.0" stroke="black" stroke-width="2" fill="none" />
<polyline points="163.0,302.5,162.5,298.5,158.5,292.0,154.0,288.0,152.0,284.0,148.5,280.5,150.5,280.5,149.5,274.5,150.0,270.5,148.5,272.0" stroke="black" stroke-width="2" fill="none" />
<polyline points="139.0,265.0,137.5,266.5,137.0,264.0,140.0,257.5,133.0,253.5,131.0,249.5,135.5,246.5,134.5,245.5,136.5,241.5,139.5,238.0,137.0,234.0,134.5,230.0,133.0,226.0,132.0,222.5,132.0,218.5,131.5,214.5,130.0,210.0,127.5,205.5,125.0,201.5,123.5,197.5,122.5,193.0,121.5,189.0,120.5,185.0,120.5,181.0,120.5,177.0,120.0,173.0,120.5,169.0,121.0,165.0,120.5,161.0,120.5,157.0,120.0,153.0,120.5,149.0,121.0,145.0,121.0,141.0,122.5,137.0,122.5,133.0,123.5,129.0,124.5,124.5,126.0,120.5,127.5,116.5,130.0,112.5,131.5,108.5,134.5,105.0,131.5,109.5,127.5,119.0" stroke="black" stroke-width="2" fill="none" />
<polyline points="135.5,107.0,134.5,110.5,133.5,114.5,132.5,118.5,132.5,122.5,130.0,126.0,129.5,126.5,131.5,127.0,132.5,126.5,132.5,130.5,129.5,134.5,129.0,138.5,127.0,142.5,127.0,147.0,128.5,148.5,127.5,154.0,128.5,156.5,132.5,156.5,129.0,160.5,127.0,162.0,130.0,157.0,133.0,158.0,134.0,162.0,132.5,163.0,133.5,164.0" stroke="black" stroke-width="2" fill="none" />
<polyline points="130.5,168.5,128.5,170.0" stroke="black" stroke-width="2" fill="none" />
<polyline points="128.0,167.0,132.0,162.5" stroke="black" stroke-width="2" fill="none" />
<polyline points="142.0,164.0,139.0,168.0,140.0,169.0,135.0,170.5,131.0,175.0,135.0,173.0,137.5,171.0,141.5,169.0" stroke="black" stroke-width="2" fill="none" />
<polyline points="141.0,172.0,136.5,174.0,135.0,178.5,135.5,178.0,138.0,177.5,142.0,176.0" stroke="black" stroke-width="2" fill="none" />
<polyline points="142.0,180.0,146.0,175.5,143.0,176.5,139.5,177.5,137.5,181.5,134.5,185.5,138.0,185.0,138.5,180.5,142.5,177.0,149.0,174.0,142.5,179.0,141.0,183.0,136.5,187.0,135.0,192.0,142.0,189.5,146.5,188.5,150.5,193.5" stroke="black" stroke-width="2" fill="none" />
<polyline points="150.0,196.0,151.0,191.0,147.0,186.0" stroke="black" stroke-width="2" fill="none" />
<polyline points="144.5,187.0,147.5,191.0,146.5,195.0,148.0,199.0" stroke="black" stroke-width="2" fill="none" />
<polyline points="149.5,197.0,145.5,191.5" stroke="black" stroke-width="2" fill="none" />
<polyline points="146.5,192.5,150.0,196.5" stroke="black" stroke-width="2" fill="none" />
<polyline points="152.0,200.5,149.0,204.5,150.0,208.5,146.0,210.0,148.5,205.0" stroke="black" stroke-width="2" fill="none" />
<polyline points="145.5,197.0,142.0,196.0,138.0,197.5" stroke="black" stroke-width="2" fill="none" />
<polyline points="140.0,193.0,138.0,197.0,136.5,203.0,138.0,205.0" stroke="black" stroke-width="2" fill="none" />
<polyline points="130.0,207.5,126.0,200.5" stroke="black" stroke-width="2" fill="none" />
<polyline points="143.5,194.0,146.5,197.5,145.5,199.0,146.5,203.0,145.0,207.0,143.5,211.5,146.0,214.0,143.5,218.0,141.5,222.0,140.5,225.5,140.0,229.5,140.5,233.5" stroke="black" stroke-width="2" fill="none" />
<polyline points="139.5,224.0,143.0,216.5" stroke="black" stroke-width="2" fill="none" />
<polyline points="133.0,225.5,137.5,234.5,137.5,242.0,136.5,239.5" stroke="black" stroke-width="2" fill="none" />
<polyline points="138.0,245.0,142.0,244.0,146.0,244.0" stroke="black" stroke-width="2" fill="none" />
<polyline points="137.5,243.0,132.5,244.5" stroke="black" stroke-width="2" fill="none" />
<polyline points="113.0,230.0,113.5,226.5,110.5,230.5,113.0,227.0" stroke="black" stroke-width="2" fill="none" />
<polyline points="155.5,228.5,159.5,224.0,156.5,228.0,150.5,235.0,147.5,239.0,141.0,246.0,142.0,251.5,142.5,255.0,144.0,258.0,148.0,257.5,153.0,255.0,155.5,248.5,160.0,245.0,164.0,242.5,164.5,236.0,165.0,239.0,163.0,243.0,158.5,246.5,156.0,250.5,155.5,254.5,161.5,251.0,165.5,245.0,170.5,239.5,169.0,239.0,167.0,243.0,164.0,247.0,162.0,251.0,160.0,254.5,158.5,258.5,154.5,263.0,152.0,267.0,148.0,271.0,148.5,275.0,148.0,278.5,149.0,282.5,153.0,287.0,149.5,289.0,151.5,293.0,154.5,297.0,157.0,296.5,158.0,303.0,157.0,308.0,156.5,312.0,160.0,313.0,156.5,316.0,157.0,314.5,158.5,313.0,164.5,313.0,168.5,310.0,173.5,304.0" stroke="black" stroke-width="2" fill="none" />
<polyline points="218.0,308.0,217.5,312.0,216.5,315.5,216.0,319.5,215.5,323.0,215.5,327.0,215.5,331.0,215.5,335.5,216.5,339.0,216.5,343.0,217.5,346.5,217.5,350.5,217.0,354.5,217.0,359.0" stroke="black" stroke-width="2" fill="none" />
<polyline points="221.5,345.0,220.5,343.0,222.0,339.0,219.0,333.0,220.5,327.5,220.5,322.5,218.5,319.0,219.0,314.5,218.5,310.5,218.5,306.5" stroke="black" stroke-width="2" fill="none" />
<polyline points="212.5,277.5,210.5,281.5,208.0,285.5,205.0,289.5,202.5,293.5,200.5,298.0,198.5,302.0,196.5,306.5,194.5,310.5,193.0,314.5,191.0,318.0,190.0,319.5,193.0,312.5,197.0,303.5,200.5,295.5,205.0,288.0,209.0,281.0,213.0,273.5" stroke="black" stroke-width="2" fill="none" />
<polyline points="213.0,253.5,213.0,250.5,213.5,246.5,214.5,242.5,213.5,239.0,213.5,238.5" stroke="black" stroke-width="2" fill="none" />
<polyline points="211.0,238.5,211.5,237.5,210.0,238.0,208.5,241.5,207.5,245.5,209.0,248.5,211.0,252.5" stroke="black" stroke-width="2" fill="none" />
<polyline points="205.0,266.5,199.0,262.5,196.5,258.5,195.0,254.0,192.0,251.0" stroke="black" stroke-width="2" fill="none" />
<polyline points="177.5,244.5,176.0,248.5,173.5,252.0,170.0,255.5,169.5,259.5,169.0,263.5,168.5,268.5,168.5,273.5,171.0,278.0,168.0,285.0,170.5,281.5,173.0,279.5" stroke="black" stroke-width="2" fill="none" />
<polyline points="173.5,238.0,175.0,237.0,173.0,236.0,177.0,235.0" stroke="black" stroke-width="2" fill="none" />
<polyline points="197.5,238.0,193.5,242.0,189.5,246.0,189.0,244.0,193.5,239.5,198.0,235.5" stroke="black" stroke-width="2" fill="none" />
<polyline points="199.0,234.5,195.0,237.5,191.0,241.0,187.0,244.5,185.5,246.0,193.0,243.5,197.5,239.5,199.5,235.5" stroke="black" stroke-width="2" fill="none" />
<polyline points="217.5,227.0,222.5,229.0,227.0,231.5,233.0,237.5" stroke="black" stroke-width="2" fill="none" />
<polyline points="239.0,248.0,233.0,256.5,228.0,263.5,223.5,271.0,219.0,278.5,215.0,284.0,216.5,281.0,219.0,277.0,220.5,273.0,224.5,266.5,227.5,260.0,232.0,254.5,234.5,250.0" stroke="black" stroke-width="2" fill="none" />
<polyline points="247.5,270.0,253.0,272.5" stroke="black" stroke-width="2" fill="none" />
<polyline points="249.5,269.5,253.5,271.5,257.5,274.5" stroke="black" stroke-width="2" fill="none" />
<polyline points="262.0,269.0,266.0,271.0" stroke="black" stroke-width="2" fill="none" />
<polyline points="265.0,270.5,269.0,272.0,272.5,270.5" stroke="black" stroke-width="2" fill="none" />
<polyline points="272.5,270.0,271.0,266.0,271.0,265.0" stroke="black" stroke-width="2" fill="none" />
<polyline points="271.0,263.5,275.5,261.5,279.5,264.0,283.5,267.0" stroke="black" stroke-width="2" fill="none" />
<polyline points="286.0,265.5,286.5,265.5,287.0,269.5,286.5,274.0" stroke="black" stroke-width="2" fill="none" />
<polyline points="285.0,275.0,280.0,276.0,276.5,276.5,272.5,276.5,267.0,277.0,262.5,276.0,258.0,277.5,256.0,273.5,257.5,270.0,258.0,266.5,256.5,267.0" stroke="black" stroke-width="2" fill="none" />
<polyline points="263.0,266.5,267.0,268.5,269.5,266.0,271.0,270.0" stroke="black" stroke-width="2" fill="none" />
<polyline points="264.0,266.0,262.5,266.5,260.5,268.0,263.5,272.0,266.5,277.5,268.5,279.5" stroke="black" stroke-width="2" fill="none" />
<polyline points="274.0,278.5,274.0,282.5,275.0,282.0,280.5,281.5" stroke="black" stroke-width="2" fill="none" />
<polyline points="281.0,275.5,282.5,273.5,283.0,269.0,278.0,265.0" stroke="black" stroke-width="2" fill="none" />
<polyline points="281.0,258.0,286.5,262.0,289.5,266.0,289.0,268.5" stroke="black" stroke-width="2" fill="none" />
<polyline points="288.5,261.0,287.0,256.5,282.5,256.5,279.0,255.0,274.5,256.5,271.0,252.0,269.0,255.5,265.0,256.0,261.5,258.0,257.5,258.0" stroke="black" stroke-width="2" fill="none" />
<polyline points="267.5,248.0,271.5,248.5,276.0,250.0,280.5,250.5,284.5,252.0" stroke="black" stroke-width="2" fill="none" />
<polyline points="289.5,251.5,297.5,255.5" stroke="black" stroke-width="2" fill="none" />
<polyline points="296.5,253.0,292.0,251.5,288.0,249.5,284.5,249.0,280.5,248.5,276.0,247.5" stroke="black" stroke-width="2" fill="none" />
<polyline points="278.0,252.0,280.5,256.0,272.0,257.0" stroke="black" stroke-width="2" fill="none" />
<polyline points="268.5,256.0,270.5,252.0" stroke="black" stroke-width="2" fill="none" />
<polyline points="265.5,239.5,265.5,235.5" stroke="black" stroke-width="2" fill="none" />
<polyline points="294.5,226.0,292.0,229.0,295.5,226.0" stroke="black" stroke-width="2" fill="none" />
<polyline points="340.5,202.5,344.5,205.0,348.5,208.0" stroke="black" stroke-width="2" fill="none" />
<polyline points="355.0,205.0,352.0,201.5,350.5,197.0" stroke="black" stroke-width="2" fill="none" />
<polyline points="349.5,197.5,350.0,201.5,354.0,205.5,355.0,210.0,360.5,215.0" stroke="black" stroke-width="2" fill="none" />
<polyline points="362.0,204.0,360.5,201.5,358.5,200.0,358.5,196.5" stroke="black" stroke-width="2" fill="none" />
<polyline points="359.0,196.0,358.5,200.0,358.5,203.5,354.5,210.0,356.5,213.0,357.5,215.0,360.0,217.5,361.0,221.5,362.5,225.0,360.5,229.5,362.0,233.5,363.0,237.5,363.5,242.0,366.0,247.0,367.0,247.5,367.5,251.5,366.5,255.5,364.5,260.0,366.0,260.0,367.0,261.0,366.0,265.0,364.0,266.5,364.0,270.0,363.0,273.5,363.0,277.5,362.0,282.0" stroke="black" stroke-width="2" fill="none" />
<polyline points="364.0,272.5,364.0,276.5,364.0,280.0,364.0,284.0,364.0,288.0,362.0,291.5,362.0,295.0,363.0,295.5,362.5,299.5,362.5,303.0,362.5,305.5,361.5,309.5,363.5,311.5" stroke="black" stroke-width="2" fill="none" />
<polyline points="377.0,316.0,377.0,312.5,379.0,310.0,378.5,306.0,377.0,301.5,376.5,297.5" stroke="black" stroke-width="2" fill="none" />
<polyline points="373.0,295.5,373.0,299.5,373.0,303.5,379.0,310.0,379.5,313.5,379.5,317.5,380.5,321.0,382.0,323.5,380.5,328.0,381.0,332.0,378.5,337.5,379.5,341.5,379.5,346.0,381.0,350.0,380.5,353.5,381.5,357.5" stroke="black" stroke-width="2" fill="none" />
<polyline points="360.5,304.5,361.0,300.0,360.0,296.5" stroke="black" stroke-width="2" fill="none" />
<polyline points="381.0,288.5,380.5,284.5" stroke="black" stroke-width="2" fill="none" />
<polyline points="379.0,289.5,379.0,285.0,381.0,280.5,380.5,276.5" stroke="black" stroke-width="2" fill="none" />
<polyline points="371.5,273.5,372.0,277.5,372.5,281.5,372.5,285.5" stroke="black" stroke-width="2" fill="none" />
<polyline points="371.5,288.0,371.5,283.5,370.5,279.5,370.5,275.0,371.5,271.0,371.5,267.0,371.0,263.0" stroke="black" stroke-width="2" fill="none" />
<polyline points="382.0,269.0,382.5,266.5,380.5,265.5,380.5,261.5,380.5,258.0,381.5,254.0" stroke="black" stroke-width="2" fill="none" />
<polyline points="374.0,247.5,373.5,240.5,373.0,236.5,372.5,232.5" stroke="black" stroke-width="2" fill="none" />
<polyline points="363.0,193.5,367.0,194.0,371.0,192.5,375.0,191.5,379.0,191.0" stroke="black" stroke-width="2" fill="none" />
<polyline points="381.0,180.0,385.0,178.5,389.0,176.5,393.0,172.5,399.0,167.5" stroke="black" stroke-width="2" fill="none" />
<polyline points="397.0,168.5,393.0,172.5,397.0,170.5,401.5,169.0" stroke="black" stroke-width="2" fill="none" />
<polyline points="402.5,167.5,393.5,171.5,389.0,175.0" stroke="black" stroke-width="2" fill="none" />
<polyline points="406.0,170.0,402.5,174.0,398.0,180.0,394.0,183.0,390.0,186.5,386.0,188.5,382.0,188.5,387.0,187.0,393.0,183.0,397.0,179.0,398.5,175.0,402.0,171.0,406.5,167.0" stroke="black" stroke-width="2" fill="none" />
<polyline points="404.5,157.0,400.5,161.0,396.5,165.0,392.0,168.5,388.5,172.0,392.0,168.0,396.0,164.0,400.5,160.0,404.5,156.5" stroke="black" stroke-width="2" fill="none" />
<polyline points="398.0,123.0,392.5,127.0,387.5,130.5,385.5,132.0,389.5,128.5,393.5,125.0,397.5,122.0" stroke="black" stroke-width="2" fill="none" />
<polyline points="396.5,121.5,391.0,125.5,385.5,129.5,386.0,129.0,390.0,126.0,394.0,122.5" stroke="black" stroke-width="2" fill="none" />
<polyline points="400.0,113.5,393.0,117.5,388.0,121.5,383.0,125.5,377.5,129.0,371.0,133.0,364.5,136.5,357.5,140.5,351.0,144.5" stroke="black" stroke-width="2" fill="none" />
<polyline points="301.5,134.5,297.0,138.5,294.5,140.0,298.5,137.0" stroke="black" stroke-width="2" fill="none" />
<polyline points="300.0,133.0,295.0,137.0,290.5,141.5,294.0,138.5,298.5,135.0,302.5,133.0" stroke="black" stroke-width="2" fill="none" />
<polyline points="255.5,133.5,251.5,136.5,246.5,140.5,252.0,135.5,253.5,137.0" stroke="black" stroke-width="2" fill="none" />
<polyline points="239.5,146.5,235.0,143.5" stroke="black" stroke-width="2" fill="none" />
<polyline points="234.5,144.0,237.0,149.5,243.0,146.0" stroke="black" stroke-width="2" fill="none" />
<polyline points="235.0,144.5,235.5,146.0,236.0,151.0,231.0,155.0,229.5,156.5,234.0,153.0" stroke="black" stroke-width="2" fill="none" />
<polyline points="223.5,157.5,219.5,154.0" stroke="black" stroke-width="2" fill="none" />
<polyline points="217.5,154.5,221.5,158.5,220.5,162.5" stroke="black" stroke-width="2" fill="none" />
<polyline points="211.0,152.5,206.5,155.0,208.5,151.5" stroke="black" stroke-width="2" fill="none" />
<polyline points="205.5,143.0,201.5,147.0,199.5,149.0,204.0,145.0,209.0,141.0" stroke="black" stroke-width="2" fill="none" />
<polyline points="216.0,135.0,218.0,134.0" stroke="black" stroke-width="2" fill="none" />
<polyline points="221.5,130.5,226.0,127.0,231.5,124.0,236.0,121.0" stroke="black" stroke-width="2" fill="none" />
<polyline points="236.0,120.5,228.5,125.5,222.5,129.5,215.0,134.0,211.5,136.5,206.5,138.5,204.0,142.5,199.0,146.5,194.5,150.5,190.0,154.5,185.5,158.5,181.5,162.5,177.0,166.5,172.5,170.5,169.0,174.5,165.5,178.0,161.0,182.0,158.5,186.0,162.0,181.0,166.0,175.5,170.0,171.0,174.0,167.5,178.0,163.5,182.0,161.0,186.0,157.0,190.0,153.5,194.0,150.0,198.0,146.5,202.0,143.5,205.5,139.0,208.5,138.5,212.5,135.5,216.5,133.0,222.0,127.5" stroke="black" stroke-width="2" fill="none" />
<polyline points="205.5,116.5,200.5,122.0,202.5,117.5" stroke="black" stroke-width="2" fill="none" />
<polyline points="187.5,121.5,184.5,123.5" stroke="black" stroke-width="2" fill="none" />
<polyline points="184.0,123.5,181.5,125.0,187.0,121.0" stroke="black" stroke-width="2" fill="none" />
<polyline points="190.0,133.0,185.5,136.5,189.5,133.5" stroke="black" stroke-width="2" fill="none" />
<polyline points="155.0,129.5,150.5,133.0,155.0,129.5" stroke="black" stroke-width="2" fill="none" />
<polyline points="154.0,127.0,149.5,131.0,152.0,129.5" stroke="black" stroke-width="2" fill="none" />
<polyline points="138.0,154.0,139.0,158.0,132.0,161.5,128.0,166.0,131.0,168.0,131.0,172.5,133.5,176.5,132.0,175.5,136.0,172.0,136.5,168.5,141.0,168.5,141.0,165.5" stroke="black" stroke-width="2" fill="none" />
<polyline points="149.5,173.0,147.5,177.0,144.0,181.0,143.5,183.5,143.5,187.5,141.5,191.5,136.5,197.5,143.5,199.5,143.0,203.5" stroke="black" stroke-width="2" fill="none" />
<polyline points="139.0,193.5,136.0,191.5,139.5,187.5" stroke="black" stroke-width="2" fill="none" />
<polyline points="142.0,183.5,146.0,180.0,147.5,180.5,144.5,184.5,149.5,189.0,155.5,191.5" stroke="black" stroke-width="2" fill="none" />
<polyline points="146.0,180.5,142.5,183.0" stroke="black" stroke-width="2" fill="none" />
<polyline points="171.5,193.5,167.5,198.5,167.0,202.0,167.0,199.0,171.0,195.0" stroke="black" stroke-width="2" fill="none" />
<polyline points="182.0,208.5,186.0,213.0,184.0,218.0,181.0,221.5,180.0,227.0,179.0,227.5,179.5,227.5" stroke="black" stroke-width="2" fill="none" />
<polyline points="190.0,217.5,188.0,215.0,185.0,216.5,181.5,216.5,181.5,212.0,182.0,211.5" stroke="black" stroke-width="2" fill="none" />
<polyline points="187.0,206.0,191.0,204.5,195.0,202.0,198.5,201.5,200.5,204.0" stroke="black" stroke-width="2" fill="none" />
<polyline points="213.0,215.5,214.0,217.0,215.5,220.5" stroke="black" stroke-width="2" fill="none" />
<polyline points="220.0,215.5,220.5,220.0,220.0,224.0,221.0,228.0,222.0,231.5,219.5,234.0,221.5,232.5,225.5,237.0" stroke="black" stroke-width="2" fill="none" />
<polyline points="221.5,215.5,219.0,219.5,218.5,224.0,217.0,227.5,217.5,231.5,217.5,235.0,221.5,237.0,221.0,241.0,219.0,245.0,218.5,249.0,216.5,250.0,216.0,254.0,215.5,256.5" stroke="black" stroke-width="2" fill="none" />
<polyline points="182.5,181.5,178.0,186.5,174.0,190.5,177.0,187.5,181.0,183.5,187.5,178.5,192.0,174.5,197.5,170.5,204.0,166.0,204.5,166.0" stroke="black" stroke-width="2" fill="none" />
<polyline points="198.5,168.5,194.5,172.0,190.0,175.5,186.0,178.5" stroke="black" stroke-width="2" fill="none" />
<polyline points="179.5,171.0,177.0,173.5,180.5,169.0" stroke="black" stroke-width="2" fill="none" />
<polyline points="238.5,98.5,232.0,102.5,229.0,106.5,223.0,110.5,216.5,114.5,211.0,119.0,206.0,122.5,200.5,126.0,196.0,130.0,190.5,134.0,187.0,138.5,183.0,142.0,179.0,146.0,175.0,150.0,171.5,154.0,167.5,158.0,163.5,162.0,158.5,166.0,156.0,169.5,154.0,172.0,157.5,167.5,161.5,164.0,165.5,160.0,170.0,157.0,174.0,153.0,178.0,148.5,182.5,144.5,186.5,141.0,190.5,137.5,195.0,134.0,199.0,130.5,203.0,127.0,207.0,123.5,211.0,120.0,215.0,116.5,219.0,114.0,222.5,111.5,226.0,108.5,230.0,106.5,234.0,103.5,237.5,100.5,241.0,98.5,245.5,96.0,249.5,93.5,253.5,91.0,257.5,89.5" stroke="black" stroke-width="2" fill="none" />
<polyline points="257.0,89.0,249.0,93.0,242.5,97.0,236.5,100.5,231.0,104.5,232.5,101.5,236.5,99.0,237.0,97.0,244.0,93.5,248.0,90.5,253.5,87.5" stroke="black" stroke-width="2" fill="none" />
<polyline points="246.0,90.5,242.5,94.5" stroke="black" stroke-width="2" fill="none" />
<polyline points="238.0,96.5,232.5,100.5" stroke="black" stroke-width="2" fill="none" />
<polyline points="224.0,85.5,226.0,82.0,228.0,82.5,229.5,78.0,234.5,72.0" stroke="black" stroke-width="2" fill="none" />
<polyline points="233.0,72.5,229.5,77.5,227.0,82.0,224.0,86.0" stroke="black" stroke-width="2" fill="none" />
<polyline points="229.5,68.5,228.5,69.0,226.5,65.0" stroke="black" stroke-width="2" fill="none" />
<polyline points="223.5,50.0,224.5,47.0,221.0,47.5,218.5,53.5,220.5,48.0,224.0,47.5,228.0,46.5,232.0,46.0,235.5,46.5,239.5,47.0,243.0,47.5,247.0,49.0,251.0,50.5,255.0,51.5,259.0,53.5,263.0,55.5,267.0,58.0,271.0,61.0,275.0,63.0,279.5,66.5,283.0,69.5,287.0,72.0,291.0,75.0,295.0,76.5,299.0,79.0,303.5,84.5,307.0,89.0,310.5,94.5,314.5,98.0,318.5,100.5,323.0,105.0,326.5,109.0,330.0,119.0,334.0,126.0,338.0,131.5,342.0,136.0,346.0,145.5,350.0,146.0,353.5,143.0,357.5,141.0,361.5,138.5,366.0,136.5,370.0,133.0,374.5,130.5,378.5,127.0,382.5,123.0,386.5,120.0,391.0,117.5,395.5,114.5,399.5,112.0,403.5,111.5,407.5,112.0,411.0,113.0,414.5,113.5,418.5,112.5,422.5,106.5,426.5,100.5,430.5,93.5,435.0,88.5,439.0,82.5,443.0,76.5" stroke="black" stroke-width="2" fill="none" />
<polyline points="488.0,103.5,484.5,106.5,480.5,111.0,476.5,117.0,472.5,123.5,468.5,129.5,464.5,135.5,461.0,142.0,457.0,149.0" stroke="black" stroke-width="2" fill="none" />
<polyline points="450.0,161.5,446.0,168.0" stroke="black" stroke-width="2" fill="none" />
<polyline points="440.5,176.0,437.0,184.0,433.0,193.0,429.0,201.5,426.0,212.0" stroke="black" stroke-width="2" fill="none" />
<polyline points="419.5,227.5,415.5,236.0" stroke="black" stroke-width="2" fill="none" />
<polyline points="401.5,278.0,400.5,282.5" stroke="black" stroke-width="2" fill="none" />
<polyline points="481.0,289.0,475.5,296.5,480.0,291.0,484.0,287.0" stroke="black" stroke-width="2" fill="none" />
<polyline points="351.0,203.0,347.0,198.0" stroke="black" stroke-width="2" fill="none" />
<polyline points="345.5,199.0,344.0,203.0,344.5,208.0,346.5,210.5,347.5,212.0,351.5,215.5,354.5,219.5,356.0,223.5" stroke="black" stroke-width="2" fill="none" />
<polyline points="356.0,207.5,352.5,203.5,348.5,204.0,345.5,200.0" stroke="black" stroke-width="2" fill="none" />
<polyline points="390.0,109.5,384.0,107.0,380.0,101.5,380.0,97.5" stroke="black" stroke-width="2" fill="none" />
<polyline points="440.5,67.5,436.5,61.5,432.5,54.5,428.5,47.5,425.0,40.0,421.5,33.5,418.0,28.0,413.5,20.5,409.0,14.0,404.5,7.5" stroke="black" stroke-width="2" fill="none" />
<polyline points="406.0,3.5,406.5,7.5,408.5,11.5,410.5,15.5,412.0,20.0,414.5,24.0,417.0,28.0,419.0,32.0,422.0,36.0,423.5,40.0,425.0,44.0,427.5,48.0,430.0,52.0,431.5,56.0,434.0,60.0,436.5,64.0,439.5,68.0,441.5,72.0,444.0,76.0,441.0,79.5,438.5,83.0,436.0,87.0,433.0,91.5,430.0,95.5,427.5,99.5,425.0,104.0,422.0,107.5,419.0,111.5,417.0,115.0,416.0,117.5,417.5,121.0,419.0,125.5,419.0,129.5,419.0,133.5,418.5,137.5,418.0,141.5,417.0,145.5,416.0,149.5,414.5,153.0,413.5,157.0,411.5,161.0,410.0,164.5,408.5,168.5,407.5,172.5,406.0,176.5,404.0,180.5,399.0,185.0,395.5,189.5,391.5,193.5,387.5,197.5,383.0,201.5,378.0,205.5,371.5,209.5,367.0,213.5,371.0,210.0,375.0,207.5,379.5,205.0,383.5,202.0,388.0,198.0,392.5,194.5,396.5,190.5,400.5,186.5,404.0,182.5,407.5,175.5,411.5,164.0,415.5,153.0" stroke="black" stroke-width="2" fill="none" />
<polyline points="490.5,99.5,486.5,104.0,484.5,107.0,481.0,111.0,477.5,115.0,474.5,119.0,472.5,122.5,469.5,126.5,467.0,130.5,464.5,134.5,461.5,138.5,460.0,141.5,458.0,145.5,455.0,149.5,452.0,154.0,449.5,158.0,448.0,162.0,445.0,166.0,443.5,170.0,441.0,174.0,439.5,178.0,437.0,182.0,435.5,186.0,434.5,190.0,433.0,194.0,431.0,198.0,430.0,202.0,429.5,206.0,427.5,210.5,425.5,214.5,424.5,219.0,422.0,223.0,420.0,226.5,419.0,230.5,416.5,234.5,414.5,238.0,413.5,242.0,412.0,246.0,411.0,250.0,410.5,254.5,408.5,258.0,408.0,262.0,406.5,266.0,405.0,270.0,404.0,274.5,402.0,278.0,401.0,280.5,400.5,284.5,399.5,288.5,399.0,293.0,397.5,297.0,396.5,300.5,395.5,304.5,393.5,308.5,392.5,312.5,392.0,316.5,390.0,320.5,389.0,324.0,386.5,328.0,386.5,332.0,385.5,336.0" stroke="black" stroke-width="2" fill="none" />
<polyline points="128.0,275.0,126.0,275.0,127.5,279.0,130.0,283.5,126.0,288.0,125.5,292.5,124.0,296.5,119.0,298.0,113.0,301.0,108.0,305.0,104.5,309.0,106.5,316.0,102.5,320.0,99.5,324.0,98.0,328.5,98.5,332.5" stroke="black" stroke-width="2" fill="none" />
<polyline points="158.0,67.5,162.0,63.5,167.5,60.5,172.0,60.5,177.5,59.5" stroke="black" stroke-width="2" fill="none" />
<polyline points="208.5,51.0,206.5,50.0,211.0,48.5" stroke="black" stroke-width="2" fill="none" />
<polyline points="257.5,55.0,265.5,59.0,270.5,62.5,276.5,66.5,282.5,70.5,287.5,74.5" stroke="black" stroke-width="2" fill="none" />
<polyline points="296.5,78.5,300.5,82.5,303.0,86.5,306.0,90.0,309.0,94.0,312.0,98.0,318.0,101.5,321.5,105.5,324.0,109.5,327.0,113.5,329.0,117.0,330.5,121.5,333.0,125.5,335.5,129.5,340.5,133.5,343.5,137.5,344.5,141.5,347.0,146.0" stroke="black" stroke-width="2" fill="none" />
<polyline points="425.5,7.5,429.5,14.0,433.5,20.0,437.5,27.5,442.0,33.5,446.0,40.5,450.0,47.5,454.0,54.5,458.0,56.5,462.5,52.5,466.5,46.5,470.5,43.5,474.0,39.5,478.0,34.5,482.0,31.0,486.0,27.5,489.5,23.5,493.5,19.5,497.0,17.0,501.5,13.5,505.5,9.5,509.5,7.0" stroke="black" stroke-width="2" fill="none" />
<polyline points="506.0,4.0,507.0,8.0,504.0,12.0,500.0,15.5,495.5,19.0,491.0,23.0,487.0,26.5,482.5,30.5,479.0,34.5,475.5,38.5,472.0,42.5,468.0,45.5,465.5,49.5,461.5,54.0,458.5,58.0" stroke="black" stroke-width="2" fill="none" />
<polyline points="510.5,75.5,506.5,80.5,502.5,84.5,498.5,89.0,497.5,90.0,501.5,86.0,505.5,82.0,509.5,78.0,513.0,74.0" stroke="black" stroke-width="2" fill="none" />
<polyline points="514.0,78.0,514.0,82.0,514.0,86.5,514.0,90.5,514.0,94.0,514.0,98.0,514.0,101.5,514.0,105.5,513.5,109.5,513.5,113.5,513.5,117.5,513.5,122.0,514.0,126.0,514.5,130.0,514.5,134.0,514.5,138.0,514.5,142.0,514.5,145.5,514.5,150.0,514.5,154.0,514.5,158.5,514.5,162.5,514.5,166.5,514.0,170.0,514.0,174.0,514.0,177.5,514.0,181.5,514.0,185.5,514.5,189.5,514.5,193.5,514.5,198.0,514.5,202.0,515.0,206.0,514.5,210.0,514.5,214.0,514.0,218.5,514.0,222.5,514.5,226.5,514.5,230.0,514.0,234.0,514.0,238.0,514.0,241.5,514.0,246.0,514.0,250.0,514.0,254.0,514.0,258.5,514.0,262.5,513.5,266.0,513.5,270.5,513.5,274.5,513.0,278.5,513.5,283.0,513.0,287.0,513.0,291.0,513.0,295.0,512.5,299.0,513.0,303.0,513.0,307.5,513.5,311.5,513.5,315.5,513.5,319.5,513.5,323.0,513.5,327.0,513.5,330.5,513.5,334.0,513.5,338.0,513.0,342.0,513.0,346.0,512.5,350.0,512.5,354.0,512.5,358.0,512.5,362.0,513.0,366.0,513.0,370.0,513.0,374.0,513.0,378.0,510.0,382.0" stroke="black" stroke-width="2" fill="none" />
<polyline points="509.0,2.0,505.0,1.5,501.0,1.5,497.0,1.5,493.0,1.0,488.5,1.0,485.0,1.0,481.0,1.0,477.0,1.5,473.5,2.0,469.5,2.0,466.0,2.0,462.5,2.0,458.5,2.0,454.5,2.0,450.5,1.5,447.0,1.5,443.0,1.5,439.0,1.5,435.0,1.5,431.0,1.5,427.0,2.0,422.5,2.5,418.0,2.5,414.0,3.0,410.0,3.0,406.0,3.0,402.0,3.0,398.0,3.5,394.0,3.5,390.5,4.0,386.5,3.5,382.5,4.0,378.5,4.0,374.5,4.0,370.5,3.5,367.0,3.5,363.0,3.5,359.0,3.5,354.5,3.5,350.5,3.5,346.0,3.5,341.5,3.5,338.0,3.5,334.0,3.5,330.0,3.5,326.5,3.0,323.0,3.5,319.0,3.5,314.5,3.5,310.5,4.0,306.0,4.0,302.5,3.5,298.5,3.5,295.0,3.5,291.0,3.0,287.5,2.5,283.5,2.5,279.5,2.5,275.5,2.5,271.0,2.5,267.0,3.0,262.5,3.0,258.0,3.5,253.5,3.5,249.0,4.0,244.5,4.0,240.5,4.0,236.5,4.0,233.0,3.5,229.5,3.5,226.0,3.0,222.5,3.0,218.5,3.0,214.5,2.5,210.5,2.5,206.5,2.5,202.5,2.5,199.0,2.5,195.0,2.5,191.0,2.5,187.0,2.5,182.5,2.5,178.5,2.5,174.5,2.5,170.5,2.0,166.5,2.5,162.5,2.5,158.0,2.5,154.0,2.5,150.0,3.0,145.5,3.0,141.0,3.0,137.0,3.5,133.5,3.5,129.5,3.5,125.5,3.5,121.5,3.5,117.5,3.5,113.0,3.5,109.0,3.0,105.5,2.5,101.5,2.5,98.0,2.5,94.0,2.5,90.0,3.0,86.0,3.0,82.0,3.5,78.5,3.5,74.5,3.5,70.5,3.5,66.0,3.0,62.0,3.0,58.0,3.0,54.5,3.5,50.5,3.5,46.5,3.5,43.0,3.5,39.0,3.5,35.0,3.0,31.0,3.0,27.0,3.5,23.0,3.5,19.0,3.0,15.0,2.5,11.0,2.5,7.0,2.0,3.0,2.5" stroke="black" stroke-width="2" fill="none" />
<polyline points="424.0,4.0,424.0,8.0,426.0,12.0,428.0,16.0,431.0,20.0,432.5,24.0,435.0,28.0,437.0,32.0,439.5,36.0,441.5,39.5,444.0,43.5,446.0,47.5,449.0,51.5,451.5,56.0,454.0,60.0,455.0,64.0,452.5,68.5,449.0,72.5,446.0,75.0,450.5,72.0,454.5,67.5" stroke="black" stroke-width="2" fill="none" />
</svg>