<svg xmlns="http://www.w3.org/2000/svg" version="1.1"><polyline points="405.0,2.5,405.0,6.5,406.5,10.5,409.0,14.0,410.5,18.0,413.0,21.5,415.0,25.5,417.0,29.0,420.0,33.0,422.0,37.0,424.5,40.5,427.0,45.0,428.5,49.0,431.0,53.0,434.0,57.5,436.5,61.5,439.0,66.0,442.0,70.5" stroke="black" stroke-width="2" fill="none" />
<polyline points="455.0,58.5,451.0,51.0,447.5,45.0,444.0,37.5,441.0,32.0,437.0,25.5,433.0,19.0,429.0,12.5,425.5,7.0" stroke="black" stroke-width="2" fill="none" />
<polyline points="425.0,3.5,425.0,7.5,426.5,10.5,429.0,14.5,432.0,18.0,434.0,21.5,436.0,25.5,439.0,29.5,441.0,33.5,443.0,37.5,445.0,41.5,446.5,45.0,449.5,49.0,451.5,53.0,454.0,57.0,456.0,61.0,454.0,65.5,451.0,69.5,446.5,73.5,443.0,78.0,440.5,82.0,438.0,85.5,434.5,89.5,432.0,93.0,430.0,97.0,427.5,101.0,424.5,105.0,422.0,109.0,419.0,113.5,419.0,113.5,423.0,107.5,427.0,101.5,431.5,94.5,435.5,89.0,439.5,83.0,443.5,77.0,448.0,72.5,451.5,68.5,456.0,63.5,460.5,55.0,464.5,51.0,468.5,47.5,472.5,43.0,476.0,38.0,480.0,33.5,484.5,29.5,488.5,26.0,492.5,22.5,497.5,18.5,502.0,15.5,506.0,12.5,510.0,8.0" stroke="black" stroke-width="2" fill="none" />
<polyline points="512.5,7.5,506.5,11.5,502.5,15.5,498.0,20.0,495.0,23.0,491.0,27.0,487.0,31.0,483.0,35.0,478.0,39.0,474.5,43.5,470.5,47.5,466.5,51.5,463.0,55.0,459.0,58.5" stroke="black" stroke-width="2" fill="none" />
<polyline points="510.0,76.5,506.0,81.5,502.0,85.0,498.0,89.5,496.0,94.5,492.0,96.5,488.0,102.5,484.0,106.5,480.5,111.5,476.5,116.5,472.5,122.0,468.5,128.0,464.5,135.0,460.5,141.0" stroke="black" stroke-width="2" fill="none" />
<polyline points="454.0,154.5,450.0,161.5,446.5,167.0,442.5,175.0" stroke="black" stroke-width="2" fill="none" />
<polyline points="441.0,181.0,439.0,185.5" stroke="black" stroke-width="2" fill="none" />
<polyline points="434.0,194.5,430.5,202.5,428.5,209.5,427.5,214.5,423.5,218.5" stroke="black" stroke-width="2" fill="none" />
<polyline points="417.5,230.5,415.0,236.5,411.5,244.5" stroke="black" stroke-width="2" fill="none" />
<polyline points="403.0,276.0,401.5,280.0,400.0,287.0" stroke="black" stroke-width="2" fill="none" />
<polyline points="380.5,291.5,380.5,287.0,380.5,283.0,381.5,279.0,381.5,275.5" stroke="black" stroke-width="2" fill="none" />
<polyline points="374.5,276.5,375.0,281.0,376.5,284.0,376.5,288.0,377.0,292.0,378.0,295.5,378.0,300.0,379.0,304.0,379.5,308.0,380.0,312.5,381.0,316.5,382.0,320.5,383.0,324.0,382.5,328.0,382.0,331.5,382.0,335.5,382.5,339.5,382.5,343.5,382.5,347.5,383.0,351.5" stroke="black" stroke-width="2" fill="none" />
<polyline points="368.0,352.0,369.0,356.0,369.5,360.0,369.5,364.0,370.0,368.0,370.5,371.5" stroke="black" stroke-width="2" fill="none" />
<polyline points="372.0,377.5,373.0,381.0,373.0,384.5" stroke="black" stroke-width="2" fill="none" />
<polyline points="380.5,386.0,380.0,389.5,380.0,393.5,379.5,397.5,379.0,402.0" stroke="black" stroke-width="2" fill="none" />
<polyline points="362.0,434.0,358.0,425.0,354.0,418.5,350.0,413.5,346.5,409.0,342.5,405.5,339.0,402.5,335.0,400.0,330.5,398.5,326.5,396.5,322.5,394.5,318.0,393.0,314.0,391.5,310.0,390.0,307.5,390.0,303.5,390.5,300.0,389.5" stroke="black" stroke-width="2" fill="none" />
<polyline points="313.5,381.5,317.0,371.0,321.0,365.0,325.0,359.0,328.5,352.0,332.5,343.5,336.5,335.0,340.5,326.5,344.5,318.0" stroke="black" stroke-width="2" fill="none" />
<polyline points="356.0,329.0,356.0,333.0,355.5,336.5,354.5,340.5,355.0,338.5" stroke="black" stroke-width="2" fill="none" />
<polyline points="353.5,353.0,354.0,357.0,354.5,360.5,353.5,364.5,353.5,368.5,353.5,372.5,353.0,377.0,353.0,381.5,353.5,387.5,354.0,391.5,354.5,396.0,355.0,400.0,355.5,404.0,353.0,405.5,354.0,409.5,354.5,413.5" stroke="black" stroke-width="2" fill="none" />
<polyline points="361.5,384.5,361.5,380.5,361.5,376.5,362.5,371.5,362.0,367.5,361.5,363.0" stroke="black" stroke-width="2" fill="none" />
<polyline points="358.0,360.5,358.5,364.5,358.5,369.0,358.0,373.0,358.0,377.0,358.0,381.0" stroke="black" stroke-width="2" fill="none" />
<polyline points="354.5,354.5,354.5,358.5,354.5,362.5,353.5,367.0,354.0,371.0,354.5,375.0,354.5,379.0,354.5,383.5,354.5,387.5,355.0,391.5,355.5,395.5,355.5,399.5,356.0,404.0,356.0,408.0,356.5,412.0,355.0,413.5" stroke="black" stroke-width="2" fill="none" />
<polyline points="373.0,464.0,371.0,461.5,369.5,457.5,370.0,453.5,370.5,449.5,371.0,445.5,372.0,441.0,373.0,436.5,374.0,432.0,374.0,428.0,374.5,424.0,375.0,420.0,376.0,416.0,376.0,412.0,376.5,408.0,377.0,403.5,377.5,399.5,377.5,396.0,377.5,392.0,378.0,388.0,378.0,384.0,378.0,380.5,377.0,376.5,376.5,372.5,376.5,368.5,377.0,365.0,378.0,361.5,377.5,357.0,376.5,353.0,376.0,349.0,375.0,345.5,375.0,341.0,374.5,337.0,374.0,333.0,373.5,329.0,373.0,324.5,372.5,320.5,372.0,317.0,371.5,313.0,371.0,309.0,370.5,304.5,370.5,300.5,370.5,296.0,370.0,292.0,370.0,288.0,369.0,284.0,369.0,280.5,369.0,276.5,369.0,273.0,368.0,269.0,368.0,265.0,368.0,261.0,367.5,256.5,367.0,252.5,367.0,248.5,366.0,244.5,365.5,240.5,364.5,236.0,363.5,232.0,362.5,228.5,361.0,224.5,360.0,220.5,358.5,216.5,356.5,212.5,355.0,209.0,354.5,206.5,351.0,202.0,350.0,198.0,349.5,196.0" stroke="black" stroke-width="2" fill="none" />
<polyline points="350.0,199.5,354.5,205.0,358.5,213.0" stroke="black" stroke-width="2" fill="none" />
<polyline points="370.0,221.5,372.5,215.0,371.0,219.0,369.5,222.5,369.0,226.0,368.0,229.5,368.0,233.0,368.5,237.0,369.0,241.0,370.0,245.0,371.0,249.5,371.5,253.0,374.0,257.0,373.5,260.5,375.0,264.0,376.5,268.5" stroke="black" stroke-width="2" fill="none" />
<polyline points="384.0,266.0,382.5,270.0,383.0,274.0,380.5,277.5,378.5,281.5,379.0,285.5,379.5,289.5" stroke="black" stroke-width="2" fill="none" />
<polyline points="373.5,293.0,373.0,297.5,373.0,301.0,373.5,305.0,374.0,309.5,374.5,313.5,375.0,318.0,377.0,324.5,377.0,328.0,377.5,332.0,378.5,336.0,378.5,339.5,379.0,343.5,380.0,347.0,380.5,351.0,381.5,355.0,382.0,359.0" stroke="black" stroke-width="2" fill="none" />
<polyline points="366.5,352.5,367.0,356.0,368.0,360.0,368.5,363.5,368.5,367.5,372.0,372.5,372.0,376.5,372.0,380.0,372.5,384.0" stroke="black" stroke-width="2" fill="none" />
<polyline points="383.5,347.5,383.5,343.5,383.5,339.5,384.5,335.5,383.5,332.0,383.0,328.0" stroke="black" stroke-width="2" fill="none" />
<polyline points="343.0,283.0,343.0,282.5,340.0,282.0,341.0,275.0,342.5,271.0,340.5,265.5,336.5,264.0" stroke="black" stroke-width="2" fill="none" />
<polyline points="332.5,266.0,336.0,265.5,336.0,269.5,334.0,273.0,333.5,271.0" stroke="black" stroke-width="2" fill="none" />
<polyline points="337.0,277.0,337.5,281.5" stroke="black" stroke-width="2" fill="none" />
<polyline points="337.5,279.5,341.5,281.0,346.0,279.0,350.0,278.5,351.0,283.0,351.5,287.5,351.0,291.5,351.0,295.5,350.0,299.5,348.5,303.5,348.0,307.5,344.5,311.5,347.0,313.5,345.5,318.0,343.5,322.5,342.0,327.0,340.0,330.5,337.5,334.5,336.0,338.5,334.5,342.5,333.0,346.5,331.0,350.0,328.0,354.0,325.5,358.0,323.0,362.0,320.0,366.0,318.0,370.0,316.0,374.0,314.5,378.0,313.0,382.0,313.5,386.0,311.0,389.5,317.0,393.0,326.0,397.0,335.0,400.5,340.5,404.0,345.0,408.0,349.0,411.5,352.0,415.0,354.5,419.0,357.0,423.0,359.0,427.0,361.0,431.0,362.5,435.0,364.0,439.5,365.5,443.5,366.5,448.0,367.5,452.5,368.5,457.0,370.0,461.0,371.5,464.5,372.0,469.0,373.0,473.0,374.0,477.0,375.0,481.0,376.5,485.0,377.5,489.0,378.5,493.0,379.0,497.0,380.5,501.0,381.0,505.0,382.0,509.0,383.5,513.0" stroke="black" stroke-width="2" fill="none" />
<polyline points="421.5,489.5,425.5,494.5,430.0,494.0,434.0,491.5,438.0,488.5,441.5,484.5,445.5,480.5,449.0,475.5,451.5,470.5,455.0,467.0" stroke="black" stroke-width="2" fill="none" />
<polyline points="456.0,465.5,450.5,469.5,448.0,468.5,452.0,462.5" stroke="black" stroke-width="2" fill="none" />
<polyline points="456.5,450.0,460.5,441.0" stroke="black" stroke-width="2" fill="none" />
<polyline points="464.5,430.0,468.5,423.5,472.5,417.0,476.0,408.5,479.5,405.5,483.5,401.5,487.5,399.0,492.0,395.0,493.5,391.0,498.0,389.0,501.5,387.5,506.0,386.0,510.0,384.5" stroke="black" stroke-width="2" fill="none" />
<polyline points="512.5,382.5,502.5,387.0,494.0,391.0,492.5,395.5,487.5,399.5,483.5,403.5,479.0,407.5,477.0,411.0,476.0,415.0,473.5,419.5,471.0,424.0,469.5,427.5,467.5,430.5,464.0,434.5,462.0,438.5,460.5,443.0,458.5,447.0,457.0,451.0,456.0,455.0,455.5,459.0,454.0,463.5,452.0,467.5,450.0,471.5,450.5,476.0,446.5,480.0,441.5,484.5,437.5,488.5,432.5,492.5" stroke="black" stroke-width="2" fill="none" />
<polyline points="431.0,480.0,430.0,477.5,431.5,474.5,434.0,478.0,435.5,474.5,436.0,470.0,437.5,466.5,439.0,462.5,440.5,458.5,439.5,457.0,436.0,454.5,432.0,450.5" stroke="black" stroke-width="2" fill="none" />
<polyline points="438.5,457.0,434.5,455.5,430.5,451.0,430.0,447.0,430.5,443.5,431.0,439.5,432.0,436.0,434.5,432.0,432.5,434.5" stroke="black" stroke-width="2" fill="none" />
<polyline points="430.0,466.5,426.0,472.0,422.5,476.5,419.0,472.0,417.5,468.0" stroke="black" stroke-width="2" fill="none" />
<polyline points="430.0,467.0,427.5,471.5,423.0,475.5,422.0,480.0,422.0,484.0,421.5,488.0,422.5,492.0" stroke="black" stroke-width="2" fill="none" />
<polyline points="485.5,408.5,481.5,414.0,479.0,416.5,482.5,412.5,485.5,408.5,488.0,404.5" stroke="black" stroke-width="2" fill="none" />
<polyline points="444.0,424.5,445.5,422.5,447.0,419.0,448.0,415.0,448.5,410.5,449.5,406.5,450.0,402.5,450.0,398.5,450.5,394.0,451.0,390.0,452.0,386.0,453.0,382.0,454.0,378.0,454.5,374.5,454.5,371.0,454.0,367.5" stroke="black" stroke-width="2" fill="none" />
<polyline points="320.5,349.0,319.0,344.5,319.0,343.0" stroke="black" stroke-width="2" fill="none" />
<polyline points="320.5,348.0,316.5,351.5,312.0,351.0,308.0,352.5" stroke="black" stroke-width="2" fill="none" />
<polyline points="310.5,356.0,306.5,355.5,302.5,356.0,298.5,356.0,295.0,356.0" stroke="black" stroke-width="2" fill="none" />
<polyline points="293.5,358.0,297.5,359.5,301.5,358.5,306.0,359.5,310.0,358.5,310.0,358.5,308.5,362.5" stroke="black" stroke-width="2" fill="none" />
<polyline points="314.0,346.5,309.5,347.0,305.5,346.5,301.5,346.0,297.5,346.5,293.5,347.5" stroke="black" stroke-width="2" fill="none" />
<polyline points="306.5,336.0,304.5,332.5,315.0,330.0,315.0,330.5,311.5,332.0,307.5,333.0" stroke="black" stroke-width="2" fill="none" />
<polyline points="306.5,327.5,302.5,326.0,299.0,325.5,294.5,324.5" stroke="black" stroke-width="2" fill="none" />
<polyline points="294.0,324.5,298.0,323.0,302.0,323.5,306.0,325.5" stroke="black" stroke-width="2" fill="none" />
<polyline points="320.0,327.0,321.5,325.0,323.5,320.5,323.0,316.5,322.0,312.0,321.5,307.5,321.0,303.0" stroke="black" stroke-width="2" fill="none" />
<polyline points="324.5,276.0,320.5,274.5" stroke="black" stroke-width="2" fill="none" />
<polyline points="319.0,272.5,323.0,266.0,326.5,262.5,330.0,261.0,334.0,259.5,338.5,258.0,342.5,257.0,346.5,256.5,349.0,252.5,352.5,251.0" stroke="black" stroke-width="2" fill="none" />
<polyline points="350.5,255.5,346.5,257.5" stroke="black" stroke-width="2" fill="none" />
<polyline points="344.0,255.0,340.0,255.0,336.5,256.0,332.5,256.5" stroke="black" stroke-width="2" fill="none" />
<polyline points="335.0,251.5,328.5,255.5,326.5,261.0,322.0,265.0,319.5,269.0,318.5,273.0,318.5,275.0,322.5,277.5" stroke="black" stroke-width="2" fill="none" />
<polyline points="327.0,275.5,324.5,271.5" stroke="black" stroke-width="2" fill="none" />
<polyline points="322.0,268.5,321.5,272.5,323.0,276.5,330.0,278.5,334.0,280.0,338.5,279.5,342.5,278.0,349.0,279.0" stroke="black" stroke-width="2" fill="none" />
<polyline points="329.0,272.0,327.0,270.5,329.5,270.0,335.0,269.5,331.0,269.0,327.0,267.5" stroke="black" stroke-width="2" fill="none" />
<polyline points="322.5,267.0,326.5,272.5,330.5,273.5,335.0,271.5,334.0,269.0" stroke="black" stroke-width="2" fill="none" />
<polyline points="326.5,258.5,331.0,255.0,335.0,253.0,339.5,252.0,343.0,251.0,347.5,248.5,351.5,245.5" stroke="black" stroke-width="2" fill="none" />
<polyline points="352.0,240.5,348.5,244.5,343.5,249.0,340.5,253.0" stroke="black" stroke-width="2" fill="none" />
<polyline points="346.5,239.0,346.0,235.0,344.5,231.0,344.0,227.5,343.5,223.5,342.5,219.5,342.5,215.5,342.0,212.0,337.5,205.0" stroke="black" stroke-width="2" fill="none" />
<polyline points="338.5,203.5,343.0,206.0,347.0,209.0,351.0,211.5,352.5,209.0" stroke="black" stroke-width="2" fill="none" />
<polyline points="356.5,204.5,352.0,199.0" stroke="black" stroke-width="2" fill="none" />
<polyline points="350.5,199.5,354.0,203.5,356.5,208.0" stroke="black" stroke-width="2" fill="none" />
<polyline points="362.0,202.0,359.0,194.0" stroke="black" stroke-width="2" fill="none" />
<polyline points="356.5,190.5,357.0,194.5,359.0,199.0,361.0,203.5,361.5,207.5" stroke="black" stroke-width="2" fill="none" />
<polyline points="362.5,190.5,366.5,195.5,370.0,195.0,373.5,193.5,377.0,191.5" stroke="black" stroke-width="2" fill="none" />
<polyline points="374.0,183.5,364.0,187.0,357.5,191.0,350.5,194.5,343.0,199.0,337.5,202.5,337.0,206.0,341.5,209.0,346.0,212.5,351.5,212.5" stroke="black" stroke-width="2" fill="none" />
<polyline points="349.0,205.0,345.0,200.0" stroke="black" stroke-width="2" fill="none" />
<polyline points="345.0,200.0,348.0,204.0" stroke="black" stroke-width="2" fill="none" />
<polyline points="347.0,207.0,343.5,202.5" stroke="black" stroke-width="2" fill="none" />
<polyline points="343.5,204.5,348.5,209.0,352.0,213.0" stroke="black" stroke-width="2" fill="none" />
<polyline points="345.0,211.5,341.0,209.0" stroke="black" stroke-width="2" fill="none" />
<polyline points="340.5,206.5,345.0,209.5,349.0,213.0,352.5,218.0,356.0,225.0" stroke="black" stroke-width="2" fill="none" />
<polyline points="371.0,231.0,371.5,235.0,372.0,239.0,371.0,244.0" stroke="black" stroke-width="2" fill="none" />
<polyline points="371.0,247.5,371.0,251.5,371.5,255.5,373.0,259.5,373.0,264.0,373.5,268.5,372.0,272.5,374.0,274.0,372.5,277.5,372.5,281.5,373.0,285.5" stroke="black" stroke-width="2" fill="none" />
<polyline points="361.0,281.5,361.5,280.0,362.5,276.0,363.0,271.5,363.0,267.0,363.5,263.5" stroke="black" stroke-width="2" fill="none" />
<polyline points="365.0,262.5,365.0,266.5,364.5,270.5,363.5,274.5,364.0,278.5,364.5,282.5,364.5,287.0,364.5,291.5,364.5,295.5,364.0,299.5,364.0,303.0,364.0,307.5,365.0,312.0" stroke="black" stroke-width="2" fill="none" />
<polyline points="366.0,247.5,365.5,243.5" stroke="black" stroke-width="2" fill="none" />
<polyline points="341.5,217.0,337.5,209.0" stroke="black" stroke-width="2" fill="none" />
<polyline points="334.5,204.0,338.5,201.0,343.0,198.0,347.5,196.0,351.5,194.0,355.5,191.5,359.0,189.5,362.5,187.0,366.5,185.0,370.0,183.5,374.0,182.0,378.0,181.0,382.0,179.5,386.0,177.0,390.0,174.5,394.0,172.5,397.5,170.5,401.5,169.0,405.5,168.0,402.0,171.5,399.5,175.0,396.5,179.0,392.0,183.5,386.0,187.5,381.0,189.5,385.0,188.0,389.5,185.0,394.0,182.0,398.0,178.5,402.5,174.0" stroke="black" stroke-width="2" fill="none" />
<polyline points="402.5,165.0,404.5,158.5,403.5,162.5,403.5,167.0,397.0,171.0,389.5,175.0,382.5,178.5" stroke="black" stroke-width="2" fill="none" />
<polyline points="361.5,190.0,364.0,194.0" stroke="black" stroke-width="2" fill="none" />
<polyline points="345.5,200.0,344.0,204.0,347.5,207.5" stroke="black" stroke-width="2" fill="none" />
<polyline points="340.0,201.5,342.5,205.5,347.5,209.5,351.0,213.5,354.0,217.0,356.0,221.0,358.5,226.0,360.0,230.5,361.0,234.5,362.0,239.0,362.5,242.5,363.0,247.0" stroke="black" stroke-width="2" fill="none" />
<polyline points="298.5,255.5,294.5,252.5,290.5,250.5,286.5,250.5,282.0,250.0,278.0,249.0,274.0,246.5,269.0,246.0,264.5,248.5,260.0,251.0,256.5,254.5,252.5,257.5,248.5,261.0,244.5,265.0,240.0,269.0,236.0,273.0,232.0,276.5,228.0,280.5,224.0,285.0,220.0,290.0,216.0,295.5,212.0,300.5,208.0,307.5,204.0,313.0,198.5,319.0,195.0,321.0,191.0,320.0,188.5,317.0,191.5,313.0,193.0,309.5,195.0,305.0,196.0,301.0,198.5,297.0,200.5,293.0,202.5,289.0,204.0,285.0,206.5,281.5,209.0,277.5,212.0,273.5,214.0,269.5,216.0,266.0,218.5,262.0,221.0,257.5,224.5,253.5,227.0,249.0,230.5,245.0,233.0,240.5,230.5,236.5,230.0,232.5,228.5,228.5,228.0,225.0,224.5,221.0,223.0,217.0,222.5,214.0,220.0,211.0,221.0,207.0,223.0,203.0,226.5,199.5,224.0,202.0,220.0,206.5" stroke="black" stroke-width="2" fill="none" />
<polyline points="219.5,213.0,219.5,217.0,220.0,221.0,220.0,225.0,221.0,228.5,224.0,230.0,221.5,233.0,226.5,234.0,223.0,238.5,223.0,242.5,220.5,246.5,219.5,250.5" stroke="black" stroke-width="2" fill="none" />
<polyline points="218.5,248.0,220.0,244.0,222.5,239.5,222.0,235.5,220.5,231.5,217.0,232.5" stroke="black" stroke-width="2" fill="none" />
<polyline points="217.5,232.0,219.0,235.5" stroke="black" stroke-width="2" fill="none" />
<polyline points="213.5,236.0,213.5,238.0,216.0,241.5,216.5,245.5,216.5,249.5" stroke="black" stroke-width="2" fill="none" />
<polyline points="215.5,245.5,216.0,250.0,218.5,254.0" stroke="black" stroke-width="2" fill="none" />
<polyline points="212.5,255.5,209.5,250.5,206.5,248.5,208.0,245.0,209.0,241.0,209.5,237.0,211.0,232.5,209.0,237.0" stroke="black" stroke-width="2" fill="none" />
<polyline points="210.5,238.0,211.5,236.0,210.0,240.0,208.5,244.5,207.5,246.0" stroke="black" stroke-width="2" fill="none" />
<polyline points="206.5,249.0,210.0,253.5,214.5,255.0" stroke="black" stroke-width="2" fill="none" />
<polyline points="208.0,250.5,206.0,249.5" stroke="black" stroke-width="2" fill="none" />
<polyline points="197.0,258.0,201.0,262.0,205.0,264.0" stroke="black" stroke-width="2" fill="none" />
<polyline points="205.0,266.0,201.0,265.5,196.5,260.5,195.5,254.5,191.5,251.0" stroke="black" stroke-width="2" fill="none" />
<polyline points="189.0,252.5,194.5,252.0,197.0,256.0,198.5,260.0,204.0,264.0" stroke="black" stroke-width="2" fill="none" />
<polyline points="187.0,272.5,185.5,270.5,184.5,267.0,183.5,263.0,183.5,259.0,183.5,254.5,186.0,250.5,186.5,244.5,191.0,242.0,196.0,238.0,198.5,234.0,195.0,239.0,191.0,243.0,187.0,244.5" stroke="black" stroke-width="2" fill="none" />
<polyline points="190.5,239.5,188.0,235.5,187.0,231.5,188.0,227.5,189.5,223.5,192.0,220.0,192.0,220.5,188.0,230.0" stroke="black" stroke-width="2" fill="none" />
<polyline points="185.5,234.5,189.5,241.0" stroke="black" stroke-width="2" fill="none" />
<polyline points="188.5,236.0,187.0,232.0,187.5,228.0,188.0,224.0,190.5,220.5,191.5,218.0,187.0,224.5" stroke="black" stroke-width="2" fill="none" />
<polyline points="181.5,219.5,181.0,223.5,181.5,219.5,180.0,215.5,180.0,214.0" stroke="black" stroke-width="2" fill="none" />
<polyline points="181.5,213.5,181.5,217.5" stroke="black" stroke-width="2" fill="none" />
<polyline points="181.0,224.5,177.0,224.5,172.5,226.0,171.5,226.5,168.5,226.5,169.5,222.5" stroke="black" stroke-width="2" fill="none" />
<polyline points="170.5,228.5,166.0,228.5,164.5,232.0,160.5,237.5,160.0,238.0,163.5,234.5,166.5,230.5" stroke="black" stroke-width="2" fill="none" />
<polyline points="166.0,229.0,162.0,230.0" stroke="black" stroke-width="2" fill="none" />
<polyline points="159.5,224.0,156.0,228.0,151.5,231.0,149.0,235.5,146.5,239.5,143.5,246.5,143.0,250.5,143.0,254.0,141.5,258.5,140.5,263.0,135.0,265.5,132.0,269.5,132.0,269.5,136.0,269.0" stroke="black" stroke-width="2" fill="none" />
<polyline points="135.5,269.5,137.5,265.5,134.0,264.0" stroke="black" stroke-width="2" fill="none" />
<polyline points="130.5,265.5,130.0,269.0,124.5,273.0,118.5,276.5,110.5,280.5,101.5,284.5,99.5,290.0,94.0,298.0,92.0,302.0,87.0,306.5,80.0,311.0,82.0,316.0,78.0,320.5,71.0,324.0,75.0,322.5,79.5,319.5,83.0,316.0,87.0,316.5" stroke="black" stroke-width="2" fill="none" />
<polyline points="88.5,323.0,93.5,324.0,91.5,328.0,94.5,326.5,91.5,330.0,86.5,335.0,83.0,339.0,79.0,343.0,75.5,347.0,72.5,351.5,69.0,355.5,65.0,359.5,62.5,361.0,62.5,364.5,66.0,361.5,70.0,358.0,74.0,353.5,78.0,348.0,82.5,343.5,86.5,339.0,90.0,340.0,89.5,344.0,89.0,348.0,87.5,351.5,84.0,355.5,81.5,359.5,79.0,363.0,77.0,367.0,77.0,371.0,82.5,374.0,83.0,369.5,87.0,361.0,91.5,354.0,95.5,348.0" stroke="black" stroke-width="2" fill="none" />
<polyline points="100.5,342.5,104.5,338.5,108.5,333.5,112.5,327.5,116.5,320.0" stroke="black" stroke-width="2" fill="none" />
<polyline points="119.5,324.0,119.5,327.5,120.5,332.5,120.5,336.0,121.5,340.0,121.5,340.5" stroke="black" stroke-width="2" fill="none" />
<polyline points="118.0,340.0,118.5,342.0,118.5,345.5" stroke="black" stroke-width="2" fill="none" />
<polyline points="116.0,343.0,116.5,346.5,117.5,350.0,117.5,354.0,117.5,358.0,117.0,362.5,116.0,366.5,114.5,371.0,115.5,375.0,115.5,379.0,114.5,383.0,115.5,387.0,116.0,391.5,116.5,395.5,119.5,399.5,122.5,403.5,121.0,407.5,115.5,412.0,111.0,413.5,114.0,412.5,118.0,411.0,122.0,406.5" stroke="black" stroke-width="2" fill="none" />
<polyline points="122.0,409.5,125.5,406.0" stroke="black" stroke-width="2" fill="none" />
<polyline points="129.5,411.5,133.5,407.0,140.0,402.5,144.0,398.5" stroke="black" stroke-width="2" fill="none" />
<polyline points="144.5,397.0,144.0,401.0" stroke="black" stroke-width="2" fill="none" />
<polyline points="142.0,402.0,146.0,406.0" stroke="black" stroke-width="2" fill="none" />
<polyline points="145.0,406.0,141.0,402.5" stroke="black" stroke-width="2" fill="none" />
<polyline points="141.0,401.5,143.0,405.5,146.0,409.5,150.5,413.5" stroke="black" stroke-width="2" fill="none" />
<polyline points="155.0,421.5,155.0,421.5,155.5,425.0,156.5,429.0,157.5,433.0,157.5,435.0,157.0,439.0,156.5,441.0" stroke="black" stroke-width="2" fill="none" />
<polyline points="161.5,443.0,165.5,439.0,169.5,443.0,173.5,443.0,177.5,439.0,181.5,438.0,182.5,433.5" stroke="black" stroke-width="2" fill="none" />
<polyline points="179.5,440.0,175.5,444.0,179.5,443.0,183.0,444.5,186.0,440.5" stroke="black" stroke-width="2" fill="none" />
<polyline points="178.5,446.0,174.5,445.0" stroke="black" stroke-width="2" fill="none" />
<polyline points="175.0,445.0,175.0,449.0,175.5,452.5,175.0,456.5" stroke="black" stroke-width="2" fill="none" />
<polyline points="170.5,455.5,174.5,462.0" stroke="black" stroke-width="2" fill="none" />
<polyline points="172.0,463.5,168.0,462.0" stroke="black" stroke-width="2" fill="none" />
<polyline points="164.0,462.0,161.5,458.0,160.5,454.5,160.0,450.5,161.5,446.5,163.5,442.5,165.0,442.0" stroke="black" stroke-width="2" fill="none" />
<polyline points="166.0,443.5,170.0,451.0,174.0,458.0,178.0,460.5" stroke="black" stroke-width="2" fill="none" />
<polyline points="176.0,463.5,177.5,459.0,179.0,455.0,174.0,458.0,172.0,454.0,170.0,450.5,168.5,448.5,166.5,444.5,166.5,441.5,167.0,437.0,166.5,432.5,167.0,433.0" stroke="black" stroke-width="2" fill="none" />
<polyline points="167.5,435.5,161.5,435.0,160.5,434.5,163.5,430.5" stroke="black" stroke-width="2" fill="none" />
<polyline points="167.5,428.5,171.5,434.5,175.5,435.0" stroke="black" stroke-width="2" fill="none" />
<polyline points="178.5,425.5,177.5,422.5,175.0,418.5,175.0,415.0,172.0,414.0,169.5,410.5,166.5,406.5,164.0,402.0,164.5,398.0,166.0,401.5" stroke="black" stroke-width="2" fill="none" />
<polyline points="169.5,403.5,173.0,407.0,174.0,411.0,171.5,415.5,169.5,419.5,168.0,423.5,164.5,423.5,163.5,427.5,164.0,431.5,159.5,435.0,163.5,429.0,167.0,424.5,169.5,423.0,172.0,427.5" stroke="black" stroke-width="2" fill="none" />
<polyline points="170.5,428.5,169.5,424.5,166.0,418.5,168.5,415.0,167.5,410.5,165.0,406.5,161.0,406.5" stroke="black" stroke-width="2" fill="none" />
<polyline points="163.5,409.0,167.5,415.0" stroke="black" stroke-width="2" fill="none" />
<polyline points="171.5,416.0,173.5,420.0,176.0,424.0,176.0,428.0,176.0,432.0,175.0,435.0,172.0,438.0,172.5,440.0,172.5,445.5,174.0,450.0,175.0,453.5,178.0,457.0,174.5,462.5,175.0,467.0,170.5,465.5,173.5,468.5" stroke="black" stroke-width="2" fill="none" />
<polyline points="170.5,461.0,166.5,455.0,162.5,453.5,162.0,449.0,158.0,451.5,155.0,449.0,154.5,450.5,156.0,446.5,153.5,442.5,153.5,438.5,149.0,438.0,147.5,434.5,146.5,430.5,149.0,427.0,144.5,423.0,139.0,421.0" stroke="black" stroke-width="2" fill="none" />
<polyline points="140.0,421.5,144.0,424.0" stroke="black" stroke-width="2" fill="none" />
<polyline points="140.0,423.0,144.5,430.0,151.0,439.5" stroke="black" stroke-width="2" fill="none" />
<polyline points="152.0,446.0,147.5,441.0,144.5,436.0,138.0,427.0,133.5,422.5,129.5,419.0" stroke="black" stroke-width="2" fill="none" />
<polyline points="132.0,421.0,134.5,425.0,135.0,429.0,136.5,433.0,138.0,437.0,141.0,442.5,142.0,446.5,141.0,450.0,140.0,454.0,138.0,457.5,136.0,461.5,134.5,465.5,135.5,456.5" stroke="black" stroke-width="2" fill="none" />
<polyline points="140.0,452.0,142.0,456.0,143.0,460.0,143.5,464.0,145.5,467.0,147.5,471.0,150.5,475.0,155.0,478.0" stroke="black" stroke-width="2" fill="none" />
<polyline points="155.5,474.5,152.0,472.5,148.0,465.5" stroke="black" stroke-width="2" fill="none" />
<polyline points="150.0,468.0,153.0,472.0,158.0,476.0" stroke="black" stroke-width="2" fill="none" />
<polyline points="153.0,475.5,149.5,474.5,145.0,469.0,141.5,466.5,137.5,464.5" stroke="black" stroke-width="2" fill="none" />
<polyline points="137.0,463.5,138.5,467.5,142.0,471.5,146.5,475.5,152.0,479.5,154.0,484.5,152.0,482.5,156.0,483.5,157.5,488.5,162.0,495.0,164.0,493.5,166.5,500.0" stroke="black" stroke-width="2" fill="none" />
<polyline points="165.0,504.5,167.0,505.5,169.5,509.5" stroke="black" stroke-width="2" fill="none" />
<polyline points="166.5,498.0,162.5,496.0" stroke="black" stroke-width="2" fill="none" />
<polyline points="159.0,501.5,161.5,506.0,163.0,510.5" stroke="black" stroke-width="2" fill="none" />
<polyline points="156.0,511.5,152.0,506.5" stroke="black" stroke-width="2" fill="none" />
<polyline points="153.5,498.0,149.5,492.5" stroke="black" stroke-width="2" fill="none" />
<polyline points="148.5,496.5,152.5,503.5" stroke="black" stroke-width="2" fill="none" />
<polyline points="153.0,492.5,152.5,487.5,148.5,484.0" stroke="black" stroke-width="2" fill="none" />
<polyline points="149.5,482.0,149.0,486.0,152.0,490.0,154.5,490.5,155.0,494.5,155.5,498.0,157.0,502.0,157.5,506.0,158.5,506.5,165.5,510.0" stroke="black" stroke-width="2" fill="none" />
<polyline points="151.0,511.0,147.0,501.0,143.0,496.0" stroke="black" stroke-width="2" fill="none" />
<polyline points="142.5,495.5,145.5,499.5,148.0,503.5,150.0,507.5,151.5,512.0" stroke="black" stroke-width="2" fill="none" />
<polyline points="155.5,506.5,151.5,503.5,147.5,496.5,146.0,491.5,142.0,483.0" stroke="black" stroke-width="2" fill="none" />
<polyline points="141.0,483.5,145.5,490.5,150.0,495.0,152.5,499.0,155.0,503.0,154.0,505.5" stroke="black" stroke-width="2" fill="none" />
<polyline points="172.5,510.0,168.5,506.0,164.5,503.5,160.5,502.5,156.0,500.0,151.5,498.0,150.0,494.0,145.0,492.0,143.0,488.0,141.5,484.0,138.5,477.5" stroke="black" stroke-width="2" fill="none" />
<polyline points="135.0,482.5,133.5,486.5,134.5,490.5,136.5,494.5,134.0,496.5,136.0,500.0,138.5,504.0,139.5,508.0,140.0,512.0" stroke="black" stroke-width="2" fill="none" />
<polyline points="141.5,514.0,143.0,509.5,141.0,505.5,140.0,501.5,139.0,497.0,134.0,492.0,133.5,486.0" stroke="black" stroke-width="2" fill="none" />
<polyline points="134.5,484.5,136.0,488.5,134.5,490.5,136.5,494.0,136.5,497.5,138.0,501.0,138.5,504.0" stroke="black" stroke-width="2" fill="none" />
<polyline points="138.5,493.5,138.5,487.0,134.5,483.5" stroke="black" stroke-width="2" fill="none" />
<polyline points="139.5,484.5,142.5,488.0,144.0,492.0,147.0,496.5,150.5,501.0,152.5,504.5,153.5,508.5,156.5,512.0" stroke="black" stroke-width="2" fill="none" />
<polyline points="133.0,507.0,129.0,499.0" stroke="black" stroke-width="2" fill="none" />
<polyline points="123.0,498.5,125.0,502.5,124.0,506.5,124.5,511.0" stroke="black" stroke-width="2" fill="none" />
<polyline points="130.0,510.5,126.0,504.5,122.5,496.5" stroke="black" stroke-width="2" fill="none" />
<polyline points="124.0,490.0,124.5,492.0,125.0,497.0,125.0,501.5,125.0,505.5,124.0,509.5" stroke="black" stroke-width="2" fill="none" />
<polyline points="126.5,505.5,129.5,509.5,132.5,513.5" stroke="black" stroke-width="2" fill="none" />
<polyline points="109.5,509.0,109.5,505.0,110.0,500.5,110.0,496.0,111.5,492.0,111.5,488.0,112.0,486.5" stroke="black" stroke-width="2" fill="none" />
<polyline points="114.5,488.5,114.5,492.5,114.0,497.0,112.5,500.5,112.5,504.0,112.0,508.0,111.0,512.0" stroke="black" stroke-width="2" fill="none" />
<polyline points="105.5,506.0,101.5,501.5" stroke="black" stroke-width="2" fill="none" />
<polyline points="99.5,492.0,99.0,496.0,100.0,499.5,102.0,503.5,104.0,507.5,105.5,511.5" stroke="black" stroke-width="2" fill="none" />
<polyline points="104.5,511.0,103.0,506.5,100.5,502.5,98.0,498.5,97.5,494.5,96.5,490.5" stroke="black" stroke-width="2" fill="none" />
<polyline points="96.5,469.5,92.5,473.5,93.5,472.5,97.0,468.5" stroke="black" stroke-width="2" fill="none" />
<polyline points="94.0,455.0,88.5,459.5,87.0,460.5,91.0,457.5,95.0,454.5" stroke="black" stroke-width="2" fill="none" />
<polyline points="93.0,452.0,89.0,455.5,84.5,457.0,82.5,458.0,89.0,454.5,93.5,450.5" stroke="black" stroke-width="2" fill="none" />
<polyline points="103.5,447.5,105.0,443.5,105.5,439.5" stroke="black" stroke-width="2" fill="none" />
<polyline points="108.0,441.0,109.0,443.5,109.5,447.5" stroke="black" stroke-width="2" fill="none" />
<polyline points="120.5,451.5,123.5,455.5" stroke="black" stroke-width="2" fill="none" />
<polyline points="125.5,454.5,124.5,450.5,122.5,452.0" stroke="black" stroke-width="2" fill="none" />
<polyline points="119.0,443.5,121.0,439.5" stroke="black" stroke-width="2" fill="none" />
<polyline points="119.5,438.0,119.0,444.0,118.0,443.5,119.5,439.5,121.0,435.5,121.5,432.0" stroke="black" stroke-width="2" fill="none" />
<polyline points="128.0,430.5,124.0,426.5,120.5,421.5" stroke="black" stroke-width="2" fill="none" />
<polyline points="122.5,417.0,126.5,424.5,130.0,427.5" stroke="black" stroke-width="2" fill="none" />
<polyline points="137.0,430.0,138.0,431.5,139.5,435.0" stroke="black" stroke-width="2" fill="none" />
<polyline points="132.5,428.5,131.0,425.0,131.0,421.0,126.5,416.0" stroke="black" stroke-width="2" fill="none" />
<polyline points="129.0,414.0,133.5,418.5,137.5,423.0,140.5,423.5,143.0,427.5,145.5,431.5,145.0,435.0,146.0,439.5,150.0,443.5,152.5,447.5,153.0,451.5,154.0,455.5,153.5,457.0,159.5,461.5" stroke="black" stroke-width="2" fill="none" />
<polyline points="159.0,460.5,154.5,458.5" stroke="black" stroke-width="2" fill="none" />
<polyline points="150.0,460.5,154.0,466.0,157.0,466.0,158.0,472.0,160.5,475.0,159.0,474.5,164.5,475.5,166.0,471.0" stroke="black" stroke-width="2" fill="none" />
<polyline points="165.5,470.0,169.5,474.0,171.0,478.0,168.5,482.0,166.5,485.5,168.5,489.0,169.5,491.5" stroke="black" stroke-width="2" fill="none" />
<polyline points="168.5,490.5,167.0,486.0,160.5,483.0" stroke="black" stroke-width="2" fill="none" />
<polyline points="168.0,478.0,165.5,482.0,167.0,479.5,170.0,480.5" stroke="black" stroke-width="2" fill="none" />
<polyline points="164.5,457.0,162.5,459.0,163.0,455.0,164.5,451.0,161.5,451.5,161.0,449.5" stroke="black" stroke-width="2" fill="none" />
<polyline points="164.5,445.5,165.5,449.0,167.0,452.5,168.5,457.0,171.0,461.0,168.0,463.5,167.0,467.5,162.5,470.0,163.0,473.5,161.0,477.5,158.0,479.0,158.5,482.0,158.0,486.0,159.5,490.5,163.5,494.0,165.0,498.0,166.5,505.0,170.5,508.5,171.5,512.5,172.5,511.5" stroke="black" stroke-width="2" fill="none" />
<polyline points="194.5,490.5,198.5,490.0,202.5,489.0,206.5,488.0,210.5,486.5,214.0,484.5,217.5,481.5,221.0,477.5,224.5,472.5,228.0,467.0" stroke="black" stroke-width="2" fill="none" />
<polyline points="234.5,464.5,238.0,457.5" stroke="black" stroke-width="2" fill="none" />
<polyline points="210.0,488.0,215.5,484.0,219.5,480.0,223.0,476.0,226.0,471.5,229.0,468.0,231.0,463.5,233.0,459.5,233.5,455.0,234.0,450.5,235.0,446.5,236.0,442.5,236.5,438.5,237.0,435.0,236.5,431.0,236.5,426.5,236.5,423.0,236.0,418.5,235.0,414.5,233.5,410.0,232.5,406.0,232.0,404.0" stroke="black" stroke-width="2" fill="none" />
<polyline points="229.5,414.5,229.0,419.0" stroke="black" stroke-width="2" fill="none" />
<polyline points="223.0,415.0,222.0,414.0,222.0,409.5" stroke="black" stroke-width="2" fill="none" />
<polyline points="243.0,410.5,242.5,414.5,243.0,418.0,242.5,422.0,241.5,426.0,240.5,430.0,240.5,434.0,240.0,437.5,239.5,441.5,239.0,445.5,237.5,449.5,237.5,453.5,236.5,457.5,235.0,461.5,233.0,466.0,232.5,470.0,230.0,474.5,227.0,478.5,223.0,483.0,219.0,487.0,211.5,491.0" stroke="black" stroke-width="2" fill="none" />
<polyline points="197.5,494.0,194.0,497.0,198.0,494.0,202.0,494.0,206.0,492.0,210.0,490.5,214.0,489.0,218.0,486.0,223.0,482.0,227.0,477.0,231.5,470.5" stroke="black" stroke-width="2" fill="none" />
<polyline points="198.0,448.0,198.5,444.0,201.0,443.5,197.0,445.5" stroke="black" stroke-width="2" fill="none" />
<polyline points="199.0,450.5,195.0,448.5,190.5,448.5,186.5,448.0,182.5,447.0,179.0,450.5,180.0,449.0,181.5,449.0,183.5,442.5,183.0,437.0,181.5,434.5,180.0,432.5,181.5,428.5,182.0,425.0,181.0,421.0,180.0,417.0,178.5,413.0,177.5,409.0,176.0,405.0,173.5,401.5,170.5,397.5,167.0,393.0,162.0,389.0,160.0,385.0,163.0,380.5,163.5,376.5,162.0,379.5" stroke="black" stroke-width="2" fill="none" />
<polyline points="159.0,377.0,163.0,371.5,167.5,366.0,172.0,361.5,176.0,356.0,180.0,349.5,184.0,343.5,188.0,339.0,191.5,333.5,195.5,329.0,199.0,324.0" stroke="black" stroke-width="2" fill="none" />
<polyline points="197.0,318.0,201.0,316.5" stroke="black" stroke-width="2" fill="none" />
<polyline points="192.0,318.5,196.0,309.5,200.0,301.0,204.0,293.0,208.5,286.5,212.5,278.5,216.5,271.5,220.5,264.5,224.5,257.5,228.5,251.0,233.0,245.0,236.5,240.0,240.0,235.0,244.0,230.0,248.0,226.0,252.0,221.5,256.0,218.0" stroke="black" stroke-width="2" fill="none" />
<polyline points="263.0,221.0,267.0,225.5" stroke="black" stroke-width="2" fill="none" />
<polyline points="264.5,235.5,264.5,239.5" stroke="black" stroke-width="2" fill="none" />
<polyline points="261.5,239.0,261.5,235.5,262.0,231.0,262.5,227.0,262.5,225.5,258.5,224.0,253.0,230.0,249.0,235.0,245.0,239.5,241.0,245.0,236.5,250.0,232.5,255.0,228.0,260.0,223.5,266.0,219.0,272.0,215.0,279.5,213.0,283.5,215.5,279.5,218.5,275.5,221.0,271.5,223.5,268.0,226.5,264.0,228.5,260.0,232.0,255.5,234.5,251.0,237.5,247.0,240.5,243.0,244.5,239.5,247.5,235.5,251.5,231.5,256.0,226.5,259.5,223.0,262.5,219.5,265.0,218.0,263.5,216.5,264.5,212.0,265.0,208.0,268.5,204.0,270.0,200.0,270.0,196.0,271.0,192.0,270.0,188.5,265.5,193.5,262.0,198.0,258.0,202.5,254.0,204.0" stroke="black" stroke-width="2" fill="none" />
<polyline points="252.0,203.5,256.0,199.0" stroke="black" stroke-width="2" fill="none" />
<polyline points="263.0,200.0,259.0,208.0,256.5,214.0,252.5,217.0,248.5,221.0,244.5,225.0,240.5,229.5,236.5,234.5,233.0,234.0,232.5,233.5,231.5,229.5,231.0,225.5,230.0,221.5,228.0,218.0,226.5,214.0,225.0,214.0,224.5,210.0,224.5,206.0,225.0,202.0" stroke="black" stroke-width="2" fill="none" />
<polyline points="233.0,203.5,236.0,201.5,234.5,205.5,235.0,209.5" stroke="black" stroke-width="2" fill="none" />
<polyline points="242.0,211.5,246.0,212.5,250.5,212.5" stroke="black" stroke-width="2" fill="none" />
<polyline points="260.5,209.5,264.5,202.0,262.0,202.0,260.0,206.0,258.5,210.0,258.0,214.0,255.5,218.5,251.5,222.0,248.0,225.5,244.5,229.0,241.0,233.0,238.5,236.5,235.0,240.5" stroke="black" stroke-width="2" fill="none" />
<polyline points="234.5,222.5,230.5,220.5" stroke="black" stroke-width="2" fill="none" />
<polyline points="232.5,220.5,228.5,218.0" stroke="black" stroke-width="2" fill="none" />
<polyline points="226.0,214.5,223.5,219.5,227.0,228.5" stroke="black" stroke-width="2" fill="none" />
<polyline points="215.0,222.0,211.0,216.0" stroke="black" stroke-width="2" fill="none" />
<polyline points="213.0,216.0,215.0,220.0,216.5,226.5,219.0,230.0,217.0,233.5" stroke="black" stroke-width="2" fill="none" />
<polyline points="213.0,237.5,213.5,242.0,213.5,245.5,212.5,249.5,213.5,250.5,214.0,254.5,215.5,255.5" stroke="black" stroke-width="2" fill="none" />
<polyline points="204.0,266.5,197.5,263.0,194.0,259.5,193.0,255.5,192.0,251.5,188.0,250.5,184.0,253.0" stroke="black" stroke-width="2" fill="none" />
<polyline points="185.0,254.5,186.5,257.5,186.0,261.0,186.0,265.5,186.5,269.5" stroke="black" stroke-width="2" fill="none" />
<polyline points="181.5,262.5,177.5,255.5" stroke="black" stroke-width="2" fill="none" />
<polyline points="176.0,256.0,180.0,263.0" stroke="black" stroke-width="2" fill="none" />
<polyline points="180.0,265.0,177.5,261.0" stroke="black" stroke-width="2" fill="none" />
<polyline points="176.5,261.5,176.5,257.5" stroke="black" stroke-width="2" fill="none" />
<polyline points="172.0,256.5,175.0,251.0,172.5,255.0,170.5,259.0,170.0,263.0,169.0,266.5,168.5,271.0,169.0,275.0,166.5,278.5,168.5,279.5" stroke="black" stroke-width="2" fill="none" />
<polyline points="166.0,275.5,166.5,275.0,166.0,271.0,167.5,267.0,165.0,263.0,166.5,259.5,165.5,265.5" stroke="black" stroke-width="2" fill="none" />
<polyline points="163.5,258.5,165.0,260.0,163.5,264.0,162.0,268.5,161.5,272.5,160.5,276.5,161.5,280.5,159.5,285.5" stroke="black" stroke-width="2" fill="none" />
<polyline points="159.5,285.5,155.5,282.0" stroke="black" stroke-width="2" fill="none" />
<polyline points="155.0,282.5,159.0,288.5,162.5,291.0" stroke="black" stroke-width="2" fill="none" />
<polyline points="161.0,294.0,157.0,292.0,152.5,290.0" stroke="black" stroke-width="2" fill="none" />
<polyline points="151.0,292.5,155.5,295.0,160.0,296.5,164.0,296.0,168.0,294.0,172.0,290.5,172.0,287.5" stroke="black" stroke-width="2" fill="none" />
<polyline points="172.0,292.5,171.0,296.5,170.0,300.5,170.0,304.0,167.5,308.0,167.5,312.0,166.5,314.0,164.0,317.5,169.5,321.0,168.0,324.5,166.0,328.0,162.5,332.5,160.0,336.5,159.0,342.5,154.0,346.5,151.5,351.0,152.5,352.5,150.0,355.0,147.5,358.0,146.0,353.0,148.0,350.5,152.5,352.5,157.0,353.0,159.5,345.0,163.0,347.5,167.0,345.5,170.5,343.5" stroke="black" stroke-width="2" fill="none" />
<polyline points="165.5,345.5,165.5,340.5,169.5,338.5,174.0,334.5,180.0,330.5,183.0,326.5,184.0,322.5,186.5,318.5,192.5,316.5,194.0,312.5,195.5,308.0,197.5,303.5,199.0,300.0,201.0,296.0,203.0,292.0,205.0,288.0,207.5,284.0,209.5,280.0,212.0,276.5,214.0,272.5,216.5,268.5,218.5,265.0,221.5,261.0,224.0,256.5,227.0,252.5,229.0,249.0,232.5,245.0,234.5,238.5,238.0,234.5,241.5,230.5,245.5,226.5,249.5,222.5,253.5,218.5,254.0,214.5,255.5,211.5,256.0,207.0,257.5,203.5,252.5,211.5,249.0,210.0,245.0,210.0,241.0,208.5,237.5,205.5,238.5,201.5,240.0,197.5,241.0,194.5,243.0,190.5,248.5,186.5,249.0,184.5,257.0,180.0,250.5,175.0,252.5,173.5,247.5,172.5,246.5,171.5,242.5,173.0" stroke="black" stroke-width="2" fill="none" />
<polyline points="243.5,171.5,240.5,175.5,240.5,180.0,239.0,184.5,234.0,187.5,238.5,185.0,243.5,182.0,247.5,181.0,251.5,178.0" stroke="black" stroke-width="2" fill="none" />
<polyline points="251.5,177.5,247.5,181.0,243.0,184.0,245.5,186.5,242.5,191.0,239.0,195.0,237.0,199.0,235.0,203.0,233.0,207.0,230.0,210.5,231.0,210.5,231.0,209.5,235.0,208.0" stroke="black" stroke-width="2" fill="none" />
<polyline points="237.0,206.0,238.0,202.0" stroke="black" stroke-width="2" fill="none" />
<polyline points="243.5,199.0,247.5,193.5,251.5,190.5,255.0,188.5,249.5,188.0,246.0,192.5,243.0,193.5,247.5,189.5,250.5,187.5,254.5,183.0,255.5,186.5,259.5,184.0,263.5,181.5,267.5,180.5" stroke="black" stroke-width="2" fill="none" />
<polyline points="267.0,181.5,263.0,185.5,257.5,189.0,254.0,191.5,253.5,195.0,249.5,198.5,247.0,202.5,246.5,203.0,250.5,203.5,250.5,200.0,254.5,196.0,258.5,192.0,262.0,188.5,266.0,186.5,270.5,188.5" stroke="black" stroke-width="2" fill="none" />
<polyline points="266.5,189.0,263.0,190.5,259.0,194.0,256.5,201.0,260.0,197.0,263.5,193.0,266.5,189.5" stroke="black" stroke-width="2" fill="none" />
<polyline points="265.5,189.5,261.0,193.0,258.0,197.0,253.5,200.0,253.0,204.5,252.5,208.5,254.0,214.0,254.0,216.5" stroke="black" stroke-width="2" fill="none" />
<polyline points="261.5,211.5,265.5,207.0" stroke="black" stroke-width="2" fill="none" />
<polyline points="264.0,199.5,263.5,203.5,261.5,207.0,260.5,211.0,260.5,215.0,259.0,220.0,255.0,224.0,250.5,228.0,247.0,232.0,244.0,236.0,240.5,240.0,237.0,244.0,234.5,248.0,231.0,252.0,228.0,256.0,225.5,260.0,222.5,264.0,220.5,268.0,218.5,272.0,216.0,276.5,214.0,280.5,212.0,284.5,211.0,288.0,209.0,292.0,207.0,296.0,204.5,300.0,203.0,304.5,201.0,308.5,199.5,312.5,197.5,316.5,199.5,320.0,199.5,312.5,203.5,302.5,207.5,294.5,211.5,286.0,216.0,278.0,220.0,271.0,224.0,264.5,227.5,258.0,232.0,252.0,236.0,246.5,240.0,241.5,243.5,237.5,247.5,233.0,252.0,228.5,256.0,224.0,259.5,220.5,263.5,217.0,264.5,213.0,269.0,206.0,273.0,204.0,277.0,200.5,281.0,197.0,285.0,193.5,288.5,190.5,292.5,187.0,296.5,184.0,300.0,180.0,304.0,177.0,308.0,174.5" stroke="black" stroke-width="2" fill="none" />
<polyline points="310.0,172.5,304.0,176.5,299.0,180.5,294.0,184.5,289.5,188.0,284.5,192.0,280.5,196.0,275.5,200.0,271.0,204.0,268.0,209.0,271.0,208.5,268.0,213.0,266.5,218.0,266.0,222.5,265.0,224.5,264.5,228.5,265.0,232.5,263.5,236.5,263.5,240.0" stroke="black" stroke-width="2" fill="none" />
<polyline points="272.5,244.0,267.0,244.5,261.5,249.0,256.5,253.0,252.5,257.0,248.0,261.5,245.0,265.5,241.0,269.0,237.5,273.0,234.0,276.5,230.0,280.5,226.0,284.5,222.5,289.0,219.0,293.0,216.0,297.0,213.5,301.0,211.0,304.5,208.5,308.5,205.5,312.5,204.5,317.0,202.0,321.0,198.0,324.5,195.0,328.5,192.5,332.5,189.5,336.5,186.5,341.0,183.5,345.0,180.5,349.5,178.0,353.5,175.5,357.5,172.5,361.5,169.0,365.5,165.5,370.0,163.0,374.0,160.5,378.0,159.0,384.0,162.0,390.0,166.0,393.5,170.0,398.5,174.0,404.0,178.0,412.0" stroke="black" stroke-width="2" fill="none" />
<polyline points="173.0,407.0,168.5,403.5,164.5,403.0,158.5,396.5,154.5,392.5" stroke="black" stroke-width="2" fill="none" />
<polyline points="152.0,395.0,156.0,396.5" stroke="black" stroke-width="2" fill="none" />
<polyline points="157.5,400.0,153.0,396.5,151.0,397.5" stroke="black" stroke-width="2" fill="none" />
<polyline points="148.0,394.0,148.5,397.0,149.0,402.5,150.0,406.5,151.5,413.5,151.5,417.5,152.5,421.5" stroke="black" stroke-width="2" fill="none" />
<polyline points="162.5,424.0,161.0,427.0,161.0,423.5,162.5,419.5,162.0,425.5,164.0,421.5,163.5,417.5,162.0,413.0,162.0,409.0,160.5,404.5,160.5,400.5,162.0,397.0,161.0,393.0,157.5,388.0,156.5,383.5,155.0,379.5,152.5,376.0,152.5,372.5,151.5,368.5,147.5,362.5" stroke="black" stroke-width="2" fill="none" />
<polyline points="148.0,362.5,150.5,366.5,150.5,368.0,150.5,371.5,150.5,375.5,150.5,379.0,150.0,383.0,149.0,384.0,153.5,388.5,157.0,391.5,160.5,396.0,166.5,398.5,170.5,402.0,174.5,409.5" stroke="black" stroke-width="2" fill="none" />
<polyline points="162.0,410.5,163.5,414.5,166.5,420.0" stroke="black" stroke-width="2" fill="none" />
<polyline points="167.5,426.0,169.0,430.0,171.0,434.5,170.0,438.0,169.5,438.5,174.5,438.0" stroke="black" stroke-width="2" fill="none" />
<polyline points="174.0,423.5,170.5,416.5,161.5,415.5,157.5,410.5,154.0,405.5,150.0,403.5,146.5,398.0,145.5,392.0,141.0,386.5,138.5,392.5,135.0,389.5,135.0,385.5,139.0,382.0,137.0,377.5,134.0,373.5,133.0,372.0,137.0,368.0,141.5,363.5,142.0,359.5,142.0,356.0,141.0,353.0,135.5,351.0,132.0,347.0,129.5,343.0,130.5,339.0,129.0,335.0,130.5,331.0,129.0,327.0,126.5,321.5" stroke="black" stroke-width="2" fill="none" />
<polyline points="117.0,325.0,116.0,329.0,117.0,329.0" stroke="black" stroke-width="2" fill="none" />
<polyline points="125.5,333.0,132.0,332.0,133.0,336.0,134.5,340.0,135.0,344.0,139.0,348.0,138.5,355.0,142.5,356.0,142.5,362.5,146.5,367.0" stroke="black" stroke-width="2" fill="none" />
<polyline points="146.0,368.0,141.5,366.0" stroke="black" stroke-width="2" fill="none" />
<polyline points="144.0,363.0,147.0,367.0" stroke="black" stroke-width="2" fill="none" />
<polyline points="136.5,374.0,140.5,379.0,142.5,384.5" stroke="black" stroke-width="2" fill="none" />
<polyline points="145.5,385.0,145.0,380.5,142.0,380.0,141.5,376.5,140.0,372.5,133.5,373.5" stroke="black" stroke-width="2" fill="none" />
<polyline points="136.0,362.5,132.0,358.5" stroke="black" stroke-width="2" fill="none" />
<polyline points="127.5,359.0,134.0,363.0,135.5,367.0" stroke="black" stroke-width="2" fill="none" />
<polyline points="136.5,357.0,132.5,353.5" stroke="black" stroke-width="2" fill="none" />
<polyline points="131.0,352.5,132.0,358.5,135.5,362.5,137.0,369.0" stroke="black" stroke-width="2" fill="none" />
<polyline points="129.5,375.5,125.5,368.0,121.5,360.0" stroke="black" stroke-width="2" fill="none" />
<polyline points="121.0,363.0,120.5,367.0,121.5,370.5,124.5,374.5,126.0,379.0,130.0,382.5,131.0,386.5,133.0,390.0,132.5,394.0,134.0,396.5" stroke="black" stroke-width="2" fill="none" />
<polyline points="139.5,402.5,144.0,406.5,148.0,411.5" stroke="black" stroke-width="2" fill="none" />
<polyline points="139.0,409.0,142.5,413.0,146.0,418.0,150.0,423.5" stroke="black" stroke-width="2" fill="none" />
<polyline points="149.0,428.0,150.0,424.0,147.5,420.0,144.5,416.0,141.5,412.5,138.0,408.5" stroke="black" stroke-width="2" fill="none" />
<polyline points="135.5,403.5,132.0,408.0,128.0,413.0" stroke="black" stroke-width="2" fill="none" />
<polyline points="121.5,415.0,123.0,419.0,126.0,423.0" stroke="black" stroke-width="2" fill="none" />
<polyline points="130.5,426.5,129.5,422.5,130.0,418.5,127.0,415.5,128.0,411.5,129.0,407.0,123.5,407.5,119.5,412.0,115.5,413.5,111.5,413.5" stroke="black" stroke-width="2" fill="none" />
<polyline points="110.0,417.0,110.5,421.0,110.0,424.5,109.5,428.5,109.0,432.5,107.5,436.5,107.0,440.5,108.0,447.0" stroke="black" stroke-width="2" fill="none" />
<polyline points="103.0,439.0,99.0,443.0,102.0,440.5,104.0,436.5" stroke="black" stroke-width="2" fill="none" />
<polyline points="102.5,436.0,98.5,441.0,95.5,446.0,93.5,444.5,93.0,449.0,94.0,445.0,99.0,441.0,103.0,437.0,105.0,433.0,106.5,428.5,107.0,424.5,107.0,420.5,111.0,418.5,106.5,419.5" stroke="black" stroke-width="2" fill="none" />
<polyline points="112.0,419.5,112.5,423.5,113.0,427.0,114.0,431.0,115.0,433.0" stroke="black" stroke-width="2" fill="none" />
<polyline points="116.0,430.5,116.0,427.0" stroke="black" stroke-width="2" fill="none" />
<polyline points="120.5,416.5,121.0,420.5,123.5,425.0,127.5,429.0" stroke="black" stroke-width="2" fill="none" />
<polyline points="142.5,448.0,146.5,450.5,150.5,451.5,154.0,452.5" stroke="black" stroke-width="2" fill="none" />
<polyline points="148.5,458.5,152.5,463.0,156.0,465.5" stroke="black" stroke-width="2" fill="none" />
<polyline points="154.5,467.5,148.0,461.0" stroke="black" stroke-width="2" fill="none" />
<polyline points="149.0,454.5,145.0,451.0" stroke="black" stroke-width="2" fill="none" />
<polyline points="145.0,448.0,148.5,452.0,152.0,453.0,152.5,457.5,153.5,454.5,157.5,455.0,163.0,454.5" stroke="black" stroke-width="2" fill="none" />
<polyline points="169.0,455.0,171.5,459.0,171.5,464.0,170.0,468.0,167.0,468.5" stroke="black" stroke-width="2" fill="none" />
<polyline points="165.5,470.0,161.5,469.5,156.0,472.5,152.0,470.0,148.0,463.5,144.0,455.0,140.0,452.5,136.0,458.0,132.5,467.0" stroke="black" stroke-width="2" fill="none" />
<polyline points="123.0,483.0,124.0,487.5,126.0,491.0,128.0,495.0,129.5,499.0,131.0,503.0,132.5,506.5,135.5,510.5" stroke="black" stroke-width="2" fill="none" />
<polyline points="121.0,511.5,121.0,508.0,121.0,504.0,121.0,500.0,119.5,496.5,119.0,492.0,120.0,488.0,119.5,484.0" stroke="black" stroke-width="2" fill="none" />
<polyline points="141.5,450.0,144.0,454.0,147.0,458.0,148.0,462.0,148.5,466.0,149.0,470.5,152.5,474.5,154.0,478.0,156.5,478.5,156.5,484.5,154.5,488.0,158.0,492.0,161.0,496.0,162.0,500.0,164.5,504.5,164.5,509.0,166.5,513.0" stroke="black" stroke-width="2" fill="none" />
<polyline points="167.5,478.0,163.0,478.0,159.0,480.5,155.5,478.5,156.0,474.5,153.5,470.5,150.0,467.5,150.5,464.0,150.0,460.0,149.0,455.0,146.5,450.5,145.5,446.5" stroke="black" stroke-width="2" fill="none" />
<polyline points="131.0,406.5,134.5,402.5,135.0,395.0,138.5,393.0,143.0,389.5,144.0,386.0,143.5,385.5,145.5,380.5,147.0,375.0,147.5,371.0,148.0,367.5,145.5,363.5,145.0,359.5,145.5,355.5,143.5,353.5,142.5,350.0,139.5,346.0,138.0,341.0,137.0,337.0,136.5,332.5,137.0,328.5,136.0,324.0,135.5,320.0,134.0,316.0,132.5,312.0,131.0,308.0,129.5,304.0,127.5,297.0,131.5,293.0,135.5,291.0,137.5,287.5,131.0,283.5,127.0,277.5" stroke="black" stroke-width="2" fill="none" />
<polyline points="126.5,274.0,126.5,278.0,129.0,282.5,129.5,286.5,126.5,289.5,125.0,293.5,124.0,297.0,122.5,301.0,125.0,304.5,123.5,308.5,122.0,313.0,121.5,317.0,121.0,320.5,122.5,324.5,122.5,328.5,122.5,332.5,123.0,338.0" stroke="black" stroke-width="2" fill="none" />
<polyline points="117.5,339.0,118.0,343.0,118.0,346.5,119.5,350.5,122.0,354.5,122.5,358.5,123.5,362.5,125.5,366.0,127.0,370.0,129.0,374.0,131.5,378.0,132.0,383.0,134.0,384.5,139.0,386.5,140.0,391.0" stroke="black" stroke-width="2" fill="none" />
<polyline points="143.5,391.0,142.0,395.0,139.5,399.5,138.5,403.5,134.0,407.5,130.5,411.5,130.0,414.5,133.0,419.0,135.5,422.0,139.0,426.0,140.0,431.0,141.0,435.0,138.5,440.5,139.0,444.0,138.0,448.0,137.5,451.5,135.5,455.5,132.5,458.0,131.5,462.0,136.0,466.5,137.0,467.0,140.5,467.5,144.5,472.5,148.0,476.5,151.5,479.0,155.5,481.5,159.5,482.5,163.5,485.5,166.5,488.5" stroke="black" stroke-width="2" fill="none" />
<polyline points="198.0,433.0,197.0,429.0" stroke="black" stroke-width="2" fill="none" />
<polyline points="196.5,425.0,196.5,429.0,194.5,431.0,193.5,435.0" stroke="black" stroke-width="2" fill="none" />
<polyline points="192.5,434.5,192.5,430.5,192.5,426.5" stroke="black" stroke-width="2" fill="none" />
<polyline points="179.0,426.5,178.5,422.5,178.0,418.5,177.0,414.0,175.5,410.0,174.0,406.0,170.5,401.5,167.5,400.5,166.0,396.0" stroke="black" stroke-width="2" fill="none" />
<polyline points="154.5,385.5,150.5,382.5,151.5,380.0" stroke="black" stroke-width="2" fill="none" />
<polyline points="145.0,393.5,148.0,397.5,150.5,405.5" stroke="black" stroke-width="2" fill="none" />
<polyline points="135.5,393.0,131.5,397.0,127.5,395.0,123.5,392.0" stroke="black" stroke-width="2" fill="none" />
<polyline points="123.5,390.0,127.5,388.5,134.5,390.5" stroke="black" stroke-width="2" fill="none" />
<polyline points="128.5,381.0,124.5,378.5,124.0,373.5,120.0,367.5" stroke="black" stroke-width="2" fill="none" />
<polyline points="121.0,364.5,125.0,370.5,129.0,377.5" stroke="black" stroke-width="2" fill="none" />
<polyline points="124.0,382.5,124.5,386.5,126.0,388.0,123.0,392.0,127.5,396.0" stroke="black" stroke-width="2" fill="none" />
<polyline points="118.5,394.0,122.0,399.0,126.5,400.0,130.5,400.5,137.5,401.5,142.0,395.0,145.5,397.0,149.5,400.5" stroke="black" stroke-width="2" fill="none" />
<polyline points="126.0,402.0,121.5,397.5,118.5,394.0,118.5,390.0,120.0,387.0,119.5,383.0,119.0,380.0,120.0,376.0,118.5,375.5,119.5,371.0,119.0,372.0" stroke="black" stroke-width="2" fill="none" />
<polyline points="122.5,364.0,124.0,368.0,126.0,372.0,127.5,376.0,130.0,381.0" stroke="black" stroke-width="2" fill="none" />
<polyline points="118.0,389.5,122.5,395.5,124.0,397.5,126.0,401.5" stroke="black" stroke-width="2" fill="none" />
<polyline points="127.0,405.0,123.0,403.0,119.0,398.0,117.0,393.0,117.5,389.0,117.0,385.5,117.0,381.0,117.0,377.0,117.0,373.5,116.5,369.5,117.5,365.5,119.0,361.5,118.5,358.0,119.0,351.0,115.0,345.0" stroke="black" stroke-width="2" fill="none" />
<polyline points="108.0,345.0,108.0,344.0,106.5,343.0,107.0,347.0,109.5,353.0,108.5,357.0,108.0,361.0,107.0,365.0,105.0,368.5,105.0,372.5,104.5,377.0,104.0,381.0" stroke="black" stroke-width="2" fill="none" />
<polyline points="106.5,391.5,105.5,395.5,106.0,399.5,107.0,403.5" stroke="black" stroke-width="2" fill="none" />
<polyline points="103.0,407.5,99.0,408.5,97.5,408.0,96.0,404.0,95.0,401.5,93.5,399.5,91.5,395.5,91.0,390.5,90.5,387.0,91.5,383.0,86.5,386.5" stroke="black" stroke-width="2" fill="none" />
<polyline points="82.0,387.0,81.5,391.0,80.5,397.0,79.0,401.0,76.0,405.5,74.0,409.5,74.0,413.0" stroke="black" stroke-width="2" fill="none" />
<polyline points="68.5,416.0,71.5,419.5,71.5,423.5,70.0,425.0" stroke="black" stroke-width="2" fill="none" />
<polyline points="66.5,424.0,65.0,423.0,65.0,419.5,64.5,415.5,65.5,411.0,67.0,406.5,70.5,402.5,73.0,398.5,74.0,394.5,72.5,394.5,73.0,397.0" stroke="black" stroke-width="2" fill="none" />
<polyline points="80.0,394.5,76.0,401.0,72.5,405.0" stroke="black" stroke-width="2" fill="none" />
<polyline points="66.5,407.5,70.5,403.0,74.0,400.5,78.0,394.0,80.0,385.5" stroke="black" stroke-width="2" fill="none" />
<polyline points="81.5,385.5,78.5,389.0,78.0,393.0,76.5,397.5,73.5,402.0,72.5,406.0,71.5,411.0,70.5,415.0,68.5,415.5,68.0,419.0,68.0,423.0,66.5,426.5,69.0,426.0,69.5,430.0,71.0,431.0,70.5,435.0,69.5,438.5,70.0,442.5,70.5,446.5,70.5,450.5,70.5,454.5,70.0,458.5,70.0,462.5,68.5,466.0,66.5,469.5,65.0,473.5,63.5,477.5,63.5,481.5,64.0,486.0,64.5,490.0,65.5,494.0,65.0,498.0,62.0,501.5,62.5,505.5,62.0,509.5,64.0,509.5,66.5,506.0" stroke="black" stroke-width="2" fill="none" />
<polyline points="64.0,502.5,66.5,508.5,66.0,512.5" stroke="black" stroke-width="2" fill="none" />
<polyline points="69.5,497.0,70.0,493.0,71.0,489.0,71.0,485.5,71.0,481.5,69.0,478.0" stroke="black" stroke-width="2" fill="none" />
<polyline points="64.5,472.0,67.5,470.5,68.0,475.0,67.5,479.0,67.0,483.0,66.0,486.5,66.5,490.5,68.0,494.5" stroke="black" stroke-width="2" fill="none" />
<polyline points="71.0,465.0,71.5,461.5,72.0,457.5,72.5,455.5" stroke="black" stroke-width="2" fill="none" />
<polyline points="73.5,457.0,73.5,460.5,73.0,464.0,75.0,467.5,74.5,471.5" stroke="black" stroke-width="2" fill="none" />
<polyline points="66.5,453.5,67.0,450.0,67.0,448.0" stroke="black" stroke-width="2" fill="none" />
<polyline points="64.5,451.5,63.5,455.5,65.0,459.5,66.5,463.5,69.0,468.5,69.5,471.5,69.5,476.0,69.0,480.5,69.0,484.5" stroke="black" stroke-width="2" fill="none" />
<polyline points="31.5,492.0,29.5,498.0,30.0,502.0,33.0,506.5,33.0,510.5" stroke="black" stroke-width="2" fill="none" />
<polyline points="16.5,510.5,16.5,507.0,18.5,503.0,17.5,503.5" stroke="black" stroke-width="2" fill="none" />
<polyline points="15.0,506.0,14.5,501.5,14.0,497.5,13.0,493.5" stroke="black" stroke-width="2" fill="none" />
<polyline points="10.0,429.5,10.0,425.0,5.0,423.0" stroke="black" stroke-width="2" fill="none" />
<polyline points="3.0,420.5,6.0,424.5,8.5,428.0,10.0,432.0,10.5,436.0,11.0,440.0,11.5,443.5,13.5,445.5,13.0,449.0,13.0,453.0,13.0,457.0,15.5,459.5,13.5,463.5,14.5,467.0,15.0,470.5,13.5,474.5,12.5,477.0" stroke="black" stroke-width="2" fill="none" />
<polyline points="35.0,462.0,35.0,458.5,34.5,454.5,33.5,451.0,33.0,447.0,32.5,442.0,33.0,437.5,33.0,433.5,33.0,429.0,33.0,425.0" stroke="black" stroke-width="2" fill="none" />
<polyline points="25.0,419.5,23.0,412.5" stroke="black" stroke-width="2" fill="none" />
<polyline points="22.5,411.5,25.0,415.5,26.0,420.0,26.5,424.0,26.5,428.0,26.0,432.5,26.0,436.5,26.5,440.5,28.0,445.0,28.0,448.5,27.5,452.5,29.0,457.0,29.0,460.5,28.5,464.0,29.5,467.5,29.5,471.0,29.0,475.0,30.5,479.0,31.0,483.0,31.5,487.0,31.0,491.0,32.0,495.5,32.5,499.5,31.5,503.0" stroke="black" stroke-width="2" fill="none" />
<polyline points="69.0,435.5,66.5,436.0,67.0,431.0,66.5,431.5" stroke="black" stroke-width="2" fill="none" />
<polyline points="65.5,420.0,67.5,416.0,68.5,412.0,70.0,408.0,70.5,404.0,67.0,414.0" stroke="black" stroke-width="2" fill="none" />
<polyline points="91.5,406.5,95.5,405.5" stroke="black" stroke-width="2" fill="none" />
<polyline points="96.0,400.5,92.0,398.5" stroke="black" stroke-width="2" fill="none" />
<polyline points="94.0,401.5,90.0,395.0" stroke="black" stroke-width="2" fill="none" />
<polyline points="80.5,382.5,76.5,389.5,72.0,393.0,68.0,396.0,63.5,398.5,59.5,401.0,62.0,396.5,66.0,392.5,70.5,388.5,75.0,384.5,77.5,380.5,77.5,381.0,73.5,387.0,69.5,391.0,65.0,395.0,61.0,398.5,57.5,403.0,63.5,399.0,69.0,395.0,73.0,391.0,76.0,387.0,78.5,383.5,81.5,379.5,81.5,375.5,82.5,370.0,86.0,366.0,87.5,362.0,89.5,358.0,87.5,357.0,91.5,356.0,94.5,352.0,96.5,348.0,99.0,348.0,95.0,343.0,92.0,348.0,93.0,344.0,94.5,340.0,95.5,336.0,95.0,332.0,95.0,328.0,95.0,324.0,95.5,319.5,96.5,315.0,96.0,310.5,100.5,306.5,103.5,302.5,106.5,301.0,104.0,301.5,100.5,307.5,96.5,311.0" stroke="black" stroke-width="2" fill="none" />
<polyline points="88.5,307.5,82.5,311.0,86.5,309.0,90.5,308.0,95.5,306.5,99.5,305.0,103.5,301.5" stroke="black" stroke-width="2" fill="none" />
<polyline points="107.5,301.5,105.5,305.5,102.0,309.5,100.0,313.5,98.0,318.0,97.0,319.5,101.0,310.5,105.0,305.5" stroke="black" stroke-width="2" fill="none" />
<polyline points="109.0,295.0,104.5,296.0,100.5,297.0,95.0,294.5,91.0,295.5,87.0,296.0,83.0,298.5,89.5,296.0" stroke="black" stroke-width="2" fill="none" />
<polyline points="87.0,294.0,80.5,298.0,84.0,295.0,88.0,293.5,91.5,292.5,95.5,292.5,99.5,291.0,103.5,291.0,107.5,289.5,111.5,287.0" stroke="black" stroke-width="2" fill="none" />
<polyline points="116.0,284.0,115.5,286.0,108.5,289.0,112.5,285.0,110.5,279.0,113.0,276.5,112.0,272.5,115.5,270.5,111.5,270.5" stroke="black" stroke-width="2" fill="none" />
<polyline points="111.5,272.5,112.5,273.5,114.0,277.0,116.0,283.0,113.0,287.0,109.0,291.0,108.5,295.5,105.0,299.5,100.5,303.5,92.5,307.5,93.0,311.5,92.5,315.5,91.0,320.0,90.0,324.0,89.5,328.5,89.0,332.5,89.0,336.5,84.5,341.0,81.5,345.0,78.5,348.5,75.0,353.0,72.5,357.0,69.0,361.0,65.0,362.0,68.5,357.5,72.5,353.0,76.5,348.5,80.5,344.0,84.5,338.5,89.0,332.5,93.0,330.0" stroke="black" stroke-width="2" fill="none" />
<polyline points="98.5,322.0,102.5,314.0,106.0,308.5,110.0,304.5,114.5,301.0,118.5,297.0" stroke="black" stroke-width="2" fill="none" />
<polyline points="121.0,303.5,117.5,304.5,116.5,309.0,113.0,313.0,109.0,317.0,106.0,321.0,102.0,327.5" stroke="black" stroke-width="2" fill="none" />
<polyline points="106.5,323.0,110.5,319.0,115.0,316.5,119.0,309.0,119.0,310.0,116.5,314.0,112.5,318.0,108.0,322.5,106.0,319.0,110.0,315.0,111.0,313.0,109.5,316.0,105.0,320.0,104.5,324.0,108.5,319.0,112.5,315.0,116.5,310.0" stroke="black" stroke-width="2" fill="none" />
<polyline points="118.5,309.5,116.5,313.5,115.0,317.5,113.0,321.0,111.5,325.0,109.0,329.0,106.0,333.0,101.5,336.5,97.5,340.5" stroke="black" stroke-width="2" fill="none" />
<polyline points="95.5,350.0,91.5,355.5" stroke="black" stroke-width="2" fill="none" />
<polyline points="94.0,355.5,94.5,359.5,93.5,363.5,93.0,367.5,92.5,372.0,92.0,376.5,89.5,380.0,88.5,384.0,88.0,387.0,89.0,391.5,89.5,395.5,91.0,399.0,93.5,402.5,91.0,405.5,92.0,407.0,96.0,409.0,100.0,409.5,104.0,409.0,108.5,404.5,114.5,399.0" stroke="black" stroke-width="2" fill="none" />
<polyline points="116.5,400.0,114.0,403.5,111.5,407.5,112.5,406.5" stroke="black" stroke-width="2" fill="none" />
<polyline points="116.0,408.0,115.5,404.5,116.5,400.5" stroke="black" stroke-width="2" fill="none" />
<polyline points="107.0,392.5,108.0,396.5,110.0,400.5,110.0,404.5,107.0,408.0,99.5,412.5,101.5,414.0" stroke="black" stroke-width="2" fill="none" />
<polyline points="93.5,416.5,89.5,420.5,87.5,425.0,88.5,423.0" stroke="black" stroke-width="2" fill="none" />
<polyline points="90.0,423.0,88.0,425.5,91.0,422.0,92.5,418.5" stroke="black" stroke-width="2" fill="none" />
<polyline points="78.0,366.5,82.0,360.0,86.0,354.0" stroke="black" stroke-width="2" fill="none" />
<polyline points="74.5,364.0,79.0,357.5,83.0,350.5,85.5,349.0,81.5,353.5,79.5,357.5,78.5,361.5,76.0,365.5,76.0,369.5,76.5,373.5" stroke="black" stroke-width="2" fill="none" />
<polyline points="110.0,360.0,110.0,364.0,113.0,368.0" stroke="black" stroke-width="2" fill="none" />
<polyline points="121.5,356.5,125.5,359.0,129.5,361.0,133.5,364.0" stroke="black" stroke-width="2" fill="none" />
<polyline points="137.5,353.0,133.5,349.0,129.5,343.5" stroke="black" stroke-width="2" fill="none" />
<polyline points="128.5,342.5,132.5,348.5,136.5,352.5" stroke="black" stroke-width="2" fill="none" />
<polyline points="147.5,348.5,151.0,351.5,155.5,345.5,159.5,342.5,163.5,340.5,167.5,333.0,171.5,330.5,175.0,330.0,179.0,330.0,183.5,326.0,187.5,317.5,191.5,313.5,195.5,304.5,199.0,296.5,203.0,289.0,207.5,281.0,211.5,274.5,215.5,268.0,219.0,261.0,223.0,254.5,227.5,248.0,231.5,243.0" stroke="black" stroke-width="2" fill="none" />
<polyline points="208.5,226.0,204.5,220.5" stroke="black" stroke-width="2" fill="none" />
<polyline points="204.5,208.5,208.5,204.5,212.5,202.5,214.5,199.0,218.5,196.0,222.5,193.5,227.0,191.5" stroke="black" stroke-width="2" fill="none" />
<polyline points="226.0,193.0,218.5,197.0,213.0,203.5,208.5,207.5,207.0,211.5,207.5,211.0,211.0,205.0,215.0,202.5,219.0,197.0,223.5,194.0,227.5,191.5,231.5,190.5" stroke="black" stroke-width="2" fill="none" />
<polyline points="227.0,186.0,223.0,186.0,219.5,189.5,219.0,193.0,211.0,196.5,215.0,194.5" stroke="black" stroke-width="2" fill="none" />
<polyline points="218.5,190.0,222.5,185.0,225.5,185.0" stroke="black" stroke-width="2" fill="none" />
<polyline points="221.5,183.5,217.0,188.0" stroke="black" stroke-width="2" fill="none" />
<polyline points="207.5,190.5,211.5,185.5,215.5,181.5,219.0,178.5,223.0,175.5,227.0,175.0,231.0,175.5" stroke="black" stroke-width="2" fill="none" />
<polyline points="237.0,178.5,239.0,177.0,241.0,173.0,237.0,175.0,233.0,174.0,228.5,173.0,224.5,172.0,220.5,173.0,216.5,176.0,212.5,181.0,209.0,185.5,205.0,190.0" stroke="black" stroke-width="2" fill="none" />
<polyline points="200.0,203.5,196.0,203.5" stroke="black" stroke-width="2" fill="none" />
<polyline points="193.5,199.5,197.5,200.5,201.0,202.5" stroke="black" stroke-width="2" fill="none" />
<polyline points="203.0,201.5,199.0,200.0,195.5,199.0,191.5,198.0,189.5,198.5,185.5,201.5,181.5,207.0,181.0,208.5,182.5,205.0,187.0,200.5,189.5,200.0" stroke="black" stroke-width="2" fill="none" />
<polyline points="185.0,206.0,189.0,205.0,193.0,204.0,200.5,203.0" stroke="black" stroke-width="2" fill="none" />
<polyline points="200.5,205.0,196.0,203.5,192.0,208.0,190.0,210.5,186.5,218.0,184.0,219.5,186.0,217.5,189.0,216.0,190.0,212.0,186.0,210.0,182.0,208.0" stroke="black" stroke-width="2" fill="none" />
<polyline points="176.5,213.0,172.5,214.5,171.0,216.5,175.0,212.5" stroke="black" stroke-width="2" fill="none" />
<polyline points="175.0,226.5,170.5,230.0,166.5,234.5,163.5,239.0,161.5,243.5,157.5,248.0,153.0,251.0,150.5,255.0,153.0,257.0,151.5,260.0,148.5,264.0,144.5,268.0,140.0,271.5,137.5,275.5,131.5,281.0,134.5,288.0,131.0,292.0,128.0,295.5,127.0,301.0,129.0,305.0,128.5,309.0,125.5,312.0,125.0,316.0,125.0,320.5,125.0,324.5,125.5,329.0,125.0,332.0,125.0,336.0,127.0,338.0,128.0,341.5,131.0,345.5,133.5,349.5,137.5,353.5,137.5,358.0,139.0,363.0,142.0,367.5,144.0,368.0,145.5,372.0,147.0,377.0,148.5,380.5,147.0,384.5,148.5,388.5,148.0,392.5,149.5,396.5,150.5,396.5,151.5,401.5,151.5,404.5,154.5,405.0,157.5,408.5,159.5,412.5,161.0,416.5,159.5,420.5,154.5,422.5" stroke="black" stroke-width="2" fill="none" />
<polyline points="194.0,403.0,194.5,398.5,194.5,395.0,194.0,391.0" stroke="black" stroke-width="2" fill="none" />
<polyline points="192.0,391.5,192.5,395.5,192.0,399.5,191.5,403.5,191.0,408.0,191.0,412.5,190.5,416.5,190.5,420.0,190.5,424.0,190.0,428.0,189.5,432.0,189.0,435.5,189.0,439.5,187.0,440.0,184.0,444.5,186.5,445.0,190.5,445.5,195.0,446.5,199.0,445.0" stroke="black" stroke-width="2" fill="none" />
<polyline points="247.0,390.0,244.5,393.5,248.5,390.0,252.0,389.5,256.0,390.0,260.0,390.0,264.0,390.0,267.5,389.0" stroke="black" stroke-width="2" fill="none" />
<polyline points="265.5,384.5,261.0,385.0,257.0,385.0,252.5,384.5,251.5,381.5" stroke="black" stroke-width="2" fill="none" />
<polyline points="268.5,352.5,273.0,353.5,276.5,355.0" stroke="black" stroke-width="2" fill="none" />
<polyline points="284.0,351.5,280.0,352.0,276.0,351.5,272.0,351.0,267.5,351.5" stroke="black" stroke-width="2" fill="none" />
<polyline points="221.0,368.5,221.0,365.0,220.5,361.0,220.0,357.5,219.5,353.5,219.5,349.5,223.5,344.5,222.5,340.5,222.0,334.5,221.0,330.5,220.0,326.5,219.5,322.5,219.0,318.5,219.0,314.5,219.0,310.0,219.0,306.0" stroke="black" stroke-width="2" fill="none" />
<polyline points="219.5,305.0,218.0,309.0,217.5,313.5,217.5,317.5,217.5,321.5,217.5,325.0,217.5,329.0,217.5,333.0,217.5,337.0,218.0,341.5,218.5,345.5,218.5,349.5,218.5,353.5,219.0,357.0" stroke="black" stroke-width="2" fill="none" />
<polyline points="192.5,353.5,191.5,350.0,191.5,346.0,191.5,345.0" stroke="black" stroke-width="2" fill="none" />
<polyline points="193.5,347.5,194.5,351.5,195.5,355.5" stroke="black" stroke-width="2" fill="none" />
<polyline points="187.0,337.0,183.5,343.5,179.0,348.5,175.0,353.5,171.0,358.0,167.0,361.0,163.5,365.0" stroke="black" stroke-width="2" fill="none" />
<polyline points="166.0,365.5,168.5,362.0,164.0,367.5,160.0,367.5,160.5,363.5,162.0,359.0,165.5,355.5,168.0,351.5,171.5,347.5,174.5,343.5,177.5,339.5,179.0,336.0,182.0,332.0,178.5,332.5,174.5,334.5,170.5,337.0,165.0,340.5,166.0,336.5,167.5,332.5,164.5,331.5" stroke="black" stroke-width="2" fill="none" />
<polyline points="164.0,331.5,160.5,336.5,160.5,334.5,163.0,330.5,165.5,326.5,167.5,322.5" stroke="black" stroke-width="2" fill="none" />
<polyline points="164.0,318.0,168.0,320.0,172.0,318.5" stroke="black" stroke-width="2" fill="none" />
<polyline points="173.5,316.0,169.5,317.5,168.5,322.5,167.0,321.0,163.5,326.5,160.0,332.5,155.0,337.0,151.0,339.5,147.5,336.5,145.0,343.5,143.0,340.0,141.5,336.0,139.5,332.0,139.0,328.5,138.5,324.5,136.5,320.0,135.5,316.0,134.0,312.0,132.5,308.0,130.5,304.0,130.0,300.0,133.0,298.5,134.5,295.0,138.5,291.0,140.0,287.0,141.5,283.5,138.5,282.0,135.5,282.0,131.5,282.0,138.0,282.5,140.0,278.5,145.0,274.5,141.5,272.0,146.0,268.0,151.5,264.0,156.5,257.5,160.0,253.0,162.0,249.0,163.5,245.0,160.0,244.5,155.5,248.5,152.0,250.0" stroke="black" stroke-width="2" fill="none" />
<polyline points="149.5,249.5,145.0,250.5" stroke="black" stroke-width="2" fill="none" />
<polyline points="144.0,251.0,148.0,248.0,147.5,248.0,144.5,252.0,146.5,253.5,147.5,257.5" stroke="black" stroke-width="2" fill="none" />
<polyline points="148.5,266.0,144.5,269.5,141.0,272.0" stroke="black" stroke-width="2" fill="none" />
<polyline points="139.0,275.5,142.5,274.5,148.5,270.5,152.5,266.5" stroke="black" stroke-width="2" fill="none" />
<polyline points="155.5,270.0,157.5,274.0" stroke="black" stroke-width="2" fill="none" />
<polyline points="152.0,275.0,155.5,275.5,159.0,273.0,163.5,279.5" stroke="black" stroke-width="2" fill="none" />
<polyline points="159.5,282.0,158.0,280.5,154.5,279.0" stroke="black" stroke-width="2" fill="none" />
<polyline points="152.5,280.0,154.0,284.0,157.5,288.0,163.0,291.5" stroke="black" stroke-width="2" fill="none" />
<polyline points="159.5,299.0,155.5,296.0" stroke="black" stroke-width="2" fill="none" />
<polyline points="155.5,295.5,160.0,299.0" stroke="black" stroke-width="2" fill="none" />
<polyline points="164.5,301.5,164.0,297.0,170.5,292.0,173.5,288.0,172.5,284.0,170.0,288.5,166.0,291.0,163.5,290.0,166.0,286.0,169.5,282.0,174.0,278.5,174.5,280.5,173.0,280.0,169.0,283.0,166.5,283.5,163.5,285.0,161.5,287.0,164.0,285.0,163.0,280.5,164.0,276.5,163.0,275.5,164.0,270.5,164.5,266.5,167.5,263.0,168.5,259.0,168.0,255.5,170.5,251.0,173.5,247.0,174.5,243.0,174.5,239.0,173.5,235.5,177.5,232.0,173.5,235.0" stroke="black" stroke-width="2" fill="none" />
<polyline points="177.0,231.5,176.0,235.5,175.0,240.0,176.0,242.5,175.0,246.5,175.5,250.5,176.5,255.0,178.5,259.0,181.5,263.0" stroke="black" stroke-width="2" fill="none" />
<polyline points="175.5,264.0,175.0,259.5,175.0,255.0,174.0,251.0" stroke="black" stroke-width="2" fill="none" />
<polyline points="174.0,246.5,169.5,253.0,165.5,256.5" stroke="black" stroke-width="2" fill="none" />
<polyline points="164.0,251.5,158.0,258.5,154.0,262.0,150.5,260.0,146.5,264.0,142.5,267.0,138.0,272.0,134.0,276.0,129.5,277.5,125.5,274.5,116.5,269.5,114.0,266.0,116.0,262.0,113.0,267.5" stroke="black" stroke-width="2" fill="none" />
<polyline points="114.5,269.0,118.5,271.0,122.5,272.5" stroke="black" stroke-width="2" fill="none" />
<polyline points="131.0,279.0,134.5,278.5,139.0,277.0,143.0,275.5" stroke="black" stroke-width="2" fill="none" />
<polyline points="148.5,276.0,150.5,278.0,153.0,280.0,155.5,284.0,162.5,289.5,167.0,284.5,171.0,283.5,173.5,284.0,177.5,284.5,177.5,285.5" stroke="black" stroke-width="2" fill="none" />
<polyline points="178.5,291.5,176.0,293.5,172.0,294.0" stroke="black" stroke-width="2" fill="none" />
<polyline points="173.5,294.0,179.0,294.5,176.5,298.0,174.5,302.0,173.5,305.5,171.0,309.5,167.5,308.5" stroke="black" stroke-width="2" fill="none" />
<polyline points="173.5,310.5,171.0,314.5,167.5,316.5,171.0,314.0,174.0,315.0" stroke="black" stroke-width="2" fill="none" />
<polyline points="181.5,305.0,177.5,299.5" stroke="black" stroke-width="2" fill="none" />
<polyline points="178.0,300.0,180.0,300.0,182.0,304.0,184.5,308.0,181.5,310.5,183.0,312.5" stroke="black" stroke-width="2" fill="none" />
<polyline points="181.5,306.0,177.5,302.5" stroke="black" stroke-width="2" fill="none" />
<polyline points="176.5,300.0,176.5,304.0,178.5,306.5" stroke="black" stroke-width="2" fill="none" />
<polyline points="174.5,317.0,177.0,311.0,175.0,307.0,173.0,301.0,171.5,297.0" stroke="black" stroke-width="2" fill="none" />
<polyline points="157.5,298.0,153.5,294.0" stroke="black" stroke-width="2" fill="none" />
<polyline points="157.5,310.0,158.5,310.0,160.0,314.0" stroke="black" stroke-width="2" fill="none" />
<polyline points="161.0,313.5,157.5,311.5" stroke="black" stroke-width="2" fill="none" />
<polyline points="155.0,313.0,155.0,314.0,155.5,318.0" stroke="black" stroke-width="2" fill="none" />
<polyline points="150.5,328.5,153.5,332.5,153.0,337.0" stroke="black" stroke-width="2" fill="none" />
<polyline points="149.0,340.0,148.0,344.0,148.0,348.0,147.0,352.0" stroke="black" stroke-width="2" fill="none" />
<polyline points="145.0,342.5,147.0,338.5,145.0,338.0,148.5,336.0,147.0,332.0,149.5,328.0,147.5,329.5" stroke="black" stroke-width="2" fill="none" />
<polyline points="139.0,330.0,139.5,337.0,140.0,341.0,142.0,338.5" stroke="black" stroke-width="2" fill="none" />
<polyline points="138.5,343.0,134.0,338.0,129.0,340.5" stroke="black" stroke-width="2" fill="none" />
<polyline points="142.5,348.5,138.0,346.5,138.0,342.5,136.5,338.5,135.0,334.0,134.0,329.5,132.5,325.5,131.5,321.5,130.5,317.5,130.0,313.0,130.0,309.0,127.0,301.0,130.0,298.5" stroke="black" stroke-width="2" fill="none" />
<polyline points="133.5,298.0,133.5,302.0" stroke="black" stroke-width="2" fill="none" />
<polyline points="127.5,301.5,131.5,299.0,135.0,296.5,139.0,292.5" stroke="black" stroke-width="2" fill="none" />
<polyline points="137.5,289.5,133.5,294.0,130.0,296.0,126.5,299.0" stroke="black" stroke-width="2" fill="none" />
<polyline points="127.5,310.5,128.0,314.5,126.5,317.0,128.0,321.0,130.0,324.5,129.0,328.5,128.5,332.5" stroke="black" stroke-width="2" fill="none" />
<polyline points="120.0,310.5,119.0,315.0,117.5,318.5,115.5,322.0,114.0,325.5,113.0,329.5,109.0,333.5,106.0,337.5,102.0,341.5,101.0,345.5,101.0,349.5,97.5,351.5,94.0,355.5,95.5,359.0,94.5,363.0,94.0,367.0,93.0,371.5,94.0,378.5,94.0,382.0,95.0,385.5" stroke="black" stroke-width="2" fill="none" />
<polyline points="103.0,382.0,102.5,378.0,102.5,373.5,103.0,369.5,104.0,365.0,105.0,361.0,106.5,357.0,106.5,353.0" stroke="black" stroke-width="2" fill="none" />
<polyline points="112.0,353.5,112.5,357.5,113.5,362.0,112.0,363.0,112.0,362.5,114.0,369.0" stroke="black" stroke-width="2" fill="none" />
<polyline points="121.0,355.0,124.0,359.0,125.0,363.5,130.5,365.5,130.5,369.5,135.5,369.5,139.5,370.0,147.0,374.0" stroke="black" stroke-width="2" fill="none" />
<polyline points="165.5,358.0,163.0,361.5,166.5,357.5" stroke="black" stroke-width="2" fill="none" />
<polyline points="159.0,344.5,158.0,349.0,156.5,353.0,159.5,356.5,158.5,360.5,158.0,365.0,157.0,368.5,157.0,372.5,158.5,376.5,157.5,380.5,154.5,382.5,155.0,388.5,154.5,392.5,154.0,396.5,158.0,401.0,163.5,405.5,167.0,410.0,170.0,410.5" stroke="black" stroke-width="2" fill="none" />
<polyline points="115.5,360.5,114.0,356.5,113.0,352.5" stroke="black" stroke-width="2" fill="none" />
<polyline points="81.0,317.0,77.0,318.5,72.5,320.5,69.5,321.5,76.0,317.5,79.0,313.0,75.0,308.5,74.5,305.0,74.5,305.0" stroke="black" stroke-width="2" fill="none" />
<polyline points="76.5,306.5,76.5,310.0,79.0,312.0,83.0,309.5,87.0,307.5,91.5,304.5" stroke="black" stroke-width="2" fill="none" />
<polyline points="77.5,313.0,73.5,308.5" stroke="black" stroke-width="2" fill="none" />
<polyline points="92.0,282.0,96.0,287.0,99.5,286.0,103.5,284.0,107.5,283.0,112.0,280.5" stroke="black" stroke-width="2" fill="none" />
<polyline points="106.5,284.5,103.5,287.5" stroke="black" stroke-width="2" fill="none" />
<polyline points="103.5,292.5,98.5,295.5,102.5,293.5,106.5,293.0,110.0,291.5" stroke="black" stroke-width="2" fill="none" />
<polyline points="107.5,294.0,102.0,297.5,100.0,301.5,93.0,304.0,97.0,301.5,101.5,301.0" stroke="black" stroke-width="2" fill="none" />
<polyline points="119.0,282.0,113.5,279.5,111.0,277.5,106.5,275.5,103.0,275.5,99.0,279.5,95.0,283.0,98.5,280.5,102.5,276.5,109.5,274.5,109.0,270.5,108.0,266.0,110.5,262.0,112.5,260.0,108.5,265.0" stroke="black" stroke-width="2" fill="none" />
<polyline points="125.5,272.5,121.5,276.0,117.5,278.0,113.5,281.0,108.5,278.5,105.0,280.0,101.5,281.0,105.5,281.5,101.5,283.0,97.0,285.0,95.0,283.5,93.5,279.5,94.0,275.5,101.5,271.5,107.0,268.5,103.5,271.5,100.0,273.0,96.5,274.5,92.5,276.5" stroke="black" stroke-width="2" fill="none" />
<polyline points="90.5,276.0,90.5,280.0,92.5,284.5" stroke="black" stroke-width="2" fill="none" />
<polyline points="122.5,284.0,121.5,288.0,120.5,292.5,118.5,296.5,113.5,300.0,109.5,304.0,105.5,308.5,103.5,313.0,101.5,317.5,99.5,321.5,100.0,326.0,101.0,330.0,102.0,332.0,98.5,336.0,96.0,342.0,100.0,339.5,104.0,337.0,108.0,331.5,112.0,326.0,115.5,318.0,119.5,309.5,122.5,302.0,125.5,303.5,126.5,310.0,133.0,314.5" stroke="black" stroke-width="2" fill="none" />
<polyline points="157.5,299.5,154.0,295.0,151.0,291.0,151.5,287.0,150.0,281.5,150.0,277.5,150.0,272.0,152.5,268.0,156.0,264.5,159.0,260.5,161.0,257.0,162.0,253.0,163.5,249.0,165.0,245.0,166.0,240.5,168.5,238.5,164.0,244.0,160.5,252.0,155.5,257.5,152.0,258.0,147.0,258.0,143.0,258.5,139.5,265.0,137.0,265.5,136.0,259.5,133.0,262.0,128.5,264.0,127.5,266.0,132.0,261.5,132.0,257.0,131.0,253.0,129.0,249.0,130.5,245.0,136.5,244.5,136.5,240.5,139.5,236.5,137.0,233.0,135.0,229.5,133.5,225.5,132.5,221.5,133.0,217.5,132.5,213.5,131.0,209.5,128.0,205.5,126.0,201.5,125.0,197.5,124.0,193.5,122.5,189.5,121.5,186.0,120.5,182.0,120.5,178.0,120.5,173.5,120.5,169.5,121.0,166.0,121.0,162.0,121.0,158.0,122.0,154.0,122.0,150.0,123.0,146.5,124.0,142.5,124.5,138.5,124.5,134.5,126.0,130.5,127.0,126.5,127.5,122.0,129.0,118.0,130.0,113.5,132.0,109.5,134.0,105.5,136.5,105.0,138.0,101.0,138.0,101.0,133.5,106.0" stroke="black" stroke-width="2" fill="none" />
<polyline points="127.0,123.5,131.0,114.0,135.0,106.0,135.0,110.0,134.5,114.0,134.5,118.0,133.0,122.0,132.5,126.0,133.0,130.0,131.5,133.5,130.5,137.5,128.0,141.5,128.5,145.5,130.0,146.0,128.0,150.0,129.0,153.0,129.0,155.0,126.0,159.0,129.5,156.5,128.0,149.0" stroke="black" stroke-width="2" fill="none" />
<polyline points="130.0,153.0,134.0,154.5,132.5,156.0,134.0,160.0,136.5,162.0,132.5,166.0,128.5,170.0,132.0,167.0,134.5,162.0" stroke="black" stroke-width="2" fill="none" />
<polyline points="140.5,168.5,140.0,172.0,136.0,176.5,130.0,177.0,133.5,173.0" stroke="black" stroke-width="2" fill="none" />
<polyline points="133.5,173.0,129.5,177.5,133.0,176.5,137.5,173.5,139.5,168.5" stroke="black" stroke-width="2" fill="none" />
<polyline points="143.5,169.0,139.5,173.0,136.0,176.5,134.5,176.5" stroke="black" stroke-width="2" fill="none" />
<polyline points="139.0,177.5,135.5,181.0,134.0,182.5,137.5,178.0,140.0,174.0" stroke="black" stroke-width="2" fill="none" />
<polyline points="142.5,179.5,146.5,176.0,146.0,177.0,146.0,179.5,142.0,184.5,143.0,189.0,145.5,191.0,146.5,195.0,149.0,199.5" stroke="black" stroke-width="2" fill="none" />
<polyline points="148.5,195.5,144.0,191.0" stroke="black" stroke-width="2" fill="none" />
<polyline points="144.5,189.0,146.5,192.5,146.0,194.0" stroke="black" stroke-width="2" fill="none" />
<polyline points="142.5,194.0,146.5,199.0" stroke="black" stroke-width="2" fill="none" />
<polyline points="146.5,200.5,144.0,196.5,138.5,194.0,138.0,191.0,135.0,187.0,136.5,183.0,141.5,179.0,145.0,175.0,142.5,178.0,138.5,182.0,134.5,186.0" stroke="black" stroke-width="2" fill="none" />
<polyline points="136.0,188.0,140.0,184.5,143.0,179.0" stroke="black" stroke-width="2" fill="none" />
<polyline points="142.5,183.5,147.5,184.5,149.5,189.0,152.0,190.5" stroke="black" stroke-width="2" fill="none" />
<polyline points="150.5,190.5,146.5,186.0" stroke="black" stroke-width="2" fill="none" />
<polyline points="146.0,187.0,150.0,192.0,154.0,193.0,159.5,186.5,163.0,181.5,167.0,177.5,170.5,173.0,174.0,168.5,177.5,164.5,181.5,161.0,185.5,157.5,190.0,153.5,194.0,149.0,198.5,146.0,203.0,142.5" stroke="black" stroke-width="2" fill="none" />
<polyline points="206.5,146.0,210.5,149.5,214.5,153.0,218.5,157.0,222.5,159.0" stroke="black" stroke-width="2" fill="none" />
<polyline points="227.0,163.5,223.5,158.0,228.0,154.5,223.5,158.0,219.5,156.5,215.5,153.0" stroke="black" stroke-width="2" fill="none" />
<polyline points="216.5,153.5,220.5,157.0,226.5,163.0" stroke="black" stroke-width="2" fill="none" />
<polyline points="219.0,173.0,214.5,177.0,211.0,180.5,207.5,184.5,204.0,188.5,203.0,193.0,203.5,197.0" stroke="black" stroke-width="2" fill="none" />
<polyline points="220.0,216.5,219.0,220.5,219.5,224.0,217.5,226.5,221.0,231.0,225.5,230.5,230.5,234.0" stroke="black" stroke-width="2" fill="none" />
<polyline points="198.0,234.0,194.0,240.0,190.0,244.0,186.0,246.5,191.0,243.0,196.0,239.5,197.5,235.5" stroke="black" stroke-width="2" fill="none" />
<polyline points="179.0,229.5,175.0,229.0,171.0,232.5,167.0,235.5,163.0,239.5" stroke="black" stroke-width="2" fill="none" />
<polyline points="169.0,237.5,167.5,242.0,166.5,246.0,165.5,250.0,164.5,248.0" stroke="black" stroke-width="2" fill="none" />
<polyline points="156.5,249.5,155.5,253.5,151.0,251.5,154.5,253.0" stroke="black" stroke-width="2" fill="none" />
<polyline points="149.5,272.0,153.0,268.0,157.0,262.5,161.0,257.0,157.0,258.5,154.5,262.5,152.0,266.5,148.0,270.5,148.0,274.5,147.5,279.0,148.0,283.0,149.0,287.0,152.5,290.5,157.0,292.0,161.0,298.0,162.0,302.0,157.5,305.0,156.5,310.0,158.5,314.0,157.0,316.0,157.5,319.0,157.0,320.5,161.5,319.0,163.5,318.0,164.5,313.5,168.5,310.5,172.5,306.0,175.0,299.0,178.0,294.0" stroke="black" stroke-width="2" fill="none" />
<polyline points="166.0,288.0,167.5,286.0,171.0,282.0,173.5,278.0" stroke="black" stroke-width="2" fill="none" />
<polyline points="143.5,243.5,139.5,241.5,135.5,243.5" stroke="black" stroke-width="2" fill="none" />
<polyline points="140.5,240.5,136.0,233.5,132.0,224.0" stroke="black" stroke-width="2" fill="none" />
<polyline points="142.0,225.5,145.5,217.0" stroke="black" stroke-width="2" fill="none" />
<polyline points="147.5,213.5,149.0,211.5,150.5,207.5" stroke="black" stroke-width="2" fill="none" />
<polyline points="152.5,201.0,148.0,208.0,143.5,215.5,144.0,211.5,146.5,207.5,146.0,203.5,144.0,199.5,140.5,196.0" stroke="black" stroke-width="2" fill="none" />
<polyline points="139.5,195.0,138.5,199.0,136.0,202.5" stroke="black" stroke-width="2" fill="none" />
<polyline points="136.0,191.0,141.0,189.5,145.0,186.5,145.0,181.5,149.0,181.0" stroke="black" stroke-width="2" fill="none" />
<polyline points="146.0,169.5,147.0,173.5,143.0,177.5,141.0,182.5,136.0,187.0,135.0,191.0,136.5,194.0,137.5,194.5,139.5,194.0,141.5,195.5,145.5,200.5,149.0,200.5" stroke="black" stroke-width="2" fill="none" />
<polyline points="129.0,206.5,124.5,199.5" stroke="black" stroke-width="2" fill="none" />
<polyline points="115.0,226.5,112.0,230.5,113.5,228.5" stroke="black" stroke-width="2" fill="none" />
<polyline points="113.0,227.0,109.5,231.0,111.0,230.0,115.0,228.0" stroke="black" stroke-width="2" fill="none" />
<polyline points="131.0,248.5,135.5,246.5,139.0,245.5,141.5,245.5" stroke="black" stroke-width="2" fill="none" />
<polyline points="136.5,256.0,132.5,256.0" stroke="black" stroke-width="2" fill="none" />
<polyline points="124.5,253.0,119.5,256.5,116.0,260.5,112.5,264.5,115.5,259.5,119.5,255.5,123.5,252.5,128.0,247.5,132.5,246.0,137.0,241.5,143.0,239.5,149.5,235.5,153.5,230.5,157.5,227.0,161.5,223.0" stroke="black" stroke-width="2" fill="none" />
<polyline points="207.5,224.5,204.0,220.5,204.0,215.0,202.5,215.5,202.5,212.0,206.0,206.5,210.5,203.0,216.5,197.0,222.5,193.5,229.5,188.5,229.5,186.5,233.5,182.0" stroke="black" stroke-width="2" fill="none" />
<polyline points="225.5,180.0,220.5,184.0,217.5,188.5,214.5,192.5,209.5,196.5,206.5,200.5" stroke="black" stroke-width="2" fill="none" />
<polyline points="221.5,174.5,216.5,179.0,212.5,182.5,209.0,186.0,206.0,189.5,205.5,193.5,207.0,195.5,211.5,194.0,216.0,192.0,220.5,193.0,224.5,190.0,228.0,189.0,232.0,187.0,233.0,183.0,237.0,182.0" stroke="black" stroke-width="2" fill="none" />
<polyline points="242.0,190.0,237.5,195.0" stroke="black" stroke-width="2" fill="none" />
<polyline points="251.0,173.5,255.0,178.0,258.5,179.5" stroke="black" stroke-width="2" fill="none" />
<polyline points="264.5,183.5,260.5,186.0,256.5,189.5,260.0,189.0,266.5,185.0" stroke="black" stroke-width="2" fill="none" />
<polyline points="265.5,185.5,262.0,187.5,258.0,190.5,254.0,193.5,250.0,198.0,249.0,202.0,253.0,198.5,256.5,194.5,261.0,190.5,266.0,186.5" stroke="black" stroke-width="2" fill="none" />
<polyline points="267.0,179.0,261.5,183.0,256.5,187.0,252.0,190.0,247.0,194.0,244.0,198.5,242.0,199.0,242.5,193.0,244.5,192.0,248.5,187.0,248.5,185.0,252.5,183.0,256.5,181.0,261.0,180.5" stroke="black" stroke-width="2" fill="none" />
<polyline points="267.0,175.0,270.5,176.5,274.5,176.0,278.5,178.0,283.0,175.0,286.0,175.5,293.5,177.0,295.5,181.0,291.0,185.0,286.5,188.5,282.0,192.5,277.5,196.5,273.0,200.0,274.0,195.0,271.0,198.0,271.5,200.5,275.0,196.0,279.0,193.0,282.5,189.5,286.5,185.0,291.5,181.5,295.5,179.0,299.5,176.0,303.5,173.5,307.0,171.0,311.0,169.0,315.0,166.5,319.5,164.0,323.5,161.5,328.0,159.0,331.5,156.5,336.0,154.0" stroke="black" stroke-width="2" fill="none" />
<polyline points="338.5,153.5,331.5,157.5,325.5,161.0,317.5,164.5,312.0,168.5,306.0,173.0,300.0,177.0,295.0,181.0" stroke="black" stroke-width="2" fill="none" />
<polyline points="290.0,177.5,285.5,176.0" stroke="black" stroke-width="2" fill="none" />
<polyline points="281.5,175.0,285.5,174.5,289.5,174.5,293.5,179.0" stroke="black" stroke-width="2" fill="none" />
<polyline points="287.0,180.5,282.5,178.5,278.0,176.5" stroke="black" stroke-width="2" fill="none" />
<polyline points="277.5,178.5,273.5,178.0,270.0,178.5,266.0,178.0,262.0,177.0,258.0,176.0,254.0,175.0,250.0,170.5,246.0,169.5,242.0,167.5" stroke="black" stroke-width="2" fill="none" />
<polyline points="252.0,161.0,257.0,165.0" stroke="black" stroke-width="2" fill="none" />
<polyline points="260.0,166.0,268.0,162.5,264.5,164.0,260.5,165.5,256.5,164.0,253.0,161.0" stroke="black" stroke-width="2" fill="none" />
<polyline points="241.5,144.5,245.5,140.5,248.5,138.5,253.5,134.5,259.5,130.0,258.0,131.0,254.0,134.5,250.5,137.5,246.0,140.5,242.0,144.0,238.0,146.0,234.0,142.0" stroke="black" stroke-width="2" fill="none" />
<polyline points="234.0,144.0,237.5,148.0" stroke="black" stroke-width="2" fill="none" />
<polyline points="222.0,148.0,218.0,144.5,214.0,140.5" stroke="black" stroke-width="2" fill="none" />
<polyline points="214.0,140.5,217.5,144.0" stroke="black" stroke-width="2" fill="none" />
<polyline points="206.5,147.0,210.5,151.0,215.0,155.5,218.0,159.5,220.0,160.5" stroke="black" stroke-width="2" fill="none" />
<polyline points="207.5,164.0,203.5,164.0" stroke="black" stroke-width="2" fill="none" />
<polyline points="203.5,163.0,204.5,167.0,197.0,169.5,191.5,174.0,187.5,178.5,182.5,182.0,178.5,186.0,174.0,190.0,171.5,194.0,167.0,197.5,163.5,201.5,163.5,202.0,167.5,196.5,172.0,193.0,176.0,188.0,180.0,184.5,184.0,180.5,187.5,177.0,191.5,173.5,196.0,170.0,200.0,167.0" stroke="black" stroke-width="2" fill="none" />
<polyline points="202.0,135.5,198.0,131.5" stroke="black" stroke-width="2" fill="none" />
<polyline points="197.5,131.0,201.5,135.0,202.5,139.0,201.0,140.5,205.0,137.0,208.5,134.0,213.0,132.0,217.5,129.0,221.5,127.0" stroke="black" stroke-width="2" fill="none" />
<polyline points="223.5,125.5,217.5,130.0,211.5,134.0,206.5,138.0,208.5,139.0,212.5,136.0,216.5,133.5,220.0,130.5,224.0,128.0,228.0,126.0,232.0,123.0,236.0,121.0" stroke="black" stroke-width="2" fill="none" />
<polyline points="238.0,117.5,231.5,122.0,225.5,126.5,219.5,130.5,214.0,135.0,208.5,139.0,204.0,142.5,199.0,146.5,194.0,150.0,190.0,154.0,185.0,158.5,181.5,162.5,177.0,166.5,172.5,170.5,169.0,174.0,165.5,178.0,161.5,182.0,158.5,186.0,154.0,192.0,151.5,196.0,153.5,199.5,151.5,203.5,149.0,207.5,147.5,211.0,147.5,214.0,145.0,218.5,143.5,222.5,142.5,226.5,142.0,231.0,142.5,235.5,143.0,239.5,142.0,241.5,134.5,244.5,131.5,249.5,133.0,252.5,134.5,256.5,139.0,255.5,141.0,256.5" stroke="black" stroke-width="2" fill="none" />
<polyline points="142.0,285.5,138.0,287.5,134.0,287.0,130.0,292.5,125.5,295.5,120.5,298.0,116.0,302.0,112.0,305.5,108.0,309.0,105.5,312.5,108.5,308.0,113.0,304.0,118.0,300.0,121.0,296.5,123.0,292.5,125.0,288.5,124.5,284.5" stroke="black" stroke-width="2" fill="none" />
<polyline points="189.5,331.5,185.5,331.5,180.5,332.5,176.5,339.0,172.5,345.0,169.0,349.5,165.0,355.0,161.0,360.5,159.0,369.5,161.5,367.0,165.0,361.5,170.5,357.5,174.0,353.5,178.0,349.5,181.0,345.0,183.5,341.5,186.0,337.5,185.5,333.5,188.5,334.0,191.0,330.5" stroke="black" stroke-width="2" fill="none" />
<polyline points="225.0,273.0,221.5,277.0,225.0,272.5,228.5,271.5" stroke="black" stroke-width="2" fill="none" />
<polyline points="248.5,267.5,251.5,266.0,250.0,270.0,253.5,274.0,256.0,278.0,262.5,276.0,266.5,277.0,269.5,275.5,273.5,277.5,277.5,278.0,281.5,271.0,278.5,274.5,277.0,280.0" stroke="black" stroke-width="2" fill="none" />
<polyline points="280.5,277.5,284.5,278.0" stroke="black" stroke-width="2" fill="none" />
<polyline points="290.5,273.0,286.5,266.5" stroke="black" stroke-width="2" fill="none" />
<polyline points="286.5,267.0,287.0,271.0" stroke="black" stroke-width="2" fill="none" />
<polyline points="289.5,271.0,287.0,267.0,286.0,260.5" stroke="black" stroke-width="2" fill="none" />
<polyline points="285.0,260.0,283.0,258.5,285.5,256.5,288.0,255.5" stroke="black" stroke-width="2" fill="none" />
<polyline points="289.5,250.5,296.0,254.5" stroke="black" stroke-width="2" fill="none" />
<polyline points="292.0,271.0,289.5,267.5,286.5,263.0,281.0,259.0,281.5,253.5,277.5,252.5" stroke="black" stroke-width="2" fill="none" />
<polyline points="278.0,255.0,276.0,250.5,272.0,249.5,268.0,249.0,264.0,252.0" stroke="black" stroke-width="2" fill="none" />
<polyline points="268.0,256.0,271.5,252.0" stroke="black" stroke-width="2" fill="none" />
<polyline points="281.5,257.0,276.5,258.5,273.0,256.0,270.5,257.5,267.0,258.5,263.0,257.5,260.5,259.5,256.5,259.5" stroke="black" stroke-width="2" fill="none" />
<polyline points="261.0,267.5,262.5,271.0,267.0,275.0,267.5,281.5" stroke="black" stroke-width="2" fill="none" />
<polyline points="270.0,270.0,268.5,265.5,268.5,265.5" stroke="black" stroke-width="2" fill="none" />
<polyline points="271.5,266.0,275.5,264.5,279.5,266.5,283.5,271.0,287.0,273.0" stroke="black" stroke-width="2" fill="none" />
<polyline points="289.0,275.5,286.0,279.0,287.0,278.0,286.0,275.5,284.5,271.0,282.0,267.0,277.0,263.0" stroke="black" stroke-width="2" fill="none" />
<polyline points="273.0,266.0,268.0,269.5,264.0,267.0" stroke="black" stroke-width="2" fill="none" />
<polyline points="262.5,266.5,261.5,267.5,263.0,269.5,267.0,271.0" stroke="black" stroke-width="2" fill="none" />
<polyline points="261.0,269.5,265.0,274.0,268.5,274.5,272.5,270.5,273.5,269.0,271.0,273.0,271.0,278.0,273.5,282.0,275.0,282.0" stroke="black" stroke-width="2" fill="none" />
<polyline points="263.5,281.0,264.5,277.5,259.0,275.5,259.5,272.5,258.5,268.5,258.5,268.5" stroke="black" stroke-width="2" fill="none" />
<polyline points="261.0,271.5,257.0,274.0,253.5,270.5,249.5,268.5" stroke="black" stroke-width="2" fill="none" />
<polyline points="268.0,214.5,268.0,213.0,272.5,208.0,276.5,204.5,280.5,201.0,284.5,196.5,289.0,193.0,293.0,189.0,297.0,186.0,301.5,182.5,305.5,180.5,309.5,178.0" stroke="black" stroke-width="2" fill="none" />
<polyline points="310.5,173.0,307.5,177.5,301.0,181.5,297.0,185.5,292.0,189.5,288.0,193.5,283.5,197.5,279.0,201.5,274.5,205.5,273.5,210.0,273.0,214.0,269.5,216.0" stroke="black" stroke-width="2" fill="none" />
<polyline points="297.0,222.5,292.5,226.5,287.5,230.0,285.5,232.5,289.5,229.0,294.0,226.0,298.0,223.5" stroke="black" stroke-width="2" fill="none" />
<polyline points="272.0,194.5,273.5,190.5,273.5,187.0,272.5,182.5" stroke="black" stroke-width="2" fill="none" />
<polyline points="276.0,180.0,275.5,176.0" stroke="black" stroke-width="2" fill="none" />
<polyline points="282.5,144.5,286.5,143.5" stroke="black" stroke-width="2" fill="none" />
<polyline points="298.5,132.5,294.0,137.0,288.5,141.0,291.0,139.0,295.5,136.5,300.0,133.5" stroke="black" stroke-width="2" fill="none" />
<polyline points="260.5,130.5,256.0,134.5,250.5,138.5,245.0,143.0,239.5,147.0,234.0,151.0,229.5,155.0,224.5,160.0,220.5,164.0,222.5,163.0,226.5,159.5,230.5,156.5,234.0,153.0,238.0,149.0,242.0,146.0,246.0,143.0,249.5,139.0,254.0,136.0,257.5,132.5" stroke="black" stroke-width="2" fill="none" />
<polyline points="229.5,125.5,223.5,129.5,217.0,134.0,212.0,138.0,207.0,142.0,202.0,145.5,198.0,150.0,196.0,152.5,199.5,149.0,203.5,146.0,207.5,142.0,211.5,139.5,215.5,136.5,219.5,133.5,223.5,130.5,228.0,127.5" stroke="black" stroke-width="2" fill="none" />
<polyline points="207.5,114.5,200.5,118.5,197.0,121.0,201.0,118.5,205.0,115.5" stroke="black" stroke-width="2" fill="none" />
<polyline points="197.0,108.5,194.0,111.0" stroke="black" stroke-width="2" fill="none" />
<polyline points="191.0,117.0,185.5,121.0,180.0,125.0,181.0,125.0,184.5,122.0,188.5,120.0" stroke="black" stroke-width="2" fill="none" />
<polyline points="189.5,121.5,185.5,123.5,181.5,126.5,179.5,127.5,184.5,123.0,190.5,119.0" stroke="black" stroke-width="2" fill="none" />
<polyline points="192.0,132.0,186.5,135.5,185.5,136.5,189.5,133.5" stroke="black" stroke-width="2" fill="none" />
<polyline points="156.5,126.5,151.5,130.5,147.5,134.5,151.0,131.5,155.5,128.5" stroke="black" stroke-width="2" fill="none" />
<polyline points="133.0,131.0,132.0,136.0,128.5,141.0" stroke="black" stroke-width="2" fill="none" />
<polyline points="143.5,164.0,140.0,168.5,139.5,171.0,136.0,175.5,132.0,179.5,133.5,173.0" stroke="black" stroke-width="2" fill="none" />
<polyline points="155.0,76.5,151.5,83.0,153.5,79.5,155.0,75.5" stroke="black" stroke-width="2" fill="none" />
<polyline points="160.5,70.5,157.0,73.5,153.0,78.5,153.0,79.5,155.5,75.5,159.0,70.5,161.0,66.5" stroke="black" stroke-width="2" fill="none" />
<polyline points="162.5,66.0,161.0,70.0,162.0,65.5,167.0,62.0,171.0,62.0,175.0,60.5" stroke="black" stroke-width="2" fill="none" />
<polyline points="208.5,50.0,212.5,48.0" stroke="black" stroke-width="2" fill="none" />
<polyline points="230.0,48.0,225.0,51.5,228.0,48.5,232.0,48.5,236.0,48.0,240.0,48.5,244.0,49.5,248.0,50.5,252.0,52.0,256.0,53.0,260.5,54.0,264.5,56.0,268.0,59.0,271.5,61.5,275.0,63.5,279.0,66.5,283.0,69.5,287.5,72.5,291.5,76.0,295.5,77.0,300.0,80.0,304.0,86.0,307.5,90.5,311.5,96.5,316.0,99.0,320.0,102.5,323.5,107.5,327.0,113.5,330.5,122.0,334.5,128.5,338.5,132.0,342.5,137.5,346.5,146.0,351.0,143.5,355.0,141.5,359.0,139.0,363.5,137.0,367.5,135.0,371.5,132.0,376.0,129.5,380.0,126.5,384.0,123.5,388.0,120.5,392.0,117.0,396.0,113.5,400.0,112.0,404.0,111.5,408.0,113.0,412.0,113.0,416.0,114.5,420.0,122.0" stroke="black" stroke-width="2" fill="none" />
<polyline points="415.0,113.5,419.0,118.0,420.0,121.5,420.5,125.5,420.5,130.0,420.0,133.5,419.5,137.5,418.5,141.0,418.0,144.5,416.5,148.5,415.0,153.0,414.0,157.0,412.0,160.5,411.0,164.5,409.5,168.5,408.0,173.0,406.0,177.0,404.0,181.0,400.5,185.0,395.5,189.5,392.0,193.5,387.5,197.5,383.5,201.0,378.5,205.0,373.0,209.0,367.0,212.5,370.0,210.5,374.0,208.0,378.0,205.0,382.0,202.0,386.0,198.5,390.0,194.5,394.0,190.5,397.5,186.0,402.0,183.5,406.5,177.5,410.5,169.0,415.0,157.5" stroke="black" stroke-width="2" fill="none" />
<polyline points="405.0,157.5,401.0,161.5,396.5,165.5,392.0,169.5,387.5,173.5,388.0,173.5,392.0,170.0,396.0,166.5,400.0,162.5,404.0,159.0" stroke="black" stroke-width="2" fill="none" />
<polyline points="397.5,154.0,394.5,157.5,391.5,161.5,388.5,165.5,386.0,169.5,383.5,173.5,381.0,177.5,382.5,175.0,386.5,168.0,390.5,161.5,394.5,155.5" stroke="black" stroke-width="2" fill="none" />
<polyline points="396.0,123.0,392.0,126.5,388.0,129.5,384.0,132.5,382.5,134.0,388.0,130.0,392.5,126.5,397.5,122.5" stroke="black" stroke-width="2" fill="none" />
<polyline points="396.0,121.0,391.0,125.0,385.0,129.0,380.5,133.0,384.0,130.0,388.0,127.0,392.0,124.0,396.0,120.5" stroke="black" stroke-width="2" fill="none" />
<polyline points="400.0,113.0,393.0,117.0,388.5,121.0,382.5,125.0,377.5,129.0,371.0,133.0,364.0,137.0,356.5,140.5,350.0,144.5" stroke="black" stroke-width="2" fill="none" />
<polyline points="368.0,131.5,368.5,130.0,368.5,126.0" stroke="black" stroke-width="2" fill="none" />
<polyline points="387.0,107.0,383.0,101.5,379.0,97.5" stroke="black" stroke-width="2" fill="none" />
<polyline points="378.5,98.5,382.0,102.0,384.0,106.0,388.5,110.0" stroke="black" stroke-width="2" fill="none" />
<polyline points="440.0,69.0,436.5,62.5,433.0,55.5,429.0,49.5,425.0,42.5,421.0,34.0,417.0,28.5,413.0,21.0,409.5,14.0,405.5,7.5" stroke="black" stroke-width="2" fill="none" />
<polyline points="513.0,74.0,510.0,78.0,507.0,82.0,503.5,86.0,499.0,90.0,495.0,95.5,492.0,99.5,488.0,103.0,484.5,107.0,481.5,111.5,478.0,115.5,475.5,119.5,473.0,123.5,470.0,128.0,468.5,132.0,465.0,136.5,463.0,140.5,460.5,145.0,456.5,150.0,455.0,154.0,452.5,158.0,450.0,162.0,447.5,166.0,445.0,170.0,442.5,174.0,441.0,178.0,438.0,182.5,436.5,186.5,435.0,190.5,433.0,194.5,431.0,198.5,429.0,202.5,428.5,206.0,426.5,210.0,425.0,214.5,421.5,218.0,421.0,222.0,419.5,226.5,418.0,230.5,417.0,235.0,415.5,239.0,413.5,243.5,412.0,247.5,413.0,250.5,410.0,254.5,408.0,259.0,408.0,263.5,405.5,267.0,404.5,271.0,403.5,274.5,401.0,278.0,400.5,282.0,400.0,286.0,399.0,290.0,397.5,294.0,397.0,297.5,396.0,301.5,395.5,305.5,394.5,309.5,393.5,313.5,392.5,317.5,392.0,321.5,390.5,325.5,389.5,329.5,388.0,333.0,386.5,337.0,387.0,341.5" stroke="black" stroke-width="2" fill="none" />
<polyline points="264.5,86.0,260.5,87.5,256.5,89.5,252.5,92.0,248.5,94.0,244.5,96.5,240.5,99.5,236.5,102.5,232.5,105.5,228.5,108.5,224.5,111.5,220.0,114.0,216.0,116.5,212.0,119.5,208.0,122.0,204.0,125.5,200.0,128.5,195.5,132.0,191.0,135.0,187.0,138.0,183.0,142.0,179.0,146.0,175.0,150.0,171.5,154.5,167.5,159.0,163.5,163.5,159.5,166.5,155.5,171.0,153.5,174.0,156.0,169.5,159.5,165.5,164.5,162.0,168.5,157.5,173.5,153.5,177.0,149.5,181.5,145.0,185.5,141.0,190.0,137.0,194.0,133.0,198.5,129.5,203.5,125.5,208.0,121.5,214.0,117.0,219.0,113.0,224.5,109.5,231.0,105.5,236.0,101.5,242.0,97.5,247.5,93.5,254.5,89.5,263.0,85.5" stroke="black" stroke-width="2" fill="none" />
<polyline points="249.5,91.0,242.5,94.5,246.5,92.0" stroke="black" stroke-width="2" fill="none" />
<polyline points="238.0,98.5,231.5,103.0,225.5,104.5,221.5,108.0,225.5,104.5,229.0,104.5,233.0,102.0,236.5,99.0" stroke="black" stroke-width="2" fill="none" />
<polyline points="236.5,97.5,232.0,101.5,235.0,99.0" stroke="black" stroke-width="2" fill="none" />
<polyline points="234.0,79.0,230.0,81.5,226.0,84.5,223.5,86.5,227.5,82.5,234.5,78.5" stroke="black" stroke-width="2" fill="none" />
<polyline points="232.0,50.0,235.5,47.5" stroke="black" stroke-width="2" fill="none" />
<polyline points="251.5,52.5,262.0,56.5,268.5,60.5,274.5,64.0,280.5,67.5,286.0,71.5,290.5,75.5,298.5,80.0,301.5,84.0,304.5,88.5,308.0,92.5,310.5,96.5,315.5,100.0,319.5,103.5,323.5,107.5,325.5,112.0,328.0,116.0,329.0,120.0,331.0,124.0,333.5,127.5,336.0,131.5,340.0,135.5,343.0,140.0,344.0,144.0,346.5,148.0" stroke="black" stroke-width="2" fill="none" />
<polyline points="22.5,365.0,21.5,369.0,20.0,373.5,21.5,367.5" stroke="black" stroke-width="2" fill="none" />
</svg>