<svg xmlns="http://www.w3.org/2000/svg" version="1.1"><polyline points="405.5,1.5,405.0,5.5,407.0,9.0,410.0,13.5,411.5,18.0,414.0,22.0,416.0,26.0,417.5,30.5,420.5,34.5,421.5,38.5,424.0,42.5,426.5,47.0,428.5,51.0,431.0,55.0,433.5,59.0,435.5,63.0,438.5,66.5,441.5,70.5" stroke="#7fe239" stroke-width="2" fill="none" />
<polyline points="455.5,59.5,452.0,52.0,448.0,46.0,444.0,38.5,441.0,33.5,437.0,26.5,433.5,20.0,429.5,13.0,425.5,7.5" stroke="#96d07a" stroke-width="2" fill="none" />
<polyline points="425.5,1.0,425.5,5.0,426.5,8.5,429.0,12.5,431.5,17.0,433.5,21.0,435.5,25.0,438.0,29.5,440.0,33.5,442.5,37.5,444.5,41.5,446.5,45.5,449.5,49.5,452.5,53.5,455.0,57.5,456.5,61.5,454.5,65.5,451.0,69.5,446.5,73.0,442.5,77.0,440.0,81.0,437.5,85.0,434.0,89.0,432.0,93.5,429.5,97.5,427.0,101.5,424.5,105.5,422.0,110.0,420.0,114.0,419.5,114.5,423.5,108.5,427.5,101.5,432.0,95.0,436.0,89.0,439.5,83.5,443.5,77.0,448.0,72.5,452.0,68.5,456.0,63.0,461.0,54.5,465.0,50.5,469.0,47.0,473.0,43.0,477.0,39.0,481.0,35.0,485.0,31.5,489.0,27.5,493.0,23.5,498.0,19.0,502.0,15.5,506.0,12.5,510.0,8.5" stroke="#676e" stroke-width="2" fill="none" />
<polyline points="514.5,6.5,508.0,10.5,504.0,14.5,498.5,18.5,495.5,21.5,491.0,25.5,487.0,29.5,483.5,33.5,478.0,37.5,474.5,41.5,470.5,45.5,466.5,49.5,462.0,53.5,458.5,57.5" stroke="#cc6650" stroke-width="2" fill="none" />
<polyline points="511.0,74.5,507.0,79.5,503.0,83.5,498.5,88.0,496.5,92.5,492.5,95.0,488.0,101.0,484.0,105.5,480.0,110.5,476.0,116.0,472.0,122.0,468.0,128.5,464.0,135.5,460.0,142.0" stroke="#5d5d90" stroke-width="2" fill="none" />
<polyline points="452.5,154.5,448.5,161.5,446.0,166.5,442.5,174.5" stroke="#9d6d2c" stroke-width="2" fill="none" />
<polyline points="439.0,180.0,437.0,184.0" stroke="#b1e42b" stroke-width="2" fill="none" />
<polyline points="433.0,195.5,429.0,203.5,426.5,211.0,425.5,216.0,422.0,219.5" stroke="#878155" stroke-width="2" fill="none" />
<polyline points="417.0,229.5,415.0,235.5,411.0,244.0" stroke="#1ddbee" stroke-width="2" fill="none" />
<polyline points="402.5,276.0,401.0,279.5,399.0,287.0" stroke="#568cd8" stroke-width="2" fill="none" />
<polyline points="380.5,290.0,380.5,286.5,380.0,282.5,380.5,278.5,380.0,274.5" stroke="#f2b161" stroke-width="2" fill="none" />
<polyline points="377.0,269.0,375.5,265.0,373.5,260.5,374.5,256.5,373.0,251.5,372.5,247.5,371.0,243.5,370.0,240.0,369.0,236.0,369.0,232.5,369.5,230.0,370.0,226.0,371.0,222.0,372.5,218.5,373.5,214.5,371.0,221.0" stroke="#69e4f8" stroke-width="2" fill="none" />
<polyline points="372.0,233.0,372.5,237.0,372.0,241.0,370.5,245.5" stroke="#cbe29c" stroke-width="2" fill="none" />
<polyline points="371.0,248.0,371.0,252.5,371.5,256.5,372.5,260.5,373.0,264.5,373.5,268.5,372.5,272.0,374.0,274.0,373.0,277.0,373.0,281.5,373.0,285.5" stroke="#19373" stroke-width="2" fill="none" />
<polyline points="373.5,293.0,373.5,297.0,373.5,301.0,374.0,305.5,375.0,309.5,375.5,313.5,376.0,317.5,378.0,324.0,378.0,328.0,378.0,332.0,379.0,336.0,379.0,340.0,379.5,344.0,380.0,348.0,380.5,351.5,381.0,355.0,381.5,359.0" stroke="#9ea2d9" stroke-width="2" fill="none" />
<polyline points="368.0,352.5,368.5,356.5,369.0,360.5,369.5,364.0,370.5,368.5,371.0,372.5" stroke="#daef7a" stroke-width="2" fill="none" />
<polyline points="373.5,377.0,374.5,381.0,374.5,384.5" stroke="#6b19" stroke-width="2" fill="none" />
<polyline points="382.0,386.0,381.5,390.0,381.0,394.0,380.0,398.0,379.5,402.0" stroke="#881b28" stroke-width="2" fill="none" />
<polyline points="362.5,433.5,358.5,424.5,354.5,418.0,350.5,413.5,346.0,409.0,342.0,405.0,338.0,402.5,334.0,399.5,330.0,398.0,326.5,396.0,322.5,394.0,318.5,393.0,314.5,391.5,310.5,390.5,308.0,390.5,304.0,390.5,300.0,390.0" stroke="#1d416f" stroke-width="2" fill="none" />
<polyline points="312.5,380.5,316.5,370.0,320.5,363.5,324.5,357.5,328.0,350.5,331.5,342.5,335.5,333.5,339.5,325.0,343.5,317.0" stroke="#997327" stroke-width="2" fill="none" />
<polyline points="356.5,329.5,356.5,333.5,355.5,337.5,355.0,341.5,355.5,340.0" stroke="#9e57f3" stroke-width="2" fill="none" />
<polyline points="353.5,351.5,354.0,356.0,354.0,360.0,353.0,364.5,353.0,369.0,353.5,373.0,352.5,377.0,352.5,380.5,353.0,386.5,353.0,390.5,353.5,394.5,354.0,398.5,355.0,403.0,353.0,405.0,354.0,409.0,353.5,413.0" stroke="#8f3" stroke-width="2" fill="none" />
<polyline points="360.0,384.0,360.0,381.0,360.0,377.5,361.0,373.0,360.5,369.0,360.5,365.0" stroke="#cd13b6" stroke-width="2" fill="none" />
<polyline points="359.0,361.5,359.5,365.5,359.5,369.5,359.0,373.5,359.0,377.0,359.5,381.0" stroke="#bcaf6a" stroke-width="2" fill="none" />
<polyline points="356.5,355.5,356.5,359.5,356.0,363.5,355.0,368.0,355.5,372.0,356.0,376.0,355.5,380.5,355.0,384.0,355.0,388.0,354.5,392.0,355.0,396.0,355.0,400.0,355.5,403.5,355.5,407.5,356.0,411.5,354.5,413.0" stroke="#3b89ef" stroke-width="2" fill="none" />
<polyline points="374.0,463.5,372.0,461.0,370.5,456.5,370.5,452.5,371.0,448.5,371.5,444.0,372.5,440.0,373.0,436.0,373.0,432.0,374.0,428.0,374.5,424.0,375.0,420.5,376.0,417.0,376.0,413.0,376.5,409.0,377.5,404.5,378.0,400.5,378.0,397.0,378.0,392.5,378.5,389.0,378.5,385.0,378.5,381.0,378.5,377.0,378.5,373.0,378.0,369.0,378.0,364.5,378.5,360.5,378.0,356.0,377.0,352.0,376.5,348.0,375.5,345.0,375.5,341.0,375.0,337.0,374.5,333.0,374.0,329.0,373.0,325.5,372.0,321.5,371.0,317.5,370.5,313.5,370.0,309.5,369.5,305.5,369.0,301.5,368.5,297.5,368.5,293.5,368.5,289.5,368.0,285.0,368.0,281.0,368.0,277.5,368.0,273.0,367.5,269.0,367.5,265.5,367.5,261.5,367.5,257.5,367.0,253.5,367.0,249.5,366.5,245.0,366.5,240.5,365.5,236.0,365.0,232.0,363.5,228.0,361.5,224.0,360.5,220.0,359.0,216.0,357.0,212.0,355.0,208.5,354.0,206.5,350.5,202.5,349.0,198.5,348.5,196.5" stroke="#81bb1b" stroke-width="2" fill="none" />
<polyline points="346.0,198.0,349.0,202.0" stroke="#7fee1b" stroke-width="2" fill="none" />
<polyline points="349.5,200.0,354.0,206.0,357.5,213.5" stroke="#ad3220" stroke-width="2" fill="none" />
<polyline points="361.5,202.0,358.0,193.5" stroke="#bb2941" stroke-width="2" fill="none" />
<polyline points="358.0,190.0,358.5,194.5,360.0,198.5,362.5,202.5,363.0,206.0" stroke="#bea7a9" stroke-width="2" fill="none" />
<polyline points="356.5,205.0,352.5,199.5" stroke="#e4a876" stroke-width="2" fill="none" />
<polyline points="351.5,199.5,354.5,203.0,356.5,206.5" stroke="#45d76" stroke-width="2" fill="none" />
<polyline points="349.0,204.0,345.0,199.0" stroke="#42bfc" stroke-width="2" fill="none" />
<polyline points="346.0,199.0,344.5,203.0,348.0,207.0" stroke="#ce448" stroke-width="2" fill="none" />
<polyline points="346.5,207.0,342.5,202.5" stroke="#64fd57" stroke-width="2" fill="none" />
<polyline points="342.0,204.5,347.5,208.5,351.0,212.0" stroke="#2a187e" stroke-width="2" fill="none" />
<polyline points="344.5,211.0,340.5,209.0" stroke="#f13c5a" stroke-width="2" fill="none" />
<polyline points="337.5,208.0,341.5,216.0" stroke="#9d1d8f" stroke-width="2" fill="none" />
<polyline points="342.0,205.5,345.5,208.5,349.5,212.5,353.5,217.0,357.5,224.5" stroke="#64e0fd" stroke-width="2" fill="none" />
<polyline points="353.5,208.5,352.0,210.5,348.0,208.0,344.0,205.0,339.5,202.5" stroke="#451f9" stroke-width="2" fill="none" />
<polyline points="339.0,202.5,341.5,206.5,346.5,210.5,350.0,214.5,353.0,218.5,355.0,222.5,357.5,227.5,359.5,231.0,361.5,235.0,362.5,239.0,363.0,243.0,363.5,247.0" stroke="#61dfe1" stroke-width="2" fill="none" />
<polyline points="366.0,248.5,365.5,244.5" stroke="#e22a25" stroke-width="2" fill="none" />
<polyline points="354.0,241.5,350.0,245.5,345.0,250.0,341.5,254.0" stroke="#fc4dd5" stroke-width="2" fill="none" />
<polyline points="346.0,257.0,350.0,255.0" stroke="#ecfdde" stroke-width="2" fill="none" />
<polyline points="338.0,264.0,342.0,265.5,343.5,271.0,341.5,274.5,340.5,282.0,342.5,282.5,343.0,282.5" stroke="#154622" stroke-width="2" fill="none" />
<polyline points="338.5,281.0,342.5,282.5,346.0,280.0,350.0,279.5,350.0,283.0,351.0,287.0,350.0,290.5,350.5,294.5,350.0,298.0,348.5,302.0,348.0,305.5,344.5,310.0,346.5,312.0,345.0,316.5,343.0,320.5,340.5,324.5,339.0,328.5,336.5,332.5,335.0,336.5,332.5,340.5,331.0,344.5,329.0,348.5,327.0,352.5,325.0,356.5,323.0,360.5,320.0,365.0,318.5,369.0,317.0,373.5,315.5,378.0,313.5,383.0,314.0,387.0,312.0,391.0,317.5,394.0,326.5,397.5,335.0,400.5,341.0,404.0,345.5,408.0,349.5,412.0,352.5,415.5,355.0,419.5,357.0,423.5,359.0,427.5,361.5,431.5,363.0,435.0,364.0,439.0,365.0,443.0,366.5,447.0,367.0,451.5,368.5,455.5,370.0,460.0,371.5,464.0,372.5,468.5,373.5,472.5,374.5,476.5,375.0,480.0,376.5,484.0,378.0,488.5,379.5,492.5,380.5,497.0,381.5,501.0,382.5,505.0,383.5,509.0,384.5,513.0" stroke="#467e56" stroke-width="2" fill="none" />
<polyline points="420.5,489.0,424.5,494.5,428.5,494.0,432.5,491.5,436.5,488.5,441.0,484.5,445.0,481.0,449.0,476.0,452.0,471.5,456.0,468.0" stroke="#413ae1" stroke-width="2" fill="none" />
<polyline points="457.5,465.5,452.0,470.0,449.5,469.0,454.0,462.5" stroke="#f6384f" stroke-width="2" fill="none" />
<polyline points="455.0,450.5,459.5,441.5" stroke="#bcc8cc" stroke-width="2" fill="none" />
<polyline points="465.5,432.5,469.5,425.0,473.5,418.0,477.0,409.0,481.0,405.0,485.0,400.0,489.0,397.0,492.5,393.5,494.0,390.0,498.0,387.5,502.0,386.0,506.0,385.0,509.5,383.5" stroke="#1a3468" stroke-width="2" fill="none" />
<polyline points="512.5,383.0,502.0,387.0,493.0,391.5,491.5,396.0,486.5,400.0,483.5,404.0,478.5,408.0,477.0,412.0,476.5,416.0,474.0,419.5,471.5,423.5,470.0,427.5,468.0,431.5,464.5,435.5,462.0,439.5,460.0,443.5,458.0,447.5,456.5,451.5,455.0,455.0,454.5,459.0,453.5,463.0,451.5,467.0,449.5,471.0,450.0,475.5,447.0,479.0,442.0,483.0,438.0,487.0,433.0,491.0" stroke="#a17580" stroke-width="2" fill="none" />
<polyline points="431.0,481.0,430.0,478.5,431.0,475.5,433.5,479.0,435.0,475.0,436.0,471.0,438.0,467.0,439.0,462.5,440.0,458.0,439.0,456.5,435.0,454.0,431.0,450.5" stroke="#da23e" stroke-width="2" fill="none" />
<polyline points="439.0,458.5,435.0,456.0,431.0,451.5,430.5,447.0,431.0,443.0,431.0,439.0,432.0,435.0,434.0,431.0,432.0,434.0" stroke="#8734b3" stroke-width="2" fill="none" />
<polyline points="430.0,467.5,426.0,472.0,422.5,476.0,419.0,471.5,418.0,467.5" stroke="#6e175" stroke-width="2" fill="none" />
<polyline points="429.0,468.0,426.5,472.0,422.5,476.0,422.0,480.0,422.5,483.5,423.0,487.5,424.0,491.5" stroke="#82fe18" stroke-width="2" fill="none" />
<polyline points="485.5,408.5,481.5,414.0,479.0,416.5,482.5,412.5,485.5,408.5,488.5,404.5" stroke="#d4dcb" stroke-width="2" fill="none" />
<polyline points="443.5,424.5,445.5,423.0,447.0,418.5,448.0,415.0,448.5,411.0,449.5,407.5,449.5,403.5,449.5,399.5,449.5,395.5,450.0,391.5,452.0,387.0,453.0,383.0,454.0,379.0,454.5,374.5,455.0,370.5,454.5,366.5" stroke="#1e35b0" stroke-width="2" fill="none" />
<polyline points="385.5,349.0,385.5,345.5,385.5,342.0,385.5,338.0,385.0,334.0,384.0,330.0" stroke="#bbad1" stroke-width="2" fill="none" />
<polyline points="367.0,352.5,367.5,356.5,368.5,360.5,368.5,364.5,368.5,368.0,371.5,372.5,371.5,376.5,372.0,380.5,372.5,384.5" stroke="#9a325" stroke-width="2" fill="none" />
<polyline points="318.5,347.5,317.0,343.5,316.5,342.0" stroke="#dfb511" stroke-width="2" fill="none" />
<polyline points="319.5,346.5,316.0,349.5,312.5,349.5,308.5,351.0" stroke="#97a594" stroke-width="2" fill="none" />
<polyline points="311.5,356.5,307.5,357.0,303.5,357.5,299.5,358.0,295.5,358.0" stroke="#b51142" stroke-width="2" fill="none" />
<polyline points="294.5,359.5,298.5,361.0,302.5,360.0,307.0,361.0,311.0,359.0,311.5,359.0,309.5,362.5" stroke="#2b7c32" stroke-width="2" fill="none" />
<polyline points="315.0,346.5,310.5,348.0,306.5,348.0,302.5,347.5,298.5,347.5,294.5,349.0" stroke="#b11f37" stroke-width="2" fill="none" />
<polyline points="304.0,335.0,303.0,331.0,314.0,329.0,313.5,329.5,309.5,331.0,305.5,332.0" stroke="#febac9" stroke-width="2" fill="none" />
<polyline points="308.5,329.5,304.5,328.0,301.0,327.5,296.5,326.5" stroke="#e23b4b" stroke-width="2" fill="none" />
<polyline points="296.5,326.5,300.0,324.5,304.0,325.0,307.5,326.5" stroke="#b5ef34" stroke-width="2" fill="none" />
<polyline points="320.0,327.0,322.0,325.0,324.0,321.0,323.5,317.0,322.5,313.5,322.0,309.5,321.5,305.5" stroke="#1a58b" stroke-width="2" fill="none" />
<polyline points="337.5,282.0,337.5,277.0" stroke="#92a5c" stroke-width="2" fill="none" />
<polyline points="333.0,271.0,334.0,273.5,336.5,270.0,336.5,266.0,333.5,266.5" stroke="#662231" stroke-width="2" fill="none" />
<polyline points="327.0,268.0,331.0,270.0,335.0,270.0,329.0,271.0,326.5,271.5,328.5,272.5" stroke="#476f46" stroke-width="2" fill="none" />
<polyline points="333.5,270.5,334.5,272.5,330.5,275.0,326.5,274.0,322.5,268.0" stroke="#1ee09a" stroke-width="2" fill="none" />
<polyline points="322.5,267.5,322.0,271.5,323.0,275.5,330.0,277.5,334.0,278.5,338.0,278.0,342.0,276.0,348.0,277.5" stroke="#91cd69" stroke-width="2" fill="none" />
<polyline points="361.0,281.0,362.0,279.5,363.0,275.5,363.5,271.0,363.5,267.0,363.5,263.0" stroke="#af19e" stroke-width="2" fill="none" />
<polyline points="366.5,265.0,366.0,268.5,365.5,272.5,364.5,276.5,364.5,280.5,364.5,285.0,364.0,289.0,363.0,293.0,363.0,297.0,363.0,301.5,363.0,305.5,363.0,309.5,363.5,313.0" stroke="#7bac29" stroke-width="2" fill="none" />
<polyline points="374.5,278.0,375.5,282.0,376.5,285.0,376.0,288.5,376.5,292.5,377.5,296.5,378.0,300.5,379.0,305.0,380.0,309.0,380.5,313.0,381.5,317.0,382.5,321.0,383.0,325.0,383.0,329.0,382.5,333.0,382.5,337.0,383.0,341.0,383.5,345.0,383.0,349.5,384.0,353.5" stroke="#d696cc" stroke-width="2" fill="none" />
<polyline points="379.5,289.5,378.5,285.5,378.0,281.5,380.0,278.0,382.0,274.0,381.5,270.0,382.5,266.0" stroke="#73f410" stroke-width="2" fill="none" />
<polyline points="348.0,240.5,346.5,236.5,345.0,232.0,344.0,228.0,343.5,223.5,342.5,219.5,342.5,215.5,341.0,211.0,337.5,204.0" stroke="#9870cb" stroke-width="2" fill="none" />
<polyline points="335.0,203.5,339.0,201.0,342.5,198.0,346.5,196.0,350.5,193.5,354.5,191.0,358.5,189.5,362.5,187.0,366.0,185.0,369.5,184.5,373.5,183.0,377.5,181.5,381.5,180.0,385.5,177.0,389.5,174.0,393.5,171.5,397.5,169.5,401.5,167.5,406.0,166.5,402.5,169.5,400.0,173.5,397.5,177.5,393.0,181.5,387.0,185.5,382.0,188.0,386.0,187.0,390.0,184.5,394.0,181.5,398.0,178.0,402.0,174.0" stroke="#82ea70" stroke-width="2" fill="none" />
<polyline points="401.5,166.0,404.0,159.0,403.0,163.0,403.5,167.5,397.5,171.0,390.5,175.0,384.0,179.0" stroke="#d0805b" stroke-width="2" fill="none" />
<polyline points="374.5,182.5,365.0,186.5,358.5,190.5,351.0,194.0,342.5,198.0,337.0,202.5,336.5,206.0,341.5,209.5,346.5,214.0,352.0,214.5" stroke="#964caa" stroke-width="2" fill="none" />
<polyline points="363.5,193.5,361.0,189.5" stroke="#85f553" stroke-width="2" fill="none" />
<polyline points="362.0,189.0,366.0,194.5,369.5,194.0,373.5,192.5,377.0,191.0" stroke="#4a95f9" stroke-width="2" fill="none" />
<polyline points="403.5,159.0,399.5,162.5,395.5,166.5,391.5,169.5,388.0,173.0,387.5,173.5,392.0,169.5,397.0,165.0,401.0,161.0,405.0,157.0" stroke="#9bdcc" stroke-width="2" fill="none" />
<polyline points="394.5,154.0,390.5,159.5,386.0,166.5,382.0,173.5,380.0,176.5,383.0,172.5,385.5,168.0,387.5,163.5,390.5,159.5,392.5,155.5,395.5,151.5" stroke="#5397d" stroke-width="2" fill="none" />
<polyline points="396.0,123.0,392.0,126.5,388.0,130.0,383.5,133.0,382.0,135.0,387.5,131.0,392.5,127.0,397.5,123.0" stroke="#c458f7" stroke-width="2" fill="none" />
<polyline points="396.0,120.5,391.5,125.0,385.5,129.0,381.0,133.0,384.5,129.5,388.5,126.5,392.0,123.5,396.0,120.5" stroke="#b94a62" stroke-width="2" fill="none" />
<polyline points="398.5,112.0,392.0,116.0,387.5,120.5,382.0,124.5,377.0,128.5,371.0,133.0,364.5,137.0,358.0,141.5,352.0,145.5" stroke="#597d9a" stroke-width="2" fill="none" />
<polyline points="338.0,152.0,331.0,156.0,325.0,160.0,317.5,164.0,312.0,167.5,306.0,171.5,300.5,175.5,295.5,179.5" stroke="#a9c5c3" stroke-width="2" fill="none" />
<polyline points="291.0,178.0,287.0,176.5" stroke="#bad5c" stroke-width="2" fill="none" />
<polyline points="281.0,176.0,285.5,175.5,289.5,175.5,293.5,179.5" stroke="#428b80" stroke-width="2" fill="none" />
<polyline points="286.0,180.0,282.0,178.0,277.5,176.0" stroke="#389dd2" stroke-width="2" fill="none" />
<polyline points="275.5,175.5,276.0,179.5" stroke="#7f4721" stroke-width="2" fill="none" />
<polyline points="278.5,180.0,274.5,180.0,270.5,180.0,266.5,179.0,262.5,177.0,258.5,176.0,255.0,175.5,251.5,171.0,248.0,171.0,244.0,168.5" stroke="#849b" stroke-width="2" fill="none" />
<polyline points="246.0,172.0,242.0,176.0,241.5,179.5,239.5,183.5,234.0,186.5,238.0,184.0,243.5,181.5,247.5,181.0,251.5,177.5" stroke="#665aec" stroke-width="2" fill="none" />
<polyline points="250.0,176.5,246.0,180.5,241.5,183.0,244.5,186.0,242.0,190.5,238.5,195.0,237.0,199.5,235.5,203.5,234.0,207.5,231.5,211.5,233.0,211.5,232.5,210.5,236.0,209.5" stroke="#21df2f" stroke-width="2" fill="none" />
<polyline points="242.5,210.5,246.5,211.0,250.5,211.5" stroke="#1ea91e" stroke-width="2" fill="none" />
<polyline points="253.5,203.0,257.5,201.5,261.0,197.0,264.5,192.0,269.5,187.0,270.0,191.0,269.0,194.5,268.5,198.5,267.0,202.5,263.5,206.5,263.0,210.5,262.0,214.5,264.0,216.0,262.0,218.0,258.5,222.0,254.5,226.0,250.0,231.0,246.0,235.0,243.0,239.0,239.5,243.0,236.5,246.5,233.5,251.0,230.5,255.5,227.0,260.0,225.0,264.0,223.0,268.0,220.5,272.0,218.5,276.0,216.0,280.5,214.0,284.5,216.0,281.0,220.0,273.5,224.0,266.5,228.5,260.0,232.5,255.0,237.0,249.0,241.0,244.0,245.0,239.0,248.5,234.0,252.5,229.0,258.0,223.5,262.0,225.0,262.0,226.5,262.0,230.5,262.0,234.5,262.0,238.5" stroke="#887716" stroke-width="2" fill="none" />
<polyline points="266.5,239.0,266.5,235.0" stroke="#a8b68c" stroke-width="2" fill="none" />
<polyline points="267.5,225.0,263.5,220.5" stroke="#ec9a87" stroke-width="2" fill="none" />
<polyline points="268.0,213.5,267.5,212.0,272.0,207.5,276.5,204.0,280.5,200.5,285.0,196.5,289.5,193.5,293.5,190.0,298.0,187.5,302.5,184.0,306.5,182.0,310.5,179.5" stroke="#9bf472" stroke-width="2" fill="none" />
<polyline points="309.5,175.0,305.5,178.0,301.5,180.5,297.0,184.0,293.0,187.0,289.0,190.5,285.0,193.5,280.5,197.0,276.5,200.5,272.5,203.5,268.5,206.0,264.0,213.5,263.0,217.0,259.0,221.0,255.0,224.5,251.0,228.5,247.5,233.0,243.5,238.0,239.5,243.0,235.5,248.0,231.5,252.5,227.5,258.0,224.0,263.5,220.0,270.0,216.0,277.0,212.0,285.0,208.0,293.5,204.0,302.5,199.5,313.0,200.0,320.5,197.5,317.0,199.5,313.0,201.0,309.0,203.0,305.0,204.5,300.5,206.5,296.5,208.0,292.5,210.0,288.0,211.5,284.0,214.0,280.0,215.5,276.0,218.5,272.0,220.5,268.0,222.5,264.0,225.0,260.0,227.5,256.0,230.5,252.0,233.5,248.0,236.0,244.0,240.0,240.0,243.5,236.0,246.5,232.5,250.5,228.5,255.0,224.5,259.0,220.5,261.0,215.5,260.5,211.0,262.5,207.0,265.0,203.0,266.0,199.0" stroke="#50db22" stroke-width="2" fill="none" />
<polyline points="266.0,205.0,262.0,209.5" stroke="#51fd76" stroke-width="2" fill="none" />
<polyline points="260.5,209.5,264.5,202.0,262.5,202.5,260.5,206.5,258.5,210.5,258.0,214.5,255.5,219.5,252.0,223.0,248.5,226.5,244.5,230.0,241.0,234.0,238.5,238.0,235.0,242.0" stroke="#fac4b" stroke-width="2" fill="none" />
<polyline points="234.0,224.5,230.0,222.0" stroke="#5e9fef" stroke-width="2" fill="none" />
<polyline points="230.0,219.0,233.5,221.5" stroke="#189725" stroke-width="2" fill="none" />
<polyline points="229.0,228.5,225.0,219.5,227.5,214.5" stroke="#2e0b8" stroke-width="2" fill="none" />
<polyline points="221.5,214.0,221.0,218.0,221.5,222.0,221.0,226.0,221.0,230.0,223.5,231.5,221.0,234.5,226.5,235.0,223.0,239.0,222.5,242.5,220.0,246.5,219.5,250.5" stroke="#532dd" stroke-width="2" fill="none" />
<polyline points="219.0,248.0,220.0,243.5,222.0,239.5,221.0,235.0,220.0,231.0,216.0,232.0" stroke="#3b60e6" stroke-width="2" fill="none" />
<polyline points="219.5,232.0,220.5,236.5" stroke="#50502c" stroke-width="2" fill="none" />
<polyline points="213.5,238.5,214.0,242.0,214.0,246.0,213.0,249.5,213.5,251.0,214.0,254.5,215.5,255.5" stroke="#c05219" stroke-width="2" fill="none" />
<polyline points="217.0,251.0,216.0,246.5,215.0,242.5,211.5,238.5,211.5,237.0" stroke="#3db11b" stroke-width="2" fill="none" />
<polyline points="210.5,237.5,211.5,235.5,211.0,239.0,209.5,243.0,208.5,244.5" stroke="#7fe155" stroke-width="2" fill="none" />
<polyline points="214.5,248.0,215.0,252.0,217.5,256.5" stroke="#e9613" stroke-width="2" fill="none" />
<polyline points="212.5,255.5,209.5,250.5,206.5,249.0,207.5,244.5,208.0,240.5,209.0,236.5,210.5,232.5,208.0,237.5" stroke="#ea528d" stroke-width="2" fill="none" />
<polyline points="199.5,234.5,197.5,238.5,193.0,242.0,188.0,245.5,191.5,244.0,195.0,240.5,199.0,234.5" stroke="#af478a" stroke-width="2" fill="none" />
<polyline points="209.0,226.5,205.0,221.0" stroke="#ea27e7" stroke-width="2" fill="none" />
<polyline points="210.0,214.5,214.5,220.5" stroke="#f5d0f7" stroke-width="2" fill="none" />
<polyline points="213.0,215.5,215.0,219.5,217.0,225.5,220.0,229.5,218.0,233.5" stroke="#bdbef9" stroke-width="2" fill="none" />
<polyline points="232.0,243.5,228.0,248.5,224.0,255.0,219.5,261.5,215.5,268.5,212.0,275.0,208.0,282.0,204.0,289.5,200.0,297.5,196.0,305.5,191.5,315.0,187.5,319.0,183.5,327.0,180.0,331.0,176.0,330.5,171.5,331.0,167.0,333.5,163.0,340.0,159.0,341.0,154.5,343.5,150.0,349.5,146.0,346.5" stroke="#efba" stroke-width="2" fill="none" />
<polyline points="145.5,341.5,148.0,337.5,146.0,337.5,149.0,336.0,148.0,332.5,150.5,328.5,148.5,330.5" stroke="#8a7d6e" stroke-width="2" fill="none" />
<polyline points="150.5,327.5,154.0,331.5,153.5,336.0" stroke="#ba6942" stroke-width="2" fill="none" />
<polyline points="147.5,339.5,146.0,343.5,146.0,348.0,145.5,352.0" stroke="#d3a528" stroke-width="2" fill="none" />
<polyline points="138.5,352.5,134.5,349.0,130.0,343.5" stroke="#2df6f8" stroke-width="2" fill="none" />
<polyline points="128.5,343.0,132.5,349.0,136.5,353.0" stroke="#a3fcb0" stroke-width="2" fill="none" />
<polyline points="135.5,357.0,131.5,353.5" stroke="#4d4dd2" stroke-width="2" fill="none" />
<polyline points="131.5,353.0,132.0,359.0,136.0,362.5,137.5,368.0" stroke="#e18d9" stroke-width="2" fill="none" />
<polyline points="142.0,366.5,146.0,368.5" stroke="#74b261" stroke-width="2" fill="none" />
<polyline points="145.5,366.5,141.0,362.5,141.0,356.0,136.5,355.5,137.5,349.0,133.5,345.0,133.5,341.0,132.0,337.0,131.0,332.5,124.0,333.5" stroke="#d1aae1" stroke-width="2" fill="none" />
<polyline points="117.5,337.0,117.5,341.5,117.0,345.0,118.5,349.0,120.5,353.5,121.0,357.5,122.5,361.0,124.5,365.0,126.5,368.5,128.5,372.0,131.0,376.0,131.5,381.5,133.0,382.5,138.0,384.5,139.5,389.0" stroke="#431cd0" stroke-width="2" fill="none" />
<polyline points="142.5,391.5,141.0,395.0,138.5,399.5,137.5,404.0,133.0,408.0,130.0,411.5,130.0,414.5,133.0,418.0,135.5,421.0,139.0,425.0,139.5,430.0,141.0,434.0,138.5,439.0,138.5,443.0,137.5,447.0,137.0,450.5,135.5,454.0,133.0,457.0,132.0,461.5,136.5,466.0,137.0,467.0,141.0,467.0,145.0,472.0,149.0,475.5,152.0,477.5,156.0,480.0,160.0,481.5,164.0,485.0,167.0,489.0" stroke="#dd54f9" stroke-width="2" fill="none" />
<polyline points="161.5,495.0,165.5,497.5" stroke="#f0a3ab" stroke-width="2" fill="none" />
<polyline points="163.5,504.0,165.0,505.0,168.0,508.5" stroke="#c9fe7c" stroke-width="2" fill="none" />
<polyline points="157.0,506.0,153.0,503.0,149.0,496.0,147.5,490.5,143.0,482.0" stroke="#5ba3fe" stroke-width="2" fill="none" />
<polyline points="141.0,482.5,145.0,490.0,149.5,494.5,151.5,498.5,154.0,503.0,153.0,505.0" stroke="#f160d8" stroke-width="2" fill="none" />
<polyline points="151.0,504.5,155.0,510.0" stroke="#e85685" stroke-width="2" fill="none" />
<polyline points="153.5,502.0,149.5,495.0" stroke="#ba613c" stroke-width="2" fill="none" />
<polyline points="151.0,491.5,155.0,497.0" stroke="#9ece6b" stroke-width="2" fill="none" />
<polyline points="153.5,492.5,153.0,487.0,149.0,483.5" stroke="#7b7ae5" stroke-width="2" fill="none" />
<polyline points="149.5,482.0,149.5,485.5,152.5,489.5,155.5,489.5,155.5,493.0,156.0,496.5,157.5,501.0,158.0,505.5,159.0,507.0,165.0,510.5" stroke="#b242b9" stroke-width="2" fill="none" />
<polyline points="174.0,509.0,170.0,505.5,165.5,503.0,161.5,502.0,157.5,500.0,153.0,498.0,151.0,494.0,146.5,492.0,144.0,488.0,142.0,484.0,139.0,477.5" stroke="#276fb7" stroke-width="2" fill="none" />
<polyline points="135.5,480.5,133.5,485.0,134.5,489.5,136.0,493.5,133.5,496.0,135.5,500.0,137.5,504.0,139.0,508.5,139.5,512.5" stroke="#6875f0" stroke-width="2" fill="none" />
<polyline points="151.5,510.0,147.5,500.5,143.5,495.5" stroke="#7b79b0" stroke-width="2" fill="none" />
<polyline points="145.0,495.0,148.0,499.0,149.5,503.5,151.0,507.5,152.0,511.5" stroke="#24fde5" stroke-width="2" fill="none" />
<polyline points="141.5,512.5,143.0,508.5,141.0,504.5,140.0,501.0,139.0,497.5,134.5,493.0,134.5,487.5" stroke="#90e769" stroke-width="2" fill="none" />
<polyline points="135.5,485.0,137.0,489.0,136.0,491.0,138.0,494.5,138.0,498.0,139.5,502.0,139.0,505.0" stroke="#e1db3d" stroke-width="2" fill="none" />
<polyline points="137.5,494.0,137.5,487.0,133.5,483.5" stroke="#a81eb" stroke-width="2" fill="none" />
<polyline points="141.5,484.5,144.0,488.5,145.5,493.0,147.5,497.0,150.5,501.0,152.0,505.0,153.0,509.0,156.0,512.5" stroke="#2ff85" stroke-width="2" fill="none" />
<polyline points="163.5,509.0,162.0,505.0,159.5,501.0" stroke="#27afa1" stroke-width="2" fill="none" />
<polyline points="167.5,491.0,166.5,487.0,159.0,484.0" stroke="#4fd9bf" stroke-width="2" fill="none" />
<polyline points="168.5,480.5,166.0,479.0,164.0,481.0,166.0,476.5" stroke="#b9caab" stroke-width="2" fill="none" />
<polyline points="164.0,469.5,168.0,473.0,169.5,477.5,167.0,481.5,165.5,485.5,167.5,490.0,168.0,492.5" stroke="#ba31a" stroke-width="2" fill="none" />
<polyline points="194.5,491.5,198.5,491.0,202.5,490.0,207.0,488.0,211.0,486.5,215.0,484.0,219.0,480.5,223.0,476.0,227.0,470.5,230.5,464.5" stroke="#3c87a0" stroke-width="2" fill="none" />
<polyline points="233.5,465.0,237.5,458.0" stroke="#84f873" stroke-width="2" fill="none" />
<polyline points="210.0,487.0,215.5,483.0,219.5,479.0,223.0,474.5,226.0,470.5,228.5,466.5,230.5,463.0,232.5,459.0,233.5,455.5,234.0,451.5,235.0,447.5,235.5,443.5,236.5,439.5,237.0,435.0,236.5,431.0,236.5,427.0,237.0,422.5,236.0,418.5,235.5,414.5,234.0,410.5,232.0,406.0,232.0,404.0" stroke="#edc07" stroke-width="2" fill="none" />
<polyline points="223.0,410.0,223.0,414.0,224.0,414.5" stroke="#635481" stroke-width="2" fill="none" />
<polyline points="229.0,415.0,228.0,419.0" stroke="#eed2d" stroke-width="2" fill="none" />
<polyline points="244.0,409.5,243.5,413.5,244.5,417.0,244.5,421.5,243.5,425.5,242.5,429.5,242.5,433.5,241.5,437.5,241.0,441.5,240.0,445.5,238.5,450.0,238.0,453.5,237.0,458.0,235.5,462.0,233.0,466.0,232.5,469.5,229.5,473.5,227.0,477.5,223.0,482.0,219.0,486.0,211.5,490.0" stroke="#94c42" stroke-width="2" fill="none" />
<polyline points="200.5,494.5,196.5,497.5,200.0,495.0,203.5,494.5,207.0,493.0,210.5,491.5,214.5,490.0,218.0,488.0,222.5,484.0,226.5,479.5,230.5,472.5" stroke="#2a24a7" stroke-width="2" fill="none" />
<polyline points="197.5,447.5,198.0,443.5,200.5,443.5,196.5,445.5" stroke="#cdab57" stroke-width="2" fill="none" />
<polyline points="198.5,451.0,195.0,449.0,191.0,448.0,187.0,447.0,183.0,445.5,179.0,448.5,180.5,447.0,181.5,447.0,183.5,441.0,183.5,436.0,181.5,434.0,180.0,432.5,182.0,428.5,183.0,424.5,182.0,421.0,181.5,417.0,179.5,413.0,178.5,409.0,176.0,405.5,173.5,401.5,170.5,397.0,166.5,393.0,161.5,389.0,159.0,384.5,162.5,380.5,163.5,376.0,162.0,379.0" stroke="#9dcf" stroke-width="2" fill="none" />
<polyline points="161.5,377.0,165.5,371.5,169.0,366.5,173.0,362.0,177.0,356.5,181.0,350.0,185.0,344.5,189.0,339.5,193.0,334.0,197.0,329.5,201.0,324.5" stroke="#415f2f" stroke-width="2" fill="none" />
<polyline points="196.5,318.5,200.5,316.0" stroke="#a56bb5" stroke-width="2" fill="none" />
<polyline points="190.5,318.0,194.5,309.0,198.0,300.5,202.5,292.5,206.5,285.5,210.5,278.0,215.0,271.0,219.0,264.5,223.5,257.5,227.5,251.5,232.0,245.5,236.0,240.5,240.0,235.5,244.0,230.5,248.0,226.5,251.5,222.0,256.0,218.5" stroke="#d16fe3" stroke-width="2" fill="none" />
<polyline points="253.5,201.0,257.5,197.0" stroke="#a84926" stroke-width="2" fill="none" />
<polyline points="263.5,200.0,259.0,208.0,256.5,214.5,253.0,218.0,248.5,222.0,244.5,226.0,240.5,230.5,236.5,235.5,232.5,234.5,232.0,234.0,231.0,230.0,230.0,225.5,230.0,221.5,228.5,217.5,227.0,213.5,224.5,213.5,223.5,209.5,224.0,205.5,225.0,201.5" stroke="#77674c" stroke-width="2" fill="none" />
<polyline points="221.5,206.5,225.0,202.0,227.5,199.5,224.0,203.5,221.5,208.0,220.5,212.0,222.5,215.0,223.0,217.5,224.0,221.5,226.5,225.5,227.5,229.5,228.5,233.5,229.5,237.5,232.0,241.5,229.0,245.5,226.0,249.5,224.0,253.5,221.0,257.0,219.5,261.0,216.5,264.5,214.0,268.5,212.0,272.5,210.0,277.0,207.5,281.5,205.0,286.0,202.5,290.0,200.5,293.5,198.5,297.5,196.0,301.5,194.5,305.0,193.0,309.5,191.5,313.0,189.0,317.0,191.5,320.0,195.0,321.0,199.0,319.0,205.0,313.5,209.5,308.0,214.0,301.5,218.5,295.5,222.5,289.5,226.0,284.5,230.0,280.5,234.0,277.0,238.0,273.5,242.5,269.5,246.5,265.5,250.0,261.0,254.0,257.0,258.5,253.5,262.5,250.0,266.5,247.5,270.0,245.0,275.0,245.5,278.5,248.0,282.0,249.0,286.0,250.0,290.0,250.5,294.5,253.0,298.5,256.0" stroke="#b2ccb0" stroke-width="2" fill="none" />
<polyline points="288.5,256.0,286.0,256.5,283.5,258.0,285.0,259.5" stroke="#3630cf" stroke-width="2" fill="none" />
<polyline points="286.5,262.0,287.5,268.0,290.0,272.0" stroke="#c5d164" stroke-width="2" fill="none" />
<polyline points="291.5,274.5,287.5,268.0" stroke="#539697" stroke-width="2" fill="none" />
<polyline points="286.0,267.0,287.0,270.5" stroke="#bdc8f" stroke-width="2" fill="none" />
<polyline points="283.5,278.0,280.0,277.5" stroke="#7bcfc6" stroke-width="2" fill="none" />
<polyline points="288.0,273.0,284.0,270.5,279.5,266.5,275.5,264.5,271.0,266.0" stroke="#792cb6" stroke-width="2" fill="none" />
<polyline points="267.5,267.0,267.5,267.0,269.5,271.0" stroke="#5eed9e" stroke-width="2" fill="none" />
<polyline points="271.0,266.5,266.0,270.0,262.5,267.0" stroke="#15d614" stroke-width="2" fill="none" />
<polyline points="264.0,267.5,263.0,268.5,263.5,270.5,267.5,272.0" stroke="#c233f5" stroke-width="2" fill="none" />
<polyline points="261.0,269.5,265.0,273.5,269.5,274.0,273.5,270.0,275.0,268.5,272.0,272.0,272.0,277.5,274.0,281.5,275.5,282.0" stroke="#decaf" stroke-width="2" fill="none" />
<polyline points="262.5,281.5,263.5,278.0,258.5,275.5,259.0,272.0,258.0,268.0,258.0,268.0" stroke="#33225e" stroke-width="2" fill="none" />
<polyline points="258.0,266.5,259.5,271.0,264.5,274.5,265.5,281.5" stroke="#38e78d" stroke-width="2" fill="none" />
<polyline points="259.0,272.0,255.0,274.5,251.0,270.5,247.0,268.0" stroke="#77f2cf" stroke-width="2" fill="none" />
<polyline points="247.5,269.0,250.5,267.0,248.5,271.0,253.0,275.0,256.0,279.0,263.0,278.0,267.0,278.5,271.0,277.0,275.0,279.5,279.0,280.0,283.5,273.0,280.5,276.5,279.0,282.0" stroke="#27aee" stroke-width="2" fill="none" />
<polyline points="292.0,271.0,289.5,267.0,286.0,262.5,280.5,258.5,281.0,253.0,277.0,252.0" stroke="#295b19" stroke-width="2" fill="none" />
<polyline points="277.5,255.5,275.0,251.5,271.0,250.5,267.0,250.0,263.0,252.0" stroke="#2e5ff1" stroke-width="2" fill="none" />
<polyline points="268.0,257.0,271.0,252.5" stroke="#457b9f" stroke-width="2" fill="none" />
<polyline points="279.5,256.0,275.0,258.0,271.5,255.0,268.5,257.0,264.5,258.5,260.5,258.0,257.5,260.0,254.0,261.0" stroke="#40319f" stroke-width="2" fill="none" />
<polyline points="278.0,264.5,283.0,268.5,285.5,273.0,286.5,277.0,287.5,280.0,287.0,281.0,289.5,277.0" stroke="#7f91f" stroke-width="2" fill="none" />
<polyline points="295.0,254.5,289.0,250.5" stroke="#28eae" stroke-width="2" fill="none" />
<polyline points="274.0,243.5,269.0,244.5,263.5,248.5,258.0,253.0,253.5,257.0,249.0,261.0,245.0,265.5,241.0,269.5,237.5,273.5,233.5,277.5,229.5,282.0,226.0,285.5,222.5,289.5,219.0,293.5,216.0,297.5,213.5,301.5,211.0,305.5,207.5,309.0,204.0,313.0,203.0,317.0,200.5,321.0,196.5,325.0,194.0,329.0,191.5,333.5,188.5,337.5,185.5,342.0,182.5,346.0,179.5,350.0,177.0,354.0,174.5,358.0,171.5,362.0,168.0,365.5,164.5,370.0,162.0,374.5,159.5,378.5,158.5,384.0,162.0,390.0,166.0,392.5,170.0,397.5,174.0,403.0,177.5,411.0" stroke="#8efad0" stroke-width="2" fill="none" />
<polyline points="171.0,406.5,167.0,402.5,163.0,402.0,157.5,395.5,153.5,391.5" stroke="#707d2" stroke-width="2" fill="none" />
<polyline points="154.5,395.5,150.5,394.5" stroke="#9ab40" stroke-width="2" fill="none" />
<polyline points="149.0,393.0,149.0,396.0,149.5,401.5,150.0,405.5,152.0,412.5,151.5,416.0,151.5,420.5" stroke="#341fa7" stroke-width="2" fill="none" />
<polyline points="156.5,422.0,156.5,422.0,157.0,425.5,157.5,429.5,158.0,433.5,158.0,436.0,157.0,440.0,156.5,441.5" stroke="#5fc964" stroke-width="2" fill="none" />
<polyline points="163.0,442.5,167.0,439.0,171.0,443.5,175.0,443.5,178.5,439.0,182.5,438.5,182.5,433.5" stroke="#5b6d84" stroke-width="2" fill="none" />
<polyline points="179.5,438.0,175.5,442.0,179.5,441.5,183.0,443.0,186.5,439.0" stroke="#749a1" stroke-width="2" fill="none" />
<polyline points="179.0,445.5,174.5,444.5" stroke="#268d13" stroke-width="2" fill="none" />
<polyline points="174.0,445.0,174.0,449.5,175.5,453.0,175.0,457.0" stroke="#846945" stroke-width="2" fill="none" />
<polyline points="174.0,461.5,170.0,455.0" stroke="#ca2135" stroke-width="2" fill="none" />
<polyline points="169.5,455.0,172.0,459.0,172.0,464.0,170.5,468.0,167.0,469.0" stroke="#2443e5" stroke-width="2" fill="none" />
<polyline points="167.5,462.0,171.5,463.5" stroke="#a98bb1" stroke-width="2" fill="none" />
<polyline points="175.5,463.5,177.0,459.0,178.5,455.0,173.0,458.0,171.0,454.0,168.5,450.5,167.0,448.0,165.0,444.0,165.0,441.0,165.5,436.0,165.5,432.0,166.5,432.5" stroke="#9a205d" stroke-width="2" fill="none" />
<polyline points="168.0,435.5,161.5,435.0,160.5,434.5,163.5,430.5" stroke="#dc7a7" stroke-width="2" fill="none" />
<polyline points="168.5,429.5,172.5,435.5,176.5,435.5" stroke="#6e8" stroke-width="2" fill="none" />
<polyline points="178.5,425.5,177.5,422.5,175.0,419.0,175.5,415.5,172.5,414.0,169.5,410.5,166.5,406.5,163.5,402.5,164.0,398.5,165.5,402.0" stroke="#75554f" stroke-width="2" fill="none" />
<polyline points="169.5,403.5,173.5,407.5,175.0,411.5,172.5,416.0,170.5,419.5,169.0,423.5,165.0,424.0,164.0,428.5,164.0,433.0,159.5,436.0,163.5,430.5,166.5,426.0,170.0,424.0,172.5,428.0" stroke="#da225" stroke-width="2" fill="none" />
<polyline points="172.5,428.5,171.5,425.0,168.0,419.0,170.5,415.5,168.5,411.0,166.0,406.5,162.0,406.5" stroke="#c3f5a" stroke-width="2" fill="none" />
<polyline points="161.0,408.5,165.0,415.0" stroke="#d98342" stroke-width="2" fill="none" />
<polyline points="164.0,409.5,166.0,413.5,169.5,419.0" stroke="#4074d8" stroke-width="2" fill="none" />
<polyline points="172.0,418.0,173.5,422.0,176.0,426.0,176.5,430.0,176.5,433.5,175.0,436.5,172.0,439.0,172.5,441.0,172.0,446.5,173.0,450.5,174.0,454.5,177.0,457.5,174.0,463.0,175.0,467.0,171.0,465.0,175.0,468.0" stroke="#bf6c49" stroke-width="2" fill="none" />
<polyline points="176.5,461.5,172.5,458.5,168.5,451.5,164.5,444.5" stroke="#8d84ce" stroke-width="2" fill="none" />
<polyline points="163.0,445.5,165.0,449.5,166.5,453.5,168.0,457.5,171.0,461.5,168.5,464.0,168.0,468.0,164.0,471.0,165.0,475.0,163.5,478.5,161.0,479.5,161.0,482.5,160.0,487.0,161.0,491.0,164.5,495.0,165.5,499.0,167.0,506.0,170.5,510.5,171.0,514.5,172.0,514.0" stroke="#2b5f75" stroke-width="2" fill="none" />
<polyline points="156.0,473.5,151.5,471.5,147.5,464.5" stroke="#55dea" stroke-width="2" fill="none" />
<polyline points="148.5,468.0,151.5,472.0,157.5,476.0" stroke="#3ca64" stroke-width="2" fill="none" />
<polyline points="163.0,461.0,160.5,457.5,159.5,454.0,159.0,450.5,161.0,446.5,162.0,442.5,163.5,442.0" stroke="#4f617" stroke-width="2" fill="none" />
<polyline points="161.0,451.0,161.5,453.0,165.0,452.0,164.0,456.0,163.5,459.5,165.0,458.0" stroke="#e4e528" stroke-width="2" fill="none" />
<polyline points="159.5,461.5,155.5,459.0" stroke="#67448d" stroke-width="2" fill="none" />
<polyline points="160.5,461.0,154.5,456.5,155.0,454.0,154.0,450.0,153.0,446.0,150.5,443.0,146.0,439.0,145.5,435.0,146.0,431.0,143.5,427.5,141.5,424.0,138.5,424.0,135.0,419.5,131.0,415.0" stroke="#cee765" stroke-width="2" fill="none" />
<polyline points="130.0,412.5,134.0,407.5,140.0,403.0,144.0,399.0" stroke="#5fa42d" stroke-width="2" fill="none" />
<polyline points="142.0,401.0,146.0,404.5" stroke="#346541" stroke-width="2" fill="none" />
<polyline points="145.5,406.5,141.5,402.5" stroke="#3c671a" stroke-width="2" fill="none" />
<polyline points="140.5,402.0,142.0,406.0,146.0,410.0,150.5,413.5" stroke="#1d6db" stroke-width="2" fill="none" />
<polyline points="146.5,423.0,142.0,420.5" stroke="#c01bde" stroke-width="2" fill="none" />
<polyline points="139.0,421.0,144.5,422.5,149.5,426.5,147.0,429.5,147.5,433.5,149.5,437.5,154.0,437.5,154.0,441.5,156.5,445.0,156.0,448.5,156.0,446.5,159.0,449.5,163.0,448.0,163.0,453.0,166.5,455.0,170.5,461.0" stroke="#b2756" stroke-width="2" fill="none" />
<polyline points="156.0,467.5,149.5,461.0" stroke="#4669b" stroke-width="2" fill="none" />
<polyline points="150.0,461.5,154.0,466.5,156.5,466.5,157.5,472.0,160.0,475.0,158.5,474.5,164.0,475.5,166.0,471.0" stroke="#1878a1" stroke-width="2" fill="none" />
<polyline points="156.5,466.0,153.0,463.5,149.0,458.5" stroke="#a1de41" stroke-width="2" fill="none" />
<polyline points="149.0,453.5,145.0,450.0" stroke="#e9c0f4" stroke-width="2" fill="none" />
<polyline points="144.5,448.5,147.5,452.5,151.0,453.5,151.5,457.5,153.0,454.5,157.0,455.0,162.5,454.0" stroke="#9f3a73" stroke-width="2" fill="none" />
<polyline points="156.5,451.5,153.0,450.0,149.5,449.5,145.5,447.0" stroke="#41fed1" stroke-width="2" fill="none" />
<polyline points="145.5,448.0,146.0,452.0,149.5,456.0,150.5,460.5,151.5,464.0,151.0,467.0,155.0,469.5,157.5,473.5,157.0,477.5,160.5,480.0,164.5,477.5,169.0,477.5" stroke="#6d24b0" stroke-width="2" fill="none" />
<polyline points="153.5,474.5,150.5,473.5,146.5,467.5,143.0,465.5,139.0,463.5" stroke="#1844ca" stroke-width="2" fill="none" />
<polyline points="138.5,463.5,140.0,467.5,143.5,471.5,148.0,475.5,153.0,479.5,154.5,484.5,152.5,482.5,156.5,483.5,158.0,488.5,162.0,494.5,164.5,493.0,167.0,499.0" stroke="#d66e42" stroke-width="2" fill="none" />
<polyline points="168.0,469.0,163.5,469.0,157.5,472.0,153.0,469.0,149.0,462.5,145.0,454.0,141.5,451.5,137.5,456.0,133.0,465.0" stroke="#cf127e" stroke-width="2" fill="none" />
<polyline points="124.5,455.5,123.5,452.0,121.5,454.0" stroke="#bce3a" stroke-width="2" fill="none" />
<polyline points="121.5,452.0,124.0,455.5" stroke="#f2e5d3" stroke-width="2" fill="none" />
<polyline points="119.0,443.5,121.0,439.5" stroke="#423426" stroke-width="2" fill="none" />
<polyline points="120.0,438.0,119.5,444.0,118.0,443.5,119.0,439.5,120.5,435.5,121.0,431.5" stroke="#38d3" stroke-width="2" fill="none" />
<polyline points="116.0,431.0,116.0,427.0" stroke="#a21d6c" stroke-width="2" fill="none" />
<polyline points="121.0,420.0,125.0,425.0,129.0,428.5" stroke="#20af2c" stroke-width="2" fill="none" />
<polyline points="137.5,428.5,138.5,431.0,139.5,435.0" stroke="#73305a" stroke-width="2" fill="none" />
<polyline points="150.5,439.0,144.0,429.5,139.5,422.5" stroke="#c2a3ec" stroke-width="2" fill="none" />
<polyline points="132.5,420.0,135.0,424.0,135.5,427.5,137.0,431.5,138.0,436.0,141.0,441.5,141.5,445.5,140.5,449.0,139.0,453.0,136.5,457.0,134.5,461.0,133.0,464.5,134.0,456.0" stroke="#86941a" stroke-width="2" fill="none" />
<polyline points="141.0,450.5,143.0,454.5,144.5,458.5,144.5,462.5,146.5,466.5,147.5,470.5,150.5,475.0,154.5,478.0" stroke="#b3dfb7" stroke-width="2" fill="none" />
<polyline points="153.5,448.0,149.0,443.0,146.0,437.5,139.5,428.0,135.0,423.5,131.0,420.0" stroke="#ed5226" stroke-width="2" fill="none" />
<polyline points="127.0,414.0,131.0,419.5,131.5,423.0,133.0,427.0" stroke="#bdbcf2" stroke-width="2" fill="none" />
<polyline points="130.0,427.0,126.5,424.0,123.0,416.0" stroke="#489c6a" stroke-width="2" fill="none" />
<polyline points="121.5,417.0,122.5,420.5,125.0,425.0" stroke="#e5bde8" stroke-width="2" fill="none" />
<polyline points="131.0,427.5,130.0,423.5,130.0,419.0,127.5,415.0,128.5,410.5,129.0,406.5,123.0,406.5,118.5,411.0,114.5,412.0,110.5,412.0" stroke="#ab3dc0" stroke-width="2" fill="none" />
<polyline points="108.5,417.5,109.5,421.5,109.0,425.5,108.5,429.5,108.0,433.0,106.5,437.0,106.0,440.5,107.0,447.0" stroke="#106923" stroke-width="2" fill="none" />
<polyline points="109.0,445.5,108.5,442.0,108.0,440.0" stroke="#8d331f" stroke-width="2" fill="none" />
<polyline points="105.0,438.0,104.5,442.0,104.0,446.0" stroke="#724932" stroke-width="2" fill="none" />
<polyline points="103.0,439.5,98.5,442.5,101.5,440.5,103.5,436.5" stroke="#c7cd29" stroke-width="2" fill="none" />
<polyline points="103.5,434.5,99.5,438.5,97.0,443.5,95.0,442.5,94.0,446.5,94.5,443.0,99.0,439.0,103.0,435.5,104.5,431.5,105.5,427.5,105.5,424.0,105.5,420.0,109.5,418.0,105.5,419.5" stroke="#3b274c" stroke-width="2" fill="none" />
<polyline points="112.5,418.5,113.0,422.5,113.5,426.5,114.0,430.5,115.0,432.5" stroke="#565aa" stroke-width="2" fill="none" />
<polyline points="127.5,428.5,123.5,425.0,121.0,421.0,120.5,417.5" stroke="#467589" stroke-width="2" fill="none" />
<polyline points="127.5,411.5,131.5,406.5,135.5,402.5" stroke="#abb5ba" stroke-width="2" fill="none" />
<polyline points="140.0,403.5,144.0,407.5,147.5,412.5" stroke="#c88978" stroke-width="2" fill="none" />
<polyline points="138.5,407.5,142.0,411.5,145.0,415.5,148.0,419.5,151.0,423.5,150.0,427.0" stroke="#94bafb" stroke-width="2" fill="none" />
<polyline points="163.5,424.0,161.0,427.5,161.0,423.5,162.5,419.0,161.5,425.5,163.5,421.5,162.5,417.0,161.5,413.0,162.0,408.5,160.5,404.0,160.5,400.5,162.0,397.0,160.5,393.5,157.5,388.0,156.5,384.0,155.5,380.0,153.5,377.0,153.0,373.0,152.5,369.0,148.0,362.5" stroke="#2d4716" stroke-width="2" fill="none" />
<polyline points="149.0,362.0,152.0,366.0,151.5,367.0,151.5,371.0,151.5,375.0,151.5,379.0,151.0,383.0,150.0,384.0,154.5,388.0,158.0,390.5,161.5,395.0,167.5,397.5,172.0,401.0,176.5,409.0" stroke="#d1f8" stroke-width="2" fill="none" />
<polyline points="174.0,423.5,171.0,417.0,162.0,416.0,158.5,411.0,154.0,405.5,150.0,403.5,146.5,397.5,146.5,390.5,142.0,385.0,139.5,391.0,135.5,388.5,135.0,384.5,139.5,380.5,138.0,376.5,135.0,372.5,133.5,371.0,137.0,367.0,141.0,363.0,141.5,359.0,141.5,355.5,141.5,352.5,136.5,349.5,133.0,345.5,130.5,341.5,132.0,337.5,130.5,333.0,132.0,328.5,130.5,324.5,128.0,319.0" stroke="#41ec6" stroke-width="2" fill="none" />
<polyline points="127.0,309.5,127.5,313.5,126.0,316.5,127.0,321.0,129.0,325.0,128.0,329.0,127.5,333.0" stroke="#9ed67d" stroke-width="2" fill="none" />
<polyline points="129.5,342.0,134.5,339.5,139.5,344.5" stroke="#fccb66" stroke-width="2" fill="none" />
<polyline points="142.5,337.5,140.0,340.0,139.0,336.5,138.5,329.5" stroke="#b2127" stroke-width="2" fill="none" />
<polyline points="155.5,318.0,155.0,314.0,155.0,313.0" stroke="#3d39e" stroke-width="2" fill="none" />
<polyline points="158.0,312.5,161.5,314.0" stroke="#74f4a7" stroke-width="2" fill="none" />
<polyline points="162.0,314.5,160.0,310.5,159.0,310.0" stroke="#a94674" stroke-width="2" fill="none" />
<polyline points="162.5,319.5,166.5,321.0,170.5,320.0" stroke="#4a31c" stroke-width="2" fill="none" />
<polyline points="167.0,322.0,164.5,326.0,162.0,330.0,159.5,333.5,159.5,335.5,164.0,331.0" stroke="#d68ff5" stroke-width="2" fill="none" />
<polyline points="165.0,330.5,167.5,331.5,166.0,336.0,165.0,340.0,170.0,336.5,174.0,334.5,178.0,332.5,182.0,332.0,179.0,336.0,177.0,339.5,174.0,344.0,171.0,347.5,168.0,351.5,165.0,355.5,162.0,359.5,160.5,363.5,160.0,367.0,164.5,367.0,168.5,361.0,166.5,364.5" stroke="#a7b0e7" stroke-width="2" fill="none" />
<polyline points="162.0,365.0,166.5,361.0,171.0,358.0,175.0,353.5,179.0,348.0,183.5,342.5,187.0,336.0" stroke="#e767a8" stroke-width="2" fill="none" />
<polyline points="190.0,330.5,186.0,330.5,181.0,332.0,177.0,338.5,173.0,344.5,169.5,349.5,165.5,355.5,162.0,361.0,160.5,370.0,163.0,367.0,166.5,362.0,171.5,358.5,175.0,354.5,178.5,350.5,181.5,346.5,184.0,342.5,186.0,338.5,185.5,334.5,188.5,334.5,191.0,330.5" stroke="#cbfbee" stroke-width="2" fill="none" />
<polyline points="191.0,344.0,190.5,345.0,191.0,349.5,192.0,353.5" stroke="#2a2352" stroke-width="2" fill="none" />
<polyline points="194.5,355.0,194.0,351.0,192.5,347.0" stroke="#6792df" stroke-width="2" fill="none" />
<polyline points="166.0,345.5,166.0,340.5,169.0,338.5,173.5,334.0,180.0,330.0,183.5,326.0,184.5,322.5,187.0,319.0,192.5,317.0,194.0,312.5,196.5,308.0,198.5,304.0,200.5,299.5,202.5,296.0,204.5,291.5,206.0,287.5,208.5,283.5,210.5,279.5,213.0,275.5,215.5,271.5,218.0,267.5,219.5,263.5,222.5,259.0,224.0,255.5,227.0,251.5,229.5,248.0,233.0,244.5,234.5,238.0,237.5,234.5,241.5,230.0,245.5,225.5,249.0,221.5,253.0,217.5,253.5,213.0,255.0,210.5,256.0,206.5,257.5,203.5,253.5,211.5,250.5,210.5,246.0,210.5,242.0,210.0,238.5,207.0,239.5,203.0,241.0,199.0,242.0,196.0,243.5,192.0,249.0,187.5,249.5,185.0,257.5,180.5,251.0,175.0,252.5,173.0,247.0,172.0,246.0,171.0,242.0,172.0" stroke="#487d3b" stroke-width="2" fill="none" />
<polyline points="250.0,172.5,254.0,176.5,257.5,178.0" stroke="#5490e1" stroke-width="2" fill="none" />
<polyline points="264.0,175.5,268.0,177.5,272.5,177.0,277.0,179.0,281.0,176.0,284.0,176.5,292.0,177.5,294.5,181.0,290.5,185.0,286.5,187.5,282.0,191.5,276.5,195.5,273.0,200.0,274.0,195.0,271.0,198.0,271.5,201.0,275.5,197.0,279.5,194.5,284.0,191.0,287.5,187.5,292.5,184.0,296.5,180.5,300.5,177.0,304.5,174.0,308.5,170.5,312.5,167.5,316.5,164.5,320.0,162.5,324.0,160.5,328.0,157.5,332.0,155.0,336.0,153.0" stroke="#835b41" stroke-width="2" fill="none" />
<polyline points="312.5,173.0,306.0,176.5,300.5,180.5,295.0,184.5,290.0,188.5,285.0,192.5,280.0,196.5,275.0,200.5,270.0,204.0,267.0,208.5,269.5,208.5,267.0,212.5,265.5,217.0,265.5,221.5,265.0,223.5,264.0,227.5,265.0,231.5,264.0,235.0,264.0,239.0" stroke="#5f47d" stroke-width="2" fill="none" />
<polyline points="296.0,224.5,292.5,227.5,289.0,231.0,285.5,234.0,288.5,231.5,294.0,227.5,299.0,223.5" stroke="#3c664b" stroke-width="2" fill="none" />
<polyline points="334.0,251.5,327.5,256.0,325.0,260.5,321.0,264.5,319.0,268.5,318.5,272.5,318.0,274.0,322.5,276.5" stroke="#71599a" stroke-width="2" fill="none" />
<polyline points="324.0,275.0,320.0,273.5" stroke="#949884" stroke-width="2" fill="none" />
<polyline points="317.5,271.0,321.5,264.0,325.5,260.5,329.5,259.5,333.0,258.5,337.0,257.5,341.0,256.5,345.0,256.0,347.5,252.0,351.5,251.0" stroke="#ae6d64" stroke-width="2" fill="none" />
<polyline points="344.5,255.0,340.5,255.0,336.5,256.0,332.5,256.5" stroke="#f575ca" stroke-width="2" fill="none" />
<polyline points="328.5,258.5,332.0,255.0,336.0,252.5,340.0,251.5,343.5,251.0,348.0,248.0,351.5,245.0" stroke="#e253fc" stroke-width="2" fill="none" />
<polyline points="323.5,270.0,325.5,274.5" stroke="#a7ca43" stroke-width="2" fill="none" />
<polyline points="275.5,356.0,271.5,354.5,267.5,353.5" stroke="#eafd90" stroke-width="2" fill="none" />
<polyline points="266.5,351.5,270.5,351.0,275.0,352.0,279.0,352.5,284.0,352.0" stroke="#57cf96" stroke-width="2" fill="none" />
<polyline points="267.0,387.5,263.0,388.0,259.0,388.5,255.0,388.5,251.0,388.0,247.5,388.5,243.5,392.5,245.5,389.0" stroke="#2cecc9" stroke-width="2" fill="none" />
<polyline points="252.0,382.0,253.0,384.5,257.5,386.0,261.5,386.0,265.5,386.5" stroke="#144a6" stroke-width="2" fill="none" />
<polyline points="193.0,392.0,193.5,395.5,194.5,399.0,194.0,403.0" stroke="#4ea686" stroke-width="2" fill="none" />
<polyline points="191.5,391.5,192.0,395.5,191.5,399.5,190.5,403.5,190.5,407.5,190.5,411.5,190.0,415.5,190.5,419.5,190.5,423.5,190.0,428.0,189.5,432.0,189.0,436.0,189.0,440.0,186.5,441.0,183.0,445.0,186.0,445.5,189.5,446.0,193.5,447.0,197.5,445.5" stroke="#6d5ba" stroke-width="2" fill="none" />
<polyline points="197.5,433.5,197.0,429.5" stroke="#5ab545" stroke-width="2" fill="none" />
<polyline points="192.5,433.0,192.5,429.5,192.0,425.5" stroke="#f9155b" stroke-width="2" fill="none" />
<polyline points="196.5,423.0,197.0,427.0,195.0,429.0,194.5,433.5" stroke="#3a3357" stroke-width="2" fill="none" />
<polyline points="174.0,439.0,169.0,439.5,169.5,438.5,170.5,435.0,169.0,431.0,167.5,426.5" stroke="#6199a1" stroke-width="2" fill="none" />
<polyline points="156.0,399.5,152.0,395.5,149.5,396.5" stroke="#62cf63" stroke-width="2" fill="none" />
<polyline points="150.0,401.5,145.5,398.0,142.0,396.5,137.5,402.0,131.0,400.5,127.0,400.0,123.5,398.0,120.0,394.0" stroke="#211e68" stroke-width="2" fill="none" />
<polyline points="123.0,391.5,127.0,389.5,134.0,392.0" stroke="#c96e5b" stroke-width="2" fill="none" />
<polyline points="136.5,393.5,132.5,397.5,128.0,395.5,124.0,392.0" stroke="#4e3c97" stroke-width="2" fill="none" />
<polyline points="119.5,388.5,123.5,395.0,125.0,396.5,127.5,400.5" stroke="#dcca81" stroke-width="2" fill="none" />
<polyline points="127.5,403.0,123.0,399.0,120.0,395.0,120.0,391.0,121.5,388.0,121.0,384.0,121.0,380.5,122.5,376.0,121.0,375.5,121.5,371.5,120.5,372.0" stroke="#d4c91f" stroke-width="2" fill="none" />
<polyline points="119.0,368.0,123.0,373.0,123.5,378.0,127.5,380.5" stroke="#94c4ee" stroke-width="2" fill="none" />
<polyline points="128.0,377.5,124.5,371.0,120.0,365.0" stroke="#e73eb0" stroke-width="2" fill="none" />
<polyline points="122.0,364.5,124.0,368.5,126.0,372.5,128.0,377.0,130.0,382.5" stroke="#21761" stroke-width="2" fill="none" />
<polyline points="125.0,384.5,125.5,389.0,127.0,390.0,123.5,393.5,128.0,397.5" stroke="#19a39" stroke-width="2" fill="none" />
<polyline points="130.5,406.5,134.5,402.0,135.0,394.5,138.5,393.0,143.0,389.5,143.5,386.5,143.5,385.5,145.5,381.0,147.5,375.5,148.5,372.0,148.5,368.0,146.5,364.0,145.5,359.5,146.0,356.0,144.5,353.5,143.0,349.5,139.5,345.0,138.0,340.0,137.0,336.0,136.0,332.0,136.0,327.5,135.5,323.5,135.0,319.5,133.5,315.5,132.0,312.0,130.5,308.5,129.5,304.5,127.5,297.5,131.5,293.0,135.0,290.5,137.0,286.5,130.5,282.5,126.5,276.0" stroke="#c59ab" stroke-width="2" fill="none" />
<polyline points="126.0,275.5,126.0,279.5,128.0,283.5,129.0,287.5,126.0,289.5,125.0,293.5,124.0,297.5,122.0,301.5,125.0,305.0,123.5,308.5,122.5,312.5,122.5,316.5,122.0,321.0,123.0,325.0,123.0,329.0,123.0,333.0,123.5,338.5" stroke="#a2f818" stroke-width="2" fill="none" />
<polyline points="117.5,340.0,118.0,342.0,118.0,345.0" stroke="#593f13" stroke-width="2" fill="none" />
<polyline points="116.0,343.0,120.5,349.5,120.0,357.0,120.5,361.0,118.5,365.5,118.0,369.5,117.5,374.0,117.5,377.5,117.5,381.5,117.5,386.0,118.0,390.0,117.5,393.5,119.0,398.5,123.0,403.5,127.5,405.5" stroke="#932f52" stroke-width="2" fill="none" />
<polyline points="125.0,406.5,121.5,410.0" stroke="#76d3f9" stroke-width="2" fill="none" />
<polyline points="115.5,408.5,115.0,405.5,116.0,401.5" stroke="#2acb92" stroke-width="2" fill="none" />
<polyline points="115.0,398.0,112.5,402.5,110.5,406.0,111.5,405.0" stroke="#b14fe5" stroke-width="2" fill="none" />
<polyline points="103.5,406.0,99.5,407.0,98.0,407.5,97.0,404.0,95.5,401.5,93.5,400.0,92.0,396.0,91.5,391.0,91.0,387.5,92.0,383.5,87.0,387.5" stroke="#e4a5e8" stroke-width="2" fill="none" />
<polyline points="82.5,387.0,80.0,391.0,79.0,394.5,77.0,399.0,74.0,403.5,73.0,407.5,72.5,412.0,72.0,415.5,70.0,415.5,69.5,418.0,70.0,422.0,68.0,425.5,70.0,425.5,70.0,429.5,71.5,430.5,71.0,434.0,69.0,438.0,70.0,442.0,70.5,446.0,70.5,450.0,71.0,454.0,70.0,458.0,70.0,462.0,68.5,466.0,66.5,470.5,65.0,475.0,63.5,479.0,63.0,483.0,63.0,486.5,63.0,490.5,63.0,494.0,63.0,498.0,60.5,502.5,60.5,506.5,61.0,510.5,63.0,510.5,66.5,507.0" stroke="#bb5e94" stroke-width="2" fill="none" />
<polyline points="63.5,503.0,66.5,508.5,66.0,512.5" stroke="#94da9" stroke-width="2" fill="none" />
<polyline points="99.5,502.5,103.5,507.0" stroke="#1246e" stroke-width="2" fill="none" />
<polyline points="108.0,510.0,109.0,506.5,109.5,502.0,110.0,498.0,111.5,494.0,112.0,490.0,112.5,488.0" stroke="#334ec3" stroke-width="2" fill="none" />
<polyline points="115.0,488.0,115.0,492.0,114.5,496.5,113.0,500.5,112.5,504.5,111.5,508.5,110.0,512.5" stroke="#cce86d" stroke-width="2" fill="none" />
<polyline points="124.5,510.5,125.0,506.5,125.0,502.5,125.0,499.0,124.5,494.0,124.0,492.0" stroke="#7f5863" stroke-width="2" fill="none" />
<polyline points="124.5,497.0,128.5,505.0,132.0,510.5" stroke="#d9f6a1" stroke-width="2" fill="none" />
<polyline points="133.0,508.5,129.0,500.0" stroke="#f6a5ca" stroke-width="2" fill="none" />
<polyline points="124.5,498.0,126.5,502.0,125.5,506.0,125.5,510.0" stroke="#e9dba5" stroke-width="2" fill="none" />
<polyline points="127.0,504.5,129.5,508.5,133.0,512.0" stroke="#6092c9" stroke-width="2" fill="none" />
<polyline points="106.0,512.0,104.5,508.0,102.5,503.5,100.5,500.0,100.0,496.5,100.5,492.5" stroke="#ed955c" stroke-width="2" fill="none" />
<polyline points="97.5,491.0,98.5,495.0,99.0,498.5,101.0,502.5,103.0,506.5,105.0,510.5" stroke="#81f8e7" stroke-width="2" fill="none" />
<polyline points="121.0,512.5,120.5,508.5,120.5,504.5,121.0,500.5,119.5,496.5,120.0,492.5,120.5,489.0,120.5,485.0" stroke="#f585" stroke-width="2" fill="none" />
<polyline points="122.0,483.0,123.0,487.0,125.5,491.0,127.5,495.0,129.0,499.0,130.5,502.5,132.0,506.5,135.5,510.5" stroke="#b56ed" stroke-width="2" fill="none" />
<polyline points="96.0,469.0,92.0,473.0,93.0,472.0,96.5,468.0" stroke="#b663fd" stroke-width="2" fill="none" />
<polyline points="95.5,454.5,91.0,457.0,87.0,459.0,88.5,458.0,94.5,454.0" stroke="#ba66a7" stroke-width="2" fill="none" />
<polyline points="94.0,452.0,90.5,455.5,86.5,457.0,84.5,458.5,90.5,455.0,95.0,451.0" stroke="#3dcd73" stroke-width="2" fill="none" />
<polyline points="74.0,456.0,74.0,460.5,74.0,464.5,76.0,468.0,75.0,472.0" stroke="#c84029" stroke-width="2" fill="none" />
<polyline points="69.5,475.5,72.0,479.5,71.5,484.0,71.0,488.0,70.5,491.5,69.5,495.5" stroke="#834e61" stroke-width="2" fill="none" />
<polyline points="66.5,494.5,66.0,491.0,65.5,487.0,67.0,483.5,68.0,479.0,69.0,475.0,69.0,471.5,66.5,473.0" stroke="#d5c0e4" stroke-width="2" fill="none" />
<polyline points="71.0,464.5,71.0,460.5,71.0,456.0,71.5,454.0" stroke="#c28c3e" stroke-width="2" fill="none" />
<polyline points="67.5,453.5,67.5,449.0,67.5,447.5" stroke="#8dfc5" stroke-width="2" fill="none" />
<polyline points="65.5,450.5,65.0,454.5,66.0,458.5,67.5,462.5,70.0,467.5,70.5,470.0,70.5,474.5,69.5,478.5,69.5,482.5" stroke="#ab64c" stroke-width="2" fill="none" />
<polyline points="31.0,492.5,29.0,498.0,29.5,502.0,32.5,506.0,32.5,510.5" stroke="#86d423" stroke-width="2" fill="none" />
<polyline points="17.5,509.0,18.0,504.5,20.0,500.0,19.0,501.0" stroke="#3be642" stroke-width="2" fill="none" />
<polyline points="16.5,506.5,16.0,502.0,16.0,498.0,15.0,494.0" stroke="#518f86" stroke-width="2" fill="none" />
<polyline points="10.5,427.5,10.5,423.5,6.0,421.5" stroke="#86b413" stroke-width="2" fill="none" />
<polyline points="5.0,419.5,7.5,423.5,9.5,427.5,10.5,431.5,11.0,435.5,11.5,439.0,11.0,443.0,13.5,445.0,13.0,448.5,13.0,452.5,13.5,456.5,15.5,459.0,13.5,463.0,14.5,467.0,15.0,471.5,13.5,476.0,12.5,478.5" stroke="#b37baf" stroke-width="2" fill="none" />
<polyline points="36.0,460.5,35.5,456.5,35.0,452.5,34.5,449.0,34.0,445.0,33.0,440.0,32.5,436.0,32.5,432.0,32.5,427.5,32.5,423.0" stroke="#9341bc" stroke-width="2" fill="none" />
<polyline points="25.0,418.0,23.0,411.5" stroke="#16e8a" stroke-width="2" fill="none" />
<polyline points="22.0,411.5,25.0,415.5,26.0,420.0,26.5,424.0,26.5,428.0,26.5,432.0,26.5,436.0,27.0,439.5,28.0,443.5,28.0,447.5,28.0,451.5,29.0,455.5,29.0,459.0,28.5,463.5,30.0,467.5,30.5,471.5,29.5,475.5,31.5,479.5,31.5,483.5,31.5,487.5,30.5,491.5,32.0,495.5,32.5,499.5,32.0,503.0" stroke="#c64487" stroke-width="2" fill="none" />
<polyline points="68.5,436.0,66.0,436.5,66.5,432.0,66.0,432.5" stroke="#8a119d" stroke-width="2" fill="none" />
<polyline points="68.0,424.0,66.5,423.0,66.0,419.5,65.5,415.5,65.5,412.0,66.0,407.5,69.5,403.5,71.0,399.5,72.5,395.5,70.5,394.5,70.5,397.0" stroke="#fb8c66" stroke-width="2" fill="none" />
<polyline points="72.0,405.0,75.5,401.0,79.5,394.0" stroke="#90df" stroke-width="2" fill="none" />
<polyline points="80.5,386.5,78.5,395.0,75.0,401.0,70.5,403.5,66.5,408.0" stroke="#a1d87d" stroke-width="2" fill="none" />
<polyline points="68.5,413.0,72.0,402.5,71.0,406.5,69.5,410.5,68.5,414.5,67.0,418.5" stroke="#89c742" stroke-width="2" fill="none" />
<polyline points="70.0,414.5,73.0,418.0,73.0,422.5,71.5,424.0" stroke="#95d842" stroke-width="2" fill="none" />
<polyline points="90.5,424.0,88.5,426.5,91.5,422.0,93.0,418.0" stroke="#d687b5" stroke-width="2" fill="none" />
<polyline points="92.0,417.0,88.0,421.0,86.0,425.5,87.0,423.5" stroke="#8c3895" stroke-width="2" fill="none" />
<polyline points="90.0,405.0,94.0,404.5" stroke="#8e1333" stroke-width="2" fill="none" />
<polyline points="97.0,401.5,93.0,399.5" stroke="#1f2842" stroke-width="2" fill="none" />
<polyline points="93.0,403.5,88.5,397.0" stroke="#251974" stroke-width="2" fill="none" />
<polyline points="81.5,385.0,81.0,389.5,79.5,395.0,78.0,399.0,75.5,403.5,73.5,408.0,74.0,411.5" stroke="#ef7874" stroke-width="2" fill="none" />
<polyline points="80.0,382.0,76.0,389.0,72.0,393.0,68.0,396.0,64.5,399.0,60.5,401.0,63.5,397.0,67.5,393.0,72.0,388.5,76.5,384.0,79.0,380.5,79.0,380.5,74.5,386.5,70.0,390.0,66.0,394.0,62.0,398.0,58.0,403.0,64.5,399.5,70.0,395.5,74.0,392.0,77.0,388.0,79.5,384.0,82.0,380.5,82.0,376.0,83.0,370.5,85.5,366.5,87.0,362.0,88.5,357.5,86.5,356.5,90.5,355.5,93.5,351.5,95.0,348.0,97.5,348.0,93.0,343.5,90.5,349.0,91.5,345.0,93.5,341.0,94.5,337.0,94.0,332.5,93.5,328.5,94.0,325.0,94.5,321.0,95.0,316.5,95.0,312.5,99.5,309.0,102.5,305.0,105.5,303.5,103.0,304.0,99.5,309.0,95.5,313.0" stroke="#e281fe" stroke-width="2" fill="none" />
<polyline points="89.5,308.0,83.5,311.5,87.5,309.0,91.5,307.5,96.5,305.5,100.5,303.5,105.0,300.0" stroke="#d1ccbc" stroke-width="2" fill="none" />
<polyline points="101.0,302.5,97.0,303.0,93.0,306.0,100.0,303.5,101.5,299.5,106.5,295.5" stroke="#485873" stroke-width="2" fill="none" />
<polyline points="108.0,295.5,104.0,296.5,100.5,297.5,95.0,295.0,91.0,296.0,87.0,296.0,83.0,298.5,89.5,295.5" stroke="#d1cebd" stroke-width="2" fill="none" />
<polyline points="87.0,293.5,80.0,297.5,83.0,295.0,87.0,294.0,91.0,293.0,95.5,293.0,99.5,291.5,103.5,291.5,107.5,290.0,111.5,287.5" stroke="#c326a2" stroke-width="2" fill="none" />
<polyline points="110.5,292.0,106.0,293.0,102.0,294.0,98.0,296.0,103.0,293.5" stroke="#345528" stroke-width="2" fill="none" />
<polyline points="103.5,288.5,106.0,286.0" stroke="#c35efe" stroke-width="2" fill="none" />
<polyline points="116.5,284.0,116.0,285.5,108.5,288.0,112.5,283.5,110.0,278.0,113.0,276.0,111.0,272.0,114.5,270.0,110.5,270.0" stroke="#5af572" stroke-width="2" fill="none" />
<polyline points="111.5,272.5,113.0,273.5,114.5,277.5,116.0,283.5,112.5,287.5,108.0,292.0,107.5,296.5,104.0,301.0,99.5,305.0,92.0,308.5,92.5,313.0,92.0,317.0,90.0,320.5,88.5,324.5,88.0,329.5,88.0,333.5,88.0,337.0,84.0,340.5,81.0,344.5,77.5,348.5,74.5,352.5,72.0,356.5,68.5,360.5,64.5,361.5,68.5,356.5,72.5,352.0,76.5,347.0,80.0,342.5,84.0,337.0,88.0,331.5,91.5,329.0" stroke="#14792f" stroke-width="2" fill="none" />
<polyline points="90.0,324.0,94.0,324.5,91.0,328.5,93.5,327.0,91.0,331.0,86.0,336.0,82.5,340.0,78.5,343.5,75.5,347.0,73.0,351.0,69.5,354.5,65.5,358.5,63.0,360.5,63.5,364.0,67.0,362.0,71.0,357.5,75.0,353.5,78.5,347.5,82.5,342.5,86.5,338.0,89.5,339.5,89.0,343.0,88.5,346.5,87.5,350.5,83.5,354.5,81.0,358.5,78.5,362.5,76.5,366.5,76.5,370.5,82.5,374.0,83.0,369.0,87.0,361.0,91.0,353.5,95.0,347.5" stroke="#a37c3d" stroke-width="2" fill="none" />
<polyline points="100.0,342.5,104.0,338.5,108.0,333.5,112.5,327.0,117.0,319.0" stroke="#19d6b5" stroke-width="2" fill="none" />
<polyline points="117.5,323.5,118.0,327.5,119.0,332.0,120.0,336.0,121.5,340.0,122.5,341.0" stroke="#439fa2" stroke-width="2" fill="none" />
<polyline points="114.5,343.0,115.0,347.0,116.5,350.5,116.5,355.0,116.5,359.0,116.0,363.5,115.0,367.5,113.5,371.5,114.5,375.5,114.5,379.5,113.5,383.5,114.5,387.0,115.0,391.5,115.5,396.0,118.5,400.0,122.0,403.5,121.0,407.5,115.5,411.0,111.0,412.5,114.0,411.5,117.5,410.0,122.0,405.5" stroke="#bdc8fc" stroke-width="2" fill="none" />
<polyline points="137.5,409.0,141.5,413.0,145.5,418.0,149.5,424.0" stroke="#4c96a4" stroke-width="2" fill="none" />
<polyline points="141.0,449.5,143.5,454.0,146.0,458.0,147.0,462.0,147.0,465.5,147.5,469.0,151.5,473.5,154.0,477.0,156.5,477.5,157.0,483.5,155.0,487.0,158.0,491.0,161.5,494.5,162.5,498.5,164.0,502.5,164.0,507.0,165.5,510.5" stroke="#f2cbbf" stroke-width="2" fill="none" />
<polyline points="179.5,424.5,179.0,420.5,178.5,416.5,177.0,412.5,175.5,408.5,173.0,404.5,169.5,401.0,166.0,399.5,164.5,395.5" stroke="#3cb4ea" stroke-width="2" fill="none" />
<polyline points="154.0,384.0,149.5,381.0,151.0,378.0" stroke="#d653fd" stroke-width="2" fill="none" />
<polyline points="141.5,383.5,140.0,378.5,136.0,373.5" stroke="#bdd3f5" stroke-width="2" fill="none" />
<polyline points="133.0,373.0,139.5,371.5,141.0,375.0,142.0,379.0,144.5,379.5,145.0,384.0" stroke="#c5a349" stroke-width="2" fill="none" />
<polyline points="144.5,395.0,147.5,399.0,150.5,406.0" stroke="#21353c" stroke-width="2" fill="none" />
<polyline points="143.0,399.5,143.5,395.5" stroke="#7fe26" stroke-width="2" fill="none" />
<polyline points="130.0,375.0,126.0,367.0,122.0,359.0" stroke="#3fe9c" stroke-width="2" fill="none" />
<polyline points="122.0,362.0,121.5,366.0,123.0,370.0,125.0,374.0,126.5,379.0,130.0,383.0,131.0,386.5,133.5,390.5,133.5,394.0,135.0,397.5" stroke="#15e27b" stroke-width="2" fill="none" />
<polyline points="107.0,392.0,105.5,396.0,105.5,400.0,106.5,404.5" stroke="#b737f6" stroke-width="2" fill="none" />
<polyline points="101.5,414.5,99.5,413.5,106.5,409.0,109.0,405.0,109.0,401.0,107.0,396.5,106.0,392.0" stroke="#d3a675" stroke-width="2" fill="none" />
<polyline points="105.5,378.5,106.0,374.5,106.5,370.5,106.5,367.0,107.5,363.5,108.5,360.0,108.0,356.5,108.5,352.5,106.0,345.5,105.0,341.5,106.5,342.0,106.5,343.0" stroke="#6672db" stroke-width="2" fill="none" />
<polyline points="111.0,353.5,111.5,357.5,112.5,361.5,111.0,362.0,111.0,361.5,113.0,367.5" stroke="#8d77ea" stroke-width="2" fill="none" />
<polyline points="112.5,367.5,109.5,363.5,109.5,359.5" stroke="#eacb" stroke-width="2" fill="none" />
<polyline points="107.0,354.5,107.0,358.5,105.0,362.5,104.0,366.0,103.0,370.0,102.0,373.5,102.5,378.0,102.5,382.0" stroke="#b83932" stroke-width="2" fill="none" />
<polyline points="114.5,400.0,108.5,406.0,104.5,410.0,100.5,410.0,97.0,409.0,93.0,407.0,92.0,406.0,94.5,403.0,91.5,399.5,89.5,395.5,89.5,391.5,88.0,387.0,89.0,383.5,90.5,380.0,93.5,376.0,94.0,372.0,95.0,368.0,96.5,364.0,97.0,359.5,97.0,355.5" stroke="#ba91" stroke-width="2" fill="none" />
<polyline points="93.0,356.0,96.5,350.5" stroke="#56f5df" stroke-width="2" fill="none" />
<polyline points="85.5,353.5,81.5,360.0,77.5,366.5" stroke="#78f2d1" stroke-width="2" fill="none" />
<polyline points="74.0,364.5,78.0,358.0,82.5,351.0,85.5,349.0,81.5,353.0,79.5,357.0,78.0,361.5,75.0,366.0,75.5,370.5,75.5,375.0" stroke="#7e2f33" stroke-width="2" fill="none" />
<polyline points="114.5,361.5,113.0,357.5,112.0,354.0" stroke="#15f9d5" stroke-width="2" fill="none" />
<polyline points="122.0,356.0,126.0,359.0,129.5,360.0,133.5,363.0" stroke="#7ad04e" stroke-width="2" fill="none" />
<polyline points="136.0,362.5,132.0,358.0" stroke="#e7a111" stroke-width="2" fill="none" />
<polyline points="126.0,359.5,132.5,363.5,134.0,367.0" stroke="#9c2e48" stroke-width="2" fill="none" />
<polyline points="143.5,363.0,147.0,367.0" stroke="#a8ad83" stroke-width="2" fill="none" />
<polyline points="142.5,347.0,138.0,345.0,137.5,340.5,136.0,337.0,134.5,333.0,133.5,329.5,132.5,326.0,131.0,322.5,130.0,319.0,130.0,314.5,129.5,310.5,126.5,302.0,129.5,299.5" stroke="#8fcf77" stroke-width="2" fill="none" />
<polyline points="126.5,300.5,130.5,297.5,134.5,295.5,138.5,291.5" stroke="#88da41" stroke-width="2" fill="none" />
<polyline points="137.5,287.0,133.5,291.5,130.0,293.5,126.0,297.0" stroke="#69a18c" stroke-width="2" fill="none" />
<polyline points="118.0,297.0,114.0,301.0,110.0,305.0,105.5,309.0,101.5,314.5,97.0,323.0" stroke="#ce6ce" stroke-width="2" fill="none" />
<polyline points="106.0,321.5,110.0,317.5,114.0,315.5,118.0,308.0,118.0,309.0,115.5,313.0,111.5,317.0,107.5,321.0,105.5,317.5,109.5,313.5,110.5,311.5,109.0,314.5,105.0,319.0,104.0,323.0,107.5,318.0,111.5,314.5,115.5,309.5" stroke="#b4de43" stroke-width="2" fill="none" />
<polyline points="119.5,309.0,118.0,313.0,116.5,316.5,114.5,320.5,112.0,324.5,109.0,328.5,106.5,333.0,102.0,337.0,98.0,341.0" stroke="#aa9d59" stroke-width="2" fill="none" />
<polyline points="118.0,329.5,117.0,328.5,117.5,324.5" stroke="#f36bc0" stroke-width="2" fill="none" />
<polyline points="120.0,309.5,118.5,313.5,116.5,317.5,114.0,321.5,112.0,325.5,111.0,329.5,106.5,334.0,104.0,338.5,100.0,342.5,99.5,347.0,100.0,351.5,96.0,353.0,92.5,357.0,94.0,360.0,93.0,363.5,92.5,366.5,91.5,370.5,92.5,378.0,92.5,381.5,94.0,385.5" stroke="#e8bfcc" stroke-width="2" fill="none" />
<polyline points="123.5,356.0,126.5,360.0,126.5,364.0,131.5,366.0,131.5,369.5,135.5,369.5,139.5,370.0,146.5,374.0" stroke="#8789c" stroke-width="2" fill="none" />
<polyline points="166.0,359.5,163.5,363.0,167.0,358.5" stroke="#1ccb56" stroke-width="2" fill="none" />
<polyline points="159.0,346.0,158.0,350.0,155.5,353.5,159.0,357.0,158.0,361.0,157.5,365.0,156.5,369.0,156.5,373.0,158.0,376.5,157.0,380.5,154.0,382.5,154.5,388.5,154.0,392.5,153.0,396.5,157.5,400.5,163.0,404.5,166.5,409.0,170.0,410.0" stroke="#4eae45" stroke-width="2" fill="none" />
<polyline points="183.0,313.5,181.5,311.5,184.0,309.0,181.5,305.0,179.0,301.0,176.5,300.5" stroke="#7f849f" stroke-width="2" fill="none" />
<polyline points="176.5,300.0,177.0,304.0,179.5,306.0" stroke="#2e9e8f" stroke-width="2" fill="none" />
<polyline points="180.5,307.5,176.0,304.0" stroke="#a0149e" stroke-width="2" fill="none" />
<polyline points="179.5,301.0,183.5,306.5" stroke="#551e4d" stroke-width="2" fill="none" />
<polyline points="172.5,311.0,171.0,315.0,167.5,316.5,171.0,313.0,173.5,314.0" stroke="#984" stroke-width="2" fill="none" />
<polyline points="164.0,300.0,163.5,296.0,169.5,291.0,172.5,287.0,171.5,283.0,169.0,287.5,165.0,290.0,163.0,289.0,166.0,285.0,170.5,280.5,175.0,276.0,176.0,278.5,174.5,277.5,170.5,281.5,168.5,282.0,165.5,284.0,163.0,286.5,165.5,285.0,164.0,281.0,165.0,277.5,163.0,276.5,164.0,272.0,164.0,268.0,168.0,264.5,169.5,260.5,169.5,257.0,172.5,253.0,175.5,249.0,176.5,245.0,176.5,240.5,175.0,236.5,178.5,232.5,174.0,236.0" stroke="#20be7e" stroke-width="2" fill="none" />
<polyline points="170.0,239.0,168.5,243.5,168.0,247.5,166.0,251.5,165.0,249.0" stroke="#3649d2" stroke-width="2" fill="none" />
<polyline points="166.0,256.5,170.0,253.0,173.5,246.5" stroke="#ebd1e0" stroke-width="2" fill="none" />
<polyline points="173.0,252.0,174.0,256.0,174.0,260.0,174.0,264.0" stroke="#8edd0" stroke-width="2" fill="none" />
<polyline points="178.5,263.0,174.5,256.0" stroke="#bbc46d" stroke-width="2" fill="none" />
<polyline points="177.0,257.0,177.0,261.0" stroke="#f1c1be" stroke-width="2" fill="none" />
<polyline points="177.5,259.0,180.5,263.0" stroke="#112798" stroke-width="2" fill="none" />
<polyline points="182.0,264.5,178.0,257.5" stroke="#13429f" stroke-width="2" fill="none" />
<polyline points="184.5,254.0,186.0,257.0,186.0,261.0,186.5,264.5,187.5,269.0" stroke="#251a5b" stroke-width="2" fill="none" />
<polyline points="197.5,258.0,201.5,262.0,205.0,264.5" stroke="#44f923" stroke-width="2" fill="none" />
<polyline points="214.5,257.5,210.5,255.5,206.0,251.0" stroke="#e2a7e5" stroke-width="2" fill="none" />
<polyline points="205.5,251.0,208.0,252.0" stroke="#6d98" stroke-width="2" fill="none" />
<polyline points="204.0,266.5,199.5,266.0,195.5,261.0,195.0,254.5,191.0,250.5" stroke="#61f8b" stroke-width="2" fill="none" />
<polyline points="190.5,252.0,195.0,252.0,196.5,256.0,198.0,260.0,203.5,264.0" stroke="#b8c395" stroke-width="2" fill="none" />
<polyline points="187.0,272.5,186.0,270.5,185.0,266.5,184.5,262.5,184.5,258.5,183.5,255.0,185.5,251.0,186.5,245.5,191.0,242.0,195.5,238.5,197.5,234.5,194.0,239.5,190.5,243.0,186.5,244.0" stroke="#68afdd" stroke-width="2" fill="none" />
<polyline points="191.5,239.5,188.5,235.0,187.5,231.0,188.0,227.0,189.0,223.0,191.5,218.5,191.0,219.0,187.0,228.0" stroke="#3d271d" stroke-width="2" fill="none" />
<polyline points="187.5,224.5,191.0,217.5,190.0,220.0,187.0,224.0,186.0,228.0,186.0,232.0,187.0,236.0" stroke="#34b5da" stroke-width="2" fill="none" />
<polyline points="185.5,233.5,189.5,240.0" stroke="#17da9a" stroke-width="2" fill="none" />
<polyline points="179.0,233.0,177.5,237.0,177.0,240.5,178.0,242.5,177.0,247.0,177.0,251.0,177.5,255.0,179.0,258.5,181.0,262.5" stroke="#a476b0" stroke-width="2" fill="none" />
<polyline points="184.0,252.0,188.0,249.5,192.5,251.0,193.5,255.0,194.5,259.0,198.0,263.0,204.5,265.5" stroke="#7b2dfb" stroke-width="2" fill="none" />
<polyline points="224.0,272.5,220.5,276.5,224.0,273.0,228.0,272.0" stroke="#3bad2e" stroke-width="2" fill="none" />
<polyline points="220.0,306.0,218.5,310.0,217.5,314.0,217.5,317.5,217.0,321.5,217.0,325.5,216.5,329.0,217.0,333.5,217.0,337.5,217.5,341.5,218.0,345.0,218.0,349.0,218.0,353.0,218.0,356.5" stroke="#ee5f3d" stroke-width="2" fill="none" />
<polyline points="222.0,368.5,222.0,364.5,221.5,360.5,221.0,356.5,221.0,353.0,220.5,349.0,225.0,344.0,224.0,340.0,223.5,334.5,223.0,330.5,222.0,327.0,222.0,323.0,221.0,319.0,220.5,315.0,219.5,311.0,219.5,307.0" stroke="#95b58c" stroke-width="2" fill="none" />
<polyline points="178.5,292.0,176.0,294.0,172.0,295.0" stroke="#8b835" stroke-width="2" fill="none" />
<polyline points="172.5,296.0,173.5,300.0,175.5,307.0,177.5,311.0,175.0,317.0" stroke="#1df0a7" stroke-width="2" fill="none" />
<polyline points="159.0,298.5,155.0,295.5" stroke="#f71d4e" stroke-width="2" fill="none" />
<polyline points="156.0,294.5,160.5,299.0" stroke="#20b0ae" stroke-width="2" fill="none" />
<polyline points="161.5,290.5,157.5,288.0,153.0,282.0" stroke="#2e46a0" stroke-width="2" fill="none" />
<polyline points="153.0,279.5,154.5,283.5,158.0,288.0,164.0,292.5" stroke="#94766" stroke-width="2" fill="none" />
<polyline points="160.5,293.0,157.0,290.5,153.0,288.5" stroke="#7dbbf1" stroke-width="2" fill="none" />
<polyline points="151.0,292.0,154.5,294.5,158.5,295.5,162.5,296.0,167.0,294.0,171.0,290.5,171.5,288.0" stroke="#451de1" stroke-width="2" fill="none" />
<polyline points="171.5,292.0,170.5,296.0,169.5,300.0,169.5,304.0,166.5,308.5,166.0,312.5,165.5,314.5,163.0,318.0,169.5,321.5,168.5,325.5,166.0,329.5,162.5,333.5,159.0,337.0,158.5,343.0,153.5,347.0,151.0,351.0,152.0,353.0,149.5,355.5,147.0,358.0,145.5,353.0,147.5,350.5,152.0,352.5,156.5,353.0,158.5,345.0,162.5,347.0,166.5,344.5,170.0,342.5" stroke="#91398d" stroke-width="2" fill="none" />
<polyline points="157.0,297.5,153.0,293.5" stroke="#63921" stroke-width="2" fill="none" />
<polyline points="159.5,284.0,161.0,279.0,159.0,275.5,160.5,271.0,161.5,267.0,163.5,263.0,165.0,259.0,163.5,257.5" stroke="#f45f3e" stroke-width="2" fill="none" />
<polyline points="170.0,257.0,173.5,251.5,172.0,255.5,170.5,259.0,170.0,263.0,169.0,266.5,168.5,270.5,169.0,274.5,166.5,278.5,167.5,279.5" stroke="#f61b17" stroke-width="2" fill="none" />
<polyline points="167.0,276.0,167.5,276.0,167.0,271.5,168.0,268.0,165.5,263.5,167.5,260.0,166.5,265.5" stroke="#98301e" stroke-width="2" fill="none" />
<polyline points="156.0,269.0,158.0,273.0" stroke="#27df22" stroke-width="2" fill="none" />
<polyline points="154.0,277.5,158.0,279.0,159.0,280.5" stroke="#a09a12" stroke-width="2" fill="none" />
<polyline points="156.5,281.0,160.0,284.5" stroke="#3b877" stroke-width="2" fill="none" />
<polyline points="163.0,278.0,158.5,271.0,154.5,273.5,150.5,273.0" stroke="#5cfdab" stroke-width="2" fill="none" />
<polyline points="151.5,275.0,153.5,277.0,155.5,278.5,157.0,282.5,163.0,288.0,166.5,283.5,170.5,283.0,172.0,284.0,175.5,284.5,175.5,286.5" stroke="#fc16e" stroke-width="2" fill="none" />
<polyline points="173.0,292.5,179.0,293.0,176.5,297.0,174.0,301.0,173.0,305.0,171.0,309.0,167.0,308.5" stroke="#692e15" stroke-width="2" fill="none" />
<polyline points="174.5,317.5,170.5,319.0,169.5,324.0,167.5,322.5,164.0,327.5,160.5,333.0,155.5,337.5,151.5,339.5,147.5,336.0,144.5,343.0,142.5,339.5,141.0,335.0,139.5,331.5,138.5,327.5,138.5,323.5,136.5,319.5,135.5,315.5,134.0,311.5,132.5,307.5,131.0,303.5,129.5,299.5,132.5,299.0,134.0,295.0,138.0,291.0,139.5,287.0,140.5,282.5,137.5,281.0,134.5,281.0,131.0,281.0,137.5,282.5,140.5,278.5,145.5,274.5,142.0,272.0,145.5,268.0,151.0,263.5,155.0,256.5,158.5,252.0,160.5,248.0,163.0,243.5,159.5,243.0,155.5,248.0,152.0,249.5" stroke="#77f931" stroke-width="2" fill="none" />
<polyline points="149.0,249.5,145.5,250.5" stroke="#eed738" stroke-width="2" fill="none" />
<polyline points="144.0,250.5,148.0,248.0,147.0,247.5,144.0,251.5,147.0,253.5,148.5,258.0" stroke="#5b5cbe" stroke-width="2" fill="none" />
<polyline points="150.5,265.0,146.5,268.5,142.5,271.0" stroke="#62c846" stroke-width="2" fill="none" />
<polyline points="138.5,275.5,142.5,274.0,149.0,270.0,153.0,265.5" stroke="#e957fd" stroke-width="2" fill="none" />
<polyline points="150.5,269.5,154.0,266.0,158.0,261.5,161.5,256.5,157.0,258.5,154.5,262.5,151.5,267.0,147.5,271.0,147.5,275.0,147.0,279.0,148.0,283.0,149.0,287.0,152.5,290.5,157.0,292.0,161.0,297.5,161.5,301.0,158.0,304.0,157.0,309.0,159.5,313.0,158.0,315.5,159.0,318.5,157.5,320.5,161.0,319.0,163.0,318.0,164.0,313.5,168.0,311.0,172.0,306.5,175.0,300.0,178.5,295.0" stroke="#1926b8" stroke-width="2" fill="none" />
<polyline points="168.0,290.0,169.0,288.0,172.0,284.0,174.5,280.0" stroke="#14c594" stroke-width="2" fill="none" />
<polyline points="156.5,299.5,153.0,295.5,149.5,291.5,150.0,287.5,149.0,282.0,149.5,278.0,149.5,272.5,152.0,268.5,155.5,264.5,159.0,261.0,161.5,257.5,162.5,253.5,164.5,249.5,165.5,245.5,166.5,241.0,169.0,239.5,163.5,244.5,160.0,252.5,155.0,258.0,151.0,259.0,146.0,259.0,142.0,259.5,138.5,265.0,136.0,265.5,136.0,260.5,133.0,263.5,129.0,265.5,128.0,268.0,132.5,263.0,131.5,258.0,130.0,254.0,127.0,249.5,128.5,246.0,135.0,245.5,135.0,241.5,139.0,237.5,137.0,233.5,135.5,229.0,134.0,225.5,133.5,221.5,133.5,218.0,133.0,214.0,131.5,210.0,129.0,206.0,126.5,202.0,125.0,198.0,124.5,194.0,123.0,190.5,122.5,186.5,121.5,183.0,121.0,179.0,120.5,175.0,120.5,171.0,121.0,167.0,122.0,163.0,122.0,158.5,122.0,154.5,121.5,150.5,122.5,146.0,123.5,141.0,123.5,136.5,123.5,132.5,124.5,128.5,125.5,124.5,127.0,120.5,129.0,116.5,130.0,112.5,132.5,109.0,134.0,105.0,136.5,105.0,138.5,101.0,139.0,101.0,135.0,106.5" stroke="#d732f8" stroke-width="2" fill="none" />
<polyline points="128.5,121.5,132.5,111.5,136.0,103.5,136.0,108.5,135.0,112.5,134.5,117.0,133.0,121.0,132.5,125.5,133.0,129.5,131.5,133.5,130.0,137.5,128.0,141.0,129.0,145.0,130.5,145.0,128.5,149.0,129.5,151.5,130.0,154.0,127.0,158.0,130.5,156.0,129.0,149.0" stroke="#a32b78" stroke-width="2" fill="none" />
<polyline points="129.5,154.5,133.5,156.0,131.5,156.5,132.5,160.5,135.0,163.0,131.5,167.0,127.5,170.5,131.5,166.5,134.0,161.5" stroke="#57a4df" stroke-width="2" fill="none" />
<polyline points="142.0,166.0,139.0,169.5,139.0,172.0,136.0,176.0,132.5,180.0,134.0,173.5" stroke="#23ec8c" stroke-width="2" fill="none" />
<polyline points="136.0,173.0,132.0,176.5,135.0,176.5,139.0,173.5,140.5,168.5" stroke="#c6147" stroke-width="2" fill="none" />
<polyline points="141.5,169.0,141.5,172.5,138.0,177.5,132.5,178.5,136.0,174.5" stroke="#c7ed5" stroke-width="2" fill="none" />
<polyline points="140.5,176.5,136.5,181.0,135.0,182.5,139.0,179.0,141.5,175.0" stroke="#4a2afc" stroke-width="2" fill="none" />
<polyline points="142.0,179.5,139.0,185.0,135.0,188.5" stroke="#4a99cb" stroke-width="2" fill="none" />
<polyline points="134.0,187.0,138.5,182.0,142.5,177.5,145.0,174.5,141.0,178.5,136.5,182.0,134.5,186.0,138.0,190.0,138.5,193.0,144.0,195.5,146.5,199.5" stroke="#682c7" stroke-width="2" fill="none" />
<polyline points="147.0,193.5,143.0,189.5" stroke="#22f530" stroke-width="2" fill="none" />
<polyline points="144.5,187.5,147.5,191.5,147.0,193.5" stroke="#c16e29" stroke-width="2" fill="none" />
<polyline points="151.5,191.5,149.0,190.5,147.5,186.5,142.0,185.0" stroke="#2629b6" stroke-width="2" fill="none" />
<polyline points="144.5,187.5,148.5,192.5,152.0,193.5,157.5,186.5,162.0,181.5,166.5,177.5,170.5,173.0,174.5,169.0,178.5,165.0,182.5,161.5,186.5,158.0,190.5,154.5,194.5,150.5,198.0,148.0,202.0,145.0" stroke="#81e65c" stroke-width="2" fill="none" />
<polyline points="206.0,148.0,210.0,151.5,214.5,155.0,218.5,158.5,222.5,160.0" stroke="#7615bb" stroke-width="2" fill="none" />
<polyline points="227.0,163.0,224.0,157.0,228.5,153.0,224.5,156.5,221.0,155.5,217.0,152.0" stroke="#27c723" stroke-width="2" fill="none" />
<polyline points="217.5,152.5,221.5,156.5,228.0,162.5" stroke="#a1de8f" stroke-width="2" fill="none" />
<polyline points="221.0,173.0,216.0,177.0,212.5,181.5,209.5,185.5,206.0,189.5,205.0,193.0,205.5,197.0" stroke="#77ead4" stroke-width="2" fill="none" />
<polyline points="206.5,192.5,210.5,187.5,215.0,183.0,218.5,179.5,222.0,175.5,226.0,175.0,230.5,175.5" stroke="#ab93fb" stroke-width="2" fill="none" />
<polyline points="236.0,177.0,238.0,176.0,240.0,172.0,236.5,174.0,232.5,172.5,228.5,172.0,225.0,171.0,220.5,172.5,216.0,176.0,212.0,180.5,208.0,185.0,204.0,189.5" stroke="#e31c7" stroke-width="2" fill="none" />
<polyline points="217.5,186.0,221.5,181.5" stroke="#99d4d5" stroke-width="2" fill="none" />
<polyline points="224.5,179.5,220.5,183.5,217.5,187.0,215.5,191.0,211.5,195.0,208.5,199.0" stroke="#7ea2a" stroke-width="2" fill="none" />
<polyline points="204.5,209.0,208.5,205.0,212.0,202.5,214.5,199.0,218.5,195.5,222.5,193.0,226.5,191.0" stroke="#66d334" stroke-width="2" fill="none" />
<polyline points="227.5,192.0,220.5,196.0,214.5,202.0,209.5,206.0,207.5,210.0,207.5,210.5,211.5,204.5,216.0,202.5,220.0,197.5,223.5,195.0,227.5,192.5,231.5,191.5" stroke="#a95fdf" stroke-width="2" fill="none" />
<polyline points="226.5,185.5,223.0,185.5,220.0,189.0,219.5,193.0,211.5,196.5,215.5,194.0" stroke="#983f7c" stroke-width="2" fill="none" />
<polyline points="219.5,189.5,223.0,184.5,226.0,185.0" stroke="#221845" stroke-width="2" fill="none" />
<polyline points="222.5,176.0,216.5,179.5,213.5,183.0,209.5,187.0,206.5,191.0,206.0,194.5,207.0,196.0,211.0,194.0,215.5,191.0,220.0,191.5,224.0,188.0,228.0,187.5,232.0,186.0,232.5,182.0,236.5,181.5" stroke="#7ccf36" stroke-width="2" fill="none" />
<polyline points="235.0,181.5,231.0,186.0,231.0,187.5,224.0,192.5,218.0,196.5,211.5,203.0,207.0,207.5,203.5,213.0,204.0,217.0,205.5,217.5,206.5,223.0,209.5,227.0" stroke="#81ae52" stroke-width="2" fill="none" />
<polyline points="219.5,214.5,219.0,219.0,219.5,223.0,217.0,225.5,220.5,230.5,224.5,230.0,230.0,234.5" stroke="#bff785" stroke-width="2" fill="none" />
<polyline points="237.0,207.5,236.5,203.5,238.5,199.5,235.5,201.0" stroke="#92f4c" stroke-width="2" fill="none" />
<polyline points="237.0,200.5,236.5,205.0" stroke="#b3d2d2" stroke-width="2" fill="none" />
<polyline points="243.5,200.5,247.5,194.5,251.0,191.5,255.0,190.0,249.5,189.5,246.5,193.5,244.0,195.0,248.5,191.0,252.5,189.5,256.5,185.0,258.0,188.5,261.5,185.5,265.5,183.0,269.0,181.5" stroke="#73808a" stroke-width="2" fill="none" />
<polyline points="269.0,180.5,264.5,184.5,259.5,188.5,256.0,191.0,255.5,195.0,251.5,199.0,249.0,203.0,248.5,203.5,252.0,204.0,252.5,201.0,256.5,197.5,260.5,193.0,264.0,189.5,268.0,187.0,272.0,188.5" stroke="#cd40be" stroke-width="2" fill="none" />
<polyline points="267.0,190.5,263.0,191.5,259.0,194.5,256.5,201.0,259.5,196.5,263.0,192.5,266.5,188.5" stroke="#f0e49a" stroke-width="2" fill="none" />
<polyline points="265.0,188.5,260.5,192.5,257.5,196.5,253.5,200.5,252.5,205.0,252.0,209.0,254.0,214.5,254.0,217.5" stroke="#bbfcd6" stroke-width="2" fill="none" />
<polyline points="239.5,193.5,243.5,189.0" stroke="#9d207b" stroke-width="2" fill="none" />
<polyline points="265.5,187.0,260.0,191.0,256.0,195.0,253.0,199.0,249.0,202.0,250.0,198.0,254.5,193.0,259.0,189.5,263.5,186.5,267.5,184.0" stroke="#7f2937" stroke-width="2" fill="none" />
<polyline points="265.5,184.5,261.0,187.5,257.0,191.0,260.0,190.0,266.5,186.0" stroke="#469bc4" stroke-width="2" fill="none" />
<polyline points="266.5,179.0,261.0,183.0,255.5,187.0,251.5,190.5,246.5,194.5,243.5,199.0,242.5,200.0,243.0,194.0,246.0,192.5,250.0,187.5,250.5,185.0,254.5,183.0,258.0,181.0,262.0,180.5" stroke="#f53e39" stroke-width="2" fill="none" />
<polyline points="273.0,183.0,274.0,187.0,274.0,191.0,272.5,194.5" stroke="#b21d3b" stroke-width="2" fill="none" />
<polyline points="260.0,164.5,268.0,161.0,264.0,163.0,260.0,165.0,256.0,164.0,252.0,161.0" stroke="#39cb75" stroke-width="2" fill="none" />
<polyline points="252.5,161.0,257.0,165.0" stroke="#cc47da" stroke-width="2" fill="none" />
<polyline points="242.5,145.0,247.0,141.0,250.0,139.0,254.5,135.0,260.5,131.0,258.5,132.0,254.5,134.5,250.5,137.5,246.5,140.5,242.5,143.5,238.5,146.0,234.5,142.0" stroke="#bf8d89" stroke-width="2" fill="none" />
<polyline points="234.0,142.0,237.5,146.0" stroke="#5ed829" stroke-width="2" fill="none" />
<polyline points="222.5,147.0,218.5,143.5,214.5,140.0" stroke="#6cd140" stroke-width="2" fill="none" />
<polyline points="213.5,140.5,217.5,144.5" stroke="#da66e" stroke-width="2" fill="none" />
<polyline points="206.5,147.5,210.0,151.5,215.0,155.0,219.0,158.5,221.5,160.0" stroke="#be784d" stroke-width="2" fill="none" />
<polyline points="206.5,163.5,202.5,163.5" stroke="#5664a8" stroke-width="2" fill="none" />
<polyline points="203.5,163.0,204.5,167.0,197.5,169.5,192.0,173.5,188.5,178.0,184.0,181.5,180.0,185.5,176.0,189.5,173.0,193.0,168.5,197.0,165.5,201.0,165.0,201.5,168.5,196.5,172.0,193.0,176.5,188.5,180.0,185.0,184.0,181.0,187.5,177.5,191.0,174.0,195.5,170.0,199.5,167.0" stroke="#ad974a" stroke-width="2" fill="none" />
<polyline points="201.5,135.5,197.5,131.5" stroke="#7f3d78" stroke-width="2" fill="none" />
<polyline points="198.5,133.5,202.5,137.0,203.0,141.0,201.5,142.0,205.0,138.5,209.0,135.5,213.0,133.0,217.0,129.5,221.0,127.5" stroke="#69fb26" stroke-width="2" fill="none" />
<polyline points="223.0,127.0,217.5,131.0,211.5,134.5,206.5,138.0,208.0,138.5,212.5,135.0,216.5,132.5,220.5,129.5,225.0,127.5,229.5,125.0,234.0,122.0,237.5,120.0" stroke="#665032" stroke-width="2" fill="none" />
<polyline points="238.5,117.0,232.0,121.5,225.5,125.5,219.5,130.0,213.0,134.0,207.5,138.5,203.0,142.0,198.5,146.0,193.5,150.5,189.5,154.0,185.0,158.0,181.5,162.0,177.0,166.0,173.0,170.0,170.0,174.5,166.5,178.5,162.5,182.0,159.5,186.0,154.5,191.5,151.5,195.5,153.0,199.0,151.5,203.5,149.5,207.5,147.5,211.5,146.5,215.0,143.5,219.0,142.0,223.0,141.0,227.0,141.0,231.5,141.5,235.5,141.5,239.5,141.0,241.5,133.5,244.5,131.0,250.0,132.5,252.5,134.0,256.5,139.0,255.5,141.5,256.0" stroke="#183641" stroke-width="2" fill="none" />
<polyline points="137.0,255.0,133.0,255.0" stroke="#9d9d2a" stroke-width="2" fill="none" />
<polyline points="131.5,249.0,135.5,247.5,139.5,246.5,142.0,246.5" stroke="#dbc7b" stroke-width="2" fill="none" />
<polyline points="145.0,243.5,141.0,242.0,137.0,244.0" stroke="#5d5d1d" stroke-width="2" fill="none" />
<polyline points="141.0,239.0,137.0,232.0,132.5,221.5" stroke="#5779a6" stroke-width="2" fill="none" />
<polyline points="141.5,223.5,145.5,215.5" stroke="#63e63c" stroke-width="2" fill="none" />
<polyline points="148.0,213.0,149.0,211.5,150.5,207.5" stroke="#44ae4" stroke-width="2" fill="none" />
<polyline points="148.0,198.0,146.0,194.0,145.0,190.0,143.0,188.0,142.0,183.5,146.5,179.5,146.5,177.0,147.0,177.0,143.5,181.0" stroke="#14885a" stroke-width="2" fill="none" />
<polyline points="146.0,184.0,150.0,189.0" stroke="#35bf94" stroke-width="2" fill="none" />
<polyline points="142.0,193.0,146.0,197.5" stroke="#f35e3" stroke-width="2" fill="none" />
<polyline points="140.0,196.0,143.5,200.0,145.5,204.0,146.0,207.5,144.5,211.5,144.0,215.5,148.5,208.5,152.5,202.0" stroke="#1a3b" stroke-width="2" fill="none" />
<polyline points="139.5,193.5,138.5,197.0,136.0,200.5" stroke="#78f766" stroke-width="2" fill="none" />
<polyline points="135.0,190.5,140.0,189.0,144.0,186.0,144.5,181.5,148.5,181.5" stroke="#46bc1" stroke-width="2" fill="none" />
<polyline points="145.5,170.5,146.5,174.0,142.5,178.0,140.5,182.5,136.0,186.5,135.5,190.5,137.0,193.5,137.5,194.0,139.5,193.0,140.5,194.0,144.5,199.0,148.5,199.5" stroke="#2122e5" stroke-width="2" fill="none" />
<polyline points="129.5,207.5,125.5,199.5" stroke="#10b9d9" stroke-width="2" fill="none" />
<polyline points="115.5,226.0,112.0,229.5,113.0,228.0,116.5,226.5" stroke="#492cef" stroke-width="2" fill="none" />
<polyline points="117.0,228.0,114.0,231.5,115.5,229.5" stroke="#9b416e" stroke-width="2" fill="none" />
<polyline points="123.0,252.5,118.0,256.5,115.0,261.0,111.5,265.0,115.5,259.5,119.5,256.0,124.0,253.5,128.5,249.0,132.5,248.0,136.5,243.5,142.0,241.0,149.0,237.5,153.5,232.5,157.5,229.0,161.5,224.5" stroke="#66c52" stroke-width="2" fill="none" />
<polyline points="161.5,224.0,158.0,228.0,153.0,231.0,150.0,235.5,147.5,239.5,144.5,246.5,143.0,250.5,143.0,255.0,141.0,259.5,140.0,263.5,134.5,265.5,132.0,269.0,131.5,269.5,136.0,269.0" stroke="#62465b" stroke-width="2" fill="none" />
<polyline points="136.5,270.0,139.0,266.0,135.5,264.0" stroke="#3e3616" stroke-width="2" fill="none" />
<polyline points="129.5,265.5,129.0,269.5,124.5,273.5,118.5,277.5,111.0,281.5,102.0,286.0,100.5,290.5,95.5,298.0,94.0,302.0,89.5,306.5,82.5,311.0,84.5,316.0,79.5,320.0,72.5,323.0,76.0,321.5,80.0,319.0,84.0,315.5,88.0,316.5" stroke="#4e8cbd" stroke-width="2" fill="none" />
<polyline points="80.0,317.5,76.0,319.5,72.0,322.0,69.5,323.0,76.0,319.0,79.0,314.5,75.0,310.0,75.0,306.0,74.5,305.5" stroke="#7d4786" stroke-width="2" fill="none" />
<polyline points="73.0,309.0,77.0,313.5" stroke="#17f930" stroke-width="2" fill="none" />
<polyline points="79.0,306.5,79.0,310.0,80.5,311.5,84.5,308.5,88.0,306.5,92.0,304.0" stroke="#c6bd92" stroke-width="2" fill="none" />
<polyline points="107.5,306.0,103.0,311.0,99.0,320.0,100.0,318.0,102.5,314.0,104.5,310.0,107.5,306.5,109.5,302.0" stroke="#e4e34f" stroke-width="2" fill="none" />
<polyline points="120.0,306.0,116.5,306.5,115.0,310.0,112.0,314.0,108.5,317.5,106.0,321.0,101.5,327.0" stroke="#4078" stroke-width="2" fill="none" />
<polyline points="92.5,283.5,96.5,288.0,100.5,287.0,104.5,284.0,108.5,282.5,112.5,280.0" stroke="#caae49" stroke-width="2" fill="none" />
<polyline points="118.0,282.0,112.5,279.0,110.0,277.0,106.0,274.5,102.0,275.0,98.5,278.5,94.5,281.0,97.5,278.5,101.5,275.0,108.5,272.5,108.5,269.0,108.0,265.5,110.5,261.5,112.0,259.5,108.0,265.0" stroke="#6953f6" stroke-width="2" fill="none" />
<polyline points="114.5,266.0,117.0,261.0,115.0,265.0,117.5,269.0,126.0,274.5,129.5,277.5,133.5,276.5,138.0,273.0,142.0,268.5,146.0,265.0,150.0,261.0,153.5,263.0,157.5,260.0,164.0,253.0" stroke="#d6b1d" stroke-width="2" fill="none" />
<polyline points="156.5,249.5,155.5,253.5,150.5,251.5,155.0,253.0" stroke="#ba5353" stroke-width="2" fill="none" />
<polyline points="163.0,239.5,167.0,235.5,171.0,232.5,175.0,229.0,179.0,229.0" stroke="#819555" stroke-width="2" fill="none" />
<polyline points="177.5,229.0,172.5,232.5,168.0,236.0,164.5,240.0,162.0,244.5,158.0,248.5,153.0,251.0,150.5,255.0,153.5,256.5,152.0,259.0,149.0,263.0,145.0,267.0,140.5,271.5,137.5,275.5,130.5,281.0,133.0,288.0,130.5,292.0,128.0,296.0,127.0,301.5,129.0,305.5,127.5,309.5,125.5,312.5,125.0,316.0,125.0,319.5,124.5,323.5,125.0,327.5,124.5,331.5,125.0,336.5,127.0,339.0,128.5,343.5,131.5,347.5,134.0,351.5,138.0,354.5,138.0,358.5,138.5,363.5,141.5,367.5,143.5,367.5,145.0,372.0,146.5,377.5,148.0,381.0,145.5,385.0,147.5,389.0,147.0,393.5,148.5,397.5,149.5,397.0,150.5,402.0,150.5,404.5,153.5,405.0,157.0,409.0,159.0,413.5,161.0,417.5,159.5,421.0,154.0,423.0" stroke="#303845" stroke-width="2" fill="none" />
<polyline points="134.0,300.5,134.0,296.5" stroke="#c32148" stroke-width="2" fill="none" />
<polyline points="140.5,284.0,136.5,286.5,132.5,286.5,128.5,292.5,123.5,295.5,118.5,297.5,114.5,301.5,110.5,305.5,107.0,309.0,105.0,312.5,108.0,308.5,113.0,304.5,118.0,301.0,121.0,297.0,123.5,293.5,125.0,289.5,124.5,285.5" stroke="#c22d4" stroke-width="2" fill="none" />
<polyline points="122.5,284.5,121.5,288.5,120.0,292.0,118.0,296.0,113.0,300.5,109.0,305.0,105.0,308.5,102.5,312.5,100.5,316.0,99.0,320.0,100.0,324.0,100.5,328.5,101.0,330.5,97.5,334.5,94.5,341.0,98.5,338.5,103.0,335.5,107.0,330.5,111.5,324.5,115.0,316.0,119.0,307.5,122.0,300.5,124.5,301.5,125.5,308.0,132.5,312.5" stroke="#b271b9" stroke-width="2" fill="none" />
<polyline points="129.0,279.5,133.0,279.0,137.0,278.0,141.0,276.0" stroke="#2daeab" stroke-width="2" fill="none" />
<polyline points="124.0,271.5,120.0,269.0,116.0,267.0" stroke="#82c796" stroke-width="2" fill="none" />
<polyline points="125.5,272.5,121.5,276.0,117.5,279.0,114.0,282.0,109.0,280.0,105.0,281.5,101.0,282.5,105.0,282.5,101.0,284.5,96.5,286.0,95.0,285.0,93.5,281.0,94.0,276.5,101.0,273.0,107.0,269.0,103.0,272.0,99.0,274.0,95.5,276.0,91.5,278.0" stroke="#bbd24f" stroke-width="2" fill="none" />
<polyline points="90.5,275.5,90.0,279.5,92.0,283.5" stroke="#33fdab" stroke-width="2" fill="none" />
<polyline points="162.5,229.0,166.5,228.0" stroke="#9fd9a0" stroke-width="2" fill="none" />
<polyline points="167.0,231.5,164.0,235.5,161.0,240.0,161.5,239.5,165.0,234.0,166.5,230.5,170.5,229.5" stroke="#39ca83" stroke-width="2" fill="none" />
<polyline points="169.0,222.0,168.5,226.5,172.0,226.5,172.5,226.5,176.0,225.5,179.5,225.0" stroke="#82ae22" stroke-width="2" fill="none" />
<polyline points="182.0,219.5,181.5,223.5,182.5,220.0,181.5,216.0,182.0,214.5" stroke="#801b22" stroke-width="2" fill="none" />
<polyline points="182.5,213.5,183.0,217.5" stroke="#e81711" stroke-width="2" fill="none" />
<polyline points="182.5,208.5,186.5,210.5,190.5,212.5,190.0,216.0,186.5,217.5,184.5,219.0,186.5,218.5,189.5,211.5,190.5,209.0,194.5,204.5,198.5,206.0" stroke="#cff81d" stroke-width="2" fill="none" />
<polyline points="200.0,203.5,196.0,204.0" stroke="#af197a" stroke-width="2" fill="none" />
<polyline points="193.0,200.0,197.0,200.5,201.0,202.5" stroke="#16d2a8" stroke-width="2" fill="none" />
<polyline points="204.5,201.5,200.5,200.0,196.0,198.5,192.0,197.5,189.5,198.0,185.0,201.0,181.5,205.5,181.5,207.0,184.0,203.5,188.0,199.0,190.5,199.0" stroke="#e99ff9" stroke-width="2" fill="none" />
<polyline points="186.0,206.0,190.5,205.0,194.0,204.0,201.5,202.5" stroke="#5dd58" stroke-width="2" fill="none" />
<polyline points="176.0,212.5,172.5,214.5,170.0,216.0,174.5,212.0" stroke="#3d2395" stroke-width="2" fill="none" />
<polyline points="143.5,169.0,140.0,173.0,137.0,177.0,134.5,177.0" stroke="#1648ba" stroke-width="2" fill="none" />
<polyline points="127.5,140.5,131.5,135.0,132.0,130.5" stroke="#672e8" stroke-width="2" fill="none" />
<polyline points="154.5,129.5,150.0,132.5,146.5,135.5,151.0,131.5,156.0,127.5" stroke="#142041" stroke-width="2" fill="none" />
<polyline points="190.0,134.5,186.0,137.5,187.0,136.5,192.0,132.5" stroke="#c31f38" stroke-width="2" fill="none" />
<polyline points="188.5,120.0,185.0,122.0,181.5,125.0,180.0,126.0,185.5,122.0,192.0,118.5" stroke="#5ed1e2" stroke-width="2" fill="none" />
<polyline points="190.0,116.5,184.0,120.5,178.5,124.5,179.5,124.5,183.5,122.0,187.5,120.0" stroke="#652bee" stroke-width="2" fill="none" />
<polyline points="194.0,110.5,197.0,108.5" stroke="#9fa752" stroke-width="2" fill="none" />
<polyline points="206.0,114.0,199.0,118.5,196.0,121.0,200.5,119.0,204.5,116.5" stroke="#691384" stroke-width="2" fill="none" />
<polyline points="229.5,126.0,223.0,130.0,217.0,134.5,211.5,138.0,206.0,142.0,201.0,146.0,197.5,150.0,196.0,152.0,200.5,148.5,205.0,145.0,209.0,141.5,213.0,139.0,217.0,135.5,221.0,132.5,225.0,130.0,229.0,127.5" stroke="#fc797e" stroke-width="2" fill="none" />
<polyline points="258.5,133.0,254.0,136.5,250.5,139.0,246.5,142.5,242.5,146.0,238.5,149.0,234.5,152.5,230.5,156.0,226.0,159.0,222.5,162.5,220.5,164.0,225.0,160.0,230.5,156.0,235.5,152.5,240.5,148.0,245.5,144.0,250.5,139.5,255.5,135.5,260.0,131.5" stroke="#6b9d59" stroke-width="2" fill="none" />
<polyline points="283.0,145.5,287.0,144.5" stroke="#b7bdfe" stroke-width="2" fill="none" />
<polyline points="298.0,134.5,293.5,139.0,288.5,143.0,291.0,141.0,295.0,138.0,299.0,135.0" stroke="#753f5f" stroke-width="2" fill="none" />
<polyline points="313.0,174.0,310.0,178.5,302.5,182.5,298.0,186.5,292.5,190.5,288.0,194.0,283.5,198.0,279.0,202.0,274.5,206.0,273.5,209.5,273.0,213.5,269.5,215.5" stroke="#5cea92" stroke-width="2" fill="none" />
<polyline points="238.5,99.0,234.5,102.5,230.0,105.0,226.0,104.5,222.0,107.0,225.5,103.5,231.5,101.5,237.5,97.5" stroke="#a3848f" stroke-width="2" fill="none" />
<polyline points="237.0,96.0,232.0,99.5,235.5,97.0" stroke="#e7b64f" stroke-width="2" fill="none" />
<polyline points="247.0,91.0,243.5,93.5,250.0,90.0" stroke="#674779" stroke-width="2" fill="none" />
<polyline points="263.5,86.0,254.5,90.0,247.5,94.0,242.0,98.0,236.0,102.0,230.5,105.5,224.0,110.0,219.0,114.0,213.5,118.0,208.0,121.5,203.5,125.5,199.0,129.5,195.0,133.5,190.0,137.5,185.5,141.5,181.5,146.0,177.5,150.0,173.5,153.5,169.0,157.5,165.0,161.5,160.5,165.5,156.5,169.0,153.5,172.5,155.0,169.5,159.0,165.0,163.0,162.0,166.5,158.0,170.5,154.0,174.5,150.5,178.0,147.0,182.0,143.0,186.0,139.0,190.0,135.5,194.0,132.0,198.5,128.5,203.0,125.0,207.0,121.5,211.5,119.0,216.0,116.0,220.5,114.0,224.5,111.0,228.5,108.5,232.5,105.5,236.5,103.0,240.5,100.0,244.5,97.0,248.0,94.5,251.5,92.5,255.5,89.5,259.5,87.0,263.5,86.0" stroke="#84a7d2" stroke-width="2" fill="none" />
<polyline points="235.0,79.5,231.0,81.5,226.5,84.5,224.0,86.5,228.0,83.0,235.0,79.0" stroke="#11318c" stroke-width="2" fill="none" />
<polyline points="232.5,51.5,236.0,49.0" stroke="#918b66" stroke-width="2" fill="none" />
<polyline points="229.0,47.0,224.0,51.0,228.0,48.0,232.0,48.0,235.5,48.0,239.5,48.5,243.5,49.5,248.0,50.5,252.0,52.0,256.0,53.5,260.5,54.5,264.0,56.5,268.0,58.5,272.5,60.5,276.5,63.0,280.5,65.5,284.5,68.5,288.0,72.0,292.0,75.5,295.5,76.5,299.5,79.5,303.5,85.5,307.5,90.5,312.0,97.0,316.0,99.0,320.5,103.0,324.5,108.0,328.5,114.0,332.5,122.5,336.5,129.5,340.5,133.0,344.0,138.5,348.0,147.0,352.0,144.5,356.0,142.5,360.0,139.5,364.0,137.5,368.0,135.5,372.0,132.5,376.0,130.5,380.0,127.5,384.0,124.5,388.5,121.5,392.0,117.5,396.0,114.5,400.0,112.5,403.5,112.0,407.5,113.0,411.0,113.0,414.5,114.5,418.5,121.5" stroke="#f4cf" stroke-width="2" fill="none" />
<polyline points="414.5,112.5,418.5,116.5,420.0,120.5,420.5,124.5,421.0,128.5,421.0,132.5,420.5,137.0,419.5,141.0,419.0,145.5,418.0,149.0,417.0,153.0,415.5,157.0,413.5,161.5,413.0,165.5,411.5,169.5,410.0,173.0,408.0,177.0,405.5,181.0,401.5,185.0,396.5,189.0,393.0,193.5,389.0,197.5,385.5,201.5,380.0,205.5,374.5,209.0,368.5,213.0,371.5,211.5,375.5,209.5,379.5,207.0,383.5,204.5,387.5,201.0,391.0,196.5,395.0,192.5,398.5,188.0,402.5,185.5,406.5,180.0,410.0,171.0,413.5,159.0" stroke="#afbf1" stroke-width="2" fill="none" />
<polyline points="367.0,132.5,368.0,131.0,367.5,127.0" stroke="#b2af1" stroke-width="2" fill="none" />
<polyline points="387.5,106.5,383.5,101.0,379.5,97.0" stroke="#e58eb9" stroke-width="2" fill="none" />
<polyline points="379.0,95.5,382.5,99.5,384.5,104.0,388.5,108.5" stroke="#9d894b" stroke-width="2" fill="none" />
<polyline points="441.0,69.5,437.0,63.0,433.5,56.0,429.5,50.0,425.5,43.0,421.0,34.0,417.5,28.0,413.0,20.5,409.0,13.5,405.0,7.0" stroke="#35e542" stroke-width="2" fill="none" />
<polyline points="513.0,74.0,510.0,78.0,507.0,82.5,504.0,86.5,499.5,90.0,495.5,95.5,492.5,99.5,488.0,103.5,484.5,107.5,482.0,111.5,478.5,115.5,475.5,119.5,473.0,123.5,470.0,127.5,468.0,131.5,464.5,135.5,462.5,139.5,461.0,143.5,457.0,148.5,456.0,152.5,453.0,157.0,450.5,161.0,448.0,165.5,445.5,169.5,443.0,174.0,441.0,178.5,438.5,182.5,436.5,186.0,434.5,190.0,432.5,194.0,431.0,198.5,429.0,202.5,428.0,206.0,427.0,210.0,425.5,214.5,422.0,218.5,421.5,222.5,419.5,226.5,418.0,231.0,416.5,236.0,415.0,240.0,413.0,244.0,411.5,248.0,412.5,250.5,410.5,255.0,409.0,259.0,408.5,263.5,406.0,267.0,405.0,271.0,403.0,275.0,401.0,278.5,400.0,282.5,399.5,286.5,399.0,290.0,398.0,294.5,397.5,298.5,396.0,302.5,395.0,306.0,394.0,310.0,393.0,313.5,391.5,317.0,391.0,321.5,389.5,326.0,388.5,330.0,387.5,334.0,386.5,338.0,387.0,342.0" stroke="#b98214" stroke-width="2" fill="none" />
<polyline points="347.0,146.5,345.0,142.5,344.5,138.5,342.0,134.5,337.5,130.5,335.0,126.5,332.0,122.5,329.5,118.5,328.5,114.5,325.5,110.5,323.5,106.5,319.5,103.0,315.0,99.0,310.0,95.0,307.5,91.0,304.0,87.0,301.5,82.5,299.0,78.5,291.0,74.5,286.5,70.5,281.0,67.0,275.0,63.0,268.5,59.5,262.0,56.0,252.0,52.0" stroke="#dcf2e8" stroke-width="2" fill="none" />
<polyline points="210.5,48.0,206.5,49.5" stroke="#e1a557" stroke-width="2" fill="none" />
<polyline points="174.5,59.5,170.5,61.0,166.5,61.5,161.0,65.0,160.5,69.5,161.5,65.5" stroke="#ce4ab" stroke-width="2" fill="none" />
<polyline points="161.0,64.0,159.0,67.5,155.5,73.0,153.0,77.0,153.0,76.5,157.0,72.0,160.0,69.0" stroke="#e52fe" stroke-width="2" fill="none" />
<polyline points="155.0,75.5,153.5,79.5,151.5,84.0,155.5,77.5" stroke="#2c41b9" stroke-width="2" fill="none" />
<polyline points="23.0,367.0,22.0,371.0,20.5,374.5,22.0,368.0" stroke="#2bd679" stroke-width="2" fill="none" />
</svg>