<svg xmlns="http://www.w3.org/2000/svg" width="1024" height="1024" version="1.1" fill="white"><polyline points="405.5,2.0,407.5,6.0,406.5,8.0,407.5,17.0,409.5,19.0,415.0,22.5,417.0,26.5,421.5,32.0,422.0,34.0,424.0,38.5,426.5,42.5,428.5,46.5,430.0,50.5,432.0,55.0,434.0,58.5,434.0,62.5,438.5,66.5,441.5,71.0,437.0,69.5" stroke="black" stroke-width="1" fill="none" />
<polyline points="456.0,58.0,452.0,51.0,448.5,46.0,443.5,38.0,440.5,33.5,437.5,26.5,432.5,20.0,430.5,9.5,424.5,6.5" stroke="black" stroke-width="1" fill="none" />
<polyline points="425.5,3.0,425.5,7.0,428.5,9.5,429.5,14.0,432.0,16.0,433.0,21.5,438.0,27.0,442.0,30.0,442.0,34.0,447.0,37.0,448.5,40.0,448.0,44.0,451.0,49.5,453.0,53.5,455.0,58.0,457.5,60.0,451.5,65.5,453.5,71.5,448.5,73.0,442.5,78.0,439.5,83.0,437.5,86.0,434.0,90.5,431.5,94.5,429.5,98.5,428.5,100.0,425.5,106.0,421.5,109.5,419.0,114.5,419.0,112.5,424.5,107.0,427.0,98.5,431.5,94.0,436.0,88.5,440.5,86.0,446.0,77.5,446.5,75.5,451.0,70.0,456.0,65.0,459.0,54.5,464.5,52.5,468.5,49.0,472.5,44.5,478.5,42.5,481.0,36.0,486.5,29.5,489.0,27.5,492.5,26.0,498.0,18.5,502.0,14.5,506.0,11.5,510.5,7.5" stroke="black" stroke-width="1" fill="none" />
<polyline points="511.5,8.0,507.0,11.0,504.0,14.5,498.5,20.0,495.5,21.0,492.5,24.0,485.0,31.5,483.5,34.5,480.0,40.5,475.5,43.0,473.0,45.0,465.0,51.0,461.5,53.0,459.0,59.0" stroke="black" stroke-width="1" fill="none" />
<polyline points="511.5,77.5,503.5,77.5,500.5,82.0,500.0,91.0,497.0,95.5,489.0,92.5,489.0,103.0,479.0,104.0,480.5,111.5,470.0,111.0,472.5,122.0,468.5,128.0,462.0,131.0,461.0,141.5" stroke="black" stroke-width="1" fill="none" />
<polyline points="454.0,151.0,449.5,160.5,446.5,166.0,442.0,174.0,441.0,173.0" stroke="black" stroke-width="1" fill="none" />
<polyline points="439.5,177.5,442.0,181.0,437.5,183.5" stroke="black" stroke-width="1" fill="none" />
<polyline points="433.0,193.5,427.0,201.0,426.5,210.0,425.5,215.0,421.0,219.0,419.5,220.0" stroke="black" stroke-width="1" fill="none" />
<polyline points="418.5,232.0,416.5,237.5,413.5,245.5" stroke="black" stroke-width="1" fill="none" />
<polyline points="402.5,274.5,404.5,280.5,401.5,288.5" stroke="black" stroke-width="1" fill="none" />
<polyline points="380.5,291.0,378.0,285.0,378.0,284.0,380.5,278.5,381.5,275.0" stroke="black" stroke-width="1" fill="none" />
<polyline points="379.0,274.5,378.0,269.0,375.5,262.0,376.5,258.0,374.5,254.5,373.0,257.0,372.5,246.5,371.0,242.0,370.0,237.5,369.5,233.5,369.0,234.5,370.5,229.0,374.0,227.0,372.0,222.0,371.5,218.0,370.0,220.5" stroke="black" stroke-width="1" fill="none" />
<polyline points="372.0,232.0,375.0,238.5,375.0,240.0,371.5,244.0" stroke="black" stroke-width="1" fill="none" />
<polyline points="369.5,249.0,369.5,253.0,368.0,251.5,367.0,256.0,372.5,265.5,373.0,269.0,370.0,267.5,369.5,272.5,370.5,273.5,369.0,276.5,374.0,285.0" stroke="black" stroke-width="1" fill="none" />
<polyline points="376.5,276.5,375.0,282.5,377.5,284.5,375.0,291.5,378.5,294.5,376.0,296.0,378.0,300.5,379.0,304.0,379.0,308.0,376.5,310.0,380.0,315.5,383.5,319.5,381.5,324.5,382.5,329.0,380.0,334.5,381.5,338.0,382.0,340.0,382.0,344.0,381.0,347.0" stroke="black" stroke-width="1" fill="none" />
<polyline points="368.5,352.5,370.0,356.5,372.5,360.0,370.5,364.0,371.0,367.5,371.5,372.0,374.5,371.5" stroke="yellow" stroke-width="1" fill="none" />
<polyline points="373.0,376.0,374.0,380.0,373.5,384.0" stroke="black" stroke-width="1" fill="none" />
<polyline points="382.5,386.0,380.5,389.5,382.5,392.0,379.5,396.0,380.0,401.0,379.5,400.0" stroke="black" stroke-width="1" fill="none" />
<polyline points="363.0,432.5,358.5,425.0,354.5,417.5,351.5,411.5,349.5,407.5,344.5,405.0,339.0,402.0,337.5,401.0,332.0,400.5,328.5,396.5,323.5,394.5,321.5,390.5,315.5,393.5,310.5,391.5,308.0,390.0,304.5,389.5,300.0,387.5,300.5,392.5" stroke="black" stroke-width="1" fill="none" />
<polyline points="312.0,382.5,315.0,377.0,321.0,370.0,323.5,362.5,328.5,353.0,337.0,347.0,336.0,338.5,342.5,330.0,346.5,319.5" stroke="black" stroke-width="1" fill="none" />
<polyline points="356.5,328.5,355.0,328.0,355.0,332.5,354.0,337.0,353.0,343.0,354.0,339.5" stroke="black" stroke-width="1" fill="none" />
<polyline points="353.5,353.5,356.5,355.5,354.0,361.5,354.0,363.5,353.0,369.0,354.5,373.5,352.5,378.5,352.5,380.5,352.5,386.5,354.0,389.0,353.0,393.5,353.0,398.5,353.5,401.5,350.5,402.5,352.0,408.5,351.5,413.0,352.5,411.5" stroke="green" stroke-width="1" fill="none" />
<polyline points="361.0,387.5,360.0,382.0,360.0,377.5,359.0,370.0,359.0,369.5,360.0,364.5" stroke="black" stroke-width="1" fill="none" />
<polyline points="359.0,360.5,359.5,364.5,361.0,370.0,357.0,375.0,359.5,377.5,359.5,380.0" stroke="black" stroke-width="1" fill="none" />
<polyline points="354.5,356.5,354.5,360.0,354.0,366.5,353.5,367.5,354.0,371.5,354.5,373.0,354.5,379.5,353.0,383.0,354.5,387.5,354.5,391.5,355.0,395.5,357.5,397.0,355.0,405.0,355.5,405.5,356.5,411.5" stroke="black" stroke-width="1" fill="none" />
<polyline points="374.5,464.0,372.5,461.5,372.5,459.0,373.5,456.0,372.0,447.0,372.0,445.5,374.0,440.5,373.0,436.5,372.0,432.5,374.0,429.0,374.0,426.5,375.0,420.0,376.5,418.0,375.5,410.0,376.5,408.0,377.0,404.5,375.0,402.5,377.5,396.5,377.5,392.0,378.0,388.5,378.0,384.5,381.0,378.0,378.0,376.0,376.0,371.0,375.5,365.5,379.5,366.5,381.5,360.0,379.5,356.0,380.0,352.5,377.5,348.0,376.5,344.5,376.0,340.5,375.5,337.0,373.0,334.0,373.0,328.5,373.0,325.5,375.0,323.5,372.5,317.5,372.0,313.5,371.0,307.0,371.0,304.5,371.5,300.5,371.0,296.5,373.0,290.0,370.0,288.0,369.5,284.0,369.5,280.5,368.5,274.5,368.5,269.5,366.5,270.0,368.0,264.5,368.0,260.5,366.5,255.0,366.5,250.0,367.0,248.5,366.0,244.0,368.5,237.5,366.5,233.5,364.5,232.5,363.5,228.0,362.0,224.0,361.0,220.0,358.5,216.0,358.5,212.0,357.5,207.0,354.5,206.0,351.0,202.0,349.5,198.0,349.0,196.0" stroke="yellow" stroke-width="1" fill="none" />
<polyline points="345.0,196.0" stroke="black" stroke-width="1" fill="none" />
<polyline points="347.5,202.5,352.5,208.0" stroke="black" stroke-width="1" fill="none" />
<polyline points="360.5,202.5,357.0,194.5" stroke="black" stroke-width="1" fill="none" />
<polyline points="359.0,192.5,359.0,196.0,360.5,201.5,362.0,204.0" stroke="black" stroke-width="1" fill="none" />
<polyline points="355.0,205.0,351.0,199.5" stroke="black" stroke-width="1" fill="none" />
<polyline points="351.0,197.0,354.5,203.5,356.5,207.5" stroke="black" stroke-width="1" fill="none" />
<polyline points="346.5,205.0,342.5,200.5,344.5,198.5" stroke="black" stroke-width="1" fill="none" />
<polyline points="340.5,205.5,347.5,210.0,353.0,213.5,355.0,217.5,354.0,224.5,358.5,228.0,361.0,231.0,362.5,237.0,364.0,241.0,364.5,245.5,365.0,249.0" stroke="black" stroke-width="1" fill="none" />
<polyline points="364.5,249.0,364.0,245.0,365.0,244.0" stroke="black" stroke-width="1" fill="none" />
<polyline points="349.0,240.0,349.5,245.5,340.0,249.0,341.0,253.5" stroke="black" stroke-width="1" fill="none" />
<polyline points="344.5,255.0,340.5,252.5,335.5,256.0,329.0,258.0" stroke="black" stroke-width="1" fill="none" />
<polyline points="326.5,256.5,330.0,255.0,335.0,252.5,338.0,253.5,344.5,248.5,347.0,247.5,351.0,244.0,350.0,246.5" stroke="black" stroke-width="1" fill="none" />
<polyline points="349.0,251.5,347.5,256.5" stroke="black" stroke-width="1" fill="none" />
<polyline points="339.5,264.5,341.0,266.5,340.5,269.0,343.0,272.0,340.0,281.5,341.0,281.0" stroke="black" stroke-width="1" fill="none" />
<polyline points="337.5,280.5,339.5,283.5,344.5,279.0,349.0,278.5,349.5,283.0,351.0,287.0,351.0,289.5,348.5,294.5,350.0,300.0,346.5,304.5,348.0,308.5,344.5,312.0,346.5,312.5,345.0,317.5,343.0,321.0,343.5,324.5,340.0,328.0,337.0,332.0,335.5,336.5,333.5,340.5,331.0,342.0,331.5,351.0,327.5,352.5,325.5,356.0,323.5,360.0,321.0,364.0,321.5,369.5,317.5,372.5,316.0,376.5,314.5,380.5,316.5,384.5,314.5,388.5,318.5,392.0,329.0,396.5,338.0,402.5,342.0,404.5,344.5,409.5,350.5,412.5,354.0,416.5,356.5,420.5,361.0,427.0,360.5,428.5,361.5,431.5,365.0,435.0,365.0,440.5,366.0,444.0,368.0,449.0,368.5,453.5,369.5,460.5,369.5,461.5,371.0,466.0,372.5,470.5,372.0,476.5,378.0,478.0,377.5,481.0,379.0,485.0,381.0,488.5,383.0,491.0,382.0,496.5,380.5,499.0,383.5,504.0,387.0,511.0,385.5,512.0" stroke="black" stroke-width="1" fill="none" />
<polyline points="424.0,492.5,427.0,491.0,432.0,484.5,438.0,485.5,441.0,483.5,445.0,480.0,449.0,474.5,449.5,466.5,456.5,466.5" stroke="black" stroke-width="1" fill="none" />
<polyline points="456.5,467.0,451.5,470.0,447.5,468.0,452.5,462.5" stroke="black" stroke-width="1" fill="none" />
<polyline points="455.5,451.0,460.0,442.0" stroke="black" stroke-width="1" fill="none" />
<polyline points="469.0,423.0,473.0,417.0,475.0,409.0,480.0,405.0,486.5,402.5,490.0,396.5,494.0,395.0,497.0,394.0,500.0,390.0,504.5,388.5,508.0,387.0,513.5,383.5" stroke="black" stroke-width="1" fill="none" />
<polyline points="512.5,382.0,502.0,386.0,493.5,390.5,492.0,395.0,483.5,402.0,482.5,404.0,477.5,408.0,475.5,412.0,474.5,416.0,472.0,420.5,471.5,423.0,468.0,428.0,466.0,431.5,462.5,435.5,460.5,439.5,456.5,443.5,457.0,447.0,455.5,451.0,454.5,455.0,454.5,459.0,453.0,462.0,449.0,468.0,446.5,472.5,449.5,475.0,447.0,479.5,442.5,484.5,440.5,490.0,434.0,491.5" stroke="green" stroke-width="1" fill="none" />
<polyline points="433.0,480.5,432.0,478.0,434.5,476.0,432.5,479.0,436.0,475.0,436.0,471.0,436.5,466.5,439.0,463.0,440.0,459.5,439.5,458.0,437.0,453.0" stroke="orange" stroke-width="1" fill="none" />
<polyline points="436.5,456.5,431.0,451.0,430.5,447.5,432.5,442.5,433.5,438.5,435.0,435.0,435.5,432.5,432.5,434.0" stroke="black" stroke-width="1" fill="none" />
<polyline points="429.0,467.0,426.5,471.0,422.5,476.5,422.0,479.0,422.5,483.0,422.5,487.5" stroke="orange" stroke-width="1" fill="none" />
<polyline points="418.0,468.5,419.5,472.5,421.5,479.5,427.0,473.0,430.0,465.5" stroke="black" stroke-width="1" fill="none" />
<polyline points="482.5,411.5,481.0,415.0,478.5,417.5,483.0,416.0,485.0,409.5,487.5,405.5" stroke="black" stroke-width="1" fill="none" />
<polyline points="446.0,422.5,446.0,423.0,447.5,421.5,448.5,414.5,449.5,411.5,448.0,410.0,451.0,403.5,451.0,399.5,451.5,396.5,451.5,391.0,454.0,385.0,452.0,380.0,451.0,378.5,453.0,377.5,453.5,371.5,453.0,366.5" stroke="black" stroke-width="1" fill="none" />
<polyline points="384.5,344.5,384.0,340.5,385.5,339.0,384.0,333.0,383.5,329.0" stroke="black" stroke-width="1" fill="none" />
<polyline points="363.5,353.0,367.5,356.0,368.5,360.0,368.5,364.5,368.0,368.5,366.0,377.0,367.0,383.0,364.5,383.5,371.0,385.5" stroke="black" stroke-width="1" fill="none" />
<polyline points="321.0,347.5,318.5,343.5,319.0,342.0" stroke="black" stroke-width="1" fill="none" />
<polyline points="320.0,347.5,314.5,349.0,311.0,350.5" stroke="black" stroke-width="1" fill="none" />
<polyline points="310.0,354.5,303.5,355.5,300.0,356.5,299.5,356.0,293.5,354.5" stroke="black" stroke-width="1" fill="none" />
<polyline points="294.0,358.5,297.0,358.5,303.5,361.5,305.5,360.0,311.0,358.5,309.5,359.0,308.5,365.0" stroke="black" stroke-width="1" fill="none" />
<polyline points="312.5,346.5,310.0,348.5,304.5,348.5,302.5,347.0,298.0,349.0,292.5,350.0,293.0,349.5" stroke="black" stroke-width="1" fill="none" />
<polyline points="308.5,331.5,307.0,328.0,314.5,328.5,315.0,328.5,311.0,330.5,307.5,333.5,306.5,331.0" stroke="orange" stroke-width="1" fill="none" />
<polyline points="310.0,328.5,305.0,330.0,299.5,324.5,296.5,326.0" stroke="black" stroke-width="1" fill="none" />
<polyline points="293.0,325.0,301.0,322.5,300.5,322.0" stroke="black" stroke-width="1" fill="none" />
<polyline points="320.0,327.0,319.0,324.0,323.5,321.0,324.5,319.0,322.0,313.5,321.5,309.5" stroke="yellow" stroke-width="1" fill="none" />
<polyline points="337.0,281.0,339.0,274.5" stroke="black" stroke-width="1" fill="none" />
<polyline points="333.5,271.5,336.0,273.5,335.5,269.0,337.0,266.0,332.0,267.0" stroke="black" stroke-width="1" fill="none" />
<polyline points="328.5,271.5,326.5,270.5,328.5,272.0,334.5,271.0,330.5,269.5,326.5,266.0" stroke="black" stroke-width="1" fill="none" />
<polyline points="323.5,269.0,326.5,273.0" stroke="black" stroke-width="1" fill="none" />
<polyline points="325.5,274.5,321.5,276.0" stroke="orange" stroke-width="1" fill="none" />
<polyline points="319.5,265.0,325.5,262.0,328.5,262.5,334.0,259.5,335.5,257.5,340.0,255.5,346.0,258.5,350.0,252.0,352.5,251.5" stroke="black" stroke-width="1" fill="none" />
<polyline points="348.5,239.5,346.5,236.5,346.0,234.5,344.5,230.0,343.5,226.0,343.0,222.5,342.0,218.5,341.5,214.5,341.0,210.5,337.0,203.5" stroke="orange" stroke-width="1" fill="none" />
<polyline points="332.5,209.5,340.0,207.5,343.5,198.5,345.5,201.0,351.0,199.5,355.0,194.5,359.5,196.0,360.5,193.0,367.0,188.0,370.0,183.5,374.5,182.5,378.5,181.0,379.0,187.0,385.5,179.5,388.5,182.0,394.0,172.5,398.0,171.0,403.0,176.5,406.5,169.0,403.0,172.5,403.5,180.0,395.5,184.0,393.5,184.5,388.5,192.0,382.0,190.5,385.5,189.0,391.5,189.5,393.0,183.0,397.0,179.0,401.0,174.5" stroke="black" stroke-width="1" fill="none" />
<polyline points="404.0,164.5,405.5,158.0,404.5,160.0,405.0,166.5,398.5,170.5,389.5,176.0,382.0,179.0,384.5,177.5" stroke="black" stroke-width="1" fill="none" />
<polyline points="373.5,181.5,363.5,185.5,357.0,189.5,348.5,193.0,342.5,196.0,337.0,202.0,337.5,205.5,343.0,208.5,347.5,212.5,352.0,213.0" stroke="black" stroke-width="1" fill="none" />
<polyline points="344.0,207.5,340.0,207.5" stroke="black" stroke-width="1" fill="none" />
<polyline points="337.5,204.5,343.5,214.5" stroke="orange" stroke-width="1" fill="none" />
<polyline points="341.0,205.5,345.0,208.0,349.0,212.0,353.5,218.0,357.0,224.5" stroke="black" stroke-width="1" fill="none" />
<polyline points="353.5,207.5,351.0,207.5,348.0,207.5,345.0,203.5,340.0,202.0,340.5,202.0" stroke="black" stroke-width="1" fill="none" />
<polyline points="341.0,206.0,350.5,207.0,352.0,213.0" stroke="black" stroke-width="1" fill="none" />
<polyline points="347.0,200.5,347.0,196.5" stroke="black" stroke-width="1" fill="none" />
<polyline points="343.0,199.0,346.0,198.5,343.0,206.0,348.5,205.5" stroke="black" stroke-width="1" fill="none" />
<polyline points="361.0,191.0" stroke="black" stroke-width="1" fill="none" />
<polyline points="367.0,195.5,369.0,195.0,373.5,194.5,377.5,191.0" stroke="green" stroke-width="1" fill="none" />
<polyline points="396.5,154.0,393.5,158.0,391.5,162.0,386.5,165.0,387.0,169.5,383.0,175.5,381.0,176.5,383.5,173.0,386.5,166.5,393.5,158.5,393.5,153.0" stroke="black" stroke-width="1" fill="none" />
<polyline points="407.0,157.0,400.0,162.0,396.5,166.5,393.0,170.0,389.5,173.5,388.5,174.5,393.0,170.5,396.5,165.0,401.0,162.5,405.0,158.5" stroke="black" stroke-width="1" fill="none" />
<polyline points="396.5,124.0,392.5,127.5,389.0,131.0,384.5,134.0,383.5,136.5,386.5,131.0,394.0,126.0,398.0,122.5" stroke="black" stroke-width="1" fill="none" />
<polyline points="403.0,115.0,392.5,124.5,388.0,127.5,384.0,130.5,385.5,132.0,385.0,129.0,393.0,120.0,401.5,116.5" stroke="black" stroke-width="1" fill="none" />
<polyline points="397.0,113.5,398.0,114.0,391.5,118.0,389.0,124.0,381.5,126.0,376.5,130.0,370.5,135.0,364.0,138.0,355.0,142.0,351.0,145.5" stroke="yellow" stroke-width="1" fill="none" />
<polyline points="338.5,153.0,334.0,158.0,326.0,158.5,318.5,164.0,312.5,168.5,306.5,172.5,301.0,176.0,296.0,180.0,298.0,181.5" stroke="black" stroke-width="1" fill="none" />
<polyline points="290.0,175.0,287.0,176.0,285.5,177.0" stroke="black" stroke-width="1" fill="none" />
<polyline points="281.0,174.5,285.0,174.0,291.0,172.0" stroke="black" stroke-width="1" fill="none" />
<polyline points="285.5,179.0,282.0,176.5,280.0,178.0" stroke="black" stroke-width="1" fill="none" />
<polyline points="274.0,173.5,274.5,179.5,278.5,178.0" stroke="black" stroke-width="1" fill="none" />
<polyline points="272.5,178.5,270.5,179.5,264.0,177.5,262.5,175.0,257.5,176.0,255.0,177.0,246.5,169.5,242.5,171.5,240.5,169.0" stroke="black" stroke-width="1" fill="none" />
<polyline points="245.5,171.0,248.5,169.5,248.0,175.0,251.5,173.5,250.0,175.0,256.0,182.0,248.0,184.5,249.5,186.5,243.5,192.5,240.5,195.0,239.5,198.0,236.0,203.5,235.0,204.5,240.5,209.0,244.5,210.5,248.5,210.5,252.5,212.0,256.5,204.0,255.5,209.0,253.5,213.0,252.0,216.5,250.0,218.5,248.5,222.5,245.0,226.5,244.5,233.5,239.5,232.5,238.0,238.0,233.5,245.5,231.0,250.5,227.5,253.0,224.5,256.5,222.5,261.0,220.5,265.5,217.0,269.5,215.0,276.5,212.0,278.0,208.5,281.5,205.5,287.5,204.0,290.5,203.0,294.0,200.5,298.0,196.0,301.5,194.0,305.0,196.5,307.0,192.5,313.0,193.5,317.5,188.0,317.5,186.0,325.0,183.0,326.5,180.0,329.5,170.5,335.5,169.0,337.5,165.5,339.5,165.5,345.0,168.0,345.0" stroke="black" stroke-width="1" fill="none" />
<polyline points="158.5,345.0,155.0,350.0,156.0,354.0,158.0,356.5,157.0,361.5,159.0,365.0,153.0,370.0,155.0,374.5,157.0,374.0,157.0,379.5,154.5,380.0,154.5,388.0,154.0,392.0,153.5,396.5,157.5,400.5,163.0,404.5,167.0,409.0" stroke="black" stroke-width="1" fill="none" />
<polyline points="165.5,413.5,159.5,408.5" stroke="black" stroke-width="1" fill="none" />
<polyline points="159.0,409.5,166.5,409.0,168.0,411.5,169.0,415.0,167.5,420.5,168.5,423.5,172.5,426.5,168.5,426.5" stroke="black" stroke-width="1" fill="none" />
<polyline points="172.0,435.5,178.0,434.0" stroke="black" stroke-width="1" fill="none" />
<polyline points="178.5,440.0,176.0,445.0,179.0,441.5,183.0,444.5,187.0,440.5" stroke="black" stroke-width="1" fill="none" />
<polyline points="180.0,444.0" stroke="black" stroke-width="1" fill="none" />
<polyline points="176.5,445.5,176.5,444.0,177.5,454.0" stroke="black" stroke-width="1" fill="none" />
<polyline points="171.0,456.0" stroke="black" stroke-width="1" fill="none" />
<polyline points="173.5,458.0,174.0,458.0,171.5,463.5,170.0,467.5,166.5,469.0" stroke="black" stroke-width="1" fill="none" />
<polyline points="162.5,468.5,156.5,472.0,151.0,471.5,147.5,466.0,143.0,453.5,139.0,455.0,135.5,457.0,133.5,466.5" stroke="black" stroke-width="1" fill="none" />
<polyline points="138.5,465.0,140.0,469.0,143.0,473.0,148.5,476.5,150.5,478.5,155.5,486.5,149.5,484.5,155.5,484.5,159.5,489.0,162.5,494.0,165.5,495.5,166.0,503.0" stroke="black" stroke-width="1" fill="none" />
<polyline points="165.5,503.0,167.5,507.5,170.5,509.0" stroke="black" stroke-width="1" fill="none" />
<polyline points="176.5,508.0,174.5,508.0,168.0,504.0,167.5,501.5,163.5,504.5,155.5,498.0,154.0,499.0,149.0,495.5,147.5,490.0,143.5,490.0,143.0,484.5,139.5,478.0" stroke="black" stroke-width="1" fill="none" />
<polyline points="140.0,480.5,144.0,490.5,148.5,495.0,151.0,499.0,154.0,501.0" stroke="black" stroke-width="1" fill="none" />
<polyline points="149.5,507.0,154.5,509.5" stroke="black" stroke-width="1" fill="none" />
<polyline points="155.0,501.5,151.0,495.5,149.5,492.5" stroke="black" stroke-width="1" fill="none" />
<polyline points="152.5,492.5,151.0,492.0,155.0,497.5" stroke="black" stroke-width="1" fill="none" />
<polyline points="152.5,487.5,146.0,484.5" stroke="black" stroke-width="1" fill="none" />
<polyline points="151.0,483.0,150.5,487.5,152.5,493.0,155.5,491.5,155.5,495.5,154.0,498.5,160.0,505.5,158.5,506.5,160.0,509.5" stroke="black" stroke-width="1" fill="none" />
<polyline points="156.0,506.0,151.5,503.5,145.0,497.0,146.0,491.5,137.5,485.0,139.0,481.5" stroke="black" stroke-width="1" fill="none" />
<polyline points="145.0,489.5,144.0,492.0,148.5,495.0,148.0,503.0,150.5,503.5,152.0,508.5,155.5,512.0" stroke="black" stroke-width="1" fill="none" />
<polyline points="152.0,511.5,148.5,502.5,142.5,497.0,143.0,494.5" stroke="black" stroke-width="1" fill="none" />
<polyline points="141.5,499.0,145.5,501.0,145.5,507.0,149.5,508.5,151.5,513.0,149.0,510.0" stroke="black" stroke-width="1" fill="none" />
<polyline points="141.5,512.0,143.0,509.0,141.0,505.0,140.5,501.0,137.5,497.0,136.0,492.5,133.0,486.0" stroke="black" stroke-width="1" fill="none" />
<polyline points="135.0,484.0,136.5,488.5,134.5,491.0,139.5,496.5,134.0,499.5,138.5,500.0" stroke="orange" stroke-width="1" fill="none" />
<polyline points="128.5,498.5" stroke="green" stroke-width="1" fill="none" />
<polyline points="122.0,499.0,126.0,501.5,126.0,504.5,123.5,513.5" stroke="green" stroke-width="1" fill="none" />
<polyline points="122.5,509.5,126.5,506.5,125.5,501.5,125.5,497.5,124.5,492.5,124.0,489.0" stroke="black" stroke-width="1" fill="none" />
<polyline points="124.5,496.0,129.0,503.5" stroke="green" stroke-width="1" fill="none" />
<polyline points="134.5,512.0,132.0,509.0,129.0,504.0" stroke="black" stroke-width="1" fill="none" />
<polyline points="139.0,495.0,138.0,486.5,138.0,482.5" stroke="black" stroke-width="1" fill="none" />
<polyline points="134.5,484.0,134.5,490.5,136.5,495.0,132.5,496.0,136.0,501.0,138.0,505.0,139.5,509.0,140.5,514.0" stroke="black" stroke-width="1" fill="none" />
<polyline points="156.5,500.0,162.0,507.5,162.5,510.0" stroke="black" stroke-width="1" fill="none" />
<polyline points="165.5,497.5,160.5,496.0" stroke="black" stroke-width="1" fill="none" />
<polyline points="167.0,489.5,168.0,485.5,161.5,481.0" stroke="yellow" stroke-width="1" fill="none" />
<polyline points="166.0,477.5,164.0,481.5,164.0,478.0,169.5,480.5" stroke="black" stroke-width="1" fill="none" />
<polyline points="165.5,468.0,166.5,469.0,170.5,473.0,170.5,476.5,167.0,482.5,165.5,486.5,166.0,491.0,168.5,493.0" stroke="black" stroke-width="1" fill="none" />
<polyline points="192.5,490.5,199.0,490.5,203.5,489.5,206.0,488.5,209.5,487.5,210.5,484.5,216.5,482.5,218.0,479.5,224.5,472.5" stroke="black" stroke-width="1" fill="none" />
<polyline points="232.5,466.0,237.0,457.5" stroke="black" stroke-width="1" fill="none" />
<polyline points="213.5,488.0,216.5,479.5,220.5,477.5,223.5,473.5,225.0,469.0,229.5,466.0,229.5,462.5,234.0,458.0,233.5,452.5,234.0,450.0,234.5,446.0,235.5,442.0,236.5,437.5,237.0,435.0,236.0,432.0,237.0,424.0,237.0,424.0,234.0,420.5,233.5,414.5,230.0,411.5,231.0,406.5,231.5,404.0" stroke="yellow" stroke-width="1" fill="none" />
<polyline points="224.5,409.5,223.0,415.0,224.5,415.5,223.0,413.5" stroke="green" stroke-width="1" fill="none" />
<polyline points="231.0,416.0,227.5,420.5,229.5,422.0" stroke="black" stroke-width="1" fill="none" />
<polyline points="245.0,411.0,244.5,415.0,245.0,418.5,244.0,422.5,244.0,428.0,241.5,430.0,241.5,434.0,241.0,440.5,241.5,444.5,239.5,446.0,240.0,451.5,237.5,454.0,237.5,458.5,235.0,462.0,232.5,468.5,232.5,470.0,227.0,474.5,225.5,477.0,223.5,482.5,221.5,485.0,213.0,492.5" stroke="black" stroke-width="1" fill="none" />
<polyline points="200.5,493.0,196.0,498.5,198.0,494.5,205.0,493.5,207.0,494.0,210.0,491.0,214.0,491.5,219.0,487.5,223.5,483.5,228.0,479.5" stroke="black" stroke-width="1" fill="none" />
<polyline points="199.5,450.0,200.0,446.0,197.5,450.0,198.0,448.0,191.5,449.5" stroke="black" stroke-width="1" fill="none" />
<polyline points="195.5,449.0,190.0,448.0,186.5,447.5,182.5,446.5,178.5,450.0,179.0,450.0,181.5,450.0,184.0,442.0,183.5,437.5,181.5,435.5,178.5,434.5,180.0,430.5,181.0,426.0,178.5,422.0,180.0,420.0,177.5,414.0,175.5,412.5,174.0,405.5,170.0,401.0,166.0,396.5,165.5,393.5,159.5,390.0,158.5,384.5,162.5,381.0,166.0,376.5,163.0,379.5" stroke="black" stroke-width="1" fill="none" />
<polyline points="161.5,377.0,164.0,371.0,167.5,368.0,171.5,362.5,177.5,357.0,179.5,350.0,183.5,343.5,188.0,341.0,193.0,334.0,195.5,329.0,200.0,323.0" stroke="yellow" stroke-width="1" fill="none" />
<polyline points="199.5,318.5" stroke="black" stroke-width="1" fill="none" />
<polyline points="192.0,317.5,197.5,307.5,198.0,301.0,204.0,291.0,208.0,285.0,212.0,277.5,218.0,272.5,218.5,264.0,223.0,258.0,227.0,252.0,231.5,247.0,234.5,239.5,239.5,236.0,243.5,231.0,248.0,227.0,252.0,222.5,256.5,218.0,258.0,217.5" stroke="black" stroke-width="1" fill="none" />
<polyline points="264.0,222.0,268.5,228.0" stroke="black" stroke-width="1" fill="none" />
<polyline points="260.5,233.0,265.0,234.0,257.5,241.0" stroke="black" stroke-width="1" fill="none" />
<polyline points="262.0,239.0,262.0,234.5,262.0,230.5,262.0,226.0,262.0,224.5,255.5,225.0,252.5,229.0,248.5,233.5,245.5,236.0,240.5,243.0,236.5,248.0,232.5,253.5,228.5,258.5,224.5,265.0,220.0,269.5,215.0,281.0,214.5,283.0,216.0,279.0,218.5,276.5,221.5,273.0,223.0,267.0,223.5,262.5,226.0,257.5,234.0,257.5,236.0,252.5,236.5,248.5,240.5,243.5,243.5,240.0,244.0,238.5,250.5,232.0,257.5,228.5,259.5,223.0,262.0,219.0,263.5,215.5,263.0,214.5,264.0,212.0,264.5,208.5,268.0,204.0,271.0,199.0,270.5,193.0,270.5,190.5,268.5,186.0,265.0,192.0,261.0,197.0,257.0,201.5,255.0,203.5" stroke="yellow" stroke-width="1" fill="none" />
<polyline points="249.5,204.5,253.0,199.5,252.0,196.0" stroke="black" stroke-width="1" fill="none" />
<polyline points="260.5,199.0,259.0,207.0,257.0,214.0,253.0,217.5,248.5,223.5,244.5,226.5,240.5,231.0,234.5,235.5,233.0,236.0,232.5,236.0,231.5,230.5,233.5,227.5,230.0,219.5,228.0,219.5,227.5,214.0,225.5,214.0,224.0,212.5,225.5,206.5,226.5,202.5" stroke="black" stroke-width="1" fill="none" />
<polyline points="233.5,202.0,236.5,201.0,234.5,207.0,233.0,208.0" stroke="black" stroke-width="1" fill="none" />
<polyline points="235.5,198.5" stroke="black" stroke-width="1" fill="none" />
<polyline points="238.0,195.5,244.0,188.5,240.0,192.0" stroke="black" stroke-width="1" fill="none" />
<polyline points="243.0,200.0,247.0,194.5,251.0,191.5,257.5,188.5,250.0,189.0,246.0,194.0,243.5,194.0,248.0,190.5,253.0,186.5,255.0,184.5,257.5,187.5,260.5,185.5,264.5,182.5,267.0,183.5" stroke="black" stroke-width="1" fill="none" />
<polyline points="268.0,181.0,265.0,184.0,258.5,191.0,255.0,191.5,254.5,195.5,250.5,199.5,247.0,201.5,247.0,204.0,249.0,206.5,251.0,201.0,255.5,197.0,258.0,194.0,263.5,189.5,266.5,188.5,272.5,186.5,272.5,188.5" stroke="black" stroke-width="1" fill="none" />
<polyline points="268.5,189.0,263.0,192.0,259.0,195.5,256.5,202.5,260.5,198.0,263.0,195.0,266.5,190.0" stroke="black" stroke-width="1" fill="none" />
<polyline points="265.0,189.5,260.5,193.5,258.5,198.0,253.0,201.5,250.0,208.0,252.0,210.0,253.5,215.0,253.5,218.5" stroke="black" stroke-width="1" fill="none" />
<polyline points="263.5,207.5,266.0,203.0,262.5,202.0,261.5,208.0,259.0,207.0,255.5,213.5,255.0,216.0,253.0,223.5,247.5,226.5,244.0,230.0,243.0,231.5,237.0,238.5,234.5,238.5" stroke="green" stroke-width="1" fill="none" />
<polyline points="233.5,225.0,229.5,223.0" stroke="black" stroke-width="1" fill="none" />
<polyline points="232.5,222.5" stroke="black" stroke-width="1" fill="none" />
<polyline points="221.5,217.5,228.0,226.0" stroke="black" stroke-width="1" fill="none" />
<polyline points="219.0,231.5,219.5,234.5" stroke="black" stroke-width="1" fill="none" />
<polyline points="218.0,235.5,222.5,231.5,220.0,236.5,223.0,240.0,220.0,243.0,220.5,247.0" stroke="black" stroke-width="1" fill="none" />
<polyline points="222.5,253.0,224.0,245.5,223.5,243.0,225.0,238.5,229.5,234.0,222.0,234.5,222.5,231.0,221.0,230.5,220.5,224.0,220.5,222.0,220.0,217.5,218.0,213.0" stroke="black" stroke-width="1" fill="none" />
<polyline points="218.0,216.5,217.0,220.5,219.5,226.0,216.0,227.0,218.0,234.0,224.5,230.5,228.0,239.0,229.5,242.0" stroke="black" stroke-width="1" fill="none" />
<polyline points="231.0,245.0,228.0,248.0,222.0,255.5,219.5,263.0,212.5,267.5,210.0,274.5,206.0,280.5,202.0,288.0,198.0,295.0,194.5,303.0,189.0,313.5,186.5,316.5,184.0,324.0,178.0,326.0,174.0,328.5,172.5,331.5,168.5,332.0,162.0,339.0,158.0,341.5,154.0,344.5,150.0,350.5,145.0,346.0" stroke="black" stroke-width="1" fill="none" />
<polyline points="144.0,345.0,146.5,337.0,145.5,338.5,149.5,336.0,148.5,332.0,150.5,329.0,148.5,326.0" stroke="green" stroke-width="1" fill="none" />
<polyline points="153.0,327.0,153.0,333.0,153.0,337.0" stroke="black" stroke-width="1" fill="none" />
<polyline points="147.5,337.5,146.0,346.5,149.0,347.0,147.5,350.0" stroke="black" stroke-width="1" fill="none" />
<polyline points="144.0,348.0,137.5,346.0,135.5,339.5,136.0,338.0,135.0,334.5,135.5,329.0,133.0,326.5,131.5,323.0,132.5,318.5,130.5,315.0,130.0,311.0,128.5,304.0,130.5,299.5" stroke="orange" stroke-width="1" fill="none" />
<polyline points="133.0,302.0,132.0,298.5" stroke="black" stroke-width="1" fill="none" />
<polyline points="143.0,290.5,136.0,294.0,130.0,298.5,133.0,296.5" stroke="black" stroke-width="1" fill="none" />
<polyline points="126.0,298.5,128.5,293.0,132.5,291.0,137.5,289.5,135.5,290.0" stroke="black" stroke-width="1" fill="none" />
<polyline points="130.0,281.0,131.0,274.5,137.5,278.5,141.0,277.0" stroke="black" stroke-width="1" fill="none" />
<polyline points="140.5,274.5,143.0,272.0,150.0,268.5" stroke="black" stroke-width="1" fill="none" />
<polyline points="153.0,266.0,157.0,271.0" stroke="black" stroke-width="1" fill="none" />
<polyline points="151.0,270.5,156.5,272.5,158.5,271.0,165.5,280.5" stroke="black" stroke-width="1" fill="none" />
<polyline points="169.0,280.0,167.5,279.0,170.0,275.5,169.0,271.5,169.0,267.5,172.0,265.5,169.0,258.5,171.0,255.0,171.0,249.5,172.0,256.0" stroke="green" stroke-width="1" fill="none" />
<polyline points="164.5,256.0,168.0,252.5,176.0,248.0" stroke="black" stroke-width="1" fill="none" />
<polyline points="175.0,253.5,173.0,259.0,174.5,261.0,173.0,262.5" stroke="black" stroke-width="1" fill="none" />
<polyline points="177.5,262.0" stroke="black" stroke-width="1" fill="none" />
<polyline points="178.0,254.0,183.5,261.5,182.0,262.0" stroke="black" stroke-width="1" fill="none" />
<polyline points="182.0,264.0,179.5,260.0,179.5,261.5" stroke="black" stroke-width="1" fill="none" />
<polyline points="177.0,260.0,178.0,262.0" stroke="black" stroke-width="1" fill="none" />
<polyline points="186.5,255.5,186.0,258.5,185.0,262.0,185.5,266.0,188.5,267.0" stroke="orange" stroke-width="1" fill="none" />
<polyline points="202.5,262.5,205.5,264.0" stroke="black" stroke-width="1" fill="none" />
<polyline points="212.0,254.5,214.5,257.5,209.0,249.0,206.5,248.5,209.5,247.0,210.0,239.5,208.0,237.5,210.0,233.0,205.0,237.0" stroke="black" stroke-width="1" fill="none" />
<polyline points="209.5,237.5,208.5,235.0,209.5,240.0,209.0,243.5,211.0,243.0" stroke="black" stroke-width="1" fill="none" />
<polyline points="205.0,251.0,207.5,251.0,209.0,252.5" stroke="black" stroke-width="1" fill="none" />
<polyline points="206.5,251.5,212.0,253.0,212.5,257.5,211.0,256.5" stroke="black" stroke-width="1" fill="none" />
<polyline points="213.5,255.5,215.5,246.5,211.5,246.5,210.0,238.5,212.0,236.5,212.0,235.5" stroke="black" stroke-width="1" fill="none" />
<polyline points="213.5,236.5,213.5,238.5,211.0,247.0,211.0,247.5,214.0,251.0,212.5,253.5,216.0,259.0,214.0,254.0" stroke="black" stroke-width="1" fill="none" />
<polyline points="215.0,260.5,214.0,252.5,214.0,254.5,213.5,251.0" stroke="black" stroke-width="1" fill="none" />
<polyline points="203.5,266.0,202.0,262.5,196.5,260.0,196.5,254.5,192.5,250.0" stroke="black" stroke-width="1" fill="none" />
<polyline points="188.0,249.0,194.0,251.0,198.5,255.0,198.5,259.5,206.0,266.0" stroke="black" stroke-width="1" fill="none" />
<polyline points="187.5,272.5,185.5,270.0,184.0,266.0,185.0,262.5,183.5,258.0,181.0,251.5,184.5,250.0,185.5,242.5,187.5,240.5,192.0,236.5,197.5,234.5,194.0,239.0,189.5,243.0" stroke="black" stroke-width="1" fill="none" />
<polyline points="189.0,235.5,188.0,231.5,190.0,230.0,190.0,222.0,193.0,218.0,194.5,217.5,189.5,228.0" stroke="black" stroke-width="1" fill="none" />
<polyline points="184.5,223.5,190.5,216.0,186.0,219.0,186.5,225.0,186.5,228.5,187.0,232.5,188.5,236.5" stroke="black" stroke-width="1" fill="none" />
<polyline points="185.0,236.0,191.0,242.0" stroke="black" stroke-width="1" fill="none" />
<polyline points="198.0,235.0,195.0,243.0,191.0,244.5,189.0,246.0,192.5,243.0,196.5,238.5,201.0,233.5" stroke="black" stroke-width="1" fill="none" />
<polyline points="210.0,226.0" stroke="black" stroke-width="1" fill="none" />
<polyline points="213.5,220.5,209.5,214.5" stroke="black" stroke-width="1" fill="none" />
<polyline points="211.0,214.5,213.0,217.5,216.0,226.0,218.5,230.0,217.0,234.0" stroke="black" stroke-width="1" fill="none" />
<polyline points="218.5,203.0,225.5,201.5,226.5,198.0,223.0,202.5,219.5,205.0,219.5,211.5,220.0,212.0,223.5,218.0,225.5,222.0,228.5,228.0,230.0,230.0,233.5,233.0,232.0,237.5,233.5,239.5,231.5,245.5,227.0,246.5,226.0,252.5,223.0,256.0,222.0,261.5,218.5,263.5,216.0,267.0,214.0,271.0,211.0,275.5,208.0,279.5,205.5,283.5,203.0,287.5,201.0,292.0,201.0,297.5,196.0,301.5,195.5,304.0,193.5,308.0,192.0,312.0,189.0,316.5,192.0,322.0,195.5,321.5,199.5,318.5,204.5,314.0,208.5,309.5,212.5,303.0,216.5,297.0,219.0,292.0,224.5,286.5,228.5,281.5,235.0,278.5,238.0,271.0,241.5,268.0,247.0,262.0,249.5,259.5,253.5,256.0,257.0,252.5,261.5,249.0,265.5,246.5,269.5,244.0,276.0,247.0,278.5,247.5,283.0,250.0,286.5,250.0,289.0,250.0,295.0,255.5,301.0,256.0" stroke="black" stroke-width="1" fill="none" />
<polyline points="285.5,258.0,285.0,259.0,287.5,262.5" stroke="yellow" stroke-width="1" fill="none" />
<polyline points="285.5,261.0,289.0,268.5,291.5,275.0,292.5,274.0" stroke="black" stroke-width="1" fill="none" />
<polyline points="285.5,270.5" stroke="black" stroke-width="1" fill="none" />
<polyline points="287.0,267.5" stroke="black" stroke-width="1" fill="none" />
<polyline points="284.0,277.0,279.0,274.5,281.0,275.0" stroke="black" stroke-width="1" fill="none" />
<polyline points="287.5,273.5,284.5,270.5,281.0,266.5,276.5,267.0,273.0,263.5" stroke="black" stroke-width="1" fill="none" />
<polyline points="268.0,269.0,270.5,266.5,269.0,269.0,273.0,268.5" stroke="black" stroke-width="1" fill="none" />
<polyline points="271.5,267.0,266.5,270.0,262.5,267.5" stroke="yellow" stroke-width="1" fill="none" />
<polyline points="262.0,268.5,266.0,273.0,269.5,266.0,272.0,265.5,273.0,263.0,271.0,272.0,271.0,277.0,273.0,276.0,275.0,281.5" stroke="black" stroke-width="1" fill="none" />
<polyline points="263.0,280.5,265.5,278.5,258.5,274.0,259.0,270.5,259.5,268.0,257.5,269.0" stroke="black" stroke-width="1" fill="none" />
<polyline points="260.5,266.0,264.0,272.5,267.5,274.5,268.0,282.0,270.5,282.5" stroke="orange" stroke-width="1" fill="none" />
<polyline points="259.5,269.5,256.5,274.0,251.0,270.0,250.0,268.0,251.5,265.0" stroke="black" stroke-width="1" fill="none" />
<polyline points="248.0,268.0,251.0,266.5,250.0,270.5,254.0,274.5,256.5,278.5,263.5,277.5,267.5,278.5,270.5,277.0,274.5,279.5,279.0,280.0,283.5,272.5,280.0,276.0" stroke="black" stroke-width="1" fill="none" />
<polyline points="290.5,267.0,287.5,262.5,281.5,258.5,282.5,253.5,279.0,251.5" stroke="black" stroke-width="1" fill="none" />
<polyline points="277.5,257.0,276.5,250.5,273.5,249.0,267.5,251.5,265.0,253.0" stroke="black" stroke-width="1" fill="none" />
<polyline points="268.0,258.0,271.5,254.0" stroke="black" stroke-width="1" fill="none" />
<polyline points="276.0,258.5,273.0,257.0,270.0,256.5,266.0,258.0,261.5,254.5,259.5,258.0,255.0,260.0" stroke="black" stroke-width="1" fill="none" />
<polyline points="265.0,267.0,263.0,271.0,270.5,273.5" stroke="yellow" stroke-width="1" fill="none" />
<polyline points="281.0,267.5,284.5,271.5,286.0,275.5,289.5,279.0,285.5,279.5,289.0,276.5" stroke="black" stroke-width="1" fill="none" />
<polyline points="290.0,251.0" stroke="black" stroke-width="1" fill="none" />
<polyline points="273.5,243.5,268.5,243.5,260.0,247.5,256.5,252.5,253.5,258.5,248.0,262.5,244.5,266.5,239.5,268.5,237.0,274.0,235.5,278.5,231.0,282.0,225.5,287.5,222.5,288.5,221.0,296.0,215.5,297.5,213.0,302.0,212.0,305.5,207.0,309.0,203.5,312.5,202.5,316.5,202.5,321.5,195.5,324.5,193.5,328.5,191.5,333.0,188.5,336.5,185.5,340.5,184.0,345.5,179.5,349.0,175.0,355.0,175.5,356.0,170.0,362.5,166.5,368.0,163.5,371.5,161.5,374.0,159.0,378.0,156.0,386.0,163.5,391.5,165.5,393.5,172.0,397.5,173.5,403.5" stroke="black" stroke-width="1" fill="none" />
<polyline points="170.0,404.0,170.5,402.5,162.0,400.5,158.0,395.0,153.5,391.0" stroke="black" stroke-width="1" fill="none" />
<polyline points="157.0,383.5,150.5,383.0" stroke="black" stroke-width="1" fill="none" />
<polyline points="140.5,382.0,140.0,377.0,138.5,372.0" stroke="black" stroke-width="1" fill="none" />
<polyline points="136.5,377.5,139.0,381.0,143.0,380.0,146.0,380.5,146.5,385.0" stroke="green" stroke-width="1" fill="none" />
<polyline points="144.0,390.0,143.5,394.5,138.5,399.0,134.5,402.5,132.5,407.5,129.0,411.5,129.0,414.5,132.0,418.5,135.0,422.0,138.5,425.5,139.5,430.5,139.0,435.5,138.0,439.5,136.0,443.5,138.0,447.0,140.5,451.5,137.0,455.5,134.5,458.5,135.5,462.0,137.5,467.5,140.0,466.5,141.0,470.0,145.5,474.0,146.5,479.0,153.5,479.5,153.0,485.0,159.5,485.0,164.0,486.5" stroke="black" stroke-width="1" fill="none" />
<polyline points="166.0,460.0" stroke="black" stroke-width="1" fill="none" />
<polyline points="178.5,461.5,180.5,457.5,172.5,463.0,174.5,455.5,170.5,450.0,169.0,449.5,166.5,447.5,168.5,440.5,167.5,439.0,167.0,431.5,169.5,432.5" stroke="black" stroke-width="1" fill="none" />
<polyline points="169.5,433.5,160.0,433.5,160.5,434.0,163.0,426.5" stroke="black" stroke-width="1" fill="none" />
<polyline points="159.0,427.5,159.0,423.5,160.5,419.5,161.0,426.0,160.5,420.0,163.5,416.0,161.5,413.5,162.0,409.5,160.5,406.0,161.0,402.0,161.5,397.5,158.5,394.5,155.5,388.5,155.5,383.5,153.0,379.5,152.5,378.0,153.0,370.5,153.0,368.5,149.0,362.5" stroke="black" stroke-width="1" fill="none" />
<polyline points="147.5,361.0,150.5,365.0,150.5,366.5,150.0,372.0,154.0,377.5,152.0,379.0,150.5,381.0,151.0,385.0,155.5,389.0,158.5,393.0,161.0,398.5,168.5,399.0,173.0,402.0,174.5,408.5" stroke="black" stroke-width="1" fill="none" />
<polyline points="168.5,417.0,171.5,420.0,176.0,426.0,176.5,429.5,173.0,433.0,171.0,437.5,171.5,439.0,169.5,440.5,172.5,447.0,173.5,452.5,173.0,451.5,176.0,459.0,174.0,462.0,174.5,468.0,171.0,464.5,172.5,469.5" stroke="black" stroke-width="1" fill="none" />
<polyline points="172.5,463.0,170.0,451.0,167.0,449.5" stroke="black" stroke-width="1" fill="none" />
<polyline points="165.0,447.0,164.0,451.0,166.5,454.5,168.5,457.5,171.5,461.5,168.5,464.5,167.5,468.5,161.0,468.5,164.0,475.0,163.0,479.5,160.5,480.5,160.5,483.5,159.5,487.5,160.5,492.0,164.5,496.0,164.5,499.0,169.5,504.5,172.5,511.5,174.0,514.5" stroke="black" stroke-width="1" fill="none" />
<polyline points="155.5,465.0,158.0,468.5,148.0,460.5" stroke="black" stroke-width="1" fill="none" />
<polyline points="150.0,460.5,153.0,463.0,157.5,465.5" stroke="black" stroke-width="1" fill="none" />
<polyline points="159.0,460.5" stroke="black" stroke-width="1" fill="none" />
<polyline points="159.0,462.0,150.0,456.5,152.5,453.5,154.0,453.0,151.0,447.5,149.5,446.0,146.5,442.0,144.5,435.5,146.5,433.0,142.5,427.0,140.5,423.5,138.0,423.0,134.0,416.0,130.0,414.0" stroke="black" stroke-width="1" fill="none" />
<polyline points="130.0,410.5,133.5,407.5,141.5,403.5,145.0,400.0" stroke="black" stroke-width="1" fill="none" />
<polyline points="143.0,398.5,142.0,399.5" stroke="green" stroke-width="1" fill="none" />
<polyline points="141.5,398.5,142.0,404.5,146.0,408.5,148.5,411.0" stroke="black" stroke-width="1" fill="none" />
<polyline points="156.0,421.0,153.5,423.0,156.5,427.0,157.0,432.5,157.0,435.0,156.0,439.0,153.0,439.0" stroke="black" stroke-width="1" fill="none" />
<polyline points="165.0,441.5,168.5,445.5,172.5,445.5,176.0,441.0,180.0,437.5,182.0,432.0" stroke="black" stroke-width="1" fill="none" />
<polyline points="172.5,423.5,176.5,425.0,175.0,417.5,174.5,418.0,172.5,414.0,163.5,409.5,165.0,409.0,163.0,402.5,161.5,397.5" stroke="yellow" stroke-width="1" fill="none" />
<polyline points="167.0,405.0,172.0,407.5,173.5,415.0,172.5,420.0,169.5,422.0,166.5,428.0,163.0,427.0,164.5,430.0,164.5,434.5,160.0,437.0,164.0,431.5,165.0,429.5,170.5,427.0,171.5,428.5" stroke="black" stroke-width="1" fill="none" />
<polyline points="168.0,425.0,169.5,429.0,171.0,433.0,170.0,436.5,167.0,436.5,174.0,437.0" stroke="black" stroke-width="1" fill="none" />
<polyline points="163.5,441.5,163.5,441.5,158.5,447.0,157.0,453.0,159.5,454.5,162.5,454.5,163.5,461.5,163.0,460.5" stroke="black" stroke-width="1" fill="none" />
<polyline points="163.0,458.0,161.5,458.0,163.5,451.5,164.5,452.0,158.5,452.5,160.0,448.5,156.5,448.5" stroke="black" stroke-width="1" fill="none" />
<polyline points="149.0,455.5" stroke="black" stroke-width="1" fill="none" />
<polyline points="143.0,447.0,149.0,453.0,153.5,454.5,152.0,458.5,153.0,455.5,157.0,456.5,162.5,454.5" stroke="black" stroke-width="1" fill="none" />
<polyline points="155.5,451.5,152.0,450.5,146.0,447.5,145.0,447.5,146.5,447.0" stroke="black" stroke-width="1" fill="none" />
<polyline points="146.0,449.0,147.0,453.0,149.5,457.0,150.5,462.0,151.5,465.5,150.5,468.5,154.5,471.0,156.5,476.0,156.0,478.5,157.5,478.5,164.0,478.0" stroke="orange" stroke-width="1" fill="none" />
<polyline points="153.5,475.0,152.0,471.5,147.5,465.0,146.5,467.5" stroke="black" stroke-width="1" fill="none" />
<polyline points="149.5,467.5,152.0,472.0" stroke="black" stroke-width="1" fill="none" />
<polyline points="153.5,474.5,150.0,473.5,144.0,470.0,144.5,466.0,138.0,463.5" stroke="black" stroke-width="1" fill="none" />
<polyline points="139.5,453.5,142.0,457.5,145.5,460.5,145.5,463.0,144.0,470.5,145.0,473.0,151.0,477.0,155.5,481.0" stroke="black" stroke-width="1" fill="none" />
<polyline points="167.0,472.0,166.5,475.5,159.5,475.5,161.0,476.5,157.0,471.0,157.0,468.0,153.5,468.0,149.0,460.0" stroke="black" stroke-width="1" fill="none" />
<polyline points="140.5,451.5,143.0,455.5,145.5,457.0,146.5,462.5,147.5,466.5,148.5,470.5,151.5,471.5,155.0,477.5,158.0,478.0,156.0,485.0,157.0,486.5,162.0,490.5,164.5,497.0,163.5,498.5,165.5,502.5,165.0,506.0,165.5,507.5" stroke="yellow" stroke-width="1" fill="none" />
<polyline points="169.0,460.0,170.0,454.5,166.0,454.0,163.0,448.5,159.0,450.5,156.0,448.0,156.0,449.5,157.0,445.5,154.5,441.5,154.5,437.0,152.5,437.0,149.5,431.5,147.0,429.5,150.5,427.0,143.5,422.5,139.0,420.5" stroke="black" stroke-width="1" fill="none" />
<polyline points="139.5,420.5,144.5,424.0" stroke="black" stroke-width="1" fill="none" />
<polyline points="142.5,425.0,144.0,430.0" stroke="black" stroke-width="1" fill="none" />
<polyline points="146.0,418.0,143.0,412.5,138.5,409.0" stroke="black" stroke-width="1" fill="none" />
<polyline points="137.0,411.0,142.5,412.5,145.0,417.5,146.5,423.5,150.5,425.0,149.5,428.5,151.0,429.0" stroke="orange" stroke-width="1" fill="none" />
<polyline points="154.5,423.0,150.5,418.5,151.5,413.5,150.5,405.5,149.0,400.5,148.5,397.5,148.5,394.5,148.5,396.0" stroke="green" stroke-width="1" fill="none" />
<polyline points="150.5,396.0" stroke="black" stroke-width="1" fill="none" />
<polyline points="151.5,396.0,157.5,399.5" stroke="black" stroke-width="1" fill="none" />
<polyline points="149.0,400.5,145.5,396.5,141.0,395.5,137.0,401.5,128.0,402.5,126.5,399.5,122.5,398.5,118.5,395.0" stroke="black" stroke-width="1" fill="none" />
<polyline points="118.5,393.0,124.5,395.0,122.5,402.5,127.0,400.5" stroke="black" stroke-width="1" fill="none" />
<polyline points="130.5,407.0,134.5,403.0,137.5,395.0,139.0,394.5,142.0,387.5,142.0,386.5,143.5,383.0,143.5,378.5,144.0,376.0,148.5,372.0,149.0,367.0,147.0,363.5,146.5,359.5,144.0,357.0,144.5,354.0,142.0,348.5,141.5,343.5,139.5,342.0,137.5,337.0,137.0,333.5,138.0,327.0,136.5,324.0,134.5,317.5,135.5,314.5,133.5,312.0,131.5,308.5,130.5,304.5,131.0,294.5,132.5,293.0,135.5,291.0,139.5,289.5,130.0,283.5,126.0,278.0" stroke="black" stroke-width="1" fill="none" />
<polyline points="126.0,271.0,127.5,275.5,129.5,281.5,130.0,285.5,128.5,287.5,126.0,292.5,124.0,296.5,122.5,300.5,125.0,304.5,122.0,308.0,121.0,312.5,121.5,316.5,121.0,322.0,122.0,322.0,123.0,328.5,123.0,332.5,123.5,338.0" stroke="black" stroke-width="1" fill="none" />
<polyline points="120.0,338.5,119.5,341.5" stroke="black" stroke-width="1" fill="none" />
<polyline points="116.5,345.5,120.0,348.0,121.5,357.5,120.5,361.0,119.0,364.5,118.0,368.5,117.5,372.5,117.5,376.5,117.0,381.0,118.0,385.5,116.0,391.5,117.0,393.5,119.0,397.5,123.0,402.5" stroke="yellow" stroke-width="1" fill="none" />
<polyline points="128.0,403.5,122.5,401.5,121.0,397.5,120.0,391.0,121.5,388.0,122.5,381.5,120.5,379.0,121.5,377.0,118.5,376.0,118.0,372.0,119.0,373.0" stroke="black" stroke-width="1" fill="none" />
<polyline points="119.5,370.0,123.0,373.5,123.0,379.0,127.0,383.0,130.5,385.0" stroke="black" stroke-width="1" fill="none" />
<polyline points="124.0,383.0,124.5,387.0,126.0,388.0,124.5,390.5,128.0,396.0" stroke="black" stroke-width="1" fill="none" />
<polyline points="127.0,393.5,128.5,394.5,131.0,394.0,136.5,392.0,136.5,393.5" stroke="yellow" stroke-width="1" fill="none" />
<polyline points="133.5,390.5,126.5,388.0,125.0,390.5" stroke="black" stroke-width="1" fill="none" />
<polyline points="116.0,400.0,117.0,399.5,120.5,406.5" stroke="black" stroke-width="1" fill="none" />
<polyline points="112.5,413.5,116.5,413.5,120.5,412.0,125.0,406.5,127.0,404.5,127.5,411.0,126.0,414.5,130.0,416.0,129.0,422.0" stroke="yellow" stroke-width="1" fill="none" />
<polyline points="131.5,429.5,130.0,426.5,131.5,420.0,129.5,414.0" stroke="black" stroke-width="1" fill="none" />
<polyline points="133.0,408.0,135.5,405.5" stroke="black" stroke-width="1" fill="none" />
<polyline points="140.0,403.5,143.5,407.0,148.0,412.5,150.0,410.5" stroke="black" stroke-width="1" fill="none" />
<polyline points="144.0,406.0,139.0,403.0,140.5,400.5" stroke="black" stroke-width="1" fill="none" />
<polyline points="143.0,400.5,141.5,403.5,145.5,406.0" stroke="black" stroke-width="1" fill="none" />
<polyline points="150.0,406.0,148.5,397.5,145.0,396.0" stroke="black" stroke-width="1" fill="none" />
<polyline points="166.0,395.5,169.0,402.0,172.5,401.0,173.5,405.0,174.0,408.0,179.0,414.5,178.0,417.5,179.5,424.0,179.0,425.0,179.5,427.5" stroke="orange" stroke-width="1" fill="none" />
<polyline points="173.0,422.5,174.5,413.0,163.0,413.5,160.5,410.0,155.0,405.5,151.0,401.5,148.0,396.5,148.0,390.0,143.0,384.5,141.0,391.0,139.5,388.0,136.0,382.0,142.5,383.5,139.5,379.5,136.0,373.0,134.0,373.5,138.0,368.0,139.5,361.5,142.0,359.5,142.5,356.0,142.5,353.0,136.5,352.5,134.5,346.0,131.0,342.0,131.0,336.5,130.5,334.0,132.0,330.0,130.5,326.0,128.5,318.5" stroke="black" stroke-width="1" fill="none" />
<polyline points="118.5,324.5,120.0,327.0,120.5,333.5,121.5,338.5,121.5,339.5,122.0,340.0,122.0,345.5" stroke="black" stroke-width="1" fill="none" />
<polyline points="118.5,337.5,117.5,340.0,115.5,343.0,119.5,347.5,121.5,353.5,121.5,357.5,123.0,361.0,125.0,366.5,125.5,369.0,126.5,372.0,130.5,377.5,131.0,382.5,133.0,385.5,137.0,385.5,137.5,391.5" stroke="black" stroke-width="1" fill="none" />
<polyline points="139.0,363.5" stroke="orange" stroke-width="1" fill="none" />
<polyline points="145.5,367.5" stroke="black" stroke-width="1" fill="none" />
<polyline points="135.0,362.5,132.0,356.0" stroke="green" stroke-width="1" fill="none" />
<polyline points="134.5,355.5,130.5,352.0" stroke="black" stroke-width="1" fill="none" />
<polyline points="133.0,352.0,132.5,358.5,136.0,362.5,137.0,369.0" stroke="green" stroke-width="1" fill="none" />
<polyline points="143.0,361.5,140.5,356.5,138.0,352.0,140.0,348.5,136.0,344.5,135.5,340.0,135.5,335.5,133.5,332.0,124.5,333.0" stroke="black" stroke-width="1" fill="none" />
<polyline points="129.0,340.0,130.0,341.5,135.5,339.0,140.0,344.5" stroke="black" stroke-width="1" fill="none" />
<polyline points="140.5,343.5,141.0,339.5,139.5,330.5" stroke="black" stroke-width="1" fill="none" />
<polyline points="129.0,342.5,135.5,347.5,134.5,351.5" stroke="black" stroke-width="1" fill="none" />
<polyline points="131.0,348.0,126.0,341.0" stroke="orange" stroke-width="1" fill="none" />
<polyline points="114.0,343.0,115.0,347.0,116.0,350.0,114.0,357.0,114.5,357.0,116.0,362.0,115.5,366.5,116.0,371.0,115.0,374.5,115.0,379.0,116.0,384.0,115.0,387.0,115.0,391.0,117.0,396.0,118.0,401.5,121.0,403.5,120.0,408.0,115.5,409.5,110.5,413.5,113.5,412.0,117.5,410.5,121.5,406.0" stroke="black" stroke-width="1" fill="none" />
<polyline points="126.5,409.5,121.5,411.5" stroke="black" stroke-width="1" fill="none" />
<polyline points="121.0,415.0,124.5,422.0,131.5,426.5" stroke="green" stroke-width="1" fill="none" />
<polyline points="130.5,429.0,124.0,424.5" stroke="black" stroke-width="1" fill="none" />
<polyline points="122.5,418.5,124.0,422.0,124.5,425.5" stroke="black" stroke-width="1" fill="none" />
<polyline points="121.5,431.0,119.0,433.5,119.0,439.0,117.5,443.0,118.5,443.5,119.0,437.5,119.0,439.5" stroke="black" stroke-width="1" fill="none" />
<polyline points="119.5,439.5,121.0,440.0,119.0,444.0" stroke="black" stroke-width="1" fill="none" />
<polyline points="121.0,452.5,123.5,456.0,124.0,454.5" stroke="black" stroke-width="1" fill="none" />
<polyline points="124.0,450.5,122.0,452.0" stroke="black" stroke-width="1" fill="none" />
<polyline points="106.5,450.0,109.5,445.5,108.5,441.5,106.5,439.5" stroke="black" stroke-width="1" fill="none" />
<polyline points="103.0,438.0,105.0,443.0,101.0,446.0" stroke="black" stroke-width="1" fill="none" />
<polyline points="96.0,450.0,91.0,456.5,85.0,457.5,86.0,455.5,90.5,454.5,94.5,450.0,92.5,452.0" stroke="yellow" stroke-width="1" fill="none" />
<polyline points="85.5,457.5,86.5,460.0,91.0,457.5,97.0,453.5" stroke="black" stroke-width="1" fill="none" />
<polyline points="98.5,466.0,92.5,471.5,90.0,472.0,94.5,467.5" stroke="yellow" stroke-width="1" fill="none" />
<polyline points="97.5,491.5,98.5,495.5,97.5,499.5,99.5,502.0,102.5,506.5,106.5,511.0,103.5,510.0" stroke="black" stroke-width="1" fill="none" />
<polyline points="108.0,512.0,109.0,506.0,113.0,504.0,111.0,497.0,110.5,494.5,112.5,489.5,114.0,486.5" stroke="black" stroke-width="1" fill="none" />
<polyline points="115.0,489.0,115.0,493.0,114.5,497.0,112.5,498.5,110.5,505.0,113.5,511.0,110.5,512.5" stroke="black" stroke-width="1" fill="none" />
<polyline points="104.5,505.5,98.0,505.0" stroke="black" stroke-width="1" fill="none" />
<polyline points="101.0,491.0,98.5,496.5,99.0,500.5,101.5,504.5,107.5,509.5" stroke="black" stroke-width="1" fill="none" />
<polyline points="119.5,511.0,118.5,505.0,119.5,503.5,120.5,499.5,119.0,494.5,119.5,491.5,120.0,487.5,121.5,482.0" stroke="black" stroke-width="1" fill="none" />
<polyline points="124.0,481.5,124.0,486.5,127.0,492.0,128.5,495.0,131.0,498.5,130.5,505.0,132.0,507.0,136.5,511.5" stroke="yellow" stroke-width="1" fill="none" />
<polyline points="151.5,450.5,153.0,448.0,148.5,443.0,147.0,440.5,139.5,428.0,134.5,424.5,128.5,423.5" stroke="black" stroke-width="1" fill="none" />
<polyline points="134.0,423.0,137.0,421.5,136.0,428.0,137.0,432.0,137.5,436.0,141.0,441.5,142.5,445.5,140.5,449.0,138.0,453.5,136.5,457.5,135.0,461.5,132.0,467.5,134.5,457.0" stroke="green" stroke-width="1" fill="none" />
<polyline points="139.5,435.0,139.5,428.5,138.5,428.0,135.5,426.5" stroke="orange" stroke-width="1" fill="none" />
<polyline points="128.5,431.0,124.5,425.5,122.0,421.5,122.5,415.0" stroke="black" stroke-width="1" fill="none" />
<polyline points="111.0,418.5,111.5,421.0,113.0,426.5,113.5,428.0,117.5,433.5" stroke="black" stroke-width="1" fill="none" />
<polyline points="113.0,428.5" stroke="orange" stroke-width="1" fill="none" />
<polyline points="108.5,417.5,109.5,421.5,109.5,425.0,108.5,429.0,108.5,433.0,108.0,435.0,106.0,441.0,104.5,449.5" stroke="black" stroke-width="1" fill="none" />
<polyline points="103.5,435.5,102.0,437.5,96.5,444.0,93.0,442.5,94.0,447.5,94.5,443.5,100.0,437.0,105.5,437.5,103.5,433.5,106.0,429.5,107.5,422.5,105.0,418.5,108.5,416.5,106.5,418.0" stroke="black" stroke-width="1" fill="none" />
<polyline points="93.5,416.5,89.5,420.5,89.0,425.5,88.5,423.0" stroke="black" stroke-width="1" fill="none" />
<polyline points="88.5,424.0,86.5,424.0,89.5,422.5,91.0,418.5,88.5,419.0" stroke="black" stroke-width="1" fill="none" />
<polyline points="97.5,404.5" stroke="orange" stroke-width="1" fill="none" />
<polyline points="97.0,400.0,95.5,398.0" stroke="black" stroke-width="1" fill="none" />
<polyline points="91.5,396.0,88.5,398.0,93.5,402.0" stroke="black" stroke-width="1" fill="none" />
<polyline points="102.5,407.5,96.5,410.0,96.0,407.5,96.0,404.5,95.0,402.0,93.5,400.5,91.5,397.5,89.0,389.5,92.0,389.0,90.0,384.0,85.5,385.5,87.5,384.0" stroke="black" stroke-width="1" fill="none" />
<polyline points="81.5,387.0,79.0,393.5,75.5,399.0,71.5,403.0,72.0,405.5,71.5,409.5,71.5,414.0,70.5,415.0,67.5,416.0,70.0,422.5,67.0,425.5,69.0,425.5,69.5,427.5,70.5,430.0,70.0,434.0,68.5,438.5,68.5,444.5,70.0,447.0,70.5,451.0,72.0,452.5,70.5,459.0,70.5,463.0,69.5,467.0,69.0,468.5,64.5,476.5,64.0,480.0,66.0,484.0,65.0,487.5,65.0,492.0,63.5,498.5,65.5,500.0,62.5,504.5,62.5,508.0,62.5,512.5,63.0,511.0,64.0,505.5" stroke="black" stroke-width="1" fill="none" />
<polyline points="62.5,504.0,64.5,511.0,66.0,514.5" stroke="green" stroke-width="1" fill="none" />
<polyline points="73.5,493.5,73.0,489.0,75.0,486.0,73.5,481.0,71.5,477.5" stroke="black" stroke-width="1" fill="none" />
<polyline points="64.5,475.0,66.5,476.0,67.5,477.0,67.5,481.0,65.0,483.0,67.0,486.0,67.5,490.0,67.0,497.0" stroke="black" stroke-width="1" fill="none" />
<polyline points="71.0,466.5,72.5,461.5,72.5,457.0,75.5,454.0,75.0,457.0" stroke="black" stroke-width="1" fill="none" />
<polyline points="72.5,454.5,73.0,460.5,73.0,464.5,75.5,468.5,75.0,473.0" stroke="black" stroke-width="1" fill="none" />
<polyline points="66.5,454.5,66.5,450.5" stroke="black" stroke-width="1" fill="none" />
<polyline points="62.5,450.5,66.0,459.5,67.0,463.0,66.0,465.0,67.0,465.0,70.0,474.5,69.5,478.5,69.5,483.0" stroke="yellow" stroke-width="1" fill="none" />
<polyline points="31.5,491.0,30.0,499.0,30.0,500.5,35.0,504.5" stroke="orange" stroke-width="1" fill="none" />
<polyline points="17.0,504.5,19.0,500.5,16.0,502.0" stroke="yellow" stroke-width="1" fill="none" />
<polyline points="14.5,503.0,14.5,496.0,15.5,494.0" stroke="black" stroke-width="1" fill="none" />
<polyline points="10.5,429.0,11.0,422.5" stroke="black" stroke-width="1" fill="none" />
<polyline points="5.5,419.0,8.0,422.5,8.5,427.5,11.0,429.5,12.0,435.0,12.5,440.0,13.0,443.5,13.0,445.5,12.5,448.5,13.5,452.0,13.5,457.5,16.0,460.0,16.0,463.0,15.5,468.0,16.0,472.0,14.5,478.5,14.0,478.5" stroke="orange" stroke-width="1" fill="none" />
<polyline points="37.5,460.5,35.5,458.5,35.0,454.5,34.5,451.0,33.5,444.5,33.0,441.5,32.0,437.0,32.0,433.0,31.5,430.0,32.0,424.5" stroke="black" stroke-width="1" fill="none" />
<polyline points="27.5,418.5,22.5,412.0" stroke="black" stroke-width="1" fill="none" />
<polyline points="24.0,411.5,26.5,415.5,27.0,420.0,27.0,424.0,26.0,427.0,27.0,432.0,26.5,436.0,26.5,442.5,29.5,442.5,27.0,450.5,27.5,453.0,27.5,456.0,29.0,462.0,28.0,464.0,29.5,468.0,29.5,472.5,28.5,476.5,30.5,480.5,29.5,485.5,31.5,487.0,29.5,492.5,31.5,496.5,32.0,500.0,31.0,503.5" stroke="yellow" stroke-width="1" fill="none" />
<polyline points="67.0,434.0,67.5,433.0,68.5,437.0,70.0,435.5" stroke="black" stroke-width="1" fill="none" />
<polyline points="69.0,422.5,65.5,424.0,68.5,421.5,70.5,417.0,67.0,411.5,66.0,408.5,70.0,405.0,80.0,399.5,74.5,397.5,77.5,397.5,72.5,399.0" stroke="black" stroke-width="1" fill="none" />
<polyline points="72.5,406.0,76.5,402.5,80.0,397.5" stroke="orange" stroke-width="1" fill="none" />
<polyline points="78.5,390.0,77.5,397.5,76.0,400.0,70.0,405.0" stroke="black" stroke-width="1" fill="none" />
<polyline points="68.0,413.0,71.0,403.0,69.0,408.5,68.5,412.5,68.0,416.5,66.5,420.5" stroke="black" stroke-width="1" fill="none" />
<polyline points="73.0,419.5,74.5,425.5,74.0,424.0" stroke="green" stroke-width="1" fill="none" />
<polyline points="102.5,435.5,99.0,441.0,95.5,439.5,102.0,439.0" stroke="black" stroke-width="1" fill="none" />
<polyline points="110.0,409.5,112.0,407.0,108.5,405.0,111.5,403.0,112.5,402.0" stroke="black" stroke-width="1" fill="none" />
<polyline points="106.5,394.5,109.5,396.5,107.5,400.5,109.0,406.0,106.0,410.0,98.5,414.5,99.0,413.0" stroke="black" stroke-width="1" fill="none" />
<polyline points="106.0,402.5,107.5,400.0,103.0,396.5,104.0,392.0,107.5,393.5" stroke="black" stroke-width="1" fill="none" />
<polyline points="105.5,380.0,106.5,376.0,107.0,370.5,106.5,368.0,107.0,363.0,109.5,360.0,109.0,358.0,107.0,350.0,106.0,345.0,103.5,339.0,108.0,341.0,108.0,342.0" stroke="black" stroke-width="1" fill="none" />
<polyline points="100.5,342.0,105.5,336.5,108.5,333.5,112.5,329.5" stroke="black" stroke-width="1" fill="none" />
<polyline points="119.0,321.5,116.0,328.5,117.5,329.0" stroke="black" stroke-width="1" fill="none" />
<polyline points="105.0,318.0,107.5,322.5,111.0,315.5,113.5,315.5,117.5,309.0,118.0,309.5,117.0,316.0,111.5,317.5,109.0,324.5,105.0,320.5,108.0,313.0,110.5,313.0,111.5,315.5,104.0,318.5,102.0,325.5,109.5,319.5,112.0,314.5,115.5,309.5" stroke="green" stroke-width="1" fill="none" />
<polyline points="120.0,308.5,119.5,310.5,116.5,316.5,114.0,320.5,113.5,322.5,111.0,329.5,105.5,333.0,101.0,337.0,96.5,341.5,100.0,342.0" stroke="black" stroke-width="1" fill="none" />
<polyline points="99.0,349.0" stroke="black" stroke-width="1" fill="none" />
<polyline points="94.0,359.0,93.0,360.5,95.0,365.5,94.0,369.5,93.0,373.0,92.5,377.0,89.0,381.5,88.0,385.0,87.0,387.5,88.0,391.5,88.0,395.0,90.0,399.5,93.0,404.0,93.0,409.0,92.0,409.5,96.5,413.0,101.0,412.0,105.0,411.5,109.0,407.5,113.5,403.0" stroke="black" stroke-width="1" fill="none" />
<polyline points="129.0,375.5,123.0,368.0,121.5,362.0" stroke="yellow" stroke-width="1" fill="none" />
<polyline points="121.0,362.5,119.0,370.5,123.5,373.5,126.5,378.5,131.0,382.5,132.0,387.0,133.0,391.5,133.0,393.5,135.0,395.5" stroke="black" stroke-width="1" fill="none" />
<polyline points="128.5,375.5,123.0,369.5,120.5,363.5" stroke="black" stroke-width="1" fill="none" />
<polyline points="119.5,363.5,124.0,372.5,122.5,371.0,126.5,377.5" stroke="black" stroke-width="1" fill="none" />
<polyline points="133.5,363.0,129.5,359.5,125.5,360.0" stroke="black" stroke-width="1" fill="none" />
<polyline points="123.5,353.5,126.0,362.0,125.0,363.0,130.5,365.0,130.5,368.5,135.0,368.5,139.5,368.5,147.0,372.5" stroke="black" stroke-width="1" fill="none" />
<polyline points="162.5,364.0,166.0,362.5,171.0,357.0,177.0,354.5,179.0,347.0,184.5,343.0,186.5,335.0" stroke="green" stroke-width="1" fill="none" />
<polyline points="191.5,329.0,184.5,330.0,180.0,331.5,176.0,337.5,172.0,343.5,167.5,347.0,165.0,354.5,161.0,360.0,159.5,369.5,159.5,365.5,167.0,361.0,170.5,358.0,174.0,353.5,177.5,349.0,178.5,344.0,183.0,341.0,185.0,337.5,184.5,335.0,189.5,334.0,191.0,329.5" stroke="green" stroke-width="1" fill="none" />
<polyline points="188.5,347.0,190.5,343.5,191.5,349.5,192.5,354.0" stroke="yellow" stroke-width="1" fill="none" />
<polyline points="195.0,353.0,194.0,355.5,193.5,351.5,192.0,348.0" stroke="black" stroke-width="1" fill="none" />
<polyline points="165.0,357.0,160.5,364.0,165.0,360.0" stroke="black" stroke-width="1" fill="none" />
<polyline points="165.0,365.0,167.5,361.5,163.5,367.0,162.0,366.5,160.0,363.0,162.0,359.0,165.5,353.0,168.0,351.0,171.0,347.0,174.5,342.5,177.5,337.5,177.5,332.5,181.0,332.0,179.0,333.0,172.0,332.0,170.5,336.0,164.5,339.5,168.0,336.0,165.0,331.5,164.5,331.5" stroke="black" stroke-width="1" fill="none" />
<polyline points="163.5,331.5,162.0,338.0,159.5,334.5,160.0,329.0,164.5,326.0,166.5,322.0" stroke="yellow" stroke-width="1" fill="none" />
<polyline points="165.5,318.5,167.5,322.5,171.5,319.5" stroke="black" stroke-width="1" fill="none" />
<polyline points="173.5,316.5,171.0,317.5,165.5,324.0,166.0,321.5,164.5,325.5,159.0,332.5,154.0,337.0,153.0,341.0,149.0,336.5,142.5,345.5,143.0,340.0,142.0,336.0,137.0,335.0,136.5,330.5,139.5,326.0,136.0,321.0,135.0,317.0,133.5,311.0,130.5,309.0,131.5,304.5,131.5,303.0,133.5,299.5,135.0,295.5,139.0,291.5,139.5,288.5,142.5,283.5,140.0,281.5,137.0,279.5,134.5,280.0,138.5,282.0,141.0,278.5,148.0,275.5,142.0,272.0,146.0,268.0,151.5,264.5,157.0,258.0,158.0,255.0,162.0,247.5,163.0,245.0,159.5,244.0,153.5,251.0,153.5,251.0" stroke="black" stroke-width="1" fill="none" />
<polyline points="149.0,251.0,146.0,250.5" stroke="black" stroke-width="1" fill="none" />
<polyline points="142.5,254.0,144.5,252.5,148.5,249.0,148.0,249.0,143.0,252.0,148.0,254.0,149.0,258.0" stroke="black" stroke-width="1" fill="none" />
<polyline points="146.5,269.5,142.5,271.5" stroke="black" stroke-width="1" fill="none" />
<polyline points="149.5,272.0,154.0,267.0,158.0,262.0,163.0,256.0,158.0,258.0,157.0,261.0,152.5,266.0,148.5,270.0,149.5,272.0,147.5,278.0,147.5,283.0,148.0,285.5,154.0,287.5,158.5,288.5,164.5,295.0,163.5,300.5,159.0,303.0,158.0,308.5,159.0,314.0,158.5,315.5,157.5,319.0,156.0,318.0,164.0,317.0,164.5,316.0,165.5,312.5,169.0,310.5,172.5,306.5,172.5,300.5,178.5,294.0" stroke="black" stroke-width="1" fill="none" />
<polyline points="180.0,300.5,179.5,301.0,181.5,304.5" stroke="black" stroke-width="1" fill="none" />
<polyline points="179.5,306.0,181.0,310.5,174.0,304.0" stroke="black" stroke-width="1" fill="none" />
<polyline points="176.0,300.5,176.5,298.5,181.5,305.5,183.5,310.5,181.0,311.5,182.5,313.5" stroke="black" stroke-width="1" fill="none" />
<polyline points="167.0,315.0,166.0,314.0,169.5,316.5,171.0,312.5" stroke="black" stroke-width="1" fill="none" />
<polyline points="163.5,302.5,165.0,296.5,169.0,293.0,172.5,288.0,170.5,287.5,166.5,286.5,167.0,289.5,160.5,292.0,165.5,286.0,169.0,280.0,173.5,277.0,174.0,280.0,174.0,281.0,168.0,282.5,166.0,282.5,163.5,286.5,162.5,286.0,164.5,283.5,162.5,280.5,166.0,274.0,162.0,275.5,163.5,271.0,164.0,267.0,167.5,263.5,166.5,258.0,167.5,256.0,171.0,253.5,176.0,247.5,174.5,244.0,174.5,239.5,174.5,236.5,178.5,233.0,176.0,236.0,174.5,233.5" stroke="black" stroke-width="1" fill="none" />
<polyline points="178.5,234.5,180.0,238.0,177.0,242.5,177.0,245.5,179.0,249.5,177.0,252.5,180.5,257.0,180.5,259.5" stroke="black" stroke-width="1" fill="none" />
<polyline points="185.0,255.5,184.5,249.0,194.0,252.5,192.0,256.0,193.0,257.0,196.5,263.0,203.0,266.5" stroke="yellow" stroke-width="1" fill="none" />
<polyline points="224.0,271.5,220.5,274.5,224.0,271.5,228.5,270.5" stroke="black" stroke-width="1" fill="none" />
<polyline points="219.5,306.0,218.0,310.0,218.5,316.0,217.5,318.0,219.0,320.0,219.0,326.5,216.0,328.5,217.0,334.0,217.0,338.0,218.0,344.0,218.0,346.0,218.0,350.0,218.5,354.5,217.0,355.0" stroke="black" stroke-width="1" fill="none" />
<polyline points="251.5,381.0,252.5,383.5,257.0,384.5,261.0,384.5,265.0,385.0,266.0,384.5" stroke="black" stroke-width="1" fill="none" />
<polyline points="268.0,386.5,262.5,389.5,258.0,389.5,254.5,389.0,251.0,389.0,246.5,388.5,243.0,393.0,243.0,390.5" stroke="black" stroke-width="1" fill="none" />
<polyline points="273.0,352.5,276.0,355.5" stroke="black" stroke-width="1" fill="none" />
<polyline points="277.0,350.0,275.5,350.0,271.5,351.0,266.5,353.5" stroke="black" stroke-width="1" fill="none" />
<polyline points="222.5,368.5,222.0,364.5,220.5,360.0,220.0,356.0,217.5,349.5,221.0,349.5,224.0,341.5,222.5,339.0,222.0,333.5,223.0,328.0,219.5,324.5,222.0,319.5,222.0,317.0,222.5,315.5,219.5,310.5,221.5,304.0,222.0,308.0" stroke="black" stroke-width="1" fill="none" />
<polyline points="177.5,306.5,176.0,304.5,176.0,300.0" stroke="black" stroke-width="1" fill="none" />
<polyline points="172.0,295.5,172.5,299.5,176.5,307.0,174.5,312.0,172.0,319.0" stroke="black" stroke-width="1" fill="none" />
<polyline points="161.5,313.0,158.5,311.5" stroke="black" stroke-width="1" fill="none" />
<polyline points="161.0,314.5" stroke="black" stroke-width="1" fill="none" />
<polyline points="158.0,311.5,157.5,311.0" stroke="black" stroke-width="1" fill="none" />
<polyline points="160.0,296.0,154.0,294.5" stroke="black" stroke-width="1" fill="none" />
<polyline points="156.5,294.0,160.5,298.0,161.0,298.0" stroke="black" stroke-width="1" fill="none" />
<polyline points="163.5,291.5,158.0,287.5,154.5,282.0,158.5,284.0" stroke="black" stroke-width="1" fill="none" />
<polyline points="152.5,281.5,154.0,286.5,157.5,289.5,164.0,293.5" stroke="black" stroke-width="1" fill="none" />
<polyline points="171.5,291.0,174.5,292.5,176.5,292.0" stroke="yellow" stroke-width="1" fill="none" />
<polyline points="179.5,292.5,177.0,297.0,174.0,301.0,173.0,305.5,168.0,307.5,166.5,309.0" stroke="black" stroke-width="1" fill="none" />
<polyline points="161.5,293.5,156.5,290.5,154.0,289.5,154.5,292.0" stroke="black" stroke-width="1" fill="none" />
<polyline points="148.5,291.5,155.0,293.5,157.5,297.0,165.0,295.0,166.5,293.0,168.0,292.0" stroke="black" stroke-width="1" fill="none" />
<polyline points="172.0,292.0,171.0,296.0,170.0,300.0,170.0,304.0,166.5,308.5,166.5,312.5,165.5,314.5,162.0,318.0,170.0,318.5,169.0,324.0,165.5,328.5,162.0,332.5,158.0,337.0,158.0,343.5,151.5,347.0,151.0,349.0,151.0,352.5,148.5,354.5,145.5,355.0,145.5,352.5,147.5,350.0,152.0,352.0,158.5,351.0,159.0,345.0,162.5,347.0,166.5,344.5,170.5,342.5,168.5,342.0" stroke="black" stroke-width="1" fill="none" />
<polyline points="157.0,298.0,155.5,295.5,154.0,293.5" stroke="yellow" stroke-width="1" fill="none" />
<polyline points="160.0,286.0,161.5,281.0,162.5,278.5,161.0,273.0,161.0,269.0,160.0,266.0,163.5,260.5,162.0,259.0,161.5,257.5" stroke="black" stroke-width="1" fill="none" />
<polyline points="164.0,264.5,165.5,261.0,164.0,264.0,167.0,268.5,166.0,272.0,169.5,274.5,166.5,276.5" stroke="black" stroke-width="1" fill="none" />
<polyline points="161.0,283.0,158.5,279.0,152.0,276.0" stroke="black" stroke-width="1" fill="none" />
<polyline points="151.0,277.5,152.0,276.5,155.5,280.0,157.5,284.0,161.0,288.0,167.5,284.5,172.5,285.0,173.5,284.5,177.0,287.0,176.5,286.5,179.5,288.0" stroke="black" stroke-width="1" fill="none" />
<polyline points="173.5,281.5,171.0,285.5,168.0,288.0,166.5,291.0" stroke="black" stroke-width="1" fill="none" />
<polyline points="163.0,286.0,157.0,281.0,158.5,284.5" stroke="black" stroke-width="1" fill="none" />
<polyline points="159.0,299.0,154.0,296.0,150.0,292.0,150.5,288.0,150.0,282.5,148.0,276.0,150.0,272.5,152.5,269.0,157.5,265.0,161.5,259.5,161.0,257.5,164.0,255.0,164.5,249.5,163.5,247.0,167.0,242.0,169.0,240.5,164.0,246.0,160.0,254.5,155.0,259.5,150.5,259.5,147.0,259.5,144.5,258.5,137.5,267.0,136.5,264.5,137.0,261.5,133.0,263.0,130.5,267.5,128.5,268.5,131.5,262.5,131.0,257.5,130.0,254.0,127.5,249.5,129.0,245.5,136.0,243.0,134.0,243.5,139.5,237.5,139.5,231.5,135.0,230.5,135.5,226.0,132.0,223.0,131.5,220.0,132.0,215.5,129.5,212.5,128.0,207.5,125.5,202.5,124.0,198.0,122.5,193.5,123.5,189.0,120.5,185.0,119.5,181.5,119.5,176.5,119.5,172.5,119.5,168.5,120.0,164.5,122.0,160.5,117.5,156.5,120.5,153.0,120.5,149.0,121.5,145.0,123.0,140.5,123.0,137.5,123.5,133.5,124.5,130.0,125.5,125.5,126.0,119.0,129.0,117.5,132.5,114.0,132.0,108.5,134.0,104.5,136.5,102.0,136.0,99.5,139.0,98.0,134.0,106.0" stroke="yellow" stroke-width="1" fill="none" />
<polyline points="128.0,122.5,134.5,113.5,139.0,103.5,136.0,109.5,137.0,112.0,134.5,117.5,132.5,121.5,132.0,125.5,134.0,131.5,134.5,135.5,131.0,137.5,127.0,139.5,129.0,145.5,130.5,146.0,126.5,148.5,129.5,152.0,130.0,154.5,129.0,156.0,130.5,156.0" stroke="black" stroke-width="1" fill="none" />
<polyline points="129.5,153.5,132.5,153.0,134.0,157.0,133.5,160.5,135.5,162.0,132.0,166.0,128.0,170.0,134.0,168.5,134.0,163.0" stroke="yellow" stroke-width="1" fill="none" />
<polyline points="141.0,168.5,140.5,172.5,136.5,177.0,130.5,176.5" stroke="black" stroke-width="1" fill="none" />
<polyline points="135.0,172.5,130.5,176.5,133.5,175.5,140.0,173.5,137.5,168.0" stroke="black" stroke-width="1" fill="none" />
<polyline points="144.0,168.0,140.5,172.0,139.0,178.5,135.5,176.5" stroke="black" stroke-width="1" fill="none" />
<polyline points="141.0,176.0,137.5,182.0,135.0,181.0,138.5,177.0,141.5,172.5" stroke="black" stroke-width="1" fill="none" />
<polyline points="149.0,170.0,147.5,174.5,144.0,179.0,142.0,182.0,137.5,187.0,137.5,191.5,138.0,195.0,138.0,194.5,140.0,194.0,142.0,192.5,142.5,198.0,147.5,199.5" stroke="black" stroke-width="1" fill="none" />
<polyline points="149.0,194.5,145.0,190.0" stroke="black" stroke-width="1" fill="none" />
<polyline points="147.5,192.5,146.5,194.0" stroke="black" stroke-width="1" fill="none" />
<polyline points="142.0,193.5,146.0,198.5,140.0,197.0" stroke="black" stroke-width="1" fill="none" />
<polyline points="151.0,197.0,146.0,194.5,145.0,191.0,142.5,189.0,141.5,186.0,145.0,180.5,143.0,178.5,145.0,176.5" stroke="black" stroke-width="1" fill="none" />
<polyline points="143.5,183.5,146.5,184.0,149.0,190.0,151.5,191.0,149.5,187.5" stroke="black" stroke-width="1" fill="none" />
<polyline points="149.5,190.0,143.5,183.0" stroke="black" stroke-width="1" fill="none" />
<polyline points="149.0,194.0,155.0,192.0,159.0,187.5,161.0,181.0,168.5,179.0,170.5,173.0,175.0,166.5,180.5,167.0,182.0,161.0,188.5,160.0,190.0,154.0,194.5,151.5,198.5,148.0,201.5,144.0" stroke="black" stroke-width="1" fill="none" />
<polyline points="206.0,146.0,210.0,150.0,215.5,154.5,219.0,159.0,223.0,162.0" stroke="black" stroke-width="1" fill="none" />
<polyline points="226.5,163.5,223.0,159.5,227.5,154.5,223.5,158.0,222.0,156.5,218.0,154.0,215.0,155.0" stroke="black" stroke-width="1" fill="none" />
<polyline points="217.0,150.0,219.5,154.0,228.0,162.0,226.0,160.5" stroke="black" stroke-width="1" fill="none" />
<polyline points="228.0,177.0,225.5,175.5,219.0,174.0,217.0,180.0,214.0,185.5,208.5,188.0,205.5,192.5,204.0,195.0" stroke="black" stroke-width="1" fill="none" />
<polyline points="209.5,188.0,212.0,184.5,215.0,183.5,218.0,176.5,222.0,173.5,229.5,172.5,230.0,172.5,233.5,172.5,237.5,173.5,240.5,172.0,240.0,174.0,236.5,177.0,237.0,177.0" stroke="black" stroke-width="1" fill="none" />
<polyline points="233.0,181.5,230.0,183.5,230.0,187.5,223.0,192.5,218.0,198.5,212.0,202.5,206.0,207.5,202.5,213.5,204.0,216.0,204.0,217.5,204.5,223.0,207.5,227.0" stroke="black" stroke-width="1" fill="none" />
<polyline points="204.0,208.0,205.5,206.5,211.5,201.5,214.0,198.0,218.0,195.0,221.5,194.0,226.5,190.0" stroke="black" stroke-width="1" fill="none" />
<polyline points="228.5,193.5,219.0,197.5,214.0,203.0,211.5,206.5,208.5,210.5,208.0,210.5,210.5,204.0,217.5,202.5,218.0,197.5,223.0,196.5,224.5,194.5,230.0,192.0" stroke="black" stroke-width="1" fill="none" />
<polyline points="225.5,184.5,222.0,184.0,218.5,189.0" stroke="black" stroke-width="1" fill="none" />
<polyline points="221.0,183.0" stroke="green" stroke-width="1" fill="none" />
<polyline points="224.5,182.5,220.5,185.0,217.5,191.5,215.5,193.0,208.5,198.0,207.5,200.5" stroke="green" stroke-width="1" fill="none" />
<polyline points="201.0,203.5,196.0,202.5" stroke="black" stroke-width="1" fill="none" />
<polyline points="194.0,198.0,197.0,200.0,202.0,199.5" stroke="black" stroke-width="1" fill="none" />
<polyline points="203.5,202.0,198.5,202.0,196.0,197.5,192.5,199.5,189.5,200.0,185.5,201.0,181.5,205.5,181.5,207.0,183.0,202.0,187.5,198.0,188.5,197.0" stroke="green" stroke-width="1" fill="none" />
<polyline points="184.0,207.0,188.0,206.0,192.5,205.0,200.0,204.0" stroke="black" stroke-width="1" fill="none" />
<polyline points="193.5,203.5,192.5,210.5,192.0,211.0,188.5,217.0,182.5,222.5,185.5,218.5,188.5,217.5,190.5,213.0,186.0,209.5,181.5,210.0" stroke="black" stroke-width="1" fill="none" />
<polyline points="179.5,212.5,184.0,217.5" stroke="black" stroke-width="1" fill="none" />
<polyline points="181.5,219.0,181.0,222.5,182.0,219.0,180.5,215.5,180.5,214.0" stroke="green" stroke-width="1" fill="none" />
<polyline points="173.5,211.0,172.0,215.0,168.5,219.5,176.5,213.5" stroke="black" stroke-width="1" fill="none" />
<polyline points="168.5,222.5,168.5,224.5,172.5,227.5,169.0,226.5,175.5,225.5,181.0,223.5" stroke="black" stroke-width="1" fill="none" />
<polyline points="180.0,228.0,175.0,228.0,172.0,231.5,166.0,232.0,162.0,239.0,163.5,238.0" stroke="black" stroke-width="1" fill="none" />
<polyline points="170.5,237.0,170.5,242.0,167.5,246.5,165.5,250.5,164.0,247.0" stroke="green" stroke-width="1" fill="none" />
<polyline points="164.5,253.5,157.5,258.0,153.5,262.5,151.5,260.5,148.0,265.0,140.5,266.5,138.0,273.5,134.0,277.5,130.0,278.0,126.0,274.5,116.5,271.5,114.0,265.5,118.0,261.0,115.0,266.0" stroke="orange" stroke-width="1" fill="none" />
<polyline points="114.0,269.0,118.5,274.5" stroke="black" stroke-width="1" fill="none" />
<polyline points="114.0,272.0,115.0,273.0,114.0,274.5,118.5,282.0,111.0,286.0,107.5,289.5,107.5,296.0,103.5,300.5,99.0,304.5,91.5,308.0,92.5,312.0,92.0,316.0,89.5,320.0,86.5,326.0,88.5,328.5,88.5,334.5,88.5,335.5,84.0,340.5,83.5,347.5,80.0,348.0,75.0,353.0,72.0,357.0,66.5,358.5,64.5,359.5,68.0,357.5,70.5,354.0,76.5,345.5,77.5,343.0,82.0,335.0,89.0,331.0,93.0,328.0" stroke="yellow" stroke-width="1" fill="none" />
<polyline points="87.5,323.0,94.0,323.0,92.5,326.0,93.5,326.0,88.5,333.0,87.0,336.5,80.5,341.5,79.0,343.5,76.0,347.5,74.0,349.0,71.5,356.0,62.5,357.5,62.0,361.0,61.0,364.0,66.0,362.0,70.0,357.5,74.5,353.5,79.0,347.5,82.0,343.0,87.5,337.5,90.0,341.5,90.0,343.5,91.5,345.0,88.5,351.5,85.0,355.5,82.5,360.0,80.5,365.5,77.5,367.5,79.0,371.0,83.0,375.0,83.5,371.0,90.0,359.5,90.5,356.0,93.5,347.0" stroke="black" stroke-width="1" fill="none" />
<polyline points="107.0,355.0,105.0,357.0,105.5,363.0,104.0,366.5,103.0,370.0,102.5,374.0,100.0,376.5,103.0,381.5" stroke="black" stroke-width="1" fill="none" />
<polyline points="113.5,369.0,110.0,366.5,109.5,360.5,111.5,356.0" stroke="black" stroke-width="1" fill="none" />
<polyline points="112.5,353.5,110.0,357.5,112.5,364.5,112.5,364.5,109.0,362.0,113.0,368.5" stroke="green" stroke-width="1" fill="none" />
<polyline points="114.0,363.0,116.0,361.0,112.5,354.5" stroke="orange" stroke-width="1" fill="none" />
<polyline points="126.5,360.5,134.5,363.5,134.0,368.0" stroke="black" stroke-width="1" fill="none" />
<polyline points="84.0,354.0,80.5,361.0,76.5,367.5" stroke="black" stroke-width="1" fill="none" />
<polyline points="75.5,366.5,79.0,358.5,83.0,351.0,85.5,349.0,83.0,353.0,79.0,357.0,76.0,358.5,75.5,365.0,75.5,369.0,75.5,373.0" stroke="black" stroke-width="1" fill="none" />
<polyline points="80.0,382.5,81.0,381.0,73.0,392.5,71.0,393.5,65.0,395.5,63.0,399.5,57.0,400.5,61.0,399.0,65.0,395.0,69.0,391.5,74.5,386.0,77.0,383.0,75.5,385.0,72.5,388.5,69.0,392.0,67.0,396.0,61.0,396.5,57.5,404.5,65.0,399.0,70.5,394.5,74.5,390.0,79.0,383.5,80.0,382.5,84.0,376.0,84.0,373.0,83.5,369.0,87.0,364.5,86.0,358.5,90.0,358.0,89.5,355.0,92.5,354.5,95.0,350.5,97.0,347.0,98.5,345.5,97.5,340.0,93.0,348.5,94.5,343.0,95.5,340.0,98.5,338.5,96.5,332.0,96.5,328.5,96.5,324.5,98.5,321.0,98.0,316.0,95.0,310.0,102.0,308.0,103.0,302.5,108.0,302.5,103.0,305.5,101.0,309.5,96.5,313.0" stroke="black" stroke-width="1" fill="none" />
<polyline points="89.0,308.5,85.5,312.5,87.0,309.5,91.0,308.0,96.0,306.0,99.5,304.0,103.5,300.0,102.0,304.0" stroke="yellow" stroke-width="1" fill="none" />
<polyline points="100.0,302.5,94.0,301.5,91.5,306.0,98.5,302.0,100.5,298.0" stroke="green" stroke-width="1" fill="none" />
<polyline points="108.5,295.5,104.0,296.0,100.0,295.5,93.5,292.0,92.5,296.0,86.5,296.0,82.5,298.0,89.0,294.5" stroke="black" stroke-width="1" fill="none" />
<polyline points="86.0,294.5,80.0,298.5,82.5,295.5,86.5,294.0,91.0,292.5,95.0,293.0,99.0,290.5,103.5,290.5,105.5,291.5,110.0,286.0" stroke="black" stroke-width="1" fill="none" />
<polyline points="114.5,289.0,110.5,287.5,110.5,286.5,109.5,278.0,115.0,277.0,114.0,273.0,115.5,268.5,116.0,268.0" stroke="black" stroke-width="1" fill="none" />
<polyline points="110.5,264.0,111.5,259.5,110.0,260.5,107.5,264.5,109.0,269.0,109.0,273.0,101.0,274.0,97.0,279.0,94.5,282.0,98.5,281.0,101.5,275.0,104.5,275.5,109.0,279.0,113.0,279.0,117.5,282.5" stroke="black" stroke-width="1" fill="none" />
<polyline points="113.5,278.5,109.5,281.0,105.0,283.0,101.0,285.5,97.0,286.5,92.0,284.0" stroke="black" stroke-width="1" fill="none" />
<polyline points="89.0,274.5,95.5,275.0,96.5,270.5,99.0,266.5,108.5,262.5,100.0,269.0,94.0,271.0,93.0,279.0,94.0,283.5,95.0,284.0,100.5,283.0,102.5,279.5,100.5,281.0,104.5,280.0,109.0,278.0,114.5,280.5,118.5,277.5,122.0,275.0,126.0,271.5" stroke="black" stroke-width="1" fill="none" />
<polyline points="128.0,266.0,128.5,269.5,124.0,272.5,118.5,274.5,111.5,281.5,102.5,285.5,99.5,291.0,95.0,298.0,94.0,304.5,88.5,307.0,81.5,310.5,83.0,314.5,78.5,319.5,71.0,323.0,76.5,320.5,76.5,317.5,81.5,313.0" stroke="black" stroke-width="1" fill="none" />
<polyline points="99.0,322.5,103.0,314.5,107.0,309.0,112.0,306.0,115.0,299.5,119.5,297.5" stroke="black" stroke-width="1" fill="none" />
<polyline points="121.0,305.0,119.0,306.0,115.5,309.5,112.0,313.5,108.0,317.5,103.5,321.5,100.5,327.5,102.5,325.0" stroke="yellow" stroke-width="1" fill="none" />
<polyline points="79.5,316.0,75.5,318.0,71.5,320.5,68.0,322.5,73.0,317.0,80.0,316.5,75.0,310.5,75.0,306.5,75.0,307.0,75.0,305.0" stroke="green" stroke-width="1" fill="none" />
<polyline points="73.5,308.0,78.0,312.5" stroke="black" stroke-width="1" fill="none" />
<polyline points="77.5,310.0,79.5,311.0,83.0,308.5,88.5,305.0,93.0,303.5" stroke="yellow" stroke-width="1" fill="none" />
<polyline points="100.0,313.0,98.0,321.0,99.0,319.0,101.0,315.0,105.0,309.5,106.0,307.0,109.0,303.0" stroke="black" stroke-width="1" fill="none" />
<polyline points="106.0,295.0,106.0,297.0,98.5,298.0,103.0,294.5,106.0,295.5,111.0,291.5" stroke="black" stroke-width="1" fill="none" />
<polyline points="108.5,285.5,103.5,289.5,103.0,290.0" stroke="orange" stroke-width="1" fill="none" />
<polyline points="91.0,280.0,89.5,276.5" stroke="black" stroke-width="1" fill="none" />
<polyline points="123.5,283.0,123.0,288.5,120.0,294.5,119.5,296.5,114.5,300.0,110.5,304.5,108.0,311.0,103.5,312.5,101.5,317.0,99.0,323.0,100.0,324.5,101.0,329.0,103.0,330.5,98.5,334.5,95.5,341.0,100.5,338.0,104.0,337.0,107.5,333.0,108.0,326.0,114.5,317.5,121.0,308.5,120.0,301.5,123.5,300.0,124.5,309.0,130.0,315.5" stroke="yellow" stroke-width="1" fill="none" />
<polyline points="127.0,311.0,127.0,314.0,126.0,317.0,125.5,319.0,129.5,325.5,128.0,329.5,127.5,333.5,129.0,336.0" stroke="green" stroke-width="1" fill="none" />
<polyline points="123.0,313.5,121.0,312.5,119.5,317.5,118.0,326.0,113.5,327.5,111.5,332.0,108.0,336.0,104.5,339.5,100.0,343.0,99.0,347.0,99.5,351.0,96.0,352.5,93.0,356.0,94.0,362.0,95.5,366.5,93.0,368.0,89.5,374.5,93.5,377.0,92.5,382.5,93.0,389.0" stroke="black" stroke-width="1" fill="none" />
<polyline points="79.0,384.0,78.0,389.0,76.0,396.5,75.5,400.5,73.5,405.0,73.0,406.0,72.5,412.5" stroke="black" stroke-width="1" fill="none" />
<polyline points="21.0,368.5,19.0,372.5,20.5,371.0,21.5,366.5" stroke="black" stroke-width="1" fill="none" />
<polyline points="125.5,286.5,125.0,288.0,123.0,291.5,121.0,297.0,119.5,301.0,113.5,307.5,108.0,309.0,105.0,312.5,108.0,309.0,112.0,305.5,116.0,302.0,120.0,298.0,125.0,295.5,129.0,293.0,131.5,288.0,139.5,286.5,142.0,285.5,143.0,284.5" stroke="orange" stroke-width="1" fill="none" />
<polyline points="137.0,269.5,138.0,264.5,137.0,263.5" stroke="black" stroke-width="1" fill="none" />
<polyline points="132.5,255.5,138.0,257.5" stroke="black" stroke-width="1" fill="none" />
<polyline points="131.0,248.5,135.0,246.0,137.0,243.5,139.0,247.5,141.5,248.0" stroke="black" stroke-width="1" fill="none" />
<polyline points="144.5,244.5,141.0,243.0,136.0,247.0,138.5,246.5" stroke="black" stroke-width="1" fill="none" />
<polyline points="142.0,240.5,138.0,233.5,134.0,223.5" stroke="black" stroke-width="1" fill="none" />
<polyline points="147.5,218.5" stroke="yellow" stroke-width="1" fill="none" />
<polyline points="148.0,213.5,149.0,211.5,148.0,205.5" stroke="black" stroke-width="1" fill="none" />
<polyline points="146.5,201.5,143.0,196.0,136.5,195.5,138.0,191.0,134.5,187.0,137.0,182.5,143.5,178.0,148.0,175.0,143.0,177.0,139.5,180.5,136.5,186.0" stroke="yellow" stroke-width="1" fill="none" />
<polyline points="135.5,187.5,139.5,183.5" stroke="black" stroke-width="1" fill="none" />
<polyline points="152.0,182.0,147.5,180.0,146.0,180.5,145.5,186.5,139.5,187.5,137.0,189.5" stroke="yellow" stroke-width="1" fill="none" />
<polyline points="141.5,192.0,139.0,197.0,136.5,200.5" stroke="black" stroke-width="1" fill="none" />
<polyline points="141.0,195.0,143.5,196.5,146.0,202.5,146.5,207.0,144.5,213.0,143.5,215.0,147.5,208.5,151.0,202.0" stroke="black" stroke-width="1" fill="none" />
<polyline points="130.5,206.0,126.5,198.0" stroke="black" stroke-width="1" fill="none" />
<polyline points="114.0,226.0,110.5,230.0,111.5,228.5,115.5,227.5,110.5,226.0" stroke="black" stroke-width="1" fill="none" />
<polyline points="112.0,233.0,116.0,227.0" stroke="black" stroke-width="1" fill="none" />
<polyline points="124.5,252.5,117.5,256.5,114.5,263.5,110.0,264.5,115.0,259.5,119.0,255.5,122.5,254.5,127.0,247.5,131.5,245.5,136.0,240.5,142.0,238.5,148.5,235.0,152.0,231.0,157.0,226.5" stroke="black" stroke-width="1" fill="none" />
<polyline points="154.5,226.5,151.5,230.5,143.5,236.5,145.5,236.0,141.0,245.0,140.5,249.5,138.5,251.5,141.5,260.0,141.0,262.5,135.5,266.0,131.0,266.5,128.0,270.0,137.5,269.5" stroke="black" stroke-width="1" fill="none" />
<polyline points="156.0,254.5,151.5,253.5,156.0,255.5,156.5,251.5" stroke="yellow" stroke-width="1" fill="none" />
<polyline points="165.0,232.5,165.0,236.0,160.5,239.0,159.0,238.0,163.5,234.5,166.0,229.0,168.5,226.5" stroke="black" stroke-width="1" fill="none" />
<polyline points="167.0,225.5,163.0,226.5" stroke="orange" stroke-width="1" fill="none" />
<polyline points="173.5,229.0,170.5,232.5,167.0,236.0,163.0,239.0,161.5,243.5,157.5,247.0,152.5,250.0,149.5,253.5,153.0,257.0,150.5,257.0,146.5,262.0,143.0,265.0,138.0,270.0,133.0,274.0,128.5,277.5,132.0,287.0,129.0,291.5,128.0,298.5,125.0,302.5,128.5,309.0,125.5,309.0,124.0,314.0,121.0,318.0,123.5,321.5,124.5,326.0,124.5,329.0,123.5,332.5,123.5,338.0,125.5,339.5,127.0,343.0,131.0,347.0,133.5,349.0,135.0,355.0,137.0,359.0,137.5,364.5,142.5,366.5,143.0,368.0,144.5,372.0,148.0,374.5,148.5,380.0,143.5,386.0,147.5,389.0,148.0,392.5,148.5,397.0,150.0,397.0,150.5,402.0,150.5,405.0,153.5,406.0,157.0,410.0,158.5,416.0,161.0,418.5,159.5,422.5,154.5,424.5" stroke="yellow" stroke-width="1" fill="none" />
<polyline points="167.5,420.5,165.0,416.0,163.0,412.0,160.0,411.0" stroke="green" stroke-width="1" fill="none" />
<polyline points="190.5,423.5,194.0,430.5" stroke="black" stroke-width="1" fill="none" />
<polyline points="199.0,430.0,197.0,429.0" stroke="black" stroke-width="1" fill="none" />
<polyline points="196.5,425.0,194.5,427.0,196.0,431.0,193.5,435.0,191.5,437.0" stroke="black" stroke-width="1" fill="none" />
<polyline points="197.0,404.5,197.0,402.5,195.0,401.0,197.0,395.5,197.5,396.0" stroke="black" stroke-width="1" fill="none" />
<polyline points="190.5,393.0,191.5,399.0,191.0,403.5,191.5,405.0,190.5,411.5,188.0,416.5,192.0,417.0,189.5,421.5,188.0,425.5,186.5,433.0,188.0,432.5,188.5,439.0,184.0,440.5,183.0,442.0,186.5,444.0,190.5,445.0,194.5,446.5,199.0,445.0" stroke="black" stroke-width="1" fill="none" />
<polyline points="381.0,358.5,380.5,356.0,380.0,352.0,380.0,348.0,379.5,343.5,379.0,339.5,379.0,336.0,376.0,334.0,378.0,327.0,375.5,324.5,376.0,316.5,376.0,312.0,375.0,308.5,374.5,304.5,374.0,300.5,374.0,296.5,374.5,292.5,375.5,295.5" stroke="black" stroke-width="1" fill="none" />
<polyline points="379.0,286.5,380.0,284.5,378.0,283.0,381.0,277.5,383.0,273.5,381.5,267.0,383.0,265.5,383.0,266.5" stroke="black" stroke-width="1" fill="none" />
<polyline points="366.5,263.0,366.0,267.0,365.0,270.5,366.0,276.0,365.0,279.5,363.5,282.0,365.5,288.0,365.0,292.5,363.0,296.5,365.5,301.0,364.0,304.5,364.0,308.0,364.0,312.5" stroke="black" stroke-width="1" fill="none" />
<polyline points="348.0,280.0,341.5,280.5,335.5,282.5,333.0,280.5,327.0,279.5,320.5,277.5,322.0,273.0,322.5,269.0" stroke="black" stroke-width="1" fill="none" />
<polyline points="322.0,268.5,327.5,270.5,328.5,272.0,335.0,270.0,334.5,270.0" stroke="black" stroke-width="1" fill="none" />
<polyline points="322.5,280.5,317.5,274.5,317.5,273.5,318.0,275.0,321.0,266.5,325.5,262.0,328.0,256.5,334.5,252.5" stroke="black" stroke-width="1" fill="none" />
<polyline points="365.5,263.5,365.0,267.0,365.0,271.5,361.5,273.5,362.0,280.0,361.5,279.5" stroke="yellow" stroke-width="1" fill="none" />
<polyline points="297.5,223.0,294.0,227.0,290.0,231.5,283.5,234.5,290.0,232.0,294.0,225.5,298.5,223.0" stroke="black" stroke-width="1" fill="none" />
<polyline points="270.0,212.5,269.5,215.0,274.5,205.0,277.5,201.5,281.0,199.0,285.0,196.0,288.0,191.0,293.0,189.0,296.5,186.5,300.5,185.0,304.0,181.0,308.5,178.5" stroke="black" stroke-width="1" fill="none" />
<polyline points="310.5,175.0,304.0,176.5,300.5,180.0,294.5,181.0,292.0,186.5,288.0,192.5,283.5,191.5,282.5,199.0,274.5,202.0,273.0,203.0,269.0,205.5,264.5,212.5,263.5,213.5,261.5,222.0,255.5,223.5,253.0,228.0,245.0,233.5,243.5,237.0,237.0,241.0,237.0,245.5,232.0,254.5,227.0,258.5,223.0,264.5,221.0,269.5,215.5,278.5,213.5,283.5,208.0,294.5,202.5,301.0,198.5,311.5,200.5,320.0,197.0,318.0,199.5,312.0,201.0,308.0,202.5,304.0,204.0,300.5,204.5,294.5,207.5,292.5,209.5,288.5,211.5,285.0,212.0,280.5,215.5,277.0,218.5,273.5,222.0,272.0,222.5,264.0,226.0,261.5,228.0,257.5,229.5,251.0,234.5,249.0,237.5,245.0,241.0,240.5,244.5,236.5,247.0,230.5,251.5,228.5,255.5,224.5,259.5,220.5,260.0,216.5,261.0,211.5,263.5,206.5,264.5,203.5,268.0,202.0" stroke="green" stroke-width="1" fill="none" />
<polyline points="266.5,205.5,262.5,210.5,264.0,206.0" stroke="yellow" stroke-width="1" fill="none" />
<polyline points="251.0,213.0,247.0,213.0" stroke="black" stroke-width="1" fill="none" />
<polyline points="216.5,195.0,212.5,199.0,218.5,192.0,219.0,188.5,224.5,184.5,226.0,184.0,226.0,184.5" stroke="black" stroke-width="1" fill="none" />
<polyline points="225.0,172.5,217.0,176.5,213.5,182.5,207.5,184.0,208.0,188.5,204.0,195.5,206.5,198.5,209.5,194.5,213.5,195.0,218.5,193.0,222.5,187.5,228.0,190.0,230.0,187.5,232.0,182.5,235.5,182.0" stroke="black" stroke-width="1" fill="none" />
<polyline points="247.0,171.0,243.0,178.0,240.5,179.0,239.0,184.0,232.5,187.5,238.0,183.5,243.0,181.0,246.5,179.0,253.5,179.0" stroke="black" stroke-width="1" fill="none" />
<polyline points="250.0,179.0,243.5,183.0,243.5,185.0,244.5,192.5,241.0,197.0,236.5,199.0,234.0,202.0,233.0,208.0,231.0,211.0,230.5,212.0,233.0,210.0,236.0,209.0" stroke="black" stroke-width="1" fill="none" />
<polyline points="266.5,186.5,261.0,191.0,256.5,195.0,253.5,199.0,249.0,201.0,252.5,201.0,254.5,196.0,259.0,190.5,262.5,187.5" stroke="black" stroke-width="1" fill="none" />
<polyline points="267.5,186.5,261.0,189.0,257.5,190.5,261.5,188.5,264.5,182.5" stroke="orange" stroke-width="1" fill="none" />
<polyline points="269.5,178.0,263.0,184.0,257.0,187.5,251.0,189.5,249.0,193.0,246.5,200.0,244.5,199.0,244.5,192.0,246.0,192.0,249.0,189.0,249.0,186.5,252.5,182.5,259.0,181.5,260.5,180.5,261.0,180.5" stroke="black" stroke-width="1" fill="none" />
<polyline points="264.5,174.5,270.0,176.0,274.5,177.0,277.0,178.0,280.5,175.0,284.0,175.0,294.5,179.0,294.0,180.5,290.0,183.0,285.5,189.5,283.5,193.5,276.5,195.0,274.5,198.5,274.5,195.0,270.5,197.0,271.5,198.0,275.0,195.0,279.5,193.5,283.0,189.0,287.0,185.0,293.5,182.0,296.0,178.5,302.5,177.5,304.0,173.5,306.0,169.5,315.5,167.0,317.5,167.5,320.0,164.5,326.0,162.0,330.0,161.5,334.5,157.5,338.0,155.0,338.0,153.0" stroke="green" stroke-width="1" fill="none" />
<polyline points="305.5,176.0,299.5,180.5,298.0,181.5,290.0,187.5,285.0,191.5,281.0,195.5,276.0,200.0,271.0,204.0,269.5,208.5,271.0,208.5,268.0,213.0,264.0,220.0,266.0,222.0,265.0,224.0,264.5,228.0,265.5,232.0,265.0,236.0,265.0,240.5" stroke="black" stroke-width="1" fill="none" />
<polyline points="272.0,193.5,272.5,191.5,273.0,185.5" stroke="black" stroke-width="1" fill="none" />
<polyline points="260.5,165.0,268.5,159.0,264.5,162.5,259.0,164.5,254.0,161.5,250.5,161.5" stroke="green" stroke-width="1" fill="none" />
<polyline points="252.5,162.0,256.0,164.5" stroke="black" stroke-width="1" fill="none" />
<polyline points="249.5,170.0,254.5,176.5,259.5,179.5" stroke="black" stroke-width="1" fill="none" />
<polyline points="241.5,142.0,246.5,140.5,250.5,140.5,254.5,134.5,259.5,130.0,259.5,128.5,253.0,132.0,250.0,135.5,248.0,140.5,241.5,144.0,239.5,143.5,233.0,142.0" stroke="black" stroke-width="1" fill="none" />
<polyline points="236.5,150.0" stroke="yellow" stroke-width="1" fill="none" />
<polyline points="220.5,147.0,218.5,143.5,213.0,142.5" stroke="black" stroke-width="1" fill="none" />
<polyline points="214.0,143.0,218.5,146.5" stroke="black" stroke-width="1" fill="none" />
<polyline points="204.0,149.5,206.5,147.0,211.0,150.0,213.0,157.0,218.0,158.5,222.0,160.0" stroke="black" stroke-width="1" fill="none" />
<polyline points="207.0,162.5,201.0,161.0" stroke="black" stroke-width="1" fill="none" />
<polyline points="203.0,162.0,205.0,166.5,200.0,167.5,190.0,175.5,188.0,178.0,183.5,181.5,179.5,185.5,175.5,189.5,173.0,192.5,170.0,196.5,167.0,200.0,162.5,199.5,167.5,195.5,172.5,193.5,176.5,188.5,181.0,182.5,184.5,182.0,186.5,176.0,192.5,174.0,196.5,170.5,200.5,167.5" stroke="black" stroke-width="1" fill="none" />
<polyline points="219.0,175.0,212.0,177.5,212.5,181.0,207.5,184.5,203.5,189.0,203.5,193.5,204.5,197.5,205.0,199.0" stroke="orange" stroke-width="1" fill="none" />
<polyline points="201.5,138.5,196.5,134.0" stroke="black" stroke-width="1" fill="none" />
<polyline points="198.0,133.0,199.5,131.5,203.5,136.0,204.5,140.0,203.0,141.5,206.0,138.5,212.5,133.0,215.0,132.5,219.0,129.5,222.5,127.0" stroke="black" stroke-width="1" fill="none" />
<polyline points="225.5,126.5,219.0,130.5,213.0,134.5,210.0,138.0,208.5,141.5,213.5,136.0,217.0,133.5,221.0,130.5,226.0,126.5,230.0,123.5,234.5,121.0,237.0,120.5" stroke="black" stroke-width="1" fill="none" />
<polyline points="236.5,118.5,230.0,123.0,226.5,126.0,219.0,131.0,210.0,137.0,206.0,137.5,203.5,142.0,199.0,145.5,194.0,149.5,190.0,153.5,187.5,156.5,181.5,161.5,177.0,165.5,172.5,170.0,168.5,174.0,165.0,178.5,161.0,182.5,158.5,186.5,154.0,192.0,149.5,198.5,154.0,200.5,153.0,203.0,148.5,205.5,147.0,211.5,146.0,215.0,144.5,219.0,141.5,224.5,141.0,225.5,140.0,232.0,139.5,237.5,141.0,239.5,142.0,243.0,134.5,244.0,130.0,250.5,133.5,252.5,135.0,256.0,137.5,257.5" stroke="green" stroke-width="1" fill="none" />
<polyline points="133.0,174.0,130.5,180.0,136.0,175.0,140.0,171.0,140.0,168.5,143.0,162.0" stroke="orange" stroke-width="1" fill="none" />
<polyline points="131.5,144.0,127.0,140.5,129.0,135.0,132.5,131.0" stroke="black" stroke-width="1" fill="none" />
<polyline points="160.0,128.0,150.5,130.5,154.0,137.0,156.5,132.5,160.5,127.0,159.0,126.0" stroke="black" stroke-width="1" fill="none" />
<polyline points="184.5,122.5,181.0,123.0,178.5,127.5,184.5,122.5,190.5,119.0" stroke="green" stroke-width="1" fill="none" />
<polyline points="190.5,120.5,184.0,123.5,177.0,124.5,179.0,125.0,183.5,123.0,186.0,122.5" stroke="black" stroke-width="1" fill="none" />
<polyline points="191.0,125.5,188.0,134.5,187.0,135.5" stroke="black" stroke-width="1" fill="none" />
<polyline points="199.5,121.0,195.5,122.5,198.5,120.0,205.5,116.5" stroke="black" stroke-width="1" fill="none" />
<polyline points="196.0,106.0,194.5,108.0,194.5,113.5" stroke="yellow" stroke-width="1" fill="none" />
<polyline points="228.5,127.5,224.5,130.0,222.0,130.0,216.0,135.5,212.0,138.5,210.0,143.5,204.0,145.0,199.5,151.0,196.5,153.0,196.5,151.5,200.0,148.5,208.0,144.0,213.5,138.0,219.0,136.5,224.0,131.5,230.5,127.5" stroke="black" stroke-width="1" fill="none" />
<polyline points="254.5,139.5,251.5,140.0,247.5,146.0,243.0,146.5,239.5,150.5,233.5,152.0,232.0,155.0,224.5,159.5,221.5,161.0,220.0,163.0,224.5,159.0,229.5,154.5,235.5,150.5,242.0,147.5,246.0,142.5,250.5,140.5,256.5,134.0,263.0,128.5" stroke="black" stroke-width="1" fill="none" />
<polyline points="277.5,147.0,286.5,143.0" stroke="black" stroke-width="1" fill="none" />
<polyline points="297.0,133.5,295.5,137.5,293.0,141.5,291.5,144.5,295.5,136.5,300.5,134.5" stroke="black" stroke-width="1" fill="none" />
<polyline points="314.0,177.0,311.0,179.5,301.0,182.5,295.5,184.5,290.5,190.5,285.0,194.5,282.0,198.5,278.0,202.5,274.0,206.5,272.5,210.5,272.5,214.5,270.5,214.5" stroke="black" stroke-width="1" fill="none" />
<polyline points="238.0,99.0,235.0,101.5,230.5,104.0,225.5,104.0,221.5,107.5,225.5,104.0,229.5,102.5,237.0,98.5,237.0,98.5" stroke="orange" stroke-width="1" fill="none" />
<polyline points="234.0,100.0,239.0,96.0" stroke="black" stroke-width="1" fill="none" />
<polyline points="248.0,92.0,244.0,94.5" stroke="black" stroke-width="1" fill="none" />
<polyline points="262.0,86.0,255.5,91.5,252.0,92.5,250.5,93.0,245.5,95.0,240.0,99.5,236.0,102.5,232.0,105.5,226.5,105.5,224.5,111.5,218.0,115.0,215.0,116.5,212.5,119.0,208.0,121.5,204.0,125.0,199.5,128.5,195.0,132.5,190.5,135.0,186.5,140.0,182.5,144.0,178.5,148.0,173.0,151.5,170.5,155.0,166.5,159.0,162.0,162.5,158.5,165.5,156.0,168.0,153.5,173.5,156.5,169.5,159.5,167.5,165.0,161.5,169.0,156.0,174.0,155.5,177.5,149.0,182.0,145.0,186.0,141.0,191.0,137.0,195.0,135.0,201.0,127.0,203.5,127.0,208.5,120.5,214.5,116.5,222.0,114.5,224.5,109.0,231.5,105.5,237.0,101.5,243.0,97.5,248.5,94.0,255.5,90.0,264.5,86.5" stroke="orange" stroke-width="1" fill="none" />
<polyline points="238.0,82.0,236.5,79.5,229.5,83.5,226.5,85.5,229.0,87.0,230.5,84.0,237.5,82.5" stroke="black" stroke-width="1" fill="none" />
<polyline points="233.0,49.5,236.5,47.5" stroke="black" stroke-width="1" fill="none" />
<polyline points="230.0,46.5,227.5,51.0,227.5,45.5,231.5,46.5,234.5,48.5,241.0,48.5,245.0,49.0,248.5,51.0,252.0,51.0,255.5,55.0,262.5,54.5,264.0,55.0,268.5,58.0,271.0,63.0,277.0,63.5,281.0,67.0,283.0,71.5,288.5,73.5,291.5,77.0,295.5,78.0,298.0,83.5,304.0,87.0,306.5,92.5,312.5,98.0,315.0,98.0,320.5,103.5,324.5,110.0,327.5,113.5,330.5,121.5,335.5,129.0,342.0,132.0,343.0,139.5,346.0,145.5,353.5,144.5,353.0,144.5,359.0,139.0,363.0,136.0,367.5,135.5,371.5,133.0,374.5,129.5,379.5,128.0,384.0,125.0,385.5,119.0,392.0,115.5,395.5,114.5,399.5,113.0,403.5,112.5,407.5,113.0,410.5,115.5,416.0,114.5,417.5,124.5" stroke="black" stroke-width="1" fill="none" />
<polyline points="414.5,113.0,416.0,119.0,418.0,123.0,418.5,126.5,422.0,130.5,419.5,135.5,417.5,138.0,420.5,143.0,415.0,146.0,418.5,152.5,417.0,157.5,413.5,159.0,412.0,162.5,410.0,166.5,410.0,170.0,408.0,174.0,408.5,178.0,404.5,181.5,401.0,185.0,395.0,188.0,394.5,193.5,388.0,200.0,384.0,201.5,378.0,205.0,373.5,209.5,366.0,215.5,371.0,211.0,375.5,211.0,378.0,207.0,383.5,202.5,389.5,200.0,391.0,195.0,395.0,191.0,399.0,185.5,403.0,184.5,409.5,181.0,411.5,170.0,416.5,159.5" stroke="black" stroke-width="1" fill="none" />
<polyline points="368.5,130.5,369.0,126.0" stroke="black" stroke-width="1" fill="none" />
<polyline points="389.5,105.0,383.5,99.5,379.0,97.0,377.5,98.5" stroke="black" stroke-width="1" fill="none" />
<polyline points="381.0,95.5,382.5,100.0,387.0,103.5" stroke="black" stroke-width="1" fill="none" />
<polyline points="439.5,64.5,433.0,56.0,429.5,50.0,426.0,45.0,420.0,36.5,418.5,28.5,417.0,23.5,408.5,11.5,406.0,9.5" stroke="yellow" stroke-width="1" fill="none" />
<polyline points="513.0,74.5,510.0,78.5,504.5,82.0,503.0,86.5,498.5,90.0,494.0,95.5,491.0,99.5,487.5,104.0,484.5,108.5,482.0,112.5,479.5,116.0,475.5,120.5,472.0,126.0,470.0,128.0,468.0,132.0,465.5,134.0,462.5,140.5,458.5,146.0,457.0,149.5,456.0,153.5,453.0,157.5,451.0,161.5,448.5,166.0,445.5,169.5,441.0,172.0,443.5,177.0,439.0,182.5,437.0,189.0,435.0,192.0,433.0,197.5,431.0,200.5,429.5,204.5,429.0,208.0,427.0,212.5,424.5,217.5,422.5,220.0,423.0,222.5,420.0,230.5,418.5,232.0,415.0,236.0,413.0,242.0,413.5,244.5,412.0,248.0,413.5,251.0,411.5,257.0,407.0,259.0,408.5,262.5,406.5,266.5,405.5,271.0,404.0,275.0,401.5,278.5,401.5,282.5,398.5,288.5,399.5,291.5,401.0,291.5,398.0,298.0,396.5,302.0,395.5,306.0,394.0,310.5,393.0,315.5,389.5,320.5,391.5,323.0,390.0,327.0,388.5,331.0,387.0,337.5,384.0,336.5" stroke="yellow" stroke-width="1" fill="none" />
<polyline points="345.5,143.5,344.5,139.5,343.0,138.0,335.5,131.0,336.5,126.0,332.5,123.0,330.0,119.0,329.0,115.0,326.0,111.5,321.5,106.5,319.0,104.0,316.0,99.0,310.5,95.0,308.0,92.0,303.5,89.0,301.5,83.5,297.0,77.0,292.0,76.5,285.5,68.5,278.5,68.5,276.5,65.5,269.0,62.0,263.5,55.5,253.0,51.0" stroke="green" stroke-width="1" fill="none" />
<polyline points="211.0,46.0,210.5,52.0,204.0,53.5" stroke="green" stroke-width="1" fill="none" />
<polyline points="170.5,61.5,169.0,63.5,161.0,65.0,160.5,69.0,162.5,66.0" stroke="black" stroke-width="1" fill="none" />
<polyline points="162.0,65.0,160.0,69.0,156.0,74.0,154.0,78.5,156.0,80.0,157.0,73.0,160.5,73.0,160.0,72.5" stroke="black" stroke-width="1" fill="none" />
<polyline points="159.0,74.0,154.0,78.5,153.0,84.5" stroke="black" stroke-width="1" fill="none" />
</svg>