<svg xmlns="http://www.w3.org/2000/svg" width="1024" height="1024" version="1.1" fill="white"><polyline points="413.0,15.5,409.5,6.5,411.5,19.5,410.5,22.5,411.0,26.0,421.0,34.0,421.5,32.5,418.0,29.0,432.0,31.0,426.0,31.0,430.5,52.0,435.5,48.0,439.0,56.0,438.0,63.0,432.5,63.0,436.0,67.0,437.5,69.0,444.0,69.5" stroke="orange" stroke-width="1" fill="none" />
<polyline points="444.5,47.0,439.5,40.0,442.5,37.5,432.5,26.0,435.0,18.0,434.0,21.5" stroke="orange" stroke-width="1" fill="none" />
<polyline points="414.5,0.0,427.5,7.0,427.5,17.0,431.0,13.5,432.0,13.0,437.0,24.0,441.0,26.5,437.5,32.5,442.0,38.0,443.0,36.5,452.0,42.0,439.5,42.0,445.5,49.5,459.5,58.0,455.0,61.0,446.5,65.0,458.0,78.0,435.0,73.0,440.5,72.5,434.0,86.0,433.0,84.5,433.0,82.5,432.5,95.0,433.0,99.0,418.5,103.5,423.5,106.0,414.5,103.0,420.5,104.5,415.5,106.5,414.5,104.5,428.5,98.5,431.5,89.0,435.5,87.0,435.5,82.0,438.0,73.0,445.0,78.5,451.5,65.0,449.0,58.5,456.5,50.5,470.0,53.0,466.5,46.0,463.5,44.0,482.5,42.5,476.0,42.0,484.5,29.0,483.5,24.0,489.0,30.0,494.0,20.5,512.0,18.5,505.0,5.5" stroke="yellow" stroke-width="1" fill="none" />
<polyline points="508.5,5.0,510.5,1.5,507.0,9.5,503.0,21.5,496.5,26.5,492.0,21.5,493.5,25.0,482.5,25.5,483.0,31.0,484.5,36.0,466.0,46.0,467.5,42.0,463.0,54.0,464.5,56.5,462.0,56.5" stroke="orange" stroke-width="1" fill="none" />
<polyline points="504.5,81.5,502.5,75.5,504.5,88.0,501.5,90.0,496.5,98.5,488.0,96.0,483.0,104.0,479.0,100.0,479.5,108.5,469.5,116.0,467.0,118.5,469.0,125.0,458.5,137.5,457.5,139.5,466.5,142.5,466.0,142.0,464.5,140.5" stroke="yellow" stroke-width="1" fill="none" />
<polyline points="448.5,158.5,448.5,164.5,439.5,163.0,442.5,172.5,433.0,169.5,437.0,174.0" stroke="black" stroke-width="1" fill="none" />
<polyline points="443.0,185.0,432.5,181.0,437.0,185.5,435.0,184.5,436.5,181.0,441.0,179.5" stroke="green" stroke-width="1" fill="none" />
<polyline points="425.5,217.0,426.5,217.0,424.5,229.0,426.5,227.0" stroke="black" stroke-width="1" fill="none" />
<polyline points="418.5,236.0,414.5,234.0,412.5,241.0,415.0,245.0,417.0,249.5,412.5,243.5,412.5,246.0" stroke="black" stroke-width="1" fill="none" />
<polyline points="404.5,287.0,407.0,288.5" stroke="orange" stroke-width="1" fill="none" />
<polyline points="390.0,302.0,378.0,290.0,378.5,282.5,383.0,283.5,391.5,274.0" stroke="green" stroke-width="1" fill="none" />
<polyline points="373.5,267.0,370.0,265.0,373.5,262.0,373.5,259.5,373.0,255.0,371.5,254.5,374.0,243.5,373.0,243.5,365.5,238.5,375.0,236.0,367.0,233.0,373.5,221.5,371.5,221.5,374.5,223.5,372.5,221.5" stroke="yellow" stroke-width="1" fill="none" />
<polyline points="378.5,239.0,369.5,243.0,374.5,243.5,374.5,235.5" stroke="green" stroke-width="1" fill="none" />
<polyline points="369.5,242.5,369.0,252.5,363.5,256.5,372.5,258.0,369.5,263.0,369.0,279.5,370.0,267.5,371.0,274.0,364.0,275.5,368.5,276.0,366.5,279.0,363.5,280.5" stroke="green" stroke-width="1" fill="none" />
<polyline points="377.0,288.0,370.5,295.0,379.5,289.0,379.5,292.0,381.5,298.5,370.5,302.0,375.5,311.5,375.0,308.0,378.5,313.5,383.0,323.0,375.5,321.5,384.0,334.5,382.0,337.0,383.0,340.5,387.0,342.0,384.5,340.5" stroke="yellow" stroke-width="1" fill="none" />
<polyline points="367.5,356.0,373.0,360.5,380.5,366.5,377.0,365.0,370.0,372.5" stroke="green" stroke-width="1" fill="none" />
<polyline points="371.0,374.0,373.0,377.5" stroke="orange" stroke-width="1" fill="none" />
<polyline points="384.5,382.5,382.0,386.5,380.0,390.5,376.5,394.5,378.0,398.5" stroke="orange" stroke-width="1" fill="none" />
<polyline points="361.5,429.0,356.5,418.5,353.0,415.0,353.5,413.0,349.5,409.5,342.5,403.0,337.5,404.0,333.5,400.0,330.5,402.5,328.0,396.5,322.0,400.5,318.5,386.0,318.0,394.5,312.5,389.0,303.5,389.5,302.0,388.5,300.5,384.0,302.0,390.0,298.0,395.0" stroke="yellow" stroke-width="1" fill="none" />
<polyline points="314.5,374.0,321.0,363.0,324.0,359.5,325.5,355.0,333.0,345.0,333.0,346.0,331.0,348.0" stroke="yellow" stroke-width="1" fill="none" />
<polyline points="351.0,329.0,350.0,328.0,358.0,333.5,353.0,334.0,353.5,338.5" stroke="yellow" stroke-width="1" fill="none" />
<polyline points="356.0,362.0,355.5,363.0,354.0,367.0,360.0,374.5,354.0,381.0,353.0,384.5,353.5,387.5,355.0,395.0,350.0,390.0,351.0,401.0,351.5,404.5,346.0,408.0,349.5,410.5,356.5,410.0,351.0,412.0" stroke="black" stroke-width="1" fill="none" />
<polyline points="355.5,377.0,361.5,367.0,358.5,370.0,360.5,363.0,362.0,358.5" stroke="orange" stroke-width="1" fill="none" />
<polyline points="359.0,360.0,360.0,369.0,355.0,375.5,357.5,374.0,354.0,381.0,349.5,383.0" stroke="yellow" stroke-width="1" fill="none" />
<polyline points="361.0,357.5,355.5,362.0,353.0,365.0,355.5,364.0,353.5,370.5,353.5,373.5,354.0,380.5,357.0,380.0,346.0,391.0,350.5,394.5,356.0,399.0,360.0,397.0,356.5,404.0,354.0,410.0,361.0,408.5" stroke="black" stroke-width="1" fill="none" />
<polyline points="373.5,457.0,371.0,457.5,376.5,455.5,372.5,447.0,372.0,448.0,375.0,435.0,371.5,437.5,369.5,428.0,374.5,431.0,377.0,431.0,380.0,422.5,379.0,418.5,378.0,409.5,376.5,408.0,379.0,404.0,372.5,399.5,376.0,396.5,375.5,388.0,382.0,394.5,375.0,384.0,387.5,379.0,376.0,372.5,378.0,369.5,378.5,369.0,383.5,368.0,384.5,362.0,375.5,359.5,379.5,348.0,379.5,350.5,378.0,343.5,374.5,344.0,371.0,338.0,377.5,332.0,375.5,332.0,374.5,324.5,369.0,321.0,379.0,322.0,376.5,313.0,373.0,309.0,374.5,301.0,376.5,309.0,375.5,296.0,377.0,292.5,370.0,290.0,371.0,281.5,369.0,274.5,371.0,278.5,366.5,268.5,366.0,271.0,370.5,264.0,373.5,260.5,367.5,262.0,358.5,256.0,367.5,250.0,365.5,243.5,369.5,238.5,364.5,234.0,359.0,230.0,364.5,226.5,361.0,220.0,359.0,216.5,356.5,221.5,361.0,208.5,362.5,211.0,353.0,205.0,345.5,199.0" stroke="green" stroke-width="1" fill="none" />
<polyline points="" stroke="black" stroke-width="1" fill="none" />
<polyline points="" stroke="green" stroke-width="1" fill="none" />
<polyline points="360.5,198.5" stroke="yellow" stroke-width="1" fill="none" />
<polyline points="357.5,189.5,358.0,199.0,354.5,209.0,361.5,202.0,350.5,204.5" stroke="black" stroke-width="1" fill="none" />
<polyline points="" stroke="green" stroke-width="1" fill="none" />
<polyline points="351.0,201.5,354.0,208.0,351.5,211.5" stroke="yellow" stroke-width="1" fill="none" />
<polyline points="345.5,208.0,336.5,207.5,333.0,200.5,336.0,197.5,336.5,197.0" stroke="orange" stroke-width="1" fill="none" />
<polyline points="345.5,217.0,355.5,208.0,359.5,217.5,354.5,226.5,357.5,231.0,360.0,230.5,362.5,240.5,363.5,241.5,366.5,250.5,368.5,250.0,365.0,255.5,363.0,254.5" stroke="green" stroke-width="1" fill="none" />
<polyline points="365.5,240.0,363.5,240.0,368.0,244.0,364.5,246.0,364.5,243.5" stroke="black" stroke-width="1" fill="none" />
<polyline points="346.5,236.0,350.0,242.5,350.0,239.5" stroke="black" stroke-width="1" fill="none" />
<polyline points="339.0,253.0,338.5,257.0,333.5,255.0,334.0,260.0,330.0,258.0,331.0,258.5" stroke="black" stroke-width="1" fill="none" />
<polyline points="340.0,250.0,336.5,253.0,343.5,243.0,341.5,248.5,352.0,251.5,350.5,244.0,350.0,244.5" stroke="black" stroke-width="1" fill="none" />
<polyline points="340.0,261.5" stroke="black" stroke-width="1" fill="none" />
<polyline points="342.5,266.0,344.0,269.5" stroke="yellow" stroke-width="1" fill="none" />
<polyline points="347.0,275.5,354.5,286.0,351.5,284.5,356.5,295.5,348.5,295.0,346.5,299.5,352.5,304.5,349.0,307.5,341.5,307.5,346.0,314.5,341.5,317.0,337.5,325.0,347.0,323.0,339.5,326.5,336.0,333.0,334.0,338.0,331.0,334.5,327.0,344.5,331.0,354.5,327.0,351.5,325.5,357.5,319.0,360.5,320.0,366.5,318.0,370.0,319.0,370.5,319.0,378.0,310.5,377.5,315.0,381.5,315.0,389.5,316.0,385.5,327.5,399.0,340.5,400.0,343.5,407.5,344.0,412.0,352.0,416.0,353.5,414.5,361.0,420.5,358.5,428.5,357.0,435.0,362.0,432.0,365.5,429.5,367.5,443.0,361.5,446.0,370.0,454.5,373.0,456.0,366.5,460.5,375.5,463.5,365.5,474.5,373.5,475.5,370.5,473.5,371.0,470.0,375.0,482.5,376.0,490.0,381.0,486.5,380.5,490.5,381.5,498.5,383.5,495.5,379.5,503.0,388.0,511.0,393.5,511.5,386.5,520.0,391.0,521.0,394.5,514.0" stroke="black" stroke-width="1" fill="none" />
<polyline points="428.0,493.5,430.5,484.5,429.0,484.0,439.5,478.0,440.0,480.0,448.5,477.0,448.0,467.5,456.5,465.0,456.5,467.5,456.5,465.0,455.0,467.0" stroke="black" stroke-width="1" fill="none" />
<polyline points="446.5,475.5,446.5,476.5,450.0,470.5,449.5,464.0,447.5,462.5,455.5,467.0,455.5,468.5" stroke="orange" stroke-width="1" fill="none" />
<polyline points="463.0,442.5,462.0,439.0" stroke="yellow" stroke-width="1" fill="none" />
<polyline points="467.0,420.0,471.5,417.5,475.0,410.5,478.5,411.5,483.5,404.5,480.0,406.0,491.5,396.0,489.5,396.0,497.5,389.0,498.0,392.0,505.5,391.0,503.0,384.0,515.0,381.5,510.0,375.0,515.0,381.0" stroke="green" stroke-width="1" fill="none" />
<polyline points="514.5,385.0,506.0,386.0,499.0,385.0,490.0,396.0,490.0,400.0,485.0,406.0,480.0,409.5,478.5,411.5,471.0,417.0,472.5,426.0,471.5,421.5,465.0,427.0,460.0,429.0,463.0,435.0,460.0,438.5,448.0,438.5,462.0,443.5,462.0,451.0,456.0,457.0,452.5,456.5,453.5,456.0,448.5,470.0,447.0,474.5,447.0,476.0,445.5,482.0,442.0,483.0,442.5,480.5,438.5,480.0" stroke="green" stroke-width="1" fill="none" />
<polyline points="432.0,477.0,435.5,478.0,426.5,482.0,440.5,474.0,436.5,472.0,437.0,463.0,439.5,462.5,430.5,457.5,440.5,456.0" stroke="green" stroke-width="1" fill="none" />
<polyline points="432.5,461.0,434.5,456.0,427.5,450.0,428.5,456.5,433.0,445.0,439.0,438.5,439.0,440.5,439.0,427.5,429.5,428.5,431.5,433.5,431.5,429.5,434.5,430.5,429.0,431.0" stroke="yellow" stroke-width="1" fill="none" />
<polyline points="427.5,468.5,429.0,473.0,427.0,475.5,422.0,472.5,420.5,480.5,424.5,485.0,424.0,481.0,426.5,478.0" stroke="orange" stroke-width="1" fill="none" />
<polyline points="420.5,471.5,424.0,470.0,422.0,470.0,421.0,475.0,428.0,474.5,429.0,466.5,432.0,460.0,433.0,460.5,434.0,463.0" stroke="orange" stroke-width="1" fill="none" />
<polyline points="476.5,411.0,475.5,412.5,489.0,406.0,476.5,394.0,479.5,393.0" stroke="orange" stroke-width="1" fill="none" />
<polyline points="442.0,429.5,446.5,426.5,445.0,421.5,446.5,414.0,449.5,408.0,445.5,409.5,450.5,403.0,450.5,396.0,451.0,391.5,451.5,390.0,449.5,385.5,457.0,379.5,447.5,382.0,451.0,377.0,457.5,375.0,448.5,365.0" stroke="black" stroke-width="1" fill="none" />
<polyline points="382.5,344.5,389.5,340.5,384.0,334.0,373.5,324.5,382.0,326.5,381.5,325.0" stroke="green" stroke-width="1" fill="none" />
<polyline points="370.5,362.0,371.0,362.0,368.5,363.5,366.0,365.0,366.0,378.5,363.5,387.0,362.0,386.0,371.5,385.0,374.5,382.0,375.5,391.0,375.0,388.5,372.5,387.0" stroke="black" stroke-width="1" fill="none" />
<polyline points="324.5,341.5,327.0,343.5" stroke="yellow" stroke-width="1" fill="none" />
<polyline points="310.5,355.0,308.5,352.0" stroke="green" stroke-width="1" fill="none" />
<polyline points="304.5,357.0,298.5,353.5,298.0,355.5" stroke="green" stroke-width="1" fill="none" />
<polyline points="308.5,354.5,315.5,356.5,309.5,356.0,306.5,360.0,307.5,370.0,303.0,367.0,306.5,365.0" stroke="yellow" stroke-width="1" fill="none" />
<polyline points="309.5,347.0,309.5,345.5,297.5,350.0,300.5,349.0,298.5,349.5,299.5,354.5" stroke="orange" stroke-width="1" fill="none" />
<polyline points="305.5,328.5,306.5,324.5,316.5,327.0,313.0,324.5,305.0,330.5,306.0,330.0,305.5,328.5,312.0,333.5,310.5,336.5" stroke="orange" stroke-width="1" fill="none" />
<polyline points="313.5,319.0,311.5,324.5,299.0,331.0,294.5,336.0" stroke="yellow" stroke-width="1" fill="none" />
<polyline points="291.0,324.0,303.5,320.5,299.5,321.0,295.5,316.0,300.5,313.5" stroke="black" stroke-width="1" fill="none" />
<polyline points="319.0,332.5,324.0,324.0,326.5,322.0,323.0,320.5,321.5,311.0,321.5,306.5,325.0,317.0,322.0,301.5,322.5,303.5,324.0,305.0,323.0,302.5" stroke="black" stroke-width="1" fill="none" />
<polyline points="" stroke="green" stroke-width="1" fill="none" />
<polyline points="332.0,268.5,332.5,269.5,336.5,269.0,337.5,270.0,335.0,266.5,328.5,261.0,329.5,257.5,335.5,259.5" stroke="green" stroke-width="1" fill="none" />
<polyline points="326.0,260.5,325.5,264.5,326.5,265.5,327.5,275.0,328.5,275.5,325.0,279.5,330.0,265.5,334.5,269.5,320.5,274.5,330.0,260.0" stroke="yellow" stroke-width="1" fill="none" />
<polyline points="323.5,271.5" stroke="orange" stroke-width="1" fill="none" />
<polyline points="" stroke="green" stroke-width="1" fill="none" />
<polyline points="324.0,263.5,335.0,265.5,339.0,259.5,336.5,261.5,338.0,253.5,345.5,262.5,348.0,252.0,350.5,250.5" stroke="yellow" stroke-width="1" fill="none" />
<polyline points="350.5,233.5,347.0,237.0,348.0,228.0,343.0,224.0,336.0,217.0,341.0,213.5,339.0,212.5" stroke="black" stroke-width="1" fill="none" />
<polyline points="342.0,194.0,341.0,193.5,348.0,201.5,353.0,199.5,353.0,200.0,359.0,193.0,356.5,194.0,369.0,188.0,374.5,187.0,378.5,182.0,380.5,183.0,376.0,188.0,393.0,184.5,390.5,176.0,392.0,173.5,391.5,167.0,395.5,183.5,404.0,165.0,406.0,174.0,403.0,178.5,395.5,188.0,393.5,184.0,390.0,192.5,382.0,192.0,384.0,198.0,392.0,187.0,392.0,184.0,395.5,171.5,404.5,178.0" stroke="black" stroke-width="1" fill="none" />
<polyline points="400.0,157.5,406.0,163.0,408.5,164.5,394.5,172.5,386.0,174.5,386.5,175.0" stroke="black" stroke-width="1" fill="none" />
<polyline points="376.5,176.5,367.0,184.5,357.0,192.5,347.5,189.5,344.0,193.5,337.0,193.5,337.5,206.5,346.5,202.5,348.5,203.0" stroke="green" stroke-width="1" fill="none" />
<polyline points="332.0,206.0,339.0,209.0,341.0,207.5,331.0,213.5,331.0,210.0" stroke="black" stroke-width="1" fill="none" />
<polyline points="" stroke="green" stroke-width="1" fill="none" />
<polyline points="348.0,205.0,351.5,214.5,353.0,218.0,357.5,213.5" stroke="orange" stroke-width="1" fill="none" />
<polyline points="356.0,206.0,352.0,204.5,348.0,201.5,345.5,205.5,343.5,208.0" stroke="yellow" stroke-width="1" fill="none" />
<polyline points="344.5,202.5,351.5,207.0,347.0,204.5" stroke="orange" stroke-width="1" fill="none" />
<polyline points="" stroke="black" stroke-width="1" fill="none" />
<polyline points="345.5,198.5,348.0,198.5,347.0,202.5,350.5,206.0,353.5,205.5,353.0,207.5" stroke="black" stroke-width="1" fill="none" />
<polyline points="" stroke="black" stroke-width="1" fill="none" />
<polyline points="370.5,195.0" stroke="orange" stroke-width="1" fill="none" />
<polyline points="393.0,154.5,390.0,160.0,378.5,161.5,389.0,160.5,383.5,172.0,383.0,177.5,390.0,173.5,386.0,158.0,389.0,155.5,390.5,155.0" stroke="black" stroke-width="1" fill="none" />
<polyline points="399.5,166.5,392.0,168.5,398.5,163.5,404.5,161.5,387.5,174.5,396.0,174.5,387.0,171.0,396.5,170.5,399.0,163.5" stroke="yellow" stroke-width="1" fill="none" />
<polyline points="395.5,130.0,393.5,126.0,385.5,129.0,382.5,139.5,390.0,132.0,386.5,129.0,394.0,125.0,387.5,123.5,388.0,124.5" stroke="orange" stroke-width="1" fill="none" />
<polyline points="400.0,115.0,392.0,125.5,390.0,122.0,376.5,132.0,381.5,131.0,379.0,128.0,390.5,123.5,399.5,120.0,400.5,116.0" stroke="yellow" stroke-width="1" fill="none" />
<polyline points="391.5,119.5,391.5,124.0,384.5,123.0,382.5,131.0,371.0,134.0,361.5,140.0,354.0,143.0,354.0,142.5,352.5,139.5" stroke="green" stroke-width="1" fill="none" />
<polyline points="331.0,148.0,312.5,153.0,318.0,158.5,310.0,153.0,306.5,167.0,307.5,165.0" stroke="orange" stroke-width="1" fill="none" />
<polyline points="" stroke="yellow" stroke-width="1" fill="none" />
<polyline points="280.0,171.0,281.5,171.5,279.0,173.5,284.0,179.0,288.0,176.0,284.5,179.5,285.5,177.0" stroke="black" stroke-width="1" fill="none" />
<polyline points="284.5,176.5" stroke="orange" stroke-width="1" fill="none" />
<polyline points="276.5,177.5,280.0,183.0,277.0,173.5,278.0,172.0,273.0,172.5,274.5,172.5" stroke="orange" stroke-width="1" fill="none" />
<polyline points="273.0,181.0,266.0,184.5,257.0,176.5,257.0,179.5,263.5,180.0,248.0,172.0,246.0,168.0,245.5,164.0,250.5,166.5" stroke="green" stroke-width="1" fill="none" />
<polyline points="242.5,167.0,247.0,164.0,245.5,168.5,251.5,164.5,250.0,172.0,259.0,180.5,251.0,180.5,244.0,185.0,245.0,188.5,242.0,193.5,236.5,197.0,236.0,201.5,235.0,209.5,237.0,204.0,243.5,218.5,244.5,205.0,248.0,216.0,257.0,202.5,251.5,212.0,254.0,206.0,252.0,212.0,247.5,218.5,251.0,225.0,237.5,219.0,243.5,235.5,240.5,231.0,236.0,231.0,237.0,245.5,231.0,247.5,230.5,253.5,223.5,251.5,219.0,256.5,218.0,260.0,220.0,271.0,217.0,271.5,209.5,277.0,205.5,281.5,203.0,285.0,204.0,293.0,205.5,298.5,199.5,302.0,196.5,297.5,193.5,300.0,200.0,310.5,199.5,316.0,192.0,309.5,192.0,312.0,185.0,316.0,183.0,323.5,179.0,326.5,176.0,330.5,167.5,330.5,166.5,342.0,163.5,342.5,164.0,338.0" stroke="green" stroke-width="1" fill="none" />
<polyline points="154.5,352.0,159.5,346.5,160.0,361.5,151.0,359.5,155.0,366.0,149.5,369.0,160.5,376.0,163.0,369.5,156.0,382.5,157.5,384.0,155.5,391.5,157.5,393.5,151.0,390.0,156.5,401.5,165.5,406.0,160.0,407.5,164.0,409.0,162.0,407.5,162.5,408.0" stroke="black" stroke-width="1" fill="none" />
<polyline points="166.5,408.5,167.5,407.0,161.0,407.0,161.0,410.5,156.0,416.5,156.5,417.5" stroke="orange" stroke-width="1" fill="none" />
<polyline points="166.5,413.0,168.5,412.5,165.0,414.0,169.0,419.0,170.0,416.5,172.5,422.0,171.0,423.0,176.0,420.5" stroke="green" stroke-width="1" fill="none" />
<polyline points="" stroke="black" stroke-width="1" fill="none" />
<polyline points="183.0,446.0,176.5,443.0,176.0,442.5,186.5,443.0,187.5,438.5" stroke="green" stroke-width="1" fill="none" />
<polyline points="189.5,449.0,191.0,451.5" stroke="yellow" stroke-width="1" fill="none" />
<polyline points="" stroke="yellow" stroke-width="1" fill="none" />
<polyline points="" stroke="black" stroke-width="1" fill="none" />
<polyline points="180.0,454.5,177.5,461.5,179.0,460.5,168.0,468.5,170.5,470.5,165.5,472.5,166.0,475.0" stroke="orange" stroke-width="1" fill="none" />
<polyline points="154.0,473.5,159.0,473.0,151.5,468.5,139.0,454.0,142.0,456.5,143.0,456.5,140.5,455.5,136.0,459.0" stroke="yellow" stroke-width="1" fill="none" />
<polyline points="136.0,466.5,144.5,472.0,145.0,474.0,145.5,481.0,150.5,479.5,157.0,484.5,154.5,482.0,153.0,479.0,156.0,488.0,165.0,494.5,159.5,494.5" stroke="black" stroke-width="1" fill="none" />
<polyline points="165.5,500.0,167.0,502.5,165.0,503.5,166.5,499.5,164.5,499.5" stroke="green" stroke-width="1" fill="none" />
<polyline points="170.0,504.5,169.0,502.5,167.5,511.0,157.0,508.5,157.5,501.0,153.5,505.0,148.5,494.0,139.0,490.5,141.0,484.5" stroke="orange" stroke-width="1" fill="none" />
<polyline points="144.0,492.0,149.0,495.5,148.5,504.0,149.0,498.5" stroke="orange" stroke-width="1" fill="none" />
<polyline points="146.5,500.5" stroke="black" stroke-width="1" fill="none" />
<polyline points="" stroke="orange" stroke-width="1" fill="none" />
<polyline points="" stroke="green" stroke-width="1" fill="none" />
<polyline points="148.5,488.5,150.0,488.0,155.0,489.5,154.5,487.5" stroke="yellow" stroke-width="1" fill="none" />
<polyline points="149.5,490.5,154.5,493.0,156.5,495.5,156.5,499.5,158.5,499.0,156.5,508.0,157.0,512.0,163.0,506.0,160.5,506.5,161.5,510.0,156.5,512.5" stroke="orange" stroke-width="1" fill="none" />
<polyline points="150.0,502.0,144.0,498.0,147.0,490.0,143.5,486.5,138.0,478.0,143.5,482.5,142.0,485.5" stroke="black" stroke-width="1" fill="none" />
<polyline points="146.5,495.0,150.5,497.0,150.0,496.0,148.0,498.5,148.5,502.5,152.0,504.0,151.0,506.0" stroke="green" stroke-width="1" fill="none" />
<polyline points="141.0,497.0,145.5,490.5" stroke="yellow" stroke-width="1" fill="none" />
<polyline points="142.0,503.5,147.0,508.5,154.5,507.5,151.5,517.5,151.0,519.0" stroke="orange" stroke-width="1" fill="none" />
<polyline points="139.0,510.5,140.5,508.0,140.5,515.5,139.0,505.0,134.0,501.5,141.0,489.0,138.5,493.0" stroke="orange" stroke-width="1" fill="none" />
<polyline points="133.5,478.0,138.5,483.5,142.0,496.5,128.5,501.5,140.5,498.5,138.0,492.0" stroke="green" stroke-width="1" fill="none" />
<polyline points="" stroke="green" stroke-width="1" fill="none" />
<polyline points="122.0,509.5,124.0,508.0" stroke="orange" stroke-width="1" fill="none" />
<polyline points="116.5,509.0,120.0,510.0,119.5,514.0,124.5,508.5,121.5,494.5,123.5,498.5,124.5,489.5,130.0,489.5" stroke="black" stroke-width="1" fill="none" />
<polyline points="129.0,501.0,131.5,498.5,122.0,495.5" stroke="green" stroke-width="1" fill="none" />
<polyline points="135.0,517.0,132.0,514.5,130.5,511.0,129.5,504.0,126.0,504.5,125.0,510.0" stroke="black" stroke-width="1" fill="none" />
<polyline points="137.5,488.5,137.0,477.5,139.5,484.0" stroke="black" stroke-width="1" fill="none" />
<polyline points="131.0,473.5,128.0,484.5,134.0,493.5,133.5,495.0,140.0,506.5,132.5,501.0,141.5,506.5,138.5,518.5" stroke="green" stroke-width="1" fill="none" />
<polyline points="158.5,509.0" stroke="green" stroke-width="1" fill="none" />
<polyline points="" stroke="green" stroke-width="1" fill="none" />
<polyline points="171.0,483.0,158.0,481.5" stroke="green" stroke-width="1" fill="none" />
<polyline points="166.5,474.5,164.5,472.5" stroke="yellow" stroke-width="1" fill="none" />
<polyline points="166.0,473.0,161.5,466.5,172.5,470.5,175.0,471.0,173.5,483.5,162.0,486.0,167.5,485.0,171.5,499.0,172.0,492.0,171.5,490.5" stroke="yellow" stroke-width="1" fill="none" />
<polyline points="193.0,485.5,207.5,487.0,212.0,484.5,210.0,482.0,208.0,484.0,216.5,479.5,221.5,474.0,229.0,477.5" stroke="yellow" stroke-width="1" fill="none" />
<polyline points="232.5,461.5,232.5,460.5,230.0,456.0" stroke="yellow" stroke-width="1" fill="none" />
<polyline points="216.5,478.5,218.0,472.5,215.0,473.0,224.0,468.5,224.0,457.0,234.5,455.0,231.5,448.0,232.5,446.0,235.0,444.5,237.5,438.0,231.0,438.5,241.0,431.0,230.0,430.5,245.0,426.0,229.0,416.5,227.5,418.5,234.0,413.5,233.5,404.5,228.0,402.5,222.0,406.0" stroke="yellow" stroke-width="1" fill="none" />
<polyline points="223.0,409.0,224.0,409.0,224.0,418.5,223.5,409.5,228.0,409.0" stroke="orange" stroke-width="1" fill="none" />
<polyline points="241.5,417.5,223.5,415.5,222.5,417.0,232.5,427.5,221.5,423.0,224.5,416.5,222.0,418.5,227.5,417.5,225.5,420.0" stroke="orange" stroke-width="1" fill="none" />
<polyline points="248.5,416.0,244.5,426.0,242.0,426.0,237.5,423.5,237.0,432.0,240.0,436.5,241.0,446.0,238.0,444.0,245.0,445.5,239.0,456.0,238.5,456.5,231.0,458.5,234.0,471.5,231.5,469.5,222.5,473.5,224.5,477.5,225.0,480.0,218.0,487.5,217.5,485.0" stroke="black" stroke-width="1" fill="none" />
<polyline points="194.5,500.5,198.0,490.5,209.5,491.0,206.0,496.0,211.5,494.0,218.5,490.5,217.5,491.5,222.5,486.5,228.0,478.0,234.5,478.5" stroke="orange" stroke-width="1" fill="none" />
<polyline points="202.0,442.5,200.5,449.5,199.0,446.5,187.0,449.0,192.0,445.0" stroke="green" stroke-width="1" fill="none" />
<polyline points="182.0,448.5,180.0,454.0,192.0,452.5,185.0,453.0,184.0,442.0,191.5,441.0,180.5,432.0,173.5,431.5,183.0,432.0,189.0,424.0,182.5,421.0,179.5,424.0,184.0,414.0,174.5,414.0,176.0,414.5,170.0,396.0,160.5,396.0,162.0,390.5,167.5,393.5,161.0,388.0,166.0,384.0,166.0,376.5" stroke="black" stroke-width="1" fill="none" />
<polyline points="161.0,367.5,164.5,367.5,176.0,367.0,176.0,357.0,182.5,347.5,183.0,342.5,185.0,339.5,194.5,333.0,196.0,329.5,202.5,323.5,195.0,325.0,198.5,321.5" stroke="yellow" stroke-width="1" fill="none" />
<polyline points="198.5,320.0,204.5,317.5,211.5,319.5" stroke="yellow" stroke-width="1" fill="none" />
<polyline points="189.5,320.0,183.5,320.0,186.5,318.0,194.5,306.5,194.5,304.0,203.0,291.0,204.0,289.5,208.0,279.0,216.5,272.5,224.0,261.5,222.0,258.5,229.0,248.5,233.5,243.0,229.5,244.0,244.5,230.0,238.5,225.0,247.5,222.5,252.5,219.5,261.0,219.0,259.5,212.0,251.5,215.0" stroke="orange" stroke-width="1" fill="none" />
<polyline points="269.5,225.0,269.0,226.0" stroke="black" stroke-width="1" fill="none" />
<polyline points="273.0,232.5,271.5,233.0,262.5,243.5,262.5,243.5" stroke="black" stroke-width="1" fill="none" />
<polyline points="263.5,233.0,270.5,236.0,271.5,234.5,264.0,237.0,266.0,224.5,270.5,227.5,264.5,229.0,255.0,230.5,255.5,229.5,260.0,232.5,245.0,246.5,246.0,241.0,233.0,251.0,246.0,262.0,227.0,274.0,221.5,273.5,216.0,281.0,219.5,281.0,222.5,286.0,228.0,277.0,226.0,271.5,226.5,263.5,228.5,267.5,237.5,263.0,231.5,261.0,241.0,246.5,231.5,247.0,250.5,241.5,248.0,236.0,254.0,242.5,254.5,222.5,264.0,222.5,264.0,220.5,260.0,220.0,261.5,216.0,270.0,216.5,271.5,218.5,272.0,207.0,274.5,199.5,272.5,201.0,277.0,199.0,267.0,191.5,274.5,188.0,265.0,190.5,266.0,201.0,262.5,209.0,272.5,206.0,260.0,204.0,261.5,209.5,268.5,194.0" stroke="green" stroke-width="1" fill="none" />
<polyline points="253.5,194.5" stroke="black" stroke-width="1" fill="none" />
<polyline points="247.5,207.5,258.5,215.5,255.0,217.0,246.0,221.5,239.0,229.5,244.5,227.0,227.0,237.5,228.0,236.0,221.5,237.5,222.0,229.5,232.5,227.0,226.5,224.5,225.5,216.5,225.5,218.5,218.0,216.5,219.5,219.0,231.0,201.0,222.0,206.5,222.5,206.5,220.5,206.5,221.5,203.0,214.5,204.0" stroke="orange" stroke-width="1" fill="none" />
<polyline points="230.5,196.5,241.5,198.5,237.0,202.5,228.0,210.5" stroke="black" stroke-width="1" fill="none" />
<polyline points="" stroke="green" stroke-width="1" fill="none" />
<polyline points="" stroke="yellow" stroke-width="1" fill="none" />
<polyline points="249.0,206.0,249.0,197.0,259.0,186.0,260.0,188.5,257.0,181.0,248.5,194.0,242.0,197.0,253.0,192.0,268.0,185.0,259.5,192.0,255.5,189.0,265.5,182.5,267.0,174.5,277.0,182.0,274.5,181.5,272.0,177.0,276.5,183.0,281.5,179.0" stroke="orange" stroke-width="1" fill="none" />
<polyline points="260.5,179.5,253.0,189.5,250.0,197.0,253.0,193.0,249.5,198.0,250.0,201.5,243.5,199.0,240.0,205.0,247.0,205.5,255.5,204.5,246.5,195.5,252.0,194.5,264.0,194.5,259.0,188.0,262.5,179.5,269.5,198.0,270.0,195.5" stroke="black" stroke-width="1" fill="none" />
<polyline points="265.0,206.5,261.0,205.0,259.0,204.5,263.0,195.0,266.0,194.5,273.0,186.5,271.0,192.5,276.0,187.5,275.0,187.5" stroke="orange" stroke-width="1" fill="none" />
<polyline points="262.0,189.5,260.5,194.5,256.0,196.5,249.5,199.0,244.0,208.5,250.5,211.5,252.0,216.0" stroke="yellow" stroke-width="1" fill="none" />
<polyline points="260.5,202.5,270.0,200.0,259.5,202.0,261.0,210.0,262.5,204.5,255.5,213.5,260.5,213.5,253.5,226.0,248.5,224.5,242.0,231.5,245.0,229.5,238.0,243.5,239.5,245.5" stroke="yellow" stroke-width="1" fill="none" />
<polyline points="" stroke="black" stroke-width="1" fill="none" />
<polyline points="" stroke="orange" stroke-width="1" fill="none" />
<polyline points="228.0,221.0,221.0,219.5,229.5,231.0,227.5,223.5" stroke="yellow" stroke-width="1" fill="none" />
<polyline points="214.5,231.5" stroke="black" stroke-width="1" fill="none" />
<polyline points="222.0,235.5,228.0,243.0,218.5,235.5,226.5,244.5,223.5,242.5" stroke="black" stroke-width="1" fill="none" />
<polyline points="226.0,250.0,225.0,237.0,232.0,231.5,222.0,233.5,220.0,231.5,218.5,226.0,212.5,222.0,217.5,227.0" stroke="orange" stroke-width="1" fill="none" />
<polyline points="216.5,213.5,223.5,236.5,214.0,230.0,216.0,235.5,224.0,234.0,229.5,246.5,226.0,249.0,231.5,248.5,231.5,249.5" stroke="yellow" stroke-width="1" fill="none" />
<polyline points="225.0,252.5,219.0,262.0,216.0,273.0,216.0,273.0,207.5,288.5,197.5,286.0,194.5,291.0,196.0,304.5,190.5,317.5,190.0,320.5,184.0,326.5,181.5,327.5,172.0,327.5,172.5,331.0,162.0,335.5,156.5,331.5,155.0,335.0,153.5,340.5,142.5,350.5,141.5,346.5,143.0,344.0" stroke="yellow" stroke-width="1" fill="none" />
<polyline points="138.0,346.0,148.5,336.0,146.5,339.5,152.0,338.0,148.0,329.0,152.5,328.5,148.5,326.5" stroke="green" stroke-width="1" fill="none" />
<polyline points="154.0,329.5,154.5,332.5" stroke="green" stroke-width="1" fill="none" />
<polyline points="142.5,352.5,145.5,350.0,149.0,346.0,146.5,356.5" stroke="black" stroke-width="1" fill="none" />
<polyline points="146.0,351.5,131.0,349.0,134.0,338.5,136.5,342.0,132.0,335.0,139.5,328.5,133.5,326.5,133.5,320.0,134.0,316.5,128.0,317.0,132.0,314.0,130.5,307.0,131.5,298.0" stroke="green" stroke-width="1" fill="none" />
<polyline points="130.5,296.5,132.0,298.0,126.0,298.5" stroke="green" stroke-width="1" fill="none" />
<polyline points="135.5,292.0,140.5,307.0,138.5,303.5,140.5,304.5" stroke="yellow" stroke-width="1" fill="none" />
<polyline points="117.5,289.0,135.0,295.5,134.5,289.5,129.5,291.0,130.5,290.0" stroke="orange" stroke-width="1" fill="none" />
<polyline points="133.0,274.0,137.0,279.5,143.0,273.0,142.0,273.5" stroke="black" stroke-width="1" fill="none" />
<polyline points="157.0,264.5" stroke="yellow" stroke-width="1" fill="none" />
<polyline points="155.5,260.0,153.0,272.5,155.0,275.5,154.5,269.5,157.0,272.0,159.0,267.5" stroke="green" stroke-width="1" fill="none" />
<polyline points="151.5,272.0,155.5,271.5,151.5,273.5,154.5,274.5" stroke="orange" stroke-width="1" fill="none" />
<polyline points="168.5,276.5,170.5,270.0,174.5,267.0,166.5,262.5,175.0,258.5,170.0,256.0,175.5,256.5,167.5,259.0,169.5,263.0" stroke="yellow" stroke-width="1" fill="none" />
<polyline points="170.5,255.5,177.0,252.0,178.5,253.0" stroke="yellow" stroke-width="1" fill="none" />
<polyline points="169.5,261.5,171.0,260.0" stroke="green" stroke-width="1" fill="none" />
<polyline points="" stroke="green" stroke-width="1" fill="none" />
<polyline points="179.0,264.5,180.0,262.5,181.0,261.5,191.0,257.5,186.5,260.0,188.5,261.0" stroke="yellow" stroke-width="1" fill="none" />
<polyline points="" stroke="black" stroke-width="1" fill="none" />
<polyline points="" stroke="black" stroke-width="1" fill="none" />
<polyline points="180.5,254.0,189.0,259.0,187.5,261.5,185.0,267.0,193.0,262.5,184.5,269.5,181.0,266.0" stroke="black" stroke-width="1" fill="none" />
<polyline points="206.0,261.0,202.5,264.5,205.5,267.0,209.0,265.0,209.5,263.5" stroke="yellow" stroke-width="1" fill="none" />
<polyline points="211.0,247.5,219.5,264.5,210.0,251.5,210.0,247.0,211.5,246.5,207.0,237.0,208.0,235.0,209.5,236.5,206.5,241.0,201.5,235.5,203.5,235.0,206.0,235.5" stroke="orange" stroke-width="1" fill="none" />
<polyline points="204.0,241.5,208.5,235.0,208.5,248.5,214.5,247.5,218.5,239.5,222.5,244.0,214.5,248.5,211.5,249.0" stroke="yellow" stroke-width="1" fill="none" />
<polyline points="" stroke="black" stroke-width="1" fill="none" />
<polyline points="209.0,261.5" stroke="green" stroke-width="1" fill="none" />
<polyline points="212.5,257.5,215.5,249.0,210.5,247.5,207.0,240.0,206.5,240.0,213.0,235.5" stroke="black" stroke-width="1" fill="none" />
<polyline points="213.5,233.0,210.5,235.5,213.5,241.0,213.0,246.5,210.5,255.5,209.0,254.5,217.0,260.5,215.0,263.0,217.0,262.5" stroke="black" stroke-width="1" fill="none" />
<polyline points="215.5,251.0" stroke="black" stroke-width="1" fill="none" />
<polyline points="197.5,254.0" stroke="black" stroke-width="1" fill="none" />
<polyline points="190.5,250.0,191.5,248.5" stroke="green" stroke-width="1" fill="none" />
<polyline points="187.0,269.0,184.5,268.0,183.5,260.0,172.0,267.5,177.0,260.5,188.0,248.0,182.5,247.5,178.0,240.0,188.5,234.5,193.0,237.0,182.5,246.0,181.5,239.5,182.5,241.5" stroke="orange" stroke-width="1" fill="none" />
<polyline points="191.0,221.5,196.5,216.5,199.0,212.5,189.0,229.0,188.0,223.5" stroke="black" stroke-width="1" fill="none" />
<polyline points="186.0,225.5,181.0,221.0,191.0,227.5,188.0,233.0,187.0,236.0" stroke="orange" stroke-width="1" fill="none" />
<polyline points="181.0,240.5,181.5,240.5,183.5,239.0,184.5,241.5,184.0,241.0,185.5,238.5" stroke="black" stroke-width="1" fill="none" />
<polyline points="190.5,245.0,193.5,237.0,191.0,240.0,204.0,238.5,199.0,240.0" stroke="green" stroke-width="1" fill="none" />
<polyline points="220.0,226.5" stroke="green" stroke-width="1" fill="none" />
<polyline points="" stroke="black" stroke-width="1" fill="none" />
<polyline points="208.0,227.5,211.5,221.5,215.5,221.0,218.5,231.0,217.0,234.5,217.5,237.5,221.5,235.5" stroke="green" stroke-width="1" fill="none" />
<polyline points="223.5,198.0,219.5,213.5,217.0,221.0,222.5,215.0,219.0,217.5,224.0,232.0,231.5,231.5,227.0,238.0,232.5,236.0,237.5,244.5,234.5,241.0,234.5,251.5,228.0,254.5,230.5,250.5,223.5,253.5,214.0,268.5,221.0,264.0,219.0,265.5,218.5,271.5,212.5,285.0,203.5,282.0,216.5,293.0,202.5,288.5,202.5,294.0,211.0,303.0,190.0,303.0,203.5,312.5,204.5,320.0,199.5,316.0,194.5,314.0,186.0,327.5,200.5,320.5,194.5,312.5,201.0,313.0,214.0,311.5,211.5,312.0,221.0,299.5,227.0,305.5,234.0,287.0,227.0,280.5,236.0,281.5,232.5,267.5,239.0,273.0,250.5,265.5,245.0,259.5,252.5,257.0,249.0,256.5,256.0,252.0,262.0,252.5,270.0,241.5,282.5,251.0,279.5,247.5,277.5,254.0,292.5,254.0,287.0,245.0,301.0,256.5,300.5,253.0" stroke="yellow" stroke-width="1" fill="none" />
<polyline points="" stroke="green" stroke-width="1" fill="none" />
<polyline points="285.0,262.5,292.5,274.5,290.5,279.5,295.0,278.0,290.5,276.0,299.5,280.0" stroke="orange" stroke-width="1" fill="none" />
<polyline points="" stroke="black" stroke-width="1" fill="none" />
<polyline points="" stroke="green" stroke-width="1" fill="none" />
<polyline points="281.0,277.0,280.5,272.0" stroke="green" stroke-width="1" fill="none" />
<polyline points="277.0,264.5,274.0,266.5,274.0,260.0" stroke="orange" stroke-width="1" fill="none" />
<polyline points="285.5,264.0" stroke="yellow" stroke-width="1" fill="none" />
<polyline points="260.0,263.0,261.5,262.5,266.5,266.0,261.0,264.0" stroke="black" stroke-width="1" fill="none" />
<polyline points="263.0,265.5,264.0,274.5,265.0,274.0,270.0,270.5,273.5,267.5,283.5,262.0,277.5,276.5,269.0,289.0,277.0,275.5,274.5,280.0,278.5,287.5,282.5,289.5" stroke="yellow" stroke-width="1" fill="none" />
<polyline points="262.0,275.5,259.5,270.0,262.0,267.5,258.5,271.5,256.5,274.5,252.5,273.5,251.5,273.5" stroke="black" stroke-width="1" fill="none" />
<polyline points="272.5,273.0,270.5,281.0" stroke="black" stroke-width="1" fill="none" />
<polyline points="" stroke="yellow" stroke-width="1" fill="none" />
<polyline points="253.5,264.5,253.5,271.0,256.0,277.5,251.0,276.0,263.0,271.0,270.5,277.0,270.5,280.0,274.5,283.0,282.5,280.0,282.0,275.5" stroke="orange" stroke-width="1" fill="none" />
<polyline points="287.5,261.0,287.0,264.0,283.5,256.5,276.5,260.5,288.0,255.0,278.0,251.0,274.5,253.0,277.0,251.5,280.0,251.0,275.5,251.0,273.5,252.5" stroke="green" stroke-width="1" fill="none" />
<polyline points="272.5,245.0" stroke="orange" stroke-width="1" fill="none" />
<polyline points="" stroke="black" stroke-width="1" fill="none" />
<polyline points="271.5,258.5,272.5,256.0,280.5,255.5,271.0,260.0,264.0,252.0,262.5,250.5" stroke="black" stroke-width="1" fill="none" />
<polyline points="264.5,271.0,260.5,271.0" stroke="green" stroke-width="1" fill="none" />
<polyline points="280.0,270.5,285.0,269.5,284.5,270.5,289.0,276.5,286.5,276.0,285.5,271.0,282.0,280.0,288.0,278.5,291.0,267.0" stroke="orange" stroke-width="1" fill="none" />
<polyline points="" stroke="orange" stroke-width="1" fill="none" />
<polyline points="263.5,243.5,253.0,252.0,257.5,247.0,256.5,256.0,246.5,266.5,242.5,265.0,243.0,267.0,237.0,273.0,234.0,278.0,230.5,289.0,231.0,284.5,227.0,289.0,216.0,294.0,211.0,300.5,216.5,300.5,212.0,297.5,209.0,314.5,200.0,314.0,200.0,314.0,206.5,324.0,198.0,324.5,189.0,336.0,192.5,333.5,183.5,335.5,185.0,347.5,186.5,343.5,173.5,348.5,173.0,359.0,177.0,356.0,168.0,360.0,168.5,373.0,165.5,368.5,157.0,379.5,157.0,377.0,152.0,389.5,164.0,388.0,159.5,393.5,169.0,399.5,175.5,407.0,175.5,405.0,176.5,404.0,172.5,396.5,173.0,396.0" stroke="green" stroke-width="1" fill="none" />
<polyline points="155.0,389.0,159.0,390.5,159.5,394.5,159.5,388.5" stroke="black" stroke-width="1" fill="none" />
<polyline points="" stroke="black" stroke-width="1" fill="none" />
<polyline points="138.0,378.5,137.0,377.5,139.0,369.0,142.0,371.0,141.0,372.0,141.5,362.0" stroke="yellow" stroke-width="1" fill="none" />
<polyline points="139.0,383.5,139.5,382.5" stroke="orange" stroke-width="1" fill="none" />
<polyline points="133.5,411.0,130.0,414.5,128.0,412.5,131.0,418.5,137.5,424.5,137.5,428.0,139.0,431.5,139.0,437.0,137.0,439.5,134.5,442.0,140.5,445.0,143.5,452.5,138.0,450.0,138.0,463.5,138.0,458.5,140.5,468.0,139.5,465.5,140.5,470.0,147.5,470.0,147.5,477.5,149.0,475.0,157.5,485.0,161.5,483.5" stroke="orange" stroke-width="1" fill="none" />
<polyline points="" stroke="orange" stroke-width="1" fill="none" />
<polyline points="172.5,464.0,174.5,464.0,187.0,459.0,169.5,466.5,174.5,458.5,175.0,457.0,171.0,449.0,163.5,441.0,175.5,439.0,165.5,440.0,167.5,435.5,169.5,436.5" stroke="yellow" stroke-width="1" fill="none" />
<polyline points="169.0,437.0,161.5,439.0,164.5,437.0" stroke="black" stroke-width="1" fill="none" />
<polyline points="156.0,427.0,157.5,421.5,161.5,423.0,151.5,411.0,162.5,409.5,156.0,411.0,149.5,413.0,155.5,405.0,155.5,403.5,160.5,392.5,154.0,395.5,146.0,395.0,153.0,385.5,146.0,370.5,145.0,373.0,138.5,365.0,140.0,366.5,151.5,363.5,144.0,360.5" stroke="black" stroke-width="1" fill="none" />
<polyline points="148.0,363.0,144.5,363.0,149.0,359.5,152.0,369.0,148.0,375.5,151.5,376.0,151.0,383.0,156.0,378.5,152.0,380.0,156.5,398.0,155.5,391.0,163.5,402.0,170.0,399.5,170.5,402.5,168.0,409.5" stroke="orange" stroke-width="1" fill="none" />
<polyline points="181.0,425.0,175.5,429.0,169.5,439.5,172.0,440.0,169.5,437.5,172.0,441.5,171.0,452.0,176.5,450.5,182.5,460.0,175.5,451.0,177.5,467.0" stroke="green" stroke-width="1" fill="none" />
<polyline points="168.0,452.0" stroke="orange" stroke-width="1" fill="none" />
<polyline points="164.5,450.5,160.0,443.5,162.5,446.0,174.0,457.5,167.5,462.5,180.0,456.5,166.5,467.5,171.0,468.5,163.5,467.5,166.5,484.5,174.5,477.0,153.0,481.0,162.5,490.5,166.5,488.5,162.0,500.5,160.5,495.0,166.0,509.5,172.0,500.5,178.0,514.5,172.5,516.0,178.0,507.5,169.0,512.5,171.5,512.5" stroke="orange" stroke-width="1" fill="none" />
<polyline points="" stroke="black" stroke-width="1" fill="none" />
<polyline points="157.5,461.5,158.0,465.5" stroke="green" stroke-width="1" fill="none" />
<polyline points="" stroke="green" stroke-width="1" fill="none" />
<polyline points="150.5,449.0,164.5,450.5,152.5,447.0,154.5,443.0,149.5,438.5,144.0,435.0,156.0,432.0,149.5,425.5,146.0,427.5,141.5,418.5,137.5,414.5,134.5,407.0,136.5,407.0,132.5,412.0" stroke="orange" stroke-width="1" fill="none" />
<polyline points="139.0,399.0,148.5,399.0,146.0,397.5,154.5,387.5,145.5,397.0,145.0,399.5,144.0,402.0" stroke="orange" stroke-width="1" fill="none" />
<polyline points="142.0,404.5,136.0,406.5,135.0,411.0" stroke="orange" stroke-width="1" fill="none" />
<polyline points="134.5,400.5,141.0,407.5,145.0,401.0,141.5,410.0,144.0,408.5,146.0,412.0,146.5,414.0" stroke="green" stroke-width="1" fill="none" />
<polyline points="156.5,424.0,153.0,426.5,155.5,429.5,159.5,424.5,155.5,435.5,149.5,440.5" stroke="black" stroke-width="1" fill="none" />
<polyline points="165.5,446.5,162.0,440.0,168.0,449.0,176.5,445.5,181.0,442.5,180.0,441.5" stroke="black" stroke-width="1" fill="none" />
<polyline points="183.0,430.0,183.0,425.0,171.0,412.0,176.5,415.0,181.0,414.0,168.0,415.5,167.0,412.0,163.0,410.0,164.5,399.0,164.5,396.0,161.0,400.0" stroke="black" stroke-width="1" fill="none" />
<polyline points="181.5,415.0,179.5,414.5,173.0,421.0,164.5,419.5,173.0,431.5,163.0,431.0,163.5,432.5,159.5,428.0,163.0,437.5,159.5,437.0,161.5,431.5,175.0,429.5,170.0,430.5" stroke="yellow" stroke-width="1" fill="none" />
<polyline points="166.0,432.0,163.0,431.0" stroke="yellow" stroke-width="1" fill="none" />
<polyline points="163.5,445.0,155.5,454.0,153.0,457.0,159.5,452.5,163.0,453.0,165.5,457.5,164.5,463.0,166.5,465.5" stroke="yellow" stroke-width="1" fill="none" />
<polyline points="167.5,455.5,161.0,457.5,161.5,458.0,167.5,457.0,162.0,450.0" stroke="black" stroke-width="1" fill="none" />
<polyline points="" stroke="black" stroke-width="1" fill="none" />
<polyline points="150.5,452.0,151.5,455.5,154.5,453.5,154.0,455.5,154.0,457.0,163.0,456.5" stroke="orange" stroke-width="1" fill="none" />
<polyline points="144.5,446.5" stroke="orange" stroke-width="1" fill="none" />
<polyline points="149.5,462.5,150.0,462.5,147.5,468.5,156.5,470.5,149.0,473.5,154.0,478.0,153.0,478.5,159.0,483.0,153.5,480.5" stroke="green" stroke-width="1" fill="none" />
<polyline points="152.0,474.0,147.5,473.5" stroke="yellow" stroke-width="1" fill="none" />
<polyline points="144.0,462.5,150.5,462.5,156.0,465.0,154.5,465.5" stroke="black" stroke-width="1" fill="none" />
<polyline points="148.5,472.0,139.0,469.0" stroke="black" stroke-width="1" fill="none" />
<polyline points="141.0,456.5,136.0,456.5,147.5,462.5,139.0,459.5,144.0,474.0,142.0,472.5,154.0,474.0,156.0,480.0" stroke="green" stroke-width="1" fill="none" />
<polyline points="162.5,474.0,160.0,477.5,155.0,472.5,160.5,475.0,156.5,473.5,145.5,466.5,151.5,460.5,145.0,452.5" stroke="green" stroke-width="1" fill="none" />
<polyline points="142.5,457.5,141.0,452.0,146.0,456.5,142.0,459.0,148.5,468.5,150.0,472.0,149.0,470.5,151.5,474.0,150.5,474.5,153.5,488.5,158.5,491.5,157.0,489.5,164.5,494.5,165.5,499.0" stroke="green" stroke-width="1" fill="none" />
<polyline points="162.0,451.5,156.5,453.0,160.5,448.0,159.5,449.0,153.0,455.0,154.5,447.0,152.5,444.5,153.0,433.0,145.0,438.5,146.0,433.0,150.5,433.0,145.5,422.0" stroke="green" stroke-width="1" fill="none" />
<polyline points="" stroke="orange" stroke-width="1" fill="none" />
<polyline points="143.5,428.0,146.0,426.0" stroke="black" stroke-width="1" fill="none" />
<polyline points="136.0,417.5,146.0,416.5,147.0,413.0" stroke="black" stroke-width="1" fill="none" />
<polyline points="141.5,410.5,145.0,421.5,142.5,422.0,148.5,421.0,146.0,430.5,153.5,431.0,155.5,433.5" stroke="black" stroke-width="1" fill="none" />
<polyline points="157.0,419.5,151.0,425.0,158.5,424.0,153.0,409.0,152.0,411.5,150.5,402.0,149.5,399.5,149.5,395.0,145.5,392.5,142.0,392.0,142.5,394.0,139.5,396.5" stroke="orange" stroke-width="1" fill="none" />
<polyline points="152.5,394.0,151.0,396.5,138.5,400.5" stroke="black" stroke-width="1" fill="none" />
<polyline points="" stroke="yellow" stroke-width="1" fill="none" />
<polyline points="148.0,406.5,142.5,399.5,141.5,398.0,138.5,400.0,126.0,405.0,124.0,400.0,123.0,402.5,122.5,396.0,118.5,394.5,123.0,399.0" stroke="yellow" stroke-width="1" fill="none" />
<polyline points="121.0,396.0,121.5,397.0,125.0,393.5,120.0,403.0,133.5,403.5,129.0,401.5,127.5,401.5" stroke="black" stroke-width="1" fill="none" />
<polyline points="121.0,408.0,129.0,412.0,134.5,395.0,137.5,401.0,144.0,388.5,134.0,398.5,139.0,384.5,137.5,379.5,141.5,374.0,144.5,378.5,151.5,368.0,150.0,365.5,144.0,365.0,136.5,352.0,139.0,353.5,144.5,351.0,142.0,347.5,136.0,347.5,133.0,345.5,136.0,335.0,137.5,336.0,135.0,330.5,127.0,318.5,135.5,313.0,128.0,320.5,126.0,308.5,122.5,308.5,127.0,297.0,132.0,295.0,130.0,292.0,136.5,292.0,130.5,282.5,129.0,274.0,129.5,272.0,128.5,272.5" stroke="black" stroke-width="1" fill="none" />
<polyline points="124.0,268.5,132.0,275.0,132.5,281.0,131.0,288.0,124.5,286.5,129.5,294.5,123.5,296.5,127.5,293.0,127.0,304.5,121.5,305.5,120.5,313.5,116.0,316.5,121.5,319.0,120.5,321.0,120.0,327.0,119.5,332.0,121.0,332.0,120.0,334.5,123.0,331.5" stroke="black" stroke-width="1" fill="none" />
<polyline points="" stroke="black" stroke-width="1" fill="none" />
<polyline points="118.5,345.0,118.0,345.5,127.0,360.5,121.5,369.5,116.0,366.5,114.5,367.0,119.0,368.0,113.0,379.0,118.5,385.0,116.0,384.0,118.5,387.0,118.0,398.0,121.5,401.5,123.5,398.0" stroke="black" stroke-width="1" fill="none" />
<polyline points="125.5,397.0,122.5,398.0,121.5,394.5,116.0,383.0,122.0,392.0,127.5,382.5,123.0,376.5,123.5,380.5,119.5,373.0,117.0,360.5,120.0,369.0" stroke="black" stroke-width="1" fill="none" />
<polyline points="125.5,374.0,120.0,383.5,127.0,379.5,126.0,384.0" stroke="yellow" stroke-width="1" fill="none" />
<polyline points="120.5,393.0,120.5,386.5,126.5,397.0,127.5,398.5" stroke="green" stroke-width="1" fill="none" />
<polyline points="129.5,392.5,122.0,389.0,131.0,397.5,142.0,391.0,133.5,393.0,142.5,392.5,141.0,392.5,143.0,396.5" stroke="yellow" stroke-width="1" fill="none" />
<polyline points="" stroke="yellow" stroke-width="1" fill="none" />
<polyline points="114.0,401.5,120.0,396.0,121.0,397.5,121.5,398.5,119.0,400.5" stroke="yellow" stroke-width="1" fill="none" />
<polyline points="120.5,409.5,126.0,406.5,127.0,404.5,129.0,414.0,127.0,419.5,133.5,421.0,139.0,423.0,132.0,428.5,136.5,434.0" stroke="green" stroke-width="1" fill="none" />
<polyline points="" stroke="green" stroke-width="1" fill="none" />
<polyline points="128.0,413.0" stroke="orange" stroke-width="1" fill="none" />
<polyline points="147.5,410.5" stroke="green" stroke-width="1" fill="none" />
<polyline points="146.0,403.5,144.5,406.0" stroke="orange" stroke-width="1" fill="none" />
<polyline points="" stroke="yellow" stroke-width="1" fill="none" />
<polyline points="155.0,394.0,151.5,391.5,151.5,392.5,150.5,389.5,149.5,387.0" stroke="orange" stroke-width="1" fill="none" />
<polyline points="171.0,405.0,171.5,401.5,172.0,407.5,176.5,409.0,176.0,414.5,171.0,412.5,173.5,412.5,176.0,410.5" stroke="green" stroke-width="1" fill="none" />
<polyline points="165.5,417.5,154.0,408.0,162.5,404.0,160.0,396.5,143.0,396.5,146.0,392.0,143.0,392.0,141.0,392.0,140.5,389.0,138.5,379.5,142.5,391.5,148.0,384.5,131.0,376.0,138.0,377.0,131.5,368.0,140.5,357.0,138.0,368.0,140.5,356.5,141.0,348.0,142.5,356.0,135.0,342.0,131.0,340.5,128.0,338.0,128.0,334.5,140.5,325.0" stroke="yellow" stroke-width="1" fill="none" />
<polyline points="118.5,326.0,125.5,330.5,122.0,335.5,118.0,345.0,121.0,345.5,118.5,345.0" stroke="black" stroke-width="1" fill="none" />
<polyline points="116.5,344.5,121.0,349.5,120.5,354.5,118.5,364.5,117.0,366.0,117.5,379.5,121.5,385.0,124.5,381.5,126.5,383.0,135.0,388.0,134.5,384.0,127.5,397.5" stroke="orange" stroke-width="1" fill="none" />
<polyline points="" stroke="orange" stroke-width="1" fill="none" />
<polyline points="" stroke="green" stroke-width="1" fill="none" />
<polyline points="139.0,362.5" stroke="black" stroke-width="1" fill="none" />
<polyline points="" stroke="green" stroke-width="1" fill="none" />
<polyline points="128.5,354.0,134.0,353.5,122.0,358.0,137.0,368.0,133.5,369.0,127.0,374.0,136.5,367.0" stroke="yellow" stroke-width="1" fill="none" />
<polyline points="144.5,362.0,143.0,360.0,141.5,355.0,143.0,349.0,144.5,346.5,135.0,345.0,138.0,340.0,137.0,324.0" stroke="orange" stroke-width="1" fill="none" />
<polyline points="138.5,344.0,137.0,345.5,133.5,339.5" stroke="green" stroke-width="1" fill="none" />
<polyline points="" stroke="black" stroke-width="1" fill="none" />
<polyline points="132.5,346.0,134.5,343.5,138.5,348.0,142.0,338.5" stroke="green" stroke-width="1" fill="none" />
<polyline points="133.0,340.5,132.0,337.5,134.0,341.0,135.5,341.5" stroke="black" stroke-width="1" fill="none" />
<polyline points="124.5,344.0,118.5,352.5,116.5,351.5,118.5,364.5,115.5,367.0,119.0,367.5,117.0,373.0,119.0,376.5,123.0,382.5,121.0,393.5,113.0,395.0,116.5,395.0,118.0,406.5,119.5,395.0,116.5,407.5,115.0,415.5,109.0,412.5,116.5,413.5,115.5,411.0" stroke="yellow" stroke-width="1" fill="none" />
<polyline points="119.0,416.5,116.5,412.5" stroke="green" stroke-width="1" fill="none" />
<polyline points="123.5,422.5,124.0,419.0" stroke="green" stroke-width="1" fill="none" />
<polyline points="130.5,424.0" stroke="yellow" stroke-width="1" fill="none" />
<polyline points="" stroke="green" stroke-width="1" fill="none" />
<polyline points="120.5,440.0,119.0,434.5,112.0,434.0,122.5,434.0,119.0,443.0,124.5,443.5,124.5,440.0,126.5,440.0" stroke="black" stroke-width="1" fill="none" />
<polyline points="118.5,442.0,117.0,442.5" stroke="green" stroke-width="1" fill="none" />
<polyline points="" stroke="black" stroke-width="1" fill="none" />
<polyline points="125.5,451.5,129.0,450.5,125.5,449.5,127.0,452.0" stroke="yellow" stroke-width="1" fill="none" />
<polyline points="109.5,448.5,108.0,440.5,104.0,437.5" stroke="orange" stroke-width="1" fill="none" />
<polyline points="103.5,432.0,101.5,432.0" stroke="orange" stroke-width="1" fill="none" />
<polyline points="85.0,451.5,94.0,459.5,100.0,447.0,91.0,453.0,92.5,453.5" stroke="yellow" stroke-width="1" fill="none" />
<polyline points="81.5,458.5,84.0,457.5,92.0,451.5" stroke="green" stroke-width="1" fill="none" />
<polyline points="104.0,462.0,100.5,460.0,99.5,465.0" stroke="yellow" stroke-width="1" fill="none" />
<polyline points="102.0,494.0,103.5,502.0,105.0,505.5,104.5,508.5,108.5,512.5,107.5,511.0,106.0,510.5,104.0,510.0,107.0,504.0,108.5,505.0" stroke="yellow" stroke-width="1" fill="none" />
<polyline points="112.0,510.5,113.5,509.5,106.5,496.5,107.5,487.5,109.5,488.0,109.5,487.0" stroke="green" stroke-width="1" fill="none" />
<polyline points="121.0,488.5,112.0,498.0,115.5,496.5,116.5,504.0,122.0,512.0,117.5,512.5,119.5,511.5" stroke="yellow" stroke-width="1" fill="none" />
<polyline points="98.5,503.0,99.0,504.0,99.5,505.5" stroke="yellow" stroke-width="1" fill="none" />
<polyline points="103.0,493.0,102.0,492.0,96.5,494.0,101.0,506.5,104.5,507.5,106.5,509.0,109.5,513.0" stroke="green" stroke-width="1" fill="none" />
<polyline points="119.5,499.5,120.0,509.0,123.0,501.5,122.5,492.0,116.0,493.0,123.5,486.0,123.0,476.5" stroke="orange" stroke-width="1" fill="none" />
<polyline points="124.0,486.0,129.5,490.5,126.5,488.0,126.5,493.5,129.5,498.0,127.5,505.0,126.5,506.5" stroke="black" stroke-width="1" fill="none" />
<polyline points="157.5,447.0,148.0,446.5,146.0,432.0,142.0,427.0,134.0,422.5,128.5,426.5,133.0,424.0" stroke="black" stroke-width="1" fill="none" />
<polyline points="134.0,424.0,138.0,426.0,128.5,423.5,138.5,430.0,142.5,434.5,142.5,441.5,147.5,448.5,146.5,453.5,139.5,450.5,134.5,458.5,135.0,454.5,131.5,473.5,133.5,459.0,138.5,458.5,138.5,459.5,136.0,461.5,134.0,462.5" stroke="green" stroke-width="1" fill="none" />
<polyline points="136.0,442.0,144.0,427.0,137.5,426.0,139.0,425.5" stroke="orange" stroke-width="1" fill="none" />
<polyline points="125.5,428.5,124.0,425.0,127.5,415.5,127.5,414.0,132.5,418.0" stroke="black" stroke-width="1" fill="none" />
<polyline points="109.5,417.0,116.0,432.0" stroke="yellow" stroke-width="1" fill="none" />
<polyline points="132.5,439.0" stroke="black" stroke-width="1" fill="none" />
<polyline points="106.5,415.5,102.0,412.5,109.0,422.0,105.5,429.5,109.5,434.5,110.0,433.0,110.0,438.5,103.0,445.0" stroke="black" stroke-width="1" fill="none" />
<polyline points="102.5,438.5,97.0,439.5,91.5,443.0,87.5,441.5,93.5,442.5,101.0,438.5,100.0,440.0,102.5,427.0,104.0,427.5,113.5,423.0,111.0,423.0" stroke="orange" stroke-width="1" fill="none" />
<polyline points="82.0,421.0,92.5,425.0,88.5,426.5,95.5,430.0,93.0,427.5,95.5,426.5,93.5,427.0" stroke="yellow" stroke-width="1" fill="none" />
<polyline points="87.0,422.5,94.0,423.5,75.5,427.5,86.5,417.5,88.0,419.0,94.5,423.5" stroke="black" stroke-width="1" fill="none" />
<polyline points="98.5,406.0,101.0,405.5" stroke="black" stroke-width="1" fill="none" />
<polyline points="" stroke="black" stroke-width="1" fill="none" />
<polyline points="97.5,389.0,85.0,399.5,99.5,397.5,101.5,394.5,90.5,411.5" stroke="yellow" stroke-width="1" fill="none" />
<polyline points="97.0,406.5,98.0,409.5,94.5,407.5,95.5,406.5,97.0,405.5,94.5,404.5,89.5,407.0,97.0,395.5,90.5,393.5,89.0,380.0,78.0,384.5,86.0,390.0,86.0,387.0,84.0,384.0" stroke="orange" stroke-width="1" fill="none" />
<polyline points="85.5,393.0,73.0,401.5,69.5,406.5,70.5,400.0,76.0,405.5,68.5,420.0,70.5,418.0,68.0,414.0,69.5,421.0,65.5,423.0,69.0,425.0,76.0,427.5,72.0,433.5,72.0,431.0,69.0,444.0,67.0,443.0,72.5,446.0,72.5,448.0,71.0,452.5,69.0,458.0,73.0,460.0,82.0,459.5,71.0,472.0,60.5,478.5,67.5,482.5,63.0,479.5,64.0,488.0,71.0,494.5,64.0,497.0,69.0,501.5,63.0,500.0,66.5,505.0,66.0,510.5,55.5,514.0,65.0,506.0,58.5,506.0" stroke="black" stroke-width="1" fill="none" />
<polyline points="62.5,505.5,61.5,498.0" stroke="green" stroke-width="1" fill="none" />
<polyline points="70.5,489.0,73.0,488.0" stroke="green" stroke-width="1" fill="none" />
<polyline points="66.0,479.0,68.5,476.0,64.0,478.0,69.0,482.5,68.0,486.0,67.5,483.5,67.5,488.0,66.5,498.0,67.5,494.0,69.5,491.5" stroke="green" stroke-width="1" fill="none" />
<polyline points="67.0,465.5,64.5,469.0,74.0,457.0,79.5,458.5,80.5,449.0,80.5,447.5,78.5,450.0" stroke="orange" stroke-width="1" fill="none" />
<polyline points="" stroke="orange" stroke-width="1" fill="none" />
<polyline points="73.0,451.5,71.5,453.5" stroke="green" stroke-width="1" fill="none" />
<polyline points="58.5,448.5,64.5,450.5,63.5,464.5,65.5,461.5,61.0,465.0,63.5,462.0,68.0,473.0,72.0,475.0,73.5,484.0,76.0,484.0" stroke="yellow" stroke-width="1" fill="none" />
<polyline points="30.5,491.5,29.0,502.5,30.0,503.5" stroke="black" stroke-width="1" fill="none" />
<polyline points="20.0,503.5,17.0,494.5,19.0,505.0,17.5,504.0,17.0,505.0,16.0,511.0,15.5,515.0" stroke="yellow" stroke-width="1" fill="none" />
<polyline points="17.0,498.5,15.0,500.0" stroke="orange" stroke-width="1" fill="none" />
<polyline points="" stroke="black" stroke-width="1" fill="none" />
<polyline points="13.5,420.5,8.0,425.0,10.5,420.5,1.5,430.5,9.0,430.5,11.0,440.5,14.0,442.0,10.0,445.5,14.5,442.0,10.0,446.5,17.5,453.5,14.0,454.5,13.0,463.0,9.5,460.0,21.0,473.0,15.5,467.5" stroke="orange" stroke-width="1" fill="none" />
<polyline points="43.5,469.5,32.5,463.5,32.0,453.5,29.5,462.0,28.5,458.5,32.0,443.0,33.0,440.0,34.0,439.5" stroke="green" stroke-width="1" fill="none" />
<polyline points="22.5,418.0,26.5,420.0,26.5,415.0,27.5,414.0" stroke="green" stroke-width="1" fill="none" />
<polyline points="27.0,415.0,25.5,413.0,26.5,421.0,24.5,419.0,22.0,428.5,22.0,426.0,23.5,440.0,32.0,441.0,19.5,439.0,28.0,447.0,29.5,448.5,30.5,449.0,21.5,453.5,28.0,459.0,28.0,459.5,26.5,469.0,30.0,477.0,33.0,475.5,24.0,475.5,30.0,485.0,25.0,490.0,27.5,494.0,36.0,497.5,32.0,496.5" stroke="orange" stroke-width="1" fill="none" />
<polyline points="58.5,433.0,65.5,432.5,69.0,437.5" stroke="orange" stroke-width="1" fill="none" />
<polyline points="71.0,423.5,70.5,426.0,68.0,426.5,69.0,422.5,67.0,414.0,68.5,416.0,62.0,406.5,67.0,400.5,78.0,398.0,73.0,395.5,79.0,393.0,66.0,401.0,74.0,396.5" stroke="yellow" stroke-width="1" fill="none" />
<polyline points="76.5,399.5" stroke="yellow" stroke-width="1" fill="none" />
<polyline points="" stroke="orange" stroke-width="1" fill="none" />
<polyline points="69.0,417.5,74.0,404.0,67.0,406.0,70.0,417.5,64.0,420.0,59.5,425.5,66.5,424.5" stroke="orange" stroke-width="1" fill="none" />
<polyline points="74.5,416.0,74.0,419.5,75.5,423.5" stroke="orange" stroke-width="1" fill="none" />
<polyline points="100.0,442.0,97.5,437.0,102.0,434.5,100.5,440.0,96.5,441.0" stroke="green" stroke-width="1" fill="none" />
<polyline points="" stroke="black" stroke-width="1" fill="none" />
<polyline points="103.0,401.5,112.0,409.0,107.5,408.5,96.5,414.0,92.5,417.5,96.0,417.5" stroke="black" stroke-width="1" fill="none" />
<polyline points="93.0,407.5,103.5,396.0,108.5,404.0,100.5,398.5,105.5,399.5,101.5,399.5" stroke="black" stroke-width="1" fill="none" />
<polyline points="97.5,369.0,103.5,372.0,107.5,379.0,103.0,366.0,105.0,364.5,102.0,358.0,107.5,357.0,109.5,356.0,108.0,360.5,109.5,352.0,104.5,340.5,107.5,335.5,104.0,336.5" stroke="green" stroke-width="1" fill="none" />
<polyline points="102.0,338.5,109.0,340.5,101.0,332.5,105.5,337.5,104.0,335.0,103.0,336.5" stroke="orange" stroke-width="1" fill="none" />
<polyline points="" stroke="green" stroke-width="1" fill="none" />
<polyline points="102.5,325.0,108.0,306.5,118.0,312.5,123.5,308.0,123.5,308.0,123.5,312.5,114.5,317.0,112.0,323.0,105.5,311.5,103.5,309.5,113.0,310.0,113.0,323.5,101.0,318.0,104.5,320.0,111.0,318.0,113.0,311.5,120.5,303.5,117.0,299.0,118.5,302.5,121.0,298.5" stroke="black" stroke-width="1" fill="none" />
<polyline points="116.5,307.5,121.0,313.0,121.5,313.0,117.5,319.5,111.5,324.5,119.0,321.0,107.5,329.0,107.5,332.0,98.0,340.0,89.0,338.5,100.5,347.0,92.5,338.0,101.5,347.0" stroke="black" stroke-width="1" fill="none" />
<polyline points="" stroke="green" stroke-width="1" fill="none" />
<polyline points="95.0,364.5,93.5,366.0,92.0,375.5,98.5,374.5,94.0,385.0,90.5,391.0,87.0,392.5,91.0,392.5,89.0,386.5,89.0,400.0,92.5,404.0,90.0,409.5,93.5,413.0,89.5,413.5,105.5,406.0,108.5,419.0,105.5,407.0,116.5,401.5" stroke="green" stroke-width="1" fill="none" />
<polyline points="120.0,365.5,121.0,361.5,123.0,363.0" stroke="orange" stroke-width="1" fill="none" />
<polyline points="122.0,370.5,120.5,370.5,131.0,384.5,130.0,385.0,130.0,383.5,126.0,387.0,134.0,394.0,129.5,398.5,132.5,394.0,132.0,396.0" stroke="yellow" stroke-width="1" fill="none" />
<polyline points="120.5,370.0,117.0,360.5,120.0,357.5,120.5,356.5" stroke="green" stroke-width="1" fill="none" />
<polyline points="127.5,374.0,118.5,374.0,126.5,376.5,129.5,379.0,131.5,378.5" stroke="orange" stroke-width="1" fill="none" />
<polyline points="128.5,366.0,127.5,363.5,127.0,362.0" stroke="orange" stroke-width="1" fill="none" />
<polyline points="123.5,364.0,130.0,359.0,131.5,372.5,137.0,370.5,136.0,368.0" stroke="black" stroke-width="1" fill="none" />
<polyline points="172.0,362.5,176.0,356.0,180.5,354.0,179.0,344.5,181.0,339.0" stroke="green" stroke-width="1" fill="none" />
<polyline points="182.0,329.5,188.0,331.0,177.0,339.5,169.0,340.0,163.5,347.0,168.0,353.0,161.0,357.0,159.5,368.0,161.0,366.0,161.5,368.5,165.5,359.0,176.5,355.5,176.5,349.5,173.5,346.5,180.0,335.5,189.0,340.5,189.0,327.5,188.5,336.5,192.0,327.0,191.0,328.5,192.0,330.5,193.5,333.5" stroke="black" stroke-width="1" fill="none" />
<polyline points="194.0,339.0,188.0,344.0,189.0,341.0,183.5,345.5" stroke="black" stroke-width="1" fill="none" />
<polyline points="198.0,359.0,195.5,346.0,192.5,350.5,192.5,343.5,193.0,345.0" stroke="black" stroke-width="1" fill="none" />
<polyline points="165.5,358.0,166.0,366.5,166.5,355.0,170.0,359.5,167.5,365.0" stroke="black" stroke-width="1" fill="none" />
<polyline points="161.0,368.0,164.0,368.0,161.0,359.0,165.5,362.5,157.0,369.5,156.0,367.0,163.0,362.5,167.0,350.5,168.0,355.5,174.5,344.5,176.0,342.5,179.5,339.0,179.0,337.5,183.5,332.5,176.5,331.5,164.0,327.5,170.0,336.0,164.0,343.5,163.0,340.0,161.0,333.0,165.5,333.0,168.5,331.0,166.0,329.5" stroke="black" stroke-width="1" fill="none" />
<polyline points="163.0,337.0,166.0,331.0,164.0,337.0,163.5,332.0,170.0,327.5,169.0,326.0,167.0,318.0" stroke="green" stroke-width="1" fill="none" />
<polyline points="" stroke="orange" stroke-width="1" fill="none" />
<polyline points="169.0,331.0,167.0,319.0,164.0,323.0,157.0,326.5,149.5,342.5,151.5,343.0,155.0,336.0,142.0,348.5,141.5,336.0,142.5,335.5,135.5,340.0,132.5,332.5,139.0,327.5,134.5,320.5,134.5,315.5,127.5,307.0,130.0,314.5,131.5,303.0,129.0,306.0,132.5,302.0,131.0,299.0,140.0,291.0,141.5,295.5,138.5,283.5,133.5,278.5,133.0,277.0,136.0,285.0,139.5,285.0,136.0,281.0,143.5,279.0,142.5,272.5,137.0,274.5,151.5,266.0,158.0,250.5,157.5,252.5,165.0,250.5,160.0,242.0,163.5,242.0,151.5,249.5,151.5,248.5" stroke="green" stroke-width="1" fill="none" />
<polyline points="147.5,249.5" stroke="green" stroke-width="1" fill="none" />
<polyline points="138.5,251.5,144.5,249.0,143.5,251.0,143.0,249.5,155.5,255.0,148.0,260.0" stroke="yellow" stroke-width="1" fill="none" />
<polyline points="144.0,267.0,139.5,269.0,134.5,276.5,133.5,270.5,135.5,277.0,131.5,275.0,134.5,273.5" stroke="black" stroke-width="1" fill="none" />
<polyline points="153.5,266.0,151.0,268.0,157.5,260.5,159.5,256.0,157.5,263.0,156.5,263.0,150.0,267.5,150.5,273.5,144.5,275.5,147.0,275.0,142.5,289.0,150.5,288.5,155.5,286.5,157.5,284.5,161.5,289.0,163.0,300.0,161.5,303.5,157.0,302.5,165.5,308.5,166.5,316.0,159.0,318.0,156.5,317.5,163.0,317.5,165.5,317.5,168.0,313.0,166.0,311.0,172.5,305.0,171.0,295.0,185.5,289.5,182.5,292.5" stroke="yellow" stroke-width="1" fill="none" />
<polyline points="178.5,298.5,183.0,298.5,180.0,299.0" stroke="orange" stroke-width="1" fill="none" />
<polyline points="" stroke="green" stroke-width="1" fill="none" />
<polyline points="176.5,299.0,171.0,306.0,177.5,304.5,182.0,304.0,176.0,309.5,177.5,311.0,182.5,315.0" stroke="yellow" stroke-width="1" fill="none" />
<polyline points="175.5,311.5,174.5,308.5" stroke="orange" stroke-width="1" fill="none" />
<polyline points="165.0,305.5,167.0,299.0,172.0,298.0,176.0,294.5,172.0,285.0,169.5,288.0,173.5,296.5,162.5,301.5,164.5,286.5,169.0,285.5,179.0,285.5,175.0,279.5,177.5,285.5,164.5,279.5,167.0,285.0,165.5,289.5,165.5,287.0,169.0,297.5,160.5,273.0,168.5,280.0,163.0,276.0,166.5,271.5,164.5,263.0,171.0,266.0,172.0,260.0,169.0,260.5,173.0,257.0,174.5,245.5,178.0,248.0,172.0,237.5,173.5,239.5,178.0,232.5,177.5,238.5" stroke="orange" stroke-width="1" fill="none" />
<polyline points="182.5,227.0,184.5,235.5,178.0,245.0,177.5,242.0,179.5,243.5,176.0,249.5,174.0,247.0,186.0,259.5,184.5,253.0" stroke="black" stroke-width="1" fill="none" />
<polyline points="186.0,248.5,193.5,252.5,188.0,251.0,185.0,253.0,186.0,253.5" stroke="yellow" stroke-width="1" fill="none" />
<polyline points="225.5,271.5,230.5,270.5,222.0,276.5,232.5,274.0,235.5,270.5" stroke="black" stroke-width="1" fill="none" />
<polyline points="213.0,323.0,221.0,323.0,215.0,328.5,216.0,326.0,217.5,331.0,217.0,334.5,225.5,343.5,214.5,350.5,220.5,342.5,216.5,359.0,215.5,359.0" stroke="yellow" stroke-width="1" fill="none" />
<polyline points="255.5,380.5,253.5,384.5,252.5,376.5,256.0,388.5,262.5,378.5,267.0,387.0,264.0,381.0" stroke="black" stroke-width="1" fill="none" />
<polyline points="267.0,387.0,265.5,381.5,251.5,390.5,256.5,398.0,259.0,394.0,245.5,392.0,246.5,393.5,247.5,393.0,241.5,393.0" stroke="orange" stroke-width="1" fill="none" />
<polyline points="277.5,348.0,272.5,351.0" stroke="black" stroke-width="1" fill="none" />
<polyline points="277.5,350.5,276.0,349.0,277.5,349.0,280.0,347.0,278.0,349.5" stroke="yellow" stroke-width="1" fill="none" />
<polyline points="222.5,365.0,219.0,361.0,219.0,355.0,218.0,345.5,221.5,352.5,220.0,344.5,224.5,334.5,221.5,334.0,223.0,325.5,222.5,326.5,218.0,315.0,218.5,314.0,222.0,315.5,214.5,307.0,221.0,303.5,215.5,313.5" stroke="green" stroke-width="1" fill="none" />
<polyline points="173.5,290.0,176.0,293.0,171.5,291.5" stroke="orange" stroke-width="1" fill="none" />
<polyline points="175.0,298.5,176.0,300.0,181.0,307.0,176.0,307.0" stroke="black" stroke-width="1" fill="none" />
<polyline points="160.5,313.0,162.5,310.0,158.0,309.0,154.0,308.0,154.0,310.5,155.0,313.0,152.0,310.5" stroke="yellow" stroke-width="1" fill="none" />
<polyline points="163.0,316.5,165.0,308.5,163.5,311.5" stroke="orange" stroke-width="1" fill="none" />
<polyline points="162.5,315.5,161.5,314.0,158.0,316.0" stroke="black" stroke-width="1" fill="none" />
<polyline points="156.0,295.5,157.0,291.0" stroke="black" stroke-width="1" fill="none" />
<polyline points="" stroke="orange" stroke-width="1" fill="none" />
<polyline points="162.5,291.5,147.0,290.0" stroke="green" stroke-width="1" fill="none" />
<polyline points="152.0,284.5,150.5,285.0" stroke="yellow" stroke-width="1" fill="none" />
<polyline points="175.5,292.5,174.0,293.0,173.5,295.5" stroke="green" stroke-width="1" fill="none" />
<polyline points="181.0,298.5,175.0,300.5,173.5,310.0,168.5,309.5,168.5,305.0" stroke="green" stroke-width="1" fill="none" />
<polyline points="153.5,292.5,156.0,291.0,155.0,286.0" stroke="black" stroke-width="1" fill="none" />
<polyline points="159.0,291.0,164.0,295.0,165.5,296.0,174.0,294.0" stroke="black" stroke-width="1" fill="none" />
<polyline points="172.5,282.0,178.0,297.5,170.0,298.5,172.5,304.0,167.0,313.5,167.0,311.5,167.0,310.0,160.5,318.0,171.5,316.0,169.0,316.5,168.0,330.0,162.5,334.0,154.5,333.0,158.5,339.0,158.5,337.5,153.5,350.0,144.0,353.5,154.0,356.0,147.5,355.5,146.5,348.0,144.5,346.0,153.5,353.0,157.0,356.0,165.0,345.5,161.0,340.0,159.5,346.5,160.5,345.0" stroke="yellow" stroke-width="1" fill="none" />
<polyline points="" stroke="orange" stroke-width="1" fill="none" />
<polyline points="160.0,286.0,160.0,278.0,167.0,277.0,169.5,275.0,161.5,266.5,155.0,266.0,161.5,261.0,155.5,256.0" stroke="orange" stroke-width="1" fill="none" />
<polyline points="165.5,263.5,172.0,261.5,170.5,266.5,166.0,275.5,168.0,282.5,167.0,275.5,169.5,277.5" stroke="black" stroke-width="1" fill="none" />
<polyline points="" stroke="yellow" stroke-width="1" fill="none" />
<polyline points="144.0,281.0,153.5,282.5,151.5,271.0,159.0,278.5,157.5,279.0,157.5,288.5,165.5,277.0,166.5,285.0,162.0,289.0,179.5,280.5,170.5,289.5,172.5,282.0,178.0,285.0" stroke="green" stroke-width="1" fill="none" />
<polyline points="170.0,291.5,172.0,294.0,164.5,295.0,172.0,287.5,165.0,289.5,167.0,289.5" stroke="green" stroke-width="1" fill="none" />
<polyline points="162.0,289.5,168.5,283.5,158.0,295.0,163.5,288.0,164.5,287.5,161.5,289.5,161.0,287.0" stroke="green" stroke-width="1" fill="none" />
<polyline points="156.5,290.5,149.0,294.0,157.5,290.5,153.0,274.5,154.0,275.0,151.5,270.5,151.0,266.0,158.5,262.5,167.0,268.0,168.0,250.0,168.5,258.0,168.0,247.5,163.5,247.5,164.0,244.0,162.0,238.0,164.5,248.5,158.0,255.5,156.0,251.0,145.5,256.0,143.0,260.5,147.5,251.5,142.0,269.0,135.0,259.0,138.0,265.0,128.5,256.0,131.5,271.5,133.0,275.5,138.0,261.5,134.0,253.5,141.0,252.0,129.5,253.0,134.0,245.5,143.5,243.5,134.0,245.0,141.0,237.5,142.5,226.0,135.5,231.5,137.0,224.0,136.5,229.5,135.5,218.5,138.5,216.0,124.0,215.5,127.0,200.0,119.5,200.0,129.0,203.0,119.5,197.0,122.5,189.5,122.0,176.5,117.0,180.5,119.0,181.0,119.0,175.0,119.0,164.0,123.5,161.5,121.0,163.0,117.0,147.0,121.0,147.0,119.5,144.5,122.0,138.5,124.5,136.5,122.0,134.0,124.0,133.5,129.0,125.5,131.0,125.0,128.0,114.5,132.5,118.5,131.5,107.5,138.5,115.0,134.0,98.0,141.0,101.5,138.5,106.5,141.5,97.0,141.0,98.0,136.5,105.5" stroke="green" stroke-width="1" fill="none" />
<polyline points="133.0,109.0,134.5,104.5,137.5,111.0,139.5,109.0,137.0,117.0,132.0,126.5,126.5,122.0,133.5,133.5,135.0,135.0,127.5,136.5,140.0,138.5,137.0,151.5,134.5,147.5,129.0,143.5,127.5,150.0,129.5,149.0,131.0,154.0,124.0,159.0" stroke="yellow" stroke-width="1" fill="none" />
<polyline points="123.5,150.5,136.0,152.0,133.5,155.0,130.0,157.0,127.5,162.5,129.5,164.5,124.5,172.5,129.0,160.5,125.5,160.5,130.0,166.0,128.5,168.5,130.0,172.5" stroke="black" stroke-width="1" fill="none" />
<polyline points="139.0,181.0,140.5,182.5,124.5,178.0,134.0,177.5,137.5,175.0,137.0,173.5" stroke="black" stroke-width="1" fill="none" />
<polyline points="130.0,176.0,136.5,175.0,133.0,177.0,143.5,176.0,132.0,171.5,137.0,168.5,133.0,171.0,136.0,174.5" stroke="green" stroke-width="1" fill="none" />
<polyline points="140.0,177.0,140.5,177.5,136.0,178.0" stroke="orange" stroke-width="1" fill="none" />
<polyline points="137.5,185.5,132.5,172.0,134.5,179.5,136.0,174.0,142.0,172.5,135.5,168.0" stroke="orange" stroke-width="1" fill="none" />
<polyline points="141.0,179.0,147.5,178.0,142.5,191.5,135.0,184.5,145.0,202.0,138.0,195.0,140.5,195.5,145.5,193.5,148.0,196.0,146.0,203.5" stroke="orange" stroke-width="1" fill="none" />
<polyline points="153.5,199.5,151.0,196.5" stroke="green" stroke-width="1" fill="none" />
<polyline points="153.0,194.0,152.0,187.0,148.5,191.0" stroke="black" stroke-width="1" fill="none" />
<polyline points="" stroke="green" stroke-width="1" fill="none" />
<polyline points="151.0,199.5,152.0,193.5,146.0,195.0,149.0,193.5,145.5,185.0,141.0,193.5,150.5,176.0,146.5,180.0,142.0,184.5" stroke="yellow" stroke-width="1" fill="none" />
<polyline points="137.5,175.5,148.5,181.5,149.5,192.5,150.5,185.5,146.0,192.0,138.0,183.5,139.5,186.0" stroke="orange" stroke-width="1" fill="none" />
<polyline points="151.0,188.5,149.0,186.5" stroke="yellow" stroke-width="1" fill="none" />
<polyline points="153.0,194.5,160.5,176.0,163.0,179.5,171.5,180.0,176.0,171.0,171.0,163.0,178.0,166.5,183.0,158.0,188.5,160.5,189.0,151.5,194.5,152.5,202.5,152.5,200.0,146.0" stroke="orange" stroke-width="1" fill="none" />
<polyline points="207.5,152.0,213.5,155.5" stroke="yellow" stroke-width="1" fill="none" />
<polyline points="219.5,155.0,229.5,153.5,223.5,155.5,218.5,155.5,217.5,158.0,215.5,157.0" stroke="yellow" stroke-width="1" fill="none" />
<polyline points="221.0,149.0,218.5,145.0,222.5,153.0,220.0,160.0" stroke="yellow" stroke-width="1" fill="none" />
<polyline points="221.0,176.5,228.0,166.0,221.5,171.5,215.5,187.0,216.0,190.5,213.0,188.5,210.5,187.5,204.5,192.5,202.5,193.0" stroke="green" stroke-width="1" fill="none" />
<polyline points="215.5,187.5,217.0,184.0,212.0,187.5,220.5,179.0,221.5,175.5,226.0,179.5,232.0,175.5,231.0,173.5,242.0,167.5,244.0,172.5,241.5,174.5,234.5,176.0,237.0,180.5,234.5,173.0,234.0,175.5" stroke="green" stroke-width="1" fill="none" />
<polyline points="234.5,185.5,233.5,184.0,231.5,186.0,234.0,184.5,225.5,191.5,223.0,197.0,221.5,196.5,217.5,203.5,205.5,213.0,202.5,210.0,200.5,219.0,203.0,220.5,201.0,225.5,205.0,228.5,211.5,233.5,207.5,237.0,211.0,232.5,212.5,232.0" stroke="orange" stroke-width="1" fill="none" />
<polyline points="206.0,203.0,213.0,208.5,212.5,197.0,217.0,193.0,217.5,194.5,231.0,192.5,230.0,184.0,233.5,185.5" stroke="black" stroke-width="1" fill="none" />
<polyline points="222.5,192.5,209.5,201.0,215.0,203.5,212.0,200.0,210.5,206.5,203.0,207.5,209.0,199.0,213.0,198.5,218.5,199.0,223.5,196.5,225.0,199.0,230.0,190.5,229.5,192.0,227.5,195.0" stroke="yellow" stroke-width="1" fill="none" />
<polyline points="215.0,195.0,217.0,193.0,226.0,197.0,221.0,195.0" stroke="black" stroke-width="1" fill="none" />
<polyline points="214.5,179.0,223.0,187.0,222.0,186.5" stroke="orange" stroke-width="1" fill="none" />
<polyline points="227.5,177.5,226.5,182.0,221.0,186.0,225.5,195.0,218.5,196.0,206.0,194.5" stroke="orange" stroke-width="1" fill="none" />
<polyline points="209.0,203.5" stroke="black" stroke-width="1" fill="none" />
<polyline points="" stroke="green" stroke-width="1" fill="none" />
<polyline points="202.0,205.0,192.0,205.0,196.5,197.5,184.0,200.5,191.0,206.0,189.0,198.0,180.0,210.0,185.5,208.0,185.5,198.0,186.5,192.5" stroke="yellow" stroke-width="1" fill="none" />
<polyline points="188.0,200.0" stroke="green" stroke-width="1" fill="none" />
<polyline points="189.0,204.5,191.0,209.0,197.0,210.0,189.5,219.0,183.5,216.0,186.5,226.5,192.0,215.5,190.0,212.5,188.0,210.0" stroke="black" stroke-width="1" fill="none" />
<polyline points="" stroke="black" stroke-width="1" fill="none" />
<polyline points="180.0,215.5,176.0,214.0,186.5,213.5,184.0,214.5" stroke="yellow" stroke-width="1" fill="none" />
<polyline points="168.0,213.5,167.5,218.0" stroke="yellow" stroke-width="1" fill="none" />
<polyline points="171.5,219.0,164.0,225.0,173.5,229.0" stroke="yellow" stroke-width="1" fill="none" />
<polyline points="185.5,225.5,181.5,232.0,170.5,230.0,160.0,234.0,177.5,235.5,171.5,236.5,169.0,235.5,164.0,232.0" stroke="green" stroke-width="1" fill="none" />
<polyline points="173.5,242.0,165.5,249.5,174.0,248.5,166.5,250.5" stroke="green" stroke-width="1" fill="none" />
<polyline points="164.0,257.5,153.5,265.0,153.5,258.5,150.0,271.0,132.0,262.5,134.5,275.0,132.5,276.0,130.5,273.0,123.0,274.0,116.0,269.5,113.0,260.5,122.0,262.0,114.0,264.5" stroke="black" stroke-width="1" fill="none" />
<polyline points="110.0,264.5,116.5,270.0,113.0,262.0" stroke="orange" stroke-width="1" fill="none" />
<polyline points="113.5,272.0,112.0,270.5,116.5,278.5,120.0,277.0,104.0,284.0,106.0,285.5,107.5,301.5,106.5,298.0,98.0,303.0,87.0,311.5,91.5,312.5,88.0,311.5,81.5,325.0,82.0,325.5,88.0,337.0,85.0,336.5,89.0,340.5,81.5,343.0,87.0,353.0,87.5,349.5,76.5,354.5,74.0,357.0,72.5,358.0,64.5,358.0,73.0,359.5,65.5,356.0,73.0,349.5,75.5,343.5,85.5,332.0,85.5,333.5,94.0,328.5" stroke="black" stroke-width="1" fill="none" />
<polyline points="92.0,325.0,94.0,324.5,100.0,328.5,96.5,320.5,91.5,332.5,86.0,330.5,89.0,340.0,81.0,336.0,80.5,344.0,79.5,346.0,72.0,349.5,68.5,360.0,61.0,362.0,61.0,364.5,61.0,366.0,70.0,365.5,67.5,357.5,71.0,344.0,79.5,347.5,85.0,339.5,89.0,336.0,86.5,344.0,93.0,343.5,89.0,348.0,86.0,352.5,87.0,357.0,77.5,356.5,86.5,369.5,80.5,366.0,80.0,370.0,89.5,372.0,83.0,372.5,86.0,352.0,92.5,356.5,96.5,346.5" stroke="orange" stroke-width="1" fill="none" />
<polyline points="105.0,349.0,98.0,356.0,103.5,359.5,100.5,368.0,100.0,365.0,97.0,374.0,101.0,375.0,102.0,377.5,103.5,373.5,104.0,378.5" stroke="green" stroke-width="1" fill="none" />
<polyline points="110.5,368.0,110.0,368.0,113.0,363.5,104.0,361.5,104.0,359.0,101.0,358.5,101.5,356.0" stroke="black" stroke-width="1" fill="none" />
<polyline points="108.5,365.5,113.5,362.5,105.5,362.0,112.5,366.0,111.0,366.0" stroke="green" stroke-width="1" fill="none" />
<polyline points="109.5,358.0" stroke="orange" stroke-width="1" fill="none" />
<polyline points="123.0,354.5,125.0,359.5,128.0,363.0,135.0,354.5,132.5,370.5" stroke="green" stroke-width="1" fill="none" />
<polyline points="81.0,367.0" stroke="yellow" stroke-width="1" fill="none" />
<polyline points="74.0,370.0,82.5,361.0,85.5,351.0,86.5,348.0,89.0,353.0,78.5,360.0,76.0,358.0,72.5,365.0,73.5,364.0,77.0,376.5,79.0,374.0,78.5,371.0,79.5,370.0,81.5,367.5" stroke="green" stroke-width="1" fill="none" />
<polyline points="82.0,386.0,79.0,381.5,75.5,391.5,70.0,393.0,61.5,389.5,60.5,399.0,50.5,397.0,59.5,405.5,62.0,394.0,75.5,390.5,80.5,383.0,73.0,382.0,77.5,385.0,69.5,380.5,62.5,392.5,67.0,395.5,67.5,392.0,55.0,406.0,67.0,400.5,68.0,395.5,69.0,385.5,80.5,382.5,84.0,383.5,83.0,370.5,93.5,371.5,85.5,364.5,82.0,361.5,90.0,351.5,91.5,362.0,90.0,348.5,91.5,351.0,99.0,352.5,95.5,343.5,96.5,348.0,101.0,344.5,88.0,359.5,96.0,344.0,95.5,337.5,98.5,343.5,100.5,330.5,95.5,326.5,98.0,325.0,95.5,317.5,97.0,318.0,97.5,310.0,100.0,310.5,101.5,303.5,103.5,295.5,107.0,310.0,94.5,315.5,101.0,320.0,96.0,316.5,96.5,315.5,94.5,315.5" stroke="green" stroke-width="1" fill="none" />
<polyline points="86.0,312.0,89.5,313.5,90.0,314.5,83.5,306.0,95.5,307.0,99.0,302.5,115.5,291.0,107.0,294.5,109.0,289.5,113.5,287.0,115.0,288.5" stroke="orange" stroke-width="1" fill="none" />
<polyline points="88.0,305.0,90.5,302.0,90.5,309.5,86.0,305.5,84.0,303.5" stroke="orange" stroke-width="1" fill="none" />
<polyline points="105.0,301.5,103.5,299.0,90.0,296.0,92.0,300.0,82.5,301.0,80.0,294.5,93.5,296.5,91.0,294.5" stroke="black" stroke-width="1" fill="none" />
<polyline points="88.5,294.0,86.0,293.0,93.5,292.5,102.0,298.5,90.5,290.0,102.0,291.5,102.5,290.5,101.5,292.5" stroke="orange" stroke-width="1" fill="none" />
<polyline points="104.5,282.5,101.5,278.5,108.0,275.0,114.5,273.0,115.5,273.0" stroke="yellow" stroke-width="1" fill="none" />
<polyline points="109.5,269.0,104.5,267.5,109.0,268.0,107.5,282.0,107.0,280.0,95.0,279.5,88.5,286.5,95.5,288.5,93.5,282.0,109.0,278.0,99.5,279.5,116.5,293.0,115.5,282.5,125.5,290.5,119.5,292.5,123.5,291.0" stroke="green" stroke-width="1" fill="none" />
<polyline points="119.0,280.5,112.5,284.0,102.5,285.5,100.5,289.5,97.0,285.0,98.5,289.5,88.5,290.5,90.0,292.5,94.5,291.5" stroke="black" stroke-width="1" fill="none" />
<polyline points="88.0,273.5,96.5,277.0,97.0,266.5,98.0,263.0,114.0,262.5,99.0,267.0,96.5,272.0,97.5,280.5,88.0,286.0,93.0,283.0,95.5,274.0,106.5,278.0,98.0,280.5,107.0,278.5,111.0,278.5,109.0,288.0,118.5,272.0,116.0,280.5,132.0,270.0,134.5,266.0" stroke="yellow" stroke-width="1" fill="none" />
<polyline points="128.0,266.0,123.5,269.5,131.5,266.0,124.5,272.0,116.0,275.5,99.5,289.5,96.0,290.0,95.5,301.0,98.0,294.0,86.5,313.5,76.0,312.5,89.0,307.0,83.0,314.0,70.0,320.5,80.0,315.0,81.5,310.5,78.0,309.5,78.5,309.5" stroke="black" stroke-width="1" fill="none" />
<polyline points="" stroke="yellow" stroke-width="1" fill="none" />
<polyline points="130.0,301.5,124.0,309.5,121.0,307.0,118.5,310.5,115.0,308.0,116.5,325.0,109.0,314.0,98.5,326.5,103.0,323.5,104.5,324.5" stroke="orange" stroke-width="1" fill="none" />
<polyline points="75.5,322.0,69.0,323.0,66.5,324.0,67.0,321.0,77.0,328.5,74.5,314.5,71.5,307.5,74.5,308.5,76.5,307.5,78.0,307.5" stroke="green" stroke-width="1" fill="none" />
<polyline points="" stroke="green" stroke-width="1" fill="none" />
<polyline points="79.5,307.0,76.0,310.5,78.5,310.5,87.5,306.5,92.5,304.0,95.5,301.5" stroke="black" stroke-width="1" fill="none" />
<polyline points="95.5,313.5,95.5,322.5,102.5,313.5,104.5,317.0,102.5,306.5,107.0,302.0,100.0,308.0" stroke="orange" stroke-width="1" fill="none" />
<polyline points="104.0,288.5,106.5,287.5,106.5,287.5,104.0,291.0,97.0,286.0,104.0,285.0,99.0,282.5,104.0,291.5,107.0,289.0,107.0,286.0" stroke="black" stroke-width="1" fill="none" />
<polyline points="108.5,289.0,104.5,288.5,100.0,290.5,107.5,289.0,106.5,286.5" stroke="black" stroke-width="1" fill="none" />
<polyline points="85.5,275.5,88.5,275.5,89.0,272.5,86.0,274.0" stroke="green" stroke-width="1" fill="none" />
<polyline points="114.5,294.5,121.0,293.0,113.0,293.0,109.5,305.5,103.0,306.0,101.0,309.0,99.0,318.5,95.5,319.0,104.5,326.0,102.0,332.0,102.0,329.5,95.5,340.0,92.0,346.0,100.0,338.5,102.0,335.5,105.0,333.5,109.0,332.0,114.0,316.5,123.5,304.0,115.5,296.0,125.0,297.0,124.0,303.5,132.5,313.0" stroke="yellow" stroke-width="1" fill="none" />
<polyline points="126.0,319.0,133.5,317.5,130.0,324.0,128.5,332.0,133.5,335.0,131.0,332.5" stroke="yellow" stroke-width="1" fill="none" />
<polyline points="121.0,308.5,128.0,314.0,119.0,320.0,125.0,331.0,110.0,329.5,110.0,341.0,107.5,347.0,103.0,337.5,102.5,343.0,94.0,345.5,97.0,349.5,98.0,351.5,92.0,354.5,96.0,359.5,95.5,366.0,90.5,365.0,90.5,365.0,91.0,379.0,96.0,384.0" stroke="yellow" stroke-width="1" fill="none" />
<polyline points="83.5,390.5,81.5,392.5,80.5,405.0,81.0,404.5,74.0,413.5,68.5,407.5" stroke="orange" stroke-width="1" fill="none" />
<polyline points="" stroke="orange" stroke-width="1" fill="none" />
<polyline points="123.0,284.5,123.0,291.0,126.5,293.5,125.5,296.0,113.0,305.5,108.5,307.0,103.0,316.5,113.0,304.0,102.5,296.0,114.5,301.5,118.0,299.5,122.5,294.5" stroke="green" stroke-width="1" fill="none" />
<polyline points="" stroke="green" stroke-width="1" fill="none" />
<polyline points="" stroke="green" stroke-width="1" fill="none" />
<polyline points="135.0,235.5,141.5,238.0,139.5,243.5,137.0,242.5,148.0,241.5" stroke="black" stroke-width="1" fill="none" />
<polyline points="145.5,249.5,151.0,245.0,143.5,238.0,135.5,242.0,137.0,247.0,137.5,246.5,140.5,244.5" stroke="green" stroke-width="1" fill="none" />
<polyline points="144.5,236.5,136.5,223.0,138.5,226.5,132.0,225.0,144.5,221.5" stroke="green" stroke-width="1" fill="none" />
<polyline points="150.0,209.5" stroke="green" stroke-width="1" fill="none" />
<polyline points="153.5,216.5,153.0,212.5,151.0,209.5,155.0,212.0" stroke="orange" stroke-width="1" fill="none" />
<polyline points="139.0,192.5,137.0,194.5,134.0,186.5,142.5,193.0,142.0,183.5,147.5,177.5,141.5,173.0,141.0,181.5" stroke="green" stroke-width="1" fill="none" />
<polyline points="138.5,183.5,137.5,186.0" stroke="black" stroke-width="1" fill="none" />
<polyline points="149.0,179.5,143.5,183.0,156.5,180.5,150.5,189.0,141.0,187.0,135.5,187.0,137.5,190.0" stroke="green" stroke-width="1" fill="none" />
<polyline points="" stroke="orange" stroke-width="1" fill="none" />
<polyline points="147.5,195.0,160.0,194.5,145.5,211.0,147.5,215.0,144.0,210.5,144.5,210.5" stroke="yellow" stroke-width="1" fill="none" />
<polyline points="128.5,209.5,125.0,195.0,122.0,198.0" stroke="yellow" stroke-width="1" fill="none" />
<polyline points="113.5,221.5,115.5,219.5,113.5,232.5,111.0,231.0,122.5,232.0,111.0,229.5,113.0,230.5" stroke="green" stroke-width="1" fill="none" />
<polyline points="114.5,230.5,118.0,220.0" stroke="green" stroke-width="1" fill="none" />
<polyline points="128.5,251.0,121.5,257.0,117.0,258.0,110.5,263.0,115.0,258.0,119.5,259.0,121.0,251.5,126.5,252.0,130.5,241.0,140.0,238.0,143.0,235.5,148.5,235.0,157.0,229.5,155.0,227.5,155.5,225.0" stroke="yellow" stroke-width="1" fill="none" />
<polyline points="152.5,236.5,137.0,236.5,139.5,241.0,143.0,247.5,137.0,252.5,131.5,260.5,134.0,273.5,140.5,268.0,138.5,266.5,125.0,274.0,131.5,270.5,137.0,275.0,134.5,275.5,148.0,276.0" stroke="orange" stroke-width="1" fill="none" />
<polyline points="152.5,255.0,158.0,257.0,155.0,251.5,159.0,251.0,156.5,248.0,159.0,246.5,161.0,250.0,155.0,246.5,158.5,247.5" stroke="yellow" stroke-width="1" fill="none" />
<polyline points="159.0,233.5,163.0,233.0,167.0,236.5,167.5,224.0" stroke="yellow" stroke-width="1" fill="none" />
<polyline points="168.0,225.5,167.0,223.0,168.5,224.0,171.0,223.5" stroke="black" stroke-width="1" fill="none" />
<polyline points="169.0,237.5,168.0,231.0,164.0,231.5,160.0,244.5,164.5,247.5,153.0,246.5,145.5,251.0,152.0,253.0,153.5,257.5,150.5,260.5,142.0,266.0,133.5,263.5,134.0,273.5,132.0,280.0,126.0,280.5,131.0,290.0,127.0,295.0,128.5,302.0,125.5,304.5,121.5,319.5,124.0,311.5,119.5,323.5,114.0,327.0,120.5,331.5,121.0,330.5,119.0,335.5,123.0,336.5,115.0,336.0,125.0,342.5,136.0,349.0,134.0,350.0,132.0,359.0,136.5,358.0,132.5,355.0,139.0,368.5,136.0,369.5,145.5,367.5,140.0,378.0,146.5,374.5,142.0,392.5,140.5,389.5,146.5,401.5,146.5,390.5,145.0,397.5,144.5,401.5,149.5,408.5,141.0,410.0,151.5,411.0,146.5,416.5,154.5,414.0,165.0,418.5" stroke="yellow" stroke-width="1" fill="none" />
<polyline points="169.5,421.0,162.0,413.5,162.0,410.5,163.5,413.5" stroke="orange" stroke-width="1" fill="none" />
<polyline points="" stroke="green" stroke-width="1" fill="none" />
<polyline points="" stroke="yellow" stroke-width="1" fill="none" />
<polyline points="202.0,412.0,196.5,425.0,200.0,424.5,197.0,429.0,194.5,430.0" stroke="orange" stroke-width="1" fill="none" />
<polyline points="200.0,402.5,205.0,400.5,203.0,394.5,195.0,402.5,194.5,398.0,199.0,396.5,197.5,395.5" stroke="black" stroke-width="1" fill="none" />
<polyline points="193.0,391.0,193.0,394.5,191.0,403.5,191.5,402.0,187.5,407.0,183.5,417.5,186.0,413.0,190.0,417.0,185.5,425.5,185.0,433.5,195.5,432.5,180.5,433.5,186.5,436.0,179.5,442.5,187.0,449.0,186.5,439.5,200.0,448.5,201.0,450.0" stroke="orange" stroke-width="1" fill="none" />
<polyline points="381.0,352.0,375.5,352.5,375.5,342.0,377.5,347.5,378.0,340.5,381.0,341.5,385.5,335.5,377.5,327.0,381.0,322.5,374.0,318.0,376.0,309.5,369.0,311.5,377.0,310.5,378.5,307.5" stroke="yellow" stroke-width="1" fill="none" />
<polyline points="379.0,281.0,378.5,283.5,382.0,283.0,388.0,275.5,383.5,265.0,384.5,269.5,382.5,264.0,384.5,267.5,388.0,264.0" stroke="black" stroke-width="1" fill="none" />
<polyline points="368.5,269.0,365.5,278.0,371.5,274.0,369.5,279.5,364.5,283.0,368.0,286.0,364.0,287.5,362.5,298.5,367.0,295.0,363.0,307.5,361.0,305.0,360.0,308.0" stroke="orange" stroke-width="1" fill="none" />
<polyline points="344.0,272.5,350.5,278.0,346.0,281.5,335.5,281.5,334.5,284.0,327.0,268.0,322.0,269.0,321.5,276.0,323.5,268.5,329.5,271.0,325.0,276.5" stroke="orange" stroke-width="1" fill="none" />
<polyline points="324.5,271.5,323.5,271.0,325.5,270.0,330.0,266.0,334.5,274.0,326.5,275.5,330.0,268.5" stroke="orange" stroke-width="1" fill="none" />
<polyline points="324.5,278.0,323.5,277.0,319.0,273.0,319.5,267.5,328.0,257.5,337.5,260.5,334.5,253.5,336.0,251.5" stroke="black" stroke-width="1" fill="none" />
<polyline points="363.5,268.0,365.5,275.5,360.5,278.5,356.0,277.5,352.0,276.5" stroke="green" stroke-width="1" fill="none" />
<polyline points="289.5,233.0,282.5,230.5" stroke="green" stroke-width="1" fill="none" />
<polyline points="271.5,218.5,271.5,196.0,280.0,198.5,276.0,206.5,285.0,197.0,290.5,189.5,288.5,189.5,294.5,181.5,301.0,188.0,299.0,181.0,309.5,181.0,309.5,180.5,312.0,182.5" stroke="yellow" stroke-width="1" fill="none" />
<polyline points="317.5,172.0,315.0,178.0,300.5,175.0,299.5,179.5,296.5,184.0,293.0,186.0,289.5,193.5,280.5,194.0,283.5,196.0,276.0,197.0,268.5,202.5,264.5,207.5,264.5,213.5,264.5,213.0,264.0,222.0,254.0,227.0,256.0,228.0,246.0,229.0,243.0,240.0,240.5,248.5,232.5,241.5,236.0,255.0,230.5,260.0,226.0,266.0,222.0,264.0,214.5,278.5,206.5,284.0,209.5,287.5,203.5,302.5,197.0,305.5,203.0,325.0,198.0,317.0,198.5,311.5,198.5,311.0,204.5,304.5,198.0,299.0,200.5,295.5,206.0,294.5,213.5,286.5,210.0,293.0,209.0,285.0,215.0,277.0,216.0,281.0,220.5,270.0,222.0,264.5,227.0,265.0,224.0,252.5,229.0,257.0,234.5,248.0,230.5,243.0,240.0,239.0,243.0,234.5,245.5,230.5,254.5,229.0,250.5,224.5,259.0,225.5,259.0,219.0,257.0,203.0,262.5,215.5,264.5,202.0" stroke="orange" stroke-width="1" fill="none" />
<polyline points="264.5,202.0,260.0,215.5,267.0,206.0,258.0,208.0" stroke="green" stroke-width="1" fill="none" />
<polyline points="" stroke="yellow" stroke-width="1" fill="none" />
<polyline points="207.5,197.0,211.0,199.5,218.5,186.5,217.5,185.5,227.5,187.0,223.0,179.5,227.0,178.0,231.5,183.0,226.5,182.5" stroke="black" stroke-width="1" fill="none" />
<polyline points="229.5,170.5,227.0,183.5,211.5,184.0,214.0,182.0,218.5,189.5,201.0,199.5,213.5,194.0,210.0,198.0,212.5,199.5,218.0,199.0,227.0,188.5,231.5,191.5,241.5,190.5,228.0,184.0,229.5,182.5" stroke="green" stroke-width="1" fill="none" />
<polyline points="251.5,176.5,246.0,177.0,241.0,183.0,237.0,183.5,241.5,178.0,240.0,178.0,249.5,181.5" stroke="yellow" stroke-width="1" fill="none" />
<polyline points="252.0,178.0,244.0,179.5,243.0,181.5,247.0,188.5,241.5,198.0,235.5,201.5,234.0,201.0,237.5,210.5,229.0,218.0,230.5,206.0,239.5,207.5,236.0,211.0,238.0,208.0,239.0,213.5,238.0,215.5,240.5,215.0" stroke="yellow" stroke-width="1" fill="none" />
<polyline points="267.5,183.5,261.5,196.0,258.5,198.0,244.0,203.0,246.5,204.0,252.5,202.0,260.0,201.5,254.5,202.0,259.0,195.0,259.0,200.0" stroke="yellow" stroke-width="1" fill="none" />
<polyline points="268.5,186.5,271.5,189.0,262.0,188.0,262.0,188.0,259.0,191.5,261.0,183.0,262.0,183.5" stroke="green" stroke-width="1" fill="none" />
<polyline points="260.0,185.0,257.5,186.0,242.5,190.0,249.5,197.5,251.5,207.0,245.5,196.0,248.5,191.0,246.0,192.0,251.5,189.0,254.0,187.0,253.5,185.0,256.5,185.0,262.5,184.0,262.0,180.0,263.0,175.5,260.5,176.0" stroke="yellow" stroke-width="1" fill="none" />
<polyline points="265.5,178.0,260.0,179.0,267.5,176.0,271.5,176.0,283.5,181.5,281.0,176.0,283.5,178.5,284.5,177.0,292.5,180.0,297.0,180.0,290.5,186.0,290.0,193.5,290.0,186.0,277.0,195.5,276.5,191.5,276.5,192.0,269.5,196.5,267.5,198.0,281.0,190.5,277.5,197.5,288.0,186.0,291.0,182.0,287.0,185.0,291.5,178.5,305.5,170.5,308.0,167.0,308.0,173.0,317.5,166.0,316.5,168.0,325.5,165.5,326.0,163.5,331.5,163.0,331.5,154.5,337.5,148.0,337.5,154.5,338.0,149.5" stroke="orange" stroke-width="1" fill="none" />
<polyline points="305.0,176.0,303.0,178.0,300.5,171.5,299.0,188.5,288.0,194.5,288.0,190.0,279.5,196.5,277.0,197.5,261.5,210.0,269.0,209.5,269.0,206.5,266.5,212.0,260.0,217.5,266.0,222.0,261.0,223.0,264.0,228.5,266.0,233.5,268.0,239.5,270.0,241.0,264.5,241.0,262.5,242.0,263.5,247.0" stroke="yellow" stroke-width="1" fill="none" />
<polyline points="266.0,186.0,267.5,184.5" stroke="black" stroke-width="1" fill="none" />
<polyline points="264.5,155.5,261.5,161.5,256.5,161.0,252.0,158.0,250.0,162.0,243.5,163.5,250.0,161.5,249.0,162.0" stroke="yellow" stroke-width="1" fill="none" />
<polyline points="" stroke="black" stroke-width="1" fill="none" />
<polyline points="252.5,175.5,259.0,179.0,256.5,177.0,261.5,182.0,259.5,182.5,260.5,180.5" stroke="yellow" stroke-width="1" fill="none" />
<polyline points="247.0,139.0,253.0,136.0,257.0,131.0,258.5,131.0,263.5,129.0,251.5,138.0,247.5,133.5,254.0,140.0,243.5,146.0,235.0,142.0" stroke="yellow" stroke-width="1" fill="none" />
<polyline points="" stroke="orange" stroke-width="1" fill="none" />
<polyline points="215.0,149.0,219.0,151.0,221.0,152.0,218.0,152.5" stroke="yellow" stroke-width="1" fill="none" />
<polyline points="214.0,140.5,218.0,140.0,215.0,144.5" stroke="black" stroke-width="1" fill="none" />
<polyline points="206.5,148.0,201.0,151.5,208.0,143.5,215.5,148.0,214.0,161.0,214.5,149.0" stroke="black" stroke-width="1" fill="none" />
<polyline points="207.5,166.5,191.5,162.5,204.0,161.5,207.5,152.5,198.5,159.5,199.5,161.0" stroke="yellow" stroke-width="1" fill="none" />
<polyline points="202.5,164.0,201.5,173.5,192.0,184.0,187.0,173.5,186.0,182.0,184.0,182.0,170.0,189.0,175.5,196.0,165.0,194.0,168.0,203.5,161.0,202.5,165.0,192.5,172.5,193.5,180.5,188.0,180.5,179.0,187.0,179.5,183.5,172.5,190.5,175.0,201.0,176.0,204.5,163.0,203.0,163.0,203.5,161.0" stroke="yellow" stroke-width="1" fill="none" />
<polyline points="209.0,178.5,210.0,184.0,201.5,186.0,209.0,197.0,204.5,203.0,203.5,193.5,202.5,192.5,201.5,195.5" stroke="green" stroke-width="1" fill="none" />
<polyline points="" stroke="yellow" stroke-width="1" fill="none" />
<polyline points="203.0,133.5,204.5,141.0,204.5,140.5,206.0,135.0,215.0,129.0,220.0,134.0,214.5,129.5,221.5,129.0,231.0,123.5" stroke="black" stroke-width="1" fill="none" />
<polyline points="221.5,128.0,215.5,141.0,212.5,144.0,206.0,149.0,207.5,141.5,206.5,139.0,222.0,129.5,223.0,134.0,233.0,122.5,235.0,118.5,242.5,118.5,238.5,124.0,236.0,121.0" stroke="orange" stroke-width="1" fill="none" />
<polyline points="229.0,113.0,227.5,113.5,233.5,114.0,230.0,130.0,224.5,129.5,205.0,142.5,198.5,141.0,203.5,142.5,204.0,143.0,201.5,152.5,190.0,159.0,195.0,157.5,181.0,164.0,174.5,169.5,170.5,172.0,167.0,172.0,167.5,181.5,163.0,187.5,155.5,184.5,154.0,191.5,154.0,197.5,149.0,195.5,149.5,202.5,152.0,205.5,146.0,214.0,149.0,213.5,148.5,224.5,139.5,222.5,142.5,224.0,148.5,231.5,138.5,238.5,136.5,244.5,145.0,236.5,128.0,242.5,133.5,251.5,134.0,252.5,138.0,252.0,136.5,253.0,137.0,256.5,137.0,257.5" stroke="black" stroke-width="1" fill="none" />
<polyline points="" stroke="orange" stroke-width="1" fill="none" />
<polyline points="119.5,139.0,118.5,139.0" stroke="yellow" stroke-width="1" fill="none" />
<polyline points="149.5,133.0,154.5,144.0,155.5,139.5,155.5,127.0,161.0,127.0,158.0,122.0,154.5,122.5,158.0,121.5" stroke="orange" stroke-width="1" fill="none" />
<polyline points="180.5,135.5,175.5,137.5,184.5,120.5,188.5,120.5,185.0,124.0,188.0,121.0" stroke="orange" stroke-width="1" fill="none" />
<polyline points="184.0,129.0,166.0,125.0,172.5,123.5,172.0,123.0,183.0,125.0,187.0,125.0,190.5,122.0,183.5,117.0,194.5,122.0" stroke="black" stroke-width="1" fill="none" />
<polyline points="179.5,132.5,186.0,131.0,188.5,134.0" stroke="green" stroke-width="1" fill="none" />
<polyline points="193.0,119.5,201.5,119.0" stroke="green" stroke-width="1" fill="none" />
<polyline points="201.5,107.5,200.0,108.5" stroke="yellow" stroke-width="1" fill="none" />
<polyline points="234.5,138.5,231.5,132.5,232.5,136.5,226.5,131.5,220.0,128.0,216.0,137.0,214.5,138.0,207.5,148.0,199.0,135.0,197.5,149.0,196.0,158.0,196.5,157.5,202.0,147.5,211.0,144.5,210.5,139.0,218.0,137.5,229.0,130.0" stroke="yellow" stroke-width="1" fill="none" />
<polyline points="249.0,138.0,251.5,150.0,252.5,142.5,233.5,154.5,237.5,151.5,230.5,150.5,226.5,150.0,221.0,162.0,222.5,163.0,225.0,157.5,235.5,155.0,237.0,151.0,245.0,148.0,251.5,141.0,260.5,137.0,258.5,128.0,267.5,124.0,267.5,119.0,264.0,116.5" stroke="green" stroke-width="1" fill="none" />
<polyline points="287.0,144.5,285.5,148.5,288.5,146.5,290.0,144.5" stroke="yellow" stroke-width="1" fill="none" />
<polyline points="298.0,133.5,299.0,140.5" stroke="black" stroke-width="1" fill="none" />
<polyline points="312.0,176.0,300.5,178.5,298.0,181.5,286.5,187.0,291.5,198.0,284.0,203.0,281.0,200.5,275.0,201.5,276.0,209.0,270.5,208.5,270.5,212.0,274.5,215.0" stroke="black" stroke-width="1" fill="none" />
<polyline points="232.0,96.5,236.5,102.5,227.0,101.0,225.0,102.0,227.0,106.0,226.0,100.0,237.0,99.0,236.0,97.0" stroke="yellow" stroke-width="1" fill="none" />
<polyline points="" stroke="green" stroke-width="1" fill="none" />
<polyline points="246.5,93.5,246.0,91.0,242.5,94.5,245.0,87.5" stroke="green" stroke-width="1" fill="none" />
<polyline points="262.0,86.0,253.0,94.0,257.0,85.5,250.0,92.5,248.0,95.5,242.5,100.0,238.5,111.0,236.0,109.0,225.0,107.0,236.0,113.5,218.5,115.5,223.0,120.0,221.5,118.5,212.0,115.5,205.0,132.0,205.5,139.0,196.5,135.5,199.0,127.0,186.5,139.0,177.0,149.5,180.5,152.5,178.0,148.0,171.5,150.5,175.0,165.5,171.5,163.0,167.5,160.5,157.0,166.5,164.5,168.0,158.5,170.0,160.5,169.0,174.0,167.5,173.0,162.0,184.0,155.0,178.5,147.0,186.0,137.5,191.5,143.5,192.5,127.0,200.0,144.5,214.0,128.5,217.5,125.5,218.0,121.5,220.0,102.5,219.5,117.5,228.5,106.5,235.5,113.5,235.5,99.0,242.5,94.0,258.0,95.0,267.5,92.0,263.5,87.5,260.5,87.0" stroke="yellow" stroke-width="1" fill="none" />
<polyline points="230.5,84.0,227.0,81.5,231.0,87.5,235.5,81.0,231.5,85.0,235.0,83.5" stroke="black" stroke-width="1" fill="none" />
<polyline points="" stroke="yellow" stroke-width="1" fill="none" />
<polyline points="227.0,48.0,227.0,49.0,236.5,48.0,234.5,43.5,247.0,42.5,250.5,53.5,243.0,45.0,253.5,52.0,257.0,63.0,263.0,49.0,273.0,56.0,274.5,59.0,271.0,63.0,279.0,65.0,278.5,65.0,286.5,69.5,281.5,69.0,297.0,75.0,290.0,82.5,295.5,81.0,304.0,89.5,303.5,94.0,317.0,100.0,315.5,97.0,330.5,109.0,321.5,110.0,329.5,120.0,330.0,123.5,334.0,127.5,340.0,128.5,352.5,136.5,343.0,138.5,351.0,148.0,355.0,141.5,354.5,136.5,370.0,138.0,373.5,136.0,371.0,135.0,383.5,131.5,382.0,128.0,391.5,130.5,393.0,116.5,389.5,112.5,397.0,112.0,401.0,115.0,411.5,110.0,406.0,114.5,415.5,118.5,417.0,112.0,412.0,112.5" stroke="black" stroke-width="1" fill="none" />
<polyline points="413.5,116.0,413.0,118.0,413.5,130.5,413.0,129.0,416.0,135.5,422.5,132.0,420.5,142.0,419.5,145.0,425.5,146.0,408.5,150.5,415.5,152.5,409.0,160.0,414.0,167.5,409.0,179.0,408.0,175.5,407.0,173.5,399.5,180.0,407.0,177.0,411.0,182.5,399.5,184.0,393.0,189.5,394.0,202.0,378.0,201.0,381.0,205.5,373.5,209.5,376.0,208.0,369.0,216.5,363.0,209.5,373.0,211.5,370.0,206.5,381.5,208.5,385.0,203.0,391.5,198.0,396.0,197.0,392.5,189.5,398.0,189.5,402.0,184.5,407.5,170.5,410.5,176.0,418.0,178.0,413.5,178.5" stroke="yellow" stroke-width="1" fill="none" />
<polyline points="367.0,127.0,368.0,125.5,367.5,122.0" stroke="orange" stroke-width="1" fill="none" />
<polyline points="389.5,109.5,383.0,102.0,388.0,101.5,385.5,110.0" stroke="orange" stroke-width="1" fill="none" />
<polyline points="380.5,108.0,389.0,105.0,384.5,98.0,385.5,96.5" stroke="black" stroke-width="1" fill="none" />
<polyline points="424.0,43.5,427.5,45.5,428.0,48.0,413.5,33.0,418.0,28.0,415.5,26.5" stroke="yellow" stroke-width="1" fill="none" />
<polyline points="512.5,70.5,514.0,82.5,511.0,83.5,504.5,84.5,503.5,86.0,496.5,95.5,489.0,106.5,484.0,108.5,491.0,111.0,482.5,106.5,475.5,115.5,479.5,122.5,474.0,125.0,472.0,128.0,466.0,131.0,466.5,137.0,466.0,137.0,463.0,151.5,457.5,145.0,460.0,153.5,451.5,156.5,447.5,164.0,449.0,165.5,442.5,169.0,445.0,168.5,444.0,174.5,436.5,191.0,438.0,190.5,434.0,188.0,434.0,196.0,434.0,205.0,430.5,206.5,431.5,209.5,422.0,205.5,427.5,219.0,420.5,220.5,420.5,222.0,421.5,227.0,420.0,238.0,411.5,230.0,413.0,240.5,411.5,245.5,405.5,242.5,409.5,248.0,419.5,260.5,406.5,262.0,407.0,256.5,407.5,266.5,410.0,271.0,401.5,277.5,401.5,278.5,405.0,280.5,396.0,288.0,400.5,289.5,405.5,290.0,398.5,302.0,397.5,301.0,395.5,307.5,392.0,306.5,395.5,313.5,390.5,316.0,397.0,318.5,391.0,326.0,391.5,326.5,383.0,340.0,389.0,335.5,389.5,336.5" stroke="black" stroke-width="1" fill="none" />
<polyline points="343.0,137.5,337.0,134.0,333.0,136.5,339.0,132.0,337.0,128.5,327.5,118.0,335.5,118.5,325.0,114.0,328.5,106.0,317.5,100.0,310.5,98.0,304.5,93.5,311.5,96.0,304.0,91.0,299.5,87.0,297.0,73.0,296.5,78.5,297.0,75.5,283.5,66.5,274.0,71.5,274.5,62.0,263.0,51.0,264.5,43.5,256.5,53.5,256.5,49.5" stroke="black" stroke-width="1" fill="none" />
<polyline points="" stroke="yellow" stroke-width="1" fill="none" />
<polyline points="174.5,61.5,157.5,65.5,162.5,69.0,165.0,66.0,167.5,62.0,169.0,66.0" stroke="black" stroke-width="1" fill="none" />
<polyline points="158.0,68.5,157.0,73.5,152.0,75.0,146.5,77.5,157.5,70.5,162.5,69.0,160.5,74.5,161.0,70.5" stroke="yellow" stroke-width="1" fill="none" />
<polyline points="154.0,76.5" stroke="orange" stroke-width="1" fill="none" />
</svg>