<svg xmlns="http://www.w3.org/2000/svg" width="1024" height="1024" version="1.1" fill="white"><polyline points="413.0,15.5,409.5,6.5,411.5,19.5,410.5,25.0,413.0,28.5,421.0,34.0,421.5,32.5,418.0,28.0,432.0,31.0,426.0,31.0,430.5,52.0,437.0,48.0,437.5,56.0,440.5,65.5,433.5,61.0,436.0,69.5,436.0,70.5,441.5,68.5" stroke="orange" stroke-width="1" fill="none" />
<polyline points="442.0,46.5,438.5,42.0,441.0,37.0,431.0,23.5,435.0,18.0" stroke="orange" stroke-width="1" fill="none" />
<polyline points="414.5,0.0,425.5,8.0,427.5,17.0,431.0,13.5,434.5,15.5,437.0,24.0,439.5,28.5,438.5,32.0,442.0,38.0,443.0,36.5,452.0,42.0,438.5,44.5,445.5,49.5,459.0,59.5,455.0,61.0,448.5,63.5,458.0,78.0,433.5,70.5,439.5,70.5,432.5,88.0,433.0,84.5,433.0,82.5,435.0,93.5,434.0,99.5,418.5,103.5,424.0,108.5,414.5,103.0,418.5,105.5,414.0,109.0,412.0,106.0,428.5,98.5,431.5,89.0,435.5,84.5,435.0,80.0,438.0,73.0,445.0,78.5,452.5,65.0,449.0,58.5,456.5,50.5,470.5,55.5,467.0,48.0,463.5,44.0,482.5,42.5,476.0,42.0,484.5,29.0,481.0,25.0,489.0,30.0,492.0,18.0,514.0,16.5,505.0,5.5,502.5,8.0" stroke="yellow" stroke-width="1" fill="none" />
<polyline points="510.5,1.5,509.5,11.5,504.5,20.0,496.5,26.5,489.5,23.0,492.5,23.0,482.5,25.5,483.0,30.5,483.5,35.0,466.0,46.0,470.0,39.5,462.5,52.0,464.5,56.5,462.0,56.5" stroke="yellow" stroke-width="1" fill="none" />
<polyline points="503.0,74.0,504.5,88.0,501.5,90.0,497.0,97.0,487.5,97.0,483.0,104.0,478.0,98.5,479.5,108.5,469.5,116.0,464.5,119.5,469.0,125.0,456.5,136.5,458.0,141.5,466.5,142.5,466.0,142.0,466.5,141.5" stroke="yellow" stroke-width="1" fill="none" />
<polyline points="448.5,156.5,448.5,166.0,439.5,163.0,442.5,172.5,432.5,171.5,435.0,175.5" stroke="black" stroke-width="1" fill="none" />
<polyline points="445.0,185.0,431.5,178.5,439.5,188.0,435.0,184.5,434.0,180.0,441.0,179.5" stroke="green" stroke-width="1" fill="none" />
<polyline points="423.0,219.5,426.5,214.5,422.5,228.5,426.5,227.0" stroke="black" stroke-width="1" fill="none" />
<polyline points="417.5,238.0,414.5,234.0,413.5,243.0,415.0,245.0,417.0,249.5,414.5,241.0,410.0,248.5,413.0,247.0" stroke="orange" stroke-width="1" fill="none" />
<polyline points="404.5,287.0" stroke="orange" stroke-width="1" fill="none" />
<polyline points="391.0,303.0,375.5,291.5,376.5,283.5,384.5,282.5,389.0,273.5,393.5,276.0" stroke="green" stroke-width="1" fill="none" />
<polyline points="373.5,267.0,369.0,263.0,373.5,262.0,373.5,259.5,373.0,255.0,371.5,254.5,374.0,243.5,372.0,242.5,365.0,240.5,377.0,235.5,367.0,233.0,373.5,221.5,373.0,222.0,374.5,224.5,372.5,221.5" stroke="yellow" stroke-width="1" fill="none" />
<polyline points="377.5,240.5,369.5,243.0,374.5,243.5,373.0,237.0" stroke="black" stroke-width="1" fill="none" />
<polyline points="369.5,254.5,362.0,255.5,372.5,260.0,369.5,263.0,369.0,279.5,370.0,268.5,371.0,274.0,364.0,275.5,368.5,275.5,366.5,279.0,363.5,280.5" stroke="green" stroke-width="1" fill="none" />
<polyline points="378.0,286.5,371.5,296.5,379.5,289.0,380.5,290.0,382.0,297.5,370.5,302.0,375.5,311.5,376.0,305.5,379.0,311.5,383.0,323.0,375.5,321.5,384.0,334.5,384.5,339.0,385.0,343.0,385.5,343.5,384.5,340.5,383.5,342.0" stroke="yellow" stroke-width="1" fill="none" />
<polyline points="367.5,356.0,373.0,360.5,381.0,364.5,379.5,365.0" stroke="green" stroke-width="1" fill="none" />
<polyline points="373.0,377.5" stroke="orange" stroke-width="1" fill="none" />
<polyline points="385.0,381.0,382.5,385.5,380.0,390.5,375.0,395.5,378.0,398.5,376.5,396.0" stroke="orange" stroke-width="1" fill="none" />
<polyline points="363.0,426.5,356.5,418.5,353.0,415.0,355.5,414.5,348.0,409.0,342.5,403.0,337.5,404.0,333.5,400.0,330.5,402.5,328.0,396.5,320.5,400.0,318.5,386.0,318.0,394.5,315.0,390.5,303.5,389.5,302.5,389.0,303.0,381.5,301.0,387.5,298.0,395.0" stroke="orange" stroke-width="1" fill="none" />
<polyline points="314.5,374.0,322.0,362.0,324.0,359.5,323.5,353.0,331.5,345.5,333.0,346.0,330.5,348.5" stroke="yellow" stroke-width="1" fill="none" />
<polyline points="351.0,329.0,349.5,329.0,358.0,333.5,353.0,334.0,352.0,339.5" stroke="yellow" stroke-width="1" fill="none" />
<polyline points="356.0,362.0,355.5,363.0,354.0,367.0,360.0,374.5,351.5,381.0,353.0,384.5,353.5,389.0,355.0,395.0,352.0,389.0,349.5,400.0,350.0,404.5,346.5,407.5,349.5,410.5,356.5,410.0" stroke="black" stroke-width="1" fill="none" />
<polyline points="355.5,377.0,361.5,367.0,361.0,369.0,360.5,363.0" stroke="green" stroke-width="1" fill="none" />
<polyline points="359.0,360.0,358.0,370.0,353.5,376.0,357.5,374.0,354.0,381.0" stroke="yellow" stroke-width="1" fill="none" />
<polyline points="361.0,357.5,355.5,362.0,354.5,366.5,355.5,364.0,353.5,370.5,353.5,373.5,354.5,379.5,357.0,380.0,346.0,391.0,350.0,393.0,356.0,399.0,361.5,396.5,356.5,404.0,354.0,410.5,361.0,408.5" stroke="black" stroke-width="1" fill="none" />
<polyline points="372.5,455.0,376.0,455.5,373.5,447.5,374.5,446.5,375.0,435.0,369.5,437.5,369.5,428.0,373.5,430.0,377.0,431.0,380.0,422.5,380.5,417.5,378.0,409.5,377.0,407.0,379.0,404.0,375.0,399.0,376.0,396.5,378.0,387.0,382.0,394.5,375.0,384.0,387.5,379.0,376.0,372.5,378.0,371.0,379.0,367.0,382.5,365.5,387.0,363.5,373.0,358.0,379.5,348.0,377.0,349.0,375.5,344.0,374.5,344.0,370.0,336.0,378.5,332.0,374.0,333.0,374.5,322.5,369.0,321.0,377.5,323.5,376.5,313.0,372.5,309.5,372.5,301.5,378.5,309.0,375.5,296.0,376.0,291.5,371.5,290.5,370.5,282.5,371.5,272.5,369.5,277.0,366.0,267.0,366.0,271.0,370.5,264.0,374.5,263.0,367.0,261.5,358.5,256.0,366.5,248.5,365.5,243.5,369.0,238.0,364.5,234.0,360.5,228.5,364.5,226.5,361.0,220.0,357.0,216.0,357.5,222.5,361.0,208.5,360.0,209.0,352.0,203.5,345.5,199.0" stroke="orange" stroke-width="1" fill="none" />
<polyline points="" stroke="black" stroke-width="1" fill="none" />
<polyline points="" stroke="green" stroke-width="1" fill="none" />
<polyline points="" stroke="orange" stroke-width="1" fill="none" />
<polyline points="360.0,197.0,356.5,206.5,364.0,204.0,351.0,205.0" stroke="black" stroke-width="1" fill="none" />
<polyline points="" stroke="yellow" stroke-width="1" fill="none" />
<polyline points="354.0,208.0,351.5,211.5" stroke="green" stroke-width="1" fill="none" />
<polyline points="345.5,208.0,336.5,207.5,332.5,202.5,336.0,197.5" stroke="yellow" stroke-width="1" fill="none" />
<polyline points="345.5,217.0,356.0,207.5,358.5,219.5,354.5,225.5,357.5,231.0,360.0,230.5,362.5,240.5,363.5,241.5,366.5,250.5,366.0,251.0,365.5,253.5,360.5,253.5" stroke="green" stroke-width="1" fill="none" />
<polyline points="365.5,240.0,363.5,240.0,368.5,244.0,367.0,245.5,363.0,245.5,364.0,244.5" stroke="black" stroke-width="1" fill="none" />
<polyline points="346.5,236.0,348.0,245.0,350.0,239.5,350.0,237.0" stroke="black" stroke-width="1" fill="none" />
<polyline points="341.0,253.0,338.5,255.0,332.5,254.0,334.0,260.0,330.0,258.0,331.0,258.5" stroke="black" stroke-width="1" fill="none" />
<polyline points="340.0,250.0,332.0,251.5,340.5,244.5,340.5,250.0,352.0,251.5,350.5,244.0,346.0,243.5" stroke="black" stroke-width="1" fill="none" />
<polyline points="342.5,264.0,339.0,261.5" stroke="black" stroke-width="1" fill="none" />
<polyline points="341.0,266.5" stroke="yellow" stroke-width="1" fill="none" />
<polyline points="347.0,275.5,354.5,286.0,351.5,284.5,356.5,295.5,346.5,292.5,346.5,299.5,353.5,302.5,349.0,307.5,341.5,307.5,346.0,314.5,340.5,318.0,335.5,327.0,347.0,323.0,339.5,326.5,336.0,333.0,334.0,338.0,329.5,336.0,327.0,344.5,331.0,354.5,327.0,351.5,325.5,357.5,318.0,361.5,318.5,369.0,318.0,370.0,320.5,370.5,319.0,380.5,312.5,379.5,316.5,383.5,315.0,389.5,316.5,385.0,329.0,400.5,340.5,400.0,345.5,408.0,345.5,414.5,352.5,414.0,353.5,414.5,361.0,420.5,358.5,428.5,355.5,432.5,362.0,432.0,364.0,431.5,367.5,442.0,361.5,446.0,371.5,454.0,373.0,456.0,364.5,462.5,375.5,463.5,365.5,474.5,372.0,475.5,370.5,473.5,371.0,470.0,375.0,482.5,376.0,490.0,381.0,486.5,378.0,493.0,381.5,498.5,384.5,493.5,380.5,504.0,388.0,511.0,393.5,511.5,386.5,520.0,391.0,521.0,392.0,513.0,395.0,511.5" stroke="black" stroke-width="1" fill="none" />
<polyline points="427.0,495.0,433.0,484.5,426.5,485.0,442.0,479.5,440.0,480.0,448.5,477.0,446.5,465.5,456.5,465.0,455.0,468.5,455.5,464.5,453.5,465.5" stroke="black" stroke-width="1" fill="none" />
<polyline points="446.5,475.5,446.5,476.5,450.0,470.5,450.0,465.5,449.0,464.0,455.5,467.0,455.5,468.5" stroke="yellow" stroke-width="1" fill="none" />
<polyline points="463.5,442.5" stroke="yellow" stroke-width="1" fill="none" />
<polyline points="469.5,419.5,472.5,419.0,475.0,410.5,478.5,411.5,483.5,404.5,482.5,407.5,491.5,396.0,489.5,396.0,497.0,389.0,497.5,392.0,505.5,391.0,502.5,384.0,517.5,381.0,509.5,376.5,512.5,383.5" stroke="green" stroke-width="1" fill="none" />
<polyline points="513.5,381.5,514.5,385.0,506.0,386.0,497.5,383.0,490.0,396.0,492.5,401.0,484.5,405.5,479.0,408.5,478.5,411.5,471.0,417.0,472.5,426.0,471.5,421.5,464.0,426.5,460.5,428.0,463.0,435.0,458.5,436.0,447.0,440.0,462.0,443.5,463.5,453.5,456.5,458.0,452.5,456.5,453.5,456.0,448.5,470.0,445.0,477.0,447.5,478.0,445.5,482.0,440.5,485.5,441.5,478.0,438.5,480.0" stroke="green" stroke-width="1" fill="none" />
<polyline points="435.5,478.0,426.5,482.0,440.5,474.0,439.5,473.0,441.0,465.0,442.0,463.0,436.5,458.5,444.5,461.0" stroke="black" stroke-width="1" fill="none" />
<polyline points="430.5,462.5,437.0,455.0,425.5,449.5,428.5,456.5,433.0,445.0,441.0,439.5,439.0,443.0,439.5,429.5,430.5,428.5,431.5,433.5,432.5,431.5,434.5,430.5,429.5,429.0" stroke="yellow" stroke-width="1" fill="none" />
<polyline points="429.0,473.0,427.0,475.5,422.0,472.5,425.5,477.0,424.5,485.0,426.5,480.5,426.5,478.0" stroke="yellow" stroke-width="1" fill="none" />
<polyline points="418.0,469.5,426.0,471.0,420.5,470.5,421.0,475.5,428.0,474.5,429.0,466.5,434.0,458.5,433.0,460.5,434.0,463.0,434.0,465.5" stroke="orange" stroke-width="1" fill="none" />
<polyline points="478.5,406.5,479.5,411.0,489.0,406.0,482.0,389.5,479.5,393.0" stroke="green" stroke-width="1" fill="none" />
<polyline points="442.0,432.0,444.5,427.5,443.0,420.0,446.5,414.0,449.5,408.0,446.5,409.0,448.0,405.5,452.5,394.5,450.5,392.0,450.5,388.0,452.0,388.0,457.0,379.5,447.0,383.0,449.0,375.5,457.5,375.0,447.5,364.0" stroke="green" stroke-width="1" fill="none" />
<polyline points="382.5,344.5,389.0,338.5,384.0,334.0,373.5,324.5,382.0,326.5,379.5,326.0" stroke="green" stroke-width="1" fill="none" />
<polyline points="370.5,362.0,371.0,362.0,368.5,363.5,366.0,363.5,367.0,376.5,364.0,389.5,362.0,386.0,371.5,385.0,374.5,382.0,375.5,391.0,376.0,388.0,372.5,385.5" stroke="black" stroke-width="1" fill="none" />
<polyline points="324.5,341.5,327.0,343.5,328.5,341.0" stroke="orange" stroke-width="1" fill="none" />
<polyline points="310.5,355.0" stroke="green" stroke-width="1" fill="none" />
<polyline points="298.5,353.5,298.0,355.5" stroke="orange" stroke-width="1" fill="none" />
<polyline points="310.0,355.0,315.0,356.5,312.0,356.5,306.5,360.0,307.5,370.0,300.5,365.5,304.5,363.0" stroke="yellow" stroke-width="1" fill="none" />
<polyline points="309.5,345.5,295.0,352.0,303.0,347.5,298.5,349.5,299.5,354.5" stroke="orange" stroke-width="1" fill="none" />
<polyline points="305.5,328.5,306.5,324.5,316.0,327.0,315.5,327.0,306.5,330.5,308.0,331.0,305.5,328.5,312.0,333.5,310.5,336.5,309.0,337.0" stroke="orange" stroke-width="1" fill="none" />
<polyline points="312.0,317.0,311.5,324.5,299.0,331.0,292.0,337.0,293.5,339.5" stroke="yellow" stroke-width="1" fill="none" />
<polyline points="291.0,324.0,303.5,320.5,299.5,321.0,295.5,316.0" stroke="black" stroke-width="1" fill="none" />
<polyline points="319.0,332.5,326.5,322.5,324.5,323.5,325.5,322.0,321.5,311.0,321.5,306.5,325.0,317.0,324.5,302.5,322.5,303.5,322.5,305.0,321.5,304.5" stroke="black" stroke-width="1" fill="none" />
<polyline points="" stroke="green" stroke-width="1" fill="none" />
<polyline points="334.0,271.0,332.5,269.5,338.5,267.0,339.0,267.5,335.0,266.5,328.0,261.5,330.0,259.0,335.5,259.5" stroke="green" stroke-width="1" fill="none" />
<polyline points="326.0,260.5,325.5,264.5,329.0,264.0,327.5,275.0,327.5,273.0,325.0,279.5,330.0,265.5,334.5,269.5,323.0,274.5,332.0,258.0" stroke="yellow" stroke-width="1" fill="none" />
<polyline points="323.5,271.5" stroke="orange" stroke-width="1" fill="none" />
<polyline points="" stroke="green" stroke-width="1" fill="none" />
<polyline points="335.0,265.5,339.0,259.5,336.5,261.5,338.0,253.5,345.5,262.5,350.5,254.5,348.5,250.5" stroke="green" stroke-width="1" fill="none" />
<polyline points="350.5,233.5,347.0,237.0,348.0,228.0,343.0,222.0,335.5,217.5,341.0,213.5,339.5,212.5" stroke="black" stroke-width="1" fill="none" />
<polyline points="342.5,192.0,340.5,194.0,348.0,201.5,353.0,199.5,353.0,200.0,361.0,191.0,356.5,194.0,366.5,187.5,374.5,187.0,376.5,182.5,380.5,183.0,377.5,188.5,392.0,186.0,390.5,176.0,391.0,175.0,394.0,169.5,395.5,183.5,404.0,165.0,406.0,174.0,403.0,178.5,393.5,189.0,395.0,186.0,390.5,190.0,381.0,193.5,386.5,197.5,390.0,187.0,391.0,186.0,396.0,169.0,404.5,178.0,402.0,182.0" stroke="orange" stroke-width="1" fill="none" />
<polyline points="401.5,160.0,407.0,164.0,408.5,164.5,393.5,170.0,384.5,173.0,386.5,175.0" stroke="black" stroke-width="1" fill="none" />
<polyline points="375.5,178.0,367.0,184.5,357.0,192.5,347.5,189.5,345.5,194.0,337.0,193.5,337.5,206.5,344.5,205.0" stroke="yellow" stroke-width="1" fill="none" />
<polyline points="334.5,207.0,333.0,204.5,339.0,209.0,343.0,208.5,331.0,213.5,332.0,209.0" stroke="black" stroke-width="1" fill="none" />
<polyline points="" stroke="green" stroke-width="1" fill="none" />
<polyline points="348.0,205.0,352.5,213.5,353.0,218.0,357.5,213.5" stroke="orange" stroke-width="1" fill="none" />
<polyline points="356.0,206.0,352.0,204.5,348.0,201.5,345.5,205.5,343.5,208.0" stroke="yellow" stroke-width="1" fill="none" />
<polyline points="344.5,198.0,346.5,203.5,351.5,207.0,349.5,205.5" stroke="orange" stroke-width="1" fill="none" />
<polyline points="" stroke="black" stroke-width="1" fill="none" />
<polyline points="342.0,202.0,342.0,202.0,344.5,204.0,344.0,206.0,353.5,205.5,350.5,208.5" stroke="black" stroke-width="1" fill="none" />
<polyline points="" stroke="black" stroke-width="1" fill="none" />
<polyline points="370.5,192.5,371.0,195.5" stroke="orange" stroke-width="1" fill="none" />
<polyline points="393.0,154.5,390.0,160.0,378.5,161.5,387.0,161.5,381.5,174.0,381.0,177.5,390.0,173.5,386.0,158.0,389.0,158.0,390.5,155.0" stroke="black" stroke-width="1" fill="none" />
<polyline points="399.5,166.5,392.0,168.5,399.0,163.5,404.5,161.5,390.0,177.0,396.0,174.5,385.5,171.5,397.0,170.0,399.0,163.5" stroke="yellow" stroke-width="1" fill="none" />
<polyline points="395.5,130.0,393.5,126.0,383.5,131.5,382.5,139.5,390.0,132.0,386.5,129.0,392.0,124.0,387.5,123.5,388.5,123.5" stroke="yellow" stroke-width="1" fill="none" />
<polyline points="392.5,127.5,390.0,122.0,376.5,132.0,381.5,131.0,379.0,128.0,391.0,124.5,399.5,120.0,400.5,116.0" stroke="yellow" stroke-width="1" fill="none" />
<polyline points="391.5,119.5,389.0,123.5,386.5,124.0,382.5,131.0,371.0,134.0,361.5,140.0,356.0,144.0,356.5,143.0,354.0,139.0,353.5,138.0" stroke="green" stroke-width="1" fill="none" />
<polyline points="333.0,150.0,312.5,153.0,318.0,158.5,312.0,152.5,306.5,167.0,306.5,167.0" stroke="orange" stroke-width="1" fill="none" />
<polyline points="" stroke="yellow" stroke-width="1" fill="none" />
<polyline points="284.0,173.0,278.5,171.5,282.5,177.5,288.0,176.0,284.0,180.0,285.5,177.0" stroke="black" stroke-width="1" fill="none" />
<polyline points="284.0,179.0" stroke="orange" stroke-width="1" fill="none" />
<polyline points="276.5,177.5,280.0,183.0,274.5,171.5,278.0,172.0,273.5,172.0,273.0,173.5" stroke="orange" stroke-width="1" fill="none" />
<polyline points="273.0,181.0,266.0,184.5,257.0,176.5,259.0,179.0,263.5,180.0,247.5,173.0,246.0,168.0,246.0,162.5" stroke="green" stroke-width="1" fill="none" />
<polyline points="240.5,166.0,247.0,164.0,246.5,166.0,251.5,164.5,249.5,173.5,259.0,180.5,252.5,179.0,246.0,184.5,245.0,188.5,239.5,195.5,239.0,195.0,236.0,201.5,235.0,209.5,237.0,204.5,243.5,218.5,244.5,205.0,248.0,216.0,257.0,202.5,252.5,214.5,256.0,203.5,249.5,210.5,249.5,216.0,251.0,225.0,237.5,219.0,243.5,235.5,240.5,231.0,236.0,231.0,239.5,246.5,232.0,249.0,230.5,253.0,223.5,251.5,219.5,259.0,218.0,260.0,220.0,271.0,218.0,274.0,210.5,276.5,206.0,281.0,205.5,283.5,204.0,292.5,204.0,300.0,198.0,304.0,196.5,297.5,193.5,300.0,200.0,310.5,199.5,316.0,192.0,309.5,192.0,312.0,182.5,317.0,183.0,323.5,179.0,326.5,174.0,332.0,167.5,330.5,166.0,339.5,161.5,342.5,164.0,338.0" stroke="green" stroke-width="1" fill="none" />
<polyline points="154.5,352.0,159.5,346.5,162.5,362.5,151.0,359.5,155.5,365.5,149.5,369.0,158.5,377.0,163.0,369.5,156.0,382.5,157.5,384.0,157.0,390.0,159.5,392.0,148.5,390.5,156.5,401.5,163.0,404.0,162.0,409.5,164.0,409.0,160.0,408.0,162.5,408.0" stroke="orange" stroke-width="1" fill="none" />
<polyline points="166.5,408.5,169.0,405.5,161.0,407.0,161.5,409.5,156.5,415.5,156.5,417.5" stroke="orange" stroke-width="1" fill="none" />
<polyline points="166.5,413.0,170.0,414.0,165.0,414.0,169.0,419.0,170.0,416.5,172.5,422.5,172.0,423.0,178.0,422.0,175.5,419.5" stroke="green" stroke-width="1" fill="none" />
<polyline points="" stroke="black" stroke-width="1" fill="none" />
<polyline points="183.0,446.0,176.5,441.0,176.0,442.5,185.5,440.5,187.5,438.5" stroke="green" stroke-width="1" fill="none" />
<polyline points="191.0,451.5" stroke="yellow" stroke-width="1" fill="none" />
<polyline points="" stroke="yellow" stroke-width="1" fill="none" />
<polyline points="" stroke="black" stroke-width="1" fill="none" />
<polyline points="180.0,454.5,177.0,463.0,179.0,460.5,168.0,468.5,171.0,470.0,168.0,470.0,164.0,473.0" stroke="orange" stroke-width="1" fill="none" />
<polyline points="153.0,475.0,159.0,473.0,152.0,470.0,139.0,454.0,142.0,456.5,143.0,456.5,140.5,455.5,135.5,460.0" stroke="yellow" stroke-width="1" fill="none" />
<polyline points="135.5,464.5,144.5,472.0,144.0,472.0,145.5,481.0,149.5,481.0,159.5,482.0,154.5,482.0,153.0,479.0,156.0,488.0,167.5,496.0" stroke="black" stroke-width="1" fill="none" />
<polyline points="166.5,498.5,164.5,501.0,165.0,503.5,166.5,499.5,164.5,499.5" stroke="green" stroke-width="1" fill="none" />
<polyline points="171.5,503.5,169.0,501.5,167.5,511.0,157.0,508.5,157.5,501.0,153.0,503.0,146.5,492.5,139.0,490.5,142.0,484.0" stroke="orange" stroke-width="1" fill="none" />
<polyline points="144.0,492.0,149.0,495.5,147.0,506.0,148.5,498.5" stroke="orange" stroke-width="1" fill="none" />
<polyline points="" stroke="green" stroke-width="1" fill="none" />
<polyline points="" stroke="orange" stroke-width="1" fill="none" />
<polyline points="" stroke="green" stroke-width="1" fill="none" />
<polyline points="148.5,488.5,148.5,489.5,155.0,489.5,154.5,487.5,153.0,485.5" stroke="yellow" stroke-width="1" fill="none" />
<polyline points="153.5,493.5,155.5,493.5,157.5,499.0,156.0,496.5,155.5,506.5,158.5,514.0,161.0,503.5,159.0,505.5,159.0,511.0,154.5,514.5" stroke="orange" stroke-width="1" fill="none" />
<polyline points="145.0,497.0,147.0,489.0,143.0,484.0,138.0,478.0,142.0,483.5,144.5,487.0" stroke="green" stroke-width="1" fill="none" />
<polyline points="146.5,495.0,149.0,499.5,151.0,498.5,148.0,498.5,147.5,502.0,152.0,504.0,151.0,506.0" stroke="green" stroke-width="1" fill="none" />
<polyline points="141.0,497.0,145.5,490.5" stroke="yellow" stroke-width="1" fill="none" />
<polyline points="148.0,506.5,155.5,506.0,151.5,518.5,151.0,519.0" stroke="black" stroke-width="1" fill="none" />
<polyline points="139.0,510.5,140.5,508.0,141.5,514.0,139.0,505.0,132.5,501.0,141.0,489.0,138.0,493.0" stroke="orange" stroke-width="1" fill="none" />
<polyline points="138.5,483.5,143.0,495.5,130.0,503.5,138.5,497.5,138.0,492.0" stroke="green" stroke-width="1" fill="none" />
<polyline points="" stroke="black" stroke-width="1" fill="none" />
<polyline points="120.0,510.0,124.0,509.0" stroke="orange" stroke-width="1" fill="none" />
<polyline points="114.0,510.5,120.0,510.0,119.5,514.0,124.5,508.5,121.5,494.5,125.5,496.0,124.5,491.5,129.5,487.5" stroke="black" stroke-width="1" fill="none" />
<polyline points="131.0,505.0,129.0,501.0,131.5,498.5,122.0,495.5" stroke="green" stroke-width="1" fill="none" />
<polyline points="135.0,517.0,132.0,514.5,128.0,508.5,131.5,503.5,127.5,504.5,123.0,512.5" stroke="yellow" stroke-width="1" fill="none" />
<polyline points="137.5,488.5,137.0,477.5,139.5,484.0" stroke="orange" stroke-width="1" fill="none" />
<polyline points="131.0,473.5,128.0,484.5,134.0,493.5,133.5,495.0,139.5,506.0,131.0,499.0,141.5,506.0,138.5,516.5" stroke="green" stroke-width="1" fill="none" />
<polyline points="158.5,509.0" stroke="green" stroke-width="1" fill="none" />
<polyline points="" stroke="yellow" stroke-width="1" fill="none" />
<polyline points="171.0,483.0" stroke="green" stroke-width="1" fill="none" />
<polyline points="167.0,475.5" stroke="yellow" stroke-width="1" fill="none" />
<polyline points="166.0,473.0,161.5,466.5,172.5,470.5,174.0,470.0,173.5,483.5,162.0,486.0,167.5,485.0,169.0,497.0,172.5,490.5" stroke="green" stroke-width="1" fill="none" />
<polyline points="191.5,486.0,191.0,487.0,207.5,487.0,208.0,488.5,205.0,487.0,208.0,484.0,212.0,480.5,218.5,479.0,226.5,479.0" stroke="yellow" stroke-width="1" fill="none" />
<polyline points="232.5,461.5,232.5,460.5,230.0,456.0" stroke="yellow" stroke-width="1" fill="none" />
<polyline points="216.5,478.5,217.5,474.0,215.0,473.0,226.0,469.0,224.0,457.0,235.5,455.0,231.5,448.0,231.0,446.0,235.0,444.5,236.0,437.5,231.0,438.0,241.0,431.0,230.0,430.5,245.0,426.0,230.5,417.5,227.5,418.5,234.0,413.5,236.0,402.0,228.0,402.5,223.5,408.0" stroke="yellow" stroke-width="1" fill="none" />
<polyline points="223.0,410.0,224.0,409.0,224.0,418.5,223.5,409.5,225.5,406.5" stroke="orange" stroke-width="1" fill="none" />
<polyline points="243.5,417.0,222.5,413.0,225.0,418.5,231.0,428.0,219.5,423.0,224.5,415.5,224.0,417.0,227.5,417.5,225.0,418.5" stroke="orange" stroke-width="1" fill="none" />
<polyline points="250.0,417.0,244.5,426.0,242.0,426.0,237.5,425.0,235.0,430.5,240.0,436.5,243.5,444.5,238.0,444.0,245.0,445.5,239.0,456.0,239.0,455.5,232.0,461.0,234.0,471.5,231.5,469.0,222.5,473.5,224.5,477.5,225.0,480.0,218.0,487.5,220.0,486.0" stroke="black" stroke-width="1" fill="none" />
<polyline points="194.5,500.5,198.0,490.5,209.5,491.0,203.5,496.5,211.5,494.0,219.5,490.5,217.5,491.5,223.5,485.5,228.0,478.0,236.5,477.5,237.0,474.5" stroke="orange" stroke-width="1" fill="none" />
<polyline points="197.5,437.0,200.5,449.5,199.0,446.5,182.0,446.0" stroke="green" stroke-width="1" fill="none" />
<polyline points="183.5,446.0,183.5,450.0,179.0,454.5,194.0,451.0,185.0,453.0,185.5,444.0,191.0,439.5,180.5,432.0,172.5,429.0,183.5,432.5,189.0,422.0,182.5,421.0,182.0,425.0,184.0,414.0,174.5,414.0,178.5,413.0,168.0,397.0,162.0,397.5,160.5,388.5,167.5,393.5,161.5,389.0,166.0,384.0,167.0,377.0" stroke="black" stroke-width="1" fill="none" />
<polyline points="160.0,369.5,164.5,367.5,178.0,367.5,176.0,354.5,182.5,347.5,185.5,341.0,187.0,339.5,196.0,335.0,197.0,330.5,202.5,323.5,193.0,326.0,199.0,321.0" stroke="yellow" stroke-width="1" fill="none" />
<polyline points="198.5,320.0,202.5,318.5,211.5,319.5" stroke="yellow" stroke-width="1" fill="none" />
<polyline points="187.5,319.5,182.0,319.0,186.5,318.0,194.5,306.5,194.5,304.0,203.0,291.0,202.5,287.5,207.0,279.5,216.5,272.5,223.5,260.0,222.0,256.5,228.5,250.0,233.5,243.0,229.5,243.5,244.5,230.0,238.5,225.0,247.5,222.5,252.0,221.0,261.0,219.0,259.0,214.5,251.5,215.5" stroke="orange" stroke-width="1" fill="none" />
<polyline points="269.5,225.0,269.0,226.0" stroke="black" stroke-width="1" fill="none" />
<polyline points="272.5,235.0,271.0,232.0,261.5,244.5,262.0,242.5" stroke="black" stroke-width="1" fill="none" />
<polyline points="263.5,233.0,268.5,235.5,271.5,234.5,265.0,239.0,266.0,224.5,270.5,227.5,263.5,228.5,255.0,230.5,255.5,229.5,262.5,230.0,246.5,247.5,246.0,241.0,235.5,251.0,246.0,262.0,227.0,274.0,221.5,273.5,216.0,281.0,219.5,281.0,225.0,288.0,230.5,275.0,226.0,271.5,226.5,263.5,226.0,268.5,235.5,265.0,231.5,261.0,240.5,244.0,229.5,247.5,250.5,241.5,246.5,236.5,254.0,242.5,254.5,222.5,264.0,222.5,262.0,222.5,262.0,218.5,261.5,216.0,270.0,216.5,272.0,220.0,270.0,207.0,277.0,201.0,270.0,203.5,278.0,201.5,267.0,191.5,275.0,190.0,265.0,190.5,266.0,201.0,261.0,208.5,272.5,206.0,261.5,206.5,261.5,209.5,268.5,194.0" stroke="green" stroke-width="1" fill="none" />
<polyline points="250.0,196.0" stroke="black" stroke-width="1" fill="none" />
<polyline points="247.5,207.5,258.5,215.5,255.0,217.0,248.0,219.0,239.0,229.5,242.0,228.5,229.0,236.5,226.0,234.0,221.5,237.5,221.5,231.0,232.5,227.0,224.5,223.0,226.5,217.5,225.0,216.0,218.0,216.5,222.0,217.0,231.0,201.0,223.5,207.5,222.5,206.5,219.5,204.0,221.5,203.0,212.0,206.5" stroke="orange" stroke-width="1" fill="none" />
<polyline points="241.0,198.0,239.5,204.5,228.0,209.5" stroke="black" stroke-width="1" fill="none" />
<polyline points="" stroke="green" stroke-width="1" fill="none" />
<polyline points="" stroke="yellow" stroke-width="1" fill="none" />
<polyline points="249.0,206.0,249.0,197.0,259.0,186.0,260.0,188.5,257.0,181.0,246.5,193.5,242.0,197.0,253.0,192.0,268.0,187.5,261.0,191.0,255.5,189.0,265.5,182.5,265.5,176.5,275.5,182.0,276.5,181.0,272.0,177.0,276.5,183.0,284.0,179.5" stroke="orange" stroke-width="1" fill="none" />
<polyline points="258.0,177.5,252.5,188.5,252.0,195.5,253.0,193.0,250.0,199.5,250.0,201.5,244.5,198.5,241.0,204.5,247.0,205.5,255.5,204.5,246.5,195.5,252.0,194.5,264.0,194.5,259.0,188.0,262.5,179.5,269.5,198.0,269.5,197.0" stroke="black" stroke-width="1" fill="none" />
<polyline points="265.0,206.5,259.5,206.0,259.0,204.5,263.0,195.0,266.0,194.5,271.0,185.0,272.0,192.5,276.0,187.5,276.0,187.0,275.0,188.5" stroke="orange" stroke-width="1" fill="none" />
<polyline points="261.5,188.0,260.5,194.5,256.0,196.5,249.5,199.0,241.5,208.5,250.0,211.0" stroke="yellow" stroke-width="1" fill="none" />
<polyline points="260.5,202.5,270.0,200.0,259.5,202.0,261.0,210.0,261.0,206.5,258.0,212.0,260.5,213.5,253.5,226.0,249.5,222.5,243.5,231.5,246.0,228.5,238.0,243.5,239.5,245.5" stroke="yellow" stroke-width="1" fill="none" />
<polyline points="" stroke="black" stroke-width="1" fill="none" />
<polyline points="" stroke="orange" stroke-width="1" fill="none" />
<polyline points="228.5,221.5,221.0,221.0,229.5,231.5" stroke="yellow" stroke-width="1" fill="none" />
<polyline points="216.0,232.5" stroke="black" stroke-width="1" fill="none" />
<polyline points="226.0,236.5,222.0,237.0,228.5,243.5,219.0,233.5,226.5,244.5,223.5,242.5" stroke="black" stroke-width="1" fill="none" />
<polyline points="227.0,234.5,230.0,234.0,224.5,232.5,220.0,231.5,218.5,226.0,212.5,222.0,216.0,229.5" stroke="yellow" stroke-width="1" fill="none" />
<polyline points="216.5,213.5,223.5,236.5,214.0,230.0,218.5,238.0,222.0,231.5,229.5,246.5,226.0,249.0,232.5,251.0,231.5,249.5" stroke="green" stroke-width="1" fill="none" />
<polyline points="225.0,252.5,221.5,264.5,216.0,273.0,216.0,273.0,207.5,288.5,197.0,287.0,194.5,291.0,196.0,304.5,188.0,317.0,187.5,318.0,184.0,326.5,180.5,325.0,171.0,327.5,171.5,333.0,162.0,335.5,157.0,333.5,153.0,335.0,153.5,340.5,142.5,350.5,141.5,346.5" stroke="orange" stroke-width="1" fill="none" />
<polyline points="138.0,346.0,147.5,336.0,146.5,342.0,152.0,338.0,145.5,327.5,152.5,328.5,149.5,325.5" stroke="black" stroke-width="1" fill="none" />
<polyline points="154.0,330.5,154.5,332.5,154.5,334.5" stroke="orange" stroke-width="1" fill="none" />
<polyline points="141.5,353.5,145.5,350.0,151.5,347.0,146.5,356.5,148.0,357.0" stroke="green" stroke-width="1" fill="none" />
<polyline points="146.0,351.5,129.0,348.5,134.0,338.5,139.0,341.5,133.0,336.5,139.5,328.5,133.5,326.5,134.0,321.5,134.0,316.5,130.5,315.0,132.0,314.0,130.0,309.5" stroke="green" stroke-width="1" fill="none" />
<polyline points="130.5,296.5,132.0,298.0,127.0,296.0" stroke="green" stroke-width="1" fill="none" />
<polyline points="135.5,292.0,139.0,308.0,138.5,303.5,141.5,303.5" stroke="black" stroke-width="1" fill="none" />
<polyline points="117.5,289.0,135.0,295.5,134.5,289.5,128.0,289.5,129.0,291.5" stroke="orange" stroke-width="1" fill="none" />
<polyline points="133.0,274.0,137.0,279.5,143.0,273.0,142.0,273.5" stroke="black" stroke-width="1" fill="none" />
<polyline points="152.0,267.5,157.0,264.5" stroke="yellow" stroke-width="1" fill="none" />
<polyline points="153.0,262.5,153.0,272.5,155.0,275.5,154.5,269.5,157.0,272.0,159.0,267.5,161.0,270.0" stroke="yellow" stroke-width="1" fill="none" />
<polyline points="151.5,272.0,155.5,271.5,153.5,274.5,154.5,274.5" stroke="orange" stroke-width="1" fill="none" />
<polyline points="171.5,272.0,175.5,265.5,165.0,262.5,173.0,258.0,170.0,256.0,175.5,256.5,165.0,256.5,167.0,262.0" stroke="yellow" stroke-width="1" fill="none" />
<polyline points="170.5,255.5,177.0,252.0,177.5,251.0" stroke="yellow" stroke-width="1" fill="none" />
<polyline points="169.5,261.5,171.0,260.0" stroke="green" stroke-width="1" fill="none" />
<polyline points="" stroke="green" stroke-width="1" fill="none" />
<polyline points="179.0,266.0,178.0,261.5,181.0,261.5,192.0,256.0,186.5,260.0,188.5,261.0" stroke="yellow" stroke-width="1" fill="none" />
<polyline points="" stroke="black" stroke-width="1" fill="none" />
<polyline points="" stroke="black" stroke-width="1" fill="none" />
<polyline points="178.5,254.0,189.0,256.5,187.5,261.5,187.0,265.5,193.0,265.0,187.0,268.5,182.5,264.5" stroke="black" stroke-width="1" fill="none" />
<polyline points="208.0,259.0,206.0,254.0,207.0,260.0,205.5,267.0,209.0,265.0,213.0,256.5" stroke="green" stroke-width="1" fill="none" />
<polyline points="209.0,246.5,211.0,247.5,221.5,266.0,210.0,251.5,210.0,247.0,212.0,244.5,206.0,239.5,208.0,235.0,209.5,236.5,206.5,241.0,199.0,235.0,203.5,235.0,206.0,235.5" stroke="yellow" stroke-width="1" fill="none" />
<polyline points="205.0,242.5,208.5,235.0,208.5,248.5,214.5,247.5,218.5,237.0,222.5,244.0,215.0,249.5,211.5,249.0,211.5,249.0" stroke="yellow" stroke-width="1" fill="none" />
<polyline points="" stroke="black" stroke-width="1" fill="none" />
<polyline points="207.0,259.5,209.5,263.5" stroke="orange" stroke-width="1" fill="none" />
<polyline points="212.5,257.5,213.0,248.0,211.5,248.5,209.5,238.0,206.0,237.5,213.0,235.5,211.5,234.5" stroke="black" stroke-width="1" fill="none" />
<polyline points="213.5,233.0,210.5,235.5,213.5,241.0,213.0,246.5,210.5,255.5,206.5,253.5,219.0,260.5,214.5,263.5,219.0,262.5,220.0,261.5" stroke="black" stroke-width="1" fill="none" />
<polyline points="" stroke="yellow" stroke-width="1" fill="none" />
<polyline points="197.5,254.0" stroke="black" stroke-width="1" fill="none" />
<polyline points="191.5,248.5" stroke="green" stroke-width="1" fill="none" />
<polyline points="187.0,269.0,183.0,270.5,183.0,262.0,172.0,267.5,176.0,259.0,190.5,245.5,182.5,247.5,176.5,239.5,189.5,233.5,195.5,238.5,184.0,245.5,179.5,237.0,182.5,241.5,181.5,241.0" stroke="black" stroke-width="1" fill="none" />
<polyline points="195.5,217.5,199.0,212.5,189.0,229.0,188.0,223.5" stroke="black" stroke-width="1" fill="none" />
<polyline points="186.0,225.5,183.5,222.0,191.0,227.5,188.0,233.0,188.5,236.5" stroke="orange" stroke-width="1" fill="none" />
<polyline points="181.0,240.5,181.5,242.0,183.5,239.0,184.5,241.0,184.0,241.0,185.5,238.5,182.0,238.5" stroke="black" stroke-width="1" fill="none" />
<polyline points="189.5,241.0,190.5,245.0,194.5,237.0,191.0,240.0,204.0,240.0,200.0,240.0" stroke="green" stroke-width="1" fill="none" />
<polyline points="218.5,225.5" stroke="black" stroke-width="1" fill="none" />
<polyline points="" stroke="black" stroke-width="1" fill="none" />
<polyline points="208.0,227.5,213.0,221.5,215.5,221.0,218.5,231.0,217.0,234.5,217.5,237.5,221.5,235.5" stroke="green" stroke-width="1" fill="none" />
<polyline points="225.5,199.5,219.5,213.5,215.5,221.5,222.0,212.5,219.0,217.5,224.0,232.0,231.5,231.5,224.5,239.5,232.5,236.0,238.0,246.0,232.5,240.5,234.5,251.5,228.0,254.5,230.5,250.5,223.5,253.5,214.0,268.5,221.0,264.0,219.0,265.5,218.0,273.0,214.0,282.5,202.0,282.0,217.5,294.0,200.0,288.5,202.5,294.0,211.0,303.0,190.5,303.5,203.0,311.5,206.5,318.5,199.5,316.0,194.5,314.0,186.0,327.5,198.0,320.5,194.5,312.5,201.0,313.0,214.0,311.5,212.5,312.5,221.5,300.5,224.5,304.0,234.0,287.0,228.0,278.5,236.0,281.5,232.5,267.5,239.0,273.0,248.5,267.5,245.0,259.5,251.0,257.0,249.0,255.0,256.0,252.0,262.0,252.5,270.5,241.5,281.5,253.5,279.5,247.5,275.5,256.0,292.5,254.0,285.5,246.0,301.0,256.5,300.5,253.0,303.0,257.0" stroke="yellow" stroke-width="1" fill="none" />
<polyline points="" stroke="orange" stroke-width="1" fill="none" />
<polyline points="285.0,262.5,292.5,274.5,290.0,279.0,295.0,278.0,290.5,276.0,299.5,280.0" stroke="orange" stroke-width="1" fill="none" />
<polyline points="" stroke="black" stroke-width="1" fill="none" />
<polyline points="" stroke="orange" stroke-width="1" fill="none" />
<polyline points="279.5,277.5,279.5,272.5,281.5,274.0" stroke="green" stroke-width="1" fill="none" />
<polyline points="277.0,264.5,274.0,266.5" stroke="black" stroke-width="1" fill="none" />
<polyline points="285.5,264.0,283.5,267.5" stroke="yellow" stroke-width="1" fill="none" />
<polyline points="257.5,264.5,263.0,264.0,266.5,266.0,261.0,261.5" stroke="orange" stroke-width="1" fill="none" />
<polyline points="262.5,265.0,264.0,274.5,265.0,274.0,268.0,272.0,272.0,267.0,282.5,262.0,277.5,276.5,269.0,289.0,277.0,275.5,274.5,280.5,280.0,285.0,282.5,289.5,282.5,290.5" stroke="yellow" stroke-width="1" fill="none" />
<polyline points="262.0,275.5,259.0,268.0,264.5,267.0,259.5,273.5,259.0,277.0,252.5,273.5,252.5,272.5,252.0,273.0" stroke="black" stroke-width="1" fill="none" />
<polyline points="270.0,272.5,270.5,281.0,274.0,278.5" stroke="black" stroke-width="1" fill="none" />
<polyline points="" stroke="yellow" stroke-width="1" fill="none" />
<polyline points="253.5,264.5,253.5,271.0,255.5,279.5,251.0,273.5,261.0,270.5,270.5,277.0,270.5,280.0,274.5,280.5,282.5,280.0,282.5,274.5" stroke="orange" stroke-width="1" fill="none" />
<polyline points="287.0,260.5,288.5,264.0,284.5,255.0,278.5,259.5,288.5,253.0,278.0,251.0,276.0,254.5,279.5,252.5,281.0,249.0,274.0,250.0,273.5,252.5" stroke="yellow" stroke-width="1" fill="none" />
<polyline points="271.0,244.0,273.0,243.5" stroke="orange" stroke-width="1" fill="none" />
<polyline points="" stroke="black" stroke-width="1" fill="none" />
<polyline points="271.5,259.5,273.5,257.5,282.0,257.0,271.0,260.0,264.0,252.0,261.5,249.0,263.5,253.5" stroke="black" stroke-width="1" fill="none" />
<polyline points="264.5,271.0,260.5,271.0" stroke="green" stroke-width="1" fill="none" />
<polyline points="279.5,270.5,284.0,270.5,283.0,269.5,289.0,276.5,286.5,273.5,285.5,271.0,284.5,279.5,288.0,278.5,291.0,267.0" stroke="black" stroke-width="1" fill="none" />
<polyline points="" stroke="orange" stroke-width="1" fill="none" />
<polyline points="253.0,253.0,257.5,247.0,258.5,257.5,246.5,266.5,244.5,266.5,242.5,265.5,237.0,273.0,232.0,276.5,228.5,290.0,232.0,282.0,227.0,289.0,216.0,294.0,211.0,300.5,216.5,300.5,212.0,297.5,209.0,314.5,202.0,312.5,200.0,314.0,206.5,324.0,197.5,323.0,190.0,334.0,192.5,333.5,185.0,334.0,185.0,346.5,184.0,344.0,173.5,348.5,173.0,359.0,177.0,356.0,169.5,362.0,168.5,373.0,165.5,368.5,157.0,379.5,155.5,377.5,152.0,389.5,164.0,388.0,161.5,394.0,166.5,401.0,175.5,407.0,175.5,405.0,176.5,404.0,174.5,394.0,173.0,396.0" stroke="yellow" stroke-width="1" fill="none" />
<polyline points="155.0,389.0,157.0,392.0,159.5,394.5,159.5,388.5,157.5,390.5" stroke="black" stroke-width="1" fill="none" />
<polyline points="" stroke="black" stroke-width="1" fill="none" />
<polyline points="140.0,376.0,137.0,377.5,139.0,370.5,142.0,371.0,140.5,369.5,141.5,362.0" stroke="black" stroke-width="1" fill="none" />
<polyline points="139.0,383.5,139.5,382.5" stroke="orange" stroke-width="1" fill="none" />
<polyline points="135.0,412.0,130.0,414.5,127.0,412.0,131.0,418.5,137.5,424.5,139.0,425.5,139.0,431.5,139.0,437.0,139.0,441.5,136.5,444.0,142.5,446.5,143.5,452.5,136.0,451.5,135.5,462.0,137.5,461.0,140.5,468.0,139.5,467.5,139.0,471.5,149.5,469.0,147.0,479.0,149.0,475.0,156.5,487.5,160.5,484.5" stroke="orange" stroke-width="1" fill="none" />
<polyline points="" stroke="orange" stroke-width="1" fill="none" />
<polyline points="172.5,464.0,174.5,464.0,187.0,459.0,172.0,465.5,173.5,459.0,175.0,457.0,173.0,451.5,163.5,442.5,175.5,439.0,166.5,440.0,167.5,435.5,169.5,436.5" stroke="yellow" stroke-width="1" fill="none" />
<polyline points="169.0,434.5,164.0,441.0,164.5,437.0" stroke="black" stroke-width="1" fill="none" />
<polyline points="156.0,427.0,156.0,424.0,161.5,423.0,151.5,411.0,161.5,409.5,156.0,411.0,149.5,413.0,155.5,405.0,155.0,401.0,160.5,392.5,155.5,398.0,146.0,395.0,153.0,385.5,145.0,371.0,145.0,373.0,138.5,365.0,137.5,364.0,151.5,363.5,143.5,360.5" stroke="black" stroke-width="1" fill="none" />
<polyline points="145.5,364.5,148.5,364.0,143.0,361.5,149.0,359.5,152.0,369.0,149.0,377.0,153.0,378.0,151.0,383.0,155.5,381.0,152.0,380.0,156.5,398.0,154.0,392.0,163.5,402.0,172.5,399.5,170.5,402.5,168.0,409.5" stroke="green" stroke-width="1" fill="none" />
<polyline points="181.0,425.0,175.5,429.0,169.0,441.0,169.5,442.5,171.5,437.0,172.0,441.5,173.5,452.5,176.5,450.5,182.5,460.0,175.5,451.0,177.0,467.0" stroke="green" stroke-width="1" fill="none" />
<polyline points="164.5,451.5,169.5,453.0" stroke="orange" stroke-width="1" fill="none" />
<polyline points="162.0,447.5,162.5,449.5,160.0,442.0,160.0,445.0,174.0,457.5,167.5,462.5,179.5,454.0,169.0,465.0,171.0,468.5,163.5,469.0,166.5,484.5,174.5,477.0,154.5,482.0,162.5,490.5,164.5,489.0,159.5,500.5,160.5,495.0,164.0,507.0,173.5,499.5,179.0,514.0,174.5,516.5,178.0,507.5,170.5,514.5,171.5,512.5" stroke="black" stroke-width="1" fill="none" />
<polyline points="" stroke="yellow" stroke-width="1" fill="none" />
<polyline points="160.0,461.5" stroke="black" stroke-width="1" fill="none" />
<polyline points="" stroke="green" stroke-width="1" fill="none" />
<polyline points="150.5,449.0,164.5,450.5,152.5,447.0,154.5,443.0,151.5,439.0,146.0,434.0,158.0,429.5,149.5,425.5,146.0,429.0,141.5,418.5,136.0,412.5,134.5,407.0,136.5,407.0" stroke="orange" stroke-width="1" fill="none" />
<polyline points="137.5,398.5,148.5,399.0,146.5,396.0,154.5,387.5,145.5,397.0,145.0,401.0,144.0,402.0,143.0,400.5" stroke="orange" stroke-width="1" fill="none" />
<polyline points="140.0,405.0,136.0,406.5,134.5,410.0" stroke="orange" stroke-width="1" fill="none" />
<polyline points="134.5,400.5,140.0,407.0,147.0,402.5,141.5,410.0,142.0,408.5,146.0,412.0,146.5,414.0" stroke="green" stroke-width="1" fill="none" />
<polyline points="159.0,423.5,153.0,426.5,154.5,429.5,158.0,425.5,155.5,435.5,148.5,438.0,147.0,442.5" stroke="black" stroke-width="1" fill="none" />
<polyline points="167.0,445.0,162.0,440.0,169.5,449.0,176.5,445.5,181.0,442.5,180.0,441.5" stroke="black" stroke-width="1" fill="none" />
<polyline points="183.0,430.5,182.5,426.5,168.5,412.5,176.5,415.0,181.0,414.0,168.0,415.5,166.5,410.5,161.5,410.5,164.5,399.0,164.5,396.0" stroke="black" stroke-width="1" fill="none" />
<polyline points="181.5,415.0,179.5,414.5,173.0,421.0,164.5,419.5,172.5,434.0,163.0,431.0,163.5,432.5,159.5,428.0,163.0,437.5,159.5,437.0,161.5,431.5,175.0,429.5,170.0,430.5,167.0,431.0" stroke="yellow" stroke-width="1" fill="none" />
<polyline points="166.0,432.0" stroke="yellow" stroke-width="1" fill="none" />
<polyline points="163.5,445.0,155.0,455.5,152.5,458.5,157.0,452.5,163.0,453.0,165.5,457.5,166.0,460.5,166.5,465.5" stroke="orange" stroke-width="1" fill="none" />
<polyline points="169.5,455.0,163.0,459.5,161.5,458.0,167.5,457.0" stroke="black" stroke-width="1" fill="none" />
<polyline points="" stroke="black" stroke-width="1" fill="none" />
<polyline points="150.5,452.0,151.5,455.5,156.5,451.0,156.5,455.0,153.5,456.5,163.0,456.5" stroke="orange" stroke-width="1" fill="none" />
<polyline points="144.5,446.5" stroke="black" stroke-width="1" fill="none" />
<polyline points="152.0,464.5,150.0,462.5,147.5,468.5,157.0,468.0,149.0,473.5,153.0,477.5,153.0,478.5,157.0,484.5" stroke="orange" stroke-width="1" fill="none" />
<polyline points="147.5,473.5" stroke="yellow" stroke-width="1" fill="none" />
<polyline points="142.0,462.5,150.5,462.5,156.0,465.0,156.5,467.5,153.0,468.0" stroke="black" stroke-width="1" fill="none" />
<polyline points="151.0,470.5,139.0,469.0" stroke="black" stroke-width="1" fill="none" />
<polyline points="139.0,455.0,141.0,456.5,136.0,456.5,147.5,462.5,138.5,457.5,144.0,474.0,141.0,473.0,154.0,474.0,157.0,480.0" stroke="green" stroke-width="1" fill="none" />
<polyline points="162.5,474.0,160.0,477.5,155.0,472.5,159.5,472.5,154.0,471.0,145.5,466.5,152.5,461.0,142.5,453.0" stroke="green" stroke-width="1" fill="none" />
<polyline points="148.5,463.0,147.5,454.5,148.0,463.0,142.0,459.0,151.5,475.0,153.0,475.5,149.0,470.5,154.0,481.0,150.5,474.5,160.0,491.5,158.5,491.5,157.0,489.5,164.5,494.5,171.5,504.5" stroke="green" stroke-width="1" fill="none" />
<polyline points="156.5,453.0,160.5,448.0,159.5,449.0,155.5,456.5,154.5,447.0,150.5,446.0,153.0,433.0,145.0,439.5,146.5,430.5,151.5,435.0,145.5,422.0" stroke="green" stroke-width="1" fill="none" />
<polyline points="" stroke="orange" stroke-width="1" fill="none" />
<polyline points="144.5,428.5" stroke="yellow" stroke-width="1" fill="none" />
<polyline points="136.0,417.5,143.5,415.5,147.5,412.0" stroke="black" stroke-width="1" fill="none" />
<polyline points="141.5,410.5,145.0,421.5,142.5,422.0,152.5,425.5,148.5,436.0,155.5,435.0,155.5,433.5,155.0,434.5" stroke="yellow" stroke-width="1" fill="none" />
<polyline points="153.5,423.5,158.5,424.0,152.0,408.5,152.0,411.5,149.0,403.5,147.5,401.5,149.5,395.0,144.5,392.0,144.5,391.0,142.5,394.0,140.0,396.0" stroke="orange" stroke-width="1" fill="none" />
<polyline points="152.5,394.0,151.0,396.5,138.5,400.5" stroke="black" stroke-width="1" fill="none" />
<polyline points="" stroke="yellow" stroke-width="1" fill="none" />
<polyline points="148.0,406.5,142.5,399.5,140.5,398.5,138.5,400.0,126.0,403.0,124.0,400.0,123.0,402.5,122.5,396.0,118.5,394.5" stroke="black" stroke-width="1" fill="none" />
<polyline points="119.0,395.5,122.0,399.5,127.5,393.5,120.0,403.0,133.5,403.5,129.0,404.0,127.5,401.5" stroke="black" stroke-width="1" fill="none" />
<polyline points="119.0,405.5,129.0,412.0,134.5,395.0,137.5,401.0,144.0,388.5,134.0,398.5,139.5,382.0,137.5,379.5,140.0,376.5,144.5,379.5,151.5,368.0,149.5,368.0,145.0,365.0,136.5,352.0,139.0,353.5,144.5,351.0,141.0,348.5,134.0,348.5,133.0,345.5,136.0,335.0,137.5,336.0,133.5,328.5,129.5,317.0,135.5,313.0,127.5,319.0,127.5,307.5,122.0,308.5,127.0,297.0,131.5,294.5,131.0,289.5,136.5,292.0,130.5,282.5,131.5,276.5,127.0,271.5" stroke="orange" stroke-width="1" fill="none" />
<polyline points="124.0,268.5,130.0,276.5,131.5,283.5,131.0,288.0,122.0,289.0,129.5,294.5,123.0,297.5,127.5,293.0,127.0,304.5,121.5,305.5,121.0,316.0,116.0,316.5,121.5,319.0,120.5,321.0,120.0,325.0,119.5,332.0,120.5,331.0,117.5,334.5,123.0,331.5" stroke="black" stroke-width="1" fill="none" />
<polyline points="" stroke="orange" stroke-width="1" fill="none" />
<polyline points="119.5,343.5,115.5,347.0,127.0,360.5,121.5,369.5,115.0,364.5,114.5,367.0,119.0,368.0,112.0,378.0,118.5,385.0,115.5,385.0,118.5,384.5,118.0,398.0,121.5,401.5" stroke="black" stroke-width="1" fill="none" />
<polyline points="122.5,398.0,121.5,394.5,114.0,383.0,122.0,392.0,126.5,385.0,121.5,374.0,123.5,380.5,119.5,373.0,117.0,360.5,121.5,371.5" stroke="orange" stroke-width="1" fill="none" />
<polyline points="125.5,374.0,119.5,385.5,127.0,379.5,126.0,384.0" stroke="yellow" stroke-width="1" fill="none" />
<polyline points="120.5,393.0,120.5,386.5,126.5,397.0,130.0,397.0" stroke="green" stroke-width="1" fill="none" />
<polyline points="129.5,392.5,122.0,389.0,131.0,397.5,142.0,391.0,133.0,390.5,143.0,390.0,139.5,392.0,143.0,396.5,139.0,392.5" stroke="yellow" stroke-width="1" fill="none" />
<polyline points="" stroke="yellow" stroke-width="1" fill="none" />
<polyline points="114.0,401.5,119.5,397.0,121.5,397.5,120.5,397.0,119.0,400.5" stroke="yellow" stroke-width="1" fill="none" />
<polyline points="122.0,409.0,125.0,408.0,127.0,404.5,128.0,416.5,127.0,419.5,132.5,421.5,140.5,424.5,132.0,428.5,136.5,434.0" stroke="green" stroke-width="1" fill="none" />
<polyline points="" stroke="yellow" stroke-width="1" fill="none" />
<polyline points="" stroke="orange" stroke-width="1" fill="none" />
<polyline points="145.5,411.0" stroke="orange" stroke-width="1" fill="none" />
<polyline points="148.0,401.0,144.5,406.0" stroke="black" stroke-width="1" fill="none" />
<polyline points="" stroke="yellow" stroke-width="1" fill="none" />
<polyline points="154.5,396.5,151.5,392.0,151.5,392.5,149.0,392.0" stroke="orange" stroke-width="1" fill="none" />
<polyline points="171.0,405.0,171.5,401.5,174.0,405.0,176.5,409.0,178.5,413.5,173.5,413.5,174.0,414.5,176.0,410.5" stroke="green" stroke-width="1" fill="none" />
<polyline points="149.0,402.0,162.5,404.0,160.0,396.5,140.0,390.0,144.0,390.0,143.0,392.0,141.0,392.0,140.5,389.0,138.5,379.5,137.0,387.5,143.5,381.5,131.0,376.0,138.0,377.0,131.5,368.0,140.5,357.0,137.0,365.0,140.5,356.5,141.0,348.0,142.5,356.0,130.0,338.0,131.0,340.5,124.0,332.0,128.0,334.5,140.5,325.0" stroke="yellow" stroke-width="1" fill="none" />
<polyline points="118.5,326.0,127.5,329.0,122.0,335.5,117.5,345.5,122.5,345.5" stroke="orange" stroke-width="1" fill="none" />
<polyline points="116.5,344.5,121.5,348.5,118.5,352.0,118.5,364.5,117.0,366.0,117.5,379.5,121.5,385.0,124.5,381.5,126.5,383.0,135.0,388.0,132.0,383.5,130.0,398.0,128.5,399.5" stroke="orange" stroke-width="1" fill="none" />
<polyline points="" stroke="orange" stroke-width="1" fill="none" />
<polyline points="" stroke="green" stroke-width="1" fill="none" />
<polyline points="140.0,361.0" stroke="black" stroke-width="1" fill="none" />
<polyline points="" stroke="green" stroke-width="1" fill="none" />
<polyline points="128.5,354.0,133.0,351.5,122.0,358.0,137.0,368.0,133.5,369.0,127.0,374.0" stroke="yellow" stroke-width="1" fill="none" />
<polyline points="145.5,361.0,143.0,360.0,144.0,352.5,144.0,346.5,144.5,346.5,135.0,345.0,138.0,340.0" stroke="orange" stroke-width="1" fill="none" />
<polyline points="139.0,343.0,139.0,345.0,133.5,339.5,134.0,338.0" stroke="green" stroke-width="1" fill="none" />
<polyline points="" stroke="black" stroke-width="1" fill="none" />
<polyline points="131.0,348.0,134.5,343.5,138.5,348.0,142.0,338.5,146.5,337.0" stroke="green" stroke-width="1" fill="none" />
<polyline points="138.0,344.5,132.0,337.5,141.0,345.5,139.0,343.0" stroke="black" stroke-width="1" fill="none" />
<polyline points="124.5,344.0,118.5,352.5,116.5,351.5,118.0,362.5,116.0,367.5,119.0,367.5,115.5,371.0,119.0,376.5,123.0,382.5,121.0,393.5,114.5,395.0,118.5,396.0,118.0,406.5,120.0,396.0,118.5,409.5,113.5,417.0,109.0,412.5,116.5,413.5,116.0,409.0" stroke="yellow" stroke-width="1" fill="none" />
<polyline points="118.0,415.5,118.5,413.5" stroke="black" stroke-width="1" fill="none" />
<polyline points="123.5,422.5,124.0,419.0" stroke="green" stroke-width="1" fill="none" />
<polyline points="130.5,424.0" stroke="yellow" stroke-width="1" fill="none" />
<polyline points="" stroke="green" stroke-width="1" fill="none" />
<polyline points="118.0,439.0,121.5,436.5,111.5,432.0,120.0,431.5,118.0,441.0,125.0,445.0,124.5,440.0,126.5,440.0" stroke="green" stroke-width="1" fill="none" />
<polyline points="119.0,442.0" stroke="green" stroke-width="1" fill="none" />
<polyline points="" stroke="black" stroke-width="1" fill="none" />
<polyline points="127.5,453.5,130.0,451.0,124.5,447.0" stroke="yellow" stroke-width="1" fill="none" />
<polyline points="111.5,451.0,109.5,439.0,104.5,436.5" stroke="orange" stroke-width="1" fill="none" />
<polyline points="103.5,432.0,104.0,431.0" stroke="orange" stroke-width="1" fill="none" />
<polyline points="95.5,460.5,100.0,447.0,92.0,452.0,92.5,453.5" stroke="yellow" stroke-width="1" fill="none" />
<polyline points="81.5,458.5,84.0,457.5,91.5,450.0,90.0,451.0" stroke="green" stroke-width="1" fill="none" />
<polyline points="104.0,462.0,99.0,458.0,99.5,465.0" stroke="yellow" stroke-width="1" fill="none" />
<polyline points="102.0,494.0,102.5,499.5,107.0,505.0,103.5,507.5,111.0,515.0,107.5,511.0,108.0,512.5,104.0,510.0,108.5,505.5" stroke="yellow" stroke-width="1" fill="none" />
<polyline points="112.0,510.5,111.5,512.0,108.5,496.5,107.0,488.0,108.0,489.0,108.5,484.5" stroke="green" stroke-width="1" fill="none" />
<polyline points="121.0,488.5,112.0,498.0,115.5,496.5,117.5,506.0,123.5,513.0,117.5,512.5" stroke="yellow" stroke-width="1" fill="none" />
<polyline points="98.5,503.0,97.0,505.0,99.5,505.5" stroke="black" stroke-width="1" fill="none" />
<polyline points="99.5,498.5,99.5,494.0,96.5,494.0,101.0,506.5,100.5,513.0,107.0,512.0" stroke="green" stroke-width="1" fill="none" />
<polyline points="121.0,509.5,123.0,501.5,122.5,492.5,116.0,493.0,123.0,488.5,120.5,476.5" stroke="orange" stroke-width="1" fill="none" />
<polyline points="125.0,485.5,129.5,490.0,129.0,489.0,126.5,493.5,129.5,498.0,127.5,505.0,126.5,506.5" stroke="black" stroke-width="1" fill="none" />
<polyline points="150.5,439.0,147.5,426.5,146.0,423.5,138.0,415.5,129.0,423.0,135.0,419.5" stroke="black" stroke-width="1" fill="none" />
<polyline points="134.0,424.5,136.0,424.5,131.0,422.5,141.0,431.5,140.5,432.5,142.5,441.5,147.5,448.5,148.0,452.0,142.0,452.0,132.0,459.5,135.0,454.5,132.0,476.0,133.5,459.0,138.5,458.5,138.5,459.5,136.0,461.5,134.0,462.5" stroke="yellow" stroke-width="1" fill="none" />
<polyline points="138.5,444.5,144.5,425.0,135.0,428.5,139.0,425.5" stroke="orange" stroke-width="1" fill="none" />
<polyline points="128.0,429.0,125.5,428.5,125.5,424.5,127.5,415.5,127.5,414.0,132.5,418.0" stroke="yellow" stroke-width="1" fill="none" />
<polyline points="109.5,417.0,116.0,432.0" stroke="yellow" stroke-width="1" fill="none" />
<polyline points="132.5,439.0" stroke="orange" stroke-width="1" fill="none" />
<polyline points="104.5,413.5,100.5,411.0,108.5,419.5,105.5,429.5,107.0,434.0,110.0,433.0,110.0,438.5" stroke="orange" stroke-width="1" fill="none" />
<polyline points="102.5,438.5,94.5,439.0,91.5,443.0,87.5,441.5,91.5,443.5,101.0,438.5,100.0,440.0,102.5,427.0,104.0,429.0,113.5,423.0,112.5,423.5" stroke="green" stroke-width="1" fill="none" />
<polyline points="82.0,421.0,94.0,426.5,88.5,426.5,95.0,428.5,93.0,427.5,97.5,427.5,93.5,427.0" stroke="yellow" stroke-width="1" fill="none" />
<polyline points="87.0,422.5,93.0,420.5,75.5,427.5,86.5,417.5,89.0,418.0,94.5,423.5" stroke="black" stroke-width="1" fill="none" />
<polyline points="97.5,406.0" stroke="black" stroke-width="1" fill="none" />
<polyline points="" stroke="yellow" stroke-width="1" fill="none" />
<polyline points="96.0,391.0,85.0,399.5,100.0,400.0,103.0,395.5,90.5,411.5,89.0,414.0" stroke="yellow" stroke-width="1" fill="none" />
<polyline points="99.5,408.0,99.5,408.5,94.5,407.5,95.0,404.0,96.0,408.0,92.5,403.5,89.5,407.0,99.5,395.5,90.5,393.5,91.0,382.5,78.0,384.5,86.0,390.0,87.5,387.5,86.0,385.5,81.0,382.5" stroke="orange" stroke-width="1" fill="none" />
<polyline points="85.0,395.5,73.0,401.5,69.0,404.0,70.5,400.0,76.0,405.5,67.0,421.5,72.5,419.5,68.0,414.0,69.5,418.5,65.5,423.0,66.5,425.0,78.0,430.0,72.0,433.5,72.0,431.0,70.5,443.5,67.0,443.0,72.5,446.0,72.5,448.0,68.5,454.5,69.0,458.0,73.0,460.0,84.0,459.5,71.0,472.0,58.5,480.5,70.0,485.0,63.0,479.5,64.0,488.0,71.0,494.5,64.0,497.0,69.5,501.0,63.0,500.0,66.5,505.0,65.5,512.0,55.5,514.0,67.0,504.5,58.5,506.5" stroke="black" stroke-width="1" fill="none" />
<polyline points="62.5,505.5,68.5,502.0" stroke="green" stroke-width="1" fill="none" />
<polyline points="73.0,487.0,72.5,487.0,74.0,486.5" stroke="green" stroke-width="1" fill="none" />
<polyline points="66.0,479.0,67.5,474.5,61.5,477.0,67.0,482.5,68.0,486.0,66.5,482.5,66.0,490.5,66.5,498.0,68.0,494.5,69.5,489.5" stroke="green" stroke-width="1" fill="none" />
<polyline points="66.5,464.5,64.5,469.0,74.0,457.0,81.0,457.0,80.5,449.0,80.5,447.5" stroke="orange" stroke-width="1" fill="none" />
<polyline points="" stroke="orange" stroke-width="1" fill="none" />
<polyline points="73.0,451.5,78.0,455.5" stroke="green" stroke-width="1" fill="none" />
<polyline points="64.5,450.5,65.0,467.0,65.5,461.5,61.0,465.0,65.0,460.0,68.0,473.0,72.0,475.0,72.0,483.5,73.5,486.0" stroke="yellow" stroke-width="1" fill="none" />
<polyline points="30.5,491.5,27.0,502.0" stroke="yellow" stroke-width="1" fill="none" />
<polyline points="20.0,503.5,14.5,496.0,17.5,505.0,18.0,502.0,17.0,505.0,16.0,511.0,13.5,515.5" stroke="yellow" stroke-width="1" fill="none" />
<polyline points="14.0,499.0" stroke="orange" stroke-width="1" fill="none" />
<polyline points="" stroke="black" stroke-width="1" fill="none" />
<polyline points="15.5,418.0,11.0,418.0,8.0,425.0,10.5,420.5,0.5,431.0,10.0,432.5,11.0,440.5,12.0,444.0,11.5,446.0,16.0,442.5,10.0,446.5,17.5,453.5,14.0,454.5,13.0,463.0,11.0,459.5,19.5,474.5,15.5,467.5" stroke="yellow" stroke-width="1" fill="none" />
<polyline points="32.5,463.5,33.0,454.5,31.5,461.5,26.0,458.5,32.0,443.0,32.0,442.0,31.5,439.5" stroke="green" stroke-width="1" fill="none" />
<polyline points="29.0,418.5,26.5,415.0,29.5,414.0" stroke="green" stroke-width="1" fill="none" />
<polyline points="25.5,413.0,26.5,421.0,17.5,420.0,20.0,430.0,19.0,429.0,21.5,444.5,32.0,441.0,16.5,441.0,28.0,447.0,25.5,451.0,30.5,449.0,19.0,458.5,28.0,459.0,28.0,459.5,24.0,472.5,30.0,477.0,33.0,475.5,24.0,475.5,30.0,485.0,25.0,490.0,22.5,495.5,31.5,501.5,32.0,496.5" stroke="orange" stroke-width="1" fill="none" />
<polyline points="60.0,435.0,64.5,430.5,68.5,438.5,72.0,434.0" stroke="orange" stroke-width="1" fill="none" />
<polyline points="71.0,423.5,70.5,426.0,68.0,426.5,66.5,420.5,65.0,415.0,67.0,418.5,61.0,405.0,67.0,402.0,78.0,398.0,73.0,395.5,79.0,393.0,63.5,403.0,73.5,399.0" stroke="green" stroke-width="1" fill="none" />
<polyline points="75.5,401.0" stroke="yellow" stroke-width="1" fill="none" />
<polyline points="" stroke="yellow" stroke-width="1" fill="none" />
<polyline points="69.5,415.5,74.0,404.0,67.0,406.0,72.0,415.0,65.0,421.5,59.5,425.5,66.5,424.5" stroke="black" stroke-width="1" fill="none" />
<polyline points="71.5,420.0,74.5,416.0,69.0,422.0,75.5,423.5" stroke="orange" stroke-width="1" fill="none" />
<polyline points="100.0,442.0,97.5,437.0,102.0,437.0,100.5,440.0,96.5,441.0" stroke="yellow" stroke-width="1" fill="none" />
<polyline points="" stroke="black" stroke-width="1" fill="none" />
<polyline points="102.5,399.0,112.0,409.0,106.5,410.0,96.5,414.0,92.0,420.0,96.0,417.5" stroke="black" stroke-width="1" fill="none" />
<polyline points="93.0,407.5,103.5,396.0,107.5,401.0,100.5,398.5,100.5,394.5,99.0,398.0,96.0,399.5" stroke="black" stroke-width="1" fill="none" />
<polyline points="97.5,369.0,103.5,372.0,107.5,379.0,101.0,366.5,106.0,363.5,104.0,359.0,110.0,356.5,108.5,355.0,108.0,360.5,107.0,352.0,106.5,341.5,107.0,335.0,104.0,336.5" stroke="green" stroke-width="1" fill="none" />
<polyline points="110.5,340.5,100.5,331.0,103.0,335.5,104.0,335.0,102.0,336.0" stroke="orange" stroke-width="1" fill="none" />
<polyline points="" stroke="green" stroke-width="1" fill="none" />
<polyline points="102.5,325.0,108.5,307.0,118.0,312.5,123.5,308.0,125.0,306.5,124.5,311.5,114.5,317.5,112.0,323.0,105.5,311.5,104.0,310.0,115.0,311.5,111.0,321.0,101.0,318.0,102.5,317.5,111.0,318.0,113.0,311.5,120.5,303.5,117.0,299.0,118.5,302.5,120.0,297.0" stroke="black" stroke-width="1" fill="none" />
<polyline points="118.0,309.5,123.0,312.5,122.0,312.0,118.0,319.5,111.5,324.5,117.5,323.5,109.5,327.0,107.5,332.0,97.0,340.0,89.5,340.0,100.5,347.0,90.0,335.5" stroke="black" stroke-width="1" fill="none" />
<polyline points="" stroke="green" stroke-width="1" fill="none" />
<polyline points="95.0,364.5,96.0,368.5,94.0,374.5,98.5,374.5,92.0,386.0,88.5,393.5,86.0,394.0,92.0,390.5,89.0,386.5,88.0,401.0,92.5,404.0,90.0,409.5,93.5,413.0,89.5,413.5,104.5,404.5,108.5,419.0,105.5,407.0,115.5,400.5" stroke="green" stroke-width="1" fill="none" />
<polyline points="122.5,361.5,123.0,362.5" stroke="orange" stroke-width="1" fill="none" />
<polyline points="122.0,370.5,120.5,370.5,131.0,384.5,130.0,385.0,130.0,383.5,126.0,387.0,133.0,396.0,131.5,399.5,135.0,395.0" stroke="black" stroke-width="1" fill="none" />
<polyline points="122.5,369.5,119.5,359.0,122.0,359.5,120.5,356.5,118.5,356.5" stroke="green" stroke-width="1" fill="none" />
<polyline points="128.0,374.0,118.5,374.0,125.5,375.0,132.0,381.5,132.5,381.0" stroke="orange" stroke-width="1" fill="none" />
<polyline points="128.5,366.0,127.5,363.5,126.5,364.5" stroke="orange" stroke-width="1" fill="none" />
<polyline points="125.5,364.0,130.0,359.0,132.0,373.5,136.5,371.5,138.5,367.0" stroke="black" stroke-width="1" fill="none" />
<polyline points="176.5,366.5,176.0,356.0,180.5,354.0,179.0,344.5,186.0,342.5,183.5,336.5" stroke="green" stroke-width="1" fill="none" />
<polyline points="187.0,329.0,177.0,339.5,169.5,341.5,163.5,347.0,168.0,353.0,161.0,357.0,159.0,370.5,161.0,366.0,162.5,371.0,165.5,356.5,176.5,357.0,178.0,351.0,173.5,346.5,180.0,337.0,189.0,340.5,190.5,330.0,188.5,336.5,190.0,326.5,191.0,328.5,190.0,331.0,193.5,333.5" stroke="black" stroke-width="1" fill="none" />
<polyline points="188.0,344.0,189.0,341.0,183.5,345.5" stroke="black" stroke-width="1" fill="none" />
<polyline points="195.5,365.0,195.0,349.0,190.0,352.5,192.5,343.5" stroke="black" stroke-width="1" fill="none" />
<polyline points="163.5,357.5,166.0,366.5,166.5,355.0,170.0,359.5,170.0,366.5" stroke="black" stroke-width="1" fill="none" />
<polyline points="161.0,368.0,164.0,368.0,161.0,359.0,165.5,362.5,158.0,367.5,156.0,367.0,161.0,363.0,169.0,351.0,170.5,353.0,173.5,347.0,176.0,342.5,177.0,337.5,179.0,337.5,186.0,333.0,176.5,331.5,164.0,325.0,168.5,337.5,164.0,343.5,163.0,340.0,161.0,333.0,165.5,333.0,166.0,332.0,168.5,327.5" stroke="black" stroke-width="1" fill="none" />
<polyline points="168.0,340.0,169.5,333.5,168.0,343.5,169.0,339.0,173.5,332.5,169.0,326.0,174.0,323.0" stroke="green" stroke-width="1" fill="none" />
<polyline points="" stroke="orange" stroke-width="1" fill="none" />
<polyline points="169.0,331.0,167.0,319.0,164.0,323.0,155.0,328.5,147.5,341.5,154.0,345.5,155.0,336.0,140.5,350.0,141.5,336.0,142.0,337.5,135.5,340.0,132.5,332.5,139.0,327.5,136.5,320.0,134.5,315.5,125.5,306.5,130.0,314.5,132.0,303.5,131.0,303.5,130.0,301.0,131.0,299.0,140.0,291.0,143.5,293.0,136.0,283.5,133.5,278.5,133.5,276.5,134.0,284.5,139.5,283.5,136.0,281.0,145.0,281.0,142.5,272.5,134.5,276.5,152.0,266.5,156.0,248.5,155.0,253.0,165.0,250.5,160.5,242.5,163.5,242.0,151.5,249.5,152.5,249.5" stroke="green" stroke-width="1" fill="none" />
<polyline points="147.5,251.0,147.5,249.5" stroke="black" stroke-width="1" fill="none" />
<polyline points="144.5,249.0,145.5,252.0,143.0,249.5,156.0,254.0,148.0,260.0" stroke="yellow" stroke-width="1" fill="none" />
<polyline points="145.0,267.0,139.5,269.0,132.0,277.5,135.0,270.5,137.5,275.5,131.5,275.0,134.5,273.5" stroke="black" stroke-width="1" fill="none" />
<polyline points="155.5,267.5,151.0,268.0,158.5,262.5,159.5,256.0,157.5,263.0,156.5,263.0,150.0,267.5,151.0,272.5,147.0,275.5,147.0,275.0,144.5,291.5,153.0,289.0,155.5,286.5,159.0,286.0,160.5,287.0,163.0,300.0,161.5,303.5,157.0,302.5,165.5,308.5,166.0,317.5,159.0,318.0,159.0,319.0,163.0,317.5,165.5,317.5,168.0,313.0,167.5,309.0,172.5,305.0,173.5,294.5,185.5,289.5,182.5,292.5,185.0,293.5" stroke="black" stroke-width="1" fill="none" />
<polyline points="177.0,300.0,181.0,299.0,180.0,299.0" stroke="orange" stroke-width="1" fill="none" />
<polyline points="" stroke="green" stroke-width="1" fill="none" />
<polyline points="178.5,296.5,172.0,306.5,176.5,304.0,184.5,304.0,176.0,309.5,177.0,310.5,182.5,315.0" stroke="yellow" stroke-width="1" fill="none" />
<polyline points="168.5,310.5,170.5,310.0" stroke="orange" stroke-width="1" fill="none" />
<polyline points="165.0,305.5,165.0,297.0,174.5,298.5,177.0,296.0,172.0,285.0,169.5,288.0,173.5,296.5,162.5,301.5,164.5,286.5,168.0,284.5,178.5,285.0,175.0,279.5,177.5,285.5,163.5,279.0,167.0,285.0,165.5,289.5,166.0,284.5,169.0,297.5,161.0,273.5,167.5,280.0,163.0,276.0,164.5,270.5,164.5,263.0,171.0,266.0,172.0,260.0,171.5,262.0,170.5,255.5,173.5,245.5,178.0,248.0,172.0,236.0,175.0,238.5,178.0,232.5,179.5,239.5,175.0,240.5" stroke="yellow" stroke-width="1" fill="none" />
<polyline points="183.0,226.0,184.5,235.5,178.0,245.0,177.5,242.0,181.5,245.0,176.0,249.5,173.5,249.0,188.5,257.0,184.5,253.0" stroke="black" stroke-width="1" fill="none" />
<polyline points="185.5,250.0,193.5,252.5,188.5,250.5,184.0,252.5,185.0,251.0" stroke="yellow" stroke-width="1" fill="none" />
<polyline points="225.0,272.5,230.5,270.5,222.0,276.5,232.5,274.0,235.5,270.5,233.5,269.5" stroke="black" stroke-width="1" fill="none" />
<polyline points="213.0,323.0,218.5,322.0,215.0,328.5,216.0,326.0,217.0,331.0,217.0,334.5,225.5,343.5,215.0,348.0,220.5,342.5,216.0,360.5,215.5,359.0" stroke="yellow" stroke-width="1" fill="none" />
<polyline points="255.5,380.5,253.5,384.5,252.5,376.5,258.0,389.0,261.5,376.5,268.5,389.5,264.0,381.0" stroke="black" stroke-width="1" fill="none" />
<polyline points="267.0,387.0,265.5,381.5,251.5,390.5,258.0,397.0,259.0,394.0,245.5,392.0,246.5,393.5,249.5,391.5,239.0,394.0,239.0,395.0" stroke="orange" stroke-width="1" fill="none" />
<polyline points="277.5,348.0,272.5,351.0,273.5,351.5" stroke="black" stroke-width="1" fill="none" />
<polyline points="277.5,350.5,276.0,349.0,277.5,349.0,280.0,347.0,276.0,348.0" stroke="yellow" stroke-width="1" fill="none" />
<polyline points="219.0,361.0,219.0,355.0,220.0,347.5,223.0,352.5,220.0,342.0,224.5,334.5,221.5,332.0,223.0,325.5,224.5,324.5,218.0,312.5,218.5,314.0,221.5,315.0,214.5,307.0,221.0,303.5,215.5,313.5" stroke="green" stroke-width="1" fill="none" />
<polyline points="173.5,290.0,174.5,291.5,171.5,291.5,170.0,289.5" stroke="orange" stroke-width="1" fill="none" />
<polyline points="175.0,298.5,177.5,302.5,178.5,309.5,174.0,309.5" stroke="black" stroke-width="1" fill="none" />
<polyline points="160.5,313.0,164.0,311.0,157.0,308.5,154.0,308.0,152.0,312.5,155.0,313.0" stroke="yellow" stroke-width="1" fill="none" />
<polyline points="160.5,316.0,165.0,308.5,163.5,311.5" stroke="orange" stroke-width="1" fill="none" />
<polyline points="164.5,312.5,162.5,315.5,159.0,315.0,157.5,318.0" stroke="black" stroke-width="1" fill="none" />
<polyline points="156.0,295.5" stroke="black" stroke-width="1" fill="none" />
<polyline points="" stroke="orange" stroke-width="1" fill="none" />
<polyline points="163.5,290.5,144.5,288.5" stroke="green" stroke-width="1" fill="none" />
<polyline points="152.0,284.5,150.5,285.0" stroke="green" stroke-width="1" fill="none" />
<polyline points="175.5,292.5,174.0,293.0,176.0,298.0,169.5,291.0" stroke="green" stroke-width="1" fill="none" />
<polyline points="181.0,298.5,175.0,300.5,171.5,310.5,170.5,308.5,168.5,305.0" stroke="green" stroke-width="1" fill="none" />
<polyline points="155.5,294.0,158.5,293.5" stroke="black" stroke-width="1" fill="none" />
<polyline points="161.0,289.0,166.5,293.0,164.0,297.5,172.5,295.0" stroke="black" stroke-width="1" fill="none" />
<polyline points="172.0,283.5,178.0,297.5,169.5,296.5,172.5,304.0,167.0,313.5,167.0,311.5,167.0,310.0,160.5,318.0,171.5,316.0,169.0,316.5,168.0,330.0,162.5,334.0,154.5,333.0,158.5,339.0,158.5,337.5,154.5,347.5,145.0,353.0,154.0,356.0,147.5,355.5,145.0,348.0,144.5,346.0,153.5,353.0,157.0,356.0,165.0,345.5,161.0,340.0,160.5,344.0,163.0,344.0" stroke="yellow" stroke-width="1" fill="none" />
<polyline points="" stroke="orange" stroke-width="1" fill="none" />
<polyline points="160.0,286.0,157.5,276.5,167.0,277.0,169.5,275.0,161.5,266.5,152.5,264.0,161.5,261.0,157.5,255.5" stroke="orange" stroke-width="1" fill="none" />
<polyline points="167.0,262.0,172.0,261.5,170.5,266.5,166.0,275.5,167.5,280.5,167.0,275.5,169.5,277.0" stroke="black" stroke-width="1" fill="none" />
<polyline points="" stroke="yellow" stroke-width="1" fill="none" />
<polyline points="144.0,281.0,155.0,282.0,152.5,273.0,159.0,278.5,158.0,280.5,159.0,288.0,165.5,277.0,167.5,282.5,159.5,286.5,179.5,280.5,172.0,291.5,172.5,282.0,179.0,285.0" stroke="black" stroke-width="1" fill="none" />
<polyline points="169.0,293.0,170.0,291.5,163.0,293.5,172.0,287.5,163.0,289.0,167.0,289.5" stroke="orange" stroke-width="1" fill="none" />
<polyline points="159.5,287.5,167.5,283.5,158.0,295.0,163.5,288.0,164.5,287.5,160.0,288.0,158.5,285.0" stroke="green" stroke-width="1" fill="none" />
<polyline points="149.0,294.0,155.5,291.5,154.5,275.0,155.5,277.0,151.5,270.5,150.5,263.5,158.5,262.5,168.5,269.0,165.5,248.5,168.5,258.0,166.0,247.0,162.0,246.0,166.5,243.5,162.0,238.0,165.5,249.5,158.0,255.5,156.5,248.5,145.5,256.0,143.0,262.0,148.0,252.5,139.5,270.0,135.0,259.0,138.0,265.0,126.0,257.5,130.0,272.0,133.0,275.5,137.5,262.0,134.0,253.5,141.0,252.0,131.0,254.5,133.5,243.0,141.5,242.0,135.5,245.5,139.0,238.0,145.0,228.0,135.5,231.5,137.0,224.0,138.0,227.5,133.5,221.0,137.0,215.5,122.5,216.5,129.5,201.0,119.5,200.0,129.0,203.0,117.5,198.0,123.5,189.5,122.0,176.5,119.0,181.0,118.5,179.5,119.0,175.0,119.0,164.0,121.5,162.5,121.0,163.0,117.0,147.0,120.5,144.5,119.5,144.5,122.0,138.5,123.0,138.0,121.0,133.5,124.0,133.5,129.0,125.5,131.5,126.0,128.0,114.5,133.5,119.0,133.0,105.5,138.5,115.0,135.0,97.5,141.0,101.5,138.5,106.5,141.5,97.0,141.0,98.0,136.5,105.5" stroke="green" stroke-width="1" fill="none" />
<polyline points="134.5,104.5,137.5,111.0,141.5,109.0,139.5,118.5,131.5,129.0,126.5,122.0,134.5,136.0,135.0,135.0,127.5,136.5,140.0,138.5,138.0,151.5,133.0,146.5,129.0,143.5,128.0,148.0,127.5,151.5,128.5,151.5,124.0,159.0" stroke="black" stroke-width="1" fill="none" />
<polyline points="125.0,152.5,138.0,153.0,133.5,155.0,128.5,158.0,125.5,165.0,128.0,166.5,126.0,170.5,131.5,163.0,125.5,160.5,130.0,166.0,128.5,168.5,130.0,172.5,132.5,171.0" stroke="black" stroke-width="1" fill="none" />
<polyline points="140.5,181.5,143.0,183.0,124.0,180.0,131.5,180.0,139.0,175.0,137.0,173.5,137.5,175.5" stroke="black" stroke-width="1" fill="none" />
<polyline points="130.0,176.0,136.5,174.0,133.0,177.0,143.5,176.0,132.0,171.5,137.0,170.5,133.0,171.0" stroke="green" stroke-width="1" fill="none" />
<polyline points="140.0,177.0,140.5,177.5,136.0,178.0" stroke="orange" stroke-width="1" fill="none" />
<polyline points="132.5,172.0,134.5,179.5,133.5,172.5,142.0,172.5,133.0,167.5" stroke="orange" stroke-width="1" fill="none" />
<polyline points="139.0,179.5,145.5,177.5,142.5,191.5,135.0,184.5,143.5,202.5,138.0,195.0,140.5,195.5,145.5,192.0,150.5,196.0,146.0,203.5" stroke="green" stroke-width="1" fill="none" />
<polyline points="153.5,199.5,151.0,196.5" stroke="green" stroke-width="1" fill="none" />
<polyline points="153.0,196.0,152.0,187.0,148.0,192.0,147.0,188.5" stroke="black" stroke-width="1" fill="none" />
<polyline points="" stroke="green" stroke-width="1" fill="none" />
<polyline points="153.5,201.5,152.0,193.5,146.0,195.0,150.0,194.0,145.5,185.0,141.0,193.5,150.5,176.0,149.0,182.5,142.0,184.5" stroke="orange" stroke-width="1" fill="none" />
<polyline points="135.0,175.5,148.5,181.5,149.5,192.5,152.5,184.5,146.5,193.5,135.5,184.0" stroke="yellow" stroke-width="1" fill="none" />
<polyline points="151.0,188.5,149.0,186.5" stroke="yellow" stroke-width="1" fill="none" />
<polyline points="160.5,176.0,164.0,178.0,171.5,180.0,178.0,169.0,169.5,162.5,177.0,168.5,183.0,158.0,188.5,160.5,189.0,151.5,195.0,152.0,202.5,152.5,200.0,146.0" stroke="orange" stroke-width="1" fill="none" />
<polyline points="207.0,151.5,205.5,154.5,213.5,155.5" stroke="yellow" stroke-width="1" fill="none" />
<polyline points="219.5,155.0,227.0,156.0,223.5,155.5,219.0,155.5,217.5,158.0,215.5,157.0,216.0,159.5" stroke="yellow" stroke-width="1" fill="none" />
<polyline points="221.0,149.0,218.5,145.0,222.5,153.0,220.0,160.0" stroke="orange" stroke-width="1" fill="none" />
<polyline points="222.5,179.0,225.5,165.5,222.0,174.0,215.5,187.0,214.5,191.5,213.0,188.5,211.0,185.0,204.5,192.5,202.5,193.0" stroke="green" stroke-width="1" fill="none" />
<polyline points="216.5,188.5,216.5,186.0,209.5,189.5,223.0,179.0,220.0,173.0,226.0,179.5,234.5,173.0,231.0,173.5,243.0,165.0,246.5,172.5,242.0,177.0,234.5,176.0,239.0,183.0,234.5,173.0,236.0,177.0" stroke="green" stroke-width="1" fill="none" />
<polyline points="233.5,184.0,231.5,187.5,234.0,184.5,225.5,191.5,223.5,198.0,221.5,194.0,215.5,205.5,204.0,213.5,202.5,210.0,202.5,216.5,203.0,220.5,201.0,225.5,205.0,228.5,211.5,233.5,208.5,235.5,211.0,232.5,212.5,232.0" stroke="orange" stroke-width="1" fill="none" />
<polyline points="206.0,203.0,213.0,208.5,214.0,195.0,215.5,190.5,217.5,194.5,228.5,193.5,230.0,184.0" stroke="black" stroke-width="1" fill="none" />
<polyline points="224.0,193.5,211.0,202.0,215.0,203.5,212.0,200.0,211.0,204.0,201.5,206.5,209.0,199.0,213.0,198.5,216.0,196.5,223.5,196.5,225.5,200.5,230.0,190.5,229.5,192.0,227.5,195.0" stroke="yellow" stroke-width="1" fill="none" />
<polyline points="220.0,197.5,217.0,193.0,226.0,197.0,226.5,195.5,223.0,196.5" stroke="black" stroke-width="1" fill="none" />
<polyline points="214.5,179.0,220.5,186.0,222.0,186.5" stroke="orange" stroke-width="1" fill="none" />
<polyline points="227.5,177.5,226.5,182.0,221.0,186.0,225.5,195.0,220.5,197.5,206.0,194.5" stroke="orange" stroke-width="1" fill="none" />
<polyline points="209.0,203.5" stroke="orange" stroke-width="1" fill="none" />
<polyline points="" stroke="orange" stroke-width="1" fill="none" />
<polyline points="206.0,202.0,195.0,202.5,204.0,197.5,187.5,198.5,191.0,206.0,196.0,196.5,185.0,207.5,185.5,208.0,189.5,198.0,186.5,192.5,191.0,191.5" stroke="yellow" stroke-width="1" fill="none" />
<polyline points="188.0,200.0" stroke="green" stroke-width="1" fill="none" />
<polyline points="187.0,205.0,191.0,209.0,197.0,210.0,189.5,219.0,183.5,216.0,188.5,225.5,192.0,215.5,191.5,211.5,186.5,207.0" stroke="orange" stroke-width="1" fill="none" />
<polyline points="" stroke="black" stroke-width="1" fill="none" />
<polyline points="180.0,215.5,175.5,212.0,186.5,213.5,184.0,215.0,185.0,216.5" stroke="black" stroke-width="1" fill="none" />
<polyline points="172.0,215.0" stroke="yellow" stroke-width="1" fill="none" />
<polyline points="169.0,217.0,164.0,225.0,173.5,229.0" stroke="yellow" stroke-width="1" fill="none" />
<polyline points="184.5,220.5,179.5,227.0,170.0,224.5,157.0,229.5,177.5,235.5,170.0,235.5,168.5,232.0,164.0,232.0" stroke="green" stroke-width="1" fill="none" />
<polyline points="173.5,242.0,163.5,252.0,172.0,246.5,165.0,249.5,168.0,250.0" stroke="green" stroke-width="1" fill="none" />
<polyline points="162.0,256.0,154.5,262.5,153.5,258.5,150.0,271.0,132.0,262.5,133.0,273.5,132.5,276.0,131.0,272.0,123.0,274.0,116.5,267.0,112.5,260.0,122.0,262.0,113.5,265.5" stroke="black" stroke-width="1" fill="none" />
<polyline points="116.5,270.0,113.0,262.0" stroke="yellow" stroke-width="1" fill="none" />
<polyline points="114.5,273.5,110.5,270.5,116.5,277.0,120.0,277.0,104.0,284.0,106.0,285.5,107.5,301.5,106.5,298.0,97.5,303.5,87.0,311.5,89.0,310.0,87.5,311.5,81.5,325.0,81.5,325.5,85.5,339.5,85.0,336.5,89.0,340.5,81.0,340.5,86.0,351.0,87.5,349.5,74.0,355.5,76.5,356.0,72.5,358.0,64.5,358.0,70.5,361.0,65.5,356.0,73.0,349.5,75.5,343.5,88.0,333.5,85.5,333.5,94.0,328.5" stroke="black" stroke-width="1" fill="none" />
<polyline points="92.0,325.0,91.5,326.5,100.0,328.5,94.0,321.0,91.5,332.5,84.0,330.0,90.0,337.5,81.0,336.0,82.5,345.5,77.0,345.5,72.5,349.5,67.0,360.0,61.5,360.0,61.0,364.5,61.0,366.0,70.0,365.5,67.5,357.5,72.0,344.5,79.5,347.5,85.0,339.5,89.0,336.0,84.0,344.0,93.0,343.5,89.0,348.0,87.0,350.0,87.0,357.0,75.5,354.5,85.0,371.5,80.5,366.0,80.0,370.0,87.5,372.5,82.0,371.0,86.0,352.0,92.5,356.5,95.0,346.5" stroke="orange" stroke-width="1" fill="none" />
<polyline points="105.0,349.0,96.0,355.5,103.5,359.5,100.5,368.0,100.0,365.0,96.5,376.5,101.0,375.0,102.0,377.5,103.5,373.5" stroke="black" stroke-width="1" fill="none" />
<polyline points="108.0,370.5,112.5,363.0,102.5,359.5,104.0,359.0,101.0,360.5,101.5,356.0" stroke="black" stroke-width="1" fill="none" />
<polyline points="107.0,364.0,108.5,365.5,113.5,362.5,105.5,362.0,111.0,365.0,111.0,366.0" stroke="green" stroke-width="1" fill="none" />
<polyline points="109.5,358.0" stroke="orange" stroke-width="1" fill="none" />
<polyline points="124.5,353.0,123.5,359.5,127.0,361.0,135.0,354.5,132.5,370.5" stroke="green" stroke-width="1" fill="none" />
<polyline points="" stroke="yellow" stroke-width="1" fill="none" />
<polyline points="79.5,367.5,75.5,365.5,82.5,361.0,85.5,351.0,86.5,348.0,92.0,347.5,80.5,355.5,77.5,354.0,72.5,365.0,76.0,359.5,75.5,375.0,82.0,371.0,77.5,368.0,78.0,368.5,81.5,367.5" stroke="green" stroke-width="1" fill="none" />
<polyline points="83.5,387.0,79.0,381.5,74.0,389.5,70.0,393.0,60.5,389.5,60.0,398.5,49.0,397.5,59.5,405.5,62.0,394.0,75.5,390.5,79.5,385.5,73.0,382.0,75.5,384.0,69.5,380.5,63.0,392.5,67.0,395.5,67.5,392.0,55.0,406.0,68.0,400.0,68.0,395.5,71.0,385.0,80.5,382.5,84.0,383.5,85.5,370.0,93.5,371.5,85.5,364.5,82.0,363.0,91.5,350.5,92.5,360.0,90.0,347.5,91.5,351.0,96.5,355.0,97.5,342.0,96.5,348.0,98.5,347.0,86.5,362.0,96.0,344.0,93.0,338.0,98.5,342.0,100.5,330.5,95.5,326.5,98.0,325.0,95.5,317.5,95.5,316.0,97.5,310.0,97.5,308.5,101.5,303.5,103.5,295.5,107.0,310.0,94.5,315.5,101.0,320.0,96.0,316.5,96.0,314.0" stroke="green" stroke-width="1" fill="none" />
<polyline points="84.0,313.5,86.0,312.0,89.5,313.5,90.0,314.5,83.5,306.0,95.5,305.0,99.0,302.5,115.5,292.0,106.5,292.0,109.0,289.5,114.5,287.5,115.0,288.5" stroke="orange" stroke-width="1" fill="none" />
<polyline points="85.5,306.0,91.0,300.0,90.5,309.5,86.0,305.5,84.0,303.5,81.5,304.0" stroke="orange" stroke-width="1" fill="none" />
<polyline points="103.0,297.5,103.5,299.0,85.0,295.0,92.0,300.0,82.5,300.5,80.0,294.5,93.5,296.5" stroke="black" stroke-width="1" fill="none" />
<polyline points="87.5,295.5,88.0,294.0,86.0,293.0,91.5,290.5,100.0,296.0,91.0,289.0,102.5,292.0,103.0,288.0,101.5,292.5" stroke="orange" stroke-width="1" fill="none" />
<polyline points="105.5,280.5,100.0,276.5,108.0,275.0,114.5,273.0,115.5,273.0" stroke="yellow" stroke-width="1" fill="none" />
<polyline points="109.5,269.0,106.5,265.5,109.0,268.0,105.0,283.5,105.0,278.5,94.0,278.0,88.5,286.5,95.5,288.5,93.5,282.0,107.0,275.5,97.5,280.0,118.5,292.0,115.5,282.5,124.5,291.0,119.5,292.5,123.5,291.0" stroke="orange" stroke-width="1" fill="none" />
<polyline points="118.0,280.5,112.5,284.0,105.0,286.0,100.5,289.5,96.5,282.5,98.5,289.5,86.0,292.5,88.0,294.5,94.5,291.5" stroke="yellow" stroke-width="1" fill="none" />
<polyline points="88.0,273.5,95.5,279.5,95.0,269.0,99.0,260.5,114.0,262.5,96.5,267.5,96.5,272.0,97.5,280.5,88.5,284.5,90.5,282.0,95.5,274.0,104.5,278.0,97.0,279.0,107.0,278.5,109.5,280.5,109.0,289.5,118.5,272.0,116.0,280.5,133.5,272.0,134.0,268.5,134.0,265.0" stroke="yellow" stroke-width="1" fill="none" />
<polyline points="128.0,266.0,124.5,269.0,131.5,266.0,125.5,270.5,116.0,275.5,101.5,291.5,96.0,290.0,95.5,301.0,97.5,294.0,86.5,313.5,78.0,312.0,86.5,307.0,83.0,314.0,70.0,320.5,80.0,315.0,79.0,313.0,78.5,310.5,76.0,310.5" stroke="green" stroke-width="1" fill="none" />
<polyline points="" stroke="yellow" stroke-width="1" fill="none" />
<polyline points="130.0,301.5,124.0,309.5,121.0,307.0,119.5,314.0,115.0,311.5,118.0,331.0,109.0,314.0,98.5,326.5,103.5,329.0" stroke="orange" stroke-width="1" fill="none" />
<polyline points="75.5,322.0,66.5,323.0,68.0,323.5,66.0,322.5,77.0,328.5,74.5,314.5,71.5,307.5,74.0,311.0,78.5,307.0,78.0,307.5,76.0,308.0" stroke="yellow" stroke-width="1" fill="none" />
<polyline points="" stroke="yellow" stroke-width="1" fill="none" />
<polyline points="79.5,307.0,76.0,310.5,78.5,310.5,87.5,306.5,93.5,301.5,96.5,299.0" stroke="green" stroke-width="1" fill="none" />
<polyline points="95.5,313.5,98.0,324.5,105.0,314.5,104.5,317.0,104.5,304.5,108.0,304.0,100.0,308.0" stroke="orange" stroke-width="1" fill="none" />
<polyline points="104.0,286.0,106.5,287.5,109.0,288.5,104.0,291.0,99.5,288.0,104.0,285.0,99.0,282.5,103.0,291.0,107.0,289.0,107.0,286.0" stroke="orange" stroke-width="1" fill="none" />
<polyline points="107.0,290.0,106.0,287.0,99.5,291.0,107.5,289.0,106.5,286.5" stroke="black" stroke-width="1" fill="none" />
<polyline points="84.5,273.0,87.5,278.0,90.0,275.0" stroke="green" stroke-width="1" fill="none" />
<polyline points="114.5,294.5,121.0,293.0,115.5,294.5,109.0,305.0,100.5,306.5,99.5,309.0,99.0,318.5,95.5,319.0,103.0,325.0,103.0,333.0,102.0,329.5,97.5,342.5,92.0,346.0,100.0,338.5,102.0,335.5,105.0,333.5,111.0,330.0,114.0,316.5,123.5,304.0,115.5,296.0,125.0,297.0,125.5,303.5,132.5,313.0" stroke="green" stroke-width="1" fill="none" />
<polyline points="126.0,319.0,133.5,317.5,132.0,321.5,128.5,332.0,135.5,333.5,131.0,332.5" stroke="black" stroke-width="1" fill="none" />
<polyline points="121.0,311.0,128.0,314.0,119.0,320.0,126.5,331.0,107.5,328.5,112.5,341.5,107.5,347.0,101.5,335.5,102.5,343.0,92.0,344.5,97.0,349.5,98.0,351.5,91.5,353.0,97.5,358.0,95.5,368.5,93.0,363.5,90.5,365.0,91.0,379.0,94.0,385.5,93.5,382.5" stroke="yellow" stroke-width="1" fill="none" />
<polyline points="83.0,390.0,85.0,391.0,81.5,392.5,79.0,404.0,81.0,404.5,74.0,413.5,68.0,409.0" stroke="orange" stroke-width="1" fill="none" />
<polyline points="" stroke="black" stroke-width="1" fill="none" />
<polyline points="123.0,284.5,123.5,293.5,129.0,294.5,125.5,296.0,113.0,305.5,108.5,307.0,103.0,316.5,114.0,301.5,102.5,296.0,114.5,301.5,118.0,299.5,122.5,294.5" stroke="green" stroke-width="1" fill="none" />
<polyline points="" stroke="black" stroke-width="1" fill="none" />
<polyline points="" stroke="green" stroke-width="1" fill="none" />
<polyline points="135.0,235.5,141.5,238.0,139.5,243.5,136.5,245.0,148.0,241.5,151.5,245.5" stroke="black" stroke-width="1" fill="none" />
<polyline points="143.0,252.0,151.5,243.5,142.5,237.5,135.5,242.0,137.0,247.0,140.0,249.0,140.5,244.5" stroke="green" stroke-width="1" fill="none" />
<polyline points="142.0,235.0,135.5,221.5,138.5,226.5,132.0,225.0,142.0,220.0" stroke="green" stroke-width="1" fill="none" />
<polyline points="150.0,209.5,148.0,211.5" stroke="black" stroke-width="1" fill="none" />
<polyline points="150.5,211.5,151.0,210.5,153.0,212.0" stroke="orange" stroke-width="1" fill="none" />
<polyline points="134.5,195.0,139.0,192.5,139.0,194.0,134.0,186.5,143.0,194.5,142.0,183.5,146.0,177.5,144.0,175.5,143.0,183.0" stroke="green" stroke-width="1" fill="none" />
<polyline points="141.0,182.5" stroke="black" stroke-width="1" fill="none" />
<polyline points="148.0,180.5,143.0,181.5,156.5,180.5,152.0,189.5,141.0,187.0,135.5,187.0,137.5,189.5" stroke="green" stroke-width="1" fill="none" />
<polyline points="" stroke="green" stroke-width="1" fill="none" />
<polyline points="146.0,196.0,157.5,193.0,143.0,211.0,147.5,215.0,142.0,211.0,144.5,210.5" stroke="green" stroke-width="1" fill="none" />
<polyline points="128.5,209.5,122.5,194.5,122.0,198.0" stroke="orange" stroke-width="1" fill="none" />
<polyline points="113.5,221.5,115.5,219.5,113.5,232.5,111.0,231.0,122.5,232.0,112.0,230.5,113.0,230.5" stroke="green" stroke-width="1" fill="none" />
<polyline points="115.0,229.0,116.5,218.0,116.0,223.0" stroke="green" stroke-width="1" fill="none" />
<polyline points="128.5,251.0,121.5,257.0,117.0,258.0,112.5,261.0,115.0,258.0,119.5,259.0,121.0,251.5,126.5,252.0,128.0,242.0,138.5,239.0,142.5,233.5,148.5,235.0,159.0,227.0,155.0,227.5,155.5,225.0,158.5,225.5" stroke="black" stroke-width="1" fill="none" />
<polyline points="151.0,239.0,137.5,235.5,139.0,243.5,141.0,248.0,139.5,250.5,131.5,262.0,136.0,272.0,140.5,268.0,140.5,266.0,125.0,274.0,131.5,270.5,137.0,275.0,134.5,275.5" stroke="orange" stroke-width="1" fill="none" />
<polyline points="152.5,253.5,156.0,259.5,155.0,251.5,159.0,251.0,156.5,248.0,161.0,247.5,161.0,250.0,155.0,246.5" stroke="yellow" stroke-width="1" fill="none" />
<polyline points="161.5,231.5,165.5,231.5,167.0,236.5,169.0,226.0" stroke="yellow" stroke-width="1" fill="none" />
<polyline points="165.5,225.5,169.0,222.5,166.0,224.5" stroke="black" stroke-width="1" fill="none" />
<polyline points="169.0,237.5,170.5,230.0,163.0,233.5,160.0,244.5,165.5,250.0,154.0,246.0,145.5,251.0,152.0,253.0,153.5,257.5,150.5,260.5,142.5,268.0,132.5,261.5,134.0,273.5,132.5,278.5,128.0,282.0,129.0,288.5,127.5,296.0,128.5,301.5,128.0,306.5,121.5,319.5,124.0,311.5,119.5,323.5,114.0,327.0,119.5,333.0,121.0,330.5,119.0,335.5,123.0,336.5,115.0,336.0,123.0,343.0,137.0,348.0,136.5,349.5,134.5,361.0,136.5,358.0,132.5,355.0,141.5,367.5,138.5,368.0,145.5,367.5,140.0,378.0,145.0,376.0,142.0,392.5,140.5,389.5,149.0,402.5,146.5,390.5,145.0,397.5,142.0,402.0,149.5,408.5,141.5,407.5,151.5,411.0,146.5,416.5,154.5,415.5,165.0,418.5,164.0,418.5" stroke="yellow" stroke-width="1" fill="none" />
<polyline points="162.0,413.5,160.5,411.0,164.0,413.0" stroke="orange" stroke-width="1" fill="none" />
<polyline points="" stroke="yellow" stroke-width="1" fill="none" />
<polyline points="" stroke="green" stroke-width="1" fill="none" />
<polyline points="202.0,412.0,196.5,425.0,200.0,424.5,194.5,429.0,192.5,428.0" stroke="orange" stroke-width="1" fill="none" />
<polyline points="199.0,404.5,205.0,401.0,203.0,394.5,195.0,402.5,194.5,398.0,199.0,396.5,195.5,394.0" stroke="yellow" stroke-width="1" fill="none" />
<polyline points="192.5,390.5,193.0,394.5,192.5,405.5,191.5,402.0,187.5,407.0,181.5,418.5,186.0,413.0,188.0,419.0,185.5,424.0,185.0,433.5,195.5,434.0,183.0,432.5,185.0,437.5,179.5,442.5,189.5,448.5,186.5,439.5,199.0,449.5,201.0,450.0" stroke="green" stroke-width="1" fill="none" />
<polyline points="379.0,351.5,375.5,352.5,375.5,342.0,377.5,347.5,374.5,342.5,381.0,341.5,385.5,335.5,377.5,327.0,381.0,322.5,374.0,318.0,376.0,309.5,364.5,313.5,377.0,310.5,378.5,306.0,377.5,309.0" stroke="yellow" stroke-width="1" fill="none" />
<polyline points="379.0,281.0,380.5,283.0,382.0,283.0,388.0,275.5,386.0,264.0,382.5,268.5,384.5,266.0,384.0,265.0,388.0,264.0" stroke="black" stroke-width="1" fill="none" />
<polyline points="365.5,278.0,371.5,274.0,367.5,277.0,362.5,282.0,368.0,286.0,364.0,287.5,364.0,297.5,368.0,295.5,363.0,307.5,361.0,305.0,360.0,308.0" stroke="yellow" stroke-width="1" fill="none" />
<polyline points="341.5,272.0,350.5,278.0,345.5,284.0,335.5,281.5,334.5,284.0,326.0,267.5,322.5,267.0,319.5,274.5,323.5,268.5,329.5,271.0,326.5,275.5,325.0,278.5" stroke="orange" stroke-width="1" fill="none" />
<polyline points="323.5,269.5,323.5,269.0,326.0,269.5,330.0,266.0,334.5,274.0,326.5,275.5" stroke="orange" stroke-width="1" fill="none" />
<polyline points="324.5,278.0,328.5,274.0,319.0,273.0,321.5,264.5,328.0,257.5,339.0,256.0,334.5,253.5,337.0,250.5" stroke="black" stroke-width="1" fill="none" />
<polyline points="364.5,266.0,365.5,275.5,363.5,275.0,358.0,273.0,352.0,276.5,354.0,268.0" stroke="green" stroke-width="1" fill="none" />
<polyline points="289.5,233.0,282.5,230.5" stroke="green" stroke-width="1" fill="none" />
<polyline points="271.5,219.0,272.5,198.5,280.0,198.5,273.5,207.5,283.5,199.5,289.0,190.0,288.5,189.5,294.5,181.5,301.0,188.0,299.0,181.0,308.5,181.5,309.5,180.5,312.0,182.5" stroke="yellow" stroke-width="1" fill="none" />
<polyline points="318.5,171.5,314.0,179.5,300.5,175.0,299.5,179.5,296.5,184.0,293.0,186.0,292.0,191.5,280.5,194.0,285.0,198.0,275.0,195.5,268.5,202.5,264.5,207.5,264.5,211.5,265.0,212.0,266.5,221.5,252.5,225.0,256.0,228.0,247.5,231.0,244.5,239.5,240.5,248.5,232.5,241.5,238.0,255.5,230.5,257.5,224.5,266.0,221.0,261.5,214.5,278.5,206.5,284.0,208.5,288.0,203.5,302.5,195.0,307.0,203.0,325.0,198.0,317.0,198.5,311.0,196.0,312.5,207.0,306.0,196.0,300.0,200.5,295.5,206.0,294.5,213.5,286.5,212.5,291.0,209.0,285.0,216.0,274.5,218.0,281.0,220.5,270.0,222.0,264.5,229.5,265.0,224.0,252.5,229.0,257.0,237.0,247.0,232.0,241.5,239.0,236.5,245.5,235.0,243.5,228.0,256.0,230.0,250.5,224.5,259.5,225.0,259.0,219.0,254.5,204.5,262.5,215.5,265.0,203.0" stroke="orange" stroke-width="1" fill="none" />
<polyline points="264.5,202.0,258.0,213.5,266.0,206.0,258.0,208.0" stroke="green" stroke-width="1" fill="none" />
<polyline points="" stroke="yellow" stroke-width="1" fill="none" />
<polyline points="207.5,197.0,211.0,199.5,220.5,182.0,217.0,185.0,225.0,182.5,223.0,179.5,226.5,177.5,232.5,179.5,226.5,182.5" stroke="black" stroke-width="1" fill="none" />
<polyline points="231.5,171.5,227.0,183.5,211.5,184.0,216.0,181.5,218.5,192.0,201.0,199.5,215.5,192.5,211.5,198.0,215.0,202.0,219.0,200.0,226.0,189.0,231.5,192.0,241.5,190.5,228.0,184.0,229.5,182.5" stroke="green" stroke-width="1" fill="none" />
<polyline points="250.5,176.5,246.0,177.0,238.5,182.5,236.5,182.5,241.5,178.0,240.0,178.0,249.5,181.5" stroke="yellow" stroke-width="1" fill="none" />
<polyline points="252.5,176.5,244.0,179.5,240.5,182.5,247.0,188.5,241.5,198.0,235.5,201.5,234.0,201.0,237.0,208.0,229.0,218.0,230.5,206.0,239.5,207.5,236.0,211.0,237.5,208.5,239.0,213.5,238.0,215.5,240.5,215.0" stroke="black" stroke-width="1" fill="none" />
<polyline points="264.5,184.5,267.5,183.5,261.5,196.0,258.5,195.5,244.0,203.0,246.5,204.0,252.5,202.0,261.0,202.0,252.5,201.5,259.5,197.5,259.0,200.0" stroke="yellow" stroke-width="1" fill="none" />
<polyline points="266.0,187.5,271.5,189.0,262.0,188.0,259.5,187.0,257.0,190.0,258.5,183.5,262.0,183.5" stroke="green" stroke-width="1" fill="none" />
<polyline points="259.5,186.0,255.0,186.5,242.5,190.0,249.5,196.5,251.5,207.0,247.0,196.0,247.5,193.5,248.0,193.0,249.0,188.0,254.0,187.0,253.5,182.5,255.5,186.5,265.0,185.0,262.0,182.5,263.0,175.5,263.0,174.0" stroke="yellow" stroke-width="1" fill="none" />
<polyline points="265.5,178.0,260.0,179.0,269.5,178.0,271.5,176.0,281.5,181.5,282.0,175.5,285.0,178.5,287.0,175.5,294.5,177.5,299.0,181.5,290.5,186.0,287.5,193.5,290.0,187.0,277.0,195.5,276.5,191.5,278.0,190.5,272.0,196.0,267.5,195.5,282.0,189.5,277.5,197.5,288.5,186.5,292.0,182.0,287.0,185.0,291.5,178.5,304.5,169.5,308.0,167.0,307.0,172.0,317.5,166.0,316.5,168.0,327.5,166.0,326.0,163.5,330.5,164.5,329.5,154.5,339.0,149.0,336.0,155.5,338.0,149.5" stroke="orange" stroke-width="1" fill="none" />
<polyline points="304.0,175.0,303.0,178.0,303.0,174.0,299.0,188.5,288.0,194.5,288.0,190.0,279.5,196.5,277.0,197.0,261.5,210.0,269.5,211.5,270.0,208.0,265.0,213.5,260.0,217.5,265.5,220.0,261.0,223.0,266.0,229.0,266.0,233.5,270.5,239.5,270.5,239.0,264.5,241.0,260.5,240.5" stroke="yellow" stroke-width="1" fill="none" />
<polyline points="266.0,186.0,267.5,184.5" stroke="yellow" stroke-width="1" fill="none" />
<polyline points="264.5,155.5,261.0,161.5,256.5,159.0,252.0,158.0,249.0,160.5,243.5,162.0,250.0,161.5,248.5,159.5" stroke="yellow" stroke-width="1" fill="none" />
<polyline points="" stroke="black" stroke-width="1" fill="none" />
<polyline points="255.0,175.5,252.5,175.5,259.0,179.0,256.5,177.0,261.5,182.0,257.0,180.0,260.5,180.5" stroke="black" stroke-width="1" fill="none" />
<polyline points="247.0,139.0,251.0,135.0,254.5,129.5,258.5,131.0,263.5,129.0,251.5,137.0,246.0,131.0,254.0,140.0,244.0,144.0" stroke="orange" stroke-width="1" fill="none" />
<polyline points="" stroke="orange" stroke-width="1" fill="none" />
<polyline points="215.5,151.0,219.0,151.0,221.0,152.0,220.0,150.0,219.0,150.5" stroke="green" stroke-width="1" fill="none" />
<polyline points="214.0,140.5,221.0,141.5,218.5,144.5,219.5,142.0" stroke="orange" stroke-width="1" fill="none" />
<polyline points="207.0,149.0,201.0,151.5,210.0,141.0,217.0,149.5,214.5,159.0,214.5,149.0" stroke="black" stroke-width="1" fill="none" />
<polyline points="207.5,168.0,191.5,162.5,202.0,159.0,207.5,152.5,198.5,159.5,199.5,161.0" stroke="yellow" stroke-width="1" fill="none" />
<polyline points="204.5,164.0,202.5,161.5,201.5,173.5,192.0,184.0,187.0,173.5,186.0,182.0,184.0,182.0,168.0,187.0,178.0,194.0,165.0,194.0,168.0,203.5,161.0,202.5,164.0,193.0,174.0,191.0,181.0,186.5,178.5,180.0,187.0,179.5,183.5,172.5,188.0,173.0,201.0,176.0,206.5,161.0,200.5,165.5,203.5,161.0" stroke="yellow" stroke-width="1" fill="none" />
<polyline points="209.0,178.5,210.0,184.0,201.5,186.0,211.0,199.5,204.5,203.0,204.5,195.5,201.0,195.0,201.5,195.5" stroke="green" stroke-width="1" fill="none" />
<polyline points="" stroke="yellow" stroke-width="1" fill="none" />
<polyline points="204.5,141.0,204.5,140.5,207.5,136.5,217.0,131.0,220.0,135.0,214.5,129.5,221.5,129.0,231.0,123.5" stroke="yellow" stroke-width="1" fill="none" />
<polyline points="221.5,128.0,213.5,143.0,214.5,145.5,203.5,148.5,208.5,140.5,206.5,139.0,224.5,128.5,223.0,134.0,233.0,122.5,235.0,118.5,244.5,120.0,238.5,124.0,236.0,121.0,235.0,120.0" stroke="orange" stroke-width="1" fill="none" />
<polyline points="229.0,113.5,234.5,113.0,230.0,130.0,224.5,129.5,205.0,142.5,198.5,141.0,205.0,144.5,201.5,144.5,203.5,152.5,190.0,159.0,196.0,160.0,181.0,164.0,174.5,169.5,171.0,169.5,167.0,172.0,167.5,181.5,164.0,189.5,156.5,183.0,154.0,191.5,156.5,195.5,150.5,198.0,149.0,202.5,154.5,205.5,146.0,214.0,149.0,213.5,151.0,223.0,139.5,222.5,142.5,224.0,151.0,233.5,139.0,236.5,136.5,244.5,145.0,236.5,128.0,242.5,135.0,252.5,134.0,252.5,137.5,254.0,135.0,254.5,137.0,256.5,137.0,257.5" stroke="black" stroke-width="1" fill="none" />
<polyline points="" stroke="orange" stroke-width="1" fill="none" />
<polyline points="119.5,139.0,118.5,139.0" stroke="yellow" stroke-width="1" fill="none" />
<polyline points="148.0,130.5,155.5,145.5,155.5,139.5,155.5,127.0,161.5,127.5,155.5,120.0,154.5,122.5,155.5,121.0" stroke="orange" stroke-width="1" fill="none" />
<polyline points="180.5,135.5,175.0,140.0,183.0,121.0,188.5,120.5,184.0,122.5,188.0,121.0,186.5,121.5" stroke="yellow" stroke-width="1" fill="none" />
<polyline points="184.0,129.5,186.5,129.0,164.0,124.5,172.5,123.5,172.0,123.0,185.5,123.5,187.0,125.0,190.5,123.0,186.0,118.0,194.5,122.0" stroke="green" stroke-width="1" fill="none" />
<polyline points="179.5,132.5,186.0,131.0,188.5,136.5" stroke="black" stroke-width="1" fill="none" />
<polyline points="201.5,119.0" stroke="green" stroke-width="1" fill="none" />
<polyline points="203.5,110.0,200.0,108.5" stroke="yellow" stroke-width="1" fill="none" />
<polyline points="234.5,139.5,232.5,134.5,234.5,134.0,224.0,129.0,218.5,125.5,216.0,137.0,214.5,138.0,205.0,147.0,199.0,135.0,197.5,149.0,198.0,156.0,196.5,157.5,202.0,147.5,211.0,144.5,210.5,139.0,218.0,137.5,228.5,130.0" stroke="yellow" stroke-width="1" fill="none" />
<polyline points="247.0,137.0,249.5,148.0,254.0,145.0,233.5,154.5,238.5,153.5,230.5,150.5,225.0,151.5,223.0,159.5,222.5,163.0,225.0,157.5,235.0,157.0,238.0,150.0,245.0,148.0,251.0,141.0,260.5,137.0,258.5,129.0,267.5,124.0,268.0,118.0,262.0,114.5" stroke="green" stroke-width="1" fill="none" />
<polyline points="285.5,148.5,288.5,146.5,290.0,144.5" stroke="yellow" stroke-width="1" fill="none" />
<polyline points="298.0,133.5,298.0,139.5" stroke="black" stroke-width="1" fill="none" />
<polyline points="312.0,176.0,301.5,180.0,300.5,184.0,285.5,185.5,292.0,200.0,284.0,203.0,281.5,202.5,275.0,201.5,276.0,209.0,270.0,209.5,270.5,212.0,273.5,215.0" stroke="black" stroke-width="1" fill="none" />
<polyline points="232.0,96.5,236.5,102.5,227.0,101.0,225.5,99.5,229.5,108.5,228.5,98.0,236.0,97.5" stroke="green" stroke-width="1" fill="none" />
<polyline points="" stroke="green" stroke-width="1" fill="none" />
<polyline points="248.0,96.0,246.0,89.5,242.5,94.5,244.0,89.5" stroke="green" stroke-width="1" fill="none" />
<polyline points="262.0,86.0,253.0,94.0,254.5,85.0,250.0,92.5,248.0,95.5,243.0,100.0,238.5,111.0,236.0,109.0,225.0,107.0,238.5,115.5,217.5,118.0,223.0,120.0,223.0,117.0,212.0,115.5,207.0,133.0,205.5,139.0,196.5,135.5,198.0,125.0,187.5,141.5,177.0,149.5,180.5,152.5,176.5,148.5,172.5,153.0,174.0,164.0,171.5,163.0,167.5,162.5,155.0,166.5,164.5,168.0,159.5,170.5,160.5,171.0,172.0,169.0,173.0,162.0,181.5,156.0,178.5,147.0,186.0,137.5,192.5,141.0,192.5,127.0,200.5,142.0,215.5,126.5,217.5,125.5,218.5,119.5,219.5,101.5,219.5,117.5,228.5,104.0,234.0,115.0,235.5,99.0,242.5,95.0,259.0,93.0,267.5,92.0,263.5,87.5,258.0,85.5" stroke="yellow" stroke-width="1" fill="none" />
<polyline points="237.0,87.5,231.5,83.0,231.0,87.5,235.5,81.0,238.0,89.5,235.0,83.5,240.5,84.0" stroke="black" stroke-width="1" fill="none" />
<polyline points="" stroke="yellow" stroke-width="1" fill="none" />
<polyline points="227.0,48.0,227.0,49.0,238.5,45.5,234.5,43.5,247.0,42.5,250.5,53.5,243.5,44.0,254.0,52.5,258.5,64.5,263.0,49.0,273.0,58.0,274.5,59.0,271.0,63.0,277.5,67.0,279.5,65.5,286.5,71.0,279.5,70.0,295.0,73.5,290.0,82.5,293.5,82.0,304.5,90.5,303.5,94.0,317.0,100.0,316.0,99.5,330.5,109.0,321.5,110.0,330.0,120.0,330.0,123.5,334.0,127.5,340.0,128.5,352.5,136.5,343.0,138.5,352.0,149.0,354.0,139.5,353.0,135.5,370.0,138.0,373.5,136.0,371.0,135.0,381.0,132.0,382.0,128.0,389.0,128.5,394.5,115.5,387.5,112.0,396.0,114.0,399.5,113.5,414.0,108.0,406.0,114.5,418.0,119.0,417.0,112.0,413.0,114.5,409.5,115.0" stroke="black" stroke-width="1" fill="none" />
<polyline points="411.5,117.5,412.5,114.0,414.0,119.0,413.5,130.5,413.0,129.0,416.0,135.5,422.5,132.0,420.5,142.0,419.5,145.0,428.0,145.0,408.5,150.5,415.5,152.5,409.0,160.0,414.0,167.5,409.0,179.0,408.0,175.5,409.5,174.5,399.5,180.0,407.0,177.0,413.0,180.0,399.5,184.0,392.5,190.0,394.0,201.0,378.0,201.0,382.0,205.5,374.0,210.0,376.0,208.0,367.5,214.5,363.0,209.5,373.0,211.5,370.0,206.5,381.5,208.5,385.0,203.0,391.5,199.0,396.0,197.0,392.5,189.5,398.0,189.5,402.0,183.0,407.0,172.5,410.5,176.0,418.0,178.0,412.5,181.0" stroke="green" stroke-width="1" fill="none" />
<polyline points="367.0,127.0,368.0,125.5,366.5,123.5" stroke="orange" stroke-width="1" fill="none" />
<polyline points="388.5,110.5,383.0,102.0,388.0,101.5,385.5,110.0" stroke="black" stroke-width="1" fill="none" />
<polyline points="380.5,108.0,389.0,105.0,384.5,98.0" stroke="black" stroke-width="1" fill="none" />
<polyline points="424.0,43.5,427.5,45.5,425.5,45.5,413.5,33.0,417.0,28.0,414.0,24.0" stroke="orange" stroke-width="1" fill="none" />
<polyline points="512.5,70.5,515.0,80.5,508.5,81.0,504.5,84.5,503.5,86.0,496.5,95.5,489.0,106.5,486.5,106.0,493.5,113.0,482.5,106.5,475.5,115.5,477.0,122.0,474.0,125.0,472.0,128.0,466.0,131.0,466.5,137.0,468.0,135.0,463.0,151.5,457.5,145.0,460.5,154.5,454.0,159.0,449.5,165.5,449.0,165.5,442.5,169.0,445.0,168.5,444.0,174.5,434.5,191.0,437.0,191.5,434.0,188.0,434.0,196.0,432.5,204.0,430.5,206.5,431.0,207.0,422.0,205.5,425.0,217.0,420.5,220.5,420.5,222.0,419.0,227.5,422.0,236.0,411.5,230.0,415.0,239.0,411.5,245.5,403.0,241.0,409.5,246.5,419.5,260.5,406.5,260.5,407.0,256.5,410.0,267.5,410.0,271.0,399.0,277.5,399.0,280.0,405.0,280.5,396.0,288.0,400.5,289.5,405.5,290.0,398.5,302.0,397.5,301.0,395.5,307.5,391.0,308.5,395.5,313.5,390.5,316.0,395.0,317.0,391.0,326.0,391.5,326.5,383.0,340.0,388.5,334.5,391.0,334.5" stroke="black" stroke-width="1" fill="none" />
<polyline points="345.5,135.0,339.0,131.5,333.0,136.5,339.0,132.0,338.5,130.0,327.5,118.0,335.0,118.5,325.0,114.0,331.0,105.5,317.5,100.0,311.5,96.0,304.5,93.5,309.0,98.5,303.0,89.5,299.5,87.0,295.5,75.0,294.0,81.0,297.0,75.5,286.0,64.0,274.0,71.5,274.5,62.0,263.0,51.0,265.5,42.5,256.5,53.5,257.0,48.5,256.5,48.5" stroke="black" stroke-width="1" fill="none" />
<polyline points="" stroke="yellow" stroke-width="1" fill="none" />
<polyline points="176.0,60.0,156.0,65.5,160.5,67.5,166.5,64.5,167.5,62.0,169.5,66.5" stroke="black" stroke-width="1" fill="none" />
<polyline points="158.0,68.5,156.5,75.5,152.0,75.0,146.5,77.5,157.5,70.5,162.0,71.5,160.0,77.0,161.0,70.5,161.0,68.5" stroke="yellow" stroke-width="1" fill="none" />
<polyline points="154.0,76.5,152.5,79.0" stroke="yellow" stroke-width="1" fill="none" />
</svg>