<svg xmlns="http://www.w3.org/2000/svg" width="1024" height="1024" version="1.1" fill="white"><polyline points="414.5,16.0,410.5,14.5,409.5,8.5,411.5,19.5,410.5,25.0,413.0,28.5,421.0,34.0,421.5,32.5,418.0,28.0,433.0,30.5,428.0,33.5,430.5,52.0,437.0,48.0,437.5,56.0,440.5,65.5,433.5,61.0,437.0,71.5,436.0,70.5,443.0,69.5" stroke="black" stroke-width="1" fill="none" />
<polyline points="443.0,45.5,436.0,40.0,438.5,35.0,433.5,23.0,433.5,17.5" stroke="orange" stroke-width="1" fill="none" />
<polyline points="414.5,0.0,424.5,6.0,430.0,15.0,431.0,13.5,435.5,13.5,439.0,24.0,439.5,28.5,440.0,34.5,442.0,38.0,444.0,36.5,452.0,42.0,440.5,42.0,443.5,49.0,459.0,59.5,453.5,63.5,447.5,64.5,458.0,78.0,432.0,69.5,439.5,70.5,431.5,87.0,434.5,84.0,432.0,83.5,435.0,93.5,434.0,99.5,418.5,103.5,423.0,106.5,415.0,102.5,419.5,108.0,414.0,109.0,412.0,106.0,428.5,98.5,431.5,89.0,434.5,85.0,435.0,80.0,438.5,71.5,445.0,78.5,452.5,65.0,447.5,58.5,457.0,48.0,470.5,55.5,469.5,48.0,463.5,44.0,480.0,43.0,478.0,40.0,486.0,27.5,483.0,24.0,489.0,30.0,492.0,18.0,514.0,16.5,505.0,5.5" stroke="yellow" stroke-width="1" fill="none" />
<polyline points="509.5,11.5,504.5,20.0,496.5,26.5,489.5,23.0,492.5,23.0,482.5,25.5,483.0,30.5,483.5,35.0,464.5,44.5,471.5,37.5,460.5,52.0,466.0,56.5,461.5,59.0" stroke="yellow" stroke-width="1" fill="none" />
<polyline points="500.5,76.5,505.0,85.5,501.5,90.0,497.0,97.0,485.5,96.0,483.0,104.0,478.0,98.5,479.5,108.5,469.5,116.0,464.5,119.5,469.0,125.0,456.5,136.5,459.0,142.5,466.5,142.5,466.0,142.0,466.5,141.5" stroke="yellow" stroke-width="1" fill="none" />
<polyline points="447.5,167.0,439.5,163.0,445.0,171.0,432.5,173.0,437.0,173.5" stroke="black" stroke-width="1" fill="none" />
<polyline points="445.0,185.0,430.5,179.0,439.5,188.0,436.0,183.5,431.5,182.5,441.0,179.5" stroke="green" stroke-width="1" fill="none" />
<polyline points="425.5,220.5,426.5,214.5,422.5,228.5,426.0,229.5,427.5,225.0" stroke="black" stroke-width="1" fill="none" />
<polyline points="417.5,238.0,414.5,234.0,413.5,243.0,415.0,243.0,417.0,249.5,416.5,240.5,410.0,248.5,414.0,247.5,417.0,250.0" stroke="orange" stroke-width="1" fill="none" />
<polyline points="404.5,287.0" stroke="orange" stroke-width="1" fill="none" />
<polyline points="391.0,303.0,374.5,290.5,378.0,285.5,384.5,282.5,390.0,275.0" stroke="green" stroke-width="1" fill="none" />
<polyline points="375.5,268.5,373.5,267.0,369.0,263.0,373.5,262.0,372.0,260.0,373.0,255.0,374.0,256.5,376.5,242.0,370.5,241.5,365.0,240.5,375.0,233.0,367.0,233.0,373.5,221.5,373.0,222.0,374.5,224.5,371.5,222.5" stroke="yellow" stroke-width="1" fill="none" />
<polyline points="375.5,243.0,371.0,244.0,374.5,243.5,373.0,237.0,372.0,236.0" stroke="yellow" stroke-width="1" fill="none" />
<polyline points="362.0,255.5,375.0,258.5,372.0,262.0,369.0,279.5,370.0,269.5,371.0,274.0,364.5,276.5,368.5,275.5,366.5,279.0,363.5,280.5" stroke="green" stroke-width="1" fill="none" />
<polyline points="379.5,286.0,371.5,296.5,379.0,291.5,382.0,287.5,383.0,297.5,370.5,302.0,375.5,311.5,376.0,305.5,379.0,310.0,383.0,323.0,376.5,320.5,385.5,333.5,382.0,341.5,385.0,343.0,385.5,343.5,384.5,340.5" stroke="yellow" stroke-width="1" fill="none" />
<polyline points="367.5,356.0,372.5,361.5,381.0,364.5,379.5,365.0" stroke="green" stroke-width="1" fill="none" />
<polyline points="373.0,377.5,372.0,381.0" stroke="orange" stroke-width="1" fill="none" />
<polyline points="385.0,381.0,384.0,386.5,380.0,390.5,375.0,395.5,378.0,398.5,378.0,398.5" stroke="orange" stroke-width="1" fill="none" />
<polyline points="363.0,426.5,356.5,418.5,353.0,415.0,355.5,414.5,346.5,410.5,341.5,400.5,335.0,405.0,334.5,401.5,330.5,402.5,328.0,396.5,322.0,402.5,316.5,383.5,318.0,394.5,312.5,393.0,301.5,392.0,302.5,389.0,303.0,381.5,302.0,386.5,296.5,395.5" stroke="black" stroke-width="1" fill="none" />
<polyline points="314.5,374.0,324.0,364.0,324.0,359.5,326.0,355.0,331.5,343.5,333.0,346.0" stroke="yellow" stroke-width="1" fill="none" />
<polyline points="350.5,329.5,350.0,327.5,359.0,333.0,350.5,331.5,352.0,339.5" stroke="green" stroke-width="1" fill="none" />
<polyline points="359.5,363.0,358.5,368.0,356.0,370.5,360.0,374.5,351.5,381.0,353.5,386.0,353.5,389.0,356.0,399.5,352.0,389.0,351.0,401.0,350.5,408.5,346.5,407.5,349.5,410.5,359.0,414.0" stroke="black" stroke-width="1" fill="none" />
<polyline points="355.5,377.0,361.5,367.0,361.0,366.5,362.0,360.5" stroke="black" stroke-width="1" fill="none" />
<polyline points="360.5,358.5,359.5,368.0,353.5,376.0,357.5,374.0,354.0,381.0" stroke="yellow" stroke-width="1" fill="none" />
<polyline points="361.0,357.5,355.5,362.0,354.5,364.5,356.0,361.5,356.0,372.0,351.0,372.5,354.5,379.5,355.0,381.0,346.0,391.0,348.5,390.5,353.5,398.0,360.0,397.0,356.5,404.0,353.0,410.5,361.5,406.0,358.5,408.5" stroke="black" stroke-width="1" fill="none" />
<polyline points="374.0,455.0,371.0,457.5,376.0,455.5,374.5,452.0,376.0,451.0,375.0,438.5,371.5,439.5,369.5,428.0,373.5,430.0,377.0,431.0,381.0,425.0,380.5,417.5,378.5,413.5,378.5,411.5,379.0,404.0,375.0,399.0,374.0,399.5,381.0,388.5,383.0,395.0,375.0,384.0,387.5,379.0,374.0,373.0,380.5,375.0,379.0,367.0,382.5,365.5,386.5,364.5,373.0,358.0,377.5,349.0,378.5,350.5,375.5,344.0,374.0,345.5,370.0,336.0,379.0,334.5,376.5,333.0,374.5,322.5,369.0,321.5,379.0,328.0,374.5,313.0,372.5,309.5,372.5,301.5,381.0,314.0,376.0,301.0,376.0,291.5,371.5,290.5,370.0,282.5,371.0,277.0,371.5,278.5,366.0,267.0,366.0,271.0,370.5,264.0,374.5,263.0,367.0,261.5,358.5,256.0,367.5,250.5,367.5,245.5,368.0,242.5,364.5,234.0,359.0,228.5,365.5,228.0,361.0,220.0,357.0,216.0,359.5,223.0,361.0,208.5,360.0,209.0,352.0,203.5,345.5,199.0" stroke="orange" stroke-width="1" fill="none" />
<polyline points="" stroke="black" stroke-width="1" fill="none" />
<polyline points="" stroke="green" stroke-width="1" fill="none" />
<polyline points="" stroke="yellow" stroke-width="1" fill="none" />
<polyline points="360.0,198.5,358.5,204.0,366.5,206.5" stroke="black" stroke-width="1" fill="none" />
<polyline points="" stroke="yellow" stroke-width="1" fill="none" />
<polyline points="354.0,208.0,350.5,213.0,351.5,212.0" stroke="yellow" stroke-width="1" fill="none" />
<polyline points="344.0,206.0,337.5,206.0,332.0,203.0,334.0,195.5" stroke="yellow" stroke-width="1" fill="none" />
<polyline points="345.5,217.0,356.0,207.5,364.0,221.0,354.5,225.5,360.5,237.5,364.0,234.0,362.5,240.5,369.5,246.0,366.5,250.5,366.0,251.0,371.5,257.5,360.5,253.5" stroke="yellow" stroke-width="1" fill="none" />
<polyline points="365.5,241.0,363.5,238.0,367.5,242.0,365.0,243.0,363.0,245.5,364.0,244.5,368.5,243.5" stroke="orange" stroke-width="1" fill="none" />
<polyline points="346.5,236.0,348.0,245.0,350.0,239.5,351.5,239.5" stroke="black" stroke-width="1" fill="none" />
<polyline points="342.5,255.5,337.5,255.5,332.0,252.5,334.0,260.0,330.0,258.0,331.0,258.5,328.5,259.0" stroke="black" stroke-width="1" fill="none" />
<polyline points="333.0,254.0,343.0,242.0,340.5,250.0,352.0,251.5,353.0,241.5,346.0,243.5" stroke="black" stroke-width="1" fill="none" />
<polyline points="338.0,261.0" stroke="black" stroke-width="1" fill="none" />
<polyline points="" stroke="yellow" stroke-width="1" fill="none" />
<polyline points="348.5,277.5,354.5,286.0,351.5,284.5,356.5,295.5,346.5,292.5,346.5,299.5,353.5,302.5,349.0,307.5,341.5,307.5,346.0,314.5,340.5,323.5,335.5,327.0,348.0,325.0,339.5,326.5,336.0,333.0,331.5,340.0,329.5,336.0,327.0,344.5,331.0,354.5,325.0,357.0,325.5,357.5,315.5,364.0,317.0,372.0,318.0,370.0,320.5,370.5,319.5,383.0,312.5,379.5,316.5,383.5,315.0,396.0,315.5,391.5,326.0,406.5,340.5,400.0,345.5,408.0,345.0,418.5,352.5,416.0,353.5,414.5,361.0,420.5,360.0,432.0,355.0,436.0,361.5,438.0,364.0,431.5,367.5,442.0,361.5,446.0,371.5,454.0,373.0,456.0,362.5,468.0,376.5,468.5,367.5,480.5,369.5,478.0,370.5,473.5,372.0,476.0,375.0,482.5,376.0,490.0,379.0,488.5,378.0,493.0,379.0,503.5,384.5,493.5,380.5,504.0,388.0,511.0,393.5,511.5,386.5,520.0,393.0,528.0,393.5,515.0,393.0,518.5" stroke="black" stroke-width="1" fill="none" />
<polyline points="428.5,495.0,435.5,484.0,426.5,485.0,441.0,480.0,442.5,479.0,448.5,477.0,446.0,464.5,456.5,465.0,453.5,467.0,455.5,463.0,451.5,466.0" stroke="black" stroke-width="1" fill="none" />
<polyline points="446.5,475.5,446.0,474.5,450.0,470.5,450.0,466.0,449.0,464.0,453.0,466.5,455.5,468.5" stroke="yellow" stroke-width="1" fill="none" />
<polyline points="461.0,444.5" stroke="yellow" stroke-width="1" fill="none" />
<polyline points="474.0,421.5,475.0,410.5,481.0,411.0,482.0,403.5,484.0,410.0,490.0,398.5,490.0,396.5,497.0,389.0,499.0,390.0,505.5,391.0,500.0,381.5,517.5,381.0,508.5,379.0,512.5,383.5" stroke="green" stroke-width="1" fill="none" />
<polyline points="514.0,383.5,512.0,383.0,514.5,385.0,506.0,386.0,499.5,382.0,490.0,396.0,493.5,403.5,484.5,405.5,479.0,408.5,477.0,413.0,470.0,418.5,472.0,427.5,471.5,421.5,463.0,429.0,460.5,428.0,462.5,433.0,458.5,436.0,447.0,440.0,463.5,441.5,463.5,453.5,456.5,458.0,452.5,456.5,453.0,454.0,448.5,470.0,445.5,479.5,446.0,478.0,445.5,482.0,441.0,486.5,441.5,478.0,438.0,481.0" stroke="yellow" stroke-width="1" fill="none" />
<polyline points="435.5,478.0,426.5,482.0,441.5,474.0,437.5,473.5,441.0,465.0,444.5,465.5,439.0,456.5,444.5,461.0" stroke="black" stroke-width="1" fill="none" />
<polyline points="430.5,462.5,437.0,455.0,425.5,449.5,429.5,455.5,433.0,445.0,441.0,439.5,439.0,443.0,439.5,429.5,430.5,428.5,430.0,433.5,434.5,434.0,434.5,430.5,429.5,429.0" stroke="yellow" stroke-width="1" fill="none" />
<polyline points="429.0,472.0,426.0,476.5,424.0,472.5,425.5,477.0,423.0,482.5,426.5,481.5,426.5,478.0" stroke="yellow" stroke-width="1" fill="none" />
<polyline points="420.0,471.0,426.0,471.0,420.5,470.5,421.0,475.5,426.0,477.0,429.0,466.5,436.5,456.5,432.0,460.5,434.0,463.0,435.5,467.5" stroke="orange" stroke-width="1" fill="none" />
<polyline points="478.5,406.5,479.5,411.0,487.5,407.0,482.0,389.5,479.5,393.0,482.0,395.0" stroke="green" stroke-width="1" fill="none" />
<polyline points="442.0,432.0,446.0,428.5,443.0,420.0,446.5,414.0,449.0,410.5,444.0,407.0,448.0,405.5,452.5,394.5,452.0,392.0,450.5,388.0,453.5,386.0,457.0,379.5,447.0,383.0,448.0,373.5,457.5,375.0,447.5,364.0" stroke="green" stroke-width="1" fill="none" />
<polyline points="384.0,343.0,389.0,338.5,384.0,334.0,371.0,322.5,383.0,324.0,379.5,326.0" stroke="green" stroke-width="1" fill="none" />
<polyline points="371.5,364.5,372.0,368.0,366.0,363.5,370.0,378.0,369.0,392.0,362.0,386.0,373.0,387.5,374.5,386.0,375.5,391.0,380.0,388.5,372.5,385.5" stroke="black" stroke-width="1" fill="none" />
<polyline points="323.5,339.5,327.0,343.5,331.0,342.0" stroke="black" stroke-width="1" fill="none" />
<polyline points="310.5,355.0" stroke="green" stroke-width="1" fill="none" />
<polyline points="298.5,353.5,298.0,355.0,295.5,358.0" stroke="orange" stroke-width="1" fill="none" />
<polyline points="315.0,356.5,313.0,358.5,309.0,359.0,307.5,370.0,300.5,365.5,303.0,363.5" stroke="yellow" stroke-width="1" fill="none" />
<polyline points="311.0,346.0,297.5,353.0,300.5,347.5,300.5,351.5,300.5,357.0" stroke="orange" stroke-width="1" fill="none" />
<polyline points="305.5,328.5,306.5,324.5,316.0,327.5,314.5,324.5,306.5,330.5,308.0,331.0,305.5,327.5,310.5,334.0,310.5,336.5,309.0,337.0" stroke="green" stroke-width="1" fill="none" />
<polyline points="312.0,317.0,312.0,325.5,299.0,331.0,292.0,337.0,293.5,339.5,295.5,340.5" stroke="orange" stroke-width="1" fill="none" />
<polyline points="303.5,321.5,299.5,321.0,295.5,316.0" stroke="black" stroke-width="1" fill="none" />
<polyline points="317.5,334.0,326.5,322.5,324.5,323.5,325.0,324.5,321.5,311.0,321.5,306.5,325.0,317.0,326.0,301.0,324.5,301.5,322.5,305.0,321.5,304.5" stroke="black" stroke-width="1" fill="none" />
<polyline points="" stroke="green" stroke-width="1" fill="none" />
<polyline points="334.0,271.0,332.5,269.5,341.0,267.0,339.0,265.5,335.0,265.5,327.0,264.0,332.0,258.0" stroke="green" stroke-width="1" fill="none" />
<polyline points="326.0,260.5,323.0,266.0,329.5,265.5,328.0,276.0,327.5,273.0,325.0,279.5,330.0,265.5,334.5,269.5,323.0,274.5,331.0,256.0" stroke="yellow" stroke-width="1" fill="none" />
<polyline points="323.5,271.5" stroke="orange" stroke-width="1" fill="none" />
<polyline points="" stroke="green" stroke-width="1" fill="none" />
<polyline points="337.0,266.5,339.0,257.0,334.5,261.5,338.0,253.5,345.5,262.5,350.5,254.5,348.5,250.5,348.5,249.0" stroke="orange" stroke-width="1" fill="none" />
<polyline points="347.0,237.0,348.0,228.0,343.0,220.5,335.5,218.0,341.0,213.5,339.5,212.5" stroke="black" stroke-width="1" fill="none" />
<polyline points="342.5,192.0,341.0,193.0,346.0,202.0,353.0,199.5,353.0,200.0,361.5,193.5,356.5,194.0,367.0,185.5,375.5,184.5,376.5,182.5,382.0,185.0,377.0,186.5,393.5,187.0,390.5,176.0,393.0,174.0,391.5,169.0,395.5,183.5,404.0,165.0,406.0,174.0,403.0,178.5,394.5,191.5,394.5,187.5,390.5,190.0,381.0,193.5,384.5,198.5,390.0,187.0,389.5,184.5,396.0,169.0,406.0,178.0,402.0,182.0" stroke="orange" stroke-width="1" fill="none" />
<polyline points="401.5,160.0,407.0,164.0,409.5,163.0,391.5,170.5,384.5,173.0,388.0,174.5" stroke="black" stroke-width="1" fill="none" />
<polyline points="367.0,184.5,356.0,195.0,347.5,189.5,345.5,194.0,337.0,193.5,338.5,206.5,347.0,205.5" stroke="yellow" stroke-width="1" fill="none" />
<polyline points="334.5,207.0,332.5,207.0,337.0,211.5,340.5,206.5,331.0,213.5,334.0,208.0,329.5,208.5" stroke="black" stroke-width="1" fill="none" />
<polyline points="" stroke="green" stroke-width="1" fill="none" />
<polyline points="345.5,207.5,352.5,213.5,353.0,218.0,357.5,213.5" stroke="orange" stroke-width="1" fill="none" />
<polyline points="356.0,206.0,350.5,204.5,348.0,201.5,345.5,205.5" stroke="green" stroke-width="1" fill="none" />
<polyline points="344.5,198.0,346.5,203.5,351.5,207.0,352.0,204.5" stroke="orange" stroke-width="1" fill="none" />
<polyline points="" stroke="orange" stroke-width="1" fill="none" />
<polyline points="341.0,203.5,340.5,203.0,344.5,204.0,344.5,206.5,353.5,205.5,353.0,210.0" stroke="yellow" stroke-width="1" fill="none" />
<polyline points="" stroke="black" stroke-width="1" fill="none" />
<polyline points="370.5,192.5,371.0,195.5" stroke="orange" stroke-width="1" fill="none" />
<polyline points="393.0,154.5,392.0,160.0,379.0,162.0,387.0,161.5,381.5,174.0,381.0,177.5,390.0,173.5,386.0,158.0,389.0,158.0,391.5,152.5" stroke="black" stroke-width="1" fill="none" />
<polyline points="399.5,166.5,394.0,169.5,399.0,163.5,404.5,161.5,390.5,175.0,395.5,172.0,385.5,171.5,399.0,172.5,399.0,163.5" stroke="orange" stroke-width="1" fill="none" />
<polyline points="395.5,132.5,396.5,130.5,391.0,128.0,382.0,132.0,382.5,139.5,388.5,134.0,389.0,131.5,392.0,124.0,390.0,124.5,388.5,123.5" stroke="black" stroke-width="1" fill="none" />
<polyline points="390.0,127.5,388.5,122.0,376.0,133.0,381.5,131.0,380.5,126.0,391.0,124.5,400.0,118.5,400.5,116.0" stroke="yellow" stroke-width="1" fill="none" />
<polyline points="393.5,118.5,389.0,123.5,389.0,125.5,382.5,131.0,371.5,133.0,359.5,139.0,356.0,144.0,356.5,143.0,354.0,139.0,353.5,138.0" stroke="orange" stroke-width="1" fill="none" />
<polyline points="333.0,150.0,313.0,153.0,318.0,158.5,310.0,150.5,306.5,167.0,306.5,167.0,306.0,168.0" stroke="orange" stroke-width="1" fill="none" />
<polyline points="" stroke="yellow" stroke-width="1" fill="none" />
<polyline points="284.0,173.0,278.5,171.5,282.5,177.5,288.0,176.0,283.0,178.0,285.0,175.5" stroke="orange" stroke-width="1" fill="none" />
<polyline points="" stroke="orange" stroke-width="1" fill="none" />
<polyline points="280.0,183.0,274.5,171.5,278.0,172.0,273.5,172.0,273.0,173.5" stroke="orange" stroke-width="1" fill="none" />
<polyline points="266.0,184.5,257.0,176.5,257.0,180.0,265.0,180.0,245.5,175.5,246.0,168.0,246.0,162.5" stroke="black" stroke-width="1" fill="none" />
<polyline points="240.0,165.5,247.0,164.0,246.5,166.0,253.0,164.5,247.5,171.0,259.0,180.5,254.5,178.0,248.5,187.0,245.0,188.5,240.0,194.0,239.5,193.0,236.0,201.5,235.0,209.5,237.0,204.5,241.5,218.5,244.5,205.0,247.5,218.0,257.0,202.5,253.5,212.0,256.0,203.5,250.5,213.0,249.5,216.0,252.5,225.0,240.0,217.5,243.5,235.5,240.5,231.0,236.0,231.0,239.5,246.5,232.0,249.0,230.0,253.5,221.0,249.0,219.5,259.0,218.0,260.0,218.0,272.0,218.0,272.5,209.0,279.0,206.0,278.5,206.0,285.5,204.0,292.5,204.5,300.0,196.5,306.0,196.5,297.5,193.5,300.0,200.0,310.5,199.5,316.0,192.0,309.5,191.0,312.5,182.5,317.0,183.0,323.5,179.0,326.5,174.0,332.0,167.5,330.5,166.0,339.5,161.5,342.5,164.0,338.0" stroke="yellow" stroke-width="1" fill="none" />
<polyline points="154.5,352.0,159.5,346.5,162.5,362.5,151.0,359.5,154.5,365.0,150.5,371.5,156.5,376.5,163.0,369.5,156.0,382.5,157.5,384.0,154.5,390.0,161.5,394.5,148.5,390.5,156.5,401.5,165.0,402.0,163.0,408.5,164.0,409.0,157.5,410.0,162.5,408.0" stroke="orange" stroke-width="1" fill="none" />
<polyline points="165.5,410.5,169.0,405.5,161.5,405.0,163.0,410.0,156.5,415.5" stroke="yellow" stroke-width="1" fill="none" />
<polyline points="166.5,413.0,168.0,411.5,166.5,414.5,169.0,419.0,170.5,415.5,170.5,422.0,172.5,422.0,178.0,422.0,176.5,421.0,176.5,422.0" stroke="green" stroke-width="1" fill="none" />
<polyline points="" stroke="yellow" stroke-width="1" fill="none" />
<polyline points="189.5,444.0,183.5,434.5,182.0,441.0,185.5,440.5,187.5,438.5,193.5,434.5" stroke="green" stroke-width="1" fill="none" />
<polyline points="191.0,451.5" stroke="yellow" stroke-width="1" fill="none" />
<polyline points="" stroke="orange" stroke-width="1" fill="none" />
<polyline points="" stroke="black" stroke-width="1" fill="none" />
<polyline points="178.0,453.0,179.0,461.5,179.0,460.5,168.0,468.5,171.0,470.0,168.0,470.0,161.5,472.5,161.5,470.5" stroke="orange" stroke-width="1" fill="none" />
<polyline points="153.0,476.5,159.0,473.0,151.0,471.0,139.0,454.0,141.0,457.0,143.0,456.5,140.5,455.5,136.5,460.5" stroke="green" stroke-width="1" fill="none" />
<polyline points="135.5,464.5,146.0,469.5,145.5,470.5,143.0,478.5,152.0,478.5,159.0,480.0,154.5,482.0,153.0,479.0,156.0,488.0,167.5,496.0,164.5,495.5" stroke="black" stroke-width="1" fill="none" />
<polyline points="166.5,500.5,164.5,501.0,165.0,503.5,166.5,499.5,164.5,499.5,161.5,501.0" stroke="green" stroke-width="1" fill="none" />
<polyline points="171.5,503.5,169.0,501.5,165.0,509.0,157.0,508.5,156.0,499.0,153.0,503.0,146.5,492.5,139.0,490.5,142.0,484.0" stroke="orange" stroke-width="1" fill="none" />
<polyline points="142.5,492.5,148.5,497.5,147.0,506.0,148.5,498.5,149.5,496.5" stroke="green" stroke-width="1" fill="none" />
<polyline points="" stroke="green" stroke-width="1" fill="none" />
<polyline points="" stroke="yellow" stroke-width="1" fill="none" />
<polyline points="" stroke="green" stroke-width="1" fill="none" />
<polyline points="149.5,488.5,148.5,489.5,155.0,489.5,157.0,489.0" stroke="yellow" stroke-width="1" fill="none" />
<polyline points="156.5,493.5,157.5,499.0,157.0,499.0,155.5,506.5,157.0,514.5,161.0,503.5,159.0,505.5,160.0,511.0,153.5,516.5" stroke="black" stroke-width="1" fill="none" />
<polyline points="145.0,497.0,144.5,491.0,143.0,484.0,138.0,478.0,142.0,481.0,146.5,484.5,144.5,487.0" stroke="green" stroke-width="1" fill="none" />
<polyline points="146.5,495.0,143.5,502.5,146.0,502.0,145.5,500.5,147.5,502.0,149.0,506.0,148.5,511.0,146.0,509.0" stroke="green" stroke-width="1" fill="none" />
<polyline points="141.0,497.0" stroke="yellow" stroke-width="1" fill="none" />
<polyline points="148.5,505.0,154.5,505.5,149.5,520.5,149.0,517.5,150.0,516.0" stroke="yellow" stroke-width="1" fill="none" />
<polyline points="139.0,510.5,140.0,505.5,141.5,514.0,138.0,505.5,133.5,498.5,140.5,490.0" stroke="orange" stroke-width="1" fill="none" />
<polyline points="140.5,485.5,141.0,498.0,130.0,503.5,138.5,497.5,137.5,490.5,139.5,490.0" stroke="green" stroke-width="1" fill="none" />
<polyline points="" stroke="black" stroke-width="1" fill="none" />
<polyline points="120.0,510.0,123.5,509.5" stroke="orange" stroke-width="1" fill="none" />
<polyline points="114.0,510.5,120.0,510.0,117.5,511.5,122.0,508.0,121.5,494.5,125.5,496.0,124.5,491.5" stroke="black" stroke-width="1" fill="none" />
<polyline points="131.0,505.0,126.5,502.5,131.5,498.5,122.0,495.5" stroke="green" stroke-width="1" fill="none" />
<polyline points="136.0,518.5,134.0,515.5,128.0,508.5,134.0,502.0,126.5,507.0,125.5,514.0" stroke="yellow" stroke-width="1" fill="none" />
<polyline points="139.5,490.0,139.5,476.0,137.5,481.5,141.0,480.0" stroke="orange" stroke-width="1" fill="none" />
<polyline points="131.0,473.5,128.0,484.5,137.0,493.0,135.0,492.0,139.5,506.0,131.0,499.0,141.5,506.0" stroke="green" stroke-width="1" fill="none" />
<polyline points="" stroke="green" stroke-width="1" fill="none" />
<polyline points="" stroke="yellow" stroke-width="1" fill="none" />
<polyline points="170.0,481.0,170.5,482.0" stroke="green" stroke-width="1" fill="none" />
<polyline points="" stroke="yellow" stroke-width="1" fill="none" />
<polyline points="166.0,473.0,161.5,466.5,172.5,472.0,174.0,470.0,175.0,482.5,161.0,483.5,167.0,482.5,169.0,497.0,173.5,489.5" stroke="green" stroke-width="1" fill="none" />
<polyline points="191.5,486.0,190.5,486.0,207.0,486.0,206.5,489.5,202.5,484.5,208.5,486.0,209.5,479.0,217.0,478.0,226.5,479.0" stroke="yellow" stroke-width="1" fill="none" />
<polyline points="232.5,461.5,232.5,460.5,230.0,456.0" stroke="yellow" stroke-width="1" fill="none" />
<polyline points="218.0,480.5,217.5,474.0,214.5,475.5,226.0,469.0,221.5,457.0,234.0,452.5,231.5,448.0,230.5,444.5,235.0,444.5,234.5,439.0,230.0,438.0,241.0,429.5,230.0,430.5,245.0,426.0,228.0,419.0,227.5,418.5,234.0,413.5,237.5,403.5,226.5,401.0,223.5,408.0" stroke="orange" stroke-width="1" fill="none" />
<polyline points="223.0,410.0,225.5,407.5,224.5,418.0,223.5,409.5,225.5,405.5" stroke="black" stroke-width="1" fill="none" />
<polyline points="244.5,419.0,222.5,413.0,225.5,416.5,232.0,425.5,219.5,423.0,226.5,414.0,224.0,417.0,227.5,418.0" stroke="orange" stroke-width="1" fill="none" />
<polyline points="250.5,418.0,246.0,425.0,243.5,427.0,239.0,424.5,233.0,431.5,240.0,436.5,243.5,444.5,240.5,443.0,245.0,445.5,239.0,456.0,239.0,455.5,229.5,461.0,235.0,473.5,229.0,467.5,222.5,473.5,223.0,479.5,225.0,480.0,215.5,488.0,220.0,486.0,219.0,484.5" stroke="black" stroke-width="1" fill="none" />
<polyline points="194.5,500.5,198.0,490.5,213.5,494.5,203.5,496.5,211.5,494.0,219.5,490.5,220.5,492.0,223.5,485.5,228.0,478.0,236.5,477.5,240.5,480.0" stroke="orange" stroke-width="1" fill="none" />
<polyline points="201.5,447.5,199.0,446.5,182.5,444.0" stroke="green" stroke-width="1" fill="none" />
<polyline points="183.5,446.0,183.5,450.0,180.5,455.0,194.0,451.0,185.0,453.0,188.0,445.5,189.5,439.5,180.5,432.0,172.5,429.0,182.5,431.5,187.5,421.0,182.0,422.5,182.0,425.0,184.0,414.0,174.5,414.0,181.0,412.0,166.5,398.0,162.0,397.5,160.5,388.5,167.5,393.5,159.0,386.5,165.5,383.0" stroke="black" stroke-width="1" fill="none" />
<polyline points="160.0,369.5,164.5,367.5,176.0,366.0,175.0,353.0,182.5,347.5,185.5,341.0,187.0,339.5,196.0,335.0,196.5,329.0,202.5,323.5,193.0,326.0,201.5,320.5" stroke="yellow" stroke-width="1" fill="none" />
<polyline points="199.0,320.0,202.5,318.5,211.5,319.5" stroke="green" stroke-width="1" fill="none" />
<polyline points="185.0,317.5,181.5,320.5,187.0,319.5,192.5,307.5,194.5,304.0,203.0,291.0,203.0,289.5,207.5,280.5,216.5,272.5,223.5,260.0,224.5,258.0,228.5,250.0,234.0,244.0,229.5,245.0,244.5,230.0,238.5,223.5,249.0,225.0,252.0,220.5,261.0,219.0,258.0,214.0" stroke="orange" stroke-width="1" fill="none" />
<polyline points="269.5,224.0,269.0,226.0" stroke="black" stroke-width="1" fill="none" />
<polyline points="273.0,235.5,272.5,235.0,268.5,230.0,261.5,244.5,262.0,242.5" stroke="black" stroke-width="1" fill="none" />
<polyline points="263.5,233.0,268.5,235.5,271.5,235.5,265.0,239.0,266.0,224.5,270.5,227.5,265.5,230.0,255.0,232.5,254.0,231.0,264.5,231.5,246.5,247.5,247.0,239.0,233.5,251.5,248.5,261.5,225.5,272.5,221.5,273.5,216.0,283.5,219.5,281.0,225.0,288.0,231.0,275.5,226.0,271.5,226.5,263.5,226.0,268.5,237.0,262.5,233.5,262.0,240.5,244.0,228.0,247.5,250.5,241.5,246.5,236.5,256.0,242.5,254.5,222.5,264.0,222.5,262.0,222.5,262.0,218.5,259.0,217.5,267.5,218.0,272.0,220.0,270.0,207.0,276.0,202.0,270.0,203.5,278.0,201.5,265.5,189.5,275.0,190.0,265.0,190.5,266.5,198.5,261.0,208.5,272.5,206.0,260.0,204.0,260.0,209.5,270.0,194.0" stroke="green" stroke-width="1" fill="none" />
<polyline points="250.0,196.0" stroke="black" stroke-width="1" fill="none" />
<polyline points="247.5,207.5,256.0,215.5,255.0,217.0,250.0,220.0,239.0,229.5,240.5,229.0,226.5,235.0,226.0,234.0,221.5,237.5,221.5,231.0,232.5,227.0,226.0,224.5,226.5,217.5,224.5,218.5,218.0,216.5,222.0,217.0,231.0,201.0,223.5,207.5,222.5,206.5,218.0,202.0,221.5,203.0,212.0,206.5" stroke="orange" stroke-width="1" fill="none" />
<polyline points="240.5,199.0,240.0,205.0,228.0,209.5" stroke="green" stroke-width="1" fill="none" />
<polyline points="" stroke="black" stroke-width="1" fill="none" />
<polyline points="" stroke="yellow" stroke-width="1" fill="none" />
<polyline points="247.0,208.5,250.5,199.0,259.0,186.0,261.0,188.0,257.5,182.0,245.5,194.5,242.0,196.0,254.5,190.5,268.0,187.5,261.0,192.0,255.5,189.0,265.5,183.5,265.5,176.5,276.5,183.5,278.5,182.5,272.0,177.0,275.0,180.5,284.5,178.0" stroke="green" stroke-width="1" fill="none" />
<polyline points="255.5,180.0,252.5,188.5,252.0,195.5,253.0,193.0,250.0,199.5,250.0,201.5,244.5,198.5,241.0,204.5,247.0,205.5,255.5,202.5,246.5,195.5,252.5,195.0,264.0,194.5,259.0,188.0,262.5,179.5,269.5,198.0,269.5,198.0,269.5,199.5" stroke="yellow" stroke-width="1" fill="none" />
<polyline points="265.5,205.5,261.0,207.5,257.5,205.0,265.0,194.0,264.0,192.5,273.0,183.5,274.5,191.0,276.0,187.5,276.5,189.0,273.0,189.5" stroke="orange" stroke-width="1" fill="none" />
<polyline points="260.5,194.5,255.0,194.0,249.5,198.5,243.5,208.0,247.5,213.0" stroke="yellow" stroke-width="1" fill="none" />
<polyline points="258.0,201.0,270.0,200.0,259.5,202.0,261.0,210.0,261.0,206.5,259.0,214.5,260.5,213.5,253.5,226.0,248.0,220.0,243.5,231.5,246.0,228.5,238.0,243.5,242.0,248.0" stroke="yellow" stroke-width="1" fill="none" />
<polyline points="" stroke="black" stroke-width="1" fill="none" />
<polyline points="" stroke="orange" stroke-width="1" fill="none" />
<polyline points="221.0,221.0,229.5,231.5" stroke="yellow" stroke-width="1" fill="none" />
<polyline points="216.0,232.5" stroke="black" stroke-width="1" fill="none" />
<polyline points="226.0,236.5,222.0,237.0,229.0,242.0,219.0,233.5,224.5,246.5" stroke="black" stroke-width="1" fill="none" />
<polyline points="230.0,234.0,224.5,232.5,220.0,231.5,218.5,226.0,212.5,222.0,216.0,229.5" stroke="yellow" stroke-width="1" fill="none" />
<polyline points="216.5,213.5,223.0,237.0,214.0,230.0,216.5,239.0,222.0,231.5,229.0,244.5,225.0,249.5,232.0,251.0,231.5,249.5" stroke="green" stroke-width="1" fill="none" />
<polyline points="225.0,252.5,222.0,266.0,218.5,270.5,213.5,274.0,207.5,288.5,197.0,287.0,196.0,292.0,196.0,304.5,188.5,318.0,187.5,318.0,184.5,328.0,180.5,325.0,171.0,327.5,171.5,334.5,161.0,334.0,157.0,333.5,153.0,335.0,153.5,340.5,144.5,351.0,141.0,347.0" stroke="orange" stroke-width="1" fill="none" />
<polyline points="140.5,343.5,146.0,336.5,146.5,342.0,153.0,340.0,145.5,327.5,152.5,328.5,149.5,325.5,151.0,327.0" stroke="green" stroke-width="1" fill="none" />
<polyline points="154.0,330.5,154.5,332.5,154.5,334.5" stroke="orange" stroke-width="1" fill="none" />
<polyline points="140.0,355.5,147.0,350.0,151.5,347.0,145.5,356.0,148.0,357.0,147.0,356.0" stroke="green" stroke-width="1" fill="none" />
<polyline points="145.5,350.5,129.0,348.5,134.0,338.5,141.5,341.0,133.0,336.5,138.0,327.5,133.5,326.5,134.0,321.5,134.0,316.5,130.5,315.0,133.0,314.0" stroke="green" stroke-width="1" fill="none" />
<polyline points="132.0,298.0,129.0,297.0" stroke="green" stroke-width="1" fill="none" />
<polyline points="135.5,292.0,139.0,308.0,138.5,303.5" stroke="yellow" stroke-width="1" fill="none" />
<polyline points="117.5,289.5,135.0,295.5,134.5,289.5,128.0,289.5,129.0,291.5" stroke="orange" stroke-width="1" fill="none" />
<polyline points="130.5,274.0,137.0,279.5,143.5,271.5,142.0,273.0" stroke="black" stroke-width="1" fill="none" />
<polyline points="152.0,267.5,157.0,264.5,157.0,267.5" stroke="orange" stroke-width="1" fill="none" />
<polyline points="153.0,262.5,153.0,272.5,155.0,274.0,154.5,269.5,158.0,273.5,159.0,267.5,161.0,270.0" stroke="orange" stroke-width="1" fill="none" />
<polyline points="151.5,272.0,155.5,271.5,153.5,274.5,154.5,274.5" stroke="orange" stroke-width="1" fill="none" />
<polyline points="175.5,265.5,167.5,260.5,171.5,258.0,169.0,255.5,175.5,256.5,165.0,256.5,167.0,262.0" stroke="yellow" stroke-width="1" fill="none" />
<polyline points="177.0,252.0,180.0,250.0" stroke="yellow" stroke-width="1" fill="none" />
<polyline points="169.5,261.5" stroke="green" stroke-width="1" fill="none" />
<polyline points="" stroke="green" stroke-width="1" fill="none" />
<polyline points="177.0,268.5,178.0,261.5,180.0,262.0,192.5,258.5,186.0,257.5,190.0,258.5,189.0,260.0" stroke="yellow" stroke-width="1" fill="none" />
<polyline points="" stroke="orange" stroke-width="1" fill="none" />
<polyline points="" stroke="black" stroke-width="1" fill="none" />
<polyline points="178.5,254.0,187.5,254.5,189.0,259.5,187.0,265.5,193.0,263.5,186.0,269.5,181.0,263.5" stroke="black" stroke-width="1" fill="none" />
<polyline points="208.0,259.0,204.0,252.0,206.5,258.0,205.5,266.5,209.0,265.0,212.0,256.0" stroke="green" stroke-width="1" fill="none" />
<polyline points="209.0,246.5,211.0,249.5,223.5,270.5,210.0,251.5,209.5,250.0,212.0,244.5,205.5,241.0,208.5,237.0,212.5,239.5,210.0,242.5,200.5,241.0,206.0,239.0,210.0,239.0,204.0,236.5" stroke="green" stroke-width="1" fill="none" />
<polyline points="206.5,245.0,207.5,236.0,210.5,247.5,214.5,245.5,216.0,239.5,222.5,244.0,215.0,249.5,211.5,249.0,211.5,249.0" stroke="yellow" stroke-width="1" fill="none" />
<polyline points="" stroke="black" stroke-width="1" fill="none" />
<polyline points="209.0,259.5" stroke="yellow" stroke-width="1" fill="none" />
<polyline points="215.0,257.5,213.0,248.0,211.5,248.5,209.5,240.0,206.0,237.5,212.5,233.0,211.5,234.5" stroke="black" stroke-width="1" fill="none" />
<polyline points="212.5,232.5,212.0,238.0,214.5,243.5,215.5,245.0,211.5,257.5,206.5,253.5,219.5,258.0,214.5,263.5,219.0,262.5,217.5,261.0" stroke="black" stroke-width="1" fill="none" />
<polyline points="" stroke="black" stroke-width="1" fill="none" />
<polyline points="199.0,256.0" stroke="black" stroke-width="1" fill="none" />
<polyline points="" stroke="yellow" stroke-width="1" fill="none" />
<polyline points="187.0,269.0,183.0,270.5,184.5,261.5,169.5,266.0,175.0,259.0,189.5,245.0,182.5,247.5,177.0,238.0,189.5,233.5,196.5,240.0,181.5,244.0,179.0,237.5,182.5,241.5,181.5,241.0,180.0,243.0" stroke="black" stroke-width="1" fill="none" />
<polyline points="195.5,217.5,199.0,212.5,189.0,229.0,190.5,222.5" stroke="orange" stroke-width="1" fill="none" />
<polyline points="185.5,226.5,184.5,220.5,191.0,227.5,188.0,233.0,188.0,237.5" stroke="orange" stroke-width="1" fill="none" />
<polyline points="180.5,241.0,181.5,242.0,183.5,239.0,184.5,241.0,187.0,240.5,185.5,238.5" stroke="yellow" stroke-width="1" fill="none" />
<polyline points="189.5,240.0,190.5,245.0,192.0,235.0,191.0,240.0,205.5,237.5,200.0,240.0" stroke="green" stroke-width="1" fill="none" />
<polyline points="218.5,225.5" stroke="black" stroke-width="1" fill="none" />
<polyline points="" stroke="black" stroke-width="1" fill="none" />
<polyline points="213.0,221.5,217.5,221.5,218.5,231.0,215.0,234.5,220.0,240.0,221.5,236.5" stroke="orange" stroke-width="1" fill="none" />
<polyline points="226.5,199.5,221.0,212.5,214.5,219.5,224.0,212.5,219.0,217.5,225.0,234.5,232.5,229.0,224.5,239.5,232.5,236.0,239.0,246.5,232.5,240.5,235.5,250.0,228.0,254.5,230.0,253.0,221.5,252.0,216.0,269.5,221.0,264.0,217.5,263.5,220.0,272.0,215.5,285.0,200.5,284.0,217.5,294.0,200.0,288.5,202.5,294.0,211.0,303.0,188.0,304.0,203.0,311.5,206.5,318.5,197.0,315.0,196.0,316.0,186.0,327.5,198.0,320.5,194.5,312.5,201.0,313.0,214.0,311.5,212.5,312.5,221.5,300.5,224.5,304.0,234.0,287.0,228.0,278.5,234.0,279.5,232.5,267.5,239.0,273.0,249.0,268.0,247.0,257.5,251.0,257.0,249.0,255.0,256.0,252.0,262.0,252.5,272.5,239.5,281.5,255.5,280.5,248.5,275.5,256.0,292.5,254.0,285.0,246.0,303.0,258.5,299.5,253.5,302.0,256.0,300.5,255.5" stroke="yellow" stroke-width="1" fill="none" />
<polyline points="" stroke="orange" stroke-width="1" fill="none" />
<polyline points="285.0,262.5,292.5,274.5,290.0,279.0,291.5,275.5,290.5,276.0" stroke="orange" stroke-width="1" fill="none" />
<polyline points="" stroke="black" stroke-width="1" fill="none" />
<polyline points="" stroke="orange" stroke-width="1" fill="none" />
<polyline points="279.5,277.5,279.5,272.5,281.5,274.0" stroke="green" stroke-width="1" fill="none" />
<polyline points="277.0,264.5,274.0,266.5" stroke="black" stroke-width="1" fill="none" />
<polyline points="284.5,268.0" stroke="yellow" stroke-width="1" fill="none" />
<polyline points="260.0,263.5,263.0,264.0,266.5,268.0,261.0,261.5" stroke="yellow" stroke-width="1" fill="none" />
<polyline points="260.0,262.5,264.0,274.5,265.0,274.0,270.0,271.0,274.0,268.5,280.5,262.0,275.5,277.0,267.0,289.0,277.0,275.5,275.5,281.0,280.0,285.0,281.0,288.5,280.5,289.5" stroke="yellow" stroke-width="1" fill="none" />
<polyline points="261.5,274.0,259.0,268.0,263.0,265.5,259.5,274.5,257.0,274.5,250.0,273.0,254.5,272.0,252.0,273.0" stroke="orange" stroke-width="1" fill="none" />
<polyline points="270.0,272.5,269.5,279.0,274.0,278.5" stroke="black" stroke-width="1" fill="none" />
<polyline points="" stroke="yellow" stroke-width="1" fill="none" />
<polyline points="255.5,266.5,253.5,271.0,255.5,279.5,254.0,275.5,260.0,271.0,269.5,280.0,270.5,280.0,274.5,280.5,284.5,279.5,285.0,278.0" stroke="orange" stroke-width="1" fill="none" />
<polyline points="284.5,259.5,288.5,264.0,284.5,255.0,281.0,261.5,288.5,253.0,278.5,252.5,274.0,253.5,279.5,252.5,281.0,249.0,276.5,248.5,273.5,252.5" stroke="orange" stroke-width="1" fill="none" />
<polyline points="271.0,244.0,273.5,243.5" stroke="orange" stroke-width="1" fill="none" />
<polyline points="" stroke="orange" stroke-width="1" fill="none" />
<polyline points="271.5,259.5,273.5,257.5,282.0,257.0,270.5,260.5,265.0,249.5,261.5,249.0,265.5,252.5,261.5,258.5" stroke="black" stroke-width="1" fill="none" />
<polyline points="264.5,273.5,260.5,271.0,262.5,268.5" stroke="black" stroke-width="1" fill="none" />
<polyline points="280.0,269.5,277.0,271.5,284.0,270.5,283.0,269.5,289.0,276.5,286.5,273.5,286.0,269.0,282.5,281.0,287.5,280.0,291.0,267.0" stroke="yellow" stroke-width="1" fill="none" />
<polyline points="" stroke="orange" stroke-width="1" fill="none" />
<polyline points="253.0,253.0,259.5,249.0,257.0,259.0,246.5,266.5,246.0,264.0,243.5,268.0,239.5,273.0,230.5,276.0,228.5,290.0,232.0,282.0,227.0,289.0,214.5,293.5,211.0,300.5,216.5,300.5,210.5,299.5,209.0,314.5,200.5,311.5,200.0,314.0,206.0,323.5,195.5,325.0,192.0,334.5,192.5,333.5,183.0,335.5,186.5,349.0,184.0,344.0,171.0,346.0,173.0,359.0,175.0,358.0,167.0,362.0,168.5,371.5,165.5,368.5,157.0,379.5,154.0,375.0,152.0,389.5,162.5,388.5,161.5,394.0,166.5,401.0,173.5,407.5,175.5,405.0,177.5,406.0,174.5,394.0,173.0,396.0,174.0,396.5" stroke="yellow" stroke-width="1" fill="none" />
<polyline points="155.0,389.0,157.0,394.0,160.5,397.0,159.5,388.5,157.5,390.5" stroke="black" stroke-width="1" fill="none" />
<polyline points="" stroke="yellow" stroke-width="1" fill="none" />
<polyline points="137.0,379.5,139.0,372.5,142.0,371.0,141.0,370.5,141.5,362.0" stroke="black" stroke-width="1" fill="none" />
<polyline points="137.0,383.5,137.0,383.5" stroke="orange" stroke-width="1" fill="none" />
<polyline points="135.0,414.5,134.0,409.5,132.5,413.0,127.0,414.0,130.0,418.5,137.5,424.5,137.0,425.0,139.0,431.5,139.0,437.0,139.0,441.5,136.5,444.0,141.0,447.0,143.5,452.5,133.5,452.5,135.5,462.5,137.5,461.0,140.5,468.0,140.5,469.0,139.0,471.5,149.5,469.0,147.0,479.0,150.5,472.5,155.5,488.5,160.5,484.5" stroke="orange" stroke-width="1" fill="none" />
<polyline points="" stroke="black" stroke-width="1" fill="none" />
<polyline points="172.5,464.0,174.5,464.0,188.5,457.5,174.5,466.5,175.0,461.5,174.0,455.5,172.0,450.0,163.5,442.5,175.5,439.0,166.5,440.0,166.5,436.5,171.0,436.0" stroke="orange" stroke-width="1" fill="none" />
<polyline points="167.5,432.5,164.0,441.0,164.5,437.0,162.0,436.5" stroke="black" stroke-width="1" fill="none" />
<polyline points="156.0,424.0,161.5,423.0,158.0,409.5,168.0,407.0,156.0,411.0,153.0,410.0,160.0,400.5,160.5,401.5,160.5,392.5,157.5,396.0,150.5,390.5,153.0,385.5,145.0,371.0,148.0,370.0,140.5,363.5,144.5,361.0,155.5,363.5,148.0,357.5" stroke="black" stroke-width="1" fill="none" />
<polyline points="145.5,364.5,148.5,364.0,143.0,360.5,147.5,357.5,154.0,367.0,149.0,377.0,153.0,378.0,152.5,383.5,153.5,381.5,152.5,379.5,156.5,398.0,154.0,392.0,163.5,404.0,175.0,397.0,173.0,405.0" stroke="orange" stroke-width="1" fill="none" />
<polyline points="182.0,425.0,175.5,429.0,169.0,441.0,169.5,442.5,171.5,437.0,173.5,439.5,173.5,452.5,176.5,450.5,185.0,458.0,175.5,451.0,178.0,469.5" stroke="green" stroke-width="1" fill="none" />
<polyline points="163.5,446.5,167.0,453.0,170.0,452.0" stroke="orange" stroke-width="1" fill="none" />
<polyline points="162.0,447.5,162.5,449.5,162.5,444.5,162.5,444.0,174.0,457.5,165.0,463.0,179.5,454.0,168.5,464.0,171.5,469.0,163.5,469.0,166.5,484.5,176.0,475.5,157.0,480.5,165.0,488.0,164.5,489.0,159.5,500.5,158.0,497.5,163.5,509.0,173.5,499.5,181.0,515.5,174.5,516.5,180.5,508.0,172.5,517.0,171.5,512.5,167.5,514.0" stroke="black" stroke-width="1" fill="none" />
<polyline points="" stroke="yellow" stroke-width="1" fill="none" />
<polyline points="" stroke="black" stroke-width="1" fill="none" />
<polyline points="" stroke="green" stroke-width="1" fill="none" />
<polyline points="150.5,449.0,164.5,450.5,152.0,445.5,152.0,442.5,151.5,439.0,146.0,434.0,160.5,429.5,149.5,425.5,146.5,428.0,141.5,418.5,134.0,409.5,134.5,407.0,137.5,404.5" stroke="orange" stroke-width="1" fill="none" />
<polyline points="137.5,398.5,152.5,398.0,146.5,396.0,154.5,387.5,148.5,393.5,145.0,401.0,144.0,402.0,143.0,400.5" stroke="orange" stroke-width="1" fill="none" />
<polyline points="136.0,406.5,134.0,410.0" stroke="black" stroke-width="1" fill="none" />
<polyline points="134.5,400.5,140.0,406.5,144.5,402.5,141.5,410.0,144.5,409.5,146.0,412.0,146.5,414.0,146.5,412.5" stroke="green" stroke-width="1" fill="none" />
<polyline points="159.0,423.5,153.0,426.5,155.5,432.0,158.0,425.5,154.0,437.5,148.5,438.0" stroke="orange" stroke-width="1" fill="none" />
<polyline points="167.5,444.5,162.5,440.5,169.5,449.0,176.5,445.5,179.5,445.0,178.5,439.5,179.0,442.0" stroke="orange" stroke-width="1" fill="none" />
<polyline points="183.5,428.5,182.5,426.5,171.0,413.5,176.5,415.0,181.0,414.0,166.5,414.5,166.5,410.5,161.5,410.5,164.5,399.0,166.0,397.5,163.5,398.0" stroke="yellow" stroke-width="1" fill="none" />
<polyline points="181.5,415.0,182.0,413.5,173.0,421.0,164.5,421.0,170.0,434.5,163.0,431.0,163.5,432.5,159.5,428.0,163.0,437.5,157.5,437.0,161.5,431.5,175.0,429.5,167.5,432.5,167.0,431.0,166.5,431.0" stroke="yellow" stroke-width="1" fill="none" />
<polyline points="164.5,431.0,165.5,428.5" stroke="yellow" stroke-width="1" fill="none" />
<polyline points="161.0,443.0,149.5,452.0,152.5,458.5,157.0,452.5,163.0,453.0,159.0,453.5,166.0,460.5,162.0,465.0" stroke="orange" stroke-width="1" fill="none" />
<polyline points="167.0,457.5,169.5,455.0,163.5,460.5,161.5,458.0,165.0,456.5" stroke="black" stroke-width="1" fill="none" />
<polyline points="" stroke="black" stroke-width="1" fill="none" />
<polyline points="149.0,451.5,148.0,453.5,153.0,455.0,156.5,451.0,156.5,455.0,153.5,456.5,163.0,456.0" stroke="orange" stroke-width="1" fill="none" />
<polyline points="146.5,445.5" stroke="black" stroke-width="1" fill="none" />
<polyline points="149.5,462.0,148.5,463.0,147.5,468.5,154.5,469.5,149.0,473.5,153.5,477.5,152.5,478.0" stroke="orange" stroke-width="1" fill="none" />
<polyline points="147.5,473.5,147.5,471.0" stroke="yellow" stroke-width="1" fill="none" />
<polyline points="141.0,465.0,150.5,462.5,153.5,464.0,158.0,469.0,152.0,466.0" stroke="green" stroke-width="1" fill="none" />
<polyline points="139.0,469.0" stroke="black" stroke-width="1" fill="none" />
<polyline points="137.0,454.5,141.0,456.5,133.5,455.5,147.5,462.5,138.5,456.0,144.0,474.0,141.0,473.0,152.0,472.0,157.0,480.0,156.5,477.5" stroke="green" stroke-width="1" fill="none" />
<polyline points="162.5,474.0,160.0,477.5,155.0,472.5,159.5,472.5,154.0,471.0,145.5,466.5,153.0,459.5,143.5,455.0,145.0,454.5" stroke="yellow" stroke-width="1" fill="none" />
<polyline points="148.5,463.0,146.5,454.0,148.0,464.5,140.5,460.0,154.0,474.0,155.5,477.0,149.0,470.5,154.0,481.0,151.0,474.5,160.0,491.5,158.5,491.5,158.0,490.0,164.5,494.5,171.5,504.5" stroke="black" stroke-width="1" fill="none" />
<polyline points="154.0,455.0,160.5,448.0,159.5,449.0,157.5,454.0,157.0,449.0,150.5,446.0,153.0,433.0,145.0,439.5,146.5,430.5,151.5,435.0,145.5,422.0" stroke="green" stroke-width="1" fill="none" />
<polyline points="" stroke="orange" stroke-width="1" fill="none" />
<polyline points="144.5,428.5,147.0,429.0" stroke="yellow" stroke-width="1" fill="none" />
<polyline points="136.5,415.0,143.5,415.5,147.5,412.0" stroke="black" stroke-width="1" fill="none" />
<polyline points="142.0,409.0,145.0,421.5,145.0,422.5,152.5,425.5,148.0,437.5,158.0,437.5,155.5,433.5,154.5,436.5" stroke="black" stroke-width="1" fill="none" />
<polyline points="153.0,421.5,156.0,425.5,152.0,408.5,152.0,411.5,146.5,406.0,149.5,399.5,149.5,395.0,144.5,392.0,142.0,393.0,142.5,394.0" stroke="black" stroke-width="1" fill="none" />
<polyline points="152.5,394.0,151.0,396.5,136.5,401.0" stroke="yellow" stroke-width="1" fill="none" />
<polyline points="" stroke="yellow" stroke-width="1" fill="none" />
<polyline points="148.0,406.5,141.0,402.0,139.5,400.5,139.5,399.0,125.5,401.0,125.0,401.0,123.0,402.5,124.0,397.0,118.5,394.5" stroke="orange" stroke-width="1" fill="none" />
<polyline points="121.0,397.5,122.0,399.5,130.0,395.0,120.0,403.0,132.5,401.0,127.0,402.0,127.5,401.5,130.5,402.0" stroke="black" stroke-width="1" fill="none" />
<polyline points="116.5,407.0,129.0,412.0,132.0,397.5,138.0,402.5,146.0,386.5,134.5,400.5,141.5,380.5,137.0,381.5,137.5,376.5,144.5,379.5,149.0,367.0,149.5,368.0,145.0,365.0,136.5,352.0,140.5,352.0,144.5,351.0,141.0,348.5,134.0,348.5,133.0,345.5,136.0,335.0,137.5,336.0,134.5,329.0,129.5,317.0,135.5,313.0,125.5,319.0,127.5,307.5,123.0,310.0,125.0,296.5,129.5,294.5,131.0,289.5,136.5,292.0,128.0,282.0,133.5,274.5,127.0,271.5" stroke="orange" stroke-width="1" fill="none" />
<polyline points="124.5,267.0,132.0,274.5,131.5,283.5,131.0,288.0,120.0,287.0,129.5,294.5,122.0,295.5,127.5,293.0,126.5,302.0,121.5,305.5,121.0,316.0,116.0,316.5,121.0,318.5,123.0,320.0,120.0,325.0,119.5,332.0,120.5,331.0,117.5,334.5,123.0,331.5,123.5,331.5" stroke="black" stroke-width="1" fill="none" />
<polyline points="" stroke="orange" stroke-width="1" fill="none" />
<polyline points="119.5,343.5,115.5,349.5,128.0,358.5,121.5,369.5,112.5,362.0,115.5,367.5,121.5,369.5,112.0,378.0,116.0,387.5,115.5,385.0,120.5,382.0,118.0,398.0,124.0,400.5,122.5,402.0" stroke="black" stroke-width="1" fill="none" />
<polyline points="121.0,396.0,120.5,389.0,111.5,379.5,122.0,392.0,126.5,381.0,118.5,370.5,123.5,380.5,119.5,373.0,113.0,357.0,121.5,371.5" stroke="orange" stroke-width="1" fill="none" />
<polyline points="119.5,385.5,127.0,379.5,126.0,384.0" stroke="yellow" stroke-width="1" fill="none" />
<polyline points="120.5,393.0,120.5,386.5,126.5,397.0,132.5,398.0" stroke="green" stroke-width="1" fill="none" />
<polyline points="131.5,395.0,124.0,391.0,131.0,397.5,142.0,391.0,134.0,390.0,143.0,390.0,139.5,392.0,143.0,396.5,137.0,394.0" stroke="yellow" stroke-width="1" fill="none" />
<polyline points="" stroke="yellow" stroke-width="1" fill="none" />
<polyline points="114.0,401.5,117.0,396.0,119.0,398.0,120.5,397.0,116.5,401.5" stroke="yellow" stroke-width="1" fill="none" />
<polyline points="122.0,409.0,124.5,407.5,127.0,405.5,127.5,418.5,126.5,421.0,131.5,423.5,140.5,424.5,132.5,429.0,138.5,436.0" stroke="green" stroke-width="1" fill="none" />
<polyline points="" stroke="black" stroke-width="1" fill="none" />
<polyline points="" stroke="green" stroke-width="1" fill="none" />
<polyline points="146.0,413.5" stroke="orange" stroke-width="1" fill="none" />
<polyline points="146.5,405.5" stroke="black" stroke-width="1" fill="none" />
<polyline points="" stroke="yellow" stroke-width="1" fill="none" />
<polyline points="152.0,391.5,149.0,392.0,150.0,389.0,146.5,389.5" stroke="orange" stroke-width="1" fill="none" />
<polyline points="171.0,405.0,173.5,404.0,172.5,407.5,174.0,411.0,178.5,413.5,173.5,413.5,174.0,414.5,176.0,410.5,176.5,409.0" stroke="yellow" stroke-width="1" fill="none" />
<polyline points="147.5,403.5,162.5,404.0,160.0,396.5,138.0,389.5,146.0,390.0,143.0,392.0,142.5,391.5,140.5,389.0,138.5,379.5,137.0,387.5,143.5,381.5,131.0,376.0,138.0,377.0,131.5,368.0,139.0,358.5,137.0,365.0,141.0,354.0,140.0,349.0,142.5,356.0,128.5,339.5,130.0,338.5,124.0,332.0,128.0,334.5,140.5,325.0" stroke="orange" stroke-width="1" fill="none" />
<polyline points="116.5,328.0,127.5,329.0,121.0,338.0,117.5,345.5,122.5,345.5" stroke="orange" stroke-width="1" fill="none" />
<polyline points="116.5,343.5,121.5,348.5,118.5,352.0,118.0,366.5,116.5,365.5,116.0,379.5,121.5,385.0,125.0,382.5,124.0,381.0,135.0,388.0,132.0,383.5,130.5,399.0,128.5,399.5" stroke="orange" stroke-width="1" fill="none" />
<polyline points="" stroke="orange" stroke-width="1" fill="none" />
<polyline points="" stroke="green" stroke-width="1" fill="none" />
<polyline points="140.0,361.0" stroke="orange" stroke-width="1" fill="none" />
<polyline points="" stroke="green" stroke-width="1" fill="none" />
<polyline points="128.5,354.0,133.0,351.5,122.0,359.5,139.5,366.0,133.5,370.0,127.0,374.0" stroke="yellow" stroke-width="1" fill="none" />
<polyline points="143.5,361.0,143.0,360.0,144.5,353.0,145.0,345.0,144.5,346.5,135.0,345.0" stroke="black" stroke-width="1" fill="none" />
<polyline points="139.0,343.0,139.0,345.0,133.5,339.5,134.0,338.0" stroke="green" stroke-width="1" fill="none" />
<polyline points="" stroke="orange" stroke-width="1" fill="none" />
<polyline points="131.0,348.0,134.5,343.5,138.5,348.0,142.0,338.5,149.0,339.0,145.5,336.0" stroke="green" stroke-width="1" fill="none" />
<polyline points="138.0,344.5,129.5,337.0,141.0,345.5,139.0,343.0" stroke="black" stroke-width="1" fill="none" />
<polyline points="123.0,346.0,118.5,352.5,116.5,351.5,118.0,362.5,113.5,366.5,121.0,368.0,115.0,370.0,119.0,378.5,123.0,382.5,121.0,393.5,112.5,396.5,117.5,396.5,118.0,406.5,120.0,396.0,118.5,407.5,116.0,419.0,111.0,415.0,116.5,413.5,114.5,411.0" stroke="yellow" stroke-width="1" fill="none" />
<polyline points="117.5,412.0,116.0,409.5" stroke="black" stroke-width="1" fill="none" />
<polyline points="124.5,423.0,125.5,419.5" stroke="green" stroke-width="1" fill="none" />
<polyline points="" stroke="yellow" stroke-width="1" fill="none" />
<polyline points="" stroke="green" stroke-width="1" fill="none" />
<polyline points="123.0,439.0,111.5,432.0,120.5,430.0,116.5,441.5,123.5,447.0,124.5,440.0,128.5,442.0" stroke="green" stroke-width="1" fill="none" />
<polyline points="119.0,442.0" stroke="black" stroke-width="1" fill="none" />
<polyline points="" stroke="black" stroke-width="1" fill="none" />
<polyline points="125.5,453.5,131.0,451.5,124.5,447.0,122.0,447.0" stroke="yellow" stroke-width="1" fill="none" />
<polyline points="111.5,451.0,107.0,442.0" stroke="yellow" stroke-width="1" fill="none" />
<polyline points="103.0,433.0,102.0,430.0" stroke="orange" stroke-width="1" fill="none" />
<polyline points="95.5,460.5,100.0,447.0,92.0,452.0,92.5,453.5" stroke="yellow" stroke-width="1" fill="none" />
<polyline points="81.5,458.5,83.5,459.0,93.5,452.0,90.0,451.0" stroke="green" stroke-width="1" fill="none" />
<polyline points="102.0,460.5,99.0,458.0,99.5,465.0" stroke="yellow" stroke-width="1" fill="none" />
<polyline points="100.0,496.0,103.5,499.0,107.0,505.0,103.5,507.5,111.0,515.0,107.5,511.0,107.5,514.0,103.0,509.5,108.5,505.5" stroke="yellow" stroke-width="1" fill="none" />
<polyline points="112.0,510.5,111.5,512.0,108.5,496.5,107.5,489.0,108.0,489.0,110.5,482.5" stroke="green" stroke-width="1" fill="none" />
<polyline points="121.0,488.5,112.0,498.0,118.0,494.5,117.5,506.0,123.0,515.0,116.0,514.5,119.0,508.0" stroke="yellow" stroke-width="1" fill="none" />
<polyline points="98.5,503.0,97.5,503.0,97.0,504.0,102.0,506.5" stroke="black" stroke-width="1" fill="none" />
<polyline points="99.5,498.5,100.5,492.5,95.5,492.0,100.5,504.5,100.5,513.0,105.5,511.0" stroke="green" stroke-width="1" fill="none" />
<polyline points="119.5,510.5,123.0,501.5,123.5,493.5,116.0,495.5,123.0,488.5,120.5,476.5" stroke="orange" stroke-width="1" fill="none" />
<polyline points="126.5,483.5,127.5,491.5,129.0,489.0,126.5,493.5,131.5,500.0,127.0,503.5,124.5,506.0,128.5,509.5" stroke="orange" stroke-width="1" fill="none" />
<polyline points="150.5,441.0,147.0,424.0,146.0,423.5,138.0,415.5,129.0,423.0,135.0,419.5" stroke="black" stroke-width="1" fill="none" />
<polyline points="133.0,426.0,137.0,422.0,131.0,422.5,143.5,432.0,140.5,432.5,142.5,441.5,148.5,449.0,148.0,452.0,142.0,452.0,132.0,459.5,136.5,453.5,132.0,476.0,133.5,459.0,138.0,457.0,138.5,459.5,137.0,462.5,133.5,461.0,131.0,463.5" stroke="yellow" stroke-width="1" fill="none" />
<polyline points="138.5,444.5,138.5,444.5,144.5,425.0,135.0,428.5,139.0,425.5" stroke="green" stroke-width="1" fill="none" />
<polyline points="128.0,430.5,126.0,430.5,123.5,424.0,127.5,415.5,126.5,415.5" stroke="yellow" stroke-width="1" fill="none" />
<polyline points="109.5,419.5,116.0,432.0" stroke="yellow" stroke-width="1" fill="none" />
<polyline points="" stroke="orange" stroke-width="1" fill="none" />
<polyline points="100.5,411.0,110.5,418.0,103.5,429.0,104.5,436.5,110.0,433.0,108.5,440.0" stroke="orange" stroke-width="1" fill="none" />
<polyline points="100.0,441.0,96.0,438.0,93.5,441.0,87.5,441.5,93.0,444.5,101.5,438.5,99.0,440.5,101.0,425.0,104.0,429.0,111.5,423.5" stroke="green" stroke-width="1" fill="none" />
<polyline points="96.5,426.5,90.0,428.0,95.0,428.5,93.0,427.5,95.0,430.0,91.0,426.0" stroke="yellow" stroke-width="1" fill="none" />
<polyline points="87.0,422.5,94.5,420.5,76.0,425.0,86.5,417.5,89.0,418.0,94.5,423.5" stroke="orange" stroke-width="1" fill="none" />
<polyline points="96.0,405.0" stroke="green" stroke-width="1" fill="none" />
<polyline points="" stroke="yellow" stroke-width="1" fill="none" />
<polyline points="95.0,391.5,85.0,399.5,100.0,400.0,100.5,395.0,90.5,411.5" stroke="yellow" stroke-width="1" fill="none" />
<polyline points="98.0,409.0,99.5,408.5,94.5,407.5,95.0,404.0,98.0,409.5,91.0,403.0,90.5,407.5,100.0,395.5,90.5,393.5,91.0,382.0,79.5,384.5,88.5,390.0,87.5,387.5,86.0,385.5" stroke="orange" stroke-width="1" fill="none" />
<polyline points="83.0,397.0,73.0,401.5,69.0,404.0,70.5,400.0,75.0,405.0,67.0,421.5,72.5,419.5,68.0,414.0,69.5,418.5,65.0,421.0,66.0,424.0,78.0,430.0,73.0,436.0,72.0,431.0,70.5,443.5,66.0,444.0,72.5,446.0,72.5,448.0,68.5,454.5,71.5,459.0,71.0,462.0,84.0,459.5,71.0,471.0,58.5,480.0,70.0,485.0,63.0,479.5,64.0,488.0,69.5,493.0,64.0,497.0,69.5,501.0,63.0,500.0,67.5,504.5,64.0,513.0,55.5,514.0,69.5,502.0,59.0,507.5" stroke="black" stroke-width="1" fill="none" />
<polyline points="62.5,505.5" stroke="green" stroke-width="1" fill="none" />
<polyline points="73.0,487.0,72.0,488.5" stroke="green" stroke-width="1" fill="none" />
<polyline points="66.0,479.0,67.0,476.0,60.5,476.5,68.0,481.5,68.0,486.0,66.5,482.5,66.0,490.5,67.0,497.0,68.0,496.5,69.5,489.5,68.0,491.5" stroke="green" stroke-width="1" fill="none" />
<polyline points="65.5,462.0,66.5,470.5,74.0,457.0,81.0,457.0,82.5,448.5,80.5,447.5" stroke="orange" stroke-width="1" fill="none" />
<polyline points="" stroke="orange" stroke-width="1" fill="none" />
<polyline points="73.0,451.5,76.5,453.0" stroke="green" stroke-width="1" fill="none" />
<polyline points="64.5,450.5,66.0,469.0,65.5,461.5,61.0,462.5,65.0,460.0,70.5,471.5,72.0,475.0,74.5,485.0,73.5,486.0" stroke="yellow" stroke-width="1" fill="none" />
<polyline points="29.5,503.0" stroke="yellow" stroke-width="1" fill="none" />
<polyline points="14.5,496.0,18.0,503.0,17.5,504.0,17.0,505.0,16.0,511.0,16.0,515.0" stroke="yellow" stroke-width="1" fill="none" />
<polyline points="12.5,502.5,16.0,497.5" stroke="black" stroke-width="1" fill="none" />
<polyline points="" stroke="yellow" stroke-width="1" fill="none" />
<polyline points="15.5,418.0,11.0,418.0,8.0,425.0,10.5,420.5,0.5,431.0,10.0,432.5,11.0,440.5,13.0,443.0,11.5,445.0,16.0,442.5,10.0,446.5,19.0,453.0,14.0,454.5,11.0,465.0,11.0,459.5,19.5,474.5,14.0,465.5" stroke="yellow" stroke-width="1" fill="none" />
<polyline points="32.5,463.5,31.5,455.0,30.0,459.5,26.0,458.5,33.0,445.0,32.0,442.0,32.5,439.5" stroke="green" stroke-width="1" fill="none" />
<polyline points="29.0,418.5,29.0,413.5,29.5,414.0" stroke="green" stroke-width="1" fill="none" />
<polyline points="25.5,413.0,28.0,421.5,15.0,421.5,19.0,428.0,19.0,429.0,21.5,444.5,32.0,441.0,14.0,440.0,28.0,447.0,25.0,452.0,30.5,449.0,17.5,459.5,28.0,459.0,27.0,460.5,24.0,472.5,28.5,478.0,31.0,474.5,24.0,475.5,30.0,485.0,25.0,492.5,20.5,498.0,31.5,500.5,34.5,499.0" stroke="orange" stroke-width="1" fill="none" />
<polyline points="57.5,433.0,65.0,429.5,66.5,436.5" stroke="black" stroke-width="1" fill="none" />
<polyline points="71.0,423.5,73.0,426.0,68.0,426.5,66.5,420.5,64.5,413.5,69.5,420.0,61.0,406.0,67.0,402.0,79.0,395.5,73.0,395.5,81.0,392.0,63.5,403.0,73.5,399.0" stroke="green" stroke-width="1" fill="none" />
<polyline points="" stroke="yellow" stroke-width="1" fill="none" />
<polyline points="" stroke="yellow" stroke-width="1" fill="none" />
<polyline points="74.0,404.0,67.0,406.0,74.5,415.5,65.0,421.5,59.5,425.5,69.0,426.5" stroke="black" stroke-width="1" fill="none" />
<polyline points="72.5,420.0,72.0,417.0,69.0,422.0,73.0,425.0,76.0,424.5" stroke="orange" stroke-width="1" fill="none" />
<polyline points="100.5,443.5,97.5,437.0,102.0,437.0,100.5,440.0" stroke="yellow" stroke-width="1" fill="none" />
<polyline points="" stroke="black" stroke-width="1" fill="none" />
<polyline points="111.5,406.5,106.5,408.0,96.5,414.0,92.0,420.0,97.5,415.0" stroke="black" stroke-width="1" fill="none" />
<polyline points="93.0,407.5,103.5,396.0,107.5,401.0,100.5,398.5,100.5,394.5,99.0,398.0,94.5,398.0,98.0,402.0" stroke="green" stroke-width="1" fill="none" />
<polyline points="97.5,369.0,103.5,372.0,105.0,377.0,101.0,366.5,107.5,361.0,104.0,359.0,109.0,355.5,110.0,357.0,107.5,362.5,109.5,351.5,108.5,341.5,107.0,335.0" stroke="green" stroke-width="1" fill="none" />
<polyline points="113.0,342.5,100.5,331.0,103.0,335.5,105.5,334.5,102.0,336.0" stroke="orange" stroke-width="1" fill="none" />
<polyline points="" stroke="yellow" stroke-width="1" fill="none" />
<polyline points="102.5,325.0,109.0,304.5,119.0,315.0,125.5,308.0,127.0,308.5,123.0,312.5,114.5,315.5,112.0,323.0,104.0,309.5,104.0,310.0,115.0,311.5,113.0,319.0,101.0,318.0,102.5,317.5,111.0,318.0,113.0,311.5,120.5,305.5,116.5,297.5,117.5,301.5,121.0,296.0" stroke="black" stroke-width="1" fill="none" />
<polyline points="118.0,309.5,125.5,311.5,122.0,312.0,118.0,319.5,111.5,324.5,120.0,323.0,112.0,329.0,106.0,333.0,97.0,340.0,92.0,338.5,100.5,347.0,90.0,335.5,91.0,333.5" stroke="black" stroke-width="1" fill="none" />
<polyline points="" stroke="green" stroke-width="1" fill="none" />
<polyline points="95.5,366.5,98.5,368.5,92.0,373.5,98.5,374.5,92.0,385.0,88.5,393.5,84.0,396.5,93.5,392.5,89.0,384.5,87.5,403.5,92.5,405.5,90.0,408.5,93.0,413.5,91.5,416.0,104.5,404.5,108.5,421.0,103.5,409.5,113.0,400.0" stroke="green" stroke-width="1" fill="none" />
<polyline points="124.5,354.0" stroke="orange" stroke-width="1" fill="none" />
<polyline points="119.0,377.0,118.5,375.0,126.5,391.0,127.5,388.5,125.0,390.5,121.5,390.0,129.5,400.0,126.0,406.5,133.0,401.5,134.0,395.0" stroke="black" stroke-width="1" fill="none" />
<polyline points="122.5,369.5,118.5,361.5,122.0,359.5,121.5,356.5,116.5,358.5" stroke="green" stroke-width="1" fill="none" />
<polyline points="128.0,374.0,118.5,374.0,125.5,375.0,134.0,379.5,132.5,381.0" stroke="orange" stroke-width="1" fill="none" />
<polyline points="130.0,364.0,126.5,364.5" stroke="yellow" stroke-width="1" fill="none" />
<polyline points="130.0,359.0,132.0,373.5,136.5,371.5,138.5,367.0" stroke="black" stroke-width="1" fill="none" />
<polyline points="174.5,367.0,176.0,356.0,181.0,355.5,177.0,343.0,185.0,341.0,183.5,336.5" stroke="green" stroke-width="1" fill="none" />
<polyline points="176.0,341.0,169.5,341.5,163.5,347.0,168.5,353.0,161.0,357.0,159.0,370.5,161.5,368.5,164.5,371.5,165.5,356.5,176.5,357.0,178.0,351.0,175.0,344.5,177.5,336.5,189.0,340.5,191.0,330.0,187.0,338.0,189.0,324.0,189.0,327.5,190.0,331.0,193.5,333.5" stroke="black" stroke-width="1" fill="none" />
<polyline points="189.0,341.0,183.5,345.5" stroke="green" stroke-width="1" fill="none" />
<polyline points="198.5,361.0,197.0,365.5,194.5,351.5,190.0,352.5,192.5,343.5" stroke="black" stroke-width="1" fill="none" />
<polyline points="164.5,356.5,166.0,366.5,167.5,357.0,168.0,360.0,171.0,364.5" stroke="orange" stroke-width="1" fill="none" />
<polyline points="159.0,369.5,164.0,368.0,161.0,359.0,166.5,361.0,158.0,367.5,156.0,367.0,161.0,361.5,166.5,352.0,170.5,353.0,173.5,347.0,176.0,342.5,177.0,337.5,179.5,339.0,185.0,334.5,176.0,329.5,162.5,322.5,167.0,337.0,163.0,341.5,163.0,340.0,161.0,333.0,165.5,331.0,164.5,333.5,168.5,327.5" stroke="black" stroke-width="1" fill="none" />
<polyline points="169.0,338.5,169.5,333.5,168.0,343.5,169.0,339.0,171.5,334.5,169.0,326.0,174.0,323.0" stroke="green" stroke-width="1" fill="none" />
<polyline points="" stroke="yellow" stroke-width="1" fill="none" />
<polyline points="169.0,331.0,167.0,319.0,164.0,323.0,155.0,328.5,147.5,340.5,154.0,345.5,155.0,336.0,142.5,349.5,141.5,336.0,142.5,335.0,135.5,340.0,132.0,335.0,139.0,327.5,135.0,322.5,134.5,315.5,125.5,305.0,130.0,314.5,132.0,303.5,133.0,303.0,130.0,301.0,131.0,299.0,140.0,291.0,144.0,295.5,136.0,283.5,135.5,276.0,134.0,277.5,134.0,284.5,139.5,283.5,136.0,281.0,145.0,281.0,142.5,272.5,134.5,276.5,152.0,266.5,156.0,248.5,155.0,253.0,165.5,249.5,160.5,242.5,166.0,244.0,154.0,248.0,152.5,250.0" stroke="green" stroke-width="1" fill="none" />
<polyline points="147.5,249.5" stroke="black" stroke-width="1" fill="none" />
<polyline points="144.5,249.0,144.5,251.0,143.0,249.5,154.0,256.0,148.0,260.0" stroke="yellow" stroke-width="1" fill="none" />
<polyline points="145.0,267.0,139.5,269.0,133.5,276.0,135.0,270.5,137.5,275.5,131.5,275.0" stroke="black" stroke-width="1" fill="none" />
<polyline points="153.5,268.0,148.5,268.5,157.0,262.0,158.5,257.5,157.0,265.5,156.5,263.0,151.5,268.0,149.0,273.0,147.0,275.5,147.0,275.0,146.5,293.5,151.0,289.0,155.5,286.5,159.5,285.0,161.0,288.0,162.5,301.0,159.5,304.0,157.0,302.5,165.5,308.5,165.0,317.0,159.5,318.5,159.0,319.0,162.5,317.0,165.5,317.5,169.5,315.5,167.5,309.0,172.5,305.0,173.5,294.5,186.5,292.0,184.0,293.5,182.5,293.5" stroke="black" stroke-width="1" fill="none" />
<polyline points="177.0,300.0,181.0,299.0,180.0,299.0" stroke="orange" stroke-width="1" fill="none" />
<polyline points="" stroke="green" stroke-width="1" fill="none" />
<polyline points="178.5,296.5,172.0,306.5,177.5,304.0,184.5,304.0,176.0,309.5,176.5,308.0,182.5,315.0" stroke="yellow" stroke-width="1" fill="none" />
<polyline points="166.5,311.0,166.5,309.5,170.5,310.0" stroke="orange" stroke-width="1" fill="none" />
<polyline points="167.0,308.0,165.0,297.0,174.5,298.5,177.0,296.0,174.5,286.0,167.0,287.5,174.5,294.0,162.5,301.5,164.5,286.5,168.0,284.5,176.0,286.5,175.0,280.5,177.5,285.5,162.5,281.5,167.0,285.0,165.5,289.5,166.0,284.5,169.0,297.5,163.5,274.0,165.5,280.5,163.0,276.0,164.5,270.5,164.5,263.0,171.5,264.0,172.0,260.0,169.5,264.5,172.0,256.0,173.5,245.5,179.0,248.0,172.5,238.5,175.0,238.5,180.5,233.0,182.0,238.0,173.5,241.5" stroke="orange" stroke-width="1" fill="none" />
<polyline points="185.0,224.5,183.5,234.5,178.0,245.0,179.0,242.5,181.5,245.0,175.0,248.5,173.5,249.0,189.5,257.0,183.0,254.5" stroke="black" stroke-width="1" fill="none" />
<polyline points="192.5,254.0,188.0,253.0,184.0,252.5,184.0,249.5" stroke="yellow" stroke-width="1" fill="none" />
<polyline points="223.0,271.5,230.5,270.5,224.5,275.5,230.0,276.0,238.0,269.0,233.5,269.5" stroke="yellow" stroke-width="1" fill="none" />
<polyline points="214.5,320.5,219.0,319.5,215.0,328.5,216.0,326.0,217.0,331.0,218.5,333.0,225.5,343.5,213.0,350.0,220.5,342.5,216.0,360.5" stroke="yellow" stroke-width="1" fill="none" />
<polyline points="255.5,380.5,251.5,385.5,252.5,376.5,258.5,388.5,262.0,375.5,270.0,390.5,261.5,379.0" stroke="black" stroke-width="1" fill="none" />
<polyline points="267.0,387.0,265.5,380.0,251.5,392.5,257.5,397.5,256.5,393.0,245.5,392.0,244.0,394.0,251.0,391.0,240.5,396.0" stroke="orange" stroke-width="1" fill="none" />
<polyline points="277.5,348.0,272.5,351.0,274.5,351.5" stroke="black" stroke-width="1" fill="none" />
<polyline points="275.0,350.0,277.5,349.0,280.0,347.0,274.0,348.0" stroke="yellow" stroke-width="1" fill="none" />
<polyline points="218.5,355.5,220.0,347.5,222.0,350.0,220.0,342.0,224.5,334.5,221.5,332.0,225.5,327.5,222.5,324.0,219.5,312.5,219.5,312.5,221.5,315.0,214.5,307.0,221.5,302.5,215.5,313.5" stroke="green" stroke-width="1" fill="none" />
<polyline points="171.5,292.5,174.5,291.5,171.5,291.5,172.5,288.5" stroke="orange" stroke-width="1" fill="none" />
<polyline points="175.0,298.5,176.0,301.5,180.0,308.0,174.0,309.5" stroke="black" stroke-width="1" fill="none" />
<polyline points="155.5,310.0,163.5,307.5,154.0,301.5,154.0,308.0,152.0,312.5,155.0,313.0" stroke="yellow" stroke-width="1" fill="none" />
<polyline points="161.0,313.5,162.5,309.5,163.5,311.5" stroke="orange" stroke-width="1" fill="none" />
<polyline points="166.5,313.0,164.5,312.5,164.5,316.0,159.0,315.0,157.5,318.0" stroke="black" stroke-width="1" fill="none" />
<polyline points="156.0,295.5" stroke="black" stroke-width="1" fill="none" />
<polyline points="" stroke="orange" stroke-width="1" fill="none" />
<polyline points="165.0,292.5,163.5,290.5,143.5,289.0" stroke="green" stroke-width="1" fill="none" />
<polyline points="152.5,285.0,150.5,285.0,150.0,283.0" stroke="orange" stroke-width="1" fill="none" />
<polyline points="173.0,291.0,174.0,293.0,173.5,298.5,167.0,291.0" stroke="black" stroke-width="1" fill="none" />
<polyline points="179.5,296.5,177.5,303.0,171.5,310.5,168.0,307.0,168.5,305.0" stroke="green" stroke-width="1" fill="none" />
<polyline points="158.0,295.5,158.5,293.5" stroke="black" stroke-width="1" fill="none" />
<polyline points="161.0,289.0,166.5,293.0,164.0,297.5,172.5,295.0,171.0,296.0" stroke="black" stroke-width="1" fill="none" />
<polyline points="172.5,285.0,178.0,297.5,168.5,294.0,173.0,303.0,169.0,311.5,168.0,313.0,167.0,310.0,160.5,318.0,171.5,316.0,170.0,319.0,168.5,332.5,163.0,334.0,155.5,334.5,158.5,339.0,158.5,337.5,154.5,347.5,147.5,351.5,154.0,355.5,146.5,355.5,145.0,348.0,144.5,346.0,153.5,353.0,157.0,356.0,167.5,347.5,162.0,342.0,159.0,341.5,163.0,344.0" stroke="yellow" stroke-width="1" fill="none" />
<polyline points="" stroke="orange" stroke-width="1" fill="none" />
<polyline points="157.5,276.5,167.0,277.0,169.5,275.0,159.5,265.0,152.5,264.0,161.5,261.0,157.5,255.5" stroke="orange" stroke-width="1" fill="none" />
<polyline points="166.5,264.0,172.0,261.5,169.0,267.5,166.0,275.5,167.5,280.5,167.0,275.5" stroke="black" stroke-width="1" fill="none" />
<polyline points="" stroke="yellow" stroke-width="1" fill="none" />
<polyline points="144.0,281.0,155.0,282.0,152.5,273.0,159.0,278.5,158.0,280.5,161.5,288.0,164.0,276.5,166.5,280.5,161.5,285.0,179.5,280.5,170.5,293.0,172.5,282.0,178.5,283.5" stroke="black" stroke-width="1" fill="none" />
<polyline points="170.0,291.5,163.0,293.5,172.0,287.5,163.0,289.0,167.0,289.5" stroke="yellow" stroke-width="1" fill="none" />
<polyline points="159.5,287.5,167.5,283.5,158.0,295.0,163.5,288.0,164.5,287.5,160.0,288.0" stroke="green" stroke-width="1" fill="none" />
<polyline points="149.0,294.0,156.5,291.0,154.5,275.0,155.5,277.0,151.5,270.5,150.5,263.5,158.5,264.5,167.0,268.0,165.5,248.5,167.0,257.5,165.5,249.0,163.0,248.0,165.5,242.0,162.0,238.0,164.5,248.0,158.0,255.5,156.5,248.5,145.5,256.0,141.0,259.5,148.0,252.5,139.5,270.0,132.5,256.5,138.0,265.0,124.0,257.0,130.5,270.0,131.5,274.0,135.0,261.5,134.0,253.5,141.0,252.0,128.5,252.5,133.5,243.0,142.5,243.5,135.5,245.5,139.0,238.0,145.0,228.0,134.0,233.5,137.0,224.0,138.5,226.5,133.5,221.0,139.0,217.0,122.0,214.0,129.0,200.0,121.5,200.0,127.5,202.0,115.5,199.0,123.5,189.5,122.0,176.5,116.5,182.0,118.5,179.5,121.5,175.0,119.0,164.0,122.5,160.0,121.0,163.0,117.0,149.0,120.5,144.5,118.0,142.5,120.5,138.5,124.5,139.5,121.0,133.5,124.0,133.5,129.5,125.0,132.5,128.5,128.0,114.5,133.5,119.0,134.5,106.5,139.0,114.0,135.5,98.0,143.5,103.0,138.5,106.5,141.5,97.0,141.0,98.0,139.0,106.5" stroke="green" stroke-width="1" fill="none" />
<polyline points="132.0,104.0,139.5,112.5,141.5,109.0,139.5,119.5,132.0,129.5,126.5,122.0,134.5,136.0,134.0,133.5,128.0,138.0,138.0,136.5,138.0,151.5,133.0,146.5,130.0,145.5,126.5,146.5,127.5,151.5,128.0,153.5,124.5,156.5" stroke="black" stroke-width="1" fill="none" />
<polyline points="126.0,151.0,137.0,154.5,136.0,155.0,129.0,156.5,127.0,165.0,126.5,167.5,126.0,170.5,131.5,163.0,126.0,161.5,130.0,166.0,128.5,168.5,129.5,172.5,132.5,171.0" stroke="black" stroke-width="1" fill="none" />
<polyline points="140.5,184.0,143.0,183.0,124.0,180.0,131.0,180.0,139.0,175.0,137.5,171.5,137.5,175.5" stroke="orange" stroke-width="1" fill="none" />
<polyline points="129.5,175.0,137.0,176.0,133.0,177.0,143.5,176.0,132.0,171.5,134.5,171.0,134.5,173.0,135.0,171.5" stroke="green" stroke-width="1" fill="none" />
<polyline points="140.0,177.5,140.5,177.5,136.0,178.0" stroke="orange" stroke-width="1" fill="none" />
<polyline points="135.0,171.5,133.5,181.5,133.5,172.5,142.0,172.5,134.0,166.0" stroke="orange" stroke-width="1" fill="none" />
<polyline points="140.5,180.5,139.0,179.5,146.5,175.5,143.5,192.5,135.0,184.5,143.5,202.5,139.5,194.5,140.5,195.5,145.5,192.0,153.0,195.0,148.0,201.0" stroke="green" stroke-width="1" fill="none" />
<polyline points="155.0,200.5" stroke="green" stroke-width="1" fill="none" />
<polyline points="153.0,196.0,149.5,185.5,146.0,193.0,149.5,190.5" stroke="yellow" stroke-width="1" fill="none" />
<polyline points="" stroke="yellow" stroke-width="1" fill="none" />
<polyline points="153.5,201.5,150.5,192.0,146.5,194.5,150.0,194.0,144.5,186.0,139.0,192.5,148.0,177.5,149.0,182.5,143.5,185.0" stroke="orange" stroke-width="1" fill="none" />
<polyline points="137.0,176.5,149.5,183.0,149.5,192.5,152.5,183.0,145.5,195.0" stroke="yellow" stroke-width="1" fill="none" />
<polyline points="151.0,188.5,150.0,186.0" stroke="yellow" stroke-width="1" fill="none" />
<polyline points="159.0,175.5,163.5,179.0,172.0,178.0,175.5,170.5,169.5,162.5,177.0,168.5,183.0,158.0,188.5,160.5,189.5,153.5,194.5,150.0,202.5,152.5,202.5,145.5" stroke="orange" stroke-width="1" fill="none" />
<polyline points="207.0,151.5,205.5,154.5,213.5,155.5,214.0,153.0" stroke="yellow" stroke-width="1" fill="none" />
<polyline points="219.5,155.5,227.0,156.0,223.0,155.5,219.0,155.5,217.5,158.0,214.5,154.5,216.0,159.5,212.5,155.0" stroke="yellow" stroke-width="1" fill="none" />
<polyline points="220.0,149.0,218.5,145.0,222.5,153.0" stroke="orange" stroke-width="1" fill="none" />
<polyline points="222.5,177.5,225.5,165.5,220.5,175.0,217.5,185.5,214.5,191.5,213.0,188.5,210.0,182.5,203.0,193.0,202.5,193.0" stroke="green" stroke-width="1" fill="none" />
<polyline points="219.5,187.0,216.5,188.5,215.5,187.0,209.5,189.5,223.0,179.0,219.0,172.0,226.0,179.0,234.5,173.0,230.5,172.0,243.0,165.0,246.5,172.5,242.0,177.0,233.5,177.5,239.0,183.0,234.5,173.0,236.0,177.0" stroke="green" stroke-width="1" fill="none" />
<polyline points="233.5,184.0,231.5,187.5,234.5,184.0,225.5,191.5,223.5,198.0,223.0,192.0,215.5,205.5,202.0,216.0,202.5,210.0,202.5,216.5,204.5,222.0,201.0,227.5,205.0,228.5,213.5,233.5,208.5,235.5,213.0,233.0,210.5,234.0" stroke="yellow" stroke-width="1" fill="none" />
<polyline points="206.0,203.0,213.0,208.5,214.0,195.0,215.5,190.5,217.5,194.5,227.0,194.0,230.0,184.0" stroke="black" stroke-width="1" fill="none" />
<polyline points="219.0,198.0,211.0,202.0,215.0,203.5,207.5,202.0,207.0,208.0,201.5,206.5,205.0,205.0,209.5,202.5,216.0,196.5,223.5,196.5,223.5,204.5,225.5,196.5,227.5,197.0,223.0,199.0,227.5,196.0" stroke="green" stroke-width="1" fill="none" />
<polyline points="218.0,198.5,219.0,191.5,226.0,194.5,227.5,194.5,224.5,194.5,223.5,196.5" stroke="black" stroke-width="1" fill="none" />
<polyline points="217.0,177.5,221.0,186.5,222.0,186.5,222.5,185.0" stroke="orange" stroke-width="1" fill="none" />
<polyline points="231.5,170.0,229.0,174.5,221.0,186.0,230.0,191.5,220.5,197.5,207.0,191.0,208.0,193.0" stroke="orange" stroke-width="1" fill="none" />
<polyline points="" stroke="orange" stroke-width="1" fill="none" />
<polyline points="" stroke="orange" stroke-width="1" fill="none" />
<polyline points="207.0,204.0,195.0,202.5,204.5,196.5,187.5,198.5,191.0,206.0,196.0,196.5,185.5,207.0,183.5,206.0,189.5,198.0,185.5,193.5" stroke="orange" stroke-width="1" fill="none" />
<polyline points="188.0,200.0" stroke="green" stroke-width="1" fill="none" />
<polyline points="184.5,207.5,189.0,209.0,196.0,208.0,190.0,221.0,183.5,216.0,188.5,225.5,194.5,216.0,191.5,211.5,186.5,207.0" stroke="green" stroke-width="1" fill="none" />
<polyline points="" stroke="green" stroke-width="1" fill="none" />
<polyline points="180.0,215.5,175.5,212.0,186.5,213.5,184.0,215.0,185.0,216.5,182.5,214.0" stroke="black" stroke-width="1" fill="none" />
<polyline points="172.0,215.0" stroke="yellow" stroke-width="1" fill="none" />
<polyline points="169.0,217.0,161.5,221.5,171.0,226.0,170.0,225.0" stroke="yellow" stroke-width="1" fill="none" />
<polyline points="187.0,221.0,181.5,228.5,170.0,224.5,158.5,231.0,178.0,238.0,170.0,235.5,168.5,232.0" stroke="green" stroke-width="1" fill="none" />
<polyline points="163.0,249.5,172.0,246.5,165.0,249.5,166.0,249.0" stroke="black" stroke-width="1" fill="none" />
<polyline points="161.5,258.0,154.5,262.5,154.5,259.0,150.0,271.0,133.5,260.0,133.0,273.5,132.5,276.0,131.0,272.0,124.0,276.5,116.5,267.0,112.5,260.0,124.0,261.5,112.5,263.5,112.0,264.0" stroke="yellow" stroke-width="1" fill="none" />
<polyline points="116.0,267.5,113.0,262.0,115.5,265.0" stroke="yellow" stroke-width="1" fill="none" />
<polyline points="110.5,270.5,114.5,278.0,120.0,277.0,104.0,284.0,108.5,286.0,107.5,301.5,106.5,298.0,98.0,304.5,87.0,311.5,89.0,310.0,87.5,311.5,81.5,325.0,80.0,328.0,88.0,340.5,83.0,334.0,87.0,340.5,81.0,340.5,87.5,351.0,87.5,349.5,74.0,355.5,76.5,356.0,72.5,358.0,65.0,356.5,72.5,362.5,65.5,356.0,72.5,350.0,73.0,346.0,88.0,333.5,85.5,333.5,94.0,328.5" stroke="black" stroke-width="1" fill="none" />
<polyline points="91.5,326.5,101.5,330.5,96.5,323.0,91.5,330.5,84.0,330.0,90.0,337.5,81.0,336.0,82.5,345.5,77.0,345.5,74.5,350.5,66.0,358.5,60.5,358.0,60.5,366.0,63.0,366.5,70.0,365.5,69.5,356.0,72.0,344.5,82.0,345.5,85.0,339.5,89.0,336.0,83.0,342.5,93.0,343.5,89.0,348.0,84.5,348.0,87.0,357.0,75.5,354.5,85.0,371.5,80.5,366.0,78.5,370.5,86.0,370.5,82.0,370.0,83.5,350.0,92.0,359.0,95.0,346.5" stroke="orange" stroke-width="1" fill="none" />
<polyline points="105.0,349.0,96.0,355.5,102.5,359.0,100.5,368.0,101.5,365.0,94.0,379.0,101.0,375.0,102.0,376.5,103.5,373.5,103.5,373.0" stroke="black" stroke-width="1" fill="none" />
<polyline points="109.5,372.0,112.5,363.0,103.5,357.0,104.0,359.0,101.0,360.5,101.0,356.5" stroke="yellow" stroke-width="1" fill="none" />
<polyline points="105.5,362.0,106.5,367.0,113.5,362.5,105.0,363.0,113.0,364.5,111.0,366.0" stroke="green" stroke-width="1" fill="none" />
<polyline points="109.5,358.0" stroke="yellow" stroke-width="1" fill="none" />
<polyline points="125.0,353.0,125.0,358.0,126.0,363.0,136.5,356.0,132.5,370.5" stroke="green" stroke-width="1" fill="none" />
<polyline points="" stroke="yellow" stroke-width="1" fill="none" />
<polyline points="72.5,367.0,82.5,361.0,85.5,351.0,86.5,348.0,92.0,347.5,76.5,355.0,73.5,353.5,67.0,364.5,76.0,359.5,70.5,378.0,77.0,373.0,77.5,368.0,78.0,368.5,81.5,367.5" stroke="green" stroke-width="1" fill="none" />
<polyline points="83.5,385.0,79.0,381.5,74.0,389.5,70.0,393.5,60.5,389.5,62.0,398.0,49.0,397.5,61.5,404.0,62.0,394.0,74.0,388.0,79.5,385.5,75.0,382.5,76.5,381.5,69.0,382.5,63.0,392.5,67.0,396.0,66.0,391.5,55.0,406.0,66.5,400.5,68.0,395.5,72.5,385.0,82.5,384.0,82.0,382.5,85.5,370.0,93.5,371.5,86.5,364.0,82.0,363.0,91.5,350.5,91.5,359.0,90.0,347.5,90.5,353.0,96.5,355.0,96.0,341.0,96.5,348.0,99.5,347.5,86.5,362.0,96.0,344.0,93.0,338.0,97.5,339.5,102.5,332.0,93.5,327.5,98.0,325.0,94.0,315.5,94.0,316.5,95.5,311.5,99.0,308.5,103.0,306.0,103.5,295.5,106.5,309.5,94.5,315.5,101.0,320.0,95.5,318.5,96.0,314.0" stroke="green" stroke-width="1" fill="none" />
<polyline points="84.0,313.5,86.0,312.0,89.5,313.5,90.0,314.5,83.5,306.0,96.0,305.5,99.0,302.5,115.5,292.0,106.5,292.0,109.0,289.5,114.5,287.5,114.5,287.5" stroke="orange" stroke-width="1" fill="none" />
<polyline points="91.5,298.5,90.5,309.5,86.0,305.5,81.5,303.5,81.0,306.0" stroke="orange" stroke-width="1" fill="none" />
<polyline points="103.0,297.5,103.5,299.0,85.0,295.0,91.0,301.5,82.5,300.5,79.0,294.0,93.5,296.5,93.0,294.5" stroke="black" stroke-width="1" fill="none" />
<polyline points="89.0,293.5,89.0,292.5,87.0,294.5,92.0,289.0,100.0,296.0,93.0,286.5,104.0,293.0,103.0,288.0,101.5,292.5" stroke="orange" stroke-width="1" fill="none" />
<polyline points="100.0,276.5,107.0,277.5,116.5,272.5,117.0,272.5" stroke="black" stroke-width="1" fill="none" />
<polyline points="109.5,272.0,109.5,269.0,109.0,268.0,109.0,268.0,105.0,283.5,104.0,277.5,94.0,278.0,88.5,286.5,95.5,288.5,93.5,282.0,107.0,275.5,98.0,277.5,118.5,292.0,115.5,282.5,124.5,291.0,119.5,292.5,123.5,291.0" stroke="orange" stroke-width="1" fill="none" />
<polyline points="120.0,281.0,112.5,284.0,105.0,286.0,101.5,290.0,96.5,282.5,98.5,289.5,86.0,292.5,88.0,294.5,94.5,291.5" stroke="green" stroke-width="1" fill="none" />
<polyline points="95.0,278.5,96.5,270.0,99.0,260.5,114.5,261.0,94.5,268.5,96.0,272.5,97.5,280.5,88.5,284.5,90.5,282.0,97.0,273.5,104.5,278.0,97.0,279.0,104.5,277.0,109.5,280.5,108.5,288.5,116.5,274.0,116.0,280.5,136.0,270.0,134.5,267.0,134.5,265.5" stroke="black" stroke-width="1" fill="none" />
<polyline points="128.0,266.0,126.5,269.0,131.5,266.0,125.5,270.5,116.0,275.5,101.5,291.5,96.0,290.0,95.5,301.0,99.5,293.0,86.5,311.0,76.0,311.5,87.5,308.0,83.0,314.0,70.0,320.5,80.5,316.5,79.0,313.0,78.5,310.5,76.0,310.5" stroke="green" stroke-width="1" fill="none" />
<polyline points="" stroke="yellow" stroke-width="1" fill="none" />
<polyline points="130.0,301.5,124.0,309.5,121.0,307.0,118.0,316.5,115.0,311.5,117.0,333.5,109.0,314.0,98.5,326.5,104.5,326.5" stroke="orange" stroke-width="1" fill="none" />
<polyline points="68.5,325.0,70.5,326.0,63.5,322.5,77.0,328.5,73.5,314.5,73.0,309.0,74.0,311.0,78.5,307.0,78.0,307.5,75.5,308.0" stroke="yellow" stroke-width="1" fill="none" />
<polyline points="" stroke="yellow" stroke-width="1" fill="none" />
<polyline points="85.0,305.0,76.0,310.5,82.0,306.5,90.5,306.0,99.0,298.5,96.5,299.0" stroke="green" stroke-width="1" fill="none" />
<polyline points="95.5,313.5,98.0,324.5,106.5,313.0,104.5,317.0,104.5,304.5,108.0,304.0,102.0,305.5" stroke="orange" stroke-width="1" fill="none" />
<polyline points="104.0,286.0,106.5,285.0,109.0,288.5,104.0,291.0,102.0,287.0,104.0,285.0,96.5,282.0,103.0,291.0,105.5,290.0,107.0,286.0" stroke="orange" stroke-width="1" fill="none" />
<polyline points="107.5,287.0,97.5,290.5,109.0,288.5,106.5,286.5" stroke="black" stroke-width="1" fill="none" />
<polyline points="87.5,278.0,90.0,277.5" stroke="black" stroke-width="1" fill="none" />
<polyline points="114.5,294.5,121.5,292.5,113.0,292.0,109.0,305.0,100.5,306.5,102.0,307.0,100.0,320.5,97.5,319.0,103.0,325.0,103.0,333.0,102.0,328.0,98.5,343.0,93.5,343.5,100.0,338.5,102.0,335.5,105.0,333.5,111.0,330.0,114.0,316.5,124.5,301.5,115.0,297.5,125.0,297.0,126.5,302.0,132.5,313.0" stroke="green" stroke-width="1" fill="none" />
<polyline points="126.0,319.0,133.5,317.5,129.5,320.0,128.5,332.0,134.5,333.0,131.0,332.5" stroke="black" stroke-width="1" fill="none" />
<polyline points="122.5,310.0,121.0,311.0,128.0,314.0,119.0,320.0,127.5,333.0,105.0,327.0,112.5,341.5,107.5,347.0,100.0,337.5,101.0,343.0,92.0,344.5,96.5,348.0,98.0,351.5,91.5,353.0,99.0,357.5,96.5,368.5,93.0,363.5,92.5,367.5,89.5,379.0,94.0,385.5,93.5,382.5" stroke="green" stroke-width="1" fill="none" />
<polyline points="83.5,387.0,81.5,392.5,76.0,401.0,76.0,405.0,74.0,413.5,61.5,409.5" stroke="orange" stroke-width="1" fill="none" />
<polyline points="" stroke="orange" stroke-width="1" fill="none" />
<polyline points="121.0,296.0,129.0,294.5,125.5,296.0,113.0,305.5,111.0,309.0,101.5,318.5,115.0,304.0,100.0,297.0,114.5,301.5,118.0,299.5,121.0,292.5" stroke="orange" stroke-width="1" fill="none" />
<polyline points="" stroke="black" stroke-width="1" fill="none" />
<polyline points="" stroke="yellow" stroke-width="1" fill="none" />
<polyline points="137.0,235.5,144.0,237.5,139.5,243.5,136.5,247.0,148.0,241.5" stroke="black" stroke-width="1" fill="none" />
<polyline points="143.0,252.0,149.0,245.5,142.5,237.5,133.5,244.0,137.5,247.0,137.5,246.5" stroke="green" stroke-width="1" fill="none" />
<polyline points="142.0,236.5,133.0,220.5,137.5,224.5,133.0,223.0,144.5,219.0" stroke="green" stroke-width="1" fill="none" />
<polyline points="147.5,211.0" stroke="black" stroke-width="1" fill="none" />
<polyline points="150.5,211.5,150.0,208.0,153.0,212.0" stroke="orange" stroke-width="1" fill="none" />
<polyline points="134.5,195.0,136.5,193.5,139.5,196.0,134.5,189.0,142.0,195.0,142.0,183.5,147.5,175.5,144.0,175.5,144.0,185.0,142.5,183.0" stroke="green" stroke-width="1" fill="none" />
<polyline points="" stroke="orange" stroke-width="1" fill="none" />
<polyline points="144.0,183.0,154.0,179.5,153.5,190.0,141.0,187.0,135.5,187.0,137.5,189.5" stroke="green" stroke-width="1" fill="none" />
<polyline points="" stroke="green" stroke-width="1" fill="none" />
<polyline points="145.5,194.0,157.5,193.0,141.5,208.5,145.0,215.5,141.0,212.5,144.5,210.5" stroke="green" stroke-width="1" fill="none" />
<polyline points="126.5,210.5,121.0,194.0,122.0,198.0" stroke="orange" stroke-width="1" fill="none" />
<polyline points="113.5,221.5,116.0,222.0,115.5,234.0,109.0,231.5,120.5,229.5,114.0,231.5,115.0,230.5" stroke="green" stroke-width="1" fill="none" />
<polyline points="117.0,235.0,116.5,218.0,114.0,226.0" stroke="green" stroke-width="1" fill="none" />
<polyline points="119.0,258.0,116.5,255.5,110.0,260.5,115.0,258.0,119.5,259.0,123.5,252.5,125.0,254.5,128.0,242.0,138.0,240.0,142.5,233.5,147.5,235.0,159.0,227.0,153.0,225.5,155.5,225.0,157.5,228.0" stroke="black" stroke-width="1" fill="none" />
<polyline points="151.5,236.5,136.5,236.0,141.0,244.5,141.0,248.0,137.0,249.0,132.0,262.0,136.0,272.0,142.0,268.5,140.5,266.0,127.5,274.5,131.5,270.5,137.0,275.0,134.5,275.5" stroke="orange" stroke-width="1" fill="none" />
<polyline points="152.5,253.5,156.0,259.5,155.0,251.5,159.0,251.0,155.5,250.5,161.0,247.5,162.5,250.5,155.0,246.5" stroke="orange" stroke-width="1" fill="none" />
<polyline points="164.5,230.0,166.5,237.5,169.0,226.0" stroke="yellow" stroke-width="1" fill="none" />
<polyline points="165.5,225.5,169.0,222.5" stroke="black" stroke-width="1" fill="none" />
<polyline points="169.0,237.5,170.5,230.0,164.5,234.0,160.0,244.5,163.5,251.5,154.0,246.0,143.0,250.0,154.0,252.0,156.0,258.0,150.0,263.0,144.5,266.0,130.0,263.0,133.5,274.5,133.5,278.0,128.5,281.5,129.0,288.5,127.5,296.0,126.5,303.5,130.0,306.0,121.5,319.5,124.0,311.5,119.5,323.5,113.0,325.0,120.5,332.0,122.5,333.0,120.0,337.0,120.5,335.5,115.0,336.0,123.0,343.0,137.0,348.0,136.5,349.5,134.5,361.0,136.5,358.0,132.0,356.0,141.5,367.5,140.5,369.5,146.5,368.0,139.5,379.5,145.0,376.0,139.5,394.5,140.5,389.5,146.5,403.5,146.5,390.5,145.5,395.5,143.5,399.5,150.0,406.0,141.0,405.0,153.5,410.5,146.5,416.5,157.0,414.5,164.5,417.5,164.0,418.5" stroke="yellow" stroke-width="1" fill="none" />
<polyline points="160.5,412.0,164.0,413.0" stroke="orange" stroke-width="1" fill="none" />
<polyline points="" stroke="yellow" stroke-width="1" fill="none" />
<polyline points="" stroke="green" stroke-width="1" fill="none" />
<polyline points="202.5,413.5,196.5,425.0,200.0,423.0,196.5,427.0,192.5,428.0" stroke="orange" stroke-width="1" fill="none" />
<polyline points="199.0,404.5,205.0,401.0,203.0,394.5,197.0,405.0,194.5,398.0,201.0,399.0,195.5,394.5" stroke="yellow" stroke-width="1" fill="none" />
<polyline points="192.5,390.5,191.5,394.0,192.5,405.5,191.5,402.0,187.5,407.0,181.5,418.5,185.5,411.5,189.0,417.0,187.5,421.5,186.0,431.5,195.5,434.0,183.0,432.5,185.0,437.5,179.5,440.5,189.5,448.5,186.5,439.5,199.0,449.5,201.0,450.0" stroke="green" stroke-width="1" fill="none" />
<polyline points="379.0,351.5,374.5,353.5,375.5,342.0,378.5,348.0,374.5,342.5,381.0,341.5,385.5,335.5,376.5,326.5,380.5,322.0,376.5,317.5,376.0,309.5,364.5,313.5,377.0,310.5,379.0,307.5" stroke="yellow" stroke-width="1" fill="none" />
<polyline points="374.0,285.0,377.5,278.5,380.5,283.0,382.0,283.0,388.0,275.5,386.0,264.0,382.5,268.5,384.5,266.0,384.0,265.0,388.0,264.0" stroke="black" stroke-width="1" fill="none" />
<polyline points="364.5,278.5,374.0,276.0,367.5,277.0,363.0,282.5,368.0,286.0,364.0,285.0,364.0,297.5,368.0,295.5,362.5,306.0,361.0,305.0,357.5,308.0" stroke="yellow" stroke-width="1" fill="none" />
<polyline points="341.5,272.0,350.5,278.0,345.5,284.0,335.5,281.5,334.5,284.0,323.5,268.5,323.0,264.5,317.5,277.0,323.5,268.5,331.5,273.5,326.0,278.0,325.0,277.5" stroke="green" stroke-width="1" fill="none" />
<polyline points="322.0,267.5,324.5,267.5,325.5,268.0,330.0,266.0,336.0,274.5,326.5,275.5" stroke="orange" stroke-width="1" fill="none" />
<polyline points="324.5,278.0,328.5,274.0,318.5,272.0,323.0,263.5,328.0,257.5,336.5,253.5,332.5,253.5,339.5,250.0" stroke="yellow" stroke-width="1" fill="none" />
<polyline points="362.5,267.5,368.0,273.0,363.5,275.0,358.0,273.0,352.0,276.5,354.0,268.0" stroke="green" stroke-width="1" fill="none" />
<polyline points="289.5,233.0,282.5,230.5" stroke="green" stroke-width="1" fill="none" />
<polyline points="270.0,218.0,269.5,217.0,272.5,198.5,281.5,199.5,271.0,207.5,283.5,199.5,288.5,192.5,288.5,189.5,294.5,182.5,298.5,190.0,299.0,181.0,308.5,181.5,308.5,179.0,310.0,181.0" stroke="green" stroke-width="1" fill="none" />
<polyline points="316.0,172.5,316.5,178.5,301.0,176.5,297.5,179.0,296.5,184.0,295.0,186.0,292.0,191.5,282.5,193.5,285.0,198.0,275.0,195.5,267.0,202.0,264.5,207.5,263.0,213.5,265.0,212.0,266.5,221.5,250.5,222.5,254.5,228.5,245.0,230.5,244.5,239.5,243.0,246.5,232.5,241.5,235.5,255.0,232.5,258.5,224.5,266.0,221.0,261.5,214.0,277.0,205.5,283.5,207.5,289.5,203.5,302.5,195.0,307.0,201.5,325.0,198.0,317.0,198.5,311.0,195.5,315.0,206.0,304.0,196.5,297.5,198.5,295.0,204.0,295.5,213.5,286.5,212.5,291.0,211.0,286.0,214.0,276.0,218.0,281.0,222.0,272.0,222.0,264.5,227.5,264.5,224.0,252.5,226.5,259.5,237.0,247.0,232.0,241.5,239.0,236.5,245.5,235.0,245.5,226.5,253.5,232.5,250.5,224.5,261.5,223.5,259.0,219.0,254.5,204.5,262.5,215.5,265.0,203.0" stroke="orange" stroke-width="1" fill="none" />
<polyline points="258.0,213.5,266.0,206.0,258.0,208.0" stroke="green" stroke-width="1" fill="none" />
<polyline points="" stroke="yellow" stroke-width="1" fill="none" />
<polyline points="211.0,199.5,220.5,182.0,217.0,185.0,225.0,182.5,220.5,181.0,224.5,177.0,232.5,179.5,226.5,182.5" stroke="orange" stroke-width="1" fill="none" />
<polyline points="233.5,174.0,227.0,185.5,211.5,184.0,216.0,181.5,218.5,192.0,202.5,199.5,215.5,192.5,209.0,200.5,216.0,200.0,219.5,198.5,226.0,189.0,232.5,190.5,241.5,190.5,229.5,182.5,229.5,182.5" stroke="orange" stroke-width="1" fill="none" />
<polyline points="253.0,174.0,244.0,179.0,238.5,182.5,236.5,181.5,241.5,178.0,240.0,178.0,249.5,181.5" stroke="yellow" stroke-width="1" fill="none" />
<polyline points="254.0,176.5,248.0,179.0,242.0,179.5,250.0,185.5,241.5,198.0,241.5,200.5,234.0,201.0,237.0,208.0,234.0,217.0,230.5,206.0,243.5,205.5,239.0,208.0,237.5,208.5,239.0,213.5,243.5,215.0,240.5,215.0" stroke="yellow" stroke-width="1" fill="none" />
<polyline points="265.5,183.0,265.0,181.5,260.5,196.5,259.5,193.0,244.0,203.0,248.5,202.5,252.5,202.0,261.0,202.0,252.5,201.5,259.5,197.5,259.0,200.0" stroke="yellow" stroke-width="1" fill="none" />
<polyline points="266.0,187.5,271.5,189.0,262.0,186.5,259.5,185.5,257.0,190.0,256.0,183.5,261.5,185.5,261.0,182.0" stroke="green" stroke-width="1" fill="none" />
<polyline points="259.5,186.0,255.0,185.5,243.0,189.5,248.5,197.5,249.0,205.0,249.5,194.0,247.5,193.5,248.0,193.0,249.0,188.0,251.5,189.0,253.5,182.5,254.5,185.0,265.0,185.0,262.5,184.5,263.0,177.5,263.0,174.0" stroke="yellow" stroke-width="1" fill="none" />
<polyline points="265.5,178.0,260.0,177.0,271.5,179.5,271.5,176.0,279.5,184.0,281.0,174.5,285.0,178.5,287.0,175.5,294.0,179.0,299.0,179.5,290.5,186.0,290.0,193.5,290.0,187.0,277.0,195.5,276.0,191.5,277.5,191.5,271.0,196.0,265.5,197.5,282.0,189.5,277.5,198.0,289.0,186.0,292.0,182.0,288.0,183.0,291.5,178.5,302.5,167.5,308.0,167.0,307.0,172.0,318.5,168.5,316.5,168.0,325.5,168.5,325.0,164.5,331.5,163.5,331.0,157.0,339.0,149.0,335.0,157.5,339.0,152.0,339.5,147.0" stroke="orange" stroke-width="1" fill="none" />
<polyline points="304.0,175.0,303.0,178.0,303.0,174.0,299.0,188.5,288.0,194.5,290.5,187.5,279.5,196.5,277.0,197.0,261.5,210.0,269.5,211.5,268.5,206.5,263.0,214.5,260.0,217.5,267.5,219.5,261.0,223.0,266.0,229.0,265.0,233.0,270.0,239.5,269.5,239.0,264.5,241.0,263.0,238.0,259.0,239.5" stroke="yellow" stroke-width="1" fill="none" />
<polyline points="266.0,188.0" stroke="yellow" stroke-width="1" fill="none" />
<polyline points="261.0,161.5,256.5,158.0,252.0,160.5,246.5,161.5,243.5,162.0,250.0,161.5,248.5,159.5" stroke="yellow" stroke-width="1" fill="none" />
<polyline points="" stroke="black" stroke-width="1" fill="none" />
<polyline points="255.0,175.5,252.5,175.5,259.0,176.5,255.5,174.5,261.5,182.0,258.5,178.5" stroke="black" stroke-width="1" fill="none" />
<polyline points="244.5,140.5,247.0,139.0,251.0,135.0,256.0,127.5,258.5,131.0,261.5,126.5,251.0,137.0,246.0,131.0,254.0,140.0,244.0,144.0" stroke="black" stroke-width="1" fill="none" />
<polyline points="" stroke="yellow" stroke-width="1" fill="none" />
<polyline points="215.5,151.0,221.0,150.5,223.0,149.5,220.0,150.0,221.5,148.0" stroke="green" stroke-width="1" fill="none" />
<polyline points="216.0,142.0,214.5,140.0,222.5,141.5,217.5,142.0,219.5,142.0" stroke="orange" stroke-width="1" fill="none" />
<polyline points="207.0,149.0,201.0,151.5,210.0,141.0,217.0,149.5,212.5,161.0" stroke="orange" stroke-width="1" fill="none" />
<polyline points="204.0,168.5,190.0,161.5,201.5,158.5,208.0,150.0,197.0,157.0" stroke="yellow" stroke-width="1" fill="none" />
<polyline points="204.0,163.5,202.5,161.5,201.5,173.5,192.0,184.0,186.0,172.0,185.0,181.5,184.0,182.0,168.0,187.0,178.0,194.0,164.5,192.5,169.5,206.0,161.0,202.5,164.0,193.0,176.5,192.5,181.5,188.0,177.0,178.5,187.0,179.5,183.5,172.5,188.5,172.5,201.0,176.0,206.5,161.0,202.0,166.0,203.5,161.5" stroke="black" stroke-width="1" fill="none" />
<polyline points="209.0,178.5,210.0,181.5,201.5,186.0,210.0,202.0,205.5,200.5,204.5,195.5,201.0,195.0,204.0,195.0" stroke="green" stroke-width="1" fill="none" />
<polyline points="" stroke="yellow" stroke-width="1" fill="none" />
<polyline points="203.5,139.0,204.5,140.5,207.5,136.0,217.0,131.0,220.0,135.0,216.0,129.5,223.0,129.5,231.0,123.5" stroke="yellow" stroke-width="1" fill="none" />
<polyline points="214.0,140.5,214.5,145.5,203.5,148.5,208.5,140.5,207.0,137.5,224.5,130.0,222.0,131.5,233.0,122.5,233.5,116.0,244.0,120.0,238.5,124.0,236.0,121.0,236.5,118.0" stroke="green" stroke-width="1" fill="none" />
<polyline points="232.0,111.0,229.0,131.5,226.0,129.5,204.5,144.0,200.5,139.5,205.0,144.5,203.5,142.0,202.5,151.0,190.0,159.0,195.5,162.0,179.5,164.5,176.0,169.5,170.0,169.0,167.0,172.0,169.0,180.0,164.0,189.5,159.0,184.0,154.0,191.5,159.0,195.5,150.0,199.0,150.0,202.0,152.5,207.5,146.5,212.5,149.0,213.5,151.0,223.0,139.5,222.5,145.0,225.0,150.5,235.5,139.0,236.5,136.5,244.5,145.0,236.5,128.0,242.5,133.5,252.0,134.0,252.5,136.5,255.0,135.0,254.5,135.0,254.0,136.0,259.5" stroke="green" stroke-width="1" fill="none" />
<polyline points="" stroke="orange" stroke-width="1" fill="none" />
<polyline points="118.5,139.0" stroke="yellow" stroke-width="1" fill="none" />
<polyline points="148.0,130.5,155.5,145.5,157.0,137.5,155.5,127.0,161.5,127.5,155.5,120.0,154.5,122.5,156.0,121.5,155.0,122.0" stroke="orange" stroke-width="1" fill="none" />
<polyline points="180.5,135.5,175.0,140.0,185.5,121.0,188.0,119.0,183.0,122.5,186.5,120.0,186.5,121.5,190.5,120.0" stroke="yellow" stroke-width="1" fill="none" />
<polyline points="186.0,127.5,187.0,127.5,163.0,122.0,172.0,126.0,172.5,121.0,185.5,123.5,189.0,123.5,190.5,123.0,185.5,117.0,194.5,122.0" stroke="green" stroke-width="1" fill="none" />
<polyline points="180.5,133.5,179.5,132.5,186.0,131.0,188.5,136.5" stroke="black" stroke-width="1" fill="none" />
<polyline points="" stroke="yellow" stroke-width="1" fill="none" />
<polyline points="203.5,110.0,202.5,109.0" stroke="yellow" stroke-width="1" fill="none" />
<polyline points="234.5,139.5,233.0,134.5,232.0,133.0,226.5,130.0,218.5,125.5,216.0,137.5,214.5,138.0,205.0,147.0,199.0,135.0,197.5,149.0,198.0,155.0,196.5,157.5,202.0,147.5,211.0,144.5,213.0,137.5,218.0,137.5,226.0,131.0" stroke="yellow" stroke-width="1" fill="none" />
<polyline points="254.5,129.5,249.5,148.0,254.0,145.0,233.5,154.5,238.5,153.5,235.0,146.0,229.5,147.0,227.0,152.0,222.5,163.0,228.0,151.0,237.5,152.5,242.0,143.0,249.0,142.5,258.5,135.5,267.5,129.5,258.5,129.0,271.5,121.5,273.0,111.5,262.0,114.5" stroke="orange" stroke-width="1" fill="none" />
<polyline points="285.0,147.5,287.5,149.0,287.5,147.0,291.5,144.0" stroke="green" stroke-width="1" fill="none" />
<polyline points="298.0,139.5" stroke="black" stroke-width="1" fill="none" />
<polyline points="309.5,178.5,303.0,179.5,300.5,184.0,285.5,185.5,292.0,200.0,283.5,201.5,281.5,202.5,275.0,201.5,276.0,209.0,271.0,209.5,269.5,213.5,273.5,215.0" stroke="black" stroke-width="1" fill="none" />
<polyline points="233.5,94.5,236.5,102.5,227.0,101.0,225.5,99.5,232.0,107.0,226.5,98.5,236.0,97.5" stroke="green" stroke-width="1" fill="none" />
<polyline points="" stroke="black" stroke-width="1" fill="none" />
<polyline points="248.0,96.0,248.0,87.5,244.5,94.5,244.0,89.5" stroke="green" stroke-width="1" fill="none" />
<polyline points="263.0,84.5,262.0,86.0,253.0,93.0,255.0,86.0,250.5,92.5,247.0,97.0,243.0,100.0,238.5,111.0,236.0,109.0,225.0,107.0,238.5,115.5,217.5,115.5,224.0,119.0,223.0,117.0,212.0,115.5,205.0,131.5,203.0,137.5,196.5,135.5,198.0,125.0,187.0,143.5,177.0,149.5,180.5,152.5,176.5,148.5,172.5,153.0,174.0,164.0,171.5,163.0,167.5,162.5,157.0,168.5,164.5,168.0,159.5,170.5,160.5,171.0,172.0,169.0,172.5,164.5,183.0,157.0,178.5,147.0,186.0,137.5,192.5,141.0,192.5,127.0,202.0,142.0,215.5,126.5,217.5,125.5,218.5,119.5,217.5,103.5,218.0,116.5,230.0,104.0,235.5,115.0,235.5,99.0,243.5,97.5,259.0,93.0,266.0,93.5,266.0,85.0,260.5,87.5" stroke="yellow" stroke-width="1" fill="none" />
<polyline points="237.0,87.5,233.5,80.5,232.5,89.0,233.5,83.5,238.0,89.5,235.0,83.5,240.5,84.0" stroke="black" stroke-width="1" fill="none" />
<polyline points="" stroke="yellow" stroke-width="1" fill="none" />
<polyline points="226.0,47.5,237.5,45.5,237.0,45.0,247.0,42.5,250.5,53.5,243.5,44.0,254.0,52.5,256.0,63.0,263.0,49.0,273.0,58.0,275.5,57.0,268.5,65.0,276.5,67.5,280.0,64.0,286.5,71.0,279.5,70.0,295.0,73.5,292.5,80.0,293.5,82.0,307.0,92.5,305.0,93.0,317.0,100.0,313.5,97.5,329.0,111.5,322.5,109.5,328.5,120.0,332.5,123.5,334.0,127.5,339.0,131.0,352.5,136.5,343.0,138.5,352.0,149.0,355.5,140.5,353.0,135.5,370.0,138.0,373.5,136.0,371.0,135.0,381.0,134.0,382.0,128.0,389.0,128.5,394.5,115.5,387.5,112.0,396.0,114.0,399.5,113.5,412.5,108.0,406.0,112.0,419.5,119.5,417.0,112.0,410.5,113.0,411.5,113.5" stroke="black" stroke-width="1" fill="none" />
<polyline points="412.5,114.0,412.0,119.5,413.5,130.5,413.0,129.0,414.5,136.5,422.5,132.5,420.5,143.5,421.0,142.5,425.5,147.0,408.5,150.5,415.5,152.5,410.5,158.5,414.0,167.5,408.0,176.5,408.0,175.5,411.5,176.5,397.0,177.5,408.0,175.0,413.0,180.0,398.5,186.0,392.5,190.0,392.0,198.5,378.0,200.0,382.0,205.5,371.5,212.5,373.5,205.5,367.5,214.5,364.0,209.0,373.0,211.5,370.0,206.5,381.5,208.5,382.5,200.5,391.5,199.0,396.0,197.0,392.5,189.5,398.0,189.5,402.0,183.0,406.5,172.0,410.5,176.0,418.0,178.0,414.5,180.5" stroke="green" stroke-width="1" fill="none" />
<polyline points="365.0,126.0,368.0,125.5,369.0,123.0,364.5,125.0" stroke="orange" stroke-width="1" fill="none" />
<polyline points="389.0,110.0,383.0,102.0,388.0,101.5,389.5,111.5" stroke="black" stroke-width="1" fill="none" />
<polyline points="382.5,110.5,389.0,105.0,384.5,98.0" stroke="yellow" stroke-width="1" fill="none" />
<polyline points="421.5,43.5,427.5,45.5,425.5,45.5,413.5,33.0,417.0,28.0,416.5,21.5" stroke="orange" stroke-width="1" fill="none" />
<polyline points="512.5,70.5,516.0,81.5,509.0,79.0,504.5,84.5,503.5,86.0,496.5,95.5,487.0,108.5,484.5,107.5,493.5,113.0,482.5,106.5,475.5,115.5,477.0,122.0,474.0,125.0,469.5,126.0,466.0,131.0,468.5,136.0,468.0,135.0,465.0,154.0,457.5,145.0,460.5,154.5,454.0,159.0,449.5,165.5,449.0,165.5,445.0,169.5,445.0,168.5,446.0,176.5,432.5,189.5,437.0,191.5,434.0,188.0,435.0,197.0,432.5,204.0,432.0,209.0,431.0,207.0,419.5,203.0,425.0,217.0,420.5,220.5,420.5,222.0,420.0,230.0,422.0,236.0,414.0,232.0,415.0,237.0,411.5,245.5,403.0,241.0,409.5,248.5,419.5,260.5,406.5,260.5,408.0,259.0,408.5,269.0,407.5,268.5,401.0,279.0,398.5,279.0,406.0,282.0,394.5,290.0,399.0,288.0,405.5,290.0,398.0,301.0,395.5,299.5,395.5,307.5,393.0,307.5,397.5,312.5,390.5,316.0,395.0,317.0,391.0,326.0,391.5,326.5,380.5,339.0,388.5,334.5,391.0,334.5,389.0,335.5" stroke="black" stroke-width="1" fill="none" />
<polyline points="346.0,137.0,339.5,133.5,333.0,136.5,339.0,132.0,336.5,130.0,327.5,118.0,333.0,116.0,323.5,111.5,331.0,105.5,316.0,100.5,311.5,95.0,304.5,93.5,309.0,98.5,303.5,90.0,299.5,87.0,297.0,73.0,293.5,82.5,297.0,75.5,287.0,61.5,274.0,73.5,275.0,64.0,262.0,53.5,268.0,44.0,258.0,51.0,255.5,46.5" stroke="black" stroke-width="1" fill="none" />
<polyline points="" stroke="yellow" stroke-width="1" fill="none" />
<polyline points="176.0,60.0,158.5,67.0,158.0,66.0,168.5,63.0,165.5,60.0" stroke="black" stroke-width="1" fill="none" />
<polyline points="158.0,68.5,156.5,75.5,150.0,74.0,146.5,77.5,157.5,70.5,162.0,71.5,160.0,77.5,161.0,70.5,161.0,68.5" stroke="yellow" stroke-width="1" fill="none" />
<polyline points="154.0,76.5,152.5,79.0" stroke="yellow" stroke-width="1" fill="none" />
</svg>