<svg xmlns="http://www.w3.org/2000/svg" width="1024" height="1024" version="1.1" fill="white"><polyline points="414.5,16.0,410.5,14.5,408.5,8.0,409.5,17.5,410.5,25.0,414.0,26.0,421.0,34.0,421.5,32.5,418.0,27.5,433.0,31.5,428.5,31.5,432.5,54.5,436.0,49.0,437.5,56.0,442.5,63.5,436.0,61.5,437.0,71.5,436.0,70.5,444.0,68.0" stroke="black" stroke-width="1" fill="none" />
<polyline points="444.0,49.0,443.0,45.5,436.0,40.0,439.5,35.0,433.5,23.0,431.5,16.0" stroke="orange" stroke-width="1" fill="none" />
<polyline points="412.5,2.0,425.0,6.5,430.0,15.5,430.0,13.5,436.0,14.5,439.0,24.0,438.0,31.0,440.0,34.5,444.0,35.5,444.0,36.5,449.5,42.5,442.5,40.5,443.0,49.5,459.0,59.5,455.0,62.0,448.5,66.0,458.5,78.5,432.0,69.5,439.5,70.5,433.0,84.5,434.5,83.5,431.5,82.5,436.0,92.0,434.5,98.0,420.0,102.5,423.0,106.5,414.0,103.0,419.5,108.0,414.0,109.0,412.5,107.0,428.0,100.0,434.0,91.5,434.5,85.0,435.0,80.0,438.5,71.5,445.0,78.5,451.5,66.5,447.5,58.5,457.0,48.0,470.5,56.0,467.5,46.5,463.0,41.5,477.5,41.5,478.0,40.0,487.5,25.0,483.0,24.0,487.0,27.5,493.5,16.0,514.0,16.5,504.0,7.5" stroke="yellow" stroke-width="1" fill="none" />
<polyline points="509.5,11.5,507.0,19.5,496.5,26.5,489.5,23.0,492.5,20.5,482.5,25.5,483.0,30.5,483.5,35.0,466.0,44.5,471.5,37.5,462.5,52.5,466.0,56.5,463.0,58.0" stroke="black" stroke-width="1" fill="none" />
<polyline points="502.5,74.0,505.0,87.5,501.5,90.0,499.0,98.0,485.0,96.0,480.5,105.5,478.0,98.5,479.5,108.5,467.0,117.5,464.5,119.5,467.5,124.0,456.0,136.5,459.0,142.5,466.5,142.5,466.0,142.0" stroke="yellow" stroke-width="1" fill="none" />
<polyline points="439.5,163.0,445.0,172.0,432.5,173.0,436.5,171.5" stroke="yellow" stroke-width="1" fill="none" />
<polyline points="447.0,184.0,434.0,177.5,439.5,188.0,441.5,178.5,436.0,180.5" stroke="green" stroke-width="1" fill="none" />
<polyline points="425.5,220.5,426.5,214.5,422.0,226.5,426.0,229.5,426.5,225.0" stroke="black" stroke-width="1" fill="none" />
<polyline points="415.0,240.5,415.5,233.0,413.5,243.0,415.0,243.0,417.0,249.5,416.5,240.5,407.5,247.0,414.0,247.5,417.0,250.0" stroke="green" stroke-width="1" fill="none" />
<polyline points="" stroke="green" stroke-width="1" fill="none" />
<polyline points="391.0,303.0,375.5,292.0,377.5,284.5,384.5,282.5,390.0,275.0" stroke="green" stroke-width="1" fill="none" />
<polyline points="373.5,267.0,369.5,265.0,373.5,259.5,370.0,257.5,373.0,255.0,374.0,256.5,376.5,242.0,370.5,241.5,366.0,240.0,375.0,233.0,366.0,235.0,374.5,222.5,373.0,222.0,373.0,227.0,371.5,222.5" stroke="yellow" stroke-width="1" fill="none" />
<polyline points="378.0,243.0,371.0,244.0,372.0,244.5,375.5,237.5,371.0,235.0" stroke="yellow" stroke-width="1" fill="none" />
<polyline points="361.5,253.0,375.0,258.0,373.0,264.5,366.5,278.0,369.5,267.0,371.0,274.0,364.5,276.5,368.5,275.5,366.5,279.0,363.5,280.5,363.5,282.5" stroke="green" stroke-width="1" fill="none" />
<polyline points="379.5,286.0,371.5,296.5,379.0,291.5,382.0,287.5,383.0,297.5,372.5,302.0,375.5,311.5,376.5,308.0,379.0,310.0,383.0,323.0,376.5,320.5,387.5,335.0,382.0,341.5,386.5,341.0,385.5,343.5,384.5,340.5,385.0,340.0" stroke="green" stroke-width="1" fill="none" />
<polyline points="367.5,356.0,372.5,361.5,378.5,365.0,379.5,365.0" stroke="green" stroke-width="1" fill="none" />
<polyline points="370.5,378.5,372.0,381.0" stroke="orange" stroke-width="1" fill="none" />
<polyline points="387.5,380.0,382.0,385.0,378.0,390.0,376.5,396.0,377.0,398.0,378.0,398.5" stroke="orange" stroke-width="1" fill="none" />
<polyline points="363.0,426.5,356.5,418.5,353.0,415.0,358.0,418.0,345.0,414.5,341.5,400.5,334.0,410.0,336.5,406.5,329.0,404.5,328.0,396.5,322.5,406.5,318.5,388.0,319.0,401.5,312.5,393.0,301.0,399.0,302.5,389.0,304.5,387.5,301.5,390.0,296.5,395.5,294.0,395.0" stroke="yellow" stroke-width="1" fill="none" />
<polyline points="314.5,374.0,324.0,364.0,324.0,359.5,327.5,354.0,331.0,342.0,333.0,346.0" stroke="yellow" stroke-width="1" fill="none" />
<polyline points="352.5,328.5,351.5,329.5,358.5,332.0,350.5,331.5,352.0,339.5" stroke="green" stroke-width="1" fill="none" />
<polyline points="359.5,360.5,358.5,368.0,356.0,370.5,360.0,374.5,353.5,379.5,353.5,384.0,353.5,389.0,356.0,399.5,350.5,389.5,351.0,401.0,348.5,409.0,349.0,409.0,348.5,409.5,359.5,416.5" stroke="black" stroke-width="1" fill="none" />
<polyline points="361.5,369.0,360.5,368.0,364.5,359.0" stroke="orange" stroke-width="1" fill="none" />
<polyline points="360.5,358.5,359.0,369.0,356.0,375.0,358.0,375.5,354.0,381.0" stroke="yellow" stroke-width="1" fill="none" />
<polyline points="361.0,357.5,355.5,362.0,359.0,366.5,357.5,363.0,356.0,372.0,355.5,373.5,357.0,380.5,355.0,381.0,346.0,391.0,348.5,390.5,353.5,398.0,365.0,396.5,356.5,404.0,353.0,410.5,366.0,408.5,363.5,408.0,359.5,409.5" stroke="black" stroke-width="1" fill="none" />
<polyline points="376.5,457.5,369.5,459.0,374.0,456.5,374.5,452.0,377.0,450.0,376.0,436.0,371.5,439.5,369.5,428.0,372.0,428.0,378.0,431.0,381.0,425.0,380.5,417.5,377.0,413.5,376.0,409.5,379.0,404.0,375.0,397.0,374.0,399.5,381.0,388.5,384.5,393.0,375.0,384.0,387.5,376.5,373.5,371.0,380.5,375.0,379.0,367.0,383.0,367.0,386.5,364.5,373.0,358.0,377.5,349.0,378.5,350.5,374.5,345.5,373.5,347.0,368.0,335.0,379.0,334.5,375.5,332.0,372.0,324.0,369.5,324.0,380.5,329.0,374.5,313.0,372.5,309.5,372.5,299.5,381.0,314.0,376.0,301.0,376.0,291.5,373.5,292.5,371.0,280.0,371.0,277.0,374.0,279.0,364.5,267.5,366.5,270.0,371.5,266.0,373.0,261.5,367.0,261.0,358.5,256.0,367.0,251.5,367.5,245.5,368.0,242.5,366.0,233.0,360.0,227.0,365.5,228.0,361.0,220.0,357.0,216.0,359.5,223.0,361.0,208.5,362.0,207.5,352.0,203.5,346.0,201.5,344.0,201.0" stroke="orange" stroke-width="1" fill="none" />
<polyline points="" stroke="black" stroke-width="1" fill="none" />
<polyline points="" stroke="yellow" stroke-width="1" fill="none" />
<polyline points="" stroke="yellow" stroke-width="1" fill="none" />
<polyline points="358.5,200.0,358.5,202.5,366.5,206.5" stroke="black" stroke-width="1" fill="none" />
<polyline points="" stroke="green" stroke-width="1" fill="none" />
<polyline points="352.0,210.5,350.5,213.0" stroke="yellow" stroke-width="1" fill="none" />
<polyline points="342.0,203.5,337.5,206.0,332.0,203.0,334.0,195.5" stroke="yellow" stroke-width="1" fill="none" />
<polyline points="345.5,217.0,356.0,207.5,364.0,221.0,357.0,225.0,360.5,237.5,366.0,232.0,366.0,240.5,372.5,243.0,366.5,250.5,368.0,251.0,371.5,257.5,365.5,254.0" stroke="yellow" stroke-width="1" fill="none" />
<polyline points="365.5,241.0,366.0,240.5,367.5,242.0,364.5,243.5,364.0,244.5,363.0,245.0,368.5,243.5" stroke="orange" stroke-width="1" fill="none" />
<polyline points="347.0,237.5,348.0,237.5,348.5,245.5,351.0,238.5,351.5,239.5" stroke="black" stroke-width="1" fill="none" />
<polyline points="342.5,255.5,339.0,256.0,334.5,253.0,334.0,258.0,330.0,258.0,331.0,258.5,330.5,259.0,328.0,258.0" stroke="black" stroke-width="1" fill="none" />
<polyline points="334.5,256.0,343.0,242.0,340.5,250.0,352.0,251.5,353.0,241.5,346.0,243.5,344.0,242.0" stroke="black" stroke-width="1" fill="none" />
<polyline points="" stroke="black" stroke-width="1" fill="none" />
<polyline points="" stroke="yellow" stroke-width="1" fill="none" />
<polyline points="348.5,277.5,354.5,286.0,351.5,282.0,355.5,294.5,346.5,292.0,346.5,297.5,353.5,302.5,349.0,307.5,341.5,307.5,346.5,313.0,342.0,323.0,335.5,327.0,346.0,324.0,339.5,326.5,336.0,334.5,331.5,340.0,329.5,336.0,327.0,344.5,328.5,355.0,326.5,357.5,324.0,355.5,315.5,364.0,315.0,369.5,318.0,370.0,322.0,371.0,318.5,382.0,312.5,381.0,316.5,383.5,315.0,396.0,315.5,391.5,326.5,409.0,339.5,400.5,345.5,408.0,345.0,418.5,355.0,414.0,353.5,414.5,360.5,423.0,360.0,432.0,355.5,437.5,361.5,438.0,362.0,430.0,367.5,442.0,361.5,446.0,371.5,454.0,373.0,456.0,362.5,468.0,374.0,469.0,368.5,481.5,372.0,479.5,372.5,475.0,374.5,478.5,376.0,481.0,376.0,490.0,379.5,490.0,378.0,493.0,379.0,503.5,382.5,492.0,382.0,503.5,386.0,511.0,393.5,511.5,386.5,520.0,393.0,528.0,393.5,515.0,391.5,517.0" stroke="black" stroke-width="1" fill="none" />
<polyline points="431.0,493.0,435.0,484.5,426.5,485.0,440.0,482.5,442.5,479.0,448.5,477.0,447.5,465.0,456.5,465.0,454.5,465.5,455.5,463.0,451.5,466.0" stroke="black" stroke-width="1" fill="none" />
<polyline points="448.5,475.5,446.0,474.5,450.0,470.5,447.5,468.5,451.5,462.0,453.0,466.5,457.0,471.0,458.0,466.5" stroke="black" stroke-width="1" fill="none" />
<polyline points="461.0,444.5" stroke="green" stroke-width="1" fill="none" />
<polyline points="474.0,421.5,475.0,410.5,481.0,411.0,482.0,403.5,484.0,410.0,490.0,398.5,485.5,394.0,497.0,389.0,494.5,386.0,505.5,391.0,500.0,381.5,517.5,381.0,508.5,379.0,512.5,383.5" stroke="green" stroke-width="1" fill="none" />
<polyline points="514.0,383.5,512.0,383.0,513.5,383.0,506.0,386.0,499.5,382.0,491.0,394.0,493.5,403.5,484.5,405.5,479.0,408.5,476.0,413.0,469.5,418.0,472.0,427.5,471.5,421.5,464.0,429.5,463.0,425.5,460.5,434.0,458.5,436.0,447.0,440.0,463.5,441.5,463.0,452.0,455.0,457.0,451.0,457.5,452.5,454.5,449.0,472.0,445.5,481.0,447.0,475.5,448.0,480.0,443.5,487.0,441.5,478.0,438.0,481.0" stroke="orange" stroke-width="1" fill="none" />
<polyline points="428.0,484.5,441.5,474.0,439.5,471.0,441.0,465.0,446.0,464.0,439.5,457.0,444.5,461.0" stroke="black" stroke-width="1" fill="none" />
<polyline points="430.5,462.5,437.0,455.0,425.5,449.5,428.5,457.5,435.5,443.0,443.5,442.0,439.0,443.0,437.5,427.0,429.5,426.0,430.0,433.5,434.5,434.0,432.5,430.5,429.5,429.0,432.5,433.0" stroke="green" stroke-width="1" fill="none" />
<polyline points="428.5,472.5,426.5,474.0,424.0,472.5,427.5,475.0,422.0,483.5,426.5,481.5,426.5,478.0" stroke="yellow" stroke-width="1" fill="none" />
<polyline points="420.0,471.0,428.5,472.5,420.5,470.5,421.0,475.5,426.0,474.5,429.0,466.5,436.5,456.5,432.0,460.5,434.0,463.0,433.0,468.0,433.5,466.5" stroke="orange" stroke-width="1" fill="none" />
<polyline points="478.5,406.5,479.5,411.0,487.5,407.0,484.0,389.5,479.5,393.0,482.0,395.0" stroke="green" stroke-width="1" fill="none" />
<polyline points="442.5,434.0,446.0,428.5,440.5,422.5,444.5,416.5,449.0,410.5,445.0,408.0,450.5,404.0,453.5,394.5,452.0,392.0,450.5,388.0,453.5,386.0,455.0,378.0,447.0,383.0,448.0,373.5,457.5,375.0,448.0,362.0" stroke="green" stroke-width="1" fill="none" />
<polyline points="384.0,343.0,391.5,336.5,382.0,332.5,371.0,322.5,382.5,325.5,379.5,326.0" stroke="yellow" stroke-width="1" fill="none" />
<polyline points="369.5,365.5,372.0,368.0,366.0,363.5,370.0,378.0,369.0,392.0,362.0,386.0,373.0,387.0,376.5,387.5,375.5,391.0,380.0,390.0,372.5,385.5,372.5,386.5" stroke="black" stroke-width="1" fill="none" />
<polyline points="324.0,341.0,325.5,343.5,331.0,342.0" stroke="black" stroke-width="1" fill="none" />
<polyline points="" stroke="green" stroke-width="1" fill="none" />
<polyline points="298.5,353.5,299.5,353.5,296.5,358.0,296.5,357.5" stroke="orange" stroke-width="1" fill="none" />
<polyline points="317.0,355.5,313.0,358.5,309.0,360.5,309.5,368.0,300.5,365.5,303.0,363.5,302.0,362.5" stroke="green" stroke-width="1" fill="none" />
<polyline points="311.0,346.0,299.0,352.5,300.0,345.5,300.5,351.5,300.5,358.0" stroke="orange" stroke-width="1" fill="none" />
<polyline points="307.0,326.0,306.5,324.5,316.0,327.5,314.5,324.5,306.5,330.5,309.5,331.5,307.0,328.0,309.0,333.5,310.5,336.5,307.0,337.5" stroke="green" stroke-width="1" fill="none" />
<polyline points="312.0,318.5,314.0,325.0,297.0,332.0,293.5,338.5,293.5,339.5,294.5,339.0" stroke="orange" stroke-width="1" fill="none" />
<polyline points="299.5,321.0,297.5,318.5" stroke="black" stroke-width="1" fill="none" />
<polyline points="317.5,334.0,326.5,322.5,326.0,322.5,326.0,324.5,324.0,308.5,321.5,306.5,325.0,317.0,326.0,301.0,324.5,301.5,322.5,305.0,321.5,304.5,320.0,305.0" stroke="black" stroke-width="1" fill="none" />
<polyline points="" stroke="green" stroke-width="1" fill="none" />
<polyline points="334.0,271.0,333.0,269.0,341.0,267.0,339.0,265.5,335.0,264.0,326.0,262.0,332.0,257.5,331.5,259.0" stroke="green" stroke-width="1" fill="none" />
<polyline points="319.0,266.0,329.5,265.5,328.0,274.5,327.5,273.0,323.5,281.0,330.0,265.5,334.5,269.5,322.0,276.5,331.0,256.0" stroke="yellow" stroke-width="1" fill="none" />
<polyline points="323.5,271.5" stroke="orange" stroke-width="1" fill="none" />
<polyline points="" stroke="yellow" stroke-width="1" fill="none" />
<polyline points="340.0,267.5,339.0,257.0,334.0,263.5,341.0,254.0,345.5,262.5,350.5,254.5,347.0,253.0,348.5,249.0" stroke="orange" stroke-width="1" fill="none" />
<polyline points="349.0,238.5,348.0,228.0,343.0,220.5,335.5,217.0,341.0,213.5,339.5,213.5,337.0,214.5" stroke="black" stroke-width="1" fill="none" />
<polyline points="340.0,190.5,339.0,193.5,346.0,202.0,352.5,197.0,353.0,200.0,361.5,193.5,356.5,194.0,367.0,185.5,375.5,184.5,376.5,182.5,382.0,185.0,377.0,186.5,391.5,187.5,391.5,174.0,393.0,174.0,389.0,169.0,395.5,183.5,404.0,164.5,406.0,174.0,403.0,178.5,394.5,191.5,395.0,185.0,390.5,190.0,382.5,193.5,384.5,198.5,390.0,187.0,389.5,184.5,398.0,171.5,404.0,176.0,403.5,184.5" stroke="orange" stroke-width="1" fill="none" />
<polyline points="401.5,160.0,407.0,164.0,407.0,164.5,391.0,171.0,384.5,173.0,388.0,174.5" stroke="black" stroke-width="1" fill="none" />
<polyline points="367.0,184.5,356.0,195.0,347.0,189.5,344.5,190.5,337.0,193.5,337.5,204.5" stroke="yellow" stroke-width="1" fill="none" />
<polyline points="337.0,204.5,330.5,206.5,337.0,211.5,340.5,206.5,329.0,214.5,331.5,208.0,331.5,209.5" stroke="black" stroke-width="1" fill="none" />
<polyline points="" stroke="green" stroke-width="1" fill="none" />
<polyline points="349.0,205.0,352.5,213.5,353.0,218.0,357.5,213.5" stroke="yellow" stroke-width="1" fill="none" />
<polyline points="356.0,206.0,350.5,204.5,348.0,201.5,348.0,204.5" stroke="green" stroke-width="1" fill="none" />
<polyline points="344.5,198.0,346.5,203.5,351.5,207.0,352.0,204.5" stroke="orange" stroke-width="1" fill="none" />
<polyline points="" stroke="orange" stroke-width="1" fill="none" />
<polyline points="341.5,203.5,340.5,203.0,344.0,206.0,344.5,206.5,354.0,207.0,353.0,210.0" stroke="yellow" stroke-width="1" fill="none" />
<polyline points="" stroke="black" stroke-width="1" fill="none" />
<polyline points="369.0,194.5,370.0,192.5,371.0,195.5" stroke="orange" stroke-width="1" fill="none" />
<polyline points="393.0,155.5,392.0,160.0,379.0,162.0,387.5,160.5,381.5,174.0,381.0,177.5,391.5,174.5,386.0,158.0,388.5,157.5,393.5,151.5" stroke="orange" stroke-width="1" fill="none" />
<polyline points="400.0,168.0,394.0,169.5,399.0,163.5,406.5,161.5,390.5,175.0,395.5,172.0,385.5,171.5,399.0,172.5,399.0,163.5" stroke="orange" stroke-width="1" fill="none" />
<polyline points="394.0,131.5,394.5,128.5,391.0,128.0,382.0,132.0,382.5,139.5,388.5,134.0,391.0,133.5,392.0,124.0,390.0,124.5,390.0,124.5" stroke="black" stroke-width="1" fill="none" />
<polyline points="389.5,126.0,387.5,122.0,376.0,133.0,381.5,131.0,380.0,128.0,393.0,123.5,398.5,120.5,400.5,116.0" stroke="yellow" stroke-width="1" fill="none" />
<polyline points="393.5,118.5,389.0,123.5,388.5,123.5,383.5,130.5,373.5,133.0,359.5,139.0,354.0,144.0,356.5,143.0,352.0,137.5" stroke="orange" stroke-width="1" fill="none" />
<polyline points="333.0,150.0,315.5,153.0,318.0,158.5,309.5,149.0,306.5,169.5,304.5,166.0,306.0,168.0" stroke="orange" stroke-width="1" fill="none" />
<polyline points="" stroke="yellow" stroke-width="1" fill="none" />
<polyline points="284.0,173.0,278.5,171.5,282.5,177.5,287.0,174.5,283.0,178.0,284.5,178.0" stroke="orange" stroke-width="1" fill="none" />
<polyline points="" stroke="orange" stroke-width="1" fill="none" />
<polyline points="279.5,184.0,275.0,169.5,278.0,170.5,273.5,172.0" stroke="orange" stroke-width="1" fill="none" />
<polyline points="266.0,187.0,257.0,176.5,257.0,180.0,265.0,180.0,245.5,175.5,245.0,168.5" stroke="black" stroke-width="1" fill="none" />
<polyline points="239.0,163.0,245.5,164.0,248.5,165.5,253.0,164.5,245.0,173.5,259.0,180.5,253.0,178.0,248.5,187.0,246.0,189.5,240.0,194.0,242.0,190.5,236.0,201.5,235.0,209.5,237.0,204.5,242.0,219.5,242.5,206.5,247.5,218.0,256.5,204.0,253.5,212.0,256.0,203.5,251.0,212.5,249.5,216.0,252.5,225.0,240.5,218.5,243.5,235.5,240.5,231.0,236.0,231.0,239.5,246.5,230.0,246.5,230.0,253.5,222.5,249.0,219.0,257.0,218.0,260.0,218.0,270.5,218.0,272.5,209.0,279.0,206.0,278.5,207.0,285.5,203.5,293.5,204.5,300.0,196.5,304.5,196.5,297.5,193.0,302.5,202.5,309.5,197.5,317.0,191.5,307.0,191.5,312.0,185.0,316.5,183.0,323.5,179.0,326.5,173.0,332.0,167.5,330.5,166.0,339.5,160.5,342.5,164.0,338.0" stroke="black" stroke-width="1" fill="none" />
<polyline points="154.5,352.0,159.5,346.5,162.5,362.5,153.0,359.5,154.5,365.0,148.0,373.0,156.5,376.5,163.0,369.5,156.0,382.5,157.5,384.0,156.5,391.5,161.5,394.5,146.0,391.5,158.5,403.5,166.0,401.0,164.5,409.5,162.5,407.5,158.0,412.0,164.5,408.5" stroke="orange" stroke-width="1" fill="none" />
<polyline points="165.5,410.5,169.0,405.5,162.0,406.0,163.0,410.0,156.5,415.5" stroke="black" stroke-width="1" fill="none" />
<polyline points="166.0,413.0,168.0,411.5,164.0,418.5,164.0,419.5,168.0,416.5,168.0,423.0,172.0,421.5,175.0,424.5,174.0,420.5,176.5,422.0" stroke="orange" stroke-width="1" fill="none" />
<polyline points="" stroke="yellow" stroke-width="1" fill="none" />
<polyline points="189.0,442.0,188.5,443.0,183.5,434.5,183.5,439.5,185.5,440.5,187.5,438.5,196.0,433.5" stroke="black" stroke-width="1" fill="none" />
<polyline points="" stroke="yellow" stroke-width="1" fill="none" />
<polyline points="" stroke="yellow" stroke-width="1" fill="none" />
<polyline points="" stroke="black" stroke-width="1" fill="none" />
<polyline points="178.5,451.0,180.5,462.5,178.5,462.5,168.0,469.0,170.0,470.0,168.0,470.0,161.5,472.5,161.5,470.5" stroke="orange" stroke-width="1" fill="none" />
<polyline points="153.0,476.5,159.0,473.0,151.0,471.0,137.5,449.5,138.0,455.5,140.5,454.5,140.5,455.5,134.0,457.0" stroke="green" stroke-width="1" fill="none" />
<polyline points="135.5,464.5,146.0,470.0,147.0,468.5,140.5,478.5,151.0,480.5,161.0,481.5,152.0,479.5,153.0,477.5,156.0,488.0,168.0,496.0,164.5,495.5,161.5,492.0" stroke="black" stroke-width="1" fill="none" />
<polyline points="166.5,502.5,164.5,501.0,162.5,504.5,168.0,500.0,164.5,499.5" stroke="green" stroke-width="1" fill="none" />
<polyline points="172.0,503.0,170.5,501.0,165.0,509.0,156.5,508.0,156.0,499.0,153.0,503.0,146.5,491.0,139.0,490.5,142.0,484.0" stroke="orange" stroke-width="1" fill="none" />
<polyline points="144.0,493.5,147.5,500.0,147.0,504.0,149.0,497.5,149.5,496.5" stroke="black" stroke-width="1" fill="none" />
<polyline points="" stroke="orange" stroke-width="1" fill="none" />
<polyline points="" stroke="yellow" stroke-width="1" fill="none" />
<polyline points="" stroke="green" stroke-width="1" fill="none" />
<polyline points="147.0,491.0,148.0,489.5,153.5,488.0,159.5,490.5,154.5,491.5" stroke="yellow" stroke-width="1" fill="none" />
<polyline points="156.5,493.5,157.5,498.0,159.5,499.5,153.5,507.0,157.0,514.5,161.0,503.5,159.0,505.5,158.5,508.5" stroke="black" stroke-width="1" fill="none" />
<polyline points="144.5,497.0,144.5,491.0,143.0,484.0,137.5,480.5,142.0,481.0,144.0,485.5,144.5,487.0" stroke="green" stroke-width="1" fill="none" />
<polyline points="144.0,492.5,143.5,502.5,147.5,504.5,146.0,499.5,147.5,502.0,149.0,506.0,151.0,512.0,146.0,509.0" stroke="green" stroke-width="1" fill="none" />
<polyline points="140.0,497.0" stroke="yellow" stroke-width="1" fill="none" />
<polyline points="154.5,505.5,151.0,520.0,149.0,517.5,149.5,515.5" stroke="green" stroke-width="1" fill="none" />
<polyline points="138.0,513.0,140.0,505.5,141.5,514.0,138.0,505.5,133.5,498.5,143.0,491.5" stroke="orange" stroke-width="1" fill="none" />
<polyline points="141.0,483.5,139.0,499.5,132.0,502.5,136.0,495.0,137.5,490.5,137.5,487.5" stroke="green" stroke-width="1" fill="none" />
<polyline points="" stroke="black" stroke-width="1" fill="none" />
<polyline points="121.0,509.0,125.0,507.0" stroke="orange" stroke-width="1" fill="none" />
<polyline points="114.0,510.5,120.0,510.0,117.5,511.5,124.0,509.5,121.0,493.5,125.5,496.0,124.5,491.5" stroke="black" stroke-width="1" fill="none" />
<polyline points="129.5,503.5,127.5,502.5,131.5,498.5,122.0,495.5" stroke="orange" stroke-width="1" fill="none" />
<polyline points="135.0,516.0,128.0,508.5,132.0,501.5,125.0,507.0,125.5,514.0" stroke="yellow" stroke-width="1" fill="none" />
<polyline points="139.5,476.0,137.5,481.5,141.0,480.0" stroke="orange" stroke-width="1" fill="none" />
<polyline points="131.0,473.5,130.5,485.0,135.0,495.0,135.0,492.0,139.5,506.0,129.5,501.5,141.5,506.0,143.0,507.0" stroke="yellow" stroke-width="1" fill="none" />
<polyline points="" stroke="green" stroke-width="1" fill="none" />
<polyline points="" stroke="yellow" stroke-width="1" fill="none" />
<polyline points="170.0,481.0,170.0,483.0" stroke="green" stroke-width="1" fill="none" />
<polyline points="" stroke="yellow" stroke-width="1" fill="none" />
<polyline points="167.0,471.0,160.0,464.5,172.5,472.0,174.5,470.5,175.0,482.5,161.0,483.5,165.5,481.0,171.5,498.5,173.5,489.5,177.0,485.5" stroke="green" stroke-width="1" fill="none" />
<polyline points="191.5,486.0,190.5,486.0,209.0,486.0,205.0,487.5,202.5,484.5,208.5,486.0,209.5,479.0,217.0,478.0,224.5,481.0,227.5,476.5" stroke="yellow" stroke-width="1" fill="none" />
<polyline points="234.0,464.0,231.5,460.5,230.0,456.0" stroke="yellow" stroke-width="1" fill="none" />
<polyline points="220.0,478.5,218.0,480.5,217.0,475.5,214.5,475.5,226.0,469.0,219.0,457.0,234.0,452.5,233.0,449.5,230.5,444.5,235.0,444.5,234.5,439.0,231.5,435.5,243.0,432.0,230.0,430.5,245.0,426.0,228.0,421.0,227.5,418.5,234.5,411.0,236.5,405.0,228.0,400.5,226.0,406.0" stroke="orange" stroke-width="1" fill="none" />
<polyline points="221.5,409.5,228.0,408.5,227.0,416.5,223.5,409.5,225.5,405.5" stroke="black" stroke-width="1" fill="none" />
<polyline points="244.5,419.0,222.5,413.0,224.0,418.5,232.0,425.5,219.5,423.0,226.5,414.0,224.0,417.0,225.5,415.5" stroke="orange" stroke-width="1" fill="none" />
<polyline points="250.5,418.0,245.0,427.0,242.5,424.5,236.5,423.5,233.0,431.5,240.0,436.5,243.5,444.5,240.0,443.0,242.5,448.0,239.0,455.5,239.0,455.5,229.5,461.0,235.0,473.5,228.0,465.0,222.5,473.5,223.0,479.5,225.0,480.0,215.5,488.0,218.0,486.0,219.0,484.5" stroke="black" stroke-width="1" fill="none" />
<polyline points="198.0,490.5,213.5,494.5,204.0,497.0,210.0,491.5,219.5,490.5,220.5,492.0,225.0,485.5,228.0,478.0,236.5,477.5,240.5,480.0" stroke="orange" stroke-width="1" fill="none" />
<polyline points="201.5,447.5,199.0,446.5,182.0,443.5" stroke="black" stroke-width="1" fill="none" />
<polyline points="184.0,449.5,181.5,455.0,194.0,451.0,184.0,452.5,188.5,446.0,192.0,437.5,181.0,431.5,172.5,426.5,182.5,431.5,187.5,421.0,182.0,422.5,182.0,425.0,183.5,415.0,174.5,414.5,181.5,410.0,166.0,400.5,163.5,400.0,160.5,388.5,166.0,393.5,157.0,387.0,165.5,383.0" stroke="black" stroke-width="1" fill="none" />
<polyline points="160.0,369.5,163.5,367.0,176.0,366.0,174.5,353.0,182.5,347.5,187.0,339.0,189.5,341.5,193.5,332.5,196.5,329.0,201.0,321.0,190.5,328.5,201.5,320.5,202.0,320.5" stroke="yellow" stroke-width="1" fill="none" />
<polyline points="199.0,320.0,201.0,317.0,211.5,320.0" stroke="green" stroke-width="1" fill="none" />
<polyline points="185.0,317.5,181.5,320.5,187.0,319.5,192.5,307.5,194.5,302.0,203.5,291.0,203.0,289.5,206.5,280.5,216.5,272.5,225.5,261.5,227.0,259.5,228.5,250.0,234.5,246.5,229.5,245.0,244.5,230.0,238.5,223.5,249.0,225.0,253.0,222.0,261.0,219.0,258.0,214.0" stroke="orange" stroke-width="1" fill="none" />
<polyline points="270.5,223.0,269.5,224.0,270.5,227.5" stroke="black" stroke-width="1" fill="none" />
<polyline points="273.5,233.5,272.5,235.0,269.5,229.0,261.5,244.5,261.0,242.0,265.0,243.0" stroke="black" stroke-width="1" fill="none" />
<polyline points="263.5,232.5,268.5,235.5,269.5,233.0,265.0,239.0,266.0,224.5,270.5,227.5,265.5,232.5,255.5,234.5,256.0,230.5,264.5,231.5,246.5,247.5,246.5,239.5,236.0,252.5,250.0,261.5,225.5,272.5,221.5,273.5,216.0,283.5,219.5,281.0,225.0,288.0,231.0,275.5,228.5,271.0,228.5,266.0,227.0,269.0,236.5,263.0,232.5,260.5,241.0,246.0,228.0,247.5,250.5,241.5,246.5,236.5,256.0,242.5,254.5,222.5,265.5,224.5,262.0,222.5,262.0,218.0,259.0,217.5,265.0,219.0,271.0,218.5,268.0,205.0,276.0,202.0,272.5,204.5,278.0,201.5,265.5,189.5,274.5,187.5,265.0,190.5,266.5,198.5,261.5,208.5,272.5,206.0,260.0,204.0,259.0,211.0,267.5,196.0" stroke="green" stroke-width="1" fill="none" />
<polyline points="250.0,196.0,250.0,198.5" stroke="black" stroke-width="1" fill="none" />
<polyline points="247.5,207.5,255.0,218.5,255.0,217.0,250.0,227.0,235.5,233.0,240.5,229.0,227.0,238.0,224.5,237.0,221.5,237.5,221.5,231.0,230.5,230.5,222.5,228.0,226.5,217.5,220.5,225.0,214.0,220.5,217.5,224.0,227.0,204.0,221.0,210.5,222.5,206.5,218.0,202.0,221.0,206.5,211.0,213.0" stroke="orange" stroke-width="1" fill="none" />
<polyline points="239.5,201.5,240.0,205.0" stroke="green" stroke-width="1" fill="none" />
<polyline points="" stroke="black" stroke-width="1" fill="none" />
<polyline points="" stroke="yellow" stroke-width="1" fill="none" />
<polyline points="247.0,208.5,253.0,197.5,261.5,186.5,261.0,188.0,257.5,182.0,245.5,194.5,242.5,194.5,254.5,190.5,268.0,187.5,259.0,189.5,255.0,188.5,265.5,182.5,265.5,176.5,275.0,184.5,278.5,182.5,272.0,177.0,277.5,179.0,284.5,178.0" stroke="green" stroke-width="1" fill="none" />
<polyline points="250.0,189.5,252.0,195.5,253.0,193.0,249.5,202.0,250.0,201.5,245.5,200.0,239.5,202.0,249.5,207.5,255.0,205.0,245.0,194.0,252.5,195.0,264.5,194.0,257.5,185.5,262.0,177.5,270.0,196.5,270.5,199.0,269.5,199.5" stroke="yellow" stroke-width="1" fill="none" />
<polyline points="265.5,208.0,263.0,209.0,256.0,206.5,266.0,192.0,264.0,192.5,272.0,181.5,274.5,191.0,278.0,187.0,275.0,190.0,273.0,189.5,275.0,192.0" stroke="orange" stroke-width="1" fill="none" />
<polyline points="260.5,192.0,255.0,194.0,249.5,198.5,244.0,209.0,248.0,211.5" stroke="yellow" stroke-width="1" fill="none" />
<polyline points="258.0,201.0,272.5,201.5,259.5,202.0,261.0,210.0,261.5,208.5,259.0,214.5,260.5,213.5,256.0,223.5,247.0,218.0,243.5,231.5,246.0,228.5,240.0,245.0" stroke="yellow" stroke-width="1" fill="none" />
<polyline points="" stroke="black" stroke-width="1" fill="none" />
<polyline points="" stroke="green" stroke-width="1" fill="none" />
<polyline points="220.0,223.0,229.5,231.5" stroke="yellow" stroke-width="1" fill="none" />
<polyline points="216.0,232.5,219.5,236.5" stroke="black" stroke-width="1" fill="none" />
<polyline points="227.5,234.0,223.0,235.5,231.5,242.0,218.0,232.5,224.5,246.5" stroke="black" stroke-width="1" fill="none" />
<polyline points="225.5,230.5,217.5,229.0,213.0,229.5,211.0,227.0,212.5,222.0,212.5,229.5,207.5,228.5" stroke="yellow" stroke-width="1" fill="none" />
<polyline points="216.0,213.5,225.5,235.5,214.0,230.0,218.5,240.0,224.5,231.5,229.0,244.5,224.0,248.0,232.0,251.0,231.5,249.5" stroke="green" stroke-width="1" fill="none" />
<polyline points="225.0,252.0,221.0,264.0,218.5,270.5,213.5,274.0,207.5,288.5,197.0,287.0,198.0,290.0,196.0,304.5,188.5,317.0,187.5,318.0,183.5,330.5,180.5,325.0,171.0,327.5,173.0,332.5,163.5,335.5,155.5,335.0,153.0,335.0,153.0,341.0,144.5,351.0,140.0,348.0" stroke="orange" stroke-width="1" fill="none" />
<polyline points="140.5,343.5,147.0,338.0,146.5,342.0,153.0,340.0,148.0,329.5,152.5,328.5,149.5,325.5,151.0,327.0" stroke="green" stroke-width="1" fill="none" />
<polyline points="156.0,328.5,157.0,331.5,156.5,335.0" stroke="orange" stroke-width="1" fill="none" />
<polyline points="139.0,356.5,147.0,350.0,149.5,348.5,143.5,354.0,148.0,357.0" stroke="green" stroke-width="1" fill="none" />
<polyline points="145.5,350.5,131.5,351.0,134.0,338.5,141.5,341.0,132.0,334.5,138.0,327.5,133.5,326.5,134.0,321.5,136.5,318.0,130.0,314.5,132.0,316.5,131.5,312.0" stroke="green" stroke-width="1" fill="none" />
<polyline points="132.0,298.0,127.0,295.0" stroke="green" stroke-width="1" fill="none" />
<polyline points="135.5,292.0,137.5,310.0" stroke="yellow" stroke-width="1" fill="none" />
<polyline points="117.5,289.5,135.0,295.5,136.5,289.5,127.0,292.0,131.5,294.0" stroke="orange" stroke-width="1" fill="none" />
<polyline points="130.5,274.0,137.0,279.5,143.0,272.5,141.0,272.5" stroke="black" stroke-width="1" fill="none" />
<polyline points="151.5,269.0,157.0,264.5,158.0,267.0" stroke="orange" stroke-width="1" fill="none" />
<polyline points="153.0,262.5,153.0,272.5,155.0,274.0,154.5,269.5,159.5,276.0,159.0,267.5" stroke="yellow" stroke-width="1" fill="none" />
<polyline points="152.5,271.0,149.0,270.0,155.5,272.5,153.5,274.5,154.5,274.5" stroke="orange" stroke-width="1" fill="none" />
<polyline points="174.0,263.0,167.5,260.5,169.5,256.5,169.0,257.5,177.5,254.5,167.0,255.0,167.0,262.0,167.5,261.5" stroke="yellow" stroke-width="1" fill="none" />
<polyline points="177.0,252.0,176.0,243.5,179.5,250.0" stroke="black" stroke-width="1" fill="none" />
<polyline points="169.5,261.5" stroke="yellow" stroke-width="1" fill="none" />
<polyline points="" stroke="green" stroke-width="1" fill="none" />
<polyline points="176.0,267.0,179.5,259.5,180.0,262.0,194.5,257.0,186.0,257.5,190.5,259.0,189.0,260.0,191.5,258.5" stroke="yellow" stroke-width="1" fill="none" />
<polyline points="" stroke="yellow" stroke-width="1" fill="none" />
<polyline points="" stroke="black" stroke-width="1" fill="none" />
<polyline points="178.5,253.0,187.5,254.5,191.5,257.0,187.0,264.5,193.0,263.5,186.0,269.5" stroke="black" stroke-width="1" fill="none" />
<polyline points="208.0,259.0,204.5,251.5,206.5,258.0,205.5,266.5,211.0,265.5,212.0,256.0,212.0,258.5" stroke="green" stroke-width="1" fill="none" />
<polyline points="211.5,247.5,223.5,270.5,208.5,250.5,209.5,250.0,212.0,244.5,207.0,238.5,207.5,239.0,212.5,239.5,210.0,242.5,200.5,241.0,206.0,239.0,210.0,239.0,204.0,236.5" stroke="green" stroke-width="1" fill="none" />
<polyline points="206.5,245.0,207.5,236.0,211.0,242.0,213.0,238.5,216.5,235.5,223.0,241.0,218.0,243.5,211.5,249.0,211.5,249.0" stroke="yellow" stroke-width="1" fill="none" />
<polyline points="" stroke="black" stroke-width="1" fill="none" />
<polyline points="209.0,259.5" stroke="yellow" stroke-width="1" fill="none" />
<polyline points="216.0,257.0,212.5,249.5,212.5,247.5,210.0,240.0,206.0,237.5,212.5,233.0,211.5,234.5" stroke="black" stroke-width="1" fill="none" />
<polyline points="214.5,230.0,212.0,238.0,212.0,245.0,215.5,245.0,211.5,257.5,206.5,253.5,218.5,257.5,214.5,263.5,219.0,262.5,217.5,261.0" stroke="black" stroke-width="1" fill="none" />
<polyline points="" stroke="black" stroke-width="1" fill="none" />
<polyline points="199.0,254.5" stroke="black" stroke-width="1" fill="none" />
<polyline points="" stroke="yellow" stroke-width="1" fill="none" />
<polyline points="187.0,269.0,182.5,268.5,185.5,261.0,169.5,266.0,175.0,259.0,191.5,243.0,182.0,245.0,177.0,240.5,189.5,233.5,196.5,240.0,181.5,244.0,179.0,237.5,182.5,241.5,183.5,243.5,180.5,243.0" stroke="black" stroke-width="1" fill="none" />
<polyline points="195.5,217.5,199.0,212.5,189.0,229.0,190.5,222.5" stroke="orange" stroke-width="1" fill="none" />
<polyline points="188.0,226.0,183.5,218.0,190.5,228.5,187.5,230.5" stroke="orange" stroke-width="1" fill="none" />
<polyline points="180.5,241.0,182.5,242.0,182.5,237.0,186.5,241.0,185.5,240.0,186.5,240.0" stroke="yellow" stroke-width="1" fill="none" />
<polyline points="192.5,246.0,192.0,235.0,191.0,238.0,203.0,239.0,200.0,240.0" stroke="orange" stroke-width="1" fill="none" />
<polyline points="218.5,225.5" stroke="green" stroke-width="1" fill="none" />
<polyline points="" stroke="black" stroke-width="1" fill="none" />
<polyline points="213.0,221.5,218.0,221.0,218.5,231.0,216.5,234.0,220.0,240.0" stroke="green" stroke-width="1" fill="none" />
<polyline points="221.0,212.5,215.5,220.5,224.0,212.5,219.0,217.5,225.0,234.5,232.5,230.0,224.5,239.5,233.0,234.5,240.5,245.5,233.0,238.5,234.5,249.5,229.5,250.5,230.0,253.0,220.5,252.0,215.0,270.5,222.5,261.0,217.5,263.5,222.0,269.0,215.5,284.0,200.5,284.0,217.5,294.0,202.5,286.0,202.5,294.0,209.0,301.5,188.0,304.0,205.0,308.5,206.0,319.0,195.0,311.5,196.0,316.0,183.5,328.0,200.5,319.0,194.5,312.5,202.0,313.0,216.5,309.0,212.5,312.5,221.5,300.5,226.0,303.0,234.0,287.0,226.0,278.5,236.5,280.0,233.5,265.0,236.5,269.5,250.5,266.0,249.5,257.0,248.5,253.0,248.0,255.0,256.0,252.0,263.0,249.5,272.5,239.5,281.5,255.5,280.5,248.5,273.5,256.5,292.5,254.0,286.5,243.5,303.0,258.5,301.0,251.5,300.5,253.0,300.5,255.5" stroke="yellow" stroke-width="1" fill="none" />
<polyline points="" stroke="orange" stroke-width="1" fill="none" />
<polyline points="285.5,260.5,292.5,274.5,290.0,279.0,291.5,275.5,290.5,276.0" stroke="orange" stroke-width="1" fill="none" />
<polyline points="" stroke="black" stroke-width="1" fill="none" />
<polyline points="" stroke="orange" stroke-width="1" fill="none" />
<polyline points="279.5,277.5,279.5,272.5,281.5,274.0" stroke="green" stroke-width="1" fill="none" />
<polyline points="278.0,264.0,278.0,262.0,272.5,269.0" stroke="black" stroke-width="1" fill="none" />
<polyline points="284.5,268.0,286.5,267.5" stroke="black" stroke-width="1" fill="none" />
<polyline points="260.0,263.5,261.5,265.0,266.5,268.0,262.5,262.0" stroke="yellow" stroke-width="1" fill="none" />
<polyline points="262.5,261.0,264.0,274.5,265.0,274.0,270.0,271.0,274.5,269.5,280.5,262.0,275.5,277.0,267.0,289.0,277.0,275.5,274.0,278.5,280.0,285.0,281.0,288.5,278.0,290.0" stroke="yellow" stroke-width="1" fill="none" />
<polyline points="259.5,276.5,259.0,268.0,263.5,268.0,259.0,277.0,254.5,272.5,251.5,274.0,254.5,272.0,252.0,273.0" stroke="orange" stroke-width="1" fill="none" />
<polyline points="267.5,271.0,268.0,280.0,274.0,278.5" stroke="black" stroke-width="1" fill="none" />
<polyline points="" stroke="yellow" stroke-width="1" fill="none" />
<polyline points="255.5,266.5,253.5,271.0,255.5,279.5,254.5,275.0,260.0,271.0,269.5,280.0,268.0,281.0,275.0,283.0,284.5,279.5,282.5,276.0" stroke="orange" stroke-width="1" fill="none" />
<polyline points="284.5,259.5,287.5,265.5,284.5,255.0,282.5,262.0,288.5,253.0,278.5,252.5,273.0,256.0,279.0,251.5,281.0,249.0,276.5,248.5,273.5,252.5" stroke="orange" stroke-width="1" fill="none" />
<polyline points="271.0,244.0,279.0,242.5,276.5,241.5" stroke="orange" stroke-width="1" fill="none" />
<polyline points="" stroke="orange" stroke-width="1" fill="none" />
<polyline points="272.5,260.0,273.5,257.5,282.0,257.0,271.0,260.0,265.0,249.5,259.5,247.5,265.5,252.5,262.0,257.5,263.0,257.0" stroke="black" stroke-width="1" fill="none" />
<polyline points="264.5,273.5,262.0,271.0,263.0,268.0" stroke="black" stroke-width="1" fill="none" />
<polyline points="281.5,271.0,277.0,271.5,284.0,269.0,283.0,269.5,288.0,276.5,286.5,273.5,285.0,268.5,280.5,278.5,287.5,280.0,293.5,265.0" stroke="black" stroke-width="1" fill="none" />
<polyline points="" stroke="orange" stroke-width="1" fill="none" />
<polyline points="253.0,253.0,259.5,249.0,257.0,259.0,246.5,266.5,248.5,264.0,242.5,268.5,239.5,273.0,229.0,277.5,226.5,291.5,234.0,281.5,228.0,291.0,214.5,292.0,211.0,303.0,216.5,300.5,212.5,302.0,211.0,317.0,202.0,314.0,200.0,314.0,204.5,322.5,195.5,323.0,192.0,334.5,191.0,335.5,183.0,335.5,186.5,349.0,186.0,343.0,170.5,346.5,173.0,359.0,175.0,358.0,167.0,362.0,168.5,371.5,163.0,366.0,155.5,381.5,154.0,375.0,152.0,389.5,162.5,388.5,164.0,396.0,166.5,401.0,175.0,406.0,177.0,405.0,175.0,408.5,174.5,394.0,171.0,397.0,174.0,396.5" stroke="yellow" stroke-width="1" fill="none" />
<polyline points="157.0,394.0,160.5,397.0,160.0,391.0,157.5,390.5" stroke="green" stroke-width="1" fill="none" />
<polyline points="" stroke="yellow" stroke-width="1" fill="none" />
<polyline points="139.0,379.5,139.0,372.5,142.0,371.0,141.0,370.5,141.5,362.0" stroke="black" stroke-width="1" fill="none" />
<polyline points="135.0,381.0" stroke="orange" stroke-width="1" fill="none" />
<polyline points="135.5,415.0,132.5,412.0,131.0,415.0,127.0,414.0,130.5,417.5,137.5,424.5,138.5,425.5,139.0,431.5,139.0,437.0,139.0,441.5,136.5,444.0,141.0,447.0,145.5,454.5,134.5,454.5,133.5,464.0,139.5,459.5,138.0,470.5,138.0,471.5,139.0,470.0,149.5,469.0,147.0,479.0,148.5,470.0,155.5,488.5,162.5,484.0" stroke="yellow" stroke-width="1" fill="none" />
<polyline points="" stroke="black" stroke-width="1" fill="none" />
<polyline points="174.0,465.5,174.0,466.5,188.5,457.5,174.5,466.5,175.0,461.5,172.5,457.5,172.0,450.0,163.0,441.5,178.0,439.5,164.0,442.5,166.5,436.5,171.0,436.0" stroke="orange" stroke-width="1" fill="none" />
<polyline points="170.0,435.0,166.5,439.0,164.5,437.0" stroke="black" stroke-width="1" fill="none" />
<polyline points="156.5,426.5,164.0,422.0,158.0,408.0,168.0,407.0,156.0,411.0,153.0,410.0,160.0,400.5,162.0,404.0,162.5,394.0,160.0,397.0,150.5,390.5,153.0,385.5,145.0,371.0,150.5,369.5,140.5,363.5,142.0,361.5,153.0,361.5,147.5,357.0,150.0,357.5" stroke="black" stroke-width="1" fill="none" />
<polyline points="146.5,362.0,147.0,365.5,142.5,360.5,147.5,357.5,156.5,365.0,149.0,377.0,153.0,378.0,154.5,384.0,153.5,381.5,154.0,381.0,154.5,396.5,151.5,393.0,163.5,404.0,176.0,394.5,174.5,403.0" stroke="green" stroke-width="1" fill="none" />
<polyline points="175.5,429.0,169.0,441.0,169.5,442.5,171.5,437.0,176.0,437.0,171.5,453.5,176.5,450.5,187.0,456.5,175.5,449.0,178.0,469.5" stroke="green" stroke-width="1" fill="none" />
<polyline points="163.5,446.5,169.5,451.0,170.0,453.0" stroke="orange" stroke-width="1" fill="none" />
<polyline points="163.0,446.5,162.5,449.5,164.0,442.0,161.5,443.0,174.0,457.5,167.5,462.5,179.5,454.0,171.0,461.5,171.5,469.5,164.5,468.5,166.5,484.5,175.0,473.0,157.0,480.5,167.5,490.0,164.0,491.5,159.5,500.5,158.0,499.0,163.5,509.0,176.0,497.5,181.0,515.5,175.0,514.0,180.5,508.0,172.5,517.0,170.0,513.0" stroke="yellow" stroke-width="1" fill="none" />
<polyline points="" stroke="orange" stroke-width="1" fill="none" />
<polyline points="" stroke="black" stroke-width="1" fill="none" />
<polyline points="" stroke="green" stroke-width="1" fill="none" />
<polyline points="147.5,449.5,163.5,455.0,149.5,450.0,150.0,448.0,147.5,443.0,146.0,434.0,159.5,430.0,148.0,428.5,146.5,428.0,139.0,420.0,134.0,411.5,134.5,407.0,137.0,405.5" stroke="orange" stroke-width="1" fill="none" />
<polyline points="137.5,398.5,152.5,398.0,145.0,396.5,152.5,385.5,147.0,395.0,145.0,399.5,144.0,402.0" stroke="orange" stroke-width="1" fill="none" />
<polyline points="136.0,406.5" stroke="black" stroke-width="1" fill="none" />
<polyline points="134.5,400.5,140.0,406.5,144.5,402.5,141.5,410.0,144.5,409.5,146.0,412.0,146.5,414.0,148.5,411.5" stroke="green" stroke-width="1" fill="none" />
<polyline points="159.0,423.5,155.0,428.0,154.5,430.5,159.0,424.5,154.0,437.5,148.5,438.0" stroke="black" stroke-width="1" fill="none" />
<polyline points="162.5,440.5,170.5,447.0,176.5,445.5,179.5,445.0,180.5,437.0,179.0,442.0" stroke="orange" stroke-width="1" fill="none" />
<polyline points="181.0,428.0,172.0,412.5,176.5,415.0,181.0,414.0,167.0,414.0,166.5,410.5,161.5,410.5,164.5,399.0,166.0,397.5,162.5,400.5" stroke="yellow" stroke-width="1" fill="none" />
<polyline points="181.5,415.0,180.0,412.0,174.0,419.5,164.5,421.0,170.0,434.5,163.5,433.0,161.0,430.0,159.5,428.0,163.0,437.5,157.5,437.0,164.0,433.0,175.0,429.5,167.5,432.5,167.0,431.0,166.5,431.0" stroke="yellow" stroke-width="1" fill="none" />
<polyline points="165.0,431.0,164.5,428.5" stroke="yellow" stroke-width="1" fill="none" />
<polyline points="149.5,452.0,152.5,458.5,156.5,455.0,163.0,453.0,159.0,453.5,164.5,461.0,163.5,467.5" stroke="green" stroke-width="1" fill="none" />
<polyline points="165.0,457.5,167.5,453.5,163.5,460.5,161.5,458.0" stroke="black" stroke-width="1" fill="none" />
<polyline points="" stroke="yellow" stroke-width="1" fill="none" />
<polyline points="149.0,451.5,147.5,454.0,155.5,454.0,159.0,453.0,156.5,455.0,154.5,457.5,163.0,456.0" stroke="black" stroke-width="1" fill="none" />
<polyline points="146.5,445.5" stroke="black" stroke-width="1" fill="none" />
<polyline points="149.5,462.0,149.0,465.5,147.5,468.5,154.5,469.5,147.5,476.0,152.0,480.0,152.0,479.0" stroke="orange" stroke-width="1" fill="none" />
<polyline points="148.5,476.0,149.5,469.5,151.5,470.5" stroke="yellow" stroke-width="1" fill="none" />
<polyline points="141.5,464.5,150.0,462.0,156.0,463.5,155.5,469.5,149.5,468.0" stroke="green" stroke-width="1" fill="none" />
<polyline points="139.0,468.5" stroke="green" stroke-width="1" fill="none" />
<polyline points="139.5,451.0,141.0,456.5,134.0,453.5,147.5,462.5,140.5,451.0,144.0,474.0,141.0,473.0,152.0,470.0,157.0,480.0,156.5,477.5,157.0,475.5" stroke="green" stroke-width="1" fill="none" />
<polyline points="162.5,474.0,160.0,477.5,155.5,471.0,159.5,472.5,154.0,471.0,145.5,466.5,152.5,460.0,143.5,455.0,146.0,452.0" stroke="yellow" stroke-width="1" fill="none" />
<polyline points="147.0,461.0,144.5,454.0,148.0,464.5,140.5,460.0,154.0,474.0,155.5,477.0,146.5,470.5,156.0,480.0,151.0,474.5,160.0,491.5,158.5,491.5,158.0,490.0,166.5,496.0,171.5,504.0,168.0,506.0" stroke="black" stroke-width="1" fill="none" />
<polyline points="160.5,448.0,159.5,449.0,157.5,454.0,155.0,451.0,150.5,446.0,153.0,433.0,145.0,439.5,149.0,430.0,151.5,435.0,144.5,421.5" stroke="green" stroke-width="1" fill="none" />
<polyline points="" stroke="orange" stroke-width="1" fill="none" />
<polyline points="147.0,429.0" stroke="yellow" stroke-width="1" fill="none" />
<polyline points="136.5,415.0,143.5,415.5,147.5,412.0,150.0,410.0" stroke="black" stroke-width="1" fill="none" />
<polyline points="143.0,406.5,145.0,421.5,145.0,422.5,155.0,427.5,148.5,439.0,160.5,438.5,154.0,436.0,154.0,435.0,151.0,437.5" stroke="black" stroke-width="1" fill="none" />
<polyline points="153.0,421.5,156.0,425.5,154.5,409.5,152.0,411.5,146.5,406.0,148.0,402.0,149.5,395.0,144.5,392.0,142.0,393.0" stroke="green" stroke-width="1" fill="none" />
<polyline points="151.5,394.0,150.5,397.0,138.5,399.0" stroke="yellow" stroke-width="1" fill="none" />
<polyline points="" stroke="yellow" stroke-width="1" fill="none" />
<polyline points="148.0,406.5,141.0,403.0,138.5,400.5,139.5,399.0,123.5,403.0,125.0,401.0,123.0,402.5,124.0,397.0" stroke="orange" stroke-width="1" fill="none" />
<polyline points="120.5,398.0,123.0,400.0,130.0,395.0,120.0,403.0,131.0,402.5,126.5,400.0,127.5,401.5,129.5,401.0" stroke="black" stroke-width="1" fill="none" />
<polyline points="115.5,408.0,129.0,412.0,131.0,398.5,138.5,401.5,144.0,385.0,134.5,400.5,140.0,380.0,134.5,381.5,139.0,378.0,144.5,379.5,149.0,367.0,149.5,368.0,145.0,365.0,137.5,349.5,140.5,352.0,144.5,348.5,143.5,349.5,133.0,347.5,133.0,345.5,133.5,337.0,137.5,336.5,134.5,329.0,128.0,319.5,135.5,313.0,125.5,319.0,127.5,307.5,123.0,310.0,125.5,296.5,130.0,296.5,129.5,287.0,136.5,292.0,127.0,280.5,131.5,274.0,127.0,271.5" stroke="orange" stroke-width="1" fill="none" />
<polyline points="132.0,274.5,131.5,283.5,126.0,290.0,115.5,293.0,129.5,294.5,122.0,295.5,127.5,293.0,119.5,304.0,116.0,311.5,116.5,321.5,116.0,316.5,121.0,318.5,123.0,320.0,115.5,328.5,113.5,333.5,113.5,335.0,117.5,334.5,120.5,335.5,123.5,331.5" stroke="yellow" stroke-width="1" fill="none" />
<polyline points="" stroke="orange" stroke-width="1" fill="none" />
<polyline points="118.0,346.5,118.5,341.0,115.5,349.5,128.0,358.5,121.5,369.5,112.5,362.0,115.5,367.5,123.0,367.5,112.0,378.0,118.5,388.0,115.5,385.0,118.5,383.0,119.5,399.0,126.0,400.0,124.5,402.5" stroke="black" stroke-width="1" fill="none" />
<polyline points="121.5,396.5,118.5,391.0,114.0,380.5,122.0,392.0,126.5,381.0,120.0,370.5,123.0,378.5,119.5,373.0,115.5,359.5,121.5,371.5,119.0,370.5" stroke="orange" stroke-width="1" fill="none" />
<polyline points="129.0,381.5,126.0,384.0" stroke="green" stroke-width="1" fill="none" />
<polyline points="120.0,390.5,121.5,384.0,126.5,397.0,130.0,400.5,131.0,399.5" stroke="green" stroke-width="1" fill="none" />
<polyline points="131.5,395.0,123.5,391.0,131.0,400.0,140.0,393.0,136.0,392.5,143.0,390.0,138.5,391.5,142.0,399.0,137.0,394.0,139.5,393.5" stroke="yellow" stroke-width="1" fill="none" />
<polyline points="" stroke="yellow" stroke-width="1" fill="none" />
<polyline points="114.0,401.5,117.0,396.0,119.5,395.5,120.5,397.0,115.0,404.0" stroke="yellow" stroke-width="1" fill="none" />
<polyline points="122.0,409.0,124.5,407.5,124.5,404.0,129.0,416.5,126.5,421.0,131.0,426.0,142.0,423.0,132.5,429.0,140.5,433.5" stroke="yellow" stroke-width="1" fill="none" />
<polyline points="" stroke="black" stroke-width="1" fill="none" />
<polyline points="" stroke="yellow" stroke-width="1" fill="none" />
<polyline points="146.0,413.5" stroke="orange" stroke-width="1" fill="none" />
<polyline points="" stroke="black" stroke-width="1" fill="none" />
<polyline points="" stroke="yellow" stroke-width="1" fill="none" />
<polyline points="153.5,391.0,151.0,390.0,151.0,390.5,146.5,389.5" stroke="orange" stroke-width="1" fill="none" />
<polyline points="172.5,404.0,173.5,404.0,170.0,410.0,176.5,413.5,178.5,413.5,173.5,413.5,174.0,414.5,178.0,408.5,176.5,409.0" stroke="yellow" stroke-width="1" fill="none" />
<polyline points="147.5,403.5,162.5,404.0,164.5,393.5,138.0,389.5,147.5,389.0,147.0,389.0,145.5,390.5,141.0,387.0,138.5,379.5,139.5,387.0,143.5,381.5,133.0,378.0,138.5,377.5,135.5,368.0,142.5,358.0,137.0,365.0,141.0,354.0,145.0,350.0,145.0,353.0,133.0,341.5,130.0,338.5,124.0,332.0,128.0,334.5,140.5,325.0,138.5,323.5" stroke="orange" stroke-width="1" fill="none" />
<polyline points="114.0,329.0,127.5,329.0,123.0,340.5,117.5,345.5,122.5,345.5" stroke="orange" stroke-width="1" fill="none" />
<polyline points="114.0,345.5,116.5,343.5,121.5,348.5,118.5,352.0,118.0,366.5,116.5,365.5,116.0,379.5,121.5,385.0,125.0,382.5,123.0,381.0,135.0,388.0,132.0,383.5,130.5,399.0,128.5,399.5" stroke="orange" stroke-width="1" fill="none" />
<polyline points="" stroke="yellow" stroke-width="1" fill="none" />
<polyline points="" stroke="green" stroke-width="1" fill="none" />
<polyline points="" stroke="orange" stroke-width="1" fill="none" />
<polyline points="" stroke="green" stroke-width="1" fill="none" />
<polyline points="130.5,354.0,130.0,355.0,133.0,351.5,122.0,359.5,138.0,366.0,133.5,370.5,126.0,373.0" stroke="yellow" stroke-width="1" fill="none" />
<polyline points="142.0,360.0,143.0,360.0,144.5,352.0,142.5,346.0,144.5,348.5,135.0,345.0" stroke="black" stroke-width="1" fill="none" />
<polyline points="139.0,343.0,138.5,346.0,134.5,340.5" stroke="orange" stroke-width="1" fill="none" />
<polyline points="" stroke="orange" stroke-width="1" fill="none" />
<polyline points="133.5,350.5,134.5,343.5,138.0,347.0,140.5,337.5,148.5,337.5,145.5,336.0,143.0,335.5" stroke="yellow" stroke-width="1" fill="none" />
<polyline points="138.0,344.5,129.5,337.0,139.0,342.5,139.0,343.0" stroke="black" stroke-width="1" fill="none" />
<polyline points="119.0,353.5,114.5,360.0,110.0,357.5,111.5,366.5,110.5,374.0,115.5,370.5,108.5,377.0,119.0,378.5,123.0,382.5,121.0,393.5,112.5,396.5,112.0,401.0,113.5,411.5,120.0,396.0,118.5,407.5,116.0,419.0,106.0,420.5,110.5,420.0,110.5,417.5" stroke="yellow" stroke-width="1" fill="none" />
<polyline points="120.0,410.5,114.0,411.5" stroke="orange" stroke-width="1" fill="none" />
<polyline points="124.5,423.0,125.5,419.5,125.0,418.5" stroke="green" stroke-width="1" fill="none" />
<polyline points="" stroke="yellow" stroke-width="1" fill="none" />
<polyline points="" stroke="green" stroke-width="1" fill="none" />
<polyline points="109.0,433.5,120.5,429.5,116.5,441.5,123.5,447.0,123.5,440.5,129.5,441.0" stroke="green" stroke-width="1" fill="none" />
<polyline points="" stroke="black" stroke-width="1" fill="none" />
<polyline points="" stroke="black" stroke-width="1" fill="none" />
<polyline points="125.5,453.5,131.0,451.5,123.0,445.0,122.0,447.0" stroke="yellow" stroke-width="1" fill="none" />
<polyline points="113.5,448.5,107.0,442.0" stroke="yellow" stroke-width="1" fill="none" />
<polyline points="103.0,433.0,103.0,431.0" stroke="orange" stroke-width="1" fill="none" />
<polyline points="98.5,448.5,92.0,452.0,95.0,452.0" stroke="orange" stroke-width="1" fill="none" />
<polyline points="81.5,458.5,83.5,459.0,93.5,452.0,89.5,450.0" stroke="green" stroke-width="1" fill="none" />
<polyline points="102.5,459.0,99.0,458.0,99.5,465.5" stroke="yellow" stroke-width="1" fill="none" />
<polyline points="98.5,495.0,103.5,499.0,108.5,505.0,103.5,507.5,111.0,515.0,105.0,512.5,107.5,514.0,103.0,509.5,108.5,505.5" stroke="yellow" stroke-width="1" fill="none" />
<polyline points="112.0,509.5,111.5,512.0,111.0,498.5,108.0,489.0,108.0,489.0,110.5,482.5" stroke="yellow" stroke-width="1" fill="none" />
<polyline points="123.5,486.0,112.0,498.0,116.0,492.0,117.5,506.0,123.0,515.0,116.0,514.5,119.0,508.0" stroke="yellow" stroke-width="1" fill="none" />
<polyline points="98.0,502.0,101.0,502.0,97.5,503.0,97.0,504.0,101.5,507.0" stroke="orange" stroke-width="1" fill="none" />
<polyline points="99.5,498.5,100.5,492.5,95.5,490.5,100.5,504.5,102.0,515.5,107.0,510.5" stroke="green" stroke-width="1" fill="none" />
<polyline points="123.0,501.5,122.5,495.0,118.0,498.0,124.0,489.5,118.5,477.0" stroke="orange" stroke-width="1" fill="none" />
<polyline points="124.0,481.0,126.0,493.5,126.5,490.5,125.0,492.5,131.0,502.0,128.5,505.0,124.5,506.0,126.0,509.5,128.5,512.5" stroke="orange" stroke-width="1" fill="none" />
<polyline points="150.5,441.0,148.5,421.5,145.0,425.5,138.0,415.5,129.0,423.0,136.0,421.0" stroke="black" stroke-width="1" fill="none" />
<polyline points="131.0,427.0,137.0,422.0,131.0,422.5,143.5,432.0,139.0,432.0,144.5,442.0,151.0,448.0,147.0,449.5,143.0,453.5,132.0,459.5,138.5,455.0,129.5,477.0,135.5,459.5,136.5,456.0,139.5,459.5,137.0,460.0,133.5,461.0,131.0,463.5" stroke="yellow" stroke-width="1" fill="none" />
<polyline points="136.5,444.5,138.5,445.5,144.5,425.0,136.0,426.0,139.0,425.5" stroke="green" stroke-width="1" fill="none" />
<polyline points="127.5,431.5,124.0,432.0,124.5,425.5,130.0,417.5,126.5,415.5" stroke="yellow" stroke-width="1" fill="none" />
<polyline points="109.5,419.5,114.5,432.0,118.0,434.5" stroke="green" stroke-width="1" fill="none" />
<polyline points="" stroke="black" stroke-width="1" fill="none" />
<polyline points="100.5,411.0,113.0,416.5,103.5,429.0,104.5,436.5,111.5,435.5" stroke="orange" stroke-width="1" fill="none" />
<polyline points="100.0,438.5,96.5,439.0,91.0,442.0,87.5,441.5,93.0,444.5,101.5,436.5,99.0,440.5,101.0,425.0,102.0,430.0,109.5,424.5" stroke="green" stroke-width="1" fill="none" />
<polyline points="96.5,426.5,89.5,428.5,95.5,431.5,93.0,427.5,94.0,430.5,91.0,426.0" stroke="orange" stroke-width="1" fill="none" />
<polyline points="87.0,422.5,96.5,422.5,76.5,427.5,86.5,417.5,89.0,418.0,92.5,423.5,95.5,424.0" stroke="orange" stroke-width="1" fill="none" />
<polyline points="94.5,407.0" stroke="green" stroke-width="1" fill="none" />
<polyline points="" stroke="yellow" stroke-width="1" fill="none" />
<polyline points="95.0,391.5,87.0,400.5,101.5,400.0,100.5,395.0" stroke="yellow" stroke-width="1" fill="none" />
<polyline points="99.5,408.5,94.5,405.5,93.0,404.5,98.5,409.0,91.0,402.0,90.5,407.5,101.0,396.0,88.0,391.5,91.0,382.0,79.5,384.5,88.5,390.0,87.5,387.5,88.0,386.0" stroke="orange" stroke-width="1" fill="none" />
<polyline points="83.5,395.5,71.5,401.5,69.0,404.0,70.5,400.0,75.0,405.0,68.5,420.5,72.5,419.5,70.0,416.0,69.5,418.5,65.0,421.0,66.0,424.0,76.0,431.0,75.5,433.5,72.0,431.0,68.5,441.0,66.0,444.0,72.0,447.0,72.5,448.0,70.0,453.0,73.5,458.0,71.0,460.5,84.0,459.5,71.0,471.0,59.0,480.5,70.0,485.0,63.0,479.5,64.5,489.5,69.5,493.0,64.0,497.0,69.5,501.0,60.5,500.0,66.5,505.0,64.0,513.0,57.0,512.5,71.0,501.0" stroke="black" stroke-width="1" fill="none" />
<polyline points="62.5,505.5" stroke="green" stroke-width="1" fill="none" />
<polyline points="72.0,488.5" stroke="green" stroke-width="1" fill="none" />
<polyline points="68.0,478.0,67.5,477.0,60.5,476.5,68.0,481.5,70.5,483.5,66.5,482.5,66.0,490.5,67.0,497.0,68.0,496.0,69.5,489.5,68.0,491.5,70.0,494.0" stroke="orange" stroke-width="1" fill="none" />
<polyline points="63.5,464.0,66.0,469.0,74.0,457.0,81.0,454.5,82.5,448.5,80.5,447.5" stroke="orange" stroke-width="1" fill="none" />
<polyline points="" stroke="orange" stroke-width="1" fill="none" />
<polyline points="73.0,451.5,78.5,452.5" stroke="green" stroke-width="1" fill="none" />
<polyline points="64.5,450.5,66.0,469.0,64.0,462.0,59.5,465.0,63.0,459.0,70.5,471.5,72.0,475.0,74.5,485.0,73.5,486.0,75.5,485.5" stroke="yellow" stroke-width="1" fill="none" />
<polyline points="29.5,503.0" stroke="orange" stroke-width="1" fill="none" />
<polyline points="14.5,496.0,18.0,503.0,15.0,503.0,16.0,507.5,18.0,513.5,16.0,517.0" stroke="yellow" stroke-width="1" fill="none" />
<polyline points="17.0,497.0" stroke="black" stroke-width="1" fill="none" />
<polyline points="" stroke="green" stroke-width="1" fill="none" />
<polyline points="15.5,418.0,12.5,419.0,8.0,425.0,10.5,420.5,1.0,430.0,10.0,432.5,11.5,442.0,13.0,443.0,11.5,445.0,16.0,442.5,10.0,446.5,17.5,453.0,13.0,455.5,11.0,467.5,11.0,459.5,21.0,474.5" stroke="black" stroke-width="1" fill="none" />
<polyline points="27.5,464.0,31.5,455.0,30.0,456.0,26.0,458.5,29.5,441.0,32.0,442.0" stroke="black" stroke-width="1" fill="none" />
<polyline points="30.0,416.0,28.0,415.0" stroke="green" stroke-width="1" fill="none" />
<polyline points="25.5,413.0,25.5,421.0,15.5,421.5,19.0,428.0,18.5,428.0,21.5,444.5,32.5,442.5,14.5,442.5,28.0,447.0,25.0,452.0,30.5,449.0,17.5,459.5,28.5,457.0,27.0,460.5,24.0,472.5,26.5,477.0,32.5,476.0,24.0,475.5,30.0,485.0,27.0,495.0,21.0,496.0,33.5,502.5,36.5,498.5" stroke="orange" stroke-width="1" fill="none" />
<polyline points="57.5,433.0,65.0,429.5,66.0,437.0,66.0,436.5" stroke="black" stroke-width="1" fill="none" />
<polyline points="71.0,423.5,73.0,426.0,68.0,426.5,66.5,420.5,64.5,413.5,69.5,420.0,63.0,406.5,68.5,399.5,78.0,396.5,74.5,397.5,82.0,394.5,63.5,403.0,76.0,398.5" stroke="black" stroke-width="1" fill="none" />
<polyline points="" stroke="yellow" stroke-width="1" fill="none" />
<polyline points="" stroke="yellow" stroke-width="1" fill="none" />
<polyline points="67.0,406.0,76.0,413.5,65.0,421.5,59.5,427.0,67.5,426.0" stroke="black" stroke-width="1" fill="none" />
<polyline points="70.0,421.5,72.0,417.0,68.5,422.5,71.5,427.0,77.0,423.0,78.0,422.5" stroke="orange" stroke-width="1" fill="none" />
<polyline points="99.0,444.5,99.5,436.5,102.0,437.0,100.0,440.0,99.5,437.5" stroke="yellow" stroke-width="1" fill="none" />
<polyline points="" stroke="black" stroke-width="1" fill="none" />
<polyline points="111.5,406.5,106.5,408.0,94.5,411.5,90.5,420.5,97.0,417.0" stroke="black" stroke-width="1" fill="none" />
<polyline points="93.0,407.5,104.5,398.0,106.0,403.5,99.0,401.0,100.0,396.5,99.0,398.0,94.5,398.0,96.5,403.0" stroke="orange" stroke-width="1" fill="none" />
<polyline points="97.5,369.0,103.5,372.0,107.5,378.0,101.0,366.5,107.5,359.0,104.5,359.5,108.0,358.0,108.5,355.5,107.5,362.5,109.5,351.5,107.5,341.5,105.0,337.0" stroke="green" stroke-width="1" fill="none" />
<polyline points="111.0,344.0,103.0,333.0,103.0,335.5,105.5,334.5,102.0,336.0" stroke="black" stroke-width="1" fill="none" />
<polyline points="" stroke="yellow" stroke-width="1" fill="none" />
<polyline points="102.5,325.0,109.0,304.5,121.5,316.5,126.5,308.5,127.0,308.5,123.0,312.5,113.5,317.0,112.0,323.0,104.0,309.5,106.0,308.5,115.0,311.5,113.0,319.0,102.5,320.5,102.5,317.5,111.0,318.0,111.0,310.0,119.5,307.5,117.5,300.0,117.5,302.0,121.0,298.0" stroke="orange" stroke-width="1" fill="none" />
<polyline points="116.5,311.0,125.5,311.5,122.0,312.0,118.0,319.5,111.5,324.5,120.0,323.0,109.5,328.0,104.0,333.0,97.0,340.0,90.5,337.0,99.5,349.5,87.5,334.5,91.0,333.5" stroke="yellow" stroke-width="1" fill="none" />
<polyline points="" stroke="green" stroke-width="1" fill="none" />
<polyline points="98.5,368.5,90.0,372.0,98.5,374.5,92.0,385.0,89.0,394.5,84.0,396.0,93.5,392.5,86.5,387.0,87.5,403.5,93.0,406.0,88.0,408.0,93.0,413.5,91.5,416.0,104.5,404.5,108.5,421.0,102.5,407.0,113.0,400.0" stroke="black" stroke-width="1" fill="none" />
<polyline points="126.0,352.0" stroke="orange" stroke-width="1" fill="none" />
<polyline points="116.5,375.5,116.5,375.5,126.5,391.0,128.0,389.0,126.5,392.5,124.0,387.5,130.0,402.0,126.0,404.5,135.5,402.5,136.0,396.0" stroke="black" stroke-width="1" fill="none" />
<polyline points="124.0,370.0,118.5,361.5,120.5,360.5,121.5,356.5,116.5,358.5,113.5,359.5" stroke="orange" stroke-width="1" fill="none" />
<polyline points="128.0,375.0,118.5,374.0,126.5,375.5,132.0,378.5,133.0,383.5" stroke="orange" stroke-width="1" fill="none" />
<polyline points="123.0,364.0" stroke="orange" stroke-width="1" fill="none" />
<polyline points="130.0,359.0,132.0,373.5,138.5,367.0,141.0,362.0,141.5,365.0" stroke="black" stroke-width="1" fill="none" />
<polyline points="174.5,368.0,174.5,367.0,176.0,356.0,180.0,358.0,177.0,343.0,185.0,342.5,183.5,336.5" stroke="green" stroke-width="1" fill="none" />
<polyline points="171.0,340.5,177.5,339.0,171.0,341.5,163.0,346.5,167.5,354.0,161.0,357.0,159.0,370.5,160.0,368.5,166.0,369.5,165.5,357.5,176.5,357.0,178.0,351.0,177.0,347.0,177.5,336.5,191.5,338.5,190.0,332.5,187.0,338.0,191.0,324.0,188.0,325.0,190.5,330.5,195.0,335.0" stroke="black" stroke-width="1" fill="none" />
<polyline points="182.5,347.0" stroke="green" stroke-width="1" fill="none" />
<polyline points="198.5,361.0,197.0,365.5,192.5,351.5,187.5,351.5,190.0,345.5,192.0,341.5" stroke="black" stroke-width="1" fill="none" />
<polyline points="164.5,356.5,166.0,366.5,167.5,357.0,168.0,360.0,171.0,364.5,172.0,365.5" stroke="orange" stroke-width="1" fill="none" />
<polyline points="159.0,369.5,164.0,368.0,161.0,359.0,166.5,361.0,158.0,367.5,156.0,367.0,161.0,361.5,166.5,352.0,173.0,355.0,173.5,347.0,176.0,342.5,177.0,337.5,179.5,339.0,185.0,334.5,176.0,328.0,162.5,322.5,167.0,337.0,161.5,339.5,163.5,339.0,161.0,333.0,167.5,329.0,164.5,333.5,168.5,327.5" stroke="black" stroke-width="1" fill="none" />
<polyline points="169.0,338.5,171.5,332.5,169.0,342.5,168.0,339.5,171.0,336.0,170.5,324.0,174.0,323.0" stroke="black" stroke-width="1" fill="none" />
<polyline points="" stroke="yellow" stroke-width="1" fill="none" />
<polyline points="166.0,321.5,163.5,324.0,157.5,327.0,147.5,340.5,154.0,345.5,155.0,336.0,140.5,348.5,141.5,336.0,142.5,335.0,135.5,340.0,132.0,335.0,140.0,327.0,135.0,322.5,135.0,316.0,125.5,305.0,130.0,314.5,130.5,304.0,135.5,301.0,130.0,301.0,130.0,299.0,141.0,289.0,144.0,295.5,136.0,283.5,133.0,273.5,134.0,277.5,133.0,283.5,140.0,282.0,136.0,278.5,143.5,279.5,142.5,272.5,134.5,276.5,150.5,268.5,156.0,248.5,154.0,250.5,164.5,248.0,160.5,242.5,166.0,244.0,156.5,245.5,150.5,250.0" stroke="green" stroke-width="1" fill="none" />
<polyline points="147.5,249.5,147.5,251.5" stroke="black" stroke-width="1" fill="none" />
<polyline points="140.0,244.0,144.5,251.0,143.0,249.5,154.0,256.0,148.0,260.0" stroke="yellow" stroke-width="1" fill="none" />
<polyline points="144.5,265.5,139.5,269.0,136.0,275.0,135.0,270.5,136.0,276.5" stroke="black" stroke-width="1" fill="none" />
<polyline points="153.5,268.0,147.0,266.0,156.5,260.5,158.0,255.0,155.5,264.0,156.5,263.0,152.0,270.5,149.0,273.0,146.5,277.0,145.5,276.5,148.0,295.0,151.0,289.0,155.0,287.5,159.5,285.0,161.0,288.0,162.5,301.0,161.5,305.5,155.5,302.5,165.5,308.5,165.0,319.0,159.5,318.5,159.0,319.0,162.0,314.5,165.5,317.5,170.5,314.5,170.0,309.0,172.5,305.0,174.5,296.5,186.5,292.0,184.0,293.5,181.5,295.0" stroke="black" stroke-width="1" fill="none" />
<polyline points="178.5,301.0,180.5,297.0" stroke="orange" stroke-width="1" fill="none" />
<polyline points="" stroke="green" stroke-width="1" fill="none" />
<polyline points="178.5,297.5,172.0,306.5,177.5,304.0,183.0,303.5,177.0,309.0,176.5,308.0,180.5,312.5" stroke="yellow" stroke-width="1" fill="none" />
<polyline points="168.5,306.0,166.5,309.5" stroke="orange" stroke-width="1" fill="none" />
<polyline points="169.5,310.0,165.0,297.0,174.5,298.5,177.5,298.5,174.5,286.0,167.0,287.5,174.5,294.0,160.0,301.5,164.5,286.5,168.5,283.0,176.5,284.0,177.0,283.0,175.5,284.0,160.5,283.0,169.0,284.0,165.5,289.5,166.0,284.5,171.5,299.5,163.5,274.0,165.5,280.5,163.0,275.5,164.5,270.5,166.0,261.0,171.5,266.5,172.5,260.5,169.0,265.0,172.0,256.0,173.5,245.5,181.0,246.0,170.5,239.0,175.0,238.5,182.0,233.0,182.0,238.0,171.0,243.5,175.0,244.0" stroke="orange" stroke-width="1" fill="none" />
<polyline points="184.0,223.0,183.5,234.5,178.0,245.0,177.5,240.5,181.5,245.0,175.5,250.0,173.5,249.0,189.5,257.0,183.0,254.5" stroke="black" stroke-width="1" fill="none" />
<polyline points="188.0,253.0,184.0,252.5,184.0,249.5" stroke="yellow" stroke-width="1" fill="none" />
<polyline points="223.0,271.5,230.0,272.5,224.5,275.5,227.5,273.5,238.0,269.0,233.5,269.5,231.5,269.0" stroke="yellow" stroke-width="1" fill="none" />
<polyline points="214.5,320.5,220.5,323.5,215.0,328.5,218.0,332.5,217.0,331.0,218.5,338.0,225.5,343.5,213.0,350.0,223.5,346.5" stroke="yellow" stroke-width="1" fill="none" />
<polyline points="256.5,381.5,251.5,385.5,252.5,376.5,257.5,390.0,262.0,376.0,270.0,390.5,261.5,379.0" stroke="yellow" stroke-width="1" fill="none" />
<polyline points="262.0,385.5,260.5,376.0,251.5,392.5,252.0,395.0,256.5,393.0,245.5,392.0,244.0,394.0,248.0,390.0,240.5,396.0" stroke="orange" stroke-width="1" fill="none" />
<polyline points="277.5,348.0,272.5,350.0,274.5,351.5" stroke="black" stroke-width="1" fill="none" />
<polyline points="275.0,350.0,277.5,347.5,280.0,347.0" stroke="yellow" stroke-width="1" fill="none" />
<polyline points="218.0,357.5,221.0,347.0,222.0,350.0,220.0,342.0,223.5,333.0,221.0,332.5,225.0,326.0,222.5,324.0,222.0,315.0,219.5,312.5,222.5,314.5,214.0,305.5,222.5,304.0,217.5,314.0" stroke="green" stroke-width="1" fill="none" />
<polyline points="171.5,292.5,176.5,291.0,171.5,291.5,174.5,291.0" stroke="orange" stroke-width="1" fill="none" />
<polyline points="175.0,298.5,176.0,301.5,182.0,309.5,174.0,309.5,173.0,309.5" stroke="yellow" stroke-width="1" fill="none" />
<polyline points="162.5,306.0,156.0,302.0,154.0,308.0,154.0,313.5,157.0,315.5" stroke="black" stroke-width="1" fill="none" />
<polyline points="161.0,313.5,161.5,308.5" stroke="orange" stroke-width="1" fill="none" />
<polyline points="166.5,313.0,164.5,312.5,164.5,316.0,159.0,315.0,157.5,318.0" stroke="black" stroke-width="1" fill="none" />
<polyline points="154.5,293.0,156.0,295.5" stroke="black" stroke-width="1" fill="none" />
<polyline points="" stroke="orange" stroke-width="1" fill="none" />
<polyline points="165.0,288.0,145.5,290.0" stroke="green" stroke-width="1" fill="none" />
<polyline points="151.0,282.5,150.5,285.0,150.5,283.5" stroke="orange" stroke-width="1" fill="none" />
<polyline points="173.0,291.0,174.0,293.0,173.5,298.5,167.0,291.0" stroke="black" stroke-width="1" fill="none" />
<polyline points="177.0,295.0,177.5,303.0,173.0,308.5,168.0,307.0,168.5,305.0" stroke="orange" stroke-width="1" fill="none" />
<polyline points="158.0,295.5" stroke="black" stroke-width="1" fill="none" />
<polyline points="161.0,289.0,166.5,293.0,164.0,297.5,172.5,297.0,171.0,296.0" stroke="black" stroke-width="1" fill="none" />
<polyline points="172.5,285.0,178.0,298.0,168.5,294.0,173.0,303.0,167.0,313.5,170.0,311.5,167.5,309.5,160.5,318.0,170.0,316.0,170.0,319.0,168.5,332.5,163.0,334.0,155.5,334.5,159.5,338.5,158.5,337.5,152.0,346.5,147.5,351.5,154.0,355.5,148.0,355.0,145.0,348.0,144.5,346.0,153.5,353.0,157.0,356.0,167.5,347.5,162.0,342.0,159.0,341.5" stroke="green" stroke-width="1" fill="none" />
<polyline points="" stroke="orange" stroke-width="1" fill="none" />
<polyline points="157.5,276.5,167.0,277.0,169.5,275.0,159.5,265.0,152.5,264.0,161.5,261.0,159.5,256.0" stroke="orange" stroke-width="1" fill="none" />
<polyline points="164.5,261.5,172.0,261.5,169.0,267.0,166.0,274.0,169.5,280.5,168.0,273.0" stroke="black" stroke-width="1" fill="none" />
<polyline points="" stroke="yellow" stroke-width="1" fill="none" />
<polyline points="142.0,282.0,155.0,282.0,150.5,274.0,159.0,278.5,160.0,278.0,159.0,286.0,165.0,278.5,168.5,282.0,162.5,285.5,181.0,280.5,172.5,295.0,171.0,282.5,178.5,283.5" stroke="black" stroke-width="1" fill="none" />
<polyline points="168.5,290.0,163.0,293.5,172.0,287.5,163.0,289.0,169.0,287.5,168.5,288.5" stroke="yellow" stroke-width="1" fill="none" />
<polyline points="160.0,286.0,167.5,283.5,158.0,295.0,163.5,288.0,164.5,287.5,160.0,288.0,162.5,286.0" stroke="green" stroke-width="1" fill="none" />
<polyline points="149.0,294.0,158.0,293.5,156.0,277.5,155.5,277.0,151.5,270.5,153.0,262.5,158.5,265.0,167.0,268.0,163.5,249.0,167.0,257.5,167.5,250.0,162.5,249.0,165.5,242.0,159.5,238.0,166.0,250.0,158.0,255.5,157.0,251.0,147.0,253.5,141.0,259.5,150.5,250.0,139.5,270.0,132.5,256.5,139.5,265.5,123.0,256.0,132.0,272.0,130.5,272.5,134.5,259.5,134.0,253.5,139.0,250.0,128.5,252.5,133.5,243.0,144.0,243.0,134.0,243.0,139.0,238.0,143.0,227.0,133.5,231.5,139.0,226.0,138.5,225.5,133.0,223.0,139.0,217.0,122.0,214.0,129.0,200.0,121.5,200.0,128.0,200.0,115.5,199.0,124.5,192.0,122.0,176.5,119.0,182.0,118.5,179.5,121.5,175.0,116.5,166.0,122.5,160.0,122.0,161.0,117.0,149.0,118.0,142.5,117.0,142.0,120.5,138.5,126.5,138.0,121.0,133.5,124.0,133.5,129.5,125.0,132.5,128.5,130.5,116.5,133.5,119.0,134.5,106.5,139.0,114.0,133.5,97.5,143.5,101.5,138.5,106.5,139.0,98.0,140.5,99.0,139.0,106.5,137.0,109.0" stroke="green" stroke-width="1" fill="none" />
<polyline points="133.0,102.0,137.0,111.5,141.0,111.5,139.5,119.5,132.0,129.5,126.5,120.5,134.5,136.0,132.5,132.0,128.0,138.0,135.5,137.0,138.0,151.5,132.5,146.5,130.0,145.5,125.5,148.0,127.5,151.5,126.0,152.0,124.5,156.5" stroke="black" stroke-width="1" fill="none" />
<polyline points="127.5,153.5,137.0,154.5,135.5,155.0,129.0,156.5,127.0,165.0,129.0,166.0,126.0,170.5,133.0,160.5,126.0,162.5,130.0,166.0,127.5,169.5,127.0,174.5,133.0,173.0" stroke="black" stroke-width="1" fill="none" />
<polyline points="143.0,183.0,124.0,180.0,134.0,182.5,139.0,175.0,137.5,171.5,137.5,175.5" stroke="green" stroke-width="1" fill="none" />
<polyline points="127.0,174.5,137.0,173.5,132.5,178.0,143.5,176.0,129.5,170.5,133.0,169.0,132.5,174.0,137.5,169.5" stroke="green" stroke-width="1" fill="none" />
<polyline points="140.5,180.0,140.5,177.5,136.0,178.0,135.0,179.5" stroke="orange" stroke-width="1" fill="none" />
<polyline points="133.5,173.5,133.5,181.5,133.5,172.5,142.0,174.5,134.0,166.0" stroke="orange" stroke-width="1" fill="none" />
<polyline points="140.5,180.5,139.0,175.5,146.5,175.5,143.5,192.5,135.0,180.5,143.5,202.5,139.5,194.5,140.5,195.5,149.0,190.5,153.0,193.0,148.0,201.0" stroke="green" stroke-width="1" fill="none" />
<polyline points="152.0,200.5" stroke="green" stroke-width="1" fill="none" />
<polyline points="153.0,196.0,149.5,185.5,146.0,193.0,149.5,190.5,152.0,191.5" stroke="yellow" stroke-width="1" fill="none" />
<polyline points="" stroke="yellow" stroke-width="1" fill="none" />
<polyline points="152.0,201.5,150.5,192.0,146.5,194.5,150.0,191.5,142.0,184.5,141.5,195.0,148.0,177.5,149.5,184.0,143.5,185.0" stroke="orange" stroke-width="1" fill="none" />
<polyline points="137.0,176.5,149.5,183.0,151.0,194.5,152.5,183.0,143.0,197.5" stroke="yellow" stroke-width="1" fill="none" />
<polyline points="148.5,189.5,151.5,184.5" stroke="orange" stroke-width="1" fill="none" />
<polyline points="159.0,175.5,166.0,176.5,172.0,176.0,177.5,168.0,169.5,162.5,177.0,168.5,180.5,155.5,188.5,160.5,189.0,155.0,197.0,150.0,202.5,152.5,204.0,143.5" stroke="orange" stroke-width="1" fill="none" />
<polyline points="206.0,154.0,205.5,154.5,213.5,155.5,213.0,153.5" stroke="yellow" stroke-width="1" fill="none" />
<polyline points="219.5,155.5,227.0,156.0,223.0,155.5,219.0,155.5,216.5,158.5,215.0,152.5,216.5,157.5,213.5,153.5,213.5,157.0" stroke="yellow" stroke-width="1" fill="none" />
<polyline points="220.0,149.0,218.5,145.0,221.0,153.0" stroke="orange" stroke-width="1" fill="none" />
<polyline points="225.0,176.5,225.5,165.5,220.5,175.0,218.5,183.0,215.5,193.0,211.0,187.0,208.5,185.0,204.0,194.0,202.5,193.0" stroke="green" stroke-width="1" fill="none" />
<polyline points="217.5,188.0,216.5,188.5,216.5,184.5,208.0,189.5,223.0,179.0,218.5,169.5,226.0,179.0,237.0,175.0,233.0,170.0,243.0,165.0,246.5,172.5,242.0,177.0,233.5,177.5,239.0,183.0,234.5,173.0,238.5,179.5,232.5,176.5" stroke="green" stroke-width="1" fill="none" />
<polyline points="233.5,184.0,231.5,187.5,236.5,184.0,225.5,191.5,223.5,196.0,223.5,190.0,215.5,205.5,200.0,215.0,202.5,210.0,202.5,216.5,204.5,222.0,203.5,228.0,205.0,231.0,213.5,233.5,207.5,234.5,213.0,233.0,212.0,232.0" stroke="yellow" stroke-width="1" fill="none" />
<polyline points="208.5,206.5,206.0,203.0,212.5,209.0,216.5,194.5,215.5,190.5,217.5,194.5,227.0,194.0,230.0,184.0" stroke="black" stroke-width="1" fill="none" />
<polyline points="219.0,198.0,208.5,203.5,215.0,203.5,206.5,200.5,207.5,209.5,200.5,204.5,203.5,206.5,207.5,201.5,218.5,198.5,226.0,196.5,226.0,205.5,225.5,196.5,227.5,197.0,225.0,199.5" stroke="green" stroke-width="1" fill="none" />
<polyline points="217.5,199.5,221.0,191.0,226.0,194.5,228.0,194.0,226.0,195.5" stroke="black" stroke-width="1" fill="none" />
<polyline points="219.0,176.5,221.0,186.5,221.5,186.5" stroke="orange" stroke-width="1" fill="none" />
<polyline points="231.5,170.0,230.0,176.0,223.5,188.0,230.0,191.5,220.5,197.5,206.5,192.0,208.0,195.0" stroke="orange" stroke-width="1" fill="none" />
<polyline points="" stroke="orange" stroke-width="1" fill="none" />
<polyline points="" stroke="black" stroke-width="1" fill="none" />
<polyline points="195.0,202.5,204.5,196.5,187.5,198.5,191.0,206.0,196.0,196.5,187.5,205.0,186.0,204.5,189.5,198.0,183.5,195.0" stroke="orange" stroke-width="1" fill="none" />
<polyline points="189.5,197.5,188.0,200.0" stroke="green" stroke-width="1" fill="none" />
<polyline points="183.5,205.5,188.5,208.5,195.5,208.0,192.0,223.0,183.5,216.0,188.5,225.5,195.0,218.5,190.0,210.0,186.0,205.5" stroke="green" stroke-width="1" fill="none" />
<polyline points="" stroke="black" stroke-width="1" fill="none" />
<polyline points="180.0,215.5,175.5,212.0,186.0,211.5,184.0,215.0,183.5,216.5,182.0,211.5,185.0,211.0" stroke="yellow" stroke-width="1" fill="none" />
<polyline points="" stroke="yellow" stroke-width="1" fill="none" />
<polyline points="169.0,217.0,161.5,223.5,173.5,226.0,172.0,226.5,171.0,223.0" stroke="yellow" stroke-width="1" fill="none" />
<polyline points="187.0,221.0,179.0,226.5,170.0,222.0,158.5,231.0,178.0,238.0,172.5,238.0,170.5,234.0,168.5,230.0" stroke="green" stroke-width="1" fill="none" />
<polyline points="161.0,251.5,172.0,246.5,164.0,248.0,165.0,247.5" stroke="black" stroke-width="1" fill="none" />
<polyline points="160.0,257.0,156.5,260.5,154.5,259.0,150.0,271.0,133.5,260.0,135.5,272.0,132.5,276.0,130.5,271.0,124.0,276.5,119.0,265.5,112.5,260.0,124.0,261.5,112.5,263.5" stroke="yellow" stroke-width="1" fill="none" />
<polyline points="116.0,267.5,115.5,260.5" stroke="orange" stroke-width="1" fill="none" />
<polyline points="113.0,275.5,120.0,277.0,104.0,284.0,108.5,286.0,107.5,301.5,106.5,298.0,98.0,304.5,87.0,311.5,87.0,310.5,85.5,313.0,80.0,322.5,82.0,325.5,88.0,340.5,83.0,334.0,87.0,340.5,78.5,340.0,85.5,349.0,85.5,347.0,75.0,353.5,77.5,355.0,72.5,358.0,65.0,356.5,73.5,360.5,65.5,356.0,74.5,348.0,73.0,346.0,88.0,333.5,85.5,333.5,92.5,328.5" stroke="black" stroke-width="1" fill="none" />
<polyline points="91.5,326.5,97.5,333.0,96.5,323.0,91.5,333.5,84.5,335.5,86.0,345.0,78.5,339.5,82.5,345.5,77.0,351.5,70.5,357.0,66.0,358.5,57.5,365.5,60.5,366.0,62.0,370.5,70.0,365.5,69.5,356.0,72.0,344.5,82.0,345.5,81.5,345.0,86.5,338.5,78.5,349.0,93.0,343.5,89.0,348.0,81.0,352.0,87.0,360.5,75.5,354.5,84.0,377.0,80.5,366.0,78.5,370.5,86.0,370.5,82.0,370.0,83.5,350.0,87.5,362.5,95.0,346.5" stroke="yellow" stroke-width="1" fill="none" />
<polyline points="105.0,349.0,96.0,355.5,105.0,356.5,101.5,369.5,101.5,365.0,91.5,377.0,101.0,375.0,102.0,376.5,103.5,373.5,104.5,373.0" stroke="black" stroke-width="1" fill="none" />
<polyline points="109.5,372.0,112.5,363.0,103.5,357.0,104.0,359.0,101.0,360.5,98.5,356.0" stroke="yellow" stroke-width="1" fill="none" />
<polyline points="105.5,362.0,106.5,365.0,115.5,363.0,105.5,361.0,113.0,364.5,111.0,366.0,110.0,364.5" stroke="green" stroke-width="1" fill="none" />
<polyline points="108.5,358.0,109.5,358.0" stroke="yellow" stroke-width="1" fill="none" />
<polyline points="120.5,351.5,125.0,358.0,123.0,364.5,136.5,356.0,132.5,370.5" stroke="green" stroke-width="1" fill="none" />
<polyline points="" stroke="yellow" stroke-width="1" fill="none" />
<polyline points="70.5,368.0,80.5,363.5,85.5,351.0,86.5,348.0,92.0,347.5,74.0,354.0,73.5,353.5,69.0,364.0,76.0,359.5,70.5,378.0,77.0,373.0,77.5,368.0,78.5,368.5,81.5,367.5" stroke="green" stroke-width="1" fill="none" />
<polyline points="83.5,384.5,81.0,387.5,79.0,381.5,74.0,389.5,70.0,393.5,60.5,389.5,61.5,397.5,51.5,400.0,61.5,404.0,62.0,394.0,74.0,388.0,81.5,386.5,75.0,382.5,79.0,381.0,69.0,382.5,61.0,392.0,67.0,396.0,63.5,390.5,55.0,406.0,66.5,400.5,68.0,396.5,72.5,385.0,82.5,384.0,82.0,382.5,85.5,370.0,93.5,371.5,88.0,365.5,81.0,361.5,91.5,350.5,91.0,357.5,90.0,347.5,93.0,353.5,94.0,357.5,96.0,341.0,99.0,349.5,98.0,346.5,86.5,362.0,94.0,342.5,93.0,338.0,100.0,341.0,101.5,329.5,93.5,327.5,98.0,325.0,94.0,315.5,96.0,319.0,94.5,310.5,100.0,310.0,103.0,305.5,103.5,295.5,108.0,309.5,94.5,315.5,99.5,319.5,98.0,318.5,96.0,314.0" stroke="black" stroke-width="1" fill="none" />
<polyline points="85.5,313.5,88.0,314.0,89.5,313.5,90.0,314.5,83.5,306.0,96.0,305.5,99.0,302.5,117.0,290.5,104.5,290.0,107.0,291.0,114.5,287.5,113.0,290.0,116.5,286.0" stroke="orange" stroke-width="1" fill="none" />
<polyline points="91.0,297.0,90.5,309.5,86.0,305.5,82.5,304.5,80.0,304.5" stroke="orange" stroke-width="1" fill="none" />
<polyline points="103.0,297.5,102.0,301.0,85.0,295.0,91.0,301.5,80.0,300.5,80.5,294.5,93.5,296.5,95.0,296.0" stroke="black" stroke-width="1" fill="none" />
<polyline points="88.5,292.0,90.0,293.0,85.5,293.5,94.5,290.0,100.0,296.0,93.0,286.5,104.0,293.0,103.0,288.0,101.5,292.5" stroke="black" stroke-width="1" fill="none" />
<polyline points="101.0,278.0,107.0,277.5,116.5,272.5" stroke="yellow" stroke-width="1" fill="none" />
<polyline points="108.0,272.0,111.5,270.0,111.0,270.0,109.0,268.0,105.0,283.5,105.0,279.0,96.0,280.5,88.5,286.5,95.5,288.5,91.5,283.0,105.0,276.5,98.5,279.0,118.5,292.0,115.5,282.5,124.5,291.0,119.5,292.5,123.5,291.0,127.5,290.0" stroke="orange" stroke-width="1" fill="none" />
<polyline points="120.0,281.0,113.5,285.0,107.0,287.0,103.0,289.5,96.5,282.5,98.5,289.5,86.0,292.5,88.0,294.5,95.5,291.0" stroke="green" stroke-width="1" fill="none" />
<polyline points="96.5,270.0,99.0,260.5,116.5,259.5,94.5,268.5,96.0,272.5,97.5,280.5,89.5,286.0,90.5,282.0,97.0,273.5,104.5,278.0,97.0,279.0,106.0,278.5,109.5,280.5,110.0,289.0,116.5,274.0,116.0,280.5,134.5,268.5,134.5,267.0,134.5,265.5" stroke="black" stroke-width="1" fill="none" />
<polyline points="128.0,268.5,131.5,266.0,125.5,270.5,118.5,276.5,102.5,289.0,96.0,290.0,97.0,302.0,101.0,293.5,88.0,311.5,75.0,313.0,87.5,308.0,83.0,314.0,72.5,322.0,81.5,316.5,77.5,314.5,78.5,310.5,76.0,310.5" stroke="green" stroke-width="1" fill="none" />
<polyline points="" stroke="yellow" stroke-width="1" fill="none" />
<polyline points="130.0,301.5,124.0,309.5,121.0,307.0,118.0,316.5,115.0,311.5,117.0,335.5,109.0,314.0,96.0,326.0,104.5,328.0" stroke="green" stroke-width="1" fill="none" />
<polyline points="70.0,326.0,68.0,323.5,68.0,328.0,63.5,322.5,77.0,328.5,71.5,316.5,73.0,309.0,74.0,311.0,76.5,306.0,76.5,306.0,75.0,309.0" stroke="yellow" stroke-width="1" fill="none" />
<polyline points="" stroke="yellow" stroke-width="1" fill="none" />
<polyline points="74.5,312.0,82.0,306.5,90.5,306.0,98.5,299.0,96.5,299.0" stroke="green" stroke-width="1" fill="none" />
<polyline points="95.5,313.5,99.5,322.5,106.5,313.0,102.5,316.0,104.5,304.5,108.0,304.0,102.0,305.5" stroke="orange" stroke-width="1" fill="none" />
<polyline points="105.0,288.5,108.5,285.0,109.0,288.5,105.0,289.0,102.0,287.0,103.5,287.5,99.0,283.0,104.5,290.5,105.5,290.0,107.0,286.0" stroke="orange" stroke-width="1" fill="none" />
<polyline points="109.0,287.0,97.0,292.5,109.0,288.0,106.5,286.5,107.5,285.0" stroke="black" stroke-width="1" fill="none" />
<polyline points="87.5,282.5,94.5,277.0,92.5,279.5" stroke="black" stroke-width="1" fill="none" />
<polyline points="112.5,293.0,121.5,292.5,113.0,292.0,110.5,306.0,102.0,308.5,102.0,307.0,102.5,322.0,97.5,319.0,103.0,325.0,101.5,335.0,100.0,330.5,100.0,344.5,93.5,343.5,100.0,338.5,103.5,338.0,104.0,331.0,111.0,330.0,114.5,318.5,126.5,303.0,115.0,297.5,124.0,295.0,128.0,304.0,130.5,310.5" stroke="black" stroke-width="1" fill="none" />
<polyline points="126.5,318.5,132.5,318.5,129.5,320.0,128.5,332.0,137.0,334.5" stroke="black" stroke-width="1" fill="none" />
<polyline points="122.5,310.0,121.0,311.0,128.0,314.0,120.5,320.0,127.5,333.0,105.0,327.0,114.0,343.0,107.5,347.0,100.0,337.5,101.0,343.0,90.5,342.5,94.5,349.0,98.0,351.5,91.5,353.0,99.0,357.5,96.5,368.5,94.0,362.5,93.5,369.0,91.0,379.0,94.0,385.5,95.5,384.0" stroke="green" stroke-width="1" fill="none" />
<polyline points="81.5,392.5,76.0,401.0,77.0,403.5,74.5,412.5,61.5,409.5" stroke="orange" stroke-width="1" fill="none" />
<polyline points="" stroke="orange" stroke-width="1" fill="none" />
<polyline points="129.0,294.5,125.5,303.0,115.5,310.0,110.5,314.5,101.5,321.5,115.0,304.0,102.5,302.5,114.5,301.5,118.0,299.5,121.0,292.5" stroke="green" stroke-width="1" fill="none" />
<polyline points="" stroke="black" stroke-width="1" fill="none" />
<polyline points="" stroke="yellow" stroke-width="1" fill="none" />
<polyline points="135.5,233.0,144.0,237.0,139.5,243.5,134.0,247.5,145.5,243.0,146.5,242.5" stroke="yellow" stroke-width="1" fill="none" />
<polyline points="143.0,252.0,149.0,245.5,140.5,238.0,131.5,245.5,137.0,249.5" stroke="green" stroke-width="1" fill="none" />
<polyline points="142.0,236.5,133.0,220.5,137.5,224.5,134.0,224.0,144.5,219.0,143.0,219.0" stroke="orange" stroke-width="1" fill="none" />
<polyline points="150.0,211.0" stroke="black" stroke-width="1" fill="none" />
<polyline points="153.0,209.0,150.0,208.0,150.5,211.0,150.5,209.5" stroke="orange" stroke-width="1" fill="none" />
<polyline points="136.5,193.5,139.5,196.0,136.0,187.0,142.0,195.0,142.0,183.5,150.0,177.0,144.0,175.5,142.0,183.5,140.5,185.5" stroke="green" stroke-width="1" fill="none" />
<polyline points="" stroke="orange" stroke-width="1" fill="none" />
<polyline points="141.0,182.0,150.5,178.0,150.5,188.5,141.0,187.0,135.5,187.0,135.0,187.5" stroke="green" stroke-width="1" fill="none" />
<polyline points="" stroke="green" stroke-width="1" fill="none" />
<polyline points="143.0,194.0,157.5,193.0,141.5,211.0,145.0,214.0,140.5,210.0,144.5,210.5" stroke="green" stroke-width="1" fill="none" />
<polyline points="124.0,208.0,121.0,194.0,121.0,197.5" stroke="orange" stroke-width="1" fill="none" />
<polyline points="113.5,221.5,116.0,222.0,115.5,234.0,109.0,231.5,120.5,229.5,114.5,232.0,116.0,232.5" stroke="black" stroke-width="1" fill="none" />
<polyline points="116.0,233.0,116.5,218.0,114.0,226.0" stroke="yellow" stroke-width="1" fill="none" />
<polyline points="119.0,258.0,117.5,255.0,110.5,261.5,115.0,258.0,119.5,259.0,125.0,254.5,125.0,254.5,128.0,242.0,138.0,240.0,142.5,233.5,148.5,234.0,159.0,227.0,155.5,225.0,156.5,224.0,158.0,226.0,158.0,228.5" stroke="green" stroke-width="1" fill="none" />
<polyline points="153.5,236.0,136.5,236.0,138.5,243.5,140.0,248.5,134.5,251.5,133.5,262.5,137.0,273.0,142.0,268.5,141.5,266.0,126.5,272.5,131.5,270.5,139.5,276.0,134.5,275.5" stroke="orange" stroke-width="1" fill="none" />
<polyline points="152.5,254.0,154.5,257.5,153.5,253.0,159.0,251.0,155.5,250.5,160.0,249.0,162.5,250.5,155.0,246.5" stroke="orange" stroke-width="1" fill="none" />
<polyline points="165.0,229.5,166.0,239.5,169.0,226.0" stroke="yellow" stroke-width="1" fill="none" />
<polyline points="166.0,228.0" stroke="yellow" stroke-width="1" fill="none" />
<polyline points="171.0,238.5,170.5,230.0,164.5,234.0,158.0,242.0,163.5,251.5,155.5,244.5,143.0,250.0,154.0,252.0,156.0,258.0,150.0,263.0,144.5,266.0,130.0,263.0,133.5,274.5,131.5,280.5,126.5,284.0,127.5,287.0,129.5,294.0,125.0,304.0,128.0,303.5,121.5,319.5,124.0,311.5,117.5,324.0,113.0,325.0,120.0,334.0,122.5,333.0,118.5,339.5,120.5,335.5,113.5,334.0,125.0,340.5,137.0,348.0,136.5,349.5,134.5,361.0,135.5,357.0,132.0,356.0,141.5,367.5,138.0,369.5,147.0,370.0,139.5,379.5,145.0,376.0,137.0,392.0,140.5,389.5,147.5,404.5,149.0,389.5,145.5,395.5,143.0,401.0,150.0,406.0,141.5,404.5,153.5,410.5,146.5,416.5,157.0,414.5,164.5,417.5,162.5,419.0" stroke="yellow" stroke-width="1" fill="none" />
<polyline points="160.5,412.0,164.0,413.0" stroke="orange" stroke-width="1" fill="none" />
<polyline points="" stroke="yellow" stroke-width="1" fill="none" />
<polyline points="" stroke="black" stroke-width="1" fill="none" />
<polyline points="196.5,425.0,199.5,422.0,196.5,427.0,192.5,428.0" stroke="orange" stroke-width="1" fill="none" />
<polyline points="197.0,406.0,205.0,401.0,203.5,395.0,198.5,405.5,194.5,398.0,199.0,401.5" stroke="yellow" stroke-width="1" fill="none" />
<polyline points="195.0,388.5,191.0,396.0,191.0,406.5,193.0,404.5,187.5,407.0,182.0,420.0,184.5,413.5,191.0,416.5,187.5,421.5,187.0,431.0,195.5,434.0,181.5,430.0,185.0,437.5,179.5,438.0,189.5,448.5,186.5,438.5,199.0,451.0,200.5,451.5,200.0,448.5" stroke="green" stroke-width="1" fill="none" />
<polyline points="379.5,352.5,374.5,353.5,373.0,344.0,376.5,350.0,377.0,343.5,383.0,343.5,385.5,335.5,376.0,325.5,378.5,319.5,379.0,316.0,376.0,309.5,364.5,313.5,377.0,310.5,378.5,310.0" stroke="yellow" stroke-width="1" fill="none" />
<polyline points="374.0,285.0,378.5,276.5,382.5,281.5,381.0,281.0,388.0,275.5,385.5,266.5,384.5,269.0,384.5,266.0,384.5,263.5,388.0,264.0" stroke="black" stroke-width="1" fill="none" />
<polyline points="364.5,278.5,372.0,278.0,367.5,277.0,363.0,282.5,368.0,286.0,361.5,285.0,361.5,297.5,368.0,295.5,362.5,306.0,359.5,303.5,355.0,309.0,359.0,310.0" stroke="yellow" stroke-width="1" fill="none" />
<polyline points="339.5,275.0,341.5,273.0,348.5,279.5,344.5,286.0,338.0,280.0,334.5,284.0,323.5,268.5,322.0,262.5,316.5,279.5,323.5,268.5,331.5,273.5,326.0,278.0,325.0,277.5" stroke="black" stroke-width="1" fill="none" />
<polyline points="322.0,267.5,324.5,267.5,323.0,268.0,330.0,266.0,336.0,274.5,325.0,276.0" stroke="orange" stroke-width="1" fill="none" />
<polyline points="326.5,279.0,330.0,275.5,319.0,271.0,323.0,263.5,328.0,257.5,336.5,253.5,332.5,253.5" stroke="yellow" stroke-width="1" fill="none" />
<polyline points="362.0,270.0,368.0,273.0,363.5,275.0,358.0,271.0,353.5,276.5" stroke="green" stroke-width="1" fill="none" />
<polyline points="291.0,235.5,283.0,231.0,284.0,228.0" stroke="green" stroke-width="1" fill="none" />
<polyline points="272.0,217.0,270.5,197.5,281.5,199.5,271.0,207.5,283.5,199.5,288.5,192.5,288.5,189.5,294.5,182.5,299.5,191.0,301.5,183.5,306.5,184.0,306.0,178.0,310.0,181.0" stroke="green" stroke-width="1" fill="none" />
<polyline points="316.0,172.5,316.5,178.5,301.0,176.5,297.5,177.0,295.0,186.0,297.0,184.5,292.0,191.5,282.5,193.5,285.0,198.0,275.0,195.5,267.0,202.0,264.5,207.5,263.0,213.5,267.0,210.0,266.5,223.5,250.5,222.5,255.5,228.0,246.5,229.0,245.0,238.5,245.5,249.0,233.5,243.0,238.0,252.5,235.0,261.0,224.5,266.0,221.5,259.0,211.5,279.5,205.5,283.5,207.5,289.5,203.5,302.5,195.0,307.0,203.5,326.0,198.0,317.0,198.5,311.0,195.5,315.0,207.0,304.0,196.5,297.5,198.5,295.0,204.0,295.5,213.5,286.5,212.5,291.0,210.0,286.0,214.5,278.5,219.0,281.5,222.0,272.0,222.0,264.5,227.5,264.5,224.0,252.5,226.5,259.5,234.5,246.5,230.0,244.0,239.0,236.5,244.0,235.5,245.5,226.5,253.5,232.5,250.5,224.5,263.5,225.0,259.0,219.0,257.0,204.5,263.5,216.5,265.0,203.0" stroke="orange" stroke-width="1" fill="none" />
<polyline points="256.5,211.5,266.0,206.0,259.5,210.5" stroke="green" stroke-width="1" fill="none" />
<polyline points="" stroke="yellow" stroke-width="1" fill="none" />
<polyline points="213.5,198.5,220.5,182.0,215.0,183.0,225.0,184.0,220.5,181.0,227.0,175.0,231.0,178.5,228.0,184.0" stroke="orange" stroke-width="1" fill="none" />
<polyline points="233.5,174.0,227.0,185.5,211.5,184.0,216.0,181.5,221.0,195.0,202.5,199.5,218.0,191.5,207.0,201.0,218.5,200.0,219.5,198.5,228.5,190.0,234.5,189.5,241.5,190.5,230.0,180.5,229.5,182.5" stroke="orange" stroke-width="1" fill="none" />
<polyline points="253.0,174.0,241.5,178.0,240.5,181.0,238.5,179.0,240.5,175.5,240.0,178.0,249.5,181.5" stroke="green" stroke-width="1" fill="none" />
<polyline points="255.5,177.5,248.0,177.0,240.5,180.5,251.5,183.5,241.5,198.0,241.5,200.5,234.0,201.0,237.0,208.0,236.0,216.0,228.0,204.5,241.0,206.5,239.0,208.0,237.5,208.5,240.5,212.0,243.5,215.0,240.5,215.0" stroke="yellow" stroke-width="1" fill="none" />
<polyline points="266.0,183.5,260.5,196.5,259.5,193.0,246.5,203.0,248.5,202.5,252.5,202.0,262.0,201.5,250.0,200.0,260.0,199.5,259.0,200.0" stroke="yellow" stroke-width="1" fill="none" />
<polyline points="266.0,187.5,271.5,189.0,262.0,186.5,259.5,185.5,256.0,192.5,256.0,183.5,262.0,184.0,261.0,182.0" stroke="green" stroke-width="1" fill="none" />
<polyline points="252.5,184.5,243.0,189.5,247.0,198.5,248.5,203.5,249.5,194.0,247.5,193.5,248.0,193.0,249.0,188.0,254.0,190.5,255.0,184.0,257.0,186.0,265.0,185.0,262.5,184.5,261.0,178.0,263.0,174.0" stroke="yellow" stroke-width="1" fill="none" />
<polyline points="268.0,178.5,260.5,178.5,272.0,177.5,272.0,177.5,278.5,183.5,281.0,174.5,285.0,178.5,284.5,174.0,294.0,179.0,296.5,179.0,290.5,186.0,290.0,193.5,290.0,187.0,275.5,196.5,276.5,192.0,276.5,191.0,271.0,196.0,265.5,197.5,283.0,187.0,278.5,195.5,289.0,186.0,292.0,182.0,288.0,183.0,291.5,178.5,302.5,167.5,310.0,167.0,306.0,173.5,317.0,171.0,314.5,167.5,325.5,170.5,325.0,164.5,333.5,164.0,331.0,157.0,339.0,149.0,334.0,158.0,339.0,152.0,339.5,147.0,339.0,147.0" stroke="orange" stroke-width="1" fill="none" />
<polyline points="304.0,175.0,302.5,177.5,303.0,174.0,300.5,188.5,290.5,193.0,290.5,187.5,283.5,197.5,276.5,194.5,261.5,210.0,269.5,211.5,273.0,203.5,263.0,214.5,263.5,214.0,269.5,216.5,261.0,223.0,269.5,228.5,265.0,233.0,270.0,239.5,269.5,239.0,264.5,241.0,265.0,239.5,259.0,239.5" stroke="yellow" stroke-width="1" fill="none" />
<polyline points="265.5,190.0,263.5,186.5" stroke="yellow" stroke-width="1" fill="none" />
<polyline points="261.0,161.5,255.0,160.5,254.5,160.0,246.5,161.5,243.5,162.0,248.0,164.0,246.5,159.5" stroke="yellow" stroke-width="1" fill="none" />
<polyline points="" stroke="black" stroke-width="1" fill="none" />
<polyline points="255.0,175.5,255.0,173.5,258.5,175.0,256.5,173.0,261.5,182.0,259.5,178.5" stroke="black" stroke-width="1" fill="none" />
<polyline points="244.5,140.5,248.0,138.5,253.5,134.5,257.5,126.5,258.5,131.0,262.5,127.5,250.0,137.5,246.0,131.0,254.0,140.0,244.0,144.0" stroke="black" stroke-width="1" fill="none" />
<polyline points="" stroke="yellow" stroke-width="1" fill="none" />
<polyline points="213.5,153.0,221.0,150.5,222.0,154.0,220.0,150.0,218.0,154.5" stroke="yellow" stroke-width="1" fill="none" />
<polyline points="216.0,142.0,217.0,140.0,222.5,141.5,215.5,140.5" stroke="orange" stroke-width="1" fill="none" />
<polyline points="205.5,151.0,199.5,152.5,210.0,141.0,218.5,147.0,212.5,161.0" stroke="green" stroke-width="1" fill="none" />
<polyline points="203.0,168.0,190.0,164.0,200.5,159.0,210.5,147.5,197.0,157.0,197.0,155.5" stroke="yellow" stroke-width="1" fill="none" />
<polyline points="204.0,163.5,202.5,161.5,201.5,173.5,194.0,182.0,186.0,172.0,185.0,181.5,183.5,181.5,168.0,186.5,178.0,194.0,166.5,190.0,170.0,203.5,160.5,204.5,163.5,195.5,176.5,192.5,183.0,189.5,177.0,178.5,188.5,181.0,183.5,172.5,190.5,171.5,202.5,174.5,204.5,159.5,202.0,166.0,203.0,162.5" stroke="yellow" stroke-width="1" fill="none" />
<polyline points="209.5,178.5,209.5,177.0,210.0,181.5,201.5,186.0,210.5,204.0,205.0,201.0,205.0,194.5,199.0,196.0,204.0,195.0" stroke="green" stroke-width="1" fill="none" />
<polyline points="" stroke="yellow" stroke-width="1" fill="none" />
<polyline points="204.5,140.5,207.5,136.0,217.0,131.0,219.0,137.0,218.0,127.0,223.0,129.5,228.5,122.5" stroke="yellow" stroke-width="1" fill="none" />
<polyline points="214.0,140.5,214.5,145.5,205.5,150.0,208.5,140.5,207.0,137.5,224.5,130.0,222.0,131.5,233.0,122.5,235.0,114.5,243.5,118.0,238.5,124.0,236.0,121.0,234.5,118.0" stroke="yellow" stroke-width="1" fill="none" />
<polyline points="232.0,111.0,229.0,131.5,226.0,129.5,198.0,147.0,194.5,143.0,200.0,148.0,203.5,142.0,195.0,154.5,190.0,159.0,195.5,162.0,172.5,167.0,176.0,169.5,165.0,169.5,160.0,176.0,169.0,180.0,157.0,195.0,152.5,189.5,154.0,191.5,159.0,195.5,150.0,199.0,150.0,202.0,148.5,211.0,146.5,212.5,149.0,213.5,151.0,223.0,139.5,222.5,141.5,227.5,145.0,236.0,139.0,236.5,136.5,244.5,138.0,238.0,128.0,242.5,129.5,253.5,127.0,258.0,131.0,256.0,132.0,259.0,128.5,256.5,128.5,260.5" stroke="green" stroke-width="1" fill="none" />
<polyline points="" stroke="orange" stroke-width="1" fill="none" />
<polyline points="" stroke="green" stroke-width="1" fill="none" />
<polyline points="153.5,147.0,158.0,136.5,157.5,126.0,162.5,129.0,158.0,118.0,154.5,122.5,158.5,121.5,155.0,124.0" stroke="green" stroke-width="1" fill="none" />
<polyline points="179.0,136.5,177.5,138.5,185.0,122.5,188.0,119.0,183.0,122.5,186.5,120.0,185.0,123.5,190.5,120.0" stroke="black" stroke-width="1" fill="none" />
<polyline points="186.0,127.5,189.5,126.0,163.0,122.0,172.0,124.0,172.5,121.0,187.0,121.5,189.0,123.5,189.0,124.0,185.5,117.0,193.5,122.5" stroke="green" stroke-width="1" fill="none" />
<polyline points="180.0,135.5,179.5,132.5,186.0,131.0" stroke="orange" stroke-width="1" fill="none" />
<polyline points="" stroke="yellow" stroke-width="1" fill="none" />
<polyline points="203.5,112.0,200.0,110.0" stroke="yellow" stroke-width="1" fill="none" />
<polyline points="233.0,134.5,230.0,130.5,228.5,131.0,217.0,123.5,217.5,136.0,214.5,138.0,203.0,147.0,199.0,135.0,196.0,147.0,198.0,155.0,196.5,157.5,204.5,147.0,208.5,142.5,213.0,137.5,219.5,135.5,226.0,131.0" stroke="yellow" stroke-width="1" fill="none" />
<polyline points="254.5,129.5,251.0,148.0,256.5,144.0,233.5,154.5,238.5,153.5,235.0,144.0,229.5,147.0,229.5,149.5,222.5,163.0,229.5,151.0,237.5,152.5,241.0,141.5,246.5,140.5,258.5,135.5,266.5,129.0,260.0,131.5,270.5,124.0,273.0,111.5,263.5,114.5" stroke="orange" stroke-width="1" fill="none" />
<polyline points="285.5,150.0,286.5,148.0,287.0,152.0,287.5,147.0,291.5,144.0" stroke="green" stroke-width="1" fill="none" />
<polyline points="300.5,141.5,298.0,141.0" stroke="black" stroke-width="1" fill="none" />
<polyline points="300.5,179.0,299.5,185.5,287.0,187.5,292.0,200.0,283.5,201.5,280.0,205.0,275.0,201.5,277.0,206.5,271.0,209.5,267.5,212.0,273.5,213.0" stroke="orange" stroke-width="1" fill="none" />
<polyline points="233.5,94.5,236.5,102.5,227.0,101.0,225.5,99.5,232.0,107.0,226.5,98.5,236.0,97.5" stroke="green" stroke-width="1" fill="none" />
<polyline points="" stroke="black" stroke-width="1" fill="none" />
<polyline points="248.0,87.5,244.5,94.5,244.0,89.5" stroke="yellow" stroke-width="1" fill="none" />
<polyline points="260.5,85.0,253.0,93.0,255.0,86.0,253.0,92.5,247.5,97.5,242.5,101.0,240.5,110.5,235.5,106.5,226.0,104.5,236.0,115.5,217.5,115.5,223.5,116.5,223.0,117.0,210.5,115.0,206.5,133.5,203.0,137.5,198.0,135.0,198.0,125.0,185.0,145.0,177.0,149.5,178.0,153.5,176.5,148.5,174.5,150.5,173.5,162.0,171.5,163.0,166.5,161.0,157.0,168.5,164.5,168.0,158.0,170.0,159.5,169.5,172.0,169.0,172.5,164.5,183.0,157.0,179.5,145.0,186.0,137.5,192.5,141.0,192.5,127.0,202.0,142.0,215.5,126.5,217.5,125.5,219.5,119.5,217.5,103.5,218.0,116.5,229.0,105.5,235.5,115.0,235.5,99.0,246.0,98.0,259.0,93.0,266.5,91.5,266.5,86.0,260.5,87.5" stroke="yellow" stroke-width="1" fill="none" />
<polyline points="237.0,87.5,235.0,81.0,232.5,89.0,238.0,88.0,244.5,93.5,238.0,87.0" stroke="black" stroke-width="1" fill="none" />
<polyline points="" stroke="yellow" stroke-width="1" fill="none" />
<polyline points="226.0,47.5,238.5,52.0,237.0,51.5,248.0,45.5,253.0,60.5,247.5,47.5,254.0,52.5,256.0,63.0,267.5,53.5,277.5,63.0,275.5,57.0,271.0,72.5,276.5,67.5,281.5,67.0,286.5,71.0,279.5,70.0,295.5,77.5,292.5,82.5,296.5,88.0,307.0,92.5,307.5,99.5,321.5,102.5,313.5,97.5,332.5,118.5,323.5,116.0,332.5,127.5,332.5,123.5,334.0,127.5,339.0,131.0,354.0,143.0,345.0,142.5,356.5,152.0,355.5,147.0,353.0,135.5,370.0,138.0,373.5,141.0,371.0,135.0,381.0,134.0,385.0,130.5,389.5,134.5,394.5,115.5,391.5,116.0,401.0,119.5,399.5,113.5,412.5,108.0,407.5,118.5,420.0,126.0,417.0,112.0,410.5,113.0,412.0,116.0" stroke="yellow" stroke-width="1" fill="none" />
<polyline points="410.0,114.0,411.5,118.5,411.0,129.5,412.0,131.0,415.0,137.0,422.5,132.5,422.0,143.0,421.0,142.5,424.5,148.0,408.5,148.5,414.0,153.0,410.5,158.5,414.0,167.5,409.0,176.0,408.0,175.5,411.5,176.5,394.5,177.5,408.0,175.0,413.0,179.0,398.5,186.0,393.0,187.5,392.0,198.5,376.5,202.0,382.0,205.5,371.5,212.5,373.5,205.5,367.5,214.5,363.0,209.0,373.0,211.5,370.0,206.5,381.5,208.5,385.0,203.0,392.5,200.0,393.5,194.5,394.0,191.5,398.0,189.5,402.5,183.0,406.5,170.0,411.0,178.0,417.5,180.5,412.0,183.0" stroke="green" stroke-width="1" fill="none" />
<polyline points="365.0,126.0,369.5,124.5,369.0,123.0,364.5,125.0,367.0,122.5" stroke="yellow" stroke-width="1" fill="none" />
<polyline points="387.0,111.0,383.0,102.0,388.0,101.5,391.5,112.5" stroke="black" stroke-width="1" fill="none" />
<polyline points="383.0,112.5,389.0,105.0,384.5,98.0" stroke="yellow" stroke-width="1" fill="none" />
<polyline points="426.0,44.5,424.0,47.5,413.5,33.0,417.0,28.0,416.5,21.5" stroke="black" stroke-width="1" fill="none" />
<polyline points="512.5,70.5,516.0,81.5,509.0,79.0,504.5,84.5,503.5,86.0,496.5,95.5,485.0,108.0,484.5,107.5,491.0,115.5,480.0,106.0,475.5,115.5,477.0,122.0,476.5,123.0,469.5,126.0,468.5,129.5,468.5,136.0,468.0,135.0,465.0,154.0,456.0,146.0,460.5,155.5,454.0,159.0,449.5,165.5,449.0,165.5,445.5,169.0,445.0,168.5,446.5,175.5,431.0,189.5,436.5,194.0,432.0,187.5,435.0,197.0,430.5,203.5,432.0,209.0,432.5,204.5,417.0,200.5,425.0,217.0,419.0,218.5,420.5,222.0,418.0,229.5,423.5,234.5,414.0,232.0,415.0,237.0,413.0,244.0,403.0,241.0,410.0,250.5,419.5,261.5,404.0,262.0,408.0,260.0,408.5,269.0,405.5,270.0,402.5,276.5,398.5,279.0,403.5,280.0,394.5,290.0,398.5,288.0,406.5,292.0,398.0,301.0,395.0,297.5,394.5,306.5,393.0,307.5,396.5,311.0,391.5,318.0,394.5,314.5,391.0,326.0,390.5,327.0,380.5,340.0,391.0,332.0,391.5,335.5,389.0,335.5,390.0,339.0" stroke="black" stroke-width="1" fill="none" />
<polyline points="343.5,138.5,341.5,131.5,333.0,136.5,339.0,132.0,336.5,127.5,329.5,119.0,335.0,118.0,322.0,112.0,333.5,106.5,313.5,99.5,311.5,95.0,303.5,91.0,309.0,98.5,303.5,90.0,302.0,84.5,297.5,73.0,293.5,82.5,299.0,74.0,287.0,61.5,274.0,73.5,275.0,65.5,259.5,55.0,267.5,42.5,258.0,51.0" stroke="black" stroke-width="1" fill="none" />
<polyline points="" stroke="yellow" stroke-width="1" fill="none" />
<polyline points="176.0,60.0,158.5,67.0,159.0,64.0,168.5,63.0" stroke="black" stroke-width="1" fill="none" />
<polyline points="158.0,68.5,159.0,78.0,150.0,73.0,148.0,75.0,159.0,72.5,162.0,71.5,159.0,78.5,162.5,72.0" stroke="yellow" stroke-width="1" fill="none" />
<polyline points="152.5,77.0,150.5,80.0" stroke="yellow" stroke-width="1" fill="none" />
</svg>