<svg xmlns="http://www.w3.org/2000/svg" width="1024" height="1024" version="1.1" fill="white"><polyline points="410.5,14.5,408.5,8.0,410.5,17.5,410.5,25.0,414.0,26.0,419.5,32.5,423.0,30.5,416.0,29.0,433.0,31.5,429.5,30.0,432.5,54.5,437.0,50.5,438.5,54.5,442.5,63.5,436.0,61.5,437.0,71.5,436.0,70.5,442.5,67.0" stroke="black" stroke-width="1" fill="none" />
<polyline points="442.0,51.0,444.0,47.5,436.0,40.0,437.5,33.5,436.0,21.0,431.5,16.0" stroke="orange" stroke-width="1" fill="none" />
<polyline points="412.5,2.0,425.0,6.5,430.0,15.5,428.0,12.5,436.0,14.5,441.5,23.5,437.0,30.0,441.0,35.5,443.0,35.5,442.5,37.0,449.5,41.0,442.5,40.5,443.0,49.5,456.5,62.0,457.5,63.5,447.0,67.5,458.5,78.5,433.5,70.0,442.0,68.0,432.5,84.0,437.0,82.5,429.0,80.5,436.0,92.0,436.0,96.0,422.5,104.5,425.0,104.0,414.0,103.0,419.5,108.0,414.0,109.0,411.0,109.5,428.0,100.0,434.0,91.5,432.5,84.0,435.0,80.0,438.5,71.5,445.5,78.5,454.0,66.5,447.5,58.5,459.5,50.0,468.5,54.0,467.5,46.5,462.0,42.5,475.0,39.0,478.0,40.0,487.5,25.0,480.5,25.5,489.5,28.5,492.0,14.5,511.5,15.0" stroke="yellow" stroke-width="1" fill="none" />
<polyline points="510.5,10.0,509.0,17.5,495.0,25.0,489.5,23.0,490.5,20.5,480.0,24.5,480.5,31.0,484.5,37.0,466.0,44.5,470.0,36.5,462.5,52.5,466.0,56.5,463.5,56.5" stroke="black" stroke-width="1" fill="none" />
<polyline points="502.5,72.0,505.0,87.5,501.5,90.0,499.0,98.0,485.0,96.0,480.0,103.0,479.5,101.0,479.5,108.5,467.0,117.5,466.0,120.0,468.5,123.5,457.0,138.0,457.5,143.0,466.5,143.5,466.0,140.5" stroke="yellow" stroke-width="1" fill="none" />
<polyline points="437.0,165.5,443.5,173.0,432.5,173.0" stroke="yellow" stroke-width="1" fill="none" />
<polyline points="434.0,177.5,439.0,187.5,441.5,178.5,436.0,180.5" stroke="orange" stroke-width="1" fill="none" />
<polyline points="425.5,220.5,426.5,214.5,422.0,226.5,424.5,227.0" stroke="black" stroke-width="1" fill="none" />
<polyline points="417.5,243.0,415.5,233.0,413.5,243.0,415.0,243.0,419.0,249.0,416.5,240.5,407.5,247.0,416.5,247.0,417.0,250.0" stroke="green" stroke-width="1" fill="none" />
<polyline points="" stroke="green" stroke-width="1" fill="none" />
<polyline points="388.5,302.5,375.5,292.0,377.5,284.5,382.0,281.0,390.0,275.0" stroke="green" stroke-width="1" fill="none" />
<polyline points="369.5,265.0,373.5,259.5,370.0,257.5,373.5,254.5,372.0,254.5,379.0,243.0,370.5,241.5,368.0,239.0,375.0,233.0,368.5,237.5,376.0,222.5,372.0,224.0,371.5,229.0,370.0,222.0" stroke="yellow" stroke-width="1" fill="none" />
<polyline points="378.0,241.5,371.0,244.0,372.0,244.5,375.5,237.5" stroke="yellow" stroke-width="1" fill="none" />
<polyline points="361.5,253.0,375.0,258.0,373.0,264.5,368.5,276.0,369.5,267.0,371.0,274.0,364.5,275.5,368.0,274.5,364.0,276.5,363.5,280.5,363.5,282.5,361.5,282.0" stroke="orange" stroke-width="1" fill="none" />
<polyline points="378.0,287.0,371.5,296.5,376.5,292.5,382.0,287.5,381.0,298.0,372.5,302.0,376.0,313.5,376.5,308.0,379.0,310.0,382.5,321.5,376.5,320.5,385.5,336.5,382.0,341.5,386.5,341.0,385.5,343.5,384.5,340.5" stroke="green" stroke-width="1" fill="none" />
<polyline points="367.5,356.0,374.0,364.0,377.0,363.0,379.5,365.0" stroke="yellow" stroke-width="1" fill="none" />
<polyline points="368.0,379.0,373.5,382.5" stroke="black" stroke-width="1" fill="none" />
<polyline points="387.5,380.0,382.0,385.0,380.5,392.0,375.5,394.5,379.5,400.0,378.0,398.5,378.0,401.5" stroke="orange" stroke-width="1" fill="none" />
<polyline points="363.0,426.5,358.0,419.5,353.0,415.0,359.0,420.0,345.0,414.5,344.0,401.0,336.5,408.5,336.5,406.5,329.0,404.5,327.5,396.5,322.5,406.5,318.5,388.0,317.5,401.0,312.5,390.5,301.0,399.0,301.5,387.5,302.0,390.0,299.0,390.5,296.5,395.5" stroke="green" stroke-width="1" fill="none" />
<polyline points="313.5,376.0,324.0,364.0,324.0,359.5,327.0,355.5,330.5,341.5,334.0,346.5" stroke="yellow" stroke-width="1" fill="none" />
<polyline points="352.5,328.5,351.5,329.5,360.0,330.5,351.5,330.0,350.0,342.0,354.0,337.0" stroke="green" stroke-width="1" fill="none" />
<polyline points="359.5,360.5,357.5,370.5,356.5,372.0,360.0,374.5,353.5,379.5,355.0,382.0,353.5,389.0,356.0,399.5,350.5,389.5,351.0,401.0,348.5,409.0,351.5,409.5,349.5,411.0,359.5,416.5,358.5,418.5" stroke="black" stroke-width="1" fill="none" />
<polyline points="361.5,368.5,363.5,370.5,359.5,369.5,364.5,359.0" stroke="orange" stroke-width="1" fill="none" />
<polyline points="360.5,358.5,358.0,369.5,356.0,375.0,358.0,375.5,355.0,382.0" stroke="yellow" stroke-width="1" fill="none" />
<polyline points="362.0,358.5,357.5,362.5,359.0,366.5,357.5,363.0,356.0,372.0,357.0,374.0,355.0,382.0,356.5,380.0,348.5,391.5,348.5,390.5,353.5,398.0,366.5,398.5,356.5,404.0,353.0,410.5,366.0,408.5,364.0,406.5" stroke="black" stroke-width="1" fill="none" />
<polyline points="376.5,457.5,369.5,459.0,374.0,456.5,374.5,452.0,377.0,449.0,376.0,436.0,371.5,439.5,372.0,430.0,372.0,428.0,379.0,432.0,381.0,423.0,380.5,417.5,377.0,413.5,374.0,409.0,379.0,404.0,375.0,397.0,374.0,399.5,381.0,388.5,383.5,394.0,375.0,384.0,388.5,376.5,372.5,369.5,379.5,373.0,378.0,368.5,383.0,367.0,386.5,364.5,373.0,358.0,377.5,348.5,381.0,351.5,374.5,345.5,373.5,347.0,368.0,335.0,379.0,334.5,373.5,333.5,371.5,326.0,371.0,322.5,380.5,327.0,374.5,313.0,372.5,309.5,372.5,299.5,378.5,316.5,377.5,301.5,376.0,291.5,373.5,292.5,370.0,280.0,371.0,277.0,376.5,278.0,365.5,269.5,366.5,268.0,373.5,267.5,373.0,261.0,367.0,261.0,358.0,258.0,366.5,252.5,367.5,245.5,369.5,241.5,366.0,233.0,360.0,227.0,364.5,228.5,358.5,221.5,357.0,216.0,359.5,223.0,359.0,210.5,362.0,207.5,349.5,206.0,347.0,203.5,344.0,201.5" stroke="black" stroke-width="1" fill="none" />
<polyline points="" stroke="black" stroke-width="1" fill="none" />
<polyline points="" stroke="yellow" stroke-width="1" fill="none" />
<polyline points="" stroke="yellow" stroke-width="1" fill="none" />
<polyline points="358.5,200.0,358.5,202.5,366.5,206.5" stroke="black" stroke-width="1" fill="none" />
<polyline points="" stroke="green" stroke-width="1" fill="none" />
<polyline points="352.0,210.5,356.0,214.0" stroke="yellow" stroke-width="1" fill="none" />
<polyline points="342.5,206.0,337.5,206.0,332.0,203.0,334.0,195.5" stroke="yellow" stroke-width="1" fill="none" />
<polyline points="345.5,219.5,358.5,205.0,364.0,221.0,357.0,225.0,362.0,236.5,364.5,232.5,366.0,240.5,372.0,245.0,366.5,250.5,368.0,251.0,373.5,256.0,365.5,254.0" stroke="black" stroke-width="1" fill="none" />
<polyline points="367.5,241.5,366.0,240.5,367.5,242.0,364.5,243.5,364.0,244.5,361.5,247.5,368.5,243.5" stroke="orange" stroke-width="1" fill="none" />
<polyline points="349.5,235.0,346.5,238.5,348.5,245.5,348.5,240.0,353.0,241.5" stroke="black" stroke-width="1" fill="none" />
<polyline points="339.5,251.5,342.5,255.5,339.0,253.5,334.5,253.0,334.0,258.0,330.0,258.0,331.0,258.5,330.5,259.0,327.5,257.0" stroke="black" stroke-width="1" fill="none" />
<polyline points="334.5,256.0,343.0,242.0,340.5,250.0,351.0,253.0,353.0,241.5,346.0,243.5,344.0,242.0" stroke="yellow" stroke-width="1" fill="none" />
<polyline points="" stroke="green" stroke-width="1" fill="none" />
<polyline points="" stroke="yellow" stroke-width="1" fill="none" />
<polyline points="347.0,276.5,354.5,286.0,351.5,283.5,355.5,294.5,347.5,294.5,347.0,295.0,353.5,302.5,351.0,309.0,340.0,307.0,346.5,313.0,340.5,322.0,333.0,325.0,346.0,324.0,339.5,326.5,336.0,334.5,333.0,338.5,329.5,336.0,327.0,344.5,329.0,354.5,326.5,357.5,324.0,355.5,313.5,366.5,315.0,369.5,318.0,370.0,322.0,371.0,318.5,382.0,312.5,381.0,318.0,384.0,315.0,396.0,315.0,390.5,326.5,409.0,340.5,403.0,345.5,408.0,345.0,418.5,354.5,413.5,354.5,417.0,358.5,424.5,358.5,429.5,354.0,436.5,363.5,436.5,361.0,431.0,367.5,442.0,360.0,445.5,371.5,454.0,372.0,454.5,363.0,467.0,376.0,468.5,368.5,481.5,372.0,479.5,372.5,475.0,374.5,478.5,376.0,481.0,376.0,490.0,379.5,490.0,380.0,494.5,379.0,503.5,382.5,492.0,382.0,503.5,386.0,511.0,393.5,510.0,386.5,520.0,395.5,528.0,391.0,514.5,394.0,515.5" stroke="black" stroke-width="1" fill="none" />
<polyline points="431.5,492.0,435.5,487.0,428.5,485.0,441.5,482.5,443.0,481.0,450.0,475.0,447.5,465.0,454.0,462.5,454.5,465.5,455.5,463.0,451.0,466.5" stroke="black" stroke-width="1" fill="none" />
<polyline points="448.0,480.0,451.0,474.5,446.0,474.5,450.0,470.5,448.0,467.0,451.5,462.0,454.5,464.0,457.0,469.0,456.5,468.5" stroke="black" stroke-width="1" fill="none" />
<polyline points="456.0,449.5,462.0,443.5" stroke="black" stroke-width="1" fill="none" />
<polyline points="472.0,422.5,475.0,410.5,478.5,413.5,482.0,403.5,484.0,410.5,490.0,398.5,485.5,394.0,496.0,387.0,494.5,386.0,505.5,391.0,502.0,382.0,517.5,381.0,508.5,381.5,514.5,382.5" stroke="green" stroke-width="1" fill="none" />
<polyline points="515.0,385.0,512.0,383.0,513.5,383.0,506.0,386.0,499.0,381.5,492.5,396.0,493.5,403.5,486.5,408.0,479.0,408.5,476.0,413.0,472.0,418.5,472.0,427.5,471.5,421.5,464.0,429.5,463.0,425.5,458.0,433.5,458.5,436.0,447.0,440.0,463.5,441.5,461.0,449.5,455.0,457.0,451.5,457.5,452.5,454.5,449.0,472.0,445.5,483.5,447.5,473.5,448.0,480.0,445.0,486.0,440.5,478.5,438.0,481.0" stroke="orange" stroke-width="1" fill="none" />
<polyline points="428.0,484.5,440.0,473.5,439.5,471.0,442.0,465.5,446.0,464.0,441.5,458.0,444.5,461.0" stroke="orange" stroke-width="1" fill="none" />
<polyline points="439.0,453.5,425.5,449.5,428.5,457.5,435.5,443.5,443.5,442.0,440.5,440.5,437.5,427.0,429.5,426.0,430.0,433.5,433.0,436.5,433.0,429.0,429.5,429.0,431.0,431.0" stroke="green" stroke-width="1" fill="none" />
<polyline points="427.5,474.0,424.5,474.0,423.0,472.0,427.5,475.0,424.5,483.5,426.5,481.5,426.5,478.0" stroke="yellow" stroke-width="1" fill="none" />
<polyline points="420.0,468.5,426.0,470.5,420.0,468.5,421.0,475.5,426.0,474.5,428.0,467.5,437.5,454.5,432.0,460.5,434.0,463.0,433.0,468.0,433.5,466.5" stroke="orange" stroke-width="1" fill="none" />
<polyline points="478.5,406.5,481.0,410.5,487.5,407.0,481.5,390.5,480.0,395.0,482.0,395.0" stroke="green" stroke-width="1" fill="none" />
<polyline points="442.5,434.0,445.0,426.0,440.5,422.5,444.5,416.5,449.0,410.5,445.0,408.0,449.5,404.0,455.5,392.5,451.0,394.0,451.5,387.5,453.5,386.0,455.0,378.0,446.5,382.5,448.0,373.5,457.5,375.0,448.0,362.0" stroke="orange" stroke-width="1" fill="none" />
<polyline points="382.5,341.0,393.5,335.5,382.0,332.5,371.0,322.5,382.5,325.5,379.5,326.0" stroke="yellow" stroke-width="1" fill="none" />
<polyline points="367.0,364.0,374.5,367.5,363.5,362.5,371.5,378.5,369.0,392.0,362.0,386.0,372.0,386.5,374.0,387.0,375.5,391.0,380.0,390.0,375.0,385.0,373.0,388.5,375.0,387.5" stroke="orange" stroke-width="1" fill="none" />
<polyline points="324.0,341.0,324.0,341.5,330.5,340.5,333.0,342.0" stroke="black" stroke-width="1" fill="none" />
<polyline points="" stroke="green" stroke-width="1" fill="none" />
<polyline points="300.5,352.5,298.5,353.5,299.5,353.5,291.5,361.5,296.5,357.5" stroke="orange" stroke-width="1" fill="none" />
<polyline points="315.5,354.5,314.5,359.5,308.0,361.0,310.0,368.5,298.0,363.0,305.5,364.5,301.5,360.0,304.0,360.0" stroke="green" stroke-width="1" fill="none" />
<polyline points="308.5,347.5,298.5,350.5,298.0,348.0,300.5,351.5,300.5,358.0" stroke="orange" stroke-width="1" fill="none" />
<polyline points="306.5,324.5,316.0,327.5,316.5,322.0,305.0,329.5,309.5,331.5,305.0,328.0,309.0,333.5,310.0,338.5,306.5,339.5" stroke="green" stroke-width="1" fill="none" />
<polyline points="312.0,317.0,309.5,317.0,314.0,325.0,297.0,332.5,293.5,341.0,293.5,339.5,294.0,339.5" stroke="yellow" stroke-width="1" fill="none" />
<polyline points="298.0,319.5,297.5,318.5" stroke="black" stroke-width="1" fill="none" />
<polyline points="317.5,334.0,328.5,321.5,326.0,322.5,326.0,324.5,325.0,310.0,321.5,306.5,325.0,317.0,326.0,301.0,324.5,301.5,322.5,305.0,321.5,304.5,320.0,305.0" stroke="black" stroke-width="1" fill="none" />
<polyline points="" stroke="green" stroke-width="1" fill="none" />
<polyline points="330.5,268.5,341.0,267.0,338.5,267.0,335.0,264.0,326.0,262.0,329.5,258.0,331.5,259.0" stroke="green" stroke-width="1" fill="none" />
<polyline points="319.0,266.0,329.5,265.5,329.0,269.5,327.5,273.0,326.0,275.5,330.0,265.5,336.0,266.0,322.0,276.5,334.0,250.5" stroke="yellow" stroke-width="1" fill="none" />
<polyline points="323.0,268.0" stroke="orange" stroke-width="1" fill="none" />
<polyline points="" stroke="yellow" stroke-width="1" fill="none" />
<polyline points="339.5,266.0,339.0,257.0,332.5,264.0,341.0,254.0,343.5,261.0,350.5,254.5,347.0,253.0,349.5,247.0" stroke="orange" stroke-width="1" fill="none" />
<polyline points="351.5,236.5,348.0,228.0,343.0,220.5,335.5,217.0,340.0,214.5,339.5,213.5,334.5,215.0" stroke="black" stroke-width="1" fill="none" />
<polyline points="340.0,190.5,341.5,194.0,343.5,200.0,352.5,197.0,353.0,200.0,360.0,191.5,356.5,194.0,367.0,185.5,375.5,184.5,377.0,180.0,382.0,187.0,376.0,186.5,391.5,187.5,389.0,175.5,393.0,174.0,387.5,171.5,393.5,182.5,406.0,164.5,408.0,176.0,402.5,176.5,394.5,191.5,395.0,185.0,390.5,190.0,383.5,194.5,382.5,198.0,392.0,188.5,391.5,183.0,396.0,173.5,402.5,173.5" stroke="orange" stroke-width="1" fill="none" />
<polyline points="407.0,164.0,407.0,164.5,391.0,171.0,384.5,173.0,388.0,174.5" stroke="black" stroke-width="1" fill="none" />
<polyline points="368.0,185.5,356.0,195.0,349.5,188.0,344.5,190.5,337.0,193.5" stroke="yellow" stroke-width="1" fill="none" />
<polyline points="337.0,204.5,325.0,203.0,332.0,212.5,340.5,206.5,328.5,212.0,331.5,208.0,331.5,209.5" stroke="black" stroke-width="1" fill="none" />
<polyline points="" stroke="black" stroke-width="1" fill="none" />
<polyline points="351.5,205.5,352.5,216.0,353.0,218.0,357.5,213.5" stroke="yellow" stroke-width="1" fill="none" />
<polyline points="355.0,206.0,350.5,204.5,345.5,200.0,346.0,202.5,347.5,205.5" stroke="green" stroke-width="1" fill="none" />
<polyline points="342.0,197.5,346.5,203.5,350.0,207.5,352.0,204.5" stroke="green" stroke-width="1" fill="none" />
<polyline points="" stroke="black" stroke-width="1" fill="none" />
<polyline points="340.5,204.0,343.0,204.0,344.0,206.0,346.0,206.5,354.0,207.0,351.5,212.5" stroke="yellow" stroke-width="1" fill="none" />
<polyline points="" stroke="black" stroke-width="1" fill="none" />
<polyline points="369.0,194.5,370.0,192.5,373.5,194.0,368.5,200.5" stroke="orange" stroke-width="1" fill="none" />
<polyline points="390.0,162.5,376.5,164.0,387.5,160.5,381.5,174.0,381.0,177.5,391.5,174.5,386.0,158.0,388.5,157.5,393.5,151.5" stroke="yellow" stroke-width="1" fill="none" />
<polyline points="394.0,169.5,399.0,164.5,408.0,163.0,392.5,176.5,395.5,172.0,385.0,171.5,399.5,174.0,399.0,163.5" stroke="orange" stroke-width="1" fill="none" />
<polyline points="394.0,131.5,394.5,128.5,391.0,128.0,382.5,132.5,382.5,139.5,388.5,134.0,391.0,133.5,392.0,124.0,390.0,124.5" stroke="yellow" stroke-width="1" fill="none" />
<polyline points="389.5,126.0,387.5,123.5,378.5,132.0,381.5,131.0,380.0,128.0,391.5,124.5,400.5,123.0,400.0,116.0" stroke="orange" stroke-width="1" fill="none" />
<polyline points="396.0,112.5,393.5,118.0,388.5,123.5,387.5,128.5,373.5,133.0,359.5,139.0,354.0,144.0,361.0,141.0,352.0,137.5,359.0,134.5" stroke="orange" stroke-width="1" fill="none" />
<polyline points="333.0,150.0,315.5,153.0,320.0,157.0,308.5,150.0,306.5,169.5,304.5,167.5,306.0,168.0,304.5,166.0" stroke="orange" stroke-width="1" fill="none" />
<polyline points="" stroke="black" stroke-width="1" fill="none" />
<polyline points="284.0,173.0,279.0,169.5,282.5,177.5,287.0,174.5,283.5,180.0,286.5,180.0,282.0,177.5" stroke="orange" stroke-width="1" fill="none" />
<polyline points="" stroke="black" stroke-width="1" fill="none" />
<polyline points="277.5,181.5,275.0,169.5,276.0,172.0,273.5,172.0" stroke="green" stroke-width="1" fill="none" />
<polyline points="255.5,175.0,257.0,180.0,267.5,177.5,247.5,178.0,242.5,167.0" stroke="black" stroke-width="1" fill="none" />
<polyline points="237.5,158.5,238.5,163.0,245.5,164.0,249.5,166.0,255.0,164.5,247.5,174.5,257.5,181.5,253.0,180.5,250.5,186.5,244.0,190.0,239.5,193.5,242.0,190.5,238.5,204.0,235.0,209.5,238.0,202.5,239.5,217.0,243.0,204.5,247.5,218.0,258.0,202.0,251.0,209.5,256.5,205.0,251.0,215.0,250.5,217.0,254.0,224.0,242.0,220.0,243.5,235.5,240.5,231.0,235.5,232.0,239.5,246.5,227.5,245.0,230.5,252.0,220.5,251.0,221.0,255.5,218.0,260.0,219.0,268.0,215.5,272.0,210.5,276.5,206.0,278.5,207.0,285.5,202.0,291.0,204.5,300.0,198.5,305.0,196.5,297.5,193.5,305.0,202.5,309.5,196.5,319.5,192.0,306.0,194.0,310.5,184.0,315.5,183.0,323.5,179.0,326.5,173.0,332.0,167.5,330.5,166.0,339.5,160.5,342.5,166.0,340.5" stroke="black" stroke-width="1" fill="none" />
<polyline points="154.5,352.0,159.5,346.5,162.5,362.5,151.0,365.0,154.5,365.0,143.5,377.0,156.5,376.5,163.0,369.5,152.0,383.0,157.5,384.0,155.5,392.5,158.5,397.0,146.0,391.5,153.5,409.0,160.0,402.0,163.5,413.5,162.5,407.5,152.5,414.0,164.5,408.5,163.5,409.0" stroke="orange" stroke-width="1" fill="none" />
<polyline points="166.5,408.0,169.0,405.5,164.0,408.0,164.0,410.0,159.0,414.5" stroke="black" stroke-width="1" fill="none" />
<polyline points="168.5,412.0,168.0,411.5,164.0,418.5,166.0,418.0,169.0,417.5,168.0,423.0,172.0,421.5,175.0,424.5,174.5,421.0" stroke="orange" stroke-width="1" fill="none" />
<polyline points="" stroke="yellow" stroke-width="1" fill="none" />
<polyline points="188.0,440.5,181.5,432.5,183.5,439.5,183.5,440.0,187.5,438.5,196.0,433.5" stroke="black" stroke-width="1" fill="none" />
<polyline points="" stroke="yellow" stroke-width="1" fill="none" />
<polyline points="" stroke="yellow" stroke-width="1" fill="none" />
<polyline points="" stroke="black" stroke-width="1" fill="none" />
<polyline points="180.5,462.5,178.0,462.0,168.0,469.0,170.0,472.5,168.0,467.5,161.5,472.5,161.5,470.5" stroke="black" stroke-width="1" fill="none" />
<polyline points="149.5,479.0,156.5,472.0,150.0,473.5,133.0,452.5,134.5,453.5,140.5,454.5,140.5,455.5" stroke="yellow" stroke-width="1" fill="none" />
<polyline points="146.0,471.5,145.0,466.5,139.0,481.0,153.5,479.0,162.0,484.0,153.5,480.5,153.0,477.5,156.0,488.0,165.5,498.0,164.5,495.5,161.5,493.5" stroke="black" stroke-width="1" fill="none" />
<polyline points="168.0,505.0,164.5,501.0,165.0,502.0,169.0,502.0,164.5,499.5" stroke="green" stroke-width="1" fill="none" />
<polyline points="173.0,503.5,170.5,501.0,163.0,507.5,156.5,508.0,157.5,498.0,154.0,501.5,148.0,491.0,139.0,490.5,142.0,484.0" stroke="yellow" stroke-width="1" fill="none" />
<polyline points="143.0,503.0,147.0,504.0,149.0,497.5,149.5,496.5" stroke="green" stroke-width="1" fill="none" />
<polyline points="" stroke="orange" stroke-width="1" fill="none" />
<polyline points="" stroke="yellow" stroke-width="1" fill="none" />
<polyline points="" stroke="green" stroke-width="1" fill="none" />
<polyline points="147.0,491.0,148.0,489.5,154.0,487.5,159.0,488.0" stroke="black" stroke-width="1" fill="none" />
<polyline points="158.5,496.0,157.5,496.0,162.0,500.0,155.5,509.0,157.5,513.5,161.0,503.5,157.5,504.5,158.5,510.5" stroke="yellow" stroke-width="1" fill="none" />
<polyline points="144.5,497.0,144.5,491.0,143.0,484.0,137.5,480.5,142.0,481.0,146.0,488.0,143.5,486.0" stroke="green" stroke-width="1" fill="none" />
<polyline points="144.0,492.5,146.0,500.0,149.5,504.0,146.0,499.5,147.5,502.0,147.0,507.5,150.5,510.0,146.0,509.5" stroke="green" stroke-width="1" fill="none" />
<polyline points="138.0,498.5" stroke="yellow" stroke-width="1" fill="none" />
<polyline points="150.5,519.0,149.0,517.5,148.0,511.5" stroke="green" stroke-width="1" fill="none" />
<polyline points="133.0,519.5,137.0,512.5,141.5,514.0,138.0,505.5,133.5,498.5,136.5,498.0" stroke="orange" stroke-width="1" fill="none" />
<polyline points="143.0,485.0,139.0,499.5,132.0,502.5,136.5,494.5,137.5,490.5,137.5,488.0" stroke="green" stroke-width="1" fill="none" />
<polyline points="" stroke="black" stroke-width="1" fill="none" />
<polyline points="120.5,511.5,126.0,506.0" stroke="orange" stroke-width="1" fill="none" />
<polyline points="114.0,510.5,120.0,510.0,117.5,511.5,124.0,509.5,120.5,486.5,125.5,496.0,126.5,486.0,121.5,487.5" stroke="black" stroke-width="1" fill="none" />
<polyline points="127.0,501.5,131.5,498.5,122.0,495.5" stroke="orange" stroke-width="1" fill="none" />
<polyline points="135.0,516.0,127.0,509.5,129.5,503.0,125.0,507.0" stroke="yellow" stroke-width="1" fill="none" />
<polyline points="139.5,476.0,135.0,482.5,140.0,477.5" stroke="orange" stroke-width="1" fill="none" />
<polyline points="128.5,484.0,137.0,493.5,135.0,492.0,139.5,506.0,129.5,501.5,141.5,506.0,143.0,507.0" stroke="yellow" stroke-width="1" fill="none" />
<polyline points="" stroke="green" stroke-width="1" fill="none" />
<polyline points="" stroke="yellow" stroke-width="1" fill="none" />
<polyline points="169.0,481.0,171.5,482.0" stroke="green" stroke-width="1" fill="none" />
<polyline points="" stroke="yellow" stroke-width="1" fill="none" />
<polyline points="160.0,464.5,173.5,469.5,174.5,470.5,175.0,482.5,161.0,483.5,163.5,482.5,171.5,498.5,173.5,489.5,176.0,488.0" stroke="green" stroke-width="1" fill="none" />
<polyline points="191.5,486.0,191.0,485.5,209.0,486.0,204.0,489.5,200.0,486.0,207.0,486.5,209.5,479.0,217.0,478.0,222.5,481.0,227.5,476.5" stroke="yellow" stroke-width="1" fill="none" />
<polyline points="234.0,464.0,234.0,463.0,228.0,455.0" stroke="orange" stroke-width="1" fill="none" />
<polyline points="220.0,478.5,218.0,480.5,217.0,475.5,215.0,476.0,226.0,469.0,218.5,454.5,234.5,455.0,230.5,450.0,229.5,444.0,237.5,443.0,232.0,438.0,231.5,435.5,243.0,432.0,232.0,428.5,245.0,426.0,230.0,420.5,228.0,417.0,233.5,408.5,236.5,405.0,228.0,400.5,227.5,408.5,229.5,409.0" stroke="orange" stroke-width="1" fill="none" />
<polyline points="221.5,409.5,228.0,408.5,229.5,417.5,224.0,408.0,225.5,405.5" stroke="green" stroke-width="1" fill="none" />
<polyline points="244.5,417.0,222.5,413.0,225.5,420.5,232.0,425.5,220.0,424.5,224.0,416.0,224.0,417.0,226.5,418.0,229.5,415.0" stroke="orange" stroke-width="1" fill="none" />
<polyline points="250.5,418.0,247.0,425.0,242.5,424.5,236.5,423.5,233.0,434.0,237.5,435.0,243.5,444.5,240.0,443.0,245.0,450.0,237.0,453.5,239.0,455.5,229.5,461.0,235.0,473.5,228.0,465.0,222.5,473.5,223.0,479.5,225.0,480.5,213.5,488.5,218.0,486.0,217.0,485.5" stroke="black" stroke-width="1" fill="none" />
<polyline points="196.5,490.0,213.5,494.5,204.0,497.0,210.0,491.5,221.0,488.0,220.5,492.0,225.0,485.5,226.5,480.5,237.5,475.5,240.5,480.0,245.5,479.0" stroke="orange" stroke-width="1" fill="none" />
<polyline points="203.5,447.0,199.0,446.5,182.0,443.5" stroke="black" stroke-width="1" fill="none" />
<polyline points="182.5,450.0,183.5,456.0,194.0,451.0,184.0,452.5,188.5,446.0,193.5,439.5,182.5,429.0,172.5,426.5,182.0,429.0,186.0,423.0,182.0,422.5,182.0,425.0,183.0,414.0,175.5,414.5,181.5,410.0,166.5,401.5,165.5,401.0,162.5,389.0,165.0,396.0,155.0,387.5,166.5,385.0" stroke="orange" stroke-width="1" fill="none" />
<polyline points="160.0,369.5,161.5,369.0,175.0,368.0,174.5,353.0,182.5,347.5,189.0,338.0,189.0,340.5,194.0,330.5,196.0,329.5,201.5,320.5,190.5,328.5,202.5,318.0" stroke="yellow" stroke-width="1" fill="none" />
<polyline points="200.5,321.5,199.5,315.0" stroke="green" stroke-width="1" fill="none" />
<polyline points="183.5,315.0,181.5,322.5,187.0,319.5,192.5,307.5,194.5,302.0,203.5,291.0,203.0,289.5,207.0,282.0,214.5,273.5,224.0,263.0,227.0,259.5,228.5,250.0,236.5,247.5,231.5,244.0,247.0,231.5,238.5,223.5,249.0,225.0,251.0,220.0,261.0,216.5" stroke="orange" stroke-width="1" fill="none" />
<polyline points="268.0,223.0,269.0,224.5,270.5,227.5" stroke="black" stroke-width="1" fill="none" />
<polyline points="273.5,233.5,275.0,236.5,269.5,229.0,261.5,244.5,259.5,240.0,265.0,243.0" stroke="black" stroke-width="1" fill="none" />
<polyline points="263.5,232.5,268.5,235.5,268.0,232.0,265.0,239.0,266.0,224.5,270.5,227.5,265.5,232.5,255.5,234.5,256.0,230.5,264.0,230.0,249.0,248.0,247.5,239.5,236.0,252.5,248.5,261.5,228.0,271.0,222.5,276.0,217.5,285.5,219.5,281.0,225.0,288.0,230.5,276.0,231.0,269.0,229.5,268.5,227.0,269.0,236.5,263.0,232.5,260.5,239.5,248.5,228.0,247.5,250.5,241.5,246.5,236.5,256.0,242.5,253.0,224.0,266.0,223.5,262.0,222.5,262.0,218.0,259.0,217.5,262.5,217.0,271.0,218.5,268.0,205.0,278.0,202.0,272.5,204.5,278.0,201.5,264.5,188.0,273.0,188.0,264.5,191.0,267.0,197.5,259.5,210.5,272.5,206.0,262.5,205.5,258.5,211.5,267.5,196.0" stroke="green" stroke-width="1" fill="none" />
<polyline points="250.0,196.0,250.0,196.5" stroke="black" stroke-width="1" fill="none" />
<polyline points="245.0,207.0,255.0,218.5,252.5,218.0,249.5,224.5,235.5,233.0,240.5,230.0,227.0,238.0,226.0,236.0,219.5,239.5,221.5,231.0,228.5,232.0,222.5,228.0,226.5,217.5,219.0,226.0,211.5,218.0,217.5,224.0,229.5,206.0,222.0,212.0,222.5,206.5,218.0,202.0,221.0,206.5,211.0,213.0" stroke="orange" stroke-width="1" fill="none" />
<polyline points="241.0,202.0,242.5,203.0" stroke="yellow" stroke-width="1" fill="none" />
<polyline points="" stroke="orange" stroke-width="1" fill="none" />
<polyline points="" stroke="yellow" stroke-width="1" fill="none" />
<polyline points="247.0,208.5,253.0,197.5,261.5,186.5,263.0,186.0,255.0,179.5,245.5,194.5,242.5,194.5,254.5,190.5,267.5,186.5,259.0,189.5,255.0,188.5,266.5,182.0,265.5,174.0,275.0,184.5,276.0,185.0,271.0,176.5,277.5,179.0,283.0,176.5" stroke="yellow" stroke-width="1" fill="none" />
<polyline points="250.0,189.5,252.0,195.5,253.5,195.0,249.5,202.0,250.0,202.0,245.5,200.0,237.0,201.0,249.0,205.5,255.0,205.0,244.0,192.5,255.0,196.0,264.5,194.0,256.0,185.5,262.0,177.5,270.0,196.5,268.5,196.5,272.0,197.5" stroke="yellow" stroke-width="1" fill="none" />
<polyline points="265.5,208.0,263.0,209.0,256.0,206.5,267.0,192.5,264.0,192.5,272.0,183.5,273.0,189.5,278.0,187.0,274.5,192.5,275.5,190.0" stroke="green" stroke-width="1" fill="none" />
<polyline points="261.5,191.5,254.5,196.0,252.0,198.5,244.0,209.0,248.0,211.5,249.0,211.0" stroke="yellow" stroke-width="1" fill="none" />
<polyline points="256.0,200.0,272.0,203.0,257.5,203.5,261.0,210.0,261.5,210.0,259.0,214.5,263.0,214.5,256.0,223.5,247.0,215.5,243.5,231.5,246.0,228.5,240.0,245.0" stroke="yellow" stroke-width="1" fill="none" />
<polyline points="" stroke="black" stroke-width="1" fill="none" />
<polyline points="" stroke="green" stroke-width="1" fill="none" />
<polyline points="219.0,221.5,229.0,229.0,228.5,228.0" stroke="orange" stroke-width="1" fill="none" />
<polyline points="216.0,232.5,219.5,236.0" stroke="black" stroke-width="1" fill="none" />
<polyline points="229.5,231.5,223.0,235.5,232.5,244.0,218.0,232.5,224.5,246.5" stroke="orange" stroke-width="1" fill="none" />
<polyline points="225.5,230.5,215.5,227.0,211.5,231.0,211.0,227.0,212.5,222.0,212.5,229.5,209.0,228.5" stroke="green" stroke-width="1" fill="none" />
<polyline points="217.5,213.5,225.5,235.5,212.5,228.5,220.5,238.0,222.5,233.5,229.0,245.5,224.0,248.0,232.0,249.0,231.5,249.5" stroke="black" stroke-width="1" fill="none" />
<polyline points="223.0,251.5,221.5,266.0,220.5,269.5,212.0,273.0,207.5,288.5,196.5,289.5,197.0,287.5,196.0,304.5,186.0,315.0,187.5,318.0,183.5,330.5,180.0,326.5,171.0,327.5,174.0,331.0,163.5,335.5,154.0,334.0,153.0,335.0,153.0,341.0,144.5,351.0,140.0,349.5" stroke="orange" stroke-width="1" fill="none" />
<polyline points="141.5,345.0,147.0,338.0,146.5,342.0,155.5,339.5,147.0,329.0,153.0,326.0,147.5,327.0,151.0,327.0" stroke="green" stroke-width="1" fill="none" />
<polyline points="156.0,328.5,155.5,330.5,158.0,337.5" stroke="orange" stroke-width="1" fill="none" />
<polyline points="147.0,350.0,149.5,348.5,143.5,354.0,147.5,357.0" stroke="green" stroke-width="1" fill="none" />
<polyline points="133.0,352.0,133.5,337.5,143.5,340.0,130.5,337.0,138.0,327.5,133.5,326.5,134.0,321.5,137.5,319.5,130.0,314.5,132.0,316.5,129.0,310.5" stroke="green" stroke-width="1" fill="none" />
<polyline points="132.0,300.5,132.0,298.0,127.5,295.5" stroke="green" stroke-width="1" fill="none" />
<polyline points="135.5,309.5" stroke="yellow" stroke-width="1" fill="none" />
<polyline points="116.5,288.5,135.0,295.5,136.5,289.5,124.5,294.0" stroke="orange" stroke-width="1" fill="none" />
<polyline points="130.5,274.0,138.5,278.5,143.0,272.5" stroke="black" stroke-width="1" fill="none" />
<polyline points="150.0,267.0,157.0,264.5,158.0,267.0,157.5,264.5" stroke="orange" stroke-width="1" fill="none" />
<polyline points="153.0,272.5,155.0,274.0,156.0,268.0,157.5,274.5,159.0,267.5" stroke="yellow" stroke-width="1" fill="none" />
<polyline points="152.5,271.0,148.0,271.5,155.5,272.5,153.5,274.5,154.0,274.5" stroke="orange" stroke-width="1" fill="none" />
<polyline points="170.0,262.0,169.5,256.5,173.0,257.0,177.5,254.5,171.5,257.0,169.0,264.5,172.5,265.0" stroke="yellow" stroke-width="1" fill="none" />
<polyline points="178.0,243.5,179.5,250.0" stroke="black" stroke-width="1" fill="none" />
<polyline points="169.5,261.5" stroke="yellow" stroke-width="1" fill="none" />
<polyline points="" stroke="green" stroke-width="1" fill="none" />
<polyline points="176.0,267.0,179.0,260.5,182.5,261.5,194.5,257.0,186.0,257.5,188.5,260.0,189.0,260.0,189.5,258.0,193.0,262.0" stroke="yellow" stroke-width="1" fill="none" />
<polyline points="" stroke="yellow" stroke-width="1" fill="none" />
<polyline points="" stroke="black" stroke-width="1" fill="none" />
<polyline points="178.5,253.0,187.0,257.0,191.5,257.0,187.0,264.5,193.0,263.5,187.0,268.5" stroke="black" stroke-width="1" fill="none" />
<polyline points="208.0,259.0,202.0,249.5,206.5,258.0,204.0,266.0,211.5,268.0,210.5,254.0" stroke="green" stroke-width="1" fill="none" />
<polyline points="209.5,249.5,223.5,270.5,207.5,251.5,211.5,252.5,212.0,244.5,206.5,236.5,207.5,239.0,210.0,238.5,210.0,242.5,200.5,241.0,206.5,241.0,210.0,239.0,201.5,234.5" stroke="green" stroke-width="1" fill="none" />
<polyline points="205.0,244.0,205.5,238.0,209.5,242.0,213.0,238.5,214.5,237.5,225.0,238.5,216.5,245.5,210.5,250.0,212.5,246.5,209.5,248.5" stroke="yellow" stroke-width="1" fill="none" />
<polyline points="" stroke="yellow" stroke-width="1" fill="none" />
<polyline points="208.0,258.0,206.0,259.0" stroke="orange" stroke-width="1" fill="none" />
<polyline points="216.5,255.0,216.0,257.0,211.5,249.0,214.5,245.0,212.0,242.0,208.5,236.0,215.0,230.5,209.5,234.0" stroke="black" stroke-width="1" fill="none" />
<polyline points="217.0,231.0,212.0,238.0,212.0,245.0,215.0,242.5,211.5,257.5,206.5,253.5,218.5,257.5,214.5,263.5,219.0,262.5,218.0,260.0" stroke="black" stroke-width="1" fill="none" />
<polyline points="" stroke="black" stroke-width="1" fill="none" />
<polyline points="200.0,253.5,199.5,253.0" stroke="black" stroke-width="1" fill="none" />
<polyline points="" stroke="yellow" stroke-width="1" fill="none" />
<polyline points="185.5,270.5,180.0,267.5,188.0,262.5,170.0,266.0,175.0,259.0,191.5,243.0,184.0,245.5,176.5,243.0,189.5,233.5,198.5,242.5,180.5,245.5,178.0,240.0,182.5,241.5,183.5,243.5,180.5,243.0" stroke="black" stroke-width="1" fill="none" />
<polyline points="196.5,215.5,201.0,214.5,189.0,229.5,190.5,222.5" stroke="orange" stroke-width="1" fill="none" />
<polyline points="188.0,226.0,183.5,218.0,190.5,228.5,187.5,230.5,189.5,232.0" stroke="yellow" stroke-width="1" fill="none" />
<polyline points="178.5,241.0,182.5,242.0,182.0,239.0,186.5,241.0,185.5,240.0,186.5,240.0" stroke="yellow" stroke-width="1" fill="none" />
<polyline points="192.5,246.0,193.5,237.0,191.0,238.0,203.5,238.5,200.0,240.0,199.5,242.5" stroke="black" stroke-width="1" fill="none" />
<polyline points="220.5,223.0" stroke="green" stroke-width="1" fill="none" />
<polyline points="" stroke="black" stroke-width="1" fill="none" />
<polyline points="213.0,221.5,217.5,221.0,218.5,231.0,214.5,234.0" stroke="green" stroke-width="1" fill="none" />
<polyline points="214.0,219.0,226.0,211.5,217.0,218.0,227.5,235.5,232.5,230.0,224.5,237.5,233.0,234.5,239.5,247.5,230.5,238.5,232.0,250.5,229.5,250.5,231.5,254.0,218.5,252.5,215.0,271.5,221.5,259.5,217.5,263.5,221.0,270.5,215.5,284.0,200.5,284.0,219.0,295.5,202.5,286.0,202.5,294.0,209.0,301.5,188.0,304.0,205.0,308.5,207.0,320.0,194.5,309.0,196.0,316.0,183.5,328.0,199.0,318.5,194.5,312.5,202.0,313.0,216.5,309.0,212.5,312.5,220.5,301.0,228.0,302.5,233.0,285.0,226.0,278.5,236.5,280.0,233.5,265.0,234.5,269.5,250.5,266.0,249.5,257.0,248.5,253.0,247.5,254.5,256.5,251.0,263.0,249.5,272.5,241.0,283.5,257.0,280.5,249.0,273.5,256.5,292.5,254.0,286.5,243.5,303.0,258.5,302.0,253.0,300.5,253.0,298.0,255.0" stroke="yellow" stroke-width="1" fill="none" />
<polyline points="" stroke="orange" stroke-width="1" fill="none" />
<polyline points="286.0,258.0,292.5,274.5,290.0,279.0,289.0,277.0,288.0,276.5,288.0,274.0" stroke="black" stroke-width="1" fill="none" />
<polyline points="" stroke="black" stroke-width="1" fill="none" />
<polyline points="" stroke="black" stroke-width="1" fill="none" />
<polyline points="282.0,275.5,278.0,270.0,279.5,272.5,282.5,274.5" stroke="yellow" stroke-width="1" fill="none" />
<polyline points="278.0,264.0,278.0,262.0,272.5,269.0" stroke="orange" stroke-width="1" fill="none" />
<polyline points="284.5,268.0" stroke="orange" stroke-width="1" fill="none" />
<polyline points="260.0,262.5,262.0,266.5,266.5,268.0" stroke="yellow" stroke-width="1" fill="none" />
<polyline points="262.5,261.0,261.5,274.5,265.0,274.0,270.0,271.0,276.0,272.0,283.0,259.5,277.0,274.5,268.0,289.5,278.5,274.0,275.0,279.5,281.5,287.0,281.0,286.0,278.0,290.0,274.5,294.5" stroke="yellow" stroke-width="1" fill="none" />
<polyline points="259.5,276.5,259.0,268.0,263.5,268.0,257.5,278.0,254.5,272.5,251.5,274.0,254.5,272.0,252.0,273.0" stroke="orange" stroke-width="1" fill="none" />
<polyline points="267.5,271.0,268.0,280.0,274.0,278.5" stroke="black" stroke-width="1" fill="none" />
<polyline points="" stroke="yellow" stroke-width="1" fill="none" />
<polyline points="258.0,267.5,253.5,271.0,255.5,279.5,254.5,275.0,260.0,271.0,268.0,278.0,268.0,281.0,273.5,284.0,285.5,280.5,282.5,276.0,281.0,274.5" stroke="orange" stroke-width="1" fill="none" />
<polyline points="284.5,259.5,287.5,265.5,285.5,256.0,280.5,260.5,291.0,252.5,281.0,252.5,273.0,256.0,280.5,250.5,279.0,250.5,276.5,248.5,273.5,252.5" stroke="orange" stroke-width="1" fill="none" />
<polyline points="281.0,244.0,276.5,241.5" stroke="orange" stroke-width="1" fill="none" />
<polyline points="" stroke="black" stroke-width="1" fill="none" />
<polyline points="272.5,260.0,273.5,257.5,284.0,258.5,271.0,260.0,264.5,248.5,259.5,247.5,267.0,252.0,262.0,257.5,263.0,257.0" stroke="black" stroke-width="1" fill="none" />
<polyline points="268.5,269.5,265.0,275.5,262.0,271.0,263.0,268.0" stroke="yellow" stroke-width="1" fill="none" />
<polyline points="283.5,269.0,277.0,271.5,283.5,269.5,283.5,269.5,286.5,275.0,289.0,275.0,285.0,268.5,282.0,278.0,287.0,277.5,293.5,265.0" stroke="black" stroke-width="1" fill="none" />
<polyline points="" stroke="orange" stroke-width="1" fill="none" />
<polyline points="255.0,253.5,259.5,249.0,255.5,258.0,246.5,266.5,246.5,264.0,242.5,268.5,238.5,275.0,227.5,276.5,226.5,291.5,236.0,282.0,225.5,289.0,214.5,292.0,211.0,303.0,215.0,299.0,213.5,303.0,213.0,315.5,199.5,312.5,199.5,313.0,207.0,322.0,195.5,323.0,192.0,334.5,191.0,335.5,183.0,335.5,185.0,349.0,183.5,344.5,170.5,346.5,173.0,359.0,175.0,358.0,167.0,362.0,166.5,370.5,165.0,365.5,154.0,383.0,154.5,376.0,152.0,387.0,162.5,388.5,164.0,396.0,169.0,401.0,172.5,406.5,177.0,405.0,172.5,407.5,177.0,395.5,168.5,399.5,174.0,396.5,174.5,400.5" stroke="yellow" stroke-width="1" fill="none" />
<polyline points="157.0,394.0,162.0,395.5,158.5,388.5,158.0,392.5" stroke="green" stroke-width="1" fill="none" />
<polyline points="" stroke="yellow" stroke-width="1" fill="none" />
<polyline points="137.0,374.0,143.0,369.0,141.0,370.5,141.5,362.0" stroke="black" stroke-width="1" fill="none" />
<polyline points="136.5,381.0" stroke="black" stroke-width="1" fill="none" />
<polyline points="135.5,415.0,133.5,410.5,131.0,415.0,125.0,415.0,130.5,417.5,137.5,422.5,138.5,425.5,139.0,431.5,139.0,437.0,139.0,441.5,136.5,444.0,141.0,447.0,145.5,454.5,133.0,454.5,133.5,464.0,139.5,459.5,136.5,471.5,138.0,471.5,138.5,472.0,149.5,469.0,147.5,479.5,146.5,469.0,155.5,488.5,164.0,482.0" stroke="yellow" stroke-width="1" fill="none" />
<polyline points="" stroke="black" stroke-width="1" fill="none" />
<polyline points="174.0,466.5,188.5,457.5,174.5,466.5,175.0,461.5,172.0,459.5,172.0,450.0,163.5,439.5,178.0,439.5,164.0,442.5,164.0,439.0,171.0,436.0" stroke="orange" stroke-width="1" fill="none" />
<polyline points="166.0,435.5,166.5,439.0,164.5,437.0,162.5,436.0" stroke="yellow" stroke-width="1" fill="none" />
<polyline points="156.5,426.5,164.0,422.0,160.0,410.5,167.5,406.5,158.5,408.5,152.0,411.0,160.0,400.5,161.5,401.5,160.5,396.5,161.0,398.0,150.5,390.5,153.0,383.5,145.0,371.0,153.0,368.0,140.5,363.5,142.0,361.5,153.0,361.5,149.0,355.5,148.0,359.5,152.0,359.0" stroke="black" stroke-width="1" fill="none" />
<polyline points="143.5,360.5,147.5,364.5,142.5,360.5,145.0,354.5,153.5,365.0,149.0,377.0,149.0,378.5,154.5,384.0,153.5,381.5,154.0,381.0,154.5,396.5,152.0,389.0,163.5,404.0,176.0,394.5" stroke="green" stroke-width="1" fill="none" />
<polyline points="177.0,431.5,169.5,441.0,169.5,442.5,174.0,438.0,176.0,437.0,169.5,451.0,176.0,449.0,187.0,455.0,175.5,449.0,178.0,469.5,179.0,466.5" stroke="green" stroke-width="1" fill="none" />
<polyline points="163.5,446.5,172.0,452.5,170.0,453.0" stroke="black" stroke-width="1" fill="none" />
<polyline points="164.5,451.5,164.0,442.0,161.5,443.0,174.0,457.5,167.5,462.5,179.5,454.0,171.0,461.5,169.0,469.5,164.5,468.5,167.5,484.5,175.0,473.0,157.5,478.0,166.0,491.5,166.0,491.0,160.0,501.0,156.0,497.5,163.5,509.0,176.0,497.5,183.5,514.5,177.5,512.5,178.5,508.5,171.0,517.0,167.5,512.5" stroke="yellow" stroke-width="1" fill="none" />
<polyline points="" stroke="orange" stroke-width="1" fill="none" />
<polyline points="" stroke="black" stroke-width="1" fill="none" />
<polyline points="" stroke="green" stroke-width="1" fill="none" />
<polyline points="145.5,449.5,163.5,455.0,149.5,450.0,150.0,448.0,147.0,444.5,146.0,434.0,162.0,431.0,148.5,430.5,146.5,428.0,139.0,420.0,133.5,409.5,132.0,408.0,137.0,405.5" stroke="orange" stroke-width="1" fill="none" />
<polyline points="138.0,396.5,152.5,398.0,142.5,395.5,152.5,385.5,147.0,395.0,145.0,399.5,144.0,402.0" stroke="orange" stroke-width="1" fill="none" />
<polyline points="138.5,404.0,135.0,408.0" stroke="orange" stroke-width="1" fill="none" />
<polyline points="138.0,406.0,144.0,402.0,140.5,409.0,144.5,409.5,145.0,414.5,146.5,414.0,147.0,410.5" stroke="green" stroke-width="1" fill="none" />
<polyline points="159.0,423.5,156.0,425.5,154.5,430.5,159.0,424.5,154.0,437.5,148.5,438.0" stroke="black" stroke-width="1" fill="none" />
<polyline points="162.5,440.5,170.5,447.0,176.5,445.5,179.5,446.5,180.5,437.0,178.5,442.5" stroke="green" stroke-width="1" fill="none" />
<polyline points="169.5,411.5,179.0,414.5,180.5,413.0,167.0,414.0,166.5,410.5,161.5,410.0,167.0,401.0,166.0,397.5,165.0,398.0" stroke="orange" stroke-width="1" fill="none" />
<polyline points="178.0,409.0,169.0,416.5,164.5,421.0,170.0,434.5,160.5,434.0,161.0,430.0,156.0,427.5,163.0,437.5,155.0,434.5,164.0,433.0,175.0,429.5,167.5,432.5,167.0,431.0,160.0,427.0" stroke="yellow" stroke-width="1" fill="none" />
<polyline points="165.0,431.0,164.5,428.5" stroke="yellow" stroke-width="1" fill="none" />
<polyline points="149.5,452.0,152.5,458.5,158.0,455.5,163.0,453.0,159.0,453.5,163.0,458.5,161.0,468.5" stroke="green" stroke-width="1" fill="none" />
<polyline points="164.0,456.5,168.0,453.0,163.0,461.5,161.5,458.0" stroke="black" stroke-width="1" fill="none" />
<polyline points="" stroke="yellow" stroke-width="1" fill="none" />
<polyline points="149.0,451.5,147.5,454.0,155.5,454.0,159.0,453.0,156.5,455.0,154.5,457.5,163.0,456.0" stroke="black" stroke-width="1" fill="none" />
<polyline points="147.5,444.0,146.5,445.5" stroke="yellow" stroke-width="1" fill="none" />
<polyline points="147.5,464.5,149.0,462.0,149.0,465.5,147.5,468.5,154.5,469.5,147.5,476.0,152.0,480.0,152.0,479.0" stroke="orange" stroke-width="1" fill="none" />
<polyline points="148.5,476.0,151.0,467.5,153.0,469.5,151.0,469.0" stroke="yellow" stroke-width="1" fill="none" />
<polyline points="140.0,465.0,151.5,463.0,156.0,463.5,156.0,469.0,151.5,467.0" stroke="green" stroke-width="1" fill="none" />
<polyline points="" stroke="black" stroke-width="1" fill="none" />
<polyline points="139.5,451.0,140.5,456.0,134.0,453.5,149.5,462.0,141.5,452.5,145.5,475.0,139.0,475.0,152.0,470.0,159.0,478.0,156.5,477.5,157.0,475.5" stroke="green" stroke-width="1" fill="none" />
<polyline points="160.5,474.0,160.0,477.5,157.0,471.5,162.0,472.5,154.0,471.0,145.5,466.5,151.5,457.5,143.5,455.0,146.0,452.0" stroke="yellow" stroke-width="1" fill="none" />
<polyline points="144.5,454.0,148.0,464.5,140.5,460.0,156.0,472.5,155.5,477.0,145.5,468.5,156.0,480.0,149.0,472.5,160.0,491.5,159.0,492.5,159.0,490.0,166.5,496.0,171.5,504.0,165.5,503.5" stroke="black" stroke-width="1" fill="none" />
<polyline points="157.0,447.0,157.5,454.0,155.0,451.0,148.5,447.0,153.0,433.0,144.0,438.0,149.0,430.0,152.0,434.0,145.0,420.0" stroke="green" stroke-width="1" fill="none" />
<polyline points="" stroke="green" stroke-width="1" fill="none" />
<polyline points="147.0,429.0" stroke="yellow" stroke-width="1" fill="none" />
<polyline points="135.0,415.0,142.5,416.5,146.0,412.5,148.5,410.5,152.0,411.0" stroke="green" stroke-width="1" fill="none" />
<polyline points="144.5,408.0,143.0,408.0,144.0,420.0,145.0,422.5,153.0,430.0,147.5,436.5,160.5,438.5,154.0,436.0,154.0,435.0,149.5,438.5" stroke="black" stroke-width="1" fill="none" />
<polyline points="153.0,421.5,153.5,427.0,154.5,409.5,152.0,411.5,145.0,404.0,146.0,399.5,151.5,394.5,144.5,392.0,144.5,395.0" stroke="green" stroke-width="1" fill="none" />
<polyline points="151.5,393.5,150.5,397.0,138.5,399.0,139.5,396.5" stroke="yellow" stroke-width="1" fill="none" />
<polyline points="" stroke="orange" stroke-width="1" fill="none" />
<polyline points="148.0,406.5,141.0,403.0,138.5,400.5,140.0,401.0,123.5,403.0,126.0,398.5,123.0,402.5,124.0,397.0" stroke="orange" stroke-width="1" fill="none" />
<polyline points="120.5,398.0,125.0,401.5,130.0,395.0,120.0,403.0,131.0,402.5,129.0,400.5,125.5,403.0,129.5,401.0" stroke="black" stroke-width="1" fill="none" />
<polyline points="114.0,406.5,131.5,412.5,133.0,398.0,140.0,403.5,143.5,385.5,134.5,400.5,140.0,380.0,134.5,384.0,140.5,379.5,144.5,379.5,149.0,367.0,151.0,370.5,144.5,364.0,137.0,347.0,143.0,350.0,145.5,348.5,143.5,349.5,133.0,347.5,133.0,345.5,134.0,336.5,138.0,338.0,134.5,329.0,126.0,317.0,135.5,313.0,125.5,319.0,127.0,309.5,123.0,310.0,127.5,296.5,131.5,295.5,129.5,287.0,135.5,293.5,127.0,280.5,131.5,274.0,127.0,271.5" stroke="orange" stroke-width="1" fill="none" />
<polyline points="126.0,277.5,128.5,287.5,126.0,290.0,112.5,298.5,129.5,294.5,118.0,302.0,127.5,293.0,119.5,304.0,111.0,315.0,109.0,328.5,116.0,316.5,116.5,321.5,120.0,324.0,111.5,332.5,108.5,335.5,113.5,335.0,115.0,339.0,120.5,335.5" stroke="yellow" stroke-width="1" fill="none" />
<polyline points="" stroke="orange" stroke-width="1" fill="none" />
<polyline points="118.0,346.5,117.5,343.5,115.5,349.5,128.0,358.5,120.0,369.5,111.0,359.5,115.5,367.5,123.0,367.5,110.0,377.5,116.0,388.0,115.5,385.0,119.5,382.5,121.5,396.5,123.5,401.5,127.0,404.0" stroke="black" stroke-width="1" fill="none" />
<polyline points="118.5,391.0,113.0,379.5,122.0,392.0,124.0,383.0,120.0,370.5,123.0,378.5,119.5,373.0,115.5,357.0,121.5,371.5,117.5,372.0" stroke="orange" stroke-width="1" fill="none" />
<polyline points="129.0,381.5,125.5,386.5" stroke="green" stroke-width="1" fill="none" />
<polyline points="122.0,392.0,123.5,385.0,126.5,397.0,128.0,402.5" stroke="green" stroke-width="1" fill="none" />
<polyline points="131.5,395.0,122.0,388.5,131.0,400.0,140.0,393.0,136.0,392.5,143.0,390.0,138.5,389.5,142.0,399.0,137.0,394.0,139.5,393.5" stroke="yellow" stroke-width="1" fill="none" />
<polyline points="" stroke="yellow" stroke-width="1" fill="none" />
<polyline points="114.5,403.5,119.0,397.5,117.5,395.0,120.5,397.0,113.0,403.5,115.5,403.0" stroke="yellow" stroke-width="1" fill="none" />
<polyline points="122.0,409.0,126.5,405.5,124.5,404.0,126.5,418.0,124.0,420.5,133.0,423.5,140.5,421.0,132.5,429.0,143.0,434.5" stroke="yellow" stroke-width="1" fill="none" />
<polyline points="" stroke="black" stroke-width="1" fill="none" />
<polyline points="" stroke="yellow" stroke-width="1" fill="none" />
<polyline points="147.5,414.0" stroke="orange" stroke-width="1" fill="none" />
<polyline points="" stroke="black" stroke-width="1" fill="none" />
<polyline points="" stroke="orange" stroke-width="1" fill="none" />
<polyline points="153.5,391.0,152.0,390.5,151.0,390.5,146.0,388.0,145.5,390.0" stroke="orange" stroke-width="1" fill="none" />
<polyline points="173.5,404.0,170.0,410.0,176.5,413.5,179.5,413.5,174.0,415.0,173.0,415.0,178.0,408.5,176.5,409.0" stroke="yellow" stroke-width="1" fill="none" />
<polyline points="147.0,401.0,162.5,404.0,164.5,395.0,137.5,387.5,147.5,389.0,147.0,389.0,146.5,393.0,140.5,385.0,138.5,379.5,139.5,387.0,145.0,379.5,134.5,378.5,137.5,380.0,133.0,367.5,143.0,359.5,135.0,363.0,141.0,354.0,144.0,347.5,144.0,355.5,133.0,341.5,130.0,338.5,125.0,333.0,128.0,334.5,142.0,326.0,138.5,323.5,137.0,321.0" stroke="orange" stroke-width="1" fill="none" />
<polyline points="116.5,326.5,129.0,330.0,123.0,340.5,117.5,345.5,120.5,345.0" stroke="orange" stroke-width="1" fill="none" />
<polyline points="116.5,343.5,124.0,350.5,120.0,350.5,118.0,366.5,115.0,365.5,117.5,377.5,123.5,385.5,122.5,382.5,123.0,381.0,135.0,388.0,132.0,383.5,130.0,398.0,128.5,399.5" stroke="orange" stroke-width="1" fill="none" />
<polyline points="" stroke="yellow" stroke-width="1" fill="none" />
<polyline points="" stroke="green" stroke-width="1" fill="none" />
<polyline points="" stroke="orange" stroke-width="1" fill="none" />
<polyline points="" stroke="green" stroke-width="1" fill="none" />
<polyline points="132.5,355.5,131.5,356.5,133.0,351.5,121.5,359.5,138.0,366.0,136.0,370.0,123.5,371.0,124.5,372.0" stroke="yellow" stroke-width="1" fill="none" />
<polyline points="142.0,360.0,143.0,360.0,144.5,352.0,142.5,346.0,144.5,348.5,133.0,345.0" stroke="black" stroke-width="1" fill="none" />
<polyline points="139.0,343.0,140.5,347.0,134.5,340.5" stroke="orange" stroke-width="1" fill="none" />
<polyline points="" stroke="yellow" stroke-width="1" fill="none" />
<polyline points="136.0,350.5,135.0,350.0,132.5,344.0,140.0,345.0,140.5,337.5,147.5,336.0,147.0,333.5,143.0,335.5" stroke="green" stroke-width="1" fill="none" />
<polyline points="138.0,346.0,130.0,335.5,139.0,342.5,138.5,343.0,139.0,344.0" stroke="black" stroke-width="1" fill="none" />
<polyline points="119.0,353.5,116.0,362.0,109.0,360.0,111.5,366.5,109.5,371.5,118.0,370.5,108.5,377.0,118.5,379.5,123.0,382.5,121.0,393.5,110.5,396.5,112.0,401.0,114.5,409.5,120.0,396.0,118.5,407.5,116.0,419.0,104.0,422.5,110.5,420.0,110.5,417.5" stroke="yellow" stroke-width="1" fill="none" />
<polyline points="114.0,411.5" stroke="orange" stroke-width="1" fill="none" />
<polyline points="124.5,423.0,123.5,420.5,125.0,418.5" stroke="green" stroke-width="1" fill="none" />
<polyline points="" stroke="yellow" stroke-width="1" fill="none" />
<polyline points="" stroke="green" stroke-width="1" fill="none" />
<polyline points="109.5,435.0,120.5,429.5,116.5,441.5,123.5,447.0,123.0,439.0,129.5,441.0" stroke="green" stroke-width="1" fill="none" />
<polyline points="" stroke="black" stroke-width="1" fill="none" />
<polyline points="" stroke="black" stroke-width="1" fill="none" />
<polyline points="125.5,454.5,125.5,453.5,131.0,451.5,123.0,445.0,122.0,447.0" stroke="yellow" stroke-width="1" fill="none" />
<polyline points="107.0,442.0" stroke="yellow" stroke-width="1" fill="none" />
<polyline points="103.0,433.0,100.5,432.5" stroke="black" stroke-width="1" fill="none" />
<polyline points="98.5,448.5,90.0,453.0,94.5,454.0" stroke="orange" stroke-width="1" fill="none" />
<polyline points="82.0,460.5,83.5,459.0,93.5,452.0,89.5,450.0,89.5,447.0" stroke="green" stroke-width="1" fill="none" />
<polyline points="102.0,460.0,99.0,458.0,98.0,466.5" stroke="yellow" stroke-width="1" fill="none" />
<polyline points="98.5,495.0,103.5,499.0,108.0,506.0,102.0,507.5,110.5,514.5,104.5,514.0,107.5,514.0,103.0,511.5,110.5,507.0" stroke="yellow" stroke-width="1" fill="none" />
<polyline points="112.5,513.5,111.5,497.0,108.0,489.0,106.0,490.5,110.5,482.5" stroke="yellow" stroke-width="1" fill="none" />
<polyline points="122.0,485.0,112.0,498.0,117.5,494.0,117.5,506.0,123.0,515.0,116.0,514.5" stroke="yellow" stroke-width="1" fill="none" />
<polyline points="97.0,501.5,102.0,503.5,97.5,503.0,97.0,504.0,99.5,505.0" stroke="orange" stroke-width="1" fill="none" />
<polyline points="100.5,492.5,97.0,493.0,103.0,502.0,103.5,516.5,107.0,510.5" stroke="green" stroke-width="1" fill="none" />
<polyline points="124.0,499.5,122.5,495.0,118.0,498.0,125.0,487.0,121.0,478.5" stroke="orange" stroke-width="1" fill="none" />
<polyline points="126.0,493.5,126.5,490.5,127.0,493.0,131.0,504.5,128.5,505.0,123.5,504.0,126.0,509.5,128.5,512.5" stroke="orange" stroke-width="1" fill="none" />
<polyline points="150.5,441.0,148.0,420.0,146.0,424.5,140.5,417.5,129.0,423.0,136.0,421.0" stroke="green" stroke-width="1" fill="none" />
<polyline points="131.0,427.5,137.5,419.5,131.5,421.5,143.5,432.0,139.0,432.0,144.5,442.0,151.0,448.0,147.0,449.5,143.0,453.5,132.0,459.5,138.5,455.0,129.5,477.0,135.0,457.0,135.0,454.5,142.0,461.0,138.0,460.5,133.5,461.0,131.0,463.5" stroke="orange" stroke-width="1" fill="none" />
<polyline points="136.5,444.5,137.0,444.0,145.5,425.5,136.0,426.0,140.0,423.5,142.0,428.5" stroke="black" stroke-width="1" fill="none" />
<polyline points="129.5,429.5,124.0,432.0,122.5,423.5,128.5,418.5,126.5,415.5" stroke="yellow" stroke-width="1" fill="none" />
<polyline points="113.5,419.0,114.5,432.0,118.0,434.5" stroke="yellow" stroke-width="1" fill="none" />
<polyline points="" stroke="black" stroke-width="1" fill="none" />
<polyline points="102.0,410.5,110.5,418.0,103.5,429.0,104.5,436.5,110.5,436.0" stroke="orange" stroke-width="1" fill="none" />
<polyline points="102.5,437.5,96.5,439.0,91.0,440.0,87.0,442.0,95.0,446.0,102.5,438.0,99.0,440.5,101.0,426.0,102.0,430.0,109.5,424.5" stroke="green" stroke-width="1" fill="none" />
<polyline points="96.5,426.5,89.5,428.5,96.0,431.5,93.0,426.0,94.0,430.5,91.0,426.0" stroke="orange" stroke-width="1" fill="none" />
<polyline points="89.0,421.5,96.5,420.5,76.0,429.0,86.5,417.5,89.0,418.0,93.0,423.0" stroke="black" stroke-width="1" fill="none" />
<polyline points="" stroke="green" stroke-width="1" fill="none" />
<polyline points="" stroke="orange" stroke-width="1" fill="none" />
<polyline points="97.5,389.0,89.5,400.5,101.5,400.0" stroke="yellow" stroke-width="1" fill="none" />
<polyline points="99.5,408.5,94.5,405.5,93.0,404.5,98.0,407.5,90.0,399.5,90.5,407.5,101.0,396.0,86.5,392.0,93.0,381.0,79.5,384.5,88.5,390.0,87.5,387.5" stroke="orange" stroke-width="1" fill="none" />
<polyline points="83.5,395.5,71.5,401.5,69.0,404.0,70.5,400.0,75.0,405.0,68.5,420.5,72.5,419.5,70.0,416.0,69.5,418.5,66.5,422.5,66.0,424.0,76.0,431.0,75.5,433.5,71.5,432.0,68.5,441.0,64.0,442.0,72.5,444.5,72.5,448.0,70.0,453.0,73.5,458.0,71.0,460.5,84.0,459.5,68.5,473.5,61.0,478.5,70.0,485.0,63.0,479.5,64.0,489.0,69.5,493.0,64.0,497.0,69.5,501.0,60.5,500.0,65.0,504.5,64.0,513.0,57.0,512.5,68.5,503.0,72.5,500.0" stroke="green" stroke-width="1" fill="none" />
<polyline points="62.5,504.0" stroke="green" stroke-width="1" fill="none" />
<polyline points="72.0,488.5" stroke="yellow" stroke-width="1" fill="none" />
<polyline points="68.0,478.5,67.5,477.0,60.5,477.5,68.5,481.0,70.5,483.5,65.0,481.5,66.5,488.0,67.0,494.5,65.5,497.5,69.5,489.5,69.5,493.5,70.0,494.0" stroke="yellow" stroke-width="1" fill="none" />
<polyline points="63.5,464.0,66.5,467.5,76.0,459.5,80.0,456.5,82.5,448.5,80.5,447.5,80.0,445.5" stroke="orange" stroke-width="1" fill="none" />
<polyline points="" stroke="orange" stroke-width="1" fill="none" />
<polyline points="73.0,451.5,78.5,452.5" stroke="green" stroke-width="1" fill="none" />
<polyline points="64.5,450.5,65.5,469.5,65.5,463.5,59.5,465.0,63.0,459.0,70.5,471.5,71.0,476.5,73.5,484.5,73.5,486.0,75.5,485.5" stroke="yellow" stroke-width="1" fill="none" />
<polyline points="" stroke="orange" stroke-width="1" fill="none" />
<polyline points="17.5,501.0,15.0,503.0,16.0,507.0,18.0,513.5,17.5,515.0" stroke="yellow" stroke-width="1" fill="none" />
<polyline points="17.0,497.0,19.5,498.5" stroke="black" stroke-width="1" fill="none" />
<polyline points="" stroke="green" stroke-width="1" fill="none" />
<polyline points="18.0,417.0,12.0,416.5,6.0,422.5,10.5,420.5,1.0,430.0,11.5,433.0,10.0,443.5,11.5,445.0,11.5,445.0,13.5,440.5,10.0,446.5,17.5,453.0,13.0,455.5,11.0,467.5,11.0,459.5,21.0,474.5" stroke="black" stroke-width="1" fill="none" />
<polyline points="27.5,464.0,31.5,455.0,30.0,456.0,26.0,458.5,29.5,441.0,32.0,442.0" stroke="black" stroke-width="1" fill="none" />
<polyline points="29.5,416.5,28.0,415.0,25.5,415.0" stroke="yellow" stroke-width="1" fill="none" />
<polyline points="25.5,413.0,23.0,419.5,15.0,422.0,17.0,426.5,18.5,428.0,21.0,442.5,33.0,442.5,12.5,441.0,27.0,449.5,27.0,452.5,31.5,450.5,18.0,457.0,28.5,457.5,29.0,463.0,23.5,471.5,26.5,476.0,32.5,476.0,26.0,474.0,30.0,485.0,27.0,495.0,20.0,498.5,33.5,500.0,37.5,500.0" stroke="orange" stroke-width="1" fill="none" />
<polyline points="55.5,430.5,67.5,431.0,66.0,437.0,66.0,436.5,65.0,437.0" stroke="yellow" stroke-width="1" fill="none" />
<polyline points="71.0,423.5,71.5,427.5,65.5,427.5,68.5,419.0,64.5,413.5,69.5,420.0,63.0,406.0,69.0,402.0,78.0,396.5,75.5,397.0,84.5,393.5,63.5,403.0,76.0,398.5,79.0,399.5" stroke="black" stroke-width="1" fill="none" />
<polyline points="" stroke="yellow" stroke-width="1" fill="none" />
<polyline points="" stroke="green" stroke-width="1" fill="none" />
<polyline points="76.0,413.5,65.0,421.5,57.0,428.5,66.5,431.0" stroke="green" stroke-width="1" fill="none" />
<polyline points="70.0,421.5,72.0,417.0,66.0,423.0,71.5,427.0,77.5,420.5,78.0,422.5,80.5,422.0" stroke="orange" stroke-width="1" fill="none" />
<polyline points="99.0,444.5,100.5,437.0,103.0,438.5,98.0,438.0,101.0,436.0,98.5,439.0" stroke="yellow" stroke-width="1" fill="none" />
<polyline points="" stroke="black" stroke-width="1" fill="none" />
<polyline points="111.5,407.0,106.0,407.5,92.0,413.0,92.0,419.5,97.0,417.0" stroke="black" stroke-width="1" fill="none" />
<polyline points="107.0,400.0,106.0,403.5,101.0,400.5,98.5,395.5,99.0,398.0,92.5,399.0,96.5,403.0" stroke="yellow" stroke-width="1" fill="none" />
<polyline points="97.0,368.5,101.5,373.0,107.5,378.0,98.5,364.5,110.0,356.5,104.5,359.5,108.0,358.0,108.5,355.5,108.0,363.5,109.5,354.0,109.0,339.0,106.0,337.0" stroke="yellow" stroke-width="1" fill="none" />
<polyline points="101.0,335.0,103.0,335.5,105.5,334.5,102.0,336.0" stroke="black" stroke-width="1" fill="none" />
<polyline points="" stroke="yellow" stroke-width="1" fill="none" />
<polyline points="102.5,325.0,110.0,305.5,121.5,316.5,126.5,308.5,129.5,306.0,123.0,312.5,113.5,317.0,112.0,323.0,104.0,309.5,104.5,309.5,115.5,311.5,113.0,319.0,102.5,320.5,102.5,317.5,111.0,318.0,111.0,310.0,121.5,306.0,117.5,300.0,117.5,302.0,123.0,297.5" stroke="orange" stroke-width="1" fill="none" />
<polyline points="112.0,305.5,125.5,311.5,122.0,312.0,115.5,313.5,109.0,322.5,120.0,323.0,109.5,328.0,98.0,328.0,94.5,338.0,88.0,335.5,97.0,348.0,87.5,334.5,91.0,333.5" stroke="yellow" stroke-width="1" fill="none" />
<polyline points="" stroke="yellow" stroke-width="1" fill="none" />
<polyline points="98.5,368.5,88.0,373.5,96.5,372.5,92.0,385.0,89.0,394.5,84.0,396.0,94.5,394.0,85.5,385.5,87.0,405.5,93.0,406.0,90.5,406.0,93.0,413.5,91.5,416.0,104.5,404.5,108.5,421.0,102.5,407.0,113.0,400.0" stroke="black" stroke-width="1" fill="none" />
<polyline points="124.0,351.0,128.5,351.0" stroke="orange" stroke-width="1" fill="none" />
<polyline points="114.0,373.0,116.5,375.5,127.5,392.0,125.5,389.0,126.0,394.0,125.5,385.5,130.0,402.0,126.0,404.5,137.0,404.0,134.0,397.0" stroke="black" stroke-width="1" fill="none" />
<polyline points="124.0,370.0,118.5,361.5,120.5,360.5,120.5,354.5,116.5,358.5,113.5,359.5" stroke="green" stroke-width="1" fill="none" />
<polyline points="127.5,374.5,118.5,374.0,125.5,377.0,132.0,378.5,133.0,383.5,132.5,378.5" stroke="orange" stroke-width="1" fill="none" />
<polyline points="123.0,364.0" stroke="black" stroke-width="1" fill="none" />
<polyline points="133.0,359.0,130.0,359.0,132.0,373.5,138.5,367.0,140.5,361.5,140.0,362.5" stroke="yellow" stroke-width="1" fill="none" />
<polyline points="172.5,366.0,177.0,367.0,177.5,357.0,178.5,360.5,177.0,343.0,184.0,341.5,183.5,336.5" stroke="green" stroke-width="1" fill="none" />
<polyline points="171.0,340.5,177.5,339.0,173.5,343.5,160.5,346.5,167.5,354.0,158.5,359.5,159.0,370.5,162.0,367.0,166.0,369.5,165.5,357.5,176.5,357.0,175.5,351.0,176.5,344.5,177.5,336.5,189.0,336.5,188.0,334.0,187.0,339.0,191.0,324.0,188.0,325.0,190.5,330.5,195.5,334.5" stroke="green" stroke-width="1" fill="none" />
<polyline points="" stroke="green" stroke-width="1" fill="none" />
<polyline points="198.5,361.0,196.5,364.0,191.5,350.0,187.5,351.5,188.0,345.5,192.0,341.5" stroke="black" stroke-width="1" fill="none" />
<polyline points="164.5,356.5,166.0,366.5,167.5,357.0,170.0,358.5,171.0,364.5" stroke="orange" stroke-width="1" fill="none" />
<polyline points="160.5,369.5,165.0,367.5,161.0,359.0,166.5,361.0,158.0,367.5,157.0,365.5,159.5,363.0,166.5,352.0,171.5,354.0,175.5,347.0,176.5,342.5,179.0,339.5,179.5,339.0,185.0,334.5,176.0,328.0,161.0,324.5,168.5,338.0,161.5,339.5,163.5,337.5,161.0,333.0,167.5,329.0,162.5,331.0,168.5,327.5" stroke="black" stroke-width="1" fill="none" />
<polyline points="170.0,340.5,173.5,330.5,169.0,342.5,168.0,339.5,169.0,333.5,168.0,326.5" stroke="black" stroke-width="1" fill="none" />
<polyline points="" stroke="yellow" stroke-width="1" fill="none" />
<polyline points="167.5,319.5,162.5,321.5,157.5,327.0,147.0,341.0,154.0,345.5,155.0,336.0,142.0,350.5,141.5,336.0,141.0,334.0,134.0,341.5,132.0,335.0,140.0,327.0,135.0,322.5,132.5,314.5,126.0,304.0,132.5,317.0,128.0,306.0,135.5,300.5,130.0,301.0,130.0,297.0,138.5,286.5,141.5,294.5,136.0,283.5,131.0,271.0,135.0,280.0,133.0,283.5,140.0,282.0,136.0,278.5,145.5,280.5,142.5,272.5,132.5,278.5,150.5,268.5,156.0,248.5,151.5,248.5,164.5,248.0,163.0,244.0,164.0,245.0,158.0,243.0,149.5,249.5" stroke="green" stroke-width="1" fill="none" />
<polyline points="147.5,249.5,147.5,251.5" stroke="black" stroke-width="1" fill="none" />
<polyline points="138.0,245.0,140.5,243.0,144.5,251.0,143.0,249.5,156.5,253.5,148.5,262.5" stroke="yellow" stroke-width="1" fill="none" />
<polyline points="144.5,265.5,141.0,271.5,136.0,275.0,135.0,270.5,135.0,276.5" stroke="black" stroke-width="1" fill="none" />
<polyline points="152.0,267.5,147.0,266.0,156.5,260.5,159.5,253.5,155.5,264.0,156.5,263.0,152.0,270.5,149.0,273.0,146.5,277.0,145.5,276.5,148.0,295.0,152.0,287.5,155.5,289.0,159.5,285.0,160.5,285.5,162.5,301.0,161.0,303.0,155.5,302.5,165.5,308.5,165.0,319.0,161.0,321.0,158.5,316.5,162.0,314.5,165.5,317.5,170.5,314.5,172.0,306.5,172.5,305.0,174.5,296.5,186.5,292.0,184.0,293.5,181.5,295.0,181.5,295.0" stroke="black" stroke-width="1" fill="none" />
<polyline points="180.5,296.5" stroke="orange" stroke-width="1" fill="none" />
<polyline points="" stroke="orange" stroke-width="1" fill="none" />
<polyline points="178.5,297.5,172.0,306.5,177.5,304.0,183.0,303.5,177.0,309.0,176.5,308.0" stroke="yellow" stroke-width="1" fill="none" />
<polyline points="168.5,306.0,166.5,309.5" stroke="orange" stroke-width="1" fill="none" />
<polyline points="169.5,310.0,167.0,295.5,174.5,298.5,178.5,300.5,172.0,287.5,167.0,287.5,173.0,293.0,160.0,300.0,164.5,286.5,168.0,285.0,174.5,284.0,177.0,283.0,176.0,282.5,161.5,284.0,169.0,284.0,165.5,289.5,166.0,284.5,171.5,299.5,164.5,275.5,165.5,280.5,164.5,274.5,164.5,270.5,163.5,263.5,171.5,266.5,172.5,260.5,169.0,265.0,171.5,258.5,172.5,248.0,183.5,245.5,170.5,239.0,175.0,238.5,182.0,233.0,182.0,238.0,173.0,245.0,177.0,245.0,173.5,241.0" stroke="orange" stroke-width="1" fill="none" />
<polyline points="185.5,223.0,183.5,234.5,175.5,243.5,177.5,240.5,183.0,245.0,175.5,250.0,173.5,249.0,188.0,257.0,184.0,255.0" stroke="black" stroke-width="1" fill="none" />
<polyline points="190.0,255.5,188.0,253.0,182.5,253.0,184.0,249.5" stroke="black" stroke-width="1" fill="none" />
<polyline points="223.0,271.5,230.0,272.5,222.0,273.5,227.5,273.5,238.0,268.0,233.0,270.0,230.0,268.0" stroke="yellow" stroke-width="1" fill="none" />
<polyline points="214.5,320.5,220.5,323.5,215.0,328.5,218.5,331.5,215.5,331.5,218.5,338.0,225.5,343.5,213.0,350.0" stroke="yellow" stroke-width="1" fill="none" />
<polyline points="256.5,381.5,252.0,387.5,252.5,378.5,255.0,392.5,262.0,376.0,270.0,388.5" stroke="black" stroke-width="1" fill="none" />
<polyline points="262.0,385.5,259.0,373.5,249.5,393.5,252.0,395.0,256.5,393.0,247.5,389.5,246.0,396.0,248.0,390.0,240.5,396.0" stroke="orange" stroke-width="1" fill="none" />
<polyline points="272.5,350.0,274.5,351.5" stroke="black" stroke-width="1" fill="none" />
<polyline points="274.0,352.5,277.5,347.5,280.0,347.0" stroke="yellow" stroke-width="1" fill="none" />
<polyline points="218.0,357.5,221.0,347.0,222.0,352.0,220.0,342.0,221.5,334.5,221.0,332.5,225.0,326.0,222.5,324.0,222.0,315.0,219.5,312.5,222.5,314.5,214.0,305.5,224.5,305.0,217.5,314.0" stroke="green" stroke-width="1" fill="none" />
<polyline points="171.5,292.5,175.5,289.5,173.0,291.0,173.5,288.5" stroke="orange" stroke-width="1" fill="none" />
<polyline points="175.5,299.5,177.0,299.5,180.5,312.0,174.0,309.5,173.5,310.0" stroke="yellow" stroke-width="1" fill="none" />
<polyline points="158.0,310.0,162.5,306.0,155.5,300.5,154.0,308.0,154.0,313.5,157.0,315.5" stroke="black" stroke-width="1" fill="none" />
<polyline points="159.0,311.0" stroke="orange" stroke-width="1" fill="none" />
<polyline points="166.5,313.0,164.5,312.5,164.5,316.0,161.5,317.0,157.5,318.0,160.5,316.0" stroke="black" stroke-width="1" fill="none" />
<polyline points="158.5,293.5" stroke="orange" stroke-width="1" fill="none" />
<polyline points="" stroke="orange" stroke-width="1" fill="none" />
<polyline points="145.5,290.0" stroke="green" stroke-width="1" fill="none" />
<polyline points="150.5,285.0,151.5,282.5" stroke="orange" stroke-width="1" fill="none" />
<polyline points="173.0,293.0,174.0,293.0,175.5,299.0,166.5,291.0" stroke="black" stroke-width="1" fill="none" />
<polyline points="175.0,293.0,179.0,303.5,173.0,308.5,166.5,307.5,168.5,304.5" stroke="orange" stroke-width="1" fill="none" />
<polyline points="158.0,293.5,154.0,297.0" stroke="black" stroke-width="1" fill="none" />
<polyline points="161.5,289.0,165.0,290.5,161.5,300.0,172.5,297.0,171.0,296.0" stroke="black" stroke-width="1" fill="none" />
<polyline points="171.5,285.5,178.5,300.0,168.5,294.0,173.0,303.0,167.0,313.5,170.0,311.5,168.5,308.5,160.5,318.0,169.0,315.5,170.0,319.0,168.5,332.5,165.5,334.0,155.0,333.5,157.0,338.5,161.0,337.5,150.5,346.5,147.5,352.5,154.0,355.5,149.0,357.0,145.0,348.0,144.5,346.0,153.5,353.0,157.5,355.0,167.5,347.5,162.0,342.0,159.0,341.5" stroke="yellow" stroke-width="1" fill="none" />
<polyline points="" stroke="black" stroke-width="1" fill="none" />
<polyline points="157.5,276.5,164.5,279.0,169.5,275.0,160.5,266.5,152.5,264.0,161.5,261.0" stroke="orange" stroke-width="1" fill="none" />
<polyline points="164.5,261.5,172.0,261.5,169.0,266.5,166.0,274.0,170.0,282.0,167.5,275.5" stroke="black" stroke-width="1" fill="none" />
<polyline points="" stroke="yellow" stroke-width="1" fill="none" />
<polyline points="155.0,282.0,150.5,274.0,159.0,278.5,160.0,275.5,160.0,284.0,166.0,280.5,167.0,281.5,162.5,285.5,180.5,282.0,172.5,295.0,171.0,282.5,178.5,283.5" stroke="black" stroke-width="1" fill="none" />
<polyline points="168.5,290.0,163.0,291.0,173.0,285.5,160.5,287.0,169.0,287.5" stroke="yellow" stroke-width="1" fill="none" />
<polyline points="160.0,286.0,167.5,283.5,158.0,295.0,161.0,290.0,163.0,290.0,160.0,288.0,161.5,288.0" stroke="green" stroke-width="1" fill="none" />
<polyline points="149.5,297.5,149.0,294.0,160.5,291.0,158.0,278.5,158.0,276.5,151.5,270.5,153.0,262.5,158.5,265.0,167.0,268.0,164.5,248.0,167.0,257.5,166.0,250.0,164.5,248.5,165.5,242.0,160.0,235.5,168.0,252.5,156.5,253.5,157.0,251.0,147.0,253.5,143.5,258.0,152.0,250.5,137.5,268.0,132.5,256.5,142.0,264.5,124.0,254.5,129.5,269.5,130.5,272.5,134.5,259.5,133.5,251.5,141.0,247.5,128.5,252.5,133.5,243.0,144.0,243.0,134.0,243.0,140.0,240.0,143.0,227.0,133.5,231.5,139.0,226.0,138.0,226.5,133.0,223.0,139.0,217.0,122.0,216.0,129.0,200.0,121.5,200.0,126.0,197.5,115.5,199.0,124.5,192.0,122.0,176.5,116.5,183.5,116.5,180.0,121.5,175.0,116.0,166.5,121.5,158.0,122.0,161.0,117.0,149.0,118.0,142.5,115.5,142.0,120.5,138.5,125.5,140.5,121.0,134.5,125.5,133.0,129.5,125.0,132.5,128.5,132.5,114.5,134.5,120.5,134.5,106.5,139.0,114.0,133.5,97.5,141.0,103.0,140.0,108.5,138.5,99.5,142.0,98.0,139.0,106.5,138.0,109.5" stroke="green" stroke-width="1" fill="none" />
<polyline points="130.5,101.5,134.5,113.5,143.0,109.5,139.5,119.5,130.5,132.0,126.5,120.5,134.5,136.0,130.0,134.0,128.0,138.0,135.5,137.0,139.5,152.0,133.5,147.5,127.5,143.0,125.0,148.5,127.5,151.5,126.0,152.0,124.5,156.5" stroke="black" stroke-width="1" fill="none" />
<polyline points="129.5,151.5,127.5,153.5,135.0,156.0,137.5,154.0,129.0,156.5,127.0,166.5,129.0,166.0,124.5,172.0,133.0,160.5,125.0,165.0,130.0,166.0,127.5,169.5,126.0,177.0,130.5,174.0" stroke="black" stroke-width="1" fill="none" />
<polyline points="148.0,187.5,124.0,180.0,134.0,182.5,139.0,175.0,143.5,171.5,137.5,175.5" stroke="green" stroke-width="1" fill="none" />
<polyline points="126.0,174.5,137.0,173.5,132.5,178.0,143.5,176.0,129.0,173.0,134.0,171.5,132.5,174.0,137.5,169.5,140.0,167.0" stroke="green" stroke-width="1" fill="none" />
<polyline points="140.5,177.5,138.0,180.0,134.5,181.0" stroke="orange" stroke-width="1" fill="none" />
<polyline points="133.5,181.5,133.5,172.5,142.5,172.0,134.0,166.0" stroke="orange" stroke-width="1" fill="none" />
<polyline points="140.5,180.5,139.5,173.0,144.0,174.0,143.5,192.5,132.5,181.0,145.5,203.0,139.5,194.5,143.0,194.0,151.5,188.5,151.0,194.5,150.0,200.5" stroke="orange" stroke-width="1" fill="none" />
<polyline points="150.0,198.5,151.0,201.0" stroke="green" stroke-width="1" fill="none" />
<polyline points="153.0,196.0,149.5,185.5,146.0,193.0,149.5,190.5,150.0,191.5" stroke="yellow" stroke-width="1" fill="none" />
<polyline points="" stroke="orange" stroke-width="1" fill="none" />
<polyline points="151.5,201.0,150.5,192.0,146.5,194.5,148.0,191.5,142.0,184.5,141.0,192.5,148.0,177.5,149.0,185.5,144.5,183.5" stroke="orange" stroke-width="1" fill="none" />
<polyline points="138.0,174.5,149.5,183.0,151.0,194.5,152.5,183.0,143.0,197.5" stroke="yellow" stroke-width="1" fill="none" />
<polyline points="147.5,189.0,149.5,185.5,149.0,186.5" stroke="orange" stroke-width="1" fill="none" />
<polyline points="161.0,178.0,167.5,174.5,172.5,178.5,177.0,170.0,169.5,163.5,177.0,168.5,180.5,155.5,187.0,160.0,190.0,157.5,196.5,149.0,203.5,154.5,203.5,145.5" stroke="black" stroke-width="1" fill="none" />
<polyline points="206.0,154.0,204.5,153.5,211.0,153.0,211.0,155.0,214.0,156.0" stroke="black" stroke-width="1" fill="none" />
<polyline points="217.5,155.5,229.0,155.5,223.0,156.0,219.0,155.5,216.5,158.5,214.0,151.5,217.0,157.0,213.5,153.5,213.5,157.0" stroke="orange" stroke-width="1" fill="none" />
<polyline points="220.0,149.0,216.5,143.5" stroke="yellow" stroke-width="1" fill="none" />
<polyline points="225.0,175.5,226.5,163.5,220.5,175.0,219.0,185.5,215.5,193.0,211.0,187.0,208.0,185.5,204.0,194.0,202.5,194.0,201.5,192.0" stroke="green" stroke-width="1" fill="none" />
<polyline points="217.5,188.0,221.0,188.0,216.5,184.5,210.5,187.5,223.0,179.0,218.5,169.5,229.0,176.0,237.0,175.0,238.5,168.0,243.0,165.0,246.5,172.5,248.0,176.5,239.0,173.5,239.0,183.0,240.0,172.0,245.5,176.5,237.5,173.5" stroke="green" stroke-width="1" fill="none" />
<polyline points="233.5,184.0,230.5,188.0,236.5,184.0,227.5,194.0,222.0,198.0,223.5,190.0,217.0,205.5,200.0,215.0,202.5,211.0,202.5,216.5,203.0,219.5,205.5,228.5,206.0,228.5,215.0,236.0,207.5,234.5,213.0,233.0,213.0,234.5,210.0,232.0" stroke="green" stroke-width="1" fill="none" />
<polyline points="212.5,201.5,206.0,203.0,212.5,209.0,219.0,190.5,221.0,188.5,217.5,194.5,227.0,194.0,232.5,181.5" stroke="green" stroke-width="1" fill="none" />
<polyline points="218.5,199.0,209.5,201.5,214.5,202.5,208.0,202.5,209.0,210.5,200.5,204.5,202.0,208.5,207.5,201.5,220.5,200.5,228.0,199.0,226.0,205.5,225.5,196.5,226.5,194.5,225.5,201.5" stroke="green" stroke-width="1" fill="none" />
<polyline points="211.0,200.5,221.0,191.0,226.0,194.5,228.0,194.0" stroke="black" stroke-width="1" fill="none" />
<polyline points="215.0,175.5,218.0,188.0,221.5,186.5" stroke="orange" stroke-width="1" fill="none" />
<polyline points="231.0,169.0,229.5,173.5,223.5,188.0,230.0,191.5,220.5,197.5,206.5,192.0" stroke="orange" stroke-width="1" fill="none" />
<polyline points="" stroke="orange" stroke-width="1" fill="none" />
<polyline points="" stroke="black" stroke-width="1" fill="none" />
<polyline points="194.0,203.5,202.0,199.0,187.5,198.5,190.5,206.5,196.0,196.5,188.5,205.5,186.0,204.5,189.5,198.0" stroke="orange" stroke-width="1" fill="none" />
<polyline points="189.5,197.5,185.5,201.5,185.5,199.0" stroke="green" stroke-width="1" fill="none" />
<polyline points="186.0,203.5,188.5,208.5,195.5,208.0,192.0,223.0,183.5,216.0,188.5,225.5,195.0,218.5,190.0,209.0,183.5,204.0" stroke="black" stroke-width="1" fill="none" />
<polyline points="" stroke="black" stroke-width="1" fill="none" />
<polyline points="180.0,215.5,175.5,212.0,188.5,212.5,181.5,217.0,185.5,218.0,181.5,210.0,185.5,209.5" stroke="orange" stroke-width="1" fill="none" />
<polyline points="" stroke="orange" stroke-width="1" fill="none" />
<polyline points="166.0,213.5,166.5,217.0,161.5,223.5,167.5,226.0,167.5,227.0,166.5,222.0" stroke="yellow" stroke-width="1" fill="none" />
<polyline points="187.0,221.0,179.0,226.5,170.0,222.0,158.5,231.0,180.5,240.5,172.5,238.0,170.5,234.0,171.5,232.5,177.0,233.5" stroke="yellow" stroke-width="1" fill="none" />
<polyline points="161.0,251.5,172.0,246.5,164.0,248.0,165.0,247.5,163.0,247.5" stroke="black" stroke-width="1" fill="none" />
<polyline points="156.5,260.5,154.5,259.0,150.5,272.0,132.5,259.5,134.0,271.5,131.5,277.5,129.0,271.0,124.0,276.5,121.0,264.0,112.5,260.0,126.0,261.0,112.5,263.5" stroke="yellow" stroke-width="1" fill="none" />
<polyline points="113.5,265.5,116.0,267.5,115.5,260.5" stroke="orange" stroke-width="1" fill="none" />
<polyline points="111.0,274.5,117.5,279.5,104.0,284.0,108.5,287.5,107.5,301.5,106.0,300.5,97.5,305.5,85.0,312.0,87.0,310.5,87.0,313.5,81.0,324.0,80.0,324.0,88.0,340.5,83.0,334.0,87.0,340.5,78.5,340.0,83.5,349.0,87.0,345.5,76.0,354.5,77.5,356.0,72.5,358.0,65.0,356.5,72.0,361.0,63.0,358.5,76.5,350.0,73.0,346.0,88.0,333.5,88.0,333.5,92.5,328.5" stroke="black" stroke-width="1" fill="none" />
<polyline points="91.5,326.5,97.5,333.0,96.5,325.0,91.5,333.5,84.5,335.5,85.0,345.5,78.0,340.0,82.5,345.5,77.0,351.5,70.5,357.0,66.0,358.5,57.5,365.5,62.0,364.5,62.0,370.5,70.0,365.5,70.5,355.5,72.5,347.0,80.0,347.5,83.5,346.5,85.5,338.0,78.5,349.0,95.5,343.5,90.5,346.5,81.0,352.0,87.0,360.5,73.0,354.0,84.0,377.0,80.5,366.0,78.5,370.5,84.0,368.5,84.0,372.0,85.0,349.0,85.0,363.0,95.0,346.5" stroke="yellow" stroke-width="1" fill="none" />
<polyline points="105.0,349.0,96.0,354.5,105.0,356.5,101.5,369.5,103.5,365.5,91.5,377.0,102.0,376.0,101.0,374.0,103.5,373.5,104.5,373.0,100.0,373.0" stroke="orange" stroke-width="1" fill="none" />
<polyline points="109.5,372.0,110.0,360.5,103.5,357.0,104.0,359.0,101.0,360.5,98.0,354.0,97.0,357.0" stroke="yellow" stroke-width="1" fill="none" />
<polyline points="105.5,360.0,105.5,362.0,106.5,365.0,114.0,364.5,107.5,363.5,113.0,364.5,111.0,366.0,110.0,362.5" stroke="green" stroke-width="1" fill="none" />
<polyline points="110.5,355.5" stroke="black" stroke-width="1" fill="none" />
<polyline points="120.5,351.5,126.5,357.0,125.0,366.0,135.0,355.0,132.5,370.5" stroke="green" stroke-width="1" fill="none" />
<polyline points="" stroke="yellow" stroke-width="1" fill="none" />
<polyline points="80.5,363.5,85.5,351.0,84.5,348.5,94.0,348.5,74.0,354.0,71.5,355.0,69.0,364.0,77.0,361.5,70.5,378.0,77.0,373.0,77.5,368.0,80.5,368.5,81.5,367.5" stroke="orange" stroke-width="1" fill="none" />
<polyline points="83.5,384.5,80.5,386.0,78.5,380.5,74.0,391.0,70.0,393.5,60.5,389.5,60.5,395.5,51.5,400.0,59.5,405.0,62.0,394.0,74.0,388.0,81.0,384.0,75.0,382.5,80.5,380.5,68.0,382.5,59.0,392.5,67.0,396.0,63.5,390.5,54.5,406.0,68.5,398.5,70.5,396.5,70.0,384.0,82.5,384.0,82.0,382.5,83.0,372.0,93.5,371.5,87.5,367.0,80.5,361.5,91.5,351.0,93.5,356.5,90.0,347.5,95.0,352.0,94.0,357.5,96.0,341.0,99.0,349.5,98.0,346.5,86.5,362.0,94.0,342.5,95.5,339.5,100.0,341.0,101.5,329.5,91.5,327.0,96.0,324.0,96.5,313.5,98.5,319.0,94.5,310.5,99.5,311.5,103.0,305.5,104.0,295.0,108.0,309.5,95.0,315.0,99.5,319.5,98.0,318.5,93.5,313.5,98.5,311.5" stroke="black" stroke-width="1" fill="none" />
<polyline points="86.0,311.0,85.5,311.5,89.5,313.5,87.5,315.0,83.5,306.0,98.5,303.5,98.0,305.0,117.0,290.5,105.0,292.5,107.0,291.0,114.0,288.5,115.0,289.5,116.5,286.0,116.0,281.5" stroke="orange" stroke-width="1" fill="none" />
<polyline points="93.0,299.0,90.5,309.5,86.0,305.5,81.0,305.0,82.5,305.5" stroke="orange" stroke-width="1" fill="none" />
<polyline points="103.0,300.0,86.5,294.0,91.0,301.5,80.0,300.5,80.5,294.5,93.5,296.5,95.0,296.0" stroke="black" stroke-width="1" fill="none" />
<polyline points="88.5,292.0,89.0,291.0,85.5,293.5,94.5,290.0,100.5,295.5,92.0,284.0,104.0,293.0,103.0,288.0,101.5,292.5" stroke="black" stroke-width="1" fill="none" />
<polyline points="106.0,276.5,115.0,274.5" stroke="green" stroke-width="1" fill="none" />
<polyline points="105.0,270.5,111.5,270.0,108.0,270.0,109.0,268.0,103.0,284.0,100.0,281.5,89.5,283.0,82.0,288.0,95.5,288.5,91.5,283.0,105.0,276.5,92.0,281.5,117.0,292.5,109.5,284.5,124.5,291.0,117.0,292.5,123.5,291.0,125.5,288.0" stroke="orange" stroke-width="1" fill="none" />
<polyline points="122.0,282.5,113.5,285.0,108.5,285.5,101.0,291.0,94.0,285.0,101.0,289.5,87.0,293.0,86.0,296.5,94.0,291.5,95.0,292.0" stroke="green" stroke-width="1" fill="none" />
<polyline points="96.5,270.0,99.0,260.5,115.5,259.5,94.5,268.5,95.5,273.0,100.0,283.0,92.0,284.0,90.5,282.0,95.0,271.5,104.5,278.0,97.0,279.0,106.5,279.0,109.5,280.5,110.0,289.0,115.0,276.5,113.5,283.0,134.5,268.5,132.5,266.0,135.0,266.5" stroke="black" stroke-width="1" fill="none" />
<polyline points="130.0,266.5,131.5,267.0,123.0,272.5,118.5,276.5,102.5,289.0,96.0,288.0,97.0,302.0,101.0,293.5,88.0,311.5,77.5,310.5,88.5,306.0,81.5,314.0,72.5,322.0,80.5,318.5,77.5,314.5,79.5,310.5,77.0,312.5" stroke="green" stroke-width="1" fill="none" />
<polyline points="" stroke="orange" stroke-width="1" fill="none" />
<polyline points="130.0,301.5,124.0,311.5,121.5,308.0,118.0,316.5,115.0,311.5,115.5,336.0,108.0,316.5,96.0,326.0,104.0,326.5" stroke="green" stroke-width="1" fill="none" />
<polyline points="70.0,323.5,66.5,321.5,68.0,328.0,63.5,323.5,74.5,330.0,73.0,319.0,71.5,311.5,74.5,313.5,76.5,306.0,75.5,307.0,74.5,310.5,76.0,309.0" stroke="yellow" stroke-width="1" fill="none" />
<polyline points="" stroke="yellow" stroke-width="1" fill="none" />
<polyline points="75.0,312.0,82.0,306.5,90.5,306.0,97.5,297.5,96.5,299.0" stroke="green" stroke-width="1" fill="none" />
<polyline points="93.5,312.5,98.5,322.0,106.5,313.0,103.0,317.5,107.0,304.0,107.0,304.0,102.0,305.5" stroke="yellow" stroke-width="1" fill="none" />
<polyline points="105.0,288.5,109.5,286.0,109.0,288.5,103.0,291.5,102.0,287.0,105.0,286.5,98.0,285.5,104.5,290.5,107.0,292.0,107.0,286.0,108.0,285.5" stroke="orange" stroke-width="1" fill="none" />
<polyline points="110.5,288.0,97.0,292.5,109.0,288.0,109.0,284.5,110.0,283.5" stroke="black" stroke-width="1" fill="none" />
<polyline points="87.5,282.5,93.0,274.5,92.5,279.5" stroke="black" stroke-width="1" fill="none" />
<polyline points="112.5,293.0,121.5,292.5,113.0,292.0,108.5,306.5,102.5,309.5,102.0,307.0,102.5,322.0,95.0,321.0,105.0,327.5,101.5,335.0,99.5,331.0,100.0,344.5,95.5,343.0,100.0,340.0,103.5,338.0,104.0,331.0,113.0,331.0,114.5,318.5,126.5,303.0,114.0,296.5,124.0,295.0,128.0,304.0,128.0,311.5,132.0,312.5" stroke="black" stroke-width="1" fill="none" />
<polyline points="126.5,318.5,132.5,318.5,129.5,320.0,128.5,332.0,137.0,334.5" stroke="orange" stroke-width="1" fill="none" />
<polyline points="120.5,312.5,128.0,314.0,121.5,319.5,130.0,331.0,103.5,328.5,116.0,343.0,107.5,347.0,97.5,340.0,101.0,343.0,93.0,340.5,94.5,349.0,98.0,351.5,91.5,353.0,101.5,360.0,96.5,368.5,94.0,362.5,93.5,369.0,93.5,379.0,94.0,385.5,95.5,384.0" stroke="green" stroke-width="1" fill="none" />
<polyline points="81.5,392.5,75.5,402.5,77.0,403.5,74.5,412.5,63.0,412.0" stroke="orange" stroke-width="1" fill="none" />
<polyline points="" stroke="orange" stroke-width="1" fill="none" />
<polyline points="129.0,294.5,125.5,303.0,115.5,310.0,110.5,314.5,102.5,323.0,116.0,303.0,102.5,302.5,114.5,301.5,118.0,299.5,122.5,294.5" stroke="green" stroke-width="1" fill="none" />
<polyline points="" stroke="yellow" stroke-width="1" fill="none" />
<polyline points="" stroke="yellow" stroke-width="1" fill="none" />
<polyline points="137.5,232.0,142.5,235.5,139.5,245.0,134.0,247.5,147.5,245.5,146.5,242.5" stroke="orange" stroke-width="1" fill="none" />
<polyline points="149.0,245.5,139.5,236.0,131.5,245.5,137.0,249.5" stroke="green" stroke-width="1" fill="none" />
<polyline points="144.0,238.0,131.0,220.0,137.5,224.5,135.0,226.0,142.0,217.5,145.0,218.5,143.5,216.5" stroke="green" stroke-width="1" fill="none" />
<polyline points="148.5,210.0,148.5,213.5" stroke="black" stroke-width="1" fill="none" />
<polyline points="149.5,207.0,150.5,211.0,148.5,209.0" stroke="orange" stroke-width="1" fill="none" />
<polyline points="136.5,193.5,137.0,193.5,130.0,188.0,138.5,196.5,142.0,183.5,150.0,177.0,144.0,175.5,137.0,185.0,139.5,187.5" stroke="green" stroke-width="1" fill="none" />
<polyline points="" stroke="orange" stroke-width="1" fill="none" />
<polyline points="150.5,180.5,150.5,186.5,143.0,187.0,137.5,187.0,134.0,186.0" stroke="yellow" stroke-width="1" fill="none" />
<polyline points="" stroke="green" stroke-width="1" fill="none" />
<polyline points="149.0,192.5,163.0,190.5,141.5,211.0,145.0,214.0,140.5,210.0,144.5,210.5" stroke="green" stroke-width="1" fill="none" />
<polyline points="121.0,194.5,122.0,198.0" stroke="green" stroke-width="1" fill="none" />
<polyline points="113.5,221.5,116.0,222.0,115.5,234.0,109.0,231.5,120.5,229.5,114.5,232.0,117.0,233.0" stroke="black" stroke-width="1" fill="none" />
<polyline points="114.0,231.0,114.0,219.0,114.0,226.0" stroke="green" stroke-width="1" fill="none" />
<polyline points="119.5,257.5,117.5,255.0,108.0,262.0,115.0,256.5,117.0,256.5,125.0,254.5,125.0,254.5,128.0,242.0,138.0,240.0,142.5,233.5,150.0,235.5,159.0,227.0,155.0,226.0,159.0,225.0,158.0,226.0,159.5,230.5" stroke="green" stroke-width="1" fill="none" />
<polyline points="151.5,238.5,136.5,236.0,140.5,242.0,140.0,246.5,132.5,250.0,132.0,261.0,139.5,274.5,142.0,268.5,143.5,265.5,126.5,272.5,131.5,270.5,139.5,276.0,134.5,275.5" stroke="yellow" stroke-width="1" fill="none" />
<polyline points="155.0,252.5,153.0,259.0,153.5,253.0,159.5,251.5,156.0,248.0,159.5,247.5,162.0,249.5" stroke="green" stroke-width="1" fill="none" />
<polyline points="165.0,229.5,166.0,239.5,167.5,224.5" stroke="yellow" stroke-width="1" fill="none" />
<polyline points="164.5,230.0" stroke="yellow" stroke-width="1" fill="none" />
<polyline points="168.0,231.0,164.5,234.0,158.5,242.0,162.5,254.0,157.0,245.5,141.5,251.5,155.0,251.0,156.0,258.0,151.5,263.0,146.5,266.0,130.0,263.0,133.5,277.0,129.5,283.0,129.0,282.0,127.5,286.5,129.5,292.5,125.0,304.0,126.5,306.0,121.0,318.5,126.0,312.0,117.5,324.0,114.5,325.5,122.5,336.5,124.0,332.5,118.5,339.5,118.5,335.0,113.5,334.0,125.0,340.5,137.0,348.0,136.5,349.5,134.5,361.0,135.5,357.0,132.0,357.0,141.5,367.5,138.0,369.5,147.0,371.5,139.5,379.5,145.0,376.0,137.0,392.0,140.5,389.5,147.5,404.5,149.0,389.5,145.5,395.5,143.0,401.0,150.0,406.0,142.5,405.0,153.5,410.5,148.5,415.0,157.0,414.5,164.5,417.5,163.5,418.5" stroke="yellow" stroke-width="1" fill="none" />
<polyline points="160.5,412.0,164.0,411.0" stroke="orange" stroke-width="1" fill="none" />
<polyline points="" stroke="yellow" stroke-width="1" fill="none" />
<polyline points="" stroke="black" stroke-width="1" fill="none" />
<polyline points="196.5,425.0,201.0,420.5,198.0,425.5,194.0,428.0,191.5,431.5" stroke="green" stroke-width="1" fill="none" />
<polyline points="205.0,401.0,203.5,395.0,197.0,405.0,194.5,398.0,199.0,401.5" stroke="yellow" stroke-width="1" fill="none" />
<polyline points="189.0,395.0,191.0,406.5,193.0,404.5,187.5,407.0,182.0,420.0,183.0,414.5,191.0,416.5,187.5,421.5,187.0,431.0,197.5,433.0,180.0,429.0,185.0,437.5,178.5,439.5,192.0,447.5,189.0,439.5,199.0,451.0,200.5,451.5,200.0,448.5" stroke="green" stroke-width="1" fill="none" />
<polyline points="379.5,352.5,374.5,353.5,373.0,344.0,376.5,350.0,378.5,347.0,383.0,343.5,385.5,335.5,376.5,329.5,380.0,322.5,379.5,316.5,376.0,309.5,366.0,316.0,375.0,313.0,379.0,312.5" stroke="orange" stroke-width="1" fill="none" />
<polyline points="374.0,285.0,380.0,278.0,384.5,283.0,381.0,281.0,388.0,275.5,386.5,268.5,385.5,271.5,384.5,266.0,384.5,263.5,388.0,264.0,390.0,264.5" stroke="green" stroke-width="1" fill="none" />
<polyline points="364.5,278.5,373.5,276.5,365.5,275.0,363.0,282.5,367.0,287.5,361.5,285.0,364.0,296.0,368.0,295.5,362.5,306.0,361.5,302.5,355.0,309.0,359.0,310.0,358.5,309.0" stroke="green" stroke-width="1" fill="none" />
<polyline points="339.5,275.0,341.0,272.5,348.5,279.5,344.5,286.0,338.0,280.0,334.5,284.0,323.5,267.0,322.5,264.0,316.0,281.5,323.5,268.5,331.5,274.0,324.5,276.0,325.5,279.5" stroke="orange" stroke-width="1" fill="none" />
<polyline points="322.0,269.5,324.5,267.5,323.0,268.0,330.0,266.0,336.0,274.5,325.0,276.0" stroke="orange" stroke-width="1" fill="none" />
<polyline points="326.0,278.0,330.0,275.5,316.5,269.5,323.0,263.5,327.0,260.0,335.0,253.5,332.5,253.5,331.0,255.0" stroke="orange" stroke-width="1" fill="none" />
<polyline points="364.0,268.5,368.0,273.0,363.5,275.0,358.0,271.0,354.5,275.0" stroke="green" stroke-width="1" fill="none" />
<polyline points="291.0,235.5,283.0,231.0,281.5,226.0,283.0,229.0" stroke="green" stroke-width="1" fill="none" />
<polyline points="272.5,218.0,270.5,197.5,282.0,200.0,271.0,207.5,285.5,201.0,288.5,192.5,288.0,188.0,294.5,182.5,298.0,190.0,301.5,183.5,306.5,184.0,307.5,176.0,309.5,182.5" stroke="green" stroke-width="1" fill="none" />
<polyline points="318.0,172.0,315.5,179.0,301.0,176.5,297.5,177.0,295.0,186.0,295.5,184.5,291.0,194.0,282.5,193.5,283.0,197.5,277.0,195.5,269.5,202.0,262.0,205.0,263.0,213.5,269.5,209.5,266.5,223.5,250.5,222.5,256.0,228.0,248.0,230.0,247.5,237.0,245.5,249.0,233.5,241.0,235.5,250.0,235.0,261.0,224.5,264.5,221.5,259.0,211.5,279.5,206.5,283.0,207.5,289.5,203.5,302.5,194.0,306.0,203.5,326.0,198.0,317.0,199.0,312.5,197.5,313.5,204.5,305.0,197.5,295.5,198.5,295.0,204.0,295.5,213.5,286.5,214.5,289.5,208.5,287.5,216.5,276.0,219.0,281.5,222.0,272.0,222.0,264.5,226.5,262.5,224.0,252.5,226.5,259.5,234.5,246.5,231.5,242.0,239.0,236.5,244.0,235.5,245.5,228.5,255.0,230.0,248.0,225.0,262.0,222.5,259.0,219.0,255.0,202.5,263.5,216.5,263.0,201.0,264.0,200.5" stroke="black" stroke-width="1" fill="none" />
<polyline points="256.5,209.5,256.5,211.5,266.0,206.0,261.5,211.0" stroke="green" stroke-width="1" fill="none" />
<polyline points="" stroke="yellow" stroke-width="1" fill="none" />
<polyline points="212.5,199.0,220.5,182.0,214.0,182.0,225.0,184.0,219.5,181.5,227.0,175.0,231.0,178.5,228.0,184.0" stroke="orange" stroke-width="1" fill="none" />
<polyline points="235.5,172.5,227.0,185.5,211.5,184.0,216.0,181.5,221.5,196.0,200.0,201.0,218.0,191.5,209.0,198.5,220.0,199.0,219.5,198.5,230.5,191.0,234.5,189.5,243.0,192.5,230.0,180.5,227.0,180.5" stroke="orange" stroke-width="1" fill="none" />
<polyline points="254.0,176.5,242.5,179.5,242.0,183.5,238.5,179.0,240.5,175.5,240.5,180.5,249.5,181.5" stroke="black" stroke-width="1" fill="none" />
<polyline points="256.0,179.5,258.0,177.0,248.0,177.0,240.5,180.5,254.0,183.0,241.5,198.0,241.5,200.5,234.0,201.0,236.0,210.0,237.0,215.5,228.0,204.5,242.5,209.0,238.5,207.5,238.5,211.0,238.0,213.5,243.5,215.0,240.0,212.5" stroke="yellow" stroke-width="1" fill="none" />
<polyline points="270.0,188.0,270.0,186.5,260.5,196.5,259.5,193.0,252.5,208.0,248.5,202.5,252.5,202.0,264.0,202.5,250.0,200.0,263.5,202.5,263.0,203.0" stroke="yellow" stroke-width="1" fill="none" />
<polyline points="266.0,187.5,273.5,191.0,262.0,186.5,259.5,185.5,256.0,192.5,254.0,183.5,262.0,184.0,260.0,180.5" stroke="green" stroke-width="1" fill="none" />
<polyline points="252.5,184.5,241.0,191.5,247.0,198.5,248.5,203.5,248.0,192.5,247.5,193.5,248.0,193.0,251.0,187.0,254.0,190.5,257.0,181.5,257.0,186.0,265.0,185.0,262.5,184.5,261.0,178.0" stroke="yellow" stroke-width="1" fill="none" />
<polyline points="260.5,178.5,272.0,177.5,272.0,177.5,279.5,182.0,281.0,174.5,286.5,176.0,285.0,174.0,294.0,179.0,296.5,179.0,290.5,186.0,290.0,193.5,290.0,188.0,275.0,198.5,276.5,192.0,276.5,192.5,270.5,194.0,265.5,197.5,280.5,186.5,278.5,195.5,288.0,185.5,292.0,182.0,288.5,182.5,290.0,179.0,302.5,167.5,308.0,167.0,304.0,173.5,318.5,171.0,314.5,167.5,325.5,169.5,324.5,162.0,335.5,166.0,331.0,157.0,339.0,149.0,334.0,158.0,339.0,152.0,340.0,146.5,339.0,147.0" stroke="orange" stroke-width="1" fill="none" />
<polyline points="304.0,175.0,302.5,177.5,303.0,174.0,299.5,187.0,290.5,193.0,290.5,187.5,282.0,199.5,275.0,194.0,261.5,212.5,268.0,214.0,273.0,203.5,263.0,214.5,261.5,213.0,269.5,216.5,261.0,223.0,269.5,228.5,264.5,232.5,272.0,240.5,269.5,239.0,264.5,241.0,267.5,241.5" stroke="yellow" stroke-width="1" fill="none" />
<polyline points="267.0,191.5,261.0,187.0" stroke="yellow" stroke-width="1" fill="none" />
<polyline points="261.0,163.5,255.0,160.5,257.0,161.0,246.5,161.5,242.5,164.0,248.0,164.0,246.5,159.5,245.5,158.0" stroke="black" stroke-width="1" fill="none" />
<polyline points="" stroke="black" stroke-width="1" fill="none" />
<polyline points="255.0,177.5,254.5,171.5,258.5,175.0,257.5,175.5,264.0,183.5,257.5,181.0" stroke="orange" stroke-width="1" fill="none" />
<polyline points="244.5,140.5,248.0,138.5,253.5,134.5,260.0,128.5,258.5,131.0,263.5,130.0,251.5,137.0,248.0,132.5,254.0,140.0" stroke="black" stroke-width="1" fill="none" />
<polyline points="" stroke="yellow" stroke-width="1" fill="none" />
<polyline points="213.5,153.0,221.0,150.5,222.0,154.0,221.5,152.5" stroke="yellow" stroke-width="1" fill="none" />
<polyline points="216.0,142.0,217.0,140.0,222.5,141.5,215.5,140.5,219.5,140.0" stroke="black" stroke-width="1" fill="none" />
<polyline points="205.5,151.0,200.5,150.0,209.0,141.0,218.0,149.0,212.5,161.0" stroke="green" stroke-width="1" fill="none" />
<polyline points="189.0,164.0,200.5,159.0,211.5,148.5,195.0,158.0,194.5,153.5" stroke="yellow" stroke-width="1" fill="none" />
<polyline points="204.0,163.5,201.0,160.0,201.5,173.5,194.0,182.0,186.0,172.0,184.0,179.0,183.5,181.5,168.0,186.5,178.0,194.0,166.5,190.0,170.0,203.5,160.5,204.5,163.5,195.5,177.0,193.0,183.0,189.5,177.0,178.5,188.5,181.0,182.5,172.5,193.0,169.0,201.0,173.0,204.5,159.5,202.0,165.0" stroke="yellow" stroke-width="1" fill="none" />
<polyline points="210.0,178.5,210.0,181.5,202.0,185.5,210.5,204.0,207.0,199.5,205.0,194.5,197.5,194.5,204.0,195.0" stroke="green" stroke-width="1" fill="none" />
<polyline points="" stroke="black" stroke-width="1" fill="none" />
<polyline points="203.5,138.5,207.5,136.0,217.0,131.0,218.0,134.5,218.0,127.0,225.0,128.0,226.0,124.0" stroke="yellow" stroke-width="1" fill="none" />
<polyline points="212.5,135.5,214.5,145.5,201.0,146.5,208.5,140.5,204.0,134.0,218.5,125.0,219.0,129.5,226.5,121.5,230.5,112.0,240.5,117.0,238.5,124.0,236.0,121.0,234.5,118.0" stroke="yellow" stroke-width="1" fill="none" />
<polyline points="232.0,111.0,228.5,133.5,226.5,127.5,197.5,148.5,194.5,143.0,199.5,148.0,203.5,142.0,195.0,154.5,190.0,159.0,197.5,164.5,172.5,167.0,176.0,169.5,162.5,171.0,160.0,176.0,169.0,180.0,157.0,195.0,152.5,189.5,152.0,190.5,160.5,197.0,148.5,199.0,152.0,203.0,148.5,211.0,146.5,212.5,150.0,215.0,153.0,224.5,139.5,222.5,143.5,225.0,145.0,236.0,140.5,238.0,136.5,244.5,136.0,238.0,128.0,242.5,129.5,253.5,128.0,257.5,129.5,258.0,133.5,260.0,128.0,254.5,128.5,260.5" stroke="black" stroke-width="1" fill="none" />
<polyline points="" stroke="yellow" stroke-width="1" fill="none" />
<polyline points="" stroke="green" stroke-width="1" fill="none" />
<polyline points="152.0,148.5,156.0,137.0,157.5,126.0,161.0,129.5,157.5,117.0,154.0,121.0,159.0,120.5,155.0,124.0" stroke="green" stroke-width="1" fill="none" />
<polyline points="181.5,137.0,177.5,136.0,176.0,139.0,187.0,123.0,188.0,120.0,182.0,124.5,187.5,122.5,185.0,123.5,190.5,120.0" stroke="black" stroke-width="1" fill="none" />
<polyline points="186.0,127.5,189.5,126.0,163.0,122.0,172.0,124.0,171.0,122.0,188.0,123.5,189.5,124.0,189.0,124.0,183.0,116.5,193.5,122.5,194.0,120.0" stroke="green" stroke-width="1" fill="none" />
<polyline points="180.0,137.5,178.0,133.0,185.5,131.5" stroke="orange" stroke-width="1" fill="none" />
<polyline points="" stroke="yellow" stroke-width="1" fill="none" />
<polyline points="203.5,111.5,200.0,110.0,202.5,108.0" stroke="yellow" stroke-width="1" fill="none" />
<polyline points="237.5,128.5,234.0,129.0,230.0,130.5,228.5,131.0,217.5,118.0,220.0,135.0,214.5,138.0,206.0,145.5,204.5,132.5,196.0,147.0,198.0,155.0,199.5,154.0,204.5,147.0,210.5,138.5,216.0,135.5,219.5,135.5,231.0,128.5" stroke="yellow" stroke-width="1" fill="none" />
<polyline points="254.5,129.5,251.0,148.0,257.5,143.5,235.5,156.5,238.5,153.5,236.0,145.5,231.0,146.5,229.5,149.5,224.0,163.5,227.0,149.5,237.5,152.5,239.5,140.5,245.0,139.5,258.5,135.5,266.5,129.0,260.0,131.5,270.5,124.0,272.0,113.0,263.5,114.5" stroke="yellow" stroke-width="1" fill="none" />
<polyline points="286.5,148.0,284.5,154.5,289.5,149.5,291.5,144.0" stroke="green" stroke-width="1" fill="none" />
<polyline points="300.5,141.5,297.5,142.0,300.5,140.5" stroke="yellow" stroke-width="1" fill="none" />
<polyline points="300.5,179.0,299.5,185.5,286.5,186.5,291.5,200.5,283.5,201.5,282.5,207.0,277.0,203.5,277.0,206.5,271.0,210.0,266.5,211.5,273.5,213.0" stroke="orange" stroke-width="1" fill="none" />
<polyline points="233.5,94.5,236.5,102.5,227.0,101.0,225.5,99.5,231.0,105.5,226.5,98.5,238.5,97.5" stroke="green" stroke-width="1" fill="none" />
<polyline points="" stroke="black" stroke-width="1" fill="none" />
<polyline points="246.0,90.0,244.5,94.5,244.0,89.5" stroke="black" stroke-width="1" fill="none" />
<polyline points="260.5,85.0,255.5,90.5,255.0,86.0,253.0,92.5,246.5,95.5,241.0,100.0,238.0,108.0,235.0,106.0,227.5,103.0,233.5,114.0,218.0,118.0,223.5,116.5,223.0,117.0,210.5,115.0,206.5,134.5,205.0,135.0,200.0,133.0,200.5,127.5,187.5,146.5,177.0,149.5,178.0,153.5,176.5,148.5,174.5,150.5,175.5,160.0,171.5,163.0,169.0,160.5,159.0,166.0,164.5,168.0,158.0,170.0,160.5,170.0,172.0,169.0,170.5,163.0,185.0,157.5,180.5,144.0,188.5,137.5,192.5,141.0,193.0,129.5,202.0,142.0,215.5,126.5,216.0,128.0,219.5,121.5,215.0,103.5,220.5,116.5,229.0,105.5,234.5,115.5,237.0,98.0,246.0,98.0,259.0,93.0,266.5,91.5,266.5,88.0,260.5,87.5" stroke="yellow" stroke-width="1" fill="none" />
<polyline points="237.0,85.0,235.0,81.0,231.0,88.5,238.0,88.0,244.5,93.5,235.5,86.5,240.5,84.5" stroke="black" stroke-width="1" fill="none" />
<polyline points="" stroke="yellow" stroke-width="1" fill="none" />
<polyline points="226.0,47.5,238.5,52.0,237.0,51.5,248.0,45.5,253.5,59.0,247.5,47.5,253.5,55.0,256.0,63.0,265.0,52.5,278.5,61.0,276.5,55.5,272.5,71.5,276.5,67.5,281.5,67.0,284.0,73.0,278.0,71.5,295.5,77.5,292.0,82.0,296.5,88.0,307.0,92.5,307.5,99.5,320.5,102.0,313.5,97.5,335.0,117.0,323.5,116.0,334.5,128.0,330.5,122.0,333.0,125.0,339.0,131.0,354.5,142.5,347.0,142.0,355.0,150.0,355.5,147.0,353.0,137.0,367.5,139.0,373.5,141.0,371.0,135.0,381.5,131.5,386.0,128.0,391.0,135.5,396.0,113.5,391.5,116.0,401.5,120.5,400.5,112.0,412.5,108.0,409.0,118.5,420.0,126.0,417.0,112.0,409.5,113.0,412.0,116.0" stroke="yellow" stroke-width="1" fill="none" />
<polyline points="408.0,113.5,410.5,119.0,411.0,129.5,412.0,131.0,415.5,138.5,422.5,132.5,421.0,144.0,421.0,142.5,424.5,148.0,408.5,148.5,414.0,153.0,411.5,159.5,413.0,166.0,409.0,176.0,408.0,175.5,411.0,179.0,396.5,180.0,408.0,175.0,412.0,178.5,398.5,186.0,393.0,187.5,394.5,196.5,376.0,203.5,382.0,205.5,372.0,213.0,374.5,203.0,367.5,214.5,362.0,209.5,373.0,211.5,370.5,204.5,382.5,210.5,384.5,204.5,394.5,201.5,393.5,192.0,394.0,191.5,397.0,190.0,402.5,183.0,406.5,170.0,409.5,178.0,417.5,180.5" stroke="green" stroke-width="1" fill="none" />
<polyline points="364.5,127.0,369.5,124.5,369.0,123.0,362.5,127.0,367.0,122.5,368.0,118.5" stroke="yellow" stroke-width="1" fill="none" />
<polyline points="387.5,109.0,383.0,102.0,388.0,101.5,391.5,112.5" stroke="black" stroke-width="1" fill="none" />
<polyline points="383.0,112.5,389.5,101.0,384.5,98.0" stroke="yellow" stroke-width="1" fill="none" />
<polyline points="426.0,44.5,424.0,47.0,413.5,33.0,417.0,28.0,416.5,21.5,417.5,22.5" stroke="black" stroke-width="1" fill="none" />
<polyline points="512.5,70.5,513.5,79.0,508.5,79.5,504.5,84.5,503.5,86.0,495.5,96.5,485.0,108.0,484.5,107.5,491.0,115.5,480.0,106.0,475.5,115.5,477.0,122.0,476.5,123.0,469.5,126.0,469.5,131.5,468.5,134.5,466.0,137.0,466.5,152.5,458.0,146.0,460.5,155.5,454.0,159.0,451.0,167.0,450.0,168.0,447.5,167.0,445.0,168.5,446.0,177.5,429.0,190.0,434.0,194.5,431.5,188.5,435.0,197.0,430.5,203.5,432.0,209.0,430.5,204.0,417.0,200.5,422.5,216.0,418.5,219.0,421.0,223.0,418.0,229.5,423.5,234.5,414.0,232.0,417.0,239.5,413.0,244.0,403.0,241.0,410.0,250.5,419.5,261.5,401.5,263.0,406.0,260.0,407.5,269.5,405.5,270.0,402.5,276.5,398.5,279.0,403.5,280.0,394.5,290.0,398.5,288.0,406.5,292.0,400.5,300.0,395.0,297.5,395.0,307.5,391.5,308.0,397.5,310.0,391.5,318.0,394.5,314.5,391.0,326.0,390.5,327.0,380.5,340.0,391.5,329.5,391.5,335.5,389.0,335.5,389.5,337.5" stroke="orange" stroke-width="1" fill="none" />
<polyline points="343.5,138.5,344.0,129.0,333.0,136.5,339.0,132.0,336.5,127.5,329.5,119.0,335.0,118.0,322.0,112.0,333.5,106.5,312.5,100.0,311.5,95.0,303.5,91.0,307.0,99.0,303.5,90.0,303.5,84.5,295.5,73.5,293.5,82.5,299.0,75.5,287.0,61.5,274.0,73.5,277.0,64.5,259.5,55.0,269.5,44.5,258.0,51.0" stroke="black" stroke-width="1" fill="none" />
<polyline points="" stroke="yellow" stroke-width="1" fill="none" />
<polyline points="176.0,60.0,158.5,67.0,158.5,63.0" stroke="black" stroke-width="1" fill="none" />
<polyline points="161.0,79.5,152.0,71.0,149.0,77.5,159.0,72.5,162.5,69.0,159.0,78.5,162.5,72.0" stroke="yellow" stroke-width="1" fill="none" />
<polyline points="150.5,74.5,150.5,80.0" stroke="yellow" stroke-width="1" fill="none" />
</svg>