<svg xmlns="http://www.w3.org/2000/svg" width="1024" height="1024" version="1.1" fill="white"><polyline points="410.5,14.5,408.5,8.0,410.5,17.5,410.5,25.0,409.0,24.5,419.5,32.5,423.0,30.5,416.0,29.0,433.0,31.5,429.5,30.0,427.0,53.5,437.0,50.5,435.0,52.0,442.5,63.5,431.0,60.5,434.5,71.5,436.0,70.5,442.5,67.0" stroke="black" stroke-width="1" fill="none" />
<polyline points="443.0,48.5,444.0,47.5,436.0,40.0,435.5,31.0,435.0,23.0,433.5,15.0" stroke="black" stroke-width="1" fill="none" />
<polyline points="426.0,5.0,430.0,15.5,430.5,10.0,436.5,12.5,441.5,22.0,437.0,30.0,440.5,37.5,445.0,37.5,442.5,37.0,449.5,41.0,441.5,40.5,443.0,49.5,456.5,62.0,460.0,65.5,447.0,67.5,456.5,76.5,431.0,68.0,442.0,69.5,432.5,84.0,437.0,82.5,426.5,81.5,434.0,94.5,434.0,96.0,421.0,104.5,425.0,104.0,412.5,104.0,419.5,108.0,414.0,109.0,408.5,111.0,427.5,100.5,433.5,93.0,432.5,84.0,435.0,80.0,440.5,73.5,445.5,78.5,454.0,66.5,445.5,58.0,459.5,50.0,468.5,54.0,467.5,46.5,462.0,42.5,474.5,40.5,478.0,40.0,487.0,23.5,480.5,25.5,492.0,28.5,492.0,14.5,511.5,15.0" stroke="yellow" stroke-width="1" fill="none" />
<polyline points="511.0,15.5,509.0,17.5,495.0,25.0,489.5,27.0,492.0,23.0,483.0,29.0,480.5,32.5,484.5,37.0,469.5,46.5,470.0,36.5,462.5,52.5,466.0,56.5,463.5,56.5,467.5,57.0" stroke="black" stroke-width="1" fill="none" />
<polyline points="502.5,72.0,505.0,87.5,502.5,91.0,499.0,98.0,485.5,96.5,478.5,104.5,479.5,101.0,479.5,108.5,467.0,117.5,466.0,120.0,468.5,123.5,457.0,138.0,458.5,141.0,469.0,143.5,466.0,140.5" stroke="yellow" stroke-width="1" fill="none" />
<polyline points="437.0,165.5,443.5,173.0,430.0,174.0" stroke="yellow" stroke-width="1" fill="none" />
<polyline points="434.0,177.5,439.0,187.5,441.5,178.5,436.5,180.5" stroke="orange" stroke-width="1" fill="none" />
<polyline points="425.5,220.5,426.0,214.5,422.0,226.5,423.0,224.5" stroke="black" stroke-width="1" fill="none" />
<polyline points="417.5,243.0,415.0,230.5,413.5,243.0,415.0,240.5,419.0,250.5,416.5,240.5,407.5,247.0,418.5,244.5,417.0,250.0,417.0,253.0" stroke="green" stroke-width="1" fill="none" />
<polyline points="" stroke="green" stroke-width="1" fill="none" />
<polyline points="388.5,302.5,373.5,291.5,378.0,286.5,382.0,281.0,390.0,275.0,389.5,274.5" stroke="green" stroke-width="1" fill="none" />
<polyline points="373.5,259.5,370.0,257.5,371.5,254.0,372.0,254.5,379.0,243.0,370.5,241.5,368.0,239.0,377.5,231.5,368.5,237.5,376.5,223.5,370.0,225.0,373.0,230.5,370.0,222.0" stroke="green" stroke-width="1" fill="none" />
<polyline points="370.0,246.5,373.0,242.5,375.5,237.5" stroke="yellow" stroke-width="1" fill="none" />
<polyline points="362.5,252.5,375.0,258.0,372.5,263.0,368.5,276.0,368.5,268.0,371.0,274.0,363.5,275.5,368.0,274.5,366.0,276.0,363.0,279.0,363.5,282.5,362.0,283.0" stroke="orange" stroke-width="1" fill="none" />
<polyline points="376.5,285.0,370.5,299.0,376.5,292.5,382.0,287.5,381.0,298.0,372.5,304.0,377.0,314.0,376.5,308.0,379.0,310.0,382.5,321.5,374.5,319.5,385.5,336.5,383.5,339.0,386.0,341.0,383.5,342.0" stroke="green" stroke-width="1" fill="none" />
<polyline points="369.0,358.5,373.0,362.0,377.0,363.0,379.5,365.0" stroke="yellow" stroke-width="1" fill="none" />
<polyline points="368.0,376.5,375.5,380.0,371.0,383.0" stroke="orange" stroke-width="1" fill="none" />
<polyline points="387.5,380.0,384.5,384.5,380.0,391.5,375.5,392.5,379.0,401.5,377.0,399.5,378.0,401.5" stroke="orange" stroke-width="1" fill="none" />
<polyline points="361.5,424.5,358.0,419.5,353.0,415.0,359.0,420.0,345.0,414.5,341.5,403.0,336.5,408.5,336.5,406.5,329.0,404.5,327.5,396.5,320.0,406.5,318.5,388.0,317.5,401.0,312.5,390.5,301.0,399.0,301.5,387.5,301.5,387.5,299.5,389.5,296.5,395.5" stroke="green" stroke-width="1" fill="none" />
<polyline points="313.5,376.0,321.0,361.5,321.5,358.5,322.0,355.5,325.0,338.5,334.0,346.5,331.5,344.5" stroke="yellow" stroke-width="1" fill="none" />
<polyline points="353.5,329.5,350.5,332.0,360.0,330.5,349.5,329.0,350.0,342.0,356.0,334.5" stroke="green" stroke-width="1" fill="none" />
<polyline points="359.5,360.5,356.0,366.0,355.0,372.5,360.0,374.5,353.5,378.5,355.0,382.0,353.5,389.0,356.5,398.5,351.0,385.0,351.0,401.0,348.5,409.0,351.5,409.5,349.5,411.0,360.5,416.0,358.5,418.5" stroke="black" stroke-width="1" fill="none" />
<polyline points="359.5,368.5,362.0,368.5,359.5,371.0,364.5,359.0" stroke="orange" stroke-width="1" fill="none" />
<polyline points="360.5,358.5,359.0,371.0,358.0,375.0,358.0,375.5,357.0,382.5,354.0,382.0" stroke="yellow" stroke-width="1" fill="none" />
<polyline points="364.0,356.5,355.0,365.0,359.0,366.5,355.5,363.5,357.5,374.5,357.0,374.0,357.5,383.5,356.5,380.0,348.5,391.5,348.5,390.5,353.5,398.0,365.5,398.0,356.5,404.0,353.0,410.5,364.0,407.5,364.0,406.5" stroke="black" stroke-width="1" fill="none" />
<polyline points="376.5,457.5,369.0,461.0,373.0,456.0,374.5,452.0,377.0,449.0,377.0,438.0,370.0,442.0,370.0,429.5,372.0,428.0,380.0,433.0,381.0,423.0,380.5,417.5,377.0,413.5,374.0,409.0,381.5,403.0,375.0,397.0,372.0,400.5,381.0,388.5,383.5,394.0,375.0,384.0,388.5,376.5,373.0,370.0,381.5,374.5,378.0,368.5,383.0,367.0,389.0,364.0,371.0,357.0,375.0,347.5,381.0,351.5,374.5,345.5,373.5,347.0,370.0,336.5,379.0,334.5,373.5,333.5,372.0,324.0,371.0,322.5,379.5,328.0,374.5,315.5,372.5,309.5,372.5,299.5,378.5,316.5,376.0,303.0,375.5,290.5,372.0,293.5,370.5,282.5,371.0,277.0,376.5,278.0,363.0,269.0,368.0,266.0,373.5,267.5,373.0,261.0,367.0,261.0,358.0,258.0,366.5,252.5,367.5,245.5,369.5,241.5,366.0,233.0,361.0,226.0,366.0,229.5,358.5,221.5,356.5,217.5,359.5,223.0,359.0,210.5,362.0,207.5,349.5,206.0,347.0,203.5,344.0,201.5,342.0,205.0" stroke="black" stroke-width="1" fill="none" />
<polyline points="" stroke="black" stroke-width="1" fill="none" />
<polyline points="" stroke="yellow" stroke-width="1" fill="none" />
<polyline points="" stroke="black" stroke-width="1" fill="none" />
<polyline points="358.5,200.0,358.5,202.5,369.0,205.0" stroke="black" stroke-width="1" fill="none" />
<polyline points="" stroke="green" stroke-width="1" fill="none" />
<polyline points="357.0,215.5" stroke="black" stroke-width="1" fill="none" />
<polyline points="342.5,206.0,337.5,206.0,332.0,203.0,333.5,194.0,333.0,196.0" stroke="black" stroke-width="1" fill="none" />
<polyline points="343.0,222.0,360.0,204.5,364.0,221.0,354.5,222.5,362.0,236.5,364.5,234.5,366.0,239.0,372.0,245.0,365.0,251.0,368.0,251.0,375.5,253.5,365.5,255.5" stroke="orange" stroke-width="1" fill="none" />
<polyline points="367.0,239.5,366.0,240.5,367.5,242.0,364.5,243.5,364.0,244.5,363.5,247.0,368.5,243.5" stroke="orange" stroke-width="1" fill="none" />
<polyline points="344.5,237.5,348.0,247.0,348.5,240.0,354.5,239.5" stroke="black" stroke-width="1" fill="none" />
<polyline points="340.0,252.5,339.5,251.5,340.5,255.5,339.0,253.5,334.5,253.0,334.0,258.0,330.0,258.0,331.0,258.5,328.5,259.5,327.5,255.5" stroke="orange" stroke-width="1" fill="none" />
<polyline points="334.5,253.5,343.0,242.0,342.0,252.0,350.0,255.5,353.0,241.5,346.0,243.5,341.5,240.5" stroke="yellow" stroke-width="1" fill="none" />
<polyline points="" stroke="green" stroke-width="1" fill="none" />
<polyline points="" stroke="yellow" stroke-width="1" fill="none" />
<polyline points="347.0,276.5,353.5,288.5,351.0,283.0,353.0,297.0,349.5,293.0,345.5,295.5,353.5,302.5,351.0,309.0,341.5,309.0,346.5,313.0,342.0,319.5,333.5,324.0,346.0,324.0,340.5,324.0,336.0,334.5,332.5,340.5,329.5,336.0,327.0,344.5,329.0,353.5,325.5,360.0,324.0,355.5,313.0,368.0,315.0,369.5,318.0,370.0,321.0,369.5,318.5,382.0,312.5,381.0,316.5,381.5,315.0,396.0,316.0,389.0,326.5,409.0,340.5,405.0,345.5,408.0,345.0,418.5,354.5,413.5,356.0,419.5,359.5,425.5,357.5,430.5,354.5,436.0,363.5,436.5,359.5,431.0,367.5,442.0,360.0,446.0,371.5,454.0,374.0,452.5,363.0,467.0,378.5,466.5,370.0,479.5,370.5,477.5,374.5,474.0,374.5,478.5,375.0,480.5,375.5,490.0,381.5,488.5,380.0,494.5,379.0,503.5,382.5,492.0,382.0,503.5,386.0,511.0,393.5,510.0,385.0,518.0,395.5,528.0,393.5,514.0,394.0,515.5" stroke="black" stroke-width="1" fill="none" />
<polyline points="432.5,492.0,435.5,487.0,428.5,485.0,441.5,482.5,441.0,482.5,450.0,475.0,447.5,465.0,456.5,463.5,456.5,463.5,455.5,463.0,453.0,466.5,448.0,463.5" stroke="black" stroke-width="1" fill="none" />
<polyline points="448.0,481.0,451.0,472.5,444.0,474.5,452.0,471.5,448.0,467.0,451.5,462.0,452.5,463.0,457.0,469.0,458.0,466.5" stroke="orange" stroke-width="1" fill="none" />
<polyline points="456.0,449.5,461.5,441.5" stroke="black" stroke-width="1" fill="none" />
<polyline points="472.0,422.5,475.0,405.0,478.5,413.5,482.0,403.5,484.0,410.5,490.0,398.5,485.5,394.0,496.0,387.0,494.5,386.0,505.5,391.0,502.0,382.0,514.0,377.5,507.5,380.5,513.0,376.5" stroke="green" stroke-width="1" fill="none" />
<polyline points="514.5,386.0,513.0,383.0,511.5,380.5,515.0,381.0,506.0,386.0,499.0,381.5,492.5,396.0,494.5,406.0,488.5,409.5,477.0,409.0,477.5,411.0,472.0,418.5,472.0,427.5,470.5,420.0,464.0,429.5,465.0,426.5,456.0,432.0,458.5,436.0,447.0,440.0,463.0,441.5,461.0,449.5,455.0,457.0,454.0,457.5,452.5,454.5,446.5,471.0,445.5,483.5,447.5,473.5,448.0,480.0,447.0,486.0,441.0,478.5,438.0,481.0" stroke="yellow" stroke-width="1" fill="none" />
<polyline points="428.5,486.5,442.5,476.0,439.5,471.0,442.0,465.5,446.0,464.0,441.5,458.0,446.5,462.5" stroke="orange" stroke-width="1" fill="none" />
<polyline points="436.5,454.0,425.5,449.5,428.5,457.5,435.5,443.5,443.5,442.5,439.5,440.5,437.5,427.0,429.5,426.0,429.5,436.0,431.5,435.5,435.5,427.0,429.5,429.0,431.0,431.0" stroke="green" stroke-width="1" fill="none" />
<polyline points="428.5,472.0,427.5,474.0,427.0,475.0,423.0,472.0,427.0,476.0,423.5,485.0,426.5,481.5,424.0,480.5" stroke="yellow" stroke-width="1" fill="none" />
<polyline points="420.0,468.5,426.0,470.5,422.0,468.5,421.0,475.5,426.0,474.5,428.0,467.5,438.5,456.0,432.0,460.5,434.0,463.0,433.0,468.0,433.5,466.5" stroke="orange" stroke-width="1" fill="none" />
<polyline points="481.0,410.5,487.5,407.0,479.5,392.0,480.0,395.0,482.5,395.0" stroke="yellow" stroke-width="1" fill="none" />
<polyline points="448.5,430.0,445.0,426.0,447.5,420.5,444.5,416.5,449.0,410.5,445.0,408.0,449.5,404.0,455.5,392.5,456.0,390.5,455.0,382.0,453.5,386.0,455.0,378.0,446.5,382.5,448.0,373.5,461.0,369.0,452.0,356.5" stroke="orange" stroke-width="1" fill="none" />
<polyline points="382.5,341.0,393.5,335.5,381.0,333.0,371.5,323.0,382.5,325.5,379.5,326.0" stroke="yellow" stroke-width="1" fill="none" />
<polyline points="365.5,363.5,373.5,369.5,363.5,362.5,371.5,378.5,369.0,392.0,362.0,386.0,372.0,386.5,371.5,386.0,375.5,391.0,379.0,390.0,377.5,383.5,373.5,387.5,375.0,387.5,376.0,389.5" stroke="orange" stroke-width="1" fill="none" />
<polyline points="324.0,341.5,332.0,339.5,333.0,342.0" stroke="green" stroke-width="1" fill="none" />
<polyline points="" stroke="green" stroke-width="1" fill="none" />
<polyline points="300.5,352.5,300.5,355.5,298.0,351.0,293.5,359.5,296.5,357.5,298.0,354.0" stroke="orange" stroke-width="1" fill="none" />
<polyline points="315.5,354.5,314.5,359.5,306.0,362.5,310.0,366.0,297.0,365.5,305.5,364.5,301.5,360.0,304.0,360.0" stroke="green" stroke-width="1" fill="none" />
<polyline points="307.5,349.5,298.5,350.0,298.0,348.0,300.5,351.5,300.5,358.0,298.0,359.0" stroke="orange" stroke-width="1" fill="none" />
<polyline points="306.5,324.5,312.0,328.5,313.0,322.5,305.0,329.5,307.0,333.5,305.0,328.0,309.0,333.5,308.0,338.5,306.5,339.5,305.0,336.5" stroke="green" stroke-width="1" fill="none" />
<polyline points="314.0,316.0,311.5,317.0,314.0,325.0,297.0,332.5,293.5,341.0,296.0,342.0,295.0,339.5,295.5,339.0" stroke="yellow" stroke-width="1" fill="none" />
<polyline points="293.0,320.0" stroke="green" stroke-width="1" fill="none" />
<polyline points="317.0,335.5,315.0,334.0,328.5,321.5,326.0,322.5,324.5,327.0,327.5,312.0,320.0,309.0,326.0,315.5,323.5,300.0,322.0,299.0,322.5,305.0,321.5,304.5,321.5,306.0" stroke="black" stroke-width="1" fill="none" />
<polyline points="" stroke="green" stroke-width="1" fill="none" />
<polyline points="329.5,269.0,341.0,267.0,338.5,267.0,335.0,264.0,326.0,262.0,327.0,256.0,332.0,260.5,334.5,262.0" stroke="green" stroke-width="1" fill="none" />
<polyline points="318.0,268.5,329.5,265.5,329.0,269.5,327.5,273.0,328.0,275.0,330.0,265.5,333.5,265.0,320.5,278.5,334.0,250.5,329.0,254.0" stroke="black" stroke-width="1" fill="none" />
<polyline points="" stroke="orange" stroke-width="1" fill="none" />
<polyline points="" stroke="yellow" stroke-width="1" fill="none" />
<polyline points="339.5,266.0,344.5,255.5,339.5,263.0,341.0,254.0,343.5,261.0,350.5,254.5,347.0,253.0" stroke="orange" stroke-width="1" fill="none" />
<polyline points="351.5,236.5,349.5,229.0,343.0,220.5,336.5,215.0,340.0,215.0,339.5,213.5,334.5,215.0" stroke="black" stroke-width="1" fill="none" />
<polyline points="340.0,190.5,341.5,194.0,343.0,200.0,352.5,197.0,350.5,197.5,360.0,191.5,357.0,192.0,367.0,185.5,375.5,184.5,377.5,179.0,381.0,189.5,375.0,189.0,391.5,187.5,389.0,175.5,393.0,174.0,388.5,170.5,391.0,180.5,405.0,164.5,408.0,176.0,402.5,177.0,394.5,191.5,394.0,187.5,390.5,190.0,383.5,194.5,381.0,199.5,390.5,188.0,391.0,184.5,394.0,176.0,403.0,175.5" stroke="green" stroke-width="1" fill="none" />
<polyline points="407.0,164.5,391.0,171.0,384.5,173.0,386.0,175.5" stroke="black" stroke-width="1" fill="none" />
<polyline points="367.5,183.0,351.5,196.5,349.5,188.0,344.5,190.5,336.0,194.0" stroke="yellow" stroke-width="1" fill="none" />
<polyline points="325.0,203.0,330.5,212.5,340.5,206.5,330.5,209.5,331.5,208.0,331.5,209.5" stroke="orange" stroke-width="1" fill="none" />
<polyline points="" stroke="black" stroke-width="1" fill="none" />
<polyline points="349.0,207.5,352.5,216.0,353.0,218.0,359.0,214.5,359.0,212.5" stroke="yellow" stroke-width="1" fill="none" />
<polyline points="355.0,206.0,349.5,207.0,345.5,200.0,346.0,202.5,345.0,203.5,345.5,207.0" stroke="green" stroke-width="1" fill="none" />
<polyline points="344.0,196.0,344.5,204.5,350.0,207.5,351.5,205.5" stroke="green" stroke-width="1" fill="none" />
<polyline points="" stroke="yellow" stroke-width="1" fill="none" />
<polyline points="340.5,204.0,343.0,204.0,346.0,204.5,344.0,205.0,352.5,207.5,349.0,211.0" stroke="yellow" stroke-width="1" fill="none" />
<polyline points="" stroke="black" stroke-width="1" fill="none" />
<polyline points="370.0,195.0,370.0,191.5,373.0,194.5,368.5,200.5" stroke="green" stroke-width="1" fill="none" />
<polyline points="390.0,162.5,375.0,161.5,387.5,160.5,382.0,176.0,381.0,175.0,390.0,177.0,387.0,155.5,388.5,157.5,393.5,151.5" stroke="black" stroke-width="1" fill="none" />
<polyline points="391.5,168.0,393.5,168.0,398.0,164.0,411.5,160.0,391.5,176.0,395.5,172.0,385.0,171.5,399.5,174.0,402.5,159.5" stroke="green" stroke-width="1" fill="none" />
<polyline points="394.0,131.5,394.5,128.5,392.5,129.0,380.0,133.0,381.5,138.5,390.5,134.5,391.0,133.5,394.5,126.0,390.0,124.5" stroke="black" stroke-width="1" fill="none" />
<polyline points="387.5,123.5,378.5,132.0,384.0,129.0,381.5,130.0,391.5,124.5,400.5,123.0,400.0,116.0" stroke="orange" stroke-width="1" fill="none" />
<polyline points="395.0,113.5,394.0,119.0,388.5,123.5,386.5,130.0,373.5,133.0,359.5,139.0,354.0,144.0,361.0,141.0,352.0,137.5,360.0,132.5,357.5,134.5" stroke="orange" stroke-width="1" fill="none" />
<polyline points="335.0,147.5,314.0,151.5,321.5,157.0,308.5,150.0,307.5,167.0,304.5,167.5,307.5,166.0" stroke="orange" stroke-width="1" fill="none" />
<polyline points="" stroke="black" stroke-width="1" fill="none" />
<polyline points="284.0,173.0,279.0,169.5,280.0,180.0,286.0,175.0,283.5,180.0,288.0,181.5" stroke="orange" stroke-width="1" fill="none" />
<polyline points="" stroke="black" stroke-width="1" fill="none" />
<polyline points="280.0,183.5,275.0,172.0,277.0,171.0,273.0,174.0" stroke="green" stroke-width="1" fill="none" />
<polyline points="257.0,180.0,265.5,177.5,247.5,178.0,243.0,168.5" stroke="orange" stroke-width="1" fill="none" />
<polyline points="237.5,158.5,238.5,163.0,245.5,164.0,249.5,166.0,255.0,164.5,246.5,176.5,257.5,181.5,253.0,180.5,250.5,186.5,244.0,190.0,239.5,193.5,242.0,190.5,238.5,204.0,235.0,209.5,240.0,202.5,239.5,217.0,243.5,204.0,247.5,218.0,260.5,204.0,252.0,212.0,255.5,203.0,251.0,215.0,250.5,217.0,255.0,223.5,239.5,222.0,242.0,238.0,240.5,231.0,236.0,232.0,239.5,246.5,228.0,244.0,230.5,251.5,220.5,251.0,219.0,255.0,218.0,260.0,221.5,267.0,215.5,272.0,210.5,276.5,206.0,278.5,206.0,285.0,204.0,291.0,207.0,299.0,198.5,305.0,195.0,295.0,193.5,305.0,205.0,307.0,196.5,319.5,192.0,306.0,196.5,313.0,181.5,313.5,183.0,323.5,179.0,326.5,173.0,333.0,165.0,333.0,168.5,338.0,162.0,343.5,167.0,338.5" stroke="orange" stroke-width="1" fill="none" />
<polyline points="156.5,352.0,159.5,346.5,162.5,362.5,149.5,363.5,155.0,364.5,143.5,377.0,156.5,376.5,163.0,369.5,150.0,383.0,157.5,384.0,155.5,392.5,160.5,399.5,146.0,391.5,151.5,409.0,162.0,401.0,163.5,413.5,162.5,407.5,152.5,414.0,164.0,408.5" stroke="green" stroke-width="1" fill="none" />
<polyline points="165.5,408.0,169.0,405.5,164.0,407.5,164.0,410.0,159.0,414.5,163.5,416.0" stroke="black" stroke-width="1" fill="none" />
<polyline points="170.5,413.5,168.0,411.5,164.0,417.5,166.0,418.0,169.0,417.5,170.5,424.5,170.0,421.0,173.5,427.0,174.5,421.0" stroke="orange" stroke-width="1" fill="none" />
<polyline points="" stroke="orange" stroke-width="1" fill="none" />
<polyline points="190.0,443.0,183.0,434.5,183.5,439.5,184.0,442.0,188.5,440.0,196.0,433.5" stroke="black" stroke-width="1" fill="none" />
<polyline points="" stroke="yellow" stroke-width="1" fill="none" />
<polyline points="" stroke="yellow" stroke-width="1" fill="none" />
<polyline points="" stroke="yellow" stroke-width="1" fill="none" />
<polyline points="182.0,464.0,178.0,462.0,167.5,467.0,170.0,472.5,166.5,466.0,161.5,472.5,161.5,470.5" stroke="black" stroke-width="1" fill="none" />
<polyline points="149.0,478.5,159.0,474.5,150.0,473.5,130.5,452.0,132.0,455.5,140.5,454.5,139.5,453.5" stroke="orange" stroke-width="1" fill="none" />
<polyline points="146.0,471.5,145.0,466.5,139.0,481.0,153.5,479.0,162.0,484.0,152.0,478.0,152.0,476.0,156.0,488.0,163.0,500.5,164.5,495.5,160.0,495.5,160.0,495.5" stroke="black" stroke-width="1" fill="none" />
<polyline points="169.5,504.5,165.5,501.0,166.5,502.0,169.0,502.0,164.5,499.5" stroke="green" stroke-width="1" fill="none" />
<polyline points="170.0,505.0,173.0,503.5,170.5,501.0,163.0,507.5,156.5,508.0,157.5,498.0,153.5,500.5,150.5,489.5,139.0,490.5,139.5,483.5" stroke="yellow" stroke-width="1" fill="none" />
<polyline points="143.0,501.0,147.0,504.0,149.5,500.0,149.5,496.5" stroke="green" stroke-width="1" fill="none" />
<polyline points="" stroke="orange" stroke-width="1" fill="none" />
<polyline points="" stroke="yellow" stroke-width="1" fill="none" />
<polyline points="" stroke="green" stroke-width="1" fill="none" />
<polyline points="148.5,487.0,156.5,488.0,159.0,488.0" stroke="black" stroke-width="1" fill="none" />
<polyline points="158.5,496.0,155.5,500.5,162.0,500.0,155.0,512.5,157.5,513.5,161.0,503.5,157.5,504.5,158.5,510.5" stroke="yellow" stroke-width="1" fill="none" />
<polyline points="143.0,498.5,143.5,493.0,141.0,482.0,137.5,480.5,142.0,481.0,147.0,489.0,143.5,486.0,139.0,482.0" stroke="black" stroke-width="1" fill="none" />
<polyline points="144.0,492.5,147.5,497.5,149.5,504.0,146.0,499.5,147.5,502.0,147.0,507.5,150.5,510.0,145.0,508.5,145.5,509.0" stroke="green" stroke-width="1" fill="none" />
<polyline points="" stroke="yellow" stroke-width="1" fill="none" />
<polyline points="151.0,517.5,149.0,517.5" stroke="orange" stroke-width="1" fill="none" />
<polyline points="131.5,518.5,134.5,512.5,141.5,514.0,137.5,506.0,133.5,498.5" stroke="orange" stroke-width="1" fill="none" />
<polyline points="141.5,483.5,139.0,499.5,131.0,501.0,137.0,497.0,137.5,490.5,138.5,486.5" stroke="green" stroke-width="1" fill="none" />
<polyline points="" stroke="green" stroke-width="1" fill="none" />
<polyline points="120.5,511.5" stroke="orange" stroke-width="1" fill="none" />
<polyline points="112.0,513.0,120.0,510.0,115.0,510.5,124.0,509.5,119.5,486.0,125.5,496.0,124.0,486.5,121.5,487.5,122.5,487.0" stroke="black" stroke-width="1" fill="none" />
<polyline points="128.0,503.5,131.5,498.5,119.5,496.0" stroke="orange" stroke-width="1" fill="none" />
<polyline points="134.0,514.5,133.5,516.0,127.5,512.0,129.5,503.0,123.0,504.5" stroke="yellow" stroke-width="1" fill="none" />
<polyline points="138.0,476.0,134.0,484.0" stroke="orange" stroke-width="1" fill="none" />
<polyline points="128.5,484.0,137.0,493.5,135.0,492.0,137.0,508.0,129.5,501.5,141.5,506.0,144.0,508.5,140.0,506.5" stroke="yellow" stroke-width="1" fill="none" />
<polyline points="" stroke="green" stroke-width="1" fill="none" />
<polyline points="" stroke="yellow" stroke-width="1" fill="none" />
<polyline points="172.5,479.5" stroke="green" stroke-width="1" fill="none" />
<polyline points="" stroke="yellow" stroke-width="1" fill="none" />
<polyline points="158.0,459.5,173.5,469.5,169.5,465.5,169.5,477.5,158.0,476.5,160.5,476.5,171.5,498.5,171.0,484.5,173.5,484.0" stroke="green" stroke-width="1" fill="none" />
<polyline points="193.0,484.0,191.0,485.5,211.5,486.0,201.5,490.0,202.0,485.5,207.0,486.5,211.0,479.0,217.0,478.0,222.0,480.5,226.0,476.5,228.0,476.5" stroke="yellow" stroke-width="1" fill="none" />
<polyline points="236.0,466.0,236.5,465.0,228.0,455.0" stroke="orange" stroke-width="1" fill="none" />
<polyline points="218.0,476.0,218.0,480.5,217.0,475.5,213.0,476.5,226.0,469.0,218.5,454.5,234.5,455.0,231.5,451.0,229.5,444.0,237.5,443.0,232.0,438.0,232.0,436.0,245.5,433.5,232.0,428.5,245.0,426.0,231.5,418.0,228.0,417.0,233.0,410.5,235.5,407.5,228.0,400.5,228.5,409.0" stroke="orange" stroke-width="1" fill="none" />
<polyline points="221.5,409.5,228.0,408.5,229.5,417.5,224.0,408.0" stroke="orange" stroke-width="1" fill="none" />
<polyline points="220.0,411.0,225.5,420.5,230.0,428.0,220.0,424.5,225.0,415.5,224.0,417.0,224.0,416.5,230.0,413.0" stroke="orange" stroke-width="1" fill="none" />
<polyline points="250.5,418.0,247.0,425.0,242.5,424.5,236.5,423.5,232.0,432.0,237.5,435.0,243.5,444.5,239.0,445.0,247.0,450.5,235.0,456.0,239.0,455.5,229.5,461.0,236.5,474.5,230.0,465.5,222.5,473.5,224.5,480.0,225.0,480.5,213.5,488.5,219.5,486.0,216.0,488.0" stroke="black" stroke-width="1" fill="none" />
<polyline points="195.5,491.5,215.0,492.5,201.5,497.5,210.0,491.5,223.5,486.5,220.5,492.0,225.0,485.5,226.5,482.5,237.5,475.5,243.0,480.5,246.5,479.0,244.5,478.5" stroke="orange" stroke-width="1" fill="none" />
<polyline points="201.5,447.0,203.5,447.0,199.0,446.5,179.5,443.0" stroke="black" stroke-width="1" fill="none" />
<polyline points="182.5,450.0,184.0,453.5,194.0,451.0,183.5,450.0,187.5,448.0,196.0,442.0,182.5,429.0,172.5,426.5,182.0,429.0,184.5,424.5,182.5,424.5,182.0,425.0,183.0,414.0,175.5,414.5,184.0,410.5,166.5,401.5,165.5,401.0,162.5,389.0,164.0,397.0,155.0,387.5,166.5,385.0,167.0,386.0" stroke="orange" stroke-width="1" fill="none" />
<polyline points="160.0,369.5,159.0,370.5,177.5,369.5,172.0,352.0,182.5,347.5,189.0,338.0,189.0,340.5,194.0,330.5,196.5,327.5,200.0,321.5,190.5,328.5" stroke="yellow" stroke-width="1" fill="none" />
<polyline points="200.5,321.5,199.5,315.0" stroke="black" stroke-width="1" fill="none" />
<polyline points="183.5,315.0,179.5,323.0,187.5,320.0,194.0,307.5,195.5,304.0,203.5,291.0,203.0,289.5,209.5,281.0,214.5,273.5,225.5,261.0,226.0,261.0,228.5,250.0,239.0,250.0,233.5,243.0,247.0,231.5,238.5,223.5,249.0,225.0,251.0,220.0,263.0,218.0" stroke="orange" stroke-width="1" fill="none" />
<polyline points="264.5,225.5,269.0,224.5,270.0,231.0" stroke="black" stroke-width="1" fill="none" />
<polyline points="273.0,231.0,275.0,236.5,271.5,231.5,262.5,246.0,258.0,241.5" stroke="black" stroke-width="1" fill="none" />
<polyline points="263.5,232.5,268.5,235.5,268.0,232.0,266.5,239.0,266.0,225.0,271.5,226.5,265.5,232.5,255.5,234.5,256.0,230.5,264.0,232.5,246.5,245.5,247.5,239.5,233.5,250.0,248.5,261.5,225.5,270.5,223.5,275.5,217.5,285.5,219.5,281.0,224.5,290.5,230.5,276.0,229.5,269.0,232.0,268.5,227.0,270.5,236.5,263.0,232.5,260.5,240.5,251.0,226.5,248.0,250.5,241.5,248.0,238.5,256.0,242.5,254.5,222.0,266.0,223.5,264.0,222.0,262.0,218.0,257.0,215.5,261.0,219.0,271.0,220.5,268.0,205.0,280.0,204.0,272.5,204.5,275.5,199.5,263.0,190.5,273.0,188.0,264.5,191.0,268.0,197.5,259.5,210.5,272.5,206.0,262.5,205.5,258.5,211.5,267.5,196.0" stroke="green" stroke-width="1" fill="none" />
<polyline points="250.0,196.0,251.5,196.5" stroke="black" stroke-width="1" fill="none" />
<polyline points="242.5,205.5,255.0,218.5,251.5,217.0,252.0,225.5,234.0,232.5,239.0,229.5,227.0,238.0,226.0,236.0,219.5,239.5,223.0,232.5,228.5,232.0,222.5,228.0,228.0,217.5,219.0,226.0,211.5,218.0,218.5,221.5,229.5,208.0,222.0,212.0,222.5,206.5,218.0,202.0,220.5,204.5" stroke="orange" stroke-width="1" fill="none" />
<polyline points="240.5,204.0" stroke="yellow" stroke-width="1" fill="none" />
<polyline points="" stroke="yellow" stroke-width="1" fill="none" />
<polyline points="" stroke="yellow" stroke-width="1" fill="none" />
<polyline points="247.0,208.5,253.0,197.5,261.5,186.5,264.5,186.5,255.0,179.5,246.0,196.0,242.5,194.5,254.5,190.5,267.5,186.5,259.0,189.5,257.0,188.0,266.5,182.0,265.5,174.0,275.0,184.5,277.0,185.5,273.0,174.5,277.5,179.0,281.5,175.0" stroke="yellow" stroke-width="1" fill="none" />
<polyline points="250.0,189.5,252.0,195.5,256.0,192.5,249.5,202.0,250.0,202.0,246.5,199.0,237.0,201.0,247.0,206.0,255.0,205.0,242.0,194.5,254.5,193.5,263.0,196.5,253.5,187.0,261.5,178.0,272.5,197.5,271.0,196.5,272.0,197.5,273.0,193.0" stroke="green" stroke-width="1" fill="none" />
<polyline points="265.5,208.0,263.0,209.0,256.0,206.5,267.0,192.5,263.0,191.0,269.5,185.0,272.0,187.5,278.0,187.0,274.5,192.5,275.0,188.5" stroke="green" stroke-width="1" fill="none" />
<polyline points="261.5,189.0,256.0,193.5,253.0,198.0,244.5,209.5,248.5,213.5,249.0,211.0" stroke="yellow" stroke-width="1" fill="none" />
<polyline points="274.0,205.0,257.5,203.5,262.0,210.5,260.5,208.5,261.0,216.5,264.0,215.5,256.0,223.5,247.5,217.0,243.5,231.5,244.5,228.0,240.0,245.0" stroke="yellow" stroke-width="1" fill="none" />
<polyline points="" stroke="black" stroke-width="1" fill="none" />
<polyline points="" stroke="green" stroke-width="1" fill="none" />
<polyline points="219.0,221.5,229.0,229.0" stroke="orange" stroke-width="1" fill="none" />
<polyline points="216.0,232.5,219.5,236.0" stroke="yellow" stroke-width="1" fill="none" />
<polyline points="230.0,232.5,223.0,235.5,232.5,244.0,219.0,232.0,225.5,248.0" stroke="orange" stroke-width="1" fill="none" />
<polyline points="225.5,230.5,215.5,229.0,209.5,230.0,212.0,224.5,212.5,222.0,214.5,228.0,207.0,229.5" stroke="orange" stroke-width="1" fill="none" />
<polyline points="225.5,235.5,214.0,230.0,220.5,238.0,222.5,233.5,229.0,245.5,224.0,248.0,232.0,249.0,231.5,249.5" stroke="black" stroke-width="1" fill="none" />
<polyline points="223.0,251.5,221.5,266.5,221.0,269.5,212.0,273.0,207.5,288.5,196.0,288.5,197.0,287.5,193.5,302.0,186.0,315.0,187.5,318.0,183.5,330.5,180.0,326.5,171.0,327.5,174.0,331.0,164.5,336.5,154.0,333.0,155.0,336.5,153.0,341.0,142.5,353.5,140.0,349.5" stroke="orange" stroke-width="1" fill="none" />
<polyline points="142.0,344.5,147.0,338.0,146.5,342.0,155.5,339.5,147.0,329.0,154.5,328.0,147.0,324.5" stroke="green" stroke-width="1" fill="none" />
<polyline points="155.0,326.5,155.5,330.5,158.0,337.5" stroke="orange" stroke-width="1" fill="none" />
<polyline points="147.5,352.0,149.5,348.5,143.5,354.0,149.5,354.5" stroke="yellow" stroke-width="1" fill="none" />
<polyline points="131.0,350.0,136.0,335.0,143.5,340.0,131.5,339.5,138.0,327.5,133.5,326.5,136.0,320.0,137.5,319.5,129.0,315.0,132.5,317.5,129.0,310.5" stroke="green" stroke-width="1" fill="none" />
<polyline points="134.0,298.5,130.5,297.5,127.5,295.5" stroke="green" stroke-width="1" fill="none" />
<polyline points="135.5,309.5" stroke="yellow" stroke-width="1" fill="none" />
<polyline points="116.5,288.5,135.0,295.5,136.5,289.5" stroke="orange" stroke-width="1" fill="none" />
<polyline points="130.5,274.0,138.5,278.5,143.0,272.5" stroke="yellow" stroke-width="1" fill="none" />
<polyline points="150.0,267.0,157.0,264.5,158.0,267.0,160.0,264.5" stroke="orange" stroke-width="1" fill="none" />
<polyline points="152.0,270.0,155.0,274.5,156.0,268.0,159.5,272.5" stroke="green" stroke-width="1" fill="none" />
<polyline points="152.5,271.0,148.0,271.5,155.5,272.5,153.5,274.5,154.5,273.0" stroke="orange" stroke-width="1" fill="none" />
<polyline points="170.0,262.0,171.0,259.0,173.0,257.0,177.5,256.0,173.5,257.0,169.0,264.5" stroke="yellow" stroke-width="1" fill="none" />
<polyline points="176.0,244.0,179.5,250.0,176.5,253.0" stroke="black" stroke-width="1" fill="none" />
<polyline points="169.5,261.5,169.5,260.5" stroke="yellow" stroke-width="1" fill="none" />
<polyline points="" stroke="green" stroke-width="1" fill="none" />
<polyline points="175.5,268.0,179.0,260.5,182.5,261.5,195.5,258.5,186.0,257.5,188.5,260.0,189.0,260.0,189.5,258.0,193.0,261.5,194.0,260.5" stroke="yellow" stroke-width="1" fill="none" />
<polyline points="" stroke="yellow" stroke-width="1" fill="none" />
<polyline points="" stroke="black" stroke-width="1" fill="none" />
<polyline points="176.0,253.5,187.0,257.0,193.5,256.5,187.0,264.5,194.5,261.0,186.5,270.0" stroke="black" stroke-width="1" fill="none" />
<polyline points="208.0,259.0,204.5,252.0,207.5,257.0,204.0,266.0,213.0,265.5" stroke="green" stroke-width="1" fill="none" />
<polyline points="223.5,272.5,207.0,253.0,211.5,252.5,212.0,244.5,206.5,236.5,209.0,237.0,210.0,238.5,210.0,242.5,200.5,241.0,206.5,241.0,210.5,238.5,201.5,234.5" stroke="green" stroke-width="1" fill="none" />
<polyline points="205.0,244.0,205.5,238.0,208.0,239.0,213.0,238.5,214.5,237.5,220.0,232.5,216.5,245.5,206.0,244.0,210.5,239.0,209.5,248.5" stroke="yellow" stroke-width="1" fill="none" />
<polyline points="" stroke="yellow" stroke-width="1" fill="none" />
<polyline points="208.0,258.0" stroke="orange" stroke-width="1" fill="none" />
<polyline points="216.5,255.0,216.0,257.0,207.5,252.5,214.5,245.0,211.0,247.5,206.0,240.0,215.0,230.5,205.5,237.5" stroke="black" stroke-width="1" fill="none" />
<polyline points="223.0,235.5,216.5,240.5,214.5,250.5,215.0,242.5,211.5,257.5,212.0,258.0,218.5,257.5,214.5,263.5,219.0,262.5" stroke="green" stroke-width="1" fill="none" />
<polyline points="" stroke="green" stroke-width="1" fill="none" />
<polyline points="200.0,253.5,198.5,253.0,201.5,253.0" stroke="black" stroke-width="1" fill="none" />
<polyline points="" stroke="black" stroke-width="1" fill="none" />
<polyline points="188.0,271.0,180.0,267.5,188.0,262.5,170.0,266.0,172.5,259.5,191.5,243.0,184.0,245.5,176.5,243.0,189.5,233.5,198.5,242.5,180.5,245.5,177.5,242.5,182.5,241.5,184.0,243.5,180.5,243.0" stroke="black" stroke-width="1" fill="none" />
<polyline points="199.0,215.5,195.5,213.0,200.0,212.5,191.0,228.0,190.5,225.0" stroke="orange" stroke-width="1" fill="none" />
<polyline points="189.0,227.5,183.5,218.0,190.5,228.5,187.5,230.5,191.0,231.5" stroke="yellow" stroke-width="1" fill="none" />
<polyline points="176.5,243.5,181.0,242.0,182.0,239.0,186.5,239.5,185.5,240.0,186.5,240.0,186.5,241.5" stroke="yellow" stroke-width="1" fill="none" />
<polyline points="193.5,237.0,191.0,238.0,203.5,238.5,199.0,238.5,199.5,242.5" stroke="black" stroke-width="1" fill="none" />
<polyline points="226.0,219.5" stroke="green" stroke-width="1" fill="none" />
<polyline points="" stroke="yellow" stroke-width="1" fill="none" />
<polyline points="213.0,221.5,218.0,219.0,219.0,229.5,212.5,235.0" stroke="green" stroke-width="1" fill="none" />
<polyline points="214.0,219.0,226.5,210.5,217.0,218.0,227.5,235.5,235.0,232.0,224.5,237.5,233.0,234.5,237.0,246.0,230.0,237.0,232.0,250.5,231.5,251.5,231.5,254.0,218.5,252.5,213.0,273.5,221.5,259.5,217.5,263.5,221.0,270.5,216.5,285.0,200.5,284.0,217.0,294.0,202.5,286.0,202.0,293.0,206.5,303.0,188.0,304.0,205.0,309.0,206.5,322.0,193.0,310.0,196.0,316.0,185.0,329.0,199.0,318.5,193.5,314.0,202.0,313.0,216.5,309.0,212.5,312.5,220.5,301.0,230.0,305.0,234.0,283.5,226.0,278.5,234.5,277.5,235.0,265.0,233.5,272.0,249.5,266.5,249.5,257.0,248.5,253.0,247.5,254.5,254.0,250.0,260.5,250.0,275.0,242.0,284.0,258.5,280.5,249.0,273.5,256.5,292.5,254.0,285.0,244.0,305.5,257.0,302.0,253.0,301.5,253.0,299.0,254.0" stroke="yellow" stroke-width="1" fill="none" />
<polyline points="" stroke="orange" stroke-width="1" fill="none" />
<polyline points="286.0,258.0,291.5,277.0,290.5,277.5,286.5,279.0,289.5,277.5,288.0,274.0,289.0,275.5" stroke="black" stroke-width="1" fill="none" />
<polyline points="" stroke="black" stroke-width="1" fill="none" />
<polyline points="" stroke="black" stroke-width="1" fill="none" />
<polyline points="283.5,275.5,278.0,270.0,279.0,272.5,282.5,274.5" stroke="yellow" stroke-width="1" fill="none" />
<polyline points="276.5,262.5,279.0,260.5,272.0,267.0,273.0,268.0" stroke="black" stroke-width="1" fill="none" />
<polyline points="285.0,269.0,286.0,269.5" stroke="black" stroke-width="1" fill="none" />
<polyline points="260.0,262.5,262.0,266.5" stroke="black" stroke-width="1" fill="none" />
<polyline points="262.5,261.0,261.5,274.5,265.0,274.0,270.0,271.0,275.5,270.5,280.5,257.0,274.5,274.0,268.0,289.5,278.5,274.0,275.0,279.5,279.0,285.5,279.0,288.5,276.5,291.5,276.0,293.0,275.0,292.0" stroke="yellow" stroke-width="1" fill="none" />
<polyline points="259.5,276.5,259.0,268.0,264.0,267.0,259.0,278.5,254.5,272.5,252.5,276.0,254.5,272.0,250.5,271.5" stroke="orange" stroke-width="1" fill="none" />
<polyline points="267.5,271.0,268.0,280.0,276.5,279.5" stroke="black" stroke-width="1" fill="none" />
<polyline points="" stroke="yellow" stroke-width="1" fill="none" />
<polyline points="258.5,266.5,255.0,269.0,255.5,279.5,257.0,274.0,260.0,271.0,265.5,279.0,270.5,278.5,273.5,284.0,285.5,280.5,282.5,277.5,281.0,274.5" stroke="orange" stroke-width="1" fill="none" />
<polyline points="284.5,259.5,287.5,265.5,284.5,254.5,280.5,260.0,292.0,250.5,281.0,252.5,273.0,254.5,280.5,250.5,279.0,250.5,276.5,248.5,275.5,255.0" stroke="orange" stroke-width="1" fill="none" />
<polyline points="278.5,246.5,279.0,241.5" stroke="orange" stroke-width="1" fill="none" />
<polyline points="" stroke="orange" stroke-width="1" fill="none" />
<polyline points="272.5,260.0,272.5,257.0,283.5,257.0,272.0,262.0,264.5,248.5,259.5,247.5,265.5,250.0,262.0,257.5,263.0,257.0,264.5,255.0" stroke="black" stroke-width="1" fill="none" />
<polyline points="268.5,269.5,265.0,277.0,262.0,271.0,263.0,268.0" stroke="yellow" stroke-width="1" fill="none" />
<polyline points="277.0,271.5,283.5,269.5,283.5,269.5,288.0,277.0,291.5,273.5,284.0,268.0,282.0,278.0,287.0,277.5,295.5,264.0" stroke="black" stroke-width="1" fill="none" />
<polyline points="" stroke="orange" stroke-width="1" fill="none" />
<polyline points="255.0,253.5,259.5,249.0,257.0,257.5,246.5,266.5,246.5,264.0,240.5,270.5,238.5,275.0,227.5,276.5,226.0,292.5,237.5,279.5,225.5,289.0,214.5,292.0,210.5,305.5,216.0,300.0,213.5,303.0,211.5,318.0,197.0,312.0,201.5,310.5,209.0,320.0,194.0,323.5,190.5,337.0,192.5,338.0,183.0,335.5,187.5,351.0,181.5,345.5,173.0,345.0,173.0,359.0,175.0,356.0,168.5,359.5,165.5,369.5,165.0,365.5,156.5,385.5,156.5,378.0,152.0,387.0,162.5,388.5,164.0,396.0,170.0,399.5,172.5,406.5,177.0,405.0,171.0,405.5,177.0,395.5,170.5,398.5,174.0,396.5,173.0,401.5" stroke="yellow" stroke-width="1" fill="none" />
<polyline points="164.5,398.0,158.5,388.5,158.0,392.5" stroke="green" stroke-width="1" fill="none" />
<polyline points="" stroke="yellow" stroke-width="1" fill="none" />
<polyline points="137.5,374.5,143.0,369.0,141.0,370.5,144.0,363.0" stroke="black" stroke-width="1" fill="none" />
<polyline points="136.5,381.0,137.5,383.0" stroke="yellow" stroke-width="1" fill="none" />
<polyline points="133.5,410.5,129.5,413.0,124.0,416.5,130.5,417.5,139.5,425.0,136.0,424.0,139.0,431.5,137.0,436.0,137.5,443.5,136.5,445.0,141.0,447.0,145.5,454.5,134.5,452.5,133.5,464.0,137.0,460.0,136.5,471.5,137.5,471.5,138.5,472.0,148.5,467.5,145.0,477.0,146.5,469.0,155.5,488.5,164.0,482.0" stroke="black" stroke-width="1" fill="none" />
<polyline points="" stroke="black" stroke-width="1" fill="none" />
<polyline points="174.0,466.5,189.0,455.5,177.0,468.0,177.5,459.5,172.0,459.5,172.5,451.5,161.0,438.5,178.0,439.5,162.5,443.0,164.0,439.0" stroke="orange" stroke-width="1" fill="none" />
<polyline points="163.5,433.0,166.5,439.0,164.5,437.0,162.5,436.0" stroke="yellow" stroke-width="1" fill="none" />
<polyline points="156.5,426.5,165.0,421.5,160.0,410.5,167.5,406.5,158.5,408.5,152.0,411.0,159.5,398.5,161.5,401.5,160.5,396.5,158.5,400.5,150.5,388.0,151.0,383.5,145.0,371.0,153.0,369.5,140.5,363.5,142.0,361.5,151.0,360.5,148.0,354.5,148.0,359.5,154.0,360.5" stroke="black" stroke-width="1" fill="none" />
<polyline points="143.5,360.5,149.0,365.5,141.0,363.0,145.0,354.5,153.5,365.0,149.0,377.0,149.0,378.5,154.5,384.0,153.5,381.5,155.5,381.5,152.5,395.0,154.5,388.5,162.5,406.5,176.0,394.5" stroke="green" stroke-width="1" fill="none" />
<polyline points="169.5,441.0,172.0,443.0,174.0,438.0,176.0,437.0,169.0,451.5,174.0,450.5,187.0,455.0,175.5,449.0,178.0,469.5,176.5,469.0" stroke="yellow" stroke-width="1" fill="none" />
<polyline points="161.0,447.5,171.0,454.5" stroke="black" stroke-width="1" fill="none" />
<polyline points="167.0,453.0,164.0,442.0,161.5,443.0,174.5,456.0,169.5,464.0,179.5,454.0,170.0,464.0,169.0,469.5,164.5,468.5,167.0,482.0,175.0,473.0,157.5,478.0,165.0,489.0,166.0,491.0,160.0,501.0,154.5,496.5,163.5,511.5,176.0,497.5,181.5,515.0,176.0,511.5,178.5,508.5,171.0,517.0,167.5,512.5" stroke="black" stroke-width="1" fill="none" />
<polyline points="" stroke="orange" stroke-width="1" fill="none" />
<polyline points="" stroke="yellow" stroke-width="1" fill="none" />
<polyline points="" stroke="green" stroke-width="1" fill="none" />
<polyline points="162.0,455.0,150.0,449.5,148.5,448.5,147.0,444.5,148.0,432.0,163.5,430.5,148.5,430.5,148.0,429.0,137.5,420.0,136.0,408.0,132.0,408.0,137.0,405.5" stroke="orange" stroke-width="1" fill="none" />
<polyline points="138.0,396.5,152.5,398.0,142.5,395.5,152.5,385.5,149.5,396.5,145.0,399.5,141.5,400.0" stroke="orange" stroke-width="1" fill="none" />
<polyline points="138.5,404.0" stroke="yellow" stroke-width="1" fill="none" />
<polyline points="138.0,406.0,144.0,402.0,140.5,409.0,146.5,410.5,145.0,414.5,146.5,414.0" stroke="yellow" stroke-width="1" fill="none" />
<polyline points="155.0,425.0,154.5,430.5,159.0,424.5,154.0,437.5,148.5,438.0" stroke="black" stroke-width="1" fill="none" />
<polyline points="162.5,440.5,173.0,444.5,176.5,445.5,179.5,446.5,180.5,437.0,178.5,442.5" stroke="green" stroke-width="1" fill="none" />
<polyline points="170.0,410.0,179.0,414.5,181.5,414.0,167.0,414.0,166.5,410.5,161.5,410.0,166.0,402.5,166.0,397.5,164.5,398.0" stroke="orange" stroke-width="1" fill="none" />
<polyline points="169.0,416.5,164.0,418.5,170.0,432.5,160.5,434.0,161.5,427.5,156.0,427.5,161.0,436.0,153.0,432.5,164.0,433.0,175.0,429.5,167.5,432.5,167.0,431.0,158.5,427.5" stroke="yellow" stroke-width="1" fill="none" />
<polyline points="162.5,430.5,164.5,428.5" stroke="yellow" stroke-width="1" fill="none" />
<polyline points="149.5,452.0,152.5,458.5,156.0,453.5,163.5,453.0,160.0,455.0,163.5,459.5,159.5,469.5" stroke="green" stroke-width="1" fill="none" />
<polyline points="162.0,455.5,168.0,453.0,163.0,461.5,161.5,458.0" stroke="black" stroke-width="1" fill="none" />
<polyline points="" stroke="yellow" stroke-width="1" fill="none" />
<polyline points="148.5,450.5,145.0,455.0,155.5,454.0,159.0,453.0,155.5,452.5,154.5,457.5" stroke="black" stroke-width="1" fill="none" />
<polyline points="147.5,444.0,146.0,447.5,144.0,443.0" stroke="yellow" stroke-width="1" fill="none" />
<polyline points="145.0,463.5,149.0,462.0,149.0,465.5,147.5,468.5,154.5,469.5,147.5,476.0,153.0,482.0,152.0,479.0" stroke="orange" stroke-width="1" fill="none" />
<polyline points="146.5,477.0,146.0,469.5,153.0,469.5,151.0,469.0" stroke="yellow" stroke-width="1" fill="none" />
<polyline points="141.0,464.0,151.5,463.0,158.5,464.0,156.0,469.0,150.0,464.5" stroke="yellow" stroke-width="1" fill="none" />
<polyline points="" stroke="black" stroke-width="1" fill="none" />
<polyline points="139.5,451.0,140.5,456.0,132.5,452.5,149.5,462.0,141.5,452.5,145.5,475.0,139.0,475.0,150.5,471.0,159.0,478.0,156.5,477.5,157.0,475.5" stroke="green" stroke-width="1" fill="none" />
<polyline points="159.5,473.0,159.5,472.0,162.0,475.0,157.5,469.5,162.0,472.5,153.0,472.5,145.5,466.5,151.5,457.5,143.5,455.0,148.5,450.5" stroke="yellow" stroke-width="1" fill="none" />
<polyline points="148.0,464.5,140.5,458.0,156.0,472.5,154.0,477.5,145.5,468.5,154.0,479.0,148.5,472.5,160.0,491.5,159.0,492.5,158.5,492.0,165.5,498.5,172.5,502.5,165.5,503.5" stroke="black" stroke-width="1" fill="none" />
<polyline points="159.0,448.5,157.5,454.0,152.5,450.5,146.5,448.0,153.0,433.0,144.0,438.0,149.0,430.0,152.0,434.0,145.0,420.0" stroke="green" stroke-width="1" fill="none" />
<polyline points="" stroke="green" stroke-width="1" fill="none" />
<polyline points="" stroke="yellow" stroke-width="1" fill="none" />
<polyline points="134.0,416.5,144.0,414.0,146.0,410.5,148.5,410.5,152.0,411.0,154.5,406.5" stroke="green" stroke-width="1" fill="none" />
<polyline points="140.0,413.0,143.0,408.0,144.0,420.0,145.0,422.5,151.0,432.0,144.0,439.5,156.0,445.0,154.0,436.0,154.0,435.0,145.5,442.0,147.5,445.0" stroke="black" stroke-width="1" fill="none" />
<polyline points="151.0,419.0,153.5,427.0,154.5,409.5,152.0,411.5,145.0,404.0,146.0,399.5,151.5,394.5,143.5,393.5,144.5,395.0" stroke="black" stroke-width="1" fill="none" />
<polyline points="152.5,396.0,150.5,397.0,139.0,398.0,139.5,396.5" stroke="yellow" stroke-width="1" fill="none" />
<polyline points="" stroke="orange" stroke-width="1" fill="none" />
<polyline points="150.5,404.5,143.5,405.0,138.5,400.5,140.0,401.0,123.5,403.0,128.5,400.5,123.0,402.5,124.0,397.0" stroke="green" stroke-width="1" fill="none" />
<polyline points="120.5,398.0,127.0,404.0,130.5,395.5,120.5,403.5,133.5,403.5,130.0,403.0,126.5,404.0,128.0,401.0,131.0,402.0" stroke="yellow" stroke-width="1" fill="none" />
<polyline points="114.0,406.5,131.5,412.5,134.0,393.0,139.0,398.5,143.5,385.5,136.5,396.5,140.0,380.0,135.5,378.0,139.0,376.0,144.5,379.5,149.0,367.0,153.0,367.0,143.0,360.5,135.5,345.0,146.0,344.5,145.5,348.5,143.5,347.5,133.0,347.5,132.0,342.0,134.0,336.5,138.0,338.0,134.5,329.0,126.0,317.0,137.0,310.5,125.5,319.0,126.5,304.0,123.0,310.0,128.5,292.5,131.5,295.5,132.0,283.5,135.5,293.5,127.0,278.5,131.5,274.0,129.0,269.0,125.0,269.5" stroke="orange" stroke-width="1" fill="none" />
<polyline points="127.0,277.5,126.0,277.5,129.0,285.5,126.0,290.0,112.5,300.5,131.0,292.5,116.0,303.0,128.5,295.0,119.5,304.0,111.0,315.0,109.0,328.5,116.0,316.5,116.5,321.5,120.0,324.0,111.5,332.5,109.5,334.5,113.5,335.0,115.0,339.0,120.5,335.5" stroke="yellow" stroke-width="1" fill="none" />
<polyline points="" stroke="orange" stroke-width="1" fill="none" />
<polyline points="117.5,348.0,119.5,344.0,115.5,349.5,128.0,360.0,120.0,369.5,111.0,359.5,113.5,370.0,121.0,368.5,110.0,377.5,116.0,388.0,113.5,385.5,119.5,382.5,121.5,396.5,122.0,402.0,128.0,401.5" stroke="black" stroke-width="1" fill="none" />
<polyline points="114.5,378.5,122.0,392.0,124.0,383.0,118.0,371.5,125.5,376.0,119.5,373.0,115.5,357.0,122.0,371.5,118.5,370.5" stroke="black" stroke-width="1" fill="none" />
<polyline points="128.0,379.0,129.0,381.5,125.0,385.5" stroke="yellow" stroke-width="1" fill="none" />
<polyline points="122.0,392.0,123.5,385.0,126.5,397.0,128.0,402.5" stroke="green" stroke-width="1" fill="none" />
<polyline points="131.5,395.0,124.5,388.5,131.0,400.0,140.5,393.5,135.5,391.5,145.0,391.5,140.5,389.0,142.0,399.0,139.0,394.0,139.0,393.5" stroke="yellow" stroke-width="1" fill="none" />
<polyline points="" stroke="yellow" stroke-width="1" fill="none" />
<polyline points="114.5,402.5,119.0,397.5,120.0,393.0,120.5,397.0,113.0,403.5,115.5,403.0,115.0,403.0" stroke="yellow" stroke-width="1" fill="none" />
<polyline points="124.0,411.0,126.0,405.5,124.0,405.0,126.5,418.0,121.5,418.0,133.0,423.5,142.5,419.5,132.5,429.0" stroke="black" stroke-width="1" fill="none" />
<polyline points="" stroke="yellow" stroke-width="1" fill="none" />
<polyline points="" stroke="green" stroke-width="1" fill="none" />
<polyline points="148.5,414.0" stroke="black" stroke-width="1" fill="none" />
<polyline points="" stroke="black" stroke-width="1" fill="none" />
<polyline points="" stroke="orange" stroke-width="1" fill="none" />
<polyline points="153.5,391.0,152.0,390.5,153.0,393.0,146.0,388.0,145.5,390.0" stroke="orange" stroke-width="1" fill="none" />
<polyline points="172.0,404.5,168.0,410.0,174.5,412.5,179.5,413.5,174.0,415.0,173.0,415.0,178.0,408.5,176.5,409.0,176.5,410.0" stroke="yellow" stroke-width="1" fill="none" />
<polyline points="149.5,403.5,162.5,404.0,165.5,393.0,138.0,385.0,148.0,388.5,144.5,390.0,146.5,393.0,140.5,385.0,138.5,379.5,142.0,386.0,147.5,378.5,134.5,378.5,137.5,380.0,133.5,369.5,141.5,360.5,134.5,362.5,141.5,352.0,144.0,347.5,143.5,357.0,133.0,341.5,127.5,341.0,125.0,333.0,128.0,333.5,143.0,326.5,138.5,323.5,137.0,321.0,137.0,320.5" stroke="orange" stroke-width="1" fill="none" />
<polyline points="116.5,326.5,131.5,331.0,125.0,342.5,117.5,346.0,120.5,345.0" stroke="orange" stroke-width="1" fill="none" />
<polyline points="124.0,350.5,119.0,350.5,118.0,366.5,113.0,368.0,117.5,375.5,122.5,384.0,120.5,382.5,122.0,381.5,136.5,386.0,131.0,382.5,130.0,398.0,128.5,399.5" stroke="orange" stroke-width="1" fill="none" />
<polyline points="" stroke="yellow" stroke-width="1" fill="none" />
<polyline points="" stroke="green" stroke-width="1" fill="none" />
<polyline points="" stroke="orange" stroke-width="1" fill="none" />
<polyline points="" stroke="orange" stroke-width="1" fill="none" />
<polyline points="131.0,357.0,129.5,355.5,133.0,351.5,122.0,360.5,138.0,366.0,138.0,367.5,125.5,372.0,125.5,370.5" stroke="yellow" stroke-width="1" fill="none" />
<polyline points="141.0,361.0,140.5,360.0,144.5,352.0,142.5,346.0,145.5,348.5,133.0,345.0" stroke="orange" stroke-width="1" fill="none" />
<polyline points="140.5,348.5,135.5,341.0" stroke="black" stroke-width="1" fill="none" />
<polyline points="" stroke="yellow" stroke-width="1" fill="none" />
<polyline points="137.5,348.5,133.0,343.5,142.5,347.0,140.5,337.5,146.0,336.0,147.0,333.5,143.0,335.5" stroke="green" stroke-width="1" fill="none" />
<polyline points="138.0,346.0,130.5,333.5,139.0,342.5,137.5,344.5,139.5,342.5" stroke="black" stroke-width="1" fill="none" />
<polyline points="118.0,353.5,117.5,362.0,111.0,362.5,111.5,366.5,109.5,371.5,118.0,370.5,108.5,377.0,119.0,378.5,123.0,382.5,122.5,393.0,113.0,394.5,113.5,399.5,114.5,409.5,120.5,398.0,118.5,407.5,116.0,419.0,104.0,422.5,110.5,420.0,113.0,420.0,114.5,416.5" stroke="yellow" stroke-width="1" fill="none" />
<polyline points="114.0,411.5" stroke="yellow" stroke-width="1" fill="none" />
<polyline points="124.5,423.0,126.0,419.5,125.0,418.5" stroke="green" stroke-width="1" fill="none" />
<polyline points="" stroke="black" stroke-width="1" fill="none" />
<polyline points="" stroke="black" stroke-width="1" fill="none" />
<polyline points="109.5,435.0,120.5,429.5,116.5,441.5,121.5,445.0,122.0,441.0,132.0,440.5,130.5,441.0" stroke="green" stroke-width="1" fill="none" />
<polyline points="" stroke="black" stroke-width="1" fill="none" />
<polyline points="" stroke="black" stroke-width="1" fill="none" />
<polyline points="123.5,454.5,125.5,453.5,131.0,451.5,124.0,446.0,121.0,445.5,120.0,446.0" stroke="yellow" stroke-width="1" fill="none" />
<polyline points="106.0,443.0" stroke="yellow" stroke-width="1" fill="none" />
<polyline points="100.5,434.5" stroke="black" stroke-width="1" fill="none" />
<polyline points="100.5,448.5,90.0,453.0,94.5,454.0,96.5,453.5" stroke="black" stroke-width="1" fill="none" />
<polyline points="82.0,462.0,83.5,459.0,96.0,453.5,90.5,450.0,89.5,445.5" stroke="green" stroke-width="1" fill="none" />
<polyline points="101.0,461.0,99.0,458.0" stroke="green" stroke-width="1" fill="none" />
<polyline points="98.5,495.0,103.5,499.0,106.5,503.5,99.5,508.0,110.5,514.5,104.5,514.0,107.5,514.0,101.5,513.5" stroke="yellow" stroke-width="1" fill="none" />
<polyline points="113.5,496.5,108.0,489.0,106.0,490.5,110.5,483.0" stroke="yellow" stroke-width="1" fill="none" />
<polyline points="118.5,486.0,112.0,498.0,118.0,494.5,119.0,504.5,123.0,515.0,116.0,514.5" stroke="yellow" stroke-width="1" fill="none" />
<polyline points="97.0,501.5,101.0,505.5,96.0,504.5,97.0,504.0,100.0,504.0" stroke="orange" stroke-width="1" fill="none" />
<polyline points="100.0,494.0,97.0,493.0,103.5,501.0,101.0,518.5" stroke="green" stroke-width="1" fill="none" />
<polyline points="120.5,495.5,120.5,498.0,125.0,487.0,123.0,478.0" stroke="orange" stroke-width="1" fill="none" />
<polyline points="126.0,493.5,127.0,492.0,127.0,493.0,133.5,506.0,129.0,506.5,126.0,502.0,127.0,511.5,128.5,512.5" stroke="orange" stroke-width="1" fill="none" />
<polyline points="150.5,441.0,148.0,418.5,147.5,425.5,140.5,417.5,126.5,420.5" stroke="green" stroke-width="1" fill="none" />
<polyline points="135.5,420.0,131.5,421.5,145.0,434.5,139.0,432.0,144.5,442.0,151.0,448.0,147.0,449.5,143.0,453.5,132.0,459.5,138.5,455.0,129.5,477.0,133.5,455.0,135.0,454.5,142.0,461.0,137.5,458.0,133.5,461.0,131.0,462.5" stroke="orange" stroke-width="1" fill="none" />
<polyline points="136.5,444.5,137.5,441.5,143.5,425.0,135.0,424.0,140.0,423.5,142.0,427.0,144.0,429.0" stroke="black" stroke-width="1" fill="none" />
<polyline points="129.5,429.5,125.0,433.5,123.5,422.0,128.5,418.5,126.5,415.5,128.0,418.0" stroke="yellow" stroke-width="1" fill="none" />
<polyline points="114.0,417.5,116.0,431.0,118.0,434.5" stroke="yellow" stroke-width="1" fill="none" />
<polyline points="" stroke="black" stroke-width="1" fill="none" />
<polyline points="101.5,408.5,110.5,418.0,101.0,427.0,104.5,436.5,110.5,436.0" stroke="orange" stroke-width="1" fill="none" />
<polyline points="105.0,439.5,96.5,439.0,90.0,438.0,87.0,442.0,92.5,447.0,105.0,439.5,99.0,440.5,101.0,426.0,100.5,429.5,109.5,427.0" stroke="green" stroke-width="1" fill="none" />
<polyline points="99.0,428.5,89.5,428.5,96.0,431.5,95.0,426.0,96.5,428.5,90.5,424.5" stroke="orange" stroke-width="1" fill="none" />
<polyline points="89.0,421.5,96.5,420.5,77.5,427.0,86.5,417.5,90.0,416.0,91.0,421.5,93.5,423.5" stroke="black" stroke-width="1" fill="none" />
<polyline points="" stroke="green" stroke-width="1" fill="none" />
<polyline points="" stroke="orange" stroke-width="1" fill="none" />
<polyline points="97.5,389.0,89.5,400.5,103.0,399.0" stroke="yellow" stroke-width="1" fill="none" />
<polyline points="101.0,409.0,99.5,408.5,91.0,401.5,92.0,398.5,98.0,407.5,90.0,399.5,90.5,407.5,101.0,396.0,84.0,388.0,93.0,381.0,79.5,384.5,88.5,390.0,85.5,386.5" stroke="orange" stroke-width="1" fill="none" />
<polyline points="71.5,401.5,67.5,403.0,72.0,400.0,75.0,405.0,71.0,419.0,70.5,419.5,68.0,417.5,69.5,418.5,67.0,424.5,66.0,424.0,76.0,431.0,77.0,434.5,71.5,432.0,68.5,441.0,62.0,441.0,72.5,444.5,74.5,450.0,70.0,453.0,71.0,458.5,71.0,460.5,82.5,457.5,68.5,473.5,60.0,478.0,70.0,485.0,64.0,482.0,62.0,487.5,69.5,493.0,63.0,499.0,69.5,501.0,60.5,500.0,65.0,504.5,64.0,513.0,57.0,512.5,68.5,503.0,72.5,500.0" stroke="green" stroke-width="1" fill="none" />
<polyline points="62.5,504.0" stroke="green" stroke-width="1" fill="none" />
<polyline points="72.0,488.5,72.0,492.0" stroke="yellow" stroke-width="1" fill="none" />
<polyline points="68.0,478.5,67.5,477.0,59.0,475.5,68.0,479.5,70.5,483.5,63.0,481.5,66.5,488.0,67.0,494.5,66.5,495.0,71.5,489.0,69.5,493.5,69.5,494.5" stroke="yellow" stroke-width="1" fill="none" />
<polyline points="66.0,464.0,69.0,467.5,77.5,458.5,79.0,457.0,82.5,448.5,83.0,449.0,79.5,445.5,82.0,448.0" stroke="orange" stroke-width="1" fill="none" />
<polyline points="" stroke="orange" stroke-width="1" fill="none" />
<polyline points="78.5,452.5" stroke="green" stroke-width="1" fill="none" />
<polyline points="66.5,471.5,67.0,465.0,59.5,465.0,63.0,459.0,69.5,470.5,72.0,474.5,73.5,484.5,73.5,486.0,75.5,485.5" stroke="black" stroke-width="1" fill="none" />
<polyline points="" stroke="orange" stroke-width="1" fill="none" />
<polyline points="15.5,502.5,15.0,503.0,16.0,507.0,18.0,513.5,17.5,515.0" stroke="yellow" stroke-width="1" fill="none" />
<polyline points="17.0,497.0" stroke="black" stroke-width="1" fill="none" />
<polyline points="" stroke="green" stroke-width="1" fill="none" />
<polyline points="18.0,417.0,10.5,416.5,6.0,422.5,10.0,421.0,1.0,430.0,11.5,433.0,10.0,443.5,11.5,445.5,9.5,445.5,12.5,438.0,12.5,446.0,18.0,452.0,15.5,456.0,11.0,467.5,10.0,461.5,21.0,474.5,18.5,472.0" stroke="black" stroke-width="1" fill="none" />
<polyline points="25.5,464.0,33.5,454.0,30.0,456.0,26.0,458.5,31.5,442.0" stroke="orange" stroke-width="1" fill="none" />
<polyline points="28.0,415.0,27.0,414.5" stroke="yellow" stroke-width="1" fill="none" />
<polyline points="26.5,410.5,21.5,421.5,16.5,420.0,18.0,426.0,18.5,428.0,22.0,443.0,31.5,442.0,12.5,441.0,27.0,449.5,27.0,452.5,33.0,452.5,15.5,455.5,28.5,457.5,29.0,463.0,21.0,472.5,29.0,474.5,32.5,476.0,26.5,472.5,30.0,485.0,29.0,496.5,21.5,498.5,33.5,500.0,37.5,500.0" stroke="green" stroke-width="1" fill="none" />
<polyline points="70.0,431.5,68.5,437.5,67.5,434.0,65.0,437.0" stroke="yellow" stroke-width="1" fill="none" />
<polyline points="69.0,424.0,71.5,427.5,65.5,427.5,66.5,418.5,67.0,411.0,67.5,419.0,63.0,406.0,67.5,402.5,76.5,399.0,73.0,396.0,84.0,392.0,63.5,404.5,76.0,396.5" stroke="black" stroke-width="1" fill="none" />
<polyline points="" stroke="yellow" stroke-width="1" fill="none" />
<polyline points="" stroke="green" stroke-width="1" fill="none" />
<polyline points="76.0,413.5,65.0,421.5,57.0,428.5" stroke="green" stroke-width="1" fill="none" />
<polyline points="68.5,420.0,66.0,423.0,67.5,431.0,77.5,420.5,78.0,422.5,78.0,428.0" stroke="orange" stroke-width="1" fill="none" />
<polyline points="99.0,444.5,103.0,438.0,101.5,436.0,98.0,438.0,101.0,436.0,97.5,441.0" stroke="yellow" stroke-width="1" fill="none" />
<polyline points="" stroke="black" stroke-width="1" fill="none" />
<polyline points="112.0,409.5,106.0,407.5,94.0,414.0,93.0,419.0,95.0,416.0" stroke="black" stroke-width="1" fill="none" />
<polyline points="106.0,403.5,100.5,398.0,99.0,395.0,99.0,398.0,92.5,399.0,97.5,404.5" stroke="yellow" stroke-width="1" fill="none" />
<polyline points="97.0,368.5,101.5,373.0,107.5,378.0,98.5,364.5,111.0,355.5,104.0,358.0,108.0,358.0,108.5,355.5,108.0,363.5,111.0,352.5,109.0,339.0,106.0,337.0" stroke="orange" stroke-width="1" fill="none" />
<polyline points="101.0,335.0,103.0,335.5,105.5,334.5,103.5,335.0,104.5,336.0" stroke="black" stroke-width="1" fill="none" />
<polyline points="" stroke="yellow" stroke-width="1" fill="none" />
<polyline points="103.5,323.5,111.5,307.5,121.5,316.5,124.5,306.0,128.5,306.0,123.0,312.5,115.5,315.0,112.0,323.0,104.0,309.5,104.5,309.5,115.0,310.0,113.0,319.0,105.0,321.5,101.5,315.0,109.5,319.0,111.0,310.0,122.0,303.5,116.0,300.5,116.0,300.0,123.0,297.5,124.5,297.5" stroke="orange" stroke-width="1" fill="none" />
<polyline points="112.0,305.5,125.5,311.5,120.0,313.0,115.5,313.5,110.5,322.5,120.0,323.0,109.5,328.0,97.5,327.5,94.5,338.0,88.0,335.5,98.5,349.0,87.5,334.5,90.5,332.5,92.5,333.5" stroke="yellow" stroke-width="1" fill="none" />
<polyline points="" stroke="yellow" stroke-width="1" fill="none" />
<polyline points="100.5,370.0,86.5,376.0,94.0,373.0,94.5,385.5,90.0,396.0,84.0,396.0,94.5,395.5,84.5,385.0,88.0,404.0,93.0,406.0,90.5,406.0,93.0,413.5,91.0,416.0,107.0,403.5,109.0,420.0,104.0,408.0,113.0,400.0" stroke="orange" stroke-width="1" fill="none" />
<polyline points="124.0,351.0,128.5,351.0" stroke="orange" stroke-width="1" fill="none" />
<polyline points="116.5,375.5,125.5,390.5,127.0,389.5,126.0,394.0,123.5,386.0,130.0,402.0,128.0,407.0,134.5,403.0,134.0,397.0" stroke="black" stroke-width="1" fill="none" />
<polyline points="121.5,368.0,119.0,362.5,120.5,360.5,118.5,353.0,116.5,358.5,113.5,359.5" stroke="orange" stroke-width="1" fill="none" />
<polyline points="127.5,374.5,118.5,374.0,125.5,377.0,132.0,378.5,133.0,383.5,132.5,378.5" stroke="green" stroke-width="1" fill="none" />
<polyline points="" stroke="black" stroke-width="1" fill="none" />
<polyline points="133.0,359.0,130.0,359.0,132.0,373.5,138.5,367.0,139.0,359.0,140.0,362.5" stroke="yellow" stroke-width="1" fill="none" />
<polyline points="172.0,364.5,178.0,367.5,176.5,357.0,178.5,360.5,177.0,343.0,184.0,341.5,181.0,338.0" stroke="green" stroke-width="1" fill="none" />
<polyline points="171.0,340.5,178.0,337.5,174.0,344.5,160.5,346.5,169.0,356.5,158.5,359.5,161.5,369.0,162.0,367.0,166.0,369.5,164.5,357.5,176.0,356.5,176.0,350.0,176.5,344.5,177.5,336.5,187.5,338.5,187.0,331.5,186.5,341.5,191.0,324.0,190.5,323.5,189.0,330.0,195.5,334.5" stroke="green" stroke-width="1" fill="none" />
<polyline points="" stroke="green" stroke-width="1" fill="none" />
<polyline points="198.0,362.0,196.5,364.0,191.5,350.0,187.5,351.5,188.0,345.5,189.5,343.5" stroke="green" stroke-width="1" fill="none" />
<polyline points="162.0,357.0,165.5,366.0,169.0,359.0,170.0,358.5" stroke="yellow" stroke-width="1" fill="none" />
<polyline points="162.5,367.5,167.0,370.0,160.5,358.0,166.5,363.0,157.0,369.5,157.0,365.5,159.5,363.0,166.5,352.0,171.5,354.0,174.5,347.5,176.5,342.5,179.0,339.5,177.0,341.0,185.0,334.5,176.0,328.0,159.0,325.0,168.0,340.0,161.5,339.5,164.5,339.5,158.5,335.5,168.5,331.0,162.5,331.0,170.5,328.5" stroke="orange" stroke-width="1" fill="none" />
<polyline points="173.5,330.5,169.0,342.5,167.5,342.0,169.0,333.5,168.0,326.5" stroke="black" stroke-width="1" fill="none" />
<polyline points="" stroke="yellow" stroke-width="1" fill="none" />
<polyline points="167.5,319.5,164.5,321.0,157.5,325.5,145.0,339.0,154.5,347.5,155.0,336.0,142.0,350.5,144.0,333.5,141.0,334.0,136.5,339.0,132.0,335.0,139.5,328.5,135.0,322.5,131.5,312.0,127.0,305.5,132.5,317.0,128.0,306.0,137.0,300.5,130.0,301.0,130.0,297.0,138.5,286.5,141.5,293.5,136.0,283.5,133.5,271.5,136.5,279.0,131.0,284.5,139.0,282.0,136.0,278.5,145.5,280.5,142.5,272.5,132.5,278.5,150.5,268.5,157.0,249.0,151.5,248.5,164.5,248.0,163.0,243.0,164.0,245.0,158.0,243.0,149.0,247.5" stroke="green" stroke-width="1" fill="none" />
<polyline points="147.5,249.5,147.5,251.5" stroke="black" stroke-width="1" fill="none" />
<polyline points="138.0,245.0,143.5,237.0,147.5,249.0,147.5,247.0,158.5,248.5,152.0,256.5,152.0,259.0" stroke="yellow" stroke-width="1" fill="none" />
<polyline points="146.0,265.0,141.0,271.5,136.0,275.0,135.0,270.5,134.5,276.5,134.0,278.5" stroke="black" stroke-width="1" fill="none" />
<polyline points="151.5,266.5,152.0,267.5,149.5,264.5,157.5,260.0,159.5,253.5,154.5,263.0,156.0,264.0,152.0,270.5,149.0,273.0,146.5,277.0,145.5,276.5,148.0,293.0,152.0,287.5,154.5,286.5,159.5,285.0,160.5,285.5,162.0,299.0,161.5,301.0,155.5,302.5,165.5,308.5,165.0,319.0,161.0,321.0,157.0,315.0,162.0,314.5,167.0,320.0,170.5,314.5,173.0,305.5,173.0,304.5,172.5,299.0,186.5,292.0,184.0,293.5,181.5,295.0,181.0,294.5" stroke="black" stroke-width="1" fill="none" />
<polyline points="" stroke="green" stroke-width="1" fill="none" />
<polyline points="" stroke="orange" stroke-width="1" fill="none" />
<polyline points="176.5,296.0,174.5,308.0,176.5,304.0,181.5,302.0,177.0,306.5,178.0,306.5" stroke="yellow" stroke-width="1" fill="none" />
<polyline points="166.5,308.0,167.5,309.0" stroke="orange" stroke-width="1" fill="none" />
<polyline points="172.0,309.5,167.0,297.0,174.5,298.5,178.5,300.5,172.0,287.5,168.5,287.5,173.0,293.0,158.0,299.0,164.5,286.5,168.0,285.0,174.5,286.0,177.0,283.0,176.0,284.5,161.5,284.0,169.0,284.0,163.0,291.0,166.0,284.5,173.5,297.5,165.0,273.0,167.5,280.5,164.5,274.5,164.5,270.5,163.5,263.5,171.5,266.5,172.5,262.0,169.0,265.0,170.0,258.0,172.5,248.0,181.0,248.0,172.0,236.5,175.5,236.0,179.5,234.5,182.0,238.0,174.5,247.5,177.0,245.0,175.5,241.5" stroke="black" stroke-width="1" fill="none" />
<polyline points="184.5,222.0,183.5,234.5,178.0,241.0,177.5,240.5,183.0,245.0,175.5,250.0,173.5,249.0,188.0,257.0,186.5,256.5" stroke="green" stroke-width="1" fill="none" />
<polyline points="190.0,255.5,190.5,255.5,182.5,253.0,184.0,249.5,186.0,247.0" stroke="yellow" stroke-width="1" fill="none" />
<polyline points="223.0,271.5,229.0,274.5,220.5,271.5,227.5,273.5,240.0,267.5,233.0,270.0,230.0,268.0,227.5,269.0" stroke="green" stroke-width="1" fill="none" />
<polyline points="212.0,321.0,218.5,324.0,215.0,328.5,220.0,333.0,215.5,331.5,218.5,337.0,225.5,343.5,214.5,348.0" stroke="yellow" stroke-width="1" fill="none" />
<polyline points="257.0,383.5,251.5,387.5,252.5,378.5,254.0,393.5,260.0,378.5" stroke="black" stroke-width="1" fill="none" />
<polyline points="259.5,384.0,263.0,384.5,256.5,374.0,249.5,393.5,250.5,397.5,257.5,393.0,247.5,389.5,246.0,396.0,249.5,390.5,239.0,396.5" stroke="orange" stroke-width="1" fill="none" />
<polyline points="272.5,350.0" stroke="black" stroke-width="1" fill="none" />
<polyline points="274.0,352.5,284.5,348.5,280.0,347.0" stroke="yellow" stroke-width="1" fill="none" />
<polyline points="219.5,356.5,218.5,348.5,222.0,352.0,221.0,340.0,220.0,335.5,221.0,332.5,225.0,326.0,225.0,325.0,224.5,315.5,219.0,312.5,222.5,314.5,214.0,305.5,224.5,305.0" stroke="black" stroke-width="1" fill="none" />
<polyline points="170.0,292.0,175.5,289.5,173.0,289.5,175.5,289.5" stroke="orange" stroke-width="1" fill="none" />
<polyline points="175.5,299.5,175.0,298.5,180.5,312.0,172.0,311.5,174.5,307.5" stroke="green" stroke-width="1" fill="none" />
<polyline points="155.5,311.0,162.0,308.0,155.5,300.5,152.0,306.0,154.0,313.5,157.0,315.5" stroke="yellow" stroke-width="1" fill="none" />
<polyline points="" stroke="orange" stroke-width="1" fill="none" />
<polyline points="166.5,313.0,164.5,312.5,164.5,316.0,161.5,317.0,157.0,320.5,161.5,317.5,161.0,314.0" stroke="orange" stroke-width="1" fill="none" />
<polyline points="" stroke="orange" stroke-width="1" fill="none" />
<polyline points="" stroke="black" stroke-width="1" fill="none" />
<polyline points="145.0,285.0" stroke="green" stroke-width="1" fill="none" />
<polyline points="150.0,282.5,153.0,281.0" stroke="yellow" stroke-width="1" fill="none" />
<polyline points="175.0,293.0,174.5,295.0,175.5,299.0,164.0,290.5" stroke="black" stroke-width="1" fill="none" />
<polyline points="173.0,292.5,179.0,303.5,173.0,308.5,164.0,308.5,168.5,304.5" stroke="orange" stroke-width="1" fill="none" />
<polyline points="158.0,293.5,154.0,297.0,156.5,295.0" stroke="yellow" stroke-width="1" fill="none" />
<polyline points="161.5,289.0,165.0,290.5,156.5,302.0,172.5,297.0,171.0,296.0,168.5,293.5" stroke="black" stroke-width="1" fill="none" />
<polyline points="168.0,280.5,173.0,298.0,168.5,294.0,167.5,299.0,165.0,307.0,170.0,311.5,168.5,308.5,160.5,318.0,164.5,312.5,169.0,313.0,164.5,330.0,163.5,330.0,151.0,330.5,152.0,336.5,161.0,337.5,149.0,340.5,147.5,352.5,154.0,355.5,149.0,357.0,140.0,344.5,144.5,346.0,149.0,347.0,155.5,350.5,167.5,347.5,162.0,342.0,159.0,341.5" stroke="yellow" stroke-width="1" fill="none" />
<polyline points="" stroke="orange" stroke-width="1" fill="none" />
<polyline points="157.5,276.5,162.0,279.5,170.5,276.0,160.5,266.5,155.0,265.5,161.5,261.0" stroke="orange" stroke-width="1" fill="none" />
<polyline points="164.5,263.0,170.5,264.0,169.0,266.5,166.0,274.0,170.5,280.0,167.5,275.5" stroke="yellow" stroke-width="1" fill="none" />
<polyline points="" stroke="yellow" stroke-width="1" fill="none" />
<polyline points="155.0,282.0,150.5,274.0,159.0,278.5,158.5,275.5,160.0,284.0,166.0,280.5,167.0,281.5,162.5,285.5,183.0,280.0,170.5,293.5,171.0,282.5,178.5,283.5" stroke="black" stroke-width="1" fill="none" />
<polyline points="168.5,290.0,163.0,291.0,173.0,285.5,158.0,286.5,169.0,287.5,169.0,290.0" stroke="yellow" stroke-width="1" fill="none" />
<polyline points="160.0,286.0,166.5,284.5,159.0,297.5,161.0,290.0,161.0,288.0,159.0,287.0,161.5,288.0,160.0,284.5" stroke="green" stroke-width="1" fill="none" />
<polyline points="148.0,297.5,151.0,292.5,159.5,289.0,158.0,278.5,157.5,276.0,151.5,270.5,153.5,262.0,158.5,266.0,165.0,267.0,165.5,248.0,169.5,255.0,166.0,250.0,165.5,248.0,163.5,243.0,160.0,235.5,168.0,252.5,156.5,253.5,158.0,251.0,149.0,251.0,142.0,259.0,150.0,251.5,138.0,269.0,135.0,255.0,140.5,263.5,122.5,255.0,129.5,269.5,128.0,273.0,133.0,258.5,135.0,252.0,139.0,249.0,128.5,252.5,133.5,243.0,144.0,243.0,134.0,243.0,141.0,241.5,143.0,227.0,131.5,229.0,139.0,226.0,140.5,229.0,135.5,225.5,139.0,217.0,120.0,213.5,129.0,200.0,124.0,200.0,127.0,198.0,113.0,197.0,124.5,192.0,120.5,175.0,118.5,185.0,117.5,181.0,124.0,173.5,116.0,166.5,121.5,155.5,122.0,161.0,114.5,151.5,118.0,142.5,115.5,142.0,118.5,140.5,125.5,140.5,122.5,132.0,125.5,133.0,129.5,125.0,132.5,128.5,132.5,114.5,134.0,122.0,134.5,106.5,139.0,115.5,133.5,97.5,142.5,100.5,140.0,108.5,138.5,99.5,144.5,96.0,139.5,108.5,139.5,107.0,139.5,108.5" stroke="green" stroke-width="1" fill="none" />
<polyline points="131.5,101.0,134.5,113.5,144.0,108.0,140.5,119.0,130.5,132.0,126.5,120.5,134.0,137.0,130.0,134.0,130.0,139.5,134.5,139.0,139.5,152.0,136.0,147.5,127.5,143.0,125.0,148.5,127.5,151.5,124.5,149.5,124.5,156.5,125.5,159.0" stroke="yellow" stroke-width="1" fill="none" />
<polyline points="127.0,151.5,129.5,152.0,135.0,156.0,137.5,154.0,129.5,157.5,124.5,168.5,129.0,166.0,126.0,170.0,131.0,159.0,125.0,165.0,131.0,165.0,127.5,169.5,126.0,177.0,132.0,175.5" stroke="black" stroke-width="1" fill="none" />
<polyline points="146.5,182.5,148.0,187.5,122.0,177.5,134.0,183.5,139.0,175.0,143.5,171.5,138.0,175.0" stroke="green" stroke-width="1" fill="none" />
<polyline points="126.0,176.0,137.0,173.5,132.0,177.0,142.0,178.5,129.0,173.0,136.5,169.0,133.0,173.5,137.5,169.5,141.5,164.5,138.5,165.0" stroke="green" stroke-width="1" fill="none" />
<polyline points="140.5,177.5,138.0,180.0,137.0,182.0" stroke="orange" stroke-width="1" fill="none" />
<polyline points="136.0,177.0,133.5,172.5,146.0,170.0,134.5,163.0" stroke="orange" stroke-width="1" fill="none" />
<polyline points="140.5,180.5,140.0,171.0,143.5,175.5,143.0,192.0,132.5,178.5,147.5,202.0,141.5,195.0,143.0,194.0,151.5,188.5,151.0,194.5" stroke="orange" stroke-width="1" fill="none" />
<polyline points="150.0,198.5" stroke="green" stroke-width="1" fill="none" />
<polyline points="153.5,194.5,149.5,185.5,147.5,195.5,151.0,189.0,151.5,191.0" stroke="orange" stroke-width="1" fill="none" />
<polyline points="" stroke="orange" stroke-width="1" fill="none" />
<polyline points="151.5,201.0,150.5,192.0,146.5,194.5,146.0,194.0,140.0,183.5,142.5,191.5,148.5,179.0,147.5,185.5,145.0,185.0" stroke="orange" stroke-width="1" fill="none" />
<polyline points="155.5,184.5,153.0,191.5,156.0,183.0,147.5,198.5" stroke="yellow" stroke-width="1" fill="none" />
<polyline points="149.5,189.5,147.5,183.5,149.0,186.5" stroke="orange" stroke-width="1" fill="none" />
<polyline points="161.0,178.0,167.5,174.5,170.0,179.5,177.0,170.0,169.5,163.5,177.0,169.0,180.5,155.5,187.0,160.0,187.5,156.0,195.5,149.5,203.5,154.5,203.5,145.5" stroke="black" stroke-width="1" fill="none" />
<polyline points="210.0,154.0,206.0,154.0,204.5,153.5,209.5,151.5,211.0,155.0,211.5,155.0" stroke="green" stroke-width="1" fill="none" />
<polyline points="217.5,155.5,229.0,154.0,223.0,153.5,220.5,154.5,218.5,156.0,212.0,151.0,219.5,154.5,212.5,151.0" stroke="orange" stroke-width="1" fill="none" />
<polyline points="221.0,148.0,216.5,143.5" stroke="orange" stroke-width="1" fill="none" />
<polyline points="226.0,174.0,228.5,162.5,220.5,175.0,219.0,185.5,215.5,193.0,211.5,189.0,208.0,185.5,205.0,196.0,203.5,193.0,201.5,192.0" stroke="green" stroke-width="1" fill="none" />
<polyline points="217.5,188.0,221.0,188.0,216.5,184.5,210.5,187.5,223.0,179.0,220.0,168.0,229.0,176.0,237.0,175.0,239.0,166.0,243.0,165.0,249.0,172.5,247.5,179.0,239.0,174.5,239.5,182.5,241.5,174.0,244.0,176.5" stroke="green" stroke-width="1" fill="none" />
<polyline points="233.0,183.0,230.0,190.5,236.5,184.0,227.5,194.0,222.0,198.0,223.5,190.0,217.0,205.5,198.5,216.0,202.5,211.0,201.0,214.0,203.0,219.5,205.5,228.5,207.5,229.0,215.0,236.0,207.5,234.5,211.5,231.5,213.0,234.5,212.5,231.0" stroke="green" stroke-width="1" fill="none" />
<polyline points="212.5,201.5,206.0,203.0,213.5,206.5,219.0,190.5,220.0,187.0,217.5,194.5,229.5,193.5,232.5,181.5" stroke="green" stroke-width="1" fill="none" />
<polyline points="218.5,199.0,210.0,202.0,214.5,202.5,208.0,201.0,209.0,210.5,202.5,205.5,202.0,208.5,207.5,202.5,221.0,200.5,230.5,197.5,226.0,205.5,225.0,197.0,226.5,194.5,225.5,203.5" stroke="green" stroke-width="1" fill="none" />
<polyline points="211.0,200.5,221.0,191.0,226.5,195.0,228.0,194.0,231.5,193.0" stroke="black" stroke-width="1" fill="none" />
<polyline points="216.0,177.0,217.0,186.5" stroke="orange" stroke-width="1" fill="none" />
<polyline points="231.0,169.0,229.5,173.5,223.5,188.0,230.0,191.5,218.0,199.5,206.5,192.0" stroke="orange" stroke-width="1" fill="none" />
<polyline points="" stroke="orange" stroke-width="1" fill="none" />
<polyline points="" stroke="black" stroke-width="1" fill="none" />
<polyline points="194.0,203.5,203.5,201.0,187.5,198.5,190.5,206.5,194.0,199.0,188.5,205.5,188.5,202.0,190.0,199.0" stroke="orange" stroke-width="1" fill="none" />
<polyline points="189.5,197.5,185.5,201.5,185.5,199.5" stroke="yellow" stroke-width="1" fill="none" />
<polyline points="183.5,205.5,188.5,208.5,194.0,210.0,192.0,223.0,183.5,216.0,187.5,223.5,195.5,219.0,190.0,209.0,184.0,202.5,183.0,205.5" stroke="black" stroke-width="1" fill="none" />
<polyline points="" stroke="black" stroke-width="1" fill="none" />
<polyline points="175.5,212.0,188.5,212.5,180.5,215.5,185.5,218.0,182.5,208.0,185.5,209.5" stroke="orange" stroke-width="1" fill="none" />
<polyline points="" stroke="green" stroke-width="1" fill="none" />
<polyline points="166.0,213.5,166.5,217.0,161.5,223.5,167.5,226.0,166.0,229.0,168.0,223.0" stroke="yellow" stroke-width="1" fill="none" />
<polyline points="185.0,218.5,179.0,226.5,167.5,221.0,156.0,228.5,182.5,242.0,174.5,235.5,170.5,234.0,171.5,232.5,177.0,233.5" stroke="yellow" stroke-width="1" fill="none" />
<polyline points="172.5,242.5,161.5,244.0,164.0,245.5,163.0,247.5" stroke="black" stroke-width="1" fill="none" />
<polyline points="157.0,260.0,154.5,259.0,150.5,272.0,132.0,257.0,133.5,269.0,129.5,276.0,130.5,270.5,124.0,278.5,119.0,264.0,112.5,260.0,124.0,262.5,113.0,266.0" stroke="yellow" stroke-width="1" fill="none" />
<polyline points="115.5,267.5,116.0,267.5" stroke="black" stroke-width="1" fill="none" />
<polyline points="111.0,274.5,117.0,278.5,106.5,286.5,108.5,287.5,107.5,301.5,106.0,300.5,97.5,305.5,87.5,309.5,87.0,310.5,86.0,313.0,80.5,325.0,82.5,325.0,86.5,339.0,83.0,334.0,87.0,343.0,78.5,340.0,83.0,349.0,87.0,345.5,77.5,355.5,77.5,356.0,71.5,357.5,65.5,356.0,72.0,359.5,63.0,358.5,76.5,350.5,73.0,346.0,90.5,333.0,88.0,333.5,92.5,328.5,94.5,328.0" stroke="black" stroke-width="1" fill="none" />
<polyline points="91.5,326.5,96.5,333.0,94.5,323.0,91.5,333.5,84.5,335.5,85.0,345.5,78.0,340.0,82.5,345.5,75.0,352.0,70.5,357.0,66.0,358.5,57.5,365.5,62.5,366.5,64.5,370.5,68.5,366.0,73.0,353.0,72.5,347.0,78.0,345.0,83.5,346.5,86.5,336.5,78.5,349.0,96.5,344.0,90.5,344.0,81.5,351.0,87.0,360.5,70.5,355.0,84.0,377.0,80.5,366.0,78.5,370.5,82.0,367.5,84.0,372.0,85.0,349.0,85.5,360.5,95.0,346.5" stroke="orange" stroke-width="1" fill="none" />
<polyline points="107.5,347.5,93.5,352.0,105.0,356.5,104.0,372.0,103.5,365.5,93.0,379.5,102.0,376.0,103.5,372.5,103.5,373.5,104.5,373.0,102.0,373.5" stroke="orange" stroke-width="1" fill="none" />
<polyline points="108.5,369.5,110.0,360.5,105.5,357.0,104.5,359.5,101.0,360.5,98.0,354.0,97.0,357.0,96.5,357.5" stroke="yellow" stroke-width="1" fill="none" />
<polyline points="104.5,358.5,106.5,362.5,104.5,364.5,114.0,364.5,109.5,362.5,112.5,366.5,111.0,366.0,111.0,363.5" stroke="green" stroke-width="1" fill="none" />
<polyline points="109.0,358.0" stroke="black" stroke-width="1" fill="none" />
<polyline points="119.5,349.0,126.5,357.0,125.0,366.0,135.0,355.0,132.5,370.5" stroke="green" stroke-width="1" fill="none" />
<polyline points="" stroke="yellow" stroke-width="1" fill="none" />
<polyline points="77.5,366.0,85.5,351.0,82.0,349.0,94.0,348.5,74.0,354.0,71.5,355.0,69.0,364.0,77.0,361.5,64.5,379.0,77.0,373.0,72.0,369.5,80.5,368.5,81.5,367.5" stroke="yellow" stroke-width="1" fill="none" />
<polyline points="83.5,384.5,80.5,386.0,78.5,380.5,74.0,391.0,68.0,395.5,60.5,389.5,60.5,395.5,51.5,400.0,57.0,402.5,62.0,394.0,74.0,388.0,81.0,384.0,77.0,384.5,78.0,381.5,66.5,381.5,58.0,391.0,67.0,396.0,62.5,388.5,56.0,404.5,68.0,400.5,70.5,396.5,71.5,383.0,81.0,384.5,83.0,381.5,83.0,372.0,93.5,371.5,89.0,369.5,80.5,361.5,91.5,351.0,93.5,356.5,90.0,349.5,93.0,352.5,94.5,358.5,96.0,341.0,99.0,349.5,95.5,345.5,88.0,364.5,93.0,345.0,95.0,339.0,101.0,341.0,104.0,327.5,89.0,329.5,96.0,324.0,98.0,312.0,98.5,319.0,94.5,310.5,99.5,311.5,104.5,308.0,104.0,295.0,108.0,309.5,95.0,315.0,102.0,321.5,98.0,318.5,92.5,312.5,99.5,310.0" stroke="black" stroke-width="1" fill="none" />
<polyline points="85.5,311.5,89.5,313.5,87.5,315.0,83.5,304.5,98.5,303.5,98.0,305.0,118.5,290.0,105.0,290.5,108.0,291.5,114.0,288.5,112.5,287.5,116.5,286.0,116.0,281.5" stroke="orange" stroke-width="1" fill="none" />
<polyline points="93.5,300.0,91.5,311.5,84.5,305.0,81.0,305.0,82.5,305.5" stroke="black" stroke-width="1" fill="none" />
<polyline points="86.5,294.0,91.0,301.5,80.0,300.5,82.0,297.0,95.5,296.5,92.5,298.0" stroke="orange" stroke-width="1" fill="none" />
<polyline points="88.5,292.0,87.0,289.0,85.0,296.0,94.5,290.0,100.5,295.5,92.0,284.0,104.0,293.0,103.0,288.0" stroke="yellow" stroke-width="1" fill="none" />
<polyline points="105.5,274.5,106.0,276.5,115.0,274.5" stroke="green" stroke-width="1" fill="none" />
<polyline points="105.0,270.5,111.5,270.0,107.5,271.0,109.0,269.5,103.5,284.0,100.0,281.5,89.5,283.0,80.0,287.5,93.0,288.5,90.5,282.5,104.5,276.0,92.0,281.5,118.0,291.0,109.5,284.5,123.5,288.5,119.0,290.5,123.5,291.0,125.5,288.0" stroke="orange" stroke-width="1" fill="none" />
<polyline points="122.0,282.5,111.0,285.5,108.5,285.5,99.5,288.5,93.5,287.5,99.5,291.5,85.0,290.5,86.0,296.5,94.0,291.5,95.0,293.5,93.0,293.5" stroke="green" stroke-width="1" fill="none" />
<polyline points="96.0,265.0,99.0,260.5,114.0,253.0,92.0,264.5,95.5,273.0,100.0,283.0,92.0,284.0,90.5,282.0,90.5,267.0,101.5,270.5,97.0,279.0,106.5,279.0,108.0,274.5,110.0,289.0,110.5,269.5,113.5,283.0,134.5,268.5,132.5,266.0,135.0,266.5,132.0,265.0" stroke="yellow" stroke-width="1" fill="none" />
<polyline points="132.5,264.5,132.5,268.0,123.0,272.5,121.0,276.0,102.5,289.0,95.0,286.0,97.0,303.5,99.5,294.0,88.0,311.5,77.5,310.5,88.5,306.0,81.5,314.0,75.0,319.5,78.0,316.5,77.5,314.5,79.5,308.5,77.0,310.0" stroke="green" stroke-width="1" fill="none" />
<polyline points="" stroke="orange" stroke-width="1" fill="none" />
<polyline points="130.0,301.5,124.0,311.5,124.0,309.5,118.0,316.5,113.0,312.0,115.5,336.0,108.0,316.5,96.0,326.0" stroke="green" stroke-width="1" fill="none" />
<polyline points="68.5,322.0,67.5,322.5,68.0,328.0,63.5,323.5,75.0,329.5,71.0,321.0,71.5,311.5,74.0,316.0,76.5,308.0,75.5,307.0,73.5,313.0,77.5,308.5" stroke="orange" stroke-width="1" fill="none" />
<polyline points="" stroke="yellow" stroke-width="1" fill="none" />
<polyline points="74.5,309.5,75.0,312.0,82.0,306.5,90.5,308.5,97.5,297.5,96.5,299.0" stroke="orange" stroke-width="1" fill="none" />
<polyline points="93.5,312.5,98.5,322.0,106.5,313.0,103.0,317.5,107.0,304.0,107.0,304.0,100.5,307.0,102.5,307.5" stroke="yellow" stroke-width="1" fill="none" />
<polyline points="106.0,286.5,110.5,288.0,106.5,286.0,101.5,290.5,102.0,287.0,105.0,287.0,98.0,285.5,104.5,290.5,107.0,292.0,108.5,283.5,109.5,287.5" stroke="orange" stroke-width="1" fill="none" />
<polyline points="111.5,288.0,97.0,295.0,108.5,287.0,110.0,285.0,108.0,284.0" stroke="black" stroke-width="1" fill="none" />
<polyline points="89.5,284.0,93.5,273.5,92.5,279.5" stroke="yellow" stroke-width="1" fill="none" />
<polyline points="112.5,293.0,121.5,292.5,115.0,285.0,108.5,306.5,102.5,309.5,102.0,307.0,102.5,322.0,100.0,316.5,105.0,327.5,101.5,335.0,99.5,331.0,100.0,344.5,95.5,343.0,100.0,340.0,103.5,338.0,108.0,328.0,113.0,331.0,120.0,315.5,126.5,303.0,114.0,296.5,129.5,291.5,130.5,296.5,128.0,311.5,132.0,312.5" stroke="black" stroke-width="1" fill="none" />
<polyline points="126.5,320.5,134.5,316.0,129.5,320.0,129.0,334.0,139.0,336.0" stroke="orange" stroke-width="1" fill="none" />
<polyline points="120.5,312.5,128.0,314.0,121.5,319.5,129.0,331.5,103.5,328.5,115.5,343.0,107.5,347.0,96.0,341.5,100.5,344.0,93.0,340.5,94.5,353.0,98.0,351.5,90.0,354.5,101.5,360.0,96.5,368.5,94.0,365.5,94.5,372.0,92.5,383.0,94.5,386.0" stroke="orange" stroke-width="1" fill="none" />
<polyline points="79.0,392.0,75.0,403.0,77.0,403.5,74.5,412.5,65.0,409.5" stroke="orange" stroke-width="1" fill="none" />
<polyline points="" stroke="orange" stroke-width="1" fill="none" />
<polyline points="130.0,294.0,129.0,294.5,125.5,303.0,115.5,310.0,110.5,314.5,102.5,323.0,113.5,305.0,102.5,302.5,115.5,303.5,118.0,299.5,120.5,294.5" stroke="green" stroke-width="1" fill="none" />
<polyline points="" stroke="green" stroke-width="1" fill="none" />
<polyline points="" stroke="yellow" stroke-width="1" fill="none" />
<polyline points="140.0,230.5,142.5,235.5,138.0,243.5,134.5,247.0,148.0,245.0,144.5,243.5" stroke="orange" stroke-width="1" fill="none" />
<polyline points="141.5,234.0,133.5,245.5,137.0,249.5" stroke="green" stroke-width="1" fill="none" />
<polyline points="144.0,238.0,131.0,220.0,139.5,226.5,136.5,224.5,140.5,220.0,143.5,220.5,144.5,214.5" stroke="yellow" stroke-width="1" fill="none" />
<polyline points="148.5,210.0,147.5,213.5" stroke="black" stroke-width="1" fill="none" />
<polyline points="149.5,207.0,150.5,211.0,148.5,209.0" stroke="orange" stroke-width="1" fill="none" />
<polyline points="138.5,192.5,137.0,193.5,132.0,187.0,138.5,196.5,144.5,182.5,150.0,177.0,141.5,173.0,135.0,187.5,139.5,187.5" stroke="green" stroke-width="1" fill="none" />
<polyline points="" stroke="orange" stroke-width="1" fill="none" />
<polyline points="152.0,178.0,150.5,186.5,143.0,187.0,135.0,187.0,134.0,186.0" stroke="orange" stroke-width="1" fill="none" />
<polyline points="" stroke="green" stroke-width="1" fill="none" />
<polyline points="149.0,192.5,163.0,190.5,141.0,209.0,147.0,216.5,140.5,210.0,145.0,208.5,147.0,209.0" stroke="green" stroke-width="1" fill="none" />
<polyline points="121.0,194.5,122.0,198.0,122.0,196.5" stroke="green" stroke-width="1" fill="none" />
<polyline points="113.5,221.5,118.5,221.0,115.5,234.0,109.0,231.5,120.5,229.5,114.5,232.0" stroke="black" stroke-width="1" fill="none" />
<polyline points="114.5,231.0,114.0,219.0,113.0,227.5" stroke="green" stroke-width="1" fill="none" />
<polyline points="118.5,255.0,120.0,254.5,108.0,262.0,117.0,257.0,117.0,258.0,125.0,254.5,125.5,252.5,125.5,241.5,138.0,240.0,142.5,233.5,148.0,233.0,159.5,229.5,157.5,224.0,161.5,226.5,156.0,227.0,159.0,231.5" stroke="green" stroke-width="1" fill="none" />
<polyline points="135.5,234.5,139.5,242.0,141.0,249.0,135.0,250.5,132.0,261.0,137.0,275.5,142.0,268.5,141.0,264.5,125.5,274.0,131.0,269.5,139.5,276.0,134.5,275.5" stroke="yellow" stroke-width="1" fill="none" />
<polyline points="153.0,259.0,153.5,253.0,158.5,249.5,156.0,248.0,159.5,247.5,162.0,249.5" stroke="orange" stroke-width="1" fill="none" />
<polyline points="167.0,227.0,163.5,240.0,167.5,224.5" stroke="yellow" stroke-width="1" fill="none" />
<polyline points="164.5,230.0" stroke="yellow" stroke-width="1" fill="none" />
<polyline points="170.5,230.5,168.0,231.0,164.5,234.0,158.5,242.5,161.0,253.5,158.5,246.5,139.5,254.0,156.0,251.0,156.0,258.0,151.5,263.0,149.0,267.5,128.0,264.0,135.0,276.5,127.0,281.0,126.5,281.5,128.0,287.5,129.5,292.5,127.5,303.0,126.5,305.0,121.0,318.5,125.0,314.5,117.5,324.0,114.5,325.5,122.5,336.5,123.0,333.5,118.5,339.5,121.0,333.0,114.5,332.5,123.5,342.5,136.5,347.0,136.5,349.5,134.5,361.0,135.5,357.0,132.0,357.0,142.0,369.0,139.5,371.5,146.0,370.0,139.5,379.5,145.0,376.0,137.5,392.0,143.0,389.0,149.0,407.0,148.0,387.5,143.5,393.5,141.5,398.5,150.5,404.5,142.5,405.0,152.5,409.5,148.0,412.5,159.0,412.5,164.5,417.5,163.5,418.5" stroke="yellow" stroke-width="1" fill="none" />
<polyline points="161.5,410.0" stroke="orange" stroke-width="1" fill="none" />
<polyline points="" stroke="yellow" stroke-width="1" fill="none" />
<polyline points="" stroke="green" stroke-width="1" fill="none" />
<polyline points="198.0,423.0,201.0,420.5,196.0,426.0,194.0,428.0,193.5,434.0" stroke="green" stroke-width="1" fill="none" />
<polyline points="205.5,398.5,202.5,393.0,197.0,405.0,197.0,396.0,200.5,399.5" stroke="yellow" stroke-width="1" fill="none" />
<polyline points="190.5,392.5,186.5,394.5,191.0,404.0,192.0,402.5,187.0,407.0,182.0,420.0,183.0,414.5,191.5,418.0,185.5,421.0,185.0,429.5,199.0,432.5,180.0,429.0,185.0,437.5,180.5,437.5,192.0,446.0,191.5,438.5,199.0,451.0,201.0,451.0,198.0,448.0" stroke="green" stroke-width="1" fill="none" />
<polyline points="379.5,352.5,372.0,355.5,372.5,346.0,374.0,349.0,381.0,345.0,383.5,344.0,385.0,335.5,376.0,327.0,380.0,322.5,379.5,316.0,376.0,309.5,363.5,317.0,375.0,313.0,381.0,313.5" stroke="orange" stroke-width="1" fill="none" />
<polyline points="374.5,283.5,381.0,276.5,384.5,283.0,379.0,282.5,388.0,275.5,385.5,268.5,385.5,271.5,383.5,268.0,384.5,263.5,388.0,264.0,388.5,264.0,391.0,263.0" stroke="green" stroke-width="1" fill="none" />
<polyline points="364.5,278.5,373.5,276.5,363.0,277.0,363.0,282.5,367.0,287.5,361.5,286.5,364.0,296.0,370.5,296.5,362.5,306.0,361.5,302.5,355.0,310.0,359.0,310.0,360.0,307.5" stroke="green" stroke-width="1" fill="none" />
<polyline points="339.5,275.0,341.0,272.5,341.0,275.0,344.5,286.0,338.0,280.0,327.0,281.0,320.0,261.0,317.5,259.5,313.5,277.0,323.5,268.5,328.5,268.5,324.5,276.0,319.5,278.0" stroke="orange" stroke-width="1" fill="none" />
<polyline points="322.0,269.5,325.5,266.0,323.0,268.0,330.0,266.0,336.0,274.5,325.0,276.0" stroke="orange" stroke-width="1" fill="none" />
<polyline points="323.5,276.5,330.0,275.5,316.5,269.5,323.0,263.5,327.0,260.0,335.0,253.5,332.5,253.5,331.0,257.5,333.0,256.5" stroke="orange" stroke-width="1" fill="none" />
<polyline points="364.0,268.5,368.0,275.5,363.5,275.0,358.0,271.0,354.5,275.0" stroke="green" stroke-width="1" fill="none" />
<polyline points="291.0,235.5,283.0,231.0,281.5,226.0,283.0,229.0" stroke="green" stroke-width="1" fill="none" />
<polyline points="274.5,221.0,272.5,218.0,270.5,197.5,282.0,200.0,271.0,207.5,285.5,201.0,288.5,192.5,286.5,188.5,293.0,184.5,299.0,192.0,300.5,186.0,306.5,184.0,308.0,177.0,309.5,182.5" stroke="green" stroke-width="1" fill="none" />
<polyline points="319.5,170.5,315.5,176.5,300.0,175.5,297.5,177.0,297.0,185.0,295.5,184.5,291.0,194.0,282.5,193.5,282.0,200.0,277.0,195.5,269.5,202.0,262.0,205.0,263.0,213.5,270.0,211.0,266.5,223.5,250.5,222.5,255.0,229.5,248.0,230.0,247.5,237.0,245.5,249.0,233.5,241.0,235.5,250.0,235.0,261.0,225.5,265.0,221.5,259.0,213.5,278.5,206.5,283.0,209.0,289.0,203.5,302.5,194.0,306.0,203.5,326.0,198.0,317.5,199.0,312.5,197.5,313.5,206.5,306.0,195.5,295.0,199.5,297.0,204.5,296.5,211.0,285.0,212.0,291.0,208.5,287.5,216.5,276.0,219.0,280.0,220.5,270.0,222.0,264.5,226.0,264.0,221.5,253.0,229.0,259.0,234.5,246.5,231.5,242.0,237.5,237.5,245.0,236.5,245.5,229.0,256.0,227.5,246.5,225.0,262.0,222.5,261.5,219.0,252.5,204.5,263.5,216.5,263.5,199.0,264.0,200.5" stroke="orange" stroke-width="1" fill="none" />
<polyline points="256.5,211.5,266.0,206.0,261.0,206.5" stroke="green" stroke-width="1" fill="none" />
<polyline points="" stroke="yellow" stroke-width="1" fill="none" />
<polyline points="210.0,199.5,219.5,180.5,215.0,182.0,225.0,184.0,219.5,181.5,228.0,173.0,231.0,178.5,229.0,183.5" stroke="orange" stroke-width="1" fill="none" />
<polyline points="227.0,185.5,210.0,185.0,217.5,181.0,221.5,196.0,200.0,201.0,217.0,191.0,211.0,200.0,220.0,199.0,219.5,198.5,230.5,191.0,235.0,192.0,241.0,194.0,230.0,180.5,228.5,183.0" stroke="orange" stroke-width="1" fill="none" />
<polyline points="254.0,176.5,241.0,180.5,242.0,184.5,239.5,179.0,240.5,175.5,240.5,180.5,249.5,181.5" stroke="black" stroke-width="1" fill="none" />
<polyline points="258.0,177.0,248.0,177.0,240.5,180.5,253.5,183.0,241.5,198.0,241.5,200.5,234.0,201.0,234.0,210.0,234.5,214.5,227.5,204.0,242.5,209.0,238.5,207.5,238.5,211.0,238.0,213.5,243.5,215.0,240.0,214.0" stroke="yellow" stroke-width="1" fill="none" />
<polyline points="268.5,185.5,270.0,186.5,260.5,196.5,259.5,193.0,252.5,208.0,247.5,204.5,252.5,202.0,261.5,201.0,249.5,201.0,261.0,202.0,263.0,203.0" stroke="yellow" stroke-width="1" fill="none" />
<polyline points="266.0,187.5,277.5,191.0,262.0,186.5,263.5,184.5,258.5,190.5,258.5,180.5,262.0,184.0" stroke="green" stroke-width="1" fill="none" />
<polyline points="252.5,184.5,243.0,194.0,245.0,198.5,248.5,205.0,249.0,190.5,249.5,195.5,248.0,193.0,251.0,187.0,254.0,190.5,254.5,179.0,258.0,185.0,267.5,185.0,262.0,182.0" stroke="yellow" stroke-width="1" fill="none" />
<polyline points="260.5,178.5,269.5,180.0,272.0,177.5,274.0,185.0,275.0,177.0,284.0,180.0,285.0,174.0,291.5,182.0,291.5,180.0,286.0,188.0,290.0,193.5,283.5,193.5,269.0,201.5,276.5,192.0,276.5,192.5,267.0,195.0,261.0,198.5,280.5,186.5,273.5,199.5,285.5,187.0,292.0,182.0,286.5,187.5,290.0,179.0,299.0,169.5,301.5,171.0,301.0,174.0,318.5,171.0,314.5,167.5,325.5,169.5,324.5,162.0,335.5,166.0,331.0,157.0,332.5,153.5,329.5,158.5,339.0,152.0,340.0,146.5,339.0,147.0" stroke="black" stroke-width="1" fill="none" />
<polyline points="305.0,175.0,304.5,179.5,303.0,174.0,299.5,187.0,290.5,193.0,290.5,187.5,282.0,199.5,272.5,192.5,262.0,214.5,267.0,214.0,275.5,203.5,263.0,214.5,262.0,214.5,271.0,214.0,260.5,224.0,269.5,228.5,264.5,232.5,272.0,240.5,269.5,239.0,262.0,242.5,269.5,240.0" stroke="yellow" stroke-width="1" fill="none" />
<polyline points="263.0,187.5" stroke="yellow" stroke-width="1" fill="none" />
<polyline points="261.0,163.5,253.5,159.0,257.0,161.0,245.0,163.5,242.5,164.0,247.0,161.5,246.5,159.5,243.5,160.5,246.5,155.5" stroke="black" stroke-width="1" fill="none" />
<polyline points="" stroke="black" stroke-width="1" fill="none" />
<polyline points="255.0,177.5,256.5,171.0,260.5,173.5,257.5,175.5,262.5,183.5,257.5,181.0" stroke="orange" stroke-width="1" fill="none" />
<polyline points="248.0,138.5,253.5,134.5,258.0,130.0,257.0,131.0,263.5,130.0,254.0,138.5,247.5,130.5,254.0,140.0" stroke="black" stroke-width="1" fill="none" />
<polyline points="" stroke="orange" stroke-width="1" fill="none" />
<polyline points="213.5,153.0,221.0,150.5,220.0,156.5" stroke="yellow" stroke-width="1" fill="none" />
<polyline points="217.0,140.0,222.5,141.5,215.5,140.5,217.5,142.5" stroke="black" stroke-width="1" fill="none" />
<polyline points="205.5,151.0,202.0,147.5,211.0,140.0,218.0,149.0,213.0,161.0" stroke="green" stroke-width="1" fill="none" />
<polyline points="190.0,166.0,189.0,164.0,200.5,159.0,211.5,148.5,194.5,160.0,194.5,153.5" stroke="yellow" stroke-width="1" fill="none" />
<polyline points="201.5,164.0,201.0,160.0,201.5,173.5,194.0,182.0,187.0,172.5,184.0,179.0,182.0,179.0,169.0,185.0,178.0,194.0,166.5,190.0,170.0,202.0,160.0,202.5,165.5,193.5,177.0,193.0,184.0,192.0,177.0,178.5,191.0,182.0,183.0,170.5,195.5,166.5,201.5,172.0,204.5,159.5,202.0,165.0" stroke="yellow" stroke-width="1" fill="none" />
<polyline points="207.0,182.5,210.0,181.5,202.0,185.5,210.5,204.0,205.0,200.5,204.0,196.5,192.0,197.0" stroke="yellow" stroke-width="1" fill="none" />
<polyline points="" stroke="black" stroke-width="1" fill="none" />
<polyline points="201.0,137.5,207.5,136.0,217.0,131.0,220.5,137.0,218.0,127.0,225.0,128.0,226.0,124.0" stroke="yellow" stroke-width="1" fill="none" />
<polyline points="214.5,145.5,201.0,146.5,207.5,142.5,204.0,132.5,217.5,125.5,219.0,129.5,226.5,121.5,230.5,112.0,239.0,115.0,238.5,124.0,236.0,121.0,236.0,119.5" stroke="yellow" stroke-width="1" fill="none" />
<polyline points="232.0,111.0,228.5,133.5,226.5,127.5,197.5,148.5,196.5,143.5,200.0,149.5,203.5,142.0,196.0,154.5,190.0,159.0,197.5,164.5,172.5,167.0,176.0,169.5,161.5,168.5,162.5,178.0,169.5,181.5,157.5,196.0,152.5,189.5,152.0,190.5,158.0,196.5,148.5,199.0,150.0,204.5,148.5,211.0,146.5,212.5,150.0,215.0,153.0,224.5,139.5,222.5,141.5,224.0,145.0,236.0,140.5,238.0,136.5,244.5,134.0,235.5,128.0,242.5,129.5,253.5,128.5,259.0,129.0,259.0,133.5,260.0,129.0,256.5" stroke="black" stroke-width="1" fill="none" />
<polyline points="" stroke="yellow" stroke-width="1" fill="none" />
<polyline points="" stroke="orange" stroke-width="1" fill="none" />
<polyline points="152.0,149.5,156.0,138.5,155.0,126.0,158.5,127.5,157.5,117.0,154.0,121.0,159.0,120.5,155.5,124.5" stroke="green" stroke-width="1" fill="none" />
<polyline points="181.5,137.0,176.5,136.0,176.0,139.0,187.0,123.0,190.0,118.0,180.0,127.0,185.5,123.0,184.5,124.0,190.5,120.0" stroke="black" stroke-width="1" fill="none" />
<polyline points="183.5,125.0,189.5,126.0,163.0,122.0,172.0,124.0,171.0,122.0,189.5,123.0,189.5,124.0,188.5,124.5,183.0,116.5,193.5,122.5,194.0,120.0" stroke="green" stroke-width="1" fill="none" />
<polyline points="176.0,131.0,185.5,131.5" stroke="orange" stroke-width="1" fill="none" />
<polyline points="" stroke="yellow" stroke-width="1" fill="none" />
<polyline points="203.5,111.0,198.5,110.0,202.5,108.0" stroke="yellow" stroke-width="1" fill="none" />
<polyline points="234.0,129.0,230.0,130.5,228.5,131.0,217.5,118.0,220.0,135.0,214.5,138.0,208.5,144.5,202.0,131.0,196.0,147.0,198.0,155.0,197.5,156.0,205.5,148.5,210.5,138.5,216.0,135.5,219.5,135.5,229.0,130.5" stroke="yellow" stroke-width="1" fill="none" />
<polyline points="255.5,130.5,252.0,150.0,257.5,143.5,233.5,157.5,240.5,153.0,235.5,143.0,232.5,149.0,229.5,149.5,225.0,161.5,228.0,150.0,237.5,152.5,239.5,140.5,245.0,139.5,256.0,133.5,266.5,129.0,260.0,131.5,270.5,124.0,272.0,113.0,264.0,114.0" stroke="yellow" stroke-width="1" fill="none" />
<polyline points="286.5,148.0,283.0,152.0,288.5,147.0,291.5,144.0,293.0,146.0" stroke="green" stroke-width="1" fill="none" />
<polyline points="300.5,141.5,297.5,142.0,301.0,138.0,303.5,143.5" stroke="yellow" stroke-width="1" fill="none" />
<polyline points="298.0,181.5,299.5,185.5,284.5,188.5,294.0,199.0,283.0,201.5,282.5,207.0,276.0,203.0,277.0,206.5,271.0,211.0,266.5,211.5" stroke="orange" stroke-width="1" fill="none" />
<polyline points="233.5,94.5,236.5,102.5,227.0,101.0,225.5,99.5,231.5,107.0,226.5,98.5,238.5,97.5,238.0,98.0" stroke="green" stroke-width="1" fill="none" />
<polyline points="" stroke="black" stroke-width="1" fill="none" />
<polyline points="246.0,90.0,244.5,94.5,244.0,89.5" stroke="black" stroke-width="1" fill="none" />
<polyline points="260.5,85.0,253.5,93.0,255.0,86.0,255.5,94.0,248.5,98.0,241.0,102.0,238.0,108.0,233.5,106.5,226.0,105.0,233.5,114.0,218.0,118.0,223.5,116.5,223.0,118.0,208.5,113.0,206.5,132.0,205.0,135.0,202.0,130.5,199.0,128.0,187.5,146.5,177.0,149.5,177.5,153.5,176.5,148.5,175.5,148.0,176.0,162.5,171.5,163.0,171.5,160.5,159.0,166.0,164.5,168.0,156.5,168.5,160.5,170.0,170.5,167.0,170.0,163.0,185.0,157.5,180.5,144.0,187.0,135.0,194.5,142.5,193.0,129.5,203.5,142.0,216.5,124.5,216.0,128.0,217.0,123.0,215.0,103.5,222.5,115.5,230.5,103.0,234.5,115.5,237.5,96.0,246.0,98.0,259.0,93.0,268.0,89.0,266.5,88.0,260.5,87.5" stroke="yellow" stroke-width="1" fill="none" />
<polyline points="237.0,85.0,235.0,81.0,232.0,91.0,238.0,88.0,245.5,95.5,234.5,85.0,240.5,84.5,240.0,83.5" stroke="black" stroke-width="1" fill="none" />
<polyline points="" stroke="black" stroke-width="1" fill="none" />
<polyline points="226.5,46.0,238.5,52.0,237.0,51.5,248.0,45.5,253.5,59.0,249.0,47.0,254.0,56.0,255.5,63.0,265.0,52.5,278.5,61.0,274.0,58.0,272.5,71.5,276.5,67.5,282.0,66.5,282.5,72.5,278.0,71.5,295.5,77.5,293.5,80.5,296.5,88.0,307.0,92.5,307.0,101.0,320.5,102.0,315.5,97.0,335.0,117.0,323.5,116.0,336.0,127.5,330.5,122.0,333.0,125.0,337.0,132.0,356.5,144.5,347.0,142.0,355.0,150.0,355.5,147.0,355.5,138.5,367.5,139.0,373.5,141.0,370.0,133.0,381.5,131.5,386.0,128.0,391.0,135.5,396.0,113.5,391.5,116.0,401.5,120.5,400.5,112.0,410.5,107.5,409.0,118.5,420.0,126.0,417.0,112.0,412.0,113.5,412.0,116.0" stroke="orange" stroke-width="1" fill="none" />
<polyline points="408.0,113.5,410.0,119.0,411.0,129.5,412.0,131.0,414.5,136.0,424.0,130.0,423.5,142.0,422.0,142.5,424.5,148.0,408.5,148.5,416.5,155.0,413.0,161.5,413.0,166.0,409.0,176.0,408.0,175.5,412.0,179.5,398.5,181.5,408.0,175.0,412.0,178.5,398.5,186.0,392.5,188.0,394.5,196.5,375.0,204.0,383.0,203.0,372.0,213.0,374.5,203.0,368.5,217.0,362.0,209.5,373.0,211.5,371.5,205.0,382.5,210.5,384.5,207.0,393.5,201.0,396.0,194.0,394.0,191.5,399.0,187.5,402.5,183.0,406.0,172.5,407.0,175.5,417.0,180.0" stroke="green" stroke-width="1" fill="none" />
<polyline points="370.0,125.0,370.0,122.5,362.5,127.0,369.0,123.0,368.0,118.5" stroke="yellow" stroke-width="1" fill="none" />
<polyline points="387.5,109.0,383.0,102.0,388.0,101.5,390.0,110.5" stroke="black" stroke-width="1" fill="none" />
<polyline points="382.5,113.0,390.0,101.0,385.0,97.5" stroke="black" stroke-width="1" fill="none" />
<polyline points="424.5,44.0,424.0,47.0,413.5,33.0,416.5,27.5,416.5,21.5,417.5,22.5" stroke="orange" stroke-width="1" fill="none" />
<polyline points="512.5,70.5,514.5,79.0,508.5,79.5,504.5,86.0,503.5,86.0,495.5,96.5,485.0,108.0,482.5,105.5,493.5,114.5,480.0,106.0,473.5,115.0,477.5,123.0,475.5,125.5,469.5,126.0,470.0,131.5,468.5,134.5,465.5,136.0,465.0,152.5,458.0,146.0,460.5,157.5,454.5,159.0,451.0,167.0,449.0,165.5,447.5,167.0,445.0,168.5,445.5,175.5,427.0,192.0,434.0,194.5,431.5,188.5,436.0,196.5,430.5,203.5,432.0,209.0,428.5,203.5,417.0,200.5,420.5,214.0,418.5,219.0,420.5,225.5,420.0,230.5,422.0,236.5,414.0,232.0,418.5,237.5,413.5,245.0,403.0,241.0,410.0,250.5,419.5,261.5,401.5,263.0,406.0,260.0,408.5,271.5,405.5,272.0,402.5,276.5,396.0,279.5,403.5,280.0,392.5,291.5,398.0,290.5,406.5,292.0,399.0,301.5,395.0,297.5,395.0,307.5,392.5,306.5,397.5,310.0,391.5,318.0,394.5,314.5,389.0,326.0,390.5,327.0,380.5,340.0,391.5,329.5,392.5,338.0,389.0,335.5" stroke="orange" stroke-width="1" fill="none" />
<polyline points="343.5,138.5,343.0,129.5,331.0,135.0,339.0,133.5,336.0,125.0,329.5,119.0,335.0,118.0,322.0,112.0,333.5,106.5,312.5,100.0,312.5,96.0,303.0,90.0,307.0,99.0,303.5,92.5,303.5,84.5,295.5,73.5,296.0,80.0,299.0,75.5,284.5,62.0,274.0,73.5,277.0,64.5,257.0,56.0,268.5,44.0,257.0,52.0" stroke="black" stroke-width="1" fill="none" />
<polyline points="" stroke="yellow" stroke-width="1" fill="none" />
<polyline points="173.5,58.5,158.5,67.0,158.5,63.0" stroke="black" stroke-width="1" fill="none" />
<polyline points="161.0,79.5,151.0,68.5,146.5,77.5,159.0,72.5,162.5,69.0,158.5,80.0,161.5,70.5" stroke="yellow" stroke-width="1" fill="none" />
<polyline points="150.5,74.5,150.5,80.0" stroke="yellow" stroke-width="1" fill="none" />
</svg>