<svg xmlns="http://www.w3.org/2000/svg" width="1024" height="1024" version="1.1" fill="white"><polyline points="409.5,12.5,408.5,8.0,410.5,17.5,410.5,25.0,407.0,22.0,419.5,32.5,423.5,29.5,416.0,29.0,434.5,29.5,427.5,29.5,425.5,53.5,439.0,51.0,435.0,52.0,442.0,63.0,430.5,59.5,433.5,71.5,433.5,70.0,442.5,67.0" stroke="black" stroke-width="1" fill="none" />
<polyline points="442.5,46.5,436.5,38.0,434.5,33.0,435.0,23.0,431.0,13.0" stroke="black" stroke-width="1" fill="none" />
<polyline points="430.0,15.5,428.0,8.0,436.5,12.5,441.0,23.0,437.0,32.5,440.5,37.5,443.5,37.5,442.5,37.0,447.5,43.5,441.5,40.5,440.5,51.0,457.0,62.5,460.0,65.5,447.0,67.5,456.5,76.5,431.0,67.5,443.0,68.0,434.5,82.5,437.0,82.5,426.5,81.5,436.5,93.5,436.5,94.0,421.0,107.0,425.0,104.0,413.0,106.5,419.5,108.0,414.0,109.0,408.5,111.0,427.5,100.5,435.5,95.5,431.5,83.5,436.5,80.5,440.5,73.5,448.0,80.5,456.5,66.0,446.5,60.5,461.5,47.5,468.5,54.0,466.0,45.5,459.5,42.5,474.5,40.5,478.0,40.0,488.0,24.5,480.5,25.5,492.0,28.5,494.0,16.0,511.5,15.0" stroke="yellow" stroke-width="1" fill="none" />
<polyline points="511.0,15.5,509.0,17.5,495.0,25.0,488.5,28.0,490.5,22.0,482.5,28.5,480.5,32.5,484.5,37.0,469.5,46.5,470.0,36.5,462.5,52.5,466.0,54.5,464.5,58.5,467.5,57.0" stroke="black" stroke-width="1" fill="none" />
<polyline points="500.0,70.0,505.0,87.5,502.5,91.0,499.0,98.0,484.0,97.5,478.5,104.5,479.5,101.0,479.5,108.5,466.0,117.5,466.5,119.5,468.5,123.5,457.0,138.0,460.0,141.0,468.5,144.0,467.0,142.5" stroke="yellow" stroke-width="1" fill="none" />
<polyline points="437.0,165.5,443.5,173.0,429.0,176.0" stroke="yellow" stroke-width="1" fill="none" />
<polyline points="434.0,177.5,439.0,187.5,439.5,180.5,436.5,182.5" stroke="orange" stroke-width="1" fill="none" />
<polyline points="423.0,221.0,426.0,214.5,422.0,226.5" stroke="black" stroke-width="1" fill="none" />
<polyline points="417.5,243.0,412.0,232.5,413.0,248.5,412.5,247.0,419.0,250.5,413.0,246.0,407.5,247.0,418.5,244.5,417.0,250.0,417.0,253.0,414.5,253.0" stroke="green" stroke-width="1" fill="none" />
<polyline points="" stroke="green" stroke-width="1" fill="none" />
<polyline points="389.0,301.5,388.5,302.5,373.0,289.0,378.0,286.5,382.0,281.0,392.5,277.5,389.5,274.5" stroke="yellow" stroke-width="1" fill="none" />
<polyline points="373.5,259.5,367.5,255.0,371.5,254.0,372.0,254.5,379.0,243.0,372.5,239.5,368.0,239.0,377.5,231.5,366.5,235.0,376.5,223.5,369.5,222.5,373.0,230.5,370.0,222.0,371.0,217.5" stroke="yellow" stroke-width="1" fill="none" />
<polyline points="370.0,246.5,373.0,242.5,377.5,236.5,374.5,238.0" stroke="yellow" stroke-width="1" fill="none" />
<polyline points="360.0,252.5,377.5,260.5,375.0,261.5,368.5,278.5,368.5,268.0,371.0,274.0,363.5,275.5,370.0,273.5,367.5,274.0,363.0,279.0,363.5,282.5,362.0,283.0,360.0,282.0" stroke="orange" stroke-width="1" fill="none" />
<polyline points="377.0,287.0,370.0,300.0,376.5,292.5,382.5,285.5,381.0,298.0,372.5,304.0,377.0,314.0,376.5,308.0,379.0,310.0,382.5,321.5,372.5,319.5,386.5,337.5,383.5,339.0,386.0,341.0,383.5,342.0,386.0,343.5" stroke="orange" stroke-width="1" fill="none" />
<polyline points="367.0,358.5,373.0,362.0,377.0,363.0,379.5,365.0" stroke="yellow" stroke-width="1" fill="none" />
<polyline points="369.5,375.0,375.5,380.0,371.0,383.0" stroke="yellow" stroke-width="1" fill="none" />
<polyline points="387.5,380.0,384.5,384.5,382.5,392.0,375.5,392.5,379.0,401.5,377.0,399.5" stroke="black" stroke-width="1" fill="none" />
<polyline points="359.5,427.0,358.0,419.5,353.0,415.0,358.0,422.5,345.0,414.5,341.5,403.0,336.5,408.5,336.5,406.5,329.0,404.5,327.5,396.5,320.0,406.5,320.5,390.0,315.5,400.0,314.5,388.0,301.0,398.0,302.0,388.5,301.5,387.5,299.5,391.0,295.5,395.0" stroke="green" stroke-width="1" fill="none" />
<polyline points="311.5,377.0,321.0,361.5,320.5,360.0,320.5,355.0,325.0,338.5,335.0,345.5,331.5,344.5" stroke="black" stroke-width="1" fill="none" />
<polyline points="352.0,333.5,360.0,330.5,349.5,329.0,352.0,343.5,356.0,334.5" stroke="green" stroke-width="1" fill="none" />
<polyline points="361.5,361.5,356.0,366.0,355.0,372.5,360.0,374.5,353.5,378.5,356.5,381.0,353.5,389.0,359.0,399.0,351.5,387.5,348.5,401.5,348.5,409.0,349.5,407.0,349.5,411.0,361.5,415.5" stroke="black" stroke-width="1" fill="none" />
<polyline points="359.5,368.5,364.5,370.0,359.5,371.0,362.5,359.5" stroke="green" stroke-width="1" fill="none" />
<polyline points="360.5,358.5,359.0,371.0,359.5,374.0,360.0,376.5,357.0,382.5" stroke="yellow" stroke-width="1" fill="none" />
<polyline points="364.0,357.5,364.0,356.5,355.0,365.0,356.5,366.5,355.5,363.5,360.0,373.5,357.0,374.0,356.0,381.5,358.5,378.0,351.0,390.0,348.5,390.5,351.5,397.5,365.5,398.0,355.5,404.0,354.0,410.0,364.0,407.5,362.5,405.5" stroke="black" stroke-width="1" fill="none" />
<polyline points="376.5,457.5,369.0,461.0,373.0,456.0,377.0,452.0,377.0,449.0,377.0,438.0,374.0,444.0,370.0,429.5,372.0,428.0,380.0,433.0,381.0,423.0,387.5,418.0,383.5,413.0,374.0,409.0,381.5,403.0,380.0,399.0,376.5,402.0,388.5,391.5,383.5,394.0,375.0,384.0,395.0,378.0,379.5,370.5,386.5,376.0,384.0,368.5,383.0,367.0,389.0,364.0,371.0,357.0,382.5,351.0,385.5,353.0,379.0,349.5,373.5,347.0,376.5,340.0,384.0,336.5,373.5,333.5,376.5,324.5,378.5,323.5,379.5,328.0,382.0,316.0,372.5,309.5,372.5,299.5,385.5,319.0,379.0,305.0,382.5,289.5,374.5,292.5,370.5,282.5,371.0,277.0,380.0,281.5,363.0,269.0,368.0,266.0,373.5,267.5,373.0,261.0,372.0,261.5,358.0,258.0,366.5,252.5,367.5,245.5,375.5,242.0,373.5,233.5,361.0,226.0,372.0,231.5,358.5,221.5,363.0,221.0,365.5,222.5,362.5,212.0,366.5,209.5,353.5,209.5,347.0,203.5,344.0,201.5,342.0,205.0,347.0,205.5" stroke="black" stroke-width="1" fill="none" />
<polyline points="" stroke="black" stroke-width="1" fill="none" />
<polyline points="" stroke="yellow" stroke-width="1" fill="none" />
<polyline points="" stroke="black" stroke-width="1" fill="none" />
<polyline points="358.5,200.0,359.5,202.5,371.0,203.0" stroke="black" stroke-width="1" fill="none" />
<polyline points="" stroke="green" stroke-width="1" fill="none" />
<polyline points="355.0,217.0" stroke="black" stroke-width="1" fill="none" />
<polyline points="340.5,204.5,337.5,206.0,332.0,203.0,333.5,194.0,333.0,196.0" stroke="black" stroke-width="1" fill="none" />
<polyline points="345.0,220.5,360.0,204.5,364.0,222.5,354.5,222.5,362.0,236.5,366.0,234.0,366.5,237.0,370.0,247.0,365.0,251.0,368.0,251.0,375.5,253.5,367.5,254.0" stroke="orange" stroke-width="1" fill="none" />
<polyline points="365.5,241.0,366.0,240.5,367.5,242.0,365.5,241.0,364.0,244.5,365.5,249.5" stroke="orange" stroke-width="1" fill="none" />
<polyline points="346.0,236.0,348.0,247.0,348.5,240.0,354.5,239.5" stroke="black" stroke-width="1" fill="none" />
<polyline points="340.0,252.5,339.5,251.5,337.0,256.5,335.0,251.5,335.0,250.5,333.5,257.0,326.0,260.0,331.0,258.5,328.5,259.5,324.5,256.0" stroke="yellow" stroke-width="1" fill="none" />
<polyline points="337.0,253.0,343.0,242.0,340.5,253.0,351.5,255.0,353.0,241.5,346.0,243.5,341.5,240.5" stroke="yellow" stroke-width="1" fill="none" />
<polyline points="" stroke="green" stroke-width="1" fill="none" />
<polyline points="" stroke="yellow" stroke-width="1" fill="none" />
<polyline points="345.5,276.5,352.5,286.0,350.5,284.0,351.5,299.0,347.5,294.0,345.5,295.5,353.5,302.5,351.0,309.0,341.5,309.0,348.5,314.0,342.0,319.5,332.0,321.5,346.0,324.0,340.5,324.0,336.0,334.5,332.5,340.5,329.5,336.0,327.0,346.0,327.5,354.0,323.0,360.5,322.0,355.5,313.0,368.0,315.0,369.5,319.5,367.5,320.5,370.5,318.5,382.0,312.5,381.0,314.0,380.5,313.0,395.5,316.0,391.5,326.5,409.0,340.5,405.0,344.0,409.0,345.0,418.5,354.5,413.5,356.5,417.0,358.5,426.0,357.5,430.5,354.5,436.0,363.5,436.5,359.5,431.0,367.5,442.0,362.5,448.0,371.5,454.0,374.0,452.5,365.5,464.5,379.0,465.0,370.0,479.5,370.5,477.5,374.5,474.0,374.0,476.5,375.0,480.5,376.5,491.5,381.5,488.5,379.0,493.0,377.0,504.5,382.5,492.0,382.0,503.5,387.0,511.0,393.5,510.0,383.0,520.0,397.5,528.5,396.0,513.5" stroke="green" stroke-width="1" fill="none" />
<polyline points="429.0,494.5,435.5,487.0,426.0,487.0,436.0,486.0,441.0,482.5,450.0,475.0,446.0,468.5,456.5,463.5,454.0,467.5,455.5,463.0,447.0,467.0,444.5,462.5,443.5,465.5" stroke="black" stroke-width="1" fill="none" />
<polyline points="445.5,481.0,448.5,482.5,452.0,471.0,443.5,474.5,452.0,471.5,448.0,467.0,451.5,462.0,450.5,464.0,457.0,469.0,458.0,466.5" stroke="orange" stroke-width="1" fill="none" />
<polyline points="456.0,449.5,461.0,441.0,460.0,439.5" stroke="black" stroke-width="1" fill="none" />
<polyline points="472.0,422.5,476.0,402.5,478.5,413.5,482.0,403.5,485.0,410.0,491.0,399.5,485.5,395.5,494.0,388.5,494.0,385.0,505.0,389.0,504.0,383.0,514.0,377.5,507.5,380.5,515.0,378.5,510.5,375.5" stroke="green" stroke-width="1" fill="none" />
<polyline points="517.0,387.0,514.5,386.0,513.0,384.5,511.5,380.5,515.5,381.0,506.0,386.0,497.5,382.5,492.5,396.0,494.5,406.0,488.5,409.5,476.0,409.0,477.5,411.0,471.5,417.0,473.0,429.5,468.0,418.5,464.0,429.5,465.0,426.5,456.0,432.0,458.5,436.0,449.5,440.0,465.0,444.0,460.0,451.0,457.0,455.5,455.5,460.0,452.5,454.5,446.5,471.0,445.5,483.5,447.5,473.5,448.0,480.0,447.5,486.5,440.5,477.5,436.0,478.5" stroke="yellow" stroke-width="1" fill="none" />
<polyline points="428.5,486.5,442.5,476.0,439.5,469.5,444.0,464.5,446.0,464.0,441.5,458.0,449.0,464.0" stroke="orange" stroke-width="1" fill="none" />
<polyline points="439.0,454.0,425.5,449.5,428.5,457.5,435.5,443.5,445.5,443.0,439.5,440.5,435.0,426.0,430.0,425.5,431.0,435.5,431.5,435.5,435.0,427.0,429.5,429.0,433.5,432.0" stroke="green" stroke-width="1" fill="none" />
<polyline points="427.5,476.5,427.0,475.0,424.5,470.0,425.5,474.0,423.5,485.0,426.5,481.5,424.0,482.0" stroke="yellow" stroke-width="1" fill="none" />
<polyline points="419.5,469.0,426.0,470.5,421.5,469.5,419.5,478.0,426.0,474.5,428.0,467.5,438.5,456.0,432.0,460.5,435.5,463.5,435.5,465.5,431.0,467.5" stroke="orange" stroke-width="1" fill="none" />
<polyline points="481.0,410.5,487.5,407.0,479.5,391.5,477.5,392.5,484.0,395.5" stroke="green" stroke-width="1" fill="none" />
<polyline points="447.5,431.5,447.5,428.0,445.0,425.5,447.5,423.0,443.0,419.0,449.0,410.5,443.5,409.0,452.0,403.5,457.0,393.5,456.0,390.5,455.0,382.0,451.0,385.5,453.0,377.5,448.0,384.5,448.0,373.5,463.5,371.5,450.5,357.5" stroke="orange" stroke-width="1" fill="none" />
<polyline points="382.5,341.0,397.5,336.5,381.0,333.0,377.5,324.0,382.5,325.5,379.5,326.0" stroke="black" stroke-width="1" fill="none" />
<polyline points="365.5,363.5,372.0,369.0,363.5,362.5,369.0,378.5,369.5,390.0,360.5,383.5,372.0,386.5,371.5,386.0,375.5,391.0,379.0,390.0,380.0,382.5,373.5,387.5,376.5,388.5,376.0,392.0" stroke="orange" stroke-width="1" fill="none" />
<polyline points="324.0,343.0,332.0,340.5,333.0,342.0" stroke="green" stroke-width="1" fill="none" />
<polyline points="" stroke="yellow" stroke-width="1" fill="none" />
<polyline points="300.5,355.5,297.5,352.5,291.0,357.0,296.5,357.5,298.0,354.0" stroke="orange" stroke-width="1" fill="none" />
<polyline points="315.5,354.5,314.5,359.5,303.5,364.0,312.5,366.0,299.0,364.5,305.5,364.0,301.5,360.0,304.0,360.0" stroke="green" stroke-width="1" fill="none" />
<polyline points="307.5,349.5,296.0,352.5,299.5,350.0,303.0,350.0,301.0,358.0" stroke="orange" stroke-width="1" fill="none" />
<polyline points="306.5,324.5,311.0,328.5,313.0,322.5,305.0,329.5,307.0,333.5,305.0,328.0,310.5,336.0,308.0,338.5,306.5,339.5,305.0,336.5,306.5,339.0" stroke="green" stroke-width="1" fill="none" />
<polyline points="315.0,313.5,314.0,316.0,311.5,317.0,314.5,327.0,297.0,332.5,292.0,341.5,296.5,344.5,296.5,340.0,295.0,341.0" stroke="yellow" stroke-width="1" fill="none" />
<polyline points="293.0,320.0" stroke="green" stroke-width="1" fill="none" />
<polyline points="317.0,335.5,315.0,334.0,327.0,323.5,328.0,324.5,322.5,329.5,327.0,311.0,320.0,306.5,328.5,314.5,324.5,301.5,323.0,296.5,325.0,304.0,321.5,304.5,321.5,306.0" stroke="black" stroke-width="1" fill="none" />
<polyline points="" stroke="green" stroke-width="1" fill="none" />
<polyline points="328.0,269.0,341.0,267.0,340.5,265.5,335.0,264.0,326.5,260.0,327.0,256.0,334.0,258.0,334.5,262.0" stroke="green" stroke-width="1" fill="none" />
<polyline points="317.0,268.5,329.5,265.5,330.5,271.0,325.5,274.0,328.0,275.0,330.0,265.5,336.0,267.0,320.0,280.5,334.5,252.0,329.0,254.0,328.0,256.0" stroke="yellow" stroke-width="1" fill="none" />
<polyline points="" stroke="orange" stroke-width="1" fill="none" />
<polyline points="" stroke="yellow" stroke-width="1" fill="none" />
<polyline points="339.5,267.5,344.5,255.5,339.5,263.0,341.0,255.0,343.5,261.0,350.5,253.5,344.5,253.5,350.5,254.5" stroke="orange" stroke-width="1" fill="none" />
<polyline points="351.5,236.5,349.5,229.0,341.5,223.0,336.5,215.0,340.0,215.0,341.5,214.0,337.0,213.5" stroke="black" stroke-width="1" fill="none" />
<polyline points="341.0,192.5,341.5,194.0,343.0,200.0,351.0,198.5,350.5,197.5,359.0,191.5,357.0,192.0,367.0,185.5,375.5,184.5,378.5,181.0,381.0,189.5,375.0,189.0,393.0,189.5,389.0,175.5,393.0,174.0,388.5,170.5,393.5,182.0,404.0,164.0,408.0,176.0,402.5,177.0,393.0,190.0,396.0,186.0,392.0,190.0,381.0,192.0,381.5,201.0,390.5,188.0,391.0,184.5,394.0,176.0,403.0,175.5" stroke="black" stroke-width="1" fill="none" />
<polyline points="408.0,162.5,391.0,171.0,384.5,173.0,386.0,175.5" stroke="black" stroke-width="1" fill="none" />
<polyline points="367.5,183.0,351.5,196.5,349.0,189.0,343.5,191.5,336.0,194.0" stroke="yellow" stroke-width="1" fill="none" />
<polyline points="325.0,203.0,330.5,212.5,342.5,205.0,333.0,207.5,329.0,208.0,330.5,211.0,332.5,209.5" stroke="black" stroke-width="1" fill="none" />
<polyline points="" stroke="orange" stroke-width="1" fill="none" />
<polyline points="349.0,207.5,350.0,218.0,355.5,220.5,359.0,214.5,361.5,215.0" stroke="yellow" stroke-width="1" fill="none" />
<polyline points="356.0,208.0,349.5,207.0,345.5,200.0,348.5,202.5,345.0,203.5,345.5,207.0" stroke="orange" stroke-width="1" fill="none" />
<polyline points="342.0,193.5,346.5,205.0,350.0,207.5" stroke="green" stroke-width="1" fill="none" />
<polyline points="" stroke="orange" stroke-width="1" fill="none" />
<polyline points="341.5,205.0,346.5,205.0,344.0,204.0,352.5,207.5,351.5,208.5" stroke="yellow" stroke-width="1" fill="none" />
<polyline points="" stroke="green" stroke-width="1" fill="none" />
<polyline points="372.5,195.0,370.0,191.5,375.5,195.5,366.5,200.5,369.5,198.0" stroke="green" stroke-width="1" fill="none" />
<polyline points="388.0,163.0,375.0,161.5,387.5,160.5,384.5,175.0,381.0,175.0,390.0,177.0,386.5,153.5,386.0,155.5,393.5,151.5,393.5,148.0" stroke="black" stroke-width="1" fill="none" />
<polyline points="391.5,168.0,392.0,168.5,395.5,162.0,411.5,160.0,390.5,175.0,395.5,172.0,386.5,169.5,399.5,174.0,402.5,159.5" stroke="green" stroke-width="1" fill="none" />
<polyline points="391.5,126.5,396.5,125.5,394.0,122.5,378.0,128.5,382.5,133.5,392.0,132.5,391.0,133.5,393.0,123.0,387.5,120.5,392.0,123.0" stroke="black" stroke-width="1" fill="none" />
<polyline points="389.5,126.0,378.5,132.0,384.0,129.0,381.5,130.0,389.0,126.5,400.5,123.0,399.5,118.5" stroke="orange" stroke-width="1" fill="none" />
<polyline points="395.0,113.5,394.0,119.0,390.5,124.0,384.5,130.0,373.5,133.0,359.5,139.0,354.0,144.0,362.5,142.0,352.0,137.5,359.5,135.0,357.5,134.5,356.5,132.0" stroke="orange" stroke-width="1" fill="none" />
<polyline points="335.0,147.5,313.0,151.5,323.5,159.0,308.5,150.0,307.5,167.0,304.5,167.5,307.5,166.0" stroke="orange" stroke-width="1" fill="none" />
<polyline points="" stroke="green" stroke-width="1" fill="none" />
<polyline points="284.0,173.0,281.0,167.5,278.5,182.0,287.0,174.0,283.5,180.0,288.0,181.5" stroke="orange" stroke-width="1" fill="none" />
<polyline points="" stroke="orange" stroke-width="1" fill="none" />
<polyline points="280.0,183.5,275.5,171.0,279.0,173.5,274.0,176.5" stroke="green" stroke-width="1" fill="none" />
<polyline points="257.0,180.0,261.0,178.5,247.5,178.0,237.5,168.5" stroke="orange" stroke-width="1" fill="none" />
<polyline points="239.0,158.0,238.5,163.0,245.5,164.0,249.5,165.0,253.0,167.0,246.5,176.5,256.5,183.0,253.0,180.5,250.5,186.5,244.0,190.0,239.5,193.5,242.0,190.5,238.5,204.0,235.0,207.0,240.5,203.5,239.0,216.0,243.5,204.0,247.5,218.0,260.5,204.0,252.0,210.5,255.5,203.0,251.0,215.0,251.5,217.0,257.5,224.5,239.5,222.0,239.5,238.0,239.0,231.0,234.0,231.0,242.0,247.5,228.0,244.0,230.5,251.5,220.0,251.0,217.5,253.0,219.0,258.5,221.5,267.0,213.5,272.5,210.5,276.5,206.5,278.0,206.0,285.0,204.0,291.0,207.0,299.0,198.5,305.0,192.5,295.0,193.5,305.0,207.0,305.5,196.5,319.5,194.0,306.5,197.0,312.0,180.5,315.5,183.0,323.5,179.0,326.5,173.0,333.0,165.0,333.0,168.5,338.0,161.0,342.0,167.0,338.5" stroke="orange" stroke-width="1" fill="none" />
<polyline points="156.5,352.0,159.5,346.5,165.0,362.0,149.0,361.5,155.0,364.5,143.5,377.0,155.0,379.0,163.0,369.5,151.5,382.0,156.5,386.5,158.0,391.5,160.5,399.5,146.0,391.5,151.5,409.0,164.0,401.0,163.5,413.5,164.5,408.5,150.0,416.5,165.5,409.0,164.5,411.0" stroke="green" stroke-width="1" fill="none" />
<polyline points="169.0,406.0,164.0,407.5,164.5,409.0,159.0,414.5,161.0,417.5" stroke="black" stroke-width="1" fill="none" />
<polyline points="170.0,416.0,166.5,410.0,165.5,417.5,166.0,418.0,169.0,417.5,170.5,424.5,170.0,421.0,173.5,427.0,174.5,421.0" stroke="green" stroke-width="1" fill="none" />
<polyline points="" stroke="orange" stroke-width="1" fill="none" />
<polyline points="186.0,440.5,190.0,443.0,183.0,434.5,179.5,439.0,179.0,439.0,184.5,438.5,192.0,431.5" stroke="yellow" stroke-width="1" fill="none" />
<polyline points="" stroke="yellow" stroke-width="1" fill="none" />
<polyline points="" stroke="yellow" stroke-width="1" fill="none" />
<polyline points="" stroke="yellow" stroke-width="1" fill="none" />
<polyline points="180.5,464.0,177.0,461.5,167.5,467.0,170.0,472.5,166.0,464.0,161.5,472.5,161.5,470.5" stroke="black" stroke-width="1" fill="none" />
<polyline points="158.5,473.5,150.0,473.5,131.0,453.0,132.0,455.5,143.0,457.0,139.0,451.5" stroke="orange" stroke-width="1" fill="none" />
<polyline points="144.5,465.0,139.0,481.0,153.5,480.0,162.0,484.0,151.0,476.0,152.0,476.0,155.0,489.5,164.5,501.0,164.5,495.5,160.0,495.5,161.5,496.0" stroke="black" stroke-width="1" fill="none" />
<polyline points="169.5,504.5,165.5,501.0,166.5,502.0,169.0,502.0" stroke="green" stroke-width="1" fill="none" />
<polyline points="170.0,505.0,173.0,503.5,170.5,501.0,163.0,507.5,156.5,508.0,158.0,499.5,153.5,500.5,149.0,489.5,139.0,490.5" stroke="yellow" stroke-width="1" fill="none" />
<polyline points="143.0,501.0,148.5,503.0,148.5,501.5,149.5,496.5" stroke="green" stroke-width="1" fill="none" />
<polyline points="" stroke="orange" stroke-width="1" fill="none" />
<polyline points="" stroke="yellow" stroke-width="1" fill="none" />
<polyline points="" stroke="green" stroke-width="1" fill="none" />
<polyline points="146.0,492.5,156.5,488.0,158.0,489.5" stroke="black" stroke-width="1" fill="none" />
<polyline points="156.5,502.0,162.0,500.0,155.0,513.0,157.5,513.5,160.0,502.0,157.5,504.5,158.5,510.5" stroke="yellow" stroke-width="1" fill="none" />
<polyline points="145.5,497.5,143.5,493.0,140.5,484.5,135.0,482.5,140.5,481.0,147.0,489.0,143.5,486.0,138.5,479.5" stroke="yellow" stroke-width="1" fill="none" />
<polyline points="144.0,492.5,148.5,497.0,149.5,504.0,146.0,499.5,148.0,501.5,147.0,508.0,150.5,510.0,145.0,507.0" stroke="green" stroke-width="1" fill="none" />
<polyline points="" stroke="yellow" stroke-width="1" fill="none" />
<polyline points="151.0,517.5,148.0,510.0" stroke="orange" stroke-width="1" fill="none" />
<polyline points="132.0,513.5,141.5,514.0,140.0,504.0,133.5,498.5" stroke="orange" stroke-width="1" fill="none" />
<polyline points="141.5,481.5,142.5,481.5,139.0,499.5,133.5,502.5,137.5,494.5,135.5,488.5,140.5,487.5" stroke="green" stroke-width="1" fill="none" />
<polyline points="" stroke="green" stroke-width="1" fill="none" />
<polyline points="" stroke="orange" stroke-width="1" fill="none" />
<polyline points="113.0,510.5,120.0,510.0,115.0,510.5,123.0,510.5,119.0,486.5,125.5,496.0,126.0,484.5,121.5,487.5,122.5,487.0,123.0,487.0" stroke="black" stroke-width="1" fill="none" />
<polyline points="126.5,502.0,130.0,498.5,119.5,496.0" stroke="orange" stroke-width="1" fill="none" />
<polyline points="132.5,515.0,136.0,518.0,127.5,512.0,131.5,500.5,123.0,504.5" stroke="yellow" stroke-width="1" fill="none" />
<polyline points="140.0,477.5,134.0,484.0" stroke="orange" stroke-width="1" fill="none" />
<polyline points="127.0,482.0,137.0,493.5,137.5,493.5,137.0,508.0,132.0,501.0,141.0,505.0,144.0,508.5,140.0,506.5" stroke="yellow" stroke-width="1" fill="none" />
<polyline points="" stroke="green" stroke-width="1" fill="none" />
<polyline points="" stroke="yellow" stroke-width="1" fill="none" />
<polyline points="" stroke="green" stroke-width="1" fill="none" />
<polyline points="" stroke="yellow" stroke-width="1" fill="none" />
<polyline points="173.5,469.5,169.5,465.5,169.5,477.5,160.0,474.5,158.0,478.0,171.5,498.5,171.0,484.5,175.5,484.0" stroke="green" stroke-width="1" fill="none" />
<polyline points="193.0,484.0,191.0,485.5,211.5,486.0,199.0,492.5,202.0,485.5,207.0,486.5,213.5,481.0,217.0,478.0,222.0,478.5,227.0,479.0,226.0,477.0" stroke="yellow" stroke-width="1" fill="none" />
<polyline points="236.5,465.0,230.0,453.5" stroke="orange" stroke-width="1" fill="none" />
<polyline points="218.0,476.0,217.5,479.0,214.5,475.0,213.0,476.5,226.0,469.0,220.0,454.0,232.0,454.0,231.5,451.5,230.5,443.0,238.0,442.0,233.5,440.5,232.0,436.0,246.5,435.0,232.0,428.5,244.0,424.5,231.5,418.0,227.0,416.0,233.0,410.5,235.5,407.5,228.0,400.5,228.5,409.0" stroke="orange" stroke-width="1" fill="none" />
<polyline points="220.5,410.0,228.0,408.5,227.0,420.0,226.5,408.0,226.5,407.5" stroke="orange" stroke-width="1" fill="none" />
<polyline points="220.0,411.0,225.5,420.5,231.0,426.0,220.0,424.5,227.5,413.0,224.0,417.0,224.0,416.5,230.0,413.0" stroke="orange" stroke-width="1" fill="none" />
<polyline points="247.0,425.0,242.5,424.5,236.5,423.5,229.5,431.5,240.0,435.0,243.5,444.5,239.5,443.5,249.0,452.5,234.5,455.5,241.0,454.0,231.0,462.5,236.5,474.5,227.5,467.5,220.0,471.0,224.5,480.0,223.5,482.5,211.5,487.0,219.0,484.5,216.0,488.0" stroke="black" stroke-width="1" fill="none" />
<polyline points="195.5,489.5,215.0,492.5,201.5,497.5,212.0,493.0,223.5,486.5,220.5,493.5,225.0,485.5,228.0,481.5,237.5,475.5,243.0,480.5,248.0,481.5,244.5,478.5,244.5,476.0" stroke="orange" stroke-width="1" fill="none" />
<polyline points="200.5,445.0,201.0,446.0,199.0,446.5,178.5,441.5,180.0,441.5" stroke="black" stroke-width="1" fill="none" />
<polyline points="182.5,450.0,186.0,457.5,192.0,450.0,183.5,450.0,185.5,447.5,196.0,442.0,182.5,429.0,172.5,426.5,183.5,430.0,182.5,427.5,182.5,424.0,183.0,426.5,183.0,414.0,173.0,417.5,184.0,410.5,163.5,405.5,165.5,401.0,162.5,389.0,163.5,397.5,155.0,387.5,166.5,385.0,167.5,386.5" stroke="orange" stroke-width="1" fill="none" />
<polyline points="159.5,367.5,159.0,370.5,177.5,369.5,174.0,350.5,182.5,347.5,189.0,334.5,189.0,340.5,196.0,328.5,199.0,328.0,200.0,321.5,190.5,328.5" stroke="yellow" stroke-width="1" fill="none" />
<polyline points="200.5,321.5,199.5,313.5,200.5,314.0" stroke="black" stroke-width="1" fill="none" />
<polyline points="183.5,315.0,179.5,323.0,189.5,320.5,194.0,307.5,195.5,304.0,203.0,290.5,204.0,287.5,208.5,283.0,212.5,273.0,225.5,261.0,228.0,258.5,228.5,250.0,239.0,250.0,231.5,243.5,248.5,232.5,238.5,223.5,249.5,224.0,251.0,220.0,264.0,220.0" stroke="orange" stroke-width="1" fill="none" />
<polyline points="264.5,225.5,270.5,222.0,272.0,233.0" stroke="black" stroke-width="1" fill="none" />
<polyline points="273.0,231.0,277.0,234.0,273.0,231.0,262.5,245.5,258.0,241.5" stroke="black" stroke-width="1" fill="none" />
<polyline points="263.0,235.0,268.5,235.5,268.0,232.0,266.5,239.0,267.5,225.5,273.5,227.5,263.0,230.5,255.5,234.5,256.0,230.5,266.5,235.0,245.0,243.5,248.0,239.5,235.5,251.5,248.5,261.5,225.0,268.5,223.5,275.5,217.5,285.5,220.0,283.0,224.5,290.5,232.0,273.5,228.0,271.0,232.0,268.5,227.0,268.0,236.5,263.0,234.0,260.5,240.5,251.0,225.5,247.0,252.5,243.0,248.5,238.0,257.5,243.5,254.5,222.0,266.0,223.5,264.0,222.0,260.0,219.0,257.0,217.0,262.5,220.0,271.0,220.5,268.0,205.0,281.0,203.5,273.0,202.5,277.0,200.5,261.0,192.5,273.0,188.0,264.5,191.0,270.0,195.0,261.5,212.0,272.5,206.0,262.5,205.5,261.0,214.0,267.5,196.0" stroke="green" stroke-width="1" fill="none" />
<polyline points="250.0,196.0,251.5,196.5,248.0,197.0" stroke="green" stroke-width="1" fill="none" />
<polyline points="244.5,203.5,255.0,218.5,251.0,215.5,254.5,226.0,234.0,232.5,238.0,229.5,227.5,236.5,223.5,234.0,218.0,237.5,223.0,232.5,228.5,232.0,222.5,228.0,227.0,215.5,218.0,225.5,211.5,218.0,218.5,223.5,232.0,209.0,222.0,212.0,222.5,206.5,218.0,203.0,220.5,204.5,220.0,205.0" stroke="orange" stroke-width="1" fill="none" />
<polyline points="" stroke="yellow" stroke-width="1" fill="none" />
<polyline points="" stroke="yellow" stroke-width="1" fill="none" />
<polyline points="" stroke="yellow" stroke-width="1" fill="none" />
<polyline points="247.0,208.5,253.0,197.5,261.5,186.5,264.5,186.5,255.5,178.5,246.0,196.0,242.5,194.5,254.0,192.0,270.0,189.0,260.5,192.0,257.0,188.0,266.5,183.0,266.0,176.5,274.5,183.5,274.5,187.0,275.5,177.0,275.0,179.0,281.5,177.0" stroke="yellow" stroke-width="1" fill="none" />
<polyline points="250.0,189.5,252.0,195.5,254.0,191.0,249.5,202.0,250.0,202.0,246.0,198.5,237.0,201.0,247.0,206.0,254.5,204.5,242.5,195.0,254.5,193.5,263.0,196.5,253.5,187.0,261.5,176.5,272.5,197.5,271.0,196.5,272.0,197.5,273.0,193.0" stroke="green" stroke-width="1" fill="none" />
<polyline points="265.0,205.5,265.5,208.0,263.0,209.0,257.0,205.0,267.0,192.5,263.0,191.0,269.5,184.5,270.0,185.5,279.5,189.5,274.5,192.5,277.0,186.0" stroke="green" stroke-width="1" fill="none" />
<polyline points="261.5,189.0,255.0,191.5,253.0,198.0,245.5,212.0,248.5,211.5,249.5,211.0" stroke="yellow" stroke-width="1" fill="none" />
<polyline points="274.0,205.0,257.5,203.5,262.0,210.5,261.5,208.5,258.5,216.5,264.0,217.5,256.0,223.5,247.5,217.0,243.5,232.5,242.0,225.5,240.0,245.0" stroke="yellow" stroke-width="1" fill="none" />
<polyline points="" stroke="black" stroke-width="1" fill="none" />
<polyline points="" stroke="green" stroke-width="1" fill="none" />
<polyline points="219.0,221.5,229.0,229.0" stroke="orange" stroke-width="1" fill="none" />
<polyline points="216.0,232.5,217.0,236.0,221.5,233.5" stroke="green" stroke-width="1" fill="none" />
<polyline points="224.5,237.5,234.5,242.5,218.0,230.5,224.0,247.0" stroke="orange" stroke-width="1" fill="none" />
<polyline points="225.5,230.5,215.5,229.0,212.0,229.5,212.0,224.5,212.5,222.0,217.0,228.5,207.0,229.5" stroke="orange" stroke-width="1" fill="none" />
<polyline points="214.0,230.0,220.5,238.0,223.0,232.5,228.0,248.0,224.0,248.0,232.0,249.0,231.5,249.5" stroke="black" stroke-width="1" fill="none" />
<polyline points="223.0,251.5,221.5,266.5,221.0,269.5,212.0,273.0,207.0,291.0,196.0,288.5,197.0,287.5,193.5,302.0,185.0,315.0,187.5,318.0,181.0,332.5,180.0,326.5,171.0,327.5,173.0,329.5,164.5,336.5,154.0,333.0,155.0,336.5,155.0,339.0,140.0,354.0" stroke="orange" stroke-width="1" fill="none" />
<polyline points="140.0,344.5,147.0,336.0,146.5,342.0,156.5,341.5,145.0,328.0,154.5,328.0" stroke="orange" stroke-width="1" fill="none" />
<polyline points="156.0,328.5,156.5,332.5,158.0,337.5" stroke="orange" stroke-width="1" fill="none" />
<polyline points="145.0,353.5,151.5,347.5,144.0,356.5,147.5,355.5,147.5,355.0" stroke="yellow" stroke-width="1" fill="none" />
<polyline points="131.5,351.0,136.0,335.0,144.0,342.5,130.0,338.0,138.5,326.5,132.0,325.5,136.0,320.0,137.5,319.5,128.5,317.0,132.5,317.5,129.0,310.5" stroke="green" stroke-width="1" fill="none" />
<polyline points="132.0,296.0,130.5,297.5" stroke="green" stroke-width="1" fill="none" />
<polyline points="135.5,309.5,135.5,307.5" stroke="yellow" stroke-width="1" fill="none" />
<polyline points="134.0,296.5,135.5,288.0" stroke="orange" stroke-width="1" fill="none" />
<polyline points="130.5,274.0,138.5,278.5,145.0,271.0" stroke="green" stroke-width="1" fill="none" />
<polyline points="150.0,267.0,157.0,264.5,156.5,266.5,162.0,266.5" stroke="black" stroke-width="1" fill="none" />
<polyline points="150.5,268.0,155.0,274.5,154.0,270.5" stroke="green" stroke-width="1" fill="none" />
<polyline points="151.0,270.5,148.0,271.5,155.5,274.5,152.0,273.5,152.5,275.0" stroke="orange" stroke-width="1" fill="none" />
<polyline points="170.0,262.0,171.0,259.0,175.5,259.0,178.5,258.0,173.5,257.0,169.0,264.5" stroke="yellow" stroke-width="1" fill="none" />
<polyline points="179.5,250.0,176.5,253.0" stroke="yellow" stroke-width="1" fill="none" />
<polyline points="171.5,262.0,169.0,261.5,169.5,259.0" stroke="yellow" stroke-width="1" fill="none" />
<polyline points="" stroke="green" stroke-width="1" fill="none" />
<polyline points="175.5,268.0,179.0,260.5,181.0,262.0,195.0,260.0,186.0,257.5,188.5,260.0,189.0,260.0,190.0,259.0,192.0,264.0,192.5,262.0" stroke="green" stroke-width="1" fill="none" />
<polyline points="" stroke="yellow" stroke-width="1" fill="none" />
<polyline points="" stroke="orange" stroke-width="1" fill="none" />
<polyline points="174.5,254.5,187.0,257.0,193.5,255.0,184.5,266.5,196.0,262.5" stroke="orange" stroke-width="1" fill="none" />
<polyline points="205.5,258.0,203.0,252.0,207.5,257.0,206.5,267.0,213.0,265.5" stroke="green" stroke-width="1" fill="none" />
<polyline points="221.5,272.0,207.0,253.0,211.5,252.5,214.0,246.5,205.0,239.0,209.0,237.0,210.0,238.5,210.0,242.5,200.5,241.0,209.0,243.0,209.0,239.0,201.0,235.5" stroke="green" stroke-width="1" fill="none" />
<polyline points="205.0,244.0,205.5,238.0,213.0,239.0,219.0,238.0,214.5,237.5,222.0,233.5,221.5,247.5,206.0,244.0,210.5,239.0" stroke="yellow" stroke-width="1" fill="none" />
<polyline points="" stroke="orange" stroke-width="1" fill="none" />
<polyline points="207.0,256.0" stroke="orange" stroke-width="1" fill="none" />
<polyline points="216.5,255.0,216.0,257.0,207.5,252.5,214.5,245.0,212.0,247.0,205.5,240.0,214.5,231.0,204.5,240.0" stroke="black" stroke-width="1" fill="none" />
<polyline points="225.5,233.0,216.5,240.5,212.0,248.0,215.0,242.5,211.5,257.5,212.0,258.0,220.0,260.0,214.5,263.5,220.0,265.0" stroke="green" stroke-width="1" fill="none" />
<polyline points="" stroke="green" stroke-width="1" fill="none" />
<polyline points="197.5,257.0,201.5,253.0" stroke="yellow" stroke-width="1" fill="none" />
<polyline points="" stroke="black" stroke-width="1" fill="none" />
<polyline points="188.0,271.0,181.5,265.5,188.0,262.5,170.0,266.0,171.5,258.5,194.0,242.5,184.0,243.5,177.5,241.0,189.5,233.5,201.0,242.0,180.5,245.5,177.5,242.5,182.5,241.5,184.0,243.5,180.5,243.0" stroke="black" stroke-width="1" fill="none" />
<polyline points="196.5,215.0,195.5,213.0,202.0,210.0,191.0,228.0,189.0,225.5" stroke="orange" stroke-width="1" fill="none" />
<polyline points="189.0,227.5,184.0,220.0,190.5,228.5,187.0,232.5,191.0,233.5,193.5,232.5" stroke="yellow" stroke-width="1" fill="none" />
<polyline points="181.0,242.0,182.0,239.0,186.5,239.5,185.5,240.0,186.5,240.0,186.5,241.5" stroke="yellow" stroke-width="1" fill="none" />
<polyline points="191.0,239.5,191.0,238.0,203.5,238.5,198.0,237.0,199.5,242.5" stroke="yellow" stroke-width="1" fill="none" />
<polyline points="226.0,219.5" stroke="green" stroke-width="1" fill="none" />
<polyline points="" stroke="yellow" stroke-width="1" fill="none" />
<polyline points="213.0,221.5,220.5,216.5,221.0,227.0,214.5,237.5" stroke="green" stroke-width="1" fill="none" />
<polyline points="212.5,219.0,229.0,208.5,217.0,218.0,227.5,235.5,233.5,233.0,224.5,237.5,233.5,236.0,235.5,245.0,229.5,238.0,232.0,250.5,230.5,250.0,231.5,254.0,218.5,252.5,213.0,273.5,221.0,259.0,217.5,263.5,221.0,270.5,218.0,285.0,200.5,284.0,216.5,294.0,202.5,286.0,201.5,290.5,209.0,303.5,188.0,305.5,203.0,310.5,204.5,319.5,195.5,311.5,196.0,318.0,185.0,329.0,199.0,318.5,193.5,314.0,202.0,313.0,216.5,309.0,212.5,312.5,220.5,301.0,230.0,305.0,234.5,283.0,226.0,278.5,237.0,275.5,236.0,265.5,233.5,272.0,249.5,266.5,249.5,257.0,248.5,253.0,247.5,256.5,254.0,248.0,260.5,250.0,275.0,242.0,284.0,258.5,280.5,249.0,273.5,256.5,292.5,254.0,285.0,244.0,305.5,257.0,300.0,251.0,301.5,253.0,299.5,255.0,300.0,252.0" stroke="yellow" stroke-width="1" fill="none" />
<polyline points="" stroke="green" stroke-width="1" fill="none" />
<polyline points="287.5,256.0,286.0,258.0,291.5,277.0,290.5,277.5,287.5,277.0,289.0,277.5,288.0,274.0,289.0,275.5" stroke="black" stroke-width="1" fill="none" />
<polyline points="" stroke="black" stroke-width="1" fill="none" />
<polyline points="" stroke="black" stroke-width="1" fill="none" />
<polyline points="283.5,275.5,278.0,270.0,279.0,272.5,283.0,275.0,283.5,272.5" stroke="yellow" stroke-width="1" fill="none" />
<polyline points="276.5,261.5,279.0,260.5,273.0,266.5,273.0,268.0" stroke="yellow" stroke-width="1" fill="none" />
<polyline points="285.0,269.0,286.0,269.5,285.0,272.0" stroke="orange" stroke-width="1" fill="none" />
<polyline points="264.0,269.0,267.0,269.0" stroke="black" stroke-width="1" fill="none" />
<polyline points="262.5,261.0,260.5,272.0,265.0,274.0,270.0,271.0,275.0,271.0,280.5,257.0,274.5,274.0,268.0,289.5,278.5,274.0,275.0,279.5,277.5,288.0,281.5,290.0,276.5,291.5,277.5,295.5,275.5,291.5" stroke="yellow" stroke-width="1" fill="none" />
<polyline points="259.5,276.5,259.0,268.0,262.0,269.0,259.0,278.5,253.0,270.0,252.5,276.0,252.0,273.5,250.5,271.5,250.0,273.5" stroke="orange" stroke-width="1" fill="none" />
<polyline points="267.0,270.0,267.0,281.0,277.5,279.5" stroke="orange" stroke-width="1" fill="none" />
<polyline points="" stroke="black" stroke-width="1" fill="none" />
<polyline points="258.5,266.5,256.5,268.0,255.5,279.5,257.0,274.0,260.0,271.0,265.5,279.0,270.5,278.5,273.5,284.0,283.0,281.5,282.5,277.5" stroke="orange" stroke-width="1" fill="none" />
<polyline points="287.5,265.0,285.0,253.5,280.5,260.0,292.0,250.5,282.0,253.5,273.0,257.0,280.5,250.5,279.0,250.5,275.5,249.0,275.5,255.0" stroke="orange" stroke-width="1" fill="none" />
<polyline points="277.0,246.0" stroke="orange" stroke-width="1" fill="none" />
<polyline points="" stroke="orange" stroke-width="1" fill="none" />
<polyline points="271.5,262.5,270.0,255.5,283.5,257.0,272.0,262.0,267.0,248.5,259.5,247.5,265.5,250.0,262.0,257.5,263.0,257.0,264.5,255.0" stroke="orange" stroke-width="1" fill="none" />
<polyline points="265.0,277.0,264.0,271.0,262.5,268.0" stroke="yellow" stroke-width="1" fill="none" />
<polyline points="276.0,271.5,283.5,269.5,283.5,269.5,289.0,278.0,290.0,272.5,283.0,270.5,281.5,276.5,287.0,277.5,295.5,264.0" stroke="black" stroke-width="1" fill="none" />
<polyline points="" stroke="orange" stroke-width="1" fill="none" />
<polyline points="259.5,249.0,255.0,258.5,246.5,266.5,245.0,264.0,238.5,272.0,237.0,272.5,229.0,278.0,226.0,292.5,237.5,279.5,227.5,288.0,214.5,292.0,208.0,304.0,216.0,300.0,212.0,304.0,214.0,320.5,197.5,311.0,201.5,310.5,209.0,320.0,194.0,323.5,189.5,336.0,192.0,337.5,183.0,335.5,187.0,350.0,181.5,345.5,173.0,345.0,171.5,357.0,174.5,355.0,168.5,359.5,165.5,369.5,165.5,364.0,156.5,385.5,156.5,379.5,153.0,387.5,161.0,387.5,164.0,396.5,170.0,399.5,174.5,406.0,177.0,405.0,172.5,403.5,179.5,393.5,171.5,397.0,174.5,397.5,171.5,401.5" stroke="yellow" stroke-width="1" fill="none" />
<polyline points="167.0,397.5,158.5,388.5,158.0,392.5" stroke="green" stroke-width="1" fill="none" />
<polyline points="" stroke="yellow" stroke-width="1" fill="none" />
<polyline points="136.0,374.0,143.0,369.0,142.5,368.0,144.0,363.0" stroke="black" stroke-width="1" fill="none" />
<polyline points="135.5,379.0" stroke="black" stroke-width="1" fill="none" />
<polyline points="135.0,410.5,129.5,413.0,124.0,416.5,130.5,417.5,140.5,424.0,138.5,426.0,139.0,431.5,134.5,435.5,137.5,443.5,136.5,445.0,141.0,447.0,145.5,454.0,134.0,453.5,133.5,464.0,137.0,460.0,136.5,471.5,137.5,471.5,138.5,472.0,150.5,470.0,145.0,477.0,146.5,469.0,158.0,486.5" stroke="black" stroke-width="1" fill="none" />
<polyline points="" stroke="green" stroke-width="1" fill="none" />
<polyline points="174.0,466.5,189.5,456.5,177.0,466.5,175.0,460.0,172.0,459.5,174.5,450.0,161.0,438.5,178.0,439.5,162.5,443.0,164.0,439.0" stroke="orange" stroke-width="1" fill="none" />
<polyline points="166.0,433.5,166.5,439.0,164.5,437.0" stroke="black" stroke-width="1" fill="none" />
<polyline points="165.0,421.5,160.5,412.5,168.0,406.5,160.5,406.0,152.0,411.0,159.5,398.5,161.5,401.5,160.5,396.5,160.0,400.0,150.5,388.0,151.0,383.5,145.0,371.0,153.0,369.5,141.5,362.5,142.0,361.5,149.0,361.0,147.5,356.5,148.0,359.5,154.0,360.5" stroke="black" stroke-width="1" fill="none" />
<polyline points="143.5,360.5,149.0,365.5,141.0,363.0,146.0,356.5,151.5,364.5,150.5,379.0,148.0,376.0,154.5,384.0,153.5,381.5,156.5,380.0,152.5,395.0,153.5,386.5,160.5,404.0,176.0,392.5,174.5,391.0" stroke="green" stroke-width="1" fill="none" />
<polyline points="172.0,443.0,174.0,438.0,176.0,437.0,169.0,451.5,174.5,450.5,187.5,454.0,175.0,446.5,178.0,469.5,176.5,469.0" stroke="yellow" stroke-width="1" fill="none" />
<polyline points="170.5,453.0" stroke="black" stroke-width="1" fill="none" />
<polyline points="167.5,454.0,164.0,442.0,161.5,443.0,174.5,456.0,169.0,461.5,179.5,454.0,170.0,464.0,169.0,469.5,164.0,468.5,167.0,482.0,177.0,472.5,157.0,479.0,166.5,491.5,165.0,490.5,160.0,501.0,154.5,496.5,163.5,511.5,175.0,495.5,179.5,514.5,177.5,511.5,178.0,508.0,171.0,517.0,167.5,512.5" stroke="black" stroke-width="1" fill="none" />
<polyline points="" stroke="yellow" stroke-width="1" fill="none" />
<polyline points="" stroke="green" stroke-width="1" fill="none" />
<polyline points="" stroke="green" stroke-width="1" fill="none" />
<polyline points="164.0,452.5,150.0,449.5,148.5,448.5,147.0,444.5,148.0,432.0,163.0,432.0,149.0,431.5,150.5,426.5,140.0,418.0,136.0,408.0,130.5,409.0,137.0,405.5" stroke="orange" stroke-width="1" fill="none" />
<polyline points="136.5,395.5,152.5,398.0,142.5,395.5,152.5,385.5,149.5,396.5,147.0,398.5,143.0,402.5" stroke="orange" stroke-width="1" fill="none" />
<polyline points="138.5,401.5" stroke="yellow" stroke-width="1" fill="none" />
<polyline points="139.0,405.0,141.5,404.5,139.5,411.0,146.5,410.5,145.0,414.5,146.5,414.0" stroke="orange" stroke-width="1" fill="none" />
<polyline points="157.5,423.5,154.5,430.5,159.5,424.0,154.0,437.5" stroke="black" stroke-width="1" fill="none" />
<polyline points="162.5,440.5,173.0,444.5,178.0,446.5,179.5,446.5,180.5,437.0,178.5,441.5" stroke="green" stroke-width="1" fill="none" />
<polyline points="170.0,410.0,177.0,412.0,181.5,414.0,168.0,411.5,166.5,411.0,161.5,410.5,166.0,402.5,167.5,398.0,164.5,398.0" stroke="orange" stroke-width="1" fill="none" />
<polyline points="167.0,417.5,169.0,416.5,166.5,418.0,170.0,432.5,160.5,434.0,161.0,426.0,156.0,427.5,161.0,436.0,155.0,430.5,166.5,433.0,173.5,430.5,167.5,432.5,169.5,433.0,157.0,429.0" stroke="orange" stroke-width="1" fill="none" />
<polyline points="164.5,428.5" stroke="yellow" stroke-width="1" fill="none" />
<polyline points="149.0,449.5,152.5,458.5,156.0,453.5,163.5,453.0,160.5,457.5,164.0,461.5,161.5,472.0" stroke="orange" stroke-width="1" fill="none" />
<polyline points="162.0,455.5,168.0,453.0,167.0,463.0" stroke="black" stroke-width="1" fill="none" />
<polyline points="" stroke="yellow" stroke-width="1" fill="none" />
<polyline points="148.5,450.5,144.0,457.0,155.5,454.0,159.0,453.0,155.5,452.5,154.0,459.0" stroke="black" stroke-width="1" fill="none" />
<polyline points="145.5,444.0,147.0,448.5,146.5,440.5,146.5,443.0" stroke="yellow" stroke-width="1" fill="none" />
<polyline points="145.0,463.5,151.5,462.0,149.5,465.5,147.5,468.5,154.5,469.5,147.5,476.0,154.5,482.5,152.0,479.0,154.0,475.5" stroke="orange" stroke-width="1" fill="none" />
<polyline points="146.5,477.0,146.0,469.5,155.0,471.0,151.0,469.0" stroke="yellow" stroke-width="1" fill="none" />
<polyline points="143.5,464.5,151.5,462.5,158.5,464.0,156.5,468.5,152.0,463.0" stroke="yellow" stroke-width="1" fill="none" />
<polyline points="" stroke="black" stroke-width="1" fill="none" />
<polyline points="137.5,449.5,138.5,455.0,132.5,452.5,149.5,462.0,141.5,452.5,148.0,475.0,139.0,475.0,150.5,471.0,158.0,477.0,156.5,477.5,157.5,475.5" stroke="green" stroke-width="1" fill="none" />
<polyline points="159.5,472.0,162.0,475.0,160.0,467.0,162.5,470.5,152.0,472.5,146.5,468.0,151.5,457.5,143.5,455.0,147.0,450.0" stroke="yellow" stroke-width="1" fill="none" />
<polyline points="140.5,458.0,154.5,474.0,152.0,478.5,145.5,468.5,152.5,480.0,148.5,472.5,161.0,492.5,160.5,490.5,160.5,492.0,165.5,498.5,175.0,503.0,163.5,502.0" stroke="black" stroke-width="1" fill="none" />
<polyline points="159.0,448.5,158.5,455.0,152.5,450.5,144.0,447.0,153.0,433.0,143.5,440.0,148.0,429.5,152.0,434.0,145.0,420.0" stroke="green" stroke-width="1" fill="none" />
<polyline points="" stroke="green" stroke-width="1" fill="none" />
<polyline points="" stroke="yellow" stroke-width="1" fill="none" />
<polyline points="142.0,413.5,146.0,410.5,148.5,410.5,154.5,413.0,154.0,406.0" stroke="green" stroke-width="1" fill="none" />
<polyline points="143.0,408.0,142.5,422.0,145.5,424.5,150.0,434.0,144.0,437.5,153.5,444.0,156.5,436.0,154.0,437.5,145.5,442.0,149.0,442.5" stroke="black" stroke-width="1" fill="none" />
<polyline points="153.0,419.0,153.5,427.0,155.5,407.0,150.5,414.0,145.0,404.0,146.0,399.5,151.5,394.5,143.5,393.5,142.0,392.5" stroke="orange" stroke-width="1" fill="none" />
<polyline points="151.5,395.5,151.0,397.0,139.0,398.0,139.5,396.5" stroke="yellow" stroke-width="1" fill="none" />
<polyline points="" stroke="orange" stroke-width="1" fill="none" />
<polyline points="150.5,404.5,145.5,406.5,139.5,402.0,140.0,401.0,122.5,402.5,128.5,400.5,123.0,402.5,121.5,398.0" stroke="green" stroke-width="1" fill="none" />
<polyline points="119.5,400.0,120.5,399.0,127.0,404.0,130.5,395.5,120.5,403.5,133.5,403.5,130.0,403.0,126.5,404.0,128.5,399.0,129.0,403.0" stroke="yellow" stroke-width="1" fill="none" />
<polyline points="133.5,411.0,134.0,393.0,139.0,398.5,142.5,387.0,134.0,396.0,141.0,379.5,135.5,378.0,141.5,373.5,144.5,379.5,147.5,368.5,153.0,367.0,143.0,360.5,135.5,345.0,146.0,344.5,147.5,348.5,143.5,347.5,133.0,347.5,133.5,343.5,135.0,338.5,139.0,336.0,133.0,328.0,126.0,317.0,137.0,310.5,123.0,319.5,128.5,301.5,121.0,307.5,128.5,292.5,131.5,295.5,132.0,285.0,135.5,293.5,127.0,278.5,131.5,274.0,129.0,269.0,125.0,269.5" stroke="orange" stroke-width="1" fill="none" />
<polyline points="127.0,277.5,126.0,277.5,129.0,285.5,126.0,290.0,112.5,300.5,131.0,292.5,116.0,303.0,131.0,294.5,121.5,302.5,110.5,314.5,109.0,330.0,113.5,314.0,114.5,319.5,120.0,324.0,111.5,332.5,109.5,334.5,113.5,335.0,116.0,341.5,120.5,335.5" stroke="yellow" stroke-width="1" fill="none" />
<polyline points="" stroke="orange" stroke-width="1" fill="none" />
<polyline points="118.0,349.0,119.5,344.0,117.5,352.0,130.5,361.5,117.5,371.5,112.0,357.0,115.5,370.0,121.0,368.5,110.0,377.5,118.5,389.0,114.0,387.5,119.0,382.5,122.0,398.5,122.0,402.0" stroke="black" stroke-width="1" fill="none" />
<polyline points="114.5,378.5,124.0,392.0,125.0,384.5,116.5,372.0,127.5,377.5,119.5,373.0,113.5,357.0,123.0,373.0,118.5,370.5" stroke="black" stroke-width="1" fill="none" />
<polyline points="126.5,379.0,129.0,381.5" stroke="black" stroke-width="1" fill="none" />
<polyline points="123.5,385.0,126.5,397.0,126.0,402.5" stroke="green" stroke-width="1" fill="none" />
<polyline points="133.0,394.0,123.0,386.5,133.5,399.0,143.0,394.5,135.5,391.5,145.0,391.5,140.0,390.0,142.5,401.0,137.0,395.0,139.0,393.5,140.5,395.5" stroke="yellow" stroke-width="1" fill="none" />
<polyline points="" stroke="yellow" stroke-width="1" fill="none" />
<polyline points="119.0,397.5,120.0,393.0,120.5,398.5,113.0,403.5,114.5,400.5,115.0,404.0" stroke="yellow" stroke-width="1" fill="none" />
<polyline points="122.0,414.0,126.0,405.5,120.5,405.5,124.5,418.5,117.5,421.5,131.5,426.0,142.5,419.5,130.5,433.0" stroke="black" stroke-width="1" fill="none" />
<polyline points="" stroke="orange" stroke-width="1" fill="none" />
<polyline points="" stroke="green" stroke-width="1" fill="none" />
<polyline points="" stroke="black" stroke-width="1" fill="none" />
<polyline points="" stroke="yellow" stroke-width="1" fill="none" />
<polyline points="" stroke="yellow" stroke-width="1" fill="none" />
<polyline points="155.0,390.0,152.0,390.5,155.0,392.5,148.0,385.5,147.5,391.0" stroke="green" stroke-width="1" fill="none" />
<polyline points="172.0,404.5,168.0,410.0,174.5,412.5,179.5,413.5,173.5,415.5,173.0,415.0,178.0,408.5,174.0,411.0,176.5,410.0" stroke="black" stroke-width="1" fill="none" />
<polyline points="149.5,403.5,164.5,404.5,165.5,393.0,138.0,385.0,146.0,388.5,142.5,387.5,144.0,391.0,140.5,385.0,137.0,381.5,142.0,386.0,147.5,378.5,134.5,378.5,137.5,380.0,133.5,369.5,141.5,360.5,134.5,362.5,143.0,350.0,145.5,347.5,143.5,357.0,133.0,341.5,125.0,341.0,124.5,335.0,127.0,332.0,143.0,326.0,138.5,324.5,139.5,320.0,138.5,320.5" stroke="orange" stroke-width="1" fill="none" />
<polyline points="131.5,328.5,123.5,341.0,117.5,346.0,120.5,345.0" stroke="orange" stroke-width="1" fill="none" />
<polyline points="123.5,351.0,124.0,350.5,116.5,349.0,118.0,366.5,115.5,368.0,117.5,375.5,120.0,382.0,120.5,382.5,122.0,381.5,136.5,386.0,131.0,383.5,130.0,397.5,129.5,399.0" stroke="orange" stroke-width="1" fill="none" />
<polyline points="" stroke="yellow" stroke-width="1" fill="none" />
<polyline points="" stroke="black" stroke-width="1" fill="none" />
<polyline points="" stroke="orange" stroke-width="1" fill="none" />
<polyline points="" stroke="orange" stroke-width="1" fill="none" />
<polyline points="129.5,359.5,129.5,355.5,133.0,351.5,121.5,358.0,136.5,368.0,137.0,368.5,125.5,372.0,124.0,370.5" stroke="black" stroke-width="1" fill="none" />
<polyline points="140.5,360.0,144.5,352.0,142.5,347.0,146.5,351.0,134.0,344.5" stroke="orange" stroke-width="1" fill="none" />
<polyline points="140.5,348.5,135.5,341.0" stroke="orange" stroke-width="1" fill="none" />
<polyline points="" stroke="yellow" stroke-width="1" fill="none" />
<polyline points="137.5,348.5,135.5,342.0,144.0,349.5,140.5,337.5,143.5,334.5,148.5,336.0,144.0,334.0,147.5,335.0" stroke="black" stroke-width="1" fill="none" />
<polyline points="138.0,346.0,131.5,332.5,139.0,342.5,137.5,344.5,139.5,342.5" stroke="orange" stroke-width="1" fill="none" />
<polyline points="118.0,353.5,117.5,362.0,111.0,362.5,111.5,366.5,109.5,371.5,118.0,370.5,108.5,377.0,119.5,378.5,124.5,381.5,122.5,393.0,115.0,396.5,113.5,399.5,115.0,411.5,120.5,398.0,119.5,407.5,118.0,421.5,103.5,425.0,110.5,420.0,113.5,422.5,117.0,418.0" stroke="yellow" stroke-width="1" fill="none" />
<polyline points="116.5,414.0" stroke="yellow" stroke-width="1" fill="none" />
<polyline points="123.5,421.5,126.0,419.5,127.0,420.5" stroke="orange" stroke-width="1" fill="none" />
<polyline points="" stroke="black" stroke-width="1" fill="none" />
<polyline points="" stroke="black" stroke-width="1" fill="none" />
<polyline points="109.5,435.0,120.5,429.5,116.5,441.5,122.5,444.5,122.0,441.0,132.0,440.5" stroke="green" stroke-width="1" fill="none" />
<polyline points="" stroke="black" stroke-width="1" fill="none" />
<polyline points="" stroke="black" stroke-width="1" fill="none" />
<polyline points="121.5,453.5,126.0,455.0,124.0,454.0,131.5,451.0,126.0,444.0,121.0,445.5,122.0,445.5" stroke="yellow" stroke-width="1" fill="none" />
<polyline points="" stroke="yellow" stroke-width="1" fill="none" />
<polyline points="100.5,434.5" stroke="black" stroke-width="1" fill="none" />
<polyline points="100.5,448.5,87.5,451.5,95.5,453.5,96.5,453.5" stroke="yellow" stroke-width="1" fill="none" />
<polyline points="82.0,462.0,83.5,459.0,96.0,453.5,90.0,452.0,88.0,448.0" stroke="black" stroke-width="1" fill="none" />
<polyline points="101.5,460.0" stroke="green" stroke-width="1" fill="none" />
<polyline points="96.5,497.5,103.5,499.0,104.0,501.0,99.5,508.0,111.0,512.0,103.0,516.5,107.5,514.0,100.5,514.0" stroke="yellow" stroke-width="1" fill="none" />
<polyline points="111.0,494.5,108.0,489.0,106.0,490.5" stroke="yellow" stroke-width="1" fill="none" />
<polyline points="118.5,486.0,112.0,498.0,116.5,495.0,119.0,504.5,123.0,515.0,116.0,514.5" stroke="yellow" stroke-width="1" fill="none" />
<polyline points="97.0,501.5,103.0,502.5,98.5,504.0,97.0,504.0" stroke="orange" stroke-width="1" fill="none" />
<polyline points="97.0,493.0,103.5,501.0,101.0,518.5" stroke="orange" stroke-width="1" fill="none" />
<polyline points="120.0,497.0,120.5,498.0,125.0,487.0,125.0,478.5" stroke="yellow" stroke-width="1" fill="none" />
<polyline points="127.5,494.5,125.0,493.5,127.0,493.0,133.5,506.0,129.0,506.5,126.0,502.0,127.0,511.5,129.0,511.0" stroke="orange" stroke-width="1" fill="none" />
<polyline points="150.5,441.0,148.0,418.5,147.5,425.5,141.0,415.5,124.5,418.0" stroke="green" stroke-width="1" fill="none" />
<polyline points="135.5,420.0,131.0,422.0,147.5,437.0,139.0,432.0,144.5,441.0,152.5,450.0,147.0,449.5,142.5,451.5,134.5,458.5,138.5,455.0,130.5,474.5,135.0,454.0,136.0,455.0,142.0,461.0,136.0,457.5,133.5,461.0" stroke="orange" stroke-width="1" fill="none" />
<polyline points="135.5,442.5,138.0,442.5,144.0,423.5,135.0,424.0,140.0,423.5,142.5,424.5,144.0,429.0" stroke="black" stroke-width="1" fill="none" />
<polyline points="130.5,427.5,123.5,435.0,123.5,422.0,128.5,418.5,126.5,415.5,129.5,418.5" stroke="yellow" stroke-width="1" fill="none" />
<polyline points="114.0,417.5,114.5,433.0,118.0,436.0" stroke="yellow" stroke-width="1" fill="none" />
<polyline points="" stroke="black" stroke-width="1" fill="none" />
<polyline points="101.5,408.5,110.5,418.0,106.5,431.5,104.5,436.5,110.5,436.0" stroke="orange" stroke-width="1" fill="none" />
<polyline points="106.5,437.5,96.0,438.0,90.0,438.0,87.0,442.0,92.5,447.0,105.0,441.5,98.0,442.0,101.5,426.5,100.5,429.5,109.5,427.0" stroke="green" stroke-width="1" fill="none" />
<polyline points="96.5,429.5,89.5,428.5,96.0,431.5,94.5,423.5,96.5,428.5,90.5,424.5" stroke="orange" stroke-width="1" fill="none" />
<polyline points="90.0,424.0,96.5,420.5,77.5,428.0,86.5,417.5,90.0,416.0,91.0,421.5,93.5,423.5" stroke="black" stroke-width="1" fill="none" />
<polyline points="" stroke="orange" stroke-width="1" fill="none" />
<polyline points="" stroke="orange" stroke-width="1" fill="none" />
<polyline points="97.5,389.0,89.5,400.5,104.5,398.5,100.5,401.5" stroke="yellow" stroke-width="1" fill="none" />
<polyline points="101.0,409.0,99.5,408.5,91.0,401.5,90.0,397.0,98.0,407.5,90.0,399.5,88.0,408.0,100.5,394.0,84.0,388.0,93.0,381.0,79.5,384.5,90.0,388.5,87.5,387.5" stroke="orange" stroke-width="1" fill="none" />
<polyline points="67.5,402.0,74.5,400.0,74.5,403.0,71.0,419.0,70.5,419.5,68.0,415.0,68.5,419.5,65.0,425.5,66.0,424.0,76.0,431.0,77.0,434.5,71.5,432.0,68.5,441.0,62.0,441.0,72.5,444.5,74.5,450.0,70.0,453.0,71.0,458.5,71.5,462.5,80.5,458.0,67.5,473.0,57.5,476.5,70.0,485.0,64.0,482.0,62.0,487.5,72.0,492.5,63.0,499.0,69.5,501.0,61.5,499.0,66.5,502.0,64.0,513.0,57.0,512.5,68.5,503.0,72.5,500.0" stroke="green" stroke-width="1" fill="none" />
<polyline points="61.0,505.5" stroke="green" stroke-width="1" fill="none" />
<polyline points="71.5,486.0,71.5,493.0" stroke="green" stroke-width="1" fill="none" />
<polyline points="65.5,477.5,65.0,478.5,57.0,475.5,66.5,481.5,69.5,481.5,62.5,480.5,65.0,489.0,69.5,496.5,69.0,495.5,71.5,489.0,70.0,492.5" stroke="yellow" stroke-width="1" fill="none" />
<polyline points="69.0,467.5,77.5,458.5,81.0,459.5,84.5,447.5,83.0,449.0,79.5,445.5,82.0,448.0" stroke="orange" stroke-width="1" fill="none" />
<polyline points="" stroke="orange" stroke-width="1" fill="none" />
<polyline points="78.5,452.5" stroke="green" stroke-width="1" fill="none" />
<polyline points="66.5,471.5,68.0,466.5,60.5,467.0,63.0,459.0,70.0,468.5,73.0,475.0,73.5,484.5,73.5,486.0" stroke="black" stroke-width="1" fill="none" />
<polyline points="" stroke="orange" stroke-width="1" fill="none" />
<polyline points="14.5,504.0,15.0,503.0,16.0,507.0,18.0,513.5,17.5,513.5" stroke="yellow" stroke-width="1" fill="none" />
<polyline points="19.5,499.0" stroke="black" stroke-width="1" fill="none" />
<polyline points="" stroke="green" stroke-width="1" fill="none" />
<polyline points="11.5,417.0,6.0,422.5,10.0,421.0,3.5,427.5,12.5,430.5,10.0,443.5,11.5,445.5,10.0,444.5,11.5,440.5,11.5,445.5,18.0,453.5,15.5,456.0,11.0,467.5,10.0,461.5,21.0,474.5,19.5,471.5" stroke="black" stroke-width="1" fill="none" />
<polyline points="25.5,464.0,33.5,454.0,30.0,456.0,26.0,458.5,30.0,443.0,29.0,443.5" stroke="orange" stroke-width="1" fill="none" />
<polyline points="28.0,415.0,27.0,414.5" stroke="yellow" stroke-width="1" fill="none" />
<polyline points="24.0,410.0,19.5,418.5,12.5,418.5,14.5,423.0,18.5,428.0,22.0,443.0,31.5,442.0,12.5,441.0,27.0,445.5,27.0,452.5,29.0,451.5,15.5,455.5,28.5,457.5,28.0,459.0,21.0,472.5,27.0,472.5,32.5,476.0,26.5,472.5,30.0,485.0,29.0,496.5,22.0,496.0,33.5,500.0,34.5,499.5" stroke="green" stroke-width="1" fill="none" />
<polyline points="69.0,436.0,67.5,434.0,65.0,437.0" stroke="black" stroke-width="1" fill="none" />
<polyline points="69.0,424.0,69.5,429.5,65.0,428.0,65.5,417.0,67.5,411.0,67.5,416.5,65.5,408.0,67.0,403.5,74.0,401.5,73.0,396.0,84.0,392.0,63.5,404.5" stroke="black" stroke-width="1" fill="none" />
<polyline points="" stroke="yellow" stroke-width="1" fill="none" />
<polyline points="" stroke="green" stroke-width="1" fill="none" />
<polyline points="75.5,414.0,62.5,423.5" stroke="green" stroke-width="1" fill="none" />
<polyline points="66.0,423.0,67.5,431.0,77.5,420.5,76.0,422.0,77.5,429.5" stroke="orange" stroke-width="1" fill="none" />
<polyline points="99.0,444.5,100.5,437.5,101.0,433.5,98.0,438.0,101.0,436.0,97.5,443.0,100.0,443.0" stroke="yellow" stroke-width="1" fill="none" />
<polyline points="" stroke="black" stroke-width="1" fill="none" />
<polyline points="107.0,413.5,93.0,418.0,93.0,419.0,95.0,416.0" stroke="black" stroke-width="1" fill="none" />
<polyline points="106.0,403.5,102.0,401.0,100.5,394.5,99.0,398.0,92.5,399.0,97.5,404.5" stroke="yellow" stroke-width="1" fill="none" />
<polyline points="97.0,368.5,101.0,375.0,106.5,378.0,98.5,364.5,111.0,356.5,105.0,359.5,108.0,358.0,108.5,355.5,109.5,362.0,111.0,352.5,110.5,340.0,106.0,337.0" stroke="orange" stroke-width="1" fill="none" />
<polyline points="101.0,335.0,102.0,333.5,105.5,334.5,104.0,335.0,104.5,336.0" stroke="black" stroke-width="1" fill="none" />
<polyline points="" stroke="yellow" stroke-width="1" fill="none" />
<polyline points="103.5,323.5,111.5,307.5,121.5,316.5,124.5,306.0,128.5,306.0,123.0,312.5,115.5,315.0,114.0,325.0,105.5,307.5,103.0,308.0,115.0,310.0,111.0,321.0,102.5,323.5,100.0,313.5,110.0,321.5,110.0,310.5,122.0,303.5,116.0,300.5,118.0,299.5,123.0,297.5,124.5,297.5,123.0,301.5" stroke="orange" stroke-width="1" fill="none" />
<polyline points="111.0,303.0,126.5,312.0,118.0,313.5,115.5,313.5,110.5,324.0,120.0,323.0,109.5,328.0,95.5,326.0,94.5,338.0,88.0,335.5,100.5,347.0,87.5,334.5,90.5,332.5" stroke="black" stroke-width="1" fill="none" />
<polyline points="" stroke="yellow" stroke-width="1" fill="none" />
<polyline points="100.5,370.0,85.0,376.5,93.0,373.5,96.5,383.0,90.0,396.0,86.0,398.0,95.5,393.0,87.0,384.0,88.0,404.0,93.0,406.0,90.5,406.0,93.0,413.5,92.5,413.5,107.0,403.5,109.0,420.0,104.0,408.0,110.5,400.0" stroke="orange" stroke-width="1" fill="none" />
<polyline points="125.5,348.5,129.0,350.0,130.5,353.0" stroke="orange" stroke-width="1" fill="none" />
<polyline points="115.0,373.5,128.0,392.0,127.0,389.5,126.0,394.0,122.0,385.0,130.0,401.5,128.0,407.0,134.5,403.0,132.5,397.5" stroke="black" stroke-width="1" fill="none" />
<polyline points="121.5,368.0,120.5,363.5,120.0,359.0,117.5,352.0,117.0,357.5" stroke="black" stroke-width="1" fill="none" />
<polyline points="127.5,374.5,118.5,374.0,127.0,377.5,132.0,378.5,133.0,383.5" stroke="yellow" stroke-width="1" fill="none" />
<polyline points="" stroke="black" stroke-width="1" fill="none" />
<polyline points="134.5,360.5,130.0,359.0,132.0,371.0,138.5,367.0,141.5,357.5,140.0,362.5" stroke="orange" stroke-width="1" fill="none" />
<polyline points="173.5,362.0,181.5,366.5,180.0,354.5,179.5,359.5,177.0,343.0,184.0,341.5" stroke="green" stroke-width="1" fill="none" />
<polyline points="169.0,342.0,178.0,337.5,174.0,344.5,159.0,345.0,167.0,357.0,158.5,359.5,161.5,369.0,162.0,367.0,166.0,369.5,164.5,357.5,176.0,356.5,176.0,350.0,174.0,343.0,177.5,336.5,187.5,338.5,187.0,331.5,186.5,343.0,192.5,324.5,190.5,323.5,189.0,330.0,195.5,334.5" stroke="yellow" stroke-width="1" fill="none" />
<polyline points="" stroke="green" stroke-width="1" fill="none" />
<polyline points="198.0,362.0,196.5,364.0,191.5,350.0,189.0,350.0,188.0,347.5,189.5,343.5,191.5,342.0" stroke="green" stroke-width="1" fill="none" />
<polyline points="167.0,365.5,169.5,360.0,170.0,358.5" stroke="yellow" stroke-width="1" fill="none" />
<polyline points="162.5,367.5,167.0,370.0,163.0,360.0,166.5,361.0,157.0,369.5,157.0,365.5,159.5,363.0,166.5,352.0,171.5,354.0,174.5,347.5,178.5,342.5,179.0,339.5,178.0,342.0,185.0,334.5,176.0,328.0,158.5,322.5,168.0,340.0,159.0,341.5,164.0,341.0,158.5,335.5,170.0,330.5,161.0,329.5,170.5,328.5" stroke="orange" stroke-width="1" fill="none" />
<polyline points="173.0,328.0,169.0,342.5,170.0,335.5,171.0,330.5" stroke="black" stroke-width="1" fill="none" />
<polyline points="" stroke="yellow" stroke-width="1" fill="none" />
<polyline points="167.5,319.5,164.5,321.0,158.5,323.5,145.0,339.0,154.5,347.5,154.5,335.5,142.5,349.0,144.5,333.5,138.5,333.0,136.5,339.0,134.0,333.0,140.0,330.5,133.0,320.0,131.5,312.0,127.0,305.5,132.5,317.0,128.0,306.0,137.0,300.5,130.0,301.0,131.0,298.5,138.5,286.5,141.5,293.5,137.0,281.5,133.5,271.5,136.0,280.0,128.5,282.0,139.0,283.5,136.0,278.5,145.5,280.5,142.0,271.5,135.0,279.0,151.5,270.0,157.0,249.0,151.5,248.5,166.0,248.5,161.0,243.5,164.0,245.0,158.0,243.0,149.0,245.0" stroke="green" stroke-width="1" fill="none" />
<polyline points="147.5,249.5,146.5,254.0,145.5,253.0" stroke="black" stroke-width="1" fill="none" />
<polyline points="140.5,246.0,141.5,236.5,148.5,246.5,147.5,247.0,157.5,248.5,152.0,255.5,149.5,257.5" stroke="yellow" stroke-width="1" fill="none" />
<polyline points="146.0,265.0,143.0,272.0,133.5,274.5,135.0,269.5,134.5,276.5,133.5,279.0" stroke="black" stroke-width="1" fill="none" />
<polyline points="150.5,262.5,150.5,257.5,157.5,260.0,159.5,253.5,154.5,263.0,156.0,264.0,153.0,266.5,149.0,273.0,148.5,273.5,144.0,273.0,148.0,293.0,152.5,283.5,153.5,282.5,161.5,279.5,163.0,278.5,163.5,294.0,163.5,296.5,156.5,297.5,165.5,308.5,165.0,319.0,163.0,318.5,157.0,315.0,162.0,314.5,168.5,317.0,171.0,309.5,171.0,300.5,174.5,301.5,170.5,296.0,184.5,284.5,186.5,287.0,181.5,295.0,183.0,291.0" stroke="black" stroke-width="1" fill="none" />
<polyline points="" stroke="green" stroke-width="1" fill="none" />
<polyline points="" stroke="orange" stroke-width="1" fill="none" />
<polyline points="174.5,294.0,176.5,296.0,175.0,310.0,175.0,304.5,179.5,304.0,177.0,306.5,178.0,307.0" stroke="yellow" stroke-width="1" fill="none" />
<polyline points="167.5,305.5" stroke="orange" stroke-width="1" fill="none" />
<polyline points="172.0,309.5,167.0,297.0,174.0,296.5,180.5,302.5,171.5,285.5,167.0,289.5,173.0,293.0,158.0,299.0,162.0,286.0,166.0,287.5,175.5,284.0,177.0,283.0,176.0,284.5,159.5,284.0,169.0,284.0,164.0,292.5,166.0,284.5,173.5,297.5,165.0,273.0,167.0,281.5,164.5,274.0,164.5,270.5,165.5,264.5,171.5,266.5,172.5,262.0,169.0,265.0,170.0,258.0,174.5,246.5,181.0,248.0,172.0,236.5,175.5,234.0,179.5,234.5,182.0,240.5,175.0,245.0,177.5,242.5,175.5,241.5" stroke="black" stroke-width="1" fill="none" />
<polyline points="183.5,234.5,178.5,241.5,177.5,240.5,183.0,245.0,174.0,251.0,173.5,249.0,186.0,256.0,187.5,255.5" stroke="green" stroke-width="1" fill="none" />
<polyline points="190.0,255.5,190.5,255.5,180.0,253.5,184.0,249.5,186.0,247.0,184.5,247.0" stroke="yellow" stroke-width="1" fill="none" />
<polyline points="225.5,273.0,228.0,272.0,221.0,269.0,225.0,276.0,239.5,266.5,233.0,270.0,229.0,267.0,226.0,270.5" stroke="green" stroke-width="1" fill="none" />
<polyline points="207.5,318.5,212.5,322.0,220.5,324.0,212.5,330.0,220.0,333.0,215.5,331.5,218.5,337.0,226.5,343.0,214.5,348.0" stroke="yellow" stroke-width="1" fill="none" />
<polyline points="256.5,385.5,250.0,388.5,250.5,377.5,256.0,394.5,260.0,378.5" stroke="black" stroke-width="1" fill="none" />
<polyline points="262.0,386.0,265.5,382.0,256.5,374.0,248.5,395.5,252.5,398.5,257.5,393.0,248.0,390.5,246.0,396.0,249.5,390.5" stroke="orange" stroke-width="1" fill="none" />
<polyline points="272.5,350.0,276.0,347.0" stroke="black" stroke-width="1" fill="none" />
<polyline points="273.0,353.5,284.5,348.5,280.0,347.0" stroke="yellow" stroke-width="1" fill="none" />
<polyline points="219.5,356.5,216.0,349.5,220.5,352.5,221.0,340.0,220.0,335.5,219.5,330.5,225.0,326.0,225.0,325.0,227.0,313.5,220.5,311.0,222.5,314.5,213.0,303.5,224.5,305.0" stroke="black" stroke-width="1" fill="none" />
<polyline points="168.0,293.5,176.5,291.0,173.0,289.5,174.5,291.0" stroke="black" stroke-width="1" fill="none" />
<polyline points="175.5,299.5,175.0,298.5,180.5,312.0,172.0,310.5,174.5,307.5" stroke="green" stroke-width="1" fill="none" />
<polyline points="155.5,311.0,162.0,308.0,158.0,302.0,152.0,306.0,154.0,313.5,155.5,317.5,157.0,317.5" stroke="yellow" stroke-width="1" fill="none" />
<polyline points="" stroke="yellow" stroke-width="1" fill="none" />
<polyline points="166.0,313.0,163.0,310.0,163.5,314.5,161.5,317.0,157.0,320.5,160.0,317.5,162.0,313.5" stroke="yellow" stroke-width="1" fill="none" />
<polyline points="" stroke="orange" stroke-width="1" fill="none" />
<polyline points="" stroke="black" stroke-width="1" fill="none" />
<polyline points="142.5,285.5" stroke="green" stroke-width="1" fill="none" />
<polyline points="150.0,282.5,153.0,281.0" stroke="yellow" stroke-width="1" fill="none" />
<polyline points="175.0,293.0,172.5,296.0,173.0,297.5,163.5,292.0" stroke="black" stroke-width="1" fill="none" />
<polyline points="173.0,292.5,179.0,303.5,173.0,308.5,164.0,308.5,168.5,304.5" stroke="orange" stroke-width="1" fill="none" />
<polyline points="158.0,293.5,154.0,297.0,158.5,292.5" stroke="yellow" stroke-width="1" fill="none" />
<polyline points="161.5,289.0,165.0,290.5,158.5,301.5,175.0,294.5,173.0,298.5,168.5,293.5" stroke="black" stroke-width="1" fill="none" />
<polyline points="168.0,278.0,170.5,300.5,168.5,294.0,170.0,299.0,165.5,309.0,170.0,311.5,169.0,308.5,160.5,318.0,164.5,312.5,167.0,313.5,164.5,330.0,161.5,329.0,149.5,329.5,152.0,336.5,159.0,340.0,149.0,340.5,147.5,352.5,154.0,355.5,146.5,357.5,140.0,344.5,144.5,346.0,149.0,347.0,155.5,350.5,168.5,347.0,162.0,342.0,160.5,340.5,161.0,340.5" stroke="yellow" stroke-width="1" fill="none" />
<polyline points="" stroke="orange" stroke-width="1" fill="none" />
<polyline points="157.5,276.5,163.0,273.5,174.0,269.5,162.5,262.5,155.0,265.5" stroke="yellow" stroke-width="1" fill="none" />
<polyline points="163.0,262.0,170.5,264.0,166.5,264.0,166.0,274.0,171.5,279.0,167.5,275.5,167.0,275.5" stroke="yellow" stroke-width="1" fill="none" />
<polyline points="" stroke="yellow" stroke-width="1" fill="none" />
<polyline points="153.0,281.5,152.0,274.5,158.5,277.0,159.0,273.0,160.0,284.0,165.0,280.0,168.0,284.0,162.5,285.5,181.0,282.5,170.5,293.5,171.0,282.5,178.5,283.5,175.0,281.5" stroke="black" stroke-width="1" fill="none" />
<polyline points="168.0,287.5,165.5,291.0,173.0,285.5,157.0,288.5,169.0,287.5" stroke="yellow" stroke-width="1" fill="none" />
<polyline points="158.0,286.5,166.5,284.5,158.5,297.0,160.5,291.5,161.0,288.0,159.0,287.0,160.0,290.5,160.0,284.5" stroke="black" stroke-width="1" fill="none" />
<polyline points="146.0,299.0,150.5,290.0,159.5,289.0,159.5,279.5,157.5,276.0,151.5,270.5,153.5,262.0,159.5,267.5,164.0,269.0,165.0,249.5,169.5,255.0,164.0,252.0,165.5,248.0,165.0,244.0,160.0,235.5,168.0,252.5,156.0,255.5,155.5,251.0,146.5,249.5,142.0,259.0,152.0,250.5,138.0,269.0,135.5,253.0,140.5,263.5,122.5,255.0,131.5,271.5,128.0,273.0,134.0,259.0,133.5,251.5,139.0,249.0,128.5,252.5,133.5,243.0,144.0,243.0,136.5,241.0,141.0,241.5,143.0,227.0,132.5,229.5,137.0,226.0,140.5,229.0,135.5,225.5,139.0,217.0,120.0,213.5,130.0,202.5,124.0,200.0,127.0,198.0,113.5,197.0,124.5,192.0,120.5,175.0,119.5,187.0,117.5,181.0,124.0,173.5,116.0,166.5,119.5,153.0,119.5,162.5,114.5,151.5,116.5,142.5,115.5,139.5,118.5,140.0,124.0,141.5,122.5,132.0,125.5,133.0,129.5,125.0,132.5,128.5,135.0,116.5,134.0,122.0,134.5,105.0,137.5,116.0,131.5,97.0,142.5,100.5,140.0,107.5,138.5,99.5,142.0,95.5,139.5,108.5,139.5,107.0,138.0,107.5,141.5,110.5" stroke="black" stroke-width="1" fill="none" />
<polyline points="130.5,102.0,134.5,113.5,144.5,110.0,139.0,117.5,130.5,132.0,126.5,120.5,134.0,137.0,131.5,132.0,130.0,139.5,135.5,138.5,139.5,152.0,136.0,147.5,128.0,142.0,124.5,149.5,126.0,149.0,127.0,151.0,125.0,155.0,125.0,157.0" stroke="orange" stroke-width="1" fill="none" />
<polyline points="126.0,152.5,129.5,152.0,132.5,156.0,137.5,154.0,131.0,157.5,122.0,170.0,131.0,164.5,126.0,170.0,131.0,159.0,125.0,165.0,131.0,165.0,127.5,169.5,126.0,177.0,132.0,175.5" stroke="orange" stroke-width="1" fill="none" />
<polyline points="146.5,182.5,148.0,187.5,122.0,177.5,134.5,182.0,139.0,175.0,142.0,170.5,138.0,175.0,137.5,176.5" stroke="green" stroke-width="1" fill="none" />
<polyline points="126.0,176.0,137.0,173.5,132.0,177.0,141.0,177.0,129.0,173.0,136.5,169.0,133.0,173.5,137.5,169.5,139.5,165.5,138.5,165.0" stroke="green" stroke-width="1" fill="none" />
<polyline points="141.5,177.5,140.5,177.5,137.0,178.5,137.0,182.0" stroke="orange" stroke-width="1" fill="none" />
<polyline points="136.0,177.0,131.0,173.5,146.0,170.0" stroke="green" stroke-width="1" fill="none" />
<polyline points="139.0,178.5,140.0,171.0,142.0,175.0,145.5,190.5,132.5,178.5,149.0,202.5,142.5,195.0,142.0,194.0,150.5,190.0,151.0,194.5" stroke="green" stroke-width="1" fill="none" />
<polyline points="150.0,199.0" stroke="green" stroke-width="1" fill="none" />
<polyline points="155.0,196.0,148.0,186.0,146.5,195.5,151.0,189.0" stroke="orange" stroke-width="1" fill="none" />
<polyline points="" stroke="orange" stroke-width="1" fill="none" />
<polyline points="153.5,187.5,147.5,188.5,146.0,194.0,140.0,183.5,142.5,191.5,148.5,179.0,148.5,183.5,145.0,185.0" stroke="orange" stroke-width="1" fill="none" />
<polyline points="155.5,184.5,153.0,191.5,156.0,183.0,147.5,198.5" stroke="yellow" stroke-width="1" fill="none" />
<polyline points="151.0,187.0,145.5,184.5,150.5,184.5,147.0,189.0" stroke="orange" stroke-width="1" fill="none" />
<polyline points="163.5,175.5,167.5,174.5,170.0,179.5,175.5,168.0,168.5,165.0,177.0,169.0,179.0,157.5,185.0,157.5,187.5,156.0,197.5,151.5,203.5,154.5,203.5,145.5,205.5,149.0" stroke="orange" stroke-width="1" fill="none" />
<polyline points="206.0,154.0,206.0,154.5,208.5,154.0,211.0,155.0,211.5,155.0" stroke="orange" stroke-width="1" fill="none" />
<polyline points="217.0,154.5,227.0,151.5,223.0,152.5,221.5,153.5,217.0,154.5,209.5,152.5,218.0,155.0,212.5,151.0" stroke="orange" stroke-width="1" fill="none" />
<polyline points="219.0,146.5,216.5,143.5" stroke="orange" stroke-width="1" fill="none" />
<polyline points="226.0,174.0,228.5,162.5,221.5,172.5,220.0,187.0,215.5,193.0,211.5,189.0,206.5,187.0,205.0,196.0,203.5,193.0,201.5,190.0,198.5,192.5" stroke="green" stroke-width="1" fill="none" />
<polyline points="217.5,188.0,221.0,188.0,216.5,184.5,210.5,187.5,224.5,178.0,218.5,168.5,229.0,176.0,236.5,172.5,239.0,166.5,245.0,167.0,246.5,170.5,247.5,179.0,239.0,174.5,239.5,182.5,241.5,176.0,245.5,176.5" stroke="green" stroke-width="1" fill="none" />
<polyline points="233.0,183.0,230.0,190.5,236.5,184.0,230.0,195.5,222.0,198.0,222.0,192.5,217.0,205.5,198.5,216.0,202.5,213.0,201.0,214.0,201.5,221.0,205.5,228.5,207.5,229.0,215.0,236.0,209.0,234.5,211.5,231.5,211.0,233.5,212.5,231.0" stroke="black" stroke-width="1" fill="none" />
<polyline points="212.5,201.5,204.5,200.5,211.0,208.0,221.0,190.5,220.0,187.0,220.0,192.0,229.5,193.5,231.0,183.5" stroke="yellow" stroke-width="1" fill="none" />
<polyline points="208.5,202.0,214.5,202.5,208.0,201.0,211.0,211.0,204.5,203.5,201.5,210.5,207.5,202.5,223.0,201.0,230.5,197.5,226.5,207.0,225.0,197.0,228.5,194.0,223.0,201.0" stroke="green" stroke-width="1" fill="none" />
<polyline points="211.0,200.5,223.5,192.0,225.0,192.5,228.0,194.0" stroke="green" stroke-width="1" fill="none" />
<polyline points="216.0,177.0,217.0,186.5" stroke="orange" stroke-width="1" fill="none" />
<polyline points="232.0,170.0,230.0,176.0,223.5,188.0,230.0,191.5,218.0,199.5,206.0,192.5" stroke="orange" stroke-width="1" fill="none" />
<polyline points="" stroke="orange" stroke-width="1" fill="none" />
<polyline points="" stroke="black" stroke-width="1" fill="none" />
<polyline points="194.0,203.5,201.0,199.5,187.5,198.5,189.5,209.0,191.5,201.0,188.5,205.5,188.5,202.0,190.0,199.0" stroke="orange" stroke-width="1" fill="none" />
<polyline points="187.5,196.5,185.5,201.5,186.5,197.0" stroke="yellow" stroke-width="1" fill="none" />
<polyline points="185.0,204.0,188.5,208.5,191.5,212.5,194.5,223.0,186.0,217.5,187.5,223.5,195.5,219.0,190.0,208.0,182.5,204.5" stroke="black" stroke-width="1" fill="none" />
<polyline points="" stroke="black" stroke-width="1" fill="none" />
<polyline points="173.0,211.5,189.5,214.5,179.0,214.0,187.0,217.0,182.5,208.0,185.5,209.5" stroke="orange" stroke-width="1" fill="none" />
<polyline points="" stroke="green" stroke-width="1" fill="none" />
<polyline points="166.5,216.0,167.0,216.0,162.0,225.0,166.5,226.5,167.5,229.5,168.0,223.0,171.0,223.5" stroke="yellow" stroke-width="1" fill="none" />
<polyline points="186.5,218.0,178.0,226.0,165.0,221.0,156.5,226.5,182.5,242.0,174.5,235.5,170.5,234.0,171.5,232.5,179.5,234.5" stroke="yellow" stroke-width="1" fill="none" />
<polyline points="175.0,242.0,161.5,244.0,165.0,243.0,163.0,247.5,163.0,246.0" stroke="black" stroke-width="1" fill="none" />
<polyline points="157.0,260.0,157.0,259.0,150.5,272.0,132.0,257.0,132.5,268.5,129.5,276.0,132.5,269.0,121.5,281.0,119.0,264.0,112.5,260.0,124.5,265.0,113.0,266.0" stroke="yellow" stroke-width="1" fill="none" />
<polyline points="114.5,265.5" stroke="black" stroke-width="1" fill="none" />
<polyline points="115.0,273.0,119.0,276.5,110.5,281.5,114.5,285.0,107.5,301.5,106.0,300.5,97.5,305.5,94.0,305.0,92.5,308.5,86.0,313.0,80.5,325.0,85.5,319.5,93.5,334.0,83.0,334.0,93.0,341.0,78.5,340.0,85.0,344.5,93.0,344.5,77.5,355.5,77.5,356.0,78.5,352.0,65.5,356.0,76.5,358.5,63.0,358.5,76.5,350.5,73.0,346.0,90.5,333.0,88.0,333.5,92.5,328.5" stroke="black" stroke-width="1" fill="none" />
<polyline points="91.5,326.5,95.5,334.0,94.5,323.0,91.5,333.5,84.0,337.5,87.5,344.0,76.0,337.5,82.5,345.5,75.0,352.0,69.5,355.0,66.0,358.5,57.5,364.0,62.5,366.5,64.5,370.5,71.0,363.5,73.5,354.5,72.5,347.0,78.0,345.0,83.5,346.5,87.5,337.0,78.5,350.0,97.5,346.0,88.0,343.0,82.0,350.0,88.5,359.0,70.5,355.0,81.5,376.5,80.5,367.0,80.5,372.5,82.0,367.5,84.5,371.5,85.0,349.0,87.0,360.0,95.0,346.5" stroke="yellow" stroke-width="1" fill="none" />
<polyline points="105.0,346.5,93.0,354.0,107.5,357.0,105.0,369.5,102.0,365.5,92.5,377.0,101.0,377.5,103.5,372.5,105.0,375.0,106.5,374.0,102.0,373.5,101.0,371.5" stroke="yellow" stroke-width="1" fill="none" />
<polyline points="109.0,367.0,110.0,360.5,106.5,357.5,104.5,359.5,103.5,360.5,98.0,354.0,97.5,355.5,96.5,357.5,95.0,358.5" stroke="yellow" stroke-width="1" fill="none" />
<polyline points="103.0,361.0,106.5,362.5,106.0,365.0,114.0,364.5,109.5,362.5,112.5,366.5,111.0,366.0,110.0,363.0" stroke="black" stroke-width="1" fill="none" />
<polyline points="109.0,358.0" stroke="black" stroke-width="1" fill="none" />
<polyline points="117.5,349.5,126.5,357.0,123.5,364.0,134.5,353.0" stroke="yellow" stroke-width="1" fill="none" />
<polyline points="" stroke="yellow" stroke-width="1" fill="none" />
<polyline points="78.0,364.0,85.5,351.0,81.0,351.0,94.0,348.5,74.0,354.0,72.5,355.0,69.0,364.0,77.0,361.5,66.5,380.0,77.0,373.0,71.5,371.5,80.5,368.5,81.5,367.5,81.0,370.0" stroke="yellow" stroke-width="1" fill="none" />
<polyline points="86.0,382.5,82.0,385.0,76.5,382.0,71.5,390.0,69.0,394.0,62.5,390.5,58.0,393.5,52.5,401.0,57.0,402.5,62.5,394.5,74.5,390.5,81.0,384.0,79.0,382.0,78.0,381.5,68.0,382.5,58.0,391.0,68.5,394.0,62.5,389.0,56.0,404.5,68.5,401.5,70.5,396.5,73.5,384.0,80.5,386.0,83.0,381.5,83.0,372.0,93.5,371.5,89.0,369.5,80.5,361.5,91.5,351.0,95.0,358.0,90.0,349.5,93.0,352.5,96.5,360.0,96.0,343.5,99.0,349.5,95.5,345.5,88.0,364.5,93.0,345.0,95.0,339.0,102.5,342.5,101.5,326.5,89.0,329.5,96.0,324.0,98.0,312.0,98.5,319.0,94.5,310.5,99.5,311.5,106.0,309.0,106.5,293.0,108.0,309.5,95.0,315.0,102.0,321.5,98.0,318.5,95.0,313.5,99.5,310.0,99.5,308.0" stroke="black" stroke-width="1" fill="none" />
<polyline points="85.5,311.5,90.5,314.5,87.5,315.0,83.5,304.5,97.0,302.0,99.0,306.5,121.0,289.5,103.0,291.0,109.5,291.5,114.0,288.5,113.0,288.0,116.5,286.0,116.0,281.5,113.5,284.0" stroke="orange" stroke-width="1" fill="none" />
<polyline points="93.5,300.0,91.5,311.5,84.5,305.0,81.0,305.0,82.0,305.0" stroke="black" stroke-width="1" fill="none" />
<polyline points="86.5,294.0,91.0,301.5,82.0,299.0,82.0,295.5,95.5,294.0,93.5,299.0" stroke="orange" stroke-width="1" fill="none" />
<polyline points="90.0,293.5,87.0,289.0,85.0,296.0,97.0,288.0,100.5,295.5,89.5,284.0,104.5,290.5,105.5,285.5" stroke="yellow" stroke-width="1" fill="none" />
<polyline points="108.0,274.0,108.5,277.5,113.0,272.0" stroke="green" stroke-width="1" fill="none" />
<polyline points="105.0,270.5,105.0,270.5,111.5,270.0,105.0,271.0,109.0,269.5,103.5,284.0,100.0,281.5,89.5,283.0,80.0,287.5,94.0,288.5,88.0,285.0,105.5,276.0,92.0,281.5,118.0,291.0,109.0,287.0,123.5,288.5,118.0,288.5,123.5,291.0,125.5,288.0" stroke="orange" stroke-width="1" fill="none" />
<polyline points="122.0,282.5,111.0,285.5,108.5,285.5,99.5,288.5,94.5,287.0,100.0,291.5,85.0,290.5,87.0,298.5,94.0,291.5,97.5,293.0,93.0,293.5" stroke="green" stroke-width="1" fill="none" />
<polyline points="96.0,265.0,99.0,260.5,114.0,253.0,92.0,264.5,93.5,270.5,98.5,281.0,92.0,284.0,90.5,283.5,91.5,267.0,101.0,271.0,97.0,279.0,104.0,276.5,108.0,274.5,110.0,289.0,112.5,270.0,113.5,283.5,135.5,268.0,132.5,266.0,135.0,266.5,132.5,264.0,130.0,267.0" stroke="yellow" stroke-width="1" fill="none" />
<polyline points="135.0,263.5,134.0,266.0,125.0,270.5,121.0,276.0,104.0,290.5,94.0,287.5,97.5,306.0,99.5,294.0,88.0,311.5,77.5,310.5,88.5,306.0,81.5,314.0,75.0,319.5,78.0,316.5,77.5,314.5,79.5,308.5,76.0,311.5,75.0,312.0" stroke="green" stroke-width="1" fill="none" />
<polyline points="" stroke="orange" stroke-width="1" fill="none" />
<polyline points="126.5,312.0,122.5,312.0,120.5,316.0,113.0,312.0,115.5,336.0,108.0,316.5,94.0,327.0" stroke="green" stroke-width="1" fill="none" />
<polyline points="68.5,322.0,66.5,324.0,70.0,326.5,63.5,323.5,75.0,329.5,72.5,321.0,71.5,311.5,74.0,316.0,74.5,306.0,75.5,307.0,71.5,314.5,76.0,310.5" stroke="orange" stroke-width="1" fill="none" />
<polyline points="" stroke="yellow" stroke-width="1" fill="none" />
<polyline points="73.5,312.0,75.0,312.0,81.5,306.0,90.5,308.5,97.5,297.5" stroke="green" stroke-width="1" fill="none" />
<polyline points="99.0,323.0,106.5,313.0,103.0,317.5,107.0,304.0,109.5,305.5,99.0,308.5,102.5,307.5" stroke="yellow" stroke-width="1" fill="none" />
<polyline points="106.0,286.5,110.5,288.0,105.0,284.0,101.0,289.0,102.0,287.0,102.5,287.0,98.0,285.5,102.5,291.0,107.0,292.0,111.0,285.0,109.5,287.5,107.0,289.0" stroke="orange" stroke-width="1" fill="none" />
<polyline points="110.0,289.0,97.0,295.0,106.5,288.5,112.0,284.0,107.0,286.0" stroke="black" stroke-width="1" fill="none" />
<polyline points="89.5,284.0,93.5,273.5,90.0,280.0" stroke="yellow" stroke-width="1" fill="none" />
<polyline points="110.0,295.5,121.5,292.5,115.0,285.0,111.0,306.0,104.5,308.0,102.0,307.0,102.0,324.0,100.0,316.5,102.5,330.0,102.0,336.0,99.5,330.5,100.0,344.5,97.5,341.0,98.5,340.5,103.5,338.0,110.0,328.5,112.5,332.5,121.5,317.0,124.5,303.5,116.0,298.0,129.5,291.5,130.5,296.5,128.0,311.5,132.0,312.5" stroke="orange" stroke-width="1" fill="none" />
<polyline points="128.5,321.5,132.5,316.0,129.5,320.0,129.0,334.0,139.0,336.0,135.5,337.0" stroke="orange" stroke-width="1" fill="none" />
<polyline points="119.0,313.5,128.0,314.0,121.5,319.5,128.5,330.5,102.0,327.5,115.0,342.0,107.5,347.0,96.0,342.0,99.5,346.0,91.0,343.0,94.5,353.0,99.0,350.0,90.0,354.5,104.0,358.0,98.0,370.5,94.0,365.5,93.5,374.5,95.0,384.5,94.5,386.0" stroke="orange" stroke-width="1" fill="none" />
<polyline points="75.0,403.0,77.0,403.5,74.5,412.5,65.0,409.5" stroke="orange" stroke-width="1" fill="none" />
<polyline points="" stroke="orange" stroke-width="1" fill="none" />
<polyline points="130.5,293.5,129.0,294.5,125.5,303.0,116.0,308.0,110.5,314.5,102.5,323.0,114.0,306.0,102.5,302.5,115.5,304.5,118.0,299.5,123.0,293.0" stroke="green" stroke-width="1" fill="none" />
<polyline points="" stroke="green" stroke-width="1" fill="none" />
<polyline points="" stroke="yellow" stroke-width="1" fill="none" />
<polyline points="140.0,230.5,141.0,235.0,138.0,243.5,133.5,249.5,148.0,245.0,146.5,242.5" stroke="orange" stroke-width="1" fill="none" />
<polyline points="140.5,231.5,141.0,233.0,133.0,243.0,137.0,249.5" stroke="green" stroke-width="1" fill="none" />
<polyline points="143.5,240.5,131.0,220.0,139.5,226.5,136.5,224.5,140.5,220.0,141.0,219.0" stroke="yellow" stroke-width="1" fill="none" />
<polyline points="148.5,210.0,148.5,212.0" stroke="black" stroke-width="1" fill="none" />
<polyline points="149.5,207.0,150.5,211.0,148.5,209.0" stroke="orange" stroke-width="1" fill="none" />
<polyline points="140.0,191.5,138.5,193.5,132.5,185.5,140.5,196.5,142.0,185.0,150.0,177.0,141.5,173.0,137.0,188.0,137.5,185.0" stroke="green" stroke-width="1" fill="none" />
<polyline points="" stroke="orange" stroke-width="1" fill="none" />
<polyline points="154.5,177.0,152.0,178.0,150.5,186.5,143.0,187.0,136.5,188.0,134.5,187.5" stroke="orange" stroke-width="1" fill="none" />
<polyline points="" stroke="green" stroke-width="1" fill="none" />
<polyline points="150.0,191.0,161.5,192.5,141.0,209.0,148.5,217.0,140.5,210.0,145.0,208.5,144.5,206.5" stroke="green" stroke-width="1" fill="none" />
<polyline points="122.0,196.0,123.5,200.0" stroke="green" stroke-width="1" fill="none" />
<polyline points="113.5,221.5,118.0,222.5,115.5,234.0,109.0,231.5,120.5,229.5,114.5,232.0,115.0,230.0" stroke="black" stroke-width="1" fill="none" />
<polyline points="113.5,232.5,112.5,217.0,114.5,225.5" stroke="green" stroke-width="1" fill="none" />
<polyline points="119.0,253.0,121.0,256.0,106.0,262.5,117.0,257.0,117.0,258.0,125.5,254.0,125.5,252.5,128.0,240.5,139.0,239.0,142.5,233.5,148.0,231.0,159.5,229.5,156.0,226.0,161.5,226.5,155.5,229.0" stroke="green" stroke-width="1" fill="none" />
<polyline points="135.5,234.5,140.5,243.0,141.0,251.5,136.0,248.0,134.5,262.0,139.0,278.0,142.0,268.5,141.0,264.5,127.0,274.0,131.0,269.5,141.0,278.0,134.5,275.5,135.5,271.0" stroke="yellow" stroke-width="1" fill="none" />
<polyline points="150.5,261.5,152.5,255.0,159.5,249.5,156.0,248.0,159.5,247.5,162.0,249.5" stroke="orange" stroke-width="1" fill="none" />
<polyline points="169.5,228.5,163.0,240.5,169.5,223.0" stroke="yellow" stroke-width="1" fill="none" />
<polyline points="164.5,230.0" stroke="yellow" stroke-width="1" fill="none" />
<polyline points="168.0,228.5,166.0,229.5,164.5,234.0,158.0,242.5,161.0,253.5,158.5,246.5,139.5,254.0,157.0,249.5,156.0,258.0,151.5,263.0,149.0,267.5,128.0,264.0,135.0,276.5,128.0,283.0,125.5,281.5,129.5,289.0,129.5,292.5,125.0,302.0,129.0,305.0,121.0,318.5,125.5,312.5,117.5,324.0,114.5,325.5,122.5,336.5,122.0,335.0,118.0,340.0,121.0,333.0,115.0,330.5,121.0,343.5,136.5,347.0,136.5,349.5,133.0,361.0,135.5,357.0,134.5,358.0,140.5,370.5,138.0,370.0,146.0,370.0,139.5,379.5,145.0,376.0,139.5,393.0,143.0,389.0,148.5,405.0,148.5,387.0,143.5,394.0,141.5,398.5,150.5,404.5,142.5,405.0,152.5,409.5,148.0,412.5,159.5,411.0,164.5,417.5,163.5,418.5" stroke="yellow" stroke-width="1" fill="none" />
<polyline points="161.5,410.0" stroke="orange" stroke-width="1" fill="none" />
<polyline points="" stroke="yellow" stroke-width="1" fill="none" />
<polyline points="" stroke="green" stroke-width="1" fill="none" />
<polyline points="198.0,423.0,201.5,419.0,196.0,426.0,192.0,429.0,193.5,434.0" stroke="green" stroke-width="1" fill="none" />
<polyline points="205.5,398.5,202.5,393.0,197.0,405.0,197.0,396.0,200.5,400.0" stroke="yellow" stroke-width="1" fill="none" />
<polyline points="190.5,391.5,185.5,393.5,191.5,405.0,190.0,401.0,189.5,405.0,184.5,422.5,181.5,412.0,194.0,416.5,187.0,422.5,185.0,429.5,199.0,432.5,180.0,429.0,185.0,437.5,180.5,437.5,192.0,446.0,191.0,439.5,199.0,451.0,201.0,451.0,198.0,448.0" stroke="green" stroke-width="1" fill="none" />
<polyline points="379.5,352.5,374.0,362.0,372.5,346.0,374.0,349.0,380.5,350.0,383.5,344.0,383.0,338.5,376.0,327.0,380.0,322.5,379.5,316.0,378.5,315.0,361.0,321.0,375.0,313.0,381.0,313.5,383.5,311.0" stroke="orange" stroke-width="1" fill="none" />
<polyline points="374.5,283.5,381.0,276.5,382.0,283.5,381.0,280.0,388.0,275.5,387.5,269.5,385.5,271.5,383.5,268.0,386.5,265.0,389.5,264.5,386.0,262.5,391.0,263.0" stroke="black" stroke-width="1" fill="none" />
<polyline points="362.5,280.0,372.5,278.5,361.0,277.5,363.0,282.5,367.0,287.5,363.0,288.5,364.0,296.0,372.0,296.0,362.5,306.0,361.5,302.5,353.0,307.5,359.0,309.0,361.5,307.0" stroke="green" stroke-width="1" fill="none" />
<polyline points="338.0,275.5,341.0,270.5,342.0,277.0,344.5,286.0,338.0,280.0,327.0,281.0,320.5,263.5,317.5,259.5,312.0,275.5,324.0,266.5,328.0,269.5,325.0,276.5,319.5,278.0" stroke="black" stroke-width="1" fill="none" />
<polyline points="322.0,269.5,325.5,266.0,320.5,267.5,330.0,266.0,336.0,274.5" stroke="yellow" stroke-width="1" fill="none" />
<polyline points="330.0,275.5,316.5,269.5,321.5,264.5,327.0,260.0,335.0,253.5,332.5,253.5,329.5,258.0,333.0,256.5" stroke="orange" stroke-width="1" fill="none" />
<polyline points="364.0,267.0,367.5,273.5,363.5,277.5,358.0,271.0,353.0,272.5" stroke="green" stroke-width="1" fill="none" />
<polyline points="291.0,235.5,284.0,231.5,280.0,226.5,285.5,230.5" stroke="green" stroke-width="1" fill="none" />
<polyline points="272.0,220.0,272.0,220.0,270.5,197.5,283.5,202.5,269.0,206.0,288.0,200.5,288.5,192.5,284.5,190.5,293.0,184.5,299.0,192.0,303.0,188.0,306.5,184.0,308.0,177.0,309.5,182.5,309.0,185.0" stroke="orange" stroke-width="1" fill="none" />
<polyline points="319.5,170.5,315.0,174.0,298.0,173.5,297.5,177.0,297.0,185.0,295.5,184.5,293.0,195.0,285.0,191.5,280.5,202.5,279.5,198.0,269.5,202.0,262.0,205.0,263.0,212.5,270.0,211.0,269.0,224.0,249.5,222.0,255.0,229.5,249.5,227.5,246.0,234.5,245.5,249.0,233.5,241.0,236.0,250.5,235.0,261.0,225.5,265.0,219.0,257.5,212.0,281.0,209.0,285.5,211.5,290.5,203.5,302.5,194.0,306.0,206.0,327.0,198.0,317.5,199.0,312.5,195.5,315.5,206.5,306.0,195.5,295.0,197.5,296.5,203.5,294.5,212.5,286.5,213.5,290.5,208.5,287.5,214.5,275.0,219.0,280.0,221.0,270.0,222.0,264.5,227.5,266.5,221.5,253.0,229.0,259.0,235.5,248.0,231.5,242.0,239.0,240.0,245.0,236.5,246.5,231.5,256.5,226.5,244.5,225.5,262.0,222.5,261.5,221.5,250.5,203.0,266.0,218.0,263.5,199.0,264.0,200.5,263.5,199.5" stroke="yellow" stroke-width="1" fill="none" />
<polyline points="266.0,207.0,261.0,206.5" stroke="green" stroke-width="1" fill="none" />
<polyline points="" stroke="yellow" stroke-width="1" fill="none" />
<polyline points="207.5,198.0,217.5,178.0,215.0,182.0,224.5,184.0,219.5,181.5,226.0,172.5,231.5,181.0,230.5,182.0" stroke="orange" stroke-width="1" fill="none" />
<polyline points="227.0,185.5,210.0,185.0,216.5,179.5,220.0,194.5,198.5,203.5,219.0,191.0,213.5,201.0,222.0,198.0,219.5,198.5,230.5,191.0,236.5,194.0,239.5,194.0,230.0,180.5" stroke="orange" stroke-width="1" fill="none" />
<polyline points="254.0,176.5,243.5,180.5,242.0,184.5,239.5,179.0,240.5,175.5,240.5,180.5,251.0,182.0" stroke="yellow" stroke-width="1" fill="none" />
<polyline points="253.5,180.5,243.5,183.0,240.5,180.5,253.5,183.0,241.5,198.0,241.5,200.5,234.0,201.0,234.0,210.0,234.5,214.5,223.5,209.0,242.5,209.0,237.5,210.5,238.5,211.0,234.5,218.0,243.5,215.0,236.5,218.0,238.0,213.5" stroke="orange" stroke-width="1" fill="none" />
<polyline points="266.5,187.0,265.5,180.5,270.0,186.5,259.0,191.5,255.0,191.5,252.5,208.0,244.0,199.5,252.5,202.0,261.5,201.0,249.5,201.0,254.5,200.0,258.0,197.0" stroke="green" stroke-width="1" fill="none" />
<polyline points="267.0,185.0,277.5,189.0,260.5,186.5,263.5,184.5,257.0,192.5,258.5,180.5,262.0,184.0,263.0,182.5" stroke="green" stroke-width="1" fill="none" />
<polyline points="251.5,183.5,243.0,194.0,245.0,198.5,250.5,202.5,249.0,190.5,249.5,195.5,245.5,191.5,251.0,184.5,256.0,191.5,257.0,178.5,260.0,182.5,267.5,185.0,262.0,182.0,264.0,184.5" stroke="yellow" stroke-width="1" fill="none" />
<polyline points="259.5,180.5,269.5,180.0,270.5,178.5,274.5,187.5,275.0,177.0,283.5,182.0,285.0,174.0,293.5,179.5,291.0,177.5,285.0,186.0,287.5,195.0,282.5,195.0,269.0,201.5,276.0,190.5,276.5,192.5,267.0,195.0,261.0,198.5,280.0,186.5,273.5,199.5,285.0,186.0,292.0,182.0,286.5,187.5,290.0,179.0,299.0,169.5,303.5,172.0,301.5,176.0,318.5,171.0,314.5,167.5,325.5,169.5,325.5,161.0,338.0,163.5,329.5,155.5,331.0,154.0,329.5,158.5,341.0,154.0,339.0,146.5,337.0,144.5" stroke="black" stroke-width="1" fill="none" />
<polyline points="305.5,182.0,300.5,173.0,299.5,187.0,290.5,193.0,290.5,187.5,282.0,199.5,274.5,191.0,262.0,214.5,265.5,216.0,276.5,205.0,263.0,216.0,264.0,215.0,271.0,214.0,260.5,224.0,270.5,228.5,264.5,232.5,272.0,240.5,271.0,241.0,262.0,242.5,269.0,241.5" stroke="yellow" stroke-width="1" fill="none" />
<polyline points="265.0,187.0,264.0,189.0" stroke="orange" stroke-width="1" fill="none" />
<polyline points="261.0,163.5,253.5,159.0,257.0,161.0,242.5,164.5,244.5,162.0,249.5,163.5,246.5,159.5,243.5,160.5,246.5,155.5" stroke="orange" stroke-width="1" fill="none" />
<polyline points="" stroke="black" stroke-width="1" fill="none" />
<polyline points="255.0,177.5,256.5,171.0,260.0,172.0,257.5,175.5,263.5,181.5,257.5,181.0" stroke="orange" stroke-width="1" fill="none" />
<polyline points="248.0,138.5,253.5,134.5,258.0,130.0,257.0,131.0,263.5,130.0,253.5,140.5,247.5,130.5,254.5,139.0,254.5,138.0" stroke="black" stroke-width="1" fill="none" />
<polyline points="" stroke="orange" stroke-width="1" fill="none" />
<polyline points="216.0,151.5,219.0,153.0,220.0,156.5" stroke="yellow" stroke-width="1" fill="none" />
<polyline points="217.0,140.0,222.0,138.0,215.5,140.5,217.5,142.5,218.0,145.0" stroke="orange" stroke-width="1" fill="none" />
<polyline points="204.5,149.5,211.0,140.0,220.0,150.5,211.5,159.5" stroke="green" stroke-width="1" fill="none" />
<polyline points="188.5,172.0,189.0,164.0,200.5,159.0,211.5,148.5,194.5,160.0,194.5,153.5,189.5,155.5" stroke="yellow" stroke-width="1" fill="none" />
<polyline points="201.5,164.0,201.0,160.0,199.0,173.5,193.5,179.5,187.0,172.5,183.5,181.0,182.0,179.0,168.0,187.0,178.0,194.0,168.5,192.5,167.5,203.5,157.5,202.5,165.5,193.5,177.0,193.0,184.0,192.0,178.5,177.5,193.5,184.0,183.0,170.5,195.5,166.5,203.5,172.5,202.5,157.5" stroke="yellow" stroke-width="1" fill="none" />
<polyline points="207.5,181.5,209.5,184.0,202.5,183.5,210.5,204.0,204.0,199.0,206.0,199.0,192.0,197.0,191.0,199.5" stroke="orange" stroke-width="1" fill="none" />
<polyline points="" stroke="black" stroke-width="1" fill="none" />
<polyline points="205.0,134.5,217.0,131.0,220.5,137.0,216.5,129.0,222.5,127.5,226.0,124.0" stroke="yellow" stroke-width="1" fill="none" />
<polyline points="214.5,145.5,202.0,144.5,207.5,142.5,204.0,132.5,215.0,123.5,219.0,129.5,224.5,119.0,230.5,112.0,237.0,117.5,238.5,124.0,236.0,121.0,238.0,117.5" stroke="yellow" stroke-width="1" fill="none" />
<polyline points="232.0,111.0,228.5,135.5,226.5,127.5,197.5,148.5,196.5,143.5,200.0,149.5,203.5,142.0,196.0,154.5,190.0,159.0,196.0,164.0,170.0,165.0,176.0,169.5,161.5,168.5,160.0,179.0,167.5,179.5,157.5,196.0,152.5,189.5,153.0,188.0,158.0,196.5,148.5,199.0,150.0,204.0,148.5,211.0,148.0,212.0,150.0,215.0,150.5,222.0,138.0,222.5,141.5,224.0,145.0,236.0,140.5,238.0,136.5,244.5,135.0,238.0,127.0,240.5,129.5,253.5,131.0,260.0,131.5,257.5,133.5,260.0,129.0,256.5" stroke="black" stroke-width="1" fill="none" />
<polyline points="" stroke="yellow" stroke-width="1" fill="none" />
<polyline points="" stroke="orange" stroke-width="1" fill="none" />
<polyline points="150.0,149.0,158.5,136.5,155.0,126.0,158.5,127.5,157.5,117.0,154.0,121.0,159.5,118.5,155.5,126.5,158.5,126.5" stroke="yellow" stroke-width="1" fill="none" />
<polyline points="181.5,137.0,178.5,134.5,176.0,139.0,186.0,121.0,190.0,118.0,180.0,127.0,183.0,125.0,185.0,122.0,193.0,120.0" stroke="black" stroke-width="1" fill="none" />
<polyline points="183.5,125.0,188.0,127.0,163.0,122.0,171.0,123.0,172.5,124.5,192.0,124.0,189.5,124.0,188.0,122.5,183.5,115.5,196.0,122.0,195.0,118.5" stroke="green" stroke-width="1" fill="none" />
<polyline points="185.0,130.0" stroke="orange" stroke-width="1" fill="none" />
<polyline points="" stroke="yellow" stroke-width="1" fill="none" />
<polyline points="203.5,111.0,198.5,110.0,205.0,105.5" stroke="yellow" stroke-width="1" fill="none" />
<polyline points="234.0,129.0,231.5,129.0,228.5,131.0,217.5,118.0,220.0,135.0,214.5,138.0,208.5,144.5,204.0,129.5,194.5,149.5,195.5,153.0,197.5,156.0,205.5,150.5,210.5,138.5,214.5,136.5,219.5,135.5,229.0,130.5" stroke="yellow" stroke-width="1" fill="none" />
<polyline points="255.5,130.5,252.0,150.0,257.5,143.5,236.0,156.5,238.5,152.5,238.0,144.0,232.5,149.0,231.0,147.0,223.0,163.5,228.0,150.0,239.0,150.5,240.0,139.0,244.0,142.0,256.0,133.5,264.0,128.5,260.0,131.5,272.0,123.0,273.0,112.5,264.5,113.5" stroke="yellow" stroke-width="1" fill="none" />
<polyline points="286.5,148.0,283.0,152.0,288.5,147.0,292.0,145.5" stroke="green" stroke-width="1" fill="none" />
<polyline points="300.5,141.5,295.5,139.0,301.0,138.0,303.5,143.5" stroke="yellow" stroke-width="1" fill="none" />
<polyline points="300.0,179.5,296.0,183.5,299.5,185.5,284.5,188.5,294.5,197.0,283.0,201.5,280.5,208.0,276.0,203.0,274.5,207.5,271.0,211.0,267.0,212.0" stroke="orange" stroke-width="1" fill="none" />
<polyline points="233.5,94.5,236.5,102.5,227.0,101.0,227.0,101.5,233.5,108.5,224.0,100.0,237.5,97.0,238.0,98.0" stroke="green" stroke-width="1" fill="none" />
<polyline points="" stroke="black" stroke-width="1" fill="none" />
<polyline points="248.0,92.5,244.5,94.5,241.5,87.0,241.5,91.5" stroke="black" stroke-width="1" fill="none" />
<polyline points="260.5,85.0,251.0,91.0,255.0,88.5,255.5,94.0,251.0,98.5,239.0,101.0,238.0,108.0,234.5,105.0,228.0,102.5,235.5,115.5,218.0,118.0,223.5,116.5,223.0,118.0,211.0,110.5,208.0,133.0,203.5,135.5,202.0,130.5,199.5,130.0,187.5,146.5,179.5,148.5,175.5,151.5,179.0,148.0,175.5,150.5,176.0,162.5,171.5,163.0,171.5,160.5,159.5,164.0,164.5,168.0,156.0,171.0,161.5,169.0,171.5,167.0,170.0,163.0,183.5,155.5,180.0,146.0,185.0,134.5,194.5,142.5,193.0,129.5,204.5,144.0,217.0,126.5,216.0,128.0,218.5,125.0,217.5,103.5,223.0,113.0,233.0,102.0,234.5,115.5,239.0,96.0,246.0,98.0,256.5,94.5,268.5,87.0,269.0,90.0,260.5,87.5" stroke="yellow" stroke-width="1" fill="none" />
<polyline points="237.0,85.0,235.0,81.0,232.0,91.0,238.5,89.5,245.5,95.5,234.5,85.0,242.0,82.5,240.0,83.5" stroke="black" stroke-width="1" fill="none" />
<polyline points="" stroke="black" stroke-width="1" fill="none" />
<polyline points="226.5,46.0,240.0,53.0,235.0,50.5,248.0,45.5,253.5,59.0,249.0,47.0,255.5,55.5,255.5,63.0,265.0,52.5,276.5,59.0,274.0,58.0,272.5,71.5,276.5,65.0,282.0,66.5,282.5,75.0,278.0,71.5,295.5,77.5,293.5,80.5,296.5,88.0,307.0,92.5,307.0,101.0,319.5,102.5,314.0,96.0,335.0,117.0,322.0,118.0,337.5,130.0,330.5,122.0,333.0,125.0,336.5,131.5,356.5,144.5,349.0,143.0,355.0,150.0,355.5,147.0,355.5,138.5,367.5,139.0,373.5,141.0,370.0,134.5,381.5,131.5,383.5,130.0,391.0,135.5,396.5,116.0,389.5,118.5,401.5,120.5,400.5,112.0,410.5,105.5,407.0,116.0,420.0,126.0,415.0,109.5,412.0,113.5,413.0,118.0" stroke="orange" stroke-width="1" fill="none" />
<polyline points="408.0,113.5,410.0,119.0,412.0,130.5,411.0,133.5,414.5,136.0,423.5,128.5,424.5,141.5,422.0,142.5,424.5,148.0,408.5,148.5,416.5,155.0,413.0,161.5,413.0,166.0,408.5,178.5,407.5,177.0,413.5,177.0,399.5,181.0,407.5,174.5,410.5,178.5,398.5,186.0,392.5,188.0,394.5,196.5,375.0,204.0,382.5,203.5,372.0,213.0,375.0,201.5,368.5,217.0,364.5,207.5,373.0,211.5,371.5,205.0,382.5,210.5,384.5,207.0,391.5,202.5,396.0,194.0,393.5,190.0,398.0,187.0,400.0,183.5,404.5,172.5,407.0,175.5,416.0,182.5,418.0,183.5" stroke="green" stroke-width="1" fill="none" />
<polyline points="370.0,125.0,369.0,122.0,362.0,126.0,369.5,121.5,368.0,118.5" stroke="yellow" stroke-width="1" fill="none" />
<polyline points="388.5,106.5,381.0,104.0,387.5,102.0,387.5,109.0" stroke="black" stroke-width="1" fill="none" />
<polyline points="385.0,112.5,391.5,102.5,387.5,97.0" stroke="black" stroke-width="1" fill="none" />
<polyline points="424.5,44.0,426.0,48.0,415.0,30.5,417.5,26.5,416.5,21.5,417.5,22.5" stroke="orange" stroke-width="1" fill="none" />
<polyline points="512.5,70.5,514.5,79.0,508.5,79.5,504.5,86.0,503.5,86.0,496.5,95.0,485.0,108.0,482.5,105.5,493.5,114.5,479.0,105.0,473.5,115.0,477.5,123.0,475.5,125.5,471.5,127.0,468.0,132.0,466.5,134.0,465.0,138.5,465.0,152.5,459.0,148.5,463.0,155.5,455.5,159.0,448.5,169.5,449.0,165.5,445.0,169.0,444.0,167.5,445.5,175.5,425.5,191.0,434.0,194.5,431.5,188.5,434.0,198.0,430.5,202.5,433.5,208.0,426.0,201.5,419.0,199.5,421.0,211.5,418.5,219.0,419.5,226.5,422.5,230.0,422.0,236.5,416.5,229.5,418.5,237.5,413.5,245.0,403.0,241.0,410.0,250.5,419.5,261.5,401.5,263.0,406.0,260.0,408.5,271.5,404.0,273.5,402.5,276.5,396.5,279.5,403.5,280.0,391.0,290.0,400.5,288.5,408.0,294.5,397.5,303.0,394.0,298.0,392.5,309.5,393.0,304.5,397.5,310.0,391.0,315.5,394.5,314.5,389.0,328.0,391.0,328.5,380.0,341.5,394.0,331.0,395.0,336.0,389.0,335.5,390.5,335.0" stroke="orange" stroke-width="1" fill="none" />
<polyline points="343.5,138.5,341.5,132.0,331.0,135.0,337.0,133.5,336.0,125.0,330.5,121.5,335.0,118.5,322.0,112.0,335.0,104.5,314.5,98.0,311.0,94.5,305.5,88.0,307.0,99.0,306.0,91.0,304.5,83.0,294.0,76.0,296.0,80.5,299.0,75.5,285.5,63.5,274.0,73.5,276.0,63.0,257.0,56.0,266.5,46.0" stroke="yellow" stroke-width="1" fill="none" />
<polyline points="" stroke="yellow" stroke-width="1" fill="none" />
<polyline points="175.5,59.0,159.5,65.0,158.5,63.0" stroke="black" stroke-width="1" fill="none" />
<polyline points="161.0,79.5,153.5,69.5,146.5,77.5,159.0,72.5,162.5,69.0,160.0,78.5,161.5,70.5" stroke="yellow" stroke-width="1" fill="none" />
<polyline points="153.0,74.5" stroke="black" stroke-width="1" fill="none" />
</svg>