<svg xmlns="http://www.w3.org/2000/svg" width="1024" height="1024" version="1.1" fill="white"><polyline points="409.5,12.5,410.5,7.5,410.5,17.5,410.5,25.0,408.0,20.5,419.5,32.5,423.5,29.5,416.0,29.0,434.5,29.5,427.5,29.5,425.5,53.5,439.0,51.0,435.5,51.5,442.0,63.0,430.5,59.5,433.5,71.5,433.5,70.0,444.0,69.5" stroke="orange" stroke-width="1" fill="none" />
<polyline points="440.5,47.0,438.5,39.5,434.5,33.0,435.0,23.0" stroke="orange" stroke-width="1" fill="none" />
<polyline points="425.5,7.0,436.5,12.5,441.0,23.0,435.5,33.0,441.5,37.0,444.5,37.5,443.0,39.0,446.5,45.0,441.5,40.5,440.5,52.5,459.5,60.5,461.0,63.5,447.0,67.5,456.5,76.5,431.0,67.5,442.0,70.5,434.5,82.5,437.0,82.5,428.5,79.5,438.5,93.5,434.5,92.0,421.0,107.0,426.5,102.5,413.0,106.5,419.5,108.5,414.0,108.0,408.5,109.0,427.5,100.5,435.5,95.5,434.0,81.5,434.0,78.5,438.5,72.0,448.0,80.5,458.5,65.0,446.5,60.5,461.5,47.5,468.5,54.0,468.5,48.0,459.5,42.5,474.5,40.5,477.0,38.5,488.0,23.0,480.5,25.5,492.0,28.5,494.0,16.0,512.5,15.5" stroke="yellow" stroke-width="1" fill="none" />
<polyline points="511.0,15.5,509.0,17.5,493.0,25.0,488.5,28.0,491.5,23.5,482.5,27.0,480.5,32.5,484.5,37.0,469.0,47.0,470.0,36.5,463.0,50.0,466.0,54.5,465.0,58.5,467.0,56.5" stroke="green" stroke-width="1" fill="none" />
<polyline points="497.5,68.0,506.5,85.5,502.5,91.0,499.0,98.0,484.0,97.5,477.0,106.5,480.0,102.0,481.0,109.0,468.5,115.5,466.0,121.5,468.5,122.0,457.5,137.5,462.0,140.5,468.5,144.0" stroke="green" stroke-width="1" fill="none" />
<polyline points="437.0,165.5,443.5,173.0" stroke="yellow" stroke-width="1" fill="none" />
<polyline points="436.0,176.5,436.5,177.0,438.5,185.5,439.5,180.5,436.5,182.5" stroke="green" stroke-width="1" fill="none" />
<polyline points="423.0,223.0,426.0,214.5,422.5,225.5" stroke="black" stroke-width="1" fill="none" />
<polyline points="417.5,243.0,413.0,233.0,413.5,249.0,412.5,247.0,419.0,250.5,413.5,246.5,405.0,245.0,418.5,244.5,418.0,250.0,417.0,253.0,414.0,255.0" stroke="green" stroke-width="1" fill="none" />
<polyline points="" stroke="green" stroke-width="1" fill="none" />
<polyline points="389.0,301.5,388.5,302.5,374.0,290.0,378.0,286.5,380.0,281.5,394.0,275.5,390.5,276.5" stroke="yellow" stroke-width="1" fill="none" />
<polyline points="370.0,255.0,371.5,254.0,372.0,254.5,378.0,242.5,373.5,239.0,369.0,238.5,377.5,231.5,367.5,237.0,377.5,222.5,369.5,222.5,373.0,230.5,370.0,224.0,370.0,219.5" stroke="yellow" stroke-width="1" fill="none" />
<polyline points="370.0,246.5,373.0,242.5,379.5,237.0,374.5,238.0" stroke="yellow" stroke-width="1" fill="none" />
<polyline points="360.0,252.5,377.5,260.5,374.5,260.0,368.5,278.5,368.5,268.0,371.0,274.0,363.5,275.5,370.0,273.5,367.5,274.0,361.0,279.0,361.0,280.0,361.5,283.0,361.5,282.5,358.5,286.0" stroke="orange" stroke-width="1" fill="none" />
<polyline points="377.5,286.0,369.5,301.0,377.0,294.5,382.5,285.5,381.5,300.5,372.5,304.0,375.0,311.5,376.5,308.0,379.5,311.0,382.5,321.5,373.0,321.5,384.0,338.5,383.5,339.0,388.0,339.5,383.5,342.0,386.0,343.5" stroke="orange" stroke-width="1" fill="none" />
<polyline points="366.5,356.0,373.5,364.5,378.5,362.0,379.5,365.0" stroke="yellow" stroke-width="1" fill="none" />
<polyline points="369.5,375.0,376.5,380.0" stroke="yellow" stroke-width="1" fill="none" />
<polyline points="385.0,379.5,384.5,384.5,382.5,392.0,375.5,392.5,379.0,402.5,376.0,398.0" stroke="black" stroke-width="1" fill="none" />
<polyline points="359.5,427.0,360.0,418.0,355.0,413.5,358.0,422.5,345.0,412.0,341.5,403.0,336.5,408.5,336.5,406.5,327.5,406.0,329.5,396.0,321.5,404.0,321.5,390.0,318.0,398.5,313.5,388.5,301.0,398.0,301.0,388.5,301.5,387.5,300.0,393.5,298.0,393.5" stroke="green" stroke-width="1" fill="none" />
<polyline points="311.5,377.0,321.0,361.5,318.0,357.5,320.5,355.0,325.0,338.5,335.0,345.5,330.5,342.5,330.0,343.5" stroke="black" stroke-width="1" fill="none" />
<polyline points="352.0,333.5,362.5,333.0,349.5,329.0,352.0,343.5" stroke="green" stroke-width="1" fill="none" />
<polyline points="364.0,362.0,360.5,366.5,359.0,376.0,361.0,376.0,356.5,378.5,356.5,381.0,355.5,391.0,359.5,401.0,356.0,391.0,351.5,401.0,350.0,408.0,354.0,408.5,349.5,412.0" stroke="black" stroke-width="1" fill="none" />
<polyline points="359.5,368.5,365.5,372.0,359.5,371.0" stroke="green" stroke-width="1" fill="none" />
<polyline points="358.5,361.0,359.0,371.0,359.5,374.0,360.0,376.5,357.0,382.5" stroke="green" stroke-width="1" fill="none" />
<polyline points="364.0,357.5,362.0,358.0,353.0,367.0,356.0,366.5,355.5,363.5,360.0,374.5,357.0,374.0,356.0,381.5,359.5,376.0,351.0,390.0,349.5,392.5,353.0,396.0,365.5,398.0,353.5,405.5,354.0,410.5,364.0,407.5,362.5,405.5" stroke="black" stroke-width="1" fill="none" />
<polyline points="376.5,457.5,369.0,460.0,371.5,456.5,377.0,452.0,377.0,449.0,377.5,439.5,372.0,446.5,367.5,431.5,371.5,430.0,382.0,432.5,381.0,423.0,387.5,418.0,383.5,413.0,374.0,409.0,384.0,402.5,379.5,398.0,375.5,402.0,388.5,394.0,383.5,394.0,375.0,384.0,394.5,378.0,379.0,373.0,386.5,376.0,381.5,368.5,382.5,368.0,389.0,364.0,371.0,357.0,382.5,351.0,385.5,353.0,379.0,349.5,373.0,345.5,378.0,339.5,383.0,335.5,373.5,333.5,374.0,322.0,380.5,326.0,377.0,329.0,382.0,316.0,372.5,309.5,371.0,301.0,383.5,320.5,379.0,305.0,382.0,289.0,377.0,291.0,369.5,282.0,371.5,276.5,380.0,281.5,363.0,269.0,368.0,266.0,374.5,265.0,372.5,260.5,372.5,260.5,359.5,256.0,365.0,253.5,369.0,245.0,376.5,243.5,373.5,233.5,361.0,226.0,372.0,231.5,356.0,219.0,362.5,218.5,367.5,222.5,362.5,212.0,364.0,210.0,353.0,207.5,347.0,203.5,346.0,199.0,342.0,205.0" stroke="black" stroke-width="1" fill="none" />
<polyline points="" stroke="orange" stroke-width="1" fill="none" />
<polyline points="" stroke="yellow" stroke-width="1" fill="none" />
<polyline points="" stroke="black" stroke-width="1" fill="none" />
<polyline points="359.5,202.5,371.0,203.0" stroke="black" stroke-width="1" fill="none" />
<polyline points="" stroke="green" stroke-width="1" fill="none" />
<polyline points="355.0,217.0" stroke="black" stroke-width="1" fill="none" />
<polyline points="340.5,204.5,337.5,206.0,329.5,205.5,333.5,194.0,333.0,196.0" stroke="black" stroke-width="1" fill="none" />
<polyline points="345.0,220.5,357.5,206.0,361.5,222.5,355.5,221.5,363.0,234.0,364.5,233.0,366.0,239.5,370.0,247.0,365.0,251.0,370.0,252.0,374.0,254.5,366.0,255.0,365.5,253.0" stroke="orange" stroke-width="1" fill="none" />
<polyline points="366.0,241.5,364.0,238.0,367.5,242.0,365.5,241.0,364.0,244.5,363.0,252.0,367.0,248.0" stroke="black" stroke-width="1" fill="none" />
<polyline points="346.5,235.0,348.0,247.0,348.5,240.0,354.5,239.5" stroke="black" stroke-width="1" fill="none" />
<polyline points="340.0,252.5,339.5,251.5,337.0,256.5,335.0,251.5,336.0,250.0,333.5,257.0,326.0,260.0,331.0,258.5,330.5,258.0" stroke="yellow" stroke-width="1" fill="none" />
<polyline points="337.0,253.0,343.5,244.0,342.5,253.5,350.0,255.5,353.0,241.5,346.0,243.5,341.5,240.5" stroke="yellow" stroke-width="1" fill="none" />
<polyline points="" stroke="green" stroke-width="1" fill="none" />
<polyline points="" stroke="yellow" stroke-width="1" fill="none" />
<polyline points="343.5,274.5,352.5,286.0,350.5,284.0,350.0,300.5,347.5,294.0,343.5,293.0,353.5,302.5,351.0,309.0,340.0,311.0,347.5,312.0,342.0,319.5,330.5,322.0,346.0,324.0,340.5,324.0,336.0,336.5,335.0,338.0,329.5,336.0,324.5,348.5,327.5,354.0,322.5,358.0,322.0,355.5,313.0,368.0,315.0,369.5,318.0,368.5,321.5,371.0,318.5,382.0,311.5,382.5,314.0,380.5,313.0,395.5,316.0,391.5,326.5,409.0,340.5,405.0,344.0,409.0,345.0,417.0,353.5,416.0,356.0,415.5,358.5,426.0,357.5,430.5,353.5,438.0,363.5,436.5,362.0,428.5,367.5,442.0,363.5,446.5,371.5,454.0,374.0,452.5,365.5,464.5,378.5,466.0,367.5,477.5,370.5,477.5,372.5,473.0,376.0,477.5,372.5,480.0,377.5,492.5,382.0,489.5,381.0,493.0,377.0,504.5,382.5,492.0,382.0,503.5,387.0,511.0,393.5,510.0,383.0,520.0,398.5,527.5,396.0,513.5" stroke="green" stroke-width="1" fill="none" />
<polyline points="431.0,496.5,436.0,487.0,426.0,487.0,436.0,486.0,441.0,482.5,450.0,475.0,446.0,468.5,456.5,463.5,452.5,469.0,455.5,463.0,446.5,467.5,444.5,463.0,443.5,465.5" stroke="black" stroke-width="1" fill="none" />
<polyline points="445.5,481.0,448.5,482.5,452.0,471.0,445.5,477.0,452.0,471.5,450.5,467.0,454.0,461.0,449.5,466.5,455.0,470.0,458.0,466.5,459.5,468.5" stroke="orange" stroke-width="1" fill="none" />
<polyline points="455.5,446.0,461.0,441.0,463.0,435.5,462.5,438.5" stroke="black" stroke-width="1" fill="none" />
<polyline points="472.0,422.5,474.5,404.5,478.5,413.5,482.0,403.5,485.0,410.0,491.0,399.5,485.5,395.5,495.0,388.0,496.0,386.0,505.0,389.0,505.5,384.5,516.0,379.5,507.5,380.5,513.5,377.5,510.5,376.5,513.0,372.5" stroke="green" stroke-width="1" fill="none" />
<polyline points="517.0,387.0,513.0,384.5,513.0,384.5,513.0,382.0,513.5,380.5,506.0,386.0,498.0,381.5,492.5,396.0,494.5,406.0,488.5,409.5,476.0,409.0,477.5,411.0,471.5,417.0,473.0,429.5,466.5,416.0,464.0,429.5,467.5,429.0,456.5,431.0,458.5,436.0,449.5,440.0,465.0,444.0,460.0,451.0,456.0,453.5,455.5,460.0,452.5,455.0,446.5,471.0,445.5,483.5,446.5,473.0,445.5,482.0,447.5,486.5,440.5,477.5,436.5,477.0,434.5,481.0" stroke="yellow" stroke-width="1" fill="none" />
<polyline points="442.5,476.0,439.5,472.0,444.0,464.5,444.0,462.5,441.5,458.0,449.0,465.0" stroke="orange" stroke-width="1" fill="none" />
<polyline points="426.5,451.0,429.5,459.5,434.5,444.0,445.5,443.0,441.0,439.0,433.5,424.0,430.0,425.5,431.0,435.5,431.0,434.0,434.5,425.0,429.5,429.0,433.5,434.0" stroke="black" stroke-width="1" fill="none" />
<polyline points="431.0,477.0,427.0,475.0,424.5,470.0,425.5,474.0,423.5,485.0,429.0,480.0,424.0,482.0" stroke="black" stroke-width="1" fill="none" />
<polyline points="417.0,469.0,426.0,470.5,422.0,469.0,417.5,478.0,423.5,477.0,428.0,467.5,438.5,456.0,432.0,460.5,435.0,463.0,435.5,465.5,430.5,468.5,433.0,466.0" stroke="black" stroke-width="1" fill="none" />
<polyline points="481.0,409.0,488.0,404.5,479.5,391.5,477.5,392.5" stroke="green" stroke-width="1" fill="none" />
<polyline points="448.0,432.0,446.5,428.5,445.0,425.5,447.5,423.0,443.0,419.0,451.0,408.5,443.5,409.0,450.0,404.0,457.0,393.5,458.5,391.0,455.0,382.0,451.0,385.5,451.0,375.5,448.0,384.5,448.0,373.5,465.5,373.5,453.0,355.5" stroke="orange" stroke-width="1" fill="none" />
<polyline points="383.5,340.5,398.0,338.0,378.5,332.5,377.0,324.0,382.5,325.5,381.5,324.5" stroke="black" stroke-width="1" fill="none" />
<polyline points="372.0,363.5,372.0,369.0,363.5,362.5,369.0,378.5,374.5,389.5,360.5,383.5,374.0,387.5,371.5,386.0,378.0,388.0,379.0,390.0,386.0,383.0,378.5,385.0,381.0,386.5,376.0,392.0" stroke="orange" stroke-width="1" fill="none" />
<polyline points="324.0,343.0,332.0,340.5,334.5,344.0" stroke="green" stroke-width="1" fill="none" />
<polyline points="" stroke="yellow" stroke-width="1" fill="none" />
<polyline points="300.5,355.5,297.5,354.0,289.5,354.5,296.5,357.5,298.0,354.0,298.0,354.5" stroke="orange" stroke-width="1" fill="none" />
<polyline points="315.5,354.5,315.0,359.0,301.0,364.5,314.0,365.0,297.0,363.5,305.5,364.0,302.5,359.5,304.5,360.5,301.5,361.5" stroke="yellow" stroke-width="1" fill="none" />
<polyline points="306.5,349.0,296.0,352.5,299.5,350.0,301.0,350.0,302.5,359.5" stroke="orange" stroke-width="1" fill="none" />
<polyline points="306.0,322.0,311.0,328.5,314.0,324.5,305.0,331.5,308.5,333.0,307.5,327.0,310.5,336.0,307.5,340.5,304.5,338.5,305.0,336.5,306.5,339.0" stroke="green" stroke-width="1" fill="none" />
<polyline points="315.0,313.5,314.0,316.0,310.0,317.5,314.5,327.0,295.0,333.5,293.5,341.5,296.5,344.5,297.5,342.0,295.0,338.5,294.0,343.5" stroke="yellow" stroke-width="1" fill="none" />
<polyline points="294.5,320.5" stroke="green" stroke-width="1" fill="none" />
<polyline points="317.0,336.5,316.5,331.5,327.0,323.5,326.5,327.0,322.5,329.5,327.0,311.0,319.5,304.5,329.5,312.0,323.0,299.0,324.5,297.5,325.0,304.0,320.0,302.5,321.5,304.5" stroke="black" stroke-width="1" fill="none" />
<polyline points="" stroke="green" stroke-width="1" fill="none" />
<polyline points="341.0,267.0,340.5,265.5,335.0,264.0,324.0,261.0,327.0,254.0,334.0,258.0,334.5,262.0" stroke="orange" stroke-width="1" fill="none" />
<polyline points="329.5,265.5,330.5,269.0,325.5,274.0,328.0,275.0,330.5,264.0,336.0,267.0,320.0,280.5,334.5,252.0,328.0,254.0,330.5,255.0" stroke="black" stroke-width="1" fill="none" />
<polyline points="" stroke="orange" stroke-width="1" fill="none" />
<polyline points="" stroke="yellow" stroke-width="1" fill="none" />
<polyline points="339.5,267.5,344.5,255.5,337.5,262.5,342.0,255.0,343.5,261.0,350.5,253.5,346.5,251.0" stroke="orange" stroke-width="1" fill="none" />
<polyline points="351.5,236.5,349.5,229.0,342.5,224.0,334.5,213.5,340.0,215.0,340.0,213.5,337.0,213.5" stroke="yellow" stroke-width="1" fill="none" />
<polyline points="341.0,192.5,344.0,194.0,343.0,200.0,351.0,198.5,350.5,197.5,361.5,194.0,357.0,192.0,367.0,185.5,375.5,184.5,378.5,181.0,383.5,189.5,374.0,190.5,393.0,189.5,389.0,175.5,393.0,174.0,388.5,170.5,393.5,182.0,404.0,164.0,408.0,176.0,402.5,177.0,390.5,191.0,396.0,186.0,392.0,190.0,381.0,192.0,381.5,201.0,393.0,190.0,388.5,182.0,396.0,176.0,404.0,176.0" stroke="black" stroke-width="1" fill="none" />
<polyline points="407.0,160.5,389.5,172.0,384.5,173.0,386.0,175.5" stroke="black" stroke-width="1" fill="none" />
<polyline points="367.5,183.0,351.5,196.5,349.0,189.0,343.5,191.5,336.0,194.0" stroke="yellow" stroke-width="1" fill="none" />
<polyline points="325.0,203.0,330.5,212.5,340.5,205.0,333.0,207.5,328.5,206.5,330.0,210.5,330.0,209.0" stroke="black" stroke-width="1" fill="none" />
<polyline points="" stroke="orange" stroke-width="1" fill="none" />
<polyline points="349.0,207.5,350.0,218.0,355.0,219.5,359.0,214.5,360.0,217.0,359.0,217.5" stroke="black" stroke-width="1" fill="none" />
<polyline points="354.0,206.5,349.5,207.0,345.5,200.0,348.5,202.5,345.0,203.5,345.5,207.0" stroke="green" stroke-width="1" fill="none" />
<polyline points="342.0,193.5,348.0,205.0,351.5,209.0" stroke="black" stroke-width="1" fill="none" />
<polyline points="" stroke="black" stroke-width="1" fill="none" />
<polyline points="347.0,205.5,344.0,202.0,352.5,207.5,351.5,208.5" stroke="yellow" stroke-width="1" fill="none" />
<polyline points="" stroke="green" stroke-width="1" fill="none" />
<polyline points="367.5,189.0,375.5,195.5,366.0,202.5,370.5,198.5" stroke="green" stroke-width="1" fill="none" />
<polyline points="385.5,163.5,375.0,161.5,388.0,159.0,386.5,176.0,383.0,174.0,390.5,174.5,387.0,155.5,386.0,155.5,393.5,151.5,391.0,148.5" stroke="black" stroke-width="1" fill="none" />
<polyline points="391.5,168.0,392.0,168.5,393.5,160.5,411.5,160.0,390.0,173.0,398.0,174.0,386.5,169.5,399.5,174.0,400.5,159.0" stroke="green" stroke-width="1" fill="none" />
<polyline points="391.5,126.5,396.5,125.5,394.0,122.0,378.0,128.5,381.0,132.5,392.0,132.5,391.0,133.5,393.0,123.0,385.5,122.0,394.0,125.5,396.5,123.5" stroke="black" stroke-width="1" fill="none" />
<polyline points="389.5,126.0,377.5,132.0,384.0,129.0,381.5,130.0,389.0,126.5,403.0,124.5,399.5,118.5" stroke="orange" stroke-width="1" fill="none" />
<polyline points="396.5,111.5,395.5,117.5,390.5,124.0,385.5,131.0,372.0,130.5,359.5,139.0,355.0,146.5,362.5,142.0,353.5,138.5,358.5,134.0,355.5,133.0,356.5,132.0,357.5,131.5" stroke="orange" stroke-width="1" fill="none" />
<polyline points="334.0,146.5,313.0,151.5,322.0,157.0,308.5,150.0,309.0,167.5,304.5,167.5" stroke="orange" stroke-width="1" fill="none" />
<polyline points="" stroke="black" stroke-width="1" fill="none" />
<polyline points="284.0,173.0,282.0,169.0,278.5,182.0,287.5,176.0,283.5,180.0,288.0,181.5,283.0,182.5" stroke="orange" stroke-width="1" fill="none" />
<polyline points="" stroke="orange" stroke-width="1" fill="none" />
<polyline points="278.5,182.0,276.0,170.5,281.5,173.5,274.0,176.5,276.0,178.0" stroke="green" stroke-width="1" fill="none" />
<polyline points="257.0,180.0,261.0,178.5,247.5,178.0,244.5,168.0" stroke="orange" stroke-width="1" fill="none" />
<polyline points="241.0,159.0,238.5,163.0,247.5,162.0,247.0,162.5,253.0,167.0,248.5,179.0,256.5,183.0,251.5,182.0,252.5,188.0,244.0,190.0,239.5,193.5,240.5,193.0,241.0,201.5,235.0,207.0,240.5,203.5,236.5,218.0,243.5,204.0,247.5,218.0,260.5,204.0,252.0,210.5,255.5,203.0,250.5,214.5,251.5,217.0,257.5,224.5,239.0,221.0,239.5,238.0,240.0,228.5,236.0,230.0,244.0,246.0,228.0,244.0,230.5,251.5,220.0,252.0,217.5,253.0,220.5,257.0,221.5,267.0,211.5,271.5,210.5,276.5,208.5,276.5,204.5,285.5,204.0,291.0,207.0,299.0,198.5,305.0,192.5,295.0,191.0,305.5,206.5,303.0,196.5,319.5,195.0,308.5,197.0,311.0,179.0,317.0,184.5,321.0,179.5,325.5,174.0,332.5,166.5,330.5,167.0,340.5,161.0,342.0,167.0,338.5" stroke="orange" stroke-width="1" fill="none" />
<polyline points="156.5,352.0,157.0,344.0,163.0,364.0,149.0,361.5,153.0,367.0,145.0,378.0,157.5,380.0,163.0,369.5,150.5,380.0,158.5,386.5,158.0,391.5,159.5,400.5,146.0,391.5,151.5,411.5,163.0,402.0,163.5,413.5,164.5,408.5,152.0,419.0,166.5,411.0,164.5,411.0" stroke="green" stroke-width="1" fill="none" />
<polyline points="171.0,405.5,166.0,408.5,164.5,409.0,161.5,413.0,161.0,417.5" stroke="black" stroke-width="1" fill="none" />
<polyline points="174.5,418.0,170.5,413.5,170.0,422.5,167.5,420.0,169.0,417.5,174.5,428.5,170.0,421.0,180.0,430.0,179.5,423.0,178.5,425.0" stroke="yellow" stroke-width="1" fill="none" />
<polyline points="" stroke="orange" stroke-width="1" fill="none" />
<polyline points="185.5,441.0,190.0,443.0,185.5,432.5,179.5,439.0,176.5,440.5,184.5,438.5,192.5,434.0,194.0,427.0" stroke="yellow" stroke-width="1" fill="none" />
<polyline points="" stroke="yellow" stroke-width="1" fill="none" />
<polyline points="" stroke="green" stroke-width="1" fill="none" />
<polyline points="" stroke="yellow" stroke-width="1" fill="none" />
<polyline points="180.5,464.0,174.5,462.0,167.5,467.0,170.0,472.5,166.0,464.0,161.5,472.5,161.5,470.5" stroke="black" stroke-width="1" fill="none" />
<polyline points="158.5,473.5,150.0,473.5,130.0,453.0,132.0,458.0,143.0,457.0,136.5,450.5,137.5,451.5" stroke="orange" stroke-width="1" fill="none" />
<polyline points="144.5,465.0,139.0,481.0,153.5,480.0,160.5,486.0,151.0,476.0,152.0,477.0,155.0,489.5,162.0,500.0,166.0,497.0,160.0,495.5,159.5,497.0,162.0,494.5" stroke="orange" stroke-width="1" fill="none" />
<polyline points="172.0,503.5,165.5,501.0,166.5,502.0" stroke="green" stroke-width="1" fill="none" />
<polyline points="171.5,506.0,173.0,503.5,170.5,499.0,163.5,508.0,156.5,508.0,155.5,501.0,153.5,500.5,149.0,489.5,139.0,490.5,140.0,488.0" stroke="yellow" stroke-width="1" fill="none" />
<polyline points="150.0,505.5,148.5,501.5,149.5,496.5" stroke="green" stroke-width="1" fill="none" />
<polyline points="" stroke="yellow" stroke-width="1" fill="none" />
<polyline points="" stroke="green" stroke-width="1" fill="none" />
<polyline points="" stroke="orange" stroke-width="1" fill="none" />
<polyline points="146.0,492.5,158.0,485.5" stroke="black" stroke-width="1" fill="none" />
<polyline points="163.5,497.5,155.0,513.0,157.5,513.5,160.0,502.0,156.0,504.5,158.5,510.5" stroke="yellow" stroke-width="1" fill="none" />
<polyline points="146.5,499.5,143.5,493.0,139.5,483.5,137.5,482.5,140.5,481.0,146.0,490.5,143.5,486.0,138.5,479.5" stroke="yellow" stroke-width="1" fill="none" />
<polyline points="144.0,492.5,148.0,497.5,150.5,504.5,147.5,502.0,149.5,503.5,147.0,508.0,150.5,508.5,145.0,507.0,143.0,509.0" stroke="green" stroke-width="1" fill="none" />
<polyline points="" stroke="yellow" stroke-width="1" fill="none" />
<polyline points="150.5,517.0,149.5,519.5,148.0,510.0" stroke="orange" stroke-width="1" fill="none" />
<polyline points="134.0,511.0,140.0,515.0,140.0,504.0,134.0,498.0" stroke="black" stroke-width="1" fill="none" />
<polyline points="142.5,481.5,139.0,499.5,134.5,500.0,137.5,494.5,135.5,488.5,140.5,487.5" stroke="green" stroke-width="1" fill="none" />
<polyline points="" stroke="green" stroke-width="1" fill="none" />
<polyline points="" stroke="green" stroke-width="1" fill="none" />
<polyline points="120.0,510.0,115.0,510.5,122.5,508.5,119.0,486.5,125.5,496.0,124.0,486.5,121.5,487.5,122.5,487.0,123.0,487.0" stroke="black" stroke-width="1" fill="none" />
<polyline points="126.5,501.0,124.0,502.5,130.0,498.5,121.5,498.0" stroke="orange" stroke-width="1" fill="none" />
<polyline points="132.5,515.0,138.5,518.5,127.5,514.5,131.5,500.5" stroke="yellow" stroke-width="1" fill="none" />
<polyline points="142.5,475.0" stroke="orange" stroke-width="1" fill="none" />
<polyline points="127.0,482.0,137.5,492.0,135.0,491.0,137.0,508.0,132.0,501.0,141.0,505.0,146.5,509.5,138.5,506.0,139.0,504.0" stroke="yellow" stroke-width="1" fill="none" />
<polyline points="" stroke="orange" stroke-width="1" fill="none" />
<polyline points="" stroke="yellow" stroke-width="1" fill="none" />
<polyline points="" stroke="green" stroke-width="1" fill="none" />
<polyline points="" stroke="orange" stroke-width="1" fill="none" />
<polyline points="173.5,469.5,169.5,465.5,169.5,477.5,162.0,476.0,156.0,477.0,171.5,498.5,171.0,484.5,175.5,484.0,175.0,481.5" stroke="green" stroke-width="1" fill="none" />
<polyline points="191.5,484.5,191.0,485.5,211.5,486.0,199.0,492.5,202.0,485.5,207.0,486.5,215.0,478.5,218.5,477.0,220.0,479.5,226.5,478.5,226.0,477.0" stroke="yellow" stroke-width="1" fill="none" />
<polyline points="230.0,453.5" stroke="orange" stroke-width="1" fill="none" />
<polyline points="218.0,476.0,217.5,479.0,214.5,477.0,213.0,476.5,226.0,469.0,220.0,454.0,232.0,454.0,231.0,453.5,230.5,443.0,238.0,442.0,231.0,439.0,234.0,436.5,244.5,435.0,231.5,430.5,244.0,424.5,230.5,415.5,227.0,416.0,233.0,410.5,235.5,407.5,228.0,402.0,226.0,406.5" stroke="orange" stroke-width="1" fill="none" />
<polyline points="220.5,410.0,228.0,408.5,228.5,413.5,226.5,408.0,226.5,407.5" stroke="orange" stroke-width="1" fill="none" />
<polyline points="221.0,410.0,225.5,420.5,231.0,426.0,219.5,424.0,227.5,413.0,224.0,417.0,221.5,415.5,231.5,412.0,228.0,410.5" stroke="orange" stroke-width="1" fill="none" />
<polyline points="247.0,425.0,242.0,422.0,235.0,423.5,229.5,430.5,242.5,434.0,243.5,444.5,239.5,443.5,249.0,452.5,234.5,455.5,241.0,454.0,230.0,464.5,236.5,474.5,227.0,467.0,220.0,471.0,224.5,480.0,223.5,482.5,211.0,485.5,221.0,483.5,216.0,488.0" stroke="black" stroke-width="1" fill="none" />
<polyline points="195.5,489.5,211.5,492.0,201.5,497.5,206.0,491.0,223.5,486.5,215.5,495.0,219.0,486.0,228.0,481.5,237.5,475.5,239.0,481.0,248.0,481.5,244.5,478.5,244.5,476.0,245.5,475.5" stroke="orange" stroke-width="1" fill="none" />
<polyline points="200.5,445.0,200.5,446.0,199.0,446.5,178.5,441.5,178.0,441.5" stroke="green" stroke-width="1" fill="none" />
<polyline points="186.0,457.5,192.0,450.0,182.0,451.0,185.5,447.5,196.0,442.0,185.5,428.5,175.5,427.0,183.5,430.0,185.0,424.5,182.5,424.0,183.0,426.5,182.5,414.0,174.0,414.5,184.0,410.5,163.5,405.5,165.5,401.0,162.5,389.0,163.5,397.5,156.0,387.5,167.5,385.0,171.0,383.5" stroke="orange" stroke-width="1" fill="none" />
<polyline points="157.0,370.0,157.0,369.5,177.5,369.5,174.5,350.0,182.5,347.5,191.0,332.5,189.0,340.5,195.5,327.0,199.5,330.0,201.0,321.0,190.5,328.5" stroke="yellow" stroke-width="1" fill="none" />
<polyline points="200.5,321.5,199.5,313.5,200.5,314.0" stroke="black" stroke-width="1" fill="none" />
<polyline points="182.0,316.0,179.5,323.0,189.0,319.0,194.0,307.5,195.5,304.0,202.5,290.5,204.0,287.5,206.0,281.5,214.0,274.5,226.5,262.0,227.0,259.5,228.5,250.0,239.0,250.0,231.5,243.5,248.0,234.0,238.5,223.5,250.5,226.0,251.5,219.0,263.5,220.5,264.0,222.5" stroke="orange" stroke-width="1" fill="none" />
<polyline points="264.5,225.5,271.5,220.5,272.0,235.0" stroke="yellow" stroke-width="1" fill="none" />
<polyline points="275.5,234.0,278.5,235.5,273.0,231.0,262.5,245.5,258.0,241.5,263.0,248.5" stroke="black" stroke-width="1" fill="none" />
<polyline points="261.0,236.0,266.0,234.0,266.5,229.5,265.5,236.5,267.5,225.5,272.0,230.0,265.5,229.5,255.5,234.5,256.0,233.0,264.5,236.5,245.0,243.5,248.0,239.5,234.0,251.5,248.5,261.5,225.0,268.5,223.5,275.5,217.5,285.5,220.0,283.0,224.5,290.5,232.0,273.5,228.0,271.0,231.0,266.0,228.0,269.5,236.5,263.0,233.5,259.0,242.0,249.5,228.0,248.0,252.5,243.0,248.5,238.0,257.5,243.5,255.0,224.0,266.0,223.5,262.5,222.5,260.0,219.0,257.0,217.0,262.5,220.0,272.5,222.0,268.0,205.0,278.5,201.5,273.0,201.5,278.5,202.0,261.0,192.5,273.0,188.0,262.5,192.0,269.0,197.5,264.0,211.5,273.0,205.0,262.5,205.5,262.5,215.5,267.5,196.0" stroke="green" stroke-width="1" fill="none" />
<polyline points="250.0,196.0,249.0,194.5,248.0,197.0" stroke="green" stroke-width="1" fill="none" />
<polyline points="255.0,218.5,251.0,215.5,254.5,226.0,236.5,234.0,238.0,229.5,226.5,239.0,223.0,232.5,220.5,238.0,223.0,232.5,228.5,232.0,223.0,226.0,227.0,215.5,218.0,225.5,211.5,219.0,218.5,223.5,230.0,211.5,222.0,212.0,222.5,206.5,218.0,203.0,220.5,204.5,218.0,204.0" stroke="orange" stroke-width="1" fill="none" />
<polyline points="" stroke="yellow" stroke-width="1" fill="none" />
<polyline points="" stroke="yellow" stroke-width="1" fill="none" />
<polyline points="" stroke="yellow" stroke-width="1" fill="none" />
<polyline points="249.5,209.5,253.0,197.5,261.5,186.0,264.5,186.5,255.5,178.5,248.5,197.5,243.5,193.5,253.5,189.5,267.5,190.0,259.5,191.0,257.0,188.0,268.0,181.0,266.0,176.5,274.5,183.5,274.5,187.0,275.0,179.0,277.5,178.5,281.5,177.0,281.0,176.5" stroke="yellow" stroke-width="1" fill="none" />
<polyline points="251.5,191.5,254.0,197.5,254.0,191.0,250.0,202.5,250.0,202.0,246.0,198.5,237.0,201.0,245.0,204.0,254.5,204.5,242.5,195.0,254.5,193.5,263.0,196.5,253.5,187.0,262.5,174.0,272.5,197.5,271.5,197.5,272.0,197.5,272.0,194.0" stroke="green" stroke-width="1" fill="none" />
<polyline points="264.5,208.0,265.5,208.0,263.5,209.5,257.0,205.0,267.0,192.5,263.0,191.0,270.5,182.5,270.0,185.5,279.0,192.0,273.0,194.5" stroke="green" stroke-width="1" fill="none" />
<polyline points="263.5,186.5,254.5,191.5,253.0,198.0,246.0,214.5,249.0,212.5,249.5,211.0" stroke="yellow" stroke-width="1" fill="none" />
<polyline points="256.5,203.5,262.0,210.5,261.5,208.5,258.5,216.5,262.0,219.5,255.0,224.5,248.0,217.0,243.5,232.5,240.0,227.5,242.0,244.5" stroke="yellow" stroke-width="1" fill="none" />
<polyline points="" stroke="black" stroke-width="1" fill="none" />
<polyline points="" stroke="green" stroke-width="1" fill="none" />
<polyline points="217.0,224.5" stroke="orange" stroke-width="1" fill="none" />
<polyline points="215.5,234.0,216.0,232.5,217.5,236.5,221.5,233.5" stroke="green" stroke-width="1" fill="none" />
<polyline points="234.5,242.5,216.0,233.0,225.0,246.5" stroke="orange" stroke-width="1" fill="none" />
<polyline points="214.0,229.5,212.0,229.5,212.0,224.5,212.0,222.0,219.5,227.5,207.0,229.5" stroke="orange" stroke-width="1" fill="none" />
<polyline points="220.5,238.0,223.0,232.5,228.0,248.0,224.0,248.0,232.0,250.0,231.5,249.5" stroke="black" stroke-width="1" fill="none" />
<polyline points="221.5,266.5,219.0,272.0,212.0,273.0,207.0,291.0,196.0,288.5,197.0,287.5,193.5,302.0,187.5,313.5,187.5,318.0,181.0,332.5,180.0,325.5,171.0,327.5,174.0,331.0,163.0,337.5,153.0,334.0,155.0,336.5,156.5,341.5,141.5,352.0" stroke="orange" stroke-width="1" fill="none" />
<polyline points="140.0,344.5,149.0,337.5,146.5,342.0,155.0,342.5,144.5,330.5,154.5,328.0" stroke="orange" stroke-width="1" fill="none" />
<polyline points="156.0,328.5,156.0,331.0,158.0,337.5,158.0,335.0" stroke="orange" stroke-width="1" fill="none" />
<polyline points="145.0,353.5,151.5,347.5,144.0,356.5,149.5,356.0" stroke="yellow" stroke-width="1" fill="none" />
<polyline points="131.5,351.0,136.0,335.0,144.0,342.5,130.0,338.0,138.5,326.5,129.5,323.0,136.0,320.0,137.5,319.5,128.5,317.0,132.5,317.5,128.5,312.0" stroke="green" stroke-width="1" fill="none" />
<polyline points="130.0,295.0,130.5,297.5" stroke="green" stroke-width="1" fill="none" />
<polyline points="135.5,309.5,135.5,307.5,131.5,307.0" stroke="black" stroke-width="1" fill="none" />
<polyline points="135.5,299.0,135.5,288.0" stroke="orange" stroke-width="1" fill="none" />
<polyline points="130.5,274.0,138.5,278.5" stroke="green" stroke-width="1" fill="none" />
<polyline points="151.5,266.5,157.0,264.5,154.5,269.0,162.0,266.5" stroke="black" stroke-width="1" fill="none" />
<polyline points="150.5,268.0,155.0,274.5,153.5,271.0,152.5,273.0" stroke="green" stroke-width="1" fill="none" />
<polyline points="150.0,268.5,145.5,270.0,154.0,276.5,152.0,273.5,152.5,275.0" stroke="orange" stroke-width="1" fill="none" />
<polyline points="170.0,262.0,170.5,259.0,175.5,259.0,178.0,260.0,172.0,255.0,171.5,267.0" stroke="yellow" stroke-width="1" fill="none" />
<polyline points="179.5,250.0,178.5,251.5" stroke="yellow" stroke-width="1" fill="none" />
<polyline points="170.5,260.0,169.0,261.5,169.5,259.0" stroke="orange" stroke-width="1" fill="none" />
<polyline points="" stroke="green" stroke-width="1" fill="none" />
<polyline points="176.5,269.5,179.0,260.5,179.5,259.5,195.0,260.0,186.0,257.5,188.0,258.5,191.0,261.0,190.0,259.0,192.5,262.0,192.5,262.0" stroke="green" stroke-width="1" fill="none" />
<polyline points="" stroke="yellow" stroke-width="1" fill="none" />
<polyline points="" stroke="orange" stroke-width="1" fill="none" />
<polyline points="174.5,254.5,187.0,257.0,187.5,255.0,180.5,269.0" stroke="black" stroke-width="1" fill="none" />
<polyline points="205.5,258.0,203.0,252.0,207.5,257.0,207.5,269.5" stroke="green" stroke-width="1" fill="none" />
<polyline points="207.0,253.0,214.0,252.5,216.0,247.5,207.0,238.5,209.0,237.0,210.0,238.5,210.0,242.5,202.0,241.5,209.0,243.0,209.0,239.0,202.5,236.0" stroke="black" stroke-width="1" fill="none" />
<polyline points="204.0,240.0,213.0,239.0,219.5,238.0,214.5,237.5,222.0,233.5,222.0,247.0,207.5,244.0,210.5,239.0" stroke="yellow" stroke-width="1" fill="none" />
<polyline points="" stroke="green" stroke-width="1" fill="none" />
<polyline points="205.5,253.5" stroke="black" stroke-width="1" fill="none" />
<polyline points="217.0,257.5,216.0,257.0,208.0,250.0,214.0,244.5,212.0,247.0,205.5,240.5,214.5,231.0,204.5,240.0" stroke="black" stroke-width="1" fill="none" />
<polyline points="217.0,243.0,213.5,248.5,212.5,241.0,211.5,257.5,212.0,258.0,220.0,260.0,214.5,263.5,219.5,262.5" stroke="yellow" stroke-width="1" fill="none" />
<polyline points="" stroke="green" stroke-width="1" fill="none" />
<polyline points="200.0,255.0,202.0,252.0,199.5,254.0" stroke="green" stroke-width="1" fill="none" />
<polyline points="" stroke="black" stroke-width="1" fill="none" />
<polyline points="188.0,271.0,181.5,265.5,186.0,265.0,170.0,266.0,171.5,258.5,194.5,243.0,184.0,243.5,177.5,241.0,189.5,233.5,198.5,242.0,179.0,244.0,179.0,243.5,182.5,241.5,186.5,246.0,180.5,243.0" stroke="black" stroke-width="1" fill="none" />
<polyline points="196.0,213.0,195.5,213.0,202.0,210.0,190.5,228.5,189.5,228.0" stroke="orange" stroke-width="1" fill="none" />
<polyline points="189.0,227.5,184.0,218.0,190.5,228.5,185.5,235.0,191.0,233.5,195.0,231.0,195.0,235.0" stroke="black" stroke-width="1" fill="none" />
<polyline points="181.0,242.0,184.0,239.0,186.5,241.5,184.0,237.5,188.0,239.5,184.0,243.5" stroke="yellow" stroke-width="1" fill="none" />
<polyline points="192.5,241.5,191.0,238.0,206.0,240.5,198.0,238.0,199.5,242.5" stroke="yellow" stroke-width="1" fill="none" />
<polyline points="224.5,218.5,224.0,220.5" stroke="green" stroke-width="1" fill="none" />
<polyline points="" stroke="yellow" stroke-width="1" fill="none" />
<polyline points="214.0,222.0,220.5,216.5,221.0,227.0,214.5,237.5" stroke="green" stroke-width="1" fill="none" />
<polyline points="229.0,208.5,217.0,218.0,227.5,235.5,231.5,235.5,223.0,237.0,233.5,235.0,235.5,245.0,228.5,236.0,232.0,250.5,228.0,250.5,231.5,254.0,218.5,252.5,212.5,271.5,222.0,257.0,216.5,262.0,221.0,270.5,216.0,286.0,200.5,284.0,214.5,292.0,202.5,286.0,201.5,290.5,211.5,306.0,190.5,307.0,203.0,310.5,204.5,319.5,195.5,311.5,198.5,320.0,185.0,329.0,199.0,318.5,193.5,314.0,202.0,313.0,218.0,310.5,212.5,312.5,220.5,302.5,229.0,307.5,233.0,283.5,226.5,279.5,239.0,276.0,236.0,265.0,233.5,272.0,249.5,266.5,249.5,257.0,248.5,253.0,246.0,256.0,254.0,248.0,258.0,249.0,273.0,244.0,284.0,258.5,280.5,249.0,273.5,254.5,292.5,254.0,285.5,246.0,304.5,255.5,299.0,250.0,301.5,253.0,299.5,255.0,302.5,249.5" stroke="orange" stroke-width="1" fill="none" />
<polyline points="" stroke="green" stroke-width="1" fill="none" />
<polyline points="287.5,256.0,286.0,258.0,294.0,276.0,290.5,277.5,288.0,279.0,289.0,277.5,288.0,274.0,290.5,277.0" stroke="black" stroke-width="1" fill="none" />
<polyline points="" stroke="black" stroke-width="1" fill="none" />
<polyline points="" stroke="black" stroke-width="1" fill="none" />
<polyline points="281.0,273.5,278.0,270.0,281.5,273.5,283.0,275.0" stroke="orange" stroke-width="1" fill="none" />
<polyline points="276.0,259.5,281.0,259.0,274.5,265.5,273.0,268.0" stroke="yellow" stroke-width="1" fill="none" />
<polyline points="285.5,271.5,286.0,269.5" stroke="green" stroke-width="1" fill="none" />
<polyline points="264.0,269.0,267.0,269.0" stroke="black" stroke-width="1" fill="none" />
<polyline points="265.5,255.0,264.0,268.0,266.5,269.5,269.0,268.5,275.0,271.0,280.5,257.0,274.5,274.0,270.0,285.5,281.5,271.0,275.0,279.5,278.5,283.5,281.5,290.0,276.5,291.5,279.5,290.0,275.5,291.5" stroke="yellow" stroke-width="1" fill="none" />
<polyline points="259.5,276.5,259.0,268.0,262.0,269.0,256.5,277.5,253.0,270.0,252.5,276.0,253.0,276.0,250.5,271.5,249.0,272.5,249.0,273.0" stroke="orange" stroke-width="1" fill="none" />
<polyline points="264.5,268.5,269.5,280.5,278.5,280.0" stroke="orange" stroke-width="1" fill="none" />
<polyline points="" stroke="orange" stroke-width="1" fill="none" />
<polyline points="259.5,267.0,257.0,266.5,255.5,279.5,254.5,271.5,260.0,271.0,264.5,281.0,270.5,278.5,274.5,283.5,280.5,280.5,282.5,277.5" stroke="green" stroke-width="1" fill="none" />
<polyline points="286.0,265.5,285.0,253.5,280.5,260.0,290.5,252.0,282.0,253.5,273.0,257.0,280.5,250.5,280.0,248.0,275.5,249.0,275.5,255.0" stroke="orange" stroke-width="1" fill="none" />
<polyline points="277.0,245.0,275.5,249.0" stroke="orange" stroke-width="1" fill="none" />
<polyline points="" stroke="orange" stroke-width="1" fill="none" />
<polyline points="271.5,262.5,266.5,252.5,283.5,257.0,269.5,259.0,264.0,247.5,257.5,245.0,264.5,252.0,257.5,258.0,258.5,256.5,264.5,255.0" stroke="yellow" stroke-width="1" fill="none" />
<polyline points="261.5,276.5,264.0,271.0,261.0,269.0,260.5,267.0" stroke="yellow" stroke-width="1" fill="none" />
<polyline points="273.0,271.5,283.5,269.5,283.5,269.5,289.0,278.0,288.5,272.0,283.0,270.5,281.5,276.5,287.0,277.5,294.0,263.5" stroke="green" stroke-width="1" fill="none" />
<polyline points="" stroke="orange" stroke-width="1" fill="none" />
<polyline points="259.5,249.0,254.0,259.0,248.0,266.0,243.0,263.0,236.0,274.0,237.0,272.5,229.0,278.0,228.0,293.0,237.5,279.5,230.0,286.5,214.5,292.0,209.0,305.0,215.0,302.5,210.5,305.0,214.0,320.5,198.5,308.5,201.5,310.5,209.0,320.0,194.0,323.5,189.5,336.0,192.5,339.0,183.0,336.0,187.0,350.0,182.5,346.0,173.0,345.0,171.5,357.0,174.5,355.0,166.0,360.5,168.0,368.0,164.5,366.0,156.5,385.5,158.5,380.0,151.5,390.0,162.5,387.0,166.5,394.5,170.0,399.5,174.5,406.0,177.0,405.0,172.5,403.5,177.0,396.0,171.0,396.0,174.5,397.5,171.0,404.0,167.0,403.5" stroke="yellow" stroke-width="1" fill="none" />
<polyline points="166.5,395.0,158.5,388.5,158.0,392.5" stroke="green" stroke-width="1" fill="none" />
<polyline points="" stroke="green" stroke-width="1" fill="none" />
<polyline points="137.0,373.0,140.5,370.5,143.0,368.0,144.5,361.5" stroke="black" stroke-width="1" fill="none" />
<polyline points="135.5,379.0" stroke="black" stroke-width="1" fill="none" />
<polyline points="135.0,410.5,130.0,414.0,126.5,417.5,129.0,415.0,140.5,424.0,138.5,426.0,139.0,431.5,135.5,433.0,135.0,443.5,136.5,445.0,141.5,445.0,144.0,455.0,134.0,453.5,133.5,464.0,137.0,460.0,137.5,473.0,137.5,471.5,138.5,472.0,150.0,471.0,143.5,478.5,146.5,469.0" stroke="black" stroke-width="1" fill="none" />
<polyline points="" stroke="green" stroke-width="1" fill="none" />
<polyline points="171.5,468.5,189.5,456.5,177.0,468.0,175.0,460.0,172.0,459.5,176.0,451.0,161.0,438.5,180.5,438.0,162.5,443.0,164.0,439.0" stroke="orange" stroke-width="1" fill="none" />
<polyline points="166.0,433.5,166.0,440.0,164.5,437.0" stroke="yellow" stroke-width="1" fill="none" />
<polyline points="162.0,413.0,168.0,406.5,160.5,406.0,150.5,409.5,162.0,398.0,161.5,401.5,159.5,394.5,157.5,397.5,150.5,388.0,151.0,385.0,145.5,369.0,153.0,369.5,141.5,362.5,143.0,359.5,149.0,361.0,147.5,356.5,145.5,360.0,154.0,360.5" stroke="black" stroke-width="1" fill="none" />
<polyline points="143.5,360.5,148.5,364.0,141.0,363.0,147.0,356.5,151.5,364.5,150.5,379.5,148.0,376.0,154.5,384.0,153.5,381.5,159.0,381.5,152.5,395.0,153.5,386.5,158.5,404.5,176.0,392.5" stroke="green" stroke-width="1" fill="none" />
<polyline points="171.0,433.0,171.5,433.5,163.0,449.0,174.5,450.5,185.0,450.0,175.0,446.5,173.5,466.0,176.5,469.0" stroke="yellow" stroke-width="1" fill="none" />
<polyline points="170.5,453.0,172.0,453.0" stroke="black" stroke-width="1" fill="none" />
<polyline points="167.5,454.0,164.5,441.0,160.0,445.0,175.5,453.5,168.0,460.0,179.5,454.0,169.5,464.0,170.5,472.0,166.0,470.5,164.5,481.5,177.0,472.5,159.5,481.5,166.5,492.5,165.0,490.5,160.5,501.5,154.5,496.5,161.5,511.5,175.0,495.5,179.5,512.0,175.5,511.0,180.5,508.0,168.5,517.0,168.5,511.5" stroke="black" stroke-width="1" fill="none" />
<polyline points="" stroke="yellow" stroke-width="1" fill="none" />
<polyline points="" stroke="green" stroke-width="1" fill="none" />
<polyline points="" stroke="orange" stroke-width="1" fill="none" />
<polyline points="164.0,452.5,150.5,449.0,148.5,448.5,147.0,444.5,149.0,432.5,163.0,432.0,149.0,431.5,150.5,426.5,142.0,416.0,136.0,408.0,133.5,409.5,137.0,405.5" stroke="orange" stroke-width="1" fill="none" />
<polyline points="153.5,396.0,144.0,393.0,152.5,385.5,151.5,399.0,147.0,398.5,143.0,402.5" stroke="orange" stroke-width="1" fill="none" />
<polyline points="136.0,400.0" stroke="yellow" stroke-width="1" fill="none" />
<polyline points="137.5,404.0,139.0,405.0,141.5,404.5,141.5,413.5,146.5,410.5,145.0,414.5,146.5,414.0" stroke="orange" stroke-width="1" fill="none" />
<polyline points="157.5,423.5,154.5,430.5,160.5,422.5,154.0,437.5" stroke="black" stroke-width="1" fill="none" />
<polyline points="165.0,439.0,171.0,447.0,178.0,446.5,179.5,446.5,180.5,437.0,179.5,439.5" stroke="green" stroke-width="1" fill="none" />
<polyline points="177.0,412.0,179.5,416.0,168.0,411.5,166.5,411.0,161.5,410.5,166.5,401.5,170.0,398.0,165.0,399.0" stroke="orange" stroke-width="1" fill="none" />
<polyline points="167.0,417.5,169.0,416.5,166.5,418.0,172.0,430.0,160.5,434.0,161.0,426.0,156.0,427.5,161.0,436.0,155.0,430.5,166.5,433.0,173.5,430.5,167.5,432.5,168.0,430.5,157.0,429.0" stroke="orange" stroke-width="1" fill="none" />
<polyline points="" stroke="yellow" stroke-width="1" fill="none" />
<polyline points="152.5,458.5,158.5,455.5,161.5,453.0,158.5,455.0,166.0,459.0,161.5,472.0" stroke="orange" stroke-width="1" fill="none" />
<polyline points="163.0,457.0,168.0,453.0,167.0,463.0" stroke="black" stroke-width="1" fill="none" />
<polyline points="" stroke="yellow" stroke-width="1" fill="none" />
<polyline points="147.5,450.5,144.0,457.0,155.5,454.0,159.0,453.0,153.0,451.0,154.0,459.0" stroke="black" stroke-width="1" fill="none" />
<polyline points="145.5,444.0,147.0,448.5,144.5,441.5" stroke="yellow" stroke-width="1" fill="none" />
<polyline points="142.5,462.5,153.5,464.0,151.0,467.5,147.5,468.5,157.0,470.5,148.5,478.0,154.5,482.5,154.5,481.5,154.0,475.5" stroke="orange" stroke-width="1" fill="none" />
<polyline points="146.5,477.0,147.5,467.0,155.0,471.0,151.0,469.0" stroke="yellow" stroke-width="1" fill="none" />
<polyline points="143.5,464.5,152.5,462.0,158.5,464.0,155.0,470.0,152.0,463.0,151.5,465.0" stroke="green" stroke-width="1" fill="none" />
<polyline points="" stroke="black" stroke-width="1" fill="none" />
<polyline points="137.5,449.5,138.5,456.5,131.5,454.0,147.0,461.5,141.5,452.5,148.0,475.0,141.0,473.0,150.5,471.0,158.0,477.0,154.5,478.0,157.0,477.5" stroke="orange" stroke-width="1" fill="none" />
<polyline points="157.5,473.0,161.0,475.5,160.0,467.0,162.5,470.5,152.5,470.5,146.5,468.0,152.5,457.0,143.5,455.0" stroke="yellow" stroke-width="1" fill="none" />
<polyline points="142.5,460.0,154.5,474.0,151.5,476.5,143.5,468.5,152.5,480.0,148.5,471.0,161.0,492.5,160.5,490.5,160.5,492.0,165.0,500.0,175.0,503.0,164.0,499.5,165.0,499.0" stroke="black" stroke-width="1" fill="none" />
<polyline points="159.0,448.5,158.5,453.5,152.5,450.5,146.5,446.5,153.5,435.0,143.5,440.0,148.0,429.5,152.0,434.0,145.0,420.0,144.5,422.0" stroke="orange" stroke-width="1" fill="none" />
<polyline points="" stroke="green" stroke-width="1" fill="none" />
<polyline points="" stroke="green" stroke-width="1" fill="none" />
<polyline points="139.5,416.0,146.0,410.5,149.5,409.0,153.0,414.5,154.0,406.0,156.0,405.0" stroke="green" stroke-width="1" fill="none" />
<polyline points="142.5,401.5,142.5,422.0,145.5,424.5,150.0,434.0,144.0,437.5,150.0,438.0,156.5,436.0,154.5,433.5,145.5,442.0,149.0,442.5" stroke="black" stroke-width="1" fill="none" />
<polyline points="152.5,417.0,151.5,429.5,155.5,407.0,150.5,414.0,145.0,402.5,146.0,399.5,153.5,395.0,143.5,393.5,143.0,394.5" stroke="orange" stroke-width="1" fill="none" />
<polyline points="151.5,395.5,151.0,397.0,139.0,398.0,138.0,397.0" stroke="yellow" stroke-width="1" fill="none" />
<polyline points="" stroke="black" stroke-width="1" fill="none" />
<polyline points="148.0,404.0,145.5,406.5,142.0,402.5,140.0,401.0,120.5,400.5,128.5,401.0,124.5,405.0,123.5,399.5,124.0,400.5" stroke="green" stroke-width="1" fill="none" />
<polyline points="120.5,399.0,121.5,398.5,127.0,404.0,130.5,395.5,119.0,403.5,134.0,404.5,131.0,404.5,127.0,404.5,128.5,399.0,130.5,405.5,129.5,402.0" stroke="yellow" stroke-width="1" fill="none" />
<polyline points="134.0,391.0,141.5,396.0,142.0,388.5,131.5,394.0,139.0,378.0,133.0,378.0,141.5,373.5,144.5,379.5,147.5,368.5,153.0,367.0,143.0,360.5,137.0,343.5,146.0,344.5,148.5,346.0,143.5,347.5,133.0,347.5,132.0,341.5,137.0,337.0,141.0,338.5,133.0,328.0,124.0,314.5,138.0,311.5,123.0,319.5,126.5,299.5,121.0,307.5,131.0,290.0,133.5,295.0,132.0,285.0,138.0,294.5,127.0,278.5,131.5,274.0,129.0,269.0,125.0,269.5" stroke="orange" stroke-width="1" fill="none" />
<polyline points="129.5,275.0,126.0,277.5,126.5,284.0,124.5,287.5,112.5,300.5,132.5,292.5,117.0,302.5,133.0,293.0,121.5,302.5,111.5,316.0,109.0,330.0,113.5,314.0,114.5,319.5,122.0,325.0,111.5,332.5,109.5,333.0,113.5,335.0,113.5,341.5,120.0,334.5,119.0,337.0" stroke="yellow" stroke-width="1" fill="none" />
<polyline points="" stroke="orange" stroke-width="1" fill="none" />
<polyline points="117.0,342.0,119.5,354.5,130.5,361.5,117.5,374.0,114.5,356.0,115.5,370.0,121.0,368.5,112.5,377.0,120.0,389.5,112.5,389.0,120.5,382.5,120.5,398.5,123.0,403.0" stroke="black" stroke-width="1" fill="none" />
<polyline points="114.5,378.5,123.0,390.5,125.0,384.5,119.0,373.5,127.5,377.5,119.5,373.0,113.5,357.0,122.0,373.5,118.5,370.5,116.0,371.5" stroke="black" stroke-width="1" fill="none" />
<polyline points="126.0,377.5,130.0,380.0,130.5,382.0" stroke="black" stroke-width="1" fill="none" />
<polyline points="123.5,385.0,126.5,397.0,126.0,402.5,126.5,404.5" stroke="green" stroke-width="1" fill="none" />
<polyline points="132.0,394.5,123.0,386.5,133.5,399.0,145.5,397.0,135.5,391.5,147.0,389.0,138.5,390.5,141.5,400.5,137.0,395.0,140.5,395.5,139.5,393.5" stroke="yellow" stroke-width="1" fill="none" />
<polyline points="" stroke="yellow" stroke-width="1" fill="none" />
<polyline points="120.0,398.0,119.5,395.0,119.0,398.0,113.0,403.5,114.5,400.5,115.5,401.5" stroke="yellow" stroke-width="1" fill="none" />
<polyline points="122.0,414.0,127.5,406.5,120.0,405.5,122.5,417.0,118.0,419.0,131.5,426.0,142.5,417.0" stroke="black" stroke-width="1" fill="none" />
<polyline points="" stroke="orange" stroke-width="1" fill="none" />
<polyline points="" stroke="green" stroke-width="1" fill="none" />
<polyline points="" stroke="green" stroke-width="1" fill="none" />
<polyline points="" stroke="yellow" stroke-width="1" fill="none" />
<polyline points="" stroke="yellow" stroke-width="1" fill="none" />
<polyline points="156.5,387.5,157.0,387.0,155.0,392.5,148.5,381.0,150.5,389.5" stroke="green" stroke-width="1" fill="none" />
<polyline points="172.0,404.5,168.0,410.0,175.0,415.0,180.5,414.0,173.5,415.5,173.0,415.0,177.0,409.0,171.5,413.5" stroke="black" stroke-width="1" fill="none" />
<polyline points="149.0,409.0,164.5,404.5,165.5,393.0,141.0,389.0,145.0,394.5,141.0,392.5,146.0,393.0,140.0,389.0,140.0,387.5,142.0,386.0,147.5,378.5,134.5,378.5,139.0,382.0,133.5,373.0,142.5,366.5,134.5,369.0,143.0,350.0,145.5,347.5,145.5,359.5,135.5,347.5,125.0,341.0,124.5,335.0,125.5,338.0,143.0,326.0,142.0,330.0,139.5,320.0,138.5,320.5" stroke="green" stroke-width="1" fill="none" />
<polyline points="131.5,328.5,125.5,345.0,119.5,348.0" stroke="orange" stroke-width="1" fill="none" />
<polyline points="123.5,351.0,126.5,352.0,114.0,351.5,119.0,364.5,115.5,368.0,117.5,375.5,120.0,382.0,120.5,382.5,122.0,381.5,137.5,387.5,131.0,383.5,130.0,395.0,132.0,400.5" stroke="orange" stroke-width="1" fill="none" />
<polyline points="" stroke="yellow" stroke-width="1" fill="none" />
<polyline points="" stroke="black" stroke-width="1" fill="none" />
<polyline points="" stroke="orange" stroke-width="1" fill="none" />
<polyline points="" stroke="orange" stroke-width="1" fill="none" />
<polyline points="129.5,359.5,131.5,355.0,133.0,351.5,120.5,356.5,136.5,368.0,140.0,366.5,125.5,372.0,127.5,371.0" stroke="black" stroke-width="1" fill="none" />
<polyline points="141.0,362.5,144.5,352.0,142.5,349.0,146.5,351.0,134.5,346.5" stroke="orange" stroke-width="1" fill="none" />
<polyline points="140.5,348.5,135.5,341.0" stroke="orange" stroke-width="1" fill="none" />
<polyline points="" stroke="yellow" stroke-width="1" fill="none" />
<polyline points="139.5,349.5,135.5,342.0,144.0,349.5,140.5,337.5,143.5,334.5,148.5,336.0,144.0,334.0,149.0,335.0" stroke="black" stroke-width="1" fill="none" />
<polyline points="139.0,348.0,129.0,335.0,139.0,342.5,136.5,345.5,139.5,342.5" stroke="orange" stroke-width="1" fill="none" />
<polyline points="117.5,353.0,116.0,363.0,111.0,362.5,113.0,367.5,110.5,373.5,118.0,370.5,108.5,377.0,117.5,380.5,124.5,381.5,122.5,393.0,115.0,396.5,113.5,399.5,115.0,411.5,120.5,398.0,119.5,407.5,118.0,421.5,102.0,422.5,110.5,420.0,113.5,422.5,117.0,418.0,117.5,419.0" stroke="yellow" stroke-width="1" fill="none" />
<polyline points="114.0,413.5" stroke="orange" stroke-width="1" fill="none" />
<polyline points="126.0,422.5,126.0,419.5,127.0,419.5,127.5,423.0" stroke="orange" stroke-width="1" fill="none" />
<polyline points="" stroke="green" stroke-width="1" fill="none" />
<polyline points="" stroke="black" stroke-width="1" fill="none" />
<polyline points="109.5,435.0,118.0,427.0,119.0,441.0,122.5,444.5,122.0,441.0" stroke="yellow" stroke-width="1" fill="none" />
<polyline points="" stroke="orange" stroke-width="1" fill="none" />
<polyline points="" stroke="black" stroke-width="1" fill="none" />
<polyline points="121.5,453.5,126.0,455.0,122.5,452.0,131.5,451.0,126.0,444.0,119.0,447.5,120.0,445.0" stroke="yellow" stroke-width="1" fill="none" />
<polyline points="" stroke="yellow" stroke-width="1" fill="none" />
<polyline points="" stroke="black" stroke-width="1" fill="none" />
<polyline points="100.5,448.5,90.0,451.0,95.5,453.5,96.5,453.5" stroke="green" stroke-width="1" fill="none" />
<polyline points="82.0,464.0,83.5,461.5,83.5,459.0,97.5,455.0,90.0,452.0,88.0,448.0" stroke="black" stroke-width="1" fill="none" />
<polyline points="97.0,467.0" stroke="green" stroke-width="1" fill="none" />
<polyline points="96.5,498.0,103.5,499.0,103.0,499.5,99.5,508.0,110.0,513.0,102.0,515.0,107.0,514.0,98.0,512.0,101.0,516.5" stroke="yellow" stroke-width="1" fill="none" />
<polyline points="111.0,494.5,108.0,489.0,104.5,492.0,106.0,491.5" stroke="yellow" stroke-width="1" fill="none" />
<polyline points="116.0,485.0,111.5,496.5,116.5,495.0,118.5,505.5,124.5,516.5,116.5,515.5,115.5,514.5" stroke="yellow" stroke-width="1" fill="none" />
<polyline points="97.5,503.5,103.0,502.5,98.5,504.0,98.0,506.0" stroke="green" stroke-width="1" fill="none" />
<polyline points="96.0,494.0,101.0,503.0,99.5,519.5,103.0,518.5" stroke="yellow" stroke-width="1" fill="none" />
<polyline points="120.0,497.0,120.5,498.0,129.0,490.5,128.0,486.0,129.0,482.5" stroke="yellow" stroke-width="1" fill="none" />
<polyline points="124.0,492.5,127.0,493.0,133.5,506.0,129.0,506.5,127.5,502.5,127.0,511.5,131.0,508.5" stroke="orange" stroke-width="1" fill="none" />
<polyline points="152.5,443.5,148.0,418.5,147.5,425.5,141.0,415.5,124.5,418.0" stroke="green" stroke-width="1" fill="none" />
<polyline points="135.5,420.5,129.0,424.5,147.5,437.0,139.0,432.0,144.5,441.0,151.0,449.5,147.0,449.5,142.5,451.5,134.5,458.5,138.5,455.0,130.5,474.5,136.0,456.5,136.0,455.0,142.0,461.0,136.0,459.5" stroke="orange" stroke-width="1" fill="none" />
<polyline points="135.5,442.5,138.5,444.0,144.0,425.0,135.0,424.0,139.0,424.0,142.5,427.0,141.5,429.0,144.0,430.5" stroke="green" stroke-width="1" fill="none" />
<polyline points="130.5,427.5,123.5,435.0,123.5,422.0,128.5,418.5,126.5,415.5,127.5,416.5" stroke="yellow" stroke-width="1" fill="none" />
<polyline points="115.5,418.0,117.0,433.0,119.0,437.5" stroke="yellow" stroke-width="1" fill="none" />
<polyline points="" stroke="black" stroke-width="1" fill="none" />
<polyline points="101.0,410.5,110.5,418.0,106.5,431.5,104.5,436.5,110.5,436.0" stroke="orange" stroke-width="1" fill="none" />
<polyline points="109.0,436.0,94.0,435.5,90.0,438.0,87.5,444.5,94.5,444.5,105.5,441.0,97.0,444.5,101.5,426.5,103.0,428.0" stroke="green" stroke-width="1" fill="none" />
<polyline points="89.5,428.5,97.0,429.5,93.0,421.0,96.5,428.5,88.5,424.0" stroke="green" stroke-width="1" fill="none" />
<polyline points="88.0,422.5,96.5,418.0,78.5,428.5,86.5,417.5,88.0,414.5,90.0,421.0,94.0,426.0" stroke="black" stroke-width="1" fill="none" />
<polyline points="" stroke="orange" stroke-width="1" fill="none" />
<polyline points="" stroke="yellow" stroke-width="1" fill="none" />
<polyline points="100.0,388.0,87.5,402.5,104.5,398.5,98.0,402.0" stroke="yellow" stroke-width="1" fill="none" />
<polyline points="99.5,408.5,91.0,401.5,90.0,397.0,98.0,407.5,88.0,397.0,85.5,406.0,100.0,391.5,84.0,388.0,93.0,381.0,81.0,387.0,90.0,388.5,87.5,388.0" stroke="orange" stroke-width="1" fill="none" />
<polyline points="65.0,401.5,74.5,400.0,74.5,403.0,71.0,419.0,71.5,422.0,68.0,415.0,69.5,420.5,65.0,425.5,66.0,424.0,76.0,431.0,77.0,434.5,70.0,433.5,68.5,440.5,62.0,441.0,70.5,443.0,74.5,450.5,68.0,455.0,71.0,457.0,71.5,462.5,82.5,459.5,67.5,473.0,57.5,476.5,70.0,485.0,65.0,481.5,62.0,487.5,72.0,492.5,64.0,500.5,69.5,501.0,61.5,499.0,66.5,502.0,64.0,513.0,57.0,510.0,69.5,503.0,72.5,500.0,73.0,497.5" stroke="green" stroke-width="1" fill="none" />
<polyline points="59.5,508.0" stroke="green" stroke-width="1" fill="none" />
<polyline points="71.5,486.0" stroke="green" stroke-width="1" fill="none" />
<polyline points="66.5,476.0,65.0,478.5,57.0,475.5,66.5,481.5,68.5,483.0,61.0,482.0,65.0,489.0,69.5,496.5,69.0,495.5,71.5,489.0,69.0,492.0" stroke="yellow" stroke-width="1" fill="none" />
<polyline points="68.0,467.5,77.5,458.5,81.0,459.5,87.0,445.0,80.5,447.5,79.5,445.5" stroke="orange" stroke-width="1" fill="none" />
<polyline points="" stroke="orange" stroke-width="1" fill="none" />
<polyline points="78.5,451.5" stroke="green" stroke-width="1" fill="none" />
<polyline points="66.5,471.5,67.5,464.0,60.5,467.0,63.0,459.0,68.0,469.5,71.0,473.5,73.5,484.5" stroke="yellow" stroke-width="1" fill="none" />
<polyline points="" stroke="orange" stroke-width="1" fill="none" />
<polyline points="14.0,498.5,18.5,496.5,16.0,507.0,18.0,513.5,17.0,510.5,20.0,511.0" stroke="yellow" stroke-width="1" fill="none" />
<polyline points="24.5,500.0" stroke="black" stroke-width="1" fill="none" />
<polyline points="" stroke="green" stroke-width="1" fill="none" />
<polyline points="11.5,417.0,8.5,420.0,8.0,421.0,3.5,427.5,12.5,430.5,10.0,443.5,13.5,444.5,11.5,444.0,11.5,440.5,11.5,445.5,18.0,453.5,15.5,456.0,12.0,467.0,8.5,459.5,20.5,472.0,22.0,471.0,18.5,475.5" stroke="black" stroke-width="1" fill="none" />
<polyline points="23.0,462.5,33.5,454.0,30.0,456.5,27.5,458.0,27.5,444.5,29.0,443.5" stroke="orange" stroke-width="1" fill="none" />
<polyline points="28.0,415.0,25.0,415.0" stroke="yellow" stroke-width="1" fill="none" />
<polyline points="24.0,410.0,19.0,420.5,12.5,418.5,16.0,424.0,18.5,428.0,22.0,443.0,31.5,442.0,10.0,443.0,27.0,445.5,26.5,451.5,29.0,451.5,18.0,457.0,28.5,457.5,30.5,460.0,21.0,472.5,27.0,472.5,32.5,476.0,26.5,472.5,29.0,484.0,29.0,496.5,22.0,496.0,33.5,500.0" stroke="orange" stroke-width="1" fill="none" />
<polyline points="65.0,436.0,65.0,437.0" stroke="black" stroke-width="1" fill="none" />
<polyline points="69.0,424.0,71.0,431.0,65.0,428.0,68.0,414.5,67.5,411.0,67.5,416.5,65.5,408.0,67.0,404.0,74.5,404.0,74.0,398.5,83.5,392.5,63.5,404.5" stroke="green" stroke-width="1" fill="none" />
<polyline points="" stroke="yellow" stroke-width="1" fill="none" />
<polyline points="" stroke="green" stroke-width="1" fill="none" />
<polyline points="77.0,414.0,62.5,423.5" stroke="green" stroke-width="1" fill="none" />
<polyline points="67.5,431.0,77.5,420.5,78.0,424.5,77.5,429.5" stroke="orange" stroke-width="1" fill="none" />
<polyline points="99.0,444.5,100.5,437.5,101.0,433.5,99.5,440.5,102.5,435.5,97.5,443.0,100.0,443.0" stroke="green" stroke-width="1" fill="none" />
<polyline points="" stroke="black" stroke-width="1" fill="none" />
<polyline points="93.0,418.0,93.0,419.0,95.5,418.5" stroke="black" stroke-width="1" fill="none" />
<polyline points="107.0,403.5,102.0,401.0,100.5,394.5,100.0,396.0,92.5,399.0" stroke="yellow" stroke-width="1" fill="none" />
<polyline points="99.0,367.0,101.0,375.0,106.5,378.0,98.5,364.5,108.5,356.5,103.5,360.0,108.0,358.0,108.5,355.5,108.5,362.0,111.0,352.5,110.5,340.0,107.5,334.5" stroke="orange" stroke-width="1" fill="none" />
<polyline points="101.0,335.0,102.0,333.5,105.5,334.5,104.0,335.0,101.5,343.0,104.5,336.0" stroke="black" stroke-width="1" fill="none" />
<polyline points="" stroke="yellow" stroke-width="1" fill="none" />
<polyline points="103.5,323.5,111.5,307.5,121.0,317.5,123.0,305.0,128.5,306.0,124.5,312.0,116.0,314.0,114.0,325.0,105.5,307.5,103.0,308.0,115.0,310.0,110.0,321.5,103.0,322.0,99.5,311.5,109.5,319.0,110.0,310.5,122.0,303.5,114.0,299.5,118.0,299.5,120.5,296.0,124.5,297.5,123.0,301.5,123.0,298.5" stroke="orange" stroke-width="1" fill="none" />
<polyline points="111.0,303.0,128.5,312.0,118.0,313.5,113.5,315.0,110.5,324.0,120.0,323.0,109.5,328.0,97.0,324.5,94.5,338.0,89.0,337.0,100.5,347.0,87.5,334.5,90.5,333.0,92.0,330.5" stroke="yellow" stroke-width="1" fill="none" />
<polyline points="" stroke="yellow" stroke-width="1" fill="none" />
<polyline points="100.5,370.0,85.0,376.5,91.5,373.0,96.5,383.0,90.0,396.0,86.0,398.0,95.5,393.0,87.0,384.0,86.0,405.0,93.0,406.0,91.5,404.0,93.0,413.5,92.0,412.0,106.0,403.5,110.5,421.5,104.0,408.0,110.5,400.0" stroke="orange" stroke-width="1" fill="none" />
<polyline points="123.5,350.0,129.0,350.0,130.5,353.0" stroke="orange" stroke-width="1" fill="none" />
<polyline points="115.5,374.0,125.5,391.0,127.0,389.5,128.5,395.5,124.5,384.5,129.0,400.5,128.0,407.0,132.0,400.5,132.5,397.5,131.0,398.5" stroke="orange" stroke-width="1" fill="none" />
<polyline points="120.5,363.5,122.0,357.0,117.5,352.0,117.0,357.5" stroke="black" stroke-width="1" fill="none" />
<polyline points="127.5,374.5,118.5,374.0,127.0,377.5,131.5,381.0,133.0,383.5" stroke="yellow" stroke-width="1" fill="none" />
<polyline points="" stroke="black" stroke-width="1" fill="none" />
<polyline points="134.5,360.5,130.0,359.0,132.0,371.0,138.5,367.0,142.0,357.0" stroke="orange" stroke-width="1" fill="none" />
<polyline points="171.0,361.0,181.5,366.5,180.0,354.5,177.0,362.0,177.0,343.0,185.0,341.5" stroke="green" stroke-width="1" fill="none" />
<polyline points="178.0,337.5,175.5,343.0,161.0,346.5,166.5,357.5,158.0,361.0,161.5,369.0,162.0,367.0,166.0,371.0,163.5,357.0,174.0,355.0,176.5,350.5,174.0,343.0,178.0,337.5,187.5,338.5,187.0,331.5,186.5,343.0,193.5,326.5,192.0,324.5,186.5,328.0,195.5,334.5" stroke="yellow" stroke-width="1" fill="none" />
<polyline points="" stroke="yellow" stroke-width="1" fill="none" />
<polyline points="197.5,362.0,191.5,350.0,189.0,350.0,188.0,347.5,188.0,345.5,191.5,342.0" stroke="green" stroke-width="1" fill="none" />
<polyline points="167.0,365.5,169.5,360.0,172.5,356.0" stroke="yellow" stroke-width="1" fill="none" />
<polyline points="161.0,367.5,167.0,370.0,162.0,357.5,166.5,361.0,157.0,369.5,157.0,365.5,158.5,364.5,168.5,354.0,173.0,355.0,174.5,347.5,178.5,342.5,179.5,338.5,180.5,340.0,185.5,332.0,177.5,330.0,157.0,322.5,168.0,340.0,157.0,341.0,164.0,341.0,161.0,335.0,170.0,330.5,161.0,329.5,170.5,328.5" stroke="orange" stroke-width="1" fill="none" />
<polyline points="174.0,327.5,169.5,343.0,168.5,337.0,171.0,330.5" stroke="green" stroke-width="1" fill="none" />
<polyline points="" stroke="green" stroke-width="1" fill="none" />
<polyline points="167.5,319.5,163.5,322.5,158.5,323.5,145.0,339.0,152.5,346.5,157.0,337.5,144.5,349.5,142.0,333.0,140.0,332.0,135.0,338.5,133.5,333.5,139.0,328.0,130.5,321.5,131.5,312.0,126.5,304.0,132.5,317.0,128.0,306.0,137.0,300.5,130.0,301.0,133.5,301.0,136.5,287.5,143.0,296.0,137.0,281.5,135.5,270.5,138.5,282.5,128.0,283.0,139.0,283.5,136.0,278.5,145.0,282.5,142.0,271.5,135.0,279.0,151.5,268.5,157.0,249.0,152.0,250.5,167.0,246.0,161.5,244.5,164.0,245.0,158.0,243.0,149.0,245.0" stroke="green" stroke-width="1" fill="none" />
<polyline points="147.5,249.5,144.0,253.0,146.5,255.0" stroke="black" stroke-width="1" fill="none" />
<polyline points="140.5,246.0,144.0,234.5,148.5,246.5,146.5,245.0,157.5,248.5,154.5,256.0,149.5,256.5" stroke="orange" stroke-width="1" fill="none" />
<polyline points="148.5,262.5,142.5,270.5,133.5,274.5,135.0,269.5,136.0,277.0" stroke="black" stroke-width="1" fill="none" />
<polyline points="150.5,262.5,151.0,256.5,157.5,260.0,159.5,253.5,154.5,263.0,154.0,265.0,153.0,266.5,150.5,271.5,151.0,276.0,143.5,273.0,148.0,293.0,151.5,281.0,153.5,282.5,160.0,277.0,165.5,277.0,163.5,294.0,162.0,298.5,155.0,298.0,166.5,308.0,166.0,318.0,165.0,318.0,157.0,315.0,162.0,314.5,169.0,316.5,173.0,309.0,170.0,298.5,175.0,299.0,170.5,295.0,184.5,284.5,186.5,287.0,179.5,295.0,183.0,288.5" stroke="yellow" stroke-width="1" fill="none" />
<polyline points="" stroke="green" stroke-width="1" fill="none" />
<polyline points="" stroke="orange" stroke-width="1" fill="none" />
<polyline points="175.0,295.5,177.0,295.0,174.0,312.0,173.5,304.5,181.5,304.0,177.0,306.5,178.0,307.0,179.0,306.5" stroke="yellow" stroke-width="1" fill="none" />
<polyline points="" stroke="orange" stroke-width="1" fill="none" />
<polyline points="172.0,309.5,167.0,297.0,174.0,296.5,180.5,302.5,171.5,285.5,167.0,289.5,173.0,293.0,159.5,299.0,162.0,286.0,163.5,286.5,178.0,283.5,178.0,282.0,178.0,287.0,159.5,284.0,169.0,284.0,164.0,292.5,166.0,284.5,173.5,297.5,164.5,274.5,167.0,281.5,164.0,273.5,164.5,270.5,166.5,264.0,172.0,266.0,172.5,262.0,169.5,263.0,170.0,258.0,173.5,247.5,181.0,248.0,172.0,236.5,176.0,236.5,180.0,232.0,182.0,240.5,175.0,245.0,177.5,242.5,175.5,241.5" stroke="green" stroke-width="1" fill="none" />
<polyline points="183.5,235.5,181.0,242.0,177.5,240.5,183.0,245.0,175.0,251.5,174.5,248.5,186.0,256.0,187.5,255.5" stroke="green" stroke-width="1" fill="none" />
<polyline points="189.0,253.5,190.5,255.5,180.0,253.5,182.0,248.0,185.5,245.0,184.5,247.0,186.0,249.0" stroke="yellow" stroke-width="1" fill="none" />
<polyline points="225.5,273.0,228.0,272.0,221.0,269.0,226.0,274.0,238.5,266.5,233.0,270.0,227.0,269.0,226.0,270.5" stroke="green" stroke-width="1" fill="none" />
<polyline points="208.5,319.0,212.5,322.0,220.5,324.0,212.5,330.0,220.0,332.0,213.0,332.0,220.0,336.5,228.0,342.5" stroke="black" stroke-width="1" fill="none" />
<polyline points="256.5,385.5,248.5,387.0,251.0,375.5,255.5,397.0,260.0,378.5" stroke="black" stroke-width="1" fill="none" />
<polyline points="262.0,386.0,265.5,382.0,256.5,374.0,248.5,395.5,252.5,398.5,258.0,394.5,248.0,390.5,246.0,396.0,248.5,388.0" stroke="yellow" stroke-width="1" fill="none" />
<polyline points="272.5,350.0,278.5,348.5" stroke="black" stroke-width="1" fill="none" />
<polyline points="273.5,354.0,285.5,350.0,280.0,347.0" stroke="yellow" stroke-width="1" fill="none" />
<polyline points="221.5,354.5,216.0,349.5,220.5,352.5,221.0,340.0,221.0,338.0,219.5,330.5,223.0,328.5,225.0,325.0,227.0,313.5,222.5,310.0,222.5,314.5,215.5,304.0,223.5,305.0,226.5,305.5" stroke="black" stroke-width="1" fill="none" />
<polyline points="176.0,288.5,170.5,287.0,174.5,291.0" stroke="black" stroke-width="1" fill="none" />
<polyline points="175.5,300.0,175.5,300.5,180.5,312.0,172.0,310.5,175.0,305.5" stroke="black" stroke-width="1" fill="none" />
<polyline points="155.5,311.0,162.0,308.0,164.5,301.0,157.5,305.5,154.0,313.5,155.5,317.5,157.0,317.5" stroke="yellow" stroke-width="1" fill="none" />
<polyline points="" stroke="yellow" stroke-width="1" fill="none" />
<polyline points="166.0,313.0,163.5,308.5,163.5,314.5,161.5,317.0,158.0,321.5,160.0,317.5,162.0,313.5,160.5,313.5" stroke="yellow" stroke-width="1" fill="none" />
<polyline points="" stroke="orange" stroke-width="1" fill="none" />
<polyline points="" stroke="yellow" stroke-width="1" fill="none" />
<polyline points="140.0,285.0" stroke="green" stroke-width="1" fill="none" />
<polyline points="151.5,282.5" stroke="yellow" stroke-width="1" fill="none" />
<polyline points="172.5,296.0,172.5,296.5,166.0,290.5" stroke="black" stroke-width="1" fill="none" />
<polyline points="173.0,292.5,179.0,303.5,173.0,308.5,164.0,308.5,166.0,304.5" stroke="orange" stroke-width="1" fill="none" />
<polyline points="158.0,293.5,155.5,296.0,157.5,292.5" stroke="yellow" stroke-width="1" fill="none" />
<polyline points="160.0,286.5,165.0,290.5,156.0,299.0,175.0,294.5,173.0,298.5,168.5,296.0" stroke="black" stroke-width="1" fill="none" />
<polyline points="169.5,279.0,168.0,278.0,170.5,300.5,168.5,294.0,168.5,300.5,166.5,310.0,170.0,311.5,169.0,308.5,160.5,318.0,163.0,314.0,167.0,313.5,162.0,331.0,161.5,329.0,149.5,329.5,152.5,335.5,159.0,340.0,149.0,340.5,147.5,352.5,154.0,355.5,149.0,359.5,142.0,346.0,144.5,346.0,149.0,346.5,153.0,351.0,168.5,347.0,162.0,342.0,160.5,340.5,161.0,340.5" stroke="yellow" stroke-width="1" fill="none" />
<polyline points="" stroke="orange" stroke-width="1" fill="none" />
<polyline points="157.5,279.0,161.0,274.5,175.0,270.0,163.5,262.5,155.0,265.5" stroke="yellow" stroke-width="1" fill="none" />
<polyline points="170.5,264.0,165.5,264.0,166.0,274.0,171.5,279.0,167.5,275.5,167.0,275.5" stroke="yellow" stroke-width="1" fill="none" />
<polyline points="" stroke="orange" stroke-width="1" fill="none" />
<polyline points="153.0,281.5,152.0,274.5,160.5,274.5,159.0,273.0,160.0,284.0,165.0,280.0,166.5,286.5,162.0,286.0,183.0,283.0,170.0,296.0,172.0,285.0,179.5,284.0,175.0,281.5,174.0,277.5" stroke="black" stroke-width="1" fill="none" />
<polyline points="167.5,290.0,163.0,292.0,173.0,285.5,159.0,286.0,168.5,287.0" stroke="yellow" stroke-width="1" fill="none" />
<polyline points="158.0,286.5,166.0,282.0,157.0,296.0,160.5,291.5,160.5,287.5,159.5,289.0,160.0,290.5,160.5,284.0,158.5,288.5" stroke="black" stroke-width="1" fill="none" />
<polyline points="148.0,301.5,150.5,290.0,159.5,289.0,157.5,278.5,157.5,277.5,151.5,270.5,156.0,262.5,159.5,267.5,163.0,266.5,164.5,248.5,170.5,255.0,164.0,252.0,165.0,249.5,163.0,242.5,160.0,235.5,168.0,252.5,157.0,254.0,155.5,251.0,146.5,249.5,141.5,257.5,154.5,250.5,140.0,268.5,135.5,253.0,139.5,264.5,122.5,255.0,131.5,271.5,126.0,274.0,136.0,261.5,136.0,250.0,141.5,251.5,128.5,252.5,133.5,243.0,144.0,243.0,136.5,241.0,141.0,241.5,142.0,225.0,132.5,229.5,138.0,224.5,138.5,231.5,137.0,227.5,139.0,217.0,120.0,213.5,130.0,202.5,124.0,200.0,127.0,198.0,113.5,198.5,124.5,192.0,123.0,175.5,119.5,189.5,117.5,181.0,124.0,173.5,115.0,166.5,119.5,153.0,119.0,164.0,113.0,150.5,119.0,142.0,115.5,139.5,118.5,140.0,126.5,141.5,122.5,132.0,123.5,134.5,129.5,127.5,132.5,128.5,135.0,116.5,135.0,124.0,134.5,105.0,137.5,116.0,131.5,97.0,143.5,100.5,140.0,107.5,141.0,101.0,142.5,94.5,137.0,109.5,141.0,109.0,136.5,106.5,141.5,110.5" stroke="black" stroke-width="1" fill="none" />
<polyline points="130.0,101.5,130.5,102.0,134.5,111.5,144.5,110.0,139.0,117.5,131.5,130.0,126.5,120.5,133.0,136.5,131.5,132.0,130.0,139.5,137.5,136.0,137.5,149.5,137.0,146.0,128.0,142.0,124.5,149.5,126.5,150.5,127.0,151.0,125.0,155.0,124.5,158.5" stroke="orange" stroke-width="1" fill="none" />
<polyline points="126.0,152.5,129.5,152.0,132.5,156.0,137.5,154.0,129.5,157.0,122.5,171.0,129.5,162.0,126.0,170.0,131.0,159.0,125.0,165.0,131.0,165.0,127.5,169.5,126.0,177.0,132.0,175.5" stroke="orange" stroke-width="1" fill="none" />
<polyline points="146.5,182.5,148.5,188.0,122.5,179.5,134.5,182.0,139.0,175.0,142.0,173.0,138.0,175.0,136.0,177.5" stroke="green" stroke-width="1" fill="none" />
<polyline points="126.0,176.0,137.0,173.5,130.5,179.0,138.5,175.0,126.5,172.0,136.5,169.0,133.0,173.5,137.5,169.5,138.0,167.5,140.5,162.5" stroke="green" stroke-width="1" fill="none" />
<polyline points="141.5,177.5,140.5,177.5,137.0,180.5,137.0,182.0" stroke="orange" stroke-width="1" fill="none" />
<polyline points="131.0,173.5,146.0,170.0" stroke="green" stroke-width="1" fill="none" />
<polyline points="138.5,178.5,140.0,171.0,144.5,177.5,144.5,193.0,132.5,178.5,148.0,205.0,144.5,197.0,141.0,196.0,151.0,191.0" stroke="green" stroke-width="1" fill="none" />
<polyline points="150.0,199.0" stroke="green" stroke-width="1" fill="none" />
<polyline points="152.5,196.0,148.0,186.0,146.5,195.5,150.0,188.0" stroke="orange" stroke-width="1" fill="none" />
<polyline points="" stroke="orange" stroke-width="1" fill="none" />
<polyline points="153.5,187.5,148.0,186.5,146.0,194.0,140.0,183.5,142.5,191.5,150.0,179.0,148.5,183.5" stroke="black" stroke-width="1" fill="none" />
<polyline points="155.5,184.5,154.5,191.0,157.0,185.5,147.5,198.5,147.5,196.0" stroke="yellow" stroke-width="1" fill="none" />
<polyline points="145.5,184.5,150.0,184.5,149.0,188.0" stroke="orange" stroke-width="1" fill="none" />
<polyline points="165.5,178.0,167.5,174.5,168.0,181.5,175.5,168.0,170.0,166.0,177.0,169.0,179.0,155.5,185.0,157.5,189.5,156.0,198.5,153.5,203.5,154.5,205.0,143.5" stroke="orange" stroke-width="1" fill="none" />
<polyline points="208.5,155.0,206.0,154.5,208.0,152.5,211.5,155.0,212.5,153.0" stroke="orange" stroke-width="1" fill="none" />
<polyline points="218.0,156.0,227.0,151.5,223.0,152.5,221.5,153.5,214.5,152.5,209.5,152.5,218.0,155.0,212.5,151.0" stroke="orange" stroke-width="1" fill="none" />
<polyline points="220.5,144.5,214.0,142.0,214.5,146.0" stroke="orange" stroke-width="1" fill="none" />
<polyline points="226.0,174.0,228.5,162.5,221.5,172.5,220.0,187.0,214.5,193.5,211.5,189.0,209.0,185.0,205.0,196.0,203.5,193.0,201.5,190.0,198.5,192.5" stroke="green" stroke-width="1" fill="none" />
<polyline points="215.0,186.5,220.5,186.5,217.0,183.0,210.5,187.5,224.5,178.0,218.5,168.5,228.5,177.5,236.5,172.5,239.0,166.5,244.5,166.0,246.5,170.5,247.5,179.0,239.5,177.0,239.5,182.5,241.5,175.0" stroke="green" stroke-width="1" fill="none" />
<polyline points="231.5,184.5,230.0,190.5,239.0,181.5,231.5,193.5,222.0,198.0,222.0,192.5,217.0,205.5,198.5,216.0,202.5,213.0,201.0,214.0,202.0,223.5,204.0,229.0,207.5,229.0,212.5,235.5,209.0,234.5,213.0,231.5,211.0,233.5" stroke="yellow" stroke-width="1" fill="none" />
<polyline points="212.5,201.5,204.5,200.5,209.0,205.5,220.5,189.5,219.5,188.5,220.0,192.0,229.5,193.5,228.5,181.5,229.5,181.0" stroke="yellow" stroke-width="1" fill="none" />
<polyline points="211.0,204.5,214.5,202.5,209.5,202.5,211.0,211.0,204.5,203.5,200.5,210.0,205.5,200.0,223.0,201.0,231.5,198.0,228.0,205.0,225.0,199.5,226.0,191.5,223.0,201.0,221.0,197.0" stroke="green" stroke-width="1" fill="none" />
<polyline points="223.5,192.0,222.5,196.5,227.5,197.5" stroke="green" stroke-width="1" fill="none" />
<polyline points="214.5,177.0,217.0,186.5" stroke="orange" stroke-width="1" fill="none" />
<polyline points="230.0,176.0,227.0,183.5,230.0,191.5,218.0,199.5,206.0,192.5" stroke="orange" stroke-width="1" fill="none" />
<polyline points="" stroke="orange" stroke-width="1" fill="none" />
<polyline points="" stroke="black" stroke-width="1" fill="none" />
<polyline points="191.5,205.0,199.0,201.5,187.5,198.5,190.5,211.0,189.0,202.0,188.5,205.5,188.5,202.0" stroke="black" stroke-width="1" fill="none" />
<polyline points="185.0,194.0,183.5,199.5,187.5,196.5" stroke="yellow" stroke-width="1" fill="none" />
<polyline points="191.0,208.0,189.5,212.5,193.0,221.0,186.0,217.5,187.5,223.5,195.5,219.0,189.5,209.0,182.5,204.5" stroke="black" stroke-width="1" fill="none" />
<polyline points="" stroke="green" stroke-width="1" fill="none" />
<polyline points="174.5,213.0,189.5,214.5,177.5,215.0,188.5,215.0,182.5,208.0,188.0,207.0,187.0,208.5" stroke="orange" stroke-width="1" fill="none" />
<polyline points="" stroke="green" stroke-width="1" fill="none" />
<polyline points="166.5,216.0,167.0,216.0,161.0,222.5,166.5,226.5,167.5,229.5,168.0,223.0,171.0,223.5,173.5,224.5" stroke="yellow" stroke-width="1" fill="none" />
<polyline points="185.0,216.0,178.0,227.5,165.0,221.0,155.0,224.5,182.5,241.0,174.5,235.5,170.5,234.0,171.5,232.5" stroke="yellow" stroke-width="1" fill="none" />
<polyline points="175.0,242.0,159.0,245.5,167.5,245.0,163.0,247.5,163.0,246.0" stroke="black" stroke-width="1" fill="none" />
<polyline points="157.0,260.0,157.0,259.0,151.5,273.5,129.5,256.5,135.0,271.0,130.0,276.5,132.5,269.0,121.5,281.0,117.5,262.5,111.0,261.5,123.0,263.5,113.0,266.0" stroke="yellow" stroke-width="1" fill="none" />
<polyline points="114.5,265.5" stroke="orange" stroke-width="1" fill="none" />
<polyline points="115.0,273.0,119.0,276.5,110.5,281.5,117.0,284.5,107.5,301.5,106.5,302.5,95.5,306.0,94.0,305.0,92.5,308.5,84.0,311.0,78.0,327.0,84.0,319.0,93.5,334.0,83.0,334.0,93.0,341.0,80.0,340.0,84.0,342.5,91.5,346.5,77.5,353.0,77.5,356.0,77.0,351.0,66.0,356.0,76.5,358.5,63.0,358.5,76.5,350.5,73.0,346.0,90.5,333.0,89.0,332.5,90.0,329.5,92.0,330.0" stroke="black" stroke-width="1" fill="none" />
<polyline points="91.5,326.5,98.0,331.5,95.0,325.0,91.5,333.5,82.5,338.5,86.5,343.5,73.5,335.5,81.0,347.0,75.0,352.0,69.5,355.0,66.0,358.5,58.5,362.0,62.5,366.5,64.5,370.5,71.5,362.5,73.5,354.5,72.5,347.0,79.0,344.0,86.0,346.0,86.5,337.0,79.5,349.5,97.5,346.0,90.5,341.5,82.0,348.0,88.5,356.5,70.5,355.0,81.5,376.5,80.5,367.0,79.0,374.0,82.0,367.5,84.5,371.5,84.0,351.5,89.5,361.0,95.0,346.5" stroke="black" stroke-width="1" fill="none" />
<polyline points="102.5,344.5,93.0,354.0,107.5,357.0,104.0,372.0,102.0,365.5,93.5,376.5,103.0,375.0,105.5,375.0,103.0,374.5,105.0,371.5,102.0,373.5,101.0,371.5" stroke="yellow" stroke-width="1" fill="none" />
<polyline points="107.5,368.0,109.0,367.0,109.5,361.5,104.0,359.0,102.0,360.5,103.5,360.5,98.0,354.0,100.0,353.0,97.0,359.0,97.0,359.5" stroke="yellow" stroke-width="1" fill="none" />
<polyline points="105.5,360.5,106.5,362.5,106.0,365.0,111.5,362.0,109.5,362.5,112.0,369.0,110.5,367.5,110.0,363.0" stroke="black" stroke-width="1" fill="none" />
<polyline points="109.0,358.0,110.0,357.5" stroke="black" stroke-width="1" fill="none" />
<polyline points="118.5,349.0,126.5,357.0,121.0,365.5,134.5,355.5" stroke="yellow" stroke-width="1" fill="none" />
<polyline points="" stroke="yellow" stroke-width="1" fill="none" />
<polyline points="77.0,366.0,85.5,351.0,82.0,351.0,96.5,350.5,74.5,354.0,72.5,355.0,70.5,361.5,76.0,362.5,66.0,379.0,77.0,373.0,70.5,373.5,80.5,368.5,81.5,367.5,81.5,367.5" stroke="yellow" stroke-width="1" fill="none" />
<polyline points="86.0,382.5,82.0,385.0,74.5,380.5,70.5,390.5,69.0,394.0,61.5,390.0,58.0,393.5,52.5,401.0,58.0,404.0,63.5,395.0,74.5,390.5,81.0,384.0,79.0,382.0,78.0,381.5,66.0,382.0,60.5,392.0,68.5,394.0,61.5,389.5,54.5,403.5,68.5,401.5,70.5,396.5,75.0,382.0,80.5,386.0,83.0,381.5,85.5,371.0,93.5,371.5,88.5,369.0,79.0,360.5,93.0,352.0,95.0,358.0,90.0,349.5,93.0,352.5,99.0,359.0,96.0,341.5,100.5,352.0,95.5,345.5,88.0,364.5,91.5,345.0,93.5,338.0,102.5,342.5,100.5,324.0,89.0,329.5,96.0,324.0,100.0,309.5,98.5,319.0,94.5,310.5,99.5,311.5,106.0,308.0,106.5,293.0,107.5,312.0,95.0,315.0,102.0,321.5,98.0,318.5,95.0,313.5,97.0,312.0,99.5,308.0,97.0,309.0" stroke="black" stroke-width="1" fill="none" />
<polyline points="85.5,311.5,90.5,314.5,89.0,317.5,83.5,304.5,97.0,302.0,99.0,306.5,121.0,289.5,102.5,292.5,109.5,291.5,114.0,288.5,115.5,286.5,116.5,286.0,116.0,281.5,111.5,282.5" stroke="orange" stroke-width="1" fill="none" />
<polyline points="95.0,302.5,91.5,311.5,84.5,305.0,81.0,305.0,82.0,305.0" stroke="black" stroke-width="1" fill="none" />
<polyline points="86.5,294.0,91.0,301.5,82.0,299.0,79.5,296.5,96.5,293.5,93.5,299.0" stroke="orange" stroke-width="1" fill="none" />
<polyline points="88.0,293.0,86.0,290.0,82.5,295.0,96.5,290.0,100.5,295.5,89.5,284.0,104.5,290.5,105.5,285.5" stroke="yellow" stroke-width="1" fill="none" />
<polyline points="108.0,274.0,108.5,277.5,111.5,270.5,115.0,274.5" stroke="green" stroke-width="1" fill="none" />
<polyline points="107.5,268.0,111.5,270.0,105.0,271.0,109.0,269.5,103.5,284.0,102.5,279.5,89.5,284.0,80.0,287.5,92.0,290.0,88.0,285.0,105.5,276.0,91.5,279.0,120.5,292.0,109.0,287.0,125.0,289.5,118.5,290.5,123.5,291.0,128.0,285.5" stroke="orange" stroke-width="1" fill="none" />
<polyline points="111.0,285.5,108.5,285.5,99.5,288.5,96.5,286.5,100.0,291.5,85.0,290.5,88.5,296.5,94.0,291.5,97.5,295.0,94.0,292.5" stroke="green" stroke-width="1" fill="none" />
<polyline points="96.0,265.0,100.0,258.0,115.0,255.5,92.0,264.5,93.5,269.5,97.5,283.5,92.0,284.0,90.5,283.5,91.5,267.0,101.0,271.0,97.0,279.0,101.5,276.5,108.0,274.5,109.5,288.0,112.5,270.0,113.5,283.5,135.5,268.0,132.5,266.0,135.5,264.0,130.5,264.5,130.0,267.0" stroke="yellow" stroke-width="1" fill="none" />
<polyline points="136.0,263.5,136.5,263.5,125.0,270.5,121.0,275.5,104.0,290.5,92.0,286.5,97.5,306.0,101.0,296.0,87.0,311.5,77.0,311.0,91.0,304.5,79.5,313.0,75.0,320.5,76.0,318.0,77.5,314.5,77.5,307.5,76.0,311.5,73.5,312.0" stroke="black" stroke-width="1" fill="none" />
<polyline points="" stroke="black" stroke-width="1" fill="none" />
<polyline points="125.5,313.0,122.5,312.0,118.5,314.5,114.0,313.5,115.0,337.5,110.5,315.0,94.0,327.0" stroke="green" stroke-width="1" fill="none" />
<polyline points="68.5,322.0,67.5,323.0,72.5,328.0,63.5,323.5,75.0,329.5,72.5,321.0,70.5,314.0,75.0,314.0,74.5,306.0,75.5,307.0,73.0,314.5" stroke="orange" stroke-width="1" fill="none" />
<polyline points="" stroke="yellow" stroke-width="1" fill="none" />
<polyline points="76.0,311.5,76.5,314.0,82.0,306.0,90.5,308.5,97.5,297.5" stroke="green" stroke-width="1" fill="none" />
<polyline points="106.5,311.0,103.0,315.0,106.0,304.5,109.5,305.5,99.0,308.5,101.5,306.5" stroke="yellow" stroke-width="1" fill="none" />
<polyline points="108.5,287.5,110.5,288.0,102.5,286.0,101.0,289.0,104.0,286.0,103.0,284.5,98.0,285.5,105.0,289.5,109.0,290.0,111.0,285.0,111.0,288.5,107.0,289.0" stroke="orange" stroke-width="1" fill="none" />
<polyline points="107.5,291.0,98.5,292.5,109.0,287.5,110.0,286.5,107.0,286.0" stroke="black" stroke-width="1" fill="none" />
<polyline points="91.0,272.0,88.0,282.5" stroke="black" stroke-width="1" fill="none" />
<polyline points="110.0,295.5,121.5,292.5,113.0,284.5,111.0,306.0,103.0,306.5,102.0,307.0,103.5,324.0,101.5,314.0,100.5,332.5,104.5,338.0,98.0,329.5,102.5,344.5,97.5,341.0,98.5,340.5,103.0,340.0,109.5,326.5,112.5,332.5,123.0,317.0,124.5,303.5,116.0,298.0,127.5,293.0,133.0,298.0,128.0,311.5,132.0,312.5,130.0,310.5" stroke="orange" stroke-width="1" fill="none" />
<polyline points="128.5,326.0,132.5,316.0,129.5,320.0,129.0,334.0,139.0,336.0" stroke="black" stroke-width="1" fill="none" />
<polyline points="120.5,314.5,128.0,314.0,124.0,320.5,128.5,330.5,102.0,327.5,115.0,342.0,107.5,347.0,97.0,340.0,99.5,346.0,91.0,343.0,92.5,352.0,98.5,347.5,88.5,355.0,106.0,356.5,98.0,370.5,94.0,365.5,93.5,374.5,97.5,386.0,93.5,384.5" stroke="orange" stroke-width="1" fill="none" />
<polyline points="75.0,403.0,79.0,403.5,74.5,412.5,63.5,409.0" stroke="orange" stroke-width="1" fill="none" />
<polyline points="" stroke="orange" stroke-width="1" fill="none" />
<polyline points="133.0,291.0,130.0,297.0,127.5,301.5,116.0,308.0,112.5,313.0,101.0,323.0,112.0,306.0,102.5,302.5,115.5,304.5,119.0,298.5,123.0,293.0,123.0,293.0" stroke="green" stroke-width="1" fill="none" />
<polyline points="" stroke="orange" stroke-width="1" fill="none" />
<polyline points="" stroke="black" stroke-width="1" fill="none" />
<polyline points="141.0,235.0,136.5,244.5,133.5,249.5,150.5,245.5,146.5,242.5" stroke="orange" stroke-width="1" fill="none" />
<polyline points="141.0,233.0,133.0,243.0,136.0,252.0" stroke="green" stroke-width="1" fill="none" />
<polyline points="143.5,240.5,130.0,222.5,141.5,228.5,135.0,223.5,142.5,220.0,141.0,219.0" stroke="yellow" stroke-width="1" fill="none" />
<polyline points="150.5,211.0,148.5,212.0,147.5,212.5" stroke="yellow" stroke-width="1" fill="none" />
<polyline points="148.0,205.0,150.5,211.0,147.0,209.0" stroke="orange" stroke-width="1" fill="none" />
<polyline points="138.5,193.5,132.0,184.0,140.5,196.5,139.5,184.5,150.0,177.0,143.5,173.0,137.0,188.0,138.5,184.0" stroke="green" stroke-width="1" fill="none" />
<polyline points="" stroke="orange" stroke-width="1" fill="none" />
<polyline points="154.5,177.0,154.5,176.0,150.5,186.5,142.0,186.0,136.5,188.0,134.5,187.5" stroke="yellow" stroke-width="1" fill="none" />
<polyline points="" stroke="green" stroke-width="1" fill="none" />
<polyline points="150.0,191.0,161.5,192.5,141.0,209.0,148.5,217.0,141.5,212.5,146.0,206.0,145.0,204.5" stroke="green" stroke-width="1" fill="none" />
<polyline points="122.0,196.0" stroke="black" stroke-width="1" fill="none" />
<polyline points="113.5,221.5,118.0,222.5,116.5,233.5,109.0,231.5,120.5,229.5,116.5,229.5,115.0,230.0" stroke="black" stroke-width="1" fill="none" />
<polyline points="111.0,232.5,112.5,217.0,113.0,223.0,116.5,226.5" stroke="green" stroke-width="1" fill="none" />
<polyline points="119.0,253.0,121.0,256.0,103.5,263.0,119.0,256.0,116.0,257.5,125.5,254.0,125.5,252.5,128.0,240.0,138.0,239.5,142.5,236.0,148.0,231.0,159.5,229.5,153.5,225.5,161.5,226.5,155.5,229.0,155.5,231.5" stroke="green" stroke-width="1" fill="none" />
<polyline points="135.0,235.0,139.5,244.0,139.5,250.5,135.5,250.5,135.5,263.5,139.5,279.5,142.0,268.5,140.5,266.0,126.5,271.5,133.5,268.5,141.0,279.5,135.5,278.0,136.0,271.0,140.0,272.0" stroke="yellow" stroke-width="1" fill="none" />
<polyline points="150.5,261.5,152.5,255.0,162.0,252.0,154.5,246.0,159.5,247.5,162.0,249.5" stroke="orange" stroke-width="1" fill="none" />
<polyline points="170.0,226.5,165.5,239.5,171.5,221.0" stroke="yellow" stroke-width="1" fill="none" />
<polyline points="164.5,228.5" stroke="yellow" stroke-width="1" fill="none" />
<polyline points="170.0,228.5,166.0,229.5,162.5,233.0,158.0,242.5,162.0,252.0,158.5,246.5,142.0,251.5,158.5,249.0,158.5,256.5,151.5,263.0,149.0,267.5,125.5,264.0,135.0,276.5,127.5,280.5,125.5,281.5,130.5,288.5,130.5,294.0,123.0,302.5,129.0,305.0,121.0,318.5,128.0,311.5,117.5,324.0,114.5,325.5,122.5,336.5,120.0,336.0,117.5,341.0,121.0,333.0,115.0,329.5,123.5,342.0,137.0,347.0,139.0,350.0,132.0,360.5,137.0,356.0,135.0,359.5,140.5,370.5,138.0,370.0,146.0,370.0,139.5,378.0,145.0,376.0,139.5,394.5,143.0,389.0,150.5,405.0,148.5,387.0,145.0,393.5,143.0,396.0,153.0,405.5,140.5,403.5,152.5,409.5,149.5,411.0,161.5,409.5,164.5,417.5,163.5,418.5" stroke="yellow" stroke-width="1" fill="none" />
<polyline points="161.5,410.0,161.0,410.0" stroke="orange" stroke-width="1" fill="none" />
<polyline points="" stroke="black" stroke-width="1" fill="none" />
<polyline points="" stroke="yellow" stroke-width="1" fill="none" />
<polyline points="197.0,422.5,201.5,419.0,197.0,428.0,192.0,429.0,193.5,432.0" stroke="green" stroke-width="1" fill="none" />
<polyline points="205.5,398.5,201.0,390.5,198.0,406.5,197.0,396.0,200.5,400.0" stroke="green" stroke-width="1" fill="none" />
<polyline points="185.5,393.5,191.5,405.0,190.0,401.0,189.5,405.0,184.5,422.5,181.5,412.0,194.0,416.5,188.0,425.0,188.5,433.0,199.0,432.5,180.0,429.0,185.0,437.5,182.5,440.5,192.0,446.0,191.0,439.5,199.5,455.0,201.0,451.0,201.5,453.0" stroke="green" stroke-width="1" fill="none" />
<polyline points="382.0,351.0,374.0,362.0,372.5,346.0,371.5,351.5,380.0,348.0,383.5,344.0,385.0,336.0,376.0,327.0,380.0,322.5,377.0,316.5,378.5,315.0,362.0,318.5,375.0,313.0,381.0,313.5,383.5,311.0" stroke="orange" stroke-width="1" fill="none" />
<polyline points="373.5,282.5,381.0,276.0,384.5,285.0,381.0,278.5,388.0,275.5,387.5,271.5,385.5,271.5,383.5,268.0,386.5,263.5,389.0,263.5,388.0,263.5,388.5,261.0" stroke="black" stroke-width="1" fill="none" />
<polyline points="364.0,280.5,370.0,279.5,361.0,277.5,364.0,281.0,364.5,286.0,364.5,289.0,362.5,296.0,372.0,296.0,362.5,306.0,361.5,302.5,353.0,307.5,361.5,309.5" stroke="green" stroke-width="1" fill="none" />
<polyline points="340.5,274.0,341.0,270.5,340.5,277.0,344.5,286.0,338.0,280.0,327.0,281.0,318.5,264.5,317.5,259.5,310.0,275.5,324.5,266.5,326.0,267.0,322.5,277.5,319.5,278.0" stroke="black" stroke-width="1" fill="none" />
<polyline points="318.0,269.5,325.5,266.0,320.5,267.5,326.5,268.0,337.0,275.0" stroke="yellow" stroke-width="1" fill="none" />
<polyline points="328.0,274.5,330.0,275.5,316.5,269.5,321.5,264.5,329.0,262.5,335.5,254.5,331.0,254.5,329.5,258.0,332.0,259.0" stroke="yellow" stroke-width="1" fill="none" />
<polyline points="364.0,267.0,367.5,273.5,363.5,277.5,356.0,272.5,355.0,274.5" stroke="green" stroke-width="1" fill="none" />
<polyline points="291.0,235.5,286.5,231.5,280.0,226.5,285.5,230.5" stroke="green" stroke-width="1" fill="none" />
<polyline points="270.0,222.5,272.0,220.0,270.5,197.5,281.5,200.5,269.0,206.0,288.5,201.5,288.5,192.5,284.5,190.5,292.0,185.5,299.0,193.0,304.0,190.0,306.5,184.0,306.5,174.5,308.5,183.5,309.0,185.0" stroke="orange" stroke-width="1" fill="none" />
<polyline points="319.5,170.5,315.0,174.0,297.5,173.5,297.5,177.0,295.5,183.5,298.0,184.0,293.0,195.0,287.0,191.0,280.5,202.5,279.5,198.0,271.5,204.0,264.5,204.5,263.0,212.5,270.5,213.5,269.0,224.0,247.0,221.0,255.0,229.5,249.5,228.5,246.0,234.5,244.5,250.0,232.0,243.0,237.0,253.0,235.0,261.0,227.5,263.5,219.0,257.5,214.5,283.0,209.0,285.5,213.0,293.0,202.0,300.0,193.0,307.0,208.0,329.0,198.0,317.5,198.0,313.5,197.5,314.0,207.0,305.5,195.5,295.0,197.5,296.5,203.5,294.5,211.5,286.0,211.0,291.0,208.0,286.5,214.5,275.0,219.0,280.0,222.5,271.0,222.0,264.0,225.0,268.0,221.0,255.5,229.0,259.0,237.0,248.5,231.5,242.0,238.0,241.5,245.0,236.5,246.5,231.5,258.0,224.0,244.5,225.5,262.0,224.0,262.5,219.5,251.5,203.5,266.0,218.0,263.5,199.0,264.0,200.5,264.5,200.5" stroke="yellow" stroke-width="1" fill="none" />
<polyline points="265.0,206.5,261.0,209.0" stroke="green" stroke-width="1" fill="none" />
<polyline points="" stroke="yellow" stroke-width="1" fill="none" />
<polyline points="207.5,198.0,217.5,178.0,215.0,182.0,224.5,184.0,219.5,181.5,226.5,173.5,231.5,181.0,230.5,182.0,232.0,181.0" stroke="orange" stroke-width="1" fill="none" />
<polyline points="227.0,185.5,210.0,185.0,215.5,172.0,216.0,191.0,195.0,201.0,218.5,184.0,212.0,197.0,217.0,193.0,219.5,198.5,230.5,191.0,233.0,191.0,234.5,188.5,228.0,174.0,230.5,180.5" stroke="orange" stroke-width="1" fill="none" />
<polyline points="256.0,178.5,243.5,180.5,242.0,184.5,239.5,179.0,242.0,174.5,240.5,180.5,251.0,182.0" stroke="orange" stroke-width="1" fill="none" />
<polyline points="255.5,182.0,245.0,184.0,241.5,180.0,251.0,183.5,241.5,198.0,241.5,200.5,231.5,202.0,234.0,210.0,235.0,213.0,225.5,211.0,243.0,208.5,236.5,208.0,240.5,208.5,235.5,219.5,243.5,214.0,236.5,218.0,238.0,213.5" stroke="orange" stroke-width="1" fill="none" />
<polyline points="266.5,187.0,268.0,179.0,267.5,187.5,259.0,191.5,255.0,191.5,252.0,206.0,242.0,198.5,252.5,202.0,263.5,198.5,249.5,201.0,254.5,200.0,258.0,197.0" stroke="green" stroke-width="1" fill="none" />
<polyline points="267.0,185.0,277.5,189.0,258.0,186.0,262.0,184.0,257.0,192.5,261.0,179.0,262.0,184.0" stroke="yellow" stroke-width="1" fill="none" />
<polyline points="251.5,183.5,243.0,194.0,243.5,197.5,250.5,202.5,246.5,190.5,249.5,195.5,244.5,192.5,251.0,184.5,258.0,189.0,259.0,180.0,260.0,182.5,270.0,186.0,262.0,182.0" stroke="yellow" stroke-width="1" fill="none" />
<polyline points="259.0,183.0,270.5,178.5,270.5,178.5,274.5,187.5,273.5,179.0,283.5,182.0,287.5,175.5,294.0,179.5,290.5,175.5,285.0,186.0,287.5,195.0,282.5,195.0,269.0,201.5,278.0,188.0,278.5,194.0,265.5,193.5,261.0,198.5,282.5,188.0,273.5,199.5,285.0,186.0,292.0,182.0,289.0,188.0,291.5,181.5,299.0,169.5,303.5,171.5,300.5,178.0,319.5,172.0,315.5,166.0,325.5,169.5,325.5,161.0,336.0,161.0,329.5,155.5,331.0,154.0,330.0,156.0,339.5,155.0,339.0,146.5,335.5,146.5,335.0,142.0" stroke="black" stroke-width="1" fill="none" />
<polyline points="304.5,182.0,300.5,173.0,298.5,188.0,290.5,193.5,290.5,187.5,283.5,202.0,274.5,191.0,262.0,214.5,265.5,216.0,275.0,206.0,264.5,215.0,264.0,215.0,271.0,214.0,260.5,224.0,270.5,228.5,262.5,233.0,272.0,240.5,271.0,241.0,262.0,242.5,269.5,243.0" stroke="yellow" stroke-width="1" fill="none" />
<polyline points="265.0,187.0,264.5,186.5" stroke="green" stroke-width="1" fill="none" />
<polyline points="259.5,165.5,261.0,163.5,253.5,159.0,257.0,161.0,242.5,164.5,244.5,162.0,250.5,165.0,246.5,159.5,244.5,161.0,249.0,156.5" stroke="orange" stroke-width="1" fill="none" />
<polyline points="" stroke="black" stroke-width="1" fill="none" />
<polyline points="257.5,178.0,256.5,171.0,257.5,174.0,258.5,175.0,263.5,181.5,258.5,183.5" stroke="orange" stroke-width="1" fill="none" />
<polyline points="246.5,138.5,253.5,134.5,258.0,130.0,254.5,133.5,263.5,130.0,253.5,140.5,248.5,130.5,254.5,139.0,254.5,138.0,254.5,137.0" stroke="yellow" stroke-width="1" fill="none" />
<polyline points="" stroke="orange" stroke-width="1" fill="none" />
<polyline points="215.0,152.0,219.0,153.0,219.5,158.0" stroke="black" stroke-width="1" fill="none" />
<polyline points="220.0,137.0,227.0,133.0,215.5,140.5,223.0,136.0,218.0,145.0,215.5,146.5" stroke="orange" stroke-width="1" fill="none" />
<polyline points="206.0,148.5,210.5,140.5,220.0,150.5" stroke="yellow" stroke-width="1" fill="none" />
<polyline points="187.5,170.5,191.0,163.0,200.5,159.0,211.5,148.5,194.5,160.0,194.5,153.5,189.5,155.5,190.0,154.5" stroke="black" stroke-width="1" fill="none" />
<polyline points="201.5,164.0,201.5,164.0,201.0,160.0,197.0,172.0,196.0,177.5,187.0,172.5,185.0,179.5,182.0,179.0,168.0,187.0,175.5,193.5,168.5,192.5,168.0,204.0,158.0,204.5,165.5,193.5,175.0,193.5,182.5,193.5,178.5,177.5,193.5,184.0,183.0,170.5,198.0,168.0,203.5,172.5,202.5,157.5" stroke="yellow" stroke-width="1" fill="none" />
<polyline points="209.0,182.0,202.0,183.5,210.5,204.0,204.0,199.0,206.0,197.0,192.0,197.0,191.0,199.5" stroke="black" stroke-width="1" fill="none" />
<polyline points="" stroke="yellow" stroke-width="1" fill="none" />
<polyline points="205.5,132.5,218.5,128.5,220.5,137.0,218.5,127.5,222.5,127.5,225.0,124.0,230.5,123.5" stroke="green" stroke-width="1" fill="none" />
<polyline points="216.0,147.5,202.0,144.5,207.5,142.5,205.5,134.5,216.5,123.5,219.0,129.5,223.0,120.0,230.5,112.0,237.0,117.5,240.5,124.0,235.5,121.5,237.0,118.0" stroke="orange" stroke-width="1" fill="none" />
<polyline points="232.0,111.0,228.5,135.5,226.5,127.5,197.5,148.5,196.5,143.5,199.5,149.0,203.5,142.0,196.5,156.0,187.5,157.5,195.0,165.5,171.0,167.5,174.5,169.0,161.5,168.5,160.0,179.0,169.0,180.0,157.5,196.5,150.0,189.0,153.0,188.0,158.0,196.5,148.5,199.0,150.0,204.0,146.0,209.0,146.5,214.0,150.0,215.0,150.5,220.0,138.0,222.5,141.5,224.0,145.0,236.0,140.5,238.0,138.5,244.0,133.0,239.5,128.0,242.0,129.5,253.5,131.0,260.0,131.5,257.5,133.5,260.0,129.0,256.5" stroke="black" stroke-width="1" fill="none" />
<polyline points="" stroke="yellow" stroke-width="1" fill="none" />
<polyline points="" stroke="black" stroke-width="1" fill="none" />
<polyline points="150.0,149.0,158.5,136.5,155.5,127.0,158.5,127.5,157.5,117.0,155.5,121.0,161.0,118.5,154.0,125.5,161.0,125.5,156.5,128.5" stroke="yellow" stroke-width="1" fill="none" />
<polyline points="183.0,141.5,178.5,134.5,176.0,139.0,186.0,121.0,190.0,118.0,179.5,130.5,185.0,128.0,183.5,126.5,191.5,122.5" stroke="black" stroke-width="1" fill="none" />
<polyline points="183.5,125.0,190.5,127.5,163.0,122.0,168.5,122.0,172.0,126.0,189.5,122.0,189.5,125.0,188.0,122.5,184.0,114.0,196.0,122.0,196.0,116.5,197.0,119.5" stroke="green" stroke-width="1" fill="none" />
<polyline points="" stroke="black" stroke-width="1" fill="none" />
<polyline points="" stroke="yellow" stroke-width="1" fill="none" />
<polyline points="203.0,108.5,196.5,108.5,205.0,105.5" stroke="yellow" stroke-width="1" fill="none" />
<polyline points="233.5,130.5,231.5,129.0,228.5,131.0,217.5,118.0,220.0,135.0,215.0,137.0,208.5,144.5,204.0,129.5,192.5,150.0,198.0,153.0,199.5,154.5,205.5,150.5,213.0,139.5,214.5,136.5,219.5,135.5" stroke="black" stroke-width="1" fill="none" />
<polyline points="255.5,130.5,251.0,152.5,258.0,141.0,236.0,156.5,238.5,152.5,239.0,142.0,233.0,149.0,229.5,144.5,221.5,162.5,230.0,152.5,239.0,150.5,240.0,139.0,246.5,141.0,256.0,133.5,264.0,128.5,260.0,130.5,272.0,123.0,271.5,113.0,266.0,115.5,261.5,116.0" stroke="green" stroke-width="1" fill="none" />
<polyline points="286.5,148.0,283.0,152.0,291.0,148.5,292.0,145.5" stroke="green" stroke-width="1" fill="none" />
<polyline points="298.0,142.0,295.5,139.0,301.0,138.0,303.5,143.5" stroke="yellow" stroke-width="1" fill="none" />
<polyline points="300.0,179.5,296.0,183.5,299.5,185.5,284.5,188.5,294.5,197.0,283.0,201.5,280.5,208.0,274.5,204.0,274.5,207.5,271.0,211.0,264.5,212.5" stroke="orange" stroke-width="1" fill="none" />
<polyline points="234.5,105.0,227.0,101.0,227.0,101.5,233.5,108.5,226.0,98.0,235.0,97.0,239.0,97.5" stroke="green" stroke-width="1" fill="none" />
<polyline points="" stroke="black" stroke-width="1" fill="none" />
<polyline points="248.0,92.5,244.5,94.5,241.5,87.0,241.5,91.5,240.5,91.5" stroke="black" stroke-width="1" fill="none" />
<polyline points="260.5,85.0,251.0,91.0,256.5,87.0,255.5,94.0,251.0,99.0,239.0,101.0,236.0,105.5,233.0,104.5,228.0,102.5,235.5,115.5,218.0,118.0,223.5,116.5,223.0,118.0,212.5,111.5,208.0,133.0,203.5,135.5,200.5,132.5,197.5,131.5,185.5,149.0,179.5,148.5,173.5,151.5,179.0,148.0,178.0,152.0,176.0,162.5,169.5,163.0,171.5,160.5,158.0,165.0,164.0,168.0,156.0,171.0,161.5,169.0,171.5,167.0,171.5,161.5,181.5,154.0,180.0,146.0,185.0,134.5,194.5,142.5,190.5,130.5,207.0,144.0,218.5,125.5,216.0,128.0,216.5,122.5,216.5,102.5,223.0,113.0,233.0,102.0,235.0,117.0,238.0,97.0,245.5,99.5,256.5,94.5,268.5,87.0,269.5,87.5,260.5,87.5" stroke="yellow" stroke-width="1" fill="none" />
<polyline points="235.0,81.0,232.0,91.0,238.5,89.5,248.5,92.0,234.5,85.0,242.0,82.5,240.0,83.5" stroke="yellow" stroke-width="1" fill="none" />
<polyline points="" stroke="black" stroke-width="1" fill="none" />
<polyline points="240.0,53.0,233.5,50.5,247.5,46.0,251.0,57.5,249.0,47.0,253.0,57.5,253.0,61.0,265.0,52.5,276.5,59.0,274.0,58.0,272.0,71.0,276.5,65.0,282.0,66.5,284.0,74.0,278.0,71.5,295.5,77.5,291.0,78.0,296.5,88.0,307.0,92.5,307.0,101.0,319.5,102.5,314.0,96.0,336.0,117.5,320.0,119.0,337.5,130.0,330.5,122.0,335.0,126.5,336.5,131.5,354.0,144.0,349.0,143.0,355.0,150.0,355.5,147.0,353.5,139.5,369.0,138.5,373.5,141.0,370.0,134.5,381.5,131.5,383.5,130.0,391.0,135.5,397.5,118.0,391.5,117.5,402.0,118.5,399.0,110.5,411.5,105.5,407.0,116.0,419.5,127.0,415.0,109.5,412.0,113.5,413.0,120.5" stroke="orange" stroke-width="1" fill="none" />
<polyline points="408.0,113.5,410.0,119.0,409.5,133.5,406.0,137.0,408.5,137.0,419.5,130.5,424.5,141.5,422.0,142.5,424.5,148.0,404.0,147.0,416.5,155.0,413.0,161.5,406.0,167.5,408.5,178.5,401.0,180.0,413.5,177.0,399.5,181.0,402.5,175.5,407.0,179.0,398.5,186.0,389.5,188.5,392.0,199.5,371.0,205.5,382.5,203.5,372.0,213.0,369.0,202.5,363.5,217.0,364.5,207.5,366.5,211.0,371.5,205.0,382.5,210.5,384.5,207.0,389.0,202.0,390.5,193.5,393.5,190.0,398.0,187.0,397.5,182.5,404.5,172.5,407.0,175.5,409.5,182.0,415.5,182.5" stroke="green" stroke-width="1" fill="none" />
<polyline points="370.0,125.0,369.0,122.0,362.0,126.0,369.5,121.5,368.0,119.5" stroke="yellow" stroke-width="1" fill="none" />
<polyline points="381.0,104.0,388.0,100.5,387.0,110.0" stroke="orange" stroke-width="1" fill="none" />
<polyline points="384.5,118.5,391.5,102.5,387.5,97.0" stroke="black" stroke-width="1" fill="none" />
<polyline points="424.5,44.0,425.0,47.5,413.0,28.5,418.0,28.0,416.5,21.5,415.5,21.0" stroke="orange" stroke-width="1" fill="none" />
<polyline points="511.5,70.5,514.5,79.0,510.0,79.0,504.5,86.0,501.5,86.5,496.5,95.0,485.0,108.0,480.0,105.0,491.5,114.5,480.0,104.5,472.0,113.0,480.0,121.0,475.5,125.5,470.0,126.5,468.0,132.0,466.5,134.0,467.0,137.5,465.0,152.5,457.5,151.0,463.0,155.5,455.5,159.0,446.5,167.5,449.0,165.5,445.0,167.5,444.0,167.5,443.0,174.0,426.5,188.5,434.0,194.5,432.0,186.0,433.0,200.0,428.5,203.0,433.5,208.0,427.0,201.0,419.0,199.5,421.0,211.5,418.5,219.0,417.5,225.0,424.0,232.0,422.0,236.5,416.5,229.5,418.5,237.5,413.5,247.5,403.0,241.0,411.0,249.0,419.0,259.0,399.0,264.0,406.0,260.0,410.5,274.0,404.0,273.5,402.5,276.5,396.5,282.0,403.5,280.0,391.0,290.0,399.0,290.0,408.0,294.5,399.0,304.5,393.5,295.5,392.5,309.5,392.0,304.0,397.5,310.0,392.5,317.5,397.0,314.0,389.0,328.0,391.0,327.5,381.0,341.5,394.0,331.0,395.0,336.0,389.0,335.5,388.5,335.5" stroke="orange" stroke-width="1" fill="none" />
<polyline points="343.5,138.5,341.5,132.0,329.0,133.0,337.0,133.5,338.5,125.5,330.5,121.5,333.0,116.0,322.0,112.0,337.5,103.5,314.5,98.0,311.0,93.5,304.0,90.0,309.5,97.5,306.0,91.0,302.0,80.5,293.0,75.0,296.0,80.5,300.5,73.5,285.5,63.5,274.0,73.5,276.0,63.0,254.5,54.0,268.0,47.5" stroke="yellow" stroke-width="1" fill="none" />
<polyline points="" stroke="black" stroke-width="1" fill="none" />
<polyline points="175.5,59.0,154.5,67.0,158.5,63.0" stroke="black" stroke-width="1" fill="none" />
<polyline points="161.0,79.5,152.0,68.5,148.0,80.5,159.0,72.5,164.0,67.5,162.0,80.0,161.5,70.5" stroke="black" stroke-width="1" fill="none" />
<polyline points="155.5,72.5" stroke="black" stroke-width="1" fill="none" />
</svg>