<svg xmlns="http://www.w3.org/2000/svg" width="1024" height="1024" version="1.1" fill="white"><polyline points="410.5,7.5,409.0,16.5,411.0,22.5,408.0,20.5,421.5,32.5,422.0,31.5,413.5,29.5,435.5,27.0,429.5,29.0,425.5,53.5,438.0,50.5,435.5,51.5,442.0,63.0,428.5,58.0,432.5,72.0,433.5,70.0,444.0,69.5" stroke="orange" stroke-width="1" fill="none" />
<polyline points="440.5,47.0,438.5,39.5,432.5,35.0,433.0,25.0" stroke="green" stroke-width="1" fill="none" />
<polyline points="428.0,5.0,436.5,12.5,441.0,23.0,435.0,31.5,441.5,37.0,444.5,37.5,445.0,40.0,446.5,45.5,441.5,40.5,441.5,53.0,462.0,62.0,462.0,65.0,447.0,67.5,456.5,76.5,429.5,68.0,444.0,70.5,432.5,80.0,437.0,82.5,431.0,82.0,439.5,91.5,434.5,92.0,421.0,107.0,426.5,102.5,414.0,107.0,419.5,108.5,414.0,108.0,408.5,106.5,427.5,100.5,435.5,95.5,434.0,81.5,432.5,77.0,438.5,72.0,445.5,82.0,457.5,65.0,446.5,60.5,461.5,47.5,466.0,52.0,468.5,48.0,459.5,42.5,474.5,40.5,479.5,41.0,488.0,23.0,480.5,25.5,493.5,26.0,494.0,16.0,512.5,15.5" stroke="yellow" stroke-width="1" fill="none" />
<polyline points="512.5,8.5,512.5,10.5,493.0,25.0,489.0,25.0,491.5,23.5,482.5,27.0,480.5,32.5,488.5,34.0,469.0,47.0,470.0,36.5,464.5,42.5,466.0,54.5,465.0,58.5,468.5,51.5" stroke="green" stroke-width="1" fill="none" />
<polyline points="496.5,66.0,497.5,68.0,505.0,84.0,503.5,90.5,499.0,98.0,484.0,97.5,478.0,105.5,480.5,102.5,481.0,109.0,468.5,115.5,466.0,121.5,468.5,122.0,457.5,137.5,462.0,140.5,468.5,144.0" stroke="green" stroke-width="1" fill="none" />
<polyline points="436.5,164.0,445.0,174.0" stroke="yellow" stroke-width="1" fill="none" />
<polyline points="435.0,174.0,436.5,177.0,440.5,184.0,439.5,180.5,435.5,184.5" stroke="green" stroke-width="1" fill="none" />
<polyline points="423.0,223.0,425.5,216.0,421.0,225.5,423.0,223.0" stroke="orange" stroke-width="1" fill="none" />
<polyline points="417.5,243.0,413.0,233.0,412.0,250.0,413.0,247.0,417.5,250.5,413.5,246.5,405.0,245.0,418.5,244.5,418.0,250.0,417.0,251.5,414.0,255.0,414.0,253.0" stroke="green" stroke-width="1" fill="none" />
<polyline points="" stroke="green" stroke-width="1" fill="none" />
<polyline points="387.0,299.5,387.0,304.5,374.0,290.0,378.0,286.5,380.0,281.5,394.0,275.5" stroke="yellow" stroke-width="1" fill="none" />
<polyline points="367.5,256.0,371.0,252.5,372.5,257.0,378.0,242.5,375.5,237.0,369.0,238.5,377.5,231.5,365.5,235.5,378.5,221.0,370.0,223.5,373.0,230.5,372.5,223.5,370.0,219.5" stroke="yellow" stroke-width="1" fill="none" />
<polyline points="373.0,242.5,380.0,237.5,374.5,238.0" stroke="yellow" stroke-width="1" fill="none" />
<polyline points="377.5,260.5,373.5,260.5,368.0,278.5,370.0,269.0,369.5,273.0,366.0,275.0,370.0,273.5,370.0,274.0,361.0,277.0,361.0,280.0,359.0,283.0,361.0,285.0,361.0,284.5" stroke="black" stroke-width="1" fill="none" />
<polyline points="376.5,287.0,369.5,303.5,375.5,294.0,382.5,285.5,381.5,300.5,373.0,305.0,375.0,311.5,376.5,308.0,381.5,309.0,383.5,324.0,371.0,324.0,384.5,339.0,383.5,339.0,385.5,338.0,384.0,340.0,386.0,345.5" stroke="orange" stroke-width="1" fill="none" />
<polyline points="366.5,356.0,373.5,364.5,378.5,362.0,379.5,365.0,377.0,363.5" stroke="orange" stroke-width="1" fill="none" />
<polyline points="369.5,375.0,379.0,379.5" stroke="yellow" stroke-width="1" fill="none" />
<polyline points="386.0,378.0,386.5,386.5,382.5,392.0,375.5,392.5,380.5,400.5,377.0,399.5" stroke="green" stroke-width="1" fill="none" />
<polyline points="360.5,420.0,355.0,413.5,357.0,421.5,345.0,413.0,340.5,401.0,337.0,406.0,336.5,406.5,327.5,406.0,328.5,394.5,321.5,404.0,322.5,391.0,317.0,397.0,312.0,387.5,301.0,398.0,299.0,386.5,301.0,387.5,301.0,396.0,298.0,393.5" stroke="green" stroke-width="1" fill="none" />
<polyline points="310.0,374.5,321.0,361.0,318.0,357.5,320.0,354.0,326.5,341.0,335.0,344.5,329.5,340.0,328.5,341.0,329.5,339.5" stroke="black" stroke-width="1" fill="none" />
<polyline points="351.5,331.0,362.5,333.0,349.5,329.0,352.0,343.5" stroke="green" stroke-width="1" fill="none" />
<polyline points="362.5,361.0,362.5,367.0,359.0,376.0,362.0,377.0,356.5,378.5,356.5,381.0,355.5,391.0,360.5,400.0,357.0,393.5,351.5,401.0,350.0,408.0,354.0,408.5,351.5,410.5" stroke="black" stroke-width="1" fill="none" />
<polyline points="359.5,368.5,365.5,374.0,359.5,372.0,358.0,368.5" stroke="orange" stroke-width="1" fill="none" />
<polyline points="359.5,370.0,359.0,373.5,359.0,374.0,357.0,382.5" stroke="green" stroke-width="1" fill="none" />
<polyline points="365.0,357.0,359.5,359.0,353.0,367.0,358.0,368.0,356.0,361.0,360.0,373.5,357.0,374.0,355.0,384.0,359.5,376.0,351.0,390.0,349.5,392.5,351.0,396.5,364.5,397.5,353.5,405.5,354.0,410.5,364.0,407.5,362.5,405.5" stroke="black" stroke-width="1" fill="none" />
<polyline points="376.5,457.5,369.0,460.0,371.5,456.5,375.0,453.5,376.0,450.0,377.0,441.5,372.0,446.5,367.5,431.5,373.0,428.0,380.5,434.5,379.5,421.0,388.5,417.0,382.5,413.0,374.0,409.0,384.0,402.5,379.5,398.0,375.0,402.0,388.5,394.0,383.5,394.0,375.0,384.0,394.5,378.0,376.5,375.0,386.5,376.0,381.5,368.5,382.5,368.0,389.0,364.0,371.0,357.0,382.5,351.0,385.5,353.0,379.0,349.5,374.5,345.5,376.0,338.0,385.5,333.5,373.5,333.5,372.0,319.5,380.0,323.5,377.0,329.0,383.0,314.5,372.5,309.5,371.0,301.0,382.0,320.0,379.0,305.0,382.0,289.0,377.0,291.0,367.0,283.0,373.5,274.5,377.5,283.5,363.0,269.0,366.5,265.5,375.0,265.5,370.0,260.0,372.5,260.5,359.0,256.5,365.0,253.5,367.0,245.5,376.5,243.5,374.0,231.0,361.0,226.0,372.0,231.5,356.0,219.0,362.0,217.5,369.0,225.0,362.5,212.0,366.5,209.0,355.5,207.0,347.0,203.5,346.0,199.0,342.0,205.0" stroke="black" stroke-width="1" fill="none" />
<polyline points="" stroke="orange" stroke-width="1" fill="none" />
<polyline points="" stroke="yellow" stroke-width="1" fill="none" />
<polyline points="" stroke="green" stroke-width="1" fill="none" />
<polyline points="359.5,202.5,373.0,204.0,371.5,202.0" stroke="black" stroke-width="1" fill="none" />
<polyline points="" stroke="green" stroke-width="1" fill="none" />
<polyline points="356.5,217.5,351.5,216.5" stroke="black" stroke-width="1" fill="none" />
<polyline points="341.0,202.0,340.5,204.5,337.5,206.0,329.5,205.5,333.5,194.0,333.0,196.0" stroke="black" stroke-width="1" fill="none" />
<polyline points="345.0,220.5,357.5,206.0,361.5,222.5,353.5,221.0,363.0,234.0,362.0,234.0,365.5,241.0,367.5,247.5,366.5,249.5,370.0,252.0,371.5,255.0,364.5,257.0,363.0,254.0,364.5,254.5" stroke="orange" stroke-width="1" fill="none" />
<polyline points="366.0,241.5,364.0,238.0,367.5,242.0,365.5,241.0,363.0,247.0,361.5,253.5,367.0,248.0" stroke="black" stroke-width="1" fill="none" />
<polyline points="347.5,237.0,348.0,247.0,348.5,240.0,354.5,239.5" stroke="black" stroke-width="1" fill="none" />
<polyline points="342.5,251.5,342.0,251.0,334.5,256.0,333.5,251.0,336.0,250.0,335.0,255.5,323.5,258.0,332.5,256.5,333.0,258.0" stroke="yellow" stroke-width="1" fill="none" />
<polyline points="337.0,253.0,341.0,245.5,342.5,253.5,350.0,255.5,355.5,239.5,348.0,243.0,341.5,240.5" stroke="yellow" stroke-width="1" fill="none" />
<polyline points="" stroke="green" stroke-width="1" fill="none" />
<polyline points="" stroke="yellow" stroke-width="1" fill="none" />
<polyline points="343.5,274.5,354.0,284.5,352.0,282.0,347.5,300.5,347.5,294.0,344.5,291.5,355.5,300.0,350.5,310.5,339.0,310.5,347.5,312.0,342.0,319.0,329.5,321.5,346.0,324.0,340.5,324.0,336.0,336.5,334.5,340.0,331.5,335.0,323.0,349.5,326.0,353.5,320.5,357.5,322.0,355.5,313.0,368.0,312.5,368.5,318.0,368.5,321.5,371.0,318.5,382.0,311.5,382.5,311.5,378.0,313.0,395.5,316.0,391.5,328.0,409.0,340.0,407.5,343.0,411.5,345.0,417.0,353.5,416.0,356.0,415.5,357.5,428.0,357.5,430.5,352.0,438.0,363.5,435.5,360.5,430.5,367.5,442.0,363.5,446.5,371.5,454.0,374.0,452.5,368.0,465.0,378.5,466.0,365.5,477.5,368.0,479.5,373.0,475.5,376.0,477.5,372.5,480.0,378.0,493.5,380.5,489.0,381.5,495.5,377.0,504.5,382.5,492.0,382.5,501.0,388.0,510.0,392.5,507.5,384.0,522.0,398.0,525.5" stroke="black" stroke-width="1" fill="none" />
<polyline points="433.0,496.0,434.5,487.5,426.0,487.0,436.0,486.0,440.0,482.5,450.0,475.0,446.0,468.5,456.5,463.5,454.5,467.0,454.0,461.0,444.0,466.5,444.5,463.0,445.0,467.5" stroke="black" stroke-width="1" fill="none" />
<polyline points="448.5,482.5,452.0,471.0,446.5,481.5,452.0,471.5,450.5,467.0,454.0,461.0,449.5,466.5,458.5,471.0,462.0,470.0,459.5,468.5" stroke="orange" stroke-width="1" fill="none" />
<polyline points="455.5,446.0,462.0,442.5,463.0,435.5,462.5,438.5" stroke="black" stroke-width="1" fill="none" />
<polyline points="472.0,422.5,474.5,404.5,478.5,414.0,482.0,402.5,482.5,407.5,488.5,401.0,485.5,395.5,497.0,386.0,496.0,386.0,503.5,391.5,503.0,386.0,518.5,379.0,506.0,381.5,513.5,375.5,513.0,379.0,514.0,373.5" stroke="orange" stroke-width="1" fill="none" />
<polyline points="518.5,386.0,513.0,385.5,513.0,384.5,513.0,382.0,513.5,380.5,505.0,388.0,499.0,380.5,492.5,396.0,493.5,405.5,488.5,409.5,476.0,409.0,479.5,410.0,471.5,415.5,473.0,429.5,466.5,416.0,464.0,429.5,467.5,429.0,456.0,430.5,458.5,436.0,452.0,440.0,465.0,444.0,460.0,451.0,456.0,453.5,455.5,460.0,452.5,455.0,448.5,470.0,447.5,483.5,448.5,471.5,445.5,480.0,447.5,486.5,443.0,480.0,438.0,479.5,432.0,482.5" stroke="orange" stroke-width="1" fill="none" />
<polyline points="442.5,476.0,438.5,473.5,444.0,464.5,441.5,461.0,441.5,458.0" stroke="green" stroke-width="1" fill="none" />
<polyline points="424.5,451.0,427.0,457.0,434.5,444.0,446.0,443.0,439.0,439.5,433.5,424.0,430.0,425.5,430.5,433.5,429.0,431.5,434.5,425.0,429.5,429.0,432.0,435.0" stroke="black" stroke-width="1" fill="none" />
<polyline points="431.0,477.0,424.5,474.0,424.5,470.0,425.5,474.0,422.0,486.0,431.5,481.0,421.5,483.5,423.0,483.5" stroke="black" stroke-width="1" fill="none" />
<polyline points="427.0,470.0,424.5,468.5,417.5,478.0,423.5,477.0,428.0,467.5,438.5,456.0,430.0,461.0,435.0,463.0,435.5,463.0,432.0,468.5,433.0,466.0" stroke="orange" stroke-width="1" fill="none" />
<polyline points="483.0,409.5,481.0,409.0,490.0,405.0,479.5,391.5,479.5,394.0" stroke="green" stroke-width="1" fill="none" />
<polyline points="446.5,429.5,446.0,424.5,447.5,423.0,443.0,419.0,451.0,408.5,445.0,411.5,449.5,405.5,457.0,393.5,458.5,391.0,455.0,383.5,449.5,385.5,451.0,375.5,448.0,384.5,448.0,373.5,465.5,373.5,453.0,355.5" stroke="orange" stroke-width="1" fill="none" />
<polyline points="383.5,340.5,394.5,343.0,378.5,332.5,377.0,324.0,382.5,325.5,381.5,328.0" stroke="black" stroke-width="1" fill="none" />
<polyline points="372.0,363.5,370.5,370.5,362.5,363.0,370.5,378.5,372.5,389.5,360.5,383.5,374.0,387.5,371.5,386.0,377.5,386.0,379.0,390.0,385.0,384.0,378.0,386.0,381.0,386.5,377.0,390.5" stroke="orange" stroke-width="1" fill="none" />
<polyline points="325.0,343.5,333.5,343.0,334.5,344.0,331.0,341.5" stroke="green" stroke-width="1" fill="none" />
<polyline points="" stroke="black" stroke-width="1" fill="none" />
<polyline points="300.5,355.5,296.0,351.5,287.5,356.0,294.5,358.0,298.0,354.0,296.5,355.5" stroke="orange" stroke-width="1" fill="none" />
<polyline points="317.0,355.5,315.0,359.0,301.0,364.5,314.0,365.0,297.0,363.5,304.5,361.5,300.0,359.5,304.5,360.5,303.5,362.5" stroke="yellow" stroke-width="1" fill="none" />
<polyline points="305.0,347.0,296.0,352.5,300.5,347.5,301.0,350.0,301.0,359.0,305.5,358.0" stroke="orange" stroke-width="1" fill="none" />
<polyline points="304.5,324.5,311.0,328.5,312.5,325.0,305.0,331.5,308.5,333.0,307.5,327.0,311.0,338.0,305.0,342.5,307.0,338.5,303.0,335.0,306.5,339.0,306.5,338.5" stroke="green" stroke-width="1" fill="none" />
<polyline points="312.5,315.5,315.5,318.5,310.0,317.5,316.5,324.5,295.0,335.0,293.5,341.5,294.0,346.5,300.0,343.5,295.0,338.5,292.5,345.0" stroke="black" stroke-width="1" fill="none" />
<polyline points="292.0,319.0,292.5,319.5" stroke="green" stroke-width="1" fill="none" />
<polyline points="316.5,331.5,326.5,325.5,326.5,327.0,321.0,332.0,324.0,311.5,318.0,307.5,329.5,312.0,319.5,297.5,324.5,297.5,325.0,304.0,320.0,302.5,321.5,304.5" stroke="black" stroke-width="1" fill="none" />
<polyline points="" stroke="black" stroke-width="1" fill="none" />
<polyline points="341.0,267.0,341.5,265.5,332.5,266.5,324.0,261.0,329.0,256.0,334.0,258.0,333.5,260.0" stroke="yellow" stroke-width="1" fill="none" />
<polyline points="329.5,265.5,333.0,270.0,324.5,275.5,325.5,275.0,332.0,263.5,336.0,267.0,318.0,279.0,334.5,252.0,328.0,254.0,330.5,255.0" stroke="orange" stroke-width="1" fill="none" />
<polyline points="" stroke="orange" stroke-width="1" fill="none" />
<polyline points="" stroke="yellow" stroke-width="1" fill="none" />
<polyline points="342.0,267.0,344.5,255.5,337.5,262.5,342.0,256.0,341.5,260.0,348.5,252.0,344.0,250.0" stroke="green" stroke-width="1" fill="none" />
<polyline points="349.0,237.5,351.0,227.5,342.5,225.0,334.5,213.5,337.5,212.5,340.0,213.0,337.5,211.0" stroke="yellow" stroke-width="1" fill="none" />
<polyline points="341.0,192.5,344.0,194.0,345.0,202.0,353.5,197.0,350.5,197.5,361.5,194.0,359.0,189.5,367.5,186.5,375.5,184.5,381.0,183.0,383.5,189.5,374.5,189.5,393.0,189.5,388.5,176.0,391.5,176.5,388.5,170.5,393.5,182.0,404.0,166.5,406.5,178.5,404.5,175.0,390.5,191.0,396.0,186.0,391.0,188.0,381.0,192.0,379.5,203.5,393.0,190.0,388.5,182.0,396.5,174.0,402.0,175.0" stroke="black" stroke-width="1" fill="none" />
<polyline points="408.5,160.5,389.5,172.0,383.5,174.5,386.0,175.5,385.5,176.5" stroke="black" stroke-width="1" fill="none" />
<polyline points="351.5,196.5,350.5,189.5,341.5,191.5,336.0,194.0" stroke="yellow" stroke-width="1" fill="none" />
<polyline points="325.0,203.0,330.5,212.5,340.5,205.0,335.0,206.5,327.5,207.5,330.0,210.5" stroke="black" stroke-width="1" fill="none" />
<polyline points="" stroke="orange" stroke-width="1" fill="none" />
<polyline points="350.0,218.0,355.0,219.5,359.0,214.5,360.0,217.0,360.5,217.5" stroke="yellow" stroke-width="1" fill="none" />
<polyline points="355.0,204.0,352.0,205.5,345.5,200.0,350.5,200.0,345.0,203.5,345.5,207.0,346.0,206.0" stroke="green" stroke-width="1" fill="none" />
<polyline points="344.0,193.5,348.0,205.0,351.5,209.0" stroke="black" stroke-width="1" fill="none" />
<polyline points="" stroke="black" stroke-width="1" fill="none" />
<polyline points="347.0,205.5,346.0,204.0,351.0,205.0,351.5,208.5" stroke="yellow" stroke-width="1" fill="none" />
<polyline points="" stroke="green" stroke-width="1" fill="none" />
<polyline points="375.5,195.5,366.0,202.5,370.0,199.0" stroke="green" stroke-width="1" fill="none" />
<polyline points="385.5,163.5,375.0,161.5,388.0,159.0,386.5,176.0,383.0,174.0,390.5,174.5,387.0,155.5,387.5,154.5,393.0,150.5,391.0,148.5" stroke="yellow" stroke-width="1" fill="none" />
<polyline points="392.0,166.0,394.5,169.5,394.0,158.0,411.5,160.0,392.0,171.5,398.0,174.0,387.0,171.0,399.5,174.0,400.5,158.0" stroke="green" stroke-width="1" fill="none" />
<polyline points="391.5,126.5,396.5,125.5,394.0,122.0,378.0,131.0,381.5,135.0,393.0,131.0,391.0,133.5,391.5,120.5,385.5,122.0,394.0,125.5,396.5,123.5" stroke="black" stroke-width="1" fill="none" />
<polyline points="391.5,124.0,380.0,129.5,384.0,129.0,381.0,130.5,389.0,126.5,405.5,124.0,398.0,116.5,400.0,120.5" stroke="orange" stroke-width="1" fill="none" />
<polyline points="396.5,110.0,395.5,117.5,390.5,124.0,387.0,133.5,372.0,130.5,357.5,137.5,355.0,146.5,362.5,142.0,353.5,138.5,360.5,134.0,355.5,133.0,358.5,130.0,359.5,130.0" stroke="yellow" stroke-width="1" fill="none" />
<polyline points="333.0,145.5,315.0,150.0,322.0,157.0,308.5,150.0,306.5,170.0,306.5,166.5,306.0,164.5" stroke="orange" stroke-width="1" fill="none" />
<polyline points="" stroke="black" stroke-width="1" fill="none" />
<polyline points="284.0,173.0,282.0,169.0,278.5,182.0,286.5,175.0,282.5,181.5,288.0,181.5,283.0,182.5" stroke="orange" stroke-width="1" fill="none" />
<polyline points="" stroke="orange" stroke-width="1" fill="none" />
<polyline points="282.5,178.5,282.0,165.0,281.5,173.5,277.5,174.0,276.0,178.0" stroke="green" stroke-width="1" fill="none" />
<polyline points="255.5,178.0,262.0,181.0,247.5,178.0,246.5,168.5" stroke="orange" stroke-width="1" fill="none" />
<polyline points="241.0,159.0,238.5,163.0,245.5,160.5,247.0,162.5,254.0,168.5,248.5,179.0,256.5,183.0,251.5,182.0,251.0,187.0,244.0,190.5,242.0,195.0,240.0,195.5,241.0,201.5,236.5,209.5,241.0,203.5,234.0,220.0,243.5,204.0,246.0,216.5,260.5,204.0,254.5,212.5,253.5,203.0,248.0,215.0,251.5,217.0,259.5,222.0,239.0,221.0,239.0,236.5,239.0,226.0,237.0,229.5,243.0,247.5,226.0,245.0,230.5,251.5,219.0,254.5,218.0,254.5,220.5,257.0,221.5,267.0,210.0,272.0,210.5,276.5,208.5,276.5,204.5,285.5,204.5,288.5,209.5,298.5,198.5,305.0,191.0,295.5,193.5,304.0,205.5,305.0,194.0,321.5,197.5,309.0,197.0,313.5,176.5,315.0,183.5,321.5,180.0,323.0,174.0,333.0,166.5,330.5,166.0,342.0,159.0,342.5,167.0,338.5" stroke="yellow" stroke-width="1" fill="none" />
<polyline points="156.5,352.0,156.0,342.5,163.0,366.0,151.5,363.0,153.0,367.0,146.5,378.0,155.0,379.0,163.5,367.5,150.5,380.0,159.0,385.5,158.0,391.5,158.5,400.0,146.0,391.5,151.0,413.0,163.0,402.0,162.5,413.0,165.0,410.0,152.0,419.0,165.0,413.5,166.5,413.5" stroke="yellow" stroke-width="1" fill="none" />
<polyline points="170.5,406.5,164.5,409.5,165.0,409.0,161.5,413.0,161.0,420.0" stroke="black" stroke-width="1" fill="none" />
<polyline points="170.5,413.5,170.0,422.5,165.0,422.0,169.0,417.5,174.5,428.5,167.5,421.5,180.0,430.0,179.5,422.5,178.5,425.0" stroke="yellow" stroke-width="1" fill="none" />
<polyline points="" stroke="orange" stroke-width="1" fill="none" />
<polyline points="186.5,440.0,190.0,443.0,185.5,432.5,177.5,440.0,176.5,440.5,187.0,441.0,193.5,435.5,194.0,427.0" stroke="yellow" stroke-width="1" fill="none" />
<polyline points="" stroke="yellow" stroke-width="1" fill="none" />
<polyline points="" stroke="yellow" stroke-width="1" fill="none" />
<polyline points="" stroke="yellow" stroke-width="1" fill="none" />
<polyline points="181.5,465.5,177.0,461.0,167.5,467.0,171.5,474.0,164.0,464.0,161.5,472.5,161.5,470.5" stroke="yellow" stroke-width="1" fill="none" />
<polyline points="158.5,473.5,150.0,473.5,127.0,449.0,126.0,457.0,143.0,457.0,136.5,450.5,133.0,450.5" stroke="yellow" stroke-width="1" fill="none" />
<polyline points="144.5,465.0,141.0,481.5,151.0,482.0,162.0,487.0,150.0,476.5,153.5,478.0,155.0,489.5,162.0,500.0,163.5,498.0,160.0,495.5,157.5,498.0" stroke="black" stroke-width="1" fill="none" />
<polyline points="169.5,502.5,165.5,501.0" stroke="yellow" stroke-width="1" fill="none" />
<polyline points="171.5,506.0,170.5,509.5,170.5,499.0,163.5,508.0,154.5,514.5,154.0,505.0,153.5,500.5,146.5,494.5,139.0,490.5,140.0,488.0" stroke="black" stroke-width="1" fill="none" />
<polyline points="152.0,504.0,148.5,501.5" stroke="green" stroke-width="1" fill="none" />
<polyline points="" stroke="green" stroke-width="1" fill="none" />
<polyline points="" stroke="green" stroke-width="1" fill="none" />
<polyline points="" stroke="orange" stroke-width="1" fill="none" />
<polyline points="146.0,491.0,146.0,492.5,160.0,486.5" stroke="black" stroke-width="1" fill="none" />
<polyline points="153.5,513.0,157.5,513.5,160.0,502.0,156.0,505.5,158.5,510.5" stroke="yellow" stroke-width="1" fill="none" />
<polyline points="146.5,498.5,143.5,493.0,139.5,483.5,136.0,482.5,140.5,481.0,147.0,492.0,145.0,487.0,137.5,478.5,135.5,483.0" stroke="yellow" stroke-width="1" fill="none" />
<polyline points="144.0,492.5,148.0,497.5,151.0,507.0,149.5,499.5,149.5,503.5,147.0,508.0,150.5,508.5,145.0,507.0,144.0,511.5,145.5,509.0" stroke="black" stroke-width="1" fill="none" />
<polyline points="" stroke="black" stroke-width="1" fill="none" />
<polyline points="150.5,517.5,147.0,520.0,148.0,510.0" stroke="orange" stroke-width="1" fill="none" />
<polyline points="126.5,506.5,134.5,512.0,137.5,500.0,128.0,495.0" stroke="black" stroke-width="1" fill="none" />
<polyline points="139.0,499.5,133.5,500.0,137.5,494.5,137.5,490.0,138.5,488.0" stroke="green" stroke-width="1" fill="none" />
<polyline points="" stroke="orange" stroke-width="1" fill="none" />
<polyline points="" stroke="green" stroke-width="1" fill="none" />
<polyline points="120.0,510.0,114.5,509.0,122.5,508.5,118.0,484.0,126.0,495.0,124.5,485.0,122.0,490.0,122.5,487.0,120.5,488.5" stroke="black" stroke-width="1" fill="none" />
<polyline points="129.0,502.5,125.0,503.5,130.0,498.5,121.5,498.0" stroke="orange" stroke-width="1" fill="none" />
<polyline points="139.5,520.5,129.5,516.5,131.5,500.5" stroke="yellow" stroke-width="1" fill="none" />
<polyline points="142.5,475.0" stroke="orange" stroke-width="1" fill="none" />
<polyline points="126.5,483.5,139.5,494.0,132.5,488.5,137.0,508.0,132.0,501.0,141.0,505.0,146.5,509.5,137.0,506.5,139.0,504.0,139.0,503.0" stroke="yellow" stroke-width="1" fill="none" />
<polyline points="" stroke="orange" stroke-width="1" fill="none" />
<polyline points="" stroke="yellow" stroke-width="1" fill="none" />
<polyline points="" stroke="green" stroke-width="1" fill="none" />
<polyline points="" stroke="orange" stroke-width="1" fill="none" />
<polyline points="172.0,470.5,169.5,464.5,169.5,477.5,164.5,477.5,156.0,477.0,173.0,499.0,172.5,482.5,175.5,484.0,175.0,481.5" stroke="green" stroke-width="1" fill="none" />
<polyline points="191.5,484.5,191.5,488.0,211.5,486.0,198.0,495.0,202.0,485.5,207.0,486.5,215.0,478.5,218.5,477.0,220.0,479.5,226.5,478.5,228.0,476.0,228.5,474.5" stroke="yellow" stroke-width="1" fill="none" />
<polyline points="230.0,453.5,227.5,454.5" stroke="yellow" stroke-width="1" fill="none" />
<polyline points="220.5,475.0,220.0,479.0,214.5,477.0,213.0,476.5,226.0,469.0,219.0,452.5,232.0,454.0,228.5,455.5,229.5,445.5,238.0,442.0,230.0,440.0,234.0,436.5,245.0,435.0,231.5,430.5,243.0,423.5,230.5,415.5,224.5,417.0,233.0,410.5,235.5,407.5,229.5,401.0,226.0,406.5" stroke="orange" stroke-width="1" fill="none" />
<polyline points="220.5,410.0,228.0,408.5,228.5,413.5,225.5,407.0" stroke="yellow" stroke-width="1" fill="none" />
<polyline points="221.0,410.0,225.5,420.5,231.0,426.0,219.5,424.0,225.0,415.0,226.0,414.5,221.5,415.5,231.0,413.0,228.5,409.0" stroke="yellow" stroke-width="1" fill="none" />
<polyline points="247.0,425.0,243.0,421.5,231.5,425.0,227.5,433.5,241.0,433.5,242.5,444.0,239.5,443.5,247.5,455.0,234.5,455.5,241.0,454.0,227.5,463.0,236.5,477.0,227.0,467.0,220.0,474.5,224.5,479.5,225.0,482.5,211.0,485.5,218.0,484.0,214.5,488.5" stroke="black" stroke-width="1" fill="none" />
<polyline points="194.5,490.0,211.5,492.0,199.5,496.5,205.0,490.0,223.5,486.5,215.5,495.0,219.0,486.0,228.0,481.5,239.0,475.0,240.0,478.5,248.0,481.5,245.0,478.0,243.5,475.0" stroke="yellow" stroke-width="1" fill="none" />
<polyline points="200.5,445.0,202.5,446.5,199.0,446.5,177.0,441.0,178.0,441.5" stroke="green" stroke-width="1" fill="none" />
<polyline points="186.0,457.5,192.5,450.0,182.0,451.0,186.5,449.5,196.0,442.0,185.0,427.0,175.5,427.0,184.0,431.0,185.0,424.5,181.0,426.5,181.5,424.5,184.0,411.5,174.0,414.5,184.0,410.5,162.0,406.0,165.5,401.0,162.5,389.0,165.5,395.0,158.5,389.0,167.5,385.0,171.0,383.5" stroke="orange" stroke-width="1" fill="none" />
<polyline points="157.0,370.0,155.5,372.0,177.5,371.0,173.0,349.5,185.0,349.0,189.5,331.0,190.5,341.0,195.5,325.0,199.5,330.0,202.0,319.0,191.0,330.5,192.5,328.5" stroke="yellow" stroke-width="1" fill="none" />
<polyline points="198.0,321.0,199.5,313.5,200.5,314.0" stroke="green" stroke-width="1" fill="none" />
<polyline points="182.0,316.0,179.5,323.0,191.5,320.0,194.0,307.5,196.0,301.5,201.0,293.0,204.0,287.5,204.0,283.0,214.0,274.5,226.5,262.0,226.5,258.5,230.0,248.0,239.5,249.0,233.5,243.5,248.0,234.0,236.5,222.0,251.0,224.5,251.5,219.0,263.5,223.0" stroke="orange" stroke-width="1" fill="none" />
<polyline points="264.0,229.5,263.5,229.0,273.0,226.5,273.0,239.5" stroke="yellow" stroke-width="1" fill="none" />
<polyline points="277.5,231.5,278.5,235.5,272.5,232.5,260.5,243.0,258.0,241.5,261.0,251.0" stroke="black" stroke-width="1" fill="none" />
<polyline points="261.0,236.0,264.5,235.0,266.5,229.5,265.5,236.5,267.5,225.5,272.0,230.0,265.5,229.5,256.5,233.0,258.0,231.5,266.0,238.0,245.0,243.5,248.0,239.5,234.5,253.5,248.5,261.5,225.0,268.5,223.5,275.5,215.0,284.0,220.0,283.0,224.5,290.5,232.0,273.5,228.0,271.0,231.0,266.0,228.0,269.5,236.5,263.0,231.0,260.0,242.0,249.5,228.0,248.0,252.5,243.0,248.5,238.0,257.0,245.0,252.5,226.5,266.0,223.5,262.5,222.5,261.0,219.0,257.0,217.0,262.5,217.5,275.0,220.0,268.0,205.0,278.5,203.5,270.5,199.5,281.0,201.0,262.5,193.0,273.0,188.0,262.5,192.0,268.5,198.0,262.5,209.0,273.0,205.0,262.5,205.5,262.5,215.5,267.0,198.0" stroke="green" stroke-width="1" fill="none" />
<polyline points="251.5,196.5,249.0,194.5,248.0,197.0" stroke="green" stroke-width="1" fill="none" />
<polyline points="255.5,218.5,252.0,217.0,254.5,226.0,238.0,234.0,238.5,228.0,226.5,239.0,223.0,232.5,220.0,239.0,223.0,232.5,228.5,232.0,224.0,225.0,228.0,214.0,217.0,223.0,211.5,219.0,220.5,224.0,230.0,211.5,220.0,212.0,221.0,206.5,218.0,203.0,223.0,205.0,219.0,205.5" stroke="orange" stroke-width="1" fill="none" />
<polyline points="" stroke="yellow" stroke-width="1" fill="none" />
<polyline points="" stroke="yellow" stroke-width="1" fill="none" />
<polyline points="" stroke="black" stroke-width="1" fill="none" />
<polyline points="251.5,208.5,253.0,197.5,261.5,186.0,264.0,186.0,255.5,178.5,248.5,197.5,243.5,193.5,254.0,190.5,268.5,189.5,262.0,189.0,257.0,188.0,268.0,181.0,266.0,176.5,272.5,183.5,273.0,189.0,274.0,177.5,277.5,178.5,280.5,177.5" stroke="green" stroke-width="1" fill="none" />
<polyline points="251.5,191.0,256.0,196.5,252.5,192.5,250.0,201.5,250.0,202.0,246.0,198.5,238.5,201.0,245.0,204.0,254.5,204.5,240.5,195.5,252.0,195.5,262.0,197.0,253.5,187.0,263.0,172.5,272.5,199.0,269.0,199.5,274.5,199.0,270.5,196.5" stroke="green" stroke-width="1" fill="none" />
<polyline points="262.5,208.0,264.5,208.0,265.5,208.0,261.5,208.5,257.0,205.0,267.0,192.5,263.0,191.0,268.0,184.5,272.5,185.0,279.0,192.0,272.0,192.5" stroke="orange" stroke-width="1" fill="none" />
<polyline points="262.5,190.5,253.0,193.5,254.5,199.0,246.0,214.5,249.0,212.5,249.5,211.0,252.0,209.5" stroke="yellow" stroke-width="1" fill="none" />
<polyline points="256.5,203.5,262.0,209.5,261.5,208.5,256.0,218.5,262.0,219.5,253.0,224.5,248.0,217.0,243.5,232.5,241.5,226.0,241.0,245.0" stroke="yellow" stroke-width="1" fill="none" />
<polyline points="" stroke="black" stroke-width="1" fill="none" />
<polyline points="" stroke="green" stroke-width="1" fill="none" />
<polyline points="216.5,225.5,215.5,227.0" stroke="orange" stroke-width="1" fill="none" />
<polyline points="216.0,232.5,219.0,235.5,224.0,232.5" stroke="green" stroke-width="1" fill="none" />
<polyline points="234.5,242.5,216.0,233.0,225.0,248.5" stroke="orange" stroke-width="1" fill="none" />
<polyline points="214.0,229.5,210.0,230.5,212.0,224.5,212.5,220.0,219.5,227.5,205.5,228.5" stroke="orange" stroke-width="1" fill="none" />
<polyline points="220.5,238.0,223.0,232.5,228.0,248.0,224.0,248.0,237.0,252.0,234.5,254.0" stroke="black" stroke-width="1" fill="none" />
<polyline points="223.0,268.0,221.0,271.5,212.0,273.0,207.0,291.0,196.0,288.5,198.0,289.0,193.5,302.0,187.5,313.5,190.0,318.5,179.0,335.0,180.0,325.5,171.0,327.5,174.0,331.0,163.0,337.5,152.5,332.5,155.0,336.5,156.5,341.5,139.0,351.0,139.0,351.5" stroke="orange" stroke-width="1" fill="none" />
<polyline points="140.0,344.5,147.5,338.0,147.0,340.5,154.5,343.0,143.0,332.5,157.0,326.0" stroke="yellow" stroke-width="1" fill="none" />
<polyline points="156.0,328.5,155.0,330.0,159.5,340.0,158.0,335.0" stroke="orange" stroke-width="1" fill="none" />
<polyline points="151.5,347.5,144.0,356.5,147.0,358.0" stroke="yellow" stroke-width="1" fill="none" />
<polyline points="131.5,351.0,134.5,333.5,143.5,340.5,130.0,338.0,138.5,326.5,129.5,323.0,136.0,320.0,136.5,318.0,126.5,316.5,134.5,320.0,126.5,314.0" stroke="green" stroke-width="1" fill="none" />
<polyline points="130.0,295.0,129.0,299.5" stroke="green" stroke-width="1" fill="none" />
<polyline points="135.0,310.5,135.5,307.5" stroke="black" stroke-width="1" fill="none" />
<polyline points="134.5,289.0" stroke="orange" stroke-width="1" fill="none" />
<polyline points="128.0,275.5,136.0,278.0,136.5,277.5" stroke="orange" stroke-width="1" fill="none" />
<polyline points="153.5,269.0,157.0,264.5,154.5,269.0,163.5,267.5" stroke="black" stroke-width="1" fill="none" />
<polyline points="149.5,270.5,155.0,274.5,153.5,271.0,154.5,275.0" stroke="black" stroke-width="1" fill="none" />
<polyline points="147.5,270.0,143.0,268.0,154.0,276.5,149.5,272.0,153.0,272.5" stroke="orange" stroke-width="1" fill="none" />
<polyline points="169.5,260.5,170.5,257.5,174.0,261.5,178.0,260.0,171.0,256.0,169.0,268.5" stroke="black" stroke-width="1" fill="none" />
<polyline points="179.5,250.0,180.0,254.0" stroke="yellow" stroke-width="1" fill="none" />
<polyline points="170.5,260.0,174.0,263.5,169.5,259.0" stroke="orange" stroke-width="1" fill="none" />
<polyline points="" stroke="green" stroke-width="1" fill="none" />
<polyline points="176.5,271.5,179.0,260.5,179.5,259.5,195.0,260.0,184.5,260.0,188.0,258.5,190.5,259.5,190.0,259.0,192.5,262.0,192.5,262.0" stroke="green" stroke-width="1" fill="none" />
<polyline points="" stroke="yellow" stroke-width="1" fill="none" />
<polyline points="" stroke="orange" stroke-width="1" fill="none" />
<polyline points="172.5,256.0,184.5,262.5,187.5,255.0,180.5,269.0" stroke="orange" stroke-width="1" fill="none" />
<polyline points="207.5,260.0,203.0,252.0,206.0,258.5" stroke="black" stroke-width="1" fill="none" />
<polyline points="209.5,251.5,212.5,253.0,217.0,249.0,206.5,240.0,209.0,237.0,209.0,238.5,208.5,242.0,202.0,241.5,207.5,241.5,210.0,240.0,200.5,235.0" stroke="black" stroke-width="1" fill="none" />
<polyline points="212.5,236.5,220.5,240.0,214.5,237.5,222.0,233.5,220.0,247.0,208.0,243.5,210.5,239.0" stroke="yellow" stroke-width="1" fill="none" />
<polyline points="" stroke="green" stroke-width="1" fill="none" />
<polyline points="" stroke="black" stroke-width="1" fill="none" />
<polyline points="217.0,257.5,216.0,257.0,206.5,251.0,214.5,243.5,211.5,247.0,206.0,241.5,212.0,233.0,204.5,240.0" stroke="yellow" stroke-width="1" fill="none" />
<polyline points="217.0,243.0,213.5,248.5,211.0,243.5,211.5,257.5,212.0,260.0,220.0,260.0,214.5,263.5" stroke="yellow" stroke-width="1" fill="none" />
<polyline points="" stroke="orange" stroke-width="1" fill="none" />
<polyline points="200.0,255.0,200.0,253.0,197.0,254.0" stroke="green" stroke-width="1" fill="none" />
<polyline points="" stroke="green" stroke-width="1" fill="none" />
<polyline points="188.0,271.0,182.0,268.0,186.0,264.5,170.0,266.0,171.5,258.5,194.5,243.0,184.0,243.5,179.5,241.0,189.5,233.5,197.5,244.0,180.5,243.0,179.0,243.5,184.0,239.5,184.0,244.0,180.5,243.0" stroke="black" stroke-width="1" fill="none" />
<polyline points="196.0,213.5,195.5,215.0,195.5,213.0,202.0,210.0,191.5,228.0,192.0,228.5" stroke="black" stroke-width="1" fill="none" />
<polyline points="189.0,227.5,184.5,216.0,189.5,227.0,185.5,235.0,189.5,235.0,195.5,229.0,195.0,235.0" stroke="black" stroke-width="1" fill="none" />
<polyline points="181.0,242.0,184.0,239.0,185.5,240.5,182.0,240.0,188.0,239.5,183.5,243.5" stroke="yellow" stroke-width="1" fill="none" />
<polyline points="192.5,241.5,191.0,238.0,206.0,240.5,198.0,238.0,201.5,244.5" stroke="yellow" stroke-width="1" fill="none" />
<polyline points="227.5,219.0,227.0,220.5,224.0,220.5" stroke="green" stroke-width="1" fill="none" />
<polyline points="" stroke="black" stroke-width="1" fill="none" />
<polyline points="213.5,221.5,220.5,216.5,223.5,225.0,212.5,239.5" stroke="green" stroke-width="1" fill="none" />
<polyline points="231.5,208.5,215.5,219.0,227.0,233.5,231.5,235.5,222.5,235.5,235.0,234.0,235.5,245.0,229.5,237.5,233.0,252.0,227.5,249.5,229.5,253.5,218.5,252.5,213.0,272.5,222.0,257.0,214.0,262.5,223.0,270.0,216.0,286.0,202.5,286.5,212.5,294.0,205.0,288.0,201.5,290.5,214.0,307.0,189.5,309.0,203.0,310.5,206.5,319.0,194.5,313.5,198.5,320.0,186.0,331.5,201.5,321.0,193.0,314.5,200.0,314.0,218.0,310.5,212.5,312.5,221.5,300.0,231.5,305.0,233.5,283.5,226.5,279.5,240.5,276.0,238.0,267.0,235.5,273.5,251.0,267.5,249.5,257.0,246.0,253.5,246.0,256.0,254.0,248.0,258.0,249.0,273.0,244.5,284.0,258.5,278.5,251.0,275.0,252.0,292.5,251.5,285.0,247.0,303.5,254.5,299.0,250.0,301.0,252.0,299.5,255.0,304.5,252.0" stroke="orange" stroke-width="1" fill="none" />
<polyline points="" stroke="green" stroke-width="1" fill="none" />
<polyline points="288.0,258.0,286.0,258.0,292.5,278.5,290.5,277.5,288.0,279.0,289.5,276.5,286.0,272.5,289.0,275.5" stroke="black" stroke-width="1" fill="none" />
<polyline points="" stroke="black" stroke-width="1" fill="none" />
<polyline points="" stroke="black" stroke-width="1" fill="none" />
<polyline points="280.5,272.5,278.0,270.0,279.0,275.0,280.5,273.0" stroke="orange" stroke-width="1" fill="none" />
<polyline points="281.0,259.0,274.5,265.5,273.0,268.0" stroke="green" stroke-width="1" fill="none" />
<polyline points="283.0,273.5,288.0,271.0" stroke="green" stroke-width="1" fill="none" />
<polyline points="261.5,271.5,267.5,267.0,269.5,267.5" stroke="black" stroke-width="1" fill="none" />
<polyline points="264.5,255.5,264.0,268.0,266.5,269.5,269.0,268.5,275.0,271.0,280.5,257.0,274.5,274.0,271.0,286.5,284.0,272.0,275.0,279.5,279.0,286.0,280.5,289.5,276.5,291.5,278.5,289.0,275.5,291.5" stroke="orange" stroke-width="1" fill="none" />
<polyline points="259.0,268.0,262.5,273.0,257.5,280.5,253.0,270.0,252.5,276.0,253.0,278.5,250.0,274.0,249.0,272.5,249.5,277.5" stroke="orange" stroke-width="1" fill="none" />
<polyline points="264.5,268.5,274.5,282.0,278.5,280.0" stroke="black" stroke-width="1" fill="none" />
<polyline points="" stroke="orange" stroke-width="1" fill="none" />
<polyline points="258.5,267.5,259.0,266.0,257.0,266.5,255.5,279.5,254.5,271.5,260.0,271.0,264.5,281.0,272.0,276.0,274.5,283.5,280.5,280.5,284.0,279.0" stroke="green" stroke-width="1" fill="none" />
<polyline points="286.0,265.5,285.0,253.5,281.5,258.5,291.0,251.0,282.0,253.5,273.0,257.0,280.5,250.5,280.0,248.0,274.5,249.0,275.5,255.0" stroke="orange" stroke-width="1" fill="none" />
<polyline points="277.0,245.0,274.5,252.5,275.0,248.0" stroke="green" stroke-width="1" fill="none" />
<polyline points="" stroke="orange" stroke-width="1" fill="none" />
<polyline points="269.5,264.0,265.5,251.5,282.5,257.0,269.5,259.0,264.0,247.5,257.5,245.0,264.5,252.0,260.0,256.5,257.5,257.5,264.5,255.0" stroke="yellow" stroke-width="1" fill="none" />
<polyline points="263.5,276.5,265.0,270.5,261.0,269.0,260.5,267.0" stroke="yellow" stroke-width="1" fill="none" />
<polyline points="273.0,271.5,281.5,272.0,283.0,267.0,289.5,278.0,291.0,273.5,283.0,271.5,280.0,278.5,287.0,277.5,293.0,262.5" stroke="green" stroke-width="1" fill="none" />
<polyline points="" stroke="orange" stroke-width="1" fill="none" />
<polyline points="251.5,257.5,248.0,266.0,241.5,263.0,233.5,274.0,237.0,272.5,229.0,278.0,228.0,293.0,240.0,282.0,232.0,287.5,217.0,294.0,210.5,303.0,215.0,302.5,210.5,305.0,216.5,323.0,198.5,309.0,201.0,310.0,209.0,320.0,194.0,323.5,191.5,336.0,194.0,338.0,183.0,336.0,187.0,350.0,181.0,345.5,175.5,343.5,171.5,357.0,175.0,356.0,166.0,360.5,169.5,366.0,166.0,368.5,156.5,385.5,160.0,381.0,151.5,390.0,164.0,386.0,166.5,394.5,169.0,397.0,173.0,407.5,177.0,405.0,173.5,401.5,177.5,398.0,168.5,397.5,176.5,397.0,171.0,404.0,169.5,404.0" stroke="yellow" stroke-width="1" fill="none" />
<polyline points="168.0,396.5,158.5,388.5,158.0,392.5" stroke="green" stroke-width="1" fill="none" />
<polyline points="" stroke="green" stroke-width="1" fill="none" />
<polyline points="137.0,373.0,140.5,370.5,143.0,368.0,144.5,361.5" stroke="black" stroke-width="1" fill="none" />
<polyline points="133.0,379.5" stroke="yellow" stroke-width="1" fill="none" />
<polyline points="135.5,408.5,130.0,414.0,124.5,417.5,131.0,413.5,143.0,421.5,141.0,426.0,141.5,433.5,135.5,433.0,135.0,443.5,135.5,444.5,144.0,444.5,144.0,455.0,135.5,455.5,133.5,464.0,137.0,460.0,137.5,473.0,135.0,471.0,138.5,472.0,150.0,471.0,143.5,478.5,146.5,469.0,149.0,470.5" stroke="black" stroke-width="1" fill="none" />
<polyline points="" stroke="green" stroke-width="1" fill="none" />
<polyline points="169.0,468.5,189.5,456.5,177.5,467.5,173.5,461.0,171.0,458.5,176.0,451.0,161.0,438.5,180.5,438.0,162.5,443.0,164.0,439.0" stroke="orange" stroke-width="1" fill="none" />
<polyline points="166.0,433.5,166.0,440.0,167.0,439.0" stroke="yellow" stroke-width="1" fill="none" />
<polyline points="168.0,406.5,159.0,406.5,150.5,407.5,162.0,398.0,161.5,401.5,159.5,394.5,159.5,399.0,151.5,390.5,151.0,385.0,145.5,369.0,151.0,367.5,142.0,364.0,140.5,360.0,149.0,361.0,150.0,356.5,144.0,359.5,155.0,358.0" stroke="black" stroke-width="1" fill="none" />
<polyline points="142.5,361.0,146.0,363.5,141.0,363.0,147.0,356.5,153.5,362.5,149.5,378.5,146.0,374.0,154.5,384.0,153.5,381.5,159.0,381.5,154.5,395.5,155.0,387.5,158.5,403.5,176.0,392.5" stroke="green" stroke-width="1" fill="none" />
<polyline points="171.0,433.0,171.0,436.0,163.0,449.0,174.5,450.5,186.5,452.5,177.5,448.0,173.5,466.0,179.0,468.5" stroke="yellow" stroke-width="1" fill="none" />
<polyline points="172.0,451.5,170.5,453.0,172.0,453.0" stroke="black" stroke-width="1" fill="none" />
<polyline points="167.5,454.0,164.5,441.0,158.5,445.0,175.5,453.5,168.0,460.0,179.5,454.0,169.5,464.0,170.5,472.0,163.5,472.0,162.5,481.0,178.0,472.0,157.0,480.0,164.5,492.0,165.0,491.5,158.5,503.5,154.5,496.5,162.0,510.5,173.5,495.5,180.0,512.0,173.0,513.5,183.0,510.0,168.5,517.0,168.5,510.5" stroke="black" stroke-width="1" fill="none" />
<polyline points="" stroke="yellow" stroke-width="1" fill="none" />
<polyline points="" stroke="green" stroke-width="1" fill="none" />
<polyline points="" stroke="orange" stroke-width="1" fill="none" />
<polyline points="159.5,457.5,150.5,449.0,148.5,448.5,142.5,446.0,143.5,434.0,161.5,435.5,144.5,435.5,145.5,428.5,140.0,421.0,132.5,408.0,133.5,409.5" stroke="orange" stroke-width="1" fill="none" />
<polyline points="152.0,395.0,144.0,393.0,152.5,385.5,149.5,401.0,147.0,398.0,143.0,402.5,143.0,405.5" stroke="orange" stroke-width="1" fill="none" />
<polyline points="136.0,400.0" stroke="yellow" stroke-width="1" fill="none" />
<polyline points="137.5,404.0,139.0,405.0,142.0,407.0,139.0,416.0,146.5,410.5,145.0,413.5,146.5,414.0" stroke="orange" stroke-width="1" fill="none" />
<polyline points="156.0,419.5,157.5,423.5,154.5,430.5,160.5,421.0,154.0,437.5" stroke="black" stroke-width="1" fill="none" />
<polyline points="165.0,439.0,171.0,447.0,175.5,449.0,179.5,446.5,182.5,435.0" stroke="green" stroke-width="1" fill="none" />
<polyline points="177.0,412.0,180.0,414.5,168.0,411.5,164.0,413.5,161.5,410.5,164.5,403.0,170.0,398.0,165.0,399.0" stroke="orange" stroke-width="1" fill="none" />
<polyline points="167.0,417.5,167.0,416.0,169.0,419.5,172.0,430.0,162.5,434.0,159.0,428.5,156.0,427.5,160.5,437.0,155.0,430.5,166.5,433.0,172.5,428.5,166.0,432.0,169.5,428.0,159.5,427.0" stroke="green" stroke-width="1" fill="none" />
<polyline points="" stroke="yellow" stroke-width="1" fill="none" />
<polyline points="152.5,458.5,158.5,455.5,161.5,452.5,158.5,455.0,165.0,461.0,163.5,469.5" stroke="orange" stroke-width="1" fill="none" />
<polyline points="163.5,459.5,170.0,450.5,167.0,463.0" stroke="black" stroke-width="1" fill="none" />
<polyline points="" stroke="yellow" stroke-width="1" fill="none" />
<polyline points="149.5,452.0,144.0,457.0,154.5,452.5,159.0,453.0,153.0,451.0,152.0,457.0,151.5,456.5" stroke="black" stroke-width="1" fill="none" />
<polyline points="148.0,441.5,145.5,444.0,147.0,448.5,146.0,442.5" stroke="orange" stroke-width="1" fill="none" />
<polyline points="142.5,462.5,153.5,464.0,150.0,466.0,145.0,467.0,157.5,472.0,149.0,477.0,154.5,482.5,154.5,481.5,154.0,475.5" stroke="orange" stroke-width="1" fill="none" />
<polyline points="146.5,477.0,147.5,467.0,155.0,471.0,151.5,470.5" stroke="yellow" stroke-width="1" fill="none" />
<polyline points="142.0,465.0,152.5,462.0,156.0,462.5,155.0,470.0,152.0,463.0" stroke="green" stroke-width="1" fill="none" />
<polyline points="" stroke="black" stroke-width="1" fill="none" />
<polyline points="137.5,449.5,138.5,456.5,131.5,453.0,147.0,461.5,139.0,452.5,150.5,473.5,141.0,471.0,150.5,471.0,158.0,477.0,152.0,479.0,157.0,477.0" stroke="orange" stroke-width="1" fill="none" />
<polyline points="156.5,472.0,162.0,476.5,160.0,468.5,162.5,470.5,151.5,468.5,146.5,468.0,153.0,457.5,144.0,452.5" stroke="yellow" stroke-width="1" fill="none" />
<polyline points="142.5,460.0,154.5,474.0,151.0,478.5,146.0,469.0,152.5,480.0,151.0,470.0,161.0,492.5,158.5,490.0,162.5,489.5,165.5,501.5,177.0,503.5,161.5,500.5,165.0,499.0,162.5,499.0" stroke="orange" stroke-width="1" fill="none" />
<polyline points="163.0,447.0,158.5,453.5,153.0,449.5,148.5,442.5,153.5,435.0,145.0,435.0,148.0,429.5,152.0,434.0,148.0,417.0,144.5,422.0,147.0,419.5" stroke="orange" stroke-width="1" fill="none" />
<polyline points="" stroke="yellow" stroke-width="1" fill="none" />
<polyline points="" stroke="yellow" stroke-width="1" fill="none" />
<polyline points="139.5,416.0,146.0,410.5,150.5,406.5,153.0,414.5,153.0,408.5,157.5,405.5" stroke="black" stroke-width="1" fill="none" />
<polyline points="142.5,401.5,141.0,419.5,145.5,424.5,151.0,434.0,141.5,439.0,150.0,438.0,158.0,438.0,156.0,433.0,145.5,442.0,149.0,442.5" stroke="black" stroke-width="1" fill="none" />
<polyline points="149.5,431.0,157.5,405.0,149.0,412.0,145.0,402.5,146.0,399.5,153.0,397.0,141.5,391.0,143.0,394.5" stroke="orange" stroke-width="1" fill="none" />
<polyline points="151.5,395.5,151.0,397.0,139.0,398.0" stroke="green" stroke-width="1" fill="none" />
<polyline points="" stroke="black" stroke-width="1" fill="none" />
<polyline points="148.0,404.0,145.5,406.5,143.0,402.0,139.0,399.5,120.5,401.5,126.5,399.5,124.5,405.0,123.0,400.5,124.0,400.5" stroke="green" stroke-width="1" fill="none" />
<polyline points="120.5,399.0,121.5,398.5,127.0,404.0,132.0,398.0,117.5,406.0,136.0,404.5,131.0,404.5,127.0,404.5,128.5,399.0,130.0,404.0,129.5,402.0" stroke="black" stroke-width="1" fill="none" />
<polyline points="134.0,391.0,141.5,396.0,142.0,388.5,131.5,394.0,139.0,378.0,130.5,377.5,142.0,373.5,144.5,379.5,147.5,368.5,152.0,366.5,145.0,359.0,137.0,343.5,144.0,345.5,148.5,346.0,141.0,347.5,135.5,349.5,131.0,339.5,138.5,339.0,143.5,339.5,133.0,328.0,124.0,314.5,138.0,311.5,123.0,319.5,124.0,300.0,121.0,307.5,129.0,290.0,133.5,295.0,132.0,285.0,138.0,294.5,125.0,281.0,131.5,274.0,129.0,269.0,126.0,267.0,123.5,266.0" stroke="orange" stroke-width="1" fill="none" />
<polyline points="128.5,275.5,126.0,277.5,127.5,286.0,124.5,287.5,115.0,302.5,132.5,292.5,114.5,303.5,133.0,293.0,123.0,303.5,112.0,315.5,109.5,332.5,116.0,314.5,112.0,318.5,122.0,325.0,111.5,332.5,112.0,332.5,115.5,334.5,116.0,339.0,121.0,334.5,119.0,337.0" stroke="yellow" stroke-width="1" fill="none" />
<polyline points="" stroke="orange" stroke-width="1" fill="none" />
<polyline points="117.5,344.5,119.5,354.5,133.0,362.5,116.0,373.0,114.5,356.0,115.5,368.0,121.0,368.5,112.5,377.0,121.5,392.0,114.5,391.0,121.0,383.5,120.5,396.0,125.0,400.5" stroke="black" stroke-width="1" fill="none" />
<polyline points="114.5,378.5,123.0,390.5,126.0,386.5,119.0,373.5,129.5,379.0,119.5,373.0,114.5,355.5,119.5,375.5,118.5,370.5,115.5,373.0" stroke="black" stroke-width="1" fill="none" />
<polyline points="126.5,377.5,130.0,380.0,130.5,382.0,128.5,383.0" stroke="yellow" stroke-width="1" fill="none" />
<polyline points="123.0,385.0,126.5,397.0,126.0,402.5" stroke="orange" stroke-width="1" fill="none" />
<polyline points="130.5,397.0,123.0,386.5,136.0,399.5,145.5,397.0,135.5,391.5,146.0,387.5,138.5,390.5,141.5,400.5,138.5,396.5,142.5,395.0,139.5,393.5" stroke="yellow" stroke-width="1" fill="none" />
<polyline points="" stroke="yellow" stroke-width="1" fill="none" />
<polyline points="120.5,397.5,120.0,398.0,119.5,395.0,119.0,398.0,113.0,403.5,115.0,402.5,113.0,399.5" stroke="yellow" stroke-width="1" fill="none" />
<polyline points="123.5,412.5,125.0,408.5,117.5,406.5,122.0,418.5,119.0,419.0,129.5,426.0,141.0,414.5" stroke="black" stroke-width="1" fill="none" />
<polyline points="" stroke="green" stroke-width="1" fill="none" />
<polyline points="" stroke="green" stroke-width="1" fill="none" />
<polyline points="" stroke="green" stroke-width="1" fill="none" />
<polyline points="" stroke="yellow" stroke-width="1" fill="none" />
<polyline points="" stroke="yellow" stroke-width="1" fill="none" />
<polyline points="158.0,385.5,157.0,386.0,155.0,392.5,148.5,381.0" stroke="green" stroke-width="1" fill="none" />
<polyline points="172.0,404.5,168.0,407.5,174.5,412.5,180.5,414.0,173.5,415.5,173.0,415.0,178.0,406.5,171.0,414.0" stroke="black" stroke-width="1" fill="none" />
<polyline points="150.5,407.0,164.5,404.5,165.0,393.0,141.0,389.0,145.5,397.0,141.0,392.5,146.0,393.0,141.0,390.0,138.0,387.5,144.5,385.0,150.0,380.5,134.0,381.0,140.5,380.5,133.5,373.0,142.5,369.0,132.5,367.5,143.0,350.0,145.5,347.5,145.0,361.5,135.5,347.5,127.5,339.5,124.5,335.0,125.5,338.0,143.0,326.0,142.0,330.0,139.5,320.0,138.5,320.5" stroke="green" stroke-width="1" fill="none" />
<polyline points="131.5,328.5,125.0,345.5" stroke="yellow" stroke-width="1" fill="none" />
<polyline points="123.5,351.0,125.0,354.0,114.0,351.5,119.0,364.5,115.5,368.0,118.5,376.0,120.0,382.0,120.5,382.5,122.0,381.5,137.5,387.5,131.0,383.5,128.5,392.5,131.0,401.5,132.5,401.5" stroke="orange" stroke-width="1" fill="none" />
<polyline points="" stroke="yellow" stroke-width="1" fill="none" />
<polyline points="" stroke="black" stroke-width="1" fill="none" />
<polyline points="" stroke="orange" stroke-width="1" fill="none" />
<polyline points="" stroke="orange" stroke-width="1" fill="none" />
<polyline points="129.5,357.5,130.0,354.5,133.0,351.5,121.0,355.0,134.0,369.5,140.0,366.5,127.5,373.0,127.5,371.0" stroke="black" stroke-width="1" fill="none" />
<polyline points="139.5,360.0,139.0,361.0,145.5,351.5,142.5,349.0,146.5,351.0,132.0,346.0" stroke="orange" stroke-width="1" fill="none" />
<polyline points="138.0,350.5,136.5,342.5" stroke="orange" stroke-width="1" fill="none" />
<polyline points="" stroke="orange" stroke-width="1" fill="none" />
<polyline points="139.0,351.5,135.5,342.0,146.0,348.5,140.5,336.5,143.5,334.5,148.5,336.0,144.0,334.0,149.0,335.0" stroke="black" stroke-width="1" fill="none" />
<polyline points="141.0,348.0,130.5,336.0,139.0,342.5,136.5,345.5,140.5,345.0,134.5,340.5" stroke="orange" stroke-width="1" fill="none" />
<polyline points="116.0,363.0,111.0,362.5,111.0,369.0,110.5,373.5,117.0,369.0,108.5,377.0,117.5,380.5,125.0,383.0,121.0,393.0,116.0,394.5,114.0,398.0,115.0,411.5,121.5,399.5,117.0,406.5,118.0,421.5,102.0,422.5,109.0,419.5,112.0,421.0,117.0,418.0,115.5,420.0" stroke="yellow" stroke-width="1" fill="none" />
<polyline points="114.0,413.5" stroke="green" stroke-width="1" fill="none" />
<polyline points="124.5,424.0,126.0,419.5,126.5,418.5,126.5,423.0" stroke="orange" stroke-width="1" fill="none" />
<polyline points="" stroke="green" stroke-width="1" fill="none" />
<polyline points="" stroke="green" stroke-width="1" fill="none" />
<polyline points="109.5,435.0,118.5,425.5,119.0,441.0,120.0,447.0,122.0,441.0,120.5,441.0" stroke="yellow" stroke-width="1" fill="none" />
<polyline points="" stroke="orange" stroke-width="1" fill="none" />
<polyline points="" stroke="black" stroke-width="1" fill="none" />
<polyline points="127.0,458.0,122.5,452.0,131.5,451.0,128.0,443.0,120.5,447.5,122.5,448.0" stroke="yellow" stroke-width="1" fill="none" />
<polyline points="" stroke="yellow" stroke-width="1" fill="none" />
<polyline points="" stroke="black" stroke-width="1" fill="none" />
<polyline points="98.0,448.5,88.5,453.0,95.5,453.5,96.5,453.5" stroke="green" stroke-width="1" fill="none" />
<polyline points="83.5,461.5,83.5,461.5,83.5,459.0,98.0,454.5,92.5,453.5,88.0,448.0" stroke="orange" stroke-width="1" fill="none" />
<polyline points="96.0,466.5,97.0,467.0" stroke="green" stroke-width="1" fill="none" />
<polyline points="96.5,497.5,101.5,501.5,103.0,499.5,99.5,508.0,110.0,513.0,102.0,515.0,107.0,514.0,97.0,512.0,101.0,516.5" stroke="yellow" stroke-width="1" fill="none" />
<polyline points="111.0,494.5,107.5,490.0,104.5,492.0" stroke="yellow" stroke-width="1" fill="none" />
<polyline points="114.0,483.0,110.0,499.0,115.5,495.5,120.5,504.0,124.5,516.5,116.5,515.5,117.5,512.0" stroke="yellow" stroke-width="1" fill="none" />
<polyline points="97.5,503.5,102.0,502.5,99.5,502.5,96.5,508.5" stroke="green" stroke-width="1" fill="none" />
<polyline points="96.0,494.0,98.5,500.5,99.5,519.5,103.0,518.5" stroke="yellow" stroke-width="1" fill="none" />
<polyline points="120.0,497.0,120.5,498.0,129.0,490.5,127.0,486.5,131.0,482.0" stroke="yellow" stroke-width="1" fill="none" />
<polyline points="126.0,490.5,126.5,494.0,134.0,508.0,129.0,506.5,128.0,503.5,128.5,513.0,131.0,508.5" stroke="orange" stroke-width="1" fill="none" />
<polyline points="153.0,443.5,149.5,419.5,145.0,424.5,141.0,415.5,124.5,418.0,127.0,418.5" stroke="green" stroke-width="1" fill="none" />
<polyline points="136.0,423.5,135.5,420.5,128.0,422.0,147.5,437.0,136.5,432.5,144.5,441.0,151.0,449.5,148.5,450.5,140.0,449.5,134.5,458.5,136.5,455.5,130.5,474.5,137.0,457.5,138.5,454.5,142.0,461.0,138.0,459.5" stroke="orange" stroke-width="1" fill="none" />
<polyline points="136.5,440.0,137.0,442.5,144.0,425.0,133.0,423.5,139.0,424.0,142.5,427.0,140.5,431.0,142.5,431.5" stroke="green" stroke-width="1" fill="none" />
<polyline points="123.5,435.0,123.5,422.0,128.5,418.5,126.5,415.5,129.0,417.5" stroke="yellow" stroke-width="1" fill="none" />
<polyline points="115.5,415.5,119.5,435.5,118.5,436.0" stroke="yellow" stroke-width="1" fill="none" />
<polyline points="" stroke="black" stroke-width="1" fill="none" />
<polyline points="101.5,409.0,111.0,419.0,104.0,433.5,106.0,438.5" stroke="orange" stroke-width="1" fill="none" />
<polyline points="93.5,436.0,90.0,438.0,87.5,444.5,94.5,444.5,103.5,442.5,95.0,442.5,101.5,425.0,102.5,427.0" stroke="green" stroke-width="1" fill="none" />
<polyline points="90.5,430.0,99.0,432.0,93.0,421.0,98.5,429.0,88.5,424.5" stroke="green" stroke-width="1" fill="none" />
<polyline points="85.5,422.0,96.5,418.0,78.5,428.5,86.5,417.5,86.0,412.5,90.0,421.0" stroke="black" stroke-width="1" fill="none" />
<polyline points="" stroke="orange" stroke-width="1" fill="none" />
<polyline points="" stroke="yellow" stroke-width="1" fill="none" />
<polyline points="99.0,386.5,99.0,386.0,87.5,402.5,104.5,398.5,98.0,404.0" stroke="yellow" stroke-width="1" fill="none" />
<polyline points="98.5,408.0,88.5,401.0,92.0,395.0,98.0,407.5,88.0,397.0,85.5,405.0,98.5,393.5,84.0,388.0,95.5,383.5,81.0,387.0,90.0,388.5,85.0,386.0" stroke="yellow" stroke-width="1" fill="none" />
<polyline points="67.0,403.0,74.5,400.0,75.5,404.0,69.0,417.0,71.5,422.0,68.0,415.0,68.0,419.0,65.0,425.5,66.0,424.0,76.0,431.0,74.5,435.0,70.5,431.0,68.5,440.5,61.5,438.5,70.5,443.0,72.0,449.0,68.0,455.0,71.0,457.0,73.0,464.0,82.5,459.5,67.5,473.0,57.5,476.5,70.0,484.0,65.5,483.5,62.5,489.0,72.0,492.5,65.5,500.5,69.5,501.0,61.5,499.0,66.5,502.0,65.0,512.5,57.0,510.0,69.5,503.0,72.5,500.0,70.5,495.5" stroke="yellow" stroke-width="1" fill="none" />
<polyline points="62.0,505.5" stroke="orange" stroke-width="1" fill="none" />
<polyline points="71.5,486.0,73.5,489.5" stroke="green" stroke-width="1" fill="none" />
<polyline points="65.0,478.5,55.5,474.5,65.0,481.5,68.5,483.0,61.0,482.0,65.0,489.0,69.5,496.5,69.0,495.5,71.0,490.5,71.5,492.0" stroke="yellow" stroke-width="1" fill="none" />
<polyline points="77.5,458.5,82.5,455.0,87.0,445.0,83.0,444.0,81.0,441.5" stroke="orange" stroke-width="1" fill="none" />
<polyline points="" stroke="orange" stroke-width="1" fill="none" />
<polyline points="80.5,455.0,76.0,449.5" stroke="green" stroke-width="1" fill="none" />
<polyline points="66.5,471.5,67.5,464.0,60.5,467.0,61.0,461.5,68.0,469.5,69.0,476.0,73.5,484.5" stroke="yellow" stroke-width="1" fill="none" />
<polyline points="" stroke="orange" stroke-width="1" fill="none" />
<polyline points="14.0,498.5,17.0,495.0,16.0,507.0,18.5,511.5,17.0,510.5" stroke="yellow" stroke-width="1" fill="none" />
<polyline points="24.5,500.0,23.0,499.5" stroke="black" stroke-width="1" fill="none" />
<polyline points="" stroke="green" stroke-width="1" fill="none" />
<polyline points="13.0,414.5,8.5,420.0,8.0,421.0,3.5,427.5,11.5,432.0,10.0,443.5,14.0,443.5,12.5,441.5,11.5,440.5,11.5,445.5,19.5,452.5,17.0,455.0,13.0,464.5,8.5,459.5,20.5,472.0,22.0,471.0,18.5,475.5" stroke="black" stroke-width="1" fill="none" />
<polyline points="20.5,461.5,33.0,454.5,28.5,454.5,28.0,456.0,27.5,444.5,29.0,443.5,27.5,441.0" stroke="orange" stroke-width="1" fill="none" />
<polyline points="26.0,415.5" stroke="yellow" stroke-width="1" fill="none" />
<polyline points="24.0,410.0,19.0,421.0,12.5,418.5,17.5,422.5,17.0,426.0,20.5,443.5,33.0,442.5,8.5,441.0,28.0,447.5,26.5,451.5,29.0,451.5,17.5,455.5,28.5,457.5,28.5,462.5,21.0,472.5,27.0,472.5,34.5,478.5,25.0,473.0,29.0,484.0,29.0,496.5,22.0,496.0,34.0,498.5,32.0,502.5" stroke="green" stroke-width="1" fill="none" />
<polyline points="65.0,436.0" stroke="black" stroke-width="1" fill="none" />
<polyline points="72.5,423.5,77.5,430.0,67.0,429.5,68.0,414.5,67.5,411.0,67.5,416.5,65.5,408.0,70.5,407.5,77.0,405.0,77.0,401.5,83.5,392.5,63.5,404.5" stroke="green" stroke-width="1" fill="none" />
<polyline points="" stroke="yellow" stroke-width="1" fill="none" />
<polyline points="" stroke="green" stroke-width="1" fill="none" />
<polyline points="62.5,423.5" stroke="green" stroke-width="1" fill="none" />
<polyline points="65.5,433.5,77.5,420.5,78.0,422.0,75.0,431.0" stroke="orange" stroke-width="1" fill="none" />
<polyline points="99.0,444.5,102.0,439.5,101.0,433.5,99.5,440.5,104.5,438.0,97.5,443.0" stroke="black" stroke-width="1" fill="none" />
<polyline points="" stroke="black" stroke-width="1" fill="none" />
<polyline points="93.0,419.0,89.5,420.5" stroke="black" stroke-width="1" fill="none" />
<polyline points="109.5,403.0,100.0,398.5,98.5,393.0,100.0,393.5,93.5,399.0" stroke="yellow" stroke-width="1" fill="none" />
<polyline points="99.0,364.5,99.5,377.5,106.5,378.0,98.5,364.5,111.0,358.0,102.5,361.0,108.0,357.0,108.5,355.5,108.5,362.0,111.0,352.5,110.5,340.0,107.5,334.5,108.0,336.5" stroke="orange" stroke-width="1" fill="none" />
<polyline points="98.5,335.0,102.0,333.5,105.5,334.5,104.0,335.0,101.0,342.5,104.5,336.0" stroke="black" stroke-width="1" fill="none" />
<polyline points="" stroke="black" stroke-width="1" fill="none" />
<polyline points="103.5,323.5,110.0,309.0,119.0,318.5,123.0,305.0,130.5,304.5,124.5,312.0,116.0,314.0,114.0,325.0,108.0,305.5,103.0,308.0,117.0,310.5,110.0,322.5,102.0,319.5,99.5,312.5,109.5,321.0,110.0,310.5,124.0,306.0,114.0,299.5,119.5,300.5,120.0,293.5,124.5,297.5,123.0,301.5,123.0,298.5" stroke="black" stroke-width="1" fill="none" />
<polyline points="111.0,302.5,128.5,312.0,118.0,313.5,114.0,312.5,111.0,322.0,122.0,322.5,109.5,328.0,97.0,324.5,93.0,339.0,91.0,337.0,101.0,346.0,89.5,335.0,90.5,333.0,91.5,330.5" stroke="yellow" stroke-width="1" fill="none" />
<polyline points="" stroke="yellow" stroke-width="1" fill="none" />
<polyline points="100.5,370.0,86.5,377.5,91.5,373.0,98.5,383.5,90.0,396.0,86.0,398.0,95.5,393.0,86.5,383.0,86.0,405.0,92.0,407.0,93.5,403.0,93.0,413.5,92.0,412.0,106.5,404.5,108.5,423.0,101.5,408.0,110.5,400.0,110.5,401.0" stroke="orange" stroke-width="1" fill="none" />
<polyline points="123.5,350.0,131.5,348.0,132.0,352.5" stroke="orange" stroke-width="1" fill="none" />
<polyline points="113.5,374.5,127.5,393.0,127.0,389.5,131.0,394.5,124.5,384.5,130.5,402.0,129.5,407.5,132.0,400.5,135.0,399.5,131.0,398.5" stroke="orange" stroke-width="1" fill="none" />
<polyline points="120.5,363.5,122.0,357.0,118.5,352.5,117.0,357.5" stroke="black" stroke-width="1" fill="none" />
<polyline points="127.5,374.5,118.5,374.0,125.0,377.0,131.5,381.0,132.0,384.5" stroke="orange" stroke-width="1" fill="none" />
<polyline points="" stroke="black" stroke-width="1" fill="none" />
<polyline points="134.5,360.5,130.0,359.0,132.0,371.0,138.5,367.0,139.0,352.5" stroke="orange" stroke-width="1" fill="none" />
<polyline points="179.5,368.5,178.5,352.5,175.0,361.5,177.0,343.0,185.5,344.0" stroke="green" stroke-width="1" fill="none" />
<polyline points="174.5,338.0,159.5,342.0,166.5,352.5,158.0,361.0,161.5,369.0,162.0,367.0,163.0,368.0,160.0,354.5,174.0,355.0,176.5,350.5,174.0,343.0,179.0,330.5,184.5,333.5,187.0,331.5,185.5,340.5,189.5,320.0,192.0,324.5,187.5,323.5,194.0,327.5" stroke="yellow" stroke-width="1" fill="none" />
<polyline points="" stroke="yellow" stroke-width="1" fill="none" />
<polyline points="197.5,362.0,193.5,350.0,191.5,350.5,187.5,347.5,188.0,345.5,192.5,342.5" stroke="green" stroke-width="1" fill="none" />
<polyline points="167.0,365.5,169.5,360.0,174.0,357.0" stroke="yellow" stroke-width="1" fill="none" />
<polyline points="161.0,367.5,167.0,370.0,160.5,358.0,166.5,358.5,159.0,369.5,157.0,365.5,158.5,364.5,166.0,354.5,173.0,355.0,174.5,347.5,178.0,343.5,179.5,338.5,182.5,337.5,185.5,332.0,175.0,329.0,155.0,325.0,167.5,338.0,154.5,338.5,164.0,341.0,160.0,335.0,170.0,330.5,159.0,329.5,170.5,328.5" stroke="orange" stroke-width="1" fill="none" />
<polyline points="173.0,328.0,171.0,345.5,168.5,337.0" stroke="green" stroke-width="1" fill="none" />
<polyline points="" stroke="green" stroke-width="1" fill="none" />
<polyline points="167.5,319.5,163.5,322.5,160.0,323.0,145.0,339.0,152.5,346.5,159.5,336.0,145.5,351.5,141.5,334.0,139.5,334.5,133.5,337.5,133.5,333.5,138.5,327.0,131.0,321.5,131.5,312.0,126.5,304.0,132.5,317.0,128.0,306.0,139.0,298.0,130.0,298.5,132.5,298.5,136.5,287.5,141.5,296.0,137.0,281.5,135.5,270.5,137.5,283.5,128.0,283.0,141.0,286.0,136.0,277.5,145.0,282.5,142.0,271.5,137.5,280.5,151.5,268.5,155.5,249.5,154.5,249.5,167.0,246.0,163.5,246.0,164.0,245.0,158.0,242.0,147.5,247.5" stroke="black" stroke-width="1" fill="none" />
<polyline points="144.0,253.0,146.5,255.0" stroke="black" stroke-width="1" fill="none" />
<polyline points="141.0,246.5,144.0,234.5,149.5,245.5,146.5,247.0,157.5,248.5,154.5,256.0,151.0,258.5" stroke="green" stroke-width="1" fill="none" />
<polyline points="148.5,264.5,142.5,270.5,134.5,276.5,135.0,272.0,136.0,277.0" stroke="black" stroke-width="1" fill="none" />
<polyline points="151.5,255.5,157.5,260.0,160.5,256.0,154.5,263.0,154.0,265.0,153.0,266.5,150.5,271.5,151.0,276.0,143.5,273.0,148.0,293.0,151.5,280.5,153.5,282.5,160.0,277.0,163.0,279.0,163.5,294.0,160.0,299.0,155.0,298.0,166.5,308.0,166.0,318.0,163.5,316.5,157.0,315.0,162.0,314.5,169.0,316.5,173.0,309.0,170.0,298.5,175.0,299.0,170.5,295.0,185.0,284.5,186.5,287.0,182.0,295.0,183.0,288.5" stroke="orange" stroke-width="1" fill="none" />
<polyline points="" stroke="yellow" stroke-width="1" fill="none" />
<polyline points="" stroke="yellow" stroke-width="1" fill="none" />
<polyline points="175.0,295.5,177.0,295.0,173.5,311.0,173.5,304.5,181.5,304.0,177.0,306.5,179.5,305.0,179.0,306.5" stroke="green" stroke-width="1" fill="none" />
<polyline points="" stroke="orange" stroke-width="1" fill="none" />
<polyline points="174.5,312.0,167.0,299.5,173.0,297.5,183.0,300.5,172.0,286.0,167.0,289.5,171.5,293.5,159.0,296.5,163.0,286.0,161.5,288.5,178.0,283.5,178.0,282.0,178.0,287.0,159.5,284.0,169.0,284.0,164.0,292.5,166.0,284.5,171.0,297.0,164.5,274.5,168.5,280.5,165.0,272.5,164.5,270.5,166.5,264.0,172.0,266.0,172.5,262.0,167.5,265.0,170.0,258.0,171.0,249.5,181.0,248.0,172.0,236.5,176.0,236.5,180.0,232.0,181.5,243.0,175.0,245.0,177.5,245.0,177.5,239.5" stroke="green" stroke-width="1" fill="none" />
<polyline points="183.5,235.5,181.0,242.0,177.5,240.5,184.0,247.0,176.0,251.0,174.5,248.5,186.0,256.0,187.5,255.5,185.5,257.0" stroke="green" stroke-width="1" fill="none" />
<polyline points="187.5,255.0,190.5,255.5,179.0,252.0,182.0,248.0,185.5,245.0,185.5,245.5,186.0,249.0,188.5,251.0" stroke="yellow" stroke-width="1" fill="none" />
<polyline points="228.0,272.0,220.5,269.0,224.0,274.5,238.5,267.0,232.0,270.0,224.5,267.5,225.5,270.5" stroke="green" stroke-width="1" fill="none" />
<polyline points="208.5,319.0,212.5,322.0,220.5,324.0,210.0,327.5,220.0,332.0,213.0,332.0,220.0,336.5" stroke="black" stroke-width="1" fill="none" />
<polyline points="253.5,386.5,256.5,385.5,250.5,387.0,252.0,374.5,256.0,396.5,260.0,378.5" stroke="black" stroke-width="1" fill="none" />
<polyline points="264.5,384.5,265.0,381.0,256.5,374.0,248.5,393.0,252.5,398.5,255.5,395.0,248.0,390.5,246.0,396.0,246.5,390.0" stroke="yellow" stroke-width="1" fill="none" />
<polyline points="278.5,348.5" stroke="black" stroke-width="1" fill="none" />
<polyline points="271.0,356.5,285.5,350.0,280.0,347.0" stroke="yellow" stroke-width="1" fill="none" />
<polyline points="220.0,353.0,216.0,349.5,221.5,351.0,219.5,338.5,221.0,338.0,219.5,330.5,225.0,330.0,227.5,326.5,227.0,313.5,224.0,310.0,224.0,313.5,216.0,302.0,223.5,305.0,224.5,306.0" stroke="orange" stroke-width="1" fill="none" />
<polyline points="176.0,288.5,170.5,287.0,174.5,291.0,173.5,291.5" stroke="black" stroke-width="1" fill="none" />
<polyline points="175.5,300.0,173.0,302.0,180.5,312.0,172.0,310.5,175.0,305.5,177.5,305.0" stroke="black" stroke-width="1" fill="none" />
<polyline points="155.5,316.0,159.0,309.5,163.5,303.0,156.0,307.0,154.0,317.5,151.5,320.5,157.0,317.5,153.5,320.5" stroke="yellow" stroke-width="1" fill="none" />
<polyline points="" stroke="orange" stroke-width="1" fill="none" />
<polyline points="166.5,312.5,164.5,311.0,163.5,317.0,160.0,315.0,156.0,322.0,160.0,317.5,162.0,313.5,160.5,313.5" stroke="yellow" stroke-width="1" fill="none" />
<polyline points="" stroke="orange" stroke-width="1" fill="none" />
<polyline points="" stroke="yellow" stroke-width="1" fill="none" />
<polyline points="139.5,287.5" stroke="yellow" stroke-width="1" fill="none" />
<polyline points="151.5,281.5" stroke="yellow" stroke-width="1" fill="none" />
<polyline points="172.5,296.0,174.0,302.5" stroke="black" stroke-width="1" fill="none" />
<polyline points="176.0,299.0,179.0,303.5,173.0,308.5,164.0,308.5,166.0,304.5" stroke="orange" stroke-width="1" fill="none" />
<polyline points="160.5,294.5,155.5,296.0,158.0,290.0" stroke="yellow" stroke-width="1" fill="none" />
<polyline points="161.0,288.0,165.0,290.5,156.0,299.0,175.0,294.5,170.5,299.0,168.5,296.0" stroke="black" stroke-width="1" fill="none" />
<polyline points="169.5,279.0,170.5,277.5,170.5,300.5,168.5,294.0,168.5,300.5,166.5,310.0,170.0,311.5,169.0,308.5,160.5,318.0,161.5,314.5,166.0,315.5,162.0,331.0,162.0,327.0,149.5,329.5,154.5,333.5,156.5,341.5,149.0,340.5,146.5,353.0,154.0,355.5,149.0,359.5,142.0,346.0,146.5,346.0,148.5,345.0,153.0,351.0,170.5,349.5,163.5,344.5,162.0,338.5,161.0,340.5" stroke="yellow" stroke-width="1" fill="none" />
<polyline points="" stroke="orange" stroke-width="1" fill="none" />
<polyline points="157.5,279.0,161.0,274.5,175.0,270.0,163.5,262.5,155.0,265.5" stroke="green" stroke-width="1" fill="none" />
<polyline points="170.5,264.0,163.5,262.5,168.0,272.5,171.5,279.0,167.5,275.5,168.5,278.0" stroke="yellow" stroke-width="1" fill="none" />
<polyline points="" stroke="orange" stroke-width="1" fill="none" />
<polyline points="152.0,274.5,161.5,276.5,159.0,273.0,160.0,284.0,165.0,280.0,166.5,286.5,162.5,288.5,183.0,283.0,170.0,296.0,174.5,283.5,178.5,282.5,174.5,280.0,174.0,277.5" stroke="black" stroke-width="1" fill="none" />
<polyline points="166.0,288.0,163.0,292.0,170.5,284.5,157.5,285.5,168.0,288.5" stroke="yellow" stroke-width="1" fill="none" />
<polyline points="160.0,285.0,166.0,282.0,157.0,296.0,161.0,293.0,160.5,287.5,159.5,289.0,158.0,288.0,161.5,285.5,158.5,288.5,158.0,287.0" stroke="black" stroke-width="1" fill="none" />
<polyline points="148.0,301.5,150.5,290.0,159.5,289.0,153.0,275.5,157.5,277.5,151.5,270.5,155.0,257.0,155.0,262.5,163.0,266.5,161.0,244.0,168.5,250.5,164.0,252.0,165.0,249.5,163.0,242.5,160.0,235.5,168.0,252.5,157.0,254.0,155.5,249.5,146.5,249.5,140.0,253.5,154.5,250.5,140.0,268.5,132.0,252.0,138.0,261.5,122.5,255.0,131.5,271.5,125.5,269.5,136.0,261.5,136.5,249.5,137.0,246.0,126.0,249.5,132.0,242.0,144.0,243.0,136.5,235.5,139.0,237.0,142.0,225.0,133.0,228.5,135.0,219.0,138.5,231.5,137.0,227.5,139.0,217.0,116.0,210.5,130.0,202.5,124.5,197.5,127.0,198.0,111.5,193.5,124.5,192.0,123.0,175.5,119.5,189.5,117.5,181.0,120.0,170.5,114.0,162.0,116.5,151.5,119.0,164.0,112.5,146.0,115.0,140.5,115.5,139.5,118.5,140.0,126.5,141.5,121.0,131.5,123.5,134.5,127.0,124.5,132.5,128.5,135.0,116.5,135.0,122.5,134.5,105.0,137.5,116.0,128.0,91.5,143.5,100.5,140.0,107.5,141.0,101.0,140.0,94.0,132.5,107.0,141.0,109.0,134.5,102.0,141.5,110.5" stroke="black" stroke-width="1" fill="none" />
<polyline points="130.0,101.5,130.5,102.0,134.5,111.5,144.0,108.5,139.0,117.5,129.0,129.0,128.5,123.0,133.0,136.5,131.5,132.0,129.5,139.0,137.5,136.0,136.5,148.0,135.5,146.5,128.0,142.0,124.5,149.0,125.0,153.0,127.0,151.0,126.0,154.5,124.5,158.5" stroke="orange" stroke-width="1" fill="none" />
<polyline points="128.5,154.5,129.5,152.0,132.5,156.0,137.0,153.5,129.0,159.0,122.5,171.0,128.0,164.0,126.0,170.0,132.0,156.5,125.0,165.0,130.0,167.0,127.5,169.5,126.0,177.0,132.0,175.5,131.5,178.0" stroke="orange" stroke-width="1" fill="none" />
<polyline points="145.5,181.0,148.5,188.0,121.5,177.0,135.5,184.0,138.5,177.5,140.5,173.0,138.0,175.0,136.0,177.5,135.5,175.0" stroke="green" stroke-width="1" fill="none" />
<polyline points="128.0,173.5,136.0,175.5,131.0,180.0,139.0,173.5,127.5,172.0,136.5,169.0,133.0,173.5,137.5,169.5,140.5,169.0,140.5,162.5" stroke="green" stroke-width="1" fill="none" />
<polyline points="140.5,177.5,139.5,180.0,137.0,182.0" stroke="orange" stroke-width="1" fill="none" />
<polyline points="131.0,173.5,144.0,170.5,147.5,167.5" stroke="green" stroke-width="1" fill="none" />
<polyline points="138.5,178.5,140.0,171.0,144.0,175.5,146.0,191.0,132.5,178.5,147.0,206.0,144.5,197.0,141.0,196.0,151.0,191.0" stroke="orange" stroke-width="1" fill="none" />
<polyline points="" stroke="green" stroke-width="1" fill="none" />
<polyline points="152.5,197.0,148.0,186.0,146.5,195.5,151.5,190.0" stroke="yellow" stroke-width="1" fill="none" />
<polyline points="" stroke="green" stroke-width="1" fill="none" />
<polyline points="153.5,187.5,150.0,186.5,146.0,194.0,142.5,184.5,141.5,193.0,150.0,179.0,149.5,186.0,147.0,185.5" stroke="black" stroke-width="1" fill="none" />
<polyline points="154.5,191.0,156.5,183.0,147.0,197.5,148.0,194.0" stroke="yellow" stroke-width="1" fill="none" />
<polyline points="145.5,184.5,152.5,186.0,149.0,188.0" stroke="orange" stroke-width="1" fill="none" />
<polyline points="165.5,178.0,167.5,174.5,167.5,183.5,175.5,168.0,168.5,166.0,177.0,169.0,179.0,155.5,183.5,158.5,189.5,156.0,198.0,152.5,203.0,153.0,205.0,143.5,203.0,144.0" stroke="black" stroke-width="1" fill="none" />
<polyline points="210.5,153.0,204.5,152.5,209.0,150.5,211.0,153.0,210.5,152.0,214.0,153.0" stroke="orange" stroke-width="1" fill="none" />
<polyline points="218.0,156.0,227.0,151.5,225.0,153.5,224.0,152.5,215.0,153.0,209.5,152.5,218.0,155.0" stroke="yellow" stroke-width="1" fill="none" />
<polyline points="220.5,144.5,214.0,142.0" stroke="orange" stroke-width="1" fill="none" />
<polyline points="228.5,162.5,221.5,172.5,220.0,187.0,216.0,195.5,211.5,189.0,209.0,185.0,207.5,197.0,203.5,193.0,204.0,191.0,198.5,192.5" stroke="green" stroke-width="1" fill="none" />
<polyline points="215.0,186.5,220.5,186.5,217.0,183.0,210.5,187.5,222.5,181.0,217.5,171.5,225.5,180.5,234.5,175.0,238.5,171.0,243.5,173.5,243.5,173.0,247.5,179.0,236.0,180.5,239.5,182.5" stroke="green" stroke-width="1" fill="none" />
<polyline points="231.0,189.5,237.5,180.5,232.0,195.5,222.0,198.0,221.5,194.0,217.0,205.5,198.5,216.0,202.5,213.0,200.5,216.0,201.0,225.5,204.0,229.0,209.5,230.5,213.5,236.0,209.0,234.5,213.5,233.0,211.0,233.5" stroke="yellow" stroke-width="1" fill="none" />
<polyline points="212.5,201.5,202.5,202.5,209.0,205.5,220.5,189.5,217.5,186.0,218.5,193.0,229.5,193.5,228.5,181.5,229.5,181.0" stroke="yellow" stroke-width="1" fill="none" />
<polyline points="209.5,205.5,214.5,202.5,209.5,202.5,211.0,211.0,205.5,204.0,199.5,211.0,205.5,199.5,223.0,201.0,232.0,197.0,226.0,202.5,225.0,199.5,226.0,191.5,223.0,201.0,221.0,197.0" stroke="green" stroke-width="1" fill="none" />
<polyline points="223.5,192.0,220.5,199.0,227.5,197.5" stroke="green" stroke-width="1" fill="none" />
<polyline points="214.5,177.0,219.5,185.0,215.0,184.0" stroke="orange" stroke-width="1" fill="none" />
<polyline points="230.0,176.0,228.5,183.5,230.0,193.0,220.0,199.0" stroke="green" stroke-width="1" fill="none" />
<polyline points="" stroke="orange" stroke-width="1" fill="none" />
<polyline points="" stroke="black" stroke-width="1" fill="none" />
<polyline points="190.0,204.5,199.0,201.5,187.5,198.5,192.0,211.5,189.0,202.0,188.5,205.5" stroke="green" stroke-width="1" fill="none" />
<polyline points="186.5,192.5,183.5,199.5,187.5,196.5" stroke="green" stroke-width="1" fill="none" />
<polyline points="192.5,208.0,191.0,214.5,193.0,221.0,184.0,219.0,185.5,225.5,193.5,218.0,189.5,209.0" stroke="black" stroke-width="1" fill="none" />
<polyline points="" stroke="green" stroke-width="1" fill="none" />
<polyline points="189.5,214.5,177.5,215.0,188.5,215.0,182.5,208.0,188.0,207.0,187.0,208.5" stroke="orange" stroke-width="1" fill="none" />
<polyline points="" stroke="yellow" stroke-width="1" fill="none" />
<polyline points="165.0,214.5,167.0,216.0,160.5,225.0,164.0,226.5,167.5,229.5,168.0,223.0,171.5,221.0,173.5,224.5" stroke="orange" stroke-width="1" fill="none" />
<polyline points="186.5,213.5,178.0,227.5,166.0,220.0,153.0,227.0,182.0,239.0,174.5,238.0,170.5,234.0,171.5,232.5" stroke="orange" stroke-width="1" fill="none" />
<polyline points="176.5,244.5,159.0,245.5,169.0,243.5,161.0,246.0,160.5,246.5" stroke="green" stroke-width="1" fill="none" />
<polyline points="157.0,260.0,156.5,261.0,151.5,272.0,129.5,256.5,135.0,271.0,131.5,276.5,134.0,270.5,121.5,281.0,117.5,262.5,111.0,261.5,124.5,262.0,115.0,268.5" stroke="black" stroke-width="1" fill="none" />
<polyline points="114.5,265.5" stroke="orange" stroke-width="1" fill="none" />
<polyline points="115.0,273.0,119.0,276.5,111.5,284.0,119.0,286.0,107.0,299.5,109.0,304.5,95.5,306.0,91.5,307.5,92.5,308.5,84.0,311.0,79.0,324.5,84.0,319.0,92.5,335.0,84.5,331.5,93.0,341.0,80.0,340.0,83.5,342.0,91.5,348.0,80.0,353.0,77.5,356.0,77.0,350.5,66.0,356.0,76.5,358.5,63.0,358.5,76.5,351.0,73.0,346.0,90.5,333.0,89.0,332.5,90.0,329.5,89.5,331.0,90.0,331.5" stroke="yellow" stroke-width="1" fill="none" />
<polyline points="91.5,326.5,98.0,331.5,95.0,325.0,93.5,331.0,85.0,341.0,86.5,343.5,71.5,335.0,81.0,347.0,75.0,352.0,69.5,355.0,66.0,358.5,58.5,362.0,62.5,366.5,64.5,370.5,69.5,364.0,73.5,354.5,72.5,347.0,79.0,344.0,86.0,346.0,86.5,337.0,79.5,349.5,97.5,346.0,88.5,341.0,82.5,349.5,88.5,355.0,70.5,355.0,83.5,375.0,78.5,365.0,79.0,374.0,82.0,367.5,84.5,371.5,82.0,349.0,89.5,361.0,95.5,347.0,95.5,345.5" stroke="black" stroke-width="1" fill="none" />
<polyline points="102.5,344.5,93.0,354.0,109.0,357.0,104.0,372.0,101.5,365.5,91.0,379.0,104.0,377.0,105.5,375.0,103.0,374.5,106.0,373.5,103.0,374.5" stroke="yellow" stroke-width="1" fill="none" />
<polyline points="107.5,368.0,111.5,369.0,109.5,361.5,104.0,359.0,104.0,360.0,103.5,360.5,97.0,356.5,100.0,353.0,96.0,360.0,97.0,359.5" stroke="yellow" stroke-width="1" fill="none" />
<polyline points="107.0,362.0,106.5,362.5,107.0,367.5,111.5,362.0,111.5,363.0,112.0,369.0,113.0,365.0,110.0,363.0" stroke="black" stroke-width="1" fill="none" />
<polyline points="109.0,358.0,112.0,359.5" stroke="black" stroke-width="1" fill="none" />
<polyline points="118.5,349.0,126.5,357.0,123.0,363.0,136.0,357.5" stroke="yellow" stroke-width="1" fill="none" />
<polyline points="" stroke="black" stroke-width="1" fill="none" />
<polyline points="77.0,363.5,85.5,351.0,82.0,351.0,96.5,350.5,74.0,352.5,72.5,355.0,72.0,361.5,77.0,360.5,66.0,379.0,74.5,372.5,70.5,373.5,80.5,368.5,82.0,366.5,81.5,367.5" stroke="yellow" stroke-width="1" fill="none" />
<polyline points="86.0,382.5,82.0,385.0,72.5,378.5,68.5,392.5,69.0,394.0,59.0,389.0,60.5,391.0,52.5,401.0,58.0,404.0,63.5,395.0,74.5,390.5,79.5,386.5,79.0,382.0,78.0,383.5,65.0,384.0,60.5,392.0,71.0,394.5,64.0,389.0,54.5,403.5,66.5,403.0,72.0,398.0,75.0,382.0,80.5,386.0,85.0,380.0,85.5,371.0,93.5,371.5,89.5,370.5,78.0,361.5,94.0,349.5,96.5,360.5,90.0,349.5,94.0,350.0,99.0,359.0,94.5,340.0,100.5,352.0,95.5,345.5,88.0,364.5,91.5,345.0,95.0,339.5,102.5,342.5,100.5,324.0,86.5,327.5,97.0,324.5,100.0,309.5,99.0,317.0,94.5,310.5,99.5,311.5,106.0,307.0,106.5,295.5,107.5,312.0,95.0,315.0,102.0,321.5,98.0,318.5,95.0,313.5,96.0,310.5,99.5,308.0,97.0,309.0" stroke="orange" stroke-width="1" fill="none" />
<polyline points="85.5,311.5,90.5,314.5,91.5,316.5,82.5,306.5,97.0,302.0,99.0,306.5,118.5,287.0,102.5,292.5,108.0,292.0,114.0,288.5,118.0,284.5,116.5,286.0,118.0,279.5" stroke="black" stroke-width="1" fill="none" />
<polyline points="95.0,302.5,91.0,310.5,84.5,305.0,82.5,306.5,81.5,307.0" stroke="black" stroke-width="1" fill="none" />
<polyline points="85.0,293.0,93.5,301.5,82.5,296.5,80.5,297.0,96.5,293.5,93.0,298.0" stroke="orange" stroke-width="1" fill="none" />
<polyline points="88.0,293.0,87.5,288.5,82.5,295.0,96.5,290.0,100.5,295.5,90.5,285.5,105.5,289.5,107.5,283.0,104.0,283.5" stroke="black" stroke-width="1" fill="none" />
<polyline points="108.0,274.0,108.5,277.5,111.5,269.5,114.0,274.0,112.5,274.0" stroke="black" stroke-width="1" fill="none" />
<polyline points="107.5,268.0,113.5,267.5,105.0,271.0,109.5,267.5,105.0,282.0,102.5,279.5,90.0,286.0,78.5,289.5,92.0,290.0,88.0,285.0,105.5,276.0,91.5,279.0,122.0,291.0,108.0,286.0,125.0,289.5,118.5,290.5,123.5,291.0,130.0,287.0" stroke="orange" stroke-width="1" fill="none" />
<polyline points="111.0,285.5,108.5,285.5,98.0,290.0,96.5,286.5,100.0,291.5,85.0,292.5,91.0,297.5,94.0,291.5,100.0,295.5" stroke="yellow" stroke-width="1" fill="none" />
<polyline points="94.5,267.5,100.0,258.0,115.5,256.0,92.0,262.0,92.0,271.0,97.5,283.5,92.0,284.0,90.5,283.5,93.5,265.0,103.5,271.0,97.0,279.0,101.5,276.5,108.0,273.0,112.0,289.5,112.5,269.5,112.0,281.5,135.5,268.0,130.5,266.5,135.5,264.0,131.0,262.5,129.5,265.5,132.0,263.0" stroke="yellow" stroke-width="1" fill="none" />
<polyline points="136.0,263.5,136.5,263.5,122.5,272.0,119.5,275.5,105.5,290.5,94.0,287.0,97.5,306.0,99.5,296.0,85.5,314.0,77.0,310.5,93.5,307.0,79.5,313.0,75.0,320.5,78.0,320.5,79.5,314.5,77.5,307.5,76.0,311.5,73.5,312.0" stroke="black" stroke-width="1" fill="none" />
<polyline points="" stroke="black" stroke-width="1" fill="none" />
<polyline points="126.5,314.0,122.5,312.0,119.5,313.0,114.0,313.5,114.5,339.5,109.5,312.5,95.5,328.0" stroke="green" stroke-width="1" fill="none" />
<polyline points="68.5,322.0,69.0,324.5,72.5,328.0,62.5,321.0,75.0,329.5,71.5,320.0,70.5,314.0,76.0,314.5,74.5,306.0,78.0,304.5,73.0,314.5,72.0,317.5" stroke="orange" stroke-width="1" fill="none" />
<polyline points="" stroke="yellow" stroke-width="1" fill="none" />
<polyline points="76.0,311.5,76.0,316.0,82.0,306.0,93.0,310.0,97.5,297.5,98.0,298.5" stroke="green" stroke-width="1" fill="none" />
<polyline points="102.0,313.5,105.5,305.5,110.0,308.0,99.0,308.5,101.5,306.5" stroke="yellow" stroke-width="1" fill="none" />
<polyline points="110.5,288.0,102.5,286.0,103.0,289.5,101.5,286.0,103.0,284.5,98.0,285.5,106.0,287.5,111.0,292.0,108.5,286.0,111.0,288.5,107.0,289.0" stroke="orange" stroke-width="1" fill="none" />
<polyline points="107.5,291.0,98.5,292.5,109.0,287.5,110.0,286.5,107.0,286.0,105.5,293.5" stroke="black" stroke-width="1" fill="none" />
<polyline points="92.0,269.5" stroke="black" stroke-width="1" fill="none" />
<polyline points="110.5,297.0,121.5,292.5,113.0,284.5,111.0,306.0,103.0,306.5,102.0,307.0,101.5,322.0,100.0,311.5,100.5,332.5,104.5,338.0,98.0,329.5,102.5,344.5,99.0,340.0,98.5,340.5,103.5,342.5,109.5,326.5,114.5,330.0,123.0,317.0,124.5,304.0,113.5,300.5,127.5,293.0,133.0,298.0,128.5,312.0,133.0,310.0,130.0,310.5" stroke="orange" stroke-width="1" fill="none" />
<polyline points="129.5,328.5,128.5,326.0,130.0,314.5,129.5,320.0,129.0,334.0,139.5,334.0" stroke="orange" stroke-width="1" fill="none" />
<polyline points="120.5,314.5,128.0,314.0,126.5,326.0,129.5,334.5,106.0,331.5,115.0,342.0,107.5,347.0,97.0,340.0,99.5,346.0,91.0,343.0,92.5,352.0,102.5,351.5,90.0,362.5,108.5,361.5,102.5,376.0,98.5,369.5,93.5,380.0,97.0,392.5,95.5,392.0" stroke="orange" stroke-width="1" fill="none" />
<polyline points="75.0,403.0,79.0,403.5,73.5,415.0,63.5,409.0" stroke="yellow" stroke-width="1" fill="none" />
<polyline points="" stroke="orange" stroke-width="1" fill="none" />
<polyline points="128.0,298.5,127.5,301.5,116.0,308.0,112.5,313.0,101.0,323.0,112.0,306.0,102.5,302.5,115.5,304.5,119.0,298.5,123.0,293.0,125.0,292.0" stroke="black" stroke-width="1" fill="none" />
<polyline points="" stroke="green" stroke-width="1" fill="none" />
<polyline points="" stroke="black" stroke-width="1" fill="none" />
<polyline points="142.0,237.5,136.5,244.5,135.5,250.5,150.5,245.5,146.5,242.5" stroke="green" stroke-width="1" fill="none" />
<polyline points="142.5,235.5,134.0,243.0" stroke="green" stroke-width="1" fill="none" />
<polyline points="143.5,240.5,130.0,222.0,141.5,228.5,135.0,223.5,142.5,220.0,143.0,221.5" stroke="black" stroke-width="1" fill="none" />
<polyline points="148.5,210.0,148.5,212.0,146.0,214.5,144.5,208.0" stroke="yellow" stroke-width="1" fill="none" />
<polyline points="146.5,205.5,150.5,211.0,147.0,209.0,146.0,205.5" stroke="orange" stroke-width="1" fill="none" />
<polyline points="138.5,193.5,132.0,184.0,140.5,196.5,136.0,187.0,150.0,181.0,142.0,177.0,137.0,188.0,138.5,184.0" stroke="green" stroke-width="1" fill="none" />
<polyline points="" stroke="yellow" stroke-width="1" fill="none" />
<polyline points="154.5,176.5,150.5,186.5,144.5,185.5,138.0,190.5,133.5,188.5" stroke="yellow" stroke-width="1" fill="none" />
<polyline points="" stroke="green" stroke-width="1" fill="none" />
<polyline points="150.0,191.0,161.5,192.5,141.0,209.0,148.5,217.0,139.5,211.5,146.0,205.5,145.0,204.5" stroke="green" stroke-width="1" fill="none" />
<polyline points="" stroke="black" stroke-width="1" fill="none" />
<polyline points="118.0,222.5,116.5,233.5,109.0,231.5,119.0,229.0,117.0,231.5,113.0,229.5" stroke="black" stroke-width="1" fill="none" />
<polyline points="111.0,232.5,112.5,217.0,113.0,223.0,119.0,226.0" stroke="green" stroke-width="1" fill="none" />
<polyline points="116.0,249.0,121.0,252.5,122.0,257.5,104.5,264.0,116.0,257.5,116.0,257.5,127.0,254.5,125.5,252.5,128.0,240.0,138.0,239.5,142.5,236.0,148.0,231.0,159.5,229.5,154.5,226.0,161.5,226.5,155.5,229.0,154.5,232.5" stroke="green" stroke-width="1" fill="none" />
<polyline points="136.0,237.0,139.5,244.0,138.0,250.5,135.5,250.5,134.5,264.0,139.5,279.5,142.0,268.5,138.5,267.0,126.5,271.5,131.0,271.0,141.0,279.5,135.5,278.0,136.0,271.0,142.5,270.0" stroke="yellow" stroke-width="1" fill="none" />
<polyline points="150.5,261.5,152.5,255.0,162.0,254.5,154.5,246.0,158.0,247.0,164.5,252.0" stroke="orange" stroke-width="1" fill="none" />
<polyline points="170.0,226.5,165.5,239.5,173.5,220.0" stroke="yellow" stroke-width="1" fill="none" />
<polyline points="163.0,230.5" stroke="yellow" stroke-width="1" fill="none" />
<polyline points="168.5,227.5,163.5,229.0,162.5,233.0,158.5,241.0,162.0,252.0,158.5,246.5,140.0,250.5,158.5,249.0,161.0,254.0,151.5,263.0,149.0,267.5,124.0,266.5,134.5,275.5,127.5,280.5,125.5,281.5,130.5,288.5,133.0,294.0,123.0,302.5,128.5,304.5,121.5,321.0,126.0,310.5,116.5,323.0,112.0,327.0,125.0,334.0,120.0,336.0,117.5,341.0,121.0,333.0,115.0,329.5,123.0,344.0,137.0,347.0,139.0,350.0,132.0,360.5,138.0,356.5,135.0,357.0,141.0,372.5,139.0,368.5,147.5,367.5,137.0,376.0,145.0,376.0,137.5,393.5,143.0,389.0,150.5,405.0,148.5,387.0,146.0,394.0,143.0,396.0,153.0,405.5,140.5,405.0,152.5,409.5,149.5,410.0,161.5,409.5,165.0,416.0,165.0,420.0,165.5,419.0" stroke="orange" stroke-width="1" fill="none" />
<polyline points="161.0,409.0,160.5,407.5" stroke="orange" stroke-width="1" fill="none" />
<polyline points="" stroke="black" stroke-width="1" fill="none" />
<polyline points="" stroke="yellow" stroke-width="1" fill="none" />
<polyline points="198.0,426.0,196.0,432.0,192.0,429.0,193.5,432.0" stroke="green" stroke-width="1" fill="none" />
<polyline points="205.0,398.5,201.0,390.5,198.0,406.5,194.5,393.5" stroke="black" stroke-width="1" fill="none" />
<polyline points="185.5,393.5,192.5,403.0,190.0,401.0,192.0,406.5,184.5,422.5,181.5,412.0,194.0,416.5,190.5,427.5,188.5,433.0,197.0,433.0,181.0,427.5,184.5,436.0,182.5,440.5,192.0,446.0,191.0,439.5,198.5,456.0,201.0,451.0,201.5,453.0" stroke="black" stroke-width="1" fill="none" />
<polyline points="374.0,362.0,370.5,347.5,373.5,352.0,380.0,348.0,381.0,343.0,387.5,334.0,376.5,325.5,381.0,322.0,378.0,314.5,378.5,315.0,362.0,318.5,373.5,314.0,382.5,316.0,383.5,311.0" stroke="green" stroke-width="1" fill="none" />
<polyline points="373.5,282.5,381.0,276.0,384.5,285.0,381.0,278.5,389.5,276.5,390.0,270.5,384.0,273.0,383.5,268.0,386.5,263.5,389.0,263.0,390.0,264.5,386.5,260.0" stroke="black" stroke-width="1" fill="none" />
<polyline points="364.0,280.5,370.0,277.0,361.0,277.5,366.5,283.5,363.5,284.5,364.5,289.0,362.5,296.0,372.0,296.0,364.5,304.0,361.5,302.5,353.5,308.5,363.0,309.5,358.0,308.0" stroke="green" stroke-width="1" fill="none" />
<polyline points="341.0,270.5,339.0,279.0,344.5,285.5,338.0,280.0,325.5,281.0,318.5,264.5,315.5,262.0,310.0,275.5,324.5,266.5,328.0,269.5,323.5,276.5,319.5,278.0" stroke="black" stroke-width="1" fill="none" />
<polyline points="318.0,269.5,325.5,266.0,320.5,267.5,326.5,268.0,337.0,275.0" stroke="yellow" stroke-width="1" fill="none" />
<polyline points="328.0,274.5,330.0,275.5,316.5,269.5,321.0,265.0,329.0,262.5,335.5,254.5,331.0,254.5,329.0,259.5,332.0,256.5" stroke="yellow" stroke-width="1" fill="none" />
<polyline points="366.5,271.5,363.5,277.5,356.0,272.5,355.5,276.5" stroke="green" stroke-width="1" fill="none" />
<polyline points="291.0,235.5,286.5,231.5,282.5,228.5,285.5,230.5" stroke="green" stroke-width="1" fill="none" />
<polyline points="272.5,222.0,270.5,220.5,270.5,197.5,281.5,200.5,269.0,206.0,288.0,202.0,286.0,191.5,285.0,193.0,292.0,185.5,299.0,193.0,304.0,190.0,308.0,185.5,309.0,174.0,308.5,183.5,309.0,185.0,311.5,183.5" stroke="green" stroke-width="1" fill="none" />
<polyline points="322.0,168.0,315.0,174.0,297.5,173.5,299.0,176.0,293.5,184.0,298.0,184.0,293.0,195.0,288.5,190.5,280.5,202.5,279.5,198.0,270.5,204.0,265.5,202.5,263.0,212.5,270.5,213.5,269.0,224.0,247.0,221.0,255.0,229.5,249.5,231.0,248.5,234.5,244.5,249.5,232.0,243.0,237.0,253.0,237.5,263.0,229.5,264.0,219.0,257.5,213.5,283.0,207.5,287.5,213.0,293.0,203.0,299.0,193.0,307.0,205.5,328.0,198.0,317.5,200.5,311.0,196.5,312.5,204.5,307.0,197.0,296.0,196.5,297.5,203.5,294.5,213.5,284.0,211.0,291.0,209.0,284.5,214.5,275.0,220.0,281.0,222.5,268.5,222.0,264.0,225.0,268.0,221.0,255.5,229.0,259.0,237.0,248.5,229.0,242.5,236.5,244.0,245.0,236.5,248.0,229.5,259.0,223.5,246.0,227.5,262.0,222.5,262.5,219.5,251.5,203.5,266.0,218.0,263.5,199.0,264.0,200.5,264.5,200.5" stroke="green" stroke-width="1" fill="none" />
<polyline points="264.5,208.5,261.0,209.0" stroke="green" stroke-width="1" fill="none" />
<polyline points="" stroke="green" stroke-width="1" fill="none" />
<polyline points="207.5,197.5,217.5,178.0,215.0,182.0,226.0,183.0,219.5,181.5,226.5,173.5,231.5,181.0,230.5,182.0,232.0,181.0" stroke="orange" stroke-width="1" fill="none" />
<polyline points="227.0,185.5,210.0,185.0,215.5,172.0,214.5,193.0,193.5,201.5,218.5,184.0,213.5,199.0,217.0,193.0,219.0,198.0,230.5,191.0,233.0,191.0,234.5,188.5,228.0,174.0,228.0,178.0" stroke="orange" stroke-width="1" fill="none" />
<polyline points="256.0,178.5,243.5,180.5,242.0,184.5,239.5,179.0,242.0,174.5,241.5,180.5,252.5,184.0,251.5,182.0" stroke="orange" stroke-width="1" fill="none" />
<polyline points="253.5,180.5,245.0,185.5,241.5,180.0,251.0,183.5,244.0,199.5,241.5,200.5,231.5,202.0,234.0,210.0,235.0,213.0,225.5,211.0,244.0,208.5,236.5,208.0,240.5,208.5,238.0,217.0,243.5,214.0,236.5,218.0,238.0,213.5" stroke="orange" stroke-width="1" fill="none" />
<polyline points="268.5,186.5,268.5,189.5,268.5,178.5,267.5,187.5,260.0,190.5,252.5,192.0,252.0,206.0,242.0,198.5,255.0,203.0,265.0,199.0,247.5,198.5,254.5,200.0,258.0,197.0" stroke="orange" stroke-width="1" fill="none" />
<polyline points="269.5,177.5,275.0,182.0,258.0,181.0,262.0,184.0,258.0,186.0,261.0,179.0,260.0,178.5" stroke="yellow" stroke-width="1" fill="none" />
<polyline points="252.0,182.5,243.0,194.0,243.5,197.5,250.5,204.5,246.5,190.5,249.5,195.5,242.0,193.5,250.0,182.5,258.0,189.0,259.0,180.0,258.0,184.0,270.0,186.0,262.0,182.0" stroke="green" stroke-width="1" fill="none" />
<polyline points="259.0,183.0,270.5,178.5,268.0,178.5,272.0,190.0,273.5,179.0,283.5,182.0,287.5,175.5,295.0,179.5,292.0,176.0,283.0,184.5,287.5,195.0,282.0,192.5,269.0,203.0,280.5,190.5,278.5,194.0,265.5,193.5,262.0,201.0,284.5,189.5,272.0,199.5,285.5,186.5,290.5,182.5,289.0,187.0,291.5,181.0,299.0,171.5,305.0,171.0,300.5,178.0,319.5,173.0,315.5,166.0,326.5,170.5,325.5,161.0,334.0,161.5,329.5,155.5,331.0,154.0,332.5,154.5,339.5,155.0,340.0,144.5,335.5,146.5" stroke="yellow" stroke-width="1" fill="none" />
<polyline points="304.5,183.5,301.5,175.5,299.0,187.0,292.5,193.5,290.5,187.5,283.5,202.0,274.5,191.0,264.5,212.5,265.5,216.0,275.0,206.0,264.5,215.0,265.5,215.0,271.0,214.0,260.5,224.0,270.5,228.5,262.5,233.0,272.0,240.5,272.5,239.0,260.5,240.5,269.5,243.0" stroke="yellow" stroke-width="1" fill="none" />
<polyline points="267.5,185.0,264.5,186.5" stroke="green" stroke-width="1" fill="none" />
<polyline points="267.0,167.5,264.5,166.5,268.0,164.0,256.5,161.0,263.0,165.0,247.5,168.0,244.5,162.0,255.0,165.5,251.5,162.5,248.5,164.5,249.0,156.5" stroke="orange" stroke-width="1" fill="none" />
<polyline points="" stroke="yellow" stroke-width="1" fill="none" />
<polyline points="256.0,176.5,257.5,172.0,259.5,176.5,256.5,175.0,263.5,181.5,258.5,183.5,261.0,184.0" stroke="yellow" stroke-width="1" fill="none" />
<polyline points="256.0,136.0,258.0,130.0,253.5,133.5,263.5,130.0,254.5,139.5,248.5,130.5,252.5,138.5,253.0,135.5,252.5,139.5" stroke="yellow" stroke-width="1" fill="none" />
<polyline points="" stroke="orange" stroke-width="1" fill="none" />
<polyline points="213.5,150.0,217.0,152.0,219.5,158.0" stroke="black" stroke-width="1" fill="none" />
<polyline points="220.0,137.0,227.0,133.0,216.0,138.0,223.0,136.0,219.5,145.0,215.5,146.5" stroke="orange" stroke-width="1" fill="none" />
<polyline points="204.0,148.5,208.0,141.0,220.5,150.5" stroke="yellow" stroke-width="1" fill="none" />
<polyline points="188.0,172.5,191.0,163.0,199.0,161.0,211.5,148.5,195.5,162.5,194.5,153.5,189.5,155.5,190.0,154.5,185.5,152.0" stroke="black" stroke-width="1" fill="none" />
<polyline points="199.0,165.5,201.0,162.5,201.0,160.0,194.5,174.5,196.0,177.5,187.0,172.5,185.0,179.5,179.5,179.5,168.0,187.0,175.5,193.5,168.5,192.5,169.5,203.5,158.0,204.5,167.0,196.0,174.5,195.5,180.5,196.0,178.5,177.5,193.5,184.0,185.5,172.0,198.0,168.0,201.5,173.0,202.0,155.5" stroke="black" stroke-width="1" fill="none" />
<polyline points="209.0,182.0,202.0,183.5,210.5,204.0,201.5,198.0,207.5,197.0,192.0,197.0,191.0,199.5" stroke="black" stroke-width="1" fill="none" />
<polyline points="" stroke="yellow" stroke-width="1" fill="none" />
<polyline points="205.5,132.5,218.5,128.5,219.0,135.5,218.5,127.5,222.5,127.5,223.5,122.5,230.5,123.5" stroke="green" stroke-width="1" fill="none" />
<polyline points="218.0,145.0,202.0,144.5,207.5,142.5,204.0,136.5,218.5,123.0,216.5,127.5,223.0,120.0,230.5,112.0,235.5,119.5,240.5,124.0,235.5,121.5,237.0,118.0" stroke="orange" stroke-width="1" fill="none" />
<polyline points="232.0,111.0,228.5,135.5,226.5,127.5,196.5,150.5,196.5,143.5,199.5,149.0,203.5,142.0,195.0,157.0,186.0,156.0,195.0,165.0,171.0,167.5,174.5,169.5,161.5,168.5,159.5,178.0,169.0,177.5,155.5,195.5,150.0,189.0,153.5,189.5,158.0,196.5,148.5,199.0,150.0,204.0,146.5,207.0,148.0,211.5,152.5,213.5,148.5,219.5,138.0,222.5,141.5,224.0,142.5,238.5,139.0,238.0,136.0,244.0,133.0,239.5,126.5,243.5,129.5,253.5,130.5,258.5,132.5,256.0,131.5,262.0,129.0,256.5" stroke="yellow" stroke-width="1" fill="none" />
<polyline points="" stroke="yellow" stroke-width="1" fill="none" />
<polyline points="" stroke="black" stroke-width="1" fill="none" />
<polyline points="158.5,136.5,155.0,127.5,161.0,125.0,157.5,117.0,157.0,121.0,163.5,118.0,154.0,125.5,162.5,128.0,156.5,128.5" stroke="green" stroke-width="1" fill="none" />
<polyline points="184.0,142.0,178.5,137.0,178.0,139.5,188.0,119.5,189.5,115.5,179.5,130.5,183.0,128.0,183.5,126.5,192.5,124.5" stroke="black" stroke-width="1" fill="none" />
<polyline points="185.5,127.0,190.5,127.0,161.0,121.0,168.0,124.0,172.0,126.0,189.5,122.0,187.5,123.5,189.0,120.0,184.0,114.0,196.0,122.0,196.0,116.5,197.0,119.5" stroke="green" stroke-width="1" fill="none" />
<polyline points="" stroke="green" stroke-width="1" fill="none" />
<polyline points="" stroke="orange" stroke-width="1" fill="none" />
<polyline points="203.0,108.5,198.5,110.5,207.5,105.5" stroke="yellow" stroke-width="1" fill="none" />
<polyline points="233.5,130.5,230.0,127.5,228.5,131.0,218.5,120.0,218.5,133.5,215.0,137.0,208.5,144.5,204.0,129.5,192.5,150.0,198.0,153.0,197.0,153.0,203.5,149.0,213.0,139.5,214.5,136.5" stroke="black" stroke-width="1" fill="none" />
<polyline points="255.5,130.5,250.5,153.5,260.0,140.5,236.0,156.5,240.5,154.0,238.0,142.5,234.5,147.5,229.5,144.5,221.5,162.5,230.0,152.5,237.5,150.0,240.0,139.0,247.5,139.0,254.0,132.5,263.0,129.0,260.0,130.5,269.5,122.0,271.5,113.0,268.0,116.0,264.0,114.0" stroke="green" stroke-width="1" fill="none" />
<polyline points="286.5,148.0,283.0,152.0,291.0,148.5,292.0,145.5" stroke="yellow" stroke-width="1" fill="none" />
<polyline points="298.0,142.0,295.5,139.0,301.0,138.0,304.5,145.0,301.5,142.0" stroke="yellow" stroke-width="1" fill="none" />
<polyline points="296.0,183.5,297.0,187.5,284.5,188.5,294.5,195.5,283.0,201.5,281.5,208.0,274.5,204.0,274.5,207.5,268.5,212.0,262.0,214.5" stroke="orange" stroke-width="1" fill="none" />
<polyline points="234.5,105.0,227.0,101.5,227.0,101.5,233.5,108.5,226.0,98.0,234.5,95.5,239.0,97.5,239.5,95.0" stroke="green" stroke-width="1" fill="none" />
<polyline points="" stroke="black" stroke-width="1" fill="none" />
<polyline points="247.5,94.0,248.0,92.5,245.5,94.5,243.0,88.0,240.0,94.0,240.5,91.5" stroke="black" stroke-width="1" fill="none" />
<polyline points="260.5,85.0,251.0,91.0,256.0,86.0,255.5,96.5,251.0,99.0,239.0,101.0,236.0,105.5,232.0,104.0,228.0,102.5,235.5,115.5,218.0,118.0,223.0,115.5,223.0,118.0,212.5,111.5,208.0,133.0,202.0,133.5,201.5,131.5,196.0,131.5,185.5,149.0,179.5,148.5,173.5,151.5,179.0,148.0,180.0,154.5,174.5,165.0,169.5,163.0,171.5,160.5,158.0,165.0,166.0,168.5,153.5,173.5,164.0,168.5,170.0,169.5,169.5,160.0,181.5,154.0,180.5,148.5,187.0,136.0,194.5,142.5,190.5,130.5,209.0,144.5,217.0,123.5,216.0,128.0,217.0,125.0,216.5,102.5,223.0,113.0,233.0,102.0,233.5,116.0,239.5,96.5,244.5,99.0,255.0,94.5,268.5,87.0,269.5,87.5,260.5,87.5" stroke="yellow" stroke-width="1" fill="none" />
<polyline points="235.5,82.0,232.0,91.0,237.0,89.0,246.5,92.0,234.5,83.0,244.0,81.0,242.0,85.5" stroke="green" stroke-width="1" fill="none" />
<polyline points="" stroke="black" stroke-width="1" fill="none" />
<polyline points="241.5,52.5,233.5,50.5,248.5,47.0,251.0,57.5,249.0,49.5,253.0,57.5,253.0,61.0,265.0,52.5,276.5,59.0,274.0,58.0,272.0,71.0,276.5,67.0,282.0,66.5,284.0,74.0,278.0,71.5,295.5,77.5,291.5,76.0,296.5,88.0,306.0,92.0,307.0,101.0,319.5,102.5,314.0,96.0,335.5,116.5,318.0,118.5,337.5,130.0,330.5,122.0,335.0,126.5,338.0,129.5,354.0,144.0,351.0,142.0,356.0,152.5,353.5,147.5,355.0,139.0,369.0,138.5,373.5,141.0,370.0,134.5,381.5,131.5,384.0,132.0,391.0,135.5,399.5,116.0,393.0,117.5,402.0,118.5,399.0,110.5,411.5,105.5,407.0,116.0,419.0,127.5,412.5,107.0,412.0,113.5,412.0,118.5" stroke="orange" stroke-width="1" fill="none" />
<polyline points="408.5,116.0,410.0,119.0,409.5,133.5,404.5,139.0,410.5,134.5,418.0,133.0,422.5,139.0,422.0,142.5,422.0,150.5,404.0,147.0,416.5,155.0,413.0,161.5,406.0,167.5,410.0,179.5,403.0,179.0,411.5,176.0,400.5,179.0,402.5,175.5,405.5,181.5,398.5,186.0,391.5,186.0,393.5,198.0,370.5,205.5,382.5,203.5,371.0,211.5,369.0,202.5,363.5,217.0,364.5,207.5,366.5,211.0,369.0,203.5,384.5,212.5,384.5,207.0,389.5,201.0,391.5,192.5,393.5,190.0,398.0,187.0,397.5,182.5,404.5,172.5,405.5,175.0,411.0,179.5,415.5,182.5" stroke="green" stroke-width="1" fill="none" />
<polyline points="370.0,125.0,370.5,124.5,362.0,126.0,370.5,122.5,368.0,119.5,367.5,119.5" stroke="yellow" stroke-width="1" fill="none" />
<polyline points="383.5,101.5,386.5,102.5,387.0,110.0" stroke="orange" stroke-width="1" fill="none" />
<polyline points="382.0,116.0,391.5,102.5" stroke="black" stroke-width="1" fill="none" />
<polyline points="424.5,44.0,425.0,47.5,408.5,23.5,418.0,28.0,416.5,21.5,415.5,21.0,410.5,15.5" stroke="orange" stroke-width="1" fill="none" />
<polyline points="511.5,70.5,514.5,79.0,511.0,79.5,506.5,87.5,501.5,86.5,495.5,95.5,483.5,106.0,480.0,105.0,491.5,114.5,480.0,104.5,472.0,113.0,481.0,120.0,476.5,123.5,470.0,126.5,470.5,131.5,466.5,134.0,467.0,137.5,465.0,152.5,457.5,151.0,460.5,154.5,455.5,159.0,446.5,167.5,449.0,165.5,444.5,169.5,444.0,167.5,444.5,174.0,424.5,190.0,434.0,194.5,432.0,186.0,433.0,201.5,428.5,203.0,433.5,208.0,427.5,202.5,419.0,199.5,419.0,209.0,417.0,218.5,419.5,225.0,424.0,232.0,421.0,238.5,416.5,229.5,416.5,239.5,413.5,247.5,402.0,240.0,413.0,247.5,419.0,259.0,399.0,263.5,403.5,262.5,410.5,274.0,404.0,273.5,404.5,277.0,398.5,282.0,403.5,280.0,393.0,292.5,399.0,290.0,408.0,294.5,400.0,307.0,393.5,295.5,392.5,309.5,392.0,304.0,397.5,310.0,393.0,315.5,394.5,315.0,389.5,329.0,391.0,327.5,383.5,340.0,394.0,331.0,394.5,334.0,389.0,335.5,390.5,336.5" stroke="green" stroke-width="1" fill="none" />
<polyline points="343.5,138.5,344.0,128.5,330.5,132.5,339.5,130.5,338.5,125.5,330.5,121.5,335.0,114.5,322.0,112.0,337.5,103.5,317.5,98.5,311.0,93.5,304.0,90.0,309.5,97.5,305.5,91.0,302.0,80.5,293.0,75.0,296.0,80.5,300.5,73.5,285.5,63.5,274.0,73.5,276.0,61.5,257.5,54.0,268.0,47.5" stroke="black" stroke-width="1" fill="none" />
<polyline points="" stroke="black" stroke-width="1" fill="none" />
<polyline points="176.0,58.5,154.5,67.0,158.5,63.0" stroke="black" stroke-width="1" fill="none" />
<polyline points="159.5,78.0,152.0,68.0,148.5,82.5,158.0,72.0,164.0,67.5,162.0,80.0,161.5,70.5,164.0,69.5" stroke="orange" stroke-width="1" fill="none" />
<polyline points="" stroke="black" stroke-width="1" fill="none" />
</svg>