<svg xmlns="http://www.w3.org/2000/svg" width="1024" height="1024" version="1.1" fill="white"><polyline points="410.5,7.5,409.0,16.5,409.5,20.0,408.0,20.5,421.5,32.5,420.5,33.0,413.5,29.5,435.5,27.0,429.5,29.0,425.5,53.5,437.5,48.0,435.5,51.5,442.0,63.0,428.5,58.0,432.5,70.5,435.5,70.5" stroke="orange" stroke-width="1" fill="none" />
<polyline points="441.5,45.0,438.5,39.5,432.5,35.0" stroke="orange" stroke-width="1" fill="none" />
<polyline points="429.0,7.0,436.5,12.5,441.0,23.0,435.5,33.0,441.5,37.0,442.0,35.0,444.0,42.5,446.0,43.5,441.5,40.5,441.5,53.0,462.0,62.0,462.5,64.0,447.0,66.5,456.5,76.5,429.5,68.0,444.0,70.0,433.0,78.5,437.0,83.0,428.5,84.0,439.5,91.5,436.0,90.5,422.5,106.0,426.5,102.5,413.5,107.5,417.0,106.0,414.0,108.0,409.0,107.5,427.5,100.5,435.5,95.5,432.0,82.0,431.5,74.5,438.5,72.0,444.5,84.5,456.0,66.5,448.0,60.5,460.5,48.5,464.0,53.5,468.5,48.0,462.0,43.0,474.5,40.5,480.5,38.5,488.0,23.0,479.5,26.0,493.5,26.0,494.0,16.0,512.5,15.5,513.0,18.5" stroke="yellow" stroke-width="1" fill="none" />
<polyline points="513.0,6.0,515.0,9.0,493.0,25.0,489.0,27.5,491.5,23.5,482.5,27.0,480.5,32.5,490.5,32.0,469.0,47.0,470.0,36.5,466.5,42.5,467.0,56.0,467.0,60.0,468.5,51.5" stroke="green" stroke-width="1" fill="none" />
<polyline points="495.5,65.5,495.0,69.5,505.0,84.0,503.5,90.5,496.5,97.0,482.0,97.5,480.0,102.0,479.0,100.0,479.5,109.5,468.5,115.5,464.0,122.0,468.5,123.5,458.5,139.0,463.0,139.0,468.5,144.0" stroke="orange" stroke-width="1" fill="none" />
<polyline points="436.5,164.0" stroke="yellow" stroke-width="1" fill="none" />
<polyline points="434.0,175.0,434.5,177.5,440.5,184.0,439.5,180.5,438.0,185.0" stroke="green" stroke-width="1" fill="none" />
<polyline points="423.0,223.0,428.0,216.0,418.5,223.0" stroke="orange" stroke-width="1" fill="none" />
<polyline points="419.5,243.0,413.0,233.0,412.0,250.0,413.0,247.0,417.5,250.5,413.5,246.5,405.0,245.0,418.5,244.5,418.0,250.0,417.0,251.5,414.0,255.0" stroke="green" stroke-width="1" fill="none" />
<polyline points="" stroke="green" stroke-width="1" fill="none" />
<polyline points="387.0,299.5,389.5,307.0,374.0,290.0,378.0,286.5,380.0,281.5,394.0,275.5,394.5,274.0" stroke="black" stroke-width="1" fill="none" />
<polyline points="367.5,256.0,371.0,252.5,375.0,256.5,378.0,242.5,375.5,237.0,369.5,239.5,378.5,229.0,365.5,235.5,381.0,220.5,372.5,225.0,373.0,230.5,371.0,223.0,370.0,219.5" stroke="yellow" stroke-width="1" fill="none" />
<polyline points="371.0,241.0,380.0,237.5" stroke="yellow" stroke-width="1" fill="none" />
<polyline points="375.5,262.5,378.5,262.5,371.0,261.5,368.0,278.5,370.0,269.0,369.5,273.0,366.0,275.0,370.0,273.5,370.0,274.0,362.5,277.0,361.5,282.0,359.0,283.0,361.0,285.0,361.0,284.5" stroke="black" stroke-width="1" fill="none" />
<polyline points="369.5,303.5,375.5,294.0,382.5,285.5,383.0,300.5,373.0,305.0,375.5,313.5,378.0,310.0,381.5,309.0,381.0,322.5,370.0,324.0,384.5,339.0,385.0,339.0,388.0,340.0,384.0,340.0,388.0,343.0" stroke="orange" stroke-width="1" fill="none" />
<polyline points="366.5,356.0,375.5,366.0,378.5,362.0,379.5,365.0" stroke="green" stroke-width="1" fill="none" />
<polyline points="381.0,378.5" stroke="yellow" stroke-width="1" fill="none" />
<polyline points="388.0,379.5,388.5,388.5,382.5,392.0,377.5,394.5,382.5,402.5,379.0,400.5" stroke="green" stroke-width="1" fill="none" />
<polyline points="360.5,418.0,355.0,413.5,355.0,419.0,342.5,411.0,342.5,402.5,334.5,408.0,335.0,407.5,327.5,406.0,328.5,394.5,321.5,404.0,322.5,391.0,317.0,397.0,312.0,387.5,298.5,397.5,297.5,386.5,300.5,387.0,301.0,396.0,298.0,393.5" stroke="green" stroke-width="1" fill="none" />
<polyline points="310.0,374.5,321.0,361.0,318.0,357.5,320.0,354.0,326.5,341.0,335.0,344.5,331.5,338.0,328.5,341.0,330.0,342.0" stroke="black" stroke-width="1" fill="none" />
<polyline points="351.5,331.0,364.0,333.0,349.5,329.0,352.5,341.0" stroke="green" stroke-width="1" fill="none" />
<polyline points="362.5,361.0,362.5,367.0,359.0,376.0,362.0,377.0,358.0,378.0,356.5,381.0,355.5,391.0,360.5,400.0,357.0,393.5,351.5,401.0,352.0,409.0,354.0,408.5" stroke="black" stroke-width="1" fill="none" />
<polyline points="362.0,369.5,363.5,376.0,359.5,372.0,355.5,367.5,361.5,368.5" stroke="orange" stroke-width="1" fill="none" />
<polyline points="361.0,369.5,361.5,372.5,359.0,374.0,355.5,380.5,356.0,383.0" stroke="yellow" stroke-width="1" fill="none" />
<polyline points="365.0,355.5,357.0,361.0,353.0,367.0,359.5,369.0,356.0,361.0,360.0,373.5,357.0,374.0,355.5,383.0,359.5,376.0,348.5,391.0,349.5,392.5,352.5,394.0,364.5,397.5,353.5,405.5,356.0,409.0,364.5,407.0,362.5,405.5,361.5,404.5" stroke="black" stroke-width="1" fill="none" />
<polyline points="376.5,457.5,369.0,460.0,371.5,456.5,375.0,453.5,376.0,450.0,376.5,441.5,372.0,446.5,367.5,431.5,373.0,428.0,380.5,434.5,380.0,419.0,389.5,414.5,382.5,413.0,374.0,409.0,384.0,402.5,378.5,398.5,375.0,402.0,388.5,394.0,382.0,396.5,373.5,384.5,392.0,377.5,376.5,375.0,386.5,376.0,382.0,370.0,382.5,368.0,389.5,366.5,371.0,357.0,382.5,351.0,385.5,353.0,380.0,347.5,374.5,345.5,374.5,340.0,385.5,333.5,373.5,333.5,373.0,321.5,381.0,322.5,377.0,329.0,383.0,312.0,371.0,310.5,368.5,301.0,382.5,319.5,380.5,306.0,382.0,289.0,377.0,291.0,368.0,283.5,371.0,275.5,377.5,283.5,362.0,271.5,366.0,265.5,375.0,265.5,369.0,262.5,373.5,260.0,359.0,256.5,367.5,251.0,367.0,245.5,376.5,243.5,375.5,229.0,361.0,226.0,372.0,231.5,356.0,219.0,359.5,220.0,369.5,226.5,362.5,212.0,367.0,208.0,355.5,207.0,347.0,203.5,345.5,199.0,342.0,205.0" stroke="black" stroke-width="1" fill="none" />
<polyline points="" stroke="orange" stroke-width="1" fill="none" />
<polyline points="" stroke="yellow" stroke-width="1" fill="none" />
<polyline points="" stroke="green" stroke-width="1" fill="none" />
<polyline points="358.5,203.5,372.0,206.5,371.5,202.0" stroke="black" stroke-width="1" fill="none" />
<polyline points="" stroke="green" stroke-width="1" fill="none" />
<polyline points="359.5,220.5" stroke="black" stroke-width="1" fill="none" />
<polyline points="341.0,202.0,339.0,203.0,337.5,206.0,329.5,205.5,336.0,192.0,333.0,198.5" stroke="black" stroke-width="1" fill="none" />
<polyline points="345.0,222.0,357.5,206.0,359.0,224.5,351.5,223.5,365.0,232.5,363.0,236.5,363.5,240.5,367.5,247.5,366.5,249.5,370.0,252.0,371.5,255.0,364.5,257.0,365.0,256.5,364.5,254.5" stroke="orange" stroke-width="1" fill="none" />
<polyline points="364.0,238.0,367.5,242.0,365.5,241.0,363.0,247.0,360.0,253.0,365.5,247.5" stroke="black" stroke-width="1" fill="none" />
<polyline points="345.0,237.5,347.0,246.5,345.5,238.5,351.0,240.0,352.0,239.0" stroke="black" stroke-width="1" fill="none" />
<polyline points="342.5,251.5,342.0,251.0,336.5,255.5,333.5,251.0,338.0,249.5,334.0,254.5,323.5,258.0,330.5,257.5,331.5,259.0" stroke="green" stroke-width="1" fill="none" />
<polyline points="337.0,253.0,341.0,245.5,344.5,254.0,347.5,254.5,358.0,241.0,348.0,243.0,341.5,240.5" stroke="yellow" stroke-width="1" fill="none" />
<polyline points="" stroke="green" stroke-width="1" fill="none" />
<polyline points="" stroke="yellow" stroke-width="1" fill="none" />
<polyline points="343.5,274.5,353.5,287.0,351.0,282.0,347.5,300.5,346.0,295.0,344.5,291.5,354.0,299.0,350.5,310.5,339.0,310.5,346.5,310.5,342.0,319.0,329.5,321.5,346.0,322.5,340.5,324.0,335.5,335.5,334.5,340.0,329.5,333.5,323.0,349.5,326.0,353.5,320.5,357.5,322.0,357.5,313.0,368.0,314.0,370.5,318.0,366.0,321.5,371.0,318.5,382.0,311.5,382.5,309.5,380.0,313.0,395.5,316.0,391.5,326.5,408.0,342.0,406.5,343.0,411.5,345.0,417.0,351.5,414.0,355.0,415.5,357.5,428.0,359.5,429.5,352.0,438.0,363.5,435.5,360.5,430.5,367.5,442.0,363.5,446.5,371.5,454.0,374.0,452.5,370.5,462.5,378.0,465.0,364.5,477.5,367.0,479.5,373.0,475.5,376.0,477.5,372.5,480.0,378.0,493.5,380.5,489.0,381.5,495.5,377.0,506.0,381.5,494.0,380.5,499.5,389.0,510.0,393.0,509.0,383.5,523.0,398.0,525.5" stroke="black" stroke-width="1" fill="none" />
<polyline points="430.5,498.5,435.0,489.5,425.0,486.5,435.0,484.0,442.0,483.5,450.0,475.0,444.5,469.5,456.5,463.5,454.5,467.0,454.0,461.0,444.0,466.5,447.0,464.5,445.0,467.5" stroke="black" stroke-width="1" fill="none" />
<polyline points="446.0,481.5,452.0,471.0,444.5,479.5,452.0,472.0,450.5,467.0,454.0,461.0,449.5,466.5,459.0,471.5,463.0,471.0,459.0,467.0" stroke="green" stroke-width="1" fill="none" />
<polyline points="455.5,446.0,459.5,445.0,462.0,434.0,460.5,440.0" stroke="orange" stroke-width="1" fill="none" />
<polyline points="469.5,421.5,472.0,402.0,480.0,415.0,482.0,402.5,482.5,407.5,490.5,403.0,485.5,395.5,497.0,386.0,496.0,386.0,501.5,393.5,502.5,386.0,518.5,379.0,506.0,381.5,514.5,377.5,514.5,377.0,514.0,373.5" stroke="orange" stroke-width="1" fill="none" />
<polyline points="518.5,386.0,513.0,385.5,514.0,382.0,513.0,382.0,513.5,380.5,505.0,387.5,499.0,381.0,493.0,393.5,491.0,407.5,488.5,409.5,476.0,409.0,479.5,410.0,471.5,415.5,472.5,430.0,466.5,416.0,463.0,432.0,467.5,429.0,456.0,430.5,458.5,436.0,452.0,440.0,463.0,444.0,460.0,451.0,456.0,453.5,455.5,460.0,452.5,455.0,447.5,469.5,447.5,483.5,449.0,474.0,445.5,480.0,447.5,486.5,443.0,480.0,438.0,479.5" stroke="orange" stroke-width="1" fill="none" />
<polyline points="442.5,476.0,438.5,473.5,441.5,465.0,439.5,463.5,440.0,456.0" stroke="green" stroke-width="1" fill="none" />
<polyline points="423.0,445.0,422.5,445.5,427.0,457.0,434.5,444.0,442.5,437.5,437.0,432.0,433.5,424.0,430.0,425.5,430.5,433.5,429.0,431.5,434.0,419.5,425.5,425.5,432.0,435.0" stroke="black" stroke-width="1" fill="none" />
<polyline points="430.5,478.0,425.5,475.0,424.5,469.0,424.0,474.5,422.5,487.0,431.0,482.5,422.0,483.0,423.0,483.5" stroke="black" stroke-width="1" fill="none" />
<polyline points="426.0,468.0,418.0,477.5,423.5,477.0,428.0,467.5,436.5,451.5,430.0,461.0,432.5,462.5,435.5,463.0,432.0,468.5,435.5,461.0" stroke="orange" stroke-width="1" fill="none" />
<polyline points="483.0,409.5,480.0,409.5,488.0,404.0,482.0,393.5,482.0,392.5" stroke="green" stroke-width="1" fill="none" />
<polyline points="448.0,429.0,448.0,425.0,447.5,423.0,443.0,419.0,451.0,408.5,444.5,414.0,449.5,406.5,454.5,395.5,458.5,391.0,455.0,383.5,451.0,384.5,451.0,375.5,448.0,384.5,449.0,372.0,464.5,372.0,453.0,355.5" stroke="orange" stroke-width="1" fill="none" />
<polyline points="384.5,339.5,394.0,343.5,378.5,332.5,377.0,324.0,382.5,325.5,381.5,328.0,384.0,327.0" stroke="green" stroke-width="1" fill="none" />
<polyline points="372.0,363.5,370.0,371.0,361.5,362.0,373.0,380.5,372.5,389.5,360.5,383.5,374.0,387.5,369.5,385.0,377.5,386.0,378.5,389.5,385.0,384.0,378.5,383.5,381.0,386.5,377.0,390.5,375.5,393.0" stroke="yellow" stroke-width="1" fill="none" />
<polyline points="333.5,343.0,336.0,345.0,329.5,343.0" stroke="green" stroke-width="1" fill="none" />
<polyline points="" stroke="yellow" stroke-width="1" fill="none" />
<polyline points="303.0,354.0,295.5,354.0,285.0,355.0,296.0,357.0,296.0,354.0,296.5,355.5" stroke="orange" stroke-width="1" fill="none" />
<polyline points="317.0,355.5,315.0,359.0,301.0,364.5,318.5,369.0,297.0,363.5,304.5,361.5,300.0,359.5,304.5,360.5" stroke="yellow" stroke-width="1" fill="none" />
<polyline points="303.5,345.0,296.0,352.5,301.0,349.5,302.5,347.5,298.5,357.0,304.0,360.0" stroke="orange" stroke-width="1" fill="none" />
<polyline points="304.5,327.0,311.0,328.5,314.0,327.5,305.0,331.5,308.5,333.0,308.5,326.0,309.0,338.5,303.5,343.5,306.0,340.5,305.5,332.5,309.0,341.0,306.5,338.5" stroke="yellow" stroke-width="1" fill="none" />
<polyline points="313.0,315.0,315.5,318.5,312.0,317.0,316.5,324.5,295.0,335.0,293.5,341.5,296.5,345.0,301.5,342.5,295.5,336.0,292.0,345.5,291.5,340.5" stroke="black" stroke-width="1" fill="none" />
<polyline points="294.0,321.0" stroke="black" stroke-width="1" fill="none" />
<polyline points="318.0,330.5,328.5,327.5,326.5,324.5,321.0,332.0,324.0,311.5,317.5,306.5,328.5,314.0,320.0,296.0,326.0,296.5,322.5,303.0,322.0,305.0,321.5,305.0" stroke="yellow" stroke-width="1" fill="none" />
<polyline points="" stroke="black" stroke-width="1" fill="none" />
<polyline points="343.5,269.5,341.5,265.5,332.5,266.5,325.5,259.5,329.0,256.0,334.0,258.0,333.5,260.0" stroke="yellow" stroke-width="1" fill="none" />
<polyline points="331.5,267.0,329.5,265.5,333.0,271.5,327.0,276.0,325.5,275.0,332.0,263.5,336.5,268.0,320.5,278.0,337.0,253.5,329.0,256.0,328.5,256.0" stroke="orange" stroke-width="1" fill="none" />
<polyline points="" stroke="green" stroke-width="1" fill="none" />
<polyline points="" stroke="yellow" stroke-width="1" fill="none" />
<polyline points="340.0,269.0,344.5,255.5,338.5,265.0,344.0,256.5,341.5,260.0,346.5,252.0,344.0,250.0" stroke="green" stroke-width="1" fill="none" />
<polyline points="349.0,237.5,351.0,227.5,340.0,224.5,334.0,211.5,335.5,213.0,339.0,215.0,336.5,213.0" stroke="yellow" stroke-width="1" fill="none" />
<polyline points="345.5,189.5,349.0,190.5,345.0,202.0,359.0,194.5,350.5,197.5,365.0,192.5,359.0,189.5,371.5,185.5,375.5,184.5,387.5,180.0,383.5,189.5,374.5,189.5,397.0,188.0,391.0,171.0,391.5,176.5,393.5,169.0,397.0,177.0,406.0,161.5,406.5,178.5,404.5,175.0,393.0,190.5,402.5,184.5,397.0,183.0,383.5,188.5,385.0,202.5,396.5,190.0,388.5,182.0,403.5,174.0" stroke="black" stroke-width="1" fill="none" />
<polyline points="408.5,160.5,389.5,172.0,383.5,174.5,386.0,175.5,385.5,176.5" stroke="black" stroke-width="1" fill="none" />
<polyline points="351.5,196.5,350.5,189.5,341.5,191.5,338.0,196.5" stroke="yellow" stroke-width="1" fill="none" />
<polyline points="325.0,203.0,329.0,211.5,340.5,205.0,333.0,205.5,327.5,207.5,332.0,210.5,329.0,207.0" stroke="black" stroke-width="1" fill="none" />
<polyline points="" stroke="orange" stroke-width="1" fill="none" />
<polyline points="350.0,218.0,355.0,219.5,359.0,214.5,360.5,222.0" stroke="yellow" stroke-width="1" fill="none" />
<polyline points="355.5,203.0,352.0,205.5,345.5,200.0,349.5,198.0,344.0,206.0,345.5,207.0,344.5,207.5,347.0,204.0" stroke="green" stroke-width="1" fill="none" />
<polyline points="348.0,205.0,351.5,208.5" stroke="black" stroke-width="1" fill="none" />
<polyline points="" stroke="black" stroke-width="1" fill="none" />
<polyline points="347.0,204.5,345.5,206.5,351.0,205.0,351.5,208.5" stroke="yellow" stroke-width="1" fill="none" />
<polyline points="" stroke="black" stroke-width="1" fill="none" />
<polyline points="375.5,195.5,366.0,202.5" stroke="green" stroke-width="1" fill="none" />
<polyline points="386.5,164.0,385.5,163.5,375.0,161.5,390.5,157.0,385.0,174.0,383.0,174.0,389.5,176.5,387.0,155.5,390.0,154.5,393.0,150.5,389.0,150.5" stroke="yellow" stroke-width="1" fill="none" />
<polyline points="392.0,166.0,396.0,170.5,394.0,158.0,411.5,160.0,394.5,169.0,396.0,175.5,387.0,171.0,399.5,174.0" stroke="green" stroke-width="1" fill="none" />
<polyline points="396.0,124.0,394.0,122.0,378.5,132.0,381.5,135.0,393.0,131.0,390.0,132.0,392.0,118.0,385.5,122.0,394.0,125.5,397.0,125.5" stroke="black" stroke-width="1" fill="none" />
<polyline points="391.5,124.0,379.0,129.5,384.5,127.5,381.0,130.5,391.5,127.5,405.5,124.0,399.0,119.0,400.0,120.5" stroke="black" stroke-width="1" fill="none" />
<polyline points="398.5,109.5,397.5,117.5,390.5,124.0,385.5,135.0,372.0,130.5,357.5,137.0,355.0,146.5,362.5,142.0,353.5,138.5,360.5,134.0,355.5,133.0,358.5,130.0,361.0,131.0,361.0,128.0" stroke="yellow" stroke-width="1" fill="none" />
<polyline points="334.5,144.0,316.5,150.0,322.0,157.0,306.5,148.0,305.0,168.0,306.5,166.5,306.0,164.5" stroke="orange" stroke-width="1" fill="none" />
<polyline points="" stroke="black" stroke-width="1" fill="none" />
<polyline points="284.0,173.0,284.5,167.5,278.0,182.0,285.5,177.0,284.0,183.5,286.5,181.0,283.0,180.0" stroke="orange" stroke-width="1" fill="none" />
<polyline points="" stroke="orange" stroke-width="1" fill="none" />
<polyline points="282.5,178.5,282.0,165.0,281.5,173.5,277.5,174.0,276.0,178.0,277.0,177.5" stroke="green" stroke-width="1" fill="none" />
<polyline points="261.5,180.0,250.0,175.5,247.0,169.5" stroke="yellow" stroke-width="1" fill="none" />
<polyline points="241.0,159.0,237.0,164.0,243.5,161.5,248.5,165.0,254.0,168.5,248.5,179.0,256.5,184.5,252.0,183.0,250.0,184.5,242.0,188.0,244.0,194.0,237.5,195.0,241.0,201.5,236.5,209.5,241.0,203.5,234.0,220.0,243.5,204.0,246.0,216.5,261.0,206.5,254.5,212.5,253.5,203.0,249.5,215.5,251.5,217.0,259.5,222.0,239.0,222.5,237.5,236.5,240.0,225.0,235.5,229.0,242.5,246.0,226.0,245.0,230.0,249.0,216.5,253.5,218.0,254.5,222.5,256.0,220.5,265.0,210.0,272.0,210.5,276.5,206.0,277.5,204.5,285.5,206.5,290.5,211.5,299.0,198.5,305.0,188.5,298.0,191.0,302.0,207.0,306.0,194.0,321.5,197.5,309.0,196.5,311.5,176.5,315.0,184.0,320.0,180.0,323.0,174.0,333.0,166.5,330.5,166.0,342.0,160.5,340.5,168.0,340.5,169.0,338.5" stroke="yellow" stroke-width="1" fill="none" />
<polyline points="159.0,352.5,154.5,340.0,163.0,366.0,153.0,363.0,153.0,367.0,148.0,379.0,155.0,379.0,163.5,367.5,151.0,381.5,159.0,385.5,156.0,394.0,156.5,399.0,146.0,391.5,148.5,411.5,161.0,402.5,162.5,413.0,165.0,410.0,152.0,419.0,164.5,411.0,167.0,414.5" stroke="yellow" stroke-width="1" fill="none" />
<polyline points="172.0,407.5,162.0,409.0,167.0,407.0,161.5,413.0,158.5,417.5" stroke="black" stroke-width="1" fill="none" />
<polyline points="172.5,411.0,170.0,422.5,165.0,422.0,169.0,420.0,173.0,426.5,167.5,421.5,178.0,430.5,181.0,421.5" stroke="green" stroke-width="1" fill="none" />
<polyline points="" stroke="orange" stroke-width="1" fill="none" />
<polyline points="186.5,440.0,188.0,442.0,185.0,432.5,179.0,440.5,176.5,440.5,187.0,441.0,194.0,437.0,196.0,424.5" stroke="orange" stroke-width="1" fill="none" />
<polyline points="" stroke="yellow" stroke-width="1" fill="none" />
<polyline points="" stroke="yellow" stroke-width="1" fill="none" />
<polyline points="" stroke="yellow" stroke-width="1" fill="none" />
<polyline points="177.0,461.0,167.5,467.0,171.5,474.0,164.0,464.0,164.0,473.5,162.0,473.0" stroke="black" stroke-width="1" fill="none" />
<polyline points="152.5,472.5,127.0,449.0,126.0,457.0,143.0,457.0,136.5,450.5,133.0,450.5" stroke="yellow" stroke-width="1" fill="none" />
<polyline points="144.5,465.0,141.0,481.5,150.0,482.5,161.5,486.0,150.0,476.5,153.5,478.0,155.0,489.5,162.0,500.0,163.0,498.5,160.0,495.5,157.5,498.0" stroke="black" stroke-width="1" fill="none" />
<polyline points="169.5,502.5" stroke="yellow" stroke-width="1" fill="none" />
<polyline points="171.5,506.0,170.5,509.5,170.5,499.0,164.5,508.5,156.0,517.0,154.0,505.0,153.5,500.5,146.5,494.5,141.5,490.0,140.0,488.0" stroke="black" stroke-width="1" fill="none" />
<polyline points="149.0,506.0,148.5,501.5" stroke="green" stroke-width="1" fill="none" />
<polyline points="" stroke="green" stroke-width="1" fill="none" />
<polyline points="" stroke="green" stroke-width="1" fill="none" />
<polyline points="" stroke="orange" stroke-width="1" fill="none" />
<polyline points="146.0,491.0,148.0,493.0,160.0,486.5,159.5,488.0" stroke="black" stroke-width="1" fill="none" />
<polyline points="157.5,513.5,162.0,502.5,156.0,505.5,160.5,510.0" stroke="orange" stroke-width="1" fill="none" />
<polyline points="145.5,494.5,139.5,483.5,138.0,481.0,139.0,483.5,147.0,492.0,145.5,487.5,140.0,477.0,135.5,483.0" stroke="yellow" stroke-width="1" fill="none" />
<polyline points="144.0,492.5,150.0,499.5,151.0,507.0,149.5,499.5,149.5,503.5,147.0,508.0,150.5,508.5,145.0,507.0,144.0,511.5,146.5,507.0,150.5,513.0" stroke="black" stroke-width="1" fill="none" />
<polyline points="" stroke="black" stroke-width="1" fill="none" />
<polyline points="149.0,519.5,147.0,520.0" stroke="orange" stroke-width="1" fill="none" />
<polyline points="126.5,508.5,134.5,512.0,137.5,500.0,128.0,495.0" stroke="black" stroke-width="1" fill="none" />
<polyline points="139.0,499.5,133.5,500.0,137.5,494.5,137.5,490.0,138.0,486.5" stroke="orange" stroke-width="1" fill="none" />
<polyline points="" stroke="orange" stroke-width="1" fill="none" />
<polyline points="" stroke="green" stroke-width="1" fill="none" />
<polyline points="114.5,510.0,122.5,508.5,118.0,484.0,124.5,495.0,124.5,485.0,122.0,490.0,122.5,487.0,120.5,488.5" stroke="green" stroke-width="1" fill="none" />
<polyline points="129.0,502.5,124.5,501.0,130.0,498.5,124.0,495.5,119.0,500.0" stroke="orange" stroke-width="1" fill="none" />
<polyline points="130.5,518.0,131.5,500.5" stroke="yellow" stroke-width="1" fill="none" />
<polyline points="142.5,475.0,143.5,475.5" stroke="orange" stroke-width="1" fill="none" />
<polyline points="125.0,484.5,128.5,485.5,139.5,494.0,132.5,488.5,136.5,509.5,132.0,501.0,141.0,505.0,146.5,509.5,137.0,506.5,139.0,504.0,141.5,501.5" stroke="yellow" stroke-width="1" fill="none" />
<polyline points="" stroke="orange" stroke-width="1" fill="none" />
<polyline points="" stroke="yellow" stroke-width="1" fill="none" />
<polyline points="" stroke="green" stroke-width="1" fill="none" />
<polyline points="" stroke="orange" stroke-width="1" fill="none" />
<polyline points="172.0,470.5,169.5,464.5,170.5,480.0,167.0,476.0,158.5,475.5,173.0,499.0,172.5,482.5,175.5,484.0,175.0,481.5,176.5,478.5" stroke="green" stroke-width="1" fill="none" />
<polyline points="189.5,487.0,211.5,486.0,198.0,493.5,202.0,485.5,207.0,487.5,215.0,478.5,218.5,477.0,220.0,479.5,226.5,481.0,228.0,476.0,226.5,473.5" stroke="yellow" stroke-width="1" fill="none" />
<polyline points="230.0,453.5" stroke="yellow" stroke-width="1" fill="none" />
<polyline points="220.5,475.0,220.0,479.0,216.5,479.5,215.5,478.0,228.0,466.5,219.0,452.5,231.0,451.5,228.5,455.5,229.5,445.5,237.0,444.5,232.5,442.0,234.0,436.5,245.0,435.0,233.5,430.5,241.5,422.5,231.0,417.0,224.5,417.0,233.0,410.5,235.5,407.5,228.5,402.5,226.0,406.5" stroke="orange" stroke-width="1" fill="none" />
<polyline points="220.5,410.0,228.0,408.5,226.0,411.0,227.0,409.5" stroke="yellow" stroke-width="1" fill="none" />
<polyline points="221.0,410.0,226.0,426.5,231.0,426.0,219.0,427.5,223.0,417.5,226.0,414.5,220.5,420.5,227.5,417.0,225.0,412.0" stroke="black" stroke-width="1" fill="none" />
<polyline points="244.0,426.5,239.5,426.5,232.5,425.5,227.5,433.5,241.0,433.5,240.0,446.5,236.0,446.0,246.5,455.5,231.5,458.5,241.0,454.0,227.5,463.0,236.5,477.0,227.0,467.0,221.5,478.0,224.5,479.5,225.0,482.5,211.0,485.5,218.5,488.0" stroke="black" stroke-width="1" fill="none" />
<polyline points="194.5,490.0,211.5,492.0,199.5,496.5,206.0,489.5,223.5,486.5,213.5,497.5,217.5,486.5,228.0,481.5,241.0,475.0,237.5,476.5,245.5,479.0,245.0,478.0" stroke="yellow" stroke-width="1" fill="none" />
<polyline points="202.5,444.0,203.5,447.5,200.5,444.0,175.0,441.5,179.0,439.0,182.5,439.5" stroke="yellow" stroke-width="1" fill="none" />
<polyline points="186.0,457.5,194.0,452.0,182.0,451.0,186.5,449.5,197.5,439.5,185.0,427.0,175.5,427.0,181.5,433.5,184.0,424.5,182.0,428.0,182.5,427.0,184.0,411.5,174.0,414.5,182.5,409.5,159.5,407.0,165.5,401.0,162.5,389.0,165.5,395.0,161.0,389.5,167.5,385.0,168.5,382.0" stroke="orange" stroke-width="1" fill="none" />
<polyline points="155.5,372.0,177.5,371.0,174.0,351.5,184.0,349.5,189.5,331.0,193.0,340.0,195.5,325.0,199.5,330.0,203.5,317.0,191.0,330.5,193.5,329.5" stroke="yellow" stroke-width="1" fill="none" />
<polyline points="202.0,320.0,198.0,321.0,199.0,314.0,200.5,314.0" stroke="green" stroke-width="1" fill="none" />
<polyline points="182.0,317.0,177.5,322.0,192.5,317.5,194.0,307.5,196.0,301.5,201.0,293.0,204.5,288.0,204.0,283.0,211.5,275.5,224.5,262.0,224.5,257.0,230.0,248.0,237.5,247.5,233.5,243.5,248.0,235.5,236.5,222.0,250.5,222.0,251.5,219.0,262.0,224.0" stroke="black" stroke-width="1" fill="none" />
<polyline points="264.0,229.5,263.0,231.5,273.0,226.5,273.0,239.5" stroke="yellow" stroke-width="1" fill="none" />
<polyline points="277.5,231.5,277.0,233.0,272.5,232.5,263.0,242.5,258.0,241.5,261.0,251.0,262.5,253.5" stroke="black" stroke-width="1" fill="none" />
<polyline points="261.0,236.0,265.5,233.0,270.0,227.5,268.5,235.5,267.5,225.5,272.0,230.0,265.5,229.5,257.5,228.5,259.0,230.5,266.0,238.0,243.5,240.5,251.0,236.0,234.5,253.5,248.5,261.5,226.0,266.5,223.5,275.5,215.0,284.0,220.0,283.0,226.5,289.5,232.0,273.5,229.0,265.0,231.0,266.0,227.5,266.0,237.0,260.0,231.0,260.0,243.0,245.5,231.0,245.0,251.0,238.0,248.5,238.0,257.0,245.0,252.5,226.5,268.5,220.0,262.5,218.5,261.0,219.0,257.0,217.0,262.5,217.5,276.5,219.0,268.5,204.0,277.5,202.0,270.5,197.0,281.0,201.0,261.5,188.5,273.0,188.0,262.0,186.0,268.5,198.0,262.5,209.0,276.5,202.5,262.5,203.0,262.5,215.5,267.0,198.0" stroke="green" stroke-width="1" fill="none" />
<polyline points="249.0,197.5,249.0,194.5,248.0,197.0,245.0,198.5" stroke="green" stroke-width="1" fill="none" />
<polyline points="253.0,217.5,252.0,217.0,254.5,226.0,237.5,231.5,239.0,226.5,225.5,239.5,223.0,232.5,220.5,239.0,223.0,232.5,228.5,232.0,224.0,225.0,228.0,214.0,217.0,223.0,211.5,219.0,218.0,224.5,230.0,209.0,220.0,212.0,219.5,207.5,218.0,203.0,223.0,205.0" stroke="orange" stroke-width="1" fill="none" />
<polyline points="" stroke="yellow" stroke-width="1" fill="none" />
<polyline points="" stroke="yellow" stroke-width="1" fill="none" />
<polyline points="" stroke="black" stroke-width="1" fill="none" />
<polyline points="253.5,209.0,251.0,206.0,253.0,197.5,261.5,186.0,264.0,186.0,255.5,178.5,248.5,197.5,243.5,193.5,254.0,190.0,268.5,189.5,262.0,189.0,258.0,187.5,267.0,182.5,268.5,174.5,272.5,183.5,273.0,189.0,274.0,177.5,277.5,178.5,280.5,177.5" stroke="orange" stroke-width="1" fill="none" />
<polyline points="251.5,191.0,252.5,192.5,253.5,192.0,250.0,201.5,249.5,197.5,243.5,193.5,239.5,198.5,245.0,204.0,254.5,204.5,240.5,195.5,253.5,195.0,262.0,197.0,253.5,187.0,263.0,172.5,272.0,196.0,266.0,196.5,275.5,198.5,270.5,196.5" stroke="yellow" stroke-width="1" fill="none" />
<polyline points="262.5,208.0,263.5,205.5,265.5,208.0,262.0,209.5,257.0,205.0,265.0,194.5,262.5,193.0,267.5,184.0,275.0,183.5,279.0,192.0" stroke="orange" stroke-width="1" fill="none" />
<polyline points="260.5,192.0,253.5,194.0,254.5,199.0,246.0,214.5,247.0,211.5,249.5,211.0,254.5,208.0" stroke="yellow" stroke-width="1" fill="none" />
<polyline points="256.5,203.5,261.5,212.0,261.5,208.5,256.0,218.5,262.0,219.5,251.0,224.5,248.0,217.0,246.0,233.5,239.0,223.5,241.0,245.0" stroke="yellow" stroke-width="1" fill="none" />
<polyline points="" stroke="black" stroke-width="1" fill="none" />
<polyline points="" stroke="black" stroke-width="1" fill="none" />
<polyline points="219.0,226.5,217.5,224.5" stroke="orange" stroke-width="1" fill="none" />
<polyline points="215.0,235.0,220.5,236.5,222.0,232.0" stroke="green" stroke-width="1" fill="none" />
<polyline points="234.5,242.5,217.5,235.5,225.0,248.5" stroke="yellow" stroke-width="1" fill="none" />
<polyline points="214.0,229.5,208.0,233.0,212.0,224.5,211.5,221.5,219.5,227.5,204.5,227.5" stroke="orange" stroke-width="1" fill="none" />
<polyline points="220.0,235.5,225.0,230.5,228.0,248.0,224.0,248.0,235.0,250.5,233.0,253.5" stroke="black" stroke-width="1" fill="none" />
<polyline points="223.0,268.0,221.0,271.5,212.0,273.5,204.5,291.0,196.0,288.5,198.0,289.0,193.5,302.0,187.5,313.5,190.0,318.5,179.0,335.0,180.0,325.5,172.0,326.0,174.0,331.0,163.0,337.5,152.5,332.5,152.5,334.0,158.0,341.5,139.0,351.0,140.5,353.0" stroke="green" stroke-width="1" fill="none" />
<polyline points="139.0,347.0,148.5,338.5,146.5,339.0,154.5,343.0,142.5,330.5,158.0,328.0" stroke="yellow" stroke-width="1" fill="none" />
<polyline points="156.0,328.5,152.5,331.0,160.5,340.5,156.0,337.5,155.5,335.5" stroke="green" stroke-width="1" fill="none" />
<polyline points="144.0,356.5,147.0,358.0" stroke="green" stroke-width="1" fill="none" />
<polyline points="133.0,351.5,134.5,332.0,143.5,340.5,130.0,339.0,138.0,327.5,132.0,320.5,136.0,319.5,136.5,318.0,125.0,317.0,134.5,320.0,126.0,315.0" stroke="green" stroke-width="1" fill="none" />
<polyline points="131.0,296.5,128.0,300.0,127.5,297.0" stroke="green" stroke-width="1" fill="none" />
<polyline points="137.5,311.0,135.5,307.5" stroke="black" stroke-width="1" fill="none" />
<polyline points="136.0,286.5" stroke="orange" stroke-width="1" fill="none" />
<polyline points="128.0,275.5,142.0,275.5,141.0,274.0" stroke="green" stroke-width="1" fill="none" />
<polyline points="152.0,268.5,158.0,263.5,153.5,267.0,163.5,267.5" stroke="black" stroke-width="1" fill="none" />
<polyline points="149.5,270.5,157.0,275.5,153.5,271.0,156.5,274.0,155.5,272.5" stroke="black" stroke-width="1" fill="none" />
<polyline points="151.5,269.5,143.0,268.0,154.0,276.5,149.5,272.0,153.0,272.5" stroke="orange" stroke-width="1" fill="none" />
<polyline points="168.0,260.0,169.5,255.0,174.0,261.5,178.0,260.0,171.0,256.0" stroke="yellow" stroke-width="1" fill="none" />
<polyline points="181.5,250.0,180.0,251.5" stroke="yellow" stroke-width="1" fill="none" />
<polyline points="172.0,259.0,170.5,260.0,176.5,262.0,172.0,260.0" stroke="orange" stroke-width="1" fill="none" />
<polyline points="" stroke="green" stroke-width="1" fill="none" />
<polyline points="182.0,261.0,179.5,259.5,194.5,259.5,184.5,260.0,188.0,258.5,189.0,260.0,190.0,259.0,193.5,259.0,192.5,262.0" stroke="green" stroke-width="1" fill="none" />
<polyline points="" stroke="yellow" stroke-width="1" fill="none" />
<polyline points="" stroke="orange" stroke-width="1" fill="none" />
<polyline points="172.5,256.0,184.5,262.5,187.5,255.0" stroke="orange" stroke-width="1" fill="none" />
<polyline points="205.0,260.5,203.0,252.0" stroke="orange" stroke-width="1" fill="none" />
<polyline points="210.0,250.0,210.5,255.5,217.0,249.0,206.5,240.0,211.0,236.5,209.0,238.5,210.5,243.5,201.0,243.5,206.0,242.0,208.5,239.0,202.5,232.5" stroke="black" stroke-width="1" fill="none" />
<polyline points="212.5,236.5,220.5,240.0,213.0,240.0,222.0,233.5,220.0,247.0,207.5,242.0" stroke="yellow" stroke-width="1" fill="none" />
<polyline points="" stroke="green" stroke-width="1" fill="none" />
<polyline points="" stroke="black" stroke-width="1" fill="none" />
<polyline points="217.0,257.5,216.0,257.0,206.5,251.0,214.5,243.5,212.5,249.0,206.0,241.5,211.0,235.0,202.5,240.5,204.0,238.0" stroke="yellow" stroke-width="1" fill="none" />
<polyline points="217.0,243.0,215.0,248.0,209.5,242.0,210.0,257.5,211.5,259.0,220.0,260.0,214.5,264.5,216.5,264.5" stroke="yellow" stroke-width="1" fill="none" />
<polyline points="" stroke="orange" stroke-width="1" fill="none" />
<polyline points="200.0,255.0,200.0,253.0,197.0,254.0" stroke="green" stroke-width="1" fill="none" />
<polyline points="" stroke="green" stroke-width="1" fill="none" />
<polyline points="181.5,268.0,186.0,264.5,170.0,266.0,171.5,258.5,193.5,240.5,184.0,243.5,180.0,240.5,189.5,233.5,199.0,243.0,180.5,243.0,179.5,246.0,182.0,240.5,184.0,244.0,182.5,241.5" stroke="black" stroke-width="1" fill="none" />
<polyline points="192.0,216.0,193.5,218.0,195.5,213.0,202.0,210.0,191.5,228.0,187.0,232.0" stroke="black" stroke-width="1" fill="none" />
<polyline points="190.0,218.5,189.5,225.0,185.0,211.5,194.0,223.0,190.0,230.5,189.5,235.0,198.5,227.0,196.0,233.0" stroke="green" stroke-width="1" fill="none" />
<polyline points="183.0,239.0,185.5,240.5,180.5,238.5,188.0,239.5,183.0,244.5" stroke="yellow" stroke-width="1" fill="none" />
<polyline points="191.0,238.0,206.0,240.5,196.5,239.0,201.5,244.5" stroke="black" stroke-width="1" fill="none" />
<polyline points="227.0,217.5,226.5,219.5,221.5,220.5" stroke="green" stroke-width="1" fill="none" />
<polyline points="" stroke="black" stroke-width="1" fill="none" />
<polyline points="213.5,221.5,220.5,216.5,223.0,224.0,211.0,238.0" stroke="green" stroke-width="1" fill="none" />
<polyline points="229.5,211.0,215.5,219.0,224.5,232.5,230.0,234.5,222.0,235.5,235.0,234.0,235.5,245.0,229.5,237.5,233.5,254.5,226.0,250.0,229.0,256.0,218.5,252.5,213.0,272.5,222.0,257.0,214.0,262.5,223.0,270.0,217.0,286.5,205.0,285.0,212.0,295.5,206.5,289.0,200.5,288.5,214.5,305.0,189.5,307.5,203.0,310.5,206.5,319.0,193.0,312.0,200.0,320.0,186.0,331.5,201.5,321.0,191.0,312.0,202.5,315.0,218.0,310.5,212.5,312.5,221.5,298.5,231.5,305.0,233.5,283.5,228.5,281.0,243.0,276.0,237.0,268.5,238.0,272.0,252.0,269.5,248.0,259.0,246.0,253.5,246.0,258.0,255.5,249.0,258.0,249.0,273.0,244.5,283.5,258.5,278.5,251.0,272.5,253.0,292.5,251.5,287.0,246.5,303.5,254.5,299.0,250.0,300.0,251.5,299.5,255.0,304.5,252.0" stroke="orange" stroke-width="1" fill="none" />
<polyline points="" stroke="green" stroke-width="1" fill="none" />
<polyline points="287.0,255.5,285.5,256.5,291.5,280.0,288.0,275.5,290.0,280.5,289.5,276.5,288.5,270.0,286.5,274.5" stroke="black" stroke-width="1" fill="none" />
<polyline points="" stroke="black" stroke-width="1" fill="none" />
<polyline points="" stroke="yellow" stroke-width="1" fill="none" />
<polyline points="279.0,275.0,278.0,270.0,276.5,274.5,280.5,273.0" stroke="orange" stroke-width="1" fill="none" />
<polyline points="281.0,259.0,274.5,265.5,273.0,268.0" stroke="green" stroke-width="1" fill="none" />
<polyline points="285.5,274.5,290.0,270.0" stroke="green" stroke-width="1" fill="none" />
<polyline points="261.5,271.5,267.0,265.5,269.5,267.5" stroke="green" stroke-width="1" fill="none" />
<polyline points="265.5,268.0,266.5,269.5,270.5,267.5,275.0,271.0,279.5,259.5,276.0,275.0,271.0,286.5,282.0,272.0,275.0,279.5,279.0,286.0,280.5,289.5,276.5,291.5,277.0,290.5,275.5,291.5" stroke="orange" stroke-width="1" fill="none" />
<polyline points="256.5,269.5,261.0,274.0,257.5,280.5,251.5,269.0,252.5,276.0,255.5,276.0,249.0,274.0,250.5,275.0,252.0,277.5" stroke="green" stroke-width="1" fill="none" />
<polyline points="264.5,268.5,275.5,284.0,278.5,280.0,278.5,278.5" stroke="black" stroke-width="1" fill="none" />
<polyline points="" stroke="yellow" stroke-width="1" fill="none" />
<polyline points="257.0,265.5,259.5,263.5,257.0,266.5,256.0,281.0,255.5,274.0,262.5,270.0,264.5,281.0,272.0,276.0,275.0,285.5,279.5,281.5,284.0,279.0,288.5,280.0" stroke="green" stroke-width="1" fill="none" />
<polyline points="286.0,265.5,282.5,256.0,280.5,263.0,286.0,253.0,282.0,253.5,273.0,257.0,280.5,250.5,275.0,251.5,269.5,253.0,275.5,255.0,277.5,254.5" stroke="orange" stroke-width="1" fill="none" />
<polyline points="278.5,245.0,275.0,254.0,275.0,248.0,272.5,247.5" stroke="green" stroke-width="1" fill="none" />
<polyline points="" stroke="orange" stroke-width="1" fill="none" />
<polyline points="269.5,264.0,265.5,251.5,284.5,257.5,269.5,259.0,264.0,247.5,257.5,245.0,265.0,250.5,261.5,255.5,255.5,255.0,266.0,254.5" stroke="yellow" stroke-width="1" fill="none" />
<polyline points="262.0,278.5,265.0,270.5,259.5,267.0,260.5,267.0,261.5,266.5" stroke="yellow" stroke-width="1" fill="none" />
<polyline points="275.5,271.5,281.5,272.0,283.0,267.0,288.0,277.5,291.0,273.5,283.0,271.5,281.0,278.5,284.5,276.0,292.5,263.5" stroke="yellow" stroke-width="1" fill="none" />
<polyline points="" stroke="orange" stroke-width="1" fill="none" />
<polyline points="251.0,258.0,248.0,266.0,243.5,262.0,233.5,274.0,235.0,273.5,229.0,278.0,226.5,295.5,239.0,284.5,232.0,287.5,215.5,295.5,210.0,305.5,212.5,303.0,208.5,307.0,214.0,323.0,197.0,308.5,201.0,310.0,209.0,320.0,195.5,323.0,191.5,336.0,194.0,338.0,183.0,336.0,187.0,350.0,178.5,346.0,176.0,341.5,172.0,355.0,174.0,358.5,165.0,362.0,169.5,366.0,166.0,368.5,156.5,385.5,157.5,381.0,151.5,390.0,164.0,386.5,166.5,394.5,169.0,397.0,173.0,407.5,179.5,404.5,171.5,403.0,178.5,399.5,166.5,400.0,176.5,397.0,171.0,404.0,170.5,406.0" stroke="yellow" stroke-width="1" fill="none" />
<polyline points="168.0,396.5,161.0,390.5,159.0,391.0" stroke="green" stroke-width="1" fill="none" />
<polyline points="" stroke="green" stroke-width="1" fill="none" />
<polyline points="134.5,370.5,140.5,370.5,142.0,362.0,141.0,357.0" stroke="black" stroke-width="1" fill="none" />
<polyline points="" stroke="black" stroke-width="1" fill="none" />
<polyline points="130.0,414.0,124.0,417.0,131.0,413.5,143.0,421.5,141.5,422.0,141.5,433.5,135.5,433.0,136.5,443.5,137.5,443.0,144.0,444.5,144.0,455.0,136.5,453.0,137.0,460.0,139.0,456.5,137.5,469.0,135.0,471.0,138.5,472.0,150.0,471.0,143.5,478.5,147.5,465.0,150.5,467.5" stroke="black" stroke-width="1" fill="none" />
<polyline points="" stroke="green" stroke-width="1" fill="none" />
<polyline points="169.0,468.5,187.5,456.0,179.5,467.0,173.5,461.0,173.0,457.5,176.0,451.0,161.0,438.5,178.5,435.5,162.5,443.0,164.0,439.0" stroke="orange" stroke-width="1" fill="none" />
<polyline points="166.0,433.5,167.0,440.0,166.5,438.0,166.5,436.5" stroke="yellow" stroke-width="1" fill="none" />
<polyline points="168.0,406.5,159.0,406.5,150.5,407.5,164.0,399.0,161.5,401.5,161.0,394.5,160.0,401.5,151.5,390.5,151.0,385.0,145.5,369.0,152.0,368.5,142.5,363.5,140.5,360.0,149.0,358.5,150.0,356.5,141.5,358.5,155.0,358.0,154.0,356.0" stroke="black" stroke-width="1" fill="none" />
<polyline points="141.0,362.5,143.5,365.0,138.5,361.0,146.0,355.5,153.0,362.0,147.0,380.5,146.0,374.0,154.0,386.5,151.5,383.5,159.5,381.0,153.0,397.0,155.0,387.5,158.5,403.5,176.0,392.5,180.5,392.5" stroke="green" stroke-width="1" fill="none" />
<polyline points="173.5,431.0,171.5,435.0,163.0,449.0,173.0,450.5,186.5,452.5,177.5,448.0,173.5,466.0,179.0,468.5,178.5,471.0" stroke="yellow" stroke-width="1" fill="none" />
<polyline points="172.0,451.5,170.5,453.0,172.5,453.5,171.5,457.5" stroke="black" stroke-width="1" fill="none" />
<polyline points="167.5,456.5,164.5,441.0,158.5,445.0,175.5,453.5,168.0,460.0,180.5,454.0,169.5,464.0,171.5,473.0,162.0,471.5,161.0,479.5,178.0,472.0,157.0,480.0,164.5,492.0,162.5,491.5,158.5,503.5,157.0,494.0,161.0,512.5,173.5,495.5,180.0,512.0,175.5,514.0,181.0,510.0,166.5,516.5,169.0,508.5" stroke="black" stroke-width="1" fill="none" />
<polyline points="" stroke="yellow" stroke-width="1" fill="none" />
<polyline points="" stroke="green" stroke-width="1" fill="none" />
<polyline points="" stroke="orange" stroke-width="1" fill="none" />
<polyline points="166.0,459.5,150.5,449.0,148.5,448.5,148.5,443.0,151.0,435.5,168.0,433.5,144.5,435.5,145.5,428.5,140.0,421.0,139.5,407.5" stroke="orange" stroke-width="1" fill="none" />
<polyline points="152.0,395.0,145.5,391.5,152.5,385.5,149.5,401.0,148.5,396.0,144.0,400.0,145.0,403.5,141.0,403.5" stroke="orange" stroke-width="1" fill="none" />
<polyline points="137.0,402.5" stroke="yellow" stroke-width="1" fill="none" />
<polyline points="137.5,404.0,136.5,405.5,144.5,408.5,138.0,414.5,146.5,410.5,145.0,413.5,146.0,415.0" stroke="orange" stroke-width="1" fill="none" />
<polyline points="156.0,419.5,159.5,424.0,154.5,430.5,160.5,421.0,152.0,440.0,154.5,437.0" stroke="black" stroke-width="1" fill="none" />
<polyline points="165.0,439.0,171.0,447.0,175.5,449.0,179.5,446.5,184.5,437.0" stroke="green" stroke-width="1" fill="none" />
<polyline points="177.0,412.0,182.0,416.0,170.5,412.5,164.5,415.5,160.5,412.5,164.5,403.0,171.0,397.0,166.0,397.0" stroke="orange" stroke-width="1" fill="none" />
<polyline points="164.5,414.5,169.0,419.5,171.0,429.5,161.0,433.0,156.5,430.5,155.0,429.0,161.0,435.0,155.0,430.5,166.5,433.0,172.5,428.5,166.0,432.0,169.5,428.0,161.0,425.0" stroke="green" stroke-width="1" fill="none" />
<polyline points="" stroke="black" stroke-width="1" fill="none" />
<polyline points="154.0,460.0,157.5,453.5,161.5,452.5,160.5,456.5,165.0,461.0,164.5,471.0" stroke="black" stroke-width="1" fill="none" />
<polyline points="166.0,458.0,172.0,451.5" stroke="black" stroke-width="1" fill="none" />
<polyline points="" stroke="yellow" stroke-width="1" fill="none" />
<polyline points="152.0,453.0,144.0,457.0,152.0,455.0,159.0,453.0,150.5,452.0,152.0,457.0,149.5,454.0" stroke="yellow" stroke-width="1" fill="none" />
<polyline points="149.0,441.5,148.0,441.5,145.5,444.0,147.0,448.5,144.5,443.5" stroke="orange" stroke-width="1" fill="none" />
<polyline points="144.5,462.0,153.5,464.0,150.0,466.0,145.0,467.0,157.5,472.0,149.0,477.0,153.5,484.5,154.5,481.5,154.0,475.5" stroke="orange" stroke-width="1" fill="none" />
<polyline points="149.0,468.5,153.5,469.5,151.5,470.5" stroke="yellow" stroke-width="1" fill="none" />
<polyline points="142.0,465.0,152.5,462.0,158.0,463.5,157.0,469.5,152.0,463.0" stroke="green" stroke-width="1" fill="none" />
<polyline points="" stroke="orange" stroke-width="1" fill="none" />
<polyline points="137.5,449.5,137.0,457.5,134.0,452.5,146.5,459.5,139.5,453.5,150.5,473.5,141.0,471.0,152.0,469.0,158.0,477.0,152.5,478.5,157.0,477.0" stroke="orange" stroke-width="1" fill="none" />
<polyline points="161.5,477.0,165.0,479.5,163.0,470.0,165.0,471.5,151.5,468.5,148.5,472.5,160.0,458.5,146.5,456.5" stroke="orange" stroke-width="1" fill="none" />
<polyline points="142.5,460.0,161.0,476.5,156.5,479.5,148.5,472.5,155.5,480.5,151.0,470.0,166.5,495.5,158.5,490.0,162.5,489.5,168.5,501.5,178.5,505.0,168.0,503.0,167.5,501.5,168.5,500.5,160.5,499.0" stroke="green" stroke-width="1" fill="none" />
<polyline points="160.5,449.0,160.0,456.0,153.0,449.5,151.0,440.0,153.5,435.0,145.5,435.5,148.5,427.5,151.5,436.0,145.5,415.5,144.5,422.0,145.0,421.5,144.5,421.5" stroke="black" stroke-width="1" fill="none" />
<polyline points="" stroke="yellow" stroke-width="1" fill="none" />
<polyline points="" stroke="yellow" stroke-width="1" fill="none" />
<polyline points="144.0,414.0,146.0,410.5,150.5,406.5,153.0,414.5,156.5,408.0,157.5,405.5" stroke="black" stroke-width="1" fill="none" />
<polyline points="144.5,399.5,141.0,419.5,145.5,424.5,149.5,436.5,141.5,439.0,150.0,438.0,159.5,439.5,158.0,434.0,145.0,443.0,151.0,443.5" stroke="black" stroke-width="1" fill="none" />
<polyline points="149.0,429.0,157.5,405.0,148.5,411.0,147.5,403.0,146.0,399.5,153.0,397.0,141.5,391.0,142.0,394.0" stroke="green" stroke-width="1" fill="none" />
<polyline points="151.5,395.5,152.5,397.0,141.5,396.0" stroke="green" stroke-width="1" fill="none" />
<polyline points="" stroke="orange" stroke-width="1" fill="none" />
<polyline points="148.0,404.0,145.0,408.0,143.0,403.5,137.0,400.5,120.5,401.5,126.0,397.5,124.5,405.0,123.0,400.5,124.0,400.5" stroke="green" stroke-width="1" fill="none" />
<polyline points="120.5,399.0,120.0,399.5,127.0,404.0,132.0,398.0,116.0,408.5,136.0,404.5,131.0,404.5,127.0,404.5,130.5,399.5,130.0,404.0" stroke="black" stroke-width="1" fill="none" />
<polyline points="134.0,391.0,141.5,396.0,142.0,388.5,131.5,396.5,139.0,378.0,130.5,377.5,142.0,373.5,143.5,381.0,147.5,368.5,152.0,366.5,146.0,357.0,134.5,343.5,144.0,345.5,148.5,346.0,141.0,347.5,133.5,349.5,129.5,341.5,139.0,336.5,143.5,339.5,133.0,328.0,122.5,312.0,138.0,311.5,123.0,319.5,124.0,300.0,119.5,309.0,129.0,290.0,133.5,295.0,134.5,286.5,138.0,294.5,125.0,279.0,133.5,276.0,129.5,270.0,128.5,268.0,123.5,266.0" stroke="orange" stroke-width="1" fill="none" />
<polyline points="130.0,278.0,126.5,277.0,127.5,286.0,127.0,290.0,115.0,302.5,132.0,291.5,114.5,303.0,135.5,291.0,125.5,303.5,112.0,315.5,109.5,332.5,116.0,314.5,112.0,318.5,121.5,323.5,113.0,334.0,112.0,333.0,118.0,336.0,116.0,339.0,121.0,334.5,117.0,336.0" stroke="yellow" stroke-width="1" fill="none" />
<polyline points="" stroke="orange" stroke-width="1" fill="none" />
<polyline points="114.0,345.5,119.5,354.5,133.0,362.5,116.0,373.0,114.5,356.0,109.5,373.5,115.5,371.5,110.0,377.5,117.0,395.0,114.5,391.0,121.0,383.5,118.5,400.0,121.5,405.0" stroke="green" stroke-width="1" fill="none" />
<polyline points="111.5,376.5,114.5,378.5,123.0,390.5,126.0,386.5,119.0,371.5,129.5,379.0,117.0,374.5,114.5,355.5,119.5,375.5,119.5,368.5,115.5,373.0" stroke="black" stroke-width="1" fill="none" />
<polyline points="128.5,378.0,132.5,380.0,128.5,379.5" stroke="yellow" stroke-width="1" fill="none" />
<polyline points="123.0,385.0,124.5,399.5,126.0,401.0,128.0,400.0" stroke="orange" stroke-width="1" fill="none" />
<polyline points="125.5,384.0,135.0,400.0,145.5,397.0,135.5,391.5,146.0,387.5,138.5,390.5,141.5,399.0,138.5,396.5,142.5,395.0,139.5,393.5" stroke="yellow" stroke-width="1" fill="none" />
<polyline points="" stroke="yellow" stroke-width="1" fill="none" />
<polyline points="120.5,397.5,120.0,398.0,119.0,395.0,121.5,397.5,113.0,403.5,115.0,402.5,114.5,399.5,110.5,398.5" stroke="yellow" stroke-width="1" fill="none" />
<polyline points="123.5,412.5,123.0,410.0,119.5,404.5,121.5,417.5,119.0,419.0,131.0,423.5,141.0,414.5" stroke="black" stroke-width="1" fill="none" />
<polyline points="" stroke="green" stroke-width="1" fill="none" />
<polyline points="" stroke="green" stroke-width="1" fill="none" />
<polyline points="" stroke="green" stroke-width="1" fill="none" />
<polyline points="" stroke="yellow" stroke-width="1" fill="none" />
<polyline points="" stroke="yellow" stroke-width="1" fill="none" />
<polyline points="158.0,384.0,155.5,386.0,155.0,392.5,150.0,381.0,148.5,379.5" stroke="green" stroke-width="1" fill="none" />
<polyline points="172.0,404.0,168.0,407.5,172.0,413.0,181.0,412.0,176.0,416.0,173.0,415.0,178.0,406.5,170.5,414.5,173.0,411.0" stroke="yellow" stroke-width="1" fill="none" />
<polyline points="150.5,407.0,167.0,402.5,165.0,393.0,142.0,390.0,145.0,395.5,143.5,391.5,146.0,393.0,139.5,392.5,138.0,387.5,142.0,383.0,150.5,381.5,136.0,380.5,141.5,382.5,133.5,373.0,144.5,369.0,132.5,367.5,143.0,350.0,143.0,347.5,145.0,361.5,135.5,347.5,127.5,339.5,124.5,335.0,125.5,338.0,143.0,326.0,142.0,330.0,139.5,320.0,139.0,320.5" stroke="green" stroke-width="1" fill="none" />
<polyline points="133.0,326.0,127.5,347.5" stroke="yellow" stroke-width="1" fill="none" />
<polyline points="123.5,351.0,125.0,354.0,114.0,351.5,122.5,358.5,115.5,368.0,119.0,373.0,122.5,375.5,124.5,378.5,122.0,381.5,137.5,387.5,133.0,381.0,133.5,390.0,131.0,401.5,133.5,396.0" stroke="orange" stroke-width="1" fill="none" />
<polyline points="" stroke="green" stroke-width="1" fill="none" />
<polyline points="" stroke="black" stroke-width="1" fill="none" />
<polyline points="" stroke="orange" stroke-width="1" fill="none" />
<polyline points="" stroke="orange" stroke-width="1" fill="none" />
<polyline points="127.0,357.5,128.0,355.5,133.0,351.5,122.5,353.0,134.5,368.0,142.5,368.0,128.0,373.5,129.0,370.0,129.0,373.5" stroke="black" stroke-width="1" fill="none" />
<polyline points="139.0,361.0,145.5,351.5,140.0,348.0,148.0,353.0,131.0,348.5" stroke="orange" stroke-width="1" fill="none" />
<polyline points="142.0,350.5,138.0,350.5,136.5,342.5" stroke="orange" stroke-width="1" fill="none" />
<polyline points="" stroke="orange" stroke-width="1" fill="none" />
<polyline points="134.0,340.5,146.0,348.5,141.0,337.0,143.5,334.5,146.5,337.0,143.0,335.0,151.5,334.0" stroke="black" stroke-width="1" fill="none" />
<polyline points="140.5,350.0,130.5,336.0,139.0,342.5,135.0,347.5,140.5,343.5,134.5,340.5" stroke="orange" stroke-width="1" fill="none" />
<polyline points="116.0,363.0,109.5,362.5,110.0,368.0,110.5,373.5,117.0,369.0,108.0,376.0,117.5,380.5,125.0,383.0,119.5,392.0,114.0,392.5,116.0,399.5,114.0,411.0,121.5,399.5,117.0,406.5,118.0,421.5,102.0,422.5,109.0,419.5,112.0,420.5,117.0,418.0,118.0,418.5" stroke="orange" stroke-width="1" fill="none" />
<polyline points="113.0,412.0" stroke="green" stroke-width="1" fill="none" />
<polyline points="124.5,424.0,125.5,422.0,126.5,418.5,126.5,423.0" stroke="orange" stroke-width="1" fill="none" />
<polyline points="" stroke="green" stroke-width="1" fill="none" />
<polyline points="" stroke="green" stroke-width="1" fill="none" />
<polyline points="109.5,435.0,121.0,423.0,119.0,441.0,120.0,447.0,122.0,441.0,120.5,441.0,119.0,441.0" stroke="black" stroke-width="1" fill="none" />
<polyline points="" stroke="orange" stroke-width="1" fill="none" />
<polyline points="" stroke="yellow" stroke-width="1" fill="none" />
<polyline points="125.0,457.0,122.5,452.0,131.5,451.0,128.0,443.0,120.5,447.5,125.0,448.0" stroke="yellow" stroke-width="1" fill="none" />
<polyline points="" stroke="yellow" stroke-width="1" fill="none" />
<polyline points="" stroke="black" stroke-width="1" fill="none" />
<polyline points="100.0,446.5,89.5,449.5,95.5,453.5,96.5,453.5,98.0,444.5" stroke="green" stroke-width="1" fill="none" />
<polyline points="85.0,463.5,84.0,460.5,84.5,459.5,98.0,454.5,94.0,456.0,88.0,448.0" stroke="yellow" stroke-width="1" fill="none" />
<polyline points="97.0,467.0" stroke="green" stroke-width="1" fill="none" />
<polyline points="96.5,497.5,99.0,502.0,103.5,501.0,99.5,508.0,110.0,513.0,103.5,512.5,109.5,514.0,97.0,512.0,100.0,515.0,100.5,512.0" stroke="yellow" stroke-width="1" fill="none" />
<polyline points="105.5,489.5,102.5,494.5" stroke="yellow" stroke-width="1" fill="none" />
<polyline points="112.5,484.5,107.5,498.5,115.5,495.5,122.5,505.5,124.5,516.5,116.5,515.5,117.5,513.5" stroke="yellow" stroke-width="1" fill="none" />
<polyline points="97.5,503.5,102.0,502.5,97.5,502.0,96.0,509.0" stroke="green" stroke-width="1" fill="none" />
<polyline points="98.5,500.5,101.5,518.5,103.0,518.5" stroke="black" stroke-width="1" fill="none" />
<polyline points="120.0,497.0,120.5,498.0,128.5,493.0,123.0,490.0" stroke="yellow" stroke-width="1" fill="none" />
<polyline points="126.0,490.5,128.0,492.5,134.0,508.0,128.5,504.5,127.5,503.0,126.5,513.0,133.0,508.5" stroke="yellow" stroke-width="1" fill="none" />
<polyline points="154.0,446.0,150.0,418.5,142.5,422.5,141.0,415.5,124.5,418.0,124.5,420.5,127.0,416.0" stroke="green" stroke-width="1" fill="none" />
<polyline points="138.0,422.0,135.5,420.5,128.0,422.0,150.0,436.0,139.0,435.0,142.5,441.0,150.5,449.0,146.5,452.5,142.0,451.5,133.0,458.5,138.5,456.5,130.5,474.5,134.5,457.5,138.5,454.5,139.5,463.0" stroke="orange" stroke-width="1" fill="none" />
<polyline points="136.5,440.0,137.0,442.5,146.5,422.5,135.5,426.0,139.0,424.0,142.5,427.0,140.5,431.0,141.0,432.5" stroke="orange" stroke-width="1" fill="none" />
<polyline points="124.0,433.5,123.5,420.0,128.5,418.5,126.5,415.5,129.0,417.5" stroke="yellow" stroke-width="1" fill="none" />
<polyline points="115.5,414.0,122.0,435.0,116.0,436.0" stroke="yellow" stroke-width="1" fill="none" />
<polyline points="" stroke="yellow" stroke-width="1" fill="none" />
<polyline points="101.5,409.0,111.0,419.0,104.0,433.5,107.0,441.0,106.5,436.0" stroke="orange" stroke-width="1" fill="none" />
<polyline points="93.5,436.0,87.5,436.0,88.0,442.0,94.0,447.0,103.5,442.5,94.5,441.5,100.0,422.5,105.0,424.5" stroke="green" stroke-width="1" fill="none" />
<polyline points="99.0,432.0,93.0,421.0,98.5,429.0,88.5,424.5" stroke="yellow" stroke-width="1" fill="none" />
<polyline points="96.5,418.0,78.5,428.5,85.5,416.5,86.0,413.0,90.0,422.5" stroke="yellow" stroke-width="1" fill="none" />
<polyline points="" stroke="orange" stroke-width="1" fill="none" />
<polyline points="" stroke="green" stroke-width="1" fill="none" />
<polyline points="99.0,386.0,87.5,402.5,106.0,398.0,100.0,404.5" stroke="green" stroke-width="1" fill="none" />
<polyline points="98.5,408.0,86.5,403.0,91.0,396.0,99.5,407.5,88.0,397.0,85.5,405.0,99.5,392.5,83.5,389.0,95.5,383.5,80.0,385.0,90.0,389.0,86.5,383.5,87.0,385.5" stroke="green" stroke-width="1" fill="none" />
<polyline points="74.5,400.0,75.5,404.0,69.0,417.0,71.5,422.0,68.0,415.0,67.5,420.0,63.5,428.0,66.0,424.0,76.0,431.0,73.5,434.5,73.0,433.0,70.0,439.5,62.0,440.5,70.5,443.0,72.0,449.0,70.0,457.0,69.5,457.0,73.0,464.0,82.5,459.5,66.5,473.5,57.5,476.5,70.0,484.0,65.5,483.5,60.0,491.0,72.0,492.5,66.5,502.5,71.0,499.5,61.5,499.0,68.0,502.5,67.0,515.0,58.0,507.5,69.5,503.0,72.5,500.0,70.5,495.5" stroke="yellow" stroke-width="1" fill="none" />
<polyline points="" stroke="orange" stroke-width="1" fill="none" />
<polyline points="71.0,489.5" stroke="green" stroke-width="1" fill="none" />
<polyline points="67.5,476.5,55.0,475.5,65.0,481.5,68.5,483.0,61.0,482.0,66.5,486.5,69.5,496.5,69.0,495.5,70.0,489.5,71.5,492.0" stroke="yellow" stroke-width="1" fill="none" />
<polyline points="76.0,457.5,82.5,455.0,85.0,443.5,83.0,444.0,81.0,441.5" stroke="orange" stroke-width="1" fill="none" />
<polyline points="" stroke="black" stroke-width="1" fill="none" />
<polyline points="80.0,454.5,76.0,449.5,76.0,447.0" stroke="green" stroke-width="1" fill="none" />
<polyline points="66.5,471.5,67.5,464.0,60.5,467.0,61.0,461.5,68.0,469.5,69.0,473.5,73.5,484.5" stroke="yellow" stroke-width="1" fill="none" />
<polyline points="" stroke="orange" stroke-width="1" fill="none" />
<polyline points="16.5,494.5,18.5,506.5,19.0,509.5,17.0,510.5" stroke="yellow" stroke-width="1" fill="none" />
<polyline points="25.5,497.5,25.5,499.0,24.0,494.5" stroke="black" stroke-width="1" fill="none" />
<polyline points="" stroke="green" stroke-width="1" fill="none" />
<polyline points="15.0,412.0,8.5,420.0,8.0,421.0,3.5,427.5,9.5,429.5,10.5,445.0,12.0,442.5,15.0,440.0,9.0,439.5,13.0,443.5,18.0,451.0,17.0,455.0,14.5,463.5,8.5,459.5,20.5,472.0,24.0,473.5,18.5,475.5,20.5,477.0" stroke="black" stroke-width="1" fill="none" />
<polyline points="22.0,460.5,35.5,455.0,27.0,454.0,28.0,456.0,29.5,444.0,31.0,445.5,25.5,440.0" stroke="orange" stroke-width="1" fill="none" />
<polyline points="26.0,415.5" stroke="yellow" stroke-width="1" fill="none" />
<polyline points="19.0,420.0,11.5,418.5,15.0,425.0,17.5,428.5,20.5,443.5,35.0,440.0,8.5,441.0,28.0,447.5,26.5,451.5,29.0,451.5,17.5,455.5,28.5,457.5,28.0,460.0,21.0,472.5,27.0,472.5,35.5,476.0,24.0,474.0,29.5,482.0,27.5,496.0,22.0,496.5,34.0,501.0,29.5,503.0" stroke="orange" stroke-width="1" fill="none" />
<polyline points="62.5,432.5,67.5,436.0" stroke="black" stroke-width="1" fill="none" />
<polyline points="73.5,425.5,77.0,428.5,67.0,429.5,67.5,412.5,67.5,411.0,69.5,417.0,64.0,407.0,71.5,409.0,77.0,405.0,75.0,399.0,83.5,392.5,63.5,404.5" stroke="green" stroke-width="1" fill="none" />
<polyline points="" stroke="green" stroke-width="1" fill="none" />
<polyline points="" stroke="green" stroke-width="1" fill="none" />
<polyline points="" stroke="green" stroke-width="1" fill="none" />
<polyline points="77.5,421.5,78.5,423.0,75.5,430.5" stroke="green" stroke-width="1" fill="none" />
<polyline points="100.5,445.5,101.5,441.0,101.0,433.5,102.0,441.5,104.5,438.0,97.5,443.0" stroke="black" stroke-width="1" fill="none" />
<polyline points="" stroke="black" stroke-width="1" fill="none" />
<polyline points="93.0,419.0,89.5,420.5" stroke="black" stroke-width="1" fill="none" />
<polyline points="100.0,398.5,100.5,395.5,100.0,393.5,92.5,396.5" stroke="green" stroke-width="1" fill="none" />
<polyline points="98.5,367.0,99.5,377.5,104.5,380.5,98.5,364.5,111.0,358.0,102.5,361.0,108.0,357.0,108.5,355.5,106.0,362.0,111.0,352.5,112.0,338.0,108.0,336.5,106.0,337.5" stroke="orange" stroke-width="1" fill="none" />
<polyline points="98.5,335.0,104.0,336.0,103.0,334.0,106.0,336.0,99.0,341.5,105.5,337.0" stroke="green" stroke-width="1" fill="none" />
<polyline points="" stroke="black" stroke-width="1" fill="none" />
<polyline points="103.5,323.5,110.0,309.0,119.0,318.5,123.0,305.0,128.0,305.5,124.5,312.0,116.0,314.0,114.0,325.0,108.0,305.5,103.0,308.0,115.5,308.5,110.0,322.5,100.5,317.0,99.5,314.0,109.0,322.0,108.0,308.5,124.0,306.0,114.0,299.5,118.5,303.0,121.0,292.0,125.0,299.5,123.0,301.5,121.5,298.0" stroke="black" stroke-width="1" fill="none" />
<polyline points="127.0,313.5,120.0,315.0,114.0,312.5,110.0,320.5,124.5,321.0,109.5,328.5,99.5,325.0,93.0,339.0,90.5,336.0,101.0,346.0,89.5,333.0,90.5,333.0,91.0,329.0" stroke="yellow" stroke-width="1" fill="none" />
<polyline points="" stroke="black" stroke-width="1" fill="none" />
<polyline points="86.5,377.5,91.5,373.0,98.5,383.5,87.5,393.5,86.0,400.0,95.5,393.0,85.0,385.5,85.5,406.5,91.5,404.5,96.0,401.5,93.0,413.5,94.5,410.0,106.5,404.5,110.0,421.5,99.0,407.0,109.5,398.5,109.5,400.5" stroke="orange" stroke-width="1" fill="none" />
<polyline points="122.0,349.5,133.0,349.0,132.0,351.5,128.0,354.5" stroke="orange" stroke-width="1" fill="none" />
<polyline points="111.5,375.0,127.5,393.0,128.5,388.5,130.5,395.5,124.0,382.0,130.5,402.0,129.5,407.5,132.0,400.5,136.5,397.0,133.0,400.0" stroke="orange" stroke-width="1" fill="none" />
<polyline points="120.5,363.5,122.0,357.0,118.5,352.5,117.0,357.5,119.0,358.5" stroke="black" stroke-width="1" fill="none" />
<polyline points="119.0,372.0,124.0,376.0,133.0,382.5,133.5,382.5" stroke="orange" stroke-width="1" fill="none" />
<polyline points="" stroke="black" stroke-width="1" fill="none" />
<polyline points="134.5,360.5,130.0,359.0,131.5,373.0,138.5,367.0" stroke="orange" stroke-width="1" fill="none" />
<polyline points="179.5,368.5,178.5,352.5,176.0,359.0,179.5,344.5,185.5,344.0" stroke="green" stroke-width="1" fill="none" />
<polyline points="173.5,338.0,159.5,342.0,168.5,354.0,156.0,361.0,160.0,367.0,162.5,366.5,163.0,368.0,159.5,355.0,174.0,355.0,176.5,350.5,174.0,343.0,179.5,328.0,184.5,332.0,187.0,331.5,185.5,340.5,188.0,320.0,192.0,322.5,188.0,325.0,194.5,326.5" stroke="yellow" stroke-width="1" fill="none" />
<polyline points="" stroke="orange" stroke-width="1" fill="none" />
<polyline points="195.5,362.0,193.5,350.0,191.5,350.5,187.5,347.5,190.5,346.0,192.5,342.5" stroke="green" stroke-width="1" fill="none" />
<polyline points="167.0,365.5,167.5,358.0,172.0,356.5,171.5,360.0" stroke="yellow" stroke-width="1" fill="none" />
<polyline points="161.0,367.5,167.0,370.0,161.5,356.5,166.5,358.5,159.0,369.5,157.0,364.0,159.5,365.5,167.5,352.0,173.0,355.0,177.0,348.0,177.5,345.0,178.0,340.5,182.5,337.5,186.0,334.0,175.0,329.0,156.0,324.5,168.0,340.0,154.5,338.5,164.0,341.0,162.5,337.0,168.0,329.5,158.5,332.0,171.0,331.0" stroke="orange" stroke-width="1" fill="none" />
<polyline points="172.0,325.5,170.5,347.0,167.0,338.5,169.5,335.5" stroke="green" stroke-width="1" fill="none" />
<polyline points="" stroke="black" stroke-width="1" fill="none" />
<polyline points="168.5,320.0,163.5,322.5,160.5,322.5,145.0,338.0,154.5,348.0,159.5,336.0,147.0,349.0,139.0,335.5,139.5,332.5,136.0,337.5,133.5,333.5,137.0,325.5,129.5,320.0,131.5,312.0,128.0,303.0,132.5,317.0,128.0,306.0,139.0,298.0,132.5,297.0,133.5,300.5,136.5,287.5,141.5,298.5,137.0,281.5,135.5,270.5,137.5,283.5,128.0,283.0,141.0,286.0,136.5,276.5,145.0,282.5,140.5,273.0,139.5,280.0,152.5,270.0,153.5,249.5,156.5,250.0,166.5,246.0,163.5,246.0,164.0,245.0,158.0,242.0,147.5,247.5" stroke="green" stroke-width="1" fill="none" />
<polyline points="144.0,253.0" stroke="black" stroke-width="1" fill="none" />
<polyline points="141.0,247.5,141.0,246.5,144.0,234.5,149.5,245.5,147.0,247.5,157.5,249.0,154.5,256.0,153.0,260.0" stroke="green" stroke-width="1" fill="none" />
<polyline points="148.0,265.0,142.5,270.5,134.5,276.5,134.5,272.0,136.5,278.0,137.5,278.5" stroke="black" stroke-width="1" fill="none" />
<polyline points="151.5,255.5,155.0,258.0,158.5,253.5,156.0,260.5,154.0,265.0,153.0,266.5,150.5,271.5,151.0,276.0,143.5,273.0,148.0,293.0,151.5,280.5,153.5,282.5,160.0,277.0,163.0,279.0,163.0,296.5,160.0,299.0,152.5,299.0,165.0,308.5,168.0,317.5,163.5,316.5,156.0,312.5,162.0,314.5,171.0,314.0,173.0,309.0,170.0,298.5,173.0,301.5,169.0,292.5,185.0,284.5,186.5,287.0,182.0,292.5,183.0,288.5" stroke="orange" stroke-width="1" fill="none" />
<polyline points="" stroke="yellow" stroke-width="1" fill="none" />
<polyline points="" stroke="yellow" stroke-width="1" fill="none" />
<polyline points="173.5,294.0,175.0,295.5,177.0,295.0,173.5,311.0,173.5,304.5,181.5,304.0,177.5,307.0,180.0,305.5,180.5,308.0" stroke="green" stroke-width="1" fill="none" />
<polyline points="" stroke="orange" stroke-width="1" fill="none" />
<polyline points="174.5,312.0,167.0,299.5,175.0,297.0,183.5,301.0,169.5,284.5,166.5,287.5,171.5,293.5,159.0,294.5,163.0,286.0,161.5,288.5,176.0,284.0,179.0,284.5,178.0,287.0,162.0,285.0,169.0,284.0,164.0,292.5,166.0,284.5,168.5,296.0,164.5,274.5,168.5,280.5,165.0,272.5,164.5,270.5,164.5,263.5,172.0,266.0,172.5,262.5,168.5,263.5,169.0,258.5,171.0,249.5,181.0,248.0,172.0,236.5,175.5,234.5,180.0,232.0,180.0,245.5,174.5,247.0,177.5,245.0,176.5,239.0" stroke="yellow" stroke-width="1" fill="none" />
<polyline points="183.5,235.5,181.0,242.0,178.5,243.0,181.5,247.0,176.0,252.5,172.0,247.5,185.0,258.5,187.5,255.5,185.5,257.0,181.5,258.5" stroke="yellow" stroke-width="1" fill="none" />
<polyline points="186.5,256.0,189.5,257.5,179.0,252.0,182.0,246.0,185.5,245.0,185.5,245.5,186.0,250.0,188.5,251.0" stroke="yellow" stroke-width="1" fill="none" />
<polyline points="228.0,272.0,222.0,270.5,224.0,274.5,238.5,267.0,232.0,270.0,226.5,265.5,225.0,272.0" stroke="green" stroke-width="1" fill="none" />
<polyline points="208.5,319.0,212.5,322.0,220.5,324.0,210.0,327.5,221.5,329.5,213.0,332.0,220.0,337.5" stroke="black" stroke-width="1" fill="none" />
<polyline points="258.0,387.0,249.0,386.0,253.0,376.5,256.0,396.5,260.0,376.0" stroke="black" stroke-width="1" fill="none" />
<polyline points="264.5,384.5,266.5,383.5,256.5,374.0,250.0,390.5,252.5,398.5,255.5,395.0,249.5,392.0,245.0,398.0,248.0,391.0" stroke="yellow" stroke-width="1" fill="none" />
<polyline points="" stroke="black" stroke-width="1" fill="none" />
<polyline points="285.5,350.0,280.0,347.0" stroke="yellow" stroke-width="1" fill="none" />
<polyline points="220.0,353.0,216.0,349.5,221.5,352.0,219.5,338.5,221.0,337.0,220.5,330.0,226.5,332.5,227.5,326.5,224.5,312.5,224.0,310.0,224.0,313.5,218.5,301.0,223.5,305.0,222.5,308.5" stroke="orange" stroke-width="1" fill="none" />
<polyline points="176.0,288.5,168.0,284.5,174.5,291.0,175.5,291.0" stroke="black" stroke-width="1" fill="none" />
<polyline points="175.5,301.5,174.5,300.0,181.5,311.0,172.0,313.0,176.0,308.0" stroke="black" stroke-width="1" fill="none" />
<polyline points="155.5,316.0,159.0,309.5,164.5,300.5,156.0,307.0,156.0,318.5,150.0,323.0,157.0,317.5,153.5,320.5" stroke="black" stroke-width="1" fill="none" />
<polyline points="" stroke="orange" stroke-width="1" fill="none" />
<polyline points="166.5,312.5,164.5,311.0,163.5,319.5,160.0,315.0,158.0,323.0,160.0,317.5,164.0,311.5,160.5,313.5" stroke="green" stroke-width="1" fill="none" />
<polyline points="" stroke="orange" stroke-width="1" fill="none" />
<polyline points="" stroke="yellow" stroke-width="1" fill="none" />
<polyline points="" stroke="yellow" stroke-width="1" fill="none" />
<polyline points="150.0,281.0,151.5,281.5" stroke="yellow" stroke-width="1" fill="none" />
<polyline points="171.5,301.0" stroke="black" stroke-width="1" fill="none" />
<polyline points="177.5,301.5,173.5,300.5,179.5,302.0,172.5,307.5,164.0,308.5,168.5,303.0" stroke="orange" stroke-width="1" fill="none" />
<polyline points="158.5,294.0,155.5,296.0" stroke="yellow" stroke-width="1" fill="none" />
<polyline points="159.5,288.0,165.0,290.5,156.0,299.0,175.0,294.5,168.5,300.0,168.5,296.0" stroke="black" stroke-width="1" fill="none" />
<polyline points="169.5,279.0,170.5,277.5,170.5,300.5,167.0,291.5,168.5,300.5,165.0,311.0,170.0,311.5,171.5,308.0,160.5,318.0,161.0,313.0,166.0,315.5,162.0,331.0,162.0,327.0,149.5,329.5,154.5,333.5,155.5,342.5,149.0,340.5,144.5,351.0,155.5,354.0,149.0,359.5,142.0,346.0,146.5,346.0,148.5,345.0,153.0,350.5,170.5,350.0,163.5,344.5,164.5,340.0,162.0,342.0,161.0,340.0" stroke="yellow" stroke-width="1" fill="none" />
<polyline points="" stroke="orange" stroke-width="1" fill="none" />
<polyline points="157.5,279.0,163.5,273.5,175.5,270.0,163.5,262.5" stroke="black" stroke-width="1" fill="none" />
<polyline points="173.0,263.5,163.5,262.5,168.0,272.5,171.5,279.0,167.5,277.0,169.5,276.0" stroke="yellow" stroke-width="1" fill="none" />
<polyline points="" stroke="orange" stroke-width="1" fill="none" />
<polyline points="150.5,276.5,161.5,276.5,159.0,273.0,161.5,282.0,165.0,280.0,167.0,286.5,164.0,287.0,183.0,283.0,170.0,296.0,173.5,282.5,178.5,282.5,175.0,280.5,174.0,277.5" stroke="black" stroke-width="1" fill="none" />
<polyline points="166.0,288.0,164.5,290.0,170.5,284.5,157.0,283.0,170.0,290.0" stroke="yellow" stroke-width="1" fill="none" />
<polyline points="160.0,285.0,166.0,282.0,157.0,296.0,161.0,293.0,161.0,289.0,159.5,289.0,159.5,285.5,161.5,285.5,158.5,289.0" stroke="black" stroke-width="1" fill="none" />
<polyline points="149.0,301.0,145.5,304.0,150.0,287.5,162.0,291.5,153.0,275.5,157.5,277.5,149.0,271.0,155.0,257.0,152.5,264.5,163.0,266.5,163.5,246.5,168.5,250.5,164.0,252.0,165.5,248.5,163.5,244.5,158.0,238.0,165.5,253.0,157.0,255.0,155.5,249.5,146.5,249.5,140.0,253.5,154.5,250.5,140.0,268.5,132.0,252.0,138.5,263.0,122.5,255.0,130.0,273.5,125.5,269.5,136.0,261.5,136.5,249.5,137.0,246.0,126.0,249.5,132.0,242.0,144.0,243.0,136.0,237.0,139.0,237.0,142.0,225.0,133.0,228.5,135.0,219.0,138.5,231.5,136.5,227.5,139.0,217.0,117.5,210.0,130.0,202.5,124.5,196.0,127.5,198.5,111.5,193.5,123.0,193.5,123.0,175.5,118.0,191.5,117.5,181.0,120.0,170.5,114.0,162.0,114.0,151.0,121.5,166.5,111.5,146.5,115.0,140.5,115.5,139.5,118.5,140.0,125.0,141.0,123.5,130.5,123.5,134.5,129.5,125.5,131.5,131.0,136.5,117.5,135.0,122.5,134.5,105.0,137.5,116.0,127.0,91.0,143.5,100.5,140.0,107.5,141.0,101.0,140.0,94.0,132.5,107.0,141.0,109.0,134.5,102.0,143.0,109.0" stroke="black" stroke-width="1" fill="none" />
<polyline points="130.0,101.5,130.0,102.0,134.5,111.5,144.0,108.5,139.0,117.5,129.0,129.0,128.5,123.0,133.0,136.5,131.5,132.0,132.0,138.5,137.5,136.0,136.5,148.0,135.5,146.5,128.0,142.0,124.5,149.0,124.0,155.5,128.5,148.5,128.0,155.0,124.5,158.5,122.0,161.0" stroke="orange" stroke-width="1" fill="none" />
<polyline points="128.5,154.5,130.0,153.0,132.5,156.0,136.5,154.0,129.0,159.0,122.5,171.0,130.0,165.0,126.0,170.0,133.5,156.0,123.0,162.5,130.0,167.0,128.5,170.0,126.0,177.0,132.0,175.5,131.5,178.0,130.5,175.5" stroke="orange" stroke-width="1" fill="none" />
<polyline points="147.5,180.0,145.5,181.0,149.5,186.5,121.5,177.0,136.0,182.5,138.5,179.0,138.0,171.5,135.5,174.0,136.0,177.5,134.0,177.5" stroke="green" stroke-width="1" fill="none" />
<polyline points="128.0,173.5,136.0,175.5,131.0,180.0,139.0,173.5,127.5,172.0,138.0,171.5,135.0,172.5,137.0,169.0,140.5,169.0,140.5,162.5" stroke="green" stroke-width="1" fill="none" />
<polyline points="140.5,177.5,142.0,178.0,135.5,183.5" stroke="orange" stroke-width="1" fill="none" />
<polyline points="126.0,171.5,143.0,170.5,147.5,167.5" stroke="green" stroke-width="1" fill="none" />
<polyline points="136.5,181.0,140.0,171.0,144.0,175.5,146.0,191.0,134.0,179.5,147.0,206.0,144.5,197.0,142.5,195.0,149.5,190.5" stroke="orange" stroke-width="1" fill="none" />
<polyline points="" stroke="green" stroke-width="1" fill="none" />
<polyline points="154.0,195.0,148.5,186.5,146.5,195.5" stroke="green" stroke-width="1" fill="none" />
<polyline points="" stroke="green" stroke-width="1" fill="none" />
<polyline points="153.5,187.5,147.5,184.5,146.0,194.0,141.0,182.5,141.5,193.0,150.0,179.0,150.0,185.5,146.0,184.0,145.5,185.0" stroke="black" stroke-width="1" fill="none" />
<polyline points="156.5,183.0,147.0,197.5,147.5,196.0" stroke="yellow" stroke-width="1" fill="none" />
<polyline points="145.5,184.5,152.5,186.0,149.0,188.0" stroke="orange" stroke-width="1" fill="none" />
<polyline points="165.5,178.0,168.0,173.5,167.5,183.5,175.5,168.0,169.5,166.0,177.0,169.0,177.0,157.5,183.5,158.5,189.0,155.0,198.0,152.5,203.0,153.0,207.5,146.0,202.5,146.0" stroke="black" stroke-width="1" fill="none" />
<polyline points="210.5,153.0,202.0,153.0,209.0,150.5,211.0,153.0,210.0,151.5" stroke="orange" stroke-width="1" fill="none" />
<polyline points="222.0,157.5,227.0,151.5,225.0,153.5,226.0,158.5,217.0,155.5,209.5,152.5" stroke="yellow" stroke-width="1" fill="none" />
<polyline points="220.0,142.0,214.0,142.0" stroke="orange" stroke-width="1" fill="none" />
<polyline points="228.5,162.5,221.5,172.5,216.5,186.0,216.0,195.5,210.0,185.0,209.0,183.5,207.5,194.0,202.0,191.5,204.0,191.0,194.5,191.0" stroke="green" stroke-width="1" fill="none" />
<polyline points="213.0,184.5,221.0,185.0,217.0,183.0,210.5,188.5,222.5,181.0,218.0,171.5,227.5,181.0,234.5,175.0,238.5,171.0,246.0,175.5,243.5,173.0,247.5,179.0,236.0,180.5,237.5,184.0" stroke="green" stroke-width="1" fill="none" />
<polyline points="233.0,188.0,237.5,180.5,232.5,193.5,221.0,198.5,221.5,194.0,217.0,205.5,201.0,214.0,202.5,213.0,200.5,216.0,200.5,223.0,206.0,229.5,209.0,228.5,212.0,235.5,209.0,234.5,213.5,231.5" stroke="yellow" stroke-width="1" fill="none" />
<polyline points="210.0,204.0,202.5,202.5,206.5,203.5,220.5,189.5,217.5,186.0,218.5,193.0,228.0,194.5,228.5,181.5,229.5,181.0" stroke="yellow" stroke-width="1" fill="none" />
<polyline points="210.5,205.0,214.5,202.5,208.5,202.5,211.0,211.0,203.5,205.0,199.5,211.0,207.0,199.5,223.0,201.0,234.0,195.5,228.5,204.0,225.0,199.5,226.0,191.5,223.0,201.0,223.5,198.5" stroke="green" stroke-width="1" fill="none" />
<polyline points="226.0,191.0,220.5,199.0" stroke="green" stroke-width="1" fill="none" />
<polyline points="214.5,177.0,219.5,185.0,209.0,185.0" stroke="yellow" stroke-width="1" fill="none" />
<polyline points="230.0,176.0,227.5,182.0,230.0,193.0,220.0,199.0,221.0,199.5" stroke="green" stroke-width="1" fill="none" />
<polyline points="" stroke="orange" stroke-width="1" fill="none" />
<polyline points="" stroke="orange" stroke-width="1" fill="none" />
<polyline points="190.0,204.5,199.0,201.5,187.5,198.5,194.0,209.5,189.0,202.0" stroke="green" stroke-width="1" fill="none" />
<polyline points="185.5,192.5,183.5,199.5" stroke="green" stroke-width="1" fill="none" />
<polyline points="193.5,210.5,190.5,215.0,195.0,222.5,183.5,216.5,188.0,223.5,192.0,220.5,190.0,208.5" stroke="black" stroke-width="1" fill="none" />
<polyline points="" stroke="green" stroke-width="1" fill="none" />
<polyline points="177.0,216.0,189.5,215.5,182.5,208.0,188.0,207.0,187.0,208.5" stroke="orange" stroke-width="1" fill="none" />
<polyline points="" stroke="yellow" stroke-width="1" fill="none" />
<polyline points="165.0,214.5,168.0,216.5,159.0,226.0,164.5,229.0,167.5,229.5,167.0,225.0,173.0,222.0,172.0,226.0" stroke="orange" stroke-width="1" fill="none" />
<polyline points="187.5,211.5,178.5,227.0,165.0,220.0,153.0,227.0,182.0,239.0,174.5,238.0,170.5,234.0,171.5,235.0" stroke="black" stroke-width="1" fill="none" />
<polyline points="176.5,244.5,159.0,245.5,169.0,243.5,161.0,246.0,161.0,249.0" stroke="green" stroke-width="1" fill="none" />
<polyline points="159.0,258.0,159.0,262.5,154.0,274.0,129.5,256.5,133.5,271.5,131.5,276.5,133.0,269.0,119.5,281.0,116.5,260.0,110.5,263.0,124.5,262.0,112.5,269.0" stroke="orange" stroke-width="1" fill="none" />
<polyline points="114.5,265.5" stroke="orange" stroke-width="1" fill="none" />
<polyline points="112.5,275.5,121.0,276.0,111.5,284.0,119.0,286.0,107.0,299.5,109.0,304.5,95.5,306.0,91.5,307.5,94.0,307.5,82.5,313.0,79.0,324.5,83.5,321.0,92.5,335.0,84.5,331.5,95.5,341.0,81.0,337.5,84.0,341.5,91.5,348.5,79.0,353.0,77.0,356.5,77.0,350.5,66.0,356.0,76.5,358.5,60.5,359.0,76.5,351.0,73.0,346.0,90.5,333.0,89.0,332.5,90.0,329.5,89.5,333.0,90.0,331.5" stroke="black" stroke-width="1" fill="none" />
<polyline points="97.0,333.5,97.0,326.5,93.5,331.0,86.5,341.0,86.5,343.5,71.5,335.0,81.0,347.0,75.0,352.0,67.0,356.0,68.5,357.0,58.5,362.0,62.5,366.5,64.5,370.5,68.0,365.0,75.5,356.5,72.5,347.0,79.0,344.0,86.0,346.0,86.5,338.5,79.5,349.5,96.5,346.0,88.0,339.0,82.5,349.5,88.5,354.0,70.5,355.0,81.5,374.5,78.5,365.0,79.0,374.0,82.5,369.0,84.5,371.5,82.0,349.0,89.5,361.0,95.5,349.0,96.5,345.5" stroke="black" stroke-width="1" fill="none" />
<polyline points="102.5,344.5,93.0,354.0,109.0,357.0,104.0,372.0,101.5,365.5,91.0,379.0,104.0,377.0,105.5,375.0,105.0,375.5,107.5,371.5,103.0,374.5" stroke="yellow" stroke-width="1" fill="none" />
<polyline points="107.5,368.0,111.5,369.0,109.5,361.5,105.0,357.5,104.5,362.0,103.5,360.5,99.5,356.0,102.5,351.5,96.0,360.0,97.0,359.5" stroke="yellow" stroke-width="1" fill="none" />
<polyline points="109.5,360.5,109.5,361.0,104.5,364.0,106.5,367.0,111.5,362.0,114.0,364.0,109.5,370.5,113.0,365.0,110.5,361.0" stroke="black" stroke-width="1" fill="none" />
<polyline points="114.5,359.0" stroke="black" stroke-width="1" fill="none" />
<polyline points="118.5,349.0,127.5,359.0,123.0,363.0,137.5,358.0" stroke="yellow" stroke-width="1" fill="none" />
<polyline points="" stroke="black" stroke-width="1" fill="none" />
<polyline points="77.0,361.5,85.5,351.0,82.0,351.0,96.5,350.5,74.0,352.5,72.5,355.0,72.0,361.5,77.5,359.5,66.0,379.0,74.5,372.5,72.5,374.0,80.5,368.5,81.0,365.5,81.5,367.5" stroke="yellow" stroke-width="1" fill="none" />
<polyline points="86.0,382.5,84.5,386.5,72.5,378.5,68.5,392.5,66.5,395.5,60.0,388.5,60.0,391.0,54.0,398.5,56.5,406.5,63.0,394.5,74.5,390.5,77.5,388.5,76.5,384.0,78.0,383.5,63.5,384.0,60.5,392.0,68.5,395.5,64.0,389.0,56.0,404.5,66.5,403.0,71.0,399.5,76.0,383.0,81.0,385.0,85.0,380.0,85.5,371.0,93.5,371.5,91.0,369.5,78.0,361.5,94.0,349.5,96.5,360.5,90.0,349.5,94.0,350.0,99.0,359.0,94.0,341.0,100.5,351.5,95.5,345.5,86.0,363.0,93.5,344.5,92.5,340.5,104.0,344.5,100.5,324.0,88.0,329.5,97.0,324.5,97.5,307.5,99.0,317.0,94.5,310.5,99.5,311.5,104.5,309.0,106.5,297.5,109.5,312.5,95.0,312.5,100.5,322.5,96.0,321.0,97.5,315.0,96.0,310.5,99.5,308.0" stroke="orange" stroke-width="1" fill="none" />
<polyline points="85.5,311.5,90.5,314.5,92.0,315.5,85.0,308.5,97.0,302.0,99.5,304.0,118.5,287.0,100.0,294.0,106.0,294.0,114.5,290.5,117.5,287.0,116.5,286.0,118.0,279.5" stroke="orange" stroke-width="1" fill="none" />
<polyline points="93.0,301.5,91.0,310.5,86.0,302.5,82.5,306.5" stroke="black" stroke-width="1" fill="none" />
<polyline points="85.0,293.0,90.0,301.0,79.5,294.5,80.5,297.0,96.5,293.5" stroke="orange" stroke-width="1" fill="none" />
<polyline points="88.0,293.0,86.0,290.0,82.5,295.0,96.5,290.0,101.5,298.0,90.5,284.0,105.5,289.5,107.5,283.0,104.0,283.5" stroke="black" stroke-width="1" fill="none" />
<polyline points="110.5,276.5,111.5,269.5,114.0,274.0,111.0,271.5" stroke="black" stroke-width="1" fill="none" />
<polyline points="114.5,268.5,105.0,271.0,111.5,266.5,105.0,282.0,104.5,279.5,89.0,286.5,78.5,289.5,92.0,290.0,87.5,286.5,107.0,276.5,91.5,279.0,122.0,291.0,108.5,283.5,123.0,291.0,118.5,290.5,121.0,289.5,130.0,287.0" stroke="orange" stroke-width="1" fill="none" />
<polyline points="111.0,285.5,109.5,287.5,98.0,290.0,96.5,286.5,100.0,291.5,85.0,292.5,92.0,295.0,93.0,292.0" stroke="yellow" stroke-width="1" fill="none" />
<polyline points="95.5,270.0,98.0,256.0,117.5,257.5,92.0,262.0,92.0,271.0,100.0,285.0,90.0,283.0,90.5,283.5,93.5,265.0,106.0,273.5,97.0,279.0,103.5,279.0,107.0,271.0,109.5,289.0,111.5,267.5,112.5,283.5,135.5,268.0,130.5,266.5,135.5,264.0,130.0,261.5,129.5,264.0,130.0,262.5" stroke="yellow" stroke-width="1" fill="none" />
<polyline points="136.0,261.0,136.5,263.5,120.0,274.0,119.5,275.5,105.5,290.5,96.0,287.0,96.5,308.0,97.5,293.5,86.0,312.0,77.0,309.5,93.5,307.0,79.5,312.0,73.5,321.5,78.0,320.5,79.5,312.0,77.5,307.5,76.0,311.5" stroke="black" stroke-width="1" fill="none" />
<polyline points="" stroke="yellow" stroke-width="1" fill="none" />
<polyline points="125.0,316.5,124.5,313.5,119.5,313.0,114.0,311.5,112.0,342.0,109.5,312.5,95.0,328.5" stroke="green" stroke-width="1" fill="none" />
<polyline points="66.5,321.0,69.0,324.5,75.0,330.5,64.5,323.0,72.5,329.5,73.5,321.0,70.5,314.0,76.0,314.5,74.5,306.0,78.0,304.5,73.5,316.0,73.0,319.5" stroke="orange" stroke-width="1" fill="none" />
<polyline points="" stroke="yellow" stroke-width="1" fill="none" />
<polyline points="78.5,314.0,76.0,316.0,82.0,306.0,95.0,308.0,99.0,298.0,99.5,297.5" stroke="green" stroke-width="1" fill="none" />
<polyline points="99.5,315.5,105.5,305.5,109.0,309.0,99.0,308.0" stroke="orange" stroke-width="1" fill="none" />
<polyline points="110.0,286.0,103.0,287.5,103.0,289.5,101.5,286.0,103.0,284.5,97.0,286.0,108.0,288.5,109.5,291.5,109.0,288.0,112.5,288.5,109.0,289.5" stroke="orange" stroke-width="1" fill="none" />
<polyline points="107.5,291.0,98.5,290.0,109.0,287.5,110.0,286.5,107.0,286.0,104.5,293.0" stroke="black" stroke-width="1" fill="none" />
<polyline points="92.0,269.5" stroke="black" stroke-width="1" fill="none" />
<polyline points="110.5,297.0,116.5,295.5,108.5,288.0,111.0,306.0,103.0,306.5,98.0,310.5,95.5,323.5,100.0,311.5,98.5,333.5,100.0,343.5,92.5,332.0,100.5,346.0,94.5,341.0,92.5,341.0,103.5,342.5,109.5,326.5,113.0,335.0,119.5,322.0,124.5,304.0,110.0,304.0,127.5,293.0,133.0,298.0,128.5,312.0,133.0,310.0" stroke="black" stroke-width="1" fill="none" />
<polyline points="130.0,327.0,132.0,315.0,129.0,320.5,129.0,334.0,139.5,334.0" stroke="orange" stroke-width="1" fill="none" />
<polyline points="119.0,316.0,129.0,312.0,126.5,326.0,129.5,332.0,106.0,331.5,116.5,339.5,107.5,347.0,99.5,339.0,100.0,344.5,91.0,343.0,94.0,349.5,105.0,352.0,91.5,360.0,109.5,361.5,102.0,378.0,98.5,371.0,93.5,380.0,97.0,392.5,94.5,391.5" stroke="black" stroke-width="1" fill="none" />
<polyline points="77.5,401.5,79.0,403.5,72.0,414.0,62.0,409.5" stroke="yellow" stroke-width="1" fill="none" />
<polyline points="" stroke="orange" stroke-width="1" fill="none" />
<polyline points="126.0,301.0,127.5,301.5,118.0,307.0,113.0,312.5,101.5,322.5,112.0,306.0,105.0,303.5,115.5,304.5,119.0,298.5,123.0,293.0,125.0,292.0" stroke="black" stroke-width="1" fill="none" />
<polyline points="" stroke="green" stroke-width="1" fill="none" />
<polyline points="" stroke="orange" stroke-width="1" fill="none" />
<polyline points="140.5,235.5,136.5,244.5,135.5,250.5,148.0,246.5,146.5,242.5" stroke="green" stroke-width="1" fill="none" />
<polyline points="142.5,236.0,145.0,236.0,131.5,243.0" stroke="green" stroke-width="1" fill="none" />
<polyline points="145.5,238.5,130.0,222.0,141.5,228.5,135.0,223.5,142.5,220.0,144.0,219.5" stroke="black" stroke-width="1" fill="none" />
<polyline points="148.5,210.0,148.5,212.0,146.0,214.5,147.0,206.0,144.5,208.0" stroke="yellow" stroke-width="1" fill="none" />
<polyline points="144.5,206.5,149.5,212.5,147.0,209.0,144.5,206.0" stroke="orange" stroke-width="1" fill="none" />
<polyline points="137.0,191.0,132.0,184.0,138.5,197.5,135.0,188.5,150.0,181.0,140.0,175.0,139.0,187.0,141.0,184.0" stroke="green" stroke-width="1" fill="none" />
<polyline points="" stroke="yellow" stroke-width="1" fill="none" />
<polyline points="155.0,177.5,150.5,186.5,143.0,186.0,138.0,190.5,132.0,191.0" stroke="yellow" stroke-width="1" fill="none" />
<polyline points="" stroke="green" stroke-width="1" fill="none" />
<polyline points="160.0,194.5,141.0,209.0,148.5,217.0,139.5,211.5,147.0,205.0,145.0,204.5" stroke="green" stroke-width="1" fill="none" />
<polyline points="" stroke="yellow" stroke-width="1" fill="none" />
<polyline points="114.5,231.5,109.5,234.0,121.5,228.0,118.0,231.0,110.5,231.5" stroke="orange" stroke-width="1" fill="none" />
<polyline points="111.0,232.5,112.5,217.0,112.0,222.0,119.0,226.0,116.5,227.0" stroke="green" stroke-width="1" fill="none" />
<polyline points="116.0,249.0,121.0,252.5,120.5,257.5,104.5,264.0,116.0,257.5,116.0,257.5,127.0,254.5,128.0,254.0,128.0,240.0,138.0,239.5,142.5,236.0,150.5,232.5,159.5,229.5,154.5,226.0,160.5,226.0,154.0,227.5,154.5,232.5" stroke="green" stroke-width="1" fill="none" />
<polyline points="135.0,234.5,140.5,244.5,138.0,250.5,135.5,250.5,134.5,264.0,139.5,279.5,143.0,269.5,140.5,264.5,126.5,271.5,131.0,271.0,141.0,279.5,134.0,280.5,133.5,271.0,142.5,270.0,141.0,268.0" stroke="yellow" stroke-width="1" fill="none" />
<polyline points="145.5,256.5,149.5,253.5,158.5,251.5,154.5,246.0,158.0,247.0" stroke="orange" stroke-width="1" fill="none" />
<polyline points="169.5,224.0,170.0,226.5,165.5,239.5,173.5,220.0" stroke="yellow" stroke-width="1" fill="none" />
<polyline points="163.0,230.5" stroke="green" stroke-width="1" fill="none" />
<polyline points="169.0,225.0,163.0,226.5,162.5,233.0,161.0,240.5,162.0,252.0,161.0,246.5,140.0,250.5,158.5,249.0,161.0,254.0,151.5,263.0,149.5,270.0,124.0,266.5,135.5,275.0,127.0,281.5,125.5,281.5,130.5,288.5,133.0,294.0,123.5,301.5,128.5,304.5,124.0,319.5,126.0,310.5,117.5,321.5,110.5,329.5,125.0,334.0,120.0,336.0,117.5,341.0,121.0,333.0,115.0,329.5,123.0,346.0,136.0,348.0,139.0,350.0,132.0,360.5,139.5,354.0,135.0,357.0,142.5,370.0,139.0,368.5,147.5,367.0,137.0,376.0,142.5,377.0,138.0,395.0,143.0,389.0,150.5,405.0,148.5,387.0,145.0,392.0,144.0,397.0,150.5,408.0,141.5,407.0,153.0,408.5,149.5,410.0,161.0,411.5,166.0,415.5,165.0,420.0,165.5,419.0" stroke="orange" stroke-width="1" fill="none" />
<polyline points="159.0,408.5" stroke="black" stroke-width="1" fill="none" />
<polyline points="" stroke="orange" stroke-width="1" fill="none" />
<polyline points="" stroke="orange" stroke-width="1" fill="none" />
<polyline points="198.0,426.0,196.0,431.0,192.0,429.0,191.5,429.5" stroke="green" stroke-width="1" fill="none" />
<polyline points="207.5,399.5,201.0,392.5,198.0,406.5,194.5,393.5,197.0,396.0" stroke="black" stroke-width="1" fill="none" />
<polyline points="185.5,393.5,190.0,404.0,188.0,402.0,192.0,406.5,185.5,422.0,179.5,414.5,192.0,416.0,192.5,425.5,186.0,433.0,195.0,431.5,180.0,426.5,184.5,436.0,182.5,441.0,190.5,447.5,191.0,439.5,198.5,456.0,201.0,451.0,201.5,453.0,202.0,449.5" stroke="black" stroke-width="1" fill="none" />
<polyline points="372.0,363.0,366.5,349.0,373.5,352.0,376.0,352.5,375.0,349.0,387.5,334.0,369.5,328.0,381.0,322.0,378.0,314.5,374.5,320.5,362.0,318.5,370.0,318.5,382.5,316.0,380.5,314.5" stroke="green" stroke-width="1" fill="none" />
<polyline points="374.5,280.5,381.0,276.0,387.0,283.0,382.0,280.5,390.5,279.0,390.5,273.0,383.5,273.5,384.5,266.0,386.5,263.5,389.0,261.0,390.0,264.5,386.5,260.0" stroke="black" stroke-width="1" fill="none" />
<polyline points="364.0,280.5,370.0,277.0,361.0,277.5,368.5,282.0,363.5,284.5,364.5,289.0,365.0,298.0,372.0,294.0,362.0,305.5,361.5,302.5,352.0,307.0,363.0,309.5,358.0,308.0" stroke="green" stroke-width="1" fill="none" />
<polyline points="339.0,279.0,344.5,285.5,338.0,280.0,325.5,281.0,321.0,265.5,315.5,262.0,310.0,275.5,324.5,266.5,328.0,269.5,323.5,276.5,319.0,277.0" stroke="green" stroke-width="1" fill="none" />
<polyline points="318.0,269.5,325.5,265.0,320.5,267.5,326.5,268.0" stroke="yellow" stroke-width="1" fill="none" />
<polyline points="328.5,273.0,335.5,276.5,330.0,275.5,321.5,267.5,321.0,265.0,333.0,259.5,335.5,254.5,331.0,254.5,336.5,261.0,339.5,255.0" stroke="yellow" stroke-width="1" fill="none" />
<polyline points="366.0,269.5,363.5,276.5,356.0,272.5,355.5,276.5" stroke="green" stroke-width="1" fill="none" />
<polyline points="289.0,233.5,286.5,231.5,282.5,228.5,285.5,230.5" stroke="green" stroke-width="1" fill="none" />
<polyline points="274.5,222.5,270.5,220.5,270.0,196.5,282.5,203.0,268.5,203.5,288.0,200.0,288.0,193.0,286.0,195.5,292.0,185.5,297.0,190.5,304.0,190.0,309.5,183.0,310.0,175.0,308.5,183.5,309.0,185.0,311.5,182.5,311.5,184.5" stroke="green" stroke-width="1" fill="none" />
<polyline points="322.0,168.0,315.0,174.0,297.5,173.5,298.5,177.5,295.0,184.5,298.0,184.0,293.0,195.0,288.5,190.5,280.5,202.5,279.0,199.5,270.5,204.0,266.5,204.5,263.0,212.5,268.0,213.5,269.0,224.0,247.5,223.5,255.0,227.0,249.5,231.0,246.0,233.5,244.5,249.5,232.0,243.0,237.0,253.0,237.5,263.0,228.0,265.5,219.0,257.5,213.5,283.0,205.5,288.5,213.0,293.0,203.5,299.0,193.0,307.0,206.5,328.0,198.0,317.5,200.5,311.0,195.0,315.0,204.5,307.0,197.0,296.0,196.5,297.5,206.0,294.0,213.5,281.5,212.5,291.5,208.0,286.5,215.0,273.0,220.0,281.0,222.5,268.5,222.0,264.0,225.0,268.0,221.0,255.5,231.5,259.5,237.0,248.5,231.5,241.0,236.5,244.0,246.0,236.5,250.5,228.5,259.0,223.5,246.0,227.5,262.0,222.5,261.5,218.0,251.5,203.5,266.0,218.0,265.5,196.5,266.5,198.0,264.5,200.5" stroke="green" stroke-width="1" fill="none" />
<polyline points="264.5,208.5,261.0,209.0" stroke="green" stroke-width="1" fill="none" />
<polyline points="" stroke="green" stroke-width="1" fill="none" />
<polyline points="209.5,197.0,217.5,179.5,215.0,182.0,226.0,183.0,218.0,181.5,226.5,173.5,231.0,180.5,230.5,182.0,232.0,181.0" stroke="green" stroke-width="1" fill="none" />
<polyline points="227.0,185.5,208.5,186.0,218.0,170.0,214.5,193.0,193.5,201.5,217.5,182.5,213.5,199.0,214.5,194.0,221.5,198.5,229.0,192.0,233.0,191.0,234.5,188.5,228.0,174.0,228.0,178.0,225.0,177.0" stroke="orange" stroke-width="1" fill="none" />
<polyline points="256.0,178.5,241.5,179.0,242.0,184.5,237.5,179.0,243.0,175.5,240.0,180.5,250.5,186.5" stroke="orange" stroke-width="1" fill="none" />
<polyline points="246.5,183.5,241.5,180.0,251.0,183.5,244.0,199.5,243.5,201.5,231.5,202.0,234.0,210.0,235.0,213.0,227.0,210.0,244.0,208.5,236.5,208.0,241.5,207.0,237.0,218.0,241.0,214.5,236.5,218.0,238.0,213.5" stroke="orange" stroke-width="1" fill="none" />
<polyline points="270.5,188.5,267.5,191.0,266.5,177.5,269.5,186.0,258.5,188.0,252.5,192.0,252.0,206.0,242.0,198.5,252.5,203.0,265.0,199.0,247.5,198.5,256.0,202.5,258.0,197.0" stroke="orange" stroke-width="1" fill="none" />
<polyline points="269.0,177.5,275.0,182.0,258.0,181.0,262.0,184.0,260.5,186.0,261.0,179.0,260.0,178.5" stroke="yellow" stroke-width="1" fill="none" />
<polyline points="252.5,180.5,241.5,194.0,243.5,197.5,249.0,202.5,249.0,190.5,249.5,195.5,241.5,195.0,250.0,182.5,258.0,189.0,259.0,180.0,258.0,184.0,270.0,186.0,264.0,182.5,262.5,185.0" stroke="green" stroke-width="1" fill="none" />
<polyline points="260.0,182.5,272.5,181.0,269.5,179.0,272.0,190.0,275.0,181.0,283.5,182.0,287.5,175.5,297.5,181.0,291.0,174.0,283.0,184.5,286.0,195.0,282.0,192.5,268.0,201.0,281.5,189.5,278.5,194.0,265.5,193.5,264.5,202.0,284.5,189.5,271.5,197.0,283.5,185.5,290.5,182.5,286.5,186.0,291.5,181.0,299.0,171.5,305.0,171.0,302.0,175.5,319.5,173.0,315.5,163.5,328.5,171.5,325.5,161.0,336.5,160.0,331.5,157.0,331.0,154.0,332.5,154.5,339.5,155.0,340.0,144.5,335.5,146.5" stroke="green" stroke-width="1" fill="none" />
<polyline points="301.0,186.0,304.5,183.5,301.5,175.5,299.0,187.0,292.5,196.0,290.5,187.5,283.5,200.0,274.5,191.0,264.5,212.5,264.0,213.5,277.5,207.5,266.5,214.0,265.5,215.0,271.5,213.5,259.0,226.0,271.0,227.0,262.5,233.0,272.0,240.5,272.5,239.0,260.5,240.5,267.5,245.5" stroke="black" stroke-width="1" fill="none" />
<polyline points="267.5,185.0,265.5,187.5" stroke="green" stroke-width="1" fill="none" />
<polyline points="267.0,167.5,264.5,166.5,268.0,164.0,256.5,161.0,263.0,165.5,247.5,166.5,246.5,160.0,255.0,165.5,251.5,162.5,248.5,164.5,248.5,154.5" stroke="yellow" stroke-width="1" fill="none" />
<polyline points="" stroke="black" stroke-width="1" fill="none" />
<polyline points="255.5,172.0,259.5,176.5,256.0,175.5,264.0,183.0,257.5,183.5,258.5,186.0" stroke="yellow" stroke-width="1" fill="none" />
<polyline points="256.0,138.5,258.0,130.0,253.5,133.5,263.5,130.0,255.0,141.5,248.5,130.5,252.5,138.5,254.5,135.0,252.5,139.5" stroke="green" stroke-width="1" fill="none" />
<polyline points="" stroke="orange" stroke-width="1" fill="none" />
<polyline points="211.5,148.5,217.0,152.0,219.5,158.0" stroke="yellow" stroke-width="1" fill="none" />
<polyline points="220.0,137.0,227.0,133.0,216.5,138.0,225.5,135.5,218.0,144.5,213.5,148.0,213.0,146.0" stroke="orange" stroke-width="1" fill="none" />
<polyline points="206.0,149.5,208.0,141.0" stroke="black" stroke-width="1" fill="none" />
<polyline points="190.5,172.5,188.0,172.5,192.0,162.5,199.0,161.0,214.0,151.0,197.0,160.0,193.0,152.5,189.5,155.5,187.5,154.5,185.5,152.0" stroke="black" stroke-width="1" fill="none" />
<polyline points="201.5,165.5,203.5,165.0,201.0,160.0,193.5,176.5,196.5,179.5,187.0,172.5,184.5,181.0,179.5,179.5,168.0,187.0,175.5,193.5,168.5,192.5,171.0,203.0,157.0,202.5,167.0,196.0,173.5,195.0,181.0,197.0,178.5,177.5,193.5,184.5,185.5,172.0,195.5,166.0,202.0,171.0,202.0,155.5" stroke="yellow" stroke-width="1" fill="none" />
<polyline points="210.5,183.5,199.5,181.5,211.0,203.0,203.5,196.5,207.5,197.0,192.0,197.0,191.0,199.5" stroke="black" stroke-width="1" fill="none" />
<polyline points="" stroke="yellow" stroke-width="1" fill="none" />
<polyline points="203.0,130.0,220.5,122.5,219.5,132.5,218.5,127.5,222.5,127.5,223.5,122.5,228.5,119.5" stroke="green" stroke-width="1" fill="none" />
<polyline points="202.0,144.5,205.0,145.0,204.0,136.5,218.5,123.0,216.0,130.0,223.0,120.0,231.5,111.0,235.5,119.5,242.5,126.5,235.5,121.5,234.5,117.0" stroke="orange" stroke-width="1" fill="none" />
<polyline points="232.0,111.0,230.0,136.0,226.5,127.5,196.5,150.5,197.0,146.0,199.5,149.0,203.5,142.0,195.5,154.5,186.0,156.0,195.0,165.0,171.0,167.5,172.0,167.5,161.0,170.5,161.0,175.5,169.5,179.5,154.5,193.0,151.5,188.5,153.5,189.5,155.5,197.5,146.5,198.5,150.0,202.5,145.5,208.0,150.0,212.5,150.0,214.5,149.5,221.0,138.5,222.0,144.0,225.0,143.5,241.0,139.0,238.0,136.0,244.0,130.5,239.0,125.5,243.0,129.5,253.5,130.5,258.5,132.5,256.0,131.5,262.0,129.0,256.5" stroke="orange" stroke-width="1" fill="none" />
<polyline points="" stroke="yellow" stroke-width="1" fill="none" />
<polyline points="" stroke="black" stroke-width="1" fill="none" />
<polyline points="158.5,136.5,153.0,126.0,159.0,126.0,157.5,117.0,157.0,121.0,163.5,118.0,154.0,125.5,161.0,127.0,156.5,128.5" stroke="green" stroke-width="1" fill="none" />
<polyline points="184.0,142.0,178.5,137.0,178.5,141.0,190.0,121.5,189.5,115.5,179.5,130.5,184.0,129.5,184.5,127.5,192.5,124.5" stroke="black" stroke-width="1" fill="none" />
<polyline points="185.5,127.0,190.5,127.0,155.5,125.0,163.5,127.0,167.5,131.5,189.5,122.0,187.5,123.5,184.5,123.0,184.0,114.0,196.0,122.0,196.0,116.5,197.0,119.5" stroke="green" stroke-width="1" fill="none" />
<polyline points="" stroke="green" stroke-width="1" fill="none" />
<polyline points="" stroke="orange" stroke-width="1" fill="none" />
<polyline points="204.5,108.5,203.0,106.5,207.5,105.5,211.0,102.0" stroke="green" stroke-width="1" fill="none" />
<polyline points="228.5,126.5,228.5,131.0,217.5,120.0,218.5,133.5,216.5,139.0,208.5,144.5,206.0,128.0,192.5,150.0,200.0,152.5,198.0,151.5,205.0,150.5,212.0,141.5,214.5,136.5" stroke="black" stroke-width="1" fill="none" />
<polyline points="255.5,130.5,250.5,153.5,260.0,140.5,236.0,156.5,240.5,154.0,240.0,143.5,234.5,147.5,229.5,144.5,221.5,162.5,230.0,152.5,235.0,152.5,242.5,136.5,247.5,139.0,254.0,132.5,263.0,129.0,258.0,129.0,269.0,122.5,271.5,113.0,268.0,116.0" stroke="orange" stroke-width="1" fill="none" />
<polyline points="286.5,148.0,283.0,150.0,293.5,150.5,292.0,145.5" stroke="yellow" stroke-width="1" fill="none" />
<polyline points="298.0,142.0,293.0,138.0,301.0,138.0,304.5,145.0,301.5,144.0" stroke="yellow" stroke-width="1" fill="none" />
<polyline points="297.5,183.5,297.0,187.5,284.5,188.5,296.0,196.0,283.0,201.5,281.5,208.0,273.0,201.5,274.5,207.5,268.5,212.0,259.5,216.0,261.5,214.0" stroke="yellow" stroke-width="1" fill="none" />
<polyline points="236.5,105.5,227.0,101.5,229.5,100.5,233.5,108.5,226.0,98.0,234.5,95.5,239.0,98.0,244.0,96.5,239.0,92.5" stroke="green" stroke-width="1" fill="none" />
<polyline points="" stroke="black" stroke-width="1" fill="none" />
<polyline points="247.5,94.0,249.0,93.5,246.0,96.5,245.5,87.5,241.0,94.0,240.0,90.5" stroke="yellow" stroke-width="1" fill="none" />
<polyline points="260.5,85.0,254.0,88.5,256.0,86.0,255.5,96.5,253.5,97.5,239.0,101.0,236.0,105.5,233.0,103.0,228.0,102.5,235.5,115.5,218.0,118.0,223.0,115.5,227.0,117.5,215.0,111.0,208.0,131.5,202.0,133.5,201.5,131.5,197.0,128.0,185.0,145.5,184.0,146.5,173.5,151.5,179.0,148.0,182.5,151.0,175.0,165.5,169.5,163.0,171.5,160.5,158.0,165.0,166.0,168.5,155.0,172.0,164.0,168.5,174.0,170.0,169.5,160.0,181.5,154.0,182.5,147.5,187.5,135.5,195.5,141.5,195.0,129.5,213.5,144.0,217.0,123.5,219.5,128.5,217.0,125.0,216.5,102.5,223.0,109.0,233.0,101.0,234.5,115.5,239.5,96.5,249.0,95.5,258.5,91.0,268.5,87.0,269.5,87.5" stroke="yellow" stroke-width="1" fill="none" />
<polyline points="232.0,93.0,237.0,89.0,247.0,93.5,234.5,83.0,246.0,83.0,242.0,85.5" stroke="green" stroke-width="1" fill="none" />
<polyline points="" stroke="black" stroke-width="1" fill="none" />
<polyline points="232.5,49.0,249.0,47.5,249.0,58.5,249.0,49.5,253.0,57.5,253.0,62.0,265.0,52.5,277.5,57.0,274.0,58.0,271.5,71.5,279.0,66.5,280.0,67.0,285.0,76.0,278.0,71.0,296.5,76.0,291.5,76.0,296.5,88.0,307.0,93.0,307.0,101.0,319.5,100.0,315.0,94.0,335.5,116.5,318.0,118.5,337.5,130.0,332.0,119.5,333.5,128.5,338.0,129.5,354.0,144.0,351.0,142.0,356.0,152.5,353.5,147.5,355.0,140.5,371.0,140.5,372.5,142.5,370.0,134.5,380.0,133.5,383.0,133.0,389.5,137.5,399.5,116.0,394.5,116.5,402.0,118.5,399.0,110.5,411.5,105.5,405.0,114.5,419.0,127.5,412.5,107.0,409.5,114.0,412.0,118.5" stroke="orange" stroke-width="1" fill="none" />
<polyline points="407.0,116.0,410.0,119.0,407.0,131.0,402.0,137.5,410.5,134.5,418.0,133.0,422.5,139.0,424.5,144.0,422.0,150.5,403.5,148.5,416.0,152.5,413.0,161.5,403.5,165.5,410.0,179.5,403.0,179.0,412.5,178.0,400.5,179.0,401.0,177.5,405.5,180.5,398.5,186.0,391.5,186.0,393.5,198.0,369.5,203.0,382.5,203.5,371.0,211.5,367.0,200.5,364.0,218.5,364.5,207.5,364.5,209.5,369.0,203.5,384.5,212.5,384.5,207.0,389.5,201.0,392.0,191.0,391.5,189.5,398.0,184.5,396.5,185.0,404.5,172.5,405.5,175.0,411.0,179.5" stroke="green" stroke-width="1" fill="none" />
<polyline points="370.0,125.0,368.5,124.5,362.0,126.0,373.0,123.5,368.0,121.0,370.0,118.0" stroke="yellow" stroke-width="1" fill="none" />
<polyline points="382.5,100.0,386.5,102.5,387.0,110.0" stroke="orange" stroke-width="1" fill="none" />
<polyline points="382.0,116.0,393.0,100.5,388.0,99.0" stroke="black" stroke-width="1" fill="none" />
<polyline points="422.5,44.5,422.5,47.5,408.5,23.5,420.0,26.0,416.5,21.5,414.0,23.0,410.5,14.5,410.0,16.0" stroke="green" stroke-width="1" fill="none" />
<polyline points="511.5,70.5,514.5,79.0,508.5,80.0,507.0,87.5,501.5,86.5,493.0,98.0,483.5,106.0,479.0,107.0,490.5,113.5,481.0,103.5,471.5,115.5,481.5,122.5,475.5,125.5,470.0,126.5,469.5,133.5,466.5,136.0,467.0,139.5,467.5,154.0,456.5,153.0,458.5,156.0,455.5,159.0,446.5,167.5,451.5,167.5,444.5,169.5,444.0,167.5,444.0,172.5,424.5,190.0,434.0,194.5,432.0,186.0,433.0,201.5,429.0,203.0,433.5,208.0,427.5,202.5,420.5,200.5,419.0,209.0,417.0,218.5,419.5,225.0,426.5,230.0,420.5,238.0,416.5,229.5,416.5,239.5,414.0,250.0,400.5,240.0,413.0,247.5,420.0,257.0,399.0,263.5,403.5,262.5,410.5,274.0,404.0,273.5,405.5,278.0,398.5,282.0,404.0,282.5,393.0,292.5,396.5,291.5,408.0,294.5,400.0,307.0,391.0,297.0,392.5,309.5,392.0,304.0,398.5,310.5,393.5,318.0,394.5,315.0,387.0,330.5,391.0,330.0,383.5,340.0,392.5,331.0,394.5,335.5,389.0,335.5,390.5,336.5,391.5,335.5" stroke="green" stroke-width="1" fill="none" />
<polyline points="343.5,138.5,341.5,130.0,330.5,132.5,339.0,129.5,338.5,125.5,330.5,121.5,335.0,114.5,322.0,112.0,336.5,101.5,317.5,98.5,313.5,92.5,304.0,90.0,309.5,97.5,305.5,91.0,300.0,78.0,290.5,73.0,296.0,80.5,300.5,73.5,287.0,65.5,276.0,74.0,277.5,61.5,258.0,54.0,268.0,47.5,265.5,50.0" stroke="black" stroke-width="1" fill="none" />
<polyline points="" stroke="black" stroke-width="1" fill="none" />
<polyline points="179.0,63.0,160.0,71.5,158.5,63.0,159.0,64.5" stroke="yellow" stroke-width="1" fill="none" />
<polyline points="158.0,75.5,152.0,68.0,147.5,84.5,157.0,73.5,166.5,67.0,164.5,80.5,159.0,70.0,166.0,67.0" stroke="orange" stroke-width="1" fill="none" />
<polyline points="" stroke="black" stroke-width="1" fill="none" />
</svg>