<svg xmlns="http://www.w3.org/2000/svg" width="1024" height="1024" version="1.1" fill="white"><polyline points="405.5,2.0,407.5,6.0,406.5,8.0,407.5,17.0,407.0,18.5,412.5,25.0,417.0,26.5,423.5,31.0,420.5,32.5,424.0,38.5,429.0,41.0,428.5,46.5,430.0,48.0,432.0,55.0,434.0,58.5,434.0,62.5,438.0,68.5,444.0,71.5,437.0,69.5" stroke="black" stroke-width="1" fill="none" />
<polyline points="456.0,58.0,453.0,51.5,448.5,46.0,443.5,38.0,443.0,35.5,437.5,26.5,432.5,19.0,430.5,9.5" stroke="green" stroke-width="1" fill="none" />
<polyline points="423.0,5.5,425.5,3.0,423.5,6.0,428.5,9.5,430.5,16.5,432.0,16.0,432.0,19.0,438.0,27.0,444.5,31.0,439.5,35.0,447.0,37.5,450.0,42.5,448.0,44.0,452.0,47.5,453.5,54.0,455.0,58.0,458.0,60.5,451.5,65.5,453.5,71.5,448.5,73.0,443.0,78.0,439.5,83.0,437.5,86.0,432.0,89.0,431.5,94.5,429.5,98.5,428.5,100.0,425.5,106.0,421.0,108.0,417.0,112.5,421.0,111.5,424.5,107.0,427.0,98.5,431.5,94.0,435.5,87.5,440.5,86.0,446.0,77.5,445.0,74.0,449.0,67.5,453.5,65.0,459.0,54.5,464.5,52.5,468.5,50.0,470.5,43.0,480.5,45.0,481.0,38.5,488.0,28.0,491.5,25.5,491.5,27.0,496.5,17.5,502.0,14.5,508.0,9.0,510.5,7.5" stroke="black" stroke-width="1" fill="none" />
<polyline points="511.0,6.5,507.0,11.0,504.5,15.5,498.5,20.0,495.5,21.0,492.5,24.0,485.0,30.0,483.5,34.5,481.5,39.0,473.0,43.0,473.0,45.0,465.0,51.0,461.5,53.0,458.0,56.5" stroke="black" stroke-width="1" fill="none" />
<polyline points="509.5,76.5,503.5,77.5,500.5,82.0,500.0,91.0,497.0,95.5,488.5,94.5,487.0,102.5,481.0,104.0,480.5,111.5,470.0,111.0,472.5,122.0,468.5,128.0,462.0,131.0,459.0,140.5" stroke="black" stroke-width="1" fill="none" />
<polyline points="449.5,160.5,446.5,166.0,440.0,172.0,438.5,173.0" stroke="orange" stroke-width="1" fill="none" />
<polyline points="437.0,178.5,442.0,181.0,435.0,181.0,435.5,186.0" stroke="black" stroke-width="1" fill="none" />
<polyline points="432.5,191.0,427.0,201.0,426.5,210.0,425.5,215.0,422.0,221.0" stroke="black" stroke-width="1" fill="none" />
<polyline points="418.5,232.0,417.5,239.5,413.5,245.5" stroke="black" stroke-width="1" fill="none" />
<polyline points="402.5,274.5,402.5,281.0,401.5,288.5,400.0,288.5" stroke="black" stroke-width="1" fill="none" />
<polyline points="382.5,293.0,375.5,284.5,378.0,284.0,379.5,280.0,383.0,274.5" stroke="black" stroke-width="1" fill="none" />
<polyline points="375.5,267.5,375.0,261.5,376.5,259.0,374.5,254.5,373.0,257.0,372.5,246.5,371.0,242.0,372.0,236.5,372.0,234.0,370.0,232.0,372.5,228.0,374.0,227.0,373.5,224.0,371.5,215.5,370.0,220.5" stroke="black" stroke-width="1" fill="none" />
<polyline points="375.5,240.5,377.5,242.0,373.0,242.5" stroke="black" stroke-width="1" fill="none" />
<polyline points="367.5,249.0,371.0,255.0,368.0,251.5,369.5,255.5,372.5,265.5,373.0,269.0,370.0,267.5,371.5,272.5,370.5,273.5,369.0,276.5" stroke="black" stroke-width="1" fill="none" />
<polyline points="376.5,276.5,375.0,282.5,377.5,284.5,374.0,292.0,381.0,293.5,378.5,295.5,378.0,300.5,379.0,304.0,377.0,309.0,375.0,309.0,381.0,315.0,382.5,320.5,381.5,324.5,382.5,329.0,380.0,334.5,381.5,338.0,382.0,340.0,384.5,346.0" stroke="black" stroke-width="1" fill="none" />
<polyline points="367.0,353.5,367.5,355.5,372.5,361.0,372.5,362.5,373.0,369.0,369.5,372.5,372.5,373.0" stroke="yellow" stroke-width="1" fill="none" />
<polyline points="373.0,376.0,374.0,380.0" stroke="black" stroke-width="1" fill="none" />
<polyline points="382.0,387.0,380.5,389.5,380.5,390.5,379.5,396.0,382.0,402.5" stroke="yellow" stroke-width="1" fill="none" />
<polyline points="363.0,430.5,360.0,424.0,355.0,419.5,350.5,411.5,349.5,407.5,344.5,405.0,339.0,402.0,338.0,398.5,331.0,403.0,330.5,398.0,321.5,397.0,319.5,388.5,316.5,393.0,308.5,389.0,308.0,390.0,303.5,387.0,300.0,387.5,300.5,392.5" stroke="orange" stroke-width="1" fill="none" />
<polyline points="312.0,382.5,316.0,378.5,321.0,370.0,321.0,363.0,328.5,353.0,334.5,346.0,336.0,338.5,342.5,330.0,346.5,319.5" stroke="black" stroke-width="1" fill="none" />
<polyline points="356.5,328.5,355.0,328.0,355.0,332.5,355.5,336.0,354.0,341.0,354.0,339.5" stroke="black" stroke-width="1" fill="none" />
<polyline points="357.0,353.5,355.0,362.0,354.0,363.5,353.5,366.5,356.5,374.5,352.5,378.5,352.5,380.5,353.5,389.0,356.5,389.5,351.5,392.0,351.0,400.5,351.5,402.0,351.0,404.5,352.0,408.5,351.5,413.0,352.5,411.5" stroke="orange" stroke-width="1" fill="none" />
<polyline points="360.0,387.0,358.5,389.0,359.0,382.5,357.5,378.0,360.5,371.0,359.0,369.5,360.0,364.5" stroke="yellow" stroke-width="1" fill="none" />
<polyline points="359.0,360.5,360.5,362.5,362.0,367.5,356.0,376.0,359.5,377.5,357.0,379.0" stroke="black" stroke-width="1" fill="none" />
<polyline points="357.0,355.5,354.0,360.5,354.0,366.5,353.5,367.5,354.0,371.5,354.5,373.0,354.5,379.5,353.0,383.0,352.0,390.0,354.5,391.5,356.0,397.0,357.5,397.0,355.0,405.0,353.0,405.5,359.0,409.5,355.0,412.5" stroke="yellow" stroke-width="1" fill="none" />
<polyline points="374.5,464.0,372.5,461.5,372.5,459.0,373.5,456.0,372.0,447.0,372.0,445.5,374.0,440.5,374.0,438.5,372.0,432.5,375.0,431.0,376.5,426.5,375.5,422.5,376.5,418.0,375.5,410.0,376.5,408.0,377.0,404.5,374.5,402.5,379.0,398.0,377.5,392.0,377.5,390.5,375.5,384.5,381.0,378.0,377.0,374.0,373.5,369.5,375.5,365.5,379.5,366.5,381.5,360.0,379.5,356.0,381.0,350.0,377.5,348.0,376.5,344.5,376.0,340.5,375.5,337.0,374.5,332.0,373.0,328.5,373.0,325.5,373.5,322.5,374.5,317.5,372.0,313.5,373.0,309.5,373.0,305.5,372.5,303.0,373.5,297.0,373.0,290.0,369.0,288.0,369.5,282.5,369.5,280.5,369.0,276.0,368.5,269.5,366.5,270.0,368.0,264.5,370.5,260.0,366.5,255.0,366.5,250.0,367.0,248.5,364.5,241.5,368.5,237.5,367.5,233.5,364.5,233.5,363.5,228.0,362.0,224.0,358.5,219.5,358.5,216.0,357.5,210.5,357.5,206.0,354.5,206.0,351.0,201.5,349.5,198.0,349.0,196.0" stroke="yellow" stroke-width="1" fill="none" />
<polyline points="" stroke="black" stroke-width="1" fill="none" />
<polyline points="347.5,202.5,353.5,206.5" stroke="yellow" stroke-width="1" fill="none" />
<polyline points="363.0,205.0,358.0,194.5,355.5,196.5" stroke="black" stroke-width="1" fill="none" />
<polyline points="359.0,192.5,359.0,196.0,360.5,201.5,360.5,204.0" stroke="yellow" stroke-width="1" fill="none" />
<polyline points="353.5,204.5,351.0,199.5,348.5,197.0" stroke="black" stroke-width="1" fill="none" />
<polyline points="348.5,198.5,354.5,203.5,356.5,207.5" stroke="orange" stroke-width="1" fill="none" />
<polyline points="346.5,205.0,342.5,200.5" stroke="black" stroke-width="1" fill="none" />
<polyline points="346.5,210.0,355.5,211.5,357.5,217.5,354.5,226.0,359.5,227.0,362.0,232.5,362.5,237.0,364.0,241.5,364.5,245.5,366.0,251.5" stroke="black" stroke-width="1" fill="none" />
<polyline points="364.5,249.0,364.0,245.0,365.0,244.0,365.0,246.5" stroke="black" stroke-width="1" fill="none" />
<polyline points="348.0,242.0,349.0,240.0,349.5,245.5,340.0,249.0,341.0,253.5" stroke="black" stroke-width="1" fill="none" />
<polyline points="346.0,252.5,340.5,252.5,335.5,256.0,329.0,258.0,331.5,257.0" stroke="black" stroke-width="1" fill="none" />
<polyline points="330.0,255.0,335.5,247.5,338.5,248.5,342.0,246.5,348.0,246.5,351.5,243.0,350.0,246.5" stroke="black" stroke-width="1" fill="none" />
<polyline points="349.0,251.5,348.0,259.0,344.5,260.5" stroke="black" stroke-width="1" fill="none" />
<polyline points="338.0,262.0,341.0,266.5,340.5,269.0,343.0,272.0,340.0,282.5,341.0,281.0" stroke="orange" stroke-width="1" fill="none" />
<polyline points="337.5,281.5,341.0,284.0,344.5,279.0,349.0,278.5,349.5,283.0,351.0,287.0,351.0,289.5,348.5,294.5,350.0,300.0,348.0,303.5,348.0,308.5,343.5,311.5,346.5,312.5,344.0,317.0,341.5,320.0,343.0,324.5,340.0,328.0,337.0,332.5,335.0,336.5,333.5,340.5,330.0,343.0,331.5,351.0,329.5,350.0,325.5,356.0,323.5,360.0,321.0,364.0,321.5,369.5,319.5,374.0,316.0,376.5,314.5,380.5,316.5,384.5,314.5,388.5,318.5,392.0,329.0,396.5,338.0,402.5,342.0,404.5,347.0,410.0,350.5,412.5,354.0,416.5,358.5,421.5,361.0,427.0,360.5,428.5,362.0,433.5,365.0,435.0,365.0,440.5,366.0,444.0,368.0,449.0,368.5,453.5,369.5,461.5,370.5,462.5,368.5,468.5,372.5,470.5,372.0,476.5,376.5,478.0,375.0,481.0,379.0,485.0,381.0,488.5,382.0,492.0,382.0,496.5,380.5,499.0,382.0,504.5,387.5,510.5,388.0,512.0,388.0,516.5" stroke="black" stroke-width="1" fill="none" />
<polyline points="424.0,492.5,428.0,489.0,430.0,484.0,438.0,485.5,441.0,483.5,445.0,480.0,449.0,474.5,449.5,466.0,458.0,466.0" stroke="black" stroke-width="1" fill="none" />
<polyline points="456.5,467.0,451.5,470.0,447.5,468.0,452.5,462.0,455.0,463.0" stroke="orange" stroke-width="1" fill="none" />
<polyline points="453.0,450.0,462.5,442.0" stroke="black" stroke-width="1" fill="none" />
<polyline points="470.0,423.0,474.0,414.5,477.0,411.5,480.0,405.0,485.5,402.0,491.5,398.0,494.5,395.0,497.0,394.0,500.0,390.0,504.5,388.5,506.5,385.5,511.5,381.5,511.0,381.5" stroke="black" stroke-width="1" fill="none" />
<polyline points="512.5,382.0,501.0,388.0,493.5,389.5,492.0,395.0,483.5,402.0,482.5,404.0,477.5,408.0,475.5,412.0,473.0,418.5,472.0,422.0,470.0,420.5,468.0,428.0,466.0,431.5,462.5,435.5,460.5,437.5,456.0,441.5,459.0,445.5,456.5,452.0,454.5,455.0,456.0,457.5,454.5,461.5,449.5,466.0,447.0,474.5,449.5,475.0,445.0,482.0,442.5,484.5,438.5,487.5" stroke="green" stroke-width="1" fill="none" />
<polyline points="435.5,480.5,429.5,476.5,434.5,476.0,432.5,479.0,437.5,476.0,435.5,468.5,436.5,466.5,439.0,463.0,438.0,458.0,441.0,457.5,437.0,453.0" stroke="orange" stroke-width="1" fill="none" />
<polyline points="437.0,454.5,431.0,451.0,428.0,450.0,432.5,442.5,433.5,438.5,437.0,437.5,435.0,430.0,430.5,433.5,432.0,432.0" stroke="yellow" stroke-width="1" fill="none" />
<polyline points="429.0,467.0,428.5,469.5,422.0,478.0,422.0,479.0,422.5,483.0,422.0,489.5,421.0,490.0" stroke="orange" stroke-width="1" fill="none" />
<polyline points="417.0,471.0,419.5,472.5,421.0,478.0,424.5,474.5,431.0,465.0,431.0,463.5" stroke="black" stroke-width="1" fill="none" />
<polyline points="481.5,413.5,482.5,411.5,481.0,415.0,480.5,417.0,483.0,416.0,485.0,409.5,485.5,404.0" stroke="black" stroke-width="1" fill="none" />
<polyline points="446.0,421.0,445.0,423.5,447.0,425.0,447.5,421.5,448.5,414.5,447.5,409.5,447.0,412.5,452.5,401.0,451.5,399.5,452.5,395.0,451.5,391.0,454.0,385.0,450.5,380.5,451.0,378.5,453.0,377.5,453.5,371.5,453.0,366.5" stroke="black" stroke-width="1" fill="none" />
<polyline points="384.5,344.5,386.0,342.5,387.0,338.5,385.5,334.5,383.5,326.5" stroke="black" stroke-width="1" fill="none" />
<polyline points="366.0,353.5,368.0,358.5,368.5,360.0,368.5,365.0,367.0,367.0,366.0,377.0,366.5,382.5,364.5,383.5,371.0,385.5,373.5,386.5" stroke="black" stroke-width="1" fill="none" />
<polyline points="318.5,343.5,319.0,342.0" stroke="black" stroke-width="1" fill="none" />
<polyline points="315.0,349.5,311.0,350.5" stroke="black" stroke-width="1" fill="none" />
<polyline points="309.0,352.0,303.5,355.5,300.0,356.5,298.5,354.0,293.5,352.5" stroke="black" stroke-width="1" fill="none" />
<polyline points="294.5,356.5,294.5,356.0,303.5,361.5,305.5,359.5,311.0,358.5,309.5,359.0,308.5,365.0,307.0,365.0" stroke="black" stroke-width="1" fill="none" />
<polyline points="312.5,346.5,310.0,348.5,304.5,348.5,300.0,348.0,298.0,349.0,290.0,350.5,293.0,350.0" stroke="black" stroke-width="1" fill="none" />
<polyline points="306.0,333.5,306.5,325.5,314.5,328.5,314.0,326.0,309.0,328.0,307.5,333.5,306.0,332.5" stroke="orange" stroke-width="1" fill="none" />
<polyline points="310.0,328.5,305.0,330.0,299.5,324.5,297.0,324.5" stroke="black" stroke-width="1" fill="none" />
<polyline points="293.0,325.0,301.0,322.5,299.5,322.0,297.5,318.5" stroke="black" stroke-width="1" fill="none" />
<polyline points="320.0,329.5,320.5,323.0,323.5,321.0,323.0,319.5,321.0,313.0,321.5,309.5" stroke="yellow" stroke-width="1" fill="none" />
<polyline points="337.0,281.0" stroke="black" stroke-width="1" fill="none" />
<polyline points="333.5,271.5,336.0,273.5,335.5,270.0,337.0,267.0,330.5,264.5" stroke="green" stroke-width="1" fill="none" />
<polyline points="327.0,269.5,330.5,273.0,326.5,270.5,329.5,273.5,332.5,269.0,332.0,268.5,326.5,266.0" stroke="black" stroke-width="1" fill="none" />
<polyline points="326.0,271.5" stroke="black" stroke-width="1" fill="none" />
<polyline points="320.0,278.0" stroke="orange" stroke-width="1" fill="none" />
<polyline points="321.5,266.5,325.5,262.0,329.5,260.5,333.0,260.5,334.5,258.5,340.0,255.5,343.5,259.5,352.0,252.0,352.5,251.5" stroke="black" stroke-width="1" fill="none" />
<polyline points="348.5,239.5,346.5,236.5,346.0,234.5,346.0,227.5,343.5,226.0,343.0,222.5,344.5,216.0,341.5,214.5,341.0,210.5" stroke="yellow" stroke-width="1" fill="none" />
<polyline points="332.5,209.5,340.0,207.5,344.5,199.0,345.5,201.0,351.0,199.5,356.0,196.5,359.5,196.0,360.0,191.0,367.0,188.0,370.5,183.5,375.5,181.0,378.5,181.0,377.5,188.5,385.5,179.5,388.5,182.0,394.0,172.5,400.5,170.5,403.0,176.5,406.5,169.0,403.0,172.5,403.5,180.0,395.5,184.0,395.5,184.5,386.0,190.5,382.0,190.5,385.5,189.0,391.5,189.5,393.0,183.0,396.0,177.5,402.5,176.0" stroke="black" stroke-width="1" fill="none" />
<polyline points="404.0,164.5,405.5,158.0,405.0,161.5,407.5,164.0,398.5,170.5,389.5,176.0,381.5,178.5" stroke="black" stroke-width="1" fill="none" />
<polyline points="374.5,182.5,364.5,187.0,357.0,189.5,346.5,190.5,342.5,196.0,335.5,200.0,337.5,205.5,343.0,208.5,347.0,210.5,352.0,213.0" stroke="green" stroke-width="1" fill="none" />
<polyline points="341.0,211.5,344.5,206.5,338.0,209.5" stroke="black" stroke-width="1" fill="none" />
<polyline points="338.0,205.0" stroke="green" stroke-width="1" fill="none" />
<polyline points="341.0,205.5,347.0,208.5,351.5,214.5,353.5,218.0,357.0,225.0" stroke="black" stroke-width="1" fill="none" />
<polyline points="355.0,206.0,351.5,206.5,347.5,205.0,345.0,203.5,338.5,204.0" stroke="black" stroke-width="1" fill="none" />
<polyline points="343.0,204.5,348.0,205.5,351.5,210.5" stroke="black" stroke-width="1" fill="none" />
<polyline points="349.5,199.0,348.5,194.0" stroke="black" stroke-width="1" fill="none" />
<polyline points="343.0,199.0,346.0,198.5,343.0,206.0,350.5,204.5,352.5,204.5" stroke="black" stroke-width="1" fill="none" />
<polyline points="361.5,193.5" stroke="black" stroke-width="1" fill="none" />
<polyline points="367.0,195.5,369.0,195.0,371.0,189.5,373.5,185.5" stroke="green" stroke-width="1" fill="none" />
<polyline points="396.5,154.0,391.0,157.0,392.5,161.0,385.5,165.0,387.0,169.5,383.0,175.5,379.0,176.5,383.5,173.0,385.5,166.5,393.5,158.5" stroke="black" stroke-width="1" fill="none" />
<polyline points="408.5,157.5,399.0,159.5,398.0,168.5,393.0,170.0,389.5,173.5,388.5,174.5,393.0,170.5,397.5,165.0,401.0,162.5,402.5,161.0" stroke="black" stroke-width="1" fill="none" />
<polyline points="397.0,123.0,392.5,127.5,389.0,131.0,386.5,136.5,383.5,137.0,386.5,132.5,394.0,126.0" stroke="green" stroke-width="1" fill="none" />
<polyline points="402.0,114.5,390.0,127.0,388.0,127.5,384.0,130.5,385.5,132.0,382.5,130.5,395.5,118.5,399.0,118.0" stroke="black" stroke-width="1" fill="none" />
<polyline points="399.5,112.5,393.0,118.0,389.0,124.0,381.5,126.0,376.5,130.0,371.5,134.0,366.5,140.5,353.0,141.5,353.5,143.5" stroke="yellow" stroke-width="1" fill="none" />
<polyline points="339.5,152.0,334.0,158.0,324.0,160.5,319.5,162.5,312.5,168.5,309.0,172.5,301.0,176.0,297.5,179.0,299.0,181.5" stroke="black" stroke-width="1" fill="none" />
<polyline points="291.5,173.0,287.0,176.0,285.5,177.0" stroke="black" stroke-width="1" fill="none" />
<polyline points="281.0,174.5,285.0,174.0" stroke="black" stroke-width="1" fill="none" />
<polyline points="288.5,184.0,285.5,179.0,282.0,176.5,282.0,179.0" stroke="black" stroke-width="1" fill="none" />
<polyline points="272.0,171.0,274.5,179.5,281.0,180.5,274.0,173.5" stroke="yellow" stroke-width="1" fill="none" />
<polyline points="272.5,178.5,270.5,179.5,262.0,179.5,262.5,175.0,255.0,176.5,255.0,177.0,246.5,169.5,242.5,171.5,240.5,169.0" stroke="black" stroke-width="1" fill="none" />
<polyline points="244.0,170.0,245.5,170.0,248.5,171.0,248.0,175.0,252.5,171.5,250.0,175.0,258.0,181.5,248.0,184.5,250.0,186.5,243.5,192.5,240.5,194.0,237.5,196.5,236.0,203.5,235.0,204.5,241.0,207.5,244.5,210.5,248.5,210.5,251.5,213.5,256.5,204.0,255.5,209.0,253.5,213.0,249.5,214.0,250.0,218.5,250.5,225.0,245.0,226.5,244.5,233.5,239.5,231.5,238.0,237.0,233.5,245.5,231.0,250.5,227.5,253.0,224.5,256.5,222.5,261.0,219.0,264.5,217.5,269.0,215.0,276.5,212.0,278.0,208.5,281.5,204.5,285.5,204.0,290.5,204.0,294.0,200.5,298.0,196.0,301.5,194.0,305.0,199.0,309.0,194.5,310.5,193.5,317.5,188.0,317.5,186.0,325.0,182.0,324.5,180.0,329.5,170.5,335.5,169.0,337.5,165.5,339.5,166.5,347.0,168.0,345.0" stroke="black" stroke-width="1" fill="none" />
<polyline points="158.5,345.0,153.5,351.0,156.0,354.0,158.0,356.5,157.5,359.5,159.0,365.0,153.0,370.0,157.5,376.5,159.5,373.5,156.5,381.0,156.5,382.5,154.5,388.0,154.0,392.0,151.0,394.0,160.0,401.5,163.0,404.5,167.0,409.5" stroke="orange" stroke-width="1" fill="none" />
<polyline points="165.5,413.5,160.5,409.5,160.0,410.5" stroke="black" stroke-width="1" fill="none" />
<polyline points="166.5,409.0,168.0,411.5,170.0,416.0,166.5,422.5,169.0,425.5,172.5,426.5,168.0,429.0" stroke="black" stroke-width="1" fill="none" />
<polyline points="172.0,435.5" stroke="black" stroke-width="1" fill="none" />
<polyline points="180.5,440.0,176.5,443.0,179.0,441.5,183.0,444.5,186.5,440.5,189.0,442.5" stroke="black" stroke-width="1" fill="none" />
<polyline points="181.5,444.0" stroke="black" stroke-width="1" fill="none" />
<polyline points="179.0,443.5,176.5,455.0" stroke="black" stroke-width="1" fill="none" />
<polyline points="" stroke="orange" stroke-width="1" fill="none" />
<polyline points="175.0,455.5,174.0,458.0,171.5,463.5,170.0,467.5,167.0,469.5" stroke="orange" stroke-width="1" fill="none" />
<polyline points="163.0,471.0,156.5,472.0,151.5,470.5,147.5,466.0,143.0,453.5,139.0,456.0,135.5,457.0,135.0,466.0" stroke="black" stroke-width="1" fill="none" />
<polyline points="137.0,467.5,140.5,469.0,143.0,473.0,147.5,477.5,150.5,478.5,155.5,486.5,150.0,486.0,155.5,484.5,159.5,489.0,162.5,494.0,165.5,495.5" stroke="yellow" stroke-width="1" fill="none" />
<polyline points="163.5,502.0,167.5,507.5" stroke="black" stroke-width="1" fill="none" />
<polyline points="178.5,507.0,172.5,506.0,168.0,504.0,167.5,501.5,163.5,504.5,156.5,500.5,154.0,499.0,149.0,495.5,147.5,490.0,143.5,490.0,143.0,484.5,139.5,478.0" stroke="green" stroke-width="1" fill="none" />
<polyline points="142.0,478.0,144.0,490.5,151.0,493.0,151.0,499.0,154.0,501.0" stroke="orange" stroke-width="1" fill="none" />
<polyline points="149.5,507.0,154.5,511.5" stroke="black" stroke-width="1" fill="none" />
<polyline points="155.0,501.5,151.0,495.5,149.5,492.5,146.0,492.5" stroke="green" stroke-width="1" fill="none" />
<polyline points="154.5,492.5,152.0,492.0,157.5,499.5" stroke="black" stroke-width="1" fill="none" />
<polyline points="152.5,487.5" stroke="black" stroke-width="1" fill="none" />
<polyline points="150.0,488.5,152.5,493.0,155.5,491.5,155.5,495.5,154.0,498.5,158.5,508.0,158.5,506.5,160.0,509.5" stroke="black" stroke-width="1" fill="none" />
<polyline points="156.0,505.5,151.5,503.5,146.5,498.5,147.0,489.5,137.5,485.0,139.0,481.5" stroke="green" stroke-width="1" fill="none" />
<polyline points="143.0,490.5,144.0,492.0,149.5,492.5,148.0,503.0,148.0,503.5,151.0,506.0,155.5,512.0" stroke="black" stroke-width="1" fill="none" />
<polyline points="152.0,511.5,148.5,502.5,142.5,497.0,143.0,494.5" stroke="black" stroke-width="1" fill="none" />
<polyline points="145.5,502.0,145.5,501.0,145.5,507.0,149.5,508.5,157.5,516.0" stroke="orange" stroke-width="1" fill="none" />
<polyline points="140.5,512.0,143.0,509.0,141.0,505.0,143.0,501.0,137.5,497.0,136.0,492.5,132.5,488.0,132.5,483.0" stroke="black" stroke-width="1" fill="none" />
<polyline points="139.0,487.5,133.5,490.0,139.5,496.5,134.0,499.5,138.5,500.0" stroke="green" stroke-width="1" fill="none" />
<polyline points="128.0,498.5,131.5,497.0" stroke="green" stroke-width="1" fill="none" />
<polyline points="122.0,499.0,126.0,501.5,126.0,504.5,123.5,513.5" stroke="green" stroke-width="1" fill="none" />
<polyline points="122.5,509.5,126.5,506.0,121.5,498.5,124.5,495.5,123.5,490.0" stroke="orange" stroke-width="1" fill="none" />
<polyline points="124.5,496.0,129.0,503.5" stroke="green" stroke-width="1" fill="none" />
<polyline points="133.5,514.5,132.0,509.0,128.5,502.5,127.0,504.0" stroke="yellow" stroke-width="1" fill="none" />
<polyline points="139.0,495.0,138.0,486.5,138.0,482.5" stroke="black" stroke-width="1" fill="none" />
<polyline points="135.0,481.5,134.5,490.5,136.5,495.0,132.5,496.0,137.5,500.0,138.0,505.0,140.5,511.0,140.5,514.0" stroke="black" stroke-width="1" fill="none" />
<polyline points="156.5,500.0,161.0,510.0" stroke="black" stroke-width="1" fill="none" />
<polyline points="165.5,497.5,162.0,497.0" stroke="black" stroke-width="1" fill="none" />
<polyline points="168.5,488.0,166.0,484.0,162.5,479.5" stroke="yellow" stroke-width="1" fill="none" />
<polyline points="166.0,477.5,164.0,481.5,166.5,477.0,168.5,479.0,170.5,480.0" stroke="black" stroke-width="1" fill="none" />
<polyline points="163.5,467.5,165.5,469.0,172.5,472.5,168.0,475.5,164.5,484.0,165.5,487.0,167.0,493.5,168.5,493.0" stroke="orange" stroke-width="1" fill="none" />
<polyline points="199.0,490.5,205.5,488.5,206.0,488.5,209.5,487.5,210.5,484.5,215.0,484.0,218.0,479.5,224.5,472.5" stroke="black" stroke-width="1" fill="none" />
<polyline points="232.5,466.0,235.0,455.0,238.0,457.0" stroke="green" stroke-width="1" fill="none" />
<polyline points="218.5,477.5,220.5,477.5,223.0,473.0,222.5,471.0,229.5,466.0,229.5,462.5,234.0,458.0,232.5,455.0,234.0,450.0,234.5,446.0,235.5,442.0,238.5,438.5,237.0,435.0,238.5,434.5,237.0,424.0,237.0,424.0,234.0,420.5,233.5,414.5,230.0,411.5,231.0,406.5,231.0,404.5" stroke="yellow" stroke-width="1" fill="none" />
<polyline points="223.5,406.5,224.5,409.5,223.0,415.0,224.5,415.5,223.0,413.5" stroke="black" stroke-width="1" fill="none" />
<polyline points="231.0,416.0,226.5,418.0,229.5,422.0,227.5,422.0" stroke="black" stroke-width="1" fill="none" />
<polyline points="245.0,411.0,242.5,417.0,246.5,417.0,245.0,425.0,244.0,428.0,241.5,430.0,239.0,434.5,241.0,440.5,241.5,444.5,239.5,446.0,241.5,450.0,237.5,454.0,237.5,458.5,235.0,462.0,234.5,467.5,232.0,471.0,227.0,474.5,224.5,477.5,223.5,482.5,220.5,485.0,213.0,492.5" stroke="black" stroke-width="1" fill="none" />
<polyline points="196.0,498.5,199.0,493.5,206.0,494.0,204.5,495.5,210.0,493.0,214.0,491.5,219.0,489.0,224.0,486.0,227.5,480.0" stroke="black" stroke-width="1" fill="none" />
<polyline points="199.5,450.0,200.0,446.0,195.5,450.0,197.5,448.5,191.5,449.5" stroke="black" stroke-width="1" fill="none" />
<polyline points="195.5,449.0,188.5,449.5,188.5,450.0,182.5,446.5,178.5,450.0,179.0,450.0,181.5,450.0,184.0,442.0,185.5,435.5,179.5,437.0,179.5,432.0,182.0,429.5,181.0,426.0,178.5,422.0,180.0,420.0,177.5,414.0,175.5,412.5,174.0,405.5,170.0,401.0,165.0,395.5,165.5,393.5,159.5,390.0,158.5,384.5,162.5,381.0,166.0,376.5,163.0,379.5" stroke="black" stroke-width="1" fill="none" />
<polyline points="161.5,375.0,164.0,371.0,167.5,368.0,171.5,362.5,176.0,358.0,180.0,348.5,183.5,343.5,188.0,341.0,193.0,334.0,197.0,329.5,200.0,323.0" stroke="yellow" stroke-width="1" fill="none" />
<polyline points="205.0,313.5,203.0,318.0" stroke="yellow" stroke-width="1" fill="none" />
<polyline points="192.0,317.5,197.5,307.5,198.0,300.0,204.0,291.0,208.0,286.5,213.5,278.0,218.0,272.5,217.0,261.5,220.5,260.0,224.5,249.5,233.5,246.0,234.5,239.5,239.5,233.5,243.5,231.0,245.5,225.5,253.0,221.5,256.5,218.0,258.0,217.5" stroke="black" stroke-width="1" fill="none" />
<polyline points="264.0,222.0,268.5,228.0" stroke="black" stroke-width="1" fill="none" />
<polyline points="262.5,231.0,267.5,231.5,259.5,240.0" stroke="black" stroke-width="1" fill="none" />
<polyline points="262.0,239.0,262.0,234.5,260.0,229.0,260.0,223.5,261.5,227.0,255.5,225.0,252.5,229.0,248.5,233.5,245.5,236.0,240.5,243.0,236.5,248.0,234.5,252.5,228.5,258.5,226.0,263.5,220.0,271.5,215.0,281.0,214.5,283.0,216.0,279.0,218.5,276.5,219.5,272.0,223.0,267.0,223.5,262.5,226.0,257.5,231.5,260.0,236.0,252.5,234.5,249.5,240.5,241.5,243.5,240.0,245.5,241.0,251.5,231.5,255.0,226.0,259.5,221.0,262.0,219.0,263.5,215.5,262.5,214.5,264.0,212.0,266.0,211.0,268.0,204.0,271.0,199.0,270.0,195.5,270.5,190.5,268.5,186.0,265.0,192.0,261.0,197.0,258.0,201.0,255.0,203.5" stroke="yellow" stroke-width="1" fill="none" />
<polyline points="249.5,204.5,253.0,199.5,252.0,196.0" stroke="yellow" stroke-width="1" fill="none" />
<polyline points="260.5,199.0,259.0,207.0,257.0,214.0,253.0,217.5,249.0,221.0,244.5,226.5,243.0,229.0,234.5,235.5,232.5,236.5,232.5,237.5,230.0,230.0,233.5,227.5,230.0,219.5,228.0,219.5,227.5,214.0,225.5,214.0,223.5,213.5,226.5,206.0,226.5,202.5,224.0,203.0" stroke="black" stroke-width="1" fill="none" />
<polyline points="232.0,201.0,236.5,201.0,234.5,207.0,230.5,208.5" stroke="black" stroke-width="1" fill="none" />
<polyline points="234.5,199.5" stroke="black" stroke-width="1" fill="none" />
<polyline points="245.5,187.5,240.0,192.0" stroke="black" stroke-width="1" fill="none" />
<polyline points="243.0,200.0,249.5,194.0,251.0,191.5,257.5,188.5,250.0,189.0,246.0,193.0,241.5,196.0,248.5,190.5,253.0,186.5,256.0,186.5,259.0,189.5,263.0,187.5,265.5,180.0,267.0,182.0" stroke="green" stroke-width="1" fill="none" />
<polyline points="268.0,181.0,265.0,184.0,259.0,190.0,255.0,191.5,254.5,195.5,251.0,198.5,245.0,201.0,249.0,205.5,249.0,206.5,251.0,201.0,254.0,195.0,258.0,194.0,264.5,189.5,266.5,188.5,273.5,185.5,274.5,190.0" stroke="black" stroke-width="1" fill="none" />
<polyline points="266.0,189.5,263.0,192.0,261.5,198.0,256.5,202.5,260.5,198.0,260.5,193.0,266.5,190.0,269.0,186.0" stroke="black" stroke-width="1" fill="none" />
<polyline points="261.0,193.0,260.5,193.5,258.5,198.0,253.0,201.5,247.5,210.5,252.0,210.0,254.0,219.5" stroke="black" stroke-width="1" fill="none" />
<polyline points="263.5,207.5,266.0,203.0,262.5,202.0,260.0,207.0,260.0,208.0,255.5,213.5,255.0,216.0,253.0,223.5,249.5,225.0,245.0,232.0,243.0,231.5,236.5,239.5,234.5,238.5" stroke="green" stroke-width="1" fill="none" />
<polyline points="236.0,224.0,229.5,223.0" stroke="black" stroke-width="1" fill="none" />
<polyline points="234.0,221.0" stroke="black" stroke-width="1" fill="none" />
<polyline points="221.5,217.5,228.0,226.0,230.5,225.0" stroke="green" stroke-width="1" fill="none" />
<polyline points="218.0,233.0,221.5,235.5" stroke="black" stroke-width="1" fill="none" />
<polyline points="218.0,235.5,221.5,230.0,220.0,236.5,225.0,238.5,222.0,240.5,220.5,247.0" stroke="black" stroke-width="1" fill="none" />
<polyline points="222.5,253.0,222.0,248.0,221.0,245.5,225.0,238.5,229.5,232.5,220.0,233.5,222.5,230.5,220.0,229.5,220.5,224.0,220.5,222.0,218.5,218.5,218.0,213.0" stroke="black" stroke-width="1" fill="none" />
<polyline points="218.0,216.5,218.0,218.5,220.5,228.0,216.0,227.0,219.5,235.0,224.5,230.5,228.0,241.0,231.5,243.5" stroke="black" stroke-width="1" fill="none" />
<polyline points="231.0,245.0,228.0,248.5,223.5,253.0,217.0,263.0,212.5,267.5,210.0,274.5,206.0,280.5,202.0,288.0,198.0,295.0,196.0,305.0,189.5,316.0,187.5,315.5,184.0,324.0,179.0,325.5,174.0,328.5,174.5,330.5,168.5,332.0,162.0,339.0,158.0,341.5,152.0,342.5,151.5,352.0,145.0,346.0" stroke="yellow" stroke-width="1" fill="none" />
<polyline points="144.0,345.0,148.5,334.5,145.5,341.0,149.5,336.0,148.5,332.0,151.0,329.0,148.5,326.0" stroke="yellow" stroke-width="1" fill="none" />
<polyline points="151.5,328.5,153.0,333.0,153.0,337.0" stroke="orange" stroke-width="1" fill="none" />
<polyline points="149.5,336.0,146.0,346.5,149.0,347.0,147.5,350.0" stroke="black" stroke-width="1" fill="none" />
<polyline points="144.0,348.0,137.5,346.0,135.5,339.5,136.0,338.0,136.5,332.5,135.5,329.0,131.0,328.5,131.5,321.0,132.5,318.5,130.5,315.0,130.0,311.0,127.0,305.5,130.5,299.5" stroke="orange" stroke-width="1" fill="none" />
<polyline points="133.0,302.0,130.0,296.5" stroke="green" stroke-width="1" fill="none" />
<polyline points="145.5,289.0,134.0,293.5,130.0,300.0,133.0,296.5" stroke="green" stroke-width="1" fill="none" />
<polyline points="126.0,298.5,128.5,293.0,132.5,291.0,137.5,289.5,138.0,291.0" stroke="black" stroke-width="1" fill="none" />
<polyline points="130.0,281.0,131.5,274.0,140.0,277.5,142.5,275.0" stroke="black" stroke-width="1" fill="none" />
<polyline points="140.5,274.5,143.0,272.0,151.5,267.5" stroke="black" stroke-width="1" fill="none" />
<polyline points="153.0,266.0,155.0,272.0" stroke="black" stroke-width="1" fill="none" />
<polyline points="150.5,270.5,157.5,271.0,156.5,270.0,165.0,279.0" stroke="green" stroke-width="1" fill="none" />
<polyline points="167.5,281.5,167.5,279.0,170.0,275.5,169.0,271.5,169.5,269.5,172.0,265.5,169.0,258.5,171.0,255.0,170.5,251.5,174.5,256.5,172.5,257.5" stroke="green" stroke-width="1" fill="none" />
<polyline points="164.5,256.0,168.0,252.5,176.0,248.0" stroke="black" stroke-width="1" fill="none" />
<polyline points="175.0,253.5,173.0,259.0,174.0,258.5,171.5,263.5" stroke="black" stroke-width="1" fill="none" />
<polyline points="" stroke="black" stroke-width="1" fill="none" />
<polyline points="183.5,261.5,182.0,262.0" stroke="black" stroke-width="1" fill="none" />
<polyline points="182.0,264.0,181.5,261.5,179.5,261.5,177.5,262.0" stroke="black" stroke-width="1" fill="none" />
<polyline points="176.0,257.5,178.0,262.0" stroke="black" stroke-width="1" fill="none" />
<polyline points="188.0,257.5,186.0,258.5,182.5,260.0,185.5,266.0" stroke="orange" stroke-width="1" fill="none" />
<polyline points="204.0,264.5,205.5,264.0,204.0,266.0" stroke="black" stroke-width="1" fill="none" />
<polyline points="212.0,254.5,217.5,262.5,210.5,251.5,206.5,248.5,209.5,247.0,210.0,239.5,208.0,237.5,213.5,238.5,205.0,237.0,203.0,238.5" stroke="yellow" stroke-width="1" fill="none" />
<polyline points="208.0,237.0,209.5,240.0,210.0,246.0,211.0,243.0" stroke="black" stroke-width="1" fill="none" />
<polyline points="207.0,251.5,207.5,250.5,208.0,250.5" stroke="yellow" stroke-width="1" fill="none" />
<polyline points="206.5,251.5,215.5,257.5,212.5,257.5,217.0,261.5" stroke="black" stroke-width="1" fill="none" />
<polyline points="213.5,255.5,213.5,246.5,211.5,246.5,207.5,237.0,212.0,238.0,213.0,233.5" stroke="green" stroke-width="1" fill="none" />
<polyline points="214.0,235.0,213.5,238.5,209.5,246.0,211.0,247.5,211.5,251.5,210.0,255.5,216.0,259.0,214.0,254.0" stroke="black" stroke-width="1" fill="none" />
<polyline points="213.0,259.5,212.5,251.0,214.0,254.5,213.5,251.0" stroke="black" stroke-width="1" fill="none" />
<polyline points="203.5,266.0,200.0,263.5,195.0,259.0,196.5,254.5,193.5,250.0" stroke="black" stroke-width="1" fill="none" />
<polyline points="188.0,249.0,194.0,251.0,198.5,255.0,198.5,259.5" stroke="black" stroke-width="1" fill="none" />
<polyline points="187.5,272.5,185.5,270.0,184.0,266.0,185.0,262.5,181.5,259.5,181.0,253.0,184.5,250.0,186.5,243.5,187.5,240.5,192.0,236.5,195.5,233.0,191.5,241.5,189.5,243.0" stroke="black" stroke-width="1" fill="none" />
<polyline points="189.0,235.5,186.5,232.5,190.0,230.0,190.0,222.0,193.5,218.0,196.5,218.0,190.0,227.5" stroke="black" stroke-width="1" fill="none" />
<polyline points="191.5,217.5,186.0,219.0,186.5,225.0,186.5,229.0,187.0,232.5,187.5,234.0" stroke="black" stroke-width="1" fill="none" />
<polyline points="184.0,238.5,188.0,241.5" stroke="black" stroke-width="1" fill="none" />
<polyline points="189.0,245.0,190.0,244.0,189.0,246.0,191.5,241.0,196.5,238.5,199.0,235.5" stroke="black" stroke-width="1" fill="none" />
<polyline points="212.0,228.5,212.5,226.5" stroke="black" stroke-width="1" fill="none" />
<polyline points="211.0,219.0,209.5,214.5" stroke="black" stroke-width="1" fill="none" />
<polyline points="212.0,214.0,213.0,217.5,216.0,226.0,217.0,232.5,216.0,234.5" stroke="black" stroke-width="1" fill="none" />
<polyline points="216.5,203.5,225.5,201.5,225.0,196.5,224.5,203.5,219.5,205.0,220.0,214.0,220.0,212.0,223.5,218.0,224.0,224.0,228.5,228.0,229.5,231.0,233.5,233.0,234.5,238.0,233.5,239.5,231.5,245.5,227.0,246.5,228.0,250.5,223.0,256.0,222.0,261.5,218.5,263.5,216.0,267.0,214.0,271.0,209.0,275.0,208.0,279.5,205.5,283.5,201.5,289.5,201.0,292.0,201.0,297.5,196.0,301.5,195.5,304.0,194.5,307.0,192.0,312.0,189.0,316.5,192.0,322.0,198.0,322.0,198.0,316.5,202.5,313.0,208.5,309.5,213.0,305.0,216.5,297.0,219.0,292.0,224.5,286.5,227.0,280.5,235.0,278.5,238.0,271.0,241.5,268.0,249.5,264.5,249.5,259.5,253.5,256.0,257.0,252.0,260.0,250.5,265.5,246.5,269.5,244.0,277.5,248.0,278.5,247.5,281.0,251.5,286.5,250.0,286.5,249.0,295.0,255.5,303.5,256.5" stroke="black" stroke-width="1" fill="none" />
<polyline points="285.0,259.0,285.5,264.5" stroke="yellow" stroke-width="1" fill="none" />
<polyline points="284.5,259.0,289.0,268.5,291.5,275.0,292.5,274.0" stroke="yellow" stroke-width="1" fill="none" />
<polyline points="" stroke="black" stroke-width="1" fill="none" />
<polyline points="" stroke="yellow" stroke-width="1" fill="none" />
<polyline points="283.5,277.0,282.0,275.0,279.0,274.5,281.0,275.0" stroke="black" stroke-width="1" fill="none" />
<polyline points="287.5,273.5,284.5,270.5,282.0,265.0,276.5,267.0,273.0,263.5,273.0,265.5" stroke="black" stroke-width="1" fill="none" />
<polyline points="270.0,267.0,270.0,266.5,273.0,268.5" stroke="black" stroke-width="1" fill="none" />
<polyline points="271.5,267.0,266.5,270.0,264.5,268.0" stroke="yellow" stroke-width="1" fill="none" />
<polyline points="262.0,268.5,266.0,274.5,269.5,266.0,271.5,268.0,273.0,263.0,271.0,272.0,268.5,279.5,273.0,276.0,275.0,281.5" stroke="green" stroke-width="1" fill="none" />
<polyline points="263.0,280.5,265.5,278.5,260.0,271.5,259.0,272.5,259.5,268.0,258.5,271.5,257.0,273.5" stroke="black" stroke-width="1" fill="none" />
<polyline points="263.0,264.0,264.0,272.5,267.5,274.5,270.0,281.0,271.0,282.0" stroke="orange" stroke-width="1" fill="none" />
<polyline points="259.5,269.5,256.5,274.0,252.5,270.5,248.0,269.0,253.0,267.5" stroke="black" stroke-width="1" fill="none" />
<polyline points="248.0,268.0,253.0,266.0,252.5,272.5,254.0,274.5,256.5,278.5,263.5,277.5,267.5,278.5,271.0,279.5,273.0,281.0,279.0,280.0,285.0,273.0" stroke="black" stroke-width="1" fill="none" />
<polyline points="290.5,267.0,289.0,264.0,281.5,258.5,282.0,256.0,279.5,253.0,279.0,252.5" stroke="black" stroke-width="1" fill="none" />
<polyline points="277.5,257.0,278.0,253.0,275.5,251.5,267.5,251.5" stroke="black" stroke-width="1" fill="none" />
<polyline points="271.5,254.0" stroke="black" stroke-width="1" fill="none" />
<polyline points="276.0,258.5,273.0,257.0,267.5,258.0,266.0,258.0,260.5,252.0,259.5,258.0" stroke="black" stroke-width="1" fill="none" />
<polyline points="265.0,267.0,263.0,271.0,270.5,273.5" stroke="yellow" stroke-width="1" fill="none" />
<polyline points="281.0,267.5,284.5,271.5,284.5,273.5,289.5,279.0,285.5,279.5,287.5,276.5,292.0,275.5" stroke="black" stroke-width="1" fill="none" />
<polyline points="290.0,251.0" stroke="black" stroke-width="1" fill="none" />
<polyline points="273.5,243.5,267.0,245.5,260.0,247.5,256.5,252.5,255.0,256.5,246.5,261.5,246.0,268.0,239.5,268.5,237.0,272.5,235.5,278.5,231.0,282.0,225.5,287.5,222.5,288.5,221.0,296.0,215.5,297.5,213.5,301.5,212.0,305.5,207.0,309.0,203.5,312.5,201.0,318.0,202.0,320.0,198.0,323.5,193.5,328.5,191.5,333.0,186.0,335.5,185.5,340.5,182.0,344.5,179.0,347.5,175.0,355.0,174.5,354.0,170.0,362.5,166.5,368.0,162.0,372.5,162.0,376.0,158.5,376.5,156.0,386.0,161.0,391.0,165.5,393.5,169.5,398.0,173.5,403.5,176.0,404.0" stroke="black" stroke-width="1" fill="none" />
<polyline points="170.0,404.0,172.0,403.0,162.0,403.0,156.0,393.0,153.5,391.0" stroke="black" stroke-width="1" fill="none" />
<polyline points="150.5,383.0" stroke="black" stroke-width="1" fill="none" />
<polyline points="140.0,381.5,140.0,377.0,138.5,372.0,138.5,371.0" stroke="black" stroke-width="1" fill="none" />
<polyline points="136.5,377.5,139.0,381.0,144.0,380.0,146.0,380.5,146.5,385.0" stroke="green" stroke-width="1" fill="none" />
<polyline points="143.5,394.5,136.5,396.5,134.5,402.5,133.0,409.5,128.5,411.5,129.0,414.5,131.0,419.0,133.5,424.5,138.5,425.5,139.5,431.5,137.5,435.0,140.0,440.0,136.0,443.5,138.0,447.0,139.5,453.0,137.5,455.5,135.0,458.5,136.5,459.5,138.5,469.0,140.0,466.5,139.5,467.5,145.5,475.0,146.5,479.0,151.0,482.0,155.0,487.5,159.5,485.0,164.0,486.5" stroke="black" stroke-width="1" fill="none" />
<polyline points="166.0,460.0" stroke="black" stroke-width="1" fill="none" />
<polyline points="179.0,461.5,180.5,457.5,172.5,463.0,173.0,457.0,173.0,452.5,169.0,449.5,166.5,447.5,171.0,438.5,166.0,437.0,169.0,431.5,169.5,432.5" stroke="black" stroke-width="1" fill="none" />
<polyline points="168.0,436.5,160.0,439.5,160.5,434.0" stroke="black" stroke-width="1" fill="none" />
<polyline points="159.0,427.5,159.0,423.0,160.5,419.5,161.0,426.0,160.5,420.0,164.0,414.5,161.5,413.5,162.0,409.5,159.0,406.0,161.0,402.0,163.0,395.5,156.0,393.5,155.5,388.5,155.5,383.5,153.0,379.5,152.5,378.0,153.0,370.5,153.0,368.5,149.0,364.0" stroke="black" stroke-width="1" fill="none" />
<polyline points="145.0,363.0,148.5,361.0,153.0,363.0,150.0,367.5,151.5,373.0,154.5,377.0,152.5,381.5,152.0,380.5,151.0,385.0,157.5,389.0,158.5,393.0,160.0,396.5,168.5,399.0,171.5,401.5,177.0,408.0" stroke="yellow" stroke-width="1" fill="none" />
<polyline points="168.5,417.0,171.5,420.0,177.0,426.0,174.5,430.0,172.5,434.0,169.5,437.0,171.5,439.0,169.5,440.5,172.5,447.0,173.5,452.5,173.0,452.5,176.0,459.0,174.0,462.0,174.5,465.5,169.5,464.0" stroke="black" stroke-width="1" fill="none" />
<polyline points="172.5,463.0,168.0,453.5" stroke="black" stroke-width="1" fill="none" />
<polyline points="164.0,448.0,161.5,450.0,166.5,454.5,166.0,458.5,172.5,460.5,168.0,467.0,166.5,469.5,161.0,467.0,164.0,475.0,165.0,477.5,159.0,480.5,161.5,486.0,159.5,487.5,160.5,492.0,163.5,495.0,162.5,499.5,169.0,502.5,174.5,512.5,174.0,512.5" stroke="black" stroke-width="1" fill="none" />
<polyline points="158.0,468.5,147.5,458.5" stroke="black" stroke-width="1" fill="none" />
<polyline points="155.0,465.0,156.5,464.5" stroke="black" stroke-width="1" fill="none" />
<polyline points="162.0,461.5,156.5,461.5" stroke="black" stroke-width="1" fill="none" />
<polyline points="160.5,461.5,150.0,456.5,152.5,453.5,154.0,453.0,151.0,447.5,149.5,446.0,150.5,439.0,144.5,435.5,146.5,433.0,142.5,427.0,140.5,423.5,138.0,423.0,138.5,414.0,133.0,409.5" stroke="black" stroke-width="1" fill="none" />
<polyline points="133.5,407.5,141.5,403.5,145.0,400.0" stroke="orange" stroke-width="1" fill="none" />
<polyline points="143.0,398.5,140.5,398.5" stroke="green" stroke-width="1" fill="none" />
<polyline points="141.5,398.5,142.0,404.5,143.5,406.0,146.5,410.5" stroke="yellow" stroke-width="1" fill="none" />
<polyline points="156.5,419.5,153.0,423.5,156.0,426.0,157.0,432.5,157.0,435.0,156.0,439.0,153.0,439.0" stroke="black" stroke-width="1" fill="none" />
<polyline points="164.0,441.0,168.5,445.5,172.5,445.5,178.0,443.0,182.0,438.5,179.5,432.0,178.5,430.0" stroke="black" stroke-width="1" fill="none" />
<polyline points="175.0,426.0,178.5,424.5,175.0,417.5,176.0,416.0,172.5,414.0,163.5,409.5,166.5,408.0,163.0,402.5,162.5,396.0" stroke="yellow" stroke-width="1" fill="none" />
<polyline points="167.0,405.0,172.0,407.5,176.0,414.5,172.5,420.0,169.5,422.0,166.5,428.0,163.0,427.0,162.0,429.0,163.5,434.5,162.5,438.5,163.0,433.5,166.5,431.0,169.0,428.5,170.0,431.0" stroke="black" stroke-width="1" fill="none" />
<polyline points="172.0,431.0,171.0,433.0,170.0,436.5,169.5,434.0,174.0,437.0" stroke="black" stroke-width="1" fill="none" />
<polyline points="163.5,441.5,163.5,441.5,156.0,449.5,155.5,451.5,157.0,456.0,160.0,457.0,164.5,459.5,161.0,462.0" stroke="yellow" stroke-width="1" fill="none" />
<polyline points="163.0,458.0,159.5,456.5,163.5,451.5,162.0,452.0,158.5,452.5,159.5,448.0,157.5,446.0,158.5,450.5" stroke="orange" stroke-width="1" fill="none" />
<polyline points="" stroke="black" stroke-width="1" fill="none" />
<polyline points="141.0,444.5,148.5,452.5,154.5,456.5,152.0,458.5,155.5,455.0,154.5,457.5,164.0,456.0,166.0,451.5" stroke="yellow" stroke-width="1" fill="none" />
<polyline points="153.0,452.0,152.0,450.5,146.0,447.5,145.0,447.5,146.5,449.5" stroke="black" stroke-width="1" fill="none" />
<polyline points="147.0,453.0,149.0,461.5,150.0,463.0,151.5,465.5,150.5,468.5,149.0,474.5,156.5,476.0,156.0,478.5,156.5,480.5,160.5,478.5" stroke="orange" stroke-width="1" fill="none" />
<polyline points="153.5,475.0,151.5,469.0,147.5,465.0" stroke="black" stroke-width="1" fill="none" />
<polyline points="145.5,461.5,153.0,468.5" stroke="orange" stroke-width="1" fill="none" />
<polyline points="155.5,474.5,149.0,472.5,142.5,469.0,144.5,466.0,137.0,464.5" stroke="black" stroke-width="1" fill="none" />
<polyline points="139.5,453.5,142.0,457.5,145.5,460.5,143.0,460.5,144.0,472.5,145.0,473.0,151.0,477.0,155.5,481.0" stroke="black" stroke-width="1" fill="none" />
<polyline points="167.0,472.0,166.5,475.5,160.0,476.5,161.0,476.5,157.0,471.0,157.0,468.0,152.5,466.0,149.0,460.0" stroke="black" stroke-width="1" fill="none" />
<polyline points="143.0,451.0,143.0,455.5,146.0,456.5,146.5,463.5,147.5,466.5,148.5,470.5,151.5,471.5,155.0,477.5,158.0,478.0,156.0,485.0,158.0,488.0,162.0,490.5,164.5,497.0,163.5,498.5,165.5,502.5,165.0,506.0" stroke="yellow" stroke-width="1" fill="none" />
<polyline points="168.0,456.5,166.0,454.0,165.5,450.5,156.5,450.0,156.0,448.0,158.5,448.5,156.5,446.0,154.5,441.5,154.5,437.0,153.5,439.0,149.5,431.5,147.0,429.5,148.0,429.5,144.0,425.0,140.0,423.0" stroke="black" stroke-width="1" fill="none" />
<polyline points="139.5,420.5,143.5,422.0" stroke="black" stroke-width="1" fill="none" />
<polyline points="142.5,425.0,144.0,431.5,143.5,431.0" stroke="black" stroke-width="1" fill="none" />
<polyline points="147.5,420.5,143.5,418.5,143.0,412.5,138.5,408.5" stroke="orange" stroke-width="1" fill="none" />
<polyline points="137.0,411.0,142.0,412.5,145.5,419.0,146.5,423.5,150.5,423.0,149.5,428.5,152.5,431.5,153.5,431.5" stroke="orange" stroke-width="1" fill="none" />
<polyline points="155.0,421.0,154.5,423.0,151.5,420.5,151.5,413.5,150.5,405.5,151.0,399.0,150.5,398.5,148.5,394.0,149.5,397.5" stroke="green" stroke-width="1" fill="none" />
<polyline points="150.5,397.5" stroke="black" stroke-width="1" fill="none" />
<polyline points="151.5,397.0,157.5,399.5,160.5,394.5" stroke="green" stroke-width="1" fill="none" />
<polyline points="149.5,403.0,145.5,396.5,141.0,395.5,138.0,399.0,128.0,402.5,126.5,399.5,125.0,400.0,121.0,392.5" stroke="black" stroke-width="1" fill="none" />
<polyline points="120.0,394.5,124.5,395.0,122.5,402.5,127.0,400.5" stroke="orange" stroke-width="1" fill="none" />
<polyline points="130.5,407.0,137.0,403.5,136.0,392.5,140.5,394.0,142.0,387.5,140.5,389.0,141.5,383.5,143.5,378.5,144.0,376.0,148.5,372.0,149.0,367.0,147.0,363.5,145.5,360.0,144.0,357.0,144.0,353.5,144.5,350.5,141.0,346.0,141.5,340.5,138.0,339.5,134.5,334.5,138.0,327.0,136.5,324.0,134.5,317.5,135.5,314.5,133.5,312.0,131.5,308.5,130.5,304.5,131.0,294.5,132.5,293.0,133.5,292.0,139.5,289.5,131.5,281.0,127.5,276.0" stroke="black" stroke-width="1" fill="none" />
<polyline points="126.0,269.5,127.5,275.5,132.0,283.5,129.5,283.0,129.0,288.5,126.0,292.5,124.5,298.0,125.0,298.5,126.5,306.0,120.5,306.0,122.5,314.0,120.5,316.5,119.5,321.5,122.0,322.0,123.0,328.5,123.0,332.5,124.0,340.0" stroke="black" stroke-width="1" fill="none" />
<polyline points="120.0,338.5,117.5,344.0" stroke="black" stroke-width="1" fill="none" />
<polyline points="117.0,344.5,121.0,346.0,121.5,357.5,121.0,363.0,119.0,364.5,118.0,368.5,117.5,370.0,117.0,376.0,117.0,381.0,118.0,385.5,117.0,393.5,117.0,394.5,119.0,397.5,125.0,400.0" stroke="yellow" stroke-width="1" fill="none" />
<polyline points="128.0,403.5,122.5,401.5,121.0,397.5,120.5,390.0,121.0,386.5,125.0,380.0,120.5,381.0,121.5,377.0,118.5,376.0,118.5,371.5,119.0,373.0" stroke="black" stroke-width="1" fill="none" />
<polyline points="119.5,370.0,122.5,376.0,123.0,380.5,128.0,381.5,130.5,385.0" stroke="black" stroke-width="1" fill="none" />
<polyline points="125.0,385.5,123.5,388.5,124.5,389.0,125.5,388.0,128.5,398.5" stroke="black" stroke-width="1" fill="none" />
<polyline points="127.0,393.5,124.0,390.0,131.0,394.0,136.5,392.0,136.5,393.5,138.5,391.5" stroke="yellow" stroke-width="1" fill="none" />
<polyline points="132.5,391.5,126.5,388.0,125.0,390.5" stroke="orange" stroke-width="1" fill="none" />
<polyline points="117.5,401.5,117.0,399.5,120.5,406.5" stroke="orange" stroke-width="1" fill="none" />
<polyline points="112.5,413.5,119.0,413.5,118.0,411.0,125.0,406.5,127.0,404.5,127.5,411.0,128.0,415.5,130.0,416.0,129.0,422.0" stroke="yellow" stroke-width="1" fill="none" />
<polyline points="130.0,429.0,128.0,425.0,132.0,421.0,127.0,413.0" stroke="black" stroke-width="1" fill="none" />
<polyline points="134.5,407.0,134.0,407.5" stroke="yellow" stroke-width="1" fill="none" />
<polyline points="141.5,406.0,145.5,406.5,148.5,415.0,151.0,412.5" stroke="green" stroke-width="1" fill="none" />
<polyline points="143.5,405.0,140.5,404.0" stroke="black" stroke-width="1" fill="none" />
<polyline points="140.5,404.0,143.0,406.0" stroke="black" stroke-width="1" fill="none" />
<polyline points="152.5,403.5,148.5,396.0,145.0,396.0,149.0,393.0" stroke="black" stroke-width="1" fill="none" />
<polyline points="166.0,395.5,170.5,403.5,172.5,401.0,171.5,407.5,173.0,407.0,179.0,412.5,175.5,417.0,179.5,424.0,178.0,426.0,178.5,427.5" stroke="orange" stroke-width="1" fill="none" />
<polyline points="174.5,413.0,163.0,413.5,162.0,410.0,157.5,405.5,155.0,404.0,149.0,398.5,148.0,390.0,145.0,384.0,141.0,391.0,139.5,388.0,136.0,382.0,142.5,383.5,144.0,383.5,136.0,373.0,135.5,372.5,138.0,368.0,139.5,361.5,142.0,359.5,142.5,356.0,144.0,357.0,140.0,353.5,134.5,346.0,131.0,342.0,131.0,336.5,130.5,334.0,138.0,330.0,132.5,325.0,133.5,319.5" stroke="black" stroke-width="1" fill="none" />
<polyline points="117.5,328.0,122.5,335.0,122.5,336.5,120.5,338.0,122.0,340.0,122.0,345.5" stroke="black" stroke-width="1" fill="none" />
<polyline points="117.5,340.0,116.5,345.5,119.5,347.5,121.5,353.5,121.5,357.5,123.0,361.0,125.0,366.5,125.5,369.0,126.5,374.5,130.5,377.5,131.0,382.5,130.5,386.0,135.5,384.5,136.5,391.5" stroke="black" stroke-width="1" fill="none" />
<polyline points="139.0,363.5" stroke="orange" stroke-width="1" fill="none" />
<polyline points="145.5,367.5" stroke="black" stroke-width="1" fill="none" />
<polyline points="135.0,362.5,132.0,354.5,132.0,355.0" stroke="green" stroke-width="1" fill="none" />
<polyline points="134.5,355.5,130.5,352.0" stroke="black" stroke-width="1" fill="none" />
<polyline points="133.0,352.0,131.0,360.5,137.0,365.0,135.0,370.5" stroke="green" stroke-width="1" fill="none" />
<polyline points="143.0,361.5,140.5,356.5,139.0,350.5,140.0,348.5,136.0,344.5,136.0,341.5,135.5,335.5,133.5,332.0,124.5,333.0" stroke="black" stroke-width="1" fill="none" />
<polyline points="129.0,340.0,130.0,341.5,135.5,339.0,140.0,344.5" stroke="black" stroke-width="1" fill="none" />
<polyline points="140.5,343.5,142.5,339.5" stroke="black" stroke-width="1" fill="none" />
<polyline points="130.5,344.0,135.5,347.5,134.5,351.5,136.0,350.5" stroke="orange" stroke-width="1" fill="none" />
<polyline points="133.0,350.0,129.0,347.5,126.0,341.0" stroke="orange" stroke-width="1" fill="none" />
<polyline points="115.0,342.0,115.0,347.0,116.0,350.0,115.5,357.5,113.5,354.5,117.5,364.0,117.5,365.0,115.0,370.5,116.0,376.0,117.0,379.0,116.0,384.0,115.0,387.0,115.0,391.0,119.0,397.5,118.5,403.5,119.5,401.0,120.0,408.0,115.5,409.5,110.5,413.5,116.0,412.0,117.5,410.5,121.5,406.0" stroke="black" stroke-width="1" fill="none" />
<polyline points="126.0,408.0,121.5,411.5" stroke="black" stroke-width="1" fill="none" />
<polyline points="122.0,422.0,131.0,428.0" stroke="orange" stroke-width="1" fill="none" />
<polyline points="132.5,428.0,125.5,424.5" stroke="black" stroke-width="1" fill="none" />
<polyline points="120.5,415.0,125.5,418.5,124.5,425.5" stroke="black" stroke-width="1" fill="none" />
<polyline points="118.0,433.0,119.0,439.0,117.5,444.0,117.5,443.5,121.5,438.0,117.5,439.0" stroke="black" stroke-width="1" fill="none" />
<polyline points="119.5,439.5,121.0,440.0,121.5,442.0" stroke="black" stroke-width="1" fill="none" />
<polyline points="123.5,450.0,122.0,456.5" stroke="black" stroke-width="1" fill="none" />
<polyline points="128.0,453.5,122.0,452.0" stroke="black" stroke-width="1" fill="none" />
<polyline points="106.5,450.0,108.0,443.5,108.5,441.5,106.5,439.5" stroke="black" stroke-width="1" fill="none" />
<polyline points="102.5,437.5,105.0,443.0" stroke="black" stroke-width="1" fill="none" />
<polyline points="91.0,456.5,85.0,457.5,88.0,456.5,90.5,454.5,94.5,450.0,90.0,452.5" stroke="yellow" stroke-width="1" fill="none" />
<polyline points="87.0,456.5,86.5,460.0,91.0,457.5,97.0,453.5" stroke="black" stroke-width="1" fill="none" />
<polyline points="101.0,466.5,95.5,471.5,92.5,468.5,94.5,467.5" stroke="yellow" stroke-width="1" fill="none" />
<polyline points="97.5,491.5,99.5,492.5,100.0,495.5,99.5,502.0,101.5,505.0,106.5,511.0,103.5,510.0" stroke="black" stroke-width="1" fill="none" />
<polyline points="109.0,507.5,113.0,504.0,111.0,499.5,110.5,494.5,112.5,489.5,112.5,485.0" stroke="orange" stroke-width="1" fill="none" />
<polyline points="114.5,490.5,115.0,493.0,113.5,498.5,113.0,500.0,110.5,505.0,115.5,511.0,110.5,512.5,108.5,511.5" stroke="black" stroke-width="1" fill="none" />
<polyline points="104.5,505.5,98.0,505.0" stroke="black" stroke-width="1" fill="none" />
<polyline points="101.0,491.0,98.5,496.5,98.5,500.0,99.0,505.5,107.5,509.5,110.0,511.0" stroke="black" stroke-width="1" fill="none" />
<polyline points="119.5,511.0,118.5,505.0,119.5,503.5,120.5,499.5,120.0,492.5,119.5,491.5,120.0,487.5,122.5,481.0,121.0,481.0" stroke="black" stroke-width="1" fill="none" />
<polyline points="123.0,484.0,125.5,489.0,128.5,489.5,129.0,492.5,131.0,498.5,129.0,506.0,132.0,507.0" stroke="yellow" stroke-width="1" fill="none" />
<polyline points="151.0,450.0,153.0,448.0,148.5,443.0,147.0,440.5,139.0,430.0,132.0,423.5,128.0,426.0" stroke="black" stroke-width="1" fill="none" />
<polyline points="134.0,423.0,138.5,421.0,133.5,428.5,137.0,432.0,138.0,438.0,141.0,441.5,142.5,445.5,140.5,449.0,140.5,452.5,136.5,457.5,135.0,461.5,132.0,467.5,137.0,459.5" stroke="green" stroke-width="1" fill="none" />
<polyline points="138.5,436.0,138.5,430.0,138.5,428.0" stroke="orange" stroke-width="1" fill="none" />
<polyline points="130.0,431.0,122.0,426.5,122.0,421.5,122.5,415.0" stroke="black" stroke-width="1" fill="none" />
<polyline points="111.0,418.5,111.5,421.0,113.0,426.5,113.0,428.5,117.5,433.5" stroke="black" stroke-width="1" fill="none" />
<polyline points="113.0,428.5" stroke="orange" stroke-width="1" fill="none" />
<polyline points="106.0,415.5,109.0,419.0,109.5,425.0,108.5,429.0,108.5,433.0,109.5,433.5,107.5,440.0,104.5,449.5" stroke="black" stroke-width="1" fill="none" />
<polyline points="103.5,435.5,100.5,437.0,97.5,446.5,90.5,442.5,91.5,446.5,94.5,443.5,102.0,439.0,105.5,437.5,103.5,433.5,103.5,427.0,107.5,422.5,105.0,418.5,108.5,416.5,106.5,418.0" stroke="black" stroke-width="1" fill="none" />
<polyline points="93.5,416.5,88.0,421.0,89.0,425.5,88.5,423.0,91.5,426.5" stroke="black" stroke-width="1" fill="none" />
<polyline points="88.5,424.0,87.5,424.0,91.0,424.5,91.0,418.5,88.5,419.0,91.5,421.5" stroke="black" stroke-width="1" fill="none" />
<polyline points="95.0,404.0" stroke="green" stroke-width="1" fill="none" />
<polyline points="97.0,400.0" stroke="black" stroke-width="1" fill="none" />
<polyline points="91.5,398.0,88.5,398.0,93.5,400.5,95.5,405.5" stroke="black" stroke-width="1" fill="none" />
<polyline points="99.0,407.0,97.5,412.0,96.0,407.5,96.0,404.5,95.0,402.0,93.5,400.5,93.0,399.5,88.5,392.5,91.5,393.0,88.0,384.5,82.0,385.5,87.5,384.0" stroke="yellow" stroke-width="1" fill="none" />
<polyline points="81.5,387.0,80.0,391.5,75.5,399.0,71.5,403.0,72.0,405.5,73.5,409.5,69.0,415.5,70.5,415.0,67.5,416.0,70.0,422.5,67.0,425.5,69.0,425.5,69.5,425.0,70.5,430.0,70.0,432.5,68.5,438.5,66.5,447.0,70.0,447.0,72.0,453.5,72.0,452.5,70.5,459.0,71.0,463.0,70.5,466.5,69.5,470.5,64.5,476.5,66.5,477.5,66.0,481.5,64.5,486.5,65.5,492.5,62.0,498.5,65.5,500.0,61.0,506.0,62.5,508.0,62.5,512.5,61.5,513.0,64.0,503.0" stroke="black" stroke-width="1" fill="none" />
<polyline points="62.5,504.0,64.5,511.0,65.5,516.5,68.0,513.0" stroke="green" stroke-width="1" fill="none" />
<polyline points="73.5,493.5,73.0,490.0,75.0,486.0,73.5,481.0,69.0,475.5,68.5,473.0" stroke="black" stroke-width="1" fill="none" />
<polyline points="66.0,473.5,68.0,475.5,67.5,477.0,67.5,481.0,66.5,483.0,67.0,486.0,65.0,490.5,67.0,497.0" stroke="orange" stroke-width="1" fill="none" />
<polyline points="71.0,463.5,72.5,457.0,75.5,454.0,75.0,456.0" stroke="black" stroke-width="1" fill="none" />
<polyline points="72.0,453.5,73.0,460.5,74.0,464.0,77.0,469.0,75.0,473.0" stroke="black" stroke-width="1" fill="none" />
<polyline points="66.5,454.5,66.5,450.5" stroke="black" stroke-width="1" fill="none" />
<polyline points="63.5,452.0,66.0,459.5,69.0,461.5,66.0,465.0,65.5,465.5,70.0,474.5,69.5,478.5" stroke="yellow" stroke-width="1" fill="none" />
<polyline points="31.5,491.0,30.5,500.0,30.0,500.5" stroke="orange" stroke-width="1" fill="none" />
<polyline points="19.5,504.0,19.0,500.5,16.0,502.0,16.5,504.0" stroke="yellow" stroke-width="1" fill="none" />
<polyline points="16.0,504.5,14.5,496.0" stroke="black" stroke-width="1" fill="none" />
<polyline points="10.5,429.0,11.0,422.5" stroke="black" stroke-width="1" fill="none" />
<polyline points="8.0,421.5,10.5,421.0,8.5,427.5,8.5,432.0,14.0,436.0,12.5,442.0,10.5,444.0,13.0,445.5,12.5,448.5,13.5,452.0,11.0,457.5,13.5,461.5,16.0,463.0,15.5,468.0,16.0,472.0,14.5,478.5,13.5,476.0,13.5,481.0" stroke="orange" stroke-width="1" fill="none" />
<polyline points="38.5,463.0,36.0,457.0,35.0,454.5,34.5,451.0,33.5,444.5,32.0,439.0,32.0,437.0,32.0,433.0,31.5,430.0" stroke="black" stroke-width="1" fill="none" />
<polyline points="27.5,418.5" stroke="black" stroke-width="1" fill="none" />
<polyline points="24.0,412.5,24.5,415.5,26.0,419.0,24.5,424.0,26.0,427.0,24.5,434.0,29.0,437.5,25.0,440.5,27.5,443.5,26.5,449.0,29.5,452.5,25.5,456.0,27.0,464.0,29.5,462.5,27.5,469.0,29.5,472.5,27.5,478.0,28.0,480.0,29.0,486.0,31.5,487.0,27.0,494.5,31.5,496.5,32.0,500.0,31.0,503.5" stroke="yellow" stroke-width="1" fill="none" />
<polyline points="64.5,435.0,67.5,433.0,68.5,437.0,70.0,435.5" stroke="green" stroke-width="1" fill="none" />
<polyline points="69.0,422.5,65.0,423.5,68.5,421.5,70.5,417.0,67.0,411.5,64.5,409.0,69.0,404.5,80.0,399.5,74.5,397.5,77.5,397.5,72.5,399.0" stroke="yellow" stroke-width="1" fill="none" />
<polyline points="72.5,406.0,77.5,400.0,78.5,398.0" stroke="green" stroke-width="1" fill="none" />
<polyline points="80.5,388.0,77.5,397.5,77.5,399.5" stroke="black" stroke-width="1" fill="none" />
<polyline points="70.0,409.0,68.0,412.5,71.5,402.5,69.0,408.5,68.5,412.5,68.0,416.5,66.0,422.0" stroke="black" stroke-width="1" fill="none" />
<polyline points="71.5,421.0,73.0,419.5,75.0,426.5,76.0,424.0" stroke="green" stroke-width="1" fill="none" />
<polyline points="102.5,435.5,96.5,441.5,95.5,439.5,101.5,436.5,102.0,441.0" stroke="orange" stroke-width="1" fill="none" />
<polyline points="112.0,407.0,110.5,403.0,111.5,403.0,110.0,404.0" stroke="black" stroke-width="1" fill="none" />
<polyline points="106.5,394.5,109.0,397.5,107.5,400.5,109.0,406.0,106.0,410.0,98.5,414.5,97.5,415.5" stroke="black" stroke-width="1" fill="none" />
<polyline points="105.5,402.5,109.0,401.0,103.0,396.5,105.0,390.5,108.5,395.5,107.5,390.0" stroke="black" stroke-width="1" fill="none" />
<polyline points="101.0,373.5,105.5,380.0,107.5,373.5,105.5,366.5,106.5,368.0,107.0,363.0,109.5,360.0,109.0,358.0,107.0,350.0,103.5,341.0,103.5,339.0,108.0,341.0,105.5,335.5" stroke="black" stroke-width="1" fill="none" />
<polyline points="104.0,334.5,111.0,332.5,112.5,329.5" stroke="black" stroke-width="1" fill="none" />
<polyline points="120.5,323.0,118.5,330.0,117.5,329.0" stroke="black" stroke-width="1" fill="none" />
<polyline points="105.0,318.0,105.5,323.5,109.0,317.0,113.5,315.5,117.5,309.0,118.0,309.5,119.5,317.5,111.5,317.5,109.0,324.5,105.5,319.0,107.0,314.0,111.0,312.0,114.0,317.5,102.5,317.5,102.0,325.5,109.5,319.5,114.0,312.5,115.0,309.0" stroke="green" stroke-width="1" fill="none" />
<polyline points="119.5,306.5,119.5,310.5,116.5,316.5,114.0,320.5,113.5,322.5,111.0,329.5,106.0,334.5,101.0,337.0,96.5,341.5,100.0,342.0,97.5,341.5" stroke="black" stroke-width="1" fill="none" />
<polyline points="99.0,348.5" stroke="black" stroke-width="1" fill="none" />
<polyline points="94.5,358.0,94.0,361.5,95.0,365.5,94.0,369.5,94.5,374.0,95.0,375.0,91.0,381.5,89.5,384.5,87.0,387.5,90.5,391.5,87.0,392.5,88.5,399.0,93.0,404.0,91.5,410.0,92.0,409.5,96.5,413.0,101.5,411.5,106.0,412.0,106.5,407.0,112.5,403.0" stroke="black" stroke-width="1" fill="none" />
<polyline points="129.0,375.5,123.0,368.0,121.5,362.0" stroke="yellow" stroke-width="1" fill="none" />
<polyline points="122.0,360.5,119.0,370.5,123.0,372.0,127.5,380.5,131.0,382.5,132.0,387.0,133.0,391.5,133.0,393.5,133.5,394.5" stroke="black" stroke-width="1" fill="none" />
<polyline points="123.0,369.5,118.0,361.0" stroke="black" stroke-width="1" fill="none" />
<polyline points="119.5,363.5,124.0,372.5,122.5,371.0,126.5,377.5" stroke="black" stroke-width="1" fill="none" />
<polyline points="133.5,363.0,132.0,360.5,125.5,360.0" stroke="black" stroke-width="1" fill="none" />
<polyline points="123.5,353.5,124.5,362.5,124.0,362.0,130.5,365.0,130.0,366.5,135.0,368.5,141.5,366.5" stroke="black" stroke-width="1" fill="none" />
<polyline points="162.5,364.0,166.0,362.5,173.5,357.0,177.0,354.5,179.0,347.0,184.5,343.0,186.5,335.0" stroke="green" stroke-width="1" fill="none" />
<polyline points="191.5,329.0,184.5,330.0,180.0,331.5,176.0,337.5,171.0,341.5,167.5,347.0,165.0,354.5,161.0,360.0,158.5,371.5,159.0,363.5,166.5,362.0,169.0,357.5,174.0,353.5,177.5,349.0,178.0,344.0,181.0,340.0,187.5,339.5,184.5,335.0,189.5,334.0,191.0,330.0" stroke="green" stroke-width="1" fill="none" />
<polyline points="190.0,345.5,188.0,344.0,190.0,352.0" stroke="yellow" stroke-width="1" fill="none" />
<polyline points="195.0,353.0,193.5,353.5,195.0,349.5,194.5,348.5,194.0,347.5" stroke="black" stroke-width="1" fill="none" />
<polyline points="167.5,360.5,160.5,364.0,165.0,360.0" stroke="black" stroke-width="1" fill="none" />
<polyline points="165.0,365.0,168.5,359.5,162.5,366.0,162.0,366.5,160.0,363.0,162.0,359.0,163.0,353.5,167.5,353.5,169.0,344.5,174.5,342.5,177.5,337.5,177.5,332.5,181.0,332.0,177.0,331.0,170.0,334.5,170.5,336.0,166.5,341.0,167.0,334.0,165.0,331.5,164.5,331.5" stroke="black" stroke-width="1" fill="none" />
<polyline points="163.5,331.5,162.5,339.0,157.5,336.5,161.5,329.5,165.0,324.5,166.5,322.0,166.5,319.0" stroke="yellow" stroke-width="1" fill="none" />
<polyline points="166.5,323.0,171.5,319.5" stroke="orange" stroke-width="1" fill="none" />
<polyline points="174.0,315.0,169.5,320.0,166.0,326.5,166.0,321.5,164.5,325.5,159.0,332.5,153.5,338.5,153.0,341.0,149.0,336.5,142.5,345.5,143.0,340.0,142.0,336.0,135.0,337.0,136.5,330.5,139.5,326.0,134.5,320.0,133.5,319.0,131.5,310.0,130.5,309.0,130.0,303.5,131.0,305.5,133.5,299.5,135.5,296.0,139.0,291.5,139.5,288.5,142.5,283.5,138.0,279.0,137.0,279.5,134.5,280.0,138.5,282.0,142.0,277.5,148.0,275.0,142.0,272.0,146.0,268.0,153.5,263.5,158.5,256.5,158.0,253.5,162.0,247.5,164.0,247.5,159.0,244.0,153.5,251.0,153.5,251.0" stroke="black" stroke-width="1" fill="none" />
<polyline points="146.5,250.5,144.5,249.5,145.5,249.0" stroke="orange" stroke-width="1" fill="none" />
<polyline points="142.5,254.0,142.5,250.0,148.5,249.0,148.0,249.0,145.5,253.5,148.0,254.0" stroke="yellow" stroke-width="1" fill="none" />
<polyline points="144.5,267.0,140.5,270.5,140.5,273.5" stroke="green" stroke-width="1" fill="none" />
<polyline points="148.5,269.5,155.0,269.5,158.0,262.0,162.5,255.5,156.5,260.5,159.5,263.5,154.5,266.5,151.0,269.5,149.5,272.0,149.0,275.5,146.0,283.0,148.0,285.5,154.0,287.5,158.5,288.5,164.5,295.0,163.5,300.5,160.5,301.0,158.0,308.5,161.5,314.5,160.5,316.5,157.5,319.0,157.0,320.0,163.5,315.5,166.5,316.5,165.5,312.5,168.0,308.5,172.5,306.5,171.0,298.0,181.0,292.0" stroke="black" stroke-width="1" fill="none" />
<polyline points="180.5,300.5,179.5,301.0,179.0,304.0" stroke="yellow" stroke-width="1" fill="none" />
<polyline points="179.5,306.0,181.0,310.5,174.0,303.5" stroke="black" stroke-width="1" fill="none" />
<polyline points="176.0,300.5,174.0,300.0,181.5,305.5,183.5,310.5,181.0,311.5" stroke="black" stroke-width="1" fill="none" />
<polyline points="166.0,312.5,165.5,313.0,169.5,316.5,171.0,312.5,169.5,312.0" stroke="orange" stroke-width="1" fill="none" />
<polyline points="163.5,302.5,166.5,297.5,169.0,293.0,172.5,288.0,170.0,287.0,166.5,286.5,167.0,289.0,160.5,292.0,166.5,284.5,167.0,281.0,171.5,279.0,172.5,282.5,174.0,281.0,166.5,280.5,166.0,282.5,163.5,286.5,163.5,287.5,164.5,283.5,163.5,279.0,166.0,274.0,159.5,273.0,163.5,271.0,166.0,266.5,166.0,263.0,164.0,257.0,165.0,258.0,170.0,255.5,176.0,247.5,174.5,244.0,174.5,239.5,172.5,234.0,178.5,232.0,178.0,234.0,174.5,233.5" stroke="black" stroke-width="1" fill="none" />
<polyline points="176.5,233.0,182.0,235.5,177.0,242.5,177.0,245.5,179.0,249.5,174.5,252.0,178.0,256.0,180.5,259.5" stroke="black" stroke-width="1" fill="none" />
<polyline points="181.0,252.0,182.5,242.0,190.0,250.5,191.5,253.0,193.0,257.0,192.5,257.0,200.5,259.5" stroke="yellow" stroke-width="1" fill="none" />
<polyline points="224.0,271.5,220.5,274.5,224.0,271.5,228.5,270.5" stroke="black" stroke-width="1" fill="none" />
<polyline points="221.0,306.0,215.5,311.0,216.5,316.5,217.5,318.0,220.0,322.5,220.5,326.0,216.0,328.5,215.0,332.0,217.0,338.0,218.0,344.0,218.0,346.0,218.0,350.0,218.5,354.5,217.0,355.0" stroke="black" stroke-width="1" fill="none" />
<polyline points="252.0,379.0,251.5,381.0,254.0,382.0,257.0,384.5,261.0,384.5,265.0,385.0,264.0,383.5" stroke="black" stroke-width="1" fill="none" />
<polyline points="268.0,386.5,262.5,389.5,258.0,389.5,254.5,389.0,251.0,386.5,245.5,391.0,244.5,395.0,243.0,390.5" stroke="black" stroke-width="1" fill="none" />
<polyline points="273.0,352.5" stroke="black" stroke-width="1" fill="none" />
<polyline points="277.0,352.5,278.0,350.5,274.0,349.5" stroke="black" stroke-width="1" fill="none" />
<polyline points="220.0,369.5,222.0,364.5,218.0,361.5,218.5,358.0,217.5,349.5,220.5,351.5,222.0,344.0,222.5,339.0,222.0,333.5,222.5,327.0,219.5,324.5,222.0,319.5,222.0,317.0,222.5,315.5,222.0,309.0,221.5,304.0,222.0,308.0" stroke="black" stroke-width="1" fill="none" />
<polyline points="177.5,306.5,176.0,304.5,176.0,297.5" stroke="yellow" stroke-width="1" fill="none" />
<polyline points="172.0,295.5,170.0,298.0,178.5,306.5,174.5,312.0,171.5,316.5" stroke="black" stroke-width="1" fill="none" />
<polyline points="161.5,309.5,158.5,311.5" stroke="black" stroke-width="1" fill="none" />
<polyline points="163.0,313.5" stroke="black" stroke-width="1" fill="none" />
<polyline points="160.0,318.5,160.5,316.0" stroke="green" stroke-width="1" fill="none" />
<polyline points="160.0,296.0,154.0,294.5" stroke="black" stroke-width="1" fill="none" />
<polyline points="156.5,294.0,160.0,295.0,156.5,295.5,155.5,292.5" stroke="orange" stroke-width="1" fill="none" />
<polyline points="163.5,292.0,156.5,287.5,153.0,280.5,158.5,284.0" stroke="black" stroke-width="1" fill="none" />
<polyline points="152.0,282.5,154.0,286.5,157.5,289.5,164.0,293.5" stroke="black" stroke-width="1" fill="none" />
<polyline points="171.5,291.0,174.5,292.5,178.0,292.0" stroke="black" stroke-width="1" fill="none" />
<polyline points="179.5,292.5,177.0,297.0,174.0,298.5,175.5,307.5,166.5,310.0,166.5,309.0" stroke="black" stroke-width="1" fill="none" />
<polyline points="161.5,293.5,156.5,290.5,154.0,289.5,154.5,292.0" stroke="black" stroke-width="1" fill="none" />
<polyline points="149.0,293.0,150.0,291.0,156.5,296.0,156.5,298.0,163.0,297.0,166.5,293.0,168.0,292.0" stroke="black" stroke-width="1" fill="none" />
<polyline points="172.0,292.0,172.5,296.0,170.0,298.0,170.0,304.0,164.5,309.0,166.5,312.5,165.5,313.5,160.5,316.0,170.0,318.5,169.0,324.0,165.5,328.5,162.0,332.5,158.0,337.0,158.0,343.5,152.5,345.5,151.0,349.0,151.0,352.5,148.5,354.5,145.5,355.0,144.0,353.0,147.0,352.5,152.0,352.0,158.5,351.0,160.0,347.5,163.5,346.0,166.5,344.5,170.5,342.5" stroke="black" stroke-width="1" fill="none" />
<polyline points="155.5,295.5,154.0,293.5" stroke="yellow" stroke-width="1" fill="none" />
<polyline points="160.0,286.0,161.5,281.0,162.5,278.5,162.0,275.5,161.0,267.0,160.0,266.0,162.0,261.0,162.5,257.0,161.5,257.5,164.0,258.5" stroke="black" stroke-width="1" fill="none" />
<polyline points="165.5,261.0,165.5,263.0,165.5,270.0,164.0,272.5,167.0,276.5,166.5,276.5" stroke="black" stroke-width="1" fill="none" />
<polyline points="158.5,282.0,161.0,280.5,152.0,276.0" stroke="black" stroke-width="1" fill="none" />
<polyline points="151.5,277.0,152.0,274.5,155.5,280.0,157.5,284.0,159.5,285.5,169.0,284.0,172.5,285.0,173.5,284.5,177.0,287.0,176.5,286.5,177.0,285.5" stroke="black" stroke-width="1" fill="none" />
<polyline points="172.5,283.5,171.0,285.5,168.0,288.0,166.5,291.0" stroke="black" stroke-width="1" fill="none" />
<polyline points="164.0,284.5,157.0,281.0,158.5,284.5,159.5,287.0" stroke="black" stroke-width="1" fill="none" />
<polyline points="159.0,299.0,154.5,296.5,150.0,292.0,150.5,288.0,151.0,280.0,146.0,275.0,150.0,272.5,152.5,269.0,157.5,265.0,163.5,262.0,161.0,257.5,162.5,256.5,164.5,249.5,166.0,246.5,166.0,241.0,167.5,238.5,164.0,246.0,160.0,254.5,155.0,259.5,148.0,262.0,144.5,261.0,144.5,258.5,137.0,266.5,136.5,264.5,138.0,263.0,132.0,262.0,130.5,267.5,126.5,270.5,131.5,262.5,130.0,255.0,132.5,256.0,127.5,249.5,130.0,247.0,136.0,243.0,134.0,243.5,139.5,237.5,137.0,232.0,135.0,230.5,133.0,224.5,130.0,225.0,133.5,218.5,130.5,214.0,129.5,212.5,128.0,207.5,125.5,202.5,124.0,198.0,121.5,194.5,123.0,191.0,121.0,185.0,119.5,181.5,117.0,178.5,119.5,172.5,119.5,168.5,121.0,166.0,122.0,160.5,115.0,155.5,118.5,152.0,119.0,150.0,121.5,145.0,124.0,140.0,123.0,137.5,123.5,133.5,125.0,131.5,127.5,126.0,126.0,119.0,131.5,118.5,132.5,114.0,132.0,108.5,134.0,104.5,136.5,102.0,136.0,99.5,141.5,97.0,132.5,104.0" stroke="green" stroke-width="1" fill="none" />
<polyline points="127.0,123.5,134.5,113.5,139.0,103.5,136.0,109.5,139.5,112.5,137.0,119.0,132.5,121.5,131.0,127.0,135.0,133.0,134.5,135.5,129.5,139.0,127.0,139.5,131.5,145.5,130.5,146.0,126.5,148.5,129.0,151.0,129.0,153.0,129.0,156.0" stroke="black" stroke-width="1" fill="none" />
<polyline points="129.5,153.5,131.5,152.5,134.0,157.0,132.5,160.5,134.0,162.0,132.0,166.0,128.0,170.0,134.0,168.5,136.5,165.0" stroke="yellow" stroke-width="1" fill="none" />
<polyline points="141.0,168.5,138.0,171.5,136.5,177.0,130.5,177.0,133.0,176.5" stroke="orange" stroke-width="1" fill="none" />
<polyline points="135.0,172.5,130.5,176.5,133.5,175.5,142.5,173.0,136.5,168.0,135.5,167.5" stroke="black" stroke-width="1" fill="none" />
<polyline points="144.0,168.0,140.5,172.0,139.0,178.5,135.5,176.0" stroke="black" stroke-width="1" fill="none" />
<polyline points="139.0,178.5,139.5,183.5,135.0,181.0,138.5,177.0,141.5,172.5,146.5,170.0" stroke="black" stroke-width="1" fill="none" />
<polyline points="149.5,172.5,147.5,174.5,144.0,179.0,144.0,181.5,137.5,187.0,137.5,191.5,140.0,196.5,136.0,195.0,140.0,194.0,142.0,192.5,144.5,198.5,147.5,199.5" stroke="orange" stroke-width="1" fill="none" />
<polyline points="149.0,194.5,147.5,192.5,147.0,194.5" stroke="yellow" stroke-width="1" fill="none" />
<polyline points="148.0,194.5,146.5,194.0" stroke="black" stroke-width="1" fill="none" />
<polyline points="142.0,194.0,146.0,198.5,139.0,197.0" stroke="black" stroke-width="1" fill="none" />
<polyline points="153.5,196.0,151.0,194.0,145.0,191.0,142.5,189.0,141.5,186.0,145.0,178.5,144.0,179.0,147.5,173.5" stroke="black" stroke-width="1" fill="none" />
<polyline points="141.0,185.0,143.5,183.5,145.5,186.5,149.0,190.0,151.5,190.5,149.5,187.5" stroke="black" stroke-width="1" fill="none" />
<polyline points="149.5,190.0,143.0,183.5" stroke="black" stroke-width="1" fill="none" />
<polyline points="149.0,194.0,155.0,192.0,158.0,186.0,161.0,181.0,168.5,179.0,172.5,173.0,177.0,165.0,179.5,167.5,181.5,161.5,188.5,160.0,190.0,154.0,194.5,151.5,198.5,148.0,199.0,146.5" stroke="black" stroke-width="1" fill="none" />
<polyline points="206.0,146.0,207.5,148.5,215.5,154.5,219.0,159.0" stroke="black" stroke-width="1" fill="none" />
<polyline points="229.0,158.0,223.0,159.5,227.5,153.5,223.5,158.0,222.0,156.5,218.0,154.0,216.5,153.0" stroke="yellow" stroke-width="1" fill="none" />
<polyline points="216.5,150.0,217.0,150.0,219.5,154.0,228.0,162.0,228.0,159.5" stroke="black" stroke-width="1" fill="none" />
<polyline points="224.5,173.5,219.0,174.0,217.0,180.0,214.0,185.5,208.5,188.0,205.5,192.5,203.0,195.5" stroke="green" stroke-width="1" fill="none" />
<polyline points="207.5,186.5,212.0,184.5,214.5,186.0,218.0,176.5,221.5,172.0,229.5,172.5,232.5,174.5,231.0,171.0,239.0,172.5,241.0,171.5,241.5,174.0,236.5,177.0,239.5,177.5,236.0,176.5" stroke="black" stroke-width="1" fill="none" />
<polyline points="230.5,183.0,228.5,184.0,227.5,188.5,220.5,191.5,218.0,198.0,210.5,201.0,205.0,209.0,201.5,215.0,204.0,216.0,204.0,217.5,204.5,223.0,207.5,227.0,207.5,226.0" stroke="black" stroke-width="1" fill="none" />
<polyline points="204.0,208.0,205.5,206.5,211.0,204.0,211.5,197.5,218.0,195.5,221.5,194.0,226.5,190.0,229.0,187.0" stroke="black" stroke-width="1" fill="none" />
<polyline points="227.0,195.5,218.0,199.0,211.5,201.5,211.5,206.5,207.5,208.0,207.0,213.0,208.0,203.0,217.5,202.5,219.0,199.0,223.0,196.5,224.5,194.5,230.5,192.0,231.5,194.0" stroke="black" stroke-width="1" fill="none" />
<polyline points="225.5,184.5,222.0,184.0,216.0,189.0" stroke="black" stroke-width="1" fill="none" />
<polyline points="223.5,183.0,219.5,181.5" stroke="green" stroke-width="1" fill="none" />
<polyline points="224.5,182.5,220.5,186.0,217.5,191.5,216.0,192.5,210.0,195.5,207.5,200.5,207.0,199.5" stroke="green" stroke-width="1" fill="none" />
<polyline points="201.0,203.5" stroke="black" stroke-width="1" fill="none" />
<polyline points="197.0,200.0,202.5,197.0" stroke="green" stroke-width="1" fill="none" />
<polyline points="203.5,202.0,198.5,202.0,196.0,197.5,192.5,199.5,189.5,200.0,187.5,203.0,181.5,205.5,181.5,207.0,183.0,202.0,187.0,200.0,188.5,197.0" stroke="orange" stroke-width="1" fill="none" />
<polyline points="184.0,207.0,188.0,206.0,194.5,207.5,200.0,204.0" stroke="black" stroke-width="1" fill="none" />
<polyline points="193.5,203.5,192.5,212.0,192.0,211.0,188.5,217.0,180.5,223.0,185.5,218.5,190.5,218.0,188.5,212.5,186.0,209.5,181.5,210.0" stroke="black" stroke-width="1" fill="none" />
<polyline points="184.0,217.5" stroke="black" stroke-width="1" fill="none" />
<polyline points="181.5,219.0,179.5,224.5,179.5,217.5,178.0,214.0,180.5,214.0" stroke="green" stroke-width="1" fill="none" />
<polyline points="174.0,211.5,171.0,215.0,168.5,219.5,176.5,213.5" stroke="black" stroke-width="1" fill="none" />
<polyline points="171.0,220.5,166.0,227.0,172.5,227.5,169.0,229.0,175.5,225.5,182.0,226.0" stroke="black" stroke-width="1" fill="none" />
<polyline points="183.0,226.5,181.0,226.5,178.0,232.5,166.0,232.0,162.0,239.0,167.0,237.5,165.5,239.5" stroke="green" stroke-width="1" fill="none" />
<polyline points="170.0,239.0,172.5,242.5,167.0,246.0,165.5,250.5,166.0,248.5,163.5,245.0" stroke="orange" stroke-width="1" fill="none" />
<polyline points="164.5,253.5,157.5,258.0,151.5,265.0,151.5,260.5,146.5,267.0,140.5,266.5,138.0,273.5,134.0,277.5,130.0,278.0,127.0,275.5,119.0,272.0,114.0,265.5,118.0,261.0,115.0,266.0,117.0,263.5" stroke="orange" stroke-width="1" fill="none" />
<polyline points="114.0,269.0" stroke="orange" stroke-width="1" fill="none" />
<polyline points="114.0,273.0,115.0,273.0,114.0,274.5,121.0,279.5,111.5,284.5,107.5,289.5,107.5,296.0,106.0,302.5,98.0,304.0,92.0,307.0,94.5,313.0,91.5,314.0,87.0,321.0,87.0,327.5,88.5,328.5,89.5,335.5,88.0,338.0,84.0,340.5,83.5,347.5,80.0,348.0,75.0,353.0,72.0,357.0,66.5,358.5,64.0,357.5,69.0,358.5,70.5,354.0,76.5,345.5,77.5,343.0,83.0,334.5,89.0,331.0,95.0,327.0,93.5,329.0" stroke="yellow" stroke-width="1" fill="none" />
<polyline points="89.5,324.0,94.0,323.0,92.5,326.0,93.5,326.0,86.0,330.5,87.0,336.5,80.5,341.5,79.0,343.5,76.0,346.5,73.5,350.0,71.0,356.0,62.5,357.5,61.0,359.5,61.5,366.5,67.5,362.0,70.0,357.5,73.0,351.0,78.0,345.0,82.0,343.0,87.5,337.5,89.0,342.5,90.0,343.5,91.5,345.0,87.5,352.5,85.0,355.5,82.5,360.0,80.5,365.5,79.5,365.5,81.5,372.5,85.0,373.5,82.0,370.0,90.0,359.5,89.5,353.5,94.5,346.5" stroke="black" stroke-width="1" fill="none" />
<polyline points="106.5,357.5,105.0,354.5,105.5,363.0,104.0,366.5,100.5,368.0,102.5,374.0,100.0,376.5,103.0,381.5,103.0,380.5" stroke="black" stroke-width="1" fill="none" />
<polyline points="112.0,367.5,112.5,364.5,109.5,360.5,110.0,358.5" stroke="yellow" stroke-width="1" fill="none" />
<polyline points="113.0,352.0,110.0,357.5,112.5,364.5,112.5,364.5,107.5,360.0,115.5,367.5,113.0,368.0" stroke="green" stroke-width="1" fill="none" />
<polyline points="112.0,362.0,116.0,361.0,112.5,354.5" stroke="orange" stroke-width="1" fill="none" />
<polyline points="126.5,360.5,134.5,363.5,132.5,367.0,133.5,369.5" stroke="yellow" stroke-width="1" fill="none" />
<polyline points="85.5,351.5,80.5,361.0,76.5,367.5" stroke="black" stroke-width="1" fill="none" />
<polyline points="75.5,366.5,81.0,357.5,83.0,349.0,84.0,347.0,83.0,353.0,79.0,357.0,76.0,358.5,75.5,365.0,73.0,366.5,77.5,375.5,78.5,374.0" stroke="black" stroke-width="1" fill="none" />
<polyline points="80.0,382.5,79.0,380.5,73.0,392.0,70.0,393.0,63.0,394.5,63.0,397.5,57.0,400.5,62.5,399.0,66.0,393.5,70.5,391.0,77.0,385.5,77.0,383.0,76.0,384.0,70.5,386.5,67.0,393.5,66.0,397.0,61.0,396.5,56.5,406.0,66.5,399.0,70.5,394.5,74.5,390.0,79.0,383.5,80.0,382.5,84.0,376.0,86.5,372.0,83.5,369.0,88.5,362.5,86.5,356.5,90.0,358.0,89.5,355.0,92.5,354.5,95.0,350.0,94.5,345.0,97.5,347.0,97.5,340.0,93.0,348.5,94.5,343.0,96.0,339.5,99.5,340.5,96.5,332.0,96.5,328.5,96.5,324.5,98.5,321.0,98.0,316.0,95.0,310.0,102.0,308.0,103.0,302.5,108.0,302.5,103.0,305.5,100.0,309.0,95.0,315.5,97.0,313.0" stroke="black" stroke-width="1" fill="none" />
<polyline points="89.0,308.5,85.5,312.5,87.0,309.5,91.0,308.0,94.5,306.5,99.5,304.0,104.0,298.5,102.0,304.0" stroke="yellow" stroke-width="1" fill="none" />
<polyline points="100.0,302.5,94.0,301.5,91.5,306.0,97.5,300.0" stroke="green" stroke-width="1" fill="none" />
<polyline points="108.5,295.5,104.0,296.0,100.0,295.5,92.0,292.5,92.5,296.0,86.5,296.0,82.5,298.0,89.0,294.5" stroke="green" stroke-width="1" fill="none" />
<polyline points="86.0,294.5,78.5,297.0,82.5,295.5,86.5,294.0,91.0,292.5,95.5,292.5,99.0,290.5,106.0,288.0,105.5,291.5,108.0,286.0" stroke="orange" stroke-width="1" fill="none" />
<polyline points="112.5,287.0,114.5,289.0,108.5,286.0,110.5,286.5,109.0,279.0,113.0,275.0,114.0,273.0,115.5,268.5,118.0,266.0" stroke="black" stroke-width="1" fill="none" />
<polyline points="112.5,263.0,111.5,259.5,110.0,260.5,107.5,262.0,106.5,268.0,108.0,273.5,101.0,274.0,97.0,279.0,95.5,281.5,101.0,283.0,104.0,274.5,102.0,273.5,110.5,281.5,112.5,280.5,118.5,282.0" stroke="black" stroke-width="1" fill="none" />
<polyline points="113.5,278.5,109.0,278.5,104.0,284.5,101.0,285.5,97.0,286.5,92.0,284.0" stroke="black" stroke-width="1" fill="none" />
<polyline points="87.0,275.5,95.0,274.5,98.5,268.0,97.0,264.0,108.5,262.5,100.0,269.0,95.5,270.0,93.0,279.0,94.0,283.5,95.0,284.0,100.5,283.0,102.5,279.5,98.0,282.0,106.5,280.0,111.0,280.5,112.0,281.5,118.5,277.5,124.5,273.5,126.0,271.5" stroke="black" stroke-width="1" fill="none" />
<polyline points="128.0,266.0,128.5,269.5,128.5,268.0,122.5,269.0,115.5,274.0,102.5,285.5,99.5,287.0,95.0,298.0,98.0,299.5,88.5,307.0,81.5,310.5,87.0,309.0,83.0,315.5,71.0,323.0,81.5,314.0,80.0,311.0" stroke="black" stroke-width="1" fill="none" />
<polyline points="101.0,315.0,109.5,310.5,112.0,306.0,115.0,299.5,119.5,297.5" stroke="black" stroke-width="1" fill="none" />
<polyline points="126.5,301.0,121.0,305.0,121.0,306.5,119.0,307.5,113.0,310.0,108.0,317.5,103.0,318.0,100.5,327.5,102.5,325.0" stroke="yellow" stroke-width="1" fill="none" />
<polyline points="76.0,319.0,70.0,318.0,68.0,322.5,73.0,317.0,81.5,318.5,75.0,310.5,75.0,306.5,75.0,307.0,77.5,304.0" stroke="green" stroke-width="1" fill="none" />
<polyline points="73.5,308.0" stroke="black" stroke-width="1" fill="none" />
<polyline points="78.0,310.5,79.5,311.0,83.0,308.5,88.5,305.0,93.0,303.5,97.5,298.5" stroke="yellow" stroke-width="1" fill="none" />
<polyline points="101.5,314.5,98.0,321.0,99.0,319.0,102.0,317.0,102.5,307.0,107.5,307.5,109.0,303.0" stroke="black" stroke-width="1" fill="none" />
<polyline points="106.0,295.0,106.0,297.0,96.5,296.0,105.5,293.5,106.0,295.5,109.0,294.0,113.5,293.0" stroke="black" stroke-width="1" fill="none" />
<polyline points="108.5,286.0,103.5,289.5,103.0,290.0,105.0,291.0" stroke="green" stroke-width="1" fill="none" />
<polyline points="91.0,280.0,89.5,276.5" stroke="black" stroke-width="1" fill="none" />
<polyline points="121.5,289.0,121.0,295.0,121.5,295.5,114.5,300.0,110.5,304.5,106.0,310.5,103.5,312.5,101.5,317.0,101.0,324.5,102.0,325.0,100.0,328.5,103.0,330.5,98.5,334.5,95.0,340.5,100.5,338.0,104.0,337.0,107.5,333.0,109.0,326.0,116.5,317.0,123.5,306.0,120.0,301.5,123.5,300.0,125.0,308.0,131.5,316.5" stroke="yellow" stroke-width="1" fill="none" />
<polyline points="127.0,311.0,124.5,312.0,123.5,317.5,125.5,319.0,130.0,324.0,128.0,329.5,127.5,333.5,129.0,336.0" stroke="green" stroke-width="1" fill="none" />
<polyline points="123.0,313.5,121.0,312.5,119.5,317.5,118.0,325.0,112.5,326.0,109.0,332.5,110.5,338.5,102.5,338.0,100.0,343.0,99.0,347.0,99.5,351.0,96.0,352.5,93.0,356.0,94.0,362.0,93.0,364.5,93.0,368.0,91.0,372.5,93.5,377.0,92.5,382.5,93.0,389.0" stroke="black" stroke-width="1" fill="none" />
<polyline points="79.0,384.0,78.0,389.0,76.0,396.5,75.5,400.5,74.5,403.5,72.0,408.5,70.0,414.5" stroke="orange" stroke-width="1" fill="none" />
<polyline points="21.0,368.5,20.5,372.0,20.5,371.0,20.5,366.5,24.0,365.5" stroke="black" stroke-width="1" fill="none" />
<polyline points="125.5,286.5,123.5,286.5,123.0,291.5,121.0,297.0,119.5,301.0,111.0,305.0,108.0,309.0,102.5,313.0,104.5,308.5,106.5,304.0,111.0,299.5,117.5,297.0,119.5,296.5,127.5,292.5,130.0,286.0,134.5,287.5,138.0,285.5,138.0,286.5" stroke="orange" stroke-width="1" fill="none" />
<polyline points="138.0,264.5,136.5,263.5" stroke="black" stroke-width="1" fill="none" />
<polyline points="133.5,255.0,139.5,260.0" stroke="green" stroke-width="1" fill="none" />
<polyline points="135.0,246.0,136.0,245.0,139.0,247.5,144.0,245.5" stroke="yellow" stroke-width="1" fill="none" />
<polyline points="145.0,246.0,141.0,243.0,136.0,247.0,138.5,246.5" stroke="black" stroke-width="1" fill="none" />
<polyline points="142.0,240.5,138.0,233.5,134.0,223.5" stroke="black" stroke-width="1" fill="none" />
<polyline points="145.0,216.0" stroke="yellow" stroke-width="1" fill="none" />
<polyline points="150.5,212.0,148.5,212.0" stroke="black" stroke-width="1" fill="none" />
<polyline points="142.5,197.0,137.5,193.5,138.0,191.0,133.5,184.5,137.0,182.5,143.5,178.0,148.0,175.0,143.0,177.0,139.5,180.5,135.5,187.5" stroke="yellow" stroke-width="1" fill="none" />
<polyline points="141.0,182.5" stroke="black" stroke-width="1" fill="none" />
<polyline points="149.5,180.0,147.5,180.0,147.0,181.0,145.5,186.5,139.5,187.5,137.0,189.5" stroke="green" stroke-width="1" fill="none" />
<polyline points="138.0,198.5,136.5,199.0" stroke="black" stroke-width="1" fill="none" />
<polyline points="139.5,193.5,143.5,196.5,148.5,200.5,146.5,207.0,146.5,212.5,143.5,215.0,146.0,207.0,151.0,202.0" stroke="black" stroke-width="1" fill="none" />
<polyline points="130.5,206.0,126.5,198.0" stroke="black" stroke-width="1" fill="none" />
<polyline points="113.0,223.5,114.0,226.0,109.5,227.5,109.5,230.0,115.5,227.5,110.5,226.0" stroke="black" stroke-width="1" fill="none" />
<polyline points="112.0,233.0,116.0,227.0,115.0,226.0" stroke="black" stroke-width="1" fill="none" />
<polyline points="127.0,251.5,117.5,256.5,115.5,263.0,110.0,264.5,115.0,259.5,119.0,255.5,120.5,253.0,127.0,247.5,131.5,245.5,137.5,239.5,143.0,238.0,148.5,235.0,154.5,230.0,155.0,228.5,158.5,229.0" stroke="black" stroke-width="1" fill="none" />
<polyline points="154.5,226.5,151.5,230.5,141.5,236.5,143.0,236.5,139.5,242.5,140.5,249.5,137.0,252.5,142.5,260.5,142.5,262.5,133.0,264.5,128.5,265.0,128.0,270.0,137.5,269.5" stroke="black" stroke-width="1" fill="none" />
<polyline points="158.5,253.0,151.5,253.5,157.5,257.0,156.5,251.0,158.5,249.5" stroke="yellow" stroke-width="1" fill="none" />
<polyline points="165.0,232.5,165.5,235.5,160.5,239.0,159.0,238.0,164.5,235.5,163.5,226.5,167.0,225.5" stroke="black" stroke-width="1" fill="none" />
<polyline points="164.0,227.5" stroke="orange" stroke-width="1" fill="none" />
<polyline points="173.5,229.0,173.0,234.0,167.0,236.0,164.0,241.5,162.5,245.5,157.0,249.5,152.5,250.0,149.5,253.5,153.0,257.0,149.5,256.0,144.0,261.0,141.0,264.5,137.5,268.0,135.5,275.5,128.5,277.5,132.0,287.0,129.0,291.5,130.5,297.0,125.0,302.5,128.5,309.0,125.5,309.0,125.0,315.0,121.0,317.5,122.5,324.0,123.0,328.0,123.0,330.0,125.5,333.0,121.5,335.5,125.5,339.5,127.0,343.0,133.5,349.5,133.0,350.5,135.0,355.0,137.0,359.0,137.5,364.5,141.0,365.0,143.0,368.0,144.5,372.0,146.5,375.0,148.5,380.0,141.5,388.0,147.5,389.0,148.0,392.5,148.5,397.0,150.0,397.0,150.5,402.0,150.5,405.0,153.5,406.0,157.0,410.0,159.5,413.5,162.5,416.0,159.5,422.5,156.5,422.5,154.0,425.5" stroke="yellow" stroke-width="1" fill="none" />
<polyline points="165.5,418.5,167.5,414.5,163.0,412.0,162.5,412.0,160.5,410.5" stroke="green" stroke-width="1" fill="none" />
<polyline points="191.5,423.0" stroke="black" stroke-width="1" fill="none" />
<polyline points="199.0,429.0,195.5,428.5" stroke="yellow" stroke-width="1" fill="none" />
<polyline points="196.5,425.0,194.5,427.0,196.0,431.0,193.5,435.0,191.5,437.0" stroke="black" stroke-width="1" fill="none" />
<polyline points="197.0,404.5,197.0,402.5,193.0,403.0,198.5,393.5,197.5,396.0" stroke="black" stroke-width="1" fill="none" />
<polyline points="192.5,395.0,190.5,393.0,193.0,397.0,191.0,403.5,191.5,405.0,192.0,409.0,188.0,416.5,190.0,416.0,189.5,421.5,186.5,425.0,186.5,433.0,189.5,434.0,189.0,441.5,185.0,442.0,183.0,442.0,184.0,446.5,190.5,445.0,194.5,446.5,197.0,445.5" stroke="black" stroke-width="1" fill="none" />
<polyline points="381.0,358.5,380.5,356.0,380.0,350.0,380.0,348.0,379.5,344.5,379.0,339.5,379.5,335.5,378.5,336.5,378.0,327.0,375.5,324.5,377.5,316.0,373.5,310.5,372.5,310.5,374.5,304.5,374.0,300.5,372.5,295.5,375.5,291.5" stroke="orange" stroke-width="1" fill="none" />
<polyline points="379.0,286.5,380.0,284.5,376.5,285.0,378.5,280.0,383.0,275.5,381.5,267.0,383.0,265.5,385.0,269.0" stroke="black" stroke-width="1" fill="none" />
<polyline points="366.0,267.0,365.0,270.5,366.0,276.0,366.0,278.0,363.5,282.0,367.5,287.5,365.0,292.5,362.5,294.5,365.5,301.0,364.0,304.5,364.0,308.0,364.0,312.5" stroke="black" stroke-width="1" fill="none" />
<polyline points="348.5,277.5,341.5,280.5,337.0,280.0,333.0,280.5,327.0,279.5,321.5,278.5,322.0,273.0,322.5,269.0,325.0,271.5" stroke="black" stroke-width="1" fill="none" />
<polyline points="322.5,269.0,328.5,269.5,327.5,270.0,335.0,270.0,334.5,270.0,335.0,270.5" stroke="black" stroke-width="1" fill="none" />
<polyline points="322.5,280.5,317.5,274.5,317.5,273.5,315.5,271.0,321.0,266.5,325.5,262.0,328.0,256.5,334.5,252.5" stroke="black" stroke-width="1" fill="none" />
<polyline points="367.0,265.0,365.0,267.0,363.0,270.5,363.0,275.5,360.0,278.5,361.5,279.5" stroke="yellow" stroke-width="1" fill="none" />
<polyline points="297.0,225.0,291.5,225.0,292.0,231.0,283.5,234.5,290.0,232.0,294.0,225.5,299.5,220.5" stroke="black" stroke-width="1" fill="none" />
<polyline points="268.0,215.0,272.0,213.0,274.5,205.0,277.5,201.5,281.0,199.0,285.0,196.0,288.0,191.0,291.0,191.0,296.5,186.5,300.5,186.5,304.0,182.5,308.5,178.5" stroke="black" stroke-width="1" fill="none" />
<polyline points="312.0,176.0,301.5,174.0,302.0,180.0,294.5,181.0,292.0,186.5,287.5,191.5,283.5,191.5,282.5,200.0,274.5,202.0,273.0,203.0,269.0,205.5,264.5,212.5,263.5,213.5,264.0,220.5,254.5,224.5,254.5,229.0,246.0,231.5,243.5,236.5,238.5,243.0,234.5,243.5,231.0,254.5,227.0,258.5,221.5,265.0,221.0,269.5,214.0,276.0,213.5,283.5,210.5,294.0,202.5,301.0,197.5,312.0,202.0,321.5,196.0,318.0,199.0,312.0,199.0,308.0,202.5,304.0,204.0,300.5,206.5,297.0,207.5,292.5,209.5,288.5,211.0,286.5,212.0,280.5,215.5,277.0,218.5,273.0,222.0,272.0,222.5,264.0,226.0,261.5,227.0,256.0,228.5,253.5,234.5,249.0,237.5,245.0,240.0,241.0,244.5,236.5,245.0,229.0,251.5,228.5,257.5,223.0,259.5,220.5,260.0,216.5,261.0,211.5,263.5,206.5,267.0,201.0,269.5,202.5" stroke="black" stroke-width="1" fill="none" />
<polyline points="266.5,203.5,264.0,213.0,263.0,207.0" stroke="yellow" stroke-width="1" fill="none" />
<polyline points="251.0,213.0" stroke="black" stroke-width="1" fill="none" />
<polyline points="218.0,194.5,210.5,198.0,218.5,192.0,218.0,186.5,224.5,184.5,224.5,183.0,226.5,184.5,229.5,183.5" stroke="black" stroke-width="1" fill="none" />
<polyline points="225.0,172.5,217.0,176.5,211.5,184.5,208.5,185.0,208.0,191.0,204.0,195.5,209.0,197.5,208.5,195.0,213.5,195.0,217.5,195.5,225.0,188.0,228.5,190.5,230.0,187.5,230.0,185.0" stroke="yellow" stroke-width="1" fill="none" />
<polyline points="247.0,171.0,245.0,175.5,240.5,179.0,237.0,186.0,235.0,185.5,237.0,182.5,243.0,181.0,246.5,179.0,253.5,179.0" stroke="yellow" stroke-width="1" fill="none" />
<polyline points="248.5,180.5,243.5,183.0,243.5,185.0,244.5,192.5,242.0,199.0,238.0,201.5,234.0,202.0,233.0,210.0,232.5,212.5,230.5,212.0,232.5,212.0,236.0,210.0" stroke="black" stroke-width="1" fill="none" />
<polyline points="264.0,184.0,263.0,192.0,256.5,195.0,252.5,196.5,247.0,203.0,252.5,201.0,254.5,196.0,259.0,190.5,262.5,187.5" stroke="black" stroke-width="1" fill="none" />
<polyline points="267.0,184.5,262.5,189.0,257.5,190.5,261.5,188.5" stroke="orange" stroke-width="1" fill="none" />
<polyline points="262.5,182.5,254.5,186.5,248.5,188.0,250.0,194.5,246.5,200.0,242.0,196.5,246.5,189.5,246.0,192.0,251.0,188.5,249.0,186.5,253.0,180.5,257.5,182.0,260.5,180.5,261.0,181.0" stroke="black" stroke-width="1" fill="none" />
<polyline points="266.0,175.0,270.0,177.5,274.5,177.0,279.0,178.0,278.5,177.0,284.0,175.0,292.5,179.0,294.0,180.5,290.0,183.0,285.0,190.0,283.0,194.5,276.5,195.0,274.5,198.5,274.5,195.0,270.5,197.0,271.0,195.5,275.0,195.0,278.0,195.0,283.0,189.0,287.0,185.0,293.5,182.0,296.0,178.5,302.5,177.5,303.5,173.5,306.0,169.5,315.5,167.0,317.5,167.5,322.5,167.0,326.0,162.0,330.0,161.5,336.0,156.5,336.5,152.5" stroke="green" stroke-width="1" fill="none" />
<polyline points="304.5,177.5,299.5,180.5,297.5,183.5,289.5,190.0,285.0,191.5,279.5,196.0,276.0,200.0,271.0,204.0,267.5,208.0,271.0,208.5,270.0,211.0,266.5,218.5,265.5,224.0,265.0,225.5,262.5,229.0,263.5,232.0,265.0,236.0,265.5,242.5,265.5,242.0" stroke="black" stroke-width="1" fill="none" />
<polyline points="270.5,195.0,272.5,191.5,271.5,187.5" stroke="yellow" stroke-width="1" fill="none" />
<polyline points="260.5,165.0,268.5,159.0,267.5,161.0,259.0,164.5,254.0,161.5,250.5,161.5" stroke="green" stroke-width="1" fill="none" />
<polyline points="252.5,162.0,256.0,164.5" stroke="black" stroke-width="1" fill="none" />
<polyline points="249.5,170.0,254.5,176.5,258.0,180.0" stroke="black" stroke-width="1" fill="none" />
<polyline points="240.0,139.5,247.0,142.5,253.0,139.0,256.5,134.0,258.0,132.5,259.5,128.5,253.0,132.0,250.0,135.5,248.0,141.0,242.0,146.5,239.5,143.5,233.0,142.0,233.0,144.0" stroke="black" stroke-width="1" fill="none" />
<polyline points="" stroke="yellow" stroke-width="1" fill="none" />
<polyline points="220.5,147.0,219.5,144.5" stroke="black" stroke-width="1" fill="none" />
<polyline points="214.0,143.5" stroke="black" stroke-width="1" fill="none" />
<polyline points="201.5,152.0,206.5,147.0,213.5,149.5,213.0,157.0,216.0,156.5,222.0,160.0" stroke="orange" stroke-width="1" fill="none" />
<polyline points="207.0,162.5,201.0,161.0,199.5,158.0" stroke="orange" stroke-width="1" fill="none" />
<polyline points="203.0,162.0,204.5,168.0,201.0,165.0,190.0,175.5,188.0,178.0,183.0,180.0,180.5,185.0,173.0,190.5,173.0,192.5,167.5,194.0,164.5,201.0,160.0,200.5,167.5,195.5,172.5,193.5,177.5,191.0,181.0,183.0,184.5,182.0,187.5,177.0,195.0,175.5,197.5,171.5,200.5,167.5" stroke="yellow" stroke-width="1" fill="none" />
<polyline points="219.0,175.0,213.5,175.0,212.0,179.0,210.0,185.0,203.0,187.0,203.5,193.5,204.5,197.5,205.0,197.5,203.5,198.5" stroke="orange" stroke-width="1" fill="none" />
<polyline points="195.0,134.5" stroke="black" stroke-width="1" fill="none" />
<polyline points="200.0,135.5,197.5,134.0,203.5,136.0,203.0,142.0,203.0,141.5,206.0,137.0,213.5,131.5,215.0,132.5,217.5,127.0,222.5,125.0" stroke="orange" stroke-width="1" fill="none" />
<polyline points="228.0,127.5,219.0,130.5,211.5,136.5,212.5,137.0,208.0,143.0,211.5,137.0,217.0,133.5,220.5,131.0,226.0,126.5,231.0,124.0,234.5,121.0,237.0,120.5" stroke="black" stroke-width="1" fill="none" />
<polyline points="236.5,118.5,232.5,121.0,226.5,126.0,220.0,133.0,209.5,136.0,203.5,140.0,203.5,142.0,197.0,144.5,194.0,149.5,189.5,152.5,188.5,159.0,179.5,161.0,177.0,165.5,172.5,170.0,171.0,172.0,163.5,178.5,161.0,182.5,158.5,186.5,154.0,192.0,149.5,198.5,153.5,198.5,154.0,201.0,148.5,205.5,147.0,213.5,146.0,215.0,144.5,219.0,143.5,223.5,141.0,225.5,139.5,233.5,138.0,239.0,142.5,240.0,142.0,243.0,134.0,243.0,132.0,253.0,133.5,255.0,135.0,256.0,135.5,257.5,138.5,257.0" stroke="green" stroke-width="1" fill="none" />
<polyline points="130.5,180.0,138.0,176.5,140.0,171.0,141.5,166.0,143.0,162.0" stroke="orange" stroke-width="1" fill="none" />
<polyline points="131.5,144.0,127.0,140.5,129.0,135.0" stroke="black" stroke-width="1" fill="none" />
<polyline points="159.0,127.0,153.0,131.0,154.0,137.0,154.5,132.5,160.5,127.0,161.5,128.0" stroke="black" stroke-width="1" fill="none" />
<polyline points="182.5,123.5,181.0,123.0,177.0,129.5,184.5,122.5,190.0,118.5" stroke="green" stroke-width="1" fill="none" />
<polyline points="189.5,122.5,185.5,125.0,176.0,127.0,179.0,125.0,183.0,125.0,186.0,122.5,189.5,120.0" stroke="black" stroke-width="1" fill="none" />
<polyline points="188.0,134.5,187.0,135.5" stroke="black" stroke-width="1" fill="none" />
<polyline points="199.5,121.0,196.0,123.5,199.5,119.5,205.5,116.5" stroke="green" stroke-width="1" fill="none" />
<polyline points="195.0,110.5,196.0,111.5" stroke="orange" stroke-width="1" fill="none" />
<polyline points="230.0,127.0,224.5,130.0,219.5,129.0,214.5,135.5,214.0,141.0,210.0,143.5,204.0,145.0,197.0,148.5,196.5,153.0,196.5,151.5,200.0,148.5,208.0,144.0,215.5,138.0,219.0,136.5,226.0,131.5" stroke="black" stroke-width="1" fill="none" />
<polyline points="254.5,139.5,251.0,140.0,247.5,146.0,241.0,145.0,238.0,151.5,233.5,152.0,232.0,155.0,224.5,159.5,221.5,161.0,221.0,160.0,222.0,158.5,228.0,154.5,235.5,150.5,242.0,147.5,246.0,142.5,249.0,141.5,254.5,132.0,265.0,126.0" stroke="black" stroke-width="1" fill="none" />
<polyline points="277.5,147.0,288.0,145.5" stroke="black" stroke-width="1" fill="none" />
<polyline points="298.5,136.0,298.0,136.5,293.0,142.5,291.5,144.5,295.5,136.5,300.5,134.5" stroke="black" stroke-width="1" fill="none" />
<polyline points="311.0,179.5,301.0,182.5,295.5,184.5,289.0,188.0,287.5,195.0,281.5,200.0,278.0,202.5,274.0,206.5,271.5,210.5,272.5,214.5,270.5,214.5" stroke="yellow" stroke-width="1" fill="none" />
<polyline points="232.5,99.0,230.5,104.0,226.5,106.0,221.5,107.5,225.0,102.5,229.5,102.5,237.5,97.5,237.0,98.5" stroke="green" stroke-width="1" fill="none" />
<polyline points="234.0,100.0,240.5,94.5" stroke="black" stroke-width="1" fill="none" />
<polyline points="247.0,90.0,244.0,94.5" stroke="black" stroke-width="1" fill="none" />
<polyline points="261.0,88.0,255.5,91.5,252.0,92.5,249.0,92.5,247.0,94.5,240.0,99.5,236.0,102.5,232.0,105.5,226.5,105.5,224.5,111.5,218.0,115.0,217.5,118.0,212.5,119.0,208.0,121.5,204.0,125.0,199.5,128.5,194.5,131.0,190.5,135.0,186.5,140.0,180.5,143.0,178.5,148.0,174.5,152.0,169.5,154.0,166.5,159.0,162.0,162.5,158.5,165.5,154.0,166.0,153.5,173.5,158.0,170.0,161.5,167.5,165.0,161.5,169.0,156.0,174.0,155.5,179.0,150.0,183.5,142.5,186.0,141.0,191.0,137.0,195.5,137.0,203.0,125.0,203.5,127.0,209.5,120.5,215.5,114.0,220.5,117.0,226.0,110.0,231.5,105.5,239.0,100.0,244.5,98.5,248.5,94.0,255.5,90.0,262.5,84.5" stroke="orange" stroke-width="1" fill="none" />
<polyline points="238.0,79.0,229.5,83.5,226.5,85.5,230.0,86.5,233.0,85.0,237.5,82.5" stroke="black" stroke-width="1" fill="none" />
<polyline points="236.5,47.5" stroke="black" stroke-width="1" fill="none" />
<polyline points="230.0,46.5,228.0,53.0,227.5,45.5,231.5,46.5,232.0,47.5,242.0,46.5,245.0,49.0,248.5,51.0,252.0,51.0,253.5,57.0,263.5,53.0,264.0,57.0,268.5,58.0,271.0,63.0,277.0,63.5,281.0,67.0,282.0,69.5,288.5,73.5,291.5,77.0,296.0,76.0,298.0,83.5,304.0,86.5,306.0,91.5,310.0,99.0,314.5,97.0,322.0,103.0,324.5,110.0,329.0,114.5,332.5,120.0,334.0,128.0,341.0,129.5,343.0,139.5,346.0,145.5,351.0,146.0,351.5,147.0,357.5,137.0,363.0,136.0,367.5,135.5,371.5,133.0,377.0,131.0,379.5,128.0,384.0,125.0,385.5,119.0,392.0,115.5,397.5,112.0,399.0,113.5,406.0,111.0,408.0,113.0,410.5,115.5,414.0,115.5,417.5,124.5" stroke="black" stroke-width="1" fill="none" />
<polyline points="413.5,115.0,416.0,119.0,418.0,123.0,416.5,128.0,424.5,129.5,422.0,137.0,417.5,138.0,422.5,142.5,415.5,144.5,418.5,152.5,415.5,158.0,413.5,159.0,410.0,164.5,409.5,169.0,410.0,170.0,408.0,174.0,408.0,177.5,403.5,179.5,401.0,185.0,393.0,190.0,396.0,195.0,388.0,200.0,382.5,203.0,380.0,207.0,373.5,209.5,367.5,216.5,371.0,211.0,375.5,211.0,377.5,204.5,385.0,205.0,388.5,200.5,391.5,196.5,397.5,193.5,399.0,185.5,403.0,184.5,408.0,179.5,411.5,170.0,419.0,157.0" stroke="black" stroke-width="1" fill="none" />
<polyline points="370.0,132.5,369.0,126.0,369.0,126.0" stroke="black" stroke-width="1" fill="none" />
<polyline points="387.0,105.0,382.5,100.0,377.0,97.0,380.0,100.5" stroke="black" stroke-width="1" fill="none" />
<polyline points="381.0,95.5,375.5,99.0,383.5,104.0,389.5,101.5" stroke="black" stroke-width="1" fill="none" />
<polyline points="439.5,64.5,431.5,58.0,429.5,50.0,427.5,47.0,420.0,36.5,418.5,28.5,417.0,23.5,410.5,9.5" stroke="yellow" stroke-width="1" fill="none" />
<polyline points="514.0,74.0,511.5,81.0,504.5,82.0,505.5,86.5,497.5,87.5,494.0,95.5,488.5,100.0,487.5,104.0,486.5,107.0,482.0,112.5,479.5,116.0,477.0,119.5,472.5,127.0,470.0,128.0,468.0,132.0,468.0,132.5,462.5,140.5,460.0,148.5,457.0,149.5,456.0,153.5,453.0,157.5,450.5,164.0,448.5,166.0,445.5,169.5,441.0,172.0,443.5,177.0,439.5,183.0,437.0,189.0,435.0,192.0,433.0,197.5,431.5,202.5,429.5,204.5,431.5,209.5,425.0,213.5,426.5,216.5,422.5,220.0,423.0,222.5,420.0,230.5,418.5,233.0,414.5,235.0,413.5,244.0,413.5,244.5,412.0,248.0,413.5,251.0,413.0,257.0,407.0,261.0,408.5,262.5,407.5,266.5,405.5,271.0,401.5,276.5,401.0,278.5,404.0,284.5,398.5,288.0,399.5,291.5,401.0,291.5,398.0,298.0,397.5,304.5,395.5,306.0,391.5,308.5,391.5,313.5,389.5,320.5,393.5,321.0,390.0,327.0,388.5,331.0,386.5,335.0,383.0,338.0" stroke="yellow" stroke-width="1" fill="none" />
<polyline points="345.5,143.5,343.5,137.5,343.5,137.5,335.5,131.0,336.5,126.0,332.5,123.0,330.5,117.5,328.5,114.0,326.0,111.5,321.5,106.5,319.0,104.0,315.5,98.5,312.0,96.0,305.5,93.5,303.5,89.0,301.5,81.5,297.0,77.0,292.0,76.5,285.5,68.5,278.5,68.5,277.5,63.0,270.0,60.0,266.0,56.0,253.0,51.0" stroke="green" stroke-width="1" fill="none" />
<polyline points="211.0,43.5,210.5,51.0,202.5,51.5" stroke="green" stroke-width="1" fill="none" />
<polyline points="170.5,61.5,169.0,63.5,161.0,65.0,164.0,69.0,167.5,65.0" stroke="black" stroke-width="1" fill="none" />
<polyline points="164.0,63.5,160.0,69.0,156.0,74.0,154.0,78.5,156.0,80.0,156.5,71.5,160.5,73.0,160.0,72.5,157.5,73.5" stroke="black" stroke-width="1" fill="none" />
<polyline points="158.5,74.0,159.0,74.0,154.0,78.5,153.0,84.5" stroke="black" stroke-width="1" fill="none" />
</svg>