<svg xmlns="http://www.w3.org/2000/svg" width="1024" height="1024" version="1.1" fill="white"><polyline points="411.0,6.5,406.5,15.0,411.0,20.5,408.0,20.5,421.5,32.5,419.5,34.0,413.5,29.5,434.0,27.5,428.0,31.0,425.5,53.5,435.0,48.0,436.0,49.5,442.0,63.0,426.0,58.5,431.5,68.0,436.5,68.0" stroke="orange" stroke-width="1" fill="none" />
<polyline points="441.5,45.0,438.5,39.5,431.0,37.0" stroke="black" stroke-width="1" fill="none" />
<polyline points="433.5,9.0,429.0,7.0,435.0,14.5,443.0,24.5,434.5,34.5,441.5,37.0,442.0,35.0,446.5,45.0,446.0,43.5,441.0,38.0,441.5,53.0,462.0,62.0,462.0,63.5,447.0,66.5,459.0,75.5,429.5,68.0,444.0,71.0,433.0,78.5,438.0,85.5,427.0,83.0,439.5,91.5,436.0,90.5,423.0,106.5,426.0,102.0,411.0,110.0,417.0,106.0,414.0,108.0,409.0,107.5,427.5,100.5,435.5,95.5,432.0,82.0,432.5,73.5,437.0,73.0,447.0,83.0,456.0,66.5,448.0,60.5,460.5,48.5,466.5,55.5,468.0,47.5,460.0,45.0,474.5,40.5,480.5,38.5,488.0,23.0,478.5,28.0,496.0,26.5,494.0,16.0,512.5,18.0,513.0,18.5" stroke="yellow" stroke-width="1" fill="none" />
<polyline points="513.0,6.0,515.0,9.0,493.0,25.0,489.0,27.5,491.5,23.5,482.5,27.0,480.5,32.5,491.0,31.0,469.0,47.0,470.0,36.5,468.0,43.0,467.0,56.0,469.5,59.5" stroke="orange" stroke-width="1" fill="none" />
<polyline points="495.5,65.5,494.0,68.0,502.5,83.0,503.5,90.5,497.0,95.5,482.0,95.5,480.0,102.0,481.5,98.5,479.5,109.5,468.5,113.0,464.0,122.0,468.5,123.5,457.5,138.5,463.0,139.0" stroke="orange" stroke-width="1" fill="none" />
<polyline points="437.5,164.5" stroke="yellow" stroke-width="1" fill="none" />
<polyline points="434.5,177.5,434.5,177.5,439.0,182.0,438.0,182.0,440.5,185.0,436.0,185.0" stroke="green" stroke-width="1" fill="none" />
<polyline points="423.0,223.0,425.5,216.5,418.5,223.0" stroke="orange" stroke-width="1" fill="none" />
<polyline points="420.5,244.5,414.0,233.5,414.5,252.5,410.5,248.5,417.5,250.5,413.5,246.5,405.0,245.0,418.5,245.5,418.0,250.0,417.0,251.5,414.0,255.0" stroke="green" stroke-width="1" fill="none" />
<polyline points="" stroke="green" stroke-width="1" fill="none" />
<polyline points="387.0,299.5,389.5,307.0,374.0,290.0,378.0,286.5,378.5,279.5,395.0,278.0,394.5,274.0" stroke="green" stroke-width="1" fill="none" />
<polyline points="366.0,256.5,371.0,252.5,375.0,256.5,378.0,242.5,373.0,239.0,369.5,239.5,378.5,229.0,363.5,233.0,378.5,218.5,372.5,225.0,372.0,233.0,371.0,223.0,370.0,219.5" stroke="black" stroke-width="1" fill="none" />
<polyline points="380.0,237.5" stroke="black" stroke-width="1" fill="none" />
<polyline points="375.5,262.5,381.0,262.5,369.5,260.5,366.5,279.0,369.5,269.0,372.0,275.5,366.0,275.0,370.0,273.5,370.0,274.0,365.0,274.5,364.0,283.5,359.0,283.0,361.5,283.0,361.0,284.5,360.0,285.0" stroke="black" stroke-width="1" fill="none" />
<polyline points="368.0,304.5,378.0,295.0,380.5,288.0,385.0,302.0,373.0,305.0,375.5,313.5,378.0,310.0,381.5,309.0,379.0,320.5,372.0,323.5,384.0,339.0,385.0,339.0,387.5,338.0,384.0,340.0" stroke="orange" stroke-width="1" fill="none" />
<polyline points="366.5,356.0,373.5,365.0,380.0,360.0,380.0,363.0" stroke="green" stroke-width="1" fill="none" />
<polyline points="378.5,376.5" stroke="yellow" stroke-width="1" fill="none" />
<polyline points="389.0,378.5,389.5,391.0,384.0,394.0,376.5,394.5,382.5,402.5,380.5,398.5" stroke="yellow" stroke-width="1" fill="none" />
<polyline points="360.5,418.0,357.0,413.5,355.0,419.0,342.0,411.5,345.0,401.0,334.5,408.0,337.0,405.0,327.5,406.0,328.5,394.5,321.5,404.0,322.5,391.0,315.5,394.5,310.5,387.0,299.0,396.5,296.0,388.5,300.5,387.0,301.0,396.0,297.0,391.0" stroke="green" stroke-width="1" fill="none" />
<polyline points="310.0,373.5,321.0,361.0,317.0,356.5,320.0,354.0,326.5,339.0,335.0,344.5,329.0,335.5,327.5,341.5,330.5,340.0" stroke="black" stroke-width="1" fill="none" />
<polyline points="352.0,330.5,366.5,335.0,349.5,329.0,355.0,339.5" stroke="green" stroke-width="1" fill="none" />
<polyline points="362.5,362.0,362.5,367.0,359.0,376.0,362.0,377.0,358.0,378.0,355.5,378.5,354.0,391.0,358.0,398.5,357.0,393.5,349.0,399.5,352.0,406.5,354.0,408.5" stroke="black" stroke-width="1" fill="none" />
<polyline points="363.0,371.5,365.0,377.0,359.5,373.0,355.5,367.5,363.5,371.0" stroke="orange" stroke-width="1" fill="none" />
<polyline points="359.5,371.5,361.5,372.5,358.0,374.0,355.5,380.5,352.5,387.0,357.0,380.5" stroke="yellow" stroke-width="1" fill="none" />
<polyline points="357.0,361.0,353.0,367.0,360.0,369.0,358.0,363.5,359.5,371.5,357.0,374.0,355.5,383.0,359.5,376.0,348.5,391.0,351.5,390.5,353.5,391.5,363.0,397.0,353.5,405.5,358.5,409.5,364.5,407.0,362.5,405.5,362.5,403.0" stroke="yellow" stroke-width="1" fill="none" />
<polyline points="376.5,457.5,369.0,459.5,374.0,454.5,373.0,452.5,376.0,450.0,375.0,440.0,372.0,446.5,367.5,431.5,371.5,430.0,381.0,434.0,381.5,418.0,388.5,413.5,380.5,413.0,374.0,409.0,384.0,402.5,378.5,398.5,375.0,402.0,388.5,394.0,382.0,396.5,374.0,385.0,392.0,377.5,376.0,376.5,386.5,374.0,384.0,372.0,380.0,367.0,389.5,366.5,371.5,358.0,383.5,349.0,388.0,351.0,380.0,347.5,376.0,344.5,374.5,340.0,386.5,333.5,375.5,333.0,373.0,321.5,381.0,322.5,377.0,329.0,383.0,312.0,371.0,310.5,368.5,301.5,382.5,319.5,381.0,305.0,381.5,287.5,377.0,291.0,368.0,283.5,373.5,274.0,377.5,283.5,361.0,274.0,364.5,268.0,375.0,265.5,369.0,262.5,372.5,257.5,358.5,258.5,370.0,251.5,367.0,245.5,375.5,242.0,375.5,229.0,361.0,226.0,372.0,231.5,356.0,219.0,359.5,220.0,369.5,226.5,362.0,210.5,365.5,209.0,354.0,207.5,347.0,203.5,346.0,198.0,342.0,203.5" stroke="black" stroke-width="1" fill="none" />
<polyline points="" stroke="orange" stroke-width="1" fill="none" />
<polyline points="" stroke="yellow" stroke-width="1" fill="none" />
<polyline points="" stroke="green" stroke-width="1" fill="none" />
<polyline points="358.5,203.5,373.0,209.0" stroke="black" stroke-width="1" fill="none" />
<polyline points="" stroke="green" stroke-width="1" fill="none" />
<polyline points="357.0,221.0,358.5,218.0" stroke="orange" stroke-width="1" fill="none" />
<polyline points="338.5,201.5,339.0,203.0,337.0,207.5,329.5,205.5,336.0,192.0" stroke="black" stroke-width="1" fill="none" />
<polyline points="344.5,221.0,357.5,206.0,361.0,226.5,351.5,223.5,363.0,234.0,361.5,236.5,364.5,242.5,368.5,246.0,369.0,252.0,370.0,252.0,371.5,255.0,362.5,256.0,365.0,256.5,363.0,257.0,366.5,252.5" stroke="orange" stroke-width="1" fill="none" />
<polyline points="363.5,238.0,367.5,242.0,365.5,241.5,363.0,247.0,357.5,253.0,365.5,247.5" stroke="black" stroke-width="1" fill="none" />
<polyline points="347.0,246.5,344.0,236.0,351.0,240.0,351.0,237.5" stroke="black" stroke-width="1" fill="none" />
<polyline points="342.5,251.5,343.0,252.0,336.5,255.5,333.5,251.0,338.0,249.5,334.0,255.5,325.5,257.5,331.5,256.5,331.5,259.0,330.5,260.0" stroke="yellow" stroke-width="1" fill="none" />
<polyline points="341.0,245.5,343.0,253.5,347.5,254.5,358.0,241.0,347.5,245.0,340.5,238.5" stroke="yellow" stroke-width="1" fill="none" />
<polyline points="" stroke="green" stroke-width="1" fill="none" />
<polyline points="" stroke="yellow" stroke-width="1" fill="none" />
<polyline points="343.5,274.5,353.5,287.0,351.0,282.0,347.5,300.5,347.0,293.0,344.5,292.0,354.0,299.0,351.5,310.0,339.0,310.5,346.5,310.0,342.0,319.0,329.5,321.5,346.0,322.5,342.0,325.0,334.0,337.0,336.0,338.0,331.0,335.0,321.5,347.5,326.0,353.5,320.5,357.5,322.0,357.5,313.5,365.5,314.0,370.5,318.0,366.0,321.5,371.0,318.5,382.0,312.0,381.5,308.0,382.0,311.0,395.5,316.5,393.5,326.5,405.5,342.0,406.5,345.5,410.0,345.0,416.5,352.5,412.0,354.0,414.0,357.5,428.0,361.5,427.0,351.0,435.5,363.5,435.5,362.5,432.0,367.5,442.0,363.5,446.5,373.0,453.5,374.0,452.5,371.5,460.5,375.5,463.0,364.5,477.5,368.5,477.5,373.0,475.5,376.0,477.5,372.5,480.0,379.5,493.5,380.5,489.0,379.0,494.0,375.5,504.0,381.0,493.5,380.5,499.5,388.0,510.5,394.5,506.5,383.5,523.0,398.0,525.5" stroke="black" stroke-width="1" fill="none" />
<polyline points="430.0,498.5,435.0,489.5,425.0,486.5,437.5,484.0,442.0,484.0,449.0,473.0,444.5,469.5,456.5,463.5,457.0,466.5,454.0,461.0,442.0,466.5,448.0,464.5,445.0,467.5,447.0,468.5" stroke="black" stroke-width="1" fill="none" />
<polyline points="446.0,483.5,451.0,473.0,445.5,481.0,452.0,472.0,450.5,467.0,454.0,461.0,447.0,468.0,459.0,471.5,463.0,471.0,459.0,467.0,459.5,465.5" stroke="yellow" stroke-width="1" fill="none" />
<polyline points="456.0,444.5,459.5,445.0,459.5,434.5,459.5,438.5" stroke="orange" stroke-width="1" fill="none" />
<polyline points="469.5,421.5,472.0,402.0,482.0,416.5,484.5,402.5,481.0,405.5,489.0,402.0,485.5,395.5,497.0,386.0,495.5,388.5,501.5,393.5,502.5,386.0,518.5,379.0,506.0,381.5,514.5,377.5,514.5,377.0,514.0,373.5" stroke="orange" stroke-width="1" fill="none" />
<polyline points="513.0,385.5,513.0,382.5,511.0,381.0,513.5,380.5,505.0,387.5,499.0,381.0,493.0,396.0,491.0,407.5,487.5,407.0,476.0,409.0,479.5,410.0,471.5,415.5,472.5,430.0,468.0,417.5,463.0,432.0,465.5,430.0,456.0,430.5,460.5,433.5,452.0,440.0,463.0,444.0,459.5,449.5,457.5,451.5,453.0,461.0,452.5,455.0,446.5,470.0,447.5,483.5,449.0,474.0,445.5,480.0,447.5,486.5,443.0,480.0,438.0,479.5" stroke="orange" stroke-width="1" fill="none" />
<polyline points="447.5,472.0,438.5,473.5,441.5,465.0,439.5,463.5,443.5,452.5" stroke="green" stroke-width="1" fill="none" />
<polyline points="425.5,447.0,422.5,445.5,429.5,455.0,432.0,442.0,441.5,439.5,437.0,432.0,433.5,424.0,427.5,426.0,432.5,436.0,429.0,432.5,434.0,419.5,425.5,428.0,432.0,435.0" stroke="black" stroke-width="1" fill="none" />
<polyline points="428.0,477.5,425.5,475.0,424.5,469.0,426.5,477.0,422.5,487.0,431.5,480.5,423.5,484.5,423.0,483.5" stroke="black" stroke-width="1" fill="none" />
<polyline points="426.0,468.0,418.0,477.5,425.5,478.0,428.0,467.5,435.0,453.5,430.0,461.0,432.5,462.5,435.5,463.0,434.0,467.0,435.5,461.0,439.5,460.0" stroke="orange" stroke-width="1" fill="none" />
<polyline points="480.0,409.5,488.0,404.0,482.5,391.0,482.0,390.0" stroke="green" stroke-width="1" fill="none" />
<polyline points="448.0,429.0,448.0,425.0,449.5,425.0,444.0,417.5,451.0,408.5,444.5,414.0,449.5,406.5,454.5,395.5,459.5,391.5,454.5,382.0,451.5,387.0,451.0,375.5,448.0,384.5,449.0,372.0,467.0,373.5,455.0,358.0" stroke="orange" stroke-width="1" fill="none" />
<polyline points="384.5,339.5,396.5,345.5,378.5,332.5,377.0,324.0,382.5,325.5,381.5,328.0,384.0,327.0" stroke="green" stroke-width="1" fill="none" />
<polyline points="372.0,363.5,370.0,371.0,361.5,362.0,373.0,380.5,374.0,392.0,360.5,383.5,374.0,387.5,369.5,385.0,377.0,386.5,380.5,388.0,387.0,382.5,378.5,383.5,380.5,387.0,375.5,391.0,377.5,391.0" stroke="black" stroke-width="1" fill="none" />
<polyline points="335.0,341.5,336.0,345.0,329.5,343.0" stroke="green" stroke-width="1" fill="none" />
<polyline points="" stroke="yellow" stroke-width="1" fill="none" />
<polyline points="303.0,354.0,295.5,354.0,284.5,352.5,296.0,357.0,295.0,352.5,299.0,354.5,295.0,356.5" stroke="orange" stroke-width="1" fill="none" />
<polyline points="318.0,357.0,314.0,357.0,301.0,364.5,318.5,369.0,297.0,363.5,304.5,361.5,300.0,359.5,304.5,360.5" stroke="black" stroke-width="1" fill="none" />
<polyline points="296.0,352.5,300.5,348.5,301.0,346.0,298.0,355.0,304.0,360.0" stroke="black" stroke-width="1" fill="none" />
<polyline points="304.5,327.0,310.5,327.5,313.0,326.0,307.0,329.5,310.5,331.5,308.5,326.0,310.0,340.0,303.5,343.5,308.5,339.5,307.5,330.0,307.0,340.0,306.5,338.5" stroke="yellow" stroke-width="1" fill="none" />
<polyline points="311.5,317.5,315.5,318.5,310.0,317.0,318.5,322.5,295.0,335.0,293.0,341.0,296.5,345.0,301.5,342.5,298.0,334.5,293.5,344.0,291.5,340.5,291.5,338.0" stroke="orange" stroke-width="1" fill="none" />
<polyline points="" stroke="black" stroke-width="1" fill="none" />
<polyline points="328.5,327.5,325.5,325.5,321.0,332.0,322.0,310.5,317.5,306.5,328.5,314.0,320.0,296.0,326.0,296.5,322.5,303.0,324.5,303.5,322.5,303.5" stroke="yellow" stroke-width="1" fill="none" />
<polyline points="" stroke="green" stroke-width="1" fill="none" />
<polyline points="343.5,269.5,339.0,265.0,335.0,268.0,325.5,259.5,329.0,256.0,332.5,256.0,331.5,259.5" stroke="yellow" stroke-width="1" fill="none" />
<polyline points="331.5,267.0,332.0,267.5,333.5,273.5,327.0,276.0,325.5,275.0,332.0,263.5,336.5,268.0,320.5,278.0,337.0,253.5,329.0,256.0,326.0,256.0,326.0,256.0" stroke="orange" stroke-width="1" fill="none" />
<polyline points="" stroke="green" stroke-width="1" fill="none" />
<polyline points="" stroke="yellow" stroke-width="1" fill="none" />
<polyline points="340.0,269.0,344.5,255.5,340.5,263.0,344.0,256.5,341.5,258.0,346.5,252.0,344.0,250.0,346.0,249.5" stroke="green" stroke-width="1" fill="none" />
<polyline points="349.0,237.5,351.0,227.5,338.0,226.5,334.0,211.5,337.0,210.5,340.5,217.0,339.0,213.0,331.5,215.0" stroke="green" stroke-width="1" fill="none" />
<polyline points="343.5,187.5,349.0,190.5,345.0,202.0,359.0,194.5,350.5,197.5,365.0,192.5,359.0,189.5,371.0,183.5,375.5,184.5,387.5,180.0,383.5,189.5,376.0,187.5,397.0,188.0,392.0,172.5,391.5,176.5,393.5,169.0,396.5,177.5,407.5,163.0,406.5,178.5,406.5,176.0,393.0,190.5,405.0,187.0,398.5,181.5,384.5,190.0,385.0,202.5,396.5,190.0,388.5,182.0" stroke="orange" stroke-width="1" fill="none" />
<polyline points="406.0,158.5,391.0,173.5,383.5,174.5,386.0,175.5,384.0,176.5" stroke="yellow" stroke-width="1" fill="none" />
<polyline points="353.0,194.0,350.5,189.5,341.5,191.5,336.5,197.0" stroke="orange" stroke-width="1" fill="none" />
<polyline points="323.5,202.5,329.0,211.5,338.5,205.5,333.0,203.0,327.5,207.5,332.0,210.5,329.0,206.0,329.5,207.0" stroke="yellow" stroke-width="1" fill="none" />
<polyline points="" stroke="yellow" stroke-width="1" fill="none" />
<polyline points="350.0,218.0,355.0,219.5,359.0,214.5,360.5,222.0" stroke="yellow" stroke-width="1" fill="none" />
<polyline points="362.0,203.0,356.0,203.0,351.0,198.0,356.0,200.0,344.0,206.0,345.5,207.0,349.0,207.5,351.5,204.0" stroke="yellow" stroke-width="1" fill="none" />
<polyline points="348.0,205.0" stroke="black" stroke-width="1" fill="none" />
<polyline points="" stroke="black" stroke-width="1" fill="none" />
<polyline points="347.0,204.5,345.5,206.5,349.0,203.5,350.0,206.5" stroke="yellow" stroke-width="1" fill="none" />
<polyline points="" stroke="black" stroke-width="1" fill="none" />
<polyline points="375.5,195.5,366.0,202.5,364.5,202.0" stroke="green" stroke-width="1" fill="none" />
<polyline points="383.5,161.5,374.0,159.0,388.5,157.0,383.0,174.5,381.0,174.0,389.5,176.5,387.0,155.5,390.0,154.5,393.0,150.5,389.5,151.5" stroke="orange" stroke-width="1" fill="none" />
<polyline points="396.0,170.5,394.5,158.5,411.5,160.0,394.5,169.0,398.5,176.0,389.0,171.0,399.5,174.0" stroke="green" stroke-width="1" fill="none" />
<polyline points="394.5,124.0,392.5,123.5,381.0,132.0,379.0,136.0,390.5,132.0,390.0,132.0,391.5,116.0,384.5,122.0,394.5,125.0,397.0,125.5" stroke="black" stroke-width="1" fill="none" />
<polyline points="391.5,124.0,378.5,127.0,386.5,126.5,381.0,130.5,391.5,127.5,405.0,125.0,399.0,119.0,400.0,120.5" stroke="black" stroke-width="1" fill="none" />
<polyline points="398.5,109.5,397.0,115.0,390.5,122.0,385.5,135.0,372.0,130.5,356.5,136.5,355.0,146.5,362.5,140.5,353.5,137.0,362.0,135.0,354.5,135.5,358.5,130.0,361.0,131.0,363.0,129.5" stroke="yellow" stroke-width="1" fill="none" />
<polyline points="335.5,142.5,316.5,150.0,320.5,155.0,306.5,148.0,305.0,168.0,306.5,166.5,307.0,167.0" stroke="orange" stroke-width="1" fill="none" />
<polyline points="" stroke="black" stroke-width="1" fill="none" />
<polyline points="284.0,173.0,285.0,167.0,278.0,182.0,285.5,177.0,284.0,183.5,286.5,181.0,285.5,179.5" stroke="orange" stroke-width="1" fill="none" />
<polyline points="" stroke="yellow" stroke-width="1" fill="none" />
<polyline points="281.5,177.5,282.0,167.5,281.5,173.5,277.5,174.0,276.0,178.0" stroke="green" stroke-width="1" fill="none" />
<polyline points="250.0,175.5,247.0,169.5" stroke="green" stroke-width="1" fill="none" />
<polyline points="242.0,159.0,237.0,164.0,243.5,161.5,250.0,166.5,256.5,166.5,248.5,179.0,256.5,184.5,252.0,183.0,252.0,183.0,242.0,188.0,244.0,194.0,237.5,194.5,243.5,199.5,239.0,212.0,241.0,203.5,234.0,220.0,243.5,204.0,246.0,216.5,260.0,208.5,254.5,212.5,251.0,205.0,249.5,215.5,251.5,217.0,259.5,222.0,239.0,222.5,238.0,237.5,241.5,226.0,237.0,226.5,242.5,246.0,225.5,246.0,232.0,251.0,219.0,253.0,218.0,254.5,224.0,257.5,220.5,265.0,209.0,270.0,211.5,279.0,206.0,277.5,204.5,285.5,206.5,290.5,211.5,299.0,199.5,302.5,190.5,298.5,191.0,302.0,207.0,306.0,194.0,321.5,197.5,309.0,194.0,313.0,174.0,317.0,184.0,320.0,180.0,323.0,176.0,332.5,166.5,329.0,166.0,342.0,159.5,341.0,168.0,340.5,169.0,338.5" stroke="orange" stroke-width="1" fill="none" />
<polyline points="156.0,354.0,151.0,342.5,163.0,366.0,153.0,363.0,153.0,367.0,148.0,379.0,155.0,379.0,156.0,367.0,145.0,385.5,159.0,385.5,152.0,397.0,156.5,399.0,146.0,391.5,141.0,413.5,154.0,402.0,162.5,413.0,157.5,413.5,152.0,419.0,164.5,411.0,167.0,414.5,169.0,413.0" stroke="yellow" stroke-width="1" fill="none" />
<polyline points="172.0,407.5,174.5,409.5,160.0,410.5,164.5,405.5,161.5,413.0,158.5,417.5" stroke="black" stroke-width="1" fill="none" />
<polyline points="171.5,409.0,170.0,422.5,162.5,422.5,169.0,421.5,173.0,426.5,167.5,421.5,176.5,433.0,181.0,421.5" stroke="green" stroke-width="1" fill="none" />
<polyline points="" stroke="orange" stroke-width="1" fill="none" />
<polyline points="184.5,438.0,187.0,441.5,185.0,432.5,179.0,440.5,174.0,442.5,188.0,442.0,195.0,439.0,198.5,422.0" stroke="black" stroke-width="1" fill="none" />
<polyline points="" stroke="green" stroke-width="1" fill="none" />
<polyline points="" stroke="yellow" stroke-width="1" fill="none" />
<polyline points="" stroke="yellow" stroke-width="1" fill="none" />
<polyline points="177.0,461.0,168.5,468.5,170.0,474.0,164.0,468.0,164.0,476.5,162.0,473.0" stroke="yellow" stroke-width="1" fill="none" />
<polyline points="152.5,472.5,127.0,449.0,126.0,457.0,145.0,455.0,136.5,450.5,131.5,448.5" stroke="yellow" stroke-width="1" fill="none" />
<polyline points="143.5,464.5,138.5,481.0,150.0,482.5,159.0,484.0,150.0,476.5,153.5,478.0,155.0,489.5,162.5,500.5,163.5,500.5,159.0,497.5,157.5,498.0" stroke="black" stroke-width="1" fill="none" />
<polyline points="168.0,503.0,171.5,501.5" stroke="yellow" stroke-width="1" fill="none" />
<polyline points="171.5,506.0,170.5,509.5,170.5,499.0,166.5,507.0,155.0,517.5,152.5,506.0,153.5,500.5,147.5,492.5,141.5,490.0,140.5,487.5" stroke="yellow" stroke-width="1" fill="none" />
<polyline points="148.5,504.0,148.5,501.5,151.0,504.0" stroke="black" stroke-width="1" fill="none" />
<polyline points="" stroke="black" stroke-width="1" fill="none" />
<polyline points="" stroke="green" stroke-width="1" fill="none" />
<polyline points="" stroke="orange" stroke-width="1" fill="none" />
<polyline points="149.0,494.0,161.0,489.0,159.5,488.0" stroke="black" stroke-width="1" fill="none" />
<polyline points="162.0,502.5,156.0,505.5,160.5,510.5" stroke="black" stroke-width="1" fill="none" />
<polyline points="145.5,494.5,139.5,483.5,140.5,479.0,137.0,484.5,147.0,492.0,145.5,487.5,138.5,475.5,135.5,483.0" stroke="yellow" stroke-width="1" fill="none" />
<polyline points="148.5,499.0,151.0,507.0,149.5,499.5,149.0,505.5,148.5,509.0,150.5,508.5,145.0,507.0,144.5,510.5,145.5,507.5,148.0,513.0" stroke="black" stroke-width="1" fill="none" />
<polyline points="" stroke="yellow" stroke-width="1" fill="none" />
<polyline points="149.0,519.5,145.0,523.0" stroke="orange" stroke-width="1" fill="none" />
<polyline points="126.5,508.5,135.0,510.5,137.5,500.0,128.0,495.0,127.0,494.5" stroke="black" stroke-width="1" fill="none" />
<polyline points="139.0,499.5,133.5,500.0,136.0,493.5,137.5,490.0" stroke="black" stroke-width="1" fill="none" />
<polyline points="" stroke="orange" stroke-width="1" fill="none" />
<polyline points="" stroke="green" stroke-width="1" fill="none" />
<polyline points="122.5,507.0,117.5,486.0,124.5,495.0,124.5,485.0,122.0,490.0,124.0,489.5,120.5,488.5" stroke="green" stroke-width="1" fill="none" />
<polyline points="131.0,500.0,124.5,501.0,130.0,498.5,124.0,495.5" stroke="orange" stroke-width="1" fill="none" />
<polyline points="128.0,520.0,131.5,500.5,129.5,502.5" stroke="yellow" stroke-width="1" fill="none" />
<polyline points="144.0,477.5,143.5,475.5" stroke="yellow" stroke-width="1" fill="none" />
<polyline points="125.5,485.5,127.5,486.5,139.5,494.0,132.0,491.0,138.5,508.5,132.0,501.0,141.0,505.0,146.5,509.5,137.0,506.5,140.5,502.5,139.5,502.5,144.0,500.5" stroke="yellow" stroke-width="1" fill="none" />
<polyline points="" stroke="orange" stroke-width="1" fill="none" />
<polyline points="" stroke="yellow" stroke-width="1" fill="none" />
<polyline points="" stroke="green" stroke-width="1" fill="none" />
<polyline points="" stroke="orange" stroke-width="1" fill="none" />
<polyline points="169.5,469.0,169.0,463.5,170.5,480.5,166.0,474.5,161.0,475.0,175.0,500.5,172.5,482.5,174.5,484.5,175.0,481.5,176.5,478.5" stroke="green" stroke-width="1" fill="none" />
<polyline points="189.5,487.0,211.5,486.0,196.5,493.0,202.0,485.5,207.0,487.0,212.5,481.0,218.5,477.0,220.0,479.5,225.0,479.5,228.0,476.0,228.0,474.0" stroke="green" stroke-width="1" fill="none" />
<polyline points="233.0,457.5" stroke="yellow" stroke-width="1" fill="none" />
<polyline points="217.5,476.0,216.5,479.5,215.5,478.0,228.0,466.5,219.0,452.5,227.5,447.5,228.5,455.5,228.0,442.5,236.0,441.0,232.5,442.0,234.0,436.5,243.5,433.5,231.0,425.0,239.0,416.5,231.0,417.0,224.5,417.0,227.5,405.5,232.0,403.0,228.5,402.5,222.5,401.0" stroke="green" stroke-width="1" fill="none" />
<polyline points="215.0,412.0,228.0,408.5,226.0,411.0,227.0,409.5,225.0,412.5" stroke="yellow" stroke-width="1" fill="none" />
<polyline points="220.5,408.0,226.0,426.5,231.0,426.0,219.0,427.5,223.0,417.5,226.0,414.5,219.5,421.5,225.5,419.0,222.5,411.0" stroke="green" stroke-width="1" fill="none" />
<polyline points="243.0,425.5,240.5,425.5,232.5,425.5,226.0,435.0,239.0,432.5,240.0,445.0,238.0,447.0,245.5,457.5,231.0,457.5,241.0,454.0,227.5,463.0,239.0,479.0,227.0,467.0,219.0,475.5,226.0,480.5,222.5,485.0,211.0,485.5,221.0,488.0" stroke="black" stroke-width="1" fill="none" />
<polyline points="192.5,490.5,212.0,490.0,199.5,496.5,206.0,489.5,223.5,486.5,213.5,497.5,217.5,486.5,228.0,481.5,239.5,476.0,238.0,475.0,245.0,481.5,243.0,476.5,245.0,474.5" stroke="yellow" stroke-width="1" fill="none" />
<polyline points="204.5,446.5,205.5,447.0,198.5,446.5,175.5,440.5,177.5,441.0" stroke="yellow" stroke-width="1" fill="none" />
<polyline points="186.0,457.5,194.0,452.0,180.0,451.5,186.5,448.0,197.5,439.5,185.0,427.0,176.5,429.0,181.5,433.5,186.5,427.0,182.0,428.0,182.5,427.0,183.5,414.0,174.0,414.5,182.5,409.5,159.5,407.0,165.5,401.0,163.0,387.0,164.5,392.5,160.5,388.5,167.5,385.0,168.5,382.0" stroke="orange" stroke-width="1" fill="none" />
<polyline points="177.0,371.0,174.0,351.5,184.0,349.5,188.0,331.0,190.5,339.0,197.0,325.0,199.5,330.0,203.5,317.0,191.0,330.5,195.0,331.5" stroke="yellow" stroke-width="1" fill="none" />
<polyline points="203.0,322.5,198.0,321.0,198.0,313.0,200.5,314.0" stroke="black" stroke-width="1" fill="none" />
<polyline points="182.0,317.0,177.5,322.0,193.0,316.0,194.0,307.5,194.0,300.0,199.5,293.0,202.0,288.5,206.0,284.5,211.5,275.5,224.0,262.0,224.5,257.0,228.0,247.0,237.5,247.5,235.5,243.5,250.0,236.5,237.0,224.5,250.5,222.0,249.5,219.0,263.5,225.5" stroke="black" stroke-width="1" fill="none" />
<polyline points="264.0,229.5,263.0,231.5,273.0,226.5,273.0,239.5,273.5,245.5" stroke="yellow" stroke-width="1" fill="none" />
<polyline points="277.0,232.0,277.0,233.0,275.0,230.0,265.5,244.0,256.0,242.5,261.0,251.0,262.5,253.5,264.5,256.0" stroke="black" stroke-width="1" fill="none" />
<polyline points="261.0,236.0,268.0,231.5,272.5,229.0,268.5,235.5,265.0,225.5,272.0,230.0,265.5,229.5,259.0,228.0,260.0,233.0,266.0,238.0,241.5,238.0,251.0,236.0,234.0,252.5,251.0,262.5,226.0,266.5,223.5,275.5,215.0,284.0,220.0,283.0,225.0,288.0,233.5,275.0,229.0,265.0,228.5,268.5,227.5,266.0,237.0,260.0,231.0,260.0,243.0,245.5,231.0,245.0,253.5,239.5,251.0,239.5,259.5,243.0,253.5,228.0,268.5,220.0,262.5,218.5,261.0,219.0,257.0,217.0,262.0,219.0,278.5,220.0,268.5,204.0,275.0,201.0,273.0,196.0,279.5,202.0,261.5,188.5,273.0,188.0,260.5,185.5,270.5,200.5,262.5,209.0,279.0,203.5,262.5,203.0,262.0,213.0,266.5,196.0" stroke="black" stroke-width="1" fill="none" />
<polyline points="250.5,199.5,249.0,194.5,245.5,196.0,245.0,198.5" stroke="orange" stroke-width="1" fill="none" />
<polyline points="253.0,217.5,252.0,217.0,257.0,225.5,237.5,231.5,237.0,227.0,228.0,239.5,223.0,232.5,222.5,239.5,223.5,231.5,228.5,232.0,226.0,226.5,229.0,215.0,217.0,223.0,211.5,219.0,219.5,222.5,230.0,209.0,220.5,211.5,219.5,207.5,215.5,204.5,221.5,202.5" stroke="orange" stroke-width="1" fill="none" />
<polyline points="" stroke="green" stroke-width="1" fill="none" />
<polyline points="" stroke="yellow" stroke-width="1" fill="none" />
<polyline points="" stroke="green" stroke-width="1" fill="none" />
<polyline points="253.5,209.0,252.0,206.0,253.0,197.5,260.0,187.5,262.0,186.0,255.0,180.0,248.5,197.5,243.5,193.5,255.0,190.0,271.0,187.5,262.0,187.5,258.0,187.5,265.5,185.0,271.0,177.0,271.0,185.5,273.0,189.0,274.0,177.5,277.5,178.5" stroke="orange" stroke-width="1" fill="none" />
<polyline points="249.5,192.5,252.5,192.5,253.5,192.0,250.0,201.5,249.5,197.5,243.5,193.5,239.5,198.5,245.0,204.0,254.5,204.5,240.5,195.5,256.0,197.0,262.5,194.5,253.5,187.0,263.0,172.5,272.0,196.0,266.0,196.5,273.5,197.0,273.0,196.0" stroke="yellow" stroke-width="1" fill="none" />
<polyline points="262.5,208.0,263.0,204.5,264.5,207.0,262.0,209.5,257.0,205.0,265.5,197.0,262.5,193.0,267.0,183.5,275.0,183.5,276.5,192.0" stroke="orange" stroke-width="1" fill="none" />
<polyline points="261.5,190.5,253.5,194.0,254.5,199.0,244.0,216.5,247.0,211.5,247.5,212.0,255.0,210.0" stroke="yellow" stroke-width="1" fill="none" />
<polyline points="255.0,203.5,261.5,212.0,261.5,208.5,257.5,220.5,262.0,219.5,251.0,224.5,248.0,217.0,246.0,233.5,240.0,225.5,241.0,245.0,239.5,247.0" stroke="yellow" stroke-width="1" fill="none" />
<polyline points="" stroke="black" stroke-width="1" fill="none" />
<polyline points="" stroke="black" stroke-width="1" fill="none" />
<polyline points="219.0,226.5,215.0,224.5" stroke="orange" stroke-width="1" fill="none" />
<polyline points="215.0,235.0,221.0,238.5" stroke="black" stroke-width="1" fill="none" />
<polyline points="236.5,243.5,217.0,236.0,227.5,248.5,227.5,248.0" stroke="green" stroke-width="1" fill="none" />
<polyline points="211.5,228.5,209.5,232.5,213.5,226.0,211.5,221.5,221.5,228.0,204.5,227.5" stroke="orange" stroke-width="1" fill="none" />
<polyline points="222.0,236.0,227.5,232.0,228.0,248.0,224.0,248.0,235.0,250.0,234.5,254.0,234.0,253.0" stroke="black" stroke-width="1" fill="none" />
<polyline points="223.0,268.0,221.0,271.5,212.0,273.5,199.5,289.5,196.0,288.5,195.0,288.0,187.0,300.0,187.5,313.5,190.0,318.5,179.0,335.0,180.0,325.5,165.5,323.0,170.5,328.5,163.0,337.5,147.5,330.5,148.0,331.0,154.0,338.5,134.5,348.5" stroke="green" stroke-width="1" fill="none" />
<polyline points="147.0,339.5,146.5,339.0,154.5,343.0,145.0,332.5,158.0,328.0" stroke="yellow" stroke-width="1" fill="none" />
<polyline points="156.0,328.5,154.5,332.0,160.5,340.5,156.0,337.0,153.0,335.5,156.0,338.0" stroke="green" stroke-width="1" fill="none" />
<polyline points="147.0,358.0" stroke="green" stroke-width="1" fill="none" />
<polyline points="134.5,332.0,144.5,340.0,130.0,339.0,140.0,326.0,131.5,318.5,137.0,317.0,136.5,318.0,125.0,317.0,134.5,320.0,126.0,315.0" stroke="green" stroke-width="1" fill="none" />
<polyline points="131.0,296.5,128.0,300.0" stroke="green" stroke-width="1" fill="none" />
<polyline points="135.5,311.0,135.5,307.5" stroke="black" stroke-width="1" fill="none" />
<polyline points="137.5,287.5" stroke="orange" stroke-width="1" fill="none" />
<polyline points="128.5,271.0,143.0,273.5,142.0,271.5" stroke="green" stroke-width="1" fill="none" />
<polyline points="152.0,268.5,158.0,263.5,153.5,267.0,163.5,267.5,160.0,268.0" stroke="black" stroke-width="1" fill="none" />
<polyline points="149.0,273.0,158.5,274.5,153.5,271.0,156.5,274.0,157.0,270.0,154.0,274.0" stroke="black" stroke-width="1" fill="none" />
<polyline points="143.0,268.0,154.5,277.0,149.0,273.5,152.0,270.0" stroke="orange" stroke-width="1" fill="none" />
<polyline points="167.0,258.5,169.5,255.0,174.5,260.5,178.0,260.0,169.5,255.5,168.5,252.5" stroke="yellow" stroke-width="1" fill="none" />
<polyline points="182.0,249.5,180.0,251.5" stroke="yellow" stroke-width="1" fill="none" />
<polyline points="172.0,259.0,171.5,259.0,178.5,262.0" stroke="yellow" stroke-width="1" fill="none" />
<polyline points="" stroke="green" stroke-width="1" fill="none" />
<polyline points="179.5,260.5,194.5,259.5,183.0,261.0,188.0,258.0,189.0,260.0,190.0,259.0,193.5,259.0,193.5,260.5" stroke="green" stroke-width="1" fill="none" />
<polyline points="" stroke="yellow" stroke-width="1" fill="none" />
<polyline points="" stroke="orange" stroke-width="1" fill="none" />
<polyline points="172.5,256.0,185.0,261.5,187.5,255.0" stroke="orange" stroke-width="1" fill="none" />
<polyline points="203.5,263.0,204.0,252.5" stroke="orange" stroke-width="1" fill="none" />
<polyline points="211.0,247.0,215.5,250.5,220.5,247.0,206.5,240.0,211.0,236.5,214.5,232.5,210.5,243.5,205.0,240.0,209.5,237.0,211.0,236.0,202.5,232.5,200.0,231.0" stroke="black" stroke-width="1" fill="none" />
<polyline points="212.5,236.5,220.5,241.5,214.0,238.0,220.0,232.0,220.0,247.0" stroke="yellow" stroke-width="1" fill="none" />
<polyline points="" stroke="green" stroke-width="1" fill="none" />
<polyline points="" stroke="black" stroke-width="1" fill="none" />
<polyline points="217.0,257.5,216.0,257.0,209.0,248.5,214.5,243.5,213.0,248.5,206.0,241.5,211.0,235.0,202.5,240.5,204.0,237.0" stroke="yellow" stroke-width="1" fill="none" />
<polyline points="216.0,242.5,215.5,247.0,207.0,240.0,210.0,257.5,211.5,259.0,220.0,260.0,214.5,263.0,216.5,264.5" stroke="yellow" stroke-width="1" fill="none" />
<polyline points="" stroke="orange" stroke-width="1" fill="none" />
<polyline points="200.0,255.0,198.0,253.0,195.0,255.5" stroke="green" stroke-width="1" fill="none" />
<polyline points="" stroke="green" stroke-width="1" fill="none" />
<polyline points="180.5,269.5,186.0,264.5,170.0,266.0,171.5,258.5,191.0,240.5,181.5,244.5,180.0,240.5,188.5,234.0,199.0,243.0,179.5,243.5,179.5,246.0,180.5,242.5,182.0,241.5,181.5,244.0" stroke="black" stroke-width="1" fill="none" />
<polyline points="191.5,213.5,193.5,218.0,195.5,213.0,202.5,211.0,191.5,228.0,187.0,232.0" stroke="black" stroke-width="1" fill="none" />
<polyline points="190.0,218.5,189.5,225.0,185.0,211.5,195.0,220.5,190.0,230.5,189.5,233.0,198.5,227.0,196.0,233.0" stroke="green" stroke-width="1" fill="none" />
<polyline points="187.0,239.0,180.5,238.5,186.0,240.5,183.0,244.5" stroke="yellow" stroke-width="1" fill="none" />
<polyline points="191.0,238.0,206.0,242.0,196.5,239.0,201.5,244.5,204.5,244.0" stroke="black" stroke-width="1" fill="none" />
<polyline points="227.0,217.5,228.5,218.0,221.5,220.5,221.5,220.5" stroke="green" stroke-width="1" fill="none" />
<polyline points="" stroke="black" stroke-width="1" fill="none" />
<polyline points="214.5,223.0,222.5,214.0,223.5,222.5" stroke="green" stroke-width="1" fill="none" />
<polyline points="215.5,219.0,225.0,232.0,230.0,234.5,222.0,235.5,235.0,234.0,235.5,245.0,229.5,237.5,233.5,254.5,228.5,250.0,231.0,255.5,216.0,253.5,213.0,272.5,222.0,257.0,216.5,261.0,223.0,270.0,217.0,286.5,204.5,282.5,209.5,295.5,207.0,287.0,200.5,288.5,214.5,305.0,188.0,309.5,203.0,310.5,206.5,319.0,194.5,313.0,198.0,320.0,187.5,330.5,199.5,323.0,190.0,309.5,203.0,313.0,219.0,313.0,210.5,314.0,223.5,300.0,230.5,306.0,233.5,283.5,228.5,281.0,243.0,275.5,237.0,268.5,238.0,272.0,252.0,269.5,250.0,258.0,246.0,253.5,246.0,258.0,254.5,249.5,257.5,250.5,273.0,244.5,283.5,258.5,279.0,250.0,272.5,253.0,295.0,254.0,287.0,246.5,303.5,254.5,298.5,251.5,300.0,251.5,297.0,256.5,304.5,252.0" stroke="orange" stroke-width="1" fill="none" />
<polyline points="" stroke="orange" stroke-width="1" fill="none" />
<polyline points="287.0,255.5,285.5,256.5,291.5,280.0,288.0,275.5,289.5,282.0,289.5,276.5,288.5,270.0,288.5,276.0" stroke="black" stroke-width="1" fill="none" />
<polyline points="" stroke="black" stroke-width="1" fill="none" />
<polyline points="" stroke="orange" stroke-width="1" fill="none" />
<polyline points="278.5,269.5,278.0,270.0,275.0,267.5" stroke="orange" stroke-width="1" fill="none" />
<polyline points="281.0,260.5,273.5,266.0" stroke="green" stroke-width="1" fill="none" />
<polyline points="284.5,276.5,288.5,271.0" stroke="green" stroke-width="1" fill="none" />
<polyline points="261.5,271.5,264.5,264.0,271.5,266.5" stroke="green" stroke-width="1" fill="none" />
<polyline points="268.0,267.5,264.5,268.5,270.5,267.5,275.0,271.0,277.0,258.0,274.0,276.5,272.0,285.0,284.5,271.5,275.0,279.5,281.0,287.0,280.5,289.5,276.5,291.5,277.0,290.5,275.5,291.5" stroke="black" stroke-width="1" fill="none" />
<polyline points="261.0,274.0,255.0,279.0,251.5,269.0,253.0,277.0,255.5,276.0,249.0,274.0,251.0,276.0,252.0,277.5" stroke="green" stroke-width="1" fill="none" />
<polyline points="264.0,271.0,275.5,284.0,278.5,280.0,278.5,278.5" stroke="black" stroke-width="1" fill="none" />
<polyline points="" stroke="orange" stroke-width="1" fill="none" />
<polyline points="257.0,265.5,259.5,263.5,256.5,269.0,256.0,281.0,255.5,274.0,262.5,270.0,265.5,278.5,272.0,276.0,275.0,285.5,279.5,281.5,282.0,280.5,288.5,280.0" stroke="green" stroke-width="1" fill="none" />
<polyline points="287.0,267.0,283.0,255.5,279.5,260.5,286.0,253.0,282.0,253.5,273.0,258.0,280.5,250.5,275.0,251.5,268.0,250.5,276.0,257.0,275.5,253.5,276.0,255.0" stroke="orange" stroke-width="1" fill="none" />
<polyline points="278.5,245.0,273.5,255.5,275.0,248.0,272.5,247.5" stroke="green" stroke-width="1" fill="none" />
<polyline points="" stroke="yellow" stroke-width="1" fill="none" />
<polyline points="269.5,264.0,266.5,252.5,284.5,257.5,269.5,259.0,263.0,245.0,257.5,245.0,265.0,250.5,259.5,257.0,255.5,255.0,267.0,254.5" stroke="yellow" stroke-width="1" fill="none" />
<polyline points="260.5,277.5,264.0,269.0,258.0,267.5,260.5,267.0,261.5,266.5" stroke="yellow" stroke-width="1" fill="none" />
<polyline points="275.5,271.5,281.5,272.0,283.0,267.0,288.0,277.5,290.5,273.0,283.0,271.5,281.0,278.5,284.5,276.0,291.0,263.0" stroke="yellow" stroke-width="1" fill="none" />
<polyline points="" stroke="orange" stroke-width="1" fill="none" />
<polyline points="252.5,257.0,248.0,266.0,245.0,263.5,233.5,274.0,233.0,272.0,229.0,275.5,225.5,296.0,239.0,284.5,230.0,285.0,215.5,295.5,210.0,305.5,212.5,303.0,208.5,304.5,211.5,322.0,197.0,309.0,201.0,310.0,210.5,321.0,195.5,323.0,191.5,336.0,192.0,338.0,183.0,336.0,187.0,350.0,181.0,346.0,176.0,341.5,174.0,353.5,174.0,358.5,165.0,362.0,168.0,364.0,163.5,369.5,156.5,385.5,157.5,381.0,151.5,390.0,164.0,386.5,166.5,394.5,169.0,395.5,173.0,407.5,179.5,404.5,169.0,402.5,178.5,399.5,166.5,400.0,174.0,396.0,169.5,403.0" stroke="yellow" stroke-width="1" fill="none" />
<polyline points="166.0,396.5,161.0,390.5,159.0,391.0,156.0,389.0" stroke="orange" stroke-width="1" fill="none" />
<polyline points="" stroke="green" stroke-width="1" fill="none" />
<polyline points="134.5,370.5,140.5,370.5,143.0,360.5,141.0,357.0" stroke="black" stroke-width="1" fill="none" />
<polyline points="" stroke="green" stroke-width="1" fill="none" />
<polyline points="128.5,413.5,124.0,417.0,131.5,415.5,143.0,421.5,141.5,422.0,141.5,433.5,135.5,433.0,136.5,443.5,137.5,443.0,144.0,444.5,143.0,452.5,134.5,451.5,137.5,461.5,139.0,455.0,135.5,467.0,135.0,471.0,140.0,473.5,150.0,471.0,145.5,480.0,147.0,466.0,148.0,466.0" stroke="black" stroke-width="1" fill="none" />
<polyline points="" stroke="green" stroke-width="1" fill="none" />
<polyline points="169.0,468.5,187.5,456.0,179.5,467.0,173.5,461.0,173.0,457.5,176.0,451.0,160.5,436.5,178.5,435.5,164.5,445.5,166.5,440.0" stroke="black" stroke-width="1" fill="none" />
<polyline points="166.0,437.5,166.5,438.0,165.0,435.5" stroke="yellow" stroke-width="1" fill="none" />
<polyline points="172.5,405.5,168.0,406.0,159.0,406.5,150.5,408.0,164.0,399.0,160.0,404.0,160.5,394.5,162.0,402.0,151.5,390.5,151.0,385.0,144.5,368.5,152.0,368.5,142.5,363.5,142.5,361.0,149.0,358.5,150.0,356.5,141.5,358.5,152.5,358.0,154.0,356.0" stroke="orange" stroke-width="1" fill="none" />
<polyline points="141.0,362.5,143.5,365.0,141.0,361.5,146.0,355.5,153.0,362.0,147.0,380.5,146.0,374.0,151.5,384.0,151.5,381.5,159.5,381.0,153.0,397.0,157.5,385.5,158.5,403.5,176.5,394.0,180.5,392.5" stroke="green" stroke-width="1" fill="none" />
<polyline points="173.5,431.0,172.5,433.0,163.0,449.0,173.0,450.5,186.5,452.5,177.5,448.0,173.5,466.0,177.0,467.0,178.5,471.0" stroke="yellow" stroke-width="1" fill="none" />
<polyline points="172.0,451.5,169.0,453.5,172.5,453.5,171.5,458.5" stroke="black" stroke-width="1" fill="none" />
<polyline points="170.0,455.5,164.5,441.0,158.5,445.0,178.0,452.5,166.0,458.5,180.5,454.5,169.5,465.0,171.5,473.0,162.0,469.5,163.5,482.0,180.5,472.5,157.0,480.0,164.5,492.0,162.0,489.0,158.5,503.5,158.0,492.0,163.0,513.0,173.5,495.5,182.5,512.0,175.5,514.0,182.0,511.0,167.5,515.5,169.0,508.5,170.0,510.0" stroke="black" stroke-width="1" fill="none" />
<polyline points="" stroke="black" stroke-width="1" fill="none" />
<polyline points="" stroke="green" stroke-width="1" fill="none" />
<polyline points="" stroke="green" stroke-width="1" fill="none" />
<polyline points="166.0,459.5,150.5,449.0,148.5,448.5,148.5,443.0,151.0,435.5,168.0,433.5,144.5,435.5,145.5,428.5,139.5,421.0,139.5,407.5" stroke="orange" stroke-width="1" fill="none" />
<polyline points="152.0,395.0,145.5,391.5,151.0,387.0,149.5,401.0,148.5,396.0,142.5,402.5,147.5,405.0,141.0,403.5,139.0,404.0" stroke="orange" stroke-width="1" fill="none" />
<polyline points="" stroke="yellow" stroke-width="1" fill="none" />
<polyline points="136.0,406.0,136.5,405.5,145.5,410.0,137.5,415.5,148.5,409.5,143.0,414.0,148.0,415.5,142.5,415.0" stroke="orange" stroke-width="1" fill="none" />
<polyline points="156.0,419.5,161.0,421.5,154.5,430.5,161.0,422.5,150.5,442.5,157.0,435.5" stroke="black" stroke-width="1" fill="none" />
<polyline points="165.0,439.0,171.0,448.0,177.5,450.0,178.5,448.5,184.5,437.0,182.5,435.5" stroke="green" stroke-width="1" fill="none" />
<polyline points="177.0,410.0,177.0,412.0,183.0,418.5,173.0,412.5,166.5,414.5,160.5,412.5,162.5,403.0,169.5,396.5,166.0,397.0" stroke="orange" stroke-width="1" fill="none" />
<polyline points="164.5,414.5,171.0,417.5,169.0,430.0,161.0,433.0,154.0,431.0,156.5,426.5,161.0,435.0,154.5,429.5,168.5,435.5,172.5,428.5,165.5,434.5,169.5,428.0,161.0,425.0" stroke="green" stroke-width="1" fill="none" />
<polyline points="" stroke="orange" stroke-width="1" fill="none" />
<polyline points="154.0,460.0,155.5,455.5,160.5,452.0,160.5,454.0,165.0,461.0" stroke="black" stroke-width="1" fill="none" />
<polyline points="165.5,457.0,174.5,453.0" stroke="black" stroke-width="1" fill="none" />
<polyline points="" stroke="yellow" stroke-width="1" fill="none" />
<polyline points="152.0,453.0,142.0,459.0,152.0,455.0,160.5,453.5,150.5,452.0,153.0,456.0,148.5,456.0" stroke="yellow" stroke-width="1" fill="none" />
<polyline points="150.5,440.5,145.5,444.0,147.0,448.5,144.5,443.5" stroke="black" stroke-width="1" fill="none" />
<polyline points="144.5,462.0,156.0,466.5,150.0,464.0,145.0,467.0,156.5,470.0,149.0,477.0,153.5,484.5,155.0,481.5,154.0,475.5" stroke="orange" stroke-width="1" fill="none" />
<polyline points="149.0,468.5,153.5,469.5,151.5,470.5" stroke="black" stroke-width="1" fill="none" />
<polyline points="144.0,464.5,157.5,463.5,162.5,466.0,157.0,469.5,156.0,462.0" stroke="black" stroke-width="1" fill="none" />
<polyline points="" stroke="orange" stroke-width="1" fill="none" />
<polyline points="136.0,457.5,134.0,452.5,144.5,457.5,139.5,453.5,149.0,474.5,141.0,471.0,152.0,469.0,158.0,477.0,150.0,480.5,159.0,479.0" stroke="green" stroke-width="1" fill="none" />
<polyline points="163.0,476.0,165.0,479.5,161.0,469.0,167.5,469.0,149.5,468.5,148.5,472.5,161.5,456.0,146.5,456.5" stroke="orange" stroke-width="1" fill="none" />
<polyline points="140.0,457.5,163.5,479.0,156.5,479.5,148.5,472.5,154.0,479.5,152.0,472.0,168.5,495.0,158.5,492.0,162.5,489.5,167.5,503.0,178.5,505.0,168.0,503.0,167.5,501.5,167.5,501.0" stroke="black" stroke-width="1" fill="none" />
<polyline points="162.5,457.5,153.0,449.5,151.0,440.0,152.0,436.5,143.0,434.5,150.0,429.5,149.0,438.5,145.5,415.5,142.0,424.0,145.0,421.5,145.5,420.0" stroke="black" stroke-width="1" fill="none" />
<polyline points="" stroke="black" stroke-width="1" fill="none" />
<polyline points="" stroke="yellow" stroke-width="1" fill="none" />
<polyline points="144.0,414.0,147.5,413.5,155.5,406.0,159.0,414.0,160.5,410.0,159.0,405.5" stroke="black" stroke-width="1" fill="none" />
<polyline points="143.5,398.5,139.0,421.0,145.0,424.5,149.5,435.5,140.0,441.5,148.5,437.5,160.5,437.0,160.0,432.0,145.0,443.0,151.0,443.5" stroke="black" stroke-width="1" fill="none" />
<polyline points="147.0,430.5,157.5,405.0,147.5,412.0,147.5,403.0,145.5,398.5,152.5,398.5,144.0,393.0,142.0,392.0" stroke="green" stroke-width="1" fill="none" />
<polyline points="151.5,395.5,152.5,397.0,144.0,397.0" stroke="green" stroke-width="1" fill="none" />
<polyline points="" stroke="orange" stroke-width="1" fill="none" />
<polyline points="145.5,401.5,143.5,410.5,141.0,403.0,137.0,400.5,122.5,404.0,126.0,397.5,124.5,405.0,123.0,400.5,124.0,401.0" stroke="green" stroke-width="1" fill="none" />
<polyline points="123.0,399.0,119.0,399.0,127.0,404.0,129.5,397.5,113.5,407.0,136.0,404.5,131.0,404.5,127.5,403.5,131.5,399.5" stroke="yellow" stroke-width="1" fill="none" />
<polyline points="134.0,393.5,143.0,398.5,142.0,388.5,131.5,396.5,139.5,376.0,130.5,378.0,144.0,374.5,144.5,380.0,149.0,369.0,152.0,366.5,145.0,357.5,134.5,343.5,144.0,345.5,148.5,346.0,141.0,347.5,133.5,349.5,129.5,341.5,139.0,336.5,143.5,339.5,132.0,326.0,122.5,312.0,138.0,310.0,123.0,319.5,124.0,300.0,119.5,309.0,129.0,290.0,132.0,295.0,135.0,286.5,137.0,295.5,125.0,279.0,133.5,276.0,130.0,269.0,128.5,268.0,123.5,267.0" stroke="orange" stroke-width="1" fill="none" />
<polyline points="129.0,280.0,126.5,277.0,126.0,285.5,124.5,287.5,116.0,302.5,130.0,289.5,112.0,300.5,135.5,291.0,125.5,303.5,112.5,314.5,109.5,332.5,116.0,314.5,112.0,318.5,121.5,323.5,113.0,334.0,113.5,330.5,119.5,337.0,118.5,340.0,122.5,332.5,115.5,333.5" stroke="yellow" stroke-width="1" fill="none" />
<polyline points="" stroke="orange" stroke-width="1" fill="none" />
<polyline points="112.5,344.5,119.5,354.5,133.0,362.5,116.5,375.0,114.5,356.0,107.0,371.5,115.5,371.5,109.5,375.0,116.5,396.0,113.0,393.5,121.0,383.5,118.5,400.0,121.5,405.0" stroke="green" stroke-width="1" fill="none" />
<polyline points="111.5,376.5,112.0,377.5,123.0,390.5,126.0,386.5,119.0,371.5,129.5,379.0,117.0,374.5,115.5,354.5,119.0,374.0,119.5,368.5,115.5,373.0" stroke="black" stroke-width="1" fill="none" />
<polyline points="129.0,376.5,132.5,380.0,128.5,379.5" stroke="green" stroke-width="1" fill="none" />
<polyline points="123.0,385.0,124.5,399.5,126.0,401.0" stroke="yellow" stroke-width="1" fill="none" />
<polyline points="125.5,384.0,133.5,399.5,148.0,398.5,135.5,391.5,148.5,388.0,138.5,390.5,141.5,399.0,138.5,396.5,142.5,395.0,139.5,393.5" stroke="green" stroke-width="1" fill="none" />
<polyline points="" stroke="yellow" stroke-width="1" fill="none" />
<polyline points="118.5,394.0,120.5,397.5,120.5,395.5,119.0,395.5,120.5,395.5,111.0,405.0,113.0,401.0,114.5,400.5,110.0,400.0" stroke="yellow" stroke-width="1" fill="none" />
<polyline points="123.5,412.5,124.5,410.5,117.5,404.5,123.0,415.5,118.5,417.0,131.5,424.0,142.5,414.0" stroke="black" stroke-width="1" fill="none" />
<polyline points="" stroke="green" stroke-width="1" fill="none" />
<polyline points="" stroke="green" stroke-width="1" fill="none" />
<polyline points="" stroke="green" stroke-width="1" fill="none" />
<polyline points="" stroke="yellow" stroke-width="1" fill="none" />
<polyline points="" stroke="yellow" stroke-width="1" fill="none" />
<polyline points="159.0,391.5,158.0,397.5,150.0,381.0,149.5,382.5" stroke="yellow" stroke-width="1" fill="none" />
<polyline points="172.0,404.0,165.5,408.0,172.0,413.0,179.5,413.5,176.0,416.0,173.0,415.0,178.0,406.5,168.5,416.0" stroke="orange" stroke-width="1" fill="none" />
<polyline points="168.0,400.5,165.0,393.0,142.0,390.0,145.0,395.5,143.5,392.0,143.5,395.5,142.0,392.0,138.0,387.5,143.5,385.0,149.0,382.5,136.0,380.5,141.5,382.5,132.0,374.5,144.5,369.0,133.5,365.0,143.0,350.0,143.0,347.5,145.0,361.5,133.5,347.0,126.5,341.5,124.5,335.0,124.5,336.0,142.0,328.5,142.0,330.0,137.5,320.5,139.0,320.5" stroke="green" stroke-width="1" fill="none" />
<polyline points="133.0,326.0" stroke="yellow" stroke-width="1" fill="none" />
<polyline points="124.0,349.0,125.0,354.0,114.0,351.5,120.0,356.5,115.5,368.0,119.0,373.0,122.5,375.5,124.5,378.5,122.0,382.0,137.0,388.0,134.5,381.0,133.5,390.0,130.0,399.5,131.0,394.5" stroke="green" stroke-width="1" fill="none" />
<polyline points="" stroke="green" stroke-width="1" fill="none" />
<polyline points="" stroke="green" stroke-width="1" fill="none" />
<polyline points="" stroke="orange" stroke-width="1" fill="none" />
<polyline points="" stroke="orange" stroke-width="1" fill="none" />
<polyline points="127.0,357.5,128.0,355.5,134.0,353.5,122.5,353.0,134.5,368.0,145.0,366.5,128.0,373.5,129.0,370.0,129.0,373.5" stroke="black" stroke-width="1" fill="none" />
<polyline points="139.0,361.0,145.5,351.5,140.0,348.0,148.0,353.0,131.5,347.5" stroke="yellow" stroke-width="1" fill="none" />
<polyline points="143.5,351.5,138.0,350.5,136.5,342.5,133.5,341.5" stroke="orange" stroke-width="1" fill="none" />
<polyline points="" stroke="orange" stroke-width="1" fill="none" />
<polyline points="132.0,338.5,144.5,346.0,141.0,337.0,141.5,333.0,147.5,334.5,143.5,335.0,151.5,334.0" stroke="black" stroke-width="1" fill="none" />
<polyline points="140.5,350.0,128.0,337.0,139.0,342.5,133.5,348.5,141.5,344.0,134.5,340.5" stroke="orange" stroke-width="1" fill="none" />
<polyline points="109.5,362.5,108.0,365.5,109.5,376.0,114.5,371.0,108.0,377.0,116.0,378.5,125.0,383.0,117.5,394.5,114.0,392.5,115.0,397.5,114.0,413.5,122.0,397.5,117.0,406.5,118.0,421.5,104.0,420.5,107.0,417.5,110.0,418.5,117.0,418.0,117.5,418.0" stroke="orange" stroke-width="1" fill="none" />
<polyline points="111.0,414.0" stroke="green" stroke-width="1" fill="none" />
<polyline points="124.5,424.0,125.5,422.0,125.5,417.0" stroke="orange" stroke-width="1" fill="none" />
<polyline points="" stroke="yellow" stroke-width="1" fill="none" />
<polyline points="" stroke="green" stroke-width="1" fill="none" />
<polyline points="112.0,436.0,121.0,423.0,119.0,441.0,121.5,447.0,122.5,443.5,121.5,442.5,119.0,441.0" stroke="black" stroke-width="1" fill="none" />
<polyline points="" stroke="orange" stroke-width="1" fill="none" />
<polyline points="" stroke="yellow" stroke-width="1" fill="none" />
<polyline points="124.5,458.5,123.5,450.5,131.5,451.0,128.0,443.0,120.5,447.5,125.0,448.0" stroke="yellow" stroke-width="1" fill="none" />
<polyline points="" stroke="yellow" stroke-width="1" fill="none" />
<polyline points="" stroke="green" stroke-width="1" fill="none" />
<polyline points="100.5,444.5,89.5,449.5,98.0,455.0,95.0,451.0" stroke="yellow" stroke-width="1" fill="none" />
<polyline points="90.0,464.0,84.0,460.5,84.5,459.5,100.0,451.0,94.0,456.0" stroke="yellow" stroke-width="1" fill="none" />
<polyline points="97.0,467.0,95.0,466.5" stroke="green" stroke-width="1" fill="none" />
<polyline points="96.5,497.5,96.5,500.5,103.5,501.0,99.5,506.0,108.5,513.5,106.0,512.0,109.5,514.0,98.5,511.0,100.0,515.0,100.5,512.0" stroke="black" stroke-width="1" fill="none" />
<polyline points="105.5,489.5" stroke="yellow" stroke-width="1" fill="none" />
<polyline points="110.5,485.0,107.5,498.5,115.5,495.5,122.5,505.5,124.5,516.5,115.0,516.5,117.5,513.5" stroke="green" stroke-width="1" fill="none" />
<polyline points="97.5,503.5,102.5,504.5,95.0,501.5,98.5,509.5" stroke="green" stroke-width="1" fill="none" />
<polyline points="97.0,499.5,98.5,500.5,101.0,519.0,103.0,518.5" stroke="black" stroke-width="1" fill="none" />
<polyline points="124.5,501.0,125.5,498.5,120.5,498.0,135.5,498.0,123.0,490.0" stroke="yellow" stroke-width="1" fill="none" />
<polyline points="123.5,492.5,130.5,492.0,134.0,508.0,128.5,504.5,127.5,503.0,125.5,513.0,133.0,508.5" stroke="yellow" stroke-width="1" fill="none" />
<polyline points="154.0,446.0,150.0,418.5,144.5,424.0,141.0,415.5,123.0,420.5,124.5,420.5,127.0,414.5" stroke="green" stroke-width="1" fill="none" />
<polyline points="138.0,422.0,137.5,420.0,127.5,420.0,150.0,436.0,137.0,433.0,142.5,441.0,148.0,448.5,148.0,453.0,142.0,451.5,131.0,460.0,138.5,456.5,132.0,472.5,136.0,459.0,138.0,452.0" stroke="orange" stroke-width="1" fill="none" />
<polyline points="138.0,440.0,136.0,441.5,146.5,425.0,135.5,426.0,139.0,424.0,140.5,427.5,140.0,429.0,141.0,432.5" stroke="orange" stroke-width="1" fill="none" />
<polyline points="123.5,436.0,123.5,420.0,126.5,416.5,126.5,415.5,130.5,418.0" stroke="yellow" stroke-width="1" fill="none" />
<polyline points="117.5,413.0,122.0,435.0,116.0,436.0" stroke="yellow" stroke-width="1" fill="none" />
<polyline points="" stroke="yellow" stroke-width="1" fill="none" />
<polyline points="103.5,407.5,111.0,419.0,101.5,435.5,105.5,442.5,107.0,435.5" stroke="orange" stroke-width="1" fill="none" />
<polyline points="93.5,436.0,88.5,438.0,90.5,441.5,92.0,446.5,103.5,442.5,96.5,439.5,100.0,422.5,107.0,422.5" stroke="green" stroke-width="1" fill="none" />
<polyline points="99.0,432.0,93.0,421.0,98.5,429.0,88.5,424.5" stroke="orange" stroke-width="1" fill="none" />
<polyline points="96.5,418.0,76.5,430.0,88.0,414.5,86.0,413.0,90.0,422.5,88.5,421.5" stroke="yellow" stroke-width="1" fill="none" />
<polyline points="" stroke="yellow" stroke-width="1" fill="none" />
<polyline points="" stroke="green" stroke-width="1" fill="none" />
<polyline points="100.0,386.0,89.0,403.0,106.0,398.0,101.0,403.5" stroke="green" stroke-width="1" fill="none" />
<polyline points="98.5,408.0,85.0,403.5,91.0,396.0,97.0,406.5,88.0,397.0,87.5,402.5,97.5,392.0,83.5,389.0,94.0,383.5,78.0,386.0,90.0,389.0,86.5,383.5" stroke="green" stroke-width="1" fill="none" />
<polyline points="74.5,400.0,75.5,404.0,69.0,417.0,71.5,422.0,74.5,420.0,74.5,422.5,70.0,431.0,66.0,424.0,76.0,431.0,73.5,434.5,76.5,434.5,76.5,441.5,62.0,440.5,75.5,448.0,72.0,449.0,70.0,457.0,69.5,457.0,73.0,464.0,85.5,460.5,66.5,473.5,57.5,476.5,70.0,484.0,65.5,483.5,66.0,494.0,72.0,492.5,70.5,503.5,76.0,502.5,61.5,499.0,74.5,508.5,73.5,520.0,63.5,510.0,72.5,508.5,79.5,502.0,72.5,498.0" stroke="yellow" stroke-width="1" fill="none" />
<polyline points="" stroke="orange" stroke-width="1" fill="none" />
<polyline points="71.0,489.5" stroke="green" stroke-width="1" fill="none" />
<polyline points="55.0,475.5,67.0,480.0,68.0,482.0,61.0,482.0,66.5,484.0,69.5,496.5,70.0,493.5,70.0,489.5,74.0,491.5" stroke="orange" stroke-width="1" fill="none" />
<polyline points="80.0,456.5,84.0,443.0,83.0,444.0,82.0,441.5" stroke="black" stroke-width="1" fill="none" />
<polyline points="" stroke="green" stroke-width="1" fill="none" />
<polyline points="80.0,454.5,76.0,449.5" stroke="green" stroke-width="1" fill="none" />
<polyline points="66.5,471.5,69.0,465.5,60.5,467.0,59.0,463.0,68.0,469.5,69.0,473.5,73.5,484.5,71.0,485.5" stroke="green" stroke-width="1" fill="none" />
<polyline points="" stroke="yellow" stroke-width="1" fill="none" />
<polyline points="14.0,497.0,20.5,506.0,19.0,509.5,17.5,509.5" stroke="yellow" stroke-width="1" fill="none" />
<polyline points="25.0,496.5,26.5,496.5,24.0,494.5" stroke="black" stroke-width="1" fill="none" />
<polyline points="" stroke="green" stroke-width="1" fill="none" />
<polyline points="15.0,412.0,8.5,420.0,8.0,421.0,3.5,427.5,10.0,429.5,11.0,443.0,13.0,441.5,16.5,440.0,9.0,439.5,13.0,443.5,19.0,452.0,19.5,455.0,12.5,465.5,7.0,458.5,21.5,472.5,24.0,473.5,18.5,475.5,20.5,477.0" stroke="black" stroke-width="1" fill="none" />
<polyline points="22.0,460.5,35.5,456.5,28.5,454.0,28.0,456.0,31.5,446.0,30.0,444.5,25.5,440.0" stroke="orange" stroke-width="1" fill="none" />
<polyline points="26.0,415.5" stroke="green" stroke-width="1" fill="none" />
<polyline points="20.0,417.5,11.0,417.0,14.5,425.0,17.5,428.5,20.5,443.5,36.0,440.5,8.5,441.0,28.0,447.5,26.0,451.0,29.0,451.5,20.0,453.5,30.5,460.0,29.5,460.5,21.0,472.5,24.5,474.5,38.0,475.5,24.0,474.0,28.5,481.5,27.5,496.0,22.0,496.5,35.5,503.5,31.5,504.0" stroke="orange" stroke-width="1" fill="none" />
<polyline points="62.5,432.5,67.5,436.0" stroke="black" stroke-width="1" fill="none" />
<polyline points="77.0,427.0,64.5,428.0,70.0,411.5,67.5,411.0,68.5,418.0,64.0,407.0,69.0,410.0,77.0,405.0,75.5,399.5,83.5,392.5,65.5,407.0" stroke="green" stroke-width="1" fill="none" />
<polyline points="" stroke="green" stroke-width="1" fill="none" />
<polyline points="" stroke="green" stroke-width="1" fill="none" />
<polyline points="" stroke="green" stroke-width="1" fill="none" />
<polyline points="78.5,423.0,75.5,430.5" stroke="black" stroke-width="1" fill="none" />
<polyline points="100.5,445.5,102.5,440.0,101.0,433.5,100.5,442.5,107.0,437.5,97.5,443.0" stroke="black" stroke-width="1" fill="none" />
<polyline points="" stroke="green" stroke-width="1" fill="none" />
<polyline points="93.0,419.5,89.5,420.5" stroke="black" stroke-width="1" fill="none" />
<polyline points="99.5,401.0,98.5,394.5,98.0,393.5,93.0,396.0" stroke="yellow" stroke-width="1" fill="none" />
<polyline points="97.0,379.5,104.5,380.5,98.5,364.5,113.5,356.5,101.0,359.5,105.5,355.5,107.0,355.0,106.0,362.0,110.5,353.5,112.0,337.5,107.0,337.0,106.0,337.5" stroke="orange" stroke-width="1" fill="none" />
<polyline points="101.0,334.5,104.0,336.0,102.5,332.0,106.0,335.5,99.5,339.0,105.5,337.0" stroke="green" stroke-width="1" fill="none" />
<polyline points="" stroke="black" stroke-width="1" fill="none" />
<polyline points="107.5,304.5,119.5,315.5,118.5,302.5,124.0,302.5,121.5,307.0,114.5,309.0,110.5,325.0,108.0,305.5,101.0,307.5,111.5,306.5,110.5,321.5,99.5,314.5,97.0,313.0,109.0,322.0,106.0,308.5,124.0,306.0,114.0,299.5,118.5,303.0,117.5,287.5,123.0,297.0,123.0,301.5,121.5,294.5" stroke="black" stroke-width="1" fill="none" />
<polyline points="128.5,315.0,120.0,315.0,114.0,312.5,108.0,319.0,125.0,322.5,109.5,328.5,98.0,324.0,92.0,341.0,90.5,336.0,101.0,346.0,89.5,333.0,90.5,333.0,91.0,329.0" stroke="yellow" stroke-width="1" fill="none" />
<polyline points="" stroke="black" stroke-width="1" fill="none" />
<polyline points="86.5,377.5,89.0,374.0,98.5,383.5,87.5,393.5,86.0,400.0,95.5,393.0,85.5,387.5,85.5,406.5,89.0,407.0,98.5,403.0,93.5,412.5,94.5,410.0,106.5,404.5,110.0,421.5,101.0,406.0,110.5,400.5,109.5,400.5" stroke="orange" stroke-width="1" fill="none" />
<polyline points="122.0,349.5,133.0,349.0,132.0,351.5,128.5,354.0" stroke="orange" stroke-width="1" fill="none" />
<polyline points="112.0,372.5,127.5,393.0,128.5,388.5,130.5,395.5,124.0,382.0,128.5,402.0,129.5,407.5,130.0,400.5,137.5,396.0,133.0,400.0" stroke="orange" stroke-width="1" fill="none" />
<polyline points="120.5,363.5,122.0,357.0,116.5,351.5,117.0,357.5" stroke="black" stroke-width="1" fill="none" />
<polyline points="119.0,372.0,124.0,376.0,133.0,382.5,133.5,382.5" stroke="orange" stroke-width="1" fill="none" />
<polyline points="" stroke="black" stroke-width="1" fill="none" />
<polyline points="134.5,360.5,126.0,358.5,129.0,375.0,138.5,367.0,140.0,368.5" stroke="orange" stroke-width="1" fill="none" />
<polyline points="182.0,369.0,181.0,351.0,176.0,359.0,179.5,344.5" stroke="green" stroke-width="1" fill="none" />
<polyline points="173.5,338.0,159.5,342.0,167.0,356.5,156.0,361.0,160.0,367.0,162.5,366.5,164.0,365.5,159.5,355.0,171.5,354.5,176.5,350.5,174.0,343.0,179.5,328.0,184.5,332.0,187.0,331.5,185.5,341.5,188.0,320.0,194.0,324.0,188.0,322.5" stroke="yellow" stroke-width="1" fill="none" />
<polyline points="" stroke="orange" stroke-width="1" fill="none" />
<polyline points="195.5,362.0,193.5,350.0,193.0,352.0,187.5,347.5,191.0,350.5,192.5,342.5" stroke="green" stroke-width="1" fill="none" />
<polyline points="167.0,365.5,169.0,358.5,174.5,354.0,174.0,357.5,171.0,362.0" stroke="yellow" stroke-width="1" fill="none" />
<polyline points="162.0,365.0,167.0,370.0,164.0,354.0,166.5,358.5,159.0,369.5,154.5,361.5,159.5,364.0,170.0,352.5,171.5,355.0,177.0,348.0,178.0,343.0,175.5,341.0,180.5,339.0,187.5,331.5,175.0,329.0,155.5,326.0,168.5,341.0,152.5,337.5,166.5,339.0,162.5,337.0,168.0,329.5,158.5,332.0,173.0,333.0" stroke="orange" stroke-width="1" fill="none" />
<polyline points="172.0,325.5,168.5,345.0,167.0,338.5,167.5,335.5,167.5,335.0" stroke="black" stroke-width="1" fill="none" />
<polyline points="" stroke="black" stroke-width="1" fill="none" />
<polyline points="170.0,318.0,168.5,319.0,162.0,323.0,160.5,322.5,145.0,338.0,154.5,348.0,158.0,335.0,147.0,349.0,139.0,335.5,139.5,332.5,138.5,340.0,136.0,335.5,137.0,325.5,129.5,320.0,129.5,314.5,126.5,302.0,135.0,319.0,128.0,306.0,139.0,298.0,135.0,298.5,133.5,300.5,136.5,287.5,141.5,298.5,135.5,281.5,135.5,270.5,136.5,283.0,128.0,283.0,141.0,286.0,136.5,276.5,145.0,282.5,142.0,275.5,139.0,278.5,152.5,270.0,153.5,249.5,154.5,250.0,167.5,248.0,163.0,246.5,164.0,243.5,158.0,242.0,149.0,248.5" stroke="green" stroke-width="1" fill="none" />
<polyline points="145.0,252.0" stroke="black" stroke-width="1" fill="none" />
<polyline points="141.0,246.5,141.5,236.5,149.5,245.5,147.0,247.5,158.5,250.0,154.5,256.0,155.0,258.5" stroke="black" stroke-width="1" fill="none" />
<polyline points="148.5,264.0,143.5,270.5,134.0,277.5,132.0,274.5,136.5,278.0,137.5,278.5" stroke="black" stroke-width="1" fill="none" />
<polyline points="153.5,259.5,161.0,253.0,156.0,260.5,154.0,265.0,153.0,266.5,152.5,271.5,151.0,276.0,143.5,273.0,145.5,291.0,151.5,280.5,154.0,282.5,160.0,277.0,163.0,279.0,163.0,296.5,160.0,299.0,152.5,299.0,165.0,308.5,168.0,317.5,164.0,316.0,156.0,312.5,162.0,313.0,173.5,315.0,173.0,309.0,171.0,301.0,173.0,301.5,171.0,294.0,185.0,284.5,186.5,287.0,182.0,292.5,180.5,287.5" stroke="orange" stroke-width="1" fill="none" />
<polyline points="" stroke="yellow" stroke-width="1" fill="none" />
<polyline points="" stroke="yellow" stroke-width="1" fill="none" />
<polyline points="172.0,293.5,175.0,295.5,178.5,297.5,171.0,313.0,173.5,304.5,181.5,304.0,177.5,307.0,180.0,305.5,181.5,309.0" stroke="green" stroke-width="1" fill="none" />
<polyline points="" stroke="orange" stroke-width="1" fill="none" />
<polyline points="172.5,313.5,169.0,301.0,175.0,297.0,183.5,301.0,169.5,284.5,166.5,287.5,170.5,292.0,158.0,292.5,163.0,285.0,162.0,291.0,174.5,286.5,179.0,284.5,177.0,286.0,162.0,285.0,169.5,284.0,164.0,292.5,166.0,284.5,168.5,296.0,164.5,274.5,169.5,278.5,165.0,272.5,164.5,270.5,166.0,264.5,173.5,268.5,172.5,262.5,168.5,263.5,167.5,256.5,171.0,249.5,181.0,248.0,174.5,239.0,173.5,232.5,180.0,232.0,182.0,244.5,176.5,249.5,177.5,245.0" stroke="yellow" stroke-width="1" fill="none" />
<polyline points="183.5,235.5,181.0,242.0,178.5,243.0,181.5,247.0,177.5,254.5,172.0,247.5,185.5,260.0,187.5,255.5,186.5,257.5,181.5,258.5" stroke="yellow" stroke-width="1" fill="none" />
<polyline points="185.5,255.0,190.0,259.0,179.0,252.0,183.0,248.5,187.0,246.5,184.5,248.0,184.5,251.0,188.5,251.0,189.5,251.0" stroke="yellow" stroke-width="1" fill="none" />
<polyline points="230.0,272.5,222.0,270.5,224.0,274.5,238.5,267.0,236.5,273.5,232.5,266.0,225.0,272.0" stroke="green" stroke-width="1" fill="none" />
<polyline points="206.5,319.0,212.5,322.0,223.0,326.0,208.5,329.5,221.5,329.5,213.5,331.5,222.5,339.0,223.0,336.0" stroke="black" stroke-width="1" fill="none" />
<polyline points="257.0,388.0,251.5,387.5,253.0,376.5,256.0,396.5,260.0,374.0,257.5,375.0" stroke="black" stroke-width="1" fill="none" />
<polyline points="264.5,384.5,268.0,382.0,256.5,374.0,250.0,390.5,252.5,398.5,255.5,395.0,249.0,394.5,244.5,400.5,248.0,391.0" stroke="yellow" stroke-width="1" fill="none" />
<polyline points="" stroke="black" stroke-width="1" fill="none" />
<polyline points="285.5,350.0,281.0,349.0" stroke="yellow" stroke-width="1" fill="none" />
<polyline points="220.0,353.0,218.0,351.5,221.5,352.0,217.5,337.0,221.0,337.0,222.5,331.5,226.5,332.5,227.5,326.5,224.5,312.5,224.0,310.0,224.0,313.5,218.5,301.0,223.5,305.0,222.5,309.5" stroke="orange" stroke-width="1" fill="none" />
<polyline points="176.0,288.5,168.0,284.5,174.5,291.0,175.5,291.0" stroke="black" stroke-width="1" fill="none" />
<polyline points="171.5,302.0,174.5,300.0,178.0,314.0,169.5,317.5,176.0,308.0" stroke="green" stroke-width="1" fill="none" />
<polyline points="159.0,309.5,164.5,300.5,156.0,307.0,156.0,318.5,150.0,323.0,158.5,317.5,151.0,322.5" stroke="green" stroke-width="1" fill="none" />
<polyline points="" stroke="orange" stroke-width="1" fill="none" />
<polyline points="163.5,309.5,163.5,317.5,160.5,317.0,158.0,323.0,160.0,317.5,164.0,311.5,160.5,313.5" stroke="green" stroke-width="1" fill="none" />
<polyline points="" stroke="orange" stroke-width="1" fill="none" />
<polyline points="" stroke="yellow" stroke-width="1" fill="none" />
<polyline points="" stroke="yellow" stroke-width="1" fill="none" />
<polyline points="151.5,281.5" stroke="yellow" stroke-width="1" fill="none" />
<polyline points="171.5,301.0,172.0,302.0" stroke="black" stroke-width="1" fill="none" />
<polyline points="177.5,301.5,173.5,299.0,178.5,303.5,170.0,308.0,164.0,308.5,168.5,303.0,170.5,305.5" stroke="orange" stroke-width="1" fill="none" />
<polyline points="158.5,294.0,155.5,296.0" stroke="yellow" stroke-width="1" fill="none" />
<polyline points="159.5,288.0,163.5,293.0,154.5,298.0,175.0,294.5,168.0,297.5,171.0,296.0" stroke="black" stroke-width="1" fill="none" />
<polyline points="169.5,279.0,170.5,277.5,170.5,300.5,167.0,294.0,168.5,300.5,163.5,311.5,169.0,309.0,173.0,306.5,161.0,318.5,161.0,313.0,168.5,313.0,162.0,331.0,162.0,326.0,149.5,329.5,154.5,334.5,153.0,340.5,148.5,342.0,147.0,349.0,155.5,354.0,149.0,359.5,143.5,346.5,146.5,347.5,151.0,345.0,153.0,350.5,170.0,352.0,163.5,344.5,166.0,340.5,160.5,341.5,161.0,340.0" stroke="yellow" stroke-width="1" fill="none" />
<polyline points="" stroke="orange" stroke-width="1" fill="none" />
<polyline points="158.0,277.0,163.5,273.5,177.5,270.5,162.5,263.5" stroke="black" stroke-width="1" fill="none" />
<polyline points="174.5,266.0,163.5,262.5,166.0,271.0,171.5,279.0,165.5,277.0,167.5,274.0,168.5,276.0" stroke="yellow" stroke-width="1" fill="none" />
<polyline points="" stroke="orange" stroke-width="1" fill="none" />
<polyline points="161.5,276.5,159.0,273.0,162.0,281.0,165.0,280.0,167.0,286.5,164.0,287.0,183.0,283.0,170.0,296.0,173.0,282.0,180.5,284.5,173.0,282.0,171.5,275.5" stroke="black" stroke-width="1" fill="none" />
<polyline points="164.5,287.5,168.0,286.0,157.0,283.0,171.5,291.5" stroke="yellow" stroke-width="1" fill="none" />
<polyline points="160.0,285.0,164.5,279.5,157.0,296.0,161.0,293.0,160.5,291.0,161.0,290.0,159.5,285.5,163.0,283.0,158.5,289.0" stroke="black" stroke-width="1" fill="none" />
<polyline points="143.0,306.0,150.0,287.5,161.0,290.5,154.0,277.0,156.5,276.5,148.0,272.0,155.0,257.0,152.5,264.5,162.5,269.0,162.0,244.5,168.0,251.0,163.0,253.5,165.5,248.5,163.5,244.5,156.0,240.5,165.5,253.0,155.0,252.5,155.5,249.5,145.0,248.5,140.0,253.5,154.5,250.5,138.5,270.0,132.0,252.0,138.5,263.0,122.5,255.0,130.0,273.5,123.0,269.0,136.0,261.5,137.5,247.5,136.0,245.5,124.5,250.5,132.0,242.0,144.0,243.0,136.0,237.0,140.5,236.5,140.0,223.5,133.0,228.5,135.0,219.0,136.5,231.5,134.5,226.5,138.5,218.5,117.5,210.0,130.0,202.5,124.5,196.0,129.5,196.5,111.5,193.0,123.0,193.5,123.0,175.5,120.0,189.5,117.5,179.5,120.0,170.5,114.0,162.0,116.5,151.5,120.5,164.0,111.5,146.5,113.0,140.5,115.5,139.5,118.5,140.0,126.0,142.5,122.0,133.0,122.5,136.5,127.0,125.5,133.5,129.0,136.5,117.5,136.5,120.5,135.5,105.0,138.5,117.0,127.0,91.0,143.5,100.5,142.0,106.5,143.0,103.5,140.0,94.0,132.5,107.0,141.0,109.0,134.5,102.0,144.0,109.0" stroke="orange" stroke-width="1" fill="none" />
<polyline points="129.0,102.5,128.5,100.0,133.0,111.0,143.0,107.5,141.0,116.5,129.0,129.0,128.5,123.0,130.5,135.0,133.0,132.0,132.0,138.5,137.5,136.0,136.5,148.0,135.5,146.5,128.0,142.0,126.0,149.0,124.0,155.5,128.0,148.0,126.5,154.0,125.5,160.5,122.5,163.0,123.5,160.5" stroke="orange" stroke-width="1" fill="none" />
<polyline points="128.5,154.5,130.0,153.0,132.5,156.0,136.0,154.5,128.5,156.5,122.5,171.0,130.0,165.0,124.5,169.5,133.5,156.0,123.0,162.5,128.5,165.5,128.5,170.0,126.5,179.5,134.0,177.0,130.0,180.5,130.5,175.5" stroke="orange" stroke-width="1" fill="none" />
<polyline points="145.0,182.0,147.5,180.5,150.0,185.0,122.0,178.5,136.0,182.5,138.5,179.0,139.0,172.0,137.5,174.5,136.0,177.5,135.0,179.5" stroke="green" stroke-width="1" fill="none" />
<polyline points="128.0,172.0,133.5,174.5,131.0,180.0,138.0,175.0,127.5,172.0,138.0,171.5,135.0,172.5,139.5,170.5,141.0,171.5,140.5,162.5" stroke="green" stroke-width="1" fill="none" />
<polyline points="143.5,178.5,135.5,183.5" stroke="orange" stroke-width="1" fill="none" />
<polyline points="126.0,171.5,143.0,170.5,147.5,167.5" stroke="green" stroke-width="1" fill="none" />
<polyline points="137.0,179.5,137.5,172.0,144.0,175.5,146.5,193.5,133.0,177.0,149.0,208.5,143.5,199.0,141.0,197.5,147.5,191.5" stroke="orange" stroke-width="1" fill="none" />
<polyline points="" stroke="green" stroke-width="1" fill="none" />
<polyline points="156.0,194.0,148.5,186.5,145.0,194.5" stroke="green" stroke-width="1" fill="none" />
<polyline points="" stroke="green" stroke-width="1" fill="none" />
<polyline points="151.5,188.5,147.5,184.5,146.0,194.0,141.0,182.5,141.5,193.0,152.0,177.5,150.0,185.5,148.5,182.5,145.5,185.0" stroke="black" stroke-width="1" fill="none" />
<polyline points="157.5,184.0,147.0,197.5,147.5,197.0" stroke="green" stroke-width="1" fill="none" />
<polyline points="145.5,184.5,152.5,183.5,149.0,188.0" stroke="yellow" stroke-width="1" fill="none" />
<polyline points="164.0,177.0,166.0,171.5,170.0,183.5,175.5,168.0,168.0,168.0,177.0,169.0,177.0,157.5,183.5,158.5,189.0,155.0,199.0,152.5,202.5,154.0,207.5,146.0,200.0,146.5" stroke="black" stroke-width="1" fill="none" />
<polyline points="212.0,151.5,202.0,153.0,209.0,150.5,210.5,152.0,210.0,151.5,210.5,154.0" stroke="orange" stroke-width="1" fill="none" />
<polyline points="222.0,157.5,225.0,151.0,225.0,153.5,223.5,157.0,217.0,155.5,212.0,153.0,209.0,152.0" stroke="yellow" stroke-width="1" fill="none" />
<polyline points="220.5,142.0,214.5,140.5" stroke="black" stroke-width="1" fill="none" />
<polyline points="221.5,172.5,216.0,184.5,213.5,198.0,209.5,182.5,209.5,181.5,205.5,192.0,199.5,192.5,204.0,191.0,196.5,192.0" stroke="green" stroke-width="1" fill="none" />
<polyline points="213.0,184.5,221.0,185.0,217.0,183.0,210.5,188.5,222.0,182.0,220.5,169.0,227.5,181.0,234.5,175.0,238.5,171.0,246.0,175.5,243.5,173.0,250.0,181.5,236.0,180.5,236.5,184.0" stroke="black" stroke-width="1" fill="none" />
<polyline points="233.0,188.0,237.5,183.0,232.5,193.5,223.5,200.0,221.5,194.0,217.0,205.5,199.5,213.5,201.5,212.5,200.5,216.0,202.0,225.5,206.0,229.5,209.0,229.0,210.0,237.0,209.0,234.5,213.5,231.5" stroke="yellow" stroke-width="1" fill="none" />
<polyline points="209.5,205.0,201.5,203.5,207.0,204.0,220.0,191.0,215.0,185.0,219.5,190.5,229.0,194.5,228.5,181.5,228.5,182.0" stroke="orange" stroke-width="1" fill="none" />
<polyline points="210.5,205.0,214.5,201.5,208.5,202.5,211.0,211.0,203.5,205.0,199.5,211.0,207.0,199.5,223.0,201.0,234.5,196.5,227.0,205.0,222.5,199.5,226.0,191.5,223.0,201.0,223.5,200.5" stroke="green" stroke-width="1" fill="none" />
<polyline points="226.0,191.0,220.5,199.0" stroke="green" stroke-width="1" fill="none" />
<polyline points="216.5,176.0,219.0,183.0,209.0,185.0" stroke="yellow" stroke-width="1" fill="none" />
<polyline points="232.0,177.0,228.5,181.0,231.5,193.0,222.5,199.5,218.5,197.5" stroke="green" stroke-width="1" fill="none" />
<polyline points="" stroke="orange" stroke-width="1" fill="none" />
<polyline points="" stroke="orange" stroke-width="1" fill="none" />
<polyline points="187.5,202.5,201.0,200.0,190.0,198.5,194.0,210.5,187.5,201.5" stroke="black" stroke-width="1" fill="none" />
<polyline points="184.0,195.0,183.5,199.5" stroke="green" stroke-width="1" fill="none" />
<polyline points="192.5,212.0,193.0,214.0,195.0,222.5,183.5,216.5,188.0,223.5,192.0,220.5,191.0,207.0,186.5,206.0" stroke="black" stroke-width="1" fill="none" />
<polyline points="" stroke="green" stroke-width="1" fill="none" />
<polyline points="178.5,221.0,191.5,221.0,186.0,213.0,188.0,207.0,188.5,213.5" stroke="orange" stroke-width="1" fill="none" />
<polyline points="" stroke="yellow" stroke-width="1" fill="none" />
<polyline points="167.5,215.0,170.0,217.0,161.0,224.5,164.5,229.0,167.5,229.5,167.5,225.5,173.0,222.0,172.0,226.0" stroke="orange" stroke-width="1" fill="none" />
<polyline points="187.5,211.5,178.5,227.0,165.0,220.0,155.0,228.5,183.5,238.0,174.5,238.0,170.5,234.0,171.5,235.0" stroke="green" stroke-width="1" fill="none" />
<polyline points="176.5,244.5,161.0,245.0,171.5,244.0,161.0,246.0,161.0,249.0" stroke="green" stroke-width="1" fill="none" />
<polyline points="155.0,260.5,159.0,258.0,156.0,265.5,149.5,276.0,129.5,256.5,130.0,273.0,131.5,276.5,133.0,269.0,119.5,281.0,113.0,263.0,110.5,263.0,122.5,263.0,111.5,271.5" stroke="orange" stroke-width="1" fill="none" />
<polyline points="" stroke="orange" stroke-width="1" fill="none" />
<polyline points="113.5,274.0,121.0,276.0,111.5,284.0,120.0,288.0,108.5,300.0,109.0,304.5,95.5,306.0,94.0,309.0,94.0,307.5,82.5,313.0,77.0,327.0,83.5,321.0,95.0,333.5,87.0,334.0,95.5,341.0,78.5,339.0,83.0,344.0,89.0,347.5,80.0,352.5,77.0,356.5,77.5,349.0,65.5,356.0,74.5,359.0,62.0,358.0,76.5,351.0,73.0,346.0,92.0,331.5,91.0,334.5,92.5,327.5,89.5,333.0,90.0,331.5" stroke="black" stroke-width="1" fill="none" />
<polyline points="94.5,338.0,97.5,330.5,93.5,331.0,86.5,341.0,86.5,343.5,71.5,335.0,78.5,348.0,75.0,352.0,65.5,358.0,68.5,357.0,58.5,362.0,62.5,366.5,64.5,370.5,69.5,370.0,72.0,361.5,72.5,352.0,75.5,347.0,86.0,346.0,86.5,338.5,79.5,349.5,97.0,349.5,88.0,339.0,81.5,352.0,88.5,354.0,70.0,357.0,81.5,374.5,78.5,365.0,78.0,375.5,82.5,375.0,86.0,372.5,82.0,349.0,89.5,361.0,93.0,352.5" stroke="black" stroke-width="1" fill="none" />
<polyline points="102.5,344.5,91.5,356.5,108.0,356.5,104.0,372.0,101.5,365.5,91.5,381.0,104.0,377.0,105.5,375.0,105.0,375.5,107.5,371.5,103.0,374.5" stroke="yellow" stroke-width="1" fill="none" />
<polyline points="107.5,368.0,111.5,369.5,109.0,362.5,103.0,356.0,105.5,361.0,103.5,360.5,99.0,357.5,102.5,354.0,96.0,360.0,97.0,359.5" stroke="yellow" stroke-width="1" fill="none" />
<polyline points="106.0,359.5,109.5,360.5,110.5,359.5,104.5,364.0,106.5,366.0,111.5,362.0,114.0,364.0,109.0,368.0,114.5,364.5,110.5,361.0" stroke="black" stroke-width="1" fill="none" />
<polyline points="" stroke="black" stroke-width="1" fill="none" />
<polyline points="118.5,349.0,127.5,359.0,123.0,363.0,138.0,357.0,140.0,360.5" stroke="orange" stroke-width="1" fill="none" />
<polyline points="" stroke="black" stroke-width="1" fill="none" />
<polyline points="84.0,349.5,83.5,349.5,96.5,350.5,75.5,355.0,71.0,354.5,71.0,360.0,77.5,359.5,66.0,379.0,74.5,372.5,72.5,372.5,80.5,368.5,81.0,365.5,83.5,367.0" stroke="yellow" stroke-width="1" fill="none" />
<polyline points="86.5,387.0,73.0,378.5,68.5,392.5,68.5,394.0,59.5,386.0,57.5,388.5,56.5,399.5,54.5,407.5,63.0,394.0,73.0,388.0,77.5,388.5,76.5,384.0,77.5,385.0,64.5,385.0,62.0,392.5,68.5,395.5,64.0,389.0,55.0,405.5,66.5,403.0,70.0,398.0,76.0,383.0,80.5,386.5,83.5,379.0,86.5,369.0,92.0,373.0,89.0,370.0,77.5,361.0,94.0,349.5,96.5,360.5,90.0,349.5,94.0,350.0,99.0,359.0,92.0,343.0,101.5,350.5,93.5,343.0,86.0,363.0,93.5,344.5,92.5,340.5,105.5,342.0,99.0,325.5,87.5,330.0,95.0,322.5,97.5,307.5,99.0,317.0,96.5,309.0,99.5,311.5,104.5,309.0,105.5,299.0,111.5,313.5,95.0,312.5,103.0,321.0,97.0,320.0,96.5,315.0,96.0,310.5,98.0,309.0" stroke="yellow" stroke-width="1" fill="none" />
<polyline points="85.5,311.5,90.5,314.5,93.0,314.5,85.0,308.5,95.5,301.0,99.5,304.0,118.5,287.0,98.0,292.0,103.5,291.5,114.5,290.5,115.5,289.5,119.0,286.0,118.0,279.5" stroke="orange" stroke-width="1" fill="none" />
<polyline points="94.5,300.0,92.0,308.0,86.0,302.5" stroke="black" stroke-width="1" fill="none" />
<polyline points="85.0,293.0,90.0,301.0,79.5,294.5,80.5,297.0,97.5,295.0" stroke="orange" stroke-width="1" fill="none" />
<polyline points="88.0,293.0,87.5,288.5,82.5,295.0,96.5,290.0,101.5,298.0,90.5,284.0,105.5,289.5,107.5,283.0" stroke="black" stroke-width="1" fill="none" />
<polyline points="113.0,281.5,110.5,276.5,109.5,268.0,114.0,274.0,111.0,271.5" stroke="black" stroke-width="1" fill="none" />
<polyline points="114.5,268.5,107.5,273.0,110.0,269.0,104.5,284.0,105.5,277.0,88.0,285.5,78.5,289.5,92.0,290.0,86.5,288.5,107.0,277.5,92.0,280.0,122.0,291.0,108.5,283.5,123.0,291.0,118.5,290.5,121.0,289.5,127.5,287.0" stroke="black" stroke-width="1" fill="none" />
<polyline points="111.0,285.5,109.0,288.0,98.5,289.5,95.5,284.5,100.0,291.5,85.0,292.5,92.0,295.0,92.5,291.0" stroke="yellow" stroke-width="1" fill="none" />
<polyline points="94.5,272.0,97.5,271.5,98.0,256.0,117.5,257.5,90.5,261.0,92.0,271.0,102.0,286.5,87.5,281.0,89.0,282.5,95.5,264.5,105.5,271.0,97.0,279.0,103.5,279.5,105.0,268.5,109.5,289.0,111.5,267.5,112.5,284.0,135.5,268.0,130.5,266.5,138.0,266.5,130.0,261.5,129.5,264.0,130.0,262.5" stroke="yellow" stroke-width="1" fill="none" />
<polyline points="135.5,261.0,136.5,263.5,120.0,274.0,119.5,275.5,105.5,290.5,96.0,287.0,96.5,308.0,97.5,293.5,86.0,312.0,77.0,309.5,94.0,308.0,78.0,312.5,74.5,324.0,78.0,320.5,79.5,312.0,77.5,307.5,76.0,311.5,78.0,311.5" stroke="black" stroke-width="1" fill="none" />
<polyline points="" stroke="yellow" stroke-width="1" fill="none" />
<polyline points="127.5,317.5,124.5,313.5,119.5,313.0,113.5,309.5,110.5,343.0,108.0,314.5,95.0,328.5,97.0,330.5" stroke="green" stroke-width="1" fill="none" />
<polyline points="66.5,321.0,69.0,324.5,75.0,330.5,67.5,321.5,72.5,329.5,76.5,317.5,73.0,309.0,76.0,314.5,81.0,302.5,81.5,301.0,73.5,316.0,80.5,314.0" stroke="orange" stroke-width="1" fill="none" />
<polyline points="" stroke="yellow" stroke-width="1" fill="none" />
<polyline points="78.5,314.0,75.5,314.0,82.0,306.0,96.0,308.0,99.0,298.0,99.5,297.5,101.5,301.5" stroke="green" stroke-width="1" fill="none" />
<polyline points="99.5,315.5,104.0,304.0,106.5,306.5,97.5,307.5" stroke="orange" stroke-width="1" fill="none" />
<polyline points="109.0,287.0,103.0,287.5,103.0,289.5,104.0,288.5,103.0,284.5,97.0,286.0,108.0,288.5,111.0,292.5,109.0,288.0,114.5,290.0,108.0,290.0" stroke="orange" stroke-width="1" fill="none" />
<polyline points="108.5,293.5,101.0,292.5,111.5,290.0,110.0,286.5,107.0,286.0,105.0,290.5" stroke="black" stroke-width="1" fill="none" />
<polyline points="92.0,269.5,91.0,271.5" stroke="black" stroke-width="1" fill="none" />
<polyline points="110.5,297.0,116.5,295.5,111.0,287.5,111.0,306.0,103.0,305.0,99.0,311.0,96.0,323.0,100.5,311.5,98.0,332.0,100.0,343.5,90.0,330.5,99.5,346.0,92.5,343.0,95.0,338.5,103.5,342.5,109.5,326.5,115.0,333.5,117.5,322.0,124.5,304.0,110.0,306.5,127.0,295.0,133.0,298.0,127.0,314.5,130.5,311.5" stroke="green" stroke-width="1" fill="none" />
<polyline points="130.0,327.0,132.0,315.0,128.0,320.0,129.0,334.0,140.5,331.5" stroke="orange" stroke-width="1" fill="none" />
<polyline points="119.0,316.0,128.0,314.0,126.5,326.0,130.0,331.0,106.0,331.0,116.5,339.5,110.0,346.5,101.5,341.0,100.0,344.5,93.5,341.5,95.5,349.0,105.0,352.0,92.0,359.0,109.5,361.5,102.0,378.0,100.5,370.5,93.0,380.0,97.0,395.0" stroke="black" stroke-width="1" fill="none" />
<polyline points="80.5,405.5,72.0,414.0,64.0,407.0" stroke="yellow" stroke-width="1" fill="none" />
<polyline points="" stroke="orange" stroke-width="1" fill="none" />
<polyline points="126.0,301.0,127.5,301.5,118.0,307.0,113.0,313.5,102.5,323.5,112.0,306.0,102.5,303.0,115.5,304.5,117.0,296.0,121.5,292.0,126.0,290.5" stroke="black" stroke-width="1" fill="none" />
<polyline points="" stroke="green" stroke-width="1" fill="none" />
<polyline points="" stroke="orange" stroke-width="1" fill="none" />
<polyline points="138.0,237.0,134.5,246.5,135.5,250.5,150.0,245.0,146.5,242.5" stroke="green" stroke-width="1" fill="none" />
<polyline points="142.5,236.0,145.0,236.0,129.5,241.5,132.5,243.5" stroke="green" stroke-width="1" fill="none" />
<polyline points="143.5,236.0,130.0,222.0,141.5,228.5,134.0,222.0,142.5,220.0,144.0,219.5" stroke="black" stroke-width="1" fill="none" />
<polyline points="148.5,210.0,148.5,212.0,146.0,214.5,146.5,206.0,144.5,208.0" stroke="yellow" stroke-width="1" fill="none" />
<polyline points="144.5,206.5,152.0,211.0,147.0,209.0,144.5,206.0,143.5,207.0" stroke="orange" stroke-width="1" fill="none" />
<polyline points="137.0,191.0,132.5,183.0,138.5,197.5,135.0,188.5,150.0,181.0,140.0,175.0,139.0,187.0" stroke="yellow" stroke-width="1" fill="none" />
<polyline points="" stroke="green" stroke-width="1" fill="none" />
<polyline points="155.0,177.5,150.5,186.5,145.5,185.5,136.5,191.5,134.5,190.5" stroke="yellow" stroke-width="1" fill="none" />
<polyline points="" stroke="green" stroke-width="1" fill="none" />
<polyline points="162.0,192.0,141.0,209.0,148.5,217.0,139.5,211.5,147.0,205.0,145.0,204.5" stroke="green" stroke-width="1" fill="none" />
<polyline points="" stroke="yellow" stroke-width="1" fill="none" />
<polyline points="117.0,230.0,109.5,234.0,121.5,228.0,118.0,231.0,108.5,231.5,110.0,234.0" stroke="orange" stroke-width="1" fill="none" />
<polyline points="113.5,233.0,112.5,217.0,112.0,222.0,119.0,226.0,114.5,224.5" stroke="green" stroke-width="1" fill="none" />
<polyline points="117.0,248.5,121.0,252.5,123.0,257.5,105.5,266.0,116.0,257.5,116.0,257.5,127.0,254.5,128.0,254.0,127.5,242.5,138.0,239.5,142.0,237.0,150.5,232.5,162.0,229.0,157.0,223.5,160.0,225.5,154.0,227.5,154.5,232.5,157.0,233.5" stroke="green" stroke-width="1" fill="none" />
<polyline points="135.5,236.0,142.0,242.5,135.5,249.0,135.5,250.5,134.5,264.0,139.5,279.5,140.5,270.0,140.5,264.5,126.5,271.5,129.0,272.0,141.0,279.5,134.0,280.5,135.5,273.0,143.5,268.5,142.5,268.5" stroke="yellow" stroke-width="1" fill="none" />
<polyline points="148.5,256.0,156.0,251.0,152.0,244.0,158.0,247.0" stroke="orange" stroke-width="1" fill="none" />
<polyline points="169.5,224.0,172.5,228.0,163.0,238.5,173.5,220.0,174.5,222.0" stroke="yellow" stroke-width="1" fill="none" />
<polyline points="163.5,232.0" stroke="green" stroke-width="1" fill="none" />
<polyline points="169.0,225.0,161.5,229.0,162.5,233.0,161.0,240.5,162.0,252.0,161.0,246.5,142.5,250.0,157.5,246.5,161.0,254.0,151.5,263.0,149.5,270.0,125.0,265.0,135.5,275.0,126.5,283.0,125.5,281.5,131.0,287.0,132.5,296.5,123.5,301.5,129.5,302.5,124.0,319.5,128.5,311.5,120.0,322.5,110.5,329.5,124.0,335.0,119.0,334.5,115.0,340.5,118.5,331.0,113.0,329.5,123.0,347.5,135.5,350.5,141.5,348.0,133.5,359.5,139.5,354.0,135.0,357.0,145.0,371.0,139.0,368.5,147.5,367.0,137.0,376.0,144.0,374.5,138.0,392.5,143.0,389.0,150.5,405.0,148.5,387.0,143.0,391.0,144.5,394.5,152.5,409.0,143.5,408.0,150.5,409.0,149.5,410.0,160.5,411.0,167.0,418.0,164.0,419.5,165.5,419.0" stroke="orange" stroke-width="1" fill="none" />
<polyline points="" stroke="black" stroke-width="1" fill="none" />
<polyline points="" stroke="orange" stroke-width="1" fill="none" />
<polyline points="" stroke="orange" stroke-width="1" fill="none" />
<polyline points="198.0,426.0,198.0,429.0,192.0,429.0,191.0,429.5" stroke="green" stroke-width="1" fill="none" />
<polyline points="206.5,400.0,199.0,390.5,198.0,406.5,194.5,393.5,197.0,396.0" stroke="black" stroke-width="1" fill="none" />
<polyline points="185.5,393.5,188.5,402.5,188.0,402.0,192.0,406.5,186.5,419.5,179.5,414.5,189.5,415.0,193.0,427.0,186.0,433.0,193.0,430.5,180.0,426.5,186.0,434.5,180.0,439.5,191.5,447.0,189.0,440.0,198.5,454.5,201.0,451.0,199.0,455.0,201.5,447.0" stroke="black" stroke-width="1" fill="none" />
<polyline points="372.0,363.0,366.5,349.0,375.0,350.5,376.0,352.5,372.5,349.0,387.5,334.0,369.5,328.0,381.0,322.0,378.0,314.5,374.5,320.5,362.5,318.0,371.0,318.5,381.5,318.5,380.5,314.5" stroke="green" stroke-width="1" fill="none" />
<polyline points="374.5,280.5,381.0,276.0,388.5,282.0,383.0,283.0,391.5,281.0,392.5,271.5,383.5,273.5,383.0,264.5,386.5,263.5,389.0,261.0,388.5,262.0,386.5,260.0" stroke="black" stroke-width="1" fill="none" />
<polyline points="370.0,272.5,358.0,276.0,368.5,282.0,363.5,284.5,364.5,289.0,366.5,296.5,373.0,293.5,364.0,300.5,361.5,302.5,352.0,307.0,363.0,309.5,356.0,305.5" stroke="green" stroke-width="1" fill="none" />
<polyline points="339.0,279.0,345.5,287.5,336.0,280.5,323.5,283.0,321.5,263.5,315.5,262.0,308.5,277.0,326.0,268.5,328.0,269.5,321.5,274.0,319.0,277.0" stroke="yellow" stroke-width="1" fill="none" />
<polyline points="318.0,269.5,325.5,265.0,320.5,267.5,326.5,268.0" stroke="green" stroke-width="1" fill="none" />
<polyline points="338.0,275.5,331.5,276.0,321.5,267.5,322.5,263.0,330.5,261.0,335.5,254.5,331.0,254.5,338.0,262.0,339.5,255.0" stroke="yellow" stroke-width="1" fill="none" />
<polyline points="365.0,268.5,364.5,279.0,356.0,272.5,353.5,276.0" stroke="green" stroke-width="1" fill="none" />
<polyline points="291.5,232.5,285.5,233.5,284.0,229.0" stroke="green" stroke-width="1" fill="none" />
<polyline points="274.5,222.5,270.0,218.5,270.0,198.5,282.5,203.0,270.5,202.0,290.5,198.0,287.5,192.5,286.0,195.5,292.0,185.5,297.0,190.5,301.5,192.0,307.5,182.5,309.0,176.5,306.5,182.0,309.5,186.0,309.5,181.5,311.5,183.0,313.5,186.0" stroke="green" stroke-width="1" fill="none" />
<polyline points="315.0,174.0,300.0,175.0,298.5,177.5,296.5,185.5,300.0,183.0,292.5,192.5,286.5,193.0,278.5,200.0,278.0,200.0,270.0,204.0,267.0,206.5,262.0,210.0,270.5,214.0,268.0,224.5,247.5,223.5,255.0,227.0,249.5,231.0,247.0,235.0,246.5,250.0,232.0,242.5,238.0,251.5,237.5,263.0,228.0,265.5,218.0,259.0,213.5,283.0,204.0,287.0,213.0,293.0,203.5,301.5,193.0,307.0,206.0,326.5,195.5,319.5,200.5,311.0,195.5,314.5,202.5,308.5,197.0,296.0,196.5,297.5,204.0,293.0,213.0,279.0,212.5,291.5,208.5,286.5,217.5,270.5,220.0,281.0,222.5,268.5,221.5,265.5,225.0,268.0,219.5,254.5,231.5,259.5,237.0,248.5,231.5,241.0,236.5,244.0,243.5,236.5,250.5,227.0,257.0,224.5,245.0,228.5,262.0,222.5,259.5,218.0,251.5,203.5,266.5,220.0,263.5,199.0,266.5,198.0,264.5,200.5" stroke="yellow" stroke-width="1" fill="none" />
<polyline points="264.5,208.5,261.0,209.0" stroke="green" stroke-width="1" fill="none" />
<polyline points="" stroke="green" stroke-width="1" fill="none" />
<polyline points="208.0,198.5,217.5,179.5,215.0,182.0,226.0,183.0,218.0,181.5,227.0,173.5,230.5,179.0,230.5,182.0,232.0,181.0,234.5,182.0" stroke="yellow" stroke-width="1" fill="none" />
<polyline points="229.5,185.5,209.0,184.5,218.0,170.0,213.0,193.0,193.5,199.5,217.5,182.5,213.5,199.0,213.0,193.5,221.5,198.5,229.0,192.0,233.0,191.0,232.0,190.0,226.5,172.5,229.0,176.5,226.0,176.0" stroke="orange" stroke-width="1" fill="none" />
<polyline points="255.5,181.0,241.5,179.0,244.0,184.5,237.5,179.0,243.0,175.5,240.0,180.5,250.5,186.5" stroke="orange" stroke-width="1" fill="none" />
<polyline points="246.5,183.5,242.5,176.0,251.5,180.5,244.0,199.5,243.5,201.5,233.5,198.5,234.5,206.0,235.0,213.0,227.0,208.0,247.5,204.0,236.5,208.0,243.5,203.0,242.0,213.0,241.0,214.5,236.5,218.0,238.0,213.5" stroke="orange" stroke-width="1" fill="none" />
<polyline points="270.5,188.5,267.5,191.0,265.0,179.0,269.5,186.0,261.0,187.5,252.5,192.0,254.0,204.5,242.0,196.0,252.5,203.0,265.0,199.0,247.5,198.5,256.0,202.5,258.0,197.0" stroke="orange" stroke-width="1" fill="none" />
<polyline points="268.0,181.5,268.5,177.5,275.0,182.0,258.0,181.0,262.0,184.0,263.0,184.0,261.0,179.0,260.0,178.5" stroke="yellow" stroke-width="1" fill="none" />
<polyline points="252.5,180.5,242.5,196.5,244.5,197.5,249.0,202.5,249.0,190.5,249.5,195.5,242.5,193.0,250.0,182.5,258.0,189.0,261.5,181.0,257.5,184.0,270.0,186.0,265.5,185.0,262.5,185.0,262.5,183.5" stroke="orange" stroke-width="1" fill="none" />
<polyline points="260.0,182.5,272.5,181.0,269.5,179.0,272.0,190.0,275.0,181.0,285.5,180.5,287.5,175.5,297.5,181.0,291.0,174.0,285.0,187.0,284.0,194.5,280.5,190.5,265.5,199.5,281.5,191.0,278.5,194.0,265.5,193.5,267.0,202.0,284.5,189.5,271.5,197.0,283.5,185.5,290.5,182.5,286.5,186.0,293.0,182.5,298.0,171.5,305.5,172.0,302.0,175.5,317.5,173.5,317.0,162.0,328.5,171.5,325.5,161.0,337.5,162.5,331.5,157.0,330.0,156.0,332.5,154.5,339.5,155.0,340.0,144.5" stroke="green" stroke-width="1" fill="none" />
<polyline points="301.0,186.0,304.5,183.5,301.5,175.5,300.5,187.0,292.5,196.0,292.5,186.5,281.0,200.0,274.5,191.0,264.5,212.5,264.0,213.5,277.5,207.5,266.5,214.0,265.5,215.0,272.0,214.0,256.5,227.0,271.0,227.0,265.0,231.0,272.0,240.5,272.5,239.0,258.5,241.0,267.5,245.5,265.5,249.5" stroke="black" stroke-width="1" fill="none" />
<polyline points="265.5,187.5" stroke="orange" stroke-width="1" fill="none" />
<polyline points="268.0,166.0,264.5,166.5,268.0,164.0,256.5,161.0,261.5,164.0,247.5,166.5,246.0,157.5,255.0,165.5,251.5,162.5,248.5,164.5,249.5,156.0" stroke="yellow" stroke-width="1" fill="none" />
<polyline points="" stroke="yellow" stroke-width="1" fill="none" />
<polyline points="255.5,172.0,260.0,177.5,256.0,176.0,264.0,183.0,255.0,184.0,258.5,186.0,256.0,187.0" stroke="yellow" stroke-width="1" fill="none" />
<polyline points="256.0,138.5,258.0,130.0,250.0,135.5,260.0,135.0,253.5,147.5,248.5,130.5,250.5,143.5,250.0,140.0,248.0,143.5" stroke="green" stroke-width="1" fill="none" />
<polyline points="" stroke="orange" stroke-width="1" fill="none" />
<polyline points="211.5,148.5,217.5,151.5,217.0,158.0,220.5,158.5" stroke="black" stroke-width="1" fill="none" />
<polyline points="222.0,136.0,227.0,133.0,214.0,137.5,225.5,137.5,218.0,146.0,213.5,148.5" stroke="orange" stroke-width="1" fill="none" />
<polyline points="206.0,149.5,209.5,142.5" stroke="black" stroke-width="1" fill="none" />
<polyline points="190.0,170.5,189.5,164.0,199.0,161.0,214.0,151.0,194.5,159.0,193.0,152.5,189.5,155.5,187.5,152.0,185.5,152.0" stroke="black" stroke-width="1" fill="none" />
<polyline points="200.0,167.5,203.5,165.0,200.0,162.0,194.5,178.5,196.5,179.5,185.5,172.5,184.5,181.0,177.5,182.0,169.5,188.0,175.5,193.5,168.5,192.5,169.0,204.0,157.0,202.5,169.0,196.5,173.5,195.0,179.0,195.5,178.5,177.5,193.5,184.5,185.5,172.0,195.5,166.0,202.0,171.0,202.0,155.5" stroke="green" stroke-width="1" fill="none" />
<polyline points="208.5,186.0,198.5,181.0,212.5,202.0,203.5,195.0,207.5,197.0,194.0,199.0,193.0,201.0,192.0,201.0" stroke="black" stroke-width="1" fill="none" />
<polyline points="" stroke="yellow" stroke-width="1" fill="none" />
<polyline points="203.5,128.0,220.0,121.0,217.0,130.5,219.5,125.5,222.5,127.5,223.5,122.5,228.5,119.5" stroke="green" stroke-width="1" fill="none" />
<polyline points="204.0,147.0,207.5,143.5,204.0,136.5,220.5,125.5,215.0,132.0,221.5,117.5,231.5,111.0,235.5,119.5,243.0,125.5,233.0,119.5,232.5,118.0" stroke="orange" stroke-width="1" fill="none" />
<polyline points="230.0,111.5,230.0,136.0,226.5,127.5,196.5,150.5,197.0,146.0,201.0,151.0,201.5,139.5,195.5,154.5,184.0,158.5,196.0,164.0,171.0,167.5,172.0,167.5,161.0,170.5,159.5,177.5,169.5,179.5,154.5,193.0,151.5,186.0,153.5,189.5,154.0,196.5,146.5,200.0,150.0,202.5,145.5,208.0,150.0,212.5,150.5,212.5,149.0,223.5,136.0,221.5,144.0,225.0,143.5,241.0,141.0,240.0,137.0,244.0,132.0,239.0,127.5,243.0,130.5,255.5,130.5,258.5,132.5,256.0,131.5,264.0,129.0,256.5" stroke="orange" stroke-width="1" fill="none" />
<polyline points="" stroke="yellow" stroke-width="1" fill="none" />
<polyline points="" stroke="black" stroke-width="1" fill="none" />
<polyline points="153.0,126.0,160.5,127.5,157.5,117.0,158.5,121.0,163.5,116.0,154.0,125.5,159.0,127.0,156.5,128.5" stroke="green" stroke-width="1" fill="none" />
<polyline points="178.5,137.0,179.5,138.5,187.5,119.0,189.5,113.0,179.5,130.5,185.0,130.0,184.5,126.0,192.5,124.5" stroke="black" stroke-width="1" fill="none" />
<polyline points="193.0,128.5,155.5,125.0,163.5,127.0,167.5,131.5,189.5,122.0,188.0,121.0,185.5,125.5,184.0,114.0,194.5,121.0,197.0,115.0,198.0,118.0" stroke="green" stroke-width="1" fill="none" />
<polyline points="" stroke="green" stroke-width="1" fill="none" />
<polyline points="" stroke="orange" stroke-width="1" fill="none" />
<polyline points="204.5,110.5,203.0,106.5,205.0,105.5,211.0,102.0,215.5,100.5" stroke="green" stroke-width="1" fill="none" />
<polyline points="228.5,126.5,227.5,129.5,217.5,120.0,221.0,136.0,216.5,139.0,208.5,144.5,204.0,128.0,190.5,151.5,201.0,153.5,198.0,151.5,206.5,151.5,212.0,141.5,214.5,138.0,215.0,134.0" stroke="black" stroke-width="1" fill="none" />
<polyline points="255.5,130.5,253.0,155.0,260.0,140.5,234.5,156.0,239.5,153.5,241.0,141.0,234.5,147.5,229.5,147.0,221.5,162.5,228.5,150.5,234.0,152.0,242.5,136.5,247.5,139.0,254.0,132.5,264.0,127.5,258.0,129.0,269.0,122.5,270.0,114.5,268.0,116.0,268.5,115.5" stroke="yellow" stroke-width="1" fill="none" />
<polyline points="288.5,150.5,289.5,154.5,293.5,150.5,292.0,145.5" stroke="yellow" stroke-width="1" fill="none" />
<polyline points="298.0,142.0,293.0,137.5,300.5,140.0,304.5,147.0,300.5,145.0,301.0,142.5" stroke="yellow" stroke-width="1" fill="none" />
<polyline points="296.0,182.5,298.5,188.0,284.5,188.5,293.5,196.0,285.5,203.5,283.0,207.0,273.0,201.5,274.5,207.5,268.5,212.0,260.0,218.0,261.5,215.5" stroke="yellow" stroke-width="1" fill="none" />
<polyline points="236.5,105.5,227.0,101.5,229.5,100.5,231.0,107.5,226.0,98.0,233.5,94.0,239.0,98.0,243.0,96.0,239.0,92.5" stroke="green" stroke-width="1" fill="none" />
<polyline points="" stroke="black" stroke-width="1" fill="none" />
<polyline points="249.5,94.5,246.5,96.0,248.5,97.0,245.5,87.5,239.5,92.5,242.0,91.0" stroke="orange" stroke-width="1" fill="none" />
<polyline points="259.0,85.0,254.0,88.5,256.0,86.0,255.0,95.0,253.5,97.5,239.0,100.0,237.0,108.0,233.0,103.0,228.0,102.5,237.0,116.5,217.5,119.0,221.0,114.5,227.0,117.5,215.0,111.0,208.0,131.5,202.5,132.0,202.0,134.0,198.5,129.0,183.0,146.5,184.0,146.5,173.5,151.5,179.0,148.0,182.5,151.0,174.5,164.5,169.5,161.0,174.0,163.0,155.5,165.0,166.0,167.0,155.0,172.0,162.5,170.0,171.5,168.5,169.5,160.0,182.0,152.0,180.0,148.5,187.5,135.5,197.5,141.5,193.5,130.5,213.5,144.0,215.5,125.5,217.0,128.0,217.0,125.0,215.5,105.0,223.0,109.0,233.0,101.0,234.5,115.5,239.5,98.0,249.0,95.5,256.0,89.0,268.0,85.5" stroke="green" stroke-width="1" fill="none" />
<polyline points="230.5,91.5,231.5,90.5,237.0,89.0,247.0,93.5,234.5,83.0,246.0,83.0,244.0,83.5" stroke="green" stroke-width="1" fill="none" />
<polyline points="" stroke="black" stroke-width="1" fill="none" />
<polyline points="249.0,47.5,249.0,58.5,247.5,51.0,253.0,57.5,252.0,61.5,265.0,52.5,277.5,56.5,271.5,60.0,269.0,71.5,277.0,68.0,280.0,67.0,284.5,76.0,278.0,71.0,296.5,76.0,291.5,76.0,296.5,88.0,307.0,93.0,307.0,101.0,319.5,100.0,315.0,94.0,335.5,116.5,318.0,118.5,339.5,130.0,333.5,122.0,333.5,128.5,338.0,129.5,356.0,143.5,353.5,140.0,356.5,150.5,353.0,149.0,355.5,141.5,370.5,143.0,372.5,142.5,368.0,133.5,382.0,134.5,383.0,133.0,389.5,137.5,401.5,118.5,394.5,116.5,400.0,116.5,398.5,110.0,413.5,104.0,406.0,113.0,419.0,127.5,412.5,105.5,409.5,114.0,409.5,121.0" stroke="orange" stroke-width="1" fill="none" />
<polyline points="407.5,116.5,410.0,119.0,407.0,131.0,402.0,137.5,410.5,134.5,420.5,131.0,422.5,139.0,424.5,144.0,420.5,152.5,403.5,148.5,417.5,152.0,414.5,163.5,403.5,165.5,411.0,180.5,403.0,179.0,414.0,180.5,399.0,181.0,402.0,177.0,405.5,180.5,396.5,188.5,391.5,186.0,393.5,198.0,369.5,200.5,381.0,205.5,372.5,211.5,367.5,199.5,364.0,218.5,364.0,205.0,366.5,208.5,370.5,206.0,384.5,212.5,384.5,207.0,389.5,201.0,392.0,191.0,390.5,189.5,400.0,185.0,394.0,184.5,404.5,172.5,405.5,173.5,409.5,177.5" stroke="yellow" stroke-width="1" fill="none" />
<polyline points="372.0,123.5,368.5,124.5,362.0,126.0,373.0,124.5,365.5,123.0,369.5,117.5" stroke="yellow" stroke-width="1" fill="none" />
<polyline points="384.5,100.0,386.5,102.5,387.0,110.0,387.5,113.5" stroke="black" stroke-width="1" fill="none" />
<polyline points="383.0,115.5,393.0,100.5,388.0,99.0" stroke="black" stroke-width="1" fill="none" />
<polyline points="422.5,44.5,422.5,47.5,408.5,23.5,420.0,26.0,419.0,19.0,412.0,22.0,410.5,14.5,410.0,16.0" stroke="black" stroke-width="1" fill="none" />
<polyline points="510.0,70.5,514.5,79.0,506.5,80.0,504.5,85.0,501.5,86.5,494.0,96.0,483.5,106.0,479.0,107.0,490.5,113.5,483.0,105.0,469.0,116.5,481.5,122.5,476.0,124.5,470.0,126.5,467.5,134.5,466.5,136.0,468.0,140.5,467.5,154.0,456.5,153.0,458.5,156.0,455.5,159.0,445.5,166.5,451.0,168.0,442.0,170.5,444.0,167.5,444.0,172.5,424.5,190.0,434.0,194.5,432.0,186.0,433.0,201.5,428.5,204.0,433.5,208.0,427.5,202.5,420.5,200.5,419.5,208.5,417.0,218.5,418.5,224.0,426.5,230.0,419.0,239.0,416.5,229.5,416.5,239.5,414.0,250.0,400.5,240.0,413.0,247.5,420.0,259.5,398.0,261.0,402.5,262.0,410.5,274.0,404.0,273.5,405.5,278.0,398.5,282.0,403.5,281.5,393.0,292.5,396.5,291.5,408.5,296.5,402.0,307.5,391.0,297.0,392.5,309.5,394.0,303.0,398.5,310.5,393.5,317.0,394.5,315.0,388.5,332.5,391.0,330.0,383.5,340.0,392.5,331.0,394.5,335.5,390.0,335.0,388.5,334.5,390.5,337.0" stroke="green" stroke-width="1" fill="none" />
<polyline points="343.5,138.5,341.5,130.0,332.5,135.0,339.0,129.5,338.0,126.0,332.5,120.0,335.0,114.5,322.0,113.0,338.5,101.0,318.0,96.5,313.5,92.5,304.0,90.0,308.0,98.0,305.5,91.0,298.0,80.0,288.5,72.5,293.5,79.0,303.0,74.0,287.0,65.5,275.0,76.0,275.0,61.0,258.0,54.0,268.5,46.0,265.5,50.0,265.5,50.5" stroke="black" stroke-width="1" fill="none" />
<polyline points="" stroke="black" stroke-width="1" fill="none" />
<polyline points="179.0,63.0,160.0,71.5,158.5,63.0,161.5,66.5" stroke="yellow" stroke-width="1" fill="none" />
<polyline points="158.0,75.5,150.0,67.0,147.5,84.5,158.0,76.0,166.5,67.0,164.5,80.5,159.0,70.0,165.0,68.5" stroke="orange" stroke-width="1" fill="none" />
<polyline points="" stroke="black" stroke-width="1" fill="none" />
</svg>