<svg xmlns="http://www.w3.org/2000/svg" width="1024" height="1024" version="1.1" fill="white"><polyline points="407.5,6.0,406.0,9.0,405.0,16.5,407.0,18.5,411.5,27.0,417.0,26.5,425.5,32.5,420.5,32.5,424.0,38.5,429.0,41.0,428.0,48.5,432.5,50.5,432.0,55.0,434.0,58.5,434.0,62.5,438.5,71.0,444.0,71.5,435.5,67.0" stroke="black" stroke-width="1" fill="none" />
<polyline points="456.0,58.0,453.0,51.5,448.5,46.0,443.5,38.0,443.0,35.5,436.5,25.0,432.5,19.0,432.5,7.5" stroke="yellow" stroke-width="1" fill="none" />
<polyline points="420.5,5.5,427.5,4.0,426.0,5.5,428.5,10.0,430.5,16.5,434.0,17.5,432.0,19.0,437.0,24.5,444.0,30.5,439.5,35.0,447.0,37.5,452.0,40.5,450.0,42.0,452.0,47.5,453.5,54.0,455.0,58.0,459.5,62.0,453.0,66.0,456.0,72.5,447.0,73.5,443.0,78.0,439.5,83.0,437.5,86.0,432.0,89.0,431.5,94.5,428.5,96.0,428.0,99.0,425.5,106.0,421.0,106.5,418.5,111.5,421.0,111.5,424.5,107.0,427.0,98.5,432.5,91.5,435.5,87.5,438.5,83.5,443.5,77.5,445.0,74.0,449.0,67.5,453.5,65.0,461.0,53.0,466.0,54.5,468.5,50.0,470.5,43.0,481.5,45.0,480.0,40.0,488.0,28.0,491.5,25.5,491.5,27.0,496.0,17.5,504.0,13.5,507.5,7.5,510.5,7.5" stroke="orange" stroke-width="1" fill="none" />
<polyline points="508.5,4.5,508.5,12.5,504.0,17.0,498.5,20.0,497.5,23.5,492.5,24.0,485.0,30.0,483.5,34.5,481.5,39.0,473.0,43.0,473.0,45.0,465.0,51.0,461.5,53.0,458.0,56.5" stroke="black" stroke-width="1" fill="none" />
<polyline points="507.0,76.5,509.5,83.0,503.5,77.5,501.0,88.0,500.0,91.0,497.0,95.5,490.5,96.0,484.0,106.0,481.0,104.0,478.0,113.5,470.0,111.0,472.5,122.0,468.5,128.0,459.5,134.5,460.0,143.0" stroke="black" stroke-width="1" fill="none" />
<polyline points="449.5,160.5,446.5,166.0,439.5,173.0,440.0,170.5" stroke="orange" stroke-width="1" fill="none" />
<polyline points="436.0,176.0,444.5,180.5,433.0,182.0,435.5,186.0,435.0,187.0" stroke="orange" stroke-width="1" fill="none" />
<polyline points="434.5,190.5,425.0,200.5,427.5,212.5,425.5,215.0,422.0,221.0" stroke="black" stroke-width="1" fill="none" />
<polyline points="416.0,232.5,416.0,242.0,415.0,248.0" stroke="black" stroke-width="1" fill="none" />
<polyline points="399.5,279.5,398.5,286.0,401.5,287.0" stroke="green" stroke-width="1" fill="none" />
<polyline points="386.5,299.0,375.5,284.5,378.0,284.0,383.5,284.5,389.5,277.0" stroke="black" stroke-width="1" fill="none" />
<polyline points="376.0,267.5,374.5,265.0,375.0,261.5,376.5,259.0,374.5,254.5,373.0,257.0,372.5,246.5,370.5,243.0,372.0,236.0,372.0,234.0,370.0,232.0,374.5,227.5,374.0,227.0,376.0,226.5,370.5,215.0,370.0,220.5" stroke="black" stroke-width="1" fill="none" />
<polyline points="377.5,239.5,377.5,242.0,374.0,240.5,376.5,240.5" stroke="green" stroke-width="1" fill="none" />
<polyline points="367.5,247.5,371.0,255.0,366.0,252.5,372.0,257.5,372.5,265.5,373.0,269.0,370.0,267.5,371.0,273.0,370.5,273.5,369.0,276.5" stroke="black" stroke-width="1" fill="none" />
<polyline points="376.5,276.5,373.5,280.5,377.5,284.5,373.0,294.5,381.0,293.5,378.5,295.5,378.0,300.5,376.5,303.5,377.0,309.0,375.0,309.0,381.0,315.0,384.0,318.5,379.0,324.0,382.0,329.5,380.0,334.5,382.0,339.0,383.5,338.5,384.5,346.0" stroke="black" stroke-width="1" fill="none" />
<polyline points="369.5,354.5,365.5,353.5,367.5,355.5,372.5,361.0,374.5,364.5,373.0,369.0,370.0,373.0,372.5,373.0" stroke="yellow" stroke-width="1" fill="none" />
<polyline points="372.0,376.0,373.5,377.5" stroke="black" stroke-width="1" fill="none" />
<polyline points="382.0,387.0,380.5,389.5,380.5,390.5,379.5,396.0,384.5,403.0" stroke="yellow" stroke-width="1" fill="none" />
<polyline points="363.0,430.5,360.0,424.0,356.5,419.0,352.0,412.5,349.5,407.5,344.5,405.0,339.0,402.0,338.0,398.5,331.0,403.0,333.0,400.5,321.5,397.0,319.5,388.5,316.5,393.0,310.0,390.0,309.5,391.5,303.5,387.0,301.5,385.5,300.5,392.5" stroke="orange" stroke-width="1" fill="none" />
<polyline points="312.0,382.5,316.0,378.5,321.0,370.0,321.0,363.0,328.5,353.0,334.0,347.5,337.5,341.5,344.0,333.5" stroke="black" stroke-width="1" fill="none" />
<polyline points="356.5,328.5,352.5,330.0,355.0,332.5,355.5,336.0,354.0,341.0,356.5,337.5" stroke="black" stroke-width="1" fill="none" />
<polyline points="357.5,351.0,355.0,362.0,355.0,364.0,353.5,366.5,356.5,374.5,352.5,378.5,352.0,378.0,356.0,391.5,356.5,389.5,350.5,391.0,351.0,400.5,351.5,402.0,351.0,404.5,351.5,407.0,351.5,413.0,352.5,411.5,350.0,413.5" stroke="orange" stroke-width="1" fill="none" />
<polyline points="360.5,388.0,359.0,382.5,358.5,376.5,360.5,371.0,357.0,370.0,360.0,364.5" stroke="yellow" stroke-width="1" fill="none" />
<polyline points="359.0,360.5,362.5,361.0,362.0,367.5,356.0,376.0,359.5,377.5,357.0,379.0" stroke="black" stroke-width="1" fill="none" />
<polyline points="357.0,355.5,354.0,359.0,354.0,366.5,355.0,366.0,356.0,371.5,354.5,373.0,355.5,378.0,353.0,383.0,352.0,390.0,352.0,391.5,356.0,397.0,359.0,397.0,355.0,405.0,353.0,405.5,359.0,409.5,355.0,412.5" stroke="yellow" stroke-width="1" fill="none" />
<polyline points="372.0,466.5,373.0,462.0,372.5,459.0,375.0,454.5,372.0,447.0,372.0,445.5,374.0,440.5,374.0,438.5,374.5,430.0,374.0,432.0,376.5,426.5,374.5,424.5,376.5,418.0,375.5,410.0,376.5,408.0,377.0,404.5,374.5,402.5,379.0,398.0,377.5,392.0,377.5,390.5,375.5,384.5,381.0,378.0,376.5,374.0,373.5,369.5,375.5,365.5,380.5,369.0,381.5,359.0,377.5,358.0,381.0,350.0,376.5,345.5,376.5,344.5,376.0,340.5,375.5,337.0,374.5,332.0,375.5,329.5,374.0,327.5,373.5,322.5,374.5,317.5,372.0,313.5,373.0,309.5,373.0,305.5,372.5,303.0,375.0,298.5,370.5,290.0,369.0,288.0,368.5,280.5,369.5,280.5,369.0,276.0,368.5,269.5,366.5,270.0,369.0,264.5,370.5,260.0,369.0,256.5,366.5,250.0,367.0,248.5,365.0,243.5,368.5,237.5,365.5,233.5,362.5,233.5,363.5,228.0,362.0,224.0,358.0,219.5,356.5,218.0,357.5,210.5,357.5,206.0,354.5,206.0,348.5,199.0,351.5,199.0,346.5,195.5" stroke="yellow" stroke-width="1" fill="none" />
<polyline points="" stroke="black" stroke-width="1" fill="none" />
<polyline points="347.5,202.5,353.5,206.5,351.0,206.0" stroke="yellow" stroke-width="1" fill="none" />
<polyline points="358.0,194.5,354.0,194.5" stroke="black" stroke-width="1" fill="none" />
<polyline points="359.0,192.5,359.0,196.0,359.0,203.0,360.5,204.0,357.0,201.5" stroke="orange" stroke-width="1" fill="none" />
<polyline points="354.5,206.5,351.5,201.0" stroke="black" stroke-width="1" fill="none" />
<polyline points="348.5,198.5,352.0,204.0" stroke="yellow" stroke-width="1" fill="none" />
<polyline points="347.5,207.5,342.5,200.5,338.0,202.0" stroke="black" stroke-width="1" fill="none" />
<polyline points="346.0,211.5,355.5,211.5,357.5,217.5,354.5,226.0,358.5,228.0,362.0,232.5,362.5,239.0,363.0,241.0,364.5,245.5,366.0,251.5" stroke="black" stroke-width="1" fill="none" />
<polyline points="364.5,249.0,364.0,245.0,365.0,244.0,365.0,246.5" stroke="black" stroke-width="1" fill="none" />
<polyline points="349.0,240.0,352.0,245.0,339.0,247.0,341.0,253.5" stroke="black" stroke-width="1" fill="none" />
<polyline points="346.0,252.5,338.0,254.0,335.5,256.0,329.5,257.5,331.5,257.0,329.0,256.0" stroke="black" stroke-width="1" fill="none" />
<polyline points="330.0,255.0,336.5,248.0,338.5,247.5,342.0,246.5,348.0,247.0,350.0,243.0" stroke="black" stroke-width="1" fill="none" />
<polyline points="349.0,251.5,350.5,256.5,344.5,260.5" stroke="black" stroke-width="1" fill="none" />
<polyline points="336.0,261.5,339.0,266.5,340.5,269.0,343.0,272.0,340.0,282.5" stroke="orange" stroke-width="1" fill="none" />
<polyline points="342.5,282.5,344.5,279.0,351.5,277.5,349.5,283.0,351.0,286.0,351.0,289.5,348.5,294.5,350.0,300.0,350.0,304.0,348.0,308.5,343.0,312.5,346.5,312.5,342.0,319.5,341.5,320.0,345.0,324.5,338.5,326.5,337.0,332.5,336.0,339.0,336.0,338.5,330.0,343.0,329.5,353.0,329.5,350.0,325.5,356.0,323.5,360.0,321.0,364.0,321.5,369.5,319.5,374.0,316.0,376.5,314.5,380.5,316.5,384.5,314.5,388.5,320.5,390.0,329.0,396.5,338.0,402.5,342.0,404.5,344.5,412.5,350.5,412.5,352.0,416.5,358.5,421.5,361.0,427.0,360.0,430.0,362.0,433.5,365.0,435.0,364.5,440.5,364.5,445.5,368.0,449.0,368.5,453.5,369.0,459.5,371.5,462.5,368.5,468.5,373.5,472.0,370.0,476.0,375.0,478.5,375.0,481.0,379.0,485.0,381.5,487.0,382.0,492.0,384.0,496.0,380.5,499.0,379.5,504.0,387.5,510.5,388.0,512.0,389.0,516.0" stroke="black" stroke-width="1" fill="none" />
<polyline points="422.5,491.0,427.5,490.0,430.0,482.0,435.5,483.5,441.5,483.0,444.5,477.5,449.0,474.5,449.5,466.0,458.0,466.0" stroke="black" stroke-width="1" fill="none" />
<polyline points="457.5,472.0,454.0,476.5,447.5,468.0,456.0,468.0,457.5,466.0" stroke="orange" stroke-width="1" fill="none" />
<polyline points="452.0,449.5,462.5,442.0" stroke="black" stroke-width="1" fill="none" />
<polyline points="470.0,423.0,475.0,413.0,477.0,411.5,480.0,405.0,485.0,404.0,492.0,396.5,494.5,397.0,494.5,392.5,500.0,390.0,504.5,388.5,504.5,385.0,511.5,381.5,511.5,380.5" stroke="black" stroke-width="1" fill="none" />
<polyline points="512.5,382.0,501.5,385.5,493.5,389.5,489.5,396.0,484.5,404.0,482.5,404.0,476.0,409.0,475.5,412.0,473.0,418.5,472.0,422.0,470.0,420.5,468.0,428.0,465.5,430.5,460.0,434.0,460.5,437.5,456.0,441.5,459.0,445.5,456.5,452.0,456.0,456.0,454.0,455.5,454.5,460.5,451.0,465.5,446.0,476.5,449.5,475.0,445.0,482.0,442.5,484.5" stroke="green" stroke-width="1" fill="none" />
<polyline points="437.0,479.5,429.5,476.5,435.0,478.0,435.0,478.5,436.0,476.5,435.5,468.5,438.0,468.0,438.5,463.5,438.0,458.0,439.5,456.5,437.0,453.0" stroke="orange" stroke-width="1" fill="none" />
<polyline points="434.5,456.0,430.5,449.0,427.5,452.5,432.5,442.5,436.0,437.5,439.0,436.5,437.5,428.0,430.5,433.5,430.0,434.5,431.5,429.5" stroke="yellow" stroke-width="1" fill="none" />
<polyline points="429.0,467.0,428.5,469.5,420.5,478.0,422.5,476.5,420.5,484.5,424.0,491.0" stroke="orange" stroke-width="1" fill="none" />
<polyline points="417.0,471.0,417.5,474.0,423.0,477.0,424.5,472.5,431.0,465.0,430.0,463.5,435.5,458.5" stroke="black" stroke-width="1" fill="none" />
<polyline points="481.5,413.5,483.5,409.5,481.0,415.0,480.5,417.0,483.0,416.0,483.5,408.0,485.5,404.0" stroke="black" stroke-width="1" fill="none" />
<polyline points="446.5,419.0,444.5,425.5,446.5,426.0,447.5,421.5,448.5,414.5,447.5,409.5,447.0,412.5,451.0,403.0,453.5,398.5,452.5,395.0,451.5,391.0,454.0,385.0,453.0,381.0,451.0,378.5,453.0,377.5,455.5,372.5,453.0,366.5" stroke="black" stroke-width="1" fill="none" />
<polyline points="386.0,342.5,387.0,338.5,385.5,334.5,383.5,326.5" stroke="black" stroke-width="1" fill="none" />
<polyline points="366.0,353.5,368.0,358.5,368.5,360.0,368.5,365.0,368.0,364.5,365.0,377.5,366.5,382.5,364.5,383.5,371.0,385.5,371.0,386.0,373.5,388.0" stroke="black" stroke-width="1" fill="none" />
<polyline points="318.5,343.5,319.0,342.0" stroke="black" stroke-width="1" fill="none" />
<polyline points="315.0,349.5,311.0,350.5" stroke="black" stroke-width="1" fill="none" />
<polyline points="309.0,352.0,301.5,354.0,298.0,357.0,298.5,354.0,293.5,352.5" stroke="black" stroke-width="1" fill="none" />
<polyline points="294.5,356.5,294.5,356.0,303.5,361.5,306.0,361.0,311.0,358.5,307.5,360.5,304.5,366.5,307.0,365.0,303.0,367.5" stroke="black" stroke-width="1" fill="none" />
<polyline points="312.5,346.5,309.0,347.5,304.5,348.5,300.0,348.0,298.5,350.5,290.0,350.5,293.0,350.0" stroke="black" stroke-width="1" fill="none" />
<polyline points="306.0,333.5,306.5,325.5,312.0,328.0,314.0,326.0,307.5,329.5,305.5,332.5,305.5,334.5,308.5,332.5" stroke="orange" stroke-width="1" fill="none" />
<polyline points="310.0,328.5,301.5,331.0,299.5,324.5" stroke="black" stroke-width="1" fill="none" />
<polyline points="291.0,326.0,301.0,322.5,301.0,323.5,295.5,318.5,295.5,317.0" stroke="black" stroke-width="1" fill="none" />
<polyline points="320.5,331.0,323.0,325.5,323.5,320.0,323.0,319.5,321.0,313.0,321.5,309.5,321.5,307.0" stroke="yellow" stroke-width="1" fill="none" />
<polyline points="" stroke="orange" stroke-width="1" fill="none" />
<polyline points="333.5,271.5,336.0,273.5,333.0,274.0,332.0,270.0,329.0,265.5" stroke="green" stroke-width="1" fill="none" />
<polyline points="327.0,269.5,330.5,273.0,327.5,271.5,329.5,273.5,333.0,268.5,331.0,270.5,326.5,266.0,327.5,265.5" stroke="green" stroke-width="1" fill="none" />
<polyline points="325.0,272.5,323.5,272.5" stroke="black" stroke-width="1" fill="none" />
<polyline points="320.0,278.0" stroke="orange" stroke-width="1" fill="none" />
<polyline points="320.0,266.0,325.5,262.0,330.5,262.5,332.0,261.5,336.5,260.5,339.5,254.5,343.5,259.5,352.0,252.0,352.5,251.5" stroke="black" stroke-width="1" fill="none" />
<polyline points="348.5,239.5,348.5,234.5,346.0,234.5,345.0,226.5,345.5,224.5,342.0,220.5,344.5,216.0,341.5,214.5" stroke="yellow" stroke-width="1" fill="none" />
<polyline points="333.5,207.0,338.5,206.5,342.0,196.5,345.5,201.0,351.0,199.5,356.0,196.5,360.5,195.0,360.0,191.0,367.0,188.0,370.5,183.5,375.0,183.5,378.5,181.0,377.5,188.5,385.5,179.5,390.5,182.0,394.0,172.5,400.5,170.5,403.0,176.5,404.0,169.0,403.0,172.5,402.5,177.5,396.0,184.5,393.5,184.5,385.0,191.5,382.0,190.5,384.5,189.0,391.5,188.5,394.0,181.5,396.0,177.5,402.0,176.0,400.5,177.5" stroke="black" stroke-width="1" fill="none" />
<polyline points="406.5,166.5,406.0,156.0,404.0,159.5,407.5,164.0,398.5,170.5,390.0,177.0,381.5,178.5" stroke="yellow" stroke-width="1" fill="none" />
<polyline points="373.5,182.0,364.5,187.0,357.0,189.5,346.5,190.5,342.5,196.0,335.5,200.0,337.5,205.5,341.5,207.0,347.0,210.5,352.0,213.0" stroke="green" stroke-width="1" fill="none" />
<polyline points="337.0,211.0,339.0,210.5,344.5,206.5,337.5,211.0" stroke="black" stroke-width="1" fill="none" />
<polyline points="338.0,207.5" stroke="black" stroke-width="1" fill="none" />
<polyline points="341.0,205.5,347.5,209.0,351.5,214.5,353.5,218.0" stroke="orange" stroke-width="1" fill="none" />
<polyline points="355.0,206.0,351.0,204.5,347.5,205.0,345.0,203.0,338.5,204.0" stroke="black" stroke-width="1" fill="none" />
<polyline points="343.0,204.5,348.0,205.5,351.5,210.5" stroke="black" stroke-width="1" fill="none" />
<polyline points="349.5,198.5,346.5,191.5" stroke="orange" stroke-width="1" fill="none" />
<polyline points="344.0,195.5,346.0,198.5,344.5,204.0,350.5,204.5,355.5,202.5" stroke="yellow" stroke-width="1" fill="none" />
<polyline points="364.0,193.0" stroke="black" stroke-width="1" fill="none" />
<polyline points="368.0,198.0,371.0,197.0,371.0,189.5,376.0,184.5" stroke="green" stroke-width="1" fill="none" />
<polyline points="396.5,154.0,391.0,157.0,392.5,161.0,383.5,166.5,387.0,169.5,383.0,175.5,379.0,174.5,385.0,172.5,385.5,166.5,393.5,156.0" stroke="black" stroke-width="1" fill="none" />
<polyline points="408.5,157.5,399.0,159.5,398.0,168.5,391.0,171.0,392.0,175.5,388.5,174.5,393.0,170.5,396.0,166.0,401.0,161.0,402.5,161.0" stroke="black" stroke-width="1" fill="none" />
<polyline points="398.5,123.5,394.5,128.0,389.0,131.0,386.0,137.0,385.5,134.5,386.5,132.5,392.5,124.0" stroke="green" stroke-width="1" fill="none" />
<polyline points="402.0,114.5,390.5,126.5,388.0,127.5,383.5,129.5,385.5,132.0,381.5,129.0,395.5,118.5,399.0,117.0" stroke="green" stroke-width="1" fill="none" />
<polyline points="399.5,112.5,394.5,118.5,388.0,123.5,383.5,125.5,376.5,130.0,371.5,134.0,367.0,140.5,355.5,143.5,351.5,141.5,349.5,142.5" stroke="yellow" stroke-width="1" fill="none" />
<polyline points="333.0,157.5,324.0,160.5,319.5,162.5,312.5,168.5,309.5,174.0,301.0,176.0,297.5,179.0,301.5,180.0" stroke="yellow" stroke-width="1" fill="none" />
<polyline points="287.0,176.0,285.5,177.0" stroke="black" stroke-width="1" fill="none" />
<polyline points="280.0,172.5,279.0,176.5,282.5,175.5" stroke="orange" stroke-width="1" fill="none" />
<polyline points="288.5,184.0,287.0,179.5,282.0,176.5,280.0,181.0" stroke="black" stroke-width="1" fill="none" />
<polyline points="272.0,173.5,274.5,179.5,282.5,178.0,276.5,174.0,275.0,173.0" stroke="black" stroke-width="1" fill="none" />
<polyline points="271.0,181.5,262.0,179.5,261.0,176.5,255.0,176.5,255.0,177.0,246.5,169.5,243.0,170.5,243.0,167.0" stroke="black" stroke-width="1" fill="none" />
<polyline points="244.0,170.0,243.0,169.5,248.5,171.0,248.0,175.0,255.0,169.0,250.0,175.0,260.5,181.0,248.0,184.5,248.0,188.5,243.5,192.5,242.0,192.5,238.0,198.0,237.5,201.5,236.5,207.0,241.5,206.0,245.0,212.5,248.5,210.5,252.0,216.0,256.5,204.0,255.5,209.0,252.0,210.5,249.5,214.0,250.0,218.5,250.5,225.0,245.0,226.5,244.5,233.5,239.5,231.5,237.0,235.5,236.0,246.5,229.5,250.0,227.5,253.0,224.5,256.5,221.0,258.5,219.0,264.5,217.0,267.0,215.0,276.5,214.5,276.5,208.5,281.5,204.5,285.5,204.0,290.5,206.5,295.5,202.0,300.5,194.0,299.0,194.0,305.0,200.5,307.0,194.5,310.5,193.5,317.5,190.0,315.5,185.0,324.0,182.0,324.5,180.0,329.5,172.5,336.0,170.5,335.0,165.5,339.5,166.5,347.0" stroke="black" stroke-width="1" fill="none" />
<polyline points="158.0,345.5,153.5,351.0,157.5,356.5,158.0,356.5,156.5,359.0,156.5,367.0,154.5,367.5,159.5,378.5,158.0,372.0,156.5,381.0,154.0,384.5,154.5,388.0,155.0,391.5,150.0,391.5,160.0,401.5,162.0,406.0,166.5,408.5,166.5,411.5" stroke="orange" stroke-width="1" fill="none" />
<polyline points="167.5,412.5,163.0,407.5,160.0,410.5" stroke="black" stroke-width="1" fill="none" />
<polyline points="166.5,409.0,170.0,409.5,170.0,416.0,168.5,423.0,167.0,424.5,172.5,426.5" stroke="black" stroke-width="1" fill="none" />
<polyline points="172.0,433.5" stroke="black" stroke-width="1" fill="none" />
<polyline points="181.5,442.5,179.0,442.0,179.0,441.5,185.0,445.0,186.5,440.5,187.5,445.0" stroke="yellow" stroke-width="1" fill="none" />
<polyline points="180.5,444.0,186.0,444.0" stroke="black" stroke-width="1" fill="none" />
<polyline points="176.5,455.0" stroke="black" stroke-width="1" fill="none" />
<polyline points="" stroke="orange" stroke-width="1" fill="none" />
<polyline points="175.0,455.5,176.5,460.5,173.0,463.0,170.0,467.5,167.5,468.0" stroke="orange" stroke-width="1" fill="none" />
<polyline points="163.0,471.0,156.5,472.0,151.5,470.5,148.0,468.0,143.0,453.5,139.0,456.0,137.5,457.5,133.5,464.5" stroke="black" stroke-width="1" fill="none" />
<polyline points="137.0,467.5,140.5,469.0,143.0,473.0,147.5,477.5,152.0,478.0,154.0,489.0,152.0,485.5,153.0,482.5,159.5,489.0,162.5,493.5,165.5,495.5" stroke="yellow" stroke-width="1" fill="none" />
<polyline points="163.5,502.0,168.0,506.0" stroke="black" stroke-width="1" fill="none" />
<polyline points="178.5,507.0,170.5,504.5,169.0,504.5,167.5,501.5,163.5,504.5,157.5,501.5,154.0,499.0,150.0,498.0,147.0,489.0,143.5,490.0,143.0,484.5" stroke="green" stroke-width="1" fill="none" />
<polyline points="142.0,479.5,146.0,489.0,150.5,494.0,149.0,501.0,153.0,502.5" stroke="yellow" stroke-width="1" fill="none" />
<polyline points="149.5,507.0,154.5,511.5" stroke="black" stroke-width="1" fill="none" />
<polyline points="149.5,493.0,149.5,492.5,146.0,492.5" stroke="orange" stroke-width="1" fill="none" />
<polyline points="154.5,492.5,152.0,492.0,155.5,502.0" stroke="yellow" stroke-width="1" fill="none" />
<polyline points="152.0,486.0,152.5,487.5" stroke="black" stroke-width="1" fill="none" />
<polyline points="149.5,491.5,150.0,488.5,152.5,493.0,155.5,491.5,155.5,495.5,153.5,499.0,160.0,505.5,158.5,506.5,160.0,509.5" stroke="black" stroke-width="1" fill="none" />
<polyline points="156.0,505.5,151.5,503.5,146.5,498.5,147.0,489.5,137.5,485.0,139.0,481.5,141.0,484.5" stroke="green" stroke-width="1" fill="none" />
<polyline points="143.0,490.5,145.0,491.5,152.0,491.5,150.5,500.5,148.0,503.5,151.0,506.0,155.5,512.0" stroke="black" stroke-width="1" fill="none" />
<polyline points="150.5,510.0,148.5,502.5,145.0,499.0" stroke="black" stroke-width="1" fill="none" />
<polyline points="145.5,502.0,144.0,502.5,145.5,507.0,151.5,506.0,156.0,517.0" stroke="orange" stroke-width="1" fill="none" />
<polyline points="140.5,512.0,143.0,509.0,143.0,506.0,140.5,499.0,137.5,497.0,138.0,494.5,132.5,488.0,132.5,483.0" stroke="orange" stroke-width="1" fill="none" />
<polyline points="140.0,488.0,136.0,489.5,142.0,496.5,134.0,499.5,140.0,501.0" stroke="green" stroke-width="1" fill="none" />
<polyline points="128.0,498.5,131.5,495.0" stroke="green" stroke-width="1" fill="none" />
<polyline points="122.0,499.0,126.0,501.5,125.0,506.5,125.5,513.0" stroke="yellow" stroke-width="1" fill="none" />
<polyline points="122.0,512.0,129.0,507.5,124.0,496.0,124.5,495.5,126.0,489.5,125.5,492.5" stroke="green" stroke-width="1" fill="none" />
<polyline points="124.5,496.0,129.0,503.5,126.0,507.5" stroke="green" stroke-width="1" fill="none" />
<polyline points="133.5,514.5,132.0,509.0,128.5,502.5,127.0,504.0" stroke="orange" stroke-width="1" fill="none" />
<polyline points="139.0,495.0,138.0,486.5,138.5,480.0" stroke="black" stroke-width="1" fill="none" />
<polyline points="132.5,480.0,134.5,490.5,137.0,494.0,131.5,495.5,136.5,500.5,138.0,505.0,140.5,511.0,140.5,514.0,138.0,511.5" stroke="black" stroke-width="1" fill="none" />
<polyline points="162.5,512.0" stroke="green" stroke-width="1" fill="none" />
<polyline points="167.0,495.5,160.5,497.5" stroke="green" stroke-width="1" fill="none" />
<polyline points="167.5,489.0,168.0,483.5,160.0,481.5,161.5,478.0" stroke="yellow" stroke-width="1" fill="none" />
<polyline points="164.5,482.0,167.5,478.0,169.0,479.5,169.5,482.5" stroke="green" stroke-width="1" fill="none" />
<polyline points="163.5,467.5,168.0,469.5,172.5,472.5,168.0,475.5,162.0,481.5,165.5,487.0,167.0,493.5,168.5,493.0" stroke="orange" stroke-width="1" fill="none" />
<polyline points="200.5,493.0,204.0,487.5,206.0,488.5,207.0,487.5,209.0,482.0,213.0,483.0,218.0,479.5,224.5,472.5" stroke="black" stroke-width="1" fill="none" />
<polyline points="232.5,466.0,235.0,455.0,238.0,457.0" stroke="green" stroke-width="1" fill="none" />
<polyline points="218.5,477.5,220.5,477.5,223.0,473.0,222.5,471.0,229.5,466.0,229.5,463.5,234.0,458.0,232.5,455.0,234.0,450.0,234.5,446.0,234.0,444.5,238.5,438.5,237.0,435.0,241.0,432.0,237.0,424.0,239.5,426.5,234.0,420.5,233.5,414.5,231.5,414.0,231.0,406.5,231.0,404.5" stroke="yellow" stroke-width="1" fill="none" />
<polyline points="225.5,409.0,223.0,407.0,223.0,415.0,224.5,417.5,225.0,411.0" stroke="black" stroke-width="1" fill="none" />
<polyline points="229.5,416.0,224.5,416.5,219.0,416.0,226.0,419.5,223.0,421.0" stroke="black" stroke-width="1" fill="none" />
<polyline points="243.0,413.0,242.5,417.0,248.0,419.0,246.5,425.5,244.0,428.0,239.0,428.0,240.5,433.0,238.5,438.5,242.5,445.0,239.5,446.0,243.0,450.5,235.5,452.0,237.5,458.5,235.0,462.0,234.5,467.5,232.0,471.0,224.5,476.5,224.5,477.5,225.5,480.5,220.5,485.0,211.5,490.0,214.0,491.5" stroke="black" stroke-width="1" fill="none" />
<polyline points="194.0,500.5,200.5,492.5,206.0,494.0,204.5,495.5,210.0,493.0,214.0,491.5,218.0,489.0,224.0,486.0,226.5,479.5,230.0,480.0" stroke="yellow" stroke-width="1" fill="none" />
<polyline points="199.5,450.0,200.0,446.0,195.0,452.0,197.5,448.5,191.0,447.5" stroke="black" stroke-width="1" fill="none" />
<polyline points="191.0,448.0,190.0,447.5,182.5,446.5,178.5,450.0,181.5,452.5,181.5,450.0,184.0,442.0,186.0,434.0,179.5,437.0,177.5,434.0,182.0,429.5,182.5,428.0,178.5,421.0,180.0,420.0,177.5,414.0,175.5,412.5,172.0,407.0,167.5,401.0,165.0,395.5,163.0,396.0,159.5,390.0,158.5,384.5,162.5,381.0,166.0,376.5,163.0,379.5" stroke="black" stroke-width="1" fill="none" />
<polyline points="161.5,375.0,164.0,371.0,167.5,368.0,173.5,361.5,178.5,357.0,182.0,348.5,182.0,341.5,188.0,341.0,193.0,334.0,197.0,329.5,200.0,323.0" stroke="yellow" stroke-width="1" fill="none" />
<polyline points="203.0,315.0,204.0,320.5" stroke="yellow" stroke-width="1" fill="none" />
<polyline points="192.0,317.5,197.5,307.5,198.0,300.0,204.0,291.0,206.0,289.0,213.5,278.5,216.0,271.5,217.0,261.5,220.5,260.0,225.5,249.0,233.5,246.0,234.5,239.5,239.5,233.5,241.5,230.5,246.0,226.0,253.0,221.5,256.5,218.0,259.5,217.0,255.5,213.5" stroke="black" stroke-width="1" fill="none" />
<polyline points="265.5,221.0,269.0,228.0" stroke="black" stroke-width="1" fill="none" />
<polyline points="263.0,232.0,269.0,232.5,261.5,238.0" stroke="black" stroke-width="1" fill="none" />
<polyline points="262.0,238.5,259.5,236.0,260.0,229.5,261.5,221.0,261.5,227.0,255.5,225.0,252.5,229.0,249.5,233.5,244.0,234.5,242.5,244.5,238.0,246.0,232.0,254.0,230.0,257.5,224.5,265.0,220.0,271.5,215.0,281.0,214.5,283.0,215.0,279.0,217.5,277.0,222.0,272.5,223.0,267.0,223.5,262.5,226.0,257.5,229.5,259.5,236.0,252.5,232.5,249.5,240.5,241.5,243.5,240.0,243.5,241.0,252.5,229.0,255.0,226.0,259.5,221.0,262.0,219.0,264.5,213.0,262.5,214.5,265.0,214.0,265.5,211.0,268.0,204.0,271.0,199.0,270.0,195.5,270.5,190.5,268.5,186.0,265.0,192.0,261.0,197.0,257.0,198.5,257.5,203.0,255.0,204.5" stroke="yellow" stroke-width="1" fill="none" />
<polyline points="253.0,199.5,252.0,196.0" stroke="yellow" stroke-width="1" fill="none" />
<polyline points="257.0,207.0,257.0,214.0,253.0,217.5,248.5,221.0,244.0,227.0,243.5,230.5,233.0,235.0,230.5,234.5,230.5,235.0,230.0,230.0,235.5,228.5,230.5,220.5,230.5,219.0,227.5,214.0,225.5,214.0,225.0,215.0,228.5,203.5,226.5,202.5,223.0,204.5" stroke="black" stroke-width="1" fill="none" />
<polyline points="232.0,201.0,237.5,202.5,234.5,207.0,230.5,208.5" stroke="black" stroke-width="1" fill="none" />
<polyline points="233.0,201.0" stroke="black" stroke-width="1" fill="none" />
<polyline points="245.5,187.5,237.5,191.5" stroke="black" stroke-width="1" fill="none" />
<polyline points="241.5,201.5,249.5,194.0,251.0,191.5,257.5,188.5,247.5,188.5,244.5,191.0,241.5,196.0,248.5,190.5,253.0,186.5,257.0,187.5,259.0,189.5,263.0,185.0,265.0,178.5,267.0,182.0" stroke="green" stroke-width="1" fill="none" />
<polyline points="265.5,181.5,262.5,182.5,257.5,192.0,255.0,191.5,254.5,198.0,251.0,198.5,247.5,200.5,248.0,204.5,249.0,206.5,253.0,203.0,254.0,195.0,258.0,194.0,265.0,191.5,266.5,188.5,273.0,183.5,274.5,190.0" stroke="black" stroke-width="1" fill="none" />
<polyline points="265.0,187.5,263.0,192.0,261.5,198.0,258.0,202.0,260.0,199.0,260.5,193.0,266.5,190.0,269.0,186.0,272.0,187.0" stroke="yellow" stroke-width="1" fill="none" />
<polyline points="261.0,193.0,259.5,196.0,258.5,198.0,253.0,201.5,247.5,210.5,252.0,210.0,254.0,219.5" stroke="green" stroke-width="1" fill="none" />
<polyline points="263.5,207.5,266.5,201.0,262.5,202.0,260.0,207.0,261.0,208.5,258.0,215.5,255.5,218.0,253.0,223.5,249.5,225.0,242.5,231.5,243.0,231.5,235.0,242.0,233.0,238.5" stroke="green" stroke-width="1" fill="none" />
<polyline points="229.5,223.0" stroke="black" stroke-width="1" fill="none" />
<polyline points="" stroke="black" stroke-width="1" fill="none" />
<polyline points="221.5,217.5,228.0,226.0,230.5,225.0" stroke="green" stroke-width="1" fill="none" />
<polyline points="212.5,230.5,214.0,229.0" stroke="black" stroke-width="1" fill="none" />
<polyline points="223.0,231.0,220.0,236.5,226.5,240.5,220.5,242.0,223.0,247.0" stroke="black" stroke-width="1" fill="none" />
<polyline points="219.0,255.5,221.0,255.5,223.5,245.5,220.0,244.5,225.0,238.5,232.0,234.5,220.0,233.5,222.5,230.5,220.0,229.5,219.0,225.5,220.5,222.0,217.5,219.0,218.0,213.0" stroke="black" stroke-width="1" fill="none" />
<polyline points="218.0,216.5,218.0,218.5,220.5,228.0,215.5,229.0,219.5,235.0,223.5,228.0,228.0,241.0,229.0,245.5,230.5,244.5" stroke="black" stroke-width="1" fill="none" />
<polyline points="228.0,248.5,223.5,253.0,218.5,263.0,213.0,269.0,210.0,275.0,206.0,280.5,202.0,288.0,198.0,295.0,196.0,305.0,189.5,316.0,188.5,318.0,184.0,324.0,179.0,325.5,174.0,328.5,177.0,332.5,168.0,333.5,162.0,339.0,159.0,341.0,152.0,342.5,149.5,350.5,147.0,348.0" stroke="yellow" stroke-width="1" fill="none" />
<polyline points="140.0,346.5,144.0,345.0,148.5,334.5,147.0,341.5,147.0,335.5,148.5,332.0,152.5,330.0,148.5,326.5" stroke="yellow" stroke-width="1" fill="none" />
<polyline points="152.0,333.5,153.0,333.0,155.5,338.5" stroke="orange" stroke-width="1" fill="none" />
<polyline points="145.5,352.5,148.0,348.0,147.5,350.0" stroke="black" stroke-width="1" fill="none" />
<polyline points="144.5,349.5,137.5,346.0,133.0,340.0,133.5,340.5,136.5,332.5,135.5,329.0,131.0,328.5,131.5,321.0,132.5,318.5,132.0,316.5,130.0,311.0,127.5,303.5,130.5,297.5" stroke="orange" stroke-width="1" fill="none" />
<polyline points="133.0,302.0,130.0,296.5,128.5,297.5" stroke="green" stroke-width="1" fill="none" />
<polyline points="148.0,295.5,134.0,293.5,135.0,306.0,135.0,302.0" stroke="yellow" stroke-width="1" fill="none" />
<polyline points="127.0,298.0,128.5,293.0,132.5,291.0,136.0,290.0,138.5,292.0" stroke="black" stroke-width="1" fill="none" />
<polyline points="130.0,281.0,131.5,274.0,138.5,280.0,142.5,275.0" stroke="black" stroke-width="1" fill="none" />
<polyline points="144.0,270.5,151.5,267.5" stroke="black" stroke-width="1" fill="none" />
<polyline points="151.0,264.0,153.0,265.5,153.5,272.5" stroke="black" stroke-width="1" fill="none" />
<polyline points="150.5,270.5,153.0,272.5,156.5,270.0" stroke="orange" stroke-width="1" fill="none" />
<polyline points="168.5,280.0,167.5,279.0,170.0,275.5,169.0,271.5,169.5,267.0,172.0,265.5,169.0,258.5,171.0,255.0,171.0,250.0,175.5,258.0,172.5,257.5" stroke="green" stroke-width="1" fill="none" />
<polyline points="166.5,254.0,168.5,251.5,178.5,247.5,179.0,250.5" stroke="black" stroke-width="1" fill="none" />
<polyline points="170.5,259.0,174.5,261.0,171.0,263.0" stroke="black" stroke-width="1" fill="none" />
<polyline points="" stroke="black" stroke-width="1" fill="none" />
<polyline points="183.0,264.0,182.0,262.0,184.5,259.5" stroke="black" stroke-width="1" fill="none" />
<polyline points="181.0,261.0,178.5,261.0,177.5,262.0" stroke="black" stroke-width="1" fill="none" />
<polyline points="176.5,255.5,178.0,262.0" stroke="black" stroke-width="1" fill="none" />
<polyline points="188.0,257.5,188.5,260.5,183.5,260.0,187.5,264.5,186.5,265.0" stroke="yellow" stroke-width="1" fill="none" />
<polyline points="204.0,264.5,211.0,264.5,207.0,264.0" stroke="black" stroke-width="1" fill="none" />
<polyline points="212.0,254.5,217.5,262.5,210.5,251.5,206.5,248.5,209.5,247.0,209.5,239.0,208.0,237.5,211.0,238.5,205.0,237.0,202.0,236.5" stroke="yellow" stroke-width="1" fill="none" />
<polyline points="206.5,239.5,211.0,240.5,210.0,246.0,213.5,240.5" stroke="black" stroke-width="1" fill="none" />
<polyline points="207.0,251.5,207.5,250.5,207.5,250.0" stroke="yellow" stroke-width="1" fill="none" />
<polyline points="215.5,257.5,212.5,258.5,215.5,264.0" stroke="black" stroke-width="1" fill="none" />
<polyline points="214.0,256.5,213.5,246.5,211.5,246.5,207.5,236.5,210.5,239.5,214.0,233.5" stroke="green" stroke-width="1" fill="none" />
<polyline points="213.5,235.0,211.0,238.5,211.5,247.5,213.0,246.5,211.5,251.5,210.0,254.5,216.0,259.0,214.0,254.0" stroke="black" stroke-width="1" fill="none" />
<polyline points="215.5,262.0,212.5,251.0,214.0,254.5,214.5,248.5" stroke="black" stroke-width="1" fill="none" />
<polyline points="203.5,266.0,201.5,261.5,195.0,259.0,196.5,254.5,193.5,250.0" stroke="black" stroke-width="1" fill="none" />
<polyline points="185.5,249.0,194.0,251.0,197.5,252.5" stroke="orange" stroke-width="1" fill="none" />
<polyline points="184.0,279.5,185.5,270.0,184.0,266.0,185.0,262.5,178.5,266.5,176.0,259.5,184.5,250.0,179.5,250.0,180.5,245.0,192.0,236.5,191.0,237.5,185.0,245.0,189.5,243.0" stroke="yellow" stroke-width="1" fill="none" />
<polyline points="189.0,235.5,186.5,232.5,191.0,228.0,190.0,222.0,195.5,219.0,196.5,218.0,190.0,227.5,192.5,227.0" stroke="black" stroke-width="1" fill="none" />
<polyline points="191.5,217.5,185.5,219.5,186.5,225.0,186.5,229.0,189.5,231.0,187.5,234.0,191.5,232.5" stroke="black" stroke-width="1" fill="none" />
<polyline points="184.5,236.0,184.0,238.5,188.0,241.5" stroke="black" stroke-width="1" fill="none" />
<polyline points="191.0,247.5,190.0,244.0,189.0,246.0,190.0,239.5,194.0,236.0,199.0,235.5" stroke="black" stroke-width="1" fill="none" />
<polyline points="212.0,228.5,211.5,229.0" stroke="black" stroke-width="1" fill="none" />
<polyline points="211.0,219.0,211.0,216.0" stroke="black" stroke-width="1" fill="none" />
<polyline points="214.5,213.5,212.5,214.5,215.5,218.0,213.5,225.5,217.0,232.5,217.0,236.5" stroke="black" stroke-width="1" fill="none" />
<polyline points="216.5,203.5,223.5,202.5,227.5,197.0,224.5,203.5,217.0,206.5,220.0,214.0,220.0,212.0,223.5,218.0,224.0,224.0,228.5,228.0,229.0,229.0,234.5,231.5,234.5,238.0,236.0,240.5,230.5,247.5,227.0,246.5,228.0,250.5,223.0,256.0,222.0,261.5,218.5,263.5,216.0,267.0,214.0,271.0,209.0,275.0,208.0,279.5,208.0,285.5,203.5,287.5,201.0,292.0,201.0,297.5,193.5,300.0,194.5,302.0,196.5,306.0,192.0,312.0,189.0,318.5,191.0,323.5,198.0,322.0,198.0,316.5,202.5,313.0,210.0,311.0,213.0,305.0,218.0,294.5,221.5,290.5,226.0,289.0,227.0,280.5,235.0,278.5,238.0,271.0,241.0,267.0,249.5,264.5,249.5,259.5,253.5,256.0,256.0,252.5,262.0,249.0,265.5,246.5,269.5,244.0,278.5,250.0,278.5,247.5,280.0,253.0,286.5,250.0,286.5,249.0,297.0,254.0,303.5,256.5" stroke="yellow" stroke-width="1" fill="none" />
<polyline points="287.0,265.0" stroke="green" stroke-width="1" fill="none" />
<polyline points="284.5,259.0,289.0,268.5,292.5,274.0,290.0,274.0" stroke="yellow" stroke-width="1" fill="none" />
<polyline points="" stroke="black" stroke-width="1" fill="none" />
<polyline points="" stroke="yellow" stroke-width="1" fill="none" />
<polyline points="282.0,278.0,282.0,275.0,279.0,274.5" stroke="black" stroke-width="1" fill="none" />
<polyline points="287.5,273.5,283.5,268.5,282.0,265.0,276.5,267.0,270.5,265.0,274.5,266.5,271.0,266.0" stroke="black" stroke-width="1" fill="none" />
<polyline points="271.0,267.5,273.0,268.5" stroke="orange" stroke-width="1" fill="none" />
<polyline points="274.0,269.0,266.5,270.0,264.5,268.0,266.5,268.0" stroke="yellow" stroke-width="1" fill="none" />
<polyline points="262.0,268.5,266.0,274.5,273.5,270.5,273.5,270.5,273.0,263.0,276.5,275.5,270.5,284.0,279.0,275.5,275.0,281.5,278.5,285.0" stroke="green" stroke-width="1" fill="none" />
<polyline points="264.5,282.0,265.5,278.5,260.5,272.0,257.0,273.0,259.5,268.0,258.5,271.5,257.5,275.5,256.0,275.0" stroke="black" stroke-width="1" fill="none" />
<polyline points="260.5,265.5,264.0,272.5,268.0,276.0,268.5,278.5" stroke="orange" stroke-width="1" fill="none" />
<polyline points="259.0,271.5,258.0,272.0,252.5,270.5,246.5,268.0,253.0,267.5" stroke="black" stroke-width="1" fill="none" />
<polyline points="246.0,268.0,253.0,266.0,252.5,272.5,254.0,274.5,254.0,277.0,263.5,277.5,268.5,276.0,271.0,279.5,273.0,281.0,280.5,278.5,285.0,273.0" stroke="black" stroke-width="1" fill="none" />
<polyline points="289.5,269.5,289.0,264.0,281.5,258.5,283.0,258.5,279.5,253.0,276.5,253.5" stroke="black" stroke-width="1" fill="none" />
<polyline points="279.0,259.5,278.0,253.0,276.5,250.0,267.5,251.5,267.0,249.5" stroke="black" stroke-width="1" fill="none" />
<polyline points="271.5,254.0" stroke="black" stroke-width="1" fill="none" />
<polyline points="273.0,257.0,267.5,258.0,265.0,257.0,259.0,251.5,259.5,258.0" stroke="black" stroke-width="1" fill="none" />
<polyline points="267.0,269.0,263.0,271.0,270.5,273.5" stroke="yellow" stroke-width="1" fill="none" />
<polyline points="279.5,270.0,284.5,271.5,284.5,273.5,289.5,279.0,285.5,279.5,287.5,276.5,291.0,277.5" stroke="black" stroke-width="1" fill="none" />
<polyline points="" stroke="black" stroke-width="1" fill="none" />
<polyline points="273.5,243.5,268.0,244.5,258.5,247.0,255.5,253.0,255.0,256.5,246.5,261.5,246.0,268.0,241.5,267.5,237.0,272.5,235.5,278.5,231.0,282.0,224.5,289.0,222.5,287.0,219.0,298.0,215.5,297.5,213.5,301.5,209.5,303.5,207.0,309.0,203.5,312.0,200.0,320.5,204.0,318.0,198.0,323.5,191.0,329.5,193.0,334.0,184.5,336.0,185.5,340.5,183.5,344.0,179.0,347.5,173.0,356.0,174.5,354.0,170.0,362.5,166.0,368.5,164.0,372.5,160.0,376.0,160.5,378.0,156.0,386.0,162.0,389.5,164.0,396.0,169.5,398.0,173.5,403.5,177.0,406.5,175.5,403.0" stroke="black" stroke-width="1" fill="none" />
<polyline points="170.0,406.5,171.5,401.0,162.0,403.0,158.0,393.5,152.0,393.0,157.5,394.0" stroke="black" stroke-width="1" fill="none" />
<polyline points="" stroke="black" stroke-width="1" fill="none" />
<polyline points="140.0,381.5,140.0,377.0,138.0,372.5,138.0,369.5,138.5,371.5" stroke="black" stroke-width="1" fill="none" />
<polyline points="136.5,377.5,139.0,381.0,144.0,380.0,151.0,377.0" stroke="green" stroke-width="1" fill="none" />
<polyline points="136.5,396.5,137.0,403.5,133.0,409.5,127.5,414.0,128.5,414.0,131.0,419.0,135.0,422.0,136.5,427.5,137.0,431.5,137.5,435.0,138.5,439.0,136.0,443.5,138.0,447.0,138.0,452.5,137.0,454.0,135.0,458.5,138.5,458.5,138.5,469.0,140.0,466.5,139.5,467.5,145.0,477.0,146.5,479.0,151.0,482.0,154.0,485.5,159.5,485.0,166.5,486.5" stroke="black" stroke-width="1" fill="none" />
<polyline points="164.0,460.0" stroke="orange" stroke-width="1" fill="none" />
<polyline points="179.0,461.5,180.5,457.5,172.5,463.0,173.5,455.5,173.0,452.5,169.5,449.5,165.5,447.0,171.0,438.5,167.0,436.0,171.0,431.0,169.5,432.5,170.5,433.0" stroke="black" stroke-width="1" fill="none" />
<polyline points="168.0,436.5,162.0,438.5" stroke="black" stroke-width="1" fill="none" />
<polyline points="159.0,427.5,157.0,424.5,160.5,419.5,161.0,426.0,160.5,420.0,166.0,412.0,161.5,413.5,162.0,409.5,159.0,406.0,161.0,402.0,163.0,395.5,156.0,393.5,155.5,388.5,155.5,383.5,153.0,379.5,152.5,378.0,151.0,370.0,152.5,370.5,151.5,365.0" stroke="black" stroke-width="1" fill="none" />
<polyline points="145.0,363.0,148.5,361.0,152.0,365.0,149.5,370.0,151.5,373.0,155.0,379.0,152.5,381.5,154.0,383.0,151.0,385.0,157.0,390.0,156.5,394.0,160.0,396.5,168.5,399.0,171.5,401.5,177.0,408.0" stroke="yellow" stroke-width="1" fill="none" />
<polyline points="171.0,417.5,171.5,420.0,177.0,426.0,176.0,428.0,175.0,431.5,169.5,437.0,171.5,439.0,169.5,440.5,170.0,447.0,173.5,452.5,175.5,453.0,178.0,461.5,174.0,462.0,174.5,465.5,169.5,464.0" stroke="black" stroke-width="1" fill="none" />
<polyline points="173.5,460.5,170.5,452.5" stroke="black" stroke-width="1" fill="none" />
<polyline points="163.0,450.5,161.5,450.0,166.5,454.5,166.0,458.5,172.5,460.5,168.0,467.0,168.0,470.0,161.5,466.5,164.0,475.0,164.5,476.0,159.0,480.5,161.5,486.0,162.0,487.0,160.5,492.0,161.5,497.5,163.5,499.5,169.0,502.5,174.5,512.5,174.0,512.5" stroke="orange" stroke-width="1" fill="none" />
<polyline points="158.0,468.5" stroke="black" stroke-width="1" fill="none" />
<polyline points="153.5,467.5,158.0,466.0,155.5,464.0" stroke="yellow" stroke-width="1" fill="none" />
<polyline points="156.5,461.5" stroke="black" stroke-width="1" fill="none" />
<polyline points="150.0,456.5,152.5,453.5,156.5,453.5,151.0,447.5,149.5,446.0,150.5,439.0,146.0,437.0,144.5,431.0,142.5,427.0,142.0,423.5,138.0,423.0,138.0,414.5,133.0,409.5" stroke="black" stroke-width="1" fill="none" />
<polyline points="135.0,405.0,141.5,403.5,145.0,400.0,143.5,401.0" stroke="orange" stroke-width="1" fill="none" />
<polyline points="140.5,399.5,140.5,398.5,141.0,403.5" stroke="yellow" stroke-width="1" fill="none" />
<polyline points="141.5,398.5,140.5,405.5,143.5,406.0,146.5,410.5" stroke="yellow" stroke-width="1" fill="none" />
<polyline points="154.0,418.0,156.5,419.5,153.0,423.5,156.0,426.0,157.0,432.5,157.0,435.0,155.0,437.0,153.0,439.0" stroke="black" stroke-width="1" fill="none" />
<polyline points="164.0,441.0,167.0,444.0,175.0,446.5,176.5,445.5,182.0,438.5,179.5,432.0" stroke="black" stroke-width="1" fill="none" />
<polyline points="176.0,423.5,177.0,422.0,174.0,415.5,176.0,416.0,174.5,413.0,163.5,409.0,166.5,408.0,163.0,402.5,162.5,396.0" stroke="black" stroke-width="1" fill="none" />
<polyline points="167.0,405.0,170.0,407.0,176.0,414.5,172.0,421.5,167.0,420.5,165.5,429.0,160.5,428.0,162.0,429.0,161.0,434.0,161.0,439.0,160.5,434.5,166.5,431.0,169.0,428.5" stroke="black" stroke-width="1" fill="none" />
<polyline points="169.0,431.0,167.5,434.0,169.5,434.0,174.0,437.0" stroke="black" stroke-width="1" fill="none" />
<polyline points="165.0,442.0,163.0,443.5,156.0,449.5,154.5,453.0,157.0,455.0,162.0,457.0,164.5,459.5,161.0,462.0" stroke="green" stroke-width="1" fill="none" />
<polyline points="163.0,458.0,162.0,459.0,161.5,451.5,164.0,451.0,158.5,452.5,158.5,449.0,157.5,446.0" stroke="green" stroke-width="1" fill="none" />
<polyline points="" stroke="black" stroke-width="1" fill="none" />
<polyline points="150.0,451.5,153.0,455.0,151.0,456.0,154.5,456.0,154.5,457.5,164.0,456.0,163.5,449.0" stroke="orange" stroke-width="1" fill="none" />
<polyline points="152.0,450.5,145.0,448.0,147.0,450.0,146.5,449.5" stroke="black" stroke-width="1" fill="none" />
<polyline points="147.0,453.0,148.0,461.5,150.0,463.0,150.5,467.0,153.0,467.0,149.0,474.5,156.5,476.0,156.0,477.5,156.5,480.5,160.5,478.5" stroke="orange" stroke-width="1" fill="none" />
<polyline points="152.0,472.5,151.5,469.0" stroke="black" stroke-width="1" fill="none" />
<polyline points="145.5,461.5,153.0,468.5,153.0,467.0" stroke="green" stroke-width="1" fill="none" />
<polyline points="155.5,474.5,149.0,472.5,142.5,469.0,144.5,466.0,137.0,464.5" stroke="black" stroke-width="1" fill="none" />
<polyline points="139.5,453.5,144.0,456.5,147.0,458.5,141.5,462.5,145.5,475.0,145.0,473.0,151.0,477.0,157.5,481.5" stroke="green" stroke-width="1" fill="none" />
<polyline points="167.0,472.0,168.5,475.0,162.5,478.5,159.5,475.5,157.0,471.0,159.5,468.0,152.5,466.0,151.5,460.5,147.0,456.0" stroke="black" stroke-width="1" fill="none" />
<polyline points="145.5,454.5,146.0,456.5,146.5,463.5,147.0,468.0,148.0,471.0,153.5,471.0,154.5,478.0,158.0,478.0,156.0,485.0,158.0,488.0,162.0,490.5,164.5,497.0,165.0,498.0,168.0,501.5,162.5,507.0" stroke="orange" stroke-width="1" fill="none" />
<polyline points="168.0,456.5,164.0,455.5,163.0,450.0,156.5,450.0,156.0,448.0,158.5,448.5,156.5,446.0,154.5,441.5,154.5,437.0,155.0,436.5,147.0,431.5,147.0,429.5,148.0,429.5,141.5,424.5,139.5,425.0,140.5,423.5" stroke="black" stroke-width="1" fill="none" />
<polyline points="138.0,422.5,142.0,424.5" stroke="orange" stroke-width="1" fill="none" />
<polyline points="144.0,431.5,146.0,431.0" stroke="black" stroke-width="1" fill="none" />
<polyline points="147.5,420.5,141.0,419.0,143.0,412.5,138.5,409.0" stroke="orange" stroke-width="1" fill="none" />
<polyline points="137.0,411.0,141.0,410.0,145.5,419.0,146.5,423.5,148.0,421.0,149.5,428.5,151.5,433.5,153.5,431.5" stroke="green" stroke-width="1" fill="none" />
<polyline points="155.0,421.0,152.5,425.5,153.5,421.5,151.5,413.5,152.0,407.5,152.5,400.5,150.5,398.5,148.5,394.0,149.5,397.5" stroke="orange" stroke-width="1" fill="none" />
<polyline points="150.5,397.5,153.0,399.5" stroke="black" stroke-width="1" fill="none" />
<polyline points="157.5,399.5,160.5,394.5" stroke="orange" stroke-width="1" fill="none" />
<polyline points="149.5,403.0,145.5,396.5,141.0,395.5,136.0,397.0,129.5,403.5,128.5,400.0,125.0,400.0,123.0,394.5" stroke="black" stroke-width="1" fill="none" />
<polyline points="119.5,395.0,124.5,395.0,122.5,400.0,127.0,400.5" stroke="orange" stroke-width="1" fill="none" />
<polyline points="128.5,406.0,137.5,404.5,133.5,393.5,140.5,394.0,142.0,385.0,139.0,391.5,141.5,383.5,141.0,376.0,142.5,373.5,148.5,372.0,151.5,368.5,147.0,363.5,144.5,360.5,143.0,358.0,143.0,354.5,145.5,351.0,141.0,346.0,141.5,340.5,138.0,341.5,134.5,334.5,137.5,324.5,136.5,324.0,134.5,316.0,135.5,314.5,133.5,312.0,129.5,310.0,133.0,305.5,131.0,294.5,132.5,293.0,133.5,292.0,142.0,287.0,131.5,281.0,127.5,276.0" stroke="black" stroke-width="1" fill="none" />
<polyline points="123.5,268.5,127.5,275.5,134.5,281.5,130.0,284.0,129.0,288.5,126.0,292.5,124.5,298.0,124.0,297.5,126.5,306.0,118.5,303.5,120.0,312.5,120.5,316.5,119.0,320.5,122.0,322.0,123.0,329.0,123.0,332.5,122.5,337.5,126.5,339.5" stroke="black" stroke-width="1" fill="none" />
<polyline points="120.0,338.5,117.5,344.0,118.0,342.0" stroke="black" stroke-width="1" fill="none" />
<polyline points="117.0,345.0,123.0,344.5,120.0,355.5,121.0,363.0,117.5,367.0,117.0,369.5,117.0,367.5,114.5,377.0,115.5,383.5,118.0,385.5,116.0,391.5,118.0,396.0,119.0,397.5,125.0,398.5" stroke="orange" stroke-width="1" fill="none" />
<polyline points="128.0,403.5,122.5,401.5,121.0,397.5,120.5,390.0,120.5,388.0,125.0,380.0,121.5,383.0,121.5,377.0,119.0,374.0,117.5,369.5,120.0,372.0,117.0,373.0" stroke="black" stroke-width="1" fill="none" />
<polyline points="124.5,375.0,125.0,382.0,126.5,384.0,130.5,385.0" stroke="orange" stroke-width="1" fill="none" />
<polyline points="124.0,387.5,126.0,391.0,124.5,389.0,125.5,388.0,130.5,398.5,126.5,400.0" stroke="green" stroke-width="1" fill="none" />
<polyline points="127.0,393.5,124.0,390.0,131.0,394.0,136.5,392.0,136.5,393.5,140.0,392.5" stroke="yellow" stroke-width="1" fill="none" />
<polyline points="132.5,391.5,126.5,388.0" stroke="orange" stroke-width="1" fill="none" />
<polyline points="117.5,401.5,117.0,399.5" stroke="orange" stroke-width="1" fill="none" />
<polyline points="114.5,411.5,119.0,413.5,118.0,411.0,125.0,406.5,125.0,406.0,126.0,413.0,128.0,415.5,130.0,416.0,131.0,423.5" stroke="green" stroke-width="1" fill="none" />
<polyline points="128.0,425.0,129.5,421.5,125.5,415.0" stroke="black" stroke-width="1" fill="none" />
<polyline points="135.5,409.5" stroke="yellow" stroke-width="1" fill="none" />
<polyline points="145.5,406.5,148.5,415.0,152.0,411.0" stroke="green" stroke-width="1" fill="none" />
<polyline points="144.5,405.5,142.5,405.5" stroke="black" stroke-width="1" fill="none" />
<polyline points="140.5,406.5,143.5,404.5" stroke="black" stroke-width="1" fill="none" />
<polyline points="154.5,405.0,148.5,396.0,147.5,395.0,149.0,393.0" stroke="black" stroke-width="1" fill="none" />
<polyline points="170.5,403.5,171.0,402.5,171.5,407.5,175.5,406.5,179.0,412.5,175.5,417.0,179.5,424.0,178.0,426.0,178.5,427.5" stroke="orange" stroke-width="1" fill="none" />
<polyline points="176.5,415.0,162.0,416.0,159.5,410.0,159.5,404.5,155.0,404.0,149.0,398.5,148.0,390.0,145.0,384.0,138.5,390.5,139.5,388.0,136.0,382.0,142.5,383.5,146.5,385.0,135.0,375.5,133.0,374.0,138.5,365.5,139.0,359.0,141.0,362.0,140.0,355.5,145.5,354.5,140.0,353.5,133.5,345.0,131.0,342.0,131.0,336.5,130.5,334.0,138.5,330.5,132.5,325.0" stroke="black" stroke-width="1" fill="none" />
<polyline points="118.5,326.5,120.5,334.0,122.5,334.0,121.5,339.5,123.0,337.5,122.0,345.5" stroke="yellow" stroke-width="1" fill="none" />
<polyline points="116.5,345.5,117.0,348.5,123.0,356.0,121.5,357.5,122.0,363.0,123.5,368.5,125.5,369.0,125.0,377.0,130.5,377.5,131.0,382.5,132.5,384.5,137.0,382.5,136.5,393.0" stroke="black" stroke-width="1" fill="none" />
<polyline points="139.0,366.0" stroke="orange" stroke-width="1" fill="none" />
<polyline points="" stroke="black" stroke-width="1" fill="none" />
<polyline points="135.0,360.0,134.5,354.5,133.5,356.0" stroke="green" stroke-width="1" fill="none" />
<polyline points="134.5,354.5,133.0,351.5" stroke="black" stroke-width="1" fill="none" />
<polyline points="132.0,353.5,131.0,360.5,137.0,365.0,135.0,370.5,132.5,368.5" stroke="black" stroke-width="1" fill="none" />
<polyline points="143.0,361.5,141.5,355.5,141.5,348.5,142.0,349.5,136.0,344.5,137.0,339.5,134.0,334.0,131.0,333.5,124.5,332.0" stroke="orange" stroke-width="1" fill="none" />
<polyline points="129.0,340.0,130.5,343.5,135.5,339.0,142.0,346.0,138.0,346.0" stroke="black" stroke-width="1" fill="none" />
<polyline points="140.0,343.5,142.5,337.5,144.0,337.5" stroke="black" stroke-width="1" fill="none" />
<polyline points="130.5,344.0,135.5,347.5,134.5,351.5,138.0,349.5" stroke="orange" stroke-width="1" fill="none" />
<polyline points="128.5,346.0,126.5,343.5" stroke="orange" stroke-width="1" fill="none" />
<polyline points="115.0,345.5,116.0,349.0,116.5,355.5,115.0,353.5,117.5,364.0,117.5,366.0,115.0,370.5,116.0,376.0,119.5,376.5,117.5,382.5,116.5,388.5,114.5,391.0,119.0,397.5,119.5,404.0,120.5,400.0,117.5,409.5,115.0,412.0,110.5,413.5,116.0,412.0,117.5,410.5,121.0,404.0" stroke="black" stroke-width="1" fill="none" />
<polyline points="126.0,408.0,121.5,411.5" stroke="yellow" stroke-width="1" fill="none" />
<polyline points="122.0,422.0" stroke="black" stroke-width="1" fill="none" />
<polyline points="132.5,428.0,125.5,425.5" stroke="yellow" stroke-width="1" fill="none" />
<polyline points="120.5,415.0,125.5,418.5" stroke="black" stroke-width="1" fill="none" />
<polyline points="116.5,434.0,119.0,439.0,117.5,444.0,118.0,444.0,122.0,440.5,117.5,439.0" stroke="black" stroke-width="1" fill="none" />
<polyline points="118.5,441.5,121.0,440.0,123.0,444.5,121.5,441.0" stroke="black" stroke-width="1" fill="none" />
<polyline points="122.0,456.5" stroke="yellow" stroke-width="1" fill="none" />
<polyline points="128.0,453.5,122.0,452.0" stroke="yellow" stroke-width="1" fill="none" />
<polyline points="109.0,445.0,109.0,443.0,106.5,439.5" stroke="black" stroke-width="1" fill="none" />
<polyline points="105.0,438.0,105.0,443.0" stroke="black" stroke-width="1" fill="none" />
<polyline points="89.5,457.0,92.5,454.0,84.0,456.0,85.5,454.5,90.5,454.5,94.5,450.0,90.0,452.5" stroke="yellow" stroke-width="1" fill="none" />
<polyline points="84.5,458.0,86.5,460.0,91.0,457.5,97.0,453.5,95.0,452.0" stroke="black" stroke-width="1" fill="none" />
<polyline points="101.0,466.5,95.5,471.5,92.5,468.5" stroke="yellow" stroke-width="1" fill="none" />
<polyline points="100.0,493.0,99.5,492.5,98.5,495.5,99.0,502.5,101.5,505.0,105.0,510.5,102.0,507.5,102.5,510.0" stroke="orange" stroke-width="1" fill="none" />
<polyline points="109.5,508.0,113.5,506.0,111.0,499.5,111.5,492.0,112.5,490.0,112.5,485.0" stroke="orange" stroke-width="1" fill="none" />
<polyline points="114.5,490.5,117.5,490.5,111.0,498.0,113.0,500.0,111.0,503.5,117.0,511.0,110.5,512.5,111.0,512.5" stroke="black" stroke-width="1" fill="none" />
<polyline points="104.5,505.5,98.0,503.5" stroke="green" stroke-width="1" fill="none" />
<polyline points="103.0,492.0,96.5,494.0,96.0,502.5,101.5,505.5,107.5,507.5,110.0,511.0" stroke="black" stroke-width="1" fill="none" />
<polyline points="119.5,511.0,119.0,505.5,119.0,505.5,120.5,499.5,120.0,492.5,120.0,491.5,121.5,485.5,122.5,478.5,120.5,483.0,118.5,481.0" stroke="black" stroke-width="1" fill="none" />
<polyline points="123.0,484.0,125.5,489.0,128.5,489.5,129.0,492.5,131.0,498.5,129.0,508.0,132.0,507.0" stroke="yellow" stroke-width="1" fill="none" />
<polyline points="149.5,448.0,152.0,451.5,153.0,448.0,148.5,443.5,146.5,438.0,139.5,429.5,132.0,423.5,128.0,426.0" stroke="black" stroke-width="1" fill="none" />
<polyline points="134.0,423.0,138.5,421.0,131.0,428.0,136.5,434.0,138.0,438.0,141.0,441.5,145.0,447.0,141.0,450.0,138.5,455.0,138.0,459.0,135.0,461.5,132.0,467.5,137.0,459.5" stroke="green" stroke-width="1" fill="none" />
<polyline points="138.5,436.0,136.5,430.0,140.5,427.0" stroke="orange" stroke-width="1" fill="none" />
<polyline points="130.0,428.5,123.5,427.0,121.0,424.0,122.0,416.5" stroke="black" stroke-width="1" fill="none" />
<polyline points="111.5,418.0,112.5,419.5,113.0,426.5,113.0,428.5,117.5,433.5" stroke="orange" stroke-width="1" fill="none" />
<polyline points="113.0,428.5,117.0,427.5" stroke="orange" stroke-width="1" fill="none" />
<polyline points="106.0,415.5,108.5,417.5,109.5,425.0,109.0,427.0,107.5,434.0,109.5,433.5,108.0,440.5,106.5,449.5" stroke="black" stroke-width="1" fill="none" />
<polyline points="101.0,433.5,100.5,437.0,97.5,444.5,90.5,442.5,90.5,444.5,94.5,443.5,101.5,440.0,104.0,437.0,103.5,433.0,102.5,424.5,110.0,422.5,102.5,416.0,108.0,416.5" stroke="black" stroke-width="1" fill="none" />
<polyline points="94.0,418.0,85.5,422.0,90.0,426.0,88.0,424.5,94.0,428.5" stroke="black" stroke-width="1" fill="none" />
<polyline points="86.0,422.0,87.0,424.5,91.0,424.5,91.0,418.5,88.5,419.0,91.5,421.5,92.5,424.0" stroke="black" stroke-width="1" fill="none" />
<polyline points="95.0,404.0" stroke="green" stroke-width="1" fill="none" />
<polyline points="97.0,400.0" stroke="black" stroke-width="1" fill="none" />
<polyline points="93.0,397.5,88.5,398.0,95.0,398.0,95.5,403.0,93.0,407.5" stroke="black" stroke-width="1" fill="none" />
<polyline points="99.0,407.0,98.0,413.0,93.5,408.0,97.5,407.0,95.0,402.0,95.5,402.5,93.0,399.5,90.0,394.5,90.0,393.5,85.5,383.5,84.5,387.5" stroke="yellow" stroke-width="1" fill="none" />
<polyline points="83.0,385.0,82.0,391.5,74.5,401.0,69.5,403.0,72.0,405.5,73.5,409.5,66.5,416.5,71.5,415.5,70.0,415.5,70.0,422.5,68.0,424.5,66.5,425.5,72.0,427.0,70.5,430.0,72.0,432.0,67.5,438.0,66.5,447.0,72.0,447.5,70.5,451.0,73.5,454.0,70.5,459.0,71.0,463.0,73.0,464.0,69.5,470.5,67.0,478.5,66.5,477.5,64.5,480.5,64.5,486.5,65.5,492.5,61.0,499.0,66.5,499.5,61.0,506.0,62.5,508.0,63.5,511.5,60.5,514.5,65.0,505.0" stroke="black" stroke-width="1" fill="none" />
<polyline points="62.5,504.0,63.5,510.0,65.5,516.5,67.5,511.0" stroke="green" stroke-width="1" fill="none" />
<polyline points="75.0,493.5,73.0,490.0,75.0,486.0,71.5,483.5,68.0,473.5,68.5,473.0" stroke="black" stroke-width="1" fill="none" />
<polyline points="68.5,473.0,68.5,471.0,66.0,477.0,67.5,477.0,68.0,481.0,67.5,485.0,67.0,486.0,67.0,492.0,64.5,495.0" stroke="orange" stroke-width="1" fill="none" />
<polyline points="72.0,462.5,71.0,463.5,76.5,456.0,79.0,453.5,78.5,453.0" stroke="black" stroke-width="1" fill="none" />
<polyline points="73.0,460.5,72.0,461.5,77.0,469.0,76.5,471.5" stroke="black" stroke-width="1" fill="none" />
<polyline points="70.0,459.0,72.0,451.5" stroke="black" stroke-width="1" fill="none" />
<polyline points="63.5,452.0,64.0,460.5,69.0,461.5,66.0,465.0,65.5,465.5,70.0,474.5,70.5,477.0,66.5,477.5" stroke="yellow" stroke-width="1" fill="none" />
<polyline points="33.5,490.5,31.5,491.5,30.5,500.0,30.0,500.5" stroke="orange" stroke-width="1" fill="none" />
<polyline points="19.5,504.0,16.5,500.5,16.0,502.0,15.5,505.0" stroke="yellow" stroke-width="1" fill="none" />
<polyline points="15.5,504.0,14.5,496.0" stroke="black" stroke-width="1" fill="none" />
<polyline points="11.0,422.5" stroke="black" stroke-width="1" fill="none" />
<polyline points="10.0,419.0,11.0,420.0,8.5,427.5,8.5,432.0,11.5,436.0,12.5,442.0,9.5,446.5,14.0,443.0,12.5,448.5,15.5,452.5,13.5,455.5,13.5,461.5,17.0,463.0,15.5,468.0,16.0,472.0,14.5,478.5,13.5,478.5,13.5,481.0,15.0,482.0" stroke="orange" stroke-width="1" fill="none" />
<polyline points="38.5,463.0,36.0,457.0,34.5,453.5,36.5,449.0,33.5,444.5,33.5,438.0,34.5,435.0,32.0,433.0" stroke="black" stroke-width="1" fill="none" />
<polyline points="25.5,417.5" stroke="black" stroke-width="1" fill="none" />
<polyline points="24.0,412.5,23.5,416.5,25.5,417.0,22.0,426.5,26.0,427.0,24.5,434.0,29.0,437.5,25.0,440.5,29.0,441.0,26.5,449.0,29.5,452.5,25.5,456.0,27.0,464.0,28.0,462.5,29.5,467.0,29.5,472.5,27.5,478.0,28.0,480.0,31.0,488.0,31.5,487.0,27.0,493.5,32.5,498.0,32.0,500.0,29.5,503.5" stroke="yellow" stroke-width="1" fill="none" />
<polyline points="64.0,434.5,65.5,434.0,68.5,439.5,71.0,434.5,71.5,433.0" stroke="black" stroke-width="1" fill="none" />
<polyline points="69.5,421.5,65.0,423.0,68.5,421.5,70.5,417.0,69.5,412.5,67.0,407.0,68.5,402.0,82.5,399.0,74.5,397.5,77.5,397.5,72.0,399.0,73.0,395.5" stroke="yellow" stroke-width="1" fill="none" />
<polyline points="72.5,406.0,75.0,401.0,78.5,399.5" stroke="green" stroke-width="1" fill="none" />
<polyline points="77.5,397.5,78.5,398.0" stroke="black" stroke-width="1" fill="none" />
<polyline points="67.5,410.5,69.0,413.5,71.5,402.5,69.0,408.5,70.5,415.0,66.5,418.0" stroke="black" stroke-width="1" fill="none" />
<polyline points="71.5,421.0,73.0,419.5,77.0,427.5,76.0,424.0" stroke="green" stroke-width="1" fill="none" />
<polyline points="102.5,435.5,96.5,441.5,95.5,439.5,101.5,436.5,103.5,440.5,100.0,443.0" stroke="black" stroke-width="1" fill="none" />
<polyline points="109.5,407.0,109.0,402.0,111.5,403.0" stroke="black" stroke-width="1" fill="none" />
<polyline points="106.5,394.5,106.5,399.0,108.5,398.0,110.5,408.0,107.5,410.0,98.5,414.5,96.0,414.5,97.5,417.5" stroke="orange" stroke-width="1" fill="none" />
<polyline points="105.5,402.0,108.0,401.5,104.0,398.5,105.0,390.5,108.5,395.5" stroke="black" stroke-width="1" fill="none" />
<polyline points="101.0,373.5,105.5,380.0,107.5,373.5,104.0,365.0,106.5,368.0,105.5,364.0,109.5,360.0,109.0,358.0,107.0,350.0,105.0,339.5,101.0,337.5,107.5,339.5,105.5,335.5" stroke="black" stroke-width="1" fill="none" />
<polyline points="105.0,337.0,103.0,333.5,111.0,332.5,111.5,332.0" stroke="black" stroke-width="1" fill="none" />
<polyline points="122.0,325.5,117.5,329.0" stroke="black" stroke-width="1" fill="none" />
<polyline points="105.0,318.0,105.5,323.5,109.5,313.0,117.0,311.0,120.0,306.5,121.5,307.0,124.0,314.5,113.0,314.0,109.0,321.0,107.0,313.0,108.5,308.0,111.0,312.0,114.0,317.5,102.5,317.5,105.0,319.5,109.5,319.5,114.0,312.5,118.5,306.0" stroke="green" stroke-width="1" fill="none" />
<polyline points="120.0,308.5,121.5,313.0,118.5,318.0,114.0,320.5,113.5,322.5,111.0,329.5,104.0,332.5,101.0,337.0,96.5,341.5,100.0,342.0,97.5,341.5" stroke="black" stroke-width="1" fill="none" />
<polyline points="97.5,349.5" stroke="yellow" stroke-width="1" fill="none" />
<polyline points="96.5,364.0,97.0,363.0,96.0,369.0,94.5,372.0,95.0,375.0,89.5,381.0,89.5,384.5,86.0,389.0,90.5,391.5,86.0,390.5,86.0,401.0,92.5,404.0,92.5,411.0,92.0,409.5,95.0,413.0,101.5,411.5,105.5,412.0,106.5,407.0,112.5,403.0" stroke="black" stroke-width="1" fill="none" />
<polyline points="129.0,375.5,122.0,367.5,121.5,362.0" stroke="yellow" stroke-width="1" fill="none" />
<polyline points="122.0,360.5,120.0,371.0,123.0,372.0,127.5,380.5,131.0,382.5,132.0,387.0,133.0,391.5,135.0,396.0,133.5,394.5,132.5,394.0" stroke="black" stroke-width="1" fill="none" />
<polyline points="123.0,369.5,117.5,362.5" stroke="green" stroke-width="1" fill="none" />
<polyline points="125.5,373.5,122.5,371.0,132.5,378.0" stroke="black" stroke-width="1" fill="none" />
<polyline points="132.0,360.5,125.5,360.0" stroke="black" stroke-width="1" fill="none" />
<polyline points="125.0,363.0,124.0,362.0,130.5,365.0,130.0,366.5,133.0,366.5,139.0,367.0" stroke="yellow" stroke-width="1" fill="none" />
<polyline points="161.5,364.0,167.5,365.0,175.5,358.0,178.5,352.5,178.0,349.0,182.0,343.0" stroke="yellow" stroke-width="1" fill="none" />
<polyline points="191.5,329.0,185.0,328.0,180.0,331.5,173.5,339.0,171.0,341.5,167.5,347.0,166.5,354.0,161.0,360.0,158.5,371.5,159.0,363.5,166.5,364.5,167.0,355.0,174.0,353.5,177.5,349.0,178.0,346.0,178.5,338.5,187.5,339.5,184.5,335.0,189.0,334.5,191.0,330.0,191.5,332.0" stroke="black" stroke-width="1" fill="none" />
<polyline points="188.0,344.0,190.0,352.0" stroke="yellow" stroke-width="1" fill="none" />
<polyline points="195.0,353.0,193.5,353.5,194.5,350.5,194.5,348.5,193.0,347.5" stroke="black" stroke-width="1" fill="none" />
<polyline points="167.5,360.5,160.5,364.0,165.0,360.0" stroke="black" stroke-width="1" fill="none" />
<polyline points="165.0,365.0,168.5,359.5,164.0,364.5,162.0,366.5,160.0,363.0,162.0,359.0,163.0,353.5,167.0,352.0,169.0,344.5,174.5,342.5,177.5,337.5,178.0,334.0,183.5,332.5,177.0,331.0,170.0,334.5,170.0,335.5,165.0,341.0,165.0,336.0,163.0,333.5,164.5,331.5" stroke="black" stroke-width="1" fill="none" />
<polyline points="163.5,331.5,162.5,341.5,156.0,334.5,161.5,329.5,165.0,324.5,164.5,319.5,164.5,320.0" stroke="yellow" stroke-width="1" fill="none" />
<polyline points="166.5,323.0,170.5,320.5" stroke="orange" stroke-width="1" fill="none" />
<polyline points="174.0,315.0,168.0,317.5,166.0,326.5,165.0,321.0,166.0,323.5,159.0,332.5,155.5,338.5,153.5,341.5,149.0,336.5,143.5,347.0,142.0,338.0,143.0,338.0,135.0,337.0,136.0,331.5,139.5,326.0,134.5,321.5,133.5,319.0,129.0,309.0,133.0,311.0,130.5,303.5,131.0,305.5,134.5,299.5,133.5,296.0,139.0,291.5,138.5,289.5,141.0,282.5,136.5,278.5,136.0,278.0,134.5,280.0,140.0,284.0,142.0,277.5,148.0,275.0,142.0,272.0,146.0,268.0,152.5,264.5,158.5,256.5,158.0,253.5,163.5,250.0,164.0,247.5,160.5,242.5,152.5,251.0,156.0,251.0" stroke="black" stroke-width="1" fill="none" />
<polyline points="146.5,250.5,144.5,249.5" stroke="orange" stroke-width="1" fill="none" />
<polyline points="143.5,252.5,142.5,252.0,147.0,251.5,146.5,247.0,143.0,252.5,148.0,254.0" stroke="yellow" stroke-width="1" fill="none" />
<polyline points="145.0,267.0,141.5,268.0,140.0,272.5" stroke="black" stroke-width="1" fill="none" />
<polyline points="148.5,269.5,154.5,267.5,158.0,262.0,162.0,255.5,156.5,260.5,159.0,261.0,153.0,267.5,151.0,269.5,148.0,273.0,149.0,275.5,145.0,285.0,148.0,285.5,156.0,287.5,159.0,288.5,164.5,295.0,163.5,300.5,162.0,303.5,158.0,308.5,161.5,314.5,163.0,314.5,157.5,319.0,157.0,320.0,163.5,315.5,166.5,316.5,165.5,312.5,169.5,310.0,172.5,306.5,171.0,298.0,181.0,292.0" stroke="green" stroke-width="1" fill="none" />
<polyline points="182.5,298.5,179.5,301.0,179.0,302.0" stroke="green" stroke-width="1" fill="none" />
<polyline points="179.5,306.0,181.0,310.5,174.0,303.5" stroke="black" stroke-width="1" fill="none" />
<polyline points="176.0,300.5,174.0,300.0,184.0,303.5,184.0,311.5,181.5,312.5" stroke="black" stroke-width="1" fill="none" />
<polyline points="164.5,314.0,166.0,311.5,169.5,317.5,173.5,310.5" stroke="orange" stroke-width="1" fill="none" />
<polyline points="163.5,302.5,166.5,297.5,169.0,293.0,171.0,289.0,171.5,287.0,166.5,286.5,168.5,291.5,160.5,292.0,166.5,286.0,167.0,281.0,171.0,280.5,173.5,281.5,174.0,281.0,166.5,280.5,166.0,282.5,163.5,286.5,165.5,287.0,165.0,285.0,165.5,280.0,165.0,274.5,159.5,273.0,163.5,271.0,164.0,267.5,167.5,262.0,164.0,257.0,165.0,258.0,170.0,255.5,176.0,247.5,174.5,244.0,175.5,237.0,172.5,234.0,178.5,234.5,178.0,234.0,174.0,232.5" stroke="green" stroke-width="1" fill="none" />
<polyline points="179.0,233.5,182.0,235.5,177.0,242.5,177.0,245.5,179.0,249.5,174.5,252.0,176.5,255.0,181.0,258.0" stroke="black" stroke-width="1" fill="none" />
<polyline points="179.5,248.0,177.5,242.5,188.5,247.0,188.0,253.5,189.0,255.0,192.5,255.5" stroke="yellow" stroke-width="1" fill="none" />
<polyline points="224.0,271.5,220.5,274.5,226.0,269.5,228.5,270.5,227.0,272.5" stroke="black" stroke-width="1" fill="none" />
<polyline points="221.0,306.0,219.0,309.0,216.5,316.5,217.5,318.0,220.0,322.5,220.5,326.0,216.0,328.5,215.0,332.0,217.0,334.5,221.5,339.5,218.0,346.0,219.0,344.5,218.5,354.5,221.5,349.0" stroke="black" stroke-width="1" fill="none" />
<polyline points="252.0,379.0,252.0,381.5,253.0,381.0,257.0,387.0,260.5,385.0,265.0,385.0,264.0,383.5,262.0,386.5" stroke="black" stroke-width="1" fill="none" />
<polyline points="267.0,387.5,262.5,389.5,258.0,389.5,254.0,390.5,251.0,386.5,244.0,393.0,243.0,393.5,243.0,390.5" stroke="black" stroke-width="1" fill="none" />
<polyline points="273.0,352.5" stroke="black" stroke-width="1" fill="none" />
<polyline points="277.0,352.5,275.5,353.0,274.0,349.5" stroke="black" stroke-width="1" fill="none" />
<polyline points="220.0,369.5,222.0,364.5,219.5,363.0,218.5,358.0,217.5,349.5,219.0,351.5,222.0,344.0,222.5,339.0,222.0,333.5,222.5,327.0,221.5,324.5,224.5,318.5,222.5,317.0,222.5,315.5,220.5,307.5,221.5,304.0,220.5,310.0" stroke="yellow" stroke-width="1" fill="none" />
<polyline points="172.0,298.5,173.5,291.0" stroke="green" stroke-width="1" fill="none" />
<polyline points="172.5,295.0,172.5,296.5,178.5,306.5,174.5,312.0,171.5,316.5" stroke="yellow" stroke-width="1" fill="none" />
<polyline points="161.5,309.5,158.5,311.5,156.5,313.5" stroke="black" stroke-width="1" fill="none" />
<polyline points="163.0,313.5,165.0,311.5" stroke="black" stroke-width="1" fill="none" />
<polyline points="159.5,316.0,160.5,316.5,160.5,316.0" stroke="green" stroke-width="1" fill="none" />
<polyline points="160.0,296.0,153.0,293.5" stroke="yellow" stroke-width="1" fill="none" />
<polyline points="159.5,297.0,156.5,297.5,157.0,290.0" stroke="orange" stroke-width="1" fill="none" />
<polyline points="163.5,292.0,156.5,287.5,153.0,280.5" stroke="black" stroke-width="1" fill="none" />
<polyline points="149.5,280.5,154.0,286.5,158.0,287.5,166.5,295.5" stroke="black" stroke-width="1" fill="none" />
<polyline points="174.0,291.5,174.5,292.5,178.0,292.0" stroke="black" stroke-width="1" fill="none" />
<polyline points="181.0,294.5,178.5,297.5,176.0,299.0,175.5,307.5,166.5,310.0,167.5,306.5" stroke="black" stroke-width="1" fill="none" />
<polyline points="161.5,293.5,155.5,290.5,154.0,289.5,154.0,289.5,153.0,291.0" stroke="black" stroke-width="1" fill="none" />
<polyline points="149.0,292.0,150.0,291.0,156.5,296.0,157.5,299.0,165.5,298.5,166.5,293.0,165.5,290.0" stroke="black" stroke-width="1" fill="none" />
<polyline points="172.0,292.0,172.5,296.0,170.5,299.0,170.0,304.0,163.5,308.5,166.5,312.5,167.5,313.0,160.5,316.0,170.0,318.5,167.5,323.5,166.5,331.0,162.0,333.0,155.5,338.0,157.0,345.5,151.5,345.5,153.5,348.0,149.0,355.0,147.0,355.5,148.0,356.5,144.0,353.0,147.0,352.5,152.0,352.0,158.5,351.0,160.0,347.5,162.5,348.5,166.5,344.5" stroke="orange" stroke-width="1" fill="none" />
<polyline points="154.5,296.5,154.0,293.5" stroke="yellow" stroke-width="1" fill="none" />
<polyline points="157.5,288.0,160.5,286.0,161.5,283.0,162.5,278.5,163.5,273.5,161.0,267.0,160.0,266.0,164.5,259.5,162.0,257.0,161.5,257.5,164.0,258.5" stroke="black" stroke-width="1" fill="none" />
<polyline points="165.5,261.0,168.0,261.0,166.0,268.0,164.0,272.5,168.0,277.5,166.5,276.5" stroke="black" stroke-width="1" fill="none" />
<polyline points="159.0,279.5,161.0,280.5" stroke="black" stroke-width="1" fill="none" />
<polyline points="149.5,279.5,151.5,277.0,152.0,274.5,153.0,281.0,157.5,282.5,159.5,285.5,166.5,281.5,172.5,285.0,171.0,286.5,175.0,285.0,175.5,287.0,177.0,285.5" stroke="black" stroke-width="1" fill="none" />
<polyline points="174.5,286.0,173.0,291.5,166.0,292.0,166.5,291.0" stroke="green" stroke-width="1" fill="none" />
<polyline points="166.5,285.5,163.0,281.5,163.5,286.0,163.5,288.0" stroke="black" stroke-width="1" fill="none" />
<polyline points="159.0,299.0,157.0,298.0,152.0,294.0,150.5,288.0,151.0,280.0,146.0,275.0,151.0,270.0,152.5,269.0,157.5,265.0,161.5,264.0,161.0,257.5,163.5,256.0,167.0,250.0,166.0,246.5,166.0,241.0,166.5,239.0,162.0,247.5,158.5,255.5,154.0,259.5,148.0,261.0,144.5,261.0,142.5,256.0,137.0,266.5,134.0,264.5,138.0,263.0,130.0,260.5,130.5,267.5,126.5,272.5,132.5,261.5,130.0,256.0,133.5,256.0,127.0,251.5,127.5,249.0,136.0,243.0,135.0,242.0,139.5,237.5,137.0,232.0,135.0,230.5,133.0,223.0,130.0,225.0,133.5,218.5,130.5,214.0,129.5,212.5,128.0,207.5,123.0,200.5,124.0,198.0,121.5,194.5,123.5,190.5,121.0,185.0,119.5,181.5,117.0,178.5,119.5,172.5,117.0,167.0,122.5,165.0,120.0,161.0,117.0,154.5,116.5,150.0,119.5,148.5,124.0,143.0,124.0,140.0,122.0,135.0,123.5,133.5,125.0,131.5,127.5,126.0,127.0,120.5,131.5,118.5,132.5,114.0,133.5,110.0,134.0,106.0,138.5,101.5,133.5,102.0,141.5,97.0,131.5,105.5" stroke="green" stroke-width="1" fill="none" />
<polyline points="128.0,124.0,134.5,113.5,137.5,101.5,136.0,109.5,139.5,112.5,136.5,119.0,132.5,121.5,129.0,125.0,135.0,133.0,133.0,135.0,127.5,140.5,129.0,140.0,131.5,145.5,130.5,146.0,124.5,149.5,129.0,151.0,129.0,153.0,129.0,156.0" stroke="black" stroke-width="1" fill="none" />
<polyline points="128.0,151.0,133.0,153.5,134.0,157.0,133.5,159.5,132.5,160.5,132.0,166.0,128.0,170.0,131.5,166.5" stroke="yellow" stroke-width="1" fill="none" />
<polyline points="143.0,169.5,137.5,174.0,136.5,179.5,128.5,178.0,135.0,175.0" stroke="orange" stroke-width="1" fill="none" />
<polyline points="135.0,172.5,130.5,176.5,131.5,178.0,142.5,173.0,135.5,166.5,135.5,167.5" stroke="black" stroke-width="1" fill="none" />
<polyline points="143.0,165.5,139.5,172.5,139.0,178.5,137.0,178.5" stroke="black" stroke-width="1" fill="none" />
<polyline points="138.0,179.0,139.5,184.5,133.0,180.0,140.0,175.5,140.0,173.0" stroke="black" stroke-width="1" fill="none" />
<polyline points="150.0,170.0,147.5,174.5,144.0,179.0,144.0,181.5,136.0,185.0,135.5,191.0,140.0,196.5,135.0,192.5,140.0,196.0,142.0,192.5,144.5,198.5,145.5,202.0,148.0,201.5" stroke="orange" stroke-width="1" fill="none" />
<polyline points="151.5,197.0,149.0,194.5,147.5,192.5,147.0,194.5" stroke="yellow" stroke-width="1" fill="none" />
<polyline points="146.5,194.0" stroke="green" stroke-width="1" fill="none" />
<polyline points="142.0,194.0,146.0,198.5,139.0,197.0" stroke="green" stroke-width="1" fill="none" />
<polyline points="151.0,195.5,151.0,194.0,145.0,191.0,144.0,188.0,144.0,187.5,145.0,178.5,144.0,179.0,147.5,173.5,145.5,177.5" stroke="orange" stroke-width="1" fill="none" />
<polyline points="142.5,185.0,145.0,184.0,149.0,190.0,152.5,189.0,149.5,187.5" stroke="black" stroke-width="1" fill="none" />
<polyline points="149.5,187.5,151.0,188.5,142.0,182.0" stroke="green" stroke-width="1" fill="none" />
<polyline points="150.5,196.0,155.0,192.0,158.0,186.0,161.0,181.0,170.5,179.5,174.5,174.5,177.0,165.0,180.0,168.5,180.0,160.0,188.5,160.0,190.0,153.5,194.5,151.5,198.5,148.0,198.5,145.0" stroke="black" stroke-width="1" fill="none" />
<polyline points="207.0,148.0,207.5,148.5,215.5,154.5,219.0,159.0" stroke="black" stroke-width="1" fill="none" />
<polyline points="229.0,158.0,223.0,159.5,227.5,153.5,223.5,158.0,223.0,155.0,218.0,154.0" stroke="yellow" stroke-width="1" fill="none" />
<polyline points="216.5,150.0,217.0,150.0,221.0,152.5,228.0,162.0,229.0,156.5" stroke="orange" stroke-width="1" fill="none" />
<polyline points="226.5,171.0,221.0,171.5,218.5,181.0,214.0,185.5,208.5,188.0,205.5,192.5,203.0,195.5" stroke="green" stroke-width="1" fill="none" />
<polyline points="209.0,186.5,212.0,184.5,214.5,186.0,218.0,176.5,224.0,174.5,231.0,175.0,232.5,174.5,230.0,173.0,239.0,172.5,241.0,171.5,241.5,174.0,237.0,178.0,239.5,177.5,236.0,176.5" stroke="black" stroke-width="1" fill="none" />
<polyline points="231.5,184.5,230.5,183.0,227.5,182.5,227.5,188.5,220.5,191.0,215.5,198.5,211.5,202.5,204.5,208.0,200.5,212.5,206.0,217.0,201.5,216.0,202.5,220.5,205.0,227.5,209.5,224.5" stroke="black" stroke-width="1" fill="none" />
<polyline points="204.0,208.0,205.5,206.5,211.0,204.0,211.5,197.5,218.0,195.5,221.0,196.5,226.5,190.0,229.0,187.0,230.0,187.0" stroke="black" stroke-width="1" fill="none" />
<polyline points="227.0,195.5,216.0,201.5,211.5,201.5,209.5,205.0,207.0,206.0,207.0,213.0,208.0,203.0,215.5,201.0,219.0,199.0,223.5,196.5,224.5,194.5,229.0,189.5,231.0,195.5,227.5,194.0" stroke="black" stroke-width="1" fill="none" />
<polyline points="222.0,185.0,216.5,188.5" stroke="black" stroke-width="1" fill="none" />
<polyline points="223.5,183.0,218.5,179.5,222.0,182.5" stroke="yellow" stroke-width="1" fill="none" />
<polyline points="222.0,181.0,223.0,184.5,220.0,194.0,218.5,192.0,210.0,195.5,207.5,200.5" stroke="orange" stroke-width="1" fill="none" />
<polyline points="200.0,201.0,202.5,201.5" stroke="black" stroke-width="1" fill="none" />
<polyline points="197.0,200.0,202.5,197.0" stroke="green" stroke-width="1" fill="none" />
<polyline points="202.5,200.5,198.5,202.0,196.0,197.5,190.5,201.0,187.5,201.5,189.5,204.0,183.5,203.5,179.0,209.5,182.0,204.5,184.5,202.5,190.5,195.0" stroke="orange" stroke-width="1" fill="none" />
<polyline points="182.5,204.5,188.0,206.0,193.0,210.0,200.0,204.0" stroke="black" stroke-width="1" fill="none" />
<polyline points="194.0,203.0,194.5,214.5,194.5,210.0,188.5,218.5,180.5,223.0,183.0,221.0,192.0,216.0,188.5,212.5,185.0,211.0,183.0,211.5" stroke="yellow" stroke-width="1" fill="none" />
<polyline points="" stroke="black" stroke-width="1" fill="none" />
<polyline points="178.0,226.5,178.5,218.5,179.5,215.0,182.5,214.5" stroke="green" stroke-width="1" fill="none" />
<polyline points="174.0,211.5,171.0,215.0,171.0,217.0,176.5,213.5" stroke="black" stroke-width="1" fill="none" />
<polyline points="169.0,221.0,166.0,227.0,172.5,227.5,169.0,229.0,173.0,225.5,181.0,228.0" stroke="black" stroke-width="1" fill="none" />
<polyline points="183.0,226.5,181.0,226.5,178.0,232.5,168.0,231.5,162.0,239.0,167.0,237.5,165.5,239.5,165.5,240.5" stroke="green" stroke-width="1" fill="none" />
<polyline points="169.5,237.5,172.5,242.5,165.5,246.5,165.5,250.5,167.0,248.0,166.0,246.5" stroke="orange" stroke-width="1" fill="none" />
<polyline points="157.5,259.0,152.5,264.0,151.5,260.5,149.0,267.5,139.5,265.5,135.5,273.0,134.0,277.5,130.5,276.5,127.0,275.5,120.5,272.0,115.0,263.0,116.5,262.5,115.0,266.0,117.0,263.5" stroke="orange" stroke-width="1" fill="none" />
<polyline points="114.0,269.0" stroke="orange" stroke-width="1" fill="none" />
<polyline points="114.0,273.0,114.0,270.5,114.0,274.5,118.5,282.0,109.5,284.0,107.5,289.5,106.0,298.5,106.5,301.0,98.0,301.5,89.5,307.0,96.0,313.0,91.5,314.0,87.0,321.0,84.5,326.0,86.5,331.0,88.5,337.0,90.0,339.5,82.0,343.0,84.0,350.0,82.5,348.0,77.0,354.5,71.5,357.5,66.5,358.5,63.5,357.0,68.5,359.5,70.5,354.0,76.5,345.5,75.0,340.5,83.0,334.5,89.0,331.0,95.0,327.0,93.5,329.0" stroke="yellow" stroke-width="1" fill="none" />
<polyline points="90.0,325.0,95.5,325.5,94.5,323.5,93.5,326.0,86.0,330.5,89.0,336.5,82.0,340.0,77.5,344.5,77.5,345.0,73.5,350.0,69.0,355.5,65.0,360.0,60.0,361.0,62.5,365.5,67.0,363.5,70.0,357.5,75.0,349.0,80.0,344.5,83.5,341.0,87.5,337.5,86.5,344.5,90.0,343.5,91.5,345.0,87.5,352.5,87.0,357.0,82.5,360.0,80.5,365.5,79.5,365.5,81.5,372.5,85.0,373.5,83.5,370.0,90.0,359.5,92.0,354.5,96.0,348.0" stroke="black" stroke-width="1" fill="none" />
<polyline points="104.5,356.5,105.0,354.5,105.5,363.0,103.0,364.5,100.5,368.0,102.5,374.0,100.0,376.5,103.0,381.5,103.0,380.5" stroke="orange" stroke-width="1" fill="none" />
<polyline points="112.0,367.5,112.5,364.5,109.5,360.5,110.0,358.5" stroke="yellow" stroke-width="1" fill="none" />
<polyline points="110.0,357.5,112.5,364.5,114.0,363.0,107.5,360.0,115.5,367.5,115.5,365.5" stroke="green" stroke-width="1" fill="none" />
<polyline points="114.5,362.0,112.0,362.0,117.5,360.0,110.0,355.0" stroke="orange" stroke-width="1" fill="none" />
<polyline points="126.5,360.5,134.5,364.0,132.5,364.5,135.5,370.5" stroke="yellow" stroke-width="1" fill="none" />
<polyline points="84.0,352.5,80.5,361.0,78.0,366.0" stroke="black" stroke-width="1" fill="none" />
<polyline points="75.5,366.5,81.0,357.5,83.0,349.0,84.0,347.0,85.0,353.5,79.0,357.0,73.5,357.5,75.5,365.0,73.0,366.5,75.0,374.5,80.0,373.5" stroke="black" stroke-width="1" fill="none" />
<polyline points="79.0,380.0,79.0,382.0,73.0,392.0,70.0,393.0,60.5,393.0,63.5,395.5,56.0,402.0,61.0,400.5,64.0,395.0,70.5,391.0,77.0,385.5,76.5,385.5,76.0,384.0,69.5,384.5,67.0,393.5,65.5,395.5,63.0,397.0,56.5,405.5,66.5,399.0,69.0,394.5,76.5,388.0,79.0,383.5,80.0,382.5,82.5,375.0,86.5,373.5,83.5,369.0,88.5,362.5,87.5,354.0,90.0,358.0,91.0,354.0,92.5,354.5,95.0,350.0,95.5,345.0,96.5,348.0,98.5,342.5,92.0,350.5,96.5,344.5,96.0,339.5,100.5,341.5,96.5,332.0,95.0,328.0,98.0,324.0,98.5,321.0,98.0,316.0,96.0,311.0,102.0,308.0,103.0,302.5,106.5,300.0,103.0,305.5,100.0,309.0,96.5,317.5,97.0,313.0,99.0,312.5" stroke="black" stroke-width="1" fill="none" />
<polyline points="85.5,312.5,87.0,309.5,89.0,306.5,95.0,306.5,99.5,304.0,104.0,296.0,102.0,304.0" stroke="black" stroke-width="1" fill="none" />
<polyline points="97.5,301.5,94.0,301.5,91.5,306.0,97.5,300.0" stroke="green" stroke-width="1" fill="none" />
<polyline points="108.5,295.5,104.5,298.0,100.0,295.5,92.0,292.5,90.5,297.5,84.0,297.5,82.5,298.0,89.0,294.5,89.5,296.0" stroke="green" stroke-width="1" fill="none" />
<polyline points="86.0,294.5,78.5,297.0,82.5,298.5,86.5,292.5,91.0,292.5,95.5,292.5,95.0,291.0,106.0,288.0,102.0,291.0,104.0,286.0,106.5,289.0" stroke="orange" stroke-width="1" fill="none" />
<polyline points="112.5,287.0,114.5,289.0,108.5,286.0,110.5,286.5,109.5,278.0,113.0,275.0,114.0,273.0,115.0,269.0" stroke="black" stroke-width="1" fill="none" />
<polyline points="111.0,258.0,112.0,261.0,107.5,262.0,109.0,270.0,108.0,273.5,101.0,274.0,97.0,279.0,95.5,281.5,101.0,281.0,104.0,274.5,102.0,273.5,108.0,284.0,112.5,280.5,118.5,282.0" stroke="black" stroke-width="1" fill="none" />
<polyline points="113.5,278.5,109.0,278.5,102.5,283.5,99.0,285.0,95.5,287.0,91.5,284.5" stroke="yellow" stroke-width="1" fill="none" />
<polyline points="86.0,276.5,94.5,272.0,97.0,270.5,97.0,264.0,110.5,260.5,101.0,266.5,95.5,270.0,94.0,278.5,91.5,286.0,92.5,281.5,100.5,281.0,104.0,280.5,99.5,280.0,106.0,280.0,108.5,280.0,112.0,281.5,119.0,276.5,122.5,275.5,127.5,271.0" stroke="black" stroke-width="1" fill="none" />
<polyline points="130.0,264.0,128.5,269.5,128.5,268.0,122.5,269.0,115.5,274.0,102.5,285.5,99.5,287.0,95.0,298.0,98.0,299.5,88.5,307.0,81.5,310.5,86.0,307.5,84.0,314.0,71.0,323.0,79.0,314.0,80.0,311.0,79.5,310.0" stroke="black" stroke-width="1" fill="none" />
<polyline points="101.0,315.0,112.0,310.0,112.5,305.5,115.0,299.5" stroke="black" stroke-width="1" fill="none" />
<polyline points="127.5,301.5,123.5,302.5,121.0,306.5,119.0,307.5,113.0,310.0,108.0,317.5,101.5,316.5,100.5,326.5,102.5,323.0" stroke="yellow" stroke-width="1" fill="none" />
<polyline points="77.5,321.0,70.5,320.5,68.0,322.5,73.0,317.0,83.0,319.0,75.0,310.5,76.0,308.5,75.5,306.5,78.5,301.5" stroke="green" stroke-width="1" fill="none" />
<polyline points="73.5,308.0" stroke="black" stroke-width="1" fill="none" />
<polyline points="76.5,309.0,82.0,308.5,80.5,310.5,88.5,305.0,93.0,303.5,96.5,297.5,95.0,299.0" stroke="yellow" stroke-width="1" fill="none" />
<polyline points="98.0,312.0,96.0,320.5,97.0,318.5,102.0,317.0,102.5,307.0,103.0,305.0,107.0,301.0" stroke="black" stroke-width="1" fill="none" />
<polyline points="106.0,295.0,106.5,294.5,96.5,296.0,104.0,291.5,104.5,293.5,109.0,294.0,115.5,295.5" stroke="black" stroke-width="1" fill="none" />
<polyline points="109.5,288.0,105.0,290.5,105.0,290.0,105.0,291.0" stroke="black" stroke-width="1" fill="none" />
<polyline points="89.5,279.5,89.5,276.5" stroke="black" stroke-width="1" fill="none" />
<polyline points="121.5,289.0,118.5,293.0,121.5,296.0,113.5,297.5,110.5,304.5,104.5,309.0,103.0,314.0,101.5,317.0,98.5,324.0,102.0,325.0,100.0,328.5,105.5,331.0,96.0,336.5,95.0,340.5,100.5,338.0,105.5,338.0,107.5,333.0,110.0,327.0,116.5,317.0,123.5,305.5,120.0,301.5,123.0,300.5,124.5,307.5,131.5,315.5,133.5,315.5" stroke="yellow" stroke-width="1" fill="none" />
<polyline points="125.5,312.0,123.5,317.5,125.5,319.0,130.0,324.0,128.0,327.5,128.0,333.0,131.0,336.5" stroke="black" stroke-width="1" fill="none" />
<polyline points="120.5,312.5,120.5,312.5,119.5,319.5,118.0,325.0,110.5,327.0,109.0,332.5,110.0,340.0,102.5,338.0,100.5,343.0,99.0,347.0,99.5,351.0,96.0,352.5,93.0,356.0,94.0,360.0,92.0,365.0,93.0,368.0,89.0,373.0,93.5,377.0,92.5,382.5" stroke="black" stroke-width="1" fill="none" />
<polyline points="77.0,386.0,77.0,387.5,76.0,396.5,75.5,400.5,73.0,404.0,72.0,408.5,71.0,417.0,73.0,414.5" stroke="orange" stroke-width="1" fill="none" />
<polyline points="22.0,372.0,20.5,371.0,20.5,366.5,22.0,365.0" stroke="black" stroke-width="1" fill="none" />
<polyline points="124.5,285.0,125.5,290.0,121.0,297.0,119.5,301.0,111.5,306.5,108.5,308.0,102.5,313.0,104.5,308.5,104.5,302.5,111.5,297.5,117.5,297.0,119.5,296.5,127.5,292.5,129.5,287.5,136.5,290.0,138.0,285.5,135.5,288.0" stroke="orange" stroke-width="1" fill="none" />
<polyline points="138.0,264.5,136.5,261.5" stroke="black" stroke-width="1" fill="none" />
<polyline points="140.0,262.5" stroke="green" stroke-width="1" fill="none" />
<polyline points="135.0,246.0,136.0,245.0,137.5,246.5,144.0,245.5" stroke="black" stroke-width="1" fill="none" />
<polyline points="145.0,246.0,141.0,243.0,136.5,247.5,137.5,244.0" stroke="black" stroke-width="1" fill="none" />
<polyline points="139.5,242.0,138.0,233.5,132.0,224.5" stroke="black" stroke-width="1" fill="none" />
<polyline points="145.0,216.0" stroke="yellow" stroke-width="1" fill="none" />
<polyline points="150.5,212.0,151.0,211.5" stroke="black" stroke-width="1" fill="none" />
<polyline points="140.0,196.0,137.5,193.5,138.0,191.0,133.5,184.5,134.5,183.5,143.5,179.5,148.0,175.0,143.0,177.0,141.5,182.0,134.0,190.0" stroke="yellow" stroke-width="1" fill="none" />
<polyline points="139.5,185.0" stroke="black" stroke-width="1" fill="none" />
<polyline points="149.5,180.0,145.0,181.5,147.0,181.0,145.5,189.0,139.5,187.5,135.0,190.0" stroke="green" stroke-width="1" fill="none" />
<polyline points="138.0,198.5,137.5,199.0" stroke="orange" stroke-width="1" fill="none" />
<polyline points="139.5,193.5,143.5,196.5,148.5,200.5,146.5,207.0,146.5,212.5,143.5,215.0,149.0,204.0,153.5,198.5" stroke="yellow" stroke-width="1" fill="none" />
<polyline points="130.5,206.0,126.5,198.0" stroke="black" stroke-width="1" fill="none" />
<polyline points="113.0,223.5,114.0,226.0,109.5,227.5,109.5,230.0,117.5,230.0,112.0,225.5,109.5,225.5" stroke="black" stroke-width="1" fill="none" />
<polyline points="114.0,235.0,118.0,227.5,115.0,226.0" stroke="green" stroke-width="1" fill="none" />
<polyline points="127.0,251.5,116.0,254.5,115.5,262.5,110.0,264.5,114.5,257.5,121.5,254.5,120.5,253.0,127.0,247.5,130.0,243.5,137.5,239.5,144.0,236.5,148.5,235.0,156.5,231.5,155.0,228.5,158.5,229.0" stroke="black" stroke-width="1" fill="none" />
<polyline points="156.5,226.0,151.5,230.5,139.0,234.0,144.5,235.5,138.0,245.0,140.5,249.5,134.5,251.5,142.5,260.5,142.0,261.5,133.0,264.5,128.5,265.0,130.5,272.5,137.0,267.0,136.5,271.5" stroke="black" stroke-width="1" fill="none" />
<polyline points="151.5,253.5,157.0,256.5,156.5,252.5,160.5,247.5" stroke="yellow" stroke-width="1" fill="none" />
<polyline points="165.0,232.5,165.5,235.5,158.5,240.0,159.0,238.0,163.5,233.5,165.0,224.5,167.0,225.5" stroke="black" stroke-width="1" fill="none" />
<polyline points="164.5,226.0,166.5,227.5" stroke="orange" stroke-width="1" fill="none" />
<polyline points="171.0,228.5,170.5,235.0,167.0,236.0,163.5,239.0,162.0,247.0,154.5,249.0,150.0,249.0,149.5,253.5,153.0,257.0,151.5,253.5,144.0,261.0,139.5,262.0,137.5,270.0,138.0,277.0,130.0,275.5,132.5,285.5,129.0,291.5,131.0,299.5,125.0,302.5,128.5,309.0,128.0,308.5,125.0,315.0,121.0,317.5,121.5,326.5,123.0,328.0,123.0,330.0,125.5,333.0,121.0,337.0,123.5,339.5,129.5,341.0,133.5,349.5,133.0,350.5,133.5,352.5,135.0,358.0,137.5,364.5,139.5,363.0,145.5,367.0,144.5,372.0,146.5,375.0,149.0,380.5,141.5,388.0,150.0,391.5,148.0,392.5,150.0,398.5,152.5,398.5,150.5,402.0,151.0,406.0,153.5,406.0,156.5,411.5,159.5,413.5,162.5,416.0,158.0,423.5,156.5,422.5" stroke="green" stroke-width="1" fill="none" />
<polyline points="165.5,419.0,167.5,414.5,165.5,411.0,162.5,412.0" stroke="green" stroke-width="1" fill="none" />
<polyline points="" stroke="black" stroke-width="1" fill="none" />
<polyline points="199.0,431.5,199.0,429.0,195.5,428.5" stroke="yellow" stroke-width="1" fill="none" />
<polyline points="195.0,421.5,194.5,427.0,196.0,431.0,191.5,430.5,191.5,437.0" stroke="black" stroke-width="1" fill="none" />
<polyline points="197.0,404.5,199.0,400.5,193.0,403.0,198.5,393.5,197.5,396.0,196.0,397.5" stroke="black" stroke-width="1" fill="none" />
<polyline points="188.0,393.5,188.5,388.5,193.0,397.0,191.0,403.5,187.0,403.5,185.5,405.5,186.0,415.0,190.0,416.0,186.0,417.0,186.5,425.0,185.0,429.0,189.5,434.0,184.0,437.0,185.0,442.0,178.5,440.0,184.0,446.5,184.5,442.5,194.5,446.5,197.0,445.5" stroke="black" stroke-width="1" fill="none" />
<polyline points="379.0,357.5,378.0,355.5,380.0,350.0,378.0,348.0,378.0,346.0,379.0,338.0,379.5,335.5,378.5,336.5,376.0,326.5,375.5,324.5,376.5,318.0,373.5,310.5,372.5,310.5,376.5,306.5,376.0,302.0,372.0,298.0" stroke="orange" stroke-width="1" fill="none" />
<polyline points="380.0,287.0,380.0,284.5,378.5,286.5,378.5,282.5,383.0,275.5,381.5,267.0,382.0,266.0,385.0,270.5" stroke="black" stroke-width="1" fill="none" />
<polyline points="366.0,267.0,364.0,271.0,368.0,276.0,366.0,278.0,365.5,283.5,370.0,285.5,365.5,290.0,364.5,296.0,365.0,302.5,363.5,305.0,364.0,308.0" stroke="yellow" stroke-width="1" fill="none" />
<polyline points="350.0,275.5,344.0,279.0,334.5,282.0,330.5,282.0,327.0,279.5,321.0,276.0,323.5,273.0,322.5,269.0,327.0,273.5,325.0,274.0" stroke="black" stroke-width="1" fill="none" />
<polyline points="322.5,269.0,328.5,269.5,327.5,270.0,335.0,270.0,334.5,270.0,336.5,270.0,335.0,270.0" stroke="black" stroke-width="1" fill="none" />
<polyline points="322.5,280.5,317.0,275.0,317.5,273.5,317.0,270.0,321.0,266.5,325.5,262.0,328.0,256.5,334.5,252.5" stroke="black" stroke-width="1" fill="none" />
<polyline points="367.0,265.0,364.0,265.5,363.0,270.5,363.0,275.5,360.0,278.5,359.0,277.0" stroke="yellow" stroke-width="1" fill="none" />
<polyline points="297.0,225.0,291.5,225.0,292.0,231.0,283.5,234.5,288.5,231.0,295.5,224.5" stroke="black" stroke-width="1" fill="none" />
<polyline points="272.0,213.0,273.0,205.0,275.0,201.5,281.0,199.0,285.0,196.0,290.5,189.5,291.0,189.0,297.0,189.0,300.5,188.5,304.0,182.5,308.5,178.5" stroke="orange" stroke-width="1" fill="none" />
<polyline points="314.5,177.5,300.5,171.5,300.0,179.5,294.5,181.0,292.0,186.5,287.5,191.5,282.5,190.5,284.0,201.0,274.5,202.0,271.0,201.0,269.0,205.5,264.5,212.5,263.5,213.5,266.5,222.5,252.5,225.0,252.0,230.0,246.0,231.5,243.5,236.5,239.0,243.5,233.0,242.0,232.0,253.0,227.0,258.5,222.0,264.5,219.0,269.5,212.5,278.0,213.5,283.5,210.5,294.0,202.5,301.0,197.5,312.0,202.0,321.5,197.5,319.5,199.0,312.0,199.0,308.0,202.5,304.0,202.0,303.0,206.5,297.0,207.0,293.5,209.5,288.5,210.5,288.5,212.0,280.5,217.5,277.0,216.5,272.0,222.0,272.0,224.0,263.0,226.0,262.0,227.0,256.0,230.0,255.0,232.0,247.5,236.5,246.0,237.5,240.0,244.5,236.5,247.0,228.5,252.5,226.5,257.5,223.0,259.5,220.5,260.0,216.5,261.0,211.5,263.0,209.0,267.0,201.0" stroke="black" stroke-width="1" fill="none" />
<polyline points="266.5,202.5,264.5,212.5,265.5,205.5,260.5,206.5" stroke="yellow" stroke-width="1" fill="none" />
<polyline points="250.0,210.5" stroke="black" stroke-width="1" fill="none" />
<polyline points="218.0,194.5,209.0,199.0,218.0,189.5,218.0,186.5,225.5,187.0,224.5,183.0,226.5,184.5,229.5,183.5,227.5,183.0" stroke="black" stroke-width="1" fill="none" />
<polyline points="225.5,169.5,219.0,178.5,211.5,184.5,210.5,183.5,212.5,190.5,204.0,195.5,209.5,194.5,211.5,196.0,214.5,193.0,220.0,197.5,228.5,189.5,228.5,190.5,234.0,188.0,231.0,183.5,228.5,186.5" stroke="yellow" stroke-width="1" fill="none" />
<polyline points="245.0,175.5,242.5,178.0,237.0,186.0,233.0,183.0,237.0,182.5,243.0,181.0,246.5,179.0,253.5,179.0" stroke="yellow" stroke-width="1" fill="none" />
<polyline points="248.5,180.5,245.0,178.5,242.5,180.0,244.5,192.5,243.0,196.5,238.0,201.5,236.5,200.5,233.0,210.0,232.5,212.5,233.5,206.0,233.5,209.5,236.0,210.0" stroke="black" stroke-width="1" fill="none" />
<polyline points="264.0,184.0,264.0,190.0,257.0,193.5,250.0,199.0,247.0,203.0,254.0,202.5,254.5,196.0,258.0,191.0" stroke="black" stroke-width="1" fill="none" />
<polyline points="265.5,183.5,269.0,184.0,264.5,190.5,260.0,192.5,261.5,188.5" stroke="orange" stroke-width="1" fill="none" />
<polyline points="262.5,182.5,254.5,184.0,249.5,189.0,250.0,194.5,246.5,200.0,243.5,195.5,246.5,189.5,244.0,193.0,251.5,188.5,251.0,185.0,253.0,180.5,256.5,182.5,260.5,180.5,263.0,181.0" stroke="black" stroke-width="1" fill="none" />
<polyline points="268.5,176.5,271.0,175.0,277.0,179.5,279.0,178.0,278.0,176.5,284.0,175.0,293.5,179.5,294.0,180.5,290.0,183.0,285.0,190.0,283.0,194.5,276.5,195.0,274.5,198.5,274.5,195.0,270.5,197.0,270.0,194.5,275.0,195.0,279.5,195.5,283.0,189.0,287.0,185.0,292.0,181.5,296.0,178.5,304.5,178.0,304.0,176.0,306.0,169.5,315.5,167.0,315.0,169.0,322.0,165.0,326.0,162.0,330.0,161.5,336.0,156.5,337.5,152.5" stroke="green" stroke-width="1" fill="none" />
<polyline points="306.0,177.5,299.5,180.5,297.5,183.5,290.5,192.5,285.0,191.5,279.5,196.0,276.0,200.0,270.0,206.5,267.5,208.0,271.0,208.5,270.0,211.0,266.5,218.5,265.5,224.0,264.0,223.5,262.5,229.0,263.5,232.0,265.0,236.0,265.0,243.5,265.5,242.0" stroke="black" stroke-width="1" fill="none" />
<polyline points="272.5,191.5,271.5,187.5" stroke="yellow" stroke-width="1" fill="none" />
<polyline points="260.5,165.0,268.5,159.0,267.5,161.0,261.5,162.5,254.0,161.5,250.5,161.5,250.0,162.5" stroke="green" stroke-width="1" fill="none" />
<polyline points="252.5,162.0" stroke="black" stroke-width="1" fill="none" />
<polyline points="250.5,167.5,254.5,176.5,258.0,180.0,260.5,179.0" stroke="black" stroke-width="1" fill="none" />
<polyline points="241.5,140.5,247.0,142.5,254.0,140.0,256.5,134.0,258.0,132.5,260.0,130.0,253.5,131.0,250.0,135.5,248.0,142.0,242.0,146.5,239.5,143.5,233.0,142.0,233.0,144.0,234.0,144.5" stroke="black" stroke-width="1" fill="none" />
<polyline points="" stroke="yellow" stroke-width="1" fill="none" />
<polyline points="220.5,147.0,219.5,144.5" stroke="orange" stroke-width="1" fill="none" />
<polyline points="214.0,143.5" stroke="black" stroke-width="1" fill="none" />
<polyline points="201.5,152.0,206.5,147.0,214.0,149.5,213.0,157.0,216.5,155.5,222.0,160.0" stroke="orange" stroke-width="1" fill="none" />
<polyline points="206.5,160.5,201.0,161.0,202.0,160.0" stroke="orange" stroke-width="1" fill="none" />
<polyline points="203.5,160.5,204.5,168.0,202.5,164.5,190.0,175.5,188.0,178.0,183.0,182.5,183.0,186.0,172.0,188.5,175.0,193.5,167.0,196.0,164.5,201.0,160.0,200.5,167.5,195.5,172.5,193.5,177.5,191.0,179.5,183.0,184.5,182.0,187.5,177.0,195.0,175.5,197.5,171.5,203.0,166.5" stroke="yellow" stroke-width="1" fill="none" />
<polyline points="219.0,177.0,214.5,174.0,210.5,176.5,208.5,186.5,203.0,187.0,205.5,194.0,204.5,197.5,207.0,197.0,203.5,198.5,201.5,198.0" stroke="orange" stroke-width="1" fill="none" />
<polyline points="" stroke="black" stroke-width="1" fill="none" />
<polyline points="202.0,136.0,199.0,132.5,203.5,136.0,202.0,144.0,202.5,139.0,206.0,137.0,213.0,129.0,215.0,132.5,217.5,127.0,225.0,126.0" stroke="orange" stroke-width="1" fill="none" />
<polyline points="225.5,129.5,220.0,128.0,211.5,136.5,214.5,136.5,208.0,143.0,212.0,138.5,214.5,134.5,220.5,131.0,226.0,126.5,231.0,124.0,234.5,121.0,239.0,121.0" stroke="black" stroke-width="1" fill="none" />
<polyline points="236.5,118.5,231.5,120.5,229.0,127.5,220.0,133.0,208.0,138.5,203.5,140.0,203.5,142.0,197.5,143.0,194.0,151.5,189.5,152.5,189.5,159.0,180.0,161.5,177.0,165.5,173.0,171.0,169.5,173.0,164.5,179.5,161.0,184.0,156.0,188.5,154.0,192.0,149.5,198.5,153.5,198.5,154.0,201.0,148.5,205.5,147.0,213.5,146.5,215.5,144.5,219.0,141.0,222.0,141.0,225.5,139.5,233.5,138.0,239.0,142.5,240.0,142.0,240.5,132.0,242.5,132.0,253.0,131.5,257.0,136.5,256.0,134.0,258.0,140.0,258.0,138.5,256.5" stroke="green" stroke-width="1" fill="none" />
<polyline points="132.5,178.5,140.5,174.5,140.0,171.0,140.0,164.0" stroke="orange" stroke-width="1" fill="none" />
<polyline points="129.5,141.0,129.0,135.0" stroke="black" stroke-width="1" fill="none" />
<polyline points="157.0,128.0,153.0,131.0,154.0,137.0,155.0,134.5,158.5,125.0,161.5,128.0" stroke="black" stroke-width="1" fill="none" />
<polyline points="182.5,123.5,183.0,125.0,177.0,129.5,184.5,122.5,189.5,119.0,189.5,120.5" stroke="green" stroke-width="1" fill="none" />
<polyline points="190.0,125.0,184.5,125.5,176.0,127.0,180.5,124.0,181.5,126.0,186.0,122.5,189.5,120.0,189.5,119.5" stroke="black" stroke-width="1" fill="none" />
<polyline points="188.0,134.5,187.5,133.0" stroke="black" stroke-width="1" fill="none" />
<polyline points="197.5,121.0,195.0,123.5,198.5,119.0" stroke="green" stroke-width="1" fill="none" />
<polyline points="195.0,109.0,198.5,110.5" stroke="yellow" stroke-width="1" fill="none" />
<polyline points="230.0,127.0,224.5,130.0,219.5,129.0,215.5,134.5,214.0,141.0,210.0,144.5,204.0,143.5,197.0,148.5,196.0,155.5,196.5,151.5,200.0,148.5,206.5,142.0,215.5,135.5,219.0,135.0,225.5,131.0" stroke="black" stroke-width="1" fill="none" />
<polyline points="253.0,140.5,250.0,140.0,247.5,146.0,242.5,142.5,238.0,151.5,232.0,152.0,232.0,155.0,224.5,159.5,220.5,162.0,220.5,161.5,222.5,156.5,228.0,154.5,235.5,150.5,240.0,148.5,247.0,142.5,249.0,141.5,254.5,132.0,265.0,126.0" stroke="black" stroke-width="1" fill="none" />
<polyline points="277.5,147.0,288.0,145.5" stroke="black" stroke-width="1" fill="none" />
<polyline points="298.5,136.0,296.5,134.5,293.0,142.5,291.0,143.5,294.5,134.5" stroke="black" stroke-width="1" fill="none" />
<polyline points="311.0,179.5,301.0,182.5,295.5,184.5,291.0,189.0,287.5,197.5,281.5,200.0,278.0,202.5,274.0,206.5,271.5,210.5,272.5,214.5,270.5,214.5,272.0,212.0" stroke="yellow" stroke-width="1" fill="none" />
<polyline points="231.0,100.0,230.5,104.0,226.5,106.0,222.0,108.5,225.5,105.0,229.5,102.5,237.5,97.5,237.0,98.5,238.5,99.0" stroke="yellow" stroke-width="1" fill="none" />
<polyline points="234.0,100.0" stroke="black" stroke-width="1" fill="none" />
<polyline points="245.5,89.5,244.0,94.5,246.5,93.0" stroke="green" stroke-width="1" fill="none" />
<polyline points="261.0,88.0,257.5,92.0,252.0,92.5,249.0,92.5,247.0,94.5,240.0,99.5,236.0,102.5,229.5,104.0,226.5,105.5,224.5,110.5,217.5,116.5,217.5,116.5,213.0,121.0,208.5,121.5,205.0,126.5,201.0,131.0,195.5,133.0,190.0,133.0,186.5,140.0,180.0,144.0,176.5,147.0,173.5,151.0,169.5,154.0,166.5,159.0,163.0,163.0,156.5,163.5,151.5,166.0,154.0,173.5,159.0,172.0,161.5,167.5,165.0,161.5,168.0,155.0,175.5,157.5,178.0,149.0,183.5,142.5,188.5,142.5,191.0,137.5,197.0,138.5,203.0,125.0,203.5,127.0,209.5,120.5,217.0,113.5,220.5,117.0,226.0,110.5,232.5,107.0,239.0,100.0,244.5,98.5,249.5,94.0,256.0,90.0,261.5,86.0" stroke="orange" stroke-width="1" fill="none" />
<polyline points="238.0,79.0,230.0,81.0,226.5,85.5,230.0,86.5,231.0,85.5" stroke="black" stroke-width="1" fill="none" />
<polyline points="235.5,45.0" stroke="orange" stroke-width="1" fill="none" />
<polyline points="230.0,46.5,228.0,53.0,226.5,48.0,229.5,47.5,230.0,48.0,242.0,46.5,246.0,48.5,248.5,51.0,253.5,53.5,256.0,57.5,263.5,53.0,263.5,56.5,268.5,58.0,270.5,64.0,278.5,66.0,281.0,67.0,282.0,69.5,287.0,73.0,291.5,77.0,293.5,78.0,296.0,83.5,304.0,86.5,306.0,91.5,310.5,101.0,314.5,97.0,322.0,103.0,324.5,110.0,326.5,113.5,332.5,122.5,334.0,128.0,340.0,129.5,343.0,139.5,346.0,145.5,351.0,146.0,351.5,145.0,357.5,137.0,363.0,136.0,367.5,135.5,372.5,132.0,377.0,131.0,381.0,127.0,386.5,127.0,388.0,117.0,392.0,115.5,395.0,113.0,399.0,113.5,406.0,111.0,408.0,113.0,410.5,115.5,412.5,115.5,417.0,123.0" stroke="black" stroke-width="1" fill="none" />
<polyline points="411.0,117.5,414.0,125.0,417.5,128.0,413.5,134.0,421.5,134.5,418.0,142.0,417.0,144.0,422.5,142.5,413.0,150.0,418.0,154.5,415.0,164.0,412.5,165.0,408.0,171.0,405.5,175.5,406.0,173.5,404.5,178.0,408.0,177.5,403.5,179.5,401.0,185.0,393.0,190.0,396.0,195.0,385.5,206.5,382.5,203.0,377.5,214.0,373.0,212.5,367.5,216.5,368.0,213.5,375.5,211.0,374.5,208.5,384.0,210.0,383.5,205.0,391.5,196.5,394.0,195.5,397.5,189.5,400.5,188.5,403.5,182.5,411.5,170.0" stroke="yellow" stroke-width="1" fill="none" />
<polyline points="370.0,132.5,369.0,126.0,369.0,126.0" stroke="black" stroke-width="1" fill="none" />
<polyline points="387.0,105.0,382.5,100.0,374.5,99.0,380.0,100.5" stroke="black" stroke-width="1" fill="none" />
<polyline points="381.0,95.5,373.0,100.5,383.5,104.0,388.0,103.0" stroke="black" stroke-width="1" fill="none" />
<polyline points="439.5,64.5,427.5,56.5,429.5,50.0,427.5,47.0,418.0,33.5,417.0,28.0,417.0,23.5,410.5,9.5" stroke="yellow" stroke-width="1" fill="none" />
<polyline points="514.0,74.0,511.5,81.0,506.0,80.5,504.0,88.5,497.5,87.5,496.5,97.0,488.0,102.5,485.5,104.5,488.5,109.0,482.0,112.5,479.5,116.0,477.0,119.5,472.5,127.0,470.0,128.0,468.0,132.0,470.0,133.5,464.5,139.5,460.0,148.5,458.0,148.5,458.0,152.0,454.5,156.0,449.5,165.0,449.5,166.0,445.5,169.5,442.0,171.0,443.5,177.0,440.0,184.5,437.0,189.0,437.0,190.5,433.5,199.0,431.5,202.5,431.0,204.5,430.0,207.5,425.5,213.5,426.5,216.5,422.5,220.0,423.0,222.5,418.5,229.5,418.5,234.0,414.5,235.0,413.5,244.0,412.0,245.5,410.0,247.5,414.0,249.0,413.0,257.0,406.0,261.0,406.0,260.5,407.5,266.5,405.5,271.0,401.5,276.5,403.5,280.0,401.5,283.0,396.0,286.5,402.0,290.0,402.0,291.0,398.0,298.0,397.5,304.5,393.0,307.5,391.5,308.5,391.5,313.5,388.0,318.5,393.5,321.0,390.0,327.0,389.5,329.0,384.5,334.5,383.0,338.0" stroke="yellow" stroke-width="1" fill="none" />
<polyline points="347.5,141.0,341.0,135.0,344.0,136.0,336.0,130.0,336.5,126.0,332.5,123.0,333.0,119.0,327.0,115.0,327.5,112.0,321.5,107.5,319.0,104.0,313.0,98.5,312.0,96.0,303.0,94.5,303.5,89.0,299.5,84.0,298.0,79.0,293.5,76.5,284.0,66.5,278.5,68.5,276.0,64.5,270.0,60.0,266.0,56.0,253.0,51.0" stroke="green" stroke-width="1" fill="none" />
<polyline points="213.0,51.0,202.5,51.5" stroke="green" stroke-width="1" fill="none" />
<polyline points="170.0,59.0,171.0,62.0,160.5,67.5,162.5,69.0,169.5,65.0" stroke="black" stroke-width="1" fill="none" />
<polyline points="164.0,63.5,160.0,69.0,156.0,74.0,153.5,77.0,154.5,79.0,156.5,71.5,160.0,70.5,159.5,72.5,157.5,73.5" stroke="black" stroke-width="1" fill="none" />
<polyline points="161.0,71.5,161.5,75.0,154.0,78.5,153.0,84.5" stroke="black" stroke-width="1" fill="none" />
</svg>