<svg xmlns="http://www.w3.org/2000/svg" width="1024" height="1024" version="1.1" fill="white"><polyline points="407.5,6.0,408.0,5.5,409.0,16.5,407.0,18.5,416.5,25.5,418.0,26.0,425.5,32.5,420.5,32.5,429.0,35.0,429.0,36.0,428.0,48.5,434.0,48.5,432.0,55.0,437.0,58.5,434.0,62.5,438.5,68.0,444.0,71.5" stroke="black" stroke-width="1" fill="none" />
<polyline points="456.0,58.0,455.0,52.5,448.5,46.0,443.5,38.0,443.0,35.5,436.5,25.0,432.5,19.0" stroke="yellow" stroke-width="1" fill="none" />
<polyline points="423.0,4.5,429.0,6.5,426.0,5.5,429.0,9.0,430.0,15.0,434.0,17.5,434.5,18.5,437.0,23.0,444.0,30.5,439.5,35.0,447.0,37.5,452.0,40.5,450.0,42.0,449.5,48.0,453.0,56.5,457.5,55.5,457.0,62.0,453.0,66.0,456.0,72.5,447.0,73.5,443.0,78.0,437.0,82.0,437.5,86.0,434.5,90.0,431.5,94.5,428.5,96.0,426.0,101.5,423.0,108.0,423.5,104.5,420.5,109.5,421.0,111.5,423.0,105.5,427.0,98.5,435.0,92.0,437.0,85.0,441.0,85.0,443.5,77.5,445.0,75.0,451.0,66.5,453.0,67.0,462.0,54.0,468.5,52.0,467.0,47.5,470.5,43.0,482.5,45.0,478.0,38.0,486.0,25.5,491.0,27.0,491.5,27.0,497.5,19.5,504.5,11.5,508.0,8.0,510.5,7.5" stroke="orange" stroke-width="1" fill="none" />
<polyline points="506.5,5.5,508.5,12.5,504.0,17.0,500.0,21.5,495.5,21.0,492.5,24.0,487.5,27.5,483.0,33.5,482.5,38.5,470.5,45.0,472.0,44.5,465.0,51.0,463.5,55.5,458.0,56.5" stroke="black" stroke-width="1" fill="none" />
<polyline points="507.0,76.5,507.5,82.0,504.5,75.0,502.5,86.0,500.0,91.0,495.5,98.0,489.5,94.5,485.5,104.5,481.0,103.5,478.0,113.5,468.0,113.0,470.0,124.0,468.5,128.0,461.5,136.0,460.0,143.0" stroke="black" stroke-width="1" fill="none" />
<polyline points="447.0,160.0,446.5,166.0,439.0,171.0,441.0,172.0,436.5,170.0" stroke="orange" stroke-width="1" fill="none" />
<polyline points="436.5,173.5,444.5,180.5,435.5,182.5,435.5,186.0,435.0,187.0,435.5,185.5" stroke="orange" stroke-width="1" fill="none" />
<polyline points="425.0,200.5,427.5,212.5,424.5,215.5,424.5,222.0" stroke="black" stroke-width="1" fill="none" />
<polyline points="416.5,234.0,414.0,244.5,417.5,245.5,416.5,247.0" stroke="black" stroke-width="1" fill="none" />
<polyline points="399.5,279.5,400.5,288.5,402.5,288.0" stroke="yellow" stroke-width="1" fill="none" />
<polyline points="388.5,296.5,379.0,285.5,378.0,284.0,383.5,284.5,392.5,273.5,390.5,276.5" stroke="green" stroke-width="1" fill="none" />
<polyline points="376.0,267.5,374.5,265.0,375.0,261.5,376.5,259.0,374.5,254.5,373.0,257.0,372.5,246.5,371.5,241.0,372.0,236.0,372.0,234.0,369.5,234.0,374.5,227.5,372.5,225.0,376.5,225.0,370.5,215.0,368.0,218.0,368.0,223.0" stroke="black" stroke-width="1" fill="none" />
<polyline points="377.5,239.5,375.0,242.5,374.0,240.5,376.5,240.5,377.0,240.0" stroke="green" stroke-width="1" fill="none" />
<polyline points="367.5,247.5,371.0,255.0,366.0,252.5,372.0,257.5,372.5,265.5,371.0,271.0,370.0,267.5,369.5,273.0,370.5,273.5,367.5,274.5" stroke="black" stroke-width="1" fill="none" />
<polyline points="376.5,276.5,373.0,279.5,379.0,283.0,371.0,295.5,382.5,292.5,381.0,293.0,378.5,301.5,376.5,303.5,375.0,310.5,375.0,309.0,381.0,315.0,384.0,318.5,379.0,324.0,382.0,329.5,380.0,334.5,380.0,339.0,384.0,340.0" stroke="black" stroke-width="1" fill="none" />
<polyline points="367.5,353.5,365.5,353.5,365.5,354.5,373.5,363.0,376.5,366.0,374.5,366.5,371.0,372.0" stroke="yellow" stroke-width="1" fill="none" />
<polyline points="372.0,376.0,373.5,377.5" stroke="black" stroke-width="1" fill="none" />
<polyline points="383.0,384.0,381.5,387.0,380.5,390.5,379.5,396.0,386.0,400.0" stroke="orange" stroke-width="1" fill="none" />
<polyline points="363.0,430.5,360.0,424.0,355.5,416.5,354.5,412.0,350.5,409.0,344.5,405.0,336.5,403.0,337.0,400.0,331.0,403.0,332.0,399.5,321.5,397.0,319.5,388.5,316.5,392.0,310.0,390.0,309.5,391.5,303.5,387.0,301.5,385.5,302.5,393.5,303.0,391.0" stroke="black" stroke-width="1" fill="none" />
<polyline points="312.0,382.5,316.0,378.5,321.0,370.0,321.0,363.0,328.5,353.0,329.0,348.5,337.0,345.0" stroke="black" stroke-width="1" fill="none" />
<polyline points="356.5,327.5,352.5,330.0,355.0,332.5,353.5,334.5,354.0,341.0,355.5,336.5" stroke="black" stroke-width="1" fill="none" />
<polyline points="357.5,351.0,354.5,364.5,356.0,364.5,353.5,366.5,356.5,374.5,352.0,380.0,353.5,381.0,356.0,391.5,355.0,395.0,350.5,391.0,352.5,402.0,351.5,407.0,352.0,405.5,352.0,411.0,351.5,413.0,350.5,415.0,350.0,413.5" stroke="orange" stroke-width="1" fill="none" />
<polyline points="360.5,388.0,359.0,382.5,358.5,376.5,362.5,368.5,357.0,370.0,360.5,362.0,358.0,363.5" stroke="yellow" stroke-width="1" fill="none" />
<polyline points="361.5,360.0,362.5,361.0,363.0,370.0,357.0,374.0,361.5,376.0,357.0,379.0" stroke="black" stroke-width="1" fill="none" />
<polyline points="358.0,356.5,355.0,359.0,352.5,364.0,355.0,366.0,356.0,371.5,354.0,372.5,355.5,378.0,352.5,381.0,352.5,388.5,352.0,391.5,355.0,399.0,359.0,397.0,355.0,405.0,352.5,407.5,359.0,409.5,355.0,410.0" stroke="yellow" stroke-width="1" fill="none" />
<polyline points="370.5,467.0,374.0,459.5,375.0,460.0,375.0,454.5,372.0,447.0,372.0,445.5,374.0,440.5,374.0,438.5,374.5,429.0,374.5,430.5,377.5,427.5,376.0,423.5,376.5,418.0,378.0,407.5,376.5,408.0,377.0,404.5,372.0,402.5,377.0,400.0,377.5,392.0,379.5,391.0,375.5,384.5,381.0,378.0,376.5,374.0,375.5,372.0,373.5,366.5,380.5,369.0,381.5,359.0,377.5,358.0,381.0,350.0,377.5,348.0,376.5,344.5,374.0,343.0,373.5,336.5,377.0,332.0,375.5,329.5,374.0,327.5,373.5,322.5,374.5,317.5,372.0,313.5,373.0,309.5,374.0,304.0,373.5,302.0,377.0,297.5,373.0,290.5,369.5,286.5,369.0,283.0,367.0,278.0,371.5,277.0,368.5,269.5,366.5,270.0,369.0,264.5,373.0,257.5,367.5,254.5,364.0,252.5,366.5,247.5,367.5,245.5,368.5,237.5,365.5,233.5,362.5,233.5,362.0,227.5,362.0,224.0,360.0,217.5,356.5,216.5,359.0,211.5,357.5,206.0,354.0,206.5,346.5,197.0,349.5,201.5,346.5,195.5" stroke="green" stroke-width="1" fill="none" />
<polyline points="" stroke="black" stroke-width="1" fill="none" />
<polyline points="353.5,206.5,351.0,206.0" stroke="yellow" stroke-width="1" fill="none" />
<polyline points="356.0,195.0,354.0,192.0" stroke="yellow" stroke-width="1" fill="none" />
<polyline points="360.0,189.5,359.0,191.5,358.0,198.0,357.5,203.0,358.5,204.5,357.0,201.5" stroke="orange" stroke-width="1" fill="none" />
<polyline points="352.5,209.0,350.0,199.5" stroke="black" stroke-width="1" fill="none" />
<polyline points="348.5,198.5,351.0,203.0" stroke="yellow" stroke-width="1" fill="none" />
<polyline points="347.5,207.5,342.5,200.5,338.0,202.0,339.0,203.0" stroke="black" stroke-width="1" fill="none" />
<polyline points="345.0,211.5,347.5,214.0,353.0,210.0,359.5,217.5,354.5,226.0,358.5,228.0,363.5,234.5,362.5,239.0,363.0,241.0,362.5,246.0,366.0,251.5" stroke="black" stroke-width="1" fill="none" />
<polyline points="364.5,249.0,363.0,242.5,365.0,244.0,365.0,246.5,362.5,249.0" stroke="black" stroke-width="1" fill="none" />
<polyline points="347.5,236.5,348.0,239.5,337.0,242.0" stroke="black" stroke-width="1" fill="none" />
<polyline points="345.0,250.0,337.0,253.0,334.5,257.5,331.0,257.5,331.5,259.0,327.5,255.0" stroke="black" stroke-width="1" fill="none" />
<polyline points="332.0,253.5,336.5,248.0,340.5,246.0,342.0,246.5,349.5,249.0,348.5,244.5" stroke="orange" stroke-width="1" fill="none" />
<polyline points="350.5,252.5,350.0,257.5,344.5,260.5" stroke="black" stroke-width="1" fill="none" />
<polyline points="336.0,261.5,340.5,264.0,340.5,269.0,343.0,272.0,340.0,282.5" stroke="orange" stroke-width="1" fill="none" />
<polyline points="341.5,283.5,344.5,279.0,349.0,279.5,351.5,284.5,352.5,288.5,353.0,290.5,348.5,294.5,350.0,300.0,351.5,303.0,348.0,308.5,342.5,310.5,348.5,314.5,342.0,319.5,341.5,320.0,345.0,324.5,338.5,326.5,335.0,332.5,333.5,336.5,336.0,338.5,328.0,343.0,329.5,353.0,329.5,350.0,325.5,356.0,321.5,359.5,319.5,362.5,321.5,369.5,319.5,374.0,316.0,376.5,316.5,380.5,316.5,384.5,314.5,388.5,323.0,388.5,329.0,396.5,338.0,402.5,341.0,405.0,344.5,412.5,351.5,414.0,352.0,416.5,358.0,420.0,360.5,427.5,358.0,432.5,362.0,433.5,362.5,435.5,364.5,440.5,364.5,445.5,368.0,449.0,368.5,453.5,369.0,459.5,371.5,462.5,366.5,469.0,373.5,472.0,370.0,476.0,375.0,478.5,375.0,481.0,377.0,486.5,381.0,484.5,382.0,492.0,383.0,496.5,380.5,499.0,379.5,504.0,388.0,510.5,390.0,512.5,386.5,518.5" stroke="black" stroke-width="1" fill="none" />
<polyline points="422.5,491.0,427.5,490.0,430.5,482.0,435.5,483.5,442.0,482.0,443.5,479.0,448.5,475.5,449.5,466.0,460.0,465.0" stroke="black" stroke-width="1" fill="none" />
<polyline points="451.5,472.5,454.0,476.5,447.5,468.0,449.0,466.0,454.5,467.0" stroke="orange" stroke-width="1" fill="none" />
<polyline points="451.0,448.5,461.5,443.0" stroke="black" stroke-width="1" fill="none" />
<polyline points="470.0,423.0,475.0,413.0,477.0,411.5,482.5,402.5,485.0,404.0,492.0,396.5,492.5,395.5,495.0,392.5,498.5,390.5,504.5,388.5,504.5,385.0,513.5,382.0,511.5,380.5,513.5,382.0" stroke="yellow" stroke-width="1" fill="none" />
<polyline points="512.0,381.0,513.0,381.5,502.0,387.5,495.0,388.5,489.5,396.0,486.5,405.5,482.5,404.0,478.0,406.5,476.5,411.0,473.0,418.5,470.0,424.5,470.0,420.5,467.0,427.0,464.5,430.5,460.0,434.0,460.5,437.5,456.0,441.5,459.0,445.5,456.5,452.0,457.5,455.0,456.5,453.0,455.0,458.5,451.0,465.5,446.0,476.5,449.5,475.0,445.0,481.5,442.5,484.5" stroke="green" stroke-width="1" fill="none" />
<polyline points="435.5,481.0,432.0,476.0,435.0,478.0,433.5,479.5,437.0,476.5,436.5,470.5,438.0,468.0,438.5,463.5,436.0,455.5,439.5,456.5,437.0,453.0" stroke="yellow" stroke-width="1" fill="none" />
<polyline points="434.5,456.0,429.5,449.0,427.5,452.5,432.5,442.5,436.0,437.5,439.0,436.5,437.5,428.0,432.0,433.0,431.5,432.5,431.5,429.5" stroke="yellow" stroke-width="1" fill="none" />
<polyline points="429.0,467.0,428.5,469.5,420.5,478.0,423.5,474.5,420.5,484.5,424.5,491.5" stroke="orange" stroke-width="1" fill="none" />
<polyline points="419.0,469.5,417.5,474.0,423.0,477.0,424.5,472.5,430.5,467.5,430.0,463.5,434.5,461.0,433.5,459.5" stroke="orange" stroke-width="1" fill="none" />
<polyline points="483.5,409.5,475.0,409.5,475.0,412.0,478.0,413.5,483.5,408.0,481.0,398.0" stroke="black" stroke-width="1" fill="none" />
<polyline points="445.0,426.5,446.5,426.0,447.5,421.5,446.5,412.5,447.5,409.5,447.0,412.5,450.0,405.0,453.5,398.5,452.5,393.5,451.5,391.0,454.0,385.0,453.0,381.0,451.5,378.5,453.5,378.0,455.5,372.5,453.0,366.5" stroke="black" stroke-width="1" fill="none" />
<polyline points="385.5,342.0,389.5,339.5,385.5,334.5,381.5,328.5,383.5,327.0" stroke="black" stroke-width="1" fill="none" />
<polyline points="364.5,353.5,368.0,358.5,368.5,360.0,368.5,365.0,367.0,364.0,365.0,377.5,364.5,384.0,363.0,383.5,371.0,385.5,373.0,383.5,375.0,389.5,371.5,389.5" stroke="black" stroke-width="1" fill="none" />
<polyline points="319.0,344.5" stroke="black" stroke-width="1" fill="none" />
<polyline points="315.5,349.5,316.5,350.5,311.0,350.5" stroke="black" stroke-width="1" fill="none" />
<polyline points="309.0,352.0,301.5,354.0,297.5,355.0,299.5,354.0" stroke="black" stroke-width="1" fill="none" />
<polyline points="294.5,356.0,306.0,360.5,306.5,360.5,311.5,358.5,307.5,358.0,307.0,364.5,307.0,365.0,305.0,367.5" stroke="black" stroke-width="1" fill="none" />
<polyline points="313.0,348.0,310.0,348.5,304.5,348.5,300.0,348.0,296.5,349.5,290.0,350.5" stroke="green" stroke-width="1" fill="none" />
<polyline points="306.0,333.5,306.5,325.5,314.0,330.5,312.0,325.0,307.5,329.5,304.0,331.5,303.0,332.5,306.5,330.5,311.0,329.0" stroke="orange" stroke-width="1" fill="none" />
<polyline points="310.5,326.0,311.5,326.0,301.5,331.0,299.5,326.5" stroke="black" stroke-width="1" fill="none" />
<polyline points="291.0,328.0,291.0,326.0,303.0,323.5,301.0,323.5,295.5,318.5,297.5,315.5" stroke="black" stroke-width="1" fill="none" />
<polyline points="319.0,329.0,325.0,328.0,323.5,320.0,323.0,319.5,321.0,313.0,320.0,308.5,322.5,309.0,320.5,305.0" stroke="yellow" stroke-width="1" fill="none" />
<polyline points="" stroke="orange" stroke-width="1" fill="none" />
<polyline points="333.5,271.5,336.0,273.5,335.0,271.5,332.0,270.0,329.0,265.5,331.5,264.0" stroke="orange" stroke-width="1" fill="none" />
<polyline points="326.5,269.0,330.5,273.0,328.0,271.5,329.0,275.0,333.0,268.5,329.5,272.0,325.0,267.0,327.5,265.5" stroke="green" stroke-width="1" fill="none" />
<polyline points="325.0,272.5,323.5,271.5,324.5,272.0" stroke="black" stroke-width="1" fill="none" />
<polyline points="" stroke="orange" stroke-width="1" fill="none" />
<polyline points="318.5,264.5,325.0,264.0,330.5,262.5,334.0,260.5,337.0,262.0,340.0,254.5,343.5,259.5,352.0,252.0,350.0,250.0" stroke="black" stroke-width="1" fill="none" />
<polyline points="348.5,239.5,348.5,234.5,346.5,236.5,345.0,226.5,345.5,224.5,343.0,223.0,344.5,216.0,341.5,214.5" stroke="yellow" stroke-width="1" fill="none" />
<polyline points="336.0,206.5,342.0,196.5,345.5,201.0,351.0,199.5,355.0,196.5,360.5,195.0,360.0,191.0,369.5,188.5,370.5,183.5,373.0,182.5,378.5,181.0,377.5,188.5,385.5,179.5,390.5,182.0,394.0,172.5,398.5,170.5,401.0,177.5,404.0,169.0,403.0,172.5,402.5,177.5,396.0,184.5,391.5,184.5,385.0,191.5,380.0,190.5,385.0,191.5,391.5,188.5,391.5,183.5,393.5,175.0,402.0,176.0,398.0,176.5" stroke="black" stroke-width="1" fill="none" />
<polyline points="405.5,166.5,406.0,156.0,404.0,157.0,406.0,161.5,398.5,170.5,389.0,176.0" stroke="black" stroke-width="1" fill="none" />
<polyline points="373.0,179.0,373.5,182.0,364.5,187.0,354.5,191.0,346.5,190.5,342.5,196.0,335.5,200.0,337.5,205.5,341.5,207.0,348.5,212.5,352.0,213.0" stroke="green" stroke-width="1" fill="none" />
<polyline points="337.0,211.0,339.0,210.5,345.0,206.5,338.0,212.0,338.5,212.5" stroke="black" stroke-width="1" fill="none" />
<polyline points="338.0,207.5" stroke="black" stroke-width="1" fill="none" />
<polyline points="341.0,205.5,345.5,208.5,352.5,215.5,353.5,218.0,352.0,217.0" stroke="yellow" stroke-width="1" fill="none" />
<polyline points="355.0,206.0,351.0,204.5,348.0,204.0,345.0,203.0,337.5,206.5" stroke="black" stroke-width="1" fill="none" />
<polyline points="343.0,204.5,350.5,203.5" stroke="green" stroke-width="1" fill="none" />
<polyline points="347.0,196.0,349.0,190.5" stroke="orange" stroke-width="1" fill="none" />
<polyline points="344.0,195.5,346.0,198.5,344.5,204.0,350.5,204.5,356.5,203.0" stroke="yellow" stroke-width="1" fill="none" />
<polyline points="" stroke="black" stroke-width="1" fill="none" />
<polyline points="368.0,198.0,371.0,197.0,372.5,190.0" stroke="green" stroke-width="1" fill="none" />
<polyline points="396.5,154.0,391.0,157.0,392.5,161.0,383.5,166.5,387.0,169.5,383.0,175.5,381.0,176.0,385.0,172.5,383.5,165.0,393.5,156.0" stroke="black" stroke-width="1" fill="none" />
<polyline points="399.0,159.5,397.5,167.0,391.0,171.0,392.0,175.5,388.5,174.5,393.0,170.5,396.0,166.0,401.0,161.0,404.0,163.0" stroke="yellow" stroke-width="1" fill="none" />
<polyline points="400.0,123.0,393.0,128.5,386.5,130.5,385.0,136.0,385.5,134.5,386.5,132.5,392.5,124.0" stroke="green" stroke-width="1" fill="none" />
<polyline points="402.0,114.5,390.5,126.5,388.0,127.5,384.0,128.5,385.5,132.0,380.5,128.0,395.5,118.5,399.0,117.0,398.5,119.5" stroke="green" stroke-width="1" fill="none" />
<polyline points="395.5,117.0,387.0,125.0,383.5,125.5,377.5,128.0,373.0,133.0,367.0,140.5,353.5,141.5,351.5,141.5,349.5,142.5" stroke="green" stroke-width="1" fill="none" />
<polyline points="326.0,155.5,318.5,157.5,319.5,162.5,309.5,165.5,304.0,168.5,301.0,176.0,297.5,179.0,301.5,180.0" stroke="yellow" stroke-width="1" fill="none" />
<polyline points="287.5,179.0" stroke="black" stroke-width="1" fill="none" />
<polyline points="277.5,173.0,281.0,176.0,282.5,173.0" stroke="orange" stroke-width="1" fill="none" />
<polyline points="287.0,179.5,281.0,177.5,281.0,179.5" stroke="black" stroke-width="1" fill="none" />
<polyline points="272.0,173.5,274.5,179.5,282.5,178.0,277.0,175.0,275.0,173.0,275.5,174.0" stroke="yellow" stroke-width="1" fill="none" />
<polyline points="271.0,181.5,262.0,179.5,261.0,176.5,255.0,176.5,258.5,174.5,246.5,169.5,243.0,170.5,242.5,165.0" stroke="yellow" stroke-width="1" fill="none" />
<polyline points="244.0,170.0,243.0,169.5,248.5,171.0,248.0,175.0,255.0,169.0,248.5,172.5,262.5,183.0,248.0,184.5,248.0,188.5,243.0,194.0,242.0,192.5,237.5,195.5,235.5,202.5,236.0,209.5,242.0,208.0,245.0,212.5,246.5,209.0,252.0,216.0,256.5,204.0,256.5,209.5,252.0,210.5,249.5,214.0,250.0,218.5,250.5,225.0,245.0,226.5,244.5,233.5,239.5,234.0,237.0,233.5,237.5,244.0,229.5,250.0,227.5,253.0,224.5,256.5,221.0,258.5,219.0,266.5,217.5,269.0,215.0,276.5,214.5,276.5,208.5,281.5,204.0,286.5,204.0,290.5,206.5,295.5,202.0,300.5,195.0,300.0,194.0,305.0,200.5,307.0,196.0,313.0,191.0,315.0,192.5,316.0,183.0,322.0,180.5,324.0,182.0,331.0,172.5,336.0,171.0,335.5,166.5,342.0,165.0,347.5,165.0,344.5" stroke="black" stroke-width="1" fill="none" />
<polyline points="153.5,351.0,160.0,354.0,159.5,357.0,155.0,360.5,156.5,367.0,155.0,369.5,159.5,378.5,156.0,374.0,156.5,381.0,154.0,384.5,154.5,388.0,155.0,391.0,150.0,391.5,160.0,401.5,162.0,406.0,164.5,406.0,168.5,411.0" stroke="orange" stroke-width="1" fill="none" />
<polyline points="166.0,409.0,167.5,412.5,163.0,407.5,160.0,410.5" stroke="black" stroke-width="1" fill="none" />
<polyline points="168.5,411.5,170.0,409.5,170.0,416.0,168.5,423.0,167.0,424.5,173.5,427.5" stroke="black" stroke-width="1" fill="none" />
<polyline points="172.0,434.5,169.5,432.5" stroke="black" stroke-width="1" fill="none" />
<polyline points="181.0,444.5,179.0,442.0,177.5,442.0,185.5,447.5,187.5,438.0,187.5,445.0" stroke="yellow" stroke-width="1" fill="none" />
<polyline points="180.5,444.0,186.5,444.5,185.5,448.5" stroke="yellow" stroke-width="1" fill="none" />
<polyline points="" stroke="orange" stroke-width="1" fill="none" />
<polyline points="" stroke="green" stroke-width="1" fill="none" />
<polyline points="175.0,455.5,176.5,460.5,175.5,464.5,168.5,468.0,168.0,470.5" stroke="orange" stroke-width="1" fill="none" />
<polyline points="165.5,469.0,156.5,472.0,153.5,473.0,149.5,470.0,143.0,453.5,139.0,456.0,137.5,457.5,133.5,464.5" stroke="black" stroke-width="1" fill="none" />
<polyline points="136.5,466.0,138.5,470.5,143.5,472.5,147.5,477.5,151.5,478.0,154.0,489.0,153.5,485.5,155.5,483.0,159.5,489.0,162.5,493.5,164.0,495.0" stroke="green" stroke-width="1" fill="none" />
<polyline points="163.5,502.0,169.0,504.5" stroke="black" stroke-width="1" fill="none" />
<polyline points="170.5,504.5,169.0,504.5,169.0,500.0,165.0,507.0,157.5,501.5,154.0,499.0,151.0,499.0,147.0,489.0,142.0,488.0,143.0,484.5" stroke="green" stroke-width="1" fill="none" />
<polyline points="142.0,479.5,142.5,492.0,148.0,494.0,145.5,500.5,147.5,501.0" stroke="yellow" stroke-width="1" fill="none" />
<polyline points="152.0,507.0,152.0,512.5" stroke="black" stroke-width="1" fill="none" />
<polyline points="147.0,491.0,146.5,492.5" stroke="orange" stroke-width="1" fill="none" />
<polyline points="157.0,494.0,155.0,491.5,155.5,502.0" stroke="green" stroke-width="1" fill="none" />
<polyline points="151.0,486.0,154.5,489.5,157.0,483.5" stroke="green" stroke-width="1" fill="none" />
<polyline points="149.5,491.5,150.0,488.5,152.5,493.0,155.5,491.5,156.5,495.0,153.5,499.0,160.0,505.5,156.5,507.0,161.0,508.5,162.0,508.0" stroke="green" stroke-width="1" fill="none" />
<polyline points="154.5,505.0,151.5,503.5,146.5,498.5,149.5,490.5,138.5,486.5,139.0,481.5" stroke="green" stroke-width="1" fill="none" />
<polyline points="142.0,491.0,145.0,491.5,152.0,491.5,150.5,500.5,149.0,503.0,150.0,507.5" stroke="black" stroke-width="1" fill="none" />
<polyline points="150.0,508.0,146.5,504.0,145.0,499.0" stroke="black" stroke-width="1" fill="none" />
<polyline points="145.0,502.5,144.0,502.5,145.5,507.0,154.0,508.0,156.0,517.0" stroke="orange" stroke-width="1" fill="none" />
<polyline points="139.0,513.0,143.0,509.0,144.5,506.5,138.5,496.5,137.5,497.0,140.5,494.0,131.0,486.5,131.0,485.0" stroke="orange" stroke-width="1" fill="none" />
<polyline points="140.0,486.5,136.0,491.0,142.0,496.5,134.0,499.5,140.5,502.0,139.5,500.5" stroke="green" stroke-width="1" fill="none" />
<polyline points="128.0,498.5" stroke="green" stroke-width="1" fill="none" />
<polyline points="122.0,499.0,126.5,499.0,125.0,506.5" stroke="yellow" stroke-width="1" fill="none" />
<polyline points="122.0,512.0,129.0,507.5,124.0,496.0,123.5,497.5,126.0,489.5" stroke="green" stroke-width="1" fill="none" />
<polyline points="127.0,498.5,129.0,503.5" stroke="green" stroke-width="1" fill="none" />
<polyline points="133.5,514.5,132.0,509.0,128.5,502.5,129.0,506.5" stroke="orange" stroke-width="1" fill="none" />
<polyline points="140.5,493.0,138.5,486.0,138.5,480.0,140.5,480.5" stroke="black" stroke-width="1" fill="none" />
<polyline points="132.5,480.0,134.5,490.5,136.0,494.5,131.5,495.5,137.5,505.0,138.0,505.0,140.5,511.0,138.5,517.0,138.0,511.5" stroke="orange" stroke-width="1" fill="none" />
<polyline points="162.5,512.0" stroke="green" stroke-width="1" fill="none" />
<polyline points="167.0,495.5,158.0,495.0" stroke="black" stroke-width="1" fill="none" />
<polyline points="168.0,483.5,160.0,481.5,161.5,478.0" stroke="yellow" stroke-width="1" fill="none" />
<polyline points="167.5,478.0,167.5,478.0,169.5,482.5" stroke="green" stroke-width="1" fill="none" />
<polyline points="162.0,466.0,161.0,467.0,170.0,468.0,172.5,472.5,167.0,477.5,161.5,483.5,163.5,488.5,167.0,493.5,171.0,492.5" stroke="yellow" stroke-width="1" fill="none" />
<polyline points="200.5,493.0,204.0,487.5,206.0,488.5,207.0,487.5,208.0,479.5,213.0,483.0,218.0,479.5,224.5,472.5" stroke="orange" stroke-width="1" fill="none" />
<polyline points="231.0,464.0,235.5,455.0,235.5,457.5" stroke="green" stroke-width="1" fill="none" />
<polyline points="219.0,478.5,221.0,473.0,223.0,470.0,227.5,465.5,230.0,463.5,233.0,456.0,233.0,453.0,235.5,451.5,234.0,446.0,234.0,444.5,238.5,439.0,237.0,435.0,238.5,433.5,235.5,424.5,241.5,427.5,234.0,420.5,231.0,414.5,231.0,411.5,233.0,404.5,231.0,404.5" stroke="yellow" stroke-width="1" fill="none" />
<polyline points="225.5,409.0,225.0,408.0,223.0,415.0,224.5,417.5,225.0,411.0" stroke="yellow" stroke-width="1" fill="none" />
<polyline points="232.0,414.5,224.0,416.0,219.0,416.0,226.0,419.5,224.5,423.5,220.5,419.0" stroke="green" stroke-width="1" fill="none" />
<polyline points="243.0,413.0,242.5,417.0,250.0,417.0,246.5,423.5,244.0,428.0,240.0,423.0,240.5,433.0,238.5,438.5,243.0,445.0,239.5,446.0,242.0,448.0,235.5,452.0,236.5,457.0,233.5,457.5,234.5,467.5,232.0,471.0,223.0,475.5,224.5,477.5,225.5,480.5,220.5,485.0,210.0,488.5,217.0,491.0" stroke="black" stroke-width="1" fill="none" />
<polyline points="195.0,499.5,200.5,492.5,207.5,493.0,204.5,495.5,210.0,493.0,212.5,493.5,216.0,489.0,222.0,486.5,227.5,479.0" stroke="yellow" stroke-width="1" fill="none" />
<polyline points="199.5,450.0,200.0,446.0,197.0,449.5,197.5,448.5,191.0,447.5" stroke="black" stroke-width="1" fill="none" />
<polyline points="193.5,448.5,190.0,447.5,185.0,448.5,178.5,450.0,182.5,451.0,181.5,450.0,184.0,442.0,184.0,435.5,180.0,434.5,175.5,432.0,182.0,429.5,182.5,428.0,178.5,421.0,179.0,421.5,178.5,413.5,174.5,413.0,172.0,407.0,167.5,401.0,164.0,397.5,160.5,393.5,159.5,390.0,156.0,386.5,162.5,380.5,167.0,377.0,163.0,379.5" stroke="black" stroke-width="1" fill="none" />
<polyline points="164.0,377.5,164.0,371.0,168.5,367.5,173.5,361.5,178.5,357.0,182.0,348.5,182.0,341.5,185.5,343.0,193.0,334.0,199.5,332.0,200.0,323.0,198.0,322.5" stroke="black" stroke-width="1" fill="none" />
<polyline points="201.0,314.5,206.5,321.5" stroke="green" stroke-width="1" fill="none" />
<polyline points="191.5,317.0,197.5,305.0,195.5,301.0,204.0,291.0,204.5,291.0,211.5,277.0,218.5,271.5,216.5,262.0,220.5,260.0,227.0,249.0,233.5,246.0,234.5,239.5,241.0,232.5,243.0,230.0,246.0,226.0,253.5,223.0,256.5,218.0,258.5,215.0,253.0,211.0" stroke="orange" stroke-width="1" fill="none" />
<polyline points="269.0,228.0" stroke="black" stroke-width="1" fill="none" />
<polyline points="261.5,234.0,269.0,232.5,259.0,237.0,260.0,240.5" stroke="black" stroke-width="1" fill="none" />
<polyline points="263.5,240.5,260.5,235.5,260.0,229.5,261.5,221.0,261.5,226.5,255.5,225.0,252.5,229.0,247.5,231.5,244.0,232.0,245.0,246.5,240.0,245.0,231.5,253.5,232.0,257.0,224.5,265.0,220.0,271.5,217.0,281.0,214.5,283.0,214.5,279.0,217.5,279.5,222.0,272.5,222.5,267.0,223.5,262.5,226.5,259.5,229.5,259.0,236.0,250.0,232.5,249.5,240.5,241.5,243.5,240.0,242.5,242.5,252.5,229.0,257.5,226.0,259.5,221.0,262.0,219.0,264.5,213.0,262.5,214.5,265.0,214.0,265.5,211.0,268.0,204.0,270.5,199.0,270.5,198.0,268.0,189.0,268.5,186.0,265.0,192.0,259.5,195.0,256.5,200.5,257.5,203.0,255.5,206.0,258.0,204.5" stroke="yellow" stroke-width="1" fill="none" />
<polyline points="253.0,199.5,252.0,196.0,253.5,195.5" stroke="yellow" stroke-width="1" fill="none" />
<polyline points="255.5,207.5,257.0,214.0,253.5,215.0,247.0,221.5,245.5,227.5,243.5,230.5,230.5,234.5,230.5,234.0,231.0,237.0,230.0,230.0,236.0,227.5,230.5,220.5,228.0,219.5,228.5,216.5,227.5,216.5,225.0,215.0,228.5,203.5,226.5,202.5,223.0,204.5,224.0,203.5" stroke="black" stroke-width="1" fill="none" />
<polyline points="232.0,201.0,239.0,202.0,234.5,207.0,228.5,206.0,233.0,206.0" stroke="black" stroke-width="1" fill="none" />
<polyline points="235.5,201.0" stroke="black" stroke-width="1" fill="none" />
<polyline points="237.5,191.5" stroke="black" stroke-width="1" fill="none" />
<polyline points="242.5,203.0,249.5,194.0,251.0,191.5,259.5,188.0,246.5,186.5,245.5,193.0,241.5,196.0,249.0,191.5,253.0,186.5,257.0,187.5,259.0,189.5,263.0,185.0,265.0,178.5,269.5,183.5" stroke="green" stroke-width="1" fill="none" />
<polyline points="259.5,182.0,256.0,185.0,250.5,195.5,255.0,191.5,254.5,198.0,251.0,198.5,244.0,200.5,241.5,209.0,245.0,206.5,253.0,203.0,250.5,198.0,251.0,198.0,263.0,192.5,261.0,191.0,266.0,185.0,268.0,194.5,271.0,189.5" stroke="black" stroke-width="1" fill="none" />
<polyline points="265.0,187.5,261.5,190.0,261.5,198.0,258.0,202.0,260.0,199.0,259.5,190.5,266.5,190.0,269.0,186.0,273.5,187.5" stroke="yellow" stroke-width="1" fill="none" />
<polyline points="261.0,193.0,259.5,196.0,258.5,198.0,253.0,201.5,246.5,209.0,252.0,210.0,251.5,218.0" stroke="green" stroke-width="1" fill="none" />
<polyline points="263.5,207.5,266.5,201.0,262.5,202.0,261.0,208.0,263.5,208.0,258.0,215.5,255.5,218.0,250.5,225.0,248.5,224.5,242.5,231.5,243.0,231.5,235.0,242.0" stroke="orange" stroke-width="1" fill="none" />
<polyline points="229.5,223.0" stroke="black" stroke-width="1" fill="none" />
<polyline points="" stroke="black" stroke-width="1" fill="none" />
<polyline points="220.5,216.0,221.5,217.5,226.5,225.0,229.0,223.0" stroke="green" stroke-width="1" fill="none" />
<polyline points="211.0,228.0,214.0,229.0" stroke="black" stroke-width="1" fill="none" />
<polyline points="223.0,231.0,222.5,234.0,226.5,240.5,220.5,242.0,224.0,248.0,221.5,247.0" stroke="black" stroke-width="1" fill="none" />
<polyline points="216.5,254.5,221.0,255.5,223.0,248.0,221.0,245.5,225.0,238.5,232.0,234.5,220.0,233.5,220.0,231.0,220.0,229.5,217.5,223.5,218.0,223.5,217.5,219.0,218.0,213.0" stroke="black" stroke-width="1" fill="none" />
<polyline points="218.0,215.5,218.0,218.5,222.0,229.0,215.5,229.0,217.0,234.5,221.5,229.5,230.5,241.5,229.0,245.5,232.0,246.5" stroke="black" stroke-width="1" fill="none" />
<polyline points="225.5,248.5,223.5,253.0,218.5,263.0,214.5,270.0,210.0,273.0,204.0,282.5,202.0,288.0,198.0,295.0,196.0,305.0,189.5,318.5,189.5,317.0,181.5,325.5,179.0,325.5,174.0,328.5,174.5,331.0,168.0,333.5,161.0,337.5,159.0,339.0,152.0,342.5,147.0,348.5,147.0,348.0" stroke="yellow" stroke-width="1" fill="none" />
<polyline points="140.0,346.0,141.5,346.0,148.5,333.5,147.0,341.5,146.5,334.0,147.0,334.0,152.5,328.5,148.5,325.0,147.5,324.5" stroke="green" stroke-width="1" fill="none" />
<polyline points="152.0,333.5,153.0,333.0" stroke="orange" stroke-width="1" fill="none" />
<polyline points="145.5,352.5,148.0,348.0,146.0,351.5" stroke="black" stroke-width="1" fill="none" />
<polyline points="147.0,350.0,137.5,346.0,133.0,340.0,132.0,339.0,134.0,333.5,135.5,331.5,130.5,326.5,131.5,322.5,132.5,318.5,132.0,316.5,131.5,309.5,127.0,304.5,130.5,297.5" stroke="orange" stroke-width="1" fill="none" />
<polyline points="130.0,296.5,128.5,297.5" stroke="green" stroke-width="1" fill="none" />
<polyline points="148.0,295.5,134.0,293.5,137.5,307.0,135.0,302.0,136.0,301.0" stroke="yellow" stroke-width="1" fill="none" />
<polyline points="129.5,296.5,128.0,290.5,132.5,291.0,136.0,290.0" stroke="black" stroke-width="1" fill="none" />
<polyline points="131.0,281.0,131.5,274.0,138.5,280.0,141.5,273.5" stroke="yellow" stroke-width="1" fill="none" />
<polyline points="144.0,270.5,151.5,267.5" stroke="orange" stroke-width="1" fill="none" />
<polyline points="152.0,264.0,154.5,268.0,153.5,272.5" stroke="black" stroke-width="1" fill="none" />
<polyline points="151.0,273.0,153.0,272.5" stroke="orange" stroke-width="1" fill="none" />
<polyline points="168.5,280.0,167.0,277.5,172.0,276.0,169.0,271.5,170.5,266.5,170.5,265.5,169.0,258.5,171.0,255.0,171.0,250.0,176.0,258.5,170.0,256.5" stroke="green" stroke-width="1" fill="none" />
<polyline points="166.0,254.5,168.5,251.5,178.5,247.5,181.5,251.0" stroke="orange" stroke-width="1" fill="none" />
<polyline points="167.0,262.0,170.5,259.0,174.5,261.0,168.5,264.0" stroke="black" stroke-width="1" fill="none" />
<polyline points="" stroke="green" stroke-width="1" fill="none" />
<polyline points="183.0,264.0,181.0,264.0,184.5,259.5,184.5,257.0" stroke="yellow" stroke-width="1" fill="none" />
<polyline points="179.5,261.0,178.5,261.0,178.5,263.0" stroke="black" stroke-width="1" fill="none" />
<polyline points="178.0,257.5,178.0,262.0" stroke="black" stroke-width="1" fill="none" />
<polyline points="188.0,257.5,188.5,260.5,183.0,262.5,189.5,264.5,185.0,265.0" stroke="black" stroke-width="1" fill="none" />
<polyline points="204.0,262.0,210.5,263.5,206.0,262.5,208.5,265.5" stroke="orange" stroke-width="1" fill="none" />
<polyline points="212.0,254.5,215.0,260.5,210.5,251.5,206.5,248.5,209.5,247.0,210.5,238.0,207.5,236.5,213.5,238.5,205.0,237.0,199.5,237.5" stroke="yellow" stroke-width="1" fill="none" />
<polyline points="206.5,239.5,211.0,240.5,210.0,246.0,215.0,243.0,216.0,242.5" stroke="black" stroke-width="1" fill="none" />
<polyline points="207.0,251.5,207.5,250.5,207.0,250.5" stroke="yellow" stroke-width="1" fill="none" />
<polyline points="215.5,257.5,214.5,257.0,217.0,263.5" stroke="black" stroke-width="1" fill="none" />
<polyline points="213.5,258.5,213.5,246.5,211.5,246.5,207.5,236.5,211.0,240.0,213.0,234.0,213.0,233.0" stroke="green" stroke-width="1" fill="none" />
<polyline points="213.5,235.0,211.0,238.5,211.5,247.5,212.0,247.0,211.5,251.5,210.0,254.5,213.5,261.0" stroke="black" stroke-width="1" fill="none" />
<polyline points="215.5,262.0,210.0,253.0,214.0,254.5,209.0,247.0" stroke="black" stroke-width="1" fill="none" />
<polyline points="203.5,266.0,201.5,261.5,194.0,256.5,199.0,253.5,192.5,248.5" stroke="black" stroke-width="1" fill="none" />
<polyline points="185.5,249.0,194.0,251.0,196.5,251.0" stroke="orange" stroke-width="1" fill="none" />
<polyline points="187.5,269.0,183.0,264.0,185.5,262.5,177.5,267.5,176.0,259.5,184.5,250.0,179.5,250.0,181.5,243.5,191.0,237.0,190.5,239.5,183.5,246.5,189.5,243.0" stroke="yellow" stroke-width="1" fill="none" />
<polyline points="184.0,230.0,188.5,228.0,190.0,222.0,195.0,219.0,196.5,218.0,190.5,227.0,195.0,229.0" stroke="black" stroke-width="1" fill="none" />
<polyline points="191.5,217.5,185.5,219.5,184.0,223.0,186.5,229.0,189.5,231.0,187.5,234.0,194.0,232.5" stroke="green" stroke-width="1" fill="none" />
<polyline points="184.5,236.0,185.5,239.0" stroke="yellow" stroke-width="1" fill="none" />
<polyline points="188.5,242.5,189.0,246.0,191.5,238.5,192.5,236.5,199.5,237.0" stroke="black" stroke-width="1" fill="none" />
<polyline points="212.0,228.5,211.5,230.5" stroke="black" stroke-width="1" fill="none" />
<polyline points="211.0,219.0" stroke="black" stroke-width="1" fill="none" />
<polyline points="215.5,213.5,210.5,212.0,215.5,218.0,213.5,225.5,217.0,232.5,217.0,236.5" stroke="black" stroke-width="1" fill="none" />
<polyline points="223.5,202.5,227.5,197.0,224.5,203.5,222.5,211.0,223.5,219.0,220.0,212.0,223.5,218.0,229.5,227.0,236.0,229.0,229.0,229.0,234.5,231.5,237.5,243.0,236.0,240.5,234.0,250.5,230.0,248.5,228.0,250.5,223.0,256.0,222.0,261.5,218.5,263.5,216.0,267.0,218.5,271.5,215.0,280.0,208.0,279.5,213.0,288.5,203.5,287.5,201.0,292.0,207.5,303.0,193.5,300.0,200.5,304.0,201.5,309.5,199.5,315.0,189.0,318.5,191.0,323.5,198.0,322.0,198.0,316.5,202.5,313.0,217.5,315.0,216.5,307.5,222.5,295.5,225.5,294.0,233.0,289.5,227.0,280.5,242.0,279.0,238.0,271.0,241.0,267.0,249.5,264.5,249.5,259.5,253.5,256.0,256.0,252.5,262.0,249.0,265.5,246.5,269.5,244.0,278.5,250.0,278.5,247.5,280.0,253.0,289.5,253.5,286.5,249.0,304.0,256.5,303.5,256.5" stroke="yellow" stroke-width="1" fill="none" />
<polyline points="" stroke="green" stroke-width="1" fill="none" />
<polyline points="286.5,257.0,288.5,269.5,290.5,276.0,290.0,274.0" stroke="green" stroke-width="1" fill="none" />
<polyline points="" stroke="black" stroke-width="1" fill="none" />
<polyline points="" stroke="yellow" stroke-width="1" fill="none" />
<polyline points="282.0,278.0,282.0,275.0,279.0,274.5,280.0,273.5" stroke="black" stroke-width="1" fill="none" />
<polyline points="283.5,268.5,282.0,265.0,276.5,267.0,270.5,265.0,274.5,266.5,269.0,265.0" stroke="orange" stroke-width="1" fill="none" />
<polyline points="270.5,268.0,272.5,267.0" stroke="orange" stroke-width="1" fill="none" />
<polyline points="268.5,270.0,264.5,268.0,267.5,266.5" stroke="black" stroke-width="1" fill="none" />
<polyline points="260.5,268.5,265.0,276.0,272.0,272.5,273.5,270.5,275.0,262.5,276.5,277.5,270.5,284.0,277.5,276.0,275.0,281.5,278.0,286.0" stroke="green" stroke-width="1" fill="none" />
<polyline points="264.5,282.0,266.0,277.0,258.0,271.5,254.5,270.5,259.5,268.0,258.5,271.5,256.5,276.0,256.0,275.0" stroke="black" stroke-width="1" fill="none" />
<polyline points="264.5,273.0,268.0,276.0,268.5,278.5" stroke="orange" stroke-width="1" fill="none" />
<polyline points="259.0,271.5,255.5,270.0,252.5,270.5,246.5,268.0,253.0,267.5" stroke="black" stroke-width="1" fill="none" />
<polyline points="244.0,270.0,246.0,268.0,251.0,268.0,252.5,272.5,256.0,277.0,254.0,277.0,263.5,277.5,268.5,276.0,271.0,279.5,273.5,283.0,280.5,280.0,287.0,275.5" stroke="black" stroke-width="1" fill="none" />
<polyline points="287.5,267.5,289.0,264.0,281.5,258.5,281.5,259.5,279.5,253.0,276.5,253.5" stroke="black" stroke-width="1" fill="none" />
<polyline points="279.0,259.0,277.0,255.5,274.5,250.5,266.5,252.0,268.5,249.5" stroke="black" stroke-width="1" fill="none" />
<polyline points="" stroke="black" stroke-width="1" fill="none" />
<polyline points="274.0,257.5,273.5,254.5,267.5,257.0,265.0,257.0,259.0,251.5,259.5,258.0" stroke="black" stroke-width="1" fill="none" />
<polyline points="267.0,267.5,267.0,269.0,263.5,273.5,272.5,271.0" stroke="yellow" stroke-width="1" fill="none" />
<polyline points="279.5,270.0,284.5,271.5,284.5,273.5,291.5,276.5,283.0,279.0,287.0,274.5,289.5,276.0" stroke="black" stroke-width="1" fill="none" />
<polyline points="" stroke="green" stroke-width="1" fill="none" />
<polyline points="276.0,244.0,268.0,244.5,258.5,247.0,255.5,250.5,255.0,256.5,245.0,261.0,246.0,268.0,240.5,268.0,237.0,272.5,235.5,278.5,231.5,284.5,224.5,289.0,224.0,286.5,218.0,298.0,217.0,295.5,213.5,301.5,209.5,301.0,207.0,309.0,203.5,312.0,198.5,319.0,206.5,316.0,198.0,323.5,192.0,328.5,193.0,334.0,184.0,335.0,185.0,341.5,185.5,343.5,179.0,347.5,172.5,356.5,173.5,355.5,170.0,362.5,166.5,370.0,164.0,372.5,159.5,377.0,160.5,378.0,156.5,387.0,162.0,389.5,163.0,395.0,171.0,399.5,176.0,404.5,178.5,406.5,175.5,403.0,175.5,398.5" stroke="black" stroke-width="1" fill="none" />
<polyline points="168.0,405.5,171.5,401.0,163.0,401.5,158.0,393.0,150.0,392.0,160.0,393.0" stroke="black" stroke-width="1" fill="none" />
<polyline points="" stroke="black" stroke-width="1" fill="none" />
<polyline points="140.0,381.5,140.0,377.0,137.5,374.0,140.0,370.5,138.5,371.5,138.0,372.0" stroke="black" stroke-width="1" fill="none" />
<polyline points="136.5,377.5,137.0,381.0,144.0,380.0" stroke="green" stroke-width="1" fill="none" />
<polyline points="137.0,404.0,133.0,409.5,127.5,414.0,128.5,414.0,131.0,419.0,133.0,422.5,137.0,426.5,138.0,430.5,136.5,437.5,139.0,441.5,134.0,442.5,140.0,445.0,138.5,453.0,137.0,454.0,136.0,461.0,138.5,458.5,138.5,469.0,140.0,466.5,139.5,467.5,146.0,474.5,146.5,479.0,151.0,482.0,154.5,484.0,159.0,485.5,168.0,485.0" stroke="black" stroke-width="1" fill="none" />
<polyline points="" stroke="orange" stroke-width="1" fill="none" />
<polyline points="177.5,462.5,176.5,463.5,180.5,457.5,172.5,463.0,175.0,457.0,175.5,451.5,169.0,447.0,165.5,447.0,170.0,439.5,164.5,437.5,169.5,433.5,169.5,432.5,170.5,433.0" stroke="black" stroke-width="1" fill="none" />
<polyline points="169.0,438.0,161.5,439.0" stroke="black" stroke-width="1" fill="none" />
<polyline points="159.5,427.0,157.0,424.5,160.5,419.5,161.0,426.0,158.0,418.5,166.0,412.0,159.5,415.0,162.0,409.5,160.0,404.5,161.5,403.5,161.5,393.5,153.5,396.0,155.5,391.0,155.5,383.5,151.0,377.0,152.0,379.0,151.0,370.0,152.5,370.5,151.5,365.0" stroke="green" stroke-width="1" fill="none" />
<polyline points="146.0,360.5,146.0,359.0,152.0,365.0,149.5,370.0,151.5,373.0,155.0,379.0,152.5,381.5,154.0,383.0,151.5,386.0,157.5,392.0,156.5,394.5,161.0,398.0,170.0,400.0,171.5,401.5,177.0,408.0" stroke="yellow" stroke-width="1" fill="none" />
<polyline points="169.0,418.5,171.5,420.0,177.0,426.0,176.0,428.0,175.0,431.5,172.0,437.0,171.5,439.0,169.5,440.5,170.0,447.0,173.5,452.5,175.5,453.0,178.0,461.5,174.0,462.0,174.0,468.0" stroke="black" stroke-width="1" fill="none" />
<polyline points="173.5,460.5,170.5,452.5" stroke="black" stroke-width="1" fill="none" />
<polyline points="162.5,448.0,160.5,448.0,161.5,450.0,166.5,454.5,166.5,461.0,171.5,461.0,168.0,467.0,168.0,470.0,161.5,466.5,162.0,477.5,164.5,476.0,159.0,480.5,161.5,486.0,164.0,485.0,160.0,492.5,159.5,495.0,163.0,501.0,171.5,502.0,174.5,512.5,174.0,512.5" stroke="orange" stroke-width="1" fill="none" />
<polyline points="157.5,468.0" stroke="black" stroke-width="1" fill="none" />
<polyline points="150.0,464.0,154.0,465.0,154.0,459.5" stroke="yellow" stroke-width="1" fill="none" />
<polyline points="" stroke="black" stroke-width="1" fill="none" />
<polyline points="150.0,456.5,152.5,453.5,157.0,451.5,151.0,447.5,150.0,445.0,149.5,437.5,145.5,437.5,146.0,429.5,144.0,425.5,139.5,425.0,138.0,423.0,138.0,414.5,132.0,410.0" stroke="black" stroke-width="1" fill="none" />
<polyline points="136.5,406.5,139.5,403.0,146.0,397.5,143.5,401.0,142.0,400.0" stroke="orange" stroke-width="1" fill="none" />
<polyline points="140.0,397.5,141.0,397.0,141.0,403.5" stroke="yellow" stroke-width="1" fill="none" />
<polyline points="139.0,401.0,140.5,405.5,143.5,406.0,146.5,410.5" stroke="yellow" stroke-width="1" fill="none" />
<polyline points="154.5,416.5,156.5,419.5,153.0,423.5,154.0,428.0,158.0,430.5,157.0,435.0,152.5,434.5,155.5,439.5" stroke="black" stroke-width="1" fill="none" />
<polyline points="164.0,441.0,165.5,446.5,175.0,446.5,176.5,445.5,183.5,439.0,178.5,434.5" stroke="black" stroke-width="1" fill="none" />
<polyline points="176.5,421.5,177.5,422.0,174.0,415.5,174.0,418.0,173.0,415.5,164.0,410.0,166.5,408.0,165.5,405.0,160.5,396.0,164.5,395.5" stroke="black" stroke-width="1" fill="none" />
<polyline points="165.0,404.5,167.0,405.0,170.0,407.0,176.0,414.5,172.0,421.5,167.0,420.5,165.5,429.0,160.5,428.0,162.0,429.0,161.0,433.5,162.5,439.5,160.5,434.5,166.5,431.0,171.5,426.0" stroke="yellow" stroke-width="1" fill="none" />
<polyline points="169.0,431.0,165.5,432.5,172.0,433.5,173.0,435.0" stroke="black" stroke-width="1" fill="none" />
<polyline points="167.0,443.5,163.5,445.0,156.0,449.5,154.5,453.0,159.0,454.5,162.0,457.0,163.0,462.0,163.0,459.5" stroke="orange" stroke-width="1" fill="none" />
<polyline points="163.0,458.0,162.0,459.0,163.0,454.0,164.0,451.0,158.0,451.5,156.0,447.5,158.5,444.5" stroke="green" stroke-width="1" fill="none" />
<polyline points="" stroke="black" stroke-width="1" fill="none" />
<polyline points="149.0,450.5,150.0,451.5,153.0,455.0,151.0,456.0,154.5,456.0,156.5,455.0,164.0,456.0,162.0,447.0" stroke="orange" stroke-width="1" fill="none" />
<polyline points="145.0,448.0,145.5,448.0,145.5,447.5" stroke="black" stroke-width="1" fill="none" />
<polyline points="147.0,453.0,148.0,461.5,150.0,463.0,148.0,468.5,153.0,467.0,150.5,476.5,156.5,476.0,156.0,477.5,156.5,480.5,163.0,480.5" stroke="black" stroke-width="1" fill="none" />
<polyline points="152.5,474.0,149.5,468.0" stroke="black" stroke-width="1" fill="none" />
<polyline points="145.5,461.5,151.0,466.5,153.0,467.0" stroke="yellow" stroke-width="1" fill="none" />
<polyline points="155.5,474.5,148.0,472.0,142.5,469.0,142.5,466.0" stroke="black" stroke-width="1" fill="none" />
<polyline points="139.5,453.5,142.5,456.0,147.0,458.5,141.5,462.0,145.5,475.0,145.0,473.0,153.5,475.0,157.5,481.5" stroke="green" stroke-width="1" fill="none" />
<polyline points="167.0,472.0,168.5,475.0,164.5,479.5,160.5,474.0,158.0,473.5,157.0,468.0,152.5,466.0,151.5,460.5,147.0,456.0" stroke="yellow" stroke-width="1" fill="none" />
<polyline points="143.5,456.0,146.0,456.5,144.0,461.0,145.0,470.5,149.0,468.5,153.5,471.0,156.5,476.0,159.5,477.0,157.5,486.5,157.5,490.5,162.0,490.5,166.5,494.5,167.5,500.5,168.0,501.5" stroke="orange" stroke-width="1" fill="none" />
<polyline points="168.0,456.5,164.0,454.5,164.5,451.5,156.5,447.5,156.0,448.0,156.0,447.5,156.5,446.0,154.5,441.5,154.5,437.0,155.0,436.5,146.5,430.5,147.0,429.5,147.5,428.5,141.5,424.5,141.5,422.5,138.5,425.0" stroke="black" stroke-width="1" fill="none" />
<polyline points="138.0,422.5" stroke="orange" stroke-width="1" fill="none" />
<polyline points="146.0,431.0" stroke="black" stroke-width="1" fill="none" />
<polyline points="146.0,418.0,141.0,419.0,145.0,415.0,138.5,409.0" stroke="orange" stroke-width="1" fill="none" />
<polyline points="137.0,411.0,141.0,410.0,145.5,419.0,145.5,424.5,150.0,421.5,149.5,428.5,152.0,431.0,153.5,431.5" stroke="green" stroke-width="1" fill="none" />
<polyline points="155.0,421.0,152.5,425.5,153.5,424.0,151.5,413.5,152.0,407.5,152.5,400.0,150.5,398.5,148.5,395.0,149.5,397.5,152.5,396.5" stroke="orange" stroke-width="1" fill="none" />
<polyline points="152.5,393.0,153.5,398.5,151.5,400.0" stroke="black" stroke-width="1" fill="none" />
<polyline points="157.5,399.5,160.5,394.0" stroke="orange" stroke-width="1" fill="none" />
<polyline points="149.5,403.0,145.5,396.5,141.0,395.5,136.0,397.0,129.5,403.5,128.5,400.0,125.0,400.0,123.0,394.5" stroke="black" stroke-width="1" fill="none" />
<polyline points="119.5,395.0,124.5,395.0,120.5,399.0,127.0,399.0" stroke="orange" stroke-width="1" fill="none" />
<polyline points="128.5,406.0,139.0,406.0,132.5,393.0,140.5,394.0,142.0,385.0,138.0,390.5,140.0,386.0,141.0,376.0,142.5,373.5,149.0,370.5,151.5,368.5,147.0,363.5,144.5,360.5,141.5,355.5,143.0,354.5,145.5,351.0,141.0,346.0,140.0,343.0,138.0,341.5,134.5,334.5,138.5,322.0,136.5,324.0,133.5,314.5,135.5,314.5,133.5,312.0,130.0,310.0,131.0,303.5,131.0,296.0,132.5,293.0,132.5,291.5,143.0,289.0,133.0,280.0,127.5,276.0" stroke="green" stroke-width="1" fill="none" />
<polyline points="123.5,268.5,127.5,275.5,135.0,283.0,130.0,284.0,129.0,288.5,125.5,294.0,124.5,298.0,122.5,299.0,126.5,306.0,116.5,303.0,120.0,312.5,120.5,316.5,119.5,318.5,122.0,322.0,120.5,330.0,121.5,332.5,122.5,337.5" stroke="black" stroke-width="1" fill="none" />
<polyline points="119.5,346.5,117.0,341.5" stroke="black" stroke-width="1" fill="none" />
<polyline points="116.0,346.5,123.0,344.5,121.5,357.5,122.5,363.5,117.5,367.0,117.0,369.5,117.5,366.0,113.0,378.0,115.5,383.5,118.5,383.5,116.0,389.0,118.0,396.0,120.0,399.0,125.0,398.5" stroke="green" stroke-width="1" fill="none" />
<polyline points="125.5,402.5,120.0,402.0,121.5,397.0,118.5,389.0,120.5,388.0,127.5,382.5,123.0,382.0,124.0,377.5,119.5,373.5,118.5,368.0,120.0,372.0,117.0,373.0" stroke="black" stroke-width="1" fill="none" />
<polyline points="125.5,373.5,125.0,382.0,126.5,384.0,130.5,387.0" stroke="orange" stroke-width="1" fill="none" />
<polyline points="124.0,387.5,126.0,391.0,122.0,391.5,125.5,388.0,130.5,398.5,127.5,398.0" stroke="black" stroke-width="1" fill="none" />
<polyline points="127.0,393.5,124.0,390.0,131.0,394.0,139.0,390.0,136.5,393.5,140.0,392.5" stroke="orange" stroke-width="1" fill="none" />
<polyline points="132.5,391.5,127.5,387.5" stroke="orange" stroke-width="1" fill="none" />
<polyline points="118.0,403.0,117.0,399.5" stroke="orange" stroke-width="1" fill="none" />
<polyline points="119.0,413.5,120.5,410.0,125.0,406.5,125.0,406.0,128.5,412.0,128.0,415.5,130.0,415.5,131.0,423.5" stroke="green" stroke-width="1" fill="none" />
<polyline points="130.5,427.5,131.5,421.0,127.5,417.0" stroke="yellow" stroke-width="1" fill="none" />
<polyline points="135.5,409.5" stroke="orange" stroke-width="1" fill="none" />
<polyline points="147.0,405.0,147.0,414.0" stroke="green" stroke-width="1" fill="none" />
<polyline points="144.5,405.5,142.5,405.5" stroke="black" stroke-width="1" fill="none" />
<polyline points="145.0,403.0" stroke="orange" stroke-width="1" fill="none" />
<polyline points="154.5,405.0,151.0,397.0,147.5,395.0,149.0,393.0" stroke="black" stroke-width="1" fill="none" />
<polyline points="170.5,403.5,169.0,400.0,171.5,407.5,177.5,406.5,180.5,414.0,173.0,419.0,179.0,421.5,178.0,426.0" stroke="orange" stroke-width="1" fill="none" />
<polyline points="176.5,415.0,164.5,415.0,157.0,409.5,159.5,404.5,155.0,404.0,147.0,397.5,148.0,390.0,145.5,386.0,138.5,390.5,139.5,388.0,136.0,382.0,142.5,385.0,148.0,384.5,135.0,375.5,134.5,375.0,138.5,365.5,139.0,359.0,141.0,362.0,140.0,355.5,144.5,354.5,140.0,353.0,133.5,345.0,131.0,342.0,131.0,336.5,132.0,333.5,138.5,330.5,133.0,323.5,127.5,325.5" stroke="green" stroke-width="1" fill="none" />
<polyline points="118.5,326.5,125.5,334.0,126.0,336.5,123.0,343.5,123.0,337.5,122.0,345.5" stroke="yellow" stroke-width="1" fill="none" />
<polyline points="116.5,345.5,119.0,348.0,123.0,356.0,121.0,355.0,122.0,365.5,123.5,368.5,124.5,371.5,125.5,379.0,129.5,376.5,131.0,382.5,131.5,386.0,136.5,383.5,136.5,395.0" stroke="black" stroke-width="1" fill="none" />
<polyline points="140.0,363.5" stroke="orange" stroke-width="1" fill="none" />
<polyline points="" stroke="black" stroke-width="1" fill="none" />
<polyline points="136.5,360.5,134.5,354.5,132.5,355.5" stroke="green" stroke-width="1" fill="none" />
<polyline points="134.5,354.5,133.0,351.5" stroke="yellow" stroke-width="1" fill="none" />
<polyline points="132.0,353.5,131.0,360.5,138.5,367.0,135.0,370.5,132.5,368.5" stroke="yellow" stroke-width="1" fill="none" />
<polyline points="143.5,361.0,145.0,360.5,143.0,353.5,141.5,348.5,142.0,349.5,135.0,343.0,137.0,339.5,135.5,331.5,131.0,333.5,124.5,332.0" stroke="orange" stroke-width="1" fill="none" />
<polyline points="126.5,341.0,131.5,345.0,134.0,339.0,144.5,344.5,138.0,346.0,138.0,348.5" stroke="black" stroke-width="1" fill="none" />
<polyline points="140.0,343.5,142.5,337.5" stroke="black" stroke-width="1" fill="none" />
<polyline points="130.5,344.0,134.5,347.0,135.5,352.5,138.5,347.5" stroke="orange" stroke-width="1" fill="none" />
<polyline points="128.5,346.0,127.0,344.0" stroke="orange" stroke-width="1" fill="none" />
<polyline points="117.0,347.0,118.0,348.5,117.5,355.5,115.0,353.5,117.5,364.0,117.5,366.0,115.0,370.5,114.5,376.5,119.5,376.5,117.5,382.5,116.5,388.5,114.5,391.5,119.0,397.5,119.5,404.0,120.5,400.0,119.5,408.5,115.0,412.0,110.5,413.5,114.5,412.0,117.5,410.5" stroke="black" stroke-width="1" fill="none" />
<polyline points="121.5,411.5" stroke="yellow" stroke-width="1" fill="none" />
<polyline points="122.0,422.0,122.5,423.5" stroke="black" stroke-width="1" fill="none" />
<polyline points="132.5,426.0,128.0,424.5" stroke="yellow" stroke-width="1" fill="none" />
<polyline points="120.5,415.0,124.0,418.5,123.5,414.0" stroke="black" stroke-width="1" fill="none" />
<polyline points="114.0,435.0,119.0,439.0,116.0,445.0,120.5,446.0,121.5,440.5" stroke="yellow" stroke-width="1" fill="none" />
<polyline points="118.5,441.5,119.0,442.0,123.0,444.5" stroke="black" stroke-width="1" fill="none" />
<polyline points="119.5,457.5" stroke="yellow" stroke-width="1" fill="none" />
<polyline points="125.5,452.0,119.5,449.5" stroke="yellow" stroke-width="1" fill="none" />
<polyline points="107.0,445.5,109.0,443.0,106.5,440.5" stroke="black" stroke-width="1" fill="none" />
<polyline points="103.0,436.0" stroke="black" stroke-width="1" fill="none" />
<polyline points="89.5,457.0,96.5,453.5,87.5,453.5,87.0,456.0,91.5,454.0,100.0,448.5,90.0,452.5,92.5,453.5" stroke="yellow" stroke-width="1" fill="none" />
<polyline points="84.5,458.0,84.0,458.5,90.5,456.5,97.0,453.5,95.0,452.0" stroke="orange" stroke-width="1" fill="none" />
<polyline points="99.5,459.5,91.5,464.5" stroke="yellow" stroke-width="1" fill="none" />
<polyline points="100.0,495.0,98.5,495.5,99.0,502.5,101.5,505.0,105.0,510.5,102.0,507.5,100.5,508.5" stroke="orange" stroke-width="1" fill="none" />
<polyline points="107.5,508.0,113.5,506.0,113.5,498.5,111.5,492.0,110.0,487.5,112.5,485.0" stroke="orange" stroke-width="1" fill="none" />
<polyline points="114.5,490.5,120.0,488.0,112.5,497.5,113.0,500.0,111.0,503.5,117.0,511.0,113.0,514.0,111.0,512.5" stroke="black" stroke-width="1" fill="none" />
<polyline points="96.0,504.0" stroke="green" stroke-width="1" fill="none" />
<polyline points="104.5,491.0,96.5,494.0,96.0,502.5,101.5,505.0,107.0,509.5,108.5,513.0" stroke="black" stroke-width="1" fill="none" />
<polyline points="122.0,510.0,118.0,504.0,119.0,505.5,120.5,499.5,120.0,492.5,120.0,491.5,121.5,485.5,122.5,478.5,120.5,483.5" stroke="black" stroke-width="1" fill="none" />
<polyline points="123.0,484.0,123.0,489.0,128.5,489.5,129.0,492.5,131.0,498.5,129.0,508.0,133.0,506.5" stroke="orange" stroke-width="1" fill="none" />
<polyline points="149.5,448.0,152.0,451.5,153.0,448.0,147.5,446.0,148.5,436.0,139.5,429.5,132.0,423.5,128.5,426.5" stroke="orange" stroke-width="1" fill="none" />
<polyline points="135.5,424.5,138.5,421.0,131.0,428.0,136.5,434.0,139.5,437.0,141.0,441.5,145.0,447.0,141.5,448.0,138.5,455.0,138.0,459.0,135.0,461.5,132.0,467.5,137.0,459.0" stroke="green" stroke-width="1" fill="none" />
<polyline points="138.5,436.0,139.0,431.0" stroke="orange" stroke-width="1" fill="none" />
<polyline points="122.0,428.0,123.0,426.0,122.0,416.5" stroke="black" stroke-width="1" fill="none" />
<polyline points="111.5,418.0,110.5,419.0,113.5,428.5,110.5,429.0,117.5,433.5" stroke="orange" stroke-width="1" fill="none" />
<polyline points="110.5,428.0,119.5,430.0" stroke="black" stroke-width="1" fill="none" />
<polyline points="106.5,415.5,109.5,425.0,109.0,427.0,109.5,432.5,108.0,436.0,109.5,442.0,106.0,450.0" stroke="black" stroke-width="1" fill="none" />
<polyline points="102.5,434.5,103.0,435.0,97.5,444.5,92.0,442.0,88.5,442.5,94.5,443.5,101.5,440.0,104.0,437.0,103.5,433.0,105.0,425.0,112.5,421.0,104.5,415.0" stroke="black" stroke-width="1" fill="none" />
<polyline points="93.0,415.5,85.5,420.0,88.0,426.0,90.5,425.0,94.0,428.5,94.5,427.5" stroke="black" stroke-width="1" fill="none" />
<polyline points="86.0,422.0,87.0,424.5,93.5,424.0,89.0,421.0,88.5,419.0,91.5,421.5,93.5,425.0" stroke="black" stroke-width="1" fill="none" />
<polyline points="94.5,405.0,96.5,406.5" stroke="green" stroke-width="1" fill="none" />
<polyline points="95.0,398.0" stroke="black" stroke-width="1" fill="none" />
<polyline points="93.5,396.0,86.5,396.5,96.5,396.0,95.5,403.0,91.0,409.0" stroke="black" stroke-width="1" fill="none" />
<polyline points="98.0,404.5,98.0,413.0,93.5,408.0,96.5,407.0,95.0,402.0,96.0,404.5,92.0,400.0,90.0,394.5,90.0,393.5,85.5,383.5,84.5,387.5,85.5,387.5" stroke="yellow" stroke-width="1" fill="none" />
<polyline points="82.0,387.0,84.0,392.5,74.5,401.0,69.5,403.0,74.0,404.5,76.0,407.0,69.0,417.5,71.5,415.5,70.0,415.5,69.5,425.0,68.0,424.5,66.5,425.5,70.0,425.0,68.0,432.5,72.0,432.0,66.5,437.5,66.5,447.0,73.5,446.5,69.5,449.0,73.5,454.0,70.5,459.0,71.0,463.0,75.5,463.5,72.0,468.0,64.5,479.5,68.0,477.5,63.5,481.5,63.0,488.0,65.0,493.5,62.0,498.0,67.5,501.5,61.0,506.0,62.5,508.0,63.5,511.5,60.5,514.5,65.0,505.0,63.5,505.0" stroke="black" stroke-width="1" fill="none" />
<polyline points="62.5,504.0,65.5,509.5,65.5,516.5,68.0,508.5" stroke="green" stroke-width="1" fill="none" />
<polyline points="74.0,488.0,73.5,486.0,70.0,482.0,67.5,473.0,68.5,473.0" stroke="yellow" stroke-width="1" fill="none" />
<polyline points="68.0,475.0,70.0,473.5,66.0,477.0,66.5,476.0,68.0,481.0,67.5,485.0,67.0,486.0,67.0,492.0,64.5,495.0" stroke="orange" stroke-width="1" fill="none" />
<polyline points="72.5,464.5,70.0,464.0,76.5,456.0,80.5,454.5,78.5,453.0" stroke="green" stroke-width="1" fill="none" />
<polyline points="73.0,460.5,70.5,464.0,77.0,469.0,74.5,469.5" stroke="black" stroke-width="1" fill="none" />
<polyline points="69.5,459.0,70.5,452.0" stroke="green" stroke-width="1" fill="none" />
<polyline points="63.5,452.0,64.0,460.5,70.5,459.5,63.5,466.0,65.5,465.5,70.0,474.5,73.0,477.5,65.0,475.0" stroke="green" stroke-width="1" fill="none" />
<polyline points="33.5,490.5,31.5,491.5,28.0,497.5,30.0,500.5" stroke="orange" stroke-width="1" fill="none" />
<polyline points="19.5,504.0,17.0,503.0,18.5,502.5,15.5,504.5" stroke="yellow" stroke-width="1" fill="none" />
<polyline points="16.5,504.5,14.5,496.0" stroke="black" stroke-width="1" fill="none" />
<polyline points="11.0,422.5" stroke="black" stroke-width="1" fill="none" />
<polyline points="10.0,416.5,11.0,420.0,8.5,427.5,9.0,430.5,11.5,436.0,12.5,442.0,7.5,444.5,13.0,445.0,12.5,448.5,15.5,452.5,13.5,455.5,13.5,461.5,18.0,461.0,15.5,468.0,16.5,472.5,12.0,479.0,11.5,481.0,13.5,479.0,15.0,482.0" stroke="orange" stroke-width="1" fill="none" />
<polyline points="41.0,465.0,36.0,457.0,35.0,451.5,36.5,450.5,34.0,443.5,33.5,438.0,34.5,435.0" stroke="black" stroke-width="1" fill="none" />
<polyline points="25.5,417.5,25.5,418.0" stroke="black" stroke-width="1" fill="none" />
<polyline points="24.5,414.5,22.0,418.0,26.5,415.5,22.0,426.5,24.0,426.5,25.0,436.5,29.0,437.5,25.0,440.5,29.0,441.0,26.5,449.0,31.0,452.5,23.5,455.5,27.0,464.0,28.5,462.0,29.5,467.0,29.5,473.0,29.0,478.5,28.0,480.0,31.0,488.0,29.0,485.5,27.0,493.5,32.5,498.0,32.0,500.5,29.5,503.5" stroke="green" stroke-width="1" fill="none" />
<polyline points="62.0,436.0,65.5,434.0,68.5,439.5,71.0,434.5,71.5,433.5" stroke="orange" stroke-width="1" fill="none" />
<polyline points="71.5,422.5,69.5,421.5,65.5,424.0,68.0,424.0,73.0,417.0,69.5,412.5,67.0,407.0,66.5,402.5,80.0,398.0,74.5,397.5,77.5,397.5,72.5,400.0,73.0,395.5" stroke="yellow" stroke-width="1" fill="none" />
<polyline points="72.5,408.5,75.5,401.0,78.5,399.5,77.5,402.0" stroke="yellow" stroke-width="1" fill="none" />
<polyline points="78.0,400.0,76.5,395.5" stroke="yellow" stroke-width="1" fill="none" />
<polyline points="67.5,410.5,69.0,413.5,71.5,402.5,69.0,408.5,70.5,415.0,66.5,418.0,65.5,421.0" stroke="yellow" stroke-width="1" fill="none" />
<polyline points="71.5,418.5,73.0,419.5,75.0,425.0,76.0,424.0" stroke="green" stroke-width="1" fill="none" />
<polyline points="102.5,435.5,96.5,441.5,98.0,441.5,101.5,436.5,102.0,438.0,98.0,445.0" stroke="green" stroke-width="1" fill="none" />
<polyline points="109.5,407.0,109.0,402.0" stroke="black" stroke-width="1" fill="none" />
<polyline points="106.5,399.0,108.5,398.0,110.5,408.0,110.0,412.5,98.5,414.5,94.5,414.0,97.0,415.0" stroke="orange" stroke-width="1" fill="none" />
<polyline points="104.0,402.5,106.5,403.0,101.5,398.5,105.0,390.5" stroke="black" stroke-width="1" fill="none" />
<polyline points="102.5,370.0,108.0,376.5,107.5,368.5,104.0,362.5,108.0,363.0,108.0,358.5,110.5,356.5,109.0,358.0,107.0,350.0,108.5,339.0,103.5,333.5,107.0,337.0,105.5,331.0" stroke="black" stroke-width="1" fill="none" />
<polyline points="105.0,337.0,104.0,331.0,111.5,333.0" stroke="green" stroke-width="1" fill="none" />
<polyline points="119.5,327.5" stroke="black" stroke-width="1" fill="none" />
<polyline points="103.0,319.0,104.0,326.0,109.5,313.0,117.0,311.0,122.0,308.0,122.5,307.5,126.0,313.0,113.5,314.5,109.5,323.0,105.5,313.5,109.0,308.5,113.0,310.0,115.5,320.0,102.5,317.5,105.0,319.5,109.5,319.5,116.0,311.0,118.5,306.0,117.0,301.5" stroke="orange" stroke-width="1" fill="none" />
<polyline points="120.0,308.5,121.5,313.0,118.5,318.0,115.0,321.5,115.5,321.5,111.0,329.5,105.0,330.0,100.5,338.0,96.5,341.5,100.0,342.0,97.5,341.5,98.5,340.5" stroke="black" stroke-width="1" fill="none" />
<polyline points="97.5,351.0" stroke="green" stroke-width="1" fill="none" />
<polyline points="96.0,364.0,97.0,363.0,96.0,369.0,92.5,372.5,95.0,375.0,89.5,381.0,87.5,386.5,86.0,390.0,90.5,391.5,85.0,390.0,88.0,399.0,92.5,404.0,90.5,411.5,92.0,409.5,95.0,413.0,101.5,411.5,105.5,412.0,106.5,407.0,114.0,402.0" stroke="black" stroke-width="1" fill="none" />
<polyline points="122.0,367.5,121.5,362.0" stroke="yellow" stroke-width="1" fill="none" />
<polyline points="120.5,358.5,120.0,371.0,123.0,372.0,127.5,380.5,131.0,382.5,130.0,385.5,130.5,390.0,135.0,396.0,133.5,394.5,132.5,394.0" stroke="black" stroke-width="1" fill="none" />
<polyline points="123.0,369.5,117.5,362.5" stroke="green" stroke-width="1" fill="none" />
<polyline points="125.0,373.5,121.0,373.0,132.0,376.0,132.5,377.0" stroke="black" stroke-width="1" fill="none" />
<polyline points="132.0,360.5,124.0,362.5" stroke="orange" stroke-width="1" fill="none" />
<polyline points="125.0,361.5,124.0,362.0,132.5,362.5,130.0,366.5,132.5,366.5" stroke="yellow" stroke-width="1" fill="none" />
<polyline points="161.5,364.0,167.5,365.0,175.0,355.5,177.0,352.0,178.0,349.0,182.0,343.0" stroke="yellow" stroke-width="1" fill="none" />
<polyline points="183.0,326.5,182.0,331.0,175.0,338.5,171.5,341.0,167.5,347.0,166.5,354.0,160.0,359.0,158.5,371.5,160.5,361.5,165.5,367.0,165.0,354.0,174.0,353.5,177.5,349.0,175.5,346.0,178.5,338.5,187.5,339.5,187.0,332.5,189.0,334.5,193.5,328.5,193.0,333.0" stroke="black" stroke-width="1" fill="none" />
<polyline points="189.5,342.0,189.0,350.0" stroke="yellow" stroke-width="1" fill="none" />
<polyline points="195.0,353.0,193.5,353.5,194.5,350.5,194.5,348.5,193.0,347.5" stroke="black" stroke-width="1" fill="none" />
<polyline points="167.5,360.5,160.5,364.0,164.0,359.5" stroke="black" stroke-width="1" fill="none" />
<polyline points="163.5,364.5,163.0,365.0,166.0,362.0,164.0,364.5,162.0,366.5,157.5,363.0,162.0,359.0,163.0,353.5,167.0,352.0,170.5,346.0,174.5,342.5,178.5,340.0,178.0,334.0,183.5,332.5,177.0,331.0,171.5,332.5,168.5,335.0,165.0,341.0,166.0,338.0,164.5,334.0,167.0,332.0" stroke="black" stroke-width="1" fill="none" />
<polyline points="163.5,331.5,162.5,341.5,156.0,334.5,161.5,329.5,165.0,324.5,164.5,319.5,164.5,320.0" stroke="yellow" stroke-width="1" fill="none" />
<polyline points="166.5,323.0" stroke="orange" stroke-width="1" fill="none" />
<polyline points="174.0,315.0,166.5,318.5,167.5,328.5,165.0,321.0,163.5,326.0,158.5,330.5,154.5,341.0,153.5,341.5,151.0,334.5,143.5,347.0,143.0,336.5,143.0,338.0,135.0,339.0,133.5,329.0,139.5,326.0,134.5,321.5,136.0,316.5,129.0,309.0,133.0,311.0,130.5,303.5,131.0,305.5,132.0,302.0,133.5,296.0,139.0,291.5,139.0,291.5,141.0,282.5,136.5,278.5,134.5,276.5,134.5,280.0,140.0,284.0,142.0,277.5,148.0,275.0,141.0,269.5,143.5,270.0,152.5,264.5,158.5,256.5,158.0,253.5,163.5,250.0,163.0,246.0,160.5,242.5,152.0,248.5,156.0,251.0" stroke="black" stroke-width="1" fill="none" />
<polyline points="146.5,250.5,144.5,249.5,147.0,250.0" stroke="orange" stroke-width="1" fill="none" />
<polyline points="143.5,252.5,142.5,252.0,147.0,250.0,146.5,247.0,143.0,252.5,146.5,255.0" stroke="yellow" stroke-width="1" fill="none" />
<polyline points="144.0,267.5,141.5,268.0,139.0,276.0,138.0,272.0" stroke="black" stroke-width="1" fill="none" />
<polyline points="149.0,271.5,154.0,268.0,158.0,262.0,160.0,254.5,156.5,260.5,159.0,261.0,153.0,267.5,148.5,271.5,148.0,273.0,147.0,277.0,142.5,287.0,148.0,285.5,154.0,287.5,159.0,288.5,164.5,295.0,163.5,300.5,162.0,303.5,158.0,308.5,161.5,314.5,163.0,314.5,160.0,318.5,157.0,317.5,163.0,317.5,166.5,314.5,166.5,314.5,169.5,310.0,172.5,306.5,171.0,298.0,183.5,291.0,181.0,294.0" stroke="green" stroke-width="1" fill="none" />
<polyline points="182.5,298.5,179.5,301.0,181.5,300.0" stroke="green" stroke-width="1" fill="none" />
<polyline points="181.5,305.0,181.5,309.0,174.0,303.5" stroke="green" stroke-width="1" fill="none" />
<polyline points="177.5,300.5,176.0,300.5,174.0,300.0,185.5,306.0,184.0,311.5,181.5,312.5" stroke="black" stroke-width="1" fill="none" />
<polyline points="164.5,314.0,164.5,313.5,169.5,317.5,176.0,311.5,173.5,312.5" stroke="orange" stroke-width="1" fill="none" />
<polyline points="164.0,302.5,166.5,297.5,170.0,292.0,171.0,289.0,171.5,287.0,166.5,286.5,168.0,293.5,160.5,292.0,165.5,288.0,165.5,278.5,171.0,280.5,174.5,280.0,171.5,280.5,166.5,280.5,166.0,282.5,162.5,288.5,165.5,287.0,165.0,286.5,166.0,279.5,165.0,274.5,157.0,270.5,165.5,271.0,163.0,265.5,170.0,264.0,163.0,259.5,162.5,257.5,170.0,255.5,178.5,245.5,172.5,243.0,175.5,237.0,172.0,232.5,178.5,234.5,175.5,236.0" stroke="black" stroke-width="1" fill="none" />
<polyline points="179.0,233.5,184.5,235.5,177.0,242.5,175.0,246.0,176.5,247.5,172.5,252.5,176.0,253.5,183.5,259.5" stroke="black" stroke-width="1" fill="none" />
<polyline points="175.5,248.5,174.5,245.5,184.0,247.0,188.0,253.5,185.5,255.0" stroke="yellow" stroke-width="1" fill="none" />
<polyline points="224.0,271.5,218.0,272.0,227.0,270.0,228.5,270.5" stroke="black" stroke-width="1" fill="none" />
<polyline points="219.0,309.0,216.5,320.0,217.5,318.0,220.0,322.5,218.0,329.0,216.0,328.5,215.0,332.0,217.0,334.5,223.0,345.0,218.5,349.0,219.0,344.5,217.5,361.0,221.5,349.0" stroke="black" stroke-width="1" fill="none" />
<polyline points="249.5,381.0,252.0,377.0,252.0,381.5,253.0,379.5,255.5,387.5,260.5,385.0,265.0,385.0,264.0,383.5,262.0,386.5" stroke="black" stroke-width="1" fill="none" />
<polyline points="267.0,387.5,263.0,388.5,256.0,390.0,254.0,390.5,253.5,388.0,244.0,393.0,244.0,394.5,243.0,390.5,243.0,391.0" stroke="black" stroke-width="1" fill="none" />
<polyline points="273.0,352.5" stroke="black" stroke-width="1" fill="none" />
<polyline points="277.0,352.5,276.0,351.5,275.0,347.0" stroke="black" stroke-width="1" fill="none" />
<polyline points="220.0,369.5,222.0,364.5,219.5,363.0,221.0,358.0,220.0,347.0,219.0,350.0,220.5,342.5,222.5,339.0,222.0,333.5,222.5,327.0,223.0,326.0,222.5,317.5,220.0,315.0,222.5,315.5,222.5,310.0,221.5,304.0,219.0,311.0" stroke="yellow" stroke-width="1" fill="none" />
<polyline points="173.5,291.0" stroke="orange" stroke-width="1" fill="none" />
<polyline points="171.5,295.5,174.0,297.5,180.0,307.5,176.5,310.5,171.5,316.5" stroke="yellow" stroke-width="1" fill="none" />
<polyline points="162.0,308.5,161.5,309.5,158.5,311.5,155.5,311.5" stroke="orange" stroke-width="1" fill="none" />
<polyline points="161.0,313.5,163.5,310.5,164.5,314.5" stroke="black" stroke-width="1" fill="none" />
<polyline points="160.5,316.5,161.5,318.0" stroke="green" stroke-width="1" fill="none" />
<polyline points="160.0,295.5,153.0,293.5,152.0,292.0" stroke="yellow" stroke-width="1" fill="none" />
<polyline points="159.5,297.0,159.0,297.5,157.0,290.0" stroke="yellow" stroke-width="1" fill="none" />
<polyline points="163.5,294.5,156.5,287.5,153.0,280.5" stroke="black" stroke-width="1" fill="none" />
<polyline points="149.5,280.5,154.0,286.5,158.0,287.5,166.5,295.5" stroke="black" stroke-width="1" fill="none" />
<polyline points="174.0,291.5,172.5,295.0,178.0,292.0,176.5,294.0" stroke="yellow" stroke-width="1" fill="none" />
<polyline points="183.0,293.0,178.5,297.5,176.0,299.0,175.5,307.5,166.0,312.0,167.5,306.5,165.0,306.0" stroke="black" stroke-width="1" fill="none" />
<polyline points="160.0,293.5,153.5,291.5,153.5,292.0,152.0,289.0" stroke="black" stroke-width="1" fill="none" />
<polyline points="149.0,288.5,158.5,294.5,157.5,299.0,165.0,299.0,168.5,292.0,166.5,290.5" stroke="black" stroke-width="1" fill="none" />
<polyline points="171.5,290.0,175.0,295.5,170.5,299.0,169.0,303.5,163.5,308.5,166.5,315.0,167.5,313.0,160.5,316.0,169.5,316.0,167.5,322.0,164.0,330.5,162.0,333.0,153.5,337.5,157.0,345.5,151.5,345.5,152.0,349.0,149.0,355.0,147.0,355.5,148.0,356.5,144.0,353.0,147.0,352.5,149.5,353.5,160.5,353.5,159.5,345.5,163.0,348.5" stroke="orange" stroke-width="1" fill="none" />
<polyline points="154.5,294.0,154.0,293.5" stroke="green" stroke-width="1" fill="none" />
<polyline points="156.5,288.5,160.5,287.5,161.5,283.0,164.0,278.0,166.0,275.0,161.0,267.0,160.0,266.0,164.5,259.5,162.0,257.0,159.5,259.5" stroke="green" stroke-width="1" fill="none" />
<polyline points="165.5,261.0,170.0,259.0,168.0,266.5,164.0,272.5,167.0,278.5,166.5,276.5,167.5,275.0" stroke="black" stroke-width="1" fill="none" />
<polyline points="160.0,278.0,163.5,283.0" stroke="orange" stroke-width="1" fill="none" />
<polyline points="149.5,279.5,151.5,277.0,152.0,274.5,153.5,281.0,157.5,282.5,159.5,285.5,164.0,282.5,173.0,284.5,168.5,288.5,175.0,285.0,175.5,287.0,175.0,285.0" stroke="black" stroke-width="1" fill="none" />
<polyline points="177.0,284.0,173.0,291.5,166.0,292.0,166.0,289.5" stroke="green" stroke-width="1" fill="none" />
<polyline points="163.0,289.0,163.0,281.5,158.5,286.0,163.5,288.0,162.0,290.5" stroke="black" stroke-width="1" fill="none" />
<polyline points="157.0,297.5,157.0,298.0,150.0,294.0,150.5,288.0,151.0,280.0,146.0,275.5,150.0,272.0,150.5,270.0,157.5,265.0,162.5,264.0,159.5,257.5,163.5,258.5,167.0,250.0,166.0,246.5,166.0,241.0,166.5,239.0,162.0,247.5,157.0,258.0,152.0,259.0,148.0,261.0,144.5,261.0,142.5,256.0,137.0,266.5,134.0,264.5,135.5,265.0,128.0,258.0,130.5,267.5,126.5,272.5,132.5,261.5,132.0,256.0,133.5,256.0,127.0,251.5,127.5,249.0,136.0,243.0,132.5,243.5,139.5,237.5,136.0,233.5,135.0,230.5,133.0,223.0,130.0,225.0,133.5,218.5,130.5,214.0,129.5,212.5,128.5,205.0,123.0,200.5,126.5,199.5,119.0,197.0,123.5,190.5,123.5,183.0,120.0,180.5,117.5,180.5,119.5,172.5,116.5,168.5,122.0,165.0,121.0,163.0,115.5,154.0,117.0,148.0,120.0,146.0,125.5,141.5,124.0,140.0,122.0,135.0,123.5,131.5,127.5,130.5,127.5,126.0,129.5,122.0,131.5,118.5,132.5,114.0,133.5,110.0,135.5,105.5,136.0,104.0,136.0,104.0,141.5,97.0,129.5,104.0,133.5,103.0" stroke="green" stroke-width="1" fill="none" />
<polyline points="126.5,126.0,136.0,111.0,137.5,101.5,136.0,109.5,138.5,111.5,135.5,117.5,132.0,121.5,129.0,125.0,137.0,132.0,133.5,133.0,129.0,138.5,131.5,140.0,129.5,144.0,130.5,146.0,122.5,149.0,126.5,148.5,129.0,153.0,129.0,156.0" stroke="yellow" stroke-width="1" fill="none" />
<polyline points="126.5,152.5,133.0,153.5,134.0,157.0,130.0,157.0,132.5,160.5,128.5,167.5,128.0,170.0,130.0,165.0,128.5,164.0" stroke="green" stroke-width="1" fill="none" />
<polyline points="144.5,168.5,137.5,174.0,137.5,181.0,128.5,178.0,135.0,175.0" stroke="green" stroke-width="1" fill="none" />
<polyline points="134.0,173.5,132.0,175.5,130.0,177.5,142.5,173.0,135.5,168.5,135.5,167.5" stroke="black" stroke-width="1" fill="none" />
<polyline points="144.0,167.0,141.0,174.0,139.0,178.5,135.5,179.0" stroke="black" stroke-width="1" fill="none" />
<polyline points="139.5,177.0,139.5,184.5,133.0,180.0,140.0,175.5,140.0,173.0" stroke="black" stroke-width="1" fill="none" />
<polyline points="151.0,168.5,150.0,173.0,144.0,179.0,145.0,182.5,138.0,186.5,134.5,190.5,140.0,196.5,136.5,192.5,140.0,196.0,143.0,194.5,146.0,196.0,145.5,202.0,148.0,201.5" stroke="orange" stroke-width="1" fill="none" />
<polyline points="151.5,197.0,149.0,194.5,146.0,191.5,149.0,192.0" stroke="black" stroke-width="1" fill="none" />
<polyline points="147.0,194.0" stroke="green" stroke-width="1" fill="none" />
<polyline points="141.5,195.5,148.5,198.0,139.0,197.0" stroke="green" stroke-width="1" fill="none" />
<polyline points="151.0,197.5,151.0,194.0,147.0,191.5,145.5,187.0,144.0,187.5,145.0,178.5,145.0,180.0,147.5,173.5,145.5,177.5" stroke="orange" stroke-width="1" fill="none" />
<polyline points="140.5,183.5,145.0,184.0,148.0,191.5,152.5,189.0,148.5,187.5" stroke="black" stroke-width="1" fill="none" />
<polyline points="151.0,188.5,146.5,183.5" stroke="green" stroke-width="1" fill="none" />
<polyline points="150.5,196.0,155.0,192.0,158.0,183.5,162.5,183.0,170.5,181.0,174.5,174.5,175.0,167.0,180.0,168.5,180.0,158.0,188.5,160.0,190.0,153.5,194.5,151.5,198.5,148.0,196.5,147.0" stroke="black" stroke-width="1" fill="none" />
<polyline points="207.0,148.0,204.0,147.5,215.5,154.5,218.5,160.5,216.0,162.5" stroke="green" stroke-width="1" fill="none" />
<polyline points="229.0,158.0,222.0,157.0,227.5,153.5,222.0,158.0,223.0,155.0,218.0,154.0,216.5,154.5" stroke="yellow" stroke-width="1" fill="none" />
<polyline points="216.5,150.0,217.0,150.0,220.5,150.5,229.5,164.5,228.5,158.0" stroke="orange" stroke-width="1" fill="none" />
<polyline points="226.5,171.0,221.0,171.5,218.5,181.0,214.0,185.5,210.5,189.0,206.5,190.5" stroke="yellow" stroke-width="1" fill="none" />
<polyline points="211.5,188.5,214.5,185.0,212.0,187.5,218.0,176.5,221.5,176.0,231.0,175.0,234.5,174.5,231.0,173.5,239.0,172.5,241.0,171.5,241.5,176.5,236.0,177.5,238.0,176.5,236.0,176.5" stroke="orange" stroke-width="1" fill="none" />
<polyline points="230.5,183.0,229.5,183.0,230.0,182.0,227.5,188.5,220.5,191.0,215.5,198.5,211.5,204.0,204.5,208.0,199.0,210.5,204.0,216.5,202.5,215.5,201.5,222.0,205.0,227.5,210.0,226.5,207.0,228.0" stroke="orange" stroke-width="1" fill="none" />
<polyline points="204.0,208.0,205.5,206.5,211.0,204.0,213.0,197.0,218.0,195.5,221.0,196.5,228.5,188.0,229.0,187.0,230.0,187.0" stroke="black" stroke-width="1" fill="none" />
<polyline points="224.5,195.5,214.0,199.0,214.0,202.5,210.0,205.5,208.0,207.0,207.0,213.0,208.0,203.0,217.0,200.0,218.5,201.5,223.5,196.5,225.5,196.5,229.0,189.5,228.5,193.0,227.5,194.0" stroke="yellow" stroke-width="1" fill="none" />
<polyline points="221.0,185.5,217.5,188.0,217.0,191.0" stroke="black" stroke-width="1" fill="none" />
<polyline points="223.5,183.0,217.5,178.5,221.0,180.5,222.0,181.5" stroke="yellow" stroke-width="1" fill="none" />
<polyline points="222.0,181.0,223.0,184.5,220.0,194.0,218.5,192.0,208.5,196.0,206.0,199.5" stroke="orange" stroke-width="1" fill="none" />
<polyline points="197.5,200.5,205.0,199.0" stroke="black" stroke-width="1" fill="none" />
<polyline points="197.0,200.0,204.5,201.5" stroke="green" stroke-width="1" fill="none" />
<polyline points="203.0,199.5,200.5,204.5,196.0,198.5,188.5,200.0,187.5,203.5,192.0,206.0,184.5,201.0,179.0,209.5,181.0,203.0,184.5,202.5,188.5,193.0" stroke="orange" stroke-width="1" fill="none" />
<polyline points="182.5,204.5,188.0,206.0,193.0,210.0,201.0,206.5" stroke="green" stroke-width="1" fill="none" />
<polyline points="191.5,201.5,194.5,214.5,194.5,210.0,188.5,218.5,180.5,223.0,183.0,221.0,190.5,215.0,187.5,211.0,185.5,211.0,183.0,211.5" stroke="orange" stroke-width="1" fill="none" />
<polyline points="" stroke="black" stroke-width="1" fill="none" />
<polyline points="178.0,226.5,178.5,218.5,179.5,215.0,182.5,214.5" stroke="green" stroke-width="1" fill="none" />
<polyline points="174.0,214.0,171.0,215.0,172.0,219.5,176.5,213.5" stroke="black" stroke-width="1" fill="none" />
<polyline points="169.0,221.0,166.0,227.0,172.5,227.5,170.0,231.0,174.5,226.5,181.0,228.0" stroke="black" stroke-width="1" fill="none" />
<polyline points="183.0,226.5,181.0,226.5,180.0,235.0,166.0,229.0,163.5,240.5,168.5,238.0,165.5,239.5,163.5,238.0,165.5,239.0" stroke="green" stroke-width="1" fill="none" />
<polyline points="167.0,239.5,171.5,244.5,163.5,244.5,166.0,249.5,167.0,248.0,166.0,246.5" stroke="orange" stroke-width="1" fill="none" />
<polyline points="157.5,259.0,152.0,262.0,151.5,260.5,148.0,269.5,138.0,263.0,133.5,271.5,133.5,279.5,128.0,275.5,127.0,275.5,118.0,274.0,115.5,261.5,119.0,261.0,113.0,263.5,117.0,262.5" stroke="orange" stroke-width="1" fill="none" />
<polyline points="112.5,269.5,116.5,269.0" stroke="orange" stroke-width="1" fill="none" />
<polyline points="114.0,273.0,113.0,270.0,116.5,277.0,118.5,282.0,108.5,286.0,107.0,287.5,106.0,298.5,106.5,301.0,96.5,302.5,89.5,307.0,97.0,311.0,92.5,312.5,87.0,321.0,84.5,326.0,88.0,333.5,88.5,337.0,91.0,338.0,80.0,342.5,85.0,352.5,82.5,348.0,77.0,354.5,71.5,357.5,66.5,358.5,63.5,357.0,68.0,359.0,70.5,354.0,76.5,345.5,75.0,341.0,84.5,332.5,87.5,332.5,94.0,327.0,94.5,329.0" stroke="yellow" stroke-width="1" fill="none" />
<polyline points="90.0,325.0,98.0,327.0,96.5,326.0,93.5,328.0,86.0,330.5,89.0,336.5,82.0,340.0,77.5,344.5,77.5,345.0,73.5,350.0,69.0,355.5,65.0,360.0,60.0,361.0,62.5,365.5,67.5,364.0,70.0,357.5,75.0,348.5,79.0,345.0,83.5,341.0,87.5,335.5,87.5,346.5,91.5,344.0,89.5,344.0,85.0,353.0,87.0,357.0,82.5,360.0,82.0,367.0,79.5,365.5,81.5,372.5,87.5,371.5,83.5,370.0,88.5,361.0,94.5,353.0,97.5,347.0" stroke="yellow" stroke-width="1" fill="none" />
<polyline points="105.0,354.5,105.5,363.0,101.5,365.0,100.5,368.0,102.5,374.0,100.0,376.5,103.0,381.5,103.0,380.5" stroke="orange" stroke-width="1" fill="none" />
<polyline points="111.5,369.0,112.5,364.5,109.5,360.5,110.0,361.0,107.0,358.0" stroke="green" stroke-width="1" fill="none" />
<polyline points="110.0,357.5,112.5,364.5,112.5,365.0,109.5,359.5,113.0,367.5,116.0,366.5,114.5,363.5" stroke="green" stroke-width="1" fill="none" />
<polyline points="114.5,362.0,112.0,362.0,117.5,360.0,110.0,355.0" stroke="orange" stroke-width="1" fill="none" />
<polyline points="126.0,359.0,126.5,360.5,134.5,364.0,134.5,366.5,134.5,373.0" stroke="yellow" stroke-width="1" fill="none" />
<polyline points="84.5,353.5,82.0,363.0,76.5,367.5" stroke="black" stroke-width="1" fill="none" />
<polyline points="75.5,364.5,81.0,357.5,83.0,349.0,84.0,347.0,87.5,352.5,79.0,357.0,73.5,357.5,76.0,367.0,74.5,364.5,75.0,377.0,80.0,373.5" stroke="black" stroke-width="1" fill="none" />
<polyline points="81.0,382.5,79.5,383.0,73.0,392.0,70.0,393.0,60.5,393.0,63.5,395.5,56.0,402.0,61.0,400.5,63.5,392.5,70.0,391.5,77.0,385.5,76.5,385.5,76.0,384.0,71.5,382.5,67.0,393.5,67.0,395.5,63.0,397.0,59.0,405.5,66.5,399.0,69.0,394.5,76.5,388.0,79.0,383.5,80.0,382.5,85.0,373.5,86.5,373.5,83.5,369.0,86.0,360.5,87.5,354.0,87.5,360.0,90.5,351.5,92.5,354.5,95.0,350.0,93.0,343.0,96.5,348.0,98.5,342.5,89.5,352.5,97.5,345.0,96.0,339.5,100.5,341.5,96.5,332.0,97.5,330.5,95.5,326.0,96.5,319.0,98.0,318.5,96.0,311.0,99.5,306.0,103.0,302.5,106.5,300.0,103.0,305.5,99.0,309.5,96.5,317.5,97.0,313.0,99.0,312.5,100.5,312.0" stroke="black" stroke-width="1" fill="none" />
<polyline points="85.5,312.5,87.0,309.5,88.0,305.5,95.0,306.5,98.5,301.5,105.5,295.0" stroke="black" stroke-width="1" fill="none" />
<polyline points="95.5,302.5,92.0,299.5,91.5,306.0,97.5,300.0" stroke="green" stroke-width="1" fill="none" />
<polyline points="108.5,295.5,107.0,298.0,100.0,295.5,90.0,293.5,88.0,296.5,84.0,297.5,82.5,298.0,89.0,294.5,89.5,296.0" stroke="green" stroke-width="1" fill="none" />
<polyline points="86.0,294.5,78.5,297.0,82.5,298.5,86.5,292.5,91.0,292.5,98.5,298.5,95.0,291.0,106.0,288.0,102.0,291.0,105.5,287.5,106.5,289.0" stroke="orange" stroke-width="1" fill="none" />
<polyline points="111.0,288.0,114.5,286.5,108.5,286.0,110.5,286.5,109.5,278.0,113.0,275.0,114.0,273.0,117.5,268.0" stroke="black" stroke-width="1" fill="none" />
<polyline points="108.5,259.5,111.0,258.0,112.0,262.0,108.5,263.0,109.0,270.0,108.0,273.5,101.0,274.0,94.5,280.5,95.5,281.5,101.0,278.5,104.0,274.5,102.0,273.5,110.5,284.5,112.5,280.5,116.5,284.0" stroke="green" stroke-width="1" fill="none" />
<polyline points="114.5,276.5,113.5,281.0,109.5,276.0,102.5,283.5,97.5,285.5,94.0,285.5,91.5,284.5" stroke="black" stroke-width="1" fill="none" />
<polyline points="86.5,276.5,94.0,274.5,96.5,271.5,97.0,264.0,111.0,262.5,103.0,264.0,96.0,270.5,96.0,278.0,91.5,286.0,92.5,281.5,100.5,281.0,105.0,278.0,97.5,282.0,104.5,279.5,108.5,280.0,111.0,284.0,116.5,274.0,120.5,276.5,127.5,271.0" stroke="green" stroke-width="1" fill="none" />
<polyline points="130.0,264.0,126.5,267.5,128.5,267.5,124.0,270.0,115.0,273.5,100.5,283.5,98.0,289.5,93.0,300.5,96.0,299.5,89.5,309.5,79.5,310.0,87.5,305.5,83.5,314.5,71.0,323.0,79.0,314.0,80.0,311.0,79.5,310.0,77.0,309.0" stroke="black" stroke-width="1" fill="none" />
<polyline points="101.0,315.0,113.5,312.0,113.5,305.0,115.0,299.5" stroke="yellow" stroke-width="1" fill="none" />
<polyline points="127.5,301.5,130.0,308.5,121.0,306.5,119.0,307.5,118.5,311.5,114.0,322.5,108.5,320.5,100.5,326.5,102.5,323.0" stroke="yellow" stroke-width="1" fill="none" />
<polyline points="77.5,321.0,70.5,320.5,68.0,322.5,69.5,319.5,80.0,325.0,75.0,310.5,73.0,309.5,75.5,306.5,76.5,307.5" stroke="green" stroke-width="1" fill="none" />
<polyline points="" stroke="black" stroke-width="1" fill="none" />
<polyline points="76.5,309.0,79.5,311.0,80.5,310.5,88.5,305.0,93.0,303.5,96.5,297.5,95.0,299.0" stroke="green" stroke-width="1" fill="none" />
<polyline points="95.0,316.0,97.5,324.5,98.5,320.5,102.0,317.0,101.5,310.0,103.0,305.0,104.5,306.0" stroke="black" stroke-width="1" fill="none" />
<polyline points="106.0,295.0,106.5,294.5,96.5,296.0,104.0,291.5,104.5,293.5,108.0,292.5,115.5,295.5" stroke="black" stroke-width="1" fill="none" />
<polyline points="109.5,288.0,104.5,291.5,104.0,287.5,105.0,288.5" stroke="black" stroke-width="1" fill="none" />
<polyline points="89.5,279.5,87.0,274.0,92.0,278.5" stroke="black" stroke-width="1" fill="none" />
<polyline points="119.0,287.5,118.5,293.0,119.5,294.0,113.5,297.5,110.5,304.5,103.0,307.5,101.5,312.5,102.5,319.0,96.0,321.5,102.0,325.0,101.0,331.0,105.5,332.5,96.0,336.5,95.0,340.5,100.5,338.0,105.5,338.0,108.0,335.0,112.5,329.5,116.5,317.0,123.5,305.5,119.5,299.0,123.0,300.5,125.0,305.5,131.5,315.5" stroke="yellow" stroke-width="1" fill="none" />
<polyline points="123.5,317.5,124.0,320.5,132.0,325.0,128.0,327.5,130.0,332.0,129.0,338.0" stroke="black" stroke-width="1" fill="none" />
<polyline points="123.0,312.0,123.0,314.5,119.5,319.5,118.0,327.5,110.5,327.0,109.0,332.5,111.0,342.5,102.5,338.0,98.5,344.0,99.0,347.0,98.0,352.0,95.5,351.0,90.5,353.5,94.0,360.0,94.5,363.0,92.0,365.5,90.5,371.0,92.5,377.5,94.0,385.0,94.5,383.5" stroke="black" stroke-width="1" fill="none" />
<polyline points="77.5,384.5,77.0,387.5,76.0,396.5,75.5,400.5,71.0,406.0,70.0,409.0,71.0,417.0,73.0,412.0" stroke="orange" stroke-width="1" fill="none" />
<polyline points="23.0,371.5,18.0,373.5,20.5,366.5" stroke="black" stroke-width="1" fill="none" />
<polyline points="124.5,286.0,123.5,290.5,121.0,297.0,119.5,301.0,111.5,306.5,108.5,308.0,100.0,314.5,106.0,310.0,104.5,302.5,111.5,297.5,117.5,297.0,119.5,296.5,127.5,292.5,127.5,286.5,136.5,290.0,138.0,285.5" stroke="orange" stroke-width="1" fill="none" />
<polyline points="136.5,261.5" stroke="black" stroke-width="1" fill="none" />
<polyline points="" stroke="orange" stroke-width="1" fill="none" />
<polyline points="135.0,246.0,136.0,245.0,137.5,246.5,144.0,245.5" stroke="black" stroke-width="1" fill="none" />
<polyline points="147.0,246.5,141.0,243.0,136.5,247.5,139.5,245.0" stroke="black" stroke-width="1" fill="none" />
<polyline points="139.5,242.0,136.0,235.0,132.0,224.5,133.5,224.0" stroke="black" stroke-width="1" fill="none" />
<polyline points="142.5,218.0" stroke="yellow" stroke-width="1" fill="none" />
<polyline points="150.5,211.5,151.0,211.5,150.0,212.0" stroke="orange" stroke-width="1" fill="none" />
<polyline points="140.5,194.0,137.5,193.5,136.0,192.5,132.0,182.0,137.0,184.5,142.5,180.5,148.5,177.5,141.5,175.0,141.5,184.0,131.5,190.5" stroke="yellow" stroke-width="1" fill="none" />
<polyline points="139.5,185.0" stroke="black" stroke-width="1" fill="none" />
<polyline points="149.5,180.0,145.0,181.5,152.5,181.0,146.5,189.0,139.5,187.5,135.0,190.0" stroke="green" stroke-width="1" fill="none" />
<polyline points="137.5,199.0" stroke="orange" stroke-width="1" fill="none" />
<polyline points="140.5,191.5,143.5,196.5,148.5,200.5,146.5,207.0,146.5,212.5,142.5,216.5,148.0,205.0,153.5,198.5" stroke="yellow" stroke-width="1" fill="none" />
<polyline points="130.5,206.0,126.5,198.0" stroke="black" stroke-width="1" fill="none" />
<polyline points="113.0,223.5,115.0,224.0,108.0,229.0,109.5,230.0,118.0,231.5,112.5,228.0" stroke="black" stroke-width="1" fill="none" />
<polyline points="114.0,235.0,120.5,227.5,113.5,223.5" stroke="green" stroke-width="1" fill="none" />
<polyline points="126.5,251.5,116.0,254.5,113.0,260.0,110.0,264.5,115.0,258.5,121.5,254.5,119.5,252.0,124.5,249.0,130.0,243.5,137.5,239.5,144.0,236.5,148.5,235.0,155.5,229.5,155.0,231.0,159.0,231.0,157.5,230.0" stroke="black" stroke-width="1" fill="none" />
<polyline points="154.0,229.0,147.5,236.0,139.0,234.0,143.5,238.0,138.0,245.0,138.0,251.0,129.0,255.0,140.5,267.0,139.0,267.0,133.0,264.5,123.0,269.0,130.5,272.5,134.0,271.0,136.5,271.5,139.0,271.0" stroke="black" stroke-width="1" fill="none" />
<polyline points="151.5,253.5,157.5,255.0,156.5,252.5,160.5,247.5,157.0,249.0" stroke="yellow" stroke-width="1" fill="none" />
<polyline points="166.0,232.0,165.5,235.5,158.5,240.0,161.5,238.0,163.5,233.5,165.0,224.5,169.0,226.0,169.5,223.5" stroke="black" stroke-width="1" fill="none" />
<polyline points="164.5,226.0,167.5,225.0" stroke="green" stroke-width="1" fill="none" />
<polyline points="172.5,228.0,170.5,232.5,166.0,235.0,165.0,239.0,163.5,244.5,154.5,249.0,150.0,249.0,148.0,253.5,151.0,257.0,151.5,253.5,144.0,261.0,139.0,261.5,136.0,269.0,137.0,275.0,128.5,277.5,132.5,285.5,129.0,291.0,129.5,299.0,126.0,305.0,131.0,310.5,128.0,308.5,125.5,317.5,120.5,315.0,121.5,326.5,123.0,328.0,123.0,328.5,126.5,334.5,120.5,335.5,126.0,339.0,129.5,341.0,132.5,351.5,132.5,353.0,133.5,352.5,135.0,359.5,137.5,364.5,139.5,361.0,145.5,367.0,143.0,370.0,146.5,375.0,147.0,383.0,141.5,388.0,150.0,391.5,148.0,392.5,147.5,396.5,151.0,397.0,150.5,402.0,150.5,406.5,155.5,407.0,156.5,411.5,157.5,413.5,162.5,416.0,158.5,424.5,156.5,422.5" stroke="green" stroke-width="1" fill="none" />
<polyline points="167.5,421.5,166.0,413.0,164.5,412.5,164.0,414.5" stroke="green" stroke-width="1" fill="none" />
<polyline points="" stroke="black" stroke-width="1" fill="none" />
<polyline points="197.5,431.0,201.0,429.5,195.5,428.5" stroke="yellow" stroke-width="1" fill="none" />
<polyline points="200.0,422.0,194.5,427.0,199.0,430.0,195.0,430.0,191.5,437.0" stroke="black" stroke-width="1" fill="none" />
<polyline points="197.5,403.0,196.5,406.0,199.0,400.5,193.0,403.0,199.0,392.0,197.5,396.0,196.0,397.5" stroke="black" stroke-width="1" fill="none" />
<polyline points="188.5,394.0,187.0,389.0,190.5,394.5,191.0,403.5,188.0,401.5,185.0,408.0,184.5,416.0,188.5,415.0,186.5,414.5,186.5,425.0,183.0,428.0,189.5,434.0,184.0,437.0,186.0,439.5,177.5,441.5,184.0,446.5,186.5,441.5,195.5,447.0,197.0,445.5" stroke="black" stroke-width="1" fill="none" />
<polyline points="376.5,355.5,380.0,350.0,378.0,348.0,378.0,346.0,377.0,339.5,379.5,335.5,378.5,336.5,378.5,326.5,376.5,322.0,376.5,318.0,374.0,310.0,370.0,312.0,376.5,306.5,378.5,301.0,372.0,298.0" stroke="orange" stroke-width="1" fill="none" />
<polyline points="382.5,289.0,380.0,284.5,377.0,285.0,378.5,282.0,381.5,275.5,381.5,267.0,384.0,268.0,386.5,268.5" stroke="black" stroke-width="1" fill="none" />
<polyline points="366.0,267.0,364.0,271.0,368.0,276.0,366.0,278.0,363.5,282.0,370.0,285.5,366.0,289.5,362.5,298.0,364.5,303.0,363.5,305.0,362.5,309.0" stroke="yellow" stroke-width="1" fill="none" />
<polyline points="350.0,275.5,344.0,279.0,334.5,282.0,330.5,282.0,330.0,274.5,319.5,270.5,323.5,273.0,324.0,268.0,327.0,268.0,325.0,274.0,326.5,273.0" stroke="black" stroke-width="1" fill="none" />
<polyline points="322.0,266.5,328.5,269.5,327.0,272.0,335.0,270.0,333.0,272.0,334.0,270.0" stroke="black" stroke-width="1" fill="none" />
<polyline points="325.0,279.5,317.0,275.0,317.5,275.5,319.0,269.5,321.0,266.5,328.0,260.0,328.0,256.5,334.0,253.0" stroke="black" stroke-width="1" fill="none" />
<polyline points="367.0,265.0,366.0,263.5,363.0,270.5,363.0,275.5,360.0,278.5,358.0,278.5" stroke="yellow" stroke-width="1" fill="none" />
<polyline points="291.5,225.0,292.0,231.0,283.0,232.5,288.5,231.0,295.5,224.0" stroke="black" stroke-width="1" fill="none" />
<polyline points="269.5,215.0,273.5,204.5,276.0,200.5,280.0,201.5,285.0,196.0,290.5,189.5,291.0,189.0,297.0,189.0,301.5,187.0,304.0,182.5,306.0,181.0" stroke="yellow" stroke-width="1" fill="none" />
<polyline points="314.5,177.5,299.0,170.0,297.5,179.0,294.5,181.0,292.0,186.5,286.5,192.5,281.5,191.5,284.0,201.0,273.0,200.5,271.0,201.0,269.0,205.5,263.5,211.5,264.0,213.0,266.5,222.5,252.5,225.0,252.0,230.0,246.0,231.5,245.5,239.0,238.5,245.5,233.0,242.0,233.5,254.5,227.0,258.5,220.0,263.0,219.5,268.0,211.0,280.5,212.5,282.5,209.5,292.0,202.5,301.0,195.0,310.0,200.0,320.5,195.0,318.5,199.0,312.0,199.0,308.0,202.5,304.0,200.0,301.0,204.0,296.0,207.0,293.5,209.5,288.5,210.5,288.5,212.0,280.5,217.5,277.0,216.0,272.0,222.0,272.0,224.5,264.0,227.0,262.5,227.5,254.5,230.5,254.0,232.0,247.5,236.0,244.0,239.0,239.0,244.5,236.5,247.0,228.5,253.0,227.0,257.5,223.0,258.5,221.0,260.0,216.5,261.0,209.0,263.0,209.0,266.5,199.5" stroke="black" stroke-width="1" fill="none" />
<polyline points="266.5,202.5,265.5,211.0,265.5,205.5,259.5,208.5" stroke="yellow" stroke-width="1" fill="none" />
<polyline points="250.0,210.5" stroke="black" stroke-width="1" fill="none" />
<polyline points="209.0,199.0,217.0,188.5,218.0,186.5,225.5,187.0,223.0,182.0,227.5,182.5,230.5,185.5,227.5,184.5" stroke="black" stroke-width="1" fill="none" />
<polyline points="227.0,170.0,217.0,181.0,211.5,184.5,211.5,185.0,212.5,190.5,203.0,198.0,209.5,194.5,209.0,197.5,212.5,195.0,220.0,197.5,228.5,189.5,230.0,188.0,231.5,187.0,228.5,184.5,229.0,188.5" stroke="yellow" stroke-width="1" fill="none" />
<polyline points="246.0,175.5,242.5,178.0,238.5,183.5,233.0,183.0,237.0,182.5,243.0,181.0,246.5,179.0,253.5,179.5,255.0,178.0" stroke="yellow" stroke-width="1" fill="none" />
<polyline points="247.0,178.5,245.0,178.5,242.5,180.0,247.0,191.5,243.0,196.5,238.0,201.5,236.5,200.5,235.0,212.0,233.5,215.0,231.0,206.0,233.5,209.5,233.5,208.0" stroke="black" stroke-width="1" fill="none" />
<polyline points="264.0,184.0,263.5,187.5,258.0,194.5,250.0,199.0,247.0,203.0,253.5,202.0,254.5,196.0,257.5,193.5" stroke="black" stroke-width="1" fill="none" />
<polyline points="265.5,183.5,270.5,184.0,264.5,190.5,260.0,192.5,261.5,188.5" stroke="yellow" stroke-width="1" fill="none" />
<polyline points="264.0,184.5,255.0,185.0,247.0,190.0,250.0,194.5,248.5,200.0,243.5,195.5,244.5,192.0,246.5,193.0,249.5,190.5,253.0,186.5,253.0,180.5,257.0,183.0,262.0,180.0,263.0,181.0,264.0,180.0" stroke="black" stroke-width="1" fill="none" />
<polyline points="267.5,176.0,270.5,175.5,279.5,177.5,279.0,178.0,278.0,176.5,284.5,177.0,293.5,179.0,294.0,180.5,291.5,185.5,286.0,191.5,284.5,192.0,276.5,195.0,274.5,198.5,274.5,195.0,268.0,198.0,270.0,194.5,276.5,194.5,279.5,195.5,283.5,187.5,287.0,185.0,291.0,183.0,294.5,179.5,303.0,177.5,304.0,176.0,308.5,171.0,315.5,167.0,315.0,169.0,324.5,167.0,326.0,162.0,330.0,161.5,336.0,156.5,337.5,152.5,339.0,152.0" stroke="green" stroke-width="1" fill="none" />
<polyline points="304.0,176.5,306.0,177.5,299.5,180.5,297.5,183.5,288.5,194.0,285.0,191.5,279.5,196.0,276.0,200.0,267.5,205.0,267.5,208.0,271.0,208.5,270.0,211.0,265.0,220.5,265.5,224.0,264.0,223.5,262.5,229.0,263.5,232.0,265.5,237.0,266.5,244.0,265.5,242.0" stroke="black" stroke-width="1" fill="none" />
<polyline points="271.5,193.5,271.5,187.5" stroke="yellow" stroke-width="1" fill="none" />
<polyline points="258.0,162.5,267.5,160.0,268.5,161.0,260.5,160.5,253.5,159.5,250.5,161.5,247.5,162.0" stroke="black" stroke-width="1" fill="none" />
<polyline points="252.5,162.0" stroke="black" stroke-width="1" fill="none" />
<polyline points="252.0,167.0,254.5,176.5,257.0,177.5,259.0,181.5" stroke="yellow" stroke-width="1" fill="none" />
<polyline points="241.5,140.5,245.5,140.0,255.5,141.0,259.0,132.0,258.0,132.5,260.5,127.5,253.5,131.0,250.0,135.5,250.0,139.5,244.0,145.0,237.0,144.0,235.0,142.5,233.0,144.0" stroke="black" stroke-width="1" fill="none" />
<polyline points="" stroke="yellow" stroke-width="1" fill="none" />
<polyline points="219.0,148.0,217.0,147.0" stroke="orange" stroke-width="1" fill="none" />
<polyline points="214.0,142.5,214.0,143.5" stroke="black" stroke-width="1" fill="none" />
<polyline points="203.0,151.5,211.5,145.5,214.0,149.5,215.5,160.0,216.5,155.5" stroke="orange" stroke-width="1" fill="none" />
<polyline points="206.5,160.5,201.5,159.0,203.0,161.0,201.5,157.5" stroke="yellow" stroke-width="1" fill="none" />
<polyline points="203.5,160.5,204.5,168.0,200.0,166.5,191.5,177.0,186.5,176.5,183.5,181.0,180.5,183.5,172.0,188.5,175.0,193.5,167.0,196.0,164.5,201.0,160.0,200.5,167.0,193.5,172.5,193.5,178.5,188.5,179.5,183.0,184.5,182.0,187.5,177.0,195.0,175.5,199.5,173.0,202.0,165.0,207.5,171.5" stroke="yellow" stroke-width="1" fill="none" />
<polyline points="219.0,177.0,214.5,174.0,210.5,176.5,208.5,186.5,203.0,187.0,205.5,194.0,203.0,199.0,207.0,197.0,203.5,198.5,202.0,195.5" stroke="orange" stroke-width="1" fill="none" />
<polyline points="" stroke="black" stroke-width="1" fill="none" />
<polyline points="202.0,136.0,196.5,135.0,203.0,133.5,201.0,142.5,201.5,137.0,206.5,138.5,214.0,127.0,215.0,132.5,217.5,127.0,225.0,126.0,224.5,124.5" stroke="orange" stroke-width="1" fill="none" />
<polyline points="224.0,131.5,219.5,130.5,211.5,139.0,213.5,136.0,208.0,143.0,212.0,138.5,214.5,134.5,222.0,129.5,226.0,126.5,231.0,124.0,234.5,121.0,241.5,118.5,239.0,122.0" stroke="black" stroke-width="1" fill="none" />
<polyline points="232.5,118.0,229.0,127.5,220.0,133.0,208.0,138.5,203.5,140.0,204.5,142.5,197.5,143.0,196.5,151.0,191.0,155.0,190.0,159.0,180.5,164.0,177.0,165.5,171.0,170.0,170.0,170.5,163.5,182.0,162.5,186.0,156.0,188.5,153.0,192.5,149.5,198.5,152.0,199.5,154.0,201.0,149.0,208.0,147.0,213.5,146.5,215.5,144.5,219.0,139.5,222.5,141.0,225.5,142.0,233.0,138.5,238.5,141.0,240.0,143.5,240.0,131.0,241.5,132.0,253.0,130.5,254.5,137.5,258.0,136.0,256.0,140.0,258.0,136.0,254.0" stroke="green" stroke-width="1" fill="none" />
<polyline points="132.0,180.5,141.5,172.5,137.5,171.0,139.5,163.5" stroke="orange" stroke-width="1" fill="none" />
<polyline points="129.5,141.0,129.0,134.0" stroke="yellow" stroke-width="1" fill="none" />
<polyline points="157.0,128.0,153.0,131.0,153.0,139.5,154.0,136.5,158.5,125.0,161.5,128.0" stroke="black" stroke-width="1" fill="none" />
<polyline points="182.5,123.5,183.0,125.0,176.5,132.0,185.5,124.5,189.5,119.0,188.5,118.0,192.0,116.0" stroke="green" stroke-width="1" fill="none" />
<polyline points="190.0,125.0,184.5,125.5,176.0,127.0,180.5,124.0,181.5,123.5,186.0,122.5,189.5,122.5,189.5,119.5,188.5,119.0" stroke="orange" stroke-width="1" fill="none" />
<polyline points="187.5,133.0" stroke="yellow" stroke-width="1" fill="none" />
<polyline points="197.5,121.0,195.0,123.5,196.5,119.0,196.5,116.5" stroke="green" stroke-width="1" fill="none" />
<polyline points="198.5,110.5" stroke="yellow" stroke-width="1" fill="none" />
<polyline points="230.0,127.0,225.5,129.0,220.5,129.0,215.5,134.5,215.5,139.0,210.0,146.5,203.0,141.5,197.0,148.5,196.0,155.5,195.5,152.5,200.0,148.0,206.5,142.0,213.5,135.0,219.0,135.0,228.0,131.0" stroke="black" stroke-width="1" fill="none" />
<polyline points="251.0,140.5,250.0,140.0,247.5,146.0,242.5,142.5,238.0,151.5,232.0,152.0,231.0,155.0,224.5,159.5,220.5,162.0,220.5,161.5,223.0,154.5,230.5,152.5,235.5,150.5,242.0,146.0,245.0,145.0,249.0,141.5,252.0,131.5,265.0,126.0" stroke="black" stroke-width="1" fill="none" />
<polyline points="277.5,147.0,289.0,145.0,288.5,144.5" stroke="black" stroke-width="1" fill="none" />
<polyline points="298.5,136.0,296.5,134.5,293.0,142.5,292.5,144.5,294.5,132.5" stroke="black" stroke-width="1" fill="none" />
<polyline points="310.5,180.5,301.0,182.5,297.5,184.5,291.0,189.0,290.0,195.0,281.5,200.0,279.5,200.5,274.0,206.5,271.5,210.5,272.5,214.5,270.5,214.5,271.0,211.0" stroke="yellow" stroke-width="1" fill="none" />
<polyline points="233.5,98.5,231.0,104.0,226.5,106.0,222.5,106.5,226.5,103.5,229.5,102.5,237.5,97.5,237.0,98.5,243.0,94.5" stroke="yellow" stroke-width="1" fill="none" />
<polyline points="233.5,95.5" stroke="black" stroke-width="1" fill="none" />
<polyline points="246.0,91.5,246.5,93.5,245.5,91.5" stroke="green" stroke-width="1" fill="none" />
<polyline points="257.0,86.5,261.0,86.5,255.0,93.5,252.0,92.5,249.0,92.5,247.0,94.5,242.0,100.0,236.0,102.5,227.0,105.0,226.5,105.5,224.5,110.5,219.5,114.5,217.5,116.5,213.0,121.0,207.5,121.5,203.0,128.0,201.0,131.0,195.5,133.0,190.0,133.0,188.5,138.5,178.5,146.5,175.5,149.0,174.0,150.0,169.5,154.0,166.5,159.0,164.0,162.5,158.0,161.0,151.5,166.0,154.0,171.5,159.0,172.0,159.0,165.5,165.0,161.5,166.0,153.0,173.5,155.5,178.0,149.0,183.5,142.5,188.5,142.5,191.0,136.0,198.0,141.0,205.0,125.0,205.5,128.5,209.5,120.5,214.5,111.5,218.0,117.5,228.0,111.0,231.5,107.5,239.0,100.0,242.0,99.5,252.0,93.5,256.0,90.0,262.0,84.5" stroke="black" stroke-width="1" fill="none" />
<polyline points="238.0,79.0,231.0,82.5,227.0,84.5,231.0,84.0,231.0,85.5" stroke="black" stroke-width="1" fill="none" />
<polyline points="235.5,45.0" stroke="orange" stroke-width="1" fill="none" />
<polyline points="230.0,46.5,225.5,53.5,226.5,48.0,229.5,47.5,230.0,48.0,243.0,48.0,246.5,51.0,247.5,50.0,253.5,55.0,254.5,58.0,266.0,52.5,263.5,56.5,268.5,58.0,270.5,64.0,278.5,66.0,280.0,67.0,282.0,69.5,286.5,73.5,291.5,77.0,291.0,80.0,296.0,83.5,304.0,86.5,306.0,91.5,313.0,100.5,314.5,97.0,322.0,103.0,324.5,110.0,324.0,116.0,333.5,123.0,334.0,128.0,340.0,129.5,343.0,139.5,345.0,144.0,351.0,146.0,350.0,142.5,357.5,137.0,364.0,138.5,367.5,135.5,372.5,132.0,377.0,131.0,381.0,127.0,386.5,127.0,389.5,116.0,394.5,115.5,396.5,113.0,400.5,115.5,406.0,111.0,408.0,113.0,408.5,118.0,412.5,115.5,419.0,122.0" stroke="black" stroke-width="1" fill="none" />
<polyline points="411.0,117.5,414.0,125.0,415.0,128.5,414.5,134.0,423.0,132.5,418.5,142.0,419.5,144.0,422.5,142.5,411.0,151.5,418.0,155.0,413.5,166.5,412.5,165.0,407.5,173.5,407.5,176.5,405.0,174.0,402.5,176.0,408.0,177.5,405.5,181.5,398.5,182.5,393.0,190.0,396.0,195.0,385.5,206.5,382.5,203.0,377.0,211.5,374.5,212.5,366.5,218.5,368.0,213.5,375.0,209.0,374.5,208.5,384.0,210.0,383.5,205.0,391.5,196.5,392.5,193.0,398.0,189.5,402.5,190.0,403.5,182.5,410.5,172.0" stroke="yellow" stroke-width="1" fill="none" />
<polyline points="370.0,132.5,371.5,124.5,368.0,126.0" stroke="orange" stroke-width="1" fill="none" />
<polyline points="387.0,105.0,382.5,100.0,376.0,97.0,378.0,98.0" stroke="black" stroke-width="1" fill="none" />
<polyline points="373.0,100.5,379.5,105.5,388.0,103.0" stroke="black" stroke-width="1" fill="none" />
<polyline points="427.5,56.5,430.0,47.5,427.5,47.0,418.0,33.5,417.0,28.0,417.0,23.5,409.0,11.0" stroke="yellow" stroke-width="1" fill="none" />
<polyline points="514.0,74.0,513.0,83.5,506.0,80.5,504.0,88.5,500.0,88.5,496.5,98.5,488.0,102.5,484.5,105.0,491.0,109.0,484.0,110.0,479.5,116.0,478.5,118.0,472.5,127.0,470.0,128.0,468.0,132.0,468.5,136.0,466.5,137.5,460.0,148.5,458.0,148.5,458.0,152.0,454.5,156.0,450.0,167.0,451.0,166.0,445.0,167.5,442.0,172.0,445.0,175.5,437.5,186.5,437.0,187.5,436.0,191.0,433.5,199.0,434.0,205.0,431.0,204.5,430.0,207.5,427.5,211.5,426.5,216.5,421.5,217.5,422.5,222.0,419.5,228.5,418.5,234.0,414.5,235.0,413.5,244.0,412.0,245.5,409.0,245.0,414.0,249.0,413.0,257.0,406.0,261.0,403.5,259.5,407.5,266.5,408.0,273.0,404.0,278.0,405.0,282.5,402.5,280.5,396.0,286.5,402.0,290.0,404.0,289.0,398.0,298.0,397.5,304.5,393.0,307.5,391.5,308.5,391.5,313.5,388.0,318.5,393.5,321.0,390.0,327.0,391.5,327.5,383.5,337.0,385.5,337.0" stroke="yellow" stroke-width="1" fill="none" />
<polyline points="345.5,138.5,340.5,133.0,345.5,138.0,336.0,130.0,336.5,126.0,332.5,123.0,333.0,119.0,327.0,115.0,327.5,112.0,319.0,109.0,319.0,104.0,313.0,98.5,312.0,96.0,305.5,94.0,301.5,87.0,298.0,82.0,295.5,76.5,295.0,74.5,284.0,66.5,276.5,67.0,276.0,64.5,268.5,58.5,266.0,56.0,255.5,53.0" stroke="orange" stroke-width="1" fill="none" />
<polyline points="215.0,50.0,202.5,51.5" stroke="green" stroke-width="1" fill="none" />
<polyline points="171.0,62.0,160.5,67.5,160.5,68.5,170.5,65.5" stroke="green" stroke-width="1" fill="none" />
<polyline points="164.0,63.5,160.0,69.0,156.0,74.0,153.5,77.0,149.0,78.5,156.5,71.5,160.0,70.5,159.5,72.5,155.5,73.5" stroke="orange" stroke-width="1" fill="none" />
<polyline points="163.0,70.0,161.5,75.0,154.0,78.5" stroke="black" stroke-width="1" fill="none" />
</svg>