<svg xmlns="http://www.w3.org/2000/svg" width="1024" height="1024" version="1.1" fill="white"><polyline points="407.5,6.0,408.0,5.5,409.0,16.5,407.0,18.5,414.0,27.5,417.0,28.0,425.0,33.0,420.0,31.5,431.5,33.0,427.0,35.0,430.0,49.0,435.5,47.0,434.0,55.0,439.0,56.5,434.0,62.5,440.0,67.0,444.0,71.5" stroke="black" stroke-width="1" fill="none" />
<polyline points="456.0,58.0,455.0,52.5,446.0,44.5,442.0,37.5,442.0,37.5,435.0,22.5,432.0,18.5,433.5,22.0" stroke="yellow" stroke-width="1" fill="none" />
<polyline points="423.0,4.5,427.5,8.5,426.0,5.5,429.0,9.0,430.0,15.0,434.0,17.5,434.5,18.5,437.0,23.0,444.0,31.0,439.5,35.0,446.0,37.5,450.5,38.5,451.0,40.0,449.0,47.0,453.0,56.5,457.5,55.5,457.0,62.0,453.0,66.0,458.0,75.0,444.5,71.0,443.0,78.0,437.0,81.0,438.0,84.0,434.5,90.0,432.0,93.5,428.5,96.0,426.0,101.5,423.0,108.0,423.5,104.5,420.5,109.5,421.0,111.5,424.0,105.0,427.0,98.5,435.0,92.0,437.0,85.0,438.5,82.5,442.0,77.0,445.5,76.0,451.0,66.5,453.5,65.5,460.0,54.5,468.5,52.0,467.0,47.5,470.5,43.0,483.5,44.5,478.5,39.0,484.0,25.5,491.0,27.0,490.0,25.5,497.5,19.5,507.0,12.5,508.0,8.0,510.5,5.0" stroke="green" stroke-width="1" fill="none" />
<polyline points="507.5,7.5,508.5,12.5,504.0,17.0,500.0,21.5,493.5,23.0,491.5,26.5,487.5,26.5,483.0,33.5,482.5,38.5,471.5,42.5,472.0,43.5,462.5,52.5,466.0,53.0" stroke="black" stroke-width="1" fill="none" />
<polyline points="507.0,79.0,507.5,82.0,502.5,75.5,503.5,87.0,501.5,91.5,495.5,98.0,489.5,94.5,485.5,104.5,481.0,103.5,478.0,111.0,467.5,113.5,469.0,122.5,468.5,128.0,461.5,136.0,460.0,143.0,465.0,141.0" stroke="black" stroke-width="1" fill="none" />
<polyline points="447.0,160.0,449.0,166.0,441.5,168.5,441.0,172.0,435.5,170.0,439.5,172.5" stroke="black" stroke-width="1" fill="none" />
<polyline points="437.5,171.5,442.5,181.5,434.0,181.0,435.5,186.0,432.5,187.0,437.5,183.5" stroke="orange" stroke-width="1" fill="none" />
<polyline points="425.0,200.5,427.5,210.0,426.0,217.5,426.5,224.0" stroke="black" stroke-width="1" fill="none" />
<polyline points="416.5,234.0,413.5,243.5,415.5,247.5,416.0,249.5,413.5,244.5" stroke="black" stroke-width="1" fill="none" />
<polyline points="399.5,279.5,400.5,288.5,405.0,290.5" stroke="yellow" stroke-width="1" fill="none" />
<polyline points="386.5,296.5,379.0,285.5,378.0,284.0,383.5,282.5,390.0,275.0,392.5,275.5" stroke="green" stroke-width="1" fill="none" />
<polyline points="374.0,265.5,374.5,265.0,375.0,261.5,376.5,259.0,374.0,253.0,371.5,254.5,373.5,246.0,371.5,241.0,372.0,236.0,372.0,234.0,369.5,234.0,376.0,227.0,372.5,225.0,376.5,225.0,370.5,216.0,368.5,216.5" stroke="yellow" stroke-width="1" fill="none" />
<polyline points="377.5,239.5,372.5,240.5,374.0,240.5,376.5,240.5" stroke="green" stroke-width="1" fill="none" />
<polyline points="368.5,247.0,369.5,253.0,366.0,252.5,374.0,256.5,372.0,267.0,368.5,273.5,370.0,267.5,371.0,274.0,368.5,273.0,367.5,274.5" stroke="black" stroke-width="1" fill="none" />
<polyline points="373.0,279.5,378.5,285.5,372.5,294.5,382.5,292.5,381.0,293.0,380.5,301.0,374.0,304.5,377.0,311.5,373.5,307.0,381.0,315.0,383.5,320.0,379.0,324.0,382.0,329.5,380.0,334.5,382.0,338.5,384.5,338.0" stroke="green" stroke-width="1" fill="none" />
<polyline points="368.0,352.5,365.0,354.0,365.5,354.5,373.5,363.0,376.5,366.0,374.5,366.5,371.0,372.0" stroke="green" stroke-width="1" fill="none" />
<polyline points="372.0,376.0,373.5,377.5" stroke="black" stroke-width="1" fill="none" />
<polyline points="383.0,384.0,383.5,385.0,380.0,392.0,379.5,396.0,384.0,397.5" stroke="orange" stroke-width="1" fill="none" />
<polyline points="363.0,430.5,359.0,422.0,355.5,416.5,352.0,414.5,348.5,409.0,346.0,405.5,336.5,403.0,337.0,400.0,332.0,400.5,332.0,399.5,323.5,396.0,319.5,388.5,316.5,392.0,310.0,390.0,308.0,389.5,303.5,387.0,303.0,383.0,302.5,393.5,303.0,391.0" stroke="black" stroke-width="1" fill="none" />
<polyline points="308.5,380.5,317.0,378.0,321.5,371.0,321.0,363.0,325.5,354.5,327.0,349.0,337.5,344.5" stroke="yellow" stroke-width="1" fill="none" />
<polyline points="354.5,325.5,352.5,330.0,355.0,333.5,354.0,333.0,356.0,340.5,353.0,335.5" stroke="black" stroke-width="1" fill="none" />
<polyline points="354.5,364.5,356.0,364.5,353.5,366.5,356.5,374.5,353.5,380.0,353.5,381.0,356.0,391.5,355.0,395.0,350.5,391.0,352.5,402.0,351.5,407.0,352.0,405.5,352.0,411.0,353.0,413.0,350.5,415.0,350.0,413.5" stroke="orange" stroke-width="1" fill="none" />
<polyline points="358.0,384.0,357.5,377.5,362.5,368.5,357.0,370.0,360.5,362.0,359.5,363.5" stroke="yellow" stroke-width="1" fill="none" />
<polyline points="360.5,360.0,361.0,361.5,360.5,370.0,357.0,374.0,361.0,374.5,357.0,379.0,358.5,378.5" stroke="orange" stroke-width="1" fill="none" />
<polyline points="358.0,356.5,353.0,361.5,352.5,364.0,355.0,366.5,357.0,370.0,354.0,372.5,357.5,378.5,355.0,380.5,351.5,390.0,352.0,391.5,355.0,399.0,361.0,399.5,354.0,405.0,352.5,407.5,359.0,409.5,352.5,408.5,357.5,408.5" stroke="yellow" stroke-width="1" fill="none" />
<polyline points="370.5,467.0,375.5,460.0,375.0,460.0,374.0,454.0,372.0,447.0,372.0,445.5,376.5,438.5,373.0,437.5,372.0,430.5,374.5,432.0,379.5,428.5,376.5,424.5,376.5,418.0,380.0,407.5,376.5,408.0,377.0,404.5,373.5,402.0,375.0,398.0,376.5,391.5,379.5,391.0,375.5,384.5,381.0,378.0,376.0,373.0,375.5,372.0,373.5,368.5,380.5,369.0,381.5,359.0,377.5,358.0,381.0,350.0,377.5,348.0,378.5,347.0,372.0,344.5,371.0,336.5,377.0,332.0,375.5,329.5,374.0,327.5,373.5,322.5,376.0,319.0,373.5,315.0,373.0,309.5,374.0,304.0,373.5,302.0,375.5,296.0,372.5,291.5,369.5,286.5,369.5,281.5,365.5,280.0,372.5,278.0,367.0,267.0,366.5,270.0,369.0,264.5,373.0,257.5,369.5,257.0,364.0,252.5,366.5,247.5,367.5,245.5,368.5,237.5,365.5,233.5,361.5,231.0,362.0,227.5,362.0,224.0,357.5,215.0,354.5,216.5,359.0,211.5,357.0,208.5,351.5,204.5,346.5,197.0,349.5,201.5,345.0,194.5" stroke="green" stroke-width="1" fill="none" />
<polyline points="" stroke="black" stroke-width="1" fill="none" />
<polyline points="351.0,206.0" stroke="yellow" stroke-width="1" fill="none" />
<polyline points="355.0,197.0,354.0,192.0,353.0,193.0" stroke="yellow" stroke-width="1" fill="none" />
<polyline points="358.5,187.0,359.0,191.5,358.0,198.0,358.5,203.0,360.5,205.0,357.0,201.5" stroke="orange" stroke-width="1" fill="none" />
<polyline points="351.0,201.0" stroke="black" stroke-width="1" fill="none" />
<polyline points="350.5,200.0,351.5,203.0,353.0,205.5" stroke="yellow" stroke-width="1" fill="none" />
<polyline points="347.5,205.5,341.0,201.0,338.0,202.0,339.0,203.0" stroke="black" stroke-width="1" fill="none" />
<polyline points="342.5,212.5,349.5,214.5,352.0,208.0,359.5,217.5,352.0,226.5,357.5,229.5,361.0,233.5,362.5,238.5,361.0,242.5,365.0,248.5,366.0,251.5" stroke="green" stroke-width="1" fill="none" />
<polyline points="363.0,242.5,363.0,242.5,367.0,246.5,362.5,249.0" stroke="green" stroke-width="1" fill="none" />
<polyline points="346.5,236.0,350.0,241.0,338.0,240.0" stroke="yellow" stroke-width="1" fill="none" />
<polyline points="347.5,250.0,339.5,253.0,334.5,257.5,333.5,259.5,331.5,259.0,327.5,255.0" stroke="black" stroke-width="1" fill="none" />
<polyline points="332.5,251.5,337.5,247.0,340.5,246.0,342.0,246.5,349.5,249.0,348.5,244.5" stroke="orange" stroke-width="1" fill="none" />
<polyline points="353.0,250.5,350.0,257.5,343.5,260.5" stroke="black" stroke-width="1" fill="none" />
<polyline points="336.0,261.5,340.5,264.0,340.5,269.0,343.0,272.0,340.0,282.5" stroke="orange" stroke-width="1" fill="none" />
<polyline points="347.0,280.0,349.5,277.5,351.5,284.5,352.5,288.5,354.0,293.0,348.5,294.5,350.0,300.0,351.5,303.0,348.0,308.5,344.0,308.5,350.5,312.5,342.0,319.5,340.5,322.5,346.0,327.0,338.5,326.5,335.0,332.5,333.5,336.5,334.5,337.5,328.0,343.0,330.0,355.0,329.5,350.0,325.5,356.0,321.5,359.5,319.5,362.5,321.0,369.0,317.5,372.0,316.5,375.5,316.5,380.5,316.5,384.5,314.5,388.5,320.5,386.5,329.0,395.5,338.0,402.5,341.0,405.0,344.5,412.5,349.5,414.5,352.0,416.5,358.0,420.0,360.5,427.5,358.0,432.5,361.0,432.5,363.5,436.0,366.5,442.0,364.5,445.5,367.5,450.0,368.5,453.5,369.0,459.0,371.5,462.5,366.0,471.0,374.0,473.0,371.0,475.0,377.0,476.0,376.5,482.0,377.0,486.5,383.5,486.0,379.5,491.5,380.5,496.5,380.5,499.0,379.5,504.0,385.5,512.5,390.5,512.5,386.5,518.5" stroke="black" stroke-width="1" fill="none" />
<polyline points="428.0,491.5,430.5,482.0,435.5,483.5,441.0,484.0,445.0,480.5,448.5,475.5,449.5,466.0,460.0,465.0" stroke="orange" stroke-width="1" fill="none" />
<polyline points="449.0,475.0,452.0,474.5,447.5,468.0,448.0,465.0,454.0,469.5" stroke="orange" stroke-width="1" fill="none" />
<polyline points="451.0,448.5,461.0,442.0" stroke="yellow" stroke-width="1" fill="none" />
<polyline points="470.0,422.0,475.0,413.0,478.0,411.0,482.5,402.5,485.0,404.0,492.0,396.5,492.5,395.5,493.5,392.5,498.5,390.5,504.5,388.5,504.5,385.0,513.5,382.0,509.0,379.0,511.5,382.0" stroke="yellow" stroke-width="1" fill="none" />
<polyline points="510.0,382.5,515.5,382.5,504.5,387.5,495.0,388.5,489.5,394.0,486.5,405.5,482.5,404.0,479.5,407.5,476.5,411.0,473.0,418.5,470.0,424.5,470.0,420.5,467.0,427.0,463.0,428.0,458.5,435.5,460.5,437.5,455.0,440.0,459.0,445.5,459.0,452.5,457.5,455.0,455.0,454.0,453.5,456.0,451.0,465.5,446.0,476.5,449.5,475.0,447.5,481.0,442.5,484.5,443.5,482.0" stroke="green" stroke-width="1" fill="none" />
<polyline points="432.0,476.0,435.0,478.0,431.0,479.0,439.0,477.0,438.0,470.0,438.0,465.5,438.5,463.5,434.5,453.0,439.5,456.5,437.0,453.0" stroke="yellow" stroke-width="1" fill="none" />
<polyline points="434.5,456.0,430.5,450.0,427.5,452.5,432.5,442.5,436.0,437.5,439.0,436.5,437.5,428.0,433.0,430.5,432.0,435.0,431.5,429.5" stroke="yellow" stroke-width="1" fill="none" />
<polyline points="429.0,468.5,429.0,471.0,420.5,478.0,424.5,474.5,423.0,482.0,423.5,493.0" stroke="orange" stroke-width="1" fill="none" />
<polyline points="419.0,469.5,420.0,471.5,423.0,477.0,423.0,471.0,430.5,467.5,430.0,463.5,434.5,461.0,434.0,460.0" stroke="orange" stroke-width="1" fill="none" />
<polyline points="472.5,411.5,475.0,412.0,476.0,411.0,483.0,409.5,481.0,398.0" stroke="black" stroke-width="1" fill="none" />
<polyline points="444.5,428.5,446.0,426.5,447.5,421.5,446.5,412.5,447.5,409.5,448.0,411.5,450.0,405.0,453.5,398.5,450.0,392.0,452.0,391.0,454.0,385.0,454.0,381.5,451.5,378.5,453.5,376.5,455.5,372.5,451.0,365.5" stroke="black" stroke-width="1" fill="none" />
<polyline points="385.5,343.0,389.5,339.5,385.5,334.5,382.0,326.0,383.0,325.5" stroke="black" stroke-width="1" fill="none" />
<polyline points="362.0,353.5,367.5,358.5,371.0,362.0,366.5,366.5,367.0,364.0,365.0,377.5,364.5,384.0,362.0,386.0,373.5,385.5,373.0,383.5,375.0,389.5" stroke="black" stroke-width="1" fill="none" />
<polyline points="318.5,345.0,319.5,344.0" stroke="black" stroke-width="1" fill="none" />
<polyline points="315.5,348.0,316.5,350.5,311.0,350.5" stroke="green" stroke-width="1" fill="none" />
<polyline points="309.0,352.0,301.5,354.0,297.5,355.0" stroke="green" stroke-width="1" fill="none" />
<polyline points="297.0,354.0,306.0,360.5,306.5,360.5,311.5,358.5,307.5,358.0,307.0,364.5,308.5,366.0,305.0,367.5" stroke="black" stroke-width="1" fill="none" />
<polyline points="311.0,348.5,310.0,348.5,302.5,348.0,299.0,347.0,298.5,349.5" stroke="green" stroke-width="1" fill="none" />
<polyline points="306.0,333.5,307.0,327.0,314.0,330.5,312.0,325.0,306.0,332.0,304.0,331.5,303.0,332.5,309.0,333.0,309.5,328.5,312.5,331.5" stroke="orange" stroke-width="1" fill="none" />
<polyline points="310.0,325.0,311.5,324.0,299.0,332.5" stroke="black" stroke-width="1" fill="none" />
<polyline points="291.0,328.0,291.0,326.0,305.5,324.0,299.5,323.0,295.5,318.5,297.5,315.5" stroke="yellow" stroke-width="1" fill="none" />
<polyline points="319.5,329.5,325.0,328.0,324.0,318.5,321.0,318.0,321.0,312.0,320.0,308.5,323.0,311.5,322.0,304.5,322.5,303.5" stroke="yellow" stroke-width="1" fill="none" />
<polyline points="" stroke="orange" stroke-width="1" fill="none" />
<polyline points="333.5,271.5,334.0,270.5,334.5,270.0,332.0,270.0,327.0,260.5,329.5,260.5,330.0,259.0" stroke="orange" stroke-width="1" fill="none" />
<polyline points="326.5,269.0,329.0,274.0,329.5,273.5,327.0,274.5,334.0,266.0,332.0,272.5,324.0,269.5,329.5,263.5" stroke="green" stroke-width="1" fill="none" />
<polyline points="323.5,271.5,324.5,272.0" stroke="black" stroke-width="1" fill="none" />
<polyline points="" stroke="black" stroke-width="1" fill="none" />
<polyline points="318.5,264.5,325.5,262.5,330.5,262.5,334.0,260.5,337.0,262.0,341.5,254.0,343.5,259.5,350.5,252.0,351.5,249.0" stroke="black" stroke-width="1" fill="none" />
<polyline points="344.0,240.0,348.5,234.5,345.5,237.5,345.0,226.5,345.5,224.5,340.0,219.5,342.0,212.5,341.5,214.5" stroke="black" stroke-width="1" fill="none" />
<polyline points="342.0,196.5,345.5,201.0,353.5,198.0,355.0,196.5,360.5,195.0,358.5,190.5,369.5,188.5,370.5,183.5,374.5,182.5,380.5,183.0,376.0,188.0,388.0,181.5,390.5,182.0,394.0,172.5,398.0,169.5,400.5,178.0,404.0,169.0,405.5,173.5,404.5,177.0,396.0,182.5,391.5,184.5,387.5,190.5,380.0,190.5,384.0,192.5,390.5,187.5,391.5,183.5,395.0,172.5,400.5,178.0,398.0,176.5" stroke="black" stroke-width="1" fill="none" />
<polyline points="406.0,156.0,405.0,159.0,407.5,162.5,398.5,170.5,387.5,174.5" stroke="black" stroke-width="1" fill="none" />
<polyline points="373.0,179.0,373.5,182.0,366.5,186.0,354.5,190.0,347.5,189.5,342.0,198.0,335.5,200.0,335.0,206.0,344.0,207.5,348.5,212.5,352.0,213.0" stroke="green" stroke-width="1" fill="none" />
<polyline points="335.0,209.5,340.0,210.5,343.0,208.5,338.0,212.0,338.5,212.5,339.5,211.5" stroke="black" stroke-width="1" fill="none" />
<polyline points="338.0,207.5" stroke="green" stroke-width="1" fill="none" />
<polyline points="338.5,204.5,348.0,207.5,352.5,215.5,353.5,218.0,354.5,216.0" stroke="green" stroke-width="1" fill="none" />
<polyline points="354.5,208.0,351.0,204.5,348.5,203.5,346.0,203.5,339.0,208.0" stroke="black" stroke-width="1" fill="none" />
<polyline points="343.0,204.5,349.5,203.5,352.5,202.0" stroke="green" stroke-width="1" fill="none" />
<polyline points="346.5,196.5,349.0,190.5" stroke="orange" stroke-width="1" fill="none" />
<polyline points="341.5,196.5,346.0,198.5,344.5,204.0,350.5,204.5,356.5,203.0" stroke="black" stroke-width="1" fill="none" />
<polyline points="" stroke="black" stroke-width="1" fill="none" />
<polyline points="368.0,198.0,371.0,197.0" stroke="black" stroke-width="1" fill="none" />
<polyline points="392.0,154.5,392.5,161.0,383.5,166.5,387.0,168.5,383.0,175.5,382.5,177.0,385.0,172.5,384.5,167.0,393.5,156.0" stroke="black" stroke-width="1" fill="none" />
<polyline points="399.0,159.5,399.5,165.5,389.5,173.5,392.0,175.5,389.0,175.0,393.0,170.5,395.0,166.5,401.0,161.0" stroke="yellow" stroke-width="1" fill="none" />
<polyline points="405.0,122.0,393.0,128.5,388.5,129.5,385.0,136.0,392.0,131.5,389.5,128.0,392.5,124.0" stroke="green" stroke-width="1" fill="none" />
<polyline points="400.0,115.0,390.5,126.5,389.0,125.0,381.5,129.5,385.5,132.0,380.5,128.0,395.5,118.5,399.0,117.0,398.5,119.5" stroke="black" stroke-width="1" fill="none" />
<polyline points="395.5,117.0,387.0,125.0,383.5,125.5,378.0,129.0,375.0,133.0,367.0,140.5,353.0,141.0,351.5,141.5" stroke="orange" stroke-width="1" fill="none" />
<polyline points="328.0,150.0,318.5,157.5,321.0,161.0,316.0,160.5,308.0,166.0,301.0,176.0,297.5,179.0" stroke="yellow" stroke-width="1" fill="none" />
<polyline points="281.5,177.5" stroke="black" stroke-width="1" fill="none" />
<polyline points="277.5,172.0,277.5,173.0,278.5,174.5,284.0,175.5" stroke="orange" stroke-width="1" fill="none" />
<polyline points="287.0,179.5,282.0,175.5,281.0,179.5" stroke="black" stroke-width="1" fill="none" />
<polyline points="270.0,173.5,274.5,179.5,282.5,178.0,278.5,174.5,275.0,173.0" stroke="yellow" stroke-width="1" fill="none" />
<polyline points="271.0,181.5,262.0,179.5,261.0,176.5,255.5,178.0,261.0,175.5,248.0,169.0,242.0,168.0,245.0,165.0" stroke="yellow" stroke-width="1" fill="none" />
<polyline points="244.0,170.0,242.0,172.0,248.5,171.0,248.0,175.0,253.5,171.5,248.5,172.5,262.5,183.0,248.0,184.5,248.0,188.5,243.0,194.0,242.0,192.5,237.5,195.5,238.0,202.5,236.0,209.5,239.5,210.0,245.0,213.5,246.5,211.0,252.0,216.0,256.5,204.0,254.5,209.5,254.0,210.5,249.5,212.5,250.0,218.5,250.5,225.0,243.0,224.0,244.5,233.5,239.5,234.0,237.0,233.5,236.0,245.5,229.5,248.5,229.5,255.5,224.5,256.5,222.0,257.0,221.0,267.0,217.5,269.0,215.0,276.5,214.5,276.5,208.5,281.5,204.0,286.5,204.0,290.5,205.0,296.5,202.0,300.5,197.5,298.0,194.0,305.0,201.5,306.5,198.0,315.0,189.0,317.5,192.5,317.5,183.0,321.5,183.0,323.5,182.0,331.0,175.0,337.5,171.0,335.5,166.5,342.0,165.5,347.0,165.0,344.5" stroke="black" stroke-width="1" fill="none" />
<polyline points="154.5,352.0,160.0,354.0,159.5,357.0,153.5,360.0,156.5,368.0,153.0,368.5,159.5,378.5,157.0,371.5,156.5,381.0,151.5,386.0,155.5,390.5,157.5,393.5,150.0,391.5,159.0,403.5,162.0,406.0,164.5,406.0,166.5,410.5" stroke="orange" stroke-width="1" fill="none" />
<polyline points="166.0,409.0,166.5,410.0,163.0,407.5,158.5,412.5" stroke="black" stroke-width="1" fill="none" />
<polyline points="169.0,410.5,166.5,413.0,169.0,411.5,167.5,416.5,171.0,421.5,169.5,422.5,172.5,426.5" stroke="black" stroke-width="1" fill="none" />
<polyline points="169.5,432.5" stroke="black" stroke-width="1" fill="none" />
<polyline points="183.5,446.5,176.5,440.5,178.5,443.0,186.5,448.0,187.5,438.0,187.5,445.0,188.0,444.5" stroke="yellow" stroke-width="1" fill="none" />
<polyline points="180.5,444.0,186.5,444.5,185.5,448.5" stroke="black" stroke-width="1" fill="none" />
<polyline points="" stroke="black" stroke-width="1" fill="none" />
<polyline points="" stroke="black" stroke-width="1" fill="none" />
<polyline points="175.0,455.5,176.5,460.5,177.0,465.5,170.5,467.0,168.0,470.5,165.5,472.0" stroke="orange" stroke-width="1" fill="none" />
<polyline points="165.5,469.0,156.5,472.0,155.0,473.5,149.5,470.0,140.5,453.0,139.5,456.5,137.5,457.5,134.0,464.0" stroke="black" stroke-width="1" fill="none" />
<polyline points="138.5,465.5,137.5,469.5,143.5,472.5,147.5,477.5,149.0,479.5,154.0,487.0,153.5,485.5,154.0,481.0,159.0,490.5,163.0,496.0,163.5,493.5" stroke="black" stroke-width="1" fill="none" />
<polyline points="163.5,502.0,167.0,506.5,167.0,502.5" stroke="black" stroke-width="1" fill="none" />
<polyline points="170.5,504.5,169.0,504.5,169.5,499.5,167.0,509.0,157.5,501.5,154.0,499.0,151.0,499.0,147.0,489.0,142.5,490.0,143.0,484.5" stroke="yellow" stroke-width="1" fill="none" />
<polyline points="142.0,479.5,142.5,492.0,146.0,493.0,146.5,503.0,147.5,501.0" stroke="yellow" stroke-width="1" fill="none" />
<polyline points="153.5,505.0" stroke="black" stroke-width="1" fill="none" />
<polyline points="147.0,491.0" stroke="orange" stroke-width="1" fill="none" />
<polyline points="157.0,494.0,156.5,491.5,155.5,503.0" stroke="green" stroke-width="1" fill="none" />
<polyline points="153.5,487.0,157.0,491.5,157.0,483.5" stroke="green" stroke-width="1" fill="none" />
<polyline points="149.5,491.5,150.0,488.5,152.5,493.0,157.0,493.5,156.5,495.0,153.5,499.0,160.0,507.0,157.0,509.5,163.5,508.0,162.0,508.0,160.5,509.0" stroke="green" stroke-width="1" fill="none" />
<polyline points="156.0,505.0,151.5,503.5,146.5,498.5,149.5,490.5,141.0,489.0,139.0,481.5,141.5,482.0" stroke="green" stroke-width="1" fill="none" />
<polyline points="144.5,493.0,152.5,494.5,152.0,491.5,150.5,500.5,149.0,503.0,150.0,507.5" stroke="black" stroke-width="1" fill="none" />
<polyline points="146.5,504.0,145.0,499.0" stroke="yellow" stroke-width="1" fill="none" />
<polyline points="145.0,502.5,144.0,502.5,147.5,509.0,153.0,507.5,156.0,517.0" stroke="orange" stroke-width="1" fill="none" />
<polyline points="139.0,513.0,143.0,509.0,142.0,504.5,136.5,498.0,139.5,496.0,140.5,494.0,131.0,486.5" stroke="orange" stroke-width="1" fill="none" />
<polyline points="140.0,486.5,134.0,492.5,142.0,496.5,131.5,501.0,143.0,503.0,139.5,500.5" stroke="green" stroke-width="1" fill="none" />
<polyline points="128.0,498.5,125.5,496.5" stroke="green" stroke-width="1" fill="none" />
<polyline points="126.5,499.0,125.0,506.5" stroke="yellow" stroke-width="1" fill="none" />
<polyline points="122.0,512.0,128.0,506.5,121.5,495.5,123.5,497.5,126.5,487.0" stroke="black" stroke-width="1" fill="none" />
<polyline points="127.0,498.5" stroke="green" stroke-width="1" fill="none" />
<polyline points="135.0,516.5,132.0,516.0,132.0,509.0,128.5,502.5,129.0,506.5" stroke="orange" stroke-width="1" fill="none" />
<polyline points="140.0,490.5,137.0,487.5,138.5,480.0,140.5,480.5,140.0,483.0" stroke="black" stroke-width="1" fill="none" />
<polyline points="132.5,480.0,134.5,490.5,136.0,494.5,131.5,495.5,137.5,505.0,136.0,504.0,140.5,511.0,138.5,517.0,138.5,509.5" stroke="orange" stroke-width="1" fill="none" />
<polyline points="161.5,509.0,165.0,509.5" stroke="green" stroke-width="1" fill="none" />
<polyline points="165.5,494.5,158.5,493.0" stroke="green" stroke-width="1" fill="none" />
<polyline points="167.5,481.0,160.0,481.5,161.5,478.0" stroke="yellow" stroke-width="1" fill="none" />
<polyline points="166.5,476.0,167.5,478.0,169.5,482.5" stroke="yellow" stroke-width="1" fill="none" />
<polyline points="162.0,466.0,162.5,468.5,170.0,468.0,172.5,472.5,167.0,477.5,161.5,483.5,163.5,488.5,167.0,493.5,170.5,490.5" stroke="yellow" stroke-width="1" fill="none" />
<polyline points="204.0,486.0,206.0,488.5,208.0,486.5,208.0,479.5,213.0,483.0,219.0,480.0,224.5,472.5" stroke="black" stroke-width="1" fill="none" />
<polyline points="228.5,463.0,233.5,455.0" stroke="orange" stroke-width="1" fill="none" />
<polyline points="217.5,481.0,221.0,473.0,221.5,469.5,229.5,467.0,230.0,463.5,233.0,456.0,233.0,453.0,235.5,451.5,234.5,446.0,231.5,447.0,236.0,439.5,238.5,434.0,238.5,435.0,235.5,424.5,243.5,425.0,234.0,420.5,231.0,414.5,231.0,411.5,233.5,404.5,230.5,403.0,228.5,405.0" stroke="green" stroke-width="1" fill="none" />
<polyline points="228.0,411.0,227.5,411.0,222.5,409.5,220.5,416.0,222.0,417.0,225.0,411.0" stroke="green" stroke-width="1" fill="none" />
<polyline points="239.0,416.0,224.0,416.0,222.5,417.0,232.0,422.5,224.5,423.5,220.5,419.0" stroke="green" stroke-width="1" fill="none" />
<polyline points="242.5,418.0,250.0,417.0,246.5,425.5,242.0,426.0,238.5,422.0,240.5,431.0,238.0,436.0,243.0,445.0,238.0,444.0,242.0,448.0,235.5,452.0,235.5,455.0,233.0,458.0,236.5,470.0,232.5,471.5,221.5,473.0,226.0,475.0,224.0,481.0,220.0,487.0,212.5,490.0,217.0,491.0" stroke="black" stroke-width="1" fill="none" />
<polyline points="194.0,499.0,200.5,492.5,207.0,492.5,207.0,495.0,209.0,494.0,212.5,491.0,216.0,489.0,219.5,489.0,227.5,479.0" stroke="green" stroke-width="1" fill="none" />
<polyline points="199.5,450.0,200.5,445.0,197.0,449.5,197.0,447.5,191.0,450.0,193.5,447.0" stroke="green" stroke-width="1" fill="none" />
<polyline points="197.0,448.0,193.5,450.0,185.0,448.5,180.0,453.5,187.5,451.5,185.5,453.0,184.0,442.0,189.5,439.0,180.0,434.5,175.5,432.0,182.0,429.5,188.0,427.0,178.5,421.0,179.0,421.5,184.5,413.0,174.5,413.0,176.0,410.0,167.5,401.0,164.0,397.5,160.5,393.5,163.5,390.5,159.5,386.5,167.0,383.0,169.5,377.5,165.5,381.5" stroke="black" stroke-width="1" fill="none" />
<polyline points="164.0,376.0,162.0,368.5,166.0,367.5,173.5,362.5,180.5,359.5,183.5,346.5,182.0,341.5,185.5,343.0,193.0,334.0,198.0,330.0,198.5,322.0,197.0,321.5" stroke="black" stroke-width="1" fill="none" />
<polyline points="201.0,314.5,207.0,319.0" stroke="green" stroke-width="1" fill="none" />
<polyline points="190.5,318.5,199.5,306.0,195.5,301.0,203.5,289.5,205.0,292.0,211.5,277.0,216.5,272.5,219.0,262.0,221.5,260.5,226.5,247.0,233.5,246.0,232.0,241.0,241.0,232.5,243.0,230.0,245.5,225.0,254.5,221.0,256.5,218.0,257.5,216.0,252.0,212.5" stroke="orange" stroke-width="1" fill="none" />
<polyline points="270.5,230.0,267.0,228.5" stroke="black" stroke-width="1" fill="none" />
<polyline points="261.5,234.0,268.5,234.0,261.5,239.0,262.0,242.0" stroke="black" stroke-width="1" fill="none" />
<polyline points="261.0,238.5,262.5,235.0,260.0,229.5,261.5,221.0,264.0,229.0,255.5,225.0,252.5,229.0,247.5,231.5,244.0,232.0,245.0,246.5,239.5,245.0,231.5,253.5,232.0,257.0,224.5,265.0,220.0,271.5,217.0,281.0,215.5,284.5,217.0,278.5,217.5,279.5,222.0,272.5,224.5,267.5,223.5,262.5,227.5,258.0,227.5,260.0,233.5,250.5,231.5,248.0,240.5,241.5,243.5,240.0,242.5,242.5,251.0,228.0,256.5,225.5,259.5,221.0,260.0,220.0,263.0,213.5,262.5,214.5,265.0,214.0,267.0,210.0,268.0,204.0,270.5,199.0,270.5,198.0,268.0,189.0,270.0,185.0,264.0,191.5,259.5,197.0,256.5,200.5,257.5,203.0,255.5,206.0,258.0,204.5,261.5,201.5" stroke="yellow" stroke-width="1" fill="none" />
<polyline points="252.0,196.0,253.5,195.5" stroke="yellow" stroke-width="1" fill="none" />
<polyline points="255.5,207.5,257.0,214.0,252.5,213.0,247.0,221.5,245.5,227.5,243.5,230.5,230.5,234.5,230.5,234.0,229.0,236.5,228.5,227.5,236.0,227.5,232.5,218.5,228.0,219.5,227.5,218.5,225.0,218.0,225.0,215.0,228.5,203.5,226.5,202.5,223.0,204.5,224.0,203.5,226.5,205.5" stroke="black" stroke-width="1" fill="none" />
<polyline points="232.0,201.0,239.0,202.0,235.0,204.5,227.5,205.0" stroke="black" stroke-width="1" fill="none" />
<polyline points="236.5,202.5" stroke="black" stroke-width="1" fill="none" />
<polyline points="235.5,190.5" stroke="black" stroke-width="1" fill="none" />
<polyline points="246.0,205.0,249.5,194.0,257.0,189.0,259.5,188.0,253.0,186.5,245.5,193.0,241.5,196.0,249.0,191.5,260.0,186.5,259.0,190.0,259.0,189.5,266.0,182.5,267.0,177.0,276.0,185.0,272.0,183.5" stroke="green" stroke-width="1" fill="none" />
<polyline points="259.5,182.0,256.0,185.0,251.0,195.5,255.0,191.5,252.5,196.5,251.0,198.5,244.5,199.5,239.0,207.0,245.0,206.5,253.0,205.0,250.5,198.0,251.5,196.0,263.0,192.5,261.0,191.0,266.0,183.5,270.5,196.0,272.5,191.5" stroke="black" stroke-width="1" fill="none" />
<polyline points="265.0,187.5,263.0,190.0,261.5,198.0,259.5,204.5,260.0,199.0,259.5,190.5,266.5,190.0,270.0,184.5,272.5,185.5,274.5,189.0" stroke="orange" stroke-width="1" fill="none" />
<polyline points="260.5,191.0,259.5,196.0,258.5,198.0,251.0,200.0,246.5,209.0,252.0,210.0,252.0,218.5,253.5,217.0" stroke="green" stroke-width="1" fill="none" />
<polyline points="263.0,206.0,269.0,202.0,262.5,202.0,261.5,206.5,263.5,208.0,257.5,214.5,256.0,217.5,251.0,224.5,248.5,224.5,242.5,231.5,243.0,231.5,235.0,242.0" stroke="orange" stroke-width="1" fill="none" />
<polyline points="" stroke="green" stroke-width="1" fill="none" />
<polyline points="" stroke="black" stroke-width="1" fill="none" />
<polyline points="227.5,219.5,224.5,219.0,232.0,230.5,231.5,226.0" stroke="green" stroke-width="1" fill="none" />
<polyline points="211.0,228.0,213.0,228.0,217.0,228.5" stroke="green" stroke-width="1" fill="none" />
<polyline points="223.0,231.0,222.5,234.0,226.5,240.5,221.0,240.0,225.0,247.0,222.5,246.0" stroke="black" stroke-width="1" fill="none" />
<polyline points="216.5,254.5,221.0,255.5,225.0,249.0,222.5,247.5,225.0,238.5,230.5,232.5,220.0,233.5,218.0,233.5,222.0,229.0,215.5,224.5,216.0,225.5,215.0,218.5" stroke="black" stroke-width="1" fill="none" />
<polyline points="219.5,216.5,218.0,218.5,222.0,229.0,215.5,229.0,217.0,234.5,223.5,231.0,230.5,241.5,229.0,245.5,229.5,247.5" stroke="black" stroke-width="1" fill="none" />
<polyline points="226.5,246.5,223.5,253.0,217.0,261.5,214.5,270.0,212.0,271.5,203.5,284.0,200.0,288.5,198.0,295.0,196.0,305.0,189.5,318.5,189.5,317.0,183.0,326.5,177.5,327.5,173.0,329.5,176.5,333.0,168.0,333.5,161.0,337.5,158.5,336.5,153.0,342.5,147.0,348.5,145.5,347.5" stroke="yellow" stroke-width="1" fill="none" />
<polyline points="140.0,346.0,140.5,348.0,148.5,333.5,148.5,342.0,144.0,333.0,147.0,334.0,152.5,328.5,146.5,325.0,147.0,326.0" stroke="yellow" stroke-width="1" fill="none" />
<polyline points="152.0,333.5,153.0,333.0" stroke="green" stroke-width="1" fill="none" />
<polyline points="148.0,350.0,148.0,348.0,147.5,353.5" stroke="black" stroke-width="1" fill="none" />
<polyline points="147.0,350.0,137.5,346.0,132.5,341.5,134.0,339.5,134.0,333.5,135.5,331.5,130.5,326.5,131.5,322.5,132.5,318.5,132.0,317.5,131.5,309.5,127.0,304.5,130.5,297.5" stroke="black" stroke-width="1" fill="none" />
<polyline points="130.0,296.5,128.5,297.5" stroke="green" stroke-width="1" fill="none" />
<polyline points="148.5,298.0,134.0,293.5,141.0,307.0,136.0,303.5,140.5,304.0,141.0,303.5" stroke="yellow" stroke-width="1" fill="none" />
<polyline points="129.5,296.5,126.0,290.0,132.5,291.0,134.5,289.5" stroke="yellow" stroke-width="1" fill="none" />
<polyline points="131.0,279.0,131.0,281.0,131.0,272.5,137.0,278.5,141.5,273.5" stroke="black" stroke-width="1" fill="none" />
<polyline points="149.5,266.0,158.0,264.5" stroke="green" stroke-width="1" fill="none" />
<polyline points="152.0,264.0,154.5,268.0,153.5,272.5,157.0,272.0" stroke="black" stroke-width="1" fill="none" />
<polyline points="151.0,273.0,153.0,272.5" stroke="orange" stroke-width="1" fill="none" />
<polyline points="168.5,279.0,167.0,275.5,172.0,276.0,169.0,271.5,168.0,267.0,170.5,264.5,169.0,258.5,173.0,254.5,170.0,252.0,174.0,258.0,167.5,257.5" stroke="green" stroke-width="1" fill="none" />
<polyline points="168.5,253.5,169.0,252.0,178.5,247.5,181.5,251.0" stroke="black" stroke-width="1" fill="none" />
<polyline points="167.0,262.0,170.0,258.0,173.0,262.5" stroke="black" stroke-width="1" fill="none" />
<polyline points="" stroke="green" stroke-width="1" fill="none" />
<polyline points="181.5,263.0,183.0,264.5,184.5,259.5,185.5,259.5,186.0,261.5" stroke="yellow" stroke-width="1" fill="none" />
<polyline points="179.5,262.0,178.5,261.0" stroke="black" stroke-width="1" fill="none" />
<polyline points="179.5,262.0" stroke="black" stroke-width="1" fill="none" />
<polyline points="184.5,255.0,186.0,256.0,188.5,258.5,183.0,262.5,190.5,264.5,182.5,265.5" stroke="black" stroke-width="1" fill="none" />
<polyline points="204.0,262.0,208.0,263.5,206.0,262.5,208.5,265.5,206.0,265.0" stroke="orange" stroke-width="1" fill="none" />
<polyline points="212.0,254.5,214.5,262.5,210.5,251.5,206.5,248.5,209.5,247.0,210.5,238.0,207.5,236.5,213.5,238.5,206.5,241.0,198.5,240.0" stroke="orange" stroke-width="1" fill="none" />
<polyline points="206.5,239.5,211.0,240.5,210.0,246.0,213.0,243.5,216.0,242.5,217.5,244.0" stroke="black" stroke-width="1" fill="none" />
<polyline points="207.0,251.5,207.5,250.5,205.5,249.5" stroke="black" stroke-width="1" fill="none" />
<polyline points="214.5,257.0,217.0,263.5" stroke="orange" stroke-width="1" fill="none" />
<polyline points="213.5,258.5,213.5,246.5,211.5,246.5,207.5,236.5,209.0,241.5,212.0,235.5,210.5,232.0" stroke="green" stroke-width="1" fill="none" />
<polyline points="216.0,232.5,213.5,235.0,208.5,238.5,211.5,247.5,212.0,247.0,211.5,251.5,210.0,254.5,213.5,261.0" stroke="black" stroke-width="1" fill="none" />
<polyline points="209.0,252.5,214.0,254.5,209.0,247.0" stroke="green" stroke-width="1" fill="none" />
<polyline points="201.5,261.5,196.0,255.5,199.0,253.5,192.0,246.5" stroke="black" stroke-width="1" fill="none" />
<polyline points="184.0,249.5,194.0,251.0,194.0,250.5,197.0,251.0" stroke="orange" stroke-width="1" fill="none" />
<polyline points="188.5,267.0,183.0,264.0,185.5,262.5,176.5,267.5,176.5,259.5,184.5,250.0,179.5,250.0,181.5,243.5,188.5,234.5,191.0,237.5,183.5,246.5" stroke="yellow" stroke-width="1" fill="none" />
<polyline points="188.5,228.0,190.0,222.0,197.0,217.5,199.0,216.5,190.5,227.0,196.0,230.5" stroke="black" stroke-width="1" fill="none" />
<polyline points="191.5,217.5,185.0,221.5,184.0,220.5,186.5,229.0,189.5,231.0,187.5,234.0" stroke="green" stroke-width="1" fill="none" />
<polyline points="184.0,238.5,185.5,239.0" stroke="yellow" stroke-width="1" fill="none" />
<polyline points="188.5,242.5,189.0,246.0,191.5,237.0,192.5,236.5,199.5,237.0,200.0,241.5" stroke="green" stroke-width="1" fill="none" />
<polyline points="214.5,228.5,210.5,229.5,212.0,230.0" stroke="black" stroke-width="1" fill="none" />
<polyline points="210.0,220.0" stroke="black" stroke-width="1" fill="none" />
<polyline points="213.5,211.5,209.0,210.0,214.0,220.5,212.0,224.5,219.5,231.0,219.0,237.5" stroke="green" stroke-width="1" fill="none" />
<polyline points="227.5,197.0,226.5,201.0,220.0,212.5,223.5,219.0,219.5,212.0,222.5,216.5,229.5,227.0,236.0,229.0,229.0,229.0,234.5,231.5,237.5,244.5,236.0,240.5,234.0,250.5,230.0,248.5,228.0,250.5,224.5,254.5,222.0,261.5,217.0,262.0,214.5,266.5,218.5,271.5,215.0,280.0,208.0,279.5,213.0,288.5,201.5,289.5,201.0,292.0,208.0,305.0,194.0,301.0,200.5,304.0,203.0,309.5,199.5,315.0,189.0,317.5,191.0,323.5,198.0,322.0,196.0,314.0,202.5,313.0,217.5,315.0,216.0,308.5,222.5,295.5,227.0,295.0,232.0,287.5,227.0,280.5,242.0,279.0,235.5,270.5,241.5,268.5,249.5,264.5,249.0,258.0,253.5,256.0,255.0,252.0,263.0,249.5,264.5,247.5,269.5,244.0,278.5,250.0,279.5,248.5,280.0,253.0,289.0,252.0,286.5,249.0,301.5,256.5,304.5,254.5" stroke="yellow" stroke-width="1" fill="none" />
<polyline points="" stroke="green" stroke-width="1" fill="none" />
<polyline points="287.0,258.5,288.5,269.5,290.5,276.0,291.0,275.0" stroke="green" stroke-width="1" fill="none" />
<polyline points="" stroke="black" stroke-width="1" fill="none" />
<polyline points="" stroke="green" stroke-width="1" fill="none" />
<polyline points="282.0,275.0,279.0,274.5,280.0,273.5" stroke="green" stroke-width="1" fill="none" />
<polyline points="280.5,263.5,279.0,268.5,273.0,265.5,272.0,265.0,268.0,267.0" stroke="orange" stroke-width="1" fill="none" />
<polyline points="268.5,268.0,272.5,267.0,276.5,264.0" stroke="orange" stroke-width="1" fill="none" />
<polyline points="269.0,269.5,265.0,270.5,267.5,266.5,269.0,268.5" stroke="yellow" stroke-width="1" fill="none" />
<polyline points="258.5,269.5,263.0,267.5,266.5,273.5,270.5,272.5,276.0,269.5,275.5,262.0,278.0,277.5,270.5,286.5,277.5,276.0,272.5,282.0,275.5,288.0" stroke="green" stroke-width="1" fill="none" />
<polyline points="264.5,282.0,265.0,279.5,258.0,271.5,255.5,268.0,259.5,268.0,258.5,271.5,256.0,276.5,254.0,273.0" stroke="orange" stroke-width="1" fill="none" />
<polyline points="268.0,276.0,268.0,279.0" stroke="orange" stroke-width="1" fill="none" />
<polyline points="255.5,270.0,253.0,272.0,247.0,268.5,253.0,267.5" stroke="black" stroke-width="1" fill="none" />
<polyline points="242.0,268.5,246.0,268.0,251.0,269.5,252.0,271.5,256.0,277.0,254.0,277.0,265.0,276.0,270.5,274.0,268.5,280.5,273.5,283.0,279.5,280.0,286.0,273.5" stroke="black" stroke-width="1" fill="none" />
<polyline points="288.0,266.5,290.0,263.5,281.5,258.5,281.5,259.5,282.0,254.5,278.0,251.0,277.5,255.5" stroke="black" stroke-width="1" fill="none" />
<polyline points="277.5,254.5,274.5,248.0,268.5,251.5,268.5,249.5" stroke="yellow" stroke-width="1" fill="none" />
<polyline points="" stroke="black" stroke-width="1" fill="none" />
<polyline points="271.5,258.0,274.5,253.5,267.5,257.0,264.5,257.0,259.0,250.0,259.5,258.0" stroke="black" stroke-width="1" fill="none" />
<polyline points="267.0,267.5,267.0,269.0,263.5,273.5,272.5,271.0" stroke="yellow" stroke-width="1" fill="none" />
<polyline points="278.0,269.5,284.5,271.5,284.5,273.5,291.5,276.5,285.0,276.5,287.0,275.0,289.5,276.0" stroke="orange" stroke-width="1" fill="none" />
<polyline points="" stroke="green" stroke-width="1" fill="none" />
<polyline points="265.5,244.5,258.5,249.0,258.0,249.0,255.5,258.5,245.0,261.0,245.5,265.5,240.5,268.0,237.0,272.5,235.5,278.5,231.5,284.5,227.0,288.5,224.0,286.5,218.0,298.0,217.0,295.5,213.5,301.5,211.0,300.0,207.0,311.5,201.0,314.0,199.5,319.0,204.5,318.5,197.5,321.5,191.0,331.0,190.5,334.5,184.5,332.5,182.5,343.5,185.0,344.5,179.0,347.5,172.5,356.5,173.5,357.0,170.0,362.5,166.5,370.0,164.0,372.5,160.0,376.5,160.5,377.5,154.5,388.5,162.0,389.5,161.5,395.0,169.5,400.0,176.0,404.5,178.0,407.5,175.5,403.0,176.0,398.0" stroke="yellow" stroke-width="1" fill="none" />
<polyline points="170.0,400.5,163.0,401.5,157.5,393.0,152.5,392.0,158.0,391.5" stroke="orange" stroke-width="1" fill="none" />
<polyline points="" stroke="black" stroke-width="1" fill="none" />
<polyline points="140.5,382.0,140.0,377.0,137.5,374.0,140.0,370.5,138.5,371.5,140.5,372.5,138.0,371.0" stroke="black" stroke-width="1" fill="none" />
<polyline points="135.5,378.0,137.0,381.0,142.5,380.5" stroke="orange" stroke-width="1" fill="none" />
<polyline points="135.5,409.0,127.5,414.0,128.5,414.0,131.0,419.0,135.0,423.0,137.0,426.5,138.0,430.5,136.5,437.5,139.0,441.5,136.0,443.0,138.5,445.0,138.5,453.0,137.0,454.0,134.5,463.0,138.5,458.5,138.5,469.0,142.0,468.0,139.5,467.5,145.5,472.5,148.0,480.5,153.0,479.5,153.0,484.5,160.0,486.5,166.0,482.5" stroke="black" stroke-width="1" fill="none" />
<polyline points="" stroke="orange" stroke-width="1" fill="none" />
<polyline points="177.5,462.5,175.5,462.5,180.5,457.5,172.5,463.0,177.5,457.0,176.5,453.0,169.0,449.0,163.0,446.5,170.5,439.5,163.0,439.5,169.5,434.5,169.5,432.5,170.5,433.0" stroke="yellow" stroke-width="1" fill="none" />
<polyline points="169.0,438.0,161.5,439.0" stroke="yellow" stroke-width="1" fill="none" />
<polyline points="159.5,427.0,157.0,424.5,162.5,418.0,163.0,424.0,157.0,416.5,166.0,412.0,157.5,415.5,160.5,411.0,160.0,404.5,161.5,403.5,161.5,393.5,153.5,393.5,153.0,392.0,155.5,383.5,151.0,377.0,152.0,379.0,150.5,370.0,151.0,370.5,151.5,365.0,151.0,364.5" stroke="black" stroke-width="1" fill="none" />
<polyline points="147.0,359.5,146.0,360.5,148.5,361.0,150.5,363.5,149.5,370.0,151.0,375.5,154.5,379.0,152.5,381.5,152.0,383.0,151.5,386.0,159.5,393.5,155.0,392.0,161.0,398.0,170.0,400.0,171.5,401.5,177.0,408.0" stroke="orange" stroke-width="1" fill="none" />
<polyline points="169.0,418.5,171.5,420.0,177.0,426.0,176.0,428.0,175.5,429.0,172.0,437.0,170.0,440.5,169.5,440.5,170.0,447.0,171.0,452.0,175.5,453.0,178.0,461.5,173.0,460.0,172.0,466.0" stroke="black" stroke-width="1" fill="none" />
<polyline points="174.0,459.0,170.5,452.5" stroke="black" stroke-width="1" fill="none" />
<polyline points="164.0,449.0,158.0,446.5,160.5,447.5,167.0,455.0,166.5,461.0,174.0,458.5,167.5,465.5,168.0,470.0,161.5,468.5,163.5,477.5,164.5,476.0,156.5,480.5,161.5,486.0,164.0,485.0,158.5,493.5,159.5,495.0,163.0,501.0,171.5,502.0,175.0,510.5,174.0,512.5,172.0,511.5" stroke="black" stroke-width="1" fill="none" />
<polyline points="" stroke="black" stroke-width="1" fill="none" />
<polyline points="150.5,468.5,154.0,465.0,152.5,462.0,152.5,465.5" stroke="yellow" stroke-width="1" fill="none" />
<polyline points="" stroke="black" stroke-width="1" fill="none" />
<polyline points="150.0,458.0,152.0,451.0,157.0,451.5,151.0,447.5,151.5,444.5,149.5,437.5,147.5,436.5,148.5,430.5,144.0,425.5,137.5,426.0,140.0,423.5,138.0,414.5,132.0,410.0" stroke="yellow" stroke-width="1" fill="none" />
<polyline points="134.5,404.5,139.5,403.0,146.0,397.5,145.0,399.5,141.0,399.0" stroke="orange" stroke-width="1" fill="none" />
<polyline points="140.0,397.5,143.0,394.5,139.5,404.5" stroke="orange" stroke-width="1" fill="none" />
<polyline points="138.0,401.0,140.5,405.5,146.0,404.0,146.0,412.5,144.5,409.5" stroke="yellow" stroke-width="1" fill="none" />
<polyline points="154.5,416.5,156.5,419.5,152.5,423.0,154.0,428.0,156.5,432.0,154.5,435.0,152.5,434.5,153.0,439.0" stroke="orange" stroke-width="1" fill="none" />
<polyline points="164.0,441.0,165.5,445.0,177.0,446.5,176.5,445.5,182.0,440.5,178.5,434.5" stroke="green" stroke-width="1" fill="none" />
<polyline points="176.0,423.0,177.5,422.0,173.0,413.5,175.5,416.5,174.5,416.0,164.0,410.0,165.5,410.0,163.0,406.5,160.5,396.0,164.5,395.5,164.5,398.0" stroke="black" stroke-width="1" fill="none" />
<polyline points="166.0,403.5,168.0,403.0,168.0,408.0,176.0,414.5,171.5,420.0,167.0,420.5,168.0,429.5,161.5,429.0,164.0,428.5,161.0,433.5,162.5,439.5,159.5,437.0,164.0,430.0,174.0,427.5,172.5,424.5" stroke="yellow" stroke-width="1" fill="none" />
<polyline points="169.0,431.0,165.5,432.5,172.0,433.5,173.0,435.0,175.0,432.5" stroke="black" stroke-width="1" fill="none" />
<polyline points="167.0,443.5,165.0,446.5,156.0,449.5,154.5,453.0,159.0,454.5,159.5,455.0,162.0,462.0,163.0,459.5" stroke="black" stroke-width="1" fill="none" />
<polyline points="165.0,456.0,162.0,459.0,161.0,455.5,163.5,453.5,156.5,450.0,156.0,447.5,159.5,444.0" stroke="green" stroke-width="1" fill="none" />
<polyline points="" stroke="black" stroke-width="1" fill="none" />
<polyline points="149.0,451.0,151.5,453.5,153.0,455.0,151.0,456.0,154.5,456.0,156.0,456.0,164.0,456.0,162.5,444.5" stroke="orange" stroke-width="1" fill="none" />
<polyline points="145.0,448.0,145.5,448.0" stroke="black" stroke-width="1" fill="none" />
<polyline points="145.5,452.0,148.0,461.5,147.5,462.5,148.0,468.5,155.0,468.0,151.5,476.0,157.5,477.5,155.0,476.5,156.5,480.5" stroke="black" stroke-width="1" fill="none" />
<polyline points="152.5,474.0,147.0,466.0,150.0,469.5" stroke="black" stroke-width="1" fill="none" />
<polyline points="143.5,461.5,151.0,466.5,153.0,467.0" stroke="yellow" stroke-width="1" fill="none" />
<polyline points="155.5,474.5,148.5,470.5,140.5,467.0,145.0,468.5,140.5,464.0" stroke="black" stroke-width="1" fill="none" />
<polyline points="139.5,453.5,141.0,453.5,147.5,459.5,139.0,461.0,145.5,475.0,143.0,470.5,153.5,475.0,157.5,481.5" stroke="green" stroke-width="1" fill="none" />
<polyline points="165.0,469.5,167.0,472.0,161.5,477.5,157.0,470.5,158.0,473.5,157.0,468.0,149.5,463.5,151.5,460.5,141.5,454.0" stroke="green" stroke-width="1" fill="none" />
<polyline points="143.5,456.0,146.0,456.5,145.0,459.0,145.0,470.5,147.5,471.0,152.5,471.0,157.0,476.5,159.5,477.0,157.5,486.5,158.0,490.0,162.0,493.0,166.5,494.5,167.5,500.5,168.0,501.5" stroke="orange" stroke-width="1" fill="none" />
<polyline points="168.0,456.5,164.0,454.5,164.5,451.5,156.5,447.5,156.0,450.5,156.0,447.5,156.5,446.0,154.5,441.0,154.5,437.0,155.5,434.5,147.5,431.5,147.0,429.5,150.0,426.0,141.5,424.5,141.5,422.5,138.5,425.0" stroke="black" stroke-width="1" fill="none" />
<polyline points="" stroke="green" stroke-width="1" fill="none" />
<polyline points="147.5,430.0,147.0,431.5" stroke="black" stroke-width="1" fill="none" />
<polyline points="146.5,418.5,142.5,417.0,145.0,415.0" stroke="black" stroke-width="1" fill="none" />
<polyline points="137.0,411.0,142.0,408.0,145.5,419.0,145.0,422.5,150.0,421.5,149.5,428.5,152.0,431.0,153.5,431.5" stroke="green" stroke-width="1" fill="none" />
<polyline points="155.0,421.0,152.0,428.0,151.5,425.5,151.5,413.5,152.5,408.0,152.5,400.0,150.5,396.5,149.5,393.5,148.0,398.0,155.0,394.5" stroke="yellow" stroke-width="1" fill="none" />
<polyline points="150.5,395.0,153.5,398.5,151.5,400.0,149.0,400.0" stroke="green" stroke-width="1" fill="none" />
<polyline points="157.5,399.5,160.0,393.0" stroke="orange" stroke-width="1" fill="none" />
<polyline points="149.0,402.5,144.5,399.0,141.0,395.5,138.0,396.5,128.5,404.5,128.5,400.0,125.0,400.0,122.5,395.0,121.0,397.0" stroke="black" stroke-width="1" fill="none" />
<polyline points="118.0,396.5,124.5,393.0,120.5,399.0,129.5,401.5" stroke="orange" stroke-width="1" fill="none" />
<polyline points="126.5,404.0,128.5,406.0,139.0,406.0,134.0,391.5,140.5,394.0,142.5,386.5,139.0,392.5,141.0,385.0,140.0,373.5,142.5,373.5,147.5,372.5,151.5,368.5,149.5,364.5,147.0,358.5,140.5,353.0,140.5,352.5,147.5,350.0,141.0,346.0,140.0,343.0,140.0,343.0,135.0,336.0,140.0,324.0,136.5,324.0,131.5,312.0,135.5,314.5,134.5,311.5,130.0,310.0,130.5,301.5,131.0,296.0,132.5,293.0,132.5,291.5,141.5,286.5,133.0,280.0,128.0,273.5" stroke="green" stroke-width="1" fill="none" />
<polyline points="123.5,268.5,127.5,275.5,135.0,283.0,130.0,286.0,129.0,288.5,125.5,294.0,127.0,299.0,125.0,297.0,127.5,306.5,116.5,303.0,120.0,312.5,120.5,316.5,118.5,318.5,122.0,322.0,120.5,330.0,119.0,333.5,120.0,335.5,124.0,335.0" stroke="black" stroke-width="1" fill="none" />
<polyline points="119.0,345.0,119.0,339.5" stroke="black" stroke-width="1" fill="none" />
<polyline points="116.5,345.5,122.5,344.5,121.5,357.5,123.0,364.0,119.5,365.5,117.0,369.5,116.0,368.0,113.0,378.0,116.0,386.0,118.5,383.5,116.0,389.0,117.5,396.5,119.5,399.0" stroke="green" stroke-width="1" fill="none" />
<polyline points="120.0,402.0,123.5,396.0,118.5,389.0,118.0,388.5,127.5,382.5,123.0,382.0,123.0,378.0,119.5,373.5,118.5,368.0,118.5,373.5,117.0,373.0" stroke="black" stroke-width="1" fill="none" />
<polyline points="125.5,373.5,125.0,382.0,124.5,381.5,130.5,387.0" stroke="orange" stroke-width="1" fill="none" />
<polyline points="126.0,391.0,120.0,392.0,123.0,386.5,130.5,398.5,128.0,397.0" stroke="black" stroke-width="1" fill="none" />
<polyline points="127.0,393.5,122.0,392.0,131.0,394.0,139.0,390.0,136.5,393.5,140.5,394.0" stroke="orange" stroke-width="1" fill="none" />
<polyline points="132.5,391.5,127.5,387.5" stroke="green" stroke-width="1" fill="none" />
<polyline points="118.0,403.0,117.0,397.0" stroke="yellow" stroke-width="1" fill="none" />
<polyline points="119.0,413.5,120.5,410.0,125.0,406.5,125.0,405.0,128.5,409.5,128.0,415.5,130.0,415.5,133.0,421.0,128.5,424.0" stroke="green" stroke-width="1" fill="none" />
<polyline points="131.5,421.0,127.5,417.0" stroke="yellow" stroke-width="1" fill="none" />
<polyline points="135.5,409.5,135.0,410.5" stroke="black" stroke-width="1" fill="none" />
<polyline points="147.0,405.0,148.5,413.5" stroke="green" stroke-width="1" fill="none" />
<polyline points="146.0,405.5,142.0,407.0" stroke="orange" stroke-width="1" fill="none" />
<polyline points="" stroke="orange" stroke-width="1" fill="none" />
<polyline points="154.5,405.0,152.5,394.5,148.5,393.0,151.5,393.5,146.0,393.0" stroke="black" stroke-width="1" fill="none" />
<polyline points="170.5,403.5,171.0,400.5,171.5,407.5,177.0,408.5,178.0,412.0,172.0,418.0,177.5,420.5,177.0,423.5" stroke="black" stroke-width="1" fill="none" />
<polyline points="176.5,415.0,163.5,417.5,157.0,409.5,159.0,404.5,155.0,404.0,147.0,397.5,145.0,392.5,145.0,389.5,138.5,391.5,139.5,388.0,136.0,382.0,144.0,388.0,148.0,384.5,132.5,378.0,134.5,375.0,136.0,369.0,139.0,359.0,141.0,362.0,136.5,358.0,144.5,354.5,140.5,357.5,133.5,345.0,131.0,342.0,131.0,336.5,129.5,337.0,138.5,332.0,134.5,323.0,124.5,327.5" stroke="green" stroke-width="1" fill="none" />
<polyline points="118.5,326.5,125.5,334.0,126.0,336.5,120.5,342.5,123.0,337.5" stroke="green" stroke-width="1" fill="none" />
<polyline points="114.5,347.5,119.0,348.0,123.0,356.0,122.5,357.0,122.0,365.5,123.5,368.5,125.0,369.0,125.5,379.0,129.5,376.5,131.5,383.0,131.5,386.0,136.5,383.5,136.5,396.5,135.0,392.0" stroke="yellow" stroke-width="1" fill="none" />
<polyline points="139.5,362.0" stroke="orange" stroke-width="1" fill="none" />
<polyline points="" stroke="black" stroke-width="1" fill="none" />
<polyline points="138.5,362.0,134.5,354.5,133.0,353.0,132.5,358.0" stroke="black" stroke-width="1" fill="none" />
<polyline points="135.0,353.0,130.5,353.5" stroke="yellow" stroke-width="1" fill="none" />
<polyline points="131.0,352.0,132.0,353.5,128.5,360.0,140.0,366.0,135.0,370.5,132.5,368.5" stroke="yellow" stroke-width="1" fill="none" />
<polyline points="143.5,361.0,145.0,360.5,143.0,353.5,142.0,347.5,142.5,348.5,134.0,344.0,136.0,339.5,135.5,329.0,132.5,336.0,124.5,332.0" stroke="orange" stroke-width="1" fill="none" />
<polyline points="126.5,341.0,133.5,343.0,134.0,339.0,144.5,344.5,138.0,346.0,136.5,347.5" stroke="black" stroke-width="1" fill="none" />
<polyline points="138.0,341.0,142.5,337.5" stroke="black" stroke-width="1" fill="none" />
<polyline points="131.0,346.0,134.5,347.0,135.5,352.5,138.5,347.5" stroke="green" stroke-width="1" fill="none" />
<polyline points="129.0,342.0" stroke="orange" stroke-width="1" fill="none" />
<polyline points="115.0,349.5,120.0,347.0,117.5,355.5,114.0,354.0,117.5,364.0,115.5,367.5,115.0,370.5,114.0,374.5,119.0,376.5,117.5,382.5,117.5,389.0,115.5,392.5,119.0,397.5,118.5,404.0,120.5,400.0,117.5,410.0,115.5,413.0,110.5,413.5,115.5,413.0,117.5,410.5" stroke="orange" stroke-width="1" fill="none" />
<polyline points="121.5,411.5,120.5,410.0" stroke="yellow" stroke-width="1" fill="none" />
<polyline points="122.0,422.0,122.5,423.5,123.0,421.5" stroke="black" stroke-width="1" fill="none" />
<polyline points="136.0,426.5,128.0,424.5" stroke="yellow" stroke-width="1" fill="none" />
<polyline points="120.5,415.0,124.5,418.5" stroke="black" stroke-width="1" fill="none" />
<polyline points="115.0,435.0,119.0,439.0,118.5,447.0,123.0,444.0,121.5,440.5" stroke="yellow" stroke-width="1" fill="none" />
<polyline points="119.0,442.0,124.5,445.0" stroke="black" stroke-width="1" fill="none" />
<polyline points="118.5,455.0,119.0,457.5" stroke="yellow" stroke-width="1" fill="none" />
<polyline points="126.5,450.5" stroke="yellow" stroke-width="1" fill="none" />
<polyline points="104.0,445.5,109.0,443.0,105.0,438.0" stroke="black" stroke-width="1" fill="none" />
<polyline points="100.5,435.5,100.5,434.0" stroke="black" stroke-width="1" fill="none" />
<polyline points="87.0,457.5,95.0,456.0,89.5,451.5,87.0,456.0,91.5,454.0,100.0,448.5,88.5,454.5,92.5,453.5" stroke="yellow" stroke-width="1" fill="none" />
<polyline points="83.5,458.0,90.5,456.5,97.0,453.5,95.0,452.0" stroke="orange" stroke-width="1" fill="none" />
<polyline points="100.0,461.0,90.5,463.5" stroke="yellow" stroke-width="1" fill="none" />
<polyline points="99.5,493.5,100.5,495.5,99.0,502.5,102.5,507.5,107.0,508.5,102.0,507.5,101.0,507.0" stroke="orange" stroke-width="1" fill="none" />
<polyline points="107.5,508.0,116.0,507.0,113.5,498.5,111.5,492.0,110.0,487.5,112.5,485.0" stroke="orange" stroke-width="1" fill="none" />
<polyline points="116.0,490.5,120.0,488.0,112.5,497.5,114.5,499.0,111.0,503.5,117.0,511.0,113.0,514.0,111.0,512.5,110.5,515.0" stroke="black" stroke-width="1" fill="none" />
<polyline points="98.0,504.0" stroke="orange" stroke-width="1" fill="none" />
<polyline points="104.5,491.0,96.5,494.0,97.5,505.0,103.0,506.5,108.5,508.0,108.5,515.5,107.5,515.5" stroke="yellow" stroke-width="1" fill="none" />
<polyline points="122.0,510.0,117.0,501.5,119.0,505.5,120.5,499.5,121.0,492.5,117.5,494.0,121.5,485.5,122.5,479.0" stroke="black" stroke-width="1" fill="none" />
<polyline points="123.0,484.0,123.0,489.0,128.5,489.5,129.0,492.5,130.0,497.0,127.5,507.5" stroke="orange" stroke-width="1" fill="none" />
<polyline points="149.5,448.0,153.5,451.0,153.0,448.0,147.5,446.0,148.0,434.5,139.5,429.5,134.0,422.5,128.5,426.5" stroke="green" stroke-width="1" fill="none" />
<polyline points="135.5,424.5,137.5,421.5,128.5,426.5,136.5,434.0,140.5,434.5,141.0,441.5,145.0,447.0,144.0,448.0,138.5,453.5,138.0,459.0,132.5,459.5,132.0,467.5,137.0,459.0,137.0,460.0" stroke="green" stroke-width="1" fill="none" />
<polyline points="138.5,436.0,139.0,431.0,139.0,427.5" stroke="orange" stroke-width="1" fill="none" />
<polyline points="123.0,427.0,122.5,423.5,124.0,414.5" stroke="black" stroke-width="1" fill="none" />
<polyline points="111.5,418.0,108.5,421.0,115.0,430.0,112.0,428.0" stroke="yellow" stroke-width="1" fill="none" />
<polyline points="111.5,426.0,119.5,430.0,121.0,431.5" stroke="black" stroke-width="1" fill="none" />
<polyline points="104.5,414.5,109.5,425.0,110.0,427.0,109.5,432.5,108.0,436.0,109.5,442.0,107.5,447.5" stroke="black" stroke-width="1" fill="none" />
<polyline points="100.0,432.0,103.0,435.0,97.5,444.5,92.0,442.0,88.5,442.5,94.5,443.5,101.5,440.0,104.0,437.0,105.0,432.0,105.0,425.0,112.5,421.0,104.5,415.0" stroke="black" stroke-width="1" fill="none" />
<polyline points="93.5,416.5,84.0,417.5,88.0,426.0,93.0,424.0,92.0,431.0,95.5,426.0,93.0,425.5" stroke="black" stroke-width="1" fill="none" />
<polyline points="86.0,422.0,87.0,424.5,93.5,424.0,83.5,419.5,85.0,418.5,88.0,420.5,93.5,425.0" stroke="black" stroke-width="1" fill="none" />
<polyline points="92.0,403.5,94.5,407.5,96.5,404.0" stroke="green" stroke-width="1" fill="none" />
<polyline points="97.0,398.0" stroke="black" stroke-width="1" fill="none" />
<polyline points="97.0,393.5,86.5,396.5,100.0,393.0,98.5,398.5,91.0,409.0,90.5,407.0" stroke="black" stroke-width="1" fill="none" />
<polyline points="96.5,406.5,96.0,412.0,95.5,405.5,95.5,406.0,95.5,404.0,95.5,406.5,94.5,402.5,92.5,396.5,88.5,391.0,85.5,383.5,84.5,387.5,85.0,388.0" stroke="yellow" stroke-width="1" fill="none" />
<polyline points="82.0,385.5,84.0,392.5,74.5,401.0,69.5,403.0,72.0,402.0,76.0,404.5,69.5,420.0,69.5,417.0,70.0,415.5,69.5,425.0,65.5,425.5,67.5,427.5,72.5,426.0,68.5,433.0,72.0,432.0,66.5,437.5,66.5,447.0,73.5,446.5,70.0,448.0,73.0,452.0,70.5,459.0,71.0,463.0,77.5,464.0,72.0,468.0,62.5,478.5,68.0,477.5,61.5,480.5,63.5,488.5,64.5,493.5,62.0,498.0,67.5,501.5,61.0,506.0,64.0,505.5,63.5,511.5,58.0,516.5,65.0,505.0,63.5,506.0" stroke="black" stroke-width="1" fill="none" />
<polyline points="62.5,504.0,65.5,509.5,65.5,516.5,68.0,508.5" stroke="green" stroke-width="1" fill="none" />
<polyline points="71.0,486.0,70.0,482.0,66.5,474.0,68.5,475.5" stroke="yellow" stroke-width="1" fill="none" />
<polyline points="68.0,475.0,70.0,473.5,63.5,481.0,66.5,480.5,66.0,483.0,67.5,485.0,67.0,486.0,66.0,493.0" stroke="orange" stroke-width="1" fill="none" />
<polyline points="71.5,463.0,69.5,464.5,76.5,456.0,80.5,454.5,78.5,453.0" stroke="orange" stroke-width="1" fill="none" />
<polyline points="73.0,460.5,69.0,463.0,78.0,471.5,76.5,468.5" stroke="black" stroke-width="1" fill="none" />
<polyline points="73.0,453.5" stroke="green" stroke-width="1" fill="none" />
<polyline points="63.5,452.0,62.5,463.0,70.5,459.5,63.5,466.0,65.5,465.5,70.0,474.5,73.0,477.5" stroke="green" stroke-width="1" fill="none" />
<polyline points="33.5,490.5,31.5,491.5,27.5,495.5,30.0,500.5,30.0,502.5" stroke="orange" stroke-width="1" fill="none" />
<polyline points="17.0,505.5,16.5,501.0,18.5,502.5,16.5,506.0" stroke="green" stroke-width="1" fill="none" />
<polyline points="16.5,504.5,15.0,497.5" stroke="black" stroke-width="1" fill="none" />
<polyline points="8.5,425.0" stroke="black" stroke-width="1" fill="none" />
<polyline points="13.5,419.0,7.5,418.5,11.0,420.0,8.0,425.0,9.0,430.5,11.5,436.0,11.5,444.0,7.5,444.5,15.0,442.5,12.0,448.0,18.0,452.5,13.5,455.5,13.5,459.5,18.0,461.0,15.5,468.0,16.5,472.5,14.0,480.0,12.5,478.5,11.5,480.0,15.0,484.0" stroke="orange" stroke-width="1" fill="none" />
<polyline points="43.0,467.0,36.0,457.0,33.0,453.0,35.5,452.0,35.0,445.5,35.5,440.5,34.5,433.5,32.5,438.5" stroke="yellow" stroke-width="1" fill="none" />
<polyline points="25.5,417.5,25.5,418.0,27.0,416.0" stroke="black" stroke-width="1" fill="none" />
<polyline points="27.0,415.0,22.0,418.0,27.5,415.5,24.0,427.0,24.0,426.5,25.0,436.5,31.5,440.0,22.5,441.5,30.0,440.5,26.5,449.0,28.5,451.5,23.5,455.5,27.0,464.0,28.5,462.0,29.5,467.0,30.5,474.0,31.5,476.0,25.5,478.0,31.0,488.0,26.5,488.0,27.0,493.5,35.0,497.0,33.5,503.0" stroke="orange" stroke-width="1" fill="none" />
<polyline points="62.0,436.0,65.0,433.0,68.5,439.5,71.0,434.5" stroke="orange" stroke-width="1" fill="none" />
<polyline points="69.0,424.5,71.5,422.0,65.5,424.0,68.0,424.0,70.5,419.0,69.5,412.5,66.0,404.5,67.5,400.5,80.0,398.0,74.5,397.5,77.5,397.5,72.5,400.0,73.0,395.5" stroke="yellow" stroke-width="1" fill="none" />
<polyline points="70.5,408.5,74.5,403.5,78.5,399.5,77.5,402.0" stroke="yellow" stroke-width="1" fill="none" />
<polyline points="78.0,400.0" stroke="yellow" stroke-width="1" fill="none" />
<polyline points="67.5,410.5,69.0,413.5,72.0,401.5,69.0,408.5,71.5,417.5,66.5,418.0,63.5,423.5,66.0,420.5" stroke="yellow" stroke-width="1" fill="none" />
<polyline points="72.0,417.0,73.0,419.5,75.0,425.0" stroke="green" stroke-width="1" fill="none" />
<polyline points="96.5,441.5,98.0,441.5,101.5,436.5,99.5,439.0,98.0,445.0" stroke="orange" stroke-width="1" fill="none" />
<polyline points="112.0,403.0,109.0,402.0" stroke="black" stroke-width="1" fill="none" />
<polyline points="107.5,401.0,106.5,399.0,108.0,399.0,110.5,408.0,108.0,410.0,98.5,414.5,94.5,414.0,97.0,415.0" stroke="orange" stroke-width="1" fill="none" />
<polyline points="99.5,407.0,101.5,400.0,106.5,403.0,103.0,397.0,103.0,392.5" stroke="black" stroke-width="1" fill="none" />
<polyline points="100.0,371.0,102.5,370.0,107.5,379.0,106.0,368.0,101.5,361.0,107.5,363.5,108.0,358.5,109.0,355.0,109.0,358.0,109.0,351.0,107.5,341.5,106.0,334.5,106.5,337.0,105.5,331.0" stroke="black" stroke-width="1" fill="none" />
<polyline points="105.0,337.5,104.0,331.0" stroke="green" stroke-width="1" fill="none" />
<polyline points="" stroke="green" stroke-width="1" fill="none" />
<polyline points="103.0,319.0,104.0,326.0,108.5,310.5,119.5,312.5,122.0,308.0,122.5,307.5,126.0,313.0,113.5,314.5,108.0,325.0,104.5,313.5,107.5,307.5,113.0,310.0,115.5,320.0,102.5,317.5,104.5,320.0,111.0,318.0,116.0,311.0,116.5,303.5,114.5,302.0,118.5,302.5" stroke="yellow" stroke-width="1" fill="none" />
<polyline points="120.0,308.5,121.5,313.0,118.5,320.0,114.0,322.0,117.0,322.0,111.0,329.5,105.0,330.0,101.0,339.0,96.5,341.5,100.0,342.0,97.5,341.5,100.5,341.5,97.5,343.0" stroke="black" stroke-width="1" fill="none" />
<polyline points="" stroke="green" stroke-width="1" fill="none" />
<polyline points="97.0,363.0,95.0,363.5,96.0,369.0,92.0,374.5,95.0,375.0,89.5,381.0,90.0,389.0,84.0,392.5,90.5,391.5,87.5,389.0,88.0,399.0,92.5,404.0,90.5,411.5,90.5,409.5,92.5,412.0,104.0,409.5,106.0,414.0,106.5,407.0,114.0,402.0" stroke="black" stroke-width="1" fill="none" />
<polyline points="120.5,366.0,121.5,362.0" stroke="black" stroke-width="1" fill="none" />
<polyline points="119.5,357.5,120.5,371.0,123.0,372.0,129.0,383.0,130.0,385.0,129.5,384.5,128.5,388.5,134.0,394.0,133.5,394.5,132.5,394.0" stroke="black" stroke-width="1" fill="none" />
<polyline points="123.0,369.5,119.5,360.0" stroke="black" stroke-width="1" fill="none" />
<polyline points="125.0,373.5,119.0,372.0,130.5,375.5,131.5,376.0" stroke="black" stroke-width="1" fill="none" />
<polyline points="124.0,362.5" stroke="orange" stroke-width="1" fill="none" />
<polyline points="122.5,363.0,132.5,362.5,130.0,366.5,132.5,366.5" stroke="yellow" stroke-width="1" fill="none" />
<polyline points="169.0,364.0,175.0,355.5,177.0,352.0,179.5,347.0,182.0,343.0" stroke="yellow" stroke-width="1" fill="none" />
<polyline points="183.0,326.5,182.0,331.0,177.0,336.0,171.5,341.0,167.5,347.0,168.5,352.0,160.0,361.0,158.5,371.5,160.5,361.5,164.5,365.5,165.0,354.0,174.0,353.5,175.5,349.0,176.5,343.5,178.0,337.0,187.5,339.5,187.0,332.5,187.0,334.5,193.0,326.5,190.5,333.0" stroke="green" stroke-width="1" fill="none" />
<polyline points="189.5,342.0,189.0,350.0" stroke="yellow" stroke-width="1" fill="none" />
<polyline points="195.0,356.0,194.0,348.5,194.5,348.5,195.0,345.5" stroke="black" stroke-width="1" fill="none" />
<polyline points="167.5,360.5,162.0,366.5,164.0,359.5,165.5,362.5" stroke="black" stroke-width="1" fill="none" />
<polyline points="163.5,364.5,163.0,365.0,164.5,360.5,164.0,364.5,160.0,368.0,158.0,365.5,162.0,359.0,164.5,351.5,169.0,351.5,170.5,346.0,177.0,342.5,180.0,339.5,178.0,334.0,183.5,332.5,174.5,330.0,171.5,332.5,168.5,335.0,165.0,341.0,165.5,339.5,162.0,333.0,167.0,330.5,168.5,331.0" stroke="black" stroke-width="1" fill="none" />
<polyline points="165.5,335.5,163.5,331.5,162.5,341.5,158.5,334.5,161.5,329.5,165.0,324.5,164.5,319.5,164.5,319.0" stroke="yellow" stroke-width="1" fill="none" />
<polyline points="" stroke="orange" stroke-width="1" fill="none" />
<polyline points="174.0,315.0,166.5,318.5,168.5,329.0,165.0,321.0,163.5,326.0,157.5,328.0,152.5,339.0,153.5,341.5,151.5,333.0,141.0,349.0,143.0,336.5,143.0,338.0,135.0,339.0,133.5,329.0,137.5,324.5,134.5,321.5,134.5,315.0,129.0,309.0,132.5,311.5,128.5,304.0,131.0,305.5,134.5,300.0,131.5,297.0,139.0,292.0,137.5,294.0,141.0,282.5,136.5,278.5,134.5,276.5,134.5,280.0,140.0,284.0,140.5,277.5,148.0,275.0,141.0,269.5,142.0,272.5,152.5,264.5,158.5,254.0,158.0,253.5,163.5,250.0,163.0,246.0,159.5,244.5,152.0,248.5" stroke="green" stroke-width="1" fill="none" />
<polyline points="146.5,249.5,142.5,247.5,147.0,249.0" stroke="orange" stroke-width="1" fill="none" />
<polyline points="143.5,252.5,142.5,252.0,144.5,248.5,145.0,249.0,142.0,250.0,146.5,255.0,146.5,258.5" stroke="yellow" stroke-width="1" fill="none" />
<polyline points="143.5,269.0,140.0,269.0,137.0,278.5,137.0,274.0,136.5,274.0" stroke="black" stroke-width="1" fill="none" />
<polyline points="149.5,271.0,146.5,273.0,154.0,268.0,158.5,260.5,160.0,254.5,156.5,260.5,159.0,261.0,153.0,267.5,148.5,271.5,147.0,274.5,145.5,277.5,144.0,286.0,148.0,285.5,154.0,287.5,159.0,288.5,166.0,292.5,166.0,302.5,162.0,303.5,158.0,308.5,161.5,314.5,164.5,314.0,161.0,320.0,155.0,317.5,163.0,317.5,166.5,314.5,169.0,315.5,168.5,308.0,174.5,306.0,171.0,298.0,184.0,289.5,181.0,294.0" stroke="green" stroke-width="1" fill="none" />
<polyline points="182.5,298.5,179.0,299.5" stroke="green" stroke-width="1" fill="none" />
<polyline points="181.5,309.0,175.5,305.0" stroke="green" stroke-width="1" fill="none" />
<polyline points="177.5,300.5,170.5,299.5,174.0,300.0,180.5,305.5,181.0,314.0,176.0,314.5" stroke="black" stroke-width="1" fill="none" />
<polyline points="164.5,314.0,164.5,313.5,169.5,317.5,176.0,311.5,173.5,312.5,172.5,312.0" stroke="orange" stroke-width="1" fill="none" />
<polyline points="165.0,302.0,164.0,302.5,166.5,297.5,172.0,297.5,176.0,294.5,171.5,287.0,166.5,286.5,172.5,297.5,167.0,296.5,165.5,288.0,169.0,283.0,178.0,283.5,174.5,280.0,177.5,284.5,166.5,280.5,166.0,282.5,164.5,295.0,165.5,287.0,170.0,293.0,166.0,279.5,169.0,280.0,163.5,273.5,165.5,271.0,163.0,265.5,170.0,264.0,168.5,262.5,168.0,259.5,173.5,257.0,178.5,245.5,175.5,245.0,175.5,237.0,175.0,238.0,178.5,234.5,177.5,241.5" stroke="yellow" stroke-width="1" fill="none" />
<polyline points="177.5,233.0,184.5,235.5,177.0,243.0,175.0,246.0,176.5,247.5,171.0,252.0,175.0,253.5,183.5,259.5" stroke="black" stroke-width="1" fill="none" />
<polyline points="172.5,247.0,184.0,247.0,189.5,253.0,185.5,255.0" stroke="yellow" stroke-width="1" fill="none" />
<polyline points="224.0,271.5,222.5,271.5,227.0,270.0,230.5,272.0" stroke="black" stroke-width="1" fill="none" />
<polyline points="217.0,321.0,217.5,318.0,220.0,322.5,218.0,329.0,216.0,328.5,215.0,332.0,217.0,334.5,223.0,345.0,218.5,349.0,219.5,343.0,217.0,360.5,221.5,350.0" stroke="black" stroke-width="1" fill="none" />
<polyline points="249.5,381.0,252.0,377.0,253.5,383.5,253.0,379.5,253.5,388.0,263.0,382.5,265.0,385.0,263.5,384.0,262.0,386.5" stroke="black" stroke-width="1" fill="none" />
<polyline points="263.0,386.0,255.0,390.0,254.5,391.5,253.5,388.0,244.0,393.0,244.0,394.5,243.0,390.5,240.5,392.0" stroke="black" stroke-width="1" fill="none" />
<polyline points="273.0,352.5,275.0,354.5" stroke="black" stroke-width="1" fill="none" />
<polyline points="277.5,350.0,276.0,351.5,276.0,349.0" stroke="black" stroke-width="1" fill="none" />
<polyline points="220.5,370.5,222.0,364.5,222.0,361.0,221.0,358.0,218.0,347.0,221.5,352.5,220.5,342.5,222.5,339.0,220.5,334.0,220.0,328.5,224.5,324.5,222.5,317.5,218.0,312.5,222.5,315.5,220.5,307.5,221.5,301.5,218.0,312.5" stroke="yellow" stroke-width="1" fill="none" />
<polyline points="173.5,291.0" stroke="orange" stroke-width="1" fill="none" />
<polyline points="169.0,295.5,176.5,298.0,180.0,307.5,177.5,311.0,169.0,314.0" stroke="green" stroke-width="1" fill="none" />
<polyline points="162.0,308.5,161.5,308.5,158.5,311.5,154.0,311.5" stroke="orange" stroke-width="1" fill="none" />
<polyline points="161.0,313.5,163.5,310.5" stroke="black" stroke-width="1" fill="none" />
<polyline points="160.5,316.5,161.5,317.5" stroke="green" stroke-width="1" fill="none" />
<polyline points="153.0,295.0,152.0,292.0" stroke="yellow" stroke-width="1" fill="none" />
<polyline points="157.0,299.0,156.5,298.5,159.5,290.0" stroke="yellow" stroke-width="1" fill="none" />
<polyline points="162.5,293.0,162.5,295.5,156.5,287.5,153.0,280.5" stroke="black" stroke-width="1" fill="none" />
<polyline points="152.0,278.5,154.0,286.5,158.0,287.5" stroke="black" stroke-width="1" fill="none" />
<polyline points="174.0,291.5,172.5,295.0,178.0,292.0,177.0,291.5" stroke="green" stroke-width="1" fill="none" />
<polyline points="183.0,293.0,178.5,297.5,177.5,299.5,175.0,306.5,168.0,310.0,167.5,306.5,165.5,308.5" stroke="black" stroke-width="1" fill="none" />
<polyline points="153.5,291.5,153.5,292.0,152.0,289.0" stroke="black" stroke-width="1" fill="none" />
<polyline points="158.5,294.5,155.0,298.5,167.5,297.5,168.5,292.0,168.5,289.0" stroke="black" stroke-width="1" fill="none" />
<polyline points="172.0,289.0,175.0,295.5,170.5,299.0,169.5,306.0,163.5,308.5,164.5,312.5,168.0,313.0,160.5,316.0,171.0,318.5,167.5,322.0,164.0,330.5,162.5,334.0,153.5,337.5,157.0,345.5,153.5,343.0,152.0,349.0,146.5,357.0,149.5,356.0,148.0,356.5,146.5,354.0,147.0,352.5,151.5,355.5,160.5,353.5,159.5,347.0,161.5,347.5" stroke="yellow" stroke-width="1" fill="none" />
<polyline points="155.0,292.5,154.5,296.0" stroke="green" stroke-width="1" fill="none" />
<polyline points="155.0,288.5,160.5,287.5,160.0,280.5,165.5,276.5,166.0,275.0,161.0,267.0,159.5,267.0,162.0,258.5,160.0,254.5,159.5,259.5" stroke="orange" stroke-width="1" fill="none" />
<polyline points="165.5,261.0,170.0,259.0,168.0,266.5,165.0,274.5,169.5,280.0,166.5,276.5,167.5,275.0" stroke="green" stroke-width="1" fill="none" />
<polyline points="163.0,282.5" stroke="yellow" stroke-width="1" fill="none" />
<polyline points="152.0,280.5,151.5,277.0,152.0,274.5,154.5,279.0,157.5,282.5,159.5,285.5,164.0,282.5,173.5,287.0,167.0,290.0,176.0,286.0,174.5,287.5,175.0,285.0" stroke="black" stroke-width="1" fill="none" />
<polyline points="174.5,292.5,166.0,292.0,166.0,289.5" stroke="green" stroke-width="1" fill="none" />
<polyline points="163.0,289.0,163.0,281.5,158.5,286.0,163.5,288.0,162.0,288.5" stroke="orange" stroke-width="1" fill="none" />
<polyline points="159.5,297.5,158.0,296.0,149.5,296.5,150.5,288.0,151.0,280.0,146.0,275.5,150.0,272.0,150.5,270.0,157.5,265.0,162.5,264.0,159.5,257.5,163.5,258.5,167.0,250.0,166.0,246.5,166.0,241.0,166.5,239.0,162.0,247.5,157.0,258.0,152.0,259.0,148.0,261.0,144.5,261.0,142.5,256.0,137.0,266.5,132.5,265.5,135.5,265.0,128.0,258.0,130.0,269.5,126.5,272.0,134.5,264.0,132.0,256.0,134.5,258.0,127.0,251.5,126.0,246.5,136.5,242.5,134.0,245.0,139.5,237.5,136.0,233.5,135.5,233.0,133.0,223.0,130.0,225.0,133.5,217.0,132.5,215.5,128.0,210.5,128.5,205.0,121.5,203.0,126.0,202.0,119.0,197.0,123.5,190.5,123.5,183.0,120.0,180.5,117.0,179.5,121.0,174.0,118.5,166.5,119.5,163.0,121.0,163.0,117.0,152.5,116.5,147.0,119.5,144.0,127.5,143.0,124.0,138.5,122.0,135.5,123.5,131.5,127.5,130.5,127.5,126.0,129.5,122.0,131.5,118.5,130.5,114.0,133.5,110.0,134.0,107.0,137.5,106.5,136.0,104.0,141.5,97.0,132.0,104.5,135.5,103.0,133.5,100.5" stroke="green" stroke-width="1" fill="none" />
<polyline points="124.0,126.0,134.0,110.0,138.0,101.0,137.0,109.5,138.5,111.5,136.5,118.0,131.5,121.0,129.0,124.5,137.0,132.0,133.5,133.0,129.0,138.5,131.5,140.0,131.0,146.5,133.0,145.5,125.0,149.5,126.5,148.5,129.0,153.0,128.5,158.0" stroke="yellow" stroke-width="1" fill="none" />
<polyline points="126.5,152.5,135.0,152.0,134.0,157.0,130.0,157.0,132.5,160.5,128.5,167.5,126.5,170.5,131.5,165.5,128.5,164.0,130.5,166.5" stroke="green" stroke-width="1" fill="none" />
<polyline points="144.5,168.5,135.0,175.0,137.5,181.0,128.5,178.0,135.0,175.0" stroke="green" stroke-width="1" fill="none" />
<polyline points="134.5,173.5,134.0,174.0,130.0,177.5,142.5,173.0,135.5,168.5,136.0,168.0,134.0,169.5" stroke="black" stroke-width="1" fill="none" />
<polyline points="141.5,169.5,141.0,174.0,136.5,180.5,137.5,177.5" stroke="black" stroke-width="1" fill="none" />
<polyline points="139.5,177.0,139.0,185.5,133.0,180.0,140.0,175.5,140.0,174.0,141.5,173.5" stroke="black" stroke-width="1" fill="none" />
<polyline points="151.0,168.5,148.0,175.0,142.5,178.0,145.0,182.5,139.5,188.0,135.5,188.0,140.0,196.5,136.5,192.5,140.0,196.0,143.0,194.5,146.0,196.0,145.5,202.0,149.0,203.5" stroke="black" stroke-width="1" fill="none" />
<polyline points="150.5,199.5,146.0,191.5,148.5,195.0" stroke="black" stroke-width="1" fill="none" />
<polyline points="145.0,192.5" stroke="green" stroke-width="1" fill="none" />
<polyline points="144.0,197.0,149.5,200.5,136.5,199.0" stroke="green" stroke-width="1" fill="none" />
<polyline points="149.0,196.0,145.0,195.0,147.0,191.5,143.5,185.0,142.0,188.5,145.0,178.5,145.0,180.0,147.5,173.5" stroke="orange" stroke-width="1" fill="none" />
<polyline points="140.0,183.0,145.0,184.0,148.0,191.5,152.5,189.0,146.0,190.0,144.0,184.0" stroke="black" stroke-width="1" fill="none" />
<polyline points="151.0,188.5" stroke="green" stroke-width="1" fill="none" />
<polyline points="155.0,192.0,159.5,181.5,161.5,180.5,172.0,182.5,175.0,172.0,175.0,167.0,180.0,168.5,180.0,158.0,186.5,160.5,190.0,154.0,194.5,151.5,198.0,147.5,196.5,147.0" stroke="black" stroke-width="1" fill="none" />
<polyline points="207.0,150.0,203.0,148.0,215.5,154.5,219.0,162.5,214.0,162.5" stroke="orange" stroke-width="1" fill="none" />
<polyline points="228.0,157.0,223.0,156.5,229.5,155.5,223.5,156.0,223.0,155.0,219.5,156.0,216.5,154.5" stroke="green" stroke-width="1" fill="none" />
<polyline points="217.0,148.5,217.0,150.0,222.0,153.0,227.0,162.0,228.5,158.0" stroke="yellow" stroke-width="1" fill="none" />
<polyline points="226.5,171.0,221.5,173.5,218.5,181.0,214.0,185.5,210.5,189.0,206.5,190.5" stroke="black" stroke-width="1" fill="none" />
<polyline points="211.5,188.5,214.5,185.0,212.0,187.5,218.0,176.5,221.5,176.0,229.5,177.0,234.5,174.5,233.0,172.5,239.0,171.0,242.5,172.5,241.5,176.5,236.0,177.5,238.0,174.5,234.5,176.0" stroke="orange" stroke-width="1" fill="none" />
<polyline points="230.5,180.5,229.5,183.0,229.0,180.0,227.5,188.5,220.5,193.5,215.5,198.5,211.5,204.0,204.5,208.0,200.5,212.0,204.5,214.5,203.5,216.5,201.5,222.0,205.0,227.5,210.0,226.5,209.5,228.5" stroke="orange" stroke-width="1" fill="none" />
<polyline points="204.0,208.0,205.5,206.5,211.0,204.0,214.0,196.0,218.5,193.5,221.0,196.5,228.5,188.0,229.0,184.5,232.0,186.5" stroke="black" stroke-width="1" fill="none" />
<polyline points="224.5,194.0,214.0,199.0,214.0,202.5,210.0,205.5,208.0,207.0,207.0,213.0,208.0,203.0,217.0,200.0,218.5,201.5,223.5,196.5,227.0,197.5,229.0,189.5,228.5,193.0,227.5,194.0,225.0,194.5" stroke="yellow" stroke-width="1" fill="none" />
<polyline points="221.0,185.5,217.5,188.0,214.5,192.5,219.5,193.5" stroke="black" stroke-width="1" fill="none" />
<polyline points="222.5,184.5,217.5,178.5,221.0,180.5" stroke="yellow" stroke-width="1" fill="none" />
<polyline points="222.5,179.5,223.0,184.5,220.0,194.0,218.5,192.0,208.5,196.0,206.0,199.5" stroke="orange" stroke-width="1" fill="none" />
<polyline points="206.5,198.0" stroke="black" stroke-width="1" fill="none" />
<polyline points="204.5,201.5" stroke="green" stroke-width="1" fill="none" />
<polyline points="204.0,201.5,200.5,204.5,193.5,201.0,190.0,200.0,186.0,204.5,192.0,206.0,184.5,201.0,179.0,209.5,181.0,203.0,184.0,200.5,189.0,191.5" stroke="black" stroke-width="1" fill="none" />
<polyline points="182.5,204.5,188.0,206.0,192.5,210.0,201.0,206.5" stroke="yellow" stroke-width="1" fill="none" />
<polyline points="189.0,203.5,194.5,214.5,194.5,210.0,191.0,216.5,182.0,223.0,184.5,223.0,192.5,216.5,187.5,211.0,185.5,211.0" stroke="orange" stroke-width="1" fill="none" />
<polyline points="" stroke="black" stroke-width="1" fill="none" />
<polyline points="178.0,226.5,178.0,217.0,179.5,215.0,182.5,214.5" stroke="green" stroke-width="1" fill="none" />
<polyline points="170.5,213.5,170.5,214.0,167.5,218.0,175.5,214.0,172.5,215.0" stroke="green" stroke-width="1" fill="none" />
<polyline points="169.0,221.0,166.0,227.0,172.5,227.5,169.0,233.5,176.0,225.5" stroke="black" stroke-width="1" fill="none" />
<polyline points="178.5,225.5,178.0,237.0,168.5,231.5,163.5,240.5,171.0,235.5,164.0,237.0,163.5,238.0,165.5,239.0" stroke="green" stroke-width="1" fill="none" />
<polyline points="168.0,240.5,174.0,243.0,163.5,244.5,168.0,250.0,167.0,248.0,167.0,248.0" stroke="orange" stroke-width="1" fill="none" />
<polyline points="156.5,257.0,153.5,261.0,151.5,260.5,148.5,269.5,136.5,262.5,133.5,271.5,133.0,278.0,128.0,275.5,127.0,275.5,118.0,274.0,115.5,261.5,119.0,261.0,113.0,263.5,117.5,260.0" stroke="orange" stroke-width="1" fill="none" />
<polyline points="112.5,269.5,116.5,269.0,114.5,266.0" stroke="orange" stroke-width="1" fill="none" />
<polyline points="113.0,275.5,113.0,270.0,115.5,278.0,118.5,282.0,108.5,286.0,107.0,287.5,106.0,300.5,106.0,299.0,96.5,302.5,89.5,307.0,97.0,311.0,92.5,312.5,86.0,323.0,84.5,326.0,85.5,335.0,87.0,339.0,91.0,338.0,80.0,342.5,85.0,352.5,84.5,346.5,77.0,354.5,71.5,357.5,69.0,360.0,63.5,357.0,70.0,358.0,70.5,354.0,76.5,345.5,73.0,343.5,86.0,331.5,86.5,332.5,94.5,328.0" stroke="green" stroke-width="1" fill="none" />
<polyline points="90.0,325.0,98.0,327.0,96.5,326.0,93.5,328.0,86.0,330.5,89.0,337.5,82.0,340.0,77.5,344.5,77.5,346.5,73.0,348.5,69.0,355.5,65.0,360.0,60.0,361.0,60.5,366.0,67.5,364.0,70.0,357.5,75.0,348.5,79.0,345.0,83.5,341.0,87.5,335.5,87.5,346.5,91.5,344.0,87.0,345.5,85.5,350.5,87.0,357.0,81.5,360.0,82.0,367.0,79.5,365.5,82.0,371.0,87.5,371.5,83.5,370.0,88.0,359.0,94.5,353.0,99.5,344.5" stroke="yellow" stroke-width="1" fill="none" />
<polyline points="103.0,348.5,103.5,359.0,102.0,361.0,100.5,368.0,104.0,370.0,100.0,376.5,102.5,376.0,103.0,380.5,102.0,374.5" stroke="orange" stroke-width="1" fill="none" />
<polyline points="109.0,367.5,111.5,362.0,109.5,360.5,110.0,361.0,107.0,358.0" stroke="green" stroke-width="1" fill="none" />
<polyline points="108.0,360.0,110.5,363.5,112.5,365.0,107.5,360.0,115.5,368.5,117.0,366.5" stroke="green" stroke-width="1" fill="none" />
<polyline points="114.5,362.0,112.0,362.0,117.5,360.5,110.0,355.0" stroke="orange" stroke-width="1" fill="none" />
<polyline points="126.0,359.0,126.5,360.5,133.0,359.5,134.5,366.5,130.5,371.0" stroke="green" stroke-width="1" fill="none" />
<polyline points="82.5,354.5,82.0,363.0,76.5,367.5" stroke="black" stroke-width="1" fill="none" />
<polyline points="75.5,365.0,81.0,357.5,83.0,349.0,84.0,347.0,87.5,352.5,80.5,358.0,73.5,357.5,76.0,367.0,74.5,364.5,75.0,377.0,79.5,374.0" stroke="yellow" stroke-width="1" fill="none" />
<polyline points="79.5,383.5,79.5,383.0,75.5,392.5,70.0,393.0,60.0,390.5,63.5,395.5,56.0,402.0,60.5,402.5,63.5,392.5,72.5,391.0,78.5,383.5,76.5,385.5,76.0,384.0,71.5,382.5,67.0,393.5,67.0,395.5,64.0,397.0,56.5,407.0,69.0,401.5,69.5,396.5,74.0,390.0,81.0,383.5,80.0,382.5,85.0,373.5,87.5,375.5,81.0,368.0,83.5,359.0,88.5,352.5,87.5,360.0,90.5,351.5,92.5,354.5,95.0,350.0,93.0,343.0,96.5,348.0,99.0,342.5,88.5,352.5,97.5,345.0,96.0,339.5,99.5,342.5,96.5,332.0,97.5,330.5,94.5,328.5,98.0,319.0,98.0,320.5,96.0,311.0,99.5,306.0,103.0,302.5,106.5,300.0,103.0,305.5,98.0,310.0,96.0,320.0,96.0,314.5,99.0,312.5" stroke="black" stroke-width="1" fill="none" />
<polyline points="85.5,312.5,89.0,310.5,88.0,305.5,95.0,306.5,96.0,301.5,108.0,295.0,108.0,295.5" stroke="black" stroke-width="1" fill="none" />
<polyline points="94.5,305.0,92.0,299.5,93.0,305.0,95.0,300.5" stroke="yellow" stroke-width="1" fill="none" />
<polyline points="108.5,295.5,105.5,299.5,100.0,295.5,88.0,293.5,88.0,296.5,84.0,297.5,81.0,296.5,89.0,296.0" stroke="green" stroke-width="1" fill="none" />
<polyline points="83.5,294.0,78.5,297.0,84.0,296.5,86.5,292.5,91.0,292.5,99.0,298.0,93.5,288.5,103.5,290.0,102.0,291.0,103.5,290.0,106.5,289.0,106.5,288.5" stroke="orange" stroke-width="1" fill="none" />
<polyline points="111.0,288.0,115.5,285.5,108.5,286.0,108.0,284.0,108.5,276.0,113.0,275.0,114.0,273.0" stroke="black" stroke-width="1" fill="none" />
<polyline points="108.5,259.5,115.0,263.5,112.0,262.0,109.0,268.0,113.5,272.0,111.0,278.0,101.0,274.0,94.5,280.5,100.0,288.0,101.0,278.5,109.0,279.5,102.0,273.5,116.0,290.0,112.5,280.5,122.0,290.0" stroke="green" stroke-width="1" fill="none" />
<polyline points="116.0,280.5,117.0,285.0,110.5,281.5,102.5,283.5,97.5,285.5,98.5,286.5,95.5,289.5,91.5,290.0" stroke="black" stroke-width="1" fill="none" />
<polyline points="87.5,275.5,94.0,274.5,96.5,271.5,98.5,263.5,111.0,262.5,100.5,266.0,96.5,272.0,96.0,279.5,91.0,285.0,93.0,280.5,101.5,279.5,105.0,278.0,99.0,280.0,104.5,279.5,109.5,279.0,109.0,282.5,116.5,274.0,120.5,276.5,129.0,272.5" stroke="green" stroke-width="1" fill="none" />
<polyline points="130.0,264.0,129.0,266.5,131.0,270.0,124.0,270.0,115.0,273.5,99.0,284.0,97.0,288.0,95.0,301.5,96.0,299.5,88.5,307.0,81.0,311.5,89.5,306.5,83.0,314.0,71.0,323.0,80.0,315.0,79.5,310.0,79.5,310.0,77.0,309.0" stroke="black" stroke-width="1" fill="none" />
<polyline points="101.0,315.0,113.5,312.0,113.5,305.0,113.0,301.0" stroke="black" stroke-width="1" fill="none" />
<polyline points="127.5,301.0,129.0,311.0,121.0,306.5,119.0,307.5,116.5,309.5,116.0,324.0,109.0,318.5,98.0,324.0,102.5,323.0" stroke="orange" stroke-width="1" fill="none" />
<polyline points="76.5,322.5,70.5,321.5,68.0,322.5,69.5,319.5,80.0,325.0,75.0,310.5,73.0,309.5,75.5,306.5,78.5,306.5" stroke="orange" stroke-width="1" fill="none" />
<polyline points="" stroke="orange" stroke-width="1" fill="none" />
<polyline points="74.5,310.5,79.5,311.0,78.0,309.5,88.5,305.0,92.0,303.5,95.5,300.0" stroke="yellow" stroke-width="1" fill="none" />
<polyline points="94.0,315.0,100.0,324.5,98.5,320.5,102.0,317.0,101.5,312.0,104.5,307.0,104.0,307.0" stroke="black" stroke-width="1" fill="none" />
<polyline points="103.5,293.5,106.0,294.5,96.5,296.0,104.0,291.5,102.0,293.5,108.0,292.5,115.5,295.5" stroke="black" stroke-width="1" fill="none" />
<polyline points="109.5,288.0,104.5,291.5,103.0,289.5,107.5,289.0,106.5,286.0" stroke="black" stroke-width="1" fill="none" />
<polyline points="87.5,281.0,87.0,274.0,92.0,278.5,89.0,278.5" stroke="black" stroke-width="1" fill="none" />
<polyline points="119.0,287.5,118.5,293.0,118.0,293.5,113.5,297.5,110.5,304.5,103.0,307.5,101.5,312.5,102.5,319.0,96.0,321.5,102.0,325.0,101.0,331.0,105.5,332.5,96.0,336.5,93.5,340.0,100.5,338.0,105.5,338.0,106.0,332.5,110.0,330.0,116.0,316.0,123.5,305.5,119.5,299.0,123.0,300.5,125.0,305.5,131.5,315.5" stroke="yellow" stroke-width="1" fill="none" />
<polyline points="123.5,317.5,124.0,320.5,132.0,325.0,128.0,327.5,128.5,331.5,129.0,338.0" stroke="yellow" stroke-width="1" fill="none" />
<polyline points="123.0,312.0,123.0,314.5,119.5,319.5,118.0,327.5,110.5,327.0,109.0,333.0,111.0,342.5,102.5,338.0,99.5,343.0,99.0,347.0,95.5,350.0,96.5,350.0,89.5,353.0,93.0,361.5,94.5,363.0,92.5,367.0,90.5,371.0,92.5,377.5,94.5,382.5,94.5,383.5" stroke="black" stroke-width="1" fill="none" />
<polyline points="79.0,385.0,77.5,389.0,76.5,398.5,75.5,400.5,71.0,406.0,68.5,406.5,71.0,417.0,74.0,412.0" stroke="orange" stroke-width="1" fill="none" />
<polyline points="18.0,373.5,20.5,366.5" stroke="black" stroke-width="1" fill="none" />
<polyline points="123.0,288.0,123.5,291.5,120.5,298.5,119.5,301.0,111.5,306.5,106.0,305.5,100.0,314.5,106.0,310.0,102.5,301.5,111.5,297.5,116.5,298.0,121.0,294.0,128.0,292.5,128.5,289.0,136.5,290.0" stroke="orange" stroke-width="1" fill="none" />
<polyline points="136.5,261.5" stroke="black" stroke-width="1" fill="none" />
<polyline points="" stroke="orange" stroke-width="1" fill="none" />
<polyline points="137.5,240.0,136.0,245.0,136.5,239.5,147.0,238.5" stroke="black" stroke-width="1" fill="none" />
<polyline points="147.0,246.5,141.0,243.0,136.5,247.5,139.5,245.0,139.0,245.5" stroke="black" stroke-width="1" fill="none" />
<polyline points="139.5,242.0,136.0,235.0,132.0,224.5,135.5,226.0" stroke="black" stroke-width="1" fill="none" />
<polyline points="144.0,215.5" stroke="yellow" stroke-width="1" fill="none" />
<polyline points="150.5,211.5,153.5,211.5,150.0,211.5,150.5,212.5" stroke="orange" stroke-width="1" fill="none" />
<polyline points="140.5,194.0,137.5,193.5,136.0,190.5,134.5,184.5,138.5,186.0,142.5,180.5,148.5,177.5,141.5,175.0,144.0,186.0" stroke="orange" stroke-width="1" fill="none" />
<polyline points="139.0,183.0,139.5,185.0" stroke="black" stroke-width="1" fill="none" />
<polyline points="152.0,177.5,146.0,179.0,152.5,181.0,146.5,189.0,139.5,187.5,135.0,190.0" stroke="green" stroke-width="1" fill="none" />
<polyline points="135.5,200.0" stroke="orange" stroke-width="1" fill="none" />
<polyline points="143.0,194.0,143.5,196.5,150.5,200.0,147.5,209.0,146.5,212.5,142.5,216.5,145.5,203.5" stroke="yellow" stroke-width="1" fill="none" />
<polyline points="130.5,206.0,126.5,197.5" stroke="green" stroke-width="1" fill="none" />
<polyline points="113.0,223.5,115.0,224.0,108.5,228.5,109.5,230.0,119.0,233.5,112.5,228.0" stroke="black" stroke-width="1" fill="none" />
<polyline points="114.0,235.0,120.5,225.0,116.0,225.0,111.5,225.0" stroke="green" stroke-width="1" fill="none" />
<polyline points="127.0,251.0,116.0,252.5,113.0,258.0,108.0,264.0,115.0,258.5,121.5,254.5,117.5,253.0,126.0,251.0,130.5,242.0,137.5,239.5,144.0,236.5,148.5,234.0,155.5,229.5,155.0,231.0,158.5,230.0" stroke="orange" stroke-width="1" fill="none" />
<polyline points="155.5,231.5,148.5,234.0,139.0,234.0,143.5,238.0,138.0,245.0,138.0,251.0,129.0,255.0,140.5,267.0,139.0,266.0,133.5,263.5,125.0,268.0,133.0,272.0,134.0,271.0,134.5,272.5,141.5,273.5" stroke="black" stroke-width="1" fill="none" />
<polyline points="151.5,253.5,157.5,255.0,157.5,250.5,161.5,249.5,156.5,247.5,156.5,249.0" stroke="black" stroke-width="1" fill="none" />
<polyline points="166.5,230.0,165.5,235.5,158.5,240.0,161.5,238.0,164.5,232.5,165.0,224.5,169.0,226.0,169.5,223.5,171.5,222.0" stroke="black" stroke-width="1" fill="none" />
<polyline points="164.5,226.0,167.5,225.0" stroke="green" stroke-width="1" fill="none" />
<polyline points="174.0,233.0,170.5,232.5,166.0,235.0,162.5,243.5,163.5,244.5,154.5,249.0,148.0,252.0,149.0,255.5,151.0,257.0,153.0,258.0,144.0,261.0,135.5,266.5,136.0,269.0,135.5,278.5,128.5,277.5,132.5,285.5,128.5,293.5,131.0,301.0,126.0,306.5,128.0,316.5,124.5,311.5,123.0,319.5,119.0,321.5,119.5,329.5,123.0,328.0,122.0,331.0,125.5,337.0,117.0,339.5,126.0,339.0,129.5,341.0,132.5,351.5,133.5,359.5,134.0,355.5,135.0,359.5,137.5,364.5,140.5,365.5,145.5,367.0,143.0,374.0,146.5,375.0,146.0,389.0,139.0,389.5,150.0,391.5,148.0,392.5,147.5,396.5,150.0,402.5,151.5,406.0,150.5,406.5,153.0,411.0,156.5,411.5,157.5,413.5,162.5,416.0,158.5,424.5,157.5,427.0" stroke="green" stroke-width="1" fill="none" />
<polyline points="167.5,421.5,164.5,413.0,164.5,412.5,162.0,417.0,162.5,413.5" stroke="green" stroke-width="1" fill="none" />
<polyline points="" stroke="green" stroke-width="1" fill="none" />
<polyline points="201.0,429.5,197.0,427.5" stroke="black" stroke-width="1" fill="none" />
<polyline points="197.5,419.5,194.5,427.0,199.0,430.0,195.0,430.0,191.5,437.0" stroke="black" stroke-width="1" fill="none" />
<polyline points="197.5,403.0,196.5,406.0,199.0,400.5,193.0,403.0,196.5,393.5,197.5,396.0,196.0,397.5" stroke="black" stroke-width="1" fill="none" />
<polyline points="188.5,394.0,187.0,389.0,190.5,394.5,191.0,403.5,188.0,401.5,185.0,408.0,183.5,417.0,188.5,415.0,187.0,415.0,186.5,425.0,182.0,430.5,190.5,435.0,181.5,435.0,184.0,438.0,177.5,441.5,186.0,447.5,186.5,439.5,196.5,447.5,197.0,445.5" stroke="black" stroke-width="1" fill="none" />
<polyline points="376.5,355.5,378.0,352.0,378.0,346.5,378.0,347.0,377.0,339.5,382.0,336.0,378.5,336.5,378.5,326.5,379.0,320.5,375.5,318.5,374.0,310.0,370.0,312.0,375.5,308.5,379.5,302.0,372.0,298.5" stroke="orange" stroke-width="1" fill="none" />
<polyline points="382.5,289.0,377.5,283.0,377.0,287.0,378.5,282.0,381.5,275.5,379.0,268.0,386.5,269.0,384.5,266.5,384.5,267.5" stroke="orange" stroke-width="1" fill="none" />
<polyline points="366.0,267.0,364.0,271.0,368.0,276.0,368.5,280.5,365.5,281.0,370.0,285.5,364.0,287.5,362.5,297.5,365.0,300.5,363.5,305.0,362.0,307.5" stroke="yellow" stroke-width="1" fill="none" />
<polyline points="346.5,272.5,349.5,276.5,344.5,279.5,334.5,282.0,330.0,282.0,328.5,274.0,322.0,271.0,323.5,273.0,323.5,268.0,325.5,268.0,325.0,274.0,326.5,273.0" stroke="green" stroke-width="1" fill="none" />
<polyline points="323.5,267.0,328.5,269.5,327.0,272.0,335.5,271.0,331.5,271.0,334.0,270.0,334.5,270.5" stroke="black" stroke-width="1" fill="none" />
<polyline points="317.0,275.0,317.5,275.5,323.0,276.0,321.0,266.5,328.0,260.0,334.5,259.0,334.0,253.0" stroke="orange" stroke-width="1" fill="none" />
<polyline points="366.0,267.5,366.0,263.0,363.0,270.5,363.0,275.5,360.0,278.5,355.5,281.0" stroke="yellow" stroke-width="1" fill="none" />
<polyline points="291.5,225.0,292.0,231.0,283.0,234.0,289.0,232.5,295.5,224.0" stroke="green" stroke-width="1" fill="none" />
<polyline points="270.0,216.0,273.5,204.5,278.5,202.5,279.5,203.5,285.0,196.0,290.5,189.5,291.0,189.0,297.0,189.0,301.5,187.0,303.5,183.0,306.0,181.0" stroke="yellow" stroke-width="1" fill="none" />
<polyline points="316.5,175.5,298.5,170.0,297.5,179.0,294.5,181.0,292.0,186.5,285.5,190.5,282.0,190.0,282.0,199.0,274.0,198.5,271.0,201.0,267.5,208.0,263.5,211.5,264.5,214.5,266.5,222.5,252.5,225.0,252.0,228.5,243.5,234.0,243.0,241.0,239.5,248.0,233.0,242.0,233.5,254.5,227.0,258.5,222.0,262.5,219.5,268.0,211.0,280.5,210.5,284.0,207.5,290.5,202.5,301.0,196.5,308.5,202.0,322.5,196.5,316.0,197.5,312.5,199.0,308.0,202.5,304.0,200.0,301.0,205.0,293.5,207.0,293.5,210.0,290.0,211.5,290.5,212.0,280.5,215.0,277.0,214.5,274.0,222.0,272.0,225.5,264.5,227.0,262.5,227.0,253.5,228.0,256.5,232.0,247.5,234.0,242.0,240.5,238.0,243.0,234.0,247.0,228.5,252.5,227.5,257.5,223.0,257.5,223.0,260.0,216.5,261.0,209.0,262.0,211.0,266.5,199.5" stroke="black" stroke-width="1" fill="none" />
<polyline points="265.0,202.5,263.0,208.5,265.5,205.5,259.5,208.5" stroke="green" stroke-width="1" fill="none" />
<polyline points="251.0,211.0" stroke="black" stroke-width="1" fill="none" />
<polyline points="207.5,198.5,209.0,197.0,217.0,188.5,218.0,186.5,225.5,187.0,223.0,182.0,228.0,180.5,230.0,183.0,227.5,184.5" stroke="black" stroke-width="1" fill="none" />
<polyline points="229.5,173.5,224.0,183.5,211.5,184.5,211.5,185.0,217.5,195.0,203.0,198.0,214.5,196.0,209.0,197.5,215.5,199.0,220.0,197.5,228.5,189.5,233.5,189.5,237.0,191.0,228.5,184.5,234.0,191.5" stroke="yellow" stroke-width="1" fill="none" />
<polyline points="253.0,175.0,249.0,175.0,238.5,183.5,233.0,183.0,244.0,179.5,243.0,181.0,246.5,179.0,253.5,179.5" stroke="yellow" stroke-width="1" fill="none" />
<polyline points="248.5,176.0,244.5,180.5,245.0,181.0,249.0,191.0,240.5,199.0,238.0,201.5,236.5,200.5,235.0,213.0,232.0,214.5,230.5,207.0,236.0,208.5,235.5,208.0" stroke="black" stroke-width="1" fill="none" />
<polyline points="264.0,184.0,267.0,193.0,258.0,194.5,250.0,199.0,247.0,203.0,253.0,204.0,255.5,201.0" stroke="black" stroke-width="1" fill="none" />
<polyline points="265.5,183.5,271.0,182.5,264.5,190.5,260.0,192.5,261.5,188.5,265.5,187.0" stroke="green" stroke-width="1" fill="none" />
<polyline points="264.0,184.5,253.0,186.5,247.0,190.0,252.0,197.0,250.0,201.5,243.5,195.5,244.5,192.0,246.5,193.0,249.5,190.5,253.0,186.5,252.0,182.5,257.0,183.0,262.0,180.0,261.0,181.0,263.5,180.5" stroke="black" stroke-width="1" fill="none" />
<polyline points="264.0,178.5,267.5,176.0,271.5,176.0,279.5,177.5,279.0,179.0,277.5,175.5,284.5,177.0,295.0,179.5,294.0,183.0,291.5,185.5,287.5,193.5,285.0,190.0,276.0,196.5,274.5,198.5,275.5,197.5,270.5,196.0,270.0,194.5,276.5,194.5,279.5,195.5,283.5,187.5,288.5,184.0,291.0,185.0,292.5,177.0,303.0,177.5,306.0,173.5,309.0,172.5,316.5,169.0,315.0,169.0,324.5,167.0,327.5,164.0,331.5,161.5,336.0,156.5,338.0,152.5,337.0,152.0" stroke="green" stroke-width="1" fill="none" />
<polyline points="305.5,177.0,306.0,177.5,300.0,178.0,296.5,184.5,288.5,194.0,285.0,191.5,279.5,196.0,276.0,198.0,267.5,205.0,267.5,208.0,271.0,206.5,270.0,211.0,265.0,220.5,265.5,224.0,261.5,225.0,262.5,229.0,263.5,232.0,265.5,237.0,266.5,244.0,265.5,242.0" stroke="black" stroke-width="1" fill="none" />
<polyline points="265.0,192.5,267.0,184.5" stroke="yellow" stroke-width="1" fill="none" />
<polyline points="257.5,163.5,267.5,160.0,267.0,162.0,259.0,160.5,251.5,161.5,252.5,160.0,245.0,162.5,250.0,162.0" stroke="yellow" stroke-width="1" fill="none" />
<polyline points="252.0,159.5,256.0,165.5" stroke="black" stroke-width="1" fill="none" />
<polyline points="252.0,167.0,254.5,176.5,258.5,178.5,256.5,180.0,258.5,181.0" stroke="yellow" stroke-width="1" fill="none" />
<polyline points="245.5,140.0,255.0,139.0,257.0,131.0,259.5,130.0,262.0,129.0,253.5,133.0,250.0,133.0,248.0,137.0,244.0,145.0,236.0,146.5,233.0,143.0,233.0,144.0" stroke="black" stroke-width="1" fill="none" />
<polyline points="" stroke="yellow" stroke-width="1" fill="none" />
<polyline points="221.0,146.0,216.0,148.5" stroke="orange" stroke-width="1" fill="none" />
<polyline points="214.0,141.0,214.0,143.5" stroke="black" stroke-width="1" fill="none" />
<polyline points="203.0,151.5,211.5,145.5,214.0,149.5,214.5,161.5,216.5,155.5,215.5,153.5" stroke="orange" stroke-width="1" fill="none" />
<polyline points="209.0,163.0,199.5,157.5,200.5,158.5,203.0,155.0,203.0,153.5" stroke="yellow" stroke-width="1" fill="none" />
<polyline points="203.5,160.0,206.0,166.5,200.5,169.0,191.5,179.5,186.5,176.5,185.5,181.0,182.0,182.0,172.0,188.5,175.0,193.5,165.0,194.0,164.5,201.0,162.0,200.5,168.5,194.5,172.5,193.5,180.0,187.5,179.0,185.0,184.5,182.0,186.5,175.5,193.5,174.5,199.5,173.0,202.0,165.0" stroke="yellow" stroke-width="1" fill="none" />
<polyline points="218.0,179.0,214.5,174.0,210.5,176.5,208.5,186.5,203.0,187.0,205.5,194.0,202.5,200.5,207.0,197.0,203.5,198.5,204.0,193.0" stroke="orange" stroke-width="1" fill="none" />
<polyline points="" stroke="black" stroke-width="1" fill="none" />
<polyline points="204.5,135.5,196.5,135.0,203.0,133.5,203.5,142.0,202.5,138.0,206.5,138.5,214.0,127.0,215.0,132.5,216.0,129.0,225.0,126.0,226.5,126.5" stroke="black" stroke-width="1" fill="none" />
<polyline points="225.5,130.5,219.5,130.5,214.0,140.5,212.5,138.0,208.0,143.0,210.5,140.5,214.5,134.5,222.0,129.5,226.0,126.5,231.0,124.0,235.5,119.0,244.0,119.5,238.5,124.0" stroke="black" stroke-width="1" fill="none" />
<polyline points="231.0,118.5,232.5,118.0,228.5,128.0,222.0,135.0,207.0,139.0,203.5,140.0,202.0,141.0,197.5,143.0,199.0,150.0,189.0,157.0,190.0,159.0,180.5,164.0,177.0,165.5,171.5,172.5,170.0,170.5,165.5,179.5,162.5,186.0,156.0,188.5,153.0,192.5,150.5,197.5,149.5,198.0,152.0,203.0,149.0,208.0,148.5,215.0,147.0,215.5,147.0,220.5,139.5,222.5,141.0,225.5,144.0,233.0,138.5,238.5,138.5,241.0,143.5,240.0,129.5,240.0,134.5,252.5,133.0,252.0,138.0,256.5,136.0,256.0,140.0,258.0,136.0,254.0" stroke="green" stroke-width="1" fill="none" />
<polyline points="141.5,172.5,140.0,171.0,139.5,163.5" stroke="orange" stroke-width="1" fill="none" />
<polyline points="129.5,141.0,129.0,134.0" stroke="yellow" stroke-width="1" fill="none" />
<polyline points="154.5,129.0,153.0,131.0,153.0,139.5,154.0,136.5,158.5,125.0,160.0,127.0,159.5,124.0" stroke="black" stroke-width="1" fill="none" />
<polyline points="182.5,123.5,184.0,127.0,179.0,130.5,185.0,125.0,189.5,119.0,188.5,118.0,192.5,115.0" stroke="green" stroke-width="1" fill="none" />
<polyline points="191.0,124.5,183.0,127.5,175.5,126.0,180.5,124.0,179.0,122.0,186.0,122.5,189.5,122.5,190.5,122.0,188.5,119.0,192.5,118.0" stroke="black" stroke-width="1" fill="none" />
<polyline points="183.0,133.5,187.5,133.0" stroke="yellow" stroke-width="1" fill="none" />
<polyline points="196.5,123.5,197.0,124.5,199.0,117.5" stroke="green" stroke-width="1" fill="none" />
<polyline points="198.5,110.5" stroke="yellow" stroke-width="1" fill="none" />
<polyline points="231.5,133.0,225.5,129.0,220.5,129.0,215.5,134.5,215.5,139.0,210.0,146.5,203.0,141.5,196.5,152.0,196.0,155.5,193.5,159.0,200.0,148.0,209.0,146.5,213.0,141.0,219.0,135.0,227.0,137.0" stroke="black" stroke-width="1" fill="none" />
<polyline points="251.0,140.5,248.0,139.5,247.5,146.0,245.0,143.5,235.5,153.5,229.5,151.0,231.5,152.5,224.5,159.5,220.0,160.0,218.5,164.0,224.5,156.5,230.5,152.5,235.5,150.5,244.5,145.0,245.0,145.0,251.5,141.5,252.0,131.5,266.5,126.5" stroke="black" stroke-width="1" fill="none" />
<polyline points="277.5,147.0,288.5,144.5,287.0,146.0,286.5,144.5" stroke="black" stroke-width="1" fill="none" />
<polyline points="296.5,134.5,293.0,142.5,292.5,144.5,294.5,132.5" stroke="black" stroke-width="1" fill="none" />
<polyline points="310.5,180.5,301.0,182.5,296.0,184.0,291.0,190.0,290.0,195.0,281.5,200.0,279.5,200.5,274.0,206.5,273.5,212.5,275.0,216.5,272.5,214.0,268.5,212.0" stroke="yellow" stroke-width="1" fill="none" />
<polyline points="233.5,100.5,232.0,106.0,226.5,106.0,223.0,105.5,226.5,103.5,230.0,100.0,237.5,97.5,234.5,96.5" stroke="yellow" stroke-width="1" fill="none" />
<polyline points="" stroke="black" stroke-width="1" fill="none" />
<polyline points="246.0,91.5,246.5,93.5,245.5,91.0,247.0,89.0" stroke="green" stroke-width="1" fill="none" />
<polyline points="262.0,89.0,254.5,91.5,252.0,92.5,248.0,90.5,248.0,95.5,239.5,101.0,236.0,101.0,226.0,107.0,226.5,105.5,223.5,112.0,219.5,114.5,217.5,116.5,213.0,121.0,207.5,121.5,201.0,125.5,201.0,131.0,195.5,133.0,191.5,132.0,188.5,136.0,178.0,147.5,175.5,149.0,176.0,149.5,172.0,153.0,167.5,161.5,164.0,162.5,158.0,159.0,151.5,166.0,155.0,169.5,159.0,172.0,156.5,164.5,165.0,161.5,166.0,153.0,173.5,155.5,178.0,149.0,185.5,140.0,189.0,140.5,191.0,136.0,198.0,141.0,205.0,125.0,205.5,128.5,207.5,118.5,216.5,109.0,218.0,117.5,225.5,112.0,233.0,108.5,237.5,99.5,240.5,99.0,249.5,92.0,256.0,89.0,262.0,84.5" stroke="black" stroke-width="1" fill="none" />
<polyline points="238.0,79.0,231.0,82.5,227.0,84.5,233.0,79.5,235.0,80.0" stroke="black" stroke-width="1" fill="none" />
<polyline points="" stroke="orange" stroke-width="1" fill="none" />
<polyline points="224.0,50.5,226.5,48.0,230.5,46.5,230.0,48.0,244.5,48.5,246.5,51.0,244.5,46.5,255.5,55.0,254.5,58.0,263.0,49.0,263.5,56.5,268.5,58.0,270.5,64.0,278.0,66.5,280.0,67.0,284.0,69.5,284.0,69.0,293.5,74.5,291.0,80.0,295.5,83.5,304.0,86.5,306.0,91.5,314.5,98.5,316.0,95.5,322.0,103.0,324.5,110.0,321.5,115.5,331.0,121.5,334.0,128.0,340.5,126.0,344.5,136.5,342.0,139.5,351.0,146.0,347.0,140.5,357.5,137.0,365.5,137.5,367.5,134.5,372.5,130.5,377.0,131.0,381.0,127.0,388.0,123.5,389.0,112.0,393.5,115.5,393.5,111.5,400.5,115.5,406.0,111.0,407.0,113.5,408.5,118.0,413.5,115.5,419.0,122.0" stroke="black" stroke-width="1" fill="none" />
<polyline points="413.0,118.0,413.5,123.5,415.0,128.5,416.0,136.0,423.0,132.5,420.5,142.0,419.5,144.0,420.0,143.0,408.5,152.0,420.0,156.5,412.5,165.0,412.5,165.0,407.0,175.5,407.5,174.5,405.0,174.0,400.5,176.5,408.5,177.0,405.5,181.5,398.5,182.5,392.0,189.0,396.5,196.0,385.5,206.5,382.5,203.0,377.0,211.5,374.5,212.5,366.5,218.5,368.5,212.5,373.0,211.5,374.5,208.5,384.0,210.0,385.0,206.0,392.5,198.0,392.5,193.0,396.0,191.5,402.5,190.0,403.5,182.5,410.5,173.5" stroke="yellow" stroke-width="1" fill="none" />
<polyline points="370.0,132.5,374.0,125.5,367.0,127.0" stroke="orange" stroke-width="1" fill="none" />
<polyline points="387.0,105.0,382.5,100.0,376.5,98.0,380.5,100.5" stroke="black" stroke-width="1" fill="none" />
<polyline points="375.5,101.5,373.5,100.0,381.5,103.5,388.0,103.0" stroke="black" stroke-width="1" fill="none" />
<polyline points="427.5,56.5,431.5,45.0,427.5,47.0,418.0,33.5,417.0,28.0,417.0,23.5,408.5,10.0" stroke="yellow" stroke-width="1" fill="none" />
<polyline points="514.0,74.0,513.0,83.5,508.0,79.5,504.0,88.5,502.5,88.5,494.5,96.5,489.5,104.0,484.0,106.5,491.0,109.0,481.5,107.5,479.5,116.0,478.5,118.0,473.5,126.0,470.0,127.0,467.5,131.5,468.5,136.0,467.0,138.0,460.0,148.5,458.0,148.5,458.0,152.0,454.5,156.0,450.0,167.0,450.5,168.0,445.0,167.5,442.0,172.0,445.0,175.5,437.5,186.5,436.0,190.0,436.0,191.0,431.5,197.0,434.0,205.0,431.0,204.5,430.0,207.5,425.0,212.0,428.0,216.5,421.5,217.5,422.5,222.0,419.5,228.5,421.0,236.5,413.0,233.0,413.5,244.0,412.5,244.5,409.0,245.0,414.0,249.0,415.5,259.5,406.0,261.0,403.5,259.5,407.5,266.5,408.0,273.0,404.0,278.0,405.0,282.5,402.5,280.5,396.0,286.5,402.0,290.0,404.0,289.0,397.0,299.5,397.5,304.5,393.0,307.5,389.5,306.0,392.5,316.0,388.0,318.5,396.0,318.5,390.0,327.0,391.5,325.5,383.5,337.0,388.0,338.0" stroke="yellow" stroke-width="1" fill="none" />
<polyline points="342.0,137.5,335.5,134.5,339.0,137.5,333.5,133.0,335.0,126.5,332.5,123.0,333.0,119.0,327.0,115.0,324.0,112.0,319.0,109.0,316.5,102.0,306.5,98.5,312.0,96.0,305.5,94.0,301.5,87.0,298.0,82.0,295.5,76.5,292.5,73.0,281.0,69.5,275.0,69.0,276.0,64.5,265.0,60.0,266.0,56.0,252.0,55.0" stroke="orange" stroke-width="1" fill="none" />
<polyline points="215.0,50.0,202.5,51.5" stroke="green" stroke-width="1" fill="none" />
<polyline points="171.0,62.0,158.0,65.0,160.5,68.5,172.0,65.0" stroke="green" stroke-width="1" fill="none" />
<polyline points="157.5,67.5,156.0,74.0,153.0,78.5,149.0,76.5,157.5,70.0,160.0,70.5,159.5,72.5,155.5,73.5" stroke="orange" stroke-width="1" fill="none" />
<polyline points="163.0,70.0,162.5,75.0,154.0,78.5,154.0,76.0" stroke="black" stroke-width="1" fill="none" />
</svg>