<svg xmlns="http://www.w3.org/2000/svg" width="1024" height="1024" version="1.1" fill="white"><polyline points="409.5,8.0,408.0,5.5,409.0,16.5,407.0,18.5,413.0,28.0,417.0,28.0,425.0,33.0,420.5,29.5,432.0,33.0,424.0,32.5,430.0,49.0,435.5,47.0,434.0,55.0,438.5,58.5,433.0,61.0,438.5,68.5,444.5,70.5" stroke="black" stroke-width="1" fill="none" />
<polyline points="456.0,59.0,457.0,51.0,446.0,44.5,442.0,40.0,442.0,37.5,435.0,22.5,434.5,19.0,433.5,22.5,432.0,24.0" stroke="black" stroke-width="1" fill="none" />
<polyline points="427.5,8.5,426.0,5.5,427.5,7.0,430.0,15.0,434.0,17.5,434.5,18.5,437.5,24.0,444.5,29.0,439.5,35.0,446.0,37.5,450.5,38.5,451.0,40.0,447.5,49.5,454.5,56.0,459.5,58.0,457.0,62.0,455.0,67.0,457.5,77.0,443.5,73.0,442.5,77.5,437.5,83.0,440.0,86.5,434.5,90.0,432.0,93.5,431.0,98.0,426.0,101.5,425.0,105.5,422.0,105.5,420.5,109.5,421.0,111.5,422.5,104.5,428.5,98.5,436.5,94.5,439.5,82.5,438.5,82.5,441.0,74.5,445.5,76.0,451.0,66.5,454.5,63.5,460.0,54.5,469.0,51.0,467.0,47.5,470.5,43.0,481.0,44.0,478.5,39.0,484.0,25.5,491.0,27.0,488.5,28.0,499.0,20.0,509.5,14.5,505.5,8.0,510.5,5.0" stroke="green" stroke-width="1" fill="none" />
<polyline points="507.5,6.5,506.0,10.5,504.0,17.0,497.5,24.0,493.5,23.0,491.5,26.5,486.0,28.5,483.0,33.5,482.5,38.5,471.5,42.5,472.0,43.5,462.5,52.5,467.0,55.0,468.5,50.5" stroke="orange" stroke-width="1" fill="none" />
<polyline points="507.0,79.0,507.5,82.0,502.5,75.5,503.5,87.0,502.5,94.0,495.5,98.0,489.5,94.5,483.0,104.0,481.5,102.0,477.5,110.5,467.5,113.5,468.0,120.0,470.0,126.0,461.5,136.0,457.5,142.5,465.0,141.0,464.5,142.0" stroke="orange" stroke-width="1" fill="none" />
<polyline points="447.0,160.0,450.5,164.5,442.5,166.0,441.5,174.0,435.0,168.5,439.5,171.0,440.0,172.5" stroke="black" stroke-width="1" fill="none" />
<polyline points="437.5,169.0,442.5,181.5,432.0,180.0,435.5,186.0,435.0,184.5,437.5,183.5" stroke="yellow" stroke-width="1" fill="none" />
<polyline points="422.5,200.0,427.0,212.5,426.0,217.5,425.5,224.0" stroke="black" stroke-width="1" fill="none" />
<polyline points="418.0,233.5,416.5,234.0,416.0,246.0,415.5,247.5,416.0,248.5,413.5,244.5" stroke="black" stroke-width="1" fill="none" />
<polyline points="400.5,288.5,405.0,290.5" stroke="black" stroke-width="1" fill="none" />
<polyline points="389.0,298.0,379.0,287.5,378.0,284.0,383.5,282.5,390.0,275.0" stroke="green" stroke-width="1" fill="none" />
<polyline points="374.0,265.5,372.0,267.0,373.0,263.5,376.0,257.0,374.0,253.0,370.0,257.0,372.0,245.5,371.5,241.0,371.0,238.5,373.5,235.5,369.5,234.0,374.0,226.5,374.0,223.5,376.5,225.0,372.0,218.0,368.5,216.5" stroke="yellow" stroke-width="1" fill="none" />
<polyline points="377.5,239.5,371.0,241.0,373.0,243.0,376.5,240.5" stroke="green" stroke-width="1" fill="none" />
<polyline points="370.5,244.5,369.5,253.0,366.0,252.5,374.0,256.5,372.0,267.0,366.5,274.5,370.0,267.5,371.0,274.0,368.5,273.0,368.0,277.0,366.0,276.5" stroke="black" stroke-width="1" fill="none" />
<polyline points="378.5,285.5,372.5,294.5,381.5,292.0,381.0,293.0,380.5,301.0,374.0,304.5,377.0,311.5,375.0,308.5,379.5,315.0,384.0,320.0,380.5,325.0,382.0,329.5,381.5,334.5,384.5,337.0,385.5,339.5" stroke="green" stroke-width="1" fill="none" />
<polyline points="369.5,350.0,365.0,354.0,366.0,356.5,374.0,363.0,376.5,366.0,374.5,366.5,369.5,374.0,370.5,374.0" stroke="green" stroke-width="1" fill="none" />
<polyline points="371.0,374.0,373.5,377.5" stroke="orange" stroke-width="1" fill="none" />
<polyline points="383.0,384.0,383.5,385.0,380.0,392.0,379.5,396.0,381.5,399.0" stroke="orange" stroke-width="1" fill="none" />
<polyline points="363.5,429.0,358.5,419.5,357.5,418.5,353.5,416.0,348.5,409.0,346.0,405.5,336.5,401.0,334.5,402.0,332.0,400.5,332.5,401.0,322.5,398.0,318.5,391.0,318.5,394.5,311.5,388.5,307.5,389.0,303.5,387.0,303.0,384.5,302.5,393.5,302.5,393.5" stroke="green" stroke-width="1" fill="none" />
<polyline points="308.5,380.5,317.0,378.0,321.5,371.0,321.0,363.0,325.5,354.5,327.0,349.0,337.5,344.5" stroke="yellow" stroke-width="1" fill="none" />
<polyline points="354.5,325.5,353.5,328.0,356.0,334.0,354.0,333.0,354.0,339.5" stroke="black" stroke-width="1" fill="none" />
<polyline points="356.0,362.0,355.0,366.0,353.5,366.5,358.5,374.0,351.0,382.5,353.0,383.5,356.0,391.5,355.0,395.0,350.5,391.0,352.5,402.0,351.5,407.0,350.5,407.0,352.0,411.0,353.0,413.0,352.5,413.5" stroke="green" stroke-width="1" fill="none" />
<polyline points="359.0,382.5,360.0,378.0,362.5,368.5,357.0,370.0,359.0,361.5,359.5,363.5" stroke="orange" stroke-width="1" fill="none" />
<polyline points="360.5,360.0,359.5,361.0,360.5,370.0,357.0,374.0,359.0,372.0,355.0,381.5" stroke="orange" stroke-width="1" fill="none" />
<polyline points="361.5,352.0,359.0,358.5,355.5,362.0,352.5,364.0,355.0,366.5,357.0,370.0,354.0,372.5,356.0,379.5,355.0,380.5,351.5,390.0,352.5,393.5,355.0,399.0,361.0,399.5,354.0,405.0,352.5,407.5,359.0,409.5,354.0,410.0,358.5,411.0" stroke="green" stroke-width="1" fill="none" />
<polyline points="370.5,467.0,376.0,458.0,373.0,460.0,374.0,454.0,372.0,447.0,372.0,445.5,376.0,436.0,372.5,436.0,372.0,430.5,374.5,432.0,377.0,428.0,379.0,423.5,376.5,418.0,378.0,409.5,376.5,408.0,377.0,404.5,375.0,401.0,372.5,395.5,376.5,389.0,381.5,393.0,375.5,384.5,381.0,378.0,376.0,373.0,374.0,371.5,375.0,367.5,380.5,369.0,382.0,361.0,377.5,358.0,380.5,349.5,377.5,348.0,380.5,346.0,372.0,344.5,371.0,336.5,374.5,331.5,373.5,332.0,373.0,326.5,373.5,322.5,376.0,319.0,374.0,314.0,373.0,309.5,376.0,302.0,374.5,304.5,375.5,296.0,374.5,292.0,367.5,288.5,369.5,281.5,367.0,277.5,372.5,278.0,367.0,267.0,366.5,270.0,368.5,263.0,371.0,259.0,371.5,259.5,364.0,252.5,366.5,247.5,367.5,245.5,368.5,237.5,365.5,233.5,361.5,231.5,362.0,227.5,362.0,224.0,357.5,215.0,355.5,219.0,361.0,210.5,358.5,208.5,352.5,206.0,345.0,196.5,347.0,201.0,344.5,193.5" stroke="green" stroke-width="1" fill="none" />
<polyline points="" stroke="black" stroke-width="1" fill="none" />
<polyline points="" stroke="yellow" stroke-width="1" fill="none" />
<polyline points="355.5,190.0,359.0,190.0" stroke="yellow" stroke-width="1" fill="none" />
<polyline points="357.5,189.5,358.0,199.0,360.5,202.0,360.5,205.0,354.5,203.0" stroke="orange" stroke-width="1" fill="none" />
<polyline points="351.0,201.0,354.0,199.0" stroke="black" stroke-width="1" fill="none" />
<polyline points="349.0,198.5,350.0,205.0,353.0,205.5" stroke="yellow" stroke-width="1" fill="none" />
<polyline points="347.5,205.5,339.0,206.0,338.0,202.0,335.0,208.0" stroke="green" stroke-width="1" fill="none" />
<polyline points="345.0,214.5,349.5,214.5,354.5,208.5,359.5,217.5,352.0,226.0,357.5,229.5,358.5,234.5,360.0,238.5,361.0,242.5,365.0,248.5,366.0,251.5" stroke="green" stroke-width="1" fill="none" />
<polyline points="363.0,242.5,363.0,242.5,367.5,245.0" stroke="green" stroke-width="1" fill="none" />
<polyline points="346.5,236.0,350.0,241.0" stroke="orange" stroke-width="1" fill="none" />
<polyline points="338.0,255.0,334.5,257.5,333.5,259.5,331.5,259.0,327.5,255.0" stroke="yellow" stroke-width="1" fill="none" />
<polyline points="337.5,248.0,339.5,243.5,342.0,246.0,349.5,250.0,348.5,244.5" stroke="orange" stroke-width="1" fill="none" />
<polyline points="345.5,262.0,343.5,260.5" stroke="green" stroke-width="1" fill="none" />
<polyline points="342.0,264.0,343.0,267.0,343.0,272.0,338.5,282.0" stroke="orange" stroke-width="1" fill="none" />
<polyline points="347.0,280.0,347.5,276.5,351.5,284.5,351.5,286.5,354.0,293.0,348.5,294.5,350.0,300.0,351.5,303.0,346.0,307.0,343.5,309.0,350.5,312.5,342.0,319.5,339.0,321.5,344.5,326.5,338.5,326.5,334.5,334.0,333.5,336.5,334.5,337.5,328.0,343.0,328.5,355.5,329.5,350.0,325.5,356.0,321.5,359.5,319.5,362.5,322.0,367.0,317.5,372.0,317.0,374.5,318.0,378.5,318.5,382.0,313.0,387.0,318.5,387.5,329.0,395.5,339.5,402.0,341.0,405.0,344.5,412.5,351.5,414.0,352.0,416.5,358.5,421.5,360.5,427.5,357.0,435.0,363.0,434.0,363.5,436.0,366.5,442.0,363.0,444.0,368.5,452.5,368.5,453.5,367.0,461.5,373.5,461.0,368.5,472.5,374.0,473.0,371.5,474.5,374.5,475.0,378.0,481.5,378.5,489.0,383.5,486.0,380.5,490.5,379.0,496.0,380.0,496.5,379.5,504.0,385.5,512.5,390.5,512.5,389.0,519.5" stroke="black" stroke-width="1" fill="none" />
<polyline points="428.0,491.5,427.5,484.0,429.5,484.0,441.0,484.0,440.5,482.0,448.5,475.5,449.5,466.0,457.5,467.5" stroke="yellow" stroke-width="1" fill="none" />
<polyline points="449.0,475.0,450.5,473.0,447.5,468.0,448.0,465.0,455.0,467.5,456.0,472.5" stroke="orange" stroke-width="1" fill="none" />
<polyline points="452.0,450.0,461.0,442.0" stroke="yellow" stroke-width="1" fill="none" />
<polyline points="469.5,419.5,475.0,413.0,478.5,410.0,482.5,402.5,482.5,403.5,492.0,396.5,490.5,394.5,496.0,391.0,498.5,390.5,503.5,389.0,504.5,385.0,513.5,382.0,508.5,378.0,511.5,382.0" stroke="green" stroke-width="1" fill="none" />
<polyline points="508.0,380.5,514.5,384.5,506.0,388.0,496.5,386.0,489.5,394.0,487.5,404.5,482.5,404.0,479.5,407.5,478.0,411.0,473.0,418.5,470.0,424.5,470.0,420.5,467.0,427.0,463.0,428.0,458.5,435.5,460.5,437.5,455.0,440.0,460.5,448.0,459.0,452.5,457.5,455.0,455.0,454.0,453.5,456.0,448.5,465.5,446.0,476.5,449.5,475.0,447.5,481.0,442.5,482.5,443.5,481.5" stroke="green" stroke-width="1" fill="none" />
<polyline points="432.0,476.0,435.0,478.0,429.5,483.0,439.0,477.0,436.5,472.0,438.0,465.5,438.5,463.5,430.5,457.5,439.5,456.5,437.0,453.0" stroke="black" stroke-width="1" fill="none" />
<polyline points="434.5,456.0,430.5,450.0,427.5,452.5,432.0,443.5,437.5,440.0,437.5,438.5,437.5,428.0,431.0,429.0,432.0,435.0,431.5,429.5,432.0,432.0" stroke="yellow" stroke-width="1" fill="none" />
<polyline points="427.0,470.0,428.0,470.0,420.5,478.0,424.5,474.5,420.5,484.0" stroke="orange" stroke-width="1" fill="none" />
<polyline points="420.5,471.0,420.0,471.5,421.0,476.0,425.5,472.0,429.0,467.0,431.5,461.0,434.5,461.0,434.0,460.0" stroke="orange" stroke-width="1" fill="none" />
<polyline points="472.5,411.5,473.0,413.0,478.0,412.5,483.0,408.0,479.0,395.5,483.5,394.0" stroke="orange" stroke-width="1" fill="none" />
<polyline points="442.5,429.0,446.0,426.5,447.5,421.5,446.5,412.5,447.0,408.5,448.0,411.5,450.0,405.0,451.5,396.0,450.0,392.0,452.0,391.0,454.0,385.0,456.0,379.5,451.5,378.5,452.5,378.0,455.5,374.5,450.0,365.5" stroke="black" stroke-width="1" fill="none" />
<polyline points="385.5,343.0,389.5,339.5,385.5,334.5,381.5,325.5,381.5,326.0" stroke="green" stroke-width="1" fill="none" />
<polyline points="364.5,356.0,368.5,358.5,371.0,362.0,368.5,364.0,367.0,364.0,365.0,377.5,364.5,384.0,362.0,386.0,372.5,385.0,373.0,383.5,375.0,389.5" stroke="black" stroke-width="1" fill="none" />
<polyline points="320.5,345.0,319.5,344.0" stroke="black" stroke-width="1" fill="none" />
<polyline points="316.5,350.5,311.0,350.5" stroke="green" stroke-width="1" fill="none" />
<polyline points="309.0,352.0,302.0,356.5,295.0,354.0" stroke="green" stroke-width="1" fill="none" />
<polyline points="297.5,352.0,306.0,360.5,307.5,359.0,311.5,358.5,307.5,358.0,307.5,363.0,308.5,366.0,305.0,367.5" stroke="green" stroke-width="1" fill="none" />
<polyline points="311.0,348.5,309.0,350.0,301.5,350.5,299.0,347.0,298.5,349.5" stroke="green" stroke-width="1" fill="none" />
<polyline points="303.5,333.0,307.0,327.0,315.5,329.0,313.0,324.5,306.0,332.0,301.5,332.0,303.5,331.0,309.0,333.0,309.5,328.5" stroke="orange" stroke-width="1" fill="none" />
<polyline points="310.0,325.0,312.0,324.0,311.5,324.0,299.0,332.5" stroke="black" stroke-width="1" fill="none" />
<polyline points="291.0,326.0,305.0,323.0,299.5,323.0,293.5,319.5,298.0,313.0" stroke="yellow" stroke-width="1" fill="none" />
<polyline points="320.5,329.0,321.5,332.5,325.0,328.0,324.0,318.5,321.0,318.0,321.5,313.5,320.0,308.5,324.0,316.0,322.0,304.5,322.5,303.5" stroke="black" stroke-width="1" fill="none" />
<polyline points="" stroke="green" stroke-width="1" fill="none" />
<polyline points="333.5,271.5,334.0,270.5,336.5,269.0,333.0,267.5,327.0,260.5,328.5,258.5,330.0,259.0" stroke="yellow" stroke-width="1" fill="none" />
<polyline points="327.0,266.5,329.0,274.0,329.5,273.0,327.0,274.5,332.5,265.0,333.5,271.5,321.5,270.5,329.5,263.5" stroke="yellow" stroke-width="1" fill="none" />
<polyline points="323.5,271.5" stroke="black" stroke-width="1" fill="none" />
<polyline points="" stroke="black" stroke-width="1" fill="none" />
<polyline points="319.5,265.5,325.5,262.5,333.0,264.5,335.0,260.5,337.0,262.0,339.0,252.5,343.5,259.5,352.5,254.0,350.5,250.5" stroke="black" stroke-width="1" fill="none" />
<polyline points="344.0,239.5,348.5,234.5,345.5,237.5,345.0,226.5,345.5,224.5,340.0,219.5,342.0,212.5,339.0,212.5" stroke="black" stroke-width="1" fill="none" />
<polyline points="342.0,196.5,345.5,201.0,355.5,199.0,355.0,196.5,358.5,197.0,358.5,193.0,369.5,188.5,372.0,183.0,374.5,182.5,380.5,183.0,377.5,190.5,386.0,182.5,389.5,180.5,394.0,172.5,398.0,171.0,399.0,178.5,404.0,169.0,405.5,173.5,403.0,177.0,396.5,183.5,393.5,185.0,387.5,190.5,380.0,190.5,384.5,194.0,392.5,188.0,391.5,183.5,395.0,172.5,400.5,178.0" stroke="black" stroke-width="1" fill="none" />
<polyline points="404.5,157.5,405.0,159.0,409.5,165.0,396.0,172.0,387.5,174.5" stroke="black" stroke-width="1" fill="none" />
<polyline points="374.0,182.5,367.5,186.0,354.5,191.0,347.5,189.5,344.5,195.5,335.5,200.0,337.0,207.0,346.0,209.0,347.5,212.0,354.5,210.5" stroke="green" stroke-width="1" fill="none" />
<polyline points="335.0,209.5,340.5,210.0,343.5,210.0,338.0,212.0,338.5,212.5,339.5,211.5,336.0,213.0" stroke="black" stroke-width="1" fill="none" />
<polyline points="338.0,207.5" stroke="green" stroke-width="1" fill="none" />
<polyline points="338.5,204.5,348.0,207.5,351.5,214.5,352.5,216.5,357.5,216.5" stroke="green" stroke-width="1" fill="none" />
<polyline points="354.5,208.0,350.5,204.5,348.5,203.5,344.5,206.0,339.0,208.0" stroke="black" stroke-width="1" fill="none" />
<polyline points="343.0,204.5,349.5,203.5" stroke="green" stroke-width="1" fill="none" />
<polyline points="346.5,196.5,349.0,190.5" stroke="orange" stroke-width="1" fill="none" />
<polyline points="341.5,196.5,346.0,198.5,347.0,202.5,350.5,204.5" stroke="black" stroke-width="1" fill="none" />
<polyline points="" stroke="black" stroke-width="1" fill="none" />
<polyline points="368.0,196.5,371.0,197.0" stroke="black" stroke-width="1" fill="none" />
<polyline points="392.0,154.5,392.0,163.5,383.5,166.5,386.5,166.0,383.0,175.5,385.0,175.5,387.5,174.5,385.0,164.5,393.5,156.0" stroke="black" stroke-width="1" fill="none" />
<polyline points="398.0,162.5,399.0,159.5,399.5,165.5,389.5,173.5,392.0,175.5,391.0,172.5,394.0,171.5,394.5,169.0,399.5,163.0" stroke="yellow" stroke-width="1" fill="none" />
<polyline points="404.0,121.0,393.0,128.5,388.5,129.5,383.5,138.0,392.0,131.5,389.5,128.0,392.5,124.0,390.0,125.0" stroke="green" stroke-width="1" fill="none" />
<polyline points="400.0,115.0,390.5,126.5,389.0,125.0,381.5,129.5,383.5,130.0,380.5,128.0,395.5,118.5,398.0,116.0" stroke="black" stroke-width="1" fill="none" />
<polyline points="395.5,117.0,389.5,124.0,383.5,125.5,379.0,128.5,374.5,131.0,364.5,143.0,353.0,141.0,351.5,141.5,350.5,139.5" stroke="orange" stroke-width="1" fill="none" />
<polyline points="329.0,148.0,318.0,160.0,321.0,161.0,316.0,160.5,307.5,167.0,301.0,176.0" stroke="orange" stroke-width="1" fill="none" />
<polyline points="283.5,175.0" stroke="green" stroke-width="1" fill="none" />
<polyline points="279.5,171.5,277.5,173.0,281.0,172.0,283.5,178.0" stroke="orange" stroke-width="1" fill="none" />
<polyline points="287.0,179.5,282.0,175.5,282.5,182.0" stroke="orange" stroke-width="1" fill="none" />
<polyline points="268.0,174.5,274.5,179.5,282.5,178.0,277.5,172.5,275.0,173.0,273.5,173.0" stroke="yellow" stroke-width="1" fill="none" />
<polyline points="271.5,185.0,270.0,182.5,262.0,179.5,261.0,176.5,255.5,178.0,261.0,175.5,249.5,171.5,239.5,169.0,245.5,164.0" stroke="green" stroke-width="1" fill="none" />
<polyline points="243.5,163.5,242.0,172.0,247.0,164.0,244.0,170.0,254.0,166.5,248.5,172.5,259.5,178.5,248.0,184.5,246.5,185.0,241.5,187.0,242.0,192.5,236.5,193.0,238.0,198.0,236.0,209.5,238.5,206.5,245.0,213.5,246.5,207.5,248.5,212.5,252.5,200.5,254.5,209.5,253.0,204.5,246.5,210.0,249.5,216.0,250.5,225.0,239.5,218.5,244.5,233.5,237.0,227.0,237.0,233.5,236.0,245.5,229.5,248.5,229.5,255.5,223.0,251.5,220.5,255.0,220.5,260.0,217.5,269.0,215.5,273.0,211.5,274.5,208.5,281.5,204.0,284.0,204.0,290.5,205.0,296.5,202.0,300.5,197.5,298.0,194.0,305.0,201.5,306.5,198.0,315.0,187.5,313.0,190.0,314.5,180.5,318.0,183.0,323.5,180.0,325.5,173.5,332.0,167.0,329.0,166.5,342.0,165.5,340.5,162.0,340.5" stroke="black" stroke-width="1" fill="none" />
<polyline points="154.5,352.0,161.5,352.0,162.0,358.0,152.0,358.0,155.0,366.0,153.0,368.5,159.5,378.5,157.0,371.5,156.5,381.0,151.5,385.0,155.5,389.5,157.5,393.5,150.0,391.5,159.0,403.5,162.0,406.0,165.5,408.5,166.5,410.5" stroke="orange" stroke-width="1" fill="none" />
<polyline points="166.0,409.0,166.5,410.0,163.0,407.5,158.5,412.5" stroke="black" stroke-width="1" fill="none" />
<polyline points="169.5,412.0,166.5,413.0,168.5,412.5,165.0,414.0,170.0,419.0,168.5,421.5,172.5,426.0" stroke="black" stroke-width="1" fill="none" />
<polyline points="169.5,432.5" stroke="black" stroke-width="1" fill="none" />
<polyline points="182.5,447.5,176.5,440.5,178.5,443.0,188.5,450.0,187.5,438.0,189.0,443.0" stroke="yellow" stroke-width="1" fill="none" />
<polyline points="180.5,444.0,186.5,444.5" stroke="black" stroke-width="1" fill="none" />
<polyline points="" stroke="black" stroke-width="1" fill="none" />
<polyline points="" stroke="black" stroke-width="1" fill="none" />
<polyline points="177.5,456.0,176.5,460.5,179.5,463.5,168.5,468.5,169.0,472.5,165.5,472.0" stroke="green" stroke-width="1" fill="none" />
<polyline points="164.0,470.5,156.5,472.0,155.0,473.5,151.0,467.5,138.5,454.0,139.5,456.5,137.5,457.5" stroke="black" stroke-width="1" fill="none" />
<polyline points="137.5,468.0,140.0,472.0,143.5,472.5,147.5,477.5,149.0,479.5,154.0,487.0,153.5,484.5,154.0,481.0,158.5,490.5,163.0,496.0,161.0,491.0" stroke="black" stroke-width="1" fill="none" />
<polyline points="163.5,502.0,167.5,504.0,167.0,503.0,166.5,501.5" stroke="black" stroke-width="1" fill="none" />
<polyline points="170.5,504.5,170.0,504.5,171.0,498.5,167.0,509.0,156.5,504.0,156.5,501.5,151.0,499.0,146.0,487.0,142.5,490.0,143.0,486.0" stroke="yellow" stroke-width="1" fill="none" />
<polyline points="142.5,478.5,142.5,492.0,148.0,495.0,146.5,503.0,147.5,501.0,144.0,500.5" stroke="orange" stroke-width="1" fill="none" />
<polyline points="153.5,505.0,152.5,500.0" stroke="black" stroke-width="1" fill="none" />
<polyline points="" stroke="orange" stroke-width="1" fill="none" />
<polyline points="156.5,491.5,155.5,503.0" stroke="green" stroke-width="1" fill="none" />
<polyline points="155.0,485.0,156.5,492.5,157.0,483.5" stroke="green" stroke-width="1" fill="none" />
<polyline points="149.5,491.5,150.0,488.5,152.5,493.0,157.0,493.5,159.0,497.0,156.0,500.0,157.5,506.5,155.0,510.0,161.5,506.0,162.5,506.0,160.5,509.0" stroke="green" stroke-width="1" fill="none" />
<polyline points="150.0,502.0,146.5,498.5,149.5,490.5,141.5,491.0,139.0,481.5,141.5,482.0" stroke="black" stroke-width="1" fill="none" />
<polyline points="146.0,492.5,152.5,494.5,152.0,491.5,148.0,500.5,148.5,502.5,149.5,505.5" stroke="orange" stroke-width="1" fill="none" />
<polyline points="144.5,496.5" stroke="yellow" stroke-width="1" fill="none" />
<polyline points="145.0,502.5,144.0,502.5,148.5,508.0,153.0,507.5,154.0,518.0,159.5,518.0" stroke="orange" stroke-width="1" fill="none" />
<polyline points="139.0,513.0,142.5,511.5,142.0,504.5,135.0,498.0,137.5,496.0,139.5,494.5,132.0,485.0" stroke="orange" stroke-width="1" fill="none" />
<polyline points="137.5,484.5,136.0,491.5,142.0,496.5,129.0,501.5,143.0,503.0,139.5,500.5,140.0,499.5" stroke="green" stroke-width="1" fill="none" />
<polyline points="125.5,498.0,125.0,496.0" stroke="green" stroke-width="1" fill="none" />
<polyline points="126.5,499.0,124.5,508.5" stroke="orange" stroke-width="1" fill="none" />
<polyline points="123.5,508.5,122.0,512.0,126.0,506.5,121.5,495.5,123.5,497.5,125.5,487.5" stroke="black" stroke-width="1" fill="none" />
<polyline points="129.0,501.0,128.5,496.0" stroke="green" stroke-width="1" fill="none" />
<polyline points="135.0,516.5,132.5,515.5,132.0,509.0,128.5,502.5" stroke="orange" stroke-width="1" fill="none" />
<polyline points="140.0,491.5,136.5,489.5,138.0,479.5,140.5,480.5,140.0,483.0" stroke="black" stroke-width="1" fill="none" />
<polyline points="132.5,479.5,132.0,489.0,136.0,494.5,134.0,495.0,140.0,506.5,136.0,504.0,140.5,511.0,138.5,518.5,136.0,507.0" stroke="orange" stroke-width="1" fill="none" />
<polyline points="161.5,506.5,162.5,510.5" stroke="green" stroke-width="1" fill="none" />
<polyline points="158.5,495.0" stroke="green" stroke-width="1" fill="none" />
<polyline points="167.5,481.0,160.0,481.5,160.5,479.5" stroke="yellow" stroke-width="1" fill="none" />
<polyline points="166.5,476.0,163.0,474.5,168.5,476.0" stroke="yellow" stroke-width="1" fill="none" />
<polyline points="162.0,466.0,162.5,468.5,170.0,468.0,172.5,472.5,169.5,475.0,161.5,483.5,165.0,486.0,167.0,493.5,172.5,491.5,172.0,491.5" stroke="yellow" stroke-width="1" fill="none" />
<polyline points="204.0,486.0,208.5,489.0,209.0,486.5,208.0,479.5,213.0,483.0,219.0,480.0,225.0,472.5,222.5,470.5" stroke="black" stroke-width="1" fill="none" />
<polyline points="228.5,463.0,231.5,455.5" stroke="orange" stroke-width="1" fill="none" />
<polyline points="215.0,477.0,221.0,473.0,221.5,469.5,223.5,466.5,230.0,463.5,229.0,455.0,233.0,453.0,232.5,450.0,234.5,446.0,231.5,447.0,236.0,439.5,237.5,433.5,238.5,435.0,232.0,423.5,243.5,425.0,229.0,416.5,227.0,415.5,231.0,411.5,233.5,404.5,230.5,403.0,223.0,401.0" stroke="yellow" stroke-width="1" fill="none" />
<polyline points="230.0,412.0,227.5,411.0,222.5,409.5,220.5,416.0,222.0,417.0,225.0,411.0,224.0,410.5" stroke="green" stroke-width="1" fill="none" />
<polyline points="239.0,416.0,223.5,414.5,222.5,417.0,231.5,425.0,223.0,424.5,223.0,417.5,223.5,417.5" stroke="orange" stroke-width="1" fill="none" />
<polyline points="242.5,418.0,250.0,417.0,246.5,425.5,242.0,426.0,236.5,421.0,240.5,431.0,238.0,436.0,243.0,445.0,238.0,444.0,243.0,447.0,237.0,454.5,235.5,455.0,233.0,458.0,236.5,470.0,234.0,470.0,221.5,473.0,226.0,475.0,224.0,481.0,220.0,487.0,210.0,487.5" stroke="black" stroke-width="1" fill="none" />
<polyline points="192.5,497.0,199.0,494.5,209.5,492.0,206.0,496.0,208.0,491.5,212.5,491.0,216.0,489.0,219.0,486.5,229.0,479.0" stroke="green" stroke-width="1" fill="none" />
<polyline points="199.5,450.0,199.0,445.5,197.5,451.0,197.0,447.5,187.5,447.5,193.5,447.0,191.5,449.0" stroke="green" stroke-width="1" fill="none" />
<polyline points="193.5,450.0,185.0,448.5,179.5,453.0,187.5,451.5,183.5,450.5,184.0,442.0,189.5,439.0,182.0,432.5,175.5,432.0,182.0,429.5,188.0,427.0,181.0,419.5,180.0,422.5,186.5,415.0,174.5,413.0,177.5,412.5,166.5,399.5,164.0,397.5,161.5,391.0,164.0,390.0,159.0,385.5,167.0,383.0,169.5,377.5,165.5,381.5" stroke="black" stroke-width="1" fill="none" />
<polyline points="166.0,375.0,164.5,368.5,166.0,367.5,173.5,362.5,180.5,359.5,181.0,347.5,182.0,341.5,183.5,342.0,194.0,333.0,198.0,330.0,198.5,322.0,197.0,321.5,197.5,321.0" stroke="yellow" stroke-width="1" fill="none" />
<polyline points="201.5,314.5,205.5,319.5,209.5,318.0" stroke="green" stroke-width="1" fill="none" />
<polyline points="189.5,317.5,197.5,306.5,194.5,301.5,203.5,289.5,205.0,292.0,210.0,279.5,216.5,272.5,220.0,260.5,222.0,260.0,224.0,248.5,233.5,246.0,232.0,243.5,241.0,232.5,243.0,230.0,245.0,223.5,255.0,218.5,256.5,218.0,259.5,214.5,252.0,212.5" stroke="orange" stroke-width="1" fill="none" />
<polyline points="270.5,229.0,264.5,230.5,266.5,230.0" stroke="black" stroke-width="1" fill="none" />
<polyline points="270.0,232.5,261.5,239.0,259.5,242.5" stroke="black" stroke-width="1" fill="none" />
<polyline points="263.5,232.5,267.5,228.5,260.0,229.5,261.5,221.0,270.0,224.5,260.5,222.5,252.5,229.0,252.0,227.0,250.5,229.0,245.0,246.5,244.5,240.5,231.5,253.5,238.5,254.5,224.5,265.0,220.0,271.5,217.0,281.0,221.0,278.5,217.0,278.5,224.0,275.0,225.5,270.0,226.0,263.0,223.5,262.5,230.0,256.0,230.5,258.0,239.0,246.0,231.5,248.0,246.0,236.0,248.0,236.0,244.5,238.5,255.5,224.0,259.5,219.5,261.0,216.0,260.0,220.0,263.0,213.5,267.0,211.5,265.0,214.0,270.0,203.5,273.5,198.5,270.5,199.0,272.0,193.0,268.0,189.0,270.0,185.0,264.0,191.5,259.5,197.0,256.5,200.5,263.5,201.0,260.0,203.0,258.0,204.5,266.0,195.5" stroke="black" stroke-width="1" fill="none" />
<polyline points="253.5,195.0" stroke="yellow" stroke-width="1" fill="none" />
<polyline points="250.0,207.0,257.0,214.0,252.5,213.0,247.0,221.5,241.5,229.5,243.5,230.5,224.0,235.0,230.5,234.0,224.5,235.5,224.0,229.5,233.0,228.0,227.0,217.5,224.5,219.0,227.5,218.5,219.5,218.5,219.0,217.5,228.5,203.5,222.0,204.0,221.0,205.5,220.0,204.5" stroke="black" stroke-width="1" fill="none" />
<polyline points="232.0,201.0,239.0,202.0,237.0,202.0,228.5,204.0" stroke="black" stroke-width="1" fill="none" />
<polyline points="236.5,202.5" stroke="green" stroke-width="1" fill="none" />
<polyline points="236.5,190.0" stroke="black" stroke-width="1" fill="none" />
<polyline points="250.0,204.0,249.5,194.0,257.0,189.0,259.5,188.0,258.5,183.5,248.5,194.0,244.0,196.5,251.5,190.5,266.0,185.5,259.0,190.0,259.0,189.5,266.0,182.5,267.0,177.0,277.5,185.0,274.0,184.0,274.5,178.0" stroke="green" stroke-width="1" fill="none" />
<polyline points="257.0,181.5,256.0,185.0,251.0,195.5,252.5,191.0,252.5,196.5,253.5,199.0,244.0,201.0,239.0,207.0,245.0,206.5,253.0,205.0,250.5,198.0,252.5,196.5,263.0,192.5,261.0,190.0,263.5,181.5,270.5,196.0,271.5,193.0" stroke="black" stroke-width="1" fill="none" />
<polyline points="263.0,190.0,265.0,203.5,259.5,204.5,260.0,203.0,261.5,194.0,267.5,197.0,271.0,187.5,272.5,191.5,274.0,191.5" stroke="orange" stroke-width="1" fill="none" />
<polyline points="259.5,191.0,259.5,196.0,256.0,197.5,251.0,200.0,247.0,207.5,252.0,210.0,253.5,220.0,254.5,216.0" stroke="yellow" stroke-width="1" fill="none" />
<polyline points="261.0,204.0,263.0,206.0,269.0,202.0,262.5,202.0,261.5,206.5,263.5,208.0,257.5,214.5,258.5,216.0,251.5,226.5,248.5,224.5,242.0,229.0,243.0,231.5,237.0,243.5" stroke="orange" stroke-width="1" fill="none" />
<polyline points="" stroke="green" stroke-width="1" fill="none" />
<polyline points="" stroke="yellow" stroke-width="1" fill="none" />
<polyline points="227.5,219.5,224.5,219.0,232.0,229.5,231.5,227.0" stroke="green" stroke-width="1" fill="none" />
<polyline points="216.5,233.0,217.0,228.5" stroke="yellow" stroke-width="1" fill="none" />
<polyline points="222.5,230.5,222.5,234.0,226.5,240.5,221.0,240.0,226.5,244.5,222.5,246.0" stroke="black" stroke-width="1" fill="none" />
<polyline points="223.5,257.0,225.0,249.0,222.5,247.5,225.0,238.5,230.5,232.5,220.0,233.5,218.0,233.5,222.0,229.0,216.0,221.5,221.0,226.0,215.0,218.5" stroke="black" stroke-width="1" fill="none" />
<polyline points="219.5,216.5,218.0,218.5,222.0,229.0,215.5,229.0,215.0,235.5,223.0,229.5,231.0,244.0,228.5,248.0,229.5,247.5,227.0,247.5" stroke="black" stroke-width="1" fill="none" />
<polyline points="224.0,252.0,217.0,261.5,216.0,271.0,214.0,272.5,203.5,284.0,197.5,286.0,198.0,295.0,196.0,304.5,189.0,318.0,191.5,319.5,183.0,326.5,177.5,327.5,173.0,329.5,178.5,334.5,170.0,334.5,161.0,337.5,157.0,336.0,153.0,342.5,145.0,350.5,143.0,345.0" stroke="yellow" stroke-width="1" fill="none" />
<polyline points="142.0,346.5,148.0,334.0,148.5,342.0,146.5,335.5,147.0,334.0,152.5,328.5,148.5,327.5,149.0,328.5" stroke="yellow" stroke-width="1" fill="none" />
<polyline points="152.0,333.5,152.0,332.0" stroke="green" stroke-width="1" fill="none" />
<polyline points="148.0,350.0,148.0,348.0,147.5,355.0" stroke="green" stroke-width="1" fill="none" />
<polyline points="147.0,350.0,135.0,345.5,131.0,340.5,136.5,342.0,134.0,335.0,135.5,331.5,131.5,329.0,131.5,322.5,134.0,316.5,132.0,317.5,131.5,309.5,127.0,304.5,129.5,297.0,132.0,295.5" stroke="black" stroke-width="1" fill="none" />
<polyline points="130.5,299.5,130.0,296.5,128.5,295.5" stroke="green" stroke-width="1" fill="none" />
<polyline points="148.5,298.0,134.0,293.5,140.5,306.0,138.5,303.5,140.0,305.5,141.0,301.0" stroke="yellow" stroke-width="1" fill="none" />
<polyline points="125.0,287.5,133.5,292.5,134.5,289.5" stroke="yellow" stroke-width="1" fill="none" />
<polyline points="129.5,283.5,131.0,272.5,137.0,278.5,142.5,273.0" stroke="black" stroke-width="1" fill="none" />
<polyline points="152.0,265.0,158.0,264.5" stroke="green" stroke-width="1" fill="none" />
<polyline points="153.5,262.5,155.5,270.0,153.5,275.0,157.0,272.0,157.0,272.0" stroke="black" stroke-width="1" fill="none" />
<polyline points="151.0,273.0,153.0,272.5" stroke="orange" stroke-width="1" fill="none" />
<polyline points="168.5,279.0,165.5,277.0,173.0,278.5,171.0,274.0,169.5,269.0,170.0,267.0,168.5,261.0,173.5,254.5,170.0,252.0,174.0,258.0,167.5,257.5,168.0,260.5" stroke="black" stroke-width="1" fill="none" />
<polyline points="170.5,253.0,178.5,247.5,180.0,251.5" stroke="black" stroke-width="1" fill="none" />
<polyline points="170.0,258.0,173.0,262.5" stroke="black" stroke-width="1" fill="none" />
<polyline points="" stroke="green" stroke-width="1" fill="none" />
<polyline points="181.5,261.5,183.0,264.5,184.5,259.5,185.5,259.5,188.5,260.0,185.0,262.0" stroke="yellow" stroke-width="1" fill="none" />
<polyline points="181.5,260.0,176.0,259.0" stroke="black" stroke-width="1" fill="none" />
<polyline points="179.5,262.0" stroke="black" stroke-width="1" fill="none" />
<polyline points="182.5,253.5,186.0,256.0,188.5,258.5,183.0,262.5,190.5,264.5,182.5,265.5" stroke="black" stroke-width="1" fill="none" />
<polyline points="204.0,262.0,206.0,266.0,207.5,265.0,210.0,266.5" stroke="orange" stroke-width="1" fill="none" />
<polyline points="213.5,253.0,216.0,261.0,210.0,251.5,206.5,247.0,208.0,246.5,209.0,239.5,207.5,236.5,211.5,238.5,206.5,241.0,201.0,237.5" stroke="orange" stroke-width="1" fill="none" />
<polyline points="206.5,239.5,209.5,238.0,209.0,247.5,213.0,243.5,218.0,243.0,217.5,244.0,213.0,244.0" stroke="black" stroke-width="1" fill="none" />
<polyline points="207.5,250.5,205.5,249.5" stroke="black" stroke-width="1" fill="none" />
<polyline points="212.0,258.0,217.0,263.5,218.0,264.5" stroke="orange" stroke-width="1" fill="none" />
<polyline points="211.5,256.5,213.5,258.5,215.0,247.5,211.5,246.5,208.5,238.0,207.5,243.0,210.5,236.0,210.5,232.0" stroke="green" stroke-width="1" fill="none" />
<polyline points="216.0,232.5,213.5,235.0,208.5,238.5,211.5,247.5,212.5,248.0,209.0,253.5,210.0,254.5,216.0,258.5,215.5,260.5" stroke="black" stroke-width="1" fill="none" />
<polyline points="209.0,252.5,214.0,253.5,209.0,247.0,206.0,243.5" stroke="yellow" stroke-width="1" fill="none" />
<polyline points="201.5,261.5,196.5,254.5,199.0,253.5,192.0,246.5" stroke="black" stroke-width="1" fill="none" />
<polyline points="194.0,251.0,194.0,250.5,197.0,251.0" stroke="green" stroke-width="1" fill="none" />
<polyline points="187.5,267.5,188.5,267.0,183.0,264.0,187.5,262.0,176.0,265.5,176.5,259.5,186.5,249.5,180.5,247.5,181.5,242.0,188.5,234.5,191.0,237.5,182.0,244.0" stroke="yellow" stroke-width="1" fill="none" />
<polyline points="188.5,228.0,190.0,223.0,197.5,216.5,201.5,214.0,190.5,227.0,198.5,231.0" stroke="black" stroke-width="1" fill="none" />
<polyline points="190.0,219.0,183.5,224.0,184.0,220.5,186.5,229.0,189.5,231.0" stroke="yellow" stroke-width="1" fill="none" />
<polyline points="184.0,238.5,185.5,239.0,184.0,241.0" stroke="yellow" stroke-width="1" fill="none" />
<polyline points="186.5,241.0,189.0,246.0,191.5,237.0,192.5,236.5,202.0,239.5,200.0,241.5" stroke="green" stroke-width="1" fill="none" />
<polyline points="214.5,228.5,210.5,228.0,212.0,230.0" stroke="black" stroke-width="1" fill="none" />
<polyline points="212.0,220.5" stroke="black" stroke-width="1" fill="none" />
<polyline points="208.0,211.0,212.5,220.5,212.0,224.5,219.5,233.5,219.0,237.5" stroke="green" stroke-width="1" fill="none" />
<polyline points="226.0,198.0,225.0,199.0,219.5,213.5,223.5,219.0,219.5,212.0,222.5,216.5,229.0,228.5,236.0,229.0,227.0,229.0,234.5,231.5,237.5,244.5,234.5,241.0,236.0,249.0,229.0,246.0,229.5,251.5,224.5,254.5,222.0,261.5,217.0,262.0,216.5,267.5,220.5,272.0,215.0,281.5,208.0,279.5,214.5,291.0,202.5,288.5,201.0,292.0,208.0,305.0,194.0,301.0,202.0,304.5,204.0,311.0,199.5,315.0,191.0,315.5,191.0,323.5,198.5,321.0,198.0,311.5,202.5,313.0,215.0,313.0,216.0,308.5,222.5,295.5,225.5,297.0,232.0,287.5,227.0,280.5,241.5,278.0,235.5,270.5,241.5,268.5,250.5,265.5,248.0,259.0,253.5,256.0,255.0,252.0,263.0,249.5,265.5,250.0,269.5,244.0,280.5,248.5,280.5,247.0,280.0,253.0,291.5,249.5,286.0,247.5,303.5,254.5,302.5,256.5" stroke="yellow" stroke-width="1" fill="none" />
<polyline points="" stroke="green" stroke-width="1" fill="none" />
<polyline points="287.0,258.5,288.5,272.0,290.5,276.0,291.0,275.0" stroke="green" stroke-width="1" fill="none" />
<polyline points="" stroke="orange" stroke-width="1" fill="none" />
<polyline points="" stroke="green" stroke-width="1" fill="none" />
<polyline points="282.0,275.0,279.0,274.5,281.5,274.0" stroke="green" stroke-width="1" fill="none" />
<polyline points="280.5,263.5,280.0,267.0,273.0,265.5,271.5,262.5,268.0,267.0" stroke="orange" stroke-width="1" fill="none" />
<polyline points="266.0,266.0,272.5,267.0,276.5,264.5" stroke="orange" stroke-width="1" fill="none" />
<polyline points="265.0,270.5,267.5,266.5,269.0,268.5" stroke="yellow" stroke-width="1" fill="none" />
<polyline points="262.5,268.0,263.0,267.5,266.5,273.5,272.0,271.0,278.5,268.5,279.0,264.5,278.0,277.5,270.5,286.5,277.5,276.0,272.5,282.0,279.5,286.0" stroke="yellow" stroke-width="1" fill="none" />
<polyline points="266.0,280.5,265.0,279.5,259.0,273.0,258.0,269.5,258.5,265.5,258.5,271.5,256.5,274.5,254.0,273.0" stroke="orange" stroke-width="1" fill="none" />
<polyline points="269.0,277.0,268.0,279.0" stroke="yellow" stroke-width="1" fill="none" />
<polyline points="255.0,271.0,252.0,270.5,247.0,268.5" stroke="black" stroke-width="1" fill="none" />
<polyline points="245.5,270.0,251.0,269.5,253.5,271.0,256.0,277.0,253.0,279.0,265.0,276.0,270.5,274.0,268.5,280.5,275.5,282.0,279.0,281.5,283.5,274.5" stroke="black" stroke-width="1" fill="none" />
<polyline points="288.0,266.5,287.5,264.0,281.5,258.5,279.0,261.5,282.0,255.5,278.0,251.0,277.5,255.5,277.0,252.5" stroke="yellow" stroke-width="1" fill="none" />
<polyline points="273.0,249.0,268.5,251.5,268.5,249.5" stroke="green" stroke-width="1" fill="none" />
<polyline points="" stroke="black" stroke-width="1" fill="none" />
<polyline points="272.0,261.5,271.5,258.0,274.5,253.5,270.0,259.0,264.0,257.0,261.0,252.0,259.5,258.0" stroke="black" stroke-width="1" fill="none" />
<polyline points="267.0,267.5,265.5,269.0,261.5,272.5,273.0,269.0" stroke="black" stroke-width="1" fill="none" />
<polyline points="278.0,269.5,284.5,269.5,284.5,273.5,290.5,278.0,286.5,276.0,287.0,275.0,288.5,277.5,291.0,277.0" stroke="orange" stroke-width="1" fill="none" />
<polyline points="" stroke="yellow" stroke-width="1" fill="none" />
<polyline points="265.0,243.0,257.5,250.0,258.0,249.0,258.0,256.0,243.5,263.5,245.5,265.5,242.5,267.0,237.0,272.5,235.5,278.5,231.5,284.5,228.5,288.0,226.5,285.0,218.0,298.0,217.0,295.5,216.0,302.5,209.5,300.0,207.0,311.5,199.0,313.0,199.0,317.0,202.0,319.5,199.0,323.5,191.5,332.0,190.5,334.5,184.5,330.0,184.5,345.5,185.0,344.5,177.0,348.5,172.5,356.5,173.5,357.0,167.5,361.0,166.5,370.0,164.0,372.5,160.5,378.0,159.5,375.5,152.0,389.5,163.5,388.5,161.5,393.5,169.5,400.0,178.0,406.5,176.5,406.0,174.0,402.5,176.0,398.0" stroke="yellow" stroke-width="1" fill="none" />
<polyline points="165.0,403.5,157.5,393.0,155.0,390.5,158.0,391.5" stroke="orange" stroke-width="1" fill="none" />
<polyline points="" stroke="black" stroke-width="1" fill="none" />
<polyline points="141.5,381.0,140.0,377.0,137.5,376.0,140.0,370.5,138.5,371.5,142.5,372.5,139.0,368.5" stroke="black" stroke-width="1" fill="none" />
<polyline points="135.5,378.0,137.0,381.0,140.5,382.5" stroke="orange" stroke-width="1" fill="none" />
<polyline points="135.5,409.0,130.0,414.5,128.5,414.0,131.0,419.0,137.0,424.5,137.0,426.5,138.0,430.5,136.5,437.5,137.0,442.0,136.5,445.0,138.5,445.0,141.0,452.0,137.0,454.0,134.5,463.0,141.0,461.0,138.5,469.0,142.0,468.0,141.5,467.0,147.5,470.0,148.0,480.5,151.5,477.5,154.5,483.0,160.0,486.5,163.5,482.5" stroke="green" stroke-width="1" fill="none" />
<polyline points="" stroke="orange" stroke-width="1" fill="none" />
<polyline points="177.5,464.0,174.5,460.5,183.0,457.5,171.5,465.5,177.5,457.0,175.5,455.0,169.0,449.0,163.0,446.5,173.0,439.0,163.0,439.5,169.5,434.5,169.5,434.0,170.5,433.0" stroke="yellow" stroke-width="1" fill="none" />
<polyline points="169.0,438.0,161.5,439.0" stroke="yellow" stroke-width="1" fill="none" />
<polyline points="157.0,424.5,159.0,418.5,163.0,424.0,155.5,413.5,162.5,409.5,157.5,415.5,156.0,412.0,154.0,402.0,156.5,404.0,161.5,393.5,153.5,393.5,153.0,392.0,152.5,383.0,146.0,373.0,150.0,377.0,146.5,369.5,146.0,368.5,151.5,365.0,151.0,364.5" stroke="black" stroke-width="1" fill="none" />
<polyline points="147.0,359.5,146.0,360.5,146.0,363.0,149.5,362.5,149.5,370.0,151.0,375.5,154.5,379.0,152.5,381.5,154.0,380.5,152.0,384.0,158.0,395.5,155.0,392.0,161.0,398.0,170.0,400.0,172.0,403.5" stroke="orange" stroke-width="1" fill="none" />
<polyline points="169.0,418.5,171.5,420.0,175.0,425.0,176.0,428.0,175.5,429.0,169.5,439.5,169.0,442.5,170.5,439.0,168.0,445.0,171.0,452.0,174.0,454.5,179.0,462.0,174.0,460.5,171.0,463.5" stroke="orange" stroke-width="1" fill="none" />
<polyline points="176.5,459.0,170.5,452.5" stroke="black" stroke-width="1" fill="none" />
<polyline points="164.0,449.0,158.0,444.0,160.5,447.5,168.0,454.0,164.0,463.5,174.0,458.5,167.5,465.5,168.0,470.0,161.5,468.5,161.0,479.0,166.5,475.5,156.5,480.5,161.5,488.5,164.0,485.0,159.0,495.0,161.5,493.5,164.0,502.5,171.5,502.0,175.0,510.5,174.0,512.5,169.5,511.0" stroke="orange" stroke-width="1" fill="none" />
<polyline points="" stroke="black" stroke-width="1" fill="none" />
<polyline points="149.0,466.5,154.0,465.0,152.5,462.0,152.5,465.5" stroke="yellow" stroke-width="1" fill="none" />
<polyline points="" stroke="yellow" stroke-width="1" fill="none" />
<polyline points="150.0,458.0,149.5,449.0,157.0,451.5,151.0,447.5,152.0,444.0,147.5,439.0,145.0,437.5,150.0,432.5,144.0,425.5,138.0,425.0,140.0,423.5,138.0,414.5,132.0,410.0,134.5,408.0" stroke="yellow" stroke-width="1" fill="none" />
<polyline points="136.5,403.0,133.0,404.0,139.5,401.5,146.0,397.5,145.0,399.5,141.0,399.0" stroke="orange" stroke-width="1" fill="none" />
<polyline points="140.0,397.5,143.0,394.5,139.5,404.5,136.0,406.5" stroke="orange" stroke-width="1" fill="none" />
<polyline points="138.0,401.0,141.0,407.5,146.0,404.0,145.0,410.0,144.5,409.5,145.0,409.5" stroke="yellow" stroke-width="1" fill="none" />
<polyline points="156.5,419.5,153.0,425.0,151.5,430.0,154.5,429.5,154.5,435.0,150.5,437.0,153.5,439.5" stroke="orange" stroke-width="1" fill="none" />
<polyline points="164.0,441.0,162.0,440.0,172.5,445.0,176.5,445.5,182.0,440.5,172.0,430.0" stroke="green" stroke-width="1" fill="none" />
<polyline points="181.0,427.5,185.0,425.5,173.0,413.5,175.5,416.5,178.5,418.5,168.5,413.0,165.5,410.0,163.0,406.5,165.0,398.0,172.0,402.0" stroke="yellow" stroke-width="1" fill="none" />
<polyline points="167.5,401.0,169.5,408.5,177.5,415.0,172.5,421.5,167.0,420.5,170.5,429.0,161.5,429.0,164.0,428.5,161.0,433.5,162.5,439.5,159.5,437.0,164.0,430.0,174.0,427.5,174.0,424.0" stroke="yellow" stroke-width="1" fill="none" />
<polyline points="170.5,429.5,165.5,432.5,173.5,432.5,173.0,435.0" stroke="orange" stroke-width="1" fill="none" />
<polyline points="167.5,441.5,165.0,446.5,156.0,449.5,154.5,453.0,159.0,454.5,161.5,457.0,162.0,459.5,163.0,459.5" stroke="black" stroke-width="1" fill="none" />
<polyline points="165.0,456.0,162.0,459.0,161.0,455.5,163.5,453.5,157.5,448.5,156.0,446.0,159.5,444.0" stroke="green" stroke-width="1" fill="none" />
<polyline points="" stroke="black" stroke-width="1" fill="none" />
<polyline points="148.5,452.5,150.0,451.0,153.0,455.0,152.5,455.5,153.5,453.5,154.0,457.0,164.0,456.0,162.5,444.5" stroke="orange" stroke-width="1" fill="none" />
<polyline points="145.0,447.0,144.0,448.5" stroke="black" stroke-width="1" fill="none" />
<polyline points="143.0,451.0,149.0,461.5,150.0,462.5,148.0,468.5,155.0,468.0,149.0,473.5,157.5,477.5,155.0,476.5,156.5,480.5" stroke="black" stroke-width="1" fill="none" />
<polyline points="152.5,474.0,147.5,467.5" stroke="black" stroke-width="1" fill="none" />
<polyline points="144.0,463.5,151.0,466.5,151.0,466.5" stroke="yellow" stroke-width="1" fill="none" />
<polyline points="154.0,475.0,148.5,470.5,140.5,467.0,145.0,468.5,140.5,464.0" stroke="black" stroke-width="1" fill="none" />
<polyline points="140.5,453.5,141.0,453.5,147.5,459.5,139.0,461.0,147.0,475.5,143.0,470.5,153.5,475.0,157.5,481.5" stroke="green" stroke-width="1" fill="none" />
<polyline points="166.5,473.5,165.0,473.5,161.0,478.5,157.0,470.5,158.0,473.5,154.5,471.5,149.0,463.0,151.5,460.5,141.5,454.0" stroke="green" stroke-width="1" fill="none" />
<polyline points="143.5,456.0,146.0,456.5,145.0,459.0,142.5,468.5,147.5,471.0,151.5,471.0,157.0,476.5,159.0,478.0,156.0,487.5,158.0,490.0,162.0,493.0,166.5,494.5,169.0,503.0,170.5,499.5" stroke="orange" stroke-width="1" fill="none" />
<polyline points="168.0,456.5,162.5,453.5,164.5,452.0,156.5,447.5,158.0,448.5,156.0,447.5,156.5,446.0,154.5,443.5,154.5,437.0,153.0,432.0,149.5,434.0,147.0,429.5,150.5,428.0,141.5,424.5,141.5,422.5" stroke="black" stroke-width="1" fill="none" />
<polyline points="" stroke="green" stroke-width="1" fill="none" />
<polyline points="147.5,431.0,146.0,431.5" stroke="black" stroke-width="1" fill="none" />
<polyline points="142.5,417.0,146.0,415.0" stroke="black" stroke-width="1" fill="none" />
<polyline points="137.0,411.0,142.0,408.0,145.0,419.0,145.0,422.5,149.0,419.5,147.5,428.5,151.0,431.0" stroke="green" stroke-width="1" fill="none" />
<polyline points="155.0,421.0,152.0,428.0,152.5,426.5,151.5,413.5,152.0,410.5,150.5,402.0,150.5,396.5,149.5,393.5,145.5,396.0" stroke="yellow" stroke-width="1" fill="none" />
<polyline points="150.5,395.0,153.5,398.5,145.5,401.5,147.0,402.5" stroke="green" stroke-width="1" fill="none" />
<polyline points="159.5,400.0" stroke="orange" stroke-width="1" fill="none" />
<polyline points="149.0,402.5,142.5,399.5,142.5,396.0,137.5,398.0,128.0,402.0,126.0,401.0,124.5,402.5,121.5,394.5,121.0,397.0,122.5,397.0" stroke="yellow" stroke-width="1" fill="none" />
<polyline points="117.0,396.5,124.5,393.0,121.5,400.5,129.5,401.5" stroke="orange" stroke-width="1" fill="none" />
<polyline points="126.0,404.5,126.5,408.0,137.0,406.0,134.0,391.5,140.5,394.0,144.0,385.0,139.0,392.5,141.0,385.0,137.5,373.5,144.5,372.5,147.5,372.5,151.5,368.5,150.5,365.5,145.5,358.5,138.0,351.5,140.5,352.5,147.5,350.0,141.5,348.5,140.0,343.0,139.5,340.5,135.0,336.0,140.0,324.0,136.5,324.0,132.0,314.0,135.5,314.5,132.5,313.5,128.5,307.5,130.5,301.5,129.0,295.0,133.0,292.0,132.5,291.5,141.5,286.5,133.0,280.0,128.0,273.5" stroke="green" stroke-width="1" fill="none" />
<polyline points="125.0,267.5,127.5,275.5,132.5,281.0,130.0,286.5,129.0,288.5,128.0,296.0,127.0,299.0,123.5,294.5,128.5,305.5,116.5,303.0,120.0,312.5,119.5,315.0,118.5,318.5,124.5,322.5,122.5,328.5,118.5,331.5,120.0,335.5,124.0,335.0" stroke="black" stroke-width="1" fill="none" />
<polyline points="119.0,345.0,120.5,337.0" stroke="black" stroke-width="1" fill="none" />
<polyline points="119.0,345.5,122.5,344.5,121.5,357.5,123.0,365.5,119.5,365.5,117.0,369.5,116.5,369.0,115.5,377.5,118.5,385.0,116.0,384.0,116.0,389.0,119.5,398.5" stroke="green" stroke-width="1" fill="none" />
<polyline points="120.0,402.0,123.5,396.0,118.5,389.0,118.0,388.5,127.5,382.5,123.0,382.0,123.0,378.0,119.5,373.5,118.5,368.0,123.5,373.0" stroke="black" stroke-width="1" fill="none" />
<polyline points="126.5,372.0,123.0,383.0,124.5,381.5,130.5,387.0" stroke="orange" stroke-width="1" fill="none" />
<polyline points="120.5,390.0,125.0,388.0,131.0,398.0,128.0,397.0" stroke="green" stroke-width="1" fill="none" />
<polyline points="129.5,392.5,123.5,390.0,131.0,394.0,141.5,390.5,137.0,395.0,140.5,394.0" stroke="yellow" stroke-width="1" fill="none" />
<polyline points="134.0,389.0,129.5,387.0" stroke="green" stroke-width="1" fill="none" />
<polyline points="115.5,403.5,117.0,397.0,119.5,396.5" stroke="yellow" stroke-width="1" fill="none" />
<polyline points="119.0,413.5,118.5,408.0,127.0,408.0,125.0,405.0,126.0,411.0,128.0,415.0,129.5,416.0,133.0,421.0,130.0,425.5" stroke="green" stroke-width="1" fill="none" />
<polyline points="131.5,421.0,127.5,417.0" stroke="green" stroke-width="1" fill="none" />
<polyline points="132.0,414.0,130.5,411.0" stroke="black" stroke-width="1" fill="none" />
<polyline points="148.5,413.5" stroke="green" stroke-width="1" fill="none" />
<polyline points="146.0,405.5,142.0,407.0,142.0,410.0" stroke="orange" stroke-width="1" fill="none" />
<polyline points="" stroke="yellow" stroke-width="1" fill="none" />
<polyline points="154.0,404.0,152.5,394.5,151.0,391.5,151.5,393.5,146.0,393.0" stroke="black" stroke-width="1" fill="none" />
<polyline points="170.5,403.5,171.0,400.5,170.5,406.5,177.0,408.5,178.0,412.0,172.0,418.0,180.0,421.0" stroke="black" stroke-width="1" fill="none" />
<polyline points="174.0,417.0,163.5,417.0,158.0,411.0,159.0,404.5,157.5,402.0,148.0,398.0,145.0,392.5,145.0,389.5,138.5,391.5,139.5,388.0,136.0,382.0,143.0,389.5,148.0,384.5,131.0,376.0,136.0,377.0,136.0,369.0,139.0,359.0,138.5,364.0,138.5,357.0,146.0,352.5,139.5,357.0,134.0,344.0,132.5,340.0,131.0,336.5,127.0,336.0,138.5,332.0,134.0,321.5" stroke="green" stroke-width="1" fill="none" />
<polyline points="118.5,326.5,124.5,334.5,124.5,336.0,121.0,342.0" stroke="orange" stroke-width="1" fill="none" />
<polyline points="118.5,350.5,123.0,356.5,124.0,356.5,122.5,366.5,123.5,368.5,122.5,371.0,125.5,379.0,129.0,379.0,129.5,381.0,132.5,386.0,136.5,383.5,134.5,395.0,134.5,394.0" stroke="yellow" stroke-width="1" fill="none" />
<polyline points="" stroke="orange" stroke-width="1" fill="none" />
<polyline points="" stroke="orange" stroke-width="1" fill="none" />
<polyline points="138.5,362.0,132.0,353.0,133.5,353.5,132.5,358.0" stroke="black" stroke-width="1" fill="none" />
<polyline points="136.5,355.0,132.0,354.5" stroke="yellow" stroke-width="1" fill="none" />
<polyline points="131.0,352.0,132.0,353.5,128.5,360.0,140.5,366.0,135.0,370.5,132.5,368.5" stroke="yellow" stroke-width="1" fill="none" />
<polyline points="143.0,362.0,145.5,358.0,143.5,354.5,142.0,347.5,142.5,348.5,134.0,344.0,136.0,339.5,135.5,329.0,132.5,336.0,126.0,329.5" stroke="orange" stroke-width="1" fill="none" />
<polyline points="133.5,342.5,132.0,338.5,144.5,344.5,138.0,346.0,138.5,348.0" stroke="green" stroke-width="1" fill="none" />
<polyline points="145.0,338.5" stroke="black" stroke-width="1" fill="none" />
<polyline points="131.0,346.0,134.5,347.0,135.5,352.5,138.5,347.5" stroke="green" stroke-width="1" fill="none" />
<polyline points="129.0,342.0,131.0,337.5" stroke="orange" stroke-width="1" fill="none" />
<polyline points="115.0,349.5,122.5,345.0,116.5,354.0,114.0,354.0,117.5,364.0,117.0,365.0,115.0,370.5,114.0,372.5,119.0,376.5,119.5,380.0,119.5,389.5,115.5,392.5,119.0,397.5,118.0,406.0,121.5,397.5,115.5,408.0,115.0,412.0,110.5,413.5,115.5,413.0,117.5,410.5" stroke="orange" stroke-width="1" fill="none" />
<polyline points="119.0,412.5,119.0,411.5,120.0,408.5" stroke="green" stroke-width="1" fill="none" />
<polyline points="123.5,424.5,123.0,421.5" stroke="black" stroke-width="1" fill="none" />
<polyline points="136.5,424.0,129.5,427.0" stroke="yellow" stroke-width="1" fill="none" />
<polyline points="120.5,415.0" stroke="black" stroke-width="1" fill="none" />
<polyline points="116.5,434.0,111.0,433.0,119.5,436.0,119.0,443.0,123.0,444.0,121.5,440.5" stroke="yellow" stroke-width="1" fill="none" />
<polyline points="116.5,443.0,124.5,445.0" stroke="black" stroke-width="1" fill="none" />
<polyline points="116.0,455.5" stroke="orange" stroke-width="1" fill="none" />
<polyline points="126.5,450.5,128.0,451.0" stroke="orange" stroke-width="1" fill="none" />
<polyline points="106.5,447.0,110.5,441.0,105.0,438.5" stroke="yellow" stroke-width="1" fill="none" />
<polyline points="100.5,435.5,100.5,434.5" stroke="orange" stroke-width="1" fill="none" />
<polyline points="87.0,457.5,96.5,458.5,89.5,451.5,86.0,455.0,93.5,456.0,100.0,448.5,91.0,453.0,92.5,453.5" stroke="yellow" stroke-width="1" fill="none" />
<polyline points="82.0,460.5,85.5,460.0,97.0,453.5,95.0,452.0" stroke="orange" stroke-width="1" fill="none" />
<polyline points="100.0,461.0,89.5,464.5" stroke="yellow" stroke-width="1" fill="none" />
<polyline points="102.0,494.0,100.5,495.5,99.0,502.5,102.5,507.0,108.5,510.0,102.5,509.5,101.0,507.0,101.5,504.5" stroke="black" stroke-width="1" fill="none" />
<polyline points="107.0,510.5,116.0,509.0,111.0,500.0,111.5,492.0,110.0,487.5,112.5,485.0" stroke="orange" stroke-width="1" fill="none" />
<polyline points="114.0,492.5,121.5,487.5,112.0,498.0,114.5,496.5,111.0,503.5,117.0,511.0,113.0,514.0,111.5,513.0" stroke="green" stroke-width="1" fill="none" />
<polyline points="98.0,504.0" stroke="orange" stroke-width="1" fill="none" />
<polyline points="104.0,493.5,96.5,494.0,97.5,505.0,105.0,508.0,107.0,509.5,108.5,515.5,108.5,513.0" stroke="yellow" stroke-width="1" fill="none" />
<polyline points="122.0,510.0,117.0,501.5,118.0,504.5,121.0,501.5,123.5,490.0,118.5,494.0,121.5,485.5,120.5,479.0,122.0,478.5" stroke="orange" stroke-width="1" fill="none" />
<polyline points="123.0,484.0,123.0,489.0,128.5,489.5,129.0,492.5,130.0,497.0,127.5,507.5" stroke="orange" stroke-width="1" fill="none" />
<polyline points="149.5,446.5,153.5,451.0,153.0,448.0,147.5,446.0,148.0,434.5,137.5,429.5,134.0,422.5,128.5,426.5,128.0,423.0" stroke="black" stroke-width="1" fill="none" />
<polyline points="135.5,424.5,136.0,424.0,128.0,426.0,136.5,434.0,142.5,434.5,142.5,441.5,147.5,445.0,145.0,450.5,141.0,454.0,138.0,459.0,134.5,458.5,130.0,470.0,137.0,459.0,137.0,460.0,138.5,460.5" stroke="green" stroke-width="1" fill="none" />
<polyline points="141.0,437.5,141.5,430.0,137.5,426.0" stroke="orange" stroke-width="1" fill="none" />
<polyline points="121.5,425.5,123.5,421.0,124.0,414.5,123.5,415.0" stroke="black" stroke-width="1" fill="none" />
<polyline points="113.0,417.0,106.0,420.5,116.5,431.5,112.0,428.0" stroke="yellow" stroke-width="1" fill="none" />
<polyline points="119.5,430.0,121.0,431.5" stroke="black" stroke-width="1" fill="none" />
<polyline points="104.5,415.0,109.5,425.0,107.5,426.0,109.5,432.5,108.0,436.0,109.5,439.5,105.5,446.5" stroke="black" stroke-width="1" fill="none" />
<polyline points="100.0,432.0,103.0,435.0,96.5,444.5,92.0,442.0,87.5,441.5,96.5,442.0,101.5,440.0,104.0,437.0,102.5,431.0,104.0,424.5,113.5,423.0" stroke="black" stroke-width="1" fill="none" />
<polyline points="95.0,417.5,83.5,418.5,88.5,425.0,93.0,424.0,92.0,428.5,95.5,426.0,93.0,425.5,91.5,423.5" stroke="black" stroke-width="1" fill="none" />
<polyline points="85.0,423.0,87.5,421.0,87.5,422.0,96.0,425.0,82.5,421.5,87.0,420.5,88.0,419.0,93.5,425.0" stroke="black" stroke-width="1" fill="none" />
<polyline points="92.0,403.5,95.0,406.0,97.5,402.5" stroke="green" stroke-width="1" fill="none" />
<polyline points="" stroke="black" stroke-width="1" fill="none" />
<polyline points="96.0,392.0,87.0,397.0,100.0,395.0,96.0,400.5,91.0,409.0,90.5,407.0" stroke="black" stroke-width="1" fill="none" />
<polyline points="96.5,406.5,95.0,409.5,93.5,406.0,95.5,406.0,95.5,404.0,95.0,407.5,93.0,404.0,92.5,396.5,90.0,393.5,85.5,383.5,82.0,386.0,85.0,388.0" stroke="yellow" stroke-width="1" fill="none" />
<polyline points="82.0,386.5,84.0,392.5,72.5,399.5,71.0,401.5,70.5,401.0,76.5,406.5,69.5,420.0,68.5,417.0,67.5,417.0,67.0,423.0,65.5,425.5,67.5,427.5,75.0,428.0,69.0,435.0,72.5,434.0,66.5,437.5,66.5,447.0,73.5,446.5,70.0,448.0,70.5,451.0,68.5,459.5,71.0,463.0,77.5,464.0,72.0,468.0,62.5,478.5,68.0,477.5,63.0,478.5,63.5,488.5,66.5,491.0,60.0,499.5,67.5,501.5,63.0,503.5,64.5,503.0,63.5,511.5,58.0,516.5,65.5,506.0,61.0,506.5" stroke="black" stroke-width="1" fill="none" />
<polyline points="62.0,503.0,65.5,509.5,65.5,516.5" stroke="orange" stroke-width="1" fill="none" />
<polyline points="71.0,486.0,71.0,481.5,67.5,473.0,70.0,477.5" stroke="green" stroke-width="1" fill="none" />
<polyline points="68.0,475.0,70.5,475.5,63.5,481.0,66.5,480.5,66.0,483.0,67.5,485.0,67.5,488.0,67.0,494.0" stroke="orange" stroke-width="1" fill="none" />
<polyline points="71.5,463.0,69.5,464.5,76.5,456.0,81.5,453.5,79.5,453.0" stroke="orange" stroke-width="1" fill="none" />
<polyline points="73.0,460.5,68.5,461.0,78.0,471.5,76.5,469.0" stroke="black" stroke-width="1" fill="none" />
<polyline points="73.5,451.5" stroke="black" stroke-width="1" fill="none" />
<polyline points="63.5,452.0,63.5,464.5,68.0,459.5,63.5,466.5,65.5,465.5,68.0,473.0,73.0,476.0,75.0,477.0" stroke="yellow" stroke-width="1" fill="none" />
<polyline points="33.5,490.5,34.0,489.5,26.5,494.0,30.0,500.5,30.0,502.5" stroke="orange" stroke-width="1" fill="none" />
<polyline points="18.5,506.0,15.5,498.5,18.5,502.5,16.5,506.0,15.0,507.5" stroke="green" stroke-width="1" fill="none" />
<polyline points="13.0,495.5" stroke="black" stroke-width="1" fill="none" />
<polyline points="" stroke="black" stroke-width="1" fill="none" />
<polyline points="13.5,419.0,6.0,423.5,10.0,422.0,5.0,430.0,9.0,430.5,11.5,436.0,12.5,445.0,7.5,444.5,16.0,444.0,12.0,448.0,17.5,453.5,13.5,455.5,12.0,463.5,14.5,463.0,16.0,474.0,16.5,472.5,14.0,480.0,12.5,478.5,11.5,480.0" stroke="orange" stroke-width="1" fill="none" />
<polyline points="43.5,468.5,36.0,457.0,33.0,453.0,35.0,453.5,32.5,447.5,35.5,440.5,34.5,433.5" stroke="yellow" stroke-width="1" fill="none" />
<polyline points="25.5,417.5,25.5,418.0,27.0,416.0" stroke="orange" stroke-width="1" fill="none" />
<polyline points="25.0,413.0,24.5,418.5,27.5,415.5,24.0,427.0,24.0,426.5,24.0,437.5,33.0,442.0,22.0,440.0,29.0,443.0,28.5,447.5,28.5,451.5,21.5,453.5,27.0,464.0,27.5,460.5,28.0,467.0,30.5,474.0,31.5,476.0,25.5,478.0,32.0,486.5,26.5,488.0,27.0,493.5,36.0,496.0,33.5,503.0" stroke="orange" stroke-width="1" fill="none" />
<polyline points="59.5,433.5,65.0,433.0,71.0,439.5,72.0,436.5" stroke="orange" stroke-width="1" fill="none" />
<polyline points="69.5,425.0,71.5,422.0,65.5,424.0,68.0,424.0,68.5,416.5,69.5,412.5,66.0,404.5,67.5,400.5,79.0,398.0,73.0,399.5,77.0,395.0,70.0,400.5,74.0,396.5" stroke="yellow" stroke-width="1" fill="none" />
<polyline points="70.0,410.5,74.5,403.5,78.5,399.5" stroke="yellow" stroke-width="1" fill="none" />
<polyline points="" stroke="yellow" stroke-width="1" fill="none" />
<polyline points="67.5,410.5,70.0,415.0,74.0,402.0,69.0,408.5,70.0,417.5,64.0,420.0,63.5,423.5,64.0,423.0" stroke="yellow" stroke-width="1" fill="none" />
<polyline points="72.0,417.0,75.0,422.0,75.0,425.0" stroke="green" stroke-width="1" fill="none" />
<polyline points="98.5,444.0,98.0,441.5,101.5,436.5,99.5,437.5,96.5,443.0,99.0,443.5" stroke="black" stroke-width="1" fill="none" />
<polyline points="110.5,400.5,109.0,402.0" stroke="black" stroke-width="1" fill="none" />
<polyline points="106.5,399.0,108.0,399.0,110.5,408.0,107.5,408.5,99.0,414.5,94.5,414.0,94.5,417.0" stroke="orange" stroke-width="1" fill="none" />
<polyline points="97.5,407.5,101.5,400.0,106.5,403.0,103.0,397.0" stroke="yellow" stroke-width="1" fill="none" />
<polyline points="98.5,371.5,102.5,370.0,108.5,378.0,104.0,366.5,101.5,363.0,105.0,362.5,109.0,359.5,109.0,355.0,109.0,358.0,109.0,351.0,107.5,342.5,106.0,334.5,105.5,335.5,105.5,331.0" stroke="black" stroke-width="1" fill="none" />
<polyline points="105.0,337.5,104.0,330.5,102.0,335.5" stroke="green" stroke-width="1" fill="none" />
<polyline points="" stroke="green" stroke-width="1" fill="none" />
<polyline points="101.5,318.0,104.0,326.0,108.5,310.5,119.5,312.5,122.0,308.0,122.5,307.5,126.0,313.0,113.5,314.5,109.5,327.0,104.5,313.0,105.5,308.5,113.0,310.0,115.5,320.0,104.5,318.5,104.5,320.0,111.0,318.0,115.0,309.0,116.5,303.5,114.0,299.5,118.5,302.5" stroke="orange" stroke-width="1" fill="none" />
<polyline points="118.5,308.5,121.5,313.0,118.5,320.0,113.0,320.0,116.5,319.5,109.0,329.0,104.0,332.5,100.5,339.5,96.5,341.5,100.0,342.0,97.5,341.5,100.5,341.5" stroke="black" stroke-width="1" fill="none" />
<polyline points="" stroke="green" stroke-width="1" fill="none" />
<polyline points="94.5,362.5,95.0,363.5,94.0,366.5,92.0,374.5,94.0,376.5,89.5,381.0,92.0,390.5,84.5,392.5,90.5,391.5,87.5,389.0,88.0,399.0,92.5,404.0,90.0,409.5,90.5,409.5,90.5,414.0,104.0,409.5,107.0,416.5,107.5,406.0,116.5,401.5" stroke="yellow" stroke-width="1" fill="none" />
<polyline points="120.5,366.0,121.5,362.0" stroke="black" stroke-width="1" fill="none" />
<polyline points="120.5,371.0,124.0,371.5,130.5,384.5,130.0,385.0,132.0,383.5,126.0,387.0,135.5,394.5,133.5,394.5,132.5,394.0" stroke="black" stroke-width="1" fill="none" />
<polyline points="123.0,369.5,118.0,362.0,119.5,361.0" stroke="black" stroke-width="1" fill="none" />
<polyline points="126.0,372.5,119.0,372.0,130.5,375.5,130.5,378.5" stroke="yellow" stroke-width="1" fill="none" />
<polyline points="124.0,362.5,125.0,360.5" stroke="orange" stroke-width="1" fill="none" />
<polyline points="119.5,361.5,130.0,359.0,130.0,366.5,131.0,365.0" stroke="yellow" stroke-width="1" fill="none" />
<polyline points="169.0,364.0,175.0,355.5,178.5,354.0,181.0,345.0,182.0,343.0" stroke="yellow" stroke-width="1" fill="none" />
<polyline points="183.0,326.5,184.5,332.5,176.5,338.0,171.5,340.5,166.0,347.0,168.5,352.0,160.0,359.0,157.5,369.5,160.5,361.5,164.5,367.5,165.0,354.0,174.0,353.5,176.0,348.0,176.5,343.5,178.0,337.0,187.5,339.5,187.0,332.5,187.0,334.5,192.0,327.0,190.5,333.0,191.5,332.0" stroke="green" stroke-width="1" fill="none" />
<polyline points="191.5,340.0,187.5,347.5,188.0,347.5" stroke="yellow" stroke-width="1" fill="none" />
<polyline points="195.0,356.0,194.0,348.5,194.5,348.5,195.0,345.5" stroke="black" stroke-width="1" fill="none" />
<polyline points="167.0,359.5,162.0,366.5,164.0,359.5,167.5,361.5" stroke="black" stroke-width="1" fill="none" />
<polyline points="163.5,364.5,163.0,365.0,164.5,360.5,164.5,362.5,157.5,370.5,156.0,367.0,161.5,361.5,164.5,351.5,166.5,354.0,171.5,345.5,177.0,342.5,180.0,339.5,178.0,335.5,183.5,332.5,174.5,330.0,171.5,332.5,170.0,336.0,165.0,341.0,165.5,339.5,162.0,333.0,167.0,330.5,168.5,331.0" stroke="black" stroke-width="1" fill="none" />
<polyline points="165.5,335.5,163.5,331.5,165.5,337.0,164.5,330.0,165.0,327.5,167.5,322.0,167.0,318.0,167.0,317.0" stroke="yellow" stroke-width="1" fill="none" />
<polyline points="" stroke="orange" stroke-width="1" fill="none" />
<polyline points="174.0,315.0,166.5,318.5,168.5,329.0,167.0,319.5,165.0,324.0,157.5,328.0,152.5,339.0,152.5,344.0,154.0,335.5,139.5,348.5,143.5,335.0,143.5,336.0,135.0,339.0,131.0,326.5,137.5,325.0,134.5,321.5,134.5,315.0,127.0,306.5,132.5,313.0,131.0,303.5,131.0,304.5,135.0,300.5,131.5,297.0,139.0,292.0,139.5,295.0,138.5,283.5,136.0,279.5,135.5,278.0,132.0,279.0,140.0,284.0,140.5,277.5,146.0,275.0,143.0,271.0,142.0,272.5,152.5,264.5,156.0,252.5,158.0,253.5,163.5,250.0,160.5,244.0,161.0,242.0,152.0,248.5" stroke="green" stroke-width="1" fill="none" />
<polyline points="142.5,247.5,147.0,249.0" stroke="orange" stroke-width="1" fill="none" />
<polyline points="144.5,254.5,142.5,252.0,146.0,249.5,143.0,251.5,142.0,250.0,149.0,257.0,146.5,257.5" stroke="yellow" stroke-width="1" fill="none" />
<polyline points="143.5,269.0,138.5,270.5,137.0,278.5,137.0,274.0,134.5,276.5" stroke="black" stroke-width="1" fill="none" />
<polyline points="150.5,271.5,146.5,273.5,153.0,266.5,156.5,259.5,158.5,257.0,156.5,260.5,159.0,261.0,153.0,267.5,149.5,271.0,147.0,274.5,147.0,275.0,146.5,286.5,148.0,285.5,154.0,287.5,156.5,288.5,163.5,292.5,166.0,302.5,160.5,303.5,159.0,306.5,164.0,312.0,163.0,316.5,158.5,317.5,155.0,317.5,163.0,317.5,166.5,314.5,169.0,315.5,167.0,309.0,174.5,306.0,171.0,298.0,183.0,288.0,181.0,294.0" stroke="green" stroke-width="1" fill="none" />
<polyline points="182.5,298.5" stroke="green" stroke-width="1" fill="none" />
<polyline points="181.5,309.0" stroke="green" stroke-width="1" fill="none" />
<polyline points="177.5,300.5,171.0,302.0,176.0,302.5,180.0,305.0,179.0,315.0,176.0,314.5" stroke="black" stroke-width="1" fill="none" />
<polyline points="164.5,313.5,169.5,317.5,176.0,311.5,173.0,311.0,172.5,312.0" stroke="black" stroke-width="1" fill="none" />
<polyline points="166.5,305.0,165.5,299.0,172.0,297.5,176.0,294.5,170.5,288.0,166.5,286.5,173.5,296.5,165.5,299.0,165.5,288.0,169.0,284.0,176.5,283.5,174.5,280.0,177.5,284.5,166.5,281.0,163.5,285.0,163.0,294.0,165.5,287.0,169.5,294.0,164.0,277.0,169.0,280.0,163.5,273.5,165.5,271.0,163.0,265.5,170.0,264.0,168.5,262.5,168.0,259.5,173.5,257.0,178.5,245.5,175.5,245.0,175.5,237.0,175.0,238.0,178.5,234.5,175.0,240.0" stroke="yellow" stroke-width="1" fill="none" />
<polyline points="178.0,234.0,184.5,235.5,178.0,245.0,175.0,246.0,176.5,247.5,173.5,250.5,176.0,254.0,183.5,259.5,185.0,263.0" stroke="black" stroke-width="1" fill="none" />
<polyline points="172.5,247.0,184.0,247.0,191.5,254.0,186.0,256.0" stroke="yellow" stroke-width="1" fill="none" />
<polyline points="224.0,271.5,222.5,271.5,222.0,274.5,230.5,272.0" stroke="yellow" stroke-width="1" fill="none" />
<polyline points="217.0,321.0,215.0,317.5,220.0,322.5,216.0,331.5,216.0,326.0,217.5,330.5,216.5,333.5,225.5,343.5,218.5,349.0,218.5,342.5,217.0,360.5,220.0,348.0" stroke="black" stroke-width="1" fill="none" />
<polyline points="247.5,378.5,253.0,379.5,253.5,383.5,253.0,377.5,253.5,388.0,263.0,382.5,265.0,385.0,264.0,382.5" stroke="black" stroke-width="1" fill="none" />
<polyline points="264.0,386.5,263.0,386.0,255.0,390.0,252.5,392.5,253.5,388.0,244.5,395.0,242.5,396.0,241.5,389.0,240.5,392.0" stroke="green" stroke-width="1" fill="none" />
<polyline points="271.0,350.0,274.0,356.5" stroke="black" stroke-width="1" fill="none" />
<polyline points="276.0,349.0,276.0,351.5,276.0,349.0,277.5,350.0" stroke="black" stroke-width="1" fill="none" />
<polyline points="219.0,371.5,222.0,364.5,222.0,361.5,219.0,356.5,218.0,347.0,221.5,352.5,219.0,341.5,222.5,339.0,220.5,334.0,220.5,327.0,226.0,322.0,222.5,317.5,216.5,311.0,223.5,318.0,220.5,307.5,221.5,301.0,216.0,313.0,223.0,312.0" stroke="yellow" stroke-width="1" fill="none" />
<polyline points="173.5,291.0" stroke="orange" stroke-width="1" fill="none" />
<polyline points="169.0,295.5,176.5,298.0,178.5,303.0,175.5,306.5,169.0,314.0" stroke="green" stroke-width="1" fill="none" />
<polyline points="160.5,308.5,162.0,309.0,158.0,309.5,155.5,310.5" stroke="yellow" stroke-width="1" fill="none" />
<polyline points="161.0,313.5,163.0,312.5" stroke="black" stroke-width="1" fill="none" />
<polyline points="160.5,316.0,161.0,315.0" stroke="green" stroke-width="1" fill="none" />
<polyline points="155.5,296.5" stroke="yellow" stroke-width="1" fill="none" />
<polyline points="156.0,297.5,159.0,300.5" stroke="yellow" stroke-width="1" fill="none" />
<polyline points="162.5,293.0,163.0,293.0,156.5,287.5,153.0,280.5" stroke="black" stroke-width="1" fill="none" />
<polyline points="152.0,278.5,154.0,286.5,156.0,287.5,155.5,288.0" stroke="yellow" stroke-width="1" fill="none" />
<polyline points="171.5,296.0,178.0,293.0,174.5,293.0" stroke="yellow" stroke-width="1" fill="none" />
<polyline points="178.5,298.5,177.5,299.5,177.0,307.5,168.5,311.5,167.5,306.5,165.5,308.5" stroke="black" stroke-width="1" fill="none" />
<polyline points="153.5,291.5,153.0,291.0,153.0,291.0,153.0,287.0" stroke="black" stroke-width="1" fill="none" />
<polyline points="158.5,294.5,157.5,296.0,167.5,297.5,171.0,290.5,167.0,290.5" stroke="black" stroke-width="1" fill="none" />
<polyline points="170.5,283.0,175.0,295.5,170.5,299.0,169.5,306.0,163.5,308.5,164.5,312.5,168.0,313.0,160.5,316.0,169.5,314.0,166.0,317.5,164.0,330.5,162.5,334.0,155.0,332.5,159.0,339.0,156.5,338.5,152.0,349.0,145.5,351.5,149.5,356.0,147.0,353.0,146.5,348.0,145.5,348.5,154.0,350.0,160.5,353.5,159.5,344.0" stroke="yellow" stroke-width="1" fill="none" />
<polyline points="155.0,292.5" stroke="black" stroke-width="1" fill="none" />
<polyline points="157.5,287.5,161.5,289.5,161.5,279.0,166.0,274.5,166.0,275.0,161.0,267.0,157.0,267.5,163.5,260.0,160.0,255.0,159.5,259.5" stroke="orange" stroke-width="1" fill="none" />
<polyline points="165.5,261.0,170.0,259.0,168.0,266.5,165.0,274.5,168.0,282.5,166.5,276.5" stroke="green" stroke-width="1" fill="none" />
<polyline points="163.0,282.5" stroke="yellow" stroke-width="1" fill="none" />
<polyline points="151.5,281.5,154.0,277.5,150.5,276.0,156.5,280.5,157.5,282.5,160.5,288.0,164.0,282.5,173.5,287.0,167.0,290.0,177.5,286.0,174.5,287.5,176.0,285.0,172.5,286.0" stroke="black" stroke-width="1" fill="none" />
<polyline points="174.5,292.5,166.0,293.0,166.0,289.5,166.0,288.5" stroke="green" stroke-width="1" fill="none" />
<polyline points="163.0,289.0,163.0,281.5,160.5,293.5,163.5,288.0,162.0,288.5,161.5,289.5" stroke="orange" stroke-width="1" fill="none" />
<polyline points="162.0,299.5,157.0,294.5,149.5,296.5,150.0,288.5,151.0,280.0,148.5,275.5,150.0,272.0,150.5,270.0,157.5,266.0,164.0,265.5,162.0,255.5,163.5,258.5,167.0,250.0,165.0,247.5,165.5,242.0,164.0,237.0,164.5,248.5,157.0,258.0,151.0,260.0,150.0,260.0,144.5,261.0,142.5,256.0,136.0,268.5,131.0,266.5,135.5,265.0,128.5,256.0,130.0,269.5,126.5,273.0,134.5,264.0,130.0,255.0,134.5,258.0,125.0,252.0,128.5,246.5,136.5,242.5,134.0,245.0,139.5,237.5,137.5,232.5,137.0,233.0,135.0,224.0,127.5,225.0,133.0,219.5,132.5,215.5,128.0,210.5,128.5,205.0,121.5,203.0,126.0,202.0,117.0,198.0,123.5,190.5,122.0,183.0,120.0,180.5,117.0,179.5,120.5,172.5,118.5,166.5,119.5,163.0,121.0,163.0,116.5,150.0,118.5,146.5,119.5,144.0,125.0,144.5,125.5,140.0,122.0,134.0,122.5,132.0,129.0,132.5,127.5,126.0,129.5,122.0,131.0,118.0,130.5,114.0,134.5,111.0,135.5,106.0,137.5,106.5,136.0,105.0,141.5,97.0,134.5,102.5,134.5,103.5,133.5,100.5" stroke="green" stroke-width="1" fill="none" />
<polyline points="124.0,126.0,133.0,109.0,137.0,101.5,136.5,108.5,138.5,111.5,136.5,118.0,131.5,123.5,126.5,122.0,134.5,131.0,134.0,134.5,129.0,138.5,131.5,140.0,133.0,145.5,133.0,145.5,126.5,148.0,127.5,150.0,127.0,150.5,128.5,158.0,126.0,158.0" stroke="yellow" stroke-width="1" fill="none" />
<polyline points="126.5,152.5,135.0,152.0,134.0,157.0,130.5,157.0,131.0,162.0,128.5,167.5,126.5,170.5,131.5,165.5,126.5,163.5,130.5,166.5" stroke="green" stroke-width="1" fill="none" />
<polyline points="137.0,177.5,137.5,181.0,128.5,178.0,135.0,175.0" stroke="black" stroke-width="1" fill="none" />
<polyline points="134.5,173.5,133.0,173.0,130.5,179.5,142.5,173.0,134.0,169.0,136.0,168.0,131.5,169.0" stroke="black" stroke-width="1" fill="none" />
<polyline points="141.5,171.0,142.0,175.0,136.5,180.5" stroke="black" stroke-width="1" fill="none" />
<polyline points="139.5,177.0,139.0,185.5,133.0,180.0,140.0,176.0,139.0,176.0,141.5,173.5,143.0,173.5" stroke="black" stroke-width="1" fill="none" />
<polyline points="151.0,168.5,148.0,175.0,142.5,178.0,145.0,180.0,139.5,188.0,135.5,188.0,140.0,196.5,138.0,194.0,140.0,197.5,143.0,194.5,145.5,194.5,145.5,202.0" stroke="orange" stroke-width="1" fill="none" />
<polyline points="146.0,191.5,148.5,195.0" stroke="black" stroke-width="1" fill="none" />
<polyline points="150.0,193.0,147.5,190.5" stroke="green" stroke-width="1" fill="none" />
<polyline points="144.0,198.0,149.5,200.5,136.5,199.0" stroke="green" stroke-width="1" fill="none" />
<polyline points="153.5,199.0,149.5,195.5,145.0,195.0,147.0,191.5,143.5,185.0,140.5,191.0,145.5,178.5,144.0,181.0,145.5,172.0" stroke="orange" stroke-width="1" fill="none" />
<polyline points="136.5,178.5,144.5,181.0,146.5,190.0,152.0,185.5,146.0,190.0,144.0,184.0" stroke="orange" stroke-width="1" fill="none" />
<polyline points="151.0,188.5" stroke="green" stroke-width="1" fill="none" />
<polyline points="155.0,192.0,162.0,180.0,163.5,182.0,172.0,182.5,175.0,172.0,175.0,167.0,179.5,168.5,180.0,157.5,186.5,160.5,190.0,154.0,195.5,153.5,198.0,147.5,195.5,148.5" stroke="black" stroke-width="1" fill="none" />
<polyline points="207.0,150.0,203.0,148.0,215.5,154.5,219.0,162.5" stroke="green" stroke-width="1" fill="none" />
<polyline points="225.5,155.5,223.0,156.5,229.0,154.0,223.5,156.0,223.0,155.0,221.5,157.5,218.0,156.0" stroke="orange" stroke-width="1" fill="none" />
<polyline points="219.0,146.5,217.5,147.5,221.0,155.5,228.5,161.0,230.0,158.5" stroke="yellow" stroke-width="1" fill="none" />
<polyline points="221.5,174.5,225.5,169.5,222.5,173.0,217.5,183.0,216.0,186.5,213.0,190.0,206.5,190.5" stroke="green" stroke-width="1" fill="none" />
<polyline points="213.5,187.0,214.5,185.0,211.5,188.5,218.0,176.5,220.0,174.0,228.0,178.0,234.5,174.5,235.5,174.0,239.0,171.0,242.5,172.5,239.5,174.0,237.0,177.5,237.5,177.0,232.5,177.0" stroke="black" stroke-width="1" fill="none" />
<polyline points="231.5,182.0,229.5,183.0,229.0,180.0,226.5,189.5,221.0,195.5,217.0,197.5,214.0,205.0,203.5,206.0,202.5,210.0,202.0,212.0,203.5,216.5,200.5,222.0,203.0,228.5,210.0,227.0,209.5,228.5,212.0,228.5" stroke="orange" stroke-width="1" fill="none" />
<polyline points="204.0,208.0,205.5,206.5,211.0,204.0,212.5,197.0,218.5,193.5,218.5,197.0,228.5,188.0,229.0,182.5,234.0,184.0" stroke="black" stroke-width="1" fill="none" />
<polyline points="222.5,191.5,214.0,199.0,216.5,202.0,212.0,205.5,208.0,207.0,207.5,214.0,207.5,200.5,214.5,198.0,218.5,199.0,223.5,196.5,227.0,197.5,230.5,189.5,228.5,193.0,228.0,193.0" stroke="yellow" stroke-width="1" fill="none" />
<polyline points="221.0,185.5,218.5,189.5,214.5,192.5,219.5,193.5" stroke="black" stroke-width="1" fill="none" />
<polyline points="222.5,184.5,216.5,178.0,219.5,183.0" stroke="yellow" stroke-width="1" fill="none" />
<polyline points="227.0,179.5,223.0,181.0,223.0,184.5,220.0,194.0,219.0,194.0,208.5,196.0,206.0,199.5" stroke="orange" stroke-width="1" fill="none" />
<polyline points="206.5,199.5" stroke="green" stroke-width="1" fill="none" />
<polyline points="" stroke="green" stroke-width="1" fill="none" />
<polyline points="204.0,201.5,200.5,204.5,192.5,202.0,190.0,200.0,186.0,204.5,192.0,206.0,187.0,200.0,180.0,209.5,181.5,204.5,186.0,198.0,189.0,193.0" stroke="black" stroke-width="1" fill="none" />
<polyline points="181.0,205.0,185.5,207.0,195.0,209.0,202.5,204.0" stroke="black" stroke-width="1" fill="none" />
<polyline points="189.0,203.5,194.5,212.0,194.5,210.0,191.0,216.5,182.0,223.0,185.5,225.5,190.0,216.5,190.0,212.5,185.5,213.5" stroke="orange" stroke-width="1" fill="none" />
<polyline points="" stroke="black" stroke-width="1" fill="none" />
<polyline points="178.0,226.5,180.5,215.0,177.0,217.5,184.5,216.0" stroke="black" stroke-width="1" fill="none" />
<polyline points="170.5,213.5,170.5,214.0,167.5,218.0,176.0,214.0,172.5,215.0" stroke="green" stroke-width="1" fill="none" />
<polyline points="169.0,221.0,164.0,225.0,174.0,228.5,169.0,233.5,176.0,225.5" stroke="orange" stroke-width="1" fill="none" />
<polyline points="178.5,225.5,179.0,234.5,166.0,233.5,162.5,238.0,171.0,235.5,164.0,237.0,163.5,238.0,165.5,239.0" stroke="green" stroke-width="1" fill="none" />
<polyline points="169.0,238.5,174.0,243.0,163.0,247.0,168.0,250.0,167.0,248.0,167.0,248.0" stroke="green" stroke-width="1" fill="none" />
<polyline points="159.0,258.0,152.5,260.0,151.5,260.5,149.5,268.0,136.5,262.5,133.5,271.5,132.5,277.5,129.0,275.0,127.0,275.5,118.0,274.0,114.5,260.0,119.0,261.0,113.0,263.5,117.5,260.0" stroke="yellow" stroke-width="1" fill="none" />
<polyline points="112.5,269.5,118.5,270.0,112.0,263.5,116.0,268.5" stroke="green" stroke-width="1" fill="none" />
<polyline points="113.0,275.5,114.5,269.0,115.5,278.0,119.5,280.0,108.5,286.0,107.0,287.5,108.5,299.0,103.5,297.5,96.5,302.5,89.5,307.0,97.0,311.0,92.0,313.0,85.0,323.0,84.5,326.0,85.5,336.0,87.0,339.0,91.0,338.0,80.0,342.5,87.5,353.0,84.5,346.5,77.0,354.5,71.5,357.5,71.5,357.5,63.5,357.0,72.5,360.5,70.5,354.0,79.0,346.5,73.0,343.5,86.5,330.0,85.5,333.0,94.5,328.0" stroke="green" stroke-width="1" fill="none" />
<polyline points="91.5,326.5,100.0,328.5,96.0,325.0,91.5,330.5,86.0,330.5,89.5,339.0,82.0,342.0,79.0,344.0,77.5,346.5,73.0,348.5,67.0,357.5,63.5,362.0,59.5,360.5,60.5,366.0,67.5,364.0,70.0,357.5,74.5,346.5,79.0,345.0,82.5,340.5,87.5,335.5,87.5,346.5,94.0,345.5,87.0,345.5,87.0,352.5,87.0,357.0,84.0,360.0,83.5,368.5,80.5,366.0,81.0,370.0,90.0,373.5,81.5,371.5,90.0,358.0,95.0,354.0,97.5,345.5" stroke="yellow" stroke-width="1" fill="none" />
<polyline points="105.0,347.0,105.5,361.5,102.0,361.0,100.5,368.0,102.5,369.0,100.0,376.5,103.0,376.0,102.0,378.0,101.5,377.0" stroke="orange" stroke-width="1" fill="none" />
<polyline points="111.5,363.5,109.5,360.5,110.0,361.0,107.5,360.5" stroke="yellow" stroke-width="1" fill="none" />
<polyline points="108.0,360.0,110.5,363.5,111.5,362.0,107.5,360.0,115.5,368.5,117.0,366.5" stroke="green" stroke-width="1" fill="none" />
<polyline points="114.5,361.5,109.5,360.0,117.5,360.5" stroke="orange" stroke-width="1" fill="none" />
<polyline points="125.0,359.0,125.0,360.5,126.5,360.5,133.0,359.5,134.5,366.5,133.0,371.5" stroke="green" stroke-width="1" fill="none" />
<polyline points="82.5,354.5,82.0,363.0,76.5,367.5" stroke="black" stroke-width="1" fill="none" />
<polyline points="74.5,366.0,82.0,360.0,83.0,349.0,82.0,348.5,89.0,352.0,80.5,358.0,73.5,357.5,74.0,367.0,75.5,365.5,75.0,377.0,79.5,374.0" stroke="orange" stroke-width="1" fill="none" />
<polyline points="77.0,383.0,81.5,383.5,81.0,384.0,75.5,392.5,70.0,393.0,60.0,390.5,62.0,395.0,56.0,402.0,60.5,403.0,63.5,392.5,73.5,391.0,78.5,383.5,76.5,385.5,76.0,384.0,70.0,382.0,64.5,393.0,67.0,395.5,65.0,394.5,56.5,407.0,67.5,399.0,70.5,396.0,73.5,387.5,81.0,383.5,77.5,383.0,84.0,371.0,90.0,373.5,83.0,365.5,83.0,359.5,88.5,352.5,90.0,357.5,88.0,349.0,91.0,354.5,95.0,350.0,93.0,343.0,96.5,348.0,100.0,343.0,91.0,355.0,97.5,345.0,96.0,339.5,101.5,343.5,96.5,332.0,97.5,330.0,96.5,326.5,98.0,319.0,98.0,320.5,96.0,311.0,100.0,306.5,103.0,302.5,108.0,299.5,105.5,307.0,97.0,311.5,96.0,320.0,96.0,314.5,99.0,312.5" stroke="orange" stroke-width="1" fill="none" />
<polyline points="92.0,311.0,89.0,310.5,88.0,305.5,95.0,306.5,96.0,301.5,113.5,291.5,108.0,295.5,110.5,287.0" stroke="black" stroke-width="1" fill="none" />
<polyline points="92.0,299.5,91.5,307.0,92.5,298.0" stroke="black" stroke-width="1" fill="none" />
<polyline points="108.5,295.5,105.5,299.5,103.0,297.0,88.0,293.5,94.5,298.5,84.0,297.5,81.0,296.5,95.0,298.5,93.0,293.5" stroke="green" stroke-width="1" fill="none" />
<polyline points="76.0,299.0,86.0,296.0,86.5,292.5,91.0,292.5,99.0,298.0,92.0,288.5,102.0,291.5,102.0,291.0,104.5,289.0,106.5,289.0,106.5,288.5" stroke="orange" stroke-width="1" fill="none" />
<polyline points="114.5,288.0,109.0,286.5,107.0,281.5,108.5,276.0,113.0,275.0,114.5,272.5" stroke="black" stroke-width="1" fill="none" />
<polyline points="108.5,259.5,115.0,263.5,112.0,262.0,109.0,268.0,113.0,272.0,109.5,279.0,101.0,274.0,94.5,280.5,99.5,286.0,100.0,279.0,109.0,279.5,104.0,275.5,118.0,290.5,113.5,280.5,123.5,289.0,119.5,290.0" stroke="green" stroke-width="1" fill="none" />
<polyline points="114.5,281.0,116.0,282.5,110.5,281.5,101.0,284.0,99.0,284.5,98.5,286.5,96.0,289.0,90.0,292.0,92.0,292.0" stroke="orange" stroke-width="1" fill="none" />
<polyline points="86.0,274.5,94.0,274.5,95.5,269.0,99.0,263.0,112.0,264.5,100.5,266.0,96.5,272.0,97.0,277.0,89.5,287.5,93.0,280.5,99.0,277.0,105.0,278.0,99.0,280.0,104.5,279.5,109.5,279.0,109.0,282.5,116.0,272.5,120.5,276.5,130.5,271.0,125.5,268.0" stroke="green" stroke-width="1" fill="none" />
<polyline points="130.0,264.0,126.5,265.0,133.0,268.5,125.5,272.0,116.0,273.0,97.0,286.0,97.0,288.0,93.5,301.5,94.5,297.0,88.5,307.0,81.0,311.5,89.5,306.5,85.5,314.0,71.0,323.0,80.0,315.0,79.5,310.0,79.5,310.0,77.5,307.0" stroke="black" stroke-width="1" fill="none" />
<polyline points="108.5,314.0,113.5,305.0,113.0,301.0" stroke="black" stroke-width="1" fill="none" />
<polyline points="127.5,301.0,129.0,311.0,120.0,306.0,119.0,307.5,116.5,309.5,116.5,323.0,109.0,316.5,98.5,326.5,104.0,322.0" stroke="orange" stroke-width="1" fill="none" />
<polyline points="76.5,322.5,70.5,321.5,68.0,322.5,67.5,318.5,78.0,325.5,76.0,310.5,73.0,309.5,76.0,306.5,81.0,305.0" stroke="green" stroke-width="1" fill="none" />
<polyline points="" stroke="black" stroke-width="1" fill="none" />
<polyline points="77.0,308.5,79.5,311.0,78.0,309.5,88.5,305.0,92.0,303.5,95.5,300.0" stroke="orange" stroke-width="1" fill="none" />
<polyline points="94.0,316.5,100.0,324.5,99.5,319.5,102.0,317.0,100.5,313.0,104.5,307.0,101.5,306.5,103.0,305.0" stroke="black" stroke-width="1" fill="none" />
<polyline points="106.0,291.5,108.5,295.0,97.0,293.5,104.0,291.5,101.5,293.5,106.0,293.5" stroke="black" stroke-width="1" fill="none" />
<polyline points="107.5,288.0,104.5,291.5,101.5,290.0,107.5,289.0,106.5,286.0,109.0,285.0" stroke="black" stroke-width="1" fill="none" />
<polyline points="87.5,281.0,87.0,274.0,89.5,276.5,87.5,277.0" stroke="black" stroke-width="1" fill="none" />
<polyline points="117.0,289.5,118.5,293.0,116.5,295.0,115.0,296.0,110.5,304.5,101.5,307.5,100.5,310.0,102.5,319.0,96.0,321.5,104.5,326.0,101.0,331.0,103.0,330.5,96.0,336.5,91.0,342.5,100.5,340.5,103.0,335.5,106.0,332.5,109.0,332.0,116.0,316.0,123.5,304.0,118.0,298.5,124.0,298.0,122.5,304.0,132.0,313.0" stroke="yellow" stroke-width="1" fill="none" />
<polyline points="124.0,320.5,133.5,324.5,129.0,326.5,128.5,331.5,131.5,337.5" stroke="yellow" stroke-width="1" fill="none" />
<polyline points="123.0,309.5,123.5,317.0,120.5,320.0,120.5,327.0,110.5,327.0,109.0,333.0,109.5,343.0,102.5,338.0,99.5,343.0,99.0,347.0,96.0,350.0,98.0,351.5,89.5,353.0,93.0,361.5,94.5,362.5,93.5,369.0,90.5,371.0,92.5,377.5,93.5,384.0" stroke="black" stroke-width="1" fill="none" />
<polyline points="85.5,387.0,79.5,394.0,79.5,403.5,78.5,402.5,74.5,411.5,68.5,406.5,72.5,421.0" stroke="orange" stroke-width="1" fill="none" />
<polyline points="18.0,373.5" stroke="black" stroke-width="1" fill="none" />
<polyline points="122.5,287.5,123.5,291.5,119.5,297.5,119.5,301.0,111.0,305.0,106.5,306.0,100.0,314.5,105.5,311.5,101.0,301.0,111.5,297.5,117.5,299.0,122.5,294.5,127.0,290.0,128.5,286.5" stroke="orange" stroke-width="1" fill="none" />
<polyline points="136.5,261.5" stroke="green" stroke-width="1" fill="none" />
<polyline points="" stroke="orange" stroke-width="1" fill="none" />
<polyline points="137.0,240.0,138.0,240.0,136.0,245.0,135.0,239.0,147.5,241.0" stroke="black" stroke-width="1" fill="none" />
<polyline points="147.0,246.5,141.0,243.0,134.0,245.0,139.5,245.0,137.5,246.5,141.0,247.0" stroke="yellow" stroke-width="1" fill="none" />
<polyline points="137.0,236.0,131.5,224.5,134.5,227.0" stroke="black" stroke-width="1" fill="none" />
<polyline points="143.0,213.5,143.5,216.0" stroke="yellow" stroke-width="1" fill="none" />
<polyline points="153.0,212.5,153.0,212.5,150.0,211.5,150.5,212.5" stroke="orange" stroke-width="1" fill="none" />
<polyline points="140.5,194.0,137.5,192.5,135.0,189.0,133.5,185.5,137.0,188.5,142.5,180.5,148.5,177.5,141.5,175.0,141.5,184.0" stroke="green" stroke-width="1" fill="none" />
<polyline points="139.5,185.0" stroke="orange" stroke-width="1" fill="none" />
<polyline points="152.5,176.5,146.0,179.0,152.5,181.0,145.5,186.5,139.0,185.0,135.0,190.0" stroke="green" stroke-width="1" fill="none" />
<polyline points="137.0,199.0" stroke="orange" stroke-width="1" fill="none" />
<polyline points="143.0,194.0,143.5,196.5,151.5,200.5,146.0,211.5,146.5,212.5,142.5,216.5" stroke="yellow" stroke-width="1" fill="none" />
<polyline points="128.0,205.0,126.0,197.0,129.0,195.0" stroke="black" stroke-width="1" fill="none" />
<polyline points="113.0,223.5,116.0,224.5,106.0,228.5,109.5,231.0,119.0,233.5,112.5,228.0" stroke="black" stroke-width="1" fill="none" />
<polyline points="114.0,235.0,120.5,225.0,116.0,225.0,111.5,225.0,114.0,223.5" stroke="green" stroke-width="1" fill="none" />
<polyline points="126.0,252.0,118.0,254.5,113.0,258.0,110.5,263.0,113.5,258.0,121.5,254.5,117.0,251.5,127.0,252.0,130.5,242.0,140.0,238.0,144.0,236.5,148.5,234.0,157.0,229.5,155.0,231.0,158.5,230.0" stroke="orange" stroke-width="1" fill="none" />
<polyline points="155.0,232.0,148.5,234.0,139.0,234.0,143.5,238.0,138.0,245.0,138.5,250.5,127.5,256.5,138.0,268.5,141.0,265.5,136.0,265.0,124.0,265.5,133.5,270.0,136.0,270.0,132.5,275.0,143.0,275.0" stroke="black" stroke-width="1" fill="none" />
<polyline points="149.5,254.5,157.5,257.5,157.5,250.5,161.5,249.5,156.5,246.5,159.0,250.0" stroke="black" stroke-width="1" fill="none" />
<polyline points="166.5,230.0,163.5,234.0,158.5,240.0,161.5,238.0,164.5,235.0,167.5,224.5,168.5,225.5,169.5,223.5" stroke="green" stroke-width="1" fill="none" />
<polyline points="164.0,228.5,167.5,225.0,170.0,223.5" stroke="green" stroke-width="1" fill="none" />
<polyline points="174.0,236.0,166.5,233.5,166.0,235.0,162.5,243.5,163.5,248.0,154.0,249.5,148.0,252.0,149.0,255.5,151.0,257.0,153.0,261.5,141.5,264.0,135.5,266.5,131.5,272.0,136.0,280.0,125.0,279.5,128.5,289.0,128.5,295.0,127.5,303.0,126.0,306.5,126.5,317.5,124.5,311.5,119.5,323.5,116.5,326.0,120.0,332.0,123.0,328.0,117.5,336.5,123.0,340.5,117.0,339.5,125.0,342.5,128.5,346.0,132.5,351.5,132.5,363.5,134.0,355.5,135.0,359.5,137.5,364.5,138.0,368.5,145.5,367.0,141.0,376.0,146.5,375.0,141.5,391.5,139.0,389.5,146.0,396.5,148.0,392.5,145.5,397.0,150.0,402.5,152.0,407.5,146.5,407.0,153.0,411.0,152.5,414.0,153.5,415.5,162.5,416.0,158.5,424.5,157.5,427.0" stroke="green" stroke-width="1" fill="none" />
<polyline points="169.5,421.0,164.5,413.0,164.5,412.5,162.0,417.0" stroke="green" stroke-width="1" fill="none" />
<polyline points="" stroke="green" stroke-width="1" fill="none" />
<polyline points="204.0,427.5" stroke="yellow" stroke-width="1" fill="none" />
<polyline points="200.0,417.5,194.5,427.0,201.5,429.5,195.0,430.0,192.5,439.0" stroke="black" stroke-width="1" fill="none" />
<polyline points="200.0,402.5,198.5,404.0,200.0,398.5,191.0,405.0,196.5,393.5,197.5,396.0,196.0,397.5" stroke="black" stroke-width="1" fill="none" />
<polyline points="187.0,389.0,190.5,394.5,189.0,404.0,188.0,401.5,185.0,408.0,185.5,415.5,188.5,414.0,189.0,416.0,186.5,425.0,184.5,432.0,189.5,434.0,181.5,435.0,184.0,438.0,177.5,441.5,186.0,447.5,186.5,439.5,198.5,446.5,197.5,443.5" stroke="black" stroke-width="1" fill="none" />
<polyline points="377.5,356.0,378.0,352.0,375.5,345.0,380.0,349.5,377.0,339.5,382.0,338.0,381.0,334.5,378.5,326.5,378.5,321.5,376.0,320.0,375.0,309.0,370.0,312.0,375.5,308.5,379.5,302.0" stroke="orange" stroke-width="1" fill="none" />
<polyline points="380.5,288.5,377.5,283.0,376.5,287.5,381.0,282.0,381.5,275.5,379.0,268.0,384.5,269.5,384.0,266.5,384.5,267.5" stroke="orange" stroke-width="1" fill="none" />
<polyline points="366.0,267.0,364.0,271.0,368.0,276.0,370.5,281.5,367.5,282.0,369.5,287.5,364.0,287.5,362.5,296.0,364.0,299.0,364.5,303.5,362.0,307.5,359.5,310.0" stroke="orange" stroke-width="1" fill="none" />
<polyline points="345.0,271.0,349.5,276.5,343.5,280.0,333.0,283.5,330.0,282.0,328.5,274.0,322.0,271.0,323.5,273.0,323.5,268.0,325.5,268.0,324.0,274.5,326.5,273.0" stroke="green" stroke-width="1" fill="none" />
<polyline points="322.5,269.0,328.0,269.5,327.0,270.5,335.0,273.0,331.5,273.5,334.0,270.0,334.0,270.5" stroke="black" stroke-width="1" fill="none" />
<polyline points="316.0,277.5,317.5,275.5,321.0,274.0,320.0,266.0,328.0,260.0,335.5,261.0,335.0,253.0" stroke="black" stroke-width="1" fill="none" />
<polyline points="364.5,265.0,364.5,261.5,363.0,270.5,363.0,275.5,360.0,276.5,355.5,281.0" stroke="yellow" stroke-width="1" fill="none" />
<polyline points="292.0,231.0,283.0,234.0,291.5,234.0,295.5,224.0" stroke="green" stroke-width="1" fill="none" />
<polyline points="270.0,216.0,271.0,202.0,278.5,202.5,279.5,203.5,282.5,198.5,290.5,189.5,290.5,191.0,297.0,186.5,303.0,189.0,303.5,183.0,306.5,180.0,307.0,179.0" stroke="yellow" stroke-width="1" fill="none" />
<polyline points="316.5,175.5,298.0,171.5,299.5,179.5,297.0,183.5,293.0,186.0,288.0,192.0,282.0,190.0,282.0,199.0,274.0,198.5,268.5,201.5,267.5,208.0,263.5,211.5,264.5,214.5,266.5,222.5,254.0,225.0,252.0,228.5,242.5,232.0,243.0,241.0,239.5,248.0,233.0,242.0,233.5,254.5,226.0,258.5,222.0,262.5,219.5,268.0,209.5,280.5,210.5,284.0,209.0,290.0,202.5,301.0,195.0,310.0,202.0,322.5,198.0,317.0,197.5,314.0,199.0,308.0,202.5,304.5,199.0,298.5,205.0,293.5,207.0,293.5,212.5,288.5,211.5,290.5,213.5,283.0,215.0,277.0,216.0,276.0,222.5,269.5,226.0,265.5,227.0,262.5,229.0,254.0,228.0,256.5,234.5,248.0,234.0,242.0,240.0,236.5,241.0,231.5,245.5,228.5,252.5,227.0,257.5,223.0,257.5,223.0,260.0,216.5,261.5,206.5,260.0,212.5,266.5,199.5" stroke="black" stroke-width="1" fill="none" />
<polyline points="265.0,202.5,262.0,206.5,265.5,205.5,259.5,208.5" stroke="black" stroke-width="1" fill="none" />
<polyline points="" stroke="black" stroke-width="1" fill="none" />
<polyline points="206.0,197.0,211.0,198.0,217.0,188.5,217.5,185.5,225.5,187.0,223.0,182.0,228.0,180.5,230.0,183.0,229.0,184.0" stroke="yellow" stroke-width="1" fill="none" />
<polyline points="229.5,173.5,225.0,181.5,211.5,184.5,209.5,183.0,219.5,194.0,203.0,198.0,214.5,196.0,209.0,197.5,214.0,196.5,220.0,197.5,228.5,189.5,233.5,189.5,239.0,192.0,228.5,184.5,234.0,191.5" stroke="black" stroke-width="1" fill="none" />
<polyline points="251.5,175.5,248.0,176.0,239.0,185.5,233.0,183.0,244.0,179.5,242.0,182.0,247.0,177.0,255.5,179.5" stroke="yellow" stroke-width="1" fill="none" />
<polyline points="251.0,176.5,244.5,180.5,245.0,181.0,249.0,191.0,240.5,199.0,238.0,201.5,236.0,202.0,235.0,213.0,229.5,217.0,231.0,208.5,236.0,208.5,236.5,208.5" stroke="black" stroke-width="1" fill="none" />
<polyline points="264.0,184.0,265.0,190.5,259.5,195.5,250.0,199.0,246.5,204.0,253.0,204.0,255.5,201.0,257.5,199.0" stroke="orange" stroke-width="1" fill="none" />
<polyline points="265.5,183.5,271.0,182.5,264.5,190.5,260.5,190.5,261.0,189.5,263.0,186.0,263.5,184.5" stroke="green" stroke-width="1" fill="none" />
<polyline points="263.0,185.0,253.0,186.5,244.5,189.0,252.0,197.0,250.0,201.5,243.5,195.5,244.5,191.0,245.5,192.0,249.5,190.5,253.0,186.5,252.0,185.0,257.0,183.0,263.5,180.5,260.5,178.5,263.5,180.5" stroke="black" stroke-width="1" fill="none" />
<polyline points="263.0,180.5,267.5,176.0,271.5,176.0,279.5,177.5,279.0,179.0,279.5,176.0,284.5,177.0,295.0,179.5,294.5,181.5,291.5,185.5,290.0,193.5,285.0,190.0,276.0,197.5,272.5,197.0,276.0,198.0,271.0,195.0,267.5,193.5,279.0,192.5,277.5,197.0,285.0,186.0,288.5,184.0,289.0,182.5,292.5,177.0,305.0,176.5,306.0,173.5,309.0,172.5,316.5,169.0,315.0,169.0,325.0,167.5,325.0,161.5,331.5,161.5,334.5,154.0,338.0,152.5,337.0,152.0" stroke="green" stroke-width="1" fill="none" />
<polyline points="305.0,176.0,306.0,177.5,297.5,178.0,297.0,183.0,288.5,194.0,285.0,191.5,279.5,196.0,277.5,196.5,267.5,205.0,269.5,207.5,271.0,206.5,270.0,211.0,262.5,221.5,263.0,222.5,261.0,223.0,261.5,228.0,263.5,232.0,268.0,239.0,266.5,244.0,264.0,242.0" stroke="black" stroke-width="1" fill="none" />
<polyline points="265.0,193.0,265.5,194.5,268.0,186.5" stroke="black" stroke-width="1" fill="none" />
<polyline points="258.5,161.5,266.0,158.5,265.0,161.0,259.0,160.5,250.5,162.5,252.5,160.0,243.5,163.5,250.0,162.0,249.0,160.0" stroke="yellow" stroke-width="1" fill="none" />
<polyline points="254.5,160.5,256.0,165.5" stroke="black" stroke-width="1" fill="none" />
<polyline points="252.0,167.0,254.5,176.0,256.0,180.0,257.5,177.5,258.5,181.0" stroke="yellow" stroke-width="1" fill="none" />
<polyline points="247.0,140.5,255.5,138.5,258.0,131.5,258.0,130.5,262.0,129.0,253.5,133.0,248.5,135.0,249.0,139.5,245.0,143.5,235.0,144.5,235.0,145.5,233.0,144.0" stroke="black" stroke-width="1" fill="none" />
<polyline points="" stroke="yellow" stroke-width="1" fill="none" />
<polyline points="222.5,146.5,216.0,148.5,218.0,151.0" stroke="orange" stroke-width="1" fill="none" />
<polyline points="214.0,141.5" stroke="black" stroke-width="1" fill="none" />
<polyline points="205.5,151.0,203.0,151.5,210.5,145.0,213.5,150.5,214.0,161.0,216.0,153.0,217.5,154.5" stroke="orange" stroke-width="1" fill="none" />
<polyline points="209.0,162.5,197.5,155.5,203.0,157.5,203.0,155.0,203.0,153.5" stroke="yellow" stroke-width="1" fill="none" />
<polyline points="204.0,158.0,206.0,166.5,199.0,169.5,189.5,181.0,186.5,176.5,185.5,180.5,183.0,180.0,172.0,188.5,175.0,193.5,165.0,194.0,164.5,201.0,162.5,201.0,168.5,194.5,172.5,193.5,179.5,188.0,179.0,185.0,184.5,182.0,186.5,175.5,193.5,174.5,199.5,173.0,202.0,164.0,203.0,163.0" stroke="yellow" stroke-width="1" fill="none" />
<polyline points="216.5,181.0,213.0,176.5,209.0,176.5,208.5,186.5,204.0,185.0,205.5,194.0,202.5,200.5,207.0,197.0,201.0,197.0,202.0,193.0" stroke="orange" stroke-width="1" fill="none" />
<polyline points="" stroke="black" stroke-width="1" fill="none" />
<polyline points="204.5,135.5,194.0,135.5,203.0,133.5,203.5,142.0,202.5,138.0,206.5,137.0,214.5,128.5,216.5,132.5,216.0,129.0,223.5,126.5,229.0,126.0" stroke="black" stroke-width="1" fill="none" />
<polyline points="225.0,129.0,220.5,129.0,214.0,142.5,214.0,140.5,205.5,144.0,210.5,140.5,212.0,135.0,222.0,129.5,226.0,129.0,233.5,121.5,235.5,119.0,246.0,119.0,238.5,124.0" stroke="black" stroke-width="1" fill="none" />
<polyline points="229.0,118.0,232.5,118.0,228.0,128.0,223.5,133.0,207.0,141.0,201.0,142.5,202.0,141.0,197.5,143.0,199.0,152.0,189.5,156.0,190.0,159.0,181.0,164.0,174.5,167.5,171.5,172.5,170.0,170.5,165.5,179.5,163.5,188.0,155.5,186.5,152.0,195.0,150.5,197.5,148.5,197.0,152.0,203.0,149.0,208.0,147.0,214.5,147.5,218.0,147.0,222.5,139.5,222.5,141.0,225.5,144.0,233.0,138.5,238.5,138.5,241.0,146.0,240.5,129.0,239.5,137.0,254.0,133.0,252.0,137.5,254.5,136.0,256.0,140.0,258.0,138.0,253.5" stroke="green" stroke-width="1" fill="none" />
<polyline points="143.5,174.0,141.0,171.0" stroke="orange" stroke-width="1" fill="none" />
<polyline points="131.0,143.5,129.0,134.0" stroke="yellow" stroke-width="1" fill="none" />
<polyline points="154.5,129.0,154.0,133.0,153.5,140.0,156.0,136.5,157.0,125.0,161.0,124.5,160.5,123.5" stroke="black" stroke-width="1" fill="none" />
<polyline points="183.5,124.5,183.5,129.5,179.0,130.5,185.0,125.0,189.5,119.0,188.5,118.0,192.5,115.0" stroke="orange" stroke-width="1" fill="none" />
<polyline points="191.0,124.5,183.0,127.5,177.5,126.5,178.0,123.5,177.5,120.0,186.0,122.5,189.5,122.5,190.5,122.0,188.5,119.0,194.5,119.5" stroke="black" stroke-width="1" fill="none" />
<polyline points="180.5,134.5,187.5,133.0" stroke="black" stroke-width="1" fill="none" />
<polyline points="197.0,124.5,201.5,116.5" stroke="green" stroke-width="1" fill="none" />
<polyline points="198.5,110.5" stroke="yellow" stroke-width="1" fill="none" />
<polyline points="231.5,133.0,225.5,129.0,220.0,128.0,215.5,134.5,215.5,139.0,210.0,146.5,203.5,139.0,196.5,152.0,196.0,155.5,195.5,156.5,200.0,148.0,209.0,146.5,213.0,141.0,219.0,135.0,227.0,137.0" stroke="orange" stroke-width="1" fill="none" />
<polyline points="251.0,140.5,248.0,139.5,247.5,146.0,246.5,145.5,233.5,154.5,229.5,151.0,231.5,152.5,223.5,157.0,220.0,160.0,218.0,164.5,224.5,156.5,230.5,152.5,234.0,150.0,244.5,145.0,245.5,143.5,251.5,141.5,254.5,132.5,267.5,124.0,264.0,125.5" stroke="black" stroke-width="1" fill="none" />
<polyline points="287.5,143.0,287.0,146.0,289.0,145.0" stroke="black" stroke-width="1" fill="none" />
<polyline points="296.0,135.0,293.0,142.5,292.5,144.5,294.5,132.5" stroke="black" stroke-width="1" fill="none" />
<polyline points="310.0,174.5,300.0,179.5,296.0,184.0,289.5,188.5,290.0,195.0,281.5,200.0,279.5,200.5,274.0,206.5,274.0,207.5,273.0,214.0,269.5,211.5,268.5,212.0" stroke="yellow" stroke-width="1" fill="none" />
<polyline points="232.0,96.5,232.0,106.0,225.0,102.0,223.0,105.5,226.5,103.5,230.0,100.0,235.5,96.0,232.5,91.5" stroke="yellow" stroke-width="1" fill="none" />
<polyline points="" stroke="black" stroke-width="1" fill="none" />
<polyline points="245.5,90.0,246.5,93.5,245.5,91.0,245.0,87.5" stroke="green" stroke-width="1" fill="none" />
<polyline points="262.0,89.0,254.5,91.5,252.0,92.5,248.0,90.5,248.0,95.5,242.5,105.0,238.5,107.5,229.5,110.5,226.5,105.5,228.5,118.5,219.5,114.5,223.0,123.0,219.0,123.5,207.5,121.5,203.0,129.5,204.5,138.0,195.5,133.0,191.5,132.0,188.5,136.0,178.0,147.5,181.5,152.0,176.0,149.5,172.0,153.0,172.5,167.5,171.0,166.5,162.0,165.0,155.5,168.5,161.0,176.0,159.0,172.0,156.5,164.5,171.5,166.0,173.0,160.0,179.0,158.5,178.0,149.0,185.5,140.0,191.5,143.5,191.0,136.0,200.5,148.0,210.0,131.5,210.5,134.5,209.5,126.0,216.5,109.0,218.0,117.5,228.0,115.0,235.5,113.5,237.5,99.5,240.5,99.0,253.0,98.0,262.5,92.0,262.0,84.5" stroke="yellow" stroke-width="1" fill="none" />
<polyline points="238.0,79.0,231.0,82.5,227.0,84.5,230.5,82.0,235.0,80.0,235.5,81.5" stroke="black" stroke-width="1" fill="none" />
<polyline points="" stroke="orange" stroke-width="1" fill="none" />
<polyline points="228.0,49.0,226.5,48.0,235.0,49.5,230.0,48.0,244.5,48.5,251.0,53.0,244.5,46.5,255.5,55.0,259.0,59.5,263.0,49.0,271.0,58.0,271.5,61.0,270.5,64.0,278.0,66.5,280.0,67.0,289.5,69.5,284.0,69.0,300.0,76.0,291.0,80.0,295.5,83.5,304.0,86.5,306.0,91.5,320.5,102.0,316.0,95.5,328.5,105.0,328.5,110.5,326.5,117.5,331.0,121.5,334.0,128.0,340.5,126.0,350.0,135.0,342.0,139.5,351.0,146.0,349.5,141.5,357.5,137.0,369.0,139.0,373.0,134.5,372.5,130.5,381.5,131.0,381.0,127.0,393.0,127.0,393.5,114.5,393.5,115.5,393.5,111.5,400.5,115.5,406.0,111.0,410.5,113.0,415.5,119.0,416.0,116.5,423.0,125.5" stroke="black" stroke-width="1" fill="none" />
<polyline points="413.0,118.0,413.0,123.5,415.0,128.5,417.5,134.5,424.0,134.0,420.5,142.0,419.5,144.0,422.5,143.5,408.5,152.0,420.0,156.5,412.5,165.0,414.0,164.5,409.5,175.5,407.5,174.5,405.0,174.0,399.5,177.5,408.5,177.0,407.5,181.5,398.5,182.5,393.5,188.5,396.5,196.0,383.0,204.5,382.5,203.0,376.5,210.5,374.5,212.5,366.5,218.5,366.5,213.0,373.0,211.5,372.5,207.5,384.0,210.0,386.5,205.5,392.5,198.0,392.5,193.0,396.0,191.5,401.0,189.0,403.5,184.0,408.0,171.0,412.0,174.5" stroke="yellow" stroke-width="1" fill="none" />
<polyline points="370.0,132.5,374.0,125.5,367.0,127.0,372.0,127.0" stroke="orange" stroke-width="1" fill="none" />
<polyline points="391.0,108.5,382.5,100.0,383.0,102.0,384.0,105.5" stroke="black" stroke-width="1" fill="none" />
<polyline points="375.5,101.5,373.0,101.0,381.0,106.0,389.0,105.0,384.5,98.0" stroke="black" stroke-width="1" fill="none" />
<polyline points="423.5,58.5,427.5,42.5,427.5,47.0,413.0,34.5,417.0,28.0,415.5,21.0,408.5,10.0" stroke="yellow" stroke-width="1" fill="none" />
<polyline points="514.0,74.0,512.0,81.5,508.5,80.0,504.0,86.5,502.0,86.5,494.5,96.5,489.5,104.0,481.5,107.0,488.5,108.5,481.5,107.5,477.5,115.0,478.5,118.0,474.0,125.0,470.0,127.0,466.0,130.0,468.5,136.0,467.0,138.0,460.0,148.5,458.0,148.5,458.0,152.0,454.0,156.5,451.5,168.0,452.0,165.5,445.0,167.5,442.5,171.0,445.0,175.5,438.0,187.5,436.0,190.0,436.0,191.0,431.5,197.0,434.0,205.0,431.0,204.5,429.0,207.0,425.0,212.0,428.5,218.0,419.5,218.0,422.5,222.0,421.5,227.0,421.0,236.5,410.5,232.5,413.0,243.5,412.5,244.5,409.0,244.5,414.0,249.0,417.5,259.5,405.5,261.5,405.5,259.0,407.5,266.5,410.5,273.5,404.0,278.0,403.0,282.5,402.5,280.5,396.5,286.0,401.5,288.0,406.5,290.0,397.0,299.5,396.0,302.0,393.0,307.5,390.5,303.5,394.5,317.0,388.0,318.5,396.0,318.5,390.0,327.0,391.5,325.5,385.0,339.5,389.0,335.5" stroke="yellow" stroke-width="1" fill="none" />
<polyline points="342.0,137.5,335.0,131.5,335.0,132.5,334.0,130.0,335.0,126.5,332.5,123.0,333.0,119.0,327.0,115.0,323.5,105.5,316.5,103.5,313.0,95.5,306.5,92.0,312.0,96.0,305.5,88.0,301.5,87.0,298.0,74.5,295.5,76.5,292.5,73.0,281.5,65.5,275.0,69.0,276.0,64.5,264.5,53.5,265.0,49.0,252.0,55.0" stroke="orange" stroke-width="1" fill="none" />
<polyline points="202.5,51.5" stroke="black" stroke-width="1" fill="none" />
<polyline points="173.0,59.5,158.0,65.0,160.5,68.5,169.5,63.5" stroke="black" stroke-width="1" fill="none" />
<polyline points="157.5,67.5,158.5,74.0,153.0,78.0,149.0,76.5,155.0,69.0,161.0,71.0,159.5,72.5,153.5,73.5" stroke="black" stroke-width="1" fill="none" />
<polyline points="161.5,70.5,162.5,75.0,154.0,78.5" stroke="black" stroke-width="1" fill="none" />
</svg>