<svg xmlns="http://www.w3.org/2000/svg" width="1024" height="1024" version="1.1" fill="white"><polyline points="409.5,8.0,408.0,5.5,409.0,16.5,407.0,18.5,411.0,26.0,417.0,28.0,424.0,34.0,420.5,29.5,432.0,33.0,426.0,31.0,430.0,50.5,435.0,47.5,434.5,53.0,438.5,57.5,433.0,61.0,438.5,68.5,442.0,70.0" stroke="black" stroke-width="1" fill="none" />
<polyline points="459.0,52.5,446.0,44.5,440.0,39.0,442.0,37.5,435.0,22.5,434.5,19.0,436.0,20.5,431.5,25.5" stroke="black" stroke-width="1" fill="none" />
<polyline points="427.0,8.0,424.5,7.0,427.5,7.0,431.5,17.5,434.0,17.5,434.5,18.5,437.5,24.0,444.5,29.0,439.5,35.0,446.0,37.5,450.5,38.5,450.5,42.5,445.0,48.5,454.5,56.0,459.5,58.0,457.0,62.0,455.0,67.0,457.5,77.0,443.5,73.0,442.5,77.5,437.5,83.5,440.0,86.5,435.0,87.5,432.5,94.5,431.0,98.0,427.0,104.0,425.5,103.5,422.0,105.5,421.0,107.0,422.0,109.5,422.5,104.5,428.5,98.5,435.0,93.5,442.0,85.0,437.0,83.0,441.5,77.0,445.0,76.5,451.5,65.0,454.5,63.5,460.0,54.5,469.0,51.0,469.5,46.0,470.5,43.0,481.0,44.0,478.5,39.0,484.5,28.0,491.0,27.0,488.5,28.0,500.0,22.0,509.5,14.5,507.5,6.5" stroke="green" stroke-width="1" fill="none" />
<polyline points="508.0,4.0,506.0,10.5,504.0,17.0,497.5,24.0,492.0,21.5,491.5,24.5,486.0,28.5,483.0,33.5,482.5,38.5,470.5,43.0,470.5,41.5,462.5,52.5,464.5,56.5" stroke="orange" stroke-width="1" fill="none" />
<polyline points="507.0,79.0,507.5,82.0,502.5,75.5,503.5,87.0,501.0,93.0,496.5,98.5,489.5,94.5,483.0,104.0,481.5,102.0,477.5,110.5,469.5,115.5,466.0,117.5,469.5,123.5,459.0,138.0,457.5,142.5,465.0,141.0,464.5,142.0,462.0,140.0" stroke="orange" stroke-width="1" fill="none" />
<polyline points="446.0,158.0,450.5,164.5,440.0,165.5,443.5,173.5,434.5,166.5,438.5,172.5,440.0,172.5" stroke="black" stroke-width="1" fill="none" />
<polyline points="437.5,169.0,442.0,183.5,432.5,181.0,435.5,186.0,435.0,184.5,436.5,181.0" stroke="orange" stroke-width="1" fill="none" />
<polyline points="424.5,199.5,426.0,214.5,426.0,217.5,425.5,224.0" stroke="black" stroke-width="1" fill="none" />
<polyline points="418.0,233.5,416.5,234.0,415.0,243.5,415.0,245.0,416.0,248.5,412.5,243.5,412.0,246.0" stroke="black" stroke-width="1" fill="none" />
<polyline points="398.5,287.5,405.0,290.5,406.0,290.5" stroke="yellow" stroke-width="1" fill="none" />
<polyline points="388.5,300.0,379.0,287.5,378.0,284.0,383.5,285.0,390.0,275.0" stroke="green" stroke-width="1" fill="none" />
<polyline points="373.5,267.0,372.5,264.5,373.0,263.5,376.0,257.0,374.0,253.0,370.0,257.0,370.5,243.5,371.5,241.0,368.5,240.5,373.5,235.5,367.0,233.0,375.5,224.0,373.5,221.5,375.5,225.5,372.0,216.5,368.5,216.5" stroke="yellow" stroke-width="1" fill="none" />
<polyline points="377.5,239.5,369.5,243.0,373.0,243.0,377.5,238.0" stroke="green" stroke-width="1" fill="none" />
<polyline points="370.5,244.5,369.5,253.0,366.0,252.5,374.0,256.5,372.0,267.0,366.0,275.5,370.0,267.5,371.0,274.0,368.5,273.0,366.5,278.0,366.0,276.5" stroke="black" stroke-width="1" fill="none" />
<polyline points="378.5,285.5,370.0,294.5,381.5,290.5,381.0,293.0,380.5,301.0,373.0,303.0,377.0,311.5,374.5,308.5,379.5,315.0,384.0,320.0,379.5,325.0,382.5,331.5,381.5,334.5,384.5,337.0,386.5,341.0,386.5,338.5" stroke="yellow" stroke-width="1" fill="none" />
<polyline points="367.5,355.5,366.0,356.5,374.0,363.0,376.5,366.0,377.0,369.0,368.5,373.5,372.5,374.5" stroke="green" stroke-width="1" fill="none" />
<polyline points="371.0,374.0,373.5,377.5" stroke="orange" stroke-width="1" fill="none" />
<polyline points="383.0,384.0,383.5,385.0,380.5,390.5,379.5,396.0" stroke="orange" stroke-width="1" fill="none" />
<polyline points="361.0,427.5,358.5,419.0,355.0,417.0,354.0,413.5,350.0,411.5,346.0,405.5,336.5,401.0,333.5,402.0,332.0,400.5,332.5,401.0,322.5,398.0,320.0,390.0,318.5,394.5,311.5,388.5,307.5,389.0,303.5,387.0,303.0,384.5,302.5,393.5,300.0,396.0" stroke="green" stroke-width="1" fill="none" />
<polyline points="314.5,375.5,319.0,373.0,321.0,363.0,324.0,355.5,327.0,349.0,335.0,342.0" stroke="yellow" stroke-width="1" fill="none" />
<polyline points="354.5,325.5,352.0,328.5,356.0,334.0,354.5,334.5,353.5,338.5" stroke="black" stroke-width="1" fill="none" />
<polyline points="356.0,362.0,356.0,364.5,352.5,366.5,359.5,376.0,351.5,383.0,353.0,383.5,354.0,389.0,355.0,395.0,351.5,391.5,351.0,403.0,351.5,407.0,350.5,407.0,353.5,411.5,354.0,411.0,352.5,413.5" stroke="green" stroke-width="1" fill="none" />
<polyline points="359.0,382.5,360.0,378.0,361.0,366.5,357.0,370.0,359.0,361.5" stroke="orange" stroke-width="1" fill="none" />
<polyline points="360.5,360.0,361.5,361.0,360.0,369.0,357.0,374.0,359.0,372.0,355.0,381.5" stroke="yellow" stroke-width="1" fill="none" />
<polyline points="361.5,352.0,360.5,358.5,355.5,362.0,352.5,364.0,355.0,366.5,357.0,370.0,354.0,372.5,356.0,379.5,357.0,380.0,350.5,389.0,352.5,393.5,355.0,399.0,359.5,399.0,356.5,404.0,352.5,407.5,361.0,408.5,354.0,410.0" stroke="yellow" stroke-width="1" fill="none" />
<polyline points="370.5,467.0,374.0,456.0,371.0,457.5,374.0,454.0,372.0,447.0,372.0,445.5,376.0,436.0,375.0,437.0,372.0,430.5,376.5,434.5,376.5,429.5,378.0,425.0,376.5,418.0,378.0,409.5,376.5,408.0,377.5,403.0,375.0,401.0,372.5,395.5,375.5,388.5,383.5,394.0,375.0,384.0,383.5,377.5,376.0,373.0,374.5,370.5,375.0,367.5,380.5,369.0,379.5,359.0,375.5,359.5,378.0,348.0,379.5,350.5,378.0,343.5,372.5,344.5,371.0,336.5,375.0,332.0,373.5,332.0,374.5,328.5,373.5,322.5,376.5,319.5,374.0,314.0,372.5,307.5,376.0,302.0,374.5,304.5,375.5,296.0,374.0,292.5,370.0,290.0,372.0,279.5,368.5,276.5,372.5,278.0,367.0,267.0,366.5,270.0,368.5,263.0,373.5,258.5,370.5,261.5,362.0,252.5,366.5,247.5,368.0,244.0,369.5,238.5,365.5,233.5,361.0,231.0,362.0,227.5,362.0,224.0,357.5,215.0,355.5,219.0,361.0,208.5,358.5,206.5,352.5,206.0,345.5,199.0,347.5,198.5" stroke="green" stroke-width="1" fill="none" />
<polyline points="" stroke="orange" stroke-width="1" fill="none" />
<polyline points="" stroke="yellow" stroke-width="1" fill="none" />
<polyline points="359.0,190.0" stroke="yellow" stroke-width="1" fill="none" />
<polyline points="357.5,189.5,358.0,199.0,360.5,202.0,362.0,204.5,353.0,201.0,354.0,204.5" stroke="orange" stroke-width="1" fill="none" />
<polyline points="349.0,200.5,352.5,197.5" stroke="black" stroke-width="1" fill="none" />
<polyline points="350.0,202.0,354.5,207.0" stroke="yellow" stroke-width="1" fill="none" />
<polyline points="346.0,207.5,339.0,206.0,336.5,200.0" stroke="orange" stroke-width="1" fill="none" />
<polyline points="345.0,214.5,347.0,216.0,355.5,208.0,359.5,217.5,352.5,227.0,357.5,229.5,358.5,234.5,360.0,238.5,361.5,240.0,365.0,248.5,366.0,251.5,365.5,254.5" stroke="green" stroke-width="1" fill="none" />
<polyline points="363.0,242.5,363.0,242.5,368.5,243.0,364.0,247.5" stroke="green" stroke-width="1" fill="none" />
<polyline points="346.5,236.0,350.0,241.0" stroke="black" stroke-width="1" fill="none" />
<polyline points="338.0,255.0,332.5,258.5,335.5,260.5,330.0,258.0" stroke="yellow" stroke-width="1" fill="none" />
<polyline points="337.5,248.0,341.0,245.0,343.0,244.5,349.5,250.0,352.0,245.5" stroke="yellow" stroke-width="1" fill="none" />
<polyline points="347.0,261.5,344.5,259.5" stroke="green" stroke-width="1" fill="none" />
<polyline points="342.0,264.0,343.0,267.0,343.0,272.0,338.5,282.0" stroke="orange" stroke-width="1" fill="none" />
<polyline points="347.0,280.0,347.0,275.5,351.5,284.5,351.5,284.5,355.0,295.5,348.5,294.5,349.5,300.5,350.5,304.0,347.5,309.0,343.5,309.0,350.5,312.5,341.0,319.5,339.0,321.5,344.5,326.5,339.5,326.5,335.5,332.0,333.5,336.5,333.0,337.5,328.0,343.0,330.5,354.5,329.0,350.5,325.5,356.0,321.5,359.5,320.0,363.0,320.5,368.0,319.0,370.5,317.0,374.0,315.5,377.5,317.0,381.0,315.0,389.5,316.0,387.0,330.0,396.5,340.5,400.0,341.0,405.0,344.5,412.5,354.0,415.5,352.0,416.5,358.5,421.5,360.5,427.5,357.0,435.0,363.0,434.0,366.0,434.5,365.5,444.0,363.0,444.0,368.5,452.5,368.5,453.5,367.0,461.5,373.5,461.0,368.5,472.5,373.0,473.0,369.0,474.5,373.0,472.5,379.0,483.0,378.5,489.0,383.5,486.0,380.5,490.5,381.5,498.0,379.0,497.0,379.5,504.0,386.0,512.0,393.0,510.0,387.5,521.5,391.0,519.0" stroke="black" stroke-width="1" fill="none" />
<polyline points="428.0,491.5,427.5,485.0,429.5,484.0,441.5,481.5,440.5,482.5,448.5,475.5,449.5,466.0,457.5,467.5,456.5,467.5" stroke="yellow" stroke-width="1" fill="none" />
<polyline points="449.0,475.0,450.5,473.0,447.5,468.0,448.0,465.0,455.0,470.0,455.0,470.5" stroke="orange" stroke-width="1" fill="none" />
<polyline points="452.0,450.0,461.0,442.0,463.5,440.0" stroke="yellow" stroke-width="1" fill="none" />
<polyline points="469.5,419.5,475.0,413.0,479.0,410.0,482.5,402.5,482.5,403.5,491.5,396.0,490.5,394.5,496.0,391.0,498.5,390.5,503.5,389.0,504.5,385.0,513.5,382.0,510.0,377.0,513.0,384.0" stroke="green" stroke-width="1" fill="none" />
<polyline points="514.5,384.5,506.0,388.0,499.0,385.0,490.0,396.0,488.5,404.0,482.5,404.0,481.0,408.0,478.0,411.0,472.0,418.0,470.0,424.5,470.0,420.5,465.5,427.5,463.0,428.0,460.5,436.0,460.5,437.5,452.5,441.5,460.5,448.0,459.5,453.5,455.5,455.0,452.5,456.5,453.5,456.0,448.5,465.5,446.0,476.5,447.0,476.0,445.0,482.5,442.5,482.0,443.5,481.5" stroke="green" stroke-width="1" fill="none" />
<polyline points="430.0,475.0,429.5,474.5,435.0,478.0,429.5,483.0,440.5,475.5,436.5,472.0,439.0,463.5,439.5,462.5,430.5,457.5,439.5,456.5,438.0,454.5" stroke="black" stroke-width="1" fill="none" />
<polyline points="434.5,456.0,429.5,451.5,428.5,454.0,432.5,442.5,436.0,438.0,437.5,438.5,437.5,428.0,429.0,428.5,432.0,435.0,431.5,429.5,432.0,432.0" stroke="yellow" stroke-width="1" fill="none" />
<polyline points="427.5,471.0,428.0,470.0,420.5,478.0,427.0,473.5,418.5,483.0,423.0,485.0" stroke="orange" stroke-width="1" fill="none" />
<polyline points="420.5,471.5,421.5,469.0,418.0,472.5,423.0,474.5,426.0,472.5,431.5,464.5,430.0,461.5,434.5,461.0,435.5,461.0" stroke="orange" stroke-width="1" fill="none" />
<polyline points="472.5,411.5,473.0,413.0,475.5,412.5,483.0,408.0,479.0,395.5" stroke="orange" stroke-width="1" fill="none" />
<polyline points="446.0,426.5,447.5,421.5,446.5,412.5,447.0,408.5,448.0,411.5,450.0,405.0,453.0,398.0,452.5,391.5,450.0,392.5,452.0,385.5,456.0,379.5,451.5,378.5,452.5,378.0,455.5,374.5,447.5,364.5" stroke="yellow" stroke-width="1" fill="none" />
<polyline points="385.5,343.0,392.0,339.5,385.5,334.5,381.5,324.5,381.5,326.0" stroke="green" stroke-width="1" fill="none" />
<polyline points="364.5,356.0,369.0,360.5,371.0,362.0,368.5,364.0,367.0,364.0,365.0,375.5,364.5,384.0,362.0,386.0,371.0,386.0,373.0,383.5,375.0,389.5" stroke="black" stroke-width="1" fill="none" />
<polyline points="320.5,345.0,320.0,341.5,317.5,341.5" stroke="black" stroke-width="1" fill="none" />
<polyline points="316.5,350.5,311.0,350.5,308.5,352.0" stroke="green" stroke-width="1" fill="none" />
<polyline points="309.0,354.5,302.0,356.5,297.5,352.5" stroke="green" stroke-width="1" fill="none" />
<polyline points="297.5,352.0,305.5,360.0,309.0,356.5,314.0,358.0,307.5,358.0,307.5,363.0,308.5,368.0,305.0,367.5" stroke="green" stroke-width="1" fill="none" />
<polyline points="311.0,348.5,307.5,347.5,301.5,350.5,301.5,346.5,298.5,349.5,301.0,353.0" stroke="green" stroke-width="1" fill="none" />
<polyline points="306.0,331.0,308.5,326.5,315.5,329.0,313.0,324.5,306.0,332.0,303.0,334.0,303.5,331.0,311.0,334.5" stroke="orange" stroke-width="1" fill="none" />
<polyline points="312.5,327.0,312.0,324.0,311.5,324.0,299.0,331.0,295.0,334.5" stroke="black" stroke-width="1" fill="none" />
<polyline points="291.0,326.0,305.0,322.0,299.5,323.0,294.0,320.0,298.0,313.0" stroke="yellow" stroke-width="1" fill="none" />
<polyline points="320.0,331.0,324.5,328.0,324.0,318.5,321.0,318.0,322.0,312.5,320.0,308.5,325.0,316.5,324.0,302.5,322.5,303.5" stroke="black" stroke-width="1" fill="none" />
<polyline points="" stroke="black" stroke-width="1" fill="none" />
<polyline points="333.5,271.0,334.0,270.5,335.0,270.5,335.0,265.0,327.0,260.5,328.5,258.5,332.5,261.0,332.0,261.0" stroke="yellow" stroke-width="1" fill="none" />
<polyline points="327.0,266.5,328.0,275.0,331.5,272.5,326.0,277.0,330.5,263.5,333.5,271.5,321.0,271.5,331.0,261.0" stroke="yellow" stroke-width="1" fill="none" />
<polyline points="323.5,271.5" stroke="yellow" stroke-width="1" fill="none" />
<polyline points="" stroke="green" stroke-width="1" fill="none" />
<polyline points="322.0,263.0,328.0,264.0,333.0,264.5,336.5,259.0,337.0,262.0,337.5,253.5,344.5,261.0,350.0,252.5,350.5,250.5" stroke="black" stroke-width="1" fill="none" />
<polyline points="350.0,233.0,345.5,237.5,345.0,226.5,345.5,224.5,337.5,217.0,342.0,212.5,339.0,212.5" stroke="black" stroke-width="1" fill="none" />
<polyline points="342.0,196.5,344.0,201.5,355.5,199.0,355.0,196.5,358.5,197.0,358.5,193.0,369.5,188.5,371.0,182.5,374.5,182.5,380.5,183.0,377.5,190.5,387.5,182.5,391.5,181.5,393.5,173.0,396.0,168.5,398.0,179.5,404.0,169.0,405.5,172.5,403.0,177.0,399.0,185.0,394.0,186.5,387.5,190.0,382.5,188.5,386.0,196.0,392.5,188.0,391.5,183.5,395.0,172.5,402.5,180.5,404.0,182.5" stroke="black" stroke-width="1" fill="none" />
<polyline points="404.5,157.5,406.5,161.5,411.0,166.0,394.5,172.5,389.5,174.5" stroke="black" stroke-width="1" fill="none" />
<polyline points="374.0,182.5,367.5,186.0,355.5,190.0,347.5,189.5,344.5,195.5,337.0,201.0,337.0,207.0,346.0,209.0,346.0,211.0" stroke="green" stroke-width="1" fill="none" />
<polyline points="334.0,209.5,340.5,210.0,345.5,210.5,338.0,212.0,338.5,212.5,340.5,211.0" stroke="black" stroke-width="1" fill="none" />
<polyline points="" stroke="green" stroke-width="1" fill="none" />
<polyline points="337.0,207.0,348.5,206.5,351.5,214.5,352.5,216.5,357.5,216.5" stroke="yellow" stroke-width="1" fill="none" />
<polyline points="355.0,208.0,352.5,207.0,346.0,202.0,344.5,206.0" stroke="yellow" stroke-width="1" fill="none" />
<polyline points="343.0,204.0,348.0,202.0,348.0,202.5" stroke="green" stroke-width="1" fill="none" />
<polyline points="349.0,195.0,349.0,190.5" stroke="orange" stroke-width="1" fill="none" />
<polyline points="340.5,195.5,344.0,196.5,345.5,201.0,347.0,202.5,352.0,206.5" stroke="black" stroke-width="1" fill="none" />
<polyline points="" stroke="black" stroke-width="1" fill="none" />
<polyline points="368.0,196.5,368.5,196.5" stroke="black" stroke-width="1" fill="none" />
<polyline points="393.0,154.5,391.5,163.0,382.5,164.0,387.5,163.5,384.5,176.0,384.5,175.5,387.5,174.5,385.0,164.5,391.5,155.0" stroke="black" stroke-width="1" fill="none" />
<polyline points="398.0,162.5,399.5,161.0,399.5,165.5,389.5,173.5,396.0,174.5,391.0,172.5,396.0,169.5,396.5,166.5" stroke="yellow" stroke-width="1" fill="none" />
<polyline points="393.0,128.5,388.5,129.5,383.5,138.0,392.0,131.5,390.0,127.0,392.5,124.0,387.5,125.5" stroke="green" stroke-width="1" fill="none" />
<polyline points="400.0,115.0,392.0,125.5,389.5,123.0,379.5,130.5,381.0,129.5,379.0,128.0,393.0,120.5,399.5,118.5" stroke="black" stroke-width="1" fill="none" />
<polyline points="393.5,118.5,389.5,124.0,383.5,125.5,381.5,127.0,373.0,133.5,364.0,142.5,353.0,141.0,351.5,141.5" stroke="green" stroke-width="1" fill="none" />
<polyline points="329.0,148.5,316.0,158.5,319.0,162.0,315.5,160.0,307.5,167.5,303.0,176.5" stroke="orange" stroke-width="1" fill="none" />
<polyline points="282.0,176.0" stroke="yellow" stroke-width="1" fill="none" />
<polyline points="280.0,171.0,277.5,173.0,281.0,172.0,285.0,178.0,285.5,177.5" stroke="green" stroke-width="1" fill="none" />
<polyline points="282.5,177.0,284.5,180.5" stroke="orange" stroke-width="1" fill="none" />
<polyline points="273.0,179.0,282.5,178.0,277.5,172.5,274.0,172.5,273.5,173.0" stroke="yellow" stroke-width="1" fill="none" />
<polyline points="274.0,186.0,272.0,181.0,262.0,179.5,259.5,174.5,255.0,176.5,259.5,177.0,248.0,172.0,241.5,167.0,245.5,164.0" stroke="green" stroke-width="1" fill="none" />
<polyline points="242.0,162.5,240.0,171.0,247.0,164.0,245.5,168.5,251.5,166.0,251.0,171.0,259.5,178.5,249.0,182.0,246.5,185.0,241.5,187.0,242.0,192.5,236.0,194.5,238.0,198.0,235.0,208.5,238.5,206.5,245.0,213.5,246.5,207.5,247.5,211.5,252.5,200.5,254.5,209.5,254.0,205.0,247.5,210.5,249.5,216.0,250.5,225.0,237.5,219.0,243.5,235.5,237.0,227.0,237.0,232.5,236.0,245.5,229.5,248.5,229.5,255.5,224.0,254.0,220.5,255.0,218.5,258.5,220.0,271.0,215.5,273.0,209.0,276.5,208.0,283.5,204.0,284.0,204.0,290.5,205.0,296.5,199.5,302.0,197.5,298.0,194.0,305.0,200.0,309.0,198.0,315.0,188.5,312.0,190.0,314.5,180.5,318.0,183.0,323.5,180.0,325.5,173.5,332.0,165.0,329.0,166.5,342.0,163.5,342.5,161.5,340.5" stroke="black" stroke-width="1" fill="none" />
<polyline points="152.0,351.0,154.5,352.0,159.0,350.0,160.0,360.0,151.0,356.0,155.0,366.0,151.5,370.0,159.5,378.5,158.0,372.5,154.5,382.0,152.0,384.5,154.0,390.5,157.5,393.5,151.0,390.0,156.5,401.5,161.5,405.5,164.0,407.5,166.5,410.5" stroke="orange" stroke-width="1" fill="none" />
<polyline points="166.0,409.0,168.0,408.0,163.0,407.5,158.5,412.5" stroke="black" stroke-width="1" fill="none" />
<polyline points="169.5,412.0,166.5,413.0,168.5,412.5,165.0,414.0,171.0,416.5,171.0,421.5,170.0,423.5,171.0,423.0" stroke="black" stroke-width="1" fill="none" />
<polyline points="168.0,430.5" stroke="black" stroke-width="1" fill="none" />
<polyline points="183.0,446.0,176.5,440.5,178.0,442.0,188.5,448.5,187.5,436.5,188.5,444.0,187.0,441.5" stroke="green" stroke-width="1" fill="none" />
<polyline points="190.5,448.0" stroke="green" stroke-width="1" fill="none" />
<polyline points="" stroke="yellow" stroke-width="1" fill="none" />
<polyline points="" stroke="black" stroke-width="1" fill="none" />
<polyline points="180.0,458.5,176.5,460.5,181.5,462.0,167.5,467.5,170.5,470.5,165.5,472.0" stroke="green" stroke-width="1" fill="none" />
<polyline points="162.0,469.5,156.5,472.0,157.5,472.5,150.5,466.5,138.5,454.0,139.5,456.5,139.5,455.0,135.5,458.0" stroke="black" stroke-width="1" fill="none" />
<polyline points="138.5,466.0,140.0,474.5,143.5,474.0,145.5,478.5,149.0,479.5,154.0,487.0,153.5,482.5,154.0,481.0,156.0,488.0,164.5,493.5,160.5,492.0" stroke="black" stroke-width="1" fill="none" />
<polyline points="163.5,502.0,167.5,504.0,167.0,503.0,164.0,500.0" stroke="black" stroke-width="1" fill="none" />
<polyline points="170.0,504.5,168.5,498.0,167.0,509.0,154.5,505.0,156.5,501.5,151.0,500.5,146.0,487.0,142.5,490.0,143.0,486.0" stroke="yellow" stroke-width="1" fill="none" />
<polyline points="142.0,480.5,144.5,489.5,149.0,495.5,146.5,503.0,147.5,501.0,146.0,502.0" stroke="orange" stroke-width="1" fill="none" />
<polyline points="154.5,507.0,150.0,498.5" stroke="black" stroke-width="1" fill="none" />
<polyline points="" stroke="orange" stroke-width="1" fill="none" />
<polyline points="159.0,490.0,155.5,503.0" stroke="green" stroke-width="1" fill="none" />
<polyline points="150.5,488.0,149.5,492.0,157.0,483.5" stroke="green" stroke-width="1" fill="none" />
<polyline points="148.0,489.5,154.5,493.0,157.0,493.5,159.0,497.0,156.0,500.0,157.5,506.5,157.0,512.0,161.5,506.0,162.5,506.0,160.5,509.0" stroke="yellow" stroke-width="1" fill="none" />
<polyline points="150.0,502.0,144.0,496.5,149.5,490.5,141.5,491.0,139.0,481.5,141.5,482.0" stroke="black" stroke-width="1" fill="none" />
<polyline points="146.0,492.5,152.5,494.5,150.5,493.5,149.5,499.5,148.5,502.5,151.5,506.5,151.0,507.5" stroke="black" stroke-width="1" fill="none" />
<polyline points="144.5,496.5" stroke="yellow" stroke-width="1" fill="none" />
<polyline points="145.0,501.0,144.0,502.5,148.5,508.0,153.0,507.5,154.0,518.0" stroke="orange" stroke-width="1" fill="none" />
<polyline points="139.0,513.0,142.0,514.0,141.5,506.0,133.0,500.0,137.5,494.0,140.5,493.0,134.5,484.0" stroke="orange" stroke-width="1" fill="none" />
<polyline points="137.5,486.0,136.0,491.5,142.0,496.5,127.5,500.5,143.0,503.0,140.5,498.5,140.0,499.5" stroke="green" stroke-width="1" fill="none" />
<polyline points="125.0,494.5" stroke="orange" stroke-width="1" fill="none" />
<polyline points="125.5,496.5,123.0,507.5,126.0,507.5" stroke="orange" stroke-width="1" fill="none" />
<polyline points="121.5,506.5,122.0,512.0,126.0,506.5,121.5,495.5,123.5,498.5,126.5,488.5,129.5,490.0" stroke="black" stroke-width="1" fill="none" />
<polyline points="129.0,501.0,128.5,496.0,126.0,498.5" stroke="green" stroke-width="1" fill="none" />
<polyline points="135.0,516.5,130.0,518.0,132.0,509.0,130.0,505.0,126.0,504.0" stroke="black" stroke-width="1" fill="none" />
<polyline points="141.0,491.0,136.5,489.5,137.0,482.0,140.5,482.5,140.0,483.0" stroke="black" stroke-width="1" fill="none" />
<polyline points="131.0,479.0,130.5,487.0,134.0,493.5,134.0,492.5,140.0,506.5,136.0,504.0,140.5,511.0,138.5,518.5,133.5,506.5,140.5,502.5" stroke="orange" stroke-width="1" fill="none" />
<polyline points="161.0,508.5" stroke="green" stroke-width="1" fill="none" />
<polyline points="158.5,495.0" stroke="green" stroke-width="1" fill="none" />
<polyline points="170.0,482.0,159.0,482.5" stroke="yellow" stroke-width="1" fill="none" />
<polyline points="166.5,477.0,165.5,473.0,168.5,476.0" stroke="yellow" stroke-width="1" fill="none" />
<polyline points="160.5,463.5,162.5,468.5,172.5,470.5,174.5,473.5,169.5,475.0,160.5,484.5,167.5,484.0,167.0,493.5,173.5,492.0,171.5,490.5" stroke="yellow" stroke-width="1" fill="none" />
<polyline points="202.0,488.5,210.0,487.5,211.0,484.5,208.0,479.5,213.0,483.0,217.5,482.0,224.0,475.0" stroke="black" stroke-width="1" fill="none" />
<polyline points="230.5,462.5,233.0,457.5,230.0,456.0" stroke="yellow" stroke-width="1" fill="none" />
<polyline points="215.0,477.0,221.0,473.0,221.5,469.5,221.5,466.5,230.0,464.0,229.0,455.0,233.0,453.0,232.5,450.0,232.5,446.0,231.5,447.0,236.0,439.5,235.0,433.5,238.5,435.0,232.0,423.5,242.5,425.0,229.0,416.5,226.0,417.0,232.5,412.5,233.5,404.5,228.0,402.5,223.0,401.0" stroke="yellow" stroke-width="1" fill="none" />
<polyline points="230.0,412.0,227.5,411.0,222.5,410.0,220.5,414.5,222.0,417.0,225.0,411.0" stroke="green" stroke-width="1" fill="none" />
<polyline points="239.0,416.0,225.0,414.0,222.0,418.0,231.0,427.0,220.5,423.0,223.0,417.5,223.5,417.5" stroke="orange" stroke-width="1" fill="none" />
<polyline points="242.5,418.0,250.0,418.5,246.5,425.5,242.0,426.0,236.5,421.0,240.5,433.5,238.0,436.0,242.5,447.5,238.0,444.0,243.0,447.0,237.0,454.5,234.0,454.0,233.0,458.0,236.5,470.0,234.0,470.0,222.5,474.5,226.0,475.0,225.0,480.0,220.0,487.0,210.0,487.5" stroke="black" stroke-width="1" fill="none" />
<polyline points="193.5,498.0,198.5,492.5,207.0,492.5,206.0,496.0,208.0,491.5,215.0,492.5,216.0,489.0,220.5,484.5,229.0,479.0" stroke="orange" stroke-width="1" fill="none" />
<polyline points="200.0,452.5,201.5,443.0,197.5,451.0,197.0,447.5,187.5,447.5,192.0,449.0" stroke="green" stroke-width="1" fill="none" />
<polyline points="185.0,448.5,182.0,455.0,190.0,451.5,183.5,450.5,181.5,439.5,189.5,439.0,180.5,432.0,173.0,433.5,182.0,429.5,187.5,425.5,180.0,422.0,180.0,422.5,186.5,415.0,174.0,415.5,177.5,412.5,168.0,398.5,164.5,400.0,164.0,391.0,164.5,392.0,161.5,386.0,167.0,383.0,169.5,377.5,165.5,381.5" stroke="black" stroke-width="1" fill="none" />
<polyline points="166.0,375.0,162.0,366.0,166.0,367.5,174.5,364.5,178.5,359.0,181.5,347.0,181.0,344.0,185.0,339.5,193.0,335.0,197.5,329.0,198.0,324.0,196.5,323.5,197.5,321.0" stroke="yellow" stroke-width="1" fill="none" />
<polyline points="201.5,314.5,205.5,319.5,210.0,319.5" stroke="yellow" stroke-width="1" fill="none" />
<polyline points="187.5,319.0,195.0,305.0,194.5,301.5,203.5,289.5,203.5,291.0,210.0,279.5,216.5,272.5,220.0,260.5,222.0,258.5,224.0,248.5,233.5,246.0,232.0,243.5,239.0,234.5,242.5,228.5,245.0,223.5,255.0,217.0,256.5,218.0,259.0,213.5,250.5,213.0" stroke="orange" stroke-width="1" fill="none" />
<polyline points="272.0,226.5,264.5,230.5" stroke="black" stroke-width="1" fill="none" />
<polyline points="270.0,232.5,261.5,239.0,258.0,242.5" stroke="black" stroke-width="1" fill="none" />
<polyline points="261.5,233.5,263.5,232.5,267.5,228.5,260.0,229.5,261.5,222.0,270.0,224.5,260.5,222.5,252.5,229.0,254.0,228.0,250.5,226.5,245.0,246.5,244.5,240.5,231.5,253.5,238.5,254.5,224.5,265.0,220.0,272.5,216.0,281.0,219.0,279.0,215.0,278.0,226.5,276.0,223.0,270.5,223.5,262.0,223.0,261.0,231.0,257.5,230.5,258.0,241.0,246.5,231.5,248.0,246.0,236.0,248.0,236.0,245.5,236.0,255.5,224.0,261.5,221.5,261.0,216.0,260.0,220.0,263.0,213.5,265.5,211.0,267.5,212.0,269.5,201.5,274.5,199.5,270.5,197.0,274.0,194.5,267.5,190.5,270.0,185.0,265.0,190.5,259.5,197.0,256.5,200.5,263.5,201.0,259.0,201.5,259.5,207.0,268.5,194.0" stroke="yellow" stroke-width="1" fill="none" />
<polyline points="253.5,195.0" stroke="yellow" stroke-width="1" fill="none" />
<polyline points="247.5,207.5,257.0,214.0,252.5,213.0,247.0,221.5,241.5,229.5,244.0,231.0,226.5,235.0,230.5,234.0,222.5,236.0,223.5,227.5,233.5,228.5,226.5,218.5,226.0,218.5,225.5,218.5,217.0,218.0,219.0,217.5,231.0,201.0,222.0,204.0,221.0,205.5,220.0,204.5" stroke="black" stroke-width="1" fill="none" />
<polyline points="230.0,200.0,240.0,200.0,237.0,202.0,231.0,206.0" stroke="black" stroke-width="1" fill="none" />
<polyline points="236.5,202.5" stroke="yellow" stroke-width="1" fill="none" />
<polyline points="236.5,190.0,237.5,188.5" stroke="black" stroke-width="1" fill="none" />
<polyline points="251.0,205.5,249.5,194.0,257.0,188.5,259.5,188.0,258.5,183.5,248.5,194.0,244.0,198.0,253.0,192.0,268.5,186.0,257.5,192.5,257.0,188.5,263.5,180.0,268.5,175.5,277.5,185.0,274.0,184.0,274.5,178.0,275.5,175.5" stroke="yellow" stroke-width="1" fill="none" />
<polyline points="259.5,179.0,256.0,185.0,250.0,193.0,252.0,192.5,252.5,196.5,253.5,199.0,243.5,199.0,238.5,207.0,244.0,204.0,253.0,205.0,251.0,198.5,253.5,195.5,263.0,192.5,260.0,188.5,263.5,181.5,270.5,196.0,271.5,193.0" stroke="black" stroke-width="1" fill="none" />
<polyline points="265.0,203.5,259.5,204.5,260.0,203.0,261.5,195.0,266.0,194.5,272.0,187.0,272.5,191.5,276.0,189.5" stroke="orange" stroke-width="1" fill="none" />
<polyline points="259.5,191.0,259.5,196.0,254.0,195.0,250.5,199.5,247.0,207.5,250.5,211.5,253.5,220.0,254.5,217.0" stroke="yellow" stroke-width="1" fill="none" />
<polyline points="260.0,204.0,263.0,206.0,269.0,202.0,262.5,202.0,261.5,206.5,262.5,206.5,257.5,214.5,258.5,216.0,254.0,226.5,248.5,224.5,242.0,229.0,243.5,231.5,237.0,243.5" stroke="yellow" stroke-width="1" fill="none" />
<polyline points="" stroke="green" stroke-width="1" fill="none" />
<polyline points="" stroke="yellow" stroke-width="1" fill="none" />
<polyline points="226.5,219.5,223.5,220.0,232.0,229.5,231.5,227.0" stroke="green" stroke-width="1" fill="none" />
<polyline points="216.5,234.5,218.0,226.0" stroke="yellow" stroke-width="1" fill="none" />
<polyline points="224.0,234.0,226.5,240.5,220.5,237.5,226.5,244.5,221.0,244.0" stroke="black" stroke-width="1" fill="none" />
<polyline points="227.0,247.0,225.0,247.5,225.0,238.5,232.0,231.5,222.5,235.5,220.0,231.5,220.5,227.0,214.5,223.0,219.5,224.5,215.0,218.5" stroke="orange" stroke-width="1" fill="none" />
<polyline points="219.5,216.5,215.5,217.5,222.0,229.0,215.0,231.0,215.0,235.5,223.0,229.5,229.5,246.5,228.5,248.0,229.5,247.5,229.0,248.5" stroke="black" stroke-width="1" fill="none" />
<polyline points="224.0,252.0,217.0,262.5,216.0,271.0,213.5,274.0,203.5,284.0,197.5,286.0,195.5,293.0,196.0,304.5,189.0,318.0,190.0,319.5,183.0,326.5,177.5,327.5,173.5,330.0,176.5,334.5,167.0,335.5,158.5,335.0,157.0,336.0,153.0,342.5,145.0,350.5,143.0,345.0,140.5,343.0" stroke="yellow" stroke-width="1" fill="none" />
<polyline points="141.5,345.5,148.0,334.0,148.5,342.0,146.5,335.5,145.5,333.5,152.5,328.5,146.0,327.0,151.0,329.5" stroke="yellow" stroke-width="1" fill="none" />
<polyline points="154.5,332.5,152.0,332.0" stroke="green" stroke-width="1" fill="none" />
<polyline points="148.0,350.0,148.0,348.0,147.5,355.0" stroke="orange" stroke-width="1" fill="none" />
<polyline points="147.5,349.0,135.0,345.5,133.0,339.0,136.5,342.0,134.0,335.0,138.0,330.0,133.0,329.0,134.0,322.5,134.0,316.5,132.0,317.5,129.5,310.0,127.0,304.5,131.5,298.0,132.0,295.5,132.5,297.5" stroke="black" stroke-width="1" fill="none" />
<polyline points="130.5,299.5,130.0,296.5,127.5,296.5" stroke="green" stroke-width="1" fill="none" />
<polyline points="150.0,299.5,134.0,293.5,140.5,306.0,138.5,303.5,140.5,304.5,141.0,301.0" stroke="yellow" stroke-width="1" fill="none" />
<polyline points="125.0,287.5,133.5,292.5,134.5,289.5,131.5,289.5" stroke="yellow" stroke-width="1" fill="none" />
<polyline points="129.5,281.0,132.5,273.5,137.0,278.5,142.5,272.5,143.5,274.0" stroke="black" stroke-width="1" fill="none" />
<polyline points="152.0,265.0,158.5,262.5" stroke="yellow" stroke-width="1" fill="none" />
<polyline points="153.5,262.5,155.5,270.0,155.0,275.5,154.5,269.5,157.0,272.0,161.0,269.5" stroke="yellow" stroke-width="1" fill="none" />
<polyline points="151.0,273.0,153.0,272.5" stroke="orange" stroke-width="1" fill="none" />
<polyline points="168.5,279.0,165.5,277.0,173.0,278.5,168.5,276.5,169.5,269.0,172.5,268.5,167.0,260.0,176.0,252.5,169.5,254.0,174.0,258.0,167.5,257.5,168.0,260.5" stroke="black" stroke-width="1" fill="none" />
<polyline points="169.5,255.0,178.5,247.5,180.0,251.5,180.5,249.0" stroke="black" stroke-width="1" fill="none" />
<polyline points="170.0,258.0,173.0,262.5" stroke="black" stroke-width="1" fill="none" />
<polyline points="" stroke="orange" stroke-width="1" fill="none" />
<polyline points="180.5,262.5,184.5,259.5,185.5,259.5,188.5,260.0,185.5,264.0" stroke="yellow" stroke-width="1" fill="none" />
<polyline points="180.5,261.0" stroke="yellow" stroke-width="1" fill="none" />
<polyline points="181.0,262.0" stroke="black" stroke-width="1" fill="none" />
<polyline points="182.0,254.5,184.5,255.0,189.0,260.5,184.5,265.0,190.5,264.5,184.0,267.5" stroke="green" stroke-width="1" fill="none" />
<polyline points="204.0,262.0,206.0,265.5,207.5,265.0,209.5,267.0" stroke="black" stroke-width="1" fill="none" />
<polyline points="216.0,251.0,218.5,263.0,210.0,251.5,206.5,247.0,208.0,246.5,209.0,239.5,207.5,236.5,211.5,238.5,206.5,241.0,202.0,237.5" stroke="orange" stroke-width="1" fill="none" />
<polyline points="206.5,239.5,208.5,236.5,209.0,247.5,213.0,243.5,218.0,243.0,217.5,244.0,213.0,246.5" stroke="black" stroke-width="1" fill="none" />
<polyline points="205.0,252.0,205.5,249.5" stroke="black" stroke-width="1" fill="none" />
<polyline points="213.0,256.5,215.0,262.0" stroke="green" stroke-width="1" fill="none" />
<polyline points="211.5,256.5,214.0,257.0,215.0,247.5,211.5,246.5,207.0,240.0,207.5,243.0,208.5,237.0" stroke="yellow" stroke-width="1" fill="none" />
<polyline points="213.5,235.0,209.0,238.0,213.0,246.0,212.5,248.0,209.0,253.5,210.0,254.5,216.0,258.5,215.5,260.5" stroke="black" stroke-width="1" fill="none" />
<polyline points="207.0,254.0,214.0,253.5,209.0,246.0,206.5,242.0" stroke="yellow" stroke-width="1" fill="none" />
<polyline points="196.5,254.5,197.0,254.5,191.0,246.5" stroke="black" stroke-width="1" fill="none" />
<polyline points="192.5,250.5,196.0,252.0" stroke="green" stroke-width="1" fill="none" />
<polyline points="187.5,269.0,188.5,267.0,183.0,264.0,187.5,262.0,176.0,265.5,176.5,259.5,186.5,249.5,180.5,247.5,181.0,241.0,188.5,234.5,191.0,237.5,182.5,243.0,181.0,242.5" stroke="yellow" stroke-width="1" fill="none" />
<polyline points="188.5,228.0,190.0,223.0,196.5,216.5,201.5,214.0,190.5,227.0,198.5,232.5" stroke="black" stroke-width="1" fill="none" />
<polyline points="189.0,217.5,183.5,224.0,182.0,221.5,186.5,229.0,190.0,230.5" stroke="black" stroke-width="1" fill="none" />
<polyline points="183.5,239.0,185.5,239.0,184.0,241.0" stroke="yellow" stroke-width="1" fill="none" />
<polyline points="186.5,241.0,191.0,247.0,189.5,237.5,191.5,237.5,202.0,239.5,200.0,241.5" stroke="green" stroke-width="1" fill="none" />
<polyline points="216.0,229.0,210.5,228.0" stroke="black" stroke-width="1" fill="none" />
<polyline points="" stroke="black" stroke-width="1" fill="none" />
<polyline points="212.5,220.5,213.0,222.5,221.0,232.5,219.0,236.5" stroke="green" stroke-width="1" fill="none" />
<polyline points="227.5,197.0,227.0,196.5,219.5,213.5,224.0,221.0,219.5,212.0,222.5,216.5,229.0,228.5,235.5,226.5,227.0,229.0,235.0,232.5,237.5,244.5,234.5,241.0,236.0,249.0,231.5,247.5,229.0,251.5,223.0,254.0,221.5,263.0,216.5,260.5,219.0,265.5,220.5,272.0,215.0,281.5,208.0,279.5,216.5,293.0,202.5,288.5,201.0,292.0,210.0,305.0,191.5,303.0,203.5,306.0,206.5,312.0,199.5,315.0,191.0,315.5,191.0,323.5,200.5,321.5,198.0,311.5,202.5,313.0,212.5,313.0,216.0,308.5,222.5,295.5,225.5,297.0,232.0,287.5,227.0,280.5,241.5,278.0,235.5,268.5,239.5,267.5,250.5,265.5,248.0,259.0,253.5,256.0,255.0,252.0,261.0,252.0,265.5,252.5,269.5,244.0,282.5,251.0,280.5,247.0,281.5,251.0,291.5,248.5,286.0,247.5,303.0,256.0,301.5,254.5" stroke="yellow" stroke-width="1" fill="none" />
<polyline points="" stroke="green" stroke-width="1" fill="none" />
<polyline points="286.5,260.5,291.0,273.0,290.5,276.0,291.0,275.0,293.0,278.5" stroke="black" stroke-width="1" fill="none" />
<polyline points="" stroke="orange" stroke-width="1" fill="none" />
<polyline points="" stroke="green" stroke-width="1" fill="none" />
<polyline points="282.0,275.0,279.0,274.5,281.5,274.0" stroke="green" stroke-width="1" fill="none" />
<polyline points="280.5,263.5,279.0,264.5,273.0,265.5,271.5,262.5" stroke="orange" stroke-width="1" fill="none" />
<polyline points="266.0,266.0,272.5,267.0,275.5,264.5,276.5,263.5" stroke="orange" stroke-width="1" fill="none" />
<polyline points="266.5,267.0,268.5,264.5,269.0,268.5,270.0,267.5" stroke="black" stroke-width="1" fill="none" />
<polyline points="262.5,268.0,261.0,270.0,266.5,273.5,272.0,271.0,277.5,267.5,281.5,262.5,278.0,277.5,270.5,286.5,277.5,276.0,275.0,280.5,279.5,286.0" stroke="yellow" stroke-width="1" fill="none" />
<polyline points="267.5,283.0,263.5,281.0,261.5,272.5,259.0,270.0,261.0,268.0,258.5,271.5,256.5,274.5,254.5,274.0,252.5,273.0" stroke="orange" stroke-width="1" fill="none" />
<polyline points="270.5,272.5,268.5,278.5" stroke="orange" stroke-width="1" fill="none" />
<polyline points="251.0,270.0,247.0,268.5" stroke="black" stroke-width="1" fill="none" />
<polyline points="244.0,269.0,252.0,267.5,253.5,271.0,256.0,277.0,253.5,278.5,265.0,276.0,270.5,274.0,268.5,280.5,275.5,282.0,281.5,279.0,283.5,274.5" stroke="black" stroke-width="1" fill="none" />
<polyline points="286.5,264.0,285.0,264.0,281.5,258.5,281.0,261.0,281.0,257.0,278.0,251.0,276.0,254.0,277.0,251.0,277.0,250.5" stroke="yellow" stroke-width="1" fill="none" />
<polyline points="271.5,247.5,268.5,251.5" stroke="green" stroke-width="1" fill="none" />
<polyline points="" stroke="black" stroke-width="1" fill="none" />
<polyline points="272.0,261.5,271.5,258.0,277.0,254.5,268.0,261.5,263.0,254.5,261.0,252.0,259.5,258.0" stroke="black" stroke-width="1" fill="none" />
<polyline points="268.0,265.5,265.5,269.0,261.5,272.5" stroke="green" stroke-width="1" fill="none" />
<polyline points="278.0,269.5,284.5,269.5,285.5,271.5,290.5,278.0,286.5,276.0,287.0,275.0,286.5,279.5,288.5,274.5" stroke="orange" stroke-width="1" fill="none" />
<polyline points="" stroke="black" stroke-width="1" fill="none" />
<polyline points="265.0,243.0,257.5,250.0,259.0,247.0,256.5,256.0,243.5,263.5,244.5,265.5,242.5,267.0,237.0,272.5,233.5,279.0,232.0,285.0,228.5,288.0,226.5,285.0,219.5,298.0,215.5,298.0,216.0,302.5,209.5,300.0,207.0,311.5,199.0,313.0,199.0,314.5,202.0,319.5,199.0,323.5,191.5,332.0,191.5,333.0,183.0,331.0,185.0,347.5,185.0,344.5,177.0,348.5,172.5,356.5,175.5,356.0,167.5,361.0,168.5,372.0,164.0,372.5,161.5,377.0,159.5,375.5,152.0,389.5,163.5,388.5,160.0,393.5,169.5,400.0,178.0,406.5,176.5,406.0,174.0,402.5,174.0,399.0" stroke="yellow" stroke-width="1" fill="none" />
<polyline points="165.0,403.5,157.5,393.0,157.5,392.5,159.5,394.5,160.0,388.0" stroke="black" stroke-width="1" fill="none" />
<polyline points="" stroke="black" stroke-width="1" fill="none" />
<polyline points="138.0,378.5,139.0,377.5,140.0,370.5,140.5,371.5,142.5,372.5,141.0,367.5" stroke="black" stroke-width="1" fill="none" />
<polyline points="137.0,381.0,140.5,382.5" stroke="orange" stroke-width="1" fill="none" />
<polyline points="134.0,411.5,130.0,414.5,130.0,416.5,133.5,419.0,137.5,424.5,137.0,426.5,138.0,430.5,136.5,437.5,137.0,442.0,136.5,445.0,141.0,444.5,143.5,451.5,137.0,454.0,136.0,464.0,139.5,459.5,138.5,469.0,142.0,468.0,139.5,469.0,147.5,470.0,148.0,480.5,149.5,477.5,157.0,482.5,160.0,486.5,164.5,481.0" stroke="green" stroke-width="1" fill="none" />
<polyline points="" stroke="orange" stroke-width="1" fill="none" />
<polyline points="177.0,464.0,176.0,461.0,184.5,457.5,169.5,466.5,177.0,457.0,174.5,456.5,171.0,450.5,164.5,445.0,174.5,441.5,165.0,441.0,169.5,434.5,169.5,434.0" stroke="yellow" stroke-width="1" fill="none" />
<polyline points="169.5,436.5,161.5,439.0" stroke="black" stroke-width="1" fill="none" />
<polyline points="157.0,424.5,159.0,418.5,163.0,424.0,149.0,412.0,162.5,409.5,155.0,412.5,149.5,414.0,154.0,402.0,156.5,404.0,161.5,393.5,153.5,393.5,149.5,392.0,152.5,383.0,146.0,373.0,143.0,374.0,143.5,369.0,142.0,366.5,151.5,365.0,143.5,362.0" stroke="orange" stroke-width="1" fill="none" />
<polyline points="147.0,359.5,146.0,360.5,147.0,364.5,148.5,360.5,149.5,370.0,151.0,375.5,154.5,379.0,152.5,381.5,154.0,380.5,151.0,381.5,156.5,397.5,157.5,392.0,162.5,400.0,170.0,399.5,172.0,403.5,169.5,404.5" stroke="orange" stroke-width="1" fill="none" />
<polyline points="171.5,420.0,175.0,425.0,177.0,428.0,175.5,429.0,169.5,439.5,169.0,442.5,170.5,439.0,167.0,443.0,171.0,452.0,172.0,456.5,177.0,462.5,174.0,460.5,173.0,465.5" stroke="orange" stroke-width="1" fill="none" />
<polyline points="174.0,458.5,170.5,452.5" stroke="orange" stroke-width="1" fill="none" />
<polyline points="161.5,447.5,160.0,443.5,161.5,449.0,168.0,454.0,164.0,463.5,174.0,458.5,167.5,465.5,168.0,467.5,162.5,469.0,161.0,479.0,168.5,474.0,155.5,480.5,161.0,490.0,164.0,485.0,158.0,496.0,159.5,492.5,162.5,505.0,172.0,501.0,174.5,509.0,173.5,515.0,169.5,511.0,169.0,512.5" stroke="orange" stroke-width="1" fill="none" />
<polyline points="" stroke="black" stroke-width="1" fill="none" />
<polyline points="155.5,465.0,155.0,463.5,155.0,467.0" stroke="yellow" stroke-width="1" fill="none" />
<polyline points="" stroke="yellow" stroke-width="1" fill="none" />
<polyline points="149.5,458.5,149.5,449.0,157.0,451.5,152.0,446.5,153.5,443.0,147.5,441.0,145.0,437.5,150.0,432.5,144.0,425.5,138.0,425.0,140.0,423.5,138.0,414.5,130.0,411.5,136.5,407.0,131.0,405.0" stroke="yellow" stroke-width="1" fill="none" />
<polyline points="136.5,403.0,139.0,400.5,145.5,398.5,146.0,397.5,149.5,395.0,146.0,394.5,143.0,399.0" stroke="orange" stroke-width="1" fill="none" />
<polyline points="141.0,395.5,145.5,397.0,139.5,404.5,136.0,406.5" stroke="orange" stroke-width="1" fill="none" />
<polyline points="136.5,399.5,141.0,407.5,143.5,403.5,144.0,409.0,143.5,411.0,145.0,409.5" stroke="yellow" stroke-width="1" fill="none" />
<polyline points="157.5,419.0,152.0,424.5,151.5,430.0,158.0,425.5,154.5,435.0,150.5,437.0" stroke="orange" stroke-width="1" fill="none" />
<polyline points="164.5,442.5,162.0,440.0,172.5,445.0,176.5,445.5,182.0,440.5,172.0,427.5" stroke="black" stroke-width="1" fill="none" />
<polyline points="181.0,427.5,184.5,427.5,173.0,413.5,175.5,416.5,178.5,417.0,168.5,413.0,167.0,412.0,163.0,406.5,165.0,398.0" stroke="yellow" stroke-width="1" fill="none" />
<polyline points="167.5,400.0,171.0,407.0,177.5,415.0,172.5,421.5,167.0,420.5,170.5,429.0,162.5,431.0,162.0,431.0,159.5,431.5,160.0,441.0,159.5,437.0,164.0,430.0,176.0,428.5,174.0,424.0" stroke="yellow" stroke-width="1" fill="none" />
<polyline points="169.5,428.5,165.5,432.5,173.5,432.5,172.0,433.5" stroke="orange" stroke-width="1" fill="none" />
<polyline points="167.5,439.0,164.5,445.0,156.0,449.5,154.5,453.0,159.5,452.5,162.5,455.0,161.5,457.0,163.0,459.5" stroke="yellow" stroke-width="1" fill="none" />
<polyline points="165.0,456.0,162.0,459.0,161.0,455.5,163.5,453.5,157.5,448.5,156.0,446.0" stroke="green" stroke-width="1" fill="none" />
<polyline points="" stroke="black" stroke-width="1" fill="none" />
<polyline points="146.0,453.0,150.5,452.0,152.0,453.0,152.5,456.0,153.5,453.5,152.5,458.5,164.0,456.0" stroke="orange" stroke-width="1" fill="none" />
<polyline points="145.0,447.0" stroke="black" stroke-width="1" fill="none" />
<polyline points="143.0,451.0,149.0,461.5,150.0,462.5,148.5,471.0,155.0,468.0,149.0,473.5,155.5,478.0,154.0,477.5,156.5,480.5" stroke="green" stroke-width="1" fill="none" />
<polyline points="154.0,473.0,148.0,466.5" stroke="black" stroke-width="1" fill="none" />
<polyline points="144.5,465.0,151.0,466.5,153.0,466.5,155.0,465.5" stroke="black" stroke-width="1" fill="none" />
<polyline points="148.5,472.0,139.0,469.0,145.0,468.5,140.5,464.0" stroke="black" stroke-width="1" fill="none" />
<polyline points="140.5,453.5,141.0,453.5,146.0,460.5,139.0,461.0,147.0,475.5,144.0,470.0,153.5,475.0,155.5,480.5,155.0,479.0" stroke="green" stroke-width="1" fill="none" />
<polyline points="163.0,475.5,161.0,478.5,157.5,470.0,158.0,473.5,156.5,473.5,147.0,464.0,151.5,460.5,141.5,455.5" stroke="green" stroke-width="1" fill="none" />
<polyline points="143.0,457.0,138.0,452.0,146.0,456.5,142.5,458.5,142.5,468.5,147.5,471.0,149.5,468.0,152.0,475.5,152.0,478.0,156.0,487.5,158.0,490.0,156.5,489.0,166.5,494.5,163.0,501.0,170.5,499.5" stroke="orange" stroke-width="1" fill="none" />
<polyline points="168.0,456.5,160.5,453.0,162.5,452.0,156.5,447.5,158.0,448.5,157.5,445.5,156.5,446.0,152.0,446.0,154.0,439.0,152.0,430.0,147.0,436.0,147.0,429.5,149.5,429.0,143.0,424.0,141.5,422.5" stroke="yellow" stroke-width="1" fill="none" />
<polyline points="" stroke="green" stroke-width="1" fill="none" />
<polyline points="147.5,431.0,145.0,429.5" stroke="black" stroke-width="1" fill="none" />
<polyline points="141.0,417.5,146.0,415.0" stroke="black" stroke-width="1" fill="none" />
<polyline points="136.5,410.0,142.0,408.0,145.0,419.0,145.0,422.5,149.0,419.5,147.5,428.5,151.0,431.0,152.5,430.5" stroke="green" stroke-width="1" fill="none" />
<polyline points="157.0,419.5,152.0,428.0,154.5,429.0,152.5,412.0,150.0,410.5,150.5,402.0,150.5,396.5,152.0,392.5,146.0,396.0,143.5,394.5" stroke="orange" stroke-width="1" fill="none" />
<polyline points="154.0,396.0,145.5,401.5,145.5,403.5" stroke="black" stroke-width="1" fill="none" />
<polyline points="" stroke="orange" stroke-width="1" fill="none" />
<polyline points="149.0,402.5,142.5,399.5,142.5,396.0,137.5,398.0,126.5,403.5,126.0,401.0,124.5,402.5,122.5,396.0,121.0,397.0,122.5,397.0" stroke="yellow" stroke-width="1" fill="none" />
<polyline points="119.0,397.0,125.0,393.5,121.5,400.5,131.5,404.0,128.5,402.0" stroke="orange" stroke-width="1" fill="none" />
<polyline points="124.0,405.5,137.0,406.0,135.5,394.0,140.5,394.0,142.0,386.0,138.5,394.5,141.0,385.0,138.0,374.0,143.5,372.0,147.5,372.5,152.5,368.5,150.5,365.5,145.5,361.0,138.0,351.5,142.5,351.5,147.0,349.0,141.5,348.5,140.0,343.0,138.5,338.0,136.5,337.0,140.0,326.5,136.5,324.0,131.0,312.5,133.5,312.5,132.5,313.5,128.0,307.5,129.0,302.0,129.0,295.0,134.5,290.5,135.0,290.0,141.5,286.5,133.0,280.0,128.0,273.5" stroke="orange" stroke-width="1" fill="none" />
<polyline points="125.0,267.5,130.0,274.0,132.5,281.0,130.0,286.5,126.5,288.5,128.0,296.0,127.0,299.0,123.5,294.5,128.5,305.5,118.5,304.5,120.0,312.5,117.0,314.0,120.0,321.0,124.5,322.5,122.5,328.5,119.5,333.5,120.0,335.5,124.0,335.0" stroke="black" stroke-width="1" fill="none" />
<polyline points="121.0,342.5" stroke="black" stroke-width="1" fill="none" />
<polyline points="119.0,345.5,120.0,345.5,124.0,360.0,123.0,365.5,119.5,364.5,119.5,368.0,119.0,368.0,116.5,377.0,118.5,385.0,116.0,384.0,118.5,390.0,119.5,398.5,121.0,401.0" stroke="green" stroke-width="1" fill="none" />
<polyline points="127.5,401.0,131.0,394.5,118.5,389.0,122.0,392.0,127.5,382.5,128.0,381.0,123.0,378.0,125.5,375.0,118.5,368.0,126.0,375.0,121.0,375.5" stroke="black" stroke-width="1" fill="none" />
<polyline points="125.5,374.0,124.0,381.5,124.5,381.5" stroke="orange" stroke-width="1" fill="none" />
<polyline points="120.5,390.0,122.5,387.5,128.5,397.5,128.0,397.0,127.0,394.0" stroke="green" stroke-width="1" fill="none" />
<polyline points="129.5,392.5,123.5,390.0,130.0,393.0,141.5,390.5,137.0,395.0,140.5,394.0,140.5,393.0" stroke="yellow" stroke-width="1" fill="none" />
<polyline points="134.0,389.0" stroke="green" stroke-width="1" fill="none" />
<polyline points="115.5,403.5,117.0,397.0,119.5,396.5,121.0,396.0" stroke="yellow" stroke-width="1" fill="none" />
<polyline points="124.5,418.5,123.0,411.5,127.0,408.0,125.0,405.0,128.0,416.5,129.0,417.5,135.5,421.5,138.0,421.5,132.5,431.0,135.5,433.0" stroke="orange" stroke-width="1" fill="none" />
<polyline points="127.5,416.0" stroke="green" stroke-width="1" fill="none" />
<polyline points="132.0,414.0,129.5,411.5" stroke="black" stroke-width="1" fill="none" />
<polyline points="148.5,411.5" stroke="green" stroke-width="1" fill="none" />
<polyline points="146.0,403.0,144.5,406.0,142.0,410.0,140.0,408.0" stroke="orange" stroke-width="1" fill="none" />
<polyline points="" stroke="yellow" stroke-width="1" fill="none" />
<polyline points="155.0,396.0,151.0,391.5,151.5,393.5,148.0,392.0" stroke="black" stroke-width="1" fill="none" />
<polyline points="169.5,404.5,170.5,399.0,170.5,406.5,177.0,408.5,178.0,413.0,173.0,415.5,178.5,422.5" stroke="green" stroke-width="1" fill="none" />
<polyline points="174.0,417.0,164.0,417.5,159.0,409.0,161.0,402.0,156.0,400.0,148.0,398.0,145.0,392.5,145.0,389.5,138.5,393.0,139.5,388.0,136.0,382.0,143.0,392.0,148.0,384.5,130.5,377.5,135.5,379.5,136.0,369.0,140.5,357.0,137.5,365.5,139.0,356.5,146.0,352.5,141.5,357.5,134.0,344.0,132.5,340.0,129.0,334.5,128.0,334.0,138.5,329.5,134.0,321.5" stroke="green" stroke-width="1" fill="none" />
<polyline points="116.5,327.0,124.0,333.0,124.5,336.0,119.5,342.0" stroke="orange" stroke-width="1" fill="none" />
<polyline points="118.5,350.5,125.5,356.5,123.5,356.5,122.5,366.5,121.0,369.5,122.5,371.0,125.5,379.0,129.0,379.0,129.5,381.0,135.0,388.0,136.5,383.5,134.5,395.0,135.0,394.5" stroke="yellow" stroke-width="1" fill="none" />
<polyline points="" stroke="orange" stroke-width="1" fill="none" />
<polyline points="" stroke="orange" stroke-width="1" fill="none" />
<polyline points="138.5,362.0,130.5,352.0,133.5,353.5,132.5,358.0" stroke="black" stroke-width="1" fill="none" />
<polyline points="135.0,356.0,132.0,354.5" stroke="yellow" stroke-width="1" fill="none" />
<polyline points="131.0,352.0,132.0,353.5,129.5,358.0,142.0,368.0,135.5,370.0,134.5,370.5,134.5,368.0" stroke="yellow" stroke-width="1" fill="none" />
<polyline points="143.0,362.0,144.5,355.5,143.5,354.5,144.5,347.0,142.5,348.5,135.0,345.0,136.0,339.5,134.5,327.0,135.0,337.5,124.0,329.5" stroke="black" stroke-width="1" fill="none" />
<polyline points="132.0,338.5,144.5,347.0,138.0,346.0,138.5,348.0" stroke="green" stroke-width="1" fill="none" />
<polyline points="145.0,338.5,147.5,339.5" stroke="black" stroke-width="1" fill="none" />
<polyline points="131.0,346.0,134.5,347.0,137.0,346.0,143.5,341.0" stroke="green" stroke-width="1" fill="none" />
<polyline points="131.0,339.5,131.0,337.5" stroke="orange" stroke-width="1" fill="none" />
<polyline points="115.0,349.5,122.0,344.5,118.5,352.5,114.0,354.0,118.5,364.5,118.0,365.0,116.5,368.0,114.0,372.5,119.0,376.5,121.5,380.0,119.5,391.0,113.0,395.0,119.0,397.5,118.0,406.0,120.0,398.5,116.5,407.5,115.0,412.0,109.0,411.5,115.5,413.0,117.5,410.5" stroke="orange" stroke-width="1" fill="none" />
<polyline points="120.5,410.5,119.0,411.5" stroke="orange" stroke-width="1" fill="none" />
<polyline points="122.5,422.0,123.5,421.0" stroke="black" stroke-width="1" fill="none" />
<polyline points="136.5,424.0,127.0,425.5" stroke="yellow" stroke-width="1" fill="none" />
<polyline points="122.5,417.0" stroke="green" stroke-width="1" fill="none" />
<polyline points="119.0,434.5,111.0,433.0,122.0,435.0,119.0,443.0,125.5,446.0,121.5,440.5,124.0,440.0" stroke="black" stroke-width="1" fill="none" />
<polyline points="118.5,445.5" stroke="black" stroke-width="1" fill="none" />
<polyline points="116.0,455.5" stroke="orange" stroke-width="1" fill="none" />
<polyline points="125.0,447.5,125.5,449.5,125.5,450.5" stroke="yellow" stroke-width="1" fill="none" />
<polyline points="106.5,447.0,110.5,441.0,105.0,438.5,107.0,437.0" stroke="yellow" stroke-width="1" fill="none" />
<polyline points="100.0,434.5,100.5,434.5" stroke="orange" stroke-width="1" fill="none" />
<polyline points="87.0,457.5,97.5,460.5,89.5,451.5,86.0,455.0,94.0,458.5,100.0,446.5,91.0,453.0,92.5,453.5" stroke="yellow" stroke-width="1" fill="none" />
<polyline points="82.0,460.5,85.5,460.0,95.0,454.0,95.0,452.0" stroke="black" stroke-width="1" fill="none" />
<polyline points="104.0,462.0,100.0,461.0,89.5,464.5" stroke="black" stroke-width="1" fill="none" />
<polyline points="102.0,494.0,105.5,494.5,103.0,503.5,108.0,506.0,108.5,510.0,109.0,512.0,106.5,506.5,101.5,504.5,106.5,505.0" stroke="black" stroke-width="1" fill="none" />
<polyline points="108.0,511.0,114.0,510.5,111.0,500.0,109.0,490.0,109.5,488.0,112.5,485.0" stroke="green" stroke-width="1" fill="none" />
<polyline points="119.0,488.5,112.0,498.0,112.5,497.5,111.0,503.5,119.5,512.5,113.0,514.0,112.0,511.0" stroke="green" stroke-width="1" fill="none" />
<polyline points="98.0,504.0" stroke="orange" stroke-width="1" fill="none" />
<polyline points="104.0,493.5,96.5,494.0,97.5,505.0,104.5,507.5,107.0,509.5,109.5,513.0,108.0,514.0" stroke="yellow" stroke-width="1" fill="none" />
<polyline points="120.5,509.0,117.0,501.5,119.5,503.0,121.0,501.5,122.5,492.0,118.5,494.0,119.5,487.0,120.5,479.0" stroke="green" stroke-width="1" fill="none" />
<polyline points="123.0,484.0,123.0,489.0,126.5,488.0,126.5,493.5,130.0,497.0,127.5,507.5" stroke="yellow" stroke-width="1" fill="none" />
<polyline points="156.5,450.0,156.0,447.0,147.5,446.0,148.0,434.5,137.5,429.5,134.0,422.5,128.5,426.5,128.0,423.0" stroke="black" stroke-width="1" fill="none" />
<polyline points="135.5,424.5,138.0,424.0,128.0,426.0,139.0,432.0,142.5,434.5,142.5,441.5,147.0,446.0,145.0,450.5,141.0,454.0,138.0,459.0,133.5,458.5,131.5,472.5,134.5,458.0,138.5,458.5,138.5,460.5,136.0,461.5" stroke="green" stroke-width="1" fill="none" />
<polyline points="139.5,440.0,141.5,430.0,136.5,428.5" stroke="orange" stroke-width="1" fill="none" />
<polyline points="125.5,428.5,123.5,421.0,127.5,415.5,129.0,416.0" stroke="black" stroke-width="1" fill="none" />
<polyline points="108.5,418.0,117.0,429.5,112.0,428.0" stroke="yellow" stroke-width="1" fill="none" />
<polyline points="122.0,432.0,126.0,436.5" stroke="black" stroke-width="1" fill="none" />
<polyline points="104.5,415.0,111.5,424.0,107.5,426.0,108.0,434.5,108.0,436.0,109.5,438.0,105.5,446.5" stroke="black" stroke-width="1" fill="none" />
<polyline points="103.5,436.0,97.5,443.5,93.5,443.5,87.5,441.5,95.0,438.5,101.0,436.5,104.0,437.0,102.5,431.0,104.0,424.5,113.5,423.0" stroke="black" stroke-width="1" fill="none" />
<polyline points="83.5,418.5,88.5,425.0,94.0,426.5,93.0,431.0,93.0,426.0,93.0,425.5,92.5,425.5" stroke="black" stroke-width="1" fill="none" />
<polyline points="87.5,421.0,87.5,422.0,96.0,425.0,78.0,427.5,87.0,420.5,88.0,419.0,93.5,425.0" stroke="black" stroke-width="1" fill="none" />
<polyline points="93.0,404.0,95.0,406.0,97.5,402.5" stroke="black" stroke-width="1" fill="none" />
<polyline points="" stroke="black" stroke-width="1" fill="none" />
<polyline points="98.0,389.5,87.0,397.5,97.5,393.5,95.0,398.0,91.5,410.5,90.0,405.0" stroke="black" stroke-width="1" fill="none" />
<polyline points="98.0,406.0,95.0,409.5,93.5,406.0,95.5,406.0,95.5,404.0,97.0,403.5,93.0,404.0,96.5,395.0,91.5,393.5,89.0,380.0,82.0,386.0,85.0,388.0,86.0,387.0" stroke="yellow" stroke-width="1" fill="none" />
<polyline points="80.0,385.5,84.0,392.5,72.5,399.5,71.5,404.0,70.0,403.5,76.5,406.5,68.5,420.0,69.5,419.5,67.5,417.0,69.0,421.0,65.5,423.0,68.0,428.0,75.0,428.0,69.0,435.0,70.5,434.5,64.5,439.0,68.5,446.5,73.5,446.5,72.5,448.0,69.0,452.5,67.5,459.5,70.0,461.5,77.5,464.0,72.0,468.0,62.5,478.5,69.0,479.5,62.5,479.5,64.0,490.0,67.5,492.5,62.0,502.0,67.0,499.5,65.5,503.0,64.5,503.0,63.5,511.5,55.5,514.5,65.0,505.0,61.0,506.5" stroke="black" stroke-width="1" fill="none" />
<polyline points="62.0,503.0,65.5,509.5" stroke="orange" stroke-width="1" fill="none" />
<polyline points="71.0,486.0,72.0,483.5,69.0,472.0" stroke="green" stroke-width="1" fill="none" />
<polyline points="66.0,477.0,72.0,475.0,63.5,481.0,68.5,478.0,66.0,483.0,67.5,485.0,67.5,488.0,65.5,495.0" stroke="orange" stroke-width="1" fill="none" />
<polyline points="67.0,465.5,65.5,468.0,76.5,456.0,81.5,453.5,79.5,453.0" stroke="orange" stroke-width="1" fill="none" />
<polyline points="71.0,462.0,78.0,471.5,76.5,469.0" stroke="orange" stroke-width="1" fill="none" />
<polyline points="73.5,451.5,73.0,451.5" stroke="black" stroke-width="1" fill="none" />
<polyline points="61.0,452.5,63.5,452.0,63.5,464.5,69.5,460.0,65.5,469.0,65.5,465.5,68.0,473.0,73.0,476.0,76.5,478.0" stroke="yellow" stroke-width="1" fill="none" />
<polyline points="33.5,490.5,34.0,489.5,28.5,494.0,30.5,501.5,30.0,503.5" stroke="black" stroke-width="1" fill="none" />
<polyline points="18.5,506.0,18.0,496.0,18.5,502.5,16.5,506.0,17.0,505.5,13.5,511.5" stroke="green" stroke-width="1" fill="none" />
<polyline points="15.0,497.0" stroke="black" stroke-width="1" fill="none" />
<polyline points="" stroke="black" stroke-width="1" fill="none" />
<polyline points="13.5,419.0,7.5,425.5,10.0,422.0,5.0,430.0,9.0,430.5,9.0,438.0,12.5,445.0,7.5,444.5,14.5,445.5,12.0,448.0,17.5,453.5,13.5,455.5,12.0,463.5,13.0,461.5,16.0,474.0,16.5,472.5,14.0,480.0,12.5,478.5,11.5,480.0" stroke="orange" stroke-width="1" fill="none" />
<polyline points="43.5,468.5,33.0,464.0,33.0,453.0,30.0,460.5,31.0,453.5,30.5,443.0" stroke="green" stroke-width="1" fill="none" />
<polyline points="25.5,417.5,25.5,418.0,26.5,415.0,27.5,416.0" stroke="orange" stroke-width="1" fill="none" />
<polyline points="25.0,413.0,24.5,418.5,26.0,417.5,26.0,425.0,22.0,426.0,24.0,437.5,31.5,442.5,20.0,440.5,26.5,444.0,28.5,447.5,28.5,451.5,21.5,453.5,27.0,464.0,27.5,460.5,26.5,469.0,29.0,475.0,31.0,476.5,25.0,475.5,32.0,486.5,26.5,488.0,27.5,495.5,35.5,497.5" stroke="orange" stroke-width="1" fill="none" />
<polyline points="57.5,432.5,65.5,432.5,71.0,439.5,72.0,436.5" stroke="orange" stroke-width="1" fill="none" />
<polyline points="69.5,424.0,70.5,422.0,65.5,424.0,68.0,424.0,70.0,415.0,69.5,412.5,63.5,406.0,69.5,402.5,76.5,399.5,71.0,397.5,77.0,395.0,70.0,400.5,74.0,396.5,69.5,395.5" stroke="orange" stroke-width="1" fill="none" />
<polyline points="74.5,403.5,78.5,399.5" stroke="yellow" stroke-width="1" fill="none" />
<polyline points="" stroke="orange" stroke-width="1" fill="none" />
<polyline points="67.5,410.5,70.0,415.0,73.5,403.5,67.0,406.0,70.0,417.5,64.0,420.0,62.5,425.5,65.5,423.0" stroke="yellow" stroke-width="1" fill="none" />
<polyline points="74.5,415.0,72.5,423.0,75.5,423.0" stroke="green" stroke-width="1" fill="none" />
<polyline points="98.5,444.0,98.0,441.5,101.5,436.5,99.5,437.5,96.5,443.0" stroke="orange" stroke-width="1" fill="none" />
<polyline points="109.0,402.0" stroke="black" stroke-width="1" fill="none" />
<polyline points="106.5,399.0,108.0,399.0,109.5,407.5,107.5,408.5,99.0,414.5,94.5,414.0,94.5,417.0" stroke="yellow" stroke-width="1" fill="none" />
<polyline points="97.0,408.0,103.5,397.5,107.5,402.5,100.5,396.5,104.5,397.5" stroke="yellow" stroke-width="1" fill="none" />
<polyline points="98.5,371.5,102.5,370.0,107.0,376.5,105.5,365.5,101.5,363.0,105.0,360.0,109.0,359.5,109.5,356.0,109.0,358.0,111.5,349.5,106.0,342.5,107.0,333.0,105.5,335.5" stroke="orange" stroke-width="1" fill="none" />
<polyline points="106.5,340.0,102.5,330.0,104.0,337.0,104.0,334.5" stroke="orange" stroke-width="1" fill="none" />
<polyline points="" stroke="green" stroke-width="1" fill="none" />
<polyline points="104.0,326.0,109.5,308.0,117.0,314.0,122.0,308.0,124.0,310.0,123.5,312.5,114.5,317.0,109.5,327.0,106.0,312.0,105.5,308.5,113.0,310.0,115.0,321.5,104.5,318.5,104.5,320.0,111.0,318.0,114.5,310.5,116.5,303.5,116.0,300.5,118.5,302.5" stroke="green" stroke-width="1" fill="none" />
<polyline points="116.5,306.5,117.5,311.0,121.5,313.0,118.5,320.0,112.5,320.5,116.5,319.5,110.0,330.5,104.0,332.5,100.5,339.5,95.5,341.0,101.5,344.5,95.0,339.5,100.5,341.5" stroke="black" stroke-width="1" fill="none" />
<polyline points="" stroke="green" stroke-width="1" fill="none" />
<polyline points="96.0,364.0,95.0,363.5,94.0,366.5,92.0,374.5,95.5,378.0,89.5,381.0,93.0,388.0,84.5,392.5,90.5,391.5,87.5,388.5,88.5,400.0,92.5,404.0,90.0,409.5,90.5,412.0,90.5,414.0,104.0,409.5,106.5,418.0,107.5,406.0,116.5,401.5" stroke="black" stroke-width="1" fill="none" />
<polyline points="122.0,370.5,123.0,365.0" stroke="black" stroke-width="1" fill="none" />
<polyline points="120.5,371.0,122.0,372.5,130.5,384.5,130.0,385.0,132.0,383.5,126.0,387.0,135.5,394.5,132.5,396.5,132.5,394.0" stroke="yellow" stroke-width="1" fill="none" />
<polyline points="120.5,370.0,118.0,362.0,122.0,361.0" stroke="black" stroke-width="1" fill="none" />
<polyline points="126.0,372.5,120.5,372.5,130.5,375.5" stroke="orange" stroke-width="1" fill="none" />
<polyline points="124.0,362.5,125.0,360.5" stroke="orange" stroke-width="1" fill="none" />
<polyline points="121.5,360.0,130.0,359.0,131.5,364.5" stroke="yellow" stroke-width="1" fill="none" />
<polyline points="170.5,364.0,175.0,355.5,181.0,356.5,180.0,345.5,182.0,343.0,183.5,341.0" stroke="orange" stroke-width="1" fill="none" />
<polyline points="183.0,327.0,184.5,332.5,177.0,338.5,171.5,340.5,166.0,347.0,168.5,352.0,160.0,359.0,159.5,368.0,160.0,363.5,164.5,367.5,165.0,354.0,176.5,355.5,175.5,347.0,176.0,343.0,178.0,337.0,187.5,339.5,188.5,330.0,187.0,334.5,192.0,327.0,190.5,333.0,191.5,332.0" stroke="black" stroke-width="1" fill="none" />
<polyline points="194.0,339.0,187.5,347.5,190.5,345.5,186.0,347.5" stroke="yellow" stroke-width="1" fill="none" />
<polyline points="195.0,356.0,194.0,348.5,194.5,350.0,192.5,343.5" stroke="orange" stroke-width="1" fill="none" />
<polyline points="166.0,357.5,164.5,366.0,166.5,358.0,167.5,361.5" stroke="black" stroke-width="1" fill="none" />
<polyline points="163.0,364.0,165.5,366.5,162.0,362.0,164.5,362.5,157.5,369.0,156.0,367.0,163.0,362.5,167.0,350.5,168.0,355.5,171.0,347.0,177.0,342.5,180.0,339.5,178.0,335.5,183.5,332.5,173.5,329.5,169.0,330.0,170.0,336.0,164.0,340.5,165.5,339.5,161.5,332.5,168.0,332.5,168.5,331.0,168.0,333.0" stroke="black" stroke-width="1" fill="none" />
<polyline points="163.0,337.0,163.5,331.5,163.0,338.5,164.5,330.0,167.5,328.5,169.5,323.5,167.0,318.0" stroke="yellow" stroke-width="1" fill="none" />
<polyline points="" stroke="orange" stroke-width="1" fill="none" />
<polyline points="174.0,315.0,166.5,318.5,168.5,329.0,165.5,317.0,165.0,324.0,157.5,328.0,150.0,339.0,154.0,342.0,154.0,335.5,139.5,348.5,143.5,335.0,143.5,336.0,136.5,340.5,129.5,326.0,138.0,325.0,134.5,321.5,132.5,314.0,127.0,306.5,132.5,313.0,131.0,303.5,129.0,307.0,135.0,300.5,131.5,297.0,139.0,292.0,139.5,295.0,138.5,283.5,136.0,279.5,135.5,278.0,131.0,280.5,140.0,284.0,140.5,277.5,146.0,275.0,144.5,270.5,139.5,272.5,152.5,264.5,156.0,252.5,160.5,253.5,163.0,252.5,160.5,244.0,161.0,242.0,151.5,250.5,149.5,247.0" stroke="orange" stroke-width="1" fill="none" />
<polyline points="147.5,251.5" stroke="green" stroke-width="1" fill="none" />
<polyline points="144.5,254.5,142.5,252.0,146.0,249.5,143.0,251.5,142.0,250.0,151.5,256.0,146.5,257.5,146.0,258.5" stroke="yellow" stroke-width="1" fill="none" />
<polyline points="141.5,269.0,138.5,270.5,137.0,278.5,137.0,273.5,133.5,278.5" stroke="black" stroke-width="1" fill="none" />
<polyline points="150.5,271.5,145.5,275.0,153.0,266.5,156.5,259.5,158.5,257.0,157.5,262.5,156.5,261.0,151.0,269.5,149.5,271.0,147.0,274.5,147.0,275.0,144.0,288.0,148.5,288.0,154.0,287.5,156.5,288.5,163.5,291.0,166.0,302.5,159.0,305.5,159.0,306.5,164.0,312.0,165.0,317.5,156.5,316.5,155.0,317.5,163.0,317.5,166.5,314.5,169.0,315.5,166.0,311.0,174.5,306.0,171.0,296.5,183.0,288.0,181.0,294.0" stroke="green" stroke-width="1" fill="none" />
<polyline points="180.5,297.0" stroke="yellow" stroke-width="1" fill="none" />
<polyline points="" stroke="green" stroke-width="1" fill="none" />
<polyline points="180.0,298.5,172.0,304.0,176.0,302.5,179.0,303.5,180.5,312.5,177.5,315.0" stroke="black" stroke-width="1" fill="none" />
<polyline points="167.5,315.0,176.0,311.5,173.0,311.0,174.5,309.5" stroke="black" stroke-width="1" fill="none" />
<polyline points="164.5,307.0,165.5,299.0,174.0,296.5,176.0,294.5,170.5,288.0,167.0,285.5,173.5,296.5,166.5,301.5,164.5,286.5,169.0,284.0,177.0,283.0,174.5,280.0,176.0,282.0,164.5,279.5,165.5,286.0,165.0,292.5,165.5,287.0,171.5,295.5,162.0,275.0,169.0,280.0,163.5,273.5,165.5,271.0,163.0,265.5,170.0,264.0,170.5,260.0,170.0,262.0,172.0,259.5,178.0,244.5,176.0,246.5,173.0,238.5,172.5,240.0,178.5,234.5,177.5,238.5,175.5,239.5" stroke="yellow" stroke-width="1" fill="none" />
<polyline points="177.5,232.5,184.5,235.5,178.0,245.0,175.0,246.0,176.5,247.5,176.0,249.5,176.0,254.0,183.5,259.5,184.0,262.0" stroke="black" stroke-width="1" fill="none" />
<polyline points="172.5,247.0,184.0,247.0,191.5,254.0,186.0,256.0" stroke="yellow" stroke-width="1" fill="none" />
<polyline points="222.5,273.0,222.5,271.5,222.0,274.5,230.5,272.0,232.0,270.0" stroke="yellow" stroke-width="1" fill="none" />
<polyline points="217.5,323.5,214.5,319.5,220.0,322.5,214.0,330.0,216.0,326.0,217.5,330.5,216.5,333.5,225.5,343.5,216.5,348.0,218.5,342.5,218.0,359.0,221.5,350.5" stroke="black" stroke-width="1" fill="none" />
<polyline points="251.5,377.5,246.5,381.0,253.5,381.5,253.5,383.5,253.0,377.5,253.5,388.0,262.0,380.5,265.0,385.0,264.0,382.5" stroke="black" stroke-width="1" fill="none" />
<polyline points="264.0,386.5,261.5,383.5,253.0,392.5,253.5,395.0,253.5,390.5,244.5,395.0,242.5,396.0,241.5,389.0,240.5,392.0" stroke="green" stroke-width="1" fill="none" />
<polyline points="271.0,350.0" stroke="black" stroke-width="1" fill="none" />
<polyline points="276.0,349.0,276.0,351.5,276.0,349.0,277.5,350.0,279.0,349.5" stroke="orange" stroke-width="1" fill="none" />
<polyline points="222.0,364.5,219.5,360.0,219.0,356.5,218.0,347.0,221.5,352.5,218.0,343.5,225.0,336.5,223.0,336.5,220.5,327.0,225.0,324.0,222.5,317.5,216.5,311.0,222.0,315.5,218.5,305.5,221.5,301.0,217.5,311.0,223.0,312.0" stroke="yellow" stroke-width="1" fill="none" />
<polyline points="173.5,291.0,173.5,290.5" stroke="orange" stroke-width="1" fill="none" />
<polyline points="169.0,295.5,176.5,298.0,178.5,303.0,175.5,306.5,171.5,316.5" stroke="green" stroke-width="1" fill="none" />
<polyline points="162.0,311.0,161.5,311.0,158.0,309.5,154.0,308.0,155.0,311.5" stroke="yellow" stroke-width="1" fill="none" />
<polyline points="161.0,313.5,163.5,310.0,162.5,310.0" stroke="orange" stroke-width="1" fill="none" />
<polyline points="160.5,316.0,158.5,313.5" stroke="black" stroke-width="1" fill="none" />
<polyline points="158.0,295.5,156.5,296.5" stroke="yellow" stroke-width="1" fill="none" />
<polyline points="159.0,300.5" stroke="black" stroke-width="1" fill="none" />
<polyline points="162.5,293.0,158.0,290.5,151.0,287.0" stroke="black" stroke-width="1" fill="none" />
<polyline points="154.0,286.5,156.0,287.5,155.5,288.0" stroke="yellow" stroke-width="1" fill="none" />
<polyline points="171.5,296.0,178.0,293.0,174.5,293.0,173.5,296.0" stroke="yellow" stroke-width="1" fill="none" />
<polyline points="178.5,298.5,177.5,299.5,176.0,308.5,168.5,311.5,167.5,306.5,165.0,310.5" stroke="black" stroke-width="1" fill="none" />
<polyline points="153.5,291.5,153.5,290.5,153.0,293.0,153.0,287.0" stroke="yellow" stroke-width="1" fill="none" />
<polyline points="160.5,293.0,157.0,294.0,167.5,297.5,171.0,290.5" stroke="orange" stroke-width="1" fill="none" />
<polyline points="170.5,283.0,174.0,295.0,170.5,299.0,170.5,305.0,163.0,311.0,164.5,312.5,167.0,313.0,162.0,314.0,169.5,314.0,167.5,315.0,164.0,330.5,162.5,334.0,153.0,334.0,158.5,339.0,159.0,336.5,152.0,349.0,145.5,351.5,151.5,355.5,148.5,355.5,146.5,348.0,145.5,348.5,154.0,351.5,160.5,356.0,162.0,345.5,160.5,341.5" stroke="yellow" stroke-width="1" fill="none" />
<polyline points="" stroke="black" stroke-width="1" fill="none" />
<polyline points="159.0,288.5,159.5,288.0,161.5,279.0,166.0,274.5,166.0,275.0,162.0,267.5,157.0,267.5,163.5,260.0,159.0,255.5" stroke="orange" stroke-width="1" fill="none" />
<polyline points="165.5,263.5,170.0,259.0,168.0,266.5,165.0,274.5,168.0,282.5,166.5,276.5" stroke="green" stroke-width="1" fill="none" />
<polyline points="165.5,283.0" stroke="yellow" stroke-width="1" fill="none" />
<polyline points="150.5,276.5,154.0,277.5,151.5,271.0,156.5,280.5,157.5,279.0,158.0,286.0,163.0,279.5,173.5,287.0,167.0,284.5,179.5,281.0,174.5,287.5,178.0,279.0" stroke="black" stroke-width="1" fill="none" />
<polyline points="172.0,294.0,166.0,293.0,167.5,290.5,166.0,288.5" stroke="green" stroke-width="1" fill="none" />
<polyline points="164.5,286.5,163.5,280.5,160.5,293.5,163.5,288.0,162.0,288.5,161.5,289.5,160.5,289.0" stroke="orange" stroke-width="1" fill="none" />
<polyline points="157.0,294.5,149.0,294.0,149.0,288.0,151.0,280.0,151.0,273.5,150.0,272.0,153.0,268.5,157.5,266.0,165.0,267.5,161.0,255.0,163.5,258.5,167.0,249.0,163.5,247.5,165.5,244.5,164.0,237.0,164.5,248.5,157.0,258.0,151.5,259.0,147.5,258.5,144.5,261.0,144.5,257.0,136.0,268.5,131.5,265.5,135.5,265.0,128.5,256.0,130.0,269.5,126.5,273.0,135.5,263.5,130.0,255.0,134.5,256.0,126.5,254.5,128.5,246.5,136.5,242.5,134.0,245.0,139.0,240.0,137.5,232.5,135.5,231.5,137.0,224.5,130.0,227.5,133.0,219.5,135.0,213.0,126.5,213.0,129.5,203.5,119.0,203.5,124.0,203.5,116.0,197.0,123.5,190.5,123.5,182.5,119.0,181.0,117.0,179.5,120.5,172.5,118.5,166.5,118.5,165.5,121.0,163.0,119.0,150.0,118.5,146.5,119.5,144.0,124.0,146.0,125.5,140.0,122.0,134.0,120.0,133.5,129.0,132.5,125.5,125.0,129.5,122.0,132.5,118.5,131.5,112.0,134.5,111.0,135.0,103.5,138.5,104.0,133.5,107.5,141.5,97.0,136.0,104.0,135.5,103.5,133.5,100.5" stroke="green" stroke-width="1" fill="none" />
<polyline points="123.5,124.5,133.0,109.0,139.5,102.0,136.5,108.5,136.0,109.5,138.0,119.0,133.0,125.5,126.5,122.0,133.5,133.5,132.5,135.5,129.0,138.5,133.5,141.0,134.0,148.0,133.0,145.5,126.0,145.5,129.5,148.0,127.0,150.5,129.0,155.5,126.0,158.0" stroke="yellow" stroke-width="1" fill="none" />
<polyline points="125.5,150.5,135.0,152.0,132.5,156.5,130.0,157.0,131.0,162.0,128.5,167.5,124.5,172.5,129.0,163.0,126.0,162.5,132.0,164.5,131.0,168.5" stroke="green" stroke-width="1" fill="none" />
<polyline points="135.0,179.5,139.5,180.0,126.0,177.5,134.0,176.0,137.0,174.5" stroke="black" stroke-width="1" fill="none" />
<polyline points="133.5,172.5,133.0,173.0,130.5,179.5,144.0,171.5,131.5,170.5,136.0,168.0,130.5,171.0" stroke="black" stroke-width="1" fill="none" />
<polyline points="141.0,174.5,136.5,180.5" stroke="black" stroke-width="1" fill="none" />
<polyline points="139.5,177.0,139.0,185.5,133.0,180.0,139.0,178.5,138.5,175.0,141.5,173.5" stroke="black" stroke-width="1" fill="none" />
<polyline points="148.0,175.0,140.5,180.5,145.0,180.0,138.0,190.0,135.5,188.0,142.5,199.0,140.0,193.0,140.0,197.5,143.0,194.5,146.0,197.0,145.5,202.0" stroke="orange" stroke-width="1" fill="none" />
<polyline points="148.5,195.0" stroke="green" stroke-width="1" fill="none" />
<polyline points="150.0,193.0,150.0,189.5,147.0,190.5" stroke="green" stroke-width="1" fill="none" />
<polyline points="149.5,200.5,137.5,196.5" stroke="green" stroke-width="1" fill="none" />
<polyline points="151.0,200.5,148.0,196.0,145.0,195.0,147.0,191.5,143.5,185.0,140.5,191.0,148.0,176.5,144.0,181.0,143.5,170.5" stroke="orange" stroke-width="1" fill="none" />
<polyline points="139.0,177.0,145.0,183.0,147.0,191.5,152.0,185.5,146.0,190.0,141.5,183.0" stroke="orange" stroke-width="1" fill="none" />
<polyline points="151.0,188.5" stroke="green" stroke-width="1" fill="none" />
<polyline points="153.0,194.5,162.0,180.0,162.0,180.5,172.0,182.5,176.5,170.5,173.5,167.0,177.0,167.0,182.0,160.0,186.5,160.5,188.5,154.5,195.5,153.5,200.5,148.0,195.5,148.5" stroke="black" stroke-width="1" fill="none" />
<polyline points="207.0,150.0,203.0,148.0,215.5,154.5" stroke="yellow" stroke-width="1" fill="none" />
<polyline points="222.0,159.0,229.0,154.0,223.5,155.5,218.5,155.5,217.5,158.0,218.0,156.0" stroke="orange" stroke-width="1" fill="none" />
<polyline points="219.0,146.5,217.5,147.5,223.5,156.5,228.5,161.0" stroke="yellow" stroke-width="1" fill="none" />
<polyline points="220.5,175.5,226.0,168.0,221.5,171.5,217.0,185.0,218.0,188.0,212.5,191.0,206.5,190.5,205.5,192.0" stroke="green" stroke-width="1" fill="none" />
<polyline points="213.5,187.0,213.0,187.0,211.0,189.5,218.0,176.5,220.0,173.5,228.0,178.0,234.5,174.5,235.5,174.0,239.0,171.0,244.0,172.5,239.5,174.0,237.5,177.0,235.5,177.0,232.5,177.0,235.0,175.5" stroke="green" stroke-width="1" fill="none" />
<polyline points="233.5,181.5,229.5,183.0,230.0,180.5,226.5,189.5,221.0,195.5,217.0,197.5,214.0,205.0,203.5,206.0,202.5,210.0,202.0,212.0,203.5,216.5,200.5,222.0,203.0,228.5,210.0,227.0,209.5,230.0,210.0,228.0,210.5,227.5" stroke="orange" stroke-width="1" fill="none" />
<polyline points="202.5,205.5,205.5,206.5,211.0,204.0,212.5,197.0,217.0,193.0,218.5,197.0,228.5,188.0,229.0,182.5,234.0,184.0" stroke="black" stroke-width="1" fill="none" />
<polyline points="222.5,191.5,214.0,200.5,218.0,203.5,211.0,203.0,208.0,207.0,207.5,214.0,209.0,199.0,215.5,197.0,218.5,199.0,223.5,196.5,225.0,196.5,229.5,190.5,228.5,193.0,228.5,194.0" stroke="yellow" stroke-width="1" fill="none" />
<polyline points="222.5,183.0,218.5,189.5,216.5,193.0,219.5,193.5,223.5,194.5" stroke="black" stroke-width="1" fill="none" />
<polyline points="216.5,178.0,220.5,184.5" stroke="black" stroke-width="1" fill="none" />
<polyline points="229.0,180.0,224.5,179.5,223.0,184.5,220.0,194.0,219.0,194.0,208.5,196.0" stroke="orange" stroke-width="1" fill="none" />
<polyline points="206.5,199.5,205.5,200.0" stroke="green" stroke-width="1" fill="none" />
<polyline points="" stroke="green" stroke-width="1" fill="none" />
<polyline points="206.0,204.0,200.5,204.5,190.5,202.5,191.5,200.0,183.5,202.5,191.0,206.0,187.0,200.0,179.5,212.0,183.0,206.5,186.0,198.0,189.0,193.0" stroke="black" stroke-width="1" fill="none" />
<polyline points="188.0,205.5,195.0,209.0,203.5,206.5" stroke="black" stroke-width="1" fill="none" />
<polyline points="189.0,203.5,194.5,212.0,195.0,212.0,191.0,216.5,184.5,222.0,185.5,225.5,190.0,216.5,190.0,212.5" stroke="orange" stroke-width="1" fill="none" />
<polyline points="" stroke="black" stroke-width="1" fill="none" />
<polyline points="180.0,214.5,177.0,217.5,184.5,216.0" stroke="black" stroke-width="1" fill="none" />
<polyline points="170.5,214.0,167.5,218.0,176.0,214.0,172.5,215.0" stroke="yellow" stroke-width="1" fill="none" />
<polyline points="168.0,222.0,164.0,225.0,172.5,228.0,170.5,231.5" stroke="orange" stroke-width="1" fill="none" />
<polyline points="178.5,228.0,179.0,234.5,166.0,233.5,161.0,235.5,171.0,235.5,164.5,238.5,163.0,235.5,165.5,239.0" stroke="green" stroke-width="1" fill="none" />
<polyline points="170.5,241.0,173.5,242.0,165.5,249.5,168.0,250.0,166.5,250.5,169.5,246.5" stroke="green" stroke-width="1" fill="none" />
<polyline points="160.0,260.0,153.0,262.0,151.5,260.5,151.5,270.0,134.0,262.0,131.5,274.0,134.0,277.5,129.0,275.0,127.0,275.5,118.0,272.0,114.5,260.0,119.0,261.0,114.5,263.5,117.5,260.0" stroke="black" stroke-width="1" fill="none" />
<polyline points="112.5,269.5,116.0,269.5,113.0,262.0,117.0,266.0" stroke="yellow" stroke-width="1" fill="none" />
<polyline points="113.0,275.5,114.5,269.0,115.5,278.0,119.5,280.0,103.5,289.0,107.0,287.5,108.5,299.0,102.0,300.0,96.5,302.5,87.0,310.0,94.0,313.5,92.0,313.0,85.0,323.0,84.5,326.0,85.5,336.0,86.5,338.0,88.5,339.5,80.0,342.5,86.0,351.0,84.5,346.5,76.5,354.5,70.5,358.0,71.5,357.5,63.5,357.0,70.5,360.0,68.0,357.0,75.0,348.0,73.0,343.5,86.5,330.0,82.5,333.0,93.0,327.5" stroke="green" stroke-width="1" fill="none" />
<polyline points="91.5,326.5,100.0,328.5,96.0,325.0,90.5,331.0,86.0,330.5,89.5,339.0,82.0,342.0,79.0,344.0,78.0,346.5,73.0,348.5,68.5,360.0,61.0,362.0,59.0,362.5,60.5,366.0,70.0,363.5,67.5,357.5,73.0,345.0,79.0,345.0,82.5,340.5,88.0,334.0,86.0,345.5,95.0,344.5,87.0,345.5,87.0,352.5,87.0,357.0,81.5,358.5,85.5,368.0,80.5,366.0,81.0,370.0,90.0,373.5,81.5,371.5,89.5,355.5,93.0,355.5,98.0,345.0" stroke="yellow" stroke-width="1" fill="none" />
<polyline points="103.5,345.5,105.0,347.0,98.5,357.5,102.0,361.0,100.5,368.0,96.5,366.0,97.0,374.0,103.0,376.0,102.0,378.0,101.5,377.0" stroke="black" stroke-width="1" fill="none" />
<polyline points="111.5,363.5,111.0,362.0,110.5,362.0,105.0,363.0,105.0,357.0" stroke="yellow" stroke-width="1" fill="none" />
<polyline points="110.5,363.5,112.5,363.5,107.5,360.0,115.0,368.5,117.0,368.0" stroke="green" stroke-width="1" fill="none" />
<polyline points="110.0,359.5,117.0,361.5" stroke="orange" stroke-width="1" fill="none" />
<polyline points="124.0,356.5,125.0,360.5,127.0,362.5,135.0,358.0,134.0,367.0,130.5,372.0" stroke="green" stroke-width="1" fill="none" />
<polyline points="85.0,354.0,82.0,363.0" stroke="black" stroke-width="1" fill="none" />
<polyline points="74.5,366.0,82.0,360.0,83.0,349.0,82.0,348.5,89.5,351.5,79.0,357.0,73.5,357.5,73.5,366.5,75.5,365.5,76.5,374.5,79.0,374.0,81.0,370.5" stroke="orange" stroke-width="1" fill="none" />
<polyline points="77.0,383.0,79.5,384.5,81.0,384.0,76.0,392.5,70.0,393.0,60.0,390.5,62.0,395.0,56.0,402.0,60.0,405.5,62.0,393.5,73.5,391.0,80.5,383.0,74.5,384.0,77.0,386.5,70.0,382.0,64.5,393.0,67.0,395.5,65.0,394.5,54.5,405.0,69.0,399.5,70.5,394.0,72.0,387.0,81.0,383.5,77.5,383.0,84.0,371.0,90.0,373.5,83.0,365.5,81.0,361.5,91.0,352.0,92.5,360.0,90.5,347.0,91.0,354.5,96.5,350.5,93.5,343.5,96.5,348.0,100.0,343.0,89.5,357.0,96.0,344.0,96.0,339.5,101.5,341.5,99.0,333.0,98.0,328.5,96.5,326.5,95.5,317.5,98.0,320.5,96.0,311.0,100.0,306.5,103.0,302.5,107.5,300.0,107.5,306.5,96.5,313.5,98.5,321.0,96.0,314.5,99.0,312.5" stroke="orange" stroke-width="1" fill="none" />
<polyline points="89.5,313.5,89.0,313.0,86.0,303.5,93.5,306.0,96.5,300.0,113.5,291.5,108.0,295.5,110.5,287.0" stroke="orange" stroke-width="1" fill="none" />
<polyline points="90.5,302.0,92.0,306.0,92.5,298.0,91.5,299.5" stroke="black" stroke-width="1" fill="none" />
<polyline points="107.0,301.0,103.0,297.0,88.5,293.5,94.5,298.5,84.0,299.5,81.0,296.5,95.0,298.5,93.0,293.5" stroke="green" stroke-width="1" fill="none" />
<polyline points="76.0,298.5,86.0,296.0,88.5,292.0,93.5,292.5,100.0,299.0,91.5,291.0,102.0,291.5,102.0,291.0,103.0,290.0,106.5,289.0" stroke="orange" stroke-width="1" fill="none" />
<polyline points="107.0,284.0,106.0,279.5,108.5,276.0,114.5,273.0,114.5,272.5" stroke="black" stroke-width="1" fill="none" />
<polyline points="108.5,259.5,113.0,264.0,112.0,263.5,109.0,268.0,113.0,272.0,110.5,276.5,101.0,274.0,95.0,282.0,99.5,286.0,100.0,279.0,109.0,279.5,104.5,274.5,118.0,290.5,115.5,282.5,126.0,290.5,119.5,290.0" stroke="green" stroke-width="1" fill="none" />
<polyline points="118.5,280.5,110.5,281.5,101.0,284.0,101.0,286.0,98.5,286.5,96.0,291.5,90.0,290.5,91.5,292.5" stroke="black" stroke-width="1" fill="none" />
<polyline points="86.0,274.5,94.0,274.5,95.5,269.0,99.5,263.0,112.0,264.5,100.5,266.0,96.5,272.0,97.5,278.5,89.5,287.5,93.0,280.5,98.0,276.5,105.5,280.0,98.0,278.0,106.0,278.5,109.5,279.0,110.0,285.0,115.5,271.5,119.0,277.5,130.5,271.0,128.0,268.5" stroke="yellow" stroke-width="1" fill="none" />
<polyline points="130.0,264.0,126.5,265.0,133.0,268.5,127.0,274.0,118.5,273.5,97.0,286.0,97.0,288.0,95.0,301.0,94.5,297.0,87.0,309.0,79.0,311.0,89.5,306.5,85.5,314.0,68.5,322.5,80.0,315.0,79.5,310.0,79.5,310.0,77.5,307.0" stroke="black" stroke-width="1" fill="none" />
<polyline points="106.5,313.5,114.0,305.0,113.0,301.0" stroke="yellow" stroke-width="1" fill="none" />
<polyline points="130.0,301.5,127.0,312.0,120.0,306.0,119.0,307.5,116.5,309.5,116.5,323.0,109.0,316.5,98.5,326.5,105.5,324.0" stroke="orange" stroke-width="1" fill="none" />
<polyline points="76.5,322.5,70.5,321.5,65.5,323.0,68.0,320.0,77.0,327.5,77.5,310.5,73.0,309.5,76.0,306.5" stroke="green" stroke-width="1" fill="none" />
<polyline points="" stroke="yellow" stroke-width="1" fill="none" />
<polyline points="77.0,308.5,78.0,309.5,80.0,310.5,88.5,305.0,92.0,301.5,95.5,300.0" stroke="black" stroke-width="1" fill="none" />
<polyline points="94.0,316.5,100.0,324.5,102.5,313.5,102.0,317.0,100.5,306.5,107.0,302.0,101.5,306.5,105.5,299.5" stroke="black" stroke-width="1" fill="none" />
<polyline points="106.0,291.5,108.5,293.5,95.0,295.0,104.0,291.5,101.5,293.5,105.0,296.0,104.5,294.5" stroke="black" stroke-width="1" fill="none" />
<polyline points="107.5,288.0,104.5,291.5,101.5,290.0,107.5,289.0,108.5,288.0,111.0,287.5,107.0,289.5" stroke="black" stroke-width="1" fill="none" />
<polyline points="86.0,279.5,88.5,275.5,91.0,274.0,88.0,274.5" stroke="black" stroke-width="1" fill="none" />
<polyline points="118.0,289.0,116.5,295.5,116.5,295.0,112.5,297.0,110.5,304.5,101.5,307.5,101.0,309.0,100.5,319.5,96.0,321.5,104.5,326.0,101.0,331.0,100.5,331.0,96.0,336.5,91.5,343.5,100.5,340.5,102.0,336.5,106.0,332.5,109.0,332.0,115.0,317.5,123.5,304.0,115.5,296.0,124.0,298.0,122.5,305.5,132.0,313.0,134.0,313.5" stroke="yellow" stroke-width="1" fill="none" />
<polyline points="122.5,322.0,132.5,323.5,129.0,326.5,128.5,331.5,133.5,335.0" stroke="yellow" stroke-width="1" fill="none" />
<polyline points="120.5,309.0,123.5,317.0,120.5,320.0,123.0,329.0,110.5,327.0,111.0,334.5,107.5,345.5,103.0,337.5,99.5,343.0,97.5,345.0,96.0,350.0,98.0,351.5,92.0,354.5,94.0,359.5,94.5,362.5,93.5,369.0,90.5,371.0,92.5,377.5,93.5,384.0" stroke="black" stroke-width="1" fill="none" />
<polyline points="85.5,387.0,79.5,394.0,81.0,405.5,81.0,404.5,74.5,411.5,68.5,406.5,72.5,421.0" stroke="orange" stroke-width="1" fill="none" />
<polyline points="" stroke="black" stroke-width="1" fill="none" />
<polyline points="122.5,287.5,124.0,289.5,119.5,295.5,119.5,301.0,111.0,305.0,108.5,307.0,102.5,313.5,105.5,311.5,101.0,301.0,112.5,299.0,120.0,298.5,122.5,294.5,127.0,290.0" stroke="black" stroke-width="1" fill="none" />
<polyline points="" stroke="green" stroke-width="1" fill="none" />
<polyline points="" stroke="orange" stroke-width="1" fill="none" />
<polyline points="137.5,237.5,140.5,242.0,136.0,245.0,137.0,240.5,148.0,241.5" stroke="black" stroke-width="1" fill="none" />
<polyline points="147.0,246.5,141.0,243.0,134.0,245.0,139.0,246.5,137.5,246.5,142.0,245.0" stroke="yellow" stroke-width="1" fill="none" />
<polyline points="137.0,236.0,131.5,224.5,135.5,227.5,134.5,224.5" stroke="black" stroke-width="1" fill="none" />
<polyline points="142.0,208.0,145.5,210.0" stroke="green" stroke-width="1" fill="none" />
<polyline points="154.5,214.5,153.0,212.5,151.0,209.5,150.5,212.5" stroke="orange" stroke-width="1" fill="none" />
<polyline points="137.5,192.5,135.0,189.0,135.0,185.5,138.0,190.5,143.5,182.5,147.5,177.5,141.5,175.0,139.0,182.5" stroke="green" stroke-width="1" fill="none" />
<polyline points="138.0,185.5" stroke="orange" stroke-width="1" fill="none" />
<polyline points="151.5,178.5,144.5,180.5,155.0,179.5,145.5,186.5,139.0,185.0,135.0,188.0" stroke="green" stroke-width="1" fill="none" />
<polyline points="139.0,197.0,137.0,198.0" stroke="orange" stroke-width="1" fill="none" />
<polyline points="143.0,194.0,143.5,196.5,151.5,200.5,146.0,211.5,147.5,215.0,142.0,216.0" stroke="green" stroke-width="1" fill="none" />
<polyline points="128.0,207.0,126.0,197.0,129.0,195.0" stroke="orange" stroke-width="1" fill="none" />
<polyline points="114.0,221.5,113.5,222.5,106.0,229.0,109.5,231.0,119.0,233.5,112.5,228.0" stroke="orange" stroke-width="1" fill="none" />
<polyline points="112.5,234.0,121.0,222.5,116.0,225.0,113.5,225.0" stroke="green" stroke-width="1" fill="none" />
<polyline points="126.0,252.0,118.0,255.5,113.0,258.0,110.5,263.0,115.0,258.0,121.5,254.5,117.0,251.5,126.5,253.5,128.0,242.5,140.0,238.0,143.5,234.5,148.5,234.0,157.0,229.5,155.0,231.0,158.5,230.0" stroke="yellow" stroke-width="1" fill="none" />
<polyline points="148.5,234.0,139.0,234.0,142.0,243.0,138.0,245.0,138.5,250.5,127.5,256.5,134.0,273.5,140.5,268.0,136.0,265.0,122.5,271.0,131.5,274.0,137.0,275.0,132.5,275.0,143.0,275.0" stroke="black" stroke-width="1" fill="none" />
<polyline points="149.5,256.5,155.5,257.5,155.5,252.0,159.0,250.0,156.5,246.0,159.0,250.0" stroke="black" stroke-width="1" fill="none" />
<polyline points="165.0,227.5,163.5,232.5,157.5,237.5,161.5,238.0,167.0,236.5,166.5,226.0,168.5,225.5" stroke="orange" stroke-width="1" fill="none" />
<polyline points="167.5,225.0,170.0,223.5" stroke="green" stroke-width="1" fill="none" />
<polyline points="171.5,236.5,166.5,233.5,166.0,235.0,162.0,243.5,163.5,248.0,154.0,249.5,146.0,250.0,149.0,255.5,151.0,257.0,152.5,260.5,139.5,264.5,135.5,266.5,131.5,272.0,135.0,279.5,124.5,278.0,128.5,289.0,128.5,295.0,128.5,302.0,126.0,306.5,126.5,317.5,124.5,311.5,119.5,323.5,115.0,323.5,119.0,332.0,121.0,330.5,119.0,335.5,123.0,340.0,117.0,339.5,125.0,342.5,128.5,346.0,132.5,351.5,131.5,361.0,134.5,355.5,135.0,359.5,140.0,366.0,138.0,368.5,144.0,365.5,139.0,375.5,149.0,375.5,141.5,391.5,141.0,390.5,148.0,399.0,146.5,390.5,145.5,397.0,147.5,401.5,149.5,407.5,144.0,405.5,152.0,411.5,150.0,416.5,153.5,415.5,161.5,416.0,156.5,423.0,158.5,429.5" stroke="green" stroke-width="1" fill="none" />
<polyline points="169.5,421.0,163.5,414.0,164.5,412.5,164.0,414.5" stroke="green" stroke-width="1" fill="none" />
<polyline points="" stroke="green" stroke-width="1" fill="none" />
<polyline points="" stroke="yellow" stroke-width="1" fill="none" />
<polyline points="201.5,415.0,194.5,427.0,201.5,429.5,195.0,430.0" stroke="black" stroke-width="1" fill="none" />
<polyline points="200.0,402.5,199.0,404.0,200.0,398.5,191.0,405.0,196.5,395.5,197.0,398.5,195.0,399.0" stroke="black" stroke-width="1" fill="none" />
<polyline points="188.5,389.0,190.5,394.5,189.0,404.0,192.0,399.0,184.5,408.0,185.5,415.5,188.5,414.0,189.0,416.0,185.5,423.5,184.0,433.0,193.5,430.0,181.5,435.0,184.0,438.0,177.5,441.5,186.0,447.5,186.5,439.5,198.5,446.5" stroke="black" stroke-width="1" fill="none" />
<polyline points="379.0,355.0,378.0,352.0,374.0,342.5,378.0,351.0,377.0,339.5,383.5,340.5,383.0,335.0,378.5,326.5,378.5,321.5,374.0,320.0,375.5,308.0,368.5,311.5,378.0,309.5" stroke="orange" stroke-width="1" fill="none" />
<polyline points="377.5,283.0,377.0,286.0,380.0,283.0,384.0,273.0,379.0,268.0,384.5,269.5,382.5,264.0,384.5,267.5" stroke="orange" stroke-width="1" fill="none" />
<polyline points="366.0,267.0,365.5,273.5,368.5,273.5,369.5,279.5,367.5,282.0,368.0,286.0,364.0,287.5,362.5,296.0,362.0,300.0,364.5,303.5,362.0,307.5,359.5,310.0" stroke="orange" stroke-width="1" fill="none" />
<polyline points="345.0,271.0,349.5,276.5,345.0,282.5,333.0,283.5,330.0,282.0,328.5,274.0,322.0,271.0,326.0,275.5,323.5,268.0,325.5,268.0,322.0,276.0,326.5,273.0" stroke="green" stroke-width="1" fill="none" />
<polyline points="325.5,273.0,323.5,271.5,327.0,271.0,327.5,268.0,334.0,272.0,331.5,273.5,334.0,270.0,335.5,272.0" stroke="orange" stroke-width="1" fill="none" />
<polyline points="316.0,277.5,316.0,275.0,321.0,274.0,320.0,266.0,329.5,257.5,333.0,261.5,333.5,252.0" stroke="black" stroke-width="1" fill="none" />
<polyline points="367.0,262.0,363.0,270.5,363.0,275.5,360.0,276.5,355.5,281.0" stroke="green" stroke-width="1" fill="none" />
<polyline points="292.0,231.0,283.0,234.0,291.5,234.0" stroke="green" stroke-width="1" fill="none" />
<polyline points="271.5,218.5,271.0,202.0,280.0,201.5,277.0,206.0,282.5,198.5,290.5,189.5,290.5,191.0,298.5,185.0,303.0,189.0,303.5,183.0,306.5,180.0,309.5,180.5" stroke="black" stroke-width="1" fill="none" />
<polyline points="317.0,172.0,315.0,178.0,300.0,174.0,299.5,179.5,299.5,181.5,293.0,186.0,288.0,192.0,283.5,192.5,282.0,199.0,274.0,198.5,268.5,201.5,267.5,209.0,263.5,211.5,264.5,214.5,266.5,222.5,254.0,225.0,252.0,228.5,242.5,232.0,243.0,241.0,239.5,248.0,233.0,242.0,233.5,254.5,227.0,260.5,222.0,262.5,221.0,265.5,211.5,283.0,210.5,284.0,209.5,287.5,202.5,301.0,197.5,308.0,202.0,322.5,198.0,317.0,198.5,311.5,196.5,310.0,202.5,304.5,199.0,298.5,205.0,293.5,207.5,295.5,214.5,287.0,211.5,290.5,211.5,285.5,215.0,277.0,215.5,278.0,220.0,269.5,226.0,265.5,224.5,263.0,226.5,251.5,229.5,254.5,234.5,248.0,234.0,242.0,240.0,239.0,242.5,232.5,245.5,228.5,252.5,227.0,255.5,221.5,257.5,223.0,260.0,216.5,259.5,204.5,260.0,212.5,266.5,199.5" stroke="orange" stroke-width="1" fill="none" />
<polyline points="265.0,202.5,259.5,208.5,265.5,205.5,259.5,208.5" stroke="black" stroke-width="1" fill="none" />
<polyline points="" stroke="yellow" stroke-width="1" fill="none" />
<polyline points="208.0,198.5,211.0,198.0,217.0,188.5,217.5,185.5,225.0,189.5,223.0,181.0,227.0,178.0,230.0,183.0,229.0,184.0" stroke="yellow" stroke-width="1" fill="none" />
<polyline points="229.5,173.5,225.0,181.5,211.5,184.5,212.0,183.0,221.0,192.0,203.0,198.0,214.5,196.0,209.0,197.5,213.5,199.0,220.0,197.5,226.0,191.0,233.5,189.5,240.5,191.0,229.5,187.0,236.0,189.0" stroke="black" stroke-width="1" fill="none" />
<polyline points="254.0,174.0,246.0,178.0,239.0,185.5,233.0,183.0,244.0,179.5,240.5,183.5,249.0,179.5,255.5,179.5" stroke="yellow" stroke-width="1" fill="none" />
<polyline points="251.0,176.5,244.0,180.5,245.0,181.0,248.0,189.0,240.5,199.0,238.0,201.5,234.5,203.5,237.5,210.5,231.0,216.0,230.5,206.0,237.0,206.0,234.0,210.0,236.5,211.0" stroke="yellow" stroke-width="1" fill="none" />
<polyline points="266.5,185.5,265.0,190.5,258.5,198.0,249.0,197.0,246.5,204.0,253.0,204.0,255.5,201.0,257.5,199.0" stroke="orange" stroke-width="1" fill="none" />
<polyline points="268.0,183.0,273.0,184.5,264.5,190.5,260.5,190.5,259.0,191.5,263.0,186.0,263.5,184.5" stroke="green" stroke-width="1" fill="none" />
<polyline points="262.5,185.0,255.0,186.5,243.5,187.5,251.5,195.5,249.0,203.5,243.5,195.5,246.0,193.5,246.0,192.0,249.5,190.5,254.5,184.5,250.5,186.5,257.0,183.0,263.5,180.5,260.5,178.5" stroke="black" stroke-width="1" fill="none" />
<polyline points="262.5,180.5,267.5,176.0,271.5,176.0,279.5,177.5,281.5,180.0,281.5,178.5,284.5,177.0,295.0,179.5,295.0,183.0,290.0,183.5,290.0,193.5,287.5,189.5,277.5,195.5,272.5,197.0,278.5,196.0,271.0,195.0,267.5,193.5,279.5,190.0,277.5,197.5,285.0,186.0,288.5,184.0,289.0,182.5,293.0,176.0,305.0,176.5,306.0,173.5,306.5,175.0,316.5,169.0,316.5,168.0,325.5,165.5,325.0,161.5,331.5,161.5,333.5,154.0,338.0,152.5,337.5,154.5" stroke="green" stroke-width="1" fill="none" />
<polyline points="305.0,176.0,306.0,177.5,296.5,175.5,299.0,185.0,290.0,194.5,285.0,191.5,279.5,196.0,277.0,197.5,265.0,205.0,269.5,207.5,271.0,206.5,268.0,213.5,263.5,221.0,265.5,221.0,261.0,223.0,261.5,228.0,264.5,233.0,268.5,241.0,269.0,241.5,264.0,242.0,264.5,243.5" stroke="black" stroke-width="1" fill="none" />
<polyline points="265.5,194.5,268.0,184.5" stroke="black" stroke-width="1" fill="none" />
<polyline points="265.5,158.5,265.0,161.0,259.0,160.5,252.5,160.0,250.5,162.0,241.5,165.0,251.0,164.5,247.5,159.5" stroke="yellow" stroke-width="1" fill="none" />
<polyline points="257.5,168.0" stroke="black" stroke-width="1" fill="none" />
<polyline points="252.0,167.0,252.0,178.0,257.5,178.5,257.5,177.5,259.0,182.0,259.5,182.5" stroke="yellow" stroke-width="1" fill="none" />
<polyline points="247.0,140.5,255.5,138.5,258.0,131.5,258.0,130.5,262.0,129.0,253.5,133.0,248.5,135.0,249.0,139.5,245.0,143.5,235.0,144.5,235.0,145.5" stroke="black" stroke-width="1" fill="none" />
<polyline points="" stroke="yellow" stroke-width="1" fill="none" />
<polyline points="223.0,146.5,216.0,148.5,218.5,150.0,219.0,151.5" stroke="orange" stroke-width="1" fill="none" />
<polyline points="213.5,144.0,216.0,141.0" stroke="black" stroke-width="1" fill="none" />
<polyline points="206.5,149.5,203.0,151.5,209.5,145.0,213.5,150.5,214.0,161.0,214.5,151.5,217.5,154.5" stroke="green" stroke-width="1" fill="none" />
<polyline points="207.5,166.5,195.0,161.0,203.0,157.5,203.0,155.0,200.5,160.0" stroke="green" stroke-width="1" fill="none" />
<polyline points="204.0,158.0,204.5,164.5,199.0,169.5,189.5,181.0,186.5,175.5,183.5,182.0,182.0,181.5,172.0,188.5,177.0,193.5,165.0,194.0,164.5,201.0,162.5,201.0,166.5,192.0,172.5,193.5,182.0,190.0,179.5,183.5,183.5,182.0,186.5,175.5,191.0,176.0,200.5,175.0,203.0,164.0,203.0,163.0" stroke="yellow" stroke-width="1" fill="none" />
<polyline points="219.0,182.0,213.0,176.5,209.0,176.5,208.5,186.5,204.0,185.0,208.0,194.5,203.5,200.5,205.0,195.5,201.5,195.5,202.5,194.5" stroke="orange" stroke-width="1" fill="none" />
<polyline points="" stroke="yellow" stroke-width="1" fill="none" />
<polyline points="191.5,133.5,203.0,133.5,203.5,142.0,202.5,138.0,205.0,137.5,216.0,130.5,216.5,132.5,216.0,129.0,224.0,127.0,229.0,126.0" stroke="black" stroke-width="1" fill="none" />
<polyline points="225.0,129.0,221.5,128.0,215.0,140.0,216.0,138.0,205.5,144.0,210.5,140.5,212.0,135.0,223.0,130.0,225.5,128.0,233.5,121.5,238.0,116.5,246.0,119.0,238.5,124.0,238.5,123.5" stroke="black" stroke-width="1" fill="none" />
<polyline points="229.0,118.0,234.0,118.5,227.5,127.5,223.5,133.0,205.0,142.5,201.0,142.5,202.5,141.0,197.5,143.0,199.0,150.0,189.5,156.0,192.0,158.5,181.0,164.0,174.0,168.5,171.5,172.5,168.5,172.5,167.5,181.5,163.5,188.0,155.5,184.5,154.0,193.5,150.5,197.5,148.5,197.0,149.5,202.5,150.0,209.0,146.5,213.5,149.0,216.0,147.0,224.0,139.5,222.5,142.5,224.0,144.0,233.0,138.5,238.5,140.0,242.0,147.0,238.5,126.5,241.5,135.0,253.0,133.0,252.0,139.5,254.0,135.0,255.0,138.5,256.0,138.0,253.5" stroke="green" stroke-width="1" fill="none" />
<polyline points="143.5,174.0,141.0,174.0,139.5,177.5" stroke="orange" stroke-width="1" fill="none" />
<polyline points="128.0,148.0,128.5,139.5,124.5,139.5" stroke="yellow" stroke-width="1" fill="none" />
<polyline points="154.5,129.0,154.0,133.0,153.5,140.0,156.0,136.5,157.0,125.0,161.0,124.5,160.5,123.5" stroke="orange" stroke-width="1" fill="none" />
<polyline points="182.0,127.5,180.5,137.0,177.5,138.0,185.0,125.0,189.5,119.0,187.5,125.0,190.0,119.5" stroke="orange" stroke-width="1" fill="none" />
<polyline points="183.0,127.5,174.5,127.5,172.5,123.5,172.0,124.5,183.0,125.0,189.5,122.5,190.5,122.0,188.0,121.5,194.5,119.5" stroke="black" stroke-width="1" fill="none" />
<polyline points="180.0,135.0,187.5,133.0" stroke="green" stroke-width="1" fill="none" />
<polyline points="194.5,123.0,201.5,116.5" stroke="green" stroke-width="1" fill="none" />
<polyline points="198.5,110.5" stroke="yellow" stroke-width="1" fill="none" />
<polyline points="232.5,134.0,232.5,134.0,225.5,129.0,220.0,128.0,215.5,134.5,214.5,137.5,210.0,146.5,202.0,139.0,198.0,151.5,196.0,155.5,197.5,156.5,202.0,147.5,210.0,146.5,213.0,140.5,218.0,137.5,226.5,135.0" stroke="orange" stroke-width="1" fill="none" />
<polyline points="251.0,140.5,247.5,137.5,247.0,148.0,246.5,145.5,233.5,154.5,229.5,151.0,230.5,150.5,221.5,155.5,220.0,160.0,218.0,164.5,224.5,156.5,230.5,152.5,236.0,148.5,247.0,145.5,247.5,144.5,253.5,144.0,254.5,132.5,267.5,124.0,263.0,123.5" stroke="orange" stroke-width="1" fill="none" />
<polyline points="285.0,143.5,285.5,148.5,288.5,146.5" stroke="black" stroke-width="1" fill="none" />
<polyline points="296.0,135.0,293.0,142.5,292.5,144.5,294.5,132.5" stroke="black" stroke-width="1" fill="none" />
<polyline points="310.0,174.5,300.0,179.5,298.0,181.5,289.5,188.5,290.0,195.0,282.0,202.5,279.5,200.5,274.0,206.5,274.0,207.5,273.0,214.0,271.0,213.0" stroke="yellow" stroke-width="1" fill="none" />
<polyline points="232.0,96.5,234.0,100.0,225.0,102.0,224.5,103.0,226.5,103.5,230.0,100.0,235.5,96.0,232.5,91.5" stroke="yellow" stroke-width="1" fill="none" />
<polyline points="" stroke="orange" stroke-width="1" fill="none" />
<polyline points="246.5,92.5,246.5,93.5,245.5,91.0,245.0,87.5" stroke="green" stroke-width="1" fill="none" />
<polyline points="262.0,89.0,254.5,91.5,252.0,92.5,250.5,92.0,248.0,95.5,242.5,106.0,239.0,109.0,229.5,110.5,226.5,105.5,228.5,118.5,219.5,114.5,225.0,120.5,219.0,123.5,208.0,119.5,203.0,129.5,205.5,139.0,195.5,133.0,191.5,132.0,188.5,136.0,177.0,149.5,181.5,152.0,176.0,149.5,172.0,153.0,172.5,167.5,171.0,166.5,163.5,166.0,157.0,166.5,162.5,177.5,157.5,171.0,159.0,165.0,170.5,165.0,173.0,160.0,179.0,158.5,177.5,150.0,183.5,142.0,191.5,143.5,191.0,136.0,199.0,147.0,209.5,134.0,210.5,134.5,212.0,128.0,217.0,107.0,219.5,120.0,228.0,115.0,235.5,113.5,238.0,100.5,240.5,99.0,253.0,98.0,265.0,93.5,263.0,86.5" stroke="yellow" stroke-width="1" fill="none" />
<polyline points="238.0,80.5,231.0,82.5,227.0,84.5,230.0,86.0,235.0,80.0,236.0,85.5,233.0,81.0" stroke="black" stroke-width="1" fill="none" />
<polyline points="" stroke="green" stroke-width="1" fill="none" />
<polyline points="227.0,49.0,227.0,47.0,236.5,48.0,232.0,46.0,245.0,46.5,250.0,55.5,244.0,45.0,255.5,55.0,256.5,60.5,263.0,49.0,271.5,57.0,273.5,61.5,270.5,64.0,279.0,65.0,280.0,67.0,288.0,71.0,284.0,69.0,297.5,75.0,291.0,80.0,293.5,83.0,304.5,88.5,303.5,94.0,318.0,100.0,314.0,98.0,330.5,105.5,326.0,112.5,326.5,117.5,331.0,121.5,334.0,128.0,340.5,126.0,349.0,133.0,341.0,141.5,349.5,147.0,351.5,143.5,355.0,138.5,369.0,139.0,373.5,135.0,372.5,130.5,383.5,130.5,381.0,127.0,392.0,129.0,393.5,114.5,393.5,115.5,393.5,111.5,400.5,115.5,406.0,111.0,411.0,114.5,417.0,118.0,415.0,115.5,421.0,126.0" stroke="black" stroke-width="1" fill="none" />
<polyline points="413.0,118.0,413.5,125.5,415.0,128.5,417.5,135.0,424.0,134.0,420.5,142.0,419.5,144.0,422.0,145.5,408.5,152.0,419.0,154.5,412.5,165.0,414.0,164.5,409.5,175.5,407.5,174.5,405.0,174.0,399.5,177.5,408.5,177.0,407.5,181.5,398.5,182.5,391.5,189.5,395.0,197.5,382.0,205.5,382.5,203.0,376.5,210.5,374.5,212.5,369.0,216.5,365.5,212.0,373.0,211.5,372.5,207.5,384.0,211.0,385.0,203.0,392.5,197.0,394.5,195.5,396.0,191.5,401.0,189.5,401.0,185.5,408.0,171.0,410.0,176.0,415.5,177.5" stroke="yellow" stroke-width="1" fill="none" />
<polyline points="370.0,132.5,374.0,128.0,367.0,127.0,369.5,128.0" stroke="orange" stroke-width="1" fill="none" />
<polyline points="391.0,108.5,382.5,100.0,385.5,104.0,385.0,105.0" stroke="black" stroke-width="1" fill="none" />
<polyline points="373.0,99.5,381.0,106.0,389.0,105.0,384.5,98.0" stroke="black" stroke-width="1" fill="none" />
<polyline points="427.5,42.5,427.5,47.0,415.5,32.5,417.0,28.0,414.5,23.0,408.5,10.0" stroke="yellow" stroke-width="1" fill="none" />
<polyline points="514.0,74.0,512.0,81.5,509.5,82.5,504.0,86.5,503.0,85.5,494.5,96.5,492.0,101.5,481.0,105.5,488.5,111.0,483.0,106.5,477.5,115.0,478.5,118.0,474.0,125.0,470.0,127.0,466.0,131.0,468.5,136.0,465.0,137.5,460.5,151.0,458.0,148.5,460.5,150.0,452.0,158.5,450.5,166.5,450.0,164.5,445.0,167.5,442.5,171.0,445.0,175.5,438.0,187.5,437.0,188.0,437.0,190.5,432.0,198.0,434.0,205.0,431.0,204.5,430.0,209.5,424.5,209.5,430.0,218.0,422.0,219.0,420.5,222.0,421.5,227.0,421.0,236.5,410.5,232.5,413.0,243.5,411.5,245.5,408.5,246.0,412.5,249.5,417.5,259.5,406.0,261.5,407.5,258.5,407.5,266.5,410.5,273.5,404.0,278.0,403.0,282.5,402.5,280.5,396.5,286.0,401.5,288.0,405.0,290.5,397.0,299.5,396.5,303.0,394.0,310.0,390.5,303.5,392.0,317.5,388.5,318.5,394.0,316.5,388.5,328.5,391.0,325.0,383.0,338.5,389.0,335.5,389.0,336.0" stroke="yellow" stroke-width="1" fill="none" />
<polyline points="342.5,137.5,342.0,137.5,335.0,131.5,335.0,132.5,336.5,131.0,337.0,128.5,331.5,121.0,335.5,118.5,326.5,113.0,323.5,105.5,314.5,104.0,313.0,95.5,306.5,92.0,312.0,96.0,304.0,88.5,301.5,87.0,298.0,74.5,295.5,76.5,293.0,72.5,281.5,65.5,275.0,69.0,276.0,64.5,266.0,55.0,264.5,47.5,254.0,53.0" stroke="black" stroke-width="1" fill="none" />
<polyline points="204.5,49.0" stroke="orange" stroke-width="1" fill="none" />
<polyline points="173.0,59.5,158.0,65.0,160.5,68.5,167.0,66.0" stroke="black" stroke-width="1" fill="none" />
<polyline points="157.5,67.5,158.5,74.0,153.0,78.0,149.0,76.5,155.0,69.0,161.0,71.0,159.0,74.5,155.5,71.0" stroke="yellow" stroke-width="1" fill="none" />
<polyline points="161.0,76.5,154.0,78.5" stroke="black" stroke-width="1" fill="none" />
</svg>