<svg xmlns="http://www.w3.org/2000/svg" width="1024" height="1024" version="1.1" fill="white"><polyline points="413.0,15.5,409.0,8.0,411.5,19.5,410.5,22.5,411.0,26.0,421.0,34.0,424.0,34.0,420.5,29.5,432.0,33.0,426.0,31.0,430.0,53.5,435.0,47.5,439.0,56.0,438.5,64.0,433.0,61.0,438.5,68.5,442.0,70.0,444.0,69.5" stroke="black" stroke-width="1" fill="none" />
<polyline points="459.0,52.5,445.0,44.5,440.0,39.0,442.0,37.5,435.0,22.5,434.5,19.0,434.5,20.0" stroke="black" stroke-width="1" fill="none" />
<polyline points="422.0,4.5,427.5,7.0,431.5,17.5,435.5,18.5,434.5,17.0,437.0,24.0,443.5,29.5,439.5,35.0,445.5,39.0,450.5,38.5,452.5,43.5,447.0,46.5,452.5,55.0,459.5,58.0,455.0,61.0,453.5,69.0,458.0,78.0,441.0,75.0,442.5,77.5,436.0,86.0,438.0,88.0,437.5,85.0,432.5,95.0,431.0,98.0,427.0,104.0,425.5,103.5,422.0,105.5,419.0,105.0,420.0,110.5,422.5,104.5,428.5,98.5,435.0,93.5,440.5,85.5,437.0,83.0,440.5,75.0,445.0,78.5,451.5,65.0,454.5,63.5,460.0,54.5,469.0,51.0,472.0,46.5,468.0,44.5,481.0,44.0,476.5,41.0,484.5,28.5,490.5,26.5,487.0,30.5,500.0,22.0,510.5,16.5,507.5,6.5" stroke="green" stroke-width="1" fill="none" />
<polyline points="509.0,2.0,506.0,10.5,502.0,19.0,497.5,24.0,492.0,21.5,489.5,26.0,483.5,26.0,483.0,33.5,484.5,36.0,470.5,43.0,470.5,41.5,463.0,54.0,464.5,56.5" stroke="orange" stroke-width="1" fill="none" />
<polyline points="507.5,82.0,502.5,75.5,504.5,88.0,500.0,91.5,496.5,98.5,489.5,94.5,483.0,104.0,481.5,102.0,478.0,111.0,469.5,115.5,464.5,118.0,469.0,125.0,459.5,138.5,457.5,142.5,465.0,141.0,466.0,142.0,462.0,140.0" stroke="orange" stroke-width="1" fill="none" />
<polyline points="447.5,159.5,450.5,164.5,439.5,163.0,443.5,175.5,434.5,166.5,436.5,174.5" stroke="green" stroke-width="1" fill="none" />
<polyline points="439.5,167.5,443.0,185.0,432.5,181.0,435.5,186.0,435.0,184.5,436.5,181.0" stroke="orange" stroke-width="1" fill="none" />
<polyline points="424.5,199.5,426.0,214.5,424.0,219.5,425.5,224.0" stroke="black" stroke-width="1" fill="none" />
<polyline points="418.5,236.0,416.5,234.0,413.5,241.5,415.0,245.0,416.0,248.5,412.5,243.5,412.0,246.0" stroke="black" stroke-width="1" fill="none" />
<polyline points="398.5,287.5,403.5,289.5,407.0,288.5" stroke="yellow" stroke-width="1" fill="none" />
<polyline points="388.5,300.0,379.0,287.5,378.0,284.0,381.0,284.0,390.0,275.0" stroke="orange" stroke-width="1" fill="none" />
<polyline points="373.5,267.0,372.5,264.5,373.0,263.5,374.0,259.0,374.0,253.0,371.5,254.5,371.5,241.5,373.0,243.5,369.0,240.5,374.0,235.0,367.0,233.0,375.5,224.0,373.5,221.5,373.5,227.0,372.0,216.5,368.5,216.5" stroke="yellow" stroke-width="1" fill="none" />
<polyline points="377.5,239.5,369.5,243.0,373.0,243.0,376.0,237.5" stroke="green" stroke-width="1" fill="none" />
<polyline points="370.5,244.5,369.5,253.0,363.5,254.5,373.5,258.5,372.0,267.0,366.0,275.5,370.0,267.5,371.0,274.0,366.0,275.5,368.5,276.0,366.0,276.5" stroke="black" stroke-width="1" fill="none" />
<polyline points="378.5,285.5,370.5,295.0,379.5,289.0,381.0,293.0,380.5,301.0,373.0,303.0,375.5,311.5,374.5,308.5,379.0,313.5,384.0,321.5,379.5,325.0,384.5,332.5,381.5,334.5,384.5,339.0,386.5,341.0,386.5,338.5" stroke="yellow" stroke-width="1" fill="none" />
<polyline points="367.0,355.5,366.0,356.5,373.0,360.5,378.5,365.5,378.5,367.5,368.5,373.5" stroke="green" stroke-width="1" fill="none" />
<polyline points="371.0,374.0,375.5,375.5" stroke="orange" stroke-width="1" fill="none" />
<polyline points="383.0,384.0,382.0,386.5,380.0,390.5,378.5,397.0,379.5,397.5" stroke="orange" stroke-width="1" fill="none" />
<polyline points="361.5,429.0,356.5,418.5,353.0,415.0,354.0,413.5,347.5,410.5,345.5,403.5,336.5,401.0,332.5,402.5,332.0,400.5,330.0,398.5,322.5,398.0,320.0,390.0,318.5,394.5,311.5,388.5,307.5,389.0,303.5,387.0,303.0,384.5,302.5,393.5" stroke="green" stroke-width="1" fill="none" />
<polyline points="315.0,374.0,321.0,363.0,324.0,361.0,324.5,354.0,334.0,345.5" stroke="yellow" stroke-width="1" fill="none" />
<polyline points="352.0,327.0,352.0,328.5,358.0,333.5,352.0,332.5,353.5,338.5" stroke="black" stroke-width="1" fill="none" />
<polyline points="356.0,362.0,356.0,364.5,351.5,367.0,357.0,376.5,354.0,381.0,353.0,384.5,354.0,389.0,355.0,395.0,350.0,390.0,351.0,403.0,349.5,406.0,348.0,407.0,351.0,413.0,354.0,411.0,352.5,413.5" stroke="orange" stroke-width="1" fill="none" />
<polyline points="357.5,379.5,360.5,367.0,357.0,370.0,359.0,361.5" stroke="orange" stroke-width="1" fill="none" />
<polyline points="360.5,360.0,361.5,361.0,360.0,369.0,357.0,374.0,359.0,372.0,355.0,381.5" stroke="yellow" stroke-width="1" fill="none" />
<polyline points="361.5,352.0,360.5,358.5,355.5,362.0,352.5,364.0,355.5,364.0,355.0,368.5,356.0,371.0,355.5,380.0,357.0,380.0,349.0,390.5,352.5,393.5,355.0,399.0,357.5,397.5,356.5,404.0,352.5,407.5,361.0,408.5" stroke="yellow" stroke-width="1" fill="none" />
<polyline points="372.5,469.5,374.5,458.5,371.0,457.5,376.0,455.5,372.0,447.0,373.5,446.5,374.5,433.5,373.5,438.5,372.0,430.5,377.0,432.5,376.5,429.5,378.0,425.0,376.5,418.0,378.0,409.5,376.5,408.0,377.5,404.5,375.0,401.0,373.5,394.5,375.5,388.5,383.5,394.0,375.0,384.0,383.5,377.5,376.0,373.0,375.5,370.5,377.0,370.0,382.5,366.5,382.0,361.0,375.5,359.5,379.5,348.5,379.5,350.5,378.0,343.5,372.5,344.5,371.0,336.5,375.5,329.5,375.5,332.0,372.5,327.0,371.0,320.5,376.5,319.5,375.5,312.5,372.5,307.5,376.0,302.0,375.5,307.0,375.5,296.0,374.5,290.0,370.0,290.0,372.0,279.5,368.5,276.5,372.5,279.5,366.5,268.5,366.5,270.5,368.5,263.0,375.0,259.5,368.0,263.0,362.0,252.5,366.5,247.5,365.5,246.0,369.5,238.5,365.5,233.5,359.0,230.0,363.5,228.5,359.5,222.0,357.5,215.0,355.5,219.0,361.0,208.5,358.5,206.5,352.5,206.5,345.5,199.0,347.5,198.5" stroke="green" stroke-width="1" fill="none" />
<polyline points="" stroke="orange" stroke-width="1" fill="none" />
<polyline points="" stroke="yellow" stroke-width="1" fill="none" />
<polyline points="360.0,197.5" stroke="yellow" stroke-width="1" fill="none" />
<polyline points="357.5,189.5,358.0,199.0,358.5,204.5,362.0,204.5,351.5,200.5" stroke="orange" stroke-width="1" fill="none" />
<polyline points="349.0,200.5" stroke="green" stroke-width="1" fill="none" />
<polyline points="350.0,202.0,354.5,207.0,351.5,211.5" stroke="yellow" stroke-width="1" fill="none" />
<polyline points="346.0,207.5,339.0,206.0,336.5,200.0,336.0,197.5" stroke="orange" stroke-width="1" fill="none" />
<polyline points="347.5,216.5,347.5,218.5,355.5,208.0,359.5,217.5,352.5,227.0,357.5,229.5,359.0,232.0,358.5,238.0,364.0,240.5,365.0,248.5,366.0,251.5,365.5,254.5" stroke="green" stroke-width="1" fill="none" />
<polyline points="365.5,240.0,364.5,240.0,368.5,243.0,365.0,247.5" stroke="yellow" stroke-width="1" fill="none" />
<polyline points="346.5,236.0,352.5,241.0" stroke="black" stroke-width="1" fill="none" />
<polyline points="338.0,255.0,331.5,256.0,335.5,260.5,330.0,258.0" stroke="black" stroke-width="1" fill="none" />
<polyline points="337.5,248.0,343.0,242.5,342.0,245.0,349.5,250.0,350.5,244.0" stroke="yellow" stroke-width="1" fill="none" />
<polyline points="347.0,261.5,342.0,260.5" stroke="black" stroke-width="1" fill="none" />
<polyline points="340.0,266.5,344.0,264.5,343.0,272.0,338.5,280.0" stroke="orange" stroke-width="1" fill="none" />
<polyline points="347.0,280.0,347.0,275.5,354.0,285.0,351.5,284.5,356.0,296.0,351.0,294.5,350.5,301.0,352.5,303.0,347.5,309.0,343.5,309.0,348.0,314.5,341.0,319.5,340.0,323.5,344.5,326.5,339.5,326.5,335.5,332.0,335.0,338.5,331.5,336.5,328.0,343.0,329.0,353.0,329.0,350.5,325.0,357.0,321.5,359.0,319.0,364.5,318.0,370.5,319.0,370.5,317.0,374.0,314.5,377.0,315.0,381.5,315.0,389.5,316.0,387.0,330.0,396.5,340.5,400.0,343.5,406.5,343.5,413.5,354.0,415.5,353.5,414.5,358.5,421.5,360.5,427.5,357.0,435.0,363.0,434.5,364.5,432.0,365.5,444.0,362.5,444.0,368.0,452.5,370.5,455.5,366.5,462.0,373.5,461.0,367.0,471.5,373.0,473.0,370.5,473.5,373.0,472.5,377.0,482.0,378.5,489.0,383.5,486.0,380.5,490.5,382.0,499.5,380.5,495.5,379.5,504.0,386.0,512.0,393.0,510.0,386.5,520.0,391.0,521.0,392.5,516.5" stroke="black" stroke-width="1" fill="none" />
<polyline points="428.0,491.5,429.5,482.5,430.0,486.0,440.5,479.5,439.0,480.0,448.5,477.0,447.0,467.5,457.5,467.5,456.5,467.5" stroke="yellow" stroke-width="1" fill="none" />
<polyline points="446.5,475.5,447.5,474.5,449.0,471.5,448.0,465.5,447.5,462.5,454.0,467.5,455.0,470.5" stroke="orange" stroke-width="1" fill="none" />
<polyline points="452.0,450.0,461.0,442.0,463.0,440.0" stroke="yellow" stroke-width="1" fill="none" />
<polyline points="469.5,419.5,475.0,410.5,478.5,411.5,484.0,402.5,480.0,406.0,491.5,396.0,490.5,394.5,497.5,389.0,498.0,392.0,505.5,391.0,504.5,385.0,513.5,382.0,508.0,374.5,513.0,384.0" stroke="green" stroke-width="1" fill="none" />
<polyline points="514.5,384.5,506.0,388.0,499.0,385.0,490.0,396.0,488.5,404.0,483.5,405.0,480.0,409.5,478.5,411.5,471.0,417.0,472.0,424.0,471.0,421.0,463.5,426.0,463.0,428.0,461.0,436.5,460.5,437.5,450.5,440.5,460.5,448.0,462.0,451.0,456.0,457.0,452.5,456.5,453.5,456.0,448.5,465.5,448.0,477.0,447.0,476.0,445.5,482.0,442.5,482.0,442.5,480.5" stroke="green" stroke-width="1" fill="none" />
<polyline points="430.0,475.0,429.5,474.5,435.0,478.0,427.5,484.0,442.5,474.0,436.5,472.0,439.0,463.5,439.5,462.5,430.5,457.5,438.5,455.5" stroke="black" stroke-width="1" fill="none" />
<polyline points="434.5,456.0,427.5,452.5,428.5,456.5,433.0,445.0,436.0,438.0,439.0,440.5,438.0,427.5,429.0,428.5,431.5,433.5,431.5,429.5,432.0,432.0,430.0,431.0" stroke="yellow" stroke-width="1" fill="none" />
<polyline points="429.0,468.5,429.0,472.0,423.0,476.0,424.5,473.5,420.0,482.5,423.0,486.0,424.0,483.5" stroke="orange" stroke-width="1" fill="none" />
<polyline points="420.5,471.5,421.5,469.0,418.0,472.5,423.0,474.5,426.0,472.5,430.5,467.0,430.0,461.5,433.0,460.5,434.0,463.0,437.0,460.5" stroke="yellow" stroke-width="1" fill="none" />
<polyline points="472.5,411.5,473.0,413.0,475.5,412.5,485.0,408.0,479.0,395.5" stroke="orange" stroke-width="1" fill="none" />
<polyline points="443.0,428.0,445.5,425.0,447.5,421.5,445.5,412.5,447.0,408.5,448.0,411.5,450.5,403.0,453.0,398.0,452.5,391.5,450.0,392.5,451.0,385.5,456.0,379.5,450.0,379.5,452.0,378.0,457.5,374.0,447.5,364.5" stroke="yellow" stroke-width="1" fill="none" />
<polyline points="385.5,343.0,392.0,338.5,384.0,334.0,379.0,325.0,383.5,327.0,381.5,325.0" stroke="green" stroke-width="1" fill="none" />
<polyline points="365.5,355.0,369.0,360.5,371.0,362.0,369.5,365.0,367.0,364.0,366.0,374.0,364.5,384.0,362.0,386.0,371.0,386.0,373.0,383.5,375.5,391.0,375.0,388.5" stroke="black" stroke-width="1" fill="none" />
<polyline points="320.0,341.5,317.5,341.5" stroke="black" stroke-width="1" fill="none" />
<polyline points="316.5,350.5,313.0,352.5,308.5,352.0" stroke="green" stroke-width="1" fill="none" />
<polyline points="308.5,352.0,302.0,356.5,297.5,352.5" stroke="green" stroke-width="1" fill="none" />
<polyline points="295.0,354.5,305.5,358.0,308.5,354.5,314.0,358.0,310.0,356.0,308.5,361.5,308.5,368.0,303.0,367.0,305.5,367.5" stroke="green" stroke-width="1" fill="none" />
<polyline points="311.0,348.5,308.5,348.0,300.0,350.0,301.5,346.5,296.5,350.0,301.0,353.0" stroke="green" stroke-width="1" fill="none" />
<polyline points="305.5,328.5,306.5,324.5,313.5,328.5,313.0,324.5,306.0,332.0,303.0,334.0,302.5,330.5,311.0,334.5,310.5,336.5" stroke="orange" stroke-width="1" fill="none" />
<polyline points="312.5,329.5,310.0,322.5,310.5,322.0,299.0,331.0,296.5,337.0" stroke="black" stroke-width="1" fill="none" />
<polyline points="291.0,326.0,305.0,322.0,298.0,324.0,295.5,316.0,298.0,313.0" stroke="black" stroke-width="1" fill="none" />
<polyline points="318.5,331.5,325.5,326.0,324.5,320.0,321.0,318.0,324.0,310.0,320.0,308.5,325.0,316.5,322.0,301.5,322.5,303.5" stroke="black" stroke-width="1" fill="none" />
<polyline points="" stroke="black" stroke-width="1" fill="none" />
<polyline points="333.5,271.0,334.0,270.5,337.5,270.0,335.5,266.5,328.5,261.0,328.5,258.5,334.0,261.5,329.5,261.5" stroke="green" stroke-width="1" fill="none" />
<polyline points="324.5,266.0,325.5,264.5,328.0,275.0,331.5,272.5,326.0,277.0,330.5,263.5,336.0,274.0,322.0,272.0,330.0,260.0" stroke="yellow" stroke-width="1" fill="none" />
<polyline points="323.5,271.5" stroke="orange" stroke-width="1" fill="none" />
<polyline points="" stroke="green" stroke-width="1" fill="none" />
<polyline points="322.0,263.0,326.0,262.0,333.0,264.5,336.5,259.0,337.0,262.0,337.0,252.5,346.0,260.0,350.0,252.5,350.5,250.5" stroke="black" stroke-width="1" fill="none" />
<polyline points="351.5,231.5,344.5,235.0,347.0,227.0,345.5,224.5,335.5,216.0,341.5,214.0,339.0,212.5" stroke="black" stroke-width="1" fill="none" />
<polyline points="343.5,194.5,346.0,199.5,355.5,199.0,354.0,198.0,356.0,194.5,356.5,194.0,369.5,188.5,373.0,183.5,377.0,181.0,380.5,183.0,377.5,190.5,390.0,183.5,389.0,180.5,393.5,173.0,394.0,167.0,396.5,181.5,404.5,167.0,405.5,172.5,403.0,177.0,396.5,186.0,394.0,186.5,390.0,192.5,383.0,190.5,386.0,196.0,392.0,185.5,393.5,181.5,395.0,172.5,403.0,180.5" stroke="black" stroke-width="1" fill="none" />
<polyline points="400.0,157.5,406.5,161.5,411.0,166.0,394.5,172.5,386.0,174.5" stroke="black" stroke-width="1" fill="none" />
<polyline points="373.5,182.5,369.5,184.0,355.5,190.0,347.5,189.5,344.0,193.5,335.0,198.5,338.0,208.0,346.0,209.0" stroke="green" stroke-width="1" fill="none" />
<polyline points="331.5,208.5,339.0,209.0,345.5,210.5,338.0,212.0,337.5,210.5" stroke="black" stroke-width="1" fill="none" />
<polyline points="" stroke="green" stroke-width="1" fill="none" />
<polyline points="348.5,206.5,351.5,214.5,352.5,216.5,357.0,214.0" stroke="orange" stroke-width="1" fill="none" />
<polyline points="355.0,208.0,352.0,204.5,346.0,202.0,344.5,206.0" stroke="yellow" stroke-width="1" fill="none" />
<polyline points="343.0,204.0,350.0,204.0,349.0,204.5,352.5,204.5" stroke="orange" stroke-width="1" fill="none" />
<polyline points="349.0,195.0" stroke="orange" stroke-width="1" fill="none" />
<polyline points="339.0,197.0,344.0,196.5,345.5,201.0,347.0,202.5,352.0,206.5,352.5,208.0" stroke="black" stroke-width="1" fill="none" />
<polyline points="" stroke="black" stroke-width="1" fill="none" />
<polyline points="368.0,196.5,368.5,196.5" stroke="orange" stroke-width="1" fill="none" />
<polyline points="393.0,154.5,391.5,163.0,382.5,164.0,387.5,163.5,384.5,176.0,383.0,177.5,387.5,174.5,385.5,164.0,389.0,155.5,393.5,157.5" stroke="black" stroke-width="1" fill="none" />
<polyline points="398.5,164.5,397.0,165.0,399.5,161.0,401.5,163.0,389.5,173.5,396.0,174.5,391.0,172.5,396.5,170.5,398.5,166.0" stroke="yellow" stroke-width="1" fill="none" />
<polyline points="395.5,126.0,386.0,132.0,381.0,137.0,392.0,131.5,390.0,127.0,394.5,123.0,387.5,125.5" stroke="orange" stroke-width="1" fill="none" />
<polyline points="400.0,115.0,392.0,125.5,389.0,122.5,379.5,130.5,379.5,131.5,379.0,128.0,390.5,123.0,399.5,118.5,402.0,116.5" stroke="green" stroke-width="1" fill="none" />
<polyline points="393.5,118.5,389.5,124.0,382.5,126.5,381.0,129.5,370.5,134.0,364.0,142.5,354.0,143.5,351.5,141.5" stroke="green" stroke-width="1" fill="none" />
<polyline points="331.0,148.0,316.0,158.5,320.5,162.5,315.5,160.0,307.5,167.5" stroke="orange" stroke-width="1" fill="none" />
<polyline points="284.5,174.0" stroke="yellow" stroke-width="1" fill="none" />
<polyline points="280.0,171.0,279.5,171.0,281.0,172.0,286.0,178.0,285.5,177.5,285.5,179.5" stroke="yellow" stroke-width="1" fill="none" />
<polyline points="281.5,176.5,285.5,182.0" stroke="orange" stroke-width="1" fill="none" />
<polyline points="273.0,179.0,282.0,180.5,278.5,172.0,275.5,170.0,273.0,172.5,276.0,170.5" stroke="orange" stroke-width="1" fill="none" />
<polyline points="273.5,184.5,272.0,181.0,262.0,182.0,259.5,174.5,255.0,176.5,260.0,179.5,248.0,172.0,241.5,167.0,245.5,164.0" stroke="green" stroke-width="1" fill="none" />
<polyline points="240.0,171.0,247.0,164.0,245.5,168.5,253.5,164.5,251.0,171.0,260.5,181.0,249.5,183.5,246.5,185.0,244.0,188.0,242.0,193.5,236.0,194.5,236.5,198.0,235.0,208.5,236.0,206.5,246.5,215.5,246.5,207.5,246.5,214.0,254.5,202.0,253.5,210.0,254.0,205.0,249.5,211.5,248.5,217.0,250.5,227.0,237.5,219.0,243.5,235.5,239.0,229.5,237.0,232.5,236.0,245.5,229.5,248.5,229.5,255.5,224.0,254.0,220.5,255.0,218.0,260.0,220.0,271.0,217.0,271.5,209.0,276.5,206.5,284.0,204.0,284.0,204.0,290.5,205.5,297.5,199.5,302.0,197.5,298.0,194.0,305.0,200.0,309.0,198.0,315.0,188.5,312.0,192.0,312.0,182.5,315.5,183.0,323.5,179.0,326.5,173.5,332.0,165.0,329.0,166.5,342.0,163.5,342.5,162.5,338.5" stroke="black" stroke-width="1" fill="none" />
<polyline points="154.5,352.0,159.0,347.5,162.0,359.0,148.5,358.0,155.0,366.0,151.5,370.0,160.5,376.0,156.5,370.5,154.5,382.0,152.0,384.5,155.5,391.5,157.5,393.5,151.0,390.0,156.5,401.5,159.5,405.5,162.5,405.0,164.0,409.0" stroke="orange" stroke-width="1" fill="none" />
<polyline points="166.0,409.0,167.5,407.0,162.5,405.5,158.5,412.5,156.0,416.5" stroke="black" stroke-width="1" fill="none" />
<polyline points="169.5,412.0,166.5,413.0,168.5,412.5,165.0,414.0,171.0,416.5,170.5,420.5,170.5,426.0,171.0,423.0" stroke="orange" stroke-width="1" fill="none" />
<polyline points="166.0,431.0" stroke="black" stroke-width="1" fill="none" />
<polyline points="183.0,446.0,176.5,443.0,175.5,442.0,188.5,448.5,187.0,438.5,188.5,444.0,187.0,441.5" stroke="green" stroke-width="1" fill="none" />
<polyline points="190.5,448.0,189.5,449.0" stroke="green" stroke-width="1" fill="none" />
<polyline points="" stroke="yellow" stroke-width="1" fill="none" />
<polyline points="" stroke="black" stroke-width="1" fill="none" />
<polyline points="180.5,457.5,178.5,463.0,179.0,460.5,166.0,468.5,170.5,470.5,165.5,472.5" stroke="green" stroke-width="1" fill="none" />
<polyline points="163.5,470.5,155.0,472.0,157.5,472.5,153.0,466.0,139.0,454.0,139.5,456.5,139.0,454.5,138.0,458.0,136.0,459.0" stroke="black" stroke-width="1" fill="none" />
<polyline points="136.0,466.5,142.5,472.0,143.5,474.0,145.5,481.0,149.0,479.5,156.0,485.0,153.5,482.5,154.0,481.0,156.0,488.0,164.5,493.5,160.5,492.0" stroke="green" stroke-width="1" fill="none" />
<polyline points="163.5,502.0,167.5,504.0,165.0,503.5,164.0,500.0" stroke="black" stroke-width="1" fill="none" />
<polyline points="170.0,504.5,169.0,502.0,167.0,509.0,153.0,508.5,156.5,501.5,153.5,505.0,148.5,494.0,142.5,490.0,143.0,486.0" stroke="yellow" stroke-width="1" fill="none" />
<polyline points="142.0,480.5,146.5,490.5,149.0,495.5,148.0,504.0,147.5,501.0" stroke="orange" stroke-width="1" fill="none" />
<polyline points="147.5,498.0" stroke="black" stroke-width="1" fill="none" />
<polyline points="" stroke="orange" stroke-width="1" fill="none" />
<polyline points="159.0,490.0,155.5,503.0" stroke="green" stroke-width="1" fill="none" />
<polyline points="150.5,488.0,151.0,489.5" stroke="green" stroke-width="1" fill="none" />
<polyline points="149.0,488.5,154.5,493.0,156.5,495.5,159.0,497.5,156.0,500.0,157.5,506.5,157.0,512.0,163.0,506.0,162.5,508.5,161.5,510.0" stroke="orange" stroke-width="1" fill="none" />
<polyline points="150.0,502.0,142.5,498.0,149.5,490.5,144.0,488.5,136.5,480.0,141.5,482.0,142.5,484.5" stroke="black" stroke-width="1" fill="none" />
<polyline points="146.0,492.5,152.5,494.5,149.0,495.0,149.5,499.5,148.5,502.5,152.0,504.0,151.0,508.0,153.5,508.0" stroke="green" stroke-width="1" fill="none" />
<polyline points="142.0,499.0,144.5,498.0" stroke="yellow" stroke-width="1" fill="none" />
<polyline points="143.0,503.0,148.5,508.0,153.0,507.5,152.5,515.5" stroke="orange" stroke-width="1" fill="none" />
<polyline points="139.0,510.5,142.0,514.0,139.0,505.0,133.0,500.0,137.5,494.0,140.5,493.0,134.0,485.5" stroke="orange" stroke-width="1" fill="none" />
<polyline points="136.0,485.0,138.0,491.0,142.0,496.5,128.5,501.5,143.0,503.0,140.5,498.5,142.0,501.0" stroke="green" stroke-width="1" fill="none" />
<polyline points="" stroke="black" stroke-width="1" fill="none" />
<polyline points="123.0,507.5,126.0,507.5" stroke="orange" stroke-width="1" fill="none" />
<polyline points="121.5,506.5,122.0,512.0,125.0,505.0,123.0,495.0,123.5,498.5,126.5,488.5,130.0,489.5" stroke="black" stroke-width="1" fill="none" />
<polyline points="129.0,501.0,129.0,496.0,126.0,498.5" stroke="green" stroke-width="1" fill="none" />
<polyline points="135.0,516.5,131.0,516.0,134.0,511.0,130.0,506.0,126.0,504.0,125.5,507.5" stroke="black" stroke-width="1" fill="none" />
<polyline points="141.0,493.5,137.5,488.5,138.5,479.5,138.0,483.5" stroke="black" stroke-width="1" fill="none" />
<polyline points="131.0,479.0,130.5,487.0,134.0,493.5,133.5,495.0,140.0,506.5,136.0,504.0,140.5,511.0,138.5,518.5,133.5,506.5" stroke="green" stroke-width="1" fill="none" />
<polyline points="161.0,508.5,163.0,510.0" stroke="green" stroke-width="1" fill="none" />
<polyline points="158.5,495.0" stroke="green" stroke-width="1" fill="none" />
<polyline points="170.0,482.0,159.0,482.5" stroke="yellow" stroke-width="1" fill="none" />
<polyline points="166.5,477.0,165.0,472.0" stroke="yellow" stroke-width="1" fill="none" />
<polyline points="166.5,470.5,162.5,468.5,172.5,470.5,174.5,473.5,175.0,481.0,160.5,484.5,170.0,486.5,173.0,500.5,173.5,492.0,171.5,490.5" stroke="yellow" stroke-width="1" fill="none" />
<polyline points="197.0,489.5,210.0,487.5,211.0,484.5,208.0,479.5,208.0,484.5,217.5,482.0,224.0,475.0,225.5,476.0" stroke="black" stroke-width="1" fill="none" />
<polyline points="232.5,461.5,233.0,457.5,230.0,456.0" stroke="yellow" stroke-width="1" fill="none" />
<polyline points="213.5,478.5,221.0,473.0,223.0,470.0,221.5,466.5,230.0,464.0,229.0,455.0,232.5,453.0,231.5,448.0,232.5,446.0,233.0,444.5,236.0,439.5,234.0,433.5,239.5,433.5,232.0,423.5,245.0,426.0,229.0,416.5,225.5,417.0,235.0,411.0,233.5,404.5,228.0,402.5,224.5,399.5" stroke="yellow" stroke-width="1" fill="none" />
<polyline points="231.0,406.5,227.5,411.0,222.5,410.0,221.5,409.5,222.0,417.0,225.0,411.0,225.5,410.0" stroke="green" stroke-width="1" fill="none" />
<polyline points="239.0,416.0,226.0,414.5,222.0,418.0,231.0,427.0,220.5,423.0,223.0,417.5,223.0,417.0,226.5,417.5" stroke="orange" stroke-width="1" fill="none" />
<polyline points="250.0,418.5,246.5,425.5,242.0,426.0,236.5,421.0,240.5,433.5,240.0,434.5,241.0,446.0,238.0,444.0,243.0,447.0,237.0,454.5,234.0,454.0,231.0,458.5,236.5,470.0,231.5,469.5,222.5,473.5,223.5,477.0,225.0,480.0,219.0,489.5,211.5,485.5" stroke="black" stroke-width="1" fill="none" />
<polyline points="194.5,498.5,198.5,492.5,207.0,492.5,206.0,496.0,209.5,492.0,216.5,492.0,216.0,489.0,222.5,486.5,230.5,480.5" stroke="orange" stroke-width="1" fill="none" />
<polyline points="202.0,444.5,199.5,450.5,197.0,446.0,187.5,447.5,192.0,447.5" stroke="green" stroke-width="1" fill="none" />
<polyline points="183.0,450.0,182.0,455.0,192.0,452.5,185.0,452.0,181.5,439.5,189.5,439.0,180.5,432.0,175.5,431.0,183.5,430.5,189.0,426.0,182.0,421.0,180.0,422.5,184.0,415.0,174.0,415.5,175.0,414.5,168.0,398.5,162.0,398.0,164.0,391.0,165.5,392.0,161.5,386.0,165.0,382.5,167.0,379.0,167.5,379.5" stroke="black" stroke-width="1" fill="none" />
<polyline points="162.0,366.0,166.0,367.5,176.0,367.0,176.0,357.0,182.0,346.5,181.0,344.0,185.0,339.5,193.0,335.0,196.0,329.5,200.5,325.5,195.5,321.5,195.5,320.5" stroke="yellow" stroke-width="1" fill="none" />
<polyline points="200.0,317.0,204.5,317.5,210.0,319.5,208.5,317.0" stroke="yellow" stroke-width="1" fill="none" />
<polyline points="187.0,319.0,193.5,305.0,196.0,303.0,203.5,289.5,206.0,288.5,210.0,281.0,216.5,272.5,219.5,262.5,222.0,258.5,226.5,250.5,234.5,245.0,229.5,244.0,239.5,232.0,242.5,228.5,245.0,223.5,252.5,219.0,257.0,217.5,259.5,212.0,250.5,213.0" stroke="orange" stroke-width="1" fill="none" />
<polyline points="271.5,225.5" stroke="black" stroke-width="1" fill="none" />
<polyline points="271.5,233.0,263.5,241.0,258.0,242.5" stroke="black" stroke-width="1" fill="none" />
<polyline points="263.0,232.0,263.5,232.5,267.5,228.5,260.0,229.5,262.0,221.5,270.0,224.5,260.0,224.5,252.5,229.0,254.0,228.0,252.5,228.5,245.0,246.5,244.5,240.5,233.0,251.0,241.0,257.0,222.0,267.0,221.5,273.5,216.0,281.0,219.5,281.0,214.5,280.0,226.5,276.0,222.0,268.5,225.5,262.0,223.0,261.0,230.5,259.5,228.5,255.5,241.0,246.5,231.5,247.0,247.0,238.5,248.0,236.0,245.5,235.5,254.5,222.5,261.5,221.5,261.0,216.0,260.0,220.0,261.5,216.0,265.5,211.0,267.5,213.5,269.5,201.5,274.5,199.5,270.0,197.0,274.0,194.5,267.0,191.5,270.0,185.0,265.0,190.5,259.5,197.0,256.5,200.5,265.5,201.0,259.0,201.5,261.0,206.0,268.5,194.0" stroke="green" stroke-width="1" fill="none" />
<polyline points="253.5,194.5" stroke="green" stroke-width="1" fill="none" />
<polyline points="247.5,207.5,258.0,215.5,253.5,214.5,247.0,221.5,241.5,229.5,243.0,229.5,226.5,237.5,230.5,234.0,222.5,236.0,223.5,227.5,232.5,227.0,227.0,221.0,225.5,216.5,225.5,218.5,218.0,216.5,219.0,217.5,231.0,201.0,222.5,206.5,222.5,206.5,220.0,204.5,218.5,204.0" stroke="black" stroke-width="1" fill="none" />
<polyline points="231.5,199.0,242.0,198.5,237.0,202.0,230.5,208.0" stroke="black" stroke-width="1" fill="none" />
<polyline points="" stroke="green" stroke-width="1" fill="none" />
<polyline points="237.5,188.5" stroke="orange" stroke-width="1" fill="none" />
<polyline points="251.0,205.5,251.5,195.5,259.0,186.0,258.5,188.5,256.5,182.5,248.5,194.0,242.0,197.0,253.0,192.0,268.5,186.0,257.5,192.5,254.5,186.5,265.0,181.0,268.5,175.5,279.0,184.0,273.5,184.0,274.5,178.0,277.0,178.0,277.0,175.5" stroke="orange" stroke-width="1" fill="none" />
<polyline points="255.0,174.0,259.5,179.0,254.5,187.0,252.0,195.5,252.0,192.5,252.5,196.5,251.0,200.5,243.5,199.0,238.5,207.0,244.0,204.0,255.5,204.0,249.0,197.0,253.5,195.5,264.0,194.5,260.5,186.0,263.5,181.5,270.5,196.0,272.0,195.0" stroke="black" stroke-width="1" fill="none" />
<polyline points="265.0,203.5,261.0,205.0,261.0,203.5,264.0,195.5,266.0,194.5,272.0,187.0,272.5,191.5,276.0,189.5" stroke="orange" stroke-width="1" fill="none" />
<polyline points="256.5,193.5,260.0,190.0,260.5,194.5,254.0,194.5,249.0,200.5,245.0,210.0,250.5,211.5,253.5,220.0,252.0,219.5" stroke="yellow" stroke-width="1" fill="none" />
<polyline points="258.5,202.5,262.0,207.0,269.0,202.0,262.5,202.0,260.0,208.0,262.5,206.5,257.5,214.5,258.5,216.0,254.0,226.5,248.5,224.5,242.0,229.0,243.5,231.5,239.0,243.5" stroke="yellow" stroke-width="1" fill="none" />
<polyline points="" stroke="green" stroke-width="1" fill="none" />
<polyline points="" stroke="orange" stroke-width="1" fill="none" />
<polyline points="229.0,222.0,221.5,219.5,232.0,229.5,231.5,227.0" stroke="green" stroke-width="1" fill="none" />
<polyline points="217.0,233.0,218.0,226.0" stroke="green" stroke-width="1" fill="none" />
<polyline points="223.5,234.0,228.0,243.0,218.5,235.5,226.5,244.5,221.0,244.0" stroke="black" stroke-width="1" fill="none" />
<polyline points="227.0,247.0,225.0,247.5,225.0,238.5,232.0,231.5,222.5,235.5,220.0,231.5,220.5,227.0,214.5,223.0,219.5,224.5" stroke="orange" stroke-width="1" fill="none" />
<polyline points="215.5,216.0,220.5,231.5,213.0,230.5,214.5,233.5,223.0,229.5,229.5,246.5,226.5,249.0,229.5,247.5,229.0,248.5" stroke="black" stroke-width="1" fill="none" />
<polyline points="224.0,252.0,217.0,262.5,216.0,271.0,216.0,273.0,205.0,286.5,197.5,286.0,195.5,293.0,196.0,304.5,190.5,318.5,190.0,319.5,185.0,329.0,177.5,327.5,172.5,330.0,174.5,332.0,164.5,337.5,157.5,334.0,157.0,333.5,153.0,342.5,143.0,350.5,143.0,345.0,141.0,344.5" stroke="yellow" stroke-width="1" fill="none" />
<polyline points="139.0,346.0,148.0,334.0,148.5,342.0,147.0,337.0,145.5,333.5,152.5,328.5,148.0,326.0,151.0,329.5" stroke="green" stroke-width="1" fill="none" />
<polyline points="154.5,332.5,150.5,332.5" stroke="green" stroke-width="1" fill="none" />
<polyline points="145.5,350.0,148.0,348.0,146.5,356.5" stroke="orange" stroke-width="1" fill="none" />
<polyline points="147.5,349.0,135.0,345.5,133.0,339.0,136.5,342.0,132.0,335.0,139.5,328.5,133.5,326.5,134.0,322.5,134.0,316.5,129.5,315.0,130.5,311.5,127.0,304.5,131.5,298.0,129.5,297.5,135.0,296.0" stroke="black" stroke-width="1" fill="none" />
<polyline points="130.5,299.5,130.0,296.5,127.5,296.5" stroke="green" stroke-width="1" fill="none" />
<polyline points="150.0,299.5,132.0,292.5,143.0,307.0,138.5,303.5,140.5,304.5,141.0,301.0" stroke="yellow" stroke-width="1" fill="none" />
<polyline points="123.5,286.5,133.5,295.0,134.5,289.5,131.5,289.5" stroke="orange" stroke-width="1" fill="none" />
<polyline points="129.5,281.0,133.0,272.5,138.5,279.5,142.5,272.5,143.5,274.0" stroke="black" stroke-width="1" fill="none" />
<polyline points="152.0,265.0,157.0,264.5" stroke="yellow" stroke-width="1" fill="none" />
<polyline points="155.5,260.0,156.0,269.0,155.0,275.5,154.5,269.5,157.0,272.0,161.0,269.5" stroke="yellow" stroke-width="1" fill="none" />
<polyline points="151.0,273.0,155.0,271.5,154.5,271.5" stroke="orange" stroke-width="1" fill="none" />
<polyline points="168.0,278.5,174.5,276.0,168.5,276.5,171.5,267.5,172.5,268.5,167.0,260.0,173.5,254.0,170.0,256.0,174.0,258.0,167.5,257.5,169.5,263.0" stroke="black" stroke-width="1" fill="none" />
<polyline points="171.5,253.5,178.5,250.0,180.0,251.5,179.0,247.0" stroke="yellow" stroke-width="1" fill="none" />
<polyline points="171.0,260.0,173.0,262.5" stroke="orange" stroke-width="1" fill="none" />
<polyline points="" stroke="orange" stroke-width="1" fill="none" />
<polyline points="180.5,262.5,184.5,261.0,185.5,259.5,188.5,260.0" stroke="yellow" stroke-width="1" fill="none" />
<polyline points="" stroke="black" stroke-width="1" fill="none" />
<polyline points="181.0,262.0,181.5,263.5" stroke="black" stroke-width="1" fill="none" />
<polyline points="180.0,252.5,187.0,257.5,187.0,260.5,182.5,267.5,193.0,262.5,184.0,267.5,184.0,268.5" stroke="black" stroke-width="1" fill="none" />
<polyline points="204.0,262.0,207.0,265.0,207.5,265.0" stroke="black" stroke-width="1" fill="none" />
<polyline points="213.5,249.0,219.5,264.5,210.0,251.5,206.5,247.0,209.5,244.0,208.5,237.5,207.5,236.5,211.5,238.5,206.5,241.0,202.0,237.5" stroke="orange" stroke-width="1" fill="none" />
<polyline points="206.5,239.5,208.5,236.5,209.0,247.5,212.5,245.0,218.5,242.0,220.0,246.5,214.0,247.5" stroke="orange" stroke-width="1" fill="none" />
<polyline points="204.0,251.5,205.0,249.0" stroke="black" stroke-width="1" fill="none" />
<polyline points="214.5,258.5" stroke="green" stroke-width="1" fill="none" />
<polyline points="211.5,256.5,212.0,259.0,213.0,248.5,211.0,248.5,207.0,240.0,208.0,242.0,211.0,236.0" stroke="yellow" stroke-width="1" fill="none" />
<polyline points="212.0,235.5,209.0,238.0,214.5,243.5,212.5,248.0,209.5,254.0,210.0,254.5,218.0,259.0,216.5,261.5" stroke="black" stroke-width="1" fill="none" />
<polyline points="207.0,254.0,215.5,251.0,209.5,246.0" stroke="green" stroke-width="1" fill="none" />
<polyline points="196.5,254.5,197.5,254.0,191.0,246.5" stroke="black" stroke-width="1" fill="none" />
<polyline points="192.5,250.5,195.0,252.5" stroke="green" stroke-width="1" fill="none" />
<polyline points="186.0,270.5,188.5,268.5,184.0,266.0,185.5,260.5,174.0,265.0,176.5,259.5,188.0,247.0,182.5,247.5,181.5,238.5,188.5,234.5,191.0,237.5,180.0,245.5,180.0,241.0" stroke="yellow" stroke-width="1" fill="none" />
<polyline points="188.5,228.0,190.0,223.0,196.5,216.5,200.0,215.0,190.0,228.0" stroke="black" stroke-width="1" fill="none" />
<polyline points="190.0,217.0,183.5,224.0,182.0,221.5,188.5,229.0,188.0,233.0" stroke="orange" stroke-width="1" fill="none" />
<polyline points="183.5,239.0,185.5,239.0,184.0,241.0,185.5,238.5" stroke="yellow" stroke-width="1" fill="none" />
<polyline points="186.5,241.0,190.5,245.0,192.0,238.0,193.5,239.0,204.0,238.5,199.0,240.5,196.0,244.5" stroke="green" stroke-width="1" fill="none" />
<polyline points="216.5,226.5,212.5,226.5" stroke="black" stroke-width="1" fill="none" />
<polyline points="" stroke="black" stroke-width="1" fill="none" />
<polyline points="211.0,222.0,215.5,221.0,218.5,231.0,219.0,237.0,219.0,238.0" stroke="green" stroke-width="1" fill="none" />
<polyline points="227.5,197.0,227.0,196.5,219.5,213.5,221.5,220.0,221.0,214.0,222.5,216.5,228.5,228.5,233.0,226.5,228.5,231.0,235.0,232.5,237.5,244.5,234.5,241.0,236.0,249.0,231.5,247.5,228.5,249.0,223.0,254.0,219.5,261.5,219.0,262.5,219.0,265.5,219.0,272.0,217.0,280.5,206.0,279.5,216.5,293.0,202.5,288.5,202.5,294.0,211.0,303.0,191.5,303.0,204.0,307.0,207.0,313.0,200.0,314.5,192.5,316.5,191.0,323.5,200.5,321.5,198.0,311.5,203.5,311.0,214.0,311.5,216.0,308.5,222.5,295.5,227.5,299.5,234.0,287.0,227.0,280.5,239.0,280.5,234.5,270.0,239.5,267.5,250.5,265.5,246.5,260.0,253.5,256.0,255.0,254.0,260.5,250.5,264.0,251.0,269.5,244.0,282.5,251.0,278.5,248.5,281.5,251.0,292.0,249.0,287.0,245.0,303.0,256.0,300.5,253.0" stroke="yellow" stroke-width="1" fill="none" />
<polyline points="" stroke="green" stroke-width="1" fill="none" />
<polyline points="286.5,260.5,291.0,273.0,289.5,278.0,291.0,275.0,293.0,278.5,296.5,275.5" stroke="black" stroke-width="1" fill="none" />
<polyline points="" stroke="orange" stroke-width="1" fill="none" />
<polyline points="" stroke="green" stroke-width="1" fill="none" />
<polyline points="282.0,275.0,281.0,277.0,281.5,274.0" stroke="green" stroke-width="1" fill="none" />
<polyline points="280.5,263.5,279.5,266.5,273.0,265.5,271.5,262.5" stroke="orange" stroke-width="1" fill="none" />
<polyline points="272.5,267.0,274.5,264.0,278.5,261.5" stroke="orange" stroke-width="1" fill="none" />
<polyline points="268.5,265.0,260.5,265.0,264.0,260.0,269.0,268.5,263.0,262.5" stroke="black" stroke-width="1" fill="none" />
<polyline points="262.5,268.0,261.5,272.5,266.5,273.5,272.0,271.0,275.0,265.0,283.0,263.5,278.0,277.5,271.0,287.5,277.0,275.5,275.0,280.5,279.5,287.0,278.5,290.5" stroke="yellow" stroke-width="1" fill="none" />
<polyline points="261.5,281.0,261.5,272.5,259.0,270.0,262.0,267.5,258.5,271.5,256.5,274.5,253.5,273.0,254.0,274.5" stroke="orange" stroke-width="1" fill="none" />
<polyline points="270.5,272.5,268.5,278.5" stroke="orange" stroke-width="1" fill="none" />
<polyline points="251.0,270.0,247.0,267.5" stroke="black" stroke-width="1" fill="none" />
<polyline points="244.0,269.0,251.5,266.0,253.5,271.0,256.0,277.0,253.5,278.5,263.5,273.5,270.5,274.0,268.0,280.0,275.5,282.0,281.5,279.0,283.5,274.5" stroke="green" stroke-width="1" fill="none" />
<polyline points="289.0,262.5,285.0,264.0,281.5,258.5,278.5,260.5,283.5,255.0,278.0,251.0,274.5,253.0,277.0,251.0,277.0,250.5,276.5,252.0" stroke="green" stroke-width="1" fill="none" />
<polyline points="271.0,247.5" stroke="green" stroke-width="1" fill="none" />
<polyline points="" stroke="black" stroke-width="1" fill="none" />
<polyline points="269.5,259.0,271.5,258.0,279.5,253.5,268.0,260.0,263.0,254.5,261.0,252.0,259.0,257.0" stroke="black" stroke-width="1" fill="none" />
<polyline points="270.5,263.0,263.5,271.0,261.5,272.5" stroke="green" stroke-width="1" fill="none" />
<polyline points="278.0,269.5,284.5,269.5,287.0,269.5,291.0,278.5,286.5,276.0,284.5,273.5,284.0,280.5,290.5,277.0,289.0,272.0" stroke="orange" stroke-width="1" fill="none" />
<polyline points="" stroke="black" stroke-width="1" fill="none" />
<polyline points="265.0,243.0,255.5,252.5,259.0,247.0,256.5,256.0,245.5,265.0,244.5,265.5,242.5,267.0,237.0,272.5,234.0,278.0,232.0,285.0,229.5,285.5,225.0,287.5,219.5,298.0,213.5,298.0,216.0,301.0,212.0,297.5,208.0,313.5,199.0,313.0,199.5,315.0,202.0,319.5,199.0,325.0,191.5,332.0,192.5,333.5,183.0,331.0,185.0,347.5,185.0,344.5,175.5,347.5,172.5,356.5,177.0,356.0,167.5,361.0,169.0,372.0,164.5,371.0,161.5,377.0,158.5,375.5,152.0,389.5,164.0,388.0,159.0,394.5,169.0,400.0,176.5,408.0,176.5,406.0,176.5,404.0,172.5,396.5" stroke="yellow" stroke-width="1" fill="none" />
<polyline points="165.0,403.5,156.0,390.5,154.5,390.5,159.5,394.5,160.0,388.0" stroke="black" stroke-width="1" fill="none" />
<polyline points="" stroke="black" stroke-width="1" fill="none" />
<polyline points="138.0,378.5,139.0,377.5,140.0,370.5,140.5,371.5,142.5,372.5,141.5,362.0" stroke="black" stroke-width="1" fill="none" />
<polyline points="141.5,382.0" stroke="orange" stroke-width="1" fill="none" />
<polyline points="134.0,411.5,130.0,414.5,130.0,416.5,133.5,419.0,137.5,424.5,136.0,425.5,138.0,430.5,138.5,438.0,137.0,442.0,136.0,442.5,142.5,442.5,143.5,452.5,139.5,451.5,136.5,463.5,139.5,459.5,140.5,468.0,139.5,465.5,139.5,469.0,147.5,470.0,148.0,480.5,148.5,475.0,157.0,482.5,162.0,484.0,164.5,481.0" stroke="orange" stroke-width="1" fill="none" />
<polyline points="" stroke="orange" stroke-width="1" fill="none" />
<polyline points="177.0,459.5,177.0,466.0,175.5,463.0,185.0,458.0,169.5,466.5,177.0,457.0,175.0,457.0,171.0,449.0,162.0,443.5,175.5,439.0,165.0,441.0,169.5,434.5,170.5,432.0" stroke="yellow" stroke-width="1" fill="none" />
<polyline points="169.5,436.5,161.5,439.0,163.5,440.0" stroke="black" stroke-width="1" fill="none" />
<polyline points="157.0,424.5,161.0,419.0,160.5,425.0,149.0,412.0,162.5,409.5,155.0,412.5,149.5,413.0,154.0,402.0,156.5,404.0,161.5,393.5,153.5,393.5,148.0,393.0,152.5,383.0,146.0,370.5,143.0,374.0,143.0,367.0,140.0,365.0,151.5,365.0,143.5,362.0" stroke="orange" stroke-width="1" fill="none" />
<polyline points="146.0,360.5,144.5,363.5,149.0,359.5,151.0,371.0,151.0,377.5,152.0,378.5,150.5,383.5,153.5,380.0,151.0,381.5,156.5,397.5,157.5,392.0,162.5,400.0,170.0,399.5,172.0,403.5,167.5,406.0" stroke="orange" stroke-width="1" fill="none" />
<polyline points="171.0,421.0,175.0,425.0,177.0,428.0,175.5,429.0,169.5,439.5,171.5,440.0,169.5,437.5,167.0,443.0,171.0,452.0,172.0,456.5,177.0,462.5,172.5,458.5,175.0,466.5" stroke="green" stroke-width="1" fill="none" />
<polyline points="172.0,459.0,170.5,452.5" stroke="orange" stroke-width="1" fill="none" />
<polyline points="160.0,446.0,160.0,443.5,161.5,449.0,168.0,454.0,161.5,462.0,174.5,457.5,167.5,465.5,168.0,467.5,163.5,467.5,161.5,479.5,170.0,475.0,153.0,481.0,162.0,488.5,164.0,485.0,158.0,496.0,159.5,492.5,162.5,505.0,169.5,500.0,173.0,510.0,173.5,515.0,171.5,509.0,169.0,512.5" stroke="orange" stroke-width="1" fill="none" />
<polyline points="" stroke="black" stroke-width="1" fill="none" />
<polyline points="155.5,465.0,157.5,461.5,157.0,465.5" stroke="yellow" stroke-width="1" fill="none" />
<polyline points="" stroke="yellow" stroke-width="1" fill="none" />
<polyline points="149.5,458.5,149.5,449.0,163.5,449.5,152.0,446.5,155.0,443.0,149.5,438.5,146.5,436.5,156.0,430.5,148.5,425.5,144.5,425.5,142.0,421.0,138.0,414.5,130.0,411.5,136.5,407.0" stroke="yellow" stroke-width="1" fill="none" />
<polyline points="136.5,403.0,139.0,400.5,145.5,398.5,146.0,397.5,152.0,393.5,146.0,394.5,145.0,399.5" stroke="orange" stroke-width="1" fill="none" />
<polyline points="141.0,393.5,145.5,397.0,140.5,403.5,136.0,406.5,135.5,409.0" stroke="orange" stroke-width="1" fill="none" />
<polyline points="136.0,398.0,141.0,407.5,143.5,403.5,144.0,409.0,143.5,411.0,145.0,409.5,146.5,414.0" stroke="green" stroke-width="1" fill="none" />
<polyline points="157.5,419.0,152.0,424.5,151.5,430.0,158.0,425.5,154.5,435.0,148.5,439.0" stroke="orange" stroke-width="1" fill="none" />
<polyline points="167.0,444.0,162.0,440.0,170.5,447.5,176.5,445.5,182.0,440.5,172.0,427.5" stroke="black" stroke-width="1" fill="none" />
<polyline points="181.0,427.5,186.5,427.0,173.0,412.0,175.5,416.5,178.5,417.0,168.5,413.0,167.0,412.0,164.0,408.0,164.5,399.0" stroke="yellow" stroke-width="1" fill="none" />
<polyline points="171.5,408.5,179.5,414.5,170.5,421.0,164.5,419.5,170.5,429.0,162.5,431.0,162.0,431.0,158.0,430.0,160.0,441.0,162.0,438.5,164.0,430.0,175.5,430.0,171.5,426.5" stroke="yellow" stroke-width="1" fill="none" />
<polyline points="169.5,428.5,163.5,430.0,173.5,432.5,172.0,433.5" stroke="orange" stroke-width="1" fill="none" />
<polyline points="167.5,439.0,163.5,445.0,156.0,449.5,154.5,453.0,159.5,453.0,163.0,453.0,161.5,457.0,164.0,462.0" stroke="yellow" stroke-width="1" fill="none" />
<polyline points="165.0,456.0,162.0,459.0,161.0,455.5,166.0,454.5,157.5,448.5,156.0,446.0" stroke="green" stroke-width="1" fill="none" />
<polyline points="" stroke="black" stroke-width="1" fill="none" />
<polyline points="150.5,452.0,152.0,453.0,152.5,456.0,154.0,455.5,152.5,458.5,164.0,456.0" stroke="orange" stroke-width="1" fill="none" />
<polyline points="145.5,444.5" stroke="yellow" stroke-width="1" fill="none" />
<polyline points="145.0,452.5,149.0,461.5,150.0,462.5,148.5,471.0,156.5,470.5,149.0,473.5,155.5,478.0,153.0,478.5,156.5,480.5,155.5,481.5" stroke="green" stroke-width="1" fill="none" />
<polyline points="152.0,474.0,149.5,468.5" stroke="black" stroke-width="1" fill="none" />
<polyline points="144.5,465.0,151.0,466.5,153.5,467.0,154.5,465.5" stroke="black" stroke-width="1" fill="none" />
<polyline points="148.5,472.0,139.0,469.0,146.5,468.5" stroke="black" stroke-width="1" fill="none" />
<polyline points="140.5,453.5,138.5,456.0,146.0,460.5,141.0,458.5,145.5,474.5,142.0,472.5,153.5,475.0,155.5,480.5,155.0,479.0" stroke="green" stroke-width="1" fill="none" />
<polyline points="160.5,473.5,162.0,476.5,155.0,472.5,158.0,473.5,156.5,473.5,147.0,464.0,151.5,460.5,141.5,455.5" stroke="green" stroke-width="1" fill="none" />
<polyline points="145.0,457.5,140.0,451.0,146.0,456.5,142.5,458.5,145.0,468.5,149.0,470.5,149.0,470.5,153.0,476.5,152.5,476.5,156.0,488.5,158.0,490.0,157.0,489.5,164.5,494.5,165.5,499.0,168.0,497.0" stroke="orange" stroke-width="1" fill="none" />
<polyline points="165.5,463.5,160.5,453.0,162.5,452.0,156.5,454.0,158.0,448.5,157.5,448.0,154.0,453.0,152.0,446.0,152.5,444.5,152.0,430.0,147.0,436.0,146.0,433.0,152.0,433.0,143.0,424.0" stroke="yellow" stroke-width="1" fill="none" />
<polyline points="" stroke="orange" stroke-width="1" fill="none" />
<polyline points="150.0,428.5,143.5,428.0" stroke="black" stroke-width="1" fill="none" />
<polyline points="141.0,417.5,146.0,415.0" stroke="black" stroke-width="1" fill="none" />
<polyline points="138.5,408.5,142.0,408.0,145.0,421.5,145.0,422.5,149.0,419.5,147.0,428.0,151.0,431.0,152.0,431.5" stroke="green" stroke-width="1" fill="none" />
<polyline points="157.0,419.5,150.5,429.0,155.0,427.0,151.5,411.5,150.0,410.5,150.5,402.0,149.0,399.0,150.0,392.5,145.5,393.5,143.5,394.5,143.0,396.0" stroke="orange" stroke-width="1" fill="none" />
<polyline points="154.0,396.0,145.5,401.5,145.5,403.5" stroke="black" stroke-width="1" fill="none" />
<polyline points="" stroke="orange" stroke-width="1" fill="none" />
<polyline points="147.5,404.0,142.5,399.5,141.5,398.0,137.5,398.0,126.5,405.5,126.0,401.0,124.5,402.5,122.5,396.0,118.5,396.0,123.5,397.0" stroke="yellow" stroke-width="1" fill="none" />
<polyline points="119.5,396.5,125.0,393.5,120.0,403.0,131.5,404.0,128.5,402.0" stroke="black" stroke-width="1" fill="none" />
<polyline points="121.5,409.5,131.5,413.5,135.5,394.0,137.5,401.0,142.0,386.0,134.0,398.5,141.0,385.0,137.5,379.5,143.5,372.0,146.0,376.5,152.5,368.5,150.5,365.5,144.0,365.0,138.0,351.5,137.0,354.0,144.0,353.0,141.5,348.5,134.5,346.5,135.5,345.5,136.5,337.0,139.0,333.5,135.0,330.5,127.0,317.5,133.5,312.5,129.0,321.0,128.0,307.5,123.5,308.0,128.5,298.5,134.0,294.5,131.0,294.5,136.5,292.0,130.5,282.5,128.0,273.5,127.5,274.5" stroke="orange" stroke-width="1" fill="none" />
<polyline points="125.0,267.5,130.0,274.0,132.5,281.0,128.0,288.5,124.5,286.5,128.0,296.0,126.0,299.0,123.5,294.5,129.0,303.0,119.5,306.0,120.5,311.5,117.0,314.0,120.0,321.0,124.5,322.5,122.5,328.5,117.0,333.0,122.0,333.5" stroke="black" stroke-width="1" fill="none" />
<polyline points="122.5,344.0,119.5,343.0" stroke="orange" stroke-width="1" fill="none" />
<polyline points="117.0,343.5,118.5,343.0,125.0,360.0,123.5,368.0,117.5,367.0,117.0,365.5,119.0,368.0,115.5,377.5,118.5,385.0,116.0,384.0,118.0,389.0,119.5,398.5,122.5,400.0,121.5,400.5" stroke="green" stroke-width="1" fill="none" />
<polyline points="122.0,398.0,122.5,399.0,126.0,391.0,116.0,383.0,122.0,392.0,127.5,382.5,125.0,375.5,123.0,378.0,119.5,373.0,115.0,363.0,120.0,369.0,118.0,373.5" stroke="black" stroke-width="1" fill="none" />
<polyline points="125.5,374.0,122.0,383.0,127.0,379.5,126.5,383.0" stroke="orange" stroke-width="1" fill="none" />
<polyline points="121.0,390.5,122.5,387.5,128.5,397.5,127.5,399.0" stroke="green" stroke-width="1" fill="none" />
<polyline points="129.5,392.5,123.5,390.0,130.0,393.0,141.5,390.5,136.0,395.0,142.5,392.5,142.5,392.0" stroke="yellow" stroke-width="1" fill="none" />
<polyline points="" stroke="green" stroke-width="1" fill="none" />
<polyline points="113.5,402.0,117.0,397.0,119.5,396.5,121.5,398.5" stroke="yellow" stroke-width="1" fill="none" />
<polyline points="122.5,420.5,123.0,411.5,125.5,408.0,127.0,404.5,128.0,416.5,127.0,419.5,133.5,421.0,139.0,423.0,132.5,431.0,135.5,433.0" stroke="green" stroke-width="1" fill="none" />
<polyline points="" stroke="green" stroke-width="1" fill="none" />
<polyline points="132.0,411.5,129.5,411.5" stroke="green" stroke-width="1" fill="none" />
<polyline points="148.5,411.5" stroke="green" stroke-width="1" fill="none" />
<polyline points="146.0,403.0,144.5,406.0,142.0,410.0" stroke="orange" stroke-width="1" fill="none" />
<polyline points="" stroke="yellow" stroke-width="1" fill="none" />
<polyline points="155.0,396.0,149.5,390.0,153.5,393.5,150.5,389.5" stroke="orange" stroke-width="1" fill="none" />
<polyline points="170.5,404.0,170.5,399.0,172.0,409.0,176.5,407.5,178.0,413.0,173.5,413.5" stroke="green" stroke-width="1" fill="none" />
<polyline points="164.0,417.5,156.5,407.0,163.5,403.5,158.5,399.0,145.5,397.5,145.0,392.5,145.0,389.5,141.0,392.0,138.0,389.5,138.5,379.5,144.5,391.0,148.0,384.5,131.0,376.0,136.5,377.5,133.5,368.5,140.5,357.0,137.5,365.5,139.0,356.5,145.5,350.5,141.5,357.5,134.0,344.0,131.5,340.0,129.0,334.5,128.0,334.0,138.5,329.5,134.0,321.5" stroke="orange" stroke-width="1" fill="none" />
<polyline points="118.5,326.0,125.5,330.5,124.5,336.0,118.5,344.0" stroke="orange" stroke-width="1" fill="none" />
<polyline points="116.5,344.5,121.0,349.5,120.5,354.5,118.5,364.5,118.5,367.5,122.5,371.0,124.0,377.0,125.5,376.5,128.0,377.5,135.0,388.0,136.5,383.5,131.5,392.0,135.0,394.5" stroke="yellow" stroke-width="1" fill="none" />
<polyline points="" stroke="orange" stroke-width="1" fill="none" />
<polyline points="" stroke="orange" stroke-width="1" fill="none" />
<polyline points="139.0,362.5,129.0,350.5,135.5,355.5" stroke="black" stroke-width="1" fill="none" />
<polyline points="131.5,353.5" stroke="black" stroke-width="1" fill="none" />
<polyline points="131.0,352.0,132.0,353.5,129.5,357.0,141.5,367.5,135.5,370.0,135.0,370.0,136.5,367.0" stroke="yellow" stroke-width="1" fill="none" />
<polyline points="143.0,362.0,143.0,357.5,142.5,355.0,144.5,347.0,142.5,348.5,135.0,345.0,136.0,339.5,132.5,328.5,133.5,335.5,123.5,328.5" stroke="orange" stroke-width="1" fill="none" />
<polyline points="144.5,347.0,138.0,346.0,139.5,349.5" stroke="green" stroke-width="1" fill="none" />
<polyline points="147.5,339.5" stroke="black" stroke-width="1" fill="none" />
<polyline points="132.5,346.0,132.0,348.0,137.0,346.0,142.0,338.5" stroke="green" stroke-width="1" fill="none" />
<polyline points="131.0,339.5,133.0,338.0" stroke="black" stroke-width="1" fill="none" />
<polyline points="116.0,350.5,122.0,344.5,118.5,352.5,114.0,354.0,118.5,364.5,118.0,367.5,118.0,366.5,116.0,375.0,119.0,376.5,121.5,380.0,119.5,391.0,113.0,395.0,117.0,397.0,119.5,405.5,120.5,396.0,116.5,407.5,115.0,412.0,110.0,413.0,116.5,413.5,115.0,409.5" stroke="yellow" stroke-width="1" fill="none" />
<polyline points="119.0,411.5" stroke="green" stroke-width="1" fill="none" />
<polyline points="122.5,421.0,121.0,422.0,124.0,419.0" stroke="black" stroke-width="1" fill="none" />
<polyline points="134.0,424.5,129.0,423.0,126.0,427.5" stroke="yellow" stroke-width="1" fill="none" />
<polyline points="" stroke="green" stroke-width="1" fill="none" />
<polyline points="121.5,437.0,119.0,434.5,112.0,434.0,122.5,434.0,119.0,443.0,124.5,443.5,123.0,438.5,126.5,439.0" stroke="black" stroke-width="1" fill="none" />
<polyline points="116.5,444.0" stroke="black" stroke-width="1" fill="none" />
<polyline points="121.5,453.5" stroke="orange" stroke-width="1" fill="none" />
<polyline points="127.5,450.0,127.5,449.5,125.5,449.5,128.0,452.5" stroke="yellow" stroke-width="1" fill="none" />
<polyline points="106.5,447.0,110.5,441.0,104.0,437.5,107.0,439.5" stroke="green" stroke-width="1" fill="none" />
<polyline points="101.0,434.5" stroke="orange" stroke-width="1" fill="none" />
<polyline points="96.0,459.5,89.5,451.5,87.0,455.0,94.0,459.5,100.0,447.0,91.0,453.0,92.5,453.5" stroke="yellow" stroke-width="1" fill="none" />
<polyline points="81.5,458.5,85.5,460.0,93.0,451.5,95.0,452.0" stroke="green" stroke-width="1" fill="none" />
<polyline points="104.0,462.0,100.0,461.0" stroke="yellow" stroke-width="1" fill="none" />
<polyline points="102.0,494.0,102.5,500.0,103.0,503.5,104.0,511.0,106.5,515.0,109.0,512.0,106.0,510.5,99.0,509.5,106.5,505.0" stroke="black" stroke-width="1" fill="none" />
<polyline points="106.5,513.5,115.0,510.0,109.0,498.5,109.0,490.0,109.5,488.0,112.5,485.0" stroke="green" stroke-width="1" fill="none" />
<polyline points="119.0,488.5,112.0,498.0,112.5,497.5,111.0,503.5,122.0,512.0,113.0,514.0,114.0,511.0" stroke="yellow" stroke-width="1" fill="none" />
<polyline points="98.5,503.0" stroke="orange" stroke-width="1" fill="none" />
<polyline points="104.0,493.5,96.5,494.0,100.0,504.5,104.5,507.5,106.5,509.0,109.5,513.0,108.0,514.0" stroke="yellow" stroke-width="1" fill="none" />
<polyline points="124.0,510.0,117.0,501.5,119.5,506.5,121.0,501.5,122.5,492.0,118.5,494.0,121.5,490.0,120.5,479.0" stroke="yellow" stroke-width="1" fill="none" />
<polyline points="123.0,484.0,123.0,489.0,126.5,488.0,126.5,493.5,130.0,497.0,127.5,505.0" stroke="yellow" stroke-width="1" fill="none" />
<polyline points="156.0,447.0,147.5,446.0,148.0,434.5,139.5,428.5,134.0,424.5,128.5,426.5,129.0,420.5" stroke="black" stroke-width="1" fill="none" />
<polyline points="135.5,422.0,138.0,426.0,128.5,423.5,138.5,430.0,142.5,434.5,142.5,441.5,147.0,446.0,146.0,451.5,139.5,454.5,136.5,456.5,134.5,459.0,131.5,472.5,134.5,458.0,138.5,458.5,138.5,460.5,136.0,461.5" stroke="green" stroke-width="1" fill="none" />
<polyline points="139.5,440.0,141.5,430.0,136.5,428.5" stroke="orange" stroke-width="1" fill="none" />
<polyline points="125.5,428.5,124.0,420.5,127.5,415.5,129.0,416.0" stroke="black" stroke-width="1" fill="none" />
<polyline points="108.5,418.0,115.5,434.5,112.0,428.0" stroke="yellow" stroke-width="1" fill="none" />
<polyline points="127.5,437.0" stroke="black" stroke-width="1" fill="none" />
<polyline points="105.0,413.5,102.0,412.5,111.5,424.0,108.0,428.0,109.5,434.5,110.5,434.5,109.5,438.0,103.0,447.0" stroke="black" stroke-width="1" fill="none" />
<polyline points="103.0,437.5,97.5,442.0,93.5,443.5,87.5,441.5,95.0,440.5,101.0,436.5,104.0,437.0,100.0,428.5,101.5,426.0,113.5,423.0,111.0,423.0" stroke="black" stroke-width="1" fill="none" />
<polyline points="83.5,418.5,88.5,425.0,92.0,427.0,93.0,431.0,93.0,427.5,95.5,426.5,93.5,427.0" stroke="black" stroke-width="1" fill="none" />
<polyline points="88.0,423.5,94.0,423.5,76.5,427.0,85.5,418.0,88.0,419.0,93.5,425.0" stroke="black" stroke-width="1" fill="none" />
<polyline points="95.0,403.0,97.0,403.5,97.5,402.5" stroke="black" stroke-width="1" fill="none" />
<polyline points="" stroke="black" stroke-width="1" fill="none" />
<polyline points="98.0,389.5,85.0,399.5,97.0,396.0,97.5,397.0,91.5,410.5,90.0,405.0" stroke="yellow" stroke-width="1" fill="none" />
<polyline points="98.0,406.0,96.0,410.5,93.0,408.0,95.5,406.0,95.0,403.0,94.5,404.5,94.0,406.5,97.0,397.5,92.0,392.5,89.0,380.0,82.0,386.0,86.0,390.0,86.0,387.0,87.5,385.0" stroke="yellow" stroke-width="1" fill="none" />
<polyline points="86.5,393.0,73.0,401.5,69.0,405.0,70.5,402.5,76.5,406.5,68.5,420.0,69.5,419.5,67.5,417.0,70.5,419.0,65.5,423.0,68.0,428.0,75.0,428.0,71.5,436.0,71.0,432.0,66.0,440.0,68.0,444.0,72.0,444.5,72.5,448.0,71.0,453.5,69.5,460.5,70.5,460.0,79.5,461.5,73.5,470.0,62.5,478.5,69.5,480.5,62.5,479.5,64.0,488.0,67.5,492.5,64.5,499.5,69.0,500.0,65.5,503.0,64.5,503.0,66.0,510.5,58.0,515.0,65.0,506.0,58.5,508.5" stroke="black" stroke-width="1" fill="none" />
<polyline points="62.0,501.0,62.5,505.5" stroke="green" stroke-width="1" fill="none" />
<polyline points="71.0,486.0,72.5,484.5" stroke="green" stroke-width="1" fill="none" />
<polyline points="68.0,478.5,72.0,475.0,64.0,480.5,68.5,478.0,66.0,484.0,67.0,484.0,67.5,488.0,65.5,495.0,68.0,495.0" stroke="orange" stroke-width="1" fill="none" />
<polyline points="67.0,465.5,65.5,468.0,74.0,457.0,80.5,456.0,81.5,452.5" stroke="orange" stroke-width="1" fill="none" />
<polyline points="72.5,460.5,77.0,472.0" stroke="orange" stroke-width="1" fill="none" />
<polyline points="72.5,450.5,73.0,451.5" stroke="black" stroke-width="1" fill="none" />
<polyline points="61.0,452.5,61.5,453.5,63.5,464.5,65.5,461.5,65.5,469.0,65.5,465.5,68.0,473.0,73.0,476.0,73.5,484.0" stroke="yellow" stroke-width="1" fill="none" />
<polyline points="34.0,489.5,30.5,491.5,30.5,501.5,30.0,503.5" stroke="black" stroke-width="1" fill="none" />
<polyline points="18.5,506.0,18.0,496.0,18.5,502.5,16.5,506.0,15.5,504.0,13.5,511.5" stroke="green" stroke-width="1" fill="none" />
<polyline points="17.0,498.5" stroke="black" stroke-width="1" fill="none" />
<polyline points="" stroke="black" stroke-width="1" fill="none" />
<polyline points="13.5,419.0,7.5,425.5,12.5,420.5,2.5,431.5,9.0,430.5,9.0,438.0,12.5,445.0,7.5,444.5,14.0,443.0,11.0,448.0,17.5,453.5,12.0,456.0,12.5,465.0,11.0,459.0,18.5,475.0,16.5,470.0,13.0,481.0,13.0,476.5" stroke="orange" stroke-width="1" fill="none" />
<polyline points="43.5,468.5,33.0,464.0,34.5,453.0,27.5,459.5,30.5,454.5,30.0,441.5,32.0,441.5" stroke="green" stroke-width="1" fill="none" />
<polyline points="24.5,416.0,26.5,420.0,26.5,415.0,27.5,414.0" stroke="green" stroke-width="1" fill="none" />
<polyline points="25.5,413.0,26.5,421.0,24.5,420.0,26.0,425.0,22.0,426.0,24.0,437.5,32.0,441.0,20.0,440.5,26.0,446.5,31.0,448.0,28.5,451.5,21.5,453.5,27.0,463.0,28.0,459.0,26.5,469.0,29.0,476.0,31.0,476.5,25.0,475.5,30.0,484.5,26.5,488.0,28.5,495.0,35.5,497.5,33.5,496.5" stroke="orange" stroke-width="1" fill="none" />
<polyline points="58.5,433.0,65.5,432.5,71.0,439.5" stroke="orange" stroke-width="1" fill="none" />
<polyline points="72.0,426.0,72.0,423.5,65.5,424.0,69.0,422.5,69.0,414.0,67.0,415.0,63.5,406.0,67.0,400.5,78.5,398.0,73.0,395.5,75.5,394.5,70.0,400.5,74.0,396.5,68.0,395.0" stroke="green" stroke-width="1" fill="none" />
<polyline points="78.5,397.5" stroke="yellow" stroke-width="1" fill="none" />
<polyline points="" stroke="orange" stroke-width="1" fill="none" />
<polyline points="70.0,415.0,73.5,403.5,67.0,406.0,70.0,417.5,64.0,420.0,62.5,425.5,65.5,422.0" stroke="yellow" stroke-width="1" fill="none" />
<polyline points="74.0,415.0,72.5,423.0,75.5,423.0" stroke="green" stroke-width="1" fill="none" />
<polyline points="102.0,444.5,100.0,442.0,97.0,439.5,102.0,437.0,99.0,439.0,96.5,441.0" stroke="yellow" stroke-width="1" fill="none" />
<polyline points="" stroke="black" stroke-width="1" fill="none" />
<polyline points="107.0,399.5,106.5,399.5,110.5,408.0,107.5,408.5,99.0,414.5,94.5,414.0,94.5,417.0" stroke="yellow" stroke-width="1" fill="none" />
<polyline points="95.5,406.5,103.5,397.5,107.5,402.0,99.5,396.5,104.5,397.5" stroke="yellow" stroke-width="1" fill="none" />
<polyline points="98.5,371.5,103.5,372.0,108.5,377.0,103.0,366.0,103.5,364.5,104.0,359.0,111.0,360.5,109.5,356.0,109.0,358.0,109.5,352.0,104.5,340.5,109.0,334.5,104.0,336.5" stroke="yellow" stroke-width="1" fill="none" />
<polyline points="104.0,340.0,106.5,340.0,101.0,332.5,104.0,337.0,104.0,334.5" stroke="orange" stroke-width="1" fill="none" />
<polyline points="" stroke="green" stroke-width="1" fill="none" />
<polyline points="104.0,326.0,109.0,306.0,117.0,314.0,122.0,308.0,126.0,309.0,123.5,312.5,114.5,317.0,111.0,325.0,106.5,311.5,105.5,308.5,113.0,310.0,116.0,321.5,104.5,318.5,104.5,320.0,111.0,318.0,114.5,310.5,118.0,301.5,116.0,300.5,118.5,302.5,120.0,301.5" stroke="black" stroke-width="1" fill="none" />
<polyline points="118.5,305.0,116.5,306.5,119.5,313.0,121.5,313.0,118.5,320.0,114.0,323.0,119.0,321.0,110.0,330.5,106.5,335.0,100.5,339.5,93.0,338.5,101.5,344.5,93.5,338.5,102.0,343.0" stroke="black" stroke-width="1" fill="none" />
<polyline points="" stroke="green" stroke-width="1" fill="none" />
<polyline points="97.5,366.0,95.0,362.5,94.0,366.5,92.0,374.5,95.5,376.0,91.5,382.5,91.0,390.5,84.5,392.5,91.0,391.0,87.5,388.5,88.5,400.0,92.5,404.0,90.0,409.5,92.5,413.5,90.5,414.0,104.0,409.5,108.5,419.0,107.5,406.0,116.5,401.5" stroke="green" stroke-width="1" fill="none" />
<polyline points="123.0,365.0" stroke="black" stroke-width="1" fill="none" />
<polyline points="123.0,370.0,123.0,371.0,131.0,384.5,130.0,385.0,130.0,383.5,126.0,387.0,135.5,394.5,131.5,396.5,130.0,396.0" stroke="yellow" stroke-width="1" fill="none" />
<polyline points="120.5,370.0,117.0,360.5,121.0,360.0" stroke="green" stroke-width="1" fill="none" />
<polyline points="126.0,372.5,117.0,375.0,126.0,377.5,129.5,379.0" stroke="orange" stroke-width="1" fill="none" />
<polyline points="124.0,362.5,127.0,362.0,124.5,361.0" stroke="orange" stroke-width="1" fill="none" />
<polyline points="123.5,362.5,130.0,359.0,131.5,364.5,130.5,362.0" stroke="yellow" stroke-width="1" fill="none" />
<polyline points="170.5,364.0,175.0,355.5,183.0,355.0,180.0,345.5,179.5,339.0,181.0,339.5" stroke="orange" stroke-width="1" fill="none" />
<polyline points="183.0,327.0,186.5,333.0,177.0,338.5,171.5,340.5,166.0,347.0,168.0,353.0,161.0,357.0,159.5,368.0,159.0,364.0,164.5,369.5,167.0,356.5,176.5,355.5,174.0,349.0,176.0,345.0,180.0,335.5,187.5,339.5,188.5,330.0,187.0,334.5,192.0,327.0,189.0,331.0,191.5,332.0" stroke="black" stroke-width="1" fill="none" />
<polyline points="194.0,339.0,186.0,346.5,190.5,345.5,183.5,345.5" stroke="yellow" stroke-width="1" fill="none" />
<polyline points="195.5,356.5,194.0,348.5,192.0,351.0,192.5,343.5" stroke="orange" stroke-width="1" fill="none" />
<polyline points="165.5,358.0,164.5,366.0,165.5,357.5,169.0,361.0" stroke="black" stroke-width="1" fill="none" />
<polyline points="161.5,364.5,164.5,367.0,162.0,362.0,163.0,363.5,157.5,369.0,156.0,367.0,163.0,362.5,167.0,350.5,168.0,355.5,173.0,344.5,177.0,342.5,177.5,337.5,178.0,335.5,183.5,332.5,175.5,328.0,169.0,328.5,170.0,336.0,163.5,341.0,163.0,340.0,162.0,331.5,168.0,334.5,168.5,331.0,168.0,333.0" stroke="black" stroke-width="1" fill="none" />
<polyline points="163.0,337.0,163.5,331.5,162.5,337.0,164.5,330.0,170.0,327.5,169.5,323.5,167.0,318.0" stroke="yellow" stroke-width="1" fill="none" />
<polyline points="" stroke="orange" stroke-width="1" fill="none" />
<polyline points="166.5,318.5,168.5,329.0,166.5,317.5,165.5,322.5,157.5,328.0,151.0,340.5,151.5,343.0,154.5,337.5,142.0,349.5,143.5,335.0,142.5,335.5,135.5,340.0,128.0,328.5,138.0,325.0,134.5,320.5,134.5,315.5,127.0,306.5,130.0,312.0,130.0,305.5,130.0,306.0,135.0,300.5,129.0,297.5,139.0,292.0,141.0,297.5,138.5,283.5,136.0,279.5,134.5,278.5,132.5,283.0,139.5,285.0,138.0,278.5,146.0,275.0,144.5,270.5,139.5,272.5,152.5,264.5,156.0,252.5,159.0,254.5,163.5,250.0,160.5,244.0,161.0,242.0,151.5,250.5,151.5,248.5" stroke="orange" stroke-width="1" fill="none" />
<polyline points="147.5,251.5" stroke="green" stroke-width="1" fill="none" />
<polyline points="140.0,253.0,146.0,249.5,145.5,252.0,142.0,250.0,154.0,255.0,146.5,257.5,146.0,258.5" stroke="yellow" stroke-width="1" fill="none" />
<polyline points="142.0,268.0,138.5,270.5,137.0,278.5,135.0,273.0,135.5,277.0,133.0,277.0" stroke="black" stroke-width="1" fill="none" />
<polyline points="145.5,275.0,153.0,266.5,155.5,259.0,158.5,257.0,156.5,262.5,156.5,263.0,149.0,268.0,149.5,271.0,147.0,276.5,147.0,275.0,141.5,288.0,148.5,288.0,156.5,288.5,156.5,288.5,163.5,291.0,165.0,301.0,159.0,305.5,158.0,304.5,163.5,309.5,165.0,317.5,156.5,316.5,155.0,318.5,163.0,317.5,168.0,316.0,168.5,318.0,166.0,311.0,172.5,305.0,171.5,294.0,183.0,288.0,181.0,294.0" stroke="green" stroke-width="1" fill="none" />
<polyline points="179.0,296.0,181.0,297.5" stroke="yellow" stroke-width="1" fill="none" />
<polyline points="" stroke="green" stroke-width="1" fill="none" />
<polyline points="179.0,300.0,171.0,306.0,176.0,302.5,179.0,303.5,178.0,311.0,179.0,313.5" stroke="black" stroke-width="1" fill="none" />
<polyline points="176.0,311.5,173.0,309.0,174.5,309.5" stroke="black" stroke-width="1" fill="none" />
<polyline points="164.5,307.0,165.5,299.0,174.0,296.5,176.0,294.5,169.5,287.0,167.0,285.5,173.5,296.5,166.5,301.5,164.5,286.5,169.0,284.0,177.0,283.0,174.5,280.0,176.0,282.0,164.5,279.5,166.5,283.5,165.0,292.5,165.5,287.0,172.5,297.0,162.0,275.0,168.5,280.0,163.5,273.5,165.0,269.0,163.0,265.5,171.0,266.0,170.5,260.0,169.0,260.5,173.0,257.0,175.5,243.0,176.0,246.5,170.5,237.0,172.5,240.0,178.5,234.5,177.5,238.5,175.5,239.5" stroke="orange" stroke-width="1" fill="none" />
<polyline points="182.5,228.0,184.5,235.5,178.0,245.0,179.5,241.0,181.5,245.0,176.0,249.5,177.0,250.5,183.5,259.5,186.5,255.0" stroke="black" stroke-width="1" fill="none" />
<polyline points="173.5,248.0,186.0,248.5,191.0,255.0,185.0,255.5,187.0,254.0" stroke="yellow" stroke-width="1" fill="none" />
<polyline points="222.5,273.0,227.0,272.0,224.5,276.5,230.5,272.0,235.5,270.5" stroke="yellow" stroke-width="1" fill="none" />
<polyline points="215.0,321.0,213.5,321.0,221.0,323.0,215.0,332.0,216.0,326.0,217.5,330.5,216.5,333.5,225.5,343.5,215.5,350.0,218.5,342.5,218.0,359.0" stroke="black" stroke-width="1" fill="none" />
<polyline points="246.5,381.0,253.5,381.5,253.5,384.5,254.0,379.0,253.5,388.0,262.0,380.5,265.0,385.0,263.5,382.5" stroke="black" stroke-width="1" fill="none" />
<polyline points="262.5,387.5,260.5,381.5,251.5,390.5,253.5,395.0,255.0,393.0,244.5,395.0,243.0,393.5,241.5,389.0,241.5,393.0" stroke="green" stroke-width="1" fill="none" />
<polyline points="272.0,348.0" stroke="black" stroke-width="1" fill="none" />
<polyline points="276.0,346.5,276.0,351.5,276.0,349.0,278.5,349.0,280.0,347.0,278.0,349.5" stroke="orange" stroke-width="1" fill="none" />
<polyline points="224.0,366.0,219.5,360.0,219.0,357.5,218.0,347.0,221.5,352.5,218.0,343.5,225.0,336.5,221.5,334.0,220.5,327.0,222.5,326.5,220.5,316.5,216.5,311.0,222.0,315.5,217.0,304.5,219.0,302.0,216.5,312.5,223.0,312.0" stroke="yellow" stroke-width="1" fill="none" />
<polyline points="175.5,292.5,175.5,292.5,175.5,290.0" stroke="orange" stroke-width="1" fill="none" />
<polyline points="176.5,298.0,179.5,305.0,175.5,306.5,172.5,317.0" stroke="green" stroke-width="1" fill="none" />
<polyline points="160.5,313.5,159.0,311.0,157.0,309.5,154.0,308.0,154.0,310.5" stroke="yellow" stroke-width="1" fill="none" />
<polyline points="162.0,315.5,165.0,312.5,161.0,308.0" stroke="orange" stroke-width="1" fill="none" />
<polyline points="160.5,316.0,157.5,315.0" stroke="black" stroke-width="1" fill="none" />
<polyline points="160.5,294.0,156.5,296.5" stroke="yellow" stroke-width="1" fill="none" />
<polyline points="" stroke="black" stroke-width="1" fill="none" />
<polyline points="162.5,293.0,160.5,292.0,151.0,287.0" stroke="black" stroke-width="1" fill="none" />
<polyline points="152.0,284.5,157.5,288.0,158.0,289.0" stroke="yellow" stroke-width="1" fill="none" />
<polyline points="170.5,298.5,175.5,292.5,174.5,291.5,171.5,296.5" stroke="yellow" stroke-width="1" fill="none" />
<polyline points="181.0,298.5,176.0,299.5,173.5,310.0,168.5,311.5,167.5,306.5,165.0,310.5" stroke="black" stroke-width="1" fill="none" />
<polyline points="153.5,290.5,153.0,293.0,154.5,289.5" stroke="orange" stroke-width="1" fill="none" />
<polyline points="160.5,293.0,160.0,295.5,167.5,297.5,174.0,294.0" stroke="black" stroke-width="1" fill="none" />
<polyline points="170.0,282.0,174.0,295.0,170.5,299.0,172.5,304.0,163.0,311.0,167.0,314.5,166.0,310.5,162.0,314.0,169.5,314.0,169.0,316.5,164.0,330.5,162.5,334.0,153.0,334.0,158.5,339.0,157.5,334.5,152.0,349.0,145.5,351.5,152.0,356.0,147.0,353.0,146.5,348.0,145.5,348.5,154.0,351.5,160.5,356.0,162.0,345.5,160.5,341.5,158.5,345.5" stroke="yellow" stroke-width="1" fill="none" />
<polyline points="" stroke="black" stroke-width="1" fill="none" />
<polyline points="160.5,290.5,160.0,286.0,161.5,279.0,167.0,277.0,166.0,275.0,163.0,269.0,155.5,265.0,163.0,259.5,157.0,257.0" stroke="orange" stroke-width="1" fill="none" />
<polyline points="165.5,263.5,171.0,259.0,168.0,266.5,165.0,274.5,168.0,282.5,167.0,275.5" stroke="green" stroke-width="1" fill="none" />
<polyline points="164.5,280.5" stroke="yellow" stroke-width="1" fill="none" />
<polyline points="150.5,276.5,153.5,280.0,151.5,271.0,159.0,278.5,157.5,279.0,158.0,287.0,163.0,279.5,171.5,285.0,166.0,285.0,179.5,281.0,174.5,287.5,178.0,279.0" stroke="black" stroke-width="1" fill="none" />
<polyline points="170.0,291.5,172.0,294.0,166.0,293.0,167.5,290.5,166.0,288.0" stroke="green" stroke-width="1" fill="none" />
<polyline points="164.5,286.5,166.0,283.0,158.0,295.0,163.5,288.0,164.5,289.0,161.5,289.5,161.0,288.0" stroke="orange" stroke-width="1" fill="none" />
<polyline points="157.0,294.5,149.0,294.0,155.0,289.5,151.0,280.0,154.0,275.0,151.5,270.5,153.0,268.5,160.0,269.0,167.0,268.0,166.5,257.5,166.5,261.0,167.0,249.0,163.5,247.5,165.5,244.5,164.0,237.0,164.5,248.5,157.0,258.0,155.5,257.5,147.5,258.5,144.5,261.0,147.0,256.0,142.0,269.0,133.5,266.0,138.0,268.0,128.5,256.0,135.5,272.5,133.0,274.5,137.5,265.0,130.0,255.0,138.5,258.5,130.5,255.0,134.0,245.5,142.5,246.0,134.0,245.0,139.0,240.0,142.0,232.5,135.5,231.5,137.0,224.5,136.5,229.5,133.0,219.5,136.5,216.0,126.5,213.0,129.5,203.5,119.0,203.5,126.5,203.5,119.5,197.0,123.5,190.5,123.5,182.5,119.0,181.0,119.0,181.0,120.5,172.5,118.5,166.5,125.0,165.5,121.0,163.0,119.0,150.0,118.5,146.5,119.5,144.0,124.0,146.0,125.5,140.0,122.0,134.0,126.5,136.5,129.0,132.5,131.0,125.0,129.5,122.0,132.5,118.5,131.5,112.0,139.5,112.5,135.0,103.5,138.5,104.0,133.5,107.5,141.5,97.0,142.0,103.5,138.0,107.0,136.5,102.5" stroke="green" stroke-width="1" fill="none" />
<polyline points="123.5,124.5,133.0,109.0,137.0,103.5,137.5,111.0,137.5,111.0,138.0,119.0,132.0,126.5,126.5,122.0,133.5,133.5,135.0,134.5,129.0,138.5,136.0,139.0,136.0,149.0,134.5,147.5,128.0,144.0,127.5,150.0,127.0,150.5,130.5,154.0,124.5,158.5" stroke="orange" stroke-width="1" fill="none" />
<polyline points="125.5,150.5,136.0,152.0,131.5,154.5,130.0,157.0,128.5,161.5,127.0,167.0,124.5,172.5,129.0,163.0,126.0,162.5,130.0,166.0,131.0,168.5" stroke="black" stroke-width="1" fill="none" />
<polyline points="134.5,178.5,140.5,182.5,126.0,177.5,133.5,177.5,137.5,175.0,137.5,174.5" stroke="black" stroke-width="1" fill="none" />
<polyline points="132.5,173.5,135.0,175.5,130.5,179.5,143.0,173.0,131.5,170.5,137.0,168.5,133.0,171.0" stroke="black" stroke-width="1" fill="none" />
<polyline points="138.5,177.0,141.0,174.5,136.0,178.0" stroke="black" stroke-width="1" fill="none" />
<polyline points="140.0,178.5,139.0,185.5,131.5,181.0,140.0,180.5,138.5,175.0,142.0,172.5" stroke="black" stroke-width="1" fill="none" />
<polyline points="146.0,174.5,140.5,180.5,147.5,178.0,139.5,191.5,135.0,187.5,144.0,198.5,138.0,193.0,140.0,197.5,143.0,194.5,146.0,197.0,145.5,202.0" stroke="orange" stroke-width="1" fill="none" />
<polyline points="150.0,196.5,151.0,196.5" stroke="green" stroke-width="1" fill="none" />
<polyline points="152.5,195.0,150.0,189.5,147.0,190.5" stroke="green" stroke-width="1" fill="none" />
<polyline points="137.5,196.5" stroke="green" stroke-width="1" fill="none" />
<polyline points="151.0,200.5,149.5,196.0,147.5,192.5,148.0,191.5,145.5,185.0,140.5,191.0,149.5,176.5,146.5,180.0" stroke="yellow" stroke-width="1" fill="none" />
<polyline points="139.0,177.0,147.0,184.0,147.0,192.5,150.5,184.5,146.0,192.5,139.0,184.0" stroke="orange" stroke-width="1" fill="none" />
<polyline points="151.0,188.5" stroke="orange" stroke-width="1" fill="none" />
<polyline points="153.0,194.5,160.0,178.0,160.5,179.5,170.5,181.5,177.5,171.0,172.0,164.5,178.0,166.5,181.0,160.5,186.5,162.0,188.5,154.5,194.5,152.5,200.5,148.0" stroke="orange" stroke-width="1" fill="none" />
<polyline points="205.0,149.0,213.5,155.5" stroke="yellow" stroke-width="1" fill="none" />
<polyline points="221.5,156.5,229.0,154.0,223.5,155.5,217.5,153.5,217.5,158.0" stroke="yellow" stroke-width="1" fill="none" />
<polyline points="218.5,148.0,217.5,147.5,223.5,156.5" stroke="yellow" stroke-width="1" fill="none" />
<polyline points="220.0,173.5,228.0,166.0,221.5,171.5,215.5,187.5,216.0,190.5,211.5,190.5,208.0,188.5,207.0,194.5,203.0,190.0" stroke="green" stroke-width="1" fill="none" />
<polyline points="213.5,187.0,213.0,187.0,211.0,189.5,219.5,178.5,221.5,175.5,228.0,178.0,234.5,174.5,233.0,172.0,239.0,171.0,244.0,172.5,239.5,174.0,235.0,176.0,238.0,178.5,232.5,177.0,232.5,174.5" stroke="green" stroke-width="1" fill="none" />
<polyline points="233.5,184.0,229.5,183.0,232.0,182.5,226.5,189.5,221.5,193.0,217.0,197.5,215.5,206.0,205.5,208.0,202.5,210.0,201.5,214.5,201.5,218.0,200.5,222.0,203.0,228.5,210.0,227.0,209.5,230.0,210.0,228.0" stroke="orange" stroke-width="1" fill="none" />
<polyline points="204.5,204.5,205.5,206.5,213.0,206.5,212.5,197.0,217.0,193.0,218.5,197.0,231.0,190.5,229.0,182.5,234.0,184.0" stroke="black" stroke-width="1" fill="none" />
<polyline points="222.5,192.5,211.5,200.0,218.0,203.5,211.5,201.0,209.5,208.0,206.0,212.0,209.0,199.0,213.0,198.5,218.5,199.0,223.5,196.5,225.0,199.0,229.5,190.5,228.5,193.0,228.5,194.0" stroke="yellow" stroke-width="1" fill="none" />
<polyline points="223.5,185.0,218.5,189.5,216.5,193.0,219.5,193.5,223.5,194.5,221.0,195.0" stroke="black" stroke-width="1" fill="none" />
<polyline points="216.5,178.0,220.5,184.5" stroke="black" stroke-width="1" fill="none" />
<polyline points="227.5,177.5,225.0,179.5,223.0,184.5,221.0,195.0,218.5,196.0,208.5,196.0,210.5,196.0" stroke="orange" stroke-width="1" fill="none" />
<polyline points="207.0,201.5,206.5,199.5" stroke="green" stroke-width="1" fill="none" />
<polyline points="" stroke="green" stroke-width="1" fill="none" />
<polyline points="204.5,201.5,201.0,204.5,190.5,202.5,194.0,200.0,184.0,200.5,191.0,206.0,188.5,200.0,178.0,213.0,183.0,206.5,186.5,200.5,189.0,193.0,189.0,190.5" stroke="black" stroke-width="1" fill="none" />
<polyline points="187.0,204.0,195.0,209.0,201.0,206.0" stroke="black" stroke-width="1" fill="none" />
<polyline points="189.0,203.5,194.5,212.0,197.0,210.5,191.0,216.5,184.5,220.0,186.5,226.5,190.0,216.5,190.0,212.5,189.5,211.5" stroke="orange" stroke-width="1" fill="none" />
<polyline points="" stroke="black" stroke-width="1" fill="none" />
<polyline points="180.0,215.5,175.5,215.5,184.5,216.0" stroke="yellow" stroke-width="1" fill="none" />
<polyline points="169.0,212.5,167.5,218.0,176.0,214.0" stroke="yellow" stroke-width="1" fill="none" />
<polyline points="170.5,224.0,164.0,225.0,171.5,230.5,170.5,230.5" stroke="orange" stroke-width="1" fill="none" />
<polyline points="183.5,228.0,179.0,234.5,170.5,230.0,161.0,235.5,175.0,233.0,169.0,235.5,168.0,233.0" stroke="green" stroke-width="1" fill="none" />
<polyline points="173.5,242.0,165.5,249.5,168.0,250.0,166.5,250.5,168.5,245.0" stroke="green" stroke-width="1" fill="none" />
<polyline points="160.0,260.0,152.5,260.0,154.0,260.0,150.0,271.0,132.0,262.5,133.0,272.5,131.5,277.0,130.0,273.0,125.5,276.5,116.0,269.5,113.5,262.5,121.0,261.0,116.0,262.0,117.5,260.0" stroke="black" stroke-width="1" fill="none" />
<polyline points="110.0,267.0,116.0,269.5,113.0,262.0,117.0,266.0" stroke="yellow" stroke-width="1" fill="none" />
<polyline points="115.5,273.0,114.5,269.0,116.5,278.5,121.5,278.0,103.5,289.0,106.5,287.5,108.5,299.0,102.0,300.0,96.5,302.5,89.0,308.0,92.0,312.5,92.0,313.0,83.0,324.0,82.0,325.5,85.5,336.0,86.5,338.0,91.0,340.0,78.5,343.0,87.0,353.0,84.5,346.5,76.5,354.5,70.5,358.0,71.5,357.5,63.5,357.0,71.0,359.5,70.5,358.0,74.0,349.0,73.5,343.5,87.5,330.5,83.5,333.5,93.0,327.5" stroke="green" stroke-width="1" fill="none" />
<polyline points="91.5,326.5,100.0,328.5,96.0,322.5,89.0,331.0,86.0,330.5,89.0,340.0,82.5,340.0,80.5,344.0,79.5,346.0,72.0,349.5,68.5,360.0,61.0,362.0,59.0,362.5,60.5,366.0,70.0,365.5,67.5,357.5,71.0,344.0,79.0,345.0,82.5,340.5,88.5,335.0,86.0,345.5,95.0,344.5,87.0,345.5,87.0,352.5,88.0,355.5,82.0,357.0,86.0,369.0,80.5,366.0,80.0,370.0,90.0,373.5,83.0,372.5,87.0,355.5,93.0,355.5,98.0,345.0" stroke="orange" stroke-width="1" fill="none" />
<polyline points="103.5,345.5,105.0,347.0,98.0,356.0,102.0,361.0,103.0,365.5,99.0,367.0,97.0,374.0,103.0,376.0,102.0,378.0,101.5,377.0,101.0,377.5" stroke="black" stroke-width="1" fill="none" />
<polyline points="111.5,363.5,110.5,364.5,113.0,363.5,104.0,361.5,104.0,359.0" stroke="yellow" stroke-width="1" fill="none" />
<polyline points="108.5,365.5,112.5,363.5,107.5,360.0,112.5,366.0" stroke="green" stroke-width="1" fill="none" />
<polyline points="105.0,358.0,117.0,361.5" stroke="orange" stroke-width="1" fill="none" />
<polyline points="123.0,354.5,125.0,360.5,127.0,362.5,133.5,355.5,134.0,367.0" stroke="green" stroke-width="1" fill="none" />
<polyline points="85.0,354.0,82.0,363.0,83.5,365.5" stroke="yellow" stroke-width="1" fill="none" />
<polyline points="74.5,367.5,82.5,359.0,85.5,351.0,82.0,348.5,89.5,351.5,81.0,358.0,76.0,358.0,73.5,366.5,75.5,365.5,78.5,374.5,79.0,374.0,78.5,371.0" stroke="orange" stroke-width="1" fill="none" />
<polyline points="81.0,384.5,81.0,384.0,76.5,390.0,70.0,393.0,60.0,390.5,59.5,397.0,55.0,399.5,60.0,405.5,62.0,393.5,73.5,391.0,80.5,383.0,74.5,384.0,78.5,387.5,67.5,381.5,63.0,392.0,67.0,395.5,65.0,394.5,55.0,406.0,69.0,399.5,70.5,394.0,69.5,387.0,81.0,383.5,80.0,385.0,84.0,371.0,91.5,374.5,83.5,364.0,81.0,361.5,91.0,352.0,91.5,362.0,92.0,346.0,89.0,352.0,99.0,350.5,92.0,344.0,96.5,348.0,99.5,345.5,89.5,357.0,96.0,344.0,94.5,337.5,101.5,341.5,100.5,333.5,98.0,328.5,96.5,326.5,95.5,317.5,97.0,318.0,97.5,310.0,100.0,306.5,103.0,302.5,105.0,297.5,108.0,308.5,94.5,315.5,98.5,321.0,96.0,316.5,96.5,314.0" stroke="green" stroke-width="1" fill="none" />
<polyline points="89.5,313.5,89.0,313.0,86.0,303.5,95.0,304.5,96.5,300.0,115.5,291.0,107.0,294.5,110.5,287.0,113.5,287.0" stroke="orange" stroke-width="1" fill="none" />
<polyline points="90.5,302.0,92.0,306.0,90.0,300.5,87.0,301.5" stroke="black" stroke-width="1" fill="none" />
<polyline points="109.0,303.0,103.5,296.5,90.5,294.5,94.5,298.5,84.0,299.5,80.0,294.5,92.5,296.0,93.0,293.5" stroke="green" stroke-width="1" fill="none" />
<polyline points="73.5,299.0,87.5,294.5,88.5,292.0,93.5,292.5,100.0,299.0,93.0,291.0,102.0,291.5,102.0,291.0,103.0,290.5" stroke="orange" stroke-width="1" fill="none" />
<polyline points="107.0,284.0,106.0,279.5,108.5,277.0,114.5,273.0,114.0,274.0" stroke="black" stroke-width="1" fill="none" />
<polyline points="113.0,264.0,112.0,266.0,109.0,268.0,112.0,274.0,111.5,277.5,101.0,274.0,95.0,282.0,99.5,286.0,100.0,279.0,109.0,278.0,105.0,277.0,116.5,293.0,115.5,282.5,125.5,290.5,119.5,290.0" stroke="green" stroke-width="1" fill="none" />
<polyline points="118.5,281.0,112.5,284.0,101.0,284.0,100.0,288.5,97.0,285.0,98.0,293.0,88.5,290.5,90.5,290.0,94.0,292.5" stroke="black" stroke-width="1" fill="none" />
<polyline points="86.0,274.5,96.5,277.0,95.5,269.0,98.0,263.0,114.0,262.5,99.0,267.0,96.5,272.0,97.5,280.5,89.5,287.5,93.0,280.5,95.5,274.0,104.5,280.5,96.5,278.5,107.0,278.5,109.5,279.0,108.5,286.5,117.0,270.5,119.0,277.5,130.5,271.0" stroke="yellow" stroke-width="1" fill="none" />
<polyline points="128.0,266.0,125.0,267.5,133.0,266.5,124.5,274.0,116.0,276.0,99.0,288.0,96.0,290.0,93.0,303.0,95.5,296.0,86.5,311.5,77.0,310.0,89.5,306.5,83.0,316.0,69.5,320.0,80.0,315.0,80.0,312.5,79.5,310.0,78.0,306.5" stroke="black" stroke-width="1" fill="none" />
<polyline points="106.5,313.5,114.0,305.0" stroke="yellow" stroke-width="1" fill="none" />
<polyline points="130.0,301.5,125.5,312.0,121.0,305.0,120.5,308.5,115.0,307.5,117.0,324.5,109.0,314.0,98.5,326.5,103.0,323.5" stroke="orange" stroke-width="1" fill="none" />
<polyline points="75.0,320.5,70.0,322.5,65.5,323.0,67.0,321.0,79.0,325.5,76.0,313.0,70.5,308.5,76.0,306.5,78.0,307.0" stroke="green" stroke-width="1" fill="none" />
<polyline points="" stroke="yellow" stroke-width="1" fill="none" />
<polyline points="76.5,307.0,78.0,309.5,80.0,310.5,88.5,305.0,92.0,301.5,94.5,300.5" stroke="black" stroke-width="1" fill="none" />
<polyline points="96.5,315.0,99.0,323.5,102.5,313.5,102.0,317.0,100.5,306.5,107.0,302.0,100.0,308.0" stroke="black" stroke-width="1" fill="none" />
<polyline points="106.0,291.5,108.5,293.5,94.5,295.0,104.0,291.5,100.5,291.0,105.0,296.0,102.5,296.0,104.5,291.0" stroke="green" stroke-width="1" fill="none" />
<polyline points="107.5,288.0,104.5,291.5,101.5,290.0,107.5,289.0,108.5,288.0,117.0,289.0" stroke="black" stroke-width="1" fill="none" />
<polyline points="86.0,277.0,88.0,273.5,89.0,272.5,88.0,274.5" stroke="black" stroke-width="1" fill="none" />
<polyline points="116.5,295.5,116.5,295.0,110.5,296.5,110.5,304.5,101.0,305.0,101.0,309.0,100.5,319.5,95.0,320.5,104.5,326.0,102.5,331.0,100.5,331.0,95.0,339.0,93.5,345.5,100.5,340.5,102.0,336.5,105.0,331.5,109.0,332.0,115.5,316.0,123.5,304.0,115.5,296.0,124.0,298.0,125.0,303.0,132.5,313.0,134.0,313.5" stroke="yellow" stroke-width="1" fill="none" />
<polyline points="123.5,320.5,132.5,323.5,129.0,327.0,128.5,331.5,133.5,335.0" stroke="yellow" stroke-width="1" fill="none" />
<polyline points="119.0,307.0,125.5,315.5,120.5,320.0,125.0,331.0,108.5,328.0,109.5,337.0,108.5,344.5,103.0,337.5,101.0,343.5,97.5,345.0,96.0,350.0,98.0,351.5,91.5,356.5,94.0,362.0,95.0,364.5,91.5,367.0,92.0,369.5,92.5,377.5,93.5,386.0" stroke="yellow" stroke-width="1" fill="none" />
<polyline points="85.5,387.0,79.5,394.0,80.5,407.0,81.0,404.5,74.0,410.5,66.5,405.0" stroke="orange" stroke-width="1" fill="none" />
<polyline points="" stroke="orange" stroke-width="1" fill="none" />
<polyline points="123.0,284.5,124.0,289.5,123.5,292.5,124.0,296.0,111.0,305.0,108.5,307.0,102.5,313.5,110.5,305.0,102.0,295.0,112.5,299.0,120.0,298.5,122.5,294.5" stroke="green" stroke-width="1" fill="none" />
<polyline points="" stroke="green" stroke-width="1" fill="none" />
<polyline points="" stroke="orange" stroke-width="1" fill="none" />
<polyline points="137.5,237.5,141.0,240.0,137.0,243.0,137.0,240.5,148.0,241.5" stroke="black" stroke-width="1" fill="none" />
<polyline points="143.0,247.0,148.5,244.0,143.5,240.5,136.5,244.5,139.0,246.5,137.5,246.5,139.5,244.0" stroke="orange" stroke-width="1" fill="none" />
<polyline points="142.5,234.0,131.5,224.5,139.0,226.0,134.5,224.5,142.5,223.5" stroke="yellow" stroke-width="1" fill="none" />
<polyline points="145.5,210.0" stroke="green" stroke-width="1" fill="none" />
<polyline points="154.5,214.5,153.0,212.5,151.0,209.5" stroke="orange" stroke-width="1" fill="none" />
<polyline points="139.0,192.5,136.5,190.5,135.0,185.5,140.5,191.5,143.5,182.5,147.5,177.5,141.5,175.0,139.0,182.5" stroke="green" stroke-width="1" fill="none" />
<polyline points="138.5,183.5" stroke="orange" stroke-width="1" fill="none" />
<polyline points="149.5,180.0,143.5,183.0,156.5,180.5,147.5,185.5,139.0,185.0,135.0,188.0,136.0,187.0" stroke="green" stroke-width="1" fill="none" />
<polyline points="137.0,198.0" stroke="orange" stroke-width="1" fill="none" />
<polyline points="143.5,191.5,146.5,193.5,156.5,199.5,146.5,209.0,147.5,215.0,144.0,210.5" stroke="green" stroke-width="1" fill="none" />
<polyline points="128.0,207.0,125.0,195.0" stroke="black" stroke-width="1" fill="none" />
<polyline points="112.5,223.0,113.5,222.5,106.0,229.0,109.5,231.0,118.0,233.0,111.0,229.5" stroke="orange" stroke-width="1" fill="none" />
<polyline points="113.0,234.0,121.0,222.5,113.5,224.5" stroke="green" stroke-width="1" fill="none" />
<polyline points="128.5,251.0,119.5,255.5,115.0,257.5,110.5,263.0,115.0,258.0,119.5,257.0,119.0,253.0,126.5,253.5,128.0,242.5,140.0,238.0,143.5,234.5,148.5,234.0,157.0,229.5,156.0,230.0" stroke="orange" stroke-width="1" fill="none" />
<polyline points="150.5,233.5,139.0,234.0,140.5,243.0,138.0,245.0,137.0,252.5,128.0,259.0,134.0,273.5,140.5,268.0,138.5,266.5,122.5,271.0,131.0,272.0,137.0,275.0,132.0,274.5,143.0,275.0" stroke="black" stroke-width="1" fill="none" />
<polyline points="150.5,255.0,156.5,259.5,155.5,252.0,159.0,251.0,154.0,245.5,159.0,248.0,161.0,250.0" stroke="black" stroke-width="1" fill="none" />
<polyline points="163.0,225.0,163.0,232.0,159.5,237.5,161.5,238.0,167.0,236.5,167.5,224.0" stroke="black" stroke-width="1" fill="none" />
<polyline points="167.5,225.0,170.0,221.5" stroke="black" stroke-width="1" fill="none" />
<polyline points="169.0,237.5,166.5,233.5,164.0,234.5,160.0,244.5,163.5,248.0,154.0,249.5,145.5,251.0,151.5,255.0,153.5,258.0,150.0,258.5,139.5,264.5,135.5,266.5,133.0,272.0,132.5,281.0,126.0,280.5,128.5,289.0,127.0,295.0,128.5,302.0,126.0,306.5,124.0,317.5,122.0,310.5,119.5,323.5,114.0,325.5,119.0,332.0,121.0,330.5,119.0,335.5,125.5,339.0,115.0,340.5,125.0,342.5,131.0,346.0,134.0,350.0,131.5,361.0,136.5,358.0,134.0,357.0,139.0,368.5,136.0,367.5,144.0,365.5,139.0,375.5,146.5,374.5,141.5,391.5,141.0,390.5,148.0,399.0,146.5,390.5,145.5,397.0,145.0,402.0,149.5,408.5,144.5,406.0,152.0,411.5,147.5,417.0,153.5,415.5,162.0,417.0,156.5,423.0,158.5,429.5" stroke="green" stroke-width="1" fill="none" />
<polyline points="169.5,421.0,163.5,414.0,164.5,412.5,164.0,414.5" stroke="orange" stroke-width="1" fill="none" />
<polyline points="" stroke="green" stroke-width="1" fill="none" />
<polyline points="" stroke="yellow" stroke-width="1" fill="none" />
<polyline points="200.0,413.5,201.5,415.0,194.5,427.0,202.0,427.0,195.0,430.0" stroke="black" stroke-width="1" fill="none" />
<polyline points="200.0,402.5,203.0,401.5,200.0,398.5,191.0,405.0,196.5,395.5,197.0,398.5" stroke="black" stroke-width="1" fill="none" />
<polyline points="190.5,391.5,193.0,392.5,191.0,403.5,190.0,397.0,185.0,405.5,185.5,415.5,186.5,412.5,189.0,416.0,185.5,423.5,186.5,431.0,193.5,430.0,180.5,433.5,184.0,436.0,177.5,441.5,186.0,447.5,186.5,439.5,198.5,446.5,198.0,449.5" stroke="black" stroke-width="1" fill="none" />
<polyline points="379.5,356.5,377.0,354.0,374.0,342.5,380.5,349.0,377.0,339.5,382.0,342.0,383.0,335.0,378.5,326.5,378.5,321.5,374.0,320.0,376.0,309.5,368.5,311.5,378.0,309.5,378.5,307.5" stroke="orange" stroke-width="1" fill="none" />
<polyline points="377.5,283.0,379.5,283.5,380.0,283.0,385.0,272.5,381.0,265.5,384.5,269.5,382.5,264.0,384.5,267.5" stroke="yellow" stroke-width="1" fill="none" />
<polyline points="368.5,269.0,365.5,273.5,370.0,272.0,369.5,279.5,366.5,284.5,368.0,286.0,364.0,287.5,362.5,296.0,362.5,299.5,365.5,305.0,362.0,307.5,358.0,308.5" stroke="orange" stroke-width="1" fill="none" />
<polyline points="344.0,272.5,350.5,279.0,345.0,282.5,335.5,281.5,332.5,284.5,330.0,272.0,322.0,271.0,324.0,277.0,323.5,268.0,328.0,269.5,322.0,276.0" stroke="orange" stroke-width="1" fill="none" />
<polyline points="325.5,273.0,325.0,271.5,325.5,270.0,330.0,267.0,334.5,274.0,330.5,274.0,334.0,270.0" stroke="orange" stroke-width="1" fill="none" />
<polyline points="323.0,279.0,323.5,277.0,321.0,274.0,320.0,266.0,329.5,257.5,338.0,261.0,333.5,252.0" stroke="black" stroke-width="1" fill="none" />
<polyline points="363.0,270.5,365.5,275.5,360.0,276.5,354.5,279.0" stroke="green" stroke-width="1" fill="none" />
<polyline points="292.0,231.0,282.5,233.5" stroke="green" stroke-width="1" fill="none" />
<polyline points="269.5,216.0,271.0,202.0,280.0,201.5,276.0,206.5,285.0,197.0,290.5,189.5,290.5,191.0,296.5,183.5,303.0,189.0,301.5,182.0,306.5,180.0,309.5,180.5" stroke="orange" stroke-width="1" fill="none" />
<polyline points="317.5,172.0,315.0,178.0,300.0,174.0,299.5,179.5,299.5,181.5,293.0,186.0,288.0,192.0,283.0,193.5,282.0,197.0,276.0,197.0,269.0,203.5,267.0,207.5,264.5,213.5,264.5,213.0,266.5,222.5,254.0,225.0,254.5,227.0,242.5,232.0,243.0,241.0,240.5,248.5,232.0,242.0,233.5,254.5,228.0,258.5,224.0,264.5,222.0,264.0,214.0,280.5,208.0,285.5,209.5,287.5,202.5,301.0,197.0,305.5,202.0,324.5,198.0,317.0,198.5,311.5,196.5,310.0,204.5,304.5,196.5,300.0,202.5,296.0,207.5,295.5,214.5,287.0,211.5,290.5,212.0,287.0,215.0,277.0,215.5,278.0,218.0,272.0,223.5,267.0,224.5,263.0,224.0,252.5,229.0,257.0,234.5,248.0,234.0,242.0,240.0,239.0,242.5,232.5,247.5,230.0,254.5,229.0,253.0,224.0,259.0,225.5,261.0,219.0,257.0,203.0,260.5,215.0,264.5,202.0" stroke="orange" stroke-width="1" fill="none" />
<polyline points="265.0,201.0,257.5,211.0,265.5,205.5,259.5,208.5" stroke="green" stroke-width="1" fill="none" />
<polyline points="" stroke="yellow" stroke-width="1" fill="none" />
<polyline points="205.5,198.5,211.0,198.0,217.0,188.5,217.5,185.5,225.5,187.5,223.0,181.0,227.0,178.0,232.5,182.0,229.0,184.0" stroke="black" stroke-width="1" fill="none" />
<polyline points="232.0,172.5,225.0,181.5,211.5,184.5,212.0,183.0,218.5,189.5,201.0,199.5,213.5,196.5,209.0,197.5,213.5,199.0,220.0,197.5,226.0,191.0,233.5,189.5,240.5,191.0,229.0,186.0,237.0,187.5" stroke="black" stroke-width="1" fill="none" />
<polyline points="251.5,176.5,244.0,176.5,239.0,185.5,233.0,183.0,243.0,177.0,243.0,182.0,249.5,181.5,255.5,179.5" stroke="yellow" stroke-width="1" fill="none" />
<polyline points="250.5,177.0,244.0,180.5,243.5,180.5,249.5,186.5,240.5,199.0,236.5,201.0,235.0,202.5,237.5,210.5,231.5,217.5,230.5,206.0,239.5,207.5,234.0,210.0,235.5,210.5,239.0,213.5" stroke="yellow" stroke-width="1" fill="none" />
<polyline points="266.5,185.5,263.5,194.5,258.5,198.0,244.0,203.0,246.5,204.0,253.0,204.0,255.5,201.0,255.5,203.5,259.5,196.5" stroke="black" stroke-width="1" fill="none" />
<polyline points="268.0,184.5,273.0,184.5,264.5,190.5,260.5,190.5,259.0,191.5,263.0,186.0,263.5,184.5" stroke="green" stroke-width="1" fill="none" />
<polyline points="262.5,185.0,255.0,186.5,243.5,187.5,251.5,195.5,251.5,206.0,243.5,195.5,246.0,193.5,246.0,192.0,249.0,188.5,252.5,186.5,252.5,184.0,256.5,183.0,263.0,183.0,260.5,178.5" stroke="black" stroke-width="1" fill="none" />
<polyline points="263.5,176.5,262.5,180.5,267.5,176.0,271.5,176.0,279.5,177.5,279.5,176.0,281.5,178.5,284.5,177.0,294.5,178.5,297.0,180.0,290.0,183.5,290.0,193.5,290.0,186.0,279.0,196.0,274.0,192.5,278.5,196.0,271.0,195.0,267.5,193.5,281.0,190.5,277.5,197.5,287.5,184.5,288.5,184.0,289.0,182.5,293.0,176.0,306.5,172.0,308.5,169.0,308.0,173.0,317.0,166.0,316.5,168.0,325.5,165.5,325.0,161.5,333.5,161.0,332.0,153.0,337.5,148.0,337.5,154.5" stroke="green" stroke-width="1" fill="none" />
<polyline points="305.0,176.0,306.0,177.5,299.0,173.5,301.5,186.5,290.0,194.5,287.0,189.5,279.5,196.0,277.0,197.5,264.0,207.0,271.0,207.0,271.0,206.5,266.5,212.0,262.0,218.5,265.5,220.0,261.0,223.0,261.5,228.0,264.5,233.0,268.0,239.5,269.5,242.5,264.5,241.0,264.5,243.5,263.5,247.0" stroke="black" stroke-width="1" fill="none" />
<polyline points="266.0,194.0,270.0,186.5" stroke="black" stroke-width="1" fill="none" />
<polyline points="264.5,159.0,264.0,163.5,259.0,160.5,253.5,160.5,250.0,162.0,242.5,163.5,252.5,162.5,247.5,161.5" stroke="yellow" stroke-width="1" fill="none" />
<polyline points="" stroke="black" stroke-width="1" fill="none" />
<polyline points="252.5,177.5,257.5,178.5,257.5,177.5,261.5,182.0,259.5,182.5" stroke="yellow" stroke-width="1" fill="none" />
<polyline points="247.0,140.5,253.5,137.0,258.0,131.5,258.0,130.5,262.0,129.0,253.5,133.0,246.0,133.0,249.0,139.5,245.0,143.5,234.5,144.0,235.5,145.0" stroke="black" stroke-width="1" fill="none" />
<polyline points="" stroke="orange" stroke-width="1" fill="none" />
<polyline points="216.0,148.5,218.5,150.0,219.5,152.5" stroke="orange" stroke-width="1" fill="none" />
<polyline points="213.5,144.0,216.0,141.0,217.0,143.5" stroke="black" stroke-width="1" fill="none" />
<polyline points="206.5,149.5,201.0,151.5,209.5,145.0,213.5,150.5,214.0,161.0,214.5,149.0,217.5,154.5" stroke="green" stroke-width="1" fill="none" />
<polyline points="207.5,166.5,195.0,161.0,205.5,159.5,205.0,155.0,198.5,159.5" stroke="green" stroke-width="1" fill="none" />
<polyline points="204.0,158.0,204.5,165.0,199.0,169.5,192.0,183.0,186.5,175.5,183.5,182.0,182.0,181.5,170.0,189.0,177.0,193.5,165.0,194.0,166.0,203.0,162.5,201.0,165.0,192.5,172.5,193.5,182.0,190.0,179.5,183.5,183.5,182.0,186.5,175.5,192.5,173.5,200.5,175.0,204.5,163.0,203.0,163.0" stroke="yellow" stroke-width="1" fill="none" />
<polyline points="213.0,176.5,207.0,178.5,208.5,186.5,204.0,185.0,208.0,194.5,203.0,202.0,205.0,195.5,199.0,194.5,202.5,194.5" stroke="green" stroke-width="1" fill="none" />
<polyline points="" stroke="yellow" stroke-width="1" fill="none" />
<polyline points="191.5,131.5,203.0,133.5,204.5,141.0,204.5,140.5,205.0,135.0,215.0,129.0,219.0,133.0,216.0,129.0,224.0,127.0,229.0,126.0" stroke="black" stroke-width="1" fill="none" />
<polyline points="221.5,128.0,215.5,141.0,216.0,138.0,207.0,144.5,209.5,139.0,212.0,137.0,224.0,127.5,226.0,127.0,233.0,122.5,238.0,116.5,247.0,117.0,238.5,124.0,238.5,123.5" stroke="black" stroke-width="1" fill="none" />
<polyline points="226.5,115.5,234.5,116.5,228.0,126.5,223.0,130.5,205.0,142.5,198.5,141.0,202.5,141.0,199.5,145.0,201.5,152.5,189.5,156.0,194.5,160.0,181.0,164.0,174.5,169.5,170.0,171.5,168.5,172.5,167.5,181.5,163.0,187.5,155.5,184.5,154.0,193.5,151.0,196.5,148.5,197.0,149.5,202.5,152.5,208.0,146.5,213.5,151.0,214.0,148.5,224.5,139.5,222.5,142.5,224.0,146.5,232.0,138.5,238.5,137.5,243.0,147.0,238.5,125.5,243.5,135.0,253.0,133.0,252.0,137.0,252.0,136.5,254.0,138.5,256.0" stroke="green" stroke-width="1" fill="none" />
<polyline points="143.5,174.0,142.5,173.5" stroke="orange" stroke-width="1" fill="none" />
<polyline points="129.0,139.0,122.0,138.0" stroke="yellow" stroke-width="1" fill="none" />
<polyline points="154.5,129.0,152.5,132.5,152.0,141.5,156.0,136.5,157.0,125.0,162.5,126.5,160.5,123.5,159.5,121.0" stroke="orange" stroke-width="1" fill="none" />
<polyline points="183.5,125.0,179.0,137.5,177.5,138.0,186.5,123.5,188.5,120.5,187.5,125.0,189.5,119.5" stroke="orange" stroke-width="1" fill="none" />
<polyline points="185.5,130.0,173.5,130.0,172.5,123.5,174.5,126.5,183.0,125.0,191.0,122.5,190.5,122.0,188.0,121.5,192.0,122.0" stroke="black" stroke-width="1" fill="none" />
<polyline points="177.5,133.5,187.5,131.5" stroke="green" stroke-width="1" fill="none" />
<polyline points="193.0,120.5,201.5,119.0" stroke="green" stroke-width="1" fill="none" />
<polyline points="202.5,107.0" stroke="yellow" stroke-width="1" fill="none" />
<polyline points="232.5,134.0,232.5,134.0,226.5,131.5,220.0,128.0,215.5,134.5,214.5,138.0,207.5,148.5,202.0,139.0,198.0,151.5,196.0,155.5,197.5,156.5,202.0,147.5,210.0,146.5,213.0,138.0,218.0,137.5,228.5,132.5" stroke="orange" stroke-width="1" fill="none" />
<polyline points="247.5,137.5,247.0,148.0,250.0,140.5,236.5,152.0,234.5,149.0,230.5,150.5,225.5,150.0,220.0,160.0,221.0,161.0,224.5,156.5,236.5,150.0,236.0,148.5,247.0,145.5,251.5,138.5,257.0,138.5,257.0,129.5,267.5,124.0,266.0,117.5" stroke="green" stroke-width="1" fill="none" />
<polyline points="285.0,143.5,285.5,148.5,288.5,146.5" stroke="black" stroke-width="1" fill="none" />
<polyline points="297.0,134.5,293.0,142.5,293.5,143.0" stroke="black" stroke-width="1" fill="none" />
<polyline points="310.0,174.5,300.0,180.0,298.0,181.5,289.5,188.5,290.5,196.0,283.5,201.0,278.5,201.5,273.0,204.0,274.0,207.5,274.5,211.5,271.0,213.0,273.5,214.0" stroke="yellow" stroke-width="1" fill="none" />
<polyline points="232.0,96.5,236.5,102.5,227.0,101.0,224.5,103.0,227.0,106.0,230.0,100.0,236.0,97.5" stroke="yellow" stroke-width="1" fill="none" />
<polyline points="" stroke="orange" stroke-width="1" fill="none" />
<polyline points="245.5,93.5,246.5,93.5,246.0,92.0,245.0,87.5" stroke="green" stroke-width="1" fill="none" />
<polyline points="260.5,86.5,254.5,91.5,252.0,92.5,251.0,94.0,248.0,95.5,242.5,106.0,239.0,109.0,229.5,110.5,226.5,105.5,230.5,119.0,219.5,114.5,223.0,120.0,219.0,123.5,208.0,119.5,202.5,132.0,205.5,139.0,195.5,133.0,194.0,130.0,186.0,136.5,177.0,149.5,180.5,152.5,174.5,151.5,171.5,150.5,172.5,167.5,171.0,166.5,163.5,166.0,157.0,166.5,162.5,177.5,155.0,173.0,159.0,167.0,172.5,167.0,173.0,162.0,181.5,156.5,175.0,151.0,183.5,142.0,191.5,143.5,189.5,134.5,200.0,144.5,209.0,134.5,213.0,133.5,214.5,127.5,218.5,108.0,219.5,120.0,228.0,113.0,235.5,113.5,237.0,100.5,243.0,100.0,253.0,98.0,265.0,93.5,263.0,86.5" stroke="yellow" stroke-width="1" fill="none" />
<polyline points="238.0,80.5,231.0,82.0,226.0,82.5,230.0,86.0,235.0,80.0,235.5,86.5,233.0,81.0" stroke="black" stroke-width="1" fill="none" />
<polyline points="" stroke="green" stroke-width="1" fill="none" />
<polyline points="227.0,49.0,227.0,47.0,236.5,48.0,232.0,46.0,245.0,46.5,248.5,53.0,244.0,45.5,256.5,54.0,258.0,60.5,263.0,49.0,273.5,56.5,273.5,61.5,270.5,64.0,279.0,65.0,280.0,67.0,288.0,71.0,284.0,69.0,297.5,75.0,291.0,80.0,294.0,83.0,304.5,88.5,303.5,94.0,318.0,100.0,314.0,98.0,329.0,107.0,324.0,112.5,326.5,117.5,331.0,121.5,334.0,128.0,340.0,128.5,351.5,134.5,343.0,140.5,349.0,147.5,353.0,143.0,355.5,138.0,370.0,138.0,373.5,136.0,370.0,133.0,383.5,130.5,381.0,127.0,391.5,130.5,395.0,114.0,391.5,115.0,394.5,113.5,401.0,115.0,406.5,110.0,408.5,113.0,416.5,116.5,413.5,114.0" stroke="black" stroke-width="1" fill="none" />
<polyline points="413.0,118.0,412.0,128.0,415.0,128.5,416.0,135.5,424.0,134.0,420.5,142.0,419.5,145.0,422.0,144.5,408.5,152.0,419.0,154.5,412.5,165.0,415.0,167.0,407.5,178.0,405.5,176.5,407.0,173.5,399.5,177.5,406.5,178.5,409.5,182.0,400.0,182.0,391.5,187.5,395.0,199.5,380.5,203.0,382.5,203.0,376.5,210.5,376.0,210.0,369.0,216.5,365.5,212.0,373.0,211.5,370.0,206.5,384.0,211.0,385.0,203.0,390.5,195.5,397.0,196.5,394.0,190.5,398.5,189.5,401.0,185.5,407.5,170.5,412.5,176.5,416.0,180.0" stroke="yellow" stroke-width="1" fill="none" />
<polyline points="371.5,128.0,367.0,127.0,367.5,125.5" stroke="orange" stroke-width="1" fill="none" />
<polyline points="391.0,108.5,383.0,102.0,387.5,101.5,385.0,105.0,387.5,105.0" stroke="black" stroke-width="1" fill="none" />
<polyline points="373.0,99.5,380.5,108.0,389.0,105.0,384.5,98.0,385.5,97.5" stroke="black" stroke-width="1" fill="none" />
<polyline points="424.0,43.5,425.0,44.0,427.5,47.0,415.5,32.5,418.0,28.0,414.5,24.0,408.5,10.0" stroke="yellow" stroke-width="1" fill="none" />
<polyline points="512.0,71.5,512.0,81.5,510.5,81.0,504.0,86.5,504.5,84.5,494.5,96.5,489.5,103.5,481.5,106.5,488.5,111.0,481.5,104.0,477.5,115.0,480.5,120.5,474.0,125.0,470.5,128.5,466.0,131.0,468.5,136.0,466.0,137.0,460.5,151.0,457.5,148.5,460.5,151.5,450.0,158.0,448.5,165.5,450.5,163.5,443.5,169.0,444.5,168.5,445.0,175.5,438.0,187.5,437.0,188.0,435.0,189.5,432.0,198.0,434.0,205.0,433.0,204.5,431.5,209.5,424.5,209.5,429.0,217.0,422.0,219.0,420.5,222.0,421.5,227.0,420.0,238.0,410.0,231.0,413.0,243.5,411.5,245.5,406.0,245.0,411.5,247.0,417.5,259.5,408.0,259.5,407.0,256.5,407.5,266.5,410.5,273.5,404.0,278.0,403.0,282.5,404.0,282.0,394.0,286.0,401.5,288.0,405.0,290.5,398.5,302.0,398.5,301.5,394.0,310.0,390.5,305.0,392.0,317.5,390.5,316.0,394.0,316.5,388.5,328.5,389.0,323.0,383.0,338.5,389.0,335.5,389.0,336.0" stroke="black" stroke-width="1" fill="none" />
<polyline points="342.5,137.5,343.0,137.5,337.0,134.0,335.0,132.5,338.5,130.0,337.0,128.0,331.5,121.0,335.5,118.5,326.5,115.0,324.5,105.0,315.0,102.5,313.0,95.5,306.0,94.5,311.5,96.0,304.0,88.5,301.5,87.0,298.0,74.5,298.0,79.0,293.5,72.5,281.5,65.5,275.0,69.0,274.5,63.0,266.0,55.0,265.0,45.5,254.0,53.0,254.0,51.0" stroke="black" stroke-width="1" fill="none" />
<polyline points="" stroke="orange" stroke-width="1" fill="none" />
<polyline points="173.0,59.5,160.0,64.0,162.5,71.0,165.0,66.0,166.5,64.5" stroke="yellow" stroke-width="1" fill="none" />
<polyline points="157.5,67.5,159.5,75.5,153.0,78.0,147.5,79.0,155.0,69.0,163.5,69.5,160.0,73.0,158.0,71.5,153.0,71.0" stroke="yellow" stroke-width="1" fill="none" />
<polyline points="161.0,76.5,154.0,78.5" stroke="orange" stroke-width="1" fill="none" />
</svg>