<svg xmlns="http://www.w3.org/2000/svg" width="1024" height="1024" version="1.1" fill="white"><polyline points="413.0,15.5,409.5,6.5,411.5,19.5,410.5,22.5,411.0,26.0,421.0,34.0,421.5,32.5,418.5,31.0,432.0,31.0,426.0,31.0,432.5,54.0,435.0,47.5,439.0,56.0,438.5,64.0,434.5,62.5,436.0,67.0,440.0,70.5,444.0,69.5" stroke="yellow" stroke-width="1" fill="none" />
<polyline points="444.5,47.0,439.5,40.0,442.5,37.5,433.5,24.0,433.0,17.5,434.0,21.5" stroke="black" stroke-width="1" fill="none" />
<polyline points="414.5,0.0,427.5,7.0,427.5,17.0,431.0,13.5,432.0,13.0,437.0,24.0,441.0,26.5,439.5,35.0,442.0,38.0,444.5,37.0,449.5,42.0,439.5,42.0,445.0,51.0,459.5,58.0,455.0,61.0,449.0,65.5,458.0,78.0,435.0,73.0,439.0,74.0,432.0,85.5,433.0,84.5,434.5,81.0,432.5,95.0,431.0,98.0,419.5,102.5,425.5,103.5,414.5,103.0,419.0,105.0,415.5,106.5,417.0,104.0,428.5,98.5,431.5,89.0,435.0,85.0,437.0,83.0,440.5,75.0,445.0,78.5,451.5,65.0,449.0,58.5,457.0,50.5,469.0,51.0,466.5,46.0,463.5,44.0,481.0,44.0,476.5,41.0,484.5,28.5,483.5,24.0,487.0,30.5,494.0,20.5,510.5,16.5,507.5,6.5" stroke="green" stroke-width="1" fill="none" />
<polyline points="509.0,2.0,507.0,9.5,503.0,21.5,496.5,26.5,492.0,21.5,492.0,25.0,482.5,25.5,483.0,33.5,484.5,36.0,468.5,44.0,469.0,44.0,463.0,54.0,464.5,56.5,462.5,55.5" stroke="orange" stroke-width="1" fill="none" />
<polyline points="506.5,79.5,502.5,75.5,504.5,88.0,500.0,91.5,496.5,98.5,489.5,97.0,483.0,104.0,481.5,102.0,479.5,108.5,469.5,116.0,464.5,118.0,469.0,125.0,459.5,136.5,455.0,141.5,465.0,141.0,466.0,142.0,464.5,140.5" stroke="yellow" stroke-width="1" fill="none" />
<polyline points="448.5,158.5,448.5,164.5,439.5,163.0,441.0,174.5,435.5,168.0,436.5,174.5" stroke="black" stroke-width="1" fill="none" />
<polyline points="439.5,167.5,443.0,185.0,432.5,181.0,434.5,186.5,435.0,184.5,436.5,181.0,438.5,181.5" stroke="green" stroke-width="1" fill="none" />
<polyline points="426.0,214.5,424.0,219.5,427.0,226.5" stroke="black" stroke-width="1" fill="none" />
<polyline points="418.5,236.0,416.5,234.0,412.5,241.0,415.0,245.0,416.0,248.5,412.5,243.5,412.5,246.0" stroke="black" stroke-width="1" fill="none" />
<polyline points="403.5,289.5,407.0,288.5" stroke="orange" stroke-width="1" fill="none" />
<polyline points="390.0,302.0,378.0,290.0,376.5,285.0,383.0,283.5,390.0,275.0" stroke="orange" stroke-width="1" fill="none" />
<polyline points="373.5,267.0,370.0,265.0,373.0,263.5,373.5,259.5,373.0,255.0,371.5,254.5,371.5,241.5,373.0,243.5,368.0,240.5,375.0,236.0,367.0,233.0,373.5,221.5,371.5,221.5,375.5,225.5,374.0,219.0" stroke="yellow" stroke-width="1" fill="none" />
<polyline points="378.5,239.0,369.5,243.0,373.5,245.5,376.0,237.5" stroke="green" stroke-width="1" fill="none" />
<polyline points="370.5,244.5,369.0,252.5,363.5,254.5,373.5,258.5,372.0,264.5,368.0,277.0,370.0,267.5,371.0,274.0,364.5,273.0,368.5,276.0,366.5,279.0,363.5,280.5" stroke="black" stroke-width="1" fill="none" />
<polyline points="377.0,288.0,370.5,295.0,379.5,289.0,381.0,293.0,381.5,298.5,370.5,302.0,375.5,311.5,374.5,308.5,378.5,313.0,383.0,323.0,378.0,323.5,384.5,332.5,381.5,334.5,384.5,339.0,387.0,342.0,384.5,340.5" stroke="yellow" stroke-width="1" fill="none" />
<polyline points="367.5,354.0,366.0,356.5,373.0,360.5,378.5,365.5,379.5,365.5,370.0,372.5" stroke="green" stroke-width="1" fill="none" />
<polyline points="371.0,374.0,375.5,375.5" stroke="orange" stroke-width="1" fill="none" />
<polyline points="383.0,384.0,382.0,386.5,380.0,390.5,378.5,397.0,379.5,397.5" stroke="orange" stroke-width="1" fill="none" />
<polyline points="361.5,429.0,356.5,418.5,353.0,415.0,355.0,412.5,349.5,409.5,344.0,403.5,337.0,402.5,333.5,400.0,332.0,400.5,328.0,396.5,322.0,400.5,319.0,387.5,318.5,394.5,312.5,389.0,305.5,391.0,302.0,389.5,300.5,384.0,301.0,392.5,298.0,395.0" stroke="yellow" stroke-width="1" fill="none" />
<polyline points="314.5,374.0,321.0,363.0,324.0,360.5,325.5,355.0,334.0,345.5,333.0,346.0" stroke="yellow" stroke-width="1" fill="none" />
<polyline points="352.0,327.0,352.0,328.5,358.0,333.5,352.0,332.5,353.5,338.5" stroke="black" stroke-width="1" fill="none" />
<polyline points="356.0,362.0,356.0,364.5,352.0,367.5,359.5,376.5,354.0,381.0,353.0,384.5,353.5,387.5,355.0,395.0,350.0,390.0,351.0,401.0,349.5,406.0,348.0,407.0,351.0,413.0,356.5,410.0,351.0,412.0" stroke="black" stroke-width="1" fill="none" />
<polyline points="355.5,377.0,361.5,367.0,358.5,369.0,359.0,361.5,359.5,361.0" stroke="orange" stroke-width="1" fill="none" />
<polyline points="359.0,360.0,360.0,369.0,357.0,374.0,359.5,371.5,354.0,383.0" stroke="orange" stroke-width="1" fill="none" />
<polyline points="360.5,358.5,355.5,362.0,353.0,365.0,355.5,364.0,352.5,368.5,353.5,373.5,354.0,380.5,357.0,380.0,346.5,391.0,352.5,393.5,356.0,399.0,357.5,397.5,356.5,404.0,351.5,408.0,361.0,408.5" stroke="yellow" stroke-width="1" fill="none" />
<polyline points="374.5,458.5,371.0,457.5,376.5,453.5,372.5,446.0,373.5,446.5,374.5,433.5,371.5,437.5,372.0,430.5,376.0,432.0,376.5,431.5,378.0,425.0,379.0,418.5,378.0,409.5,376.5,408.0,379.0,404.0,372.5,399.5,373.5,394.5,375.5,388.5,383.5,394.0,375.0,384.0,386.0,378.0,376.0,372.5,375.5,370.5,377.0,370.0,383.5,368.0,384.5,363.5,375.5,359.5,379.5,348.5,379.5,350.5,378.0,343.5,374.5,344.0,371.0,338.0,375.5,329.5,375.5,332.0,374.5,324.5,369.0,321.0,379.0,322.0,376.5,313.0,373.0,309.0,376.0,302.0,375.5,307.0,375.5,296.0,376.0,292.5,370.0,290.0,373.5,281.5,369.0,274.5,371.0,278.5,366.5,268.5,365.5,272.5,368.5,263.0,376.0,258.0,367.5,262.0,359.5,254.0,367.5,250.0,365.5,246.0,369.5,238.5,365.5,233.5,359.0,230.0,363.0,228.5,361.0,220.0,357.5,215.0,356.0,219.0,361.0,208.5,361.0,208.5,353.0,205.0,345.5,199.0,349.0,196.5" stroke="green" stroke-width="1" fill="none" />
<polyline points="" stroke="black" stroke-width="1" fill="none" />
<polyline points="" stroke="green" stroke-width="1" fill="none" />
<polyline points="359.0,198.5" stroke="yellow" stroke-width="1" fill="none" />
<polyline points="357.5,189.5,358.0,199.0,358.5,204.5,361.5,202.0,351.5,200.5" stroke="orange" stroke-width="1" fill="none" />
<polyline points="" stroke="green" stroke-width="1" fill="none" />
<polyline points="349.0,202.0,354.0,208.0,351.5,211.5" stroke="yellow" stroke-width="1" fill="none" />
<polyline points="344.5,205.5,336.5,207.5,335.5,199.5,336.0,197.5" stroke="orange" stroke-width="1" fill="none" />
<polyline points="347.5,218.5,355.5,208.0,359.5,217.5,353.5,225.5,360.0,231.5,360.0,230.5,360.0,238.0,362.5,240.0,366.5,250.5,366.0,251.5,365.5,254.5" stroke="green" stroke-width="1" fill="none" />
<polyline points="365.5,240.0,364.0,237.5,368.5,242.5,365.0,247.5" stroke="black" stroke-width="1" fill="none" />
<polyline points="346.5,236.0,352.5,241.0" stroke="black" stroke-width="1" fill="none" />
<polyline points="339.0,254.5,333.5,255.0,334.0,260.0,330.0,258.0,331.0,258.5" stroke="black" stroke-width="1" fill="none" />
<polyline points="337.5,248.0,343.0,242.5,342.0,245.0,349.5,250.0,350.5,244.0,350.0,244.5" stroke="yellow" stroke-width="1" fill="none" />
<polyline points="347.0,261.5,340.0,261.5" stroke="black" stroke-width="1" fill="none" />
<polyline points="344.0,264.5,343.0,272.0,336.5,279.5" stroke="orange" stroke-width="1" fill="none" />
<polyline points="347.0,275.5,352.5,287.0,351.5,284.5,356.5,295.5,351.0,294.5,349.0,299.5,352.5,304.5,347.5,309.0,343.5,309.0,346.0,314.5,341.0,319.5,337.5,325.0,345.0,324.0,339.5,326.5,335.5,332.0,334.0,338.0,329.5,336.5,328.0,343.0,331.0,354.5,327.0,351.5,325.5,357.5,321.0,360.0,320.0,366.5,318.0,370.0,319.0,370.5,319.0,376.0,313.0,375.5,315.0,381.5,315.0,389.5,316.0,385.5,330.0,396.5,340.5,400.0,342.5,409.0,344.0,412.0,352.0,416.0,353.5,414.5,358.5,421.5,360.5,429.0,357.0,435.0,363.0,434.5,365.5,429.5,367.5,443.0,362.5,446.0,368.0,452.5,370.5,455.5,366.5,460.5,373.5,461.0,367.0,473.0,373.5,475.5,370.5,473.5,371.0,470.0,377.0,482.0,378.5,489.0,381.0,486.5,380.5,490.5,381.5,498.5,381.0,495.5,379.5,504.0,386.0,512.0,393.0,510.0,386.5,520.0,391.0,521.0,392.5,516.5" stroke="black" stroke-width="1" fill="none" />
<polyline points="428.0,493.5,429.5,482.5,429.0,484.0,440.5,479.5,440.0,480.0,448.5,477.0,447.0,467.5,457.5,467.5,456.5,467.5,456.5,465.0" stroke="black" stroke-width="1" fill="none" />
<polyline points="446.5,475.5,446.5,476.5,449.0,471.5,448.0,465.5,445.0,463.5,455.5,467.0,455.0,470.5" stroke="orange" stroke-width="1" fill="none" />
<polyline points="463.0,442.5,461.5,438.0" stroke="yellow" stroke-width="1" fill="none" />
<polyline points="467.0,420.0,469.5,419.5,475.0,410.5,478.5,411.5,485.5,403.0,480.0,406.0,491.5,396.0,489.5,396.0,496.5,389.5,498.0,392.0,505.5,391.0,503.0,384.0,516.0,384.0,508.0,374.5,515.0,383.0" stroke="green" stroke-width="1" fill="none" />
<polyline points="514.5,385.0,506.0,386.0,499.0,385.0,490.0,396.0,489.5,402.5,485.0,406.0,480.0,409.5,478.5,411.5,471.0,417.0,472.5,426.0,471.0,421.0,463.5,426.0,461.5,428.0,463.0,435.0,460.5,437.5,450.5,440.5,462.5,446.0,462.0,451.0,456.0,457.0,452.5,456.5,453.5,456.0,446.0,467.5,447.0,474.5,447.0,476.0,445.5,482.0,442.5,482.0,442.5,480.5,438.5,480.0" stroke="green" stroke-width="1" fill="none" />
<polyline points="432.0,477.0,435.5,478.0,427.5,484.0,441.0,473.5,436.5,472.0,437.0,464.5,439.5,462.5,430.5,457.5,438.5,455.5" stroke="black" stroke-width="1" fill="none" />
<polyline points="431.0,458.5,434.5,456.0,427.5,452.5,428.5,456.5,433.0,445.0,438.5,440.0,439.0,440.5,439.0,427.5,430.0,428.0,431.5,433.5,431.5,429.5,434.5,430.5,429.0,431.0" stroke="yellow" stroke-width="1" fill="none" />
<polyline points="429.0,468.5,429.0,473.0,424.5,478.0,422.0,472.5,420.0,482.5,423.0,486.0,425.0,481.5" stroke="orange" stroke-width="1" fill="none" />
<polyline points="420.5,471.5,424.0,470.0,420.0,470.5,420.5,477.0,428.0,473.5,430.5,467.0,432.5,461.0,433.0,460.5,434.0,463.0,437.0,460.5" stroke="orange" stroke-width="1" fill="none" />
<polyline points="473.0,413.0,475.5,412.5,487.0,410.0,476.5,394.0" stroke="orange" stroke-width="1" fill="none" />
<polyline points="443.5,429.5,446.5,426.5,446.5,420.5,445.5,412.5,449.5,408.0,448.0,411.5,450.5,403.0,451.0,396.0,452.5,391.5,451.5,390.0,449.5,385.5,457.0,379.5,447.5,382.0,450.5,379.0,457.5,375.0,448.5,365.0,450.0,367.0" stroke="black" stroke-width="1" fill="none" />
<polyline points="382.5,344.5,392.0,338.5,384.0,334.0,373.5,324.5,382.0,326.5,381.5,325.0" stroke="green" stroke-width="1" fill="none" />
<polyline points="370.0,359.5,371.0,362.0,369.5,365.0,366.0,365.0,363.5,376.5,362.0,384.5,362.0,386.0,371.0,386.0,372.5,382.5,375.5,391.0,375.0,388.5" stroke="black" stroke-width="1" fill="none" />
<polyline points="324.5,341.5" stroke="green" stroke-width="1" fill="none" />
<polyline points="314.5,353.0,310.5,355.0,308.5,352.0" stroke="green" stroke-width="1" fill="none" />
<polyline points="302.0,356.5,298.5,353.5" stroke="green" stroke-width="1" fill="none" />
<polyline points="303.0,356.5,308.5,354.5,315.5,356.5,310.0,356.0,308.5,361.5,308.5,368.0,303.0,367.0,306.5,365.0" stroke="yellow" stroke-width="1" fill="none" />
<polyline points="309.5,347.0,309.0,347.0,297.5,350.0,301.5,346.5,296.5,350.0,299.5,354.5" stroke="orange" stroke-width="1" fill="none" />
<polyline points="305.5,328.5,306.5,324.5,313.5,328.5,313.0,324.5,305.0,330.5,303.5,333.5,302.5,330.5,312.0,333.5,310.5,336.5,309.0,337.5" stroke="orange" stroke-width="1" fill="none" />
<polyline points="310.5,330.5,311.0,320.5,310.5,322.0,299.0,331.0,296.5,337.0" stroke="black" stroke-width="1" fill="none" />
<polyline points="291.0,324.0,305.0,322.0,298.5,322.5,295.5,316.0,300.5,313.5" stroke="black" stroke-width="1" fill="none" />
<polyline points="318.5,331.5,324.0,324.0,324.5,320.0,323.0,320.5,321.5,311.0,319.5,307.0,325.0,316.5,322.0,301.5,322.5,303.5,324.0,305.0" stroke="black" stroke-width="1" fill="none" />
<polyline points="" stroke="green" stroke-width="1" fill="none" />
<polyline points="333.5,271.0,334.0,270.5,337.5,270.0,337.5,265.5,328.5,261.0,328.5,258.5,335.5,259.5" stroke="green" stroke-width="1" fill="none" />
<polyline points="323.0,264.0,325.5,264.5,328.0,275.0,330.5,273.5,325.0,279.5,330.0,265.5,336.0,271.5,322.0,272.0,330.0,260.0" stroke="yellow" stroke-width="1" fill="none" />
<polyline points="323.5,271.5" stroke="orange" stroke-width="1" fill="none" />
<polyline points="" stroke="green" stroke-width="1" fill="none" />
<polyline points="323.5,262.5,324.0,263.5,333.0,266.5,336.5,259.0,335.0,259.5,338.0,253.5,345.5,262.5,350.0,252.5,350.5,250.5" stroke="black" stroke-width="1" fill="none" />
<polyline points="351.5,231.5,344.5,235.0,349.0,229.0,345.5,224.5,336.5,216.5,341.5,214.0,339.0,212.5" stroke="black" stroke-width="1" fill="none" />
<polyline points="342.0,194.0,342.5,193.0,346.0,199.5,354.5,197.0,353.0,200.0,358.5,194.5,356.5,194.0,369.0,188.0,373.0,184.5,378.5,182.0,380.5,183.0,376.0,188.0,391.0,185.0,388.5,178.5,393.5,171.5,394.0,167.0,396.5,181.5,404.5,167.0,406.0,174.0,403.0,177.0,395.5,188.0,394.0,186.5,390.0,192.5,383.0,190.5,384.0,198.0,394.0,187.5,392.0,184.0,395.0,172.5,404.5,178.0" stroke="black" stroke-width="1" fill="none" />
<polyline points="400.0,157.5,406.0,163.0,411.0,166.0,394.5,172.5,386.0,174.5" stroke="black" stroke-width="1" fill="none" />
<polyline points="376.5,176.5,369.5,184.0,355.5,190.0,347.5,189.5,344.0,193.5,335.0,194.5,338.0,208.0,346.5,202.5" stroke="green" stroke-width="1" fill="none" />
<polyline points="331.5,208.5,339.0,209.0,341.0,207.5,331.0,213.0,331.0,210.0" stroke="black" stroke-width="1" fill="none" />
<polyline points="" stroke="green" stroke-width="1" fill="none" />
<polyline points="348.0,205.0,351.5,214.5,353.5,216.5,355.5,215.5" stroke="orange" stroke-width="1" fill="none" />
<polyline points="356.0,206.0,352.0,204.5,347.0,199.5,345.5,204.0,343.5,208.0" stroke="yellow" stroke-width="1" fill="none" />
<polyline points="343.0,204.0,350.5,206.5,349.0,204.5,352.5,204.5" stroke="orange" stroke-width="1" fill="none" />
<polyline points="346.5,194.5" stroke="orange" stroke-width="1" fill="none" />
<polyline points="345.5,198.5,348.0,198.5,347.0,202.5,350.5,206.0,353.5,205.5" stroke="black" stroke-width="1" fill="none" />
<polyline points="" stroke="black" stroke-width="1" fill="none" />
<polyline points="368.0,196.5,368.5,196.5" stroke="orange" stroke-width="1" fill="none" />
<polyline points="393.0,154.5,390.0,160.0,380.5,159.5,389.0,160.5,383.0,170.0,383.0,177.5,387.5,172.0,386.0,158.0,389.0,155.5,390.5,155.0" stroke="black" stroke-width="1" fill="none" />
<polyline points="398.5,164.5,394.5,166.5,399.5,161.0,404.0,160.5,387.5,174.5,396.0,174.5,388.5,173.5,396.5,170.5,399.0,163.5" stroke="yellow" stroke-width="1" fill="none" />
<polyline points="395.5,130.0,395.5,128.0,387.5,131.0,381.0,137.0,392.0,131.5,389.0,127.5,394.0,125.0,387.5,125.5" stroke="orange" stroke-width="1" fill="none" />
<polyline points="400.0,115.0,392.0,125.5,390.5,121.5,377.0,131.5,381.5,131.0,379.0,128.0,390.5,121.5,399.5,120.0,400.5,116.0" stroke="yellow" stroke-width="1" fill="none" />
<polyline points="391.5,119.5,389.5,124.0,382.0,125.0,381.0,129.5,370.5,134.0,361.5,140.0,354.0,143.0,351.5,141.5" stroke="green" stroke-width="1" fill="none" />
<polyline points="331.0,148.0,314.0,158.0,320.5,162.5,313.5,158.5,306.5,167.0" stroke="orange" stroke-width="1" fill="none" />
<polyline points="" stroke="yellow" stroke-width="1" fill="none" />
<polyline points="280.0,171.0,279.0,170.5,281.0,172.0,284.0,179.0,285.5,177.5,284.5,179.5" stroke="black" stroke-width="1" fill="none" />
<polyline points="282.0,179.0,285.5,182.0" stroke="orange" stroke-width="1" fill="none" />
<polyline points="275.5,176.5,282.0,180.5,278.5,172.0,275.5,170.0,273.0,172.5,276.0,170.5" stroke="orange" stroke-width="1" fill="none" />
<polyline points="273.0,181.0,265.0,182.0,259.5,174.5,257.0,179.5,263.5,180.0,248.0,172.0,246.0,168.0,245.5,164.0" stroke="black" stroke-width="1" fill="none" />
<polyline points="241.5,169.0,247.0,164.0,245.5,168.5,253.5,164.5,251.0,171.0,259.0,180.5,250.5,182.0,244.0,185.0,244.0,188.0,242.0,193.5,236.5,195.0,237.0,199.5,236.0,209.5,236.0,206.5,245.5,218.0,244.5,205.0,248.0,216.0,254.5,202.0,253.5,210.0,254.0,205.0,249.5,211.5,247.5,218.5,249.5,226.5,237.5,219.0,243.5,235.5,239.0,229.5,236.0,231.0,237.5,248.0,231.0,249.0,229.5,255.5,223.5,251.5,220.0,254.0,218.0,260.0,220.0,271.0,217.0,271.5,209.5,277.0,205.5,281.5,203.0,285.0,205.0,291.5,205.5,298.5,199.5,302.0,196.5,297.5,192.0,302.5,200.0,309.0,198.0,315.0,190.0,310.0,192.0,312.0,185.0,316.0,183.0,323.5,179.0,326.5,173.5,332.0,167.5,330.5,166.5,342.0,163.5,342.5,163.5,339.5" stroke="green" stroke-width="1" fill="none" />
<polyline points="154.5,352.0,159.5,346.5,160.0,361.5,151.0,359.5,155.0,366.0,149.5,369.0,160.5,376.0,158.5,368.0,154.5,382.0,152.0,384.5,155.5,391.5,157.5,393.5,151.0,390.0,156.5,401.5,159.5,405.5,160.0,407.5,164.0,409.0,162.0,407.5" stroke="orange" stroke-width="1" fill="none" />
<polyline points="166.0,409.0,167.5,407.0,163.0,406.5,158.5,412.5,156.0,416.5" stroke="orange" stroke-width="1" fill="none" />
<polyline points="169.0,411.5,166.5,413.0,168.5,412.5,165.0,414.0,171.0,416.5,169.0,418.0,171.0,424.0,171.0,423.0,176.0,420.5" stroke="green" stroke-width="1" fill="none" />
<polyline points="" stroke="black" stroke-width="1" fill="none" />
<polyline points="183.0,446.0,176.5,443.0,176.0,442.5,188.5,448.5,187.5,438.5,188.5,444.0" stroke="green" stroke-width="1" fill="none" />
<polyline points="190.5,448.0,189.5,449.0,192.0,449.0" stroke="black" stroke-width="1" fill="none" />
<polyline points="" stroke="yellow" stroke-width="1" fill="none" />
<polyline points="" stroke="black" stroke-width="1" fill="none" />
<polyline points="178.0,455.0,177.5,461.5,179.0,460.5,168.0,468.5,170.5,470.5,165.5,472.5,166.0,475.0" stroke="green" stroke-width="1" fill="none" />
<polyline points="163.5,470.5,155.0,472.0,159.0,474.0,153.5,468.5,139.0,454.0,142.0,456.5,141.5,454.0,140.5,455.5,136.0,459.0" stroke="green" stroke-width="1" fill="none" />
<polyline points="136.0,466.5,144.5,472.0,142.5,472.0,145.5,481.0,150.5,479.5,156.0,485.0,154.5,482.0,154.0,481.0,156.0,488.0,164.5,493.5,160.5,492.0" stroke="green" stroke-width="1" fill="none" />
<polyline points="165.5,500.0,167.0,502.5,165.0,503.5,164.0,500.0,164.5,499.5" stroke="black" stroke-width="1" fill="none" />
<polyline points="170.0,504.5,169.0,502.5,167.0,509.0,154.5,507.5,157.5,501.0,153.5,505.0,148.5,494.0,141.0,490.5,141.0,484.5" stroke="yellow" stroke-width="1" fill="none" />
<polyline points="146.5,490.5,149.0,495.5,148.0,504.0,149.0,498.5" stroke="orange" stroke-width="1" fill="none" />
<polyline points="146.5,500.5" stroke="black" stroke-width="1" fill="none" />
<polyline points="" stroke="orange" stroke-width="1" fill="none" />
<polyline points="159.0,490.0" stroke="green" stroke-width="1" fill="none" />
<polyline points="150.5,488.0,151.0,489.5,156.0,488.0" stroke="yellow" stroke-width="1" fill="none" />
<polyline points="147.5,490.0,154.0,491.0,155.0,496.5,156.5,499.5,156.0,500.0,155.0,505.5,157.0,512.0,163.0,506.0,160.5,506.5,161.5,510.0" stroke="orange" stroke-width="1" fill="none" />
<polyline points="150.0,502.0,144.0,498.0,149.5,490.5,143.5,486.5,136.5,480.0,141.5,482.0,144.0,485.0" stroke="black" stroke-width="1" fill="none" />
<polyline points="146.0,492.5,150.5,497.0,147.5,496.0,148.0,498.5,148.5,502.5,152.0,504.0,151.0,508.0" stroke="green" stroke-width="1" fill="none" />
<polyline points="140.5,496.5,144.0,491.5" stroke="green" stroke-width="1" fill="none" />
<polyline points="141.0,504.0,148.5,508.0,154.5,507.5,151.5,517.5" stroke="orange" stroke-width="1" fill="none" />
<polyline points="140.5,508.0,140.5,515.5,139.0,505.0,133.0,500.0,139.0,491.5,138.5,493.0" stroke="orange" stroke-width="1" fill="none" />
<polyline points="133.5,478.0,138.5,483.5,142.0,496.5,128.5,501.5,140.5,498.5,138.0,492.0,141.0,496.0" stroke="green" stroke-width="1" fill="none" />
<polyline points="" stroke="green" stroke-width="1" fill="none" />
<polyline points="122.0,509.5,123.5,508.0" stroke="orange" stroke-width="1" fill="none" />
<polyline points="120.0,510.0,122.0,512.0,122.5,508.0,123.0,495.0,123.5,498.5,126.5,488.5,130.0,489.5" stroke="black" stroke-width="1" fill="none" />
<polyline points="129.0,501.0,129.0,496.0,122.0,495.5" stroke="green" stroke-width="1" fill="none" />
<polyline points="135.0,517.0,131.0,516.0,131.5,510.0,130.0,506.0,126.0,504.5,127.0,509.5" stroke="black" stroke-width="1" fill="none" />
<polyline points="137.5,488.5,137.0,477.5,137.0,483.0" stroke="black" stroke-width="1" fill="none" />
<polyline points="132.5,478.0,128.5,488.5,134.0,493.5,133.5,495.0,140.0,506.5,133.5,505.5,140.5,511.0,138.5,518.5,134.0,504.0" stroke="green" stroke-width="1" fill="none" />
<polyline points="158.5,509.0,163.0,510.0" stroke="green" stroke-width="1" fill="none" />
<polyline points="158.5,494.0" stroke="green" stroke-width="1" fill="none" />
<polyline points="170.0,482.0,158.0,481.5" stroke="orange" stroke-width="1" fill="none" />
<polyline points="166.5,474.5,165.0,472.0" stroke="yellow" stroke-width="1" fill="none" />
<polyline points="166.5,470.5,161.5,466.5,172.5,470.5,175.0,471.0,175.0,481.0,160.5,484.5,170.0,486.5,173.0,500.5,172.0,492.0,171.5,490.5,171.0,490.0" stroke="yellow" stroke-width="1" fill="none" />
<polyline points="195.5,488.0,207.5,487.0,211.0,484.5,207.5,481.5,208.0,484.5,217.5,482.0,224.0,475.0,228.0,478.5" stroke="yellow" stroke-width="1" fill="none" />
<polyline points="232.5,461.5,234.5,460.0,230.0,456.0" stroke="yellow" stroke-width="1" fill="none" />
<polyline points="218.5,480.0,218.0,472.5,215.0,473.0,223.0,469.0,226.5,458.0,232.5,453.0,231.5,448.0,232.5,446.0,233.0,444.5,236.0,439.5,231.0,438.5,239.5,433.5,230.0,430.5,245.0,426.0,229.0,416.5,225.5,417.0,235.0,411.0,233.5,404.5,228.0,402.5,222.0,406.0" stroke="yellow" stroke-width="1" fill="none" />
<polyline points="225.0,412.5,223.5,409.5,224.0,409.0,222.0,417.0,223.0,412.0,225.5,410.0" stroke="orange" stroke-width="1" fill="none" />
<polyline points="241.5,417.5,226.0,414.5,223.0,417.5,232.5,426.0,221.5,423.0,224.5,416.5,222.0,418.5,226.5,417.5" stroke="orange" stroke-width="1" fill="none" />
<polyline points="250.0,418.5,247.0,425.0,242.0,426.0,237.5,423.5,238.0,433.0,240.0,436.5,241.0,446.0,238.0,444.0,243.0,447.0,239.0,456.0,236.5,456.0,231.0,458.5,236.0,472.5,231.5,469.5,222.5,473.5,224.5,477.5,225.0,480.0,218.0,487.5" stroke="black" stroke-width="1" fill="none" />
<polyline points="193.0,500.0,198.0,490.5,209.5,491.0,206.0,496.0,211.5,494.0,216.5,492.0,216.0,489.0,222.5,486.5,228.0,478.0,235.0,480.0" stroke="orange" stroke-width="1" fill="none" />
<polyline points="204.0,443.5,199.5,450.5,199.0,446.5,187.5,447.5,193.5,446.0" stroke="green" stroke-width="1" fill="none" />
<polyline points="182.0,448.5,180.0,454.0,192.0,452.5,185.0,452.0,182.0,441.0,191.5,441.0,180.5,432.0,173.5,431.5,183.5,430.5,190.5,424.0,182.0,422.5,180.0,422.0,181.5,416.0,174.5,414.0,175.0,414.5,170.0,396.0,162.0,398.0,162.0,390.5,167.5,393.5,161.5,386.0,165.0,382.5,166.0,376.5" stroke="black" stroke-width="1" fill="none" />
<polyline points="161.0,367.5,164.5,367.5,176.0,367.0,176.0,357.0,182.5,347.5,181.0,344.0,185.0,339.5,193.0,335.0,196.0,329.5,200.5,323.5,196.5,323.5" stroke="yellow" stroke-width="1" fill="none" />
<polyline points="198.5,319.0,204.5,317.5,210.0,319.5,206.0,316.0" stroke="yellow" stroke-width="1" fill="none" />
<polyline points="185.5,318.5,187.0,319.0,193.0,305.0,196.0,303.0,203.5,289.5,206.0,288.5,208.0,279.0,216.5,272.5,221.5,262.0,222.0,258.5,226.5,250.5,234.0,243.5,229.5,244.0,242.0,232.5,241.0,226.0,247.5,222.5,252.5,219.0,258.5,219.0,259.5,212.0,250.0,214.5" stroke="orange" stroke-width="1" fill="none" />
<polyline points="271.0,226.5,271.5,225.5" stroke="black" stroke-width="1" fill="none" />
<polyline points="273.0,232.5,271.5,233.0,263.5,241.0,260.0,243.5" stroke="black" stroke-width="1" fill="none" />
<polyline points="263.5,233.0,264.0,233.5,267.5,228.5,262.0,234.5,262.0,221.5,270.5,227.5,260.0,224.5,255.0,230.5,255.5,229.5,254.0,229.5,245.0,246.5,246.0,241.0,233.0,251.0,241.0,257.0,225.5,269.0,221.5,273.5,216.0,281.0,219.5,281.0,220.0,281.0,228.0,277.0,222.0,268.5,226.5,263.5,223.0,261.0,235.5,260.0,228.5,255.5,241.0,246.5,231.5,247.0,247.0,238.5,248.0,236.0,250.0,239.5,254.5,222.5,264.0,222.5,264.0,220.5,260.0,220.0,261.5,216.0,270.0,216.5,269.0,216.5,272.0,207.0,274.5,199.5,272.5,201.0,274.0,194.5,267.0,191.5,270.5,186.0,265.0,190.5,259.5,197.0,257.5,205.0,271.0,203.5,260.0,204.0,261.5,209.5,268.5,194.0" stroke="green" stroke-width="1" fill="none" />
<polyline points="253.5,194.5" stroke="green" stroke-width="1" fill="none" />
<polyline points="247.5,207.5,258.0,215.5,253.5,214.5,247.0,221.5,241.5,229.5,243.0,229.5,226.5,237.5,229.0,236.0,221.5,237.5,223.5,227.5,232.5,227.0,224.5,222.5,225.5,216.5,225.5,218.5,218.0,216.5,219.5,219.0,231.0,201.0,220.0,205.0,222.5,206.5,218.0,205.5,219.0,204.0,217.0,203.0" stroke="orange" stroke-width="1" fill="none" />
<polyline points="231.5,199.0,242.0,198.5,238.5,200.0,228.0,210.5" stroke="black" stroke-width="1" fill="none" />
<polyline points="" stroke="green" stroke-width="1" fill="none" />
<polyline points="" stroke="orange" stroke-width="1" fill="none" />
<polyline points="251.0,205.5,251.5,197.0,259.0,186.0,260.0,188.5,257.0,181.0,248.5,194.0,242.0,197.0,253.0,192.0,268.5,186.0,259.5,192.0,255.5,189.0,265.5,182.5,267.0,174.5,279.0,184.0,273.5,184.0,272.0,179.5,276.5,180.5,279.5,176.5" stroke="orange" stroke-width="1" fill="none" />
<polyline points="254.0,176.0,259.5,179.0,253.0,189.5,250.0,197.0,253.0,193.0,251.5,198.0,250.0,201.5,243.5,199.0,240.0,205.0,246.5,204.5,255.5,203.5,246.5,196.5,251.5,196.5,264.0,194.5,260.5,186.0,263.5,181.5,269.5,198.0,272.0,195.0" stroke="black" stroke-width="1" fill="none" />
<polyline points="267.0,204.0,261.0,205.0,261.0,203.5,264.0,195.5,266.0,194.5,272.0,187.0,273.0,192.0,276.0,187.5,275.0,187.5" stroke="orange" stroke-width="1" fill="none" />
<polyline points="262.0,189.5,260.5,194.5,253.5,195.0,250.0,196.5,245.0,210.0,250.5,211.5,253.5,218.0,252.0,219.5" stroke="yellow" stroke-width="1" fill="none" />
<polyline points="258.0,200.5,262.5,205.0,270.0,200.0,261.0,202.5,260.0,208.0,262.5,206.5,257.5,214.5,260.5,213.5,254.0,226.5,248.5,224.5,242.0,229.0,243.5,230.0,238.0,243.5,239.5,245.5" stroke="yellow" stroke-width="1" fill="none" />
<polyline points="" stroke="green" stroke-width="1" fill="none" />
<polyline points="" stroke="orange" stroke-width="1" fill="none" />
<polyline points="229.0,222.0,221.5,219.5,232.0,229.5,229.0,224.5" stroke="green" stroke-width="1" fill="none" />
<polyline points="217.0,233.0" stroke="green" stroke-width="1" fill="none" />
<polyline points="223.5,234.0,228.0,243.0,218.5,235.5,226.5,244.5,223.5,242.5" stroke="black" stroke-width="1" fill="none" />
<polyline points="226.0,250.0,225.0,237.0,232.0,231.5,222.5,235.5,220.0,231.5,218.5,226.0,212.0,222.0,217.5,227.0" stroke="orange" stroke-width="1" fill="none" />
<polyline points="215.5,216.0,223.0,234.0,214.0,230.0,215.0,236.0,224.0,232.0,229.5,246.5,224.5,246.5,232.0,249.5,229.0,248.5" stroke="yellow" stroke-width="1" fill="none" />
<polyline points="225.0,252.5,217.0,262.5,218.5,273.0,216.0,273.0,205.0,286.0,197.5,286.0,194.5,291.0,196.0,304.5,192.5,320.0,188.5,318.0,185.0,329.0,179.0,329.5,172.5,330.0,172.5,331.0,164.5,337.5,157.5,334.0,157.0,333.5,153.0,342.5,143.0,350.5,141.5,346.5,143.0,344.0" stroke="yellow" stroke-width="1" fill="none" />
<polyline points="138.0,346.0,148.0,334.0,146.5,339.5,149.5,337.0,147.5,331.0,152.5,328.5,148.5,326.5,151.0,329.5" stroke="green" stroke-width="1" fill="none" />
<polyline points="152.5,330.5,154.5,332.5,150.5,332.5" stroke="green" stroke-width="1" fill="none" />
<polyline points="142.0,350.0,145.5,350.0,149.0,346.0,146.5,356.5" stroke="black" stroke-width="1" fill="none" />
<polyline points="147.5,349.0,133.0,346.5,133.0,339.0,136.5,342.0,132.0,335.0,139.5,328.5,133.5,326.5,134.0,322.5,134.0,316.5,130.0,316.0,130.5,311.5,129.0,306.0,131.5,298.0,129.5,297.5" stroke="black" stroke-width="1" fill="none" />
<polyline points="129.5,297.5,130.5,296.0,127.5,296.5" stroke="green" stroke-width="1" fill="none" />
<polyline points="148.0,302.0,134.5,290.0,140.5,307.0,138.5,303.5,140.5,304.5" stroke="yellow" stroke-width="1" fill="none" />
<polyline points="118.0,289.0,133.5,295.0,134.5,289.5,131.5,289.5" stroke="orange" stroke-width="1" fill="none" />
<polyline points="129.5,281.0,133.0,272.5,138.5,277.0,143.0,273.0,143.5,274.0" stroke="black" stroke-width="1" fill="none" />
<polyline points="152.0,262.5,157.0,264.5" stroke="yellow" stroke-width="1" fill="none" />
<polyline points="155.5,260.0,155.0,270.5,155.0,275.5,154.5,269.5,157.0,272.0,159.0,267.5" stroke="green" stroke-width="1" fill="none" />
<polyline points="152.0,273.0,155.5,271.5,152.0,272.0" stroke="orange" stroke-width="1" fill="none" />
<polyline points="174.5,276.0,168.5,276.5,170.5,270.0,172.0,269.5,166.5,260.5,175.0,258.5,170.0,256.0,174.0,258.0,167.5,257.5,169.5,263.0" stroke="yellow" stroke-width="1" fill="none" />
<polyline points="170.5,255.5,177.0,252.0,180.0,251.5,178.5,244.5" stroke="yellow" stroke-width="1" fill="none" />
<polyline points="171.0,260.0" stroke="green" stroke-width="1" fill="none" />
<polyline points="" stroke="green" stroke-width="1" fill="none" />
<polyline points="179.0,264.5,182.5,265.0,181.0,261.5,188.5,260.0,186.5,260.0" stroke="yellow" stroke-width="1" fill="none" />
<polyline points="" stroke="black" stroke-width="1" fill="none" />
<polyline points="181.5,263.5" stroke="black" stroke-width="1" fill="none" />
<polyline points="180.0,252.5,189.0,259.0,187.5,261.5,182.5,267.5,193.0,262.5,184.0,267.5,183.5,268.5" stroke="black" stroke-width="1" fill="none" />
<polyline points="206.0,261.0,204.0,262.0,207.0,265.0,207.5,265.0" stroke="black" stroke-width="1" fill="none" />
<polyline points="213.5,249.0,219.5,264.5,210.0,251.5,208.0,246.0,209.5,244.0,207.0,237.0,207.5,236.5,211.5,238.5,206.5,241.0,202.0,237.5,203.5,235.0" stroke="orange" stroke-width="1" fill="none" />
<polyline points="204.0,241.5,207.5,235.0,208.5,248.5,214.5,247.5,218.5,239.5,220.0,246.5,214.5,248.5" stroke="orange" stroke-width="1" fill="none" />
<polyline points="204.5,248.5" stroke="black" stroke-width="1" fill="none" />
<polyline points="207.5,260.5" stroke="green" stroke-width="1" fill="none" />
<polyline points="211.5,256.5,212.5,257.5,213.0,248.5,210.5,247.5,207.0,240.0,208.0,242.0,213.0,235.5" stroke="yellow" stroke-width="1" fill="none" />
<polyline points="213.5,233.0,209.0,238.0,214.0,242.5,212.5,248.0,210.5,255.5,210.0,254.5,217.0,260.5,215.0,263.0,217.0,262.5" stroke="black" stroke-width="1" fill="none" />
<polyline points="207.0,256.5,215.5,251.0" stroke="orange" stroke-width="1" fill="none" />
<polyline points="197.5,254.0,191.5,245.0" stroke="black" stroke-width="1" fill="none" />
<polyline points="192.5,250.5" stroke="green" stroke-width="1" fill="none" />
<polyline points="187.5,271.0,188.5,268.5,184.0,266.0,185.5,260.5,172.0,267.5,176.5,260.5,188.0,248.0,182.5,247.5,179.0,241.0,188.5,234.5,191.0,237.5,182.5,246.0,181.5,238.5,182.0,240.0" stroke="yellow" stroke-width="1" fill="none" />
<polyline points="190.5,226.0,190.0,223.0,196.5,216.5,200.0,215.0,189.0,229.0,190.5,223.5" stroke="black" stroke-width="1" fill="none" />
<polyline points="190.0,217.0,186.0,225.5,181.0,221.0,188.5,229.0,188.0,233.0,188.5,234.0" stroke="black" stroke-width="1" fill="none" />
<polyline points="181.5,240.5,183.5,239.0,185.5,239.0,184.0,241.0,185.5,238.5" stroke="black" stroke-width="1" fill="none" />
<polyline points="186.5,241.0,190.5,245.0,192.0,238.0,191.0,240.0,204.0,238.5,199.0,240.0" stroke="green" stroke-width="1" fill="none" />
<polyline points="218.0,224.0" stroke="black" stroke-width="1" fill="none" />
<polyline points="" stroke="black" stroke-width="1" fill="none" />
<polyline points="209.0,225.0,211.5,221.5,215.5,221.0,218.5,231.0,219.0,237.0,219.0,237.5" stroke="green" stroke-width="1" fill="none" />
<polyline points="227.5,197.0,227.0,196.5,219.5,213.5,219.0,218.0,222.0,214.0,222.5,216.5,228.5,228.5,233.0,226.5,227.0,232.0,235.0,232.5,237.5,244.5,234.5,241.0,234.5,251.5,232.0,248.5,230.5,250.5,224.0,251.5,217.5,264.0,221.0,264.0,219.0,265.5,218.5,271.5,217.0,280.5,203.5,282.0,216.5,293.0,202.5,288.5,202.5,294.0,211.0,303.0,192.0,302.0,204.0,307.0,207.0,315.5,200.0,314.5,194.5,314.0,190.5,321.5,200.5,320.5,198.0,311.5,203.5,311.0,214.0,311.5,213.5,309.0,222.5,295.5,227.5,299.5,234.0,287.0,227.0,280.5,239.0,280.5,232.5,267.5,239.5,267.5,250.5,265.5,245.0,259.5,252.0,256.0,253.5,252.0,258.5,248.0,262.0,252.5,270.0,241.5,282.5,251.0,280.0,246.5,279.5,250.5,292.0,249.0,287.0,245.0,304.0,254.0,300.5,253.0" stroke="yellow" stroke-width="1" fill="none" />
<polyline points="" stroke="green" stroke-width="1" fill="none" />
<polyline points="285.0,262.5,292.5,274.5,291.5,275.5,291.0,275.0,290.5,276.0,296.5,275.5" stroke="black" stroke-width="1" fill="none" />
<polyline points="" stroke="orange" stroke-width="1" fill="none" />
<polyline points="" stroke="green" stroke-width="1" fill="none" />
<polyline points="282.0,275.0,281.0,277.0,281.5,274.0" stroke="green" stroke-width="1" fill="none" />
<polyline points="279.5,266.5,273.0,264.0,274.0,260.0" stroke="orange" stroke-width="1" fill="none" />
<polyline points="274.5,264.0,278.5,261.5" stroke="orange" stroke-width="1" fill="none" />
<polyline points="261.0,265.5,264.0,260.0,267.5,268.5,261.0,261.5" stroke="black" stroke-width="1" fill="none" />
<polyline points="263.0,265.5,261.5,272.5,266.5,273.5,270.0,269.5,275.0,265.0,283.5,262.0,278.0,277.5,271.0,287.5,277.0,275.5,275.0,280.5,279.5,287.0,280.5,289.5" stroke="yellow" stroke-width="1" fill="none" />
<polyline points="261.5,281.0,262.0,274.0,259.5,270.0,262.0,267.5,258.5,271.5,256.5,274.5,251.5,271.5,254.0,274.5" stroke="orange" stroke-width="1" fill="none" />
<polyline points="270.5,272.5,268.5,278.5" stroke="orange" stroke-width="1" fill="none" />
<polyline points="249.0,269.0" stroke="black" stroke-width="1" fill="none" />
<polyline points="251.5,265.0,253.5,271.0,256.0,277.5,253.5,278.5,263.0,271.0,268.5,275.5,268.5,281.5,274.0,283.0,281.5,279.0,282.0,277.0" stroke="green" stroke-width="1" fill="none" />
<polyline points="289.0,262.5,286.0,263.5,281.5,258.5,276.5,260.5,286.0,257.5,278.0,251.0,274.5,253.0,277.0,251.5,278.5,248.5,275.5,251.0" stroke="green" stroke-width="1" fill="none" />
<polyline points="271.0,247.5,275.0,252.0" stroke="orange" stroke-width="1" fill="none" />
<polyline points="" stroke="black" stroke-width="1" fill="none" />
<polyline points="269.5,259.0,270.0,256.5,280.5,255.5,268.5,258.5,264.0,252.0,261.0,252.0" stroke="black" stroke-width="1" fill="none" />
<polyline points="264.5,271.0,262.5,271.0" stroke="green" stroke-width="1" fill="none" />
<polyline points="278.0,269.5,285.0,269.5,287.0,269.5,291.0,278.5,286.5,276.0,283.5,272.5,284.0,280.5,288.0,278.5,291.5,269.5" stroke="orange" stroke-width="1" fill="none" />
<polyline points="" stroke="black" stroke-width="1" fill="none" />
<polyline points="265.0,243.0,255.5,252.5,259.0,247.0,256.5,256.0,246.5,266.5,242.5,265.0,243.0,267.0,237.5,274.0,234.0,278.0,232.5,287.5,231.0,284.5,227.0,289.0,218.5,296.0,211.0,300.5,216.0,301.0,212.0,297.5,208.0,313.5,200.0,314.0,199.5,315.0,204.0,322.0,199.0,325.0,191.0,334.5,192.5,333.5,183.5,333.0,185.0,347.5,186.5,343.5,175.5,347.5,172.5,356.5,177.0,356.0,168.0,360.0,169.0,372.0,165.5,368.5,159.0,377.0,157.0,377.0,152.0,389.5,164.0,388.0,159.0,394.5,169.0,400.0,176.5,408.0,175.5,405.0,176.5,404.0,172.5,396.5,174.5,397.5" stroke="green" stroke-width="1" fill="none" />
<polyline points="155.0,389.0,157.0,392.0,159.5,394.5,160.0,388.0" stroke="black" stroke-width="1" fill="none" />
<polyline points="" stroke="black" stroke-width="1" fill="none" />
<polyline points="138.0,378.5,139.0,377.5,139.0,369.0,142.0,371.0,142.5,372.5,141.5,362.0" stroke="black" stroke-width="1" fill="none" />
<polyline points="141.5,382.0" stroke="orange" stroke-width="1" fill="none" />
<polyline points="134.0,411.5,130.0,414.5,129.5,414.5,131.0,418.5,137.5,424.5,136.0,425.5,137.0,433.0,139.0,437.0,137.0,442.0,137.0,441.0,142.5,442.5,143.5,452.5,138.0,450.0,138.0,465.0,137.5,459.5,140.5,468.0,139.5,465.5,139.5,469.0,147.5,470.0,150.0,480.0,148.5,475.0,157.5,485.0,161.5,483.5,164.5,481.0" stroke="orange" stroke-width="1" fill="none" />
<polyline points="" stroke="orange" stroke-width="1" fill="none" />
<polyline points="175.0,466.0,175.5,463.0,187.5,457.5,169.5,466.5,177.0,457.0,177.5,456.0,171.0,449.0,163.5,441.0,175.5,439.0,163.5,439.0,169.5,434.5,171.5,434.5" stroke="yellow" stroke-width="1" fill="none" />
<polyline points="169.5,436.5,161.5,439.0,165.5,438.5" stroke="black" stroke-width="1" fill="none" />
<polyline points="156.0,427.0,159.5,421.0,160.5,425.0,151.5,411.0,162.5,409.5,155.0,412.5,149.5,413.0,153.0,403.5,156.5,404.0,160.5,392.5,154.0,395.5,146.0,395.0,153.0,385.5,146.0,370.5,143.0,374.0,140.5,367.0,140.0,366.5,149.5,364.0,143.5,362.0" stroke="orange" stroke-width="1" fill="none" />
<polyline points="146.0,360.5,144.5,363.5,149.0,359.5,152.0,369.0,149.0,377.5,152.0,378.5,148.5,381.0,156.0,378.5,149.5,379.0,156.5,398.0,157.5,392.0,162.5,400.0,170.0,399.5,170.5,402.5,169.5,407.5" stroke="orange" stroke-width="1" fill="none" />
<polyline points="175.0,425.0,183.0,424.5,175.5,429.0,169.5,439.5,171.5,440.0,169.5,437.5,172.0,441.5,171.0,452.0,177.0,453.0,182.5,460.0,176.5,452.5,175.0,466.5" stroke="green" stroke-width="1" fill="none" />
<polyline points="172.0,459.0,170.5,452.5" stroke="orange" stroke-width="1" fill="none" />
<polyline points="164.5,450.5,160.0,443.5,163.5,448.5,174.0,457.5,167.5,462.5,178.5,458.5,167.5,465.5,169.5,470.0,163.5,467.5,165.5,484.0,175.0,476.5,153.0,481.0,162.0,488.5,165.5,489.5,162.0,500.5,159.5,492.5,166.0,509.5,169.5,500.0,178.0,514.5,173.5,515.0,175.5,509.0,169.0,512.5" stroke="orange" stroke-width="1" fill="none" />
<polyline points="" stroke="black" stroke-width="1" fill="none" />
<polyline points="155.5,465.0,157.5,461.5,157.0,465.5" stroke="green" stroke-width="1" fill="none" />
<polyline points="" stroke="yellow" stroke-width="1" fill="none" />
<polyline points="149.5,458.5,150.5,449.0,163.5,449.5,152.0,446.5,155.0,443.0,149.5,438.5,146.5,436.5,156.0,430.5,148.5,428.0,146.0,426.0,139.5,420.0,137.5,414.5,132.0,409.0,136.5,407.0,132.5,412.0" stroke="orange" stroke-width="1" fill="none" />
<polyline points="139.0,399.0,146.5,397.5,146.0,397.5,154.0,390.0,146.0,394.5,145.0,399.5" stroke="orange" stroke-width="1" fill="none" />
<polyline points="145.5,397.0,139.5,405.5,136.0,406.5,135.5,411.5" stroke="orange" stroke-width="1" fill="none" />
<polyline points="134.5,400.5,141.0,407.5,143.5,403.5,141.5,410.0,143.5,408.5,146.0,412.0,146.5,414.0,142.0,414.5" stroke="green" stroke-width="1" fill="none" />
<polyline points="159.0,421.5,153.0,426.5,153.0,429.5,158.0,425.5,154.5,435.0,148.5,439.0" stroke="orange" stroke-width="1" fill="none" />
<polyline points="165.5,446.5,162.0,440.0,170.5,447.5,176.5,445.5,181.0,442.5" stroke="black" stroke-width="1" fill="none" />
<polyline points="181.0,427.5,185.0,424.5,173.0,412.0,176.5,415.0,181.0,416.5,169.5,415.0,167.0,412.0,163.0,410.0,164.5,399.0,163.5,397.0" stroke="yellow" stroke-width="1" fill="none" />
<polyline points="179.5,414.5,173.0,421.0,164.5,419.5,170.5,429.0,163.0,431.0,163.5,432.5,159.5,428.0,161.5,439.0,159.5,437.0,161.5,431.5,175.0,429.5,171.0,428.5" stroke="yellow" stroke-width="1" fill="none" />
<polyline points="164.5,432.5,160.5,433.0,168.5,434.5" stroke="orange" stroke-width="1" fill="none" />
<polyline points="163.5,445.0,155.0,452.0,155.5,455.5,159.5,453.0,163.0,453.0,164.0,458.0,164.5,463.0" stroke="yellow" stroke-width="1" fill="none" />
<polyline points="167.5,455.5,161.0,457.5,161.5,458.0,167.5,457.0,159.5,450.0" stroke="green" stroke-width="1" fill="none" />
<polyline points="" stroke="black" stroke-width="1" fill="none" />
<polyline points="150.5,452.0,152.0,453.0,153.0,455.0,154.0,455.5,155.0,456.0,163.0,456.5" stroke="orange" stroke-width="1" fill="none" />
<polyline points="145.5,444.5" stroke="green" stroke-width="1" fill="none" />
<polyline points="143.5,454.5,149.0,461.5,150.0,462.5,147.5,468.5,156.5,470.5,149.0,473.5,155.5,478.0,153.0,478.5,157.0,482.0,153.5,480.5" stroke="green" stroke-width="1" fill="none" />
<polyline points="152.0,474.0,147.5,470.5" stroke="yellow" stroke-width="1" fill="none" />
<polyline points="142.5,465.0,153.0,465.0,156.0,465.0,154.5,465.5" stroke="black" stroke-width="1" fill="none" />
<polyline points="148.5,472.0,139.0,469.0" stroke="black" stroke-width="1" fill="none" />
<polyline points="141.0,455.5,136.0,456.5,147.5,462.5,139.5,458.0,144.0,474.0,142.0,472.5,154.0,474.0,155.5,480.5,155.5,477.0" stroke="green" stroke-width="1" fill="none" />
<polyline points="161.5,472.5,162.0,476.5,155.0,472.5,160.5,475.0,156.5,473.5,145.5,466.5,151.5,460.5,144.0,455.0" stroke="green" stroke-width="1" fill="none" />
<polyline points="144.5,456.0,141.0,452.0,146.0,456.5,140.5,456.5,146.0,469.0,149.0,470.5,149.0,470.5,151.5,474.0,150.5,474.5,156.0,488.5,158.5,491.5,157.0,489.5,164.5,494.5,165.5,499.0" stroke="green" stroke-width="1" fill="none" />
<polyline points="158.5,451.0,162.0,451.5,155.5,454.0,160.5,448.0,157.5,448.0,153.0,455.0,154.5,447.0,152.5,444.5,151.0,432.0,147.0,436.0,146.0,433.0,152.0,433.0,143.0,423.5" stroke="green" stroke-width="1" fill="none" />
<polyline points="" stroke="orange" stroke-width="1" fill="none" />
<polyline points="151.0,427.0,143.5,428.0,146.0,426.0" stroke="black" stroke-width="1" fill="none" />
<polyline points="139.5,414.0,146.0,415.0,147.0,412.0" stroke="black" stroke-width="1" fill="none" />
<polyline points="136.0,407.5,142.0,408.0,145.0,421.5,142.5,422.0,148.5,421.0,146.5,428.0,153.5,431.0,154.0,432.0" stroke="yellow" stroke-width="1" fill="none" />
<polyline points="157.0,419.5,152.5,427.0,156.0,426.0,150.5,410.0,151.5,413.0,150.5,402.0,149.5,397.5,151.5,394.0,145.5,393.5,143.5,394.5,143.0,396.0,139.5,396.5" stroke="orange" stroke-width="1" fill="none" />
<polyline points="151.5,396.0,138.5,400.5" stroke="black" stroke-width="1" fill="none" />
<polyline points="" stroke="yellow" stroke-width="1" fill="none" />
<polyline points="149.0,406.0,142.5,399.5,141.5,398.0,137.5,398.0,126.0,405.0,126.0,401.0,123.0,402.5,122.5,396.0,118.5,396.0,123.0,399.0" stroke="yellow" stroke-width="1" fill="none" />
<polyline points="121.0,396.0,121.5,397.0,125.0,393.5,120.0,403.0,132.0,404.5,129.0,401.5" stroke="black" stroke-width="1" fill="none" />
<polyline points="121.0,408.0,129.0,412.0,135.5,394.0,137.5,401.0,144.0,388.5,134.0,398.5,139.0,384.5,137.5,379.5,143.5,372.0,146.0,376.5,151.5,368.0,150.0,365.5,144.0,365.0,136.5,352.0,138.0,353.0,144.0,353.0,141.5,350.0,134.5,346.5,133.0,345.5,137.5,337.5,139.0,333.5,135.0,330.5,127.0,317.5,135.5,311.0,128.0,320.5,128.0,307.5,123.5,308.0,128.5,298.5,132.0,295.0,131.5,293.0,136.5,292.0,130.5,282.5,129.0,274.0,129.5,272.0" stroke="yellow" stroke-width="1" fill="none" />
<polyline points="124.0,268.5,130.0,274.0,132.5,281.0,130.5,289.5,124.5,286.5,129.5,294.5,123.5,296.5,125.5,293.0,127.0,304.5,119.5,306.0,120.5,311.5,117.0,314.0,120.0,321.0,123.0,320.5,122.5,328.5,117.0,333.0,121.0,332.0,121.0,332.5" stroke="black" stroke-width="1" fill="none" />
<polyline points="122.0,343.0" stroke="black" stroke-width="1" fill="none" />
<polyline points="117.5,346.0,118.5,343.0,127.0,360.5,121.5,369.5,117.5,367.0,117.0,365.5,119.0,368.0,114.5,376.5,118.5,385.0,116.0,384.0,118.0,389.0,119.5,398.5,120.5,399.0,124.0,400.5" stroke="green" stroke-width="1" fill="none" />
<polyline points="123.0,398.0,122.5,399.0,123.5,392.0,116.0,383.0,122.0,392.0,127.5,382.5,123.5,375.5,123.0,378.0,119.5,373.0,115.0,363.0,120.0,369.0" stroke="black" stroke-width="1" fill="none" />
<polyline points="125.5,374.0,121.5,383.5,127.0,379.5,126.0,384.0" stroke="yellow" stroke-width="1" fill="none" />
<polyline points="121.0,391.0,122.5,387.5,126.5,397.0,127.5,398.5" stroke="green" stroke-width="1" fill="none" />
<polyline points="129.5,392.5,124.5,389.5,128.5,395.5,144.0,390.0,133.5,393.0,142.5,392.5,141.0,392.5,142.0,395.5" stroke="yellow" stroke-width="1" fill="none" />
<polyline points="" stroke="yellow" stroke-width="1" fill="none" />
<polyline points="115.0,400.5,119.0,398.0,121.0,397.5,121.5,398.5,119.0,400.5" stroke="yellow" stroke-width="1" fill="none" />
<polyline points="120.0,419.0,120.5,409.5,125.5,408.0,127.0,404.5,129.0,414.0,127.0,419.5,133.5,421.0,139.0,423.0,131.0,433.5,136.5,434.0" stroke="green" stroke-width="1" fill="none" />
<polyline points="" stroke="green" stroke-width="1" fill="none" />
<polyline points="129.5,411.5" stroke="orange" stroke-width="1" fill="none" />
<polyline points="147.5,410.5" stroke="green" stroke-width="1" fill="none" />
<polyline points="146.0,403.0,144.5,406.0" stroke="orange" stroke-width="1" fill="none" />
<polyline points="" stroke="yellow" stroke-width="1" fill="none" />
<polyline points="155.0,396.0,149.5,390.0,151.5,392.5,150.5,389.5" stroke="orange" stroke-width="1" fill="none" />
<polyline points="172.0,405.5,170.5,399.0,172.0,409.0,176.0,409.5,178.0,413.0,171.0,412.5,173.5,412.5" stroke="green" stroke-width="1" fill="none" />
<polyline points="164.0,417.5,155.0,406.0,162.5,404.0,158.5,399.0,143.0,396.5,146.0,392.0,143.0,392.0,141.0,392.0,140.5,389.0,138.5,379.5,142.5,391.5,148.0,384.5,131.0,376.0,136.5,377.5,132.0,367.5,140.5,357.0,138.0,368.0,139.0,356.5,143.5,349.0,142.5,356.0,134.0,344.0,131.5,340.0,129.5,337.0,128.0,334.0,139.0,327.5,134.0,321.5" stroke="yellow" stroke-width="1" fill="none" />
<polyline points="118.5,326.0,125.5,330.5,124.5,336.0,118.5,344.0,121.0,345.5" stroke="black" stroke-width="1" fill="none" />
<polyline points="116.5,344.5,121.0,349.5,120.5,354.5,118.5,364.5,117.0,366.0,121.5,373.5,122.5,379.5,125.5,379.0,128.0,377.5,135.0,388.0,136.5,381.5,130.0,392.0" stroke="orange" stroke-width="1" fill="none" />
<polyline points="" stroke="orange" stroke-width="1" fill="none" />
<polyline points="" stroke="orange" stroke-width="1" fill="none" />
<polyline points="139.0,362.5,129.0,350.5" stroke="black" stroke-width="1" fill="none" />
<polyline points="131.5,353.5" stroke="yellow" stroke-width="1" fill="none" />
<polyline points="131.5,351.0,134.0,353.5,128.5,355.5,141.5,367.5,133.5,369.0,132.5,370.5,136.5,367.0" stroke="yellow" stroke-width="1" fill="none" />
<polyline points="143.0,362.0,143.0,357.5,142.5,355.0,143.0,349.0,144.5,346.5,135.0,345.0,138.0,340.0,135.0,326.5,135.5,338.0" stroke="orange" stroke-width="1" fill="none" />
<polyline points="143.0,347.5,137.0,345.5" stroke="green" stroke-width="1" fill="none" />
<polyline points="" stroke="black" stroke-width="1" fill="none" />
<polyline points="132.5,346.0,133.0,345.5,138.5,348.0,142.0,338.5" stroke="green" stroke-width="1" fill="none" />
<polyline points="133.0,340.5,131.5,338.0,134.0,340.5" stroke="black" stroke-width="1" fill="none" />
<polyline points="117.0,353.0,124.5,342.5,118.5,352.5,115.5,352.5,118.5,364.5,118.0,367.5,119.0,367.5,117.0,373.0,119.0,376.5,123.0,382.5,121.0,393.5,113.0,395.0,117.5,396.0,118.0,406.5,119.0,394.0,116.5,407.5,115.0,413.5,109.0,412.5,116.5,413.5,115.5,411.0" stroke="yellow" stroke-width="1" fill="none" />
<polyline points="120.0,412.0,118.0,410.5" stroke="green" stroke-width="1" fill="none" />
<polyline points="122.0,421.0,121.0,422.0,124.0,419.0" stroke="green" stroke-width="1" fill="none" />
<polyline points="131.5,424.0,130.5,424.0" stroke="yellow" stroke-width="1" fill="none" />
<polyline points="" stroke="green" stroke-width="1" fill="none" />
<polyline points="122.0,437.5,119.0,434.5,112.0,434.0,122.5,434.0,119.0,443.0,124.5,443.5,124.5,440.0,126.5,439.0" stroke="black" stroke-width="1" fill="none" />
<polyline points="118.5,442.0,118.5,441.5" stroke="green" stroke-width="1" fill="none" />
<polyline points="" stroke="orange" stroke-width="1" fill="none" />
<polyline points="127.5,450.0,127.5,449.5,125.5,449.5,128.0,454.5" stroke="yellow" stroke-width="1" fill="none" />
<polyline points="107.5,451.0,110.5,441.0,104.0,437.5" stroke="orange" stroke-width="1" fill="none" />
<polyline points="101.0,434.5" stroke="orange" stroke-width="1" fill="none" />
<polyline points="87.0,452.5,85.0,454.0,94.0,459.5,100.0,447.0,91.0,453.0,92.5,453.5" stroke="yellow" stroke-width="1" fill="none" />
<polyline points="81.5,458.5,85.5,460.0,93.0,451.5,94.0,452.5" stroke="green" stroke-width="1" fill="none" />
<polyline points="104.0,462.0,98.0,462.0,99.5,465.0" stroke="yellow" stroke-width="1" fill="none" />
<polyline points="102.0,494.0,103.5,499.5,105.0,505.5,104.5,508.5,108.0,514.5,107.5,511.0,106.0,510.5,101.5,510.5,106.5,505.0,108.5,505.0" stroke="orange" stroke-width="1" fill="none" />
<polyline points="113.5,509.5,107.0,498.0,107.5,489.0,109.5,488.0,110.5,487.0" stroke="green" stroke-width="1" fill="none" />
<polyline points="119.0,488.5,112.0,498.0,112.5,497.5,111.0,503.5,122.0,512.0,112.5,511.5,114.0,511.0" stroke="yellow" stroke-width="1" fill="none" />
<polyline points="98.5,503.0,99.0,504.0" stroke="yellow" stroke-width="1" fill="none" />
<polyline points="103.0,493.0,104.0,493.5,96.5,494.0,101.0,506.5,104.5,507.5,106.5,509.0,109.5,513.0,110.0,511.5" stroke="yellow" stroke-width="1" fill="none" />
<polyline points="117.0,501.5,119.5,506.5,122.0,503.0,122.5,492.0,118.5,494.0,124.0,487.5,123.0,476.5" stroke="orange" stroke-width="1" fill="none" />
<polyline points="125.5,484.5,129.5,490.5,126.5,488.0,126.5,493.5,130.0,497.0,127.5,505.0" stroke="yellow" stroke-width="1" fill="none" />
<polyline points="157.5,447.0,148.5,446.5,148.0,434.5,142.0,427.0,134.0,424.5,128.5,426.5,131.5,421.5" stroke="black" stroke-width="1" fill="none" />
<polyline points="134.0,424.0,138.0,426.0,128.5,423.5,138.5,430.0,142.5,434.5,142.5,441.5,147.5,447.5,146.0,451.5,140.5,452.0,134.5,458.5,134.0,456.5,131.5,473.5,134.0,457.5,138.5,458.5,138.5,459.5,136.0,461.5,134.5,463.5" stroke="green" stroke-width="1" fill="none" />
<polyline points="137.5,441.5,142.0,428.0,136.5,428.5,139.0,425.5" stroke="orange" stroke-width="1" fill="none" />
<polyline points="125.5,428.5,121.5,422.5,127.5,415.5,127.5,414.0,130.0,417.5" stroke="black" stroke-width="1" fill="none" />
<polyline points="108.5,418.0,115.5,434.5" stroke="yellow" stroke-width="1" fill="none" />
<polyline points="131.0,439.5" stroke="black" stroke-width="1" fill="none" />
<polyline points="105.0,413.5,102.0,412.5,109.5,424.5,106.0,428.0,109.5,434.5,110.0,433.0,110.0,438.5,103.0,445.0" stroke="black" stroke-width="1" fill="none" />
<polyline points="103.0,437.5,97.0,439.5,93.0,445.5,87.5,441.5,93.5,441.5,101.0,438.5,102.0,438.0,102.5,427.0,101.5,426.0,113.5,423.0,111.0,423.0" stroke="black" stroke-width="1" fill="none" />
<polyline points="82.0,421.0,90.5,425.5,90.5,425.0,95.5,430.0,93.0,427.5,95.5,426.5,93.5,427.0" stroke="black" stroke-width="1" fill="none" />
<polyline points="85.5,423.0,94.0,423.5,77.0,427.5,85.5,418.0,88.0,419.0,92.5,423.0" stroke="black" stroke-width="1" fill="none" />
<polyline points="98.5,406.0,101.0,405.5,102.0,408.5" stroke="black" stroke-width="1" fill="none" />
<polyline points="" stroke="black" stroke-width="1" fill="none" />
<polyline points="97.5,389.0,85.0,399.5,99.5,397.5,99.0,396.0,91.5,410.5" stroke="yellow" stroke-width="1" fill="none" />
<polyline points="98.0,406.0,96.0,410.5,93.5,410.0,97.5,404.0,94.5,404.0,94.5,404.5,91.5,405.5,97.0,395.5,92.0,392.5,89.0,380.0,80.5,384.5,86.0,390.0,86.0,387.0,85.5,386.0" stroke="orange" stroke-width="1" fill="none" />
<polyline points="85.5,393.0,73.0,401.5,71.5,407.5,70.5,402.5,76.5,406.5,68.5,420.0,68.5,418.5,69.5,415.0,69.5,421.0,65.5,423.0,69.0,426.5,76.0,427.5,71.5,436.0,71.0,432.0,67.0,442.5,67.0,445.5,71.0,446.5,72.5,448.0,71.0,452.5,69.0,458.0,73.0,459.5,82.0,459.5,73.0,472.0,62.5,478.5,67.5,482.5,63.0,479.5,64.0,488.0,70.0,494.5,64.0,497.0,69.0,501.5,64.5,502.0,64.5,503.0,66.0,510.5,55.5,514.0,65.0,506.0,61.0,507.0" stroke="black" stroke-width="1" fill="none" />
<polyline points="59.0,499.5,62.5,505.5,61.5,498.0" stroke="green" stroke-width="1" fill="none" />
<polyline points="71.0,486.0,72.5,484.5" stroke="green" stroke-width="1" fill="none" />
<polyline points="68.0,478.5,69.5,476.5,65.0,479.0,67.5,480.0,68.0,486.0,67.0,484.0,67.5,488.0,66.5,497.0,67.5,494.0" stroke="green" stroke-width="1" fill="none" />
<polyline points="67.0,465.5,65.5,468.0,74.0,457.0,79.5,458.5,82.0,451.0,80.5,447.5" stroke="orange" stroke-width="1" fill="none" />
<polyline points="77.0,472.0" stroke="orange" stroke-width="1" fill="none" />
<polyline points="71.0,450.0,73.0,451.5,72.0,453.5" stroke="yellow" stroke-width="1" fill="none" />
<polyline points="61.0,452.5,64.0,453.5,63.5,464.5,65.5,461.5,65.5,469.0,64.5,467.0,68.0,473.0,72.0,475.0,73.5,484.0" stroke="yellow" stroke-width="1" fill="none" />
<polyline points="33.0,487.0,30.5,491.5,30.5,501.5,30.0,503.5" stroke="black" stroke-width="1" fill="none" />
<polyline points="20.0,503.5,17.0,494.5,19.0,505.0,17.5,504.0,15.5,504.0,13.5,511.5,14.5,512.5" stroke="yellow" stroke-width="1" fill="none" />
<polyline points="17.0,498.5,15.0,500.0" stroke="orange" stroke-width="1" fill="none" />
<polyline points="" stroke="black" stroke-width="1" fill="none" />
<polyline points="14.0,419.5,8.0,425.0,12.5,423.0,2.5,431.5,9.0,430.5,8.5,439.0,11.5,444.0,10.0,445.5,14.5,442.0,10.0,446.5,17.5,453.5,12.0,456.0,13.0,463.0,11.0,459.0,21.0,473.0,16.5,470.0,13.0,481.0" stroke="orange" stroke-width="1" fill="none" />
<polyline points="43.5,469.5,33.0,464.0,32.0,453.5,27.5,459.5,28.0,456.5,30.0,441.5,34.0,440.0,34.0,439.5" stroke="green" stroke-width="1" fill="none" />
<polyline points="24.5,416.0,26.5,420.0,26.5,415.0,27.5,414.0,29.0,414.0" stroke="green" stroke-width="1" fill="none" />
<polyline points="27.0,415.0,25.5,413.0,26.5,421.0,24.5,420.0,23.5,427.5,22.0,426.0,24.0,437.5,32.0,441.0,22.0,441.5,26.0,446.5,29.5,448.0,28.5,451.5,21.5,453.5,28.5,460.5,29.5,459.5,26.5,469.0,29.5,475.5,33.0,475.5,26.0,474.5,30.0,484.5,25.0,490.0,28.5,495.0,37.5,495.0,32.0,494.5" stroke="orange" stroke-width="1" fill="none" />
<polyline points="58.5,433.0,65.5,432.5,69.0,437.5" stroke="orange" stroke-width="1" fill="none" />
<polyline points="70.5,424.5,70.5,426.0,68.0,426.5,69.0,422.5,67.0,414.0,68.5,416.0,62.0,406.5,67.0,400.5,76.5,396.0,73.0,395.5,77.0,395.5,67.5,402.0,74.0,396.5" stroke="green" stroke-width="1" fill="none" />
<polyline points="79.0,397.5" stroke="yellow" stroke-width="1" fill="none" />
<polyline points="" stroke="orange" stroke-width="1" fill="none" />
<polyline points="68.5,415.5,70.0,415.0,74.0,404.0,67.0,406.0,70.0,417.5,64.0,420.0,60.5,423.0,66.5,424.5" stroke="orange" stroke-width="1" fill="none" />
<polyline points="74.0,415.0,73.5,421.5,75.5,423.0,75.0,424.0" stroke="orange" stroke-width="1" fill="none" />
<polyline points="102.0,444.5,100.0,442.0,97.0,439.5,102.5,435.0,99.0,439.0,96.5,441.0" stroke="green" stroke-width="1" fill="none" />
<polyline points="" stroke="black" stroke-width="1" fill="none" />
<polyline points="104.0,401.5,112.0,409.0,107.5,408.5,99.0,414.5,93.0,415.5,94.5,417.0" stroke="black" stroke-width="1" fill="none" />
<polyline points="94.0,409.0,103.5,397.5,108.5,404.0,99.5,396.5,103.5,398.0" stroke="black" stroke-width="1" fill="none" />
<polyline points="97.5,369.0,103.5,372.0,108.5,377.0,103.0,366.0,103.5,364.5,101.5,357.5,109.5,359.5,109.5,356.0,108.0,360.5,109.5,352.0,104.5,340.5,109.0,334.5,104.0,336.5" stroke="yellow" stroke-width="1" fill="none" />
<polyline points="104.0,340.0,109.0,340.5,101.0,332.5,105.5,335.5,104.0,334.5" stroke="orange" stroke-width="1" fill="none" />
<polyline points="" stroke="green" stroke-width="1" fill="none" />
<polyline points="104.0,326.0,107.5,304.0,118.0,312.5,122.0,308.5,123.5,308.0,123.5,312.5,114.5,317.0,111.0,325.0,106.5,311.0,105.5,308.5,113.0,310.0,115.0,321.5,103.5,317.5,104.5,320.0,111.0,318.0,115.5,310.5,118.0,301.5,117.0,299.0,118.5,302.5,120.0,300.0" stroke="black" stroke-width="1" fill="none" />
<polyline points="116.0,306.0,121.0,313.0,121.5,313.0,118.5,320.0,114.0,323.0,119.0,321.0,107.5,329.0,108.5,334.5,98.0,340.0,90.5,337.5,99.0,344.5,91.5,339.0,100.0,344.5" stroke="black" stroke-width="1" fill="none" />
<polyline points="" stroke="green" stroke-width="1" fill="none" />
<polyline points="98.0,368.0,95.0,362.5,93.5,366.0,92.0,374.5,97.0,376.5,94.0,385.0,90.5,391.5,87.0,392.5,91.5,391.5,87.5,388.5,89.0,400.0,92.5,404.0,90.0,409.5,92.5,413.5,89.5,413.5,104.0,407.5,108.5,419.0,107.5,406.0,116.5,401.5" stroke="green" stroke-width="1" fill="none" />
<polyline points="121.0,363.5,123.0,363.0" stroke="orange" stroke-width="1" fill="none" />
<polyline points="122.0,370.5,123.0,371.0,131.0,384.5,130.0,385.0,130.0,383.5,126.0,387.0,134.5,393.0,132.0,397.0,132.5,394.0" stroke="yellow" stroke-width="1" fill="none" />
<polyline points="120.5,370.0,117.0,360.5,119.5,359.0" stroke="green" stroke-width="1" fill="none" />
<polyline points="126.0,372.5,118.5,374.0,126.5,376.5,129.5,379.0,129.0,377.5" stroke="orange" stroke-width="1" fill="none" />
<polyline points="126.0,364.5,127.5,363.5,124.5,361.0" stroke="orange" stroke-width="1" fill="none" />
<polyline points="123.5,366.0,130.0,359.0,133.5,371.5,135.0,368.5" stroke="black" stroke-width="1" fill="none" />
<polyline points="172.0,362.5,176.0,356.5,180.5,354.0,178.0,344.5,181.0,339.0" stroke="green" stroke-width="1" fill="none" />
<polyline points="182.0,329.5,186.5,333.0,177.0,339.5,169.0,340.0,163.5,347.0,168.0,353.0,161.0,357.0,159.5,368.0,161.0,366.0,164.0,367.0,167.0,356.5,176.5,355.5,176.5,349.5,173.5,346.5,180.0,335.5,189.0,338.5,189.0,328.5,187.0,334.5,192.0,327.0,189.0,331.0,191.5,332.0" stroke="black" stroke-width="1" fill="none" />
<polyline points="194.0,339.0,188.0,344.0,188.0,343.0,183.5,345.5" stroke="yellow" stroke-width="1" fill="none" />
<polyline points="195.5,356.5,196.0,346.5,192.0,351.0,192.5,343.5,193.0,345.0" stroke="orange" stroke-width="1" fill="none" />
<polyline points="165.5,358.0,166.0,366.5,165.5,357.5,169.0,361.0,170.0,363.0" stroke="black" stroke-width="1" fill="none" />
<polyline points="159.5,366.0,164.5,367.0,163.0,359.5,165.0,362.0,157.0,369.5,156.0,367.0,163.0,362.5,167.0,350.5,168.0,355.5,172.5,344.0,176.0,342.5,179.5,339.0,179.0,337.5,183.5,332.5,176.0,330.5,166.5,326.0,170.0,336.0,164.0,343.5,163.0,340.0,159.5,332.0,168.0,334.5,168.5,331.0" stroke="black" stroke-width="1" fill="none" />
<polyline points="163.0,337.0,166.0,331.0,164.0,337.0,164.5,330.0,170.0,327.5,169.0,326.0,167.0,318.0" stroke="yellow" stroke-width="1" fill="none" />
<polyline points="" stroke="orange" stroke-width="1" fill="none" />
<polyline points="166.5,318.5,169.0,331.0,166.5,317.5,166.5,323.5,157.5,328.0,151.0,340.5,151.5,343.0,154.5,337.5,140.0,348.0,141.5,336.0,142.5,335.5,135.5,340.0,130.0,331.0,138.0,325.0,134.5,320.5,134.5,315.5,127.5,307.0,130.0,314.5,130.0,305.5,129.0,306.0,132.5,302.0,129.0,297.5,140.0,291.0,141.0,297.5,138.5,283.5,136.0,279.5,133.0,277.0,134.5,285.5,139.5,285.0,138.0,278.5,144.5,277.5,142.5,272.5,139.5,272.5,152.5,264.5,158.0,250.5,159.0,254.5,163.5,250.0,160.5,244.0,161.0,242.0,151.5,250.5,151.5,248.5" stroke="green" stroke-width="1" fill="none" />
<polyline points="149.0,250.0" stroke="green" stroke-width="1" fill="none" />
<polyline points="140.0,251.5,144.5,249.0,145.5,252.0,144.5,249.0,154.0,255.0,148.0,260.0" stroke="yellow" stroke-width="1" fill="none" />
<polyline points="144.0,265.5,138.5,270.5,134.5,276.5,135.0,273.0,135.5,277.0,131.5,275.0" stroke="black" stroke-width="1" fill="none" />
<polyline points="153.5,267.0,155.5,259.0,159.5,256.0,157.5,263.0,156.5,263.0,147.5,268.0,150.5,273.5,144.5,275.5,147.0,275.0,142.5,289.0,150.5,288.5,155.5,286.5,159.0,286.0,163.5,291.0,162.5,301.5,159.0,305.5,158.0,304.5,163.5,309.5,165.0,317.5,156.5,316.5,155.0,318.5,163.0,317.5,165.5,317.5,169.0,315.5,166.0,311.0,172.5,305.0,171.5,294.0,185.5,289.5,182.5,293.0" stroke="yellow" stroke-width="1" fill="none" />
<polyline points="178.5,298.5,181.5,296.5,178.0,297.0" stroke="orange" stroke-width="1" fill="none" />
<polyline points="" stroke="green" stroke-width="1" fill="none" />
<polyline points="179.0,300.0,171.0,306.0,176.0,302.5,180.5,305.0,176.0,309.5,179.5,313.0" stroke="black" stroke-width="1" fill="none" />
<polyline points="176.0,311.5,172.5,310.0,172.0,310.5" stroke="green" stroke-width="1" fill="none" />
<polyline points="165.0,305.5,167.0,299.0,172.0,298.0,176.0,294.5,169.5,287.0,167.0,285.5,173.5,296.5,164.5,302.5,164.5,286.5,169.0,285.5,179.0,285.5,174.5,280.0,175.5,284.0,164.5,279.5,167.0,285.0,164.5,291.0,165.5,287.0,171.5,295.5,160.5,273.0,168.5,280.0,163.5,273.5,166.5,271.5,164.5,263.0,171.0,266.0,172.5,261.5,169.0,260.5,173.0,257.0,175.0,245.0,176.0,246.5,170.5,237.0,172.0,238.0,178.0,232.5,177.5,238.5,175.5,239.5" stroke="orange" stroke-width="1" fill="none" />
<polyline points="182.5,227.0,184.5,235.5,178.0,245.0,179.5,241.0,182.0,242.5,176.0,249.5,175.5,249.0,183.5,259.5,186.5,255.0" stroke="black" stroke-width="1" fill="none" />
<polyline points="186.0,248.5,193.5,252.5,188.0,251.0,187.0,254.0" stroke="yellow" stroke-width="1" fill="none" />
<polyline points="223.5,274.0,229.5,270.5,223.0,276.5,232.5,274.0,235.5,270.5" stroke="yellow" stroke-width="1" fill="none" />
<polyline points="213.5,321.0,221.0,323.0,214.0,330.5,216.0,326.0,217.5,330.5,215.5,334.5,225.5,343.5,214.5,350.5,220.0,344.5,216.5,359.0" stroke="black" stroke-width="1" fill="none" />
<polyline points="246.5,381.0,253.5,381.5,253.5,384.5,252.5,376.5,253.5,388.0,262.5,378.5,267.0,387.0,266.0,382.5" stroke="green" stroke-width="1" fill="none" />
<polyline points="262.5,387.5,262.0,384.5,251.5,390.5,256.5,398.0,256.0,394.0,244.5,395.0,243.0,393.5,247.5,393.0,241.5,393.0" stroke="orange" stroke-width="1" fill="none" />
<polyline points="272.5,348.5,272.5,351.0" stroke="black" stroke-width="1" fill="none" />
<polyline points="278.5,352.5,276.0,349.0,279.5,346.5,279.0,347.0,278.0,349.5" stroke="yellow" stroke-width="1" fill="none" />
<polyline points="222.0,366.5,219.0,361.0,216.5,356.0,217.0,346.5,221.5,352.5,220.0,344.5,224.5,334.5,221.5,334.0,220.5,327.0,222.5,326.5,218.0,315.0,218.0,312.5,222.0,315.5,214.5,307.0,221.0,304.5,216.5,312.5,223.0,312.0" stroke="green" stroke-width="1" fill="none" />
<polyline points="175.5,292.5,175.5,292.5,173.5,292.0" stroke="orange" stroke-width="1" fill="none" />
<polyline points="176.0,300.0,179.5,305.0,175.5,306.5" stroke="green" stroke-width="1" fill="none" />
<polyline points="160.5,313.5,161.5,311.0,158.0,309.0,154.0,308.0,154.0,310.5,155.0,313.0" stroke="yellow" stroke-width="1" fill="none" />
<polyline points="162.0,317.5,166.0,310.0" stroke="orange" stroke-width="1" fill="none" />
<polyline points="162.0,315.5,161.5,314.0,155.5,316.5" stroke="black" stroke-width="1" fill="none" />
<polyline points="156.0,295.5" stroke="black" stroke-width="1" fill="none" />
<polyline points="" stroke="orange" stroke-width="1" fill="none" />
<polyline points="162.5,293.0,161.0,292.5,149.0,288.0" stroke="green" stroke-width="1" fill="none" />
<polyline points="152.0,284.5,150.5,285.0" stroke="yellow" stroke-width="1" fill="none" />
<polyline points="170.5,298.5,175.5,292.5,174.0,293.0,173.5,295.5" stroke="yellow" stroke-width="1" fill="none" />
<polyline points="181.0,298.5,175.0,300.5,173.5,310.0,168.5,309.5,167.5,306.5" stroke="green" stroke-width="1" fill="none" />
<polyline points="153.5,290.5,153.5,292.5,154.5,289.5,155.0,286.0" stroke="black" stroke-width="1" fill="none" />
<polyline points="159.0,291.0,161.5,296.5,167.5,297.5,174.0,294.0" stroke="black" stroke-width="1" fill="none" />
<polyline points="172.5,282.0,176.5,297.5,170.5,299.0,172.5,304.0,165.0,311.5,167.0,313.0,167.5,311.5,162.0,316.5,169.5,314.0,169.0,316.5,165.5,331.5,162.5,334.0,153.0,334.0,158.5,339.0,160.0,335.0,154.0,351.5,145.5,351.5,154.5,357.0,149.5,354.0,146.5,348.0,145.5,348.5,154.0,351.5,158.5,358.5,164.5,344.5,161.0,340.0,159.5,346.5" stroke="yellow" stroke-width="1" fill="none" />
<polyline points="" stroke="black" stroke-width="1" fill="none" />
<polyline points="160.5,290.5,160.0,286.0,161.5,279.0,167.5,278.0,167.0,276.5,161.5,266.5,153.5,265.5,161.5,261.0,155.5,256.0" stroke="orange" stroke-width="1" fill="none" />
<polyline points="165.5,263.5,171.0,259.0,170.5,268.0,167.0,275.5,168.0,282.5,167.0,275.5" stroke="black" stroke-width="1" fill="none" />
<polyline points="" stroke="yellow" stroke-width="1" fill="none" />
<polyline points="148.0,277.5,153.5,282.5,151.5,271.0,159.0,278.5,157.5,279.0,158.0,287.0,165.5,277.0,170.0,285.0,166.0,285.0,179.5,280.5,174.0,290.0,178.0,279.0" stroke="green" stroke-width="1" fill="none" />
<polyline points="170.0,291.5,172.0,294.0,164.5,295.0,170.0,289.5,166.0,288.0,167.0,289.5" stroke="green" stroke-width="1" fill="none" />
<polyline points="164.0,288.5,168.5,283.5,158.0,295.0,163.5,288.0,164.5,289.0,161.5,289.5,161.0,288.0" stroke="orange" stroke-width="1" fill="none" />
<polyline points="156.5,290.5,149.0,294.0,155.0,289.5,153.5,274.5,154.0,275.0,151.5,270.5,153.0,268.5,158.5,262.5,167.0,268.0,168.0,250.5,168.5,258.0,167.0,249.0,163.5,247.5,165.5,244.5,164.0,237.0,164.5,248.5,158.0,255.5,154.0,252.5,147.0,254.5,144.5,261.0,149.5,254.0,142.0,269.0,135.0,259.0,137.0,265.0,128.5,256.0,134.0,269.0,133.0,274.5,137.5,259.0,132.0,251.5,141.0,252.0,130.5,255.0,134.0,245.5,143.5,243.5,134.0,245.0,139.0,240.0,142.0,226.5,135.5,231.5,137.0,224.5,136.5,229.5,133.0,219.5,136.5,216.0,126.5,213.0,128.0,198.0,119.5,200.0,126.5,203.5,119.5,197.0,123.5,190.5,122.0,176.5,119.0,181.0,119.0,181.0,120.5,172.5,118.0,162.5,123.5,159.0,121.0,163.0,117.0,147.0,118.5,146.5,119.5,144.0,122.5,140.5,124.5,136.5,122.0,134.0,124.0,133.5,129.0,125.5,131.0,125.0,129.5,115.5,132.5,118.5,133.0,105.0,139.5,112.5,134.0,98.0,138.5,104.0,136.0,104.0,141.5,97.0,142.5,96.5,138.0,107.0" stroke="green" stroke-width="1" fill="none" />
<polyline points="133.0,109.0,134.5,105.5,137.5,111.0,139.5,109.0,138.0,119.0,132.0,126.5,126.5,122.0,133.5,133.5,133.0,134.5,127.5,136.5,138.5,140.0,137.0,150.0,134.5,147.5,128.0,146.0,127.5,150.0,129.5,149.0,130.5,154.0,125.5,157.5" stroke="orange" stroke-width="1" fill="none" />
<polyline points="125.5,150.5,136.0,152.0,133.5,155.0,130.0,157.0,127.5,162.5,129.5,164.5,124.5,172.5,129.0,160.5,125.5,160.5,130.0,166.0,128.5,168.5,131.5,173.0" stroke="black" stroke-width="1" fill="none" />
<polyline points="140.5,182.5,124.5,178.0,134.0,177.5,139.5,174.0,137.5,174.5" stroke="black" stroke-width="1" fill="none" />
<polyline points="132.5,173.5,136.5,175.0,133.0,177.0,145.5,174.5,131.5,170.5,137.0,168.5,133.0,171.0,136.0,174.5" stroke="black" stroke-width="1" fill="none" />
<polyline points="138.5,177.0,142.5,175.5,136.0,178.0" stroke="orange" stroke-width="1" fill="none" />
<polyline points="139.0,185.5,134.0,175.5,140.0,180.5,138.5,175.0,142.0,172.5" stroke="black" stroke-width="1" fill="none" />
<polyline points="140.5,180.5,147.5,178.0,141.0,192.5,133.0,186.5,144.5,200.5,138.0,193.0,140.5,195.5,145.5,193.5,146.0,197.0,145.5,202.0" stroke="orange" stroke-width="1" fill="none" />
<polyline points="152.5,198.5,151.0,196.5" stroke="green" stroke-width="1" fill="none" />
<polyline points="153.0,194.0,152.0,187.0,147.0,190.5" stroke="green" stroke-width="1" fill="none" />
<polyline points="" stroke="green" stroke-width="1" fill="none" />
<polyline points="151.0,200.5,152.0,195.0,147.5,192.5,148.5,191.5,145.5,185.0,140.5,191.0,149.5,176.5,146.5,180.0,144.5,182.0" stroke="yellow" stroke-width="1" fill="none" />
<polyline points="137.5,175.5,147.0,184.0,149.5,192.5,150.5,184.5,146.0,192.0,137.5,183.5" stroke="orange" stroke-width="1" fill="none" />
<polyline points="151.0,188.5,149.0,187.0" stroke="yellow" stroke-width="1" fill="none" />
<polyline points="153.0,194.5,160.5,176.0,160.5,177.5,171.5,180.0,176.0,171.0,171.0,163.0,178.0,166.5,181.0,160.5,188.5,159.5,187.0,154.0,194.5,152.5,200.5,150.0,200.5,148.5" stroke="orange" stroke-width="1" fill="none" />
<polyline points="205.0,150.5,213.5,155.5" stroke="yellow" stroke-width="1" fill="none" />
<polyline points="219.5,155.0,231.0,154.5,223.5,155.5,218.5,155.5,217.5,158.0" stroke="yellow" stroke-width="1" fill="none" />
<polyline points="221.0,149.0,216.0,147.0,222.5,154.5,221.5,158.0" stroke="yellow" stroke-width="1" fill="none" />
<polyline points="221.5,174.5,228.0,166.0,221.5,171.5,215.5,187.5,216.0,190.5,211.5,190.5,208.0,188.5,207.0,194.5,201.0,191.5" stroke="green" stroke-width="1" fill="none" />
<polyline points="215.5,187.5,215.5,186.5,211.0,189.5,222.0,177.0,222.0,175.5,226.5,180.0,232.0,175.5,233.0,172.0,241.0,170.0,244.0,172.5,239.5,174.0,235.0,177.0,237.0,179.5,233.5,175.5,232.5,174.5" stroke="green" stroke-width="1" fill="none" />
<polyline points="233.5,184.0,229.5,183.0,234.0,184.5,224.5,187.5,221.5,193.0,218.5,195.0,217.5,203.5,205.5,208.0,202.5,210.0,201.5,214.5,203.0,215.5,200.5,222.0,202.0,227.0,210.0,227.0,207.0,232.0,210.5,226.5,209.5,227.0" stroke="orange" stroke-width="1" fill="none" />
<polyline points="207.5,205.5,213.0,208.5,212.5,197.0,217.0,193.0,218.5,197.0,231.0,190.5,229.0,182.5,232.5,185.0" stroke="black" stroke-width="1" fill="none" />
<polyline points="222.5,192.5,211.5,200.0,216.5,201.5,211.5,201.0,210.5,206.5,204.5,209.5,209.0,199.0,213.0,198.5,218.5,199.0,223.5,196.5,225.0,199.0,230.0,190.5,228.5,193.0,227.5,195.0" stroke="black" stroke-width="1" fill="none" />
<polyline points="218.5,189.5,217.5,194.5,217.0,193.0,226.0,196.5,221.0,195.0" stroke="black" stroke-width="1" fill="none" />
<polyline points="215.0,177.5,220.5,184.5" stroke="black" stroke-width="1" fill="none" />
<polyline points="227.5,177.5,225.5,180.5,223.0,184.5,223.5,195.0,218.5,196.0,208.5,196.0" stroke="orange" stroke-width="1" fill="none" />
<polyline points="208.5,201.0" stroke="black" stroke-width="1" fill="none" />
<polyline points="" stroke="green" stroke-width="1" fill="none" />
<polyline points="204.5,201.5,201.0,204.5,190.0,203.5,194.0,200.0,184.0,200.5,191.0,206.0,188.5,200.0,179.5,211.0,183.0,206.5,185.5,200.0,189.0,194.5" stroke="yellow" stroke-width="1" fill="none" />
<polyline points="188.0,202.5,195.0,209.0" stroke="green" stroke-width="1" fill="none" />
<polyline points="190.5,204.5,193.5,211.5,196.5,209.5,189.5,219.0,185.0,218.5,186.5,226.5,189.5,217.0,190.0,212.5,188.0,210.0" stroke="orange" stroke-width="1" fill="none" />
<polyline points="" stroke="black" stroke-width="1" fill="none" />
<polyline points="180.0,215.5,176.0,214.0,186.5,213.5,182.5,217.0" stroke="yellow" stroke-width="1" fill="none" />
<polyline points="170.5,215.0,167.5,218.0,174.5,212.5" stroke="yellow" stroke-width="1" fill="none" />
<polyline points="170.5,221.5,164.0,225.0,172.0,230.0" stroke="yellow" stroke-width="1" fill="none" />
<polyline points="185.5,225.5,179.0,234.5,170.5,230.0,161.0,235.5,177.5,235.5,171.5,236.5,168.0,233.0" stroke="green" stroke-width="1" fill="none" />
<polyline points="173.5,242.0,165.5,249.5,168.5,249.0,166.5,250.5" stroke="green" stroke-width="1" fill="none" />
<polyline points="161.5,259.0,153.5,262.5,154.0,260.0,150.0,271.0,132.0,262.5,133.0,272.5,131.5,277.0,130.5,271.5,123.0,274.0,116.0,269.5,113.0,260.5,121.0,261.0,114.0,264.5,117.5,260.0" stroke="yellow" stroke-width="1" fill="none" />
<polyline points="110.0,264.5,116.0,269.5,113.0,262.0" stroke="yellow" stroke-width="1" fill="none" />
<polyline points="113.5,272.0,114.5,269.0,116.5,278.5,121.5,278.0,103.0,286.5,106.5,286.0,107.5,301.5,104.5,298.5,97.5,301.5,88.5,309.0,91.5,312.5,90.5,311.0,83.0,324.0,82.0,325.5,88.0,337.0,86.5,338.0,90.0,340.5,80.5,344.5,87.0,353.0,86.0,347.5,76.5,354.5,73.0,356.0,72.5,358.0,64.5,358.0,71.0,359.5,68.0,357.5,74.0,349.0,75.5,343.5,85.5,332.0,85.5,333.5,95.5,327.0,95.0,328.5" stroke="black" stroke-width="1" fill="none" />
<polyline points="92.0,325.0,94.0,324.5,100.0,328.5,96.5,320.5,91.5,332.5,86.0,330.5,89.0,340.0,83.0,338.0,80.5,344.0,79.5,346.0,72.0,349.5,68.5,360.0,61.0,362.0,59.0,362.5,60.5,366.0,70.0,365.5,67.5,357.5,71.0,344.0,79.5,347.5,85.0,339.5,88.5,335.0,86.0,345.5,95.0,343.0,89.0,348.0,87.0,352.5,87.0,357.0,80.0,357.0,84.0,370.0,80.5,366.0,80.0,370.0,89.5,372.0,83.0,372.5,88.0,354.0,93.0,355.5,98.0,345.0" stroke="orange" stroke-width="1" fill="none" />
<polyline points="105.0,349.0,98.0,356.0,103.5,359.5,103.0,365.5,100.0,365.0,97.0,374.0,103.0,376.0,102.0,379.0,103.0,374.5,101.5,377.0" stroke="green" stroke-width="1" fill="none" />
<polyline points="110.5,366.0,108.0,366.5,113.0,363.5,104.0,361.5,104.0,359.0,103.0,358.5" stroke="yellow" stroke-width="1" fill="none" />
<polyline points="108.5,365.5,112.5,363.5,105.5,362.0,112.5,366.0,113.0,366.5" stroke="green" stroke-width="1" fill="none" />
<polyline points="107.5,357.0,116.5,359.5" stroke="orange" stroke-width="1" fill="none" />
<polyline points="123.0,354.5,125.0,359.5,128.0,363.0,135.0,354.5,133.0,365.5" stroke="green" stroke-width="1" fill="none" />
<polyline points="83.5,364.5,81.0,367.0" stroke="yellow" stroke-width="1" fill="none" />
<polyline points="74.0,370.0,82.5,359.0,85.5,351.0,84.5,347.0,89.5,351.5,78.5,360.0,76.0,358.0,72.5,365.0,73.5,364.0,77.0,376.5,79.0,374.0,78.5,371.0,79.0,368.5" stroke="green" stroke-width="1" fill="none" />
<polyline points="82.5,383.5,79.0,381.5,75.5,390.5,70.0,393.0,61.5,389.5,59.5,397.0,52.5,397.5,60.5,407.5,62.0,393.5,75.5,390.5,80.5,383.0,73.0,382.0,79.5,387.0,69.5,380.5,62.5,392.5,67.0,395.5,65.0,394.5,55.0,406.0,67.0,400.5,68.0,395.5,69.5,387.0,81.0,383.5,81.5,383.0,83.0,370.5,92.5,373.5,85.5,364.5,82.0,361.5,91.0,352.0,91.5,362.0,92.0,346.0,91.5,351.0,99.0,352.5,93.5,344.0,96.5,348.0,101.0,344.5,89.5,357.0,96.0,344.0,95.5,337.5,100.5,341.5,99.0,331.0,95.5,326.5,99.0,327.5,95.5,317.5,97.0,318.0,97.5,310.0,99.0,309.0,101.5,303.5,103.5,295.5,108.0,308.5,94.5,315.5,100.5,321.5,96.0,316.5,96.5,315.5" stroke="green" stroke-width="1" fill="none" />
<polyline points="86.0,312.0,89.5,313.5,90.0,314.5,86.0,303.5,95.5,307.0,99.0,302.5,115.5,291.0,107.0,294.5,110.5,287.0,113.5,287.0" stroke="orange" stroke-width="1" fill="none" />
<polyline points="90.5,302.0,94.5,307.5,90.0,300.5,84.5,301.0" stroke="black" stroke-width="1" fill="none" />
<polyline points="107.0,302.0,103.5,299.0,90.5,294.5,94.5,298.5,84.0,299.5,80.0,294.5,92.5,296.0,92.5,293.5" stroke="black" stroke-width="1" fill="none" />
<polyline points="75.0,298.0,88.5,294.0,86.0,293.0,93.5,292.5,100.0,299.0,90.5,290.0,102.0,291.5,102.5,290.5,101.5,292.5" stroke="orange" stroke-width="1" fill="none" />
<polyline points="104.0,280.0,104.0,278.5,105.5,274.5,114.5,273.0,114.0,274.0" stroke="black" stroke-width="1" fill="none" />
<polyline points="113.0,264.0,110.0,264.0,109.0,268.0,113.0,276.0,111.5,277.5,101.0,274.0,95.0,282.0,99.5,286.0,100.0,279.0,109.0,278.0,105.0,277.0,116.5,293.0,115.5,282.5,125.5,290.5,122.0,289.5" stroke="green" stroke-width="1" fill="none" />
<polyline points="119.0,280.5,112.5,284.0,102.5,285.5,100.5,289.5,97.0,285.0,99.5,291.0,88.5,290.5,90.0,292.5,94.0,292.5" stroke="black" stroke-width="1" fill="none" />
<polyline points="87.5,273.5,96.5,277.0,97.0,266.5,98.0,263.0,114.0,262.5,99.0,267.0,96.5,272.0,97.5,280.5,87.0,286.0,93.0,280.5,95.5,274.0,104.0,279.0,99.0,280.5,107.0,278.5,109.5,279.0,108.5,286.5,117.0,270.5,118.0,279.0,132.0,270.0" stroke="yellow" stroke-width="1" fill="none" />
<polyline points="128.0,266.0,125.0,267.5,131.5,268.0,124.5,272.0,116.0,276.0,99.5,289.5,96.0,290.0,95.5,301.0,95.5,296.0,86.5,311.5,77.0,310.0,89.0,307.0,83.0,316.0,69.5,320.0,80.0,315.0,80.5,311.5,78.0,309.5" stroke="black" stroke-width="1" fill="none" />
<polyline points="106.5,313.5" stroke="yellow" stroke-width="1" fill="none" />
<polyline points="130.0,301.5,125.5,312.0,119.0,306.0,118.5,310.5,115.0,308.0,116.5,325.0,109.0,314.0,98.5,326.5,103.0,323.5" stroke="orange" stroke-width="1" fill="none" />
<polyline points="75.5,321.0,72.0,321.0,65.5,323.0,67.0,321.0,79.0,325.5,76.0,313.0,71.5,307.5,77.5,306.0,80.5,308.0,78.0,307.5" stroke="green" stroke-width="1" fill="none" />
<polyline points="" stroke="yellow" stroke-width="1" fill="none" />
<polyline points="78.0,308.0,76.0,310.5,78.5,310.5,87.5,306.5,92.5,304.0,93.5,301.5" stroke="black" stroke-width="1" fill="none" />
<polyline points="96.5,315.0,97.5,325.0,102.5,313.5,104.5,317.0,100.5,306.5,107.0,302.0,100.0,308.0" stroke="orange" stroke-width="1" fill="none" />
<polyline points="106.5,289.0,106.5,287.5,108.5,293.5,97.0,288.5,104.0,285.0,102.5,286.5,104.0,291.5,106.5,290.0,107.5,288.5" stroke="green" stroke-width="1" fill="none" />
<polyline points="107.5,288.0,102.5,290.5,101.5,290.0,107.5,289.0,108.5,288.0" stroke="black" stroke-width="1" fill="none" />
<polyline points="83.5,276.5,85.5,275.5,88.5,275.5,89.0,272.5,86.0,274.0" stroke="black" stroke-width="1" fill="none" />
<polyline points="116.0,294.0,118.5,293.5,113.0,294.5,108.0,304.5,103.0,306.0,101.0,309.0,99.0,318.5,95.5,319.0,104.5,326.0,102.5,331.0,102.0,329.5,94.5,338.5,92.0,344.5,100.5,340.5,102.0,334.5,105.0,331.5,109.0,332.0,115.5,316.0,123.5,304.0,115.5,296.0,124.5,299.0,123.0,301.0,132.5,313.0,134.0,313.5" stroke="yellow" stroke-width="1" fill="none" />
<polyline points="124.0,317.5,136.0,320.0,130.0,324.0,128.5,332.0,133.5,335.0" stroke="yellow" stroke-width="1" fill="none" />
<polyline points="119.0,307.0,126.5,313.5,120.5,320.0,125.0,331.0,109.0,328.5,110.5,339.5,107.5,347.0,103.0,337.5,101.0,343.5,96.0,343.5,96.0,350.0,98.0,351.5,89.5,357.0,96.0,359.5,95.0,364.5,91.5,367.0,91.0,367.5,91.0,379.0,93.5,386.0" stroke="yellow" stroke-width="1" fill="none" />
<polyline points="84.0,389.5,79.5,394.0,80.5,405.0,81.0,404.5,71.5,412.5,66.5,405.0" stroke="orange" stroke-width="1" fill="none" />
<polyline points="" stroke="orange" stroke-width="1" fill="none" />
<polyline points="123.0,284.5,123.0,291.0,124.0,293.5,125.5,296.0,113.0,305.5,108.5,307.0,103.0,316.0,113.0,304.0,102.0,295.0,112.5,299.0,119.0,299.5,122.5,294.5" stroke="green" stroke-width="1" fill="none" />
<polyline points="" stroke="green" stroke-width="1" fill="none" />
<polyline points="" stroke="black" stroke-width="1" fill="none" />
<polyline points="137.5,237.5,141.0,240.0,139.5,243.5,137.0,242.5,148.0,241.5" stroke="black" stroke-width="1" fill="none" />
<polyline points="143.0,247.0,148.5,244.0,143.5,240.5,136.5,244.5,138.0,248.0,137.5,246.5,140.5,244.5" stroke="green" stroke-width="1" fill="none" />
<polyline points="142.5,234.0,134.0,222.0,138.5,226.5,132.5,223.5,142.5,223.5" stroke="green" stroke-width="1" fill="none" />
<polyline points="148.0,209.5" stroke="green" stroke-width="1" fill="none" />
<polyline points="154.5,214.5,153.0,212.5,151.0,209.5" stroke="orange" stroke-width="1" fill="none" />
<polyline points="139.0,192.5,138.5,192.5,136.0,186.0,140.5,191.5,142.0,182.0,147.5,177.5,141.5,175.0,139.0,182.5" stroke="green" stroke-width="1" fill="none" />
<polyline points="138.5,183.5,137.5,186.0" stroke="black" stroke-width="1" fill="none" />
<polyline points="149.0,179.5,143.5,183.0,156.5,180.5,148.5,186.5,141.0,187.0,135.5,187.0,137.0,188.0" stroke="green" stroke-width="1" fill="none" />
<polyline points="" stroke="orange" stroke-width="1" fill="none" />
<polyline points="146.5,196.0,158.0,197.0,146.0,211.5,147.5,215.0,144.0,210.5" stroke="orange" stroke-width="1" fill="none" />
<polyline points="128.0,207.0,125.0,195.0,121.5,195.5" stroke="yellow" stroke-width="1" fill="none" />
<polyline points="112.5,222.5,113.5,222.5,108.5,231.5,111.0,231.0,117.0,231.0,111.0,229.5,112.0,230.0" stroke="yellow" stroke-width="1" fill="none" />
<polyline points="114.5,230.5,121.0,222.5,117.0,223.5" stroke="green" stroke-width="1" fill="none" />
<polyline points="128.5,251.0,121.5,257.0,116.5,258.0,110.5,263.0,115.0,258.0,119.5,257.0,118.5,252.5,126.5,253.5,130.5,241.0,140.0,238.0,143.5,234.5,148.5,235.0,157.0,229.5,155.0,227.5" stroke="yellow" stroke-width="1" fill="none" />
<polyline points="154.5,234.5,139.0,234.0,140.5,243.0,141.5,245.5,137.0,252.5,132.5,259.5,134.0,273.5,140.5,268.0,138.5,266.5,125.0,274.0,131.0,272.0,137.0,275.0,132.0,274.5,148.0,276.0" stroke="orange" stroke-width="1" fill="none" />
<polyline points="150.5,255.0,158.0,257.0,155.5,252.0,159.0,251.0,156.5,248.0,159.0,248.0,161.0,250.0,157.0,247.5" stroke="yellow" stroke-width="1" fill="none" />
<polyline points="162.5,232.0,159.0,238.5,163.0,235.5,167.0,236.5,167.5,224.0" stroke="black" stroke-width="1" fill="none" />
<polyline points="165.5,226.0,167.5,225.0,168.0,224.0" stroke="black" stroke-width="1" fill="none" />
<polyline points="169.0,237.5,168.0,231.0,166.0,232.5,160.0,244.5,163.5,248.0,153.0,247.5,145.5,251.0,152.0,253.0,152.5,260.0,150.5,260.5,142.0,266.0,136.0,265.0,133.0,272.0,132.0,280.0,126.0,280.5,131.0,290.0,127.0,295.0,128.5,302.0,125.5,304.5,121.5,319.5,122.5,310.0,119.5,323.5,114.0,325.5,119.0,332.0,121.0,330.5,119.0,335.5,125.5,338.0,114.5,338.0,125.0,342.5,133.5,347.0,134.0,350.0,131.5,361.0,136.5,358.0,134.0,357.0,139.0,368.5,136.0,369.5,144.0,365.5,140.0,378.0,146.5,374.5,142.0,392.5,138.5,388.5,146.5,401.5,146.5,390.5,145.5,397.0,145.0,402.0,149.5,408.5,143.5,407.5,151.5,411.0,146.5,416.5,155.0,415.0,164.0,417.5,156.5,423.0" stroke="yellow" stroke-width="1" fill="none" />
<polyline points="169.5,421.0,162.0,413.5,162.0,410.5,164.0,414.5" stroke="orange" stroke-width="1" fill="none" />
<polyline points="" stroke="green" stroke-width="1" fill="none" />
<polyline points="" stroke="yellow" stroke-width="1" fill="none" />
<polyline points="200.0,413.5,201.5,413.0,196.5,425.0,202.0,427.0,195.0,430.0,194.5,430.0" stroke="orange" stroke-width="1" fill="none" />
<polyline points="200.0,402.5,203.0,401.5,200.5,396.5,193.0,403.0,196.5,395.5,196.5,396.5" stroke="black" stroke-width="1" fill="none" />
<polyline points="190.5,391.5,192.0,392.5,191.0,403.5,190.0,399.5,185.0,405.5,183.5,417.5,184.0,415.0,190.0,417.0,188.0,424.0,186.5,431.0,193.5,430.0,180.5,433.5,184.0,436.0,177.5,441.5,186.0,447.5,186.5,439.5,200.0,448.5,199.5,447.5" stroke="black" stroke-width="1" fill="none" />
<polyline points="381.5,354.5,377.0,354.0,374.0,342.5,379.5,347.0,378.0,340.5,382.0,342.0,383.0,335.0,377.5,327.0,378.5,321.5,374.0,320.0,376.0,309.5,369.5,311.5,378.0,309.5,378.0,308.0" stroke="orange" stroke-width="1" fill="none" />
<polyline points="379.0,281.0,378.5,283.5,382.0,283.0,386.0,273.0,383.5,265.0,384.5,269.5,382.5,264.0,384.5,267.5,388.0,263.0" stroke="yellow" stroke-width="1" fill="none" />
<polyline points="368.5,269.0,368.0,276.0,369.0,271.5,369.5,279.5,364.5,283.0,368.0,286.0,364.0,287.5,364.5,298.0,365.0,297.0,363.0,307.5,361.0,305.0,358.5,310.0" stroke="orange" stroke-width="1" fill="none" />
<polyline points="344.0,272.5,348.0,279.0,345.5,282.5,335.5,281.5,334.0,285.0,329.0,270.5,322.0,269.0,322.0,276.5,323.5,268.0,328.0,269.5,322.5,277.0" stroke="orange" stroke-width="1" fill="none" />
<polyline points="323.5,273.5,324.0,272.5,325.5,270.0,330.0,267.5,334.5,274.0,328.0,274.5,331.5,269.0" stroke="orange" stroke-width="1" fill="none" />
<polyline points="323.0,279.0,323.5,277.0,319.0,273.0,320.0,266.0,329.5,257.5,338.0,261.0,334.5,253.5,336.0,251.5" stroke="black" stroke-width="1" fill="none" />
<polyline points="363.5,268.0,365.5,275.5,360.0,276.5,354.5,279.0" stroke="green" stroke-width="1" fill="none" />
<polyline points="290.0,233.0,281.5,231.5" stroke="green" stroke-width="1" fill="none" />
<polyline points="271.5,218.5,269.5,200.0,280.0,201.5,276.0,206.5,285.0,197.0,290.5,189.5,290.0,192.5,296.0,184.0,303.0,189.0,299.0,181.0,309.0,180.5,309.5,180.5" stroke="orange" stroke-width="1" fill="none" />
<polyline points="317.5,172.0,315.0,178.0,301.5,172.5,299.5,179.5,297.0,184.0,293.0,186.0,289.5,193.5,280.5,194.0,282.0,197.0,276.0,197.0,270.5,204.0,267.0,207.5,264.5,213.5,264.5,213.0,266.5,222.5,252.0,225.5,254.5,227.0,244.0,231.5,243.0,241.0,240.5,248.5,234.0,240.5,236.0,255.0,228.0,258.5,226.0,266.0,222.0,264.0,214.5,278.5,208.0,285.5,209.5,287.5,203.5,302.5,197.0,305.5,203.0,325.0,198.0,317.0,198.5,311.5,198.0,309.5,204.5,304.5,198.0,299.0,200.5,295.5,206.0,294.5,213.5,286.5,210.0,293.0,210.0,287.5,215.0,277.0,214.5,278.5,218.0,272.0,223.5,267.0,224.5,263.0,224.0,252.5,229.0,257.0,234.5,248.0,233.0,243.0,240.0,239.0,243.0,234.5,247.5,230.0,254.5,229.0,253.0,224.0,259.0,225.5,261.0,217.5,257.0,203.0,260.5,215.0,264.5,202.0" stroke="orange" stroke-width="1" fill="none" />
<polyline points="264.5,202.0,258.5,213.0,265.5,205.5,257.0,207.0" stroke="green" stroke-width="1" fill="none" />
<polyline points="" stroke="yellow" stroke-width="1" fill="none" />
<polyline points="206.0,199.5,211.0,199.5,218.5,186.5,217.5,185.5,227.5,187.0,223.0,181.0,227.0,178.0,231.5,183.0,226.5,182.5" stroke="black" stroke-width="1" fill="none" />
<polyline points="232.0,172.5,225.0,181.5,211.5,184.0,213.0,183.0,218.5,189.5,201.0,199.5,213.5,196.5,210.0,198.0,213.5,199.0,218.0,199.0,226.0,191.0,231.5,191.5,241.5,190.5,228.0,184.0" stroke="black" stroke-width="1" fill="none" />
<polyline points="251.5,176.5,244.0,176.5,239.0,185.5,235.0,184.5,243.0,177.0,241.0,180.0,249.5,181.5" stroke="yellow" stroke-width="1" fill="none" />
<polyline points="250.5,177.0,244.0,180.5,243.5,180.5,247.0,188.5,240.5,199.0,236.5,200.0,234.0,201.0,237.5,210.5,229.0,218.0,230.5,206.0,239.5,207.5,234.0,210.0,238.0,208.0,239.0,213.5,240.0,214.5" stroke="yellow" stroke-width="1" fill="none" />
<polyline points="267.5,183.0,262.0,195.5,258.5,198.0,244.0,203.0,246.5,204.0,252.5,202.0,257.5,199.0,255.5,203.5,259.0,195.0,257.0,199.5" stroke="green" stroke-width="1" fill="none" />
<polyline points="268.5,186.5,273.0,187.0,264.5,190.5,260.5,190.5,259.0,191.5,261.0,183.5,262.0,183.5" stroke="green" stroke-width="1" fill="none" />
<polyline points="260.0,185.0,257.5,186.0,244.0,190.0,249.5,197.5,251.5,207.0,245.5,196.0,246.0,193.5,246.0,192.0,251.0,189.0,252.5,186.5,252.5,184.0,256.5,183.0,262.5,182.0,262.0,180.0,261.0,177.0" stroke="green" stroke-width="1" fill="none" />
<polyline points="265.5,178.0,262.5,180.5,267.5,176.0,271.5,176.0,281.5,180.0,279.5,176.0,281.5,178.5,284.5,177.0,292.5,180.0,297.0,180.0,290.0,183.5,290.0,194.5,290.0,186.0,279.0,196.0,274.0,192.5,276.0,193.5,271.0,195.0,266.0,196.0,281.0,190.5,277.5,197.5,287.5,184.5,291.0,182.0,287.0,185.0,291.5,178.5,305.5,170.5,308.0,167.0,308.0,173.0,317.5,166.0,316.5,168.0,325.5,165.5,326.0,163.5,331.5,163.0,331.5,154.5,337.5,148.0,337.5,154.5,337.5,151.0" stroke="orange" stroke-width="1" fill="none" />
<polyline points="305.0,176.0,304.0,178.0,298.5,172.0,301.5,186.5,290.0,194.5,287.0,189.5,278.5,197.5,277.0,197.5,263.0,207.5,271.0,207.0,269.0,206.5,266.5,212.0,262.0,218.5,266.0,222.0,261.0,223.0,264.0,228.5,264.5,235.5,268.0,239.5,270.0,241.0,264.5,241.0,264.5,243.5,263.5,247.0" stroke="yellow" stroke-width="1" fill="none" />
<polyline points="268.5,184.0" stroke="green" stroke-width="1" fill="none" />
<polyline points="264.0,157.0,264.0,163.5,259.0,160.5,252.0,158.0,250.0,162.0,241.0,163.0,252.5,162.5,249.0,162.0" stroke="yellow" stroke-width="1" fill="none" />
<polyline points="" stroke="black" stroke-width="1" fill="none" />
<polyline points="252.5,175.5,259.0,179.0,256.5,177.0,261.5,182.0,259.5,182.5,260.5,180.5" stroke="yellow" stroke-width="1" fill="none" />
<polyline points="245.5,141.5,253.0,136.0,257.0,131.0,258.5,131.0,264.0,129.5,251.5,135.5,247.5,133.5,251.5,141.5,245.0,143.5,234.5,144.0,235.5,146.5" stroke="black" stroke-width="1" fill="none" />
<polyline points="" stroke="orange" stroke-width="1" fill="none" />
<polyline points="216.0,150.5,219.0,151.0,221.0,152.0,217.0,154.0" stroke="orange" stroke-width="1" fill="none" />
<polyline points="215.0,142.0,218.5,142.5,217.5,146.0" stroke="black" stroke-width="1" fill="none" />
<polyline points="206.5,149.5,201.0,151.5,208.0,143.5,213.5,150.5,214.0,161.0,214.5,149.0" stroke="green" stroke-width="1" fill="none" />
<polyline points="207.5,166.5,193.5,162.0,205.5,159.5,207.5,152.5,198.5,159.5" stroke="yellow" stroke-width="1" fill="none" />
<polyline points="202.5,164.0,199.0,172.0,192.0,183.0,187.5,175.0,183.5,182.0,181.5,181.0,170.0,189.0,175.5,196.0,165.0,194.0,166.0,203.0,163.5,200.5,165.0,192.5,172.5,193.5,180.5,188.0,180.5,181.5,186.0,180.5,185.0,173.5,190.5,175.0,200.5,175.0,204.5,163.0,203.0,163.0" stroke="yellow" stroke-width="1" fill="none" />
<polyline points="207.0,178.5,210.0,184.0,204.0,185.0,209.0,197.0,204.5,203.0,203.5,193.5,200.5,195.0,202.5,194.5" stroke="green" stroke-width="1" fill="none" />
<polyline points="" stroke="yellow" stroke-width="1" fill="none" />
<polyline points="193.5,130.0,203.0,133.5,204.5,141.0,204.5,140.5,206.5,136.5,215.0,129.0,219.0,135.5,216.0,129.0,222.0,127.5,231.5,124.5" stroke="black" stroke-width="1" fill="none" />
<polyline points="221.5,128.0,215.5,141.0,216.0,140.0,209.0,144.0,208.5,138.5,209.5,139.0,222.0,129.5,226.5,129.5,233.0,122.5,237.5,118.0,247.0,118.5,238.5,124.0,240.0,121.0" stroke="black" stroke-width="1" fill="none" />
<polyline points="227.5,113.5,234.5,116.5,229.0,127.5,223.0,130.5,205.0,142.5,198.5,141.0,205.0,143.5,201.5,144.5,201.5,152.5,190.0,156.5,195.0,157.5,181.0,164.0,174.5,169.5,172.5,172.5,168.5,172.5,167.5,181.5,163.0,187.5,155.5,184.5,155.5,191.0,152.0,198.0,148.5,197.0,149.5,202.5,152.0,205.5,146.0,214.0,149.0,213.5,148.5,224.5,139.5,222.5,142.5,224.0,148.5,231.5,138.5,238.5,137.5,243.0,145.0,236.5,128.0,242.5,133.5,251.5,133.0,252.0,138.0,252.0,136.5,254.0,137.0,256.5,139.0,258.5" stroke="green" stroke-width="1" fill="none" />
<polyline points="143.5,172.0" stroke="orange" stroke-width="1" fill="none" />
<polyline points="119.5,139.0" stroke="yellow" stroke-width="1" fill="none" />
<polyline points="149.5,133.0,152.0,141.5,155.5,139.5,155.5,127.0,162.5,126.5,160.5,123.5,155.5,121.0" stroke="orange" stroke-width="1" fill="none" />
<polyline points="179.5,136.0,175.5,137.5,185.5,123.0,188.5,120.5,187.5,125.0,189.5,119.5" stroke="orange" stroke-width="1" fill="none" />
<polyline points="185.5,130.0,168.0,127.0,172.5,123.5,169.5,124.5,183.0,125.0,186.5,122.5,190.5,122.0,183.5,117.0,192.0,122.0" stroke="black" stroke-width="1" fill="none" />
<polyline points="177.5,132.0,187.5,133.5,186.5,132.0" stroke="green" stroke-width="1" fill="none" />
<polyline points="194.0,118.5,201.5,119.0" stroke="green" stroke-width="1" fill="none" />
<polyline points="201.5,107.5" stroke="yellow" stroke-width="1" fill="none" />
<polyline points="234.5,138.5,231.5,132.5,232.5,134.0,226.5,131.5,220.0,128.0,217.0,135.0,214.5,138.0,209.5,149.0,200.0,136.5,198.0,151.5,196.0,158.0,196.5,157.5,202.0,147.5,211.0,144.5,210.5,139.0,218.0,137.5,229.0,130.0" stroke="orange" stroke-width="1" fill="none" />
<polyline points="247.0,140.0,249.5,149.0,250.5,141.0,235.5,152.5,235.5,150.0,230.5,150.5,225.5,150.0,220.0,160.0,222.5,163.0,224.5,156.5,234.0,152.5,236.0,148.5,247.0,145.5,251.5,138.5,258.5,137.0,257.0,129.5,267.5,124.0,266.0,117.5" stroke="green" stroke-width="1" fill="none" />
<polyline points="285.0,143.5,285.5,148.5,288.5,146.5,290.0,144.5" stroke="black" stroke-width="1" fill="none" />
<polyline points="298.0,133.5,295.0,142.0,293.5,143.0" stroke="black" stroke-width="1" fill="none" />
<polyline points="310.5,174.5,300.5,178.5,298.0,181.5,288.0,187.0,290.5,196.0,283.5,201.0,281.0,200.5,274.0,201.5,274.5,206.5,272.0,211.0,270.5,212.0,273.5,214.0" stroke="black" stroke-width="1" fill="none" />
<polyline points="232.0,96.5,236.5,102.5,227.0,101.0,224.5,104.5,227.0,106.0,227.5,97.5,237.0,99.0" stroke="yellow" stroke-width="1" fill="none" />
<polyline points="" stroke="orange" stroke-width="1" fill="none" />
<polyline points="246.5,93.5,246.0,91.0,245.0,92.0,245.0,87.5" stroke="green" stroke-width="1" fill="none" />
<polyline points="262.0,86.0,253.0,94.0,254.5,90.5,250.0,92.5,248.0,95.5,241.5,106.5,238.5,111.0,232.0,112.0,225.0,107.0,230.5,119.0,218.5,115.5,223.0,120.0,219.0,123.5,208.0,119.5,205.0,132.0,205.5,139.0,196.5,135.5,196.0,130.5,186.5,139.0,177.0,149.5,180.5,152.5,175.5,153.0,171.5,150.5,175.0,165.5,171.0,166.5,163.5,166.0,157.0,166.5,161.0,175.0,155.0,173.0,160.5,169.0,174.0,167.5,173.0,162.0,184.0,155.0,175.0,151.0,183.0,139.5,191.5,143.5,192.0,132.5,200.0,144.5,209.0,134.5,215.5,132.0,214.5,127.5,217.0,109.0,219.5,117.5,228.0,113.0,235.5,113.5,235.5,99.0,242.0,97.5,253.0,99.0,267.5,92.0,263.5,87.5,260.5,87.0" stroke="yellow" stroke-width="1" fill="none" />
<polyline points="238.0,80.5,231.0,82.0,227.0,81.5,231.5,88.5,235.0,80.0,233.5,87.0,233.0,81.0" stroke="black" stroke-width="1" fill="none" />
<polyline points="" stroke="green" stroke-width="1" fill="none" />
<polyline points="227.0,49.0,227.0,49.0,236.5,48.0,232.0,46.0,246.0,44.5,249.5,53.0,243.0,45.0,255.5,53.5,258.5,62.0,263.0,49.0,273.5,56.5,274.5,59.0,268.5,61.5,279.0,65.0,278.5,66.5,288.0,71.0,281.5,69.0,297.0,75.0,290.0,82.5,295.5,81.0,304.5,88.5,303.5,94.0,319.0,100.5,315.5,99.5,330.5,106.5,321.5,110.0,328.0,119.0,331.0,122.0,332.5,129.0,340.0,128.5,352.5,136.5,343.0,138.5,351.5,148.0,355.0,141.5,354.5,136.5,370.0,138.0,373.5,136.0,372.5,134.0,383.5,130.5,381.0,127.0,391.5,130.5,395.0,114.0,391.5,115.0,397.0,112.0,401.0,115.0,409.0,111.0,408.5,113.0,415.5,118.5,415.5,114.0" stroke="black" stroke-width="1" fill="none" />
<polyline points="413.5,116.0,413.0,118.0,414.5,128.5,415.0,128.5,416.0,135.5,422.5,132.0,420.5,142.0,419.5,145.0,423.5,145.5,408.5,150.5,416.5,152.5,410.5,162.5,415.0,167.0,409.0,179.0,405.5,176.5,407.0,173.5,399.5,180.0,407.0,177.0,411.5,182.5,400.0,182.0,393.0,189.5,394.5,202.0,378.0,201.0,381.0,205.5,374.0,211.0,375.5,208.0,369.0,216.5,363.0,209.5,373.0,211.5,370.0,206.5,381.5,208.5,385.0,203.0,390.5,195.5,397.0,196.5,392.5,189.5,398.0,189.5,401.0,185.5,407.5,170.5,412.5,174.0,418.0,178.0" stroke="yellow" stroke-width="1" fill="none" />
<polyline points="367.0,127.0,367.5,125.5" stroke="orange" stroke-width="1" fill="none" />
<polyline points="389.5,109.5,383.0,102.0,388.0,101.5,387.5,107.5" stroke="black" stroke-width="1" fill="none" />
<polyline points="371.0,98.0,380.5,108.0,389.0,105.0,384.5,98.0,385.0,96.0" stroke="black" stroke-width="1" fill="none" />
<polyline points="424.0,43.5,425.0,44.0,427.5,47.0,415.5,32.5,418.0,28.0,415.5,26.5,406.0,7.5" stroke="yellow" stroke-width="1" fill="none" />
<polyline points="512.0,71.5,512.0,81.5,512.0,81.5,504.0,86.5,504.0,87.0,496.0,94.0,487.5,104.5,481.5,106.5,488.5,111.0,481.5,104.0,475.5,115.5,479.5,122.5,474.0,125.0,470.5,128.5,466.0,131.0,466.5,137.0,466.0,137.0,460.5,151.0,458.5,146.0,460.5,151.5,451.5,156.5,448.5,165.5,449.0,165.5,443.5,169.0,444.5,168.5,445.0,175.5,437.0,189.0,437.0,188.0,434.0,188.0,434.0,196.0,434.0,205.0,433.0,204.5,431.5,209.5,422.0,207.0,429.0,217.0,422.0,219.0,420.5,222.0,421.5,227.0,420.0,238.0,409.5,232.0,414.0,242.5,411.5,245.5,406.0,245.0,411.5,247.0,419.5,260.5,408.0,259.5,407.0,256.5,407.5,266.5,410.0,271.0,404.0,276.5,401.5,280.5,404.0,282.0,396.0,288.0,400.5,289.5,405.0,290.5,398.5,302.0,398.5,301.5,394.0,310.0,392.0,306.5,394.5,315.0,390.5,316.0,396.5,318.5,388.5,328.5,390.5,324.5,383.0,340.0,389.0,335.5,389.5,336.5" stroke="black" stroke-width="1" fill="none" />
<polyline points="342.5,137.5,343.0,137.5,337.0,134.0,335.0,135.0,338.5,130.0,335.0,130.0,330.0,120.0,335.5,118.5,325.0,114.0,326.5,107.5,317.5,100.0,310.5,98.0,304.5,94.5,311.5,96.0,304.0,88.5,301.0,89.5,297.0,73.0,297.0,80.5,295.0,73.0,281.5,65.5,275.0,69.0,274.5,62.0,264.5,53.0,263.0,45.5,254.0,53.0,256.5,49.5" stroke="black" stroke-width="1" fill="none" />
<polyline points="" stroke="yellow" stroke-width="1" fill="none" />
<polyline points="174.5,61.5,157.5,65.5,162.5,69.0,165.0,66.0,167.5,62.0" stroke="yellow" stroke-width="1" fill="none" />
<polyline points="156.0,69.0,159.5,75.5,151.0,76.5,149.0,80.0,157.5,70.5,163.5,69.5,160.0,73.0,160.0,71.5" stroke="yellow" stroke-width="1" fill="none" />
<polyline points="163.0,77.5,154.0,78.5" stroke="orange" stroke-width="1" fill="none" />
</svg>