<svg xmlns="http://www.w3.org/2000/svg" width="1024" height="1024" version="1.1"><polyline points="409.5,13.0,405.0,12.5,407.0,15.0,413.0,17.5,408.5,29.0,415.0,22.0,414.5,15.0,418.5,35.0,421.0,38.5,427.5,31.5,427.5,52.5,433.5,52.5,433.5,63.5,442.0,54.0,438.0,74.0,442.0,56.0,437.0,70.5,440.5,70.5" stroke="orange" stroke-width="1" fill="none" />
<polyline points="450.5,62.5,456.5,63.0,456.5,59.0,451.0,53.5,428.0,37.5,452.0,40.5,434.0,32.5,440.0,30.0" stroke="orange" stroke-width="1" fill="none" />
<polyline points="420.5,1.5,418.0,9.5,433.5,19.0,430.5,16.0,447.5,21.0,441.5,21.0,438.0,36.0,438.0,31.5,444.0,35.5,447.0,40.0,450.5,44.0,453.0,46.5,446.0,48.5,447.0,58.5,453.5,64.0,454.0,78.0,469.5,73.5,443.0,68.5,438.0,82.0,443.0,88.0,440.5,87.5,436.5,89.5,431.5,95.5,427.5,104.5,418.5,109.5,433.0,105.0,415.0,114.5,427.5,117.5,423.0,114.5,410.0,108.0,419.5,104.0,430.5,96.5,431.0,91.5,444.5,82.0,449.0,71.5,443.5,68.0,453.0,78.0,448.5,57.0,464.5,52.5,467.5,58.5,467.5,51.5,479.0,48.5,463.0,49.5,475.0,28.5,491.5,22.5,491.5,24.5,486.0,33.0" stroke="black" stroke-width="1" fill="none" />
<polyline points="507.5,15.5,498.5,18.5,494.5,19.0,495.5,24.5,486.0,19.5,480.0,33.5,488.5,41.5,476.5,52.5,478.5,45.5,471.0,44.5,460.5,48.0" stroke="yellow" stroke-width="1" fill="none" />
<polyline points="508.0,87.5,519.0,79.0,497.5,92.0,495.5,92.5,496.5,90.0,483.0,96.0,490.5,114.5,478.0,110.0,481.0,120.5,469.5,123.5,464.5,126.0,459.5,132.0" stroke="orange" stroke-width="1" fill="none" />
<polyline points="453.5,142.5,459.0,142.5,455.5,165.0,439.0,172.0,442.5,196.5,433.0,203.0" stroke="yellow" stroke-width="1" fill="none" />
<polyline points="" stroke="green" stroke-width="1" fill="none" />
<polyline points="422.0,207.0,426.0,212.0,427.0,208.0,426.5,207.5,439.5,201.0,430.0,214.5,431.0,213.5,421.0,217.5,432.0,208.0,429.0,211.0" stroke="black" stroke-width="1" fill="none" />
<polyline points="424.0,236.0,417.5,230.5,419.5,235.0,419.5,219.0,410.0,222.5" stroke="green" stroke-width="1" fill="none" />
<polyline points="410.0,273.0,410.5,271.5,409.0,274.5,403.0,268.5,391.5,283.5,392.0,287.5,387.5,294.0,376.0,295.0" stroke="yellow" stroke-width="1" fill="none" />
<polyline points="379.0,286.5,385.5,282.0,386.5,290.0,379.5,297.5" stroke="black" stroke-width="1" fill="none" />
<polyline points="380.0,267.0,375.5,268.0,385.0,262.0,387.5,248.0,370.5,260.5,368.5,258.0,371.0,255.0,380.5,252.0,374.0,233.5,363.5,239.0,371.0,236.0,381.5,229.0,372.5,218.5,363.0,213.5,367.5,218.0,376.0,213.0,373.5,213.0,364.5,219.0,366.0,211.5" stroke="black" stroke-width="1" fill="none" />
<polyline points="" stroke="orange" stroke-width="1" fill="none" />
<polyline points="366.0,262.5,369.0,253.0,366.5,244.0,367.0,252.5,372.0,254.0,373.5,257.5,369.0,272.0,354.5,261.5,369.5,267.5,374.0,274.5,378.5,277.5,375.5,284.5,373.5,285.0,375.0,289.0" stroke="black" stroke-width="1" fill="none" />
<polyline points="380.5,278.5,377.0,283.5,369.5,289.5,372.5,282.5,378.5,292.0,375.5,304.0,393.0,294.5,381.0,306.0,381.0,303.5,382.0,304.5,385.5,315.5,373.0,321.5,382.5,331.5,391.0,333.5,381.0,343.0,381.5,341.0,393.5,358.0,373.0,343.0,380.5,361.0,387.0,348.0,384.0,339.5" stroke="black" stroke-width="1" fill="none" />
<polyline points="375.0,353.0,385.5,365.5,364.5,352.5,356.5,370.5,365.5,377.0,372.5,378.5,376.0,382.5" stroke="green" stroke-width="1" fill="none" />
<polyline points="" stroke="black" stroke-width="1" fill="none" />
<polyline points="381.0,384.5,383.5,377.5,379.0,386.0,376.0,380.5,380.5,389.5,379.0,393.0,370.5,402.5,381.0,394.5" stroke="yellow" stroke-width="1" fill="none" />
<polyline points="361.0,426.5,360.0,421.5,365.0,423.0,359.5,415.0,340.5,407.0,345.5,425.0,349.5,408.0,336.5,401.5,345.5,402.0,342.5,401.5,320.5,402.0,335.0,393.0,319.5,405.5,317.0,396.0,325.0,397.0,312.0,385.0,299.5,388.5,307.5,403.0,291.0,390.0,291.5,393.5" stroke="yellow" stroke-width="1" fill="none" />
<polyline points="320.0,358.5,320.5,365.0,326.5,365.5,318.0,368.0,318.5,378.5,323.0,363.5,325.0,358.5,329.5,360.5,333.0,354.0" stroke="black" stroke-width="1" fill="none" />
<polyline points="367.0,324.5,361.0,332.0,353.0,343.5,355.0,326.5,358.5,336.5" stroke="black" stroke-width="1" fill="none" />
<polyline points="355.0,358.5,355.5,376.5,344.5,361.5,345.5,373.5,352.5,370.5,360.5,386.0,360.0,380.5" stroke="black" stroke-width="1" fill="none" />
<polyline points="358.0,367.5,367.0,357.0,367.5,352.0,373.5,343.5" stroke="yellow" stroke-width="1" fill="none" />
<polyline points="364.5,359.0,368.0,358.0,363.0,359.0,351.5,380.0,362.5,366.5,352.0,381.5,357.0,375.5,358.5,376.5" stroke="black" stroke-width="1" fill="none" />
<polyline points="355.0,360.0,350.5,366.5,358.5,368.5,358.5,376.0,352.0,373.5,349.0,374.5,363.0,393.5,359.0,383.0,354.0,396.0,346.0,411.0,359.0,408.0,358.5,405.0,355.5,410.5,350.5,409.0,359.0,411.0,356.0,413.0" stroke="yellow" stroke-width="1" fill="none" />
<polyline points="365.5,448.5,370.5,441.0,373.5,442.0,365.5,431.5,379.0,438.5,377.0,423.5,364.0,425.0,376.0,419.5,376.5,422.5,381.5,407.5,395.0,406.5,375.0,407.5,378.0,395.5,387.0,397.0,373.5,384.5,378.0,382.5,377.5,387.5,371.0,386.0,373.5,379.5,378.5,371.5,384.5,363.0,375.5,367.5,373.5,347.0,376.5,358.0,372.0,349.0,385.5,354.5,384.5,332.5,372.0,330.0,360.0,343.5,381.5,332.5,380.0,324.5,380.0,333.5,361.0,322.5,367.5,310.5,373.0,302.5,376.5,315.0,369.0,295.5,359.0,301.0,369.5,304.0,370.0,297.0,371.5,288.0,369.0,281.0,369.0,260.5,376.5,286.5,380.5,266.5,365.5,281.5,366.0,260.5,367.5,261.0,373.5,260.0,370.5,250.5,361.0,254.0,366.5,242.5,366.5,240.5,362.5,239.0,364.0,236.5,360.5,222.5,369.5,225.5,366.5,215.5,361.0,216.0,347.5,218.0,361.0,205.0,353.0,200.5,353.0,191.5,345.0,204.5,353.5,192.0" stroke="green" stroke-width="1" fill="none" />
<polyline points="346.0,212.0,346.0,209.5,342.0,205.5,344.5,203.0,343.0,199.5,350.0,202.0,345.5,205.5" stroke="black" stroke-width="1" fill="none" />
<polyline points="" stroke="green" stroke-width="1" fill="none" />
<polyline points="370.5,203.5,360.5,202.5,355.0,197.0,361.5,198.5,369.0,200.5" stroke="black" stroke-width="1" fill="none" />
<polyline points="357.5,197.0,357.5,194.0,355.5,198.0,362.5,199.5,358.5,192.0" stroke="green" stroke-width="1" fill="none" />
<polyline points="" stroke="yellow" stroke-width="1" fill="none" />
<polyline points="" stroke="black" stroke-width="1" fill="none" />
<polyline points="" stroke="yellow" stroke-width="1" fill="none" />
<polyline points="346.0,214.0,347.0,215.0,351.0,214.5,354.0,213.0,356.5,234.0,370.5,231.0,365.0,229.0,361.5,235.5,367.0,231.5,352.0,240.0,353.5,246.5,358.0,249.5" stroke="green" stroke-width="1" fill="none" />
<polyline points="356.5,251.5,351.0,255.5,363.5,251.5,362.0,259.5,361.0,255.5,355.0,260.0" stroke="black" stroke-width="1" fill="none" />
<polyline points="" stroke="green" stroke-width="1" fill="none" />
<polyline points="325.0,262.5,329.0,260.5,341.0,253.5,333.0,253.5,330.5,256.5" stroke="yellow" stroke-width="1" fill="none" />
<polyline points="327.5,261.0,344.5,250.0" stroke="green" stroke-width="1" fill="none" />
<polyline points="" stroke="orange" stroke-width="1" fill="none" />
<polyline points="341.5,264.5,339.5,264.5,349.0,262.5,347.0,282.5,339.5,289.0,350.5,288.0,345.5,282.5,346.5,280.0,351.0,284.0,350.0,279.5" stroke="green" stroke-width="1" fill="none" />
<polyline points="336.5,274.0,343.0,280.0,338.0,290.0,345.0,282.5,352.5,277.5,355.5,286.5,361.5,287.5,349.5,289.0,357.5,295.5,345.0,300.0,345.5,309.5,338.0,309.0,342.5,315.0,344.0,319.5,347.0,321.0,329.5,325.0,342.0,338.0,343.0,338.5,331.0,341.0,325.5,341.0,328.5,335.5,332.5,356.5,331.0,348.0,322.5,359.0,316.5,352.0,307.0,373.5,320.0,372.0,325.5,372.0,322.0,367.0,316.5,380.0,310.5,386.5,317.5,379.5,318.5,386.5,337.0,391.0,336.0,405.5,348.5,409.0,339.5,405.0,345.0,411.5,360.5,415.0,356.0,415.0,352.5,421.5,359.0,433.0,365.0,426.5,361.0,445.0,364.0,437.0,371.0,450.0,375.0,449.5,367.0,456.5,360.5,455.0,371.5,455.5,370.0,468.5,363.5,470.5,371.0,477.0,377.0,474.5,380.5,472.5,387.0,484.5,382.0,490.5,380.0,498.5,381.0,499.0,391.5,500.5" stroke="yellow" stroke-width="1" fill="none" />
<polyline points="433.0,487.0,438.0,489.5,442.0,487.0,450.0,471.5,450.5,471.5" stroke="yellow" stroke-width="1" fill="none" />
<polyline points="463.0,449.0,458.0,450.5,452.5,456.0,459.5,451.0,465.5,467.5,456.5,462.0,451.0,479.5,449.0,478.5,454.5,468.5,463.0,467.5" stroke="black" stroke-width="1" fill="none" />
<polyline points="" stroke="yellow" stroke-width="1" fill="none" />
<polyline points="463.5,427.0,464.0,426.0,466.5,422.0,470.5,413.0,474.0,408.0,471.0,412.0,494.0,400.5,484.5,393.5,486.0,398.0,500.5,397.5,503.0,395.5,502.5,394.0" stroke="black" stroke-width="1" fill="none" />
<polyline points="505.0,372.5,510.5,376.0,505.0,388.5,498.0,385.0,495.5,394.5,490.0,397.5,465.5,401.5,476.5,409.0,468.5,422.5,474.5,416.0,472.5,410.0,472.0,418.5,466.5,433.0,472.0,443.5,453.5,445.5,459.0,449.0,470.0,453.0,457.5,442.5,458.0,441.5,461.5,457.5,445.0,449.0,457.0,469.0,449.5,459.5,457.0,468.5,450.5,474.0,443.0,488.0,436.5,468.5,439.0,488.5,433.0,497.5" stroke="green" stroke-width="1" fill="none" />
<polyline points="432.0,483.0,433.5,483.0,426.5,488.5,431.5,481.5,431.0,481.0,429.5,478.5,429.5,476.0,436.0,482.5,438.5,470.5,435.0,469.0,435.0,468.0,435.5,457.5,423.0,464.0,420.5,461.0" stroke="black" stroke-width="1" fill="none" />
<polyline points="428.5,458.5,441.0,460.0,420.5,456.0,432.0,458.5,435.0,466.0,433.0,454.5,428.5,451.0,421.5,447.0,428.5,444.0,443.0,439.5,439.0,427.5,441.5,431.5,438.5,427.0,441.0,433.0" stroke="green" stroke-width="1" fill="none" />
<polyline points="424.5,465.0,422.0,457.5,432.0,474.0,419.0,481.0,422.0,470.5,429.0,492.5,416.0,485.5,420.0,476.0,423.0,478.5" stroke="black" stroke-width="1" fill="none" />
<polyline points="" stroke="orange" stroke-width="1" fill="none" />
<polyline points="472.0,429.0,488.5,419.0,481.0,404.0,486.5,401.5,484.5,394.0,473.0,390.0" stroke="green" stroke-width="1" fill="none" />
<polyline points="440.5,418.0,439.0,412.0,445.0,419.5,446.5,411.0,438.0,404.5,438.5,398.0,443.5,392.5,447.5,385.5,460.5,392.5,450.0,384.5,455.5,383.0,462.5,378.5,449.0,367.0,460.5,376.5,450.0,373.5" stroke="orange" stroke-width="1" fill="none" />
<polyline points="378.0,347.5,390.5,332.5,390.5,335.5,393.0,340.5" stroke="green" stroke-width="1" fill="none" />
<polyline points="359.0,349.0,374.0,367.0,365.5,373.0,367.0,373.0,368.5,377.5,369.5,378.5,375.0,389.5,374.5,380.0,379.5,387.0" stroke="green" stroke-width="1" fill="none" />
<polyline points="326.5,342.0,321.5,337.0" stroke="orange" stroke-width="1" fill="none" />
<polyline points="301.5,345.0" stroke="green" stroke-width="1" fill="none" />
<polyline points="311.0,352.5,309.0,352.0" stroke="black" stroke-width="1" fill="none" />
<polyline points="292.5,350.0,293.5,350.0,298.0,355.0,306.5,372.5,306.5,366.5,314.5,362.0" stroke="yellow" stroke-width="1" fill="none" />
<polyline points="313.5,353.5,301.0,353.5,291.0,354.0" stroke="black" stroke-width="1" fill="none" />
<polyline points="293.0,334.0,294.5,334.0,301.0,334.5,299.0,331.0,299.5,336.5,312.5,328.0,316.0,331.0" stroke="green" stroke-width="1" fill="none" />
<polyline points="314.5,319.5,316.5,324.5,309.0,327.5,306.5,324.5" stroke="green" stroke-width="1" fill="none" />
<polyline points="299.5,320.0,302.5,329.5,298.5,325.5,303.5,324.5" stroke="orange" stroke-width="1" fill="none" />
<polyline points="337.0,309.0,329.5,309.0,327.5,316.0,331.5,321.5,322.5,312.5,322.5,312.0,318.5,319.0,326.5,318.5,333.5,317.0,318.0,294.0,323.0,314.0,328.5,311.5,316.5,318.5" stroke="green" stroke-width="1" fill="none" />
<polyline points="339.5,287.5,341.0,279.0,343.0,275.0,344.0,276.0,338.0,282.0,332.5,285.0" stroke="green" stroke-width="1" fill="none" />
<polyline points="313.0,262.0,322.0,264.0,329.5,269.0,343.0,270.0,327.5,258.5,334.5,264.5,329.5,269.5" stroke="orange" stroke-width="1" fill="none" />
<polyline points="337.0,253.0,339.5,262.0,338.0,269.5" stroke="yellow" stroke-width="1" fill="none" />
<polyline points="330.5,269.5,324.0,268.5,327.0,267.0" stroke="green" stroke-width="1" fill="none" />
<polyline points="" stroke="green" stroke-width="1" fill="none" />
<polyline points="325.0,266.5,327.0,264.5,315.5,277.5,325.5,267.5,316.0,264.0,320.0,241.0,340.5,265.0,336.0,258.0,348.5,244.5,341.0,257.0,345.5,258.5" stroke="green" stroke-width="1" fill="none" />
<polyline points="352.0,232.0,352.5,231.0,337.0,233.0,343.0,225.5,329.5,217.5,327.0,221.0" stroke="green" stroke-width="1" fill="none" />
<polyline points="335.0,203.5,336.5,201.5,341.0,208.0,339.0,203.5,355.5,200.0,352.5,192.5,340.0,184.0,355.0,192.0,353.0,188.5,353.0,180.5,367.5,184.0,372.5,180.5,370.5,185.5,379.0,186.5,377.5,172.5,385.5,175.0,394.5,172.5,391.0,185.0,408.5,158.5,402.0,175.0,403.0,172.5,400.5,183.5,395.0,186.0,400.5,189.5,383.0,192.0,377.5,202.0,380.5,185.0,391.0,181.5,382.5,181.5,397.0,172.0,401.0,176.0,393.5,181.5" stroke="green" stroke-width="1" fill="none" />
<polyline points="396.5,160.5,400.5,185.5,396.5,165.0,404.5,171.0,410.0,165.5,410.5,162.0,403.5,161.0,403.0,169.5,395.5,174.5,395.5,181.0,392.5,186.5,387.0,179.0,388.5,167.0,396.5,168.5,390.0,169.5" stroke="yellow" stroke-width="1" fill="none" />
<polyline points="357.0,190.0,344.5,196.5,333.5,199.0,338.5,209.0,342.5,188.0,351.0,211.0,352.5,213.5,357.5,210.5" stroke="green" stroke-width="1" fill="none" />
<polyline points="" stroke="yellow" stroke-width="1" fill="none" />
<polyline points="349.0,207.0,345.5,206.0,349.5,207.5,347.5,204.5,348.5,201.0" stroke="yellow" stroke-width="1" fill="none" />
<polyline points="344.5,207.0,346.0,206.0,341.0,215.5,341.0,207.0,331.5,198.5,342.5,210.5,351.5,197.0,347.0,209.0,339.5,206.5,367.5,226.0,359.5,234.5" stroke="yellow" stroke-width="1" fill="none" />
<polyline points="351.5,207.0,352.0,208.0,357.5,198.0,338.0,200.5,344.0,210.0,341.5,197.5" stroke="yellow" stroke-width="1" fill="none" />
<polyline points="354.5,199.5,341.5,206.0,344.5,202.5,349.0,202.5,344.0,200.0,345.5,199.5" stroke="black" stroke-width="1" fill="none" />
<polyline points="" stroke="black" stroke-width="1" fill="none" />
<polyline points="346.5,200.0,336.5,194.5,353.0,193.0,350.0,191.0,344.5,189.5,347.0,191.5" stroke="yellow" stroke-width="1" fill="none" />
<polyline points="" stroke="yellow" stroke-width="1" fill="none" />
<polyline points="359.0,186.5,354.5,193.0,363.0,190.0,358.0,188.0" stroke="green" stroke-width="1" fill="none" />
<polyline points="379.0,173.5,378.0,156.5,381.0,159.5,391.5,164.0,374.5,172.5,388.5,174.0,391.0,178.5,385.0,176.5,381.5,161.0,397.5,163.5" stroke="green" stroke-width="1" fill="none" />
<polyline points="399.5,151.0,396.5,156.0,407.0,155.5,393.0,171.5,399.5,167.5,389.5,172.0,379.5,186.5,390.5,164.5,401.5,167.0,400.0,159.5" stroke="yellow" stroke-width="1" fill="none" />
<polyline points="395.5,139.5,385.0,131.5,382.0,131.0,373.5,133.0" stroke="orange" stroke-width="1" fill="none" />
<polyline points="388.5,133.5,378.0,130.0,377.5,129.0,384.0,132.5,386.5,132.0,383.5,122.5" stroke="yellow" stroke-width="1" fill="none" />
<polyline points="374.5,132.5,371.5,135.5,362.5,139.5,356.0,140.5,358.0,146.5" stroke="yellow" stroke-width="1" fill="none" />
<polyline points="324.5,156.0,325.5,153.5,320.5,160.5,324.0,155.5,316.5,156.0,309.5,166.5,312.5,168.5,306.5,166.0,314.0,170.0,313.5,165.0" stroke="green" stroke-width="1" fill="none" />
<polyline points="298.5,179.5,293.5,179.0,291.0,178.0,279.5,187.0,280.0,175.0,286.5,185.0" stroke="black" stroke-width="1" fill="none" />
<polyline points="284.0,173.5,289.5,174.0,289.0,177.0" stroke="black" stroke-width="1" fill="none" />
<polyline points="" stroke="green" stroke-width="1" fill="none" />
<polyline points="257.5,188.5,262.0,193.0,259.5,182.0,273.0,183.5,273.5,178.5,272.0,176.5" stroke="black" stroke-width="1" fill="none" />
<polyline points="264.0,180.5,264.0,178.5,261.5,190.5,256.0,167.0,269.5,175.0,249.0,176.5" stroke="yellow" stroke-width="1" fill="none" />
<polyline points="253.0,172.0,242.5,172.0,262.5,164.0,249.5,177.0,261.0,178.5,256.5,196.5,242.0,192.0,249.5,196.5,249.0,193.0,237.5,200.0,244.5,199.0,244.0,205.0,240.0,212.0,251.0,212.5,245.5,219.5,262.5,210.5,251.5,203.0,255.0,203.0,249.0,217.0,249.5,209.0,247.5,211.0,245.0,220.5,248.0,213.5,242.0,231.0,238.0,227.0,245.0,232.0,228.5,245.0,228.5,249.5,229.5,261.0,229.0,251.5,222.0,265.5,220.0,276.0,213.5,268.5,211.5,270.0,215.0,284.5,210.0,284.0,211.5,280.5,211.5,298.0,212.5,291.5,205.5,299.0,200.5,313.5,191.0,303.5,192.5,304.0,203.5,306.0,182.0,317.0,177.5,329.5,181.0,317.5,180.5,325.0,178.0,328.5,167.0,334.0,163.0,339.5,168.0,340.5,164.5,351.0,160.0,353.5,154.0,356.5,151.0,356.5,157.0,363.5" stroke="green" stroke-width="1" fill="none" />
<polyline points="164.0,340.0,158.0,344.0,160.5,349.0,155.0,346.5,161.0,356.5,153.0,369.5,151.5,361.0,147.0,359.5,154.5,369.0,156.5,373.5,151.0,375.0,164.5,372.5,147.0,387.0,156.0,394.5,152.5,399.0,161.0,395.5,160.5,404.0,179.0,420.0,179.0,410.5,176.5,409.5,174.5,420.0" stroke="yellow" stroke-width="1" fill="none" />
<polyline points="" stroke="black" stroke-width="1" fill="none" />
<polyline points="176.0,392.0,170.5,399.5,170.0,408.5,163.5,407.0,173.5,415.0,173.5,414.0,167.0,427.0,175.5,424.0" stroke="yellow" stroke-width="1" fill="none" />
<polyline points="161.5,419.5,168.0,420.5,167.0,421.5,161.5,425.5,167.5,435.0,162.5,436.0" stroke="black" stroke-width="1" fill="none" />
<polyline points="180.0,450.5,185.5,440.0,183.0,440.0,184.5,437.0,189.0,437.0" stroke="black" stroke-width="1" fill="none" />
<polyline points="" stroke="orange" stroke-width="1" fill="none" />
<polyline points="174.0,450.5,177.0,443.0,181.0,438.0,185.5,442.0,179.0,459.5,182.5,449.5" stroke="green" stroke-width="1" fill="none" />
<polyline points="" stroke="green" stroke-width="1" fill="none" />
<polyline points="166.0,454.0,169.0,460.0" stroke="orange" stroke-width="1" fill="none" />
<polyline points="156.5,469.0,155.0,467.5,145.0,452.5,144.0,456.0,137.5,463.5,142.5,456.5" stroke="yellow" stroke-width="1" fill="none" />
<polyline points="134.0,473.5,135.0,471.0,127.0,465.0,135.0,472.0,146.0,475.5,138.5,467.5,146.5,483.0,163.5,491.5,148.5,482.0,153.5,485.5,155.0,497.0,157.0,497.5,156.5,494.5" stroke="black" stroke-width="1" fill="none" />
<polyline points="" stroke="black" stroke-width="1" fill="none" />
<polyline points="161.0,504.0,161.0,496.5,158.5,505.0,169.5,510.5,168.5,508.5,168.0,502.0,176.0,506.0,156.0,498.5,155.5,498.5,149.0,505.0,147.5,493.0,138.5,477.5,142.5,502.5,149.0,482.0,146.0,474.5,148.5,480.0,148.5,484.5,146.0,483.0" stroke="orange" stroke-width="1" fill="none" />
<polyline points="140.5,493.5,138.5,491.0,153.0,487.5,139.0,480.5,141.0,498.0,151.0,492.0" stroke="orange" stroke-width="1" fill="none" />
<polyline points="" stroke="orange" stroke-width="1" fill="none" />
<polyline points="151.0,497.5,143.5,503.0,147.0,508.0,145.0,502.5" stroke="yellow" stroke-width="1" fill="none" />
<polyline points="161.5,500.0,159.0,498.0,158.5,493.5" stroke="orange" stroke-width="1" fill="none" />
<polyline points="152.5,492.5,150.0,503.0,146.5,489.0,152.0,474.0,152.5,464.0" stroke="yellow" stroke-width="1" fill="none" />
<polyline points="159.5,484.0,157.5,488.5,154.0,490.0,157.0,488.5,156.0,485.5,154.0,483.0,151.0,490.0,156.0,517.0,150.0,504.5,157.0,513.0,156.5,501.0,146.5,497.0" stroke="orange" stroke-width="1" fill="none" />
<polyline points="" stroke="orange" stroke-width="1" fill="none" />
<polyline points="144.0,496.5,151.0,493.5,148.5,501.0,151.5,508.0,147.5,503.5" stroke="black" stroke-width="1" fill="none" />
<polyline points="" stroke="green" stroke-width="1" fill="none" />
<polyline points="162.0,493.5,164.0,496.0,156.5,499.0" stroke="orange" stroke-width="1" fill="none" />
<polyline points="143.0,506.0,140.5,499.5,143.0,495.5,134.5,503.5" stroke="yellow" stroke-width="1" fill="none" />
<polyline points="142.5,491.5,134.5,490.0,128.5,503.0,137.0,491.5,132.0,512.0,146.0,502.0" stroke="green" stroke-width="1" fill="none" />
<polyline points="124.5,507.5,126.5,494.5,117.5,492.0" stroke="green" stroke-width="1" fill="none" />
<polyline points="" stroke="black" stroke-width="1" fill="none" />
<polyline points="128.0,509.5,124.0,500.5,117.5,507.0,114.0,510.0,110.0,502.0" stroke="black" stroke-width="1" fill="none" />
<polyline points="" stroke="green" stroke-width="1" fill="none" />
<polyline points="126.5,519.0,130.5,524.5,134.0,524.5" stroke="yellow" stroke-width="1" fill="none" />
<polyline points="129.5,494.5,139.5,490.5,144.0,493.5,144.5,489.5,151.5,487.0,139.0,486.0" stroke="orange" stroke-width="1" fill="none" />
<polyline points="144.0,474.0,140.0,479.5,131.5,498.0,138.5,495.0,126.0,505.0,138.5,505.0,135.0,504.5,134.0,506.0" stroke="yellow" stroke-width="1" fill="none" />
<polyline points="" stroke="yellow" stroke-width="1" fill="none" />
<polyline points="" stroke="green" stroke-width="1" fill="none" />
<polyline points="165.0,497.0,167.0,488.5,174.5,480.0,159.5,482.5" stroke="orange" stroke-width="1" fill="none" />
<polyline points="" stroke="green" stroke-width="1" fill="none" />
<polyline points="165.5,483.5,171.0,482.5,159.0,486.0,178.5,486.0,177.5,490.5,173.0,495.0,172.5,493.0" stroke="green" stroke-width="1" fill="none" />
<polyline points="202.0,482.0,207.0,480.5,196.0,487.0,212.5,495.0,209.5,483.5,208.5,487.0,223.5,482.0,216.5,477.0,237.5,462.5,238.5,463.0,224.0,459.0,221.5,462.5" stroke="green" stroke-width="1" fill="none" />
<polyline points="" stroke="green" stroke-width="1" fill="none" />
<polyline points="211.0,481.5,221.0,478.0,218.5,488.5,208.5,472.5,228.5,475.0,220.0,476.5,228.5,473.0,219.0,461.0,225.0,459.0,227.5,457.5,229.0,458.5,243.5,435.5,229.0,458.5,234.5,436.0,240.0,427.5,235.0,431.0,245.5,431.5,232.0,426.5,235.5,430.5,228.0,420.5,238.0,409.5,232.5,407.0,239.5,411.0,228.0,409.5" stroke="orange" stroke-width="1" fill="none" />
<polyline points="220.0,408.5,221.0,406.5,218.5,410.5" stroke="green" stroke-width="1" fill="none" />
<polyline points="" stroke="black" stroke-width="1" fill="none" />
<polyline points="234.0,438.0,244.0,429.5,245.0,434.5,234.5,445.5,247.5,450.5,243.0,443.5,242.0,447.5,249.0,452.5,245.0,460.5,229.5,463.5,236.0,472.5,230.0,480.0,230.0,466.5,227.0,478.5,218.0,487.5,213.5,487.5,217.5,483.5" stroke="yellow" stroke-width="1" fill="none" />
<polyline points="195.0,499.5,198.5,499.0,201.5,496.0,209.5,492.0,200.0,496.5,214.0,486.0,214.5,488.5,226.0,475.0" stroke="orange" stroke-width="1" fill="none" />
<polyline points="194.5,462.0,197.5,458.0,193.0,436.5,193.0,454.5,196.0,449.0,196.0,446.0" stroke="orange" stroke-width="1" fill="none" />
<polyline points="201.5,446.0,193.0,455.5,189.5,447.5,199.5,454.5,189.5,437.5,195.5,450.5,191.0,446.0,188.5,455.0,180.5,443.0,171.5,454.5,179.0,455.5,189.5,430.5,180.5,438.0,185.0,436.5,184.0,433.0,175.0,435.5,181.5,437.5,179.5,434.5,194.0,422.5,173.5,429.0,184.0,425.0,178.5,403.5,175.5,399.5,174.5,412.5,168.5,407.0,156.0,391.5,164.0,390.5,160.0,378.0,155.5,390.5,158.0,378.5,161.5,376.5,155.5,385.5" stroke="green" stroke-width="1" fill="none" />
<polyline points="172.0,364.0,175.0,353.5,175.5,351.5,165.0,346.5,164.0,368.0,184.0,355.0,187.5,357.0,174.0,351.5,183.5,342.0,177.0,340.5,182.5,340.5,180.0,345.5,189.0,331.5,195.0,338.0" stroke="green" stroke-width="1" fill="none" />
<polyline points="" stroke="black" stroke-width="1" fill="none" />
<polyline points="200.0,314.5,190.5,305.5,195.5,307.0,203.0,296.0,203.0,300.5,198.0,287.0,219.0,285.5,216.5,272.5,216.0,260.5,226.5,248.5,223.5,257.0,234.0,239.5,243.5,242.5,229.0,238.5,252.0,228.5,249.5,220.0,250.5,212.0,256.5,219.0,248.0,217.0" stroke="yellow" stroke-width="1" fill="none" />
<polyline points="" stroke="black" stroke-width="1" fill="none" />
<polyline points="" stroke="orange" stroke-width="1" fill="none" />
<polyline points="270.0,229.5,263.0,234.5,261.5,226.0,267.0,222.0,249.5,217.5,255.5,219.0,255.0,223.5,250.0,224.5,236.0,236.5,224.5,253.0,250.0,252.5,242.5,254.5,222.5,260.0,225.0,262.0,223.0,267.5,218.5,289.0,230.0,280.5,217.0,281.0,219.0,266.5,225.0,270.5,226.5,268.5,226.0,253.5,232.5,263.5,231.0,261.5,230.5,246.0,232.0,248.5,241.0,242.0,242.0,243.0,239.0,235.5,253.0,230.0,259.0,211.0,262.5,216.5,264.5,213.0,261.5,218.0,266.0,233.0,268.5,209.5,273.5,215.5,263.5,197.0,270.5,200.0,277.0,200.0,270.0,204.5,277.0,180.5" stroke="orange" stroke-width="1" fill="none" />
<polyline points="" stroke="orange" stroke-width="1" fill="none" />
<polyline points="264.0,195.5,262.5,200.0,249.5,203.5,248.0,210.0,250.5,223.5,251.0,228.0,239.5,223.0,238.0,235.5,221.0,223.0,232.0,234.0,237.0,238.5,231.0,215.5,227.0,223.5,218.5,219.5,229.5,213.0,229.0,224.5,237.0,205.0" stroke="green" stroke-width="1" fill="none" />
<polyline points="234.0,204.0,230.0,206.5,229.5,201.0,234.5,209.0,226.5,214.0,227.0,212.5,229.5,210.5" stroke="orange" stroke-width="1" fill="none" />
<polyline points="243.5,207.0,245.0,207.5" stroke="yellow" stroke-width="1" fill="none" />
<polyline points="" stroke="black" stroke-width="1" fill="none" />
<polyline points="233.0,185.0,259.5,191.5,258.0,206.0,255.0,184.0,236.0,194.0,252.0,189.5,250.5,186.5,246.5,195.5,253.0,189.5,263.5,181.0,274.0,181.5,270.5,174.0" stroke="orange" stroke-width="1" fill="none" />
<polyline points="269.0,173.0,270.5,175.0,267.5,180.5,265.0,186.5,256.0,188.5,263.0,191.0,257.0,198.0,247.0,188.5,260.0,209.0,241.5,216.0,258.0,209.0,246.5,206.5,260.5,196.0,256.0,186.5,258.0,187.0,252.0,176.0,246.5,168.0,252.5,175.0" stroke="black" stroke-width="1" fill="none" />
<polyline points="254.0,188.0,254.5,191.0,252.0,199.5,251.5,209.5,251.0,200.5" stroke="orange" stroke-width="1" fill="none" />
<polyline points="253.5,198.0,263.0,202.5,266.5,195.0,261.5,197.5,255.0,198.0,249.5,196.5,247.5,213.5,259.5,210.0,255.5,213.5,274.0,219.0,275.0,215.0,268.5,212.0" stroke="orange" stroke-width="1" fill="none" />
<polyline points="258.5,204.5,259.0,197.0,259.0,203.5,252.5,210.5,264.5,212.5,255.0,217.5,256.5,220.0,243.0,224.0,244.5,224.5" stroke="black" stroke-width="1" fill="none" />
<polyline points="228.5,229.5,227.0,233.5,233.5,222.5" stroke="orange" stroke-width="1" fill="none" />
<polyline points="219.5,219.5,224.5,220.0,231.5,217.0,222.5,216.5" stroke="yellow" stroke-width="1" fill="none" />
<polyline points="219.0,206.5,222.5,206.5,219.5,207.5,215.0,221.5,242.0,223.0" stroke="orange" stroke-width="1" fill="none" />
<polyline points="226.0,235.5" stroke="yellow" stroke-width="1" fill="none" />
<polyline points="218.0,237.5,217.5,244.0,216.0,255.5,217.5,240.5,221.0,244.0" stroke="black" stroke-width="1" fill="none" />
<polyline points="214.5,233.5,219.5,235.5,219.0,234.0,228.0,224.5,216.0,218.5,223.0,221.5,222.0,215.5,227.0,206.5,230.0,217.0" stroke="orange" stroke-width="1" fill="none" />
<polyline points="224.5,220.5,223.5,234.0,210.5,229.5,213.0,239.5,213.0,237.0" stroke="orange" stroke-width="1" fill="none" />
<polyline points="221.5,252.5,223.0,250.5,221.0,250.0,224.5,251.5,221.5,260.5,223.5,253.0,217.5,266.5,208.5,275.5,219.5,260.0,203.0,290.0,207.5,300.0,193.5,314.5,190.0,308.5,183.5,320.5,178.5,324.0,179.0,322.5,176.0,320.5,177.5,326.5,162.0,326.0,161.5,333.0,167.5,343.5,157.0,353.0,152.0,353.5,150.0,350.5" stroke="black" stroke-width="1" fill="none" />
<polyline points="141.5,334.5,135.5,334.5,149.5,340.0,146.0,333.0,152.5,327.5" stroke="yellow" stroke-width="1" fill="none" />
<polyline points="146.0,336.5,144.0,330.5,136.5,334.0" stroke="yellow" stroke-width="1" fill="none" />
<polyline points="122.0,348.5,124.0,344.5,129.5,348.0,139.5,335.0" stroke="yellow" stroke-width="1" fill="none" />
<polyline points="142.5,342.0,144.0,340.0,146.5,346.0,138.0,338.5,144.0,328.0,134.5,326.5,132.0,334.5,136.0,333.5,142.0,332.0,128.5,314.5,126.0,322.0,136.0,328.5,130.0,311.0,129.0,296.5,124.5,311.5" stroke="black" stroke-width="1" fill="none" />
<polyline points="" stroke="orange" stroke-width="1" fill="none" />
<polyline points="134.5,279.0,132.5,281.0,134.5,288.5,138.5,305.0,124.0,292.0,126.0,293.0" stroke="orange" stroke-width="1" fill="none" />
<polyline points="" stroke="yellow" stroke-width="1" fill="none" />
<polyline points="128.0,282.0,127.5,287.5,136.5,278.5,129.0,283.0" stroke="orange" stroke-width="1" fill="none" />
<polyline points="133.0,278.0,133.5,279.5,145.0,281.0,145.5,279.0,146.0,275.0" stroke="orange" stroke-width="1" fill="none" />
<polyline points="" stroke="black" stroke-width="1" fill="none" />
<polyline points="" stroke="green" stroke-width="1" fill="none" />
<polyline points="169.0,256.0,174.0,264.0,170.5,268.0,164.0,276.5" stroke="yellow" stroke-width="1" fill="none" />
<polyline points="172.0,257.5,170.5,260.5,162.5,261.0,165.0,254.5,167.0,253.5" stroke="yellow" stroke-width="1" fill="none" />
<polyline points="174.5,257.0,179.0,262.5" stroke="green" stroke-width="1" fill="none" />
<polyline points="" stroke="yellow" stroke-width="1" fill="none" />
<polyline points="185.0,262.0,182.0,266.0,182.0,267.5,188.5,253.5,184.0,261.0,184.0,262.5,179.0,267.0,178.0,272.0,181.5,269.0" stroke="orange" stroke-width="1" fill="none" />
<polyline points="" stroke="yellow" stroke-width="1" fill="none" />
<polyline points="173.5,272.5,176.5,262.5,176.0,267.0,178.0,273.0,179.5,274.0,192.0,264.5,187.5,264.5" stroke="orange" stroke-width="1" fill="none" />
<polyline points="185.0,248.5,187.5,261.0" stroke="orange" stroke-width="1" fill="none" />
<polyline points="204.0,266.5,204.5,261.5,208.0,261.0" stroke="orange" stroke-width="1" fill="none" />
<polyline points="213.0,270.5,212.5,274.5,208.0,271.5,202.5,265.5,205.0,244.5,217.0,251.5,220.5,256.5,211.5,235.0,211.0,243.5,212.5,230.0,208.5,232.0,221.0,214.5,220.5,225.0" stroke="yellow" stroke-width="1" fill="none" />
<polyline points="221.0,236.0,209.0,226.0,207.0,227.0,202.5,244.5" stroke="yellow" stroke-width="1" fill="none" />
<polyline points="200.5,248.5,202.0,250.0" stroke="green" stroke-width="1" fill="none" />
<polyline points="" stroke="green" stroke-width="1" fill="none" />
<polyline points="221.5,246.0,225.5,254.5,218.5,247.5,219.0,256.0,212.0,241.0,219.5,256.5,216.5,248.5,209.5,243.0,216.5,241.0" stroke="orange" stroke-width="1" fill="none" />
<polyline points="222.0,233.5,218.0,240.0,221.0,249.5,207.5,271.0" stroke="yellow" stroke-width="1" fill="none" />
<polyline points="203.5,261.5,213.0,243.0" stroke="yellow" stroke-width="1" fill="none" />
<polyline points="204.5,271.5,203.0,262.0,199.0,271.0,194.5,246.0,201.5,256.5,190.5,249.5,177.0,242.0,185.0,236.0,185.5,247.5" stroke="green" stroke-width="1" fill="none" />
<polyline points="192.0,244.5,192.0,245.0" stroke="yellow" stroke-width="1" fill="none" />
<polyline points="198.0,265.0,177.0,274.0,176.5,256.5,185.0,260.0,177.0,254.5,184.5,248.5,185.5,230.0,190.0,238.5,194.0,243.5,197.5,241.5,187.5,241.0,193.0,246.5,179.0,241.5,183.0,237.0" stroke="green" stroke-width="1" fill="none" />
<polyline points="183.0,238.0,178.0,242.0,199.0,234.0,179.5,235.0,190.0,221.5,194.0,225.0" stroke="orange" stroke-width="1" fill="none" />
<polyline points="194.5,217.5,189.5,213.0,184.0,214.0,193.5,221.0,190.0,237.0,187.5,232.0,194.0,238.5" stroke="green" stroke-width="1" fill="none" />
<polyline points="" stroke="black" stroke-width="1" fill="none" />
<polyline points="200.0,235.5,200.5,235.5,206.5,241.0,211.5,252.0,182.0,243.5,191.5,248.5,196.0,236.0,199.5,237.5,199.5,235.5,197.5,231.0,196.0,237.5,185.5,236.0,188.0,232.0,192.0,236.0" stroke="yellow" stroke-width="1" fill="none" />
<polyline points="" stroke="orange" stroke-width="1" fill="none" />
<polyline points="" stroke="orange" stroke-width="1" fill="none" />
<polyline points="214.0,206.5,218.5,216.5,216.5,219.0,215.0,226.5,218.0,238.0,211.0,221.5,212.0,230.5,216.5,222.0,214.5,233.0,220.0,241.0,199.0,236.5,210.5,236.5" stroke="black" stroke-width="1" fill="none" />
<polyline points="210.5,199.0,205.0,200.0,215.0,209.5,224.0,207.0,225.5,205.5,229.5,196.0,226.0,196.0,219.0,207.0,223.0,197.5,203.0,205.5,233.0,214.5,227.5,221.0,227.5,217.0,225.5,219.0,240.5,227.5,233.0,237.0,236.0,232.5,238.0,245.0,232.5,238.5,229.5,250.0,231.5,254.5,228.0,249.0,221.0,267.5,218.0,262.5,216.5,259.0,214.0,276.0,211.5,269.0,202.5,281.0,210.0,283.5,204.0,291.5,210.5,294.0,202.5,296.0,199.0,304.0,189.0,298.0,191.5,310.0,187.5,313.5,191.0,319.5,188.5,318.5,195.5,332.5,191.0,313.5,200.0,313.5,222.0,315.5,214.0,299.5,219.0,303.0,214.5,287.5,231.5,290.0,222.5,280.5,239.0,276.0,237.0,278.0,242.5,268.0,245.5,259.0,254.0,257.5,251.0,253.5,260.5,252.5,250.5,245.5,266.0,256.0,264.5,246.5,263.0,243.5,281.0,241.5,282.0,240.5,289.5,255.5,290.0,243.5,294.5,253.5,301.0,247.0,314.5,254.0,308.0,255.5,304.0,247.5" stroke="yellow" stroke-width="1" fill="none" />
<polyline points="287.0,256.5,295.5,261.0" stroke="yellow" stroke-width="1" fill="none" />
<polyline points="" stroke="orange" stroke-width="1" fill="none" />
<polyline points="281.0,287.0,283.5,282.5,286.5,285.5,282.5,275.5,285.5,279.5,284.0,272.5" stroke="green" stroke-width="1" fill="none" />
<polyline points="291.0,261.0" stroke="green" stroke-width="1" fill="none" />
<polyline points="" stroke="black" stroke-width="1" fill="none" />
<polyline points="272.5,267.5,276.5,271.5,283.5,270.0,269.0,265.0,269.5,268.0,266.0,260.0" stroke="yellow" stroke-width="1" fill="none" />
<polyline points="" stroke="yellow" stroke-width="1" fill="none" />
<polyline points="277.5,266.0,273.5,266.0,273.0,263.5,265.5,270.0" stroke="green" stroke-width="1" fill="none" />
<polyline points="269.0,273.0,273.0,269.5,265.5,290.5,281.0,271.5,273.5,273.0,266.5,281.5,262.5,279.0,270.0,272.5,277.0,277.0,278.0,287.0" stroke="black" stroke-width="1" fill="none" />
<polyline points="269.5,284.5,253.5,271.5" stroke="yellow" stroke-width="1" fill="none" />
<polyline points="252.0,282.5,251.0,277.5,261.0,272.5,252.0,280.5,244.0,274.5,247.0,265.5,246.0,271.0" stroke="green" stroke-width="1" fill="none" />
<polyline points="" stroke="yellow" stroke-width="1" fill="none" />
<polyline points="240.5,266.5,245.0,261.0,252.5,282.5,259.0,278.0,256.0,275.0,265.5,267.0,276.5,288.0,276.5,273.0,269.5,279.5,273.5,275.5,276.5,271.0" stroke="black" stroke-width="1" fill="none" />
<polyline points="288.0,255.5,287.0,261.5,291.0,257.0,289.5,269.5,286.0,252.5,278.0,259.5" stroke="green" stroke-width="1" fill="none" />
<polyline points="266.0,261.5,272.0,267.5,274.5,268.5,277.0,269.0,286.0,243.0,271.5,245.0,268.0,250.5,265.0,246.0,275.5,254.0,280.0,254.5,273.5,255.0" stroke="green" stroke-width="1" fill="none" />
<polyline points="272.0,257.5,276.0,253.0,271.5,248.0,275.5,249.5" stroke="black" stroke-width="1" fill="none" />
<polyline points="271.5,260.0,272.0,254.5,274.0,257.5,269.0,248.5,276.0,251.0,260.0,263.0,253.0,264.0,256.0,256.0,259.0,256.5,249.5,248.0" stroke="orange" stroke-width="1" fill="none" />
<polyline points="266.0,263.0,261.0,266.0,254.5,275.5,274.5,273.0,275.5,275.5,266.0,270.5,275.0,293.0" stroke="black" stroke-width="1" fill="none" />
<polyline points="286.5,268.0,287.0,265.5,287.5,269.0,287.5,277.0,281.0,279.5,288.0,276.0,292.0,277.5,301.0,277.0,286.5,281.5" stroke="green" stroke-width="1" fill="none" />
<polyline points="296.5,254.5,294.0,259.5" stroke="orange" stroke-width="1" fill="none" />
<polyline points="257.5,250.0,247.5,260.5,245.0,258.5,232.0,265.5,239.0,267.0,231.0,275.0,225.5,274.5,222.0,276.0,229.0,293.0,220.5,289.0,223.5,298.5,217.5,305.0,210.0,317.0,209.0,306.0,205.5,308.0,204.5,309.5,200.0,308.0,197.5,328.0,200.5,329.5,192.5,331.0,193.0,336.0,180.0,346.5,183.0,348.5,181.5,346.5,167.5,349.0,180.5,351.0,174.5,351.5,174.0,366.0,170.5,365.5,156.5,362.5,154.5,371.0,162.0,379.5,156.0,384.0,161.5,384.0,157.0,375.0" stroke="orange" stroke-width="1" fill="none" />
<polyline points="151.0,405.5,157.5,392.0,152.5,392.5,153.0,389.5,160.5,385.5,162.0,390.5,163.5,385.5" stroke="black" stroke-width="1" fill="none" />
<polyline points="152.5,376.0,156.5,373.5,155.0,365.5" stroke="orange" stroke-width="1" fill="none" />
<polyline points="148.0,380.5,141.0,380.0,144.0,376.0,130.0,373.5,137.5,361.0,130.5,354.5,141.0,364.0" stroke="green" stroke-width="1" fill="none" />
<polyline points="134.5,373.0,153.5,392.5,153.0,380.5" stroke="black" stroke-width="1" fill="none" />
<polyline points="140.0,393.5,143.5,396.0,147.0,395.5,144.0,398.0,135.5,394.0,147.5,406.0,127.0,414.0,129.5,416.0,127.5,410.0,129.5,427.5,136.0,413.5,145.5,420.5,144.5,433.0,135.5,423.5,130.5,435.5,143.0,444.0,131.5,446.0,147.0,451.0,136.0,451.0,141.5,461.0,136.5,466.0,140.5,463.0,134.0,473.0,138.5,475.5,149.0,473.0,153.0,491.5,151.5,471.5,160.5,477.5,159.0,488.0,172.0,479.0,164.0,489.0,168.5,490.0" stroke="yellow" stroke-width="1" fill="none" />
<polyline points="173.0,460.0,175.0,462.0,181.0,466.0,174.5,470.0,172.0,470.0" stroke="yellow" stroke-width="1" fill="none" />
<polyline points="177.5,475.0,167.5,479.0,185.5,445.0,175.0,460.5,179.5,448.5,169.5,446.5,170.5,454.0,159.5,444.5,165.0,425.0,163.0,437.5,158.0,430.0" stroke="yellow" stroke-width="1" fill="none" />
<polyline points="168.5,416.0,172.0,424.5,166.0,431.0,167.5,433.5,172.5,415.5,176.0,418.5" stroke="yellow" stroke-width="1" fill="none" />
<polyline points="164.0,421.5,160.5,429.0,164.0,427.0,169.0,415.0,164.5,424.5,159.5,429.5,169.0,430.0,168.5,425.0,152.5,422.0,157.5,420.5,155.0,399.5,163.5,407.5,155.5,396.0,159.5,398.0,149.5,386.5,161.0,391.0,154.5,379.5,161.0,371.0,149.5,373.0,149.5,370.5,152.5,365.5" stroke="green" stroke-width="1" fill="none" />
<polyline points="154.5,373.0,152.0,370.5,150.0,367.5,157.5,374.0,157.5,378.0,150.0,386.5,143.0,392.5,152.5,395.5,164.5,392.0,170.0,396.5,163.0,395.0,175.5,400.5,173.0,410.5,185.5,413.5,176.5,414.0" stroke="yellow" stroke-width="1" fill="none" />
<polyline points="169.0,413.0,167.0,416.5,165.5,419.5,172.0,424.0,168.0,426.5,182.0,428.5,180.0,439.5,179.5,438.5,167.0,448.0,173.5,434.0,157.5,453.5,168.0,452.0,175.0,459.5,180.0,461.0,174.5,457.0,166.0,473.0,167.0,467.5" stroke="orange" stroke-width="1" fill="none" />
<polyline points="174.0,465.5,179.5,462.5,184.0,462.5,178.0,470.5,178.0,456.5,172.5,462.0,178.5,457.0" stroke="black" stroke-width="1" fill="none" />
<polyline points="170.0,454.5,167.0,451.0,166.0,441.0,155.0,453.0,162.5,445.5,176.5,459.0,164.0,460.5,157.0,462.0,166.5,474.5,171.5,466.0,166.0,461.5,166.0,469.5,163.0,478.5,166.5,486.0,162.0,486.0,156.5,490.0,170.0,491.0,159.5,497.5,177.5,497.0,165.5,495.5" stroke="orange" stroke-width="1" fill="none" />
<polyline points="" stroke="yellow" stroke-width="1" fill="none" />
<polyline points="" stroke="black" stroke-width="1" fill="none" />
<polyline points="" stroke="yellow" stroke-width="1" fill="none" />
<polyline points="149.5,451.0,146.5,452.0,148.5,449.0,147.5,442.0,153.0,444.0,136.5,443.0,144.5,429.0,141.0,425.5,144.0,417.0,143.0,420.0,134.5,416.5,130.0,408.0,129.0,425.5" stroke="green" stroke-width="1" fill="none" />
<polyline points="" stroke="black" stroke-width="1" fill="none" />
<polyline points="" stroke="yellow" stroke-width="1" fill="none" />
<polyline points="136.5,398.0,145.5,405.5,145.5,399.5,148.5,401.5" stroke="black" stroke-width="1" fill="none" />
<polyline points="145.5,416.0,146.5,420.0,160.5,430.5,162.5,432.0,160.5,431.5,159.5,425.0,156.0,434.5,151.5,428.0,151.0,435.0" stroke="black" stroke-width="1" fill="none" />
<polyline points="174.0,438.5,179.5,443.0,168.0,449.0,164.5,456.5" stroke="yellow" stroke-width="1" fill="none" />
<polyline points="180.5,433.0,193.5,425.0,191.5,425.0,192.5,418.5,183.0,423.5,182.0,411.0,171.0,425.5,177.0,408.5,169.5,409.0,169.5,409.5,163.5,403.0,164.0,406.0" stroke="green" stroke-width="1" fill="none" />
<polyline points="168.5,411.0,171.0,411.5,168.5,411.5,161.5,409.0,163.0,400.0,176.0,418.0,177.0,414.0,176.5,422.0,163.5,435.5,179.0,425.0,156.0,428.0,164.5,436.5,186.5,417.5,162.5,440.0,168.0,435.5,157.0,426.5,160.0,432.0" stroke="green" stroke-width="1" fill="none" />
<polyline points="172.5,446.0,177.5,446.0" stroke="yellow" stroke-width="1" fill="none" />
<polyline points="159.5,438.0,158.5,442.0,162.5,447.0,163.0,448.5,160.0,451.5,162.0,452.5,152.0,456.0,162.0,459.0" stroke="black" stroke-width="1" fill="none" />
<polyline points="166.5,455.5,161.5,452.5,165.5,454.0,168.5,449.5,169.0,457.5,164.0,455.0" stroke="green" stroke-width="1" fill="none" />
<polyline points="157.5,451.5,157.0,456.5,146.0,449.0,138.0,448.0" stroke="green" stroke-width="1" fill="none" />
<polyline points="140.5,445.5,135.5,440.5,150.5,457.5,143.5,452.0,141.0,462.0,154.5,453.5,160.0,460.0" stroke="green" stroke-width="1" fill="none" />
<polyline points="147.0,450.5,148.5,448.0,146.5,439.5,146.0,447.5" stroke="yellow" stroke-width="1" fill="none" />
<polyline points="151.5,436.0,147.0,452.5,149.0,447.0,147.5,463.5,155.5,458.5,150.5,468.5,150.5,451.5,154.0,467.0,159.5,470.5,170.0,476.0,163.5,485.0,153.5,478.0,171.5,483.0,180.0,473.0,168.5,474.0" stroke="black" stroke-width="1" fill="none" />
<polyline points="" stroke="yellow" stroke-width="1" fill="none" />
<polyline points="153.0,473.0,156.0,466.0,163.5,479.0,172.0,481.0,167.0,471.0" stroke="black" stroke-width="1" fill="none" />
<polyline points="148.0,473.0,146.5,470.0,151.0,460.0,161.0,476.0,137.5,463.5,136.5,463.0,140.0,464.5,139.0,465.0" stroke="green" stroke-width="1" fill="none" />
<polyline points="152.5,446.0,148.0,450.0,143.0,461.5,133.0,470.0,150.5,479.0,140.0,470.0,159.0,469.0,158.0,484.0,160.0,497.5,162.5,500.5" stroke="green" stroke-width="1" fill="none" />
<polyline points="158.5,467.5,157.0,471.5,167.0,482.0,165.0,472.0,155.5,471.0,149.5,467.5,147.0,466.0" stroke="yellow" stroke-width="1" fill="none" />
<polyline points="142.5,462.5,140.5,462.5,153.0,458.0,142.5,449.5,154.0,470.0,143.5,475.5,156.5,465.0,151.0,476.0,155.5,480.5,162.0,476.5,157.0,481.0,166.5,486.0,151.5,490.5,175.5,506.0" stroke="yellow" stroke-width="1" fill="none" />
<polyline points="171.0,461.0,172.5,461.5,180.0,470.0,148.5,450.0,157.5,452.5,169.0,455.5,154.0,451.0,156.5,452.5,159.5,450.5,148.5,447.5,153.5,443.5,149.0,441.0,153.0,432.0,146.0,443.5,148.0,434.0,150.0,430.0,157.0,423.5,145.0,420.5,140.0,414.5,137.5,428.0" stroke="yellow" stroke-width="1" fill="none" />
<polyline points="" stroke="yellow" stroke-width="1" fill="none" />
<polyline points="" stroke="orange" stroke-width="1" fill="none" />
<polyline points="153.0,418.0,147.5,427.0,147.0,416.0,146.5,406.0,145.5,401.5,145.5,397.0" stroke="green" stroke-width="1" fill="none" />
<polyline points="144.5,419.0,138.5,405.0,139.0,414.5,140.0,413.0,146.0,417.0,148.0,424.5,154.5,429.0,149.0,428.5,148.5,423.5,153.5,419.0" stroke="orange" stroke-width="1" fill="none" />
<polyline points="158.0,410.5,157.5,414.5,158.0,413.5,155.0,417.5,154.0,426.0,150.0,396.0,152.5,403.0,136.5,392.5,141.5,382.0,143.0,385.5" stroke="orange" stroke-width="1" fill="none" />
<polyline points="157.0,400.5,158.0,403.5,147.5,405.5,160.5,393.5,144.5,396.0,149.5,403.0,148.5,401.5,145.0,401.5" stroke="orange" stroke-width="1" fill="none" />
<polyline points="153.0,387.0,154.5,399.0,153.5,389.0,150.5,387.5" stroke="orange" stroke-width="1" fill="none" />
<polyline points="136.5,394.5,135.5,408.0,132.5,405.0,123.5,392.0,125.5,400.5,117.0,405.0,120.0,401.5" stroke="black" stroke-width="1" fill="none" />
<polyline points="116.5,398.5,117.0,398.5,114.5,399.0,129.5,386.0,119.5,390.0,113.5,390.5,117.0,393.5" stroke="orange" stroke-width="1" fill="none" />
<polyline points="141.0,401.0,142.5,395.5,140.0,394.5,135.5,384.5,146.5,384.0,152.5,385.0,140.0,385.0,145.5,378.5,140.0,374.5,154.5,366.5,144.5,367.5,156.5,354.0,141.5,352.0,147.5,362.0,152.5,354.5,127.0,346.0,139.5,342.0,141.5,332.5,129.0,337.0,141.5,331.5,134.0,325.5,147.0,315.0,134.5,316.0,135.5,299.5,127.0,304.0,130.5,315.0,121.5,294.5,128.5,292.0,142.0,285.0,138.5,292.0,133.0,278.5,128.0,282.0,106.5,259.0" stroke="green" stroke-width="1" fill="none" />
<polyline points="123.5,281.0,134.0,285.0,136.0,290.5,120.0,286.0,134.0,296.5,112.5,304.5,115.0,312.0,125.5,309.0,128.5,319.0,119.5,325.0,123.0,322.0,125.0,319.5,123.5,341.0" stroke="yellow" stroke-width="1" fill="none" />
<polyline points="121.0,342.0,121.0,339.0,125.5,339.0,124.0,333.5" stroke="green" stroke-width="1" fill="none" />
<polyline points="124.5,342.0,123.0,342.5,120.0,354.5,118.0,350.0,115.0,352.0,116.0,357.0,122.0,361.0,120.5,364.0,122.5,376.5,102.0,372.5,116.0,383.0,127.5,383.0,119.0,397.0,120.5,377.5,115.5,402.0,127.0,387.0,114.5,386.0,121.5,388.5,119.0,386.0" stroke="black" stroke-width="1" fill="none" />
<polyline points="120.0,397.0,121.0,402.0,119.5,402.5,124.5,406.5,122.0,386.5,107.0,385.0,122.0,400.5,116.0,389.0,119.0,377.0,120.5,376.5,120.0,368.5,121.5,374.0,116.0,365.5,114.0,372.5,111.0,363.5,95.5,363.5" stroke="black" stroke-width="1" fill="none" />
<polyline points="124.0,385.0,129.0,387.0" stroke="black" stroke-width="1" fill="none" />
<polyline points="124.0,399.0,123.5,398.5,122.0,403.0,122.5,393.5,120.5,393.5,125.0,388.0,136.5,380.5,127.5,399.5,123.5,389.0,117.5,391.0,118.0,390.5,113.5,388.0" stroke="yellow" stroke-width="1" fill="none" />
<polyline points="" stroke="orange" stroke-width="1" fill="none" />
<polyline points="" stroke="green" stroke-width="1" fill="none" />
<polyline points="107.5,411.5,115.0,407.5,111.0,406.0,107.5,408.0" stroke="yellow" stroke-width="1" fill="none" />
<polyline points="110.5,416.5,118.0,401.5,124.5,403.5,132.5,408.5" stroke="orange" stroke-width="1" fill="none" />
<polyline points="126.5,427.0,132.0,435.0,126.5,437.0,132.0,429.5,135.0,422.0,129.5,426.0,137.0,421.5,144.0,422.5,139.5,425.0,137.0,426.0,133.5,422.5" stroke="green" stroke-width="1" fill="none" />
<polyline points="136.0,399.0,135.5,401.5,134.0,403.0,136.0,400.0" stroke="black" stroke-width="1" fill="none" />
<polyline points="159.0,415.0,152.5,412.0,154.0,406.0,154.0,413.5,150.0,413.5" stroke="orange" stroke-width="1" fill="none" />
<polyline points="" stroke="black" stroke-width="1" fill="none" />
<polyline points="" stroke="yellow" stroke-width="1" fill="none" />
<polyline points="" stroke="black" stroke-width="1" fill="none" />
<polyline points="167.0,402.5,167.0,404.0,165.0,405.0,174.0,396.5,175.0,406.5,183.0,401.5,172.5,414.5,169.0,420.5,174.0,404.0" stroke="yellow" stroke-width="1" fill="none" />
<polyline points="182.5,428.5,179.0,421.0,173.0,402.0,167.5,410.0,156.5,412.0,152.0,410.5,154.5,403.0,142.0,394.0,137.5,393.0,143.5,380.5,140.0,406.0,137.0,394.5,135.5,372.0,141.5,378.5,136.5,382.5,121.0,369.0,131.0,356.5,134.0,369.0,138.5,361.5,130.5,347.5,147.5,359.5,155.5,355.0,149.5,355.5,141.5,350.0,134.5,341.5,133.0,336.5,127.0,337.0,130.0,337.5,124.0,320.5,122.5,328.5,139.5,331.0" stroke="black" stroke-width="1" fill="none" />
<polyline points="117.0,336.0,124.0,330.5,110.0,331.0,125.0,338.0,117.5,343.0" stroke="orange" stroke-width="1" fill="none" />
<polyline points="118.5,364.5,119.0,361.0,128.5,369.5,127.5,369.5,137.0,371.0,127.0,368.5,126.0,382.5,145.5,381.0,139.5,378.5" stroke="orange" stroke-width="1" fill="none" />
<polyline points="" stroke="black" stroke-width="1" fill="none" />
<polyline points="" stroke="green" stroke-width="1" fill="none" />
<polyline points="142.0,371.5,142.5,366.5,148.5,366.0,135.5,372.0,142.5,375.5,137.0,367.0" stroke="black" stroke-width="1" fill="none" />
<polyline points="150.5,345.0,147.5,350.5,132.0,369.5,127.0,349.0,118.5,351.5,127.5,342.0,119.5,333.0,125.5,338.0" stroke="yellow" stroke-width="1" fill="none" />
<polyline points="133.5,366.5,145.0,357.0,148.0,368.0,145.0,364.5,154.0,363.5,151.0,373.0,159.0,360.5" stroke="black" stroke-width="1" fill="none" />
<polyline points="131.0,377.0,142.5,375.0,146.5,375.0,146.5,373.5,151.5,363.0,148.0,365.5,144.0,351.5,141.5,359.0,138.5,348.0,138.5,345.5,138.5,333.5,126.5,329.5,116.0,330.5" stroke="black" stroke-width="1" fill="none" />
<polyline points="144.5,336.5" stroke="orange" stroke-width="1" fill="none" />
<polyline points="158.5,340.0,142.5,347.0,135.5,330.5,136.5,328.0,132.5,326.5" stroke="black" stroke-width="1" fill="none" />
<polyline points="149.5,343.0,144.5,348.5,140.5,347.0,139.0,347.0,125.5,347.5,136.0,339.5,137.5,347.5,136.0,337.5,132.0,347.5" stroke="orange" stroke-width="1" fill="none" />
<polyline points="" stroke="yellow" stroke-width="1" fill="none" />
<polyline points="117.5,350.0,119.5,352.5,120.5,351.5,113.0,342.5,112.5,346.5,114.5,355.5,127.0,351.5,121.0,365.5,107.0,377.0,118.0,371.5,116.5,370.5,114.0,370.5,111.0,379.5,118.0,391.5,126.5,393.5,118.0,390.5,115.5,393.0,121.0,403.0,121.0,418.0,127.5,407.5,114.5,415.0,118.0,434.0,118.5,421.0,119.5,420.5,115.5,422.0" stroke="orange" stroke-width="1" fill="none" />
<polyline points="" stroke="orange" stroke-width="1" fill="none" />
<polyline points="109.5,426.5" stroke="green" stroke-width="1" fill="none" />
<polyline points="" stroke="black" stroke-width="1" fill="none" />
<polyline points="" stroke="orange" stroke-width="1" fill="none" />
<polyline points="127.5,442.5,125.5,435.0,118.0,440.0,130.5,425.0,112.0,444.5,117.5,441.0" stroke="green" stroke-width="1" fill="none" />
<polyline points="" stroke="green" stroke-width="1" fill="none" />
<polyline points="113.0,450.0,117.5,449.5,134.5,449.5,131.0,454.5,134.5,456.5,131.0,457.5" stroke="orange" stroke-width="1" fill="none" />
<polyline points="125.5,463.0,121.0,459.5,121.5,455.5,123.5,455.0,125.5,457.5,126.5,456.0" stroke="green" stroke-width="1" fill="none" />
<polyline points="97.0,441.0,102.0,440.0,102.5,436.0,115.0,441.0,111.0,437.5,109.5,440.0" stroke="yellow" stroke-width="1" fill="none" />
<polyline points="102.0,430.5,101.0,436.0,102.0,444.0,105.5,448.5,100.0,443.0,105.0,443.5" stroke="black" stroke-width="1" fill="none" />
<polyline points="" stroke="black" stroke-width="1" fill="none" />
<polyline points="98.0,446.5,98.0,447.0,92.0,460.0,82.0,455.0,90.5,456.0,99.5,450.5,95.5,455.5,93.5,448.5,101.5,454.5,95.0,457.0" stroke="black" stroke-width="1" fill="none" />
<polyline points="88.5,460.5,89.0,469.0,106.5,463.5,90.0,478.0,83.5,482.5" stroke="yellow" stroke-width="1" fill="none" />
<polyline points="103.0,487.5,106.0,497.0,91.0,493.0,96.0,499.0,106.0,504.5,105.0,503.5" stroke="orange" stroke-width="1" fill="none" />
<polyline points="115.5,518.5,114.0,520.5,111.0,501.0,110.0,500.0,108.0,486.5,113.0,477.5,117.5,490.0,113.5,486.5" stroke="black" stroke-width="1" fill="none" />
<polyline points="" stroke="green" stroke-width="1" fill="none" />
<polyline points="" stroke="yellow" stroke-width="1" fill="none" />
<polyline points="105.5,504.0,104.0,506.5,103.5,509.0,105.5,513.0,100.5,511.0,105.5,502.5,103.5,495.0" stroke="green" stroke-width="1" fill="none" />
<polyline points="111.0,522.0,128.5,509.0,123.0,509.5,117.5,498.0,121.0,503.0,110.5,495.0,123.5,497.5,116.5,487.5,113.5,493.5,116.0,492.5" stroke="black" stroke-width="1" fill="none" />
<polyline points="124.5,469.5,129.5,470.0,132.0,476.0,133.0,503.5,130.0,498.0,138.0,500.5,127.0,506.5,127.5,504.5,132.5,521.5" stroke="orange" stroke-width="1" fill="none" />
<polyline points="154.0,444.0,131.0,433.5,140.5,428.5,135.5,423.0,137.5,429.5,132.5,418.5" stroke="green" stroke-width="1" fill="none" />
<polyline points="133.0,429.5,134.0,426.5,135.0,426.5,135.0,424.5,142.0,427.0,139.0,433.0,143.0,439.5,136.0,439.5,140.5,448.5,149.5,439.0,146.5,448.0,136.0,456.5,129.0,449.5" stroke="yellow" stroke-width="1" fill="none" />
<polyline points="" stroke="green" stroke-width="1" fill="none" />
<polyline points="138.5,433.5,147.0,434.5,133.5,434.5,121.0,421.0,124.0,427.0" stroke="green" stroke-width="1" fill="none" />
<polyline points="107.5,433.0,106.5,427.0,99.5,425.5,119.0,423.5,121.5,420.0,105.0,422.5,102.5,423.5,106.0,422.5" stroke="yellow" stroke-width="1" fill="none" />
<polyline points="115.5,429.0,112.0,425.5" stroke="black" stroke-width="1" fill="none" />
<polyline points="102.5,423.0,108.0,430.0,116.0,441.0,113.5,435.5,109.5,438.0" stroke="green" stroke-width="1" fill="none" />
<polyline points="96.5,436.0,102.0,449.0,94.5,440.0,88.0,445.0,88.0,436.5,100.5,450.5,106.0,436.0,93.5,425.5,101.0,439.0,108.5,431.5,105.5,428.0,116.5,421.0,110.5,412.5,116.5,417.5,123.0,421.5" stroke="black" stroke-width="1" fill="none" />
<polyline points="96.5,421.0,93.0,416.5,84.5,414.0,81.5,414.0,100.5,432.5,100.0,417.5,83.5,429.0,99.0,422.0,96.5,424.0,91.5,428.5,80.5,418.0" stroke="black" stroke-width="1" fill="none" />
<polyline points="81.0,415.5,90.5,431.5,83.0,429.0,87.0,421.5,85.5,438.5,89.5,429.5,93.5,434.0,95.0,432.0" stroke="orange" stroke-width="1" fill="none" />
<polyline points="108.0,410.0,102.5,411.5,95.0,406.0,95.5,402.0" stroke="yellow" stroke-width="1" fill="none" />
<polyline points="" stroke="orange" stroke-width="1" fill="none" />
<polyline points="106.5,398.0,87.5,395.5,90.0,394.5" stroke="green" stroke-width="1" fill="none" />
<polyline points="109.0,410.0,97.5,412.0,88.5,401.5,97.0,394.0,90.0,402.0,88.5,378.5,93.0,402.5,92.5,383.5,87.0,380.5,81.0,384.5" stroke="black" stroke-width="1" fill="none" />
<polyline points="69.0,401.0,67.0,406.5,75.0,387.0,81.5,394.5,72.0,391.0,78.5,405.5,64.0,419.0,66.0,423.5,60.0,416.5,69.5,410.5,64.5,423.5,73.0,420.0,68.0,423.5,67.5,422.5,66.5,440.0,72.5,439.0,62.5,436.5,74.0,448.0,76.0,451.0,72.0,448.0,74.5,443.5,73.0,457.5,63.0,454.0,66.5,467.5,63.0,476.5,74.5,475.0,58.5,470.5,71.0,484.5,64.5,499.0,72.0,495.5,60.0,504.5,61.0,508.5,73.0,511.0,58.5,511.0,79.0,516.5,60.0,516.5,57.0,509.5,70.0,514.5,67.5,519.0" stroke="black" stroke-width="1" fill="none" />
<polyline points="52.0,501.0,47.5,506.0" stroke="yellow" stroke-width="1" fill="none" />
<polyline points="" stroke="green" stroke-width="1" fill="none" />
<polyline points="64.5,480.5,63.0,477.0,69.0,478.0,67.5,495.0,56.5,488.5,74.0,499.5" stroke="yellow" stroke-width="1" fill="none" />
<polyline points="73.0,460.5,77.5,464.5,72.5,471.5,77.0,460.0,78.0,457.0,73.0,457.5,63.0,457.0,72.5,467.0,61.5,453.0,66.0,442.0" stroke="black" stroke-width="1" fill="none" />
<polyline points="71.5,460.5,84.0,469.5" stroke="orange" stroke-width="1" fill="none" />
<polyline points="" stroke="yellow" stroke-width="1" fill="none" />
<polyline points="63.5,456.0,60.0,456.5,68.0,453.0,58.0,464.5,70.5,460.5,62.5,461.5,65.0,475.5,75.0,466.0,76.0,466.0,64.0,477.0,71.5,481.0,73.5,487.5,70.5,476.5,70.0,477.5" stroke="orange" stroke-width="1" fill="none" />
<polyline points="34.5,488.5" stroke="orange" stroke-width="1" fill="none" />
<polyline points="5.5,486.5,15.5,490.5" stroke="black" stroke-width="1" fill="none" />
<polyline points="11.0,514.0,11.5,508.5,15.0,502.0,11.5,502.5" stroke="black" stroke-width="1" fill="none" />
<polyline points="" stroke="yellow" stroke-width="1" fill="none" />
<polyline points="5.0,411.0,10.5,414.5,17.0,431.5,15.0,439.5,5.0,428.0,10.0,440.5,5.5,456.5,15.0,443.0,21.0,452.5,9.5,452.0,8.0,450.0,20.5,462.0,13.5,467.0,22.0,467.0,23.5,463.5,11.0,485.5,8.5,488.0,6.5,490.5" stroke="green" stroke-width="1" fill="none" />
<polyline points="24.5,443.5,28.0,443.0,25.5,449.0,24.0,449.0,26.5,460.0,33.0,445.5,35.5,450.5,36.5,455.0,27.5,435.0,40.5,440.0,28.0,426.5,29.0,429.0" stroke="orange" stroke-width="1" fill="none" />
<polyline points="24.5,422.0,27.0,415.5,25.5,417.5,19.5,414.0,17.5,409.5,19.5,421.5" stroke="yellow" stroke-width="1" fill="none" />
<polyline points="27.5,420.0,27.0,423.5,34.5,435.0,25.0,422.0,18.5,440.5,34.0,442.0,24.5,441.0,34.0,456.5,30.0,450.0,21.0,455.5,28.5,451.0,27.0,472.5,29.5,481.5,30.0,471.0,37.0,478.5,34.0,485.0,33.0,487.0,37.5,485.5,31.0,494.0,21.0,495.0,29.5,497.5,23.5,497.0,36.5,493.0,32.5,491.0" stroke="green" stroke-width="1" fill="none" />
<polyline points="" stroke="orange" stroke-width="1" fill="none" />
<polyline points="57.0,443.0,60.0,439.5,62.0,441.0,61.0,444.5,50.5,414.0,55.0,419.5,55.5,401.5,61.5,406.0,74.0,410.5,72.0,398.0,73.0,394.0,77.0,401.0,69.0,400.0,74.0,407.0,67.5,400.5,65.5,399.0" stroke="orange" stroke-width="1" fill="none" />
<polyline points="81.0,405.5,83.0,399.0,80.5,408.5,83.5,412.0" stroke="black" stroke-width="1" fill="none" />
<polyline points="64.5,400.5,74.5,411.5,62.0,406.5,66.5,421.0,59.5,418.0" stroke="yellow" stroke-width="1" fill="none" />
<polyline points="67.5,425.0,77.5,421.0,77.5,402.0,69.5,409.5,67.5,408.0,63.0,416.5,69.0,411.5,67.5,407.5" stroke="green" stroke-width="1" fill="none" />
<polyline points="68.0,410.5,72.5,415.0,66.5,413.5,73.0,428.5,62.5,413.0,67.5,421.0" stroke="green" stroke-width="1" fill="none" />
<polyline points="101.5,431.0,106.5,428.5,102.5,441.5,102.5,439.0,98.0,438.0,104.5,444.0,92.0,445.5,96.5,438.0,103.5,444.5" stroke="orange" stroke-width="1" fill="none" />
<polyline points="117.0,399.0,106.5,402.5,116.0,402.5,112.0,402.5,113.0,391.0,118.0,399.0,114.0,409.5" stroke="black" stroke-width="1" fill="none" />
<polyline points="104.0,388.5,106.5,402.5,107.0,400.0,120.5,408.5,95.5,406.0,94.0,414.5" stroke="green" stroke-width="1" fill="none" />
<polyline points="103.0,400.5,100.0,404.0,101.0,410.5,98.5,402.0" stroke="green" stroke-width="1" fill="none" />
<polyline points="105.0,365.0,99.0,368.5,106.5,363.0,109.5,347.0,101.5,366.5,122.5,356.5,112.5,349.5,108.0,349.0" stroke="green" stroke-width="1" fill="none" />
<polyline points="107.0,332.5,105.5,334.5,109.5,325.5,110.5,332.5" stroke="green" stroke-width="1" fill="none" />
<polyline points="" stroke="black" stroke-width="1" fill="none" />
<polyline points="121.0,308.0,122.0,311.0,121.5,316.0,111.5,310.5,118.0,310.0,110.0,309.0,124.0,310.5,111.5,320.5,108.0,317.5,102.0,320.0,111.0,312.5,116.5,313.5,101.0,319.5,111.5,320.5,103.0,315.5,112.5,320.5,123.0,320.0,118.0,314.5,122.5,320.5" stroke="black" stroke-width="1" fill="none" />
<polyline points="122.5,332.0,93.0,336.0,109.5,337.5,96.0,342.0,100.5,342.0" stroke="green" stroke-width="1" fill="none" />
<polyline points="" stroke="yellow" stroke-width="1" fill="none" />
<polyline points="92.0,359.0,96.0,360.5,92.5,359.5,92.0,371.0,91.5,370.0,93.5,378.0,96.0,372.0,84.0,380.0,84.0,392.5,83.5,400.5,94.5,396.5,85.5,390.0,90.0,407.5,92.5,414.0,88.5,407.5,91.5,409.0,101.5,419.5,107.5,417.5" stroke="yellow" stroke-width="1" fill="none" />
<polyline points="130.5,365.0,140.5,374.0" stroke="yellow" stroke-width="1" fill="none" />
<polyline points="131.5,368.0,126.5,371.5,113.5,365.5,131.0,365.5,127.5,379.5,126.0,378.5,135.5,374.0,121.0,389.0" stroke="orange" stroke-width="1" fill="none" />
<polyline points="125.0,372.0,131.0,375.0,134.0,365.0" stroke="yellow" stroke-width="1" fill="none" />
<polyline points="127.0,356.5,121.0,365.5,124.0,380.5,135.0,372.0,133.0,383.0,131.5,385.5,133.0,379.5,125.0,371.5,132.0,372.0" stroke="orange" stroke-width="1" fill="none" />
<polyline points="142.5,373.0,140.0,372.5,138.0,367.0,134.0,378.0,139.0,360.0,122.5,355.5,123.0,360.0,117.5,361.0" stroke="orange" stroke-width="1" fill="none" />
<polyline points="121.0,372.5,130.0,370.0,132.5,366.0,119.0,350.5,114.0,364.0,134.0,369.5,129.5,364.0,126.0,369.0,150.0,351.5,155.5,387.5,147.0,372.0,136.5,374.0,142.5,379.0,141.5,379.0" stroke="green" stroke-width="1" fill="none" />
<polyline points="172.5,368.5,183.0,355.0,175.0,356.0,176.0,344.5" stroke="black" stroke-width="1" fill="none" />
<polyline points="192.0,326.0,194.5,334.0,182.0,316.0,174.0,330.0,185.0,336.5,173.5,344.5,163.5,346.0,153.5,363.5,154.5,370.0,152.0,371.5,169.5,364.0,153.0,354.5,181.0,346.5,179.5,344.0,179.5,339.0,184.0,336.0,186.0,335.0,184.5,331.5,186.5,339.0,186.5,338.0,196.0,342.0,175.5,337.0,181.0,346.5" stroke="green" stroke-width="1" fill="none" />
<polyline points="193.0,350.5,202.5,343.5" stroke="orange" stroke-width="1" fill="none" />
<polyline points="" stroke="yellow" stroke-width="1" fill="none" />
<polyline points="172.5,369.0,170.5,367.0,172.0,362.5,162.5,364.5,159.5,365.0,158.5,364.0" stroke="orange" stroke-width="1" fill="none" />
<polyline points="154.0,362.5,158.0,366.5,159.0,358.5,172.5,353.5,175.0,362.0,166.5,364.0,156.5,356.0,158.5,363.5,177.0,358.0,166.0,350.5,186.5,367.5,183.5,343.5,169.5,345.5,187.5,345.5,179.0,338.5,183.0,343.5,170.0,327.0,168.0,345.5,167.0,344.5,167.5,336.5" stroke="yellow" stroke-width="1" fill="none" />
<polyline points="173.5,332.0,166.0,321.5" stroke="orange" stroke-width="1" fill="none" />
<polyline points="159.5,320.5" stroke="orange" stroke-width="1" fill="none" />
<polyline points="183.0,319.0,181.5,317.0,180.5,330.0,165.0,308.0,168.0,323.5,156.0,331.5,169.0,316.5,161.5,329.5,158.5,343.0,141.5,339.0,137.0,332.0,150.0,343.0,159.0,340.0,135.0,332.0,132.0,338.5,135.0,332.5,141.5,333.5,133.5,323.5,142.0,324.0,141.0,318.0,133.5,321.5,131.5,312.0,115.5,303.0,128.5,292.5,148.5,301.0,145.5,297.0,139.0,285.0,144.0,278.0,144.5,280.0,134.0,278.0,122.0,276.0,143.5,275.0,144.0,269.5,154.0,269.5,138.0,276.5,152.0,276.5,156.0,264.0,157.0,263.0,160.0,255.5,158.5,247.0,164.5,256.5,161.0,246.5,160.5,236.0" stroke="black" stroke-width="1" fill="none" />
<polyline points="152.5,254.5,149.0,251.0,150.0,244.5" stroke="yellow" stroke-width="1" fill="none" />
<polyline points="139.0,261.5" stroke="black" stroke-width="1" fill="none" />
<polyline points="147.5,261.0,152.0,263.5,140.0,260.5,149.5,267.5,146.0,262.5,145.0,262.5" stroke="black" stroke-width="1" fill="none" />
<polyline points="136.5,270.0,158.0,262.5,158.5,251.0,165.5,256.0,163.5,261.0,153.5,260.5,143.0,276.0,142.5,268.5,149.5,273.0,153.5,277.0,149.0,283.0,159.5,295.0,158.5,295.0,143.5,298.0,165.5,305.0,154.0,304.5,158.5,308.0,158.5,322.0,164.5,296.5,166.5,325.5,154.0,315.0,166.0,315.5,175.0,329.5,167.0,306.5,167.0,312.0,171.0,307.5" stroke="orange" stroke-width="1" fill="none" />
<polyline points="185.0,299.0,178.5,300.5,184.5,295.0,180.0,298.5,176.5,296.5" stroke="yellow" stroke-width="1" fill="none" />
<polyline points="" stroke="black" stroke-width="1" fill="none" />
<polyline points="182.0,308.0,188.0,304.5,184.0,299.0,190.5,314.0,187.0,312.0,182.5,309.0,168.0,313.5,184.5,304.5,189.5,308.5" stroke="green" stroke-width="1" fill="none" />
<polyline points="166.5,311.5,170.5,318.0,177.0,324.5,169.5,311.5" stroke="black" stroke-width="1" fill="none" />
<polyline points="169.5,297.5,163.0,308.0,166.0,306.5,164.5,301.0,164.5,292.5,167.5,292.0,170.0,276.5,174.5,288.5,173.0,287.0,155.5,300.0,169.0,279.0,177.5,281.5,171.0,265.5,172.0,270.5,184.5,269.5,166.5,291.5,172.5,280.5,159.5,280.5,162.5,290.5,160.5,287.5,163.0,276.5,160.5,280.0,149.5,286.0,162.5,267.5,163.5,270.5,165.0,254.0,172.5,261.5,173.5,270.0,163.0,252.5,177.5,252.0,177.0,243.0,178.0,240.5,181.0,232.0,179.0,233.5" stroke="orange" stroke-width="1" fill="none" />
<polyline points="179.0,228.0,180.0,226.0,176.5,228.5,171.5,231.5,176.5,242.0,179.0,248.0,175.5,249.0,173.5,245.5,164.0,255.5,176.0,263.0,188.5,259.5,199.0,258.0" stroke="green" stroke-width="1" fill="none" />
<polyline points="200.0,270.0,188.5,265.0,193.0,265.0" stroke="black" stroke-width="1" fill="none" />
<polyline points="223.0,285.5,220.5,289.0,218.0,290.0,219.5,283.0,225.0,269.5,223.0,272.0" stroke="yellow" stroke-width="1" fill="none" />
<polyline points="217.5,318.0,219.0,327.5,227.5,331.0,221.0,333.5,222.5,344.5,219.0,339.5,218.5,348.0,217.5,353.5,215.5,353.5" stroke="orange" stroke-width="1" fill="none" />
<polyline points="258.5,386.0,257.0,373.5" stroke="yellow" stroke-width="1" fill="none" />
<polyline points="251.5,393.5,244.0,383.0" stroke="green" stroke-width="1" fill="none" />
<polyline points="" stroke="orange" stroke-width="1" fill="none" />
<polyline points="281.5,341.0,280.0,347.5,280.5,350.0,270.5,344.5,262.5,346.0,263.0,354.0,263.5,350.0,256.5,361.5" stroke="green" stroke-width="1" fill="none" />
<polyline points="224.5,351.5,215.5,361.5,216.0,371.5,227.5,353.0,222.5,357.5,214.0,356.0,230.0,332.5,224.5,337.0,228.0,344.5,216.0,330.5,226.5,322.0,223.5,316.5,223.5,313.5,227.5,314.5,215.5,303.0" stroke="black" stroke-width="1" fill="none" />
<polyline points="180.5,301.0,177.5,305.0,165.5,309.5" stroke="yellow" stroke-width="1" fill="none" />
<polyline points="173.0,318.0,177.0,315.0,179.0,314.5,179.5,311.5,174.5,310.0" stroke="orange" stroke-width="1" fill="none" />
<polyline points="158.0,302.5,156.5,308.0" stroke="yellow" stroke-width="1" fill="none" />
<polyline points="" stroke="orange" stroke-width="1" fill="none" />
<polyline points="165.5,310.0,165.5,303.5,165.0,317.0,155.0,316.0,157.5,308.0,156.0,308.5,161.0,317.5" stroke="green" stroke-width="1" fill="none" />
<polyline points="" stroke="green" stroke-width="1" fill="none" />
<polyline points="161.0,306.0,165.5,301.0,170.5,310.0,158.0,304.0,158.5,305.0" stroke="yellow" stroke-width="1" fill="none" />
<polyline points="" stroke="orange" stroke-width="1" fill="none" />
<polyline points="" stroke="yellow" stroke-width="1" fill="none" />
<polyline points="165.0,293.5,178.5,295.0,182.5,282.0" stroke="green" stroke-width="1" fill="none" />
<polyline points="165.0,296.0,164.0,292.0,162.5,310.5,167.0,319.5,164.5,315.0,159.5,314.5" stroke="green" stroke-width="1" fill="none" />
<polyline points="170.5,297.0,170.5,297.0,170.5,296.5,153.5,292.0,153.0,290.0,155.0,298.0,166.5,301.0" stroke="orange" stroke-width="1" fill="none" />
<polyline points="144.0,304.5,152.0,295.0,146.0,300.5,170.5,287.0,176.5,303.0,172.0,295.5,164.5,291.5" stroke="green" stroke-width="1" fill="none" />
<polyline points="172.0,317.0,167.5,315.5,166.0,310.5,178.0,292.0,161.5,306.5,169.0,313.5,179.5,313.0,161.0,322.0,159.5,341.0,159.0,335.0,153.0,330.5,157.5,347.0,151.5,343.5,152.5,354.5,152.5,348.5,150.5,357.0,149.0,369.5,144.5,351.0,160.5,358.5,149.5,346.0,150.0,356.0,168.0,340.0,168.0,341.5,169.5,339.5,169.0,339.5,172.5,342.0,170.5,342.5,163.5,341.0" stroke="orange" stroke-width="1" fill="none" />
<polyline points="148.0,303.5,148.0,309.0,153.5,295.5,169.0,302.5" stroke="orange" stroke-width="1" fill="none" />
<polyline points="158.5,272.5,176.0,269.0,164.5,262.5,167.0,264.5,169.5,260.5,160.0,254.0,157.0,252.0" stroke="orange" stroke-width="1" fill="none" />
<polyline points="163.5,241.0,159.5,255.0,153.5,268.0,166.0,272.0,169.0,272.0,160.0,265.5,158.0,267.5" stroke="yellow" stroke-width="1" fill="none" />
<polyline points="158.0,288.5,152.0,289.5,168.5,286.5,163.0,288.0,160.0,285.5" stroke="green" stroke-width="1" fill="none" />
<polyline points="148.5,271.5,146.5,274.5,148.5,282.0,160.5,275.0,155.5,280.0,168.0,276.0,166.5,278.5,172.5,279.0,181.0,289.0,180.5,283.5,172.5,282.0,173.5,291.0,176.0,286.0" stroke="yellow" stroke-width="1" fill="none" />
<polyline points="176.5,285.0,178.0,284.5,168.0,280.0,165.5,281.5,171.5,277.0" stroke="green" stroke-width="1" fill="none" />
<polyline points="150.5,289.5,152.0,287.5,161.5,272.5,157.0,283.5" stroke="black" stroke-width="1" fill="none" />
<polyline points="147.5,300.5,137.5,302.0,139.5,294.5,146.0,296.5,153.5,283.5,162.0,286.0,147.0,274.0,149.5,273.5,167.0,258.0,158.5,259.5,157.5,252.5,162.0,258.5,170.5,262.5,167.5,252.5,165.5,244.0,169.0,240.0,177.5,231.5,161.5,240.5,140.5,260.0,152.0,256.5,153.5,261.0,138.5,264.0,142.0,256.0,145.5,260.0,134.5,272.5,130.5,265.5,131.0,267.0,121.5,262.0,131.5,272.0,129.5,263.0,135.5,254.5,128.5,250.0,122.0,247.0,129.0,249.5,136.0,243.0,139.0,230.0,137.5,230.5,141.5,228.5,135.0,230.0,130.0,236.0,140.0,215.5,133.5,217.0,129.5,214.5,137.0,215.5,126.5,208.0,117.0,221.0,117.0,212.5,123.0,189.0,120.5,191.0,118.5,184.0,124.0,184.5,124.0,171.5,124.0,165.0,123.5,165.5,127.5,164.0,115.0,160.0,111.5,154.5,121.0,149.0,118.5,153.5,121.5,148.5,122.5,139.0,129.5,138.0,124.5,137.0,135.0,130.0,124.5,123.5,130.5,125.0,129.0,115.0,130.0,122.0,136.5,101.5,134.0,105.5,137.0,101.5" stroke="black" stroke-width="1" fill="none" />
<polyline points="137.5,104.0,140.0,103.0,126.0,108.5,133.5,114.5,134.0,120.0,148.0,123.5,120.0,124.0,128.0,133.5,120.0,128.5,131.0,139.0,136.0,144.5,114.5,145.5,131.5,132.0,126.0,151.0,123.0,150.5,135.0,149.5,131.5,158.0,135.0,166.0,124.0,166.5,128.5,163.5" stroke="yellow" stroke-width="1" fill="none" />
<polyline points="139.0,152.0,138.0,154.5,127.5,150.0,132.5,148.0,132.5,166.5,145.0,165.5,133.5,174.5,125.5,170.5,125.0,173.0,121.0,175.0" stroke="yellow" stroke-width="1" fill="none" />
<polyline points="154.0,164.0,154.5,164.0,147.5,170.5,146.0,175.0,123.5,177.0,131.5,185.5,125.0,173.5,122.0,173.5" stroke="black" stroke-width="1" fill="none" />
<polyline points="144.0,174.5,142.5,182.5,124.0,175.0,130.0,175.5" stroke="black" stroke-width="1" fill="none" />
<polyline points="" stroke="orange" stroke-width="1" fill="none" />
<polyline points="146.5,195.5,144.0,191.5,141.0,191.0,138.0,190.0,133.0,181.0,138.0,165.5,124.5,172.0,144.5,185.0" stroke="orange" stroke-width="1" fill="none" />
<polyline points="142.5,192.5,140.0,193.5,144.0,211.0,142.5,198.0,136.0,189.0,152.0,195.5,165.0,204.5,150.0,207.0,154.5,204.5" stroke="orange" stroke-width="1" fill="none" />
<polyline points="152.0,200.0,153.0,195.0,148.0,204.0,143.5,200.0" stroke="green" stroke-width="1" fill="none" />
<polyline points="153.5,194.5,145.5,188.0,143.5,181.5" stroke="yellow" stroke-width="1" fill="none" />
<polyline points="150.5,207.5" stroke="black" stroke-width="1" fill="none" />
<polyline points="150.5,190.5,143.0,196.5,144.5,180.0,149.0,181.0,143.5,174.5,150.5,177.5" stroke="yellow" stroke-width="1" fill="none" />
<polyline points="139.5,190.5,144.0,191.0,147.5,174.0,139.5,180.0,149.5,178.5,156.0,191.0,157.0,183.0,150.5,181.5" stroke="black" stroke-width="1" fill="none" />
<polyline points="145.5,193.0,153.0,196.0,154.0,177.5" stroke="yellow" stroke-width="1" fill="none" />
<polyline points="162.0,200.0,159.0,197.5,156.0,185.0,152.0,194.0,169.0,197.5,164.0,178.5,161.0,173.5,166.0,175.5,185.5,178.0,175.0,165.0,190.5,165.5,172.5,160.5,188.5,151.5,188.0,148.5,193.0,141.5,206.0,144.0,202.5,144.5,208.0,141.5,201.5,151.5,206.5,146.5" stroke="green" stroke-width="1" fill="none" />
<polyline points="" stroke="orange" stroke-width="1" fill="none" />
<polyline points="231.5,152.0,229.5,163.0,219.0,165.5,213.0,160.5,218.5,157.0,217.0,155.5" stroke="orange" stroke-width="1" fill="none" />
<polyline points="" stroke="black" stroke-width="1" fill="none" />
<polyline points="216.0,192.0,214.5,187.0,223.0,183.0,203.0,191.5,218.0,190.0" stroke="orange" stroke-width="1" fill="none" />
<polyline points="218.0,195.0,210.5,189.5,216.0,193.0,205.0,196.0,200.0,196.5,202.5,187.5,213.0,182.0,217.5,182.0,215.0,179.5,227.0,184.0,222.0,160.0,233.5,171.0,231.0,169.5,238.5,171.0,243.5,165.5,238.0,173.5" stroke="yellow" stroke-width="1" fill="none" />
<polyline points="235.5,185.0,224.0,190.0,228.5,202.5,209.5,193.5,192.0,198.0,211.0,204.0,211.5,209.0,211.0,219.0,210.5,223.5,209.5,222.0" stroke="black" stroke-width="1" fill="none" />
<polyline points="" stroke="black" stroke-width="1" fill="none" />
<polyline points="215.0,189.5,216.0,205.5,218.0,199.5,224.0,212.5,201.0,206.0,213.0,203.5,209.0,190.5,214.0,213.0,232.5,192.0,227.0,193.5,222.5,198.0" stroke="green" stroke-width="1" fill="none" />
<polyline points="226.0,169.0,223.5,170.0,224.0,169.0,227.0,181.5,214.5,185.5,211.5,185.5" stroke="orange" stroke-width="1" fill="none" />
<polyline points="211.5,170.5,214.5,172.5,214.5,172.5,215.5,174.5,215.0,178.0" stroke="yellow" stroke-width="1" fill="none" />
<polyline points="217.5,180.0,214.5,187.0,220.5,180.5,215.0,191.0,217.5,205.5,218.5,204.5,217.0,201.0,213.5,198.0" stroke="orange" stroke-width="1" fill="none" />
<polyline points="186.0,209.0,188.5,208.0,201.5,197.5,202.0,203.5,202.0,206.5" stroke="black" stroke-width="1" fill="none" />
<polyline points="" stroke="orange" stroke-width="1" fill="none" />
<polyline points="190.5,196.5,190.0,189.0,199.0,206.5,205.0,212.5,190.5,211.0,185.0,201.0,181.0,205.0,175.0,203.5,180.5,196.0,185.5,193.5,197.5,198.5,194.0,204.0" stroke="orange" stroke-width="1" fill="none" />
<polyline points="188.0,213.0,183.0,218.0,193.0,206.5,178.0,207.5,194.5,203.5,187.5,211.5,179.5,206.5,193.0,201.5,207.0,200.5" stroke="orange" stroke-width="1" fill="none" />
<polyline points="196.5,195.0,202.5,201.5,196.0,209.0,192.0,188.0,193.0,207.0,190.5,213.0,182.0,219.0,178.5,216.0,187.5,195.5,188.5,217.5,195.5,212.0,193.0,214.0,194.0,214.0,194.0,218.0" stroke="black" stroke-width="1" fill="none" />
<polyline points="" stroke="orange" stroke-width="1" fill="none" />
<polyline points="171.5,201.5,175.0,204.5,179.5,227.0,176.0,224.0,176.0,214.5,193.0,223.5,185.0,214.5,183.5,210.5,188.0,217.5" stroke="black" stroke-width="1" fill="none" />
<polyline points="163.5,210.5,169.0,214.0,176.0,211.0,182.5,212.5" stroke="yellow" stroke-width="1" fill="none" />
<polyline points="161.5,234.0,163.0,229.0,169.0,225.5" stroke="orange" stroke-width="1" fill="none" />
<polyline points="171.5,234.0,169.5,233.0" stroke="black" stroke-width="1" fill="none" />
<polyline points="159.5,229.5,152.0,238.0,159.0,232.5,167.0,229.5,171.5,234.0,174.5,241.5,173.5,244.5,175.5,249.0" stroke="yellow" stroke-width="1" fill="none" />
<polyline points="163.0,245.5,166.0,246.0,164.0,255.0,166.0,264.0,147.5,260.5,151.0,265.5,148.5,264.0,139.5,263.0,139.5,278.0,146.0,283.5,130.0,271.5,127.0,280.0,118.0,270.0,114.0,271.5,121.0,265.5,113.0,259.0,115.0,266.0,115.5,262.0,120.5,262.5" stroke="yellow" stroke-width="1" fill="none" />
<polyline points="" stroke="black" stroke-width="1" fill="none" />
<polyline points="122.0,280.5,113.5,279.5,117.0,275.5,113.0,271.5,108.0,261.0,121.0,282.0,114.0,285.5,93.0,290.0,106.5,288.5,96.0,301.0,99.0,304.5,92.0,307.5,95.0,303.0,99.0,311.0,89.0,320.5,75.0,318.0,91.5,336.5,87.5,326.5,93.0,333.5,90.5,335.0,84.5,341.0,77.5,334.0,74.5,355.5,67.0,366.5,77.5,345.5,52.0,361.5,74.0,350.5,70.0,356.5,71.5,342.5,75.5,343.5,86.0,327.0,90.5,337.5,89.5,329.0,96.5,332.5,83.5,327.5,83.5,323.5" stroke="yellow" stroke-width="1" fill="none" />
<polyline points="101.0,327.0,79.5,324.5,91.5,330.0,98.5,338.0,89.0,339.5,88.0,343.0,68.5,356.5,72.0,346.5,72.5,357.5,54.0,350.0,66.5,358.0,66.0,369.5,65.5,368.0,64.0,352.0,63.0,361.0,77.5,343.5,66.0,363.0,80.5,348.5,88.0,343.5,91.5,346.0,80.0,340.5,86.5,352.5,82.0,356.0,83.5,367.0,82.5,359.0,81.0,369.0,73.0,381.5,86.0,377.5,99.0,370.5,92.5,360.5,86.0,374.5" stroke="yellow" stroke-width="1" fill="none" />
<polyline points="103.0,351.5,105.0,353.0,108.0,354.5,106.5,353.5,96.0,363.5,102.0,365.5,99.5,380.0,107.5,381.5,102.0,391.5,97.0,391.0" stroke="yellow" stroke-width="1" fill="none" />
<polyline points="" stroke="green" stroke-width="1" fill="none" />
<polyline points="109.5,360.0,107.0,369.5,116.5,364.5" stroke="black" stroke-width="1" fill="none" />
<polyline points="" stroke="black" stroke-width="1" fill="none" />
<polyline points="124.0,381.5,117.5,376.0,128.0,380.0,133.0,372.0,122.5,374.0,124.0,367.5,138.0,366.0" stroke="orange" stroke-width="1" fill="none" />
<polyline points="" stroke="black" stroke-width="1" fill="none" />
<polyline points="80.5,355.0,80.5,353.0,81.0,350.0,82.5,349.0,85.5,360.0,80.0,345.5,84.5,361.5,76.0,362.0,76.5,371.5,70.5,363.5,80.0,362.0" stroke="yellow" stroke-width="1" fill="none" />
<polyline points="67.5,393.5,64.5,383.0,67.0,392.0,58.5,405.0,65.0,397.0,68.5,394.0,64.5,389.0,76.5,399.0,77.5,373.0,70.5,384.0,78.0,388.5,77.5,384.0,56.5,391.5,65.0,391.0,59.0,392.0,71.5,391.0,78.0,398.5,63.0,389.0,82.0,397.5,92.0,392.5,73.0,380.0,78.5,372.5,88.5,373.0,85.0,362.0,82.0,369.0,90.0,364.0,85.0,369.0,90.0,359.5,99.0,352.0,92.0,338.0,97.5,348.5,96.0,341.0,93.5,342.5,94.0,345.0,99.5,334.0,105.5,347.5,89.0,341.5,112.0,340.0,101.0,313.5,81.5,308.5,97.0,320.0,93.0,320.0,95.5,298.0,115.5,300.5,107.0,295.5,108.0,302.0,101.0,305.0" stroke="orange" stroke-width="1" fill="none" />
<polyline points="80.5,322.0,87.5,320.0,86.5,315.0,82.0,309.5,96.5,314.5,105.5,305.5,101.5,308.0,98.5,308.0,106.5,310.5" stroke="yellow" stroke-width="1" fill="none" />
<polyline points="95.0,315.5,85.5,310.0,100.5,292.0,105.0,294.5,105.5,283.0,108.0,296.5,126.0,286.0,121.0,298.0" stroke="black" stroke-width="1" fill="none" />
<polyline points="116.0,303.5,117.0,305.0,114.0,296.5,102.5,293.5,101.5,297.0,105.0,292.0,91.5,300.0,89.0,293.0,89.0,300.5,82.5,298.0,74.5,300.5" stroke="yellow" stroke-width="1" fill="none" />
<polyline points="80.0,277.5,77.0,280.0,77.0,291.0,74.5,295.5,97.5,296.5,102.0,293.0,104.0,293.0,105.5,290.5,105.0,285.0,102.5,283.5,102.5,289.5,100.5,291.5,100.5,293.0" stroke="yellow" stroke-width="1" fill="none" />
<polyline points="106.5,290.5,109.0,287.0,115.5,284.0,111.5,289.0,117.0,284.0,100.0,270.0,111.0,271.0,115.0,264.5,112.0,269.0,112.0,268.0,112.5,267.5,105.5,264.0,107.5,263.5,98.5,257.0" stroke="green" stroke-width="1" fill="none" />
<polyline points="106.0,266.5,103.5,270.5,104.5,258.0,105.0,265.0,111.5,281.0,95.0,284.5,93.0,277.5,88.5,283.5,113.5,267.5,102.5,282.0,117.5,275.0,115.5,271.0,108.5,279.0,116.0,270.5" stroke="orange" stroke-width="1" fill="none" />
<polyline points="103.5,290.0,99.0,285.0,102.5,287.5,108.5,281.0,102.0,281.0,90.5,280.0,99.5,270.5,98.0,264.5" stroke="black" stroke-width="1" fill="none" />
<polyline points="93.0,278.0,99.5,280.0,99.0,269.0,113.0,253.0,115.0,259.0,100.0,269.0,92.0,267.5,83.5,274.5,99.5,277.0,95.5,282.0,106.0,276.5,116.5,275.5,105.5,286.5,91.5,285.0,107.5,291.5,113.0,277.0,117.0,276.0,120.0,273.5,116.0,275.5,133.5,281.5,128.0,279.5" stroke="orange" stroke-width="1" fill="none" />
<polyline points="145.5,257.0,134.0,258.5,125.5,277.0,125.5,270.0,108.0,268.5,108.5,271.0,96.5,286.5,106.5,296.0,96.0,294.0,98.0,297.0,95.5,301.5,81.0,315.0,89.0,319.0,82.5,321.5,67.5,324.5,78.0,323.0" stroke="black" stroke-width="1" fill="none" />
<polyline points="102.0,317.5,88.5,324.5,114.5,310.0,114.5,305.5,106.5,304.5,120.5,297.5,116.5,302.0,113.0,299.0" stroke="black" stroke-width="1" fill="none" />
<polyline points="109.0,312.5,95.5,317.0,97.0,309.0,96.5,310.0" stroke="black" stroke-width="1" fill="none" />
<polyline points="87.0,310.0,90.0,315.0,78.5,306.5,74.0,319.5,80.5,313.0,75.5,320.0,64.5,334.0,72.0,314.5,79.0,312.0,70.5,312.0,78.5,305.0,83.0,300.5,79.0,309.5,75.0,313.0,74.5,311.0" stroke="black" stroke-width="1" fill="none" />
<polyline points="79.0,326.0" stroke="yellow" stroke-width="1" fill="none" />
<polyline points="72.5,322.0,65.0,315.0,67.0,306.0,65.5,328.5,87.5,292.5,81.0,307.5,87.0,316.0,90.0,310.0" stroke="green" stroke-width="1" fill="none" />
<polyline points="103.0,309.0,102.0,329.0,98.0,315.5,106.0,333.0,107.5,311.0,115.5,315.5,108.0,305.5,107.0,304.5,103.0,303.0" stroke="green" stroke-width="1" fill="none" />
<polyline points="98.0,294.5,107.5,282.0,106.5,277.5" stroke="yellow" stroke-width="1" fill="none" />
<polyline points="" stroke="green" stroke-width="1" fill="none" />
<polyline points="90.5,281.0" stroke="black" stroke-width="1" fill="none" />
<polyline points="112.5,288.0,117.5,304.5,110.0,299.5,108.5,308.0,108.0,313.0,92.0,322.0,90.5,325.0,105.0,315.0,105.5,315.0,106.5,327.0,92.0,332.5,89.0,348.0,83.5,343.5,104.0,338.0,106.5,330.0,118.5,331.0,120.0,316.0,124.0,301.5,124.5,297.5,121.0,304.5,123.5,310.0,120.5,328.5,128.0,306.5,115.0,320.5,122.5,301.0,126.5,315.5" stroke="black" stroke-width="1" fill="none" />
<polyline points="130.0,309.5,126.5,312.5,126.0,320.5,133.0,323.0,126.5,318.0,127.5,323.5,120.0,336.5,130.5,331.0,130.0,331.5,127.5,319.0" stroke="black" stroke-width="1" fill="none" />
<polyline points="118.0,325.5,111.5,327.0,97.0,330.5,103.0,339.5,102.0,333.0,108.0,350.5,97.0,345.5,96.5,342.5,99.0,356.5,91.0,351.0,88.5,361.0,101.5,358.5,91.5,355.5,91.0,373.5,89.5,375.5,98.5,378.5" stroke="green" stroke-width="1" fill="none" />
<polyline points="80.5,379.5,85.5,381.0,78.0,389.5,72.0,406.0,81.5,401.5,68.0,400.0,68.0,405.0" stroke="black" stroke-width="1" fill="none" />
<polyline points="" stroke="yellow" stroke-width="1" fill="none" />
<polyline points="110.5,285.0,117.5,289.5,119.5,302.0,120.0,303.0,111.5,303.0,116.0,304.5,103.5,304.0,104.0,306.0,113.0,301.0,121.0,307.5,122.0,295.0,126.5,296.0,132.5,296.5,146.5,296.0,143.5,291.5,143.5,293.0,142.0,284.5" stroke="orange" stroke-width="1" fill="none" />
<polyline points="121.5,279.5,125.5,279.0,125.5,281.5,127.5,280.5,133.5,288.0,130.5,270.0,144.5,271.5,132.5,273.0,134.0,264.5" stroke="green" stroke-width="1" fill="none" />
<polyline points="132.5,250.5,131.5,248.0,132.5,256.0" stroke="yellow" stroke-width="1" fill="none" />
<polyline points="" stroke="orange" stroke-width="1" fill="none" />
<polyline points="135.0,246.5,138.0,244.5,136.5,242.0,142.0,242.5" stroke="black" stroke-width="1" fill="none" />
<polyline points="137.5,236.5,137.0,230.0,142.0,226.5" stroke="black" stroke-width="1" fill="none" />
<polyline points="" stroke="black" stroke-width="1" fill="none" />
<polyline points="140.0,219.5,141.5,218.0,143.0,214.5" stroke="green" stroke-width="1" fill="none" />
<polyline points="158.5,198.0,155.5,208.0,151.5,204.0,155.0,219.0,137.0,195.0,141.0,196.0,136.0,192.5,137.0,186.0,129.0,188.5,132.5,178.0" stroke="black" stroke-width="1" fill="none" />
<polyline points="139.0,169.0" stroke="orange" stroke-width="1" fill="none" />
<polyline points="138.0,187.5,137.0,183.5" stroke="orange" stroke-width="1" fill="none" />
<polyline points="131.5,201.0,135.5,205.0,150.5,200.0,143.0,193.5" stroke="yellow" stroke-width="1" fill="none" />
<polyline points="144.0,200.5,142.0,195.5,140.0,198.0,147.0,221.5,148.0,212.5,155.0,204.5,158.0,206.5,163.0,209.5,164.0,204.5" stroke="orange" stroke-width="1" fill="none" />
<polyline points="" stroke="green" stroke-width="1" fill="none" />
<polyline points="109.0,228.0,109.5,229.0" stroke="orange" stroke-width="1" fill="none" />
<polyline points="" stroke="orange" stroke-width="1" fill="none" />
<polyline points="134.5,244.0,138.0,250.0,130.5,249.5,136.0,242.5,124.5,258.5,113.0,245.5,106.5,262.0,109.0,256.0,119.5,251.0,116.0,252.5,127.5,247.5,145.0,249.5,136.0,240.5,141.0,237.0,146.0,231.0" stroke="yellow" stroke-width="1" fill="none" />
<polyline points="151.5,218.5,149.5,222.5,151.0,232.0,147.5,242.5,143.5,231.0,138.0,250.0,139.5,249.0,141.0,256.5,139.0,266.0,143.0,269.5,139.0,263.5,135.0,270.0,134.5,277.5" stroke="black" stroke-width="1" fill="none" />
<polyline points="143.5,250.0,149.0,246.5,164.5,250.5,153.0,250.0,158.0,253.5" stroke="yellow" stroke-width="1" fill="none" />
<polyline points="168.5,230.0,162.0,224.5,164.5,226.5,177.5,222.5,171.5,229.5" stroke="orange" stroke-width="1" fill="none" />
<polyline points="" stroke="yellow" stroke-width="1" fill="none" />
<polyline points="172.0,246.0,181.0,245.0,181.5,242.0,175.5,235.0,171.5,232.0,167.0,242.5,155.0,237.0,163.5,235.5,154.0,255.5,136.5,250.0,142.5,266.0,152.0,263.0,147.0,257.0,147.0,267.5,138.0,270.0,140.5,279.0,131.0,277.5,130.5,279.5,130.5,297.5,117.0,290.5,125.5,309.0,123.0,297.5,130.5,317.5,128.0,318.5,137.5,320.0,118.0,305.0,123.5,327.0,131.5,332.0,121.5,344.5,110.5,340.0,125.5,339.5,118.5,344.5,127.5,337.0,135.5,345.5,127.5,346.0,141.5,354.0,140.0,362.5,136.0,363.5,147.5,373.5,145.0,373.0,145.5,373.5,149.5,367.0,130.0,386.0,139.0,392.0,149.0,390.0,145.0,393.5,146.5,393.0,165.0,405.5,144.5,402.5,163.5,406.5,163.5,416.5,160.0,417.0,149.5,398.0" stroke="green" stroke-width="1" fill="none" />
<polyline points="166.0,409.0,161.5,424.0,162.0,418.5" stroke="yellow" stroke-width="1" fill="none" />
<polyline points="196.5,432.5,193.0,433.0,204.0,443.0,205.0,440.5,206.0,441.0,197.5,437.0" stroke="black" stroke-width="1" fill="none" />
<polyline points="" stroke="orange" stroke-width="1" fill="none" />
<polyline points="195.0,436.5,195.0,430.5,198.0,427.5,193.5,432.5" stroke="orange" stroke-width="1" fill="none" />
<polyline points="205.5,399.0,205.0,395.0,195.0,399.0,201.5,394.5,189.0,395.0,195.0,394.0,186.5,401.0,197.5,389.0,197.5,384.0,207.0,378.0" stroke="black" stroke-width="1" fill="none" />
<polyline points="186.0,387.0,192.5,406.5,195.5,400.5,191.5,411.5,192.0,409.0,188.0,405.5,204.0,412.5,182.0,422.0,185.0,408.0,188.5,422.0,189.0,430.5,192.0,433.5,191.5,443.0,193.5,440.0,177.5,436.5,190.5,446.0" stroke="green" stroke-width="1" fill="none" />
<polyline points="394.0,343.0,379.0,352.5,367.5,346.0,383.5,345.5,371.0,338.0,380.5,334.0,373.5,340.5,369.5,331.0,373.5,315.0,374.0,309.0,368.0,303.5,367.0,296.5,369.5,302.0,380.5,313.0,372.5,304.5" stroke="green" stroke-width="1" fill="none" />
<polyline points="378.5,292.5,377.5,287.0,377.0,279.5,375.5,280.5,379.0,275.0,389.5,268.0,382.5,272.5,383.5,264.0,379.5,267.5" stroke="orange" stroke-width="1" fill="none" />
<polyline points="379.0,271.0,386.0,263.0,365.0,262.0,369.5,287.5,347.5,283.0,369.0,280.5,356.5,279.5,368.0,291.5,367.5,298.5,369.5,300.5,368.5,303.5,366.5,299.5,367.5,302.0,370.5,303.0,383.0,309.5,378.0,313.5" stroke="green" stroke-width="1" fill="none" />
<polyline points="350.5,275.5,350.0,273.5,344.5,274.5,344.0,283.0,322.0,284.0" stroke="green" stroke-width="1" fill="none" />
<polyline points="334.5,279.0,335.0,270.0,328.0,272.5" stroke="black" stroke-width="1" fill="none" />
<polyline points="309.0,273.5,319.0,273.0,318.5,267.0,307.5,269.0,316.5,278.0,320.0,266.0,319.5,256.5,328.5,260.0,334.5,252.5,334.5,257.0,336.5,260.5,336.0,263.0" stroke="green" stroke-width="1" fill="none" />
<polyline points="365.0,273.5,361.5,282.0,356.0,282.5,362.0,278.5,356.5,281.0" stroke="orange" stroke-width="1" fill="none" />
<polyline points="292.5,218.0,286.0,224.0,295.5,228.5,297.0,221.5,289.0,227.0,303.5,224.0,303.0,242.5,284.0,231.0,288.5,228.0,289.0,229.0" stroke="orange" stroke-width="1" fill="none" />
<polyline points="281.5,201.0,291.5,199.5,271.0,203.0,282.0,193.5,292.0,185.0,281.5,193.5,294.5,182.5,299.0,175.5,309.0,181.0,317.5,176.5,312.0,190.0" stroke="orange" stroke-width="1" fill="none" />
<polyline points="306.0,184.0,308.5,175.0,291.5,178.5,285.0,187.0,289.5,189.0,285.5,189.5,295.0,212.5,284.0,194.5,279.0,195.5,271.5,205.0,258.0,212.0,266.0,216.0,260.0,218.0,259.5,218.5,243.5,224.0,253.5,232.5,243.0,226.5,240.5,253.0,233.0,238.5,223.0,249.0,228.0,254.5,215.5,262.0,221.5,267.0,218.0,265.0,204.0,293.0,214.5,294.0,202.5,316.5,195.5,308.0,187.5,318.0,201.5,313.5,195.5,306.0,213.5,299.0,188.5,302.5,197.5,287.0,202.0,300.0,208.5,298.0,206.0,293.5,208.5,286.5,218.0,282.5,217.5,272.5,214.5,266.0,225.0,272.0,218.0,260.0,229.0,261.5,227.5,255.5,230.0,264.0,236.5,253.0,232.0,251.0,239.5,233.0,246.5,235.0,241.0,228.5,240.0,230.0,263.0,225.0,256.0,219.0,265.0,207.5,260.0,216.0,255.5,210.5,268.0,209.5,266.0,215.5" stroke="black" stroke-width="1" fill="none" />
<polyline points="" stroke="yellow" stroke-width="1" fill="none" />
<polyline points="" stroke="yellow" stroke-width="1" fill="none" />
<polyline points="213.5,192.5,212.0,203.5,206.5,192.5,222.0,190.5,219.5,189.5,219.5,190.5" stroke="green" stroke-width="1" fill="none" />
<polyline points="216.5,179.0,204.5,191.5,203.0,204.0,204.0,194.5,206.0,207.0,219.5,189.5,213.0,192.0,224.5,186.0,231.0,192.0,238.5,186.0,232.0,199.0,230.5,180.0,237.5,172.5,236.5,169.0" stroke="yellow" stroke-width="1" fill="none" />
<polyline points="242.5,166.0,234.5,184.0,240.0,192.0,233.5,184.0,245.5,178.0,244.0,180.0,240.5,186.5,251.5,173.0" stroke="black" stroke-width="1" fill="none" />
<polyline points="268.5,183.5,266.5,177.5,248.5,175.0,257.5,178.0,245.5,181.0,258.5,176.5,236.5,202.0,235.5,185.0,240.0,201.5,230.0,201.5,244.0,214.0,225.0,217.5,224.0,220.5" stroke="black" stroke-width="1" fill="none" />
<polyline points="268.0,188.5,247.5,185.5,267.0,209.5,250.0,211.5,253.0,200.5,248.0,198.0,256.0,188.5,259.0,194.5,255.5,193.0" stroke="orange" stroke-width="1" fill="none" />
<polyline points="256.5,192.0,253.0,186.0" stroke="green" stroke-width="1" fill="none" />
<polyline points="246.5,189.5,251.0,194.0,254.5,196.5,250.0,188.0,246.5,189.0,230.5,203.0,244.5,203.0,248.5,191.0,244.0,189.5,253.0,174.5,257.0,173.5,256.0,172.0,254.0,180.0,252.5,185.5" stroke="black" stroke-width="1" fill="none" />
<polyline points="272.5,180.0,275.0,171.0,266.5,158.5,275.5,170.0,277.5,166.5,290.5,177.5,295.5,193.0,283.0,194.5,281.5,177.5,276.5,199.5,278.0,199.5,281.5,204.0,278.5,192.5,273.0,194.5,286.5,195.0,270.0,197.5,269.0,195.0,287.5,190.0,282.0,178.0,296.0,182.0,299.5,182.5,308.5,176.0,294.5,174.0,306.5,172.5,310.5,173.5,321.5,168.0,324.5,163.0,312.0,165.5,313.5,168.5" stroke="green" stroke-width="1" fill="none" />
<polyline points="305.0,185.5,293.0,181.5,307.0,192.0,295.0,196.5,285.5,191.5,283.0,193.0,268.5,195.0,260.5,207.5,266.0,189.5,279.0,206.0,269.0,211.0,264.5,220.0,269.0,208.5,274.0,217.5,272.5,221.0,275.5,243.0,265.5,250.0,255.5,232.5,263.5,240.0,257.0,246.5,263.0,246.0" stroke="black" stroke-width="1" fill="none" />
<polyline points="266.5,187.0,276.5,187.5,269.0,180.5,268.0,192.0" stroke="green" stroke-width="1" fill="none" />
<polyline points="266.0,163.0,262.0,168.0,266.5,166.5" stroke="orange" stroke-width="1" fill="none" />
<polyline points="254.5,170.0,262.5,165.0,256.0,171.5" stroke="black" stroke-width="1" fill="none" />
<polyline points="248.5,175.0,252.5,171.0,258.5,181.5,264.5,182.0,262.0,182.5,265.0,178.0" stroke="yellow" stroke-width="1" fill="none" />
<polyline points="251.5,143.0,244.0,141.5,269.0,135.0,263.5,124.5,258.5,131.0,255.5,125.5,249.5,137.0,241.0,144.5,244.5,133.0,251.0,122.5,252.5,123.0" stroke="orange" stroke-width="1" fill="none" />
<polyline points="" stroke="green" stroke-width="1" fill="none" />
<polyline points="209.5,139.5,226.0,134.5,212.5,141.5,210.5,145.0" stroke="yellow" stroke-width="1" fill="none" />
<polyline points="" stroke="green" stroke-width="1" fill="none" />
<polyline points="" stroke="green" stroke-width="1" fill="none" />
<polyline points="217.5,180.0,213.5,171.5,207.5,168.5,213.0,171.5,204.5,155.0,209.0,161.0,210.0,171.5,215.0,160.5,216.0,157.5,217.0,167.5" stroke="green" stroke-width="1" fill="none" />
<polyline points="210.0,157.5,212.0,162.0,208.0,166.0,201.0,154.5,219.5,163.0,198.5,168.0,200.5,174.0,193.5,159.5,192.5,177.5,182.5,195.5,177.5,184.0,182.0,193.0,171.0,197.0,159.5,196.0,168.0,206.5,155.5,208.0,165.5,212.0,171.5,195.5,175.0,190.5,172.0,184.5,183.5,180.0,191.5,177.5,185.5,177.0,186.0,175.5,184.0,175.5" stroke="black" stroke-width="1" fill="none" />
<polyline points="215.0,169.0,214.0,173.0,208.5,176.5,204.0,181.5,213.0,185.5,195.5,190.5,195.5,190.5,202.0,185.0" stroke="orange" stroke-width="1" fill="none" />
<polyline points="189.0,128.0,189.0,127.5,196.5,138.0,198.0,142.0" stroke="green" stroke-width="1" fill="none" />
<polyline points="196.5,149.5,201.5,145.0,206.0,139.5,199.5,137.0,210.0,133.0,209.5,146.0,219.0,128.0,220.5,140.0,223.0,127.5,217.5,118.0" stroke="yellow" stroke-width="1" fill="none" />
<polyline points="219.0,121.5,220.0,111.0,209.5,123.0,207.5,137.5,210.0,129.5,212.0,131.5,212.5,141.0,217.0,123.5,218.5,126.0,215.0,126.5" stroke="orange" stroke-width="1" fill="none" />
<polyline points="233.5,114.5,230.0,123.0,226.0,128.0,210.0,141.0,210.0,125.0,221.0,140.0,204.5,146.5,201.0,154.0,194.0,147.5,194.0,150.5,191.5,166.0,177.5,173.5,166.0,165.5,179.5,169.0,163.0,170.0,161.5,180.0,158.5,181.0,163.5,181.5,148.0,189.5,147.5,196.0,156.5,199.0,148.5,204.5,145.5,198.5,142.5,207.5,141.0,208.0,141.5,224.0,142.5,221.0,142.0,227.5,134.0,234.5,148.5,236.5,140.5,244.0,148.0,236.5,129.0,244.0,135.0,244.0,131.5,247.0,136.0,261.0,124.0,256.0,148.0,248.0,151.0,252.0" stroke="orange" stroke-width="1" fill="none" />
<polyline points="134.0,173.5,136.0,181.5,144.0,175.5,140.0,172.5,150.5,168.0" stroke="green" stroke-width="1" fill="none" />
<polyline points="" stroke="green" stroke-width="1" fill="none" />
<polyline points="145.5,133.5,149.5,136.0,150.0,143.0,144.0,128.0,163.5,131.0,153.0,145.5,154.5,142.5,159.5,137.5,162.0,133.5,157.0,132.5" stroke="green" stroke-width="1" fill="none" />
<polyline points="183.0,133.5,189.5,113.0,192.0,121.0,173.0,133.5,189.0,125.5" stroke="yellow" stroke-width="1" fill="none" />
<polyline points="178.5,125.0,176.0,124.5,177.0,123.5,180.5,123.0,188.5,119.0,192.0,121.5,185.5,125.5" stroke="yellow" stroke-width="1" fill="none" />
<polyline points="202.5,129.5,188.5,125.5,198.0,121.5,199.0,121.0,183.5,125.5,184.5,137.5,194.0,135.5,188.0,138.5" stroke="orange" stroke-width="1" fill="none" />
<polyline points="177.0,122.5,185.0,126.0,192.0,119.0,191.0,120.0" stroke="green" stroke-width="1" fill="none" />
<polyline points="" stroke="green" stroke-width="1" fill="none" />
<polyline points="225.0,128.5,213.0,136.5,218.5,149.5,218.5,140.5,202.0,139.5,193.0,161.5,197.0,148.0,197.0,152.0,201.5,145.5,210.5,143.5,207.5,145.0,234.0,137.0" stroke="orange" stroke-width="1" fill="none" />
<polyline points="252.0,132.5,256.0,144.0,235.0,156.5,229.5,151.0,238.0,134.0,235.5,151.0,245.0,150.0,223.0,153.5,222.0,166.0,230.0,147.0,222.5,161.5,234.5,160.5,238.5,144.5,237.0,153.5,255.0,135.5,237.0,138.5" stroke="black" stroke-width="1" fill="none" />
<polyline points="283.0,140.0,285.0,150.5,282.0,146.0,284.0,147.0,284.5,149.5" stroke="black" stroke-width="1" fill="none" />
<polyline points="302.5,135.5,282.0,142.5,286.5,139.5,297.5,135.0,294.0,137.0,292.0,127.5,293.0,136.5,295.0,129.5" stroke="orange" stroke-width="1" fill="none" />
<polyline points="300.5,185.5,277.0,192.0,280.5,204.5,284.0,206.0,276.0,208.0,268.5,207.0" stroke="black" stroke-width="1" fill="none" />
<polyline points="237.0,96.5,234.0,87.0,230.5,93.0,248.5,91.5,235.0,93.5,243.0,100.5,235.0,102.0,224.5,99.0,216.5,100.5,227.0,112.0,230.0,111.5,242.0,95.0" stroke="yellow" stroke-width="1" fill="none" />
<polyline points="218.5,99.0,226.5,109.0,236.5,109.5,252.5,94.0" stroke="orange" stroke-width="1" fill="none" />
<polyline points="244.5,79.5,247.0,96.0,244.0,89.5" stroke="black" stroke-width="1" fill="none" />
<polyline points="262.5,92.0,266.5,89.0,263.5,94.5,252.5,95.5,261.0,86.5,246.0,87.5,249.0,97.5,233.5,98.5,226.0,102.0,237.0,104.5,229.0,101.0,231.0,114.0,220.5,113.5,217.5,111.0,208.5,116.5,200.0,129.0,193.0,132.0,184.5,130.0,196.0,124.0,191.0,139.0,188.5,128.5,174.0,147.5,163.0,158.0,172.5,156.0,161.5,154.0,174.0,158.5,165.0,157.5,162.5,163.5,169.5,167.5,145.5,173.0,155.0,162.0,166.0,165.0,166.0,153.0,172.0,150.0,173.0,138.5,177.5,153.5,186.0,143.0,192.5,147.0,183.0,141.5,181.5,125.0,203.5,138.0,196.5,118.0,208.5,125.5,211.5,121.0,220.5,123.5,229.5,115.5,233.5,112.0,233.0,106.0,236.5,99.0" stroke="orange" stroke-width="1" fill="none" />
<polyline points="223.5,86.5,233.0,82.0,230.0,77.0,227.5,72.0" stroke="black" stroke-width="1" fill="none" />
<polyline points="" stroke="yellow" stroke-width="1" fill="none" />
<polyline points="233.0,57.5,235.5,51.5,223.5,46.5,222.5,59.5,228.0,45.5,227.5,47.0,236.5,49.0,247.5,50.5,251.0,53.0,255.0,38.0,247.5,55.0,264.5,53.5,258.0,51.5,261.0,48.0,270.5,57.0,267.0,55.0,274.5,52.0,271.0,78.0,277.5,65.5,297.5,82.5,281.5,75.0,300.5,83.5,300.5,77.5,304.0,87.0,309.5,97.0,309.5,100.5,311.5,105.5,325.5,108.0,320.5,113.0,330.5,112.5,333.5,121.5,335.5,129.0,351.5,129.0,340.0,135.5,340.5,148.0,356.0,143.0,343.5,148.0,353.0,138.5,367.0,136.5,376.5,128.5,364.0,129.5,377.5,132.0,370.0,126.5,371.0,140.0,375.0,121.5,395.0,120.0,400.5,110.5,417.0,107.5,406.0,118.5,416.5,120.5,408.5,117.5,420.5,112.0" stroke="green" stroke-width="1" fill="none" />
<polyline points="411.0,110.5,418.5,119.5,419.0,118.5,429.0,131.5,413.5,136.0,422.5,142.5,421.5,147.5,415.5,156.0,422.5,140.0,415.5,155.0,418.5,164.5,407.0,157.5,415.0,168.0,411.0,168.5,407.0,171.0,411.5,178.0,400.0,185.5,407.0,188.5,386.0,186.5,388.5,186.5,382.5,200.5,386.0,201.5,369.5,205.5,367.5,214.0,375.0,217.0,370.5,210.5,372.5,208.0,368.0,216.5,383.5,202.5,375.5,202.0,383.0,197.0,409.0,186.0,388.5,191.0,424.5,182.5,406.0,183.0,415.5,167.5,419.5,159.0,419.0,160.5,420.5,159.5,416.0,157.0" stroke="yellow" stroke-width="1" fill="none" />
<polyline points="375.5,130.0,369.0,130.5" stroke="green" stroke-width="1" fill="none" />
<polyline points="388.0,89.5" stroke="black" stroke-width="1" fill="none" />
<polyline points="399.0,120.5,396.5,118.0,391.5,117.5,399.5,120.0" stroke="green" stroke-width="1" fill="none" />
<polyline points="437.5,66.0,437.0,70.0,437.5,68.5,429.0,49.5,433.0,46.5,429.5,39.0,423.5,36.0,420.0,13.5,421.5,17.5,409.5,20.0,409.0,2.0,420.0,3.0" stroke="green" stroke-width="1" fill="none" />
<polyline points="504.5,87.5,502.0,89.5,504.0,88.5,503.0,80.5,509.5,78.0,496.5,91.0,502.0,94.5,482.5,107.5,488.0,109.0,479.0,107.5,485.5,114.5,479.5,110.0,473.0,113.5,475.5,126.5,464.0,133.5,467.0,132.0,471.0,140.5,462.0,145.5,467.0,141.5,453.0,146.5,448.5,146.5,443.5,149.0,452.0,160.5,448.0,160.5,444.0,176.0,442.5,174.0,448.5,186.0,441.5,184.5,436.0,179.5,428.5,189.5,437.5,195.0,426.5,199.5,430.0,202.5,429.0,199.0,422.5,203.5,419.0,210.5,427.5,223.5,427.0,233.0,421.5,228.5,419.0,230.0,420.0,247.0,405.5,243.0,415.5,256.5,411.5,248.5,407.5,253.0,423.0,233.0,414.0,260.0,408.5,270.0,418.0,269.5,405.0,264.0,395.5,271.0,390.0,279.5,398.0,281.0,401.0,286.0,400.0,284.5,401.0,293.5,404.0,290.5,387.0,301.0,391.5,310.5,395.5,316.0,395.0,310.5,386.5,325.0,394.0,316.0,389.0,332.5,393.0,326.5,385.5,331.5,397.5,336.5,371.0,359.0,381.0,346.0,379.0,355.0,376.5,353.5" stroke="orange" stroke-width="1" fill="none" />
<polyline points="346.0,135.5,344.5,133.5,335.0,135.5,333.0,140.0,340.0,140.0,349.0,150.5,345.5,124.0,342.5,132.0,320.5,112.5,321.5,126.0,323.5,125.0,319.0,117.5,325.0,117.5,326.5,108.0,318.0,114.0,330.5,100.5,307.0,91.5,307.5,105.5,315.5,75.5,305.5,82.5,292.5,71.5,290.5,81.5,281.5,69.0" stroke="yellow" stroke-width="1" fill="none" />
<polyline points="" stroke="orange" stroke-width="1" fill="none" />
<polyline points="167.0,84.0,169.5,77.5,165.0,68.0" stroke="black" stroke-width="1" fill="none" />
<polyline points="155.0,79.0,151.0,76.0,153.0,75.5,164.5,72.5,167.5,74.5" stroke="yellow" stroke-width="1" fill="none" />
<polyline points="158.0,86.0,150.5,70.5,154.0,78.0" stroke="orange" stroke-width="1" fill="none" />
</svg>