<svg xmlns="http://www.w3.org/2000/svg" version="1.1"><polyline points="404.0,1.0,404.0,5.0,406.0,9.5,409.0,13.5,411.5,17.5,414.0,21.5,416.0,26.0,418.0,30.5,420.5,35.0,421.5,39.5,424.0,44.0,426.5,47.5,428.5,51.5,431.5,55.5,434.5,59.5,437.0,63.5,439.5,67.0,442.5,70.5" stroke="black" stroke-width="2" fill="none" />
<polyline points="455.0,58.0,451.0,51.0,447.5,45.0,443.5,38.0,440.5,33.0,437.0,26.5,433.0,20.0,429.0,13.5,425.0,7.5" stroke="black" stroke-width="2" fill="none" />
<polyline points="424.0,1.5,424.5,5.5,426.5,9.0,429.0,13.5,432.0,17.5,433.5,22.0,435.5,26.0,438.5,30.5,440.5,34.5,443.5,38.0,445.5,42.0,447.5,46.0,449.5,49.5,452.0,54.0,454.5,58.0,456.5,61.5,454.0,65.5,451.0,69.5,446.5,74.0,443.0,78.0,440.5,82.5,438.0,86.0,435.0,90.0,432.5,94.0,430.0,98.0,427.5,102.0,424.5,106.0,422.5,109.0,420.0,113.0,420.0,113.0,424.0,107.0,428.0,100.5,432.0,94.0,436.0,88.5,440.0,83.0,444.0,77.0,448.0,72.5,452.0,69.0,456.5,64.5,461.0,55.5,465.0,51.5,469.0,48.0,473.0,43.5,476.5,39.0,480.5,35.0,484.5,31.0,488.5,26.5,492.5,23.0,497.5,18.5,501.0,14.5,505.0,11.5,509.0,7.5" stroke="black" stroke-width="2" fill="none" />
<polyline points="514.0,5.5,508.0,9.5,503.5,14.0,499.0,18.0,496.0,21.5,491.5,26.0,487.0,30.0,483.5,34.5,478.5,38.0,475.5,41.5,471.5,45.5,467.0,49.5,463.0,53.5,459.0,57.5" stroke="black" stroke-width="2" fill="none" />
<polyline points="511.5,76.5,507.5,81.5,503.5,86.0,499.5,91.0,497.0,95.0,493.0,97.0,489.0,102.5,485.0,106.5,481.0,111.5,477.0,116.5,473.0,121.5,469.0,127.5,465.0,134.5,461.0,140.5" stroke="black" stroke-width="2" fill="none" />
<polyline points="454.0,154.0,450.0,161.0,447.0,165.5,443.0,173.5" stroke="black" stroke-width="2" fill="none" />
<polyline points="441.5,179.0,439.5,183.5" stroke="black" stroke-width="2" fill="none" />
<polyline points="433.0,195.5,429.0,203.5,427.0,211.0,426.0,216.5,422.0,220.5" stroke="black" stroke-width="2" fill="none" />
<polyline points="418.5,229.5,416.5,235.0,413.0,243.0" stroke="black" stroke-width="2" fill="none" />
<polyline points="403.5,276.0,402.0,279.5,400.5,286.5" stroke="black" stroke-width="2" fill="none" />
<polyline points="380.5,290.5,380.5,287.0,380.0,283.0,380.0,279.0,379.5,276.0" stroke="black" stroke-width="2" fill="none" />
<polyline points="375.0,276.5,375.5,280.5,377.5,283.5,376.5,287.5,377.0,291.5,377.5,295.5,378.0,300.0,379.0,304.0,379.5,308.0,380.0,312.0,381.0,315.5,381.5,320.0,382.0,324.0,381.5,328.5,381.0,333.0,381.0,337.0,381.5,341.0,382.0,345.5,382.5,349.5,383.0,353.5" stroke="black" stroke-width="2" fill="none" />
<polyline points="369.0,350.5,369.5,354.5,369.5,359.0,369.0,363.0,369.5,367.0,369.5,371.0" stroke="black" stroke-width="2" fill="none" />
<polyline points="373.0,376.5,374.0,381.0,374.5,385.0" stroke="black" stroke-width="2" fill="none" />
<polyline points="380.5,387.0,380.0,391.0,380.0,395.0,380.0,398.5,379.5,402.0" stroke="black" stroke-width="2" fill="none" />
<polyline points="363.0,434.0,359.0,424.5,355.0,418.0,351.0,413.5,347.0,409.0,343.0,405.0,339.5,402.0,335.0,399.5,331.0,398.0,326.5,396.0,322.5,394.0,318.5,393.0,315.0,391.5,311.0,390.5,308.0,390.5,304.5,390.5,300.5,389.5" stroke="black" stroke-width="2" fill="none" />
<polyline points="313.0,382.0,317.0,371.0,321.0,365.0,324.5,359.0,329.0,352.0,332.5,343.0,336.5,334.5,341.0,325.0,345.0,316.5" stroke="black" stroke-width="2" fill="none" />
<polyline points="356.0,328.0,355.5,332.5,354.5,336.5,353.5,341.0,354.0,340.0" stroke="black" stroke-width="2" fill="none" />
<polyline points="352.5,352.5,353.0,356.0,353.0,360.0,351.5,364.0,352.0,367.5,352.0,371.5,351.0,375.5,351.0,379.5,351.5,385.5,351.5,390.0,352.0,394.0,352.5,398.0,352.5,402.0,351.0,404.0,352.0,408.5,352.5,412.5" stroke="black" stroke-width="2" fill="none" />
<polyline points="360.5,384.5,360.5,380.5,360.0,376.5,360.5,371.0,359.5,367.0,359.5,363.0" stroke="black" stroke-width="2" fill="none" />
<polyline points="359.0,363.0,359.0,366.5,359.0,370.5,358.5,374.5,358.5,379.0,358.5,383.0" stroke="black" stroke-width="2" fill="none" />
<polyline points="354.5,356.0,354.5,360.5,354.5,364.5,353.5,368.5,354.0,372.5,354.0,376.5,354.0,380.5,354.0,384.0,354.0,388.0,354.0,392.0,354.5,396.0,354.5,400.0,355.0,404.0,355.0,408.0,355.5,411.5,354.0,413.0" stroke="black" stroke-width="2" fill="none" />
<polyline points="375.0,464.0,373.0,461.0,371.5,457.5,371.5,453.5,371.5,449.5,371.5,445.5,372.0,441.5,372.5,437.5,372.5,433.5,373.0,429.5,373.5,425.0,374.0,421.0,375.5,417.0,375.5,413.0,376.0,408.5,376.5,404.0,377.5,399.5,378.0,395.0,377.5,391.0,378.5,387.5,378.5,384.0,378.5,380.0,378.0,376.0,377.5,372.5,377.0,368.5,377.0,364.5,378.0,360.5,377.5,356.5,376.0,352.5,376.0,348.5,375.5,344.5,375.5,341.0,375.5,337.0,375.0,333.0,374.5,329.0,373.5,324.5,373.0,320.5,372.5,317.0,372.0,313.0,371.5,309.0,370.5,304.5,370.0,300.0,369.0,296.0,368.5,292.0,368.5,288.0,368.5,284.0,368.5,280.0,369.0,276.0,369.5,272.5,369.0,268.0,368.0,264.0,368.0,260.0,368.0,256.0,367.0,252.0,367.0,248.0,366.0,244.5,366.5,240.5,365.0,236.5,364.0,233.0,363.0,229.0,362.0,224.5,361.0,220.5,359.5,216.5,357.5,212.5,355.5,208.5,355.0,206.0,351.5,202.0,349.5,198.0,349.0,195.5" stroke="black" stroke-width="2" fill="none" />
<polyline points="345.5,198.5,344.0,202.5,347.5,206.0" stroke="black" stroke-width="2" fill="none" />
<polyline points="349.0,203.0,345.0,198.0" stroke="black" stroke-width="2" fill="none" />
<polyline points="346.0,200.5,349.0,204.5" stroke="black" stroke-width="2" fill="none" />
<polyline points="350.0,200.0,354.0,206.0,358.5,213.5" stroke="black" stroke-width="2" fill="none" />
<polyline points="370.0,222.0,373.0,215.5,372.0,219.5,370.5,223.0,370.0,226.5,369.5,230.0,369.5,232.5,370.0,236.5,371.0,240.0,372.0,244.5,373.5,248.5,374.0,252.5,376.5,256.5,375.5,260.0,376.5,264.0,378.0,268.0" stroke="black" stroke-width="2" fill="none" />
<polyline points="383.0,264.5,382.0,268.5,382.5,272.5,380.5,276.5,378.0,281.0,378.5,285.0,379.0,289.5" stroke="black" stroke-width="2" fill="none" />
<polyline points="374.5,292.5,374.0,296.0,374.0,300.0,374.0,304.5,375.0,308.5,375.5,312.5,376.0,316.5,378.0,323.0,378.0,327.0,377.5,331.0,378.5,335.0,378.5,339.0,379.0,343.0,379.5,347.0,380.0,351.5,380.5,355.5,381.0,359.5" stroke="black" stroke-width="2" fill="none" />
<polyline points="366.5,351.5,367.0,355.5,368.0,359.5,368.0,363.5,368.0,368.0,371.0,373.0,371.0,377.0,371.0,381.0,371.0,385.0" stroke="black" stroke-width="2" fill="none" />
<polyline points="383.5,349.0,383.0,345.0,383.5,341.0,384.0,337.0,383.0,333.0,382.5,329.0" stroke="black" stroke-width="2" fill="none" />
<polyline points="343.5,282.5,343.0,282.5,340.0,282.0,340.5,274.5,341.5,270.5,340.0,265.0,336.0,263.5" stroke="black" stroke-width="2" fill="none" />
<polyline points="333.0,265.5,336.5,265.0,336.5,269.0,334.0,273.0,333.0,271.0" stroke="black" stroke-width="2" fill="none" />
<polyline points="335.5,277.5,336.0,282.0" stroke="black" stroke-width="2" fill="none" />
<polyline points="336.5,280.0,340.5,281.5,344.0,280.0,347.5,279.5,348.0,284.0,349.5,288.0,349.0,292.0,350.0,296.0,350.0,299.5,348.5,303.5,348.0,307.5,344.5,311.5,347.5,313.5,346.0,317.5,344.5,322.0,342.5,326.0,340.5,330.5,338.0,334.0,336.5,338.0,334.5,342.0,333.0,346.0,331.0,350.0,328.0,354.0,325.5,357.5,323.0,361.0,320.0,365.0,318.0,368.5,316.0,372.5,314.5,376.0,313.0,380.5,313.5,384.5,311.0,388.5,317.0,391.5,326.0,395.5,335.0,400.0,341.5,404.0,346.5,408.0,350.5,412.5,354.0,417.0,356.5,421.0,359.0,425.5,360.5,429.5,362.5,433.0,363.5,437.0,364.5,440.5,365.5,444.5,367.0,448.5,368.0,452.0,369.0,456.0,370.0,460.0,371.0,464.0,372.0,468.0,373.5,472.0,374.5,476.0,376.0,480.5,377.5,485.0,378.0,489.0,379.0,493.5,380.5,497.5,381.5,502.0,382.5,506.0,383.5,510.0,384.5,514.0" stroke="black" stroke-width="2" fill="none" />
<polyline points="422.5,489.5,426.5,494.5,430.0,493.5,433.5,491.0,437.5,488.0,441.0,484.0,445.0,480.5,449.0,475.5,452.0,470.5,456.0,467.0" stroke="black" stroke-width="2" fill="none" />
<polyline points="457.5,465.5,452.5,469.5,450.0,468.0,454.0,461.5" stroke="black" stroke-width="2" fill="none" />
<polyline points="454.5,451.5,458.5,442.5" stroke="black" stroke-width="2" fill="none" />
<polyline points="466.5,430.0,470.5,423.0,474.0,416.5,477.5,408.0,481.0,405.0,485.0,401.0,489.0,398.5,493.0,395.0,494.5,391.5,498.5,389.5,502.5,387.5,506.5,386.5,510.5,385.0" stroke="black" stroke-width="2" fill="none" />
<polyline points="512.5,382.5,502.0,386.5,493.5,391.0,492.0,395.0,486.0,399.0,482.5,403.0,477.5,407.0,475.5,411.0,474.5,415.5,472.0,419.5,469.5,424.0,468.0,427.5,466.0,431.0,462.5,434.5,461.0,439.0,459.0,443.0,457.5,447.5,456.5,451.5,456.0,455.5,456.0,459.5,454.5,464.0,452.0,467.5,450.0,472.0,450.0,476.5,447.5,480.5,443.0,484.5,439.0,488.5,434.0,492.5" stroke="black" stroke-width="2" fill="none" />
<polyline points="430.5,480.0,429.5,477.5,431.0,475.0,433.5,478.5,435.5,474.5,435.5,470.5,437.0,466.5,438.0,463.0,439.0,459.0,438.0,457.5,434.5,455.0,430.5,452.0" stroke="black" stroke-width="2" fill="none" />
<polyline points="438.5,457.0,434.5,455.0,430.5,451.5,430.0,447.5,431.0,443.5,431.5,439.5,432.5,435.5,434.5,431.5,432.5,434.5" stroke="black" stroke-width="2" fill="none" />
<polyline points="430.0,466.5,426.5,471.5,422.5,475.5,419.5,470.5,417.5,466.5" stroke="black" stroke-width="2" fill="none" />
<polyline points="430.5,468.5,427.5,472.0,423.0,476.0,422.0,480.0,422.5,484.0,422.5,487.5,423.5,492.0" stroke="black" stroke-width="2" fill="none" />
<polyline points="484.5,409.5,480.5,414.5,478.5,417.0,482.0,412.5,485.0,408.5,488.0,404.5" stroke="black" stroke-width="2" fill="none" />
<polyline points="444.5,425.0,446.0,423.0,447.5,419.0,448.5,415.5,448.5,411.5,449.0,407.5,450.0,403.5,450.5,399.5,451.0,395.5,451.5,391.0,453.0,387.0,453.5,382.5,453.5,378.5,454.0,374.5,453.5,370.5,453.5,366.5" stroke="black" stroke-width="2" fill="none" />
<polyline points="320.0,348.5,318.5,344.0,318.0,342.5" stroke="black" stroke-width="2" fill="none" />
<polyline points="320.0,347.0,316.0,350.5,312.0,351.0,308.0,352.5" stroke="black" stroke-width="2" fill="none" />
<polyline points="310.5,355.0,306.5,354.5,303.0,355.0,299.0,356.0,295.0,355.5" stroke="black" stroke-width="2" fill="none" />
<polyline points="293.5,358.0,297.5,359.5,302.0,358.5,306.0,359.5,310.0,358.0,310.0,358.5,308.5,363.0" stroke="black" stroke-width="2" fill="none" />
<polyline points="314.0,346.5,309.5,347.0,305.5,347.0,301.0,346.5,297.0,347.0,293.0,348.0" stroke="black" stroke-width="2" fill="none" />
<polyline points="305.5,335.5,304.0,331.5,314.0,329.0,313.5,329.5,309.5,331.0,305.5,332.0" stroke="black" stroke-width="2" fill="none" />
<polyline points="309.0,329.0,305.0,327.5,301.5,327.0,298.0,326.0" stroke="black" stroke-width="2" fill="none" />
<polyline points="296.0,325.0,300.0,323.5,304.0,324.0,308.0,326.0" stroke="black" stroke-width="2" fill="none" />
<polyline points="319.0,327.0,320.5,324.5,322.5,320.5,322.5,316.5,322.5,312.5,322.0,308.0,321.5,304.0" stroke="black" stroke-width="2" fill="none" />
<polyline points="324.5,276.0,321.0,274.5" stroke="black" stroke-width="2" fill="none" />
<polyline points="318.5,272.5,322.5,265.5,326.5,262.5,330.5,261.0,334.5,260.0,338.5,259.0,342.5,258.0,346.5,257.0,349.0,252.5,353.5,251.5" stroke="black" stroke-width="2" fill="none" />
<polyline points="352.0,254.5,348.0,256.5" stroke="black" stroke-width="2" fill="none" />
<polyline points="343.5,255.0,340.0,255.0,336.0,256.0,332.0,256.5" stroke="black" stroke-width="2" fill="none" />
<polyline points="335.5,253.5,329.5,257.5,326.5,262.0,322.0,266.0,319.5,270.0,318.5,273.5,318.5,275.0,323.0,277.0" stroke="black" stroke-width="2" fill="none" />
<polyline points="327.0,274.5,324.5,271.0" stroke="black" stroke-width="2" fill="none" />
<polyline points="324.0,269.0,323.5,272.5,324.0,276.0,330.5,278.0,334.0,278.5,338.0,278.0,342.0,276.5,348.5,278.5" stroke="black" stroke-width="2" fill="none" />
<polyline points="327.5,272.5,325.5,271.0,328.0,271.0,334.0,270.0,330.0,270.0,325.5,268.5" stroke="black" stroke-width="2" fill="none" />
<polyline points="322.0,269.0,326.0,275.0,330.5,276.0,334.5,274.0,333.5,272.0" stroke="black" stroke-width="2" fill="none" />
<polyline points="326.5,259.5,330.5,256.0,334.5,254.0,339.0,253.0,342.5,251.5,347.5,248.0,352.0,245.0" stroke="black" stroke-width="2" fill="none" />
<polyline points="353.5,241.5,350.5,245.5,345.5,249.5,342.0,253.5" stroke="black" stroke-width="2" fill="none" />
<polyline points="348.5,239.0,347.5,235.0,345.5,231.0,344.0,227.5,343.5,223.5,341.5,219.5,341.0,215.5,339.5,211.0,335.5,204.0" stroke="black" stroke-width="2" fill="none" />
<polyline points="334.0,203.5,337.5,201.0,341.5,198.0,346.0,196.0,350.0,194.0,354.0,191.5,358.0,189.5,362.0,186.5,366.0,184.5,370.0,183.0,374.5,181.5,378.5,180.5,382.5,179.0,386.5,176.5,390.5,174.5,394.5,172.5,398.5,170.5,402.5,169.0,406.5,168.5,403.0,172.0,401.0,176.5,398.0,180.0,393.5,183.5,387.5,187.5,381.5,189.5,385.5,188.0,389.0,185.5,393.0,183.0,397.0,180.0,401.0,175.0" stroke="black" stroke-width="2" fill="none" />
<polyline points="403.5,164.0,406.0,157.5,404.5,162.0,404.5,166.5,397.5,170.5,390.0,175.0,383.0,179.5" stroke="black" stroke-width="2" fill="none" />
<polyline points="374.0,182.5,364.0,186.5,357.5,190.0,351.0,194.0,342.5,197.5,337.0,201.0,337.5,204.5,342.5,207.5,347.0,211.5,352.5,212.0" stroke="black" stroke-width="2" fill="none" />
<polyline points="355.5,205.5,351.5,200.0" stroke="black" stroke-width="2" fill="none" />
<polyline points="353.0,200.0,355.5,204.0,357.5,208.0" stroke="black" stroke-width="2" fill="none" />
<polyline points="361.5,204.0,358.0,195.5" stroke="black" stroke-width="2" fill="none" />
<polyline points="357.0,192.0,357.0,196.0,358.0,200.0,360.0,204.0,361.0,208.0" stroke="black" stroke-width="2" fill="none" />
<polyline points="361.0,191.0,365.0,196.0,369.0,195.0,373.0,193.5,377.0,191.0" stroke="black" stroke-width="2" fill="none" />
<polyline points="362.0,194.0,359.5,189.5" stroke="black" stroke-width="2" fill="none" />
<polyline points="342.0,202.5,346.0,207.0" stroke="black" stroke-width="2" fill="none" />
<polyline points="343.5,206.0,348.5,210.0,352.0,213.5" stroke="black" stroke-width="2" fill="none" />
<polyline points="345.5,211.5,341.0,209.5" stroke="black" stroke-width="2" fill="none" />
<polyline points="342.0,205.5,346.0,208.5,350.0,212.0,354.0,217.0,358.0,224.5" stroke="black" stroke-width="2" fill="none" />
<polyline points="372.0,230.0,372.5,234.5,372.5,238.5,371.5,243.0" stroke="black" stroke-width="2" fill="none" />
<polyline points="369.5,248.0,369.5,252.5,370.5,256.0,371.5,260.0,372.0,264.0,372.5,268.5,371.5,272.5,373.5,273.5,373.0,276.5,373.5,280.5,374.0,285.0" stroke="black" stroke-width="2" fill="none" />
<polyline points="362.0,281.5,362.5,280.0,363.5,276.0,364.0,271.5,364.0,267.0,364.5,263.0" stroke="black" stroke-width="2" fill="none" />
<polyline points="365.5,262.5,365.5,266.5,365.0,271.0,365.0,275.0,365.5,279.0,365.5,283.5,366.0,287.5,365.0,292.0,365.0,296.5,364.0,301.0,364.0,305.0,364.0,309.0,364.5,313.0" stroke="black" stroke-width="2" fill="none" />
<polyline points="365.0,248.5,364.5,244.5" stroke="black" stroke-width="2" fill="none" />
<polyline points="352.5,208.0,351.5,210.5,347.5,207.5,343.5,204.5,339.5,202.0" stroke="black" stroke-width="2" fill="none" />
<polyline points="339.0,203.5,341.5,207.5,346.5,211.0,350.5,215.0,353.5,218.5,356.0,222.5,358.5,227.5,360.5,231.5,362.5,235.5,363.5,239.5,364.0,243.5,364.5,247.5" stroke="black" stroke-width="2" fill="none" />
<polyline points="341.0,216.0,336.5,208.0" stroke="black" stroke-width="2" fill="none" />
<polyline points="308.5,178.5,304.5,181.0,300.5,183.0,296.5,186.5,292.0,189.5,288.5,192.5,284.5,196.0,280.5,199.5,276.0,203.0,271.5,206.5,266.5,211.5,266.5,213.0" stroke="black" stroke-width="2" fill="none" />
<polyline points="261.0,210.5,265.0,206.0" stroke="black" stroke-width="2" fill="none" />
<polyline points="260.0,208.5,264.5,201.5,262.0,201.5,260.0,206.0,259.0,210.0,258.5,214.5,256.0,219.5,252.5,223.0,248.5,227.0,244.0,231.0,240.5,235.0,238.0,239.0,235.0,243.0" stroke="black" stroke-width="2" fill="none" />
<polyline points="233.5,224.0,229.0,222.0" stroke="black" stroke-width="2" fill="none" />
<polyline points="228.5,219.5,232.5,222.0" stroke="black" stroke-width="2" fill="none" />
<polyline points="227.5,216.0,224.5,221.0,229.0,229.5" stroke="black" stroke-width="2" fill="none" />
<polyline points="219.0,232.5,220.0,236.5" stroke="black" stroke-width="2" fill="none" />
<polyline points="216.0,232.5,219.5,231.5,220.5,235.5,221.0,239.5,219.0,243.5,217.0,247.5" stroke="black" stroke-width="2" fill="none" />
<polyline points="214.5,247.0,215.0,251.0,217.5,254.5" stroke="black" stroke-width="2" fill="none" />
<polyline points="220.0,249.5,221.0,245.0,223.5,241.5,223.0,237.5,227.0,234.0,221.5,234.0,224.0,231.0,221.0,229.5,220.5,225.5,220.5,221.5,220.0,217.5,220.0,213.5" stroke="black" stroke-width="2" fill="none" />
<polyline points="218.5,216.5,218.0,220.5,218.5,224.5,216.5,227.0,220.0,231.5,224.5,231.0,229.5,234.5" stroke="black" stroke-width="2" fill="none" />
<polyline points="230.0,242.5,226.0,247.5,222.0,254.0,218.5,260.5,214.5,267.5,210.5,274.0,206.5,281.0,202.5,288.5,199.0,296.5,195.0,304.5,191.5,314.0,187.5,318.0,183.5,325.5,179.0,329.5,175.0,329.0,171.0,329.5,167.5,332.0,163.5,339.0,159.5,341.0,156.0,343.5,152.0,350.0,148.0,347.0" stroke="black" stroke-width="2" fill="none" />
<polyline points="145.5,343.5,148.0,339.5,146.0,339.0,149.0,337.0,148.0,332.5,149.5,329.0,147.5,330.5" stroke="black" stroke-width="2" fill="none" />
<polyline points="150.5,328.0,154.0,332.5,153.5,337.0" stroke="black" stroke-width="2" fill="none" />
<polyline points="149.0,340.0,147.5,344.0,147.0,348.5,146.0,353.0" stroke="black" stroke-width="2" fill="none" />
<polyline points="148.5,363.0,152.5,369.0,153.0,372.5,153.0,376.5,155.0,380.0,155.5,384.0,156.5,388.0,160.0,393.5,161.5,398.0,160.5,402.0,161.0,406.5,162.0,410.0,161.5,414.0,162.5,417.5,163.0,421.5,160.5,425.5,161.0,418.5,160.0,423.0,160.0,427.0,162.0,424.5" stroke="black" stroke-width="2" fill="none" />
<polyline points="166.0,427.0,167.5,431.0,169.5,435.0,168.5,438.5,168.5,440.0,173.5,439.5" stroke="black" stroke-width="2" fill="none" />
<polyline points="174.0,444.5,178.0,445.0" stroke="black" stroke-width="2" fill="none" />
<polyline points="175.0,444.5,175.0,448.5,176.0,452.0,175.5,456.0" stroke="black" stroke-width="2" fill="none" />
<polyline points="173.5,460.5,169.5,454.0" stroke="black" stroke-width="2" fill="none" />
<polyline points="169.0,454.0,171.0,458.0,170.5,463.5,169.0,467.5,165.5,469.0" stroke="black" stroke-width="2" fill="none" />
<polyline points="165.5,468.5,162.0,468.5,156.0,472.5,152.0,469.5,148.5,463.0,144.5,454.5,140.5,451.5,136.5,456.0,132.0,465.0" stroke="black" stroke-width="2" fill="none" />
<polyline points="138.5,463.5,140.0,467.5,143.0,471.5,147.5,475.0,153.0,479.0,155.0,484.5,153.0,482.5,157.0,484.0,158.5,489.5,163.0,496.0,165.5,494.0,168.0,500.5" stroke="black" stroke-width="2" fill="none" />
<polyline points="164.5,504.5,165.5,505.5,169.0,509.5" stroke="black" stroke-width="2" fill="none" />
<polyline points="166.0,498.5,162.0,496.5" stroke="black" stroke-width="2" fill="none" />
<polyline points="159.0,501.5,161.5,505.0,163.5,509.5" stroke="black" stroke-width="2" fill="none" />
<polyline points="155.0,510.0,150.5,505.0" stroke="black" stroke-width="2" fill="none" />
<polyline points="153.0,498.0,149.0,492.5" stroke="black" stroke-width="2" fill="none" />
<polyline points="148.5,495.5,152.5,502.0" stroke="black" stroke-width="2" fill="none" />
<polyline points="152.5,494.0,152.0,489.0,148.5,485.0" stroke="black" stroke-width="2" fill="none" />
<polyline points="150.5,483.5,150.0,487.5,153.0,491.5,156.0,491.5,156.5,495.0,157.0,498.5,158.5,502.5,159.0,506.5,159.5,507.0,166.0,510.0" stroke="black" stroke-width="2" fill="none" />
<polyline points="151.5,509.5,147.5,500.0,144.0,495.0" stroke="black" stroke-width="2" fill="none" />
<polyline points="143.5,495.5,146.5,499.0,149.0,503.5,150.5,507.5,152.5,512.0" stroke="black" stroke-width="2" fill="none" />
<polyline points="156.0,505.5,152.0,502.5,148.0,496.0,146.5,491.0,142.5,482.5" stroke="black" stroke-width="2" fill="none" />
<polyline points="141.0,483.5,145.0,490.5,149.5,495.0,152.0,499.0,154.5,503.0,153.0,504.5" stroke="black" stroke-width="2" fill="none" />
<polyline points="172.0,510.0,168.0,506.5,164.5,504.0,161.0,502.5,157.0,500.0,152.5,498.0,151.5,493.5,147.5,491.5,145.5,488.0,143.5,484.0,140.5,478.0" stroke="black" stroke-width="2" fill="none" />
<polyline points="141.0,484.0,143.5,488.0,144.5,492.0,147.0,496.0,150.0,499.5,152.0,504.0,152.5,507.5,156.0,512.0" stroke="black" stroke-width="2" fill="none" />
<polyline points="142.0,513.0,144.0,509.0,141.5,505.0,140.5,501.5,139.0,497.5,134.5,492.5,134.0,486.5" stroke="black" stroke-width="2" fill="none" />
<polyline points="134.5,485.0,138.5,488.5,139.0,495.5" stroke="black" stroke-width="2" fill="none" />
<polyline points="130.5,499.0,134.0,508.0" stroke="black" stroke-width="2" fill="none" />
<polyline points="131.0,510.0,127.5,504.5,123.5,496.5" stroke="black" stroke-width="2" fill="none" />
<polyline points="125.0,497.5,127.0,502.0,126.0,506.5,126.0,510.5" stroke="black" stroke-width="2" fill="none" />
<polyline points="124.0,510.5,124.5,506.5,125.0,502.5,125.0,498.5,125.0,494.0,124.0,492.0" stroke="black" stroke-width="2" fill="none" />
<polyline points="123.0,483.5,124.0,487.5,126.0,491.0,128.5,495.0,130.0,499.0,131.5,502.5,133.0,506.0,136.0,510.0" stroke="black" stroke-width="2" fill="none" />
<polyline points="132.5,512.5,129.5,508.0,127.0,504.0" stroke="black" stroke-width="2" fill="none" />
<polyline points="110.0,509.5,110.0,506.0,111.0,502.0,111.5,498.0,113.0,494.0,113.0,490.0,114.0,488.0" stroke="black" stroke-width="2" fill="none" />
<polyline points="114.0,488.5,113.5,492.5,113.0,496.5,111.5,500.5,111.5,504.5,111.0,508.5,110.0,512.5" stroke="black" stroke-width="2" fill="none" />
<polyline points="104.5,506.5,100.5,502.0" stroke="black" stroke-width="2" fill="none" />
<polyline points="101.0,491.0,100.0,494.5,101.0,498.5,103.0,503.0,104.5,507.5,106.5,511.5" stroke="black" stroke-width="2" fill="none" />
<polyline points="105.0,510.5,103.0,506.5,100.5,502.5,98.5,498.0,98.0,494.0,97.0,489.5" stroke="black" stroke-width="2" fill="none" />
<polyline points="96.0,470.0,92.5,474.0,93.5,472.5,97.5,469.0" stroke="black" stroke-width="2" fill="none" />
<polyline points="94.5,455.0,91.0,457.5,87.0,460.0,88.0,459.0,94.0,454.5" stroke="black" stroke-width="2" fill="none" />
<polyline points="93.0,452.0,89.0,455.5,85.0,457.5,83.5,459.0,90.0,455.0,94.5,451.0" stroke="black" stroke-width="2" fill="none" />
<polyline points="110.0,446.5,109.5,442.5,108.0,441.0" stroke="black" stroke-width="2" fill="none" />
<polyline points="105.5,439.0,105.0,443.0,103.5,446.5" stroke="black" stroke-width="2" fill="none" />
<polyline points="102.5,436.0,98.5,440.0,95.0,445.5,93.0,444.5,93.0,448.0,94.0,444.0,99.0,440.0,103.5,436.0,105.0,432.0,106.5,428.0,106.5,424.0,106.5,420.0,110.0,418.5,106.0,420.0" stroke="black" stroke-width="2" fill="none" />
<polyline points="108.0,416.5,109.0,421.0,108.5,424.5,108.0,428.5,108.0,432.5,107.0,436.0,106.0,440.0,107.5,447.0" stroke="black" stroke-width="2" fill="none" />
<polyline points="102.5,439.5,98.0,442.5,101.0,440.0,103.5,435.5" stroke="black" stroke-width="2" fill="none" />
<polyline points="116.0,430.5,115.5,426.5" stroke="black" stroke-width="2" fill="none" />
<polyline points="120.5,431.0,120.0,435.0,118.5,438.5,117.0,442.5,118.5,443.0,119.0,437.0" stroke="black" stroke-width="2" fill="none" />
<polyline points="122.0,439.0,120.0,443.0" stroke="black" stroke-width="2" fill="none" />
<polyline points="120.5,451.5,122.5,450.0,123.5,454.0" stroke="black" stroke-width="2" fill="none" />
<polyline points="121.5,452.5,124.0,456.5" stroke="black" stroke-width="2" fill="none" />
<polyline points="139.0,464.0,143.5,465.5,147.0,467.5,150.5,473.5,154.0,474.5" stroke="black" stroke-width="2" fill="none" />
<polyline points="154.5,467.5,148.0,461.0" stroke="black" stroke-width="2" fill="none" />
<polyline points="148.5,461.0,152.5,465.0,155.5,467.5" stroke="black" stroke-width="2" fill="none" />
<polyline points="149.5,467.5,152.0,471.5,157.5,475.5" stroke="black" stroke-width="2" fill="none" />
<polyline points="156.0,474.0,152.5,471.0,148.5,464.0" stroke="black" stroke-width="2" fill="none" />
<polyline points="150.5,461.0,155.0,466.5,157.0,466.5,158.0,472.5,160.5,475.5,159.0,475.0,164.5,476.5,166.5,472.5" stroke="black" stroke-width="2" fill="none" />
<polyline points="164.5,470.0,168.5,474.0,170.5,478.0,167.5,482.0,165.5,486.0,167.5,490.0,168.0,492.5" stroke="black" stroke-width="2" fill="none" />
<polyline points="168.0,490.5,166.5,486.5,159.0,483.5" stroke="black" stroke-width="2" fill="none" />
<polyline points="167.5,478.5,165.5,483.0,167.0,481.0,170.0,481.5" stroke="black" stroke-width="2" fill="none" />
<polyline points="171.0,462.0,167.0,460.5" stroke="black" stroke-width="2" fill="none" />
<polyline points="177.0,463.5,178.0,459.0,179.5,455.0,173.5,458.0,171.5,454.0,169.5,450.0,168.0,447.5,166.0,443.5,166.5,440.5,167.0,436.0,167.0,431.5,168.0,432.0" stroke="black" stroke-width="2" fill="none" />
<polyline points="166.5,428.5,170.5,434.5,174.5,434.5" stroke="black" stroke-width="2" fill="none" />
<polyline points="182.0,435.0,181.5,440.0,177.5,440.5,173.5,445.0,169.5,445.0,166.0,441.5,162.0,446.0" stroke="black" stroke-width="2" fill="none" />
<polyline points="163.0,443.0,164.5,447.0,166.5,451.0,168.0,456.0,171.5,460.0,168.5,463.5,167.5,467.5,163.0,470.5,164.0,474.5,162.5,479.0,160.0,480.5,160.0,483.0,159.5,487.0,161.5,490.5,165.5,494.5,167.0,498.5,169.0,505.0,172.5,509.0,173.0,513.0,173.5,512.5" stroke="black" stroke-width="2" fill="none" />
<polyline points="193.0,493.5,197.0,492.5,201.0,491.5,205.0,489.5,209.0,487.5,213.0,485.0,217.5,482.0,221.5,477.5,226.0,472.5,229.5,467.0" stroke="black" stroke-width="2" fill="none" />
<polyline points="232.5,466.5,236.5,459.0" stroke="black" stroke-width="2" fill="none" />
<polyline points="210.0,486.0,215.5,482.0,219.5,478.5,223.5,474.5,226.5,470.5,229.5,466.5,231.5,462.5,233.5,459.0,233.5,455.0,234.0,451.0,234.5,447.5,235.5,443.5,236.0,439.5,237.0,435.5,236.5,431.5,236.5,427.5,236.5,423.5,235.0,419.5,234.0,415.5,232.0,411.5,230.0,407.0,229.5,405.0" stroke="black" stroke-width="2" fill="none" />
<polyline points="224.0,411.5,224.0,415.5,224.5,416.0" stroke="black" stroke-width="2" fill="none" />
<polyline points="229.5,415.5,228.5,419.5" stroke="black" stroke-width="2" fill="none" />
<polyline points="243.5,411.0,243.5,415.0,243.5,418.5,243.0,422.5,242.5,426.5,242.0,430.5,242.0,434.5,241.5,438.5,241.0,443.0,240.5,447.0,238.5,450.5,238.0,454.5,237.5,458.5,236.0,462.5,233.5,466.0,233.0,470.0,230.5,474.0,227.5,477.5,224.0,482.0,219.5,486.0,212.5,490.0" stroke="black" stroke-width="2" fill="none" />
<polyline points="199.5,495.5,195.5,498.0,199.5,495.0,204.0,494.0,208.0,492.5,212.0,491.0,216.5,489.0,220.0,486.5,224.5,482.5,228.0,478.0,232.0,471.5" stroke="black" stroke-width="2" fill="none" />
<polyline points="199.0,447.5,199.5,443.5,202.0,443.5,197.5,445.5" stroke="black" stroke-width="2" fill="none" />
<polyline points="198.0,450.0,194.0,448.0,189.5,447.0,185.5,446.5,181.5,446.0,177.5,449.5,178.5,448.0,180.0,448.0,182.5,441.5,182.5,436.5,181.0,434.0,179.5,432.0,181.5,428.0,182.5,425.0,181.5,421.5,180.0,417.5,179.0,413.5,177.0,409.5,175.0,405.0,172.5,401.0,169.0,396.5,165.5,393.0,161.0,389.0,159.0,385.0,162.5,381.5,163.5,377.5,162.5,381.5" stroke="black" stroke-width="2" fill="none" />
<polyline points="159.5,376.5,164.0,371.0,167.5,366.0,171.0,361.5,175.5,356.0,179.0,349.5,183.0,343.5,187.0,338.5,191.5,333.0,195.5,328.5,200.0,323.5" stroke="black" stroke-width="2" fill="none" />
<polyline points="196.0,317.5,200.5,316.0" stroke="black" stroke-width="2" fill="none" />
<polyline points="192.5,319.0,196.5,310.0,200.0,301.5,203.5,293.5,207.5,287.0,211.0,279.5,215.0,272.5,219.0,266.0,223.0,259.0,227.0,252.5,231.0,247.0,235.0,241.5,238.5,236.5,242.0,232.0,246.5,228.0,250.5,223.5,254.5,219.5" stroke="black" stroke-width="2" fill="none" />
<polyline points="262.0,221.0,266.5,225.0" stroke="black" stroke-width="2" fill="none" />
<polyline points="266.0,236.0,266.5,240.0" stroke="black" stroke-width="2" fill="none" />
<polyline points="262.0,238.5,262.0,234.5,262.0,230.5,261.5,226.5,261.0,225.5,257.0,225.0,251.5,230.0,247.5,234.0,243.5,238.5,239.5,243.5,235.5,248.5,231.5,254.0,228.0,259.0,224.0,265.5,220.0,272.0,216.0,279.5,214.0,283.5,216.0,279.5,218.5,275.5,220.5,271.5,223.0,267.5,226.0,263.5,228.0,259.5,232.0,255.0,235.5,251.0,238.5,247.0,241.5,243.5,244.5,239.5,247.5,236.0,251.5,232.5,256.0,227.5,260.0,223.5,263.0,219.5,265.0,218.0,263.0,216.0,264.0,212.0,264.5,208.0,268.0,204.0,269.5,199.5,270.0,195.5,271.0,191.0,270.0,187.0,265.0,192.5,261.0,197.5,257.5,202.5,253.5,204.0" stroke="black" stroke-width="2" fill="none" />
<polyline points="253.0,202.5,256.5,198.5" stroke="black" stroke-width="2" fill="none" />
<polyline points="263.5,199.0,259.5,207.0,257.0,213.5,253.0,217.5,249.0,221.5,245.0,226.5,241.0,231.0,237.5,236.0,233.5,235.5,233.0,234.5,232.0,230.5,231.0,226.5,230.5,222.5,229.0,218.5,227.5,214.5,226.0,214.5,225.0,210.5,225.5,206.5,226.0,202.5" stroke="black" stroke-width="2" fill="none" />
<polyline points="221.0,205.5,225.0,201.0,227.5,198.0,224.0,202.0,221.0,206.0,220.0,210.5,222.5,213.5,223.5,217.0,225.0,221.0,228.5,225.5,229.5,230.0,230.5,233.5,231.0,237.0,233.0,241.0,229.5,244.5,226.0,248.5,223.5,252.0,220.5,256.0,218.0,260.0,215.5,264.0,213.0,268.5,211.5,272.5,209.5,276.5,207.5,280.5,205.0,284.5,203.5,288.5,201.5,292.5,199.5,296.5,197.5,300.5,195.5,304.5,193.5,308.5,192.0,312.5,190.0,316.5,192.0,319.5,196.0,321.0,199.5,320.0,205.0,313.5,208.5,308.0,212.0,301.0,216.0,295.0,220.0,290.0,224.0,285.0,228.5,280.5,232.5,276.5,236.5,272.5,241.0,268.0,245.0,264.0,249.0,259.5,253.5,256.5,258.0,253.0,262.0,249.5,266.0,247.0,270.0,244.5,275.0,245.0,279.0,247.5,283.0,248.5,287.0,249.0,291.0,249.5,295.0,252.0,299.0,254.5" stroke="black" stroke-width="2" fill="none" />
<polyline points="289.5,256.5,287.0,257.0,284.5,259.0,286.0,260.0" stroke="black" stroke-width="2" fill="none" />
<polyline points="287.5,260.0,288.0,266.0,290.0,270.5" stroke="black" stroke-width="2" fill="none" />
<polyline points="291.5,272.0,287.5,265.5" stroke="black" stroke-width="2" fill="none" />
<polyline points="286.5,266.5,287.0,270.5" stroke="black" stroke-width="2" fill="none" />
<polyline points="284.5,278.0,280.0,277.0" stroke="black" stroke-width="2" fill="none" />
<polyline points="287.5,273.0,283.5,270.0,280.0,265.5,276.0,263.5,272.0,264.5" stroke="black" stroke-width="2" fill="none" />
<polyline points="269.0,265.5,269.0,265.5,270.5,269.5" stroke="black" stroke-width="2" fill="none" />
<polyline points="271.5,265.5,266.5,269.0,262.0,266.5" stroke="black" stroke-width="2" fill="none" />
<polyline points="261.5,265.0,262.5,269.0,267.0,273.0,267.5,280.0" stroke="black" stroke-width="2" fill="none" />
<polyline points="274.0,282.5,273.0,282.0,270.5,277.5,271.0,272.0,274.0,268.0,273.0,269.5,269.0,274.0,265.0,273.5,261.0,269.5" stroke="black" stroke-width="2" fill="none" />
<polyline points="259.0,268.0,258.5,268.0,259.5,272.0,259.0,275.5,264.0,278.0,263.0,282.0" stroke="black" stroke-width="2" fill="none" />
<polyline points="260.0,272.5,255.5,275.0,251.5,271.5,247.5,269.0" stroke="black" stroke-width="2" fill="none" />
<polyline points="247.0,268.5,250.0,267.5,249.0,271.5,253.0,275.5,255.5,279.5,262.5,278.0,267.0,278.5,271.0,277.0,275.5,279.5,280.0,279.5,285.0,272.5,281.0,276.0,279.5,281.5" stroke="black" stroke-width="2" fill="none" />
<polyline points="292.5,270.0,290.0,266.0,287.0,262.0,281.5,258.0,282.0,253.0,278.0,252.0" stroke="black" stroke-width="2" fill="none" />
<polyline points="276.5,255.5,274.0,251.0,270.0,249.0,266.0,248.0,262.0,250.5" stroke="black" stroke-width="2" fill="none" />
<polyline points="269.0,257.5,272.0,253.5" stroke="black" stroke-width="2" fill="none" />
<polyline points="280.0,257.0,276.0,258.5,271.5,255.5,269.5,257.5,265.5,259.0,262.0,258.0,259.5,259.5,256.0,260.0" stroke="black" stroke-width="2" fill="none" />
<polyline points="265.0,268.0,263.5,269.0,264.5,271.0,268.0,272.5" stroke="black" stroke-width="2" fill="none" />
<polyline points="277.5,263.5,282.5,268.0,285.0,272.0,286.5,276.0,287.5,278.5,286.5,279.5,289.0,276.5" stroke="black" stroke-width="2" fill="none" />
<polyline points="295.5,254.0,289.0,250.0" stroke="black" stroke-width="2" fill="none" />
<polyline points="274.0,244.5,268.5,245.5,263.0,249.5,258.0,253.5,253.5,257.0,248.5,261.0,245.0,265.0,241.0,269.0,237.0,273.0,233.0,276.5,229.0,280.5,225.5,285.0,222.0,289.0,219.0,293.5,216.5,298.0,214.0,302.5,211.0,306.5,207.5,310.0,204.0,314.0,203.0,317.5,200.5,321.5,197.0,325.5,194.0,329.5,192.0,334.0,189.5,338.0,187.0,342.5,184.0,346.0,181.5,350.0,179.0,354.0,176.5,358.5,174.0,362.5,170.0,366.0,166.5,370.0,163.5,374.0,161.0,377.5,159.0,383.5,162.5,389.5,166.0,392.0,170.0,397.0,174.0,402.5,178.0,410.0" stroke="black" stroke-width="2" fill="none" />
<polyline points="171.5,407.0,167.5,403.0,163.5,402.5,157.5,395.5,153.5,391.5" stroke="black" stroke-width="2" fill="none" />
<polyline points="152.0,394.5,156.0,396.0" stroke="black" stroke-width="2" fill="none" />
<polyline points="156.0,398.5,152.0,395.0,150.0,395.5" stroke="black" stroke-width="2" fill="none" />
<polyline points="148.0,394.0,148.0,396.5,148.5,402.5,150.0,406.0,152.5,412.5,152.5,416.5,153.0,420.5" stroke="black" stroke-width="2" fill="none" />
<polyline points="155.0,421.0,155.0,421.0,156.0,425.5,157.0,429.5,157.5,433.0,157.5,435.0,156.5,439.0,156.0,440.5" stroke="black" stroke-width="2" fill="none" />
<polyline points="164.5,441.5,162.5,442.0,161.0,446.0,159.0,450.5,159.5,455.0,160.5,458.0,163.5,462.0" stroke="black" stroke-width="2" fill="none" />
<polyline points="163.5,457.0,162.0,458.5,163.0,455.0,164.0,451.0,161.5,452.0,161.0,450.0" stroke="black" stroke-width="2" fill="none" />
<polyline points="165.0,444.5,169.0,451.5,173.5,458.0,177.5,461.0" stroke="black" stroke-width="2" fill="none" />
<polyline points="159.0,461.0,154.5,458.5" stroke="black" stroke-width="2" fill="none" />
<polyline points="149.0,456.0,145.0,452.5" stroke="black" stroke-width="2" fill="none" />
<polyline points="144.5,448.5,148.0,452.5,151.5,454.0,152.0,458.5,153.0,455.5,157.0,456.0,162.5,454.5" stroke="black" stroke-width="2" fill="none" />
<polyline points="154.0,452.0,150.0,450.5,146.0,449.5,142.5,447.0" stroke="black" stroke-width="2" fill="none" />
<polyline points="145.5,448.0,146.5,452.0,149.5,456.0,151.0,460.0,152.0,464.0,151.5,467.0,155.5,470.0,158.0,474.0,157.5,478.5,161.0,480.0,165.0,477.0,169.5,477.5" stroke="black" stroke-width="2" fill="none" />
<polyline points="171.5,460.0,167.0,454.5,162.5,452.5,162.0,448.5,158.0,451.0,155.0,448.5,155.0,450.0,156.0,446.0,153.5,441.5,153.5,437.5,149.5,438.0,147.5,434.0,146.5,430.0,149.0,427.0,144.0,422.5,138.5,420.5" stroke="black" stroke-width="2" fill="none" />
<polyline points="140.5,422.0,144.5,429.5,151.0,439.0" stroke="black" stroke-width="2" fill="none" />
<polyline points="151.0,424.5,147.5,418.5,143.5,414.0,139.5,410.0" stroke="black" stroke-width="2" fill="none" />
<polyline points="138.0,409.0,141.5,413.0,144.0,417.0,146.5,420.5,149.0,424.5,148.5,428.5" stroke="black" stroke-width="2" fill="none" />
<polyline points="145.0,423.5,141.0,421.0" stroke="black" stroke-width="2" fill="none" />
<polyline points="133.0,420.0,136.0,424.0,136.5,428.0,138.0,431.5,138.5,435.5,141.5,441.0,142.0,445.0,141.0,449.5,139.5,453.5,137.0,457.5,135.0,461.5,133.5,465.5,135.0,456.5" stroke="black" stroke-width="2" fill="none" />
<polyline points="141.0,453.5,143.5,457.5,144.0,461.0,144.0,465.0,146.0,468.0,147.5,471.5,151.0,475.5,156.0,478.5" stroke="black" stroke-width="2" fill="none" />
<polyline points="159.5,461.0,153.5,457.0,154.5,455.0,153.5,451.0,152.5,447.0,150.0,443.0,145.5,439.0,144.0,434.5,144.0,430.5,141.5,426.5,139.5,423.0,137.0,422.5,132.5,418.5,128.5,414.0" stroke="black" stroke-width="2" fill="none" />
<polyline points="129.0,412.0,133.0,407.0,139.0,402.0,143.0,398.0" stroke="black" stroke-width="2" fill="none" />
<polyline points="141.5,399.0,142.0,395.0" stroke="black" stroke-width="2" fill="none" />
<polyline points="144.0,394.0,146.5,398.0,149.5,406.0" stroke="black" stroke-width="2" fill="none" />
<polyline points="145.5,405.5,141.5,402.0" stroke="black" stroke-width="2" fill="none" />
<polyline points="141.0,402.5,145.0,406.5" stroke="black" stroke-width="2" fill="none" />
<polyline points="141.0,403.5,145.0,407.0,148.5,412.0" stroke="black" stroke-width="2" fill="none" />
<polyline points="148.0,401.0,144.5,397.5,141.0,395.5,137.5,402.0,131.0,400.0,127.5,399.5,123.5,398.0,120.0,393.5" stroke="black" stroke-width="2" fill="none" />
<polyline points="123.0,391.0,127.0,389.5,134.0,391.5" stroke="black" stroke-width="2" fill="none" />
<polyline points="135.5,394.0,131.5,398.0,128.0,396.0,124.5,392.5" stroke="black" stroke-width="2" fill="none" />
<polyline points="118.5,389.0,122.0,395.0,123.5,397.0,125.5,401.5" stroke="black" stroke-width="2" fill="none" />
<polyline points="126.0,401.5,121.5,397.5,119.0,393.0,119.0,389.5,120.5,387.0,120.5,383.0,120.0,380.5,121.0,376.0,119.5,375.5,119.5,371.5,119.0,372.5" stroke="black" stroke-width="2" fill="none" />
<polyline points="120.0,366.0,124.0,371.5,124.0,377.0,128.0,379.5" stroke="black" stroke-width="2" fill="none" />
<polyline points="130.5,376.0,127.0,368.5,123.0,360.5" stroke="black" stroke-width="2" fill="none" />
<polyline points="121.5,363.5,123.5,368.0,125.5,372.0,127.5,376.0,130.0,381.5" stroke="black" stroke-width="2" fill="none" />
<polyline points="129.0,376.0,125.0,369.5,121.0,363.5" stroke="black" stroke-width="2" fill="none" />
<polyline points="120.5,363.5,120.0,367.5,121.5,371.5,124.0,375.0,125.5,379.5,129.5,383.5,131.0,387.5,133.5,391.5,133.5,395.5,135.5,398.5" stroke="black" stroke-width="2" fill="none" />
<polyline points="135.0,402.5,131.0,406.5,127.0,411.0" stroke="black" stroke-width="2" fill="none" />
<polyline points="126.0,416.5,130.0,421.5,130.5,425.5,132.0,429.0" stroke="black" stroke-width="2" fill="none" />
<polyline points="137.0,428.5,138.5,431.0,139.5,434.5" stroke="black" stroke-width="2" fill="none" />
<polyline points="152.5,446.5,147.5,441.5,144.5,436.0,138.0,426.5,133.5,422.0,129.5,418.5" stroke="black" stroke-width="2" fill="none" />
<polyline points="123.0,417.0,124.5,421.0,127.0,425.0" stroke="black" stroke-width="2" fill="none" />
<polyline points="130.0,427.5,125.5,424.0,121.5,416.5" stroke="black" stroke-width="2" fill="none" />
<polyline points="120.0,417.5,121.0,421.5,124.0,425.5,128.0,429.0" stroke="black" stroke-width="2" fill="none" />
<polyline points="130.0,430.5,126.5,427.0,122.5,422.0" stroke="black" stroke-width="2" fill="none" />
<polyline points="131.5,427.0,130.0,423.0,129.5,419.0,126.0,415.5,127.0,411.0,127.5,406.5,122.5,406.5,118.5,411.0,115.0,411.5,111.0,411.5" stroke="black" stroke-width="2" fill="none" />
<polyline points="105.0,408.0,101.0,409.0,99.5,408.5,98.0,404.0,97.0,401.0,95.0,398.5,93.0,394.5,91.5,389.5,91.0,386.0,92.5,381.5,87.5,385.0" stroke="black" stroke-width="2" fill="none" />
<polyline points="82.0,386.5,79.5,390.5,79.0,395.0,76.5,399.0,73.5,402.5,72.5,406.0,72.0,410.5,72.0,414.5,70.0,414.5,69.5,417.5,70.0,421.5,68.0,425.0,69.5,425.0,69.5,429.0,71.0,430.0,70.5,434.0,69.0,438.0,69.5,441.5,70.0,445.5,70.5,449.0,70.5,453.0,70.5,457.0,70.0,461.5,69.0,465.5,66.5,469.5,65.0,473.5,63.5,478.0,63.0,482.5,63.0,486.5,63.5,491.0,64.0,495.0,64.0,499.0,60.5,503.0,61.0,507.5,60.5,511.0,62.5,511.0,65.5,507.0" stroke="black" stroke-width="2" fill="none" />
<polyline points="63.0,503.5,66.5,509.0,66.0,513.0" stroke="black" stroke-width="2" fill="none" />
<polyline points="69.0,497.0,70.5,492.5,72.5,488.5,73.5,484.5,74.0,480.5,72.0,477.0" stroke="black" stroke-width="2" fill="none" />
<polyline points="64.0,474.0,67.0,472.5,67.5,476.5,67.0,480.5,66.0,484.5,65.0,487.5,65.5,491.0,67.0,494.5" stroke="black" stroke-width="2" fill="none" />
<polyline points="71.5,465.5,72.0,462.0,72.5,458.0,73.0,455.5" stroke="black" stroke-width="2" fill="none" />
<polyline points="73.0,455.5,73.0,460.0,72.5,464.0,74.5,468.0,74.5,472.5" stroke="black" stroke-width="2" fill="none" />
<polyline points="68.0,454.5,68.5,450.5,68.5,448.5" stroke="black" stroke-width="2" fill="none" />
<polyline points="63.5,451.5,63.5,455.5,65.0,460.0,66.5,464.0,69.5,468.5,69.5,471.5,70.0,475.5,69.0,479.5,69.0,483.0" stroke="black" stroke-width="2" fill="none" />
<polyline points="32.0,491.5,30.0,497.5,31.0,501.5,34.0,506.0,34.0,510.0" stroke="black" stroke-width="2" fill="none" />
<polyline points="18.0,510.0,18.5,506.0,20.5,502.0,19.0,503.0" stroke="black" stroke-width="2" fill="none" />
<polyline points="16.5,505.5,16.0,501.5,15.0,497.5,14.0,493.5" stroke="black" stroke-width="2" fill="none" />
<polyline points="10.0,428.0,10.0,423.5,5.5,421.5" stroke="black" stroke-width="2" fill="none" />
<polyline points="5.0,419.0,7.5,423.0,9.0,427.0,10.0,431.0,10.5,435.0,11.0,439.0,11.0,443.0,13.0,444.5,12.5,448.0,13.0,451.5,13.0,455.5,16.0,458.0,13.5,462.5,15.0,466.5,15.0,470.5,13.5,474.5,12.5,477.5" stroke="black" stroke-width="2" fill="none" />
<polyline points="36.5,463.0,36.5,458.5,35.5,454.5,34.5,450.0,33.5,446.0,33.5,440.5,33.5,436.5,33.5,432.5,33.5,427.5,33.5,424.0" stroke="black" stroke-width="2" fill="none" />
<polyline points="26.5,418.5,24.0,411.5" stroke="black" stroke-width="2" fill="none" />
<polyline points="24.5,411.5,26.5,415.5,27.5,419.5,27.5,424.0,27.5,428.0,27.0,432.0,26.5,436.5,27.0,440.5,27.5,444.5,27.5,448.5,27.5,452.0,28.5,456.5,29.0,460.0,28.5,464.0,29.0,468.0,30.0,472.0,28.5,476.0,30.5,480.0,31.0,484.0,31.0,488.0,30.0,492.0,32.0,496.0,32.5,500.0,31.0,503.0" stroke="black" stroke-width="2" fill="none" />
<polyline points="70.0,437.5,67.0,438.0,67.5,434.0,67.0,434.5" stroke="black" stroke-width="2" fill="none" />
<polyline points="66.5,424.5,65.0,423.5,64.5,419.5,64.0,416.0,64.5,412.0,65.5,408.0,69.0,404.0,71.5,400.5,72.5,396.0,71.5,395.5,71.5,398.0" stroke="black" stroke-width="2" fill="none" />
<polyline points="71.0,405.5,75.0,401.5,79.5,394.5" stroke="black" stroke-width="2" fill="none" />
<polyline points="80.0,387.5,78.0,396.0,74.0,402.0,70.0,404.5,66.0,408.5" stroke="black" stroke-width="2" fill="none" />
<polyline points="68.5,414.0,72.0,403.5,71.0,407.5,69.5,411.5,68.5,415.5,66.5,419.0" stroke="black" stroke-width="2" fill="none" />
<polyline points="71.0,415.5,74.0,419.0,74.0,423.0,72.0,424.0" stroke="black" stroke-width="2" fill="none" />
<polyline points="88.5,423.0,86.5,426.0,89.5,422.0,91.0,418.5" stroke="black" stroke-width="2" fill="none" />
<polyline points="93.0,416.5,89.0,421.0,86.5,425.0,87.0,422.5" stroke="black" stroke-width="2" fill="none" />
<polyline points="92.0,406.0,95.5,405.0" stroke="black" stroke-width="2" fill="none" />
<polyline points="98.5,400.0,94.0,398.0" stroke="black" stroke-width="2" fill="none" />
<polyline points="90.0,397.0,94.0,403.5" stroke="black" stroke-width="2" fill="none" />
<polyline points="101.0,414.0,98.5,413.0,105.5,408.5,107.5,404.5,107.5,400.5,105.5,397.0,104.5,393.0" stroke="black" stroke-width="2" fill="none" />
<polyline points="105.5,392.0,104.5,396.0,105.0,400.5,106.0,404.0" stroke="black" stroke-width="2" fill="none" />
<polyline points="115.0,401.5,114.5,405.5,115.0,408.5" stroke="black" stroke-width="2" fill="none" />
<polyline points="121.0,409.5,124.0,405.5" stroke="black" stroke-width="2" fill="none" />
<polyline points="130.5,407.5,134.5,403.5,135.5,397.0,138.5,394.5,142.5,390.5,143.0,386.5,142.5,385.5,144.5,381.0,147.0,375.5,148.0,371.5,148.5,367.5,146.5,364.0,146.0,360.0,145.5,356.0,144.0,354.0,142.5,349.5,139.5,345.5,138.0,340.5,137.0,336.0,136.0,332.0,136.0,327.5,134.5,323.0,134.0,319.0,132.5,315.0,131.5,311.5,129.5,308.0,128.5,304.0,126.0,297.5,130.5,293.5,134.0,291.5,136.0,287.5,128.5,283.5,124.5,277.5" stroke="black" stroke-width="2" fill="none" />
<polyline points="126.5,273.5,126.5,278.0,129.0,282.0,130.0,286.0,127.0,288.5,126.5,293.0,125.0,297.0,123.5,301.0,125.5,305.0,124.0,309.0,123.0,313.0,122.5,316.5,122.0,321.0,122.5,325.0,122.5,328.5,122.5,332.5,123.0,338.0" stroke="black" stroke-width="2" fill="none" />
<polyline points="118.0,340.0,118.5,342.0,118.5,345.0" stroke="black" stroke-width="2" fill="none" />
<polyline points="115.0,343.0,119.0,349.5,118.5,357.0,118.5,361.5,117.0,365.0,116.0,369.0,116.0,373.0,116.5,377.0,116.5,381.0,116.5,385.0,117.0,389.5,116.5,393.0,118.0,397.5,122.0,402.5,126.0,404.0" stroke="black" stroke-width="2" fill="none" />
<polyline points="116.5,400.5,114.0,404.5,112.0,408.5,113.0,407.5" stroke="black" stroke-width="2" fill="none" />
<polyline points="111.5,418.5,112.0,422.5,112.5,426.5,113.5,430.5,114.5,432.5" stroke="black" stroke-width="2" fill="none" />
<polyline points="140.5,452.5,143.0,456.0,146.0,459.5,147.0,463.0,147.5,467.0,148.0,470.5,152.0,474.5,154.0,477.5,156.5,478.0,157.0,483.5,155.0,486.5,158.0,490.5,161.0,495.0,162.0,499.0,163.5,503.5,164.0,508.0,166.0,512.0" stroke="black" stroke-width="2" fill="none" />
<polyline points="139.5,504.5,139.5,500.5,138.0,496.0,138.0,492.5,136.0,488.5,137.0,487.0,135.5,483.0" stroke="black" stroke-width="2" fill="none" />
<polyline points="136.0,483.5,134.5,487.5,135.0,491.0,137.0,495.0,134.0,497.0,136.0,500.5,138.0,504.5,139.5,508.5,140.0,512.5" stroke="black" stroke-width="2" fill="none" />
<polyline points="121.0,511.5,121.0,507.5,121.0,503.5,121.0,499.5,120.0,495.5,120.0,491.5,120.5,487.5,120.5,483.0" stroke="black" stroke-width="2" fill="none" />
<polyline points="169.0,435.0,162.0,434.5,160.5,434.5,163.5,430.0" stroke="black" stroke-width="2" fill="none" />
<polyline points="177.5,426.5,176.5,423.0,174.5,419.0,175.5,415.5,172.5,414.5,169.0,410.5,166.0,406.5,162.5,403.0,163.0,399.0,164.5,402.5" stroke="black" stroke-width="2" fill="none" />
<polyline points="167.5,403.0,171.5,407.0,173.5,411.5,171.0,416.0,169.5,420.5,168.0,424.5,164.5,424.0,163.5,428.0,163.5,433.0,159.5,436.0,163.5,430.5,167.0,426.0,170.0,424.0,173.0,427.5" stroke="black" stroke-width="2" fill="none" />
<polyline points="171.5,428.0,171.0,424.5,167.0,418.5,169.0,415.0,167.5,411.5,165.0,407.5,161.0,407.5" stroke="black" stroke-width="2" fill="none" />
<polyline points="163.5,409.0,167.5,415.0" stroke="black" stroke-width="2" fill="none" />
<polyline points="171.5,417.5,173.5,421.5,176.5,425.0,177.5,429.0,177.5,433.0,176.0,436.5,173.0,439.0,173.0,440.5,173.0,446.0,174.5,450.5,175.5,455.0,178.0,457.5,174.5,463.0,175.0,467.0,171.0,465.5,174.5,468.0" stroke="black" stroke-width="2" fill="none" />
<polyline points="180.0,440.0,176.0,444.0,180.0,443.0,184.0,444.5,187.5,440.5" stroke="black" stroke-width="2" fill="none" />
<polyline points="197.5,433.0,196.5,429.0" stroke="black" stroke-width="2" fill="none" />
<polyline points="198.5,424.5,198.5,428.5,197.0,430.5,196.0,434.5" stroke="black" stroke-width="2" fill="none" />
<polyline points="193.0,433.0,192.5,429.0,192.5,424.5" stroke="black" stroke-width="2" fill="none" />
<polyline points="175.0,422.5,171.0,416.0,161.5,414.5,157.5,409.0,153.5,404.0,149.5,402.0,146.0,397.0,145.5,390.5,141.0,385.5,138.5,391.5,135.0,388.5,134.5,384.5,138.5,380.5,136.5,376.5,133.5,372.5,132.0,371.0,136.5,367.5,140.5,363.5,141.0,360.0,141.0,356.5,140.5,353.0,135.0,350.5,131.5,346.0,129.0,342.0,130.5,338.5,129.0,334.5,130.5,331.0,129.0,327.0,126.5,321.5" stroke="black" stroke-width="2" fill="none" />
<polyline points="117.5,322.5,118.0,326.5,119.0,331.5,120.0,335.5,121.5,339.5,122.0,340.0" stroke="black" stroke-width="2" fill="none" />
<polyline points="117.5,338.5,117.5,342.5,117.5,345.5,119.0,349.5,121.0,353.5,121.0,357.5,122.0,361.5,124.0,365.5,125.5,369.5,127.0,373.5,129.5,377.5,130.5,382.5,132.5,384.0,137.5,386.0,139.0,390.0" stroke="black" stroke-width="2" fill="none" />
<polyline points="145.0,392.0,143.0,395.5,140.5,399.5,139.0,403.5,134.5,407.0,130.5,411.0,130.5,414.0,133.0,417.5,135.5,420.5,139.0,424.5,140.0,429.0,141.0,433.5,139.0,439.0,139.5,443.0,139.0,447.0,138.5,451.0,137.0,455.5,133.5,459.0,132.5,463.5,136.5,468.0,138.0,468.5,141.5,469.0,145.5,474.0,149.5,477.5,153.0,479.5,157.0,482.0,161.0,483.0,165.0,486.0,167.5,489.0" stroke="black" stroke-width="2" fill="none" />
<polyline points="166.0,420.0,163.5,415.0,161.5,411.0" stroke="black" stroke-width="2" fill="none" />
<polyline points="150.0,412.5,145.0,408.5,141.5,404.5,140.0,400.5" stroke="black" stroke-width="2" fill="none" />
<polyline points="155.5,385.0,151.5,382.0,153.0,379.5" stroke="black" stroke-width="2" fill="none" />
<polyline points="162.0,365.0,166.0,361.0,170.5,358.0,175.0,353.5,179.0,347.5,183.0,342.0,186.5,335.0" stroke="black" stroke-width="2" fill="none" />
<polyline points="191.0,330.5,187.0,330.5,182.0,331.5,178.0,338.5,173.5,344.5,169.5,349.5,165.5,356.0,161.0,362.0,159.0,371.0,161.5,368.0,165.0,363.0,170.5,358.5,174.5,354.5,178.0,350.0,180.5,346.0,183.5,342.0,185.0,338.0,184.5,333.5,187.5,333.5,190.0,329.5" stroke="black" stroke-width="2" fill="none" />
<polyline points="190.0,346.0,190.0,346.5,191.0,350.5,192.0,354.0" stroke="black" stroke-width="2" fill="none" />
<polyline points="194.5,354.5,193.5,350.5,192.5,346.5" stroke="black" stroke-width="2" fill="none" />
<polyline points="166.0,345.0,166.0,340.0,169.0,338.0,174.0,334.0,180.5,330.0,183.5,326.0,184.0,322.5,186.5,318.5,192.0,316.5,193.0,312.5,195.0,308.5,197.0,304.5,199.0,300.0,200.5,295.5,203.0,292.0,205.0,288.0,207.5,284.0,209.5,280.5,212.0,276.5,214.5,272.5,217.0,268.0,219.0,263.5,222.5,259.5,224.5,255.5,227.0,251.5,229.5,247.5,233.0,244.0,235.0,237.5,238.0,233.5,241.5,230.0,245.0,226.5,248.5,222.5,252.0,219.0,252.5,215.0,254.0,212.0,255.0,208.0,256.5,204.5,252.5,212.0,249.0,210.0,245.0,209.5,241.0,208.5,238.0,205.5,238.5,201.5,240.0,197.5,241.0,194.5,243.0,190.5,249.0,186.0,248.5,183.5,256.5,180.0,250.0,175.0,251.5,174.0,246.5,173.0,245.0,172.0,241.0,173.5" stroke="black" stroke-width="2" fill="none" />
<polyline points="240.5,169.0,244.5,170.5,249.0,171.0,253.0,175.0,257.0,175.5,260.5,176.0,265.0,177.5,268.5,178.5,272.5,178.5,276.5,179.0" stroke="black" stroke-width="2" fill="none" />
<polyline points="275.5,180.5,275.0,176.0" stroke="black" stroke-width="2" fill="none" />
<polyline points="278.5,175.5,282.5,177.5,286.5,179.5" stroke="black" stroke-width="2" fill="none" />
<polyline points="286.5,175.5,290.0,177.0" stroke="black" stroke-width="2" fill="none" />
<polyline points="293.5,179.0,289.5,175.0,285.0,175.5,281.0,176.0" stroke="black" stroke-width="2" fill="none" />
<polyline points="271.5,182.0,272.5,186.0,273.0,190.0,272.0,194.0" stroke="black" stroke-width="2" fill="none" />
<polyline points="267.5,189.5,263.5,191.0,259.0,194.5,256.5,202.0,260.0,198.0,263.0,194.5,265.5,190.5" stroke="black" stroke-width="2" fill="none" />
<polyline points="265.5,190.0,261.0,193.5,258.5,197.5,254.0,201.0,253.0,205.5,252.5,209.5,254.0,215.0,254.5,216.5" stroke="black" stroke-width="2" fill="none" />
<polyline points="250.0,211.5,245.0,212.0,241.0,211.5" stroke="black" stroke-width="2" fill="none" />
<polyline points="236.0,209.0,236.0,205.5,238.0,201.5,235.0,203.0" stroke="black" stroke-width="2" fill="none" />
<polyline points="238.0,204.0,238.5,200.0" stroke="black" stroke-width="2" fill="none" />
<polyline points="238.0,196.0,242.0,191.0" stroke="black" stroke-width="2" fill="none" />
<polyline points="242.5,199.5,246.5,194.0,250.5,191.0,255.0,189.0,249.5,188.5,246.5,192.5,243.5,194.0,248.5,190.0,252.5,188.5,256.5,184.0,257.5,187.0,261.5,184.5,265.5,182.0,269.5,181.0" stroke="black" stroke-width="2" fill="none" />
<polyline points="268.0,181.0,264.0,185.0,258.5,189.5,255.5,192.0,255.0,195.5,251.0,199.5,248.5,203.5,248.0,204.0,251.5,204.5,251.5,200.5,255.5,196.5,259.5,192.5,263.0,189.5,267.0,186.5,271.0,188.5" stroke="black" stroke-width="2" fill="none" />
<polyline points="266.5,185.5,262.5,188.0,258.5,191.0,254.5,194.5,250.5,199.0,249.5,202.5,253.0,199.0,256.0,194.5,260.5,190.5,265.5,186.5" stroke="black" stroke-width="2" fill="none" />
<polyline points="265.5,185.0,259.0,189.5,255.5,190.5,260.0,187.0,264.0,184.5" stroke="black" stroke-width="2" fill="none" />
<polyline points="261.5,180.0,257.5,180.0,253.5,182.0,249.5,184.0,249.5,186.5,245.0,192.0,242.5,193.5,242.0,199.5,243.5,199.0,246.5,194.5,251.5,190.5,256.0,187.5,262.0,183.0,267.5,179.0" stroke="black" stroke-width="2" fill="none" />
<polyline points="266.0,175.0,270.0,176.5,274.0,175.5,277.5,177.5,281.5,175.0,283.5,175.5,291.5,176.5,293.0,180.5,288.5,184.0,284.5,187.5,280.0,191.5,275.0,195.5,271.5,200.0,273.0,195.0,271.0,198.0,271.5,200.5,276.0,196.0,280.5,193.0,284.5,189.5,288.5,185.5,293.5,181.5,297.5,178.5,301.0,175.5,305.0,173.0,308.5,170.5,312.5,168.5,316.5,166.0,320.5,164.0,324.5,162.0,328.5,159.5,332.5,156.5,336.5,154.5" stroke="black" stroke-width="2" fill="none" />
<polyline points="339.5,153.0,332.5,157.0,326.0,161.0,318.0,165.0,311.5,169.0,305.0,173.0,299.5,177.0,294.5,181.0" stroke="black" stroke-width="2" fill="none" />
<polyline points="309.0,174.5,304.5,177.0,300.5,179.5,296.5,183.0,292.0,186.0,288.0,189.5,284.0,192.5,280.0,196.0,276.0,200.0,272.0,203.0,268.0,205.5,263.5,212.5,262.5,216.5,259.0,220.5,255.0,223.5,251.0,228.0,247.0,233.0,242.5,238.0,238.5,242.0,235.0,247.0,230.5,252.0,226.5,257.5,222.5,263.0,219.0,269.5,215.0,276.5,211.0,284.5,207.0,293.0,203.0,301.5,198.5,312.0,199.0,319.0,196.5,316.0,199.0,311.5,200.5,308.0,203.0,304.0,205.0,300.5,207.5,296.0,208.5,292.0,210.5,288.0,211.5,283.5,213.5,279.5,215.5,275.5,219.0,272.0,221.0,268.0,223.5,264.5,226.5,260.5,228.5,256.5,231.5,252.0,234.5,248.0,236.5,243.5,240.0,239.5,243.5,235.5,247.0,232.0,251.0,228.0,255.0,224.0,259.5,220.0,261.0,215.5,261.0,211.5,262.5,207.5,264.5,203.5,265.5,199.5" stroke="black" stroke-width="2" fill="none" />
<polyline points="257.0,178.0,253.0,176.0,249.0,172.5" stroke="black" stroke-width="2" fill="none" />
<polyline points="251.0,176.0,247.0,180.0,242.5,182.5,244.5,185.5,241.5,190.0,238.0,194.0,236.5,198.5,234.5,202.5,233.0,207.0,230.0,210.5,231.5,210.0,231.5,209.5,236.0,208.5" stroke="black" stroke-width="2" fill="none" />
<polyline points="226.5,194.0,219.5,198.0,213.5,203.5,208.5,207.0,207.0,211.0,207.0,210.5,210.5,204.5,214.5,202.5,218.0,197.5,222.0,195.0,226.5,192.5,230.5,191.5" stroke="black" stroke-width="2" fill="none" />
<polyline points="225.0,185.0,222.0,184.0,218.0,189.0" stroke="black" stroke-width="2" fill="none" />
<polyline points="215.5,187.0,220.0,182.5" stroke="black" stroke-width="2" fill="none" />
<polyline points="225.5,184.5,221.5,184.5,219.0,188.5,219.0,192.5,211.0,196.5,215.5,194.5" stroke="black" stroke-width="2" fill="none" />
<polyline points="205.0,192.0,208.5,187.0,213.0,183.0,216.5,179.5,220.5,175.5,225.0,175.0,229.5,175.5" stroke="black" stroke-width="2" fill="none" />
<polyline points="235.0,176.5,237.0,176.0,239.0,171.5,236.0,174.0,232.0,173.0,228.5,172.5,224.5,171.5,220.5,173.0,216.5,176.0,213.0,180.5,209.0,185.0,205.0,189.5" stroke="black" stroke-width="2" fill="none" />
<polyline points="199.0,204.5,195.0,204.5" stroke="black" stroke-width="2" fill="none" />
<polyline points="192.0,200.5,196.0,201.5,200.0,204.0" stroke="black" stroke-width="2" fill="none" />
<polyline points="203.5,207.5,207.5,203.5,211.5,201.0,214.0,197.5,218.0,195.0,221.5,192.5,226.0,191.0" stroke="black" stroke-width="2" fill="none" />
<polyline points="226.0,181.5,221.5,185.5,218.0,189.0,215.5,193.0,211.0,196.5,208.0,200.5" stroke="black" stroke-width="2" fill="none" />
<polyline points="211.0,215.5,215.5,221.5" stroke="black" stroke-width="2" fill="none" />
<polyline points="213.0,217.0,215.0,221.0,217.0,227.0,219.5,230.5,218.0,234.5" stroke="black" stroke-width="2" fill="none" />
<polyline points="214.0,237.0,214.5,241.0,214.0,245.0,213.0,249.0,214.0,250.5,214.5,254.5,215.5,255.5" stroke="black" stroke-width="2" fill="none" />
<polyline points="215.5,250.0,215.5,246.0,215.0,242.0,212.5,238.0,212.5,236.0" stroke="black" stroke-width="2" fill="none" />
<polyline points="211.0,238.5,212.0,236.5,211.0,240.5,210.0,244.5,209.0,246.0" stroke="black" stroke-width="2" fill="none" />
<polyline points="204.5,248.0,208.5,253.0,212.5,255.0" stroke="black" stroke-width="2" fill="none" />
<polyline points="212.0,255.5,209.0,250.5,206.0,249.0,207.0,245.0,208.0,241.5,209.0,237.5,210.5,234.0,208.5,238.5" stroke="black" stroke-width="2" fill="none" />
<polyline points="198.5,235.0,196.5,239.0,192.0,243.5,187.0,247.5,191.0,245.0,195.0,241.5,198.5,235.0" stroke="black" stroke-width="2" fill="none" />
<polyline points="191.5,239.0,189.5,234.5,188.5,230.5,189.0,226.5,191.0,222.0,193.5,218.0,193.0,218.5,189.0,227.5" stroke="black" stroke-width="2" fill="none" />
<polyline points="188.0,232.5,191.5,239.5" stroke="black" stroke-width="2" fill="none" />
<polyline points="186.5,242.5,190.5,241.5,194.5,238.0,197.5,233.0,194.5,237.0,190.0,241.5,185.5,244.5,185.0,250.0,183.0,254.0,183.5,258.0,183.0,262.0,184.0,266.0,185.0,270.5,187.0,272.5" stroke="black" stroke-width="2" fill="none" />
<polyline points="187.5,269.0,186.5,265.5,186.0,261.5,186.0,257.5,184.5,254.5" stroke="black" stroke-width="2" fill="none" />
<polyline points="183.5,253.0,187.5,250.5,192.0,251.0,193.0,255.0,193.5,258.5,197.0,262.0,203.5,265.0" stroke="black" stroke-width="2" fill="none" />
<polyline points="204.5,264.0,200.5,261.5,196.5,257.5" stroke="black" stroke-width="2" fill="none" />
<polyline points="192.0,251.0,196.0,254.5,196.0,261.5,199.5,266.5,203.0,267.0" stroke="black" stroke-width="2" fill="none" />
<polyline points="205.5,251.5,204.0,250.5" stroke="black" stroke-width="2" fill="none" />
<polyline points="204.5,264.5,198.0,260.5,196.0,256.0,194.0,252.0,189.5,252.5" stroke="black" stroke-width="2" fill="none" />
<polyline points="178.5,255.5,182.0,262.5" stroke="black" stroke-width="2" fill="none" />
<polyline points="179.0,262.0,175.0,255.0" stroke="black" stroke-width="2" fill="none" />
<polyline points="175.0,252.0,176.0,256.0,176.0,260.0,176.0,264.5" stroke="black" stroke-width="2" fill="none" />
<polyline points="177.5,261.0,180.0,265.0" stroke="black" stroke-width="2" fill="none" />
<polyline points="177.0,262.0,177.5,258.5" stroke="black" stroke-width="2" fill="none" />
<polyline points="171.0,255.5,174.5,250.0,172.5,254.5,171.0,258.5,170.5,262.5,169.5,266.5,169.0,270.5,169.5,274.0,167.0,278.0,168.5,279.0" stroke="black" stroke-width="2" fill="none" />
<polyline points="166.0,278.0,166.5,277.5,166.5,273.0,167.0,268.5,164.5,264.0,165.5,260.0,164.5,265.5" stroke="black" stroke-width="2" fill="none" />
<polyline points="162.0,259.0,164.0,260.5,162.5,264.0,161.0,267.5,161.0,271.0,160.5,275.0,162.0,278.5,161.0,284.0" stroke="black" stroke-width="2" fill="none" />
<polyline points="159.0,287.0,155.0,283.5" stroke="black" stroke-width="2" fill="none" />
<polyline points="153.5,283.0,157.5,288.5,162.0,291.0" stroke="black" stroke-width="2" fill="none" />
<polyline points="161.0,292.0,157.5,290.0,153.5,287.5" stroke="black" stroke-width="2" fill="none" />
<polyline points="151.0,290.5,155.0,293.0,158.5,294.5,162.5,295.0,166.5,293.0,170.5,290.0,171.0,287.5" stroke="black" stroke-width="2" fill="none" />
<polyline points="172.5,291.0,171.5,295.0,170.5,299.5,170.5,304.0,167.0,308.5,167.0,312.5,166.0,315.0,163.5,318.5,169.5,322.0,168.0,325.5,166.0,330.0,162.0,334.0,159.0,338.0,158.0,344.0,153.0,347.5,150.5,351.5,151.5,353.5,149.5,356.0,147.5,358.5,146.0,353.5,148.0,351.0,152.5,353.0,156.5,353.5,159.0,345.5,162.5,347.5,166.5,345.5,170.5,343.0" stroke="black" stroke-width="2" fill="none" />
<polyline points="164.5,333.0,167.0,333.5,165.5,337.5,165.0,340.5,170.5,337.0,174.5,334.5,178.0,332.5,181.5,332.0,178.0,336.0,176.0,340.5,173.0,344.5,170.0,348.5,167.0,353.0,164.0,357.0,161.0,361.0,159.5,365.0,159.0,368.5,163.0,368.5,167.0,362.5,165.0,366.0" stroke="black" stroke-width="2" fill="none" />
<polyline points="165.5,359.5,163.0,363.0,166.5,359.5" stroke="black" stroke-width="2" fill="none" />
<polyline points="159.0,346.5,157.5,350.5,155.5,354.5,158.5,358.0,157.5,361.5,157.0,365.5,156.0,369.5,156.5,373.5,158.5,377.0,157.5,381.0,154.5,383.0,155.0,389.0,154.0,393.0,153.5,397.0,157.5,401.0,163.0,405.5,167.0,409.5,169.5,410.5" stroke="black" stroke-width="2" fill="none" />
<polyline points="165.5,396.5,167.0,400.5,170.0,402.0,173.0,406.0,174.5,410.0,176.0,414.0,177.5,418.0,178.5,422.0,179.5,426.0" stroke="black" stroke-width="2" fill="none" />
<polyline points="192.0,404.0,192.5,400.0,192.5,395.5,192.0,391.5" stroke="black" stroke-width="2" fill="none" />
<polyline points="192.0,392.0,192.5,396.0,191.5,400.0,191.0,404.0,190.5,408.0,190.5,412.5,190.5,416.0,190.0,420.0,190.0,423.5,189.5,427.5,189.0,431.5,189.0,435.5,189.0,439.5,187.0,441.0,183.5,445.0,186.5,445.5,190.5,446.0,195.0,447.5,199.0,445.5" stroke="black" stroke-width="2" fill="none" />
<polyline points="245.5,390.0,243.5,393.5,248.0,390.0,252.5,389.5,256.5,389.5,261.0,389.5,265.0,389.0,268.5,388.5" stroke="black" stroke-width="2" fill="none" />
<polyline points="265.0,386.0,261.0,386.0,257.0,386.0,253.0,384.5,252.0,382.0" stroke="black" stroke-width="2" fill="none" />
<polyline points="269.5,354.0,273.5,354.5,277.0,355.5" stroke="black" stroke-width="2" fill="none" />
<polyline points="283.0,351.0,279.0,351.5,275.0,351.0,271.0,350.0,267.0,350.5" stroke="black" stroke-width="2" fill="none" />
<polyline points="221.5,370.5,221.0,366.0,220.0,362.5,219.5,358.5,218.5,354.5,218.5,350.5,222.5,346.0,222.0,342.0,222.0,336.0,221.5,332.0,221.0,328.0,220.5,323.5,219.5,319.5,219.0,315.5,219.0,311.5,219.0,307.5" stroke="black" stroke-width="2" fill="none" />
<polyline points="219.0,306.5,217.5,310.5,217.0,314.5,217.0,318.0,217.5,321.5,217.5,325.5,217.5,329.5,217.5,334.0,217.0,338.5,217.5,343.0,217.5,347.0,217.5,350.5,218.0,354.5,217.5,358.0" stroke="black" stroke-width="2" fill="none" />
<polyline points="183.0,306.5,179.0,300.5" stroke="black" stroke-width="2" fill="none" />
<polyline points="176.5,299.5,179.0,300.0,181.5,304.0,184.0,308.0,181.0,310.0,182.5,312.5" stroke="black" stroke-width="2" fill="none" />
<polyline points="181.0,307.0,177.5,303.5" stroke="black" stroke-width="2" fill="none" />
<polyline points="178.5,305.0,176.0,303.0,176.0,299.0" stroke="black" stroke-width="2" fill="none" />
<polyline points="178.0,295.5,175.0,300.5,172.5,307.5,169.0,312.0,165.0,314.0,163.0,318.5,160.5,319.0,156.5,320.5,158.0,319.0,157.0,316.0,158.5,313.5,156.5,309.0,157.5,304.0,161.0,301.0,160.5,296.5,156.5,291.0,152.0,290.0,148.5,286.5,147.5,282.5,147.0,278.5,148.0,274.5,148.0,270.0,152.0,266.0,155.5,261.5,157.5,258.0,161.0,256.0,157.0,262.0,153.0,267.5,149.5,271.5" stroke="black" stroke-width="2" fill="none" />
<polyline points="150.0,274.5,154.0,275.0,158.0,273.0,162.5,280.0" stroke="black" stroke-width="2" fill="none" />
<polyline points="158.5,280.5,157.5,279.0,153.5,278.0" stroke="black" stroke-width="2" fill="none" />
<polyline points="153.0,280.5,154.5,284.5,158.0,288.5,163.5,292.5" stroke="black" stroke-width="2" fill="none" />
<polyline points="158.5,297.0,154.5,294.0" stroke="black" stroke-width="2" fill="none" />
<polyline points="156.5,294.5,161.0,298.5" stroke="black" stroke-width="2" fill="none" />
<polyline points="164.5,301.5,164.0,297.0,170.0,292.5,173.5,288.5,172.5,284.5,170.0,289.0,166.0,292.0,163.5,291.0,166.0,286.5,170.0,282.0,174.5,278.0,175.0,280.0,174.0,279.0,169.5,282.5,167.0,283.0,164.0,285.0,161.0,287.5,163.5,285.5,162.0,281.5,163.0,277.0,161.0,276.0,161.5,271.5,162.5,267.5,166.0,264.0,166.5,260.0,166.5,257.0,169.5,253.0,173.0,249.0,174.0,245.0,174.0,240.5,173.5,236.0,178.0,232.0,174.5,235.0" stroke="black" stroke-width="2" fill="none" />
<polyline points="178.0,234.0,177.0,238.0,176.0,242.5,177.5,244.5,177.0,248.0,177.0,252.0,178.0,255.5,179.5,259.0,182.0,262.5" stroke="black" stroke-width="2" fill="none" />
<polyline points="167.0,255.5,171.0,252.0,174.5,246.0" stroke="black" stroke-width="2" fill="none" />
<polyline points="170.5,238.0,168.5,242.0,167.5,245.5,166.0,249.5,164.5,247.5" stroke="black" stroke-width="2" fill="none" />
<polyline points="164.0,252.0,158.0,259.0,154.0,262.0,150.5,260.0,146.0,264.0,142.0,268.0,138.5,272.5,135.0,276.5,131.0,278.0,127.0,275.0,118.0,269.5,115.0,265.5,117.0,261.5,114.5,266.5" stroke="black" stroke-width="2" fill="none" />
<polyline points="115.5,267.5,119.5,269.5,123.5,272.0" stroke="black" stroke-width="2" fill="none" />
<polyline points="126.0,272.0,121.5,275.5,117.5,278.5,113.5,281.0,108.5,279.0,104.5,281.0,101.0,282.0,105.0,282.5,101.0,284.0,96.5,286.0,94.5,284.5,93.0,280.5,94.0,276.0,101.5,272.0,107.0,268.5,103.5,272.0,99.5,274.0,95.5,276.0,91.5,278.0" stroke="black" stroke-width="2" fill="none" />
<polyline points="91.0,275.0,90.5,279.0,92.0,283.5" stroke="black" stroke-width="2" fill="none" />
<polyline points="92.0,282.0,96.0,287.0,100.0,286.0,104.0,283.5,108.0,282.0,112.0,279.5" stroke="black" stroke-width="2" fill="none" />
<polyline points="112.0,272.0,113.0,273.0,114.0,277.5,116.0,283.5,112.5,287.5,108.5,291.5,107.5,296.0,104.0,300.0,99.5,304.0,92.0,307.5,92.5,311.5,92.0,315.5,91.0,319.5,89.5,323.5,89.0,328.0,89.0,332.0,89.0,336.0,84.5,339.5,81.5,344.0,78.5,348.0,75.5,352.0,72.5,356.5,69.0,360.5,64.0,362.0,68.5,357.5,72.5,353.0,76.5,348.0,80.0,342.5,84.0,337.0,88.0,331.0,92.0,328.0" stroke="black" stroke-width="2" fill="none" />
<polyline points="89.0,323.0,93.5,323.5,91.5,327.5,94.5,326.5,92.0,331.0,87.0,336.0,83.5,340.0,80.0,344.5,77.0,348.5,74.0,352.0,70.5,356.0,66.5,360.0,63.5,361.5,63.5,365.0,67.5,363.0,71.5,359.0,75.5,354.5,79.0,348.5,83.0,343.0,87.0,338.5,90.5,339.5,90.0,343.5,89.5,347.5,88.5,351.5,85.0,355.5,83.0,359.5,80.5,363.5,78.5,367.0,78.5,371.0,84.0,373.5,84.0,369.0,88.0,360.5,92.0,354.0,95.5,348.0" stroke="black" stroke-width="2" fill="none" />
<polyline points="97.0,349.0,92.5,354.5" stroke="black" stroke-width="2" fill="none" />
<polyline points="94.0,357.5,94.0,361.0,93.5,365.0,93.0,368.5,92.0,372.5,91.5,376.5,89.0,380.5,87.5,384.5,86.5,387.5,87.5,391.5,87.5,395.0,89.5,399.0,93.0,403.0,90.5,406.0,92.0,408.0,96.0,410.0,100.0,410.0,104.0,409.5,108.0,406.0,114.5,400.0" stroke="black" stroke-width="2" fill="none" />
<polyline points="127.5,397.0,123.5,393.0,126.5,389.5,124.5,388.5,124.0,384.5" stroke="black" stroke-width="2" fill="none" />
<polyline points="134.0,373.0,140.5,372.0,142.0,376.0,143.0,380.0,146.0,380.5,147.0,385.0" stroke="black" stroke-width="2" fill="none" />
<polyline points="141.5,383.5,139.0,378.0,135.0,373.0" stroke="black" stroke-width="2" fill="none" />
<polyline points="142.5,365.5,146.5,367.5" stroke="black" stroke-width="2" fill="none" />
<polyline points="146.0,366.5,142.0,362.5,142.0,356.0,138.5,355.0,139.5,348.0,135.0,344.0,134.5,340.0,132.5,335.5,131.5,331.5,125.0,332.5" stroke="black" stroke-width="2" fill="none" />
<polyline points="118.0,329.5,117.0,328.5,118.0,325.0" stroke="black" stroke-width="2" fill="none" />
<polyline points="107.0,323.5,111.0,319.5,115.0,316.5,118.5,309.0,118.0,309.5,115.5,313.0,111.0,317.0,106.5,321.0,105.0,317.5,109.0,313.5,110.0,311.0,108.5,314.5,104.5,319.0,104.0,323.5,108.5,318.0,112.5,314.5,116.5,309.5" stroke="black" stroke-width="2" fill="none" />
<polyline points="118.5,310.0,116.5,314.0,115.0,318.0,113.0,322.0,110.5,326.0,107.5,330.0,104.5,334.0,100.5,337.5,96.5,341.5" stroke="black" stroke-width="2" fill="none" />
<polyline points="102.5,342.5,106.0,338.5,109.5,333.5,113.5,327.5,117.5,319.5" stroke="black" stroke-width="2" fill="none" />
<polyline points="119.5,310.0,117.5,314.0,116.0,318.0,114.0,322.5,112.5,326.0,111.5,330.0,107.0,334.0,104.0,338.0,100.0,342.0,98.5,345.5,99.0,349.5,95.0,351.0,92.0,355.0,94.0,359.0,93.5,363.0,93.0,367.0,92.0,371.0,93.0,378.0,93.0,382.0,94.5,386.0" stroke="black" stroke-width="2" fill="none" />
<polyline points="104.0,381.0,104.5,377.0,105.0,373.0,105.5,369.0,107.0,364.5,107.5,360.5,107.5,356.5,109.0,352.5,106.5,346.0,106.0,341.5,107.5,342.0,107.0,343.0" stroke="black" stroke-width="2" fill="none" />
<polyline points="114.5,343.5,115.5,347.5,116.5,351.0,117.0,355.5,117.5,359.5,117.5,364.0,116.5,367.5,115.5,371.5,116.5,375.5,116.5,380.0,116.0,384.0,116.5,387.5,117.0,391.5,117.0,395.5,120.0,399.0,122.5,403.0,121.5,407.0,115.5,410.5,111.0,412.0,114.0,411.0,118.0,409.0,122.0,405.0" stroke="black" stroke-width="2" fill="none" />
<polyline points="134.5,362.5,130.5,359.0" stroke="black" stroke-width="2" fill="none" />
<polyline points="126.5,360.0,133.0,364.0,135.0,367.5" stroke="black" stroke-width="2" fill="none" />
<polyline points="133.0,363.5,129.5,360.0,125.5,358.5,122.0,356.5" stroke="black" stroke-width="2" fill="none" />
<polyline points="122.5,355.5,125.5,359.5,126.0,363.5,131.0,365.5,131.0,369.5,135.5,369.5,139.0,369.5,146.0,373.0" stroke="black" stroke-width="2" fill="none" />
<polyline points="146.0,368.0,142.5,364.0" stroke="black" stroke-width="2" fill="none" />
<polyline points="147.0,363.5,149.5,367.5,150.0,369.0,150.0,373.0,150.5,376.5,151.0,381.0,150.5,384.5,149.5,385.5,154.0,389.5,157.5,392.0,161.0,396.5,167.5,399.0,171.0,402.5,175.0,410.0" stroke="black" stroke-width="2" fill="none" />
<polyline points="134.5,357.0,131.0,353.5" stroke="black" stroke-width="2" fill="none" />
<polyline points="130.5,351.5,131.0,358.0,135.0,361.5,136.5,367.5" stroke="black" stroke-width="2" fill="none" />
<polyline points="137.5,351.5,133.5,347.5,129.5,342.0" stroke="black" stroke-width="2" fill="none" />
<polyline points="130.0,341.5,134.5,339.0,139.0,343.5" stroke="black" stroke-width="2" fill="none" />
<polyline points="141.0,337.5,139.5,340.5,138.5,337.0,138.0,330.5" stroke="black" stroke-width="2" fill="none" />
<polyline points="128.5,344.5,133.0,350.0,136.5,353.5" stroke="black" stroke-width="2" fill="none" />
<polyline points="142.5,348.0,137.5,345.5,137.5,341.5,135.5,337.5,134.5,333.5,133.0,329.5,132.0,325.5,130.5,321.5,130.5,317.5,130.0,313.5,130.0,309.5,127.0,301.0,130.0,298.5" stroke="black" stroke-width="2" fill="none" />
<polyline points="133.5,296.5,133.5,300.5" stroke="black" stroke-width="2" fill="none" />
<polyline points="125.5,301.0,129.5,299.0,133.5,296.0,137.5,292.0" stroke="black" stroke-width="2" fill="none" />
<polyline points="136.5,287.5,133.0,292.5,129.0,295.0,125.5,298.5" stroke="black" stroke-width="2" fill="none" />
<polyline points="118.5,296.5,114.5,301.0,110.5,304.5,106.5,308.5,103.0,314.0,99.0,322.0" stroke="black" stroke-width="2" fill="none" />
<polyline points="97.0,312.0,101.0,308.0,105.5,302.5,108.0,302.0,105.0,303.5,101.5,307.5,97.0,311.5,96.5,315.5,95.0,319.5,94.5,323.5,94.5,327.5,94.5,331.5,95.0,335.5,94.5,340.0,93.0,344.0,92.5,348.0,95.0,343.0,98.5,348.0,96.0,348.0,94.0,351.5,91.0,355.5,87.0,356.5,89.0,358.0,87.5,362.0,86.5,366.0,83.5,370.0,82.5,375.5,82.5,380.0,79.0,384.0,76.5,388.0,73.0,392.0,69.0,396.0,64.5,399.5,58.0,404.0,62.0,399.5,66.0,396.0,70.0,392.0,74.0,388.5,78.0,383.5,78.0,383.5,75.5,387.5,71.0,391.0,66.0,394.5,62.0,398.5,59.5,402.5,63.5,400.5,67.5,397.5,71.5,394.0,76.0,390.0,80.0,383.0" stroke="black" stroke-width="2" fill="none" />
<polyline points="80.0,386.5,80.0,390.5,79.0,396.5,77.5,400.5,75.0,404.5,73.0,408.0,74.0,412.5" stroke="black" stroke-width="2" fill="none" />
<polyline points="77.5,366.0,81.0,359.5,85.0,353.5" stroke="black" stroke-width="2" fill="none" />
<polyline points="75.0,364.5,79.0,357.5,82.5,350.5,85.0,348.5,80.5,352.5,78.5,357.0,77.0,361.0,74.5,365.0,74.5,369.0,74.5,373.0" stroke="black" stroke-width="2" fill="none" />
<polyline points="109.0,361.5,109.0,365.0,112.5,369.0" stroke="black" stroke-width="2" fill="none" />
<polyline points="116.0,361.5,114.5,357.5,113.0,353.0" stroke="black" stroke-width="2" fill="none" />
<polyline points="112.0,353.5,112.0,357.5,112.5,361.5,111.0,362.5,111.0,362.0,113.0,368.0" stroke="black" stroke-width="2" fill="none" />
<polyline points="107.0,354.0,107.0,358.0,105.5,362.0,104.5,366.0,103.5,370.5,102.5,374.5,102.5,378.5,102.5,383.0" stroke="black" stroke-width="2" fill="none" />
<polyline points="80.5,316.0,76.0,318.5,71.5,321.0,68.5,322.5,75.5,319.0,78.5,314.5,75.0,310.5,75.0,306.5,75.0,306.5" stroke="black" stroke-width="2" fill="none" />
<polyline points="78.0,306.5,77.5,310.5,79.5,311.5,83.5,309.0,87.0,306.5,91.0,304.5" stroke="black" stroke-width="2" fill="none" />
<polyline points="88.0,310.0,82.0,313.5,86.0,310.5,90.0,309.0,95.0,307.0,99.0,305.0,102.5,301.5" stroke="black" stroke-width="2" fill="none" />
<polyline points="108.0,301.5,106.0,305.5,102.5,309.5,100.5,313.5,98.0,318.0,97.0,320.5,101.0,312.0,105.0,307.0" stroke="black" stroke-width="2" fill="none" />
<polyline points="100.0,301.5,96.0,302.5,92.5,305.0,99.5,302.5,102.0,298.5,107.5,294.5" stroke="black" stroke-width="2" fill="none" />
<polyline points="109.0,294.5,104.0,295.5,100.0,297.0,95.0,294.5,91.0,295.5,87.0,296.0,82.5,298.5,89.0,295.0" stroke="black" stroke-width="2" fill="none" />
<polyline points="86.5,293.0,80.0,297.0,83.5,295.0,87.5,293.5,92.0,292.5,96.0,293.0,99.5,290.5,103.0,290.5,107.0,288.5,110.5,286.5" stroke="black" stroke-width="2" fill="none" />
<polyline points="110.5,290.5,106.5,292.5,102.5,294.0,98.0,296.5,103.0,294.0" stroke="black" stroke-width="2" fill="none" />
<polyline points="103.0,288.0,105.5,284.5" stroke="black" stroke-width="2" fill="none" />
<polyline points="116.5,285.0,115.5,287.0,108.5,289.5,112.5,285.0,110.5,279.0,113.5,277.0,112.0,273.0,115.5,271.0,111.0,270.5" stroke="black" stroke-width="2" fill="none" />
<polyline points="109.0,264.0,113.0,259.5,111.0,262.0,108.5,266.5,109.0,270.5,109.5,274.5,102.0,277.0,98.0,281.0,94.5,283.5,98.5,280.5,102.0,276.5,106.0,276.5,111.0,278.0,114.0,279.5,119.0,282.5" stroke="black" stroke-width="2" fill="none" />
<polyline points="122.5,284.5,122.0,288.5,120.5,292.5,118.5,296.5,113.5,301.0,109.0,305.0,105.0,309.0,103.0,313.0,101.0,317.0,99.5,321.0,100.0,325.5,100.5,329.5,101.5,331.0,98.0,335.0,95.0,341.0,98.5,338.5,102.5,336.0,106.5,331.0,110.5,325.5,113.5,317.5,117.5,309.0,121.0,301.5,124.0,303.0,125.0,309.5,132.0,313.5" stroke="black" stroke-width="2" fill="none" />
<polyline points="127.5,311.0,128.0,315.0,126.0,317.5,126.5,321.5,128.5,325.5,127.0,329.5,127.0,333.5" stroke="black" stroke-width="2" fill="none" />
<polyline points="101.5,328.0,105.5,322.0,108.5,318.0,112.5,314.0,116.0,310.0,117.5,306.0,121.0,305.5" stroke="black" stroke-width="2" fill="none" />
<polyline points="124.0,285.0,125.0,289.0,122.5,293.0,120.0,297.0,117.0,301.5,112.0,305.5,107.5,309.5,104.5,313.5,107.0,309.5,111.5,305.5,116.0,302.0,120.0,298.0,124.5,296.0,129.0,293.5,133.0,287.5,136.5,287.5,141.0,285.5" stroke="black" stroke-width="2" fill="none" />
<polyline points="138.5,275.0,142.5,274.0,149.0,270.0,153.0,266.0" stroke="black" stroke-width="2" fill="none" />
<polyline points="150.0,265.5,145.5,269.0,141.5,271.0" stroke="black" stroke-width="2" fill="none" />
<polyline points="148.5,277.5,151.0,279.5,154.0,281.0,156.0,285.0,162.5,290.0,166.5,285.0,170.5,284.0,172.5,284.0,176.0,284.0,176.0,285.0" stroke="black" stroke-width="2" fill="none" />
<polyline points="173.5,279.5,171.0,283.5,168.0,288.0,166.5,290.0" stroke="black" stroke-width="2" fill="none" />
<polyline points="171.0,294.0,175.0,293.0,178.0,291.5" stroke="black" stroke-width="2" fill="none" />
<polyline points="174.0,291.5,179.5,292.0,177.5,296.0,175.0,300.5,173.5,305.0,171.0,309.5,167.0,308.5" stroke="black" stroke-width="2" fill="none" />
<polyline points="172.5,312.0,170.5,316.0,167.0,318.0,170.5,314.5,174.0,315.5" stroke="black" stroke-width="2" fill="none" />
<polyline points="170.5,318.0,166.0,319.0,162.0,317.5" stroke="black" stroke-width="2" fill="none" />
<polyline points="160.0,314.5,158.5,310.5,157.5,310.0" stroke="black" stroke-width="2" fill="none" />
<polyline points="156.5,311.0,161.0,313.5" stroke="black" stroke-width="2" fill="none" />
<polyline points="155.0,312.5,155.0,314.0,155.5,318.0" stroke="black" stroke-width="2" fill="none" />
<polyline points="166.5,322.0,165.0,326.0,162.5,330.0,160.5,334.0,160.5,336.0,164.5,332.0" stroke="black" stroke-width="2" fill="none" />
<polyline points="156.5,297.0,152.5,293.0" stroke="black" stroke-width="2" fill="none" />
<polyline points="156.0,300.5,152.0,296.5,149.0,292.5,149.5,288.5,148.5,283.0,149.0,278.5,149.5,273.0,152.0,268.5,155.5,264.5,159.0,260.5,161.5,256.5,162.5,252.5,164.0,248.5,165.5,244.5,166.5,240.5,168.5,239.5,163.5,245.0,159.0,252.5,154.0,258.0,150.0,258.5,145.0,257.5,141.0,257.5,137.5,263.5,135.0,264.0,134.5,258.5,131.5,261.5,127.5,263.5,127.0,266.5,131.0,262.0,131.0,257.5,130.0,253.5,128.0,249.0,129.5,245.0,135.5,244.5,136.0,240.5,139.5,236.5,136.5,232.5,134.5,229.0,133.0,225.0,132.0,221.0,132.0,217.0,131.0,213.0,129.5,209.0,127.0,205.0,125.5,201.0,124.0,197.0,123.0,193.0,121.5,189.5,121.0,185.5,120.5,182.0,120.0,178.0,120.5,174.0,120.5,170.0,121.0,165.5,121.0,161.5,121.0,157.0,121.5,153.0,122.0,149.0,123.0,145.0,124.0,141.0,125.0,136.5,125.5,133.0,126.5,129.0,127.5,125.0,128.5,121.0,130.0,117.5,131.5,113.5,133.5,109.5,135.5,106.0,137.5,106.0,139.5,102.0,139.5,102.0,135.5,107.0" stroke="black" stroke-width="2" fill="none" />
<polyline points="126.5,123.5,130.5,113.5,135.0,105.0,135.0,110.0,134.0,114.0,133.5,118.0,132.0,122.0,131.5,125.5,132.0,129.0,131.5,133.0,130.0,137.0,128.0,141.0,129.0,145.0,130.5,145.5,128.5,150.0,130.0,152.5,130.0,155.0,127.0,159.0,130.0,156.5,128.5,149.0" stroke="black" stroke-width="2" fill="none" />
<polyline points="129.5,153.0,133.5,154.5,132.5,155.5,133.5,159.5,136.0,161.5,132.5,165.5,128.5,169.5,132.0,165.5,134.5,161.0" stroke="black" stroke-width="2" fill="none" />
<polyline points="142.5,164.0,139.0,168.0,139.0,170.5,135.5,175.0,132.0,179.0,133.0,173.0" stroke="black" stroke-width="2" fill="none" />
<polyline points="134.0,172.5,130.5,176.5,136.0,175.5,140.5,171.5,141.0,168.5" stroke="black" stroke-width="2" fill="none" />
<polyline points="143.0,168.5,139.5,172.5,136.0,176.5,134.0,176.0" stroke="black" stroke-width="2" fill="none" />
<polyline points="133.0,171.0,129.5,175.0,132.5,175.0,137.0,172.5,139.0,168.5" stroke="black" stroke-width="2" fill="none" />
<polyline points="141.5,173.0,138.5,177.0,134.5,180.5,136.5,178.5,140.5,174.5" stroke="black" stroke-width="2" fill="none" />
<polyline points="142.5,180.0,146.5,176.5,146.0,177.5,146.0,180.0,142.0,184.5,143.0,188.5,145.0,191.0,146.0,194.5,148.0,198.5" stroke="black" stroke-width="2" fill="none" />
<polyline points="149.0,193.0,145.5,188.5" stroke="black" stroke-width="2" fill="none" />
<polyline points="144.5,189.0,148.5,194.0,152.5,194.5,158.0,187.5,162.0,182.5,166.0,178.0,170.0,173.5,174.0,169.0,178.0,165.0,182.0,161.0,185.5,157.5,190.0,154.0,194.0,150.0,198.0,146.5,202.0,143.0" stroke="black" stroke-width="2" fill="none" />
<polyline points="205.0,147.5,209.0,151.0,212.5,154.0,216.5,158.0,220.5,159.5" stroke="black" stroke-width="2" fill="none" />
<polyline points="226.0,163.5,222.5,157.0,227.5,153.0,223.5,156.5,219.5,155.0,216.0,151.5" stroke="black" stroke-width="2" fill="none" />
<polyline points="217.5,153.0,221.0,157.0,227.5,163.0" stroke="black" stroke-width="2" fill="none" />
<polyline points="219.5,172.0,214.5,176.5,211.0,181.0,207.5,185.5,204.5,189.5,203.5,194.0,204.5,198.0" stroke="black" stroke-width="2" fill="none" />
<polyline points="204.5,203.0,200.0,201.0,196.0,199.5,192.0,198.0,189.0,198.5,185.5,201.0,181.0,206.0,180.5,207.5,182.5,204.0,186.5,199.5,189.5,199.0" stroke="black" stroke-width="2" fill="none" />
<polyline points="185.5,206.5,189.0,205.5,193.5,204.5,201.0,203.0" stroke="black" stroke-width="2" fill="none" />
<polyline points="205.0,220.5,209.0,226.5" stroke="black" stroke-width="2" fill="none" />
<polyline points="185.0,224.0,189.5,217.0,188.5,219.5,186.0,224.0,185.5,228.5,185.5,233.0,187.0,237.0" stroke="black" stroke-width="2" fill="none" />
<polyline points="178.5,228.0,174.5,228.0,170.5,232.0,166.5,235.0,162.5,239.0" stroke="black" stroke-width="2" fill="none" />
<polyline points="167.5,231.0,164.0,235.0,161.0,239.0,161.5,238.5,165.5,232.5,167.0,228.5,171.0,228.5" stroke="black" stroke-width="2" fill="none" />
<polyline points="167.5,227.0,163.5,228.0" stroke="black" stroke-width="2" fill="none" />
<polyline points="160.5,224.0,157.0,228.0,153.0,231.5,149.5,236.5,143.0,240.0,137.0,242.0,133.0,246.5,128.5,247.5,124.5,252.0,120.0,254.5,116.0,258.5,112.5,263.0,116.0,259.0,119.5,254.5,124.5,250.5" stroke="black" stroke-width="2" fill="none" />
<polyline points="130.5,249.0,134.5,247.0,138.0,246.0,140.5,246.0" stroke="black" stroke-width="2" fill="none" />
<polyline points="144.0,242.0,140.0,240.0,136.0,242.0" stroke="black" stroke-width="2" fill="none" />
<polyline points="145.0,250.5,149.0,247.5,148.0,248.0,144.5,252.0,147.0,253.5,147.5,257.5" stroke="black" stroke-width="2" fill="none" />
<polyline points="146.0,251.5,150.0,250.5" stroke="black" stroke-width="2" fill="none" />
<polyline points="152.0,250.0,156.5,248.5,160.5,244.0,164.0,244.5,162.0,248.5,160.0,253.0,156.5,257.0,152.0,263.5,146.5,267.0,143.0,271.0,146.5,273.5,141.5,277.5,138.5,282.0,132.0,281.5,135.5,282.0,138.5,282.0,141.0,283.0,139.5,287.0,138.0,290.5,133.5,294.5,132.0,298.0,129.5,299.5,130.5,303.5,132.0,308.0,133.5,312.0,134.5,316.0,135.5,320.0,136.5,324.0,137.0,328.5,138.0,332.5,140.0,336.5,141.5,340.5,144.0,344.0,146.5,337.0,150.5,339.5,154.5,337.0,159.5,331.5,164.0,326.0,167.0,321.0,168.5,322.5,169.5,317.5,173.5,316.0" stroke="black" stroke-width="2" fill="none" />
<polyline points="175.5,317.0,178.0,310.5,176.0,306.5,174.0,300.0,173.0,295.5" stroke="black" stroke-width="2" fill="none" />
<polyline points="158.0,272.5,155.5,268.5" stroke="black" stroke-width="2" fill="none" />
<polyline points="142.0,275.5,138.5,277.0,134.0,278.5,130.0,279.0" stroke="black" stroke-width="2" fill="none" />
<polyline points="136.0,269.0,137.5,265.0,134.0,263.5" stroke="black" stroke-width="2" fill="none" />
<polyline points="129.0,265.0,128.5,269.0,123.0,273.0,117.0,277.0,109.0,281.0,100.5,285.0,98.0,290.0,93.5,298.0,92.5,302.5,88.5,307.0,81.5,311.0,83.0,316.5,78.5,320.0,71.5,323.5,75.0,321.5,79.0,319.5,83.5,316.0,87.0,317.5" stroke="black" stroke-width="2" fill="none" />
<polyline points="77.0,314.0,72.5,309.5" stroke="black" stroke-width="2" fill="none" />
<polyline points="21.5,366.0,20.5,370.0,19.0,374.0,20.0,367.5" stroke="black" stroke-width="2" fill="none" />
<polyline points="133.0,254.5,137.5,255.0" stroke="black" stroke-width="2" fill="none" />
<polyline points="140.5,239.5,136.5,232.5,132.5,223.0" stroke="black" stroke-width="2" fill="none" />
<polyline points="141.5,224.5,145.0,216.0" stroke="black" stroke-width="2" fill="none" />
<polyline points="148.5,214.0,149.5,211.5,151.5,207.5" stroke="black" stroke-width="2" fill="none" />
<polyline points="146.5,198.5,142.5,193.5" stroke="black" stroke-width="2" fill="none" />
<polyline points="139.5,193.5,138.5,197.5,136.0,201.0" stroke="black" stroke-width="2" fill="none" />
<polyline points="140.0,195.5,143.5,199.5,145.5,203.5,146.0,207.5,144.0,211.0,143.0,215.0,147.5,208.0,151.5,201.0" stroke="black" stroke-width="2" fill="none" />
<polyline points="151.5,190.0,147.5,185.0" stroke="black" stroke-width="2" fill="none" />
<polyline points="146.0,187.0,148.5,191.0,148.0,193.5" stroke="black" stroke-width="2" fill="none" />
<polyline points="152.0,190.5,149.5,189.5,148.0,185.5,143.0,184.0" stroke="black" stroke-width="2" fill="none" />
<polyline points="149.5,181.0,145.0,181.5,144.5,186.5,140.5,189.0,135.5,190.5" stroke="black" stroke-width="2" fill="none" />
<polyline points="135.0,188.5,139.0,184.5,142.5,179.5" stroke="black" stroke-width="2" fill="none" />
<polyline points="135.0,185.5,139.0,181.0,143.0,177.0,145.5,174.0,142.0,178.5,137.0,182.5,135.0,186.5,138.0,191.0,138.5,195.0,144.0,198.0,146.5,202.0" stroke="black" stroke-width="2" fill="none" />
<polyline points="128.0,206.5,123.5,199.0" stroke="black" stroke-width="2" fill="none" />
<polyline points="115.5,225.5,112.0,230.0,113.0,228.5,116.5,227.0" stroke="black" stroke-width="2" fill="none" />
<polyline points="116.0,227.0,113.0,231.0,114.5,229.5" stroke="black" stroke-width="2" fill="none" />
<polyline points="156.0,249.0,155.0,253.0,150.5,251.5,154.5,253.0" stroke="black" stroke-width="2" fill="none" />
<polyline points="137.0,268.5,132.5,269.0,132.0,269.0,135.0,265.0,140.5,262.5,141.5,259.0,143.5,254.5,143.5,250.5,144.0,246.0,146.5,239.0,149.5,235.0,152.5,230.0,157.0,227.0,160.5,223.0" stroke="black" stroke-width="2" fill="none" />
<polyline points="169.0,222.5,168.0,226.0,171.0,226.5,171.5,226.5,175.5,225.0,179.5,224.5" stroke="black" stroke-width="2" fill="none" />
<polyline points="176.0,228.0,171.0,232.0,167.5,236.0,164.0,240.0,161.5,243.5,157.5,247.5,152.5,250.0,150.0,254.0,153.5,255.5,151.5,258.5,148.5,262.5,145.0,266.5,140.5,271.0,137.5,275.0,131.0,281.0,134.0,288.0,131.0,292.5,127.5,296.5,126.5,302.0,128.5,306.5,127.5,310.5,125.0,313.5,124.5,317.5,124.5,321.0,125.0,325.0,125.5,329.0,124.5,332.5,124.0,337.0,125.5,339.0,127.0,342.5,130.0,346.5,132.5,350.5,136.5,354.0,136.0,358.0,137.5,363.0,140.5,367.5,142.5,367.5,144.0,371.0,146.0,376.0,147.0,380.0,145.0,384.0,147.0,388.5,146.5,392.5,148.0,396.5,149.5,396.5,151.0,401.0,150.5,404.0,154.0,405.0,157.5,409.0,160.0,413.0,161.5,417.0,160.5,421.0,154.5,423.0" stroke="black" stroke-width="2" fill="none" />
<polyline points="224.0,272.5,220.5,276.5,224.5,272.5,228.5,271.5" stroke="black" stroke-width="2" fill="none" />
<polyline points="199.5,205.0,195.0,203.5,191.5,208.0,190.0,210.5,186.0,217.5,183.5,219.0,185.5,217.0,188.5,215.5,189.0,211.5,184.5,209.5,180.5,207.5" stroke="black" stroke-width="2" fill="none" />
<polyline points="181.0,213.5,181.0,215.0,182.0,219.0,181.0,223.0,182.0,219.5" stroke="black" stroke-width="2" fill="none" />
<polyline points="183.5,218.0,183.0,214.0" stroke="black" stroke-width="2" fill="none" />
<polyline points="177.0,212.5,173.0,215.0,171.0,217.5,175.5,213.5" stroke="black" stroke-width="2" fill="none" />
<polyline points="208.0,226.5,205.0,222.0,204.5,216.5,202.5,216.5,202.0,213.0,206.0,207.5,211.0,204.0,217.5,197.0,223.0,193.5,230.5,188.5,230.5,186.0,234.5,182.0" stroke="black" stroke-width="2" fill="none" />
<polyline points="236.0,182.5,232.0,183.5,231.0,187.5,227.0,189.0,223.0,190.0,219.0,193.0,214.5,192.5,211.0,195.5,207.5,197.5,207.0,195.5,207.5,191.5,211.0,187.5,215.0,183.5,218.5,180.0,223.5,176.0" stroke="black" stroke-width="2" fill="none" />
<polyline points="206.5,162.5,202.5,162.5" stroke="black" stroke-width="2" fill="none" />
<polyline points="203.0,161.5,204.0,166.0,197.0,168.5,191.0,172.5,187.0,177.0,182.0,180.5,178.5,185.0,175.0,189.5,172.0,193.5,168.0,197.5,165.0,201.5,164.5,202.0,168.5,197.0,172.5,193.5,176.5,188.5,180.5,184.5,184.0,180.5,188.0,177.0,191.5,173.5,195.5,169.5,199.5,166.5" stroke="black" stroke-width="2" fill="none" />
<polyline points="206.5,147.0,210.5,151.0,215.5,155.0,218.5,159.0,220.5,160.5" stroke="black" stroke-width="2" fill="none" />
<polyline points="221.5,147.0,217.5,143.0,213.5,139.5" stroke="black" stroke-width="2" fill="none" />
<polyline points="214.5,141.0,218.5,145.0" stroke="black" stroke-width="2" fill="none" />
<polyline points="233.0,143.5,237.0,147.5,241.0,145.0,245.5,141.5,249.5,138.5,253.5,135.5,258.0,132.0,260.0,130.5,254.0,134.0,249.0,138.0,246.5,140.0,241.5,144.0" stroke="black" stroke-width="2" fill="none" />
<polyline points="238.0,146.0,235.0,142.0" stroke="black" stroke-width="2" fill="none" />
<polyline points="228.5,128.5,224.5,130.5,220.0,133.5,216.5,136.5,212.5,139.0,208.5,142.0,204.5,145.5,201.0,148.5,197.0,152.0,198.5,150.5,203.0,146.5,208.0,142.5,213.5,138.5,218.5,134.5,224.5,130.5,231.0,127.0" stroke="black" stroke-width="2" fill="none" />
<polyline points="223.5,126.5,218.0,130.0,212.5,134.0,207.5,138.0,209.0,138.5,213.5,135.5,217.5,133.0,221.5,130.5,225.0,128.0,229.0,125.5,233.0,122.5,237.0,120.5" stroke="black" stroke-width="2" fill="none" />
<polyline points="236.5,118.0,230.0,122.0,224.5,126.0,219.0,130.5,213.5,135.0,208.5,139.0,204.0,142.5,199.5,146.5,194.0,151.0,190.0,154.5,184.5,158.5,181.0,163.0,177.0,167.0,172.5,171.0,169.5,175.0,166.0,179.0,162.0,183.0,159.0,187.0,154.0,192.0,151.5,196.0,153.0,199.5,151.0,203.0,148.5,207.5,146.5,211.5,146.0,214.5,143.5,218.5,142.0,222.0,141.0,226.0,141.5,230.0,142.0,234.0,142.0,238.0,141.5,240.0,134.0,243.0,131.5,248.5,132.5,252.0,134.0,256.0,138.5,255.5,141.0,257.0" stroke="black" stroke-width="2" fill="none" />
<polyline points="150.0,198.5,146.0,198.5,142.5,193.5,141.0,192.5,139.0,193.5,138.5,193.5,136.5,190.5,137.5,186.5,141.5,182.5,143.0,178.0,147.0,174.0,146.0,170.0" stroke="black" stroke-width="2" fill="none" />
<polyline points="127.5,142.0,131.5,137.0,133.0,131.5" stroke="black" stroke-width="2" fill="none" />
<polyline points="154.5,128.5,151.0,131.5,147.5,134.0,152.5,130.0,157.5,126.0" stroke="black" stroke-width="2" fill="none" />
<polyline points="189.0,133.5,185.5,137.0,187.0,136.0,192.0,132.0" stroke="black" stroke-width="2" fill="none" />
<polyline points="198.0,133.0,202.0,137.0,203.0,141.0,202.0,142.5,206.0,138.5,210.0,135.5,214.0,133.0,218.0,129.5,222.0,127.0" stroke="black" stroke-width="2" fill="none" />
<polyline points="205.5,115.0,198.5,119.0,195.5,121.5,199.5,118.5,203.5,116.0" stroke="black" stroke-width="2" fill="none" />
<polyline points="198.5,107.0,195.5,109.5" stroke="black" stroke-width="2" fill="none" />
<polyline points="191.0,118.5,185.0,123.0,179.5,126.5,181.0,125.5,184.5,123.0,188.0,121.0" stroke="black" stroke-width="2" fill="none" />
<polyline points="187.5,120.5,183.0,122.5,179.0,125.5,177.5,125.5,183.0,121.5,189.0,117.5" stroke="black" stroke-width="2" fill="none" />
<polyline points="198.0,130.5,202.0,134.5" stroke="black" stroke-width="2" fill="none" />
<polyline points="237.5,98.0,231.5,102.0,225.5,103.5,221.5,107.0,225.5,103.5,229.5,103.5,233.5,101.0,237.5,98.0" stroke="black" stroke-width="2" fill="none" />
<polyline points="235.5,97.5,232.0,100.0,237.5,95.5" stroke="black" stroke-width="2" fill="none" />
<polyline points="247.5,90.0,243.5,92.5,250.0,89.0" stroke="black" stroke-width="2" fill="none" />
<polyline points="263.5,84.5,254.5,89.0,247.5,93.0,242.0,97.0,236.0,101.5,230.5,105.5,224.0,109.0,218.5,113.0,213.0,117.0,207.5,121.5,203.0,125.0,198.5,129.0,194.0,133.0,189.5,136.5,185.0,140.5,181.0,144.5,177.0,149.0,174.0,153.0,169.5,157.5,166.0,162.0,162.0,166.0,157.5,170.0,154.5,174.0,156.5,171.0,160.5,166.5,164.5,163.0,168.5,159.0,172.0,155.5,176.0,151.0,180.0,147.0,184.0,143.0,188.0,139.0,192.0,135.5,196.0,132.5,200.5,129.0,205.0,125.5,209.0,122.0,212.5,119.5,216.5,116.5,220.5,114.0,224.0,110.5,228.0,108.5,232.5,105.5,236.5,102.5,240.5,99.5,244.0,96.5,248.0,93.5,252.5,91.5,256.5,89.0,260.5,87.0,264.5,86.0" stroke="black" stroke-width="2" fill="none" />
<polyline points="235.0,78.0,228.0,82.0,224.0,86.0,226.0,84.0,230.0,81.0,234.5,79.0" stroke="black" stroke-width="2" fill="none" />
<polyline points="233.0,50.5,236.5,48.5" stroke="black" stroke-width="2" fill="none" />
<polyline points="230.5,46.5,225.5,50.0,228.5,47.0,232.5,47.5,236.5,47.5,240.5,48.0,244.5,49.5,248.5,50.5,252.5,51.5,256.5,53.0,260.5,54.0,264.5,56.0,268.5,58.5,272.0,61.0,275.5,63.5,279.5,67.0,283.0,69.5,286.5,72.5,290.5,76.0,294.0,77.0,298.0,79.5,302.0,86.0,307.0,91.0,311.0,97.0,315.5,100.0,319.5,103.5,324.0,108.0,328.0,114.0,332.0,122.5,336.0,129.5,340.0,133.0,344.5,138.5,348.5,146.5,352.5,144.0,356.5,142.5,360.0,139.5,364.0,137.5,368.0,135.5,372.0,132.5,376.0,129.5,379.5,127.0,384.0,124.0,387.5,121.0,391.0,117.5,395.0,115.0,399.0,113.5,403.0,113.0,407.0,114.0,411.0,113.5,415.5,114.5,420.0,122.0" stroke="black" stroke-width="2" fill="none" />
<polyline points="413.5,114.5,417.5,118.5,419.0,122.0,420.0,125.5,420.5,129.0,420.5,132.5,419.5,136.5,418.5,140.5,417.5,144.0,416.5,148.0,415.5,152.0,414.0,156.5,412.0,161.0,411.0,165.5,410.0,169.5,408.5,174.0,407.0,178.0,405.5,182.0,402.0,186.5,397.0,190.0,393.5,194.0,389.5,198.0,385.5,202.5,380.0,206.0,374.5,210.0,368.5,213.5,371.0,211.5,375.0,208.5,379.0,205.0,382.5,202.0,386.5,198.5,390.5,194.5,394.5,191.0,399.0,186.5,403.5,184.0,407.5,178.5,412.0,169.5,415.5,158.0" stroke="black" stroke-width="2" fill="none" />
<polyline points="405.0,158.0,401.0,161.5,397.0,165.5,392.0,169.0,387.5,173.0,388.0,172.0,392.0,169.0,395.5,165.5,399.5,162.0,403.5,158.0" stroke="black" stroke-width="2" fill="none" />
<polyline points="396.0,153.0,393.5,157.0,391.0,161.0,389.0,165.0,387.0,168.5,384.5,172.5,381.5,176.5,383.5,174.0,387.0,167.0,390.5,160.0,394.5,154.0" stroke="black" stroke-width="2" fill="none" />
<polyline points="397.0,124.0,392.5,127.5,388.0,130.0,384.0,133.0,381.5,134.5,386.5,130.5,391.5,126.5,396.5,122.5" stroke="black" stroke-width="2" fill="none" />
<polyline points="396.5,121.0,392.5,124.5,388.5,127.5,384.5,130.5,381.0,133.0,385.0,129.0,390.0,124.5,395.0,120.5" stroke="black" stroke-width="2" fill="none" />
<polyline points="398.5,113.5,392.0,117.5,387.5,121.5,382.0,125.0,377.5,128.5,371.5,132.5,364.5,136.0,357.0,140.0,350.5,144.0" stroke="black" stroke-width="2" fill="none" />
<polyline points="367.5,132.5,368.5,131.0,368.5,127.0" stroke="black" stroke-width="2" fill="none" />
<polyline points="387.0,107.0,383.0,101.5,379.0,97.5" stroke="black" stroke-width="2" fill="none" />
<polyline points="377.0,97.5,381.0,101.5,383.0,105.5,387.5,109.0" stroke="black" stroke-width="2" fill="none" />
<polyline points="441.0,70.0,437.0,63.5,433.5,56.0,429.5,49.5,426.0,42.0,422.0,33.5,417.5,27.0,413.5,19.5,409.5,12.0,405.0,6.0" stroke="black" stroke-width="2" fill="none" />
<polyline points="513.0,73.5,510.5,78.0,507.0,82.0,503.5,86.0,499.0,90.5,494.0,96.0,490.5,100.0,486.5,104.0,483.0,107.5,481.0,111.0,477.0,115.0,475.0,119.0,472.5,123.5,469.5,127.5,468.0,131.5,464.5,135.0,462.5,139.0,460.5,143.0,456.5,148.0,455.0,152.0,452.5,156.5,450.0,160.5,447.5,164.5,445.5,168.5,443.5,173.0,442.0,177.5,438.5,182.0,436.5,186.5,435.0,190.0,433.0,194.0,430.5,198.0,428.5,202.0,428.0,206.0,426.5,210.0,425.5,215.0,422.0,219.0,421.5,223.5,419.5,227.5,418.0,232.0,416.5,236.5,415.0,240.5,413.0,244.5,412.0,248.0,413.0,250.0,410.5,253.5,409.0,257.5,408.5,261.0,406.5,265.0,405.5,269.0,404.0,273.0,402.0,276.5,401.0,280.5,400.0,285.0,398.5,289.0,397.0,293.0,396.0,297.0,394.0,301.5,393.5,306.0,392.0,310.0,391.5,314.0,390.0,318.0,389.5,322.0,388.0,325.5,387.0,329.5,386.5,333.5,385.5,337.5,386.5,341.5" stroke="black" stroke-width="2" fill="none" />
<polyline points="298.5,222.5,294.5,226.0,290.0,229.5,286.0,233.0,288.5,230.5,293.0,226.5,297.5,222.0" stroke="black" stroke-width="2" fill="none" />
<polyline points="269.5,217.0,273.0,215.0,273.5,211.0,275.0,206.5,279.0,202.5,283.0,198.0,287.5,193.5,292.0,189.5,297.5,186.0,302.0,182.0,309.0,178.0,312.0,174.0" stroke="black" stroke-width="2" fill="none" />
<polyline points="312.0,171.0,305.5,175.0,300.0,179.0,294.5,183.0,289.5,187.5,284.5,192.0,280.0,196.0,275.0,200.5,270.5,205.0,268.0,210.0,271.0,210.0,268.0,214.0,266.5,218.5,266.0,222.5,265.0,224.5,264.5,228.0,265.0,232.0,264.0,236.5,264.0,240.5" stroke="black" stroke-width="2" fill="none" />
<polyline points="252.0,177.5,248.0,180.5,243.5,181.0,238.0,183.5,234.0,186.0,239.0,183.0,241.0,178.5,241.5,174.5,245.0,171.0" stroke="black" stroke-width="2" fill="none" />
<polyline points="251.5,161.5,255.0,164.0,259.0,165.0,263.5,162.5,267.5,161.0,259.5,164.5" stroke="black" stroke-width="2" fill="none" />
<polyline points="256.5,164.5,251.0,160.5" stroke="black" stroke-width="2" fill="none" />
<polyline points="258.5,133.0,254.5,136.5,250.5,139.5,246.5,143.0,242.0,146.0,238.0,148.5,233.5,152.0,229.0,155.0,225.0,158.0,221.0,161.5,219.0,163.0,224.0,159.0,229.5,155.0,234.5,151.0,240.0,147.0,245.5,143.0,251.0,139.0,256.0,134.5,260.5,130.5" stroke="black" stroke-width="2" fill="none" />
<polyline points="282.5,145.5,286.5,144.0" stroke="black" stroke-width="2" fill="none" />
<polyline points="298.0,136.0,293.5,139.5,288.5,143.5,291.5,141.5,296.0,138.5,300.5,135.5" stroke="black" stroke-width="2" fill="none" />
<polyline points="346.5,147.5,344.0,143.5,343.5,140.0,341.0,136.5,336.5,132.5,334.0,128.5,331.0,124.0,328.5,120.0,327.5,116.0,324.5,112.0,323.0,108.0,320.0,104.0,316.0,100.0,311.5,96.0,309.0,92.0,305.5,88.0,302.0,83.5,299.5,79.5,291.0,75.5,286.0,71.5,280.5,67.5,274.5,63.5,268.5,59.5,262.0,56.0,251.5,52.0" stroke="black" stroke-width="2" fill="none" />
<polyline points="210.5,49.0,206.5,51.5" stroke="black" stroke-width="2" fill="none" />
<polyline points="174.0,60.0,170.0,61.5,166.0,62.0,161.0,65.5,161.0,70.0,162.5,66.5" stroke="black" stroke-width="2" fill="none" />
<polyline points="160.0,66.0,158.0,69.5,154.5,74.5,152.5,78.0,153.0,77.5,157.0,72.0,160.5,70.0" stroke="black" stroke-width="2" fill="none" />
<polyline points="156.0,75.5,154.5,79.5,151.5,83.5,155.0,77.0" stroke="black" stroke-width="2" fill="none" />
</svg>