<svg xmlns="http://www.w3.org/2000/svg" version="1.1"><polyline points="404.5,3.0,404.5,6.5,406.5,10.5,409.5,14.0,411.5,18.5,413.5,22.5,416.0,26.5,418.0,30.5,421.0,34.0,422.0,38.0,424.5,42.0,427.0,45.5,429.5,50.0,432.0,54.0,434.0,58.0,436.0,62.0,438.0,65.5,441.0,69.0" stroke="black" stroke-width="2" fill="none" />
<polyline points="454.5,59.0,450.5,51.5,447.0,45.5,443.5,38.0,440.5,33.0,436.0,26.0,432.0,19.0,428.0,12.5,424.5,7.0" stroke="black" stroke-width="2" fill="none" />
<polyline points="424.0,2.5,424.0,6.0,426.0,9.5,428.5,13.5,431.0,17.0,433.0,21.0,435.0,25.0,438.0,29.0,440.5,33.5,443.0,37.5,445.0,42.0,447.0,45.5,449.5,49.5,452.0,53.5,454.0,57.0,455.5,60.5,453.5,64.5,450.5,68.5,445.5,73.0,442.0,77.5,439.5,81.5,437.0,85.5,433.5,89.5,431.5,93.5,429.5,97.5,427.0,102.0,424.5,105.5,422.5,109.5,420.0,113.5,420.0,113.5,424.0,107.5,428.0,101.0,432.0,94.5,436.5,89.0,440.5,83.5,444.0,77.0,448.0,73.0,452.0,68.5,455.5,63.5,460.5,55.0,464.5,51.0,468.5,47.5,472.5,42.5,476.5,38.0,481.0,34.5,485.0,30.5,489.0,27.0,492.5,23.0,497.5,18.5,501.0,15.0,505.0,12.0,509.0,8.0" stroke="black" stroke-width="2" fill="none" />
<polyline points="513.0,5.5,506.5,9.5,502.5,14.0,497.5,18.0,495.0,21.5,490.5,25.0,486.5,29.0,483.0,33.5,477.5,37.5,473.5,41.5,469.5,45.5,465.5,49.0,462.0,53.0,458.5,57.0" stroke="black" stroke-width="2" fill="none" />
<polyline points="442.0,69.5,438.0,62.5,433.5,55.5,429.5,49.0,425.0,42.5,421.0,33.5,417.5,28.0,413.5,20.5,409.5,14.5,405.5,8.0" stroke="black" stroke-width="2" fill="none" />
<polyline points="379.5,97.5,383.5,101.5,387.0,107.0" stroke="black" stroke-width="2" fill="none" />
<polyline points="398.0,112.5,391.5,116.5,387.0,121.0,381.5,125.0,377.0,129.0,370.5,133.5,364.0,137.5,357.5,141.0,351.0,145.0" stroke="black" stroke-width="2" fill="none" />
<polyline points="338.0,154.0,331.0,158.0,325.0,161.5,317.5,165.5,311.0,169.5,305.5,173.0,299.5,177.0,294.5,180.5" stroke="black" stroke-width="2" fill="none" />
<polyline points="289.0,177.5,285.5,176.0" stroke="black" stroke-width="2" fill="none" />
<polyline points="280.5,175.0,284.5,174.5,288.5,174.5,292.5,178.5" stroke="black" stroke-width="2" fill="none" />
<polyline points="287.5,179.0,283.5,177.0,279.5,175.0" stroke="black" stroke-width="2" fill="none" />
<polyline points="278.5,179.5,274.0,179.0,270.0,179.0,266.0,178.0,261.5,177.0,258.0,176.0,254.5,175.5,251.0,171.0,247.0,170.5,243.0,169.0" stroke="black" stroke-width="2" fill="none" />
<polyline points="244.5,171.5,241.0,175.5,240.5,179.5,239.0,184.0,234.0,187.0,238.0,184.0,243.5,181.5,247.5,181.5,251.5,178.5" stroke="black" stroke-width="2" fill="none" />
<polyline points="250.5,177.5,246.5,181.5,242.0,184.0,245.0,187.0,242.0,192.0,239.0,196.0,237.5,200.0,235.5,204.0,234.5,208.0,231.5,211.5,233.5,211.5,232.5,210.0,236.5,209.0" stroke="black" stroke-width="2" fill="none" />
<polyline points="242.0,212.5,246.0,213.0,250.0,213.0" stroke="black" stroke-width="2" fill="none" />
<polyline points="253.0,203.5,257.0,202.0,260.5,197.5,264.5,193.0,269.5,188.0,271.0,192.0,270.0,196.0,270.0,200.0,269.0,204.5,265.5,208.5,265.0,212.5,264.0,216.5,265.5,218.0,263.5,219.5,260.5,223.0,256.0,227.0,251.5,231.5,247.0,235.5,243.5,239.5,240.0,244.0,237.0,247.5,234.0,251.5,231.0,255.0,227.5,259.0,225.5,263.0,223.0,267.0,220.5,271.0,218.5,275.0,216.5,279.0,214.5,283.0,217.0,279.5,221.0,272.0,224.5,265.5,228.5,259.0,233.0,254.0,237.5,248.5,241.5,243.0,245.0,237.5,249.0,233.0,253.0,228.5,259.0,223.0,262.5,224.0,262.5,225.5,262.5,230.0,262.0,234.0,262.0,238.0" stroke="black" stroke-width="2" fill="none" />
<polyline points="267.0,238.5,267.0,234.5" stroke="black" stroke-width="2" fill="none" />
<polyline points="267.0,224.5,263.0,220.0" stroke="black" stroke-width="2" fill="none" />
<polyline points="268.0,215.0,268.0,213.5,272.0,209.0,276.0,205.5,280.0,201.5,284.0,197.5,288.0,193.5,292.5,190.0,296.5,186.5,301.0,182.0,305.0,180.0,308.5,177.5" stroke="black" stroke-width="2" fill="none" />
<polyline points="311.0,175.0,308.0,179.0,301.5,183.0,297.0,187.0,291.5,190.5,287.0,194.0,283.0,198.0,278.5,201.5,274.0,205.0,272.0,209.0,271.5,213.0,268.5,215.0" stroke="black" stroke-width="2" fill="none" />
<polyline points="262.5,209.5,266.5,205.5" stroke="black" stroke-width="2" fill="none" />
<polyline points="261.5,209.0,265.5,201.0,263.5,201.0,261.5,205.0,260.0,209.0,259.5,213.0,257.0,218.0,253.0,221.5,249.0,225.5,245.0,229.5,241.5,234.0,239.0,237.5,235.5,241.0" stroke="black" stroke-width="2" fill="none" />
<polyline points="234.5,224.0,230.5,221.5" stroke="black" stroke-width="2" fill="none" />
<polyline points="230.0,219.5,234.0,222.0" stroke="black" stroke-width="2" fill="none" />
<polyline points="228.5,228.0,224.5,219.0,227.0,214.0" stroke="black" stroke-width="2" fill="none" />
<polyline points="221.5,212.5,221.0,216.5,221.0,220.5,221.0,225.0,221.5,229.0,225.0,230.0,222.0,233.0,228.0,233.5,224.5,237.5,224.5,242.0,222.0,246.0,221.0,250.0" stroke="black" stroke-width="2" fill="none" />
<polyline points="219.0,248.5,220.5,244.5,223.0,240.5,223.0,236.5,221.5,232.5,218.0,233.5" stroke="black" stroke-width="2" fill="none" />
<polyline points="218.5,233.5,219.5,237.5" stroke="black" stroke-width="2" fill="none" />
<polyline points="214.0,237.5,214.5,241.5,214.0,245.5,213.5,249.5,214.5,251.0,214.5,254.5,215.5,256.0" stroke="black" stroke-width="2" fill="none" />
<polyline points="217.5,250.5,217.0,246.5,216.0,242.5,213.0,239.5,213.0,237.5" stroke="black" stroke-width="2" fill="none" />
<polyline points="209.5,237.5,210.5,236.0,209.5,240.0,208.5,244.0,208.0,245.5" stroke="black" stroke-width="2" fill="none" />
<polyline points="206.5,251.0,210.5,255.0,214.0,257.0" stroke="black" stroke-width="2" fill="none" />
<polyline points="212.5,255.0,209.0,250.0,206.0,248.5,206.5,244.5,207.0,241.0,208.0,237.0,209.0,233.0,207.0,238.0" stroke="black" stroke-width="2" fill="none" />
<polyline points="199.0,235.5,197.0,239.5,192.5,244.0,187.5,247.5,190.5,245.5,194.5,242.0,198.0,236.0" stroke="black" stroke-width="2" fill="none" />
<polyline points="192.0,238.5,189.0,235.0,187.5,231.0,188.0,227.0,190.0,223.0,192.5,219.5,192.5,220.0,188.5,229.0" stroke="black" stroke-width="2" fill="none" />
<polyline points="186.5,225.5,190.5,218.5,189.5,221.0,187.0,225.0,187.0,229.5,186.5,233.5,188.5,237.5" stroke="black" stroke-width="2" fill="none" />
<polyline points="189.0,240.0,185.0,233.5" stroke="black" stroke-width="2" fill="none" />
<polyline points="179.0,235.0,177.5,239.0,176.5,242.5,177.0,244.5,176.5,248.5,176.5,252.5,177.0,256.5,179.0,260.5,181.0,265.0" stroke="black" stroke-width="2" fill="none" />
<polyline points="186.0,268.5,185.0,265.0,184.5,261.0,184.5,257.5,183.0,254.5" stroke="black" stroke-width="2" fill="none" />
<polyline points="183.5,252.5,188.0,250.5,192.5,251.5,193.5,255.5,194.5,259.5,198.0,263.5,204.5,266.5" stroke="black" stroke-width="2" fill="none" />
<polyline points="205.5,265.0,202.0,262.5,198.0,258.5" stroke="black" stroke-width="2" fill="none" />
<polyline points="204.5,264.0,198.5,260.5,197.5,257.0,195.5,253.0,190.5,253.5" stroke="black" stroke-width="2" fill="none" />
<polyline points="191.5,250.0,195.5,253.5,196.0,260.5,199.5,265.5,203.5,266.5" stroke="black" stroke-width="2" fill="none" />
<polyline points="205.5,251.0,208.0,251.5" stroke="black" stroke-width="2" fill="none" />
<polyline points="215.0,245.0,215.5,249.5,218.5,253.5" stroke="black" stroke-width="2" fill="none" />
<polyline points="231.5,244.5,227.5,250.0,223.5,256.0,219.5,262.0,215.0,269.0,211.0,275.5,207.0,282.5,203.0,290.0,198.5,297.0,194.5,305.0,190.5,314.5,186.5,318.0,182.5,326.0,179.0,330.5,175.0,330.5,171.5,331.0,168.0,333.5,164.0,340.5,159.5,342.0,156.0,345.0,152.5,351.0,148.5,348.0" stroke="black" stroke-width="2" fill="none" />
<polyline points="144.5,343.0,147.0,339.0,145.5,338.5,149.0,336.5,148.0,332.5,150.0,329.0,148.5,330.5" stroke="black" stroke-width="2" fill="none" />
<polyline points="151.0,328.5,154.0,332.5,153.0,337.0" stroke="black" stroke-width="2" fill="none" />
<polyline points="148.5,339.5,147.0,344.0,146.5,347.5,145.5,352.0" stroke="black" stroke-width="2" fill="none" />
<polyline points="137.5,351.5,133.5,347.5,129.5,342.0" stroke="black" stroke-width="2" fill="none" />
<polyline points="131.0,340.5,136.0,338.5,140.0,343.5" stroke="black" stroke-width="2" fill="none" />
<polyline points="141.5,339.0,140.0,341.5,139.0,337.5,138.5,330.0" stroke="black" stroke-width="2" fill="none" />
<polyline points="127.0,332.0,133.5,331.0,134.0,335.0,135.5,339.5,136.0,344.0,139.5,348.5,138.0,355.0,142.0,356.5,141.5,363.0,146.0,367.5" stroke="black" stroke-width="2" fill="none" />
<polyline points="146.5,368.0,142.5,366.0" stroke="black" stroke-width="2" fill="none" />
<polyline points="144.5,363.5,147.5,367.5" stroke="black" stroke-width="2" fill="none" />
<polyline points="149.0,363.0,153.0,368.5,153.5,372.5,153.5,376.5,155.0,380.5,156.0,384.5,156.5,389.0,160.0,394.5,161.0,398.0,159.5,402.0,159.5,406.0,161.0,410.0,160.5,414.5,162.0,418.5,162.5,422.5,160.5,427.0,161.0,420.0,159.5,424.0,159.5,427.5,162.0,425.0" stroke="black" stroke-width="2" fill="none" />
<polyline points="165.0,429.5,162.0,434.0,163.0,434.0,169.5,434.5" stroke="black" stroke-width="2" fill="none" />
<polyline points="167.5,434.0,167.0,433.5,167.0,437.5,166.5,442.5,166.0,445.5,168.0,450.0,169.5,452.0,172.0,455.5,174.0,459.5,180.0,456.5,178.5,460.5,177.0,465.0" stroke="black" stroke-width="2" fill="none" />
<polyline points="174.5,461.0,170.5,454.5" stroke="black" stroke-width="2" fill="none" />
<polyline points="170.0,454.5,172.5,458.5,172.0,463.5,170.5,467.5,167.5,468.5" stroke="black" stroke-width="2" fill="none" />
<polyline points="167.0,470.5,163.5,469.5,157.5,472.5,153.5,469.0,149.0,462.5,145.0,453.5,141.0,451.0,137.0,456.0,133.0,465.0" stroke="black" stroke-width="2" fill="none" />
<polyline points="138.0,465.5,142.5,467.0,146.0,469.0,150.5,474.5,154.0,475.0" stroke="black" stroke-width="2" fill="none" />
<polyline points="156.5,467.5,150.0,461.0" stroke="black" stroke-width="2" fill="none" />
<polyline points="149.0,460.5,153.0,466.0,156.0,466.5,157.5,472.5,160.0,475.5,158.5,475.0,164.0,476.0,166.5,471.0" stroke="black" stroke-width="2" fill="none" />
<polyline points="164.5,470.0,168.5,474.0,169.5,478.0,167.0,482.5,165.5,486.5,167.5,490.0,168.5,493.0" stroke="black" stroke-width="2" fill="none" />
<polyline points="167.0,498.0,163.0,496.0" stroke="black" stroke-width="2" fill="none" />
<polyline points="159.0,501.5,161.5,505.5,163.0,510.0" stroke="black" stroke-width="2" fill="none" />
<polyline points="167.5,509.5,164.5,505.5,163.0,504.5" stroke="black" stroke-width="2" fill="none" />
<polyline points="155.5,510.5,151.5,505.5" stroke="black" stroke-width="2" fill="none" />
<polyline points="154.5,503.5,150.5,497.0" stroke="black" stroke-width="2" fill="none" />
<polyline points="154.5,497.0,150.5,491.5" stroke="black" stroke-width="2" fill="none" />
<polyline points="154.0,493.0,153.5,487.0,149.5,483.5" stroke="black" stroke-width="2" fill="none" />
<polyline points="148.5,483.0,148.0,486.5,151.0,490.5,154.5,490.5,155.0,494.5,156.0,498.5,158.0,502.5,159.0,506.0,160.5,507.5,167.0,511.0" stroke="black" stroke-width="2" fill="none" />
<polyline points="152.5,510.5,148.0,501.0,144.0,496.0" stroke="black" stroke-width="2" fill="none" />
<polyline points="144.0,494.5,147.0,499.0,149.0,503.0,150.5,507.5,152.0,511.5" stroke="black" stroke-width="2" fill="none" />
<polyline points="156.5,507.0,152.5,504.0,149.0,497.0,147.5,492.0,144.0,483.5" stroke="black" stroke-width="2" fill="none" />
<polyline points="140.5,483.0,143.0,487.0,144.5,490.5,147.5,494.5,150.5,499.0,152.5,503.0,153.0,507.0,155.5,511.5" stroke="black" stroke-width="2" fill="none" />
<polyline points="153.0,505.5,153.5,503.5,151.5,499.5,149.0,495.5,144.5,492.0,140.5,484.5" stroke="black" stroke-width="2" fill="none" />
<polyline points="137.0,483.0,138.5,487.0,137.5,489.0,139.0,493.0,138.0,496.0,139.0,500.0,139.0,503.5" stroke="black" stroke-width="2" fill="none" />
<polyline points="142.5,513.5,144.0,509.5,142.0,505.5,140.5,501.5,139.0,497.5,134.5,492.5,134.0,486.0" stroke="black" stroke-width="2" fill="none" />
<polyline points="134.0,483.0,138.0,486.5,138.0,494.0" stroke="black" stroke-width="2" fill="none" />
<polyline points="128.0,497.5,132.5,505.5" stroke="black" stroke-width="2" fill="none" />
<polyline points="131.0,510.0,127.0,504.5,123.0,496.5" stroke="black" stroke-width="2" fill="none" />
<polyline points="126.0,498.0,128.0,502.0,126.5,505.5,126.5,510.0" stroke="black" stroke-width="2" fill="none" />
<polyline points="124.0,509.0,125.0,505.0,125.0,501.0,125.0,497.5,124.0,492.5,123.5,490.5" stroke="black" stroke-width="2" fill="none" />
<polyline points="121.0,484.0,121.0,488.0,120.5,492.0,120.0,495.5,121.5,500.0,121.0,504.0,121.0,508.0,121.0,511.5" stroke="black" stroke-width="2" fill="none" />
<polyline points="127.0,504.0,129.5,508.0,132.5,512.5" stroke="black" stroke-width="2" fill="none" />
<polyline points="108.5,509.0,109.0,505.0,110.5,501.0,111.5,497.0,113.5,493.0,113.5,489.0,114.0,487.0" stroke="black" stroke-width="2" fill="none" />
<polyline points="113.5,487.5,113.5,491.5,113.0,495.0,111.5,499.0,111.0,503.0,110.5,507.0,109.5,511.0" stroke="black" stroke-width="2" fill="none" />
<polyline points="104.0,506.0,100.0,501.5" stroke="black" stroke-width="2" fill="none" />
<polyline points="100.0,490.5,99.5,494.5,101.0,499.0,102.5,503.5,104.5,507.5,106.5,511.0" stroke="black" stroke-width="2" fill="none" />
<polyline points="104.0,510.5,102.0,506.0,100.0,502.0,97.5,498.0,97.0,494.5,96.0,490.5" stroke="black" stroke-width="2" fill="none" />
<polyline points="95.0,468.5,91.0,472.5,92.5,471.5,96.0,467.5" stroke="black" stroke-width="2" fill="none" />
<polyline points="94.0,454.5,90.5,457.0,86.5,459.5,88.0,458.0,94.0,454.0" stroke="black" stroke-width="2" fill="none" />
<polyline points="94.0,452.5,89.5,456.5,83.5,460.0,85.5,458.5,89.5,456.5,94.0,452.5" stroke="black" stroke-width="2" fill="none" />
<polyline points="110.0,446.0,109.5,442.0,109.0,440.0" stroke="black" stroke-width="2" fill="none" />
<polyline points="105.0,438.0,104.5,441.5,103.5,445.5" stroke="black" stroke-width="2" fill="none" />
<polyline points="102.5,437.5,98.5,441.5,101.5,439.0,103.5,435.5" stroke="black" stroke-width="2" fill="none" />
<polyline points="102.0,435.0,98.0,439.5,94.5,444.5,92.5,444.0,92.0,447.5,92.5,443.5,97.5,439.5,102.0,435.0,104.5,431.0,105.5,427.0,106.0,423.0,106.0,419.0,110.0,417.0,106.0,418.5" stroke="black" stroke-width="2" fill="none" />
<polyline points="109.0,417.5,110.5,421.5,109.5,425.5,109.0,429.0,109.5,433.0,107.5,437.0,106.5,441.0,107.5,447.0" stroke="black" stroke-width="2" fill="none" />
<polyline points="120.5,452.5,122.5,451.0,123.5,455.0" stroke="black" stroke-width="2" fill="none" />
<polyline points="123.5,456.0,121.0,452.0" stroke="black" stroke-width="2" fill="none" />
<polyline points="119.5,444.5,121.5,441.0" stroke="black" stroke-width="2" fill="none" />
<polyline points="119.0,436.5,118.5,442.5,117.0,442.0,118.5,438.0,120.5,434.0,121.0,430.0" stroke="black" stroke-width="2" fill="none" />
<polyline points="117.0,428.0,117.0,432.0" stroke="black" stroke-width="2" fill="none" />
<polyline points="122.5,420.5,126.0,425.5,130.5,429.0" stroke="black" stroke-width="2" fill="none" />
<polyline points="137.5,428.5,138.5,430.5,140.0,434.5" stroke="black" stroke-width="2" fill="none" />
<polyline points="145.5,425.5,141.5,422.5" stroke="black" stroke-width="2" fill="none" />
<polyline points="140.0,422.0,144.0,429.0,150.5,439.0" stroke="black" stroke-width="2" fill="none" />
<polyline points="156.0,441.0,156.0,438.5,157.5,434.5,157.5,432.0,157.5,428.0,156.5,424.0,156.5,420.5,157.0,420.5" stroke="black" stroke-width="2" fill="none" />
<polyline points="166.0,415.5,162.0,410.0" stroke="black" stroke-width="2" fill="none" />
<polyline points="163.0,410.0,165.5,414.0,168.5,420.0" stroke="black" stroke-width="2" fill="none" />
<polyline points="171.0,416.5,173.0,420.5,176.0,424.5,176.5,429.0,177.0,433.0,175.0,436.5,172.0,439.0,172.5,440.0,173.0,445.0,174.5,449.0,175.0,453.0,178.0,456.0,174.5,462.0,175.0,466.0,171.0,464.5,174.5,468.0" stroke="black" stroke-width="2" fill="none" />
<polyline points="171.5,464.0,167.5,462.5" stroke="black" stroke-width="2" fill="none" />
<polyline points="178.0,461.0,174.0,458.0,170.0,451.0,166.0,444.0" stroke="black" stroke-width="2" fill="none" />
<polyline points="164.0,445.5,165.5,449.5,167.0,453.5,168.5,458.0,171.5,462.0,168.5,465.0,168.0,468.5,163.5,470.5,164.0,474.5,163.0,478.0,160.5,479.5,160.5,482.0,160.0,486.5,161.5,490.5,165.5,495.0,167.0,499.0,168.5,506.0,172.0,510.0,173.0,514.0,174.0,514.0" stroke="black" stroke-width="2" fill="none" />
<polyline points="193.5,491.0,198.0,491.0,202.0,489.5,206.0,488.0,210.0,486.5,213.5,484.0,217.5,481.5,221.5,477.0,225.5,472.0,229.0,466.5" stroke="black" stroke-width="2" fill="none" />
<polyline points="233.0,466.5,237.0,459.0" stroke="black" stroke-width="2" fill="none" />
<polyline points="209.5,486.0,215.0,482.0,219.0,478.0,222.5,474.0,225.5,470.5,228.0,466.5,230.0,462.5,232.0,458.5,232.5,454.5,233.0,450.5,234.0,446.5,235.0,442.5,236.0,438.5,236.5,435.0,236.0,431.0,235.5,427.0,235.5,423.0,234.5,419.0,234.0,415.0,232.5,411.0,231.5,407.5,231.5,405.0" stroke="black" stroke-width="2" fill="none" />
<polyline points="223.5,410.0,223.5,414.0,224.5,415.0" stroke="black" stroke-width="2" fill="none" />
<polyline points="228.0,418.5,229.5,414.5" stroke="black" stroke-width="2" fill="none" />
<polyline points="245.5,410.5,244.5,414.5,245.0,418.0,244.0,422.0,243.5,426.0,242.5,430.5,242.5,434.5,241.0,438.5,240.5,442.5,239.5,446.0,238.0,450.0,237.5,454.0,237.0,458.0,235.5,462.0,233.0,466.0,232.0,470.0,230.0,473.5,227.5,477.5,223.5,482.0,219.0,486.0,211.5,490.0" stroke="black" stroke-width="2" fill="none" />
<polyline points="200.0,494.5,196.0,497.0,200.0,494.5,204.0,494.0,208.0,493.0,212.0,491.5,216.0,490.0,219.5,487.5,224.5,483.5,228.5,479.5,232.5,472.5" stroke="black" stroke-width="2" fill="none" />
<polyline points="198.5,449.0,199.5,445.0,202.0,445.0,198.0,447.0" stroke="black" stroke-width="2" fill="none" />
<polyline points="199.0,450.5,194.5,448.5,190.5,448.0,187.0,447.5,183.0,446.5,179.5,449.5,180.5,448.0,182.0,448.0,184.0,442.0,183.5,437.0,181.0,435.0,179.5,433.0,181.0,429.5,182.0,426.0,181.5,422.0,180.0,418.0,179.0,414.0,177.0,410.0,174.5,405.5,172.0,402.0,169.0,398.0,165.5,394.5,160.5,390.0,158.5,386.0,161.5,382.0,162.5,377.5,161.0,381.0" stroke="black" stroke-width="2" fill="none" />
<polyline points="160.0,377.5,164.0,372.0,167.5,367.0,171.5,362.5,176.0,357.5,180.0,351.0,184.0,344.5,188.0,339.5,191.5,333.5,195.5,329.0,199.5,324.0" stroke="black" stroke-width="2" fill="none" />
<polyline points="198.0,319.5,202.0,317.5" stroke="black" stroke-width="2" fill="none" />
<polyline points="191.5,316.5,195.5,308.0,199.5,299.5,203.0,291.5,207.0,285.5,211.0,278.0,215.0,271.0,218.5,265.0,223.0,258.5,227.0,252.5,231.5,247.0,235.5,241.5,239.0,236.0,243.0,231.0,247.0,227.0,251.0,223.0,255.0,219.0" stroke="black" stroke-width="2" fill="none" />
<polyline points="252.0,203.0,255.5,199.5" stroke="black" stroke-width="2" fill="none" />
<polyline points="263.0,201.0,259.0,209.5,256.0,216.0,252.0,219.0,248.5,223.0,245.0,227.5,241.0,231.5,237.0,236.0,233.0,235.0,232.5,234.5,231.5,231.0,230.5,227.0,229.5,223.0,228.0,219.0,226.5,215.0,224.5,215.0,223.5,211.0,224.0,207.5,225.0,203.5" stroke="black" stroke-width="2" fill="none" />
<polyline points="221.0,205.0,224.5,200.5,227.0,198.0,223.0,202.0,220.5,206.5,219.5,211.0,222.0,213.5,223.0,216.5,225.0,220.5,228.0,224.5,229.0,228.5,230.0,232.5,231.0,236.0,233.5,240.5,230.0,244.5,227.0,249.0,224.0,253.0,220.5,257.0,218.5,261.0,216.0,265.0,213.5,269.5,211.5,273.0,209.0,277.0,206.5,281.0,204.0,284.5,202.0,288.0,199.5,291.5,198.0,295.5,195.5,299.5,194.5,303.5,192.5,307.5,191.0,311.5,189.0,315.5,191.5,318.5,195.0,320.0,199.5,318.5,205.0,312.5,209.5,307.5,214.0,301.0,218.0,295.5,222.0,290.0,226.0,285.0,230.0,280.5,234.0,277.0,237.5,273.0,241.5,269.0,245.0,265.0,248.5,260.5,252.0,257.0,256.0,254.0,259.5,250.5,264.0,248.0,268.0,245.5,273.0,246.5,277.0,249.0,281.0,250.0,285.5,251.0,289.5,251.5,294.0,253.5,298.5,256.5" stroke="black" stroke-width="2" fill="none" />
<polyline points="288.0,255.5,285.5,256.5,283.0,258.5,285.0,260.0" stroke="black" stroke-width="2" fill="none" />
<polyline points="287.5,261.5,288.5,267.5,290.5,271.5" stroke="black" stroke-width="2" fill="none" />
<polyline points="291.5,273.0,287.5,266.5" stroke="black" stroke-width="2" fill="none" />
<polyline points="286.5,265.5,287.5,269.5" stroke="black" stroke-width="2" fill="none" />
<polyline points="285.0,276.5,280.5,276.0" stroke="black" stroke-width="2" fill="none" />
<polyline points="288.5,273.0,284.5,270.5,281.0,266.0,277.0,264.0,273.0,265.5" stroke="black" stroke-width="2" fill="none" />
<polyline points="273.0,265.5,268.0,269.0,264.0,266.0" stroke="black" stroke-width="2" fill="none" />
<polyline points="263.5,267.5,262.0,268.0,263.0,269.5,267.0,271.0" stroke="black" stroke-width="2" fill="none" />
<polyline points="270.0,270.5,268.0,266.5,268.0,267.0" stroke="black" stroke-width="2" fill="none" />
<polyline points="262.0,268.5,266.0,273.5,269.5,274.0,273.5,269.5,274.5,267.5,271.5,271.5,271.0,276.5,273.5,281.0,275.0,281.5" stroke="black" stroke-width="2" fill="none" />
<polyline points="263.5,281.0,264.5,277.0,259.0,274.5,259.0,271.0,257.5,267.0,257.5,267.0" stroke="black" stroke-width="2" fill="none" />
<polyline points="260.5,265.0,262.0,269.0,267.0,273.0,267.5,280.0" stroke="black" stroke-width="2" fill="none" />
<polyline points="260.0,272.0,256.0,274.0,252.0,270.5,248.5,268.0" stroke="black" stroke-width="2" fill="none" />
<polyline points="249.0,266.5,251.5,265.0,250.0,270.0,253.5,274.5,256.5,278.5,263.5,277.0,267.5,278.0,271.0,277.0,274.5,280.0,278.5,280.5,283.0,273.5,279.0,277.0,278.0,282.5" stroke="black" stroke-width="2" fill="none" />
<polyline points="288.5,275.5,286.0,279.5,287.5,278.5,286.5,276.5,285.5,273.0,283.0,269.0,277.5,265.0" stroke="black" stroke-width="2" fill="none" />
<polyline points="278.0,255.5,275.0,250.5,270.5,248.5,266.5,248.0,262.5,251.0" stroke="black" stroke-width="2" fill="none" />
<polyline points="268.5,257.5,271.5,253.0" stroke="black" stroke-width="2" fill="none" />
<polyline points="278.5,251.0,283.0,252.0,283.0,257.5,288.0,261.0,291.0,266.0,293.0,270.0" stroke="black" stroke-width="2" fill="none" />
<polyline points="282.0,257.5,277.0,258.5,273.0,255.5,270.0,256.5,265.5,258.0,261.0,256.5,257.5,258.5,253.5,259.0" stroke="black" stroke-width="2" fill="none" />
<polyline points="273.5,245.5,268.0,247.0,262.5,250.5,257.5,254.5,253.0,258.5,248.5,262.5,245.0,266.5,241.0,270.5,237.5,274.5,233.5,279.0,229.5,282.5,226.0,286.5,222.5,290.0,219.5,293.5,216.5,297.0,214.0,301.0,211.5,305.0,209.0,308.5,206.0,312.5,205.5,316.5,202.5,320.5,198.5,324.5,195.5,328.5,192.5,333.0,189.5,337.5,186.5,341.5,183.5,345.5,180.5,349.5,177.5,353.0,175.0,357.0,171.5,361.0,168.5,364.5,165.0,368.5,162.0,373.0,160.0,377.0,158.5,383.5,162.0,389.5,166.5,393.5,170.5,398.5,175.0,404.0,179.0,412.0" stroke="black" stroke-width="2" fill="none" />
<polyline points="178.0,426.0,176.5,422.5,174.5,418.5,175.5,414.5,172.0,413.5,169.0,409.0,166.0,405.0,163.0,401.5,163.5,397.5,165.0,401.0" stroke="black" stroke-width="2" fill="none" />
<polyline points="167.5,403.5,171.5,407.5,173.0,412.0,170.5,416.5,168.5,421.0,167.0,424.5,163.5,424.5,162.5,428.5,162.5,432.5,158.5,435.5,162.5,430.0,166.0,425.5,169.0,423.5,171.5,427.5" stroke="black" stroke-width="2" fill="none" />
<polyline points="171.0,428.5,170.0,425.0,166.5,419.0,168.5,416.0,167.0,412.0,164.5,408.0,160.0,408.0" stroke="black" stroke-width="2" fill="none" />
<polyline points="171.5,407.0,167.0,403.0,163.0,402.5,157.0,396.5,153.0,392.5" stroke="black" stroke-width="2" fill="none" />
<polyline points="152.0,393.5,156.0,395.0" stroke="black" stroke-width="2" fill="none" />
<polyline points="156.5,399.5,152.5,395.5,150.5,396.5" stroke="black" stroke-width="2" fill="none" />
<polyline points="148.0,393.5,148.0,396.5,148.5,402.0,149.5,406.0,151.5,413.0,151.5,417.0,151.5,421.0" stroke="black" stroke-width="2" fill="none" />
<polyline points="149.0,411.0,145.0,406.0,141.0,402.0" stroke="black" stroke-width="2" fill="none" />
<polyline points="141.0,402.0,145.0,406.0" stroke="black" stroke-width="2" fill="none" />
<polyline points="146.5,407.0,142.0,403.5" stroke="black" stroke-width="2" fill="none" />
<polyline points="139.0,400.5,140.5,404.5,144.0,408.0,148.5,412.0" stroke="black" stroke-width="2" fill="none" />
<polyline points="138.5,409.0,142.0,413.5,146.5,418.0,150.5,424.0" stroke="black" stroke-width="2" fill="none" />
<polyline points="138.5,422.0,144.0,424.0,149.0,427.5,146.5,430.5,147.0,434.5,149.0,438.5,154.0,438.0,154.5,442.0,157.5,446.0,157.0,450.0,157.0,448.0,160.0,451.0,163.5,448.5,164.0,453.0,168.0,455.0,171.5,461.0" stroke="black" stroke-width="2" fill="none" />
<polyline points="162.5,461.0,160.0,457.0,159.0,454.5,158.5,450.5,160.0,446.5,161.0,442.5,162.5,442.0" stroke="black" stroke-width="2" fill="none" />
<polyline points="160.5,446.0,164.5,441.5,168.5,445.5,172.5,445.5,177.0,440.5,181.0,439.5,181.5,434.5" stroke="black" stroke-width="2" fill="none" />
<polyline points="179.5,439.5,175.5,443.5,179.5,443.0,183.5,444.5,187.5,440.5" stroke="black" stroke-width="2" fill="none" />
<polyline points="178.0,445.0,174.5,444.0" stroke="black" stroke-width="2" fill="none" />
<polyline points="174.5,445.0,175.0,449.0,176.0,453.0,175.5,457.0" stroke="black" stroke-width="2" fill="none" />
<polyline points="164.0,458.5,162.5,460.0,162.5,455.5,163.5,451.5,160.5,452.5,160.0,450.0" stroke="black" stroke-width="2" fill="none" />
<polyline points="156.5,458.0,160.5,460.0" stroke="black" stroke-width="2" fill="none" />
<polyline points="157.5,466.0,153.5,464.0,149.5,459.5" stroke="black" stroke-width="2" fill="none" />
<polyline points="149.0,465.0,153.0,471.5,156.5,474.5" stroke="black" stroke-width="2" fill="none" />
<polyline points="157.0,476.0,152.0,472.0,149.0,468.5" stroke="black" stroke-width="2" fill="none" />
<polyline points="138.5,463.5,140.5,467.5,143.5,471.5,147.5,475.5,152.5,480.0,154.5,485.5,152.5,483.5,157.0,484.5,158.5,489.5,162.5,495.5,165.0,494.0,168.0,500.5" stroke="black" stroke-width="2" fill="none" />
<polyline points="173.5,509.0,169.5,505.5,165.5,503.5,161.5,502.5,158.0,500.5,153.5,498.5,152.0,494.5,147.5,492.0,145.5,488.0,143.5,484.0,140.5,477.5" stroke="black" stroke-width="2" fill="none" />
<polyline points="134.5,482.0,133.0,486.0,134.0,490.5,136.5,495.0,134.5,497.0,137.5,501.0,139.5,505.0,140.5,509.0,141.0,512.5" stroke="black" stroke-width="2" fill="none" />
<polyline points="136.0,511.5,133.0,507.5,131.0,503.5,129.5,499.5,128.5,495.0,126.0,491.0,124.0,487.5,123.0,483.5" stroke="black" stroke-width="2" fill="none" />
<polyline points="154.0,477.5,149.5,474.5,146.5,470.5,145.0,467.0,143.5,464.0,144.0,460.0,143.0,456.0,141.0,452.5" stroke="black" stroke-width="2" fill="none" />
<polyline points="142.5,450.5,145.0,455.0,147.0,458.5,148.0,462.5,148.5,466.5,149.0,470.5,152.5,474.5,154.0,478.0,156.5,478.0,157.0,483.5,155.0,486.5,158.0,490.5,161.0,495.0,162.0,499.5,164.0,503.5,164.0,507.5,165.5,512.0" stroke="black" stroke-width="2" fill="none" />
<polyline points="169.5,490.5,168.0,486.5,161.0,483.5" stroke="black" stroke-width="2" fill="none" />
<polyline points="167.5,477.0,165.5,481.0,167.0,479.0,170.0,480.0" stroke="black" stroke-width="2" fill="none" />
<polyline points="148.0,453.0,144.0,449.5" stroke="black" stroke-width="2" fill="none" />
<polyline points="144.5,449.5,148.5,452.0,152.5,452.0,156.5,453.0" stroke="black" stroke-width="2" fill="none" />
<polyline points="152.5,447.5,148.0,442.0,145.0,436.5,138.0,427.5,133.5,423.0,129.5,419.5" stroke="black" stroke-width="2" fill="none" />
<polyline points="134.0,420.5,136.5,425.0,137.0,428.5,138.0,432.5,138.5,436.0,141.5,441.5,142.0,445.5,141.0,450.0,139.5,454.0,137.0,457.5,135.0,461.5,133.5,465.5,134.0,456.5" stroke="black" stroke-width="2" fill="none" />
<polyline points="144.5,448.0,148.5,452.0,152.0,453.5,152.5,458.0,153.5,454.5,157.5,455.5,163.0,454.0" stroke="black" stroke-width="2" fill="none" />
<polyline points="160.5,463.0,154.5,458.5,155.5,456.5,154.0,452.5,153.0,448.5,150.5,445.0,146.0,441.0,145.0,437.0,145.0,432.5,142.0,428.0,140.0,423.5,137.0,422.5,133.0,417.5,129.0,413.0" stroke="black" stroke-width="2" fill="none" />
<polyline points="126.5,412.5,130.5,407.5,134.0,403.0" stroke="black" stroke-width="2" fill="none" />
<polyline points="129.5,408.0,133.5,403.5,134.0,396.5,137.5,394.5,142.0,390.5,143.0,387.5,142.5,386.5,145.0,381.5,147.0,376.0,148.5,371.5,149.0,367.5,147.0,363.5,146.5,360.0,146.5,356.0,145.0,354.0,143.5,350.0,140.5,346.0,138.5,341.0,137.5,337.0,136.5,333.0,136.5,329.0,135.5,325.5,134.5,321.5,133.0,317.0,132.0,312.5,130.0,308.0,129.0,303.5,127.0,296.5,131.0,292.0,135.0,290.5,137.0,286.5,130.0,282.5,126.0,276.5" stroke="black" stroke-width="2" fill="none" />
<polyline points="126.0,276.0,126.0,280.0,129.0,284.0,129.5,287.5,126.5,289.5,126.0,293.5,124.5,297.0,123.0,301.0,125.5,304.0,124.0,308.0,123.0,312.0,122.5,316.0,122.0,320.0,123.0,324.0,122.5,328.0,122.5,332.0,123.0,337.5" stroke="black" stroke-width="2" fill="none" />
<polyline points="119.0,341.0,119.5,343.0,119.5,345.5" stroke="black" stroke-width="2" fill="none" />
<polyline points="116.0,344.0,120.0,350.0,119.0,357.0,119.5,360.5,118.0,364.5,117.0,368.5,117.0,372.0,117.0,376.0,117.0,379.5,117.0,384.0,117.5,388.0,117.0,392.0,118.5,396.5,122.5,402.0,126.0,405.0" stroke="black" stroke-width="2" fill="none" />
<polyline points="126.0,406.0,122.0,410.0" stroke="black" stroke-width="2" fill="none" />
<polyline points="121.0,416.0,121.5,420.0,124.0,424.0,128.0,428.5" stroke="black" stroke-width="2" fill="none" />
<polyline points="132.5,428.5,131.0,424.0,130.5,420.0,126.5,415.0" stroke="black" stroke-width="2" fill="none" />
<polyline points="123.5,417.0,127.5,424.5,131.5,427.5" stroke="black" stroke-width="2" fill="none" />
<polyline points="130.0,425.0,129.5,421.5,129.5,417.5,126.5,414.5,128.0,411.0,129.5,407.0,124.5,408.0,120.5,413.0,116.5,414.5,112.5,414.5" stroke="black" stroke-width="2" fill="none" />
<polyline points="113.0,418.0,113.5,421.5,114.0,425.5,115.0,430.0,115.5,432.0" stroke="black" stroke-width="2" fill="none" />
<polyline points="125.5,424.0,123.0,420.5,121.5,416.5" stroke="black" stroke-width="2" fill="none" />
<polyline points="129.5,410.5,133.5,406.0,139.5,401.0,143.5,397.5" stroke="black" stroke-width="2" fill="none" />
<polyline points="143.0,396.0,142.5,400.0" stroke="black" stroke-width="2" fill="none" />
<polyline points="144.0,394.0,147.0,398.0,150.0,405.5" stroke="black" stroke-width="2" fill="none" />
<polyline points="149.5,400.5,145.5,397.0,142.0,394.5,138.0,401.0,131.0,399.5,127.0,398.5,123.0,397.0,120.0,392.5" stroke="black" stroke-width="2" fill="none" />
<polyline points="119.0,389.5,123.0,395.0,125.0,397.0,126.5,401.0" stroke="black" stroke-width="2" fill="none" />
<polyline points="123.5,392.0,127.5,395.5,132.0,397.5,136.0,393.5" stroke="black" stroke-width="2" fill="none" />
<polyline points="135.0,392.0,128.0,390.0,124.0,391.5" stroke="black" stroke-width="2" fill="none" />
<polyline points="128.5,396.0,124.0,392.0,126.5,389.0,124.5,387.5,124.0,384.0" stroke="black" stroke-width="2" fill="none" />
<polyline points="131.0,375.0,127.0,367.5,123.5,359.5" stroke="black" stroke-width="2" fill="none" />
<polyline points="126.5,359.5,133.0,363.5,135.0,367.5" stroke="black" stroke-width="2" fill="none" />
<polyline points="133.0,372.5,139.5,371.5,141.5,375.5,142.5,379.5,145.5,379.5,146.5,384.0" stroke="black" stroke-width="2" fill="none" />
<polyline points="150.5,380.5,149.0,383.0,153.5,386.5" stroke="black" stroke-width="2" fill="none" />
<polyline points="142.0,385.0,140.0,380.5,135.5,375.5" stroke="black" stroke-width="2" fill="none" />
<polyline points="136.0,362.0,132.0,357.5" stroke="black" stroke-width="2" fill="none" />
<polyline points="135.5,356.5,131.5,353.0" stroke="black" stroke-width="2" fill="none" />
<polyline points="131.5,352.0,132.0,358.0,135.5,362.0,137.0,368.5" stroke="black" stroke-width="2" fill="none" />
<polyline points="133.5,362.5,129.5,359.5,125.5,358.0,121.0,355.0" stroke="black" stroke-width="2" fill="none" />
<polyline points="122.0,354.5,125.0,358.5,125.5,363.0,130.5,365.0,130.5,369.0,135.5,369.0,139.0,369.0,145.5,372.5" stroke="black" stroke-width="2" fill="none" />
<polyline points="147.5,362.0,150.0,366.0,150.5,367.5,150.5,371.5,150.5,376.0,151.0,379.5,151.0,384.0,150.0,385.0,155.0,389.0,159.0,391.5,163.0,396.0,168.5,398.5,172.5,402.0,176.0,409.5" stroke="black" stroke-width="2" fill="none" />
<polyline points="174.5,422.5,171.0,416.0,162.5,415.5,158.5,410.5,155.0,405.5,151.5,403.5,148.5,398.5,147.5,392.0,143.0,387.0,140.5,392.5,137.0,389.5,136.5,385.5,140.0,382.5,137.5,378.5,134.5,374.5,132.5,372.5,137.0,368.5,141.0,364.0,141.5,359.5,141.5,356.0,141.0,353.0,135.5,350.5,132.0,346.5,129.0,342.5,130.5,338.0,129.0,334.0,130.5,329.5,128.5,325.5,126.0,319.5" stroke="black" stroke-width="2" fill="none" />
<polyline points="120.0,322.0,120.5,326.0,120.5,331.0,120.5,335.0,121.0,339.5,121.0,340.5" stroke="black" stroke-width="2" fill="none" />
<polyline points="116.5,342.5,117.0,346.5,118.0,350.0,117.5,354.5,117.5,359.0,117.0,363.0,116.0,367.0,114.5,371.0,115.0,374.5,115.0,378.5,113.5,382.5,115.0,386.0,115.5,390.0,115.5,394.5,119.0,398.5,122.0,403.0,121.0,407.0,116.0,412.0,111.5,413.5,115.0,412.5,119.0,411.0,123.0,406.5" stroke="black" stroke-width="2" fill="none" />
<polyline points="126.0,402.5,121.5,398.5,118.5,394.5,119.0,390.0,121.0,387.0,121.0,383.0,120.5,379.5,121.5,375.5,120.0,374.5,121.0,370.5,120.5,372.0" stroke="black" stroke-width="2" fill="none" />
<polyline points="119.0,366.0,123.0,371.5,123.5,376.5,128.0,379.5" stroke="black" stroke-width="2" fill="none" />
<polyline points="127.5,376.5,123.5,369.5,119.5,363.5" stroke="black" stroke-width="2" fill="none" />
<polyline points="121.5,363.5,121.0,367.5,122.5,371.5,125.0,375.0,126.5,379.0,130.5,382.5,131.5,387.0,134.0,391.0,134.0,394.5,135.5,397.5" stroke="black" stroke-width="2" fill="none" />
<polyline points="142.5,390.5,141.5,394.0,139.0,398.0,137.5,402.5,133.5,406.5,130.0,411.0,130.0,414.0,133.5,419.0,136.0,422.0,140.0,426.0,141.0,431.0,142.0,435.0,139.0,441.0,139.5,445.0,138.0,448.5,137.5,452.5,136.0,456.0,132.5,459.0,131.0,463.0,135.0,467.5,136.0,468.0,139.5,468.0,143.5,473.0,148.0,476.5,151.5,479.0,156.0,482.0,160.5,483.0,165.0,485.5,168.5,489.5" stroke="black" stroke-width="2" fill="none" />
<polyline points="170.5,477.5,166.0,477.5,162.0,480.0,157.5,478.0,157.5,474.0,154.5,469.5,150.0,467.0,150.5,464.0,149.5,460.0,148.5,455.5,145.5,451.5,144.5,447.5" stroke="black" stroke-width="2" fill="none" />
<polyline points="167.5,428.5,172.0,434.5,176.0,434.5" stroke="black" stroke-width="2" fill="none" />
<polyline points="175.5,440.0,170.5,440.5,170.5,439.5,171.5,435.5,170.0,431.0,168.5,427.0" stroke="black" stroke-width="2" fill="none" />
<polyline points="193.5,426.5,193.5,430.5,193.0,435.0" stroke="black" stroke-width="2" fill="none" />
<polyline points="198.5,433.0,197.5,428.5" stroke="black" stroke-width="2" fill="none" />
<polyline points="198.0,424.0,198.0,428.0,196.5,430.0,195.5,434.0" stroke="black" stroke-width="2" fill="none" />
<polyline points="179.5,424.5,179.0,420.5,178.5,416.0,177.0,412.0,175.5,408.0,173.0,404.5,169.5,400.5,166.5,399.5,165.0,395.5" stroke="black" stroke-width="2" fill="none" />
<polyline points="191.5,392.0,192.0,396.0,191.5,400.0,191.5,404.0,191.5,408.5,191.5,412.5,191.5,416.5,191.5,420.5,191.0,424.5,191.0,428.5,190.5,433.0,190.0,437.0,190.0,441.0,187.0,441.5,184.0,445.0,186.5,445.5,191.0,446.0,195.0,446.5,199.0,445.0" stroke="black" stroke-width="2" fill="none" />
<polyline points="149.5,428.5,150.5,424.5,148.0,420.5,145.0,416.0,142.0,412.5,138.5,408.5" stroke="black" stroke-width="2" fill="none" />
<polyline points="114.5,407.5,114.0,404.5,115.0,400.0" stroke="black" stroke-width="2" fill="none" />
<polyline points="115.5,399.0,113.0,403.0,111.0,407.0,112.5,406.0" stroke="black" stroke-width="2" fill="none" />
<polyline points="105.0,406.5,100.5,407.5,99.0,407.5,97.5,403.5,96.0,401.0,93.5,399.0,91.5,395.5,90.5,391.0,90.0,387.0,91.5,383.0,86.0,386.0" stroke="black" stroke-width="2" fill="none" />
<polyline points="82.5,386.0,82.0,390.0,80.5,396.0,79.0,400.0,76.5,404.0,74.5,408.0,75.0,412.0" stroke="black" stroke-width="2" fill="none" />
<polyline points="73.0,407.0,77.0,402.5,80.5,395.0" stroke="black" stroke-width="2" fill="none" />
<polyline points="80.5,387.0,78.5,395.5,75.0,401.0,71.0,403.5,67.5,407.5" stroke="black" stroke-width="2" fill="none" />
<polyline points="69.0,414.0,72.5,404.0,71.0,408.5,69.5,412.5,68.5,416.5,67.0,420.5" stroke="black" stroke-width="2" fill="none" />
<polyline points="68.0,424.0,66.5,423.0,66.0,419.0,65.5,415.0,66.0,411.0,66.5,407.0,70.5,403.5,72.5,399.5,73.5,396.0,72.0,395.5,71.5,398.5" stroke="black" stroke-width="2" fill="none" />
<polyline points="81.5,387.0,78.5,391.0,78.5,395.0,76.0,399.0,73.0,402.5,72.0,406.5,72.0,411.0,71.5,415.0,70.0,415.5,69.5,419.0,70.0,422.5,68.0,426.0,70.0,426.5,70.0,430.5,71.5,431.5,71.0,435.5,69.0,440.0,69.5,444.0,69.5,448.0,69.5,452.0,69.0,455.5,69.0,459.5,69.0,463.5,68.0,467.5,66.5,471.5,65.5,475.0,63.5,479.0,63.0,483.0,63.5,487.0,64.0,491.0,64.0,495.5,64.5,499.0,61.5,503.0,62.0,506.5,62.0,510.5,63.5,510.0,67.0,506.0" stroke="black" stroke-width="2" fill="none" />
<polyline points="63.0,503.0,66.0,508.5,66.0,512.0" stroke="black" stroke-width="2" fill="none" />
<polyline points="69.5,497.5,70.5,493.5,71.0,489.5,71.0,485.5,71.5,481.5,69.5,478.0" stroke="black" stroke-width="2" fill="none" />
<polyline points="65.0,472.5,68.5,471.0,68.5,475.5,68.5,479.5,68.5,483.5,67.5,487.5,68.0,491.5,69.0,496.0" stroke="black" stroke-width="2" fill="none" />
<polyline points="70.5,466.0,70.5,462.0,70.5,458.0,71.0,455.5" stroke="black" stroke-width="2" fill="none" />
<polyline points="72.5,456.0,73.0,460.0,73.0,463.5,75.0,467.5,74.5,471.5" stroke="black" stroke-width="2" fill="none" />
<polyline points="68.5,455.0,68.5,450.5,68.0,448.5" stroke="black" stroke-width="2" fill="none" />
<polyline points="65.5,452.0,65.0,456.0,65.5,460.0,67.0,464.0,69.5,469.0,70.0,471.5,70.0,475.5,69.5,480.0,70.0,484.0" stroke="black" stroke-width="2" fill="none" />
<polyline points="30.0,491.5,28.5,497.5,29.5,501.5,32.5,505.0,32.5,509.0" stroke="black" stroke-width="2" fill="none" />
<polyline points="19.0,509.0,19.5,505.0,21.5,501.0,20.0,502.5" stroke="black" stroke-width="2" fill="none" />
<polyline points="16.0,505.5,15.5,501.5,15.5,497.0,14.5,493.0" stroke="black" stroke-width="2" fill="none" />
<polyline points="11.0,428.0,11.0,424.5,7.0,422.5" stroke="black" stroke-width="2" fill="none" />
<polyline points="5.0,420.0,7.5,424.0,9.5,428.5,10.5,432.5,11.0,436.5,11.5,440.5,11.0,445.0,13.0,447.0,12.0,450.5,12.0,454.5,11.5,458.0,14.5,460.5,12.5,464.5,14.0,468.5,15.0,472.5,14.0,476.0,12.5,478.5" stroke="black" stroke-width="2" fill="none" />
<polyline points="35.0,461.5,35.0,457.5,34.5,453.5,34.5,449.5,34.0,445.5,33.5,441.0,33.5,437.0,33.5,433.0,33.5,428.5,33.5,424.5" stroke="black" stroke-width="2" fill="none" />
<polyline points="26.0,418.5,23.0,411.5" stroke="black" stroke-width="2" fill="none" />
<polyline points="24.0,410.5,26.0,414.5,27.0,419.0,27.0,423.0,27.0,427.0,26.5,431.0,26.5,435.5,26.5,439.5,27.5,444.0,27.5,448.0,27.5,451.5,28.5,455.5,28.5,459.5,28.0,463.5,28.5,467.5,29.0,471.5,28.0,475.5,30.0,479.5,30.5,483.0,31.0,487.0,30.0,491.5,31.5,495.5,32.5,499.0,31.5,502.5" stroke="black" stroke-width="2" fill="none" />
<polyline points="70.5,435.5,67.5,436.0,67.5,432.5,67.0,433.0" stroke="black" stroke-width="2" fill="none" />
<polyline points="71.0,424.5,73.0,423.0,73.0,419.0,70.0,415.5" stroke="black" stroke-width="2" fill="none" />
<polyline points="90.0,422.5,88.0,424.5,90.5,421.0,92.5,417.0" stroke="black" stroke-width="2" fill="none" />
<polyline points="93.5,416.0,89.5,420.0,87.0,424.0,88.0,422.0" stroke="black" stroke-width="2" fill="none" />
<polyline points="91.0,404.5,95.0,403.5" stroke="black" stroke-width="2" fill="none" />
<polyline points="97.5,400.5,93.0,398.5" stroke="black" stroke-width="2" fill="none" />
<polyline points="94.5,402.0,90.5,395.5" stroke="black" stroke-width="2" fill="none" />
<polyline points="106.5,392.5,107.5,396.5,109.5,400.5,109.5,404.5,107.0,408.5,100.5,413.0,102.5,414.0" stroke="black" stroke-width="2" fill="none" />
<polyline points="107.0,404.0,106.0,400.5,105.5,396.5,107.0,392.5" stroke="black" stroke-width="2" fill="none" />
<polyline points="103.5,379.5,104.0,375.0,104.5,371.0,105.0,367.0,107.0,363.0,108.0,359.5,108.5,355.5,109.5,352.0,107.0,345.5,106.5,342.0,108.0,342.0,108.0,343.0" stroke="black" stroke-width="2" fill="none" />
<polyline points="100.0,342.0,104.5,338.0,108.0,333.5,112.5,327.0,116.5,319.0" stroke="black" stroke-width="2" fill="none" />
<polyline points="118.0,324.0,117.0,328.0,118.0,328.5" stroke="black" stroke-width="2" fill="none" />
<polyline points="117.0,337.5,117.5,342.0,117.0,345.0,118.5,349.0,120.5,353.5,121.0,357.0,122.5,361.0,124.5,365.0,126.5,369.0,129.5,373.0,132.0,377.0,132.5,382.0,134.0,383.5,139.0,385.5,140.5,389.5" stroke="black" stroke-width="2" fill="none" />
<polyline points="131.0,381.5,128.5,376.0,127.0,372.0,125.0,368.5,123.0,364.5" stroke="black" stroke-width="2" fill="none" />
<polyline points="113.0,368.0,109.5,364.5,109.5,360.5" stroke="black" stroke-width="2" fill="none" />
<polyline points="114.0,363.0,112.0,359.5,111.0,355.0" stroke="black" stroke-width="2" fill="none" />
<polyline points="112.0,353.5,112.5,358.0,113.5,362.0,111.5,363.0,112.0,362.5,114.0,368.0" stroke="black" stroke-width="2" fill="none" />
<polyline points="106.0,354.0,106.0,358.0,104.5,362.0,104.0,366.0,103.0,370.0,102.5,374.0,102.5,378.0,102.5,381.5" stroke="black" stroke-width="2" fill="none" />
<polyline points="78.5,382.5,75.0,389.5,71.0,393.5,67.0,397.0,63.0,400.0,59.0,402.5,61.0,399.0,65.0,395.0,69.5,391.0,74.0,387.5,76.5,383.5,76.5,383.0,72.5,388.5,69.0,391.5,65.0,395.5,61.5,399.0,58.0,403.5,64.5,399.5,69.5,396.0,74.0,392.0,77.0,388.0,80.0,383.5,83.0,379.5,83.0,375.5,84.0,370.0,86.5,366.0,87.5,362.5,89.0,358.5,87.0,357.5,91.0,356.5,94.0,352.5,95.5,348.5,98.5,348.5,94.5,343.0,92.5,348.5,94.0,344.0,95.5,339.5,96.5,335.0,96.5,331.0,96.5,327.0,96.5,323.0,97.0,319.0,98.0,315.0,97.5,311.5,102.0,307.5,105.0,303.5,108.0,302.5,105.5,303.5,101.5,309.0,97.5,313.0" stroke="black" stroke-width="2" fill="none" />
<polyline points="89.5,308.0,83.5,311.5,87.5,309.0,91.5,307.0,96.0,305.5,100.0,303.5,104.0,300.0" stroke="black" stroke-width="2" fill="none" />
<polyline points="108.5,300.0,106.5,304.5,102.5,308.5,100.5,312.5,98.5,317.0,97.5,319.5,102.0,311.0,106.5,306.0" stroke="black" stroke-width="2" fill="none" />
<polyline points="115.0,309.0,110.5,314.0,106.5,318.0,103.0,323.5,103.5,319.5,108.0,315.5,109.5,312.5,108.5,314.5,104.0,318.0,106.0,321.0,110.0,317.0,114.5,313.0,117.0,309.0,117.5,308.0,113.5,315.5,110.0,318.0,106.5,322.0" stroke="black" stroke-width="2" fill="none" />
<polyline points="99.0,322.5,103.0,314.5,107.0,309.0,110.5,305.0,114.5,301.0,118.5,297.0" stroke="black" stroke-width="2" fill="none" />
<polyline points="120.5,303.0,117.0,304.0,115.5,308.0,112.5,312.0,108.5,316.0,105.5,320.0,101.5,326.5" stroke="black" stroke-width="2" fill="none" />
<polyline points="92.5,329.0,88.5,331.0,84.5,336.5,80.5,342.0,76.0,347.5,72.0,352.0,68.0,357.0,64.0,361.5,68.5,360.5,72.0,356.0,75.0,352.0,78.5,348.0,81.5,344.5,84.5,340.5,88.5,336.5,88.0,332.5,88.0,328.5,88.5,324.0,90.0,320.0,91.5,315.5,91.5,311.0,91.5,307.0,99.5,303.5,104.0,300.0,107.5,296.0,109.0,292.0,113.5,288.0,117.0,284.0,115.5,278.0,114.5,274.0,113.5,273.0" stroke="black" stroke-width="2" fill="none" />
<polyline points="112.5,271.5,116.5,272.0,112.5,273.5,114.0,277.0,111.0,278.5,113.0,284.5,108.5,288.5,115.5,285.5,115.5,283.5" stroke="black" stroke-width="2" fill="none" />
<polyline points="118.5,282.5,114.0,279.5,111.5,278.0,107.5,276.0,103.5,275.5,100.0,280.0,95.5,283.0,99.0,281.0,102.5,277.0,109.5,275.0,108.5,271.0,108.0,266.5,110.5,262.5,112.0,260.0,107.5,265.0" stroke="black" stroke-width="2" fill="none" />
<polyline points="115.0,266.0,118.0,261.0,116.0,265.0,118.5,269.0,127.0,274.5,130.5,277.5,134.5,276.5,138.5,272.5,142.5,267.5,146.5,264.0,150.5,260.0,154.0,262.0,157.5,259.0,164.0,252.0" stroke="black" stroke-width="2" fill="none" />
<polyline points="167.0,256.5,171.0,252.5,175.0,246.0" stroke="black" stroke-width="2" fill="none" />
<polyline points="174.0,253.0,175.0,257.0,175.0,260.5,175.0,264.0" stroke="black" stroke-width="2" fill="none" />
<polyline points="179.0,261.5,175.0,255.0" stroke="black" stroke-width="2" fill="none" />
<polyline points="178.0,257.0,181.5,264.0" stroke="black" stroke-width="2" fill="none" />
<polyline points="180.5,263.5,178.0,259.5" stroke="black" stroke-width="2" fill="none" />
<polyline points="176.0,258.5,176.0,262.5" stroke="black" stroke-width="2" fill="none" />
<polyline points="171.5,257.5,175.0,252.0,172.5,256.0,171.0,260.0,170.0,264.0,168.5,268.0,168.0,271.5,168.5,275.0,166.0,278.5,168.0,279.5" stroke="black" stroke-width="2" fill="none" />
<polyline points="167.0,277.0,167.5,276.0,167.0,272.0,167.5,267.5,165.0,262.5,166.5,259.0,165.0,264.5" stroke="black" stroke-width="2" fill="none" />
<polyline points="164.0,259.5,165.5,261.0,163.5,264.5,162.0,268.5,161.5,272.0,160.0,276.0,161.0,280.0,159.5,285.0" stroke="black" stroke-width="2" fill="none" />
<polyline points="160.5,284.0,156.5,280.5" stroke="black" stroke-width="2" fill="none" />
<polyline points="153.5,282.5,157.0,288.0,160.5,291.0" stroke="black" stroke-width="2" fill="none" />
<polyline points="155.5,296.0,159.5,299.0" stroke="black" stroke-width="2" fill="none" />
<polyline points="159.5,293.0,156.0,290.5,152.0,289.0" stroke="black" stroke-width="2" fill="none" />
<polyline points="151.0,291.5,155.0,294.0,159.5,295.0,163.0,295.0,167.0,293.0,170.5,289.5,170.5,287.0" stroke="black" stroke-width="2" fill="none" />
<polyline points="173.5,292.0,179.5,292.5,177.5,297.0,175.0,301.0,174.0,305.0,171.5,309.0,167.5,308.0" stroke="black" stroke-width="2" fill="none" />
<polyline points="172.0,311.5,170.5,315.5,166.5,317.0,170.0,313.5,173.5,314.5" stroke="black" stroke-width="2" fill="none" />
<polyline points="171.5,319.5,167.5,320.5,163.5,319.0" stroke="black" stroke-width="2" fill="none" />
<polyline points="161.5,316.0,160.0,312.0,158.5,311.5" stroke="black" stroke-width="2" fill="none" />
<polyline points="159.0,312.5,163.0,314.5" stroke="black" stroke-width="2" fill="none" />
<polyline points="156.0,312.5,155.5,313.5,156.0,317.5" stroke="black" stroke-width="2" fill="none" />
<polyline points="167.5,321.5,165.5,325.5,163.0,329.5,161.0,333.5,160.5,335.5,164.5,330.5" stroke="black" stroke-width="2" fill="none" />
<polyline points="164.0,331.5,166.5,332.5,165.0,336.5,164.0,340.0,169.5,336.0,173.5,333.5,177.5,331.5,181.0,331.0,178.0,335.0,176.0,339.0,173.0,343.0,170.0,347.0,167.0,351.5,164.5,355.5,161.5,359.5,160.0,364.0,159.0,367.5,163.0,368.0,167.0,362.0,164.5,365.5" stroke="black" stroke-width="2" fill="none" />
<polyline points="163.0,365.0,167.5,361.0,171.5,358.0,175.5,353.5,179.5,347.5,183.0,342.0,186.5,335.5" stroke="black" stroke-width="2" fill="none" />
<polyline points="191.0,331.5,187.0,331.0,182.0,332.5,177.5,339.0,173.0,345.0,169.0,349.5,165.5,356.0,161.5,361.5,160.0,370.0,162.5,367.0,166.0,362.0,171.0,358.0,174.5,354.0,178.0,349.5,180.5,345.5,183.5,341.5,185.5,337.5,185.0,334.0,187.5,334.0,190.0,330.0" stroke="black" stroke-width="2" fill="none" />
<polyline points="191.0,344.5,191.0,345.5,192.0,349.5,193.0,353.5" stroke="black" stroke-width="2" fill="none" />
<polyline points="195.0,353.5,194.0,349.0,193.0,345.0" stroke="black" stroke-width="2" fill="none" />
<polyline points="165.0,345.0,165.0,340.0,168.5,338.0,173.0,334.5,179.5,330.0,182.5,326.5,184.0,322.5,186.5,319.0,192.5,317.5,194.0,313.0,196.5,309.0,199.0,305.0,201.0,300.5,203.0,296.5,205.0,292.5,207.0,289.0,209.0,285.0,210.5,281.0,213.0,277.0,215.5,273.0,218.5,269.0,220.5,265.0,223.5,260.5,225.5,256.5,228.5,253.0,231.0,249.0,234.0,245.0,236.0,238.5,239.0,234.5,242.0,230.0,245.5,226.0,248.5,221.5,252.0,217.5,252.0,213.5,254.0,210.5,255.0,206.5,256.5,203.0,252.0,211.5,249.0,210.0,245.0,210.0,241.5,209.0,238.5,206.0,240.0,202.0,241.0,198.0,242.5,195.0,244.5,191.0,250.0,187.5,249.5,185.0,257.5,181.0,251.0,175.5,252.5,174.0,247.0,173.5,246.0,172.5,242.0,174.5" stroke="black" stroke-width="2" fill="none" />
<polyline points="249.0,174.0,253.0,177.5,257.0,178.5" stroke="black" stroke-width="2" fill="none" />
<polyline points="261.0,181.0,257.0,181.5,253.0,184.0,249.0,186.5,249.0,188.5,245.0,193.0,242.5,194.0,242.0,200.0,243.5,198.5,246.0,194.5,251.0,190.0,255.5,187.0,260.5,182.5,266.0,178.5" stroke="black" stroke-width="2" fill="none" />
<polyline points="268.0,180.5,264.0,185.0,258.5,189.0,254.5,191.5,254.0,195.5,249.5,199.5,247.5,203.5,247.0,204.0,251.0,204.5,251.5,201.0,255.5,197.0,259.5,193.0,263.5,189.5,267.0,187.0,271.0,188.5" stroke="black" stroke-width="2" fill="none" />
<polyline points="267.0,189.5,262.5,191.0,258.5,194.5,256.0,201.5,259.5,197.0,263.5,193.0,266.5,189.0" stroke="black" stroke-width="2" fill="none" />
<polyline points="264.5,189.0,260.0,193.0,257.0,197.0,253.0,200.5,252.5,205.0,252.0,209.5,254.0,214.5,254.5,217.0" stroke="black" stroke-width="2" fill="none" />
<polyline points="264.5,199.0,263.5,203.0,261.5,207.0,260.0,211.0,260.5,214.5,259.0,219.5,255.0,223.5,251.0,227.5,247.5,231.5,244.0,235.5,240.5,239.5,237.0,243.5,234.5,247.0,231.0,251.5,228.0,255.5,226.0,259.5,223.0,263.5,221.0,267.5,219.0,271.5,215.5,275.5,213.5,279.5,211.5,283.5,210.5,287.5,208.5,292.0,207.0,296.5,204.5,300.5,203.0,304.5,200.5,308.0,199.0,312.0,197.5,315.5,200.0,319.5,199.5,312.0,203.5,302.0,207.5,294.0,211.0,285.5,215.5,277.5,219.5,270.0,223.5,263.5,227.0,257.0,231.0,252.0,235.0,247.0,239.0,242.0,243.0,237.5,247.5,232.0,251.5,227.5,256.0,223.5,259.5,220.0,263.5,215.5,264.0,211.5,268.5,204.5,272.5,202.0,276.5,199.0,280.0,195.5,284.0,192.0,288.0,189.0,292.0,185.5,296.5,182.0,300.5,178.5,305.0,176.0,308.5,173.5" stroke="black" stroke-width="2" fill="none" />
<polyline points="312.5,173.5,306.0,177.0,300.5,181.0,295.5,185.0,290.5,189.0,285.5,193.5,281.0,197.0,275.5,201.0,270.5,204.5,267.5,209.0,270.5,208.5,267.5,213.0,265.5,218.5,265.0,222.5,264.5,224.0,263.5,227.5,264.0,232.0,263.0,236.0,263.0,240.0" stroke="black" stroke-width="2" fill="none" />
<polyline points="289.5,250.0,296.0,254.0" stroke="black" stroke-width="2" fill="none" />
<polyline points="322.0,268.5,321.0,272.0,322.5,276.5,329.5,278.5,333.0,279.5,337.0,279.0,341.5,277.5,348.0,279.0" stroke="black" stroke-width="2" fill="none" />
<polyline points="343.0,282.0,343.0,282.0,340.5,281.5,341.0,275.0,342.0,271.0,340.0,265.0,336.0,263.5" stroke="black" stroke-width="2" fill="none" />
<polyline points="335.0,266.0,338.0,265.5,338.0,269.5,335.5,274.0,334.0,272.0" stroke="black" stroke-width="2" fill="none" />
<polyline points="338.0,276.0,338.0,280.0" stroke="black" stroke-width="2" fill="none" />
<polyline points="337.0,279.0,340.5,280.5,344.5,279.0,348.0,278.5,348.5,282.5,349.5,286.5,349.0,291.0,349.5,295.5,349.0,300.0,348.0,304.0,348.0,308.5,344.0,312.5,346.0,314.5,344.5,318.5,342.5,322.0,340.5,326.0,339.0,330.0,336.5,334.0,335.0,337.5,333.0,341.5,331.5,345.5,329.5,349.5,327.0,353.0,325.0,357.5,322.0,361.5,319.0,365.5,317.0,370.0,315.0,373.5,313.0,377.5,311.5,381.0,312.0,385.0,310.0,389.0,316.0,393.0,325.0,397.0,334.0,401.5,340.5,406.0,345.5,409.5,349.5,413.0,353.0,417.0,356.0,420.5,359.0,424.0,360.5,428.5,362.0,432.5,363.5,437.0,364.5,441.0,365.5,445.0,367.0,449.0,368.0,453.0,369.0,456.5,370.0,460.5,371.5,464.5,372.5,468.5,374.0,472.5,375.0,476.5,376.5,480.0,377.5,484.5,378.5,488.5,379.5,492.5,380.0,496.5,381.0,500.5,382.0,504.5,383.0,508.5,384.0,512.5" stroke="black" stroke-width="2" fill="none" />
<polyline points="421.0,490.0,425.0,495.0,429.0,493.5,433.0,490.5,437.0,487.5,441.0,483.5,445.0,480.0,449.0,475.0,452.5,470.0,456.5,466.5" stroke="black" stroke-width="2" fill="none" />
<polyline points="459.0,466.0,453.5,470.0,451.0,468.0,455.0,461.5" stroke="black" stroke-width="2" fill="none" />
<polyline points="456.5,450.5,460.5,441.5" stroke="black" stroke-width="2" fill="none" />
<polyline points="465.5,431.0,469.5,424.0,473.5,417.5,477.0,409.0,481.0,406.0,485.0,402.0,489.0,399.5,492.5,395.5,493.5,392.0,497.5,389.5,501.5,388.0,506.0,386.5,510.0,385.0" stroke="black" stroke-width="2" fill="none" />
<polyline points="514.0,382.0,503.5,386.0,494.5,389.5,492.5,394.0,487.0,398.5,483.0,402.5,478.0,406.5,476.0,410.0,475.0,414.0,473.0,418.0,471.0,422.5,469.0,426.5,467.5,429.5,464.0,434.0,462.0,438.0,459.5,442.0,458.0,446.0,456.0,450.5,455.0,454.5,454.0,458.5,453.0,462.5,451.0,466.5,448.5,470.5,449.0,475.0,446.0,479.0,441.5,483.5,437.5,488.0,432.5,492.0" stroke="black" stroke-width="2" fill="none" />
<polyline points="430.0,480.5,429.5,478.0,430.5,475.0,433.0,478.0,434.5,474.5,435.0,470.5,436.5,467.0,437.5,462.5,439.0,458.5,438.0,457.5,433.5,455.0,429.5,451.5" stroke="black" stroke-width="2" fill="none" />
<polyline points="438.0,457.0,434.0,455.0,430.0,451.0,429.5,447.0,430.0,443.0,431.0,439.5,432.0,435.5,434.0,432.0,432.0,435.0" stroke="black" stroke-width="2" fill="none" />
<polyline points="430.0,466.5,427.5,470.5,423.0,475.0,422.0,479.0,422.5,483.0,422.5,487.5,423.5,491.5" stroke="black" stroke-width="2" fill="none" />
<polyline points="416.0,469.0,418.0,473.0,421.5,477.5,425.5,473.5,430.0,468.5" stroke="black" stroke-width="2" fill="none" />
<polyline points="373.5,463.0,371.5,460.5,370.5,456.0,370.5,452.0,370.5,448.5,371.0,444.5,371.5,441.0,372.5,437.0,373.0,433.0,373.5,429.0,374.0,425.0,374.0,420.5,375.0,416.5,375.0,412.5,375.5,408.5,376.0,404.5,376.5,400.5,377.0,397.0,377.0,393.5,377.5,389.0,377.5,384.5,378.0,380.5,377.5,376.5,377.5,373.0,377.0,368.5,377.0,364.5,378.0,360.5,378.0,356.5,377.0,353.0,376.5,348.5,375.5,344.5,375.0,340.5,374.5,336.5,374.0,332.5,373.5,328.5,372.5,324.5,372.5,320.5,372.5,316.5,372.0,312.5,371.5,308.5,371.0,304.5,370.5,300.0,370.0,296.0,369.5,292.0,369.5,288.0,369.0,284.0,369.0,280.0,368.5,276.0,369.0,272.0,368.5,268.5,368.0,264.5,367.5,260.0,367.5,256.0,367.0,251.5,367.0,248.0,366.5,243.5,366.5,239.5,365.5,235.5,364.5,231.5,363.5,227.5,362.0,224.0,361.0,220.5,359.5,217.0,357.5,213.0,355.5,209.5,354.5,206.5,351.0,202.5,349.5,199.0,348.5,197.0" stroke="black" stroke-width="2" fill="none" />
<polyline points="345.5,197.5,344.0,201.5,348.0,206.0" stroke="black" stroke-width="2" fill="none" />
<polyline points="348.5,203.0,344.5,198.0" stroke="black" stroke-width="2" fill="none" />
<polyline points="344.5,198.0,347.5,202.0" stroke="black" stroke-width="2" fill="none" />
<polyline points="350.5,200.5,354.5,206.5,358.0,214.0" stroke="black" stroke-width="2" fill="none" />
<polyline points="370.0,220.5,372.5,214.0,371.5,217.5,370.0,221.5,369.5,225.0,369.0,229.5,369.5,232.5,370.5,237.0,371.5,241.5,373.0,245.5,374.5,250.0,375.0,254.0,376.5,258.0,375.5,261.5,377.0,265.0,378.5,269.0" stroke="black" stroke-width="2" fill="none" />
<polyline points="383.0,266.0,381.5,269.5,382.0,273.5,380.0,277.0,378.0,281.5,378.5,285.5,378.5,289.5" stroke="black" stroke-width="2" fill="none" />
<polyline points="380.0,291.5,379.0,287.5,378.5,283.5,379.0,279.0,378.0,275.5" stroke="black" stroke-width="2" fill="none" />
<polyline points="374.5,277.0,374.5,281.0,376.5,284.5,376.5,289.0,377.0,293.0,378.5,297.0,379.0,301.0,380.0,305.5,380.5,309.5,381.0,313.0,382.0,317.5,383.0,321.5,383.0,325.5,382.5,329.5,381.5,333.0,381.5,337.0,382.0,340.5,382.5,344.5,382.5,348.5,383.0,352.5" stroke="black" stroke-width="2" fill="none" />
<polyline points="367.5,352.5,368.0,357.0,369.0,361.0,369.0,365.0,369.5,368.5,370.0,372.0" stroke="black" stroke-width="2" fill="none" />
<polyline points="371.0,377.0,372.0,381.0,372.0,384.5" stroke="black" stroke-width="2" fill="none" />
<polyline points="381.5,386.0,381.0,390.0,380.5,394.5,380.0,398.5,379.0,402.0" stroke="black" stroke-width="2" fill="none" />
<polyline points="362.5,433.5,359.0,424.5,354.5,418.5,350.5,414.0,346.5,409.5,342.5,406.0,338.5,403.0,334.5,400.5,330.0,399.0,325.5,397.0,321.5,394.5,317.5,393.0,314.0,392.0,310.5,390.5,308.0,390.5,304.0,390.5,300.5,389.5" stroke="black" stroke-width="2" fill="none" />
<polyline points="313.0,382.0,317.5,372.0,321.5,365.5,325.5,359.5,329.0,352.5,332.5,344.0,336.5,335.5,340.0,326.5,343.5,318.0" stroke="black" stroke-width="2" fill="none" />
<polyline points="357.0,330.0,357.0,334.0,355.5,338.0,354.5,342.0,354.5,340.0" stroke="black" stroke-width="2" fill="none" />
<polyline points="354.0,351.5,354.5,355.5,354.5,360.0,353.5,364.0,353.5,368.0,353.0,372.0,352.5,376.0,352.5,380.5,352.5,386.5,352.5,391.0,353.0,395.0,353.5,399.0,353.5,403.0,351.5,405.0,352.5,409.0,352.0,412.5" stroke="black" stroke-width="2" fill="none" />
<polyline points="361.0,385.0,361.0,381.5,361.0,377.5,362.0,372.5,361.5,368.5,361.5,364.5" stroke="black" stroke-width="2" fill="none" />
<polyline points="358.0,362.0,359.0,366.0,359.0,370.0,358.5,373.5,358.5,377.0,358.5,381.5" stroke="black" stroke-width="2" fill="none" />
<polyline points="355.0,355.0,355.0,359.0,355.0,363.0,354.0,367.0,354.5,371.0,354.0,375.5,354.0,379.5,354.0,383.0,354.0,387.0,354.0,391.5,354.5,395.5,354.5,399.5,355.5,403.0,355.5,407.0,356.0,411.0,354.5,412.5" stroke="black" stroke-width="2" fill="none" />
<polyline points="372.0,385.0,372.0,381.0,372.0,376.5,372.0,372.5,368.5,367.5,368.5,364.0,368.0,360.0,366.0,356.5,365.5,353.0" stroke="black" stroke-width="2" fill="none" />
<polyline points="384.0,350.5,384.0,346.5,384.5,342.0,385.0,337.5,384.0,334.0,383.5,330.0" stroke="black" stroke-width="2" fill="none" />
<polyline points="382.0,359.0,381.5,355.0,380.5,351.0,380.0,347.5,379.0,343.5,377.5,340.0,377.5,336.5,377.0,332.0,377.0,327.5,377.5,323.0,376.0,316.0,375.5,312.0,375.0,308.0,374.5,303.5,374.0,299.5,373.5,296.0,374.0,292.0" stroke="black" stroke-width="2" fill="none" />
<polyline points="399.5,287.5,401.5,280.5,403.0,276.5" stroke="black" stroke-width="2" fill="none" />
<polyline points="411.5,244.5,415.0,236.5,417.0,230.0" stroke="black" stroke-width="2" fill="none" />
<polyline points="423.0,218.5,426.5,214.5,427.5,209.5,429.0,202.5,432.5,194.5" stroke="black" stroke-width="2" fill="none" />
<polyline points="437.0,184.0,439.0,180.0" stroke="black" stroke-width="2" fill="none" />
<polyline points="443.0,174.5,446.5,166.5,449.5,161.5,453.5,154.5" stroke="black" stroke-width="2" fill="none" />
<polyline points="462.0,142.0,466.0,135.5,469.5,129.0,473.5,122.5,477.5,116.5,481.5,111.5,485.5,106.5,489.5,102.0,493.5,96.0,497.0,94.0,499.0,90.0,503.5,85.5,508.0,81.5,512.5,76.5" stroke="black" stroke-width="2" fill="none" />
<polyline points="513.0,75.0,510.0,79.0,506.5,83.5,503.0,87.5,498.5,91.5,494.0,97.0,490.5,101.0,486.5,104.5,482.5,108.0,480.0,112.0,477.0,116.0,474.5,120.0,472.0,124.0,469.0,128.0,467.5,132.0,464.5,136.0,462.5,139.5,460.5,143.0,456.5,148.0,455.0,151.5,452.5,155.5,450.0,159.5,448.0,164.5,445.5,168.5,443.5,172.5,442.5,177.0,439.0,181.5,437.0,185.5,435.5,189.5,433.5,193.5,431.5,198.0,429.5,201.5,429.0,205.5,427.5,209.5,426.0,214.0,422.0,218.5,421.5,222.0,419.5,226.0,418.0,230.0,416.5,234.5,415.0,238.0,413.0,242.5,411.5,246.5,412.5,249.0,409.5,253.5,408.0,257.5,407.5,262.0,405.5,266.5,404.5,271.0,402.5,275.0,400.5,278.5,399.5,283.0,399.5,287.0,398.5,291.0,397.0,294.5,396.5,298.0,395.5,302.0,395.0,305.5,393.5,309.5,392.5,313.5,392.0,317.5,391.5,321.5,390.0,325.5,389.0,329.5,388.0,333.5,387.5,337.5,388.0,341.5" stroke="black" stroke-width="2" fill="none" />
<polyline points="321.5,349.0,320.0,345.5,319.5,344.0" stroke="black" stroke-width="2" fill="none" />
<polyline points="320.5,348.5,316.5,351.5,312.5,351.5,308.5,353.0" stroke="black" stroke-width="2" fill="none" />
<polyline points="311.0,355.0,307.0,355.5,303.5,355.5,299.5,356.0,295.5,355.5" stroke="black" stroke-width="2" fill="none" />
<polyline points="294.5,358.5,299.0,360.0,302.5,359.0,306.5,360.0,310.0,358.5,310.0,358.5,308.0,362.5" stroke="black" stroke-width="2" fill="none" />
<polyline points="315.0,346.5,311.0,348.0,306.5,348.0,302.5,347.5,299.0,348.0,294.5,349.0" stroke="black" stroke-width="2" fill="none" />
<polyline points="304.5,335.5,303.0,331.0,313.5,328.5,313.0,328.5,309.0,330.0,305.5,331.5" stroke="black" stroke-width="2" fill="none" />
<polyline points="307.5,329.5,303.5,328.5,299.5,328.0,296.0,327.0" stroke="black" stroke-width="2" fill="none" />
<polyline points="295.5,325.5,300.0,323.5,304.0,324.0,308.0,325.5" stroke="black" stroke-width="2" fill="none" />
<polyline points="319.5,326.0,320.5,323.0,322.5,319.0,322.0,315.0,321.5,311.0,321.5,307.0,321.0,303.0" stroke="black" stroke-width="2" fill="none" />
<polyline points="325.5,275.5,321.5,274.5" stroke="black" stroke-width="2" fill="none" />
<polyline points="319.5,273.0,323.5,266.0,327.0,262.5,331.0,261.0,335.0,259.5,338.5,258.5,342.5,257.0,346.0,256.5,348.0,252.5,352.0,252.0" stroke="black" stroke-width="2" fill="none" />
<polyline points="349.5,255.5,345.5,258.0" stroke="black" stroke-width="2" fill="none" />
<polyline points="344.5,254.5,340.5,254.5,336.5,255.5,332.0,256.0" stroke="black" stroke-width="2" fill="none" />
<polyline points="335.0,253.5,328.5,258.0,326.0,263.0,321.5,266.5,319.0,270.5,318.0,274.0,317.0,276.0,321.0,278.5" stroke="black" stroke-width="2" fill="none" />
<polyline points="326.0,274.5,323.5,270.5" stroke="black" stroke-width="2" fill="none" />
<polyline points="323.0,268.0,327.0,273.5,331.0,274.0,335.0,272.5,334.0,270.5" stroke="black" stroke-width="2" fill="none" />
<polyline points="328.0,272.5,326.0,271.0,329.0,270.0,335.0,269.0,331.5,269.5,327.5,268.0" stroke="black" stroke-width="2" fill="none" />
<polyline points="327.5,257.5,331.5,254.5,335.0,253.0,339.0,252.0,342.5,251.5,347.5,248.5,351.0,245.5" stroke="black" stroke-width="2" fill="none" />
<polyline points="354.0,242.5,350.5,246.5,345.5,251.0,342.0,254.5" stroke="black" stroke-width="2" fill="none" />
<polyline points="347.5,239.5,347.0,235.5,345.5,231.5,344.5,227.5,344.0,223.5,342.5,219.0,342.0,215.0,341.0,211.0,337.0,204.0" stroke="black" stroke-width="2" fill="none" />
<polyline points="339.0,202.5,341.5,206.5,347.0,210.5,350.5,214.5,353.5,218.5,355.5,222.5,357.5,227.5,359.5,231.0,360.5,234.5,362.0,238.5,362.5,242.5,363.0,247.0" stroke="black" stroke-width="2" fill="none" />
<polyline points="365.5,245.5,366.0,249.5" stroke="black" stroke-width="2" fill="none" />
<polyline points="371.0,247.5,370.5,251.5,371.0,255.5,373.0,259.5,373.5,263.5,374.0,267.5,373.0,271.5,375.0,273.0,373.5,276.0,373.0,280.0,373.5,284.5" stroke="black" stroke-width="2" fill="none" />
<polyline points="366.0,264.5,366.0,268.5,365.5,272.5,364.5,276.5,364.5,280.0,364.5,284.0,364.5,287.5,364.0,291.5,363.5,295.0,363.0,299.0,363.5,302.5,363.5,307.0,364.0,311.0" stroke="black" stroke-width="2" fill="none" />
<polyline points="360.5,281.5,361.0,280.0,362.5,276.5,363.0,272.5,363.5,268.5,364.0,264.5" stroke="black" stroke-width="2" fill="none" />
<polyline points="370.5,244.5,372.0,240.0,372.0,236.0,371.5,232.0" stroke="black" stroke-width="2" fill="none" />
<polyline points="361.0,203.0,357.5,195.5" stroke="black" stroke-width="2" fill="none" />
<polyline points="355.5,190.5,356.0,194.5,358.0,198.5,360.5,203.0,361.5,207.5" stroke="black" stroke-width="2" fill="none" />
<polyline points="356.5,205.0,352.5,199.0" stroke="black" stroke-width="2" fill="none" />
<polyline points="350.5,200.0,353.5,203.5,355.5,207.5" stroke="black" stroke-width="2" fill="none" />
<polyline points="347.5,206.5,343.5,201.5" stroke="black" stroke-width="2" fill="none" />
<polyline points="343.0,204.5,348.0,209.0,351.0,213.5" stroke="black" stroke-width="2" fill="none" />
<polyline points="345.5,210.5,341.5,208.0" stroke="black" stroke-width="2" fill="none" />
<polyline points="342.0,205.0,346.0,208.0,349.5,212.0,353.0,216.5,357.0,224.5" stroke="black" stroke-width="2" fill="none" />
<polyline points="353.5,208.5,352.5,211.0,348.5,208.5,344.5,205.5,340.5,202.5" stroke="black" stroke-width="2" fill="none" />
<polyline points="334.5,203.5,338.5,200.5,342.5,197.5,347.0,195.5,351.0,193.5,354.5,191.5,358.5,189.5,363.0,187.5,367.0,185.5,371.5,184.0,375.5,183.0,379.5,181.5,383.0,180.5,387.0,177.5,391.0,174.5,395.0,172.5,399.0,170.5,403.0,168.5,407.0,167.5,403.0,171.0,400.5,175.5,398.0,179.5,394.0,183.5,388.5,187.5,383.0,190.0,387.0,188.0,391.5,185.5,395.5,182.5,399.0,179.5,403.0,175.0" stroke="black" stroke-width="2" fill="none" />
<polyline points="402.0,165.0,404.5,158.5,403.5,162.5,404.0,167.0,397.5,171.0,390.0,175.0,383.0,178.5" stroke="black" stroke-width="2" fill="none" />
<polyline points="375.0,182.0,365.0,186.0,358.0,190.0,351.0,194.0,343.0,198.0,337.0,202.5,337.0,206.0,342.0,209.0,346.5,213.0,352.0,213.0" stroke="black" stroke-width="2" fill="none" />
<polyline points="341.0,216.5,337.0,209.0" stroke="black" stroke-width="2" fill="none" />
<polyline points="359.5,190.0,362.5,194.0" stroke="black" stroke-width="2" fill="none" />
<polyline points="360.5,189.5,365.0,194.5,369.0,194.0,373.5,193.0,377.5,191.0" stroke="black" stroke-width="2" fill="none" />
<polyline points="396.0,155.0,392.0,161.0,387.5,168.0,384.0,175.0,382.0,178.0,384.5,174.0,387.0,170.0,389.0,166.5,391.5,162.5,394.0,158.5,396.5,154.5" stroke="black" stroke-width="2" fill="none" />
<polyline points="404.5,158.0,400.5,162.0,396.5,166.0,392.0,169.5,388.0,173.0,387.0,174.0,392.0,170.5,396.5,166.5,400.5,162.5,404.5,158.5" stroke="black" stroke-width="2" fill="none" />
<polyline points="397.5,122.0,392.5,126.0,387.5,129.5,381.5,133.0,383.5,131.0,388.0,128.0,391.5,125.0,395.5,122.0" stroke="black" stroke-width="2" fill="none" />
<polyline points="396.0,120.0,391.0,124.0,385.5,128.0,381.0,132.0,384.0,129.0,388.0,126.0,392.0,123.0,396.0,120.0" stroke="black" stroke-width="2" fill="none" />
<polyline points="412.5,114.0,417.0,118.0,418.5,122.0,419.0,126.0,419.5,129.5,419.5,133.5,419.5,137.0,419.0,140.5,419.0,144.5,418.0,148.5,417.5,152.5,415.5,156.5,414.0,160.5,413.0,164.5,411.5,168.5,410.0,172.5,408.0,176.0,405.0,180.5,401.0,184.5,396.0,189.0,392.5,193.0,388.5,197.0,385.0,201.5,379.5,205.5,373.5,209.0,367.5,213.5,370.0,211.5,374.5,209.5,378.5,207.0,383.0,204.0,387.0,200.5,391.0,196.5,395.0,192.5,398.5,188.0,402.5,185.0,406.5,179.0,410.5,169.5,414.5,157.5" stroke="black" stroke-width="2" fill="none" />
<polyline points="368.5,133.0,369.0,131.0,369.0,127.0" stroke="black" stroke-width="2" fill="none" />
<polyline points="388.0,109.5,384.0,106.0,381.5,102.0,378.0,98.0" stroke="black" stroke-width="2" fill="none" />
<polyline points="336.0,154.5,331.5,157.0,327.5,159.5,323.5,162.5,320.0,164.5,316.5,167.0,312.5,169.5,308.5,171.5,304.5,174.0,300.5,176.5,296.5,179.5,292.5,182.5,287.5,186.0,283.5,190.0,280.0,193.5,276.0,196.5,272.0,200.5,271.5,198.0,274.0,194.5,272.5,199.5,276.5,195.5,281.5,191.5,286.0,187.5,290.0,184.0,294.5,180.0,293.0,176.0,284.5,174.5,282.0,174.5,278.0,177.0,274.5,175.0,270.5,175.5,266.5,174.0" stroke="black" stroke-width="2" fill="none" />
<polyline points="269.5,180.5,265.5,182.0,261.5,184.5,257.0,187.5,256.5,184.0,252.5,188.5,249.0,190.0,244.5,194.5,248.0,193.5,250.5,189.5,255.5,190.0,251.5,191.5,247.5,194.0,243.0,199.5" stroke="black" stroke-width="2" fill="none" />
<polyline points="239.0,195.5,243.0,191.0" stroke="black" stroke-width="2" fill="none" />
<polyline points="231.5,192.5,227.5,193.5,223.5,195.5,219.0,198.0,215.5,202.5,211.0,204.5,207.5,210.5,207.0,210.5,208.5,206.5,213.0,202.5,218.5,196.5,225.5,192.5" stroke="black" stroke-width="2" fill="none" />
<polyline points="219.0,189.5,222.5,184.5,226.0,184.5" stroke="black" stroke-width="2" fill="none" />
<polyline points="227.5,184.0,223.5,184.5,220.5,188.5,220.0,193.0,212.0,197.0,216.0,195.5" stroke="black" stroke-width="2" fill="none" />
<polyline points="217.5,187.0,222.0,182.5" stroke="black" stroke-width="2" fill="none" />
<polyline points="224.5,179.0,220.0,183.0,216.5,187.0,214.0,191.0,209.5,195.0,206.0,199.5" stroke="black" stroke-width="2" fill="none" />
<polyline points="205.5,192.5,210.0,187.5,214.0,183.5,218.0,180.0,222.0,176.0,226.0,175.5,230.5,175.5" stroke="black" stroke-width="2" fill="none" />
<polyline points="235.0,178.0,237.0,177.5,239.0,173.0,235.5,174.5,232.0,173.5,228.0,173.0,224.5,172.5,220.0,173.5,216.0,176.5,212.0,181.0,208.5,185.5,204.5,190.0" stroke="black" stroke-width="2" fill="none" />
<polyline points="199.0,204.0,195.0,204.0" stroke="black" stroke-width="2" fill="none" />
<polyline points="200.0,202.5,196.0,200.0,192.0,199.0" stroke="black" stroke-width="2" fill="none" />
<polyline points="190.0,200.0,188.0,200.5,184.0,204.5,182.0,208.0,182.5,206.5,186.0,201.5,190.0,198.5,192.5,198.0,196.0,198.5,200.0,200.0,204.0,201.0" stroke="black" stroke-width="2" fill="none" />
<polyline points="203.0,209.5,207.0,205.5,211.0,203.0,213.5,199.0,217.5,196.0,222.0,193.5,226.0,191.0" stroke="black" stroke-width="2" fill="none" />
<polyline points="234.5,182.5,230.5,186.5,230.5,188.0,223.5,193.0,217.5,196.5,211.0,202.5,206.5,206.5,203.0,212.0,204.0,216.0,205.5,216.0,206.5,221.5,209.5,225.0" stroke="black" stroke-width="2" fill="none" />
<polyline points="214.5,222.5,210.5,216.5" stroke="black" stroke-width="2" fill="none" />
<polyline points="211.5,215.0,214.0,219.0,216.0,226.0,219.5,230.0,218.0,234.5" stroke="black" stroke-width="2" fill="none" />
<polyline points="209.0,227.0,204.5,221.5" stroke="black" stroke-width="2" fill="none" />
<polyline points="218.5,215.5,218.5,219.5,218.5,223.5,216.5,226.0,220.0,231.0,224.5,230.5,230.0,235.0" stroke="black" stroke-width="2" fill="none" />
<polyline points="235.0,209.0,235.0,205.0,237.0,201.0,234.0,202.5" stroke="black" stroke-width="2" fill="none" />
<polyline points="236.0,202.0,236.0,206.0" stroke="black" stroke-width="2" fill="none" />
<polyline points="236.0,182.0,232.0,182.5,231.0,186.5,227.5,188.0,223.0,189.0,219.0,192.0,214.0,191.5,210.0,193.5,205.5,195.5,205.0,194.0,205.5,190.5,209.0,186.5,213.0,183.0,216.5,180.0,221.5,176.0" stroke="black" stroke-width="2" fill="none" />
<polyline points="221.5,172.5,216.0,176.5,213.0,180.5,209.5,184.5,206.0,188.5,205.0,192.5,205.5,196.0" stroke="black" stroke-width="2" fill="none" />
<polyline points="200.5,204.0,193.5,205.0,189.0,206.0,185.5,207.0" stroke="black" stroke-width="2" fill="none" />
<polyline points="182.0,210.0,186.0,211.5,190.0,213.5,189.5,217.0,187.0,218.0,185.0,220.0,187.0,219.0,190.0,212.0,192.0,209.5,196.0,204.5,200.0,206.5" stroke="black" stroke-width="2" fill="none" />
<polyline points="182.0,213.0,182.5,217.0" stroke="black" stroke-width="2" fill="none" />
<polyline points="180.5,214.0,180.5,215.5,181.5,220.0,180.5,224.0,181.0,220.5" stroke="black" stroke-width="2" fill="none" />
<polyline points="177.5,227.5,172.5,230.5,168.0,234.5,164.0,239.0,161.5,243.0,157.0,247.5,152.0,250.5,149.5,254.5,152.5,256.5,151.0,259.5,148.0,263.5,144.0,267.5,139.5,272.0,136.0,276.0,129.5,281.5,132.5,288.5,129.5,292.0,127.0,296.0,126.0,301.5,128.5,306.0,127.0,310.0,125.0,313.0,124.0,316.5,124.0,320.0,124.5,324.0,125.5,327.5,125.0,331.0,125.5,336.0,128.0,338.0,129.0,342.0,132.0,346.0,135.0,350.0,139.5,353.5,139.0,358.0,140.0,363.0,143.0,367.5,144.5,367.5,146.0,371.5,147.5,377.0,148.0,381.0,146.0,385.0,148.5,389.0,147.5,393.5,149.0,397.0,151.0,397.0,151.5,402.0,151.0,405.0,154.0,405.0,157.0,409.0,159.0,413.0,160.0,416.5,158.5,420.5,153.5,423.0" stroke="black" stroke-width="2" fill="none" />
<polyline points="194.0,404.5,194.5,400.5,194.5,396.0,194.0,392.0" stroke="black" stroke-width="2" fill="none" />
<polyline points="166.5,359.0,163.5,362.0,167.0,358.0" stroke="black" stroke-width="2" fill="none" />
<polyline points="159.0,344.0,158.0,348.5,156.0,352.0,159.0,356.0,158.0,360.0,157.0,364.0,156.5,368.5,156.5,372.5,158.0,376.5,156.5,381.0,154.0,383.0,154.5,389.0,154.0,393.0,154.0,397.0,158.5,401.5,164.0,405.5,168.0,410.0,171.0,411.0" stroke="black" stroke-width="2" fill="none" />
<polyline points="142.0,349.0,137.5,347.0,137.5,343.0,136.0,339.0,134.5,335.0,133.5,330.5,132.0,326.5,130.5,322.0,130.0,318.0,130.0,313.5,129.5,309.5,127.0,301.0,130.0,298.5" stroke="black" stroke-width="2" fill="none" />
<polyline points="126.0,298.0,130.0,295.0,133.0,293.0,137.0,288.0" stroke="black" stroke-width="2" fill="none" />
<polyline points="137.5,292.0,133.5,295.5,129.5,298.0,126.0,300.5" stroke="black" stroke-width="2" fill="none" />
<polyline points="134.5,301.0,134.5,297.5" stroke="black" stroke-width="2" fill="none" />
<polyline points="127.0,311.0,127.5,315.0,126.0,317.0,127.0,320.5,129.5,324.5,129.0,328.5,128.5,332.5" stroke="black" stroke-width="2" fill="none" />
<polyline points="127.5,343.0,131.5,348.5,135.5,352.5" stroke="black" stroke-width="2" fill="none" />
<polyline points="96.0,350.5,92.5,356.0" stroke="black" stroke-width="2" fill="none" />
<polyline points="96.0,357.5,96.0,361.0,95.5,364.5,94.5,368.5,93.5,372.5,93.0,376.5,90.0,380.5,88.5,384.5,87.0,387.5,87.5,391.5,87.5,395.5,89.5,399.5,92.5,403.5,90.0,406.5,91.0,408.5,95.0,410.0,99.0,410.5,103.0,410.0,107.0,405.5,113.5,399.5" stroke="black" stroke-width="2" fill="none" />
<polyline points="78.0,367.5,82.0,361.0,85.5,354.5" stroke="black" stroke-width="2" fill="none" />
<polyline points="96.0,347.5,92.0,354.0,88.5,361.0,84.0,370.0,83.5,374.0,78.0,371.0,77.5,366.5,79.5,362.5,82.5,358.5,84.5,354.5,88.0,351.0,89.0,347.0,89.0,343.0,89.5,339.0,86.0,338.0,82.0,342.0,78.5,347.0,74.5,353.0,70.5,357.5,66.5,361.5,63.5,364.0,64.0,360.5,66.5,359.0,71.0,355.0,74.0,351.0,77.0,347.5,80.0,344.0,84.0,340.5,87.0,336.5,92.5,331.0,95.0,327.0,91.5,328.0,93.5,324.0,89.0,323.5" stroke="black" stroke-width="2" fill="none" />
<polyline points="79.5,316.0,75.5,318.0,71.5,320.5,69.0,322.0,76.0,318.5,79.5,314.0,76.0,310.0,76.0,305.5,76.0,306.0" stroke="black" stroke-width="2" fill="none" />
<polyline points="76.5,305.5,77.0,309.5,79.0,311.0,83.5,308.5,87.5,306.5,91.5,304.0" stroke="black" stroke-width="2" fill="none" />
<polyline points="88.0,296.0,81.5,298.5,85.5,296.5,90.0,296.0,94.5,295.0,100.0,297.0,104.0,296.5,109.0,295.5" stroke="black" stroke-width="2" fill="none" />
<polyline points="107.0,293.0,101.5,297.0,100.0,301.0,93.0,303.5,97.0,301.5,101.0,301.5" stroke="black" stroke-width="2" fill="none" />
<polyline points="103.0,291.5,98.0,294.5,102.0,292.5,106.0,291.5,109.5,290.5" stroke="black" stroke-width="2" fill="none" />
<polyline points="111.5,286.0,107.0,289.0,103.0,290.5,99.5,291.0,95.5,293.0,91.5,293.0,87.5,293.5,83.5,294.5,80.0,297.0,86.5,293.0" stroke="black" stroke-width="2" fill="none" />
<polyline points="92.5,283.5,96.0,287.5,100.0,286.0,104.0,283.5,108.0,282.0,112.0,279.5" stroke="black" stroke-width="2" fill="none" />
<polyline points="106.0,286.5,103.5,289.5" stroke="black" stroke-width="2" fill="none" />
<polyline points="91.0,285.5,89.5,281.5,90.0,278.0" stroke="black" stroke-width="2" fill="none" />
<polyline points="90.5,277.0,94.5,275.0,98.5,273.0,103.0,270.5,107.0,268.0,101.5,271.5,94.5,276.0,93.5,280.0,95.5,284.5,97.0,286.5,102.0,284.5,106.0,283.0,102.0,282.5,105.5,281.0,109.5,279.0,114.0,281.0,117.5,278.0,121.5,275.5,125.5,272.0" stroke="black" stroke-width="2" fill="none" />
<polyline points="124.0,271.5,119.5,270.0,115.0,268.0" stroke="black" stroke-width="2" fill="none" />
<polyline points="129.5,266.0,129.0,270.0,124.0,274.0,118.0,278.0,109.5,282.0,100.5,286.0,98.5,290.5,93.0,298.0,91.5,301.5,87.0,306.0,80.0,310.0,82.5,315.5,78.0,319.5,71.5,323.0,75.5,321.5,79.5,319.0,83.5,315.5,87.5,317.0" stroke="black" stroke-width="2" fill="none" />
<polyline points="79.5,314.0,75.5,309.5" stroke="black" stroke-width="2" fill="none" />
<polyline points="119.5,309.5,118.0,313.5,116.5,318.0,115.0,322.5,113.0,326.5,112.0,330.5,108.0,335.0,105.5,339.5,101.5,343.5,100.5,347.0,101.0,351.0,97.0,352.5,93.5,356.5,95.0,360.0,94.0,364.0,93.5,367.5,92.0,371.0,93.0,377.5,93.0,381.5,94.5,385.0" stroke="black" stroke-width="2" fill="none" />
<polyline points="74.5,374.5,74.0,371.0,74.0,367.0,77.5,362.5,79.0,358.0,81.5,354.0,86.0,350.5,84.0,352.0,80.0,359.0,76.0,366.0" stroke="black" stroke-width="2" fill="none" />
<polyline points="23.5,365.5,23.0,369.5,22.0,373.5,23.0,367.5" stroke="black" stroke-width="2" fill="none" />
<polyline points="98.0,341.5,101.5,337.5,105.5,334.0,108.5,330.0,111.5,325.5,113.5,321.0,116.0,316.5,117.5,312.0,119.5,308.5" stroke="black" stroke-width="2" fill="none" />
<polyline points="133.5,313.0,126.5,309.0,125.5,302.5,123.0,301.0,120.0,308.5,116.0,317.0,111.5,325.0,107.0,330.5,103.0,335.5,98.5,338.0,94.5,341.0,97.5,334.5,101.0,330.5,100.5,329.0,99.5,324.5,99.0,320.5,101.0,316.5,103.0,312.5,105.5,308.5,109.5,304.0,113.0,300.0,118.0,296.0,120.5,292.0,121.5,288.0,122.5,284.5" stroke="black" stroke-width="2" fill="none" />
<polyline points="124.5,284.5,125.0,288.5,123.5,293.0,121.5,297.0,118.0,301.0,113.0,305.0,108.5,309.0,105.0,312.5,107.5,308.5,111.5,305.0,115.5,301.5,119.5,298.0,124.0,295.0,128.5,292.5,133.0,287.0,137.0,287.0,141.0,285.0" stroke="black" stroke-width="2" fill="none" />
<polyline points="138.5,276.0,142.5,275.0,149.0,271.0,153.0,266.5" stroke="black" stroke-width="2" fill="none" />
<polyline points="155.0,269.5,157.0,273.5" stroke="black" stroke-width="2" fill="none" />
<polyline points="153.0,278.0,157.0,279.0,158.0,280.5" stroke="black" stroke-width="2" fill="none" />
<polyline points="162.0,278.5,158.0,272.0,154.0,274.0,150.0,273.5" stroke="black" stroke-width="2" fill="none" />
<polyline points="150.0,276.0,152.0,278.0,154.5,279.5,156.5,283.5,163.0,289.0,167.0,284.0,170.5,283.5,173.0,284.5,177.0,285.0,176.5,286.5" stroke="black" stroke-width="2" fill="none" />
<polyline points="178.0,292.0,175.0,293.0,171.5,294.0" stroke="black" stroke-width="2" fill="none" />
<polyline points="172.0,293.0,171.0,296.5,170.0,300.5,170.0,304.5,166.5,308.5,166.5,312.5,165.5,314.0,163.5,317.5,169.5,320.5,168.5,323.5,166.0,327.5,162.5,332.0,159.5,335.5,158.5,342.0,153.5,346.0,150.5,350.0,152.0,352.5,149.5,355.0,147.0,358.0,145.0,353.5,147.5,351.0,152.0,353.0,156.5,353.5,159.5,345.5,163.5,348.0,167.5,345.5,171.5,343.5" stroke="black" stroke-width="2" fill="none" />
<polyline points="183.0,307.5,179.0,301.5" stroke="black" stroke-width="2" fill="none" />
<polyline points="177.0,300.0,177.0,304.0,179.5,306.0" stroke="black" stroke-width="2" fill="none" />
<polyline points="180.5,308.0,177.0,304.5" stroke="black" stroke-width="2" fill="none" />
<polyline points="176.0,299.5,179.0,300.5,181.5,304.5,184.0,308.5,181.0,311.0,183.0,313.0" stroke="black" stroke-width="2" fill="none" />
<polyline points="175.0,316.5,170.5,318.0,170.0,323.0,168.5,321.5,165.0,327.5,160.5,333.0,155.5,338.0,151.5,340.0,147.5,337.0,144.5,344.5,142.5,341.0,141.0,337.5,139.0,333.5,138.0,329.5,137.5,325.5,136.5,321.0,135.5,317.0,135.0,313.0,133.5,309.0,132.0,305.0,131.0,301.0,134.0,300.0,136.0,296.5,139.5,292.0,141.0,288.0,142.5,283.5,139.0,282.0,136.5,282.0,132.5,281.0,139.0,282.0,141.5,278.0,146.5,274.5,142.5,272.0,146.5,268.0,151.5,264.0,156.0,257.5,159.0,253.5,161.0,249.5,163.5,245.5,160.0,245.0,155.5,249.5,151.5,250.0" stroke="black" stroke-width="2" fill="none" />
<polyline points="149.0,249.0,145.0,249.5" stroke="black" stroke-width="2" fill="none" />
<polyline points="145.0,251.5,149.5,248.0,148.0,248.0,145.0,251.5,148.0,252.5,149.0,256.5" stroke="black" stroke-width="2" fill="none" />
<polyline points="149.0,267.0,145.0,270.0,141.0,273.0" stroke="black" stroke-width="2" fill="none" />
<polyline points="151.5,271.0,155.0,267.5,158.5,262.0,162.5,256.5,158.5,258.5,155.5,262.5,152.0,266.5,148.0,270.5,147.5,274.5,147.0,278.5,147.5,283.0,148.5,287.0,152.5,290.5,157.5,292.0,161.5,297.0,162.5,301.0,158.5,304.5,157.5,310.5,159.5,314.5,158.5,317.5,159.0,320.0,158.0,321.5,162.0,320.0,163.5,318.5,165.0,313.5,168.5,311.0,173.0,306.5,175.5,300.0,179.0,295.0" stroke="black" stroke-width="2" fill="none" />
<polyline points="171.5,297.0,172.5,301.0,174.5,307.5,176.5,311.5,174.0,317.5" stroke="black" stroke-width="2" fill="none" />
<polyline points="165.0,302.0,164.5,298.0,170.0,292.5,174.0,288.5,172.5,284.5,169.5,289.0,165.0,291.5,162.0,290.5,164.5,286.5,168.5,282.5,173.5,279.0,174.0,281.0,173.0,279.5,169.0,283.0,166.0,283.5,163.0,285.0,160.5,287.0,163.0,285.0,162.5,281.0,163.5,277.0,162.5,276.0,164.0,271.5,164.0,268.0,167.5,264.0,169.0,260.0,168.5,256.5,170.5,252.5,173.0,248.5,174.0,244.5,173.5,240.5,172.5,236.5,177.0,232.5,172.5,235.0" stroke="black" stroke-width="2" fill="none" />
<polyline points="169.5,238.0,168.0,242.0,167.5,246.0,166.0,250.0,165.5,248.0" stroke="black" stroke-width="2" fill="none" />
<polyline points="157.0,249.0,156.0,252.5,151.5,251.0,155.5,252.5" stroke="black" stroke-width="2" fill="none" />
<polyline points="162.5,239.5,166.5,235.5,171.0,232.5,175.5,229.0,179.5,228.5" stroke="black" stroke-width="2" fill="none" />
<polyline points="170.0,229.5,166.0,230.0,165.0,234.0,161.0,239.0,160.5,239.0,164.0,235.0,167.5,231.0" stroke="black" stroke-width="2" fill="none" />
<polyline points="167.0,227.0,162.5,228.0" stroke="black" stroke-width="2" fill="none" />
<polyline points="160.0,225.5,156.5,229.0,152.0,231.5,149.0,236.0,146.0,240.0,143.5,246.5,142.5,250.0,142.5,254.0,141.0,258.5,140.0,262.0,135.0,264.0,132.5,268.0,132.5,267.5,136.5,267.0" stroke="black" stroke-width="2" fill="none" />
<polyline points="134.5,268.5,136.5,264.0,132.5,262.5" stroke="black" stroke-width="2" fill="none" />
<polyline points="132.0,254.5,136.5,255.0" stroke="black" stroke-width="2" fill="none" />
<polyline points="132.0,250.0,135.5,247.5,139.5,246.5,142.0,246.0" stroke="black" stroke-width="2" fill="none" />
<polyline points="144.5,242.5,140.5,241.0,136.5,243.0" stroke="black" stroke-width="2" fill="none" />
<polyline points="141.0,239.5,136.5,232.0,132.5,222.0" stroke="black" stroke-width="2" fill="none" />
<polyline points="141.5,226.0,145.0,217.5" stroke="black" stroke-width="2" fill="none" />
<polyline points="148.0,212.5,148.5,211.0,150.0,207.5" stroke="black" stroke-width="2" fill="none" />
<polyline points="149.5,194.0,145.5,189.5" stroke="black" stroke-width="2" fill="none" />
<polyline points="144.5,186.5,148.5,191.5,152.5,192.5,158.0,186.0,162.0,181.0,166.5,176.5,171.0,172.0,175.0,168.0,179.5,163.5,183.5,160.0,187.5,157.0,191.5,153.0,195.5,149.5,199.5,147.0,203.5,143.5" stroke="black" stroke-width="2" fill="none" />
<polyline points="206.0,147.0,210.0,150.5,214.0,154.5,218.0,158.5,222.0,160.5" stroke="black" stroke-width="2" fill="none" />
<polyline points="227.5,162.0,224.0,156.0,228.0,152.5,224.0,156.0,219.5,155.0,215.0,151.5" stroke="black" stroke-width="2" fill="none" />
<polyline points="216.0,153.0,220.5,157.5,226.5,163.5" stroke="black" stroke-width="2" fill="none" />
<polyline points="233.0,142.5,236.5,146.5,241.0,144.5,245.5,141.0,249.5,138.0,254.0,135.0,257.5,132.0,259.5,131.0,253.5,135.0,248.5,138.5,245.5,140.5,240.5,144.5" stroke="black" stroke-width="2" fill="none" />
<polyline points="236.5,145.5,233.0,142.0" stroke="black" stroke-width="2" fill="none" />
<polyline points="222.0,148.0,218.0,144.5,214.0,140.5" stroke="black" stroke-width="2" fill="none" />
<polyline points="214.0,141.0,218.0,144.5" stroke="black" stroke-width="2" fill="none" />
<polyline points="206.0,147.5,209.5,151.5,214.0,155.5,217.5,159.5,219.5,161.0" stroke="black" stroke-width="2" fill="none" />
<polyline points="206.0,164.0,202.0,164.0" stroke="black" stroke-width="2" fill="none" />
<polyline points="203.0,163.5,204.0,167.5,197.0,169.5,191.5,173.5,188.0,177.5,183.5,181.0,179.5,185.5,175.5,189.5,172.0,193.0,167.0,197.0,164.0,201.0,163.5,201.5,167.5,196.5,171.5,193.0,176.0,187.5,180.0,184.0,184.0,180.0,188.0,176.5,192.0,173.0,196.0,169.5,200.0,166.5" stroke="black" stroke-width="2" fill="none" />
<polyline points="201.5,136.5,197.5,132.5" stroke="black" stroke-width="2" fill="none" />
<polyline points="198.5,132.5,202.5,137.0,203.5,141.0,202.0,142.5,206.5,139.0,210.5,136.0,214.5,133.0,218.0,129.5,222.0,127.0" stroke="black" stroke-width="2" fill="none" />
<polyline points="224.0,125.5,218.0,129.0,212.0,133.5,206.5,137.5,208.5,138.5,212.5,135.5,216.5,133.0,220.5,130.0,224.5,127.5,229.0,125.0,233.0,122.0,237.0,120.5" stroke="black" stroke-width="2" fill="none" />
<polyline points="238.0,119.0,231.5,123.0,225.5,127.0,219.0,131.0,212.5,135.5,207.5,139.5,202.5,143.0,198.0,147.0,193.0,151.0,189.0,155.0,184.0,159.0,180.5,163.0,176.0,166.5,171.5,170.5,168.0,174.5,165.0,178.5,161.0,182.5,158.5,186.5,153.5,191.5,151.0,195.5,152.5,199.0,151.0,203.0,148.5,207.0,146.5,211.5,146.5,215.0,144.0,219.5,142.5,223.0,141.5,227.0,141.5,231.0,142.0,235.0,142.0,239.5,141.0,241.0,133.5,244.0,131.0,249.0,132.5,252.5,134.0,256.5,138.0,255.5,140.5,256.5" stroke="black" stroke-width="2" fill="none" />
<polyline points="123.5,251.5,119.0,255.5,115.5,259.5,112.5,263.5,116.5,258.5,120.5,254.5,124.5,252.0,129.0,247.0,132.5,245.5,136.5,241.0,142.5,238.5,149.0,235.0,153.5,230.0,157.5,226.5,161.5,223.0" stroke="black" stroke-width="2" fill="none" />
<polyline points="168.5,222.0,168.0,226.0,171.0,226.0,171.5,226.5,176.0,225.5,180.0,225.5" stroke="black" stroke-width="2" fill="none" />
<polyline points="176.0,212.0,172.0,214.0,170.0,216.5,174.5,212.5" stroke="black" stroke-width="2" fill="none" />
<polyline points="185.0,244.0,189.5,243.0,193.5,239.5,197.5,234.5,195.0,238.5,190.5,242.5,186.0,245.5,185.5,251.0,183.5,254.5,184.0,258.5,184.0,262.5,184.5,266.5,186.0,270.0,187.5,272.0" stroke="black" stroke-width="2" fill="none" />
<polyline points="175.0,278.0,172.5,282.0,169.5,286.0,167.5,288.0" stroke="black" stroke-width="2" fill="none" />
<polyline points="156.0,299.0,152.0,295.0" stroke="black" stroke-width="2" fill="none" />
<polyline points="154.0,296.5,159.0,300.5" stroke="black" stroke-width="2" fill="none" />
<polyline points="158.0,299.5,154.0,295.5,151.0,291.5,151.5,287.5,150.5,282.5,150.5,279.0,150.5,273.5,153.0,269.5,156.5,265.5,160.5,261.5,163.0,257.0,164.0,253.0,166.0,249.0,167.0,245.0,168.0,241.0,169.5,239.5,165.0,245.0,160.5,252.5,155.5,258.0,151.0,258.0,145.5,257.0,141.5,257.5,138.0,264.0,136.0,264.5,136.0,259.0,133.5,262.0,129.5,264.5,128.5,267.0,133.0,262.5,132.5,258.0,131.0,254.0,128.5,250.5,130.0,246.5,136.5,245.5,136.5,242.0,139.5,238.0,137.5,234.0,136.0,230.0,134.5,226.0,133.0,222.5,133.0,219.0,132.5,215.0,131.0,211.5,128.5,207.0,126.5,202.5,124.5,198.5,123.5,194.5,122.0,191.0,121.5,187.0,120.0,182.5,119.5,178.5,119.5,174.5,119.5,170.0,120.0,166.0,121.0,162.5,121.0,158.5,122.0,154.5,122.5,150.5,123.5,146.5,124.0,142.0,125.0,138.0,126.0,134.0,127.0,130.0,128.0,126.0,129.0,122.5,130.5,118.5,132.0,114.5,134.0,110.5,136.0,106.5,138.5,105.5,140.0,101.5,140.5,101.5,136.5,107.5" stroke="black" stroke-width="2" fill="none" />
<polyline points="126.0,123.0,130.0,112.5,134.5,104.5,134.5,109.0,134.0,113.0,133.5,117.0,132.0,121.0,131.5,125.5,132.0,129.5,131.0,134.0,130.0,138.0,128.0,142.0,129.0,146.0,130.5,146.0,129.5,150.0,130.5,152.5,131.0,155.0,128.0,159.0,131.0,157.0,130.0,149.5" stroke="black" stroke-width="2" fill="none" />
<polyline points="128.5,152.5,133.0,154.5,131.5,156.0,132.5,160.0,135.0,162.0,131.5,166.0,128.0,170.0,132.0,166.5,134.5,161.5" stroke="black" stroke-width="2" fill="none" />
<polyline points="143.0,165.0,139.5,169.0,139.5,171.0,136.0,175.0,132.5,179.0,134.0,173.0" stroke="black" stroke-width="2" fill="none" />
<polyline points="134.5,172.5,131.0,176.5,136.5,176.0,140.5,172.0,141.0,169.0" stroke="black" stroke-width="2" fill="none" />
<polyline points="140.0,169.0,138.0,173.5,134.0,176.0,131.0,176.5,135.0,172.5" stroke="black" stroke-width="2" fill="none" />
<polyline points="139.0,175.0,135.0,179.0,133.5,181.0,137.5,177.0,140.0,173.5" stroke="black" stroke-width="2" fill="none" />
<polyline points="143.5,168.5,140.0,173.0,136.0,177.0,133.5,177.0" stroke="black" stroke-width="2" fill="none" />
<polyline points="133.5,185.0,138.0,180.5,142.0,176.5,144.5,173.5,140.5,177.0,136.0,181.0,134.0,185.0,137.0,189.0,137.5,192.5,143.0,195.0,145.5,199.0" stroke="black" stroke-width="2" fill="none" />
<polyline points="147.5,198.5,146.0,195.0,145.0,191.0,143.5,189.0,142.0,185.0,146.0,181.5,146.0,179.0,146.5,178.5,142.0,182.0" stroke="black" stroke-width="2" fill="none" />
<polyline points="142.5,180.0,139.0,185.5,135.0,189.5" stroke="black" stroke-width="2" fill="none" />
<polyline points="135.5,191.5,140.5,190.0,144.5,187.0,145.0,182.0,149.5,181.0" stroke="black" stroke-width="2" fill="none" />
<polyline points="147.5,184.0,151.5,189.0" stroke="black" stroke-width="2" fill="none" />
<polyline points="151.5,192.0,149.5,191.0,148.0,187.0,143.5,186.0" stroke="black" stroke-width="2" fill="none" />
<polyline points="143.0,185.5,146.0,190.0,145.5,192.0" stroke="black" stroke-width="2" fill="none" />
<polyline points="141.5,193.5,145.5,198.5" stroke="black" stroke-width="2" fill="none" />
<polyline points="141.0,195.0,144.0,198.5,146.0,202.5,146.5,206.5,144.5,211.0,143.5,215.0,148.5,207.5,152.5,200.5" stroke="black" stroke-width="2" fill="none" />
<polyline points="141.0,194.5,140.0,198.0,137.5,201.5" stroke="black" stroke-width="2" fill="none" />
<polyline points="128.5,206.0,124.5,198.5" stroke="black" stroke-width="2" fill="none" />
<polyline points="114.5,227.0,110.5,231.5,111.5,229.5,115.5,228.0" stroke="black" stroke-width="2" fill="none" />
<polyline points="116.0,227.5,113.0,231.5,115.0,229.5" stroke="black" stroke-width="2" fill="none" />
<polyline points="129.0,278.5,133.0,278.5,136.5,277.0,140.5,275.5" stroke="black" stroke-width="2" fill="none" />
<polyline points="152.5,280.0,154.0,284.0,157.5,287.5,163.5,291.5" stroke="black" stroke-width="2" fill="none" />
<polyline points="219.0,305.0,217.5,309.0,216.5,313.0,216.5,317.0,216.5,321.0,216.5,325.0,216.5,329.0,216.5,333.0,216.5,337.5,217.0,342.0,218.0,346.0,218.0,350.0,218.5,353.5,218.5,357.5" stroke="black" stroke-width="2" fill="none" />
<polyline points="252.5,381.5,253.0,384.0,257.0,384.5,261.0,384.5,265.0,384.5" stroke="black" stroke-width="2" fill="none" />
<polyline points="268.0,388.5,263.5,389.0,259.5,389.0,255.5,389.0,252.0,389.0,248.0,389.0,244.0,393.0,246.0,389.5" stroke="black" stroke-width="2" fill="none" />
<polyline points="269.0,352.5,273.0,353.5,277.0,354.5" stroke="black" stroke-width="2" fill="none" />
<polyline points="284.0,351.0,280.0,351.5,276.0,351.5,272.5,351.0,268.5,352.0" stroke="black" stroke-width="2" fill="none" />
<polyline points="221.5,369.0,221.0,365.5,220.5,361.0,220.0,357.0,219.0,353.0,219.0,349.0,223.0,344.0,222.0,340.0,222.0,334.5,221.5,330.5,220.5,326.5,220.5,322.0,219.0,318.5,219.0,314.5,218.0,311.0,218.5,307.0" stroke="black" stroke-width="2" fill="none" />
<polyline points="224.5,272.5,221.0,276.5,224.5,272.5,229.0,271.5" stroke="black" stroke-width="2" fill="none" />
<polyline points="297.5,222.0,293.5,225.0,290.0,229.5,286.5,233.0,289.0,231.0,294.0,227.0,299.5,223.5" stroke="black" stroke-width="2" fill="none" />
<polyline points="267.0,187.0,261.0,191.0,256.5,194.5,253.5,198.5,249.5,201.5,251.0,198.0,255.0,194.0,259.0,191.0,263.0,188.5,267.0,185.5" stroke="black" stroke-width="2" fill="none" />
<polyline points="267.5,185.0,260.5,189.0,257.0,190.0,261.0,186.5,264.5,184.0" stroke="black" stroke-width="2" fill="none" />
<polyline points="272.0,183.0,273.0,187.0,273.0,190.5,272.0,194.5" stroke="black" stroke-width="2" fill="none" />
<polyline points="275.0,180.5,274.5,176.5" stroke="black" stroke-width="2" fill="none" />
<polyline points="259.5,166.0,267.5,162.5,263.5,163.5,259.0,165.5,255.0,164.5,251.5,161.5" stroke="black" stroke-width="2" fill="none" />
<polyline points="251.0,161.5,256.0,165.5" stroke="black" stroke-width="2" fill="none" />
<polyline points="282.0,145.0,286.0,144.0" stroke="black" stroke-width="2" fill="none" />
<polyline points="298.5,134.0,294.0,137.5,289.5,142.0,292.0,140.0,295.5,137.0,299.5,134.0" stroke="black" stroke-width="2" fill="none" />
<polyline points="260.5,131.5,256.0,136.0,251.0,139.5,245.0,143.5,240.0,147.0,235.0,151.0,230.0,154.5,225.0,159.0,221.0,163.0,223.0,161.5,227.0,157.5,231.0,155.0,235.0,152.0,239.0,149.0,243.0,146.5,247.0,144.0,250.5,140.5,254.5,137.5,258.0,134.5" stroke="black" stroke-width="2" fill="none" />
<polyline points="231.0,127.0,224.0,131.0,218.0,135.0,212.5,139.5,207.0,143.0,202.0,147.0,198.0,151.0,196.0,153.0,200.5,149.5,204.5,146.0,208.5,142.5,212.5,139.5,216.5,136.0,220.5,133.0,224.5,130.0,228.5,127.0" stroke="black" stroke-width="2" fill="none" />
<polyline points="207.0,116.0,199.5,120.0,196.5,122.5,200.5,119.5,204.5,117.0" stroke="black" stroke-width="2" fill="none" />
<polyline points="198.0,108.5,195.0,111.0" stroke="black" stroke-width="2" fill="none" />
<polyline points="191.5,118.0,185.5,122.5,179.5,127.0,180.5,126.5,183.5,123.5,187.0,121.0" stroke="black" stroke-width="2" fill="none" />
<polyline points="188.5,121.0,185.0,123.0,181.0,126.0,179.5,127.5,185.5,123.5,191.5,119.0" stroke="black" stroke-width="2" fill="none" />
<polyline points="192.0,132.5,187.0,136.5,186.0,137.5,190.0,134.0" stroke="black" stroke-width="2" fill="none" />
<polyline points="156.0,127.5,151.0,132.0,147.0,135.5,151.0,132.5,155.5,130.0" stroke="black" stroke-width="2" fill="none" />
<polyline points="133.5,131.5,133.0,136.5,129.0,141.0" stroke="black" stroke-width="2" fill="none" />
<polyline points="146.0,172.0,147.0,175.5,142.5,179.5,140.5,184.0,135.5,187.5,134.5,191.5,136.0,194.5,136.0,195.0,138.0,194.5,139.5,195.5,143.5,200.5,148.0,200.5" stroke="black" stroke-width="2" fill="none" />
<polyline points="155.5,77.5,152.5,84.0,154.5,80.5,156.0,76.5" stroke="black" stroke-width="2" fill="none" />
<polyline points="162.0,65.0,160.5,69.0,161.0,65.0,166.0,62.0,170.0,62.0,174.0,60.5" stroke="black" stroke-width="2" fill="none" />
<polyline points="159.5,63.5,157.5,67.5,154.5,73.5,153.0,78.0,153.0,78.0,157.5,73.5,160.5,71.0" stroke="black" stroke-width="2" fill="none" />
<polyline points="206.0,50.0,210.0,48.0" stroke="black" stroke-width="2" fill="none" />
<polyline points="228.0,46.5,223.5,50.0,227.5,47.0,232.0,47.5,236.0,47.5,240.5,48.0,244.0,49.0,248.0,50.0,252.0,51.5,256.0,53.0,260.0,54.5,263.5,56.5,267.0,59.0,271.0,61.5,274.5,64.0,278.0,67.0,282.0,70.0,286.5,73.0,290.5,76.5,294.5,77.5,298.0,80.0,302.5,86.0,306.5,91.0,310.5,97.0,314.5,99.0,319.0,102.5,323.0,108.0,328.0,114.0,332.5,123.5,336.5,130.5,340.5,134.0,344.5,139.5,348.5,148.0,352.5,145.0,356.5,143.0,360.0,140.0,364.5,137.5,368.5,135.5,372.5,132.5,376.5,130.0,380.0,126.5,384.0,123.5,388.5,121.0,392.5,117.5,396.0,114.5,400.0,113.0,404.0,112.5,407.5,113.0,411.5,112.5,415.5,114.0,419.5,121.5" stroke="black" stroke-width="2" fill="none" />
<polyline points="264.5,86.0,260.5,88.0,256.5,90.0,252.5,92.5,248.0,94.5,244.0,96.5,240.0,100.0,235.5,103.0,231.0,106.0,227.0,108.5,223.0,111.5,219.0,114.0,215.0,116.0,211.0,119.0,207.5,121.0,203.5,125.0,199.5,128.5,195.0,132.0,191.0,136.0,187.0,140.0,183.0,144.0,179.0,148.0,175.0,151.5,171.0,155.5,167.5,159.0,163.5,163.0,159.0,166.0,154.5,170.5,152.5,173.5,155.5,169.5,159.5,166.0,164.0,162.0,167.5,158.0,172.0,154.0,176.0,150.0,180.0,146.0,184.5,142.0,189.0,137.5,194.0,133.5,199.0,129.5,203.5,125.0,208.0,121.5,214.5,117.5,219.5,114.0,225.0,109.5,231.0,106.0,236.5,102.0,242.5,98.0,248.0,93.5,255.0,89.5,264.0,85.5" stroke="black" stroke-width="2" fill="none" />
<polyline points="249.0,89.5,242.0,93.0,245.5,90.5" stroke="black" stroke-width="2" fill="none" />
<polyline points="237.0,97.5,232.0,101.5,235.5,99.0" stroke="black" stroke-width="2" fill="none" />
<polyline points="237.5,99.5,233.5,102.0,229.5,104.5,225.5,104.5,221.5,108.0,225.5,104.5,232.0,103.5,238.0,99.5" stroke="black" stroke-width="2" fill="none" />
<polyline points="236.0,80.5,232.0,82.0,227.5,85.0,225.5,87.5,230.0,83.5,237.0,79.5" stroke="black" stroke-width="2" fill="none" />
<polyline points="251.0,51.5,261.5,55.5,268.0,59.0,274.0,63.0,280.0,67.0,286.0,71.5,290.5,75.5,298.5,80.0,301.0,84.5,304.0,89.0,307.5,93.0,310.0,97.0,315.0,100.5,319.5,104.5,322.5,108.5,325.0,112.0,327.5,116.0,328.5,119.5,331.0,123.0,333.5,127.0,335.5,131.0,340.0,135.0,343.0,139.0,344.0,143.0,346.5,147.0" stroke="black" stroke-width="2" fill="none" />
<polyline points="235.5,47.5,232.0,49.5" stroke="black" stroke-width="2" fill="none" />
<polyline points="454.5,366.0,455.0,370.0,454.5,374.0,454.0,378.0,453.5,382.0,452.5,386.0,450.5,390.0,450.0,394.0,450.0,398.0,450.5,402.0,450.0,406.0,449.0,410.0,448.5,414.0,447.5,418.5,446.0,422.5,444.0,424.5" stroke="black" stroke-width="2" fill="none" />
<polyline points="485.5,409.5,481.5,415.0,479.0,417.5,482.0,413.5,485.0,409.0,488.0,405.0" stroke="black" stroke-width="2" fill="none" />
</svg>