<svg xmlns="http://www.w3.org/2000/svg" version="1.1"><polyline points="404.0,1.5,404.0,5.5,406.0,9.5,408.5,13.5,410.0,17.5,413.0,22.0,415.0,26.0,417.0,29.5,419.5,33.5,421.5,38.0,424.0,42.0,426.0,46.0,428.5,50.0,431.0,54.0,434.0,57.5,436.0,61.5,438.5,65.5,441.0,69.5" stroke="black" stroke-width="2" fill="none" />
<polyline points="456.0,59.0,452.0,51.5,448.0,45.5,444.0,38.0,441.0,33.0,437.0,26.0,433.0,19.5,429.5,12.5,425.5,7.0" stroke="black" stroke-width="2" fill="none" />
<polyline points="424.0,2.0,424.0,6.5,425.5,10.0,427.5,14.0,430.5,17.5,432.5,21.5,434.0,25.0,437.0,29.0,439.0,32.5,441.5,36.5,443.5,40.5,445.5,44.5,448.5,48.0,451.0,52.0,453.5,56.0,455.5,60.0,453.0,64.5,450.0,68.5,445.5,72.5,442.5,76.5,440.0,80.5,437.5,84.5,434.0,88.5,431.5,93.0,429.0,97.0,427.0,101.5,424.0,105.5,421.5,109.5,419.0,113.5,419.0,113.5,423.0,107.5,427.0,100.5,431.0,94.0,435.0,88.5,439.0,83.0,443.0,77.0,447.0,72.5,451.0,69.0,455.5,64.0,460.5,55.0,464.0,50.5,468.0,47.5,472.0,43.0,476.0,39.0,479.5,35.0,483.5,31.0,487.5,27.0,491.5,23.0,497.0,18.5,501.0,14.5,505.5,11.5,509.0,7.5" stroke="black" stroke-width="2" fill="none" />
<polyline points="512.5,6.5,506.5,10.5,502.5,14.5,497.0,18.5,494.0,21.5,489.5,25.5,485.5,29.0,481.5,33.5,476.5,37.0,473.0,41.0,468.5,45.0,465.0,49.0,461.0,53.0,458.0,57.0" stroke="black" stroke-width="2" fill="none" />
<polyline points="511.5,75.5,507.5,80.5,503.5,84.5,499.5,89.0,497.0,93.5,493.0,95.5,489.0,102.0,485.5,106.5,481.5,111.5,478.0,116.5,473.5,122.0,469.5,128.0,465.5,135.0,461.5,141.0" stroke="black" stroke-width="2" fill="none" />
<polyline points="454.5,154.5,450.5,161.5,447.5,166.5,443.5,174.5" stroke="black" stroke-width="2" fill="none" />
<polyline points="440.5,180.0,438.5,183.5" stroke="black" stroke-width="2" fill="none" />
<polyline points="433.5,195.0,429.5,203.0,427.5,210.0,426.5,214.5,422.5,219.0" stroke="black" stroke-width="2" fill="none" />
<polyline points="417.0,229.5,415.0,235.5,411.5,243.5" stroke="black" stroke-width="2" fill="none" />
<polyline points="402.0,275.5,400.5,279.5,398.5,286.0" stroke="black" stroke-width="2" fill="none" />
<polyline points="380.0,291.0,380.0,286.5,379.5,282.5,380.0,278.0,380.0,274.5" stroke="black" stroke-width="2" fill="none" />
<polyline points="379.0,269.5,377.0,265.5,375.0,261.0,375.5,257.0,373.5,253.0,373.0,249.0,372.0,245.0,370.5,240.5,369.5,236.5,369.0,233.0,369.0,230.0,369.5,226.0,370.0,222.5,371.0,219.0,372.0,215.0,369.5,221.5" stroke="black" stroke-width="2" fill="none" />
<polyline points="370.5,231.0,371.0,235.0,371.0,239.0,370.5,243.5" stroke="black" stroke-width="2" fill="none" />
<polyline points="369.5,248.0,369.5,252.5,370.5,256.5,372.0,261.0,372.5,265.0,373.0,269.0,372.0,273.5,374.0,275.0,373.5,278.0,373.5,282.0,373.5,286.0" stroke="black" stroke-width="2" fill="none" />
<polyline points="374.0,278.5,375.0,282.5,376.5,285.5,376.0,289.0,377.0,293.5,377.5,297.0,378.5,301.0,379.0,305.0,379.5,308.5,380.0,312.5,381.0,316.5,382.0,320.5,383.0,324.5,382.5,328.5,381.5,333.0,381.5,337.0,382.0,341.0,382.5,344.5,382.5,348.5,383.0,352.5" stroke="black" stroke-width="2" fill="none" />
<polyline points="367.0,350.0,368.0,354.5,368.5,359.0,369.0,363.0,369.5,367.5,370.5,372.0" stroke="black" stroke-width="2" fill="none" />
<polyline points="372.5,375.5,373.5,379.5,374.0,383.5" stroke="black" stroke-width="2" fill="none" />
<polyline points="381.5,384.5,380.5,389.0,380.5,393.5,380.0,397.5,380.0,402.0" stroke="black" stroke-width="2" fill="none" />
<polyline points="362.5,434.0,358.5,425.0,354.0,418.0,350.0,413.5,345.5,408.5,341.5,405.0,337.5,401.5,333.5,399.5,329.5,398.0,325.5,396.0,321.5,394.0,317.0,392.5,313.0,391.0,309.0,389.5,306.5,389.5,303.0,389.5,299.0,388.5" stroke="black" stroke-width="2" fill="none" />
<polyline points="312.0,381.0,316.0,370.5,320.0,364.0,324.0,358.0,328.0,351.0,332.0,342.5,336.0,334.0,340.0,325.5,344.0,317.5" stroke="black" stroke-width="2" fill="none" />
<polyline points="356.0,329.0,356.0,333.0,355.5,337.0,354.5,341.0,354.5,340.0" stroke="black" stroke-width="2" fill="none" />
<polyline points="353.0,353.0,353.5,357.0,353.0,361.0,351.5,364.5,351.5,368.5,351.5,372.5,351.0,376.0,351.5,379.5,352.0,385.5,352.0,389.5,353.0,393.5,353.5,397.5,353.5,401.5,351.5,404.0,352.5,408.0,352.5,412.5" stroke="black" stroke-width="2" fill="none" />
<polyline points="360.0,384.0,360.0,379.5,360.0,375.5,361.0,370.5,360.5,367.0,360.5,363.0" stroke="black" stroke-width="2" fill="none" />
<polyline points="359.5,363.0,360.5,367.0,360.5,370.5,360.0,374.5,359.5,378.0,359.5,382.0" stroke="black" stroke-width="2" fill="none" />
<polyline points="354.5,357.0,354.5,361.0,354.5,364.5,353.5,368.0,354.0,372.0,354.5,376.0,355.0,379.5,355.0,383.5,354.5,387.0,354.5,391.0,355.0,395.0,355.0,399.0,356.0,403.0,356.0,407.0,356.0,411.0,354.0,412.5" stroke="black" stroke-width="2" fill="none" />
<polyline points="373.5,462.5,372.0,460.5,370.5,456.0,370.5,452.5,371.0,448.5,371.5,444.5,372.0,440.5,372.5,436.5,373.0,432.5,373.5,429.0,374.5,425.0,375.0,421.0,376.0,417.0,376.0,413.0,376.5,408.5,377.5,404.5,378.0,400.0,378.5,396.0,378.5,391.5,379.0,388.0,379.0,384.0,378.5,380.0,377.5,376.0,377.5,372.5,376.5,368.5,376.5,364.5,377.0,360.5,376.5,357.0,375.0,353.0,375.0,349.0,374.5,345.0,374.5,341.0,374.5,336.5,374.0,333.0,374.0,328.5,373.0,324.5,372.5,320.5,372.0,316.5,371.5,313.0,371.0,309.0,370.5,305.0,370.5,301.0,370.0,297.0,369.5,293.5,369.0,289.0,368.5,284.5,368.5,280.0,368.5,276.0,368.5,271.5,367.5,267.5,367.0,263.5,366.5,259.5,366.5,256.0,366.0,252.0,366.0,248.0,365.5,244.5,366.0,240.5,365.0,236.5,364.0,232.5,363.0,228.5,361.0,224.5,360.0,220.5,358.5,216.5,356.0,212.5,354.5,209.0,353.5,206.5,350.5,202.5,349.5,199.0,349.0,197.0" stroke="black" stroke-width="2" fill="none" />
<polyline points="349.5,200.0,353.5,206.5,357.5,214.0" stroke="black" stroke-width="2" fill="none" />
<polyline points="362.5,202.5,359.0,194.5" stroke="black" stroke-width="2" fill="none" />
<polyline points="358.5,190.5,359.0,194.5,360.0,198.5,361.5,203.0,361.5,207.0" stroke="black" stroke-width="2" fill="none" />
<polyline points="356.0,205.5,352.5,199.5" stroke="black" stroke-width="2" fill="none" />
<polyline points="350.5,200.5,354.0,204.5,356.0,208.5" stroke="black" stroke-width="2" fill="none" />
<polyline points="349.5,203.0,345.5,198.0" stroke="black" stroke-width="2" fill="none" />
<polyline points="345.0,199.5,348.5,203.5" stroke="black" stroke-width="2" fill="none" />
<polyline points="348.5,205.5,345.0,201.0" stroke="black" stroke-width="2" fill="none" />
<polyline points="344.0,199.5,343.0,203.0,347.0,207.0" stroke="black" stroke-width="2" fill="none" />
<polyline points="346.5,210.0,342.5,207.5" stroke="black" stroke-width="2" fill="none" />
<polyline points="342.5,205.5,347.5,209.5,351.0,213.5" stroke="black" stroke-width="2" fill="none" />
<polyline points="357.0,223.5,353.5,216.0,350.0,211.0,346.0,207.0,342.0,204.0" stroke="black" stroke-width="2" fill="none" />
<polyline points="341.5,201.5,345.0,204.0,349.0,207.0,352.5,209.5,353.5,207.5" stroke="black" stroke-width="2" fill="none" />
<polyline points="343.0,215.5,339.0,207.0" stroke="black" stroke-width="2" fill="none" />
<polyline points="339.0,203.5,341.5,207.5,346.5,211.5,350.0,215.5,353.0,219.0,355.0,222.5,357.5,227.5,359.5,231.0,361.0,235.0,362.0,239.0,363.0,243.5,363.5,247.0" stroke="black" stroke-width="2" fill="none" />
<polyline points="363.5,245.5,364.5,249.5" stroke="black" stroke-width="2" fill="none" />
<polyline points="352.0,251.0,348.5,252.0,346.0,256.5,342.0,257.0,338.5,258.0,334.5,259.5,330.5,260.5,326.5,262.0,322.5,265.5,318.5,272.5" stroke="black" stroke-width="2" fill="none" />
<polyline points="320.5,274.5,325.0,276.0" stroke="black" stroke-width="2" fill="none" />
<polyline points="329.5,273.5,327.0,271.5,329.5,271.0,335.0,269.5,331.0,269.5,327.0,268.0" stroke="black" stroke-width="2" fill="none" />
<polyline points="324.5,268.5,328.5,275.0,332.0,276.0,336.0,273.5,335.0,271.5" stroke="black" stroke-width="2" fill="none" />
<polyline points="336.0,277.0,336.5,281.5" stroke="black" stroke-width="2" fill="none" />
<polyline points="335.5,281.0,340.0,282.5,344.0,280.0,348.5,279.5,349.0,283.0,350.5,286.5,350.0,290.0,350.5,294.0,349.5,298.0,348.0,302.0,347.5,306.0,344.5,310.0,347.0,312.5,345.5,317.0,343.5,321.0,341.5,325.0,339.5,329.5,337.0,333.5,335.5,337.5,333.5,342.0,332.0,346.0,330.0,350.0,327.5,353.5,325.0,357.5,323.0,361.0,320.0,365.0,317.5,369.0,315.5,372.5,314.0,376.5,312.5,381.0,313.0,384.5,310.5,389.0,317.0,392.0,326.0,396.0,335.0,400.0,341.0,404.0,346.5,408.5,350.0,412.5,353.5,416.5,356.0,420.0,358.5,424.0,360.5,428.0,362.5,432.5,364.0,436.5,365.0,440.5,366.0,444.5,367.5,448.5,369.0,452.5,370.0,456.0,371.0,459.5,372.5,463.0,373.5,467.5,375.0,472.0,375.5,476.5,376.5,480.5,377.5,485.0,378.5,489.0,379.0,492.5,380.0,496.5,381.0,500.0,381.5,504.0,383.0,508.0,383.5,512.0" stroke="black" stroke-width="2" fill="none" />
<polyline points="421.0,489.5,425.0,494.5,429.0,493.5,433.5,490.5,438.0,487.5,442.0,483.5,446.5,480.0,450.5,475.0,453.5,470.0,457.0,467.0" stroke="black" stroke-width="2" fill="none" />
<polyline points="457.5,467.0,452.0,470.5,449.5,469.0,453.5,462.5" stroke="black" stroke-width="2" fill="none" />
<polyline points="457.0,450.5,461.0,441.5" stroke="black" stroke-width="2" fill="none" />
<polyline points="466.5,431.0,470.5,424.0,474.5,417.5,478.0,408.5,481.5,405.5,485.0,401.0,489.0,398.5,492.5,394.5,494.0,391.0,498.0,389.0,502.5,387.5,506.0,386.0,509.5,384.5" stroke="black" stroke-width="2" fill="none" />
<polyline points="511.5,383.5,501.0,388.0,492.0,392.0,490.5,396.5,485.5,400.5,482.5,404.5,477.5,408.5,475.5,412.5,474.5,416.5,472.0,421.0,470.0,425.0,468.5,429.0,466.5,432.0,463.0,436.0,462.0,439.5,460.0,443.5,458.5,447.5,456.5,451.0,455.5,454.5,455.0,458.5,453.5,463.0,451.5,467.0,449.5,471.0,450.0,475.5,446.5,479.5,442.0,483.5,437.5,488.0,432.5,492.0" stroke="black" stroke-width="2" fill="none" />
<polyline points="430.5,481.0,429.5,478.5,431.0,475.5,433.5,479.0,435.0,475.0,436.0,471.5,437.5,467.5,438.5,463.5,440.0,459.5,439.0,457.5,435.0,455.0,431.5,451.5" stroke="black" stroke-width="2" fill="none" />
<polyline points="437.5,457.5,434.0,455.5,430.5,451.5,430.0,447.5,430.5,443.5,431.0,440.0,432.5,436.0,434.0,432.0,432.0,435.0" stroke="black" stroke-width="2" fill="none" />
<polyline points="430.0,467.0,427.5,471.0,423.0,475.5,422.0,479.5,422.5,483.5,422.5,487.5,423.5,492.0" stroke="black" stroke-width="2" fill="none" />
<polyline points="430.0,467.0,426.0,472.0,422.0,475.5,419.0,470.5,417.5,466.5" stroke="black" stroke-width="2" fill="none" />
<polyline points="485.5,409.5,481.5,415.0,479.0,418.0,482.5,414.0,485.5,410.5,488.5,406.5" stroke="black" stroke-width="2" fill="none" />
<polyline points="445.0,424.0,446.5,422.5,447.5,418.5,448.5,414.5,449.5,410.0,450.5,405.5,451.0,402.0,451.0,398.0,450.5,394.0,451.0,390.0,452.5,386.0,454.0,382.0,454.5,378.0,455.0,374.5,455.0,370.5,454.0,367.0" stroke="black" stroke-width="2" fill="none" />
<polyline points="384.0,349.0,384.0,345.0,384.0,341.0,384.0,337.5,383.5,333.5,383.0,329.5" stroke="black" stroke-width="2" fill="none" />
<polyline points="366.0,352.0,366.5,355.5,367.5,359.5,367.5,364.0,367.5,367.5,371.0,372.5,371.5,377.0,371.5,381.0,371.5,385.0" stroke="black" stroke-width="2" fill="none" />
<polyline points="320.0,349.0,319.0,345.0,318.5,343.5" stroke="black" stroke-width="2" fill="none" />
<polyline points="320.0,347.5,316.0,350.5,312.0,350.5,308.0,352.5" stroke="black" stroke-width="2" fill="none" />
<polyline points="309.0,355.5,306.0,356.0,302.0,356.0,298.0,356.0,294.5,355.5" stroke="black" stroke-width="2" fill="none" />
<polyline points="293.5,358.5,297.5,360.0,301.5,359.0,305.5,360.0,309.5,358.5,309.5,358.5,308.0,362.5" stroke="black" stroke-width="2" fill="none" />
<polyline points="315.0,346.0,311.0,347.0,307.0,347.0,303.5,346.5,299.0,347.0,295.5,348.0" stroke="black" stroke-width="2" fill="none" />
<polyline points="304.5,335.5,303.0,331.5,313.5,328.5,313.0,329.0,309.0,331.0,305.0,332.0" stroke="black" stroke-width="2" fill="none" />
<polyline points="307.5,328.0,303.5,326.5,300.0,325.5,296.0,324.5" stroke="black" stroke-width="2" fill="none" />
<polyline points="294.5,325.0,299.0,323.5,302.5,324.0,306.5,325.5" stroke="black" stroke-width="2" fill="none" />
<polyline points="319.5,326.0,321.5,324.0,323.0,320.0,322.0,316.0,321.5,312.0,320.5,308.0,320.5,304.0" stroke="black" stroke-width="2" fill="none" />
<polyline points="342.5,281.5,342.0,281.5,339.5,281.0,341.0,274.5,342.5,270.5,340.5,265.0,336.5,263.5" stroke="black" stroke-width="2" fill="none" />
<polyline points="334.5,264.0,337.5,263.5,337.5,268.0,335.5,272.0,335.0,270.5" stroke="black" stroke-width="2" fill="none" />
<polyline points="326.5,274.0,324.0,270.5" stroke="black" stroke-width="2" fill="none" />
<polyline points="322.5,268.0,322.0,272.0,322.5,276.0,329.5,278.0,333.5,279.0,337.5,279.0,341.5,277.5,348.5,279.0" stroke="black" stroke-width="2" fill="none" />
<polyline points="362.0,281.0,363.0,280.0,364.0,276.5,364.5,272.5,364.0,268.0,364.5,264.0" stroke="black" stroke-width="2" fill="none" />
<polyline points="366.5,264.0,366.5,268.5,366.0,272.5,365.5,276.5,365.0,280.5,365.0,284.5,365.0,288.5,364.5,292.5,364.0,296.0,363.5,300.0,363.5,304.0,363.5,307.5,364.0,311.5" stroke="black" stroke-width="2" fill="none" />
<polyline points="374.0,293.5,374.0,297.5,373.5,301.5,374.0,305.5,374.5,309.5,374.5,313.0,374.5,317.0,376.5,323.5,376.5,327.5,377.0,331.5,378.0,335.5,378.0,339.0,378.5,343.0,379.0,347.5,379.5,351.0,380.5,355.0,381.5,359.5" stroke="black" stroke-width="2" fill="none" />
<polyline points="378.5,290.5,378.5,286.5,378.0,282.0,380.0,278.0,382.0,273.5,381.5,269.5,382.5,265.0" stroke="black" stroke-width="2" fill="none" />
<polyline points="350.0,255.0,346.0,257.0" stroke="black" stroke-width="2" fill="none" />
<polyline points="345.0,254.5,340.5,254.0,336.5,255.0,332.5,255.5" stroke="black" stroke-width="2" fill="none" />
<polyline points="336.0,253.5,329.5,257.5,327.0,262.5,322.5,266.5,320.0,270.5,319.0,274.5,318.5,275.5,322.5,277.5" stroke="black" stroke-width="2" fill="none" />
<polyline points="326.5,258.0,331.0,254.5,334.5,252.5,338.5,251.5,342.0,250.5,346.5,247.5,351.0,244.5" stroke="black" stroke-width="2" fill="none" />
<polyline points="353.5,242.0,350.0,246.0,344.5,250.0,341.0,253.5" stroke="black" stroke-width="2" fill="none" />
<polyline points="348.5,239.5,347.5,235.5,345.5,231.5,344.5,227.5,343.5,223.0,342.0,219.0,341.5,214.5,340.0,211.0,336.0,204.0" stroke="black" stroke-width="2" fill="none" />
<polyline points="334.5,202.0,338.5,200.0,342.5,197.0,346.5,195.0,350.5,193.5,354.5,191.5,358.5,189.5,363.0,187.0,367.0,185.0,371.0,183.5,375.0,182.0,379.0,181.0,383.0,179.5,387.0,177.0,391.5,174.5,395.0,172.5,399.0,170.5,402.5,168.5,406.5,167.0,403.0,170.5,401.0,174.5,398.0,178.5,393.5,182.5,387.5,186.5,382.0,189.0,386.0,187.5,390.0,185.0,394.0,182.5,397.5,179.0,401.5,174.5" stroke="black" stroke-width="2" fill="none" />
<polyline points="402.0,165.5,404.5,159.0,403.5,162.5,403.5,167.0,397.0,171.0,389.5,175.0,382.5,179.0" stroke="black" stroke-width="2" fill="none" />
<polyline points="373.0,183.5,363.0,187.5,357.0,191.0,350.0,195.0,342.0,199.0,336.5,202.5,336.5,206.0,341.5,208.5,345.5,212.5,351.0,212.5" stroke="black" stroke-width="2" fill="none" />
<polyline points="360.5,190.5,364.5,195.5,369.0,194.5,373.0,193.0,376.5,191.0" stroke="black" stroke-width="2" fill="none" />
<polyline points="364.0,193.0,361.5,189.0" stroke="black" stroke-width="2" fill="none" />
<polyline points="338.0,153.0,331.0,157.0,325.0,161.0,317.5,165.0,311.0,169.0,305.0,173.0,299.5,176.5,295.0,180.5" stroke="black" stroke-width="2" fill="none" />
<polyline points="290.0,177.5,286.0,176.0" stroke="black" stroke-width="2" fill="none" />
<polyline points="283.0,174.5,287.0,174.5,290.5,174.5,294.5,179.0" stroke="black" stroke-width="2" fill="none" />
<polyline points="288.5,179.5,284.0,177.5,280.0,175.5" stroke="black" stroke-width="2" fill="none" />
<polyline points="279.0,179.0,275.0,179.0,271.0,179.5,266.5,178.5,262.5,177.0,258.5,176.0,254.0,175.5,250.0,170.5,245.5,170.0,241.5,167.5" stroke="black" stroke-width="2" fill="none" />
<polyline points="244.5,171.5,240.5,175.5,240.0,179.5,238.0,183.5,232.5,186.5,236.5,184.0,242.5,181.5,246.5,181.5,251.0,178.5" stroke="black" stroke-width="2" fill="none" />
<polyline points="252.0,179.0,248.0,182.5,243.5,185.0,245.5,187.5,242.0,192.0,238.5,196.0,235.5,199.5,233.5,203.0,231.5,207.0,228.5,210.5,230.0,210.5,229.5,209.5,233.5,208.5" stroke="black" stroke-width="2" fill="none" />
<polyline points="235.5,208.5,236.0,204.5,238.0,201.0,235.0,202.5" stroke="black" stroke-width="2" fill="none" />
<polyline points="237.0,202.5,236.5,206.5" stroke="black" stroke-width="2" fill="none" />
<polyline points="241.5,210.5,245.5,211.0,249.5,211.0" stroke="black" stroke-width="2" fill="none" />
<polyline points="252.5,203.5,257.0,202.0,261.0,198.0,265.0,193.5,270.5,188.0,271.0,192.0,270.0,196.0,269.5,200.0,268.0,204.0,264.5,208.0,264.0,212.0,263.0,216.0,265.0,217.5,263.0,219.0,260.0,223.0,256.0,226.5,251.0,231.5,247.0,235.5,244.0,239.0,240.0,243.0,237.0,247.0,234.0,251.0,231.0,255.0,228.0,259.0,226.5,263.0,224.0,267.0,222.0,271.0,220.0,275.0,217.5,279.0,215.0,283.5,217.0,279.5,221.0,272.0,225.0,265.5,228.5,258.5,232.5,254.0,236.5,248.5,240.5,243.5,245.0,238.5,249.0,234.0,253.5,229.5,259.0,224.0,263.0,225.0,263.0,226.0,262.5,230.5,262.5,234.5,262.0,238.5" stroke="black" stroke-width="2" fill="none" />
<polyline points="264.5,239.5,264.0,235.5" stroke="black" stroke-width="2" fill="none" />
<polyline points="268.0,225.0,264.0,220.5" stroke="black" stroke-width="2" fill="none" />
<polyline points="268.5,213.0,268.5,211.5,273.0,207.0,276.5,203.5,281.0,200.0,284.5,196.0,288.5,193.0,292.5,190.0,296.0,187.5,300.0,184.0,303.5,182.0,308.0,179.5" stroke="black" stroke-width="2" fill="none" />
<polyline points="309.0,175.0,304.5,177.5,300.5,180.0,296.5,183.0,292.5,186.0,288.5,189.5,284.5,193.0,280.5,196.5,276.5,200.0,273.0,203.0,268.5,205.5,264.0,213.0,263.0,217.0,259.0,220.5,255.0,224.0,251.0,228.5,247.0,233.0,243.0,237.5,239.0,242.0,235.0,247.0,231.0,251.5,227.0,257.0,223.0,262.5,219.0,269.0,215.0,276.0,211.0,284.5,206.5,293.0,202.5,302.0,198.5,312.0,199.0,319.5,196.0,316.0,198.5,312.0,200.0,308.0,202.0,304.0,204.0,300.0,206.5,296.0,208.5,292.5,210.5,288.5,212.0,285.0,214.0,281.0,216.0,277.0,219.0,273.0,221.0,269.0,223.0,265.0,226.0,261.0,228.5,256.5,231.5,251.5,235.0,247.0,237.5,242.5,241.5,238.5,244.5,234.5,247.5,231.0,251.0,227.5,254.5,224.0,258.0,220.0,259.5,215.0,259.5,211.0,261.0,207.5,263.0,203.0,264.0,199.0" stroke="black" stroke-width="2" fill="none" />
<polyline points="267.0,204.5,263.0,209.0" stroke="black" stroke-width="2" fill="none" />
<polyline points="259.5,207.0,263.5,199.5,261.5,200.5,259.5,205.0,258.0,209.5,257.5,213.5,256.0,218.5,253.0,222.0,250.0,226.0,246.5,230.5,243.0,234.5,240.5,239.0,236.5,243.0" stroke="black" stroke-width="2" fill="none" />
<polyline points="235.0,224.5,231.0,222.5" stroke="black" stroke-width="2" fill="none" />
<polyline points="234.0,222.0,230.0,219.5" stroke="black" stroke-width="2" fill="none" />
<polyline points="227.0,215.0,225.0,219.5,228.5,228.0" stroke="black" stroke-width="2" fill="none" />
<polyline points="218.0,232.5,219.0,236.5" stroke="black" stroke-width="2" fill="none" />
<polyline points="217.0,232.0,220.5,231.0,221.0,235.0,221.5,239.0,219.5,243.0,218.0,247.0" stroke="black" stroke-width="2" fill="none" />
<polyline points="220.5,249.0,221.5,245.5,223.5,241.5,224.0,237.0,227.5,233.0,222.0,232.0,224.5,229.0,221.5,228.0,221.5,224.0,221.5,220.5,221.0,217.0,221.5,213.0" stroke="black" stroke-width="2" fill="none" />
<polyline points="218.0,215.5,217.5,219.5,218.5,223.5,216.5,226.5,219.5,231.0,224.0,230.5,229.5,235.0" stroke="black" stroke-width="2" fill="none" />
<polyline points="213.0,236.5,212.5,238.5,215.5,242.0,216.0,246.0,216.5,250.0" stroke="black" stroke-width="2" fill="none" />
<polyline points="214.0,247.0,214.5,251.0,217.0,255.5" stroke="black" stroke-width="2" fill="none" />
<polyline points="212.0,254.0,209.0,249.0,206.5,247.5,207.5,244.0,209.0,240.5,210.0,236.5,211.5,232.5,210.0,237.0" stroke="black" stroke-width="2" fill="none" />
<polyline points="211.0,237.5,212.0,235.5,211.0,239.5,209.5,243.0,209.0,244.0" stroke="black" stroke-width="2" fill="none" />
<polyline points="206.0,249.0,210.0,253.5,214.0,255.5" stroke="black" stroke-width="2" fill="none" />
<polyline points="206.5,251.5,205.0,250.5" stroke="black" stroke-width="2" fill="none" />
<polyline points="197.5,259.0,202.0,263.0,206.0,265.0" stroke="black" stroke-width="2" fill="none" />
<polyline points="203.5,266.5,199.5,266.5,195.5,261.5,195.0,254.5,191.0,251.0" stroke="black" stroke-width="2" fill="none" />
<polyline points="188.5,252.5,194.0,252.0,196.0,256.0,198.0,260.0,204.0,264.0" stroke="black" stroke-width="2" fill="none" />
<polyline points="187.0,271.5,185.5,269.5,184.5,265.5,184.0,261.5,183.5,257.0,183.5,253.0,185.5,249.5,186.0,244.0,190.5,241.0,194.5,237.0,197.5,233.0,194.0,238.0,190.0,241.5,186.5,242.5" stroke="black" stroke-width="2" fill="none" />
<polyline points="193.0,239.0,190.0,234.5,189.0,230.5,189.5,227.0,191.0,222.5,193.5,218.5,192.5,219.5,188.5,228.5" stroke="black" stroke-width="2" fill="none" />
<polyline points="186.5,223.5,190.5,216.5,189.0,219.0,186.5,223.0,186.0,227.5,186.0,231.5,187.5,235.0" stroke="black" stroke-width="2" fill="none" />
<polyline points="186.5,233.5,190.5,240.0" stroke="black" stroke-width="2" fill="none" />
<polyline points="198.5,235.5,196.5,239.5,192.0,243.0,187.0,246.5,190.5,244.5,195.0,241.0,199.0,235.0" stroke="black" stroke-width="2" fill="none" />
<polyline points="210.0,227.0,205.5,221.5" stroke="black" stroke-width="2" fill="none" />
<polyline points="211.5,215.0,213.5,219.0,215.5,226.0,218.5,230.0,217.0,234.5" stroke="black" stroke-width="2" fill="none" />
<polyline points="213.0,237.5,213.5,241.0,213.0,245.0,212.0,249.0,213.0,250.5,213.5,254.5,214.5,255.5" stroke="black" stroke-width="2" fill="none" />
<polyline points="204.0,267.0,197.5,264.0,194.0,260.0,193.0,255.5,192.0,251.5,188.0,250.0,184.0,252.5" stroke="black" stroke-width="2" fill="none" />
<polyline points="183.5,253.5,185.0,256.5,185.0,261.0,186.0,265.5,187.0,269.5" stroke="black" stroke-width="2" fill="none" />
<polyline points="182.0,262.5,178.0,255.5" stroke="black" stroke-width="2" fill="none" />
<polyline points="178.5,257.0,178.0,261.5" stroke="black" stroke-width="2" fill="none" />
<polyline points="179.0,262.0,175.0,255.0" stroke="black" stroke-width="2" fill="none" />
<polyline points="175.5,252.5,176.5,256.5,176.5,260.0,176.0,264.0" stroke="black" stroke-width="2" fill="none" />
<polyline points="178.0,260.0,180.5,264.0" stroke="black" stroke-width="2" fill="none" />
<polyline points="171.0,256.5,175.0,251.0,173.5,255.0,172.0,259.0,171.5,263.0,170.5,267.0,169.5,271.0,170.0,275.0,167.0,279.0,168.5,279.5" stroke="black" stroke-width="2" fill="none" />
<polyline points="171.5,279.5,169.5,283.5,167.0,287.0,165.5,289.5" stroke="black" stroke-width="2" fill="none" />
<polyline points="171.5,294.5,175.5,294.0,178.0,292.0" stroke="black" stroke-width="2" fill="none" />
<polyline points="179.5,295.5,175.5,300.0,172.5,306.5,168.0,311.0,164.5,313.5,163.0,318.0,160.5,319.0,156.5,320.5,157.0,319.0,157.0,316.0,158.5,313.5,156.5,310.0,157.5,304.5,162.0,301.5,161.5,297.5,157.5,292.0,153.5,290.5,150.0,287.0,149.0,283.0,148.5,278.5,149.0,274.5,149.0,270.5,153.0,267.0,155.5,263.0,158.0,259.0,162.0,257.0,158.0,262.5,153.5,267.0,149.5,271.0" stroke="black" stroke-width="2" fill="none" />
<polyline points="150.5,273.5,154.5,274.0,158.5,272.5,162.5,279.5" stroke="black" stroke-width="2" fill="none" />
<polyline points="165.5,276.5,166.0,276.0,165.5,271.5,166.0,267.5,163.5,262.5,165.0,259.0,164.0,264.5" stroke="black" stroke-width="2" fill="none" />
<polyline points="162.0,257.5,163.5,259.0,162.0,263.0,161.0,267.5,160.0,271.0,159.5,275.0,161.0,279.0,160.0,284.0" stroke="black" stroke-width="2" fill="none" />
<polyline points="159.5,284.5,155.5,281.0" stroke="black" stroke-width="2" fill="none" />
<polyline points="153.5,283.0,157.5,288.5,161.5,291.0" stroke="black" stroke-width="2" fill="none" />
<polyline points="159.0,297.0,154.5,294.0" stroke="black" stroke-width="2" fill="none" />
<polyline points="153.5,293.5,157.0,297.5" stroke="black" stroke-width="2" fill="none" />
<polyline points="158.0,299.5,154.5,295.5,151.5,291.5,152.0,287.5,151.0,282.0,151.0,278.0,151.0,272.5,154.0,268.0,157.5,264.0,160.5,259.5,162.5,255.5,163.5,251.0,165.5,247.0,167.0,243.0,168.0,239.0,170.0,237.5,165.0,243.0,161.0,251.0,155.5,256.5,151.5,257.5,146.0,257.0,142.0,258.0,138.5,264.0,136.0,264.5,135.5,259.0,132.5,262.0,128.5,263.5,127.5,266.0,132.0,262.0,131.5,257.5,130.5,253.5,128.0,249.5,130.0,245.5,136.5,245.0,137.0,241.0,140.5,237.5,138.0,234.0,135.5,230.5,134.5,226.5,133.0,222.5,132.5,218.5,132.0,214.0,130.5,210.0,128.0,206.0,125.5,202.0,124.0,198.5,123.5,194.5,122.0,190.5,121.5,186.5,121.0,182.0,120.5,178.0,120.0,174.0,120.0,170.0,120.5,166.0,121.5,162.0,121.5,158.0,122.0,154.0,122.0,150.0,123.0,146.0,124.0,141.5,124.5,137.0,124.5,132.5,125.5,128.5,126.5,124.5,127.5,120.5,129.0,116.5,130.5,113.0,132.0,109.5,133.5,105.5,136.0,105.0,137.5,101.5,137.5,101.5,133.5,106.5" stroke="black" stroke-width="2" fill="none" />
<polyline points="127.5,122.5,131.0,113.0,135.0,105.0,134.5,109.0,134.0,113.0,133.5,116.5,132.5,120.5,132.0,124.5,132.5,128.5,132.0,132.0,130.5,136.0,128.0,140.5,128.5,144.5,130.0,145.0,128.0,149.5,129.0,152.0,129.5,154.0,126.0,158.0,130.0,156.0,128.5,148.0" stroke="black" stroke-width="2" fill="none" />
<polyline points="130.0,153.5,133.5,155.0,132.0,156.0,133.0,160.0,135.5,162.5,132.0,166.5,127.5,170.5,131.0,166.5,133.5,161.5" stroke="black" stroke-width="2" fill="none" />
<polyline points="142.0,164.0,138.5,168.5,138.5,170.5,135.5,174.5,132.0,178.5,133.5,172.0" stroke="black" stroke-width="2" fill="none" />
<polyline points="133.5,171.5,129.5,175.5,132.5,175.5,137.0,173.0,139.5,168.5" stroke="black" stroke-width="2" fill="none" />
<polyline points="141.0,168.0,140.0,172.0,136.0,176.5,130.5,177.0,134.5,173.0" stroke="black" stroke-width="2" fill="none" />
<polyline points="140.0,175.5,136.0,179.5,134.5,180.5,138.5,176.5,141.0,172.0" stroke="black" stroke-width="2" fill="none" />
<polyline points="142.5,169.0,139.0,173.0,135.5,177.0,133.5,177.5" stroke="black" stroke-width="2" fill="none" />
<polyline points="141.0,180.0,137.0,185.5,133.0,189.5" stroke="black" stroke-width="2" fill="none" />
<polyline points="135.0,191.0,140.0,189.5,143.5,186.5,144.5,181.0,148.5,180.5" stroke="black" stroke-width="2" fill="none" />
<polyline points="147.0,184.5,151.5,189.5" stroke="black" stroke-width="2" fill="none" />
<polyline points="145.5,188.0,149.5,193.0,153.5,193.5,159.0,186.5,163.0,181.5,167.0,176.5,170.5,172.0,174.5,168.0,178.5,164.5,182.0,161.0,186.0,157.5,190.0,154.0,194.5,150.0,199.0,147.0,203.5,143.5" stroke="black" stroke-width="2" fill="none" />
<polyline points="205.0,146.5,209.0,150.0,213.5,153.5,217.5,158.0,221.5,160.0" stroke="black" stroke-width="2" fill="none" />
<polyline points="226.5,164.0,223.0,158.5,227.5,155.0,223.5,159.0,220.0,158.0,215.5,154.0" stroke="black" stroke-width="2" fill="none" />
<polyline points="216.0,152.0,220.0,156.0,226.5,162.0" stroke="black" stroke-width="2" fill="none" />
<polyline points="229.5,174.5,225.5,174.5,221.5,175.0,218.0,178.5,214.5,182.0,210.5,186.0,206.5,191.0" stroke="black" stroke-width="2" fill="none" />
<polyline points="205.0,190.0,209.0,186.0,212.5,181.5,217.0,177.0,220.5,173.5,225.0,172.5,228.5,172.5,232.5,172.5,236.5,173.5,240.0,171.0,238.0,175.0,236.0,176.0" stroke="black" stroke-width="2" fill="none" />
<polyline points="234.0,181.5,230.0,185.5,230.0,187.5,222.5,192.5,217.0,196.5,210.0,203.0,206.0,207.0,202.5,212.5,203.0,216.5,205.0,216.5,205.0,222.0,208.0,226.0" stroke="black" stroke-width="2" fill="none" />
<polyline points="215.5,221.0,212.0,215.0" stroke="black" stroke-width="2" fill="none" />
<polyline points="203.5,208.0,207.5,204.5,211.5,201.5,214.0,198.0,218.0,195.0,222.0,193.0,226.0,190.5" stroke="black" stroke-width="2" fill="none" />
<polyline points="227.5,192.5,220.5,196.5,214.5,202.5,210.0,207.0,208.0,211.5,208.0,211.5,211.0,206.0,215.0,204.0,218.0,199.0,222.0,196.0,225.5,193.5,230.0,192.5" stroke="black" stroke-width="2" fill="none" />
<polyline points="239.0,195.0,243.0,190.5" stroke="black" stroke-width="2" fill="none" />
<polyline points="243.0,198.0,247.0,193.0,251.0,190.0,254.5,188.0,249.0,188.0,246.0,192.0,243.0,193.5,247.5,189.5,251.0,188.0,255.5,183.5,256.0,187.0,260.5,184.5,264.0,182.0,268.0,180.5" stroke="black" stroke-width="2" fill="none" />
<polyline points="267.0,181.0,263.5,185.0,258.0,188.5,254.5,190.5,253.5,194.5,249.5,198.0,246.5,202.5,246.0,203.0,250.0,203.5,250.0,200.5,253.5,196.5,258.0,192.5,262.0,189.0,266.5,186.0,271.0,187.5" stroke="black" stroke-width="2" fill="none" />
<polyline points="267.5,189.0,263.5,190.5,259.5,194.0,256.5,201.0,260.0,197.0,263.5,193.0,266.5,189.0" stroke="black" stroke-width="2" fill="none" />
<polyline points="265.0,188.0,260.5,192.0,257.5,196.0,253.0,200.0,252.0,204.5,252.0,209.0,253.5,214.5,253.5,217.0" stroke="black" stroke-width="2" fill="none" />
<polyline points="252.0,203.0,256.0,199.0" stroke="black" stroke-width="2" fill="none" />
<polyline points="262.5,199.5,259.0,208.0,256.5,214.5,253.0,218.0,249.0,222.0,245.5,226.5,241.5,231.0,238.0,236.0,234.0,235.5,233.0,234.5,232.0,230.5,231.0,226.5,230.0,223.0,228.5,219.0,226.5,215.5,224.5,215.0,223.5,211.0,224.0,207.0,224.5,203.0" stroke="black" stroke-width="2" fill="none" />
<polyline points="221.5,205.0,225.0,200.5,227.5,197.5,224.0,201.5,221.5,205.5,220.0,209.5,222.5,213.0,223.0,216.0,224.5,220.0,227.5,224.5,228.5,228.5,229.5,233.0,230.0,236.5,233.0,240.5,230.0,245.0,227.5,248.5,225.0,252.5,222.0,256.0,220.5,259.5,218.0,263.5,215.5,267.5,213.5,272.0,210.5,275.5,208.0,280.0,205.5,284.0,203.0,288.0,200.5,292.5,198.5,296.0,195.5,300.0,194.5,304.0,192.0,308.0,190.5,312.0,188.0,316.0,191.0,319.5,195.0,321.0,199.5,319.5,205.0,313.5,209.5,308.5,213.5,301.5,217.5,296.0,221.5,290.5,226.0,285.5,230.0,281.5,234.0,278.0,238.0,273.5,242.0,269.0,246.0,265.5,249.5,261.5,253.0,258.0,257.0,254.5,261.0,250.5,264.5,248.0,268.5,245.5,273.5,246.0,277.5,249.0,281.5,250.0,285.5,250.5,289.0,250.5,293.0,253.0,297.0,256.0" stroke="black" stroke-width="2" fill="none" />
<polyline points="288.5,256.5,286.0,256.5,283.5,258.0,285.5,259.5" stroke="black" stroke-width="2" fill="none" />
<polyline points="287.0,261.0,288.0,267.5,290.0,271.5" stroke="black" stroke-width="2" fill="none" />
<polyline points="292.0,273.0,288.0,266.5" stroke="black" stroke-width="2" fill="none" />
<polyline points="285.5,266.0,286.5,270.0" stroke="black" stroke-width="2" fill="none" />
<polyline points="285.5,277.0,281.5,276.5" stroke="black" stroke-width="2" fill="none" />
<polyline points="289.0,272.0,284.5,269.5,280.5,265.0,276.5,263.0,272.5,265.0" stroke="black" stroke-width="2" fill="none" />
<polyline points="269.0,266.0,268.5,266.0,270.0,270.5" stroke="black" stroke-width="2" fill="none" />
<polyline points="271.5,266.0,267.0,270.0,262.5,267.5" stroke="black" stroke-width="2" fill="none" />
<polyline points="261.0,268.0,265.0,272.5,269.0,273.0,273.0,269.0,274.0,268.0,271.0,272.0,271.0,277.0,273.5,281.5,275.0,282.0" stroke="black" stroke-width="2" fill="none" />
<polyline points="263.5,280.0,264.5,276.0,258.5,274.0,258.5,270.5,257.5,266.5,257.0,266.5" stroke="black" stroke-width="2" fill="none" />
<polyline points="259.5,265.5,261.5,269.5,266.5,274.0,267.0,281.0" stroke="black" stroke-width="2" fill="none" />
<polyline points="260.5,271.5,256.5,274.0,252.5,270.0,248.0,267.5" stroke="black" stroke-width="2" fill="none" />
<polyline points="247.5,267.5,250.5,266.0,249.0,270.0,253.0,273.5,255.5,277.5,263.0,276.0,267.0,277.0,270.0,275.5,274.0,278.0,278.5,278.0,283.0,271.0,279.5,274.5,278.0,280.5" stroke="black" stroke-width="2" fill="none" />
<polyline points="267.5,271.5,263.0,269.5,262.0,267.5,263.5,266.0" stroke="black" stroke-width="2" fill="none" />
<polyline points="255.0,259.5,259.0,259.0,261.5,257.0,265.0,258.0,269.0,256.0,271.5,254.5,275.5,257.5,280.5,256.5" stroke="black" stroke-width="2" fill="none" />
<polyline points="278.5,250.5,282.5,251.5,282.0,257.0,287.0,261.0,290.5,265.0,292.5,269.0" stroke="black" stroke-width="2" fill="none" />
<polyline points="288.5,276.5,286.0,280.5,287.5,279.5,286.0,277.0,285.0,272.5,282.5,268.0,277.5,264.0" stroke="black" stroke-width="2" fill="none" />
<polyline points="278.0,254.0,275.5,250.0,271.0,248.5,267.0,248.5,263.0,251.0" stroke="black" stroke-width="2" fill="none" />
<polyline points="269.5,257.5,272.5,253.5" stroke="black" stroke-width="2" fill="none" />
<polyline points="273.0,245.5,267.5,246.5,262.0,250.5,257.5,254.5,253.0,258.0,248.5,262.5,245.0,266.0,241.0,270.0,237.5,274.0,234.0,278.0,230.0,281.5,226.0,285.5,222.5,290.0,219.5,294.0,216.5,297.5,214.0,301.0,211.0,305.0,208.0,309.5,204.5,313.5,204.0,317.0,201.5,321.0,197.5,325.0,194.5,329.5,192.0,333.5,189.5,337.0,186.5,341.0,184.0,345.0,181.0,349.5,178.5,353.5,176.0,357.5,173.0,361.5,169.5,365.5,165.5,369.0,162.5,373.0,160.5,376.5,159.5,382.5,162.5,388.5,166.5,392.0,170.5,397.5,174.5,403.0,178.5,411.0" stroke="black" stroke-width="2" fill="none" />
<polyline points="172.0,407.0,168.0,403.0,163.5,402.5,157.0,396.0,152.5,391.5" stroke="black" stroke-width="2" fill="none" />
<polyline points="153.0,394.0,157.0,395.5" stroke="black" stroke-width="2" fill="none" />
<polyline points="156.5,399.5,152.5,396.0,150.5,397.5" stroke="black" stroke-width="2" fill="none" />
<polyline points="148.5,393.0,148.5,396.0,148.5,401.5,149.0,405.5,151.0,413.0,151.5,416.5,152.0,420.5" stroke="black" stroke-width="2" fill="none" />
<polyline points="156.0,421.0,155.5,420.5,156.0,424.5,157.0,428.5,157.0,433.0,157.0,435.5,156.5,439.0,156.5,441.0" stroke="black" stroke-width="2" fill="none" />
<polyline points="161.5,445.0,165.5,441.0,169.5,444.5,174.0,444.5,178.5,439.5,182.5,438.5,182.5,433.5" stroke="black" stroke-width="2" fill="none" />
<polyline points="178.0,439.0,174.0,443.0,177.5,442.5,181.5,444.5,185.5,440.5" stroke="black" stroke-width="2" fill="none" />
<polyline points="177.5,446.5,174.0,445.5" stroke="black" stroke-width="2" fill="none" />
<polyline points="174.0,444.5,174.0,448.5,175.5,452.5,175.0,457.0" stroke="black" stroke-width="2" fill="none" />
<polyline points="173.0,461.0,169.0,455.0" stroke="black" stroke-width="2" fill="none" />
<polyline points="168.5,455.0,171.0,459.5,170.5,464.5,169.0,468.5,165.5,469.5" stroke="black" stroke-width="2" fill="none" />
<polyline points="165.5,470.5,162.0,470.0,156.0,473.0,152.5,470.0,148.5,463.5,144.5,454.5,140.5,452.0,136.5,457.0,133.0,466.0" stroke="black" stroke-width="2" fill="none" />
<polyline points="138.0,464.0,142.5,465.5,146.0,468.0,150.5,474.0,154.0,475.0" stroke="black" stroke-width="2" fill="none" />
<polyline points="155.0,466.5,149.0,460.0" stroke="black" stroke-width="2" fill="none" />
<polyline points="148.5,458.0,152.5,463.0,155.5,465.5" stroke="black" stroke-width="2" fill="none" />
<polyline points="159.0,461.0,155.0,458.5" stroke="black" stroke-width="2" fill="none" />
<polyline points="150.5,461.5,154.5,467.0,156.5,467.0,157.5,473.0,160.0,475.5,158.5,475.0,164.0,475.5,166.0,471.0" stroke="black" stroke-width="2" fill="none" />
<polyline points="163.5,469.5,167.5,473.5,169.0,477.0,166.5,481.0,165.5,485.5,167.5,489.5,168.0,492.0" stroke="black" stroke-width="2" fill="none" />
<polyline points="165.5,498.5,161.5,496.5" stroke="black" stroke-width="2" fill="none" />
<polyline points="159.0,501.5,161.5,505.5,163.0,509.0" stroke="black" stroke-width="2" fill="none" />
<polyline points="163.5,504.0,165.0,505.0,168.5,509.0" stroke="black" stroke-width="2" fill="none" />
<polyline points="156.0,510.5,152.0,505.5" stroke="black" stroke-width="2" fill="none" />
<polyline points="154.0,498.5,150.0,493.0" stroke="black" stroke-width="2" fill="none" />
<polyline points="149.0,496.0,152.5,502.5" stroke="black" stroke-width="2" fill="none" />
<polyline points="152.0,492.0,151.0,486.5,147.0,482.5" stroke="black" stroke-width="2" fill="none" />
<polyline points="149.0,482.0,149.0,486.5,152.5,490.5,155.5,490.5,155.5,494.5,156.5,498.5,158.0,502.5,158.5,506.5,159.5,507.5,165.5,510.5" stroke="black" stroke-width="2" fill="none" />
<polyline points="151.5,510.0,147.5,500.5,143.5,495.5" stroke="black" stroke-width="2" fill="none" />
<polyline points="143.5,496.0,147.0,500.0,149.0,504.0,150.5,507.5,152.0,511.5" stroke="black" stroke-width="2" fill="none" />
<polyline points="156.5,506.0,152.5,503.5,148.0,496.5,146.5,492.0,142.5,483.5" stroke="black" stroke-width="2" fill="none" />
<polyline points="141.0,484.5,143.5,489.0,145.0,493.0,147.5,497.0,150.0,500.5,152.0,504.5,152.5,508.5,155.5,512.5" stroke="black" stroke-width="2" fill="none" />
<polyline points="152.5,505.5,153.5,503.5,151.0,499.5,148.5,495.5,144.0,492.0,140.0,484.5" stroke="black" stroke-width="2" fill="none" />
<polyline points="134.5,484.5,136.0,488.5,135.0,490.0,137.0,494.0,137.0,497.5,138.5,501.5,138.0,505.0" stroke="black" stroke-width="2" fill="none" />
<polyline points="142.5,513.0,144.0,509.5,141.5,505.5,140.0,501.0,139.0,497.0,134.5,492.0,134.0,486.0" stroke="black" stroke-width="2" fill="none" />
<polyline points="132.5,483.5,136.5,487.0,137.0,494.5" stroke="black" stroke-width="2" fill="none" />
<polyline points="129.0,498.0,133.5,506.5" stroke="black" stroke-width="2" fill="none" />
<polyline points="130.5,509.0,126.5,503.0,123.0,495.0" stroke="black" stroke-width="2" fill="none" />
<polyline points="124.0,491.5,124.5,493.5,125.0,498.5,124.5,502.5,124.0,506.5,123.5,510.0" stroke="black" stroke-width="2" fill="none" />
<polyline points="126.5,504.5,129.0,508.5,132.0,512.5" stroke="black" stroke-width="2" fill="none" />
<polyline points="125.5,511.0,125.0,507.5,126.0,503.0,123.5,499.0" stroke="black" stroke-width="2" fill="none" />
<polyline points="115.0,489.5,115.0,493.5,114.5,497.5,113.0,501.5,112.5,505.0,111.5,509.0,110.5,513.0" stroke="black" stroke-width="2" fill="none" />
<polyline points="109.5,510.0,110.0,505.5,110.5,501.5,110.5,497.5,112.0,493.5,111.5,489.0,112.0,487.0" stroke="black" stroke-width="2" fill="none" />
<polyline points="121.0,484.5,120.5,488.0,119.5,492.0,119.5,496.0,121.0,500.0,120.5,504.0,120.0,508.5,120.5,512.5" stroke="black" stroke-width="2" fill="none" />
<polyline points="105.5,504.5,101.5,500.0" stroke="black" stroke-width="2" fill="none" />
<polyline points="100.5,491.5,99.5,495.5,101.0,499.5,103.0,503.5,105.0,507.5,106.5,512.0" stroke="black" stroke-width="2" fill="none" />
<polyline points="105.0,512.0,103.5,508.0,101.5,504.0,99.0,499.5,98.5,495.5,97.5,491.0" stroke="black" stroke-width="2" fill="none" />
<polyline points="96.0,469.0,92.0,473.0,93.0,472.0,96.5,468.0" stroke="black" stroke-width="2" fill="none" />
<polyline points="94.0,455.0,88.0,458.5,86.5,459.5,90.0,457.0,94.0,454.5" stroke="black" stroke-width="2" fill="none" />
<polyline points="92.0,451.5,88.0,455.0,84.0,457.0,82.0,458.5,88.5,455.0,92.5,451.0" stroke="black" stroke-width="2" fill="none" />
<polyline points="103.5,446.0,104.5,442.0,105.0,438.0" stroke="black" stroke-width="2" fill="none" />
<polyline points="104.0,436.5,102.0,440.5,99.5,443.0,103.5,439.5" stroke="black" stroke-width="2" fill="none" />
<polyline points="109.0,440.0,110.0,442.5,110.5,447.0" stroke="black" stroke-width="2" fill="none" />
<polyline points="120.0,451.0,122.0,455.5" stroke="black" stroke-width="2" fill="none" />
<polyline points="122.0,453.5,124.0,452.0,124.5,455.5" stroke="black" stroke-width="2" fill="none" />
<polyline points="139.0,451.5,141.0,455.5,142.0,460.0,142.0,464.0,144.5,467.5,146.0,472.0,149.5,476.0,153.5,478.5" stroke="black" stroke-width="2" fill="none" />
<polyline points="155.0,473.5,151.0,471.0,147.0,463.5" stroke="black" stroke-width="2" fill="none" />
<polyline points="148.5,467.5,152.0,472.0,157.5,476.0" stroke="black" stroke-width="2" fill="none" />
<polyline points="160.5,484.0,167.5,487.0,168.5,490.5" stroke="black" stroke-width="2" fill="none" />
<polyline points="168.5,482.0,166.0,481.0,164.0,483.0,166.0,479.0" stroke="black" stroke-width="2" fill="none" />
<polyline points="171.0,462.5,167.5,461.0" stroke="black" stroke-width="2" fill="none" />
<polyline points="176.0,463.5,178.0,459.0,179.5,455.0,173.5,458.5,171.5,454.0,169.0,450.0,167.5,447.5,166.0,443.5,166.5,440.5,167.5,435.5,167.5,431.5,168.5,432.0" stroke="black" stroke-width="2" fill="none" />
<polyline points="167.0,429.5,170.5,435.5,175.0,435.5" stroke="black" stroke-width="2" fill="none" />
<polyline points="177.5,426.5,176.5,423.0,174.5,419.0,175.5,415.0,172.5,414.0,169.0,409.5,166.0,405.5,163.0,401.0,163.5,397.0,165.0,400.5" stroke="black" stroke-width="2" fill="none" />
<polyline points="164.5,395.5,166.0,399.0,169.0,400.0,172.5,404.0,174.5,408.0,176.5,412.0,177.5,416.5,178.0,420.5,178.5,425.0" stroke="black" stroke-width="2" fill="none" />
<polyline points="171.5,428.5,170.5,425.0,167.0,419.0,169.5,415.0,168.0,411.0,165.0,406.5,161.5,406.5" stroke="black" stroke-width="2" fill="none" />
<polyline points="163.5,408.0,165.5,412.5,168.0,418.0" stroke="black" stroke-width="2" fill="none" />
<polyline points="167.0,414.5,163.0,408.5" stroke="black" stroke-width="2" fill="none" />
<polyline points="169.0,404.5,173.0,408.5,174.5,413.0,172.0,417.0,170.0,421.0,168.0,424.5,164.5,424.5,162.5,428.0,162.5,432.5,157.5,435.5,161.5,429.5,165.0,425.5,168.5,423.0,171.0,427.0" stroke="black" stroke-width="2" fill="none" />
<polyline points="166.5,426.5,168.5,430.0,170.5,434.5,169.5,438.0,169.5,439.0,174.5,438.5" stroke="black" stroke-width="2" fill="none" />
<polyline points="164.5,443.0,168.5,450.0,172.5,457.0,176.5,460.0" stroke="black" stroke-width="2" fill="none" />
<polyline points="163.0,462.5,160.5,458.0,159.5,455.0,159.5,450.5,161.5,446.5,162.5,442.5,163.5,442.5" stroke="black" stroke-width="2" fill="none" />
<polyline points="164.5,444.0,165.5,448.0,167.0,451.5,168.5,456.0,171.5,460.0,168.5,463.5,168.0,467.5,163.5,470.5,164.5,474.5,163.0,478.0,160.5,479.0,160.5,482.0,159.5,486.5,161.0,490.0,164.5,494.0,166.0,498.0,167.0,504.5,170.5,508.5,171.0,512.5,172.0,512.0" stroke="black" stroke-width="2" fill="none" />
<polyline points="193.5,492.5,197.5,491.5,201.5,490.5,205.5,489.0,209.5,488.5,213.5,486.0,217.5,483.0,222.0,478.0,226.0,472.5,230.0,466.5" stroke="black" stroke-width="2" fill="none" />
<polyline points="232.5,465.0,236.5,457.5" stroke="black" stroke-width="2" fill="none" />
<polyline points="210.5,486.0,216.0,482.0,220.0,478.0,223.5,474.0,226.5,470.5,229.0,466.5,231.0,462.5,233.5,459.0,234.5,455.0,235.0,450.5,236.5,446.5,237.5,442.0,238.0,438.5,238.0,434.5,237.5,431.0,237.0,427.0,237.0,423.0,236.0,419.0,235.0,414.5,233.0,410.5,231.5,406.5,231.0,404.5" stroke="black" stroke-width="2" fill="none" />
<polyline points="223.5,411.0,223.0,415.0,224.5,415.5" stroke="black" stroke-width="2" fill="none" />
<polyline points="228.5,415.5,227.5,419.5" stroke="black" stroke-width="2" fill="none" />
<polyline points="245.0,409.5,244.0,413.5,244.5,417.0,244.0,421.0,242.5,425.0,241.5,429.0,241.5,433.0,240.0,437.0,239.0,441.5,238.0,445.5,237.0,449.0,236.0,453.5,235.0,457.5,233.5,461.0,231.5,465.5,231.0,469.5,229.0,473.5,227.0,477.5,223.0,482.5,219.0,486.5,211.0,490.5" stroke="black" stroke-width="2" fill="none" />
<polyline points="200.0,494.0,196.0,497.0,199.5,494.5,203.5,493.5,207.0,492.0,211.0,490.5,214.5,488.5,218.0,486.0,222.5,482.0,226.5,477.5,230.5,470.5" stroke="black" stroke-width="2" fill="none" />
<polyline points="198.0,448.0,198.5,444.0,201.0,443.5,197.5,445.5" stroke="black" stroke-width="2" fill="none" />
<polyline points="198.5,450.0,194.0,448.0,190.0,447.5,185.5,447.5,181.5,446.5,178.5,450.0,179.5,448.5,181.0,448.5,183.5,442.5,183.0,437.0,181.5,435.0,180.0,433.0,181.5,428.5,181.5,424.5,180.5,421.0,179.5,417.0,178.5,413.5,176.5,409.5,174.5,405.0,172.0,400.5,169.5,396.5,166.5,392.5,161.5,388.5,159.0,384.5,162.5,380.5,163.5,376.5,162.0,379.5" stroke="black" stroke-width="2" fill="none" />
<polyline points="161.0,377.0,165.0,371.0,168.5,366.5,172.5,362.0,177.0,357.0,181.0,350.0,185.0,344.0,189.0,339.0,193.0,334.0,197.0,329.5,201.0,324.5" stroke="black" stroke-width="2" fill="none" />
<polyline points="197.0,319.0,201.0,317.0" stroke="black" stroke-width="2" fill="none" />
<polyline points="191.5,318.5,195.5,309.5,199.5,301.0,203.5,292.5,207.0,285.5,211.0,277.5,215.0,270.5,219.0,264.0,223.0,257.5,227.0,251.0,231.0,245.5,235.0,240.0,239.0,235.0,243.5,230.0,247.5,226.0,252.0,222.0,256.0,218.0" stroke="black" stroke-width="2" fill="none" />
<polyline points="266.5,185.5,262.5,188.0,258.0,191.0,254.0,194.0,250.0,198.0,249.0,201.5,253.0,198.0,256.5,194.0,261.5,190.0,267.0,185.5" stroke="black" stroke-width="2" fill="none" />
<polyline points="268.0,184.5,261.0,188.5,257.5,189.5,261.5,186.5,265.0,184.0" stroke="black" stroke-width="2" fill="none" />
<polyline points="266.5,179.5,261.0,183.5,255.5,187.5,251.0,190.5,246.0,195.0,243.0,199.0,241.5,200.0,242.0,193.5,244.5,192.0,248.5,187.0,249.0,185.0,252.5,183.0,256.5,180.5,260.0,180.5" stroke="black" stroke-width="2" fill="none" />
<polyline points="265.0,175.5,269.0,177.0,273.0,176.5,277.0,178.0,281.5,174.5,284.5,175.0,292.5,176.0,294.5,180.5,289.5,184.5,285.0,187.5,280.5,191.5,275.5,195.5,272.0,199.0,273.5,194.5,271.0,197.5,272.0,200.5,276.0,196.5,280.5,193.5,284.5,190.0,288.5,186.0,293.5,182.5,297.5,179.5,301.5,176.5,305.5,173.5,309.0,171.0,312.5,168.5,316.5,166.0,320.0,163.5,324.0,161.5,328.0,159.0,332.5,156.5,336.0,154.0" stroke="black" stroke-width="2" fill="none" />
<polyline points="311.5,171.5,305.0,175.5,300.0,180.0,295.0,184.0,290.0,188.0,285.5,191.5,280.5,196.0,275.5,200.5,270.0,204.5,266.5,209.5,270.0,209.5,267.0,213.5,265.5,218.5,265.5,222.5,265.5,224.5,265.0,228.5,266.0,232.0,265.0,235.5,265.0,239.0" stroke="black" stroke-width="2" fill="none" />
<polyline points="290.5,249.0,296.5,253.0" stroke="black" stroke-width="2" fill="none" />
<polyline points="296.5,222.5,292.5,225.5,288.0,229.0,284.0,232.5,286.0,230.5,291.0,226.5,296.0,222.5" stroke="black" stroke-width="2" fill="none" />
<polyline points="272.0,195.0,272.5,191.0,272.5,186.5,271.5,183.0" stroke="black" stroke-width="2" fill="none" />
<polyline points="275.5,181.5,275.0,177.5" stroke="black" stroke-width="2" fill="none" />
<polyline points="260.0,165.5,268.0,162.0,264.0,163.0,260.0,165.0,256.0,164.0,252.0,160.5" stroke="black" stroke-width="2" fill="none" />
<polyline points="251.5,163.0,256.5,167.0" stroke="black" stroke-width="2" fill="none" />
<polyline points="250.0,171.5,254.0,175.5,257.5,177.0" stroke="black" stroke-width="2" fill="none" />
<polyline points="241.5,172.5,245.5,171.0,246.5,172.0,251.5,173.5,250.5,175.0,257.0,181.0,249.0,185.0,249.0,187.0,243.5,191.0,241.0,195.0,240.0,198.0,238.5,202.0,237.5,206.0,240.5,209.0,244.5,210.0,248.5,210.0,252.0,211.5,256.0,203.5,254.5,207.0,253.5,211.5,252.0,214.5,251.5,218.5,248.5,222.0,245.0,226.0,241.0,230.0,237.5,233.5,235.0,237.5,233.0,244.0,230.0,248.0,227.5,252.0,224.5,256.0,222.5,260.0,219.5,264.0,217.5,268.0,215.5,272.0,213.0,276.0,211.0,280.0,209.0,284.5,206.5,288.5,205.0,292.5,203.0,296.5,200.5,300.5,198.5,304.5,196.0,309.0,194.0,313.0,192.0,316.5,186.5,319.0,184.0,323.0,183.0,327.0,180.0,331.0,173.5,335.0,169.5,339.0,166.0,341.5,166.0,346.5" stroke="black" stroke-width="2" fill="none" />
<polyline points="158.5,345.0,157.5,349.0,155.5,352.5,158.5,356.0,158.0,360.0,157.5,364.0,156.5,367.5,156.5,372.0,158.0,376.0,157.0,379.5,154.0,382.0,155.0,388.0,154.5,392.0,154.0,396.0,158.0,400.0,163.5,404.5,167.0,409.0,170.0,409.5" stroke="black" stroke-width="2" fill="none" />
<polyline points="171.5,416.5,174.0,420.5,176.5,424.5,177.0,429.0,177.5,433.0,176.0,436.5,173.0,439.0,173.5,440.0,173.5,445.5,174.5,449.5,175.0,453.5,178.0,456.5,174.5,462.5,175.0,466.5,171.0,465.0,174.5,468.0" stroke="black" stroke-width="2" fill="none" />
<polyline points="164.0,458.0,162.5,459.5,163.5,455.0,164.5,451.0,161.0,452.0,160.5,450.0" stroke="black" stroke-width="2" fill="none" />
<polyline points="149.0,454.5,145.0,451.0" stroke="black" stroke-width="2" fill="none" />
<polyline points="142.5,450.5,145.0,454.5,147.5,458.5,148.5,462.0,148.5,466.0,149.0,469.5,153.0,473.5,154.5,477.5,156.5,478.0,157.0,483.5,154.5,487.0,157.5,491.0,160.5,495.0,161.5,499.0,163.5,503.5,163.0,507.5,164.5,511.5" stroke="black" stroke-width="2" fill="none" />
<polyline points="173.0,510.5,169.0,507.0,165.0,504.0,161.0,503.0,157.0,500.0,152.5,498.0,151.0,494.0,146.5,492.0,144.0,487.5,142.0,483.5,139.0,477.0" stroke="black" stroke-width="2" fill="none" />
<polyline points="134.5,483.0,133.0,487.0,133.5,491.0,135.5,495.0,133.5,497.0,136.0,501.0,138.0,505.0,139.0,508.5,139.5,512.0" stroke="black" stroke-width="2" fill="none" />
<polyline points="135.5,511.0,132.5,507.0,131.0,503.0,129.5,498.5,128.5,494.5,126.5,490.5,124.0,487.0,123.0,483.0" stroke="black" stroke-width="2" fill="none" />
<polyline points="139.0,464.0,140.5,468.0,144.0,472.0,148.5,476.0,153.0,480.5,154.5,485.5,152.5,483.5,157.0,485.0,158.0,490.0,162.0,496.0,164.0,494.5,167.0,501.0" stroke="black" stroke-width="2" fill="none" />
<polyline points="154.0,452.5,150.5,452.0,146.5,451.5,142.5,449.0" stroke="black" stroke-width="2" fill="none" />
<polyline points="143.5,447.0,144.5,451.5,148.0,455.0,149.0,459.5,150.0,464.0,149.5,467.0,153.5,470.0,156.0,474.5,156.0,479.0,160.0,481.0,163.5,478.5,168.5,478.5" stroke="black" stroke-width="2" fill="none" />
<polyline points="171.5,461.5,167.5,455.5,163.5,453.5,163.0,449.0,158.5,450.5,155.0,448.0,155.0,449.5,156.5,445.5,154.0,441.5,154.0,437.5,149.5,437.5,147.5,433.5,146.5,429.0,149.0,425.5,144.0,421.5,138.5,419.5" stroke="black" stroke-width="2" fill="none" />
<polyline points="141.0,421.0,145.0,423.0" stroke="black" stroke-width="2" fill="none" />
<polyline points="140.0,422.5,143.5,429.5,150.0,439.0" stroke="black" stroke-width="2" fill="none" />
<polyline points="152.0,446.5,147.5,441.5,144.0,436.0,137.5,426.5,133.5,422.0,129.5,419.0" stroke="black" stroke-width="2" fill="none" />
<polyline points="128.0,416.0,132.0,421.0,132.5,424.5,134.0,428.5" stroke="black" stroke-width="2" fill="none" />
<polyline points="137.5,428.0,138.5,430.0,140.0,434.5" stroke="black" stroke-width="2" fill="none" />
<polyline points="130.5,426.5,126.5,423.5,122.5,416.5" stroke="black" stroke-width="2" fill="none" />
<polyline points="121.5,415.5,122.0,420.0,124.0,424.5,128.0,428.5" stroke="black" stroke-width="2" fill="none" />
<polyline points="130.0,430.5,125.5,427.0,121.5,422.0" stroke="black" stroke-width="2" fill="none" />
<polyline points="116.0,426.0,116.5,430.0" stroke="black" stroke-width="2" fill="none" />
<polyline points="121.5,431.0,120.5,435.0,119.0,439.0,117.5,443.0,119.0,443.0,119.5,437.0" stroke="black" stroke-width="2" fill="none" />
<polyline points="121.0,439.0,119.0,443.0" stroke="black" stroke-width="2" fill="none" />
<polyline points="131.0,425.5,129.5,421.5,129.5,418.0,126.5,414.5,127.5,411.0,128.0,406.5,123.0,407.0,119.0,411.0,115.5,412.0,111.5,412.0" stroke="black" stroke-width="2" fill="none" />
<polyline points="108.5,417.5,109.5,422.0,109.0,426.0,108.5,429.5,108.5,433.5,107.5,437.5,107.0,441.5,108.0,447.5" stroke="black" stroke-width="2" fill="none" />
<polyline points="102.0,435.0,98.5,440.0,95.5,445.0,94.0,443.5,93.5,448.0,93.5,444.0,98.5,440.0,102.5,435.5,104.5,431.5,106.0,427.5,105.5,424.0,105.5,419.5,110.0,417.5,106.0,418.5" stroke="black" stroke-width="2" fill="none" />
<polyline points="112.0,418.5,112.5,422.0,113.0,426.5,114.0,430.5,115.0,432.5" stroke="black" stroke-width="2" fill="none" />
<polyline points="127.0,423.5,124.5,419.5,123.0,415.0" stroke="black" stroke-width="2" fill="none" />
<polyline points="126.0,412.0,130.0,407.0,134.0,402.5" stroke="black" stroke-width="2" fill="none" />
<polyline points="140.0,401.5,144.0,405.5,148.0,411.0" stroke="black" stroke-width="2" fill="none" />
<polyline points="146.0,405.5,142.0,402.0" stroke="black" stroke-width="2" fill="none" />
<polyline points="141.5,401.5,145.5,405.5" stroke="black" stroke-width="2" fill="none" />
<polyline points="139.5,408.5,143.5,412.5,147.5,417.5,151.5,423.5" stroke="black" stroke-width="2" fill="none" />
<polyline points="161.5,424.5,159.5,427.0,159.5,422.5,161.5,418.5,161.5,425.0,163.5,421.0,162.5,417.0,161.5,413.0,162.0,409.0,160.5,404.5,160.5,401.0,162.0,397.5,160.5,393.5,156.5,388.0,156.0,384.0,154.5,379.5,152.5,376.0,152.5,372.0,152.0,368.0,148.0,362.0" stroke="black" stroke-width="2" fill="none" />
<polyline points="149.0,361.5,151.5,365.5,151.0,367.0,151.0,371.0,151.0,374.5,151.5,378.5,151.5,382.5,150.5,383.5,155.0,387.5,159.0,390.0,162.5,395.0,168.0,397.5,172.0,401.0,176.0,408.5" stroke="black" stroke-width="2" fill="none" />
<polyline points="175.0,422.0,171.5,415.5,162.5,414.5,158.5,409.5,154.5,404.5,150.0,402.5,146.5,397.5,145.5,391.0,141.5,386.0,138.5,391.5,135.0,388.5,134.5,384.0,138.0,380.5,136.0,376.0,133.0,372.0,131.5,370.5,135.5,366.5,140.0,361.5,140.5,357.5,140.5,354.0,140.5,351.0,135.0,348.5,132.0,345.0,129.5,341.0,131.5,337.5,130.0,334.0,131.5,330.0,130.0,326.5,127.5,321.0" stroke="black" stroke-width="2" fill="none" />
<polyline points="118.5,323.0,119.0,327.0,119.5,331.5,120.5,335.5,121.0,339.5,121.5,340.5" stroke="black" stroke-width="2" fill="none" />
<polyline points="118.0,340.5,118.5,342.5,118.5,345.5" stroke="black" stroke-width="2" fill="none" />
<polyline points="115.0,344.5,118.5,350.5,118.0,358.0,118.5,362.0,117.5,366.0,117.0,370.0,117.0,374.0,117.5,377.5,118.0,381.0,118.5,385.0,119.0,389.0,118.0,393.0,119.0,397.5,123.0,403.5,126.5,405.5" stroke="black" stroke-width="2" fill="none" />
<polyline points="124.0,407.0,120.5,411.0" stroke="black" stroke-width="2" fill="none" />
<polyline points="130.0,414.5,133.5,419.0,138.0,423.5,140.5,423.5,142.5,427.5,145.0,431.5,144.5,435.0,145.5,439.5,150.5,443.5,153.0,447.0,154.0,451.0,155.0,455.0,154.5,457.0,160.5,461.0" stroke="black" stroke-width="2" fill="none" />
<polyline points="162.0,453.5,156.5,454.5,152.5,454.0,152.0,457.0,152.0,452.5,148.5,451.5,145.0,448.0" stroke="black" stroke-width="2" fill="none" />
<polyline points="163.5,430.5,160.5,435.0,161.5,435.0,167.5,435.5" stroke="black" stroke-width="2" fill="none" />
<polyline points="193.0,433.5,193.0,429.0,193.0,425.5" stroke="black" stroke-width="2" fill="none" />
<polyline points="196.5,428.5,197.5,432.5" stroke="black" stroke-width="2" fill="none" />
<polyline points="195.5,434.0,197.0,429.5,199.0,427.5,199.0,423.5" stroke="black" stroke-width="2" fill="none" />
<polyline points="193.5,404.0,194.0,400.0,193.5,396.0,193.0,392.0" stroke="black" stroke-width="2" fill="none" />
<polyline points="191.5,391.0,192.5,395.0,192.0,399.0,191.5,403.0,191.0,407.0,191.0,411.5,190.5,415.5,190.5,419.0,190.5,423.0,190.0,427.0,189.5,431.0,189.5,435.0,189.0,439.5,186.5,440.5,183.5,444.5,186.5,445.0,190.5,445.5,194.5,446.5,198.5,445.0" stroke="black" stroke-width="2" fill="none" />
<polyline points="149.5,400.5,145.5,397.0,142.0,395.0,138.0,401.5,131.5,400.0,127.5,399.5,124.0,397.5,120.0,393.0" stroke="black" stroke-width="2" fill="none" />
<polyline points="122.5,391.5,127.0,395.0,131.5,397.0,135.5,393.0" stroke="black" stroke-width="2" fill="none" />
<polyline points="134.5,391.5,127.5,389.5,123.5,391.0" stroke="black" stroke-width="2" fill="none" />
<polyline points="119.0,390.0,123.0,395.5,124.5,397.5,126.5,401.5" stroke="black" stroke-width="2" fill="none" />
<polyline points="131.0,411.5,134.5,407.0,140.0,402.0,144.0,399.0" stroke="black" stroke-width="2" fill="none" />
<polyline points="140.5,400.5,141.5,404.0,145.0,408.0,149.5,412.5" stroke="black" stroke-width="2" fill="none" />
<polyline points="138.0,409.0,141.5,413.0,144.5,416.5,148.0,420.5,150.0,424.5,149.0,428.5" stroke="black" stroke-width="2" fill="none" />
<polyline points="134.0,420.0,136.0,424.0,136.5,427.5,138.0,431.5,139.0,435.5,141.5,441.5,142.0,445.0,141.0,449.0,139.0,453.0,136.0,457.0,134.0,461.0,132.5,465.0,133.5,455.5" stroke="black" stroke-width="2" fill="none" />
<polyline points="130.5,406.5,134.5,402.5,135.0,395.0,138.5,393.5,143.0,390.0,143.5,386.5,142.5,385.5,145.0,381.0,146.5,375.0,147.5,371.0,148.0,367.0,146.0,363.0,145.5,359.0,145.5,355.0,144.0,353.0,142.5,349.0,139.5,345.5,138.0,340.5,137.0,336.0,136.0,332.0,136.0,328.0,135.0,324.0,134.5,320.0,133.0,316.0,132.0,312.5,130.5,308.5,129.5,304.5,127.5,297.5,131.5,294.0,135.0,292.0,137.5,288.0,130.5,284.0,127.0,278.0" stroke="black" stroke-width="2" fill="none" />
<polyline points="127.5,276.0,127.5,279.5,130.0,283.5,130.0,287.0,127.0,289.5,125.5,293.0,124.0,297.0,122.5,301.0,125.0,304.5,123.5,308.5,122.0,312.5,122.0,317.0,121.5,321.0,123.0,325.0,123.0,329.0,123.0,333.0,123.5,338.5" stroke="black" stroke-width="2" fill="none" />
<polyline points="126.0,334.0,132.0,333.0,133.0,336.5,134.5,340.5,134.5,344.5,138.5,348.5,137.5,355.0,141.5,355.5,141.5,362.0,145.5,367.0" stroke="black" stroke-width="2" fill="none" />
<polyline points="147.0,368.5,143.0,366.5" stroke="black" stroke-width="2" fill="none" />
<polyline points="147.0,366.5,143.5,362.0" stroke="black" stroke-width="2" fill="none" />
<polyline points="135.5,362.0,131.5,358.0" stroke="black" stroke-width="2" fill="none" />
<polyline points="127.5,358.0,133.5,362.0,135.0,366.0" stroke="black" stroke-width="2" fill="none" />
<polyline points="135.5,374.0,139.5,379.0,141.5,384.0" stroke="black" stroke-width="2" fill="none" />
<polyline points="145.0,384.5,144.5,380.0,141.5,380.0,140.5,376.5,139.5,372.5,133.0,374.0" stroke="black" stroke-width="2" fill="none" />
<polyline points="130.5,376.0,127.0,368.5,123.0,360.5" stroke="black" stroke-width="2" fill="none" />
<polyline points="121.5,361.5,121.0,365.5,122.5,369.5,125.0,373.5,126.0,378.5,130.0,383.0,131.5,387.0,134.0,391.0,134.0,395.0,135.5,398.0" stroke="black" stroke-width="2" fill="none" />
<polyline points="142.5,398.5,143.0,394.5" stroke="black" stroke-width="2" fill="none" />
<polyline points="144.0,394.0,147.0,398.0,150.0,405.5" stroke="black" stroke-width="2" fill="none" />
<polyline points="144.0,391.0,142.5,395.0,139.5,398.5,138.0,402.5,134.0,406.0,131.0,410.0,130.5,413.0,133.5,417.5,136.0,421.0,139.5,425.0,140.5,430.0,141.5,433.5,139.0,439.5,139.5,443.5,138.5,447.5,138.0,452.0,136.5,455.5,133.0,458.5,132.0,462.5,135.5,466.5,136.5,467.0,140.5,468.0,145.0,473.0,149.0,476.5,152.0,479.0,156.5,482.0,160.5,483.0,164.5,486.0,167.5,489.5" stroke="black" stroke-width="2" fill="none" />
<polyline points="126.0,402.0,121.5,398.0,118.5,394.0,119.0,389.5,121.0,386.5,120.5,382.5,120.0,379.5,121.0,375.5,119.5,375.0,119.5,371.0,119.0,371.5" stroke="black" stroke-width="2" fill="none" />
<polyline points="121.0,368.5,125.0,373.5,125.5,378.0,129.5,380.5" stroke="black" stroke-width="2" fill="none" />
<polyline points="129.5,377.5,125.5,370.5,121.5,364.5" stroke="black" stroke-width="2" fill="none" />
<polyline points="121.5,362.5,123.5,367.0,125.5,371.0,127.5,375.5,129.5,381.0" stroke="black" stroke-width="2" fill="none" />
<polyline points="124.0,383.5,124.5,387.5,126.5,388.5,123.0,392.0,127.5,396.0" stroke="black" stroke-width="2" fill="none" />
<polyline points="115.5,400.0,114.0,404.0,114.5,407.0" stroke="black" stroke-width="2" fill="none" />
<polyline points="111.0,406.0,110.0,406.5,112.0,402.5,114.5,399.0" stroke="black" stroke-width="2" fill="none" />
<polyline points="106.5,393.0,107.5,397.0,109.5,400.5,109.5,404.5,106.5,409.0,99.5,413.5,101.5,414.5" stroke="black" stroke-width="2" fill="none" />
<polyline points="104.0,408.0,100.0,409.0,98.5,409.0,97.0,405.0,96.0,403.0,94.0,401.0,92.0,396.5,91.5,391.5,91.0,387.5,92.0,383.5,87.0,387.0" stroke="black" stroke-width="2" fill="none" />
<polyline points="82.5,385.0,79.5,389.5,79.0,393.5,77.0,398.0,74.0,401.5,73.5,405.5,72.5,410.0,72.0,414.0,70.0,414.5,70.0,417.5,70.5,421.5,68.5,425.0,70.0,425.0,70.0,429.0,71.5,430.0,70.5,433.5,69.0,437.5,70.0,441.5,70.5,445.0,70.5,449.0,70.5,453.0,70.0,457.0,69.5,461.5,68.5,466.0,66.5,470.0,65.0,474.5,63.5,478.5,63.5,483.0,64.0,487.0,64.0,491.0,64.5,495.0,64.5,499.0,62.0,503.0,62.0,506.5,62.0,510.0,63.5,509.5,66.5,505.5" stroke="black" stroke-width="2" fill="none" />
<polyline points="62.5,503.0,65.5,509.0,65.0,513.0" stroke="black" stroke-width="2" fill="none" />
<polyline points="68.5,497.0,69.5,493.0,70.5,489.0,71.0,485.5,72.0,481.5,70.0,477.5" stroke="black" stroke-width="2" fill="none" />
<polyline points="65.0,473.0,68.0,471.0,67.5,475.0,66.5,479.0,66.0,483.0,65.0,486.5,65.5,490.5,67.0,494.0" stroke="black" stroke-width="2" fill="none" />
<polyline points="71.0,465.5,71.5,461.5,71.5,457.5,72.5,455.5" stroke="black" stroke-width="2" fill="none" />
<polyline points="73.0,456.0,73.0,460.0,72.5,464.0,74.5,468.0,74.5,472.0" stroke="black" stroke-width="2" fill="none" />
<polyline points="67.5,455.0,67.5,451.0,67.0,449.0" stroke="black" stroke-width="2" fill="none" />
<polyline points="64.5,450.5,64.0,455.0,65.0,458.5,66.5,462.5,69.5,468.0,70.0,471.0,69.5,475.5,69.0,479.5,69.0,483.5" stroke="black" stroke-width="2" fill="none" />
<polyline points="29.5,492.5,28.0,498.5,29.0,502.0,32.5,506.5,33.0,511.0" stroke="black" stroke-width="2" fill="none" />
<polyline points="18.5,510.5,19.0,506.5,20.5,502.5,19.0,503.0" stroke="black" stroke-width="2" fill="none" />
<polyline points="16.5,506.0,16.0,501.5,15.5,497.5,14.5,493.0" stroke="black" stroke-width="2" fill="none" />
<polyline points="10.5,428.5,10.5,424.5,6.0,422.5" stroke="black" stroke-width="2" fill="none" />
<polyline points="5.5,419.0,8.0,423.0,9.5,427.0,10.5,431.0,11.0,435.0,11.0,438.5,11.0,442.5,13.5,444.5,13.0,447.5,13.0,451.5,13.0,455.5,15.5,458.0,13.0,462.5,14.5,467.0,15.0,471.0,13.5,475.5,12.5,478.0" stroke="black" stroke-width="2" fill="none" />
<polyline points="35.0,462.0,35.0,458.0,34.5,454.0,33.5,450.0,33.5,446.0,33.0,441.0,33.5,437.0,34.0,433.0,34.0,428.5,34.0,424.5" stroke="black" stroke-width="2" fill="none" />
<polyline points="25.5,419.0,22.5,412.0" stroke="black" stroke-width="2" fill="none" />
<polyline points="23.5,411.0,25.5,415.0,26.5,419.5,26.0,424.0,26.0,428.0,25.5,432.0,25.5,436.0,26.0,440.0,27.0,444.0,27.5,448.0,27.5,452.5,28.5,456.0,28.5,459.5,27.5,463.5,28.5,467.5,29.5,472.0,28.0,475.5,29.5,479.5,30.0,483.5,30.5,487.5,29.5,491.5,31.0,496.0,31.5,500.0,31.0,504.0" stroke="black" stroke-width="2" fill="none" />
<polyline points="69.0,435.5,66.5,436.0,67.0,431.5,66.5,432.0" stroke="black" stroke-width="2" fill="none" />
<polyline points="66.5,423.5,65.0,422.5,65.0,418.5,64.5,414.5,65.5,410.5,66.5,406.5,70.5,403.0,72.5,399.5,74.0,396.0,72.0,395.5,72.0,398.0" stroke="black" stroke-width="2" fill="none" />
<polyline points="72.5,404.5,76.0,400.5,80.0,393.5" stroke="black" stroke-width="2" fill="none" />
<polyline points="79.5,385.5,78.0,394.5,74.0,400.5,69.5,403.0,65.5,407.0" stroke="black" stroke-width="2" fill="none" />
<polyline points="68.0,414.5,71.0,404.0,70.0,408.0,68.5,412.0,67.5,416.0,66.5,420.0" stroke="black" stroke-width="2" fill="none" />
<polyline points="69.5,416.5,72.5,420.0,72.5,423.5,71.0,425.0" stroke="black" stroke-width="2" fill="none" />
<polyline points="89.0,424.5,87.0,427.0,90.0,423.5,91.5,419.5" stroke="black" stroke-width="2" fill="none" />
<polyline points="92.0,417.5,88.5,421.5,86.5,425.5,87.0,423.5" stroke="black" stroke-width="2" fill="none" />
<polyline points="92.0,406.0,96.0,405.5" stroke="black" stroke-width="2" fill="none" />
<polyline points="97.5,400.0,93.5,398.0" stroke="black" stroke-width="2" fill="none" />
<polyline points="92.0,403.0,87.5,397.0" stroke="black" stroke-width="2" fill="none" />
<polyline points="82.0,385.5,81.0,389.5,80.0,395.0,78.5,399.0,75.5,403.5,73.5,407.5,74.5,411.5" stroke="black" stroke-width="2" fill="none" />
<polyline points="79.0,381.5,75.5,388.5,71.5,392.5,68.0,396.0,64.5,399.0,60.5,401.5,62.5,398.0,66.0,394.0,70.5,390.5,75.0,386.5,77.5,382.5,78.0,382.0,74.0,387.5,69.5,390.5,65.5,394.5,61.0,398.0,58.0,402.5,64.0,398.5,69.0,395.0,73.0,391.0,75.5,387.0,78.0,383.0,81.5,379.0,82.0,375.0,83.0,369.5,85.5,365.5,87.0,361.5,88.0,358.0,86.5,357.0,90.5,356.0,93.5,352.0,95.5,347.5,98.0,347.5,94.0,343.0,91.5,348.5,92.5,344.5,94.5,340.5,95.5,336.5,95.0,333.0,95.5,329.0,95.5,325.0,95.5,321.0,96.5,316.0,96.5,312.0,100.5,307.5,103.5,303.5,106.5,302.0,103.5,302.0,99.5,307.5,95.5,311.0" stroke="black" stroke-width="2" fill="none" />
<polyline points="88.0,308.5,82.0,312.0,86.0,309.5,90.0,308.0,95.0,306.0,98.5,303.5,103.0,300.0" stroke="black" stroke-width="2" fill="none" />
<polyline points="107.5,301.0,105.5,305.0,101.5,309.5,99.5,313.5,97.5,318.0,96.5,320.0,101.0,312.0,105.0,306.5" stroke="black" stroke-width="2" fill="none" />
<polyline points="115.5,308.5,111.5,314.0,107.0,318.0,103.0,323.0,103.5,319.0,107.5,315.0,109.0,312.0,108.0,314.0,104.0,317.5,106.0,320.5,110.0,317.0,113.5,313.5,116.0,309.0,116.0,308.0,112.0,315.0,108.0,317.5,104.5,321.5" stroke="black" stroke-width="2" fill="none" />
<polyline points="98.5,321.5,102.5,313.5,106.5,308.0,111.0,304.5,115.0,301.0,119.5,297.5" stroke="black" stroke-width="2" fill="none" />
<polyline points="126.5,298.0,130.5,295.0,134.0,292.5,138.0,288.0" stroke="black" stroke-width="2" fill="none" />
<polyline points="138.0,291.5,134.0,295.5,130.0,298.0,126.0,300.5" stroke="black" stroke-width="2" fill="none" />
<polyline points="130.5,299.5,127.5,301.5,130.5,309.5,130.5,314.0,131.0,318.0,131.0,322.0,132.5,326.5,133.5,330.5,134.5,334.5,135.5,339.0,137.0,343.0,137.5,347.0,142.5,348.5" stroke="black" stroke-width="2" fill="none" />
<polyline points="147.0,346.5,151.0,349.5,155.5,344.0,159.5,341.5,163.5,340.0,167.5,333.0,171.5,330.5,175.5,330.0,179.5,330.0,183.0,326.0,187.0,318.0,191.0,314.0,195.5,304.5,199.5,296.5,203.0,289.5,207.0,282.0,211.0,275.5,214.5,269.0,218.5,261.5,223.0,255.0,227.0,248.5,231.0,243.5" stroke="black" stroke-width="2" fill="none" />
<polyline points="229.0,272.0,225.5,273.5,222.0,277.5,225.5,273.5" stroke="black" stroke-width="2" fill="none" />
<polyline points="219.0,305.5,217.5,309.5,217.0,313.5,217.5,317.5,217.5,322.0,217.5,326.0,218.0,330.0,218.5,334.0,218.5,337.5,219.0,341.5,219.5,345.5,219.5,349.5,219.0,354.0,218.5,358.5" stroke="black" stroke-width="2" fill="none" />
<polyline points="191.5,354.0,190.5,350.0,189.5,346.5,189.5,345.5" stroke="black" stroke-width="2" fill="none" />
<polyline points="191.0,346.0,192.0,350.0,193.5,354.0" stroke="black" stroke-width="2" fill="none" />
<polyline points="186.5,335.5,183.0,342.0,179.0,347.5,175.0,353.0,171.5,357.5,167.5,360.5,163.0,364.5" stroke="black" stroke-width="2" fill="none" />
<polyline points="165.5,365.5,168.5,362.5,164.5,368.5,160.5,368.0,161.0,364.5,162.5,360.5,165.5,356.0,168.0,352.0,170.5,347.5,173.5,343.5,176.5,339.5,178.0,335.5,181.0,331.5,177.0,332.0,172.5,333.5,169.0,336.0,163.5,339.5,164.5,336.0,165.5,332.0,163.0,331.0" stroke="black" stroke-width="2" fill="none" />
<polyline points="164.0,331.0,160.0,336.0,160.0,334.0,162.5,330.5,165.5,326.5,167.5,322.0" stroke="black" stroke-width="2" fill="none" />
<polyline points="164.5,319.0,168.5,320.5,172.5,319.0" stroke="black" stroke-width="2" fill="none" />
<polyline points="173.5,316.5,169.5,318.0,168.5,323.0,167.5,321.5,164.0,327.0,160.0,333.0,155.0,338.0,151.0,339.5,146.5,336.5,144.0,343.0,142.0,339.5,140.5,335.5,138.5,331.5,137.5,327.5,137.5,324.0,136.5,320.0,135.5,316.0,134.5,312.0,132.5,308.5,131.0,304.5,130.0,300.5,133.0,299.5,134.5,295.5,138.5,291.0,140.0,286.5,142.0,282.5,139.0,280.5,136.0,280.5,132.0,280.0,138.5,281.0,141.0,277.5,146.0,274.0,142.5,271.0,146.0,267.0,151.5,262.5,156.0,255.5,159.5,251.5,162.0,248.0,164.5,244.5,161.0,244.0,157.5,248.5,153.5,250.0" stroke="black" stroke-width="2" fill="none" />
<polyline points="155.0,253.0,151.0,251.5,156.0,253.0,157.0,249.0" stroke="black" stroke-width="2" fill="none" />
<polyline points="149.5,249.5,145.5,250.0" stroke="black" stroke-width="2" fill="none" />
<polyline points="145.0,250.5,148.5,247.5,147.5,248.0,144.5,252.0,147.0,253.5,148.0,257.5" stroke="black" stroke-width="2" fill="none" />
<polyline points="149.0,265.5,145.0,269.5,141.0,272.0" stroke="black" stroke-width="2" fill="none" />
<polyline points="139.0,274.0,142.5,273.5,148.5,269.5,152.5,265.5" stroke="black" stroke-width="2" fill="none" />
<polyline points="155.0,268.0,156.5,272.0" stroke="black" stroke-width="2" fill="none" />
<polyline points="154.5,278.0,158.0,279.5,159.0,281.5" stroke="black" stroke-width="2" fill="none" />
<polyline points="152.0,279.5,153.5,284.0,157.0,288.0,163.0,292.5" stroke="black" stroke-width="2" fill="none" />
<polyline points="161.0,293.0,157.0,291.0,153.5,289.0" stroke="black" stroke-width="2" fill="none" />
<polyline points="150.0,292.0,154.0,294.0,158.0,295.5,162.0,295.5,166.5,293.5,170.0,289.5,170.5,287.0" stroke="black" stroke-width="2" fill="none" />
<polyline points="172.5,293.0,171.5,297.0,170.5,301.0,170.0,304.5,167.0,309.0,167.0,312.5,166.0,314.5,163.0,317.5,169.0,321.0,168.0,324.5,165.5,328.5,162.0,332.5,159.0,336.0,158.0,342.0,153.5,346.0,151.0,350.0,152.0,351.5,149.5,354.5,147.0,357.5,145.5,352.0,147.5,350.0,152.5,352.0,157.0,352.5,159.5,344.5,163.0,346.5,167.0,344.5,170.5,342.5" stroke="black" stroke-width="2" fill="none" />
<polyline points="166.0,358.0,162.5,362.0,165.5,358.5" stroke="black" stroke-width="2" fill="none" />
<polyline points="152.5,378.5,151.0,381.5,155.0,384.5" stroke="black" stroke-width="2" fill="none" />
<polyline points="135.5,356.0,131.5,352.5" stroke="black" stroke-width="2" fill="none" />
<polyline points="130.5,352.0,131.0,358.0,134.5,362.0,136.0,367.5" stroke="black" stroke-width="2" fill="none" />
<polyline points="139.0,352.0,134.5,348.5,130.5,343.0" stroke="black" stroke-width="2" fill="none" />
<polyline points="130.5,340.5,135.5,338.5,140.0,343.5" stroke="black" stroke-width="2" fill="none" />
<polyline points="145.0,342.0,147.5,338.0,145.0,337.5,149.0,335.5,147.5,331.5,149.5,328.0,147.5,329.5" stroke="black" stroke-width="2" fill="none" />
<polyline points="151.0,327.5,154.0,332.0,153.0,336.0" stroke="black" stroke-width="2" fill="none" />
<polyline points="148.5,340.5,147.0,344.5,147.5,348.0,146.5,352.0" stroke="black" stroke-width="2" fill="none" />
<polyline points="140.5,337.0,138.5,339.5,138.0,335.0,137.5,328.0" stroke="black" stroke-width="2" fill="none" />
<polyline points="128.0,342.5,132.0,348.0,136.5,352.0" stroke="black" stroke-width="2" fill="none" />
<polyline points="134.0,364.5,130.0,361.0,126.0,359.5,122.0,357.0" stroke="black" stroke-width="2" fill="none" />
<polyline points="120.5,357.0,124.0,361.0,124.5,365.0,130.0,366.5,130.5,370.0,135.0,369.5,139.0,369.5,146.0,373.0" stroke="black" stroke-width="2" fill="none" />
<polyline points="113.5,368.5,111.0,364.0,111.0,360.0" stroke="black" stroke-width="2" fill="none" />
<polyline points="112.5,360.0,111.5,356.5,110.5,352.5" stroke="black" stroke-width="2" fill="none" />
<polyline points="110.5,353.5,111.0,357.5,112.0,361.5,110.5,362.5,110.5,362.0,112.5,368.5" stroke="black" stroke-width="2" fill="none" />
<polyline points="105.0,380.5,105.5,376.5,106.0,372.5,106.0,368.5,108.0,364.5,109.0,361.0,109.0,357.5,110.5,353.0,107.5,347.0,107.0,343.0,108.5,343.5,108.5,344.5" stroke="black" stroke-width="2" fill="none" />
<polyline points="115.5,343.0,116.0,347.0,117.0,351.0,117.0,355.0,117.5,358.5,117.0,362.5,116.5,366.5,115.0,371.0,116.0,375.0,116.0,379.0,115.0,383.0,116.0,387.0,116.0,390.5,116.0,394.5,119.5,398.0,123.0,402.0,121.5,406.0,116.0,410.5,111.5,412.5,114.5,411.5,118.5,410.0,122.5,405.0" stroke="black" stroke-width="2" fill="none" />
<polyline points="106.5,403.5,105.5,399.5,105.0,396.0,106.5,391.5" stroke="black" stroke-width="2" fill="none" />
<polyline points="76.0,375.0,76.0,371.0,75.5,366.5,78.5,362.5,80.0,358.0,81.5,353.5,85.5,349.5,83.0,351.5,78.5,358.0,74.5,365.0" stroke="black" stroke-width="2" fill="none" />
<polyline points="77.5,367.5,81.5,361.0,85.5,354.5" stroke="black" stroke-width="2" fill="none" />
<polyline points="94.0,356.5,97.5,350.5" stroke="black" stroke-width="2" fill="none" />
<polyline points="95.5,348.0,91.5,354.0,87.5,360.5,84.0,369.0,83.5,374.0,77.5,371.0,77.0,366.5,79.0,362.5,81.0,359.0,83.5,355.0,87.0,351.5,88.0,348.0,89.0,344.0,89.5,340.5,86.0,339.0,82.0,343.5,78.0,348.0,73.5,354.0,70.0,358.5,66.0,362.5,63.0,365.0,63.5,361.5,66.5,360.0,70.5,356.0,74.0,352.0,77.0,348.5,80.0,345.0,83.0,341.0,86.5,336.5,91.5,331.5,94.0,327.5,91.0,329.0,93.0,325.5,88.5,324.5" stroke="black" stroke-width="2" fill="none" />
<polyline points="92.5,330.0,88.5,332.5,84.0,337.5,80.0,343.0,76.0,348.0,72.0,353.0,68.0,357.5,63.5,361.5,68.0,360.5,71.5,356.5,75.0,352.5,77.5,348.0,80.5,344.5,83.5,340.5,88.0,337.0,88.5,333.0,88.5,329.0,89.0,324.0,90.5,320.0,92.0,316.0,93.0,312.0,92.5,308.0,100.0,304.0,104.5,300.0,108.0,296.0,109.0,291.5,113.5,287.5,116.5,283.5,114.5,277.5,113.5,273.5,112.5,272.5" stroke="black" stroke-width="2" fill="none" />
<polyline points="112.0,271.0,115.5,271.5,112.5,273.5,114.5,277.5,111.5,279.0,113.5,284.5,109.5,288.5,116.5,285.5,116.5,283.5" stroke="black" stroke-width="2" fill="none" />
<polyline points="119.5,282.0,114.5,279.5,112.0,277.5,108.0,275.0,104.0,275.0,100.5,279.0,96.5,282.0,99.5,279.5,103.0,275.5,110.0,273.5,109.5,270.0,109.0,266.0,111.5,262.5,113.0,261.0,108.5,266.0" stroke="black" stroke-width="2" fill="none" />
<polyline points="113.5,266.5,116.5,261.5,114.5,265.0,117.0,269.0,125.5,274.5,129.5,277.5,134.0,276.5,138.5,272.5,143.0,267.5,147.0,264.5,151.0,261.0,154.5,262.5,158.5,259.0,164.5,252.5" stroke="black" stroke-width="2" fill="none" />
<polyline points="166.5,256.0,170.5,252.0,174.5,245.0" stroke="black" stroke-width="2" fill="none" />
<polyline points="170.0,237.5,168.5,241.5,167.0,245.5,165.5,249.5,164.5,247.5" stroke="black" stroke-width="2" fill="none" />
<polyline points="164.0,239.5,168.0,235.5,172.0,232.5,175.5,229.0,179.5,229.0" stroke="black" stroke-width="2" fill="none" />
<polyline points="176.0,228.0,171.0,231.5,167.0,235.5,163.0,239.5,160.0,243.0,156.0,246.5,151.0,249.5,149.0,253.5,152.0,255.0,150.5,258.0,148.0,262.0,143.5,266.0,139.5,270.5,136.5,274.5,130.5,280.5,133.5,288.0,130.5,292.0,127.5,296.5,126.5,302.0,129.0,306.0,128.0,310.0,125.5,312.5,125.0,317.0,125.0,320.5,125.0,324.0,125.5,328.0,125.0,331.5,124.5,336.5,126.5,338.5,127.0,342.5,130.0,346.5,133.0,350.5,137.5,354.0,137.5,358.0,138.5,363.5,141.5,367.5,143.5,367.5,145.0,372.0,146.5,377.0,147.5,381.5,145.5,385.0,147.5,389.5,147.0,394.0,148.5,397.5,150.0,397.5,151.5,402.5,151.5,405.5,154.5,405.5,158.0,409.5,160.0,413.5,161.5,417.5,160.0,421.5,154.0,423.5" stroke="black" stroke-width="2" fill="none" />
<polyline points="112.5,399.5,107.0,405.5,103.0,409.5,100.0,410.5,96.0,410.0,92.5,408.5,91.5,407.0,94.0,404.5,91.0,400.5,89.0,396.5,89.0,392.5,88.0,388.5,88.5,385.5,89.5,381.0,92.5,377.0,92.5,373.0,93.0,369.0,94.0,365.0,94.5,361.0,94.5,357.0" stroke="black" stroke-width="2" fill="none" />
<polyline points="106.0,354.5,106.0,358.5,104.5,362.5,103.5,366.0,102.5,369.5,102.0,373.5,102.0,377.5,102.0,381.5" stroke="black" stroke-width="2" fill="none" />
<polyline points="101.0,341.0,105.0,337.0,108.5,332.5,112.5,326.5,117.0,318.5" stroke="black" stroke-width="2" fill="none" />
<polyline points="117.0,324.5,116.5,329.0,117.5,329.5" stroke="black" stroke-width="2" fill="none" />
<polyline points="116.5,338.0,117.0,342.0,116.5,344.5,118.5,348.5,120.5,352.5,121.0,356.5,122.0,360.5,124.5,364.5,126.0,368.5,129.0,372.5,131.5,376.5,131.5,381.5,133.5,382.5,138.5,384.5,139.5,389.0" stroke="black" stroke-width="2" fill="none" />
<polyline points="155.0,317.5,154.5,314.0,154.5,313.0" stroke="black" stroke-width="2" fill="none" />
<polyline points="158.0,311.5,162.0,313.5" stroke="black" stroke-width="2" fill="none" />
<polyline points="161.5,314.5,160.0,311.0,158.5,310.5" stroke="black" stroke-width="2" fill="none" />
<polyline points="163.5,300.5,163.0,296.5,169.0,291.5,172.5,288.0,171.5,284.0,169.0,289.0,165.0,292.0,163.0,291.0,165.5,287.0,169.5,282.5,174.0,278.5,174.5,280.5,173.0,279.5,169.0,283.0,166.5,283.5,163.5,285.0,161.0,287.5,163.0,285.5,162.0,281.5,163.0,277.0,161.5,276.0,162.5,271.5,163.5,267.5,166.5,264.0,167.0,260.5,167.0,257.0,169.5,252.5,172.5,248.5,174.0,244.5,174.0,240.5,173.0,236.5,177.0,233.0,173.0,236.0" stroke="black" stroke-width="2" fill="none" />
<polyline points="177.0,233.5,176.0,237.5,175.5,241.5,176.5,244.0,176.0,248.5,176.5,253.0,177.5,256.5,180.0,260.5,182.5,264.5" stroke="black" stroke-width="2" fill="none" />
<polyline points="178.0,286.5,178.5,285.0,174.5,284.0,172.5,283.5,168.5,284.0,164.0,289.0,157.5,283.5,155.5,279.0,153.0,278.0,151.0,276.0" stroke="black" stroke-width="2" fill="none" />
<polyline points="135.5,269.5,137.5,266.0,134.0,264.5" stroke="black" stroke-width="2" fill="none" />
<polyline points="129.0,266.0,128.5,270.0,123.5,274.0,117.5,278.0,109.5,281.5,100.5,285.5,98.0,290.5,93.0,298.5,91.5,302.5,87.0,306.5,80.0,310.5,82.0,316.0,77.5,320.5,70.5,324.0,75.0,323.0,79.5,320.5,83.5,317.0,88.0,318.5" stroke="black" stroke-width="2" fill="none" />
<polyline points="81.0,317.0,77.0,319.0,72.5,320.5,69.5,322.0,76.5,318.0,79.0,313.0,74.5,309.0,74.5,305.0,74.0,305.5" stroke="black" stroke-width="2" fill="none" />
<polyline points="76.5,306.0,76.5,310.0,78.5,312.0,82.5,309.5,87.0,308.0,91.5,305.5" stroke="black" stroke-width="2" fill="none" />
<polyline points="89.0,295.0,82.5,298.0,86.5,296.0,90.5,295.5,94.5,294.5,100.0,297.0,103.5,296.0,107.5,295.0" stroke="black" stroke-width="2" fill="none" />
<polyline points="107.5,294.5,102.0,298.5,100.0,303.0,93.0,305.5,97.0,303.0,100.5,302.5" stroke="black" stroke-width="2" fill="none" />
<polyline points="104.5,294.5,99.5,297.0,103.0,294.5,106.5,293.0,110.0,291.0" stroke="black" stroke-width="2" fill="none" />
<polyline points="110.0,286.5,106.5,289.0,102.5,290.5,98.5,290.5,95.0,292.5,91.0,292.5,87.5,294.0,83.5,295.5,80.5,298.5,87.0,294.5" stroke="black" stroke-width="2" fill="none" />
<polyline points="94.0,284.0,98.0,288.0,101.5,287.0,105.0,284.0,109.0,282.5,112.5,280.0" stroke="black" stroke-width="2" fill="none" />
<polyline points="106.5,285.5,103.5,288.5" stroke="black" stroke-width="2" fill="none" />
<polyline points="93.0,285.5,91.5,282.0,92.5,277.5" stroke="black" stroke-width="2" fill="none" />
<polyline points="91.0,277.5,95.0,275.5,99.0,274.0,103.0,272.0,107.0,269.5,101.5,273.0,94.5,277.0,93.5,280.5,95.5,284.5,97.0,286.0,101.5,284.0,105.5,282.5,101.5,282.0,105.0,281.0,108.5,279.5,113.5,281.5,117.0,278.5,121.0,276.0,125.0,273.0" stroke="black" stroke-width="2" fill="none" />
<polyline points="129.5,280.0,133.5,280.0,137.5,278.5,141.5,277.0" stroke="black" stroke-width="2" fill="none" />
<polyline points="141.5,284.5,137.5,286.5,133.5,286.5,129.5,292.5,125.0,295.5,119.5,298.5,115.5,302.5,111.5,306.0,107.5,309.0,105.0,312.5,108.0,308.5,112.5,304.5,117.5,300.5,120.5,297.0,122.5,293.0,124.5,289.0,124.5,285.0" stroke="black" stroke-width="2" fill="none" />
<polyline points="122.0,284.5,121.0,288.5,120.0,292.5,118.0,296.0,113.0,300.0,108.5,304.0,104.5,308.0,102.0,312.0,100.5,316.0,98.5,320.0,99.0,325.0,100.0,329.0,100.5,330.0,97.5,334.0,94.5,340.0,98.5,337.5,102.5,335.0,107.0,330.0,111.0,324.5,115.5,316.5,119.5,308.0,122.0,300.5,125.0,301.5,126.0,308.0,132.5,312.5" stroke="black" stroke-width="2" fill="none" />
<polyline points="126.5,310.5,127.0,314.5,126.0,317.0,127.0,321.0,129.0,325.0,128.0,328.5,127.5,332.5" stroke="black" stroke-width="2" fill="none" />
<polyline points="118.5,310.5,117.5,314.5,116.0,318.5,114.5,322.5,113.0,326.0,111.5,329.5,107.5,333.5,104.5,337.5,100.5,341.5,99.5,345.5,100.0,349.5,96.0,351.0,92.5,354.5,94.0,358.0,93.0,362.0,92.5,366.5,91.0,370.5,92.0,377.5,92.0,381.5,93.5,386.0" stroke="black" stroke-width="2" fill="none" />
<polyline points="21.5,367.5,20.0,374.0,21.0,370.0,21.5,366.0" stroke="black" stroke-width="2" fill="none" />
<polyline points="77.0,313.0,73.0,309.0" stroke="black" stroke-width="2" fill="none" />
<polyline points="97.5,340.5,101.5,337.0,106.0,333.0,109.0,329.5,111.5,326.0,113.0,322.0,115.0,318.0,116.0,314.0,118.0,310.0" stroke="black" stroke-width="2" fill="none" />
<polyline points="120.5,304.5,117.0,304.5,115.5,308.5,112.5,312.5,109.0,316.5,106.0,320.5,102.0,326.5" stroke="black" stroke-width="2" fill="none" />
<polyline points="133.5,301.5,133.5,297.5" stroke="black" stroke-width="2" fill="none" />
<polyline points="155.5,295.0,159.5,299.0" stroke="black" stroke-width="2" fill="none" />
<polyline points="171.5,295.5,172.5,300.0,174.5,306.5,176.5,311.0,173.5,317.5" stroke="black" stroke-width="2" fill="none" />
<polyline points="174.0,314.5,171.0,314.0,167.5,317.5,171.0,315.0,173.0,311.5" stroke="black" stroke-width="2" fill="none" />
<polyline points="178.5,303.0,182.0,306.5" stroke="black" stroke-width="2" fill="none" />
<polyline points="183.5,306.5,180.0,301.0" stroke="black" stroke-width="2" fill="none" />
<polyline points="177.0,300.5,179.5,301.0,182.0,305.0,184.5,309.0,181.5,310.5,182.5,312.5" stroke="black" stroke-width="2" fill="none" />
<polyline points="178.5,306.5,176.0,305.0,176.0,300.5" stroke="black" stroke-width="2" fill="none" />
<polyline points="173.5,293.0,179.5,294.0,177.0,297.5,174.5,301.5,173.5,305.0,171.0,309.0,166.5,308.0" stroke="black" stroke-width="2" fill="none" />
<polyline points="190.5,329.5,187.5,333.5,184.5,333.5,185.0,337.5,182.5,341.5,180.0,345.5,177.5,349.0,174.0,353.0,170.5,357.0,166.0,361.0,162.5,365.5,159.5,369.0,161.5,360.5,165.5,355.0,170.0,349.5,174.0,344.5,178.0,338.5,182.0,331.5,187.0,330.0,191.5,330.5" stroke="black" stroke-width="2" fill="none" />
<polyline points="218.0,307.5,218.5,311.5,218.5,315.0,219.0,319.0,220.5,323.0,221.0,327.0,222.5,330.5,223.0,334.5,223.5,340.0,224.5,344.0,220.5,348.5,220.5,352.5,220.5,356.5,221.0,360.5,221.5,364.0,222.0,368.0" stroke="black" stroke-width="2" fill="none" />
<polyline points="245.5,390.0,243.5,393.5,247.5,390.0,251.5,389.5,255.5,389.0,260.0,389.5,264.0,389.0,268.5,388.5" stroke="black" stroke-width="2" fill="none" />
<polyline points="265.5,385.0,261.0,385.5,257.0,385.5,253.0,384.5,252.0,382.0" stroke="black" stroke-width="2" fill="none" />
<polyline points="268.5,352.5,272.5,354.0,276.0,355.0" stroke="black" stroke-width="2" fill="none" />
<polyline points="284.0,351.5,279.5,351.5,275.5,351.0,271.5,350.5,267.5,351.0" stroke="black" stroke-width="2" fill="none" />
<polyline points="182.0,220.0,181.5,224.0,182.5,220.0,182.0,216.0,182.0,214.5" stroke="black" stroke-width="2" fill="none" />
<polyline points="181.5,216.5,181.0,212.5" stroke="black" stroke-width="2" fill="none" />
<polyline points="181.5,208.5,185.5,210.5,189.5,213.0,189.5,217.0,187.0,218.5,184.5,220.5,187.5,219.0,191.0,211.5,192.5,208.5,196.0,204.0,200.0,205.5" stroke="black" stroke-width="2" fill="none" />
<polyline points="199.0,204.0,195.0,204.0" stroke="black" stroke-width="2" fill="none" />
<polyline points="192.5,199.5,196.5,200.5,201.0,203.0" stroke="black" stroke-width="2" fill="none" />
<polyline points="204.0,202.0,200.0,200.5,196.5,198.5,192.5,197.5,190.5,198.0,186.5,201.0,182.5,206.5,181.5,208.0,183.5,204.0,187.5,199.5,190.0,199.0" stroke="black" stroke-width="2" fill="none" />
<polyline points="185.0,206.5,188.5,205.0,192.5,204.0,200.0,202.5" stroke="black" stroke-width="2" fill="none" />
<polyline points="216.5,187.5,221.0,183.0" stroke="black" stroke-width="2" fill="none" />
<polyline points="223.5,179.5,219.0,183.5,216.0,187.5,213.5,191.5,209.0,195.5,206.0,199.5" stroke="black" stroke-width="2" fill="none" />
<polyline points="219.0,188.5,222.5,183.5,225.5,184.0" stroke="black" stroke-width="2" fill="none" />
<polyline points="226.0,184.0,222.0,184.0,219.5,188.5,219.0,192.5,211.5,196.0,215.0,194.0" stroke="black" stroke-width="2" fill="none" />
<polyline points="222.5,176.0,217.5,180.0,214.0,183.5,210.5,187.0,207.5,190.5,207.0,194.0,207.0,196.0,210.5,194.0,214.5,191.5,218.5,192.0,222.5,189.0,226.5,188.0,231.0,186.5,232.0,183.0,235.5,182.0" stroke="black" stroke-width="2" fill="none" />
<polyline points="220.5,174.5,215.5,178.5,212.0,182.0,208.5,186.0,204.5,190.0,203.5,193.5,204.0,197.0" stroke="black" stroke-width="2" fill="none" />
<polyline points="175.5,212.5,171.0,214.5,169.0,216.0,173.5,212.5" stroke="black" stroke-width="2" fill="none" />
<polyline points="168.0,222.5,167.5,226.5,170.5,226.5,171.0,226.5,174.5,225.5,178.5,224.5" stroke="black" stroke-width="2" fill="none" />
<polyline points="167.5,226.5,163.5,227.0" stroke="black" stroke-width="2" fill="none" />
<polyline points="161.5,224.5,157.5,228.5,153.5,232.0,149.5,236.5,143.0,240.0,137.0,242.0,132.5,246.0,128.5,247.5,124.5,252.0,120.5,254.0,116.0,258.0,112.5,262.5,116.0,258.5,119.5,254.5,124.5,250.5" stroke="black" stroke-width="2" fill="none" />
<polyline points="131.0,248.0,135.0,246.0,139.0,245.0,141.5,245.0" stroke="black" stroke-width="2" fill="none" />
<polyline points="145.0,242.5,141.0,241.0,137.0,243.5" stroke="black" stroke-width="2" fill="none" />
<polyline points="136.5,257.0,132.5,256.5" stroke="black" stroke-width="2" fill="none" />
<polyline points="141.0,241.0,137.0,234.0,133.0,224.5" stroke="black" stroke-width="2" fill="none" />
<polyline points="141.0,226.0,145.0,217.5" stroke="black" stroke-width="2" fill="none" />
<polyline points="147.5,213.5,148.5,211.5,150.5,207.0" stroke="black" stroke-width="2" fill="none" />
<polyline points="148.5,193.0,144.5,188.5" stroke="black" stroke-width="2" fill="none" />
<polyline points="144.5,187.5,146.5,191.0,146.0,193.0" stroke="black" stroke-width="2" fill="none" />
<polyline points="142.0,193.5,146.0,198.5" stroke="black" stroke-width="2" fill="none" />
<polyline points="148.5,198.5,146.0,194.5,144.5,190.0,142.5,187.5,141.5,183.0,145.5,179.0,145.5,177.0,146.0,177.0,142.0,180.5" stroke="black" stroke-width="2" fill="none" />
<polyline points="144.0,184.5,148.5,186.0,150.0,189.5,152.5,190.5" stroke="black" stroke-width="2" fill="none" />
<polyline points="146.5,200.5,144.0,196.5,138.5,194.0,137.5,190.0,135.0,186.0,137.0,182.0,141.0,178.0,144.0,174.5,141.5,177.5,137.5,182.0,134.0,186.5" stroke="black" stroke-width="2" fill="none" />
<polyline points="140.5,194.0,139.0,198.0,136.0,201.5" stroke="black" stroke-width="2" fill="none" />
<polyline points="140.0,196.0,143.5,200.0,146.0,203.5,146.5,207.5,145.0,211.5,144.0,215.5,148.5,208.5,152.0,202.0" stroke="black" stroke-width="2" fill="none" />
<polyline points="160.0,224.0,156.0,228.0,151.5,230.5,148.0,235.5,145.5,239.0,143.0,246.0,142.0,250.0,142.5,254.0,141.0,258.5,139.5,262.5,134.0,264.5,131.5,268.5,131.5,268.5,136.0,268.5" stroke="black" stroke-width="2" fill="none" />
<polyline points="122.5,273.0,118.0,271.0,113.5,269.5" stroke="black" stroke-width="2" fill="none" />
<polyline points="113.5,229.0,111.5,231.0,114.0,227.0" stroke="black" stroke-width="2" fill="none" />
<polyline points="114.0,226.5,110.5,230.5,111.5,229.0,115.5,227.0" stroke="black" stroke-width="2" fill="none" />
<polyline points="128.5,207.0,124.0,199.5" stroke="black" stroke-width="2" fill="none" />
<polyline points="148.5,201.0,144.5,201.0,140.5,196.0,139.0,195.0,136.5,195.5,136.0,195.0,134.0,192.5,135.0,188.5,139.5,184.0,142.0,179.0,146.0,175.0,145.5,171.5" stroke="black" stroke-width="2" fill="none" />
<polyline points="129.5,140.5,133.5,135.5,134.0,131.0" stroke="black" stroke-width="2" fill="none" />
<polyline points="155.0,130.0,151.0,133.0,147.5,136.5,152.0,132.0,157.0,128.5" stroke="black" stroke-width="2" fill="none" />
<polyline points="190.5,133.0,186.5,136.0,188.0,135.0,193.0,131.5" stroke="black" stroke-width="2" fill="none" />
<polyline points="197.5,131.5,202.0,136.0,203.0,139.5,201.5,141.0,206.0,137.5,210.0,134.0,214.0,132.0,218.5,129.0,222.5,126.5" stroke="black" stroke-width="2" fill="none" />
<polyline points="225.0,126.0,219.0,130.0,212.5,134.5,207.0,138.5,208.0,139.0,212.0,135.5,216.0,133.0,220.0,130.0,224.0,127.5,228.0,125.5,232.0,122.5,236.5,120.5" stroke="black" stroke-width="2" fill="none" />
<polyline points="236.0,119.5,229.5,123.5,224.0,128.0,218.0,132.0,212.5,136.0,208.0,140.5,203.5,144.0,199.5,148.0,194.0,152.0,190.0,156.0,184.5,160.0,181.0,164.0,177.0,167.5,172.5,171.0,169.0,175.0,166.0,178.5,161.5,182.5,158.5,186.0,153.5,191.5,151.0,196.0,152.0,199.5,150.5,203.5,148.0,207.5,146.0,211.5,145.0,215.0,142.5,218.5,141.0,223.0,140.5,227.0,140.5,231.0,141.5,235.0,141.5,238.5,141.0,241.0,133.5,244.0,131.0,250.0,132.5,253.0,134.0,257.5,138.0,256.5,140.5,257.5" stroke="black" stroke-width="2" fill="none" />
<polyline points="165.5,231.5,162.5,235.5,160.0,239.0,160.5,239.0,165.0,233.5,166.5,229.5,171.0,229.0" stroke="black" stroke-width="2" fill="none" />
<polyline points="201.0,165.5,196.5,168.5,192.0,172.5,188.0,176.5,183.5,180.5,179.0,184.5,175.0,188.0,171.0,193.0,167.0,197.0,163.0,201.5,163.5,201.0,167.0,197.5,171.5,193.5,175.0,189.5,179.0,186.0,183.0,182.5,187.5,178.5,191.5,174.0,196.5,169.5,203.5,167.0,202.5,163.0" stroke="black" stroke-width="2" fill="none" />
<polyline points="202.0,162.5,206.0,162.5" stroke="black" stroke-width="2" fill="none" />
<polyline points="220.0,160.5,217.5,159.0,214.0,155.0,209.0,151.0,205.0,147.0" stroke="black" stroke-width="2" fill="none" />
<polyline points="212.5,139.5,216.5,143.5" stroke="black" stroke-width="2" fill="none" />
<polyline points="214.5,141.0,218.5,145.0,222.0,148.0" stroke="black" stroke-width="2" fill="none" />
<polyline points="232.0,141.5,236.0,145.5" stroke="black" stroke-width="2" fill="none" />
<polyline points="233.5,142.5,237.5,146.5,241.5,144.0,245.5,140.5,250.0,138.0,254.0,135.0,258.0,132.0,260.0,130.5,254.0,134.5,249.0,138.5,246.0,140.5,241.5,144.5" stroke="black" stroke-width="2" fill="none" />
<polyline points="257.5,133.5,254.0,136.5,250.0,139.5,246.0,142.5,242.5,145.5,238.0,148.5,234.0,152.0,229.5,154.5,225.5,157.5,221.5,161.0,219.5,162.5,224.0,158.5,230.0,154.5,235.0,150.5,241.0,146.5,245.5,142.5,251.0,138.5,256.5,134.5,260.5,130.5" stroke="black" stroke-width="2" fill="none" />
<polyline points="283.0,145.5,287.0,144.0" stroke="black" stroke-width="2" fill="none" />
<polyline points="298.0,134.0,293.0,138.0,288.5,142.0,291.0,140.0,295.5,136.5,299.5,133.5" stroke="black" stroke-width="2" fill="none" />
<polyline points="312.0,176.0,309.0,179.5,302.0,183.5,297.5,187.0,292.0,190.5,287.5,194.0,283.0,197.5,278.0,201.0,273.5,205.0,272.0,209.0,271.5,213.0,268.0,215.0" stroke="black" stroke-width="2" fill="none" />
<polyline points="231.0,126.5,224.5,130.5,218.0,134.5,213.0,138.5,207.0,143.0,202.0,146.5,198.0,150.5,196.0,152.5,200.0,149.0,204.0,145.0,208.0,141.5,212.0,138.5,216.0,135.5,219.5,132.5,224.0,130.0,227.5,127.5" stroke="black" stroke-width="2" fill="none" />
<polyline points="205.5,115.5,198.0,119.5,195.5,122.0,199.5,119.5,203.5,117.5" stroke="black" stroke-width="2" fill="none" />
<polyline points="197.0,109.0,194.0,111.5" stroke="black" stroke-width="2" fill="none" />
<polyline points="190.0,118.0,184.0,122.0,178.5,126.0,179.5,125.5,184.0,123.0,187.5,120.5" stroke="black" stroke-width="2" fill="none" />
<polyline points="190.0,120.0,184.0,124.0,179.0,128.5,181.0,127.5,185.0,124.5,189.5,123.0" stroke="black" stroke-width="2" fill="none" />
<polyline points="198.0,131.5,202.0,135.5" stroke="black" stroke-width="2" fill="none" />
<polyline points="237.0,98.5,233.0,101.5,229.0,104.0,225.0,104.5,220.5,107.5,224.5,104.0,231.0,102.5,237.5,98.5" stroke="black" stroke-width="2" fill="none" />
<polyline points="235.5,97.5,232.0,100.5,237.0,96.0" stroke="black" stroke-width="2" fill="none" />
<polyline points="246.5,91.0,242.5,93.5,248.5,90.0" stroke="black" stroke-width="2" fill="none" />
<polyline points="263.0,86.0,259.0,87.5,255.0,89.5,251.0,92.0,247.5,94.0,244.0,96.5,240.0,99.5,236.0,102.5,232.0,105.5,228.0,108.0,224.0,110.5,220.0,113.0,216.0,115.5,212.0,118.5,208.0,121.5,204.0,125.0,200.0,128.5,196.0,132.0,192.5,135.5,188.5,139.5,184.5,143.5,180.5,147.5,176.0,151.5,172.0,155.5,167.5,160.0,163.0,164.0,159.0,167.0,154.5,171.5,153.0,174.5,156.0,170.5,159.5,166.5,164.5,162.5,168.5,158.5,173.0,154.0,176.5,150.0,180.0,146.0,184.5,142.0,189.0,138.0,193.5,133.5,198.0,129.5,202.5,125.5,207.0,121.5,213.5,117.5,219.0,114.0,224.5,109.5,231.5,106.0,236.5,102.0,243.0,98.0,248.5,94.0,255.0,90.5,264.0,86.5" stroke="black" stroke-width="2" fill="none" />
<polyline points="236.0,80.0,229.0,84.0,225.0,88.0,227.0,85.5,231.0,82.5,235.0,80.0" stroke="black" stroke-width="2" fill="none" />
<polyline points="231.5,50.0,235.0,47.5" stroke="black" stroke-width="2" fill="none" />
<polyline points="229.0,47.0,224.0,51.0,227.0,48.0,231.0,48.0,235.5,48.0,239.5,48.5,243.0,49.0,247.0,50.0,251.0,51.5,255.0,53.0,259.0,54.0,263.0,56.0,267.0,58.5,271.0,61.0,275.0,63.5,279.0,66.5,283.5,69.5,287.5,72.0,291.5,75.5,296.0,76.0,300.0,79.0,304.0,85.0,307.5,90.0,311.5,96.0,315.5,99.0,319.5,102.5,323.5,108.0,327.5,114.0,331.5,123.0,335.5,130.0,340.0,133.5,344.0,139.0,347.5,147.0,351.5,144.0,355.5,141.5,359.5,138.5,363.5,136.5,367.5,135.0,371.5,132.5,376.0,130.0,380.0,127.0,383.5,124.0,387.5,121.0,391.5,117.5,395.5,114.0,399.5,112.5,403.5,112.0,407.5,113.0,411.5,113.0,415.5,115.0,419.5,122.5" stroke="black" stroke-width="2" fill="none" />
<polyline points="412.0,113.5,416.5,117.5,418.0,121.0,419.0,125.5,419.5,129.5,419.0,134.0,419.0,138.0,418.0,142.0,418.0,146.5,417.0,150.5,416.5,154.5,415.0,158.5,413.0,162.0,412.0,166.0,410.0,170.0,408.5,173.5,406.5,177.0,403.5,181.0,400.0,184.5,395.0,189.0,391.5,192.5,387.5,196.5,383.5,200.5,378.5,205.0,373.0,209.0,367.5,213.5,370.5,211.5,374.5,209.5,379.0,206.5,383.5,203.5,387.5,200.0,391.5,196.5,395.5,192.5,399.5,188.0,403.0,185.5,407.0,179.5,411.0,170.5,415.0,158.5" stroke="black" stroke-width="2" fill="none" />
<polyline points="405.0,157.5,401.0,162.0,397.0,166.0,392.0,170.0,387.0,174.0,387.5,173.5,391.5,170.0,395.5,166.5,399.5,162.5,403.5,159.0" stroke="black" stroke-width="2" fill="none" />
<polyline points="397.0,153.5,394.0,157.5,391.5,161.0,389.0,165.0,387.0,169.5,384.5,173.5,382.0,177.5,384.0,174.5,387.5,167.5,391.0,160.5,395.5,154.5" stroke="black" stroke-width="2" fill="none" />
<polyline points="395.0,123.0,391.5,127.0,387.5,130.5,383.5,133.5,381.5,135.0,387.0,131.0,392.0,127.0,397.0,123.0" stroke="black" stroke-width="2" fill="none" />
<polyline points="396.0,121.0,392.0,124.0,388.0,127.0,384.0,130.5,380.5,134.0,384.5,130.0,390.0,126.5,394.5,122.5" stroke="black" stroke-width="2" fill="none" />
<polyline points="397.5,113.5,391.0,117.0,386.5,121.0,381.0,125.0,376.0,129.0,370.5,133.0,364.0,136.5,357.0,140.5,350.5,144.5" stroke="black" stroke-width="2" fill="none" />
<polyline points="369.0,133.0,370.0,131.5,370.0,127.5" stroke="black" stroke-width="2" fill="none" />
<polyline points="386.5,107.0,382.5,101.5,378.0,97.5" stroke="black" stroke-width="2" fill="none" />
<polyline points="379.0,96.5,383.0,100.5,384.5,104.5,388.5,108.5" stroke="black" stroke-width="2" fill="none" />
<polyline points="441.5,68.5,437.5,62.0,433.5,55.0,429.5,49.0,425.0,42.0,421.0,34.0,416.5,28.0,412.5,20.5,408.5,14.0,404.5,7.5" stroke="black" stroke-width="2" fill="none" />
<polyline points="512.5,73.0,509.0,77.0,505.5,81.5,502.0,85.5,497.5,89.5,493.0,95.0,490.5,100.0,487.0,104.5,483.5,109.0,481.0,113.5,477.5,117.5,475.0,121.5,472.5,125.0,469.5,129.0,467.5,133.0,464.0,137.0,461.5,141.0,459.5,145.0,455.5,149.5,453.5,153.5,451.0,157.5,449.0,161.0,447.0,165.5,444.5,169.5,442.5,173.5,441.5,178.0,438.5,182.5,436.5,186.0,435.0,190.0,433.5,194.0,431.5,198.0,429.5,202.0,428.5,206.0,427.0,210.0,425.5,215.0,422.0,219.0,422.0,223.5,420.0,228.0,419.0,232.5,418.0,237.0,416.5,241.0,414.5,245.0,412.5,248.5,413.0,250.5,410.0,254.0,408.0,258.0,407.0,261.5,405.0,265.5,404.0,269.5,402.5,273.0,400.0,276.0,399.5,280.5,399.0,285.0,398.5,289.0,397.0,293.5,397.0,298.0,395.5,302.0,395.0,305.5,394.0,309.5,393.0,314.0,392.0,318.0,391.5,322.0,390.0,325.5,389.0,329.5,387.5,334.0,386.5,338.0,387.0,342.0" stroke="black" stroke-width="2" fill="none" />
<polyline points="347.5,148.0,345.5,143.5,344.5,139.0,342.0,135.0,337.5,131.0,334.5,127.0,331.5,123.5,329.0,119.5,327.5,115.5,324.5,112.0,322.5,108.0,319.5,104.0,315.0,100.0,310.0,96.0,307.5,92.0,304.0,88.0,300.5,83.5,298.0,79.5,290.0,75.5,285.5,71.5,280.0,68.0,274.0,63.5,268.5,59.5,262.0,55.5,251.5,51.0" stroke="black" stroke-width="2" fill="none" />
<polyline points="211.5,47.5,207.5,49.5" stroke="black" stroke-width="2" fill="none" />
<polyline points="173.5,60.5,169.5,62.0,165.5,61.5,160.5,64.5,159.5,69.0,161.0,64.5" stroke="black" stroke-width="2" fill="none" />
<polyline points="160.5,65.0,158.5,69.0,155.0,74.0,153.5,77.5,153.5,77.0,157.5,72.0,160.5,69.5" stroke="black" stroke-width="2" fill="none" />
<polyline points="155.0,75.5,153.5,79.5,151.5,83.5,155.5,77.0" stroke="black" stroke-width="2" fill="none" />
</svg>